<?xml version="1.0" encoding="UTF-8" standalone="no"?>
<svg width="7627.62mm" height="11861mm"
 xmlns="http://www.w3.org/2000/svg" xmlns:xlink="http://www.w3.org/1999/xlink"  version="1.2" baseProfile="tiny">
<title>SVG Generator Example Drawing</title>
<desc>An SVG drawing created by the SVG Generator</desc>
<defs>
</defs>
<g fill="none" stroke="black" stroke-width="1" fill-rule="evenodd" stroke-linecap="square" stroke-linejoin="bevel" >

<g fill="none" stroke="#000000" stroke-opacity="1" stroke-width="1" stroke-linecap="square" stroke-linejoin="bevel" transform="matrix(1,0,0,-1,0,42027.7)"
font-family="MS Shell Dlg 2" font-size="10.3125" font-weight="400" font-style="normal" 
>
</g>

<g fill="none" stroke="#000000" stroke-opacity="1" stroke-width="1" stroke-linecap="square" stroke-linejoin="bevel" transform="matrix(1,0,0,-1,0,42027.7)"
font-family="MS Shell Dlg 2" font-size="10.3125" font-weight="400" font-style="normal" 
>
</g>

<g fill="none" stroke="#000000" stroke-opacity="1" stroke-width="1" stroke-linecap="square" stroke-linejoin="bevel" transform="matrix(0.999975,0,0,-0.999975,1870.46,7046.68)"
font-family="MS Shell Dlg 2" font-size="10.3125" font-weight="400" font-style="normal" 
>
</g>

<g fill="#333333" fill-opacity="0.2" stroke="#333333" stroke-opacity="1" stroke-width="1" stroke-linecap="round" stroke-linejoin="round" transform="matrix(0.999975,0,0,-0.999975,1870.46,7046.68)"
font-family="MS Shell Dlg 2" font-size="10.3125" font-weight="400" font-style="normal" 
>
<path vector-effect="non-scaling-stroke" fill-rule="evenodd" d="M-870.003,-33981.4 L-1856.67,-33981.4 L-1861.77,-33980.3 L-1866.1,-33977.4 L-1868.99,-33973.1 L-1870,-33968 L-1868.99,-33962.9 L-1866.1,-33958.6 L-1861.77,-33955.7 L-1856.67,-33954.7 L-870.003,-33954.7 L-870.003,-32968 L-868.988,-32962.9 L-866.098,-32958.6 L-861.772,-32955.7 L-856.67,-32954.7 L-851.567,-32955.7 L-847.242,-32958.6 L-844.351,-32962.9 L-843.336,-32968 L-843.336,-33954.7 L143.33,-33954.7 L148.433,-33955.7 L152.758,-33958.6 L155.649,-33962.9 L156.664,-33968 L155.649,-33973.1 L152.758,-33977.4 L148.433,-33980.3 L143.33,-33981.4 L-843.336,-33981.4 L-843.336,-34968 L-844.351,-34973.1 L-847.242,-34977.4 L-851.567,-34980.3 L-856.67,-34981.4 L-861.772,-34980.3 L-866.098,-34977.4 L-868.988,-34973.1 L-870.003,-34968 L-870.003,-33981.4"/>
</g>

<g fill="none" stroke="#000000" stroke-opacity="1" stroke-width="1" stroke-linecap="square" stroke-linejoin="bevel" transform="matrix(0.999975,0,0,-0.999975,1870.46,7046.68)"
font-family="MS Shell Dlg 2" font-size="10.3125" font-weight="400" font-style="normal" 
>
</g>

<g fill="none" stroke="#000000" stroke-opacity="1" stroke-width="1" stroke-linecap="square" stroke-linejoin="bevel" transform="matrix(0.999975,0,0,-0.999975,1870.46,7046.68)"
font-family="MS Shell Dlg 2" font-size="10.3125" font-weight="400" font-style="normal" 
>
</g>

<g fill="#333333" fill-opacity="0.2" stroke="#333333" stroke-opacity="1" stroke-width="1" stroke-linecap="round" stroke-linejoin="round" transform="matrix(0.999975,0,0,-0.999975,1870.46,7046.68)"
font-family="MS Shell Dlg 2" font-size="10.3125" font-weight="400" font-style="normal" 
>
<path vector-effect="non-scaling-stroke" fill-rule="evenodd" d="M24130,-33981.4 L23143.3,-33981.4 L23138.2,-33980.3 L23133.9,-33977.4 L23131,-33973.1 L23130,-33968 L23131,-33962.9 L23133.9,-33958.6 L23138.2,-33955.7 L23143.3,-33954.7 L24130,-33954.7 L24130,-32968 L24131,-32962.9 L24133.9,-32958.6 L24138.2,-32955.7 L24143.3,-32954.7 L24148.4,-32955.7 L24152.8,-32958.6 L24155.6,-32962.9 L24156.7,-32968 L24156.7,-33954.7 L25143.3,-33954.7 L25148.4,-33955.7 L25152.8,-33958.6 L25155.6,-33962.9 L25156.7,-33968 L25155.6,-33973.1 L25152.8,-33977.4 L25148.4,-33980.3 L25143.3,-33981.4 L24156.7,-33981.4 L24156.7,-34968 L24155.6,-34973.1 L24152.8,-34977.4 L24148.4,-34980.3 L24143.3,-34981.4 L24138.2,-34980.3 L24133.9,-34977.4 L24131,-34973.1 L24130,-34968 L24130,-33981.4"/>
</g>

<g fill="none" stroke="#000000" stroke-opacity="1" stroke-width="1" stroke-linecap="square" stroke-linejoin="bevel" transform="matrix(0.999975,0,0,-0.999975,1870.46,7046.68)"
font-family="MS Shell Dlg 2" font-size="10.3125" font-weight="400" font-style="normal" 
>
</g>

<g fill="none" stroke="#000000" stroke-opacity="1" stroke-width="1" stroke-linecap="square" stroke-linejoin="bevel" transform="matrix(0.999975,0,0,-0.999975,1870.46,7046.68)"
font-family="MS Shell Dlg 2" font-size="10.3125" font-weight="400" font-style="normal" 
>
</g>

<g fill="#333333" fill-opacity="0.2" stroke="#333333" stroke-opacity="1" stroke-width="1" stroke-linecap="round" stroke-linejoin="round" transform="matrix(0.999975,0,0,-0.999975,1870.46,7046.68)"
font-family="MS Shell Dlg 2" font-size="10.3125" font-weight="400" font-style="normal" 
>
<path vector-effect="non-scaling-stroke" fill-rule="evenodd" d="M-870.003,6018.65 L-1856.67,6018.65 L-1861.77,6019.66 L-1866.1,6022.55 L-1868.99,6026.88 L-1870,6031.98 L-1868.99,6037.08 L-1866.1,6041.41 L-1861.77,6044.3 L-1856.67,6045.32 L-870.003,6045.32 L-870.003,7031.98 L-868.988,7037.08 L-866.098,7041.41 L-861.772,7044.3 L-856.67,7045.32 L-851.567,7044.3 L-847.242,7041.41 L-844.351,7037.08 L-843.336,7031.98 L-843.336,6045.32 L143.33,6045.32 L148.433,6044.3 L152.758,6041.41 L155.649,6037.08 L156.664,6031.98 L155.649,6026.88 L152.758,6022.55 L148.433,6019.66 L143.33,6018.65 L-843.336,6018.65 L-843.336,5031.98 L-844.351,5026.88 L-847.242,5022.55 L-851.567,5019.66 L-856.67,5018.65 L-861.772,5019.66 L-866.098,5022.55 L-868.988,5026.88 L-870.003,5031.98 L-870.003,6018.65"/>
</g>

<g fill="none" stroke="#000000" stroke-opacity="1" stroke-width="1" stroke-linecap="square" stroke-linejoin="bevel" transform="matrix(0.999975,0,0,-0.999975,1870.46,7046.68)"
font-family="MS Shell Dlg 2" font-size="10.3125" font-weight="400" font-style="normal" 
>
</g>

<g fill="none" stroke="#000000" stroke-opacity="1" stroke-width="1" stroke-linecap="square" stroke-linejoin="bevel" transform="matrix(0.999975,0,0,-0.999975,1870.46,7046.68)"
font-family="MS Shell Dlg 2" font-size="10.3125" font-weight="400" font-style="normal" 
>
</g>

<g fill="#333333" fill-opacity="0.2" stroke="#333333" stroke-opacity="1" stroke-width="1" stroke-linecap="round" stroke-linejoin="round" transform="matrix(0.999975,0,0,-0.999975,1870.46,7046.68)"
font-family="MS Shell Dlg 2" font-size="10.3125" font-weight="400" font-style="normal" 
>
<path vector-effect="non-scaling-stroke" fill-rule="evenodd" d="M24130,6018.65 L23143.3,6018.65 L23138.2,6019.66 L23133.9,6022.55 L23131,6026.88 L23130,6031.98 L23131,6037.08 L23133.9,6041.41 L23138.2,6044.3 L23143.3,6045.32 L24130,6045.32 L24130,7031.98 L24131,7037.08 L24133.9,7041.41 L24138.2,7044.3 L24143.3,7045.32 L24148.4,7044.3 L24152.8,7041.41 L24155.6,7037.08 L24156.7,7031.98 L24156.7,6045.32 L25143.3,6045.32 L25148.4,6044.3 L25152.8,6041.41 L25155.6,6037.08 L25156.7,6031.98 L25155.6,6026.88 L25152.8,6022.55 L25148.4,6019.66 L25143.3,6018.65 L24156.7,6018.65 L24156.7,5031.98 L24155.6,5026.88 L24152.8,5022.55 L24148.4,5019.66 L24143.3,5018.65 L24138.2,5019.66 L24133.9,5022.55 L24131,5026.88 L24130,5031.98 L24130,6018.65"/>
</g>

<g fill="none" stroke="#000000" stroke-opacity="1" stroke-width="1" stroke-linecap="square" stroke-linejoin="bevel" transform="matrix(0.999975,0,0,-0.999975,1870.46,7046.68)"
font-family="MS Shell Dlg 2" font-size="10.3125" font-weight="400" font-style="normal" 
>
</g>

<g fill="none" stroke="#000000" stroke-opacity="1" stroke-width="1" stroke-linecap="square" stroke-linejoin="bevel" transform="matrix(0.999975,0,0,-0.999975,1870.46,7046.68)"
font-family="MS Shell Dlg 2" font-size="10.3125" font-weight="400" font-style="normal" 
>
</g>

<g fill="#ae5151" fill-opacity="0.2" stroke="#333333" stroke-opacity="1" stroke-width="1" stroke-linecap="round" stroke-linejoin="round" transform="matrix(0.999975,0,0,-0.999975,1870.46,7046.68)"
font-family="MS Shell Dlg 2" font-size="10.3125" font-weight="400" font-style="normal" 
>
<path vector-effect="non-scaling-stroke" fill-rule="evenodd" d="M-870.003,-33981.4 L-1856.67,-33981.4 L-1861.77,-33980.3 L-1866.1,-33977.4 L-1868.99,-33973.1 L-1870,-33968 L-1868.99,-33962.9 L-1866.1,-33958.6 L-1861.77,-33955.7 L-1856.67,-33954.7 L-870.003,-33954.7 L-870.003,-32968 L-868.988,-32962.9 L-866.098,-32958.6 L-861.772,-32955.7 L-856.67,-32954.7 L-851.567,-32955.7 L-847.242,-32958.6 L-844.351,-32962.9 L-843.336,-32968 L-843.336,-33954.7 L143.33,-33954.7 L148.433,-33955.7 L152.758,-33958.6 L155.649,-33962.9 L156.664,-33968 L155.649,-33973.1 L152.758,-33977.4 L148.433,-33980.3 L143.33,-33981.4 L-843.336,-33981.4 L-843.336,-34968 L-844.351,-34973.1 L-847.242,-34977.4 L-851.567,-34980.3 L-856.67,-34981.4 L-861.772,-34980.3 L-866.098,-34977.4 L-868.988,-34973.1 L-870.003,-34968 L-870.003,-33981.4"/>
</g>

<g fill="none" stroke="#000000" stroke-opacity="1" stroke-width="1" stroke-linecap="square" stroke-linejoin="bevel" transform="matrix(0.999975,0,0,-0.999975,1870.46,7046.68)"
font-family="MS Shell Dlg 2" font-size="10.3125" font-weight="400" font-style="normal" 
>
</g>

<g fill="none" stroke="#000000" stroke-opacity="1" stroke-width="1" stroke-linecap="square" stroke-linejoin="bevel" transform="matrix(0.999975,0,0,-0.999975,1870.46,7046.68)"
font-family="MS Shell Dlg 2" font-size="10.3125" font-weight="400" font-style="normal" 
>
</g>

<g fill="#ae5151" fill-opacity="0.2" stroke="#333333" stroke-opacity="1" stroke-width="1" stroke-linecap="round" stroke-linejoin="round" transform="matrix(0.999975,0,0,-0.999975,1870.46,7046.68)"
font-family="MS Shell Dlg 2" font-size="10.3125" font-weight="400" font-style="normal" 
>
<path vector-effect="non-scaling-stroke" fill-rule="evenodd" d="M24130,-33981.4 L23143.3,-33981.4 L23138.2,-33980.3 L23133.9,-33977.4 L23131,-33973.1 L23130,-33968 L23131,-33962.9 L23133.9,-33958.6 L23138.2,-33955.7 L23143.3,-33954.7 L24130,-33954.7 L24130,-32968 L24131,-32962.9 L24133.9,-32958.6 L24138.2,-32955.7 L24143.3,-32954.7 L24148.4,-32955.7 L24152.8,-32958.6 L24155.6,-32962.9 L24156.7,-32968 L24156.7,-33954.7 L25143.3,-33954.7 L25148.4,-33955.7 L25152.8,-33958.6 L25155.6,-33962.9 L25156.7,-33968 L25155.6,-33973.1 L25152.8,-33977.4 L25148.4,-33980.3 L25143.3,-33981.4 L24156.7,-33981.4 L24156.7,-34968 L24155.6,-34973.1 L24152.8,-34977.4 L24148.4,-34980.3 L24143.3,-34981.4 L24138.2,-34980.3 L24133.9,-34977.4 L24131,-34973.1 L24130,-34968 L24130,-33981.4"/>
</g>

<g fill="none" stroke="#000000" stroke-opacity="1" stroke-width="1" stroke-linecap="square" stroke-linejoin="bevel" transform="matrix(0.999975,0,0,-0.999975,1870.46,7046.68)"
font-family="MS Shell Dlg 2" font-size="10.3125" font-weight="400" font-style="normal" 
>
</g>

<g fill="none" stroke="#000000" stroke-opacity="1" stroke-width="1" stroke-linecap="square" stroke-linejoin="bevel" transform="matrix(0.999975,0,0,-0.999975,1870.46,7046.68)"
font-family="MS Shell Dlg 2" font-size="10.3125" font-weight="400" font-style="normal" 
>
</g>

<g fill="#ae5151" fill-opacity="0.2" stroke="#333333" stroke-opacity="1" stroke-width="1" stroke-linecap="round" stroke-linejoin="round" transform="matrix(0.999975,0,0,-0.999975,1870.46,7046.68)"
font-family="MS Shell Dlg 2" font-size="10.3125" font-weight="400" font-style="normal" 
>
<path vector-effect="non-scaling-stroke" fill-rule="evenodd" d="M-870.003,6018.65 L-1856.67,6018.65 L-1861.77,6019.66 L-1866.1,6022.55 L-1868.99,6026.88 L-1870,6031.98 L-1868.99,6037.08 L-1866.1,6041.41 L-1861.77,6044.3 L-1856.67,6045.32 L-870.003,6045.32 L-870.003,7031.98 L-868.988,7037.08 L-866.098,7041.41 L-861.772,7044.3 L-856.67,7045.32 L-851.567,7044.3 L-847.242,7041.41 L-844.351,7037.08 L-843.336,7031.98 L-843.336,6045.32 L143.33,6045.32 L148.433,6044.3 L152.758,6041.41 L155.649,6037.08 L156.664,6031.98 L155.649,6026.88 L152.758,6022.55 L148.433,6019.66 L143.33,6018.65 L-843.336,6018.65 L-843.336,5031.98 L-844.351,5026.88 L-847.242,5022.55 L-851.567,5019.66 L-856.67,5018.65 L-861.772,5019.66 L-866.098,5022.55 L-868.988,5026.88 L-870.003,5031.98 L-870.003,6018.65"/>
</g>

<g fill="none" stroke="#000000" stroke-opacity="1" stroke-width="1" stroke-linecap="square" stroke-linejoin="bevel" transform="matrix(0.999975,0,0,-0.999975,1870.46,7046.68)"
font-family="MS Shell Dlg 2" font-size="10.3125" font-weight="400" font-style="normal" 
>
</g>

<g fill="none" stroke="#000000" stroke-opacity="1" stroke-width="1" stroke-linecap="square" stroke-linejoin="bevel" transform="matrix(0.999975,0,0,-0.999975,1870.46,7046.68)"
font-family="MS Shell Dlg 2" font-size="10.3125" font-weight="400" font-style="normal" 
>
</g>

<g fill="#ae5151" fill-opacity="0.2" stroke="#333333" stroke-opacity="1" stroke-width="1" stroke-linecap="round" stroke-linejoin="round" transform="matrix(0.999975,0,0,-0.999975,1870.46,7046.68)"
font-family="MS Shell Dlg 2" font-size="10.3125" font-weight="400" font-style="normal" 
>
<path vector-effect="non-scaling-stroke" fill-rule="evenodd" d="M24130,6018.65 L23143.3,6018.65 L23138.2,6019.66 L23133.9,6022.55 L23131,6026.88 L23130,6031.98 L23131,6037.08 L23133.9,6041.41 L23138.2,6044.3 L23143.3,6045.32 L24130,6045.32 L24130,7031.98 L24131,7037.08 L24133.9,7041.41 L24138.2,7044.3 L24143.3,7045.32 L24148.4,7044.3 L24152.8,7041.41 L24155.6,7037.08 L24156.7,7031.98 L24156.7,6045.32 L25143.3,6045.32 L25148.4,6044.3 L25152.8,6041.41 L25155.6,6037.08 L25156.7,6031.98 L25155.6,6026.88 L25152.8,6022.55 L25148.4,6019.66 L25143.3,6018.65 L24156.7,6018.65 L24156.7,5031.98 L24155.6,5026.88 L24152.8,5022.55 L24148.4,5019.66 L24143.3,5018.65 L24138.2,5019.66 L24133.9,5022.55 L24131,5026.88 L24130,5031.98 L24130,6018.65"/>
</g>

<g fill="none" stroke="#000000" stroke-opacity="1" stroke-width="1" stroke-linecap="square" stroke-linejoin="bevel" transform="matrix(0.999975,0,0,-0.999975,1870.46,7046.68)"
font-family="MS Shell Dlg 2" font-size="10.3125" font-weight="400" font-style="normal" 
>
</g>

<g fill="none" stroke="#000000" stroke-opacity="1" stroke-width="1" stroke-linecap="square" stroke-linejoin="bevel" transform="matrix(0.999975,0,0,-0.999975,1870.46,7046.68)"
font-family="MS Shell Dlg 2" font-size="10.3125" font-weight="400" font-style="normal" 
>
</g>

<g fill="#ffff00" fill-opacity="0.2" stroke="#333333" stroke-opacity="1" stroke-width="1" stroke-linecap="round" stroke-linejoin="round" transform="matrix(0.999975,0,0,-0.999975,1870.46,7046.68)"
font-family="MS Shell Dlg 2" font-size="10.3125" font-weight="400" font-style="normal" 
>
<path vector-effect="non-scaling-stroke" fill-rule="evenodd" d="M-870.003,-33981.4 L-1856.67,-33981.4 L-1861.77,-33980.3 L-1866.1,-33977.4 L-1868.99,-33973.1 L-1870,-33968 L-1868.99,-33962.9 L-1866.1,-33958.6 L-1861.77,-33955.7 L-1856.67,-33954.7 L-870.003,-33954.7 L-870.003,-32968 L-868.988,-32962.9 L-866.098,-32958.6 L-861.772,-32955.7 L-856.67,-32954.7 L-851.567,-32955.7 L-847.242,-32958.6 L-844.351,-32962.9 L-843.336,-32968 L-843.336,-33954.7 L143.33,-33954.7 L148.433,-33955.7 L152.758,-33958.6 L155.649,-33962.9 L156.664,-33968 L155.649,-33973.1 L152.758,-33977.4 L148.433,-33980.3 L143.33,-33981.4 L-843.336,-33981.4 L-843.336,-34968 L-844.351,-34973.1 L-847.242,-34977.4 L-851.567,-34980.3 L-856.67,-34981.4 L-861.772,-34980.3 L-866.098,-34977.4 L-868.988,-34973.1 L-870.003,-34968 L-870.003,-33981.4"/>
</g>

<g fill="none" stroke="#000000" stroke-opacity="1" stroke-width="1" stroke-linecap="square" stroke-linejoin="bevel" transform="matrix(0.999975,0,0,-0.999975,1870.46,7046.68)"
font-family="MS Shell Dlg 2" font-size="10.3125" font-weight="400" font-style="normal" 
>
</g>

<g fill="none" stroke="#000000" stroke-opacity="1" stroke-width="1" stroke-linecap="square" stroke-linejoin="bevel" transform="matrix(0.999975,0,0,-0.999975,1870.46,7046.68)"
font-family="MS Shell Dlg 2" font-size="10.3125" font-weight="400" font-style="normal" 
>
</g>

<g fill="#ffff00" fill-opacity="0.2" stroke="#333333" stroke-opacity="1" stroke-width="1" stroke-linecap="round" stroke-linejoin="round" transform="matrix(0.999975,0,0,-0.999975,1870.46,7046.68)"
font-family="MS Shell Dlg 2" font-size="10.3125" font-weight="400" font-style="normal" 
>
<path vector-effect="non-scaling-stroke" fill-rule="evenodd" d="M24130,-33981.4 L23143.3,-33981.4 L23138.2,-33980.3 L23133.9,-33977.4 L23131,-33973.1 L23130,-33968 L23131,-33962.9 L23133.9,-33958.6 L23138.2,-33955.7 L23143.3,-33954.7 L24130,-33954.7 L24130,-32968 L24131,-32962.9 L24133.9,-32958.6 L24138.2,-32955.7 L24143.3,-32954.7 L24148.4,-32955.7 L24152.8,-32958.6 L24155.6,-32962.9 L24156.7,-32968 L24156.7,-33954.7 L25143.3,-33954.7 L25148.4,-33955.7 L25152.8,-33958.6 L25155.6,-33962.9 L25156.7,-33968 L25155.6,-33973.1 L25152.8,-33977.4 L25148.4,-33980.3 L25143.3,-33981.4 L24156.7,-33981.4 L24156.7,-34968 L24155.6,-34973.1 L24152.8,-34977.4 L24148.4,-34980.3 L24143.3,-34981.4 L24138.2,-34980.3 L24133.9,-34977.4 L24131,-34973.1 L24130,-34968 L24130,-33981.4"/>
</g>

<g fill="none" stroke="#000000" stroke-opacity="1" stroke-width="1" stroke-linecap="square" stroke-linejoin="bevel" transform="matrix(0.999975,0,0,-0.999975,1870.46,7046.68)"
font-family="MS Shell Dlg 2" font-size="10.3125" font-weight="400" font-style="normal" 
>
</g>

<g fill="none" stroke="#000000" stroke-opacity="1" stroke-width="1" stroke-linecap="square" stroke-linejoin="bevel" transform="matrix(0.999975,0,0,-0.999975,1870.46,7046.68)"
font-family="MS Shell Dlg 2" font-size="10.3125" font-weight="400" font-style="normal" 
>
</g>

<g fill="#ffff00" fill-opacity="0.2" stroke="#333333" stroke-opacity="1" stroke-width="1" stroke-linecap="round" stroke-linejoin="round" transform="matrix(0.999975,0,0,-0.999975,1870.46,7046.68)"
font-family="MS Shell Dlg 2" font-size="10.3125" font-weight="400" font-style="normal" 
>
<path vector-effect="non-scaling-stroke" fill-rule="evenodd" d="M-870.003,6018.65 L-1856.67,6018.65 L-1861.77,6019.66 L-1866.1,6022.55 L-1868.99,6026.88 L-1870,6031.98 L-1868.99,6037.08 L-1866.1,6041.41 L-1861.77,6044.3 L-1856.67,6045.32 L-870.003,6045.32 L-870.003,7031.98 L-868.988,7037.08 L-866.098,7041.41 L-861.772,7044.3 L-856.67,7045.32 L-851.567,7044.3 L-847.242,7041.41 L-844.351,7037.08 L-843.336,7031.98 L-843.336,6045.32 L143.33,6045.32 L148.433,6044.3 L152.758,6041.41 L155.649,6037.08 L156.664,6031.98 L155.649,6026.88 L152.758,6022.55 L148.433,6019.66 L143.33,6018.65 L-843.336,6018.65 L-843.336,5031.98 L-844.351,5026.88 L-847.242,5022.55 L-851.567,5019.66 L-856.67,5018.65 L-861.772,5019.66 L-866.098,5022.55 L-868.988,5026.88 L-870.003,5031.98 L-870.003,6018.65"/>
</g>

<g fill="none" stroke="#000000" stroke-opacity="1" stroke-width="1" stroke-linecap="square" stroke-linejoin="bevel" transform="matrix(0.999975,0,0,-0.999975,1870.46,7046.68)"
font-family="MS Shell Dlg 2" font-size="10.3125" font-weight="400" font-style="normal" 
>
</g>

<g fill="none" stroke="#000000" stroke-opacity="1" stroke-width="1" stroke-linecap="square" stroke-linejoin="bevel" transform="matrix(0.999975,0,0,-0.999975,1870.46,7046.68)"
font-family="MS Shell Dlg 2" font-size="10.3125" font-weight="400" font-style="normal" 
>
</g>

<g fill="#ffff00" fill-opacity="0.2" stroke="#333333" stroke-opacity="1" stroke-width="1" stroke-linecap="round" stroke-linejoin="round" transform="matrix(0.999975,0,0,-0.999975,1870.46,7046.68)"
font-family="MS Shell Dlg 2" font-size="10.3125" font-weight="400" font-style="normal" 
>
<path vector-effect="non-scaling-stroke" fill-rule="evenodd" d="M24130,6018.65 L23143.3,6018.65 L23138.2,6019.66 L23133.9,6022.55 L23131,6026.88 L23130,6031.98 L23131,6037.08 L23133.9,6041.41 L23138.2,6044.3 L23143.3,6045.32 L24130,6045.32 L24130,7031.98 L24131,7037.08 L24133.9,7041.41 L24138.2,7044.3 L24143.3,7045.32 L24148.4,7044.3 L24152.8,7041.41 L24155.6,7037.08 L24156.7,7031.98 L24156.7,6045.32 L25143.3,6045.32 L25148.4,6044.3 L25152.8,6041.41 L25155.6,6037.08 L25156.7,6031.98 L25155.6,6026.88 L25152.8,6022.55 L25148.4,6019.66 L25143.3,6018.65 L24156.7,6018.65 L24156.7,5031.98 L24155.6,5026.88 L24152.8,5022.55 L24148.4,5019.66 L24143.3,5018.65 L24138.2,5019.66 L24133.9,5022.55 L24131,5026.88 L24130,5031.98 L24130,6018.65"/>
</g>

<g fill="none" stroke="#000000" stroke-opacity="1" stroke-width="1" stroke-linecap="square" stroke-linejoin="bevel" transform="matrix(0.999975,0,0,-0.999975,1870.46,7046.68)"
font-family="MS Shell Dlg 2" font-size="10.3125" font-weight="400" font-style="normal" 
>
</g>

<g fill="none" stroke="#000000" stroke-opacity="1" stroke-width="1" stroke-linecap="square" stroke-linejoin="bevel" transform="matrix(0.999975,0,0,-0.999975,1870.46,7046.68)"
font-family="MS Shell Dlg 2" font-size="10.3125" font-weight="400" font-style="normal" 
>
</g>

<g fill="#ae5151" fill-opacity="0.2" stroke="#333333" stroke-opacity="1" stroke-width="1" stroke-linecap="round" stroke-linejoin="round" transform="matrix(0.999975,0,0,-0.999975,1870.46,7046.68)"
font-family="MS Shell Dlg 2" font-size="10.3125" font-weight="400" font-style="normal" 
>
<path vector-effect="non-scaling-stroke" fill-rule="evenodd" d="M-870.003,-33981.4 L-1856.67,-33981.4 L-1861.77,-33980.3 L-1866.1,-33977.4 L-1868.99,-33973.1 L-1870,-33968 L-1868.99,-33962.9 L-1866.1,-33958.6 L-1861.77,-33955.7 L-1856.67,-33954.7 L-870.003,-33954.7 L-870.003,-32968 L-868.988,-32962.9 L-866.098,-32958.6 L-861.772,-32955.7 L-856.67,-32954.7 L-851.567,-32955.7 L-847.242,-32958.6 L-844.351,-32962.9 L-843.336,-32968 L-843.336,-33954.7 L143.33,-33954.7 L148.433,-33955.7 L152.758,-33958.6 L155.649,-33962.9 L156.664,-33968 L155.649,-33973.1 L152.758,-33977.4 L148.433,-33980.3 L143.33,-33981.4 L-843.336,-33981.4 L-843.336,-34968 L-844.351,-34973.1 L-847.242,-34977.4 L-851.567,-34980.3 L-856.67,-34981.4 L-861.772,-34980.3 L-866.098,-34977.4 L-868.988,-34973.1 L-870.003,-34968 L-870.003,-33981.4"/>
</g>

<g fill="none" stroke="#000000" stroke-opacity="1" stroke-width="1" stroke-linecap="square" stroke-linejoin="bevel" transform="matrix(0.999975,0,0,-0.999975,1870.46,7046.68)"
font-family="MS Shell Dlg 2" font-size="10.3125" font-weight="400" font-style="normal" 
>
</g>

<g fill="none" stroke="#000000" stroke-opacity="1" stroke-width="1" stroke-linecap="square" stroke-linejoin="bevel" transform="matrix(0.999975,0,0,-0.999975,1870.46,7046.68)"
font-family="MS Shell Dlg 2" font-size="10.3125" font-weight="400" font-style="normal" 
>
</g>

<g fill="#ae5151" fill-opacity="0.2" stroke="#333333" stroke-opacity="1" stroke-width="1" stroke-linecap="round" stroke-linejoin="round" transform="matrix(0.999975,0,0,-0.999975,1870.46,7046.68)"
font-family="MS Shell Dlg 2" font-size="10.3125" font-weight="400" font-style="normal" 
>
<path vector-effect="non-scaling-stroke" fill-rule="evenodd" d="M24130,-33981.4 L23143.3,-33981.4 L23138.2,-33980.3 L23133.9,-33977.4 L23131,-33973.1 L23130,-33968 L23131,-33962.9 L23133.9,-33958.6 L23138.2,-33955.7 L23143.3,-33954.7 L24130,-33954.7 L24130,-32968 L24131,-32962.9 L24133.9,-32958.6 L24138.2,-32955.7 L24143.3,-32954.7 L24148.4,-32955.7 L24152.8,-32958.6 L24155.6,-32962.9 L24156.7,-32968 L24156.7,-33954.7 L25143.3,-33954.7 L25148.4,-33955.7 L25152.8,-33958.6 L25155.6,-33962.9 L25156.7,-33968 L25155.6,-33973.1 L25152.8,-33977.4 L25148.4,-33980.3 L25143.3,-33981.4 L24156.7,-33981.4 L24156.7,-34968 L24155.6,-34973.1 L24152.8,-34977.4 L24148.4,-34980.3 L24143.3,-34981.4 L24138.2,-34980.3 L24133.9,-34977.4 L24131,-34973.1 L24130,-34968 L24130,-33981.4"/>
</g>

<g fill="none" stroke="#000000" stroke-opacity="1" stroke-width="1" stroke-linecap="square" stroke-linejoin="bevel" transform="matrix(0.999975,0,0,-0.999975,1870.46,7046.68)"
font-family="MS Shell Dlg 2" font-size="10.3125" font-weight="400" font-style="normal" 
>
</g>

<g fill="none" stroke="#000000" stroke-opacity="1" stroke-width="1" stroke-linecap="square" stroke-linejoin="bevel" transform="matrix(0.999975,0,0,-0.999975,1870.46,7046.68)"
font-family="MS Shell Dlg 2" font-size="10.3125" font-weight="400" font-style="normal" 
>
</g>

<g fill="#ae5151" fill-opacity="0.2" stroke="#333333" stroke-opacity="1" stroke-width="1" stroke-linecap="round" stroke-linejoin="round" transform="matrix(0.999975,0,0,-0.999975,1870.46,7046.68)"
font-family="MS Shell Dlg 2" font-size="10.3125" font-weight="400" font-style="normal" 
>
<path vector-effect="non-scaling-stroke" fill-rule="evenodd" d="M-870.003,6018.65 L-1856.67,6018.65 L-1861.77,6019.66 L-1866.1,6022.55 L-1868.99,6026.88 L-1870,6031.98 L-1868.99,6037.08 L-1866.1,6041.41 L-1861.77,6044.3 L-1856.67,6045.32 L-870.003,6045.32 L-870.003,7031.98 L-868.988,7037.08 L-866.098,7041.41 L-861.772,7044.3 L-856.67,7045.32 L-851.567,7044.3 L-847.242,7041.41 L-844.351,7037.08 L-843.336,7031.98 L-843.336,6045.32 L143.33,6045.32 L148.433,6044.3 L152.758,6041.41 L155.649,6037.08 L156.664,6031.98 L155.649,6026.88 L152.758,6022.55 L148.433,6019.66 L143.33,6018.65 L-843.336,6018.65 L-843.336,5031.98 L-844.351,5026.88 L-847.242,5022.55 L-851.567,5019.66 L-856.67,5018.65 L-861.772,5019.66 L-866.098,5022.55 L-868.988,5026.88 L-870.003,5031.98 L-870.003,6018.65"/>
</g>

<g fill="none" stroke="#000000" stroke-opacity="1" stroke-width="1" stroke-linecap="square" stroke-linejoin="bevel" transform="matrix(0.999975,0,0,-0.999975,1870.46,7046.68)"
font-family="MS Shell Dlg 2" font-size="10.3125" font-weight="400" font-style="normal" 
>
</g>

<g fill="none" stroke="#000000" stroke-opacity="1" stroke-width="1" stroke-linecap="square" stroke-linejoin="bevel" transform="matrix(0.999975,0,0,-0.999975,1870.46,7046.68)"
font-family="MS Shell Dlg 2" font-size="10.3125" font-weight="400" font-style="normal" 
>
</g>

<g fill="#ae5151" fill-opacity="0.2" stroke="#333333" stroke-opacity="1" stroke-width="1" stroke-linecap="round" stroke-linejoin="round" transform="matrix(0.999975,0,0,-0.999975,1870.46,7046.68)"
font-family="MS Shell Dlg 2" font-size="10.3125" font-weight="400" font-style="normal" 
>
<path vector-effect="non-scaling-stroke" fill-rule="evenodd" d="M24130,6018.65 L23143.3,6018.65 L23138.2,6019.66 L23133.9,6022.55 L23131,6026.88 L23130,6031.98 L23131,6037.08 L23133.9,6041.41 L23138.2,6044.3 L23143.3,6045.32 L24130,6045.32 L24130,7031.98 L24131,7037.08 L24133.9,7041.41 L24138.2,7044.3 L24143.3,7045.32 L24148.4,7044.3 L24152.8,7041.41 L24155.6,7037.08 L24156.7,7031.98 L24156.7,6045.32 L25143.3,6045.32 L25148.4,6044.3 L25152.8,6041.41 L25155.6,6037.08 L25156.7,6031.98 L25155.6,6026.88 L25152.8,6022.55 L25148.4,6019.66 L25143.3,6018.65 L24156.7,6018.65 L24156.7,5031.98 L24155.6,5026.88 L24152.8,5022.55 L24148.4,5019.66 L24143.3,5018.65 L24138.2,5019.66 L24133.9,5022.55 L24131,5026.88 L24130,5031.98 L24130,6018.65"/>
</g>

<g fill="none" stroke="#000000" stroke-opacity="1" stroke-width="1" stroke-linecap="square" stroke-linejoin="bevel" transform="matrix(0.999975,0,0,-0.999975,1870.46,7046.68)"
font-family="MS Shell Dlg 2" font-size="10.3125" font-weight="400" font-style="normal" 
>
</g>

<g fill="none" stroke="#000000" stroke-opacity="1" stroke-width="1" stroke-linecap="square" stroke-linejoin="bevel" transform="matrix(0.999975,0,0,-0.999975,1870.46,7046.68)"
font-family="MS Shell Dlg 2" font-size="10.3125" font-weight="400" font-style="normal" 
>
</g>

<g fill="#333333" fill-opacity="0.2" stroke="#333333" stroke-opacity="1" stroke-width="1" stroke-linecap="round" stroke-linejoin="round" transform="matrix(0.999975,0,0,-0.999975,1870.46,7046.68)"
font-family="MS Shell Dlg 2" font-size="10.3125" font-weight="400" font-style="normal" 
>
<path vector-effect="non-scaling-stroke" fill-rule="evenodd" d="M-870.003,-33981.4 L-1856.67,-33981.4 L-1861.77,-33980.3 L-1866.1,-33977.4 L-1868.99,-33973.1 L-1870,-33968 L-1868.99,-33962.9 L-1866.1,-33958.6 L-1861.77,-33955.7 L-1856.67,-33954.7 L-870.003,-33954.7 L-870.003,-32968 L-868.988,-32962.9 L-866.098,-32958.6 L-861.772,-32955.7 L-856.67,-32954.7 L-851.567,-32955.7 L-847.242,-32958.6 L-844.351,-32962.9 L-843.336,-32968 L-843.336,-33954.7 L143.33,-33954.7 L148.433,-33955.7 L152.758,-33958.6 L155.649,-33962.9 L156.664,-33968 L155.649,-33973.1 L152.758,-33977.4 L148.433,-33980.3 L143.33,-33981.4 L-843.336,-33981.4 L-843.336,-34968 L-844.351,-34973.1 L-847.242,-34977.4 L-851.567,-34980.3 L-856.67,-34981.4 L-861.772,-34980.3 L-866.098,-34977.4 L-868.988,-34973.1 L-870.003,-34968 L-870.003,-33981.4"/>
</g>

<g fill="none" stroke="#000000" stroke-opacity="1" stroke-width="1" stroke-linecap="square" stroke-linejoin="bevel" transform="matrix(0.999975,0,0,-0.999975,1870.46,7046.68)"
font-family="MS Shell Dlg 2" font-size="10.3125" font-weight="400" font-style="normal" 
>
</g>

<g fill="none" stroke="#000000" stroke-opacity="1" stroke-width="1" stroke-linecap="square" stroke-linejoin="bevel" transform="matrix(0.999975,0,0,-0.999975,1870.46,7046.68)"
font-family="MS Shell Dlg 2" font-size="10.3125" font-weight="400" font-style="normal" 
>
</g>

<g fill="#333333" fill-opacity="0.2" stroke="#333333" stroke-opacity="1" stroke-width="1" stroke-linecap="round" stroke-linejoin="round" transform="matrix(0.999975,0,0,-0.999975,1870.46,7046.68)"
font-family="MS Shell Dlg 2" font-size="10.3125" font-weight="400" font-style="normal" 
>
<path vector-effect="non-scaling-stroke" fill-rule="evenodd" d="M24130,-33981.4 L23143.3,-33981.4 L23138.2,-33980.3 L23133.9,-33977.4 L23131,-33973.1 L23130,-33968 L23131,-33962.9 L23133.9,-33958.6 L23138.2,-33955.7 L23143.3,-33954.7 L24130,-33954.7 L24130,-32968 L24131,-32962.9 L24133.9,-32958.6 L24138.2,-32955.7 L24143.3,-32954.7 L24148.4,-32955.7 L24152.8,-32958.6 L24155.6,-32962.9 L24156.7,-32968 L24156.7,-33954.7 L25143.3,-33954.7 L25148.4,-33955.7 L25152.8,-33958.6 L25155.6,-33962.9 L25156.7,-33968 L25155.6,-33973.1 L25152.8,-33977.4 L25148.4,-33980.3 L25143.3,-33981.4 L24156.7,-33981.4 L24156.7,-34968 L24155.6,-34973.1 L24152.8,-34977.4 L24148.4,-34980.3 L24143.3,-34981.4 L24138.2,-34980.3 L24133.9,-34977.4 L24131,-34973.1 L24130,-34968 L24130,-33981.4"/>
</g>

<g fill="none" stroke="#000000" stroke-opacity="1" stroke-width="1" stroke-linecap="square" stroke-linejoin="bevel" transform="matrix(0.999975,0,0,-0.999975,1870.46,7046.68)"
font-family="MS Shell Dlg 2" font-size="10.3125" font-weight="400" font-style="normal" 
>
</g>

<g fill="none" stroke="#000000" stroke-opacity="1" stroke-width="1" stroke-linecap="square" stroke-linejoin="bevel" transform="matrix(0.999975,0,0,-0.999975,1870.46,7046.68)"
font-family="MS Shell Dlg 2" font-size="10.3125" font-weight="400" font-style="normal" 
>
</g>

<g fill="#333333" fill-opacity="0.2" stroke="#333333" stroke-opacity="1" stroke-width="1" stroke-linecap="round" stroke-linejoin="round" transform="matrix(0.999975,0,0,-0.999975,1870.46,7046.68)"
font-family="MS Shell Dlg 2" font-size="10.3125" font-weight="400" font-style="normal" 
>
<path vector-effect="non-scaling-stroke" fill-rule="evenodd" d="M-870.003,6018.65 L-1856.67,6018.65 L-1861.77,6019.66 L-1866.1,6022.55 L-1868.99,6026.88 L-1870,6031.98 L-1868.99,6037.08 L-1866.1,6041.41 L-1861.77,6044.3 L-1856.67,6045.32 L-870.003,6045.32 L-870.003,7031.98 L-868.988,7037.08 L-866.098,7041.41 L-861.772,7044.3 L-856.67,7045.32 L-851.567,7044.3 L-847.242,7041.41 L-844.351,7037.08 L-843.336,7031.98 L-843.336,6045.32 L143.33,6045.32 L148.433,6044.3 L152.758,6041.41 L155.649,6037.08 L156.664,6031.98 L155.649,6026.88 L152.758,6022.55 L148.433,6019.66 L143.33,6018.65 L-843.336,6018.65 L-843.336,5031.98 L-844.351,5026.88 L-847.242,5022.55 L-851.567,5019.66 L-856.67,5018.65 L-861.772,5019.66 L-866.098,5022.55 L-868.988,5026.88 L-870.003,5031.98 L-870.003,6018.65"/>
</g>

<g fill="none" stroke="#000000" stroke-opacity="1" stroke-width="1" stroke-linecap="square" stroke-linejoin="bevel" transform="matrix(0.999975,0,0,-0.999975,1870.46,7046.68)"
font-family="MS Shell Dlg 2" font-size="10.3125" font-weight="400" font-style="normal" 
>
</g>

<g fill="none" stroke="#000000" stroke-opacity="1" stroke-width="1" stroke-linecap="square" stroke-linejoin="bevel" transform="matrix(0.999975,0,0,-0.999975,1870.46,7046.68)"
font-family="MS Shell Dlg 2" font-size="10.3125" font-weight="400" font-style="normal" 
>
</g>

<g fill="#333333" fill-opacity="0.2" stroke="#333333" stroke-opacity="1" stroke-width="1" stroke-linecap="round" stroke-linejoin="round" transform="matrix(0.999975,0,0,-0.999975,1870.46,7046.68)"
font-family="MS Shell Dlg 2" font-size="10.3125" font-weight="400" font-style="normal" 
>
<path vector-effect="non-scaling-stroke" fill-rule="evenodd" d="M24130,6018.65 L23143.3,6018.65 L23138.2,6019.66 L23133.9,6022.55 L23131,6026.88 L23130,6031.98 L23131,6037.08 L23133.9,6041.41 L23138.2,6044.3 L23143.3,6045.32 L24130,6045.32 L24130,7031.98 L24131,7037.08 L24133.9,7041.41 L24138.2,7044.3 L24143.3,7045.32 L24148.4,7044.3 L24152.8,7041.41 L24155.6,7037.08 L24156.7,7031.98 L24156.7,6045.32 L25143.3,6045.32 L25148.4,6044.3 L25152.8,6041.41 L25155.6,6037.08 L25156.7,6031.98 L25155.6,6026.88 L25152.8,6022.55 L25148.4,6019.66 L25143.3,6018.65 L24156.7,6018.65 L24156.7,5031.98 L24155.6,5026.88 L24152.8,5022.55 L24148.4,5019.66 L24143.3,5018.65 L24138.2,5019.66 L24133.9,5022.55 L24131,5026.88 L24130,5031.98 L24130,6018.65"/>
</g>

<g fill="none" stroke="#000000" stroke-opacity="1" stroke-width="1" stroke-linecap="square" stroke-linejoin="bevel" transform="matrix(0.999975,0,0,-0.999975,1870.46,7046.68)"
font-family="MS Shell Dlg 2" font-size="10.3125" font-weight="400" font-style="normal" 
>
</g>

<g fill="none" stroke="#000000" stroke-opacity="1" stroke-width="1" stroke-linecap="square" stroke-linejoin="bevel" transform="matrix(1,0,0,-1,0,42027.7)"
font-family="MS Shell Dlg 2" font-size="10.3125" font-weight="400" font-style="normal" 
>
</g>
</g>
</svg>
