<?xml version="1.0" encoding="UTF-8" standalone="no"?>
<svg width="8100.06mm" height="15155.6mm"
 xmlns="http://www.w3.org/2000/svg" xmlns:xlink="http://www.w3.org/1999/xlink"  version="1.2" baseProfile="tiny">
<title>SVG Generator Example Drawing</title>
<desc>An SVG drawing created by the SVG Generator</desc>
<defs>
</defs>
<g fill="none" stroke="black" stroke-width="1" fill-rule="evenodd" stroke-linecap="square" stroke-linejoin="bevel" >

<g fill="none" stroke="#000000" stroke-opacity="1" stroke-width="1" stroke-linecap="square" stroke-linejoin="bevel" transform="matrix(1,0,0,-1,0,53701)"
font-family="MS Shell Dlg 2" font-size="10.3125" font-weight="400" font-style="normal" 
>
</g>

<g fill="none" stroke="#000000" stroke-opacity="1" stroke-width="1" stroke-linecap="square" stroke-linejoin="bevel" transform="matrix(1,0,0,-1,0,53701)"
font-family="MS Shell Dlg 2" font-size="10.3125" font-weight="400" font-style="normal" 
>
</g>

<g fill="none" stroke="#000000" stroke-opacity="1" stroke-width="1" stroke-linecap="square" stroke-linejoin="bevel" transform="matrix(1,0,0,-1,4832.59,14596.2)"
font-family="MS Shell Dlg 2" font-size="10.3125" font-weight="400" font-style="normal" 
>
</g>

<g fill="#333333" fill-opacity="0.2" stroke="#333333" stroke-opacity="1" stroke-width="1" stroke-linecap="round" stroke-linejoin="round" transform="matrix(1,0,0,-1,4832.59,14596.2)"
font-family="MS Shell Dlg 2" font-size="10.3125" font-weight="400" font-style="normal" 
>
<path vector-effect="non-scaling-stroke" fill-rule="evenodd" d="M-4632.09,-39104.3 L-4708.62,-39089.1 L-4773.51,-39045.8 L-4816.86,-38980.9 L-4832.09,-38904.3 L-4832.09,14395.7 L-4816.86,14472.2 L-4773.51,14537.1 L-4708.62,14580.4 L-4632.09,14595.7 L23667.9,14595.7 L23744.5,14580.4 L23809.3,14537.1 L23852.7,14472.2 L23867.9,14395.7 L23867.9,-38904.3 L23852.7,-38980.9 L23809.3,-39045.8 L23744.5,-39089.1 L23667.9,-39104.3 L-4632.09,-39104.3 M22617.7,-37254.3 L22614.8,-37195.6 L22606.1,-37137.3 L22591.8,-37080.2 L22572,-37024.8 L22546.9,-36971.6 L22516.6,-36921.1 L22481.5,-36873.9 L22442,-36830.3 L22398.4,-36790.7 L22351.1,-36755.7 L22300.6,-36725.4 L22247.4,-36700.2 L22192,-36680.4 L22134.9,-36666.1 L22076.7,-36657.5 L22017.9,-36654.6 L21959.1,-36657.5 L21900.9,-36666.1 L21843.8,-36680.4 L21788.4,-36700.2 L21735.2,-36725.4 L21684.7,-36755.7 L21637.4,-36790.7 L21593.8,-36830.3 L21554.3,-36873.9 L21519.2,-36921.1 L21489,-36971.6 L21463.8,-37024.8 L21444,-37080.2 L21429.7,-37137.3 L21421,-37195.6 L21418.2,-37254.3 L21421,-37313.1 L21429.7,-37371.4 L21444,-37428.5 L21463.8,-37483.9 L21489,-37537.1 L21519.2,-37587.6 L21554.3,-37634.8 L21593.8,-37678.4 L21637.4,-37718 L21684.7,-37753 L21735.2,-37783.3 L21788.4,-37808.5 L21843.8,-37828.3 L21900.9,-37842.6 L21959.1,-37851.2 L22017.9,-37854.1 L22076.7,-37851.2 L22134.9,-37842.6 L22192,-37828.3 L22247.4,-37808.5 L22300.6,-37783.3 L22351.1,-37753 L22398.4,-37718 L22442,-37678.4 L22481.5,-37634.8 L22516.6,-37587.6 L22546.9,-37537.1 L22572,-37483.9 L22591.8,-37428.5 L22606.1,-37371.4 L22614.8,-37313.1 L22617.7,-37254.3 M22617.7,-12254.3 L22614.8,-12195.6 L22606.1,-12137.3 L22591.8,-12080.2 L22572,-12024.8 L22546.9,-11971.6 L22516.6,-11921.1 L22481.5,-11873.9 L22442,-11830.3 L22398.4,-11790.7 L22351.1,-11755.7 L22300.6,-11725.4 L22247.4,-11700.2 L22192,-11680.4 L22134.9,-11666.1 L22076.7,-11657.5 L22017.9,-11654.6 L21959.1,-11657.5 L21900.9,-11666.1 L21843.8,-11680.4 L21788.4,-11700.2 L21735.2,-11725.4 L21684.7,-11755.7 L21637.4,-11790.7 L21593.8,-11830.3 L21554.3,-11873.9 L21519.2,-11921.1 L21489,-11971.6 L21463.8,-12024.8 L21444,-12080.2 L21429.7,-12137.3 L21421,-12195.6 L21418.2,-12254.3 L21421,-12313.1 L21429.7,-12371.4 L21444,-12428.5 L21463.8,-12483.9 L21489,-12537.1 L21519.2,-12587.6 L21554.3,-12634.8 L21593.8,-12678.4 L21637.4,-12718 L21684.7,-12753 L21735.2,-12783.3 L21788.4,-12808.5 L21843.8,-12828.3 L21900.9,-12842.6 L21959.1,-12851.2 L22017.9,-12854.1 L22076.7,-12851.2 L22134.9,-12842.6 L22192,-12828.3 L22247.4,-12808.5 L22300.6,-12783.3 L22351.1,-12753 L22398.4,-12718 L22442,-12678.4 L22481.5,-12634.8 L22516.6,-12587.6 L22546.9,-12537.1 L22572,-12483.9 L22591.8,-12428.5 L22606.1,-12371.4 L22614.8,-12313.1 L22617.7,-12254.3 M22617.7,12745.7 L22614.8,12804.4 L22606.1,12862.7 L22591.8,12919.8 L22572,12975.2 L22546.9,13028.4 L22516.6,13078.9 L22481.5,13126.1 L22442,13169.7 L22398.4,13209.3 L22351.1,13244.3 L22300.6,13274.6 L22247.4,13299.8 L22192,13319.6 L22134.9,13333.9 L22076.7,13342.5 L22017.9,13345.4 L21959.1,13342.5 L21900.9,13333.9 L21843.8,13319.6 L21788.4,13299.8 L21735.2,13274.6 L21684.7,13244.3 L21637.4,13209.3 L21593.8,13169.7 L21554.3,13126.1 L21519.2,13078.9 L21489,13028.4 L21463.8,12975.2 L21444,12919.8 L21429.7,12862.7 L21421,12804.4 L21418.2,12745.7 L21421,12686.9 L21429.7,12628.6 L21444,12571.5 L21463.8,12516.1 L21489,12462.9 L21519.2,12412.4 L21554.3,12365.2 L21593.8,12321.6 L21637.4,12282 L21684.7,12247 L21735.2,12216.7 L21788.4,12191.5 L21843.8,12171.7 L21900.9,12157.4 L21959.1,12148.8 L22017.9,12145.9 L22076.7,12148.8 L22134.9,12157.4 L22192,12171.7 L22247.4,12191.5 L22300.6,12216.7 L22351.1,12247 L22398.4,12282 L22442,12321.6 L22481.5,12365.2 L22516.6,12412.4 L22546.9,12462.9 L22572,12516.1 L22591.8,12571.5 L22606.1,12628.6 L22614.8,12686.9 L22617.7,12745.7 M-2382.33,12745.7 L-2385.22,12804.4 L-2393.85,12862.7 L-2408.15,12919.8 L-2427.98,12975.2 L-2453.15,13028.4 L-2483.41,13078.9 L-2518.47,13126.1 L-2557.99,13169.7 L-2601.6,13209.3 L-2648.88,13244.3 L-2699.36,13274.6 L-2752.57,13299.8 L-2807.99,13319.6 L-2865.08,13333.9 L-2923.3,13342.5 L-2982.09,13345.4 L-3040.87,13342.5 L-3099.09,13333.9 L-3156.19,13319.6 L-3211.6,13299.8 L-3264.81,13274.6 L-3315.29,13244.3 L-3362.57,13209.3 L-3406.18,13169.7 L-3445.71,13126.1 L-3480.77,13078.9 L-3511.03,13028.4 L-3536.19,12975.2 L-3556.02,12919.8 L-3570.32,12862.7 L-3578.96,12804.4 L-3581.85,12745.7 L-3578.96,12686.9 L-3570.32,12628.6 L-3556.02,12571.5 L-3536.19,12516.1 L-3511.03,12462.9 L-3480.77,12412.4 L-3445.71,12365.2 L-3406.18,12321.6 L-3362.57,12282 L-3315.29,12247 L-3264.81,12216.7 L-3211.6,12191.5 L-3156.19,12171.7 L-3099.09,12157.4 L-3040.87,12148.8 L-2982.09,12145.9 L-2923.3,12148.8 L-2865.08,12157.4 L-2807.99,12171.7 L-2752.57,12191.5 L-2699.36,12216.7 L-2648.88,12247 L-2601.6,12282 L-2557.99,12321.6 L-2518.47,12365.2 L-2483.41,12412.4 L-2453.15,12462.9 L-2427.98,12516.1 L-2408.15,12571.5 L-2393.85,12628.6 L-2385.22,12686.9 L-2382.33,12745.7 M-2382.33,-12254.3 L-2385.22,-12195.6 L-2393.85,-12137.3 L-2408.15,-12080.2 L-2427.98,-12024.8 L-2453.15,-11971.6 L-2483.41,-11921.1 L-2518.47,-11873.9 L-2557.99,-11830.3 L-2601.6,-11790.7 L-2648.88,-11755.7 L-2699.36,-11725.4 L-2752.57,-11700.2 L-2807.99,-11680.4 L-2865.08,-11666.1 L-2923.3,-11657.5 L-2982.09,-11654.6 L-3040.87,-11657.5 L-3099.09,-11666.1 L-3156.19,-11680.4 L-3211.6,-11700.2 L-3264.81,-11725.4 L-3315.29,-11755.7 L-3362.57,-11790.7 L-3406.18,-11830.3 L-3445.71,-11873.9 L-3480.77,-11921.1 L-3511.03,-11971.6 L-3536.19,-12024.8 L-3556.02,-12080.2 L-3570.32,-12137.3 L-3578.96,-12195.6 L-3581.85,-12254.3 L-3578.96,-12313.1 L-3570.32,-12371.4 L-3556.02,-12428.5 L-3536.19,-12483.9 L-3511.03,-12537.1 L-3480.77,-12587.6 L-3445.71,-12634.8 L-3406.18,-12678.4 L-3362.57,-12718 L-3315.29,-12753 L-3264.81,-12783.3 L-3211.6,-12808.5 L-3156.19,-12828.3 L-3099.09,-12842.6 L-3040.87,-12851.2 L-2982.09,-12854.1 L-2923.3,-12851.2 L-2865.08,-12842.6 L-2807.99,-12828.3 L-2752.57,-12808.5 L-2699.36,-12783.3 L-2648.88,-12753 L-2601.6,-12718 L-2557.99,-12678.4 L-2518.47,-12634.8 L-2483.41,-12587.6 L-2453.15,-12537.1 L-2427.98,-12483.9 L-2408.15,-12428.5 L-2393.85,-12371.4 L-2385.22,-12313.1 L-2382.33,-12254.3 M-2382.33,-37254.3 L-2385.22,-37195.6 L-2393.85,-37137.3 L-2408.15,-37080.2 L-2427.98,-37024.8 L-2453.15,-36971.6 L-2483.41,-36921.1 L-2518.47,-36873.9 L-2557.99,-36830.3 L-2601.6,-36790.7 L-2648.88,-36755.7 L-2699.36,-36725.4 L-2752.57,-36700.2 L-2807.99,-36680.4 L-2865.08,-36666.1 L-2923.3,-36657.5 L-2982.09,-36654.6 L-3040.87,-36657.5 L-3099.09,-36666.1 L-3156.19,-36680.4 L-3211.6,-36700.2 L-3264.81,-36725.4 L-3315.29,-36755.7 L-3362.57,-36790.7 L-3406.18,-36830.3 L-3445.71,-36873.9 L-3480.77,-36921.1 L-3511.03,-36971.6 L-3536.19,-37024.8 L-3556.02,-37080.2 L-3570.32,-37137.3 L-3578.96,-37195.6 L-3581.85,-37254.3 L-3578.96,-37313.1 L-3570.32,-37371.4 L-3556.02,-37428.5 L-3536.19,-37483.9 L-3511.03,-37537.1 L-3480.77,-37587.6 L-3445.71,-37634.8 L-3406.18,-37678.4 L-3362.57,-37718 L-3315.29,-37753 L-3264.81,-37783.3 L-3211.6,-37808.5 L-3156.19,-37828.3 L-3099.09,-37842.6 L-3040.87,-37851.2 L-2982.09,-37854.1 L-2923.3,-37851.2 L-2865.08,-37842.6 L-2807.99,-37828.3 L-2752.57,-37808.5 L-2699.36,-37783.3 L-2648.88,-37753 L-2601.6,-37718 L-2557.99,-37678.4 L-2518.47,-37634.8 L-2483.41,-37587.6 L-2453.15,-37537.1 L-2427.98,-37483.9 L-2408.15,-37428.5 L-2393.85,-37371.4 L-2385.22,-37313.1 L-2382.33,-37254.3"/>
</g>

<g fill="none" stroke="#000000" stroke-opacity="1" stroke-width="1" stroke-linecap="square" stroke-linejoin="bevel" transform="matrix(1,0,0,-1,4832.59,14596.2)"
font-family="MS Shell Dlg 2" font-size="10.3125" font-weight="400" font-style="normal" 
>
</g>

<g fill="none" stroke="#000000" stroke-opacity="1" stroke-width="1" stroke-linecap="square" stroke-linejoin="bevel" transform="matrix(1,0,0,-1,4832.59,14596.2)"
font-family="MS Shell Dlg 2" font-size="10.3125" font-weight="400" font-style="normal" 
>
</g>

<g fill="#ae5151" fill-opacity="0.2" stroke="#333333" stroke-opacity="1" stroke-width="1" stroke-linecap="round" stroke-linejoin="round" transform="matrix(1,0,0,-1,4832.59,14596.2)"
font-family="MS Shell Dlg 2" font-size="10.3125" font-weight="400" font-style="normal" 
>
<path vector-effect="non-scaling-stroke" fill-rule="evenodd" d="M-4632.09,-39104.3 L-4708.62,-39089.1 L-4773.51,-39045.8 L-4816.86,-38980.9 L-4832.09,-38904.3 L-4832.09,14395.7 L-4816.86,14472.2 L-4773.51,14537.1 L-4708.62,14580.4 L-4632.09,14595.7 L23667.9,14595.7 L23744.5,14580.4 L23809.3,14537.1 L23852.7,14472.2 L23867.9,14395.7 L23867.9,-38904.3 L23852.7,-38980.9 L23809.3,-39045.8 L23744.5,-39089.1 L23667.9,-39104.3 L-4632.09,-39104.3 M22617.7,-37254.3 L22614.8,-37195.6 L22606.1,-37137.3 L22591.8,-37080.2 L22572,-37024.8 L22546.9,-36971.6 L22516.6,-36921.1 L22481.5,-36873.9 L22442,-36830.3 L22398.4,-36790.7 L22351.1,-36755.7 L22300.6,-36725.4 L22247.4,-36700.2 L22192,-36680.4 L22134.9,-36666.1 L22076.7,-36657.5 L22017.9,-36654.6 L21959.1,-36657.5 L21900.9,-36666.1 L21843.8,-36680.4 L21788.4,-36700.2 L21735.2,-36725.4 L21684.7,-36755.7 L21637.4,-36790.7 L21593.8,-36830.3 L21554.3,-36873.9 L21519.2,-36921.1 L21489,-36971.6 L21463.8,-37024.8 L21444,-37080.2 L21429.7,-37137.3 L21421,-37195.6 L21418.2,-37254.3 L21421,-37313.1 L21429.7,-37371.4 L21444,-37428.5 L21463.8,-37483.9 L21489,-37537.1 L21519.2,-37587.6 L21554.3,-37634.8 L21593.8,-37678.4 L21637.4,-37718 L21684.7,-37753 L21735.2,-37783.3 L21788.4,-37808.5 L21843.8,-37828.3 L21900.9,-37842.6 L21959.1,-37851.2 L22017.9,-37854.1 L22076.7,-37851.2 L22134.9,-37842.6 L22192,-37828.3 L22247.4,-37808.5 L22300.6,-37783.3 L22351.1,-37753 L22398.4,-37718 L22442,-37678.4 L22481.5,-37634.8 L22516.6,-37587.6 L22546.9,-37537.1 L22572,-37483.9 L22591.8,-37428.5 L22606.1,-37371.4 L22614.8,-37313.1 L22617.7,-37254.3 M22617.7,-12254.3 L22614.8,-12195.6 L22606.1,-12137.3 L22591.8,-12080.2 L22572,-12024.8 L22546.9,-11971.6 L22516.6,-11921.1 L22481.5,-11873.9 L22442,-11830.3 L22398.4,-11790.7 L22351.1,-11755.7 L22300.6,-11725.4 L22247.4,-11700.2 L22192,-11680.4 L22134.9,-11666.1 L22076.7,-11657.5 L22017.9,-11654.6 L21959.1,-11657.5 L21900.9,-11666.1 L21843.8,-11680.4 L21788.4,-11700.2 L21735.2,-11725.4 L21684.7,-11755.7 L21637.4,-11790.7 L21593.8,-11830.3 L21554.3,-11873.9 L21519.2,-11921.1 L21489,-11971.6 L21463.8,-12024.8 L21444,-12080.2 L21429.7,-12137.3 L21421,-12195.6 L21418.2,-12254.3 L21421,-12313.1 L21429.7,-12371.4 L21444,-12428.5 L21463.8,-12483.9 L21489,-12537.1 L21519.2,-12587.6 L21554.3,-12634.8 L21593.8,-12678.4 L21637.4,-12718 L21684.7,-12753 L21735.2,-12783.3 L21788.4,-12808.5 L21843.8,-12828.3 L21900.9,-12842.6 L21959.1,-12851.2 L22017.9,-12854.1 L22076.7,-12851.2 L22134.9,-12842.6 L22192,-12828.3 L22247.4,-12808.5 L22300.6,-12783.3 L22351.1,-12753 L22398.4,-12718 L22442,-12678.4 L22481.5,-12634.8 L22516.6,-12587.6 L22546.9,-12537.1 L22572,-12483.9 L22591.8,-12428.5 L22606.1,-12371.4 L22614.8,-12313.1 L22617.7,-12254.3 M22617.7,12745.7 L22614.8,12804.4 L22606.1,12862.7 L22591.8,12919.8 L22572,12975.2 L22546.9,13028.4 L22516.6,13078.9 L22481.5,13126.1 L22442,13169.7 L22398.4,13209.3 L22351.1,13244.3 L22300.6,13274.6 L22247.4,13299.8 L22192,13319.6 L22134.9,13333.9 L22076.7,13342.5 L22017.9,13345.4 L21959.1,13342.5 L21900.9,13333.9 L21843.8,13319.6 L21788.4,13299.8 L21735.2,13274.6 L21684.7,13244.3 L21637.4,13209.3 L21593.8,13169.7 L21554.3,13126.1 L21519.2,13078.9 L21489,13028.4 L21463.8,12975.2 L21444,12919.8 L21429.7,12862.7 L21421,12804.4 L21418.2,12745.7 L21421,12686.9 L21429.7,12628.6 L21444,12571.5 L21463.8,12516.1 L21489,12462.9 L21519.2,12412.4 L21554.3,12365.2 L21593.8,12321.6 L21637.4,12282 L21684.7,12247 L21735.2,12216.7 L21788.4,12191.5 L21843.8,12171.7 L21900.9,12157.4 L21959.1,12148.8 L22017.9,12145.9 L22076.7,12148.8 L22134.9,12157.4 L22192,12171.7 L22247.4,12191.5 L22300.6,12216.7 L22351.1,12247 L22398.4,12282 L22442,12321.6 L22481.5,12365.2 L22516.6,12412.4 L22546.9,12462.9 L22572,12516.1 L22591.8,12571.5 L22606.1,12628.6 L22614.8,12686.9 L22617.7,12745.7 M-2382.33,12745.7 L-2385.22,12804.4 L-2393.85,12862.7 L-2408.15,12919.8 L-2427.98,12975.2 L-2453.15,13028.4 L-2483.41,13078.9 L-2518.47,13126.1 L-2557.99,13169.7 L-2601.6,13209.3 L-2648.88,13244.3 L-2699.36,13274.6 L-2752.57,13299.8 L-2807.99,13319.6 L-2865.08,13333.9 L-2923.3,13342.5 L-2982.09,13345.4 L-3040.87,13342.5 L-3099.09,13333.9 L-3156.19,13319.6 L-3211.6,13299.8 L-3264.81,13274.6 L-3315.29,13244.3 L-3362.57,13209.3 L-3406.18,13169.7 L-3445.71,13126.1 L-3480.77,13078.9 L-3511.03,13028.4 L-3536.19,12975.2 L-3556.02,12919.8 L-3570.32,12862.7 L-3578.96,12804.4 L-3581.85,12745.7 L-3578.96,12686.9 L-3570.32,12628.6 L-3556.02,12571.5 L-3536.19,12516.1 L-3511.03,12462.9 L-3480.77,12412.4 L-3445.71,12365.2 L-3406.18,12321.6 L-3362.57,12282 L-3315.29,12247 L-3264.81,12216.7 L-3211.6,12191.5 L-3156.19,12171.7 L-3099.09,12157.4 L-3040.87,12148.8 L-2982.09,12145.9 L-2923.3,12148.8 L-2865.08,12157.4 L-2807.99,12171.7 L-2752.57,12191.5 L-2699.36,12216.7 L-2648.88,12247 L-2601.6,12282 L-2557.99,12321.6 L-2518.47,12365.2 L-2483.41,12412.4 L-2453.15,12462.9 L-2427.98,12516.1 L-2408.15,12571.5 L-2393.85,12628.6 L-2385.22,12686.9 L-2382.33,12745.7 M-2382.33,-12254.3 L-2385.22,-12195.6 L-2393.85,-12137.3 L-2408.15,-12080.2 L-2427.98,-12024.8 L-2453.15,-11971.6 L-2483.41,-11921.1 L-2518.47,-11873.9 L-2557.99,-11830.3 L-2601.6,-11790.7 L-2648.88,-11755.7 L-2699.36,-11725.4 L-2752.57,-11700.2 L-2807.99,-11680.4 L-2865.08,-11666.1 L-2923.3,-11657.5 L-2982.09,-11654.6 L-3040.87,-11657.5 L-3099.09,-11666.1 L-3156.19,-11680.4 L-3211.6,-11700.2 L-3264.81,-11725.4 L-3315.29,-11755.7 L-3362.57,-11790.7 L-3406.18,-11830.3 L-3445.71,-11873.9 L-3480.77,-11921.1 L-3511.03,-11971.6 L-3536.19,-12024.8 L-3556.02,-12080.2 L-3570.32,-12137.3 L-3578.96,-12195.6 L-3581.85,-12254.3 L-3578.96,-12313.1 L-3570.32,-12371.4 L-3556.02,-12428.5 L-3536.19,-12483.9 L-3511.03,-12537.1 L-3480.77,-12587.6 L-3445.71,-12634.8 L-3406.18,-12678.4 L-3362.57,-12718 L-3315.29,-12753 L-3264.81,-12783.3 L-3211.6,-12808.5 L-3156.19,-12828.3 L-3099.09,-12842.6 L-3040.87,-12851.2 L-2982.09,-12854.1 L-2923.3,-12851.2 L-2865.08,-12842.6 L-2807.99,-12828.3 L-2752.57,-12808.5 L-2699.36,-12783.3 L-2648.88,-12753 L-2601.6,-12718 L-2557.99,-12678.4 L-2518.47,-12634.8 L-2483.41,-12587.6 L-2453.15,-12537.1 L-2427.98,-12483.9 L-2408.15,-12428.5 L-2393.85,-12371.4 L-2385.22,-12313.1 L-2382.33,-12254.3 M-2382.33,-37254.3 L-2385.22,-37195.6 L-2393.85,-37137.3 L-2408.15,-37080.2 L-2427.98,-37024.8 L-2453.15,-36971.6 L-2483.41,-36921.1 L-2518.47,-36873.9 L-2557.99,-36830.3 L-2601.6,-36790.7 L-2648.88,-36755.7 L-2699.36,-36725.4 L-2752.57,-36700.2 L-2807.99,-36680.4 L-2865.08,-36666.1 L-2923.3,-36657.5 L-2982.09,-36654.6 L-3040.87,-36657.5 L-3099.09,-36666.1 L-3156.19,-36680.4 L-3211.6,-36700.2 L-3264.81,-36725.4 L-3315.29,-36755.7 L-3362.57,-36790.7 L-3406.18,-36830.3 L-3445.71,-36873.9 L-3480.77,-36921.1 L-3511.03,-36971.6 L-3536.19,-37024.8 L-3556.02,-37080.2 L-3570.32,-37137.3 L-3578.96,-37195.6 L-3581.85,-37254.3 L-3578.96,-37313.1 L-3570.32,-37371.4 L-3556.02,-37428.5 L-3536.19,-37483.9 L-3511.03,-37537.1 L-3480.77,-37587.6 L-3445.71,-37634.8 L-3406.18,-37678.4 L-3362.57,-37718 L-3315.29,-37753 L-3264.81,-37783.3 L-3211.6,-37808.5 L-3156.19,-37828.3 L-3099.09,-37842.6 L-3040.87,-37851.2 L-2982.09,-37854.1 L-2923.3,-37851.2 L-2865.08,-37842.6 L-2807.99,-37828.3 L-2752.57,-37808.5 L-2699.36,-37783.3 L-2648.88,-37753 L-2601.6,-37718 L-2557.99,-37678.4 L-2518.47,-37634.8 L-2483.41,-37587.6 L-2453.15,-37537.1 L-2427.98,-37483.9 L-2408.15,-37428.5 L-2393.85,-37371.4 L-2385.22,-37313.1 L-2382.33,-37254.3"/>
</g>

<g fill="none" stroke="#000000" stroke-opacity="1" stroke-width="1" stroke-linecap="square" stroke-linejoin="bevel" transform="matrix(1,0,0,-1,4832.59,14596.2)"
font-family="MS Shell Dlg 2" font-size="10.3125" font-weight="400" font-style="normal" 
>
</g>

<g fill="none" stroke="#000000" stroke-opacity="1" stroke-width="1" stroke-linecap="square" stroke-linejoin="bevel" transform="matrix(1,0,0,-1,4832.59,14596.2)"
font-family="MS Shell Dlg 2" font-size="10.3125" font-weight="400" font-style="normal" 
>
</g>

<g fill="#ffff00" fill-opacity="0.2" stroke="#333333" stroke-opacity="1" stroke-width="1" stroke-linecap="round" stroke-linejoin="round" transform="matrix(1,0,0,-1,4832.59,14596.2)"
font-family="MS Shell Dlg 2" font-size="10.3125" font-weight="400" font-style="normal" 
>
<path vector-effect="non-scaling-stroke" fill-rule="evenodd" d="M-4632.09,-39104.3 L-4708.62,-39089.1 L-4773.51,-39045.8 L-4816.86,-38980.9 L-4832.09,-38904.3 L-4832.09,14395.7 L-4816.86,14472.2 L-4773.51,14537.1 L-4708.62,14580.4 L-4632.09,14595.7 L23667.9,14595.7 L23744.5,14580.4 L23809.3,14537.1 L23852.7,14472.2 L23867.9,14395.7 L23867.9,-38904.3 L23852.7,-38980.9 L23809.3,-39045.8 L23744.5,-39089.1 L23667.9,-39104.3 L-4632.09,-39104.3 M22617.7,-37254.3 L22614.8,-37195.6 L22606.1,-37137.3 L22591.8,-37080.2 L22572,-37024.8 L22546.9,-36971.6 L22516.6,-36921.1 L22481.5,-36873.9 L22442,-36830.3 L22398.4,-36790.7 L22351.1,-36755.7 L22300.6,-36725.4 L22247.4,-36700.2 L22192,-36680.4 L22134.9,-36666.1 L22076.7,-36657.5 L22017.9,-36654.6 L21959.1,-36657.5 L21900.9,-36666.1 L21843.8,-36680.4 L21788.4,-36700.2 L21735.2,-36725.4 L21684.7,-36755.7 L21637.4,-36790.7 L21593.8,-36830.3 L21554.3,-36873.9 L21519.2,-36921.1 L21489,-36971.6 L21463.8,-37024.8 L21444,-37080.2 L21429.7,-37137.3 L21421,-37195.6 L21418.2,-37254.3 L21421,-37313.1 L21429.7,-37371.4 L21444,-37428.5 L21463.8,-37483.9 L21489,-37537.1 L21519.2,-37587.6 L21554.3,-37634.8 L21593.8,-37678.4 L21637.4,-37718 L21684.7,-37753 L21735.2,-37783.3 L21788.4,-37808.5 L21843.8,-37828.3 L21900.9,-37842.6 L21959.1,-37851.2 L22017.9,-37854.1 L22076.7,-37851.2 L22134.9,-37842.6 L22192,-37828.3 L22247.4,-37808.5 L22300.6,-37783.3 L22351.1,-37753 L22398.4,-37718 L22442,-37678.4 L22481.5,-37634.8 L22516.6,-37587.6 L22546.9,-37537.1 L22572,-37483.9 L22591.8,-37428.5 L22606.1,-37371.4 L22614.8,-37313.1 L22617.7,-37254.3 M22617.7,-12254.3 L22614.8,-12195.6 L22606.1,-12137.3 L22591.8,-12080.2 L22572,-12024.8 L22546.9,-11971.6 L22516.6,-11921.1 L22481.5,-11873.9 L22442,-11830.3 L22398.4,-11790.7 L22351.1,-11755.7 L22300.6,-11725.4 L22247.4,-11700.2 L22192,-11680.4 L22134.9,-11666.1 L22076.7,-11657.5 L22017.9,-11654.6 L21959.1,-11657.5 L21900.9,-11666.1 L21843.8,-11680.4 L21788.4,-11700.2 L21735.2,-11725.4 L21684.7,-11755.7 L21637.4,-11790.7 L21593.8,-11830.3 L21554.3,-11873.9 L21519.2,-11921.1 L21489,-11971.6 L21463.8,-12024.8 L21444,-12080.2 L21429.7,-12137.3 L21421,-12195.6 L21418.2,-12254.3 L21421,-12313.1 L21429.7,-12371.4 L21444,-12428.5 L21463.8,-12483.9 L21489,-12537.1 L21519.2,-12587.6 L21554.3,-12634.8 L21593.8,-12678.4 L21637.4,-12718 L21684.7,-12753 L21735.2,-12783.3 L21788.4,-12808.5 L21843.8,-12828.3 L21900.9,-12842.6 L21959.1,-12851.2 L22017.9,-12854.1 L22076.7,-12851.2 L22134.9,-12842.6 L22192,-12828.3 L22247.4,-12808.5 L22300.6,-12783.3 L22351.1,-12753 L22398.4,-12718 L22442,-12678.4 L22481.5,-12634.8 L22516.6,-12587.6 L22546.9,-12537.1 L22572,-12483.9 L22591.8,-12428.5 L22606.1,-12371.4 L22614.8,-12313.1 L22617.7,-12254.3 M22617.7,12745.7 L22614.8,12804.4 L22606.1,12862.7 L22591.8,12919.8 L22572,12975.2 L22546.9,13028.4 L22516.6,13078.9 L22481.5,13126.1 L22442,13169.7 L22398.4,13209.3 L22351.1,13244.3 L22300.6,13274.6 L22247.4,13299.8 L22192,13319.6 L22134.9,13333.9 L22076.7,13342.5 L22017.9,13345.4 L21959.1,13342.5 L21900.9,13333.9 L21843.8,13319.6 L21788.4,13299.8 L21735.2,13274.6 L21684.7,13244.3 L21637.4,13209.3 L21593.8,13169.7 L21554.3,13126.1 L21519.2,13078.9 L21489,13028.4 L21463.8,12975.2 L21444,12919.8 L21429.7,12862.7 L21421,12804.4 L21418.2,12745.7 L21421,12686.9 L21429.7,12628.6 L21444,12571.5 L21463.8,12516.1 L21489,12462.9 L21519.2,12412.4 L21554.3,12365.2 L21593.8,12321.6 L21637.4,12282 L21684.7,12247 L21735.2,12216.7 L21788.4,12191.5 L21843.8,12171.7 L21900.9,12157.4 L21959.1,12148.8 L22017.9,12145.9 L22076.7,12148.8 L22134.9,12157.4 L22192,12171.7 L22247.4,12191.5 L22300.6,12216.7 L22351.1,12247 L22398.4,12282 L22442,12321.6 L22481.5,12365.2 L22516.6,12412.4 L22546.9,12462.9 L22572,12516.1 L22591.8,12571.5 L22606.1,12628.6 L22614.8,12686.9 L22617.7,12745.7 M-2382.33,12745.7 L-2385.22,12804.4 L-2393.85,12862.7 L-2408.15,12919.8 L-2427.98,12975.2 L-2453.15,13028.4 L-2483.41,13078.9 L-2518.47,13126.1 L-2557.99,13169.7 L-2601.6,13209.3 L-2648.88,13244.3 L-2699.36,13274.6 L-2752.57,13299.8 L-2807.99,13319.6 L-2865.08,13333.9 L-2923.3,13342.5 L-2982.09,13345.4 L-3040.87,13342.5 L-3099.09,13333.9 L-3156.19,13319.6 L-3211.6,13299.8 L-3264.81,13274.6 L-3315.29,13244.3 L-3362.57,13209.3 L-3406.18,13169.7 L-3445.71,13126.1 L-3480.77,13078.9 L-3511.03,13028.4 L-3536.19,12975.2 L-3556.02,12919.8 L-3570.32,12862.7 L-3578.96,12804.4 L-3581.85,12745.7 L-3578.96,12686.9 L-3570.32,12628.6 L-3556.02,12571.5 L-3536.19,12516.1 L-3511.03,12462.9 L-3480.77,12412.4 L-3445.71,12365.2 L-3406.18,12321.6 L-3362.57,12282 L-3315.29,12247 L-3264.81,12216.7 L-3211.6,12191.5 L-3156.19,12171.7 L-3099.09,12157.4 L-3040.87,12148.8 L-2982.09,12145.9 L-2923.3,12148.8 L-2865.08,12157.4 L-2807.99,12171.7 L-2752.57,12191.5 L-2699.36,12216.7 L-2648.88,12247 L-2601.6,12282 L-2557.99,12321.6 L-2518.47,12365.2 L-2483.41,12412.4 L-2453.15,12462.9 L-2427.98,12516.1 L-2408.15,12571.5 L-2393.85,12628.6 L-2385.22,12686.9 L-2382.33,12745.7 M-2382.33,-12254.3 L-2385.22,-12195.6 L-2393.85,-12137.3 L-2408.15,-12080.2 L-2427.98,-12024.8 L-2453.15,-11971.6 L-2483.41,-11921.1 L-2518.47,-11873.9 L-2557.99,-11830.3 L-2601.6,-11790.7 L-2648.88,-11755.7 L-2699.36,-11725.4 L-2752.57,-11700.2 L-2807.99,-11680.4 L-2865.08,-11666.1 L-2923.3,-11657.5 L-2982.09,-11654.6 L-3040.87,-11657.5 L-3099.09,-11666.1 L-3156.19,-11680.4 L-3211.6,-11700.2 L-3264.81,-11725.4 L-3315.29,-11755.7 L-3362.57,-11790.7 L-3406.18,-11830.3 L-3445.71,-11873.9 L-3480.77,-11921.1 L-3511.03,-11971.6 L-3536.19,-12024.8 L-3556.02,-12080.2 L-3570.32,-12137.3 L-3578.96,-12195.6 L-3581.85,-12254.3 L-3578.96,-12313.1 L-3570.32,-12371.4 L-3556.02,-12428.5 L-3536.19,-12483.9 L-3511.03,-12537.1 L-3480.77,-12587.6 L-3445.71,-12634.8 L-3406.18,-12678.4 L-3362.57,-12718 L-3315.29,-12753 L-3264.81,-12783.3 L-3211.6,-12808.5 L-3156.19,-12828.3 L-3099.09,-12842.6 L-3040.87,-12851.2 L-2982.09,-12854.1 L-2923.3,-12851.2 L-2865.08,-12842.6 L-2807.99,-12828.3 L-2752.57,-12808.5 L-2699.36,-12783.3 L-2648.88,-12753 L-2601.6,-12718 L-2557.99,-12678.4 L-2518.47,-12634.8 L-2483.41,-12587.6 L-2453.15,-12537.1 L-2427.98,-12483.9 L-2408.15,-12428.5 L-2393.85,-12371.4 L-2385.22,-12313.1 L-2382.33,-12254.3 M-2382.33,-37254.3 L-2385.22,-37195.6 L-2393.85,-37137.3 L-2408.15,-37080.2 L-2427.98,-37024.8 L-2453.15,-36971.6 L-2483.41,-36921.1 L-2518.47,-36873.9 L-2557.99,-36830.3 L-2601.6,-36790.7 L-2648.88,-36755.7 L-2699.36,-36725.4 L-2752.57,-36700.2 L-2807.99,-36680.4 L-2865.08,-36666.1 L-2923.3,-36657.5 L-2982.09,-36654.6 L-3040.87,-36657.5 L-3099.09,-36666.1 L-3156.19,-36680.4 L-3211.6,-36700.2 L-3264.81,-36725.4 L-3315.29,-36755.7 L-3362.57,-36790.7 L-3406.18,-36830.3 L-3445.71,-36873.9 L-3480.77,-36921.1 L-3511.03,-36971.6 L-3536.19,-37024.8 L-3556.02,-37080.2 L-3570.32,-37137.3 L-3578.96,-37195.6 L-3581.85,-37254.3 L-3578.96,-37313.1 L-3570.32,-37371.4 L-3556.02,-37428.5 L-3536.19,-37483.9 L-3511.03,-37537.1 L-3480.77,-37587.6 L-3445.71,-37634.8 L-3406.18,-37678.4 L-3362.57,-37718 L-3315.29,-37753 L-3264.81,-37783.3 L-3211.6,-37808.5 L-3156.19,-37828.3 L-3099.09,-37842.6 L-3040.87,-37851.2 L-2982.09,-37854.1 L-2923.3,-37851.2 L-2865.08,-37842.6 L-2807.99,-37828.3 L-2752.57,-37808.5 L-2699.36,-37783.3 L-2648.88,-37753 L-2601.6,-37718 L-2557.99,-37678.4 L-2518.47,-37634.8 L-2483.41,-37587.6 L-2453.15,-37537.1 L-2427.98,-37483.9 L-2408.15,-37428.5 L-2393.85,-37371.4 L-2385.22,-37313.1 L-2382.33,-37254.3"/>
</g>

<g fill="none" stroke="#000000" stroke-opacity="1" stroke-width="1" stroke-linecap="square" stroke-linejoin="bevel" transform="matrix(1,0,0,-1,4832.59,14596.2)"
font-family="MS Shell Dlg 2" font-size="10.3125" font-weight="400" font-style="normal" 
>
</g>

<g fill="none" stroke="#000000" stroke-opacity="1" stroke-width="1" stroke-linecap="square" stroke-linejoin="bevel" transform="matrix(1,0,0,-1,4832.59,14596.2)"
font-family="MS Shell Dlg 2" font-size="10.3125" font-weight="400" font-style="normal" 
>
</g>

<g fill="#ae5151" fill-opacity="0.2" stroke="#333333" stroke-opacity="1" stroke-width="1" stroke-linecap="round" stroke-linejoin="round" transform="matrix(1,0,0,-1,4832.59,14596.2)"
font-family="MS Shell Dlg 2" font-size="10.3125" font-weight="400" font-style="normal" 
>
<path vector-effect="non-scaling-stroke" fill-rule="evenodd" d="M-4632.09,-39104.3 L-4708.62,-39089.1 L-4773.51,-39045.8 L-4816.86,-38980.9 L-4832.09,-38904.3 L-4832.09,14395.7 L-4816.86,14472.2 L-4773.51,14537.1 L-4708.62,14580.4 L-4632.09,14595.7 L23667.9,14595.7 L23744.5,14580.4 L23809.3,14537.1 L23852.7,14472.2 L23867.9,14395.7 L23867.9,-38904.3 L23852.7,-38980.9 L23809.3,-39045.8 L23744.5,-39089.1 L23667.9,-39104.3 L-4632.09,-39104.3 M22617.7,-37254.3 L22614.8,-37195.6 L22606.1,-37137.3 L22591.8,-37080.2 L22572,-37024.8 L22546.9,-36971.6 L22516.6,-36921.1 L22481.5,-36873.9 L22442,-36830.3 L22398.4,-36790.7 L22351.1,-36755.7 L22300.6,-36725.4 L22247.4,-36700.2 L22192,-36680.4 L22134.9,-36666.1 L22076.7,-36657.5 L22017.9,-36654.6 L21959.1,-36657.5 L21900.9,-36666.1 L21843.8,-36680.4 L21788.4,-36700.2 L21735.2,-36725.4 L21684.7,-36755.7 L21637.4,-36790.7 L21593.8,-36830.3 L21554.3,-36873.9 L21519.2,-36921.1 L21489,-36971.6 L21463.8,-37024.8 L21444,-37080.2 L21429.7,-37137.3 L21421,-37195.6 L21418.2,-37254.3 L21421,-37313.1 L21429.7,-37371.4 L21444,-37428.5 L21463.8,-37483.9 L21489,-37537.1 L21519.2,-37587.6 L21554.3,-37634.8 L21593.8,-37678.4 L21637.4,-37718 L21684.7,-37753 L21735.2,-37783.3 L21788.4,-37808.5 L21843.8,-37828.3 L21900.9,-37842.6 L21959.1,-37851.2 L22017.9,-37854.1 L22076.7,-37851.2 L22134.9,-37842.6 L22192,-37828.3 L22247.4,-37808.5 L22300.6,-37783.3 L22351.1,-37753 L22398.4,-37718 L22442,-37678.4 L22481.5,-37634.8 L22516.6,-37587.6 L22546.9,-37537.1 L22572,-37483.9 L22591.8,-37428.5 L22606.1,-37371.4 L22614.8,-37313.1 L22617.7,-37254.3 M22617.7,-12254.3 L22614.8,-12195.6 L22606.1,-12137.3 L22591.8,-12080.2 L22572,-12024.8 L22546.9,-11971.6 L22516.6,-11921.1 L22481.5,-11873.9 L22442,-11830.3 L22398.4,-11790.7 L22351.1,-11755.7 L22300.6,-11725.4 L22247.4,-11700.2 L22192,-11680.4 L22134.9,-11666.1 L22076.7,-11657.5 L22017.9,-11654.6 L21959.1,-11657.5 L21900.9,-11666.1 L21843.8,-11680.4 L21788.4,-11700.2 L21735.2,-11725.4 L21684.7,-11755.7 L21637.4,-11790.7 L21593.8,-11830.3 L21554.3,-11873.9 L21519.2,-11921.1 L21489,-11971.6 L21463.8,-12024.8 L21444,-12080.2 L21429.7,-12137.3 L21421,-12195.6 L21418.2,-12254.3 L21421,-12313.1 L21429.7,-12371.4 L21444,-12428.5 L21463.8,-12483.9 L21489,-12537.1 L21519.2,-12587.6 L21554.3,-12634.8 L21593.8,-12678.4 L21637.4,-12718 L21684.7,-12753 L21735.2,-12783.3 L21788.4,-12808.5 L21843.8,-12828.3 L21900.9,-12842.6 L21959.1,-12851.2 L22017.9,-12854.1 L22076.7,-12851.2 L22134.9,-12842.6 L22192,-12828.3 L22247.4,-12808.5 L22300.6,-12783.3 L22351.1,-12753 L22398.4,-12718 L22442,-12678.4 L22481.5,-12634.8 L22516.6,-12587.6 L22546.9,-12537.1 L22572,-12483.9 L22591.8,-12428.5 L22606.1,-12371.4 L22614.8,-12313.1 L22617.7,-12254.3 M22617.7,12745.7 L22614.8,12804.4 L22606.1,12862.7 L22591.8,12919.8 L22572,12975.2 L22546.9,13028.4 L22516.6,13078.9 L22481.5,13126.1 L22442,13169.7 L22398.4,13209.3 L22351.1,13244.3 L22300.6,13274.6 L22247.4,13299.8 L22192,13319.6 L22134.9,13333.9 L22076.7,13342.5 L22017.9,13345.4 L21959.1,13342.5 L21900.9,13333.9 L21843.8,13319.6 L21788.4,13299.8 L21735.2,13274.6 L21684.7,13244.3 L21637.4,13209.3 L21593.8,13169.7 L21554.3,13126.1 L21519.2,13078.9 L21489,13028.4 L21463.8,12975.2 L21444,12919.8 L21429.7,12862.7 L21421,12804.4 L21418.2,12745.7 L21421,12686.9 L21429.7,12628.6 L21444,12571.5 L21463.8,12516.1 L21489,12462.9 L21519.2,12412.4 L21554.3,12365.2 L21593.8,12321.6 L21637.4,12282 L21684.7,12247 L21735.2,12216.7 L21788.4,12191.5 L21843.8,12171.7 L21900.9,12157.4 L21959.1,12148.8 L22017.9,12145.9 L22076.7,12148.8 L22134.9,12157.4 L22192,12171.7 L22247.4,12191.5 L22300.6,12216.7 L22351.1,12247 L22398.4,12282 L22442,12321.6 L22481.5,12365.2 L22516.6,12412.4 L22546.9,12462.9 L22572,12516.1 L22591.8,12571.5 L22606.1,12628.6 L22614.8,12686.9 L22617.7,12745.7 M-2382.33,12745.7 L-2385.22,12804.4 L-2393.85,12862.7 L-2408.15,12919.8 L-2427.98,12975.2 L-2453.15,13028.4 L-2483.41,13078.9 L-2518.47,13126.1 L-2557.99,13169.7 L-2601.6,13209.3 L-2648.88,13244.3 L-2699.36,13274.6 L-2752.57,13299.8 L-2807.99,13319.6 L-2865.08,13333.9 L-2923.3,13342.5 L-2982.09,13345.4 L-3040.87,13342.5 L-3099.09,13333.9 L-3156.19,13319.6 L-3211.6,13299.8 L-3264.81,13274.6 L-3315.29,13244.3 L-3362.57,13209.3 L-3406.18,13169.7 L-3445.71,13126.1 L-3480.77,13078.9 L-3511.03,13028.4 L-3536.19,12975.2 L-3556.02,12919.8 L-3570.32,12862.7 L-3578.96,12804.4 L-3581.85,12745.7 L-3578.96,12686.9 L-3570.32,12628.6 L-3556.02,12571.5 L-3536.19,12516.1 L-3511.03,12462.9 L-3480.77,12412.4 L-3445.71,12365.2 L-3406.18,12321.6 L-3362.57,12282 L-3315.29,12247 L-3264.81,12216.7 L-3211.6,12191.5 L-3156.19,12171.7 L-3099.09,12157.4 L-3040.87,12148.8 L-2982.09,12145.9 L-2923.3,12148.8 L-2865.08,12157.4 L-2807.99,12171.7 L-2752.57,12191.5 L-2699.36,12216.7 L-2648.88,12247 L-2601.6,12282 L-2557.99,12321.6 L-2518.47,12365.2 L-2483.41,12412.4 L-2453.15,12462.9 L-2427.98,12516.1 L-2408.15,12571.5 L-2393.85,12628.6 L-2385.22,12686.9 L-2382.33,12745.7 M-2382.33,-12254.3 L-2385.22,-12195.6 L-2393.85,-12137.3 L-2408.15,-12080.2 L-2427.98,-12024.8 L-2453.15,-11971.6 L-2483.41,-11921.1 L-2518.47,-11873.9 L-2557.99,-11830.3 L-2601.6,-11790.7 L-2648.88,-11755.7 L-2699.36,-11725.4 L-2752.57,-11700.2 L-2807.99,-11680.4 L-2865.08,-11666.1 L-2923.3,-11657.5 L-2982.09,-11654.6 L-3040.87,-11657.5 L-3099.09,-11666.1 L-3156.19,-11680.4 L-3211.6,-11700.2 L-3264.81,-11725.4 L-3315.29,-11755.7 L-3362.57,-11790.7 L-3406.18,-11830.3 L-3445.71,-11873.9 L-3480.77,-11921.1 L-3511.03,-11971.6 L-3536.19,-12024.8 L-3556.02,-12080.2 L-3570.32,-12137.3 L-3578.96,-12195.6 L-3581.85,-12254.3 L-3578.96,-12313.1 L-3570.32,-12371.4 L-3556.02,-12428.5 L-3536.19,-12483.9 L-3511.03,-12537.1 L-3480.77,-12587.6 L-3445.71,-12634.8 L-3406.18,-12678.4 L-3362.57,-12718 L-3315.29,-12753 L-3264.81,-12783.3 L-3211.6,-12808.5 L-3156.19,-12828.3 L-3099.09,-12842.6 L-3040.87,-12851.2 L-2982.09,-12854.1 L-2923.3,-12851.2 L-2865.08,-12842.6 L-2807.99,-12828.3 L-2752.57,-12808.5 L-2699.36,-12783.3 L-2648.88,-12753 L-2601.6,-12718 L-2557.99,-12678.4 L-2518.47,-12634.8 L-2483.41,-12587.6 L-2453.15,-12537.1 L-2427.98,-12483.9 L-2408.15,-12428.5 L-2393.85,-12371.4 L-2385.22,-12313.1 L-2382.33,-12254.3 M-2382.33,-37254.3 L-2385.22,-37195.6 L-2393.85,-37137.3 L-2408.15,-37080.2 L-2427.98,-37024.8 L-2453.15,-36971.6 L-2483.41,-36921.1 L-2518.47,-36873.9 L-2557.99,-36830.3 L-2601.6,-36790.7 L-2648.88,-36755.7 L-2699.36,-36725.4 L-2752.57,-36700.2 L-2807.99,-36680.4 L-2865.08,-36666.1 L-2923.3,-36657.5 L-2982.09,-36654.6 L-3040.87,-36657.5 L-3099.09,-36666.1 L-3156.19,-36680.4 L-3211.6,-36700.2 L-3264.81,-36725.4 L-3315.29,-36755.7 L-3362.57,-36790.7 L-3406.18,-36830.3 L-3445.71,-36873.9 L-3480.77,-36921.1 L-3511.03,-36971.6 L-3536.19,-37024.8 L-3556.02,-37080.2 L-3570.32,-37137.3 L-3578.96,-37195.6 L-3581.85,-37254.3 L-3578.96,-37313.1 L-3570.32,-37371.4 L-3556.02,-37428.5 L-3536.19,-37483.9 L-3511.03,-37537.1 L-3480.77,-37587.6 L-3445.71,-37634.8 L-3406.18,-37678.4 L-3362.57,-37718 L-3315.29,-37753 L-3264.81,-37783.3 L-3211.6,-37808.5 L-3156.19,-37828.3 L-3099.09,-37842.6 L-3040.87,-37851.2 L-2982.09,-37854.1 L-2923.3,-37851.2 L-2865.08,-37842.6 L-2807.99,-37828.3 L-2752.57,-37808.5 L-2699.36,-37783.3 L-2648.88,-37753 L-2601.6,-37718 L-2557.99,-37678.4 L-2518.47,-37634.8 L-2483.41,-37587.6 L-2453.15,-37537.1 L-2427.98,-37483.9 L-2408.15,-37428.5 L-2393.85,-37371.4 L-2385.22,-37313.1 L-2382.33,-37254.3"/>
</g>

<g fill="none" stroke="#000000" stroke-opacity="1" stroke-width="1" stroke-linecap="square" stroke-linejoin="bevel" transform="matrix(1,0,0,-1,4832.59,14596.2)"
font-family="MS Shell Dlg 2" font-size="10.3125" font-weight="400" font-style="normal" 
>
</g>

<g fill="none" stroke="#000000" stroke-opacity="1" stroke-width="1" stroke-linecap="square" stroke-linejoin="bevel" transform="matrix(1,0,0,-1,4832.59,14596.2)"
font-family="MS Shell Dlg 2" font-size="10.3125" font-weight="400" font-style="normal" 
>
</g>

<g fill="#333333" fill-opacity="0.2" stroke="#333333" stroke-opacity="1" stroke-width="1" stroke-linecap="round" stroke-linejoin="round" transform="matrix(1,0,0,-1,4832.59,14596.2)"
font-family="MS Shell Dlg 2" font-size="10.3125" font-weight="400" font-style="normal" 
>
<path vector-effect="non-scaling-stroke" fill-rule="evenodd" d="M-4632.09,-39104.3 L-4708.62,-39089.1 L-4773.51,-39045.8 L-4816.86,-38980.9 L-4832.09,-38904.3 L-4832.09,14395.7 L-4816.86,14472.2 L-4773.51,14537.1 L-4708.62,14580.4 L-4632.09,14595.7 L23667.9,14595.7 L23744.5,14580.4 L23809.3,14537.1 L23852.7,14472.2 L23867.9,14395.7 L23867.9,-38904.3 L23852.7,-38980.9 L23809.3,-39045.8 L23744.5,-39089.1 L23667.9,-39104.3 L-4632.09,-39104.3 M22617.7,-37254.3 L22614.8,-37195.6 L22606.1,-37137.3 L22591.8,-37080.2 L22572,-37024.8 L22546.9,-36971.6 L22516.6,-36921.1 L22481.5,-36873.9 L22442,-36830.3 L22398.4,-36790.7 L22351.1,-36755.7 L22300.6,-36725.4 L22247.4,-36700.2 L22192,-36680.4 L22134.9,-36666.1 L22076.7,-36657.5 L22017.9,-36654.6 L21959.1,-36657.5 L21900.9,-36666.1 L21843.8,-36680.4 L21788.4,-36700.2 L21735.2,-36725.4 L21684.7,-36755.7 L21637.4,-36790.7 L21593.8,-36830.3 L21554.3,-36873.9 L21519.2,-36921.1 L21489,-36971.6 L21463.8,-37024.8 L21444,-37080.2 L21429.7,-37137.3 L21421,-37195.6 L21418.2,-37254.3 L21421,-37313.1 L21429.7,-37371.4 L21444,-37428.5 L21463.8,-37483.9 L21489,-37537.1 L21519.2,-37587.6 L21554.3,-37634.8 L21593.8,-37678.4 L21637.4,-37718 L21684.7,-37753 L21735.2,-37783.3 L21788.4,-37808.5 L21843.8,-37828.3 L21900.9,-37842.6 L21959.1,-37851.2 L22017.9,-37854.1 L22076.7,-37851.2 L22134.9,-37842.6 L22192,-37828.3 L22247.4,-37808.5 L22300.6,-37783.3 L22351.1,-37753 L22398.4,-37718 L22442,-37678.4 L22481.5,-37634.8 L22516.6,-37587.6 L22546.9,-37537.1 L22572,-37483.9 L22591.8,-37428.5 L22606.1,-37371.4 L22614.8,-37313.1 L22617.7,-37254.3 M22617.7,-12254.3 L22614.8,-12195.6 L22606.1,-12137.3 L22591.8,-12080.2 L22572,-12024.8 L22546.9,-11971.6 L22516.6,-11921.1 L22481.5,-11873.9 L22442,-11830.3 L22398.4,-11790.7 L22351.1,-11755.7 L22300.6,-11725.4 L22247.4,-11700.2 L22192,-11680.4 L22134.9,-11666.1 L22076.7,-11657.5 L22017.9,-11654.6 L21959.1,-11657.5 L21900.9,-11666.1 L21843.8,-11680.4 L21788.4,-11700.2 L21735.2,-11725.4 L21684.7,-11755.7 L21637.4,-11790.7 L21593.8,-11830.3 L21554.3,-11873.9 L21519.2,-11921.1 L21489,-11971.6 L21463.8,-12024.8 L21444,-12080.2 L21429.7,-12137.3 L21421,-12195.6 L21418.2,-12254.3 L21421,-12313.1 L21429.7,-12371.4 L21444,-12428.5 L21463.8,-12483.9 L21489,-12537.1 L21519.2,-12587.6 L21554.3,-12634.8 L21593.8,-12678.4 L21637.4,-12718 L21684.7,-12753 L21735.2,-12783.3 L21788.4,-12808.5 L21843.8,-12828.3 L21900.9,-12842.6 L21959.1,-12851.2 L22017.9,-12854.1 L22076.7,-12851.2 L22134.9,-12842.6 L22192,-12828.3 L22247.4,-12808.5 L22300.6,-12783.3 L22351.1,-12753 L22398.4,-12718 L22442,-12678.4 L22481.5,-12634.8 L22516.6,-12587.6 L22546.9,-12537.1 L22572,-12483.9 L22591.8,-12428.5 L22606.1,-12371.4 L22614.8,-12313.1 L22617.7,-12254.3 M22617.7,12745.7 L22614.8,12804.4 L22606.1,12862.7 L22591.8,12919.8 L22572,12975.2 L22546.9,13028.4 L22516.6,13078.9 L22481.5,13126.1 L22442,13169.7 L22398.4,13209.3 L22351.1,13244.3 L22300.6,13274.6 L22247.4,13299.8 L22192,13319.6 L22134.9,13333.9 L22076.7,13342.5 L22017.9,13345.4 L21959.1,13342.5 L21900.9,13333.9 L21843.8,13319.6 L21788.4,13299.8 L21735.2,13274.6 L21684.7,13244.3 L21637.4,13209.3 L21593.8,13169.7 L21554.3,13126.1 L21519.2,13078.9 L21489,13028.4 L21463.8,12975.2 L21444,12919.8 L21429.7,12862.7 L21421,12804.4 L21418.2,12745.7 L21421,12686.9 L21429.7,12628.6 L21444,12571.5 L21463.8,12516.1 L21489,12462.9 L21519.2,12412.4 L21554.3,12365.2 L21593.8,12321.6 L21637.4,12282 L21684.7,12247 L21735.2,12216.7 L21788.4,12191.5 L21843.8,12171.7 L21900.9,12157.4 L21959.1,12148.8 L22017.9,12145.9 L22076.7,12148.8 L22134.9,12157.4 L22192,12171.7 L22247.4,12191.5 L22300.6,12216.7 L22351.1,12247 L22398.4,12282 L22442,12321.6 L22481.5,12365.2 L22516.6,12412.4 L22546.9,12462.9 L22572,12516.1 L22591.8,12571.5 L22606.1,12628.6 L22614.8,12686.9 L22617.7,12745.7 M-2382.33,12745.7 L-2385.22,12804.4 L-2393.85,12862.7 L-2408.15,12919.8 L-2427.98,12975.2 L-2453.15,13028.4 L-2483.41,13078.9 L-2518.47,13126.1 L-2557.99,13169.7 L-2601.6,13209.3 L-2648.88,13244.3 L-2699.36,13274.6 L-2752.57,13299.8 L-2807.99,13319.6 L-2865.08,13333.9 L-2923.3,13342.5 L-2982.09,13345.4 L-3040.87,13342.5 L-3099.09,13333.9 L-3156.19,13319.6 L-3211.6,13299.8 L-3264.81,13274.6 L-3315.29,13244.3 L-3362.57,13209.3 L-3406.18,13169.7 L-3445.71,13126.1 L-3480.77,13078.9 L-3511.03,13028.4 L-3536.19,12975.2 L-3556.02,12919.8 L-3570.32,12862.7 L-3578.96,12804.4 L-3581.85,12745.7 L-3578.96,12686.9 L-3570.32,12628.6 L-3556.02,12571.5 L-3536.19,12516.1 L-3511.03,12462.9 L-3480.77,12412.4 L-3445.71,12365.2 L-3406.18,12321.6 L-3362.57,12282 L-3315.29,12247 L-3264.81,12216.7 L-3211.6,12191.5 L-3156.19,12171.7 L-3099.09,12157.4 L-3040.87,12148.8 L-2982.09,12145.9 L-2923.3,12148.8 L-2865.08,12157.4 L-2807.99,12171.7 L-2752.57,12191.5 L-2699.36,12216.7 L-2648.88,12247 L-2601.6,12282 L-2557.99,12321.6 L-2518.47,12365.2 L-2483.41,12412.4 L-2453.15,12462.9 L-2427.98,12516.1 L-2408.15,12571.5 L-2393.85,12628.6 L-2385.22,12686.9 L-2382.33,12745.7 M-2382.33,-12254.3 L-2385.22,-12195.6 L-2393.85,-12137.3 L-2408.15,-12080.2 L-2427.98,-12024.8 L-2453.15,-11971.6 L-2483.41,-11921.1 L-2518.47,-11873.9 L-2557.99,-11830.3 L-2601.6,-11790.7 L-2648.88,-11755.7 L-2699.36,-11725.4 L-2752.57,-11700.2 L-2807.99,-11680.4 L-2865.08,-11666.1 L-2923.3,-11657.5 L-2982.09,-11654.6 L-3040.87,-11657.5 L-3099.09,-11666.1 L-3156.19,-11680.4 L-3211.6,-11700.2 L-3264.81,-11725.4 L-3315.29,-11755.7 L-3362.57,-11790.7 L-3406.18,-11830.3 L-3445.71,-11873.9 L-3480.77,-11921.1 L-3511.03,-11971.6 L-3536.19,-12024.8 L-3556.02,-12080.2 L-3570.32,-12137.3 L-3578.96,-12195.6 L-3581.85,-12254.3 L-3578.96,-12313.1 L-3570.32,-12371.4 L-3556.02,-12428.5 L-3536.19,-12483.9 L-3511.03,-12537.1 L-3480.77,-12587.6 L-3445.71,-12634.8 L-3406.18,-12678.4 L-3362.57,-12718 L-3315.29,-12753 L-3264.81,-12783.3 L-3211.6,-12808.5 L-3156.19,-12828.3 L-3099.09,-12842.6 L-3040.87,-12851.2 L-2982.09,-12854.1 L-2923.3,-12851.2 L-2865.08,-12842.6 L-2807.99,-12828.3 L-2752.57,-12808.5 L-2699.36,-12783.3 L-2648.88,-12753 L-2601.6,-12718 L-2557.99,-12678.4 L-2518.47,-12634.8 L-2483.41,-12587.6 L-2453.15,-12537.1 L-2427.98,-12483.9 L-2408.15,-12428.5 L-2393.85,-12371.4 L-2385.22,-12313.1 L-2382.33,-12254.3 M-2382.33,-37254.3 L-2385.22,-37195.6 L-2393.85,-37137.3 L-2408.15,-37080.2 L-2427.98,-37024.8 L-2453.15,-36971.6 L-2483.41,-36921.1 L-2518.47,-36873.9 L-2557.99,-36830.3 L-2601.6,-36790.7 L-2648.88,-36755.7 L-2699.36,-36725.4 L-2752.57,-36700.2 L-2807.99,-36680.4 L-2865.08,-36666.1 L-2923.3,-36657.5 L-2982.09,-36654.6 L-3040.87,-36657.5 L-3099.09,-36666.1 L-3156.19,-36680.4 L-3211.6,-36700.2 L-3264.81,-36725.4 L-3315.29,-36755.7 L-3362.57,-36790.7 L-3406.18,-36830.3 L-3445.71,-36873.9 L-3480.77,-36921.1 L-3511.03,-36971.6 L-3536.19,-37024.8 L-3556.02,-37080.2 L-3570.32,-37137.3 L-3578.96,-37195.6 L-3581.85,-37254.3 L-3578.96,-37313.1 L-3570.32,-37371.4 L-3556.02,-37428.5 L-3536.19,-37483.9 L-3511.03,-37537.1 L-3480.77,-37587.6 L-3445.71,-37634.8 L-3406.18,-37678.4 L-3362.57,-37718 L-3315.29,-37753 L-3264.81,-37783.3 L-3211.6,-37808.5 L-3156.19,-37828.3 L-3099.09,-37842.6 L-3040.87,-37851.2 L-2982.09,-37854.1 L-2923.3,-37851.2 L-2865.08,-37842.6 L-2807.99,-37828.3 L-2752.57,-37808.5 L-2699.36,-37783.3 L-2648.88,-37753 L-2601.6,-37718 L-2557.99,-37678.4 L-2518.47,-37634.8 L-2483.41,-37587.6 L-2453.15,-37537.1 L-2427.98,-37483.9 L-2408.15,-37428.5 L-2393.85,-37371.4 L-2385.22,-37313.1 L-2382.33,-37254.3"/>
</g>

<g fill="none" stroke="#000000" stroke-opacity="1" stroke-width="1" stroke-linecap="square" stroke-linejoin="bevel" transform="matrix(1,0,0,-1,4832.59,14596.2)"
font-family="MS Shell Dlg 2" font-size="10.3125" font-weight="400" font-style="normal" 
>
</g>

<g fill="none" stroke="#000000" stroke-opacity="1" stroke-width="1" stroke-linecap="square" stroke-linejoin="bevel" transform="matrix(1,0,0,-1,4832.59,14596.2)"
font-family="MS Shell Dlg 2" font-size="10.3125" font-weight="400" font-style="normal" 
>
</g>

<g fill="#ae5151" fill-opacity="0.2" stroke="#333333" stroke-opacity="1" stroke-width="1" stroke-linecap="round" stroke-linejoin="round" transform="matrix(1,0,0,-1,4832.59,14596.2)"
font-family="MS Shell Dlg 2" font-size="10.3125" font-weight="400" font-style="normal" 
>
<path vector-effect="non-scaling-stroke" fill-rule="evenodd" d="M-4632.09,-39104.3 L-4708.62,-39089.1 L-4773.51,-39045.8 L-4816.86,-38980.9 L-4832.09,-38904.3 L-4832.09,14395.7 L-4816.86,14472.2 L-4773.51,14537.1 L-4708.62,14580.4 L-4632.09,14595.7 L23667.9,14595.7 L23744.5,14580.4 L23809.3,14537.1 L23852.7,14472.2 L23867.9,14395.7 L23867.9,-38904.3 L23852.7,-38980.9 L23809.3,-39045.8 L23744.5,-39089.1 L23667.9,-39104.3 L-4632.09,-39104.3 M22617.7,-37254.3 L22614.8,-37195.6 L22606.1,-37137.3 L22591.8,-37080.2 L22572,-37024.8 L22546.9,-36971.6 L22516.6,-36921.1 L22481.5,-36873.9 L22442,-36830.3 L22398.4,-36790.7 L22351.1,-36755.7 L22300.6,-36725.4 L22247.4,-36700.2 L22192,-36680.4 L22134.9,-36666.1 L22076.7,-36657.5 L22017.9,-36654.6 L21959.1,-36657.5 L21900.9,-36666.1 L21843.8,-36680.4 L21788.4,-36700.2 L21735.2,-36725.4 L21684.7,-36755.7 L21637.4,-36790.7 L21593.8,-36830.3 L21554.3,-36873.9 L21519.2,-36921.1 L21489,-36971.6 L21463.8,-37024.8 L21444,-37080.2 L21429.7,-37137.3 L21421,-37195.6 L21418.2,-37254.3 L21421,-37313.1 L21429.7,-37371.4 L21444,-37428.5 L21463.8,-37483.9 L21489,-37537.1 L21519.2,-37587.6 L21554.3,-37634.8 L21593.8,-37678.4 L21637.4,-37718 L21684.7,-37753 L21735.2,-37783.3 L21788.4,-37808.5 L21843.8,-37828.3 L21900.9,-37842.6 L21959.1,-37851.2 L22017.9,-37854.1 L22076.7,-37851.2 L22134.9,-37842.6 L22192,-37828.3 L22247.4,-37808.5 L22300.6,-37783.3 L22351.1,-37753 L22398.4,-37718 L22442,-37678.4 L22481.5,-37634.8 L22516.6,-37587.6 L22546.9,-37537.1 L22572,-37483.9 L22591.8,-37428.5 L22606.1,-37371.4 L22614.8,-37313.1 L22617.7,-37254.3 M22617.7,-12254.3 L22614.8,-12195.6 L22606.1,-12137.3 L22591.8,-12080.2 L22572,-12024.8 L22546.9,-11971.6 L22516.6,-11921.1 L22481.5,-11873.9 L22442,-11830.3 L22398.4,-11790.7 L22351.1,-11755.7 L22300.6,-11725.4 L22247.4,-11700.2 L22192,-11680.4 L22134.9,-11666.1 L22076.7,-11657.5 L22017.9,-11654.6 L21959.1,-11657.5 L21900.9,-11666.1 L21843.8,-11680.4 L21788.4,-11700.2 L21735.2,-11725.4 L21684.7,-11755.7 L21637.4,-11790.7 L21593.8,-11830.3 L21554.3,-11873.9 L21519.2,-11921.1 L21489,-11971.6 L21463.8,-12024.8 L21444,-12080.2 L21429.7,-12137.3 L21421,-12195.6 L21418.2,-12254.3 L21421,-12313.1 L21429.7,-12371.4 L21444,-12428.5 L21463.8,-12483.9 L21489,-12537.1 L21519.2,-12587.6 L21554.3,-12634.8 L21593.8,-12678.4 L21637.4,-12718 L21684.7,-12753 L21735.2,-12783.3 L21788.4,-12808.5 L21843.8,-12828.3 L21900.9,-12842.6 L21959.1,-12851.2 L22017.9,-12854.1 L22076.7,-12851.2 L22134.9,-12842.6 L22192,-12828.3 L22247.4,-12808.5 L22300.6,-12783.3 L22351.1,-12753 L22398.4,-12718 L22442,-12678.4 L22481.5,-12634.8 L22516.6,-12587.6 L22546.9,-12537.1 L22572,-12483.9 L22591.8,-12428.5 L22606.1,-12371.4 L22614.8,-12313.1 L22617.7,-12254.3 M22617.7,12745.7 L22614.8,12804.4 L22606.1,12862.7 L22591.8,12919.8 L22572,12975.2 L22546.9,13028.4 L22516.6,13078.9 L22481.5,13126.1 L22442,13169.7 L22398.4,13209.3 L22351.1,13244.3 L22300.6,13274.6 L22247.4,13299.8 L22192,13319.6 L22134.9,13333.9 L22076.7,13342.5 L22017.9,13345.4 L21959.1,13342.5 L21900.9,13333.9 L21843.8,13319.6 L21788.4,13299.8 L21735.2,13274.6 L21684.7,13244.3 L21637.4,13209.3 L21593.8,13169.7 L21554.3,13126.1 L21519.2,13078.9 L21489,13028.4 L21463.8,12975.2 L21444,12919.8 L21429.7,12862.7 L21421,12804.4 L21418.2,12745.7 L21421,12686.9 L21429.7,12628.6 L21444,12571.5 L21463.8,12516.1 L21489,12462.9 L21519.2,12412.4 L21554.3,12365.2 L21593.8,12321.6 L21637.4,12282 L21684.7,12247 L21735.2,12216.7 L21788.4,12191.5 L21843.8,12171.7 L21900.9,12157.4 L21959.1,12148.8 L22017.9,12145.9 L22076.7,12148.8 L22134.9,12157.4 L22192,12171.7 L22247.4,12191.5 L22300.6,12216.7 L22351.1,12247 L22398.4,12282 L22442,12321.6 L22481.5,12365.2 L22516.6,12412.4 L22546.9,12462.9 L22572,12516.1 L22591.8,12571.5 L22606.1,12628.6 L22614.8,12686.9 L22617.7,12745.7 M-2382.33,12745.7 L-2385.22,12804.4 L-2393.85,12862.7 L-2408.15,12919.8 L-2427.98,12975.2 L-2453.15,13028.4 L-2483.41,13078.9 L-2518.47,13126.1 L-2557.99,13169.7 L-2601.6,13209.3 L-2648.88,13244.3 L-2699.36,13274.6 L-2752.57,13299.8 L-2807.99,13319.6 L-2865.08,13333.9 L-2923.3,13342.5 L-2982.09,13345.4 L-3040.87,13342.5 L-3099.09,13333.9 L-3156.19,13319.6 L-3211.6,13299.8 L-3264.81,13274.6 L-3315.29,13244.3 L-3362.57,13209.3 L-3406.18,13169.7 L-3445.71,13126.1 L-3480.77,13078.9 L-3511.03,13028.4 L-3536.19,12975.2 L-3556.02,12919.8 L-3570.32,12862.7 L-3578.96,12804.4 L-3581.85,12745.7 L-3578.96,12686.9 L-3570.32,12628.6 L-3556.02,12571.5 L-3536.19,12516.1 L-3511.03,12462.9 L-3480.77,12412.4 L-3445.71,12365.2 L-3406.18,12321.6 L-3362.57,12282 L-3315.29,12247 L-3264.81,12216.7 L-3211.6,12191.5 L-3156.19,12171.7 L-3099.09,12157.4 L-3040.87,12148.8 L-2982.09,12145.9 L-2923.3,12148.8 L-2865.08,12157.4 L-2807.99,12171.7 L-2752.57,12191.5 L-2699.36,12216.7 L-2648.88,12247 L-2601.6,12282 L-2557.99,12321.6 L-2518.47,12365.2 L-2483.41,12412.4 L-2453.15,12462.9 L-2427.98,12516.1 L-2408.15,12571.5 L-2393.85,12628.6 L-2385.22,12686.9 L-2382.33,12745.7 M-2382.33,-12254.3 L-2385.22,-12195.6 L-2393.85,-12137.3 L-2408.15,-12080.2 L-2427.98,-12024.8 L-2453.15,-11971.6 L-2483.41,-11921.1 L-2518.47,-11873.9 L-2557.99,-11830.3 L-2601.6,-11790.7 L-2648.88,-11755.7 L-2699.36,-11725.4 L-2752.57,-11700.2 L-2807.99,-11680.4 L-2865.08,-11666.1 L-2923.3,-11657.5 L-2982.09,-11654.6 L-3040.87,-11657.5 L-3099.09,-11666.1 L-3156.19,-11680.4 L-3211.6,-11700.2 L-3264.81,-11725.4 L-3315.29,-11755.7 L-3362.57,-11790.7 L-3406.18,-11830.3 L-3445.71,-11873.9 L-3480.77,-11921.1 L-3511.03,-11971.6 L-3536.19,-12024.8 L-3556.02,-12080.2 L-3570.32,-12137.3 L-3578.96,-12195.6 L-3581.85,-12254.3 L-3578.96,-12313.1 L-3570.32,-12371.4 L-3556.02,-12428.5 L-3536.19,-12483.9 L-3511.03,-12537.1 L-3480.77,-12587.6 L-3445.71,-12634.8 L-3406.18,-12678.4 L-3362.57,-12718 L-3315.29,-12753 L-3264.81,-12783.3 L-3211.6,-12808.5 L-3156.19,-12828.3 L-3099.09,-12842.6 L-3040.87,-12851.2 L-2982.09,-12854.1 L-2923.3,-12851.2 L-2865.08,-12842.6 L-2807.99,-12828.3 L-2752.57,-12808.5 L-2699.36,-12783.3 L-2648.88,-12753 L-2601.6,-12718 L-2557.99,-12678.4 L-2518.47,-12634.8 L-2483.41,-12587.6 L-2453.15,-12537.1 L-2427.98,-12483.9 L-2408.15,-12428.5 L-2393.85,-12371.4 L-2385.22,-12313.1 L-2382.33,-12254.3 M-2382.33,-37254.3 L-2385.22,-37195.6 L-2393.85,-37137.3 L-2408.15,-37080.2 L-2427.98,-37024.8 L-2453.15,-36971.6 L-2483.41,-36921.1 L-2518.47,-36873.9 L-2557.99,-36830.3 L-2601.6,-36790.7 L-2648.88,-36755.7 L-2699.36,-36725.4 L-2752.57,-36700.2 L-2807.99,-36680.4 L-2865.08,-36666.1 L-2923.3,-36657.5 L-2982.09,-36654.6 L-3040.87,-36657.5 L-3099.09,-36666.1 L-3156.19,-36680.4 L-3211.6,-36700.2 L-3264.81,-36725.4 L-3315.29,-36755.7 L-3362.57,-36790.7 L-3406.18,-36830.3 L-3445.71,-36873.9 L-3480.77,-36921.1 L-3511.03,-36971.6 L-3536.19,-37024.8 L-3556.02,-37080.2 L-3570.32,-37137.3 L-3578.96,-37195.6 L-3581.85,-37254.3 L-3578.96,-37313.1 L-3570.32,-37371.4 L-3556.02,-37428.5 L-3536.19,-37483.9 L-3511.03,-37537.1 L-3480.77,-37587.6 L-3445.71,-37634.8 L-3406.18,-37678.4 L-3362.57,-37718 L-3315.29,-37753 L-3264.81,-37783.3 L-3211.6,-37808.5 L-3156.19,-37828.3 L-3099.09,-37842.6 L-3040.87,-37851.2 L-2982.09,-37854.1 L-2923.3,-37851.2 L-2865.08,-37842.6 L-2807.99,-37828.3 L-2752.57,-37808.5 L-2699.36,-37783.3 L-2648.88,-37753 L-2601.6,-37718 L-2557.99,-37678.4 L-2518.47,-37634.8 L-2483.41,-37587.6 L-2453.15,-37537.1 L-2427.98,-37483.9 L-2408.15,-37428.5 L-2393.85,-37371.4 L-2385.22,-37313.1 L-2382.33,-37254.3"/>
</g>

<g fill="none" stroke="#000000" stroke-opacity="1" stroke-width="1" stroke-linecap="square" stroke-linejoin="bevel" transform="matrix(1,0,0,-1,4832.59,14596.2)"
font-family="MS Shell Dlg 2" font-size="10.3125" font-weight="400" font-style="normal" 
>
</g>

<g fill="none" stroke="#000000" stroke-opacity="1" stroke-width="1" stroke-linecap="square" stroke-linejoin="bevel" transform="matrix(1,0,0,-1,4832.59,14596.2)"
font-family="MS Shell Dlg 2" font-size="10.3125" font-weight="400" font-style="normal" 
>
</g>

<g fill="#333333" fill-opacity="0.2" stroke="#333333" stroke-opacity="1" stroke-width="1" stroke-linecap="round" stroke-linejoin="round" transform="matrix(1,0,0,-1,4832.59,14596.2)"
font-family="MS Shell Dlg 2" font-size="10.3125" font-weight="400" font-style="normal" 
>
<path vector-effect="non-scaling-stroke" fill-rule="evenodd" d="M-4632.09,-39104.3 L-4708.62,-39089.1 L-4773.51,-39045.8 L-4816.86,-38980.9 L-4832.09,-38904.3 L-4832.09,14395.7 L-4816.86,14472.2 L-4773.51,14537.1 L-4708.62,14580.4 L-4632.09,14595.7 L23667.9,14595.7 L23744.5,14580.4 L23809.3,14537.1 L23852.7,14472.2 L23867.9,14395.7 L23867.9,-38904.3 L23852.7,-38980.9 L23809.3,-39045.8 L23744.5,-39089.1 L23667.9,-39104.3 L-4632.09,-39104.3 M22617.7,-37254.3 L22614.8,-37195.6 L22606.1,-37137.3 L22591.8,-37080.2 L22572,-37024.8 L22546.9,-36971.6 L22516.6,-36921.1 L22481.5,-36873.9 L22442,-36830.3 L22398.4,-36790.7 L22351.1,-36755.7 L22300.6,-36725.4 L22247.4,-36700.2 L22192,-36680.4 L22134.9,-36666.1 L22076.7,-36657.5 L22017.9,-36654.6 L21959.1,-36657.5 L21900.9,-36666.1 L21843.8,-36680.4 L21788.4,-36700.2 L21735.2,-36725.4 L21684.7,-36755.7 L21637.4,-36790.7 L21593.8,-36830.3 L21554.3,-36873.9 L21519.2,-36921.1 L21489,-36971.6 L21463.8,-37024.8 L21444,-37080.2 L21429.7,-37137.3 L21421,-37195.6 L21418.2,-37254.3 L21421,-37313.1 L21429.7,-37371.4 L21444,-37428.5 L21463.8,-37483.9 L21489,-37537.1 L21519.2,-37587.6 L21554.3,-37634.8 L21593.8,-37678.4 L21637.4,-37718 L21684.7,-37753 L21735.2,-37783.3 L21788.4,-37808.5 L21843.8,-37828.3 L21900.9,-37842.6 L21959.1,-37851.2 L22017.9,-37854.1 L22076.7,-37851.2 L22134.9,-37842.6 L22192,-37828.3 L22247.4,-37808.5 L22300.6,-37783.3 L22351.1,-37753 L22398.4,-37718 L22442,-37678.4 L22481.5,-37634.8 L22516.6,-37587.6 L22546.9,-37537.1 L22572,-37483.9 L22591.8,-37428.5 L22606.1,-37371.4 L22614.8,-37313.1 L22617.7,-37254.3 M22617.7,-12254.3 L22614.8,-12195.6 L22606.1,-12137.3 L22591.8,-12080.2 L22572,-12024.8 L22546.9,-11971.6 L22516.6,-11921.1 L22481.5,-11873.9 L22442,-11830.3 L22398.4,-11790.7 L22351.1,-11755.7 L22300.6,-11725.4 L22247.4,-11700.2 L22192,-11680.4 L22134.9,-11666.1 L22076.7,-11657.5 L22017.9,-11654.6 L21959.1,-11657.5 L21900.9,-11666.1 L21843.8,-11680.4 L21788.4,-11700.2 L21735.2,-11725.4 L21684.7,-11755.7 L21637.4,-11790.7 L21593.8,-11830.3 L21554.3,-11873.9 L21519.2,-11921.1 L21489,-11971.6 L21463.8,-12024.8 L21444,-12080.2 L21429.7,-12137.3 L21421,-12195.6 L21418.2,-12254.3 L21421,-12313.1 L21429.7,-12371.4 L21444,-12428.5 L21463.8,-12483.9 L21489,-12537.1 L21519.2,-12587.6 L21554.3,-12634.8 L21593.8,-12678.4 L21637.4,-12718 L21684.7,-12753 L21735.2,-12783.3 L21788.4,-12808.5 L21843.8,-12828.3 L21900.9,-12842.6 L21959.1,-12851.2 L22017.9,-12854.1 L22076.7,-12851.2 L22134.9,-12842.6 L22192,-12828.3 L22247.4,-12808.5 L22300.6,-12783.3 L22351.1,-12753 L22398.4,-12718 L22442,-12678.4 L22481.5,-12634.8 L22516.6,-12587.6 L22546.9,-12537.1 L22572,-12483.9 L22591.8,-12428.5 L22606.1,-12371.4 L22614.8,-12313.1 L22617.7,-12254.3 M22617.7,12745.7 L22614.8,12804.4 L22606.1,12862.7 L22591.8,12919.8 L22572,12975.2 L22546.9,13028.4 L22516.6,13078.9 L22481.5,13126.1 L22442,13169.7 L22398.4,13209.3 L22351.1,13244.3 L22300.6,13274.6 L22247.4,13299.8 L22192,13319.6 L22134.9,13333.9 L22076.7,13342.5 L22017.9,13345.4 L21959.1,13342.5 L21900.9,13333.9 L21843.8,13319.6 L21788.4,13299.8 L21735.2,13274.6 L21684.7,13244.3 L21637.4,13209.3 L21593.8,13169.7 L21554.3,13126.1 L21519.2,13078.9 L21489,13028.4 L21463.8,12975.2 L21444,12919.8 L21429.7,12862.7 L21421,12804.4 L21418.2,12745.7 L21421,12686.9 L21429.7,12628.6 L21444,12571.5 L21463.8,12516.1 L21489,12462.9 L21519.2,12412.4 L21554.3,12365.2 L21593.8,12321.6 L21637.4,12282 L21684.7,12247 L21735.2,12216.7 L21788.4,12191.5 L21843.8,12171.7 L21900.9,12157.4 L21959.1,12148.8 L22017.9,12145.9 L22076.7,12148.8 L22134.9,12157.4 L22192,12171.7 L22247.4,12191.5 L22300.6,12216.7 L22351.1,12247 L22398.4,12282 L22442,12321.6 L22481.5,12365.2 L22516.6,12412.4 L22546.9,12462.9 L22572,12516.1 L22591.8,12571.5 L22606.1,12628.6 L22614.8,12686.9 L22617.7,12745.7 M-2382.33,12745.7 L-2385.22,12804.4 L-2393.85,12862.7 L-2408.15,12919.8 L-2427.98,12975.2 L-2453.15,13028.4 L-2483.41,13078.9 L-2518.47,13126.1 L-2557.99,13169.7 L-2601.6,13209.3 L-2648.88,13244.3 L-2699.36,13274.6 L-2752.57,13299.8 L-2807.99,13319.6 L-2865.08,13333.9 L-2923.3,13342.5 L-2982.09,13345.4 L-3040.87,13342.5 L-3099.09,13333.9 L-3156.19,13319.6 L-3211.6,13299.8 L-3264.81,13274.6 L-3315.29,13244.3 L-3362.57,13209.3 L-3406.18,13169.7 L-3445.71,13126.1 L-3480.77,13078.9 L-3511.03,13028.4 L-3536.19,12975.2 L-3556.02,12919.8 L-3570.32,12862.7 L-3578.96,12804.4 L-3581.85,12745.7 L-3578.96,12686.9 L-3570.32,12628.6 L-3556.02,12571.5 L-3536.19,12516.1 L-3511.03,12462.9 L-3480.77,12412.4 L-3445.71,12365.2 L-3406.18,12321.6 L-3362.57,12282 L-3315.29,12247 L-3264.81,12216.7 L-3211.6,12191.5 L-3156.19,12171.7 L-3099.09,12157.4 L-3040.87,12148.8 L-2982.09,12145.9 L-2923.3,12148.8 L-2865.08,12157.4 L-2807.99,12171.7 L-2752.57,12191.5 L-2699.36,12216.7 L-2648.88,12247 L-2601.6,12282 L-2557.99,12321.6 L-2518.47,12365.2 L-2483.41,12412.4 L-2453.15,12462.9 L-2427.98,12516.1 L-2408.15,12571.5 L-2393.85,12628.6 L-2385.22,12686.9 L-2382.33,12745.7 M-2382.33,-12254.3 L-2385.22,-12195.6 L-2393.85,-12137.3 L-2408.15,-12080.2 L-2427.98,-12024.8 L-2453.15,-11971.6 L-2483.41,-11921.1 L-2518.47,-11873.9 L-2557.99,-11830.3 L-2601.6,-11790.7 L-2648.88,-11755.7 L-2699.36,-11725.4 L-2752.57,-11700.2 L-2807.99,-11680.4 L-2865.08,-11666.1 L-2923.3,-11657.5 L-2982.09,-11654.6 L-3040.87,-11657.5 L-3099.09,-11666.1 L-3156.19,-11680.4 L-3211.6,-11700.2 L-3264.81,-11725.4 L-3315.29,-11755.7 L-3362.57,-11790.7 L-3406.18,-11830.3 L-3445.71,-11873.9 L-3480.77,-11921.1 L-3511.03,-11971.6 L-3536.19,-12024.8 L-3556.02,-12080.2 L-3570.32,-12137.3 L-3578.96,-12195.6 L-3581.85,-12254.3 L-3578.96,-12313.1 L-3570.32,-12371.4 L-3556.02,-12428.5 L-3536.19,-12483.9 L-3511.03,-12537.1 L-3480.77,-12587.6 L-3445.71,-12634.8 L-3406.18,-12678.4 L-3362.57,-12718 L-3315.29,-12753 L-3264.81,-12783.3 L-3211.6,-12808.5 L-3156.19,-12828.3 L-3099.09,-12842.6 L-3040.87,-12851.2 L-2982.09,-12854.1 L-2923.3,-12851.2 L-2865.08,-12842.6 L-2807.99,-12828.3 L-2752.57,-12808.5 L-2699.36,-12783.3 L-2648.88,-12753 L-2601.6,-12718 L-2557.99,-12678.4 L-2518.47,-12634.8 L-2483.41,-12587.6 L-2453.15,-12537.1 L-2427.98,-12483.9 L-2408.15,-12428.5 L-2393.85,-12371.4 L-2385.22,-12313.1 L-2382.33,-12254.3 M-2382.33,-37254.3 L-2385.22,-37195.6 L-2393.85,-37137.3 L-2408.15,-37080.2 L-2427.98,-37024.8 L-2453.15,-36971.6 L-2483.41,-36921.1 L-2518.47,-36873.9 L-2557.99,-36830.3 L-2601.6,-36790.7 L-2648.88,-36755.7 L-2699.36,-36725.4 L-2752.57,-36700.2 L-2807.99,-36680.4 L-2865.08,-36666.1 L-2923.3,-36657.5 L-2982.09,-36654.6 L-3040.87,-36657.5 L-3099.09,-36666.1 L-3156.19,-36680.4 L-3211.6,-36700.2 L-3264.81,-36725.4 L-3315.29,-36755.7 L-3362.57,-36790.7 L-3406.18,-36830.3 L-3445.71,-36873.9 L-3480.77,-36921.1 L-3511.03,-36971.6 L-3536.19,-37024.8 L-3556.02,-37080.2 L-3570.32,-37137.3 L-3578.96,-37195.6 L-3581.85,-37254.3 L-3578.96,-37313.1 L-3570.32,-37371.4 L-3556.02,-37428.5 L-3536.19,-37483.9 L-3511.03,-37537.1 L-3480.77,-37587.6 L-3445.71,-37634.8 L-3406.18,-37678.4 L-3362.57,-37718 L-3315.29,-37753 L-3264.81,-37783.3 L-3211.6,-37808.5 L-3156.19,-37828.3 L-3099.09,-37842.6 L-3040.87,-37851.2 L-2982.09,-37854.1 L-2923.3,-37851.2 L-2865.08,-37842.6 L-2807.99,-37828.3 L-2752.57,-37808.5 L-2699.36,-37783.3 L-2648.88,-37753 L-2601.6,-37718 L-2557.99,-37678.4 L-2518.47,-37634.8 L-2483.41,-37587.6 L-2453.15,-37537.1 L-2427.98,-37483.9 L-2408.15,-37428.5 L-2393.85,-37371.4 L-2385.22,-37313.1 L-2382.33,-37254.3"/>
</g>

<g fill="none" stroke="#000000" stroke-opacity="1" stroke-width="1" stroke-linecap="square" stroke-linejoin="bevel" transform="matrix(1,0,0,-1,4832.59,14596.2)"
font-family="MS Shell Dlg 2" font-size="10.3125" font-weight="400" font-style="normal" 
>
</g>

<g fill="none" stroke="#000000" stroke-opacity="1" stroke-width="1" stroke-linecap="square" stroke-linejoin="bevel" transform="matrix(1,0,0,-1,4832.59,14596.2)"
font-family="MS Shell Dlg 2" font-size="10.3125" font-weight="400" font-style="normal" 
>
</g>

<g fill="#ae5151" fill-opacity="0.2" stroke="#333333" stroke-opacity="1" stroke-width="1" stroke-linecap="round" stroke-linejoin="round" transform="matrix(1,0,0,-1,4832.59,14596.2)"
font-family="MS Shell Dlg 2" font-size="10.3125" font-weight="400" font-style="normal" 
>
<path vector-effect="non-scaling-stroke" fill-rule="evenodd" d="M-4632.09,-39104.3 L-4708.62,-39089.1 L-4773.51,-39045.8 L-4816.86,-38980.9 L-4832.09,-38904.3 L-4832.09,14395.7 L-4816.86,14472.2 L-4773.51,14537.1 L-4708.62,14580.4 L-4632.09,14595.7 L23667.9,14595.7 L23744.5,14580.4 L23809.3,14537.1 L23852.7,14472.2 L23867.9,14395.7 L23867.9,-38904.3 L23852.7,-38980.9 L23809.3,-39045.8 L23744.5,-39089.1 L23667.9,-39104.3 L-4632.09,-39104.3 M22617.7,-37254.3 L22614.8,-37195.6 L22606.1,-37137.3 L22591.8,-37080.2 L22572,-37024.8 L22546.9,-36971.6 L22516.6,-36921.1 L22481.5,-36873.9 L22442,-36830.3 L22398.4,-36790.7 L22351.1,-36755.7 L22300.6,-36725.4 L22247.4,-36700.2 L22192,-36680.4 L22134.9,-36666.1 L22076.7,-36657.5 L22017.9,-36654.6 L21959.1,-36657.5 L21900.9,-36666.1 L21843.8,-36680.4 L21788.4,-36700.2 L21735.2,-36725.4 L21684.7,-36755.7 L21637.4,-36790.7 L21593.8,-36830.3 L21554.3,-36873.9 L21519.2,-36921.1 L21489,-36971.6 L21463.8,-37024.8 L21444,-37080.2 L21429.7,-37137.3 L21421,-37195.6 L21418.2,-37254.3 L21421,-37313.1 L21429.7,-37371.4 L21444,-37428.5 L21463.8,-37483.9 L21489,-37537.1 L21519.2,-37587.6 L21554.3,-37634.8 L21593.8,-37678.4 L21637.4,-37718 L21684.7,-37753 L21735.2,-37783.3 L21788.4,-37808.5 L21843.8,-37828.3 L21900.9,-37842.6 L21959.1,-37851.2 L22017.9,-37854.1 L22076.7,-37851.2 L22134.9,-37842.6 L22192,-37828.3 L22247.4,-37808.5 L22300.6,-37783.3 L22351.1,-37753 L22398.4,-37718 L22442,-37678.4 L22481.5,-37634.8 L22516.6,-37587.6 L22546.9,-37537.1 L22572,-37483.9 L22591.8,-37428.5 L22606.1,-37371.4 L22614.8,-37313.1 L22617.7,-37254.3 M22617.7,-12254.3 L22614.8,-12195.6 L22606.1,-12137.3 L22591.8,-12080.2 L22572,-12024.8 L22546.9,-11971.6 L22516.6,-11921.1 L22481.5,-11873.9 L22442,-11830.3 L22398.4,-11790.7 L22351.1,-11755.7 L22300.6,-11725.4 L22247.4,-11700.2 L22192,-11680.4 L22134.9,-11666.1 L22076.7,-11657.5 L22017.9,-11654.6 L21959.1,-11657.5 L21900.9,-11666.1 L21843.8,-11680.4 L21788.4,-11700.2 L21735.2,-11725.4 L21684.7,-11755.7 L21637.4,-11790.7 L21593.8,-11830.3 L21554.3,-11873.9 L21519.2,-11921.1 L21489,-11971.6 L21463.8,-12024.8 L21444,-12080.2 L21429.7,-12137.3 L21421,-12195.6 L21418.2,-12254.3 L21421,-12313.1 L21429.7,-12371.4 L21444,-12428.5 L21463.8,-12483.9 L21489,-12537.1 L21519.2,-12587.6 L21554.3,-12634.8 L21593.8,-12678.4 L21637.4,-12718 L21684.7,-12753 L21735.2,-12783.3 L21788.4,-12808.5 L21843.8,-12828.3 L21900.9,-12842.6 L21959.1,-12851.2 L22017.9,-12854.1 L22076.7,-12851.2 L22134.9,-12842.6 L22192,-12828.3 L22247.4,-12808.5 L22300.6,-12783.3 L22351.1,-12753 L22398.4,-12718 L22442,-12678.4 L22481.5,-12634.8 L22516.6,-12587.6 L22546.9,-12537.1 L22572,-12483.9 L22591.8,-12428.5 L22606.1,-12371.4 L22614.8,-12313.1 L22617.7,-12254.3 M22617.7,12745.7 L22614.8,12804.4 L22606.1,12862.7 L22591.8,12919.8 L22572,12975.2 L22546.9,13028.4 L22516.6,13078.9 L22481.5,13126.1 L22442,13169.7 L22398.4,13209.3 L22351.1,13244.3 L22300.6,13274.6 L22247.4,13299.8 L22192,13319.6 L22134.9,13333.9 L22076.7,13342.5 L22017.9,13345.4 L21959.1,13342.5 L21900.9,13333.9 L21843.8,13319.6 L21788.4,13299.8 L21735.2,13274.6 L21684.7,13244.3 L21637.4,13209.3 L21593.8,13169.7 L21554.3,13126.1 L21519.2,13078.9 L21489,13028.4 L21463.8,12975.2 L21444,12919.8 L21429.7,12862.7 L21421,12804.4 L21418.2,12745.7 L21421,12686.9 L21429.7,12628.6 L21444,12571.5 L21463.8,12516.1 L21489,12462.9 L21519.2,12412.4 L21554.3,12365.2 L21593.8,12321.6 L21637.4,12282 L21684.7,12247 L21735.2,12216.7 L21788.4,12191.5 L21843.8,12171.7 L21900.9,12157.4 L21959.1,12148.8 L22017.9,12145.9 L22076.7,12148.8 L22134.9,12157.4 L22192,12171.7 L22247.4,12191.5 L22300.6,12216.7 L22351.1,12247 L22398.4,12282 L22442,12321.6 L22481.5,12365.2 L22516.6,12412.4 L22546.9,12462.9 L22572,12516.1 L22591.8,12571.5 L22606.1,12628.6 L22614.8,12686.9 L22617.7,12745.7 M-2382.33,12745.7 L-2385.22,12804.4 L-2393.85,12862.7 L-2408.15,12919.8 L-2427.98,12975.2 L-2453.15,13028.4 L-2483.41,13078.9 L-2518.47,13126.1 L-2557.99,13169.7 L-2601.6,13209.3 L-2648.88,13244.3 L-2699.36,13274.6 L-2752.57,13299.8 L-2807.99,13319.6 L-2865.08,13333.9 L-2923.3,13342.5 L-2982.09,13345.4 L-3040.87,13342.5 L-3099.09,13333.9 L-3156.19,13319.6 L-3211.6,13299.8 L-3264.81,13274.6 L-3315.29,13244.3 L-3362.57,13209.3 L-3406.18,13169.7 L-3445.71,13126.1 L-3480.77,13078.9 L-3511.03,13028.4 L-3536.19,12975.2 L-3556.02,12919.8 L-3570.32,12862.7 L-3578.96,12804.4 L-3581.85,12745.7 L-3578.96,12686.9 L-3570.32,12628.6 L-3556.02,12571.5 L-3536.19,12516.1 L-3511.03,12462.9 L-3480.77,12412.4 L-3445.71,12365.2 L-3406.18,12321.6 L-3362.57,12282 L-3315.29,12247 L-3264.81,12216.7 L-3211.6,12191.5 L-3156.19,12171.7 L-3099.09,12157.4 L-3040.87,12148.8 L-2982.09,12145.9 L-2923.3,12148.8 L-2865.08,12157.4 L-2807.99,12171.7 L-2752.57,12191.5 L-2699.36,12216.7 L-2648.88,12247 L-2601.6,12282 L-2557.99,12321.6 L-2518.47,12365.2 L-2483.41,12412.4 L-2453.15,12462.9 L-2427.98,12516.1 L-2408.15,12571.5 L-2393.85,12628.6 L-2385.22,12686.9 L-2382.33,12745.7 M-2382.33,-12254.3 L-2385.22,-12195.6 L-2393.85,-12137.3 L-2408.15,-12080.2 L-2427.98,-12024.8 L-2453.15,-11971.6 L-2483.41,-11921.1 L-2518.47,-11873.9 L-2557.99,-11830.3 L-2601.6,-11790.7 L-2648.88,-11755.7 L-2699.36,-11725.4 L-2752.57,-11700.2 L-2807.99,-11680.4 L-2865.08,-11666.1 L-2923.3,-11657.5 L-2982.09,-11654.6 L-3040.87,-11657.5 L-3099.09,-11666.1 L-3156.19,-11680.4 L-3211.6,-11700.2 L-3264.81,-11725.4 L-3315.29,-11755.7 L-3362.57,-11790.7 L-3406.18,-11830.3 L-3445.71,-11873.9 L-3480.77,-11921.1 L-3511.03,-11971.6 L-3536.19,-12024.8 L-3556.02,-12080.2 L-3570.32,-12137.3 L-3578.96,-12195.6 L-3581.85,-12254.3 L-3578.96,-12313.1 L-3570.32,-12371.4 L-3556.02,-12428.5 L-3536.19,-12483.9 L-3511.03,-12537.1 L-3480.77,-12587.6 L-3445.71,-12634.8 L-3406.18,-12678.4 L-3362.57,-12718 L-3315.29,-12753 L-3264.81,-12783.3 L-3211.6,-12808.5 L-3156.19,-12828.3 L-3099.09,-12842.6 L-3040.87,-12851.2 L-2982.09,-12854.1 L-2923.3,-12851.2 L-2865.08,-12842.6 L-2807.99,-12828.3 L-2752.57,-12808.5 L-2699.36,-12783.3 L-2648.88,-12753 L-2601.6,-12718 L-2557.99,-12678.4 L-2518.47,-12634.8 L-2483.41,-12587.6 L-2453.15,-12537.1 L-2427.98,-12483.9 L-2408.15,-12428.5 L-2393.85,-12371.4 L-2385.22,-12313.1 L-2382.33,-12254.3 M-2382.33,-37254.3 L-2385.22,-37195.6 L-2393.85,-37137.3 L-2408.15,-37080.2 L-2427.98,-37024.8 L-2453.15,-36971.6 L-2483.41,-36921.1 L-2518.47,-36873.9 L-2557.99,-36830.3 L-2601.6,-36790.7 L-2648.88,-36755.7 L-2699.36,-36725.4 L-2752.57,-36700.2 L-2807.99,-36680.4 L-2865.08,-36666.1 L-2923.3,-36657.5 L-2982.09,-36654.6 L-3040.87,-36657.5 L-3099.09,-36666.1 L-3156.19,-36680.4 L-3211.6,-36700.2 L-3264.81,-36725.4 L-3315.29,-36755.7 L-3362.57,-36790.7 L-3406.18,-36830.3 L-3445.71,-36873.9 L-3480.77,-36921.1 L-3511.03,-36971.6 L-3536.19,-37024.8 L-3556.02,-37080.2 L-3570.32,-37137.3 L-3578.96,-37195.6 L-3581.85,-37254.3 L-3578.96,-37313.1 L-3570.32,-37371.4 L-3556.02,-37428.5 L-3536.19,-37483.9 L-3511.03,-37537.1 L-3480.77,-37587.6 L-3445.71,-37634.8 L-3406.18,-37678.4 L-3362.57,-37718 L-3315.29,-37753 L-3264.81,-37783.3 L-3211.6,-37808.5 L-3156.19,-37828.3 L-3099.09,-37842.6 L-3040.87,-37851.2 L-2982.09,-37854.1 L-2923.3,-37851.2 L-2865.08,-37842.6 L-2807.99,-37828.3 L-2752.57,-37808.5 L-2699.36,-37783.3 L-2648.88,-37753 L-2601.6,-37718 L-2557.99,-37678.4 L-2518.47,-37634.8 L-2483.41,-37587.6 L-2453.15,-37537.1 L-2427.98,-37483.9 L-2408.15,-37428.5 L-2393.85,-37371.4 L-2385.22,-37313.1 L-2382.33,-37254.3"/>
</g>

<g fill="none" stroke="#000000" stroke-opacity="1" stroke-width="1" stroke-linecap="square" stroke-linejoin="bevel" transform="matrix(1,0,0,-1,4832.59,14596.2)"
font-family="MS Shell Dlg 2" font-size="10.3125" font-weight="400" font-style="normal" 
>
</g>

<g fill="none" stroke="#000000" stroke-opacity="1" stroke-width="1" stroke-linecap="square" stroke-linejoin="bevel" transform="matrix(1,0,0,-1,4832.59,14596.2)"
font-family="MS Shell Dlg 2" font-size="10.3125" font-weight="400" font-style="normal" 
>
</g>

<g fill="#ffff00" fill-opacity="0.2" stroke="#333333" stroke-opacity="1" stroke-width="1" stroke-linecap="round" stroke-linejoin="round" transform="matrix(1,0,0,-1,4832.59,14596.2)"
font-family="MS Shell Dlg 2" font-size="10.3125" font-weight="400" font-style="normal" 
>
<path vector-effect="non-scaling-stroke" fill-rule="evenodd" d="M-4632.09,-39104.3 L-4708.62,-39089.1 L-4773.51,-39045.8 L-4816.86,-38980.9 L-4832.09,-38904.3 L-4832.09,14395.7 L-4816.86,14472.2 L-4773.51,14537.1 L-4708.62,14580.4 L-4632.09,14595.7 L23667.9,14595.7 L23744.5,14580.4 L23809.3,14537.1 L23852.7,14472.2 L23867.9,14395.7 L23867.9,-38904.3 L23852.7,-38980.9 L23809.3,-39045.8 L23744.5,-39089.1 L23667.9,-39104.3 L-4632.09,-39104.3 M22617.7,-37254.3 L22614.8,-37195.6 L22606.1,-37137.3 L22591.8,-37080.2 L22572,-37024.8 L22546.9,-36971.6 L22516.6,-36921.1 L22481.5,-36873.9 L22442,-36830.3 L22398.4,-36790.7 L22351.1,-36755.7 L22300.6,-36725.4 L22247.4,-36700.2 L22192,-36680.4 L22134.9,-36666.1 L22076.7,-36657.5 L22017.9,-36654.6 L21959.1,-36657.5 L21900.9,-36666.1 L21843.8,-36680.4 L21788.4,-36700.2 L21735.2,-36725.4 L21684.7,-36755.7 L21637.4,-36790.7 L21593.8,-36830.3 L21554.3,-36873.9 L21519.2,-36921.1 L21489,-36971.6 L21463.8,-37024.8 L21444,-37080.2 L21429.7,-37137.3 L21421,-37195.6 L21418.2,-37254.3 L21421,-37313.1 L21429.7,-37371.4 L21444,-37428.5 L21463.8,-37483.9 L21489,-37537.1 L21519.2,-37587.6 L21554.3,-37634.8 L21593.8,-37678.4 L21637.4,-37718 L21684.7,-37753 L21735.2,-37783.3 L21788.4,-37808.5 L21843.8,-37828.3 L21900.9,-37842.6 L21959.1,-37851.2 L22017.9,-37854.1 L22076.7,-37851.2 L22134.9,-37842.6 L22192,-37828.3 L22247.4,-37808.5 L22300.6,-37783.3 L22351.1,-37753 L22398.4,-37718 L22442,-37678.4 L22481.5,-37634.8 L22516.6,-37587.6 L22546.9,-37537.1 L22572,-37483.9 L22591.8,-37428.5 L22606.1,-37371.4 L22614.8,-37313.1 L22617.7,-37254.3 M22617.7,-12254.3 L22614.8,-12195.6 L22606.1,-12137.3 L22591.8,-12080.2 L22572,-12024.8 L22546.9,-11971.6 L22516.6,-11921.1 L22481.5,-11873.9 L22442,-11830.3 L22398.4,-11790.7 L22351.1,-11755.7 L22300.6,-11725.4 L22247.4,-11700.2 L22192,-11680.4 L22134.9,-11666.1 L22076.7,-11657.5 L22017.9,-11654.6 L21959.1,-11657.5 L21900.9,-11666.1 L21843.8,-11680.4 L21788.4,-11700.2 L21735.2,-11725.4 L21684.7,-11755.7 L21637.4,-11790.7 L21593.8,-11830.3 L21554.3,-11873.9 L21519.2,-11921.1 L21489,-11971.6 L21463.8,-12024.8 L21444,-12080.2 L21429.7,-12137.3 L21421,-12195.6 L21418.2,-12254.3 L21421,-12313.1 L21429.7,-12371.4 L21444,-12428.5 L21463.8,-12483.9 L21489,-12537.1 L21519.2,-12587.6 L21554.3,-12634.8 L21593.8,-12678.4 L21637.4,-12718 L21684.7,-12753 L21735.2,-12783.3 L21788.4,-12808.5 L21843.8,-12828.3 L21900.9,-12842.6 L21959.1,-12851.2 L22017.9,-12854.1 L22076.7,-12851.2 L22134.9,-12842.6 L22192,-12828.3 L22247.4,-12808.5 L22300.6,-12783.3 L22351.1,-12753 L22398.4,-12718 L22442,-12678.4 L22481.5,-12634.8 L22516.6,-12587.6 L22546.9,-12537.1 L22572,-12483.9 L22591.8,-12428.5 L22606.1,-12371.4 L22614.8,-12313.1 L22617.7,-12254.3 M22617.7,12745.7 L22614.8,12804.4 L22606.1,12862.7 L22591.8,12919.8 L22572,12975.2 L22546.9,13028.4 L22516.6,13078.9 L22481.5,13126.1 L22442,13169.7 L22398.4,13209.3 L22351.1,13244.3 L22300.6,13274.6 L22247.4,13299.8 L22192,13319.6 L22134.9,13333.9 L22076.7,13342.5 L22017.9,13345.4 L21959.1,13342.5 L21900.9,13333.9 L21843.8,13319.6 L21788.4,13299.8 L21735.2,13274.6 L21684.7,13244.3 L21637.4,13209.3 L21593.8,13169.7 L21554.3,13126.1 L21519.2,13078.9 L21489,13028.4 L21463.8,12975.2 L21444,12919.8 L21429.7,12862.7 L21421,12804.4 L21418.2,12745.7 L21421,12686.9 L21429.7,12628.6 L21444,12571.5 L21463.8,12516.1 L21489,12462.9 L21519.2,12412.4 L21554.3,12365.2 L21593.8,12321.6 L21637.4,12282 L21684.7,12247 L21735.2,12216.7 L21788.4,12191.5 L21843.8,12171.7 L21900.9,12157.4 L21959.1,12148.8 L22017.9,12145.9 L22076.7,12148.8 L22134.9,12157.4 L22192,12171.7 L22247.4,12191.5 L22300.6,12216.7 L22351.1,12247 L22398.4,12282 L22442,12321.6 L22481.5,12365.2 L22516.6,12412.4 L22546.9,12462.9 L22572,12516.1 L22591.8,12571.5 L22606.1,12628.6 L22614.8,12686.9 L22617.7,12745.7 M-2382.33,12745.7 L-2385.22,12804.4 L-2393.85,12862.7 L-2408.15,12919.8 L-2427.98,12975.2 L-2453.15,13028.4 L-2483.41,13078.9 L-2518.47,13126.1 L-2557.99,13169.7 L-2601.6,13209.3 L-2648.88,13244.3 L-2699.36,13274.6 L-2752.57,13299.8 L-2807.99,13319.6 L-2865.08,13333.9 L-2923.3,13342.5 L-2982.09,13345.4 L-3040.87,13342.5 L-3099.09,13333.9 L-3156.19,13319.6 L-3211.6,13299.8 L-3264.81,13274.6 L-3315.29,13244.3 L-3362.57,13209.3 L-3406.18,13169.7 L-3445.71,13126.1 L-3480.77,13078.9 L-3511.03,13028.4 L-3536.19,12975.2 L-3556.02,12919.8 L-3570.32,12862.7 L-3578.96,12804.4 L-3581.85,12745.7 L-3578.96,12686.9 L-3570.32,12628.6 L-3556.02,12571.5 L-3536.19,12516.1 L-3511.03,12462.9 L-3480.77,12412.4 L-3445.71,12365.2 L-3406.18,12321.6 L-3362.57,12282 L-3315.29,12247 L-3264.81,12216.7 L-3211.6,12191.5 L-3156.19,12171.7 L-3099.09,12157.4 L-3040.87,12148.8 L-2982.09,12145.9 L-2923.3,12148.8 L-2865.08,12157.4 L-2807.99,12171.7 L-2752.57,12191.5 L-2699.36,12216.7 L-2648.88,12247 L-2601.6,12282 L-2557.99,12321.6 L-2518.47,12365.2 L-2483.41,12412.4 L-2453.15,12462.9 L-2427.98,12516.1 L-2408.15,12571.5 L-2393.85,12628.6 L-2385.22,12686.9 L-2382.33,12745.7 M-2382.33,-12254.3 L-2385.22,-12195.6 L-2393.85,-12137.3 L-2408.15,-12080.2 L-2427.98,-12024.8 L-2453.15,-11971.6 L-2483.41,-11921.1 L-2518.47,-11873.9 L-2557.99,-11830.3 L-2601.6,-11790.7 L-2648.88,-11755.7 L-2699.36,-11725.4 L-2752.57,-11700.2 L-2807.99,-11680.4 L-2865.08,-11666.1 L-2923.3,-11657.5 L-2982.09,-11654.6 L-3040.87,-11657.5 L-3099.09,-11666.1 L-3156.19,-11680.4 L-3211.6,-11700.2 L-3264.81,-11725.4 L-3315.29,-11755.7 L-3362.57,-11790.7 L-3406.18,-11830.3 L-3445.71,-11873.9 L-3480.77,-11921.1 L-3511.03,-11971.6 L-3536.19,-12024.8 L-3556.02,-12080.2 L-3570.32,-12137.3 L-3578.96,-12195.6 L-3581.85,-12254.3 L-3578.96,-12313.1 L-3570.32,-12371.4 L-3556.02,-12428.5 L-3536.19,-12483.9 L-3511.03,-12537.1 L-3480.77,-12587.6 L-3445.71,-12634.8 L-3406.18,-12678.4 L-3362.57,-12718 L-3315.29,-12753 L-3264.81,-12783.3 L-3211.6,-12808.5 L-3156.19,-12828.3 L-3099.09,-12842.6 L-3040.87,-12851.2 L-2982.09,-12854.1 L-2923.3,-12851.2 L-2865.08,-12842.6 L-2807.99,-12828.3 L-2752.57,-12808.5 L-2699.36,-12783.3 L-2648.88,-12753 L-2601.6,-12718 L-2557.99,-12678.4 L-2518.47,-12634.8 L-2483.41,-12587.6 L-2453.15,-12537.1 L-2427.98,-12483.9 L-2408.15,-12428.5 L-2393.85,-12371.4 L-2385.22,-12313.1 L-2382.33,-12254.3 M-2382.33,-37254.3 L-2385.22,-37195.6 L-2393.85,-37137.3 L-2408.15,-37080.2 L-2427.98,-37024.8 L-2453.15,-36971.6 L-2483.41,-36921.1 L-2518.47,-36873.9 L-2557.99,-36830.3 L-2601.6,-36790.7 L-2648.88,-36755.7 L-2699.36,-36725.4 L-2752.57,-36700.2 L-2807.99,-36680.4 L-2865.08,-36666.1 L-2923.3,-36657.5 L-2982.09,-36654.6 L-3040.87,-36657.5 L-3099.09,-36666.1 L-3156.19,-36680.4 L-3211.6,-36700.2 L-3264.81,-36725.4 L-3315.29,-36755.7 L-3362.57,-36790.7 L-3406.18,-36830.3 L-3445.71,-36873.9 L-3480.77,-36921.1 L-3511.03,-36971.6 L-3536.19,-37024.8 L-3556.02,-37080.2 L-3570.32,-37137.3 L-3578.96,-37195.6 L-3581.85,-37254.3 L-3578.96,-37313.1 L-3570.32,-37371.4 L-3556.02,-37428.5 L-3536.19,-37483.9 L-3511.03,-37537.1 L-3480.77,-37587.6 L-3445.71,-37634.8 L-3406.18,-37678.4 L-3362.57,-37718 L-3315.29,-37753 L-3264.81,-37783.3 L-3211.6,-37808.5 L-3156.19,-37828.3 L-3099.09,-37842.6 L-3040.87,-37851.2 L-2982.09,-37854.1 L-2923.3,-37851.2 L-2865.08,-37842.6 L-2807.99,-37828.3 L-2752.57,-37808.5 L-2699.36,-37783.3 L-2648.88,-37753 L-2601.6,-37718 L-2557.99,-37678.4 L-2518.47,-37634.8 L-2483.41,-37587.6 L-2453.15,-37537.1 L-2427.98,-37483.9 L-2408.15,-37428.5 L-2393.85,-37371.4 L-2385.22,-37313.1 L-2382.33,-37254.3"/>
</g>

<g fill="none" stroke="#000000" stroke-opacity="1" stroke-width="1" stroke-linecap="square" stroke-linejoin="bevel" transform="matrix(1,0,0,-1,4832.59,14596.2)"
font-family="MS Shell Dlg 2" font-size="10.3125" font-weight="400" font-style="normal" 
>
</g>

<g fill="none" stroke="#000000" stroke-opacity="1" stroke-width="1" stroke-linecap="square" stroke-linejoin="bevel" transform="matrix(1,0,0,-1,4832.59,14596.2)"
font-family="MS Shell Dlg 2" font-size="10.3125" font-weight="400" font-style="normal" 
>
</g>

<g fill="#ae5151" fill-opacity="0.2" stroke="#333333" stroke-opacity="1" stroke-width="1" stroke-linecap="round" stroke-linejoin="round" transform="matrix(1,0,0,-1,4832.59,14596.2)"
font-family="MS Shell Dlg 2" font-size="10.3125" font-weight="400" font-style="normal" 
>
<path vector-effect="non-scaling-stroke" fill-rule="evenodd" d="M-4632.09,-39104.3 L-4708.62,-39089.1 L-4773.51,-39045.8 L-4816.86,-38980.9 L-4832.09,-38904.3 L-4832.09,14395.7 L-4816.86,14472.2 L-4773.51,14537.1 L-4708.62,14580.4 L-4632.09,14595.7 L23667.9,14595.7 L23744.5,14580.4 L23809.3,14537.1 L23852.7,14472.2 L23867.9,14395.7 L23867.9,-38904.3 L23852.7,-38980.9 L23809.3,-39045.8 L23744.5,-39089.1 L23667.9,-39104.3 L-4632.09,-39104.3 M22617.7,-37254.3 L22614.8,-37195.6 L22606.1,-37137.3 L22591.8,-37080.2 L22572,-37024.8 L22546.9,-36971.6 L22516.6,-36921.1 L22481.5,-36873.9 L22442,-36830.3 L22398.4,-36790.7 L22351.1,-36755.7 L22300.6,-36725.4 L22247.4,-36700.2 L22192,-36680.4 L22134.9,-36666.1 L22076.7,-36657.5 L22017.9,-36654.6 L21959.1,-36657.5 L21900.9,-36666.1 L21843.8,-36680.4 L21788.4,-36700.2 L21735.2,-36725.4 L21684.7,-36755.7 L21637.4,-36790.7 L21593.8,-36830.3 L21554.3,-36873.9 L21519.2,-36921.1 L21489,-36971.6 L21463.8,-37024.8 L21444,-37080.2 L21429.7,-37137.3 L21421,-37195.6 L21418.2,-37254.3 L21421,-37313.1 L21429.7,-37371.4 L21444,-37428.5 L21463.8,-37483.9 L21489,-37537.1 L21519.2,-37587.6 L21554.3,-37634.8 L21593.8,-37678.4 L21637.4,-37718 L21684.7,-37753 L21735.2,-37783.3 L21788.4,-37808.5 L21843.8,-37828.3 L21900.9,-37842.6 L21959.1,-37851.2 L22017.9,-37854.1 L22076.7,-37851.2 L22134.9,-37842.6 L22192,-37828.3 L22247.4,-37808.5 L22300.6,-37783.3 L22351.1,-37753 L22398.4,-37718 L22442,-37678.4 L22481.5,-37634.8 L22516.6,-37587.6 L22546.9,-37537.1 L22572,-37483.9 L22591.8,-37428.5 L22606.1,-37371.4 L22614.8,-37313.1 L22617.7,-37254.3 M22617.7,-12254.3 L22614.8,-12195.6 L22606.1,-12137.3 L22591.8,-12080.2 L22572,-12024.8 L22546.9,-11971.6 L22516.6,-11921.1 L22481.5,-11873.9 L22442,-11830.3 L22398.4,-11790.7 L22351.1,-11755.7 L22300.6,-11725.4 L22247.4,-11700.2 L22192,-11680.4 L22134.9,-11666.1 L22076.7,-11657.5 L22017.9,-11654.6 L21959.1,-11657.5 L21900.9,-11666.1 L21843.8,-11680.4 L21788.4,-11700.2 L21735.2,-11725.4 L21684.7,-11755.7 L21637.4,-11790.7 L21593.8,-11830.3 L21554.3,-11873.9 L21519.2,-11921.1 L21489,-11971.6 L21463.8,-12024.8 L21444,-12080.2 L21429.7,-12137.3 L21421,-12195.6 L21418.2,-12254.3 L21421,-12313.1 L21429.7,-12371.4 L21444,-12428.5 L21463.8,-12483.9 L21489,-12537.1 L21519.2,-12587.6 L21554.3,-12634.8 L21593.8,-12678.4 L21637.4,-12718 L21684.7,-12753 L21735.2,-12783.3 L21788.4,-12808.5 L21843.8,-12828.3 L21900.9,-12842.6 L21959.1,-12851.2 L22017.9,-12854.1 L22076.7,-12851.2 L22134.9,-12842.6 L22192,-12828.3 L22247.4,-12808.5 L22300.6,-12783.3 L22351.1,-12753 L22398.4,-12718 L22442,-12678.4 L22481.5,-12634.8 L22516.6,-12587.6 L22546.9,-12537.1 L22572,-12483.9 L22591.8,-12428.5 L22606.1,-12371.4 L22614.8,-12313.1 L22617.7,-12254.3 M22617.7,12745.7 L22614.8,12804.4 L22606.1,12862.7 L22591.8,12919.8 L22572,12975.2 L22546.9,13028.4 L22516.6,13078.9 L22481.5,13126.1 L22442,13169.7 L22398.4,13209.3 L22351.1,13244.3 L22300.6,13274.6 L22247.4,13299.8 L22192,13319.6 L22134.9,13333.9 L22076.7,13342.5 L22017.9,13345.4 L21959.1,13342.5 L21900.9,13333.9 L21843.8,13319.6 L21788.4,13299.8 L21735.2,13274.6 L21684.7,13244.3 L21637.4,13209.3 L21593.8,13169.7 L21554.3,13126.1 L21519.2,13078.9 L21489,13028.4 L21463.8,12975.2 L21444,12919.8 L21429.7,12862.7 L21421,12804.4 L21418.2,12745.7 L21421,12686.9 L21429.7,12628.6 L21444,12571.5 L21463.8,12516.1 L21489,12462.9 L21519.2,12412.4 L21554.3,12365.2 L21593.8,12321.6 L21637.4,12282 L21684.7,12247 L21735.2,12216.7 L21788.4,12191.5 L21843.8,12171.7 L21900.9,12157.4 L21959.1,12148.8 L22017.9,12145.9 L22076.7,12148.8 L22134.9,12157.4 L22192,12171.7 L22247.4,12191.5 L22300.6,12216.7 L22351.1,12247 L22398.4,12282 L22442,12321.6 L22481.5,12365.2 L22516.6,12412.4 L22546.9,12462.9 L22572,12516.1 L22591.8,12571.5 L22606.1,12628.6 L22614.8,12686.9 L22617.7,12745.7 M-2382.33,12745.7 L-2385.22,12804.4 L-2393.85,12862.7 L-2408.15,12919.8 L-2427.98,12975.2 L-2453.15,13028.4 L-2483.41,13078.9 L-2518.47,13126.1 L-2557.99,13169.7 L-2601.6,13209.3 L-2648.88,13244.3 L-2699.36,13274.6 L-2752.57,13299.8 L-2807.99,13319.6 L-2865.08,13333.9 L-2923.3,13342.5 L-2982.09,13345.4 L-3040.87,13342.5 L-3099.09,13333.9 L-3156.19,13319.6 L-3211.6,13299.8 L-3264.81,13274.6 L-3315.29,13244.3 L-3362.57,13209.3 L-3406.18,13169.7 L-3445.71,13126.1 L-3480.77,13078.9 L-3511.03,13028.4 L-3536.19,12975.2 L-3556.02,12919.8 L-3570.32,12862.7 L-3578.96,12804.4 L-3581.85,12745.7 L-3578.96,12686.9 L-3570.32,12628.6 L-3556.02,12571.5 L-3536.19,12516.1 L-3511.03,12462.9 L-3480.77,12412.4 L-3445.71,12365.2 L-3406.18,12321.6 L-3362.57,12282 L-3315.29,12247 L-3264.81,12216.7 L-3211.6,12191.5 L-3156.19,12171.7 L-3099.09,12157.4 L-3040.87,12148.8 L-2982.09,12145.9 L-2923.3,12148.8 L-2865.08,12157.4 L-2807.99,12171.7 L-2752.57,12191.5 L-2699.36,12216.7 L-2648.88,12247 L-2601.6,12282 L-2557.99,12321.6 L-2518.47,12365.2 L-2483.41,12412.4 L-2453.15,12462.9 L-2427.98,12516.1 L-2408.15,12571.5 L-2393.85,12628.6 L-2385.22,12686.9 L-2382.33,12745.7 M-2382.33,-12254.3 L-2385.22,-12195.6 L-2393.85,-12137.3 L-2408.15,-12080.2 L-2427.98,-12024.8 L-2453.15,-11971.6 L-2483.41,-11921.1 L-2518.47,-11873.9 L-2557.99,-11830.3 L-2601.6,-11790.7 L-2648.88,-11755.7 L-2699.36,-11725.4 L-2752.57,-11700.2 L-2807.99,-11680.4 L-2865.08,-11666.1 L-2923.3,-11657.5 L-2982.09,-11654.6 L-3040.87,-11657.5 L-3099.09,-11666.1 L-3156.19,-11680.4 L-3211.6,-11700.2 L-3264.81,-11725.4 L-3315.29,-11755.7 L-3362.57,-11790.7 L-3406.18,-11830.3 L-3445.71,-11873.9 L-3480.77,-11921.1 L-3511.03,-11971.6 L-3536.19,-12024.8 L-3556.02,-12080.2 L-3570.32,-12137.3 L-3578.96,-12195.6 L-3581.85,-12254.3 L-3578.96,-12313.1 L-3570.32,-12371.4 L-3556.02,-12428.5 L-3536.19,-12483.9 L-3511.03,-12537.1 L-3480.77,-12587.6 L-3445.71,-12634.8 L-3406.18,-12678.4 L-3362.57,-12718 L-3315.29,-12753 L-3264.81,-12783.3 L-3211.6,-12808.5 L-3156.19,-12828.3 L-3099.09,-12842.6 L-3040.87,-12851.2 L-2982.09,-12854.1 L-2923.3,-12851.2 L-2865.08,-12842.6 L-2807.99,-12828.3 L-2752.57,-12808.5 L-2699.36,-12783.3 L-2648.88,-12753 L-2601.6,-12718 L-2557.99,-12678.4 L-2518.47,-12634.8 L-2483.41,-12587.6 L-2453.15,-12537.1 L-2427.98,-12483.9 L-2408.15,-12428.5 L-2393.85,-12371.4 L-2385.22,-12313.1 L-2382.33,-12254.3 M-2382.33,-37254.3 L-2385.22,-37195.6 L-2393.85,-37137.3 L-2408.15,-37080.2 L-2427.98,-37024.8 L-2453.15,-36971.6 L-2483.41,-36921.1 L-2518.47,-36873.9 L-2557.99,-36830.3 L-2601.6,-36790.7 L-2648.88,-36755.7 L-2699.36,-36725.4 L-2752.57,-36700.2 L-2807.99,-36680.4 L-2865.08,-36666.1 L-2923.3,-36657.5 L-2982.09,-36654.6 L-3040.87,-36657.5 L-3099.09,-36666.1 L-3156.19,-36680.4 L-3211.6,-36700.2 L-3264.81,-36725.4 L-3315.29,-36755.7 L-3362.57,-36790.7 L-3406.18,-36830.3 L-3445.71,-36873.9 L-3480.77,-36921.1 L-3511.03,-36971.6 L-3536.19,-37024.8 L-3556.02,-37080.2 L-3570.32,-37137.3 L-3578.96,-37195.6 L-3581.85,-37254.3 L-3578.96,-37313.1 L-3570.32,-37371.4 L-3556.02,-37428.5 L-3536.19,-37483.9 L-3511.03,-37537.1 L-3480.77,-37587.6 L-3445.71,-37634.8 L-3406.18,-37678.4 L-3362.57,-37718 L-3315.29,-37753 L-3264.81,-37783.3 L-3211.6,-37808.5 L-3156.19,-37828.3 L-3099.09,-37842.6 L-3040.87,-37851.2 L-2982.09,-37854.1 L-2923.3,-37851.2 L-2865.08,-37842.6 L-2807.99,-37828.3 L-2752.57,-37808.5 L-2699.36,-37783.3 L-2648.88,-37753 L-2601.6,-37718 L-2557.99,-37678.4 L-2518.47,-37634.8 L-2483.41,-37587.6 L-2453.15,-37537.1 L-2427.98,-37483.9 L-2408.15,-37428.5 L-2393.85,-37371.4 L-2385.22,-37313.1 L-2382.33,-37254.3"/>
</g>

<g fill="none" stroke="#000000" stroke-opacity="1" stroke-width="1" stroke-linecap="square" stroke-linejoin="bevel" transform="matrix(1,0,0,-1,4832.59,14596.2)"
font-family="MS Shell Dlg 2" font-size="10.3125" font-weight="400" font-style="normal" 
>
</g>

<g fill="none" stroke="#000000" stroke-opacity="1" stroke-width="1" stroke-linecap="square" stroke-linejoin="bevel" transform="matrix(1,0,0,-1,4832.59,14596.2)"
font-family="MS Shell Dlg 2" font-size="10.3125" font-weight="400" font-style="normal" 
>
</g>

<g fill="#333333" fill-opacity="0.2" stroke="#333333" stroke-opacity="1" stroke-width="1" stroke-linecap="round" stroke-linejoin="round" transform="matrix(1,0,0,-1,4832.59,14596.2)"
font-family="MS Shell Dlg 2" font-size="10.3125" font-weight="400" font-style="normal" 
>
<path vector-effect="non-scaling-stroke" fill-rule="evenodd" d="M-4632.09,-39104.3 L-4708.62,-39089.1 L-4773.51,-39045.8 L-4816.86,-38980.9 L-4832.09,-38904.3 L-4832.09,14395.7 L-4816.86,14472.2 L-4773.51,14537.1 L-4708.62,14580.4 L-4632.09,14595.7 L23667.9,14595.7 L23744.5,14580.4 L23809.3,14537.1 L23852.7,14472.2 L23867.9,14395.7 L23867.9,-38904.3 L23852.7,-38980.9 L23809.3,-39045.8 L23744.5,-39089.1 L23667.9,-39104.3 L-4632.09,-39104.3 M22617.7,-37254.3 L22614.8,-37195.6 L22606.1,-37137.3 L22591.8,-37080.2 L22572,-37024.8 L22546.9,-36971.6 L22516.6,-36921.1 L22481.5,-36873.9 L22442,-36830.3 L22398.4,-36790.7 L22351.1,-36755.7 L22300.6,-36725.4 L22247.4,-36700.2 L22192,-36680.4 L22134.9,-36666.1 L22076.7,-36657.5 L22017.9,-36654.6 L21959.1,-36657.5 L21900.9,-36666.1 L21843.8,-36680.4 L21788.4,-36700.2 L21735.2,-36725.4 L21684.7,-36755.7 L21637.4,-36790.7 L21593.8,-36830.3 L21554.3,-36873.9 L21519.2,-36921.1 L21489,-36971.6 L21463.8,-37024.8 L21444,-37080.2 L21429.7,-37137.3 L21421,-37195.6 L21418.2,-37254.3 L21421,-37313.1 L21429.7,-37371.4 L21444,-37428.5 L21463.8,-37483.9 L21489,-37537.1 L21519.2,-37587.6 L21554.3,-37634.8 L21593.8,-37678.4 L21637.4,-37718 L21684.7,-37753 L21735.2,-37783.3 L21788.4,-37808.5 L21843.8,-37828.3 L21900.9,-37842.6 L21959.1,-37851.2 L22017.9,-37854.1 L22076.7,-37851.2 L22134.9,-37842.6 L22192,-37828.3 L22247.4,-37808.5 L22300.6,-37783.3 L22351.1,-37753 L22398.4,-37718 L22442,-37678.4 L22481.5,-37634.8 L22516.6,-37587.6 L22546.9,-37537.1 L22572,-37483.9 L22591.8,-37428.5 L22606.1,-37371.4 L22614.8,-37313.1 L22617.7,-37254.3 M22617.7,-12254.3 L22614.8,-12195.6 L22606.1,-12137.3 L22591.8,-12080.2 L22572,-12024.8 L22546.9,-11971.6 L22516.6,-11921.1 L22481.5,-11873.9 L22442,-11830.3 L22398.4,-11790.7 L22351.1,-11755.7 L22300.6,-11725.4 L22247.4,-11700.2 L22192,-11680.4 L22134.9,-11666.1 L22076.7,-11657.5 L22017.9,-11654.6 L21959.1,-11657.5 L21900.9,-11666.1 L21843.8,-11680.4 L21788.4,-11700.2 L21735.2,-11725.4 L21684.7,-11755.7 L21637.4,-11790.7 L21593.8,-11830.3 L21554.3,-11873.9 L21519.2,-11921.1 L21489,-11971.6 L21463.8,-12024.8 L21444,-12080.2 L21429.7,-12137.3 L21421,-12195.6 L21418.2,-12254.3 L21421,-12313.1 L21429.7,-12371.4 L21444,-12428.5 L21463.8,-12483.9 L21489,-12537.1 L21519.2,-12587.6 L21554.3,-12634.8 L21593.8,-12678.4 L21637.4,-12718 L21684.7,-12753 L21735.2,-12783.3 L21788.4,-12808.5 L21843.8,-12828.3 L21900.9,-12842.6 L21959.1,-12851.2 L22017.9,-12854.1 L22076.7,-12851.2 L22134.9,-12842.6 L22192,-12828.3 L22247.4,-12808.5 L22300.6,-12783.3 L22351.1,-12753 L22398.4,-12718 L22442,-12678.4 L22481.5,-12634.8 L22516.6,-12587.6 L22546.9,-12537.1 L22572,-12483.9 L22591.8,-12428.5 L22606.1,-12371.4 L22614.8,-12313.1 L22617.7,-12254.3 M22617.7,12745.7 L22614.8,12804.4 L22606.1,12862.7 L22591.8,12919.8 L22572,12975.2 L22546.9,13028.4 L22516.6,13078.9 L22481.5,13126.1 L22442,13169.7 L22398.4,13209.3 L22351.1,13244.3 L22300.6,13274.6 L22247.4,13299.8 L22192,13319.6 L22134.9,13333.9 L22076.7,13342.5 L22017.9,13345.4 L21959.1,13342.5 L21900.9,13333.9 L21843.8,13319.6 L21788.4,13299.8 L21735.2,13274.6 L21684.7,13244.3 L21637.4,13209.3 L21593.8,13169.7 L21554.3,13126.1 L21519.2,13078.9 L21489,13028.4 L21463.8,12975.2 L21444,12919.8 L21429.7,12862.7 L21421,12804.4 L21418.2,12745.7 L21421,12686.9 L21429.7,12628.6 L21444,12571.5 L21463.8,12516.1 L21489,12462.9 L21519.2,12412.4 L21554.3,12365.2 L21593.8,12321.6 L21637.4,12282 L21684.7,12247 L21735.2,12216.7 L21788.4,12191.5 L21843.8,12171.7 L21900.9,12157.4 L21959.1,12148.8 L22017.9,12145.9 L22076.7,12148.8 L22134.9,12157.4 L22192,12171.7 L22247.4,12191.5 L22300.6,12216.7 L22351.1,12247 L22398.4,12282 L22442,12321.6 L22481.5,12365.2 L22516.6,12412.4 L22546.9,12462.9 L22572,12516.1 L22591.8,12571.5 L22606.1,12628.6 L22614.8,12686.9 L22617.7,12745.7 M-2382.33,12745.7 L-2385.22,12804.4 L-2393.85,12862.7 L-2408.15,12919.8 L-2427.98,12975.2 L-2453.15,13028.4 L-2483.41,13078.9 L-2518.47,13126.1 L-2557.99,13169.7 L-2601.6,13209.3 L-2648.88,13244.3 L-2699.36,13274.6 L-2752.57,13299.8 L-2807.99,13319.6 L-2865.08,13333.9 L-2923.3,13342.5 L-2982.09,13345.4 L-3040.87,13342.5 L-3099.09,13333.9 L-3156.19,13319.6 L-3211.6,13299.8 L-3264.81,13274.6 L-3315.29,13244.3 L-3362.57,13209.3 L-3406.18,13169.7 L-3445.71,13126.1 L-3480.77,13078.9 L-3511.03,13028.4 L-3536.19,12975.2 L-3556.02,12919.8 L-3570.32,12862.7 L-3578.96,12804.4 L-3581.85,12745.7 L-3578.96,12686.9 L-3570.32,12628.6 L-3556.02,12571.5 L-3536.19,12516.1 L-3511.03,12462.9 L-3480.77,12412.4 L-3445.71,12365.2 L-3406.18,12321.6 L-3362.57,12282 L-3315.29,12247 L-3264.81,12216.7 L-3211.6,12191.5 L-3156.19,12171.7 L-3099.09,12157.4 L-3040.87,12148.8 L-2982.09,12145.9 L-2923.3,12148.8 L-2865.08,12157.4 L-2807.99,12171.7 L-2752.57,12191.5 L-2699.36,12216.7 L-2648.88,12247 L-2601.6,12282 L-2557.99,12321.6 L-2518.47,12365.2 L-2483.41,12412.4 L-2453.15,12462.9 L-2427.98,12516.1 L-2408.15,12571.5 L-2393.85,12628.6 L-2385.22,12686.9 L-2382.33,12745.7 M-2382.33,-12254.3 L-2385.22,-12195.6 L-2393.85,-12137.3 L-2408.15,-12080.2 L-2427.98,-12024.8 L-2453.15,-11971.6 L-2483.41,-11921.1 L-2518.47,-11873.9 L-2557.99,-11830.3 L-2601.6,-11790.7 L-2648.88,-11755.7 L-2699.36,-11725.4 L-2752.57,-11700.2 L-2807.99,-11680.4 L-2865.08,-11666.1 L-2923.3,-11657.5 L-2982.09,-11654.6 L-3040.87,-11657.5 L-3099.09,-11666.1 L-3156.19,-11680.4 L-3211.6,-11700.2 L-3264.81,-11725.4 L-3315.29,-11755.7 L-3362.57,-11790.7 L-3406.18,-11830.3 L-3445.71,-11873.9 L-3480.77,-11921.1 L-3511.03,-11971.6 L-3536.19,-12024.8 L-3556.02,-12080.2 L-3570.32,-12137.3 L-3578.96,-12195.6 L-3581.85,-12254.3 L-3578.96,-12313.1 L-3570.32,-12371.4 L-3556.02,-12428.5 L-3536.19,-12483.9 L-3511.03,-12537.1 L-3480.77,-12587.6 L-3445.71,-12634.8 L-3406.18,-12678.4 L-3362.57,-12718 L-3315.29,-12753 L-3264.81,-12783.3 L-3211.6,-12808.5 L-3156.19,-12828.3 L-3099.09,-12842.6 L-3040.87,-12851.2 L-2982.09,-12854.1 L-2923.3,-12851.2 L-2865.08,-12842.6 L-2807.99,-12828.3 L-2752.57,-12808.5 L-2699.36,-12783.3 L-2648.88,-12753 L-2601.6,-12718 L-2557.99,-12678.4 L-2518.47,-12634.8 L-2483.41,-12587.6 L-2453.15,-12537.1 L-2427.98,-12483.9 L-2408.15,-12428.5 L-2393.85,-12371.4 L-2385.22,-12313.1 L-2382.33,-12254.3 M-2382.33,-37254.3 L-2385.22,-37195.6 L-2393.85,-37137.3 L-2408.15,-37080.2 L-2427.98,-37024.8 L-2453.15,-36971.6 L-2483.41,-36921.1 L-2518.47,-36873.9 L-2557.99,-36830.3 L-2601.6,-36790.7 L-2648.88,-36755.7 L-2699.36,-36725.4 L-2752.57,-36700.2 L-2807.99,-36680.4 L-2865.08,-36666.1 L-2923.3,-36657.5 L-2982.09,-36654.6 L-3040.87,-36657.5 L-3099.09,-36666.1 L-3156.19,-36680.4 L-3211.6,-36700.2 L-3264.81,-36725.4 L-3315.29,-36755.7 L-3362.57,-36790.7 L-3406.18,-36830.3 L-3445.71,-36873.9 L-3480.77,-36921.1 L-3511.03,-36971.6 L-3536.19,-37024.8 L-3556.02,-37080.2 L-3570.32,-37137.3 L-3578.96,-37195.6 L-3581.85,-37254.3 L-3578.96,-37313.1 L-3570.32,-37371.4 L-3556.02,-37428.5 L-3536.19,-37483.9 L-3511.03,-37537.1 L-3480.77,-37587.6 L-3445.71,-37634.8 L-3406.18,-37678.4 L-3362.57,-37718 L-3315.29,-37753 L-3264.81,-37783.3 L-3211.6,-37808.5 L-3156.19,-37828.3 L-3099.09,-37842.6 L-3040.87,-37851.2 L-2982.09,-37854.1 L-2923.3,-37851.2 L-2865.08,-37842.6 L-2807.99,-37828.3 L-2752.57,-37808.5 L-2699.36,-37783.3 L-2648.88,-37753 L-2601.6,-37718 L-2557.99,-37678.4 L-2518.47,-37634.8 L-2483.41,-37587.6 L-2453.15,-37537.1 L-2427.98,-37483.9 L-2408.15,-37428.5 L-2393.85,-37371.4 L-2385.22,-37313.1 L-2382.33,-37254.3"/>
</g>

<g fill="none" stroke="#000000" stroke-opacity="1" stroke-width="1" stroke-linecap="square" stroke-linejoin="bevel" transform="matrix(1,0,0,-1,4832.59,14596.2)"
font-family="MS Shell Dlg 2" font-size="10.3125" font-weight="400" font-style="normal" 
>
</g>

<g fill="none" stroke="#000000" stroke-opacity="1" stroke-width="1" stroke-linecap="square" stroke-linejoin="bevel" transform="matrix(1,0,0,-1,0,53701)"
font-family="MS Shell Dlg 2" font-size="10.3125" font-weight="400" font-style="normal" 
>
</g>
</g>
</svg>
