<?xml version="1.0" encoding="UTF-8" standalone="no"?>
<svg width="10021.4mm" height="8689.9mm"
 xmlns="http://www.w3.org/2000/svg" xmlns:xlink="http://www.w3.org/1999/xlink"  version="1.2" baseProfile="tiny">
<title>SVG Generator Example Drawing</title>
<desc>An SVG drawing created by the SVG Generator</desc>
<defs>
</defs>
<g fill="none" stroke="black" stroke-width="1" fill-rule="evenodd" stroke-linecap="square" stroke-linejoin="bevel" >

<g fill="none" stroke="#000000" stroke-opacity="1" stroke-width="1" stroke-linecap="square" stroke-linejoin="bevel" transform="matrix(1,0,0,-1,0,30791.1)"
font-family="MS Shell Dlg 2" font-size="10.3125" font-weight="400" font-style="normal" 
>
</g>

<g fill="none" stroke="#000000" stroke-opacity="1" stroke-width="1" stroke-linecap="square" stroke-linejoin="bevel" transform="matrix(1,0,0,-1,0,30791.1)"
font-family="MS Shell Dlg 2" font-size="10.3125" font-weight="400" font-style="normal" 
>
</g>

<g fill="none" stroke="#000000" stroke-opacity="1" stroke-width="1" stroke-linecap="square" stroke-linejoin="bevel" transform="matrix(0.999979,0,0,-0.999979,43407.3,50524.4)"
font-family="MS Shell Dlg 2" font-size="10.3125" font-weight="400" font-style="normal" 
>
</g>

<g fill="#ae5151" fill-opacity="0.2" stroke="#333333" stroke-opacity="1" stroke-width="1" stroke-linecap="round" stroke-linejoin="round" transform="matrix(0.999979,0,0,-0.999979,43407.3,50524.4)"
font-family="MS Shell Dlg 2" font-size="10.3125" font-weight="400" font-style="normal" 
>
<path vector-effect="non-scaling-stroke" fill-rule="evenodd" d="M-20376,20162 L-20368.3,20162 L-20368.2,20162 L-20367.2,19762.9 L-20367.2,19762.9 L-22489.9,19757.2 L-22490,19757.2 L-22491,20136.3 L-28901.8,20119.1 L-28900.8,19740 L-28900.8,19739.9 L-31023.6,19734.2 L-31023.6,19734.2 L-31024.7,20133.3 L-31024.7,20133.3 L-31013.6,20133.3 L-30675.6,34286.5 L-43057.6,41089.3 L-43061.5,41082.6 L-43061.6,41082.6 L-43407.7,41281.2 L-43407.7,41281.2 L-42351.3,43122.4 L-42351.2,43122.4 L-42022.4,42933.8 L-38831.9,48494.4 L-39160.7,48683 L-39160.8,48683.1 L-38104.4,50524.3 L-38104.3,50524.3 L-37758.2,50325.7 L-37758.2,50325.7 L-37763.7,50316 L-25675.6,42946.8 L-13593.2,50268.5 L-13597.1,50275.2 L-13597.1,50275.3 L-13252.1,50475.7 L-13252,50475.7 L-12185.7,48640.2 L-12185.7,48640.2 L-12513.5,48449.7 L-9293.14,42906.4 L-8965.33,43096.9 L-8965.26,43096.9 L-7898.94,41261.4 L-7898.98,41261.3 L-8243.99,41060.9 L-8244.06,41060.9 L-8249.64,41070.5 L-20675.6,34286.5 L-20376,20162"/>
</g>

<g fill="none" stroke="#000000" stroke-opacity="1" stroke-width="1" stroke-linecap="square" stroke-linejoin="bevel" transform="matrix(0.999979,0,0,-0.999979,43407.3,50524.4)"
font-family="MS Shell Dlg 2" font-size="10.3125" font-weight="400" font-style="normal" 
>
</g>

<g fill="none" stroke="#000000" stroke-opacity="1" stroke-width="1" stroke-linecap="square" stroke-linejoin="bevel" transform="matrix(1,0,0,-1,0,30791.1)"
font-family="MS Shell Dlg 2" font-size="10.3125" font-weight="400" font-style="normal" 
>
</g>
</g>
</svg>
