<?xml version="1.0" encoding="UTF-8" standalone="no"?>
<svg width="28047.2mm" height="24564.1mm"
 xmlns="http://www.w3.org/2000/svg" xmlns:xlink="http://www.w3.org/1999/xlink"  version="1.2" baseProfile="tiny">
<title>SVG Generator Example Drawing</title>
<desc>An SVG drawing created by the SVG Generator</desc>
<defs>
</defs>
<g fill="none" stroke="black" stroke-width="1" fill-rule="evenodd" stroke-linecap="square" stroke-linejoin="bevel" >

<g fill="none" stroke="#000000" stroke-opacity="1" stroke-width="1" stroke-linecap="square" stroke-linejoin="bevel" transform="matrix(1,0,0,-1,0,87038.1)"
font-family="MS Shell Dlg 2" font-size="10.3125" font-weight="400" font-style="normal" 
>
</g>

<g fill="none" stroke="#000000" stroke-opacity="1" stroke-width="1" stroke-linecap="square" stroke-linejoin="bevel" transform="matrix(1,0,0,-1,0,87038.1)"
font-family="MS Shell Dlg 2" font-size="10.3125" font-weight="400" font-style="normal" 
>
</g>

<g fill="none" stroke="#000000" stroke-opacity="1" stroke-width="1" stroke-linecap="square" stroke-linejoin="bevel" transform="matrix(0.999996,0,0,-0.999996,74966.9,66978)"
font-family="MS Shell Dlg 2" font-size="10.3125" font-weight="400" font-style="normal" 
>
</g>

<g fill="#333333" fill-opacity="0.2" stroke="#333333" stroke-opacity="1" stroke-width="1" stroke-linecap="round" stroke-linejoin="round" transform="matrix(0.999996,0,0,-0.999996,74966.9,66978)"
font-family="MS Shell Dlg 2" font-size="10.3125" font-weight="400" font-style="normal" 
>
<path vector-effect="non-scaling-stroke" fill-rule="evenodd" d="M-26995.4,-1529.17 L-26995.7,-1529.09 L-26996.1,-1528.87 L-26996.3,-1528.54 L-26996.3,-1528.16 L-26996.3,-1527.16 L-26991.1,-1149.08 L-26990.6,-1110.11 L-26990.6,-1109.05 L-26985.4,-729.975 L-26985.3,-729.593 L-26985.1,-729.272 L-26984.8,-729.059 L-26984.4,-728.988 L-24792.5,-759.015 L-24792.1,-759.096 L-24791.8,-759.317 L-24791.6,-759.644 L-24791.5,-760.028 L-24796.7,-1139.11 L-24796.7,-1140.16 L-24797.2,-1179.13 L-24802.4,-1557.21 L-24802.4,-1558.21 L-24802.5,-1558.59 L-24802.7,-1558.91 L-24803.1,-1559.12 L-24803.4,-1559.2 L-26995.4,-1529.17"/>
</g>

<g fill="none" stroke="#000000" stroke-opacity="1" stroke-width="1" stroke-linecap="square" stroke-linejoin="bevel" transform="matrix(0.999996,0,0,-0.999996,74966.9,66978)"
font-family="MS Shell Dlg 2" font-size="10.3125" font-weight="400" font-style="normal" 
>
</g>

<g fill="none" stroke="#000000" stroke-opacity="1" stroke-width="1" stroke-linecap="square" stroke-linejoin="bevel" transform="matrix(0.999996,0,0,-0.999996,74966.9,66978)"
font-family="MS Shell Dlg 2" font-size="10.3125" font-weight="400" font-style="normal" 
>
</g>

<g fill="#333333" fill-opacity="0.2" stroke="#333333" stroke-opacity="1" stroke-width="1" stroke-linecap="round" stroke-linejoin="round" transform="matrix(0.999996,0,0,-0.999996,74966.9,66978)"
font-family="MS Shell Dlg 2" font-size="10.3125" font-weight="400" font-style="normal" 
>
<path vector-effect="non-scaling-stroke" fill-rule="evenodd" d="M-62806.8,51548.5 L-67555.8,55696.7 L-67555.9,55696.8 L-67700.9,55853.7 L-67701,55853.8 L-74778,65384.7 L-74778.1,65384.8 L-74943.2,65729.9 L-74943.3,65730.3 L-74966.7,66112.2 L-74966.7,66112.5 L-74845,66475.2 L-74844.8,66475.6 L-74595.9,66766 L-74595.6,66766.3 L-74255.8,66942 L-74255.4,66942.1 L-73874.5,66977.4 L-73874.3,66977.4 L-62340.6,65819.3 L-62340.4,65819.3 L-61958.7,65700.7 L-61958.5,65700.6 L-55844.5,62340.8 L-55782.1,62322.5 L-55781.8,62322.4 L-55439.1,62118.1 L-55404.7,62097.6 L-55061.9,61893.4 L-55061.7,61893.3 L-54992.3,61823.5 L-52257.2,60003 L-51348.7,61668.6 L-51348.7,61668.7 L-51127.1,61944.4 L-51126.8,61944.6 L-50823.1,62125.9 L-50822.8,62126 L-50475,62190.2 L-50474.8,62190.3 L-4024.55,62413.6 L-4024.31,62413.5 L-3567.1,62305.4 L-3566.68,62305.2 L-3209.33,62000.1 L-3209.17,61999.9 L-909.038,58825.8 L4094.83,61624.1 L4425.72,61809.1 L4460.65,61828.6 L4808.91,62023.4 L4809.14,62023.5 L5289.58,62150.7 L5289.83,62150.7 L5289.89,62150.7 L5290.07,62150.7 L5339.22,62142.2 L11306.2,64180.9 L11306.3,64180.9 L11514.8,64228 L11514.9,64228 L23307.3,65591.5 L23307.5,65591.5 L23688.9,65561.9 L23689.3,65561.8 L24031.7,65391.2 L24032,65391 L24285.3,65104.3 L24285.5,65103.9 L24412.6,64743.1 L24412.6,64742.7 L24394.9,64360.6 L24394.9,64360.2 L24235,64012.7 L24234.9,64012.5 L17465.1,54603 L17464.9,54602.9 L17171.4,54331.6 L17171.2,54331.5 L11204.5,50716.5 L11157.4,50671.6 L11157.2,50671.5 L10809,50476.7 L10774,50457.2 L10425.8,50262.5 L10425.5,50262.4 L10330.4,50237.2 L6639.5,48408.8 L7956.75,46591 L7956.85,46590.8 L8115.64,46252.9 L8115.73,46252.5 L8139.5,45879.9 L8139.45,45879.5 L8024.87,45524.1 L8024.79,45524 L-15870.3,1753.54 L-15870.4,1753.39 L-16096.2,1474.22 L-16096.5,1473.99 L-16406.4,1292.61 L-16406.8,1292.48 L-16760.8,1232.27 L-16760.9,1232.26 L-19357.1,1263.54 L-19385.9,-834.078 L-19391.1,-1213.16 L-19391.6,-1253.18 L-19397.1,-1652.16 L-19397.1,-1652.41 L-19527.2,-2132.07 L-19527.3,-2132.3 L-19527.3,-2132.35 L-19527.4,-2132.5 L-19559.3,-2170.84 L-20777.3,-8357.72 L-20777.3,-8357.83 L-20840.8,-8561.89 L-20840.8,-8561.99 L-25556.2,-19456.3 L-25556.3,-19456.5 L-25772.6,-19772 L-25772.9,-19772.3 L-26091.9,-19983.5 L-26092.2,-19983.6 L-26467.2,-20059.6 L-26467.5,-20059.6 L-26843.6,-19989.3 L-26843.9,-19989.1 L-27166,-19782.7 L-27166.3,-19782.5 L-27387.3,-19470.2 L-27387.4,-19470.1 L-32151.3,-8902.53 L-32151.4,-8902.34 L-32239.5,-8512.48 L-32239.6,-8512.28 L-32386.9,-1537.47 L-32402.2,-1474.25 L-32402.3,-1474 L-32396.8,-1075.03 L-32396.2,-1035 L-32390.8,-636.027 L-32390.7,-635.779 L-32365,-540.828 L-32240.1,1418.75 L-35296.4,1455.58 L-35296.5,1455.59 L-35630.8,1517.39 L-35631.1,1517.51 L-35925.3,1687.69 L-35925.6,1687.91 L-36145.8,1946.81 L-36145.9,1946.95 L-60711,43484.2 L-60711,43484.3 L-60832.4,43804.9 L-60832.4,43805.3 L-60838.4,44148 L-60838.3,44148.3 L-60728.2,44472.9 L-60728.1,44473.1 L-58399.5,48742.2 L-61735.9,50729.9 L-62061.5,50923.9 L-62095.9,50944.4 L-62438.7,51148.6 L-62438.9,51148.8 L-62789.3,51501.2 L-62789.4,51501.4 L-62789.5,51501.5 L-62789.5,51501.7 L-62806.8,51548.5 M-61925.1,52008.9 L-61583.1,51805.2 L-61582.2,51804.7 L-61548.7,51784.7 L-61223.9,51591.2 L-61223,51590.7 L-57058.7,49109.8 L-57058.5,49109.5 L-57058.3,49109.2 L-57058.3,49108.8 L-57058.4,49108.4 L-57058.9,49107.5 L-59848.2,43993.8 L-35283.7,2457.5 L-31175,2407.99 L-31174,2407.98 L-31173.7,2407.9 L-31173.3,2407.66 L-31173.1,2407.32 L-31173.1,2406.92 L-31367.9,-650.032 L-31368,-650.398 L-31368.2,-650.702 L-31368.6,-650.902 L-31368.9,-650.968 L-31370,-650.954 L-31388.9,-650.695 L-31394.3,-1048.73 L-31394.9,-1087.69 L-31394.9,-1088.75 L-31400.3,-1486.79 L-31386.7,-1486.97 L-31386.4,-1487.05 L-31386,-1487.26 L-31385.8,-1487.58 L-31385.7,-1487.95 L-31237.8,-8490.92 L-26474.9,-19056.2 L-21760.4,-8164.08 L-20475.5,-1637.26 L-20475.4,-1636.94 L-20475.2,-1636.68 L-20474.8,-1636.51 L-20474.5,-1636.45 L-20399,-1637.49 L-20393.5,-1239.45 L-20393.5,-1238.4 L-20393,-1199.43 L-20387.8,-821.353 L-20387.8,-820.353 L-20345.3,2276.52 L-20345.3,2276.9 L-20345,2277.22 L-20344.7,2277.43 L-20344.3,2277.5 L-20343.3,2277.49 L-16749.5,2234.19 L7145.01,46003.5 L5133.87,48778.9 L5133.38,48779.6 L5133.21,48780 L5133.22,48780.4 L5133.41,48780.8 L5133.74,48781.1 L9926.47,51155.3 L9926.83,51155.4 L9927.21,51155.3 L9927.54,51155.2 L9927.78,51154.9 L9928.3,51154 L9937.52,51137.5 L10285,51331.7 L10319,51350.8 L10319.9,51351.3 L10667.3,51545.6 L10660.7,51557.4 L10660.6,51557.8 L10660.6,51558.2 L10660.8,51558.5 L10661,51558.8 L16651.8,55188.4 L23420.2,64595.8 L11630.1,63232.7 L5335.23,61082 L5334.89,61081.9 L5334.55,61082 L5334.25,61082.2 L5334.03,61082.5 L5297.15,61148.4 L4949.72,60954.1 L4948.8,60953.6 L4914.79,60934.6 L4584.77,60750 L4583.9,60749.5 L-1196.83,57516.8 L-1197.17,57516.7 L-1197.53,57516.7 L-1197.87,57516.8 L-1198.13,57517.1 L-1198.79,57518 L-4020.24,61411.6 L-50469.4,61188.3 L-51900.6,58564.4 L-51901,58563.6 L-51901.3,58563.3 L-51901.7,58563.1 L-51902.1,58563.1 L-51902.4,58563.3 L-55585.4,61014.6 L-55585.7,61014.9 L-55585.9,61015.2 L-55585.9,61015.6 L-55585.7,61016 L-55585.2,61016.9 L-55575.5,61033.1 L-55917.5,61236.8 L-55951,61256.8 L-55951.9,61257.3 L-56293.9,61461.1 L-56300.8,61449.4 L-56301.1,61449.1 L-56301.4,61448.9 L-56301.8,61448.9 L-56302.2,61449 L-62440.9,64822.4 L-73972.2,65980.2 L-66896.6,56451.3 L-61886.6,52075.1 L-61886.4,52074.8 L-61886.3,52074.5 L-61886.3,52074.2 L-61886.4,52073.9 L-61925.1,52008.9"/>
</g>

<g fill="none" stroke="#000000" stroke-opacity="1" stroke-width="1" stroke-linecap="square" stroke-linejoin="bevel" transform="matrix(0.999996,0,0,-0.999996,74966.9,66978)"
font-family="MS Shell Dlg 2" font-size="10.3125" font-weight="400" font-style="normal" 
>
</g>

<g fill="none" stroke="#000000" stroke-opacity="1" stroke-width="1" stroke-linecap="square" stroke-linejoin="bevel" transform="matrix(0.999996,0,0,-0.999996,74966.9,66978)"
font-family="MS Shell Dlg 2" font-size="10.3125" font-weight="400" font-style="normal" 
>
</g>

<g fill="#333333" fill-opacity="0.2" stroke="#333333" stroke-opacity="1" stroke-width="1" stroke-linecap="round" stroke-linejoin="round" transform="matrix(0.999996,0,0,-0.999996,74966.9,66978)"
font-family="MS Shell Dlg 2" font-size="10.3125" font-weight="400" font-style="normal" 
>
<path vector-effect="non-scaling-stroke" fill-rule="evenodd" d="M7064.41,57090.7 L7065.33,57091.2 L7099.34,57110.2 L7429.36,57294.8 L7430.23,57295.2 L7430.6,57295.4 L7430.99,57295.3 L7431.34,57295.2 L7431.59,57294.9 L8501.54,55381.6 L8501.66,55381.2 L8501.63,55380.8 L8501.46,55380.5 L8501.16,55380.2 L8500.29,55379.7 L8170.27,55195.2 L8136.26,55176.2 L8135.34,55175.7 L7804.45,54990.6 L7804.07,54990.5 L7803.69,54990.5 L7803.34,54990.7 L7803.09,54991 L6733.14,56904.3 L6733.01,56904.6 L6733.05,56905 L6733.22,56905.4 L6733.52,56905.6 L7064.41,57090.7"/>
</g>

<g fill="none" stroke="#000000" stroke-opacity="1" stroke-width="1" stroke-linecap="square" stroke-linejoin="bevel" transform="matrix(0.999996,0,0,-0.999996,74966.9,66978)"
font-family="MS Shell Dlg 2" font-size="10.3125" font-weight="400" font-style="normal" 
>
</g>

<g fill="none" stroke="#000000" stroke-opacity="1" stroke-width="1" stroke-linecap="square" stroke-linejoin="bevel" transform="matrix(0.999996,0,0,-0.999996,74966.9,66978)"
font-family="MS Shell Dlg 2" font-size="10.3125" font-weight="400" font-style="normal" 
>
</g>

<g fill="#333333" fill-opacity="0.2" stroke="#333333" stroke-opacity="1" stroke-width="1" stroke-linecap="round" stroke-linejoin="round" transform="matrix(0.999996,0,0,-0.999996,74966.9,66978)"
font-family="MS Shell Dlg 2" font-size="10.3125" font-weight="400" font-style="normal" 
>
<path vector-effect="non-scaling-stroke" fill-rule="evenodd" d="M-58533.1,57667.4 L-58532.8,57667.7 L-58532.5,57667.9 L-58532.1,57667.9 L-58531.7,57667.8 L-58530.8,57667.3 L-58206,57473.7 L-58172.5,57453.8 L-58171.6,57453.3 L-57845.9,57259.2 L-57845.6,57259 L-57845.5,57258.6 L-57845.4,57258.2 L-57845.6,57257.8 L-58967.5,55374.6 L-58967.8,55374.3 L-58968.1,55374.2 L-58968.5,55374.1 L-58968.9,55374.3 L-59294.6,55568.3 L-59295.5,55568.8 L-59329,55588.8 L-59653.8,55782.3 L-59654.7,55782.8 L-59655,55783.1 L-59655.1,55783.4 L-59655.2,55783.8 L-59655,55784.2 L-58533.1,57667.4"/>
</g>

<g fill="none" stroke="#000000" stroke-opacity="1" stroke-width="1" stroke-linecap="square" stroke-linejoin="bevel" transform="matrix(0.999996,0,0,-0.999996,74966.9,66978)"
font-family="MS Shell Dlg 2" font-size="10.3125" font-weight="400" font-style="normal" 
>
</g>

<g fill="none" stroke="#000000" stroke-opacity="1" stroke-width="1" stroke-linecap="square" stroke-linejoin="bevel" transform="matrix(0.999996,0,0,-0.999996,74966.9,66978)"
font-family="MS Shell Dlg 2" font-size="10.3125" font-weight="400" font-style="normal" 
>
</g>

<g fill="#ae5151" fill-opacity="0.2" stroke="#333333" stroke-opacity="1" stroke-width="1" stroke-linecap="round" stroke-linejoin="round" transform="matrix(0.999996,0,0,-0.999996,74966.9,66978)"
font-family="MS Shell Dlg 2" font-size="10.3125" font-weight="400" font-style="normal" 
>
<path vector-effect="non-scaling-stroke" fill-rule="evenodd" d="M-26995.4,-1529.17 L-26995.7,-1529.09 L-26996.1,-1528.87 L-26996.3,-1528.54 L-26996.3,-1528.16 L-26996.3,-1527.16 L-26991.1,-1149.08 L-26990.6,-1110.11 L-26990.6,-1109.05 L-26985.4,-729.975 L-26985.3,-729.593 L-26985.1,-729.272 L-26984.8,-729.059 L-26984.4,-728.988 L-24792.5,-759.015 L-24792.1,-759.096 L-24791.8,-759.317 L-24791.6,-759.644 L-24791.5,-760.028 L-24796.7,-1139.11 L-24796.7,-1140.16 L-24797.2,-1179.13 L-24802.4,-1557.21 L-24802.4,-1558.21 L-24802.5,-1558.59 L-24802.7,-1558.91 L-24803.1,-1559.12 L-24803.4,-1559.2 L-26995.4,-1529.17"/>
</g>

<g fill="none" stroke="#000000" stroke-opacity="1" stroke-width="1" stroke-linecap="square" stroke-linejoin="bevel" transform="matrix(0.999996,0,0,-0.999996,74966.9,66978)"
font-family="MS Shell Dlg 2" font-size="10.3125" font-weight="400" font-style="normal" 
>
</g>

<g fill="none" stroke="#000000" stroke-opacity="1" stroke-width="1" stroke-linecap="square" stroke-linejoin="bevel" transform="matrix(0.999996,0,0,-0.999996,74966.9,66978)"
font-family="MS Shell Dlg 2" font-size="10.3125" font-weight="400" font-style="normal" 
>
</g>

<g fill="#ae5151" fill-opacity="0.2" stroke="#333333" stroke-opacity="1" stroke-width="1" stroke-linecap="round" stroke-linejoin="round" transform="matrix(0.999996,0,0,-0.999996,74966.9,66978)"
font-family="MS Shell Dlg 2" font-size="10.3125" font-weight="400" font-style="normal" 
>
<path vector-effect="non-scaling-stroke" fill-rule="evenodd" d="M-62806.8,51548.5 L-67555.8,55696.7 L-67555.9,55696.8 L-67700.9,55853.7 L-67701,55853.8 L-74778,65384.7 L-74778.1,65384.8 L-74943.2,65729.9 L-74943.3,65730.3 L-74966.7,66112.2 L-74966.7,66112.5 L-74845,66475.2 L-74844.8,66475.6 L-74595.9,66766 L-74595.6,66766.3 L-74255.8,66942 L-74255.4,66942.1 L-73874.5,66977.4 L-73874.3,66977.4 L-62340.6,65819.3 L-62340.4,65819.3 L-61958.7,65700.7 L-61958.5,65700.6 L-55844.5,62340.8 L-55782.1,62322.5 L-55781.8,62322.4 L-55439.1,62118.1 L-55404.7,62097.6 L-55061.9,61893.4 L-55061.7,61893.3 L-54992.3,61823.5 L-52257.2,60003 L-51348.7,61668.6 L-51348.7,61668.7 L-51127.1,61944.4 L-51126.8,61944.6 L-50823.1,62125.9 L-50822.8,62126 L-50475,62190.2 L-50474.8,62190.3 L-4024.55,62413.6 L-4024.31,62413.5 L-3567.1,62305.4 L-3566.68,62305.2 L-3209.33,62000.1 L-3209.17,61999.9 L-909.038,58825.8 L4094.83,61624.1 L4425.72,61809.1 L4460.65,61828.6 L4808.91,62023.4 L4809.14,62023.5 L5289.58,62150.7 L5289.83,62150.7 L5289.89,62150.7 L5290.07,62150.7 L5339.22,62142.2 L11306.2,64180.9 L11306.3,64180.9 L11514.8,64228 L11514.9,64228 L23307.3,65591.5 L23307.5,65591.5 L23688.9,65561.9 L23689.3,65561.8 L24031.7,65391.2 L24032,65391 L24285.3,65104.3 L24285.5,65103.9 L24412.6,64743.1 L24412.6,64742.7 L24394.9,64360.6 L24394.9,64360.2 L24235,64012.7 L24234.9,64012.5 L17465.1,54603 L17464.9,54602.9 L17171.4,54331.6 L17171.2,54331.5 L11204.5,50716.5 L11157.4,50671.6 L11157.2,50671.5 L10809,50476.7 L10774,50457.2 L10425.8,50262.5 L10425.5,50262.4 L10330.4,50237.2 L6639.5,48408.8 L7956.75,46591 L7956.85,46590.8 L8115.64,46252.9 L8115.73,46252.5 L8139.5,45879.9 L8139.45,45879.5 L8024.87,45524.1 L8024.79,45524 L-15870.3,1753.54 L-15870.4,1753.39 L-16096.2,1474.22 L-16096.5,1473.99 L-16406.4,1292.61 L-16406.8,1292.48 L-16760.8,1232.27 L-16760.9,1232.26 L-19357.1,1263.54 L-19385.9,-834.078 L-19391.1,-1213.16 L-19391.6,-1253.18 L-19397.1,-1652.16 L-19397.1,-1652.41 L-19527.2,-2132.07 L-19527.3,-2132.3 L-19527.3,-2132.35 L-19527.4,-2132.5 L-19559.3,-2170.84 L-20777.3,-8357.72 L-20777.3,-8357.83 L-20840.8,-8561.89 L-20840.8,-8561.99 L-25556.2,-19456.3 L-25556.3,-19456.5 L-25772.6,-19772 L-25772.9,-19772.3 L-26091.9,-19983.5 L-26092.2,-19983.6 L-26467.2,-20059.6 L-26467.5,-20059.6 L-26843.6,-19989.3 L-26843.9,-19989.1 L-27166,-19782.7 L-27166.3,-19782.5 L-27387.3,-19470.2 L-27387.4,-19470.1 L-32151.3,-8902.53 L-32151.4,-8902.34 L-32239.5,-8512.48 L-32239.6,-8512.28 L-32386.9,-1537.47 L-32402.2,-1474.25 L-32402.3,-1474 L-32396.8,-1075.03 L-32396.2,-1035 L-32390.8,-636.027 L-32390.7,-635.779 L-32365,-540.828 L-32240.1,1418.75 L-35296.4,1455.58 L-35296.5,1455.59 L-35630.8,1517.39 L-35631.1,1517.51 L-35925.3,1687.69 L-35925.6,1687.91 L-36145.8,1946.81 L-36145.9,1946.95 L-60711,43484.2 L-60711,43484.3 L-60832.4,43804.9 L-60832.4,43805.3 L-60838.4,44148 L-60838.3,44148.3 L-60728.2,44472.9 L-60728.1,44473.1 L-58399.5,48742.2 L-61735.9,50729.9 L-62061.5,50923.9 L-62095.9,50944.4 L-62438.7,51148.6 L-62438.9,51148.8 L-62789.3,51501.2 L-62789.4,51501.4 L-62789.5,51501.5 L-62789.5,51501.7 L-62806.8,51548.5 M-61925.1,52008.9 L-61583.1,51805.2 L-61582.2,51804.7 L-61548.7,51784.7 L-61223.9,51591.2 L-61223,51590.7 L-57058.7,49109.8 L-57058.5,49109.5 L-57058.3,49109.2 L-57058.3,49108.8 L-57058.4,49108.4 L-57058.9,49107.5 L-59848.2,43993.8 L-35283.7,2457.5 L-31175,2407.99 L-31174,2407.98 L-31173.7,2407.9 L-31173.3,2407.66 L-31173.1,2407.32 L-31173.1,2406.92 L-31367.9,-650.032 L-31368,-650.398 L-31368.2,-650.702 L-31368.6,-650.902 L-31368.9,-650.968 L-31370,-650.954 L-31388.9,-650.695 L-31394.3,-1048.73 L-31394.9,-1087.69 L-31394.9,-1088.75 L-31400.3,-1486.79 L-31386.7,-1486.97 L-31386.4,-1487.05 L-31386,-1487.26 L-31385.8,-1487.58 L-31385.7,-1487.95 L-31237.8,-8490.92 L-26474.9,-19056.2 L-21760.4,-8164.08 L-20475.5,-1637.26 L-20475.4,-1636.94 L-20475.2,-1636.68 L-20474.8,-1636.51 L-20474.5,-1636.45 L-20399,-1637.49 L-20393.5,-1239.45 L-20393.5,-1238.4 L-20393,-1199.43 L-20387.8,-821.353 L-20387.8,-820.353 L-20345.3,2276.52 L-20345.3,2276.9 L-20345,2277.22 L-20344.7,2277.43 L-20344.3,2277.5 L-20343.3,2277.49 L-16749.5,2234.19 L7145.01,46003.5 L5133.87,48778.9 L5133.38,48779.6 L5133.21,48780 L5133.22,48780.4 L5133.41,48780.8 L5133.74,48781.1 L9926.47,51155.3 L9926.83,51155.4 L9927.21,51155.3 L9927.54,51155.2 L9927.78,51154.9 L9928.3,51154 L9937.52,51137.5 L10285,51331.7 L10319,51350.8 L10319.9,51351.3 L10667.3,51545.6 L10660.7,51557.4 L10660.6,51557.8 L10660.6,51558.2 L10660.8,51558.5 L10661,51558.8 L16651.8,55188.4 L23420.2,64595.8 L11630.1,63232.7 L5335.23,61082 L5334.89,61081.9 L5334.55,61082 L5334.25,61082.2 L5334.03,61082.5 L5297.15,61148.4 L4949.72,60954.1 L4948.8,60953.6 L4914.79,60934.6 L4584.77,60750 L4583.9,60749.5 L-1196.83,57516.8 L-1197.17,57516.7 L-1197.53,57516.7 L-1197.87,57516.8 L-1198.13,57517.1 L-1198.79,57518 L-4020.24,61411.6 L-50469.4,61188.3 L-51900.6,58564.4 L-51901,58563.6 L-51901.3,58563.3 L-51901.7,58563.1 L-51902.1,58563.1 L-51902.4,58563.3 L-55585.4,61014.6 L-55585.7,61014.9 L-55585.9,61015.2 L-55585.9,61015.6 L-55585.7,61016 L-55585.2,61016.9 L-55575.5,61033.1 L-55917.5,61236.8 L-55951,61256.8 L-55951.9,61257.3 L-56293.9,61461.1 L-56300.8,61449.4 L-56301.1,61449.1 L-56301.4,61448.9 L-56301.8,61448.9 L-56302.2,61449 L-62440.9,64822.4 L-73972.2,65980.2 L-66896.6,56451.3 L-61886.6,52075.1 L-61886.4,52074.8 L-61886.3,52074.5 L-61886.3,52074.2 L-61886.4,52073.9 L-61925.1,52008.9"/>
</g>

<g fill="none" stroke="#000000" stroke-opacity="1" stroke-width="1" stroke-linecap="square" stroke-linejoin="bevel" transform="matrix(0.999996,0,0,-0.999996,74966.9,66978)"
font-family="MS Shell Dlg 2" font-size="10.3125" font-weight="400" font-style="normal" 
>
</g>

<g fill="none" stroke="#000000" stroke-opacity="1" stroke-width="1" stroke-linecap="square" stroke-linejoin="bevel" transform="matrix(0.999996,0,0,-0.999996,74966.9,66978)"
font-family="MS Shell Dlg 2" font-size="10.3125" font-weight="400" font-style="normal" 
>
</g>

<g fill="#ae5151" fill-opacity="0.2" stroke="#333333" stroke-opacity="1" stroke-width="1" stroke-linecap="round" stroke-linejoin="round" transform="matrix(0.999996,0,0,-0.999996,74966.9,66978)"
font-family="MS Shell Dlg 2" font-size="10.3125" font-weight="400" font-style="normal" 
>
<path vector-effect="non-scaling-stroke" fill-rule="evenodd" d="M7064.41,57090.7 L7065.33,57091.2 L7099.34,57110.2 L7429.36,57294.8 L7430.23,57295.2 L7430.6,57295.4 L7430.99,57295.3 L7431.34,57295.2 L7431.59,57294.9 L8501.54,55381.6 L8501.66,55381.2 L8501.63,55380.8 L8501.46,55380.5 L8501.16,55380.2 L8500.29,55379.7 L8170.27,55195.2 L8136.26,55176.2 L8135.34,55175.7 L7804.45,54990.6 L7804.07,54990.5 L7803.69,54990.5 L7803.34,54990.7 L7803.09,54991 L6733.14,56904.3 L6733.01,56904.6 L6733.05,56905 L6733.22,56905.4 L6733.52,56905.6 L7064.41,57090.7"/>
</g>

<g fill="none" stroke="#000000" stroke-opacity="1" stroke-width="1" stroke-linecap="square" stroke-linejoin="bevel" transform="matrix(0.999996,0,0,-0.999996,74966.9,66978)"
font-family="MS Shell Dlg 2" font-size="10.3125" font-weight="400" font-style="normal" 
>
</g>

<g fill="none" stroke="#000000" stroke-opacity="1" stroke-width="1" stroke-linecap="square" stroke-linejoin="bevel" transform="matrix(0.999996,0,0,-0.999996,74966.9,66978)"
font-family="MS Shell Dlg 2" font-size="10.3125" font-weight="400" font-style="normal" 
>
</g>

<g fill="#ae5151" fill-opacity="0.2" stroke="#333333" stroke-opacity="1" stroke-width="1" stroke-linecap="round" stroke-linejoin="round" transform="matrix(0.999996,0,0,-0.999996,74966.9,66978)"
font-family="MS Shell Dlg 2" font-size="10.3125" font-weight="400" font-style="normal" 
>
<path vector-effect="non-scaling-stroke" fill-rule="evenodd" d="M-58533.1,57667.4 L-58532.8,57667.7 L-58532.5,57667.9 L-58532.1,57667.9 L-58531.7,57667.8 L-58530.8,57667.3 L-58206,57473.7 L-58172.5,57453.8 L-58171.6,57453.3 L-57845.9,57259.2 L-57845.6,57259 L-57845.5,57258.6 L-57845.4,57258.2 L-57845.6,57257.8 L-58967.5,55374.6 L-58967.8,55374.3 L-58968.1,55374.2 L-58968.5,55374.1 L-58968.9,55374.3 L-59294.6,55568.3 L-59295.5,55568.8 L-59329,55588.8 L-59653.8,55782.3 L-59654.7,55782.8 L-59655,55783.1 L-59655.1,55783.4 L-59655.2,55783.8 L-59655,55784.2 L-58533.1,57667.4"/>
</g>

<g fill="none" stroke="#000000" stroke-opacity="1" stroke-width="1" stroke-linecap="square" stroke-linejoin="bevel" transform="matrix(0.999996,0,0,-0.999996,74966.9,66978)"
font-family="MS Shell Dlg 2" font-size="10.3125" font-weight="400" font-style="normal" 
>
</g>

<g fill="none" stroke="#000000" stroke-opacity="1" stroke-width="1" stroke-linecap="square" stroke-linejoin="bevel" transform="matrix(0.999996,0,0,-0.999996,74966.9,66978)"
font-family="MS Shell Dlg 2" font-size="10.3125" font-weight="400" font-style="normal" 
>
</g>

<g fill="#ffff00" fill-opacity="0.2" stroke="#333333" stroke-opacity="1" stroke-width="1" stroke-linecap="round" stroke-linejoin="round" transform="matrix(0.999996,0,0,-0.999996,74966.9,66978)"
font-family="MS Shell Dlg 2" font-size="10.3125" font-weight="400" font-style="normal" 
>
<path vector-effect="non-scaling-stroke" fill-rule="evenodd" d="M-26995.4,-1529.17 L-26995.7,-1529.09 L-26996.1,-1528.87 L-26996.3,-1528.54 L-26996.3,-1528.16 L-26991.1,-1149.08 L-26990.6,-1109.05 L-26985.4,-729.975 L-26985.3,-729.593 L-26985.1,-729.272 L-26984.8,-729.059 L-26984.4,-728.988 L-24792.5,-759.015 L-24792.1,-759.096 L-24791.8,-759.317 L-24791.6,-759.644 L-24791.5,-760.028 L-24796.7,-1139.11 L-24797.2,-1179.13 L-24802.4,-1558.21 L-24802.5,-1558.59 L-24802.7,-1558.91 L-24803.1,-1559.12 L-24803.4,-1559.2 L-26995.4,-1529.17"/>
</g>

<g fill="none" stroke="#000000" stroke-opacity="1" stroke-width="1" stroke-linecap="square" stroke-linejoin="bevel" transform="matrix(0.999996,0,0,-0.999996,74966.9,66978)"
font-family="MS Shell Dlg 2" font-size="10.3125" font-weight="400" font-style="normal" 
>
</g>

<g fill="none" stroke="#000000" stroke-opacity="1" stroke-width="1" stroke-linecap="square" stroke-linejoin="bevel" transform="matrix(0.999996,0,0,-0.999996,74966.9,66978)"
font-family="MS Shell Dlg 2" font-size="10.3125" font-weight="400" font-style="normal" 
>
</g>

<g fill="#ffff00" fill-opacity="0.2" stroke="#333333" stroke-opacity="1" stroke-width="1" stroke-linecap="round" stroke-linejoin="round" transform="matrix(0.999996,0,0,-0.999996,74966.9,66978)"
font-family="MS Shell Dlg 2" font-size="10.3125" font-weight="400" font-style="normal" 
>
<path vector-effect="non-scaling-stroke" fill-rule="evenodd" d="M-62806.8,51548.5 L-67555.8,55696.7 L-67555.9,55696.8 L-67700.9,55853.7 L-67701,55853.8 L-74778,65384.7 L-74778.1,65384.8 L-74943.2,65729.9 L-74943.3,65730.3 L-74966.7,66112.2 L-74966.7,66112.5 L-74845,66475.2 L-74844.8,66475.6 L-74595.9,66766 L-74595.6,66766.3 L-74255.8,66942 L-74255.4,66942.1 L-73874.5,66977.4 L-73874.3,66977.4 L-62340.6,65819.3 L-62340.4,65819.3 L-61958.7,65700.7 L-61958.5,65700.6 L-55844.5,62340.8 L-55782.1,62322.5 L-55781.8,62322.4 L-55439.1,62118.1 L-55404.7,62097.6 L-55061.9,61893.4 L-55061.7,61893.3 L-54992.3,61823.5 L-52257.2,60003 L-51348.7,61668.6 L-51348.7,61668.7 L-51127.1,61944.4 L-51126.8,61944.6 L-50823.1,62125.9 L-50822.8,62126 L-50475,62190.2 L-50474.8,62190.3 L-4024.55,62413.6 L-4024.31,62413.5 L-3567.1,62305.4 L-3566.68,62305.2 L-3209.33,62000.1 L-3209.17,61999.9 L-909.038,58825.8 L4094.83,61624.1 L4425.72,61809.1 L4460.65,61828.6 L4808.91,62023.4 L4809.14,62023.5 L5289.58,62150.7 L5289.83,62150.7 L5289.89,62150.7 L5290.07,62150.7 L5339.22,62142.2 L11306.2,64180.9 L11306.3,64180.9 L11514.8,64228 L11514.9,64228 L23307.3,65591.5 L23307.5,65591.5 L23688.9,65561.9 L23689.3,65561.8 L24031.7,65391.2 L24032,65391 L24285.3,65104.3 L24285.5,65103.9 L24412.6,64743.1 L24412.6,64742.7 L24394.9,64360.6 L24394.9,64360.2 L24235,64012.7 L24234.9,64012.5 L17465.1,54603 L17464.9,54602.9 L17171.4,54331.6 L17171.2,54331.5 L11204.5,50716.5 L11157.4,50671.6 L11157.2,50671.5 L10809,50476.7 L10774,50457.2 L10425.8,50262.5 L10425.5,50262.4 L10330.4,50237.2 L6639.5,48408.8 L7956.75,46591 L7956.85,46590.8 L8115.64,46252.9 L8115.73,46252.5 L8139.5,45879.9 L8139.45,45879.5 L8024.87,45524.1 L8024.79,45524 L-15870.3,1753.54 L-15870.4,1753.39 L-16096.2,1474.22 L-16096.5,1473.99 L-16406.4,1292.61 L-16406.8,1292.48 L-16760.8,1232.27 L-16760.9,1232.26 L-19357.1,1263.54 L-19385.9,-834.078 L-19391.1,-1213.16 L-19391.6,-1253.18 L-19397.1,-1652.16 L-19397.1,-1652.41 L-19527.2,-2132.07 L-19527.3,-2132.3 L-19527.3,-2132.35 L-19527.4,-2132.5 L-19559.3,-2170.84 L-20777.3,-8357.72 L-20777.3,-8357.83 L-20840.8,-8561.89 L-20840.8,-8561.99 L-25556.2,-19456.3 L-25556.3,-19456.5 L-25772.6,-19772 L-25772.9,-19772.3 L-26091.9,-19983.5 L-26092.2,-19983.6 L-26467.2,-20059.6 L-26467.5,-20059.6 L-26843.6,-19989.3 L-26843.9,-19989.1 L-27166,-19782.7 L-27166.3,-19782.5 L-27387.3,-19470.2 L-27387.4,-19470.1 L-32151.3,-8902.53 L-32151.4,-8902.34 L-32239.5,-8512.48 L-32239.6,-8512.28 L-32386.9,-1537.47 L-32402.2,-1474.25 L-32402.3,-1474 L-32396.8,-1075.03 L-32396.2,-1035 L-32390.8,-636.027 L-32390.7,-635.779 L-32365,-540.828 L-32240.1,1418.75 L-35296.4,1455.58 L-35296.5,1455.59 L-35630.8,1517.39 L-35631.1,1517.51 L-35925.3,1687.69 L-35925.6,1687.91 L-36145.8,1946.81 L-36145.9,1946.95 L-60711,43484.2 L-60711,43484.3 L-60832.4,43804.9 L-60832.4,43805.3 L-60838.4,44148 L-60838.3,44148.3 L-60728.2,44472.9 L-60728.1,44473.1 L-58399.5,48742.2 L-61735.9,50729.9 L-62061.5,50923.9 L-62095.9,50944.4 L-62438.7,51148.6 L-62438.9,51148.8 L-62789.3,51501.2 L-62789.4,51501.4 L-62789.5,51501.5 L-62789.5,51501.7 L-62806.8,51548.5 M-61925.1,52008.9 L-61583.1,51805.2 L-61548.7,51784.7 L-61223,51590.7 L-57058.7,49109.8 L-57058.5,49109.5 L-57058.3,49109.2 L-57058.3,49108.8 L-57058.4,49108.4 L-57058.9,49107.5 L-59848.2,43993.8 L-35283.7,2457.5 L-31175,2407.99 L-31174,2407.98 L-31173.7,2407.9 L-31173.3,2407.66 L-31173.1,2407.32 L-31173.1,2406.92 L-31367.9,-650.032 L-31368,-650.398 L-31368.2,-650.702 L-31368.6,-650.902 L-31368.9,-650.968 L-31388.9,-650.695 L-31394.3,-1048.73 L-31394.9,-1088.75 L-31400.3,-1486.79 L-31386.7,-1486.97 L-31386.4,-1487.05 L-31386,-1487.26 L-31385.8,-1487.58 L-31385.7,-1487.95 L-31237.8,-8490.92 L-26474.9,-19056.2 L-21760.4,-8164.08 L-20475.5,-1637.26 L-20475.4,-1636.94 L-20475.2,-1636.68 L-20474.8,-1636.51 L-20474.5,-1636.45 L-20399,-1637.49 L-20393.5,-1239.45 L-20393,-1199.43 L-20387.8,-820.353 L-20345.3,2276.52 L-20345.3,2276.9 L-20345,2277.22 L-20344.7,2277.43 L-20344.3,2277.5 L-20343.3,2277.49 L-16749.5,2234.19 L7145.01,46003.5 L5133.87,48778.9 L5133.38,48779.6 L5133.21,48780 L5133.22,48780.4 L5133.41,48780.8 L5133.74,48781.1 L9926.47,51155.3 L9926.83,51155.4 L9927.21,51155.3 L9927.54,51155.2 L9927.78,51154.9 L9937.52,51137.5 L10285,51331.7 L10319.9,51351.3 L10667.3,51545.6 L10660.7,51557.4 L10660.6,51557.8 L10660.6,51558.2 L10660.8,51558.5 L10661,51558.8 L16651.8,55188.4 L23420.2,64595.8 L11630.1,63232.7 L5335.23,61082 L5334.89,61081.9 L5334.55,61082 L5334.25,61082.2 L5334.03,61082.5 L5297.15,61148.4 L4949.72,60954.1 L4914.79,60934.6 L4583.9,60749.5 L-1196.83,57516.8 L-1197.17,57516.7 L-1197.53,57516.7 L-1197.87,57516.8 L-1198.13,57517.1 L-1198.79,57518 L-4020.24,61411.6 L-50469.4,61188.3 L-51900.6,58564.4 L-51901,58563.6 L-51901.3,58563.3 L-51901.7,58563.1 L-51902.1,58563.1 L-51902.4,58563.3 L-55585.4,61014.6 L-55585.7,61014.9 L-55585.9,61015.2 L-55585.9,61015.6 L-55585.7,61016 L-55575.5,61033.1 L-55917.5,61236.8 L-55951.9,61257.3 L-56293.9,61461.1 L-56300.8,61449.4 L-56301.1,61449.1 L-56301.4,61448.9 L-56301.8,61448.9 L-56302.2,61449 L-62440.9,64822.4 L-73972.2,65980.2 L-66896.6,56451.3 L-61886.6,52075.1 L-61886.4,52074.8 L-61886.3,52074.5 L-61886.3,52074.2 L-61886.4,52073.9 L-61925.1,52008.9"/>
</g>

<g fill="none" stroke="#000000" stroke-opacity="1" stroke-width="1" stroke-linecap="square" stroke-linejoin="bevel" transform="matrix(0.999996,0,0,-0.999996,74966.9,66978)"
font-family="MS Shell Dlg 2" font-size="10.3125" font-weight="400" font-style="normal" 
>
</g>

<g fill="none" stroke="#000000" stroke-opacity="1" stroke-width="1" stroke-linecap="square" stroke-linejoin="bevel" transform="matrix(0.999996,0,0,-0.999996,74966.9,66978)"
font-family="MS Shell Dlg 2" font-size="10.3125" font-weight="400" font-style="normal" 
>
</g>

<g fill="#ffff00" fill-opacity="0.2" stroke="#333333" stroke-opacity="1" stroke-width="1" stroke-linecap="round" stroke-linejoin="round" transform="matrix(0.999996,0,0,-0.999996,74966.9,66978)"
font-family="MS Shell Dlg 2" font-size="10.3125" font-weight="400" font-style="normal" 
>
<path vector-effect="non-scaling-stroke" fill-rule="evenodd" d="M7064.41,57090.7 L7099.34,57110.2 L7430.23,57295.2 L7430.6,57295.4 L7430.99,57295.3 L7431.34,57295.2 L7431.59,57294.9 L8501.54,55381.6 L8501.66,55381.2 L8501.63,55380.8 L8501.46,55380.5 L8501.16,55380.2 L8170.27,55195.2 L8135.34,55175.7 L7804.45,54990.6 L7804.07,54990.5 L7803.69,54990.5 L7803.34,54990.7 L7803.09,54991 L6733.14,56904.3 L6733.01,56904.6 L6733.05,56905 L6733.22,56905.4 L6733.52,56905.6 L7064.41,57090.7"/>
</g>

<g fill="none" stroke="#000000" stroke-opacity="1" stroke-width="1" stroke-linecap="square" stroke-linejoin="bevel" transform="matrix(0.999996,0,0,-0.999996,74966.9,66978)"
font-family="MS Shell Dlg 2" font-size="10.3125" font-weight="400" font-style="normal" 
>
</g>

<g fill="none" stroke="#000000" stroke-opacity="1" stroke-width="1" stroke-linecap="square" stroke-linejoin="bevel" transform="matrix(0.999996,0,0,-0.999996,74966.9,66978)"
font-family="MS Shell Dlg 2" font-size="10.3125" font-weight="400" font-style="normal" 
>
</g>

<g fill="#ffff00" fill-opacity="0.2" stroke="#333333" stroke-opacity="1" stroke-width="1" stroke-linecap="round" stroke-linejoin="round" transform="matrix(0.999996,0,0,-0.999996,74966.9,66978)"
font-family="MS Shell Dlg 2" font-size="10.3125" font-weight="400" font-style="normal" 
>
<path vector-effect="non-scaling-stroke" fill-rule="evenodd" d="M-58533.1,57667.4 L-58532.8,57667.7 L-58532.5,57667.9 L-58532.1,57667.9 L-58531.7,57667.8 L-58206,57473.7 L-58171.6,57453.3 L-57845.9,57259.2 L-57845.6,57259 L-57845.5,57258.6 L-57845.4,57258.2 L-57845.6,57257.8 L-58967.5,55374.6 L-58967.8,55374.3 L-58968.1,55374.2 L-58968.5,55374.1 L-58968.9,55374.3 L-59294.6,55568.3 L-59329,55588.8 L-59654.7,55782.8 L-59655,55783.1 L-59655.1,55783.4 L-59655.2,55783.8 L-59655,55784.2 L-58533.1,57667.4"/>
</g>

<g fill="none" stroke="#000000" stroke-opacity="1" stroke-width="1" stroke-linecap="square" stroke-linejoin="bevel" transform="matrix(0.999996,0,0,-0.999996,74966.9,66978)"
font-family="MS Shell Dlg 2" font-size="10.3125" font-weight="400" font-style="normal" 
>
</g>

<g fill="none" stroke="#000000" stroke-opacity="1" stroke-width="1" stroke-linecap="square" stroke-linejoin="bevel" transform="matrix(0.999996,0,0,-0.999996,74966.9,66978)"
font-family="MS Shell Dlg 2" font-size="10.3125" font-weight="400" font-style="normal" 
>
</g>

<g fill="#ae5151" fill-opacity="0.2" stroke="#333333" stroke-opacity="1" stroke-width="1" stroke-linecap="round" stroke-linejoin="round" transform="matrix(0.999996,0,0,-0.999996,74966.9,66978)"
font-family="MS Shell Dlg 2" font-size="10.3125" font-weight="400" font-style="normal" 
>
<path vector-effect="non-scaling-stroke" fill-rule="evenodd" d="M-26995.4,-1529.17 L-26995.7,-1529.09 L-26996.1,-1528.87 L-26996.3,-1528.54 L-26996.3,-1528.16 L-26991.1,-1149.08 L-26991.1,-1148.02 L-26990.6,-1109.05 L-26985.4,-730.975 L-26985.4,-729.975 L-26985.3,-729.593 L-26985.1,-729.272 L-26984.8,-729.059 L-26984.4,-728.988 L-24792.5,-759.015 L-24792.1,-759.096 L-24791.8,-759.317 L-24791.6,-759.644 L-24791.5,-760.028 L-24791.5,-761.028 L-24796.7,-1139.11 L-24797.2,-1178.07 L-24797.2,-1179.13 L-24802.4,-1558.21 L-24802.5,-1558.59 L-24802.7,-1558.91 L-24803.1,-1559.12 L-24803.4,-1559.2 L-26995.4,-1529.17"/>
</g>

<g fill="none" stroke="#000000" stroke-opacity="1" stroke-width="1" stroke-linecap="square" stroke-linejoin="bevel" transform="matrix(0.999996,0,0,-0.999996,74966.9,66978)"
font-family="MS Shell Dlg 2" font-size="10.3125" font-weight="400" font-style="normal" 
>
</g>

<g fill="none" stroke="#000000" stroke-opacity="1" stroke-width="1" stroke-linecap="square" stroke-linejoin="bevel" transform="matrix(0.999996,0,0,-0.999996,74966.9,66978)"
font-family="MS Shell Dlg 2" font-size="10.3125" font-weight="400" font-style="normal" 
>
</g>

<g fill="#ae5151" fill-opacity="0.2" stroke="#333333" stroke-opacity="1" stroke-width="1" stroke-linecap="round" stroke-linejoin="round" transform="matrix(0.999996,0,0,-0.999996,74966.9,66978)"
font-family="MS Shell Dlg 2" font-size="10.3125" font-weight="400" font-style="normal" 
>
<path vector-effect="non-scaling-stroke" fill-rule="evenodd" d="M-62806.8,51548.5 L-67555.8,55696.7 L-67555.9,55696.8 L-67700.9,55853.7 L-67701,55853.8 L-74778,65384.7 L-74778.1,65384.8 L-74943.2,65729.9 L-74943.3,65730.3 L-74966.7,66112.2 L-74966.7,66112.5 L-74845,66475.2 L-74844.8,66475.6 L-74595.9,66766 L-74595.6,66766.3 L-74255.8,66942 L-74255.4,66942.1 L-73874.5,66977.4 L-73874.3,66977.4 L-62340.6,65819.3 L-62340.4,65819.3 L-61958.7,65700.7 L-61958.5,65700.6 L-55844.5,62340.8 L-55782.1,62322.5 L-55781.8,62322.4 L-55439.1,62118.1 L-55404.7,62097.6 L-55061.9,61893.4 L-55061.7,61893.3 L-54992.3,61823.5 L-52257.2,60003 L-51348.7,61668.6 L-51348.7,61668.7 L-51127.1,61944.4 L-51126.8,61944.6 L-50823.1,62125.9 L-50822.8,62126 L-50475,62190.2 L-50474.8,62190.3 L-4024.55,62413.6 L-4024.31,62413.5 L-3567.1,62305.4 L-3566.68,62305.2 L-3209.33,62000.1 L-3209.17,61999.9 L-909.038,58825.8 L4094.83,61624.1 L4425.72,61809.1 L4460.65,61828.6 L4808.91,62023.4 L4809.14,62023.5 L5289.58,62150.7 L5289.83,62150.7 L5289.89,62150.7 L5290.07,62150.7 L5339.22,62142.2 L11306.2,64180.9 L11306.3,64180.9 L11514.8,64228 L11514.9,64228 L23307.3,65591.5 L23307.5,65591.5 L23688.9,65561.9 L23689.3,65561.8 L24031.7,65391.2 L24032,65391 L24285.3,65104.3 L24285.5,65103.9 L24412.6,64743.1 L24412.6,64742.7 L24394.9,64360.6 L24394.9,64360.2 L24235,64012.7 L24234.9,64012.5 L17465.1,54603 L17464.9,54602.9 L17171.4,54331.6 L17171.2,54331.5 L11204.5,50716.5 L11157.4,50671.6 L11157.2,50671.5 L10809,50476.7 L10774,50457.2 L10425.8,50262.5 L10425.5,50262.4 L10330.4,50237.2 L6639.5,48408.8 L7956.75,46591 L7956.85,46590.8 L8115.64,46252.9 L8115.73,46252.5 L8139.5,45879.9 L8139.45,45879.5 L8024.87,45524.1 L8024.79,45524 L-15870.3,1753.54 L-15870.4,1753.39 L-16096.2,1474.22 L-16096.5,1473.99 L-16406.4,1292.61 L-16406.8,1292.48 L-16760.8,1232.27 L-16760.9,1232.26 L-19357.1,1263.54 L-19385.9,-834.078 L-19391.1,-1213.16 L-19391.6,-1253.18 L-19397.1,-1652.16 L-19397.1,-1652.41 L-19527.2,-2132.07 L-19527.3,-2132.3 L-19527.3,-2132.35 L-19527.4,-2132.5 L-19559.3,-2170.84 L-20777.3,-8357.72 L-20777.3,-8357.83 L-20840.8,-8561.89 L-20840.8,-8561.99 L-25556.2,-19456.3 L-25556.3,-19456.5 L-25772.6,-19772 L-25772.9,-19772.3 L-26091.9,-19983.5 L-26092.2,-19983.6 L-26467.2,-20059.6 L-26467.5,-20059.6 L-26843.6,-19989.3 L-26843.9,-19989.1 L-27166,-19782.7 L-27166.3,-19782.5 L-27387.3,-19470.2 L-27387.4,-19470.1 L-32151.3,-8902.53 L-32151.4,-8902.34 L-32239.5,-8512.48 L-32239.6,-8512.28 L-32386.9,-1537.47 L-32402.2,-1474.25 L-32402.3,-1474 L-32396.8,-1075.03 L-32396.2,-1035 L-32390.8,-636.027 L-32390.7,-635.779 L-32365,-540.828 L-32240.1,1418.75 L-35296.4,1455.58 L-35296.5,1455.59 L-35630.8,1517.39 L-35631.1,1517.51 L-35925.3,1687.69 L-35925.6,1687.91 L-36145.8,1946.81 L-36145.9,1946.95 L-60711,43484.2 L-60711,43484.3 L-60832.4,43804.9 L-60832.4,43805.3 L-60838.4,44148 L-60838.3,44148.3 L-60728.2,44472.9 L-60728.1,44473.1 L-58399.5,48742.2 L-61735.9,50729.9 L-62061.5,50923.9 L-62095.9,50944.4 L-62438.7,51148.6 L-62438.9,51148.8 L-62789.3,51501.2 L-62789.4,51501.4 L-62789.5,51501.5 L-62789.5,51501.7 L-62806.8,51548.5 M-61925.1,52008.9 L-61583.1,51805.2 L-61549.6,51785.3 L-61548.7,51784.7 L-61223,51590.7 L-57058.7,49109.8 L-57058.5,49109.5 L-57058.3,49109.2 L-57058.3,49108.8 L-57058.4,49108.4 L-57058.9,49107.5 L-59848.2,43993.8 L-35283.7,2457.5 L-31175,2407.99 L-31174,2407.98 L-31173.7,2407.9 L-31173.3,2407.66 L-31173.1,2407.32 L-31173.1,2406.92 L-31367.9,-650.032 L-31368,-650.398 L-31368.2,-650.702 L-31368.6,-650.902 L-31368.9,-650.968 L-31388.9,-650.695 L-31394.3,-1048.73 L-31394.3,-1049.79 L-31394.9,-1088.75 L-31400.3,-1486.79 L-31387.8,-1486.96 L-31386.7,-1486.97 L-31386.4,-1487.05 L-31386,-1487.26 L-31385.8,-1487.58 L-31385.7,-1487.95 L-31237.8,-8490.92 L-26474.9,-19056.2 L-21760.4,-8164.08 L-20475.5,-1637.26 L-20475.4,-1636.94 L-20475.2,-1636.68 L-20474.8,-1636.51 L-20474.5,-1636.45 L-20473.3,-1636.47 L-20399,-1637.49 L-20393.5,-1239.45 L-20393,-1200.49 L-20393,-1199.43 L-20387.8,-820.353 L-20345.3,2276.52 L-20345.3,2276.9 L-20345,2277.22 L-20344.7,2277.43 L-20344.3,2277.5 L-20343.3,2277.49 L-16749.5,2234.19 L7145.01,46003.5 L5133.87,48778.9 L5133.38,48779.6 L5133.21,48780 L5133.22,48780.4 L5133.41,48780.8 L5133.74,48781.1 L9926.47,51155.3 L9926.83,51155.4 L9927.21,51155.3 L9927.54,51155.2 L9927.78,51154.9 L9937.52,51137.5 L10285,51331.7 L10285.9,51332.3 L10319.9,51351.3 L10667.3,51545.6 L10661.2,51556.5 L10660.7,51557.4 L10660.6,51557.8 L10660.6,51558.2 L10660.8,51558.5 L10661,51558.8 L16651.8,55188.4 L23420.2,64595.8 L11630.1,63232.7 L5335.23,61082 L5334.89,61081.9 L5334.55,61082 L5334.25,61082.2 L5334.03,61082.5 L5333.45,61083.5 L5297.15,61148.4 L4949.72,60954.1 L4915.71,60935.1 L4914.79,60934.6 L4583.9,60749.5 L-1196.83,57516.8 L-1197.17,57516.7 L-1197.53,57516.7 L-1197.87,57516.8 L-1198.13,57517.1 L-1198.79,57518 L-4020.24,61411.6 L-50469.4,61188.3 L-51900.6,58564.4 L-51901,58563.6 L-51901.3,58563.3 L-51901.7,58563.1 L-51902.1,58563.1 L-51902.4,58563.3 L-55585.4,61014.6 L-55585.7,61014.9 L-55585.9,61015.2 L-55585.9,61015.6 L-55585.7,61016 L-55575.5,61033.1 L-55917.5,61236.8 L-55918.4,61237.4 L-55951.9,61257.3 L-56293.9,61461.1 L-56300.3,61450.3 L-56300.8,61449.4 L-56301.1,61449.1 L-56301.4,61448.9 L-56301.8,61448.9 L-56302.2,61449 L-62440.9,64822.4 L-73972.2,65980.2 L-66896.6,56451.3 L-61886.6,52075.1 L-61886.4,52074.8 L-61886.3,52074.5 L-61886.3,52074.2 L-61886.4,52073.9 L-61887,52072.8 L-61925.1,52008.9"/>
</g>

<g fill="none" stroke="#000000" stroke-opacity="1" stroke-width="1" stroke-linecap="square" stroke-linejoin="bevel" transform="matrix(0.999996,0,0,-0.999996,74966.9,66978)"
font-family="MS Shell Dlg 2" font-size="10.3125" font-weight="400" font-style="normal" 
>
</g>

<g fill="none" stroke="#000000" stroke-opacity="1" stroke-width="1" stroke-linecap="square" stroke-linejoin="bevel" transform="matrix(0.999996,0,0,-0.999996,74966.9,66978)"
font-family="MS Shell Dlg 2" font-size="10.3125" font-weight="400" font-style="normal" 
>
</g>

<g fill="#ae5151" fill-opacity="0.2" stroke="#333333" stroke-opacity="1" stroke-width="1" stroke-linecap="round" stroke-linejoin="round" transform="matrix(0.999996,0,0,-0.999996,74966.9,66978)"
font-family="MS Shell Dlg 2" font-size="10.3125" font-weight="400" font-style="normal" 
>
<path vector-effect="non-scaling-stroke" fill-rule="evenodd" d="M7064.41,57090.7 L7098.42,57109.7 L7099.34,57110.2 L7430.23,57295.2 L7430.6,57295.4 L7430.99,57295.3 L7431.34,57295.2 L7431.59,57294.9 L8501.54,55381.6 L8501.66,55381.2 L8501.63,55380.8 L8501.46,55380.5 L8501.16,55380.2 L8170.27,55195.2 L8169.35,55194.7 L8135.34,55175.7 L7805.32,54991.1 L7804.45,54990.6 L7804.07,54990.5 L7803.69,54990.5 L7803.34,54990.7 L7803.09,54991 L6733.14,56904.3 L6733.01,56904.6 L6733.05,56905 L6733.22,56905.4 L6733.52,56905.6 L6734.39,56906.1 L7064.41,57090.7"/>
</g>

<g fill="none" stroke="#000000" stroke-opacity="1" stroke-width="1" stroke-linecap="square" stroke-linejoin="bevel" transform="matrix(0.999996,0,0,-0.999996,74966.9,66978)"
font-family="MS Shell Dlg 2" font-size="10.3125" font-weight="400" font-style="normal" 
>
</g>

<g fill="none" stroke="#000000" stroke-opacity="1" stroke-width="1" stroke-linecap="square" stroke-linejoin="bevel" transform="matrix(0.999996,0,0,-0.999996,74966.9,66978)"
font-family="MS Shell Dlg 2" font-size="10.3125" font-weight="400" font-style="normal" 
>
</g>

<g fill="#ae5151" fill-opacity="0.2" stroke="#333333" stroke-opacity="1" stroke-width="1" stroke-linecap="round" stroke-linejoin="round" transform="matrix(0.999996,0,0,-0.999996,74966.9,66978)"
font-family="MS Shell Dlg 2" font-size="10.3125" font-weight="400" font-style="normal" 
>
<path vector-effect="non-scaling-stroke" fill-rule="evenodd" d="M-58533.1,57667.4 L-58532.8,57667.7 L-58532.5,57667.9 L-58532.1,57667.9 L-58531.7,57667.8 L-58206,57473.7 L-58205.1,57473.2 L-58171.6,57453.3 L-57846.8,57259.7 L-57845.9,57259.2 L-57845.6,57259 L-57845.5,57258.6 L-57845.4,57258.2 L-57845.6,57257.8 L-58967.5,55374.6 L-58967.8,55374.3 L-58968.1,55374.2 L-58968.5,55374.1 L-58968.9,55374.3 L-58969.8,55374.8 L-59294.6,55568.3 L-59328.1,55588.2 L-59329,55588.8 L-59654.7,55782.8 L-59655,55783.1 L-59655.1,55783.4 L-59655.2,55783.8 L-59655,55784.2 L-58533.1,57667.4"/>
</g>

<g fill="none" stroke="#000000" stroke-opacity="1" stroke-width="1" stroke-linecap="square" stroke-linejoin="bevel" transform="matrix(0.999996,0,0,-0.999996,74966.9,66978)"
font-family="MS Shell Dlg 2" font-size="10.3125" font-weight="400" font-style="normal" 
>
</g>

<g fill="none" stroke="#000000" stroke-opacity="1" stroke-width="1" stroke-linecap="square" stroke-linejoin="bevel" transform="matrix(0.999996,0,0,-0.999996,74966.9,66978)"
font-family="MS Shell Dlg 2" font-size="10.3125" font-weight="400" font-style="normal" 
>
</g>

<g fill="#333333" fill-opacity="0.2" stroke="#333333" stroke-opacity="1" stroke-width="1" stroke-linecap="round" stroke-linejoin="round" transform="matrix(0.999996,0,0,-0.999996,74966.9,66978)"
font-family="MS Shell Dlg 2" font-size="10.3125" font-weight="400" font-style="normal" 
>
<path vector-effect="non-scaling-stroke" fill-rule="evenodd" d="M-26995.4,-1529.17 L-26995.7,-1529.09 L-26996.1,-1528.87 L-26996.3,-1528.54 L-26996.3,-1528.16 L-26991.1,-1149.08 L-26991.1,-1148.02 L-26990.6,-1109.05 L-26985.4,-730.975 L-26985.4,-729.975 L-26985.3,-729.593 L-26985.1,-729.272 L-26984.8,-729.059 L-26984.4,-728.988 L-24792.5,-759.015 L-24792.1,-759.096 L-24791.8,-759.317 L-24791.6,-759.644 L-24791.5,-760.028 L-24791.5,-761.028 L-24796.7,-1139.11 L-24797.2,-1178.07 L-24797.2,-1179.13 L-24802.4,-1558.21 L-24802.5,-1558.59 L-24802.7,-1558.91 L-24803.1,-1559.12 L-24803.4,-1559.2 L-26995.4,-1529.17"/>
</g>

<g fill="none" stroke="#000000" stroke-opacity="1" stroke-width="1" stroke-linecap="square" stroke-linejoin="bevel" transform="matrix(0.999996,0,0,-0.999996,74966.9,66978)"
font-family="MS Shell Dlg 2" font-size="10.3125" font-weight="400" font-style="normal" 
>
</g>

<g fill="none" stroke="#000000" stroke-opacity="1" stroke-width="1" stroke-linecap="square" stroke-linejoin="bevel" transform="matrix(0.999996,0,0,-0.999996,74966.9,66978)"
font-family="MS Shell Dlg 2" font-size="10.3125" font-weight="400" font-style="normal" 
>
</g>

<g fill="#333333" fill-opacity="0.2" stroke="#333333" stroke-opacity="1" stroke-width="1" stroke-linecap="round" stroke-linejoin="round" transform="matrix(0.999996,0,0,-0.999996,74966.9,66978)"
font-family="MS Shell Dlg 2" font-size="10.3125" font-weight="400" font-style="normal" 
>
<path vector-effect="non-scaling-stroke" fill-rule="evenodd" d="M-62806.8,51548.5 L-67555.8,55696.7 L-67555.9,55696.8 L-67700.9,55853.7 L-67701,55853.8 L-74778,65384.7 L-74778.1,65384.8 L-74943.2,65729.9 L-74943.3,65730.3 L-74966.7,66112.2 L-74966.7,66112.5 L-74845,66475.2 L-74844.8,66475.6 L-74595.9,66766 L-74595.6,66766.3 L-74255.8,66942 L-74255.4,66942.1 L-73874.5,66977.4 L-73874.3,66977.4 L-62340.6,65819.3 L-62340.4,65819.3 L-61958.7,65700.7 L-61958.5,65700.6 L-55844.5,62340.8 L-55782.1,62322.5 L-55781.8,62322.4 L-55439.1,62118.1 L-55404.7,62097.6 L-55061.9,61893.4 L-55061.7,61893.3 L-54992.3,61823.5 L-52257.2,60003 L-51348.7,61668.6 L-51348.7,61668.7 L-51127.1,61944.4 L-51126.8,61944.6 L-50823.1,62125.9 L-50822.8,62126 L-50475,62190.2 L-50474.8,62190.3 L-4024.55,62413.6 L-4024.31,62413.5 L-3567.1,62305.4 L-3566.68,62305.2 L-3209.33,62000.1 L-3209.17,61999.9 L-909.038,58825.8 L4094.83,61624.1 L4425.72,61809.1 L4460.65,61828.6 L4808.91,62023.4 L4809.14,62023.5 L5289.58,62150.7 L5289.83,62150.7 L5289.89,62150.7 L5290.07,62150.7 L5339.22,62142.2 L11306.2,64180.9 L11306.3,64180.9 L11514.8,64228 L11514.9,64228 L23307.3,65591.5 L23307.5,65591.5 L23688.9,65561.9 L23689.3,65561.8 L24031.7,65391.2 L24032,65391 L24285.3,65104.3 L24285.5,65103.9 L24412.6,64743.1 L24412.6,64742.7 L24394.9,64360.6 L24394.9,64360.2 L24235,64012.7 L24234.9,64012.5 L17465.1,54603 L17464.9,54602.9 L17171.4,54331.6 L17171.2,54331.5 L11204.5,50716.5 L11157.4,50671.6 L11157.2,50671.5 L10809,50476.7 L10774,50457.2 L10425.8,50262.5 L10425.5,50262.4 L10330.4,50237.2 L6639.5,48408.8 L7956.75,46591 L7956.85,46590.8 L8115.64,46252.9 L8115.73,46252.5 L8139.5,45879.9 L8139.45,45879.5 L8024.87,45524.1 L8024.79,45524 L-15870.3,1753.54 L-15870.4,1753.39 L-16096.2,1474.22 L-16096.5,1473.99 L-16406.4,1292.61 L-16406.8,1292.48 L-16760.8,1232.27 L-16760.9,1232.26 L-19357.1,1263.54 L-19385.9,-834.078 L-19391.1,-1213.16 L-19391.6,-1253.18 L-19397.1,-1652.16 L-19397.1,-1652.41 L-19527.2,-2132.07 L-19527.3,-2132.3 L-19527.3,-2132.35 L-19527.4,-2132.5 L-19559.3,-2170.84 L-20777.3,-8357.72 L-20777.3,-8357.83 L-20840.8,-8561.89 L-20840.8,-8561.99 L-25556.2,-19456.3 L-25556.3,-19456.5 L-25772.6,-19772 L-25772.9,-19772.3 L-26091.9,-19983.5 L-26092.2,-19983.6 L-26467.2,-20059.6 L-26467.5,-20059.6 L-26843.6,-19989.3 L-26843.9,-19989.1 L-27166,-19782.7 L-27166.3,-19782.5 L-27387.3,-19470.2 L-27387.4,-19470.1 L-32151.3,-8902.53 L-32151.4,-8902.34 L-32239.5,-8512.48 L-32239.6,-8512.28 L-32386.9,-1537.47 L-32402.2,-1474.25 L-32402.3,-1474 L-32396.8,-1075.03 L-32396.2,-1035 L-32390.8,-636.027 L-32390.7,-635.779 L-32365,-540.828 L-32240.1,1418.75 L-35296.4,1455.58 L-35296.5,1455.59 L-35630.8,1517.39 L-35631.1,1517.51 L-35925.3,1687.69 L-35925.6,1687.91 L-36145.8,1946.81 L-36145.9,1946.95 L-60711,43484.2 L-60711,43484.3 L-60832.4,43804.9 L-60832.4,43805.3 L-60838.4,44148 L-60838.3,44148.3 L-60728.2,44472.9 L-60728.1,44473.1 L-58399.5,48742.2 L-61735.9,50729.9 L-62061.5,50923.9 L-62095.9,50944.4 L-62438.7,51148.6 L-62438.9,51148.8 L-62789.3,51501.2 L-62789.4,51501.4 L-62789.5,51501.5 L-62789.5,51501.7 L-62806.8,51548.5 M-61925.1,52008.9 L-61583.1,51805.2 L-61549.6,51785.3 L-61548.7,51784.7 L-61223,51590.7 L-57058.7,49109.8 L-57058.5,49109.5 L-57058.3,49109.2 L-57058.3,49108.8 L-57058.4,49108.4 L-57058.9,49107.5 L-59848.2,43993.8 L-35283.7,2457.5 L-31175,2407.99 L-31174,2407.98 L-31173.7,2407.9 L-31173.3,2407.66 L-31173.1,2407.32 L-31173.1,2406.92 L-31367.9,-650.032 L-31368,-650.398 L-31368.2,-650.702 L-31368.6,-650.902 L-31368.9,-650.968 L-31388.9,-650.695 L-31394.3,-1048.73 L-31394.3,-1049.79 L-31394.9,-1088.75 L-31400.3,-1486.79 L-31387.8,-1486.96 L-31386.7,-1486.97 L-31386.4,-1487.05 L-31386,-1487.26 L-31385.8,-1487.58 L-31385.7,-1487.95 L-31237.8,-8490.92 L-26474.9,-19056.2 L-21760.4,-8164.08 L-20475.5,-1637.26 L-20475.4,-1636.94 L-20475.2,-1636.68 L-20474.8,-1636.51 L-20474.5,-1636.45 L-20473.3,-1636.47 L-20399,-1637.49 L-20393.5,-1239.45 L-20393,-1200.49 L-20393,-1199.43 L-20387.8,-820.353 L-20345.3,2276.52 L-20345.3,2276.9 L-20345,2277.22 L-20344.7,2277.43 L-20344.3,2277.5 L-20343.3,2277.49 L-16749.5,2234.19 L7145.01,46003.5 L5133.87,48778.9 L5133.38,48779.6 L5133.21,48780 L5133.22,48780.4 L5133.41,48780.8 L5133.74,48781.1 L9926.47,51155.3 L9926.83,51155.4 L9927.21,51155.3 L9927.54,51155.2 L9927.78,51154.9 L9937.52,51137.5 L10285,51331.7 L10285.9,51332.3 L10319.9,51351.3 L10667.3,51545.6 L10661.2,51556.5 L10660.7,51557.4 L10660.6,51557.8 L10660.6,51558.2 L10660.8,51558.5 L10661,51558.8 L16651.8,55188.4 L23420.2,64595.8 L11630.1,63232.7 L5335.23,61082 L5334.89,61081.9 L5334.55,61082 L5334.25,61082.2 L5334.03,61082.5 L5333.45,61083.5 L5297.15,61148.4 L4949.72,60954.1 L4915.71,60935.1 L4914.79,60934.6 L4583.9,60749.5 L-1196.83,57516.8 L-1197.17,57516.7 L-1197.53,57516.7 L-1197.87,57516.8 L-1198.13,57517.1 L-1198.79,57518 L-4020.24,61411.6 L-50469.4,61188.3 L-51900.6,58564.4 L-51901,58563.6 L-51901.3,58563.3 L-51901.7,58563.1 L-51902.1,58563.1 L-51902.4,58563.3 L-55585.4,61014.6 L-55585.7,61014.9 L-55585.9,61015.2 L-55585.9,61015.6 L-55585.7,61016 L-55575.5,61033.1 L-55917.5,61236.8 L-55918.4,61237.4 L-55951.9,61257.3 L-56293.9,61461.1 L-56300.3,61450.3 L-56300.8,61449.4 L-56301.1,61449.1 L-56301.4,61448.9 L-56301.8,61448.9 L-56302.2,61449 L-62440.9,64822.4 L-73972.2,65980.2 L-66896.6,56451.3 L-61886.6,52075.1 L-61886.4,52074.8 L-61886.3,52074.5 L-61886.3,52074.2 L-61886.4,52073.9 L-61887,52072.8 L-61925.1,52008.9"/>
</g>

<g fill="none" stroke="#000000" stroke-opacity="1" stroke-width="1" stroke-linecap="square" stroke-linejoin="bevel" transform="matrix(0.999996,0,0,-0.999996,74966.9,66978)"
font-family="MS Shell Dlg 2" font-size="10.3125" font-weight="400" font-style="normal" 
>
</g>

<g fill="none" stroke="#000000" stroke-opacity="1" stroke-width="1" stroke-linecap="square" stroke-linejoin="bevel" transform="matrix(0.999996,0,0,-0.999996,74966.9,66978)"
font-family="MS Shell Dlg 2" font-size="10.3125" font-weight="400" font-style="normal" 
>
</g>

<g fill="#333333" fill-opacity="0.2" stroke="#333333" stroke-opacity="1" stroke-width="1" stroke-linecap="round" stroke-linejoin="round" transform="matrix(0.999996,0,0,-0.999996,74966.9,66978)"
font-family="MS Shell Dlg 2" font-size="10.3125" font-weight="400" font-style="normal" 
>
<path vector-effect="non-scaling-stroke" fill-rule="evenodd" d="M7064.41,57090.7 L7098.42,57109.7 L7099.34,57110.2 L7430.23,57295.2 L7430.6,57295.4 L7430.99,57295.3 L7431.34,57295.2 L7431.59,57294.9 L8501.54,55381.6 L8501.66,55381.2 L8501.63,55380.8 L8501.46,55380.5 L8501.16,55380.2 L8170.27,55195.2 L8169.35,55194.7 L8135.34,55175.7 L7805.32,54991.1 L7804.45,54990.6 L7804.07,54990.5 L7803.69,54990.5 L7803.34,54990.7 L7803.09,54991 L6733.14,56904.3 L6733.01,56904.6 L6733.05,56905 L6733.22,56905.4 L6733.52,56905.6 L6734.39,56906.1 L7064.41,57090.7"/>
</g>

<g fill="none" stroke="#000000" stroke-opacity="1" stroke-width="1" stroke-linecap="square" stroke-linejoin="bevel" transform="matrix(0.999996,0,0,-0.999996,74966.9,66978)"
font-family="MS Shell Dlg 2" font-size="10.3125" font-weight="400" font-style="normal" 
>
</g>

<g fill="none" stroke="#000000" stroke-opacity="1" stroke-width="1" stroke-linecap="square" stroke-linejoin="bevel" transform="matrix(0.999996,0,0,-0.999996,74966.9,66978)"
font-family="MS Shell Dlg 2" font-size="10.3125" font-weight="400" font-style="normal" 
>
</g>

<g fill="#333333" fill-opacity="0.2" stroke="#333333" stroke-opacity="1" stroke-width="1" stroke-linecap="round" stroke-linejoin="round" transform="matrix(0.999996,0,0,-0.999996,74966.9,66978)"
font-family="MS Shell Dlg 2" font-size="10.3125" font-weight="400" font-style="normal" 
>
<path vector-effect="non-scaling-stroke" fill-rule="evenodd" d="M-58533.1,57667.4 L-58532.8,57667.7 L-58532.5,57667.9 L-58532.1,57667.9 L-58531.7,57667.8 L-58206,57473.7 L-58205.1,57473.2 L-58171.6,57453.3 L-57846.8,57259.7 L-57845.9,57259.2 L-57845.6,57259 L-57845.5,57258.6 L-57845.4,57258.2 L-57845.6,57257.8 L-58967.5,55374.6 L-58967.8,55374.3 L-58968.1,55374.2 L-58968.5,55374.1 L-58968.9,55374.3 L-58969.8,55374.8 L-59294.6,55568.3 L-59328.1,55588.2 L-59329,55588.8 L-59654.7,55782.8 L-59655,55783.1 L-59655.1,55783.4 L-59655.2,55783.8 L-59655,55784.2 L-58533.1,57667.4"/>
</g>

<g fill="none" stroke="#000000" stroke-opacity="1" stroke-width="1" stroke-linecap="square" stroke-linejoin="bevel" transform="matrix(0.999996,0,0,-0.999996,74966.9,66978)"
font-family="MS Shell Dlg 2" font-size="10.3125" font-weight="400" font-style="normal" 
>
</g>

<g fill="none" stroke="#000000" stroke-opacity="1" stroke-width="1" stroke-linecap="square" stroke-linejoin="bevel" transform="matrix(0.999996,0,0,-0.999996,74966.9,66978)"
font-family="MS Shell Dlg 2" font-size="10.3125" font-weight="400" font-style="normal" 
>
</g>

<g fill="#ae5151" fill-opacity="0.2" stroke="#333333" stroke-opacity="1" stroke-width="1" stroke-linecap="round" stroke-linejoin="round" transform="matrix(0.999996,0,0,-0.999996,74966.9,66978)"
font-family="MS Shell Dlg 2" font-size="10.3125" font-weight="400" font-style="normal" 
>
<path vector-effect="non-scaling-stroke" fill-rule="evenodd" d="M-26996.3,-1528.25 L-26996.3,-1528.06 L-26991.1,-1149.08 L-26990.6,-1109.05 L-26985.4,-730.073 L-26985.4,-729.878 L-26985.4,-729.796 L-26985.2,-729.438 L-26984.9,-729.166 L-26984.6,-729.021 L-26984.5,-729.006 L-26984.3,-728.99 L-24792.6,-759.013 L-24792.4,-759.035 L-24792.3,-759.053 L-24791.9,-759.207 L-24791.7,-759.486 L-24791.5,-759.849 L-24791.5,-759.931 L-24791.5,-760.127 L-24796.7,-1139.11 L-24797.2,-1179.13 L-24802.4,-1558.11 L-24802.5,-1558.31 L-24802.5,-1558.39 L-24802.6,-1558.75 L-24802.9,-1559.02 L-24803.3,-1559.16 L-24803.3,-1559.18 L-24803.5,-1559.19 L-26995.3,-1529.17 L-26995.4,-1529.15 L-26995.5,-1529.13 L-26995.9,-1528.98 L-26996.2,-1528.7 L-26996.3,-1528.33 L-26996.3,-1528.25"/>
</g>

<g fill="none" stroke="#000000" stroke-opacity="1" stroke-width="1" stroke-linecap="square" stroke-linejoin="bevel" transform="matrix(0.999996,0,0,-0.999996,74966.9,66978)"
font-family="MS Shell Dlg 2" font-size="10.3125" font-weight="400" font-style="normal" 
>
</g>

<g fill="none" stroke="#000000" stroke-opacity="1" stroke-width="1" stroke-linecap="square" stroke-linejoin="bevel" transform="matrix(0.999996,0,0,-0.999996,74966.9,66978)"
font-family="MS Shell Dlg 2" font-size="10.3125" font-weight="400" font-style="normal" 
>
</g>

<g fill="#ae5151" fill-opacity="0.2" stroke="#333333" stroke-opacity="1" stroke-width="1" stroke-linecap="round" stroke-linejoin="round" transform="matrix(0.999996,0,0,-0.999996,74966.9,66978)"
font-family="MS Shell Dlg 2" font-size="10.3125" font-weight="400" font-style="normal" 
>
<path vector-effect="non-scaling-stroke" fill-rule="evenodd" d="M-62806.8,51548.5 L-67555.8,55696.7 L-67555.9,55696.8 L-67700.9,55853.7 L-67701,55853.8 L-74778,65384.7 L-74778.1,65384.8 L-74943.2,65729.9 L-74943.3,65730.3 L-74966.7,66112.2 L-74966.7,66112.5 L-74845,66475.2 L-74844.8,66475.6 L-74595.9,66766 L-74595.6,66766.3 L-74255.8,66942 L-74255.4,66942.1 L-73874.5,66977.4 L-73874.3,66977.4 L-62340.6,65819.3 L-62340.4,65819.3 L-61958.7,65700.7 L-61958.5,65700.6 L-55844.5,62340.8 L-55782.1,62322.5 L-55781.8,62322.4 L-55439.1,62118.1 L-55404.7,62097.6 L-55061.9,61893.4 L-55061.7,61893.3 L-54992.3,61823.5 L-52257.2,60003 L-51348.7,61668.6 L-51348.7,61668.7 L-51127.1,61944.4 L-51126.8,61944.6 L-50823.1,62125.9 L-50822.8,62126 L-50475,62190.2 L-50474.8,62190.3 L-4024.55,62413.6 L-4024.31,62413.5 L-3567.1,62305.4 L-3566.68,62305.2 L-3209.33,62000.1 L-3209.17,61999.9 L-909.038,58825.8 L4094.83,61624.1 L4425.72,61809.1 L4460.65,61828.6 L4808.91,62023.4 L4809.14,62023.5 L5289.58,62150.7 L5289.83,62150.7 L5289.89,62150.7 L5290.07,62150.7 L5339.22,62142.2 L11306.2,64180.9 L11306.3,64180.9 L11514.8,64228 L11514.9,64228 L23307.3,65591.5 L23307.5,65591.5 L23688.9,65561.9 L23689.3,65561.8 L24031.7,65391.2 L24032,65391 L24285.3,65104.3 L24285.5,65103.9 L24412.6,64743.1 L24412.6,64742.7 L24394.9,64360.6 L24394.9,64360.2 L24235,64012.7 L24234.9,64012.5 L17465.1,54603 L17464.9,54602.9 L17171.4,54331.6 L17171.2,54331.5 L11204.5,50716.5 L11157.4,50671.6 L11157.2,50671.5 L10809,50476.7 L10774,50457.2 L10425.8,50262.5 L10425.5,50262.4 L10330.4,50237.2 L6639.5,48408.8 L7956.75,46591 L7956.85,46590.8 L8115.64,46252.9 L8115.73,46252.5 L8139.5,45879.9 L8139.45,45879.5 L8024.87,45524.1 L8024.79,45524 L-15870.3,1753.54 L-15870.4,1753.39 L-16096.2,1474.22 L-16096.5,1473.99 L-16406.4,1292.61 L-16406.8,1292.48 L-16760.8,1232.27 L-16760.9,1232.26 L-19357.1,1263.54 L-19385.9,-834.078 L-19391.1,-1213.16 L-19391.6,-1253.18 L-19397.1,-1652.16 L-19397.1,-1652.41 L-19527.2,-2132.07 L-19527.3,-2132.3 L-19527.3,-2132.35 L-19527.4,-2132.5 L-19559.3,-2170.84 L-20777.3,-8357.72 L-20777.3,-8357.83 L-20840.8,-8561.89 L-20840.8,-8561.99 L-25556.2,-19456.3 L-25556.3,-19456.5 L-25772.6,-19772 L-25772.9,-19772.3 L-26091.9,-19983.5 L-26092.2,-19983.6 L-26467.2,-20059.6 L-26467.5,-20059.6 L-26843.6,-19989.3 L-26843.9,-19989.1 L-27166,-19782.7 L-27166.3,-19782.5 L-27387.3,-19470.2 L-27387.4,-19470.1 L-32151.3,-8902.53 L-32151.4,-8902.34 L-32239.5,-8512.48 L-32239.6,-8512.28 L-32386.9,-1537.47 L-32402.2,-1474.25 L-32402.3,-1474 L-32396.8,-1075.03 L-32396.2,-1035 L-32390.8,-636.027 L-32390.7,-635.779 L-32365,-540.828 L-32240.1,1418.75 L-35296.4,1455.58 L-35296.5,1455.59 L-35630.8,1517.39 L-35631.1,1517.51 L-35925.3,1687.69 L-35925.6,1687.91 L-36145.8,1946.81 L-36145.9,1946.95 L-60711,43484.2 L-60711,43484.3 L-60832.4,43804.9 L-60832.4,43805.3 L-60838.4,44148 L-60838.3,44148.3 L-60728.2,44472.9 L-60728.1,44473.1 L-58399.5,48742.2 L-61735.9,50729.9 L-62061.5,50923.9 L-62095.9,50944.4 L-62438.7,51148.6 L-62438.9,51148.8 L-62789.3,51501.2 L-62789.4,51501.4 L-62789.5,51501.5 L-62789.5,51501.7 L-62806.8,51548.5 M-73972.2,65980.2 L-66896.6,56451.3 L-61886.7,52075.2 L-61886.6,52075 L-61886.5,52075 L-61886.3,52074.7 L-61886.3,52074.3 L-61886.3,52074 L-61886.4,52073.9 L-61886.5,52073.8 L-61925.1,52008.9 L-61583.1,51805.2 L-61548.7,51784.7 L-61223,51590.7 L-57058.8,49109.8 L-57058.7,49109.7 L-57058.6,49109.7 L-57058.4,49109.4 L-57058.3,49109 L-57058.3,49108.6 L-57058.4,49108.5 L-57058.4,49108.4 L-59848.2,43993.8 L-35283.7,2457.5 L-31174.1,2407.98 L-31173.9,2407.96 L-31173.9,2407.94 L-31173.5,2407.78 L-31173.2,2407.48 L-31173.1,2407.1 L-31173.1,2407.02 L-31173.1,2406.82 L-31367.9,-649.937 L-31367.9,-650.124 L-31368,-650.204 L-31368.1,-650.545 L-31368.4,-650.802 L-31368.8,-650.937 L-31368.8,-650.951 L-31369,-650.967 L-31388.9,-650.695 L-31394.3,-1048.73 L-31394.9,-1088.75 L-31400.3,-1486.79 L-31386.8,-1486.97 L-31386.6,-1486.99 L-31386.6,-1487.01 L-31386.2,-1487.16 L-31385.9,-1487.42 L-31385.8,-1487.78 L-31385.8,-1487.86 L-31385.7,-1488.05 L-31237.8,-8490.92 L-26474.9,-19056.2 L-21760.4,-8164.08 L-20475.5,-1637.35 L-20475.5,-1637.18 L-20475.4,-1637.11 L-20475.3,-1636.81 L-20475,-1636.59 L-20474.7,-1636.48 L-20474.6,-1636.47 L-20474.4,-1636.46 L-20399,-1637.49 L-20393.5,-1239.45 L-20393,-1199.43 L-20387.8,-820.353 L-20345.3,2276.42 L-20345.3,2276.61 L-20345.3,2276.7 L-20345.2,2277.05 L-20344.9,2277.33 L-20344.5,2277.47 L-20344.4,2277.49 L-20344.2,2277.5 L-16749.5,2234.19 L7145.01,46003.5 L5133.44,48779.5 L5133.33,48779.7 L5133.3,48779.8 L5133.22,48780.2 L5133.32,48780.6 L5133.59,48780.9 L5133.66,48781 L5133.84,48781.1 L9926.38,51155.2 L9926.56,51155.3 L9926.64,51155.3 L9927.02,51155.4 L9927.38,51155.2 L9927.67,51155 L9927.72,51154.9 L9927.83,51154.8 L9937.52,51137.5 L10285,51331.7 L10319.9,51351.3 L10667.3,51545.6 L10660.7,51557.4 L10660.7,51557.5 L10660.6,51557.6 L10660.6,51558 L10660.7,51558.4 L10660.9,51558.7 L10661,51558.7 L10661.1,51558.8 L16651.8,55188.4 L23420.2,64595.8 L11630.1,63232.7 L5335.31,61082 L5335.14,61082 L5335.07,61082 L5334.72,61082 L5334.4,61082.1 L5334.14,61082.3 L5334.09,61082.4 L5333.99,61082.5 L5297.15,61148.4 L4949.72,60954.1 L4914.79,60934.6 L4583.9,60749.5 L-1196.75,57516.8 L-1196.92,57516.7 L-1196.99,57516.7 L-1197.35,57516.7 L-1197.7,57516.7 L-1198,57516.9 L-1198.06,57517 L-1198.18,57517.1 L-4020.24,61411.6 L-50469.4,61188.3 L-51901,58563.7 L-51901.1,58563.5 L-51901.1,58563.5 L-51901.5,58563.2 L-51901.9,58563.1 L-51902.3,58563.2 L-51902.3,58563.2 L-51902.5,58563.3 L-55585.4,61014.6 L-55585.5,61014.7 L-55585.6,61014.7 L-55585.8,61015 L-55585.9,61015.4 L-55585.8,61015.8 L-55585.8,61015.9 L-55585.7,61016 L-55575.5,61033.1 L-55917.5,61236.8 L-55951.9,61257.3 L-56293.9,61461.1 L-56300.8,61449.5 L-56300.9,61449.3 L-56301,61449.2 L-56301.3,61449 L-56301.6,61448.9 L-56302,61449 L-56302.1,61449 L-56302.3,61449.1 L-62440.9,64822.4 L-73972.2,65980.2"/>
</g>

<g fill="none" stroke="#000000" stroke-opacity="1" stroke-width="1" stroke-linecap="square" stroke-linejoin="bevel" transform="matrix(0.999996,0,0,-0.999996,74966.9,66978)"
font-family="MS Shell Dlg 2" font-size="10.3125" font-weight="400" font-style="normal" 
>
</g>

<g fill="none" stroke="#000000" stroke-opacity="1" stroke-width="1" stroke-linecap="square" stroke-linejoin="bevel" transform="matrix(0.999996,0,0,-0.999996,74966.9,66978)"
font-family="MS Shell Dlg 2" font-size="10.3125" font-weight="400" font-style="normal" 
>
</g>

<g fill="#ae5151" fill-opacity="0.2" stroke="#333333" stroke-opacity="1" stroke-width="1" stroke-linecap="round" stroke-linejoin="round" transform="matrix(0.999996,0,0,-0.999996,74966.9,66978)"
font-family="MS Shell Dlg 2" font-size="10.3125" font-weight="400" font-style="normal" 
>
<path vector-effect="non-scaling-stroke" fill-rule="evenodd" d="M7064.41,57090.7 L7099.34,57110.2 L7430.15,57295.2 L7430.33,57295.3 L7430.41,57295.3 L7430.79,57295.3 L7431.17,57295.2 L7431.47,57295 L7431.53,57294.9 L7431.64,57294.8 L8501.49,55381.7 L8501.57,55381.5 L8501.6,55381.4 L8501.64,55381 L8501.54,55380.7 L8501.3,55380.4 L8501.23,55380.3 L8501.07,55380.2 L8170.27,55195.2 L8135.34,55175.7 L7804.53,54990.7 L7804.35,54990.6 L7804.27,54990.6 L7803.89,54990.5 L7803.51,54990.6 L7803.2,54990.9 L7803.15,54990.9 L7803.04,54991.1 L6733.18,56904.2 L6733.1,56904.4 L6733.08,56904.4 L6733.03,56904.8 L6733.14,56905.2 L6733.38,56905.5 L6733.44,56905.6 L6733.61,56905.7 L7064.41,57090.7"/>
</g>

<g fill="none" stroke="#000000" stroke-opacity="1" stroke-width="1" stroke-linecap="square" stroke-linejoin="bevel" transform="matrix(0.999996,0,0,-0.999996,74966.9,66978)"
font-family="MS Shell Dlg 2" font-size="10.3125" font-weight="400" font-style="normal" 
>
</g>

<g fill="none" stroke="#000000" stroke-opacity="1" stroke-width="1" stroke-linecap="square" stroke-linejoin="bevel" transform="matrix(0.999996,0,0,-0.999996,74966.9,66978)"
font-family="MS Shell Dlg 2" font-size="10.3125" font-weight="400" font-style="normal" 
>
</g>

<g fill="#ae5151" fill-opacity="0.2" stroke="#333333" stroke-opacity="1" stroke-width="1" stroke-linecap="round" stroke-linejoin="round" transform="matrix(0.999996,0,0,-0.999996,74966.9,66978)"
font-family="MS Shell Dlg 2" font-size="10.3125" font-weight="400" font-style="normal" 
>
<path vector-effect="non-scaling-stroke" fill-rule="evenodd" d="M-58531.8,57667.8 L-58531.6,57667.7 L-58206,57473.7 L-58171.6,57453.3 L-57846,57259.3 L-57845.9,57259.1 L-57845.8,57259.1 L-57845.6,57258.8 L-57845.5,57258.4 L-57845.5,57258 L-57845.5,57257.9 L-57845.6,57257.8 L-58967.5,55374.7 L-58967.6,55374.5 L-58967.7,55374.5 L-58968,55374.2 L-58968.3,55374.1 L-58968.7,55374.2 L-58968.8,55374.2 L-58969,55374.3 L-59294.6,55568.3 L-59329,55588.8 L-59654.6,55782.8 L-59654.8,55782.9 L-59654.8,55782.9 L-59655.1,55783.3 L-59655.1,55783.6 L-59655.1,55784 L-59655.1,55784.1 L-59655,55784.3 L-58533.1,57667.3 L-58533,57667.5 L-58533,57667.6 L-58532.6,57667.8 L-58532.3,57667.9 L-58531.9,57667.8 L-58531.8,57667.8"/>
</g>

<g fill="none" stroke="#000000" stroke-opacity="1" stroke-width="1" stroke-linecap="square" stroke-linejoin="bevel" transform="matrix(0.999996,0,0,-0.999996,74966.9,66978)"
font-family="MS Shell Dlg 2" font-size="10.3125" font-weight="400" font-style="normal" 
>
</g>

<g fill="none" stroke="#000000" stroke-opacity="1" stroke-width="1" stroke-linecap="square" stroke-linejoin="bevel" transform="matrix(0.999996,0,0,-0.999996,74966.9,66978)"
font-family="MS Shell Dlg 2" font-size="10.3125" font-weight="400" font-style="normal" 
>
</g>

<g fill="#333333" fill-opacity="0.2" stroke="#333333" stroke-opacity="1" stroke-width="1" stroke-linecap="round" stroke-linejoin="round" transform="matrix(0.999996,0,0,-0.999996,74966.9,66978)"
font-family="MS Shell Dlg 2" font-size="10.3125" font-weight="400" font-style="normal" 
>
<path vector-effect="non-scaling-stroke" fill-rule="evenodd" d="M-26996.3,-1528.25 L-26996.3,-1528.06 L-26991.1,-1149.08 L-26990.6,-1109.05 L-26985.4,-730.073 L-26985.4,-729.878 L-26985.4,-729.796 L-26985.2,-729.438 L-26984.9,-729.166 L-26984.6,-729.021 L-26984.5,-729.006 L-26984.3,-728.99 L-24792.6,-759.013 L-24792.4,-759.035 L-24792.3,-759.053 L-24791.9,-759.207 L-24791.7,-759.486 L-24791.5,-759.849 L-24791.5,-759.931 L-24791.5,-760.127 L-24796.7,-1139.11 L-24797.2,-1179.13 L-24802.4,-1558.11 L-24802.5,-1558.31 L-24802.5,-1558.39 L-24802.6,-1558.75 L-24802.9,-1559.02 L-24803.3,-1559.16 L-24803.3,-1559.18 L-24803.5,-1559.19 L-26995.3,-1529.17 L-26995.4,-1529.15 L-26995.5,-1529.13 L-26995.9,-1528.98 L-26996.2,-1528.7 L-26996.3,-1528.33 L-26996.3,-1528.25"/>
</g>

<g fill="none" stroke="#000000" stroke-opacity="1" stroke-width="1" stroke-linecap="square" stroke-linejoin="bevel" transform="matrix(0.999996,0,0,-0.999996,74966.9,66978)"
font-family="MS Shell Dlg 2" font-size="10.3125" font-weight="400" font-style="normal" 
>
</g>

<g fill="none" stroke="#000000" stroke-opacity="1" stroke-width="1" stroke-linecap="square" stroke-linejoin="bevel" transform="matrix(0.999996,0,0,-0.999996,74966.9,66978)"
font-family="MS Shell Dlg 2" font-size="10.3125" font-weight="400" font-style="normal" 
>
</g>

<g fill="#333333" fill-opacity="0.2" stroke="#333333" stroke-opacity="1" stroke-width="1" stroke-linecap="round" stroke-linejoin="round" transform="matrix(0.999996,0,0,-0.999996,74966.9,66978)"
font-family="MS Shell Dlg 2" font-size="10.3125" font-weight="400" font-style="normal" 
>
<path vector-effect="non-scaling-stroke" fill-rule="evenodd" d="M-62806.8,51548.5 L-67555.8,55696.7 L-67555.9,55696.8 L-67700.9,55853.7 L-67701,55853.8 L-74778,65384.7 L-74778.1,65384.8 L-74943.2,65729.9 L-74943.3,65730.3 L-74966.7,66112.2 L-74966.7,66112.5 L-74845,66475.2 L-74844.8,66475.6 L-74595.9,66766 L-74595.6,66766.3 L-74255.8,66942 L-74255.4,66942.1 L-73874.5,66977.4 L-73874.3,66977.4 L-62340.6,65819.3 L-62340.4,65819.3 L-61958.7,65700.7 L-61958.5,65700.6 L-55844.5,62340.8 L-55782.1,62322.5 L-55781.8,62322.4 L-55439.1,62118.1 L-55404.7,62097.6 L-55061.9,61893.4 L-55061.7,61893.3 L-54992.3,61823.5 L-52257.2,60003 L-51348.7,61668.6 L-51348.7,61668.7 L-51127.1,61944.4 L-51126.8,61944.6 L-50823.1,62125.9 L-50822.8,62126 L-50475,62190.2 L-50474.8,62190.3 L-4024.55,62413.6 L-4024.31,62413.5 L-3567.1,62305.4 L-3566.68,62305.2 L-3209.33,62000.1 L-3209.17,61999.9 L-909.038,58825.8 L4094.83,61624.1 L4425.72,61809.1 L4460.65,61828.6 L4808.91,62023.4 L4809.14,62023.5 L5289.58,62150.7 L5289.83,62150.7 L5289.89,62150.7 L5290.07,62150.7 L5339.22,62142.2 L11306.2,64180.9 L11306.3,64180.9 L11514.8,64228 L11514.9,64228 L23307.3,65591.5 L23307.5,65591.5 L23688.9,65561.9 L23689.3,65561.8 L24031.7,65391.2 L24032,65391 L24285.3,65104.3 L24285.5,65103.9 L24412.6,64743.1 L24412.6,64742.7 L24394.9,64360.6 L24394.9,64360.2 L24235,64012.7 L24234.9,64012.5 L17465.1,54603 L17464.9,54602.9 L17171.4,54331.6 L17171.2,54331.5 L11204.5,50716.5 L11157.4,50671.6 L11157.2,50671.5 L10809,50476.7 L10774,50457.2 L10425.8,50262.5 L10425.5,50262.4 L10330.4,50237.2 L6639.5,48408.8 L7956.75,46591 L7956.85,46590.8 L8115.64,46252.9 L8115.73,46252.5 L8139.5,45879.9 L8139.45,45879.5 L8024.87,45524.1 L8024.79,45524 L-15870.3,1753.54 L-15870.4,1753.39 L-16096.2,1474.22 L-16096.5,1473.99 L-16406.4,1292.61 L-16406.8,1292.48 L-16760.8,1232.27 L-16760.9,1232.26 L-19357.1,1263.54 L-19385.9,-834.078 L-19391.1,-1213.16 L-19391.6,-1253.18 L-19397.1,-1652.16 L-19397.1,-1652.41 L-19527.2,-2132.07 L-19527.3,-2132.3 L-19527.3,-2132.35 L-19527.4,-2132.5 L-19559.3,-2170.84 L-20777.3,-8357.72 L-20777.3,-8357.83 L-20840.8,-8561.89 L-20840.8,-8561.99 L-25556.2,-19456.3 L-25556.3,-19456.5 L-25772.6,-19772 L-25772.9,-19772.3 L-26091.9,-19983.5 L-26092.2,-19983.6 L-26467.2,-20059.6 L-26467.5,-20059.6 L-26843.6,-19989.3 L-26843.9,-19989.1 L-27166,-19782.7 L-27166.3,-19782.5 L-27387.3,-19470.2 L-27387.4,-19470.1 L-32151.3,-8902.53 L-32151.4,-8902.34 L-32239.5,-8512.48 L-32239.6,-8512.28 L-32386.9,-1537.47 L-32402.2,-1474.25 L-32402.3,-1474 L-32396.8,-1075.03 L-32396.2,-1035 L-32390.8,-636.027 L-32390.7,-635.779 L-32365,-540.828 L-32240.1,1418.75 L-35296.4,1455.58 L-35296.5,1455.59 L-35630.8,1517.39 L-35631.1,1517.51 L-35925.3,1687.69 L-35925.6,1687.91 L-36145.8,1946.81 L-36145.9,1946.95 L-60711,43484.2 L-60711,43484.3 L-60832.4,43804.9 L-60832.4,43805.3 L-60838.4,44148 L-60838.3,44148.3 L-60728.2,44472.9 L-60728.1,44473.1 L-58399.5,48742.2 L-61735.9,50729.9 L-62061.5,50923.9 L-62095.9,50944.4 L-62438.7,51148.6 L-62438.9,51148.8 L-62789.3,51501.2 L-62789.4,51501.4 L-62789.5,51501.5 L-62789.5,51501.7 L-62806.8,51548.5 M-73972.2,65980.2 L-66896.6,56451.3 L-61886.7,52075.2 L-61886.6,52075 L-61886.5,52075 L-61886.3,52074.7 L-61886.3,52074.3 L-61886.3,52074 L-61886.4,52073.9 L-61886.5,52073.8 L-61925.1,52008.9 L-61583.1,51805.2 L-61548.7,51784.7 L-61223,51590.7 L-57059.6,49110.3 L-57058.7,49109.8 L-57058.5,49109.5 L-57058.3,49109.2 L-57058.3,49108.8 L-57058.4,49108.4 L-59848.2,43993.8 L-35283.7,2457.5 L-31174,2407.98 L-31173.7,2407.9 L-31173.3,2407.66 L-31173.1,2407.32 L-31173.1,2406.92 L-31173.1,2405.97 L-31367.9,-649.937 L-31367.9,-650.124 L-31368,-650.204 L-31368.1,-650.545 L-31368.4,-650.802 L-31368.8,-650.937 L-31368.8,-650.951 L-31369,-650.967 L-31388.9,-650.695 L-31394.3,-1048.73 L-31394.9,-1088.75 L-31400.3,-1486.79 L-31386.8,-1486.97 L-31386.6,-1486.99 L-31386.6,-1487.01 L-31386.2,-1487.16 L-31385.9,-1487.42 L-31385.8,-1487.78 L-31385.8,-1487.86 L-31385.7,-1488.05 L-31237.8,-8490.92 L-26474.9,-19056.2 L-21760.4,-8164.08 L-20475.5,-1637.35 L-20475.5,-1637.18 L-20475.4,-1637.11 L-20475.3,-1636.81 L-20475,-1636.59 L-20474.7,-1636.48 L-20474.6,-1636.47 L-20474.4,-1636.46 L-20399,-1637.49 L-20393.5,-1239.45 L-20393,-1199.43 L-20387.8,-820.353 L-20345.4,2275.52 L-20345.3,2276.52 L-20345.3,2276.9 L-20345,2277.22 L-20344.7,2277.43 L-20344.3,2277.5 L-16749.5,2234.19 L7145.01,46003.5 L5133.38,48779.6 L5133.21,48780 L5133.22,48780.4 L5133.41,48780.8 L5133.74,48781.1 L5134.5,48781.4 L9926.38,51155.2 L9926.56,51155.3 L9926.64,51155.3 L9927.02,51155.4 L9927.38,51155.2 L9927.67,51155 L9927.72,51154.9 L9927.83,51154.8 L9937.52,51137.5 L10285,51331.7 L10319.9,51351.3 L10667.3,51545.6 L10660.7,51557.4 L10660.7,51557.5 L10660.6,51557.6 L10660.6,51558 L10660.7,51558.4 L10660.9,51558.7 L10661,51558.7 L10661.1,51558.8 L16651.8,55188.4 L23420.2,64595.8 L11630.1,63232.7 L5335.31,61082 L5335.14,61082 L5335.07,61082 L5334.72,61082 L5334.4,61082.1 L5334.14,61082.3 L5334.09,61082.4 L5333.99,61082.5 L5297.15,61148.4 L4949.72,60954.1 L4914.79,60934.6 L4583.9,60749.5 L-1195.85,57517.3 L-1196.83,57516.8 L-1197.17,57516.7 L-1197.53,57516.7 L-1197.87,57516.8 L-1198.13,57517.1 L-4020.24,61411.6 L-50469.4,61188.3 L-51901,58563.6 L-51901.3,58563.3 L-51901.7,58563.1 L-51902.1,58563.1 L-51902.4,58563.3 L-51903.2,58563.8 L-55585.4,61014.6 L-55585.5,61014.7 L-55585.6,61014.7 L-55585.8,61015 L-55585.9,61015.4 L-55585.8,61015.8 L-55585.8,61015.9 L-55585.7,61016 L-55575.5,61033.1 L-55917.5,61236.8 L-55951.9,61257.3 L-56293.9,61461.1 L-56300.8,61449.5 L-56300.9,61449.3 L-56301,61449.2 L-56301.3,61449 L-56301.6,61448.9 L-56302,61449 L-56302.1,61449 L-56302.3,61449.1 L-62440.9,64822.4 L-73972.2,65980.2"/>
</g>

<g fill="none" stroke="#000000" stroke-opacity="1" stroke-width="1" stroke-linecap="square" stroke-linejoin="bevel" transform="matrix(0.999996,0,0,-0.999996,74966.9,66978)"
font-family="MS Shell Dlg 2" font-size="10.3125" font-weight="400" font-style="normal" 
>
</g>

<g fill="none" stroke="#000000" stroke-opacity="1" stroke-width="1" stroke-linecap="square" stroke-linejoin="bevel" transform="matrix(0.999996,0,0,-0.999996,74966.9,66978)"
font-family="MS Shell Dlg 2" font-size="10.3125" font-weight="400" font-style="normal" 
>
</g>

<g fill="#333333" fill-opacity="0.2" stroke="#333333" stroke-opacity="1" stroke-width="1" stroke-linecap="round" stroke-linejoin="round" transform="matrix(0.999996,0,0,-0.999996,74966.9,66978)"
font-family="MS Shell Dlg 2" font-size="10.3125" font-weight="400" font-style="normal" 
>
<path vector-effect="non-scaling-stroke" fill-rule="evenodd" d="M7064.41,57090.7 L7099.34,57110.2 L7430.15,57295.2 L7430.33,57295.3 L7430.41,57295.3 L7430.79,57295.3 L7431.17,57295.2 L7431.47,57295 L7431.53,57294.9 L7431.64,57294.8 L8501.49,55381.7 L8501.57,55381.5 L8501.6,55381.4 L8501.64,55381 L8501.54,55380.7 L8501.3,55380.4 L8501.23,55380.3 L8501.07,55380.2 L8170.27,55195.2 L8135.34,55175.7 L7804.53,54990.7 L7804.35,54990.6 L7804.27,54990.6 L7803.89,54990.5 L7803.51,54990.6 L7803.2,54990.9 L7803.15,54990.9 L7803.04,54991.1 L6733.18,56904.2 L6733.1,56904.4 L6733.08,56904.4 L6733.03,56904.8 L6733.14,56905.2 L6733.38,56905.5 L6733.44,56905.6 L6733.61,56905.7 L7064.41,57090.7"/>
</g>

<g fill="none" stroke="#000000" stroke-opacity="1" stroke-width="1" stroke-linecap="square" stroke-linejoin="bevel" transform="matrix(0.999996,0,0,-0.999996,74966.9,66978)"
font-family="MS Shell Dlg 2" font-size="10.3125" font-weight="400" font-style="normal" 
>
</g>

<g fill="none" stroke="#000000" stroke-opacity="1" stroke-width="1" stroke-linecap="square" stroke-linejoin="bevel" transform="matrix(0.999996,0,0,-0.999996,74966.9,66978)"
font-family="MS Shell Dlg 2" font-size="10.3125" font-weight="400" font-style="normal" 
>
</g>

<g fill="#333333" fill-opacity="0.2" stroke="#333333" stroke-opacity="1" stroke-width="1" stroke-linecap="round" stroke-linejoin="round" transform="matrix(0.999996,0,0,-0.999996,74966.9,66978)"
font-family="MS Shell Dlg 2" font-size="10.3125" font-weight="400" font-style="normal" 
>
<path vector-effect="non-scaling-stroke" fill-rule="evenodd" d="M-58531.8,57667.8 L-58531.6,57667.7 L-58206,57473.7 L-58171.6,57453.3 L-57846,57259.3 L-57845.9,57259.1 L-57845.8,57259.1 L-57845.6,57258.8 L-57845.5,57258.4 L-57845.5,57258 L-57845.5,57257.9 L-57845.6,57257.8 L-58967.5,55374.7 L-58967.6,55374.5 L-58967.7,55374.5 L-58968,55374.2 L-58968.3,55374.1 L-58968.7,55374.2 L-58968.8,55374.2 L-58969,55374.3 L-59294.6,55568.3 L-59329,55588.8 L-59654.6,55782.8 L-59654.8,55782.9 L-59654.8,55782.9 L-59655.1,55783.3 L-59655.1,55783.6 L-59655.1,55784 L-59655.1,55784.1 L-59655,55784.3 L-58533.1,57667.3 L-58533,57667.5 L-58533,57667.6 L-58532.6,57667.8 L-58532.3,57667.9 L-58531.9,57667.8 L-58531.8,57667.8"/>
</g>

<g fill="none" stroke="#000000" stroke-opacity="1" stroke-width="1" stroke-linecap="square" stroke-linejoin="bevel" transform="matrix(0.999996,0,0,-0.999996,74966.9,66978)"
font-family="MS Shell Dlg 2" font-size="10.3125" font-weight="400" font-style="normal" 
>
</g>

<g fill="none" stroke="#000000" stroke-opacity="1" stroke-width="1" stroke-linecap="square" stroke-linejoin="bevel" transform="matrix(1,0,0,-1,0,87038.1)"
font-family="MS Shell Dlg 2" font-size="10.3125" font-weight="400" font-style="normal" 
>
</g>
</g>
</svg>
