<?xml version="1.0" encoding="UTF-8" standalone="no"?>
<svg width="17274mm" height="15027.2mm"
 xmlns="http://www.w3.org/2000/svg" xmlns:xlink="http://www.w3.org/1999/xlink"  version="1.2" baseProfile="tiny">
<title>SVG Generator Example Drawing</title>
<desc>An SVG drawing created by the SVG Generator</desc>
<defs>
</defs>
<g fill="none" stroke="black" stroke-width="1" fill-rule="evenodd" stroke-linecap="square" stroke-linejoin="bevel" >

<g fill="none" stroke="#000000" stroke-opacity="1" stroke-width="1" stroke-linecap="square" stroke-linejoin="bevel" transform="matrix(1,0,0,-1,0,53247)"
font-family="MS Shell Dlg 2" font-size="10.3125" font-weight="400" font-style="normal" 
>
</g>

<g fill="none" stroke="#000000" stroke-opacity="1" stroke-width="1" stroke-linecap="square" stroke-linejoin="bevel" transform="matrix(1,0,0,-1,0,53247)"
font-family="MS Shell Dlg 2" font-size="10.3125" font-weight="400" font-style="normal" 
>
</g>

<g fill="none" stroke="#000000" stroke-opacity="1" stroke-width="1" stroke-linecap="square" stroke-linejoin="bevel" transform="matrix(0.999982,0,0,-0.999982,56206.3,66703.2)"
font-family="MS Shell Dlg 2" font-size="10.3125" font-weight="400" font-style="normal" 
>
</g>

<g fill="#333333" fill-opacity="0.2" stroke="#333333" stroke-opacity="1" stroke-width="1" stroke-linecap="round" stroke-linejoin="round" transform="matrix(0.999982,0,0,-0.999982,56206.3,66703.2)"
font-family="MS Shell Dlg 2" font-size="10.3125" font-weight="400" font-style="normal" 
>
<path vector-effect="non-scaling-stroke" fill-rule="evenodd" d="M-6262.72,15648 L-5879.7,15573.6 L-5554.3,15358.3 L-5336.07,15034.8 L-5258.23,14652.5 L-5332.62,14269.5 L-5547.93,13944.1 L-5871.38,13725.8 L-6253.71,13648 L-48647.5,13457 L-49030.6,13531.4 L-49356,13746.7 L-49574.2,14070.2 L-49652,14452.5 L-49577.6,14835.5 L-49362.3,15160.9 L-49038.9,15379.1 L-48656.6,15457 L-6262.72,15648"/>
</g>

<g fill="none" stroke="#000000" stroke-opacity="1" stroke-width="1" stroke-linecap="square" stroke-linejoin="bevel" transform="matrix(0.999982,0,0,-0.999982,56206.3,66703.2)"
font-family="MS Shell Dlg 2" font-size="10.3125" font-weight="400" font-style="normal" 
>
</g>

<g fill="none" stroke="#000000" stroke-opacity="1" stroke-width="1" stroke-linecap="square" stroke-linejoin="bevel" transform="matrix(0.999982,0,0,-0.999982,56206.3,66703.2)"
font-family="MS Shell Dlg 2" font-size="10.3125" font-weight="400" font-style="normal" 
>
</g>

<g fill="#333333" fill-opacity="0.2" stroke="#333333" stroke-opacity="1" stroke-width="1" stroke-linecap="round" stroke-linejoin="round" transform="matrix(0.999982,0,0,-0.999982,56206.3,66703.2)"
font-family="MS Shell Dlg 2" font-size="10.3125" font-weight="400" font-style="normal" 
>
<path vector-effect="non-scaling-stroke" fill-rule="evenodd" d="M-26314.3,37153.5 L-27635.7,65657.7 L-27577.4,66043.5 L-27375.9,66377.6 L-27061.8,66609.2 L-26683.1,66703 L-26297.3,66644.7 L-25963.2,66443.1 L-25731.6,66129.1 L-25637.8,65750.4 L-24296.8,36821 L-24155.2,36771.4 L903.12,21973.2 L1193.93,21713 L1363.05,21361.4 L1384.73,20971.8 L1255.68,20603.6 L995.541,20312.8 L643.917,20143.7 L254.339,20122 L-113.882,20251 L-25018.6,34958.6 L-25209.3,34911.4 L-25595.1,34969.7 L-25832.7,35113 L-54143.6,18279.5 L-54511.5,18149.3 L-54901.1,18169.8 L-55253.2,18337.9 L-55514.3,18627.9 L-55644.4,18995.8 L-55623.9,19385.4 L-55455.8,19737.5 L-55165.8,19998.6 L-26314.3,37153.5"/>
</g>

<g fill="none" stroke="#000000" stroke-opacity="1" stroke-width="1" stroke-linecap="square" stroke-linejoin="bevel" transform="matrix(0.999982,0,0,-0.999982,56206.3,66703.2)"
font-family="MS Shell Dlg 2" font-size="10.3125" font-weight="400" font-style="normal" 
>
</g>

<g fill="none" stroke="#000000" stroke-opacity="1" stroke-width="1" stroke-linecap="square" stroke-linejoin="bevel" transform="matrix(0.999982,0,0,-0.999982,56206.3,66703.2)"
font-family="MS Shell Dlg 2" font-size="10.3125" font-weight="400" font-style="normal" 
>
</g>

<g fill="#333333" fill-opacity="0.2" stroke="#333333" stroke-opacity="1" stroke-width="1" stroke-linecap="round" stroke-linejoin="round" transform="matrix(0.999982,0,0,-0.999982,56206.3,66703.2)"
font-family="MS Shell Dlg 2" font-size="10.3125" font-weight="400" font-style="normal" 
>
<path vector-effect="non-scaling-stroke" fill-rule="evenodd" d="M-54361.6,31090.5 L-54624.4,30802.1 L-54977.5,30636.1 L-55367.3,30617.9 L-55734.3,30750.3 L-56022.7,31013.1 L-56188.7,31366.2 L-56206.9,31755.9 L-56074.5,32123 L-36674.5,64307.2 L-36411.8,64595.6 L-36058.6,64761.6 L-35668.9,64779.7 L-35301.8,64647.4 L-35013.4,64384.6 L-34847.4,64031.5 L-34829.3,63641.7 L-34961.6,63274.7 L-54361.6,31090.5"/>
</g>

<g fill="none" stroke="#000000" stroke-opacity="1" stroke-width="1" stroke-linecap="square" stroke-linejoin="bevel" transform="matrix(0.999982,0,0,-0.999982,56206.3,66703.2)"
font-family="MS Shell Dlg 2" font-size="10.3125" font-weight="400" font-style="normal" 
>
</g>

<g fill="none" stroke="#000000" stroke-opacity="1" stroke-width="1" stroke-linecap="square" stroke-linejoin="bevel" transform="matrix(0.999982,0,0,-0.999982,56206.3,66703.2)"
font-family="MS Shell Dlg 2" font-size="10.3125" font-weight="400" font-style="normal" 
>
</g>

<g fill="#333333" fill-opacity="0.2" stroke="#333333" stroke-opacity="1" stroke-width="1" stroke-linecap="round" stroke-linejoin="round" transform="matrix(0.999982,0,0,-0.999982,56206.3,66703.2)"
font-family="MS Shell Dlg 2" font-size="10.3125" font-weight="400" font-style="normal" 
>
<path vector-effect="non-scaling-stroke" fill-rule="evenodd" d="M4853.43,34917.6 L4999.95,34556 L4996.94,34165.9 L4844.85,33806.5 L4566.83,33532.8 L4205.21,33386.2 L3815.04,33389.3 L3455.72,33541.4 L3181.96,33819.4 L-15648.2,62477.1 L-15794.7,62838.8 L-15791.7,63228.9 L-15639.6,63588.3 L-15361.6,63862 L-14999.9,64008.5 L-14609.8,64005.5 L-14250.5,63853.4 L-13976.7,63575.4 L4853.43,34917.6"/>
</g>

<g fill="none" stroke="#000000" stroke-opacity="1" stroke-width="1" stroke-linecap="square" stroke-linejoin="bevel" transform="matrix(0.999982,0,0,-0.999982,56206.3,66703.2)"
font-family="MS Shell Dlg 2" font-size="10.3125" font-weight="400" font-style="normal" 
>
</g>

<g fill="none" stroke="#000000" stroke-opacity="1" stroke-width="1" stroke-linecap="square" stroke-linejoin="bevel" transform="matrix(0.999982,0,0,-0.999982,56206.3,66703.2)"
font-family="MS Shell Dlg 2" font-size="10.3125" font-weight="400" font-style="normal" 
>
</g>

<g fill="#ae5151" fill-opacity="0.2" stroke="#333333" stroke-opacity="1" stroke-width="1" stroke-linecap="round" stroke-linejoin="round" transform="matrix(0.999982,0,0,-0.999982,56206.3,66703.2)"
font-family="MS Shell Dlg 2" font-size="10.3125" font-weight="400" font-style="normal" 
>
<path vector-effect="non-scaling-stroke" fill-rule="evenodd" d="M-6262.72,15648 L-5879.7,15573.6 L-5554.3,15358.3 L-5336.07,15034.8 L-5258.23,14652.5 L-5332.62,14269.5 L-5547.93,13944.1 L-5871.38,13725.8 L-6253.71,13648 L-48647.5,13457 L-49030.6,13531.4 L-49356,13746.7 L-49574.2,14070.2 L-49652,14452.5 L-49577.6,14835.5 L-49362.3,15160.9 L-49038.9,15379.1 L-48656.6,15457 L-6262.72,15648"/>
</g>

<g fill="none" stroke="#000000" stroke-opacity="1" stroke-width="1" stroke-linecap="square" stroke-linejoin="bevel" transform="matrix(0.999982,0,0,-0.999982,56206.3,66703.2)"
font-family="MS Shell Dlg 2" font-size="10.3125" font-weight="400" font-style="normal" 
>
</g>

<g fill="none" stroke="#000000" stroke-opacity="1" stroke-width="1" stroke-linecap="square" stroke-linejoin="bevel" transform="matrix(0.999982,0,0,-0.999982,56206.3,66703.2)"
font-family="MS Shell Dlg 2" font-size="10.3125" font-weight="400" font-style="normal" 
>
</g>

<g fill="#ae5151" fill-opacity="0.2" stroke="#333333" stroke-opacity="1" stroke-width="1" stroke-linecap="round" stroke-linejoin="round" transform="matrix(0.999982,0,0,-0.999982,56206.3,66703.2)"
font-family="MS Shell Dlg 2" font-size="10.3125" font-weight="400" font-style="normal" 
>
<path vector-effect="non-scaling-stroke" fill-rule="evenodd" d="M-26314.3,37153.5 L-27635.7,65657.7 L-27577.4,66043.5 L-27375.9,66377.6 L-27061.8,66609.2 L-26683.1,66703 L-26297.3,66644.7 L-25963.2,66443.1 L-25731.6,66129.1 L-25637.8,65750.4 L-24296.8,36821 L-24155.2,36771.4 L903.12,21973.2 L1193.93,21713 L1363.05,21361.4 L1384.73,20971.8 L1255.68,20603.6 L995.541,20312.8 L643.917,20143.7 L254.339,20122 L-113.882,20251 L-25018.6,34958.6 L-25209.3,34911.4 L-25595.1,34969.7 L-25832.7,35113 L-54143.6,18279.5 L-54511.5,18149.3 L-54901.1,18169.8 L-55253.2,18337.9 L-55514.3,18627.9 L-55644.4,18995.8 L-55623.9,19385.4 L-55455.8,19737.5 L-55165.8,19998.6 L-26314.3,37153.5"/>
</g>

<g fill="none" stroke="#000000" stroke-opacity="1" stroke-width="1" stroke-linecap="square" stroke-linejoin="bevel" transform="matrix(0.999982,0,0,-0.999982,56206.3,66703.2)"
font-family="MS Shell Dlg 2" font-size="10.3125" font-weight="400" font-style="normal" 
>
</g>

<g fill="none" stroke="#000000" stroke-opacity="1" stroke-width="1" stroke-linecap="square" stroke-linejoin="bevel" transform="matrix(0.999982,0,0,-0.999982,56206.3,66703.2)"
font-family="MS Shell Dlg 2" font-size="10.3125" font-weight="400" font-style="normal" 
>
</g>

<g fill="#ae5151" fill-opacity="0.2" stroke="#333333" stroke-opacity="1" stroke-width="1" stroke-linecap="round" stroke-linejoin="round" transform="matrix(0.999982,0,0,-0.999982,56206.3,66703.2)"
font-family="MS Shell Dlg 2" font-size="10.3125" font-weight="400" font-style="normal" 
>
<path vector-effect="non-scaling-stroke" fill-rule="evenodd" d="M-54361.6,31090.5 L-54624.4,30802.1 L-54977.5,30636.1 L-55367.3,30617.9 L-55734.3,30750.3 L-56022.7,31013.1 L-56188.7,31366.2 L-56206.9,31755.9 L-56074.5,32123 L-36674.5,64307.2 L-36411.8,64595.6 L-36058.6,64761.6 L-35668.9,64779.7 L-35301.8,64647.4 L-35013.4,64384.6 L-34847.4,64031.5 L-34829.3,63641.7 L-34961.6,63274.7 L-54361.6,31090.5"/>
</g>

<g fill="none" stroke="#000000" stroke-opacity="1" stroke-width="1" stroke-linecap="square" stroke-linejoin="bevel" transform="matrix(0.999982,0,0,-0.999982,56206.3,66703.2)"
font-family="MS Shell Dlg 2" font-size="10.3125" font-weight="400" font-style="normal" 
>
</g>

<g fill="none" stroke="#000000" stroke-opacity="1" stroke-width="1" stroke-linecap="square" stroke-linejoin="bevel" transform="matrix(0.999982,0,0,-0.999982,56206.3,66703.2)"
font-family="MS Shell Dlg 2" font-size="10.3125" font-weight="400" font-style="normal" 
>
</g>

<g fill="#ae5151" fill-opacity="0.2" stroke="#333333" stroke-opacity="1" stroke-width="1" stroke-linecap="round" stroke-linejoin="round" transform="matrix(0.999982,0,0,-0.999982,56206.3,66703.2)"
font-family="MS Shell Dlg 2" font-size="10.3125" font-weight="400" font-style="normal" 
>
<path vector-effect="non-scaling-stroke" fill-rule="evenodd" d="M4853.43,34917.6 L4999.95,34556 L4996.94,34165.9 L4844.85,33806.5 L4566.83,33532.8 L4205.21,33386.2 L3815.04,33389.3 L3455.72,33541.4 L3181.96,33819.4 L-15648.2,62477.1 L-15794.7,62838.8 L-15791.7,63228.9 L-15639.6,63588.3 L-15361.6,63862 L-14999.9,64008.5 L-14609.8,64005.5 L-14250.5,63853.4 L-13976.7,63575.4 L4853.43,34917.6"/>
</g>

<g fill="none" stroke="#000000" stroke-opacity="1" stroke-width="1" stroke-linecap="square" stroke-linejoin="bevel" transform="matrix(0.999982,0,0,-0.999982,56206.3,66703.2)"
font-family="MS Shell Dlg 2" font-size="10.3125" font-weight="400" font-style="normal" 
>
</g>

<g fill="none" stroke="#000000" stroke-opacity="1" stroke-width="1" stroke-linecap="square" stroke-linejoin="bevel" transform="matrix(0.999982,0,0,-0.999982,56206.3,66703.2)"
font-family="MS Shell Dlg 2" font-size="10.3125" font-weight="400" font-style="normal" 
>
</g>

<g fill="#ffff00" fill-opacity="0.2" stroke="#333333" stroke-opacity="1" stroke-width="1" stroke-linecap="round" stroke-linejoin="round" transform="matrix(0.999982,0,0,-0.999982,56206.3,66703.2)"
font-family="MS Shell Dlg 2" font-size="10.3125" font-weight="400" font-style="normal" 
>
<path vector-effect="non-scaling-stroke" fill-rule="evenodd" d="M-6262.72,15648 L-5879.7,15573.6 L-5554.3,15358.3 L-5336.07,15034.8 L-5258.23,14652.5 L-5332.62,14269.5 L-5547.93,13944.1 L-5871.38,13725.8 L-6253.71,13648 L-48647.5,13457 L-49030.6,13531.4 L-49356,13746.7 L-49574.2,14070.2 L-49652,14452.5 L-49577.6,14835.5 L-49362.3,15160.9 L-49038.9,15379.1 L-48656.6,15457 L-6262.72,15648"/>
</g>

<g fill="none" stroke="#000000" stroke-opacity="1" stroke-width="1" stroke-linecap="square" stroke-linejoin="bevel" transform="matrix(0.999982,0,0,-0.999982,56206.3,66703.2)"
font-family="MS Shell Dlg 2" font-size="10.3125" font-weight="400" font-style="normal" 
>
</g>

<g fill="none" stroke="#000000" stroke-opacity="1" stroke-width="1" stroke-linecap="square" stroke-linejoin="bevel" transform="matrix(0.999982,0,0,-0.999982,56206.3,66703.2)"
font-family="MS Shell Dlg 2" font-size="10.3125" font-weight="400" font-style="normal" 
>
</g>

<g fill="#ffff00" fill-opacity="0.2" stroke="#333333" stroke-opacity="1" stroke-width="1" stroke-linecap="round" stroke-linejoin="round" transform="matrix(0.999982,0,0,-0.999982,56206.3,66703.2)"
font-family="MS Shell Dlg 2" font-size="10.3125" font-weight="400" font-style="normal" 
>
<path vector-effect="non-scaling-stroke" fill-rule="evenodd" d="M-26314.3,37153.5 L-27635.7,65657.7 L-27577.4,66043.5 L-27375.9,66377.6 L-27061.8,66609.2 L-26683.1,66703 L-26297.3,66644.7 L-25963.2,66443.1 L-25731.6,66129.1 L-25637.8,65750.4 L-24296.8,36821 L-24155.2,36771.4 L903.12,21973.2 L1193.93,21713 L1363.05,21361.4 L1384.73,20971.8 L1255.68,20603.6 L995.541,20312.8 L643.917,20143.7 L254.339,20122 L-113.882,20251 L-25018.6,34958.6 L-25209.3,34911.4 L-25595.1,34969.7 L-25832.7,35113 L-54143.6,18279.5 L-54511.5,18149.3 L-54901.1,18169.8 L-55253.2,18337.9 L-55514.3,18627.9 L-55644.4,18995.8 L-55623.9,19385.4 L-55455.8,19737.5 L-55165.8,19998.6 L-26314.3,37153.5"/>
</g>

<g fill="none" stroke="#000000" stroke-opacity="1" stroke-width="1" stroke-linecap="square" stroke-linejoin="bevel" transform="matrix(0.999982,0,0,-0.999982,56206.3,66703.2)"
font-family="MS Shell Dlg 2" font-size="10.3125" font-weight="400" font-style="normal" 
>
</g>

<g fill="none" stroke="#000000" stroke-opacity="1" stroke-width="1" stroke-linecap="square" stroke-linejoin="bevel" transform="matrix(0.999982,0,0,-0.999982,56206.3,66703.2)"
font-family="MS Shell Dlg 2" font-size="10.3125" font-weight="400" font-style="normal" 
>
</g>

<g fill="#ffff00" fill-opacity="0.2" stroke="#333333" stroke-opacity="1" stroke-width="1" stroke-linecap="round" stroke-linejoin="round" transform="matrix(0.999982,0,0,-0.999982,56206.3,66703.2)"
font-family="MS Shell Dlg 2" font-size="10.3125" font-weight="400" font-style="normal" 
>
<path vector-effect="non-scaling-stroke" fill-rule="evenodd" d="M-54361.6,31090.5 L-54624.4,30802.1 L-54977.5,30636.1 L-55367.3,30617.9 L-55734.3,30750.3 L-56022.7,31013.1 L-56188.7,31366.2 L-56206.9,31755.9 L-56074.5,32123 L-36674.5,64307.2 L-36411.8,64595.6 L-36058.6,64761.6 L-35668.9,64779.7 L-35301.8,64647.4 L-35013.4,64384.6 L-34847.4,64031.5 L-34829.3,63641.7 L-34961.6,63274.7 L-54361.6,31090.5"/>
</g>

<g fill="none" stroke="#000000" stroke-opacity="1" stroke-width="1" stroke-linecap="square" stroke-linejoin="bevel" transform="matrix(0.999982,0,0,-0.999982,56206.3,66703.2)"
font-family="MS Shell Dlg 2" font-size="10.3125" font-weight="400" font-style="normal" 
>
</g>

<g fill="none" stroke="#000000" stroke-opacity="1" stroke-width="1" stroke-linecap="square" stroke-linejoin="bevel" transform="matrix(0.999982,0,0,-0.999982,56206.3,66703.2)"
font-family="MS Shell Dlg 2" font-size="10.3125" font-weight="400" font-style="normal" 
>
</g>

<g fill="#ffff00" fill-opacity="0.2" stroke="#333333" stroke-opacity="1" stroke-width="1" stroke-linecap="round" stroke-linejoin="round" transform="matrix(0.999982,0,0,-0.999982,56206.3,66703.2)"
font-family="MS Shell Dlg 2" font-size="10.3125" font-weight="400" font-style="normal" 
>
<path vector-effect="non-scaling-stroke" fill-rule="evenodd" d="M4853.43,34917.6 L4999.95,34556 L4996.94,34165.9 L4844.85,33806.5 L4566.83,33532.8 L4205.21,33386.2 L3815.04,33389.3 L3455.72,33541.4 L3181.96,33819.4 L-15648.2,62477.1 L-15794.7,62838.8 L-15791.7,63228.9 L-15639.6,63588.3 L-15361.6,63862 L-14999.9,64008.5 L-14609.8,64005.5 L-14250.5,63853.4 L-13976.7,63575.4 L4853.43,34917.6"/>
</g>

<g fill="none" stroke="#000000" stroke-opacity="1" stroke-width="1" stroke-linecap="square" stroke-linejoin="bevel" transform="matrix(0.999982,0,0,-0.999982,56206.3,66703.2)"
font-family="MS Shell Dlg 2" font-size="10.3125" font-weight="400" font-style="normal" 
>
</g>

<g fill="none" stroke="#000000" stroke-opacity="1" stroke-width="1" stroke-linecap="square" stroke-linejoin="bevel" transform="matrix(0.999982,0,0,-0.999982,56206.3,66703.2)"
font-family="MS Shell Dlg 2" font-size="10.3125" font-weight="400" font-style="normal" 
>
</g>

<g fill="#ae5151" fill-opacity="0.2" stroke="#333333" stroke-opacity="1" stroke-width="1" stroke-linecap="round" stroke-linejoin="round" transform="matrix(0.999982,0,0,-0.999982,56206.3,66703.2)"
font-family="MS Shell Dlg 2" font-size="10.3125" font-weight="400" font-style="normal" 
>
<path vector-effect="non-scaling-stroke" fill-rule="evenodd" d="M-6262.72,15648 L-5879.7,15573.6 L-5554.3,15358.3 L-5336.07,15034.8 L-5258.23,14652.5 L-5332.62,14269.5 L-5547.93,13944.1 L-5871.38,13725.8 L-6253.71,13648 L-48647.5,13457 L-49030.6,13531.4 L-49356,13746.7 L-49574.2,14070.2 L-49652,14452.5 L-49577.6,14835.5 L-49362.3,15160.9 L-49038.9,15379.1 L-48656.6,15457 L-6262.72,15648"/>
</g>

<g fill="none" stroke="#000000" stroke-opacity="1" stroke-width="1" stroke-linecap="square" stroke-linejoin="bevel" transform="matrix(0.999982,0,0,-0.999982,56206.3,66703.2)"
font-family="MS Shell Dlg 2" font-size="10.3125" font-weight="400" font-style="normal" 
>
</g>

<g fill="none" stroke="#000000" stroke-opacity="1" stroke-width="1" stroke-linecap="square" stroke-linejoin="bevel" transform="matrix(0.999982,0,0,-0.999982,56206.3,66703.2)"
font-family="MS Shell Dlg 2" font-size="10.3125" font-weight="400" font-style="normal" 
>
</g>

<g fill="#ae5151" fill-opacity="0.2" stroke="#333333" stroke-opacity="1" stroke-width="1" stroke-linecap="round" stroke-linejoin="round" transform="matrix(0.999982,0,0,-0.999982,56206.3,66703.2)"
font-family="MS Shell Dlg 2" font-size="10.3125" font-weight="400" font-style="normal" 
>
<path vector-effect="non-scaling-stroke" fill-rule="evenodd" d="M-26314.3,37153.5 L-27635.7,65657.7 L-27577.4,66043.5 L-27375.9,66377.6 L-27061.8,66609.2 L-26683.1,66703 L-26297.3,66644.7 L-25963.2,66443.1 L-25731.6,66129.1 L-25637.8,65750.4 L-24296.8,36821 L-24155.2,36771.4 L903.12,21973.2 L1193.93,21713 L1363.05,21361.4 L1384.73,20971.8 L1255.68,20603.6 L995.541,20312.8 L643.917,20143.7 L254.339,20122 L-113.882,20251 L-25018.6,34958.6 L-25209.3,34911.4 L-25595.1,34969.7 L-25832.7,35113 L-54143.6,18279.5 L-54511.5,18149.3 L-54901.1,18169.8 L-55253.2,18337.9 L-55514.3,18627.9 L-55644.4,18995.8 L-55623.9,19385.4 L-55455.8,19737.5 L-55165.8,19998.6 L-26314.3,37153.5"/>
</g>

<g fill="none" stroke="#000000" stroke-opacity="1" stroke-width="1" stroke-linecap="square" stroke-linejoin="bevel" transform="matrix(0.999982,0,0,-0.999982,56206.3,66703.2)"
font-family="MS Shell Dlg 2" font-size="10.3125" font-weight="400" font-style="normal" 
>
</g>

<g fill="none" stroke="#000000" stroke-opacity="1" stroke-width="1" stroke-linecap="square" stroke-linejoin="bevel" transform="matrix(0.999982,0,0,-0.999982,56206.3,66703.2)"
font-family="MS Shell Dlg 2" font-size="10.3125" font-weight="400" font-style="normal" 
>
</g>

<g fill="#ae5151" fill-opacity="0.2" stroke="#333333" stroke-opacity="1" stroke-width="1" stroke-linecap="round" stroke-linejoin="round" transform="matrix(0.999982,0,0,-0.999982,56206.3,66703.2)"
font-family="MS Shell Dlg 2" font-size="10.3125" font-weight="400" font-style="normal" 
>
<path vector-effect="non-scaling-stroke" fill-rule="evenodd" d="M-54361.6,31090.5 L-54624.4,30802.1 L-54977.5,30636.1 L-55367.3,30617.9 L-55734.3,30750.3 L-56022.7,31013.1 L-56188.7,31366.2 L-56206.9,31755.9 L-56074.5,32123 L-36674.5,64307.2 L-36411.8,64595.6 L-36058.6,64761.6 L-35668.9,64779.7 L-35301.8,64647.4 L-35013.4,64384.6 L-34847.4,64031.5 L-34829.3,63641.7 L-34961.6,63274.7 L-54361.6,31090.5"/>
</g>

<g fill="none" stroke="#000000" stroke-opacity="1" stroke-width="1" stroke-linecap="square" stroke-linejoin="bevel" transform="matrix(0.999982,0,0,-0.999982,56206.3,66703.2)"
font-family="MS Shell Dlg 2" font-size="10.3125" font-weight="400" font-style="normal" 
>
</g>

<g fill="none" stroke="#000000" stroke-opacity="1" stroke-width="1" stroke-linecap="square" stroke-linejoin="bevel" transform="matrix(0.999982,0,0,-0.999982,56206.3,66703.2)"
font-family="MS Shell Dlg 2" font-size="10.3125" font-weight="400" font-style="normal" 
>
</g>

<g fill="#ae5151" fill-opacity="0.2" stroke="#333333" stroke-opacity="1" stroke-width="1" stroke-linecap="round" stroke-linejoin="round" transform="matrix(0.999982,0,0,-0.999982,56206.3,66703.2)"
font-family="MS Shell Dlg 2" font-size="10.3125" font-weight="400" font-style="normal" 
>
<path vector-effect="non-scaling-stroke" fill-rule="evenodd" d="M4853.43,34917.6 L4999.95,34556 L4996.94,34165.9 L4844.85,33806.5 L4566.83,33532.8 L4205.21,33386.2 L3815.04,33389.3 L3455.72,33541.4 L3181.96,33819.4 L-15648.2,62477.1 L-15794.7,62838.8 L-15791.7,63228.9 L-15639.6,63588.3 L-15361.6,63862 L-14999.9,64008.5 L-14609.8,64005.5 L-14250.5,63853.4 L-13976.7,63575.4 L4853.43,34917.6"/>
</g>

<g fill="none" stroke="#000000" stroke-opacity="1" stroke-width="1" stroke-linecap="square" stroke-linejoin="bevel" transform="matrix(0.999982,0,0,-0.999982,56206.3,66703.2)"
font-family="MS Shell Dlg 2" font-size="10.3125" font-weight="400" font-style="normal" 
>
</g>

<g fill="none" stroke="#000000" stroke-opacity="1" stroke-width="1" stroke-linecap="square" stroke-linejoin="bevel" transform="matrix(0.999982,0,0,-0.999982,56206.3,66703.2)"
font-family="MS Shell Dlg 2" font-size="10.3125" font-weight="400" font-style="normal" 
>
</g>

<g fill="#333333" fill-opacity="0.2" stroke="#333333" stroke-opacity="1" stroke-width="1" stroke-linecap="round" stroke-linejoin="round" transform="matrix(0.999982,0,0,-0.999982,56206.3,66703.2)"
font-family="MS Shell Dlg 2" font-size="10.3125" font-weight="400" font-style="normal" 
>
<path vector-effect="non-scaling-stroke" fill-rule="evenodd" d="M-6262.72,15648 L-5879.7,15573.6 L-5554.3,15358.3 L-5336.07,15034.8 L-5258.23,14652.5 L-5332.62,14269.5 L-5547.93,13944.1 L-5871.38,13725.8 L-6253.71,13648 L-48647.5,13457 L-49030.6,13531.4 L-49356,13746.7 L-49574.2,14070.2 L-49652,14452.5 L-49577.6,14835.5 L-49362.3,15160.9 L-49038.9,15379.1 L-48656.6,15457 L-6262.72,15648"/>
</g>

<g fill="none" stroke="#000000" stroke-opacity="1" stroke-width="1" stroke-linecap="square" stroke-linejoin="bevel" transform="matrix(0.999982,0,0,-0.999982,56206.3,66703.2)"
font-family="MS Shell Dlg 2" font-size="10.3125" font-weight="400" font-style="normal" 
>
</g>

<g fill="none" stroke="#000000" stroke-opacity="1" stroke-width="1" stroke-linecap="square" stroke-linejoin="bevel" transform="matrix(0.999982,0,0,-0.999982,56206.3,66703.2)"
font-family="MS Shell Dlg 2" font-size="10.3125" font-weight="400" font-style="normal" 
>
</g>

<g fill="#333333" fill-opacity="0.2" stroke="#333333" stroke-opacity="1" stroke-width="1" stroke-linecap="round" stroke-linejoin="round" transform="matrix(0.999982,0,0,-0.999982,56206.3,66703.2)"
font-family="MS Shell Dlg 2" font-size="10.3125" font-weight="400" font-style="normal" 
>
<path vector-effect="non-scaling-stroke" fill-rule="evenodd" d="M-26314.3,37153.5 L-27635.7,65657.7 L-27577.4,66043.5 L-27375.9,66377.6 L-27061.8,66609.2 L-26683.1,66703 L-26297.3,66644.7 L-25963.2,66443.1 L-25731.6,66129.1 L-25637.8,65750.4 L-24296.8,36821 L-24155.2,36771.4 L903.12,21973.2 L1193.93,21713 L1363.05,21361.4 L1384.73,20971.8 L1255.68,20603.6 L995.541,20312.8 L643.917,20143.7 L254.339,20122 L-113.882,20251 L-25018.6,34958.6 L-25209.3,34911.4 L-25595.1,34969.7 L-25832.7,35113 L-54143.6,18279.5 L-54511.5,18149.3 L-54901.1,18169.8 L-55253.2,18337.9 L-55514.3,18627.9 L-55644.4,18995.8 L-55623.9,19385.4 L-55455.8,19737.5 L-55165.8,19998.6 L-26314.3,37153.5"/>
</g>

<g fill="none" stroke="#000000" stroke-opacity="1" stroke-width="1" stroke-linecap="square" stroke-linejoin="bevel" transform="matrix(0.999982,0,0,-0.999982,56206.3,66703.2)"
font-family="MS Shell Dlg 2" font-size="10.3125" font-weight="400" font-style="normal" 
>
</g>

<g fill="none" stroke="#000000" stroke-opacity="1" stroke-width="1" stroke-linecap="square" stroke-linejoin="bevel" transform="matrix(0.999982,0,0,-0.999982,56206.3,66703.2)"
font-family="MS Shell Dlg 2" font-size="10.3125" font-weight="400" font-style="normal" 
>
</g>

<g fill="#333333" fill-opacity="0.2" stroke="#333333" stroke-opacity="1" stroke-width="1" stroke-linecap="round" stroke-linejoin="round" transform="matrix(0.999982,0,0,-0.999982,56206.3,66703.2)"
font-family="MS Shell Dlg 2" font-size="10.3125" font-weight="400" font-style="normal" 
>
<path vector-effect="non-scaling-stroke" fill-rule="evenodd" d="M-54361.6,31090.5 L-54624.4,30802.1 L-54977.5,30636.1 L-55367.3,30617.9 L-55734.3,30750.3 L-56022.7,31013.1 L-56188.7,31366.2 L-56206.9,31755.9 L-56074.5,32123 L-36674.5,64307.2 L-36411.8,64595.6 L-36058.6,64761.6 L-35668.9,64779.7 L-35301.8,64647.4 L-35013.4,64384.6 L-34847.4,64031.5 L-34829.3,63641.7 L-34961.6,63274.7 L-54361.6,31090.5"/>
</g>

<g fill="none" stroke="#000000" stroke-opacity="1" stroke-width="1" stroke-linecap="square" stroke-linejoin="bevel" transform="matrix(0.999982,0,0,-0.999982,56206.3,66703.2)"
font-family="MS Shell Dlg 2" font-size="10.3125" font-weight="400" font-style="normal" 
>
</g>

<g fill="none" stroke="#000000" stroke-opacity="1" stroke-width="1" stroke-linecap="square" stroke-linejoin="bevel" transform="matrix(0.999982,0,0,-0.999982,56206.3,66703.2)"
font-family="MS Shell Dlg 2" font-size="10.3125" font-weight="400" font-style="normal" 
>
</g>

<g fill="#333333" fill-opacity="0.2" stroke="#333333" stroke-opacity="1" stroke-width="1" stroke-linecap="round" stroke-linejoin="round" transform="matrix(0.999982,0,0,-0.999982,56206.3,66703.2)"
font-family="MS Shell Dlg 2" font-size="10.3125" font-weight="400" font-style="normal" 
>
<path vector-effect="non-scaling-stroke" fill-rule="evenodd" d="M4853.43,34917.6 L4999.95,34556 L4996.94,34165.9 L4844.85,33806.5 L4566.83,33532.8 L4205.21,33386.2 L3815.04,33389.3 L3455.72,33541.4 L3181.96,33819.4 L-15648.2,62477.1 L-15794.7,62838.8 L-15791.7,63228.9 L-15639.6,63588.3 L-15361.6,63862 L-14999.9,64008.5 L-14609.8,64005.5 L-14250.5,63853.4 L-13976.7,63575.4 L4853.43,34917.6"/>
</g>

<g fill="none" stroke="#000000" stroke-opacity="1" stroke-width="1" stroke-linecap="square" stroke-linejoin="bevel" transform="matrix(0.999982,0,0,-0.999982,56206.3,66703.2)"
font-family="MS Shell Dlg 2" font-size="10.3125" font-weight="400" font-style="normal" 
>
</g>

<g fill="none" stroke="#000000" stroke-opacity="1" stroke-width="1" stroke-linecap="square" stroke-linejoin="bevel" transform="matrix(1,0,0,-1,0,53247)"
font-family="MS Shell Dlg 2" font-size="10.3125" font-weight="400" font-style="normal" 
>
</g>
</g>
</svg>
