<?xml version="1.0" encoding="UTF-8" standalone="no"?>
<svg width="18907.8mm" height="16701.9mm"
 xmlns="http://www.w3.org/2000/svg" xmlns:xlink="http://www.w3.org/1999/xlink"  version="1.2" baseProfile="tiny">
<title>SVG Generator Example Drawing</title>
<desc>An SVG drawing created by the SVG Generator</desc>
<defs>
</defs>
<g fill="none" stroke="black" stroke-width="1" fill-rule="evenodd" stroke-linecap="square" stroke-linejoin="bevel" >

<g fill="none" stroke="#000000" stroke-opacity="1" stroke-width="1" stroke-linecap="square" stroke-linejoin="bevel" transform="matrix(1,0,0,-1,0,59180.4)"
font-family="MS Shell Dlg 2" font-size="10.3125" font-weight="400" font-style="normal" 
>
</g>

<g fill="none" stroke="#000000" stroke-opacity="1" stroke-width="1" stroke-linecap="square" stroke-linejoin="bevel" transform="matrix(1,0,0,-1,0,59180.4)"
font-family="MS Shell Dlg 2" font-size="10.3125" font-weight="400" font-style="normal" 
>
</g>

<g fill="none" stroke="#000000" stroke-opacity="1" stroke-width="1" stroke-linecap="square" stroke-linejoin="bevel" transform="matrix(0.999992,0,0,-0.999992,59849.4,61413.1)"
font-family="MS Shell Dlg 2" font-size="10.3125" font-weight="400" font-style="normal" 
>
</g>

<g fill="#333333" fill-opacity="0.2" stroke="#333333" stroke-opacity="1" stroke-width="1" stroke-linecap="round" stroke-linejoin="round" transform="matrix(0.999992,0,0,-0.999992,59849.4,61413.1)"
font-family="MS Shell Dlg 2" font-size="10.3125" font-weight="400" font-style="normal" 
>
<path vector-effect="non-scaling-stroke" fill-rule="evenodd" d="M-57538.5,48230.4 L-53434.6,45785.4 L-53091.8,45581.2 L-52885.1,45518.1 L-52705,45362.8 L-44262.5,40614.8 L-44248.2,40610.5 L-43940,40433.7 L-43739.5,40376.8 L-43556.7,40222.5 L-31689.9,33702.8 L-32013.7,20137.2 L-31971.8,19901.2 L-32023.5,19691.5 L-32022.4,19292.5 L-32010.5,19245.4 L-31739,9770.84 L-31686.2,9558.83 L-31728.3,9397.18 L-31731.8,9140.28 L-31751.2,9072.22 L-32175.3,2419.05 L-35284.3,2456.5 L-59849.4,43993.7 L-57538.5,48230.4"/>
</g>

<g fill="none" stroke="#000000" stroke-opacity="1" stroke-width="1" stroke-linecap="square" stroke-linejoin="bevel" transform="matrix(0.999992,0,0,-0.999992,59849.4,61413.1)"
font-family="MS Shell Dlg 2" font-size="10.3125" font-weight="400" font-style="normal" 
>
</g>

<g fill="none" stroke="#000000" stroke-opacity="1" stroke-width="1" stroke-linecap="square" stroke-linejoin="bevel" transform="matrix(0.999992,0,0,-0.999992,59849.4,61413.1)"
font-family="MS Shell Dlg 2" font-size="10.3125" font-weight="400" font-style="normal" 
>
</g>

<g fill="#333333" fill-opacity="0.2" stroke="#333333" stroke-opacity="1" stroke-width="1" stroke-linecap="round" stroke-linejoin="round" transform="matrix(0.999992,0,0,-0.999992,59849.4,61413.1)"
font-family="MS Shell Dlg 2" font-size="10.3125" font-weight="400" font-style="normal" 
>
<path vector-effect="non-scaling-stroke" fill-rule="evenodd" d="M-19344.4,2264.46 L-19254.5,8827.26 L-19249,9226.24 L-19297.7,9436.82 L-19253.3,9670.47 L-19362.7,19355.8 L-19366.1,19370.4 L-19367.1,19725.6 L-19418,19927.7 L-19375.8,20163.3 L-19663,33700.1 L-7752.93,40202.3 L-7569.46,40356.7 L-7362.04,40416.7 L-7017.02,40617.2 L-6982.13,40651.1 L1087.28,45623.5 L1244.47,45775.2 L1405.5,45819.6 L1629.74,45945 L1698.41,45962.2 L5729.25,47959 L7146.19,46003.6 L-16748.9,2233.18 L-19344.4,2264.46"/>
</g>

<g fill="none" stroke="#000000" stroke-opacity="1" stroke-width="1" stroke-linecap="square" stroke-linejoin="bevel" transform="matrix(0.999992,0,0,-0.999992,59849.4,61413.1)"
font-family="MS Shell Dlg 2" font-size="10.3125" font-weight="400" font-style="normal" 
>
</g>

<g fill="none" stroke="#000000" stroke-opacity="1" stroke-width="1" stroke-linecap="square" stroke-linejoin="bevel" transform="matrix(0.999992,0,0,-0.999992,59849.4,61413.1)"
font-family="MS Shell Dlg 2" font-size="10.3125" font-weight="400" font-style="normal" 
>
</g>

<g fill="#333333" fill-opacity="0.2" stroke="#333333" stroke-opacity="1" stroke-width="1" stroke-linecap="round" stroke-linejoin="round" transform="matrix(0.999992,0,0,-0.999992,59849.4,61413.1)"
font-family="MS Shell Dlg 2" font-size="10.3125" font-weight="400" font-style="normal" 
>
<path vector-effect="non-scaling-stroke" fill-rule="evenodd" d="M-1788.14,58333 L-4337.81,56907.1 L-4686.06,56712.4 L-4844.08,56564.9 L-5068.68,56486.6 L-13401.7,51549.2 L-13412.6,51538.9 L-13719.8,51360.5 L-13869.3,51215.3 L-14094.4,51134.1 L-25674.1,44117 L-37260.2,51180.3 L-37485.6,51262 L-37641.3,51411.6 L-37987.4,51610.2 L-38034.2,51623.4 L-46375.1,56125.6 L-46585.2,56185.8 L-46704.1,56303.1 L-46924.8,56434.6 L-46974.1,56485.4 L-51421.2,59445.4 L-50470,61189.3 L-4019.73,61412.6 L-1788.14,58333"/>
</g>

<g fill="none" stroke="#000000" stroke-opacity="1" stroke-width="1" stroke-linecap="square" stroke-linejoin="bevel" transform="matrix(0.999992,0,0,-0.999992,59849.4,61413.1)"
font-family="MS Shell Dlg 2" font-size="10.3125" font-weight="400" font-style="normal" 
>
</g>

<g fill="none" stroke="#000000" stroke-opacity="1" stroke-width="1" stroke-linecap="square" stroke-linejoin="bevel" transform="matrix(0.999992,0,0,-0.999992,59849.4,61413.1)"
font-family="MS Shell Dlg 2" font-size="10.3125" font-weight="400" font-style="normal" 
>
</g>

<g fill="#ae5151" fill-opacity="0.2" stroke="#333333" stroke-opacity="1" stroke-width="1" stroke-linecap="round" stroke-linejoin="round" transform="matrix(0.999992,0,0,-0.999992,59849.4,61413.1)"
font-family="MS Shell Dlg 2" font-size="10.3125" font-weight="400" font-style="normal" 
>
<path vector-effect="non-scaling-stroke" fill-rule="evenodd" d="M-57538.5,48230.4 L-53434.6,45785.4 L-53091.8,45581.2 L-52885.1,45518.1 L-52705,45362.8 L-44262.5,40614.8 L-44248.2,40610.5 L-43940,40433.7 L-43739.5,40376.8 L-43556.7,40222.5 L-31689.9,33702.8 L-32013.7,20137.2 L-31971.8,19901.2 L-32023.5,19691.5 L-32022.4,19292.5 L-32010.5,19245.4 L-31739,9770.84 L-31686.2,9558.83 L-31728.3,9397.18 L-31731.8,9140.28 L-31751.2,9072.22 L-32175.3,2419.05 L-35284.3,2456.5 L-59849.4,43993.7 L-57538.5,48230.4"/>
</g>

<g fill="none" stroke="#000000" stroke-opacity="1" stroke-width="1" stroke-linecap="square" stroke-linejoin="bevel" transform="matrix(0.999992,0,0,-0.999992,59849.4,61413.1)"
font-family="MS Shell Dlg 2" font-size="10.3125" font-weight="400" font-style="normal" 
>
</g>

<g fill="none" stroke="#000000" stroke-opacity="1" stroke-width="1" stroke-linecap="square" stroke-linejoin="bevel" transform="matrix(0.999992,0,0,-0.999992,59849.4,61413.1)"
font-family="MS Shell Dlg 2" font-size="10.3125" font-weight="400" font-style="normal" 
>
</g>

<g fill="#ae5151" fill-opacity="0.2" stroke="#333333" stroke-opacity="1" stroke-width="1" stroke-linecap="round" stroke-linejoin="round" transform="matrix(0.999992,0,0,-0.999992,59849.4,61413.1)"
font-family="MS Shell Dlg 2" font-size="10.3125" font-weight="400" font-style="normal" 
>
<path vector-effect="non-scaling-stroke" fill-rule="evenodd" d="M-19344.4,2264.46 L-19254.5,8827.26 L-19249,9226.24 L-19297.7,9436.82 L-19253.3,9670.47 L-19362.7,19355.8 L-19366.1,19370.4 L-19367.1,19725.6 L-19418,19927.7 L-19375.8,20163.3 L-19663,33700.1 L-7752.93,40202.3 L-7569.46,40356.7 L-7362.04,40416.7 L-7017.02,40617.2 L-6982.13,40651.1 L1087.28,45623.5 L1244.47,45775.2 L1405.5,45819.6 L1629.74,45945 L1698.41,45962.2 L5729.25,47959 L7146.19,46003.6 L-16748.9,2233.18 L-19344.4,2264.46"/>
</g>

<g fill="none" stroke="#000000" stroke-opacity="1" stroke-width="1" stroke-linecap="square" stroke-linejoin="bevel" transform="matrix(0.999992,0,0,-0.999992,59849.4,61413.1)"
font-family="MS Shell Dlg 2" font-size="10.3125" font-weight="400" font-style="normal" 
>
</g>

<g fill="none" stroke="#000000" stroke-opacity="1" stroke-width="1" stroke-linecap="square" stroke-linejoin="bevel" transform="matrix(0.999992,0,0,-0.999992,59849.4,61413.1)"
font-family="MS Shell Dlg 2" font-size="10.3125" font-weight="400" font-style="normal" 
>
</g>

<g fill="#ae5151" fill-opacity="0.2" stroke="#333333" stroke-opacity="1" stroke-width="1" stroke-linecap="round" stroke-linejoin="round" transform="matrix(0.999992,0,0,-0.999992,59849.4,61413.1)"
font-family="MS Shell Dlg 2" font-size="10.3125" font-weight="400" font-style="normal" 
>
<path vector-effect="non-scaling-stroke" fill-rule="evenodd" d="M-1788.14,58333 L-4337.81,56907.1 L-4686.06,56712.4 L-4844.08,56564.9 L-5068.68,56486.6 L-13401.7,51549.2 L-13412.6,51538.9 L-13719.8,51360.5 L-13869.3,51215.3 L-14094.4,51134.1 L-25674.1,44117 L-37260.2,51180.3 L-37485.6,51262 L-37641.3,51411.6 L-37987.4,51610.2 L-38034.2,51623.4 L-46375.1,56125.6 L-46585.2,56185.8 L-46704.1,56303.1 L-46924.8,56434.6 L-46974.1,56485.4 L-51421.2,59445.4 L-50470,61189.3 L-4019.73,61412.6 L-1788.14,58333"/>
</g>

<g fill="none" stroke="#000000" stroke-opacity="1" stroke-width="1" stroke-linecap="square" stroke-linejoin="bevel" transform="matrix(0.999992,0,0,-0.999992,59849.4,61413.1)"
font-family="MS Shell Dlg 2" font-size="10.3125" font-weight="400" font-style="normal" 
>
</g>

<g fill="none" stroke="#000000" stroke-opacity="1" stroke-width="1" stroke-linecap="square" stroke-linejoin="bevel" transform="matrix(0.999992,0,0,-0.999992,59849.4,61413.1)"
font-family="MS Shell Dlg 2" font-size="10.3125" font-weight="400" font-style="normal" 
>
</g>

<g fill="#ffff00" fill-opacity="0.2" stroke="#333333" stroke-opacity="1" stroke-width="1" stroke-linecap="round" stroke-linejoin="round" transform="matrix(0.999992,0,0,-0.999992,59849.4,61413.1)"
font-family="MS Shell Dlg 2" font-size="10.3125" font-weight="400" font-style="normal" 
>
<path vector-effect="non-scaling-stroke" fill-rule="evenodd" d="M-57538.5,48230.4 L-53434.6,45785.4 L-52714.6,45356.5 L-52669.2,45342.7 L-44262.5,40614.8 L-44248.2,40610.5 L-43559.2,40215.2 L-43526.6,40206 L-31689.9,33702.8 L-32012.8,20179 L-32024.7,20130.6 L-32022.4,19292.5 L-32010.5,19245.4 L-31739,9770.84 L-31724,9710.45 L-31731.8,9140.28 L-31751.2,9072.22 L-32175.3,2419.05 L-35284.3,2456.5 L-59849.4,43993.7 L-57538.5,48230.4"/>
</g>

<g fill="none" stroke="#000000" stroke-opacity="1" stroke-width="1" stroke-linecap="square" stroke-linejoin="bevel" transform="matrix(0.999992,0,0,-0.999992,59849.4,61413.1)"
font-family="MS Shell Dlg 2" font-size="10.3125" font-weight="400" font-style="normal" 
>
</g>

<g fill="none" stroke="#000000" stroke-opacity="1" stroke-width="1" stroke-linecap="square" stroke-linejoin="bevel" transform="matrix(0.999992,0,0,-0.999992,59849.4,61413.1)"
font-family="MS Shell Dlg 2" font-size="10.3125" font-weight="400" font-style="normal" 
>
</g>

<g fill="#ffff00" fill-opacity="0.2" stroke="#333333" stroke-opacity="1" stroke-width="1" stroke-linecap="round" stroke-linejoin="round" transform="matrix(0.999992,0,0,-0.999992,59849.4,61413.1)"
font-family="MS Shell Dlg 2" font-size="10.3125" font-weight="400" font-style="normal" 
>
<path vector-effect="non-scaling-stroke" fill-rule="evenodd" d="M-19344.4,2264.46 L-19254.5,8827.26 L-19243,9665.24 L-19253.7,9711.43 L-19362.7,19355.8 L-19366.1,19370.4 L-19368.2,20164.7 L-19376.5,20197.5 L-19663,33700.1 L-7789.56,40182.3 L-7741.66,40196.2 L-7017.02,40617.2 L-6982.13,40651.1 L1087.28,45623.5 L1132.05,45666.7 L1629.74,45945 L1698.41,45962.2 L5729.25,47959 L7146.19,46003.6 L-16748.9,2233.18 L-19344.4,2264.46"/>
</g>

<g fill="none" stroke="#000000" stroke-opacity="1" stroke-width="1" stroke-linecap="square" stroke-linejoin="bevel" transform="matrix(0.999992,0,0,-0.999992,59849.4,61413.1)"
font-family="MS Shell Dlg 2" font-size="10.3125" font-weight="400" font-style="normal" 
>
</g>

<g fill="none" stroke="#000000" stroke-opacity="1" stroke-width="1" stroke-linecap="square" stroke-linejoin="bevel" transform="matrix(0.999992,0,0,-0.999992,59849.4,61413.1)"
font-family="MS Shell Dlg 2" font-size="10.3125" font-weight="400" font-style="normal" 
>
</g>

<g fill="#ffff00" fill-opacity="0.2" stroke="#333333" stroke-opacity="1" stroke-width="1" stroke-linecap="round" stroke-linejoin="round" transform="matrix(0.999992,0,0,-0.999992,59849.4,61413.1)"
font-family="MS Shell Dlg 2" font-size="10.3125" font-weight="400" font-style="normal" 
>
<path vector-effect="non-scaling-stroke" fill-rule="evenodd" d="M-1788.14,58333 L-4337.81,56907.1 L-5069.26,56498.1 L-5103.92,56465.8 L-13401.7,51549.2 L-13412.6,51538.9 L-14099.4,51140 L-14123.7,51116.4 L-25674.1,44117 L-37224.6,51158.5 L-37260.5,51193.1 L-37987.4,51610.2 L-38034.2,51623.4 L-46375.1,56125.6 L-46435,56142.7 L-46924.8,56434.6 L-46974.1,56485.4 L-51421.2,59445.4 L-50470,61189.3 L-4019.73,61412.6 L-1788.14,58333"/>
</g>

<g fill="none" stroke="#000000" stroke-opacity="1" stroke-width="1" stroke-linecap="square" stroke-linejoin="bevel" transform="matrix(0.999992,0,0,-0.999992,59849.4,61413.1)"
font-family="MS Shell Dlg 2" font-size="10.3125" font-weight="400" font-style="normal" 
>
</g>

<g fill="none" stroke="#000000" stroke-opacity="1" stroke-width="1" stroke-linecap="square" stroke-linejoin="bevel" transform="matrix(0.999992,0,0,-0.999992,59849.4,61413.1)"
font-family="MS Shell Dlg 2" font-size="10.3125" font-weight="400" font-style="normal" 
>
</g>

<g fill="#ae5151" fill-opacity="0.2" stroke="#333333" stroke-opacity="1" stroke-width="1" stroke-linecap="round" stroke-linejoin="round" transform="matrix(0.999992,0,0,-0.999992,59849.4,61413.1)"
font-family="MS Shell Dlg 2" font-size="10.3125" font-weight="400" font-style="normal" 
>
<path vector-effect="non-scaling-stroke" fill-rule="evenodd" d="M-57538.5,48230.4 L-53417.5,45775.3 L-53194.9,45696.3 L-53057.4,45560.7 L-52714.6,45356.5 L-52669.2,45342.7 L-44262.5,40614.8 L-44047.1,40550 L-43905.3,40413.8 L-43559.2,40215.2 L-43526.6,40206 L-31689.9,33702.8 L-32012.8,20179 L-32024.7,20130.6 L-32023.6,19731.5 L-31970.9,19522.7 L-32011.7,19286.5 L-31739,9770.84 L-31724,9710.45 L-31727.7,9437.21 L-31691.6,9280.97 L-31751.2,9072.22 L-32175.3,2419.05 L-35284.3,2456.5 L-59849.4,43993.7 L-57538.5,48230.4"/>
</g>

<g fill="none" stroke="#000000" stroke-opacity="1" stroke-width="1" stroke-linecap="square" stroke-linejoin="bevel" transform="matrix(0.999992,0,0,-0.999992,59849.4,61413.1)"
font-family="MS Shell Dlg 2" font-size="10.3125" font-weight="400" font-style="normal" 
>
</g>

<g fill="none" stroke="#000000" stroke-opacity="1" stroke-width="1" stroke-linecap="square" stroke-linejoin="bevel" transform="matrix(0.999992,0,0,-0.999992,59849.4,61413.1)"
font-family="MS Shell Dlg 2" font-size="10.3125" font-weight="400" font-style="normal" 
>
</g>

<g fill="#ae5151" fill-opacity="0.2" stroke="#333333" stroke-opacity="1" stroke-width="1" stroke-linecap="round" stroke-linejoin="round" transform="matrix(0.999992,0,0,-0.999992,59849.4,61413.1)"
font-family="MS Shell Dlg 2" font-size="10.3125" font-weight="400" font-style="normal" 
>
<path vector-effect="non-scaling-stroke" fill-rule="evenodd" d="M-19344.4,2264.46 L-19254.2,8847.16 L-19297.1,9079.41 L-19248.5,9266.26 L-19243,9665.24 L-19253.7,9711.43 L-19362.7,19355.8 L-19414.2,19574.8 L-19367.2,19765.6 L-19368.2,20164.7 L-19376.5,20197.5 L-19663,33700.1 L-7789.56,40182.3 L-7741.66,40196.2 L-7396.64,40396.6 L-7242.13,40546.7 L-7017.16,40629.5 L1087.28,45623.5 L1132.05,45666.7 L1370.56,45800.1 L1487.8,45909.5 L1698.41,45962.2 L5729.25,47959 L7146.19,46003.6 L-16748.9,2233.18 L-19344.4,2264.46"/>
</g>

<g fill="none" stroke="#000000" stroke-opacity="1" stroke-width="1" stroke-linecap="square" stroke-linejoin="bevel" transform="matrix(0.999992,0,0,-0.999992,59849.4,61413.1)"
font-family="MS Shell Dlg 2" font-size="10.3125" font-weight="400" font-style="normal" 
>
</g>

<g fill="none" stroke="#000000" stroke-opacity="1" stroke-width="1" stroke-linecap="square" stroke-linejoin="bevel" transform="matrix(0.999992,0,0,-0.999992,59849.4,61413.1)"
font-family="MS Shell Dlg 2" font-size="10.3125" font-weight="400" font-style="normal" 
>
</g>

<g fill="#ae5151" fill-opacity="0.2" stroke="#333333" stroke-opacity="1" stroke-width="1" stroke-linecap="round" stroke-linejoin="round" transform="matrix(0.999992,0,0,-0.999992,59849.4,61413.1)"
font-family="MS Shell Dlg 2" font-size="10.3125" font-weight="400" font-style="normal" 
>
<path vector-effect="non-scaling-stroke" fill-rule="evenodd" d="M-1788.14,58333 L-4355.18,56897.4 L-4534.86,56744.2 L-4721,56692.9 L-5069.26,56498.1 L-5103.92,56465.8 L-13401.7,51549.2 L-13565.6,51395.1 L-13754.4,51340.4 L-14099.4,51140 L-14123.7,51116.4 L-25674.1,44117 L-37224.6,51158.5 L-37260.5,51193.1 L-37606.6,51391.7 L-37813.8,51450.5 L-37998,51603.9 L-46375.1,56125.6 L-46435,56142.7 L-46669.7,56282.6 L-46823.1,56329.4 L-46974.1,56485.4 L-51421.2,59445.4 L-50470,61189.3 L-4019.73,61412.6 L-1788.14,58333"/>
</g>

<g fill="none" stroke="#000000" stroke-opacity="1" stroke-width="1" stroke-linecap="square" stroke-linejoin="bevel" transform="matrix(0.999992,0,0,-0.999992,59849.4,61413.1)"
font-family="MS Shell Dlg 2" font-size="10.3125" font-weight="400" font-style="normal" 
>
</g>

<g fill="none" stroke="#000000" stroke-opacity="1" stroke-width="1" stroke-linecap="square" stroke-linejoin="bevel" transform="matrix(0.999992,0,0,-0.999992,59849.4,61413.1)"
font-family="MS Shell Dlg 2" font-size="10.3125" font-weight="400" font-style="normal" 
>
</g>

<g fill="#333333" fill-opacity="0.2" stroke="#333333" stroke-opacity="1" stroke-width="1" stroke-linecap="round" stroke-linejoin="round" transform="matrix(0.999992,0,0,-0.999992,59849.4,61413.1)"
font-family="MS Shell Dlg 2" font-size="10.3125" font-weight="400" font-style="normal" 
>
<path vector-effect="non-scaling-stroke" fill-rule="evenodd" d="M-57538.5,48230.4 L-53417.5,45775.3 L-53194.9,45696.3 L-53057.4,45560.7 L-52714.6,45356.5 L-52669.2,45342.7 L-44262.5,40614.8 L-44047.1,40550 L-43905.3,40413.8 L-43559.2,40215.2 L-43526.6,40206 L-31689.9,33702.8 L-32012.8,20179 L-32024.7,20130.6 L-32023.6,19731.5 L-31970.9,19522.7 L-32011.7,19286.5 L-31739,9770.84 L-31724,9710.45 L-31727.7,9437.21 L-31691.6,9280.97 L-31751.2,9072.22 L-32175.3,2419.05 L-35284.3,2456.5 L-59849.4,43993.7 L-57538.5,48230.4"/>
</g>

<g fill="none" stroke="#000000" stroke-opacity="1" stroke-width="1" stroke-linecap="square" stroke-linejoin="bevel" transform="matrix(0.999992,0,0,-0.999992,59849.4,61413.1)"
font-family="MS Shell Dlg 2" font-size="10.3125" font-weight="400" font-style="normal" 
>
</g>

<g fill="none" stroke="#000000" stroke-opacity="1" stroke-width="1" stroke-linecap="square" stroke-linejoin="bevel" transform="matrix(0.999992,0,0,-0.999992,59849.4,61413.1)"
font-family="MS Shell Dlg 2" font-size="10.3125" font-weight="400" font-style="normal" 
>
</g>

<g fill="#333333" fill-opacity="0.2" stroke="#333333" stroke-opacity="1" stroke-width="1" stroke-linecap="round" stroke-linejoin="round" transform="matrix(0.999992,0,0,-0.999992,59849.4,61413.1)"
font-family="MS Shell Dlg 2" font-size="10.3125" font-weight="400" font-style="normal" 
>
<path vector-effect="non-scaling-stroke" fill-rule="evenodd" d="M-19344.4,2264.46 L-19254.2,8847.16 L-19297.1,9079.41 L-19248.5,9266.26 L-19243,9665.24 L-19253.7,9711.43 L-19362.7,19355.8 L-19414.2,19574.8 L-19367.2,19765.6 L-19368.2,20164.7 L-19376.5,20197.5 L-19663,33700.1 L-7789.56,40182.3 L-7741.66,40196.2 L-7396.64,40396.6 L-7242.13,40546.7 L-7017.16,40629.5 L1087.28,45623.5 L1132.05,45666.7 L1370.56,45800.1 L1487.8,45909.5 L1698.41,45962.2 L5729.25,47959 L7146.19,46003.6 L-16748.9,2233.18 L-19344.4,2264.46"/>
</g>

<g fill="none" stroke="#000000" stroke-opacity="1" stroke-width="1" stroke-linecap="square" stroke-linejoin="bevel" transform="matrix(0.999992,0,0,-0.999992,59849.4,61413.1)"
font-family="MS Shell Dlg 2" font-size="10.3125" font-weight="400" font-style="normal" 
>
</g>

<g fill="none" stroke="#000000" stroke-opacity="1" stroke-width="1" stroke-linecap="square" stroke-linejoin="bevel" transform="matrix(0.999992,0,0,-0.999992,59849.4,61413.1)"
font-family="MS Shell Dlg 2" font-size="10.3125" font-weight="400" font-style="normal" 
>
</g>

<g fill="#333333" fill-opacity="0.2" stroke="#333333" stroke-opacity="1" stroke-width="1" stroke-linecap="round" stroke-linejoin="round" transform="matrix(0.999992,0,0,-0.999992,59849.4,61413.1)"
font-family="MS Shell Dlg 2" font-size="10.3125" font-weight="400" font-style="normal" 
>
<path vector-effect="non-scaling-stroke" fill-rule="evenodd" d="M-1788.14,58333 L-4355.18,56897.4 L-4534.86,56744.2 L-4721,56692.9 L-5069.26,56498.1 L-5103.92,56465.8 L-13401.7,51549.2 L-13565.6,51395.1 L-13754.4,51340.4 L-14099.4,51140 L-14123.7,51116.4 L-25674.1,44117 L-37224.6,51158.5 L-37260.5,51193.1 L-37606.6,51391.7 L-37813.8,51450.5 L-37998,51603.9 L-46375.1,56125.6 L-46435,56142.7 L-46669.7,56282.6 L-46823.1,56329.4 L-46974.1,56485.4 L-51421.2,59445.4 L-50470,61189.3 L-4019.73,61412.6 L-1788.14,58333"/>
</g>

<g fill="none" stroke="#000000" stroke-opacity="1" stroke-width="1" stroke-linecap="square" stroke-linejoin="bevel" transform="matrix(0.999992,0,0,-0.999992,59849.4,61413.1)"
font-family="MS Shell Dlg 2" font-size="10.3125" font-weight="400" font-style="normal" 
>
</g>

<g fill="none" stroke="#000000" stroke-opacity="1" stroke-width="1" stroke-linecap="square" stroke-linejoin="bevel" transform="matrix(1,0,0,-1,0,59180.4)"
font-family="MS Shell Dlg 2" font-size="10.3125" font-weight="400" font-style="normal" 
>
</g>
</g>
</svg>
