<?xml version="1.0" encoding="UTF-8" standalone="no"?>
<svg width="6670.04mm" height="1275.08mm"
 xmlns="http://www.w3.org/2000/svg" xmlns:xlink="http://www.w3.org/1999/xlink"  version="1.2" baseProfile="tiny">
<title>SVG Generator Example Drawing</title>
<desc>An SVG drawing created by the SVG Generator</desc>
<defs>
</defs>
<g fill="none" stroke="black" stroke-width="1" fill-rule="evenodd" stroke-linecap="square" stroke-linejoin="bevel" >

<g fill="none" stroke="#000000" stroke-opacity="1" stroke-width="1" stroke-linecap="square" stroke-linejoin="bevel" transform="matrix(1,0,0,-1,0,4518.61)"
font-family="MS Shell Dlg 2" font-size="10.3125" font-weight="400" font-style="normal" 
>
</g>

<g fill="none" stroke="#000000" stroke-opacity="1" stroke-width="1" stroke-linecap="square" stroke-linejoin="bevel" transform="matrix(1,0,0,-1,0,4518.61)"
font-family="MS Shell Dlg 2" font-size="10.3125" font-weight="400" font-style="normal" 
>
</g>

<g fill="none" stroke="#000000" stroke-opacity="1" stroke-width="1" stroke-linecap="square" stroke-linejoin="bevel" transform="matrix(0.999865,0,0,-0.999865,2776.32,-12996.4)"
font-family="MS Shell Dlg 2" font-size="10.3125" font-weight="400" font-style="normal" 
>
</g>

<g fill="#333333" fill-opacity="0.2" stroke="#333333" stroke-opacity="1" stroke-width="1" stroke-linecap="round" stroke-linejoin="round" transform="matrix(0.999865,0,0,-0.999865,2776.32,-12996.4)"
font-family="MS Shell Dlg 2" font-size="10.3125" font-weight="400" font-style="normal" 
>
<path vector-effect="non-scaling-stroke" fill-rule="evenodd" d="M-1928.69,-13991.3 L-1873.55,-16472.8 L-491.65,-16442.1 L-510.031,-15614.9 L-511.132,-15565.4 L-463.344,-15485.9 L-376.904,-15473.2 L-311.368,-15523.4 L-276.523,-16645.4 L-2574.73,-16696.5 L-2624.26,-16697.6 L-2703.79,-16649.8 L-2716.43,-16564.2 L-2664.17,-16499.9 L-2084.05,-16477.5 L-2139.2,-13996 L-2634.5,-14007 L-2684.03,-14008.1 L-2763.51,-13962.4 L-2776.19,-13874.7 L-2723.94,-13810.4 L-1438.01,-13772.3 L-1388.48,-13771.2 L-1309,-13816.9 L-1296.32,-13904.6 L-1348.57,-13968.9 L-1928.69,-13991.3"/>
</g>

<g fill="none" stroke="#000000" stroke-opacity="1" stroke-width="1" stroke-linecap="square" stroke-linejoin="bevel" transform="matrix(0.999865,0,0,-0.999865,2776.32,-12996.4)"
font-family="MS Shell Dlg 2" font-size="10.3125" font-weight="400" font-style="normal" 
>
</g>

<g fill="none" stroke="#000000" stroke-opacity="1" stroke-width="1" stroke-linecap="square" stroke-linejoin="bevel" transform="matrix(0.999865,0,0,-0.999865,2776.32,-12996.4)"
font-family="MS Shell Dlg 2" font-size="10.3125" font-weight="400" font-style="normal" 
>
</g>

<g fill="#333333" fill-opacity="0.2" stroke="#333333" stroke-opacity="1" stroke-width="1" stroke-linecap="round" stroke-linejoin="round" transform="matrix(0.999865,0,0,-0.999865,2776.32,-12996.4)"
font-family="MS Shell Dlg 2" font-size="10.3125" font-weight="400" font-style="normal" 
>
<path vector-effect="non-scaling-stroke" fill-rule="evenodd" d="M17664.7,-14435.5 L17676.2,-14950.6 L17686.1,-15398 L17218.1,-16228.6 L16633.5,-16344 L16299.3,-16229.6 L16078.8,-16024.3 L15905.1,-15699.4 L15793.7,-15348.4 L15755.3,-14477.9 L15745.4,-14028.9 L16213.3,-13197.5 L16799.7,-13082.1 L17132.6,-13196.5 L17354.4,-13403.4 L17526.8,-13729.1 L17638.6,-14077.6 L17664.7,-14435.5 M17457.3,-14467.4 L17452.9,-14270.9 L17303.1,-13752.7 L17123.6,-13463 L16906.5,-13319.2 L16450.2,-13300.4 L16016.8,-13904.7 L15974.2,-14958.7 L15978.5,-15155.2 L16128.4,-15675.5 L16308.7,-15963.9 L16525,-16108.5 L16982.2,-16128.1 L17414.7,-15521.8 L17457.3,-14467.4"/>
</g>

<g fill="none" stroke="#000000" stroke-opacity="1" stroke-width="1" stroke-linecap="square" stroke-linejoin="bevel" transform="matrix(0.999865,0,0,-0.999865,2776.32,-12996.4)"
font-family="MS Shell Dlg 2" font-size="10.3125" font-weight="400" font-style="normal" 
>
</g>

<g fill="none" stroke="#000000" stroke-opacity="1" stroke-width="1" stroke-linecap="square" stroke-linejoin="bevel" transform="matrix(0.999865,0,0,-0.999865,2776.32,-12996.4)"
font-family="MS Shell Dlg 2" font-size="10.3125" font-weight="400" font-style="normal" 
>
</g>

<g fill="#333333" fill-opacity="0.2" stroke="#333333" stroke-opacity="1" stroke-width="1" stroke-linecap="round" stroke-linejoin="round" transform="matrix(0.999865,0,0,-0.999865,2776.32,-12996.4)"
font-family="MS Shell Dlg 2" font-size="10.3125" font-weight="400" font-style="normal" 
>
<path vector-effect="non-scaling-stroke" fill-rule="evenodd" d="M19826.2,-13047 L19891.6,-15989.1 L20604.8,-15973.3 L20654.3,-15972.2 L20733.8,-16017.9 L20746.5,-16103.9 L20694.2,-16169.5 L18974.9,-16217.6 L18925.4,-16218.7 L18845.9,-16170.9 L18833.2,-16085.3 L18885.5,-16021 L19683.5,-15993.7 L19624.5,-13338.9 L18950.7,-13567 L18917.9,-13577.6 L18854.4,-13584 L18789.3,-13533.8 L18777.3,-13456.9 L18814,-13398.2 L19826.2,-13047"/>
</g>

<g fill="none" stroke="#000000" stroke-opacity="1" stroke-width="1" stroke-linecap="square" stroke-linejoin="bevel" transform="matrix(0.999865,0,0,-0.999865,2776.32,-12996.4)"
font-family="MS Shell Dlg 2" font-size="10.3125" font-weight="400" font-style="normal" 
>
</g>

<g fill="none" stroke="#000000" stroke-opacity="1" stroke-width="1" stroke-linecap="square" stroke-linejoin="bevel" transform="matrix(0.999865,0,0,-0.999865,2776.32,-12996.4)"
font-family="MS Shell Dlg 2" font-size="10.3125" font-weight="400" font-style="normal" 
>
</g>

<g fill="#333333" fill-opacity="0.2" stroke="#333333" stroke-opacity="1" stroke-width="1" stroke-linecap="round" stroke-linejoin="round" transform="matrix(0.999865,0,0,-0.999865,2776.32,-12996.4)"
font-family="MS Shell Dlg 2" font-size="10.3125" font-weight="400" font-style="normal" 
>
<path vector-effect="non-scaling-stroke" fill-rule="evenodd" d="M4591.32,-16537.3 L3582.49,-14624.6 L3520.58,-14625.9 L3471.05,-14627 L3391.52,-14579.2 L3379.11,-14503.5 L3404.73,-14448.9 L3452.83,-14420.6 L4085.5,-14402.8 L4135.03,-14401.7 L4214.55,-14449.5 L4227.21,-14535.9 L4174.99,-14601.5 L3810.33,-14619.5 L4697.7,-16306.9 L5496.84,-14582 L5216.99,-14588.2 L5167.46,-14589.3 L5087.94,-14541.6 L5075.28,-14455.1 L5127.51,-14389.5 L5779.44,-14365.1 L5830.62,-14364 L5910.97,-14411.8 L5923.44,-14489.9 L5891.67,-14546.8 L5844.31,-14571.4 L4464.3,-17288.4 L4788.72,-17281.1 L4838.25,-17280 L4917.73,-17325.8 L4930.38,-17411.8 L4878.15,-17477.4 L3594.71,-17515.8 L3545.18,-17516.9 L3465.7,-17471.2 L3453.02,-17383.5 L3505.27,-17319.2 L4241.41,-17293.3 L4591.32,-16537.3"/>
</g>

<g fill="none" stroke="#000000" stroke-opacity="1" stroke-width="1" stroke-linecap="square" stroke-linejoin="bevel" transform="matrix(0.999865,0,0,-0.999865,2776.32,-12996.4)"
font-family="MS Shell Dlg 2" font-size="10.3125" font-weight="400" font-style="normal" 
>
</g>

<g fill="none" stroke="#000000" stroke-opacity="1" stroke-width="1" stroke-linecap="square" stroke-linejoin="bevel" transform="matrix(0.999865,0,0,-0.999865,2776.32,-12996.4)"
font-family="MS Shell Dlg 2" font-size="10.3125" font-weight="400" font-style="normal" 
>
</g>

<g fill="#333333" fill-opacity="0.2" stroke="#333333" stroke-opacity="1" stroke-width="1" stroke-linecap="round" stroke-linejoin="round" transform="matrix(0.999865,0,0,-0.999865,2776.32,-12996.4)"
font-family="MS Shell Dlg 2" font-size="10.3125" font-weight="400" font-style="normal" 
>
<path vector-effect="non-scaling-stroke" fill-rule="evenodd" d="M2132.63,-16591.9 L2125.97,-16292.2 L1829.49,-16553.2 L916.825,-16700.7 L434.317,-16395.5 L352.161,-15857.6 L803.859,-15371 L1522.86,-15279.9 L1852.1,-15303.5 L2097.41,-15006.9 L2094.88,-14893 L1824.77,-14631.4 L1292.21,-14601.1 L723.639,-14771.5 L648.701,-14781.4 L586.926,-14733.3 L575.598,-14650.9 L622.065,-14586.3 L1133.11,-14428.7 L1721.75,-14381 L2227.56,-14693.9 L2338.51,-16379.2 L2615.88,-16373 L2667.06,-16371.9 L2747.37,-16417.6 L2760.02,-16503.6 L2707.79,-16569.2 L2132.63,-16591.9 M2109.63,-15556.7 L2011.59,-15530.8 L1689.43,-15490.9 L1151.87,-15496.2 L623.459,-15801.2 L567.453,-16179.9 L819.205,-16451.8 L1331.56,-16483.3 L1803.47,-16293.2 L2109.63,-15556.7"/>
</g>

<g fill="none" stroke="#000000" stroke-opacity="1" stroke-width="1" stroke-linecap="square" stroke-linejoin="bevel" transform="matrix(0.999865,0,0,-0.999865,2776.32,-12996.4)"
font-family="MS Shell Dlg 2" font-size="10.3125" font-weight="400" font-style="normal" 
>
</g>

<g fill="none" stroke="#000000" stroke-opacity="1" stroke-width="1" stroke-linecap="square" stroke-linejoin="bevel" transform="matrix(0.999865,0,0,-0.999865,2776.32,-12996.4)"
font-family="MS Shell Dlg 2" font-size="10.3125" font-weight="400" font-style="normal" 
>
</g>

<g fill="#333333" fill-opacity="0.2" stroke="#333333" stroke-opacity="1" stroke-width="1" stroke-linecap="round" stroke-linejoin="round" transform="matrix(0.999865,0,0,-0.999865,2776.32,-12996.4)"
font-family="MS Shell Dlg 2" font-size="10.3125" font-weight="400" font-style="normal" 
>
<path vector-effect="non-scaling-stroke" fill-rule="evenodd" d="M8723.69,-15422.1 L6603.79,-15469.2 L6646.09,-15737.5 L7148.97,-16271.9 L7819.04,-16339.2 L8318.93,-16200 L8592.38,-16017.2 L8668.87,-16003.1 L8732.76,-16053.3 L8744.45,-16133.6 L8628.61,-16272.4 L8088.27,-16505.4 L7311.85,-16558.6 L6524.13,-15991.7 L6384.48,-15077.7 L6928.38,-14373.5 L7873.25,-14244.3 L8604.6,-14783.4 L8723.69,-15422.1 M8508.5,-15216.3 L8462.13,-14987.7 L7991.38,-14524.1 L7295.12,-14467.7 L6744.14,-14835.1 L8508.5,-15216.3"/>
</g>

<g fill="none" stroke="#000000" stroke-opacity="1" stroke-width="1" stroke-linecap="square" stroke-linejoin="bevel" transform="matrix(0.999865,0,0,-0.999865,2776.32,-12996.4)"
font-family="MS Shell Dlg 2" font-size="10.3125" font-weight="400" font-style="normal" 
>
</g>

<g fill="none" stroke="#000000" stroke-opacity="1" stroke-width="1" stroke-linecap="square" stroke-linejoin="bevel" transform="matrix(0.999865,0,0,-0.999865,2776.32,-12996.4)"
font-family="MS Shell Dlg 2" font-size="10.3125" font-weight="400" font-style="normal" 
>
</g>

<g fill="#333333" fill-opacity="0.2" stroke="#333333" stroke-opacity="1" stroke-width="1" stroke-linecap="round" stroke-linejoin="round" transform="matrix(0.999865,0,0,-0.999865,2776.32,-12996.4)"
font-family="MS Shell Dlg 2" font-size="10.3125" font-weight="400" font-style="normal" 
>
<path vector-effect="non-scaling-stroke" fill-rule="evenodd" d="M10367.4,-14263.2 L10379.1,-14788.2 L10644.4,-14537.8 L11109.6,-14229.8 L11470.8,-14186.6 L11803.6,-14387.8 L11859.9,-14524 L11809.8,-14592.5 L11736.1,-14604.4 L11698.7,-14590.8 L11585.6,-14485.5 L11447.6,-14406 L11273.2,-14399.1 L10911.9,-14588.9 L10410.5,-16199.8 L11331.7,-16179.3 L11382.9,-16178.2 L11463.2,-16223.9 L11475.9,-16309.9 L11423.6,-16375.5 L9704.33,-16423.6 L9654.8,-16424.7 L9575.32,-16379 L9562.76,-16297.1 L9612.99,-16234.5 L10202.6,-16211.9 L10164.1,-14478.3 L9780.22,-14486.8 L9730.69,-14487.9 L9651.17,-14440.1 L9638.51,-14353.7 L9688.67,-14288.2 L10367.4,-14263.2"/>
</g>

<g fill="none" stroke="#000000" stroke-opacity="1" stroke-width="1" stroke-linecap="square" stroke-linejoin="bevel" transform="matrix(0.999865,0,0,-0.999865,2776.32,-12996.4)"
font-family="MS Shell Dlg 2" font-size="10.3125" font-weight="400" font-style="normal" 
>
</g>

<g fill="none" stroke="#000000" stroke-opacity="1" stroke-width="1" stroke-linecap="square" stroke-linejoin="bevel" transform="matrix(0.999865,0,0,-0.999865,2776.32,-12996.4)"
font-family="MS Shell Dlg 2" font-size="10.3125" font-weight="400" font-style="normal" 
>
</g>

<g fill="#ae5151" fill-opacity="0.2" stroke="#333333" stroke-opacity="1" stroke-width="1" stroke-linecap="round" stroke-linejoin="round" transform="matrix(0.999865,0,0,-0.999865,2776.32,-12996.4)"
font-family="MS Shell Dlg 2" font-size="10.3125" font-weight="400" font-style="normal" 
>
<path vector-effect="non-scaling-stroke" fill-rule="evenodd" d="M-1928.69,-13991.3 L-1873.55,-16472.8 L-491.65,-16442.1 L-510.031,-15614.9 L-511.132,-15565.4 L-463.344,-15485.9 L-376.904,-15473.2 L-311.368,-15523.4 L-276.523,-16645.4 L-2574.73,-16696.5 L-2624.26,-16697.6 L-2703.79,-16649.8 L-2716.43,-16564.2 L-2664.17,-16499.9 L-2084.05,-16477.5 L-2139.2,-13996 L-2634.5,-14007 L-2684.03,-14008.1 L-2763.51,-13962.4 L-2776.19,-13874.7 L-2723.94,-13810.4 L-1438.01,-13772.3 L-1388.48,-13771.2 L-1309,-13816.9 L-1296.32,-13904.6 L-1348.57,-13968.9 L-1928.69,-13991.3"/>
</g>

<g fill="none" stroke="#000000" stroke-opacity="1" stroke-width="1" stroke-linecap="square" stroke-linejoin="bevel" transform="matrix(0.999865,0,0,-0.999865,2776.32,-12996.4)"
font-family="MS Shell Dlg 2" font-size="10.3125" font-weight="400" font-style="normal" 
>
</g>

<g fill="none" stroke="#000000" stroke-opacity="1" stroke-width="1" stroke-linecap="square" stroke-linejoin="bevel" transform="matrix(0.999865,0,0,-0.999865,2776.32,-12996.4)"
font-family="MS Shell Dlg 2" font-size="10.3125" font-weight="400" font-style="normal" 
>
</g>

<g fill="#ae5151" fill-opacity="0.2" stroke="#333333" stroke-opacity="1" stroke-width="1" stroke-linecap="round" stroke-linejoin="round" transform="matrix(0.999865,0,0,-0.999865,2776.32,-12996.4)"
font-family="MS Shell Dlg 2" font-size="10.3125" font-weight="400" font-style="normal" 
>
<path vector-effect="non-scaling-stroke" fill-rule="evenodd" d="M17664.7,-14435.5 L17676.2,-14950.6 L17686.1,-15398 L17218.1,-16228.6 L16633.5,-16344 L16299.3,-16229.6 L16078.8,-16024.3 L15905.1,-15699.4 L15793.7,-15348.4 L15755.3,-14477.9 L15745.4,-14028.9 L16213.3,-13197.5 L16799.7,-13082.1 L17132.6,-13196.5 L17354.4,-13403.4 L17526.8,-13729.1 L17638.6,-14077.6 L17664.7,-14435.5 M17457.3,-14467.4 L17452.9,-14270.9 L17303.1,-13752.7 L17123.6,-13463 L16906.5,-13319.2 L16450.2,-13300.4 L16016.8,-13904.7 L15974.2,-14958.7 L15978.5,-15155.2 L16128.4,-15675.5 L16308.7,-15963.9 L16525,-16108.5 L16982.2,-16128.1 L17414.7,-15521.8 L17457.3,-14467.4"/>
</g>

<g fill="none" stroke="#000000" stroke-opacity="1" stroke-width="1" stroke-linecap="square" stroke-linejoin="bevel" transform="matrix(0.999865,0,0,-0.999865,2776.32,-12996.4)"
font-family="MS Shell Dlg 2" font-size="10.3125" font-weight="400" font-style="normal" 
>
</g>

<g fill="none" stroke="#000000" stroke-opacity="1" stroke-width="1" stroke-linecap="square" stroke-linejoin="bevel" transform="matrix(0.999865,0,0,-0.999865,2776.32,-12996.4)"
font-family="MS Shell Dlg 2" font-size="10.3125" font-weight="400" font-style="normal" 
>
</g>

<g fill="#ae5151" fill-opacity="0.2" stroke="#333333" stroke-opacity="1" stroke-width="1" stroke-linecap="round" stroke-linejoin="round" transform="matrix(0.999865,0,0,-0.999865,2776.32,-12996.4)"
font-family="MS Shell Dlg 2" font-size="10.3125" font-weight="400" font-style="normal" 
>
<path vector-effect="non-scaling-stroke" fill-rule="evenodd" d="M18893.5,-16011.3 L20490.9,-15975.8 L20489.1,-15894.1 L20488,-15844.5 L20535.7,-15765 L20622.2,-15752.4 L20687.8,-15804.6 L20706,-16179.2 L18695.1,-16223.8 L18688.2,-15916.8 L19102.5,-15527.6 L20078.3,-14542.9 L20338.1,-14230.7 L20432.2,-14022.6 L20438.1,-13712.3 L20069.4,-13288.6 L19509.8,-13232.4 L19074,-13502.3 L18939.1,-13827.4 L18893.3,-13882.1 L18815.9,-13892.1 L18753.3,-13846 L18741,-13717.8 L18949.3,-13334.9 L19368.6,-13063.8 L19943.5,-13012.2 L20549.5,-13448.9 L20654.5,-13974.3 L20581.6,-14224.1 L20384.3,-14506 L19584,-15341 L18893.5,-16011.3"/>
</g>

<g fill="none" stroke="#000000" stroke-opacity="1" stroke-width="1" stroke-linecap="square" stroke-linejoin="bevel" transform="matrix(0.999865,0,0,-0.999865,2776.32,-12996.4)"
font-family="MS Shell Dlg 2" font-size="10.3125" font-weight="400" font-style="normal" 
>
</g>

<g fill="none" stroke="#000000" stroke-opacity="1" stroke-width="1" stroke-linecap="square" stroke-linejoin="bevel" transform="matrix(0.999865,0,0,-0.999865,2776.32,-12996.4)"
font-family="MS Shell Dlg 2" font-size="10.3125" font-weight="400" font-style="normal" 
>
</g>

<g fill="#ae5151" fill-opacity="0.2" stroke="#333333" stroke-opacity="1" stroke-width="1" stroke-linecap="round" stroke-linejoin="round" transform="matrix(0.999865,0,0,-0.999865,2776.32,-12996.4)"
font-family="MS Shell Dlg 2" font-size="10.3125" font-weight="400" font-style="normal" 
>
<path vector-effect="non-scaling-stroke" fill-rule="evenodd" d="M4591.32,-16537.3 L3582.49,-14624.6 L3520.58,-14625.9 L3471.05,-14627 L3391.52,-14579.2 L3379.11,-14503.5 L3404.73,-14448.9 L3452.83,-14420.6 L4085.5,-14402.8 L4135.03,-14401.7 L4214.55,-14449.5 L4227.21,-14535.9 L4174.99,-14601.5 L3810.33,-14619.5 L4697.7,-16306.9 L5496.84,-14582 L5216.99,-14588.2 L5167.46,-14589.3 L5087.94,-14541.6 L5075.28,-14455.1 L5127.51,-14389.5 L5779.44,-14365.1 L5830.62,-14364 L5910.97,-14411.8 L5923.44,-14489.9 L5891.67,-14546.8 L5844.31,-14571.4 L4464.3,-17288.4 L4788.72,-17281.1 L4838.25,-17280 L4917.73,-17325.8 L4930.38,-17411.8 L4878.15,-17477.4 L3594.71,-17515.8 L3545.18,-17516.9 L3465.7,-17471.2 L3453.02,-17383.5 L3505.27,-17319.2 L4241.41,-17293.3 L4591.32,-16537.3"/>
</g>

<g fill="none" stroke="#000000" stroke-opacity="1" stroke-width="1" stroke-linecap="square" stroke-linejoin="bevel" transform="matrix(0.999865,0,0,-0.999865,2776.32,-12996.4)"
font-family="MS Shell Dlg 2" font-size="10.3125" font-weight="400" font-style="normal" 
>
</g>

<g fill="none" stroke="#000000" stroke-opacity="1" stroke-width="1" stroke-linecap="square" stroke-linejoin="bevel" transform="matrix(0.999865,0,0,-0.999865,2776.32,-12996.4)"
font-family="MS Shell Dlg 2" font-size="10.3125" font-weight="400" font-style="normal" 
>
</g>

<g fill="#ae5151" fill-opacity="0.2" stroke="#333333" stroke-opacity="1" stroke-width="1" stroke-linecap="round" stroke-linejoin="round" transform="matrix(0.999865,0,0,-0.999865,2776.32,-12996.4)"
font-family="MS Shell Dlg 2" font-size="10.3125" font-weight="400" font-style="normal" 
>
<path vector-effect="non-scaling-stroke" fill-rule="evenodd" d="M2132.63,-16591.9 L2125.97,-16292.2 L1829.49,-16553.2 L916.825,-16700.7 L434.317,-16395.5 L352.161,-15857.6 L803.859,-15371 L1522.86,-15279.9 L1852.1,-15303.5 L2097.41,-15006.9 L2094.88,-14893 L1824.77,-14631.4 L1292.21,-14601.1 L723.639,-14771.5 L648.701,-14781.4 L586.926,-14733.3 L575.598,-14650.9 L622.065,-14586.3 L1133.11,-14428.7 L1721.75,-14381 L2227.56,-14693.9 L2338.51,-16379.2 L2615.88,-16373 L2667.06,-16371.9 L2747.37,-16417.6 L2760.02,-16503.6 L2707.79,-16569.2 L2132.63,-16591.9 M2109.63,-15556.7 L2011.59,-15530.8 L1689.43,-15490.9 L1151.87,-15496.2 L623.459,-15801.2 L567.453,-16179.9 L819.205,-16451.8 L1331.56,-16483.3 L1803.47,-16293.2 L2109.63,-15556.7"/>
</g>

<g fill="none" stroke="#000000" stroke-opacity="1" stroke-width="1" stroke-linecap="square" stroke-linejoin="bevel" transform="matrix(0.999865,0,0,-0.999865,2776.32,-12996.4)"
font-family="MS Shell Dlg 2" font-size="10.3125" font-weight="400" font-style="normal" 
>
</g>

<g fill="none" stroke="#000000" stroke-opacity="1" stroke-width="1" stroke-linecap="square" stroke-linejoin="bevel" transform="matrix(0.999865,0,0,-0.999865,2776.32,-12996.4)"
font-family="MS Shell Dlg 2" font-size="10.3125" font-weight="400" font-style="normal" 
>
</g>

<g fill="#ae5151" fill-opacity="0.2" stroke="#333333" stroke-opacity="1" stroke-width="1" stroke-linecap="round" stroke-linejoin="round" transform="matrix(0.999865,0,0,-0.999865,2776.32,-12996.4)"
font-family="MS Shell Dlg 2" font-size="10.3125" font-weight="400" font-style="normal" 
>
<path vector-effect="non-scaling-stroke" fill-rule="evenodd" d="M8723.69,-15422.1 L6603.79,-15469.2 L6646.09,-15737.5 L7148.97,-16271.9 L7819.04,-16339.2 L8318.93,-16200 L8592.38,-16017.2 L8668.87,-16003.1 L8732.76,-16053.3 L8744.45,-16133.6 L8628.61,-16272.4 L8088.27,-16505.4 L7311.85,-16558.6 L6524.13,-15991.7 L6384.48,-15077.7 L6928.38,-14373.5 L7873.25,-14244.3 L8604.6,-14783.4 L8723.69,-15422.1 M8508.5,-15216.3 L8462.13,-14987.7 L7991.38,-14524.1 L7295.12,-14467.7 L6744.14,-14835.1 L8508.5,-15216.3"/>
</g>

<g fill="none" stroke="#000000" stroke-opacity="1" stroke-width="1" stroke-linecap="square" stroke-linejoin="bevel" transform="matrix(0.999865,0,0,-0.999865,2776.32,-12996.4)"
font-family="MS Shell Dlg 2" font-size="10.3125" font-weight="400" font-style="normal" 
>
</g>

<g fill="none" stroke="#000000" stroke-opacity="1" stroke-width="1" stroke-linecap="square" stroke-linejoin="bevel" transform="matrix(0.999865,0,0,-0.999865,2776.32,-12996.4)"
font-family="MS Shell Dlg 2" font-size="10.3125" font-weight="400" font-style="normal" 
>
</g>

<g fill="#ae5151" fill-opacity="0.2" stroke="#333333" stroke-opacity="1" stroke-width="1" stroke-linecap="round" stroke-linejoin="round" transform="matrix(0.999865,0,0,-0.999865,2776.32,-12996.4)"
font-family="MS Shell Dlg 2" font-size="10.3125" font-weight="400" font-style="normal" 
>
<path vector-effect="non-scaling-stroke" fill-rule="evenodd" d="M10367.4,-14263.2 L10379.1,-14788.2 L10644.4,-14537.8 L11109.6,-14229.8 L11470.8,-14186.6 L11803.6,-14387.8 L11859.9,-14524 L11809.8,-14592.5 L11736.1,-14604.4 L11698.7,-14590.8 L11585.6,-14485.5 L11447.6,-14406 L11273.2,-14399.1 L10911.9,-14588.9 L10410.5,-16199.8 L11331.7,-16179.3 L11382.9,-16178.2 L11463.2,-16223.9 L11475.9,-16309.9 L11423.6,-16375.5 L9704.33,-16423.6 L9654.8,-16424.7 L9575.32,-16379 L9562.76,-16297.1 L9612.99,-16234.5 L10202.6,-16211.9 L10164.1,-14478.3 L9780.22,-14486.8 L9730.69,-14487.9 L9651.17,-14440.1 L9638.51,-14353.7 L9688.67,-14288.2 L10367.4,-14263.2"/>
</g>

<g fill="none" stroke="#000000" stroke-opacity="1" stroke-width="1" stroke-linecap="square" stroke-linejoin="bevel" transform="matrix(0.999865,0,0,-0.999865,2776.32,-12996.4)"
font-family="MS Shell Dlg 2" font-size="10.3125" font-weight="400" font-style="normal" 
>
</g>

<g fill="none" stroke="#000000" stroke-opacity="1" stroke-width="1" stroke-linecap="square" stroke-linejoin="bevel" transform="matrix(0.999865,0,0,-0.999865,2776.32,-12996.4)"
font-family="MS Shell Dlg 2" font-size="10.3125" font-weight="400" font-style="normal" 
>
</g>

<g fill="#ffff00" fill-opacity="0.2" stroke="#333333" stroke-opacity="1" stroke-width="1" stroke-linecap="round" stroke-linejoin="round" transform="matrix(0.999865,0,0,-0.999865,2776.32,-12996.4)"
font-family="MS Shell Dlg 2" font-size="10.3125" font-weight="400" font-style="normal" 
>
<path vector-effect="non-scaling-stroke" fill-rule="evenodd" d="M-1928.69,-13991.3 L-1873.55,-16472.8 L-491.65,-16442.1 L-510.031,-15614.9 L-511.132,-15565.4 L-463.344,-15485.9 L-376.904,-15473.2 L-311.368,-15523.4 L-276.523,-16645.4 L-2574.73,-16696.5 L-2624.26,-16697.6 L-2703.79,-16649.8 L-2716.43,-16564.2 L-2664.17,-16499.9 L-2084.05,-16477.5 L-2139.2,-13996 L-2634.5,-14007 L-2684.03,-14008.1 L-2763.51,-13962.4 L-2776.19,-13874.7 L-2723.94,-13810.4 L-1438.01,-13772.3 L-1388.48,-13771.2 L-1309,-13816.9 L-1296.32,-13904.6 L-1348.57,-13968.9 L-1928.69,-13991.3"/>
</g>

<g fill="none" stroke="#000000" stroke-opacity="1" stroke-width="1" stroke-linecap="square" stroke-linejoin="bevel" transform="matrix(0.999865,0,0,-0.999865,2776.32,-12996.4)"
font-family="MS Shell Dlg 2" font-size="10.3125" font-weight="400" font-style="normal" 
>
</g>

<g fill="none" stroke="#000000" stroke-opacity="1" stroke-width="1" stroke-linecap="square" stroke-linejoin="bevel" transform="matrix(0.999865,0,0,-0.999865,2776.32,-12996.4)"
font-family="MS Shell Dlg 2" font-size="10.3125" font-weight="400" font-style="normal" 
>
</g>

<g fill="#ffff00" fill-opacity="0.2" stroke="#333333" stroke-opacity="1" stroke-width="1" stroke-linecap="round" stroke-linejoin="round" transform="matrix(0.999865,0,0,-0.999865,2776.32,-12996.4)"
font-family="MS Shell Dlg 2" font-size="10.3125" font-weight="400" font-style="normal" 
>
<path vector-effect="non-scaling-stroke" fill-rule="evenodd" d="M17664.7,-14435.5 L17676.2,-14950.6 L17686.1,-15398 L17218.1,-16228.6 L16633.5,-16344 L16299.3,-16229.6 L16078.8,-16024.3 L15905.1,-15699.4 L15793.7,-15348.4 L15755.3,-14477.9 L15745.4,-14028.9 L16213.3,-13197.5 L16799.7,-13082.1 L17132.6,-13196.5 L17354.4,-13403.4 L17526.8,-13729.1 L17638.6,-14077.6 L17664.7,-14435.5 M17457.3,-14467.4 L17452.9,-14270.9 L17303.1,-13752.7 L17123.6,-13463 L16906.5,-13319.2 L16450.2,-13300.4 L16016.8,-13904.7 L15974.2,-14958.7 L15978.5,-15155.2 L16128.4,-15675.5 L16308.7,-15963.9 L16525,-16108.5 L16982.2,-16128.1 L17414.7,-15521.8 L17457.3,-14467.4"/>
</g>

<g fill="none" stroke="#000000" stroke-opacity="1" stroke-width="1" stroke-linecap="square" stroke-linejoin="bevel" transform="matrix(0.999865,0,0,-0.999865,2776.32,-12996.4)"
font-family="MS Shell Dlg 2" font-size="10.3125" font-weight="400" font-style="normal" 
>
</g>

<g fill="none" stroke="#000000" stroke-opacity="1" stroke-width="1" stroke-linecap="square" stroke-linejoin="bevel" transform="matrix(0.999865,0,0,-0.999865,2776.32,-12996.4)"
font-family="MS Shell Dlg 2" font-size="10.3125" font-weight="400" font-style="normal" 
>
</g>

<g fill="#ffff00" fill-opacity="0.2" stroke="#333333" stroke-opacity="1" stroke-width="1" stroke-linecap="round" stroke-linejoin="round" transform="matrix(0.999865,0,0,-0.999865,2776.32,-12996.4)"
font-family="MS Shell Dlg 2" font-size="10.3125" font-weight="400" font-style="normal" 
>
<path vector-effect="non-scaling-stroke" fill-rule="evenodd" d="M20183,-14498.5 L20376.4,-14580.1 L20733.2,-14988.8 L20796.2,-15554.4 L20303.9,-16167 L19570.9,-16278.7 L18998.8,-16101.5 L18760.3,-15923.4 L18746,-15839.5 L18792.1,-15775.7 L18867.4,-15764.1 L19191.1,-15984 L19990.6,-16061.3 L20509.3,-15671.9 L20580,-15193.3 L20371.9,-14838.7 L19951.1,-14617.2 L19595.4,-14590.8 L19515.9,-14545.1 L19503.2,-14459.1 L19553.4,-14393.5 L19803.8,-14380.5 L19990.3,-14376.4 L20380.7,-14082.8 L20431.6,-13643.9 L20105.5,-13276.2 L19589.9,-13228.2 L19219.5,-13360.3 L19028,-13551.2 L18980.5,-13587.4 L18918.2,-13592.5 L18853.6,-13546.4 L18841.1,-13431.5 L19249.2,-13097.8 L19991.4,-13011.1 L20552.4,-13393 L20648.7,-13935.6 L20454.9,-14319 L20183,-14498.5"/>
</g>

<g fill="none" stroke="#000000" stroke-opacity="1" stroke-width="1" stroke-linecap="square" stroke-linejoin="bevel" transform="matrix(0.999865,0,0,-0.999865,2776.32,-12996.4)"
font-family="MS Shell Dlg 2" font-size="10.3125" font-weight="400" font-style="normal" 
>
</g>

<g fill="none" stroke="#000000" stroke-opacity="1" stroke-width="1" stroke-linecap="square" stroke-linejoin="bevel" transform="matrix(0.999865,0,0,-0.999865,2776.32,-12996.4)"
font-family="MS Shell Dlg 2" font-size="10.3125" font-weight="400" font-style="normal" 
>
</g>

<g fill="#ffff00" fill-opacity="0.2" stroke="#333333" stroke-opacity="1" stroke-width="1" stroke-linecap="round" stroke-linejoin="round" transform="matrix(0.999865,0,0,-0.999865,2776.32,-12996.4)"
font-family="MS Shell Dlg 2" font-size="10.3125" font-weight="400" font-style="normal" 
>
<path vector-effect="non-scaling-stroke" fill-rule="evenodd" d="M4591.32,-16537.3 L3582.49,-14624.6 L3520.58,-14625.9 L3471.05,-14627 L3391.52,-14579.2 L3379.11,-14503.5 L3404.73,-14448.9 L3452.83,-14420.6 L4085.5,-14402.8 L4135.03,-14401.7 L4214.55,-14449.5 L4227.21,-14535.9 L4174.99,-14601.5 L3810.33,-14619.5 L4697.7,-16306.9 L5496.84,-14582 L5216.99,-14588.2 L5167.46,-14589.3 L5087.94,-14541.6 L5075.28,-14455.1 L5127.51,-14389.5 L5779.44,-14365.1 L5830.62,-14364 L5910.97,-14411.8 L5923.44,-14489.9 L5891.67,-14546.8 L5844.31,-14571.4 L4464.3,-17288.4 L4788.72,-17281.1 L4838.25,-17280 L4917.73,-17325.8 L4930.38,-17411.8 L4878.15,-17477.4 L3594.71,-17515.8 L3545.18,-17516.9 L3465.7,-17471.2 L3453.02,-17383.5 L3505.27,-17319.2 L4241.41,-17293.3 L4591.32,-16537.3"/>
</g>

<g fill="none" stroke="#000000" stroke-opacity="1" stroke-width="1" stroke-linecap="square" stroke-linejoin="bevel" transform="matrix(0.999865,0,0,-0.999865,2776.32,-12996.4)"
font-family="MS Shell Dlg 2" font-size="10.3125" font-weight="400" font-style="normal" 
>
</g>

<g fill="none" stroke="#000000" stroke-opacity="1" stroke-width="1" stroke-linecap="square" stroke-linejoin="bevel" transform="matrix(0.999865,0,0,-0.999865,2776.32,-12996.4)"
font-family="MS Shell Dlg 2" font-size="10.3125" font-weight="400" font-style="normal" 
>
</g>

<g fill="#ffff00" fill-opacity="0.2" stroke="#333333" stroke-opacity="1" stroke-width="1" stroke-linecap="round" stroke-linejoin="round" transform="matrix(0.999865,0,0,-0.999865,2776.32,-12996.4)"
font-family="MS Shell Dlg 2" font-size="10.3125" font-weight="400" font-style="normal" 
>
<path vector-effect="non-scaling-stroke" fill-rule="evenodd" d="M2132.63,-16591.9 L2125.97,-16292.2 L1829.49,-16553.2 L916.825,-16700.7 L434.317,-16395.5 L352.161,-15857.6 L803.859,-15371 L1522.86,-15279.9 L1852.1,-15303.5 L2097.41,-15006.9 L2094.88,-14893 L1824.77,-14631.4 L1292.21,-14601.1 L723.639,-14771.5 L648.701,-14781.4 L586.926,-14733.3 L575.598,-14650.9 L622.065,-14586.3 L1133.11,-14428.7 L1721.75,-14381 L2227.56,-14693.9 L2338.51,-16379.2 L2615.88,-16373 L2667.06,-16371.9 L2747.37,-16417.6 L2760.02,-16503.6 L2707.79,-16569.2 L2132.63,-16591.9 M2109.63,-15556.7 L2011.59,-15530.8 L1689.43,-15490.9 L1151.87,-15496.2 L623.459,-15801.2 L567.453,-16179.9 L819.205,-16451.8 L1331.56,-16483.3 L1803.47,-16293.2 L2109.63,-15556.7"/>
</g>

<g fill="none" stroke="#000000" stroke-opacity="1" stroke-width="1" stroke-linecap="square" stroke-linejoin="bevel" transform="matrix(0.999865,0,0,-0.999865,2776.32,-12996.4)"
font-family="MS Shell Dlg 2" font-size="10.3125" font-weight="400" font-style="normal" 
>
</g>

<g fill="none" stroke="#000000" stroke-opacity="1" stroke-width="1" stroke-linecap="square" stroke-linejoin="bevel" transform="matrix(0.999865,0,0,-0.999865,2776.32,-12996.4)"
font-family="MS Shell Dlg 2" font-size="10.3125" font-weight="400" font-style="normal" 
>
</g>

<g fill="#ffff00" fill-opacity="0.2" stroke="#333333" stroke-opacity="1" stroke-width="1" stroke-linecap="round" stroke-linejoin="round" transform="matrix(0.999865,0,0,-0.999865,2776.32,-12996.4)"
font-family="MS Shell Dlg 2" font-size="10.3125" font-weight="400" font-style="normal" 
>
<path vector-effect="non-scaling-stroke" fill-rule="evenodd" d="M8723.69,-15422.1 L6603.79,-15469.2 L6646.09,-15737.5 L7148.97,-16271.9 L7819.04,-16339.2 L8318.93,-16200 L8592.38,-16017.2 L8668.87,-16003.1 L8732.76,-16053.3 L8744.45,-16133.6 L8628.61,-16272.4 L8088.27,-16505.4 L7311.85,-16558.6 L6524.13,-15991.7 L6384.48,-15077.7 L6928.38,-14373.5 L7873.25,-14244.3 L8604.6,-14783.4 L8723.69,-15422.1 M8508.5,-15216.3 L8462.13,-14987.7 L7991.38,-14524.1 L7295.12,-14467.7 L6744.14,-14835.1 L8508.5,-15216.3"/>
</g>

<g fill="none" stroke="#000000" stroke-opacity="1" stroke-width="1" stroke-linecap="square" stroke-linejoin="bevel" transform="matrix(0.999865,0,0,-0.999865,2776.32,-12996.4)"
font-family="MS Shell Dlg 2" font-size="10.3125" font-weight="400" font-style="normal" 
>
</g>

<g fill="none" stroke="#000000" stroke-opacity="1" stroke-width="1" stroke-linecap="square" stroke-linejoin="bevel" transform="matrix(0.999865,0,0,-0.999865,2776.32,-12996.4)"
font-family="MS Shell Dlg 2" font-size="10.3125" font-weight="400" font-style="normal" 
>
</g>

<g fill="#ffff00" fill-opacity="0.2" stroke="#333333" stroke-opacity="1" stroke-width="1" stroke-linecap="round" stroke-linejoin="round" transform="matrix(0.999865,0,0,-0.999865,2776.32,-12996.4)"
font-family="MS Shell Dlg 2" font-size="10.3125" font-weight="400" font-style="normal" 
>
<path vector-effect="non-scaling-stroke" fill-rule="evenodd" d="M10367.4,-14263.2 L10379.1,-14788.2 L10644.4,-14537.8 L11109.6,-14229.8 L11470.8,-14186.6 L11803.6,-14387.8 L11859.9,-14524 L11809.8,-14592.5 L11736.1,-14604.4 L11698.7,-14590.8 L11585.6,-14485.5 L11447.6,-14406 L11273.2,-14399.1 L10911.9,-14588.9 L10410.5,-16199.8 L11331.7,-16179.3 L11382.9,-16178.2 L11463.2,-16223.9 L11475.9,-16309.9 L11423.6,-16375.5 L9704.33,-16423.6 L9654.8,-16424.7 L9575.32,-16379 L9562.76,-16297.1 L9612.99,-16234.5 L10202.6,-16211.9 L10164.1,-14478.3 L9780.22,-14486.8 L9730.69,-14487.9 L9651.17,-14440.1 L9638.51,-14353.7 L9688.67,-14288.2 L10367.4,-14263.2"/>
</g>

<g fill="none" stroke="#000000" stroke-opacity="1" stroke-width="1" stroke-linecap="square" stroke-linejoin="bevel" transform="matrix(0.999865,0,0,-0.999865,2776.32,-12996.4)"
font-family="MS Shell Dlg 2" font-size="10.3125" font-weight="400" font-style="normal" 
>
</g>

<g fill="none" stroke="#000000" stroke-opacity="1" stroke-width="1" stroke-linecap="square" stroke-linejoin="bevel" transform="matrix(0.999865,0,0,-0.999865,2776.32,-12996.4)"
font-family="MS Shell Dlg 2" font-size="10.3125" font-weight="400" font-style="normal" 
>
</g>

<g fill="#ae5151" fill-opacity="0.2" stroke="#333333" stroke-opacity="1" stroke-width="1" stroke-linecap="round" stroke-linejoin="round" transform="matrix(0.999865,0,0,-0.999865,2776.32,-12996.4)"
font-family="MS Shell Dlg 2" font-size="10.3125" font-weight="400" font-style="normal" 
>
<path vector-effect="non-scaling-stroke" fill-rule="evenodd" d="M-1928.69,-13991.3 L-1873.55,-16472.8 L-491.65,-16442.1 L-510.031,-15614.9 L-511.132,-15565.4 L-463.344,-15485.9 L-376.904,-15473.2 L-311.368,-15523.4 L-276.523,-16645.4 L-2574.73,-16696.5 L-2624.26,-16697.6 L-2703.79,-16649.8 L-2716.43,-16564.2 L-2664.17,-16499.9 L-2084.05,-16477.5 L-2139.2,-13996 L-2634.5,-14007 L-2684.03,-14008.1 L-2763.51,-13962.4 L-2776.19,-13874.7 L-2723.94,-13810.4 L-1438.01,-13772.3 L-1388.48,-13771.2 L-1309,-13816.9 L-1296.32,-13904.6 L-1348.57,-13968.9 L-1928.69,-13991.3"/>
</g>

<g fill="none" stroke="#000000" stroke-opacity="1" stroke-width="1" stroke-linecap="square" stroke-linejoin="bevel" transform="matrix(0.999865,0,0,-0.999865,2776.32,-12996.4)"
font-family="MS Shell Dlg 2" font-size="10.3125" font-weight="400" font-style="normal" 
>
</g>

<g fill="none" stroke="#000000" stroke-opacity="1" stroke-width="1" stroke-linecap="square" stroke-linejoin="bevel" transform="matrix(0.999865,0,0,-0.999865,2776.32,-12996.4)"
font-family="MS Shell Dlg 2" font-size="10.3125" font-weight="400" font-style="normal" 
>
</g>

<g fill="#ae5151" fill-opacity="0.2" stroke="#333333" stroke-opacity="1" stroke-width="1" stroke-linecap="round" stroke-linejoin="round" transform="matrix(0.999865,0,0,-0.999865,2776.32,-12996.4)"
font-family="MS Shell Dlg 2" font-size="10.3125" font-weight="400" font-style="normal" 
>
<path vector-effect="non-scaling-stroke" fill-rule="evenodd" d="M17664.7,-14435.5 L17676.2,-14950.6 L17686.1,-15398 L17218.1,-16228.6 L16633.5,-16344 L16299.3,-16229.6 L16078.8,-16024.3 L15905.1,-15699.4 L15793.7,-15348.4 L15755.3,-14477.9 L15745.4,-14028.9 L16213.3,-13197.5 L16799.7,-13082.1 L17132.6,-13196.5 L17354.4,-13403.4 L17526.8,-13729.1 L17638.6,-14077.6 L17664.7,-14435.5 M17457.3,-14467.4 L17452.9,-14270.9 L17303.1,-13752.7 L17123.6,-13463 L16906.5,-13319.2 L16450.2,-13300.4 L16016.8,-13904.7 L15974.2,-14958.7 L15978.5,-15155.2 L16128.4,-15675.5 L16308.7,-15963.9 L16525,-16108.5 L16982.2,-16128.1 L17414.7,-15521.8 L17457.3,-14467.4"/>
</g>

<g fill="none" stroke="#000000" stroke-opacity="1" stroke-width="1" stroke-linecap="square" stroke-linejoin="bevel" transform="matrix(0.999865,0,0,-0.999865,2776.32,-12996.4)"
font-family="MS Shell Dlg 2" font-size="10.3125" font-weight="400" font-style="normal" 
>
</g>

<g fill="none" stroke="#000000" stroke-opacity="1" stroke-width="1" stroke-linecap="square" stroke-linejoin="bevel" transform="matrix(0.999865,0,0,-0.999865,2776.32,-12996.4)"
font-family="MS Shell Dlg 2" font-size="10.3125" font-weight="400" font-style="normal" 
>
</g>

<g fill="#ae5151" fill-opacity="0.2" stroke="#333333" stroke-opacity="1" stroke-width="1" stroke-linecap="round" stroke-linejoin="round" transform="matrix(0.999865,0,0,-0.999865,2776.32,-12996.4)"
font-family="MS Shell Dlg 2" font-size="10.3125" font-weight="400" font-style="normal" 
>
<path vector-effect="non-scaling-stroke" fill-rule="evenodd" d="M20161.7,-15321.6 L18782.2,-15352.2 L18776.9,-15112 L19889,-13087.7 L20322.4,-13078.1 L20367.5,-15108.9 L20540.9,-15105 L20592.1,-15103.9 L20672.4,-15149.6 L20685,-15235.6 L20632.8,-15301.2 L20372.2,-15316.9 L20386.9,-15978.1 L20560.2,-15974.3 L20611.4,-15973.1 L20691.7,-16018.8 L20704.4,-16104.9 L20652.1,-16170.4 L19792.2,-16199.5 L19741,-16200.6 L19660.6,-16152.8 L19648,-16067.2 L19700.3,-16002.9 L20176.4,-15982.8 L20161.7,-15321.6 M20157,-15113.5 L20116.6,-13293.3 L20007.6,-13295.7 L18995.6,-15139.3 L20157,-15113.5"/>
</g>

<g fill="none" stroke="#000000" stroke-opacity="1" stroke-width="1" stroke-linecap="square" stroke-linejoin="bevel" transform="matrix(0.999865,0,0,-0.999865,2776.32,-12996.4)"
font-family="MS Shell Dlg 2" font-size="10.3125" font-weight="400" font-style="normal" 
>
</g>

<g fill="none" stroke="#000000" stroke-opacity="1" stroke-width="1" stroke-linecap="square" stroke-linejoin="bevel" transform="matrix(0.999865,0,0,-0.999865,2776.32,-12996.4)"
font-family="MS Shell Dlg 2" font-size="10.3125" font-weight="400" font-style="normal" 
>
</g>

<g fill="#ae5151" fill-opacity="0.2" stroke="#333333" stroke-opacity="1" stroke-width="1" stroke-linecap="round" stroke-linejoin="round" transform="matrix(0.999865,0,0,-0.999865,2776.32,-12996.4)"
font-family="MS Shell Dlg 2" font-size="10.3125" font-weight="400" font-style="normal" 
>
<path vector-effect="non-scaling-stroke" fill-rule="evenodd" d="M4591.32,-16537.3 L3582.49,-14624.6 L3520.58,-14625.9 L3471.05,-14627 L3391.52,-14579.2 L3379.11,-14503.5 L3404.73,-14448.9 L3452.83,-14420.6 L4085.5,-14402.8 L4135.03,-14401.7 L4214.55,-14449.5 L4227.21,-14535.9 L4174.99,-14601.5 L3810.33,-14619.5 L4697.7,-16306.9 L5496.84,-14582 L5216.99,-14588.2 L5167.46,-14589.3 L5087.94,-14541.6 L5075.28,-14455.1 L5127.51,-14389.5 L5779.44,-14365.1 L5830.62,-14364 L5910.97,-14411.8 L5923.44,-14489.9 L5891.67,-14546.8 L5844.31,-14571.4 L4464.3,-17288.4 L4788.72,-17281.1 L4838.25,-17280 L4917.73,-17325.8 L4930.38,-17411.8 L4878.15,-17477.4 L3594.71,-17515.8 L3545.18,-17516.9 L3465.7,-17471.2 L3453.02,-17383.5 L3505.27,-17319.2 L4241.41,-17293.3 L4591.32,-16537.3"/>
</g>

<g fill="none" stroke="#000000" stroke-opacity="1" stroke-width="1" stroke-linecap="square" stroke-linejoin="bevel" transform="matrix(0.999865,0,0,-0.999865,2776.32,-12996.4)"
font-family="MS Shell Dlg 2" font-size="10.3125" font-weight="400" font-style="normal" 
>
</g>

<g fill="none" stroke="#000000" stroke-opacity="1" stroke-width="1" stroke-linecap="square" stroke-linejoin="bevel" transform="matrix(0.999865,0,0,-0.999865,2776.32,-12996.4)"
font-family="MS Shell Dlg 2" font-size="10.3125" font-weight="400" font-style="normal" 
>
</g>

<g fill="#ae5151" fill-opacity="0.2" stroke="#333333" stroke-opacity="1" stroke-width="1" stroke-linecap="round" stroke-linejoin="round" transform="matrix(0.999865,0,0,-0.999865,2776.32,-12996.4)"
font-family="MS Shell Dlg 2" font-size="10.3125" font-weight="400" font-style="normal" 
>
<path vector-effect="non-scaling-stroke" fill-rule="evenodd" d="M2132.63,-16591.9 L2125.97,-16292.2 L1829.49,-16553.2 L916.825,-16700.7 L434.317,-16395.5 L352.161,-15857.6 L803.859,-15371 L1522.86,-15279.9 L1852.1,-15303.5 L2097.41,-15006.9 L2094.88,-14893 L1824.77,-14631.4 L1292.21,-14601.1 L723.639,-14771.5 L648.701,-14781.4 L586.926,-14733.3 L575.598,-14650.9 L622.065,-14586.3 L1133.11,-14428.7 L1721.75,-14381 L2227.56,-14693.9 L2338.51,-16379.2 L2615.88,-16373 L2667.06,-16371.9 L2747.37,-16417.6 L2760.02,-16503.6 L2707.79,-16569.2 L2132.63,-16591.9 M2109.63,-15556.7 L2011.59,-15530.8 L1689.43,-15490.9 L1151.87,-15496.2 L623.459,-15801.2 L567.453,-16179.9 L819.205,-16451.8 L1331.56,-16483.3 L1803.47,-16293.2 L2109.63,-15556.7"/>
</g>

<g fill="none" stroke="#000000" stroke-opacity="1" stroke-width="1" stroke-linecap="square" stroke-linejoin="bevel" transform="matrix(0.999865,0,0,-0.999865,2776.32,-12996.4)"
font-family="MS Shell Dlg 2" font-size="10.3125" font-weight="400" font-style="normal" 
>
</g>

<g fill="none" stroke="#000000" stroke-opacity="1" stroke-width="1" stroke-linecap="square" stroke-linejoin="bevel" transform="matrix(0.999865,0,0,-0.999865,2776.32,-12996.4)"
font-family="MS Shell Dlg 2" font-size="10.3125" font-weight="400" font-style="normal" 
>
</g>

<g fill="#ae5151" fill-opacity="0.2" stroke="#333333" stroke-opacity="1" stroke-width="1" stroke-linecap="round" stroke-linejoin="round" transform="matrix(0.999865,0,0,-0.999865,2776.32,-12996.4)"
font-family="MS Shell Dlg 2" font-size="10.3125" font-weight="400" font-style="normal" 
>
<path vector-effect="non-scaling-stroke" fill-rule="evenodd" d="M8723.69,-15422.1 L6603.79,-15469.2 L6646.09,-15737.5 L7148.97,-16271.9 L7819.04,-16339.2 L8318.93,-16200 L8592.38,-16017.2 L8668.87,-16003.1 L8732.76,-16053.3 L8744.45,-16133.6 L8628.61,-16272.4 L8088.27,-16505.4 L7311.85,-16558.6 L6524.13,-15991.7 L6384.48,-15077.7 L6928.38,-14373.5 L7873.25,-14244.3 L8604.6,-14783.4 L8723.69,-15422.1 M8508.5,-15216.3 L8462.13,-14987.7 L7991.38,-14524.1 L7295.12,-14467.7 L6744.14,-14835.1 L8508.5,-15216.3"/>
</g>

<g fill="none" stroke="#000000" stroke-opacity="1" stroke-width="1" stroke-linecap="square" stroke-linejoin="bevel" transform="matrix(0.999865,0,0,-0.999865,2776.32,-12996.4)"
font-family="MS Shell Dlg 2" font-size="10.3125" font-weight="400" font-style="normal" 
>
</g>

<g fill="none" stroke="#000000" stroke-opacity="1" stroke-width="1" stroke-linecap="square" stroke-linejoin="bevel" transform="matrix(0.999865,0,0,-0.999865,2776.32,-12996.4)"
font-family="MS Shell Dlg 2" font-size="10.3125" font-weight="400" font-style="normal" 
>
</g>

<g fill="#ae5151" fill-opacity="0.2" stroke="#333333" stroke-opacity="1" stroke-width="1" stroke-linecap="round" stroke-linejoin="round" transform="matrix(0.999865,0,0,-0.999865,2776.32,-12996.4)"
font-family="MS Shell Dlg 2" font-size="10.3125" font-weight="400" font-style="normal" 
>
<path vector-effect="non-scaling-stroke" fill-rule="evenodd" d="M10367.4,-14263.2 L10379.1,-14788.2 L10644.4,-14537.8 L11109.6,-14229.8 L11470.8,-14186.6 L11803.6,-14387.8 L11859.9,-14524 L11809.8,-14592.5 L11736.1,-14604.4 L11698.7,-14590.8 L11585.6,-14485.5 L11447.6,-14406 L11273.2,-14399.1 L10911.9,-14588.9 L10410.5,-16199.8 L11331.7,-16179.3 L11382.9,-16178.2 L11463.2,-16223.9 L11475.9,-16309.9 L11423.6,-16375.5 L9704.33,-16423.6 L9654.8,-16424.7 L9575.32,-16379 L9562.76,-16297.1 L9612.99,-16234.5 L10202.6,-16211.9 L10164.1,-14478.3 L9780.22,-14486.8 L9730.69,-14487.9 L9651.17,-14440.1 L9638.51,-14353.7 L9688.67,-14288.2 L10367.4,-14263.2"/>
</g>

<g fill="none" stroke="#000000" stroke-opacity="1" stroke-width="1" stroke-linecap="square" stroke-linejoin="bevel" transform="matrix(0.999865,0,0,-0.999865,2776.32,-12996.4)"
font-family="MS Shell Dlg 2" font-size="10.3125" font-weight="400" font-style="normal" 
>
</g>

<g fill="none" stroke="#000000" stroke-opacity="1" stroke-width="1" stroke-linecap="square" stroke-linejoin="bevel" transform="matrix(0.999865,0,0,-0.999865,2776.32,-12996.4)"
font-family="MS Shell Dlg 2" font-size="10.3125" font-weight="400" font-style="normal" 
>
</g>

<g fill="#333333" fill-opacity="0.2" stroke="#333333" stroke-opacity="1" stroke-width="1" stroke-linecap="round" stroke-linejoin="round" transform="matrix(0.999865,0,0,-0.999865,2776.32,-12996.4)"
font-family="MS Shell Dlg 2" font-size="10.3125" font-weight="400" font-style="normal" 
>
<path vector-effect="non-scaling-stroke" fill-rule="evenodd" d="M-1928.69,-13991.3 L-1873.55,-16472.8 L-491.65,-16442.1 L-510.031,-15614.9 L-511.132,-15565.4 L-463.344,-15485.9 L-376.904,-15473.2 L-311.368,-15523.4 L-276.523,-16645.4 L-2574.73,-16696.5 L-2624.26,-16697.6 L-2703.79,-16649.8 L-2716.43,-16564.2 L-2664.17,-16499.9 L-2084.05,-16477.5 L-2139.2,-13996 L-2634.5,-14007 L-2684.03,-14008.1 L-2763.51,-13962.4 L-2776.19,-13874.7 L-2723.94,-13810.4 L-1438.01,-13772.3 L-1388.48,-13771.2 L-1309,-13816.9 L-1296.32,-13904.6 L-1348.57,-13968.9 L-1928.69,-13991.3"/>
</g>

<g fill="none" stroke="#000000" stroke-opacity="1" stroke-width="1" stroke-linecap="square" stroke-linejoin="bevel" transform="matrix(0.999865,0,0,-0.999865,2776.32,-12996.4)"
font-family="MS Shell Dlg 2" font-size="10.3125" font-weight="400" font-style="normal" 
>
</g>

<g fill="none" stroke="#000000" stroke-opacity="1" stroke-width="1" stroke-linecap="square" stroke-linejoin="bevel" transform="matrix(0.999865,0,0,-0.999865,2776.32,-12996.4)"
font-family="MS Shell Dlg 2" font-size="10.3125" font-weight="400" font-style="normal" 
>
</g>

<g fill="#333333" fill-opacity="0.2" stroke="#333333" stroke-opacity="1" stroke-width="1" stroke-linecap="round" stroke-linejoin="round" transform="matrix(0.999865,0,0,-0.999865,2776.32,-12996.4)"
font-family="MS Shell Dlg 2" font-size="10.3125" font-weight="400" font-style="normal" 
>
<path vector-effect="non-scaling-stroke" fill-rule="evenodd" d="M17664.7,-14435.5 L17676.2,-14950.6 L17686.1,-15398 L17218.1,-16228.6 L16633.5,-16344 L16299.3,-16229.6 L16078.8,-16024.3 L15905.1,-15699.4 L15793.7,-15348.4 L15755.3,-14477.9 L15745.4,-14028.9 L16213.3,-13197.5 L16799.7,-13082.1 L17132.6,-13196.5 L17354.4,-13403.4 L17526.8,-13729.1 L17638.6,-14077.6 L17664.7,-14435.5 M17457.3,-14467.4 L17452.9,-14270.9 L17303.1,-13752.7 L17123.6,-13463 L16906.5,-13319.2 L16450.2,-13300.4 L16016.8,-13904.7 L15974.2,-14958.7 L15978.5,-15155.2 L16128.4,-15675.5 L16308.7,-15963.9 L16525,-16108.5 L16982.2,-16128.1 L17414.7,-15521.8 L17457.3,-14467.4"/>
</g>

<g fill="none" stroke="#000000" stroke-opacity="1" stroke-width="1" stroke-linecap="square" stroke-linejoin="bevel" transform="matrix(0.999865,0,0,-0.999865,2776.32,-12996.4)"
font-family="MS Shell Dlg 2" font-size="10.3125" font-weight="400" font-style="normal" 
>
</g>

<g fill="none" stroke="#000000" stroke-opacity="1" stroke-width="1" stroke-linecap="square" stroke-linejoin="bevel" transform="matrix(0.999865,0,0,-0.999865,2776.32,-12996.4)"
font-family="MS Shell Dlg 2" font-size="10.3125" font-weight="400" font-style="normal" 
>
</g>

<g fill="#333333" fill-opacity="0.2" stroke="#333333" stroke-opacity="1" stroke-width="1" stroke-linecap="round" stroke-linejoin="round" transform="matrix(0.999865,0,0,-0.999865,2776.32,-12996.4)"
font-family="MS Shell Dlg 2" font-size="10.3125" font-weight="400" font-style="normal" 
>
<path vector-effect="non-scaling-stroke" fill-rule="evenodd" d="M19155.7,-13314.6 L19178.3,-14332.5 L19299.4,-14278.6 L19639.1,-14181.4 L20106.9,-14158.2 L20687.1,-14603.7 L20794.4,-15471.9 L20314.1,-16159.8 L19575.1,-16278.6 L19071.4,-16097.4 L18780.8,-15882.5 L18747,-15771.7 L18795,-15704.2 L18872.4,-15692.1 L19188.9,-15962.6 L19999.7,-16061.1 L20508.1,-15634.7 L20571.1,-14902 L20218,-14435.3 L19614.6,-14377.3 L19133.6,-14585.4 L19045.5,-14600.6 L18984.2,-14552.4 L18943,-13108.8 L20394.2,-13076.5 L20443.8,-13075.4 L20523.3,-13123.2 L20536,-13209.6 L20483.7,-13275.2 L19155.7,-13314.6"/>
</g>

<g fill="none" stroke="#000000" stroke-opacity="1" stroke-width="1" stroke-linecap="square" stroke-linejoin="bevel" transform="matrix(0.999865,0,0,-0.999865,2776.32,-12996.4)"
font-family="MS Shell Dlg 2" font-size="10.3125" font-weight="400" font-style="normal" 
>
</g>

<g fill="none" stroke="#000000" stroke-opacity="1" stroke-width="1" stroke-linecap="square" stroke-linejoin="bevel" transform="matrix(0.999865,0,0,-0.999865,2776.32,-12996.4)"
font-family="MS Shell Dlg 2" font-size="10.3125" font-weight="400" font-style="normal" 
>
</g>

<g fill="#333333" fill-opacity="0.2" stroke="#333333" stroke-opacity="1" stroke-width="1" stroke-linecap="round" stroke-linejoin="round" transform="matrix(0.999865,0,0,-0.999865,2776.32,-12996.4)"
font-family="MS Shell Dlg 2" font-size="10.3125" font-weight="400" font-style="normal" 
>
<path vector-effect="non-scaling-stroke" fill-rule="evenodd" d="M4591.32,-16537.3 L3582.49,-14624.6 L3520.58,-14625.9 L3471.05,-14627 L3391.52,-14579.2 L3379.11,-14503.5 L3404.73,-14448.9 L3452.83,-14420.6 L4085.5,-14402.8 L4135.03,-14401.7 L4214.55,-14449.5 L4227.21,-14535.9 L4174.99,-14601.5 L3810.33,-14619.5 L4697.7,-16306.9 L5496.84,-14582 L5216.99,-14588.2 L5167.46,-14589.3 L5087.94,-14541.6 L5075.28,-14455.1 L5127.51,-14389.5 L5779.44,-14365.1 L5830.62,-14364 L5910.97,-14411.8 L5923.44,-14489.9 L5891.67,-14546.8 L5844.31,-14571.4 L4464.3,-17288.4 L4788.72,-17281.1 L4838.25,-17280 L4917.73,-17325.8 L4930.38,-17411.8 L4878.15,-17477.4 L3594.71,-17515.8 L3545.18,-17516.9 L3465.7,-17471.2 L3453.02,-17383.5 L3505.27,-17319.2 L4241.41,-17293.3 L4591.32,-16537.3"/>
</g>

<g fill="none" stroke="#000000" stroke-opacity="1" stroke-width="1" stroke-linecap="square" stroke-linejoin="bevel" transform="matrix(0.999865,0,0,-0.999865,2776.32,-12996.4)"
font-family="MS Shell Dlg 2" font-size="10.3125" font-weight="400" font-style="normal" 
>
</g>

<g fill="none" stroke="#000000" stroke-opacity="1" stroke-width="1" stroke-linecap="square" stroke-linejoin="bevel" transform="matrix(0.999865,0,0,-0.999865,2776.32,-12996.4)"
font-family="MS Shell Dlg 2" font-size="10.3125" font-weight="400" font-style="normal" 
>
</g>

<g fill="#333333" fill-opacity="0.2" stroke="#333333" stroke-opacity="1" stroke-width="1" stroke-linecap="round" stroke-linejoin="round" transform="matrix(0.999865,0,0,-0.999865,2776.32,-12996.4)"
font-family="MS Shell Dlg 2" font-size="10.3125" font-weight="400" font-style="normal" 
>
<path vector-effect="non-scaling-stroke" fill-rule="evenodd" d="M2132.63,-16591.9 L2125.97,-16292.2 L1829.49,-16553.2 L916.825,-16700.7 L434.317,-16395.5 L352.161,-15857.6 L803.859,-15371 L1522.86,-15279.9 L1852.1,-15303.5 L2097.41,-15006.9 L2094.88,-14893 L1824.77,-14631.4 L1292.21,-14601.1 L723.639,-14771.5 L648.701,-14781.4 L586.926,-14733.3 L575.598,-14650.9 L622.065,-14586.3 L1133.11,-14428.7 L1721.75,-14381 L2227.56,-14693.9 L2338.51,-16379.2 L2615.88,-16373 L2667.06,-16371.9 L2747.37,-16417.6 L2760.02,-16503.6 L2707.79,-16569.2 L2132.63,-16591.9 M2109.63,-15556.7 L2011.59,-15530.8 L1689.43,-15490.9 L1151.87,-15496.2 L623.459,-15801.2 L567.453,-16179.9 L819.205,-16451.8 L1331.56,-16483.3 L1803.47,-16293.2 L2109.63,-15556.7"/>
</g>

<g fill="none" stroke="#000000" stroke-opacity="1" stroke-width="1" stroke-linecap="square" stroke-linejoin="bevel" transform="matrix(0.999865,0,0,-0.999865,2776.32,-12996.4)"
font-family="MS Shell Dlg 2" font-size="10.3125" font-weight="400" font-style="normal" 
>
</g>

<g fill="none" stroke="#000000" stroke-opacity="1" stroke-width="1" stroke-linecap="square" stroke-linejoin="bevel" transform="matrix(0.999865,0,0,-0.999865,2776.32,-12996.4)"
font-family="MS Shell Dlg 2" font-size="10.3125" font-weight="400" font-style="normal" 
>
</g>

<g fill="#333333" fill-opacity="0.2" stroke="#333333" stroke-opacity="1" stroke-width="1" stroke-linecap="round" stroke-linejoin="round" transform="matrix(0.999865,0,0,-0.999865,2776.32,-12996.4)"
font-family="MS Shell Dlg 2" font-size="10.3125" font-weight="400" font-style="normal" 
>
<path vector-effect="non-scaling-stroke" fill-rule="evenodd" d="M8723.69,-15422.1 L6603.79,-15469.2 L6646.09,-15737.5 L7148.97,-16271.9 L7819.04,-16339.2 L8318.93,-16200 L8592.38,-16017.2 L8668.87,-16003.1 L8732.76,-16053.3 L8744.45,-16133.6 L8628.61,-16272.4 L8088.27,-16505.4 L7311.85,-16558.6 L6524.13,-15991.7 L6384.48,-15077.7 L6928.38,-14373.5 L7873.25,-14244.3 L8604.6,-14783.4 L8723.69,-15422.1 M8508.5,-15216.3 L8462.13,-14987.7 L7991.38,-14524.1 L7295.12,-14467.7 L6744.14,-14835.1 L8508.5,-15216.3"/>
</g>

<g fill="none" stroke="#000000" stroke-opacity="1" stroke-width="1" stroke-linecap="square" stroke-linejoin="bevel" transform="matrix(0.999865,0,0,-0.999865,2776.32,-12996.4)"
font-family="MS Shell Dlg 2" font-size="10.3125" font-weight="400" font-style="normal" 
>
</g>

<g fill="none" stroke="#000000" stroke-opacity="1" stroke-width="1" stroke-linecap="square" stroke-linejoin="bevel" transform="matrix(0.999865,0,0,-0.999865,2776.32,-12996.4)"
font-family="MS Shell Dlg 2" font-size="10.3125" font-weight="400" font-style="normal" 
>
</g>

<g fill="#333333" fill-opacity="0.2" stroke="#333333" stroke-opacity="1" stroke-width="1" stroke-linecap="round" stroke-linejoin="round" transform="matrix(0.999865,0,0,-0.999865,2776.32,-12996.4)"
font-family="MS Shell Dlg 2" font-size="10.3125" font-weight="400" font-style="normal" 
>
<path vector-effect="non-scaling-stroke" fill-rule="evenodd" d="M10367.4,-14263.2 L10379.1,-14788.2 L10644.4,-14537.8 L11109.6,-14229.8 L11470.8,-14186.6 L11803.6,-14387.8 L11859.9,-14524 L11809.8,-14592.5 L11736.1,-14604.4 L11698.7,-14590.8 L11585.6,-14485.5 L11447.6,-14406 L11273.2,-14399.1 L10911.9,-14588.9 L10410.5,-16199.8 L11331.7,-16179.3 L11382.9,-16178.2 L11463.2,-16223.9 L11475.9,-16309.9 L11423.6,-16375.5 L9704.33,-16423.6 L9654.8,-16424.7 L9575.32,-16379 L9562.76,-16297.1 L9612.99,-16234.5 L10202.6,-16211.9 L10164.1,-14478.3 L9780.22,-14486.8 L9730.69,-14487.9 L9651.17,-14440.1 L9638.51,-14353.7 L9688.67,-14288.2 L10367.4,-14263.2"/>
</g>

<g fill="none" stroke="#000000" stroke-opacity="1" stroke-width="1" stroke-linecap="square" stroke-linejoin="bevel" transform="matrix(0.999865,0,0,-0.999865,2776.32,-12996.4)"
font-family="MS Shell Dlg 2" font-size="10.3125" font-weight="400" font-style="normal" 
>
</g>

<g fill="none" stroke="#000000" stroke-opacity="1" stroke-width="1" stroke-linecap="square" stroke-linejoin="bevel" transform="matrix(0.999865,0,0,-0.999865,2776.32,-12996.4)"
font-family="MS Shell Dlg 2" font-size="10.3125" font-weight="400" font-style="normal" 
>
</g>

<g fill="#ae5151" fill-opacity="0.2" stroke="#333333" stroke-opacity="1" stroke-width="1" stroke-linecap="round" stroke-linejoin="round" transform="matrix(0.999865,0,0,-0.999865,2776.32,-12996.4)"
font-family="MS Shell Dlg 2" font-size="10.3125" font-weight="400" font-style="normal" 
>
<path vector-effect="non-scaling-stroke" fill-rule="evenodd" d="M-1928.69,-13991.3 L-1873.55,-16472.8 L-491.65,-16442.1 L-510.031,-15614.9 L-511.132,-15565.4 L-463.344,-15485.9 L-376.904,-15473.2 L-311.368,-15523.4 L-276.523,-16645.4 L-2574.73,-16696.5 L-2624.26,-16697.6 L-2703.79,-16649.8 L-2716.43,-16564.2 L-2664.17,-16499.9 L-2084.05,-16477.5 L-2139.2,-13996 L-2634.5,-14007 L-2684.03,-14008.1 L-2763.51,-13962.4 L-2776.19,-13874.7 L-2723.94,-13810.4 L-1438.01,-13772.3 L-1388.48,-13771.2 L-1309,-13816.9 L-1296.32,-13904.6 L-1348.57,-13968.9 L-1928.69,-13991.3"/>
</g>

<g fill="none" stroke="#000000" stroke-opacity="1" stroke-width="1" stroke-linecap="square" stroke-linejoin="bevel" transform="matrix(0.999865,0,0,-0.999865,2776.32,-12996.4)"
font-family="MS Shell Dlg 2" font-size="10.3125" font-weight="400" font-style="normal" 
>
</g>

<g fill="none" stroke="#000000" stroke-opacity="1" stroke-width="1" stroke-linecap="square" stroke-linejoin="bevel" transform="matrix(0.999865,0,0,-0.999865,2776.32,-12996.4)"
font-family="MS Shell Dlg 2" font-size="10.3125" font-weight="400" font-style="normal" 
>
</g>

<g fill="#ae5151" fill-opacity="0.2" stroke="#333333" stroke-opacity="1" stroke-width="1" stroke-linecap="round" stroke-linejoin="round" transform="matrix(0.999865,0,0,-0.999865,2776.32,-12996.4)"
font-family="MS Shell Dlg 2" font-size="10.3125" font-weight="400" font-style="normal" 
>
<path vector-effect="non-scaling-stroke" fill-rule="evenodd" d="M17664.7,-14435.5 L17676.2,-14950.6 L17686.1,-15398 L17218.1,-16228.6 L16633.5,-16344 L16299.3,-16229.6 L16078.8,-16024.3 L15905.1,-15699.4 L15793.7,-15348.4 L15755.3,-14477.9 L15745.4,-14028.9 L16213.3,-13197.5 L16799.7,-13082.1 L17132.6,-13196.5 L17354.4,-13403.4 L17526.8,-13729.1 L17638.6,-14077.6 L17664.7,-14435.5 M17457.3,-14467.4 L17452.9,-14270.9 L17303.1,-13752.7 L17123.6,-13463 L16906.5,-13319.2 L16450.2,-13300.4 L16016.8,-13904.7 L15974.2,-14958.7 L15978.5,-15155.2 L16128.4,-15675.5 L16308.7,-15963.9 L16525,-16108.5 L16982.2,-16128.1 L17414.7,-15521.8 L17457.3,-14467.4"/>
</g>

<g fill="none" stroke="#000000" stroke-opacity="1" stroke-width="1" stroke-linecap="square" stroke-linejoin="bevel" transform="matrix(0.999865,0,0,-0.999865,2776.32,-12996.4)"
font-family="MS Shell Dlg 2" font-size="10.3125" font-weight="400" font-style="normal" 
>
</g>

<g fill="none" stroke="#000000" stroke-opacity="1" stroke-width="1" stroke-linecap="square" stroke-linejoin="bevel" transform="matrix(0.999865,0,0,-0.999865,2776.32,-12996.4)"
font-family="MS Shell Dlg 2" font-size="10.3125" font-weight="400" font-style="normal" 
>
</g>

<g fill="#ae5151" fill-opacity="0.2" stroke="#333333" stroke-opacity="1" stroke-width="1" stroke-linecap="round" stroke-linejoin="round" transform="matrix(0.999865,0,0,-0.999865,2776.32,-12996.4)"
font-family="MS Shell Dlg 2" font-size="10.3125" font-weight="400" font-style="normal" 
>
<path vector-effect="non-scaling-stroke" fill-rule="evenodd" d="M19143.8,-14898.2 L19268.4,-14705.5 L19666.1,-14374.5 L20204.6,-14317.1 L20754.7,-14765.3 L20857.1,-15509.3 L20479.2,-16155.7 L19809.5,-16273.4 L19323.3,-16007.5 L18985.7,-15329.5 L18909.9,-14407 L19130.9,-13761.2 L19491.5,-13338.2 L19991.1,-13052.9 L20523.8,-12999.3 L20773.9,-13102.8 L20796,-13206.3 L20752,-13269.7 L20679.6,-13280.8 L20555.3,-13225.7 L20048.1,-13220.5 L19240,-13930.1 L19124.5,-14697.9 L19143.8,-14898.2 M19198.5,-15241.4 L19267.9,-15540.5 L19646.2,-16004.5 L20174.7,-16057.2 L20587.3,-15686.7 L20638.8,-15050 L20298.3,-14594.2 L19820.4,-14533.8 L19425,-14839.1 L19198.5,-15241.4"/>
</g>

<g fill="none" stroke="#000000" stroke-opacity="1" stroke-width="1" stroke-linecap="square" stroke-linejoin="bevel" transform="matrix(0.999865,0,0,-0.999865,2776.32,-12996.4)"
font-family="MS Shell Dlg 2" font-size="10.3125" font-weight="400" font-style="normal" 
>
</g>

<g fill="none" stroke="#000000" stroke-opacity="1" stroke-width="1" stroke-linecap="square" stroke-linejoin="bevel" transform="matrix(0.999865,0,0,-0.999865,2776.32,-12996.4)"
font-family="MS Shell Dlg 2" font-size="10.3125" font-weight="400" font-style="normal" 
>
</g>

<g fill="#ae5151" fill-opacity="0.2" stroke="#333333" stroke-opacity="1" stroke-width="1" stroke-linecap="round" stroke-linejoin="round" transform="matrix(0.999865,0,0,-0.999865,2776.32,-12996.4)"
font-family="MS Shell Dlg 2" font-size="10.3125" font-weight="400" font-style="normal" 
>
<path vector-effect="non-scaling-stroke" fill-rule="evenodd" d="M4591.32,-16537.3 L3582.49,-14624.6 L3520.58,-14625.9 L3471.05,-14627 L3391.52,-14579.2 L3379.11,-14503.5 L3404.73,-14448.9 L3452.83,-14420.6 L4085.5,-14402.8 L4135.03,-14401.7 L4214.55,-14449.5 L4227.21,-14535.9 L4174.99,-14601.5 L3810.33,-14619.5 L4697.7,-16306.9 L5496.84,-14582 L5216.99,-14588.2 L5167.46,-14589.3 L5087.94,-14541.6 L5075.28,-14455.1 L5127.51,-14389.5 L5779.44,-14365.1 L5830.62,-14364 L5910.97,-14411.8 L5923.44,-14489.9 L5891.67,-14546.8 L5844.31,-14571.4 L4464.3,-17288.4 L4788.72,-17281.1 L4838.25,-17280 L4917.73,-17325.8 L4930.38,-17411.8 L4878.15,-17477.4 L3594.71,-17515.8 L3545.18,-17516.9 L3465.7,-17471.2 L3453.02,-17383.5 L3505.27,-17319.2 L4241.41,-17293.3 L4591.32,-16537.3"/>
</g>

<g fill="none" stroke="#000000" stroke-opacity="1" stroke-width="1" stroke-linecap="square" stroke-linejoin="bevel" transform="matrix(0.999865,0,0,-0.999865,2776.32,-12996.4)"
font-family="MS Shell Dlg 2" font-size="10.3125" font-weight="400" font-style="normal" 
>
</g>

<g fill="none" stroke="#000000" stroke-opacity="1" stroke-width="1" stroke-linecap="square" stroke-linejoin="bevel" transform="matrix(0.999865,0,0,-0.999865,2776.32,-12996.4)"
font-family="MS Shell Dlg 2" font-size="10.3125" font-weight="400" font-style="normal" 
>
</g>

<g fill="#ae5151" fill-opacity="0.2" stroke="#333333" stroke-opacity="1" stroke-width="1" stroke-linecap="round" stroke-linejoin="round" transform="matrix(0.999865,0,0,-0.999865,2776.32,-12996.4)"
font-family="MS Shell Dlg 2" font-size="10.3125" font-weight="400" font-style="normal" 
>
<path vector-effect="non-scaling-stroke" fill-rule="evenodd" d="M2132.63,-16591.9 L2125.97,-16292.2 L1829.49,-16553.2 L916.825,-16700.7 L434.317,-16395.5 L352.161,-15857.6 L803.859,-15371 L1522.86,-15279.9 L1852.1,-15303.5 L2097.41,-15006.9 L2094.88,-14893 L1824.77,-14631.4 L1292.21,-14601.1 L723.639,-14771.5 L648.701,-14781.4 L586.926,-14733.3 L575.598,-14650.9 L622.065,-14586.3 L1133.11,-14428.7 L1721.75,-14381 L2227.56,-14693.9 L2338.51,-16379.2 L2615.88,-16373 L2667.06,-16371.9 L2747.37,-16417.6 L2760.02,-16503.6 L2707.79,-16569.2 L2132.63,-16591.9 M2109.63,-15556.7 L2011.59,-15530.8 L1689.43,-15490.9 L1151.87,-15496.2 L623.459,-15801.2 L567.453,-16179.9 L819.205,-16451.8 L1331.56,-16483.3 L1803.47,-16293.2 L2109.63,-15556.7"/>
</g>

<g fill="none" stroke="#000000" stroke-opacity="1" stroke-width="1" stroke-linecap="square" stroke-linejoin="bevel" transform="matrix(0.999865,0,0,-0.999865,2776.32,-12996.4)"
font-family="MS Shell Dlg 2" font-size="10.3125" font-weight="400" font-style="normal" 
>
</g>

<g fill="none" stroke="#000000" stroke-opacity="1" stroke-width="1" stroke-linecap="square" stroke-linejoin="bevel" transform="matrix(0.999865,0,0,-0.999865,2776.32,-12996.4)"
font-family="MS Shell Dlg 2" font-size="10.3125" font-weight="400" font-style="normal" 
>
</g>

<g fill="#ae5151" fill-opacity="0.2" stroke="#333333" stroke-opacity="1" stroke-width="1" stroke-linecap="round" stroke-linejoin="round" transform="matrix(0.999865,0,0,-0.999865,2776.32,-12996.4)"
font-family="MS Shell Dlg 2" font-size="10.3125" font-weight="400" font-style="normal" 
>
<path vector-effect="non-scaling-stroke" fill-rule="evenodd" d="M8723.69,-15422.1 L6603.79,-15469.2 L6646.09,-15737.5 L7148.97,-16271.9 L7819.04,-16339.2 L8318.93,-16200 L8592.38,-16017.2 L8668.87,-16003.1 L8732.76,-16053.3 L8744.45,-16133.6 L8628.61,-16272.4 L8088.27,-16505.4 L7311.85,-16558.6 L6524.13,-15991.7 L6384.48,-15077.7 L6928.38,-14373.5 L7873.25,-14244.3 L8604.6,-14783.4 L8723.69,-15422.1 M8508.5,-15216.3 L8462.13,-14987.7 L7991.38,-14524.1 L7295.12,-14467.7 L6744.14,-14835.1 L8508.5,-15216.3"/>
</g>

<g fill="none" stroke="#000000" stroke-opacity="1" stroke-width="1" stroke-linecap="square" stroke-linejoin="bevel" transform="matrix(0.999865,0,0,-0.999865,2776.32,-12996.4)"
font-family="MS Shell Dlg 2" font-size="10.3125" font-weight="400" font-style="normal" 
>
</g>

<g fill="none" stroke="#000000" stroke-opacity="1" stroke-width="1" stroke-linecap="square" stroke-linejoin="bevel" transform="matrix(0.999865,0,0,-0.999865,2776.32,-12996.4)"
font-family="MS Shell Dlg 2" font-size="10.3125" font-weight="400" font-style="normal" 
>
</g>

<g fill="#ae5151" fill-opacity="0.2" stroke="#333333" stroke-opacity="1" stroke-width="1" stroke-linecap="round" stroke-linejoin="round" transform="matrix(0.999865,0,0,-0.999865,2776.32,-12996.4)"
font-family="MS Shell Dlg 2" font-size="10.3125" font-weight="400" font-style="normal" 
>
<path vector-effect="non-scaling-stroke" fill-rule="evenodd" d="M10367.4,-14263.2 L10379.1,-14788.2 L10644.4,-14537.8 L11109.6,-14229.8 L11470.8,-14186.6 L11803.6,-14387.8 L11859.9,-14524 L11809.8,-14592.5 L11736.1,-14604.4 L11698.7,-14590.8 L11585.6,-14485.5 L11447.6,-14406 L11273.2,-14399.1 L10911.9,-14588.9 L10410.5,-16199.8 L11331.7,-16179.3 L11382.9,-16178.2 L11463.2,-16223.9 L11475.9,-16309.9 L11423.6,-16375.5 L9704.33,-16423.6 L9654.8,-16424.7 L9575.32,-16379 L9562.76,-16297.1 L9612.99,-16234.5 L10202.6,-16211.9 L10164.1,-14478.3 L9780.22,-14486.8 L9730.69,-14487.9 L9651.17,-14440.1 L9638.51,-14353.7 L9688.67,-14288.2 L10367.4,-14263.2"/>
</g>

<g fill="none" stroke="#000000" stroke-opacity="1" stroke-width="1" stroke-linecap="square" stroke-linejoin="bevel" transform="matrix(0.999865,0,0,-0.999865,2776.32,-12996.4)"
font-family="MS Shell Dlg 2" font-size="10.3125" font-weight="400" font-style="normal" 
>
</g>

<g fill="none" stroke="#000000" stroke-opacity="1" stroke-width="1" stroke-linecap="square" stroke-linejoin="bevel" transform="matrix(0.999865,0,0,-0.999865,2776.32,-12996.4)"
font-family="MS Shell Dlg 2" font-size="10.3125" font-weight="400" font-style="normal" 
>
</g>

<g fill="#333333" fill-opacity="0.2" stroke="#333333" stroke-opacity="1" stroke-width="1" stroke-linecap="round" stroke-linejoin="round" transform="matrix(0.999865,0,0,-0.999865,2776.32,-12996.4)"
font-family="MS Shell Dlg 2" font-size="10.3125" font-weight="400" font-style="normal" 
>
<path vector-effect="non-scaling-stroke" fill-rule="evenodd" d="M-1928.69,-13991.3 L-1873.55,-16472.8 L-491.65,-16442.1 L-510.031,-15614.9 L-511.132,-15565.4 L-463.344,-15485.9 L-376.904,-15473.2 L-311.368,-15523.4 L-276.523,-16645.4 L-2574.73,-16696.5 L-2624.26,-16697.6 L-2703.79,-16649.8 L-2716.43,-16564.2 L-2664.17,-16499.9 L-2084.05,-16477.5 L-2139.2,-13996 L-2634.5,-14007 L-2684.03,-14008.1 L-2763.51,-13962.4 L-2776.19,-13874.7 L-2723.94,-13810.4 L-1438.01,-13772.3 L-1388.48,-13771.2 L-1309,-13816.9 L-1296.32,-13904.6 L-1348.57,-13968.9 L-1928.69,-13991.3"/>
</g>

<g fill="none" stroke="#000000" stroke-opacity="1" stroke-width="1" stroke-linecap="square" stroke-linejoin="bevel" transform="matrix(0.999865,0,0,-0.999865,2776.32,-12996.4)"
font-family="MS Shell Dlg 2" font-size="10.3125" font-weight="400" font-style="normal" 
>
</g>

<g fill="none" stroke="#000000" stroke-opacity="1" stroke-width="1" stroke-linecap="square" stroke-linejoin="bevel" transform="matrix(0.999865,0,0,-0.999865,2776.32,-12996.4)"
font-family="MS Shell Dlg 2" font-size="10.3125" font-weight="400" font-style="normal" 
>
</g>

<g fill="#333333" fill-opacity="0.2" stroke="#333333" stroke-opacity="1" stroke-width="1" stroke-linecap="round" stroke-linejoin="round" transform="matrix(0.999865,0,0,-0.999865,2776.32,-12996.4)"
font-family="MS Shell Dlg 2" font-size="10.3125" font-weight="400" font-style="normal" 
>
<path vector-effect="non-scaling-stroke" fill-rule="evenodd" d="M17664.7,-14435.5 L17676.2,-14950.6 L17686.1,-15398 L17218.1,-16228.6 L16633.5,-16344 L16299.3,-16229.6 L16078.8,-16024.3 L15905.1,-15699.4 L15793.7,-15348.4 L15755.3,-14477.9 L15745.4,-14028.9 L16213.3,-13197.5 L16799.7,-13082.1 L17132.6,-13196.5 L17354.4,-13403.4 L17526.8,-13729.1 L17638.6,-14077.6 L17664.7,-14435.5 M17457.3,-14467.4 L17452.9,-14270.9 L17303.1,-13752.7 L17123.6,-13463 L16906.5,-13319.2 L16450.2,-13300.4 L16016.8,-13904.7 L15974.2,-14958.7 L15978.5,-15155.2 L16128.4,-15675.5 L16308.7,-15963.9 L16525,-16108.5 L16982.2,-16128.1 L17414.7,-15521.8 L17457.3,-14467.4"/>
</g>

<g fill="none" stroke="#000000" stroke-opacity="1" stroke-width="1" stroke-linecap="square" stroke-linejoin="bevel" transform="matrix(0.999865,0,0,-0.999865,2776.32,-12996.4)"
font-family="MS Shell Dlg 2" font-size="10.3125" font-weight="400" font-style="normal" 
>
</g>

<g fill="none" stroke="#000000" stroke-opacity="1" stroke-width="1" stroke-linecap="square" stroke-linejoin="bevel" transform="matrix(0.999865,0,0,-0.999865,2776.32,-12996.4)"
font-family="MS Shell Dlg 2" font-size="10.3125" font-weight="400" font-style="normal" 
>
</g>

<g fill="#333333" fill-opacity="0.2" stroke="#333333" stroke-opacity="1" stroke-width="1" stroke-linecap="round" stroke-linejoin="round" transform="matrix(0.999865,0,0,-0.999865,2776.32,-12996.4)"
font-family="MS Shell Dlg 2" font-size="10.3125" font-weight="400" font-style="normal" 
>
<path vector-effect="non-scaling-stroke" fill-rule="evenodd" d="M20430.7,-13380.5 L20428.6,-13286.4 L18937.8,-13319.5 L18941.8,-13502.8 L18942.9,-13552.3 L18897.2,-13631.8 L18811.2,-13644.4 L18745.6,-13592.2 L18725.1,-13113.6 L20634.5,-13071.2 L20641.8,-13403 L19864.2,-16096.3 L19852,-16139.5 L19801.2,-16197.2 L19727.9,-16205.8 L19662.4,-16157.7 L19651,-16091.9 L20430.7,-13380.5"/>
</g>

<g fill="none" stroke="#000000" stroke-opacity="1" stroke-width="1" stroke-linecap="square" stroke-linejoin="bevel" transform="matrix(0.999865,0,0,-0.999865,2776.32,-12996.4)"
font-family="MS Shell Dlg 2" font-size="10.3125" font-weight="400" font-style="normal" 
>
</g>

<g fill="none" stroke="#000000" stroke-opacity="1" stroke-width="1" stroke-linecap="square" stroke-linejoin="bevel" transform="matrix(0.999865,0,0,-0.999865,2776.32,-12996.4)"
font-family="MS Shell Dlg 2" font-size="10.3125" font-weight="400" font-style="normal" 
>
</g>

<g fill="#333333" fill-opacity="0.2" stroke="#333333" stroke-opacity="1" stroke-width="1" stroke-linecap="round" stroke-linejoin="round" transform="matrix(0.999865,0,0,-0.999865,2776.32,-12996.4)"
font-family="MS Shell Dlg 2" font-size="10.3125" font-weight="400" font-style="normal" 
>
<path vector-effect="non-scaling-stroke" fill-rule="evenodd" d="M4591.32,-16537.3 L3582.49,-14624.6 L3520.58,-14625.9 L3471.05,-14627 L3391.52,-14579.2 L3379.11,-14503.5 L3404.73,-14448.9 L3452.83,-14420.6 L4085.5,-14402.8 L4135.03,-14401.7 L4214.55,-14449.5 L4227.21,-14535.9 L4174.99,-14601.5 L3810.33,-14619.5 L4697.7,-16306.9 L5496.84,-14582 L5216.99,-14588.2 L5167.46,-14589.3 L5087.94,-14541.6 L5075.28,-14455.1 L5127.51,-14389.5 L5779.44,-14365.1 L5830.62,-14364 L5910.97,-14411.8 L5923.44,-14489.9 L5891.67,-14546.8 L5844.31,-14571.4 L4464.3,-17288.4 L4788.72,-17281.1 L4838.25,-17280 L4917.73,-17325.8 L4930.38,-17411.8 L4878.15,-17477.4 L3594.71,-17515.8 L3545.18,-17516.9 L3465.7,-17471.2 L3453.02,-17383.5 L3505.27,-17319.2 L4241.41,-17293.3 L4591.32,-16537.3"/>
</g>

<g fill="none" stroke="#000000" stroke-opacity="1" stroke-width="1" stroke-linecap="square" stroke-linejoin="bevel" transform="matrix(0.999865,0,0,-0.999865,2776.32,-12996.4)"
font-family="MS Shell Dlg 2" font-size="10.3125" font-weight="400" font-style="normal" 
>
</g>

<g fill="none" stroke="#000000" stroke-opacity="1" stroke-width="1" stroke-linecap="square" stroke-linejoin="bevel" transform="matrix(0.999865,0,0,-0.999865,2776.32,-12996.4)"
font-family="MS Shell Dlg 2" font-size="10.3125" font-weight="400" font-style="normal" 
>
</g>

<g fill="#333333" fill-opacity="0.2" stroke="#333333" stroke-opacity="1" stroke-width="1" stroke-linecap="round" stroke-linejoin="round" transform="matrix(0.999865,0,0,-0.999865,2776.32,-12996.4)"
font-family="MS Shell Dlg 2" font-size="10.3125" font-weight="400" font-style="normal" 
>
<path vector-effect="non-scaling-stroke" fill-rule="evenodd" d="M2132.63,-16591.9 L2125.97,-16292.2 L1829.49,-16553.2 L916.825,-16700.7 L434.317,-16395.5 L352.161,-15857.6 L803.859,-15371 L1522.86,-15279.9 L1852.1,-15303.5 L2097.41,-15006.9 L2094.88,-14893 L1824.77,-14631.4 L1292.21,-14601.1 L723.639,-14771.5 L648.701,-14781.4 L586.926,-14733.3 L575.598,-14650.9 L622.065,-14586.3 L1133.11,-14428.7 L1721.75,-14381 L2227.56,-14693.9 L2338.51,-16379.2 L2615.88,-16373 L2667.06,-16371.9 L2747.37,-16417.6 L2760.02,-16503.6 L2707.79,-16569.2 L2132.63,-16591.9 M2109.63,-15556.7 L2011.59,-15530.8 L1689.43,-15490.9 L1151.87,-15496.2 L623.459,-15801.2 L567.453,-16179.9 L819.205,-16451.8 L1331.56,-16483.3 L1803.47,-16293.2 L2109.63,-15556.7"/>
</g>

<g fill="none" stroke="#000000" stroke-opacity="1" stroke-width="1" stroke-linecap="square" stroke-linejoin="bevel" transform="matrix(0.999865,0,0,-0.999865,2776.32,-12996.4)"
font-family="MS Shell Dlg 2" font-size="10.3125" font-weight="400" font-style="normal" 
>
</g>

<g fill="none" stroke="#000000" stroke-opacity="1" stroke-width="1" stroke-linecap="square" stroke-linejoin="bevel" transform="matrix(0.999865,0,0,-0.999865,2776.32,-12996.4)"
font-family="MS Shell Dlg 2" font-size="10.3125" font-weight="400" font-style="normal" 
>
</g>

<g fill="#333333" fill-opacity="0.2" stroke="#333333" stroke-opacity="1" stroke-width="1" stroke-linecap="round" stroke-linejoin="round" transform="matrix(0.999865,0,0,-0.999865,2776.32,-12996.4)"
font-family="MS Shell Dlg 2" font-size="10.3125" font-weight="400" font-style="normal" 
>
<path vector-effect="non-scaling-stroke" fill-rule="evenodd" d="M8723.69,-15422.1 L6603.79,-15469.2 L6646.09,-15737.5 L7148.97,-16271.9 L7819.04,-16339.2 L8318.93,-16200 L8592.38,-16017.2 L8668.87,-16003.1 L8732.76,-16053.3 L8744.45,-16133.6 L8628.61,-16272.4 L8088.27,-16505.4 L7311.85,-16558.6 L6524.13,-15991.7 L6384.48,-15077.7 L6928.38,-14373.5 L7873.25,-14244.3 L8604.6,-14783.4 L8723.69,-15422.1 M8508.5,-15216.3 L8462.13,-14987.7 L7991.38,-14524.1 L7295.12,-14467.7 L6744.14,-14835.1 L8508.5,-15216.3"/>
</g>

<g fill="none" stroke="#000000" stroke-opacity="1" stroke-width="1" stroke-linecap="square" stroke-linejoin="bevel" transform="matrix(0.999865,0,0,-0.999865,2776.32,-12996.4)"
font-family="MS Shell Dlg 2" font-size="10.3125" font-weight="400" font-style="normal" 
>
</g>

<g fill="none" stroke="#000000" stroke-opacity="1" stroke-width="1" stroke-linecap="square" stroke-linejoin="bevel" transform="matrix(0.999865,0,0,-0.999865,2776.32,-12996.4)"
font-family="MS Shell Dlg 2" font-size="10.3125" font-weight="400" font-style="normal" 
>
</g>

<g fill="#333333" fill-opacity="0.2" stroke="#333333" stroke-opacity="1" stroke-width="1" stroke-linecap="round" stroke-linejoin="round" transform="matrix(0.999865,0,0,-0.999865,2776.32,-12996.4)"
font-family="MS Shell Dlg 2" font-size="10.3125" font-weight="400" font-style="normal" 
>
<path vector-effect="non-scaling-stroke" fill-rule="evenodd" d="M10367.4,-14263.2 L10379.1,-14788.2 L10644.4,-14537.8 L11109.6,-14229.8 L11470.8,-14186.6 L11803.6,-14387.8 L11859.9,-14524 L11809.8,-14592.5 L11736.1,-14604.4 L11698.7,-14590.8 L11585.6,-14485.5 L11447.6,-14406 L11273.2,-14399.1 L10911.9,-14588.9 L10410.5,-16199.8 L11331.7,-16179.3 L11382.9,-16178.2 L11463.2,-16223.9 L11475.9,-16309.9 L11423.6,-16375.5 L9704.33,-16423.6 L9654.8,-16424.7 L9575.32,-16379 L9562.76,-16297.1 L9612.99,-16234.5 L10202.6,-16211.9 L10164.1,-14478.3 L9780.22,-14486.8 L9730.69,-14487.9 L9651.17,-14440.1 L9638.51,-14353.7 L9688.67,-14288.2 L10367.4,-14263.2"/>
</g>

<g fill="none" stroke="#000000" stroke-opacity="1" stroke-width="1" stroke-linecap="square" stroke-linejoin="bevel" transform="matrix(0.999865,0,0,-0.999865,2776.32,-12996.4)"
font-family="MS Shell Dlg 2" font-size="10.3125" font-weight="400" font-style="normal" 
>
</g>

<g fill="none" stroke="#000000" stroke-opacity="1" stroke-width="1" stroke-linecap="square" stroke-linejoin="bevel" transform="matrix(1,0,0,-1,0,4518.61)"
font-family="MS Shell Dlg 2" font-size="10.3125" font-weight="400" font-style="normal" 
>
</g>
</g>
</svg>
