<?xml version="1.0" encoding="UTF-8" standalone="no"?>
<svg width="27487.6mm" height="24000.2mm"
 xmlns="http://www.w3.org/2000/svg" xmlns:xlink="http://www.w3.org/1999/xlink"  version="1.2" baseProfile="tiny">
<title>SVG Generator Example Drawing</title>
<desc>An SVG drawing created by the SVG Generator</desc>
<defs>
</defs>
<g fill="none" stroke="black" stroke-width="1" fill-rule="evenodd" stroke-linecap="square" stroke-linejoin="bevel" >

<g fill="none" stroke="#000000" stroke-opacity="1" stroke-width="1" stroke-linecap="square" stroke-linejoin="bevel" transform="matrix(1,0,0,-1,0,85040.8)"
font-family="MS Shell Dlg 2" font-size="10.3125" font-weight="400" font-style="normal" 
>
</g>

<g fill="none" stroke="#000000" stroke-opacity="1" stroke-width="1" stroke-linecap="square" stroke-linejoin="bevel" transform="matrix(1,0,0,-1,0,85040.8)"
font-family="MS Shell Dlg 2" font-size="10.3125" font-weight="400" font-style="normal" 
>
</g>

<g fill="none" stroke="#000000" stroke-opacity="1" stroke-width="1" stroke-linecap="square" stroke-linejoin="bevel" transform="matrix(0.999991,0,0,-0.999991,73973.9,65982)"
font-family="MS Shell Dlg 2" font-size="10.3125" font-weight="400" font-style="normal" 
>
</g>

<g fill="#333333" fill-opacity="0.2" stroke="#333333" stroke-opacity="1" stroke-width="1" stroke-linecap="round" stroke-linejoin="round" transform="matrix(0.999991,0,0,-0.999991,73973.9,65982)"
font-family="MS Shell Dlg 2" font-size="10.3125" font-weight="400" font-style="normal" 
>
<path vector-effect="non-scaling-stroke" fill-rule="evenodd" d="M-31401.2,-1487.67 L-31395.8,-1088.78 L-29204.1,-1118.81 L-29209.3,-1497.84 L-29209.3,-1497.88 L-29209.2,-1497.91 L-29209.2,-1497.93 L-29209.2,-1497.94 L-22589.6,-1588.62 L-22589.6,-1588.61 L-22589.5,-1588.59 L-22589.5,-1588.56 L-22589.5,-1588.52 L-22584.3,-1209.49 L-20392.6,-1239.51 L-20398.1,-1638.4 L-20474.5,-1637.35 L-20474.6,-1637.36 L-20474.6,-1637.38 L-20474.6,-1637.4 L-20474.6,-1637.43 L-21759.5,-8164.34 L-26474.9,-19058.4 L-31238.7,-8491.12 L-31386.6,-1487.97 L-31386.7,-1487.93 L-31386.7,-1487.9 L-31386.7,-1487.88 L-31386.7,-1487.87 L-31401.2,-1487.67"/>
</g>

<g fill="none" stroke="#000000" stroke-opacity="1" stroke-width="1" stroke-linecap="square" stroke-linejoin="bevel" transform="matrix(0.999991,0,0,-0.999991,73973.9,65982)"
font-family="MS Shell Dlg 2" font-size="10.3125" font-weight="400" font-style="normal" 
>
</g>

<g fill="none" stroke="#000000" stroke-opacity="1" stroke-width="1" stroke-linecap="square" stroke-linejoin="bevel" transform="matrix(0.999991,0,0,-0.999991,73973.9,65982)"
font-family="MS Shell Dlg 2" font-size="10.3125" font-weight="400" font-style="normal" 
>
</g>

<g fill="#333333" fill-opacity="0.2" stroke="#333333" stroke-opacity="1" stroke-width="1" stroke-linecap="round" stroke-linejoin="round" transform="matrix(0.999991,0,0,-0.999991,73973.9,65982)"
font-family="MS Shell Dlg 2" font-size="10.3125" font-weight="400" font-style="normal" 
>
<path vector-effect="non-scaling-stroke" fill-rule="evenodd" d="M-30728.3,9383.44 L-28640.9,9354.85 L-28646.1,8975.81 L-28646.1,8975.77 L-28646.1,8975.74 L-28646.1,8975.72 L-28646,8975.71 L-22341.7,8889.35 L-22341.6,8889.36 L-22341.6,8889.38 L-22341.6,8889.41 L-22341.6,8889.45 L-22336.4,9268.48 L-20249.1,9239.89 L-20254.5,8840.96 L-20386.9,-820.266 L-22600.6,-789.941 L-22600.6,-789.948 L-22600.7,-789.969 L-22600.7,-790.001 L-22600.7,-790.039 L-22605.9,-1169.08 L-24797.6,-1139.05 L-24792.4,-760.016 L-24792.4,-759.977 L-24792.4,-759.945 L-24792.5,-759.923 L-24792.5,-759.914 L-26984.4,-729.888 L-26984.4,-729.895 L-26984.5,-729.917 L-26984.5,-729.949 L-26984.5,-729.987 L-26989.7,-1109.02 L-29181.4,-1079 L-29176.2,-699.964 L-29176.2,-699.925 L-29176.2,-699.892 L-29176.3,-699.87 L-29176.3,-699.862 L-31370.1,-669.811 L-30753.2,9008.49 L-30733.6,9004.31 L-30733.6,9004.31 L-30733.5,9004.31 L-30733.5,9004.34 L-30733.5,9004.37 L-30733.4,9004.41 L-30728.3,9383.44"/>
</g>

<g fill="none" stroke="#000000" stroke-opacity="1" stroke-width="1" stroke-linecap="square" stroke-linejoin="bevel" transform="matrix(0.999991,0,0,-0.999991,73973.9,65982)"
font-family="MS Shell Dlg 2" font-size="10.3125" font-weight="400" font-style="normal" 
>
</g>

<g fill="none" stroke="#000000" stroke-opacity="1" stroke-width="1" stroke-linecap="square" stroke-linejoin="bevel" transform="matrix(0.999991,0,0,-0.999991,73973.9,65982)"
font-family="MS Shell Dlg 2" font-size="10.3125" font-weight="400" font-style="normal" 
>
</g>

<g fill="#333333" fill-opacity="0.2" stroke="#333333" stroke-opacity="1" stroke-width="1" stroke-linecap="round" stroke-linejoin="round" transform="matrix(0.999991,0,0,-0.999991,73973.9,65982)"
font-family="MS Shell Dlg 2" font-size="10.3125" font-weight="400" font-style="normal" 
>
<path vector-effect="non-scaling-stroke" fill-rule="evenodd" d="M-31023.4,19694.2 L-28900.8,19699.9 L-28899.8,19320.8 L-28899.8,19320.8 L-28899.8,19320.7 L-28899.7,19320.7 L-28899.7,19320.7 L-22488.8,19338 L-22488.8,19338 L-22488.8,19338 L-22488.7,19338.1 L-22488.7,19338.1 L-22489.8,19717.2 L-20367.2,19722.9 L-20366.1,19343.8 L-20366.1,19343.8 L-20366.1,19343.7 L-20366.1,19343.7 L-20366,19343.7 L-20362.7,19344.4 L-20253.3,9659.27 L-22351.6,9688.02 L-22351.7,9688.01 L-22351.7,9687.99 L-22351.7,9687.96 L-22351.7,9687.92 L-22356.9,9308.88 L-24444.2,9337.48 L-24439,9716.51 L-24439.1,9716.55 L-24439.1,9716.58 L-24439.1,9716.61 L-24439.1,9716.61 L-26526.7,9745.21 L-26526.7,9745.2 L-26526.7,9745.18 L-26526.8,9745.15 L-26526.8,9745.11 L-26532,9366.08 L-28619.3,9394.67 L-28614.1,9773.7 L-28614.1,9773.74 L-28614.1,9773.78 L-28614.2,9773.8 L-28614.2,9773.81 L-30722.6,9802.69 L-30722.6,9802.69 L-30739.3,9799.6 L-31011.5,19295.2 L-31011.5,19295.2 L-31011.5,19295.2 L-31011.5,19295.3 L-31011.6,19295.3 L-31022.3,19295.2 L-31023.4,19694.2"/>
</g>

<g fill="none" stroke="#000000" stroke-opacity="1" stroke-width="1" stroke-linecap="square" stroke-linejoin="bevel" transform="matrix(0.999991,0,0,-0.999991,73973.9,65982)"
font-family="MS Shell Dlg 2" font-size="10.3125" font-weight="400" font-style="normal" 
>
</g>

<g fill="none" stroke="#000000" stroke-opacity="1" stroke-width="1" stroke-linecap="square" stroke-linejoin="bevel" transform="matrix(0.999991,0,0,-0.999991,73973.9,65982)"
font-family="MS Shell Dlg 2" font-size="10.3125" font-weight="400" font-style="normal" 
>
</g>

<g fill="#333333" fill-opacity="0.2" stroke="#333333" stroke-opacity="1" stroke-width="1" stroke-linecap="round" stroke-linejoin="round" transform="matrix(0.999991,0,0,-0.999991,73973.9,65982)"
font-family="MS Shell Dlg 2" font-size="10.3125" font-weight="400" font-style="normal" 
>
<path vector-effect="non-scaling-stroke" fill-rule="evenodd" d="M4949.32,60954.9 L5297.5,61149.6 L5334.82,61082.9 L5334.84,61082.9 L5334.87,61082.8 L5334.9,61082.8 L5334.94,61082.8 L11629.9,63233.5 L23422.1,64597 L16652.4,55187.7 L10661.5,51558 L10661.5,51558 L10661.5,51558 L10661.5,51557.9 L10661.5,51557.9 L10668.6,51545.2 L10320.4,51350.5 L9250.52,53263.6 L9581.37,53448.6 L9581.4,53448.7 L9581.42,53448.7 L9581.42,53448.7 L9581.41,53448.8 L6350.16,59226.8 L6350.13,59226.8 L6350.1,59226.9 L6350.06,59226.9 L6350.02,59226.8 L6019.17,59041.8 L4949.32,60954.9"/>
</g>

<g fill="none" stroke="#000000" stroke-opacity="1" stroke-width="1" stroke-linecap="square" stroke-linejoin="bevel" transform="matrix(0.999991,0,0,-0.999991,73973.9,65982)"
font-family="MS Shell Dlg 2" font-size="10.3125" font-weight="400" font-style="normal" 
>
</g>

<g fill="none" stroke="#000000" stroke-opacity="1" stroke-width="1" stroke-linecap="square" stroke-linejoin="bevel" transform="matrix(0.999991,0,0,-0.999991,73973.9,65982)"
font-family="MS Shell Dlg 2" font-size="10.3125" font-weight="400" font-style="normal" 
>
</g>

<g fill="#333333" fill-opacity="0.2" stroke="#333333" stroke-opacity="1" stroke-width="1" stroke-linecap="round" stroke-linejoin="round" transform="matrix(0.999991,0,0,-0.999991,73973.9,65982)"
font-family="MS Shell Dlg 2" font-size="10.3125" font-weight="400" font-style="normal" 
>
<path vector-effect="non-scaling-stroke" fill-rule="evenodd" d="M-58532.1,57666.6 L-58206.6,57472.7 L-58172.2,57452.2 L-57846.7,57258.3 L-58968.5,55375.4 L-59294,55569.3 L-59328.4,55589.8 L-59653.9,55783.8 L-58532.1,57666.6"/>
</g>

<g fill="none" stroke="#000000" stroke-opacity="1" stroke-width="1" stroke-linecap="square" stroke-linejoin="bevel" transform="matrix(0.999991,0,0,-0.999991,73973.9,65982)"
font-family="MS Shell Dlg 2" font-size="10.3125" font-weight="400" font-style="normal" 
>
</g>

<g fill="none" stroke="#000000" stroke-opacity="1" stroke-width="1" stroke-linecap="square" stroke-linejoin="bevel" transform="matrix(0.999991,0,0,-0.999991,73973.9,65982)"
font-family="MS Shell Dlg 2" font-size="10.3125" font-weight="400" font-style="normal" 
>
</g>

<g fill="#333333" fill-opacity="0.2" stroke="#333333" stroke-opacity="1" stroke-width="1" stroke-linecap="round" stroke-linejoin="round" transform="matrix(0.999991,0,0,-0.999991,73973.9,65982)"
font-family="MS Shell Dlg 2" font-size="10.3125" font-weight="400" font-style="normal" 
>
<path vector-effect="non-scaling-stroke" fill-rule="evenodd" d="M-61926.3,52008.6 L-61887.2,52074.3 L-61887.2,52074.3 L-61887.2,52074.4 L-61887.2,52074.4 L-61887.2,52074.4 L-66897.2,56450.7 L-73974.1,65981.3 L-62440.6,64823.2 L-56301.7,61449.8 L-56301.7,61449.8 L-56301.7,61449.8 L-56301.6,61449.8 L-56301.6,61449.8 L-56294.2,61462.3 L-55951.5,61258.1 L-57073.3,59375.1 L-57399,59569.1 L-57399,59569.1 L-57399.1,59569.1 L-57399.1,59569.1 L-57399.1,59569 L-60787.4,53881.7 L-60787.4,53881.6 L-60787.4,53881.6 L-60787.4,53881.6 L-60787.4,53881.5 L-60461.7,53687.5 L-61583.6,51804.5 L-61926.3,52008.6"/>
</g>

<g fill="none" stroke="#000000" stroke-opacity="1" stroke-width="1" stroke-linecap="square" stroke-linejoin="bevel" transform="matrix(0.999991,0,0,-0.999991,73973.9,65982)"
font-family="MS Shell Dlg 2" font-size="10.3125" font-weight="400" font-style="normal" 
>
</g>

<g fill="none" stroke="#000000" stroke-opacity="1" stroke-width="1" stroke-linecap="square" stroke-linejoin="bevel" transform="matrix(0.999991,0,0,-0.999991,73973.9,65982)"
font-family="MS Shell Dlg 2" font-size="10.3125" font-weight="400" font-style="normal" 
>
</g>

<g fill="#333333" fill-opacity="0.2" stroke="#333333" stroke-opacity="1" stroke-width="1" stroke-linecap="round" stroke-linejoin="round" transform="matrix(0.999991,0,0,-0.999991,73973.9,65982)"
font-family="MS Shell Dlg 2" font-size="10.3125" font-weight="400" font-style="normal" 
>
<path vector-effect="non-scaling-stroke" fill-rule="evenodd" d="M-42340.6,43140.9 L-41284.2,44982 L-40955.4,44793.4 L-40955.4,44793.3 L-40955.3,44793.3 L-40955.3,44793.4 L-40955.3,44793.4 L-39898.8,46634.7 L-39898.8,46634.7 L-39898.8,46634.7 L-39898.8,46634.8 L-39898.9,46634.8 L-40227.7,46823.4 L-39171.3,48664.5 L-38842.5,48475.9 L-38842.5,48475.9 L-38842.4,48475.9 L-38842.4,48475.9 L-38842.4,48475.9 L-37780.7,50326.3 L-25675.7,42946.7 L-25675.6,42946.7 L-25675.6,42946.7 L-25675.6,42946.7 L-13576.2,50278.7 L-12502.9,48431.3 L-12502.9,48431.3 L-12502.9,48431.3 L-12502.8,48431.3 L-12502.8,48431.3 L-12175,48621.7 L-11108.8,46786.3 L-11436.6,46595.9 L-11436.6,46595.9 L-11436.6,46595.9 L-11436.6,46595.8 L-11436.6,46595.8 L-10370.2,44760.3 L-10370.2,44760.2 L-10370.2,44760.2 L-10370.1,44760.2 L-10370.1,44760.2 L-10042.3,44950.6 L-8976.08,43115.3 L-9303.85,42924.9 L-9303.88,42924.8 L-9303.9,42924.8 L-9303.9,42924.8 L-9303.89,42924.7 L-8232.25,41080.1 L-20675.7,34286.6 L-20675.7,34286.6 L-20675.7,34286.6 L-20675.7,34286.5 L-20375.7,20142.1 L-22512.2,20136.4 L-22512.3,20136.4 L-22512.3,20136.4 L-22512.3,20136.3 L-22512.3,20136.3 L-22511.3,19757.2 L-24633.9,19751.5 L-24634.9,20130.6 L-24634.9,20130.6 L-24634.9,20130.6 L-24635,20130.7 L-24635,20130.7 L-26757.8,20124.9 L-26757.9,20124.9 L-26757.9,20124.9 L-26757.9,20124.9 L-26757.9,20124.8 L-26756.9,19745.8 L-28879.5,19740.1 L-28880.5,20119.1 L-28880.5,20119.2 L-28880.5,20119.2 L-28880.6,20119.2 L-28880.6,20119.2 L-31013.9,20113.5 L-30675.5,34286.5 L-30675.5,34286.6 L-30675.6,34286.6 L-30675.6,34286.6 L-43075,41099 L-42011.7,42952.1 L-42011.7,42952.2 L-42011.7,42952.2 L-42011.7,42952.2 L-42011.8,42952.3 L-42340.6,43140.9"/>
</g>

<g fill="none" stroke="#000000" stroke-opacity="1" stroke-width="1" stroke-linecap="square" stroke-linejoin="bevel" transform="matrix(0.999991,0,0,-0.999991,73973.9,65982)"
font-family="MS Shell Dlg 2" font-size="10.3125" font-weight="400" font-style="normal" 
>
</g>

<g fill="none" stroke="#000000" stroke-opacity="1" stroke-width="1" stroke-linecap="square" stroke-linejoin="bevel" transform="matrix(0.999991,0,0,-0.999991,73973.9,65982)"
font-family="MS Shell Dlg 2" font-size="10.3125" font-weight="400" font-style="normal" 
>
</g>

<g fill="#333333" fill-opacity="0.2" stroke="#333333" stroke-opacity="1" stroke-width="1" stroke-linecap="round" stroke-linejoin="round" transform="matrix(0.999991,0,0,-0.999991,73973.9,65982)"
font-family="MS Shell Dlg 2" font-size="10.3125" font-weight="400" font-style="normal" 
>
<path vector-effect="non-scaling-stroke" fill-rule="evenodd" d="M-51466.3,48231.4 L-50397.8,50024.8 L-50072.2,49830.8 L-50072.1,49830.7 L-50072.1,49830.7 L-50072.1,49830.8 L-50072,49830.8 L-49003.5,51624.4 L-49003.5,51624.4 L-49003.5,51624.4 L-49003.5,51624.5 L-49003.5,51624.5 L-49329.2,51818.5 L-48260.8,53611.9 L-47935.1,53417.9 L-47935.1,53417.9 L-47935,53417.9 L-47935,53417.9 L-47935,53417.9 L-46855.8,55229.4 L-46855.8,55229.4 L-46850.1,55245.4 L-38490.6,50733.3 L-38490.6,50733.3 L-38490.5,50733.3 L-38490.5,50733.3 L-38490.5,50733.3 L-38485.1,50742.7 L-38139.1,50544.2 L-39195.4,48703.1 L-39524.2,48891.7 L-39524.3,48891.7 L-39524.3,48891.7 L-39524.3,48891.7 L-39524.4,48891.7 L-42714.8,43331.1 L-42714.9,43331.1 L-42714.9,43331 L-42714.8,43331 L-42714.8,43331 L-42386,43142.3 L-43442.4,41301.2 L-43771.2,41489.9 L-43771.2,41489.9 L-43771.2,41489.9 L-43771.3,41489.9 L-43771.3,41489.8 L-43771.3,41489.8 L-43772.4,41486.6 L-52214.6,46234.4 L-51140.6,48037.2 L-51140.6,48037.3 L-51140.6,48037.3 L-51140.6,48037.4 L-51140.6,48037.4 L-51466.3,48231.4"/>
</g>

<g fill="none" stroke="#000000" stroke-opacity="1" stroke-width="1" stroke-linecap="square" stroke-linejoin="bevel" transform="matrix(0.999991,0,0,-0.999991,73973.9,65982)"
font-family="MS Shell Dlg 2" font-size="10.3125" font-weight="400" font-style="normal" 
>
</g>

<g fill="none" stroke="#000000" stroke-opacity="1" stroke-width="1" stroke-linecap="square" stroke-linejoin="bevel" transform="matrix(0.999991,0,0,-0.999991,73973.9,65982)"
font-family="MS Shell Dlg 2" font-size="10.3125" font-weight="400" font-style="normal" 
>
</g>

<g fill="#333333" fill-opacity="0.2" stroke="#333333" stroke-opacity="1" stroke-width="1" stroke-linecap="round" stroke-linejoin="round" transform="matrix(0.999991,0,0,-0.999991,73973.9,65982)"
font-family="MS Shell Dlg 2" font-size="10.3125" font-weight="400" font-style="normal" 
>
<path vector-effect="non-scaling-stroke" fill-rule="evenodd" d="M-13217.4,50495.8 L-12889.6,50686.2 L-12889.6,50686.2 L-12889.6,50686.2 L-12889.5,50686.3 L-12889.6,50686.3 L-12889.6,50686.3 L-12891.8,50688.9 L-4558.96,55626.2 L-3534.69,53794.6 L-3534.67,53794.6 L-3534.63,53794.5 L-3534.59,53794.5 L-3534.56,53794.6 L-3203.71,53979.6 L-2184.8,52157.6 L-2515.66,51972.6 L-2515.68,51972.6 L-2515.7,51972.5 L-2515.71,51972.5 L-2515.69,51972.4 L-1496.69,50150.3 L-1496.67,50150.3 L-1496.63,50150.2 L-1496.59,50150.2 L-1496.56,50150.3 L-1165.71,50335.3 L-146.804,48513.3 L-477.655,48328.3 L-477.685,48328.2 L-477.703,48328.2 L-477.706,48328.2 L-477.694,48328.1 L551.496,46487.8 L551.507,46487.7 L562.529,46474.8 L-7524.82,41491.4 L-7524.85,41491.4 L-7524.86,41491.3 L-7524.86,41491.3 L-7524.85,41491.2 L-7519.44,41481.9 L-7864.38,41281.5 L-8930.63,43116.9 L-8602.86,43307.3 L-8602.83,43307.3 L-8602.81,43307.4 L-8602.81,43307.4 L-8602.82,43307.4 L-11823.2,48850.8 L-11823.2,48850.8 L-11823.3,48850.8 L-11823.3,48850.8 L-11823.3,48850.8 L-12151.1,48660.4 L-13217.4,50495.8"/>
</g>

<g fill="none" stroke="#000000" stroke-opacity="1" stroke-width="1" stroke-linecap="square" stroke-linejoin="bevel" transform="matrix(0.999991,0,0,-0.999991,73973.9,65982)"
font-family="MS Shell Dlg 2" font-size="10.3125" font-weight="400" font-style="normal" 
>
</g>

<g fill="none" stroke="#000000" stroke-opacity="1" stroke-width="1" stroke-linecap="square" stroke-linejoin="bevel" transform="matrix(0.999991,0,0,-0.999991,73973.9,65982)"
font-family="MS Shell Dlg 2" font-size="10.3125" font-weight="400" font-style="normal" 
>
</g>

<g fill="#333333" fill-opacity="0.2" stroke="#333333" stroke-opacity="1" stroke-width="1" stroke-linecap="round" stroke-linejoin="round" transform="matrix(0.999991,0,0,-0.999991,73973.9,65982)"
font-family="MS Shell Dlg 2" font-size="10.3125" font-weight="400" font-style="normal" 
>
<path vector-effect="non-scaling-stroke" fill-rule="evenodd" d="M-4197.89,55839.5 L-3849.67,56034.3 L4583.37,60750.3 L5663.97,58818 L5664,58817.9 L5664.03,58817.9 L5664.07,58817.9 L5664.11,58817.9 L5994.96,59002.9 L7064.81,57089.9 L6733.96,56904.8 L6733.93,56904.8 L6733.91,56904.8 L6733.91,56904.7 L6733.92,56904.7 L7803.87,54991.4 L7803.9,54991.4 L7803.93,54991.4 L7803.97,54991.4 L7804.01,54991.4 L8134.86,55176.4 L9204.71,53263.3 L8873.86,53078.3 L8873.83,53078.3 L8873.81,53078.3 L8873.81,53078.2 L8873.82,53078.2 L9944.68,51163.3 L1254.57,46858.4 L1248.39,46877.5 L1248.38,46877.5 L1248.36,46877.5 L1248.32,46877.5 L1248.28,46877.5 L1248.25,46877.5 L917.396,46692.5 L-101.507,48514.5 L229.344,48699.5 L229.374,48699.5 L229.392,48699.6 L229.395,48699.6 L229.383,48699.6 L-2848,54202.5 L-2848.02,54202.6 L-2848.06,54202.6 L-2848.1,54202.6 L-2848.13,54202.6 L-3178.98,54017.6 L-4197.89,55839.5"/>
</g>

<g fill="none" stroke="#000000" stroke-opacity="1" stroke-width="1" stroke-linecap="square" stroke-linejoin="bevel" transform="matrix(0.999991,0,0,-0.999991,73973.9,65982)"
font-family="MS Shell Dlg 2" font-size="10.3125" font-weight="400" font-style="normal" 
>
</g>

<g fill="none" stroke="#000000" stroke-opacity="1" stroke-width="1" stroke-linecap="square" stroke-linejoin="bevel" transform="matrix(0.999991,0,0,-0.999991,73973.9,65982)"
font-family="MS Shell Dlg 2" font-size="10.3125" font-weight="400" font-style="normal" 
>
</g>

<g fill="#333333" fill-opacity="0.2" stroke="#333333" stroke-opacity="1" stroke-width="1" stroke-linecap="round" stroke-linejoin="round" transform="matrix(0.999991,0,0,-0.999991,73973.9,65982)"
font-family="MS Shell Dlg 2" font-size="10.3125" font-weight="400" font-style="normal" 
>
<path vector-effect="non-scaling-stroke" fill-rule="evenodd" d="M-60416,53686 L-59294.1,55569 L-58968.4,55375 L-58968.4,55375 L-58968.4,55375 L-58968.3,55375 L-58968.3,55375.1 L-57846.3,57258.3 L-57846.3,57258.3 L-57846.3,57258.4 L-57846.4,57258.4 L-57846.4,57258.4 L-58172,57452.5 L-57050.2,59335.5 L-56724.5,59141.5 L-56724.5,59141.5 L-56724.5,59141.5 L-56724.4,59141.5 L-56724.4,59141.5 L-55601.5,61026.4 L-47528.3,55653 L-47541.7,55638.1 L-47541.7,55638.1 L-47541.7,55638 L-47541.7,55638 L-47541.7,55638 L-47541.7,55637.9 L-47216,55443.9 L-48284.5,53650.5 L-48610.1,53844.5 L-48610.1,53844.6 L-48610.2,53844.6 L-48610.2,53844.5 L-48610.2,53844.5 L-51837.2,48428 L-51837.2,48427.9 L-51837.2,48427.9 L-51837.2,48427.9 L-51837.2,48427.8 L-51511.5,48233.8 L-52579.9,46440.4 L-52922.7,46644.6 L-61223.4,51589.9 L-60090.3,53491.8 L-60090.2,53491.9 L-60090.3,53491.9 L-60090.3,53491.9 L-60090.3,53492 L-60416,53686"/>
</g>

<g fill="none" stroke="#000000" stroke-opacity="1" stroke-width="1" stroke-linecap="square" stroke-linejoin="bevel" transform="matrix(0.999991,0,0,-0.999991,73973.9,65982)"
font-family="MS Shell Dlg 2" font-size="10.3125" font-weight="400" font-style="normal" 
>
</g>

<g fill="none" stroke="#000000" stroke-opacity="1" stroke-width="1" stroke-linecap="square" stroke-linejoin="bevel" transform="matrix(0.999991,0,0,-0.999991,73973.9,65982)"
font-family="MS Shell Dlg 2" font-size="10.3125" font-weight="400" font-style="normal" 
>
</g>

<g fill="#ae5151" fill-opacity="0.2" stroke="#333333" stroke-opacity="1" stroke-width="1" stroke-linecap="round" stroke-linejoin="round" transform="matrix(0.999991,0,0,-0.999991,73973.9,65982)"
font-family="MS Shell Dlg 2" font-size="10.3125" font-weight="400" font-style="normal" 
>
<path vector-effect="non-scaling-stroke" fill-rule="evenodd" d="M-31401.2,-1487.67 L-31395.8,-1088.78 L-29204.1,-1118.81 L-29209.3,-1497.84 L-29209.3,-1497.88 L-29209.2,-1497.91 L-29209.2,-1497.93 L-29209.2,-1497.94 L-22589.6,-1588.62 L-22589.6,-1588.61 L-22589.5,-1588.59 L-22589.5,-1588.56 L-22589.5,-1588.52 L-22584.3,-1209.49 L-20392.6,-1239.51 L-20398.1,-1638.4 L-20474.5,-1637.35 L-20474.6,-1637.36 L-20474.6,-1637.38 L-20474.6,-1637.4 L-20474.6,-1637.43 L-21759.5,-8164.34 L-26474.9,-19058.4 L-31238.7,-8491.12 L-31386.6,-1487.97 L-31386.7,-1487.93 L-31386.7,-1487.9 L-31386.7,-1487.88 L-31386.7,-1487.87 L-31401.2,-1487.67"/>
</g>

<g fill="none" stroke="#000000" stroke-opacity="1" stroke-width="1" stroke-linecap="square" stroke-linejoin="bevel" transform="matrix(0.999991,0,0,-0.999991,73973.9,65982)"
font-family="MS Shell Dlg 2" font-size="10.3125" font-weight="400" font-style="normal" 
>
</g>

<g fill="none" stroke="#000000" stroke-opacity="1" stroke-width="1" stroke-linecap="square" stroke-linejoin="bevel" transform="matrix(0.999991,0,0,-0.999991,73973.9,65982)"
font-family="MS Shell Dlg 2" font-size="10.3125" font-weight="400" font-style="normal" 
>
</g>

<g fill="#ae5151" fill-opacity="0.2" stroke="#333333" stroke-opacity="1" stroke-width="1" stroke-linecap="round" stroke-linejoin="round" transform="matrix(0.999991,0,0,-0.999991,73973.9,65982)"
font-family="MS Shell Dlg 2" font-size="10.3125" font-weight="400" font-style="normal" 
>
<path vector-effect="non-scaling-stroke" fill-rule="evenodd" d="M-30728.3,9383.44 L-28640.9,9354.85 L-28646.1,8975.81 L-28646.1,8975.77 L-28646.1,8975.74 L-28646.1,8975.72 L-28646,8975.71 L-22341.7,8889.35 L-22341.6,8889.36 L-22341.6,8889.38 L-22341.6,8889.41 L-22341.6,8889.45 L-22336.4,9268.48 L-20249.1,9239.89 L-20254.5,8840.96 L-20386.9,-820.266 L-22600.6,-789.941 L-22600.6,-789.948 L-22600.7,-789.969 L-22600.7,-790.001 L-22600.7,-790.039 L-22605.9,-1169.08 L-24797.6,-1139.05 L-24792.4,-760.016 L-24792.4,-759.977 L-24792.4,-759.945 L-24792.5,-759.923 L-24792.5,-759.914 L-26984.4,-729.888 L-26984.4,-729.895 L-26984.5,-729.917 L-26984.5,-729.949 L-26984.5,-729.987 L-26989.7,-1109.02 L-29181.4,-1079 L-29176.2,-699.964 L-29176.2,-699.925 L-29176.2,-699.892 L-29176.3,-699.87 L-29176.3,-699.862 L-31370.1,-669.811 L-30753.2,9008.49 L-30733.6,9004.31 L-30733.6,9004.31 L-30733.5,9004.31 L-30733.5,9004.34 L-30733.5,9004.37 L-30733.4,9004.41 L-30728.3,9383.44"/>
</g>

<g fill="none" stroke="#000000" stroke-opacity="1" stroke-width="1" stroke-linecap="square" stroke-linejoin="bevel" transform="matrix(0.999991,0,0,-0.999991,73973.9,65982)"
font-family="MS Shell Dlg 2" font-size="10.3125" font-weight="400" font-style="normal" 
>
</g>

<g fill="none" stroke="#000000" stroke-opacity="1" stroke-width="1" stroke-linecap="square" stroke-linejoin="bevel" transform="matrix(0.999991,0,0,-0.999991,73973.9,65982)"
font-family="MS Shell Dlg 2" font-size="10.3125" font-weight="400" font-style="normal" 
>
</g>

<g fill="#ae5151" fill-opacity="0.2" stroke="#333333" stroke-opacity="1" stroke-width="1" stroke-linecap="round" stroke-linejoin="round" transform="matrix(0.999991,0,0,-0.999991,73973.9,65982)"
font-family="MS Shell Dlg 2" font-size="10.3125" font-weight="400" font-style="normal" 
>
<path vector-effect="non-scaling-stroke" fill-rule="evenodd" d="M-31023.4,19694.2 L-28900.8,19699.9 L-28899.8,19320.8 L-28899.8,19320.8 L-28899.8,19320.7 L-28899.7,19320.7 L-28899.7,19320.7 L-22488.8,19338 L-22488.8,19338 L-22488.8,19338 L-22488.7,19338.1 L-22488.7,19338.1 L-22489.8,19717.2 L-20367.2,19722.9 L-20366.1,19343.8 L-20366.1,19343.8 L-20366.1,19343.7 L-20366.1,19343.7 L-20366,19343.7 L-20362.7,19344.4 L-20253.3,9659.27 L-22351.6,9688.02 L-22351.7,9688.01 L-22351.7,9687.99 L-22351.7,9687.96 L-22351.7,9687.92 L-22356.9,9308.88 L-24444.2,9337.48 L-24439,9716.51 L-24439.1,9716.55 L-24439.1,9716.58 L-24439.1,9716.61 L-24439.1,9716.61 L-26526.7,9745.21 L-26526.7,9745.2 L-26526.7,9745.18 L-26526.8,9745.15 L-26526.8,9745.11 L-26532,9366.08 L-28619.3,9394.67 L-28614.1,9773.7 L-28614.1,9773.74 L-28614.1,9773.78 L-28614.2,9773.8 L-28614.2,9773.81 L-30722.6,9802.69 L-30722.6,9802.69 L-30739.3,9799.6 L-31011.5,19295.2 L-31011.5,19295.2 L-31011.5,19295.2 L-31011.5,19295.3 L-31011.6,19295.3 L-31022.3,19295.2 L-31023.4,19694.2"/>
</g>

<g fill="none" stroke="#000000" stroke-opacity="1" stroke-width="1" stroke-linecap="square" stroke-linejoin="bevel" transform="matrix(0.999991,0,0,-0.999991,73973.9,65982)"
font-family="MS Shell Dlg 2" font-size="10.3125" font-weight="400" font-style="normal" 
>
</g>

<g fill="none" stroke="#000000" stroke-opacity="1" stroke-width="1" stroke-linecap="square" stroke-linejoin="bevel" transform="matrix(0.999991,0,0,-0.999991,73973.9,65982)"
font-family="MS Shell Dlg 2" font-size="10.3125" font-weight="400" font-style="normal" 
>
</g>

<g fill="#ae5151" fill-opacity="0.2" stroke="#333333" stroke-opacity="1" stroke-width="1" stroke-linecap="round" stroke-linejoin="round" transform="matrix(0.999991,0,0,-0.999991,73973.9,65982)"
font-family="MS Shell Dlg 2" font-size="10.3125" font-weight="400" font-style="normal" 
>
<path vector-effect="non-scaling-stroke" fill-rule="evenodd" d="M4949.32,60954.9 L5297.5,61149.6 L5334.82,61082.9 L5334.84,61082.9 L5334.87,61082.8 L5334.9,61082.8 L5334.94,61082.8 L11629.9,63233.5 L23422.1,64597 L16652.4,55187.7 L10661.5,51558 L10661.5,51558 L10661.5,51558 L10661.5,51557.9 L10661.5,51557.9 L10668.6,51545.2 L10320.4,51350.5 L9250.52,53263.6 L9581.37,53448.6 L9581.4,53448.7 L9581.42,53448.7 L9581.42,53448.7 L9581.41,53448.8 L6350.16,59226.8 L6350.13,59226.8 L6350.1,59226.9 L6350.06,59226.9 L6350.02,59226.8 L6019.17,59041.8 L4949.32,60954.9"/>
</g>

<g fill="none" stroke="#000000" stroke-opacity="1" stroke-width="1" stroke-linecap="square" stroke-linejoin="bevel" transform="matrix(0.999991,0,0,-0.999991,73973.9,65982)"
font-family="MS Shell Dlg 2" font-size="10.3125" font-weight="400" font-style="normal" 
>
</g>

<g fill="none" stroke="#000000" stroke-opacity="1" stroke-width="1" stroke-linecap="square" stroke-linejoin="bevel" transform="matrix(0.999991,0,0,-0.999991,73973.9,65982)"
font-family="MS Shell Dlg 2" font-size="10.3125" font-weight="400" font-style="normal" 
>
</g>

<g fill="#ae5151" fill-opacity="0.2" stroke="#333333" stroke-opacity="1" stroke-width="1" stroke-linecap="round" stroke-linejoin="round" transform="matrix(0.999991,0,0,-0.999991,73973.9,65982)"
font-family="MS Shell Dlg 2" font-size="10.3125" font-weight="400" font-style="normal" 
>
<path vector-effect="non-scaling-stroke" fill-rule="evenodd" d="M-58532.1,57666.6 L-58206.6,57472.7 L-58172.2,57452.2 L-57846.7,57258.3 L-58968.5,55375.4 L-59294,55569.3 L-59328.4,55589.8 L-59653.9,55783.8 L-58532.1,57666.6"/>
</g>

<g fill="none" stroke="#000000" stroke-opacity="1" stroke-width="1" stroke-linecap="square" stroke-linejoin="bevel" transform="matrix(0.999991,0,0,-0.999991,73973.9,65982)"
font-family="MS Shell Dlg 2" font-size="10.3125" font-weight="400" font-style="normal" 
>
</g>

<g fill="none" stroke="#000000" stroke-opacity="1" stroke-width="1" stroke-linecap="square" stroke-linejoin="bevel" transform="matrix(0.999991,0,0,-0.999991,73973.9,65982)"
font-family="MS Shell Dlg 2" font-size="10.3125" font-weight="400" font-style="normal" 
>
</g>

<g fill="#ae5151" fill-opacity="0.2" stroke="#333333" stroke-opacity="1" stroke-width="1" stroke-linecap="round" stroke-linejoin="round" transform="matrix(0.999991,0,0,-0.999991,73973.9,65982)"
font-family="MS Shell Dlg 2" font-size="10.3125" font-weight="400" font-style="normal" 
>
<path vector-effect="non-scaling-stroke" fill-rule="evenodd" d="M-61926.3,52008.6 L-61887.2,52074.3 L-61887.2,52074.3 L-61887.2,52074.4 L-61887.2,52074.4 L-61887.2,52074.4 L-66897.2,56450.7 L-73974.1,65981.3 L-62440.6,64823.2 L-56301.7,61449.8 L-56301.7,61449.8 L-56301.7,61449.8 L-56301.6,61449.8 L-56301.6,61449.8 L-56294.2,61462.3 L-55951.5,61258.1 L-57073.3,59375.1 L-57399,59569.1 L-57399,59569.1 L-57399.1,59569.1 L-57399.1,59569.1 L-57399.1,59569 L-60787.4,53881.7 L-60787.4,53881.6 L-60787.4,53881.6 L-60787.4,53881.6 L-60787.4,53881.5 L-60461.7,53687.5 L-61583.6,51804.5 L-61926.3,52008.6"/>
</g>

<g fill="none" stroke="#000000" stroke-opacity="1" stroke-width="1" stroke-linecap="square" stroke-linejoin="bevel" transform="matrix(0.999991,0,0,-0.999991,73973.9,65982)"
font-family="MS Shell Dlg 2" font-size="10.3125" font-weight="400" font-style="normal" 
>
</g>

<g fill="none" stroke="#000000" stroke-opacity="1" stroke-width="1" stroke-linecap="square" stroke-linejoin="bevel" transform="matrix(0.999991,0,0,-0.999991,73973.9,65982)"
font-family="MS Shell Dlg 2" font-size="10.3125" font-weight="400" font-style="normal" 
>
</g>

<g fill="#ae5151" fill-opacity="0.2" stroke="#333333" stroke-opacity="1" stroke-width="1" stroke-linecap="round" stroke-linejoin="round" transform="matrix(0.999991,0,0,-0.999991,73973.9,65982)"
font-family="MS Shell Dlg 2" font-size="10.3125" font-weight="400" font-style="normal" 
>
<path vector-effect="non-scaling-stroke" fill-rule="evenodd" d="M-42340.6,43140.9 L-41284.2,44982 L-40955.4,44793.4 L-40955.4,44793.3 L-40955.3,44793.3 L-40955.3,44793.4 L-40955.3,44793.4 L-39898.8,46634.7 L-39898.8,46634.7 L-39898.8,46634.7 L-39898.8,46634.8 L-39898.9,46634.8 L-40227.7,46823.4 L-39171.3,48664.5 L-38842.5,48475.9 L-38842.5,48475.9 L-38842.4,48475.9 L-38842.4,48475.9 L-38842.4,48475.9 L-37780.7,50326.3 L-25675.7,42946.7 L-25675.6,42946.7 L-25675.6,42946.7 L-25675.6,42946.7 L-13576.2,50278.7 L-12502.9,48431.3 L-12502.9,48431.3 L-12502.9,48431.3 L-12502.8,48431.3 L-12502.8,48431.3 L-12175,48621.7 L-11108.8,46786.3 L-11436.6,46595.9 L-11436.6,46595.9 L-11436.6,46595.9 L-11436.6,46595.8 L-11436.6,46595.8 L-10370.2,44760.3 L-10370.2,44760.2 L-10370.2,44760.2 L-10370.1,44760.2 L-10370.1,44760.2 L-10042.3,44950.6 L-8976.08,43115.3 L-9303.85,42924.9 L-9303.88,42924.8 L-9303.9,42924.8 L-9303.9,42924.8 L-9303.89,42924.7 L-8232.25,41080.1 L-20675.7,34286.6 L-20675.7,34286.6 L-20675.7,34286.6 L-20675.7,34286.5 L-20375.7,20142.1 L-22512.2,20136.4 L-22512.3,20136.4 L-22512.3,20136.4 L-22512.3,20136.3 L-22512.3,20136.3 L-22511.3,19757.2 L-24633.9,19751.5 L-24634.9,20130.6 L-24634.9,20130.6 L-24634.9,20130.6 L-24635,20130.7 L-24635,20130.7 L-26757.8,20124.9 L-26757.9,20124.9 L-26757.9,20124.9 L-26757.9,20124.9 L-26757.9,20124.8 L-26756.9,19745.8 L-28879.5,19740.1 L-28880.5,20119.1 L-28880.5,20119.2 L-28880.5,20119.2 L-28880.6,20119.2 L-28880.6,20119.2 L-31013.9,20113.5 L-30675.5,34286.5 L-30675.5,34286.6 L-30675.6,34286.6 L-30675.6,34286.6 L-43075,41099 L-42011.7,42952.1 L-42011.7,42952.2 L-42011.7,42952.2 L-42011.7,42952.2 L-42011.8,42952.3 L-42340.6,43140.9"/>
</g>

<g fill="none" stroke="#000000" stroke-opacity="1" stroke-width="1" stroke-linecap="square" stroke-linejoin="bevel" transform="matrix(0.999991,0,0,-0.999991,73973.9,65982)"
font-family="MS Shell Dlg 2" font-size="10.3125" font-weight="400" font-style="normal" 
>
</g>

<g fill="none" stroke="#000000" stroke-opacity="1" stroke-width="1" stroke-linecap="square" stroke-linejoin="bevel" transform="matrix(0.999991,0,0,-0.999991,73973.9,65982)"
font-family="MS Shell Dlg 2" font-size="10.3125" font-weight="400" font-style="normal" 
>
</g>

<g fill="#ae5151" fill-opacity="0.2" stroke="#333333" stroke-opacity="1" stroke-width="1" stroke-linecap="round" stroke-linejoin="round" transform="matrix(0.999991,0,0,-0.999991,73973.9,65982)"
font-family="MS Shell Dlg 2" font-size="10.3125" font-weight="400" font-style="normal" 
>
<path vector-effect="non-scaling-stroke" fill-rule="evenodd" d="M-51466.3,48231.4 L-50397.8,50024.8 L-50072.2,49830.8 L-50072.1,49830.7 L-50072.1,49830.7 L-50072.1,49830.8 L-50072,49830.8 L-49003.5,51624.4 L-49003.5,51624.4 L-49003.5,51624.4 L-49003.5,51624.5 L-49003.5,51624.5 L-49329.2,51818.5 L-48260.8,53611.9 L-47935.1,53417.9 L-47935.1,53417.9 L-47935,53417.9 L-47935,53417.9 L-47935,53417.9 L-46855.8,55229.4 L-46855.8,55229.4 L-46850.1,55245.4 L-38490.6,50733.3 L-38490.6,50733.3 L-38490.5,50733.3 L-38490.5,50733.3 L-38490.5,50733.3 L-38485.1,50742.7 L-38139.1,50544.2 L-39195.4,48703.1 L-39524.2,48891.7 L-39524.3,48891.7 L-39524.3,48891.7 L-39524.3,48891.7 L-39524.4,48891.7 L-42714.8,43331.1 L-42714.9,43331.1 L-42714.9,43331 L-42714.8,43331 L-42714.8,43331 L-42386,43142.3 L-43442.4,41301.2 L-43771.2,41489.9 L-43771.2,41489.9 L-43771.2,41489.9 L-43771.3,41489.9 L-43771.3,41489.8 L-43771.3,41489.8 L-43772.4,41486.6 L-52214.6,46234.4 L-51140.6,48037.2 L-51140.6,48037.3 L-51140.6,48037.3 L-51140.6,48037.4 L-51140.6,48037.4 L-51466.3,48231.4"/>
</g>

<g fill="none" stroke="#000000" stroke-opacity="1" stroke-width="1" stroke-linecap="square" stroke-linejoin="bevel" transform="matrix(0.999991,0,0,-0.999991,73973.9,65982)"
font-family="MS Shell Dlg 2" font-size="10.3125" font-weight="400" font-style="normal" 
>
</g>

<g fill="none" stroke="#000000" stroke-opacity="1" stroke-width="1" stroke-linecap="square" stroke-linejoin="bevel" transform="matrix(0.999991,0,0,-0.999991,73973.9,65982)"
font-family="MS Shell Dlg 2" font-size="10.3125" font-weight="400" font-style="normal" 
>
</g>

<g fill="#ae5151" fill-opacity="0.2" stroke="#333333" stroke-opacity="1" stroke-width="1" stroke-linecap="round" stroke-linejoin="round" transform="matrix(0.999991,0,0,-0.999991,73973.9,65982)"
font-family="MS Shell Dlg 2" font-size="10.3125" font-weight="400" font-style="normal" 
>
<path vector-effect="non-scaling-stroke" fill-rule="evenodd" d="M-13217.4,50495.8 L-12889.6,50686.2 L-12889.6,50686.2 L-12889.6,50686.2 L-12889.5,50686.3 L-12889.6,50686.3 L-12889.6,50686.3 L-12891.8,50688.9 L-4558.96,55626.2 L-3534.69,53794.6 L-3534.67,53794.6 L-3534.63,53794.5 L-3534.59,53794.5 L-3534.56,53794.6 L-3203.71,53979.6 L-2184.8,52157.6 L-2515.66,51972.6 L-2515.68,51972.6 L-2515.7,51972.5 L-2515.71,51972.5 L-2515.69,51972.4 L-1496.69,50150.3 L-1496.67,50150.3 L-1496.63,50150.2 L-1496.59,50150.2 L-1496.56,50150.3 L-1165.71,50335.3 L-146.804,48513.3 L-477.655,48328.3 L-477.685,48328.2 L-477.703,48328.2 L-477.706,48328.2 L-477.694,48328.1 L551.496,46487.8 L551.507,46487.7 L562.529,46474.8 L-7524.82,41491.4 L-7524.85,41491.4 L-7524.86,41491.3 L-7524.86,41491.3 L-7524.85,41491.2 L-7519.44,41481.9 L-7864.38,41281.5 L-8930.63,43116.9 L-8602.86,43307.3 L-8602.83,43307.3 L-8602.81,43307.4 L-8602.81,43307.4 L-8602.82,43307.4 L-11823.2,48850.8 L-11823.2,48850.8 L-11823.3,48850.8 L-11823.3,48850.8 L-11823.3,48850.8 L-12151.1,48660.4 L-13217.4,50495.8"/>
</g>

<g fill="none" stroke="#000000" stroke-opacity="1" stroke-width="1" stroke-linecap="square" stroke-linejoin="bevel" transform="matrix(0.999991,0,0,-0.999991,73973.9,65982)"
font-family="MS Shell Dlg 2" font-size="10.3125" font-weight="400" font-style="normal" 
>
</g>

<g fill="none" stroke="#000000" stroke-opacity="1" stroke-width="1" stroke-linecap="square" stroke-linejoin="bevel" transform="matrix(0.999991,0,0,-0.999991,73973.9,65982)"
font-family="MS Shell Dlg 2" font-size="10.3125" font-weight="400" font-style="normal" 
>
</g>

<g fill="#ae5151" fill-opacity="0.2" stroke="#333333" stroke-opacity="1" stroke-width="1" stroke-linecap="round" stroke-linejoin="round" transform="matrix(0.999991,0,0,-0.999991,73973.9,65982)"
font-family="MS Shell Dlg 2" font-size="10.3125" font-weight="400" font-style="normal" 
>
<path vector-effect="non-scaling-stroke" fill-rule="evenodd" d="M-4197.89,55839.5 L-3849.67,56034.3 L4583.37,60750.3 L5663.97,58818 L5664,58817.9 L5664.03,58817.9 L5664.07,58817.9 L5664.11,58817.9 L5994.96,59002.9 L7064.81,57089.9 L6733.96,56904.8 L6733.93,56904.8 L6733.91,56904.8 L6733.91,56904.7 L6733.92,56904.7 L7803.87,54991.4 L7803.9,54991.4 L7803.93,54991.4 L7803.97,54991.4 L7804.01,54991.4 L8134.86,55176.4 L9204.71,53263.3 L8873.86,53078.3 L8873.83,53078.3 L8873.81,53078.3 L8873.81,53078.2 L8873.82,53078.2 L9944.68,51163.3 L1254.57,46858.4 L1248.39,46877.5 L1248.38,46877.5 L1248.36,46877.5 L1248.32,46877.5 L1248.28,46877.5 L1248.25,46877.5 L917.396,46692.5 L-101.507,48514.5 L229.344,48699.5 L229.374,48699.5 L229.392,48699.6 L229.395,48699.6 L229.383,48699.6 L-2848,54202.5 L-2848.02,54202.6 L-2848.06,54202.6 L-2848.1,54202.6 L-2848.13,54202.6 L-3178.98,54017.6 L-4197.89,55839.5"/>
</g>

<g fill="none" stroke="#000000" stroke-opacity="1" stroke-width="1" stroke-linecap="square" stroke-linejoin="bevel" transform="matrix(0.999991,0,0,-0.999991,73973.9,65982)"
font-family="MS Shell Dlg 2" font-size="10.3125" font-weight="400" font-style="normal" 
>
</g>

<g fill="none" stroke="#000000" stroke-opacity="1" stroke-width="1" stroke-linecap="square" stroke-linejoin="bevel" transform="matrix(0.999991,0,0,-0.999991,73973.9,65982)"
font-family="MS Shell Dlg 2" font-size="10.3125" font-weight="400" font-style="normal" 
>
</g>

<g fill="#ae5151" fill-opacity="0.2" stroke="#333333" stroke-opacity="1" stroke-width="1" stroke-linecap="round" stroke-linejoin="round" transform="matrix(0.999991,0,0,-0.999991,73973.9,65982)"
font-family="MS Shell Dlg 2" font-size="10.3125" font-weight="400" font-style="normal" 
>
<path vector-effect="non-scaling-stroke" fill-rule="evenodd" d="M-60416,53686 L-59294.1,55569 L-58968.4,55375 L-58968.4,55375 L-58968.4,55375 L-58968.3,55375 L-58968.3,55375.1 L-57846.3,57258.3 L-57846.3,57258.3 L-57846.3,57258.4 L-57846.4,57258.4 L-57846.4,57258.4 L-58172,57452.5 L-57050.2,59335.5 L-56724.5,59141.5 L-56724.5,59141.5 L-56724.5,59141.5 L-56724.4,59141.5 L-56724.4,59141.5 L-55601.5,61026.4 L-47528.3,55653 L-47541.7,55638.1 L-47541.7,55638.1 L-47541.7,55638 L-47541.7,55638 L-47541.7,55638 L-47541.7,55637.9 L-47216,55443.9 L-48284.5,53650.5 L-48610.1,53844.5 L-48610.1,53844.6 L-48610.2,53844.6 L-48610.2,53844.5 L-48610.2,53844.5 L-51837.2,48428 L-51837.2,48427.9 L-51837.2,48427.9 L-51837.2,48427.9 L-51837.2,48427.8 L-51511.5,48233.8 L-52579.9,46440.4 L-52922.7,46644.6 L-61223.4,51589.9 L-60090.3,53491.8 L-60090.2,53491.9 L-60090.3,53491.9 L-60090.3,53491.9 L-60090.3,53492 L-60416,53686"/>
</g>

<g fill="none" stroke="#000000" stroke-opacity="1" stroke-width="1" stroke-linecap="square" stroke-linejoin="bevel" transform="matrix(0.999991,0,0,-0.999991,73973.9,65982)"
font-family="MS Shell Dlg 2" font-size="10.3125" font-weight="400" font-style="normal" 
>
</g>

<g fill="none" stroke="#000000" stroke-opacity="1" stroke-width="1" stroke-linecap="square" stroke-linejoin="bevel" transform="matrix(0.999991,0,0,-0.999991,73973.9,65982)"
font-family="MS Shell Dlg 2" font-size="10.3125" font-weight="400" font-style="normal" 
>
</g>

<g fill="#ffff00" fill-opacity="0.2" stroke="#333333" stroke-opacity="1" stroke-width="1" stroke-linecap="round" stroke-linejoin="round" transform="matrix(0.999991,0,0,-0.999991,73973.9,65982)"
font-family="MS Shell Dlg 2" font-size="10.3125" font-weight="400" font-style="normal" 
>
<path vector-effect="non-scaling-stroke" fill-rule="evenodd" d="M-61926.3,52008.6 L-61887.2,52074.3 L-61887.2,52074.3 L-61887.2,52074.4 L-61887.2,52074.4 L-61887.2,52074.4 L-66897.2,56450.7 L-73974.1,65981.3 L-62440.6,64823.2 L-56301.7,61449.8 L-56301.7,61449.8 L-56301.7,61449.8 L-56301.6,61449.8 L-56301.6,61449.8 L-56294.2,61462.3 L-55574.3,61033.4 L-55585,61015.5 L-55585,61015.5 L-55585,61015.4 L-55585,61015.4 L-55584.9,61015.4 L-47528.3,55653 L-47541.7,55638.1 L-47541.7,55638.1 L-47541.7,55638 L-47541.7,55638 L-47541.7,55638 L-47541.7,55637.9 L-46855.9,55229.4 L-46855.9,55229.4 L-46855.8,55229.4 L-46855.8,55229.4 L-46855.8,55229.4 L-46855.8,55229.4 L-46850.1,55245.4 L-38490.6,50733.3 L-38490.6,50733.3 L-38490.5,50733.3 L-38490.5,50733.3 L-38490.5,50733.3 L-38485.1,50742.7 L-37758.3,50325.7 L-37763.8,50316.1 L-37763.8,50316.1 L-37763.8,50316 L-37763.8,50316 L-37763.7,50316 L-25675.7,42946.7 L-25675.6,42946.7 L-25675.6,42946.7 L-25675.6,42946.7 L-13593.2,50268.5 L-13593.2,50268.5 L-13593.1,50268.5 L-13593.1,50268.6 L-13593.1,50268.6 L-13597,50275.2 L-12889.6,50686.2 L-12889.6,50686.2 L-12889.6,50686.2 L-12889.5,50686.3 L-12889.6,50686.3 L-12889.6,50686.3 L-12891.8,50688.9 L-4576.05,55616 L-4576.02,55616.1 L-4576,55616.1 L-4576,55616.1 L-4576.01,55616.2 L-4581.08,55625.2 L-3849.67,56034.3 L4583.46,60750.3 L5297.5,61149.6 L5334.82,61082.9 L5334.84,61082.9 L5334.87,61082.8 L5334.9,61082.8 L5334.94,61082.8 L11629.9,63233.5 L23422.1,64597 L16652.4,55187.7 L10661.5,51558 L10661.5,51558 L10661.5,51558 L10661.5,51557.9 L10661.5,51557.9 L10668.6,51545.2 L9937.18,51136.2 L9927,51154.4 L9926.98,51154.5 L9926.94,51154.5 L9926.9,51154.5 L9926.87,51154.5 L1254.57,46858.4 L1248.39,46877.5 L1248.38,46877.5 L1248.36,46877.5 L1248.32,46877.5 L1248.28,46877.5 L1248.25,46877.5 L551.535,46487.9 L551.502,46487.9 L551.485,46487.8 L551.487,46487.8 L551.507,46487.7 L562.529,46474.8 L-7524.82,41491.4 L-7524.85,41491.4 L-7524.86,41491.3 L-7524.86,41491.3 L-7524.85,41491.2 L-7519.44,41481.9 L-8244.01,41061 L-8249.55,41070.5 L-8249.58,41070.6 L-8249.61,41070.6 L-8249.65,41070.6 L-8249.68,41070.6 L-20675.7,34286.6 L-20675.7,34286.6 L-20675.7,34286.6 L-20675.7,34286.5 L-20376.1,20162 L-20376.1,20162 L-20376.1,20161.9 L-20376,20161.9 L-20376,20161.9 L-20368.3,20161.9 L-20366.1,19343.8 L-20366.1,19343.8 L-20366.1,19343.7 L-20366.1,19343.7 L-20366,19343.7 L-20362.7,19344.4 L-20253.5,9679.13 L-20253.5,9679.09 L-20253.5,9679.06 L-20253.5,9679.04 L-20253.4,9679.03 L-20243,9678.89 L-20254.5,8840.96 L-20386.9,-820.366 L-20398.1,-1638.4 L-20474.5,-1637.35 L-20474.6,-1637.36 L-20474.6,-1637.38 L-20474.6,-1637.4 L-20474.6,-1637.43 L-21759.5,-8164.34 L-26474.9,-19058.4 L-31238.7,-8491.12 L-31386.6,-1487.97 L-31386.7,-1487.93 L-31386.7,-1487.9 L-31386.7,-1487.88 L-31386.7,-1487.87 L-31401.2,-1487.67 L-31389.8,-649.783 L-31368.9,-650.068 L-31368.9,-650.062 L-31368.8,-650.042 L-31368.8,-650.011 L-31368.8,-649.975 L-30753.2,9008.49 L-30733.6,9004.31 L-30733.6,9004.31 L-30733.5,9004.31 L-30733.5,9004.34 L-30733.5,9004.37 L-30733.4,9004.41 L-30722.5,9802.59 L-30722.5,9802.63 L-30722.6,9802.66 L-30722.6,9802.69 L-30722.6,9802.69 L-30739.3,9799.6 L-31011.5,19295.2 L-31011.5,19295.2 L-31011.5,19295.2 L-31011.5,19295.3 L-31011.6,19295.3 L-31022.3,19295.2 L-31024.6,20133.2 L-31013.6,20133.2 L-31013.5,20133.2 L-31013.5,20133.3 L-31013.5,20133.3 L-31013.5,20133.3 L-30675.5,34286.5 L-30675.5,34286.6 L-30675.6,34286.6 L-30675.6,34286.6 L-43057.6,41089.4 L-43057.6,41089.4 L-43057.7,41089.4 L-43057.7,41089.4 L-43057.7,41089.4 L-43061.5,41082.7 L-43771.2,41489.9 L-43771.2,41489.9 L-43771.2,41489.9 L-43771.3,41489.9 L-43771.3,41489.8 L-43771.3,41489.8 L-43772.4,41486.6 L-52197.3,46224.7 L-52197.4,46224.7 L-52197.4,46224.7 L-52197.4,46224.7 L-52197.5,46224.6 L-52202.8,46215.7 L-52922.7,46644.6 L-61223.5,51589.9 L-61926.3,52008.6 M7430.81,57294.4 L7430.78,57294.4 L7430.75,57294.5 L7430.71,57294.5 L7430.67,57294.5 L6733.96,56904.8 L6733.93,56904.8 L6733.91,56904.8 L6733.91,56904.7 L6733.92,56904.7 L7803.87,54991.4 L7803.9,54991.4 L7803.93,54991.4 L7803.97,54991.4 L7804.01,54991.4 L8500.72,55381 L8500.75,55381 L8500.77,55381.1 L8500.77,55381.1 L8500.76,55381.2 L7430.81,57294.4 M-1496.69,50150.3 L-1496.67,50150.3 L-1496.63,50150.2 L-1496.59,50150.2 L-1496.56,50150.3 L-799.846,50539.9 L-799.816,50539.9 L-799.798,50539.9 L-799.795,50540 L-799.807,50540 L-1818.81,52362.2 L-1818.83,52362.2 L-1818.87,52362.2 L-1818.91,52362.2 L-1818.94,52362.2 L-2515.66,51972.6 L-2515.68,51972.6 L-2515.7,51972.5 L-2515.71,51972.5 L-2515.69,51972.4 L-1496.69,50150.3 M-10370.2,44760.3 L-10370.2,44760.2 L-10370.2,44760.2 L-10370.1,44760.2 L-10370.1,44760.2 L-9679.87,45161.2 L-9679.84,45161.2 L-9679.83,45161.3 L-9679.82,45161.3 L-9679.84,45161.3 L-10746.2,46996.9 L-10746.2,46996.9 L-10746.3,46996.9 L-10746.3,46996.9 L-10746.3,46996.9 L-11436.6,46595.9 L-11436.6,46595.9 L-11436.6,46595.9 L-11436.6,46595.8 L-11436.6,46595.8 L-10370.2,44760.3 M-26526.7,9745.21 L-26526.7,9745.2 L-26526.7,9745.18 L-26526.8,9745.15 L-26526.8,9745.11 L-26537.7,8946.93 L-26537.7,8946.89 L-26537.7,8946.86 L-26537.7,8946.84 L-26537.6,8946.83 L-24450.1,8918.23 L-24450,8918.24 L-24450,8918.26 L-24450,8918.29 L-24450,8918.33 L-24439,9716.51 L-24439.1,9716.55 L-24439.1,9716.58 L-24439.1,9716.61 L-24439.1,9716.61 L-26526.7,9745.21 M-26757.8,20124.9 L-26757.9,20124.9 L-26757.9,20124.9 L-26757.9,20124.9 L-26757.9,20124.8 L-26755.8,19326.6 L-26755.8,19326.6 L-26755.7,19326.5 L-26755.7,19326.5 L-26755.7,19326.5 L-24632.9,19332.2 L-24632.8,19332.2 L-24632.8,19332.2 L-24632.8,19332.3 L-24632.8,19332.3 L-24634.9,20130.6 L-24634.9,20130.6 L-24634.9,20130.6 L-24635,20130.7 L-24635,20130.7 L-26757.8,20124.9 M-24803.4,-1558.3 L-24803.4,-1558.29 L-24803.4,-1558.27 L-24803.3,-1558.24 L-24803.3,-1558.2 L-24792.4,-760.016 L-24792.4,-759.977 L-24792.4,-759.945 L-24792.5,-759.923 L-24792.5,-759.914 L-26984.4,-729.888 L-26984.4,-729.895 L-26984.5,-729.917 L-26984.5,-729.949 L-26984.5,-729.987 L-26995.4,-1528.17 L-26995.4,-1528.21 L-26995.4,-1528.24 L-26995.4,-1528.26 L-26995.3,-1528.27 L-24803.4,-1558.3 M-39898.8,46634.7 L-39898.8,46634.7 L-39898.8,46634.7 L-39898.8,46634.8 L-39898.9,46634.8 L-40591.2,47032.1 L-40591.3,47032.1 L-40591.3,47032.1 L-40591.4,47032 L-40591.4,47032 L-41647.8,45190.8 L-41647.8,45190.7 L-41647.8,45190.7 L-41647.8,45190.6 L-41647.8,45190.6 L-40955.4,44793.4 L-40955.4,44793.3 L-40955.3,44793.3 L-40955.3,44793.4 L-40955.3,44793.4 L-39898.8,46634.7 M-49003.5,51624.4 L-49003.5,51624.4 L-49003.5,51624.4 L-49003.5,51624.5 L-49003.5,51624.5 L-49689.3,52033 L-49689.4,52033.1 L-49689.4,52033.1 L-49689.4,52033 L-49689.5,52033 L-50758,50239.5 L-50758,50239.4 L-50758,50239.4 L-50758,50239.3 L-50758,50239.3 L-50072.2,49830.8 L-50072.1,49830.7 L-50072.1,49830.7 L-50072.1,49830.8 L-50072,49830.8 L-49003.5,51624.4 M-59654.3,55783.7 L-59654.3,55783.7 L-59654.3,55783.7 L-59654.3,55783.6 L-59654.2,55783.6 L-58968.4,55375 L-58968.4,55375 L-58968.4,55375 L-58968.3,55375 L-58968.3,55375.1 L-57846.3,57258.3 L-57846.3,57258.3 L-57846.3,57258.4 L-57846.4,57258.4 L-57846.4,57258.4 L-58532.2,57667 L-58532.2,57667 L-58532.2,57667 L-58532.3,57667 L-58532.3,57667 L-59654.3,55783.7"/>
</g>

<g fill="none" stroke="#000000" stroke-opacity="1" stroke-width="1" stroke-linecap="square" stroke-linejoin="bevel" transform="matrix(0.999991,0,0,-0.999991,73973.9,65982)"
font-family="MS Shell Dlg 2" font-size="10.3125" font-weight="400" font-style="normal" 
>
</g>

<g fill="none" stroke="#000000" stroke-opacity="1" stroke-width="1" stroke-linecap="square" stroke-linejoin="bevel" transform="matrix(0.999991,0,0,-0.999991,73973.9,65982)"
font-family="MS Shell Dlg 2" font-size="10.3125" font-weight="400" font-style="normal" 
>
</g>

<g fill="#ffff00" fill-opacity="0.2" stroke="#333333" stroke-opacity="1" stroke-width="1" stroke-linecap="round" stroke-linejoin="round" transform="matrix(0.999991,0,0,-0.999991,73973.9,65982)"
font-family="MS Shell Dlg 2" font-size="10.3125" font-weight="400" font-style="normal" 
>
<path vector-effect="non-scaling-stroke" fill-rule="evenodd" d="M-58532.1,57666.6 L-58206.6,57472.7 L-58172.2,57452.2 L-57846.7,57258.3 L-58968.5,55375.4 L-59294,55569.3 L-59328.4,55589.8 L-59653.9,55783.8 L-58532.1,57666.6"/>
</g>

<g fill="none" stroke="#000000" stroke-opacity="1" stroke-width="1" stroke-linecap="square" stroke-linejoin="bevel" transform="matrix(0.999991,0,0,-0.999991,73973.9,65982)"
font-family="MS Shell Dlg 2" font-size="10.3125" font-weight="400" font-style="normal" 
>
</g>

<g fill="none" stroke="#000000" stroke-opacity="1" stroke-width="1" stroke-linecap="square" stroke-linejoin="bevel" transform="matrix(0.999991,0,0,-0.999991,73973.9,65982)"
font-family="MS Shell Dlg 2" font-size="10.3125" font-weight="400" font-style="normal" 
>
</g>

<g fill="#ae5151" fill-opacity="0.2" stroke="#333333" stroke-opacity="1" stroke-width="1" stroke-linecap="round" stroke-linejoin="round" transform="matrix(0.999991,0,0,-0.999991,73973.9,65982)"
font-family="MS Shell Dlg 2" font-size="10.3125" font-weight="400" font-style="normal" 
>
<path vector-effect="non-scaling-stroke" fill-rule="evenodd" d="M-29182,-1119.11 L-26990.2,-1149.13 L-26995.4,-1528.17 L-26995.4,-1528.21 L-26995.4,-1528.24 L-26995.4,-1528.26 L-26995.3,-1528.27 L-24803.4,-1558.3 L-24803.4,-1558.29 L-24803.4,-1558.27 L-24803.3,-1558.24 L-24803.3,-1558.2 L-24798.1,-1179.16 L-22606.4,-1209.18 L-22611.6,-1588.22 L-22611.6,-1588.26 L-22611.6,-1588.29 L-22611.6,-1588.31 L-22611.5,-1588.32 L-20470.7,-1617.65 L-21759.5,-8164.34 L-26474.9,-19058.4 L-31238.7,-8491.12 L-31387.1,-1468.11 L-29187.2,-1498.24 L-29187.2,-1498.24 L-29187.2,-1498.21 L-29187.2,-1498.18 L-29187.1,-1498.14 L-29182,-1119.11"/>
</g>

<g fill="none" stroke="#000000" stroke-opacity="1" stroke-width="1" stroke-linecap="square" stroke-linejoin="bevel" transform="matrix(0.999991,0,0,-0.999991,73973.9,65982)"
font-family="MS Shell Dlg 2" font-size="10.3125" font-weight="400" font-style="normal" 
>
</g>

<g fill="none" stroke="#000000" stroke-opacity="1" stroke-width="1" stroke-linecap="square" stroke-linejoin="bevel" transform="matrix(0.999991,0,0,-0.999991,73973.9,65982)"
font-family="MS Shell Dlg 2" font-size="10.3125" font-weight="400" font-style="normal" 
>
</g>

<g fill="#ae5151" fill-opacity="0.2" stroke="#333333" stroke-opacity="1" stroke-width="1" stroke-linecap="round" stroke-linejoin="round" transform="matrix(0.999991,0,0,-0.999991,73973.9,65982)"
font-family="MS Shell Dlg 2" font-size="10.3125" font-weight="400" font-style="normal" 
>
<path vector-effect="non-scaling-stroke" fill-rule="evenodd" d="M-31395.2,-1048.67 L-31389.8,-649.783 L-31368.9,-650.068 L-31368.9,-650.062 L-31368.8,-650.042 L-31368.8,-650.011 L-31368.8,-649.975 L-30753.2,9008.49 L-30733.6,9004.31 L-30733.6,9004.31 L-28625.1,8975.43 L-28625.1,8975.43 L-28625.1,8975.45 L-28625.1,8975.49 L-28625,8975.52 L-28619.9,9354.56 L-26532.5,9325.97 L-26537.7,8946.93 L-26537.7,8946.89 L-26537.7,8946.86 L-26537.7,8946.84 L-26537.6,8946.83 L-24450.1,8918.23 L-24450,8918.24 L-24450,8918.26 L-24450,8918.29 L-24450,8918.33 L-24444.8,9297.37 L-22357.5,9268.77 L-22362.7,8889.74 L-22362.6,8889.7 L-22362.6,8889.67 L-22362.6,8889.64 L-22362.6,8889.64 L-20254.2,8860.76 L-20386.9,-820.366 L-20392.1,-1199.4 L-22583.8,-1169.38 L-22578.6,-790.342 L-22578.6,-790.304 L-22578.6,-790.271 L-22578.6,-790.249 L-22578.7,-790.241 L-29198.2,-699.562 L-29198.3,-699.569 L-29198.3,-699.59 L-29198.3,-699.622 L-29198.3,-699.661 L-29203.5,-1078.7 L-31395.2,-1048.67"/>
</g>

<g fill="none" stroke="#000000" stroke-opacity="1" stroke-width="1" stroke-linecap="square" stroke-linejoin="bevel" transform="matrix(0.999991,0,0,-0.999991,73973.9,65982)"
font-family="MS Shell Dlg 2" font-size="10.3125" font-weight="400" font-style="normal" 
>
</g>

<g fill="none" stroke="#000000" stroke-opacity="1" stroke-width="1" stroke-linecap="square" stroke-linejoin="bevel" transform="matrix(0.999991,0,0,-0.999991,73973.9,65982)"
font-family="MS Shell Dlg 2" font-size="10.3125" font-weight="400" font-style="normal" 
>
</g>

<g fill="#ae5151" fill-opacity="0.2" stroke="#333333" stroke-opacity="1" stroke-width="1" stroke-linecap="round" stroke-linejoin="round" transform="matrix(0.999991,0,0,-0.999991,73973.9,65982)"
font-family="MS Shell Dlg 2" font-size="10.3125" font-weight="400" font-style="normal" 
>
<path vector-effect="non-scaling-stroke" fill-rule="evenodd" d="M-30727.7,9423.55 L-30722.5,9802.59 L-30722.5,9802.63 L-30722.6,9802.66 L-30722.6,9802.69 L-30722.6,9802.69 L-30739.3,9799.6 L-31012,19315 L-28878.5,19320.8 L-28878.4,19320.8 L-28878.4,19320.8 L-28878.4,19320.8 L-28878.4,19320.9 L-28879.4,19699.9 L-26756.8,19705.7 L-26755.8,19326.6 L-26755.8,19326.6 L-26755.7,19326.5 L-26755.7,19326.5 L-26755.7,19326.5 L-24632.9,19332.2 L-24632.8,19332.2 L-24632.8,19332.2 L-24632.8,19332.3 L-24632.8,19332.3 L-24633.8,19711.4 L-22511.2,19717.1 L-22510.2,19338 L-22510.2,19338 L-22510.1,19338 L-22510.1,19337.9 L-22510.1,19337.9 L-20366,19343.7 L-20366,19343.7 L-20362.7,19344.4 L-20253.5,9679.13 L-20253.5,9679.09 L-20253.5,9679.06 L-20253.5,9679.04 L-20253.4,9679.03 L-20243,9678.89 L-20248.5,9280 L-22335.8,9308.59 L-22330.6,9687.63 L-22330.7,9687.67 L-22330.7,9687.7 L-22330.7,9687.72 L-22330.7,9687.73 L-28635.1,9774.09 L-28635.1,9774.08 L-28635.2,9774.06 L-28635.2,9774.03 L-28635.2,9773.99 L-28640.4,9394.96 L-30727.7,9423.55"/>
</g>

<g fill="none" stroke="#000000" stroke-opacity="1" stroke-width="1" stroke-linecap="square" stroke-linejoin="bevel" transform="matrix(0.999991,0,0,-0.999991,73973.9,65982)"
font-family="MS Shell Dlg 2" font-size="10.3125" font-weight="400" font-style="normal" 
>
</g>

<g fill="none" stroke="#000000" stroke-opacity="1" stroke-width="1" stroke-linecap="square" stroke-linejoin="bevel" transform="matrix(0.999991,0,0,-0.999991,73973.9,65982)"
font-family="MS Shell Dlg 2" font-size="10.3125" font-weight="400" font-style="normal" 
>
</g>

<g fill="#ae5151" fill-opacity="0.2" stroke="#333333" stroke-opacity="1" stroke-width="1" stroke-linecap="round" stroke-linejoin="round" transform="matrix(0.999991,0,0,-0.999991,73973.9,65982)"
font-family="MS Shell Dlg 2" font-size="10.3125" font-weight="400" font-style="normal" 
>
<path vector-effect="non-scaling-stroke" fill-rule="evenodd" d="M6029.97,59022.5 L6360.82,59207.5 L6360.85,59207.6 L6360.87,59207.6 L6360.87,59207.6 L6360.86,59207.7 L5315.85,61076.3 L11629.9,63233.5 L23422.1,64597 L16652.4,55187.7 L10644.5,51547.7 L9570.71,53467.9 L9570.68,53467.9 L9570.65,53467.9 L9570.61,53467.9 L9570.57,53467.9 L9239.72,53282.9 L8169.87,55196 L8500.72,55381 L8500.75,55381 L8500.77,55381.1 L8500.77,55381.1 L8500.76,55381.2 L7430.81,57294.4 L7430.78,57294.4 L7430.75,57294.5 L7430.71,57294.5 L7430.67,57294.5 L7099.82,57109.4 L6029.97,59022.5"/>
</g>

<g fill="none" stroke="#000000" stroke-opacity="1" stroke-width="1" stroke-linecap="square" stroke-linejoin="bevel" transform="matrix(0.999991,0,0,-0.999991,73973.9,65982)"
font-family="MS Shell Dlg 2" font-size="10.3125" font-weight="400" font-style="normal" 
>
</g>

<g fill="none" stroke="#000000" stroke-opacity="1" stroke-width="1" stroke-linecap="square" stroke-linejoin="bevel" transform="matrix(0.999991,0,0,-0.999991,73973.9,65982)"
font-family="MS Shell Dlg 2" font-size="10.3125" font-weight="400" font-style="normal" 
>
</g>

<g fill="#ae5151" fill-opacity="0.2" stroke="#333333" stroke-opacity="1" stroke-width="1" stroke-linecap="round" stroke-linejoin="round" transform="matrix(0.999991,0,0,-0.999991,73973.9,65982)"
font-family="MS Shell Dlg 2" font-size="10.3125" font-weight="400" font-style="normal" 
>
<path vector-effect="non-scaling-stroke" fill-rule="evenodd" d="M-58532.1,57666.6 L-58206.6,57472.7 L-58172.2,57452.2 L-57846.7,57258.3 L-58968.5,55375.4 L-59294,55569.3 L-59328.4,55589.8 L-59653.9,55783.8 L-58532.1,57666.6"/>
</g>

<g fill="none" stroke="#000000" stroke-opacity="1" stroke-width="1" stroke-linecap="square" stroke-linejoin="bevel" transform="matrix(0.999991,0,0,-0.999991,73973.9,65982)"
font-family="MS Shell Dlg 2" font-size="10.3125" font-weight="400" font-style="normal" 
>
</g>

<g fill="none" stroke="#000000" stroke-opacity="1" stroke-width="1" stroke-linecap="square" stroke-linejoin="bevel" transform="matrix(0.999991,0,0,-0.999991,73973.9,65982)"
font-family="MS Shell Dlg 2" font-size="10.3125" font-weight="400" font-style="normal" 
>
</g>

<g fill="#ae5151" fill-opacity="0.2" stroke="#333333" stroke-opacity="1" stroke-width="1" stroke-linecap="round" stroke-linejoin="round" transform="matrix(0.999991,0,0,-0.999991,73973.9,65982)"
font-family="MS Shell Dlg 2" font-size="10.3125" font-weight="400" font-style="normal" 
>
<path vector-effect="non-scaling-stroke" fill-rule="evenodd" d="M-60450.4,53706.5 L-60776.1,53900.5 L-60776.1,53900.5 L-60776.2,53900.5 L-60776.2,53900.5 L-60776.2,53900.5 L-61872,52061.2 L-66897.2,56450.7 L-73974.1,65981.3 L-62440.6,64823.2 L-56284.3,61440.2 L-57410.3,59550.2 L-57410.4,59550.2 L-57410.4,59550.1 L-57410.3,59550.1 L-57410.3,59550.1 L-57084.6,59356 L-58206.5,57473 L-58532.2,57667 L-58532.2,57667 L-58532.2,57667 L-58532.3,57667 L-58532.3,57667 L-59654.3,55783.7 L-59654.3,55783.7 L-59654.3,55783.7 L-59654.3,55783.6 L-59654.2,55783.6 L-59328.6,55589.6 L-60450.4,53706.5"/>
</g>

<g fill="none" stroke="#000000" stroke-opacity="1" stroke-width="1" stroke-linecap="square" stroke-linejoin="bevel" transform="matrix(0.999991,0,0,-0.999991,73973.9,65982)"
font-family="MS Shell Dlg 2" font-size="10.3125" font-weight="400" font-style="normal" 
>
</g>

<g fill="none" stroke="#000000" stroke-opacity="1" stroke-width="1" stroke-linecap="square" stroke-linejoin="bevel" transform="matrix(0.999991,0,0,-0.999991,73973.9,65982)"
font-family="MS Shell Dlg 2" font-size="10.3125" font-weight="400" font-style="normal" 
>
</g>

<g fill="#ae5151" fill-opacity="0.2" stroke="#333333" stroke-opacity="1" stroke-width="1" stroke-linecap="round" stroke-linejoin="round" transform="matrix(0.999991,0,0,-0.999991,73973.9,65982)"
font-family="MS Shell Dlg 2" font-size="10.3125" font-weight="400" font-style="normal" 
>
<path vector-effect="non-scaling-stroke" fill-rule="evenodd" d="M-43407.6,41281.3 L-42351.2,43122.3 L-42022.4,42933.7 L-42022.4,42933.7 L-42022.3,42933.7 L-42022.3,42933.7 L-42022.3,42933.7 L-38831.8,48494.3 L-38831.8,48494.4 L-38831.8,48494.4 L-38831.8,48494.4 L-38831.9,48494.5 L-39160.6,48683.1 L-38104.3,50524.2 L-37758.3,50325.7 L-37763.8,50316.1 L-37763.8,50316.1 L-37763.8,50316 L-37763.8,50316 L-37763.7,50316 L-25675.7,42946.7 L-25675.6,42946.7 L-25675.6,42946.7 L-25675.6,42946.7 L-13593.2,50268.5 L-13593.2,50268.5 L-13593.1,50268.5 L-13593.1,50268.6 L-13593.1,50268.6 L-13597,50275.2 L-13252.1,50475.6 L-12185.8,48640.2 L-12513.6,48449.8 L-12513.6,48449.8 L-12513.6,48449.8 L-12513.6,48449.7 L-12513.6,48449.7 L-9293.23,42906.4 L-9293.2,42906.3 L-9293.17,42906.3 L-9293.13,42906.3 L-9293.09,42906.3 L-8965.32,43096.7 L-7899.06,41261.4 L-8244.01,41061 L-8249.55,41070.5 L-8249.58,41070.6 L-8249.61,41070.6 L-8249.65,41070.6 L-8249.68,41070.6 L-20675.7,34286.6 L-20675.7,34286.6 L-20675.7,34286.6 L-20675.7,34286.5 L-20376.1,20162 L-20376.1,20162 L-20376.1,20161.9 L-20376,20161.9 L-20376,20161.9 L-20368.3,20161.9 L-20367.3,19763 L-22489.9,19757.3 L-22490.9,20136.3 L-22490.9,20136.4 L-22490.9,20136.4 L-22490.9,20136.4 L-22491,20136.4 L-28901.8,20119.2 L-28901.9,20119.2 L-28901.9,20119.1 L-28901.9,20119.1 L-28901.9,20119.1 L-28900.9,19740 L-31023.5,19734.3 L-31024.6,20133.2 L-31013.6,20133.2 L-31013.5,20133.2 L-31013.5,20133.3 L-31013.5,20133.3 L-31013.5,20133.3 L-30675.5,34286.5 L-30675.5,34286.6 L-30675.6,34286.6 L-30675.6,34286.6 L-43057.6,41089.4 L-43057.6,41089.4 L-43057.7,41089.4 L-43057.7,41089.4 L-43057.7,41089.4 L-43061.5,41082.7 L-43407.6,41281.3"/>
</g>

<g fill="none" stroke="#000000" stroke-opacity="1" stroke-width="1" stroke-linecap="square" stroke-linejoin="bevel" transform="matrix(0.999991,0,0,-0.999991,73973.9,65982)"
font-family="MS Shell Dlg 2" font-size="10.3125" font-weight="400" font-style="normal" 
>
</g>

<g fill="none" stroke="#000000" stroke-opacity="1" stroke-width="1" stroke-linecap="square" stroke-linejoin="bevel" transform="matrix(0.999991,0,0,-0.999991,73973.9,65982)"
font-family="MS Shell Dlg 2" font-size="10.3125" font-weight="400" font-style="normal" 
>
</g>

<g fill="#ae5151" fill-opacity="0.2" stroke="#333333" stroke-opacity="1" stroke-width="1" stroke-linecap="round" stroke-linejoin="round" transform="matrix(0.999991,0,0,-0.999991,73973.9,65982)"
font-family="MS Shell Dlg 2" font-size="10.3125" font-weight="400" font-style="normal" 
>
<path vector-effect="non-scaling-stroke" fill-rule="evenodd" d="M-52545.5,46419.9 L-51477.1,48213.3 L-51151.4,48019.3 L-51151.4,48019.3 L-51151.3,48019.3 L-51151.3,48019.3 L-51151.3,48019.3 L-47924.3,53435.8 L-47924.3,53435.9 L-47924.3,53435.9 L-47924.3,53436 L-47924.3,53436 L-48250,53630 L-47181.6,55423.4 L-46855.9,55229.4 L-46855.9,55229.4 L-46855.8,55229.4 L-46855.8,55229.4 L-46855.8,55229.4 L-46855.8,55229.4 L-46850.1,55245.4 L-38473.1,50723.9 L-39534.9,48873.3 L-39535,48873.2 L-39534.9,48873.2 L-39534.9,48873.2 L-39534.9,48873.1 L-39206.1,48684.5 L-40262.5,46843.4 L-40591.2,47032.1 L-40591.3,47032.1 L-40591.3,47032.1 L-40591.4,47032 L-40591.4,47032 L-41647.8,45190.8 L-41647.8,45190.7 L-41647.8,45190.7 L-41647.8,45190.6 L-41647.8,45190.6 L-41319,45002 L-42375.3,43160.9 L-42704.1,43349.5 L-42704.2,43349.5 L-42704.2,43349.5 L-42704.3,43349.5 L-42704.3,43349.5 L-43771.3,41489.8 L-43771.3,41489.8 L-43772.4,41486.6 L-52197.3,46224.7 L-52197.4,46224.7 L-52197.4,46224.7 L-52197.4,46224.7 L-52197.5,46224.6 L-52202.8,46215.7 L-52545.5,46419.9"/>
</g>

<g fill="none" stroke="#000000" stroke-opacity="1" stroke-width="1" stroke-linecap="square" stroke-linejoin="bevel" transform="matrix(0.999991,0,0,-0.999991,73973.9,65982)"
font-family="MS Shell Dlg 2" font-size="10.3125" font-weight="400" font-style="normal" 
>
</g>

<g fill="none" stroke="#000000" stroke-opacity="1" stroke-width="1" stroke-linecap="square" stroke-linejoin="bevel" transform="matrix(0.999991,0,0,-0.999991,73973.9,65982)"
font-family="MS Shell Dlg 2" font-size="10.3125" font-weight="400" font-style="normal" 
>
</g>

<g fill="#ae5151" fill-opacity="0.2" stroke="#333333" stroke-opacity="1" stroke-width="1" stroke-linecap="round" stroke-linejoin="round" transform="matrix(0.999991,0,0,-0.999991,73973.9,65982)"
font-family="MS Shell Dlg 2" font-size="10.3125" font-weight="400" font-style="normal" 
>
<path vector-effect="non-scaling-stroke" fill-rule="evenodd" d="M-12140.4,48641.9 L-11812.6,48832.3 L-11812.5,48832.3 L-11812.5,48832.3 L-11812.5,48832.4 L-11812.5,48832.4 L-12889.6,50686.3 L-12889.6,50686.3 L-12891.8,50688.9 L-4576.05,55616 L-4576.02,55616.1 L-4576,55616.1 L-4576,55616.1 L-4576.01,55616.2 L-4581.08,55625.2 L-4232.9,55820 L-3213.99,53998 L-3544.85,53813 L-3544.87,53812.9 L-3544.89,53812.9 L-3544.9,53812.9 L-3544.88,53812.8 L-467.504,48309.9 L-467.478,48309.9 L-467.444,48309.9 L-467.405,48309.9 L-467.368,48309.9 L-136.517,48494.9 L882.386,46672.9 L551.535,46487.9 L551.502,46487.9 L551.485,46487.8 L551.487,46487.8 L551.507,46487.7 L562.529,46474.8 L-7541.73,41481 L-8613.48,43325.8 L-8613.51,43325.8 L-8613.55,43325.9 L-8613.58,43325.9 L-8613.62,43325.8 L-8941.4,43135.4 L-10007.6,44970.8 L-9679.87,45161.2 L-9679.84,45161.2 L-9679.83,45161.3 L-9679.82,45161.3 L-9679.84,45161.3 L-10746.2,46996.9 L-10746.2,46996.9 L-10746.3,46996.9 L-10746.3,46996.9 L-10746.3,46996.9 L-11074.1,46806.5 L-12140.4,48641.9"/>
</g>

<g fill="none" stroke="#000000" stroke-opacity="1" stroke-width="1" stroke-linecap="square" stroke-linejoin="bevel" transform="matrix(0.999991,0,0,-0.999991,73973.9,65982)"
font-family="MS Shell Dlg 2" font-size="10.3125" font-weight="400" font-style="normal" 
>
</g>

<g fill="none" stroke="#000000" stroke-opacity="1" stroke-width="1" stroke-linecap="square" stroke-linejoin="bevel" transform="matrix(0.999991,0,0,-0.999991,73973.9,65982)"
font-family="MS Shell Dlg 2" font-size="10.3125" font-weight="400" font-style="normal" 
>
</g>

<g fill="#ae5151" fill-opacity="0.2" stroke="#333333" stroke-opacity="1" stroke-width="1" stroke-linecap="round" stroke-linejoin="round" transform="matrix(0.999991,0,0,-0.999991,73973.9,65982)"
font-family="MS Shell Dlg 2" font-size="10.3125" font-weight="400" font-style="normal" 
>
<path vector-effect="non-scaling-stroke" fill-rule="evenodd" d="M-3168.7,53999.2 L-2837.85,54184.2 L-2837.82,54184.2 L-2837.8,54184.2 L-2837.8,54184.3 L-2837.81,54184.3 L-3866.95,56024.6 L4583.46,60750.3 L4914.31,60935.3 L5984.16,59022.2 L5653.31,58837.2 L5653.28,58837.2 L5653.26,58837.2 L5653.26,58837.1 L5653.27,58837.1 L8884.52,53059 L8884.55,53059 L8884.58,53059 L8884.62,53059 L8884.66,53059 L9215.51,53244 L10285.4,51330.9 L9937.18,51136.2 L9927,51154.4 L9926.98,51154.5 L9926.94,51154.5 L9926.9,51154.5 L9926.87,51154.5 L1254.57,46858.4 L1248.39,46877.5 L1248.38,46877.5 L219.193,48717.9 L219.168,48717.9 L219.133,48717.9 L219.094,48717.9 L219.057,48717.9 L-111.794,48532.9 L-1130.7,50354.9 L-799.846,50539.9 L-799.816,50539.9 L-799.798,50539.9 L-799.795,50540 L-799.807,50540 L-1818.81,52362.2 L-1818.83,52362.2 L-1818.87,52362.2 L-1818.91,52362.2 L-1818.94,52362.2 L-2149.79,52177.2 L-3168.7,53999.2"/>
</g>

<g fill="none" stroke="#000000" stroke-opacity="1" stroke-width="1" stroke-linecap="square" stroke-linejoin="bevel" transform="matrix(0.999991,0,0,-0.999991,73973.9,65982)"
font-family="MS Shell Dlg 2" font-size="10.3125" font-weight="400" font-style="normal" 
>
</g>

<g fill="none" stroke="#000000" stroke-opacity="1" stroke-width="1" stroke-linecap="square" stroke-linejoin="bevel" transform="matrix(0.999991,0,0,-0.999991,73973.9,65982)"
font-family="MS Shell Dlg 2" font-size="10.3125" font-weight="400" font-style="normal" 
>
</g>

<g fill="#ae5151" fill-opacity="0.2" stroke="#333333" stroke-opacity="1" stroke-width="1" stroke-linecap="round" stroke-linejoin="round" transform="matrix(0.999991,0,0,-0.999991,73973.9,65982)"
font-family="MS Shell Dlg 2" font-size="10.3125" font-weight="400" font-style="normal" 
>
<path vector-effect="non-scaling-stroke" fill-rule="evenodd" d="M-61549.1,51783.9 L-60427.3,53667 L-60101.6,53473 L-60101.6,53473 L-60101.5,53473 L-60101.5,53473 L-60101.5,53473 L-56713.2,59160.4 L-56713.2,59160.4 L-56713.2,59160.4 L-56713.2,59160.5 L-56713.2,59160.5 L-57038.9,59354.5 L-55917,61237.6 L-55574.3,61033.4 L-55585,61015.5 L-55585,61015.5 L-55585,61015.4 L-55585,61015.4 L-55584.9,61015.4 L-47528.3,55653 L-47541.7,55638.1 L-47541.7,55638.1 L-48620.9,53826.6 L-48620.9,53826.5 L-48620.9,53826.5 L-48620.9,53826.5 L-48620.9,53826.4 L-48295.2,53632.4 L-49363.7,51839 L-49689.3,52033 L-49689.4,52033.1 L-49689.4,52033.1 L-49689.4,52033 L-49689.5,52033 L-50758,50239.5 L-50758,50239.4 L-50758,50239.4 L-50758,50239.3 L-50758,50239.3 L-50432.3,50045.3 L-51500.7,48251.9 L-51826.4,48445.9 L-51826.4,48445.9 L-51826.5,48445.9 L-51826.5,48445.9 L-51826.5,48445.9 L-52905.7,46634.5 L-61223.5,51589.9 L-61549.1,51783.9"/>
</g>

<g fill="none" stroke="#000000" stroke-opacity="1" stroke-width="1" stroke-linecap="square" stroke-linejoin="bevel" transform="matrix(0.999991,0,0,-0.999991,73973.9,65982)"
font-family="MS Shell Dlg 2" font-size="10.3125" font-weight="400" font-style="normal" 
>
</g>

<g fill="none" stroke="#000000" stroke-opacity="1" stroke-width="1" stroke-linecap="square" stroke-linejoin="bevel" transform="matrix(0.999991,0,0,-0.999991,73973.9,65982)"
font-family="MS Shell Dlg 2" font-size="10.3125" font-weight="400" font-style="normal" 
>
</g>

<g fill="#333333" fill-opacity="0.2" stroke="#333333" stroke-opacity="1" stroke-width="1" stroke-linecap="round" stroke-linejoin="round" transform="matrix(0.999991,0,0,-0.999991,73973.9,65982)"
font-family="MS Shell Dlg 2" font-size="10.3125" font-weight="400" font-style="normal" 
>
<path vector-effect="non-scaling-stroke" fill-rule="evenodd" d="M-29182,-1119.11 L-26990.2,-1149.13 L-26995.4,-1528.17 L-26995.4,-1528.21 L-26995.4,-1528.24 L-26995.4,-1528.26 L-26995.3,-1528.27 L-24803.4,-1558.3 L-24803.4,-1558.29 L-24803.4,-1558.27 L-24803.3,-1558.24 L-24803.3,-1558.2 L-24798.1,-1179.16 L-22606.4,-1209.18 L-22611.6,-1588.22 L-22611.6,-1588.26 L-22611.6,-1588.29 L-22611.6,-1588.31 L-22611.5,-1588.32 L-20470.7,-1617.65 L-21759.5,-8164.34 L-26474.9,-19058.4 L-31238.7,-8491.12 L-31387.1,-1468.11 L-29187.2,-1498.24 L-29187.2,-1498.24 L-29187.2,-1498.21 L-29187.2,-1498.18 L-29187.1,-1498.14 L-29182,-1119.11"/>
</g>

<g fill="none" stroke="#000000" stroke-opacity="1" stroke-width="1" stroke-linecap="square" stroke-linejoin="bevel" transform="matrix(0.999991,0,0,-0.999991,73973.9,65982)"
font-family="MS Shell Dlg 2" font-size="10.3125" font-weight="400" font-style="normal" 
>
</g>

<g fill="none" stroke="#000000" stroke-opacity="1" stroke-width="1" stroke-linecap="square" stroke-linejoin="bevel" transform="matrix(0.999991,0,0,-0.999991,73973.9,65982)"
font-family="MS Shell Dlg 2" font-size="10.3125" font-weight="400" font-style="normal" 
>
</g>

<g fill="#333333" fill-opacity="0.2" stroke="#333333" stroke-opacity="1" stroke-width="1" stroke-linecap="round" stroke-linejoin="round" transform="matrix(0.999991,0,0,-0.999991,73973.9,65982)"
font-family="MS Shell Dlg 2" font-size="10.3125" font-weight="400" font-style="normal" 
>
<path vector-effect="non-scaling-stroke" fill-rule="evenodd" d="M-31395.2,-1048.67 L-31389.8,-649.783 L-31368.9,-650.068 L-31368.9,-650.062 L-31368.8,-650.042 L-31368.8,-650.011 L-31368.8,-649.975 L-30753.2,9008.49 L-30733.6,9004.31 L-30733.6,9004.31 L-28625.1,8975.43 L-28625.1,8975.43 L-28625.1,8975.45 L-28625.1,8975.49 L-28625,8975.52 L-28619.9,9354.56 L-26532.5,9325.97 L-26537.7,8946.93 L-26537.7,8946.89 L-26537.7,8946.86 L-26537.7,8946.84 L-26537.6,8946.83 L-24450.1,8918.23 L-24450,8918.24 L-24450,8918.26 L-24450,8918.29 L-24450,8918.33 L-24444.8,9297.37 L-22357.5,9268.77 L-22362.7,8889.74 L-22362.6,8889.7 L-22362.6,8889.67 L-22362.6,8889.64 L-22362.6,8889.64 L-20254.2,8860.76 L-20386.9,-820.366 L-20392.1,-1199.4 L-22583.8,-1169.38 L-22578.6,-790.342 L-22578.6,-790.304 L-22578.6,-790.271 L-22578.6,-790.249 L-22578.7,-790.241 L-29198.2,-699.562 L-29198.3,-699.569 L-29198.3,-699.59 L-29198.3,-699.622 L-29198.3,-699.661 L-29203.5,-1078.7 L-31395.2,-1048.67"/>
</g>

<g fill="none" stroke="#000000" stroke-opacity="1" stroke-width="1" stroke-linecap="square" stroke-linejoin="bevel" transform="matrix(0.999991,0,0,-0.999991,73973.9,65982)"
font-family="MS Shell Dlg 2" font-size="10.3125" font-weight="400" font-style="normal" 
>
</g>

<g fill="none" stroke="#000000" stroke-opacity="1" stroke-width="1" stroke-linecap="square" stroke-linejoin="bevel" transform="matrix(0.999991,0,0,-0.999991,73973.9,65982)"
font-family="MS Shell Dlg 2" font-size="10.3125" font-weight="400" font-style="normal" 
>
</g>

<g fill="#333333" fill-opacity="0.2" stroke="#333333" stroke-opacity="1" stroke-width="1" stroke-linecap="round" stroke-linejoin="round" transform="matrix(0.999991,0,0,-0.999991,73973.9,65982)"
font-family="MS Shell Dlg 2" font-size="10.3125" font-weight="400" font-style="normal" 
>
<path vector-effect="non-scaling-stroke" fill-rule="evenodd" d="M-30727.7,9423.55 L-30722.5,9802.59 L-30722.5,9802.63 L-30722.6,9802.66 L-30722.6,9802.69 L-30722.6,9802.69 L-30739.3,9799.6 L-31012,19315 L-28878.5,19320.8 L-28878.4,19320.8 L-28878.4,19320.8 L-28878.4,19320.8 L-28878.4,19320.9 L-28879.4,19699.9 L-26756.8,19705.7 L-26755.8,19326.6 L-26755.8,19326.6 L-26755.7,19326.5 L-26755.7,19326.5 L-26755.7,19326.5 L-24632.9,19332.2 L-24632.8,19332.2 L-24632.8,19332.2 L-24632.8,19332.3 L-24632.8,19332.3 L-24633.8,19711.4 L-22511.2,19717.1 L-22510.2,19338 L-22510.2,19338 L-22510.1,19338 L-22510.1,19337.9 L-22510.1,19337.9 L-20366,19343.7 L-20366,19343.7 L-20362.7,19344.4 L-20253.5,9679.13 L-20253.5,9679.09 L-20253.5,9679.06 L-20253.5,9679.04 L-20253.4,9679.03 L-20243,9678.89 L-20248.5,9280 L-22335.8,9308.59 L-22330.6,9687.63 L-22330.7,9687.67 L-22330.7,9687.7 L-22330.7,9687.72 L-22330.7,9687.73 L-28635.1,9774.09 L-28635.1,9774.08 L-28635.2,9774.06 L-28635.2,9774.03 L-28635.2,9773.99 L-28640.4,9394.96 L-30727.7,9423.55"/>
</g>

<g fill="none" stroke="#000000" stroke-opacity="1" stroke-width="1" stroke-linecap="square" stroke-linejoin="bevel" transform="matrix(0.999991,0,0,-0.999991,73973.9,65982)"
font-family="MS Shell Dlg 2" font-size="10.3125" font-weight="400" font-style="normal" 
>
</g>

<g fill="none" stroke="#000000" stroke-opacity="1" stroke-width="1" stroke-linecap="square" stroke-linejoin="bevel" transform="matrix(0.999991,0,0,-0.999991,73973.9,65982)"
font-family="MS Shell Dlg 2" font-size="10.3125" font-weight="400" font-style="normal" 
>
</g>

<g fill="#333333" fill-opacity="0.2" stroke="#333333" stroke-opacity="1" stroke-width="1" stroke-linecap="round" stroke-linejoin="round" transform="matrix(0.999991,0,0,-0.999991,73973.9,65982)"
font-family="MS Shell Dlg 2" font-size="10.3125" font-weight="400" font-style="normal" 
>
<path vector-effect="non-scaling-stroke" fill-rule="evenodd" d="M6029.97,59022.5 L6360.82,59207.5 L6360.85,59207.6 L6360.87,59207.6 L6360.87,59207.6 L6360.86,59207.7 L5315.85,61076.3 L11629.9,63233.5 L23422.1,64597 L16652.4,55187.7 L10644.5,51547.7 L9570.71,53467.9 L9570.68,53467.9 L9570.65,53467.9 L9570.61,53467.9 L9570.57,53467.9 L9239.72,53282.9 L8169.87,55196 L8500.72,55381 L8500.75,55381 L8500.77,55381.1 L8500.77,55381.1 L8500.76,55381.2 L7430.81,57294.4 L7430.78,57294.4 L7430.75,57294.5 L7430.71,57294.5 L7430.67,57294.5 L7099.82,57109.4 L6029.97,59022.5"/>
</g>

<g fill="none" stroke="#000000" stroke-opacity="1" stroke-width="1" stroke-linecap="square" stroke-linejoin="bevel" transform="matrix(0.999991,0,0,-0.999991,73973.9,65982)"
font-family="MS Shell Dlg 2" font-size="10.3125" font-weight="400" font-style="normal" 
>
</g>

<g fill="none" stroke="#000000" stroke-opacity="1" stroke-width="1" stroke-linecap="square" stroke-linejoin="bevel" transform="matrix(0.999991,0,0,-0.999991,73973.9,65982)"
font-family="MS Shell Dlg 2" font-size="10.3125" font-weight="400" font-style="normal" 
>
</g>

<g fill="#333333" fill-opacity="0.2" stroke="#333333" stroke-opacity="1" stroke-width="1" stroke-linecap="round" stroke-linejoin="round" transform="matrix(0.999991,0,0,-0.999991,73973.9,65982)"
font-family="MS Shell Dlg 2" font-size="10.3125" font-weight="400" font-style="normal" 
>
<path vector-effect="non-scaling-stroke" fill-rule="evenodd" d="M-58532.1,57666.6 L-58206.6,57472.7 L-58172.2,57452.2 L-57846.7,57258.3 L-58968.5,55375.4 L-59294,55569.3 L-59328.4,55589.8 L-59653.9,55783.8 L-58532.1,57666.6"/>
</g>

<g fill="none" stroke="#000000" stroke-opacity="1" stroke-width="1" stroke-linecap="square" stroke-linejoin="bevel" transform="matrix(0.999991,0,0,-0.999991,73973.9,65982)"
font-family="MS Shell Dlg 2" font-size="10.3125" font-weight="400" font-style="normal" 
>
</g>

<g fill="none" stroke="#000000" stroke-opacity="1" stroke-width="1" stroke-linecap="square" stroke-linejoin="bevel" transform="matrix(0.999991,0,0,-0.999991,73973.9,65982)"
font-family="MS Shell Dlg 2" font-size="10.3125" font-weight="400" font-style="normal" 
>
</g>

<g fill="#333333" fill-opacity="0.2" stroke="#333333" stroke-opacity="1" stroke-width="1" stroke-linecap="round" stroke-linejoin="round" transform="matrix(0.999991,0,0,-0.999991,73973.9,65982)"
font-family="MS Shell Dlg 2" font-size="10.3125" font-weight="400" font-style="normal" 
>
<path vector-effect="non-scaling-stroke" fill-rule="evenodd" d="M-60450.4,53706.5 L-60776.1,53900.5 L-60776.1,53900.5 L-60776.2,53900.5 L-60776.2,53900.5 L-60776.2,53900.5 L-61872,52061.2 L-66897.2,56450.7 L-73974.1,65981.3 L-62440.6,64823.2 L-56284.3,61440.2 L-57410.3,59550.2 L-57410.4,59550.2 L-57410.4,59550.1 L-57410.3,59550.1 L-57410.3,59550.1 L-57084.6,59356 L-58206.5,57473 L-58532.2,57667 L-58532.2,57667 L-58532.2,57667 L-58532.3,57667 L-58532.3,57667 L-59654.3,55783.7 L-59654.3,55783.7 L-59654.3,55783.7 L-59654.3,55783.6 L-59654.2,55783.6 L-59328.6,55589.6 L-60450.4,53706.5"/>
</g>

<g fill="none" stroke="#000000" stroke-opacity="1" stroke-width="1" stroke-linecap="square" stroke-linejoin="bevel" transform="matrix(0.999991,0,0,-0.999991,73973.9,65982)"
font-family="MS Shell Dlg 2" font-size="10.3125" font-weight="400" font-style="normal" 
>
</g>

<g fill="none" stroke="#000000" stroke-opacity="1" stroke-width="1" stroke-linecap="square" stroke-linejoin="bevel" transform="matrix(0.999991,0,0,-0.999991,73973.9,65982)"
font-family="MS Shell Dlg 2" font-size="10.3125" font-weight="400" font-style="normal" 
>
</g>

<g fill="#333333" fill-opacity="0.2" stroke="#333333" stroke-opacity="1" stroke-width="1" stroke-linecap="round" stroke-linejoin="round" transform="matrix(0.999991,0,0,-0.999991,73973.9,65982)"
font-family="MS Shell Dlg 2" font-size="10.3125" font-weight="400" font-style="normal" 
>
<path vector-effect="non-scaling-stroke" fill-rule="evenodd" d="M-43407.6,41281.3 L-42351.2,43122.3 L-42022.4,42933.7 L-42022.4,42933.7 L-42022.3,42933.7 L-42022.3,42933.7 L-42022.3,42933.7 L-38831.8,48494.3 L-38831.8,48494.4 L-38831.8,48494.4 L-38831.8,48494.4 L-38831.9,48494.5 L-39160.6,48683.1 L-38104.3,50524.2 L-37758.3,50325.7 L-37763.8,50316.1 L-37763.8,50316.1 L-37763.8,50316 L-37763.8,50316 L-37763.7,50316 L-25675.7,42946.7 L-25675.6,42946.7 L-25675.6,42946.7 L-25675.6,42946.7 L-13593.2,50268.5 L-13593.2,50268.5 L-13593.1,50268.5 L-13593.1,50268.6 L-13593.1,50268.6 L-13597,50275.2 L-13252.1,50475.6 L-12185.8,48640.2 L-12513.6,48449.8 L-12513.6,48449.8 L-12513.6,48449.8 L-12513.6,48449.7 L-12513.6,48449.7 L-9293.23,42906.4 L-9293.2,42906.3 L-9293.17,42906.3 L-9293.13,42906.3 L-9293.09,42906.3 L-8965.32,43096.7 L-7899.06,41261.4 L-8244.01,41061 L-8249.55,41070.5 L-8249.58,41070.6 L-8249.61,41070.6 L-8249.65,41070.6 L-8249.68,41070.6 L-20675.7,34286.6 L-20675.7,34286.6 L-20675.7,34286.6 L-20675.7,34286.5 L-20376.1,20162 L-20376.1,20162 L-20376.1,20161.9 L-20376,20161.9 L-20376,20161.9 L-20368.3,20161.9 L-20367.3,19763 L-22489.9,19757.3 L-22490.9,20136.3 L-22490.9,20136.4 L-22490.9,20136.4 L-22490.9,20136.4 L-22491,20136.4 L-28901.8,20119.2 L-28901.9,20119.2 L-28901.9,20119.1 L-28901.9,20119.1 L-28901.9,20119.1 L-28900.9,19740 L-31023.5,19734.3 L-31024.6,20133.2 L-31013.6,20133.2 L-31013.5,20133.2 L-31013.5,20133.3 L-31013.5,20133.3 L-31013.5,20133.3 L-30675.5,34286.5 L-30675.5,34286.6 L-30675.6,34286.6 L-30675.6,34286.6 L-43057.6,41089.4 L-43057.6,41089.4 L-43057.7,41089.4 L-43057.7,41089.4 L-43057.7,41089.4 L-43061.5,41082.7 L-43407.6,41281.3"/>
</g>

<g fill="none" stroke="#000000" stroke-opacity="1" stroke-width="1" stroke-linecap="square" stroke-linejoin="bevel" transform="matrix(0.999991,0,0,-0.999991,73973.9,65982)"
font-family="MS Shell Dlg 2" font-size="10.3125" font-weight="400" font-style="normal" 
>
</g>

<g fill="none" stroke="#000000" stroke-opacity="1" stroke-width="1" stroke-linecap="square" stroke-linejoin="bevel" transform="matrix(0.999991,0,0,-0.999991,73973.9,65982)"
font-family="MS Shell Dlg 2" font-size="10.3125" font-weight="400" font-style="normal" 
>
</g>

<g fill="#333333" fill-opacity="0.2" stroke="#333333" stroke-opacity="1" stroke-width="1" stroke-linecap="round" stroke-linejoin="round" transform="matrix(0.999991,0,0,-0.999991,73973.9,65982)"
font-family="MS Shell Dlg 2" font-size="10.3125" font-weight="400" font-style="normal" 
>
<path vector-effect="non-scaling-stroke" fill-rule="evenodd" d="M-52545.5,46419.9 L-51477.1,48213.3 L-51151.4,48019.3 L-51151.4,48019.3 L-51151.3,48019.3 L-51151.3,48019.3 L-51151.3,48019.3 L-47924.3,53435.8 L-47924.3,53435.9 L-47924.3,53435.9 L-47924.3,53436 L-47924.3,53436 L-48250,53630 L-47181.6,55423.4 L-46855.9,55229.4 L-46855.9,55229.4 L-46855.8,55229.4 L-46855.8,55229.4 L-46855.8,55229.4 L-46855.8,55229.4 L-46850.1,55245.4 L-38473.1,50723.9 L-39534.9,48873.3 L-39535,48873.2 L-39534.9,48873.2 L-39534.9,48873.2 L-39534.9,48873.1 L-39206.1,48684.5 L-40262.5,46843.4 L-40591.2,47032.1 L-40591.3,47032.1 L-40591.3,47032.1 L-40591.4,47032 L-40591.4,47032 L-41647.8,45190.8 L-41647.8,45190.7 L-41647.8,45190.7 L-41647.8,45190.6 L-41647.8,45190.6 L-41319,45002 L-42375.3,43160.9 L-42704.1,43349.5 L-42704.2,43349.5 L-42704.2,43349.5 L-42704.3,43349.5 L-42704.3,43349.5 L-43771.3,41489.8 L-43771.3,41489.8 L-43772.4,41486.6 L-52197.3,46224.7 L-52197.4,46224.7 L-52197.4,46224.7 L-52197.4,46224.7 L-52197.5,46224.6 L-52202.8,46215.7 L-52545.5,46419.9"/>
</g>

<g fill="none" stroke="#000000" stroke-opacity="1" stroke-width="1" stroke-linecap="square" stroke-linejoin="bevel" transform="matrix(0.999991,0,0,-0.999991,73973.9,65982)"
font-family="MS Shell Dlg 2" font-size="10.3125" font-weight="400" font-style="normal" 
>
</g>

<g fill="none" stroke="#000000" stroke-opacity="1" stroke-width="1" stroke-linecap="square" stroke-linejoin="bevel" transform="matrix(0.999991,0,0,-0.999991,73973.9,65982)"
font-family="MS Shell Dlg 2" font-size="10.3125" font-weight="400" font-style="normal" 
>
</g>

<g fill="#333333" fill-opacity="0.2" stroke="#333333" stroke-opacity="1" stroke-width="1" stroke-linecap="round" stroke-linejoin="round" transform="matrix(0.999991,0,0,-0.999991,73973.9,65982)"
font-family="MS Shell Dlg 2" font-size="10.3125" font-weight="400" font-style="normal" 
>
<path vector-effect="non-scaling-stroke" fill-rule="evenodd" d="M-12140.4,48641.9 L-11812.6,48832.3 L-11812.5,48832.3 L-11812.5,48832.3 L-11812.5,48832.4 L-11812.5,48832.4 L-12889.6,50686.3 L-12889.6,50686.3 L-12891.8,50688.9 L-4576.05,55616 L-4576.02,55616.1 L-4576,55616.1 L-4576,55616.1 L-4576.01,55616.2 L-4581.08,55625.2 L-4232.9,55820 L-3213.99,53998 L-3544.85,53813 L-3544.87,53812.9 L-3544.89,53812.9 L-3544.9,53812.9 L-3544.88,53812.8 L-467.504,48309.9 L-467.478,48309.9 L-467.444,48309.9 L-467.405,48309.9 L-467.368,48309.9 L-136.517,48494.9 L882.386,46672.9 L551.535,46487.9 L551.502,46487.9 L551.485,46487.8 L551.487,46487.8 L551.507,46487.7 L562.529,46474.8 L-7541.73,41481 L-8613.48,43325.8 L-8613.51,43325.8 L-8613.55,43325.9 L-8613.58,43325.9 L-8613.62,43325.8 L-8941.4,43135.4 L-10007.6,44970.8 L-9679.87,45161.2 L-9679.84,45161.2 L-9679.83,45161.3 L-9679.82,45161.3 L-9679.84,45161.3 L-10746.2,46996.9 L-10746.2,46996.9 L-10746.3,46996.9 L-10746.3,46996.9 L-10746.3,46996.9 L-11074.1,46806.5 L-12140.4,48641.9"/>
</g>

<g fill="none" stroke="#000000" stroke-opacity="1" stroke-width="1" stroke-linecap="square" stroke-linejoin="bevel" transform="matrix(0.999991,0,0,-0.999991,73973.9,65982)"
font-family="MS Shell Dlg 2" font-size="10.3125" font-weight="400" font-style="normal" 
>
</g>

<g fill="none" stroke="#000000" stroke-opacity="1" stroke-width="1" stroke-linecap="square" stroke-linejoin="bevel" transform="matrix(0.999991,0,0,-0.999991,73973.9,65982)"
font-family="MS Shell Dlg 2" font-size="10.3125" font-weight="400" font-style="normal" 
>
</g>

<g fill="#333333" fill-opacity="0.2" stroke="#333333" stroke-opacity="1" stroke-width="1" stroke-linecap="round" stroke-linejoin="round" transform="matrix(0.999991,0,0,-0.999991,73973.9,65982)"
font-family="MS Shell Dlg 2" font-size="10.3125" font-weight="400" font-style="normal" 
>
<path vector-effect="non-scaling-stroke" fill-rule="evenodd" d="M-3168.7,53999.2 L-2837.85,54184.2 L-2837.82,54184.2 L-2837.8,54184.2 L-2837.8,54184.3 L-2837.81,54184.3 L-3866.95,56024.6 L4583.46,60750.3 L4914.31,60935.3 L5984.16,59022.2 L5653.31,58837.2 L5653.28,58837.2 L5653.26,58837.2 L5653.26,58837.1 L5653.27,58837.1 L8884.52,53059 L8884.55,53059 L8884.58,53059 L8884.62,53059 L8884.66,53059 L9215.51,53244 L10285.4,51330.9 L9937.18,51136.2 L9927,51154.4 L9926.98,51154.5 L9926.94,51154.5 L9926.9,51154.5 L9926.87,51154.5 L1254.57,46858.4 L1248.39,46877.5 L1248.38,46877.5 L219.193,48717.9 L219.168,48717.9 L219.133,48717.9 L219.094,48717.9 L219.057,48717.9 L-111.794,48532.9 L-1130.7,50354.9 L-799.846,50539.9 L-799.816,50539.9 L-799.798,50539.9 L-799.795,50540 L-799.807,50540 L-1818.81,52362.2 L-1818.83,52362.2 L-1818.87,52362.2 L-1818.91,52362.2 L-1818.94,52362.2 L-2149.79,52177.2 L-3168.7,53999.2"/>
</g>

<g fill="none" stroke="#000000" stroke-opacity="1" stroke-width="1" stroke-linecap="square" stroke-linejoin="bevel" transform="matrix(0.999991,0,0,-0.999991,73973.9,65982)"
font-family="MS Shell Dlg 2" font-size="10.3125" font-weight="400" font-style="normal" 
>
</g>

<g fill="none" stroke="#000000" stroke-opacity="1" stroke-width="1" stroke-linecap="square" stroke-linejoin="bevel" transform="matrix(0.999991,0,0,-0.999991,73973.9,65982)"
font-family="MS Shell Dlg 2" font-size="10.3125" font-weight="400" font-style="normal" 
>
</g>

<g fill="#333333" fill-opacity="0.2" stroke="#333333" stroke-opacity="1" stroke-width="1" stroke-linecap="round" stroke-linejoin="round" transform="matrix(0.999991,0,0,-0.999991,73973.9,65982)"
font-family="MS Shell Dlg 2" font-size="10.3125" font-weight="400" font-style="normal" 
>
<path vector-effect="non-scaling-stroke" fill-rule="evenodd" d="M-61549.1,51783.9 L-60427.3,53667 L-60101.6,53473 L-60101.6,53473 L-60101.5,53473 L-60101.5,53473 L-60101.5,53473 L-56713.2,59160.4 L-56713.2,59160.4 L-56713.2,59160.4 L-56713.2,59160.5 L-56713.2,59160.5 L-57038.9,59354.5 L-55917,61237.6 L-55574.3,61033.4 L-55585,61015.5 L-55585,61015.5 L-55585,61015.4 L-55585,61015.4 L-55584.9,61015.4 L-47528.3,55653 L-47541.7,55638.1 L-47541.7,55638.1 L-48620.9,53826.6 L-48620.9,53826.5 L-48620.9,53826.5 L-48620.9,53826.5 L-48620.9,53826.4 L-48295.2,53632.4 L-49363.7,51839 L-49689.3,52033 L-49689.4,52033.1 L-49689.4,52033.1 L-49689.4,52033 L-49689.5,52033 L-50758,50239.5 L-50758,50239.4 L-50758,50239.4 L-50758,50239.3 L-50758,50239.3 L-50432.3,50045.3 L-51500.7,48251.9 L-51826.4,48445.9 L-51826.4,48445.9 L-51826.5,48445.9 L-51826.5,48445.9 L-51826.5,48445.9 L-52905.7,46634.5 L-61223.5,51589.9 L-61549.1,51783.9"/>
</g>

<g fill="none" stroke="#000000" stroke-opacity="1" stroke-width="1" stroke-linecap="square" stroke-linejoin="bevel" transform="matrix(0.999991,0,0,-0.999991,73973.9,65982)"
font-family="MS Shell Dlg 2" font-size="10.3125" font-weight="400" font-style="normal" 
>
</g>

<g fill="none" stroke="#000000" stroke-opacity="1" stroke-width="1" stroke-linecap="square" stroke-linejoin="bevel" transform="matrix(0.999991,0,0,-0.999991,73973.9,65982)"
font-family="MS Shell Dlg 2" font-size="10.3125" font-weight="400" font-style="normal" 
>
</g>

<g fill="#ae5151" fill-opacity="0.2" stroke="#333333" stroke-opacity="1" stroke-width="1" stroke-linecap="round" stroke-linejoin="round" transform="matrix(0.999991,0,0,-0.999991,73973.9,65982)"
font-family="MS Shell Dlg 2" font-size="10.3125" font-weight="400" font-style="normal" 
>
<path vector-effect="non-scaling-stroke" fill-rule="evenodd" d="M-43407.6,41281.3 L-42351.2,43122.3 L-42022.4,42933.7 L-42022.4,42933.7 L-42022.3,42933.7 L-42022.3,42933.7 L-42022.3,42933.7 L-38831.8,48494.3 L-38831.8,48494.4 L-38831.8,48494.4 L-38831.8,48494.4 L-38831.9,48494.5 L-39160.6,48683.1 L-38104.3,50524.2 L-37758.3,50325.7 L-37763.8,50316.1 L-37763.8,50316.1 L-37763.8,50316 L-37763.8,50316 L-37763.7,50316 L-27124.5,43829.9 L-27108.8,43492.8 L-27108.8,43492.8 L-27039.5,43261.1 L-27039.5,43261 L-26869.6,43089 L-26869.6,43089 L-25935.9,42519.8 L-25935.9,42519.8 L-25766.8,42455.1 L-25766.8,42455.1 L-25585.8,42454.8 L-25585.7,42454.8 L-25416.5,42519.1 L-25416.4,42519.1 L-24351.5,43164.5 L-24351.5,43164.5 L-24218.2,43282.1 L-24218.2,43282.2 L-24134.6,43439 L-24134.6,43439.1 L-24111.1,43615.3 L-24111.1,43615.3 L-24123.7,43887.1 L-13593.2,50268.5 L-13593.2,50268.5 L-13593.1,50268.5 L-13593.1,50268.6 L-13593.1,50268.6 L-13597,50275.2 L-13252.1,50475.6 L-12185.8,48640.2 L-12513.6,48449.8 L-12513.6,48449.8 L-12513.6,48449.8 L-12513.6,48449.7 L-12513.6,48449.7 L-9293.23,42906.4 L-9293.2,42906.3 L-9293.17,42906.3 L-9293.13,42906.3 L-9293.09,42906.3 L-8965.32,43096.7 L-7899.06,41261.4 L-8244.01,41061 L-8249.55,41070.5 L-8249.58,41070.6 L-8249.61,41070.6 L-8249.65,41070.6 L-8249.68,41070.6 L-19786.3,34772.2 L-20043,34923.7 L-20043,34923.7 L-20203.3,34984.3 L-20203.3,34984.3 L-20374.6,34987.2 L-20374.7,34987.2 L-20536.9,34932 L-20536.9,34932 L-20915.3,34725.5 L-20915.3,34725.5 L-21055.9,34611.4 L-21055.9,34611.4 L-21146.6,34454.7 L-21146.6,34454.7 L-21175.6,34275.9 L-21175.6,34275.9 L-21135,32359.2 L-21135,32359.2 L-21103,32193.7 L-21103,32193.6 L-21017.9,32048.2 L-21017.9,32048.1 L-20889.3,31939.2 L-20889.3,31939.2 L-20622.6,31781.7 L-20376.1,20162 L-20376.1,20162 L-20376.1,20161.9 L-20376,20161.9 L-20376,20161.9 L-20368.3,20161.9 L-20367.3,19763 L-22489.9,19757.3 L-22490.9,20136.3 L-22490.9,20136.4 L-22490.9,20136.4 L-22490.9,20136.4 L-22491,20136.4 L-28901.8,20119.2 L-28901.9,20119.2 L-28901.9,20119.1 L-28901.9,20119.1 L-28901.9,20119.1 L-28900.9,19740 L-31023.5,19734.3 L-31024.6,20133.2 L-31013.6,20133.2 L-31013.5,20133.2 L-31013.5,20133.3 L-31013.5,20133.3 L-31013.5,20133.3 L-30739.3,31613.7 L-30469.8,31774 L-30469.8,31774 L-30342.1,31882.6 L-30342.1,31882.7 L-30257.4,32027.4 L-30257.4,32027.4 L-30225.4,32191.9 L-30225.4,32191.9 L-30175.7,34274.6 L-30175.7,34274.6 L-30204.2,34453.4 L-30204.2,34453.4 L-30294.5,34610.3 L-30294.5,34610.4 L-30434.8,34724.8 L-30434.8,34724.8 L-30674.1,34856.3 L-30674.1,34856.3 L-30837.1,34912 L-30837.2,34912 L-31009.4,34909.1 L-31009.5,34909.1 L-31170.5,34847.9 L-31170.5,34847.8 L-31423.4,34697.5 L-43057.6,41089.4 L-43057.6,41089.4 L-43057.7,41089.4 L-43057.7,41089.4 L-43057.7,41089.4 L-43061.5,41082.7 L-43407.6,41281.3"/>
</g>

<g fill="none" stroke="#000000" stroke-opacity="1" stroke-width="1" stroke-linecap="square" stroke-linejoin="bevel" transform="matrix(0.999991,0,0,-0.999991,73973.9,65982)"
font-family="MS Shell Dlg 2" font-size="10.3125" font-weight="400" font-style="normal" 
>
</g>

<g fill="none" stroke="#000000" stroke-opacity="1" stroke-width="1" stroke-linecap="square" stroke-linejoin="bevel" transform="matrix(0.999991,0,0,-0.999991,73973.9,65982)"
font-family="MS Shell Dlg 2" font-size="10.3125" font-weight="400" font-style="normal" 
>
</g>

<g fill="#ae5151" fill-opacity="0.2" stroke="#333333" stroke-opacity="1" stroke-width="1" stroke-linecap="round" stroke-linejoin="round" transform="matrix(0.999991,0,0,-0.999991,73973.9,65982)"
font-family="MS Shell Dlg 2" font-size="10.3125" font-weight="400" font-style="normal" 
>
<path vector-effect="non-scaling-stroke" fill-rule="evenodd" d="M-58532.1,57666.6 L-58206.6,57472.7 L-58172.2,57452.2 L-57846.7,57258.3 L-58968.5,55375.4 L-59294,55569.3 L-59328.4,55589.8 L-59653.9,55783.8 L-58532.1,57666.6"/>
</g>

<g fill="none" stroke="#000000" stroke-opacity="1" stroke-width="1" stroke-linecap="square" stroke-linejoin="bevel" transform="matrix(0.999991,0,0,-0.999991,73973.9,65982)"
font-family="MS Shell Dlg 2" font-size="10.3125" font-weight="400" font-style="normal" 
>
</g>

<g fill="none" stroke="#000000" stroke-opacity="1" stroke-width="1" stroke-linecap="square" stroke-linejoin="bevel" transform="matrix(0.999991,0,0,-0.999991,73973.9,65982)"
font-family="MS Shell Dlg 2" font-size="10.3125" font-weight="400" font-style="normal" 
>
</g>

<g fill="#333333" fill-opacity="0.2" stroke="#333333" stroke-opacity="1" stroke-width="1" stroke-linecap="round" stroke-linejoin="round" transform="matrix(0.999991,0,0,-0.999991,73973.9,65982)"
font-family="MS Shell Dlg 2" font-size="10.3125" font-weight="400" font-style="normal" 
>
<path vector-effect="non-scaling-stroke" fill-rule="evenodd" d="M-59849.2,43993.7 L-50469.9,61189.2 L-4019.78,61412.5 L7146.07,46003.6 L-16748.9,2233.29 L-35284.3,2456.6 L-59849.2,43993.7 M-2859.49,42647.1 L-2859.46,42647.1 L-2680.18,42714.5 L-2680.16,42714.5 L-2620.54,42751.3 L-976.746,43764.2 L-976.73,43764.2 L-831.68,43899.9 L-831.657,43900 L-750.909,44081.5 L-750.9,44081.5 L-750.9,44081.5 L-749.404,44161.8 L-747.2,44280.1 L-747.2,44280.1 L-747.208,44280.2 L-796.496,44403.1 L-821.14,44464.5 L-821.15,44464.6 L-1370.52,45300.6 L-1370.53,45300.7 L-1504.41,45437.6 L-1504.44,45437.6 L-1679.99,45514.2 L-1680.03,45514.2 L-1871.49,45519.2 L-1871.53,45519.2 L-2050.8,45451.8 L-2050.82,45451.8 L-3754.24,44402.1 L-3754.25,44402.1 L-3778.11,44379.8 L-3899.3,44266.4 L-3899.32,44266.3 L-3948.48,44155.9 L-3957.39,44135.8 L-3980.07,44084.8 L-3980.08,44084.8 L-3983.78,43886.2 L-3983.77,43886.1 L-3909.84,43701.8 L-3909.83,43701.7 L-3360.47,42865.7 L-3360.45,42865.6 L-3226.57,42728.7 L-3226.54,42728.7 L-3050.99,42652.1 L-3050.95,42652.1 L-2859.49,42647.1 L-2859.49,42647.1 M-9045.73,52386.5 L-9045.71,52386.5 L-7323.21,53407.1 L-7323.2,53407.2 L-7174.53,53542.1 L-7174.51,53542.1 L-7090.91,53724.7 L-7090.9,53724.7 L-7085.85,53925.4 L-7085.86,53925.5 L-7160.18,54112 L-7160.19,54112 L-7709.92,54948.6 L-7709.93,54948.7 L-7842.03,55084.4 L-7842.06,55084.4 L-8015.16,55161.3 L-8015.2,55161.3 L-8204.46,55168.2 L-8204.5,55168.2 L-8382.78,55104.3 L-8382.79,55104.3 L-10105.3,54083.7 L-10105.3,54083.7 L-10254,53948.7 L-10254,53948.7 L-10337.6,53766.1 L-10337.6,53766.1 L-10342.7,53565.4 L-10342.6,53565.3 L-10268.3,53378.8 L-10268.3,53378.8 L-9718.59,52542.2 L-9718.58,52542.1 L-9586.48,52406.4 L-9586.45,52406.4 L-9413.35,52329.6 L-9413.31,52329.5 L-9224.04,52322.6 L-9224.01,52322.6 L-9045.73,52386.5 M-18797.5,13594.9 L-18797.5,13594.9 L-18820.1,15594.8 L-18820.1,15594.8 L-18859.9,15784.9 L-18860,15785 L-18969.3,15945.5 L-18969.3,15945.6 L-19131.6,16052.3 L-19131.6,16052.4 L-19322.4,16089.2 L-19322.4,16089.2 L-20322.4,16084.7 L-20322.4,16084.7 L-20514.4,16045.5 L-20514.4,16045.5 L-20676.5,15935.5 L-20676.6,15935.4 L-20784,15771.6 L-20784,15771.6 L-20820.2,15579 L-20820.2,15579 L-20797.6,13579.1 L-20797.6,13579 L-20757.7,13388.9 L-20757.7,13388.9 L-20648.4,13228.3 L-20648.3,13228.3 L-20486.1,13121.5 L-20486,13121.5 L-20295.3,13084.6 L-20295.3,13084.6 L-20295.3,13084.6 L-19295.3,13089.1 L-19295.3,13089.1 L-19103.3,13128.4 L-19103.3,13128.4 L-18941.1,13238.4 L-18941.1,13238.4 L-18833.7,13402.3 L-18833.7,13402.3 L-18797.5,13594.9 M-20536.9,34932 L-20536.9,34932 L-20915.3,34725.5 L-20915.3,34725.5 L-21055.9,34611.4 L-21055.9,34611.4 L-21146.6,34454.7 L-21146.6,34454.7 L-21175.6,34275.9 L-21175.6,34275.9 L-21135,32359.2 L-21135,32359.2 L-21103,32193.7 L-21103,32193.6 L-21017.9,32048.2 L-21017.9,32048.1 L-20889.3,31939.2 L-20889.3,31939.2 L-19876.4,31341 L-19876.3,31341 L-19676.2,31274.5 L-19676.1,31274.5 L-19466.3,31296.4 L-19466.3,31296.4 L-19284.2,31402.9 L-19284.2,31402.9 L-19162.2,31575.1 L-19162.2,31575.1 L-19122.1,31782.2 L-19122.1,31782.2 L-19156.5,33406.8 L-19055.2,33462.1 L-19055.1,33462.1 L-18896.5,33598.6 L-18896.5,33598.7 L-18807.6,33788.2 L-18807.6,33788.2 L-18804.1,33997.5 L-18804.1,33997.5 L-18886.5,34189.9 L-18886.5,34189.9 L-19040.5,34331.7 L-19040.5,34331.7 L-20043,34923.7 L-20043,34923.7 L-20203.3,34984.3 L-20203.3,34984.3 L-20374.6,34987.2 L-20374.7,34987.2 L-20536.9,34932 M-26869.6,43089 L-26869.6,43089 L-25935.9,42519.8 L-25935.9,42519.8 L-25766.8,42455.1 L-25766.8,42455.1 L-25585.8,42454.8 L-25585.7,42454.8 L-25416.5,42519.1 L-25416.4,42519.1 L-24351.5,43164.5 L-24351.5,43164.5 L-24218.2,43282.1 L-24218.2,43282.2 L-24134.6,43439 L-24134.6,43439.1 L-24111.1,43615.3 L-24111.1,43615.3 L-24163.8,44752.6 L-24163.8,44752.7 L-24215.3,44951.6 L-24215.3,44951.6 L-24342.4,45113 L-24342.5,45113 L-24523.8,45209.7 L-24523.8,45209.7 L-24728.7,45225.3 L-24728.7,45225.3 L-24922.5,45157.2 L-24922.5,45157.2 L-25673.3,44702.2 L-26404.8,45148.2 L-26404.8,45148.2 L-26572.3,45212.6 L-26572.3,45212.6 L-26751.7,45213.7 L-26751.8,45213.7 L-26920,45151.5 L-26920,45151.4 L-27055.5,45033.8 L-27055.5,45033.8 L-27140.7,44875.9 L-27140.7,44875.9 L-27164.7,44698.1 L-27164.7,44698 L-27164.7,44698 L-27108.8,43492.8 L-27108.8,43492.8 L-27039.5,43261.1 L-27039.5,43261 L-26869.6,43089 M-32196.7,33424.4 L-32240,31612.5 L-32240,31612.5 L-32200.2,31404.7 L-32200.2,31404.7 L-32078.1,31232 L-32078.1,31232 L-31895.5,31125.2 L-31895.4,31125.2 L-31685.1,31103.5 L-31685,31103.5 L-31484.5,31170.7 L-31484.5,31170.7 L-30469.8,31774 L-30469.8,31774 L-30342.1,31882.6 L-30342.1,31882.7 L-30257.4,32027.4 L-30257.4,32027.4 L-30225.4,32191.9 L-30225.4,32191.9 L-30175.7,34274.6 L-30175.7,34274.6 L-30204.2,34453.4 L-30204.2,34453.4 L-30294.5,34610.3 L-30294.5,34610.4 L-30434.8,34724.8 L-30434.8,34724.8 L-30674.1,34856.3 L-30674.1,34856.3 L-30837.1,34912 L-30837.2,34912 L-31009.4,34909.1 L-31009.5,34909.1 L-31170.5,34847.9 L-31170.5,34847.8 L-32167.9,34254.8 L-32167.9,34254.8 L-32321.1,34113 L-32321.1,34113 L-32403.1,33921 L-32403.1,33921 L-32399.5,33712.3 L-32399.5,33712.3 L-32311.1,33523.2 L-32311,33523.2 L-32196.7,33424.4 M-30346.7,13551.5 L-30346.6,13551.5 L-30404,15551.3 L-30404,15551.3 L-30446.3,15738.7 L-30446.3,15738.8 L-30556.1,15896.4 L-30556.2,15896.4 L-30717.3,16001 L-30717.4,16001 L-30906.1,16037 L-30906.1,16037.1 L-31906.4,16032.5 L-31906.4,16032.5 L-32100.4,15992.4 L-32100.4,15992.4 L-32263.6,15880.2 L-32263.6,15880.1 L-32370.4,15713.4 L-32370.4,15713.3 L-32404,15518.1 L-32404,15518.1 L-32346.7,13518.4 L-32346.7,13518.3 L-32304.4,13330.9 L-32304.4,13330.9 L-32194.6,13173.3 L-32194.5,13173.2 L-32033.3,13068.7 L-32033.3,13068.7 L-31844.6,13032.6 L-31844.6,13032.6 L-31844.6,13032.6 L-30844.3,13037.1 L-30844.3,13037.1 L-30650.3,13077.2 L-30650.3,13077.2 L-30487.1,13189.5 L-30487.1,13189.5 L-30380.3,13356.3 L-30380.3,13356.3 L-30346.7,13551.5 M-43531.3,52885.9 L-43531.3,52885.9 L-41769.3,51934.8 L-41769.3,51934.8 L-41588.8,51878.1 L-41588.7,51878.1 L-41400,51892.5 L-41400,51892.5 L-41230.1,51976 L-41230.1,51976.1 L-41103.5,52116.7 L-41103.5,52116.8 L-40586.7,52974.2 L-40586.7,52974.2 L-40519.6,53163.6 L-40519.6,53163.6 L-40532.5,53364.1 L-40532.6,53364.2 L-40623.4,53543.4 L-40623.4,53543.4 L-40777.4,53672.4 L-40777.4,53672.4 L-42539.4,54623.5 L-42539.4,54623.5 L-42720,54680.2 L-42720,54680.2 L-42908.7,54665.8 L-42908.8,54665.8 L-43078.6,54582.3 L-43078.6,54582.2 L-43205.2,54441.6 L-43205.2,54441.6 L-43722.1,53584.2 L-43722.1,53584.1 L-43789.1,53394.7 L-43789.1,53394.7 L-43776.2,53194.2 L-43776.2,53194.2 L-43685.4,53014.9 L-43685.4,53014.9 L-43531.3,52885.9 M-49506.4,42990.2 L-49506.4,42990.2 L-47762.3,42009.3 L-47762.3,42009.3 L-47580.6,41949.2 L-47580.6,41949.2 L-47389.6,41961.7 L-47389.6,41961.7 L-47217.3,42045.1 L-47217.3,42045.1 L-47088.9,42187.1 L-47088.9,42187.1 L-46572.4,43043.9 L-46572.4,43043.9 L-46505.7,43231.2 L-46505.7,43231.2 L-46517.2,43429.7 L-46517.2,43429.7 L-46605.1,43608 L-46605.1,43608 L-46755.6,43738 L-46755.6,43738 L-48499.6,44718.8 L-48499.6,44718.8 L-48681.3,44779 L-48681.4,44779 L-48872.3,44766.4 L-48872.4,44766.4 L-49044.7,44683.1 L-49044.7,44683.1 L-49173.1,44541.1 L-49173.1,44541.1 L-49689.5,43684.2 L-49689.6,43684.2 L-49756.3,43497 L-49756.3,43496.9 L-49744.8,43298.5 L-49744.8,43298.4 L-49656.9,43120.1 L-49656.8,43120.1 L-49506.4,42990.2"/>
</g>

<g fill="none" stroke="#000000" stroke-opacity="1" stroke-width="1" stroke-linecap="square" stroke-linejoin="bevel" transform="matrix(0.999991,0,0,-0.999991,73973.9,65982)"
font-family="MS Shell Dlg 2" font-size="10.3125" font-weight="400" font-style="normal" 
>
</g>

<g fill="none" stroke="#000000" stroke-opacity="1" stroke-width="1" stroke-linecap="square" stroke-linejoin="bevel" transform="matrix(0.999991,0,0,-0.999991,73973.9,65982)"
font-family="MS Shell Dlg 2" font-size="10.3125" font-weight="400" font-style="normal" 
>
</g>

<g fill="#333333" fill-opacity="0.2" stroke="#333333" stroke-opacity="1" stroke-width="1" stroke-linecap="round" stroke-linejoin="round" transform="matrix(0.999991,0,0,-0.999991,73973.9,65982)"
font-family="MS Shell Dlg 2" font-size="10.3125" font-weight="400" font-style="normal" 
>
<path vector-effect="non-scaling-stroke" fill-rule="evenodd" d="M-58532.1,57666.6 L-58206.6,57472.7 L-58172.2,57452.2 L-57846.7,57258.3 L-58968.5,55375.4 L-59294,55569.3 L-59328.4,55589.8 L-59653.9,55783.8 L-58532.1,57666.6"/>
</g>

<g fill="none" stroke="#000000" stroke-opacity="1" stroke-width="1" stroke-linecap="square" stroke-linejoin="bevel" transform="matrix(0.999991,0,0,-0.999991,73973.9,65982)"
font-family="MS Shell Dlg 2" font-size="10.3125" font-weight="400" font-style="normal" 
>
</g>

<g fill="none" stroke="#000000" stroke-opacity="1" stroke-width="1" stroke-linecap="square" stroke-linejoin="bevel" transform="matrix(1,0,0,-1,0,85040.8)"
font-family="MS Shell Dlg 2" font-size="10.3125" font-weight="400" font-style="normal" 
>
</g>
</g>
</svg>
