<?xml version="1.0" encoding="UTF-8" standalone="no"?>
<svg width="354.189mm" height="548.076mm"
 xmlns="http://www.w3.org/2000/svg" xmlns:xlink="http://www.w3.org/1999/xlink"  version="1.2" baseProfile="tiny">
<title>SVG Generator Example Drawing</title>
<desc>An SVG drawing created by the SVG Generator</desc>
<defs>
</defs>
<g fill="none" stroke="black" stroke-width="1" fill-rule="evenodd" stroke-linecap="square" stroke-linejoin="bevel" >

<g fill="none" stroke="#000000" stroke-opacity="1" stroke-width="1" stroke-linecap="square" stroke-linejoin="bevel" transform="matrix(1,0,0,-1,0,1942.82)"
font-family="MS Shell Dlg 2" font-size="10.3125" font-weight="400" font-style="normal" 
>
</g>

<g fill="none" stroke="#000000" stroke-opacity="1" stroke-width="1" stroke-linecap="square" stroke-linejoin="bevel" transform="matrix(1,0,0,-1,0,1942.82)"
font-family="MS Shell Dlg 2" font-size="10.3125" font-weight="400" font-style="normal" 
>
</g>

<g fill="none" stroke="#000000" stroke-opacity="1" stroke-width="1" stroke-linecap="square" stroke-linejoin="bevel" transform="matrix(0.999566,0,0,-0.999566,2879.25,2509.34)"
font-family="MS Shell Dlg 2" font-size="10.3125" font-weight="400" font-style="normal" 
>
</g>

<g fill="#333333" fill-opacity="0.2" stroke="#333333" stroke-opacity="1" stroke-width="1" stroke-linecap="round" stroke-linejoin="round" transform="matrix(0.999566,0,0,-0.999566,2879.25,2509.34)"
font-family="MS Shell Dlg 2" font-size="10.3125" font-weight="400" font-style="normal" 
>
<path vector-effect="non-scaling-stroke" fill-rule="evenodd" d="M-1625.45,567.273 L-2880,567.273 L-2880,2509.09 L-1625.45,2509.09 L-1625.45,567.273 M-2509.09,1254.55 L-2018.18,1145.45 L-1985.45,1690.91 L-2509.09,1680 L-2509.09,1254.55"/>
</g>

<g fill="none" stroke="#000000" stroke-opacity="1" stroke-width="1" stroke-linecap="square" stroke-linejoin="bevel" transform="matrix(0.999566,0,0,-0.999566,2879.25,2509.34)"
font-family="MS Shell Dlg 2" font-size="10.3125" font-weight="400" font-style="normal" 
>
</g>

<g fill="none" stroke="#000000" stroke-opacity="1" stroke-width="1" stroke-linecap="square" stroke-linejoin="bevel" transform="matrix(0.999566,0,0,-0.999566,2879.25,2509.34)"
font-family="MS Shell Dlg 2" font-size="10.3125" font-weight="400" font-style="normal" 
>
</g>

<g fill="#ae5151" fill-opacity="0.2" stroke="#333333" stroke-opacity="1" stroke-width="1" stroke-linecap="round" stroke-linejoin="round" transform="matrix(0.999566,0,0,-0.999566,2879.25,2509.34)"
font-family="MS Shell Dlg 2" font-size="10.3125" font-weight="400" font-style="normal" 
>
<path vector-effect="non-scaling-stroke" fill-rule="evenodd" d="M-1625.45,567.273 L-2880,567.273 L-2880,2509.09 L-1625.45,2509.09 L-1625.45,567.273 M-2509.09,1254.55 L-2018.18,1145.45 L-1985.45,1690.91 L-2509.09,1680 L-2509.09,1254.55"/>
</g>

<g fill="none" stroke="#000000" stroke-opacity="1" stroke-width="1" stroke-linecap="square" stroke-linejoin="bevel" transform="matrix(0.999566,0,0,-0.999566,2879.25,2509.34)"
font-family="MS Shell Dlg 2" font-size="10.3125" font-weight="400" font-style="normal" 
>
</g>

<g fill="none" stroke="#000000" stroke-opacity="1" stroke-width="1" stroke-linecap="square" stroke-linejoin="bevel" transform="matrix(0.999566,0,0,-0.999566,2879.25,2509.34)"
font-family="MS Shell Dlg 2" font-size="10.3125" font-weight="400" font-style="normal" 
>
</g>

<g fill="#ffff00" fill-opacity="0.2" stroke="#333333" stroke-opacity="1" stroke-width="1" stroke-linecap="round" stroke-linejoin="round" transform="matrix(0.999566,0,0,-0.999566,2879.25,2509.34)"
font-family="MS Shell Dlg 2" font-size="10.3125" font-weight="400" font-style="normal" 
>
<path vector-effect="non-scaling-stroke" fill-rule="evenodd" d="M-1721.56,1832.73 L-1723.78,1787.61 L-1730.41,1742.94 L-1741.38,1699.12 L-1756.6,1656.6 L-1775.91,1615.76 L-1799.13,1577.02 L-1826.04,1540.74 L-1856.37,1507.28 L-1889.84,1476.95 L-1926.11,1450.04 L-1964.86,1426.82 L-2002.36,1409.08 L-1985.45,1690.91 L-2509.09,1680 L-2509.09,1509.29 L-2537.6,1540.74 L-2564.51,1577.02 L-2587.73,1615.76 L-2607.04,1656.6 L-2622.25,1699.12 L-2633.23,1742.94 L-2639.86,1787.61 L-2642.07,1832.73 L-2639.86,1877.84 L-2633.23,1922.52 L-2622.25,1966.33 L-2607.04,2008.86 L-2587.73,2049.69 L-2564.51,2088.43 L-2537.6,2124.71 L-2507.27,2158.18 L-2473.8,2188.51 L-2437.52,2215.42 L-2398.78,2238.64 L-2357.95,2257.95 L-2315.42,2273.16 L-2271.61,2284.14 L-2226.93,2290.77 L-2181.82,2292.98 L-2136.71,2290.77 L-2092.03,2284.14 L-2048.21,2273.16 L-2005.69,2257.95 L-1964.86,2238.64 L-1926.11,2215.42 L-1889.84,2188.51 L-1856.37,2158.18 L-1826.04,2124.71 L-1799.13,2088.43 L-1775.91,2049.69 L-1756.6,2008.86 L-1741.38,1966.33 L-1730.41,1922.52 L-1723.78,1877.84 L-1721.56,1832.73"/>
</g>

<g fill="none" stroke="#000000" stroke-opacity="1" stroke-width="1" stroke-linecap="square" stroke-linejoin="bevel" transform="matrix(0.999566,0,0,-0.999566,2879.25,2509.34)"
font-family="MS Shell Dlg 2" font-size="10.3125" font-weight="400" font-style="normal" 
>
</g>

<g fill="none" stroke="#000000" stroke-opacity="1" stroke-width="1" stroke-linecap="square" stroke-linejoin="bevel" transform="matrix(0.999566,0,0,-0.999566,2879.25,2509.34)"
font-family="MS Shell Dlg 2" font-size="10.3125" font-weight="400" font-style="normal" 
>
</g>

<g fill="#ae5151" fill-opacity="0.2" stroke="#333333" stroke-opacity="1" stroke-width="1" stroke-linecap="round" stroke-linejoin="round" transform="matrix(0.999566,0,0,-0.999566,2879.25,2509.34)"
font-family="MS Shell Dlg 2" font-size="10.3125" font-weight="400" font-style="normal" 
>
<path vector-effect="non-scaling-stroke" fill-rule="evenodd" d="M-1721.56,1832.73 L-1723.78,1787.61 L-1730.41,1742.94 L-1741.38,1699.12 L-1756.6,1656.6 L-1775.91,1615.76 L-1799.13,1577.02 L-1826.04,1540.74 L-1856.37,1507.28 L-1889.84,1476.95 L-1926.11,1450.04 L-1964.86,1426.82 L-2002.36,1409.08 L-1985.45,1690.91 L-2509.09,1680 L-2509.09,1509.29 L-2537.6,1540.74 L-2564.51,1577.02 L-2587.73,1615.76 L-2607.04,1656.6 L-2622.25,1699.12 L-2633.23,1742.94 L-2639.86,1787.61 L-2642.07,1832.73 L-2639.86,1877.84 L-2633.23,1922.52 L-2622.25,1966.33 L-2607.04,2008.86 L-2587.73,2049.69 L-2564.51,2088.43 L-2537.6,2124.71 L-2507.27,2158.18 L-2473.8,2188.51 L-2437.52,2215.42 L-2398.78,2238.64 L-2357.95,2257.95 L-2315.42,2273.16 L-2271.61,2284.14 L-2226.93,2290.77 L-2181.82,2292.98 L-2136.71,2290.77 L-2092.03,2284.14 L-2048.21,2273.16 L-2005.69,2257.95 L-1964.86,2238.64 L-1926.11,2215.42 L-1889.84,2188.51 L-1856.37,2158.18 L-1826.04,2124.71 L-1799.13,2088.43 L-1775.91,2049.69 L-1756.6,2008.86 L-1741.38,1966.33 L-1730.41,1922.52 L-1723.78,1877.84 L-1721.56,1832.73"/>
</g>

<g fill="none" stroke="#000000" stroke-opacity="1" stroke-width="1" stroke-linecap="square" stroke-linejoin="bevel" transform="matrix(0.999566,0,0,-0.999566,2879.25,2509.34)"
font-family="MS Shell Dlg 2" font-size="10.3125" font-weight="400" font-style="normal" 
>
</g>

<g fill="none" stroke="#000000" stroke-opacity="1" stroke-width="1" stroke-linecap="square" stroke-linejoin="bevel" transform="matrix(0.999566,0,0,-0.999566,2879.25,2509.34)"
font-family="MS Shell Dlg 2" font-size="10.3125" font-weight="400" font-style="normal" 
>
</g>

<g fill="#333333" fill-opacity="0.2" stroke="#333333" stroke-opacity="1" stroke-width="1" stroke-linecap="round" stroke-linejoin="round" transform="matrix(0.999566,0,0,-0.999566,2879.25,2509.34)"
font-family="MS Shell Dlg 2" font-size="10.3125" font-weight="400" font-style="normal" 
>
<path vector-effect="non-scaling-stroke" fill-rule="evenodd" d="M-1721.56,1832.73 L-1723.78,1787.61 L-1730.41,1742.94 L-1741.38,1699.12 L-1756.6,1656.6 L-1775.91,1615.76 L-1799.13,1577.02 L-1826.04,1540.74 L-1856.37,1507.28 L-1889.84,1476.95 L-1926.11,1450.04 L-1964.86,1426.82 L-2002.36,1409.08 L-1985.45,1690.91 L-2509.09,1680 L-2509.09,1509.29 L-2537.6,1540.74 L-2564.51,1577.02 L-2587.73,1615.76 L-2607.04,1656.6 L-2622.25,1699.12 L-2633.23,1742.94 L-2639.86,1787.61 L-2642.07,1832.73 L-2639.86,1877.84 L-2633.23,1922.52 L-2622.25,1966.33 L-2607.04,2008.86 L-2587.73,2049.69 L-2564.51,2088.43 L-2537.6,2124.71 L-2507.27,2158.18 L-2473.8,2188.51 L-2437.52,2215.42 L-2398.78,2238.64 L-2357.95,2257.95 L-2315.42,2273.16 L-2271.61,2284.14 L-2226.93,2290.77 L-2181.82,2292.98 L-2136.71,2290.77 L-2092.03,2284.14 L-2048.21,2273.16 L-2005.69,2257.95 L-1964.86,2238.64 L-1926.11,2215.42 L-1889.84,2188.51 L-1856.37,2158.18 L-1826.04,2124.71 L-1799.13,2088.43 L-1775.91,2049.69 L-1756.6,2008.86 L-1741.38,1966.33 L-1730.41,1922.52 L-1723.78,1877.84 L-1721.56,1832.73"/>
</g>

<g fill="none" stroke="#000000" stroke-opacity="1" stroke-width="1" stroke-linecap="square" stroke-linejoin="bevel" transform="matrix(0.999566,0,0,-0.999566,2879.25,2509.34)"
font-family="MS Shell Dlg 2" font-size="10.3125" font-weight="400" font-style="normal" 
>
</g>

<g fill="none" stroke="#000000" stroke-opacity="1" stroke-width="1" stroke-linecap="square" stroke-linejoin="bevel" transform="matrix(1,0,0,-1,0,1942.82)"
font-family="MS Shell Dlg 2" font-size="10.3125" font-weight="400" font-style="normal" 
>
</g>
</g>
</svg>
