<?xml version="1.0" encoding="UTF-8" standalone="no"?>
<svg width="579.967mm" height="773.853mm"
 xmlns="http://www.w3.org/2000/svg" xmlns:xlink="http://www.w3.org/1999/xlink"  version="1.2" baseProfile="tiny">
<title>SVG Generator Example Drawing</title>
<desc>An SVG drawing created by the SVG Generator</desc>
<defs>
</defs>
<g fill="none" stroke="black" stroke-width="1" fill-rule="evenodd" stroke-linecap="square" stroke-linejoin="bevel" >

<g fill="none" stroke="#000000" stroke-opacity="1" stroke-width="1" stroke-linecap="square" stroke-linejoin="bevel" transform="matrix(1,0,0,-1,0,2742.82)"
font-family="MS Shell Dlg 2" font-size="10.3125" font-weight="400" font-style="normal" 
>
</g>

<g fill="none" stroke="#000000" stroke-opacity="1" stroke-width="1" stroke-linecap="square" stroke-linejoin="bevel" transform="matrix(1,0,0,-1,0,2742.82)"
font-family="MS Shell Dlg 2" font-size="10.3125" font-weight="400" font-style="normal" 
>
</g>

<g fill="none" stroke="#000000" stroke-opacity="1" stroke-width="1" stroke-linecap="square" stroke-linejoin="bevel" transform="matrix(0.999702,0,0,-0.999702,3279.52,2909.54)"
font-family="MS Shell Dlg 2" font-size="10.3125" font-weight="400" font-style="normal" 
>
</g>

<g fill="#333333" fill-opacity="0.2" stroke="#333333" stroke-opacity="1" stroke-width="1" stroke-linecap="round" stroke-linejoin="round" transform="matrix(0.999702,0,0,-0.999702,3279.52,2909.54)"
font-family="MS Shell Dlg 2" font-size="10.3125" font-weight="400" font-style="normal" 
>
<path vector-effect="non-scaling-stroke" fill-rule="evenodd" d="M-3280,167.273 L-3280,2909.09 L-1225.45,2909.09 L-1225.45,167.273 L-3280,167.273 M-1425.45,567.273 L-1425.45,2509.09 L-1440.68,2585.63 L-1484.03,2650.51 L-1548.92,2693.87 L-1625.45,2709.09 L-2880,2709.09 L-2956.54,2693.87 L-3021.42,2650.51 L-3064.78,2585.63 L-3080,2509.09 L-3080,567.273 L-3064.78,490.736 L-3021.42,425.851 L-2956.54,382.497 L-2880,367.273 L-1625.45,367.273 L-1548.92,382.497 L-1484.03,425.851 L-1440.68,490.736 L-1425.45,567.273"/>
</g>

<g fill="none" stroke="#000000" stroke-opacity="1" stroke-width="1" stroke-linecap="square" stroke-linejoin="bevel" transform="matrix(0.999702,0,0,-0.999702,3279.52,2909.54)"
font-family="MS Shell Dlg 2" font-size="10.3125" font-weight="400" font-style="normal" 
>
</g>

<g fill="none" stroke="#000000" stroke-opacity="1" stroke-width="1" stroke-linecap="square" stroke-linejoin="bevel" transform="matrix(0.999702,0,0,-0.999702,3279.52,2909.54)"
font-family="MS Shell Dlg 2" font-size="10.3125" font-weight="400" font-style="normal" 
>
</g>

<g fill="#ae5151" fill-opacity="0.2" stroke="#333333" stroke-opacity="1" stroke-width="1" stroke-linecap="round" stroke-linejoin="round" transform="matrix(0.999702,0,0,-0.999702,3279.52,2909.54)"
font-family="MS Shell Dlg 2" font-size="10.3125" font-weight="400" font-style="normal" 
>
<path vector-effect="non-scaling-stroke" fill-rule="evenodd" d="M-3280,167.273 L-3280,2909.09 L-1225.45,2909.09 L-1225.45,167.273 L-3280,167.273 M-1425.45,567.273 L-1425.45,2509.09 L-1440.68,2585.63 L-1484.03,2650.51 L-1548.92,2693.87 L-1625.45,2709.09 L-2880,2709.09 L-2956.54,2693.87 L-3021.42,2650.51 L-3064.78,2585.63 L-3080,2509.09 L-3080,567.273 L-3064.78,490.736 L-3021.42,425.851 L-2956.54,382.497 L-2880,367.273 L-1625.45,367.273 L-1548.92,382.497 L-1484.03,425.851 L-1440.68,490.736 L-1425.45,567.273"/>
</g>

<g fill="none" stroke="#000000" stroke-opacity="1" stroke-width="1" stroke-linecap="square" stroke-linejoin="bevel" transform="matrix(0.999702,0,0,-0.999702,3279.52,2909.54)"
font-family="MS Shell Dlg 2" font-size="10.3125" font-weight="400" font-style="normal" 
>
</g>

<g fill="none" stroke="#000000" stroke-opacity="1" stroke-width="1" stroke-linecap="square" stroke-linejoin="bevel" transform="matrix(0.999702,0,0,-0.999702,3279.52,2909.54)"
font-family="MS Shell Dlg 2" font-size="10.3125" font-weight="400" font-style="normal" 
>
</g>

<g fill="#ffff00" fill-opacity="0.2" stroke="#333333" stroke-opacity="1" stroke-width="1" stroke-linecap="round" stroke-linejoin="round" transform="matrix(0.999702,0,0,-0.999702,3279.52,2909.54)"
font-family="MS Shell Dlg 2" font-size="10.3125" font-weight="400" font-style="normal" 
>
<path vector-effect="non-scaling-stroke" fill-rule="evenodd" d="M-3280,167.273 L-3280,2909.09 L-1225.45,2909.09 L-1225.45,167.273 L-3280,167.273 M-1425.45,567.273 L-1425.45,2509.09 L-1440.68,2585.63 L-1484.03,2650.51 L-1548.92,2693.87 L-1625.45,2709.09 L-2880,2709.09 L-2956.54,2693.87 L-3021.42,2650.51 L-3064.78,2585.63 L-3080,2509.09 L-3080,567.273 L-3064.78,490.736 L-3021.42,425.851 L-2956.54,382.497 L-2880,367.273 L-1625.45,367.273 L-1548.92,382.497 L-1484.03,425.851 L-1440.68,490.736 L-1425.45,567.273"/>
</g>

<g fill="none" stroke="#000000" stroke-opacity="1" stroke-width="1" stroke-linecap="square" stroke-linejoin="bevel" transform="matrix(0.999702,0,0,-0.999702,3279.52,2909.54)"
font-family="MS Shell Dlg 2" font-size="10.3125" font-weight="400" font-style="normal" 
>
</g>

<g fill="none" stroke="#000000" stroke-opacity="1" stroke-width="1" stroke-linecap="square" stroke-linejoin="bevel" transform="matrix(0.999702,0,0,-0.999702,3279.52,2909.54)"
font-family="MS Shell Dlg 2" font-size="10.3125" font-weight="400" font-style="normal" 
>
</g>

<g fill="#ae5151" fill-opacity="0.2" stroke="#333333" stroke-opacity="1" stroke-width="1" stroke-linecap="round" stroke-linejoin="round" transform="matrix(0.999702,0,0,-0.999702,3279.52,2909.54)"
font-family="MS Shell Dlg 2" font-size="10.3125" font-weight="400" font-style="normal" 
>
<path vector-effect="non-scaling-stroke" fill-rule="evenodd" d="M-3280,167.273 L-3280,2909.09 L-1225.45,2909.09 L-1225.45,167.273 L-3280,167.273 M-1425.45,567.273 L-1425.45,2509.09 L-1440.68,2585.63 L-1484.03,2650.51 L-1548.92,2693.87 L-1625.45,2709.09 L-2880,2709.09 L-2956.54,2693.87 L-3021.42,2650.51 L-3064.78,2585.63 L-3080,2509.09 L-3080,567.273 L-3064.78,490.736 L-3021.42,425.851 L-2956.54,382.497 L-2880,367.273 L-1625.45,367.273 L-1548.92,382.497 L-1484.03,425.851 L-1440.68,490.736 L-1425.45,567.273"/>
</g>

<g fill="none" stroke="#000000" stroke-opacity="1" stroke-width="1" stroke-linecap="square" stroke-linejoin="bevel" transform="matrix(0.999702,0,0,-0.999702,3279.52,2909.54)"
font-family="MS Shell Dlg 2" font-size="10.3125" font-weight="400" font-style="normal" 
>
</g>

<g fill="none" stroke="#000000" stroke-opacity="1" stroke-width="1" stroke-linecap="square" stroke-linejoin="bevel" transform="matrix(0.999702,0,0,-0.999702,3279.52,2909.54)"
font-family="MS Shell Dlg 2" font-size="10.3125" font-weight="400" font-style="normal" 
>
</g>

<g fill="#333333" fill-opacity="0.2" stroke="#333333" stroke-opacity="1" stroke-width="1" stroke-linecap="round" stroke-linejoin="round" transform="matrix(0.999702,0,0,-0.999702,3279.52,2909.54)"
font-family="MS Shell Dlg 2" font-size="10.3125" font-weight="400" font-style="normal" 
>
<path vector-effect="non-scaling-stroke" fill-rule="evenodd" d="M-3280,167.273 L-3280,2909.09 L-1225.45,2909.09 L-1225.45,167.273 L-3280,167.273 M-1425.45,567.273 L-1425.45,2509.09 L-1440.68,2585.63 L-1484.03,2650.51 L-1548.92,2693.87 L-1625.45,2709.09 L-2880,2709.09 L-2956.54,2693.87 L-3021.42,2650.51 L-3064.78,2585.63 L-3080,2509.09 L-3080,567.273 L-3064.78,490.736 L-3021.42,425.851 L-2956.54,382.497 L-2880,367.273 L-1625.45,367.273 L-1548.92,382.497 L-1484.03,425.851 L-1440.68,490.736 L-1425.45,567.273"/>
</g>

<g fill="none" stroke="#000000" stroke-opacity="1" stroke-width="1" stroke-linecap="square" stroke-linejoin="bevel" transform="matrix(0.999702,0,0,-0.999702,3279.52,2909.54)"
font-family="MS Shell Dlg 2" font-size="10.3125" font-weight="400" font-style="normal" 
>
</g>

<g fill="none" stroke="#000000" stroke-opacity="1" stroke-width="1" stroke-linecap="square" stroke-linejoin="bevel" transform="matrix(1,0,0,-1,0,2742.82)"
font-family="MS Shell Dlg 2" font-size="10.3125" font-weight="400" font-style="normal" 
>
</g>
</g>
</svg>
