<?xml version="1.0" encoding="UTF-8" standalone="no"?>
<svg width="467.642mm" height="661.529mm"
 xmlns="http://www.w3.org/2000/svg" xmlns:xlink="http://www.w3.org/1999/xlink"  version="1.2" baseProfile="tiny">
<title>SVG Generator Example Drawing</title>
<desc>An SVG drawing created by the SVG Generator</desc>
<defs>
</defs>
<g fill="none" stroke="black" stroke-width="1" fill-rule="evenodd" stroke-linecap="square" stroke-linejoin="bevel" >

<g fill="none" stroke="#000000" stroke-opacity="1" stroke-width="1" stroke-linecap="square" stroke-linejoin="bevel" transform="matrix(1,0,0,-1,0,2344.82)"
font-family="MS Shell Dlg 2" font-size="10.3125" font-weight="400" font-style="normal" 
>
</g>

<g fill="none" stroke="#000000" stroke-opacity="1" stroke-width="1" stroke-linecap="square" stroke-linejoin="bevel" transform="matrix(1,0,0,-1,0,2344.82)"
font-family="MS Shell Dlg 2" font-size="10.3125" font-weight="400" font-style="normal" 
>
</g>

<g fill="none" stroke="#000000" stroke-opacity="1" stroke-width="1" stroke-linecap="square" stroke-linejoin="bevel" transform="matrix(0.999651,0,0,-0.999651,3080.42,2710.46)"
font-family="MS Shell Dlg 2" font-size="10.3125" font-weight="400" font-style="normal" 
>
</g>

<g fill="#333333" fill-opacity="0.2" stroke="#333333" stroke-opacity="1" stroke-width="1" stroke-linecap="round" stroke-linejoin="round" transform="matrix(0.999651,0,0,-0.999651,3080.42,2710.46)"
font-family="MS Shell Dlg 2" font-size="10.3125" font-weight="400" font-style="normal" 
>
<path vector-effect="non-scaling-stroke" fill-rule="evenodd" d="M-2509.31,1253.57 L-2509.71,1253.76 L-2509.99,1254.11 L-2510.09,1254.55 L-2510.09,1680 L-2510.02,1680.38 L-2509.81,1680.7 L-2509.49,1680.92 L-2509.11,1681 L-1985.48,1691.91 L-1985.07,1691.83 L-1984.73,1691.6 L-1984.52,1691.25 L-1984.46,1690.85 L-2001.37,1409.02 L-2017.18,1145.39 L-2017.3,1144.98 L-2017.58,1144.66 L-2017.97,1144.48 L-2018.4,1144.48 L-2509.31,1253.57 M-2308.09,1415.78 L-2204.7,1392.81 L-2203,1421.12 L-2199.15,1485.41 L-2308.09,1483.14 L-2308.09,1415.78"/>
</g>

<g fill="none" stroke="#000000" stroke-opacity="1" stroke-width="1" stroke-linecap="square" stroke-linejoin="bevel" transform="matrix(0.999651,0,0,-0.999651,3080.42,2710.46)"
font-family="MS Shell Dlg 2" font-size="10.3125" font-weight="400" font-style="normal" 
>
</g>

<g fill="none" stroke="#000000" stroke-opacity="1" stroke-width="1" stroke-linecap="square" stroke-linejoin="bevel" transform="matrix(0.999651,0,0,-0.999651,3080.42,2710.46)"
font-family="MS Shell Dlg 2" font-size="10.3125" font-weight="400" font-style="normal" 
>
</g>

<g fill="#333333" fill-opacity="0.2" stroke="#333333" stroke-opacity="1" stroke-width="1" stroke-linecap="round" stroke-linejoin="round" transform="matrix(0.999651,0,0,-0.999651,3080.42,2710.46)"
font-family="MS Shell Dlg 2" font-size="10.3125" font-weight="400" font-style="normal" 
>
<path vector-effect="non-scaling-stroke" fill-rule="evenodd" d="M-1424.45,567.273 L-1424.47,567.078 L-1439.7,490.541 L-1439.85,490.18 L-1483.2,425.296 L-1483.48,425.02 L-1548.36,381.665 L-1548.72,381.516 L-1625.26,366.292 L-1625.45,366.273 L-2880,366.273 L-2880.2,366.292 L-2956.73,381.516 L-2957.09,381.665 L-3021.98,425.02 L-3022.25,425.296 L-3065.61,490.18 L-3065.76,490.541 L-3080.98,567.078 L-3081,567.273 L-3081,2509.09 L-3080.98,2509.29 L-3065.76,2585.82 L-3065.61,2586.18 L-3022.25,2651.07 L-3021.98,2651.34 L-2957.09,2694.7 L-2956.73,2694.85 L-2880.2,2710.07 L-2880,2710.09 L-1625.45,2710.09 L-1625.26,2710.07 L-1548.72,2694.85 L-1548.36,2694.7 L-1483.48,2651.34 L-1483.2,2651.07 L-1439.85,2586.18 L-1439.7,2585.82 L-1424.47,2509.29 L-1424.45,2509.09 L-1424.45,567.273 M-1626.45,568.273 L-1626.45,2508.09 L-2879,2508.09 L-2879,568.273 L-1626.45,568.273"/>
</g>

<g fill="none" stroke="#000000" stroke-opacity="1" stroke-width="1" stroke-linecap="square" stroke-linejoin="bevel" transform="matrix(0.999651,0,0,-0.999651,3080.42,2710.46)"
font-family="MS Shell Dlg 2" font-size="10.3125" font-weight="400" font-style="normal" 
>
</g>

<g fill="none" stroke="#000000" stroke-opacity="1" stroke-width="1" stroke-linecap="square" stroke-linejoin="bevel" transform="matrix(0.999651,0,0,-0.999651,3080.42,2710.46)"
font-family="MS Shell Dlg 2" font-size="10.3125" font-weight="400" font-style="normal" 
>
</g>

<g fill="#ae5151" fill-opacity="0.2" stroke="#333333" stroke-opacity="1" stroke-width="1" stroke-linecap="round" stroke-linejoin="round" transform="matrix(0.999651,0,0,-0.999651,3080.42,2710.46)"
font-family="MS Shell Dlg 2" font-size="10.3125" font-weight="400" font-style="normal" 
>
<path vector-effect="non-scaling-stroke" fill-rule="evenodd" d="M-2509.31,1253.57 L-2509.71,1253.76 L-2509.99,1254.11 L-2510.09,1254.55 L-2510.09,1680 L-2510.02,1680.38 L-2509.81,1680.7 L-2509.49,1680.92 L-2509.11,1681 L-1985.48,1691.91 L-1985.07,1691.83 L-1984.73,1691.6 L-1984.52,1691.25 L-1984.46,1690.85 L-2001.37,1409.02 L-2017.18,1145.39 L-2017.3,1144.98 L-2017.58,1144.66 L-2017.97,1144.48 L-2018.4,1144.48 L-2509.31,1253.57 M-2308.09,1415.78 L-2204.7,1392.81 L-2203,1421.12 L-2199.15,1485.41 L-2308.09,1483.14 L-2308.09,1415.78"/>
</g>

<g fill="none" stroke="#000000" stroke-opacity="1" stroke-width="1" stroke-linecap="square" stroke-linejoin="bevel" transform="matrix(0.999651,0,0,-0.999651,3080.42,2710.46)"
font-family="MS Shell Dlg 2" font-size="10.3125" font-weight="400" font-style="normal" 
>
</g>

<g fill="none" stroke="#000000" stroke-opacity="1" stroke-width="1" stroke-linecap="square" stroke-linejoin="bevel" transform="matrix(0.999651,0,0,-0.999651,3080.42,2710.46)"
font-family="MS Shell Dlg 2" font-size="10.3125" font-weight="400" font-style="normal" 
>
</g>

<g fill="#ae5151" fill-opacity="0.2" stroke="#333333" stroke-opacity="1" stroke-width="1" stroke-linecap="round" stroke-linejoin="round" transform="matrix(0.999651,0,0,-0.999651,3080.42,2710.46)"
font-family="MS Shell Dlg 2" font-size="10.3125" font-weight="400" font-style="normal" 
>
<path vector-effect="non-scaling-stroke" fill-rule="evenodd" d="M-1424.45,567.273 L-1424.47,567.078 L-1439.7,490.541 L-1439.85,490.18 L-1483.2,425.296 L-1483.48,425.02 L-1548.36,381.665 L-1548.72,381.516 L-1625.26,366.292 L-1625.45,366.273 L-2880,366.273 L-2880.2,366.292 L-2956.73,381.516 L-2957.09,381.665 L-3021.98,425.02 L-3022.25,425.296 L-3065.61,490.18 L-3065.76,490.541 L-3080.98,567.078 L-3081,567.273 L-3081,2509.09 L-3080.98,2509.29 L-3065.76,2585.82 L-3065.61,2586.18 L-3022.25,2651.07 L-3021.98,2651.34 L-2957.09,2694.7 L-2956.73,2694.85 L-2880.2,2710.07 L-2880,2710.09 L-1625.45,2710.09 L-1625.26,2710.07 L-1548.72,2694.85 L-1548.36,2694.7 L-1483.48,2651.34 L-1483.2,2651.07 L-1439.85,2586.18 L-1439.7,2585.82 L-1424.47,2509.29 L-1424.45,2509.09 L-1424.45,567.273 M-1626.45,568.273 L-1626.45,2508.09 L-2879,2508.09 L-2879,568.273 L-1626.45,568.273"/>
</g>

<g fill="none" stroke="#000000" stroke-opacity="1" stroke-width="1" stroke-linecap="square" stroke-linejoin="bevel" transform="matrix(0.999651,0,0,-0.999651,3080.42,2710.46)"
font-family="MS Shell Dlg 2" font-size="10.3125" font-weight="400" font-style="normal" 
>
</g>

<g fill="none" stroke="#000000" stroke-opacity="1" stroke-width="1" stroke-linecap="square" stroke-linejoin="bevel" transform="matrix(0.999651,0,0,-0.999651,3080.42,2710.46)"
font-family="MS Shell Dlg 2" font-size="10.3125" font-weight="400" font-style="normal" 
>
</g>

<g fill="#ffff00" fill-opacity="0.2" stroke="#333333" stroke-opacity="1" stroke-width="1" stroke-linecap="round" stroke-linejoin="round" transform="matrix(0.999651,0,0,-0.999651,3080.42,2710.46)"
font-family="MS Shell Dlg 2" font-size="10.3125" font-weight="400" font-style="normal" 
>
<path vector-effect="non-scaling-stroke" fill-rule="evenodd" d="M-2510.07,1254.44 L-2510.09,1254.66 L-2510.09,1680 L-2510.02,1680.38 L-2509.81,1680.7 L-2509.49,1680.92 L-2509.11,1681 L-1985.48,1691.91 L-1985.07,1691.83 L-1984.73,1691.6 L-1984.52,1691.25 L-1984.46,1690.85 L-2001.37,1409.02 L-2017.18,1145.5 L-2017.21,1145.29 L-2017.24,1145.21 L-2017.44,1144.83 L-2017.78,1144.57 L-2018.2,1144.48 L-2018.29,1144.48 L-2018.5,1144.5 L-2035.84,1148.36 L-2509.2,1253.54 L-2509.41,1253.62 L-2509.5,1253.66 L-2509.85,1253.94 L-2510.04,1254.34 L-2510.07,1254.44 M-2308.09,1415.78 L-2204.7,1392.81 L-2203,1421.12 L-2199.15,1485.41 L-2308.09,1483.14 L-2308.09,1415.78"/>
</g>

<g fill="none" stroke="#000000" stroke-opacity="1" stroke-width="1" stroke-linecap="square" stroke-linejoin="bevel" transform="matrix(0.999651,0,0,-0.999651,3080.42,2710.46)"
font-family="MS Shell Dlg 2" font-size="10.3125" font-weight="400" font-style="normal" 
>
</g>

<g fill="none" stroke="#000000" stroke-opacity="1" stroke-width="1" stroke-linecap="square" stroke-linejoin="bevel" transform="matrix(0.999651,0,0,-0.999651,3080.42,2710.46)"
font-family="MS Shell Dlg 2" font-size="10.3125" font-weight="400" font-style="normal" 
>
</g>

<g fill="#ffff00" fill-opacity="0.2" stroke="#333333" stroke-opacity="1" stroke-width="1" stroke-linecap="round" stroke-linejoin="round" transform="matrix(0.999651,0,0,-0.999651,3080.42,2710.46)"
font-family="MS Shell Dlg 2" font-size="10.3125" font-weight="400" font-style="normal" 
>
<path vector-effect="non-scaling-stroke" fill-rule="evenodd" d="M-1424.45,567.273 L-1424.47,567.078 L-1439.7,490.541 L-1439.85,490.18 L-1483.2,425.296 L-1483.48,425.02 L-1548.36,381.665 L-1548.72,381.516 L-1625.26,366.292 L-1625.45,366.273 L-2880,366.273 L-2880.2,366.292 L-2956.73,381.516 L-2957.09,381.665 L-3021.98,425.02 L-3022.25,425.296 L-3065.61,490.18 L-3065.76,490.541 L-3080.98,567.078 L-3081,567.273 L-3081,2509.09 L-3080.98,2509.29 L-3065.76,2585.82 L-3065.61,2586.18 L-3022.25,2651.07 L-3021.98,2651.34 L-2957.09,2694.7 L-2956.73,2694.85 L-2880.2,2710.07 L-2880,2710.09 L-1625.45,2710.09 L-1625.26,2710.07 L-1548.72,2694.85 L-1548.36,2694.7 L-1483.48,2651.34 L-1483.2,2651.07 L-1439.85,2586.18 L-1439.7,2585.82 L-1424.47,2509.29 L-1424.45,2509.09 L-1424.45,567.273 M-1626.45,568.273 L-1626.45,2508.09 L-2879,2508.09 L-2879,568.273 L-1626.45,568.273"/>
</g>

<g fill="none" stroke="#000000" stroke-opacity="1" stroke-width="1" stroke-linecap="square" stroke-linejoin="bevel" transform="matrix(0.999651,0,0,-0.999651,3080.42,2710.46)"
font-family="MS Shell Dlg 2" font-size="10.3125" font-weight="400" font-style="normal" 
>
</g>

<g fill="none" stroke="#000000" stroke-opacity="1" stroke-width="1" stroke-linecap="square" stroke-linejoin="bevel" transform="matrix(0.999651,0,0,-0.999651,3080.42,2710.46)"
font-family="MS Shell Dlg 2" font-size="10.3125" font-weight="400" font-style="normal" 
>
</g>

<g fill="#ae5151" fill-opacity="0.2" stroke="#333333" stroke-opacity="1" stroke-width="1" stroke-linecap="round" stroke-linejoin="round" transform="matrix(0.999651,0,0,-0.999651,3080.42,2710.46)"
font-family="MS Shell Dlg 2" font-size="10.3125" font-weight="400" font-style="normal" 
>
<path vector-effect="non-scaling-stroke" fill-rule="evenodd" d="M-2510.07,1254.44 L-2510.09,1254.66 L-2510.09,1680 L-2510.02,1680.38 L-2509.81,1680.7 L-2509.49,1680.92 L-2509.11,1681 L-1985.48,1691.91 L-1985.07,1691.83 L-1984.73,1691.6 L-1984.52,1691.25 L-1984.46,1690.85 L-2001.37,1409.02 L-2017.18,1145.5 L-2017.21,1145.29 L-2017.24,1145.21 L-2017.44,1144.83 L-2017.78,1144.57 L-2018.2,1144.48 L-2018.29,1144.48 L-2018.5,1144.5 L-2035.84,1148.36 L-2509.2,1253.54 L-2509.41,1253.62 L-2509.5,1253.66 L-2509.85,1253.94 L-2510.04,1254.34 L-2510.07,1254.44 M-2308.09,1415.78 L-2204.7,1392.81 L-2203,1421.12 L-2199.15,1485.41 L-2308.09,1483.14 L-2308.09,1415.78"/>
</g>

<g fill="none" stroke="#000000" stroke-opacity="1" stroke-width="1" stroke-linecap="square" stroke-linejoin="bevel" transform="matrix(0.999651,0,0,-0.999651,3080.42,2710.46)"
font-family="MS Shell Dlg 2" font-size="10.3125" font-weight="400" font-style="normal" 
>
</g>

<g fill="none" stroke="#000000" stroke-opacity="1" stroke-width="1" stroke-linecap="square" stroke-linejoin="bevel" transform="matrix(0.999651,0,0,-0.999651,3080.42,2710.46)"
font-family="MS Shell Dlg 2" font-size="10.3125" font-weight="400" font-style="normal" 
>
</g>

<g fill="#ae5151" fill-opacity="0.2" stroke="#333333" stroke-opacity="1" stroke-width="1" stroke-linecap="round" stroke-linejoin="round" transform="matrix(0.999651,0,0,-0.999651,3080.42,2710.46)"
font-family="MS Shell Dlg 2" font-size="10.3125" font-weight="400" font-style="normal" 
>
<path vector-effect="non-scaling-stroke" fill-rule="evenodd" d="M-1424.45,567.273 L-1424.47,567.078 L-1439.7,490.541 L-1439.85,490.18 L-1483.2,425.296 L-1483.48,425.02 L-1548.36,381.665 L-1548.72,381.516 L-1625.26,366.292 L-1625.45,366.273 L-2880,366.273 L-2880.2,366.292 L-2956.73,381.516 L-2957.09,381.665 L-3021.98,425.02 L-3022.25,425.296 L-3065.61,490.18 L-3065.76,490.541 L-3080.98,567.078 L-3081,567.273 L-3081,2509.09 L-3080.98,2509.29 L-3065.76,2585.82 L-3065.61,2586.18 L-3022.25,2651.07 L-3021.98,2651.34 L-2957.09,2694.7 L-2956.73,2694.85 L-2880.2,2710.07 L-2880,2710.09 L-1625.45,2710.09 L-1625.26,2710.07 L-1548.72,2694.85 L-1548.36,2694.7 L-1483.48,2651.34 L-1483.2,2651.07 L-1439.85,2586.18 L-1439.7,2585.82 L-1424.47,2509.29 L-1424.45,2509.09 L-1424.45,567.273 M-1626.45,568.273 L-1626.45,2508.09 L-2879,2508.09 L-2879,568.273 L-1626.45,568.273"/>
</g>

<g fill="none" stroke="#000000" stroke-opacity="1" stroke-width="1" stroke-linecap="square" stroke-linejoin="bevel" transform="matrix(0.999651,0,0,-0.999651,3080.42,2710.46)"
font-family="MS Shell Dlg 2" font-size="10.3125" font-weight="400" font-style="normal" 
>
</g>

<g fill="none" stroke="#000000" stroke-opacity="1" stroke-width="1" stroke-linecap="square" stroke-linejoin="bevel" transform="matrix(0.999651,0,0,-0.999651,3080.42,2710.46)"
font-family="MS Shell Dlg 2" font-size="10.3125" font-weight="400" font-style="normal" 
>
</g>

<g fill="#333333" fill-opacity="0.2" stroke="#333333" stroke-opacity="1" stroke-width="1" stroke-linecap="round" stroke-linejoin="round" transform="matrix(0.999651,0,0,-0.999651,3080.42,2710.46)"
font-family="MS Shell Dlg 2" font-size="10.3125" font-weight="400" font-style="normal" 
>
<path vector-effect="non-scaling-stroke" fill-rule="evenodd" d="M-2510.07,1254.44 L-2510.09,1254.66 L-2510.09,1680 L-2510.02,1680.38 L-2509.81,1680.7 L-2509.49,1680.92 L-2509.11,1681 L-1985.48,1691.91 L-1985.07,1691.83 L-1984.73,1691.6 L-1984.52,1691.25 L-1984.46,1690.85 L-2001.37,1409.02 L-2017.18,1145.5 L-2017.21,1145.29 L-2017.24,1145.21 L-2017.44,1144.83 L-2017.78,1144.57 L-2018.2,1144.48 L-2018.29,1144.48 L-2018.5,1144.5 L-2035.84,1148.36 L-2509.2,1253.54 L-2509.41,1253.62 L-2509.5,1253.66 L-2509.85,1253.94 L-2510.04,1254.34 L-2510.07,1254.44 M-2308.09,1415.78 L-2204.7,1392.81 L-2203,1421.12 L-2199.15,1485.41 L-2308.09,1483.14 L-2308.09,1415.78"/>
</g>

<g fill="none" stroke="#000000" stroke-opacity="1" stroke-width="1" stroke-linecap="square" stroke-linejoin="bevel" transform="matrix(0.999651,0,0,-0.999651,3080.42,2710.46)"
font-family="MS Shell Dlg 2" font-size="10.3125" font-weight="400" font-style="normal" 
>
</g>

<g fill="none" stroke="#000000" stroke-opacity="1" stroke-width="1" stroke-linecap="square" stroke-linejoin="bevel" transform="matrix(0.999651,0,0,-0.999651,3080.42,2710.46)"
font-family="MS Shell Dlg 2" font-size="10.3125" font-weight="400" font-style="normal" 
>
</g>

<g fill="#333333" fill-opacity="0.2" stroke="#333333" stroke-opacity="1" stroke-width="1" stroke-linecap="round" stroke-linejoin="round" transform="matrix(0.999651,0,0,-0.999651,3080.42,2710.46)"
font-family="MS Shell Dlg 2" font-size="10.3125" font-weight="400" font-style="normal" 
>
<path vector-effect="non-scaling-stroke" fill-rule="evenodd" d="M-1424.45,567.273 L-1424.47,567.078 L-1439.7,490.541 L-1439.85,490.18 L-1483.2,425.296 L-1483.48,425.02 L-1548.36,381.665 L-1548.72,381.516 L-1625.26,366.292 L-1625.45,366.273 L-2880,366.273 L-2880.2,366.292 L-2956.73,381.516 L-2957.09,381.665 L-3021.98,425.02 L-3022.25,425.296 L-3065.61,490.18 L-3065.76,490.541 L-3080.98,567.078 L-3081,567.273 L-3081,2509.09 L-3080.98,2509.29 L-3065.76,2585.82 L-3065.61,2586.18 L-3022.25,2651.07 L-3021.98,2651.34 L-2957.09,2694.7 L-2956.73,2694.85 L-2880.2,2710.07 L-2880,2710.09 L-1625.45,2710.09 L-1625.26,2710.07 L-1548.72,2694.85 L-1548.36,2694.7 L-1483.48,2651.34 L-1483.2,2651.07 L-1439.85,2586.18 L-1439.7,2585.82 L-1424.47,2509.29 L-1424.45,2509.09 L-1424.45,567.273 M-1626.45,568.273 L-1626.45,2508.09 L-2879,2508.09 L-2879,568.273 L-1626.45,568.273"/>
</g>

<g fill="none" stroke="#000000" stroke-opacity="1" stroke-width="1" stroke-linecap="square" stroke-linejoin="bevel" transform="matrix(0.999651,0,0,-0.999651,3080.42,2710.46)"
font-family="MS Shell Dlg 2" font-size="10.3125" font-weight="400" font-style="normal" 
>
</g>

<g fill="none" stroke="#000000" stroke-opacity="1" stroke-width="1" stroke-linecap="square" stroke-linejoin="bevel" transform="matrix(1,0,0,-1,0,2344.82)"
font-family="MS Shell Dlg 2" font-size="10.3125" font-weight="400" font-style="normal" 
>
</g>
</g>
</svg>
