<?xml version="1.0" encoding="UTF-8" standalone="no"?>
<svg width="354.189mm" height="548.076mm"
 xmlns="http://www.w3.org/2000/svg" xmlns:xlink="http://www.w3.org/1999/xlink"  version="1.2" baseProfile="tiny">
<title>SVG Generator Example Drawing</title>
<desc>An SVG drawing created by the SVG Generator</desc>
<defs>
</defs>
<g fill="none" stroke="black" stroke-width="1" fill-rule="evenodd" stroke-linecap="square" stroke-linejoin="bevel" >

<g fill="none" stroke="#000000" stroke-opacity="1" stroke-width="1" stroke-linecap="square" stroke-linejoin="bevel" transform="matrix(1,0,0,-1,0,1942.84)"
font-family="MS Shell Dlg 2" font-size="10.3125" font-weight="400" font-style="normal" 
>
</g>

<g fill="none" stroke="#000000" stroke-opacity="1" stroke-width="1" stroke-linecap="square" stroke-linejoin="bevel" transform="matrix(1,0,0,-1,0,1942.84)"
font-family="MS Shell Dlg 2" font-size="10.3125" font-weight="400" font-style="normal" 
>
</g>

<g fill="none" stroke="#000000" stroke-opacity="1" stroke-width="1" stroke-linecap="square" stroke-linejoin="bevel" transform="matrix(0.99955,0,0,-0.99955,2879.21,2509.35)"
font-family="MS Shell Dlg 2" font-size="10.3125" font-weight="400" font-style="normal" 
>
</g>

<g fill="#333333" fill-opacity="0.2" stroke="#333333" stroke-opacity="1" stroke-width="1" stroke-linecap="round" stroke-linejoin="round" transform="matrix(0.99955,0,0,-0.99955,2879.21,2509.35)"
font-family="MS Shell Dlg 2" font-size="10.3125" font-weight="400" font-style="normal" 
>
<path vector-effect="non-scaling-stroke" fill-rule="evenodd" d="M-2509.09,1254.55 L-2509.09,1509.29 L-2509.09,1680 L-1985.45,1690.91 L-2002.36,1409.08 L-2018.18,1145.45 L-2509.09,1254.55 M-2509.08,1254.55 L-2018.19,1145.47 L-2002.37,1409.08 L-1985.47,1690.9 L-2509.08,1679.99 L-2509.08,1254.55"/>
</g>

<g fill="none" stroke="#000000" stroke-opacity="1" stroke-width="1" stroke-linecap="square" stroke-linejoin="bevel" transform="matrix(0.99955,0,0,-0.99955,2879.21,2509.35)"
font-family="MS Shell Dlg 2" font-size="10.3125" font-weight="400" font-style="normal" 
>
</g>

<g fill="none" stroke="#000000" stroke-opacity="1" stroke-width="1" stroke-linecap="square" stroke-linejoin="bevel" transform="matrix(0.99955,0,0,-0.99955,2879.21,2509.35)"
font-family="MS Shell Dlg 2" font-size="10.3125" font-weight="400" font-style="normal" 
>
</g>

<g fill="#333333" fill-opacity="0.2" stroke="#333333" stroke-opacity="1" stroke-width="1" stroke-linecap="round" stroke-linejoin="round" transform="matrix(0.99955,0,0,-0.99955,2879.21,2509.35)"
font-family="MS Shell Dlg 2" font-size="10.3125" font-weight="400" font-style="normal" 
>
<path vector-effect="non-scaling-stroke" fill-rule="evenodd" d="M-1625.44,567.273 L-1625.45,567.269 L-1625.45,567.266 L-1625.45,567.263 L-1625.45,567.263 L-2880,567.263 L-2880,567.263 L-2880.01,567.266 L-2880.01,567.269 L-2880.01,567.273 L-2880.01,2509.09 L-2880.01,2509.09 L-2880.01,2509.1 L-2880,2509.1 L-2880,2509.1 L-1625.45,2509.1 L-1625.45,2509.1 L-1625.45,2509.1 L-1625.45,2509.09 L-1625.44,2509.09 L-1625.44,567.273 M-1625.45,567.273 L-1625.45,2509.09 L-2880,2509.09 L-2880,567.273 L-1625.45,567.273"/>
</g>

<g fill="none" stroke="#000000" stroke-opacity="1" stroke-width="1" stroke-linecap="square" stroke-linejoin="bevel" transform="matrix(0.99955,0,0,-0.99955,2879.21,2509.35)"
font-family="MS Shell Dlg 2" font-size="10.3125" font-weight="400" font-style="normal" 
>
</g>

<g fill="none" stroke="#000000" stroke-opacity="1" stroke-width="1" stroke-linecap="square" stroke-linejoin="bevel" transform="matrix(0.99955,0,0,-0.99955,2879.21,2509.35)"
font-family="MS Shell Dlg 2" font-size="10.3125" font-weight="400" font-style="normal" 
>
</g>

<g fill="#ae5151" fill-opacity="0.2" stroke="#333333" stroke-opacity="1" stroke-width="1" stroke-linecap="round" stroke-linejoin="round" transform="matrix(0.99955,0,0,-0.99955,2879.21,2509.35)"
font-family="MS Shell Dlg 2" font-size="10.3125" font-weight="400" font-style="normal" 
>
<path vector-effect="non-scaling-stroke" fill-rule="evenodd" d="M-2509.09,1254.55 L-2509.09,1509.29 L-2509.09,1680 L-1985.45,1690.91 L-2002.36,1409.08 L-2018.18,1145.45 L-2509.09,1254.55 M-2509.08,1254.55 L-2018.19,1145.47 L-2002.37,1409.08 L-1985.47,1690.9 L-2509.08,1679.99 L-2509.08,1254.55"/>
</g>

<g fill="none" stroke="#000000" stroke-opacity="1" stroke-width="1" stroke-linecap="square" stroke-linejoin="bevel" transform="matrix(0.99955,0,0,-0.99955,2879.21,2509.35)"
font-family="MS Shell Dlg 2" font-size="10.3125" font-weight="400" font-style="normal" 
>
</g>

<g fill="none" stroke="#000000" stroke-opacity="1" stroke-width="1" stroke-linecap="square" stroke-linejoin="bevel" transform="matrix(0.99955,0,0,-0.99955,2879.21,2509.35)"
font-family="MS Shell Dlg 2" font-size="10.3125" font-weight="400" font-style="normal" 
>
</g>

<g fill="#ae5151" fill-opacity="0.2" stroke="#333333" stroke-opacity="1" stroke-width="1" stroke-linecap="round" stroke-linejoin="round" transform="matrix(0.99955,0,0,-0.99955,2879.21,2509.35)"
font-family="MS Shell Dlg 2" font-size="10.3125" font-weight="400" font-style="normal" 
>
<path vector-effect="non-scaling-stroke" fill-rule="evenodd" d="M-1625.44,567.273 L-1625.45,567.269 L-1625.45,567.266 L-1625.45,567.263 L-1625.45,567.263 L-2880,567.263 L-2880,567.263 L-2880.01,567.266 L-2880.01,567.269 L-2880.01,567.273 L-2880.01,2509.09 L-2880.01,2509.09 L-2880.01,2509.1 L-2880,2509.1 L-2880,2509.1 L-1625.45,2509.1 L-1625.45,2509.1 L-1625.45,2509.1 L-1625.45,2509.09 L-1625.44,2509.09 L-1625.44,567.273 M-1625.45,567.273 L-1625.45,2509.09 L-2880,2509.09 L-2880,567.273 L-1625.45,567.273"/>
</g>

<g fill="none" stroke="#000000" stroke-opacity="1" stroke-width="1" stroke-linecap="square" stroke-linejoin="bevel" transform="matrix(0.99955,0,0,-0.99955,2879.21,2509.35)"
font-family="MS Shell Dlg 2" font-size="10.3125" font-weight="400" font-style="normal" 
>
</g>

<g fill="none" stroke="#000000" stroke-opacity="1" stroke-width="1" stroke-linecap="square" stroke-linejoin="bevel" transform="matrix(0.99955,0,0,-0.99955,2879.21,2509.35)"
font-family="MS Shell Dlg 2" font-size="10.3125" font-weight="400" font-style="normal" 
>
</g>

<g fill="#ffff00" fill-opacity="0.2" stroke="#333333" stroke-opacity="1" stroke-width="1" stroke-linecap="round" stroke-linejoin="round" transform="matrix(0.99955,0,0,-0.99955,2879.21,2509.35)"
font-family="MS Shell Dlg 2" font-size="10.3125" font-weight="400" font-style="normal" 
>
<path vector-effect="non-scaling-stroke" fill-rule="evenodd" d="M-2509.09,1254.55 L-2509.09,1509.29 L-2509.09,1680 L-1985.45,1690.91 L-2002.36,1409.08 L-2018.18,1145.45 L-2509.09,1254.55 M-2509.08,1254.55 L-2018.19,1145.47 L-2002.37,1409.08 L-1985.47,1690.9 L-2509.08,1679.99 L-2509.08,1254.55"/>
</g>

<g fill="none" stroke="#000000" stroke-opacity="1" stroke-width="1" stroke-linecap="square" stroke-linejoin="bevel" transform="matrix(0.99955,0,0,-0.99955,2879.21,2509.35)"
font-family="MS Shell Dlg 2" font-size="10.3125" font-weight="400" font-style="normal" 
>
</g>

<g fill="none" stroke="#000000" stroke-opacity="1" stroke-width="1" stroke-linecap="square" stroke-linejoin="bevel" transform="matrix(0.99955,0,0,-0.99955,2879.21,2509.35)"
font-family="MS Shell Dlg 2" font-size="10.3125" font-weight="400" font-style="normal" 
>
</g>

<g fill="#ffff00" fill-opacity="0.2" stroke="#333333" stroke-opacity="1" stroke-width="1" stroke-linecap="round" stroke-linejoin="round" transform="matrix(0.99955,0,0,-0.99955,2879.21,2509.35)"
font-family="MS Shell Dlg 2" font-size="10.3125" font-weight="400" font-style="normal" 
>
<path vector-effect="non-scaling-stroke" fill-rule="evenodd" d="M-1625.44,567.273 L-1625.45,567.269 L-1625.45,567.266 L-1625.45,567.263 L-1625.45,567.263 L-2880,567.263 L-2880,567.263 L-2880.01,567.266 L-2880.01,567.269 L-2880.01,567.273 L-2880.01,2509.09 L-2880.01,2509.09 L-2880.01,2509.1 L-2880,2509.1 L-2880,2509.1 L-1625.45,2509.1 L-1625.45,2509.1 L-1625.45,2509.1 L-1625.45,2509.09 L-1625.44,2509.09 L-1625.44,567.273 M-1625.45,567.273 L-1625.45,2509.09 L-2880,2509.09 L-2880,567.273 L-1625.45,567.273"/>
</g>

<g fill="none" stroke="#000000" stroke-opacity="1" stroke-width="1" stroke-linecap="square" stroke-linejoin="bevel" transform="matrix(0.99955,0,0,-0.99955,2879.21,2509.35)"
font-family="MS Shell Dlg 2" font-size="10.3125" font-weight="400" font-style="normal" 
>
</g>

<g fill="none" stroke="#000000" stroke-opacity="1" stroke-width="1" stroke-linecap="square" stroke-linejoin="bevel" transform="matrix(0.99955,0,0,-0.99955,2879.21,2509.35)"
font-family="MS Shell Dlg 2" font-size="10.3125" font-weight="400" font-style="normal" 
>
</g>

<g fill="#ae5151" fill-opacity="0.2" stroke="#333333" stroke-opacity="1" stroke-width="1" stroke-linecap="round" stroke-linejoin="round" transform="matrix(0.99955,0,0,-0.99955,2879.21,2509.35)"
font-family="MS Shell Dlg 2" font-size="10.3125" font-weight="400" font-style="normal" 
>
<path vector-effect="non-scaling-stroke" fill-rule="evenodd" d="M-2509.09,1254.55 L-2509.09,1509.29 L-2509.09,1680 L-1985.45,1690.91 L-2002.36,1409.08 L-2018.18,1145.45 L-2509.09,1254.55 M-2509.08,1254.55 L-2018.19,1145.47 L-2002.37,1409.08 L-1985.47,1690.9 L-2509.08,1679.99 L-2509.08,1254.55"/>
</g>

<g fill="none" stroke="#000000" stroke-opacity="1" stroke-width="1" stroke-linecap="square" stroke-linejoin="bevel" transform="matrix(0.99955,0,0,-0.99955,2879.21,2509.35)"
font-family="MS Shell Dlg 2" font-size="10.3125" font-weight="400" font-style="normal" 
>
</g>

<g fill="none" stroke="#000000" stroke-opacity="1" stroke-width="1" stroke-linecap="square" stroke-linejoin="bevel" transform="matrix(0.99955,0,0,-0.99955,2879.21,2509.35)"
font-family="MS Shell Dlg 2" font-size="10.3125" font-weight="400" font-style="normal" 
>
</g>

<g fill="#ae5151" fill-opacity="0.2" stroke="#333333" stroke-opacity="1" stroke-width="1" stroke-linecap="round" stroke-linejoin="round" transform="matrix(0.99955,0,0,-0.99955,2879.21,2509.35)"
font-family="MS Shell Dlg 2" font-size="10.3125" font-weight="400" font-style="normal" 
>
<path vector-effect="non-scaling-stroke" fill-rule="evenodd" d="M-1625.44,567.273 L-1625.45,567.269 L-1625.45,567.266 L-1625.45,567.263 L-1625.45,567.263 L-2880,567.263 L-2880,567.263 L-2880.01,567.266 L-2880.01,567.269 L-2880.01,567.273 L-2880.01,2509.09 L-2880.01,2509.09 L-2880.01,2509.1 L-2880,2509.1 L-2880,2509.1 L-1625.45,2509.1 L-1625.45,2509.1 L-1625.45,2509.1 L-1625.45,2509.09 L-1625.44,2509.09 L-1625.44,567.273 M-1625.45,567.273 L-1625.45,2509.09 L-2880,2509.09 L-2880,567.273 L-1625.45,567.273"/>
</g>

<g fill="none" stroke="#000000" stroke-opacity="1" stroke-width="1" stroke-linecap="square" stroke-linejoin="bevel" transform="matrix(0.99955,0,0,-0.99955,2879.21,2509.35)"
font-family="MS Shell Dlg 2" font-size="10.3125" font-weight="400" font-style="normal" 
>
</g>

<g fill="none" stroke="#000000" stroke-opacity="1" stroke-width="1" stroke-linecap="square" stroke-linejoin="bevel" transform="matrix(0.99955,0,0,-0.99955,2879.21,2509.35)"
font-family="MS Shell Dlg 2" font-size="10.3125" font-weight="400" font-style="normal" 
>
</g>

<g fill="#333333" fill-opacity="0.2" stroke="#333333" stroke-opacity="1" stroke-width="1" stroke-linecap="round" stroke-linejoin="round" transform="matrix(0.99955,0,0,-0.99955,2879.21,2509.35)"
font-family="MS Shell Dlg 2" font-size="10.3125" font-weight="400" font-style="normal" 
>
<path vector-effect="non-scaling-stroke" fill-rule="evenodd" d="M-2509.09,1254.55 L-2509.09,1509.29 L-2509.09,1680 L-1985.45,1690.91 L-2002.36,1409.08 L-2018.18,1145.45 L-2509.09,1254.55 M-2509.08,1254.55 L-2018.19,1145.47 L-2002.37,1409.08 L-1985.47,1690.9 L-2509.08,1679.99 L-2509.08,1254.55"/>
</g>

<g fill="none" stroke="#000000" stroke-opacity="1" stroke-width="1" stroke-linecap="square" stroke-linejoin="bevel" transform="matrix(0.99955,0,0,-0.99955,2879.21,2509.35)"
font-family="MS Shell Dlg 2" font-size="10.3125" font-weight="400" font-style="normal" 
>
</g>

<g fill="none" stroke="#000000" stroke-opacity="1" stroke-width="1" stroke-linecap="square" stroke-linejoin="bevel" transform="matrix(0.99955,0,0,-0.99955,2879.21,2509.35)"
font-family="MS Shell Dlg 2" font-size="10.3125" font-weight="400" font-style="normal" 
>
</g>

<g fill="#333333" fill-opacity="0.2" stroke="#333333" stroke-opacity="1" stroke-width="1" stroke-linecap="round" stroke-linejoin="round" transform="matrix(0.99955,0,0,-0.99955,2879.21,2509.35)"
font-family="MS Shell Dlg 2" font-size="10.3125" font-weight="400" font-style="normal" 
>
<path vector-effect="non-scaling-stroke" fill-rule="evenodd" d="M-1625.44,567.273 L-1625.45,567.269 L-1625.45,567.266 L-1625.45,567.263 L-1625.45,567.263 L-2880,567.263 L-2880,567.263 L-2880.01,567.266 L-2880.01,567.269 L-2880.01,567.273 L-2880.01,2509.09 L-2880.01,2509.09 L-2880.01,2509.1 L-2880,2509.1 L-2880,2509.1 L-1625.45,2509.1 L-1625.45,2509.1 L-1625.45,2509.1 L-1625.45,2509.09 L-1625.44,2509.09 L-1625.44,567.273 M-1625.45,567.273 L-1625.45,2509.09 L-2880,2509.09 L-2880,567.273 L-1625.45,567.273"/>
</g>

<g fill="none" stroke="#000000" stroke-opacity="1" stroke-width="1" stroke-linecap="square" stroke-linejoin="bevel" transform="matrix(0.99955,0,0,-0.99955,2879.21,2509.35)"
font-family="MS Shell Dlg 2" font-size="10.3125" font-weight="400" font-style="normal" 
>
</g>

<g fill="none" stroke="#000000" stroke-opacity="1" stroke-width="1" stroke-linecap="square" stroke-linejoin="bevel" transform="matrix(1,0,0,-1,0,1942.84)"
font-family="MS Shell Dlg 2" font-size="10.3125" font-weight="400" font-style="normal" 
>
</g>
</g>
</svg>
