<?xml version="1.0" encoding="UTF-8" standalone="no"?>
<svg width="579.967mm" height="773.853mm"
 xmlns="http://www.w3.org/2000/svg" xmlns:xlink="http://www.w3.org/1999/xlink"  version="1.2" baseProfile="tiny">
<title>SVG Generator Example Drawing</title>
<desc>An SVG drawing created by the SVG Generator</desc>
<defs>
</defs>
<g fill="none" stroke="black" stroke-width="1" fill-rule="evenodd" stroke-linecap="square" stroke-linejoin="bevel" >

<g fill="none" stroke="#000000" stroke-opacity="1" stroke-width="1" stroke-linecap="square" stroke-linejoin="bevel" transform="matrix(1,0,0,-1,0,2742.82)"
font-family="MS Shell Dlg 2" font-size="10.3125" font-weight="400" font-style="normal" 
>
</g>

<g fill="none" stroke="#000000" stroke-opacity="1" stroke-width="1" stroke-linecap="square" stroke-linejoin="bevel" transform="matrix(1,0,0,-1,0,2742.82)"
font-family="MS Shell Dlg 2" font-size="10.3125" font-weight="400" font-style="normal" 
>
</g>

<g fill="none" stroke="#000000" stroke-opacity="1" stroke-width="1" stroke-linecap="square" stroke-linejoin="bevel" transform="matrix(0.999702,0,0,-0.999702,3279.52,2909.54)"
font-family="MS Shell Dlg 2" font-size="10.3125" font-weight="400" font-style="normal" 
>
</g>

<g fill="#333333" fill-opacity="0.2" stroke="#333333" stroke-opacity="1" stroke-width="1" stroke-linecap="round" stroke-linejoin="round" transform="matrix(0.999702,0,0,-0.999702,3279.52,2909.54)"
font-family="MS Shell Dlg 2" font-size="10.3125" font-weight="400" font-style="normal" 
>
<path vector-effect="non-scaling-stroke" fill-rule="evenodd" d="M-2509.09,1254.55 L-2509.09,1509.29 L-2509.09,1680 L-1985.45,1690.91 L-2002.36,1409.08 L-2018.18,1145.45 L-2509.09,1254.55"/>
</g>

<g fill="none" stroke="#000000" stroke-opacity="1" stroke-width="1" stroke-linecap="square" stroke-linejoin="bevel" transform="matrix(0.999702,0,0,-0.999702,3279.52,2909.54)"
font-family="MS Shell Dlg 2" font-size="10.3125" font-weight="400" font-style="normal" 
>
</g>

<g fill="none" stroke="#000000" stroke-opacity="1" stroke-width="1" stroke-linecap="square" stroke-linejoin="bevel" transform="matrix(0.999702,0,0,-0.999702,3279.52,2909.54)"
font-family="MS Shell Dlg 2" font-size="10.3125" font-weight="400" font-style="normal" 
>
</g>

<g fill="#333333" fill-opacity="0.2" stroke="#333333" stroke-opacity="1" stroke-width="1" stroke-linecap="round" stroke-linejoin="round" transform="matrix(0.999702,0,0,-0.999702,3279.52,2909.54)"
font-family="MS Shell Dlg 2" font-size="10.3125" font-weight="400" font-style="normal" 
>
<path vector-effect="non-scaling-stroke" fill-rule="evenodd" d="M-1635.45,577.273 L-2870,577.273 L-2870,2499.09 L-1635.45,2499.09 L-1635.45,577.273 M-2511.26,1244.78 L-2020.35,1135.69 L-2016.06,1135.68 L-2012.16,1137.47 L-2009.37,1140.73 L-2008.2,1144.86 L-1992.38,1408.48 L-1975.47,1690.31 L-1976.07,1694.37 L-1978.25,1697.84 L-1981.63,1700.15 L-1985.66,1700.91 L-2509.3,1690 L-2513.06,1689.18 L-2516.24,1687 L-2518.35,1683.78 L-2519.09,1680 L-2519.09,1254.55 L-2518.09,1250.19 L-2515.3,1246.7 L-2511.26,1244.78"/>
</g>

<g fill="none" stroke="#000000" stroke-opacity="1" stroke-width="1" stroke-linecap="square" stroke-linejoin="bevel" transform="matrix(0.999702,0,0,-0.999702,3279.52,2909.54)"
font-family="MS Shell Dlg 2" font-size="10.3125" font-weight="400" font-style="normal" 
>
</g>

<g fill="none" stroke="#000000" stroke-opacity="1" stroke-width="1" stroke-linecap="square" stroke-linejoin="bevel" transform="matrix(0.999702,0,0,-0.999702,3279.52,2909.54)"
font-family="MS Shell Dlg 2" font-size="10.3125" font-weight="400" font-style="normal" 
>
</g>

<g fill="#333333" fill-opacity="0.2" stroke="#333333" stroke-opacity="1" stroke-width="1" stroke-linecap="round" stroke-linejoin="round" transform="matrix(0.999702,0,0,-0.999702,3279.52,2909.54)"
font-family="MS Shell Dlg 2" font-size="10.3125" font-weight="400" font-style="normal" 
>
<path vector-effect="non-scaling-stroke" fill-rule="evenodd" d="M-1225.45,167.273 L-3280,167.273 L-3280,2909.09 L-1225.45,2909.09 L-1225.45,167.273 M-1625.45,567.273 L-1625.45,2509.09 L-2880,2509.09 L-2880,567.273 L-1625.45,567.273"/>
</g>

<g fill="none" stroke="#000000" stroke-opacity="1" stroke-width="1" stroke-linecap="square" stroke-linejoin="bevel" transform="matrix(0.999702,0,0,-0.999702,3279.52,2909.54)"
font-family="MS Shell Dlg 2" font-size="10.3125" font-weight="400" font-style="normal" 
>
</g>

<g fill="none" stroke="#000000" stroke-opacity="1" stroke-width="1" stroke-linecap="square" stroke-linejoin="bevel" transform="matrix(0.999702,0,0,-0.999702,3279.52,2909.54)"
font-family="MS Shell Dlg 2" font-size="10.3125" font-weight="400" font-style="normal" 
>
</g>

<g fill="#ae5151" fill-opacity="0.2" stroke="#333333" stroke-opacity="1" stroke-width="1" stroke-linecap="round" stroke-linejoin="round" transform="matrix(0.999702,0,0,-0.999702,3279.52,2909.54)"
font-family="MS Shell Dlg 2" font-size="10.3125" font-weight="400" font-style="normal" 
>
<path vector-effect="non-scaling-stroke" fill-rule="evenodd" d="M-2509.09,1254.55 L-2509.09,1509.29 L-2509.09,1680 L-1985.45,1690.91 L-2002.36,1409.08 L-2018.18,1145.45 L-2509.09,1254.55"/>
</g>

<g fill="none" stroke="#000000" stroke-opacity="1" stroke-width="1" stroke-linecap="square" stroke-linejoin="bevel" transform="matrix(0.999702,0,0,-0.999702,3279.52,2909.54)"
font-family="MS Shell Dlg 2" font-size="10.3125" font-weight="400" font-style="normal" 
>
</g>

<g fill="none" stroke="#000000" stroke-opacity="1" stroke-width="1" stroke-linecap="square" stroke-linejoin="bevel" transform="matrix(0.999702,0,0,-0.999702,3279.52,2909.54)"
font-family="MS Shell Dlg 2" font-size="10.3125" font-weight="400" font-style="normal" 
>
</g>

<g fill="#ae5151" fill-opacity="0.2" stroke="#333333" stroke-opacity="1" stroke-width="1" stroke-linecap="round" stroke-linejoin="round" transform="matrix(0.999702,0,0,-0.999702,3279.52,2909.54)"
font-family="MS Shell Dlg 2" font-size="10.3125" font-weight="400" font-style="normal" 
>
<path vector-effect="non-scaling-stroke" fill-rule="evenodd" d="M-1635.45,577.273 L-2870,577.273 L-2870,2499.09 L-1635.45,2499.09 L-1635.45,577.273 M-2511.26,1244.78 L-2020.35,1135.69 L-2016.06,1135.68 L-2012.16,1137.47 L-2009.37,1140.73 L-2008.2,1144.86 L-1992.38,1408.48 L-1975.47,1690.31 L-1976.07,1694.37 L-1978.25,1697.84 L-1981.63,1700.15 L-1985.66,1700.91 L-2509.3,1690 L-2513.06,1689.18 L-2516.24,1687 L-2518.35,1683.78 L-2519.09,1680 L-2519.09,1254.55 L-2518.09,1250.19 L-2515.3,1246.7 L-2511.26,1244.78"/>
</g>

<g fill="none" stroke="#000000" stroke-opacity="1" stroke-width="1" stroke-linecap="square" stroke-linejoin="bevel" transform="matrix(0.999702,0,0,-0.999702,3279.52,2909.54)"
font-family="MS Shell Dlg 2" font-size="10.3125" font-weight="400" font-style="normal" 
>
</g>

<g fill="none" stroke="#000000" stroke-opacity="1" stroke-width="1" stroke-linecap="square" stroke-linejoin="bevel" transform="matrix(0.999702,0,0,-0.999702,3279.52,2909.54)"
font-family="MS Shell Dlg 2" font-size="10.3125" font-weight="400" font-style="normal" 
>
</g>

<g fill="#ae5151" fill-opacity="0.2" stroke="#333333" stroke-opacity="1" stroke-width="1" stroke-linecap="round" stroke-linejoin="round" transform="matrix(0.999702,0,0,-0.999702,3279.52,2909.54)"
font-family="MS Shell Dlg 2" font-size="10.3125" font-weight="400" font-style="normal" 
>
<path vector-effect="non-scaling-stroke" fill-rule="evenodd" d="M-1225.45,167.273 L-3280,167.273 L-3280,2909.09 L-1225.45,2909.09 L-1225.45,167.273 M-1625.45,567.273 L-1625.45,2509.09 L-2880,2509.09 L-2880,567.273 L-1625.45,567.273"/>
</g>

<g fill="none" stroke="#000000" stroke-opacity="1" stroke-width="1" stroke-linecap="square" stroke-linejoin="bevel" transform="matrix(0.999702,0,0,-0.999702,3279.52,2909.54)"
font-family="MS Shell Dlg 2" font-size="10.3125" font-weight="400" font-style="normal" 
>
</g>

<g fill="none" stroke="#000000" stroke-opacity="1" stroke-width="1" stroke-linecap="square" stroke-linejoin="bevel" transform="matrix(0.999702,0,0,-0.999702,3279.52,2909.54)"
font-family="MS Shell Dlg 2" font-size="10.3125" font-weight="400" font-style="normal" 
>
</g>

<g fill="#ffff00" fill-opacity="0.2" stroke="#333333" stroke-opacity="1" stroke-width="1" stroke-linecap="round" stroke-linejoin="round" transform="matrix(0.999702,0,0,-0.999702,3279.52,2909.54)"
font-family="MS Shell Dlg 2" font-size="10.3125" font-weight="400" font-style="normal" 
>
<path vector-effect="non-scaling-stroke" fill-rule="evenodd" d="M-2509.09,1254.55 L-2509.09,1509.29 L-2509.09,1680 L-1985.45,1690.91 L-2002.36,1409.08 L-2018.18,1145.45 L-2509.09,1254.55"/>
</g>

<g fill="none" stroke="#000000" stroke-opacity="1" stroke-width="1" stroke-linecap="square" stroke-linejoin="bevel" transform="matrix(0.999702,0,0,-0.999702,3279.52,2909.54)"
font-family="MS Shell Dlg 2" font-size="10.3125" font-weight="400" font-style="normal" 
>
</g>

<g fill="none" stroke="#000000" stroke-opacity="1" stroke-width="1" stroke-linecap="square" stroke-linejoin="bevel" transform="matrix(0.999702,0,0,-0.999702,3279.52,2909.54)"
font-family="MS Shell Dlg 2" font-size="10.3125" font-weight="400" font-style="normal" 
>
</g>

<g fill="#ffff00" fill-opacity="0.2" stroke="#333333" stroke-opacity="1" stroke-width="1" stroke-linecap="round" stroke-linejoin="round" transform="matrix(0.999702,0,0,-0.999702,3279.52,2909.54)"
font-family="MS Shell Dlg 2" font-size="10.3125" font-weight="400" font-style="normal" 
>
<path vector-effect="non-scaling-stroke" fill-rule="evenodd" d="M-3280,167.273 L-3280,2909.09 L-1225.45,2909.09 L-1225.45,167.273 L-3280,167.273 M-1625.45,567.273 L-1625.45,2509.09 L-2880,2509.09 L-2880,567.273 L-1625.45,567.273"/>
</g>

<g fill="none" stroke="#000000" stroke-opacity="1" stroke-width="1" stroke-linecap="square" stroke-linejoin="bevel" transform="matrix(0.999702,0,0,-0.999702,3279.52,2909.54)"
font-family="MS Shell Dlg 2" font-size="10.3125" font-weight="400" font-style="normal" 
>
</g>

<g fill="none" stroke="#000000" stroke-opacity="1" stroke-width="1" stroke-linecap="square" stroke-linejoin="bevel" transform="matrix(0.999702,0,0,-0.999702,3279.52,2909.54)"
font-family="MS Shell Dlg 2" font-size="10.3125" font-weight="400" font-style="normal" 
>
</g>

<g fill="#ffff00" fill-opacity="0.2" stroke="#333333" stroke-opacity="1" stroke-width="1" stroke-linecap="round" stroke-linejoin="round" transform="matrix(0.999702,0,0,-0.999702,3279.52,2909.54)"
font-family="MS Shell Dlg 2" font-size="10.3125" font-weight="400" font-style="normal" 
>
<path vector-effect="non-scaling-stroke" fill-rule="evenodd" d="M-2519.09,1520.32 L-2537.6,1540.74 L-2564.51,1577.02 L-2587.73,1615.76 L-2607.04,1656.6 L-2622.25,1699.12 L-2633.23,1742.94 L-2639.86,1787.61 L-2642.07,1832.73 L-2639.86,1877.84 L-2633.23,1922.52 L-2622.25,1966.33 L-2607.04,2008.86 L-2587.73,2049.69 L-2564.51,2088.43 L-2537.6,2124.71 L-2507.27,2158.18 L-2473.8,2188.51 L-2437.52,2215.42 L-2398.78,2238.64 L-2357.95,2257.95 L-2315.42,2273.16 L-2271.61,2284.14 L-2226.93,2290.77 L-2181.82,2292.98 L-2136.71,2290.77 L-2092.03,2284.14 L-2048.21,2273.16 L-2005.69,2257.95 L-1964.86,2238.64 L-1926.11,2215.42 L-1889.84,2188.51 L-1856.37,2158.18 L-1826.04,2124.71 L-1799.13,2088.43 L-1775.91,2049.69 L-1756.6,2008.86 L-1741.38,1966.33 L-1730.41,1922.52 L-1723.78,1877.84 L-1721.56,1832.73 L-1723.78,1787.61 L-1730.41,1742.94 L-1741.38,1699.12 L-1756.6,1656.6 L-1775.91,1615.76 L-1799.13,1577.02 L-1826.04,1540.74 L-1856.37,1507.28 L-1889.84,1476.95 L-1926.11,1450.04 L-1964.86,1426.82 L-1992.05,1413.95 L-1975.47,1690.31 L-1976.07,1694.37 L-1978.25,1697.84 L-1981.63,1700.15 L-1985.66,1700.91 L-2509.3,1690 L-2513.06,1689.18 L-2516.24,1687 L-2518.35,1683.78 L-2519.09,1680 L-2519.09,1520.32"/>
</g>

<g fill="none" stroke="#000000" stroke-opacity="1" stroke-width="1" stroke-linecap="square" stroke-linejoin="bevel" transform="matrix(0.999702,0,0,-0.999702,3279.52,2909.54)"
font-family="MS Shell Dlg 2" font-size="10.3125" font-weight="400" font-style="normal" 
>
</g>

<g fill="none" stroke="#000000" stroke-opacity="1" stroke-width="1" stroke-linecap="square" stroke-linejoin="bevel" transform="matrix(0.999702,0,0,-0.999702,3279.52,2909.54)"
font-family="MS Shell Dlg 2" font-size="10.3125" font-weight="400" font-style="normal" 
>
</g>

<g fill="#ae5151" fill-opacity="0.2" stroke="#333333" stroke-opacity="1" stroke-width="1" stroke-linecap="round" stroke-linejoin="round" transform="matrix(0.999702,0,0,-0.999702,3279.52,2909.54)"
font-family="MS Shell Dlg 2" font-size="10.3125" font-weight="400" font-style="normal" 
>
<path vector-effect="non-scaling-stroke" fill-rule="evenodd" d="M-2509.09,1254.55 L-2509.09,1509.29 L-2509.09,1680 L-1985.45,1690.91 L-2002.36,1409.08 L-2018.18,1145.45 L-2509.09,1254.55"/>
</g>

<g fill="none" stroke="#000000" stroke-opacity="1" stroke-width="1" stroke-linecap="square" stroke-linejoin="bevel" transform="matrix(0.999702,0,0,-0.999702,3279.52,2909.54)"
font-family="MS Shell Dlg 2" font-size="10.3125" font-weight="400" font-style="normal" 
>
</g>

<g fill="none" stroke="#000000" stroke-opacity="1" stroke-width="1" stroke-linecap="square" stroke-linejoin="bevel" transform="matrix(0.999702,0,0,-0.999702,3279.52,2909.54)"
font-family="MS Shell Dlg 2" font-size="10.3125" font-weight="400" font-style="normal" 
>
</g>

<g fill="#ae5151" fill-opacity="0.2" stroke="#333333" stroke-opacity="1" stroke-width="1" stroke-linecap="round" stroke-linejoin="round" transform="matrix(0.999702,0,0,-0.999702,3279.52,2909.54)"
font-family="MS Shell Dlg 2" font-size="10.3125" font-weight="400" font-style="normal" 
>
<path vector-effect="non-scaling-stroke" fill-rule="evenodd" d="M-1635.45,577.273 L-2870,577.273 L-2870,2499.09 L-1635.45,2499.09 L-1635.45,577.273 M-1992.74,1402.57 L-1960.58,1417.78 L-1959.71,1418.24 L-1920.97,1441.46 L-1920.16,1442.01 L-1883.88,1468.91 L-1883.12,1469.54 L-1849.65,1499.87 L-1848.96,1500.56 L-1818.63,1534.03 L-1818,1534.79 L-1791.1,1571.07 L-1790.55,1571.88 L-1767.33,1610.62 L-1766.87,1611.49 L-1747.56,1652.32 L-1747.18,1653.23 L-1731.97,1695.75 L-1731.68,1696.69 L-1720.71,1740.51 L-1720.52,1741.47 L-1713.89,1786.15 L-1713.79,1787.12 L-1711.58,1832.24 L-1711.56,1832.73 L-1711.58,1833.22 L-1713.79,1878.33 L-1713.89,1879.31 L-1720.52,1923.99 L-1720.71,1924.95 L-1731.68,1968.76 L-1731.97,1969.7 L-1747.18,2012.23 L-1747.56,2013.13 L-1766.87,2053.97 L-1767.33,2054.83 L-1790.55,2093.57 L-1791.1,2094.39 L-1818,2130.67 L-1818.63,2131.43 L-1848.96,2164.89 L-1849.65,2165.59 L-1883.12,2195.92 L-1883.88,2196.54 L-1920.16,2223.45 L-1920.97,2223.99 L-1959.71,2247.21 L-1960.58,2247.68 L-2001.41,2266.99 L-2002.32,2267.36 L-2044.84,2282.58 L-2045.78,2282.86 L-2089.6,2293.84 L-2090.56,2294.03 L-2135.24,2300.66 L-2136.21,2300.75 L-2181.33,2302.97 L-2182.31,2302.97 L-2227.42,2300.75 L-2228.4,2300.66 L-2273.08,2294.03 L-2274.04,2293.84 L-2317.85,2282.86 L-2318.79,2282.58 L-2361.32,2267.36 L-2362.23,2266.99 L-2403.06,2247.68 L-2403.92,2247.21 L-2442.66,2223.99 L-2443.48,2223.45 L-2479.76,2196.54 L-2480.52,2195.92 L-2513.98,2165.59 L-2514.68,2164.89 L-2545.01,2131.43 L-2545.63,2130.67 L-2572.54,2094.39 L-2573.08,2093.57 L-2596.3,2054.83 L-2596.77,2053.97 L-2616.08,2013.13 L-2616.45,2012.23 L-2631.67,1969.7 L-2631.96,1968.76 L-2642.93,1924.95 L-2643.12,1923.99 L-2649.75,1879.31 L-2649.84,1878.33 L-2652.06,1833.22 L-2652.06,1832.24 L-2649.84,1787.12 L-2649.75,1786.15 L-2643.12,1741.47 L-2642.93,1740.51 L-2631.96,1696.69 L-2631.67,1695.75 L-2616.45,1653.23 L-2616.08,1652.32 L-2596.77,1611.49 L-2596.3,1610.62 L-2573.08,1571.88 L-2572.54,1571.07 L-2545.63,1534.79 L-2545.01,1534.03 L-2519.09,1505.43 L-2519.09,1254.55 L-2518.09,1250.19 L-2515.3,1246.7 L-2511.26,1244.78 L-2020.35,1135.69 L-2016.06,1135.68 L-2012.16,1137.47 L-2009.37,1140.73 L-2008.2,1144.86 L-1992.74,1402.57"/>
</g>

<g fill="none" stroke="#000000" stroke-opacity="1" stroke-width="1" stroke-linecap="square" stroke-linejoin="bevel" transform="matrix(0.999702,0,0,-0.999702,3279.52,2909.54)"
font-family="MS Shell Dlg 2" font-size="10.3125" font-weight="400" font-style="normal" 
>
</g>

<g fill="none" stroke="#000000" stroke-opacity="1" stroke-width="1" stroke-linecap="square" stroke-linejoin="bevel" transform="matrix(0.999702,0,0,-0.999702,3279.52,2909.54)"
font-family="MS Shell Dlg 2" font-size="10.3125" font-weight="400" font-style="normal" 
>
</g>

<g fill="#ae5151" fill-opacity="0.2" stroke="#333333" stroke-opacity="1" stroke-width="1" stroke-linecap="round" stroke-linejoin="round" transform="matrix(0.999702,0,0,-0.999702,3279.52,2909.54)"
font-family="MS Shell Dlg 2" font-size="10.3125" font-weight="400" font-style="normal" 
>
<path vector-effect="non-scaling-stroke" fill-rule="evenodd" d="M-3280,167.273 L-3280,2909.09 L-1225.45,2909.09 L-1225.45,167.273 L-3280,167.273 M-1625.45,567.273 L-1625.45,2509.09 L-2880,2509.09 L-2880,567.273 L-1625.45,567.273"/>
</g>

<g fill="none" stroke="#000000" stroke-opacity="1" stroke-width="1" stroke-linecap="square" stroke-linejoin="bevel" transform="matrix(0.999702,0,0,-0.999702,3279.52,2909.54)"
font-family="MS Shell Dlg 2" font-size="10.3125" font-weight="400" font-style="normal" 
>
</g>

<g fill="none" stroke="#000000" stroke-opacity="1" stroke-width="1" stroke-linecap="square" stroke-linejoin="bevel" transform="matrix(0.999702,0,0,-0.999702,3279.52,2909.54)"
font-family="MS Shell Dlg 2" font-size="10.3125" font-weight="400" font-style="normal" 
>
</g>

<g fill="#ae5151" fill-opacity="0.2" stroke="#333333" stroke-opacity="1" stroke-width="1" stroke-linecap="round" stroke-linejoin="round" transform="matrix(0.999702,0,0,-0.999702,3279.52,2909.54)"
font-family="MS Shell Dlg 2" font-size="10.3125" font-weight="400" font-style="normal" 
>
<path vector-effect="non-scaling-stroke" fill-rule="evenodd" d="M-2519.09,1520.32 L-2537.6,1540.74 L-2564.51,1577.02 L-2587.73,1615.76 L-2607.04,1656.6 L-2622.25,1699.12 L-2633.23,1742.94 L-2639.86,1787.61 L-2642.07,1832.73 L-2639.86,1877.84 L-2633.23,1922.52 L-2622.25,1966.33 L-2607.04,2008.86 L-2587.73,2049.69 L-2564.51,2088.43 L-2537.6,2124.71 L-2507.27,2158.18 L-2473.8,2188.51 L-2437.52,2215.42 L-2398.78,2238.64 L-2357.95,2257.95 L-2315.42,2273.16 L-2271.61,2284.14 L-2226.93,2290.77 L-2181.82,2292.98 L-2136.71,2290.77 L-2092.03,2284.14 L-2048.21,2273.16 L-2005.69,2257.95 L-1964.86,2238.64 L-1926.11,2215.42 L-1889.84,2188.51 L-1856.37,2158.18 L-1826.04,2124.71 L-1799.13,2088.43 L-1775.91,2049.69 L-1756.6,2008.86 L-1741.38,1966.33 L-1730.41,1922.52 L-1723.78,1877.84 L-1721.56,1832.73 L-1723.78,1787.61 L-1730.41,1742.94 L-1741.38,1699.12 L-1756.6,1656.6 L-1775.91,1615.76 L-1799.13,1577.02 L-1826.04,1540.74 L-1856.37,1507.28 L-1889.84,1476.95 L-1926.11,1450.04 L-1964.86,1426.82 L-1992.05,1413.95 L-1975.47,1690.31 L-1976.07,1694.37 L-1978.25,1697.84 L-1981.63,1700.15 L-1985.66,1700.91 L-2509.3,1690 L-2513.06,1689.18 L-2516.24,1687 L-2518.35,1683.78 L-2519.09,1680 L-2519.09,1520.32"/>
</g>

<g fill="none" stroke="#000000" stroke-opacity="1" stroke-width="1" stroke-linecap="square" stroke-linejoin="bevel" transform="matrix(0.999702,0,0,-0.999702,3279.52,2909.54)"
font-family="MS Shell Dlg 2" font-size="10.3125" font-weight="400" font-style="normal" 
>
</g>

<g fill="none" stroke="#000000" stroke-opacity="1" stroke-width="1" stroke-linecap="square" stroke-linejoin="bevel" transform="matrix(0.999702,0,0,-0.999702,3279.52,2909.54)"
font-family="MS Shell Dlg 2" font-size="10.3125" font-weight="400" font-style="normal" 
>
</g>

<g fill="#333333" fill-opacity="0.2" stroke="#333333" stroke-opacity="1" stroke-width="1" stroke-linecap="round" stroke-linejoin="round" transform="matrix(0.999702,0,0,-0.999702,3279.52,2909.54)"
font-family="MS Shell Dlg 2" font-size="10.3125" font-weight="400" font-style="normal" 
>
<path vector-effect="non-scaling-stroke" fill-rule="evenodd" d="M-2509.09,1254.55 L-2509.09,1509.29 L-2509.09,1680 L-1985.45,1690.91 L-2002.36,1409.08 L-2018.18,1145.45 L-2509.09,1254.55"/>
</g>

<g fill="none" stroke="#000000" stroke-opacity="1" stroke-width="1" stroke-linecap="square" stroke-linejoin="bevel" transform="matrix(0.999702,0,0,-0.999702,3279.52,2909.54)"
font-family="MS Shell Dlg 2" font-size="10.3125" font-weight="400" font-style="normal" 
>
</g>

<g fill="none" stroke="#000000" stroke-opacity="1" stroke-width="1" stroke-linecap="square" stroke-linejoin="bevel" transform="matrix(0.999702,0,0,-0.999702,3279.52,2909.54)"
font-family="MS Shell Dlg 2" font-size="10.3125" font-weight="400" font-style="normal" 
>
</g>

<g fill="#333333" fill-opacity="0.2" stroke="#333333" stroke-opacity="1" stroke-width="1" stroke-linecap="round" stroke-linejoin="round" transform="matrix(0.999702,0,0,-0.999702,3279.52,2909.54)"
font-family="MS Shell Dlg 2" font-size="10.3125" font-weight="400" font-style="normal" 
>
<path vector-effect="non-scaling-stroke" fill-rule="evenodd" d="M-1635.45,577.273 L-2870,577.273 L-2870,2499.09 L-1635.45,2499.09 L-1635.45,577.273 M-1992.74,1402.57 L-1960.58,1417.78 L-1959.71,1418.24 L-1920.97,1441.46 L-1920.16,1442.01 L-1883.88,1468.91 L-1883.12,1469.54 L-1849.65,1499.87 L-1848.96,1500.56 L-1818.63,1534.03 L-1818,1534.79 L-1791.1,1571.07 L-1790.55,1571.88 L-1767.33,1610.62 L-1766.87,1611.49 L-1747.56,1652.32 L-1747.18,1653.23 L-1731.97,1695.75 L-1731.68,1696.69 L-1720.71,1740.51 L-1720.52,1741.47 L-1713.89,1786.15 L-1713.79,1787.12 L-1711.58,1832.24 L-1711.56,1832.73 L-1711.58,1833.22 L-1713.79,1878.33 L-1713.89,1879.31 L-1720.52,1923.99 L-1720.71,1924.95 L-1731.68,1968.76 L-1731.97,1969.7 L-1747.18,2012.23 L-1747.56,2013.13 L-1766.87,2053.97 L-1767.33,2054.83 L-1790.55,2093.57 L-1791.1,2094.39 L-1818,2130.67 L-1818.63,2131.43 L-1848.96,2164.89 L-1849.65,2165.59 L-1883.12,2195.92 L-1883.88,2196.54 L-1920.16,2223.45 L-1920.97,2223.99 L-1959.71,2247.21 L-1960.58,2247.68 L-2001.41,2266.99 L-2002.32,2267.36 L-2044.84,2282.58 L-2045.78,2282.86 L-2089.6,2293.84 L-2090.56,2294.03 L-2135.24,2300.66 L-2136.21,2300.75 L-2181.33,2302.97 L-2182.31,2302.97 L-2227.42,2300.75 L-2228.4,2300.66 L-2273.08,2294.03 L-2274.04,2293.84 L-2317.85,2282.86 L-2318.79,2282.58 L-2361.32,2267.36 L-2362.23,2266.99 L-2403.06,2247.68 L-2403.92,2247.21 L-2442.66,2223.99 L-2443.48,2223.45 L-2479.76,2196.54 L-2480.52,2195.92 L-2513.98,2165.59 L-2514.68,2164.89 L-2545.01,2131.43 L-2545.63,2130.67 L-2572.54,2094.39 L-2573.08,2093.57 L-2596.3,2054.83 L-2596.77,2053.97 L-2616.08,2013.13 L-2616.45,2012.23 L-2631.67,1969.7 L-2631.96,1968.76 L-2642.93,1924.95 L-2643.12,1923.99 L-2649.75,1879.31 L-2649.84,1878.33 L-2652.06,1833.22 L-2652.06,1832.24 L-2649.84,1787.12 L-2649.75,1786.15 L-2643.12,1741.47 L-2642.93,1740.51 L-2631.96,1696.69 L-2631.67,1695.75 L-2616.45,1653.23 L-2616.08,1652.32 L-2596.77,1611.49 L-2596.3,1610.62 L-2573.08,1571.88 L-2572.54,1571.07 L-2545.63,1534.79 L-2545.01,1534.03 L-2519.09,1505.43 L-2519.09,1254.55 L-2518.09,1250.19 L-2515.3,1246.7 L-2511.26,1244.78 L-2020.35,1135.69 L-2016.06,1135.68 L-2012.16,1137.47 L-2009.37,1140.73 L-2008.2,1144.86 L-1992.74,1402.57"/>
</g>

<g fill="none" stroke="#000000" stroke-opacity="1" stroke-width="1" stroke-linecap="square" stroke-linejoin="bevel" transform="matrix(0.999702,0,0,-0.999702,3279.52,2909.54)"
font-family="MS Shell Dlg 2" font-size="10.3125" font-weight="400" font-style="normal" 
>
</g>

<g fill="none" stroke="#000000" stroke-opacity="1" stroke-width="1" stroke-linecap="square" stroke-linejoin="bevel" transform="matrix(0.999702,0,0,-0.999702,3279.52,2909.54)"
font-family="MS Shell Dlg 2" font-size="10.3125" font-weight="400" font-style="normal" 
>
</g>

<g fill="#333333" fill-opacity="0.2" stroke="#333333" stroke-opacity="1" stroke-width="1" stroke-linecap="round" stroke-linejoin="round" transform="matrix(0.999702,0,0,-0.999702,3279.52,2909.54)"
font-family="MS Shell Dlg 2" font-size="10.3125" font-weight="400" font-style="normal" 
>
<path vector-effect="non-scaling-stroke" fill-rule="evenodd" d="M-3280,167.273 L-3280,2909.09 L-1225.45,2909.09 L-1225.45,167.273 L-3280,167.273 M-1625.45,567.273 L-1625.45,2509.09 L-2880,2509.09 L-2880,567.273 L-1625.45,567.273"/>
</g>

<g fill="none" stroke="#000000" stroke-opacity="1" stroke-width="1" stroke-linecap="square" stroke-linejoin="bevel" transform="matrix(0.999702,0,0,-0.999702,3279.52,2909.54)"
font-family="MS Shell Dlg 2" font-size="10.3125" font-weight="400" font-style="normal" 
>
</g>

<g fill="none" stroke="#000000" stroke-opacity="1" stroke-width="1" stroke-linecap="square" stroke-linejoin="bevel" transform="matrix(0.999702,0,0,-0.999702,3279.52,2909.54)"
font-family="MS Shell Dlg 2" font-size="10.3125" font-weight="400" font-style="normal" 
>
</g>

<g fill="#333333" fill-opacity="0.2" stroke="#333333" stroke-opacity="1" stroke-width="1" stroke-linecap="round" stroke-linejoin="round" transform="matrix(0.999702,0,0,-0.999702,3279.52,2909.54)"
font-family="MS Shell Dlg 2" font-size="10.3125" font-weight="400" font-style="normal" 
>
<path vector-effect="non-scaling-stroke" fill-rule="evenodd" d="M-2519.09,1520.32 L-2537.6,1540.74 L-2564.51,1577.02 L-2587.73,1615.76 L-2607.04,1656.6 L-2622.25,1699.12 L-2633.23,1742.94 L-2639.86,1787.61 L-2642.07,1832.73 L-2639.86,1877.84 L-2633.23,1922.52 L-2622.25,1966.33 L-2607.04,2008.86 L-2587.73,2049.69 L-2564.51,2088.43 L-2537.6,2124.71 L-2507.27,2158.18 L-2473.8,2188.51 L-2437.52,2215.42 L-2398.78,2238.64 L-2357.95,2257.95 L-2315.42,2273.16 L-2271.61,2284.14 L-2226.93,2290.77 L-2181.82,2292.98 L-2136.71,2290.77 L-2092.03,2284.14 L-2048.21,2273.16 L-2005.69,2257.95 L-1964.86,2238.64 L-1926.11,2215.42 L-1889.84,2188.51 L-1856.37,2158.18 L-1826.04,2124.71 L-1799.13,2088.43 L-1775.91,2049.69 L-1756.6,2008.86 L-1741.38,1966.33 L-1730.41,1922.52 L-1723.78,1877.84 L-1721.56,1832.73 L-1723.78,1787.61 L-1730.41,1742.94 L-1741.38,1699.12 L-1756.6,1656.6 L-1775.91,1615.76 L-1799.13,1577.02 L-1826.04,1540.74 L-1856.37,1507.28 L-1889.84,1476.95 L-1926.11,1450.04 L-1964.86,1426.82 L-1992.05,1413.95 L-1975.47,1690.31 L-1976.07,1694.37 L-1978.25,1697.84 L-1981.63,1700.15 L-1985.66,1700.91 L-2509.3,1690 L-2513.06,1689.18 L-2516.24,1687 L-2518.35,1683.78 L-2519.09,1680 L-2519.09,1520.32"/>
</g>

<g fill="none" stroke="#000000" stroke-opacity="1" stroke-width="1" stroke-linecap="square" stroke-linejoin="bevel" transform="matrix(0.999702,0,0,-0.999702,3279.52,2909.54)"
font-family="MS Shell Dlg 2" font-size="10.3125" font-weight="400" font-style="normal" 
>
</g>

<g fill="none" stroke="#000000" stroke-opacity="1" stroke-width="1" stroke-linecap="square" stroke-linejoin="bevel" transform="matrix(1,0,0,-1,0,2742.82)"
font-family="MS Shell Dlg 2" font-size="10.3125" font-weight="400" font-style="normal" 
>
</g>
</g>
</svg>
