<?xml version="1.0" encoding="UTF-8" standalone="no"?>
<svg width="348.544mm" height="542.431mm"
 xmlns="http://www.w3.org/2000/svg" xmlns:xlink="http://www.w3.org/1999/xlink"  version="1.2" baseProfile="tiny">
<title>SVG Generator Example Drawing</title>
<desc>An SVG drawing created by the SVG Generator</desc>
<defs>
</defs>
<g fill="none" stroke="black" stroke-width="1" fill-rule="evenodd" stroke-linecap="square" stroke-linejoin="bevel" >

<g fill="none" stroke="#000000" stroke-opacity="1" stroke-width="1" stroke-linecap="square" stroke-linejoin="bevel" transform="matrix(1,0,0,-1,0,1922.82)"
font-family="MS Shell Dlg 2" font-size="10.3125" font-weight="400" font-style="normal" 
>
</g>

<g fill="none" stroke="#000000" stroke-opacity="1" stroke-width="1" stroke-linecap="square" stroke-linejoin="bevel" transform="matrix(1,0,0,-1,0,1922.82)"
font-family="MS Shell Dlg 2" font-size="10.3125" font-weight="400" font-style="normal" 
>
</g>

<g fill="none" stroke="#000000" stroke-opacity="1" stroke-width="1" stroke-linecap="square" stroke-linejoin="bevel" transform="matrix(0.999559,0,0,-0.999559,2869.23,2499.34)"
font-family="MS Shell Dlg 2" font-size="10.3125" font-weight="400" font-style="normal" 
>
</g>

<g fill="#333333" fill-opacity="0.2" stroke="#333333" stroke-opacity="1" stroke-width="1" stroke-linecap="round" stroke-linejoin="round" transform="matrix(0.999559,0,0,-0.999559,2869.23,2499.34)"
font-family="MS Shell Dlg 2" font-size="10.3125" font-weight="400" font-style="normal" 
>
<path vector-effect="non-scaling-stroke" fill-rule="evenodd" d="M-1635.45,577.273 L-2870,577.273 L-2870,2499.09 L-1635.45,2499.09 L-1635.45,577.273 M-2511.26,1244.78 L-2020.35,1135.69 L-2016.06,1135.68 L-2012.16,1137.47 L-2009.37,1140.73 L-2008.2,1144.86 L-1992.38,1408.48 L-1975.47,1690.31 L-1976.07,1694.37 L-1978.25,1697.84 L-1981.63,1700.15 L-1985.66,1700.91 L-2509.3,1690 L-2513.06,1689.18 L-2516.24,1687 L-2518.35,1683.78 L-2519.09,1680 L-2519.09,1254.55 L-2518.09,1250.19 L-2515.3,1246.7 L-2511.26,1244.78"/>
</g>

<g fill="none" stroke="#000000" stroke-opacity="1" stroke-width="1" stroke-linecap="square" stroke-linejoin="bevel" transform="matrix(0.999559,0,0,-0.999559,2869.23,2499.34)"
font-family="MS Shell Dlg 2" font-size="10.3125" font-weight="400" font-style="normal" 
>
</g>

<g fill="none" stroke="#000000" stroke-opacity="1" stroke-width="1" stroke-linecap="square" stroke-linejoin="bevel" transform="matrix(0.999559,0,0,-0.999559,2869.23,2499.34)"
font-family="MS Shell Dlg 2" font-size="10.3125" font-weight="400" font-style="normal" 
>
</g>

<g fill="#ae5151" fill-opacity="0.2" stroke="#333333" stroke-opacity="1" stroke-width="1" stroke-linecap="round" stroke-linejoin="round" transform="matrix(0.999559,0,0,-0.999559,2869.23,2499.34)"
font-family="MS Shell Dlg 2" font-size="10.3125" font-weight="400" font-style="normal" 
>
<path vector-effect="non-scaling-stroke" fill-rule="evenodd" d="M-1635.45,577.273 L-2870,577.273 L-2870,2499.09 L-1635.45,2499.09 L-1635.45,577.273 M-2511.26,1244.78 L-2020.35,1135.69 L-2016.06,1135.68 L-2012.16,1137.47 L-2009.37,1140.73 L-2008.2,1144.86 L-1992.38,1408.48 L-1975.47,1690.31 L-1976.07,1694.37 L-1978.25,1697.84 L-1981.63,1700.15 L-1985.66,1700.91 L-2509.3,1690 L-2513.06,1689.18 L-2516.24,1687 L-2518.35,1683.78 L-2519.09,1680 L-2519.09,1254.55 L-2518.09,1250.19 L-2515.3,1246.7 L-2511.26,1244.78"/>
</g>

<g fill="none" stroke="#000000" stroke-opacity="1" stroke-width="1" stroke-linecap="square" stroke-linejoin="bevel" transform="matrix(0.999559,0,0,-0.999559,2869.23,2499.34)"
font-family="MS Shell Dlg 2" font-size="10.3125" font-weight="400" font-style="normal" 
>
</g>

<g fill="none" stroke="#000000" stroke-opacity="1" stroke-width="1" stroke-linecap="square" stroke-linejoin="bevel" transform="matrix(0.999559,0,0,-0.999559,2869.23,2499.34)"
font-family="MS Shell Dlg 2" font-size="10.3125" font-weight="400" font-style="normal" 
>
</g>

<g fill="#ffff00" fill-opacity="0.2" stroke="#333333" stroke-opacity="1" stroke-width="1" stroke-linecap="round" stroke-linejoin="round" transform="matrix(0.999559,0,0,-0.999559,2869.23,2499.34)"
font-family="MS Shell Dlg 2" font-size="10.3125" font-weight="400" font-style="normal" 
>
<path vector-effect="non-scaling-stroke" fill-rule="evenodd" d="M-2519.09,1520.32 L-2537.6,1540.74 L-2564.51,1577.02 L-2587.73,1615.76 L-2607.04,1656.6 L-2622.25,1699.12 L-2633.23,1742.94 L-2639.86,1787.61 L-2642.07,1832.73 L-2639.86,1877.84 L-2633.23,1922.52 L-2622.25,1966.33 L-2607.04,2008.86 L-2587.73,2049.69 L-2564.51,2088.43 L-2537.6,2124.71 L-2507.27,2158.18 L-2473.8,2188.51 L-2437.52,2215.42 L-2398.78,2238.64 L-2357.95,2257.95 L-2315.42,2273.16 L-2271.61,2284.14 L-2226.93,2290.77 L-2181.82,2292.98 L-2136.71,2290.77 L-2092.03,2284.14 L-2048.21,2273.16 L-2005.69,2257.95 L-1964.86,2238.64 L-1926.11,2215.42 L-1889.84,2188.51 L-1856.37,2158.18 L-1826.04,2124.71 L-1799.13,2088.43 L-1775.91,2049.69 L-1756.6,2008.86 L-1741.38,1966.33 L-1730.41,1922.52 L-1723.78,1877.84 L-1721.56,1832.73 L-1723.78,1787.61 L-1730.41,1742.94 L-1741.38,1699.12 L-1756.6,1656.6 L-1775.91,1615.76 L-1799.13,1577.02 L-1826.04,1540.74 L-1856.37,1507.28 L-1889.84,1476.95 L-1926.11,1450.04 L-1964.86,1426.82 L-1992.05,1413.95 L-1975.47,1690.31 L-1976.07,1694.37 L-1978.25,1697.84 L-1981.63,1700.15 L-1985.66,1700.91 L-2509.3,1690 L-2513.06,1689.18 L-2516.24,1687 L-2518.35,1683.78 L-2519.09,1680 L-2519.09,1520.32"/>
</g>

<g fill="none" stroke="#000000" stroke-opacity="1" stroke-width="1" stroke-linecap="square" stroke-linejoin="bevel" transform="matrix(0.999559,0,0,-0.999559,2869.23,2499.34)"
font-family="MS Shell Dlg 2" font-size="10.3125" font-weight="400" font-style="normal" 
>
</g>

<g fill="none" stroke="#000000" stroke-opacity="1" stroke-width="1" stroke-linecap="square" stroke-linejoin="bevel" transform="matrix(0.999559,0,0,-0.999559,2869.23,2499.34)"
font-family="MS Shell Dlg 2" font-size="10.3125" font-weight="400" font-style="normal" 
>
</g>

<g fill="#ae5151" fill-opacity="0.2" stroke="#333333" stroke-opacity="1" stroke-width="1" stroke-linecap="round" stroke-linejoin="round" transform="matrix(0.999559,0,0,-0.999559,2869.23,2499.34)"
font-family="MS Shell Dlg 2" font-size="10.3125" font-weight="400" font-style="normal" 
>
<path vector-effect="non-scaling-stroke" fill-rule="evenodd" d="M-2519.09,1520.32 L-2537.6,1540.74 L-2564.51,1577.02 L-2587.73,1615.76 L-2607.04,1656.6 L-2622.25,1699.12 L-2633.23,1742.94 L-2639.86,1787.61 L-2642.07,1832.73 L-2639.86,1877.84 L-2633.23,1922.52 L-2622.25,1966.33 L-2607.04,2008.86 L-2587.73,2049.69 L-2564.51,2088.43 L-2537.6,2124.71 L-2507.27,2158.18 L-2473.8,2188.51 L-2437.52,2215.42 L-2398.78,2238.64 L-2357.95,2257.95 L-2315.42,2273.16 L-2271.61,2284.14 L-2226.93,2290.77 L-2181.82,2292.98 L-2136.71,2290.77 L-2092.03,2284.14 L-2048.21,2273.16 L-2005.69,2257.95 L-1964.86,2238.64 L-1926.11,2215.42 L-1889.84,2188.51 L-1856.37,2158.18 L-1826.04,2124.71 L-1799.13,2088.43 L-1775.91,2049.69 L-1756.6,2008.86 L-1741.38,1966.33 L-1730.41,1922.52 L-1723.78,1877.84 L-1721.56,1832.73 L-1723.78,1787.61 L-1730.41,1742.94 L-1741.38,1699.12 L-1756.6,1656.6 L-1775.91,1615.76 L-1799.13,1577.02 L-1826.04,1540.74 L-1856.37,1507.28 L-1889.84,1476.95 L-1926.11,1450.04 L-1964.86,1426.82 L-1992.05,1413.95 L-1975.47,1690.31 L-1976.07,1694.37 L-1978.25,1697.84 L-1981.63,1700.15 L-1985.66,1700.91 L-2509.3,1690 L-2513.06,1689.18 L-2516.24,1687 L-2518.35,1683.78 L-2519.09,1680 L-2519.09,1520.32"/>
</g>

<g fill="none" stroke="#000000" stroke-opacity="1" stroke-width="1" stroke-linecap="square" stroke-linejoin="bevel" transform="matrix(0.999559,0,0,-0.999559,2869.23,2499.34)"
font-family="MS Shell Dlg 2" font-size="10.3125" font-weight="400" font-style="normal" 
>
</g>

<g fill="none" stroke="#000000" stroke-opacity="1" stroke-width="1" stroke-linecap="square" stroke-linejoin="bevel" transform="matrix(0.999559,0,0,-0.999559,2869.23,2499.34)"
font-family="MS Shell Dlg 2" font-size="10.3125" font-weight="400" font-style="normal" 
>
</g>

<g fill="#333333" fill-opacity="0.2" stroke="#333333" stroke-opacity="1" stroke-width="1" stroke-linecap="round" stroke-linejoin="round" transform="matrix(0.999559,0,0,-0.999559,2869.23,2499.34)"
font-family="MS Shell Dlg 2" font-size="10.3125" font-weight="400" font-style="normal" 
>
<path vector-effect="non-scaling-stroke" fill-rule="evenodd" d="M-2519.09,1520.32 L-2537.6,1540.74 L-2564.51,1577.02 L-2587.73,1615.76 L-2607.04,1656.6 L-2622.25,1699.12 L-2633.23,1742.94 L-2639.86,1787.61 L-2642.07,1832.73 L-2639.86,1877.84 L-2633.23,1922.52 L-2622.25,1966.33 L-2607.04,2008.86 L-2587.73,2049.69 L-2564.51,2088.43 L-2537.6,2124.71 L-2507.27,2158.18 L-2473.8,2188.51 L-2437.52,2215.42 L-2398.78,2238.64 L-2357.95,2257.95 L-2315.42,2273.16 L-2271.61,2284.14 L-2226.93,2290.77 L-2181.82,2292.98 L-2136.71,2290.77 L-2092.03,2284.14 L-2048.21,2273.16 L-2005.69,2257.95 L-1964.86,2238.64 L-1926.11,2215.42 L-1889.84,2188.51 L-1856.37,2158.18 L-1826.04,2124.71 L-1799.13,2088.43 L-1775.91,2049.69 L-1756.6,2008.86 L-1741.38,1966.33 L-1730.41,1922.52 L-1723.78,1877.84 L-1721.56,1832.73 L-1723.78,1787.61 L-1730.41,1742.94 L-1741.38,1699.12 L-1756.6,1656.6 L-1775.91,1615.76 L-1799.13,1577.02 L-1826.04,1540.74 L-1856.37,1507.28 L-1889.84,1476.95 L-1926.11,1450.04 L-1964.86,1426.82 L-1992.05,1413.95 L-1975.47,1690.31 L-1976.07,1694.37 L-1978.25,1697.84 L-1981.63,1700.15 L-1985.66,1700.91 L-2509.3,1690 L-2513.06,1689.18 L-2516.24,1687 L-2518.35,1683.78 L-2519.09,1680 L-2519.09,1520.32"/>
</g>

<g fill="none" stroke="#000000" stroke-opacity="1" stroke-width="1" stroke-linecap="square" stroke-linejoin="bevel" transform="matrix(0.999559,0,0,-0.999559,2869.23,2499.34)"
font-family="MS Shell Dlg 2" font-size="10.3125" font-weight="400" font-style="normal" 
>
</g>

<g fill="none" stroke="#000000" stroke-opacity="1" stroke-width="1" stroke-linecap="square" stroke-linejoin="bevel" transform="matrix(1,0,0,-1,0,1922.82)"
font-family="MS Shell Dlg 2" font-size="10.3125" font-weight="400" font-style="normal" 
>
</g>
</g>
</svg>
