<?xml version="1.0" encoding="UTF-8" standalone="no"?>
<svg width="18791.2mm" height="19231.5mm"
 xmlns="http://www.w3.org/2000/svg" xmlns:xlink="http://www.w3.org/1999/xlink"  version="1.2" baseProfile="tiny">
<title>SVG Generator Example Drawing</title>
<desc>An SVG drawing created by the SVG Generator</desc>
<defs>
</defs>
<g fill="none" stroke="black" stroke-width="1" fill-rule="evenodd" stroke-linecap="square" stroke-linejoin="bevel" >

<g fill="none" stroke="#000000" stroke-opacity="1" stroke-width="1" stroke-linecap="square" stroke-linejoin="bevel" transform="matrix(1,0,0,-1,0,68143.7)"
font-family="MS Shell Dlg 2" font-size="10.3125" font-weight="400" font-style="normal" 
>
</g>

<g fill="none" stroke="#000000" stroke-opacity="1" stroke-width="1" stroke-linecap="square" stroke-linejoin="bevel" transform="matrix(1,0,0,-1,0,68143.7)"
font-family="MS Shell Dlg 2" font-size="10.3125" font-weight="400" font-style="normal" 
>
</g>

<g fill="none" stroke="#000000" stroke-opacity="1" stroke-width="1" stroke-linecap="square" stroke-linejoin="bevel" transform="matrix(0.999985,0,0,-0.999985,44407.6,36426.9)"
font-family="MS Shell Dlg 2" font-size="10.3125" font-weight="400" font-style="normal" 
>
</g>

<g fill="#333333" fill-opacity="0.2" stroke="#333333" stroke-opacity="1" stroke-width="1" stroke-linecap="round" stroke-linejoin="round" transform="matrix(0.999985,0,0,-0.999985,44407.6,36426.9)"
font-family="MS Shell Dlg 2" font-size="10.3125" font-weight="400" font-style="normal" 
>
<path vector-effect="non-scaling-stroke" fill-rule="evenodd" d="M-44407.8,-486.142 L-28788.7,35417.6 L-3648.03,933.779 L-44407.8,-486.142"/>
</g>

<g fill="none" stroke="#000000" stroke-opacity="1" stroke-width="1" stroke-linecap="square" stroke-linejoin="bevel" transform="matrix(0.999985,0,0,-0.999985,44407.6,36426.9)"
font-family="MS Shell Dlg 2" font-size="10.3125" font-weight="400" font-style="normal" 
>
</g>

<g fill="none" stroke="#000000" stroke-opacity="1" stroke-width="1" stroke-linecap="square" stroke-linejoin="bevel" transform="matrix(0.999985,0,0,-0.999985,44407.6,36426.9)"
font-family="MS Shell Dlg 2" font-size="10.3125" font-weight="400" font-style="normal" 
>
</g>

<g fill="#333333" fill-opacity="0.2" stroke="#333333" stroke-opacity="1" stroke-width="1" stroke-linecap="round" stroke-linejoin="round" transform="matrix(0.999985,0,0,-0.999985,44407.6,36426.9)"
font-family="MS Shell Dlg 2" font-size="10.3125" font-weight="400" font-style="normal" 
>
<path vector-effect="non-scaling-stroke" fill-rule="evenodd" d="M-27048.7,36425.9 L15629.7,34596.9 L-1860.42,1876.75 L-27048.7,36425.9"/>
</g>

<g fill="none" stroke="#000000" stroke-opacity="1" stroke-width="1" stroke-linecap="square" stroke-linejoin="bevel" transform="matrix(0.999985,0,0,-0.999985,44407.6,36426.9)"
font-family="MS Shell Dlg 2" font-size="10.3125" font-weight="400" font-style="normal" 
>
</g>

<g fill="none" stroke="#000000" stroke-opacity="1" stroke-width="1" stroke-linecap="square" stroke-linejoin="bevel" transform="matrix(0.999985,0,0,-0.999985,44407.6,36426.9)"
font-family="MS Shell Dlg 2" font-size="10.3125" font-weight="400" font-style="normal" 
>
</g>

<g fill="#333333" fill-opacity="0.2" stroke="#333333" stroke-opacity="1" stroke-width="1" stroke-linecap="round" stroke-linejoin="round" transform="matrix(0.999985,0,0,-0.999985,44407.6,36426.9)"
font-family="MS Shell Dlg 2" font-size="10.3125" font-weight="400" font-style="normal" 
>
<path vector-effect="non-scaling-stroke" fill-rule="evenodd" d="M2626.58,-31716.8 L-25782.5,-30524.8 L-2352.05,-2314.43 L2626.58,-31716.8"/>
</g>

<g fill="none" stroke="#000000" stroke-opacity="1" stroke-width="1" stroke-linecap="square" stroke-linejoin="bevel" transform="matrix(0.999985,0,0,-0.999985,44407.6,36426.9)"
font-family="MS Shell Dlg 2" font-size="10.3125" font-weight="400" font-style="normal" 
>
</g>

<g fill="none" stroke="#000000" stroke-opacity="1" stroke-width="1" stroke-linecap="square" stroke-linejoin="bevel" transform="matrix(0.999985,0,0,-0.999985,44407.6,36426.9)"
font-family="MS Shell Dlg 2" font-size="10.3125" font-weight="400" font-style="normal" 
>
</g>

<g fill="#333333" fill-opacity="0.2" stroke="#333333" stroke-opacity="1" stroke-width="1" stroke-linecap="round" stroke-linejoin="round" transform="matrix(0.999985,0,0,-0.999985,44407.6,36426.9)"
font-family="MS Shell Dlg 2" font-size="10.3125" font-weight="400" font-style="normal" 
>
<path vector-effect="non-scaling-stroke" fill-rule="evenodd" d="M21588.2,-13407.1 L4512.56,-30875.3 L-406.112,-1827.01 L21588.2,-13407.1"/>
</g>

<g fill="none" stroke="#000000" stroke-opacity="1" stroke-width="1" stroke-linecap="square" stroke-linejoin="bevel" transform="matrix(0.999985,0,0,-0.999985,44407.6,36426.9)"
font-family="MS Shell Dlg 2" font-size="10.3125" font-weight="400" font-style="normal" 
>
</g>

<g fill="none" stroke="#000000" stroke-opacity="1" stroke-width="1" stroke-linecap="square" stroke-linejoin="bevel" transform="matrix(0.999985,0,0,-0.999985,44407.6,36426.9)"
font-family="MS Shell Dlg 2" font-size="10.3125" font-weight="400" font-style="normal" 
>
</g>

<g fill="#333333" fill-opacity="0.2" stroke="#333333" stroke-opacity="1" stroke-width="1" stroke-linecap="round" stroke-linejoin="round" transform="matrix(0.999985,0,0,-0.999985,44407.6,36426.9)"
font-family="MS Shell Dlg 2" font-size="10.3125" font-weight="400" font-style="normal" 
>
<path vector-effect="non-scaling-stroke" fill-rule="evenodd" d="M-27591.6,-29572.7 L-44247.5,-2481.77 L-3924.2,-1077.05 L-27591.6,-29572.7"/>
</g>

<g fill="none" stroke="#000000" stroke-opacity="1" stroke-width="1" stroke-linecap="square" stroke-linejoin="bevel" transform="matrix(0.999985,0,0,-0.999985,44407.6,36426.9)"
font-family="MS Shell Dlg 2" font-size="10.3125" font-weight="400" font-style="normal" 
>
</g>

<g fill="none" stroke="#000000" stroke-opacity="1" stroke-width="1" stroke-linecap="square" stroke-linejoin="bevel" transform="matrix(0.999985,0,0,-0.999985,44407.6,36426.9)"
font-family="MS Shell Dlg 2" font-size="10.3125" font-weight="400" font-style="normal" 
>
</g>

<g fill="#333333" fill-opacity="0.2" stroke="#333333" stroke-opacity="1" stroke-width="1" stroke-linecap="round" stroke-linejoin="round" transform="matrix(0.999985,0,0,-0.999985,44407.6,36426.9)"
font-family="MS Shell Dlg 2" font-size="10.3125" font-weight="400" font-style="normal" 
>
<path vector-effect="non-scaling-stroke" fill-rule="evenodd" d="M16943.5,32812.2 L22175.2,-11455.8 L-373.418,416.045 L16943.5,32812.2"/>
</g>

<g fill="none" stroke="#000000" stroke-opacity="1" stroke-width="1" stroke-linecap="square" stroke-linejoin="bevel" transform="matrix(0.999985,0,0,-0.999985,44407.6,36426.9)"
font-family="MS Shell Dlg 2" font-size="10.3125" font-weight="400" font-style="normal" 
>
</g>

<g fill="none" stroke="#000000" stroke-opacity="1" stroke-width="1" stroke-linecap="square" stroke-linejoin="bevel" transform="matrix(0.999985,0,0,-0.999985,44407.6,36426.9)"
font-family="MS Shell Dlg 2" font-size="10.3125" font-weight="400" font-style="normal" 
>
</g>

<g fill="#ae5151" fill-opacity="0.2" stroke="#333333" stroke-opacity="1" stroke-width="1" stroke-linecap="round" stroke-linejoin="round" transform="matrix(0.999985,0,0,-0.999985,44407.6,36426.9)"
font-family="MS Shell Dlg 2" font-size="10.3125" font-weight="400" font-style="normal" 
>
<path vector-effect="non-scaling-stroke" fill-rule="evenodd" d="M-44407.8,-486.142 L-28788.7,35417.6 L-3648.03,933.779 L-44407.8,-486.142"/>
</g>

<g fill="none" stroke="#000000" stroke-opacity="1" stroke-width="1" stroke-linecap="square" stroke-linejoin="bevel" transform="matrix(0.999985,0,0,-0.999985,44407.6,36426.9)"
font-family="MS Shell Dlg 2" font-size="10.3125" font-weight="400" font-style="normal" 
>
</g>

<g fill="none" stroke="#000000" stroke-opacity="1" stroke-width="1" stroke-linecap="square" stroke-linejoin="bevel" transform="matrix(0.999985,0,0,-0.999985,44407.6,36426.9)"
font-family="MS Shell Dlg 2" font-size="10.3125" font-weight="400" font-style="normal" 
>
</g>

<g fill="#ae5151" fill-opacity="0.2" stroke="#333333" stroke-opacity="1" stroke-width="1" stroke-linecap="round" stroke-linejoin="round" transform="matrix(0.999985,0,0,-0.999985,44407.6,36426.9)"
font-family="MS Shell Dlg 2" font-size="10.3125" font-weight="400" font-style="normal" 
>
<path vector-effect="non-scaling-stroke" fill-rule="evenodd" d="M-27048.7,36425.9 L15629.7,34596.9 L-1860.42,1876.75 L-27048.7,36425.9"/>
</g>

<g fill="none" stroke="#000000" stroke-opacity="1" stroke-width="1" stroke-linecap="square" stroke-linejoin="bevel" transform="matrix(0.999985,0,0,-0.999985,44407.6,36426.9)"
font-family="MS Shell Dlg 2" font-size="10.3125" font-weight="400" font-style="normal" 
>
</g>

<g fill="none" stroke="#000000" stroke-opacity="1" stroke-width="1" stroke-linecap="square" stroke-linejoin="bevel" transform="matrix(0.999985,0,0,-0.999985,44407.6,36426.9)"
font-family="MS Shell Dlg 2" font-size="10.3125" font-weight="400" font-style="normal" 
>
</g>

<g fill="#ae5151" fill-opacity="0.2" stroke="#333333" stroke-opacity="1" stroke-width="1" stroke-linecap="round" stroke-linejoin="round" transform="matrix(0.999985,0,0,-0.999985,44407.6,36426.9)"
font-family="MS Shell Dlg 2" font-size="10.3125" font-weight="400" font-style="normal" 
>
<path vector-effect="non-scaling-stroke" fill-rule="evenodd" d="M2626.58,-31716.8 L-25782.5,-30524.8 L-2352.05,-2314.43 L2626.58,-31716.8"/>
</g>

<g fill="none" stroke="#000000" stroke-opacity="1" stroke-width="1" stroke-linecap="square" stroke-linejoin="bevel" transform="matrix(0.999985,0,0,-0.999985,44407.6,36426.9)"
font-family="MS Shell Dlg 2" font-size="10.3125" font-weight="400" font-style="normal" 
>
</g>

<g fill="none" stroke="#000000" stroke-opacity="1" stroke-width="1" stroke-linecap="square" stroke-linejoin="bevel" transform="matrix(0.999985,0,0,-0.999985,44407.6,36426.9)"
font-family="MS Shell Dlg 2" font-size="10.3125" font-weight="400" font-style="normal" 
>
</g>

<g fill="#ae5151" fill-opacity="0.2" stroke="#333333" stroke-opacity="1" stroke-width="1" stroke-linecap="round" stroke-linejoin="round" transform="matrix(0.999985,0,0,-0.999985,44407.6,36426.9)"
font-family="MS Shell Dlg 2" font-size="10.3125" font-weight="400" font-style="normal" 
>
<path vector-effect="non-scaling-stroke" fill-rule="evenodd" d="M21588.2,-13407.1 L4512.56,-30875.3 L-406.112,-1827.01 L21588.2,-13407.1"/>
</g>

<g fill="none" stroke="#000000" stroke-opacity="1" stroke-width="1" stroke-linecap="square" stroke-linejoin="bevel" transform="matrix(0.999985,0,0,-0.999985,44407.6,36426.9)"
font-family="MS Shell Dlg 2" font-size="10.3125" font-weight="400" font-style="normal" 
>
</g>

<g fill="none" stroke="#000000" stroke-opacity="1" stroke-width="1" stroke-linecap="square" stroke-linejoin="bevel" transform="matrix(0.999985,0,0,-0.999985,44407.6,36426.9)"
font-family="MS Shell Dlg 2" font-size="10.3125" font-weight="400" font-style="normal" 
>
</g>

<g fill="#ae5151" fill-opacity="0.2" stroke="#333333" stroke-opacity="1" stroke-width="1" stroke-linecap="round" stroke-linejoin="round" transform="matrix(0.999985,0,0,-0.999985,44407.6,36426.9)"
font-family="MS Shell Dlg 2" font-size="10.3125" font-weight="400" font-style="normal" 
>
<path vector-effect="non-scaling-stroke" fill-rule="evenodd" d="M-27591.6,-29572.7 L-44247.5,-2481.77 L-3924.2,-1077.05 L-27591.6,-29572.7"/>
</g>

<g fill="none" stroke="#000000" stroke-opacity="1" stroke-width="1" stroke-linecap="square" stroke-linejoin="bevel" transform="matrix(0.999985,0,0,-0.999985,44407.6,36426.9)"
font-family="MS Shell Dlg 2" font-size="10.3125" font-weight="400" font-style="normal" 
>
</g>

<g fill="none" stroke="#000000" stroke-opacity="1" stroke-width="1" stroke-linecap="square" stroke-linejoin="bevel" transform="matrix(0.999985,0,0,-0.999985,44407.6,36426.9)"
font-family="MS Shell Dlg 2" font-size="10.3125" font-weight="400" font-style="normal" 
>
</g>

<g fill="#ae5151" fill-opacity="0.2" stroke="#333333" stroke-opacity="1" stroke-width="1" stroke-linecap="round" stroke-linejoin="round" transform="matrix(0.999985,0,0,-0.999985,44407.6,36426.9)"
font-family="MS Shell Dlg 2" font-size="10.3125" font-weight="400" font-style="normal" 
>
<path vector-effect="non-scaling-stroke" fill-rule="evenodd" d="M16943.5,32812.2 L22175.2,-11455.8 L-373.418,416.045 L16943.5,32812.2"/>
</g>

<g fill="none" stroke="#000000" stroke-opacity="1" stroke-width="1" stroke-linecap="square" stroke-linejoin="bevel" transform="matrix(0.999985,0,0,-0.999985,44407.6,36426.9)"
font-family="MS Shell Dlg 2" font-size="10.3125" font-weight="400" font-style="normal" 
>
</g>

<g fill="none" stroke="#000000" stroke-opacity="1" stroke-width="1" stroke-linecap="square" stroke-linejoin="bevel" transform="matrix(0.999985,0,0,-0.999985,44407.6,36426.9)"
font-family="MS Shell Dlg 2" font-size="10.3125" font-weight="400" font-style="normal" 
>
</g>

<g fill="#ffff00" fill-opacity="0.2" stroke="#333333" stroke-opacity="1" stroke-width="1" stroke-linecap="round" stroke-linejoin="round" transform="matrix(0.999985,0,0,-0.999985,44407.6,36426.9)"
font-family="MS Shell Dlg 2" font-size="10.3125" font-weight="400" font-style="normal" 
>
<path vector-effect="non-scaling-stroke" fill-rule="evenodd" d="M-44407.8,-486.142 L-28788.7,35417.6 L-3648.03,933.779 L-44407.8,-486.142"/>
</g>

<g fill="none" stroke="#000000" stroke-opacity="1" stroke-width="1" stroke-linecap="square" stroke-linejoin="bevel" transform="matrix(0.999985,0,0,-0.999985,44407.6,36426.9)"
font-family="MS Shell Dlg 2" font-size="10.3125" font-weight="400" font-style="normal" 
>
</g>

<g fill="none" stroke="#000000" stroke-opacity="1" stroke-width="1" stroke-linecap="square" stroke-linejoin="bevel" transform="matrix(0.999985,0,0,-0.999985,44407.6,36426.9)"
font-family="MS Shell Dlg 2" font-size="10.3125" font-weight="400" font-style="normal" 
>
</g>

<g fill="#ffff00" fill-opacity="0.2" stroke="#333333" stroke-opacity="1" stroke-width="1" stroke-linecap="round" stroke-linejoin="round" transform="matrix(0.999985,0,0,-0.999985,44407.6,36426.9)"
font-family="MS Shell Dlg 2" font-size="10.3125" font-weight="400" font-style="normal" 
>
<path vector-effect="non-scaling-stroke" fill-rule="evenodd" d="M-27048.7,36425.9 L15629.7,34596.9 L-1860.42,1876.75 L-27048.7,36425.9"/>
</g>

<g fill="none" stroke="#000000" stroke-opacity="1" stroke-width="1" stroke-linecap="square" stroke-linejoin="bevel" transform="matrix(0.999985,0,0,-0.999985,44407.6,36426.9)"
font-family="MS Shell Dlg 2" font-size="10.3125" font-weight="400" font-style="normal" 
>
</g>

<g fill="none" stroke="#000000" stroke-opacity="1" stroke-width="1" stroke-linecap="square" stroke-linejoin="bevel" transform="matrix(0.999985,0,0,-0.999985,44407.6,36426.9)"
font-family="MS Shell Dlg 2" font-size="10.3125" font-weight="400" font-style="normal" 
>
</g>

<g fill="#ffff00" fill-opacity="0.2" stroke="#333333" stroke-opacity="1" stroke-width="1" stroke-linecap="round" stroke-linejoin="round" transform="matrix(0.999985,0,0,-0.999985,44407.6,36426.9)"
font-family="MS Shell Dlg 2" font-size="10.3125" font-weight="400" font-style="normal" 
>
<path vector-effect="non-scaling-stroke" fill-rule="evenodd" d="M2626.58,-31716.8 L-25782.5,-30524.8 L-2352.05,-2314.43 L2626.58,-31716.8"/>
</g>

<g fill="none" stroke="#000000" stroke-opacity="1" stroke-width="1" stroke-linecap="square" stroke-linejoin="bevel" transform="matrix(0.999985,0,0,-0.999985,44407.6,36426.9)"
font-family="MS Shell Dlg 2" font-size="10.3125" font-weight="400" font-style="normal" 
>
</g>

<g fill="none" stroke="#000000" stroke-opacity="1" stroke-width="1" stroke-linecap="square" stroke-linejoin="bevel" transform="matrix(0.999985,0,0,-0.999985,44407.6,36426.9)"
font-family="MS Shell Dlg 2" font-size="10.3125" font-weight="400" font-style="normal" 
>
</g>

<g fill="#ffff00" fill-opacity="0.2" stroke="#333333" stroke-opacity="1" stroke-width="1" stroke-linecap="round" stroke-linejoin="round" transform="matrix(0.999985,0,0,-0.999985,44407.6,36426.9)"
font-family="MS Shell Dlg 2" font-size="10.3125" font-weight="400" font-style="normal" 
>
<path vector-effect="non-scaling-stroke" fill-rule="evenodd" d="M21588.2,-13407.1 L4512.56,-30875.3 L-406.112,-1827.01 L21588.2,-13407.1"/>
</g>

<g fill="none" stroke="#000000" stroke-opacity="1" stroke-width="1" stroke-linecap="square" stroke-linejoin="bevel" transform="matrix(0.999985,0,0,-0.999985,44407.6,36426.9)"
font-family="MS Shell Dlg 2" font-size="10.3125" font-weight="400" font-style="normal" 
>
</g>

<g fill="none" stroke="#000000" stroke-opacity="1" stroke-width="1" stroke-linecap="square" stroke-linejoin="bevel" transform="matrix(0.999985,0,0,-0.999985,44407.6,36426.9)"
font-family="MS Shell Dlg 2" font-size="10.3125" font-weight="400" font-style="normal" 
>
</g>

<g fill="#ffff00" fill-opacity="0.2" stroke="#333333" stroke-opacity="1" stroke-width="1" stroke-linecap="round" stroke-linejoin="round" transform="matrix(0.999985,0,0,-0.999985,44407.6,36426.9)"
font-family="MS Shell Dlg 2" font-size="10.3125" font-weight="400" font-style="normal" 
>
<path vector-effect="non-scaling-stroke" fill-rule="evenodd" d="M-27591.6,-29572.7 L-44247.5,-2481.77 L-3924.2,-1077.05 L-27591.6,-29572.7"/>
</g>

<g fill="none" stroke="#000000" stroke-opacity="1" stroke-width="1" stroke-linecap="square" stroke-linejoin="bevel" transform="matrix(0.999985,0,0,-0.999985,44407.6,36426.9)"
font-family="MS Shell Dlg 2" font-size="10.3125" font-weight="400" font-style="normal" 
>
</g>

<g fill="none" stroke="#000000" stroke-opacity="1" stroke-width="1" stroke-linecap="square" stroke-linejoin="bevel" transform="matrix(0.999985,0,0,-0.999985,44407.6,36426.9)"
font-family="MS Shell Dlg 2" font-size="10.3125" font-weight="400" font-style="normal" 
>
</g>

<g fill="#ffff00" fill-opacity="0.2" stroke="#333333" stroke-opacity="1" stroke-width="1" stroke-linecap="round" stroke-linejoin="round" transform="matrix(0.999985,0,0,-0.999985,44407.6,36426.9)"
font-family="MS Shell Dlg 2" font-size="10.3125" font-weight="400" font-style="normal" 
>
<path vector-effect="non-scaling-stroke" fill-rule="evenodd" d="M16943.5,32812.2 L22175.2,-11455.8 L-373.418,416.045 L16943.5,32812.2"/>
</g>

<g fill="none" stroke="#000000" stroke-opacity="1" stroke-width="1" stroke-linecap="square" stroke-linejoin="bevel" transform="matrix(0.999985,0,0,-0.999985,44407.6,36426.9)"
font-family="MS Shell Dlg 2" font-size="10.3125" font-weight="400" font-style="normal" 
>
</g>

<g fill="none" stroke="#000000" stroke-opacity="1" stroke-width="1" stroke-linecap="square" stroke-linejoin="bevel" transform="matrix(0.999985,0,0,-0.999985,44407.6,36426.9)"
font-family="MS Shell Dlg 2" font-size="10.3125" font-weight="400" font-style="normal" 
>
</g>

<g fill="#ae5151" fill-opacity="0.2" stroke="#333333" stroke-opacity="1" stroke-width="1" stroke-linecap="round" stroke-linejoin="round" transform="matrix(0.999985,0,0,-0.999985,44407.6,36426.9)"
font-family="MS Shell Dlg 2" font-size="10.3125" font-weight="400" font-style="normal" 
>
<path vector-effect="non-scaling-stroke" fill-rule="evenodd" d="M-44407.8,-486.142 L-28788.7,35417.6 L-3648.03,933.779 L-44407.8,-486.142"/>
</g>

<g fill="none" stroke="#000000" stroke-opacity="1" stroke-width="1" stroke-linecap="square" stroke-linejoin="bevel" transform="matrix(0.999985,0,0,-0.999985,44407.6,36426.9)"
font-family="MS Shell Dlg 2" font-size="10.3125" font-weight="400" font-style="normal" 
>
</g>

<g fill="none" stroke="#000000" stroke-opacity="1" stroke-width="1" stroke-linecap="square" stroke-linejoin="bevel" transform="matrix(0.999985,0,0,-0.999985,44407.6,36426.9)"
font-family="MS Shell Dlg 2" font-size="10.3125" font-weight="400" font-style="normal" 
>
</g>

<g fill="#ae5151" fill-opacity="0.2" stroke="#333333" stroke-opacity="1" stroke-width="1" stroke-linecap="round" stroke-linejoin="round" transform="matrix(0.999985,0,0,-0.999985,44407.6,36426.9)"
font-family="MS Shell Dlg 2" font-size="10.3125" font-weight="400" font-style="normal" 
>
<path vector-effect="non-scaling-stroke" fill-rule="evenodd" d="M-27048.7,36425.9 L15629.7,34596.9 L-1860.42,1876.75 L-27048.7,36425.9"/>
</g>

<g fill="none" stroke="#000000" stroke-opacity="1" stroke-width="1" stroke-linecap="square" stroke-linejoin="bevel" transform="matrix(0.999985,0,0,-0.999985,44407.6,36426.9)"
font-family="MS Shell Dlg 2" font-size="10.3125" font-weight="400" font-style="normal" 
>
</g>

<g fill="none" stroke="#000000" stroke-opacity="1" stroke-width="1" stroke-linecap="square" stroke-linejoin="bevel" transform="matrix(0.999985,0,0,-0.999985,44407.6,36426.9)"
font-family="MS Shell Dlg 2" font-size="10.3125" font-weight="400" font-style="normal" 
>
</g>

<g fill="#ae5151" fill-opacity="0.2" stroke="#333333" stroke-opacity="1" stroke-width="1" stroke-linecap="round" stroke-linejoin="round" transform="matrix(0.999985,0,0,-0.999985,44407.6,36426.9)"
font-family="MS Shell Dlg 2" font-size="10.3125" font-weight="400" font-style="normal" 
>
<path vector-effect="non-scaling-stroke" fill-rule="evenodd" d="M2626.58,-31716.8 L-25782.5,-30524.8 L-2352.05,-2314.43 L2626.58,-31716.8"/>
</g>

<g fill="none" stroke="#000000" stroke-opacity="1" stroke-width="1" stroke-linecap="square" stroke-linejoin="bevel" transform="matrix(0.999985,0,0,-0.999985,44407.6,36426.9)"
font-family="MS Shell Dlg 2" font-size="10.3125" font-weight="400" font-style="normal" 
>
</g>

<g fill="none" stroke="#000000" stroke-opacity="1" stroke-width="1" stroke-linecap="square" stroke-linejoin="bevel" transform="matrix(0.999985,0,0,-0.999985,44407.6,36426.9)"
font-family="MS Shell Dlg 2" font-size="10.3125" font-weight="400" font-style="normal" 
>
</g>

<g fill="#ae5151" fill-opacity="0.2" stroke="#333333" stroke-opacity="1" stroke-width="1" stroke-linecap="round" stroke-linejoin="round" transform="matrix(0.999985,0,0,-0.999985,44407.6,36426.9)"
font-family="MS Shell Dlg 2" font-size="10.3125" font-weight="400" font-style="normal" 
>
<path vector-effect="non-scaling-stroke" fill-rule="evenodd" d="M21588.2,-13407.1 L4512.56,-30875.3 L-406.112,-1827.01 L21588.2,-13407.1"/>
</g>

<g fill="none" stroke="#000000" stroke-opacity="1" stroke-width="1" stroke-linecap="square" stroke-linejoin="bevel" transform="matrix(0.999985,0,0,-0.999985,44407.6,36426.9)"
font-family="MS Shell Dlg 2" font-size="10.3125" font-weight="400" font-style="normal" 
>
</g>

<g fill="none" stroke="#000000" stroke-opacity="1" stroke-width="1" stroke-linecap="square" stroke-linejoin="bevel" transform="matrix(0.999985,0,0,-0.999985,44407.6,36426.9)"
font-family="MS Shell Dlg 2" font-size="10.3125" font-weight="400" font-style="normal" 
>
</g>

<g fill="#ae5151" fill-opacity="0.2" stroke="#333333" stroke-opacity="1" stroke-width="1" stroke-linecap="round" stroke-linejoin="round" transform="matrix(0.999985,0,0,-0.999985,44407.6,36426.9)"
font-family="MS Shell Dlg 2" font-size="10.3125" font-weight="400" font-style="normal" 
>
<path vector-effect="non-scaling-stroke" fill-rule="evenodd" d="M-27591.6,-29572.7 L-44247.5,-2481.77 L-3924.2,-1077.05 L-27591.6,-29572.7"/>
</g>

<g fill="none" stroke="#000000" stroke-opacity="1" stroke-width="1" stroke-linecap="square" stroke-linejoin="bevel" transform="matrix(0.999985,0,0,-0.999985,44407.6,36426.9)"
font-family="MS Shell Dlg 2" font-size="10.3125" font-weight="400" font-style="normal" 
>
</g>

<g fill="none" stroke="#000000" stroke-opacity="1" stroke-width="1" stroke-linecap="square" stroke-linejoin="bevel" transform="matrix(0.999985,0,0,-0.999985,44407.6,36426.9)"
font-family="MS Shell Dlg 2" font-size="10.3125" font-weight="400" font-style="normal" 
>
</g>

<g fill="#ae5151" fill-opacity="0.2" stroke="#333333" stroke-opacity="1" stroke-width="1" stroke-linecap="round" stroke-linejoin="round" transform="matrix(0.999985,0,0,-0.999985,44407.6,36426.9)"
font-family="MS Shell Dlg 2" font-size="10.3125" font-weight="400" font-style="normal" 
>
<path vector-effect="non-scaling-stroke" fill-rule="evenodd" d="M16943.5,32812.2 L22175.2,-11455.8 L-373.418,416.045 L16943.5,32812.2"/>
</g>

<g fill="none" stroke="#000000" stroke-opacity="1" stroke-width="1" stroke-linecap="square" stroke-linejoin="bevel" transform="matrix(0.999985,0,0,-0.999985,44407.6,36426.9)"
font-family="MS Shell Dlg 2" font-size="10.3125" font-weight="400" font-style="normal" 
>
</g>

<g fill="none" stroke="#000000" stroke-opacity="1" stroke-width="1" stroke-linecap="square" stroke-linejoin="bevel" transform="matrix(0.999985,0,0,-0.999985,44407.6,36426.9)"
font-family="MS Shell Dlg 2" font-size="10.3125" font-weight="400" font-style="normal" 
>
</g>

<g fill="#333333" fill-opacity="0.2" stroke="#333333" stroke-opacity="1" stroke-width="1" stroke-linecap="round" stroke-linejoin="round" transform="matrix(0.999985,0,0,-0.999985,44407.6,36426.9)"
font-family="MS Shell Dlg 2" font-size="10.3125" font-weight="400" font-style="normal" 
>
<path vector-effect="non-scaling-stroke" fill-rule="evenodd" d="M-44407.8,-486.142 L-28788.7,35417.6 L-3648.03,933.779 L-44407.8,-486.142"/>
</g>

<g fill="none" stroke="#000000" stroke-opacity="1" stroke-width="1" stroke-linecap="square" stroke-linejoin="bevel" transform="matrix(0.999985,0,0,-0.999985,44407.6,36426.9)"
font-family="MS Shell Dlg 2" font-size="10.3125" font-weight="400" font-style="normal" 
>
</g>

<g fill="none" stroke="#000000" stroke-opacity="1" stroke-width="1" stroke-linecap="square" stroke-linejoin="bevel" transform="matrix(0.999985,0,0,-0.999985,44407.6,36426.9)"
font-family="MS Shell Dlg 2" font-size="10.3125" font-weight="400" font-style="normal" 
>
</g>

<g fill="#333333" fill-opacity="0.2" stroke="#333333" stroke-opacity="1" stroke-width="1" stroke-linecap="round" stroke-linejoin="round" transform="matrix(0.999985,0,0,-0.999985,44407.6,36426.9)"
font-family="MS Shell Dlg 2" font-size="10.3125" font-weight="400" font-style="normal" 
>
<path vector-effect="non-scaling-stroke" fill-rule="evenodd" d="M-27048.7,36425.9 L15629.7,34596.9 L-1860.42,1876.75 L-27048.7,36425.9"/>
</g>

<g fill="none" stroke="#000000" stroke-opacity="1" stroke-width="1" stroke-linecap="square" stroke-linejoin="bevel" transform="matrix(0.999985,0,0,-0.999985,44407.6,36426.9)"
font-family="MS Shell Dlg 2" font-size="10.3125" font-weight="400" font-style="normal" 
>
</g>

<g fill="none" stroke="#000000" stroke-opacity="1" stroke-width="1" stroke-linecap="square" stroke-linejoin="bevel" transform="matrix(0.999985,0,0,-0.999985,44407.6,36426.9)"
font-family="MS Shell Dlg 2" font-size="10.3125" font-weight="400" font-style="normal" 
>
</g>

<g fill="#333333" fill-opacity="0.2" stroke="#333333" stroke-opacity="1" stroke-width="1" stroke-linecap="round" stroke-linejoin="round" transform="matrix(0.999985,0,0,-0.999985,44407.6,36426.9)"
font-family="MS Shell Dlg 2" font-size="10.3125" font-weight="400" font-style="normal" 
>
<path vector-effect="non-scaling-stroke" fill-rule="evenodd" d="M2626.58,-31716.8 L-25782.5,-30524.8 L-2352.05,-2314.43 L2626.58,-31716.8"/>
</g>

<g fill="none" stroke="#000000" stroke-opacity="1" stroke-width="1" stroke-linecap="square" stroke-linejoin="bevel" transform="matrix(0.999985,0,0,-0.999985,44407.6,36426.9)"
font-family="MS Shell Dlg 2" font-size="10.3125" font-weight="400" font-style="normal" 
>
</g>

<g fill="none" stroke="#000000" stroke-opacity="1" stroke-width="1" stroke-linecap="square" stroke-linejoin="bevel" transform="matrix(0.999985,0,0,-0.999985,44407.6,36426.9)"
font-family="MS Shell Dlg 2" font-size="10.3125" font-weight="400" font-style="normal" 
>
</g>

<g fill="#333333" fill-opacity="0.2" stroke="#333333" stroke-opacity="1" stroke-width="1" stroke-linecap="round" stroke-linejoin="round" transform="matrix(0.999985,0,0,-0.999985,44407.6,36426.9)"
font-family="MS Shell Dlg 2" font-size="10.3125" font-weight="400" font-style="normal" 
>
<path vector-effect="non-scaling-stroke" fill-rule="evenodd" d="M21588.2,-13407.1 L4512.56,-30875.3 L-406.112,-1827.01 L21588.2,-13407.1"/>
</g>

<g fill="none" stroke="#000000" stroke-opacity="1" stroke-width="1" stroke-linecap="square" stroke-linejoin="bevel" transform="matrix(0.999985,0,0,-0.999985,44407.6,36426.9)"
font-family="MS Shell Dlg 2" font-size="10.3125" font-weight="400" font-style="normal" 
>
</g>

<g fill="none" stroke="#000000" stroke-opacity="1" stroke-width="1" stroke-linecap="square" stroke-linejoin="bevel" transform="matrix(0.999985,0,0,-0.999985,44407.6,36426.9)"
font-family="MS Shell Dlg 2" font-size="10.3125" font-weight="400" font-style="normal" 
>
</g>

<g fill="#333333" fill-opacity="0.2" stroke="#333333" stroke-opacity="1" stroke-width="1" stroke-linecap="round" stroke-linejoin="round" transform="matrix(0.999985,0,0,-0.999985,44407.6,36426.9)"
font-family="MS Shell Dlg 2" font-size="10.3125" font-weight="400" font-style="normal" 
>
<path vector-effect="non-scaling-stroke" fill-rule="evenodd" d="M-27591.6,-29572.7 L-44247.5,-2481.77 L-3924.2,-1077.05 L-27591.6,-29572.7"/>
</g>

<g fill="none" stroke="#000000" stroke-opacity="1" stroke-width="1" stroke-linecap="square" stroke-linejoin="bevel" transform="matrix(0.999985,0,0,-0.999985,44407.6,36426.9)"
font-family="MS Shell Dlg 2" font-size="10.3125" font-weight="400" font-style="normal" 
>
</g>

<g fill="none" stroke="#000000" stroke-opacity="1" stroke-width="1" stroke-linecap="square" stroke-linejoin="bevel" transform="matrix(0.999985,0,0,-0.999985,44407.6,36426.9)"
font-family="MS Shell Dlg 2" font-size="10.3125" font-weight="400" font-style="normal" 
>
</g>

<g fill="#333333" fill-opacity="0.2" stroke="#333333" stroke-opacity="1" stroke-width="1" stroke-linecap="round" stroke-linejoin="round" transform="matrix(0.999985,0,0,-0.999985,44407.6,36426.9)"
font-family="MS Shell Dlg 2" font-size="10.3125" font-weight="400" font-style="normal" 
>
<path vector-effect="non-scaling-stroke" fill-rule="evenodd" d="M16943.5,32812.2 L22175.2,-11455.8 L-373.418,416.045 L16943.5,32812.2"/>
</g>

<g fill="none" stroke="#000000" stroke-opacity="1" stroke-width="1" stroke-linecap="square" stroke-linejoin="bevel" transform="matrix(0.999985,0,0,-0.999985,44407.6,36426.9)"
font-family="MS Shell Dlg 2" font-size="10.3125" font-weight="400" font-style="normal" 
>
</g>

<g fill="none" stroke="#000000" stroke-opacity="1" stroke-width="1" stroke-linecap="square" stroke-linejoin="bevel" transform="matrix(1,0,0,-1,0,68143.7)"
font-family="MS Shell Dlg 2" font-size="10.3125" font-weight="400" font-style="normal" 
>
</g>
</g>
</svg>
