<?xml version="1.0" encoding="UTF-8" standalone="no"?>
<svg width="6670.04mm" height="8685.39mm"
 xmlns="http://www.w3.org/2000/svg" xmlns:xlink="http://www.w3.org/1999/xlink"  version="1.2" baseProfile="tiny">
<title>SVG Generator Example Drawing</title>
<desc>An SVG drawing created by the SVG Generator</desc>
<defs>
</defs>
<g fill="none" stroke="black" stroke-width="1" fill-rule="evenodd" stroke-linecap="square" stroke-linejoin="bevel" >

<g fill="none" stroke="#000000" stroke-opacity="1" stroke-width="1" stroke-linecap="square" stroke-linejoin="bevel" transform="matrix(1,0,0,-1,0,30775)"
font-family="MS Shell Dlg 2" font-size="10.3125" font-weight="400" font-style="normal" 
>
</g>

<g fill="none" stroke="#000000" stroke-opacity="1" stroke-width="1" stroke-linecap="square" stroke-linejoin="bevel" transform="matrix(1,0,0,-1,0,30775)"
font-family="MS Shell Dlg 2" font-size="10.3125" font-weight="400" font-style="normal" 
>
</g>

<g fill="none" stroke="#000000" stroke-opacity="1" stroke-width="1" stroke-linecap="square" stroke-linejoin="bevel" transform="matrix(0.999966,0,0,-0.999966,1353.13,-939.849)"
font-family="MS Shell Dlg 2" font-size="10.3125" font-weight="400" font-style="normal" 
>
</g>

<g fill="#333333" fill-opacity="0.2" stroke="#333333" stroke-opacity="1" stroke-width="1" stroke-linecap="round" stroke-linejoin="round" transform="matrix(0.999966,0,0,-0.999966,1353.13,-939.849)"
font-family="MS Shell Dlg 2" font-size="10.3125" font-weight="400" font-style="normal" 
>
<path vector-effect="non-scaling-stroke" fill-rule="evenodd" d="M-48.9477,-941.43 L3037.23,-2566.31 L3037.23,-2566.47 L2594.72,-3406.95 L17061.4,-11023.7 L17503.9,-10183.2 L17504.1,-10183.1 L22281.1,-12698.3 L21551.8,-13444.4 L4512.56,-30875.3 L3552.05,-25202.8 L2615.52,-25361.4 L2615.37,-25361.3 L1544.13,-19034.9 L1544.25,-19034.8 L2480.78,-18876.2 L1409.51,-12549.6 L472.982,-12708.1 L472.827,-12708.1 L-598.413,-6381.63 L-598.288,-6381.52 L338.239,-6222.94 L-325.106,-2305.41 L-279.298,-2310.66 L13.9415,-2098.22 L86.8706,-1743.54 L-48.9477,-941.43"/>
</g>

<g fill="none" stroke="#000000" stroke-opacity="1" stroke-width="1" stroke-linecap="square" stroke-linejoin="bevel" transform="matrix(0.999966,0,0,-0.999966,1353.13,-939.849)"
font-family="MS Shell Dlg 2" font-size="10.3125" font-weight="400" font-style="normal" 
>
</g>

<g fill="none" stroke="#000000" stroke-opacity="1" stroke-width="1" stroke-linecap="square" stroke-linejoin="bevel" transform="matrix(0.999966,0,0,-0.999966,1353.13,-939.849)"
font-family="MS Shell Dlg 2" font-size="10.3125" font-weight="400" font-style="normal" 
>
</g>

<g fill="#ae5151" fill-opacity="0.2" stroke="#333333" stroke-opacity="1" stroke-width="1" stroke-linecap="round" stroke-linejoin="round" transform="matrix(0.999966,0,0,-0.999966,1353.13,-939.849)"
font-family="MS Shell Dlg 2" font-size="10.3125" font-weight="400" font-style="normal" 
>
<path vector-effect="non-scaling-stroke" fill-rule="evenodd" d="M-48.9477,-941.43 L3037.23,-2566.31 L3037.23,-2566.47 L2594.72,-3406.95 L17061.4,-11023.7 L17503.9,-10183.2 L17504.1,-10183.1 L22281.1,-12698.3 L21551.8,-13444.4 L4512.56,-30875.3 L3552.05,-25202.8 L2615.52,-25361.4 L2615.37,-25361.3 L1544.13,-19034.9 L1544.25,-19034.8 L2480.78,-18876.2 L1409.51,-12549.6 L472.982,-12708.1 L472.827,-12708.1 L-598.413,-6381.63 L-598.288,-6381.52 L338.239,-6222.94 L-325.106,-2305.41 L-279.298,-2310.66 L13.9415,-2098.22 L86.8706,-1743.54 L-48.9477,-941.43"/>
</g>

<g fill="none" stroke="#000000" stroke-opacity="1" stroke-width="1" stroke-linecap="square" stroke-linejoin="bevel" transform="matrix(0.999966,0,0,-0.999966,1353.13,-939.849)"
font-family="MS Shell Dlg 2" font-size="10.3125" font-weight="400" font-style="normal" 
>
</g>

<g fill="none" stroke="#000000" stroke-opacity="1" stroke-width="1" stroke-linecap="square" stroke-linejoin="bevel" transform="matrix(0.999966,0,0,-0.999966,1353.13,-939.849)"
font-family="MS Shell Dlg 2" font-size="10.3125" font-weight="400" font-style="normal" 
>
</g>

<g fill="#ffff00" fill-opacity="0.2" stroke="#333333" stroke-opacity="1" stroke-width="1" stroke-linecap="round" stroke-linejoin="round" transform="matrix(0.999966,0,0,-0.999966,1353.13,-939.849)"
font-family="MS Shell Dlg 2" font-size="10.3125" font-weight="400" font-style="normal" 
>
<path vector-effect="non-scaling-stroke" fill-rule="evenodd" d="M4555.78,-30831.1 L4512.56,-30875.3 L3734.52,-31671.2 L1593.41,-19026.4 L2480.78,-18876.2 L1409.51,-12549.6 L522.141,-12699.8 L-1301.46,-1930.17 L-1276.58,-1933.78 L-639.05,-2269.44 L-279.298,-2310.66 L13.9415,-2098.22 L86.8706,-1743.54 L-38.443,-1003.47 L7852.21,-5157.91 L7432.92,-5954.27 L12223.2,-8476.37 L12642.5,-7680.01 L22244.7,-12735.6 L21588.2,-13407.1 L21551.8,-13444.4 L4555.78,-30831.1"/>
</g>

<g fill="none" stroke="#000000" stroke-opacity="1" stroke-width="1" stroke-linecap="square" stroke-linejoin="bevel" transform="matrix(0.999966,0,0,-0.999966,1353.13,-939.849)"
font-family="MS Shell Dlg 2" font-size="10.3125" font-weight="400" font-style="normal" 
>
</g>

<g fill="none" stroke="#000000" stroke-opacity="1" stroke-width="1" stroke-linecap="square" stroke-linejoin="bevel" transform="matrix(0.999966,0,0,-0.999966,1353.13,-939.849)"
font-family="MS Shell Dlg 2" font-size="10.3125" font-weight="400" font-style="normal" 
>
</g>

<g fill="#ae5151" fill-opacity="0.2" stroke="#333333" stroke-opacity="1" stroke-width="1" stroke-linecap="round" stroke-linejoin="round" transform="matrix(0.999966,0,0,-0.999966,1353.13,-939.849)"
font-family="MS Shell Dlg 2" font-size="10.3125" font-weight="400" font-style="normal" 
>
<path vector-effect="non-scaling-stroke" fill-rule="evenodd" d="M4555.78,-30831.1 L4512.56,-30875.3 L3691.29,-31715.4 L2626.11,-25424.8 L2626.24,-25424.7 L3562.76,-25266.1 L327.526,-6159.67 L-609.001,-6318.25 L-609.156,-6318.19 L-1352.68,-1927.16 L-1346.71,-1923.6 L-1276.58,-1933.78 L-639.05,-2269.44 L-279.298,-2310.66 L13.9415,-2098.22 L23.2276,-2053.06 L2642.62,-3432.17 L3085.13,-2591.69 L3085.27,-2591.6 L7875.43,-5113.63 L7875.43,-5113.79 L7432.92,-5954.27 L12223.2,-8476.37 L12665.7,-7635.89 L12665.9,-7635.8 L17456,-10157.8 L17456,-10158 L17013.5,-10998.5 L21588.2,-13407.1 L4555.78,-30831.1"/>
</g>

<g fill="none" stroke="#000000" stroke-opacity="1" stroke-width="1" stroke-linecap="square" stroke-linejoin="bevel" transform="matrix(0.999966,0,0,-0.999966,1353.13,-939.849)"
font-family="MS Shell Dlg 2" font-size="10.3125" font-weight="400" font-style="normal" 
>
</g>

<g fill="none" stroke="#000000" stroke-opacity="1" stroke-width="1" stroke-linecap="square" stroke-linejoin="bevel" transform="matrix(0.999966,0,0,-0.999966,1353.13,-939.849)"
font-family="MS Shell Dlg 2" font-size="10.3125" font-weight="400" font-style="normal" 
>
</g>

<g fill="#333333" fill-opacity="0.2" stroke="#333333" stroke-opacity="1" stroke-width="1" stroke-linecap="round" stroke-linejoin="round" transform="matrix(0.999966,0,0,-0.999966,1353.13,-939.849)"
font-family="MS Shell Dlg 2" font-size="10.3125" font-weight="400" font-style="normal" 
>
<path vector-effect="non-scaling-stroke" fill-rule="evenodd" d="M4555.78,-30831.1 L4512.56,-30875.3 L3691.29,-31715.4 L2626.11,-25424.8 L2626.24,-25424.7 L3562.76,-25266.1 L327.526,-6159.67 L-609.001,-6318.25 L-609.156,-6318.19 L-1352.68,-1927.16 L-1346.71,-1923.6 L-1276.58,-1933.78 L-639.05,-2269.44 L-279.298,-2310.66 L13.9415,-2098.22 L23.2276,-2053.06 L2642.62,-3432.17 L3085.13,-2591.69 L3085.27,-2591.6 L7875.43,-5113.63 L7875.43,-5113.79 L7432.92,-5954.27 L12223.2,-8476.37 L12665.7,-7635.89 L12665.9,-7635.8 L17456,-10157.8 L17456,-10158 L17013.5,-10998.5 L21588.2,-13407.1 L4555.78,-30831.1"/>
</g>

<g fill="none" stroke="#000000" stroke-opacity="1" stroke-width="1" stroke-linecap="square" stroke-linejoin="bevel" transform="matrix(0.999966,0,0,-0.999966,1353.13,-939.849)"
font-family="MS Shell Dlg 2" font-size="10.3125" font-weight="400" font-style="normal" 
>
</g>

<g fill="none" stroke="#000000" stroke-opacity="1" stroke-width="1" stroke-linecap="square" stroke-linejoin="bevel" transform="matrix(1,0,0,-1,0,30775)"
font-family="MS Shell Dlg 2" font-size="10.3125" font-weight="400" font-style="normal" 
>
</g>
</g>
</svg>
