<?xml version="1.0" encoding="UTF-8" standalone="no"?>
<svg width="11780mm" height="8553.03mm"
 xmlns="http://www.w3.org/2000/svg" xmlns:xlink="http://www.w3.org/1999/xlink"  version="1.2" baseProfile="tiny">
<title>SVG Generator Example Drawing</title>
<desc>An SVG drawing created by the SVG Generator</desc>
<defs>
</defs>
<g fill="none" stroke="black" stroke-width="1" fill-rule="evenodd" stroke-linecap="square" stroke-linejoin="bevel" >

<g fill="none" stroke="#000000" stroke-opacity="1" stroke-width="1" stroke-linecap="square" stroke-linejoin="bevel" transform="matrix(1,0,0,-1,0,30306.7)"
font-family="MS Shell Dlg 2" font-size="10.3125" font-weight="400" font-style="normal" 
>
</g>

<g fill="none" stroke="#000000" stroke-opacity="1" stroke-width="1" stroke-linecap="square" stroke-linejoin="bevel" transform="matrix(1,0,0,-1,0,30306.7)"
font-family="MS Shell Dlg 2" font-size="10.3125" font-weight="400" font-style="normal" 
>
</g>

<g fill="none" stroke="#000000" stroke-opacity="1" stroke-width="1" stroke-linecap="square" stroke-linejoin="bevel" transform="matrix(0.999978,0,0,-0.999978,44819.2,-120.308)"
font-family="MS Shell Dlg 2" font-size="10.3125" font-weight="400" font-style="normal" 
>
</g>

<g fill="#333333" fill-opacity="0.2" stroke="#333333" stroke-opacity="1" stroke-width="1" stroke-linecap="round" stroke-linejoin="round" transform="matrix(0.999978,0,0,-0.999978,44819.2,-120.308)"
font-family="MS Shell Dlg 2" font-size="10.3125" font-weight="400" font-style="normal" 
>
<path vector-effect="non-scaling-stroke" fill-rule="evenodd" d="M-4239.04,-1456.12 L-7591.01,-5491.92 L-6860.31,-6098.8 L-6860.28,-6098.98 L-11901.8,-12168.9 L-11901.9,-12168.9 L-12632.6,-11562.1 L-17674.2,-17632.2 L-16943.5,-18239.1 L-16943.5,-18239.3 L-21985,-24309.2 L-21985.2,-24309.2 L-22715.9,-23702.3 L-27591.6,-29572.7 L-44217.4,-2530.75 L-44819.7,-1551.13 L-36258.5,-1252.89 L-36258.4,-1253.02 L-36225.3,-2202.31 L-10284.6,-1298.63 L-10317.6,-349.343 L-10317.5,-349.198 L-3780.5,-121.472 L-4308.84,-757.592 L-4422.87,-1113.59 L-4258.17,-1449.17 L-4239.04,-1456.12"/>
</g>

<g fill="none" stroke="#000000" stroke-opacity="1" stroke-width="1" stroke-linecap="square" stroke-linejoin="bevel" transform="matrix(0.999978,0,0,-0.999978,44819.2,-120.308)"
font-family="MS Shell Dlg 2" font-size="10.3125" font-weight="400" font-style="normal" 
>
</g>

<g fill="none" stroke="#000000" stroke-opacity="1" stroke-width="1" stroke-linecap="square" stroke-linejoin="bevel" transform="matrix(0.999978,0,0,-0.999978,44819.2,-120.308)"
font-family="MS Shell Dlg 2" font-size="10.3125" font-weight="400" font-style="normal" 
>
</g>

<g fill="#ae5151" fill-opacity="0.2" stroke="#333333" stroke-opacity="1" stroke-width="1" stroke-linecap="round" stroke-linejoin="round" transform="matrix(0.999978,0,0,-0.999978,44819.2,-120.308)"
font-family="MS Shell Dlg 2" font-size="10.3125" font-weight="400" font-style="normal" 
>
<path vector-effect="non-scaling-stroke" fill-rule="evenodd" d="M-4239.04,-1456.12 L-7591.01,-5491.92 L-6860.31,-6098.8 L-6860.28,-6098.98 L-11901.8,-12168.9 L-11901.9,-12168.9 L-12632.6,-11562.1 L-17674.2,-17632.2 L-16943.5,-18239.1 L-16943.5,-18239.3 L-21985,-24309.2 L-21985.2,-24309.2 L-22715.9,-23702.3 L-27591.6,-29572.7 L-44217.4,-2530.75 L-44819.7,-1551.13 L-36258.5,-1252.89 L-36258.4,-1253.02 L-36225.3,-2202.31 L-10284.6,-1298.63 L-10317.6,-349.343 L-10317.5,-349.198 L-3780.5,-121.472 L-4308.84,-757.592 L-4422.87,-1113.59 L-4258.17,-1449.17 L-4239.04,-1456.12"/>
</g>

<g fill="none" stroke="#000000" stroke-opacity="1" stroke-width="1" stroke-linecap="square" stroke-linejoin="bevel" transform="matrix(0.999978,0,0,-0.999978,44819.2,-120.308)"
font-family="MS Shell Dlg 2" font-size="10.3125" font-weight="400" font-style="normal" 
>
</g>

<g fill="none" stroke="#000000" stroke-opacity="1" stroke-width="1" stroke-linecap="square" stroke-linejoin="bevel" transform="matrix(0.999978,0,0,-0.999978,44819.2,-120.308)"
font-family="MS Shell Dlg 2" font-size="10.3125" font-weight="400" font-style="normal" 
>
</g>

<g fill="#ffff00" fill-opacity="0.2" stroke="#333333" stroke-opacity="1" stroke-width="1" stroke-linecap="round" stroke-linejoin="round" transform="matrix(0.999978,0,0,-0.999978,44819.2,-120.308)"
font-family="MS Shell Dlg 2" font-size="10.3125" font-weight="400" font-style="normal" 
>
<path vector-effect="non-scaling-stroke" fill-rule="evenodd" d="M-27093.9,-30382.2 L-27591.6,-29572.7 L-27619.2,-29527.8 L-44217.4,-2530.75 L-44247.5,-2481.77 L-44789.6,-1600.11 L-27581.1,-1000.63 L-27549.8,-1900.08 L-18960.1,-1600.85 L-18991.4,-701.396 L-3823.29,-172.993 L-4308.84,-757.592 L-4422.87,-1113.59 L-4258.17,-1449.17 L-3906.8,-1576.75 L-3147.32,-1550.29 L-11940.3,-12137.1 L-12632.6,-11562.1 L-17674.2,-17632.2 L-16981.9,-18207.2 L-27093.9,-30382.2"/>
</g>

<g fill="none" stroke="#000000" stroke-opacity="1" stroke-width="1" stroke-linecap="square" stroke-linejoin="bevel" transform="matrix(0.999978,0,0,-0.999978,44819.2,-120.308)"
font-family="MS Shell Dlg 2" font-size="10.3125" font-weight="400" font-style="normal" 
>
</g>

<g fill="none" stroke="#000000" stroke-opacity="1" stroke-width="1" stroke-linecap="square" stroke-linejoin="bevel" transform="matrix(0.999978,0,0,-0.999978,44819.2,-120.308)"
font-family="MS Shell Dlg 2" font-size="10.3125" font-weight="400" font-style="normal" 
>
</g>

<g fill="#ae5151" fill-opacity="0.2" stroke="#333333" stroke-opacity="1" stroke-width="1" stroke-linecap="round" stroke-linejoin="round" transform="matrix(0.999978,0,0,-0.999978,44819.2,-120.308)"
font-family="MS Shell Dlg 2" font-size="10.3125" font-weight="400" font-style="normal" 
>
<path vector-effect="non-scaling-stroke" fill-rule="evenodd" d="M-27066.3,-30427.1 L-27591.6,-29572.7 L-27619.2,-29527.8 L-44247.5,-2481.77 L-36139.4,-2199.32 L-36172.5,-1250.03 L-36172.4,-1249.89 L-27583,-950.663 L-27582.8,-950.8 L-27549.8,-1900.08 L-18960.1,-1600.85 L-18993.2,-651.568 L-18993.1,-651.422 L-10403.6,-352.199 L-10403.5,-352.336 L-10370.4,-1301.62 L-4416.66,-1094.21 L-4422.87,-1113.59 L-4258.17,-1449.17 L-3906.8,-1576.75 L-3080.38,-1547.96 L-6809.72,-6038.11 L-6809.9,-6038.1 L-7540.6,-5431.22 L-22766.3,-23763 L-22035.6,-24369.9 L-22035.5,-24370.1 L-27066.3,-30427.1"/>
</g>

<g fill="none" stroke="#000000" stroke-opacity="1" stroke-width="1" stroke-linecap="square" stroke-linejoin="bevel" transform="matrix(0.999978,0,0,-0.999978,44819.2,-120.308)"
font-family="MS Shell Dlg 2" font-size="10.3125" font-weight="400" font-style="normal" 
>
</g>

<g fill="none" stroke="#000000" stroke-opacity="1" stroke-width="1" stroke-linecap="square" stroke-linejoin="bevel" transform="matrix(0.999978,0,0,-0.999978,44819.2,-120.308)"
font-family="MS Shell Dlg 2" font-size="10.3125" font-weight="400" font-style="normal" 
>
</g>

<g fill="#333333" fill-opacity="0.2" stroke="#333333" stroke-opacity="1" stroke-width="1" stroke-linecap="round" stroke-linejoin="round" transform="matrix(0.999978,0,0,-0.999978,44819.2,-120.308)"
font-family="MS Shell Dlg 2" font-size="10.3125" font-weight="400" font-style="normal" 
>
<path vector-effect="non-scaling-stroke" fill-rule="evenodd" d="M-27066.3,-30427.1 L-27591.6,-29572.7 L-27619.2,-29527.8 L-44247.5,-2481.77 L-36139.4,-2199.32 L-36172.5,-1250.03 L-36172.4,-1249.89 L-27583,-950.663 L-27582.8,-950.8 L-27549.8,-1900.08 L-18960.1,-1600.85 L-18993.2,-651.568 L-18993.1,-651.422 L-10403.6,-352.199 L-10403.5,-352.336 L-10370.4,-1301.62 L-4416.66,-1094.21 L-4422.87,-1113.59 L-4258.17,-1449.17 L-3906.8,-1576.75 L-3080.38,-1547.96 L-6809.72,-6038.11 L-6809.9,-6038.1 L-7540.6,-5431.22 L-22766.3,-23763 L-22035.6,-24369.9 L-22035.5,-24370.1 L-27066.3,-30427.1"/>
</g>

<g fill="none" stroke="#000000" stroke-opacity="1" stroke-width="1" stroke-linecap="square" stroke-linejoin="bevel" transform="matrix(0.999978,0,0,-0.999978,44819.2,-120.308)"
font-family="MS Shell Dlg 2" font-size="10.3125" font-weight="400" font-style="normal" 
>
</g>

<g fill="none" stroke="#000000" stroke-opacity="1" stroke-width="1" stroke-linecap="square" stroke-linejoin="bevel" transform="matrix(1,0,0,-1,0,30306.7)"
font-family="MS Shell Dlg 2" font-size="10.3125" font-weight="400" font-style="normal" 
>
</g>
</g>
</svg>
