<?xml version="1.0" encoding="UTF-8" standalone="no"?>
<svg width="11845.1mm" height="10690.3mm"
 xmlns="http://www.w3.org/2000/svg" xmlns:xlink="http://www.w3.org/1999/xlink"  version="1.2" baseProfile="tiny">
<title>SVG Generator Example Drawing</title>
<desc>An SVG drawing created by the SVG Generator</desc>
<defs>
</defs>
<g fill="none" stroke="black" stroke-width="1" fill-rule="evenodd" stroke-linecap="square" stroke-linejoin="bevel" >

<g fill="none" stroke="#000000" stroke-opacity="1" stroke-width="1" stroke-linecap="square" stroke-linejoin="bevel" transform="matrix(1,0,0,-1,0,37879.9)"
font-family="MS Shell Dlg 2" font-size="10.3125" font-weight="400" font-style="normal" 
>
</g>

<g fill="none" stroke="#000000" stroke-opacity="1" stroke-width="1" stroke-linecap="square" stroke-linejoin="bevel" transform="matrix(1,0,0,-1,0,37879.9)"
font-family="MS Shell Dlg 2" font-size="10.3125" font-weight="400" font-style="normal" 
>
</g>

<g fill="none" stroke="#000000" stroke-opacity="1" stroke-width="1" stroke-linecap="square" stroke-linejoin="bevel" transform="matrix(0.999977,0,0,-0.999977,44827.1,36428.1)"
font-family="MS Shell Dlg 2" font-size="10.3125" font-weight="400" font-style="normal" 
>
</g>

<g fill="#333333" fill-opacity="0.2" stroke="#333333" stroke-opacity="1" stroke-width="1" stroke-linecap="round" stroke-linejoin="round" transform="matrix(0.999977,0,0,-0.999977,44827.1,36428.1)"
font-family="MS Shell Dlg 2" font-size="10.3125" font-weight="400" font-style="normal" 
>
<path vector-effect="non-scaling-stroke" fill-rule="evenodd" d="M-17717.5,21844.5 L-17717.5,21844.3 L-18485,21284.8 L-13186.9,14017.7 L-12419.4,14577.3 L-12419.2,14577.3 L-7121.27,7310.39 L-7121.31,7310.2 L-7888.84,6750.63 L-3931.34,1322.37 L-3991.33,1297.3 L-4145.92,979.723 L-4128.64,917.037 L-10440.1,697.169 L-10407,-252.114 L-10407.1,-252.259 L-18996.5,-551.483 L-18996.7,-551.346 L-19029.7,397.937 L-27619.4,98.7047 L-27586.3,-850.578 L-27586.4,-850.724 L-36175.9,-1149.95 L-36176,-1149.81 L-36209,-200.528 L-44407.8,-486.142 L-28788.7,35417.6 L-23783.1,28551.8 L-23015.6,29111.4 L-23015.4,29111.4 L-17717.5,21844.5"/>
</g>

<g fill="none" stroke="#000000" stroke-opacity="1" stroke-width="1" stroke-linecap="square" stroke-linejoin="bevel" transform="matrix(0.999977,0,0,-0.999977,44827.1,36428.1)"
font-family="MS Shell Dlg 2" font-size="10.3125" font-weight="400" font-style="normal" 
>
</g>

<g fill="none" stroke="#000000" stroke-opacity="1" stroke-width="1" stroke-linecap="square" stroke-linejoin="bevel" transform="matrix(0.999977,0,0,-0.999977,44827.1,36428.1)"
font-family="MS Shell Dlg 2" font-size="10.3125" font-weight="400" font-style="normal" 
>
</g>

<g fill="#ae5151" fill-opacity="0.2" stroke="#333333" stroke-opacity="1" stroke-width="1" stroke-linecap="round" stroke-linejoin="round" transform="matrix(0.999977,0,0,-0.999977,44827.1,36428.1)"
font-family="MS Shell Dlg 2" font-size="10.3125" font-weight="400" font-style="normal" 
>
<path vector-effect="non-scaling-stroke" fill-rule="evenodd" d="M-17717.5,21844.5 L-17717.5,21844.3 L-18485,21284.8 L-13186.9,14017.7 L-12419.4,14577.3 L-12419.2,14577.3 L-7121.27,7310.39 L-7121.31,7310.2 L-7888.84,6750.63 L-3931.34,1322.37 L-3991.33,1297.3 L-4145.92,979.723 L-4128.64,917.037 L-10440.1,697.169 L-10407,-252.114 L-10407.1,-252.259 L-18996.5,-551.483 L-18996.7,-551.346 L-19029.7,397.937 L-27619.4,98.7047 L-27586.3,-850.578 L-27586.4,-850.724 L-36175.9,-1149.95 L-36176,-1149.81 L-36209,-200.528 L-44407.8,-486.142 L-28788.7,35417.6 L-23783.1,28551.8 L-23015.6,29111.4 L-23015.4,29111.4 L-17717.5,21844.5"/>
</g>

<g fill="none" stroke="#000000" stroke-opacity="1" stroke-width="1" stroke-linecap="square" stroke-linejoin="bevel" transform="matrix(0.999977,0,0,-0.999977,44827.1,36428.1)"
font-family="MS Shell Dlg 2" font-size="10.3125" font-weight="400" font-style="normal" 
>
</g>

<g fill="none" stroke="#000000" stroke-opacity="1" stroke-width="1" stroke-linecap="square" stroke-linejoin="bevel" transform="matrix(0.999977,0,0,-0.999977,44827.1,36428.1)"
font-family="MS Shell Dlg 2" font-size="10.3125" font-weight="400" font-style="normal" 
>
</g>

<g fill="#ffff00" fill-opacity="0.2" stroke="#333333" stroke-opacity="1" stroke-width="1" stroke-linecap="round" stroke-linejoin="round" transform="matrix(0.999977,0,0,-0.999977,44827.1,36428.1)"
font-family="MS Shell Dlg 2" font-size="10.3125" font-weight="400" font-style="normal" 
>
<path vector-effect="non-scaling-stroke" fill-rule="evenodd" d="M-44805.6,-1400.55 L-44407.8,-486.142 L-44385.7,-435.342 L-28811.8,35364.4 L-28788.7,35417.6 L-28372.4,36374.4 L-17757.8,21815 L-18485,21284.8 L-13186.9,14017.7 L-12459.7,14547.9 L-2917.54,1459.53 L-3665.44,1433.48 L-3991.33,1297.3 L-4145.92,979.723 L-4052.06,639.222 L-3678.94,127.437 L-3658.42,60.9073 L-3669.19,32.4963 L-18998.4,-501.517 L-19029.7,397.937 L-27619.4,98.7047 L-27588.1,-800.75 L-44805.6,-1400.55"/>
</g>

<g fill="none" stroke="#000000" stroke-opacity="1" stroke-width="1" stroke-linecap="square" stroke-linejoin="bevel" transform="matrix(0.999977,0,0,-0.999977,44827.1,36428.1)"
font-family="MS Shell Dlg 2" font-size="10.3125" font-weight="400" font-style="normal" 
>
</g>

<g fill="none" stroke="#000000" stroke-opacity="1" stroke-width="1" stroke-linecap="square" stroke-linejoin="bevel" transform="matrix(0.999977,0,0,-0.999977,44827.1,36428.1)"
font-family="MS Shell Dlg 2" font-size="10.3125" font-weight="400" font-style="normal" 
>
</g>

<g fill="#ae5151" fill-opacity="0.2" stroke="#333333" stroke-opacity="1" stroke-width="1" stroke-linecap="round" stroke-linejoin="round" transform="matrix(0.999977,0,0,-0.999977,44827.1,36428.1)"
font-family="MS Shell Dlg 2" font-size="10.3125" font-weight="400" font-style="normal" 
>
<path vector-effect="non-scaling-stroke" fill-rule="evenodd" d="M-3694.92,-18.4304 L-10321,-249.258 L-10321.1,-249.121 L-10354.2,700.162 L-36294.9,-203.52 L-36261.9,-1152.8 L-36262,-1152.95 L-44827.7,-1451.35 L-44407.8,-486.142 L-44385.7,-435.342 L-28811.8,35364.4 L-28788.7,35417.6 L-28349.3,36427.5 L-23068.6,29184.3 L-23068.6,29184.1 L-23836.1,28624.5 L-7835.86,6677.96 L-7068.33,7237.53 L-7068.14,7237.51 L-2857.2,1461.63 L-3665.44,1433.48 L-3991.33,1297.3 L-4145.92,979.723 L-4052.06,639.222 L-3678.94,127.437 L-3658.42,60.9073 L-3683.1,-4.19547 L-3694.92,-18.4304"/>
</g>

<g fill="none" stroke="#000000" stroke-opacity="1" stroke-width="1" stroke-linecap="square" stroke-linejoin="bevel" transform="matrix(0.999977,0,0,-0.999977,44827.1,36428.1)"
font-family="MS Shell Dlg 2" font-size="10.3125" font-weight="400" font-style="normal" 
>
</g>

<g fill="none" stroke="#000000" stroke-opacity="1" stroke-width="1" stroke-linecap="square" stroke-linejoin="bevel" transform="matrix(0.999977,0,0,-0.999977,44827.1,36428.1)"
font-family="MS Shell Dlg 2" font-size="10.3125" font-weight="400" font-style="normal" 
>
</g>

<g fill="#333333" fill-opacity="0.2" stroke="#333333" stroke-opacity="1" stroke-width="1" stroke-linecap="round" stroke-linejoin="round" transform="matrix(0.999977,0,0,-0.999977,44827.1,36428.1)"
font-family="MS Shell Dlg 2" font-size="10.3125" font-weight="400" font-style="normal" 
>
<path vector-effect="non-scaling-stroke" fill-rule="evenodd" d="M-3694.92,-18.4304 L-10321,-249.258 L-10321.1,-249.121 L-10354.2,700.162 L-36294.9,-203.52 L-36261.9,-1152.8 L-36262,-1152.95 L-44827.7,-1451.35 L-44407.8,-486.142 L-44385.7,-435.342 L-28811.8,35364.4 L-28788.7,35417.6 L-28349.3,36427.5 L-23068.6,29184.3 L-23068.6,29184.1 L-23836.1,28624.5 L-7835.86,6677.96 L-7068.33,7237.53 L-7068.14,7237.51 L-2857.2,1461.63 L-3665.44,1433.48 L-3991.33,1297.3 L-4145.92,979.723 L-4052.06,639.222 L-3678.94,127.437 L-3658.42,60.9073 L-3683.1,-4.19547 L-3694.92,-18.4304"/>
</g>

<g fill="none" stroke="#000000" stroke-opacity="1" stroke-width="1" stroke-linecap="square" stroke-linejoin="bevel" transform="matrix(0.999977,0,0,-0.999977,44827.1,36428.1)"
font-family="MS Shell Dlg 2" font-size="10.3125" font-weight="400" font-style="normal" 
>
</g>

<g fill="none" stroke="#000000" stroke-opacity="1" stroke-width="1" stroke-linecap="square" stroke-linejoin="bevel" transform="matrix(1,0,0,-1,0,37879.9)"
font-family="MS Shell Dlg 2" font-size="10.3125" font-weight="400" font-style="normal" 
>
</g>
</g>
</svg>
