<?xml version="1.0" encoding="UTF-8" standalone="no"?>
<svg width="6678.51mm" height="18676.9mm"
 xmlns="http://www.w3.org/2000/svg" xmlns:xlink="http://www.w3.org/1999/xlink"  version="1.2" baseProfile="tiny">
<title>SVG Generator Example Drawing</title>
<desc>An SVG drawing created by the SVG Generator</desc>
<defs>
</defs>
<g fill="none" stroke="black" stroke-width="1" fill-rule="evenodd" stroke-linecap="square" stroke-linejoin="bevel" >

<g fill="none" stroke="#000000" stroke-opacity="1" stroke-width="1" stroke-linecap="square" stroke-linejoin="bevel" transform="matrix(1,0,0,-1,0,66178.9)"
font-family="MS Shell Dlg 2" font-size="10.3125" font-weight="400" font-style="normal" 
>
</g>

<g fill="none" stroke="#000000" stroke-opacity="1" stroke-width="1" stroke-linecap="square" stroke-linejoin="bevel" transform="matrix(1,0,0,-1,0,66178.9)"
font-family="MS Shell Dlg 2" font-size="10.3125" font-weight="400" font-style="normal" 
>
</g>

<g fill="none" stroke="#000000" stroke-opacity="1" stroke-width="1" stroke-linecap="square" stroke-linejoin="bevel" transform="matrix(0.999986,0,0,-0.999986,1353.16,34463.4)"
font-family="MS Shell Dlg 2" font-size="10.3125" font-weight="400" font-style="normal" 
>
</g>

<g fill="#333333" fill-opacity="0.2" stroke="#333333" stroke-opacity="1" stroke-width="1" stroke-linecap="round" stroke-linejoin="round" transform="matrix(0.999986,0,0,-0.999986,1353.16,34463.4)"
font-family="MS Shell Dlg 2" font-size="10.3125" font-weight="400" font-style="normal" 
>
<path vector-effect="non-scaling-stroke" fill-rule="evenodd" d="M-48.9477,-941.43 L3037.23,-2566.31 L3037.23,-2566.47 L2594.72,-3406.95 L17061.4,-11023.7 L17503.9,-10183.2 L17504.1,-10183.1 L22281.1,-12698.3 L21551.8,-13444.4 L4512.56,-30875.3 L3552.05,-25202.8 L2615.52,-25361.4 L2615.37,-25361.3 L1544.13,-19034.9 L1544.25,-19034.8 L2480.78,-18876.2 L1409.51,-12549.6 L472.982,-12708.1 L472.827,-12708.1 L-598.413,-6381.63 L-598.288,-6381.52 L338.239,-6222.94 L-325.106,-2305.41 L-279.298,-2310.66 L13.9415,-2098.22 L86.8706,-1743.54 L-48.9477,-941.43"/>
</g>

<g fill="none" stroke="#000000" stroke-opacity="1" stroke-width="1" stroke-linecap="square" stroke-linejoin="bevel" transform="matrix(0.999986,0,0,-0.999986,1353.16,34463.4)"
font-family="MS Shell Dlg 2" font-size="10.3125" font-weight="400" font-style="normal" 
>
</g>

<g fill="none" stroke="#000000" stroke-opacity="1" stroke-width="1" stroke-linecap="square" stroke-linejoin="bevel" transform="matrix(0.999986,0,0,-0.999986,1353.16,34463.4)"
font-family="MS Shell Dlg 2" font-size="10.3125" font-weight="400" font-style="normal" 
>
</g>

<g fill="#333333" fill-opacity="0.2" stroke="#333333" stroke-opacity="1" stroke-width="1" stroke-linecap="round" stroke-linejoin="round" transform="matrix(0.999986,0,0,-0.999986,1353.16,34463.4)"
font-family="MS Shell Dlg 2" font-size="10.3125" font-weight="400" font-style="normal" 
>
<path vector-effect="non-scaling-stroke" fill-rule="evenodd" d="M3131.86,-2503.11 L3131.85,-2502.95 L3574.37,-1662.47 L67.8648,183.709 L104.598,562.677 L-138.319,855.862 L2867.86,6479.75 L2030.17,6927.53 L2030.09,6927.69 L5708.85,13809.8 L5709.03,13809.9 L6546.72,13362.1 L10225.6,20244.4 L9387.9,20692.2 L9387.82,20692.4 L13066.6,27574.5 L13066.8,27574.6 L13904.5,27126.8 L16943.5,32812.2 L22175.2,-11455.8 L17945.3,-9228.77 L17502.8,-10069.3 L17502.6,-10069.3 L12712.5,-7547.32 L12712.5,-7547.15 L13155,-6706.67 L8364.67,-4184.57 L7922.15,-5025.05 L7922.02,-5025.14 L3131.86,-2503.11"/>
</g>

<g fill="none" stroke="#000000" stroke-opacity="1" stroke-width="1" stroke-linecap="square" stroke-linejoin="bevel" transform="matrix(0.999986,0,0,-0.999986,1353.16,34463.4)"
font-family="MS Shell Dlg 2" font-size="10.3125" font-weight="400" font-style="normal" 
>
</g>

<g fill="none" stroke="#000000" stroke-opacity="1" stroke-width="1" stroke-linecap="square" stroke-linejoin="bevel" transform="matrix(0.999986,0,0,-0.999986,1353.16,34463.4)"
font-family="MS Shell Dlg 2" font-size="10.3125" font-weight="400" font-style="normal" 
>
</g>

<g fill="#ae5151" fill-opacity="0.2" stroke="#333333" stroke-opacity="1" stroke-width="1" stroke-linecap="round" stroke-linejoin="round" transform="matrix(0.999986,0,0,-0.999986,1353.16,34463.4)"
font-family="MS Shell Dlg 2" font-size="10.3125" font-weight="400" font-style="normal" 
>
<path vector-effect="non-scaling-stroke" fill-rule="evenodd" d="M-48.9477,-941.43 L3037.23,-2566.31 L3037.23,-2566.47 L2594.72,-3406.95 L17061.4,-11023.7 L17503.9,-10183.2 L17504.1,-10183.1 L22281.1,-12698.3 L21551.8,-13444.4 L4512.56,-30875.3 L3552.05,-25202.8 L2615.52,-25361.4 L2615.37,-25361.3 L1544.13,-19034.9 L1544.25,-19034.8 L2480.78,-18876.2 L1409.51,-12549.6 L472.982,-12708.1 L472.827,-12708.1 L-598.413,-6381.63 L-598.288,-6381.52 L338.239,-6222.94 L-325.106,-2305.41 L-279.298,-2310.66 L13.9415,-2098.22 L86.8706,-1743.54 L-48.9477,-941.43"/>
</g>

<g fill="none" stroke="#000000" stroke-opacity="1" stroke-width="1" stroke-linecap="square" stroke-linejoin="bevel" transform="matrix(0.999986,0,0,-0.999986,1353.16,34463.4)"
font-family="MS Shell Dlg 2" font-size="10.3125" font-weight="400" font-style="normal" 
>
</g>

<g fill="none" stroke="#000000" stroke-opacity="1" stroke-width="1" stroke-linecap="square" stroke-linejoin="bevel" transform="matrix(0.999986,0,0,-0.999986,1353.16,34463.4)"
font-family="MS Shell Dlg 2" font-size="10.3125" font-weight="400" font-style="normal" 
>
</g>

<g fill="#ae5151" fill-opacity="0.2" stroke="#333333" stroke-opacity="1" stroke-width="1" stroke-linecap="round" stroke-linejoin="round" transform="matrix(0.999986,0,0,-0.999986,1353.16,34463.4)"
font-family="MS Shell Dlg 2" font-size="10.3125" font-weight="400" font-style="normal" 
>
<path vector-effect="non-scaling-stroke" fill-rule="evenodd" d="M3131.86,-2503.11 L3131.85,-2502.95 L3574.37,-1662.47 L67.8648,183.709 L104.598,562.677 L-138.319,855.862 L2867.86,6479.75 L2030.17,6927.53 L2030.09,6927.69 L5708.85,13809.8 L5709.03,13809.9 L6546.72,13362.1 L10225.6,20244.4 L9387.9,20692.2 L9387.82,20692.4 L13066.6,27574.5 L13066.8,27574.6 L13904.5,27126.8 L16943.5,32812.2 L22175.2,-11455.8 L17945.3,-9228.77 L17502.8,-10069.3 L17502.6,-10069.3 L12712.5,-7547.32 L12712.5,-7547.15 L13155,-6706.67 L8364.67,-4184.57 L7922.15,-5025.05 L7922.02,-5025.14 L3131.86,-2503.11"/>
</g>

<g fill="none" stroke="#000000" stroke-opacity="1" stroke-width="1" stroke-linecap="square" stroke-linejoin="bevel" transform="matrix(0.999986,0,0,-0.999986,1353.16,34463.4)"
font-family="MS Shell Dlg 2" font-size="10.3125" font-weight="400" font-style="normal" 
>
</g>

<g fill="none" stroke="#000000" stroke-opacity="1" stroke-width="1" stroke-linecap="square" stroke-linejoin="bevel" transform="matrix(0.999986,0,0,-0.999986,1353.16,34463.4)"
font-family="MS Shell Dlg 2" font-size="10.3125" font-weight="400" font-style="normal" 
>
</g>

<g fill="#ffff00" fill-opacity="0.2" stroke="#333333" stroke-opacity="1" stroke-width="1" stroke-linecap="round" stroke-linejoin="round" transform="matrix(0.999986,0,0,-0.999986,1353.16,34463.4)"
font-family="MS Shell Dlg 2" font-size="10.3125" font-weight="400" font-style="normal" 
>
<path vector-effect="non-scaling-stroke" fill-rule="evenodd" d="M4555.78,-30831.1 L4512.56,-30875.3 L3734.52,-31671.2 L1593.41,-19026.4 L2480.78,-18876.2 L1409.51,-12549.6 L522.141,-12699.8 L-1301.46,-1930.17 L-1276.58,-1933.78 L-639.05,-2269.44 L-279.298,-2310.66 L13.9415,-2098.22 L86.8706,-1743.54 L-38.443,-1003.47 L7852.21,-5157.91 L7432.92,-5954.27 L12223.2,-8476.37 L12642.5,-7680.01 L22244.7,-12735.6 L21588.2,-13407.1 L21551.8,-13444.4 L4555.78,-30831.1"/>
</g>

<g fill="none" stroke="#000000" stroke-opacity="1" stroke-width="1" stroke-linecap="square" stroke-linejoin="bevel" transform="matrix(0.999986,0,0,-0.999986,1353.16,34463.4)"
font-family="MS Shell Dlg 2" font-size="10.3125" font-weight="400" font-style="normal" 
>
</g>

<g fill="none" stroke="#000000" stroke-opacity="1" stroke-width="1" stroke-linecap="square" stroke-linejoin="bevel" transform="matrix(0.999986,0,0,-0.999986,1353.16,34463.4)"
font-family="MS Shell Dlg 2" font-size="10.3125" font-weight="400" font-style="normal" 
>
</g>

<g fill="#ffff00" fill-opacity="0.2" stroke="#333333" stroke-opacity="1" stroke-width="1" stroke-linecap="round" stroke-linejoin="round" transform="matrix(0.999986,0,0,-0.999986,1353.16,34463.4)"
font-family="MS Shell Dlg 2" font-size="10.3125" font-weight="400" font-style="normal" 
>
<path vector-effect="non-scaling-stroke" fill-rule="evenodd" d="M16758.7,34375.6 L16943.5,32812.2 L16953.8,32725.3 L22168.1,-11395.6 L22175.2,-11455.8 L22303.4,-12540.4 L12735.7,-7503.04 L13155,-6706.67 L8364.67,-4184.57 L7945.38,-4980.94 L-80.4616,-755.318 L-151.305,-336.934 L-126.01,-181.749 L67.538,180.338 L104.598,562.677 L-140.48,858.47 L-672.095,1138.37 L-756.516,1211.33 L-879.009,1379.34 L5753,13786.4 L6546.72,13362.1 L10225.6,20244.4 L9431.87,20668.7 L16758.7,34375.6"/>
</g>

<g fill="none" stroke="#000000" stroke-opacity="1" stroke-width="1" stroke-linecap="square" stroke-linejoin="bevel" transform="matrix(0.999986,0,0,-0.999986,1353.16,34463.4)"
font-family="MS Shell Dlg 2" font-size="10.3125" font-weight="400" font-style="normal" 
>
</g>

<g fill="none" stroke="#000000" stroke-opacity="1" stroke-width="1" stroke-linecap="square" stroke-linejoin="bevel" transform="matrix(0.999986,0,0,-0.999986,1353.16,34463.4)"
font-family="MS Shell Dlg 2" font-size="10.3125" font-weight="400" font-style="normal" 
>
</g>

<g fill="#ae5151" fill-opacity="0.2" stroke="#333333" stroke-opacity="1" stroke-width="1" stroke-linecap="round" stroke-linejoin="round" transform="matrix(0.999986,0,0,-0.999986,1353.16,34463.4)"
font-family="MS Shell Dlg 2" font-size="10.3125" font-weight="400" font-style="normal" 
>
<path vector-effect="non-scaling-stroke" fill-rule="evenodd" d="M4555.78,-30831.1 L4512.56,-30875.3 L3691.29,-31715.4 L2626.11,-25424.8 L2626.24,-25424.7 L3562.76,-25266.1 L327.526,-6159.67 L-609.001,-6318.25 L-609.156,-6318.19 L-1352.68,-1927.16 L-1346.71,-1923.6 L-1276.58,-1933.78 L-639.05,-2269.44 L-279.298,-2310.66 L13.9415,-2098.22 L23.2276,-2053.06 L2642.62,-3432.17 L3085.13,-2591.69 L3085.27,-2591.6 L7875.43,-5113.63 L7875.43,-5113.79 L7432.92,-5954.27 L12223.2,-8476.37 L12665.7,-7635.89 L12665.9,-7635.8 L17456,-10157.8 L17456,-10158 L17013.5,-10998.5 L21588.2,-13407.1 L4555.78,-30831.1"/>
</g>

<g fill="none" stroke="#000000" stroke-opacity="1" stroke-width="1" stroke-linecap="square" stroke-linejoin="bevel" transform="matrix(0.999986,0,0,-0.999986,1353.16,34463.4)"
font-family="MS Shell Dlg 2" font-size="10.3125" font-weight="400" font-style="normal" 
>
</g>

<g fill="none" stroke="#000000" stroke-opacity="1" stroke-width="1" stroke-linecap="square" stroke-linejoin="bevel" transform="matrix(0.999986,0,0,-0.999986,1353.16,34463.4)"
font-family="MS Shell Dlg 2" font-size="10.3125" font-weight="400" font-style="normal" 
>
</g>

<g fill="#ae5151" fill-opacity="0.2" stroke="#333333" stroke-opacity="1" stroke-width="1" stroke-linecap="round" stroke-linejoin="round" transform="matrix(0.999986,0,0,-0.999986,1353.16,34463.4)"
font-family="MS Shell Dlg 2" font-size="10.3125" font-weight="400" font-style="normal" 
>
<path vector-effect="non-scaling-stroke" fill-rule="evenodd" d="M-911.72,1424.21 L1993.2,6858.67 L1993.38,6858.7 L2831.07,6410.93 L13941.2,27195.6 L13103.6,27643.4 L13103.5,27643.5 L16748.5,34462.5 L16943.5,32812.2 L16953.8,32725.3 L22168.1,-11395.6 L22175.2,-11455.8 L22310.5,-12600.7 L17550.7,-10094.6 L17550.7,-10094.5 L17993.2,-9253.99 L3526.47,-1637.25 L3083.95,-2477.73 L3083.82,-2477.82 L-69.9569,-817.356 L-151.305,-336.934 L-126.01,-181.749 L67.538,180.338 L104.598,562.677 L-140.48,858.47 L-672.095,1138.37 L-756.516,1211.33 L-911.72,1424.21"/>
</g>

<g fill="none" stroke="#000000" stroke-opacity="1" stroke-width="1" stroke-linecap="square" stroke-linejoin="bevel" transform="matrix(0.999986,0,0,-0.999986,1353.16,34463.4)"
font-family="MS Shell Dlg 2" font-size="10.3125" font-weight="400" font-style="normal" 
>
</g>

<g fill="none" stroke="#000000" stroke-opacity="1" stroke-width="1" stroke-linecap="square" stroke-linejoin="bevel" transform="matrix(0.999986,0,0,-0.999986,1353.16,34463.4)"
font-family="MS Shell Dlg 2" font-size="10.3125" font-weight="400" font-style="normal" 
>
</g>

<g fill="#333333" fill-opacity="0.2" stroke="#333333" stroke-opacity="1" stroke-width="1" stroke-linecap="round" stroke-linejoin="round" transform="matrix(0.999986,0,0,-0.999986,1353.16,34463.4)"
font-family="MS Shell Dlg 2" font-size="10.3125" font-weight="400" font-style="normal" 
>
<path vector-effect="non-scaling-stroke" fill-rule="evenodd" d="M4555.78,-30831.1 L4512.56,-30875.3 L3691.29,-31715.4 L2626.11,-25424.8 L2626.24,-25424.7 L3562.76,-25266.1 L327.526,-6159.67 L-609.001,-6318.25 L-609.156,-6318.19 L-1352.68,-1927.16 L-1346.71,-1923.6 L-1276.58,-1933.78 L-639.05,-2269.44 L-279.298,-2310.66 L13.9415,-2098.22 L23.2276,-2053.06 L2642.62,-3432.17 L3085.13,-2591.69 L3085.27,-2591.6 L7875.43,-5113.63 L7875.43,-5113.79 L7432.92,-5954.27 L12223.2,-8476.37 L12665.7,-7635.89 L12665.9,-7635.8 L17456,-10157.8 L17456,-10158 L17013.5,-10998.5 L21588.2,-13407.1 L4555.78,-30831.1"/>
</g>

<g fill="none" stroke="#000000" stroke-opacity="1" stroke-width="1" stroke-linecap="square" stroke-linejoin="bevel" transform="matrix(0.999986,0,0,-0.999986,1353.16,34463.4)"
font-family="MS Shell Dlg 2" font-size="10.3125" font-weight="400" font-style="normal" 
>
</g>

<g fill="none" stroke="#000000" stroke-opacity="1" stroke-width="1" stroke-linecap="square" stroke-linejoin="bevel" transform="matrix(0.999986,0,0,-0.999986,1353.16,34463.4)"
font-family="MS Shell Dlg 2" font-size="10.3125" font-weight="400" font-style="normal" 
>
</g>

<g fill="#333333" fill-opacity="0.2" stroke="#333333" stroke-opacity="1" stroke-width="1" stroke-linecap="round" stroke-linejoin="round" transform="matrix(0.999986,0,0,-0.999986,1353.16,34463.4)"
font-family="MS Shell Dlg 2" font-size="10.3125" font-weight="400" font-style="normal" 
>
<path vector-effect="non-scaling-stroke" fill-rule="evenodd" d="M-911.72,1424.21 L1993.2,6858.67 L1993.38,6858.7 L2831.07,6410.93 L13941.2,27195.6 L13103.6,27643.4 L13103.5,27643.5 L16748.5,34462.5 L16943.5,32812.2 L16953.8,32725.3 L22168.1,-11395.6 L22175.2,-11455.8 L22310.5,-12600.7 L17550.7,-10094.6 L17550.7,-10094.5 L17993.2,-9253.99 L3526.47,-1637.25 L3083.95,-2477.73 L3083.82,-2477.82 L-69.9569,-817.356 L-151.305,-336.934 L-126.01,-181.749 L67.538,180.338 L104.598,562.677 L-140.48,858.47 L-672.095,1138.37 L-756.516,1211.33 L-911.72,1424.21"/>
</g>

<g fill="none" stroke="#000000" stroke-opacity="1" stroke-width="1" stroke-linecap="square" stroke-linejoin="bevel" transform="matrix(0.999986,0,0,-0.999986,1353.16,34463.4)"
font-family="MS Shell Dlg 2" font-size="10.3125" font-weight="400" font-style="normal" 
>
</g>

<g fill="none" stroke="#000000" stroke-opacity="1" stroke-width="1" stroke-linecap="square" stroke-linejoin="bevel" transform="matrix(1,0,0,-1,0,66178.9)"
font-family="MS Shell Dlg 2" font-size="10.3125" font-weight="400" font-style="normal" 
>
</g>
</g>
</svg>
