<?xml version="1.0" encoding="UTF-8" standalone="no"?>
<svg width="59940mm" height="28786.9mm"
 xmlns="http://www.w3.org/2000/svg" xmlns:xlink="http://www.w3.org/1999/xlink"  version="1.2" baseProfile="tiny">
<title>SVG Generator Example Drawing</title>
<desc>An SVG drawing created by the SVG Generator</desc>
<defs>
</defs>
<g fill="none" stroke="black" stroke-width="1" fill-rule="evenodd" stroke-linecap="square" stroke-linejoin="bevel" >

<g fill="none" stroke="#000000" stroke-opacity="1" stroke-width="1" stroke-linecap="square" stroke-linejoin="bevel" transform="matrix(1,0,0,-1,0,102001)"
font-family="MS Shell Dlg 2" font-size="10.3125" font-weight="400" font-style="normal" 
>
</g>

<g fill="none" stroke="#000000" stroke-opacity="1" stroke-width="1" stroke-linecap="square" stroke-linejoin="bevel" transform="matrix(1,0,0,-1,0,102001)"
font-family="MS Shell Dlg 2" font-size="10.3125" font-weight="400" font-style="normal" 
>
</g>

<g fill="none" stroke="#000000" stroke-opacity="1" stroke-width="1" stroke-linecap="square" stroke-linejoin="bevel" transform="matrix(1,0,0,-1,106193,1000.53)"
font-family="MS Shell Dlg 2" font-size="10.3125" font-weight="400" font-style="normal" 
>
</g>

<g fill="#333333" fill-opacity="0.2" stroke="#333333" stroke-opacity="1" stroke-width="1" stroke-linecap="round" stroke-linejoin="round" transform="matrix(1,0,0,-1,106193,1000.53)"
font-family="MS Shell Dlg 2" font-size="10.3125" font-weight="400" font-style="normal" 
>
<path vector-effect="non-scaling-stroke" fill-rule="evenodd" d="M106193,-100000 L106116,-100383 L105900,-100707 L105575,-100924 L105193,-101000 L104810,-100924 L104485,-100707 L104269,-100383 L104193,-100000 L104193,0 L104269,382.683 L104485,707.107 L104810,923.88 L105193,1000 L105575,923.88 L105900,707.107 L106116,382.683 L106193,0 L106193,-100000"/>
</g>

<g fill="none" stroke="#000000" stroke-opacity="1" stroke-width="1" stroke-linecap="square" stroke-linejoin="bevel" transform="matrix(1,0,0,-1,106193,1000.53)"
font-family="MS Shell Dlg 2" font-size="10.3125" font-weight="400" font-style="normal" 
>
</g>

<g fill="none" stroke="#000000" stroke-opacity="1" stroke-width="1" stroke-linecap="square" stroke-linejoin="bevel" transform="matrix(1,0,0,-1,106193,1000.53)"
font-family="MS Shell Dlg 2" font-size="10.3125" font-weight="400" font-style="normal" 
>
</g>

<g fill="#333333" fill-opacity="0.2" stroke="#333333" stroke-opacity="1" stroke-width="1" stroke-linecap="round" stroke-linejoin="round" transform="matrix(1,0,0,-1,106193,1000.53)"
font-family="MS Shell Dlg 2" font-size="10.3125" font-weight="400" font-style="normal" 
>
<path vector-effect="non-scaling-stroke" fill-rule="evenodd" d="M62115.5,0 L62191.6,382.683 L62408.4,707.107 L62732.8,923.88 L63115.5,1000 L63498.2,923.88 L63822.6,707.107 L64039.4,382.683 L64115.5,0 L64115.5,-100000 L64039.4,-100383 L63822.6,-100707 L63498.2,-100924 L63115.5,-101000 L62732.8,-100924 L62408.4,-100707 L62191.6,-100383 L62115.5,-100000 L62115.5,0"/>
</g>

<g fill="none" stroke="#000000" stroke-opacity="1" stroke-width="1" stroke-linecap="square" stroke-linejoin="bevel" transform="matrix(1,0,0,-1,106193,1000.53)"
font-family="MS Shell Dlg 2" font-size="10.3125" font-weight="400" font-style="normal" 
>
</g>

<g fill="none" stroke="#000000" stroke-opacity="1" stroke-width="1" stroke-linecap="square" stroke-linejoin="bevel" transform="matrix(1,0,0,-1,106193,1000.53)"
font-family="MS Shell Dlg 2" font-size="10.3125" font-weight="400" font-style="normal" 
>
</g>

<g fill="#333333" fill-opacity="0.2" stroke="#333333" stroke-opacity="1" stroke-width="1" stroke-linecap="round" stroke-linejoin="round" transform="matrix(1,0,0,-1,106193,1000.53)"
font-family="MS Shell Dlg 2" font-size="10.3125" font-weight="400" font-style="normal" 
>
<path vector-effect="non-scaling-stroke" fill-rule="evenodd" d="M-106193,0 L-106116,382.683 L-105900,707.107 L-105575,923.88 L-105193,1000 L-104810,923.88 L-104485,707.107 L-104269,382.683 L-104193,0 L-104193,-100000 L-104269,-100383 L-104485,-100707 L-104810,-100924 L-105193,-101000 L-105575,-100924 L-105900,-100707 L-106116,-100383 L-106193,-100000 L-106193,0"/>
</g>

<g fill="none" stroke="#000000" stroke-opacity="1" stroke-width="1" stroke-linecap="square" stroke-linejoin="bevel" transform="matrix(1,0,0,-1,106193,1000.53)"
font-family="MS Shell Dlg 2" font-size="10.3125" font-weight="400" font-style="normal" 
>
</g>

<g fill="none" stroke="#000000" stroke-opacity="1" stroke-width="1" stroke-linecap="square" stroke-linejoin="bevel" transform="matrix(1,0,0,-1,106193,1000.53)"
font-family="MS Shell Dlg 2" font-size="10.3125" font-weight="400" font-style="normal" 
>
</g>

<g fill="#333333" fill-opacity="0.2" stroke="#333333" stroke-opacity="1" stroke-width="1" stroke-linecap="round" stroke-linejoin="round" transform="matrix(1,0,0,-1,106193,1000.53)"
font-family="MS Shell Dlg 2" font-size="10.3125" font-weight="400" font-style="normal" 
>
<path vector-effect="non-scaling-stroke" fill-rule="evenodd" d="M-64115.5,0 L-64039.4,382.683 L-63822.6,707.107 L-63498.2,923.88 L-63115.5,1000 L-62732.8,923.88 L-62408.4,707.107 L-62191.6,382.683 L-62115.5,0 L-62115.5,-100000 L-62191.6,-100383 L-62408.4,-100707 L-62732.8,-100924 L-63115.5,-101000 L-63498.2,-100924 L-63822.6,-100707 L-64039.4,-100383 L-64115.5,-100000 L-64115.5,0"/>
</g>

<g fill="none" stroke="#000000" stroke-opacity="1" stroke-width="1" stroke-linecap="square" stroke-linejoin="bevel" transform="matrix(1,0,0,-1,106193,1000.53)"
font-family="MS Shell Dlg 2" font-size="10.3125" font-weight="400" font-style="normal" 
>
</g>

<g fill="none" stroke="#000000" stroke-opacity="1" stroke-width="1" stroke-linecap="square" stroke-linejoin="bevel" transform="matrix(1,0,0,-1,106193,1000.53)"
font-family="MS Shell Dlg 2" font-size="10.3125" font-weight="400" font-style="normal" 
>
</g>

<g fill="#333333" fill-opacity="0.2" stroke="#333333" stroke-opacity="1" stroke-width="1" stroke-linecap="round" stroke-linejoin="round" transform="matrix(1,0,0,-1,106193,1000.53)"
font-family="MS Shell Dlg 2" font-size="10.3125" font-weight="400" font-style="normal" 
>
<path vector-effect="non-scaling-stroke" fill-rule="evenodd" d="M-22038.5,0 L-21962.4,382.683 L-21745.6,707.107 L-21421.2,923.88 L-21038.5,1000 L21038.5,1000 L21421.2,923.88 L21745.6,707.107 L21962.4,382.683 L22038.5,0 L22038.5,-100000 L21962.4,-100383 L21745.6,-100707 L21421.2,-100924 L21038.5,-101000 L-21038.5,-101000 L-21421.2,-100924 L-21745.6,-100707 L-21962.4,-100383 L-22038.5,-100000 L-22038.5,0 M-20038.5,-1000 L-20038.5,-99000 L20038.5,-99000 L20038.5,-1000 L-20038.5,-1000"/>
</g>

<g fill="none" stroke="#000000" stroke-opacity="1" stroke-width="1" stroke-linecap="square" stroke-linejoin="bevel" transform="matrix(1,0,0,-1,106193,1000.53)"
font-family="MS Shell Dlg 2" font-size="10.3125" font-weight="400" font-style="normal" 
>
</g>

<g fill="none" stroke="#000000" stroke-opacity="1" stroke-width="1" stroke-linecap="square" stroke-linejoin="bevel" transform="matrix(1,0,0,-1,106193,1000.53)"
font-family="MS Shell Dlg 2" font-size="10.3125" font-weight="400" font-style="normal" 
>
</g>

<g fill="#ae5151" fill-opacity="0.2" stroke="#333333" stroke-opacity="1" stroke-width="1" stroke-linecap="round" stroke-linejoin="round" transform="matrix(1,0,0,-1,106193,1000.53)"
font-family="MS Shell Dlg 2" font-size="10.3125" font-weight="400" font-style="normal" 
>
<path vector-effect="non-scaling-stroke" fill-rule="evenodd" d="M106193,-100000 L106116,-100383 L105900,-100707 L105575,-100924 L105193,-101000 L104810,-100924 L104485,-100707 L104269,-100383 L104193,-100000 L104193,0 L104269,382.683 L104485,707.107 L104810,923.88 L105193,1000 L105575,923.88 L105900,707.107 L106116,382.683 L106193,0 L106193,-100000"/>
</g>

<g fill="none" stroke="#000000" stroke-opacity="1" stroke-width="1" stroke-linecap="square" stroke-linejoin="bevel" transform="matrix(1,0,0,-1,106193,1000.53)"
font-family="MS Shell Dlg 2" font-size="10.3125" font-weight="400" font-style="normal" 
>
</g>

<g fill="none" stroke="#000000" stroke-opacity="1" stroke-width="1" stroke-linecap="square" stroke-linejoin="bevel" transform="matrix(1,0,0,-1,106193,1000.53)"
font-family="MS Shell Dlg 2" font-size="10.3125" font-weight="400" font-style="normal" 
>
</g>

<g fill="#ae5151" fill-opacity="0.2" stroke="#333333" stroke-opacity="1" stroke-width="1" stroke-linecap="round" stroke-linejoin="round" transform="matrix(1,0,0,-1,106193,1000.53)"
font-family="MS Shell Dlg 2" font-size="10.3125" font-weight="400" font-style="normal" 
>
<path vector-effect="non-scaling-stroke" fill-rule="evenodd" d="M62115.5,0 L62191.6,382.683 L62408.4,707.107 L62732.8,923.88 L63115.5,1000 L63498.2,923.88 L63822.6,707.107 L64039.4,382.683 L64115.5,0 L64115.5,-100000 L64039.4,-100383 L63822.6,-100707 L63498.2,-100924 L63115.5,-101000 L62732.8,-100924 L62408.4,-100707 L62191.6,-100383 L62115.5,-100000 L62115.5,0"/>
</g>

<g fill="none" stroke="#000000" stroke-opacity="1" stroke-width="1" stroke-linecap="square" stroke-linejoin="bevel" transform="matrix(1,0,0,-1,106193,1000.53)"
font-family="MS Shell Dlg 2" font-size="10.3125" font-weight="400" font-style="normal" 
>
</g>

<g fill="none" stroke="#000000" stroke-opacity="1" stroke-width="1" stroke-linecap="square" stroke-linejoin="bevel" transform="matrix(1,0,0,-1,106193,1000.53)"
font-family="MS Shell Dlg 2" font-size="10.3125" font-weight="400" font-style="normal" 
>
</g>

<g fill="#ae5151" fill-opacity="0.2" stroke="#333333" stroke-opacity="1" stroke-width="1" stroke-linecap="round" stroke-linejoin="round" transform="matrix(1,0,0,-1,106193,1000.53)"
font-family="MS Shell Dlg 2" font-size="10.3125" font-weight="400" font-style="normal" 
>
<path vector-effect="non-scaling-stroke" fill-rule="evenodd" d="M-106193,0 L-106116,382.683 L-105900,707.107 L-105575,923.88 L-105193,1000 L-104810,923.88 L-104485,707.107 L-104269,382.683 L-104193,0 L-104193,-100000 L-104269,-100383 L-104485,-100707 L-104810,-100924 L-105193,-101000 L-105575,-100924 L-105900,-100707 L-106116,-100383 L-106193,-100000 L-106193,0"/>
</g>

<g fill="none" stroke="#000000" stroke-opacity="1" stroke-width="1" stroke-linecap="square" stroke-linejoin="bevel" transform="matrix(1,0,0,-1,106193,1000.53)"
font-family="MS Shell Dlg 2" font-size="10.3125" font-weight="400" font-style="normal" 
>
</g>

<g fill="none" stroke="#000000" stroke-opacity="1" stroke-width="1" stroke-linecap="square" stroke-linejoin="bevel" transform="matrix(1,0,0,-1,106193,1000.53)"
font-family="MS Shell Dlg 2" font-size="10.3125" font-weight="400" font-style="normal" 
>
</g>

<g fill="#ae5151" fill-opacity="0.2" stroke="#333333" stroke-opacity="1" stroke-width="1" stroke-linecap="round" stroke-linejoin="round" transform="matrix(1,0,0,-1,106193,1000.53)"
font-family="MS Shell Dlg 2" font-size="10.3125" font-weight="400" font-style="normal" 
>
<path vector-effect="non-scaling-stroke" fill-rule="evenodd" d="M-64115.5,0 L-64039.4,382.683 L-63822.6,707.107 L-63498.2,923.88 L-63115.5,1000 L-62732.8,923.88 L-62408.4,707.107 L-62191.6,382.683 L-62115.5,0 L-62115.5,-100000 L-62191.6,-100383 L-62408.4,-100707 L-62732.8,-100924 L-63115.5,-101000 L-63498.2,-100924 L-63822.6,-100707 L-64039.4,-100383 L-64115.5,-100000 L-64115.5,0"/>
</g>

<g fill="none" stroke="#000000" stroke-opacity="1" stroke-width="1" stroke-linecap="square" stroke-linejoin="bevel" transform="matrix(1,0,0,-1,106193,1000.53)"
font-family="MS Shell Dlg 2" font-size="10.3125" font-weight="400" font-style="normal" 
>
</g>

<g fill="none" stroke="#000000" stroke-opacity="1" stroke-width="1" stroke-linecap="square" stroke-linejoin="bevel" transform="matrix(1,0,0,-1,106193,1000.53)"
font-family="MS Shell Dlg 2" font-size="10.3125" font-weight="400" font-style="normal" 
>
</g>

<g fill="#ae5151" fill-opacity="0.2" stroke="#333333" stroke-opacity="1" stroke-width="1" stroke-linecap="round" stroke-linejoin="round" transform="matrix(1,0,0,-1,106193,1000.53)"
font-family="MS Shell Dlg 2" font-size="10.3125" font-weight="400" font-style="normal" 
>
<path vector-effect="non-scaling-stroke" fill-rule="evenodd" d="M-22038.5,0 L-21962.4,382.683 L-21745.6,707.107 L-21421.2,923.88 L-21038.5,1000 L21038.5,1000 L21421.2,923.88 L21745.6,707.107 L21962.4,382.683 L22038.5,0 L22038.5,-100000 L21962.4,-100383 L21745.6,-100707 L21421.2,-100924 L21038.5,-101000 L-21038.5,-101000 L-21421.2,-100924 L-21745.6,-100707 L-21962.4,-100383 L-22038.5,-100000 L-22038.5,0 M-20038.5,-1000 L-20038.5,-99000 L20038.5,-99000 L20038.5,-1000 L-20038.5,-1000"/>
</g>

<g fill="none" stroke="#000000" stroke-opacity="1" stroke-width="1" stroke-linecap="square" stroke-linejoin="bevel" transform="matrix(1,0,0,-1,106193,1000.53)"
font-family="MS Shell Dlg 2" font-size="10.3125" font-weight="400" font-style="normal" 
>
</g>

<g fill="none" stroke="#000000" stroke-opacity="1" stroke-width="1" stroke-linecap="square" stroke-linejoin="bevel" transform="matrix(1,0,0,-1,106193,1000.53)"
font-family="MS Shell Dlg 2" font-size="10.3125" font-weight="400" font-style="normal" 
>
</g>

<g fill="#ffff00" fill-opacity="0.2" stroke="#333333" stroke-opacity="1" stroke-width="1" stroke-linecap="round" stroke-linejoin="round" transform="matrix(1,0,0,-1,106193,1000.53)"
font-family="MS Shell Dlg 2" font-size="10.3125" font-weight="400" font-style="normal" 
>
<path vector-effect="non-scaling-stroke" fill-rule="evenodd" d="M106193,-100000 L106116,-100383 L105900,-100707 L105575,-100924 L105193,-101000 L104810,-100924 L104485,-100707 L104269,-100383 L104193,-100000 L104193,0 L104269,382.683 L104485,707.107 L104810,923.88 L105193,1000 L105575,923.88 L105900,707.107 L106116,382.683 L106193,0 L106193,-100000"/>
</g>

<g fill="none" stroke="#000000" stroke-opacity="1" stroke-width="1" stroke-linecap="square" stroke-linejoin="bevel" transform="matrix(1,0,0,-1,106193,1000.53)"
font-family="MS Shell Dlg 2" font-size="10.3125" font-weight="400" font-style="normal" 
>
</g>

<g fill="none" stroke="#000000" stroke-opacity="1" stroke-width="1" stroke-linecap="square" stroke-linejoin="bevel" transform="matrix(1,0,0,-1,106193,1000.53)"
font-family="MS Shell Dlg 2" font-size="10.3125" font-weight="400" font-style="normal" 
>
</g>

<g fill="#ffff00" fill-opacity="0.2" stroke="#333333" stroke-opacity="1" stroke-width="1" stroke-linecap="round" stroke-linejoin="round" transform="matrix(1,0,0,-1,106193,1000.53)"
font-family="MS Shell Dlg 2" font-size="10.3125" font-weight="400" font-style="normal" 
>
<path vector-effect="non-scaling-stroke" fill-rule="evenodd" d="M62115.5,0 L62191.6,382.683 L62408.4,707.107 L62732.8,923.88 L63115.5,1000 L63498.2,923.88 L63822.6,707.107 L64039.4,382.683 L64115.5,0 L64115.5,-100000 L64039.4,-100383 L63822.6,-100707 L63498.2,-100924 L63115.5,-101000 L62732.8,-100924 L62408.4,-100707 L62191.6,-100383 L62115.5,-100000 L62115.5,0"/>
</g>

<g fill="none" stroke="#000000" stroke-opacity="1" stroke-width="1" stroke-linecap="square" stroke-linejoin="bevel" transform="matrix(1,0,0,-1,106193,1000.53)"
font-family="MS Shell Dlg 2" font-size="10.3125" font-weight="400" font-style="normal" 
>
</g>

<g fill="none" stroke="#000000" stroke-opacity="1" stroke-width="1" stroke-linecap="square" stroke-linejoin="bevel" transform="matrix(1,0,0,-1,106193,1000.53)"
font-family="MS Shell Dlg 2" font-size="10.3125" font-weight="400" font-style="normal" 
>
</g>

<g fill="#ffff00" fill-opacity="0.2" stroke="#333333" stroke-opacity="1" stroke-width="1" stroke-linecap="round" stroke-linejoin="round" transform="matrix(1,0,0,-1,106193,1000.53)"
font-family="MS Shell Dlg 2" font-size="10.3125" font-weight="400" font-style="normal" 
>
<path vector-effect="non-scaling-stroke" fill-rule="evenodd" d="M-106193,0 L-106116,382.683 L-105900,707.107 L-105575,923.88 L-105193,1000 L-104810,923.88 L-104485,707.107 L-104269,382.683 L-104193,0 L-104193,-100000 L-104269,-100383 L-104485,-100707 L-104810,-100924 L-105193,-101000 L-105575,-100924 L-105900,-100707 L-106116,-100383 L-106193,-100000 L-106193,0"/>
</g>

<g fill="none" stroke="#000000" stroke-opacity="1" stroke-width="1" stroke-linecap="square" stroke-linejoin="bevel" transform="matrix(1,0,0,-1,106193,1000.53)"
font-family="MS Shell Dlg 2" font-size="10.3125" font-weight="400" font-style="normal" 
>
</g>

<g fill="none" stroke="#000000" stroke-opacity="1" stroke-width="1" stroke-linecap="square" stroke-linejoin="bevel" transform="matrix(1,0,0,-1,106193,1000.53)"
font-family="MS Shell Dlg 2" font-size="10.3125" font-weight="400" font-style="normal" 
>
</g>

<g fill="#ffff00" fill-opacity="0.2" stroke="#333333" stroke-opacity="1" stroke-width="1" stroke-linecap="round" stroke-linejoin="round" transform="matrix(1,0,0,-1,106193,1000.53)"
font-family="MS Shell Dlg 2" font-size="10.3125" font-weight="400" font-style="normal" 
>
<path vector-effect="non-scaling-stroke" fill-rule="evenodd" d="M-64115.5,0 L-64039.4,382.683 L-63822.6,707.107 L-63498.2,923.88 L-63115.5,1000 L-62732.8,923.88 L-62408.4,707.107 L-62191.6,382.683 L-62115.5,0 L-62115.5,-100000 L-62191.6,-100383 L-62408.4,-100707 L-62732.8,-100924 L-63115.5,-101000 L-63498.2,-100924 L-63822.6,-100707 L-64039.4,-100383 L-64115.5,-100000 L-64115.5,0"/>
</g>

<g fill="none" stroke="#000000" stroke-opacity="1" stroke-width="1" stroke-linecap="square" stroke-linejoin="bevel" transform="matrix(1,0,0,-1,106193,1000.53)"
font-family="MS Shell Dlg 2" font-size="10.3125" font-weight="400" font-style="normal" 
>
</g>

<g fill="none" stroke="#000000" stroke-opacity="1" stroke-width="1" stroke-linecap="square" stroke-linejoin="bevel" transform="matrix(1,0,0,-1,106193,1000.53)"
font-family="MS Shell Dlg 2" font-size="10.3125" font-weight="400" font-style="normal" 
>
</g>

<g fill="#ffff00" fill-opacity="0.2" stroke="#333333" stroke-opacity="1" stroke-width="1" stroke-linecap="round" stroke-linejoin="round" transform="matrix(1,0,0,-1,106193,1000.53)"
font-family="MS Shell Dlg 2" font-size="10.3125" font-weight="400" font-style="normal" 
>
<path vector-effect="non-scaling-stroke" fill-rule="evenodd" d="M-22038.5,0 L-21962.4,382.683 L-21745.6,707.107 L-21421.2,923.88 L-21038.5,1000 L21038.5,1000 L21421.2,923.88 L21745.6,707.107 L21962.4,382.683 L22038.5,0 L22038.5,-100000 L21962.4,-100383 L21745.6,-100707 L21421.2,-100924 L21038.5,-101000 L-21038.5,-101000 L-21421.2,-100924 L-21745.6,-100707 L-21962.4,-100383 L-22038.5,-100000 L-22038.5,0 M-20038.5,-1000 L-20038.5,-99000 L20038.5,-99000 L20038.5,-1000 L-20038.5,-1000"/>
</g>

<g fill="none" stroke="#000000" stroke-opacity="1" stroke-width="1" stroke-linecap="square" stroke-linejoin="bevel" transform="matrix(1,0,0,-1,106193,1000.53)"
font-family="MS Shell Dlg 2" font-size="10.3125" font-weight="400" font-style="normal" 
>
</g>

<g fill="none" stroke="#000000" stroke-opacity="1" stroke-width="1" stroke-linecap="square" stroke-linejoin="bevel" transform="matrix(1,0,0,-1,106193,1000.53)"
font-family="MS Shell Dlg 2" font-size="10.3125" font-weight="400" font-style="normal" 
>
</g>

<g fill="#ae5151" fill-opacity="0.2" stroke="#333333" stroke-opacity="1" stroke-width="1" stroke-linecap="round" stroke-linejoin="round" transform="matrix(1,0,0,-1,106193,1000.53)"
font-family="MS Shell Dlg 2" font-size="10.3125" font-weight="400" font-style="normal" 
>
<path vector-effect="non-scaling-stroke" fill-rule="evenodd" d="M106193,-100000 L106116,-100383 L105900,-100707 L105575,-100924 L105193,-101000 L104810,-100924 L104485,-100707 L104269,-100383 L104193,-100000 L104193,0 L104269,382.683 L104485,707.107 L104810,923.88 L105193,1000 L105575,923.88 L105900,707.107 L106116,382.683 L106193,0 L106193,-100000"/>
</g>

<g fill="none" stroke="#000000" stroke-opacity="1" stroke-width="1" stroke-linecap="square" stroke-linejoin="bevel" transform="matrix(1,0,0,-1,106193,1000.53)"
font-family="MS Shell Dlg 2" font-size="10.3125" font-weight="400" font-style="normal" 
>
</g>

<g fill="none" stroke="#000000" stroke-opacity="1" stroke-width="1" stroke-linecap="square" stroke-linejoin="bevel" transform="matrix(1,0,0,-1,106193,1000.53)"
font-family="MS Shell Dlg 2" font-size="10.3125" font-weight="400" font-style="normal" 
>
</g>

<g fill="#ae5151" fill-opacity="0.2" stroke="#333333" stroke-opacity="1" stroke-width="1" stroke-linecap="round" stroke-linejoin="round" transform="matrix(1,0,0,-1,106193,1000.53)"
font-family="MS Shell Dlg 2" font-size="10.3125" font-weight="400" font-style="normal" 
>
<path vector-effect="non-scaling-stroke" fill-rule="evenodd" d="M62115.5,0 L62191.6,382.683 L62408.4,707.107 L62732.8,923.88 L63115.5,1000 L63498.2,923.88 L63822.6,707.107 L64039.4,382.683 L64115.5,0 L64115.5,-100000 L64039.4,-100383 L63822.6,-100707 L63498.2,-100924 L63115.5,-101000 L62732.8,-100924 L62408.4,-100707 L62191.6,-100383 L62115.5,-100000 L62115.5,0"/>
</g>

<g fill="none" stroke="#000000" stroke-opacity="1" stroke-width="1" stroke-linecap="square" stroke-linejoin="bevel" transform="matrix(1,0,0,-1,106193,1000.53)"
font-family="MS Shell Dlg 2" font-size="10.3125" font-weight="400" font-style="normal" 
>
</g>

<g fill="none" stroke="#000000" stroke-opacity="1" stroke-width="1" stroke-linecap="square" stroke-linejoin="bevel" transform="matrix(1,0,0,-1,106193,1000.53)"
font-family="MS Shell Dlg 2" font-size="10.3125" font-weight="400" font-style="normal" 
>
</g>

<g fill="#ae5151" fill-opacity="0.2" stroke="#333333" stroke-opacity="1" stroke-width="1" stroke-linecap="round" stroke-linejoin="round" transform="matrix(1,0,0,-1,106193,1000.53)"
font-family="MS Shell Dlg 2" font-size="10.3125" font-weight="400" font-style="normal" 
>
<path vector-effect="non-scaling-stroke" fill-rule="evenodd" d="M-106193,0 L-106116,382.683 L-105900,707.107 L-105575,923.88 L-105193,1000 L-104810,923.88 L-104485,707.107 L-104269,382.683 L-104193,0 L-104193,-100000 L-104269,-100383 L-104485,-100707 L-104810,-100924 L-105193,-101000 L-105575,-100924 L-105900,-100707 L-106116,-100383 L-106193,-100000 L-106193,0"/>
</g>

<g fill="none" stroke="#000000" stroke-opacity="1" stroke-width="1" stroke-linecap="square" stroke-linejoin="bevel" transform="matrix(1,0,0,-1,106193,1000.53)"
font-family="MS Shell Dlg 2" font-size="10.3125" font-weight="400" font-style="normal" 
>
</g>

<g fill="none" stroke="#000000" stroke-opacity="1" stroke-width="1" stroke-linecap="square" stroke-linejoin="bevel" transform="matrix(1,0,0,-1,106193,1000.53)"
font-family="MS Shell Dlg 2" font-size="10.3125" font-weight="400" font-style="normal" 
>
</g>

<g fill="#ae5151" fill-opacity="0.2" stroke="#333333" stroke-opacity="1" stroke-width="1" stroke-linecap="round" stroke-linejoin="round" transform="matrix(1,0,0,-1,106193,1000.53)"
font-family="MS Shell Dlg 2" font-size="10.3125" font-weight="400" font-style="normal" 
>
<path vector-effect="non-scaling-stroke" fill-rule="evenodd" d="M-64115.5,0 L-64039.4,382.683 L-63822.6,707.107 L-63498.2,923.88 L-63115.5,1000 L-62732.8,923.88 L-62408.4,707.107 L-62191.6,382.683 L-62115.5,0 L-62115.5,-100000 L-62191.6,-100383 L-62408.4,-100707 L-62732.8,-100924 L-63115.5,-101000 L-63498.2,-100924 L-63822.6,-100707 L-64039.4,-100383 L-64115.5,-100000 L-64115.5,0"/>
</g>

<g fill="none" stroke="#000000" stroke-opacity="1" stroke-width="1" stroke-linecap="square" stroke-linejoin="bevel" transform="matrix(1,0,0,-1,106193,1000.53)"
font-family="MS Shell Dlg 2" font-size="10.3125" font-weight="400" font-style="normal" 
>
</g>

<g fill="none" stroke="#000000" stroke-opacity="1" stroke-width="1" stroke-linecap="square" stroke-linejoin="bevel" transform="matrix(1,0,0,-1,106193,1000.53)"
font-family="MS Shell Dlg 2" font-size="10.3125" font-weight="400" font-style="normal" 
>
</g>

<g fill="#ae5151" fill-opacity="0.2" stroke="#333333" stroke-opacity="1" stroke-width="1" stroke-linecap="round" stroke-linejoin="round" transform="matrix(1,0,0,-1,106193,1000.53)"
font-family="MS Shell Dlg 2" font-size="10.3125" font-weight="400" font-style="normal" 
>
<path vector-effect="non-scaling-stroke" fill-rule="evenodd" d="M-22038.5,0 L-21962.4,382.683 L-21745.6,707.107 L-21421.2,923.88 L-21038.5,1000 L21038.5,1000 L21421.2,923.88 L21745.6,707.107 L21962.4,382.683 L22038.5,0 L22038.5,-100000 L21962.4,-100383 L21745.6,-100707 L21421.2,-100924 L21038.5,-101000 L-21038.5,-101000 L-21421.2,-100924 L-21745.6,-100707 L-21962.4,-100383 L-22038.5,-100000 L-22038.5,0 M-20038.5,-1000 L-20038.5,-99000 L20038.5,-99000 L20038.5,-1000 L-20038.5,-1000"/>
</g>

<g fill="none" stroke="#000000" stroke-opacity="1" stroke-width="1" stroke-linecap="square" stroke-linejoin="bevel" transform="matrix(1,0,0,-1,106193,1000.53)"
font-family="MS Shell Dlg 2" font-size="10.3125" font-weight="400" font-style="normal" 
>
</g>

<g fill="none" stroke="#000000" stroke-opacity="1" stroke-width="1" stroke-linecap="square" stroke-linejoin="bevel" transform="matrix(1,0,0,-1,106193,1000.53)"
font-family="MS Shell Dlg 2" font-size="10.3125" font-weight="400" font-style="normal" 
>
</g>

<g fill="#333333" fill-opacity="0.2" stroke="#333333" stroke-opacity="1" stroke-width="1" stroke-linecap="round" stroke-linejoin="round" transform="matrix(1,0,0,-1,106193,1000.53)"
font-family="MS Shell Dlg 2" font-size="10.3125" font-weight="400" font-style="normal" 
>
<path vector-effect="non-scaling-stroke" fill-rule="evenodd" d="M106193,-100000 L106116,-100383 L105900,-100707 L105575,-100924 L105193,-101000 L104810,-100924 L104485,-100707 L104269,-100383 L104193,-100000 L104193,0 L104269,382.683 L104485,707.107 L104810,923.88 L105193,1000 L105575,923.88 L105900,707.107 L106116,382.683 L106193,0 L106193,-100000"/>
</g>

<g fill="none" stroke="#000000" stroke-opacity="1" stroke-width="1" stroke-linecap="square" stroke-linejoin="bevel" transform="matrix(1,0,0,-1,106193,1000.53)"
font-family="MS Shell Dlg 2" font-size="10.3125" font-weight="400" font-style="normal" 
>
</g>

<g fill="none" stroke="#000000" stroke-opacity="1" stroke-width="1" stroke-linecap="square" stroke-linejoin="bevel" transform="matrix(1,0,0,-1,106193,1000.53)"
font-family="MS Shell Dlg 2" font-size="10.3125" font-weight="400" font-style="normal" 
>
</g>

<g fill="#333333" fill-opacity="0.2" stroke="#333333" stroke-opacity="1" stroke-width="1" stroke-linecap="round" stroke-linejoin="round" transform="matrix(1,0,0,-1,106193,1000.53)"
font-family="MS Shell Dlg 2" font-size="10.3125" font-weight="400" font-style="normal" 
>
<path vector-effect="non-scaling-stroke" fill-rule="evenodd" d="M62115.5,0 L62191.6,382.683 L62408.4,707.107 L62732.8,923.88 L63115.5,1000 L63498.2,923.88 L63822.6,707.107 L64039.4,382.683 L64115.5,0 L64115.5,-100000 L64039.4,-100383 L63822.6,-100707 L63498.2,-100924 L63115.5,-101000 L62732.8,-100924 L62408.4,-100707 L62191.6,-100383 L62115.5,-100000 L62115.5,0"/>
</g>

<g fill="none" stroke="#000000" stroke-opacity="1" stroke-width="1" stroke-linecap="square" stroke-linejoin="bevel" transform="matrix(1,0,0,-1,106193,1000.53)"
font-family="MS Shell Dlg 2" font-size="10.3125" font-weight="400" font-style="normal" 
>
</g>

<g fill="none" stroke="#000000" stroke-opacity="1" stroke-width="1" stroke-linecap="square" stroke-linejoin="bevel" transform="matrix(1,0,0,-1,106193,1000.53)"
font-family="MS Shell Dlg 2" font-size="10.3125" font-weight="400" font-style="normal" 
>
</g>

<g fill="#333333" fill-opacity="0.2" stroke="#333333" stroke-opacity="1" stroke-width="1" stroke-linecap="round" stroke-linejoin="round" transform="matrix(1,0,0,-1,106193,1000.53)"
font-family="MS Shell Dlg 2" font-size="10.3125" font-weight="400" font-style="normal" 
>
<path vector-effect="non-scaling-stroke" fill-rule="evenodd" d="M-106193,0 L-106116,382.683 L-105900,707.107 L-105575,923.88 L-105193,1000 L-104810,923.88 L-104485,707.107 L-104269,382.683 L-104193,0 L-104193,-100000 L-104269,-100383 L-104485,-100707 L-104810,-100924 L-105193,-101000 L-105575,-100924 L-105900,-100707 L-106116,-100383 L-106193,-100000 L-106193,0"/>
</g>

<g fill="none" stroke="#000000" stroke-opacity="1" stroke-width="1" stroke-linecap="square" stroke-linejoin="bevel" transform="matrix(1,0,0,-1,106193,1000.53)"
font-family="MS Shell Dlg 2" font-size="10.3125" font-weight="400" font-style="normal" 
>
</g>

<g fill="none" stroke="#000000" stroke-opacity="1" stroke-width="1" stroke-linecap="square" stroke-linejoin="bevel" transform="matrix(1,0,0,-1,106193,1000.53)"
font-family="MS Shell Dlg 2" font-size="10.3125" font-weight="400" font-style="normal" 
>
</g>

<g fill="#333333" fill-opacity="0.2" stroke="#333333" stroke-opacity="1" stroke-width="1" stroke-linecap="round" stroke-linejoin="round" transform="matrix(1,0,0,-1,106193,1000.53)"
font-family="MS Shell Dlg 2" font-size="10.3125" font-weight="400" font-style="normal" 
>
<path vector-effect="non-scaling-stroke" fill-rule="evenodd" d="M-64115.5,0 L-64039.4,382.683 L-63822.6,707.107 L-63498.2,923.88 L-63115.5,1000 L-62732.8,923.88 L-62408.4,707.107 L-62191.6,382.683 L-62115.5,0 L-62115.5,-100000 L-62191.6,-100383 L-62408.4,-100707 L-62732.8,-100924 L-63115.5,-101000 L-63498.2,-100924 L-63822.6,-100707 L-64039.4,-100383 L-64115.5,-100000 L-64115.5,0"/>
</g>

<g fill="none" stroke="#000000" stroke-opacity="1" stroke-width="1" stroke-linecap="square" stroke-linejoin="bevel" transform="matrix(1,0,0,-1,106193,1000.53)"
font-family="MS Shell Dlg 2" font-size="10.3125" font-weight="400" font-style="normal" 
>
</g>

<g fill="none" stroke="#000000" stroke-opacity="1" stroke-width="1" stroke-linecap="square" stroke-linejoin="bevel" transform="matrix(1,0,0,-1,106193,1000.53)"
font-family="MS Shell Dlg 2" font-size="10.3125" font-weight="400" font-style="normal" 
>
</g>

<g fill="#333333" fill-opacity="0.2" stroke="#333333" stroke-opacity="1" stroke-width="1" stroke-linecap="round" stroke-linejoin="round" transform="matrix(1,0,0,-1,106193,1000.53)"
font-family="MS Shell Dlg 2" font-size="10.3125" font-weight="400" font-style="normal" 
>
<path vector-effect="non-scaling-stroke" fill-rule="evenodd" d="M-22038.5,0 L-21962.4,382.683 L-21745.6,707.107 L-21421.2,923.88 L-21038.5,1000 L21038.5,1000 L21421.2,923.88 L21745.6,707.107 L21962.4,382.683 L22038.5,0 L22038.5,-100000 L21962.4,-100383 L21745.6,-100707 L21421.2,-100924 L21038.5,-101000 L-21038.5,-101000 L-21421.2,-100924 L-21745.6,-100707 L-21962.4,-100383 L-22038.5,-100000 L-22038.5,0 M-20038.5,-1000 L-20038.5,-99000 L20038.5,-99000 L20038.5,-1000 L-20038.5,-1000"/>
</g>

<g fill="none" stroke="#000000" stroke-opacity="1" stroke-width="1" stroke-linecap="square" stroke-linejoin="bevel" transform="matrix(1,0,0,-1,106193,1000.53)"
font-family="MS Shell Dlg 2" font-size="10.3125" font-weight="400" font-style="normal" 
>
</g>

<g fill="none" stroke="#000000" stroke-opacity="1" stroke-width="1" stroke-linecap="square" stroke-linejoin="bevel" transform="matrix(1,0,0,-1,0,102001)"
font-family="MS Shell Dlg 2" font-size="10.3125" font-weight="400" font-style="normal" 
>
</g>
</g>
</svg>
