<?xml version="1.0" encoding="UTF-8" standalone="no"?>
<svg width="71815.1mm" height="69923.4mm"
 xmlns="http://www.w3.org/2000/svg" xmlns:xlink="http://www.w3.org/1999/xlink"  version="1.2" baseProfile="tiny">
<title>SVG Generator Example Drawing</title>
<desc>An SVG drawing created by the SVG Generator</desc>
<defs>
</defs>
<g fill="none" stroke="black" stroke-width="1" fill-rule="evenodd" stroke-linecap="square" stroke-linejoin="bevel" >

<g fill="none" stroke="#000000" stroke-opacity="1" stroke-width="1" stroke-linecap="square" stroke-linejoin="bevel" transform="matrix(1,0,0,-1,0,247760)"
font-family="MS Shell Dlg 2" font-size="10.3125" font-weight="400" font-style="normal" 
>
</g>

<g fill="none" stroke="#000000" stroke-opacity="1" stroke-width="1" stroke-linecap="square" stroke-linejoin="bevel" transform="matrix(1,0,0,-1,0,247760)"
font-family="MS Shell Dlg 2" font-size="10.3125" font-weight="400" font-style="normal" 
>
</g>

<g fill="none" stroke="#000000" stroke-opacity="1" stroke-width="1" stroke-linecap="square" stroke-linejoin="bevel" transform="matrix(1,0,0,-1,127232,73880.1)"
font-family="MS Shell Dlg 2" font-size="10.3125" font-weight="400" font-style="normal" 
>
</g>

<g fill="#333333" fill-opacity="0.2" stroke="#333333" stroke-opacity="1" stroke-width="1" stroke-linecap="round" stroke-linejoin="round" transform="matrix(1,0,0,-1,127232,73880.1)"
font-family="MS Shell Dlg 2" font-size="10.3125" font-weight="400" font-style="normal" 
>
<path vector-effect="non-scaling-stroke" fill-rule="evenodd" d="M-22770.6,-101000 L-126231,-101000 L-126614,-100924 L-126938,-100707 L-127155,-100383 L-127231,-100000 L-127231,0 L-127155,382.683 L-126938,707.107 L-126614,923.88 L-126231,1000 L-22770.6,1000 L-42943,35939.8 L-43061.8,36266.1 L-43061.8,36613.4 L-42943,36939.8 L-21904.5,73379.5 L-21681.3,73645.6 L-21380.5,73819.2 L-21038.5,73879.5 L21038.5,73879.5 L21380.5,73819.2 L21681.3,73645.6 L21904.5,73379.5 L42943,36939.8 L43061.8,36613.4 L43061.8,36266.1 L42943,35939.8 L22770.6,1000 L126231,1000 L126614,923.88 L126938,707.107 L127155,382.683 L127231,0 L127231,-100000 L127155,-100383 L126938,-100707 L126614,-100924 L126231,-101000 L22770.6,-101000 L42943,-135940 L43061.8,-136266 L43061.8,-136613 L42943,-136940 L21904.5,-173380 L21681.3,-173646 L21380.5,-173819 L21038.5,-173880 L-21038.5,-173880 L-21380.5,-173819 L-21681.3,-173646 L-21904.5,-173380 L-42943,-136940 L-43061.8,-136613 L-43061.8,-136266 L-42943,-135940 L-22770.6,-101000"/>
</g>

<g fill="none" stroke="#000000" stroke-opacity="1" stroke-width="1" stroke-linecap="square" stroke-linejoin="bevel" transform="matrix(1,0,0,-1,127232,73880.1)"
font-family="MS Shell Dlg 2" font-size="10.3125" font-weight="400" font-style="normal" 
>
</g>

<g fill="none" stroke="#000000" stroke-opacity="1" stroke-width="1" stroke-linecap="square" stroke-linejoin="bevel" transform="matrix(1,0,0,-1,127232,73880.1)"
font-family="MS Shell Dlg 2" font-size="10.3125" font-weight="400" font-style="normal" 
>
</g>

<g fill="#ae5151" fill-opacity="0.2" stroke="#333333" stroke-opacity="1" stroke-width="1" stroke-linecap="round" stroke-linejoin="round" transform="matrix(1,0,0,-1,127232,73880.1)"
font-family="MS Shell Dlg 2" font-size="10.3125" font-weight="400" font-style="normal" 
>
<path vector-effect="non-scaling-stroke" fill-rule="evenodd" d="M-22770.6,-101000 L-126231,-101000 L-126614,-100924 L-126938,-100707 L-127155,-100383 L-127231,-100000 L-127231,0 L-127155,382.683 L-126938,707.107 L-126614,923.88 L-126231,1000 L-22770.6,1000 L-42943,35939.8 L-43061.8,36266.1 L-43061.8,36613.4 L-42943,36939.8 L-21904.5,73379.5 L-21681.3,73645.6 L-21380.5,73819.2 L-21038.5,73879.5 L21038.5,73879.5 L21380.5,73819.2 L21681.3,73645.6 L21904.5,73379.5 L42943,36939.8 L43061.8,36613.4 L43061.8,36266.1 L42943,35939.8 L22770.6,1000 L126231,1000 L126614,923.88 L126938,707.107 L127155,382.683 L127231,0 L127231,-100000 L127155,-100383 L126938,-100707 L126614,-100924 L126231,-101000 L22770.6,-101000 L42943,-135940 L43061.8,-136266 L43061.8,-136613 L42943,-136940 L21904.5,-173380 L21681.3,-173646 L21380.5,-173819 L21038.5,-173880 L-21038.5,-173880 L-21380.5,-173819 L-21681.3,-173646 L-21904.5,-173380 L-42943,-136940 L-43061.8,-136613 L-43061.8,-136266 L-42943,-135940 L-22770.6,-101000"/>
</g>

<g fill="none" stroke="#000000" stroke-opacity="1" stroke-width="1" stroke-linecap="square" stroke-linejoin="bevel" transform="matrix(1,0,0,-1,127232,73880.1)"
font-family="MS Shell Dlg 2" font-size="10.3125" font-weight="400" font-style="normal" 
>
</g>

<g fill="none" stroke="#000000" stroke-opacity="1" stroke-width="1" stroke-linecap="square" stroke-linejoin="bevel" transform="matrix(1,0,0,-1,127232,73880.1)"
font-family="MS Shell Dlg 2" font-size="10.3125" font-weight="400" font-style="normal" 
>
</g>

<g fill="#ffff00" fill-opacity="0.2" stroke="#333333" stroke-opacity="1" stroke-width="1" stroke-linecap="round" stroke-linejoin="round" transform="matrix(1,0,0,-1,127232,73880.1)"
font-family="MS Shell Dlg 2" font-size="10.3125" font-weight="400" font-style="normal" 
>
<path vector-effect="non-scaling-stroke" fill-rule="evenodd" d="M-22770.6,-101000 L-126231,-101000 L-126614,-100924 L-126938,-100707 L-127155,-100383 L-127231,-100000 L-127231,0 L-127155,382.683 L-126938,707.107 L-126614,923.88 L-126231,1000 L-22770.6,1000 L-42943,35939.8 L-43061.8,36266.1 L-43061.8,36613.4 L-42943,36939.8 L-21904.5,73379.5 L-21681.3,73645.6 L-21380.5,73819.2 L-21038.5,73879.5 L21038.5,73879.5 L21380.5,73819.2 L21681.3,73645.6 L21904.5,73379.5 L42943,36939.8 L43061.8,36613.4 L43061.8,36266.1 L42943,35939.8 L22770.6,1000 L126231,1000 L126614,923.88 L126938,707.107 L127155,382.683 L127231,0 L127231,-100000 L127155,-100383 L126938,-100707 L126614,-100924 L126231,-101000 L22770.6,-101000 L42943,-135940 L43061.8,-136266 L43061.8,-136613 L42943,-136940 L21904.5,-173380 L21681.3,-173646 L21380.5,-173819 L21038.5,-173880 L-21038.5,-173880 L-21380.5,-173819 L-21681.3,-173646 L-21904.5,-173380 L-42943,-136940 L-43061.8,-136613 L-43061.8,-136266 L-42943,-135940 L-22770.6,-101000"/>
</g>

<g fill="none" stroke="#000000" stroke-opacity="1" stroke-width="1" stroke-linecap="square" stroke-linejoin="bevel" transform="matrix(1,0,0,-1,127232,73880.1)"
font-family="MS Shell Dlg 2" font-size="10.3125" font-weight="400" font-style="normal" 
>
</g>

<g fill="none" stroke="#000000" stroke-opacity="1" stroke-width="1" stroke-linecap="square" stroke-linejoin="bevel" transform="matrix(1,0,0,-1,127232,73880.1)"
font-family="MS Shell Dlg 2" font-size="10.3125" font-weight="400" font-style="normal" 
>
</g>

<g fill="#ae5151" fill-opacity="0.2" stroke="#333333" stroke-opacity="1" stroke-width="1" stroke-linecap="round" stroke-linejoin="round" transform="matrix(1,0,0,-1,127232,73880.1)"
font-family="MS Shell Dlg 2" font-size="10.3125" font-weight="400" font-style="normal" 
>
<path vector-effect="non-scaling-stroke" fill-rule="evenodd" d="M-22770.6,-101000 L-126231,-101000 L-126614,-100924 L-126938,-100707 L-127155,-100383 L-127231,-100000 L-127231,0 L-127155,382.683 L-126938,707.107 L-126614,923.88 L-126231,1000 L-22770.6,1000 L-42943,35939.8 L-43061.8,36266.1 L-43061.8,36613.4 L-42943,36939.8 L-21904.5,73379.5 L-21681.3,73645.6 L-21380.5,73819.2 L-21038.5,73879.5 L21038.5,73879.5 L21380.5,73819.2 L21681.3,73645.6 L21904.5,73379.5 L42943,36939.8 L43061.8,36613.4 L43061.8,36266.1 L42943,35939.8 L22770.6,1000 L126231,1000 L126614,923.88 L126938,707.107 L127155,382.683 L127231,0 L127231,-100000 L127155,-100383 L126938,-100707 L126614,-100924 L126231,-101000 L22770.6,-101000 L42943,-135940 L43061.8,-136266 L43061.8,-136613 L42943,-136940 L21904.5,-173380 L21681.3,-173646 L21380.5,-173819 L21038.5,-173880 L-21038.5,-173880 L-21380.5,-173819 L-21681.3,-173646 L-21904.5,-173380 L-42943,-136940 L-43061.8,-136613 L-43061.8,-136266 L-42943,-135940 L-22770.6,-101000"/>
</g>

<g fill="none" stroke="#000000" stroke-opacity="1" stroke-width="1" stroke-linecap="square" stroke-linejoin="bevel" transform="matrix(1,0,0,-1,127232,73880.1)"
font-family="MS Shell Dlg 2" font-size="10.3125" font-weight="400" font-style="normal" 
>
</g>

<g fill="none" stroke="#000000" stroke-opacity="1" stroke-width="1" stroke-linecap="square" stroke-linejoin="bevel" transform="matrix(1,0,0,-1,127232,73880.1)"
font-family="MS Shell Dlg 2" font-size="10.3125" font-weight="400" font-style="normal" 
>
</g>

<g fill="#333333" fill-opacity="0.2" stroke="#333333" stroke-opacity="1" stroke-width="1" stroke-linecap="round" stroke-linejoin="round" transform="matrix(1,0,0,-1,127232,73880.1)"
font-family="MS Shell Dlg 2" font-size="10.3125" font-weight="400" font-style="normal" 
>
<path vector-effect="non-scaling-stroke" fill-rule="evenodd" d="M-22770.6,-101000 L-126231,-101000 L-126614,-100924 L-126938,-100707 L-127155,-100383 L-127231,-100000 L-127231,0 L-127155,382.683 L-126938,707.107 L-126614,923.88 L-126231,1000 L-22770.6,1000 L-42943,35939.8 L-43061.8,36266.1 L-43061.8,36613.4 L-42943,36939.8 L-21904.5,73379.5 L-21681.3,73645.6 L-21380.5,73819.2 L-21038.5,73879.5 L21038.5,73879.5 L21380.5,73819.2 L21681.3,73645.6 L21904.5,73379.5 L42943,36939.8 L43061.8,36613.4 L43061.8,36266.1 L42943,35939.8 L22770.6,1000 L126231,1000 L126614,923.88 L126938,707.107 L127155,382.683 L127231,0 L127231,-100000 L127155,-100383 L126938,-100707 L126614,-100924 L126231,-101000 L22770.6,-101000 L42943,-135940 L43061.8,-136266 L43061.8,-136613 L42943,-136940 L21904.5,-173380 L21681.3,-173646 L21380.5,-173819 L21038.5,-173880 L-21038.5,-173880 L-21380.5,-173819 L-21681.3,-173646 L-21904.5,-173380 L-42943,-136940 L-43061.8,-136613 L-43061.8,-136266 L-42943,-135940 L-22770.6,-101000"/>
</g>

<g fill="none" stroke="#000000" stroke-opacity="1" stroke-width="1" stroke-linecap="square" stroke-linejoin="bevel" transform="matrix(1,0,0,-1,127232,73880.1)"
font-family="MS Shell Dlg 2" font-size="10.3125" font-weight="400" font-style="normal" 
>
</g>

<g fill="none" stroke="#000000" stroke-opacity="1" stroke-width="1" stroke-linecap="square" stroke-linejoin="bevel" transform="matrix(1,0,0,-1,0,247760)"
font-family="MS Shell Dlg 2" font-size="10.3125" font-weight="400" font-style="normal" 
>
</g>
</g>
</svg>
