<?xml version="1.0" encoding="UTF-8" standalone="no"?>
<svg width="71815.7mm" height="69923.9mm"
 xmlns="http://www.w3.org/2000/svg" xmlns:xlink="http://www.w3.org/1999/xlink"  version="1.2" baseProfile="tiny">
<title>SVG Generator Example Drawing</title>
<desc>An SVG drawing created by the SVG Generator</desc>
<defs>
</defs>
<g fill="none" stroke="black" stroke-width="1" fill-rule="evenodd" stroke-linecap="square" stroke-linejoin="bevel" >

<g fill="none" stroke="#000000" stroke-opacity="1" stroke-width="1" stroke-linecap="square" stroke-linejoin="bevel" transform="matrix(1,0,0,-1,0,247762)"
font-family="MS Shell Dlg 2" font-size="10.3125" font-weight="400" font-style="normal" 
>
</g>

<g fill="none" stroke="#000000" stroke-opacity="1" stroke-width="1" stroke-linecap="square" stroke-linejoin="bevel" transform="matrix(1,0,0,-1,0,247762)"
font-family="MS Shell Dlg 2" font-size="10.3125" font-weight="400" font-style="normal" 
>
</g>

<g fill="none" stroke="#000000" stroke-opacity="1" stroke-width="1" stroke-linecap="square" stroke-linejoin="bevel" transform="matrix(1,0,0,-1,127232,73881.1)"
font-family="MS Shell Dlg 2" font-size="10.3125" font-weight="400" font-style="normal" 
>
</g>

<g fill="#333333" fill-opacity="0.2" stroke="#333333" stroke-opacity="1" stroke-width="1" stroke-linecap="round" stroke-linejoin="round" transform="matrix(1,0,0,-1,127232,73881.1)"
font-family="MS Shell Dlg 2" font-size="10.3125" font-weight="400" font-style="normal" 
>
<path vector-effect="non-scaling-stroke" fill-rule="evenodd" d="M105741,-40039.6 L105742,-40039.2 L105742,-40038.9 L105742,-40038.8 L106193,-40038.8 L106193,-40038.9 L106193,-40039.1 L106193,-40039.5 L106194,-40039.8 L106194,-59960.2 L106193,-59960.5 L106193,-59960.9 L106193,-59961.1 L106193,-59961.2 L105742,-59961.2 L105742,-59961.1 L105742,-59960.8 L105741,-59960.4 L105703,-59769.8 L105595,-59607.6 L105433,-59499.2 L105241,-59461.2 L105142,-59461.2 L104194,-59461.2 L104193,-59461.3 L104192,-59461.3 L104192,-59461.2 L104192,-59461 L104192,-59460.7 L104192,-59460.4 L104192,-40539.6 L104192,-40539.2 L104192,-40538.9 L104192,-40538.7 L104193,-40538.7 L104194,-40538.8 L105142,-40538.8 L105241,-40538.8 L105433,-40500.8 L105595,-40392.4 L105703,-40230.2 L105741,-40039.6"/>
</g>

<g fill="none" stroke="#000000" stroke-opacity="1" stroke-width="1" stroke-linecap="square" stroke-linejoin="bevel" transform="matrix(1,0,0,-1,127232,73881.1)"
font-family="MS Shell Dlg 2" font-size="10.3125" font-weight="400" font-style="normal" 
>
</g>

<g fill="none" stroke="#000000" stroke-opacity="1" stroke-width="1" stroke-linecap="square" stroke-linejoin="bevel" transform="matrix(1,0,0,-1,127232,73881.1)"
font-family="MS Shell Dlg 2" font-size="10.3125" font-weight="400" font-style="normal" 
>
</g>

<g fill="#333333" fill-opacity="0.2" stroke="#333333" stroke-opacity="1" stroke-width="1" stroke-linecap="round" stroke-linejoin="round" transform="matrix(1,0,0,-1,127232,73881.1)"
font-family="MS Shell Dlg 2" font-size="10.3125" font-weight="400" font-style="normal" 
>
<path vector-effect="non-scaling-stroke" fill-rule="evenodd" d="M3692.12,-999.805 L3692.12,-1000.16 L3692.01,-1000.49 L3691.79,-1000.76 L3691.48,-1000.94 L3691.14,-1001 L-3691.14,-1001 L-3691.56,-1000.9 L-3691.91,-1000.63 L-3692.11,-1000.24 L-3692.12,-999.805 L-3691.94,-998.902 L-3691.94,-50.1414 L-3691.94,48.9015 L-3730.01,240.318 L-3838.37,402.515 L-4000.56,510.902 L-4191.13,548.834 L-4191.55,549.021 L-4191.83,549.372 L-4191.94,549.815 L-4191.94,1000 L-4191.86,1000.38 L-4191.64,1000.71 L-4191.32,1000.92 L-4190.94,1001 L4190.94,1001 L4191.32,1000.92 L4191.64,1000.71 L4191.86,1000.38 L4191.94,1000 L4191.94,549.801 L4191.83,549.359 L4191.55,549.008 L4191.13,548.82 L4000.6,510.922 L3838.4,402.54 L3730.02,240.334 L3691.94,48.9015 L3691.94,-50.1414 L3691.94,-998.902 L3692.12,-999.805"/>
</g>

<g fill="none" stroke="#000000" stroke-opacity="1" stroke-width="1" stroke-linecap="square" stroke-linejoin="bevel" transform="matrix(1,0,0,-1,127232,73881.1)"
font-family="MS Shell Dlg 2" font-size="10.3125" font-weight="400" font-style="normal" 
>
</g>

<g fill="none" stroke="#000000" stroke-opacity="1" stroke-width="1" stroke-linecap="square" stroke-linejoin="bevel" transform="matrix(1,0,0,-1,127232,73881.1)"
font-family="MS Shell Dlg 2" font-size="10.3125" font-weight="400" font-style="normal" 
>
</g>

<g fill="#333333" fill-opacity="0.2" stroke="#333333" stroke-opacity="1" stroke-width="1" stroke-linecap="round" stroke-linejoin="round" transform="matrix(1,0,0,-1,127232,73881.1)"
font-family="MS Shell Dlg 2" font-size="10.3125" font-weight="400" font-style="normal" 
>
<path vector-effect="non-scaling-stroke" fill-rule="evenodd" d="M-3692.12,-99000.2 L-3692.11,-98999.8 L-3691.91,-98999.4 L-3691.56,-98999.1 L-3691.14,-98999 L3691.14,-98999 L3691.56,-98999.1 L3691.91,-98999.4 L3692.11,-98999.8 L3692.12,-99000.2 L3691.94,-99001.1 L3691.94,-99949.9 L3691.94,-100049 L3730.01,-100240 L3838.37,-100403 L4000.56,-100511 L4191.13,-100549 L4191.55,-100549 L4191.83,-100549 L4191.94,-100550 L4191.94,-101000 L4191.86,-101000 L4191.64,-101001 L4191.32,-101001 L4190.94,-101001 L-4190.94,-101001 L-4191.32,-101001 L-4191.64,-101001 L-4191.86,-101000 L-4191.94,-101000 L-4191.94,-100550 L-4191.83,-100549 L-4191.55,-100549 L-4191.13,-100549 L-4000.6,-100511 L-3838.4,-100403 L-3730.02,-100240 L-3691.94,-100049 L-3691.94,-99949.9 L-3691.94,-99001.1 L-3692.12,-99000.2"/>
</g>

<g fill="none" stroke="#000000" stroke-opacity="1" stroke-width="1" stroke-linecap="square" stroke-linejoin="bevel" transform="matrix(1,0,0,-1,127232,73881.1)"
font-family="MS Shell Dlg 2" font-size="10.3125" font-weight="400" font-style="normal" 
>
</g>

<g fill="none" stroke="#000000" stroke-opacity="1" stroke-width="1" stroke-linecap="square" stroke-linejoin="bevel" transform="matrix(1,0,0,-1,127232,73881.1)"
font-family="MS Shell Dlg 2" font-size="10.3125" font-weight="400" font-style="normal" 
>
</g>

<g fill="#333333" fill-opacity="0.2" stroke="#333333" stroke-opacity="1" stroke-width="1" stroke-linecap="round" stroke-linejoin="round" transform="matrix(1,0,0,-1,127232,73881.1)"
font-family="MS Shell Dlg 2" font-size="10.3125" font-weight="400" font-style="normal" 
>
<path vector-effect="non-scaling-stroke" fill-rule="evenodd" d="M62566.7,-59960.4 L62566.5,-59960.8 L62566.2,-59961.1 L62565.7,-59961.2 L62115.5,-59961.2 L62115.1,-59961.1 L62114.8,-59960.9 L62114.6,-59960.5 L62114.5,-59960.2 L62114.5,-40039.8 L62114.6,-40039.5 L62114.8,-40039.1 L62115.1,-40038.9 L62115.5,-40038.8 L62565.7,-40038.8 L62566.1,-40038.9 L62566.4,-40039.1 L62566.6,-40039.3 L62566.7,-40039.6 L62604.6,-40230.2 L62713,-40392.4 L62875.2,-40500.8 L63066.6,-40538.8 L63165.7,-40538.8 L64114.4,-40538.8 L64115.3,-40538.7 L64115.7,-40538.7 L64116,-40538.8 L64116.3,-40539 L64116.5,-40539.3 L64116.5,-40539.6 L64116.5,-59460.4 L64116.4,-59460.8 L64116.2,-59461.1 L64115.8,-59461.3 L64115.3,-59461.3 L64114.4,-59461.2 L63165.7,-59461.2 L63066.6,-59461.2 L62875.2,-59499.2 L62713,-59607.6 L62604.6,-59769.8 L62566.7,-59960.4"/>
</g>

<g fill="none" stroke="#000000" stroke-opacity="1" stroke-width="1" stroke-linecap="square" stroke-linejoin="bevel" transform="matrix(1,0,0,-1,127232,73881.1)"
font-family="MS Shell Dlg 2" font-size="10.3125" font-weight="400" font-style="normal" 
>
</g>

<g fill="none" stroke="#000000" stroke-opacity="1" stroke-width="1" stroke-linecap="square" stroke-linejoin="bevel" transform="matrix(1,0,0,-1,127232,73881.1)"
font-family="MS Shell Dlg 2" font-size="10.3125" font-weight="400" font-style="normal" 
>
</g>

<g fill="#333333" fill-opacity="0.2" stroke="#333333" stroke-opacity="1" stroke-width="1" stroke-linecap="round" stroke-linejoin="round" transform="matrix(1,0,0,-1,127232,73881.1)"
font-family="MS Shell Dlg 2" font-size="10.3125" font-weight="400" font-style="normal" 
>
<path vector-effect="non-scaling-stroke" fill-rule="evenodd" d="M-62115.7,-40538.7 L-62115.4,-40538.7 L-62115,-40538.8 L-62114.8,-40539 L-62114.6,-40539.3 L-62114.5,-40539.6 L-62114.5,-59460.4 L-62114.6,-59460.8 L-62114.9,-59461.1 L-62115.3,-59461.3 L-62115.7,-59461.3 L-62116.6,-59461.2 L-63065.4,-59461.2 L-63164.4,-59461.2 L-63355.8,-59499.2 L-63518,-59607.6 L-63626.4,-59769.8 L-63664.3,-59960.4 L-63664.5,-59960.8 L-63664.9,-59961.1 L-63665.3,-59961.2 L-64115.5,-59961.2 L-64115.9,-59961.1 L-64116.2,-59960.9 L-64116.4,-59960.5 L-64116.5,-59960.2 L-64116.5,-40039.8 L-64116.4,-40039.5 L-64116.2,-40039.1 L-64115.9,-40038.9 L-64115.5,-40038.8 L-63665.3,-40038.8 L-63665,-40038.9 L-63664.7,-40039.1 L-63664.5,-40039.3 L-63664.3,-40039.6 L-63626.4,-40230.2 L-63518.1,-40392.4 L-63355.9,-40500.8 L-63164.4,-40538.8 L-63065.4,-40538.8 L-62116.6,-40538.8 L-62115.7,-40538.7"/>
</g>

<g fill="none" stroke="#000000" stroke-opacity="1" stroke-width="1" stroke-linecap="square" stroke-linejoin="bevel" transform="matrix(1,0,0,-1,127232,73881.1)"
font-family="MS Shell Dlg 2" font-size="10.3125" font-weight="400" font-style="normal" 
>
</g>

<g fill="none" stroke="#000000" stroke-opacity="1" stroke-width="1" stroke-linecap="square" stroke-linejoin="bevel" transform="matrix(1,0,0,-1,127232,73881.1)"
font-family="MS Shell Dlg 2" font-size="10.3125" font-weight="400" font-style="normal" 
>
</g>

<g fill="#333333" fill-opacity="0.2" stroke="#333333" stroke-opacity="1" stroke-width="1" stroke-linecap="round" stroke-linejoin="round" transform="matrix(1,0,0,-1,127232,73881.1)"
font-family="MS Shell Dlg 2" font-size="10.3125" font-weight="400" font-style="normal" 
>
<path vector-effect="non-scaling-stroke" fill-rule="evenodd" d="M-104193,-40538.7 L-104192,-40538.7 L-104192,-40538.9 L-104192,-40539.2 L-104192,-40539.6 L-104192,-59460.4 L-104192,-59460.8 L-104192,-59461.1 L-104192,-59461.3 L-104193,-59461.3 L-104194,-59461.2 L-105142,-59461.2 L-105241,-59461.2 L-105433,-59499.2 L-105595,-59607.6 L-105703,-59769.8 L-105741,-59960.4 L-105742,-59960.8 L-105742,-59961.1 L-105742,-59961.2 L-106193,-59961.2 L-106193,-59961.1 L-106193,-59960.9 L-106193,-59960.5 L-106194,-59960.2 L-106194,-40039.8 L-106193,-40039.5 L-106193,-40039.1 L-106193,-40038.9 L-106193,-40038.8 L-105742,-40038.8 L-105742,-40038.9 L-105742,-40039.2 L-105741,-40039.6 L-105703,-40230.2 L-105595,-40392.4 L-105433,-40500.8 L-105241,-40538.8 L-105142,-40538.8 L-104194,-40538.8 L-104193,-40538.7"/>
</g>

<g fill="none" stroke="#000000" stroke-opacity="1" stroke-width="1" stroke-linecap="square" stroke-linejoin="bevel" transform="matrix(1,0,0,-1,127232,73881.1)"
font-family="MS Shell Dlg 2" font-size="10.3125" font-weight="400" font-style="normal" 
>
</g>

<g fill="none" stroke="#000000" stroke-opacity="1" stroke-width="1" stroke-linecap="square" stroke-linejoin="bevel" transform="matrix(1,0,0,-1,127232,73881.1)"
font-family="MS Shell Dlg 2" font-size="10.3125" font-weight="400" font-style="normal" 
>
</g>

<g fill="#333333" fill-opacity="0.2" stroke="#333333" stroke-opacity="1" stroke-width="1" stroke-linecap="round" stroke-linejoin="round" transform="matrix(1,0,0,-1,127232,73881.1)"
font-family="MS Shell Dlg 2" font-size="10.3125" font-weight="400" font-style="normal" 
>
<path vector-effect="non-scaling-stroke" fill-rule="evenodd" d="M-22772.3,-101001 L-126231,-101001 L-126231,-101001 L-126614,-100925 L-126614,-100925 L-126939,-100708 L-126939,-100708 L-127156,-100383 L-127156,-100383 L-127232,-100000 L-127232,-100000 L-127232,0 L-127232,0.19509 L-127156,382.879 L-127156,383.239 L-126939,707.662 L-126939,707.938 L-126614,924.711 L-126614,924.86 L-126231,1000.98 L-126231,1001 L-22772.3,1001 L-42943.9,35939.3 L-42944,35939.4 L-43062.8,36265.8 L-43062.8,36266.1 L-43062.8,36613.4 L-43062.8,36613.8 L-42944,36940.1 L-42943.9,36940.3 L-21905.4,73380 L-21905.3,73380.2 L-21682.1,73646.2 L-21681.8,73646.4 L-21381,73820.1 L-21380.7,73820.2 L-21038.7,73880.5 L-21038.5,73880.5 L21038.5,73880.5 L21038.7,73880.5 L21380.7,73820.2 L21381,73820.1 L21681.8,73646.4 L21682.1,73646.2 L21905.3,73380.2 L21905.4,73380 L42943.9,36940.3 L42944,36940.1 L43062.8,36613.8 L43062.8,36613.4 L43062.8,36266.1 L43062.8,36265.8 L42944,35939.4 L42943.9,35939.3 L22772.3,1001 L126231,1001 L126231,1000.98 L126614,924.86 L126614,924.711 L126939,707.938 L126939,707.662 L127156,383.239 L127156,382.879 L127232,0.19509 L127232,0 L127232,-100000 L127232,-100000 L127156,-100383 L127156,-100383 L126939,-100708 L126939,-100708 L126614,-100925 L126614,-100925 L126231,-101001 L126231,-101001 L22772.3,-101001 L42943.9,-135939 L42944,-135939 L43062.8,-136266 L43062.8,-136266 L43062.8,-136613 L43062.8,-136614 L42944,-136940 L42943.9,-136940 L21905.4,-173380 L21905.3,-173380 L21682.1,-173646 L21681.8,-173646 L21381,-173820 L21380.7,-173820 L21038.7,-173881 L21038.5,-173881 L-21038.5,-173881 L-21038.7,-173881 L-21380.7,-173820 L-21381,-173820 L-21681.8,-173646 L-21682.1,-173646 L-21905.3,-173380 L-21905.4,-173380 L-42943.9,-136940 L-42944,-136940 L-43062.8,-136614 L-43062.8,-136613 L-43062.8,-136266 L-43062.8,-136266 L-42944,-135939 L-42943.9,-135939 L-22772.3,-101001 M-104193,-1 L-104643,-1 L-104643,-0.89687 L-104644,-0.60876 L-104644,-0.19509 L-104682,190.334 L-104790,352.54 L-104952,460.922 L-105144,499 L-105243,499 L-106191,499 L-106383,460.922 L-106545,352.54 L-106653,190.334 L-106691,-0.19509 L-106691,-0.5141 L-106692,-0.77301 L-106692,-0.94154 L-106692,-1 L-126230,-1 L-126230,-99999 L-106692,-99999 L-106692,-99999.1 L-106692,-99999.2 L-106691,-99999.5 L-106691,-99999.8 L-106653,-100190 L-106545,-100353 L-106383,-100461 L-106191,-100499 L-105243,-100499 L-105144,-100499 L-104952,-100461 L-104790,-100353 L-104682,-100190 L-104644,-99999.8 L-104644,-99999.4 L-104643,-99999.1 L-104643,-99999 L-104193,-99999 L-64615.3,-99999 L-64615,-99999.1 L-64614.7,-99999.2 L-64614.5,-99999.5 L-64614.3,-99999.8 L-64576.4,-100190 L-64468.1,-100353 L-64305.9,-100461 L-64114.4,-100499 L-63165.7,-100499 L-63066.6,-100499 L-62875.2,-100461 L-62713,-100353 L-62604.6,-100190 L-62566.7,-99999.8 L-62566.5,-99999.4 L-62566.2,-99999.1 L-62565.7,-99999 L-62115.5,-99999 L-22088.4,-99999 L-22038.5,-99999 L-21588.3,-99999 L-21588,-99999.1 L-21587.7,-99999.2 L-21587.5,-99999.5 L-21587.3,-99999.8 L-21550.4,-100188 L-21537.7,-100207 L-21537.5,-100208 L-21537.5,-100866 L-21537.6,-100867 L-42075.9,-136440 L-21037.9,-172879 L21037.9,-172879 L42075.9,-136440 L21537.6,-100867 L21537.5,-100866 L21537.5,-100500 L21537.6,-100500 L21537.8,-100499 L21538.1,-100499 L21538.5,-100499 L22037.4,-100499 L22228.8,-100461 L22391,-100353 L22499.4,-100190 L22537.3,-99999.8 L22537.4,-99999.5 L22537.7,-99999.2 L22538,-99999.1 L22538.3,-99999 L61615.7,-99999 L61616.1,-99999.1 L61616.4,-99999.2 L61616.6,-99999.5 L61616.7,-99999.8 L61654.6,-100190 L61763,-100353 L61925.2,-100461 L62116.6,-100499 L63065.4,-100499 L63164.4,-100499 L63355.8,-100461 L63518,-100353 L63626.4,-100190 L63664.3,-99999.8 L63664.5,-99999.4 L63664.9,-99999.1 L63665.3,-99999 L64115.5,-99999 L104143,-99999 L104193,-99999 L104643,-99999 L104643,-99999.1 L104643,-99999.2 L104644,-99999.5 L104644,-99999.8 L104682,-100190 L104790,-100353 L104952,-100461 L105144,-100499 L105243,-100499 L106191,-100499 L106383,-100461 L106545,-100353 L106653,-100190 L106691,-99999.8 L106691,-99999.5 L106692,-99999.2 L106692,-99999.1 L106692,-99999 L126230,-99999 L126230,-1 L106692,-1 L106692,-0.94154 L106692,-0.77301 L106691,-0.5141 L106691,-0.19509 L106653,190.334 L106545,352.54 L106383,460.922 L106191,499 L105243,499 L105144,499 L104952,460.924 L104790,352.55 L104682,190.354 L104644,-0.19514 L104644,-0.60879 L104643,-0.89688 L104643,-1 L104193,-1 L64165.4,-1 L64115.5,-1 L63665.3,-1 L63664.9,-0.89687 L63664.5,-0.60876 L63664.3,-0.19509 L63626.4,190.334 L63518.1,352.54 L63355.9,460.922 L63164.4,499 L63065.4,499 L62116.6,499 L61925.2,460.922 L61763,352.54 L61654.6,190.334 L61616.7,-0.19509 L61616.6,-0.5141 L61616.4,-0.77301 L61616.1,-0.94154 L61615.7,-1 L22538.3,-1 L22538,-0.94154 L22537.7,-0.77301 L22537.4,-0.5141 L22537.3,-0.19509 L22499.4,190.334 L22391,352.54 L22228.8,460.922 L22037.4,499 L21538.5,499 L21538.1,499.076 L21537.8,499.293 L21537.6,499.617 L21537.5,500 L21537.5,866.025 L21537.6,866.525 L42075.9,36439.8 L21037.9,72878.5 L-21037.9,72878.5 L-42075.9,36439.8 L-21537.6,866.525 L-21537.5,866.025 L-21537.5,208.486 L-21537.5,208.195 L-21537.7,207.93 L-21549.4,190.354 L-21587.3,-0.19514 L-21587.5,-0.60879 L-21587.9,-0.89688 L-21588.3,-1 L-22038.5,-1 L-62065.7,-1 L-62115.5,-1 L-62565.7,-1 L-62566.2,-0.89687 L-62566.5,-0.60876 L-62566.7,-0.19509 L-62604.6,190.334 L-62713,352.54 L-62875.2,460.922 L-63066.6,499 L-63165.7,499 L-64114.4,499 L-64305.9,460.922 L-64468.1,352.54 L-64576.4,190.334 L-64614.3,-0.19509 L-64614.5,-0.5141 L-64614.7,-0.77301 L-64615,-0.94154 L-64615.3,-1 L-104193,-1"/>
</g>

<g fill="none" stroke="#000000" stroke-opacity="1" stroke-width="1" stroke-linecap="square" stroke-linejoin="bevel" transform="matrix(1,0,0,-1,127232,73881.1)"
font-family="MS Shell Dlg 2" font-size="10.3125" font-weight="400" font-style="normal" 
>
</g>

<g fill="none" stroke="#000000" stroke-opacity="1" stroke-width="1" stroke-linecap="square" stroke-linejoin="bevel" transform="matrix(1,0,0,-1,127232,73881.1)"
font-family="MS Shell Dlg 2" font-size="10.3125" font-weight="400" font-style="normal" 
>
</g>

<g fill="#333333" fill-opacity="0.2" stroke="#333333" stroke-opacity="1" stroke-width="1" stroke-linecap="round" stroke-linejoin="round" transform="matrix(1,0,0,-1,127232,73881.1)"
font-family="MS Shell Dlg 2" font-size="10.3125" font-weight="400" font-style="normal" 
>
<path vector-effect="non-scaling-stroke" fill-rule="evenodd" d="M21587.3,-40039.6 L21587.5,-40039.2 L21587.9,-40038.9 L21588.3,-40038.8 L22038.5,-40038.8 L22038.9,-40038.9 L22039.2,-40039.1 L22039.4,-40039.5 L22039.5,-40039.8 L22039.5,-59960.2 L22039.4,-59960.5 L22039.2,-59960.9 L22038.9,-59961.1 L22038.5,-59961.2 L21588.3,-59961.2 L21587.9,-59961.1 L21587.5,-59960.8 L21587.3,-59960.4 L21549.4,-59769.8 L21441,-59607.6 L21278.8,-59499.2 L21087.4,-59461.2 L20988.4,-59461.2 L20039.6,-59461.2 L20038.7,-59461.3 L20038.3,-59461.3 L20038,-59461.2 L20037.7,-59461 L20037.6,-59460.7 L20037.5,-59460.4 L20037.5,-40539.6 L20037.6,-40539.2 L20037.9,-40538.9 L20038.3,-40538.7 L20038.7,-40538.7 L20039.6,-40538.8 L20988.4,-40538.8 L21087.4,-40538.8 L21278.8,-40500.8 L21441,-40392.4 L21549.4,-40230.2 L21587.3,-40039.6"/>
</g>

<g fill="none" stroke="#000000" stroke-opacity="1" stroke-width="1" stroke-linecap="square" stroke-linejoin="bevel" transform="matrix(1,0,0,-1,127232,73881.1)"
font-family="MS Shell Dlg 2" font-size="10.3125" font-weight="400" font-style="normal" 
>
</g>

<g fill="none" stroke="#000000" stroke-opacity="1" stroke-width="1" stroke-linecap="square" stroke-linejoin="bevel" transform="matrix(1,0,0,-1,127232,73881.1)"
font-family="MS Shell Dlg 2" font-size="10.3125" font-weight="400" font-style="normal" 
>
</g>

<g fill="#333333" fill-opacity="0.2" stroke="#333333" stroke-opacity="1" stroke-width="1" stroke-linecap="round" stroke-linejoin="round" transform="matrix(1,0,0,-1,127232,73881.1)"
font-family="MS Shell Dlg 2" font-size="10.3125" font-weight="400" font-style="normal" 
>
<path vector-effect="non-scaling-stroke" fill-rule="evenodd" d="M-22038.3,-59461.3 L-22038.7,-59461.3 L-22039,-59461.2 L-22039.3,-59461 L-22039.4,-59460.7 L-22039.5,-59460.4 L-22039.5,-40539.6 L-22039.4,-40539.2 L-22039.1,-40538.9 L-22038.7,-40538.7 L-22038.3,-40538.7 L-22037.4,-40538.8 L-21088.6,-40538.8 L-20989.6,-40538.8 L-20798.2,-40500.8 L-20636,-40392.4 L-20527.6,-40230.2 L-20489.7,-40039.6 L-20489.5,-40039.2 L-20489.1,-40038.9 L-20488.7,-40038.8 L-20038.5,-40038.8 L-20038.1,-40038.9 L-20037.8,-40039.1 L-20037.6,-40039.5 L-20037.5,-40039.8 L-20037.5,-59960.2 L-20037.6,-59960.5 L-20037.8,-59960.9 L-20038.1,-59961.1 L-20038.5,-59961.2 L-20488.7,-59961.2 L-20489.1,-59961.1 L-20489.5,-59960.8 L-20489.7,-59960.4 L-20527.6,-59769.8 L-20636,-59607.6 L-20798.2,-59499.2 L-20989.6,-59461.2 L-21088.6,-59461.2 L-22037.4,-59461.2 L-22038.3,-59461.3"/>
</g>

<g fill="none" stroke="#000000" stroke-opacity="1" stroke-width="1" stroke-linecap="square" stroke-linejoin="bevel" transform="matrix(1,0,0,-1,127232,73881.1)"
font-family="MS Shell Dlg 2" font-size="10.3125" font-weight="400" font-style="normal" 
>
</g>

<g fill="none" stroke="#000000" stroke-opacity="1" stroke-width="1" stroke-linecap="square" stroke-linejoin="bevel" transform="matrix(1,0,0,-1,127232,73881.1)"
font-family="MS Shell Dlg 2" font-size="10.3125" font-weight="400" font-style="normal" 
>
</g>

<g fill="#ae5151" fill-opacity="0.2" stroke="#333333" stroke-opacity="1" stroke-width="1" stroke-linecap="round" stroke-linejoin="round" transform="matrix(1,0,0,-1,127232,73881.1)"
font-family="MS Shell Dlg 2" font-size="10.3125" font-weight="400" font-style="normal" 
>
<path vector-effect="non-scaling-stroke" fill-rule="evenodd" d="M105741,-40039.6 L105742,-40039.2 L105742,-40038.9 L105742,-40038.8 L106193,-40038.8 L106193,-40038.9 L106193,-40039.1 L106193,-40039.5 L106194,-40039.8 L106194,-59960.2 L106193,-59960.5 L106193,-59960.9 L106193,-59961.1 L106193,-59961.2 L105742,-59961.2 L105742,-59961.1 L105742,-59960.8 L105741,-59960.4 L105703,-59769.8 L105595,-59607.6 L105433,-59499.2 L105241,-59461.2 L105142,-59461.2 L104194,-59461.2 L104193,-59461.3 L104192,-59461.3 L104192,-59461.2 L104192,-59461 L104192,-59460.7 L104192,-59460.4 L104192,-40539.6 L104192,-40539.2 L104192,-40538.9 L104192,-40538.7 L104193,-40538.7 L104194,-40538.8 L105142,-40538.8 L105241,-40538.8 L105433,-40500.8 L105595,-40392.4 L105703,-40230.2 L105741,-40039.6"/>
</g>

<g fill="none" stroke="#000000" stroke-opacity="1" stroke-width="1" stroke-linecap="square" stroke-linejoin="bevel" transform="matrix(1,0,0,-1,127232,73881.1)"
font-family="MS Shell Dlg 2" font-size="10.3125" font-weight="400" font-style="normal" 
>
</g>

<g fill="none" stroke="#000000" stroke-opacity="1" stroke-width="1" stroke-linecap="square" stroke-linejoin="bevel" transform="matrix(1,0,0,-1,127232,73881.1)"
font-family="MS Shell Dlg 2" font-size="10.3125" font-weight="400" font-style="normal" 
>
</g>

<g fill="#ae5151" fill-opacity="0.2" stroke="#333333" stroke-opacity="1" stroke-width="1" stroke-linecap="round" stroke-linejoin="round" transform="matrix(1,0,0,-1,127232,73881.1)"
font-family="MS Shell Dlg 2" font-size="10.3125" font-weight="400" font-style="normal" 
>
<path vector-effect="non-scaling-stroke" fill-rule="evenodd" d="M3692.12,-999.805 L3692.12,-1000.16 L3692.01,-1000.49 L3691.79,-1000.76 L3691.48,-1000.94 L3691.14,-1001 L-3691.14,-1001 L-3691.56,-1000.9 L-3691.91,-1000.63 L-3692.11,-1000.24 L-3692.12,-999.805 L-3691.94,-998.902 L-3691.94,-50.1414 L-3691.94,48.9015 L-3730.01,240.318 L-3838.37,402.515 L-4000.56,510.902 L-4191.13,548.834 L-4191.55,549.021 L-4191.83,549.372 L-4191.94,549.815 L-4191.94,1000 L-4191.86,1000.38 L-4191.64,1000.71 L-4191.32,1000.92 L-4190.94,1001 L4190.94,1001 L4191.32,1000.92 L4191.64,1000.71 L4191.86,1000.38 L4191.94,1000 L4191.94,549.801 L4191.83,549.359 L4191.55,549.008 L4191.13,548.82 L4000.6,510.922 L3838.4,402.54 L3730.02,240.334 L3691.94,48.9015 L3691.94,-50.1414 L3691.94,-998.902 L3692.12,-999.805"/>
</g>

<g fill="none" stroke="#000000" stroke-opacity="1" stroke-width="1" stroke-linecap="square" stroke-linejoin="bevel" transform="matrix(1,0,0,-1,127232,73881.1)"
font-family="MS Shell Dlg 2" font-size="10.3125" font-weight="400" font-style="normal" 
>
</g>

<g fill="none" stroke="#000000" stroke-opacity="1" stroke-width="1" stroke-linecap="square" stroke-linejoin="bevel" transform="matrix(1,0,0,-1,127232,73881.1)"
font-family="MS Shell Dlg 2" font-size="10.3125" font-weight="400" font-style="normal" 
>
</g>

<g fill="#ae5151" fill-opacity="0.2" stroke="#333333" stroke-opacity="1" stroke-width="1" stroke-linecap="round" stroke-linejoin="round" transform="matrix(1,0,0,-1,127232,73881.1)"
font-family="MS Shell Dlg 2" font-size="10.3125" font-weight="400" font-style="normal" 
>
<path vector-effect="non-scaling-stroke" fill-rule="evenodd" d="M-3692.12,-99000.2 L-3692.11,-98999.8 L-3691.91,-98999.4 L-3691.56,-98999.1 L-3691.14,-98999 L3691.14,-98999 L3691.56,-98999.1 L3691.91,-98999.4 L3692.11,-98999.8 L3692.12,-99000.2 L3691.94,-99001.1 L3691.94,-99949.9 L3691.94,-100049 L3730.01,-100240 L3838.37,-100403 L4000.56,-100511 L4191.13,-100549 L4191.55,-100549 L4191.83,-100549 L4191.94,-100550 L4191.94,-101000 L4191.86,-101000 L4191.64,-101001 L4191.32,-101001 L4190.94,-101001 L-4190.94,-101001 L-4191.32,-101001 L-4191.64,-101001 L-4191.86,-101000 L-4191.94,-101000 L-4191.94,-100550 L-4191.83,-100549 L-4191.55,-100549 L-4191.13,-100549 L-4000.6,-100511 L-3838.4,-100403 L-3730.02,-100240 L-3691.94,-100049 L-3691.94,-99949.9 L-3691.94,-99001.1 L-3692.12,-99000.2"/>
</g>

<g fill="none" stroke="#000000" stroke-opacity="1" stroke-width="1" stroke-linecap="square" stroke-linejoin="bevel" transform="matrix(1,0,0,-1,127232,73881.1)"
font-family="MS Shell Dlg 2" font-size="10.3125" font-weight="400" font-style="normal" 
>
</g>

<g fill="none" stroke="#000000" stroke-opacity="1" stroke-width="1" stroke-linecap="square" stroke-linejoin="bevel" transform="matrix(1,0,0,-1,127232,73881.1)"
font-family="MS Shell Dlg 2" font-size="10.3125" font-weight="400" font-style="normal" 
>
</g>

<g fill="#ae5151" fill-opacity="0.2" stroke="#333333" stroke-opacity="1" stroke-width="1" stroke-linecap="round" stroke-linejoin="round" transform="matrix(1,0,0,-1,127232,73881.1)"
font-family="MS Shell Dlg 2" font-size="10.3125" font-weight="400" font-style="normal" 
>
<path vector-effect="non-scaling-stroke" fill-rule="evenodd" d="M62566.7,-59960.4 L62566.5,-59960.8 L62566.2,-59961.1 L62565.7,-59961.2 L62115.5,-59961.2 L62115.1,-59961.1 L62114.8,-59960.9 L62114.6,-59960.5 L62114.5,-59960.2 L62114.5,-40039.8 L62114.6,-40039.5 L62114.8,-40039.1 L62115.1,-40038.9 L62115.5,-40038.8 L62565.7,-40038.8 L62566.1,-40038.9 L62566.4,-40039.1 L62566.6,-40039.3 L62566.7,-40039.6 L62604.6,-40230.2 L62713,-40392.4 L62875.2,-40500.8 L63066.6,-40538.8 L63165.7,-40538.8 L64114.4,-40538.8 L64115.3,-40538.7 L64115.7,-40538.7 L64116,-40538.8 L64116.3,-40539 L64116.5,-40539.3 L64116.5,-40539.6 L64116.5,-59460.4 L64116.4,-59460.8 L64116.2,-59461.1 L64115.8,-59461.3 L64115.3,-59461.3 L64114.4,-59461.2 L63165.7,-59461.2 L63066.6,-59461.2 L62875.2,-59499.2 L62713,-59607.6 L62604.6,-59769.8 L62566.7,-59960.4"/>
</g>

<g fill="none" stroke="#000000" stroke-opacity="1" stroke-width="1" stroke-linecap="square" stroke-linejoin="bevel" transform="matrix(1,0,0,-1,127232,73881.1)"
font-family="MS Shell Dlg 2" font-size="10.3125" font-weight="400" font-style="normal" 
>
</g>

<g fill="none" stroke="#000000" stroke-opacity="1" stroke-width="1" stroke-linecap="square" stroke-linejoin="bevel" transform="matrix(1,0,0,-1,127232,73881.1)"
font-family="MS Shell Dlg 2" font-size="10.3125" font-weight="400" font-style="normal" 
>
</g>

<g fill="#ae5151" fill-opacity="0.2" stroke="#333333" stroke-opacity="1" stroke-width="1" stroke-linecap="round" stroke-linejoin="round" transform="matrix(1,0,0,-1,127232,73881.1)"
font-family="MS Shell Dlg 2" font-size="10.3125" font-weight="400" font-style="normal" 
>
<path vector-effect="non-scaling-stroke" fill-rule="evenodd" d="M-62115.7,-40538.7 L-62115.4,-40538.7 L-62115,-40538.8 L-62114.8,-40539 L-62114.6,-40539.3 L-62114.5,-40539.6 L-62114.5,-59460.4 L-62114.6,-59460.8 L-62114.9,-59461.1 L-62115.3,-59461.3 L-62115.7,-59461.3 L-62116.6,-59461.2 L-63065.4,-59461.2 L-63164.4,-59461.2 L-63355.8,-59499.2 L-63518,-59607.6 L-63626.4,-59769.8 L-63664.3,-59960.4 L-63664.5,-59960.8 L-63664.9,-59961.1 L-63665.3,-59961.2 L-64115.5,-59961.2 L-64115.9,-59961.1 L-64116.2,-59960.9 L-64116.4,-59960.5 L-64116.5,-59960.2 L-64116.5,-40039.8 L-64116.4,-40039.5 L-64116.2,-40039.1 L-64115.9,-40038.9 L-64115.5,-40038.8 L-63665.3,-40038.8 L-63665,-40038.9 L-63664.7,-40039.1 L-63664.5,-40039.3 L-63664.3,-40039.6 L-63626.4,-40230.2 L-63518.1,-40392.4 L-63355.9,-40500.8 L-63164.4,-40538.8 L-63065.4,-40538.8 L-62116.6,-40538.8 L-62115.7,-40538.7"/>
</g>

<g fill="none" stroke="#000000" stroke-opacity="1" stroke-width="1" stroke-linecap="square" stroke-linejoin="bevel" transform="matrix(1,0,0,-1,127232,73881.1)"
font-family="MS Shell Dlg 2" font-size="10.3125" font-weight="400" font-style="normal" 
>
</g>

<g fill="none" stroke="#000000" stroke-opacity="1" stroke-width="1" stroke-linecap="square" stroke-linejoin="bevel" transform="matrix(1,0,0,-1,127232,73881.1)"
font-family="MS Shell Dlg 2" font-size="10.3125" font-weight="400" font-style="normal" 
>
</g>

<g fill="#ae5151" fill-opacity="0.2" stroke="#333333" stroke-opacity="1" stroke-width="1" stroke-linecap="round" stroke-linejoin="round" transform="matrix(1,0,0,-1,127232,73881.1)"
font-family="MS Shell Dlg 2" font-size="10.3125" font-weight="400" font-style="normal" 
>
<path vector-effect="non-scaling-stroke" fill-rule="evenodd" d="M-104193,-40538.7 L-104192,-40538.7 L-104192,-40538.9 L-104192,-40539.2 L-104192,-40539.6 L-104192,-59460.4 L-104192,-59460.8 L-104192,-59461.1 L-104192,-59461.3 L-104193,-59461.3 L-104194,-59461.2 L-105142,-59461.2 L-105241,-59461.2 L-105433,-59499.2 L-105595,-59607.6 L-105703,-59769.8 L-105741,-59960.4 L-105742,-59960.8 L-105742,-59961.1 L-105742,-59961.2 L-106193,-59961.2 L-106193,-59961.1 L-106193,-59960.9 L-106193,-59960.5 L-106194,-59960.2 L-106194,-40039.8 L-106193,-40039.5 L-106193,-40039.1 L-106193,-40038.9 L-106193,-40038.8 L-105742,-40038.8 L-105742,-40038.9 L-105742,-40039.2 L-105741,-40039.6 L-105703,-40230.2 L-105595,-40392.4 L-105433,-40500.8 L-105241,-40538.8 L-105142,-40538.8 L-104194,-40538.8 L-104193,-40538.7"/>
</g>

<g fill="none" stroke="#000000" stroke-opacity="1" stroke-width="1" stroke-linecap="square" stroke-linejoin="bevel" transform="matrix(1,0,0,-1,127232,73881.1)"
font-family="MS Shell Dlg 2" font-size="10.3125" font-weight="400" font-style="normal" 
>
</g>

<g fill="none" stroke="#000000" stroke-opacity="1" stroke-width="1" stroke-linecap="square" stroke-linejoin="bevel" transform="matrix(1,0,0,-1,127232,73881.1)"
font-family="MS Shell Dlg 2" font-size="10.3125" font-weight="400" font-style="normal" 
>
</g>

<g fill="#ae5151" fill-opacity="0.2" stroke="#333333" stroke-opacity="1" stroke-width="1" stroke-linecap="round" stroke-linejoin="round" transform="matrix(1,0,0,-1,127232,73881.1)"
font-family="MS Shell Dlg 2" font-size="10.3125" font-weight="400" font-style="normal" 
>
<path vector-effect="non-scaling-stroke" fill-rule="evenodd" d="M-22772.3,-101001 L-126231,-101001 L-126231,-101001 L-126614,-100925 L-126614,-100925 L-126939,-100708 L-126939,-100708 L-127156,-100383 L-127156,-100383 L-127232,-100000 L-127232,-100000 L-127232,0 L-127232,0.19509 L-127156,382.879 L-127156,383.239 L-126939,707.662 L-126939,707.938 L-126614,924.711 L-126614,924.86 L-126231,1000.98 L-126231,1001 L-22772.3,1001 L-42943.9,35939.3 L-42944,35939.4 L-43062.8,36265.8 L-43062.8,36266.1 L-43062.8,36613.4 L-43062.8,36613.8 L-42944,36940.1 L-42943.9,36940.3 L-21905.4,73380 L-21905.3,73380.2 L-21682.1,73646.2 L-21681.8,73646.4 L-21381,73820.1 L-21380.7,73820.2 L-21038.7,73880.5 L-21038.5,73880.5 L21038.5,73880.5 L21038.7,73880.5 L21380.7,73820.2 L21381,73820.1 L21681.8,73646.4 L21682.1,73646.2 L21905.3,73380.2 L21905.4,73380 L42943.9,36940.3 L42944,36940.1 L43062.8,36613.8 L43062.8,36613.4 L43062.8,36266.1 L43062.8,36265.8 L42944,35939.4 L42943.9,35939.3 L22772.3,1001 L126231,1001 L126231,1000.98 L126614,924.86 L126614,924.711 L126939,707.938 L126939,707.662 L127156,383.239 L127156,382.879 L127232,0.19509 L127232,0 L127232,-100000 L127232,-100000 L127156,-100383 L127156,-100383 L126939,-100708 L126939,-100708 L126614,-100925 L126614,-100925 L126231,-101001 L126231,-101001 L22772.3,-101001 L42943.9,-135939 L42944,-135939 L43062.8,-136266 L43062.8,-136266 L43062.8,-136613 L43062.8,-136614 L42944,-136940 L42943.9,-136940 L21905.4,-173380 L21905.3,-173380 L21682.1,-173646 L21681.8,-173646 L21381,-173820 L21380.7,-173820 L21038.7,-173881 L21038.5,-173881 L-21038.5,-173881 L-21038.7,-173881 L-21380.7,-173820 L-21381,-173820 L-21681.8,-173646 L-21682.1,-173646 L-21905.3,-173380 L-21905.4,-173380 L-42943.9,-136940 L-42944,-136940 L-43062.8,-136614 L-43062.8,-136613 L-43062.8,-136266 L-43062.8,-136266 L-42944,-135939 L-42943.9,-135939 L-22772.3,-101001 M-104193,-1 L-104643,-1 L-104643,-0.89687 L-104644,-0.60876 L-104644,-0.19509 L-104682,190.334 L-104790,352.54 L-104952,460.922 L-105144,499 L-105243,499 L-106191,499 L-106383,460.922 L-106545,352.54 L-106653,190.334 L-106691,-0.19509 L-106691,-0.5141 L-106692,-0.77301 L-106692,-0.94154 L-106692,-1 L-126230,-1 L-126230,-99999 L-106692,-99999 L-106692,-99999.1 L-106692,-99999.2 L-106691,-99999.5 L-106691,-99999.8 L-106653,-100190 L-106545,-100353 L-106383,-100461 L-106191,-100499 L-105243,-100499 L-105144,-100499 L-104952,-100461 L-104790,-100353 L-104682,-100190 L-104644,-99999.8 L-104644,-99999.4 L-104643,-99999.1 L-104643,-99999 L-104193,-99999 L-64615.3,-99999 L-64615,-99999.1 L-64614.7,-99999.2 L-64614.5,-99999.5 L-64614.3,-99999.8 L-64576.4,-100190 L-64468.1,-100353 L-64305.9,-100461 L-64114.4,-100499 L-63165.7,-100499 L-63066.6,-100499 L-62875.2,-100461 L-62713,-100353 L-62604.6,-100190 L-62566.7,-99999.8 L-62566.5,-99999.4 L-62566.2,-99999.1 L-62565.7,-99999 L-62115.5,-99999 L-22088.4,-99999 L-22038.5,-99999 L-21588.3,-99999 L-21588,-99999.1 L-21587.7,-99999.2 L-21587.5,-99999.5 L-21587.3,-99999.8 L-21550.4,-100188 L-21537.7,-100207 L-21537.5,-100208 L-21537.5,-100866 L-21537.6,-100867 L-42075.9,-136440 L-21037.9,-172879 L21037.9,-172879 L42075.9,-136440 L21537.6,-100867 L21537.5,-100866 L21537.5,-100500 L21537.6,-100500 L21537.8,-100499 L21538.1,-100499 L21538.5,-100499 L22037.4,-100499 L22228.8,-100461 L22391,-100353 L22499.4,-100190 L22537.3,-99999.8 L22537.4,-99999.5 L22537.7,-99999.2 L22538,-99999.1 L22538.3,-99999 L61615.7,-99999 L61616.1,-99999.1 L61616.4,-99999.2 L61616.6,-99999.5 L61616.7,-99999.8 L61654.6,-100190 L61763,-100353 L61925.2,-100461 L62116.6,-100499 L63065.4,-100499 L63164.4,-100499 L63355.8,-100461 L63518,-100353 L63626.4,-100190 L63664.3,-99999.8 L63664.5,-99999.4 L63664.9,-99999.1 L63665.3,-99999 L64115.5,-99999 L104143,-99999 L104193,-99999 L104643,-99999 L104643,-99999.1 L104643,-99999.2 L104644,-99999.5 L104644,-99999.8 L104682,-100190 L104790,-100353 L104952,-100461 L105144,-100499 L105243,-100499 L106191,-100499 L106383,-100461 L106545,-100353 L106653,-100190 L106691,-99999.8 L106691,-99999.5 L106692,-99999.2 L106692,-99999.1 L106692,-99999 L126230,-99999 L126230,-1 L106692,-1 L106692,-0.94154 L106692,-0.77301 L106691,-0.5141 L106691,-0.19509 L106653,190.334 L106545,352.54 L106383,460.922 L106191,499 L105243,499 L105144,499 L104952,460.924 L104790,352.55 L104682,190.354 L104644,-0.19514 L104644,-0.60879 L104643,-0.89688 L104643,-1 L104193,-1 L64165.4,-1 L64115.5,-1 L63665.3,-1 L63664.9,-0.89687 L63664.5,-0.60876 L63664.3,-0.19509 L63626.4,190.334 L63518.1,352.54 L63355.9,460.922 L63164.4,499 L63065.4,499 L62116.6,499 L61925.2,460.922 L61763,352.54 L61654.6,190.334 L61616.7,-0.19509 L61616.6,-0.5141 L61616.4,-0.77301 L61616.1,-0.94154 L61615.7,-1 L22538.3,-1 L22538,-0.94154 L22537.7,-0.77301 L22537.4,-0.5141 L22537.3,-0.19509 L22499.4,190.334 L22391,352.54 L22228.8,460.922 L22037.4,499 L21538.5,499 L21538.1,499.076 L21537.8,499.293 L21537.6,499.617 L21537.5,500 L21537.5,866.025 L21537.6,866.525 L42075.9,36439.8 L21037.9,72878.5 L-21037.9,72878.5 L-42075.9,36439.8 L-21537.6,866.525 L-21537.5,866.025 L-21537.5,208.486 L-21537.5,208.195 L-21537.7,207.93 L-21549.4,190.354 L-21587.3,-0.19514 L-21587.5,-0.60879 L-21587.9,-0.89688 L-21588.3,-1 L-22038.5,-1 L-62065.7,-1 L-62115.5,-1 L-62565.7,-1 L-62566.2,-0.89687 L-62566.5,-0.60876 L-62566.7,-0.19509 L-62604.6,190.334 L-62713,352.54 L-62875.2,460.922 L-63066.6,499 L-63165.7,499 L-64114.4,499 L-64305.9,460.922 L-64468.1,352.54 L-64576.4,190.334 L-64614.3,-0.19509 L-64614.5,-0.5141 L-64614.7,-0.77301 L-64615,-0.94154 L-64615.3,-1 L-104193,-1"/>
</g>

<g fill="none" stroke="#000000" stroke-opacity="1" stroke-width="1" stroke-linecap="square" stroke-linejoin="bevel" transform="matrix(1,0,0,-1,127232,73881.1)"
font-family="MS Shell Dlg 2" font-size="10.3125" font-weight="400" font-style="normal" 
>
</g>

<g fill="none" stroke="#000000" stroke-opacity="1" stroke-width="1" stroke-linecap="square" stroke-linejoin="bevel" transform="matrix(1,0,0,-1,127232,73881.1)"
font-family="MS Shell Dlg 2" font-size="10.3125" font-weight="400" font-style="normal" 
>
</g>

<g fill="#ae5151" fill-opacity="0.2" stroke="#333333" stroke-opacity="1" stroke-width="1" stroke-linecap="round" stroke-linejoin="round" transform="matrix(1,0,0,-1,127232,73881.1)"
font-family="MS Shell Dlg 2" font-size="10.3125" font-weight="400" font-style="normal" 
>
<path vector-effect="non-scaling-stroke" fill-rule="evenodd" d="M21587.3,-40039.6 L21587.5,-40039.2 L21587.9,-40038.9 L21588.3,-40038.8 L22038.5,-40038.8 L22038.9,-40038.9 L22039.2,-40039.1 L22039.4,-40039.5 L22039.5,-40039.8 L22039.5,-59960.2 L22039.4,-59960.5 L22039.2,-59960.9 L22038.9,-59961.1 L22038.5,-59961.2 L21588.3,-59961.2 L21587.9,-59961.1 L21587.5,-59960.8 L21587.3,-59960.4 L21549.4,-59769.8 L21441,-59607.6 L21278.8,-59499.2 L21087.4,-59461.2 L20988.4,-59461.2 L20039.6,-59461.2 L20038.7,-59461.3 L20038.3,-59461.3 L20038,-59461.2 L20037.7,-59461 L20037.6,-59460.7 L20037.5,-59460.4 L20037.5,-40539.6 L20037.6,-40539.2 L20037.9,-40538.9 L20038.3,-40538.7 L20038.7,-40538.7 L20039.6,-40538.8 L20988.4,-40538.8 L21087.4,-40538.8 L21278.8,-40500.8 L21441,-40392.4 L21549.4,-40230.2 L21587.3,-40039.6"/>
</g>

<g fill="none" stroke="#000000" stroke-opacity="1" stroke-width="1" stroke-linecap="square" stroke-linejoin="bevel" transform="matrix(1,0,0,-1,127232,73881.1)"
font-family="MS Shell Dlg 2" font-size="10.3125" font-weight="400" font-style="normal" 
>
</g>

<g fill="none" stroke="#000000" stroke-opacity="1" stroke-width="1" stroke-linecap="square" stroke-linejoin="bevel" transform="matrix(1,0,0,-1,127232,73881.1)"
font-family="MS Shell Dlg 2" font-size="10.3125" font-weight="400" font-style="normal" 
>
</g>

<g fill="#ae5151" fill-opacity="0.2" stroke="#333333" stroke-opacity="1" stroke-width="1" stroke-linecap="round" stroke-linejoin="round" transform="matrix(1,0,0,-1,127232,73881.1)"
font-family="MS Shell Dlg 2" font-size="10.3125" font-weight="400" font-style="normal" 
>
<path vector-effect="non-scaling-stroke" fill-rule="evenodd" d="M-22038.3,-59461.3 L-22038.7,-59461.3 L-22039,-59461.2 L-22039.3,-59461 L-22039.4,-59460.7 L-22039.5,-59460.4 L-22039.5,-40539.6 L-22039.4,-40539.2 L-22039.1,-40538.9 L-22038.7,-40538.7 L-22038.3,-40538.7 L-22037.4,-40538.8 L-21088.6,-40538.8 L-20989.6,-40538.8 L-20798.2,-40500.8 L-20636,-40392.4 L-20527.6,-40230.2 L-20489.7,-40039.6 L-20489.5,-40039.2 L-20489.1,-40038.9 L-20488.7,-40038.8 L-20038.5,-40038.8 L-20038.1,-40038.9 L-20037.8,-40039.1 L-20037.6,-40039.5 L-20037.5,-40039.8 L-20037.5,-59960.2 L-20037.6,-59960.5 L-20037.8,-59960.9 L-20038.1,-59961.1 L-20038.5,-59961.2 L-20488.7,-59961.2 L-20489.1,-59961.1 L-20489.5,-59960.8 L-20489.7,-59960.4 L-20527.6,-59769.8 L-20636,-59607.6 L-20798.2,-59499.2 L-20989.6,-59461.2 L-21088.6,-59461.2 L-22037.4,-59461.2 L-22038.3,-59461.3"/>
</g>

<g fill="none" stroke="#000000" stroke-opacity="1" stroke-width="1" stroke-linecap="square" stroke-linejoin="bevel" transform="matrix(1,0,0,-1,127232,73881.1)"
font-family="MS Shell Dlg 2" font-size="10.3125" font-weight="400" font-style="normal" 
>
</g>

<g fill="none" stroke="#000000" stroke-opacity="1" stroke-width="1" stroke-linecap="square" stroke-linejoin="bevel" transform="matrix(1,0,0,-1,127232,73881.1)"
font-family="MS Shell Dlg 2" font-size="10.3125" font-weight="400" font-style="normal" 
>
</g>

<g fill="#ffff00" fill-opacity="0.2" stroke="#333333" stroke-opacity="1" stroke-width="1" stroke-linecap="round" stroke-linejoin="round" transform="matrix(1,0,0,-1,127232,73881.1)"
font-family="MS Shell Dlg 2" font-size="10.3125" font-weight="400" font-style="normal" 
>
<path vector-effect="non-scaling-stroke" fill-rule="evenodd" d="M-63165.7,-40038.8 L-63065.4,-40038.8 L-62115.5,-40038.8 L-62115.1,-40038.9 L-62114.8,-40039.1 L-62114.6,-40039.5 L-62114.5,-40039.8 L-62114.5,-59960.2 L-62114.6,-59960.5 L-62114.8,-59960.9 L-62115.1,-59961.1 L-62115.5,-59961.2 L-63065.4,-59961.2 L-63165.7,-59961.2 L-64115.5,-59961.2 L-64115.9,-59961.1 L-64116.2,-59960.9 L-64116.4,-59960.5 L-64116.5,-59960.2 L-64116.5,-40039.8 L-64116.4,-40039.5 L-64116.2,-40039.1 L-64115.9,-40038.9 L-64115.5,-40038.8 L-63165.7,-40038.8"/>
</g>

<g fill="none" stroke="#000000" stroke-opacity="1" stroke-width="1" stroke-linecap="square" stroke-linejoin="bevel" transform="matrix(1,0,0,-1,127232,73881.1)"
font-family="MS Shell Dlg 2" font-size="10.3125" font-weight="400" font-style="normal" 
>
</g>

<g fill="none" stroke="#000000" stroke-opacity="1" stroke-width="1" stroke-linecap="square" stroke-linejoin="bevel" transform="matrix(1,0,0,-1,127232,73881.1)"
font-family="MS Shell Dlg 2" font-size="10.3125" font-weight="400" font-style="normal" 
>
</g>

<g fill="#ffff00" fill-opacity="0.2" stroke="#333333" stroke-opacity="1" stroke-width="1" stroke-linecap="round" stroke-linejoin="round" transform="matrix(1,0,0,-1,127232,73881.1)"
font-family="MS Shell Dlg 2" font-size="10.3125" font-weight="400" font-style="normal" 
>
<path vector-effect="non-scaling-stroke" fill-rule="evenodd" d="M-105243,-40038.8 L-105142,-40038.8 L-104193,-40038.8 L-104192,-40038.9 L-104192,-40039.1 L-104192,-40039.5 L-104192,-40039.8 L-104192,-59960.2 L-104192,-59960.5 L-104192,-59960.9 L-104192,-59961.1 L-104193,-59961.2 L-105142,-59961.2 L-105243,-59961.2 L-106193,-59961.2 L-106193,-59961.1 L-106193,-59960.9 L-106193,-59960.5 L-106194,-59960.2 L-106194,-40039.8 L-106193,-40039.5 L-106193,-40039.1 L-106193,-40038.9 L-106193,-40038.8 L-105243,-40038.8"/>
</g>

<g fill="none" stroke="#000000" stroke-opacity="1" stroke-width="1" stroke-linecap="square" stroke-linejoin="bevel" transform="matrix(1,0,0,-1,127232,73881.1)"
font-family="MS Shell Dlg 2" font-size="10.3125" font-weight="400" font-style="normal" 
>
</g>

<g fill="none" stroke="#000000" stroke-opacity="1" stroke-width="1" stroke-linecap="square" stroke-linejoin="bevel" transform="matrix(1,0,0,-1,127232,73881.1)"
font-family="MS Shell Dlg 2" font-size="10.3125" font-weight="400" font-style="normal" 
>
</g>

<g fill="#ffff00" fill-opacity="0.2" stroke="#333333" stroke-opacity="1" stroke-width="1" stroke-linecap="round" stroke-linejoin="round" transform="matrix(1,0,0,-1,127232,73881.1)"
font-family="MS Shell Dlg 2" font-size="10.3125" font-weight="400" font-style="normal" 
>
<path vector-effect="non-scaling-stroke" fill-rule="evenodd" d="M4191.94,50.1414 L4191.94,-50.1414 L4191.94,-1000 L4191.86,-1000.38 L4191.64,-1000.71 L4191.32,-1000.92 L4190.94,-1001 L-4190.94,-1001 L-4191.32,-1000.92 L-4191.64,-1000.71 L-4191.86,-1000.38 L-4191.94,-1000 L-4191.94,-50.1414 L-4191.94,50.1414 L-4191.94,1000 L-4191.86,1000.38 L-4191.64,1000.71 L-4191.32,1000.92 L-4190.94,1001 L4190.94,1001 L4191.32,1000.92 L4191.64,1000.71 L4191.86,1000.38 L4191.94,1000 L4191.94,50.1414"/>
</g>

<g fill="none" stroke="#000000" stroke-opacity="1" stroke-width="1" stroke-linecap="square" stroke-linejoin="bevel" transform="matrix(1,0,0,-1,127232,73881.1)"
font-family="MS Shell Dlg 2" font-size="10.3125" font-weight="400" font-style="normal" 
>
</g>

<g fill="none" stroke="#000000" stroke-opacity="1" stroke-width="1" stroke-linecap="square" stroke-linejoin="bevel" transform="matrix(1,0,0,-1,127232,73881.1)"
font-family="MS Shell Dlg 2" font-size="10.3125" font-weight="400" font-style="normal" 
>
</g>

<g fill="#ffff00" fill-opacity="0.2" stroke="#333333" stroke-opacity="1" stroke-width="1" stroke-linecap="round" stroke-linejoin="round" transform="matrix(1,0,0,-1,127232,73881.1)"
font-family="MS Shell Dlg 2" font-size="10.3125" font-weight="400" font-style="normal" 
>
<path vector-effect="non-scaling-stroke" fill-rule="evenodd" d="M-20988.4,-59961.2 L-21088.6,-59961.2 L-22038.5,-59961.2 L-22038.9,-59961.1 L-22039.2,-59960.9 L-22039.4,-59960.5 L-22039.5,-59960.2 L-22039.5,-40039.8 L-22039.4,-40039.5 L-22039.2,-40039.1 L-22038.9,-40038.9 L-22038.5,-40038.8 L-21088.6,-40038.8 L-20988.4,-40038.8 L-20038.5,-40038.8 L-20038.1,-40038.9 L-20037.8,-40039.1 L-20037.6,-40039.5 L-20037.5,-40039.8 L-20037.5,-59960.2 L-20037.6,-59960.5 L-20037.8,-59960.9 L-20038.1,-59961.1 L-20038.5,-59961.2 L-20988.4,-59961.2"/>
</g>

<g fill="none" stroke="#000000" stroke-opacity="1" stroke-width="1" stroke-linecap="square" stroke-linejoin="bevel" transform="matrix(1,0,0,-1,127232,73881.1)"
font-family="MS Shell Dlg 2" font-size="10.3125" font-weight="400" font-style="normal" 
>
</g>

<g fill="none" stroke="#000000" stroke-opacity="1" stroke-width="1" stroke-linecap="square" stroke-linejoin="bevel" transform="matrix(1,0,0,-1,127232,73881.1)"
font-family="MS Shell Dlg 2" font-size="10.3125" font-weight="400" font-style="normal" 
>
</g>

<g fill="#ffff00" fill-opacity="0.2" stroke="#333333" stroke-opacity="1" stroke-width="1" stroke-linecap="round" stroke-linejoin="round" transform="matrix(1,0,0,-1,127232,73881.1)"
font-family="MS Shell Dlg 2" font-size="10.3125" font-weight="400" font-style="normal" 
>
<path vector-effect="non-scaling-stroke" fill-rule="evenodd" d="M-4191.94,-100050 L-4191.94,-99949.9 L-4191.94,-99000 L-4191.86,-98999.6 L-4191.64,-98999.3 L-4191.32,-98999.1 L-4190.94,-98999 L4190.94,-98999 L4191.32,-98999.1 L4191.64,-98999.3 L4191.86,-98999.6 L4191.94,-99000 L4191.94,-99949.9 L4191.94,-100050 L4191.94,-101000 L4191.86,-101000 L4191.64,-101001 L4191.32,-101001 L4190.94,-101001 L-4190.94,-101001 L-4191.32,-101001 L-4191.64,-101001 L-4191.86,-101000 L-4191.94,-101000 L-4191.94,-100050"/>
</g>

<g fill="none" stroke="#000000" stroke-opacity="1" stroke-width="1" stroke-linecap="square" stroke-linejoin="bevel" transform="matrix(1,0,0,-1,127232,73881.1)"
font-family="MS Shell Dlg 2" font-size="10.3125" font-weight="400" font-style="normal" 
>
</g>

<g fill="none" stroke="#000000" stroke-opacity="1" stroke-width="1" stroke-linecap="square" stroke-linejoin="bevel" transform="matrix(1,0,0,-1,127232,73881.1)"
font-family="MS Shell Dlg 2" font-size="10.3125" font-weight="400" font-style="normal" 
>
</g>

<g fill="#ffff00" fill-opacity="0.2" stroke="#333333" stroke-opacity="1" stroke-width="1" stroke-linecap="round" stroke-linejoin="round" transform="matrix(1,0,0,-1,127232,73881.1)"
font-family="MS Shell Dlg 2" font-size="10.3125" font-weight="400" font-style="normal" 
>
<path vector-effect="non-scaling-stroke" fill-rule="evenodd" d="M104192,-40039.8 L104192,-40039.5 L104192,-40039.1 L104192,-40038.9 L104193,-40038.8 L105142,-40038.8 L105243,-40038.8 L106193,-40038.8 L106193,-40038.9 L106193,-40039.1 L106193,-40039.5 L106194,-40039.8 L106194,-59960.2 L106193,-59960.5 L106193,-59960.9 L106193,-59961.1 L106193,-59961.2 L105243,-59961.2 L105142,-59961.2 L104193,-59961.2 L104192,-59961.1 L104192,-59960.9 L104192,-59960.5 L104192,-59960.2 L104192,-40039.8"/>
</g>

<g fill="none" stroke="#000000" stroke-opacity="1" stroke-width="1" stroke-linecap="square" stroke-linejoin="bevel" transform="matrix(1,0,0,-1,127232,73881.1)"
font-family="MS Shell Dlg 2" font-size="10.3125" font-weight="400" font-style="normal" 
>
</g>

<g fill="none" stroke="#000000" stroke-opacity="1" stroke-width="1" stroke-linecap="square" stroke-linejoin="bevel" transform="matrix(1,0,0,-1,127232,73881.1)"
font-family="MS Shell Dlg 2" font-size="10.3125" font-weight="400" font-style="normal" 
>
</g>

<g fill="#ffff00" fill-opacity="0.2" stroke="#333333" stroke-opacity="1" stroke-width="1" stroke-linecap="round" stroke-linejoin="round" transform="matrix(1,0,0,-1,127232,73881.1)"
font-family="MS Shell Dlg 2" font-size="10.3125" font-weight="400" font-style="normal" 
>
<path vector-effect="non-scaling-stroke" fill-rule="evenodd" d="M64116.5,-59960.2 L64116.4,-59960.5 L64116.2,-59960.9 L64115.9,-59961.1 L64115.5,-59961.2 L63165.7,-59961.2 L63065.4,-59961.2 L62115.5,-59961.2 L62115.1,-59961.1 L62114.8,-59960.9 L62114.6,-59960.5 L62114.5,-59960.2 L62114.5,-40039.8 L62114.6,-40039.5 L62114.8,-40039.1 L62115.1,-40038.9 L62115.5,-40038.8 L63065.4,-40038.8 L63165.7,-40038.8 L64115.5,-40038.8 L64115.9,-40038.9 L64116.2,-40039.1 L64116.4,-40039.5 L64116.5,-40039.8 L64116.5,-59960.2"/>
</g>

<g fill="none" stroke="#000000" stroke-opacity="1" stroke-width="1" stroke-linecap="square" stroke-linejoin="bevel" transform="matrix(1,0,0,-1,127232,73881.1)"
font-family="MS Shell Dlg 2" font-size="10.3125" font-weight="400" font-style="normal" 
>
</g>

<g fill="none" stroke="#000000" stroke-opacity="1" stroke-width="1" stroke-linecap="square" stroke-linejoin="bevel" transform="matrix(1,0,0,-1,127232,73881.1)"
font-family="MS Shell Dlg 2" font-size="10.3125" font-weight="400" font-style="normal" 
>
</g>

<g fill="#ffff00" fill-opacity="0.2" stroke="#333333" stroke-opacity="1" stroke-width="1" stroke-linecap="round" stroke-linejoin="round" transform="matrix(1,0,0,-1,127232,73881.1)"
font-family="MS Shell Dlg 2" font-size="10.3125" font-weight="400" font-style="normal" 
>
<path vector-effect="non-scaling-stroke" fill-rule="evenodd" d="M20037.5,-40039.8 L20037.6,-40039.5 L20037.8,-40039.1 L20038.1,-40038.9 L20038.5,-40038.8 L20988.4,-40038.8 L21088.6,-40038.8 L22038.5,-40038.8 L22038.9,-40038.9 L22039.2,-40039.1 L22039.4,-40039.5 L22039.5,-40039.8 L22039.5,-59960.2 L22039.4,-59960.5 L22039.2,-59960.9 L22038.9,-59961.1 L22038.5,-59961.2 L21088.6,-59961.2 L20988.4,-59961.2 L20038.5,-59961.2 L20038.1,-59961.1 L20037.8,-59960.9 L20037.6,-59960.5 L20037.5,-59960.2 L20037.5,-40039.8"/>
</g>

<g fill="none" stroke="#000000" stroke-opacity="1" stroke-width="1" stroke-linecap="square" stroke-linejoin="bevel" transform="matrix(1,0,0,-1,127232,73881.1)"
font-family="MS Shell Dlg 2" font-size="10.3125" font-weight="400" font-style="normal" 
>
</g>

<g fill="none" stroke="#000000" stroke-opacity="1" stroke-width="1" stroke-linecap="square" stroke-linejoin="bevel" transform="matrix(1,0,0,-1,127232,73881.1)"
font-family="MS Shell Dlg 2" font-size="10.3125" font-weight="400" font-style="normal" 
>
</g>

<g fill="#ffff00" fill-opacity="0.2" stroke="#333333" stroke-opacity="1" stroke-width="1" stroke-linecap="round" stroke-linejoin="round" transform="matrix(1,0,0,-1,127232,73881.1)"
font-family="MS Shell Dlg 2" font-size="10.3125" font-weight="400" font-style="normal" 
>
<path vector-effect="non-scaling-stroke" fill-rule="evenodd" d="M-22772.3,-101001 L-126231,-101001 L-126231,-101001 L-126614,-100925 L-126614,-100925 L-126939,-100708 L-126939,-100708 L-127156,-100383 L-127156,-100383 L-127232,-100000 L-127232,-100000 L-127232,0 L-127232,0.19509 L-127156,382.879 L-127156,383.239 L-126939,707.662 L-126939,707.938 L-126614,924.711 L-126614,924.86 L-126231,1000.98 L-126231,1001 L-22772.3,1001 L-42943.9,35939.3 L-42944,35939.4 L-43062.8,36265.8 L-43062.8,36266.1 L-43062.8,36613.4 L-43062.8,36613.8 L-42944,36940.1 L-42943.9,36940.3 L-21905.4,73380 L-21905.3,73380.2 L-21682.1,73646.2 L-21681.8,73646.4 L-21381,73820.1 L-21380.7,73820.2 L-21038.7,73880.5 L-21038.5,73880.5 L21038.5,73880.5 L21038.7,73880.5 L21380.7,73820.2 L21381,73820.1 L21681.8,73646.4 L21682.1,73646.2 L21905.3,73380.2 L21905.4,73380 L42943.9,36940.3 L42944,36940.1 L43062.8,36613.8 L43062.8,36613.4 L43062.8,36266.1 L43062.8,36265.8 L42944,35939.4 L42943.9,35939.3 L22772.3,1001 L126231,1001 L126231,1000.98 L126614,924.86 L126614,924.711 L126939,707.938 L126939,707.662 L127156,383.239 L127156,382.879 L127232,0.19509 L127232,0 L127232,-100000 L127232,-100000 L127156,-100383 L127156,-100383 L126939,-100708 L126939,-100708 L126614,-100925 L126614,-100925 L126231,-101001 L126231,-101001 L22772.3,-101001 L42943.9,-135939 L42944,-135939 L43062.8,-136266 L43062.8,-136266 L43062.8,-136613 L43062.8,-136614 L42944,-136940 L42943.9,-136940 L21905.4,-173380 L21905.3,-173380 L21682.1,-173646 L21681.8,-173646 L21381,-173820 L21380.7,-173820 L21038.7,-173881 L21038.5,-173881 L-21038.5,-173881 L-21038.7,-173881 L-21380.7,-173820 L-21381,-173820 L-21681.8,-173646 L-21682.1,-173646 L-21905.3,-173380 L-21905.4,-173380 L-42943.9,-136940 L-42944,-136940 L-43062.8,-136614 L-43062.8,-136613 L-43062.8,-136266 L-43062.8,-136266 L-42944,-135939 L-42943.9,-135939 L-22772.3,-101001 M-104193,-1 L-105142,-1 L-105243,-1 L-106193,-1 L-126230,-1 L-126230,-99999 L-106193,-99999 L-105243,-99999 L-105142,-99999 L-104193,-99999 L-64165.4,-99999 L-64115.5,-99999 L-63165.7,-99999 L-63065.4,-99999 L-62115.5,-99999 L-22088.4,-99999 L-22038.5,-99999 L-21088.6,-99999 L-21038.5,-99999 L-21038.1,-99999.1 L-21037.8,-99999.3 L-21037.6,-99999.6 L-21037.5,-100000 L-21037.5,-100050 L-21037.5,-101000 L-21037.6,-101000 L-21037.8,-101001 L-21038.1,-101001 L-21038.4,-101001 L-21038.7,-101001 L-21421.4,-100925 L-21421.7,-100925 L-21529.6,-100853 L-42075.9,-136440 L-21037.9,-172879 L21037.9,-172879 L42075.9,-136440 L21529.6,-100853 L21421.7,-100925 L21421.4,-100925 L21038.7,-101001 L21038.5,-101001 L21038.1,-101001 L21037.8,-101001 L21037.6,-101000 L21037.5,-101000 L21037.5,-100050 L21037.5,-100000 L21037.6,-99999.6 L21037.8,-99999.3 L21038.1,-99999.1 L21038.5,-99999 L21088.6,-99999 L22038.5,-99999 L62065.7,-99999 L62115.5,-99999 L63065.4,-99999 L63165.7,-99999 L64115.5,-99999 L104143,-99999 L104193,-99999 L105142,-99999 L105243,-99999 L106193,-99999 L126230,-99999 L126230,-1 L106193,-1 L105243,-1 L105142,-1 L104193,-1 L64165.4,-1 L64115.5,-1 L63165.7,-1 L63065.4,-1 L62115.5,-1 L22088.4,-1 L22038.5,-1 L21088.6,-1 L21038.5,-1 L21038.1,-0.92388 L21037.8,-0.70711 L21037.6,-0.38268 L21037.5,0 L21037.5,50.1414 L21037.5,1000 L21037.6,1000.38 L21037.8,1000.71 L21038.1,1000.92 L21038.5,1001 L21038.7,1000.98 L21421.4,924.86 L21421.7,924.711 L21529.6,852.632 L42075.9,36439.8 L21037.9,72878.5 L-21037.9,72878.5 L-42075.9,36439.8 L-21529.6,852.632 L-21421.7,924.711 L-21421.4,924.86 L-21038.7,1000.98 L-21038.3,1000.97 L-21037.9,1000.77 L-21037.6,1000.43 L-21037.5,1000 L-21037.5,50.1414 L-21037.5,0 L-21037.6,-0.38268 L-21037.8,-0.70711 L-21038.1,-0.92388 L-21038.5,-1 L-21088.6,-1 L-22038.5,-1 L-62065.7,-1 L-62115.5,-1 L-63065.4,-1 L-63165.7,-1 L-64115.5,-1 L-104143,-1 L-104193,-1"/>
</g>

<g fill="none" stroke="#000000" stroke-opacity="1" stroke-width="1" stroke-linecap="square" stroke-linejoin="bevel" transform="matrix(1,0,0,-1,127232,73881.1)"
font-family="MS Shell Dlg 2" font-size="10.3125" font-weight="400" font-style="normal" 
>
</g>

<g fill="none" stroke="#000000" stroke-opacity="1" stroke-width="1" stroke-linecap="square" stroke-linejoin="bevel" transform="matrix(1,0,0,-1,127232,73881.1)"
font-family="MS Shell Dlg 2" font-size="10.3125" font-weight="400" font-style="normal" 
>
</g>

<g fill="#ae5151" fill-opacity="0.2" stroke="#333333" stroke-opacity="1" stroke-width="1" stroke-linecap="round" stroke-linejoin="round" transform="matrix(1,0,0,-1,127232,73881.1)"
font-family="MS Shell Dlg 2" font-size="10.3125" font-weight="400" font-style="normal" 
>
<path vector-effect="non-scaling-stroke" fill-rule="evenodd" d="M-104644,-40039.6 L-104644,-40039.2 L-104643,-40038.9 L-104643,-40038.8 L-104193,-40038.8 L-104192,-40038.9 L-104192,-40039.1 L-104192,-40039.5 L-104192,-40039.8 L-104192,-59960.2 L-104192,-59960.5 L-104192,-59960.9 L-104192,-59961.1 L-104193,-59961.2 L-104643,-59961.2 L-104643,-59961.1 L-104644,-59960.8 L-104644,-59960.4 L-104682,-59769.8 L-104790,-59607.6 L-104952,-59499.2 L-105144,-59461.2 L-105243,-59461.2 L-106191,-59461.2 L-106192,-59461.3 L-106193,-59461.3 L-106193,-59461.1 L-106193,-59460.8 L-106194,-59460.4 L-106194,-40539.6 L-106193,-40539.2 L-106193,-40538.9 L-106193,-40538.7 L-106192,-40538.7 L-106191,-40538.8 L-105243,-40538.8 L-105144,-40538.8 L-104952,-40500.8 L-104790,-40392.4 L-104682,-40230.2 L-104644,-40039.6"/>
</g>

<g fill="none" stroke="#000000" stroke-opacity="1" stroke-width="1" stroke-linecap="square" stroke-linejoin="bevel" transform="matrix(1,0,0,-1,127232,73881.1)"
font-family="MS Shell Dlg 2" font-size="10.3125" font-weight="400" font-style="normal" 
>
</g>

<g fill="none" stroke="#000000" stroke-opacity="1" stroke-width="1" stroke-linecap="square" stroke-linejoin="bevel" transform="matrix(1,0,0,-1,127232,73881.1)"
font-family="MS Shell Dlg 2" font-size="10.3125" font-weight="400" font-style="normal" 
>
</g>

<g fill="#ae5151" fill-opacity="0.2" stroke="#333333" stroke-opacity="1" stroke-width="1" stroke-linecap="round" stroke-linejoin="round" transform="matrix(1,0,0,-1,127232,73881.1)"
font-family="MS Shell Dlg 2" font-size="10.3125" font-weight="400" font-style="normal" 
>
<path vector-effect="non-scaling-stroke" fill-rule="evenodd" d="M4191.13,-548.834 L4191.55,-549.021 L4191.83,-549.372 L4191.94,-549.815 L4191.94,-1000 L4191.86,-1000.38 L4191.64,-1000.71 L4191.32,-1000.92 L4190.94,-1001 L-4190.94,-1001 L-4191.32,-1000.92 L-4191.64,-1000.71 L-4191.86,-1000.38 L-4191.94,-1000 L-4191.94,-549.801 L-4191.83,-549.359 L-4191.55,-549.008 L-4191.13,-548.82 L-4000.6,-510.922 L-3838.4,-402.54 L-3730.02,-240.334 L-3691.94,-48.9015 L-3691.94,50.1414 L-3691.94,998.902 L-3692.12,999.805 L-3692.12,1000.16 L-3692.01,1000.49 L-3691.79,1000.76 L-3691.48,1000.94 L-3691.14,1001 L3691.14,1001 L3691.56,1000.9 L3691.91,1000.63 L3692.11,1000.24 L3692.12,999.805 L3691.94,998.902 L3691.94,50.1414 L3691.94,-48.9015 L3730.01,-240.318 L3838.37,-402.515 L4000.56,-510.902 L4191.13,-548.834"/>
</g>

<g fill="none" stroke="#000000" stroke-opacity="1" stroke-width="1" stroke-linecap="square" stroke-linejoin="bevel" transform="matrix(1,0,0,-1,127232,73881.1)"
font-family="MS Shell Dlg 2" font-size="10.3125" font-weight="400" font-style="normal" 
>
</g>

<g fill="none" stroke="#000000" stroke-opacity="1" stroke-width="1" stroke-linecap="square" stroke-linejoin="bevel" transform="matrix(1,0,0,-1,127232,73881.1)"
font-family="MS Shell Dlg 2" font-size="10.3125" font-weight="400" font-style="normal" 
>
</g>

<g fill="#ae5151" fill-opacity="0.2" stroke="#333333" stroke-opacity="1" stroke-width="1" stroke-linecap="round" stroke-linejoin="round" transform="matrix(1,0,0,-1,127232,73881.1)"
font-family="MS Shell Dlg 2" font-size="10.3125" font-weight="400" font-style="normal" 
>
<path vector-effect="non-scaling-stroke" fill-rule="evenodd" d="M-62566.7,-40039.6 L-62566.5,-40039.2 L-62566.2,-40038.9 L-62565.7,-40038.8 L-62115.5,-40038.8 L-62115.1,-40038.9 L-62114.8,-40039.1 L-62114.6,-40039.5 L-62114.5,-40039.8 L-62114.5,-59960.2 L-62114.6,-59960.5 L-62114.8,-59960.9 L-62115.1,-59961.1 L-62115.5,-59961.2 L-62565.7,-59961.2 L-62566.1,-59961.1 L-62566.4,-59960.9 L-62566.6,-59960.7 L-62566.7,-59960.4 L-62604.6,-59769.8 L-62713,-59607.6 L-62875.2,-59499.2 L-63066.6,-59461.2 L-63165.7,-59461.2 L-64114.4,-59461.2 L-64115.3,-59461.3 L-64115.7,-59461.3 L-64116,-59461.2 L-64116.3,-59461 L-64116.5,-59460.7 L-64116.5,-59460.4 L-64116.5,-40539.6 L-64116.4,-40539.2 L-64116.2,-40538.9 L-64115.8,-40538.7 L-64115.3,-40538.7 L-64114.4,-40538.8 L-63165.7,-40538.8 L-63066.6,-40538.8 L-62875.2,-40500.8 L-62713,-40392.4 L-62604.6,-40230.2 L-62566.7,-40039.6"/>
</g>

<g fill="none" stroke="#000000" stroke-opacity="1" stroke-width="1" stroke-linecap="square" stroke-linejoin="bevel" transform="matrix(1,0,0,-1,127232,73881.1)"
font-family="MS Shell Dlg 2" font-size="10.3125" font-weight="400" font-style="normal" 
>
</g>

<g fill="none" stroke="#000000" stroke-opacity="1" stroke-width="1" stroke-linecap="square" stroke-linejoin="bevel" transform="matrix(1,0,0,-1,127232,73881.1)"
font-family="MS Shell Dlg 2" font-size="10.3125" font-weight="400" font-style="normal" 
>
</g>

<g fill="#ae5151" fill-opacity="0.2" stroke="#333333" stroke-opacity="1" stroke-width="1" stroke-linecap="round" stroke-linejoin="round" transform="matrix(1,0,0,-1,127232,73881.1)"
font-family="MS Shell Dlg 2" font-size="10.3125" font-weight="400" font-style="normal" 
>
<path vector-effect="non-scaling-stroke" fill-rule="evenodd" d="M-4191.13,-99451.2 L-4191.55,-99451 L-4191.83,-99450.6 L-4191.94,-99450.2 L-4191.94,-99000 L-4191.86,-98999.6 L-4191.64,-98999.3 L-4191.32,-98999.1 L-4190.94,-98999 L4190.94,-98999 L4191.32,-98999.1 L4191.64,-98999.3 L4191.86,-98999.6 L4191.94,-99000 L4191.94,-99450.2 L4191.83,-99450.6 L4191.55,-99451 L4191.13,-99451.2 L4000.6,-99489.1 L3838.4,-99597.5 L3730.02,-99759.7 L3691.94,-99951.1 L3691.94,-100050 L3691.94,-100999 L3692.12,-101000 L3692.11,-101000 L3691.91,-101001 L3691.56,-101001 L3691.14,-101001 L-3691.14,-101001 L-3691.56,-101001 L-3691.91,-101001 L-3692.11,-101000 L-3692.12,-101000 L-3691.94,-100999 L-3691.94,-100050 L-3691.94,-99951.1 L-3730.01,-99759.7 L-3838.37,-99597.5 L-4000.56,-99489.1 L-4191.13,-99451.2"/>
</g>

<g fill="none" stroke="#000000" stroke-opacity="1" stroke-width="1" stroke-linecap="square" stroke-linejoin="bevel" transform="matrix(1,0,0,-1,127232,73881.1)"
font-family="MS Shell Dlg 2" font-size="10.3125" font-weight="400" font-style="normal" 
>
</g>

<g fill="none" stroke="#000000" stroke-opacity="1" stroke-width="1" stroke-linecap="square" stroke-linejoin="bevel" transform="matrix(1,0,0,-1,127232,73881.1)"
font-family="MS Shell Dlg 2" font-size="10.3125" font-weight="400" font-style="normal" 
>
</g>

<g fill="#ae5151" fill-opacity="0.2" stroke="#333333" stroke-opacity="1" stroke-width="1" stroke-linecap="round" stroke-linejoin="round" transform="matrix(1,0,0,-1,127232,73881.1)"
font-family="MS Shell Dlg 2" font-size="10.3125" font-weight="400" font-style="normal" 
>
<path vector-effect="non-scaling-stroke" fill-rule="evenodd" d="M104192,-40039.8 L104192,-40039.5 L104192,-40039.1 L104192,-40038.9 L104193,-40038.8 L104643,-40038.8 L104643,-40038.9 L104644,-40039.2 L104644,-40039.6 L104682,-40230.2 L104790,-40392.4 L104952,-40500.8 L105144,-40538.8 L105243,-40538.8 L106191,-40538.8 L106192,-40538.7 L106193,-40538.7 L106193,-40538.8 L106193,-40539 L106193,-40539.3 L106194,-40539.6 L106194,-59460.4 L106193,-59460.8 L106193,-59461.1 L106193,-59461.3 L106192,-59461.3 L106191,-59461.2 L105243,-59461.2 L105144,-59461.2 L104952,-59499.2 L104790,-59607.6 L104682,-59769.8 L104644,-59960.4 L104644,-59960.8 L104643,-59961.1 L104643,-59961.2 L104193,-59961.2 L104192,-59961.1 L104192,-59960.9 L104192,-59960.5 L104192,-59960.2 L104192,-40039.8"/>
</g>

<g fill="none" stroke="#000000" stroke-opacity="1" stroke-width="1" stroke-linecap="square" stroke-linejoin="bevel" transform="matrix(1,0,0,-1,127232,73881.1)"
font-family="MS Shell Dlg 2" font-size="10.3125" font-weight="400" font-style="normal" 
>
</g>

<g fill="none" stroke="#000000" stroke-opacity="1" stroke-width="1" stroke-linecap="square" stroke-linejoin="bevel" transform="matrix(1,0,0,-1,127232,73881.1)"
font-family="MS Shell Dlg 2" font-size="10.3125" font-weight="400" font-style="normal" 
>
</g>

<g fill="#ae5151" fill-opacity="0.2" stroke="#333333" stroke-opacity="1" stroke-width="1" stroke-linecap="round" stroke-linejoin="round" transform="matrix(1,0,0,-1,127232,73881.1)"
font-family="MS Shell Dlg 2" font-size="10.3125" font-weight="400" font-style="normal" 
>
<path vector-effect="non-scaling-stroke" fill-rule="evenodd" d="M-21587.3,-59960.4 L-21587.5,-59960.8 L-21587.9,-59961.1 L-21588.3,-59961.2 L-22038.5,-59961.2 L-22038.9,-59961.1 L-22039.2,-59960.9 L-22039.4,-59960.5 L-22039.5,-59960.2 L-22039.5,-40039.8 L-22039.4,-40039.5 L-22039.2,-40039.1 L-22038.9,-40038.9 L-22038.5,-40038.8 L-21588.3,-40038.8 L-21587.9,-40038.9 L-21587.5,-40039.2 L-21587.3,-40039.6 L-21549.4,-40230.2 L-21441,-40392.4 L-21278.8,-40500.8 L-21087.4,-40538.8 L-20988.4,-40538.8 L-20039.6,-40538.8 L-20038.7,-40538.7 L-20038.3,-40538.7 L-20038,-40538.8 L-20037.7,-40539 L-20037.6,-40539.3 L-20037.5,-40539.6 L-20037.5,-59460.4 L-20037.6,-59460.8 L-20037.9,-59461.1 L-20038.3,-59461.3 L-20038.7,-59461.3 L-20039.6,-59461.2 L-20988.4,-59461.2 L-21087.4,-59461.2 L-21278.8,-59499.2 L-21441,-59607.6 L-21549.4,-59769.8 L-21587.3,-59960.4"/>
</g>

<g fill="none" stroke="#000000" stroke-opacity="1" stroke-width="1" stroke-linecap="square" stroke-linejoin="bevel" transform="matrix(1,0,0,-1,127232,73881.1)"
font-family="MS Shell Dlg 2" font-size="10.3125" font-weight="400" font-style="normal" 
>
</g>

<g fill="none" stroke="#000000" stroke-opacity="1" stroke-width="1" stroke-linecap="square" stroke-linejoin="bevel" transform="matrix(1,0,0,-1,127232,73881.1)"
font-family="MS Shell Dlg 2" font-size="10.3125" font-weight="400" font-style="normal" 
>
</g>

<g fill="#ae5151" fill-opacity="0.2" stroke="#333333" stroke-opacity="1" stroke-width="1" stroke-linecap="round" stroke-linejoin="round" transform="matrix(1,0,0,-1,127232,73881.1)"
font-family="MS Shell Dlg 2" font-size="10.3125" font-weight="400" font-style="normal" 
>
<path vector-effect="non-scaling-stroke" fill-rule="evenodd" d="M20037.5,-40039.8 L20037.6,-40039.5 L20037.8,-40039.1 L20038.1,-40038.9 L20038.5,-40038.8 L20488.7,-40038.8 L20489.1,-40038.9 L20489.5,-40039.2 L20489.7,-40039.6 L20527.6,-40230.2 L20636,-40392.4 L20798.2,-40500.8 L20989.6,-40538.8 L21088.6,-40538.8 L22037.4,-40538.8 L22038.3,-40538.7 L22038.7,-40538.7 L22039,-40538.8 L22039.3,-40539 L22039.4,-40539.3 L22039.5,-40539.6 L22039.5,-59460.4 L22039.4,-59460.8 L22039.1,-59461.1 L22038.7,-59461.3 L22038.3,-59461.3 L22037.4,-59461.2 L21088.6,-59461.2 L20989.6,-59461.2 L20798.2,-59499.2 L20636,-59607.6 L20527.6,-59769.8 L20489.7,-59960.4 L20489.5,-59960.8 L20489.1,-59961.1 L20488.7,-59961.2 L20038.5,-59961.2 L20038.1,-59961.1 L20037.8,-59960.9 L20037.6,-59960.5 L20037.5,-59960.2 L20037.5,-40039.8"/>
</g>

<g fill="none" stroke="#000000" stroke-opacity="1" stroke-width="1" stroke-linecap="square" stroke-linejoin="bevel" transform="matrix(1,0,0,-1,127232,73881.1)"
font-family="MS Shell Dlg 2" font-size="10.3125" font-weight="400" font-style="normal" 
>
</g>

<g fill="none" stroke="#000000" stroke-opacity="1" stroke-width="1" stroke-linecap="square" stroke-linejoin="bevel" transform="matrix(1,0,0,-1,127232,73881.1)"
font-family="MS Shell Dlg 2" font-size="10.3125" font-weight="400" font-style="normal" 
>
</g>

<g fill="#ae5151" fill-opacity="0.2" stroke="#333333" stroke-opacity="1" stroke-width="1" stroke-linecap="round" stroke-linejoin="round" transform="matrix(1,0,0,-1,127232,73881.1)"
font-family="MS Shell Dlg 2" font-size="10.3125" font-weight="400" font-style="normal" 
>
<path vector-effect="non-scaling-stroke" fill-rule="evenodd" d="M-22772.3,-101001 L-126231,-101001 L-126231,-101001 L-126614,-100925 L-126614,-100925 L-126939,-100708 L-126939,-100708 L-127156,-100383 L-127156,-100383 L-127232,-100000 L-127232,-100000 L-127232,0 L-127232,0.19509 L-127156,382.879 L-127156,383.239 L-126939,707.662 L-126939,707.938 L-126614,924.711 L-126614,924.86 L-126231,1000.98 L-126231,1001 L-22772.3,1001 L-42943.9,35939.3 L-42944,35939.4 L-43062.8,36265.8 L-43062.8,36266.1 L-43062.8,36613.4 L-43062.8,36613.8 L-42944,36940.1 L-42943.9,36940.3 L-21905.4,73380 L-21905.3,73380.2 L-21682.1,73646.2 L-21681.8,73646.4 L-21381,73820.1 L-21380.7,73820.2 L-21038.7,73880.5 L-21038.5,73880.5 L21038.5,73880.5 L21038.7,73880.5 L21380.7,73820.2 L21381,73820.1 L21681.8,73646.4 L21682.1,73646.2 L21905.3,73380.2 L21905.4,73380 L42943.9,36940.3 L42944,36940.1 L43062.8,36613.8 L43062.8,36613.4 L43062.8,36266.1 L43062.8,36265.8 L42944,35939.4 L42943.9,35939.3 L22772.3,1001 L126231,1001 L126231,1000.98 L126614,924.86 L126614,924.711 L126939,707.938 L126939,707.662 L127156,383.239 L127156,382.879 L127232,0.19509 L127232,0 L127232,-100000 L127232,-100000 L127156,-100383 L127156,-100383 L126939,-100708 L126939,-100708 L126614,-100925 L126614,-100925 L126231,-101001 L126231,-101001 L22772.3,-101001 L42943.9,-135939 L42944,-135939 L43062.8,-136266 L43062.8,-136266 L43062.8,-136613 L43062.8,-136614 L42944,-136940 L42943.9,-136940 L21905.4,-173380 L21905.3,-173380 L21682.1,-173646 L21681.8,-173646 L21381,-173820 L21380.7,-173820 L21038.7,-173881 L21038.5,-173881 L-21038.5,-173881 L-21038.7,-173881 L-21380.7,-173820 L-21381,-173820 L-21681.8,-173646 L-21682.1,-173646 L-21905.3,-173380 L-21905.4,-173380 L-42943.9,-136940 L-42944,-136940 L-43062.8,-136614 L-43062.8,-136613 L-43062.8,-136266 L-43062.8,-136266 L-42944,-135939 L-42943.9,-135939 L-22772.3,-101001 M42075.9,-136440 L21529.6,-100853 L21421.7,-100925 L21421.4,-100925 L21038.7,-101001 L21038.5,-101001 L21038.1,-101001 L21037.8,-101001 L21037.6,-101000 L21037.5,-101000 L21037.5,-100550 L21037.6,-100549 L21037.7,-100549 L21038,-100549 L21038.3,-100549 L21226.5,-100512 L21387.5,-100406 L21409.9,-100373 L21410.1,-100373 L21441,-100353 L21549.4,-100190 L21587.3,-99999.8 L21587.5,-99999.4 L21587.9,-99999.1 L21588.3,-99999 L22038.5,-99999 L62065.7,-99999 L62115.5,-99999 L62565.7,-99999 L62566.1,-99999.1 L62566.4,-99999.2 L62566.6,-99999.5 L62566.7,-99999.8 L62604.6,-100190 L62713,-100353 L62875.2,-100461 L63066.6,-100499 L63165.7,-100499 L64114.4,-100499 L64305.9,-100461 L64468.1,-100353 L64576.4,-100190 L64614.3,-99999.8 L64614.5,-99999.5 L64614.7,-99999.2 L64615,-99999.1 L64615.3,-99999 L103693,-99999 L103693,-99999.1 L103693,-99999.2 L103694,-99999.5 L103694,-99999.8 L103732,-100190 L103840,-100353 L104002,-100461 L104194,-100499 L105142,-100499 L105241,-100499 L105433,-100461 L105595,-100353 L105703,-100190 L105741,-99999.8 L105742,-99999.4 L105742,-99999.1 L105742,-99999 L106193,-99999 L126230,-99999 L126230,-1 L106193,-1 L105742,-1 L105742,-0.89687 L105742,-0.60876 L105741,-0.19509 L105703,190.334 L105595,352.54 L105433,460.922 L105241,499 L105142,499 L104194,499 L104002,460.922 L103840,352.54 L103732,190.334 L103694,-0.19509 L103694,-0.5141 L103693,-0.77301 L103693,-0.94154 L103693,-1 L64615.3,-1 L64614.9,-0.89687 L64614.5,-0.60876 L64614.3,-0.19509 L64576.4,190.334 L64468.1,352.54 L64305.9,460.922 L64114.4,499 L63165.7,499 L63066.6,499 L62875.2,460.924 L62713,352.55 L62604.6,190.354 L62566.7,-0.19514 L62566.5,-0.60879 L62566.2,-0.89688 L62565.7,-1 L62115.5,-1 L22088.4,-1 L22038.5,-1 L21588.3,-1 L21588,-0.94133 L21587.7,-0.77222 L21587.5,-0.51249 L21587.3,-0.19264 L21550.4,188.023 L21444.6,348.987 L21412,371.358 L21411.7,371.627 L21391.1,402.515 L21228.9,510.902 L21038.3,548.834 L21037.9,549.021 L21037.6,549.372 L21037.5,549.815 L21037.5,1000 L21037.6,1000.38 L21037.8,1000.71 L21038.1,1000.92 L21038.5,1001 L21038.7,1000.98 L21421.4,924.86 L21421.7,924.711 L21529.6,852.632 L42075.9,36439.8 L21037.9,72878.5 L-21037.9,72878.5 L-42075.9,36439.8 L-21529.6,852.632 L-21421.7,924.711 L-21421.4,924.86 L-21038.7,1000.98 L-21038.3,1000.97 L-21037.9,1000.77 L-21037.6,1000.43 L-21037.5,1000 L-21037.5,549.804 L-21037.6,549.466 L-21037.7,549.168 L-21038,548.945 L-21038.3,548.822 L-21226.5,511.873 L-21245.9,499.164 L-21246.4,499 L-22037.4,499 L-22228.8,460.922 L-22391,352.54 L-22499.4,190.334 L-22537.3,-0.19509 L-22537.4,-0.5141 L-22537.7,-0.77301 L-22538,-0.94154 L-22538.3,-1 L-61615.7,-1 L-61616.2,-0.89687 L-61616.5,-0.60876 L-61616.7,-0.19509 L-61654.6,190.334 L-61763,352.54 L-61925.2,460.922 L-62116.6,499 L-63065.4,499 L-63164.4,499 L-63355.8,460.924 L-63518,352.55 L-63626.4,190.354 L-63664.3,-0.19514 L-63664.5,-0.60879 L-63664.9,-0.89688 L-63665.3,-1 L-64115.5,-1 L-103693,-1 L-103693,-0.94154 L-103693,-0.77301 L-103694,-0.5141 L-103694,-0.19509 L-103732,190.334 L-103840,352.54 L-104002,460.922 L-104194,499 L-105142,499 L-105241,499 L-105433,460.924 L-105595,352.55 L-105703,190.354 L-105741,-0.19514 L-105742,-0.60879 L-105742,-0.89688 L-105742,-1 L-106193,-1 L-126230,-1 L-126230,-99999 L-106193,-99999 L-105742,-99999 L-105742,-99999.1 L-105742,-99999.2 L-105741,-99999.5 L-105741,-99999.8 L-105703,-100190 L-105595,-100353 L-105433,-100461 L-105241,-100499 L-105142,-100499 L-104194,-100499 L-104002,-100461 L-103840,-100353 L-103732,-100190 L-103694,-99999.8 L-103694,-99999.5 L-103693,-99999.2 L-103693,-99999.1 L-103693,-99999 L-64115.5,-99999 L-63665.3,-99999 L-63665,-99999.1 L-63664.7,-99999.2 L-63664.5,-99999.5 L-63664.3,-99999.8 L-63626.4,-100190 L-63518.1,-100353 L-63355.9,-100461 L-63164.4,-100499 L-63065.4,-100499 L-62116.6,-100499 L-61925.2,-100461 L-61763,-100353 L-61654.6,-100190 L-61616.7,-99999.8 L-61616.6,-99999.5 L-61616.4,-99999.2 L-61616.1,-99999.1 L-61615.7,-99999 L-22538.3,-99999 L-22538,-99999.1 L-22537.7,-99999.2 L-22537.4,-99999.5 L-22537.3,-99999.8 L-22499.4,-100190 L-22391,-100353 L-22228.8,-100461 L-22037.4,-100499 L-21247,-100499 L-21246.7,-100499 L-21246.4,-100499 L-21228.9,-100511 L-21038.3,-100549 L-21037.9,-100549 L-21037.6,-100549 L-21037.5,-100550 L-21037.5,-101000 L-21037.6,-101000 L-21037.8,-101001 L-21038.1,-101001 L-21038.4,-101001 L-21038.7,-101001 L-21421.4,-100925 L-21421.7,-100925 L-21529.6,-100853 L-42075.9,-136440 L-21037.9,-172879 L21037.9,-172879 L42075.9,-136440"/>
</g>

<g fill="none" stroke="#000000" stroke-opacity="1" stroke-width="1" stroke-linecap="square" stroke-linejoin="bevel" transform="matrix(1,0,0,-1,127232,73881.1)"
font-family="MS Shell Dlg 2" font-size="10.3125" font-weight="400" font-style="normal" 
>
</g>

<g fill="none" stroke="#000000" stroke-opacity="1" stroke-width="1" stroke-linecap="square" stroke-linejoin="bevel" transform="matrix(1,0,0,-1,127232,73881.1)"
font-family="MS Shell Dlg 2" font-size="10.3125" font-weight="400" font-style="normal" 
>
</g>

<g fill="#ae5151" fill-opacity="0.2" stroke="#333333" stroke-opacity="1" stroke-width="1" stroke-linecap="round" stroke-linejoin="round" transform="matrix(1,0,0,-1,127232,73881.1)"
font-family="MS Shell Dlg 2" font-size="10.3125" font-weight="400" font-style="normal" 
>
<path vector-effect="non-scaling-stroke" fill-rule="evenodd" d="M64116.5,-59960.2 L64116.4,-59960.5 L64116.2,-59960.9 L64115.9,-59961.1 L64115.5,-59961.2 L63665.3,-59961.2 L63665,-59961.1 L63664.7,-59960.9 L63664.5,-59960.7 L63664.3,-59960.4 L63626.4,-59769.8 L63518.1,-59607.6 L63355.9,-59499.2 L63164.4,-59461.2 L63065.4,-59461.2 L62116.6,-59461.2 L62115.7,-59461.3 L62115.4,-59461.3 L62115,-59461.2 L62114.8,-59461 L62114.6,-59460.7 L62114.5,-59460.4 L62114.5,-40539.6 L62114.6,-40539.2 L62114.9,-40538.9 L62115.3,-40538.7 L62115.7,-40538.7 L62116.6,-40538.8 L63065.4,-40538.8 L63164.4,-40538.8 L63355.8,-40500.8 L63518,-40392.4 L63626.4,-40230.2 L63664.3,-40039.6 L63664.5,-40039.2 L63664.9,-40038.9 L63665.3,-40038.8 L64115.5,-40038.8 L64115.9,-40038.9 L64116.2,-40039.1 L64116.4,-40039.5 L64116.5,-40039.8 L64116.5,-59960.2"/>
</g>

<g fill="none" stroke="#000000" stroke-opacity="1" stroke-width="1" stroke-linecap="square" stroke-linejoin="bevel" transform="matrix(1,0,0,-1,127232,73881.1)"
font-family="MS Shell Dlg 2" font-size="10.3125" font-weight="400" font-style="normal" 
>
</g>

<g fill="none" stroke="#000000" stroke-opacity="1" stroke-width="1" stroke-linecap="square" stroke-linejoin="bevel" transform="matrix(1,0,0,-1,127232,73881.1)"
font-family="MS Shell Dlg 2" font-size="10.3125" font-weight="400" font-style="normal" 
>
</g>

<g fill="#333333" fill-opacity="0.2" stroke="#333333" stroke-opacity="1" stroke-width="1" stroke-linecap="round" stroke-linejoin="round" transform="matrix(1,0,0,-1,127232,73881.1)"
font-family="MS Shell Dlg 2" font-size="10.3125" font-weight="400" font-style="normal" 
>
<path vector-effect="non-scaling-stroke" fill-rule="evenodd" d="M-104644,-40039.6 L-104644,-40039.2 L-104643,-40038.9 L-104643,-40038.8 L-104193,-40038.8 L-104192,-40038.9 L-104192,-40039.1 L-104192,-40039.5 L-104192,-40039.8 L-104192,-59960.2 L-104192,-59960.5 L-104192,-59960.9 L-104192,-59961.1 L-104193,-59961.2 L-104643,-59961.2 L-104643,-59961.1 L-104644,-59960.8 L-104644,-59960.4 L-104682,-59769.8 L-104790,-59607.6 L-104952,-59499.2 L-105144,-59461.2 L-105243,-59461.2 L-106191,-59461.2 L-106192,-59461.3 L-106193,-59461.3 L-106193,-59461.1 L-106193,-59460.8 L-106194,-59460.4 L-106194,-40539.6 L-106193,-40539.2 L-106193,-40538.9 L-106193,-40538.7 L-106192,-40538.7 L-106191,-40538.8 L-105243,-40538.8 L-105144,-40538.8 L-104952,-40500.8 L-104790,-40392.4 L-104682,-40230.2 L-104644,-40039.6"/>
</g>

<g fill="none" stroke="#000000" stroke-opacity="1" stroke-width="1" stroke-linecap="square" stroke-linejoin="bevel" transform="matrix(1,0,0,-1,127232,73881.1)"
font-family="MS Shell Dlg 2" font-size="10.3125" font-weight="400" font-style="normal" 
>
</g>

<g fill="none" stroke="#000000" stroke-opacity="1" stroke-width="1" stroke-linecap="square" stroke-linejoin="bevel" transform="matrix(1,0,0,-1,127232,73881.1)"
font-family="MS Shell Dlg 2" font-size="10.3125" font-weight="400" font-style="normal" 
>
</g>

<g fill="#333333" fill-opacity="0.2" stroke="#333333" stroke-opacity="1" stroke-width="1" stroke-linecap="round" stroke-linejoin="round" transform="matrix(1,0,0,-1,127232,73881.1)"
font-family="MS Shell Dlg 2" font-size="10.3125" font-weight="400" font-style="normal" 
>
<path vector-effect="non-scaling-stroke" fill-rule="evenodd" d="M4191.13,-548.834 L4191.55,-549.021 L4191.83,-549.372 L4191.94,-549.815 L4191.94,-1000 L4191.86,-1000.38 L4191.64,-1000.71 L4191.32,-1000.92 L4190.94,-1001 L-4190.94,-1001 L-4191.32,-1000.92 L-4191.64,-1000.71 L-4191.86,-1000.38 L-4191.94,-1000 L-4191.94,-549.801 L-4191.83,-549.359 L-4191.55,-549.008 L-4191.13,-548.82 L-4000.6,-510.922 L-3838.4,-402.54 L-3730.02,-240.334 L-3691.94,-48.9015 L-3691.94,50.1414 L-3691.94,998.902 L-3692.12,999.805 L-3692.12,1000.16 L-3692.01,1000.49 L-3691.79,1000.76 L-3691.48,1000.94 L-3691.14,1001 L3691.14,1001 L3691.56,1000.9 L3691.91,1000.63 L3692.11,1000.24 L3692.12,999.805 L3691.94,998.902 L3691.94,50.1414 L3691.94,-48.9015 L3730.01,-240.318 L3838.37,-402.515 L4000.56,-510.902 L4191.13,-548.834"/>
</g>

<g fill="none" stroke="#000000" stroke-opacity="1" stroke-width="1" stroke-linecap="square" stroke-linejoin="bevel" transform="matrix(1,0,0,-1,127232,73881.1)"
font-family="MS Shell Dlg 2" font-size="10.3125" font-weight="400" font-style="normal" 
>
</g>

<g fill="none" stroke="#000000" stroke-opacity="1" stroke-width="1" stroke-linecap="square" stroke-linejoin="bevel" transform="matrix(1,0,0,-1,127232,73881.1)"
font-family="MS Shell Dlg 2" font-size="10.3125" font-weight="400" font-style="normal" 
>
</g>

<g fill="#333333" fill-opacity="0.2" stroke="#333333" stroke-opacity="1" stroke-width="1" stroke-linecap="round" stroke-linejoin="round" transform="matrix(1,0,0,-1,127232,73881.1)"
font-family="MS Shell Dlg 2" font-size="10.3125" font-weight="400" font-style="normal" 
>
<path vector-effect="non-scaling-stroke" fill-rule="evenodd" d="M-62566.7,-40039.6 L-62566.5,-40039.2 L-62566.2,-40038.9 L-62565.7,-40038.8 L-62115.5,-40038.8 L-62115.1,-40038.9 L-62114.8,-40039.1 L-62114.6,-40039.5 L-62114.5,-40039.8 L-62114.5,-59960.2 L-62114.6,-59960.5 L-62114.8,-59960.9 L-62115.1,-59961.1 L-62115.5,-59961.2 L-62565.7,-59961.2 L-62566.1,-59961.1 L-62566.4,-59960.9 L-62566.6,-59960.7 L-62566.7,-59960.4 L-62604.6,-59769.8 L-62713,-59607.6 L-62875.2,-59499.2 L-63066.6,-59461.2 L-63165.7,-59461.2 L-64114.4,-59461.2 L-64115.3,-59461.3 L-64115.7,-59461.3 L-64116,-59461.2 L-64116.3,-59461 L-64116.5,-59460.7 L-64116.5,-59460.4 L-64116.5,-40539.6 L-64116.4,-40539.2 L-64116.2,-40538.9 L-64115.8,-40538.7 L-64115.3,-40538.7 L-64114.4,-40538.8 L-63165.7,-40538.8 L-63066.6,-40538.8 L-62875.2,-40500.8 L-62713,-40392.4 L-62604.6,-40230.2 L-62566.7,-40039.6"/>
</g>

<g fill="none" stroke="#000000" stroke-opacity="1" stroke-width="1" stroke-linecap="square" stroke-linejoin="bevel" transform="matrix(1,0,0,-1,127232,73881.1)"
font-family="MS Shell Dlg 2" font-size="10.3125" font-weight="400" font-style="normal" 
>
</g>

<g fill="none" stroke="#000000" stroke-opacity="1" stroke-width="1" stroke-linecap="square" stroke-linejoin="bevel" transform="matrix(1,0,0,-1,127232,73881.1)"
font-family="MS Shell Dlg 2" font-size="10.3125" font-weight="400" font-style="normal" 
>
</g>

<g fill="#333333" fill-opacity="0.2" stroke="#333333" stroke-opacity="1" stroke-width="1" stroke-linecap="round" stroke-linejoin="round" transform="matrix(1,0,0,-1,127232,73881.1)"
font-family="MS Shell Dlg 2" font-size="10.3125" font-weight="400" font-style="normal" 
>
<path vector-effect="non-scaling-stroke" fill-rule="evenodd" d="M-4191.13,-99451.2 L-4191.55,-99451 L-4191.83,-99450.6 L-4191.94,-99450.2 L-4191.94,-99000 L-4191.86,-98999.6 L-4191.64,-98999.3 L-4191.32,-98999.1 L-4190.94,-98999 L4190.94,-98999 L4191.32,-98999.1 L4191.64,-98999.3 L4191.86,-98999.6 L4191.94,-99000 L4191.94,-99450.2 L4191.83,-99450.6 L4191.55,-99451 L4191.13,-99451.2 L4000.6,-99489.1 L3838.4,-99597.5 L3730.02,-99759.7 L3691.94,-99951.1 L3691.94,-100050 L3691.94,-100999 L3692.12,-101000 L3692.11,-101000 L3691.91,-101001 L3691.56,-101001 L3691.14,-101001 L-3691.14,-101001 L-3691.56,-101001 L-3691.91,-101001 L-3692.11,-101000 L-3692.12,-101000 L-3691.94,-100999 L-3691.94,-100050 L-3691.94,-99951.1 L-3730.01,-99759.7 L-3838.37,-99597.5 L-4000.56,-99489.1 L-4191.13,-99451.2"/>
</g>

<g fill="none" stroke="#000000" stroke-opacity="1" stroke-width="1" stroke-linecap="square" stroke-linejoin="bevel" transform="matrix(1,0,0,-1,127232,73881.1)"
font-family="MS Shell Dlg 2" font-size="10.3125" font-weight="400" font-style="normal" 
>
</g>

<g fill="none" stroke="#000000" stroke-opacity="1" stroke-width="1" stroke-linecap="square" stroke-linejoin="bevel" transform="matrix(1,0,0,-1,127232,73881.1)"
font-family="MS Shell Dlg 2" font-size="10.3125" font-weight="400" font-style="normal" 
>
</g>

<g fill="#333333" fill-opacity="0.2" stroke="#333333" stroke-opacity="1" stroke-width="1" stroke-linecap="round" stroke-linejoin="round" transform="matrix(1,0,0,-1,127232,73881.1)"
font-family="MS Shell Dlg 2" font-size="10.3125" font-weight="400" font-style="normal" 
>
<path vector-effect="non-scaling-stroke" fill-rule="evenodd" d="M104192,-40039.8 L104192,-40039.5 L104192,-40039.1 L104192,-40038.9 L104193,-40038.8 L104643,-40038.8 L104643,-40038.9 L104644,-40039.2 L104644,-40039.6 L104682,-40230.2 L104790,-40392.4 L104952,-40500.8 L105144,-40538.8 L105243,-40538.8 L106191,-40538.8 L106192,-40538.7 L106193,-40538.7 L106193,-40538.8 L106193,-40539 L106193,-40539.3 L106194,-40539.6 L106194,-59460.4 L106193,-59460.8 L106193,-59461.1 L106193,-59461.3 L106192,-59461.3 L106191,-59461.2 L105243,-59461.2 L105144,-59461.2 L104952,-59499.2 L104790,-59607.6 L104682,-59769.8 L104644,-59960.4 L104644,-59960.8 L104643,-59961.1 L104643,-59961.2 L104193,-59961.2 L104192,-59961.1 L104192,-59960.9 L104192,-59960.5 L104192,-59960.2 L104192,-40039.8"/>
</g>

<g fill="none" stroke="#000000" stroke-opacity="1" stroke-width="1" stroke-linecap="square" stroke-linejoin="bevel" transform="matrix(1,0,0,-1,127232,73881.1)"
font-family="MS Shell Dlg 2" font-size="10.3125" font-weight="400" font-style="normal" 
>
</g>

<g fill="none" stroke="#000000" stroke-opacity="1" stroke-width="1" stroke-linecap="square" stroke-linejoin="bevel" transform="matrix(1,0,0,-1,127232,73881.1)"
font-family="MS Shell Dlg 2" font-size="10.3125" font-weight="400" font-style="normal" 
>
</g>

<g fill="#333333" fill-opacity="0.2" stroke="#333333" stroke-opacity="1" stroke-width="1" stroke-linecap="round" stroke-linejoin="round" transform="matrix(1,0,0,-1,127232,73881.1)"
font-family="MS Shell Dlg 2" font-size="10.3125" font-weight="400" font-style="normal" 
>
<path vector-effect="non-scaling-stroke" fill-rule="evenodd" d="M-21587.3,-59960.4 L-21587.5,-59960.8 L-21587.9,-59961.1 L-21588.3,-59961.2 L-22038.5,-59961.2 L-22038.9,-59961.1 L-22039.2,-59960.9 L-22039.4,-59960.5 L-22039.5,-59960.2 L-22039.5,-40039.8 L-22039.4,-40039.5 L-22039.2,-40039.1 L-22038.9,-40038.9 L-22038.5,-40038.8 L-21588.3,-40038.8 L-21587.9,-40038.9 L-21587.5,-40039.2 L-21587.3,-40039.6 L-21549.4,-40230.2 L-21441,-40392.4 L-21278.8,-40500.8 L-21087.4,-40538.8 L-20988.4,-40538.8 L-20039.6,-40538.8 L-20038.7,-40538.7 L-20038.3,-40538.7 L-20038,-40538.8 L-20037.7,-40539 L-20037.6,-40539.3 L-20037.5,-40539.6 L-20037.5,-59460.4 L-20037.6,-59460.8 L-20037.9,-59461.1 L-20038.3,-59461.3 L-20038.7,-59461.3 L-20039.6,-59461.2 L-20988.4,-59461.2 L-21087.4,-59461.2 L-21278.8,-59499.2 L-21441,-59607.6 L-21549.4,-59769.8 L-21587.3,-59960.4"/>
</g>

<g fill="none" stroke="#000000" stroke-opacity="1" stroke-width="1" stroke-linecap="square" stroke-linejoin="bevel" transform="matrix(1,0,0,-1,127232,73881.1)"
font-family="MS Shell Dlg 2" font-size="10.3125" font-weight="400" font-style="normal" 
>
</g>

<g fill="none" stroke="#000000" stroke-opacity="1" stroke-width="1" stroke-linecap="square" stroke-linejoin="bevel" transform="matrix(1,0,0,-1,127232,73881.1)"
font-family="MS Shell Dlg 2" font-size="10.3125" font-weight="400" font-style="normal" 
>
</g>

<g fill="#333333" fill-opacity="0.2" stroke="#333333" stroke-opacity="1" stroke-width="1" stroke-linecap="round" stroke-linejoin="round" transform="matrix(1,0,0,-1,127232,73881.1)"
font-family="MS Shell Dlg 2" font-size="10.3125" font-weight="400" font-style="normal" 
>
<path vector-effect="non-scaling-stroke" fill-rule="evenodd" d="M20037.5,-40039.8 L20037.6,-40039.5 L20037.8,-40039.1 L20038.1,-40038.9 L20038.5,-40038.8 L20488.7,-40038.8 L20489.1,-40038.9 L20489.5,-40039.2 L20489.7,-40039.6 L20527.6,-40230.2 L20636,-40392.4 L20798.2,-40500.8 L20989.6,-40538.8 L21088.6,-40538.8 L22037.4,-40538.8 L22038.3,-40538.7 L22038.7,-40538.7 L22039,-40538.8 L22039.3,-40539 L22039.4,-40539.3 L22039.5,-40539.6 L22039.5,-59460.4 L22039.4,-59460.8 L22039.1,-59461.1 L22038.7,-59461.3 L22038.3,-59461.3 L22037.4,-59461.2 L21088.6,-59461.2 L20989.6,-59461.2 L20798.2,-59499.2 L20636,-59607.6 L20527.6,-59769.8 L20489.7,-59960.4 L20489.5,-59960.8 L20489.1,-59961.1 L20488.7,-59961.2 L20038.5,-59961.2 L20038.1,-59961.1 L20037.8,-59960.9 L20037.6,-59960.5 L20037.5,-59960.2 L20037.5,-40039.8"/>
</g>

<g fill="none" stroke="#000000" stroke-opacity="1" stroke-width="1" stroke-linecap="square" stroke-linejoin="bevel" transform="matrix(1,0,0,-1,127232,73881.1)"
font-family="MS Shell Dlg 2" font-size="10.3125" font-weight="400" font-style="normal" 
>
</g>

<g fill="none" stroke="#000000" stroke-opacity="1" stroke-width="1" stroke-linecap="square" stroke-linejoin="bevel" transform="matrix(1,0,0,-1,127232,73881.1)"
font-family="MS Shell Dlg 2" font-size="10.3125" font-weight="400" font-style="normal" 
>
</g>

<g fill="#333333" fill-opacity="0.2" stroke="#333333" stroke-opacity="1" stroke-width="1" stroke-linecap="round" stroke-linejoin="round" transform="matrix(1,0,0,-1,127232,73881.1)"
font-family="MS Shell Dlg 2" font-size="10.3125" font-weight="400" font-style="normal" 
>
<path vector-effect="non-scaling-stroke" fill-rule="evenodd" d="M-22772.3,-101001 L-126231,-101001 L-126231,-101001 L-126614,-100925 L-126614,-100925 L-126939,-100708 L-126939,-100708 L-127156,-100383 L-127156,-100383 L-127232,-100000 L-127232,-100000 L-127232,0 L-127232,0.19509 L-127156,382.879 L-127156,383.239 L-126939,707.662 L-126939,707.938 L-126614,924.711 L-126614,924.86 L-126231,1000.98 L-126231,1001 L-22772.3,1001 L-42943.9,35939.3 L-42944,35939.4 L-43062.8,36265.8 L-43062.8,36266.1 L-43062.8,36613.4 L-43062.8,36613.8 L-42944,36940.1 L-42943.9,36940.3 L-21905.4,73380 L-21905.3,73380.2 L-21682.1,73646.2 L-21681.8,73646.4 L-21381,73820.1 L-21380.7,73820.2 L-21038.7,73880.5 L-21038.5,73880.5 L21038.5,73880.5 L21038.7,73880.5 L21380.7,73820.2 L21381,73820.1 L21681.8,73646.4 L21682.1,73646.2 L21905.3,73380.2 L21905.4,73380 L42943.9,36940.3 L42944,36940.1 L43062.8,36613.8 L43062.8,36613.4 L43062.8,36266.1 L43062.8,36265.8 L42944,35939.4 L42943.9,35939.3 L22772.3,1001 L126231,1001 L126231,1000.98 L126614,924.86 L126614,924.711 L126939,707.938 L126939,707.662 L127156,383.239 L127156,382.879 L127232,0.19509 L127232,0 L127232,-100000 L127232,-100000 L127156,-100383 L127156,-100383 L126939,-100708 L126939,-100708 L126614,-100925 L126614,-100925 L126231,-101001 L126231,-101001 L22772.3,-101001 L42943.9,-135939 L42944,-135939 L43062.8,-136266 L43062.8,-136266 L43062.8,-136613 L43062.8,-136614 L42944,-136940 L42943.9,-136940 L21905.4,-173380 L21905.3,-173380 L21682.1,-173646 L21681.8,-173646 L21381,-173820 L21380.7,-173820 L21038.7,-173881 L21038.5,-173881 L-21038.5,-173881 L-21038.7,-173881 L-21380.7,-173820 L-21381,-173820 L-21681.8,-173646 L-21682.1,-173646 L-21905.3,-173380 L-21905.4,-173380 L-42943.9,-136940 L-42944,-136940 L-43062.8,-136614 L-43062.8,-136613 L-43062.8,-136266 L-43062.8,-136266 L-42944,-135939 L-42943.9,-135939 L-22772.3,-101001 M42075.9,-136440 L21529.6,-100853 L21421.7,-100925 L21421.4,-100925 L21038.7,-101001 L21038.5,-101001 L21038.1,-101001 L21037.8,-101001 L21037.6,-101000 L21037.5,-101000 L21037.5,-100550 L21037.6,-100549 L21037.7,-100549 L21038,-100549 L21038.3,-100549 L21226.5,-100512 L21387.5,-100406 L21409.9,-100373 L21410.1,-100373 L21441,-100353 L21549.4,-100190 L21587.3,-99999.8 L21587.5,-99999.4 L21587.9,-99999.1 L21588.3,-99999 L22038.5,-99999 L62065.7,-99999 L62115.5,-99999 L62565.7,-99999 L62566.1,-99999.1 L62566.4,-99999.2 L62566.6,-99999.5 L62566.7,-99999.8 L62604.6,-100190 L62713,-100353 L62875.2,-100461 L63066.6,-100499 L63165.7,-100499 L64114.4,-100499 L64305.9,-100461 L64468.1,-100353 L64576.4,-100190 L64614.3,-99999.8 L64614.5,-99999.5 L64614.7,-99999.2 L64615,-99999.1 L64615.3,-99999 L103693,-99999 L103693,-99999.1 L103693,-99999.2 L103694,-99999.5 L103694,-99999.8 L103732,-100190 L103840,-100353 L104002,-100461 L104194,-100499 L105142,-100499 L105241,-100499 L105433,-100461 L105595,-100353 L105703,-100190 L105741,-99999.8 L105742,-99999.4 L105742,-99999.1 L105742,-99999 L106193,-99999 L126230,-99999 L126230,-1 L106193,-1 L105742,-1 L105742,-0.89687 L105742,-0.60876 L105741,-0.19509 L105703,190.334 L105595,352.54 L105433,460.922 L105241,499 L105142,499 L104194,499 L104002,460.922 L103840,352.54 L103732,190.334 L103694,-0.19509 L103694,-0.5141 L103693,-0.77301 L103693,-0.94154 L103693,-1 L64615.3,-1 L64614.9,-0.89687 L64614.5,-0.60876 L64614.3,-0.19509 L64576.4,190.334 L64468.1,352.54 L64305.9,460.922 L64114.4,499 L63165.7,499 L63066.6,499 L62875.2,460.924 L62713,352.55 L62604.6,190.354 L62566.7,-0.19514 L62566.5,-0.60879 L62566.2,-0.89688 L62565.7,-1 L62115.5,-1 L22088.4,-1 L22038.5,-1 L21588.3,-1 L21588,-0.94133 L21587.7,-0.77222 L21587.5,-0.51249 L21587.3,-0.19264 L21550.4,188.023 L21444.6,348.987 L21412,371.358 L21411.7,371.627 L21391.1,402.515 L21228.9,510.902 L21038.3,548.834 L21037.9,549.021 L21037.6,549.372 L21037.5,549.815 L21037.5,1000 L21037.6,1000.38 L21037.8,1000.71 L21038.1,1000.92 L21038.5,1001 L21038.7,1000.98 L21421.4,924.86 L21421.7,924.711 L21529.6,852.632 L42075.9,36439.8 L21037.9,72878.5 L-21037.9,72878.5 L-42075.9,36439.8 L-21529.6,852.632 L-21421.7,924.711 L-21421.4,924.86 L-21038.7,1000.98 L-21038.3,1000.97 L-21037.9,1000.77 L-21037.6,1000.43 L-21037.5,1000 L-21037.5,549.804 L-21037.6,549.466 L-21037.7,549.168 L-21038,548.945 L-21038.3,548.822 L-21226.5,511.873 L-21245.9,499.164 L-21246.4,499 L-22037.4,499 L-22228.8,460.922 L-22391,352.54 L-22499.4,190.334 L-22537.3,-0.19509 L-22537.4,-0.5141 L-22537.7,-0.77301 L-22538,-0.94154 L-22538.3,-1 L-61615.7,-1 L-61616.2,-0.89687 L-61616.5,-0.60876 L-61616.7,-0.19509 L-61654.6,190.334 L-61763,352.54 L-61925.2,460.922 L-62116.6,499 L-63065.4,499 L-63164.4,499 L-63355.8,460.924 L-63518,352.55 L-63626.4,190.354 L-63664.3,-0.19514 L-63664.5,-0.60879 L-63664.9,-0.89688 L-63665.3,-1 L-64115.5,-1 L-103693,-1 L-103693,-0.94154 L-103693,-0.77301 L-103694,-0.5141 L-103694,-0.19509 L-103732,190.334 L-103840,352.54 L-104002,460.922 L-104194,499 L-105142,499 L-105241,499 L-105433,460.924 L-105595,352.55 L-105703,190.354 L-105741,-0.19514 L-105742,-0.60879 L-105742,-0.89688 L-105742,-1 L-106193,-1 L-126230,-1 L-126230,-99999 L-106193,-99999 L-105742,-99999 L-105742,-99999.1 L-105742,-99999.2 L-105741,-99999.5 L-105741,-99999.8 L-105703,-100190 L-105595,-100353 L-105433,-100461 L-105241,-100499 L-105142,-100499 L-104194,-100499 L-104002,-100461 L-103840,-100353 L-103732,-100190 L-103694,-99999.8 L-103694,-99999.5 L-103693,-99999.2 L-103693,-99999.1 L-103693,-99999 L-64115.5,-99999 L-63665.3,-99999 L-63665,-99999.1 L-63664.7,-99999.2 L-63664.5,-99999.5 L-63664.3,-99999.8 L-63626.4,-100190 L-63518.1,-100353 L-63355.9,-100461 L-63164.4,-100499 L-63065.4,-100499 L-62116.6,-100499 L-61925.2,-100461 L-61763,-100353 L-61654.6,-100190 L-61616.7,-99999.8 L-61616.6,-99999.5 L-61616.4,-99999.2 L-61616.1,-99999.1 L-61615.7,-99999 L-22538.3,-99999 L-22538,-99999.1 L-22537.7,-99999.2 L-22537.4,-99999.5 L-22537.3,-99999.8 L-22499.4,-100190 L-22391,-100353 L-22228.8,-100461 L-22037.4,-100499 L-21247,-100499 L-21246.7,-100499 L-21246.4,-100499 L-21228.9,-100511 L-21038.3,-100549 L-21037.9,-100549 L-21037.6,-100549 L-21037.5,-100550 L-21037.5,-101000 L-21037.6,-101000 L-21037.8,-101001 L-21038.1,-101001 L-21038.4,-101001 L-21038.7,-101001 L-21421.4,-100925 L-21421.7,-100925 L-21529.6,-100853 L-42075.9,-136440 L-21037.9,-172879 L21037.9,-172879 L42075.9,-136440"/>
</g>

<g fill="none" stroke="#000000" stroke-opacity="1" stroke-width="1" stroke-linecap="square" stroke-linejoin="bevel" transform="matrix(1,0,0,-1,127232,73881.1)"
font-family="MS Shell Dlg 2" font-size="10.3125" font-weight="400" font-style="normal" 
>
</g>

<g fill="none" stroke="#000000" stroke-opacity="1" stroke-width="1" stroke-linecap="square" stroke-linejoin="bevel" transform="matrix(1,0,0,-1,127232,73881.1)"
font-family="MS Shell Dlg 2" font-size="10.3125" font-weight="400" font-style="normal" 
>
</g>

<g fill="#333333" fill-opacity="0.2" stroke="#333333" stroke-opacity="1" stroke-width="1" stroke-linecap="round" stroke-linejoin="round" transform="matrix(1,0,0,-1,127232,73881.1)"
font-family="MS Shell Dlg 2" font-size="10.3125" font-weight="400" font-style="normal" 
>
<path vector-effect="non-scaling-stroke" fill-rule="evenodd" d="M64116.5,-59960.2 L64116.4,-59960.5 L64116.2,-59960.9 L64115.9,-59961.1 L64115.5,-59961.2 L63665.3,-59961.2 L63665,-59961.1 L63664.7,-59960.9 L63664.5,-59960.7 L63664.3,-59960.4 L63626.4,-59769.8 L63518.1,-59607.6 L63355.9,-59499.2 L63164.4,-59461.2 L63065.4,-59461.2 L62116.6,-59461.2 L62115.7,-59461.3 L62115.4,-59461.3 L62115,-59461.2 L62114.8,-59461 L62114.6,-59460.7 L62114.5,-59460.4 L62114.5,-40539.6 L62114.6,-40539.2 L62114.9,-40538.9 L62115.3,-40538.7 L62115.7,-40538.7 L62116.6,-40538.8 L63065.4,-40538.8 L63164.4,-40538.8 L63355.8,-40500.8 L63518,-40392.4 L63626.4,-40230.2 L63664.3,-40039.6 L63664.5,-40039.2 L63664.9,-40038.9 L63665.3,-40038.8 L64115.5,-40038.8 L64115.9,-40038.9 L64116.2,-40039.1 L64116.4,-40039.5 L64116.5,-40039.8 L64116.5,-59960.2"/>
</g>

<g fill="none" stroke="#000000" stroke-opacity="1" stroke-width="1" stroke-linecap="square" stroke-linejoin="bevel" transform="matrix(1,0,0,-1,127232,73881.1)"
font-family="MS Shell Dlg 2" font-size="10.3125" font-weight="400" font-style="normal" 
>
</g>

<g fill="none" stroke="#000000" stroke-opacity="1" stroke-width="1" stroke-linecap="square" stroke-linejoin="bevel" transform="matrix(1,0,0,-1,0,247762)"
font-family="MS Shell Dlg 2" font-size="10.3125" font-weight="400" font-style="normal" 
>
</g>
</g>
</svg>
