<?xml version="1.0" encoding="UTF-8" standalone="no"?>
<svg width="74637.3mm" height="72745.6mm"
 xmlns="http://www.w3.org/2000/svg" xmlns:xlink="http://www.w3.org/1999/xlink"  version="1.2" baseProfile="tiny">
<title>SVG Generator Example Drawing</title>
<desc>An SVG drawing created by the SVG Generator</desc>
<defs>
</defs>
<g fill="none" stroke="black" stroke-width="1" fill-rule="evenodd" stroke-linecap="square" stroke-linejoin="bevel" >

<g fill="none" stroke="#000000" stroke-opacity="1" stroke-width="1" stroke-linecap="square" stroke-linejoin="bevel" transform="matrix(1,0,0,-1,0,257760)"
font-family="MS Shell Dlg 2" font-size="10.3125" font-weight="400" font-style="normal" 
>
</g>

<g fill="none" stroke="#000000" stroke-opacity="1" stroke-width="1" stroke-linecap="square" stroke-linejoin="bevel" transform="matrix(1,0,0,-1,0,257760)"
font-family="MS Shell Dlg 2" font-size="10.3125" font-weight="400" font-style="normal" 
>
</g>

<g fill="none" stroke="#000000" stroke-opacity="1" stroke-width="1" stroke-linecap="square" stroke-linejoin="bevel" transform="matrix(1,0,0,-1,132232,78880.1)"
font-family="MS Shell Dlg 2" font-size="10.3125" font-weight="400" font-style="normal" 
>
</g>

<g fill="#333333" fill-opacity="0.2" stroke="#333333" stroke-opacity="1" stroke-width="1" stroke-linecap="round" stroke-linejoin="round" transform="matrix(1,0,0,-1,132232,78880.1)"
font-family="MS Shell Dlg 2" font-size="10.3125" font-weight="400" font-style="normal" 
>
<path vector-effect="non-scaling-stroke" fill-rule="evenodd" d="M-132231,-178880 L-132231,78879.5 L132231,78879.5 L132231,-178880 L-132231,-178880 M-106691,0 L-106193,0 L-106193,-20119.5 L-105243,-20119.5 L-105243,-20119.8 L-105243,-40039.6 L-105243,-40039.8 L-105741,-40039.8 L-105703,-40230.2 L-105595,-40392.4 L-105433,-40500.8 L-105241,-40538.8 L-105142,-40538.8 L-104194,-40538.8 L-104193,-40538.7 L-104193,-40538.7 L-104193,-19920.3 L-105142,-19920.3 L-105143,-19920 L-105143,-0.28172 L-105142,0 L-104644,0 L-104682,190.334 L-104790,352.54 L-104952,460.922 L-105144,499 L-105243,499 L-106191,499 L-106383,460.922 L-106545,352.54 L-106653,190.334 L-106691,0 M-105741,-59960.2 L-105243,-59960.2 L-105243,-59960.4 L-105243,-79880.2 L-105243,-79880.5 L-106193,-79880.5 L-106193,-100000 L-106691,-100000 L-106653,-100190 L-106545,-100353 L-106383,-100461 L-106191,-100499 L-105243,-100499 L-105144,-100499 L-104952,-100461 L-104790,-100353 L-104682,-100190 L-104644,-100000 L-105142,-100000 L-105143,-99999.7 L-105143,-80080 L-105142,-80079.7 L-104193,-80079.7 L-104193,-59461.3 L-104193,-59461.3 L-104194,-59461.2 L-105142,-59461.2 L-105241,-59461.2 L-105433,-59499.2 L-105595,-59607.6 L-105703,-59769.8 L-105741,-59960.2 M-64115.5,-100000 L-64614.3,-100000 L-64576.4,-100190 L-64468.1,-100353 L-64305.9,-100461 L-64114.4,-100499 L-63165.7,-100499 L-63066.6,-100499 L-62875.2,-100461 L-62713,-100353 L-62604.6,-100190 L-62566.7,-100000 L-63065.4,-100000 L-63065.5,-99999.7 L-63065.5,-80080 L-63065.4,-80079.7 L-62115.5,-80079.7 L-62115.5,-59461.3 L-62115.7,-59461.3 L-62116.6,-59461.2 L-63065.4,-59461.2 L-63164.4,-59461.2 L-63355.8,-59499.2 L-63518,-59607.6 L-63626.4,-59769.8 L-63664.3,-59960.2 L-63165.7,-59960.2 L-63165.5,-59960.4 L-63165.5,-79880.2 L-63165.7,-79880.5 L-64115.5,-79880.5 L-64115.5,-100000 M-64614.3,0 L-64115.5,0 L-64115.5,-20119.5 L-63165.7,-20119.5 L-63165.5,-20119.8 L-63165.5,-40039.6 L-63165.7,-40039.8 L-63664.3,-40039.8 L-63626.4,-40230.2 L-63518.1,-40392.4 L-63355.9,-40500.8 L-63164.4,-40538.8 L-63065.4,-40538.8 L-62116.6,-40538.8 L-62115.7,-40538.7 L-62115.5,-40538.7 L-62115.5,-19920.3 L-63065.4,-19920.3 L-63065.5,-19920 L-63065.5,-0.28172 L-63065.4,0 L-62566.7,0 L-62604.6,190.334 L-62713,352.54 L-62875.2,460.922 L-63066.6,499 L-63165.7,499 L-64114.4,499 L-64305.9,460.922 L-64468.1,352.54 L-64576.4,190.334 L-64614.3,0 M-21530,851.207 L-21537.5,864.293 L-21537.5,208.486 L-21537.5,208.195 L-21537.7,207.93 L-21549.4,190.354 L-21587.3,0 L-21088.6,0 L-21088.5,-0.28172 L-21088.5,-19920 L-21088.6,-19920.3 L-22038.5,-19920.3 L-22038.5,-40538.7 L-22038.3,-40538.7 L-22037.4,-40538.8 L-21088.6,-40538.8 L-20989.6,-40538.8 L-20798.2,-40500.8 L-20636,-40392.4 L-20527.6,-40230.2 L-20489.7,-40039.8 L-20988.4,-40039.8 L-20988.5,-40039.6 L-20988.5,-20119.8 L-20988.4,-20119.5 L-20038.5,-20119.5 L-20038.5,-1050 L-21038.4,-1050 L-21038.5,-1049.86 L-21038.5,-50.1414 L-21038.4,-50 L-12656.7,-50 L-12656.6,-50.1414 L-12656.6,-1000 L-3692.11,-1000 L-3692.12,-999.805 L-3691.94,-998.902 L-3691.94,-50.1414 L-3691.94,48.9015 L-3730.01,240.318 L-3838.37,402.515 L-4000.56,510.902 L-4190.94,548.795 L-4190.94,50.1414 L-4191.06,50 L-12572.7,50 L-12572.8,50.1414 L-12572.8,1000 L-21038.5,1000 L-21421.2,923.88 L-21530,851.207 M21537.5,864.293 L21530,851.207 L21421.2,923.88 L21038.5,1000 L12572.8,1000 L12572.8,50.1414 L12572.7,50 L4191.06,50 L4190.94,50.1414 L4190.94,548.782 L4000.6,510.922 L3838.4,402.54 L3730.02,240.334 L3691.94,48.9015 L3691.94,-50.1414 L3691.94,-998.902 L3692.12,-999.805 L3692.12,-1000 L12656.6,-1000 L12656.6,-50.1414 L12656.7,-50 L19988.5,-50 L19988.5,-0.28172 L19988.6,0 L20988.4,0 L20988.5,-0.28172 L20988.5,-50 L21038.4,-50 L21038.5,-50.1414 L21038.5,-1049.86 L21038.4,-1050 L20988.5,-1050 L20988.5,-19920 L20988.4,-19920.3 L20038.5,-19920.3 L20038.5,-40538.7 L20038.7,-40538.7 L20039.6,-40538.8 L20988.4,-40538.8 L21087.4,-40538.8 L21278.8,-40500.8 L21441,-40392.4 L21549.4,-40230.2 L21587.3,-40039.8 L21088.6,-40039.8 L21088.5,-40039.6 L21088.5,-20119.8 L21088.6,-20119.5 L22038.5,-20119.5 L22038.5,0 L22537.3,0 L22499.4,190.334 L22391,352.54 L22228.8,460.922 L22037.4,499 L21538.5,499 L21538.1,499.076 L21537.8,499.293 L21537.6,499.617 L21537.5,500 L21537.5,864.293 M-21537.5,-100864 L-21530,-100851 L-21421.2,-100924 L-21038.5,-101000 L-12572.8,-101000 L-12572.8,-100050 L-12572.7,-100050 L-4191.06,-100050 L-4190.94,-100050 L-4190.94,-100549 L-4000.6,-100511 L-3838.4,-100403 L-3730.02,-100240 L-3691.94,-100049 L-3691.94,-99949.9 L-3691.94,-99001.1 L-3692.12,-99000.2 L-3692.11,-99000 L-12656.6,-99000 L-12656.6,-99949.9 L-12656.7,-99950 L-21038.4,-99950 L-21038.5,-99949.9 L-21038.5,-98950.1 L-21038.4,-98950 L-20038.5,-98950 L-20038.5,-79880.5 L-20988.4,-79880.5 L-20988.5,-79880.2 L-20988.5,-59960.4 L-20988.4,-59960.2 L-20489.7,-59960.2 L-20527.6,-59769.8 L-20636,-59607.6 L-20798.2,-59499.2 L-20989.6,-59461.2 L-21088.6,-59461.2 L-22037.4,-59461.2 L-22038.3,-59461.3 L-22038.5,-59461.3 L-22038.5,-80079.7 L-21088.6,-80079.7 L-21088.5,-80080 L-21088.5,-99999.7 L-21088.6,-100000 L-21587.3,-100000 L-21550.4,-100188 L-21537.7,-100207 L-21537.5,-100208 L-21537.5,-100864 M4190.94,-100549 L4190.94,-100050 L4191.06,-100050 L12572.7,-100050 L12572.8,-100050 L12572.8,-101000 L21038.5,-101000 L21421.2,-100924 L21530,-100851 L21537.5,-100864 L21537.5,-100500 L21537.6,-100500 L21537.8,-100499 L21538.1,-100499 L21538.5,-100499 L22037.4,-100499 L22228.8,-100461 L22391,-100353 L22499.4,-100190 L22537.3,-100000 L22038.5,-100000 L22038.5,-79880.5 L21088.6,-79880.5 L21088.5,-79880.2 L21088.5,-59960.4 L21088.6,-59960.2 L21587.3,-59960.2 L21549.4,-59769.8 L21441,-59607.6 L21278.8,-59499.2 L21087.4,-59461.2 L20988.4,-59461.2 L20039.6,-59461.2 L20038.7,-59461.3 L20038.5,-59461.3 L20038.5,-80079.7 L20988.4,-80079.7 L20988.5,-80080 L20988.5,-98950 L21038.4,-98950 L21038.5,-98950.1 L21038.5,-99949.9 L21038.4,-99950 L20988.5,-99950 L20988.5,-99999.7 L20988.4,-100000 L19988.6,-100000 L19988.5,-99999.7 L19988.5,-99950 L12656.7,-99950 L12656.6,-99949.9 L12656.6,-99000 L3692.11,-99000 L3692.12,-99000.2 L3691.94,-99001.1 L3691.94,-99949.9 L3691.94,-100049 L3730.01,-100240 L3838.37,-100403 L4000.56,-100511 L4190.94,-100549 M104644,0 L105142,0 L105143,-0.28172 L105143,-19920 L105142,-19920.3 L104193,-19920.3 L104193,-40538.7 L104193,-40538.7 L104194,-40538.8 L105142,-40538.8 L105241,-40538.8 L105433,-40500.8 L105595,-40392.4 L105703,-40230.2 L105741,-40039.8 L105243,-40039.8 L105243,-40039.6 L105243,-20119.8 L105243,-20119.5 L106193,-20119.5 L106193,0 L106691,0 L106653,190.334 L106545,352.54 L106383,460.922 L106191,499 L105243,499 L105144,499 L104952,460.924 L104790,352.55 L104682,190.354 L104644,0 M104193,-59461.3 L104193,-80079.7 L105142,-80079.7 L105143,-80080 L105143,-99999.7 L105142,-100000 L104644,-100000 L104682,-100190 L104790,-100353 L104952,-100461 L105144,-100499 L105243,-100499 L106191,-100499 L106383,-100461 L106545,-100353 L106653,-100190 L106691,-100000 L106193,-100000 L106193,-79880.5 L105243,-79880.5 L105243,-79880.2 L105243,-59960.4 L105243,-59960.2 L105741,-59960.2 L105703,-59769.8 L105595,-59607.6 L105433,-59499.2 L105241,-59461.2 L105142,-59461.2 L104194,-59461.2 L104193,-59461.3 L104193,-59461.3 M63664.3,-100000 L63165.7,-100000 L63165.5,-99999.7 L63165.5,-80080 L63165.7,-80079.7 L64115.5,-80079.7 L64115.5,-59461.3 L64115.3,-59461.3 L64114.4,-59461.2 L63165.7,-59461.2 L63066.6,-59461.2 L62875.2,-59499.2 L62713,-59607.6 L62604.6,-59769.8 L62566.7,-59960.2 L63065.4,-59960.2 L63065.5,-59960.4 L63065.5,-79880.2 L63065.4,-79880.5 L62115.5,-79880.5 L62115.5,-100000 L61616.7,-100000 L61654.6,-100190 L61763,-100353 L61925.2,-100461 L62116.6,-100499 L63065.4,-100499 L63164.4,-100499 L63355.8,-100461 L63518,-100353 L63626.4,-100190 L63664.3,-100000 M64115.5,-40538.7 L64115.5,-19920.3 L63165.7,-19920.3 L63165.5,-19920 L63165.5,-0.28172 L63165.7,0 L63664.3,0 L63626.4,190.334 L63518.1,352.54 L63355.9,460.922 L63164.4,499 L63065.4,499 L62116.6,499 L61925.2,460.922 L61763,352.54 L61654.6,190.334 L61616.7,0 L62115.5,0 L62115.5,-20119.5 L63065.4,-20119.5 L63065.5,-20119.8 L63065.5,-40039.6 L63065.4,-40039.8 L62566.7,-40039.8 L62604.6,-40230.2 L62713,-40392.4 L62875.2,-40500.8 L63066.6,-40538.8 L63165.7,-40538.8 L64114.4,-40538.8 L64115.3,-40538.7 L64115.5,-40538.7"/>
</g>

<g fill="none" stroke="#000000" stroke-opacity="1" stroke-width="1" stroke-linecap="square" stroke-linejoin="bevel" transform="matrix(1,0,0,-1,132232,78880.1)"
font-family="MS Shell Dlg 2" font-size="10.3125" font-weight="400" font-style="normal" 
>
</g>

<g fill="none" stroke="#000000" stroke-opacity="1" stroke-width="1" stroke-linecap="square" stroke-linejoin="bevel" transform="matrix(1,0,0,-1,132232,78880.1)"
font-family="MS Shell Dlg 2" font-size="10.3125" font-weight="400" font-style="normal" 
>
</g>

<g fill="#ae5151" fill-opacity="0.2" stroke="#333333" stroke-opacity="1" stroke-width="1" stroke-linecap="round" stroke-linejoin="round" transform="matrix(1,0,0,-1,132232,78880.1)"
font-family="MS Shell Dlg 2" font-size="10.3125" font-weight="400" font-style="normal" 
>
<path vector-effect="non-scaling-stroke" fill-rule="evenodd" d="M-132231,-178880 L-132231,78879.5 L132231,78879.5 L132231,-178880 L-132231,-178880 M-106691,0 L-106193,0 L-106193,-20119.5 L-105243,-20119.5 L-105243,-20119.8 L-105243,-40039.6 L-105243,-40039.8 L-105741,-40039.8 L-105703,-40230.2 L-105595,-40392.4 L-105433,-40500.8 L-105241,-40538.8 L-105142,-40538.8 L-104194,-40538.8 L-104193,-40538.7 L-104193,-40538.7 L-104193,-19920.3 L-105142,-19920.3 L-105143,-19920 L-105143,-0.28172 L-105142,0 L-104644,0 L-104682,190.334 L-104790,352.54 L-104952,460.922 L-105144,499 L-105243,499 L-106191,499 L-106383,460.922 L-106545,352.54 L-106653,190.334 L-106691,0 M-105741,-59960.2 L-105243,-59960.2 L-105243,-59960.4 L-105243,-79880.2 L-105243,-79880.5 L-106193,-79880.5 L-106193,-100000 L-106691,-100000 L-106653,-100190 L-106545,-100353 L-106383,-100461 L-106191,-100499 L-105243,-100499 L-105144,-100499 L-104952,-100461 L-104790,-100353 L-104682,-100190 L-104644,-100000 L-105142,-100000 L-105143,-99999.7 L-105143,-80080 L-105142,-80079.7 L-104193,-80079.7 L-104193,-59461.3 L-104193,-59461.3 L-104194,-59461.2 L-105142,-59461.2 L-105241,-59461.2 L-105433,-59499.2 L-105595,-59607.6 L-105703,-59769.8 L-105741,-59960.2 M-64115.5,-100000 L-64614.3,-100000 L-64576.4,-100190 L-64468.1,-100353 L-64305.9,-100461 L-64114.4,-100499 L-63165.7,-100499 L-63066.6,-100499 L-62875.2,-100461 L-62713,-100353 L-62604.6,-100190 L-62566.7,-100000 L-63065.4,-100000 L-63065.5,-99999.7 L-63065.5,-80080 L-63065.4,-80079.7 L-62115.5,-80079.7 L-62115.5,-59461.3 L-62115.7,-59461.3 L-62116.6,-59461.2 L-63065.4,-59461.2 L-63164.4,-59461.2 L-63355.8,-59499.2 L-63518,-59607.6 L-63626.4,-59769.8 L-63664.3,-59960.2 L-63165.7,-59960.2 L-63165.5,-59960.4 L-63165.5,-79880.2 L-63165.7,-79880.5 L-64115.5,-79880.5 L-64115.5,-100000 M-64614.3,0 L-64115.5,0 L-64115.5,-20119.5 L-63165.7,-20119.5 L-63165.5,-20119.8 L-63165.5,-40039.6 L-63165.7,-40039.8 L-63664.3,-40039.8 L-63626.4,-40230.2 L-63518.1,-40392.4 L-63355.9,-40500.8 L-63164.4,-40538.8 L-63065.4,-40538.8 L-62116.6,-40538.8 L-62115.7,-40538.7 L-62115.5,-40538.7 L-62115.5,-19920.3 L-63065.4,-19920.3 L-63065.5,-19920 L-63065.5,-0.28172 L-63065.4,0 L-62566.7,0 L-62604.6,190.334 L-62713,352.54 L-62875.2,460.922 L-63066.6,499 L-63165.7,499 L-64114.4,499 L-64305.9,460.922 L-64468.1,352.54 L-64576.4,190.334 L-64614.3,0 M-21530,851.207 L-21537.5,864.293 L-21537.5,208.486 L-21537.5,208.195 L-21537.7,207.93 L-21549.4,190.354 L-21587.3,0 L-21088.6,0 L-21088.5,-0.28172 L-21088.5,-19920 L-21088.6,-19920.3 L-22038.5,-19920.3 L-22038.5,-40538.7 L-22038.3,-40538.7 L-22037.4,-40538.8 L-21088.6,-40538.8 L-20989.6,-40538.8 L-20798.2,-40500.8 L-20636,-40392.4 L-20527.6,-40230.2 L-20489.7,-40039.8 L-20988.4,-40039.8 L-20988.5,-40039.6 L-20988.5,-20119.8 L-20988.4,-20119.5 L-20038.5,-20119.5 L-20038.5,-1050 L-21038.4,-1050 L-21038.5,-1049.86 L-21038.5,-50.1414 L-21038.4,-50 L-12656.7,-50 L-12656.6,-50.1414 L-12656.6,-1000 L-3692.11,-1000 L-3692.12,-999.805 L-3691.94,-998.902 L-3691.94,-50.1414 L-3691.94,48.9015 L-3730.01,240.318 L-3838.37,402.515 L-4000.56,510.902 L-4190.94,548.795 L-4190.94,50.1414 L-4191.06,50 L-12572.7,50 L-12572.8,50.1414 L-12572.8,1000 L-21038.5,1000 L-21421.2,923.88 L-21530,851.207 M21537.5,864.293 L21530,851.207 L21421.2,923.88 L21038.5,1000 L12572.8,1000 L12572.8,50.1414 L12572.7,50 L4191.06,50 L4190.94,50.1414 L4190.94,548.782 L4000.6,510.922 L3838.4,402.54 L3730.02,240.334 L3691.94,48.9015 L3691.94,-50.1414 L3691.94,-998.902 L3692.12,-999.805 L3692.12,-1000 L12656.6,-1000 L12656.6,-50.1414 L12656.7,-50 L19988.5,-50 L19988.5,-0.28172 L19988.6,0 L20988.4,0 L20988.5,-0.28172 L20988.5,-50 L21038.4,-50 L21038.5,-50.1414 L21038.5,-1049.86 L21038.4,-1050 L20988.5,-1050 L20988.5,-19920 L20988.4,-19920.3 L20038.5,-19920.3 L20038.5,-40538.7 L20038.7,-40538.7 L20039.6,-40538.8 L20988.4,-40538.8 L21087.4,-40538.8 L21278.8,-40500.8 L21441,-40392.4 L21549.4,-40230.2 L21587.3,-40039.8 L21088.6,-40039.8 L21088.5,-40039.6 L21088.5,-20119.8 L21088.6,-20119.5 L22038.5,-20119.5 L22038.5,0 L22537.3,0 L22499.4,190.334 L22391,352.54 L22228.8,460.922 L22037.4,499 L21538.5,499 L21538.1,499.076 L21537.8,499.293 L21537.6,499.617 L21537.5,500 L21537.5,864.293 M-21537.5,-100864 L-21530,-100851 L-21421.2,-100924 L-21038.5,-101000 L-12572.8,-101000 L-12572.8,-100050 L-12572.7,-100050 L-4191.06,-100050 L-4190.94,-100050 L-4190.94,-100549 L-4000.6,-100511 L-3838.4,-100403 L-3730.02,-100240 L-3691.94,-100049 L-3691.94,-99949.9 L-3691.94,-99001.1 L-3692.12,-99000.2 L-3692.11,-99000 L-12656.6,-99000 L-12656.6,-99949.9 L-12656.7,-99950 L-21038.4,-99950 L-21038.5,-99949.9 L-21038.5,-98950.1 L-21038.4,-98950 L-20038.5,-98950 L-20038.5,-79880.5 L-20988.4,-79880.5 L-20988.5,-79880.2 L-20988.5,-59960.4 L-20988.4,-59960.2 L-20489.7,-59960.2 L-20527.6,-59769.8 L-20636,-59607.6 L-20798.2,-59499.2 L-20989.6,-59461.2 L-21088.6,-59461.2 L-22037.4,-59461.2 L-22038.3,-59461.3 L-22038.5,-59461.3 L-22038.5,-80079.7 L-21088.6,-80079.7 L-21088.5,-80080 L-21088.5,-99999.7 L-21088.6,-100000 L-21587.3,-100000 L-21550.4,-100188 L-21537.7,-100207 L-21537.5,-100208 L-21537.5,-100864 M4190.94,-100549 L4190.94,-100050 L4191.06,-100050 L12572.7,-100050 L12572.8,-100050 L12572.8,-101000 L21038.5,-101000 L21421.2,-100924 L21530,-100851 L21537.5,-100864 L21537.5,-100500 L21537.6,-100500 L21537.8,-100499 L21538.1,-100499 L21538.5,-100499 L22037.4,-100499 L22228.8,-100461 L22391,-100353 L22499.4,-100190 L22537.3,-100000 L22038.5,-100000 L22038.5,-79880.5 L21088.6,-79880.5 L21088.5,-79880.2 L21088.5,-59960.4 L21088.6,-59960.2 L21587.3,-59960.2 L21549.4,-59769.8 L21441,-59607.6 L21278.8,-59499.2 L21087.4,-59461.2 L20988.4,-59461.2 L20039.6,-59461.2 L20038.7,-59461.3 L20038.5,-59461.3 L20038.5,-80079.7 L20988.4,-80079.7 L20988.5,-80080 L20988.5,-98950 L21038.4,-98950 L21038.5,-98950.1 L21038.5,-99949.9 L21038.4,-99950 L20988.5,-99950 L20988.5,-99999.7 L20988.4,-100000 L19988.6,-100000 L19988.5,-99999.7 L19988.5,-99950 L12656.7,-99950 L12656.6,-99949.9 L12656.6,-99000 L3692.11,-99000 L3692.12,-99000.2 L3691.94,-99001.1 L3691.94,-99949.9 L3691.94,-100049 L3730.01,-100240 L3838.37,-100403 L4000.56,-100511 L4190.94,-100549 M104644,0 L105142,0 L105143,-0.28172 L105143,-19920 L105142,-19920.3 L104193,-19920.3 L104193,-40538.7 L104193,-40538.7 L104194,-40538.8 L105142,-40538.8 L105241,-40538.8 L105433,-40500.8 L105595,-40392.4 L105703,-40230.2 L105741,-40039.8 L105243,-40039.8 L105243,-40039.6 L105243,-20119.8 L105243,-20119.5 L106193,-20119.5 L106193,0 L106691,0 L106653,190.334 L106545,352.54 L106383,460.922 L106191,499 L105243,499 L105144,499 L104952,460.924 L104790,352.55 L104682,190.354 L104644,0 M104193,-59461.3 L104193,-80079.7 L105142,-80079.7 L105143,-80080 L105143,-99999.7 L105142,-100000 L104644,-100000 L104682,-100190 L104790,-100353 L104952,-100461 L105144,-100499 L105243,-100499 L106191,-100499 L106383,-100461 L106545,-100353 L106653,-100190 L106691,-100000 L106193,-100000 L106193,-79880.5 L105243,-79880.5 L105243,-79880.2 L105243,-59960.4 L105243,-59960.2 L105741,-59960.2 L105703,-59769.8 L105595,-59607.6 L105433,-59499.2 L105241,-59461.2 L105142,-59461.2 L104194,-59461.2 L104193,-59461.3 L104193,-59461.3 M63664.3,-100000 L63165.7,-100000 L63165.5,-99999.7 L63165.5,-80080 L63165.7,-80079.7 L64115.5,-80079.7 L64115.5,-59461.3 L64115.3,-59461.3 L64114.4,-59461.2 L63165.7,-59461.2 L63066.6,-59461.2 L62875.2,-59499.2 L62713,-59607.6 L62604.6,-59769.8 L62566.7,-59960.2 L63065.4,-59960.2 L63065.5,-59960.4 L63065.5,-79880.2 L63065.4,-79880.5 L62115.5,-79880.5 L62115.5,-100000 L61616.7,-100000 L61654.6,-100190 L61763,-100353 L61925.2,-100461 L62116.6,-100499 L63065.4,-100499 L63164.4,-100499 L63355.8,-100461 L63518,-100353 L63626.4,-100190 L63664.3,-100000 M64115.5,-40538.7 L64115.5,-19920.3 L63165.7,-19920.3 L63165.5,-19920 L63165.5,-0.28172 L63165.7,0 L63664.3,0 L63626.4,190.334 L63518.1,352.54 L63355.9,460.922 L63164.4,499 L63065.4,499 L62116.6,499 L61925.2,460.922 L61763,352.54 L61654.6,190.334 L61616.7,0 L62115.5,0 L62115.5,-20119.5 L63065.4,-20119.5 L63065.5,-20119.8 L63065.5,-40039.6 L63065.4,-40039.8 L62566.7,-40039.8 L62604.6,-40230.2 L62713,-40392.4 L62875.2,-40500.8 L63066.6,-40538.8 L63165.7,-40538.8 L64114.4,-40538.8 L64115.3,-40538.7 L64115.5,-40538.7"/>
</g>

<g fill="none" stroke="#000000" stroke-opacity="1" stroke-width="1" stroke-linecap="square" stroke-linejoin="bevel" transform="matrix(1,0,0,-1,132232,78880.1)"
font-family="MS Shell Dlg 2" font-size="10.3125" font-weight="400" font-style="normal" 
>
</g>

<g fill="none" stroke="#000000" stroke-opacity="1" stroke-width="1" stroke-linecap="square" stroke-linejoin="bevel" transform="matrix(1,0,0,-1,132232,78880.1)"
font-family="MS Shell Dlg 2" font-size="10.3125" font-weight="400" font-style="normal" 
>
</g>

<g fill="#ffff00" fill-opacity="0.2" stroke="#333333" stroke-opacity="1" stroke-width="1" stroke-linecap="round" stroke-linejoin="round" transform="matrix(1,0,0,-1,132232,78880.1)"
font-family="MS Shell Dlg 2" font-size="10.3125" font-weight="400" font-style="normal" 
>
<path vector-effect="non-scaling-stroke" fill-rule="evenodd" d="M-132231,-178880 L-132231,78879.5 L132231,78879.5 L132231,-178880 L-132231,-178880"/>
</g>

<g fill="none" stroke="#000000" stroke-opacity="1" stroke-width="1" stroke-linecap="square" stroke-linejoin="bevel" transform="matrix(1,0,0,-1,132232,78880.1)"
font-family="MS Shell Dlg 2" font-size="10.3125" font-weight="400" font-style="normal" 
>
</g>

<g fill="none" stroke="#000000" stroke-opacity="1" stroke-width="1" stroke-linecap="square" stroke-linejoin="bevel" transform="matrix(1,0,0,-1,132232,78880.1)"
font-family="MS Shell Dlg 2" font-size="10.3125" font-weight="400" font-style="normal" 
>
</g>

<g fill="#ae5151" fill-opacity="0.2" stroke="#333333" stroke-opacity="1" stroke-width="1" stroke-linecap="round" stroke-linejoin="round" transform="matrix(1,0,0,-1,132232,78880.1)"
font-family="MS Shell Dlg 2" font-size="10.3125" font-weight="400" font-style="normal" 
>
<path vector-effect="non-scaling-stroke" fill-rule="evenodd" d="M-132231,-178880 L-132231,78879.5 L132231,78879.5 L132231,-178880 L-132231,-178880 M105741,-100000 L105243,-100000 L105243,-99999.7 L105243,-80080 L105243,-80079.7 L106193,-80079.7 L106193,-59461.3 L106192,-59461.3 L106191,-59461.2 L105243,-59461.2 L105144,-59461.2 L104952,-59499.2 L104790,-59607.6 L104682,-59769.8 L104644,-59960.2 L105142,-59960.2 L105143,-59960.4 L105143,-79880.2 L105142,-79880.5 L104193,-79880.5 L104193,-100000 L103694,-100000 L103732,-100190 L103840,-100353 L104002,-100461 L104194,-100499 L105142,-100499 L105241,-100499 L105433,-100461 L105595,-100353 L105703,-100190 L105741,-100000 M106193,-40538.7 L106193,-19920.3 L105243,-19920.3 L105243,-19920 L105243,-0.28172 L105243,0 L105741,0 L105703,190.334 L105595,352.54 L105433,460.922 L105241,499 L105142,499 L104194,499 L104002,460.922 L103840,352.54 L103732,190.334 L103694,0 L104193,0 L104193,-20119.5 L105142,-20119.5 L105143,-20119.8 L105143,-40039.6 L105142,-40039.8 L104644,-40039.8 L104682,-40230.2 L104790,-40392.4 L104952,-40500.8 L105144,-40538.8 L105243,-40538.8 L106191,-40538.8 L106192,-40538.7 L106193,-40538.7 M21038.5,548.795 L21038.5,50.1414 L21038.4,50 L12656.7,50 L12656.6,50.1414 L12656.6,1000 L3692.11,1000 L3692.12,999.805 L3691.94,998.902 L3691.94,50.1414 L3691.94,-48.9015 L3730.01,-240.318 L3838.37,-402.515 L4000.56,-510.902 L4190.94,-548.795 L4190.94,-50.1414 L4191.06,-50 L12572.7,-50 L12572.8,-50.1414 L12572.8,-1000 L20038.5,-1000 L20038.5,-20119.5 L20988.4,-20119.5 L20988.5,-20119.8 L20988.5,-40039.6 L20988.4,-40039.8 L20489.7,-40039.8 L20527.6,-40230.2 L20636,-40392.4 L20798.2,-40500.8 L20989.6,-40538.8 L21088.6,-40538.8 L22037.4,-40538.8 L22038.3,-40538.7 L22038.5,-40538.7 L22038.5,-19920.3 L21088.6,-19920.3 L21088.5,-19920 L21088.5,-0.28172 L21088.6,0 L21587.3,0 L21550.4,188.023 L21444.6,348.987 L21412,371.358 L21411.7,371.627 L21391.1,402.515 L21228.9,510.902 L21038.5,548.795 M-3692.12,1000 L-12656.6,1000 L-12656.6,50.1414 L-12656.7,50 L-21038.4,50 L-21038.5,50.1414 L-21038.5,548.785 L-21226.5,511.873 L-21245.9,499.164 L-21246.4,499 L-22037.4,499 L-22228.8,460.922 L-22391,352.54 L-22499.4,190.334 L-22537.3,0 L-22038.5,0 L-22038.5,-20119.5 L-21088.6,-20119.5 L-21088.5,-20119.8 L-21088.5,-40039.6 L-21088.6,-40039.8 L-21587.3,-40039.8 L-21549.4,-40230.2 L-21441,-40392.4 L-21278.8,-40500.8 L-21087.4,-40538.8 L-20988.4,-40538.8 L-20039.6,-40538.8 L-20038.7,-40538.7 L-20038.5,-40538.7 L-20038.5,-19920.3 L-20988.4,-19920.3 L-20988.5,-19920 L-20988.5,-0.28172 L-20988.4,0 L-19988.6,0 L-19988.5,-0.28172 L-19988.5,-1000 L-12572.8,-1000 L-12572.8,-50.1414 L-12572.7,-50 L-4191.06,-50 L-4190.94,-50.1414 L-4190.94,-548.782 L-4000.6,-510.922 L-3838.4,-402.54 L-3730.02,-240.334 L-3691.94,-48.9015 L-3691.94,50.1414 L-3691.94,998.902 L-3692.12,999.805 L-3692.12,1000 M-21038.5,-100549 L-21038.5,-100050 L-21038.4,-100050 L-12656.7,-100050 L-12656.6,-100050 L-12656.6,-101000 L-3692.11,-101000 L-3692.12,-101000 L-3691.94,-100999 L-3691.94,-100050 L-3691.94,-99951.1 L-3730.01,-99759.7 L-3838.37,-99597.5 L-4000.56,-99489.1 L-4190.94,-99451.2 L-4190.94,-99949.9 L-4191.06,-99950 L-12572.7,-99950 L-12572.8,-99949.9 L-12572.8,-99000 L-19988.5,-99000 L-19988.5,-99999.7 L-19988.6,-100000 L-20988.4,-100000 L-20988.5,-99999.7 L-20988.5,-80080 L-20988.4,-80079.7 L-20038.5,-80079.7 L-20038.5,-59461.3 L-20038.7,-59461.3 L-20039.6,-59461.2 L-20988.4,-59461.2 L-21087.4,-59461.2 L-21278.8,-59499.2 L-21441,-59607.6 L-21549.4,-59769.8 L-21587.3,-59960.2 L-21088.6,-59960.2 L-21088.5,-59960.4 L-21088.5,-79880.2 L-21088.6,-79880.5 L-22038.5,-79880.5 L-22038.5,-100000 L-22537.3,-100000 L-22499.4,-100190 L-22391,-100353 L-22228.8,-100461 L-22037.4,-100499 L-21247,-100499 L-21246.7,-100499 L-21246.4,-100499 L-21228.9,-100511 L-21038.5,-100549 M3692.11,-101000 L12656.6,-101000 L12656.6,-100050 L12656.7,-100050 L21038.4,-100050 L21038.5,-100050 L21038.5,-100549 L21226.5,-100512 L21387.5,-100406 L21409.9,-100373 L21410.1,-100373 L21441,-100353 L21549.4,-100190 L21587.3,-100000 L21088.6,-100000 L21088.5,-99999.7 L21088.5,-80080 L21088.6,-80079.7 L22038.5,-80079.7 L22038.5,-59461.3 L22038.3,-59461.3 L22037.4,-59461.2 L21088.6,-59461.2 L20989.6,-59461.2 L20798.2,-59499.2 L20636,-59607.6 L20527.6,-59769.8 L20489.7,-59960.2 L20988.4,-59960.2 L20988.5,-59960.4 L20988.5,-79880.2 L20988.4,-79880.5 L20038.5,-79880.5 L20038.5,-99000 L12572.8,-99000 L12572.8,-99949.9 L12572.7,-99950 L4191.06,-99950 L4190.94,-99949.9 L4190.94,-99451.2 L4000.6,-99489.1 L3838.4,-99597.5 L3730.02,-99759.7 L3691.94,-99951.1 L3691.94,-100050 L3691.94,-100999 L3692.12,-101000 L3692.11,-101000 M-105741,0 L-105243,0 L-105243,-0.28172 L-105243,-19920 L-105243,-19920.3 L-106193,-19920.3 L-106193,-40538.7 L-106192,-40538.7 L-106191,-40538.8 L-105243,-40538.8 L-105144,-40538.8 L-104952,-40500.8 L-104790,-40392.4 L-104682,-40230.2 L-104644,-40039.8 L-105142,-40039.8 L-105143,-40039.6 L-105143,-20119.8 L-105142,-20119.5 L-104193,-20119.5 L-104193,0 L-103694,0 L-103732,190.334 L-103840,352.54 L-104002,460.922 L-104194,499 L-105142,499 L-105241,499 L-105433,460.924 L-105595,352.55 L-105703,190.354 L-105741,0 M-106193,-59461.3 L-106193,-80079.7 L-105243,-80079.7 L-105243,-80080 L-105243,-99999.7 L-105243,-100000 L-105741,-100000 L-105703,-100190 L-105595,-100353 L-105433,-100461 L-105241,-100499 L-105142,-100499 L-104194,-100499 L-104002,-100461 L-103840,-100353 L-103732,-100190 L-103694,-100000 L-104193,-100000 L-104193,-79880.5 L-105142,-79880.5 L-105143,-79880.2 L-105143,-59960.4 L-105142,-59960.2 L-104644,-59960.2 L-104682,-59769.8 L-104790,-59607.6 L-104952,-59499.2 L-105144,-59461.2 L-105243,-59461.2 L-106191,-59461.2 L-106192,-59461.3 L-106193,-59461.3 M-63664.3,0 L-63165.7,0 L-63165.5,-0.28172 L-63165.5,-19920 L-63165.7,-19920.3 L-64115.5,-19920.3 L-64115.5,-40538.7 L-64115.3,-40538.7 L-64114.4,-40538.8 L-63165.7,-40538.8 L-63066.6,-40538.8 L-62875.2,-40500.8 L-62713,-40392.4 L-62604.6,-40230.2 L-62566.7,-40039.8 L-63065.4,-40039.8 L-63065.5,-40039.6 L-63065.5,-20119.8 L-63065.4,-20119.5 L-62115.5,-20119.5 L-62115.5,0 L-61616.7,0 L-61654.6,190.334 L-61763,352.54 L-61925.2,460.922 L-62116.6,499 L-63065.4,499 L-63164.4,499 L-63355.8,460.924 L-63518,352.55 L-63626.4,190.354 L-63664.3,0 M-64115.5,-59461.3 L-64115.5,-80079.7 L-63165.7,-80079.7 L-63165.5,-80080 L-63165.5,-99999.7 L-63165.7,-100000 L-63664.3,-100000 L-63626.4,-100190 L-63518.1,-100353 L-63355.9,-100461 L-63164.4,-100499 L-63065.4,-100499 L-62116.6,-100499 L-61925.2,-100461 L-61763,-100353 L-61654.6,-100190 L-61616.7,-100000 L-62115.5,-100000 L-62115.5,-79880.5 L-63065.4,-79880.5 L-63065.5,-79880.2 L-63065.5,-59960.4 L-63065.4,-59960.2 L-62566.7,-59960.2 L-62604.6,-59769.8 L-62713,-59607.6 L-62875.2,-59499.2 L-63066.6,-59461.2 L-63165.7,-59461.2 L-64114.4,-59461.2 L-64115.3,-59461.3 L-64115.5,-59461.3 M62566.7,0 L63065.4,0 L63065.5,-0.28172 L63065.5,-19920 L63065.4,-19920.3 L62115.5,-19920.3 L62115.5,-40538.7 L62115.7,-40538.7 L62116.6,-40538.8 L63065.4,-40538.8 L63164.4,-40538.8 L63355.8,-40500.8 L63518,-40392.4 L63626.4,-40230.2 L63664.3,-40039.8 L63165.7,-40039.8 L63165.5,-40039.6 L63165.5,-20119.8 L63165.7,-20119.5 L64115.5,-20119.5 L64115.5,0 L64614.3,0 L64576.4,190.334 L64468.1,352.54 L64305.9,460.922 L64114.4,499 L63165.7,499 L63066.6,499 L62875.2,460.924 L62713,352.55 L62604.6,190.354 L62566.7,0 M62115.5,-59461.3 L62115.5,-80079.7 L63065.4,-80079.7 L63065.5,-80080 L63065.5,-99999.7 L63065.4,-100000 L62566.7,-100000 L62604.6,-100190 L62713,-100353 L62875.2,-100461 L63066.6,-100499 L63165.7,-100499 L64114.4,-100499 L64305.9,-100461 L64468.1,-100353 L64576.4,-100190 L64614.3,-100000 L64115.5,-100000 L64115.5,-79880.5 L63165.7,-79880.5 L63165.5,-79880.2 L63165.5,-59960.4 L63165.7,-59960.2 L63664.3,-59960.2 L63626.4,-59769.8 L63518.1,-59607.6 L63355.9,-59499.2 L63164.4,-59461.2 L63065.4,-59461.2 L62116.6,-59461.2 L62115.7,-59461.3 L62115.5,-59461.3"/>
</g>

<g fill="none" stroke="#000000" stroke-opacity="1" stroke-width="1" stroke-linecap="square" stroke-linejoin="bevel" transform="matrix(1,0,0,-1,132232,78880.1)"
font-family="MS Shell Dlg 2" font-size="10.3125" font-weight="400" font-style="normal" 
>
</g>

<g fill="none" stroke="#000000" stroke-opacity="1" stroke-width="1" stroke-linecap="square" stroke-linejoin="bevel" transform="matrix(1,0,0,-1,132232,78880.1)"
font-family="MS Shell Dlg 2" font-size="10.3125" font-weight="400" font-style="normal" 
>
</g>

<g fill="#333333" fill-opacity="0.2" stroke="#333333" stroke-opacity="1" stroke-width="1" stroke-linecap="round" stroke-linejoin="round" transform="matrix(1,0,0,-1,132232,78880.1)"
font-family="MS Shell Dlg 2" font-size="10.3125" font-weight="400" font-style="normal" 
>
<path vector-effect="non-scaling-stroke" fill-rule="evenodd" d="M-132231,-178880 L-132231,78879.5 L132231,78879.5 L132231,-178880 L-132231,-178880 M105741,-100000 L105243,-100000 L105243,-99999.7 L105243,-80080 L105243,-80079.7 L106193,-80079.7 L106193,-59461.3 L106192,-59461.3 L106191,-59461.2 L105243,-59461.2 L105144,-59461.2 L104952,-59499.2 L104790,-59607.6 L104682,-59769.8 L104644,-59960.2 L105142,-59960.2 L105143,-59960.4 L105143,-79880.2 L105142,-79880.5 L104193,-79880.5 L104193,-100000 L103694,-100000 L103732,-100190 L103840,-100353 L104002,-100461 L104194,-100499 L105142,-100499 L105241,-100499 L105433,-100461 L105595,-100353 L105703,-100190 L105741,-100000 M106193,-40538.7 L106193,-19920.3 L105243,-19920.3 L105243,-19920 L105243,-0.28172 L105243,0 L105741,0 L105703,190.334 L105595,352.54 L105433,460.922 L105241,499 L105142,499 L104194,499 L104002,460.922 L103840,352.54 L103732,190.334 L103694,0 L104193,0 L104193,-20119.5 L105142,-20119.5 L105143,-20119.8 L105143,-40039.6 L105142,-40039.8 L104644,-40039.8 L104682,-40230.2 L104790,-40392.4 L104952,-40500.8 L105144,-40538.8 L105243,-40538.8 L106191,-40538.8 L106192,-40538.7 L106193,-40538.7 M21038.5,548.795 L21038.5,50.1414 L21038.4,50 L12656.7,50 L12656.6,50.1414 L12656.6,1000 L3692.11,1000 L3692.12,999.805 L3691.94,998.902 L3691.94,50.1414 L3691.94,-48.9015 L3730.01,-240.318 L3838.37,-402.515 L4000.56,-510.902 L4190.94,-548.795 L4190.94,-50.1414 L4191.06,-50 L12572.7,-50 L12572.8,-50.1414 L12572.8,-1000 L20038.5,-1000 L20038.5,-20119.5 L20988.4,-20119.5 L20988.5,-20119.8 L20988.5,-40039.6 L20988.4,-40039.8 L20489.7,-40039.8 L20527.6,-40230.2 L20636,-40392.4 L20798.2,-40500.8 L20989.6,-40538.8 L21088.6,-40538.8 L22037.4,-40538.8 L22038.3,-40538.7 L22038.5,-40538.7 L22038.5,-19920.3 L21088.6,-19920.3 L21088.5,-19920 L21088.5,-0.28172 L21088.6,0 L21587.3,0 L21550.4,188.023 L21444.6,348.987 L21412,371.358 L21411.7,371.627 L21391.1,402.515 L21228.9,510.902 L21038.5,548.795 M-3692.12,1000 L-12656.6,1000 L-12656.6,50.1414 L-12656.7,50 L-21038.4,50 L-21038.5,50.1414 L-21038.5,548.785 L-21226.5,511.873 L-21245.9,499.164 L-21246.4,499 L-22037.4,499 L-22228.8,460.922 L-22391,352.54 L-22499.4,190.334 L-22537.3,0 L-22038.5,0 L-22038.5,-20119.5 L-21088.6,-20119.5 L-21088.5,-20119.8 L-21088.5,-40039.6 L-21088.6,-40039.8 L-21587.3,-40039.8 L-21549.4,-40230.2 L-21441,-40392.4 L-21278.8,-40500.8 L-21087.4,-40538.8 L-20988.4,-40538.8 L-20039.6,-40538.8 L-20038.7,-40538.7 L-20038.5,-40538.7 L-20038.5,-19920.3 L-20988.4,-19920.3 L-20988.5,-19920 L-20988.5,-0.28172 L-20988.4,0 L-19988.6,0 L-19988.5,-0.28172 L-19988.5,-1000 L-12572.8,-1000 L-12572.8,-50.1414 L-12572.7,-50 L-4191.06,-50 L-4190.94,-50.1414 L-4190.94,-548.782 L-4000.6,-510.922 L-3838.4,-402.54 L-3730.02,-240.334 L-3691.94,-48.9015 L-3691.94,50.1414 L-3691.94,998.902 L-3692.12,999.805 L-3692.12,1000 M-21038.5,-100549 L-21038.5,-100050 L-21038.4,-100050 L-12656.7,-100050 L-12656.6,-100050 L-12656.6,-101000 L-3692.11,-101000 L-3692.12,-101000 L-3691.94,-100999 L-3691.94,-100050 L-3691.94,-99951.1 L-3730.01,-99759.7 L-3838.37,-99597.5 L-4000.56,-99489.1 L-4190.94,-99451.2 L-4190.94,-99949.9 L-4191.06,-99950 L-12572.7,-99950 L-12572.8,-99949.9 L-12572.8,-99000 L-19988.5,-99000 L-19988.5,-99999.7 L-19988.6,-100000 L-20988.4,-100000 L-20988.5,-99999.7 L-20988.5,-80080 L-20988.4,-80079.7 L-20038.5,-80079.7 L-20038.5,-59461.3 L-20038.7,-59461.3 L-20039.6,-59461.2 L-20988.4,-59461.2 L-21087.4,-59461.2 L-21278.8,-59499.2 L-21441,-59607.6 L-21549.4,-59769.8 L-21587.3,-59960.2 L-21088.6,-59960.2 L-21088.5,-59960.4 L-21088.5,-79880.2 L-21088.6,-79880.5 L-22038.5,-79880.5 L-22038.5,-100000 L-22537.3,-100000 L-22499.4,-100190 L-22391,-100353 L-22228.8,-100461 L-22037.4,-100499 L-21247,-100499 L-21246.7,-100499 L-21246.4,-100499 L-21228.9,-100511 L-21038.5,-100549 M3692.11,-101000 L12656.6,-101000 L12656.6,-100050 L12656.7,-100050 L21038.4,-100050 L21038.5,-100050 L21038.5,-100549 L21226.5,-100512 L21387.5,-100406 L21409.9,-100373 L21410.1,-100373 L21441,-100353 L21549.4,-100190 L21587.3,-100000 L21088.6,-100000 L21088.5,-99999.7 L21088.5,-80080 L21088.6,-80079.7 L22038.5,-80079.7 L22038.5,-59461.3 L22038.3,-59461.3 L22037.4,-59461.2 L21088.6,-59461.2 L20989.6,-59461.2 L20798.2,-59499.2 L20636,-59607.6 L20527.6,-59769.8 L20489.7,-59960.2 L20988.4,-59960.2 L20988.5,-59960.4 L20988.5,-79880.2 L20988.4,-79880.5 L20038.5,-79880.5 L20038.5,-99000 L12572.8,-99000 L12572.8,-99949.9 L12572.7,-99950 L4191.06,-99950 L4190.94,-99949.9 L4190.94,-99451.2 L4000.6,-99489.1 L3838.4,-99597.5 L3730.02,-99759.7 L3691.94,-99951.1 L3691.94,-100050 L3691.94,-100999 L3692.12,-101000 L3692.11,-101000 M-105741,0 L-105243,0 L-105243,-0.28172 L-105243,-19920 L-105243,-19920.3 L-106193,-19920.3 L-106193,-40538.7 L-106192,-40538.7 L-106191,-40538.8 L-105243,-40538.8 L-105144,-40538.8 L-104952,-40500.8 L-104790,-40392.4 L-104682,-40230.2 L-104644,-40039.8 L-105142,-40039.8 L-105143,-40039.6 L-105143,-20119.8 L-105142,-20119.5 L-104193,-20119.5 L-104193,0 L-103694,0 L-103732,190.334 L-103840,352.54 L-104002,460.922 L-104194,499 L-105142,499 L-105241,499 L-105433,460.924 L-105595,352.55 L-105703,190.354 L-105741,0 M-106193,-59461.3 L-106193,-80079.7 L-105243,-80079.7 L-105243,-80080 L-105243,-99999.7 L-105243,-100000 L-105741,-100000 L-105703,-100190 L-105595,-100353 L-105433,-100461 L-105241,-100499 L-105142,-100499 L-104194,-100499 L-104002,-100461 L-103840,-100353 L-103732,-100190 L-103694,-100000 L-104193,-100000 L-104193,-79880.5 L-105142,-79880.5 L-105143,-79880.2 L-105143,-59960.4 L-105142,-59960.2 L-104644,-59960.2 L-104682,-59769.8 L-104790,-59607.6 L-104952,-59499.2 L-105144,-59461.2 L-105243,-59461.2 L-106191,-59461.2 L-106192,-59461.3 L-106193,-59461.3 M-63664.3,0 L-63165.7,0 L-63165.5,-0.28172 L-63165.5,-19920 L-63165.7,-19920.3 L-64115.5,-19920.3 L-64115.5,-40538.7 L-64115.3,-40538.7 L-64114.4,-40538.8 L-63165.7,-40538.8 L-63066.6,-40538.8 L-62875.2,-40500.8 L-62713,-40392.4 L-62604.6,-40230.2 L-62566.7,-40039.8 L-63065.4,-40039.8 L-63065.5,-40039.6 L-63065.5,-20119.8 L-63065.4,-20119.5 L-62115.5,-20119.5 L-62115.5,0 L-61616.7,0 L-61654.6,190.334 L-61763,352.54 L-61925.2,460.922 L-62116.6,499 L-63065.4,499 L-63164.4,499 L-63355.8,460.924 L-63518,352.55 L-63626.4,190.354 L-63664.3,0 M-64115.5,-59461.3 L-64115.5,-80079.7 L-63165.7,-80079.7 L-63165.5,-80080 L-63165.5,-99999.7 L-63165.7,-100000 L-63664.3,-100000 L-63626.4,-100190 L-63518.1,-100353 L-63355.9,-100461 L-63164.4,-100499 L-63065.4,-100499 L-62116.6,-100499 L-61925.2,-100461 L-61763,-100353 L-61654.6,-100190 L-61616.7,-100000 L-62115.5,-100000 L-62115.5,-79880.5 L-63065.4,-79880.5 L-63065.5,-79880.2 L-63065.5,-59960.4 L-63065.4,-59960.2 L-62566.7,-59960.2 L-62604.6,-59769.8 L-62713,-59607.6 L-62875.2,-59499.2 L-63066.6,-59461.2 L-63165.7,-59461.2 L-64114.4,-59461.2 L-64115.3,-59461.3 L-64115.5,-59461.3 M62566.7,0 L63065.4,0 L63065.5,-0.28172 L63065.5,-19920 L63065.4,-19920.3 L62115.5,-19920.3 L62115.5,-40538.7 L62115.7,-40538.7 L62116.6,-40538.8 L63065.4,-40538.8 L63164.4,-40538.8 L63355.8,-40500.8 L63518,-40392.4 L63626.4,-40230.2 L63664.3,-40039.8 L63165.7,-40039.8 L63165.5,-40039.6 L63165.5,-20119.8 L63165.7,-20119.5 L64115.5,-20119.5 L64115.5,0 L64614.3,0 L64576.4,190.334 L64468.1,352.54 L64305.9,460.922 L64114.4,499 L63165.7,499 L63066.6,499 L62875.2,460.924 L62713,352.55 L62604.6,190.354 L62566.7,0 M62115.5,-59461.3 L62115.5,-80079.7 L63065.4,-80079.7 L63065.5,-80080 L63065.5,-99999.7 L63065.4,-100000 L62566.7,-100000 L62604.6,-100190 L62713,-100353 L62875.2,-100461 L63066.6,-100499 L63165.7,-100499 L64114.4,-100499 L64305.9,-100461 L64468.1,-100353 L64576.4,-100190 L64614.3,-100000 L64115.5,-100000 L64115.5,-79880.5 L63165.7,-79880.5 L63165.5,-79880.2 L63165.5,-59960.4 L63165.7,-59960.2 L63664.3,-59960.2 L63626.4,-59769.8 L63518.1,-59607.6 L63355.9,-59499.2 L63164.4,-59461.2 L63065.4,-59461.2 L62116.6,-59461.2 L62115.7,-59461.3 L62115.5,-59461.3"/>
</g>

<g fill="none" stroke="#000000" stroke-opacity="1" stroke-width="1" stroke-linecap="square" stroke-linejoin="bevel" transform="matrix(1,0,0,-1,132232,78880.1)"
font-family="MS Shell Dlg 2" font-size="10.3125" font-weight="400" font-style="normal" 
>
</g>

<g fill="none" stroke="#000000" stroke-opacity="1" stroke-width="1" stroke-linecap="square" stroke-linejoin="bevel" transform="matrix(1,0,0,-1,0,257760)"
font-family="MS Shell Dlg 2" font-size="10.3125" font-weight="400" font-style="normal" 
>
</g>
</g>
</svg>
