<?xml version="1.0" encoding="UTF-8" standalone="no"?>
<svg width="71250.7mm" height="69358.9mm"
 xmlns="http://www.w3.org/2000/svg" xmlns:xlink="http://www.w3.org/1999/xlink"  version="1.2" baseProfile="tiny">
<title>SVG Generator Example Drawing</title>
<desc>An SVG drawing created by the SVG Generator</desc>
<defs>
</defs>
<g fill="none" stroke="black" stroke-width="1" fill-rule="evenodd" stroke-linecap="square" stroke-linejoin="bevel" >

<g fill="none" stroke="#000000" stroke-opacity="1" stroke-width="1" stroke-linecap="square" stroke-linejoin="bevel" transform="matrix(1,0,0,-1,0,245760)"
font-family="MS Shell Dlg 2" font-size="10.3125" font-weight="400" font-style="normal" 
>
</g>

<g fill="none" stroke="#000000" stroke-opacity="1" stroke-width="1" stroke-linecap="square" stroke-linejoin="bevel" transform="matrix(1,0,0,-1,0,245760)"
font-family="MS Shell Dlg 2" font-size="10.3125" font-weight="400" font-style="normal" 
>
</g>

<g fill="none" stroke="#000000" stroke-opacity="1" stroke-width="1" stroke-linecap="square" stroke-linejoin="bevel" transform="matrix(1,0,0,-1,126232,72880.1)"
font-family="MS Shell Dlg 2" font-size="10.3125" font-weight="400" font-style="normal" 
>
</g>

<g fill="#333333" fill-opacity="0.2" stroke="#333333" stroke-opacity="1" stroke-width="1" stroke-linecap="round" stroke-linejoin="round" transform="matrix(1,0,0,-1,126232,72880.1)"
font-family="MS Shell Dlg 2" font-size="10.3125" font-weight="400" font-style="normal" 
>
<path vector-effect="non-scaling-stroke" fill-rule="evenodd" d="M42077,-136440 L21038.5,-172880 L-21038.5,-172880 L-42077,-136440 L-21530,-100851 L-21421.2,-100924 L-21038.5,-101000 L-12572.8,-101000 L-12572.8,-100050 L-12572.7,-100050 L-4191.06,-100050 L-4190.94,-100050 L-4190.94,-101000 L4190.94,-101000 L4190.94,-100050 L4191.06,-100050 L12572.7,-100050 L12572.8,-100050 L12572.8,-101000 L21038.5,-101000 L21421.2,-100924 L21530,-100851 L42077,-136440"/>
</g>

<g fill="none" stroke="#000000" stroke-opacity="1" stroke-width="1" stroke-linecap="square" stroke-linejoin="bevel" transform="matrix(1,0,0,-1,126232,72880.1)"
font-family="MS Shell Dlg 2" font-size="10.3125" font-weight="400" font-style="normal" 
>
</g>

<g fill="none" stroke="#000000" stroke-opacity="1" stroke-width="1" stroke-linecap="square" stroke-linejoin="bevel" transform="matrix(1,0,0,-1,126232,72880.1)"
font-family="MS Shell Dlg 2" font-size="10.3125" font-weight="400" font-style="normal" 
>
</g>

<g fill="#333333" fill-opacity="0.2" stroke="#333333" stroke-opacity="1" stroke-width="1" stroke-linecap="round" stroke-linejoin="round" transform="matrix(1,0,0,-1,126232,72880.1)"
font-family="MS Shell Dlg 2" font-size="10.3125" font-weight="400" font-style="normal" 
>
<path vector-effect="non-scaling-stroke" fill-rule="evenodd" d="M64165.4,0 L104193,0 L105142,0 L105143,-0.28172 L105143,-19920 L105142,-19920.3 L104193,-19920.3 L104193,-80079.7 L105142,-80079.7 L105143,-80080 L105143,-99999.7 L105142,-100000 L104143,-100000 L64115.5,-100000 L63165.7,-100000 L63165.5,-99999.7 L63165.5,-80080 L63165.7,-80079.7 L64115.5,-80079.7 L64115.5,-19920.3 L63165.7,-19920.3 L63165.5,-19920 L63165.5,-0.28172 L63165.7,0 L64165.4,0"/>
</g>

<g fill="none" stroke="#000000" stroke-opacity="1" stroke-width="1" stroke-linecap="square" stroke-linejoin="bevel" transform="matrix(1,0,0,-1,126232,72880.1)"
font-family="MS Shell Dlg 2" font-size="10.3125" font-weight="400" font-style="normal" 
>
</g>

<g fill="none" stroke="#000000" stroke-opacity="1" stroke-width="1" stroke-linecap="square" stroke-linejoin="bevel" transform="matrix(1,0,0,-1,126232,72880.1)"
font-family="MS Shell Dlg 2" font-size="10.3125" font-weight="400" font-style="normal" 
>
</g>

<g fill="#333333" fill-opacity="0.2" stroke="#333333" stroke-opacity="1" stroke-width="1" stroke-linecap="round" stroke-linejoin="round" transform="matrix(1,0,0,-1,126232,72880.1)"
font-family="MS Shell Dlg 2" font-size="10.3125" font-weight="400" font-style="normal" 
>
<path vector-effect="non-scaling-stroke" fill-rule="evenodd" d="M106193,0 L126231,0 L126231,-100000 L106193,-100000 L106193,-79880.5 L105243,-79880.5 L105243,-79880.2 L105243,-59960.4 L105243,-59960.2 L106193,-59960.2 L106193,-40039.8 L105243,-40039.8 L105243,-40039.6 L105243,-20119.8 L105243,-20119.5 L106193,-20119.5 L106193,0"/>
</g>

<g fill="none" stroke="#000000" stroke-opacity="1" stroke-width="1" stroke-linecap="square" stroke-linejoin="bevel" transform="matrix(1,0,0,-1,126232,72880.1)"
font-family="MS Shell Dlg 2" font-size="10.3125" font-weight="400" font-style="normal" 
>
</g>

<g fill="none" stroke="#000000" stroke-opacity="1" stroke-width="1" stroke-linecap="square" stroke-linejoin="bevel" transform="matrix(1,0,0,-1,126232,72880.1)"
font-family="MS Shell Dlg 2" font-size="10.3125" font-weight="400" font-style="normal" 
>
</g>

<g fill="#333333" fill-opacity="0.2" stroke="#333333" stroke-opacity="1" stroke-width="1" stroke-linecap="round" stroke-linejoin="round" transform="matrix(1,0,0,-1,126232,72880.1)"
font-family="MS Shell Dlg 2" font-size="10.3125" font-weight="400" font-style="normal" 
>
<path vector-effect="non-scaling-stroke" fill-rule="evenodd" d="M-126231,-100000 L-126231,0 L-106193,0 L-106193,-20119.5 L-105243,-20119.5 L-105243,-20119.8 L-105243,-40039.6 L-105243,-40039.8 L-106193,-40039.8 L-106193,-59960.2 L-105243,-59960.2 L-105243,-59960.4 L-105243,-79880.2 L-105243,-79880.5 L-106193,-79880.5 L-106193,-100000 L-126231,-100000"/>
</g>

<g fill="none" stroke="#000000" stroke-opacity="1" stroke-width="1" stroke-linecap="square" stroke-linejoin="bevel" transform="matrix(1,0,0,-1,126232,72880.1)"
font-family="MS Shell Dlg 2" font-size="10.3125" font-weight="400" font-style="normal" 
>
</g>

<g fill="none" stroke="#000000" stroke-opacity="1" stroke-width="1" stroke-linecap="square" stroke-linejoin="bevel" transform="matrix(1,0,0,-1,126232,72880.1)"
font-family="MS Shell Dlg 2" font-size="10.3125" font-weight="400" font-style="normal" 
>
</g>

<g fill="#333333" fill-opacity="0.2" stroke="#333333" stroke-opacity="1" stroke-width="1" stroke-linecap="round" stroke-linejoin="round" transform="matrix(1,0,0,-1,126232,72880.1)"
font-family="MS Shell Dlg 2" font-size="10.3125" font-weight="400" font-style="normal" 
>
<path vector-effect="non-scaling-stroke" fill-rule="evenodd" d="M-21530,851.207 L-42077,36439.8 L-21038.5,72879.5 L21038.5,72879.5 L42077,36439.8 L21530,851.207 L21421.2,923.88 L21038.5,1000 L12572.8,1000 L12572.8,50.1414 L12572.7,50 L4191.06,50 L4190.94,50.1414 L4190.94,1000 L-4190.94,1000 L-4190.94,50.1414 L-4191.06,50 L-12572.7,50 L-12572.8,50.1414 L-12572.8,1000 L-21038.5,1000 L-21421.2,923.88 L-21530,851.207"/>
</g>

<g fill="none" stroke="#000000" stroke-opacity="1" stroke-width="1" stroke-linecap="square" stroke-linejoin="bevel" transform="matrix(1,0,0,-1,126232,72880.1)"
font-family="MS Shell Dlg 2" font-size="10.3125" font-weight="400" font-style="normal" 
>
</g>

<g fill="none" stroke="#000000" stroke-opacity="1" stroke-width="1" stroke-linecap="square" stroke-linejoin="bevel" transform="matrix(1,0,0,-1,126232,72880.1)"
font-family="MS Shell Dlg 2" font-size="10.3125" font-weight="400" font-style="normal" 
>
</g>

<g fill="#333333" fill-opacity="0.2" stroke="#333333" stroke-opacity="1" stroke-width="1" stroke-linecap="round" stroke-linejoin="round" transform="matrix(1,0,0,-1,126232,72880.1)"
font-family="MS Shell Dlg 2" font-size="10.3125" font-weight="400" font-style="normal" 
>
<path vector-effect="non-scaling-stroke" fill-rule="evenodd" d="M-64115.5,-100000 L-104193,-100000 L-105142,-100000 L-105143,-99999.7 L-105143,-80080 L-105142,-80079.7 L-104193,-80079.7 L-104193,-19920.3 L-105142,-19920.3 L-105143,-19920 L-105143,-0.28172 L-105142,0 L-104143,0 L-64115.5,0 L-64115.5,-20119.5 L-63165.7,-20119.5 L-63165.5,-20119.8 L-63165.5,-40039.6 L-63165.7,-40039.8 L-64115.5,-40039.8 L-64115.5,-59960.2 L-63165.7,-59960.2 L-63165.5,-59960.4 L-63165.5,-79880.2 L-63165.7,-79880.5 L-64115.5,-79880.5 L-64115.5,-100000"/>
</g>

<g fill="none" stroke="#000000" stroke-opacity="1" stroke-width="1" stroke-linecap="square" stroke-linejoin="bevel" transform="matrix(1,0,0,-1,126232,72880.1)"
font-family="MS Shell Dlg 2" font-size="10.3125" font-weight="400" font-style="normal" 
>
</g>

<g fill="none" stroke="#000000" stroke-opacity="1" stroke-width="1" stroke-linecap="square" stroke-linejoin="bevel" transform="matrix(1,0,0,-1,126232,72880.1)"
font-family="MS Shell Dlg 2" font-size="10.3125" font-weight="400" font-style="normal" 
>
</g>

<g fill="#333333" fill-opacity="0.2" stroke="#333333" stroke-opacity="1" stroke-width="1" stroke-linecap="round" stroke-linejoin="round" transform="matrix(1,0,0,-1,126232,72880.1)"
font-family="MS Shell Dlg 2" font-size="10.3125" font-weight="400" font-style="normal" 
>
<path vector-effect="non-scaling-stroke" fill-rule="evenodd" d="M-12656.6,-1000 L12656.6,-1000 L12656.6,-50.1414 L12656.7,-50 L19988.5,-50 L19988.5,-0.28172 L19988.6,0 L20988.4,0 L20988.5,-0.28172 L20988.5,-50 L21038.4,-50 L21038.5,-50.1414 L21038.5,-1049.86 L21038.4,-1050 L20988.5,-1050 L20988.5,-19920 L20988.4,-19920.3 L20038.5,-19920.3 L20038.5,-80079.7 L20988.4,-80079.7 L20988.5,-80080 L20988.5,-98950 L21038.4,-98950 L21038.5,-98950.1 L21038.5,-99949.9 L21038.4,-99950 L20988.5,-99950 L20988.5,-99999.7 L20988.4,-100000 L19988.6,-100000 L19988.5,-99999.7 L19988.5,-99950 L12656.7,-99950 L12656.6,-99949.9 L12656.6,-99000 L-12656.6,-99000 L-12656.6,-99949.9 L-12656.7,-99950 L-21038.4,-99950 L-21038.5,-99949.9 L-21038.5,-98950.1 L-21038.4,-98950 L-20038.5,-98950 L-20038.5,-79880.5 L-20988.4,-79880.5 L-20988.5,-79880.2 L-20988.5,-59960.4 L-20988.4,-59960.2 L-20038.5,-59960.2 L-20038.5,-40039.8 L-20988.4,-40039.8 L-20988.5,-40039.6 L-20988.5,-20119.8 L-20988.4,-20119.5 L-20038.5,-20119.5 L-20038.5,-1050 L-21038.4,-1050 L-21038.5,-1049.86 L-21038.5,-50.1414 L-21038.4,-50 L-12656.7,-50 L-12656.6,-50.1414 L-12656.6,-1000"/>
</g>

<g fill="none" stroke="#000000" stroke-opacity="1" stroke-width="1" stroke-linecap="square" stroke-linejoin="bevel" transform="matrix(1,0,0,-1,126232,72880.1)"
font-family="MS Shell Dlg 2" font-size="10.3125" font-weight="400" font-style="normal" 
>
</g>

<g fill="none" stroke="#000000" stroke-opacity="1" stroke-width="1" stroke-linecap="square" stroke-linejoin="bevel" transform="matrix(1,0,0,-1,126232,72880.1)"
font-family="MS Shell Dlg 2" font-size="10.3125" font-weight="400" font-style="normal" 
>
</g>

<g fill="#333333" fill-opacity="0.2" stroke="#333333" stroke-opacity="1" stroke-width="1" stroke-linecap="round" stroke-linejoin="round" transform="matrix(1,0,0,-1,126232,72880.1)"
font-family="MS Shell Dlg 2" font-size="10.3125" font-weight="400" font-style="normal" 
>
<path vector-effect="non-scaling-stroke" fill-rule="evenodd" d="M-22088.4,-100000 L-62115.5,-100000 L-63065.4,-100000 L-63065.5,-99999.7 L-63065.5,-80080 L-63065.4,-80079.7 L-62115.5,-80079.7 L-62115.5,-19920.3 L-63065.4,-19920.3 L-63065.5,-19920 L-63065.5,-0.28172 L-63065.4,0 L-62065.7,0 L-22038.5,0 L-21088.6,0 L-21088.5,-0.28172 L-21088.5,-19920 L-21088.6,-19920.3 L-22038.5,-19920.3 L-22038.5,-80079.7 L-21088.6,-80079.7 L-21088.5,-80080 L-21088.5,-99999.7 L-21088.6,-100000 L-22088.4,-100000"/>
</g>

<g fill="none" stroke="#000000" stroke-opacity="1" stroke-width="1" stroke-linecap="square" stroke-linejoin="bevel" transform="matrix(1,0,0,-1,126232,72880.1)"
font-family="MS Shell Dlg 2" font-size="10.3125" font-weight="400" font-style="normal" 
>
</g>

<g fill="none" stroke="#000000" stroke-opacity="1" stroke-width="1" stroke-linecap="square" stroke-linejoin="bevel" transform="matrix(1,0,0,-1,126232,72880.1)"
font-family="MS Shell Dlg 2" font-size="10.3125" font-weight="400" font-style="normal" 
>
</g>

<g fill="#333333" fill-opacity="0.2" stroke="#333333" stroke-opacity="1" stroke-width="1" stroke-linecap="round" stroke-linejoin="round" transform="matrix(1,0,0,-1,126232,72880.1)"
font-family="MS Shell Dlg 2" font-size="10.3125" font-weight="400" font-style="normal" 
>
<path vector-effect="non-scaling-stroke" fill-rule="evenodd" d="M22038.5,0 L62115.5,0 L62115.5,-20119.5 L63065.4,-20119.5 L63065.5,-20119.8 L63065.5,-40039.6 L63065.4,-40039.8 L62115.5,-40039.8 L62115.5,-59960.2 L63065.4,-59960.2 L63065.5,-59960.4 L63065.5,-79880.2 L63065.4,-79880.5 L62115.5,-79880.5 L62115.5,-100000 L22038.5,-100000 L22038.5,-79880.5 L21088.6,-79880.5 L21088.5,-79880.2 L21088.5,-59960.4 L21088.6,-59960.2 L22038.5,-59960.2 L22038.5,-40039.8 L21088.6,-40039.8 L21088.5,-40039.6 L21088.5,-20119.8 L21088.6,-20119.5 L22038.5,-20119.5 L22038.5,0"/>
</g>

<g fill="none" stroke="#000000" stroke-opacity="1" stroke-width="1" stroke-linecap="square" stroke-linejoin="bevel" transform="matrix(1,0,0,-1,126232,72880.1)"
font-family="MS Shell Dlg 2" font-size="10.3125" font-weight="400" font-style="normal" 
>
</g>

<g fill="none" stroke="#000000" stroke-opacity="1" stroke-width="1" stroke-linecap="square" stroke-linejoin="bevel" transform="matrix(1,0,0,-1,126232,72880.1)"
font-family="MS Shell Dlg 2" font-size="10.3125" font-weight="400" font-style="normal" 
>
</g>

<g fill="#ae5151" fill-opacity="0.2" stroke="#333333" stroke-opacity="1" stroke-width="1" stroke-linecap="round" stroke-linejoin="round" transform="matrix(1,0,0,-1,126232,72880.1)"
font-family="MS Shell Dlg 2" font-size="10.3125" font-weight="400" font-style="normal" 
>
<path vector-effect="non-scaling-stroke" fill-rule="evenodd" d="M42077,-136440 L21038.5,-172880 L-21038.5,-172880 L-42077,-136440 L-21530,-100851 L-21421.2,-100924 L-21038.5,-101000 L-12572.8,-101000 L-12572.8,-100050 L-12572.7,-100050 L-4191.06,-100050 L-4190.94,-100050 L-4190.94,-101000 L4190.94,-101000 L4190.94,-100050 L4191.06,-100050 L12572.7,-100050 L12572.8,-100050 L12572.8,-101000 L21038.5,-101000 L21421.2,-100924 L21530,-100851 L42077,-136440"/>
</g>

<g fill="none" stroke="#000000" stroke-opacity="1" stroke-width="1" stroke-linecap="square" stroke-linejoin="bevel" transform="matrix(1,0,0,-1,126232,72880.1)"
font-family="MS Shell Dlg 2" font-size="10.3125" font-weight="400" font-style="normal" 
>
</g>

<g fill="none" stroke="#000000" stroke-opacity="1" stroke-width="1" stroke-linecap="square" stroke-linejoin="bevel" transform="matrix(1,0,0,-1,126232,72880.1)"
font-family="MS Shell Dlg 2" font-size="10.3125" font-weight="400" font-style="normal" 
>
</g>

<g fill="#ae5151" fill-opacity="0.2" stroke="#333333" stroke-opacity="1" stroke-width="1" stroke-linecap="round" stroke-linejoin="round" transform="matrix(1,0,0,-1,126232,72880.1)"
font-family="MS Shell Dlg 2" font-size="10.3125" font-weight="400" font-style="normal" 
>
<path vector-effect="non-scaling-stroke" fill-rule="evenodd" d="M64165.4,0 L104193,0 L105142,0 L105143,-0.28172 L105143,-19920 L105142,-19920.3 L104193,-19920.3 L104193,-80079.7 L105142,-80079.7 L105143,-80080 L105143,-99999.7 L105142,-100000 L104143,-100000 L64115.5,-100000 L63165.7,-100000 L63165.5,-99999.7 L63165.5,-80080 L63165.7,-80079.7 L64115.5,-80079.7 L64115.5,-19920.3 L63165.7,-19920.3 L63165.5,-19920 L63165.5,-0.28172 L63165.7,0 L64165.4,0"/>
</g>

<g fill="none" stroke="#000000" stroke-opacity="1" stroke-width="1" stroke-linecap="square" stroke-linejoin="bevel" transform="matrix(1,0,0,-1,126232,72880.1)"
font-family="MS Shell Dlg 2" font-size="10.3125" font-weight="400" font-style="normal" 
>
</g>

<g fill="none" stroke="#000000" stroke-opacity="1" stroke-width="1" stroke-linecap="square" stroke-linejoin="bevel" transform="matrix(1,0,0,-1,126232,72880.1)"
font-family="MS Shell Dlg 2" font-size="10.3125" font-weight="400" font-style="normal" 
>
</g>

<g fill="#ae5151" fill-opacity="0.2" stroke="#333333" stroke-opacity="1" stroke-width="1" stroke-linecap="round" stroke-linejoin="round" transform="matrix(1,0,0,-1,126232,72880.1)"
font-family="MS Shell Dlg 2" font-size="10.3125" font-weight="400" font-style="normal" 
>
<path vector-effect="non-scaling-stroke" fill-rule="evenodd" d="M106193,0 L126231,0 L126231,-100000 L106193,-100000 L106193,-79880.5 L105243,-79880.5 L105243,-79880.2 L105243,-59960.4 L105243,-59960.2 L106193,-59960.2 L106193,-40039.8 L105243,-40039.8 L105243,-40039.6 L105243,-20119.8 L105243,-20119.5 L106193,-20119.5 L106193,0"/>
</g>

<g fill="none" stroke="#000000" stroke-opacity="1" stroke-width="1" stroke-linecap="square" stroke-linejoin="bevel" transform="matrix(1,0,0,-1,126232,72880.1)"
font-family="MS Shell Dlg 2" font-size="10.3125" font-weight="400" font-style="normal" 
>
</g>

<g fill="none" stroke="#000000" stroke-opacity="1" stroke-width="1" stroke-linecap="square" stroke-linejoin="bevel" transform="matrix(1,0,0,-1,126232,72880.1)"
font-family="MS Shell Dlg 2" font-size="10.3125" font-weight="400" font-style="normal" 
>
</g>

<g fill="#ae5151" fill-opacity="0.2" stroke="#333333" stroke-opacity="1" stroke-width="1" stroke-linecap="round" stroke-linejoin="round" transform="matrix(1,0,0,-1,126232,72880.1)"
font-family="MS Shell Dlg 2" font-size="10.3125" font-weight="400" font-style="normal" 
>
<path vector-effect="non-scaling-stroke" fill-rule="evenodd" d="M-126231,-100000 L-126231,0 L-106193,0 L-106193,-20119.5 L-105243,-20119.5 L-105243,-20119.8 L-105243,-40039.6 L-105243,-40039.8 L-106193,-40039.8 L-106193,-59960.2 L-105243,-59960.2 L-105243,-59960.4 L-105243,-79880.2 L-105243,-79880.5 L-106193,-79880.5 L-106193,-100000 L-126231,-100000"/>
</g>

<g fill="none" stroke="#000000" stroke-opacity="1" stroke-width="1" stroke-linecap="square" stroke-linejoin="bevel" transform="matrix(1,0,0,-1,126232,72880.1)"
font-family="MS Shell Dlg 2" font-size="10.3125" font-weight="400" font-style="normal" 
>
</g>

<g fill="none" stroke="#000000" stroke-opacity="1" stroke-width="1" stroke-linecap="square" stroke-linejoin="bevel" transform="matrix(1,0,0,-1,126232,72880.1)"
font-family="MS Shell Dlg 2" font-size="10.3125" font-weight="400" font-style="normal" 
>
</g>

<g fill="#ae5151" fill-opacity="0.2" stroke="#333333" stroke-opacity="1" stroke-width="1" stroke-linecap="round" stroke-linejoin="round" transform="matrix(1,0,0,-1,126232,72880.1)"
font-family="MS Shell Dlg 2" font-size="10.3125" font-weight="400" font-style="normal" 
>
<path vector-effect="non-scaling-stroke" fill-rule="evenodd" d="M-21530,851.207 L-42077,36439.8 L-21038.5,72879.5 L21038.5,72879.5 L42077,36439.8 L21530,851.207 L21421.2,923.88 L21038.5,1000 L12572.8,1000 L12572.8,50.1414 L12572.7,50 L4191.06,50 L4190.94,50.1414 L4190.94,1000 L-4190.94,1000 L-4190.94,50.1414 L-4191.06,50 L-12572.7,50 L-12572.8,50.1414 L-12572.8,1000 L-21038.5,1000 L-21421.2,923.88 L-21530,851.207"/>
</g>

<g fill="none" stroke="#000000" stroke-opacity="1" stroke-width="1" stroke-linecap="square" stroke-linejoin="bevel" transform="matrix(1,0,0,-1,126232,72880.1)"
font-family="MS Shell Dlg 2" font-size="10.3125" font-weight="400" font-style="normal" 
>
</g>

<g fill="none" stroke="#000000" stroke-opacity="1" stroke-width="1" stroke-linecap="square" stroke-linejoin="bevel" transform="matrix(1,0,0,-1,126232,72880.1)"
font-family="MS Shell Dlg 2" font-size="10.3125" font-weight="400" font-style="normal" 
>
</g>

<g fill="#ae5151" fill-opacity="0.2" stroke="#333333" stroke-opacity="1" stroke-width="1" stroke-linecap="round" stroke-linejoin="round" transform="matrix(1,0,0,-1,126232,72880.1)"
font-family="MS Shell Dlg 2" font-size="10.3125" font-weight="400" font-style="normal" 
>
<path vector-effect="non-scaling-stroke" fill-rule="evenodd" d="M-64115.5,-100000 L-104193,-100000 L-105142,-100000 L-105143,-99999.7 L-105143,-80080 L-105142,-80079.7 L-104193,-80079.7 L-104193,-19920.3 L-105142,-19920.3 L-105143,-19920 L-105143,-0.28172 L-105142,0 L-104143,0 L-64115.5,0 L-64115.5,-20119.5 L-63165.7,-20119.5 L-63165.5,-20119.8 L-63165.5,-40039.6 L-63165.7,-40039.8 L-64115.5,-40039.8 L-64115.5,-59960.2 L-63165.7,-59960.2 L-63165.5,-59960.4 L-63165.5,-79880.2 L-63165.7,-79880.5 L-64115.5,-79880.5 L-64115.5,-100000"/>
</g>

<g fill="none" stroke="#000000" stroke-opacity="1" stroke-width="1" stroke-linecap="square" stroke-linejoin="bevel" transform="matrix(1,0,0,-1,126232,72880.1)"
font-family="MS Shell Dlg 2" font-size="10.3125" font-weight="400" font-style="normal" 
>
</g>

<g fill="none" stroke="#000000" stroke-opacity="1" stroke-width="1" stroke-linecap="square" stroke-linejoin="bevel" transform="matrix(1,0,0,-1,126232,72880.1)"
font-family="MS Shell Dlg 2" font-size="10.3125" font-weight="400" font-style="normal" 
>
</g>

<g fill="#ae5151" fill-opacity="0.2" stroke="#333333" stroke-opacity="1" stroke-width="1" stroke-linecap="round" stroke-linejoin="round" transform="matrix(1,0,0,-1,126232,72880.1)"
font-family="MS Shell Dlg 2" font-size="10.3125" font-weight="400" font-style="normal" 
>
<path vector-effect="non-scaling-stroke" fill-rule="evenodd" d="M-12656.6,-1000 L12656.6,-1000 L12656.6,-50.1414 L12656.7,-50 L19988.5,-50 L19988.5,-0.28172 L19988.6,0 L20988.4,0 L20988.5,-0.28172 L20988.5,-50 L21038.4,-50 L21038.5,-50.1414 L21038.5,-1049.86 L21038.4,-1050 L20988.5,-1050 L20988.5,-19920 L20988.4,-19920.3 L20038.5,-19920.3 L20038.5,-80079.7 L20988.4,-80079.7 L20988.5,-80080 L20988.5,-98950 L21038.4,-98950 L21038.5,-98950.1 L21038.5,-99949.9 L21038.4,-99950 L20988.5,-99950 L20988.5,-99999.7 L20988.4,-100000 L19988.6,-100000 L19988.5,-99999.7 L19988.5,-99950 L12656.7,-99950 L12656.6,-99949.9 L12656.6,-99000 L-12656.6,-99000 L-12656.6,-99949.9 L-12656.7,-99950 L-21038.4,-99950 L-21038.5,-99949.9 L-21038.5,-98950.1 L-21038.4,-98950 L-20038.5,-98950 L-20038.5,-79880.5 L-20988.4,-79880.5 L-20988.5,-79880.2 L-20988.5,-59960.4 L-20988.4,-59960.2 L-20038.5,-59960.2 L-20038.5,-40039.8 L-20988.4,-40039.8 L-20988.5,-40039.6 L-20988.5,-20119.8 L-20988.4,-20119.5 L-20038.5,-20119.5 L-20038.5,-1050 L-21038.4,-1050 L-21038.5,-1049.86 L-21038.5,-50.1414 L-21038.4,-50 L-12656.7,-50 L-12656.6,-50.1414 L-12656.6,-1000"/>
</g>

<g fill="none" stroke="#000000" stroke-opacity="1" stroke-width="1" stroke-linecap="square" stroke-linejoin="bevel" transform="matrix(1,0,0,-1,126232,72880.1)"
font-family="MS Shell Dlg 2" font-size="10.3125" font-weight="400" font-style="normal" 
>
</g>

<g fill="none" stroke="#000000" stroke-opacity="1" stroke-width="1" stroke-linecap="square" stroke-linejoin="bevel" transform="matrix(1,0,0,-1,126232,72880.1)"
font-family="MS Shell Dlg 2" font-size="10.3125" font-weight="400" font-style="normal" 
>
</g>

<g fill="#ae5151" fill-opacity="0.2" stroke="#333333" stroke-opacity="1" stroke-width="1" stroke-linecap="round" stroke-linejoin="round" transform="matrix(1,0,0,-1,126232,72880.1)"
font-family="MS Shell Dlg 2" font-size="10.3125" font-weight="400" font-style="normal" 
>
<path vector-effect="non-scaling-stroke" fill-rule="evenodd" d="M-22088.4,-100000 L-62115.5,-100000 L-63065.4,-100000 L-63065.5,-99999.7 L-63065.5,-80080 L-63065.4,-80079.7 L-62115.5,-80079.7 L-62115.5,-19920.3 L-63065.4,-19920.3 L-63065.5,-19920 L-63065.5,-0.28172 L-63065.4,0 L-62065.7,0 L-22038.5,0 L-21088.6,0 L-21088.5,-0.28172 L-21088.5,-19920 L-21088.6,-19920.3 L-22038.5,-19920.3 L-22038.5,-80079.7 L-21088.6,-80079.7 L-21088.5,-80080 L-21088.5,-99999.7 L-21088.6,-100000 L-22088.4,-100000"/>
</g>

<g fill="none" stroke="#000000" stroke-opacity="1" stroke-width="1" stroke-linecap="square" stroke-linejoin="bevel" transform="matrix(1,0,0,-1,126232,72880.1)"
font-family="MS Shell Dlg 2" font-size="10.3125" font-weight="400" font-style="normal" 
>
</g>

<g fill="none" stroke="#000000" stroke-opacity="1" stroke-width="1" stroke-linecap="square" stroke-linejoin="bevel" transform="matrix(1,0,0,-1,126232,72880.1)"
font-family="MS Shell Dlg 2" font-size="10.3125" font-weight="400" font-style="normal" 
>
</g>

<g fill="#ae5151" fill-opacity="0.2" stroke="#333333" stroke-opacity="1" stroke-width="1" stroke-linecap="round" stroke-linejoin="round" transform="matrix(1,0,0,-1,126232,72880.1)"
font-family="MS Shell Dlg 2" font-size="10.3125" font-weight="400" font-style="normal" 
>
<path vector-effect="non-scaling-stroke" fill-rule="evenodd" d="M22038.5,0 L62115.5,0 L62115.5,-20119.5 L63065.4,-20119.5 L63065.5,-20119.8 L63065.5,-40039.6 L63065.4,-40039.8 L62115.5,-40039.8 L62115.5,-59960.2 L63065.4,-59960.2 L63065.5,-59960.4 L63065.5,-79880.2 L63065.4,-79880.5 L62115.5,-79880.5 L62115.5,-100000 L22038.5,-100000 L22038.5,-79880.5 L21088.6,-79880.5 L21088.5,-79880.2 L21088.5,-59960.4 L21088.6,-59960.2 L22038.5,-59960.2 L22038.5,-40039.8 L21088.6,-40039.8 L21088.5,-40039.6 L21088.5,-20119.8 L21088.6,-20119.5 L22038.5,-20119.5 L22038.5,0"/>
</g>

<g fill="none" stroke="#000000" stroke-opacity="1" stroke-width="1" stroke-linecap="square" stroke-linejoin="bevel" transform="matrix(1,0,0,-1,126232,72880.1)"
font-family="MS Shell Dlg 2" font-size="10.3125" font-weight="400" font-style="normal" 
>
</g>

<g fill="none" stroke="#000000" stroke-opacity="1" stroke-width="1" stroke-linecap="square" stroke-linejoin="bevel" transform="matrix(1,0,0,-1,126232,72880.1)"
font-family="MS Shell Dlg 2" font-size="10.3125" font-weight="400" font-style="normal" 
>
</g>

<g fill="#ffff00" fill-opacity="0.2" stroke="#333333" stroke-opacity="1" stroke-width="1" stroke-linecap="round" stroke-linejoin="round" transform="matrix(1,0,0,-1,126232,72880.1)"
font-family="MS Shell Dlg 2" font-size="10.3125" font-weight="400" font-style="normal" 
>
<path vector-effect="non-scaling-stroke" fill-rule="evenodd" d="M42077,-136440 L21038.5,-172880 L-21038.5,-172880 L-42077,-136440 L-21530,-100851 L-21421.2,-100924 L-21038.5,-101000 L-21038.5,-100000 L-22088.4,-100000 L-62115.5,-100000 L-64165.4,-100000 L-104193,-100000 L-106242,-100000 L-126231,-100000 L-126231,0 L-106193,0 L-104143,0 L-64115.5,0 L-62065.7,0 L-22038.5,0 L-21038.5,0 L-21038.5,1000 L-21421.2,923.88 L-21530,851.207 L-42077,36439.8 L-21038.5,72879.5 L21038.5,72879.5 L42077,36439.8 L21530,851.207 L21421.2,923.88 L21038.5,1000 L21038.5,0 L22088.4,0 L62115.5,0 L64165.4,0 L104193,0 L106242,0 L126231,0 L126231,-100000 L106193,-100000 L104143,-100000 L64115.5,-100000 L62065.7,-100000 L22038.5,-100000 L21038.5,-100000 L21038.5,-101000 L21421.2,-100924 L21530,-100851 L42077,-136440 M-4190.94,-101000 L4190.94,-101000 L4190.94,-99000 L-4190.94,-99000 L-4190.94,-101000 M106193,-59960.2 L106193,-40039.8 L104193,-40039.8 L104193,-59960.2 L106193,-59960.2 M64115.5,-59960.2 L64115.5,-40039.8 L62115.5,-40039.8 L62115.5,-59960.2 L64115.5,-59960.2 M-106193,-40039.8 L-106193,-59960.2 L-104193,-59960.2 L-104193,-40039.8 L-106193,-40039.8 M4190.94,1000 L-4190.94,1000 L-4190.94,-1000 L4190.94,-1000 L4190.94,1000 M-64115.5,-40039.8 L-64115.5,-59960.2 L-62115.5,-59960.2 L-62115.5,-40039.8 L-64115.5,-40039.8 M22038.5,-59960.2 L22038.5,-40039.8 L20038.5,-40039.8 L20038.5,-59960.2 L22038.5,-59960.2 M-20038.5,-59960.2 L-20038.5,-40039.8 L-22038.5,-40039.8 L-22038.5,-59960.2 L-20038.5,-59960.2"/>
</g>

<g fill="none" stroke="#000000" stroke-opacity="1" stroke-width="1" stroke-linecap="square" stroke-linejoin="bevel" transform="matrix(1,0,0,-1,126232,72880.1)"
font-family="MS Shell Dlg 2" font-size="10.3125" font-weight="400" font-style="normal" 
>
</g>

<g fill="none" stroke="#000000" stroke-opacity="1" stroke-width="1" stroke-linecap="square" stroke-linejoin="bevel" transform="matrix(1,0,0,-1,126232,72880.1)"
font-family="MS Shell Dlg 2" font-size="10.3125" font-weight="400" font-style="normal" 
>
</g>

<g fill="#ae5151" fill-opacity="0.2" stroke="#333333" stroke-opacity="1" stroke-width="1" stroke-linecap="round" stroke-linejoin="round" transform="matrix(1,0,0,-1,126232,72880.1)"
font-family="MS Shell Dlg 2" font-size="10.3125" font-weight="400" font-style="normal" 
>
<path vector-effect="non-scaling-stroke" fill-rule="evenodd" d="M42077,-136440 L21038.5,-172880 L-21038.5,-172880 L-42077,-136440 L-21530,-100851 L-21421.2,-100924 L-21038.5,-101000 L-21038.5,-100050 L-21038.4,-100050 L-12656.7,-100050 L-12656.6,-100050 L-12656.6,-101000 L12656.6,-101000 L12656.6,-100050 L12656.7,-100050 L21038.4,-100050 L21038.5,-100050 L21038.5,-101000 L21421.2,-100924 L21530,-100851 L42077,-136440"/>
</g>

<g fill="none" stroke="#000000" stroke-opacity="1" stroke-width="1" stroke-linecap="square" stroke-linejoin="bevel" transform="matrix(1,0,0,-1,126232,72880.1)"
font-family="MS Shell Dlg 2" font-size="10.3125" font-weight="400" font-style="normal" 
>
</g>

<g fill="none" stroke="#000000" stroke-opacity="1" stroke-width="1" stroke-linecap="square" stroke-linejoin="bevel" transform="matrix(1,0,0,-1,126232,72880.1)"
font-family="MS Shell Dlg 2" font-size="10.3125" font-weight="400" font-style="normal" 
>
</g>

<g fill="#ae5151" fill-opacity="0.2" stroke="#333333" stroke-opacity="1" stroke-width="1" stroke-linecap="round" stroke-linejoin="round" transform="matrix(1,0,0,-1,126232,72880.1)"
font-family="MS Shell Dlg 2" font-size="10.3125" font-weight="400" font-style="normal" 
>
<path vector-effect="non-scaling-stroke" fill-rule="evenodd" d="M-126231,-100000 L-126231,0 L-106193,0 L-105243,0 L-105243,-0.28172 L-105243,-19920 L-105243,-19920.3 L-106193,-19920.3 L-106193,-80079.7 L-105243,-80079.7 L-105243,-80080 L-105243,-99999.7 L-105243,-100000 L-106242,-100000 L-126231,-100000"/>
</g>

<g fill="none" stroke="#000000" stroke-opacity="1" stroke-width="1" stroke-linecap="square" stroke-linejoin="bevel" transform="matrix(1,0,0,-1,126232,72880.1)"
font-family="MS Shell Dlg 2" font-size="10.3125" font-weight="400" font-style="normal" 
>
</g>

<g fill="none" stroke="#000000" stroke-opacity="1" stroke-width="1" stroke-linecap="square" stroke-linejoin="bevel" transform="matrix(1,0,0,-1,126232,72880.1)"
font-family="MS Shell Dlg 2" font-size="10.3125" font-weight="400" font-style="normal" 
>
</g>

<g fill="#ae5151" fill-opacity="0.2" stroke="#333333" stroke-opacity="1" stroke-width="1" stroke-linecap="round" stroke-linejoin="round" transform="matrix(1,0,0,-1,126232,72880.1)"
font-family="MS Shell Dlg 2" font-size="10.3125" font-weight="400" font-style="normal" 
>
<path vector-effect="non-scaling-stroke" fill-rule="evenodd" d="M-64165.4,-100000 L-104193,-100000 L-104193,-79880.5 L-105142,-79880.5 L-105143,-79880.2 L-105143,-59960.4 L-105142,-59960.2 L-104193,-59960.2 L-104193,-40039.8 L-105142,-40039.8 L-105143,-40039.6 L-105143,-20119.8 L-105142,-20119.5 L-104193,-20119.5 L-104193,0 L-64115.5,0 L-63165.7,0 L-63165.5,-0.28172 L-63165.5,-19920 L-63165.7,-19920.3 L-64115.5,-19920.3 L-64115.5,-80079.7 L-63165.7,-80079.7 L-63165.5,-80080 L-63165.5,-99999.7 L-63165.7,-100000 L-64165.4,-100000"/>
</g>

<g fill="none" stroke="#000000" stroke-opacity="1" stroke-width="1" stroke-linecap="square" stroke-linejoin="bevel" transform="matrix(1,0,0,-1,126232,72880.1)"
font-family="MS Shell Dlg 2" font-size="10.3125" font-weight="400" font-style="normal" 
>
</g>

<g fill="none" stroke="#000000" stroke-opacity="1" stroke-width="1" stroke-linecap="square" stroke-linejoin="bevel" transform="matrix(1,0,0,-1,126232,72880.1)"
font-family="MS Shell Dlg 2" font-size="10.3125" font-weight="400" font-style="normal" 
>
</g>

<g fill="#ae5151" fill-opacity="0.2" stroke="#333333" stroke-opacity="1" stroke-width="1" stroke-linecap="round" stroke-linejoin="round" transform="matrix(1,0,0,-1,126232,72880.1)"
font-family="MS Shell Dlg 2" font-size="10.3125" font-weight="400" font-style="normal" 
>
<path vector-effect="non-scaling-stroke" fill-rule="evenodd" d="M106242,0 L126231,0 L126231,-100000 L106193,-100000 L105243,-100000 L105243,-99999.7 L105243,-80080 L105243,-80079.7 L106193,-80079.7 L106193,-19920.3 L105243,-19920.3 L105243,-19920 L105243,-0.28172 L105243,0 L106242,0"/>
</g>

<g fill="none" stroke="#000000" stroke-opacity="1" stroke-width="1" stroke-linecap="square" stroke-linejoin="bevel" transform="matrix(1,0,0,-1,126232,72880.1)"
font-family="MS Shell Dlg 2" font-size="10.3125" font-weight="400" font-style="normal" 
>
</g>

<g fill="none" stroke="#000000" stroke-opacity="1" stroke-width="1" stroke-linecap="square" stroke-linejoin="bevel" transform="matrix(1,0,0,-1,126232,72880.1)"
font-family="MS Shell Dlg 2" font-size="10.3125" font-weight="400" font-style="normal" 
>
</g>

<g fill="#ae5151" fill-opacity="0.2" stroke="#333333" stroke-opacity="1" stroke-width="1" stroke-linecap="round" stroke-linejoin="round" transform="matrix(1,0,0,-1,126232,72880.1)"
font-family="MS Shell Dlg 2" font-size="10.3125" font-weight="400" font-style="normal" 
>
<path vector-effect="non-scaling-stroke" fill-rule="evenodd" d="M-21530,851.207 L-42077,36439.8 L-21038.5,72879.5 L21038.5,72879.5 L42077,36439.8 L21530,851.207 L21421.2,923.88 L21038.5,1000 L21038.5,50.1414 L21038.4,50 L12656.7,50 L12656.6,50.1414 L12656.6,1000 L-12656.6,1000 L-12656.6,50.1414 L-12656.7,50 L-21038.4,50 L-21038.5,50.1414 L-21038.5,1000 L-21421.2,923.88 L-21530,851.207"/>
</g>

<g fill="none" stroke="#000000" stroke-opacity="1" stroke-width="1" stroke-linecap="square" stroke-linejoin="bevel" transform="matrix(1,0,0,-1,126232,72880.1)"
font-family="MS Shell Dlg 2" font-size="10.3125" font-weight="400" font-style="normal" 
>
</g>

<g fill="none" stroke="#000000" stroke-opacity="1" stroke-width="1" stroke-linecap="square" stroke-linejoin="bevel" transform="matrix(1,0,0,-1,126232,72880.1)"
font-family="MS Shell Dlg 2" font-size="10.3125" font-weight="400" font-style="normal" 
>
</g>

<g fill="#ae5151" fill-opacity="0.2" stroke="#333333" stroke-opacity="1" stroke-width="1" stroke-linecap="round" stroke-linejoin="round" transform="matrix(1,0,0,-1,126232,72880.1)"
font-family="MS Shell Dlg 2" font-size="10.3125" font-weight="400" font-style="normal" 
>
<path vector-effect="non-scaling-stroke" fill-rule="evenodd" d="M64115.5,0 L104193,0 L104193,-20119.5 L105142,-20119.5 L105143,-20119.8 L105143,-40039.6 L105142,-40039.8 L104193,-40039.8 L104193,-59960.2 L105142,-59960.2 L105143,-59960.4 L105143,-79880.2 L105142,-79880.5 L104193,-79880.5 L104193,-100000 L64115.5,-100000 L64115.5,-79880.5 L63165.7,-79880.5 L63165.5,-79880.2 L63165.5,-59960.4 L63165.7,-59960.2 L64115.5,-59960.2 L64115.5,-40039.8 L63165.7,-40039.8 L63165.5,-40039.6 L63165.5,-20119.8 L63165.7,-20119.5 L64115.5,-20119.5 L64115.5,0"/>
</g>

<g fill="none" stroke="#000000" stroke-opacity="1" stroke-width="1" stroke-linecap="square" stroke-linejoin="bevel" transform="matrix(1,0,0,-1,126232,72880.1)"
font-family="MS Shell Dlg 2" font-size="10.3125" font-weight="400" font-style="normal" 
>
</g>

<g fill="none" stroke="#000000" stroke-opacity="1" stroke-width="1" stroke-linecap="square" stroke-linejoin="bevel" transform="matrix(1,0,0,-1,126232,72880.1)"
font-family="MS Shell Dlg 2" font-size="10.3125" font-weight="400" font-style="normal" 
>
</g>

<g fill="#ae5151" fill-opacity="0.2" stroke="#333333" stroke-opacity="1" stroke-width="1" stroke-linecap="round" stroke-linejoin="round" transform="matrix(1,0,0,-1,126232,72880.1)"
font-family="MS Shell Dlg 2" font-size="10.3125" font-weight="400" font-style="normal" 
>
<path vector-effect="non-scaling-stroke" fill-rule="evenodd" d="M22088.4,0 L62115.5,0 L63065.4,0 L63065.5,-0.28172 L63065.5,-19920 L63065.4,-19920.3 L62115.5,-19920.3 L62115.5,-80079.7 L63065.4,-80079.7 L63065.5,-80080 L63065.5,-99999.7 L63065.4,-100000 L62065.7,-100000 L22038.5,-100000 L21088.6,-100000 L21088.5,-99999.7 L21088.5,-80080 L21088.6,-80079.7 L22038.5,-80079.7 L22038.5,-19920.3 L21088.6,-19920.3 L21088.5,-19920 L21088.5,-0.28172 L21088.6,0 L22088.4,0"/>
</g>

<g fill="none" stroke="#000000" stroke-opacity="1" stroke-width="1" stroke-linecap="square" stroke-linejoin="bevel" transform="matrix(1,0,0,-1,126232,72880.1)"
font-family="MS Shell Dlg 2" font-size="10.3125" font-weight="400" font-style="normal" 
>
</g>

<g fill="none" stroke="#000000" stroke-opacity="1" stroke-width="1" stroke-linecap="square" stroke-linejoin="bevel" transform="matrix(1,0,0,-1,126232,72880.1)"
font-family="MS Shell Dlg 2" font-size="10.3125" font-weight="400" font-style="normal" 
>
</g>

<g fill="#ae5151" fill-opacity="0.2" stroke="#333333" stroke-opacity="1" stroke-width="1" stroke-linecap="round" stroke-linejoin="round" transform="matrix(1,0,0,-1,126232,72880.1)"
font-family="MS Shell Dlg 2" font-size="10.3125" font-weight="400" font-style="normal" 
>
<path vector-effect="non-scaling-stroke" fill-rule="evenodd" d="M-22038.5,-100000 L-62115.5,-100000 L-62115.5,-79880.5 L-63065.4,-79880.5 L-63065.5,-79880.2 L-63065.5,-59960.4 L-63065.4,-59960.2 L-62115.5,-59960.2 L-62115.5,-40039.8 L-63065.4,-40039.8 L-63065.5,-40039.6 L-63065.5,-20119.8 L-63065.4,-20119.5 L-62115.5,-20119.5 L-62115.5,0 L-22038.5,0 L-22038.5,-20119.5 L-21088.6,-20119.5 L-21088.5,-20119.8 L-21088.5,-40039.6 L-21088.6,-40039.8 L-22038.5,-40039.8 L-22038.5,-59960.2 L-21088.6,-59960.2 L-21088.5,-59960.4 L-21088.5,-79880.2 L-21088.6,-79880.5 L-22038.5,-79880.5 L-22038.5,-100000"/>
</g>

<g fill="none" stroke="#000000" stroke-opacity="1" stroke-width="1" stroke-linecap="square" stroke-linejoin="bevel" transform="matrix(1,0,0,-1,126232,72880.1)"
font-family="MS Shell Dlg 2" font-size="10.3125" font-weight="400" font-style="normal" 
>
</g>

<g fill="none" stroke="#000000" stroke-opacity="1" stroke-width="1" stroke-linecap="square" stroke-linejoin="bevel" transform="matrix(1,0,0,-1,126232,72880.1)"
font-family="MS Shell Dlg 2" font-size="10.3125" font-weight="400" font-style="normal" 
>
</g>

<g fill="#ae5151" fill-opacity="0.2" stroke="#333333" stroke-opacity="1" stroke-width="1" stroke-linecap="round" stroke-linejoin="round" transform="matrix(1,0,0,-1,126232,72880.1)"
font-family="MS Shell Dlg 2" font-size="10.3125" font-weight="400" font-style="normal" 
>
<path vector-effect="non-scaling-stroke" fill-rule="evenodd" d="M-19988.5,-1000 L-12572.8,-1000 L-12572.8,-50.1414 L-12572.7,-50 L-4191.06,-50 L-4190.94,-50.1414 L-4190.94,-1000 L4190.94,-1000 L4190.94,-50.1414 L4191.06,-50 L12572.7,-50 L12572.8,-50.1414 L12572.8,-1000 L20038.5,-1000 L20038.5,-20119.5 L20988.4,-20119.5 L20988.5,-20119.8 L20988.5,-40039.6 L20988.4,-40039.8 L20038.5,-40039.8 L20038.5,-59960.2 L20988.4,-59960.2 L20988.5,-59960.4 L20988.5,-79880.2 L20988.4,-79880.5 L20038.5,-79880.5 L20038.5,-99000 L12572.8,-99000 L12572.8,-99949.9 L12572.7,-99950 L4191.06,-99950 L4190.94,-99949.9 L4190.94,-99000 L-4190.94,-99000 L-4190.94,-99949.9 L-4191.06,-99950 L-12572.7,-99950 L-12572.8,-99949.9 L-12572.8,-99000 L-19988.5,-99000 L-19988.5,-99999.7 L-19988.6,-100000 L-20988.4,-100000 L-20988.5,-99999.7 L-20988.5,-80080 L-20988.4,-80079.7 L-20038.5,-80079.7 L-20038.5,-19920.3 L-20988.4,-19920.3 L-20988.5,-19920 L-20988.5,-0.28172 L-20988.4,0 L-19988.6,0 L-19988.5,-0.28172 L-19988.5,-1000"/>
</g>

<g fill="none" stroke="#000000" stroke-opacity="1" stroke-width="1" stroke-linecap="square" stroke-linejoin="bevel" transform="matrix(1,0,0,-1,126232,72880.1)"
font-family="MS Shell Dlg 2" font-size="10.3125" font-weight="400" font-style="normal" 
>
</g>

<g fill="none" stroke="#000000" stroke-opacity="1" stroke-width="1" stroke-linecap="square" stroke-linejoin="bevel" transform="matrix(1,0,0,-1,126232,72880.1)"
font-family="MS Shell Dlg 2" font-size="10.3125" font-weight="400" font-style="normal" 
>
</g>

<g fill="#333333" fill-opacity="0.2" stroke="#333333" stroke-opacity="1" stroke-width="1" stroke-linecap="round" stroke-linejoin="round" transform="matrix(1,0,0,-1,126232,72880.1)"
font-family="MS Shell Dlg 2" font-size="10.3125" font-weight="400" font-style="normal" 
>
<path vector-effect="non-scaling-stroke" fill-rule="evenodd" d="M42077,-136440 L21038.5,-172880 L-21038.5,-172880 L-42077,-136440 L-21530,-100851 L-21421.2,-100924 L-21038.5,-101000 L-21038.5,-100050 L-21038.4,-100050 L-12656.7,-100050 L-12656.6,-100050 L-12656.6,-101000 L12656.6,-101000 L12656.6,-100050 L12656.7,-100050 L21038.4,-100050 L21038.5,-100050 L21038.5,-101000 L21421.2,-100924 L21530,-100851 L42077,-136440"/>
</g>

<g fill="none" stroke="#000000" stroke-opacity="1" stroke-width="1" stroke-linecap="square" stroke-linejoin="bevel" transform="matrix(1,0,0,-1,126232,72880.1)"
font-family="MS Shell Dlg 2" font-size="10.3125" font-weight="400" font-style="normal" 
>
</g>

<g fill="none" stroke="#000000" stroke-opacity="1" stroke-width="1" stroke-linecap="square" stroke-linejoin="bevel" transform="matrix(1,0,0,-1,126232,72880.1)"
font-family="MS Shell Dlg 2" font-size="10.3125" font-weight="400" font-style="normal" 
>
</g>

<g fill="#333333" fill-opacity="0.2" stroke="#333333" stroke-opacity="1" stroke-width="1" stroke-linecap="round" stroke-linejoin="round" transform="matrix(1,0,0,-1,126232,72880.1)"
font-family="MS Shell Dlg 2" font-size="10.3125" font-weight="400" font-style="normal" 
>
<path vector-effect="non-scaling-stroke" fill-rule="evenodd" d="M-126231,-100000 L-126231,0 L-106193,0 L-105243,0 L-105243,-0.28172 L-105243,-19920 L-105243,-19920.3 L-106193,-19920.3 L-106193,-80079.7 L-105243,-80079.7 L-105243,-80080 L-105243,-99999.7 L-105243,-100000 L-106242,-100000 L-126231,-100000"/>
</g>

<g fill="none" stroke="#000000" stroke-opacity="1" stroke-width="1" stroke-linecap="square" stroke-linejoin="bevel" transform="matrix(1,0,0,-1,126232,72880.1)"
font-family="MS Shell Dlg 2" font-size="10.3125" font-weight="400" font-style="normal" 
>
</g>

<g fill="none" stroke="#000000" stroke-opacity="1" stroke-width="1" stroke-linecap="square" stroke-linejoin="bevel" transform="matrix(1,0,0,-1,126232,72880.1)"
font-family="MS Shell Dlg 2" font-size="10.3125" font-weight="400" font-style="normal" 
>
</g>

<g fill="#333333" fill-opacity="0.2" stroke="#333333" stroke-opacity="1" stroke-width="1" stroke-linecap="round" stroke-linejoin="round" transform="matrix(1,0,0,-1,126232,72880.1)"
font-family="MS Shell Dlg 2" font-size="10.3125" font-weight="400" font-style="normal" 
>
<path vector-effect="non-scaling-stroke" fill-rule="evenodd" d="M-64165.4,-100000 L-104193,-100000 L-104193,-79880.5 L-105142,-79880.5 L-105143,-79880.2 L-105143,-59960.4 L-105142,-59960.2 L-104193,-59960.2 L-104193,-40039.8 L-105142,-40039.8 L-105143,-40039.6 L-105143,-20119.8 L-105142,-20119.5 L-104193,-20119.5 L-104193,0 L-64115.5,0 L-63165.7,0 L-63165.5,-0.28172 L-63165.5,-19920 L-63165.7,-19920.3 L-64115.5,-19920.3 L-64115.5,-80079.7 L-63165.7,-80079.7 L-63165.5,-80080 L-63165.5,-99999.7 L-63165.7,-100000 L-64165.4,-100000"/>
</g>

<g fill="none" stroke="#000000" stroke-opacity="1" stroke-width="1" stroke-linecap="square" stroke-linejoin="bevel" transform="matrix(1,0,0,-1,126232,72880.1)"
font-family="MS Shell Dlg 2" font-size="10.3125" font-weight="400" font-style="normal" 
>
</g>

<g fill="none" stroke="#000000" stroke-opacity="1" stroke-width="1" stroke-linecap="square" stroke-linejoin="bevel" transform="matrix(1,0,0,-1,126232,72880.1)"
font-family="MS Shell Dlg 2" font-size="10.3125" font-weight="400" font-style="normal" 
>
</g>

<g fill="#333333" fill-opacity="0.2" stroke="#333333" stroke-opacity="1" stroke-width="1" stroke-linecap="round" stroke-linejoin="round" transform="matrix(1,0,0,-1,126232,72880.1)"
font-family="MS Shell Dlg 2" font-size="10.3125" font-weight="400" font-style="normal" 
>
<path vector-effect="non-scaling-stroke" fill-rule="evenodd" d="M106242,0 L126231,0 L126231,-100000 L106193,-100000 L105243,-100000 L105243,-99999.7 L105243,-80080 L105243,-80079.7 L106193,-80079.7 L106193,-19920.3 L105243,-19920.3 L105243,-19920 L105243,-0.28172 L105243,0 L106242,0"/>
</g>

<g fill="none" stroke="#000000" stroke-opacity="1" stroke-width="1" stroke-linecap="square" stroke-linejoin="bevel" transform="matrix(1,0,0,-1,126232,72880.1)"
font-family="MS Shell Dlg 2" font-size="10.3125" font-weight="400" font-style="normal" 
>
</g>

<g fill="none" stroke="#000000" stroke-opacity="1" stroke-width="1" stroke-linecap="square" stroke-linejoin="bevel" transform="matrix(1,0,0,-1,126232,72880.1)"
font-family="MS Shell Dlg 2" font-size="10.3125" font-weight="400" font-style="normal" 
>
</g>

<g fill="#333333" fill-opacity="0.2" stroke="#333333" stroke-opacity="1" stroke-width="1" stroke-linecap="round" stroke-linejoin="round" transform="matrix(1,0,0,-1,126232,72880.1)"
font-family="MS Shell Dlg 2" font-size="10.3125" font-weight="400" font-style="normal" 
>
<path vector-effect="non-scaling-stroke" fill-rule="evenodd" d="M-21530,851.207 L-42077,36439.8 L-21038.5,72879.5 L21038.5,72879.5 L42077,36439.8 L21530,851.207 L21421.2,923.88 L21038.5,1000 L21038.5,50.1414 L21038.4,50 L12656.7,50 L12656.6,50.1414 L12656.6,1000 L-12656.6,1000 L-12656.6,50.1414 L-12656.7,50 L-21038.4,50 L-21038.5,50.1414 L-21038.5,1000 L-21421.2,923.88 L-21530,851.207"/>
</g>

<g fill="none" stroke="#000000" stroke-opacity="1" stroke-width="1" stroke-linecap="square" stroke-linejoin="bevel" transform="matrix(1,0,0,-1,126232,72880.1)"
font-family="MS Shell Dlg 2" font-size="10.3125" font-weight="400" font-style="normal" 
>
</g>

<g fill="none" stroke="#000000" stroke-opacity="1" stroke-width="1" stroke-linecap="square" stroke-linejoin="bevel" transform="matrix(1,0,0,-1,126232,72880.1)"
font-family="MS Shell Dlg 2" font-size="10.3125" font-weight="400" font-style="normal" 
>
</g>

<g fill="#333333" fill-opacity="0.2" stroke="#333333" stroke-opacity="1" stroke-width="1" stroke-linecap="round" stroke-linejoin="round" transform="matrix(1,0,0,-1,126232,72880.1)"
font-family="MS Shell Dlg 2" font-size="10.3125" font-weight="400" font-style="normal" 
>
<path vector-effect="non-scaling-stroke" fill-rule="evenodd" d="M64115.5,0 L104193,0 L104193,-20119.5 L105142,-20119.5 L105143,-20119.8 L105143,-40039.6 L105142,-40039.8 L104193,-40039.8 L104193,-59960.2 L105142,-59960.2 L105143,-59960.4 L105143,-79880.2 L105142,-79880.5 L104193,-79880.5 L104193,-100000 L64115.5,-100000 L64115.5,-79880.5 L63165.7,-79880.5 L63165.5,-79880.2 L63165.5,-59960.4 L63165.7,-59960.2 L64115.5,-59960.2 L64115.5,-40039.8 L63165.7,-40039.8 L63165.5,-40039.6 L63165.5,-20119.8 L63165.7,-20119.5 L64115.5,-20119.5 L64115.5,0"/>
</g>

<g fill="none" stroke="#000000" stroke-opacity="1" stroke-width="1" stroke-linecap="square" stroke-linejoin="bevel" transform="matrix(1,0,0,-1,126232,72880.1)"
font-family="MS Shell Dlg 2" font-size="10.3125" font-weight="400" font-style="normal" 
>
</g>

<g fill="none" stroke="#000000" stroke-opacity="1" stroke-width="1" stroke-linecap="square" stroke-linejoin="bevel" transform="matrix(1,0,0,-1,126232,72880.1)"
font-family="MS Shell Dlg 2" font-size="10.3125" font-weight="400" font-style="normal" 
>
</g>

<g fill="#333333" fill-opacity="0.2" stroke="#333333" stroke-opacity="1" stroke-width="1" stroke-linecap="round" stroke-linejoin="round" transform="matrix(1,0,0,-1,126232,72880.1)"
font-family="MS Shell Dlg 2" font-size="10.3125" font-weight="400" font-style="normal" 
>
<path vector-effect="non-scaling-stroke" fill-rule="evenodd" d="M22088.4,0 L62115.5,0 L63065.4,0 L63065.5,-0.28172 L63065.5,-19920 L63065.4,-19920.3 L62115.5,-19920.3 L62115.5,-80079.7 L63065.4,-80079.7 L63065.5,-80080 L63065.5,-99999.7 L63065.4,-100000 L62065.7,-100000 L22038.5,-100000 L21088.6,-100000 L21088.5,-99999.7 L21088.5,-80080 L21088.6,-80079.7 L22038.5,-80079.7 L22038.5,-19920.3 L21088.6,-19920.3 L21088.5,-19920 L21088.5,-0.28172 L21088.6,0 L22088.4,0"/>
</g>

<g fill="none" stroke="#000000" stroke-opacity="1" stroke-width="1" stroke-linecap="square" stroke-linejoin="bevel" transform="matrix(1,0,0,-1,126232,72880.1)"
font-family="MS Shell Dlg 2" font-size="10.3125" font-weight="400" font-style="normal" 
>
</g>

<g fill="none" stroke="#000000" stroke-opacity="1" stroke-width="1" stroke-linecap="square" stroke-linejoin="bevel" transform="matrix(1,0,0,-1,126232,72880.1)"
font-family="MS Shell Dlg 2" font-size="10.3125" font-weight="400" font-style="normal" 
>
</g>

<g fill="#333333" fill-opacity="0.2" stroke="#333333" stroke-opacity="1" stroke-width="1" stroke-linecap="round" stroke-linejoin="round" transform="matrix(1,0,0,-1,126232,72880.1)"
font-family="MS Shell Dlg 2" font-size="10.3125" font-weight="400" font-style="normal" 
>
<path vector-effect="non-scaling-stroke" fill-rule="evenodd" d="M-22038.5,-100000 L-62115.5,-100000 L-62115.5,-79880.5 L-63065.4,-79880.5 L-63065.5,-79880.2 L-63065.5,-59960.4 L-63065.4,-59960.2 L-62115.5,-59960.2 L-62115.5,-40039.8 L-63065.4,-40039.8 L-63065.5,-40039.6 L-63065.5,-20119.8 L-63065.4,-20119.5 L-62115.5,-20119.5 L-62115.5,0 L-22038.5,0 L-22038.5,-20119.5 L-21088.6,-20119.5 L-21088.5,-20119.8 L-21088.5,-40039.6 L-21088.6,-40039.8 L-22038.5,-40039.8 L-22038.5,-59960.2 L-21088.6,-59960.2 L-21088.5,-59960.4 L-21088.5,-79880.2 L-21088.6,-79880.5 L-22038.5,-79880.5 L-22038.5,-100000"/>
</g>

<g fill="none" stroke="#000000" stroke-opacity="1" stroke-width="1" stroke-linecap="square" stroke-linejoin="bevel" transform="matrix(1,0,0,-1,126232,72880.1)"
font-family="MS Shell Dlg 2" font-size="10.3125" font-weight="400" font-style="normal" 
>
</g>

<g fill="none" stroke="#000000" stroke-opacity="1" stroke-width="1" stroke-linecap="square" stroke-linejoin="bevel" transform="matrix(1,0,0,-1,126232,72880.1)"
font-family="MS Shell Dlg 2" font-size="10.3125" font-weight="400" font-style="normal" 
>
</g>

<g fill="#333333" fill-opacity="0.2" stroke="#333333" stroke-opacity="1" stroke-width="1" stroke-linecap="round" stroke-linejoin="round" transform="matrix(1,0,0,-1,126232,72880.1)"
font-family="MS Shell Dlg 2" font-size="10.3125" font-weight="400" font-style="normal" 
>
<path vector-effect="non-scaling-stroke" fill-rule="evenodd" d="M-19988.5,-1000 L-12572.8,-1000 L-12572.8,-50.1414 L-12572.7,-50 L-4191.06,-50 L-4190.94,-50.1414 L-4190.94,-1000 L4190.94,-1000 L4190.94,-50.1414 L4191.06,-50 L12572.7,-50 L12572.8,-50.1414 L12572.8,-1000 L20038.5,-1000 L20038.5,-20119.5 L20988.4,-20119.5 L20988.5,-20119.8 L20988.5,-40039.6 L20988.4,-40039.8 L20038.5,-40039.8 L20038.5,-59960.2 L20988.4,-59960.2 L20988.5,-59960.4 L20988.5,-79880.2 L20988.4,-79880.5 L20038.5,-79880.5 L20038.5,-99000 L12572.8,-99000 L12572.8,-99949.9 L12572.7,-99950 L4191.06,-99950 L4190.94,-99949.9 L4190.94,-99000 L-4190.94,-99000 L-4190.94,-99949.9 L-4191.06,-99950 L-12572.7,-99950 L-12572.8,-99949.9 L-12572.8,-99000 L-19988.5,-99000 L-19988.5,-99999.7 L-19988.6,-100000 L-20988.4,-100000 L-20988.5,-99999.7 L-20988.5,-80080 L-20988.4,-80079.7 L-20038.5,-80079.7 L-20038.5,-19920.3 L-20988.4,-19920.3 L-20988.5,-19920 L-20988.5,-0.28172 L-20988.4,0 L-19988.6,0 L-19988.5,-0.28172 L-19988.5,-1000"/>
</g>

<g fill="none" stroke="#000000" stroke-opacity="1" stroke-width="1" stroke-linecap="square" stroke-linejoin="bevel" transform="matrix(1,0,0,-1,126232,72880.1)"
font-family="MS Shell Dlg 2" font-size="10.3125" font-weight="400" font-style="normal" 
>
</g>

<g fill="none" stroke="#000000" stroke-opacity="1" stroke-width="1" stroke-linecap="square" stroke-linejoin="bevel" transform="matrix(1,0,0,-1,0,245760)"
font-family="MS Shell Dlg 2" font-size="10.3125" font-weight="400" font-style="normal" 
>
</g>
</g>
</svg>
