<?xml version="1.0" encoding="UTF-8" standalone="no"?>
<svg width="71250.7mm" height="69358.9mm"
 xmlns="http://www.w3.org/2000/svg" xmlns:xlink="http://www.w3.org/1999/xlink"  version="1.2" baseProfile="tiny">
<title>SVG Generator Example Drawing</title>
<desc>An SVG drawing created by the SVG Generator</desc>
<defs>
</defs>
<g fill="none" stroke="black" stroke-width="1" fill-rule="evenodd" stroke-linecap="square" stroke-linejoin="bevel" >

<g fill="none" stroke="#000000" stroke-opacity="1" stroke-width="1" stroke-linecap="square" stroke-linejoin="bevel" transform="matrix(1,0,0,-1,0,245760)"
font-family="MS Shell Dlg 2" font-size="10.3125" font-weight="400" font-style="normal" 
>
</g>

<g fill="none" stroke="#000000" stroke-opacity="1" stroke-width="1" stroke-linecap="square" stroke-linejoin="bevel" transform="matrix(1,0,0,-1,0,245760)"
font-family="MS Shell Dlg 2" font-size="10.3125" font-weight="400" font-style="normal" 
>
</g>

<g fill="none" stroke="#000000" stroke-opacity="1" stroke-width="1" stroke-linecap="square" stroke-linejoin="bevel" transform="matrix(1,0,0,-1,126232,72880.1)"
font-family="MS Shell Dlg 2" font-size="10.3125" font-weight="400" font-style="normal" 
>
</g>

<g fill="#333333" fill-opacity="0.2" stroke="#333333" stroke-opacity="1" stroke-width="1" stroke-linecap="round" stroke-linejoin="round" transform="matrix(1,0,0,-1,126232,72880.1)"
font-family="MS Shell Dlg 2" font-size="10.3125" font-weight="400" font-style="normal" 
>
<path vector-effect="non-scaling-stroke" fill-rule="evenodd" d="M-105243,-40039.8 L-105142,-40039.8 L-104193,-40039.8 L-104193,-59960.2 L-105142,-59960.2 L-105243,-59960.2 L-106193,-59960.2 L-106193,-40039.8 L-105243,-40039.8 M-105243,-40039.9 L-106193,-40039.9 L-106193,-59960.1 L-105243,-59960.1 L-105142,-59960.1 L-104193,-59960.1 L-104193,-40039.9 L-105142,-40039.9 L-105243,-40039.9"/>
</g>

<g fill="none" stroke="#000000" stroke-opacity="1" stroke-width="1" stroke-linecap="square" stroke-linejoin="bevel" transform="matrix(1,0,0,-1,126232,72880.1)"
font-family="MS Shell Dlg 2" font-size="10.3125" font-weight="400" font-style="normal" 
>
</g>

<g fill="none" stroke="#000000" stroke-opacity="1" stroke-width="1" stroke-linecap="square" stroke-linejoin="bevel" transform="matrix(1,0,0,-1,126232,72880.1)"
font-family="MS Shell Dlg 2" font-size="10.3125" font-weight="400" font-style="normal" 
>
</g>

<g fill="#333333" fill-opacity="0.2" stroke="#333333" stroke-opacity="1" stroke-width="1" stroke-linecap="round" stroke-linejoin="round" transform="matrix(1,0,0,-1,126232,72880.1)"
font-family="MS Shell Dlg 2" font-size="10.3125" font-weight="400" font-style="normal" 
>
<path vector-effect="non-scaling-stroke" fill-rule="evenodd" d="M4190.94,50.1414 L4190.94,-50.1414 L4190.94,-1000 L-4190.94,-1000 L-4190.94,-50.1414 L-4190.94,50.1414 L-4190.94,1000 L4190.94,1000 L4190.94,50.1414 M4190.93,50.1414 L4190.93,999.99 L-4190.93,999.99 L-4190.93,50.1414 L-4190.93,-50.1414 L-4190.93,-999.99 L4190.93,-999.99 L4190.93,-50.1414 L4190.93,50.1414"/>
</g>

<g fill="none" stroke="#000000" stroke-opacity="1" stroke-width="1" stroke-linecap="square" stroke-linejoin="bevel" transform="matrix(1,0,0,-1,126232,72880.1)"
font-family="MS Shell Dlg 2" font-size="10.3125" font-weight="400" font-style="normal" 
>
</g>

<g fill="none" stroke="#000000" stroke-opacity="1" stroke-width="1" stroke-linecap="square" stroke-linejoin="bevel" transform="matrix(1,0,0,-1,126232,72880.1)"
font-family="MS Shell Dlg 2" font-size="10.3125" font-weight="400" font-style="normal" 
>
</g>

<g fill="#333333" fill-opacity="0.2" stroke="#333333" stroke-opacity="1" stroke-width="1" stroke-linecap="round" stroke-linejoin="round" transform="matrix(1,0,0,-1,126232,72880.1)"
font-family="MS Shell Dlg 2" font-size="10.3125" font-weight="400" font-style="normal" 
>
<path vector-effect="non-scaling-stroke" fill-rule="evenodd" d="M-63165.7,-40039.8 L-63065.4,-40039.8 L-62115.5,-40039.8 L-62115.5,-59960.2 L-63065.4,-59960.2 L-63165.7,-59960.2 L-64115.5,-59960.2 L-64115.5,-40039.8 L-63165.7,-40039.8 M-63165.7,-40039.9 L-64115.5,-40039.9 L-64115.5,-59960.1 L-63165.7,-59960.1 L-63065.4,-59960.1 L-62115.5,-59960.1 L-62115.5,-40039.9 L-63065.4,-40039.9 L-63165.7,-40039.9"/>
</g>

<g fill="none" stroke="#000000" stroke-opacity="1" stroke-width="1" stroke-linecap="square" stroke-linejoin="bevel" transform="matrix(1,0,0,-1,126232,72880.1)"
font-family="MS Shell Dlg 2" font-size="10.3125" font-weight="400" font-style="normal" 
>
</g>

<g fill="none" stroke="#000000" stroke-opacity="1" stroke-width="1" stroke-linecap="square" stroke-linejoin="bevel" transform="matrix(1,0,0,-1,126232,72880.1)"
font-family="MS Shell Dlg 2" font-size="10.3125" font-weight="400" font-style="normal" 
>
</g>

<g fill="#333333" fill-opacity="0.2" stroke="#333333" stroke-opacity="1" stroke-width="1" stroke-linecap="round" stroke-linejoin="round" transform="matrix(1,0,0,-1,126232,72880.1)"
font-family="MS Shell Dlg 2" font-size="10.3125" font-weight="400" font-style="normal" 
>
<path vector-effect="non-scaling-stroke" fill-rule="evenodd" d="M-20988.4,-59960.2 L-21088.6,-59960.2 L-22038.5,-59960.2 L-22038.5,-40039.8 L-21088.6,-40039.8 L-20988.4,-40039.8 L-20038.5,-40039.8 L-20038.5,-59960.2 L-20988.4,-59960.2 M-20988.4,-59960.1 L-20038.5,-59960.1 L-20038.5,-40039.9 L-20988.4,-40039.9 L-21088.6,-40039.9 L-22038.5,-40039.9 L-22038.5,-59960.1 L-21088.6,-59960.1 L-20988.4,-59960.1"/>
</g>

<g fill="none" stroke="#000000" stroke-opacity="1" stroke-width="1" stroke-linecap="square" stroke-linejoin="bevel" transform="matrix(1,0,0,-1,126232,72880.1)"
font-family="MS Shell Dlg 2" font-size="10.3125" font-weight="400" font-style="normal" 
>
</g>

<g fill="none" stroke="#000000" stroke-opacity="1" stroke-width="1" stroke-linecap="square" stroke-linejoin="bevel" transform="matrix(1,0,0,-1,126232,72880.1)"
font-family="MS Shell Dlg 2" font-size="10.3125" font-weight="400" font-style="normal" 
>
</g>

<g fill="#333333" fill-opacity="0.2" stroke="#333333" stroke-opacity="1" stroke-width="1" stroke-linecap="round" stroke-linejoin="round" transform="matrix(1,0,0,-1,126232,72880.1)"
font-family="MS Shell Dlg 2" font-size="10.3125" font-weight="400" font-style="normal" 
>
<path vector-effect="non-scaling-stroke" fill-rule="evenodd" d="M-4190.94,-100050 L-4190.94,-99949.9 L-4190.94,-99000 L4190.94,-99000 L4190.94,-99949.9 L4190.94,-100050 L4190.94,-101000 L-4190.94,-101000 L-4190.94,-100050 M-4190.93,-100050 L-4190.93,-101000 L4190.93,-101000 L4190.93,-100050 L4190.93,-99949.9 L4190.93,-99000 L-4190.93,-99000 L-4190.93,-99949.9 L-4190.93,-100050"/>
</g>

<g fill="none" stroke="#000000" stroke-opacity="1" stroke-width="1" stroke-linecap="square" stroke-linejoin="bevel" transform="matrix(1,0,0,-1,126232,72880.1)"
font-family="MS Shell Dlg 2" font-size="10.3125" font-weight="400" font-style="normal" 
>
</g>

<g fill="none" stroke="#000000" stroke-opacity="1" stroke-width="1" stroke-linecap="square" stroke-linejoin="bevel" transform="matrix(1,0,0,-1,126232,72880.1)"
font-family="MS Shell Dlg 2" font-size="10.3125" font-weight="400" font-style="normal" 
>
</g>

<g fill="#333333" fill-opacity="0.2" stroke="#333333" stroke-opacity="1" stroke-width="1" stroke-linecap="round" stroke-linejoin="round" transform="matrix(1,0,0,-1,126232,72880.1)"
font-family="MS Shell Dlg 2" font-size="10.3125" font-weight="400" font-style="normal" 
>
<path vector-effect="non-scaling-stroke" fill-rule="evenodd" d="M104193,-40039.8 L105142,-40039.8 L105243,-40039.8 L106193,-40039.8 L106193,-59960.2 L105243,-59960.2 L105142,-59960.2 L104193,-59960.2 L104193,-40039.8 M104193,-40039.9 L104193,-59960.1 L105142,-59960.1 L105243,-59960.1 L106193,-59960.1 L106193,-40039.9 L105243,-40039.9 L105142,-40039.9 L104193,-40039.9"/>
</g>

<g fill="none" stroke="#000000" stroke-opacity="1" stroke-width="1" stroke-linecap="square" stroke-linejoin="bevel" transform="matrix(1,0,0,-1,126232,72880.1)"
font-family="MS Shell Dlg 2" font-size="10.3125" font-weight="400" font-style="normal" 
>
</g>

<g fill="none" stroke="#000000" stroke-opacity="1" stroke-width="1" stroke-linecap="square" stroke-linejoin="bevel" transform="matrix(1,0,0,-1,126232,72880.1)"
font-family="MS Shell Dlg 2" font-size="10.3125" font-weight="400" font-style="normal" 
>
</g>

<g fill="#333333" fill-opacity="0.2" stroke="#333333" stroke-opacity="1" stroke-width="1" stroke-linecap="round" stroke-linejoin="round" transform="matrix(1,0,0,-1,126232,72880.1)"
font-family="MS Shell Dlg 2" font-size="10.3125" font-weight="400" font-style="normal" 
>
<path vector-effect="non-scaling-stroke" fill-rule="evenodd" d="M64115.5,-59960.2 L63165.7,-59960.2 L63065.4,-59960.2 L62115.5,-59960.2 L62115.5,-40039.8 L63065.4,-40039.8 L63165.7,-40039.8 L64115.5,-40039.8 L64115.5,-59960.2 M64115.5,-59960.1 L64115.5,-40039.9 L63165.7,-40039.9 L63065.4,-40039.9 L62115.5,-40039.9 L62115.5,-59960.1 L63065.4,-59960.1 L63165.7,-59960.1 L64115.5,-59960.1"/>
</g>

<g fill="none" stroke="#000000" stroke-opacity="1" stroke-width="1" stroke-linecap="square" stroke-linejoin="bevel" transform="matrix(1,0,0,-1,126232,72880.1)"
font-family="MS Shell Dlg 2" font-size="10.3125" font-weight="400" font-style="normal" 
>
</g>

<g fill="none" stroke="#000000" stroke-opacity="1" stroke-width="1" stroke-linecap="square" stroke-linejoin="bevel" transform="matrix(1,0,0,-1,126232,72880.1)"
font-family="MS Shell Dlg 2" font-size="10.3125" font-weight="400" font-style="normal" 
>
</g>

<g fill="#333333" fill-opacity="0.2" stroke="#333333" stroke-opacity="1" stroke-width="1" stroke-linecap="round" stroke-linejoin="round" transform="matrix(1,0,0,-1,126232,72880.1)"
font-family="MS Shell Dlg 2" font-size="10.3125" font-weight="400" font-style="normal" 
>
<path vector-effect="non-scaling-stroke" fill-rule="evenodd" d="M20038.5,-40039.8 L20988.4,-40039.8 L21088.6,-40039.8 L22038.5,-40039.8 L22038.5,-59960.2 L21088.6,-59960.2 L20988.4,-59960.2 L20038.5,-59960.2 L20038.5,-40039.8 M20038.5,-40039.9 L20038.5,-59960.1 L20988.4,-59960.1 L21088.6,-59960.1 L22038.5,-59960.1 L22038.5,-40039.9 L21088.6,-40039.9 L20988.4,-40039.9 L20038.5,-40039.9"/>
</g>

<g fill="none" stroke="#000000" stroke-opacity="1" stroke-width="1" stroke-linecap="square" stroke-linejoin="bevel" transform="matrix(1,0,0,-1,126232,72880.1)"
font-family="MS Shell Dlg 2" font-size="10.3125" font-weight="400" font-style="normal" 
>
</g>

<g fill="none" stroke="#000000" stroke-opacity="1" stroke-width="1" stroke-linecap="square" stroke-linejoin="bevel" transform="matrix(1,0,0,-1,126232,72880.1)"
font-family="MS Shell Dlg 2" font-size="10.3125" font-weight="400" font-style="normal" 
>
</g>

<g fill="#333333" fill-opacity="0.2" stroke="#333333" stroke-opacity="1" stroke-width="1" stroke-linecap="round" stroke-linejoin="round" transform="matrix(1,0,0,-1,126232,72880.1)"
font-family="MS Shell Dlg 2" font-size="10.3125" font-weight="400" font-style="normal" 
>
<path vector-effect="non-scaling-stroke" fill-rule="evenodd" d="M-104193,0.01 L-104143,0.01 L-64115.5,0.01 L-63165.7,0.01 L-63065.4,0.01 L-62115.5,0.01 L-62065.7,0.01 L-22038.5,0.01 L-21088.6,0.01 L-21038.5,0.01 L-21038.5,50.1414 L-21038.5,999.988 L-21421.2,923.87 L-21529.9,851.199 L-21529.9,851.198 L-21530,851.198 L-21530,851.199 L-21530,851.202 L-42077,36439.8 L-42077,36439.8 L-42077,36439.8 L-42077,36439.8 L-21038.5,72879.5 L-21038.5,72879.5 L-21038.5,72879.5 L-21038.5,72879.5 L21038.5,72879.5 L21038.5,72879.5 L21038.5,72879.5 L21038.5,72879.5 L42077,36439.8 L42077,36439.8 L42077,36439.8 L42077,36439.8 L21530,851.202 L21530,851.199 L21530,851.198 L21529.9,851.198 L21529.9,851.199 L21421.2,923.87 L21038.5,999.988 L21038.5,50.1414 L21038.5,0.01 L21088.6,0.01 L22038.5,0.01 L22088.4,0.01 L62115.5,0.01 L63065.4,0.01 L63165.7,0.01 L64115.5,0.01 L64165.4,0.01 L104193,0.01 L105142,0.01 L105243,0.01 L106193,0.01 L106242,0.01 L126231,0.01 L126231,0.00924 L126231,0.00707 L126231,0.00383 L126231,0 L126231,-100000 L126231,-100000 L126231,-100000 L126231,-100000 L126231,-100000 L106193,-100000 L105243,-100000 L105142,-100000 L104193,-100000 L104143,-100000 L64115.5,-100000 L63165.7,-100000 L63065.4,-100000 L62115.5,-100000 L62065.7,-100000 L22038.5,-100000 L21088.6,-100000 L21038.5,-100000 L21038.5,-100050 L21038.5,-101000 L21421.2,-100924 L21529.9,-100851 L21529.9,-100851 L21530,-100851 L21530,-100851 L21530,-100851 L42077,-136440 L42077,-136440 L42077,-136440 L42077,-136440 L21038.5,-172880 L21038.5,-172880 L21038.5,-172880 L21038.5,-172880 L-21038.5,-172880 L-21038.5,-172880 L-21038.5,-172880 L-21038.5,-172880 L-42077,-136440 L-42077,-136440 L-42077,-136440 L-42077,-136440 L-21530,-100851 L-21530,-100851 L-21530,-100851 L-21529.9,-100851 L-21529.9,-100851 L-21421.2,-100924 L-21038.5,-101000 L-21038.5,-100050 L-21038.5,-100000 L-21088.6,-100000 L-22038.5,-100000 L-22088.4,-100000 L-62115.5,-100000 L-63065.4,-100000 L-63165.7,-100000 L-64115.5,-100000 L-64165.4,-100000 L-104193,-100000 L-105142,-100000 L-105243,-100000 L-106193,-100000 L-106242,-100000 L-126231,-100000 L-126231,-100000 L-126231,-100000 L-126231,-100000 L-126231,-100000 L-126231,0 L-126231,0.00383 L-126231,0.00707 L-126231,0.00924 L-126231,0.01 L-106193,0.01 L-105243,0.01 L-105142,0.01 L-104193,0.01 M42077,-136440 L21530,-100851 L21421.2,-100924 L21038.5,-101000 L21038.5,-100050 L21038.5,-100000 L21088.6,-100000 L22038.5,-100000 L62065.7,-100000 L62115.5,-100000 L63065.4,-100000 L63165.7,-100000 L64115.5,-100000 L104143,-100000 L104193,-100000 L105142,-100000 L105243,-100000 L106193,-100000 L126231,-100000 L126231,0 L106242,0 L106193,0 L105243,0 L105142,0 L104193,0 L64165.4,0 L64115.5,0 L63165.7,0 L63065.4,0 L62115.5,0 L22088.4,0 L22038.5,0 L21088.6,0 L21038.5,0 L21038.5,50.1414 L21038.5,1000 L21421.2,923.88 L21530,851.207 L42077,36439.8 L21038.5,72879.5 L-21038.5,72879.5 L-42077,36439.8 L-21530,851.207 L-21421.2,923.88 L-21038.5,1000 L-21038.5,50.1414 L-21038.5,0 L-21088.6,0 L-22038.5,0 L-62065.7,0 L-62115.5,0 L-63065.4,0 L-63165.7,0 L-64115.5,0 L-104143,0 L-104193,0 L-105142,0 L-105243,0 L-106193,0 L-126231,0 L-126231,-100000 L-106242,-100000 L-106193,-100000 L-105243,-100000 L-105142,-100000 L-104193,-100000 L-64165.4,-100000 L-64115.5,-100000 L-63165.7,-100000 L-63065.4,-100000 L-62115.5,-100000 L-22088.4,-100000 L-22038.5,-100000 L-21088.6,-100000 L-21038.5,-100000 L-21038.5,-100050 L-21038.5,-101000 L-21421.2,-100924 L-21530,-100851 L-42077,-136440 L-21038.5,-172880 L21038.5,-172880 L42077,-136440"/>
</g>

<g fill="none" stroke="#000000" stroke-opacity="1" stroke-width="1" stroke-linecap="square" stroke-linejoin="bevel" transform="matrix(1,0,0,-1,126232,72880.1)"
font-family="MS Shell Dlg 2" font-size="10.3125" font-weight="400" font-style="normal" 
>
</g>

<g fill="none" stroke="#000000" stroke-opacity="1" stroke-width="1" stroke-linecap="square" stroke-linejoin="bevel" transform="matrix(1,0,0,-1,126232,72880.1)"
font-family="MS Shell Dlg 2" font-size="10.3125" font-weight="400" font-style="normal" 
>
</g>

<g fill="#ae5151" fill-opacity="0.2" stroke="#333333" stroke-opacity="1" stroke-width="1" stroke-linecap="round" stroke-linejoin="round" transform="matrix(1,0,0,-1,126232,72880.1)"
font-family="MS Shell Dlg 2" font-size="10.3125" font-weight="400" font-style="normal" 
>
<path vector-effect="non-scaling-stroke" fill-rule="evenodd" d="M-105243,-40039.8 L-105142,-40039.8 L-104193,-40039.8 L-104193,-59960.2 L-105142,-59960.2 L-105243,-59960.2 L-106193,-59960.2 L-106193,-40039.8 L-105243,-40039.8 M-105243,-40039.9 L-106193,-40039.9 L-106193,-59960.1 L-105243,-59960.1 L-105142,-59960.1 L-104193,-59960.1 L-104193,-40039.9 L-105142,-40039.9 L-105243,-40039.9"/>
</g>

<g fill="none" stroke="#000000" stroke-opacity="1" stroke-width="1" stroke-linecap="square" stroke-linejoin="bevel" transform="matrix(1,0,0,-1,126232,72880.1)"
font-family="MS Shell Dlg 2" font-size="10.3125" font-weight="400" font-style="normal" 
>
</g>

<g fill="none" stroke="#000000" stroke-opacity="1" stroke-width="1" stroke-linecap="square" stroke-linejoin="bevel" transform="matrix(1,0,0,-1,126232,72880.1)"
font-family="MS Shell Dlg 2" font-size="10.3125" font-weight="400" font-style="normal" 
>
</g>

<g fill="#ae5151" fill-opacity="0.2" stroke="#333333" stroke-opacity="1" stroke-width="1" stroke-linecap="round" stroke-linejoin="round" transform="matrix(1,0,0,-1,126232,72880.1)"
font-family="MS Shell Dlg 2" font-size="10.3125" font-weight="400" font-style="normal" 
>
<path vector-effect="non-scaling-stroke" fill-rule="evenodd" d="M4190.94,50.1414 L4190.94,-50.1414 L4190.94,-1000 L-4190.94,-1000 L-4190.94,-50.1414 L-4190.94,50.1414 L-4190.94,1000 L4190.94,1000 L4190.94,50.1414 M4190.93,50.1414 L4190.93,999.99 L-4190.93,999.99 L-4190.93,50.1414 L-4190.93,-50.1414 L-4190.93,-999.99 L4190.93,-999.99 L4190.93,-50.1414 L4190.93,50.1414"/>
</g>

<g fill="none" stroke="#000000" stroke-opacity="1" stroke-width="1" stroke-linecap="square" stroke-linejoin="bevel" transform="matrix(1,0,0,-1,126232,72880.1)"
font-family="MS Shell Dlg 2" font-size="10.3125" font-weight="400" font-style="normal" 
>
</g>

<g fill="none" stroke="#000000" stroke-opacity="1" stroke-width="1" stroke-linecap="square" stroke-linejoin="bevel" transform="matrix(1,0,0,-1,126232,72880.1)"
font-family="MS Shell Dlg 2" font-size="10.3125" font-weight="400" font-style="normal" 
>
</g>

<g fill="#ae5151" fill-opacity="0.2" stroke="#333333" stroke-opacity="1" stroke-width="1" stroke-linecap="round" stroke-linejoin="round" transform="matrix(1,0,0,-1,126232,72880.1)"
font-family="MS Shell Dlg 2" font-size="10.3125" font-weight="400" font-style="normal" 
>
<path vector-effect="non-scaling-stroke" fill-rule="evenodd" d="M-63165.7,-40039.8 L-63065.4,-40039.8 L-62115.5,-40039.8 L-62115.5,-59960.2 L-63065.4,-59960.2 L-63165.7,-59960.2 L-64115.5,-59960.2 L-64115.5,-40039.8 L-63165.7,-40039.8 M-63165.7,-40039.9 L-64115.5,-40039.9 L-64115.5,-59960.1 L-63165.7,-59960.1 L-63065.4,-59960.1 L-62115.5,-59960.1 L-62115.5,-40039.9 L-63065.4,-40039.9 L-63165.7,-40039.9"/>
</g>

<g fill="none" stroke="#000000" stroke-opacity="1" stroke-width="1" stroke-linecap="square" stroke-linejoin="bevel" transform="matrix(1,0,0,-1,126232,72880.1)"
font-family="MS Shell Dlg 2" font-size="10.3125" font-weight="400" font-style="normal" 
>
</g>

<g fill="none" stroke="#000000" stroke-opacity="1" stroke-width="1" stroke-linecap="square" stroke-linejoin="bevel" transform="matrix(1,0,0,-1,126232,72880.1)"
font-family="MS Shell Dlg 2" font-size="10.3125" font-weight="400" font-style="normal" 
>
</g>

<g fill="#ae5151" fill-opacity="0.2" stroke="#333333" stroke-opacity="1" stroke-width="1" stroke-linecap="round" stroke-linejoin="round" transform="matrix(1,0,0,-1,126232,72880.1)"
font-family="MS Shell Dlg 2" font-size="10.3125" font-weight="400" font-style="normal" 
>
<path vector-effect="non-scaling-stroke" fill-rule="evenodd" d="M-20988.4,-59960.2 L-21088.6,-59960.2 L-22038.5,-59960.2 L-22038.5,-40039.8 L-21088.6,-40039.8 L-20988.4,-40039.8 L-20038.5,-40039.8 L-20038.5,-59960.2 L-20988.4,-59960.2 M-20988.4,-59960.1 L-20038.5,-59960.1 L-20038.5,-40039.9 L-20988.4,-40039.9 L-21088.6,-40039.9 L-22038.5,-40039.9 L-22038.5,-59960.1 L-21088.6,-59960.1 L-20988.4,-59960.1"/>
</g>

<g fill="none" stroke="#000000" stroke-opacity="1" stroke-width="1" stroke-linecap="square" stroke-linejoin="bevel" transform="matrix(1,0,0,-1,126232,72880.1)"
font-family="MS Shell Dlg 2" font-size="10.3125" font-weight="400" font-style="normal" 
>
</g>

<g fill="none" stroke="#000000" stroke-opacity="1" stroke-width="1" stroke-linecap="square" stroke-linejoin="bevel" transform="matrix(1,0,0,-1,126232,72880.1)"
font-family="MS Shell Dlg 2" font-size="10.3125" font-weight="400" font-style="normal" 
>
</g>

<g fill="#ae5151" fill-opacity="0.2" stroke="#333333" stroke-opacity="1" stroke-width="1" stroke-linecap="round" stroke-linejoin="round" transform="matrix(1,0,0,-1,126232,72880.1)"
font-family="MS Shell Dlg 2" font-size="10.3125" font-weight="400" font-style="normal" 
>
<path vector-effect="non-scaling-stroke" fill-rule="evenodd" d="M-4190.94,-100050 L-4190.94,-99949.9 L-4190.94,-99000 L4190.94,-99000 L4190.94,-99949.9 L4190.94,-100050 L4190.94,-101000 L-4190.94,-101000 L-4190.94,-100050 M-4190.93,-100050 L-4190.93,-101000 L4190.93,-101000 L4190.93,-100050 L4190.93,-99949.9 L4190.93,-99000 L-4190.93,-99000 L-4190.93,-99949.9 L-4190.93,-100050"/>
</g>

<g fill="none" stroke="#000000" stroke-opacity="1" stroke-width="1" stroke-linecap="square" stroke-linejoin="bevel" transform="matrix(1,0,0,-1,126232,72880.1)"
font-family="MS Shell Dlg 2" font-size="10.3125" font-weight="400" font-style="normal" 
>
</g>

<g fill="none" stroke="#000000" stroke-opacity="1" stroke-width="1" stroke-linecap="square" stroke-linejoin="bevel" transform="matrix(1,0,0,-1,126232,72880.1)"
font-family="MS Shell Dlg 2" font-size="10.3125" font-weight="400" font-style="normal" 
>
</g>

<g fill="#ae5151" fill-opacity="0.2" stroke="#333333" stroke-opacity="1" stroke-width="1" stroke-linecap="round" stroke-linejoin="round" transform="matrix(1,0,0,-1,126232,72880.1)"
font-family="MS Shell Dlg 2" font-size="10.3125" font-weight="400" font-style="normal" 
>
<path vector-effect="non-scaling-stroke" fill-rule="evenodd" d="M104193,-40039.8 L105142,-40039.8 L105243,-40039.8 L106193,-40039.8 L106193,-59960.2 L105243,-59960.2 L105142,-59960.2 L104193,-59960.2 L104193,-40039.8 M104193,-40039.9 L104193,-59960.1 L105142,-59960.1 L105243,-59960.1 L106193,-59960.1 L106193,-40039.9 L105243,-40039.9 L105142,-40039.9 L104193,-40039.9"/>
</g>

<g fill="none" stroke="#000000" stroke-opacity="1" stroke-width="1" stroke-linecap="square" stroke-linejoin="bevel" transform="matrix(1,0,0,-1,126232,72880.1)"
font-family="MS Shell Dlg 2" font-size="10.3125" font-weight="400" font-style="normal" 
>
</g>

<g fill="none" stroke="#000000" stroke-opacity="1" stroke-width="1" stroke-linecap="square" stroke-linejoin="bevel" transform="matrix(1,0,0,-1,126232,72880.1)"
font-family="MS Shell Dlg 2" font-size="10.3125" font-weight="400" font-style="normal" 
>
</g>

<g fill="#ae5151" fill-opacity="0.2" stroke="#333333" stroke-opacity="1" stroke-width="1" stroke-linecap="round" stroke-linejoin="round" transform="matrix(1,0,0,-1,126232,72880.1)"
font-family="MS Shell Dlg 2" font-size="10.3125" font-weight="400" font-style="normal" 
>
<path vector-effect="non-scaling-stroke" fill-rule="evenodd" d="M64115.5,-59960.2 L63165.7,-59960.2 L63065.4,-59960.2 L62115.5,-59960.2 L62115.5,-40039.8 L63065.4,-40039.8 L63165.7,-40039.8 L64115.5,-40039.8 L64115.5,-59960.2 M64115.5,-59960.1 L64115.5,-40039.9 L63165.7,-40039.9 L63065.4,-40039.9 L62115.5,-40039.9 L62115.5,-59960.1 L63065.4,-59960.1 L63165.7,-59960.1 L64115.5,-59960.1"/>
</g>

<g fill="none" stroke="#000000" stroke-opacity="1" stroke-width="1" stroke-linecap="square" stroke-linejoin="bevel" transform="matrix(1,0,0,-1,126232,72880.1)"
font-family="MS Shell Dlg 2" font-size="10.3125" font-weight="400" font-style="normal" 
>
</g>

<g fill="none" stroke="#000000" stroke-opacity="1" stroke-width="1" stroke-linecap="square" stroke-linejoin="bevel" transform="matrix(1,0,0,-1,126232,72880.1)"
font-family="MS Shell Dlg 2" font-size="10.3125" font-weight="400" font-style="normal" 
>
</g>

<g fill="#ae5151" fill-opacity="0.2" stroke="#333333" stroke-opacity="1" stroke-width="1" stroke-linecap="round" stroke-linejoin="round" transform="matrix(1,0,0,-1,126232,72880.1)"
font-family="MS Shell Dlg 2" font-size="10.3125" font-weight="400" font-style="normal" 
>
<path vector-effect="non-scaling-stroke" fill-rule="evenodd" d="M20038.5,-40039.8 L20988.4,-40039.8 L21088.6,-40039.8 L22038.5,-40039.8 L22038.5,-59960.2 L21088.6,-59960.2 L20988.4,-59960.2 L20038.5,-59960.2 L20038.5,-40039.8 M20038.5,-40039.9 L20038.5,-59960.1 L20988.4,-59960.1 L21088.6,-59960.1 L22038.5,-59960.1 L22038.5,-40039.9 L21088.6,-40039.9 L20988.4,-40039.9 L20038.5,-40039.9"/>
</g>

<g fill="none" stroke="#000000" stroke-opacity="1" stroke-width="1" stroke-linecap="square" stroke-linejoin="bevel" transform="matrix(1,0,0,-1,126232,72880.1)"
font-family="MS Shell Dlg 2" font-size="10.3125" font-weight="400" font-style="normal" 
>
</g>

<g fill="none" stroke="#000000" stroke-opacity="1" stroke-width="1" stroke-linecap="square" stroke-linejoin="bevel" transform="matrix(1,0,0,-1,126232,72880.1)"
font-family="MS Shell Dlg 2" font-size="10.3125" font-weight="400" font-style="normal" 
>
</g>

<g fill="#ae5151" fill-opacity="0.2" stroke="#333333" stroke-opacity="1" stroke-width="1" stroke-linecap="round" stroke-linejoin="round" transform="matrix(1,0,0,-1,126232,72880.1)"
font-family="MS Shell Dlg 2" font-size="10.3125" font-weight="400" font-style="normal" 
>
<path vector-effect="non-scaling-stroke" fill-rule="evenodd" d="M-104193,0.01 L-104143,0.01 L-64115.5,0.01 L-63165.7,0.01 L-63065.4,0.01 L-62115.5,0.01 L-62065.7,0.01 L-22038.5,0.01 L-21088.6,0.01 L-21038.5,0.01 L-21038.5,50.1414 L-21038.5,999.988 L-21421.2,923.87 L-21529.9,851.199 L-21529.9,851.198 L-21530,851.198 L-21530,851.199 L-21530,851.202 L-42077,36439.8 L-42077,36439.8 L-42077,36439.8 L-42077,36439.8 L-21038.5,72879.5 L-21038.5,72879.5 L-21038.5,72879.5 L-21038.5,72879.5 L21038.5,72879.5 L21038.5,72879.5 L21038.5,72879.5 L21038.5,72879.5 L42077,36439.8 L42077,36439.8 L42077,36439.8 L42077,36439.8 L21530,851.202 L21530,851.199 L21530,851.198 L21529.9,851.198 L21529.9,851.199 L21421.2,923.87 L21038.5,999.988 L21038.5,50.1414 L21038.5,0.01 L21088.6,0.01 L22038.5,0.01 L22088.4,0.01 L62115.5,0.01 L63065.4,0.01 L63165.7,0.01 L64115.5,0.01 L64165.4,0.01 L104193,0.01 L105142,0.01 L105243,0.01 L106193,0.01 L106242,0.01 L126231,0.01 L126231,0.00924 L126231,0.00707 L126231,0.00383 L126231,0 L126231,-100000 L126231,-100000 L126231,-100000 L126231,-100000 L126231,-100000 L106193,-100000 L105243,-100000 L105142,-100000 L104193,-100000 L104143,-100000 L64115.5,-100000 L63165.7,-100000 L63065.4,-100000 L62115.5,-100000 L62065.7,-100000 L22038.5,-100000 L21088.6,-100000 L21038.5,-100000 L21038.5,-100050 L21038.5,-101000 L21421.2,-100924 L21529.9,-100851 L21529.9,-100851 L21530,-100851 L21530,-100851 L21530,-100851 L42077,-136440 L42077,-136440 L42077,-136440 L42077,-136440 L21038.5,-172880 L21038.5,-172880 L21038.5,-172880 L21038.5,-172880 L-21038.5,-172880 L-21038.5,-172880 L-21038.5,-172880 L-21038.5,-172880 L-42077,-136440 L-42077,-136440 L-42077,-136440 L-42077,-136440 L-21530,-100851 L-21530,-100851 L-21530,-100851 L-21529.9,-100851 L-21529.9,-100851 L-21421.2,-100924 L-21038.5,-101000 L-21038.5,-100050 L-21038.5,-100000 L-21088.6,-100000 L-22038.5,-100000 L-22088.4,-100000 L-62115.5,-100000 L-63065.4,-100000 L-63165.7,-100000 L-64115.5,-100000 L-64165.4,-100000 L-104193,-100000 L-105142,-100000 L-105243,-100000 L-106193,-100000 L-106242,-100000 L-126231,-100000 L-126231,-100000 L-126231,-100000 L-126231,-100000 L-126231,-100000 L-126231,0 L-126231,0.00383 L-126231,0.00707 L-126231,0.00924 L-126231,0.01 L-106193,0.01 L-105243,0.01 L-105142,0.01 L-104193,0.01 M42077,-136440 L21530,-100851 L21421.2,-100924 L21038.5,-101000 L21038.5,-100050 L21038.5,-100000 L21088.6,-100000 L22038.5,-100000 L62065.7,-100000 L62115.5,-100000 L63065.4,-100000 L63165.7,-100000 L64115.5,-100000 L104143,-100000 L104193,-100000 L105142,-100000 L105243,-100000 L106193,-100000 L126231,-100000 L126231,0 L106242,0 L106193,0 L105243,0 L105142,0 L104193,0 L64165.4,0 L64115.5,0 L63165.7,0 L63065.4,0 L62115.5,0 L22088.4,0 L22038.5,0 L21088.6,0 L21038.5,0 L21038.5,50.1414 L21038.5,1000 L21421.2,923.88 L21530,851.207 L42077,36439.8 L21038.5,72879.5 L-21038.5,72879.5 L-42077,36439.8 L-21530,851.207 L-21421.2,923.88 L-21038.5,1000 L-21038.5,50.1414 L-21038.5,0 L-21088.6,0 L-22038.5,0 L-62065.7,0 L-62115.5,0 L-63065.4,0 L-63165.7,0 L-64115.5,0 L-104143,0 L-104193,0 L-105142,0 L-105243,0 L-106193,0 L-126231,0 L-126231,-100000 L-106242,-100000 L-106193,-100000 L-105243,-100000 L-105142,-100000 L-104193,-100000 L-64165.4,-100000 L-64115.5,-100000 L-63165.7,-100000 L-63065.4,-100000 L-62115.5,-100000 L-22088.4,-100000 L-22038.5,-100000 L-21088.6,-100000 L-21038.5,-100000 L-21038.5,-100050 L-21038.5,-101000 L-21421.2,-100924 L-21530,-100851 L-42077,-136440 L-21038.5,-172880 L21038.5,-172880 L42077,-136440"/>
</g>

<g fill="none" stroke="#000000" stroke-opacity="1" stroke-width="1" stroke-linecap="square" stroke-linejoin="bevel" transform="matrix(1,0,0,-1,126232,72880.1)"
font-family="MS Shell Dlg 2" font-size="10.3125" font-weight="400" font-style="normal" 
>
</g>

<g fill="none" stroke="#000000" stroke-opacity="1" stroke-width="1" stroke-linecap="square" stroke-linejoin="bevel" transform="matrix(1,0,0,-1,126232,72880.1)"
font-family="MS Shell Dlg 2" font-size="10.3125" font-weight="400" font-style="normal" 
>
</g>

<g fill="#ffff00" fill-opacity="0.2" stroke="#333333" stroke-opacity="1" stroke-width="1" stroke-linecap="round" stroke-linejoin="round" transform="matrix(1,0,0,-1,126232,72880.1)"
font-family="MS Shell Dlg 2" font-size="10.3125" font-weight="400" font-style="normal" 
>
<path vector-effect="non-scaling-stroke" fill-rule="evenodd" d="M-105243,-40039.8 L-105142,-40039.8 L-104193,-40039.8 L-104193,-59960.2 L-105142,-59960.2 L-105243,-59960.2 L-106193,-59960.2 L-106193,-40039.8 L-105243,-40039.8 M-105243,-40039.9 L-106193,-40039.9 L-106193,-59960.1 L-105243,-59960.1 L-105142,-59960.1 L-104193,-59960.1 L-104193,-40039.9 L-105142,-40039.9 L-105243,-40039.9"/>
</g>

<g fill="none" stroke="#000000" stroke-opacity="1" stroke-width="1" stroke-linecap="square" stroke-linejoin="bevel" transform="matrix(1,0,0,-1,126232,72880.1)"
font-family="MS Shell Dlg 2" font-size="10.3125" font-weight="400" font-style="normal" 
>
</g>

<g fill="none" stroke="#000000" stroke-opacity="1" stroke-width="1" stroke-linecap="square" stroke-linejoin="bevel" transform="matrix(1,0,0,-1,126232,72880.1)"
font-family="MS Shell Dlg 2" font-size="10.3125" font-weight="400" font-style="normal" 
>
</g>

<g fill="#ffff00" fill-opacity="0.2" stroke="#333333" stroke-opacity="1" stroke-width="1" stroke-linecap="round" stroke-linejoin="round" transform="matrix(1,0,0,-1,126232,72880.1)"
font-family="MS Shell Dlg 2" font-size="10.3125" font-weight="400" font-style="normal" 
>
<path vector-effect="non-scaling-stroke" fill-rule="evenodd" d="M4190.94,50.1414 L4190.94,-50.1414 L4190.94,-1000 L-4190.94,-1000 L-4190.94,-50.1414 L-4190.94,50.1414 L-4190.94,1000 L4190.94,1000 L4190.94,50.1414 M4190.93,50.1414 L4190.93,999.99 L-4190.93,999.99 L-4190.93,50.1414 L-4190.93,-50.1414 L-4190.93,-999.99 L4190.93,-999.99 L4190.93,-50.1414 L4190.93,50.1414"/>
</g>

<g fill="none" stroke="#000000" stroke-opacity="1" stroke-width="1" stroke-linecap="square" stroke-linejoin="bevel" transform="matrix(1,0,0,-1,126232,72880.1)"
font-family="MS Shell Dlg 2" font-size="10.3125" font-weight="400" font-style="normal" 
>
</g>

<g fill="none" stroke="#000000" stroke-opacity="1" stroke-width="1" stroke-linecap="square" stroke-linejoin="bevel" transform="matrix(1,0,0,-1,126232,72880.1)"
font-family="MS Shell Dlg 2" font-size="10.3125" font-weight="400" font-style="normal" 
>
</g>

<g fill="#ffff00" fill-opacity="0.2" stroke="#333333" stroke-opacity="1" stroke-width="1" stroke-linecap="round" stroke-linejoin="round" transform="matrix(1,0,0,-1,126232,72880.1)"
font-family="MS Shell Dlg 2" font-size="10.3125" font-weight="400" font-style="normal" 
>
<path vector-effect="non-scaling-stroke" fill-rule="evenodd" d="M-63165.7,-40039.8 L-63065.4,-40039.8 L-62115.5,-40039.8 L-62115.5,-59960.2 L-63065.4,-59960.2 L-63165.7,-59960.2 L-64115.5,-59960.2 L-64115.5,-40039.8 L-63165.7,-40039.8 M-63165.7,-40039.9 L-64115.5,-40039.9 L-64115.5,-59960.1 L-63165.7,-59960.1 L-63065.4,-59960.1 L-62115.5,-59960.1 L-62115.5,-40039.9 L-63065.4,-40039.9 L-63165.7,-40039.9"/>
</g>

<g fill="none" stroke="#000000" stroke-opacity="1" stroke-width="1" stroke-linecap="square" stroke-linejoin="bevel" transform="matrix(1,0,0,-1,126232,72880.1)"
font-family="MS Shell Dlg 2" font-size="10.3125" font-weight="400" font-style="normal" 
>
</g>

<g fill="none" stroke="#000000" stroke-opacity="1" stroke-width="1" stroke-linecap="square" stroke-linejoin="bevel" transform="matrix(1,0,0,-1,126232,72880.1)"
font-family="MS Shell Dlg 2" font-size="10.3125" font-weight="400" font-style="normal" 
>
</g>

<g fill="#ffff00" fill-opacity="0.2" stroke="#333333" stroke-opacity="1" stroke-width="1" stroke-linecap="round" stroke-linejoin="round" transform="matrix(1,0,0,-1,126232,72880.1)"
font-family="MS Shell Dlg 2" font-size="10.3125" font-weight="400" font-style="normal" 
>
<path vector-effect="non-scaling-stroke" fill-rule="evenodd" d="M-20988.4,-59960.2 L-21088.6,-59960.2 L-22038.5,-59960.2 L-22038.5,-40039.8 L-21088.6,-40039.8 L-20988.4,-40039.8 L-20038.5,-40039.8 L-20038.5,-59960.2 L-20988.4,-59960.2 M-20988.4,-59960.1 L-20038.5,-59960.1 L-20038.5,-40039.9 L-20988.4,-40039.9 L-21088.6,-40039.9 L-22038.5,-40039.9 L-22038.5,-59960.1 L-21088.6,-59960.1 L-20988.4,-59960.1"/>
</g>

<g fill="none" stroke="#000000" stroke-opacity="1" stroke-width="1" stroke-linecap="square" stroke-linejoin="bevel" transform="matrix(1,0,0,-1,126232,72880.1)"
font-family="MS Shell Dlg 2" font-size="10.3125" font-weight="400" font-style="normal" 
>
</g>

<g fill="none" stroke="#000000" stroke-opacity="1" stroke-width="1" stroke-linecap="square" stroke-linejoin="bevel" transform="matrix(1,0,0,-1,126232,72880.1)"
font-family="MS Shell Dlg 2" font-size="10.3125" font-weight="400" font-style="normal" 
>
</g>

<g fill="#ffff00" fill-opacity="0.2" stroke="#333333" stroke-opacity="1" stroke-width="1" stroke-linecap="round" stroke-linejoin="round" transform="matrix(1,0,0,-1,126232,72880.1)"
font-family="MS Shell Dlg 2" font-size="10.3125" font-weight="400" font-style="normal" 
>
<path vector-effect="non-scaling-stroke" fill-rule="evenodd" d="M-4190.94,-100050 L-4190.94,-99949.9 L-4190.94,-99000 L4190.94,-99000 L4190.94,-99949.9 L4190.94,-100050 L4190.94,-101000 L-4190.94,-101000 L-4190.94,-100050 M-4190.93,-100050 L-4190.93,-101000 L4190.93,-101000 L4190.93,-100050 L4190.93,-99949.9 L4190.93,-99000 L-4190.93,-99000 L-4190.93,-99949.9 L-4190.93,-100050"/>
</g>

<g fill="none" stroke="#000000" stroke-opacity="1" stroke-width="1" stroke-linecap="square" stroke-linejoin="bevel" transform="matrix(1,0,0,-1,126232,72880.1)"
font-family="MS Shell Dlg 2" font-size="10.3125" font-weight="400" font-style="normal" 
>
</g>

<g fill="none" stroke="#000000" stroke-opacity="1" stroke-width="1" stroke-linecap="square" stroke-linejoin="bevel" transform="matrix(1,0,0,-1,126232,72880.1)"
font-family="MS Shell Dlg 2" font-size="10.3125" font-weight="400" font-style="normal" 
>
</g>

<g fill="#ffff00" fill-opacity="0.2" stroke="#333333" stroke-opacity="1" stroke-width="1" stroke-linecap="round" stroke-linejoin="round" transform="matrix(1,0,0,-1,126232,72880.1)"
font-family="MS Shell Dlg 2" font-size="10.3125" font-weight="400" font-style="normal" 
>
<path vector-effect="non-scaling-stroke" fill-rule="evenodd" d="M104193,-40039.8 L105142,-40039.8 L105243,-40039.8 L106193,-40039.8 L106193,-59960.2 L105243,-59960.2 L105142,-59960.2 L104193,-59960.2 L104193,-40039.8 M104193,-40039.9 L104193,-59960.1 L105142,-59960.1 L105243,-59960.1 L106193,-59960.1 L106193,-40039.9 L105243,-40039.9 L105142,-40039.9 L104193,-40039.9"/>
</g>

<g fill="none" stroke="#000000" stroke-opacity="1" stroke-width="1" stroke-linecap="square" stroke-linejoin="bevel" transform="matrix(1,0,0,-1,126232,72880.1)"
font-family="MS Shell Dlg 2" font-size="10.3125" font-weight="400" font-style="normal" 
>
</g>

<g fill="none" stroke="#000000" stroke-opacity="1" stroke-width="1" stroke-linecap="square" stroke-linejoin="bevel" transform="matrix(1,0,0,-1,126232,72880.1)"
font-family="MS Shell Dlg 2" font-size="10.3125" font-weight="400" font-style="normal" 
>
</g>

<g fill="#ffff00" fill-opacity="0.2" stroke="#333333" stroke-opacity="1" stroke-width="1" stroke-linecap="round" stroke-linejoin="round" transform="matrix(1,0,0,-1,126232,72880.1)"
font-family="MS Shell Dlg 2" font-size="10.3125" font-weight="400" font-style="normal" 
>
<path vector-effect="non-scaling-stroke" fill-rule="evenodd" d="M64115.5,-59960.2 L63165.7,-59960.2 L63065.4,-59960.2 L62115.5,-59960.2 L62115.5,-40039.8 L63065.4,-40039.8 L63165.7,-40039.8 L64115.5,-40039.8 L64115.5,-59960.2 M64115.5,-59960.1 L64115.5,-40039.9 L63165.7,-40039.9 L63065.4,-40039.9 L62115.5,-40039.9 L62115.5,-59960.1 L63065.4,-59960.1 L63165.7,-59960.1 L64115.5,-59960.1"/>
</g>

<g fill="none" stroke="#000000" stroke-opacity="1" stroke-width="1" stroke-linecap="square" stroke-linejoin="bevel" transform="matrix(1,0,0,-1,126232,72880.1)"
font-family="MS Shell Dlg 2" font-size="10.3125" font-weight="400" font-style="normal" 
>
</g>

<g fill="none" stroke="#000000" stroke-opacity="1" stroke-width="1" stroke-linecap="square" stroke-linejoin="bevel" transform="matrix(1,0,0,-1,126232,72880.1)"
font-family="MS Shell Dlg 2" font-size="10.3125" font-weight="400" font-style="normal" 
>
</g>

<g fill="#ffff00" fill-opacity="0.2" stroke="#333333" stroke-opacity="1" stroke-width="1" stroke-linecap="round" stroke-linejoin="round" transform="matrix(1,0,0,-1,126232,72880.1)"
font-family="MS Shell Dlg 2" font-size="10.3125" font-weight="400" font-style="normal" 
>
<path vector-effect="non-scaling-stroke" fill-rule="evenodd" d="M20038.5,-40039.8 L20988.4,-40039.8 L21088.6,-40039.8 L22038.5,-40039.8 L22038.5,-59960.2 L21088.6,-59960.2 L20988.4,-59960.2 L20038.5,-59960.2 L20038.5,-40039.8 M20038.5,-40039.9 L20038.5,-59960.1 L20988.4,-59960.1 L21088.6,-59960.1 L22038.5,-59960.1 L22038.5,-40039.9 L21088.6,-40039.9 L20988.4,-40039.9 L20038.5,-40039.9"/>
</g>

<g fill="none" stroke="#000000" stroke-opacity="1" stroke-width="1" stroke-linecap="square" stroke-linejoin="bevel" transform="matrix(1,0,0,-1,126232,72880.1)"
font-family="MS Shell Dlg 2" font-size="10.3125" font-weight="400" font-style="normal" 
>
</g>

<g fill="none" stroke="#000000" stroke-opacity="1" stroke-width="1" stroke-linecap="square" stroke-linejoin="bevel" transform="matrix(1,0,0,-1,126232,72880.1)"
font-family="MS Shell Dlg 2" font-size="10.3125" font-weight="400" font-style="normal" 
>
</g>

<g fill="#ffff00" fill-opacity="0.2" stroke="#333333" stroke-opacity="1" stroke-width="1" stroke-linecap="round" stroke-linejoin="round" transform="matrix(1,0,0,-1,126232,72880.1)"
font-family="MS Shell Dlg 2" font-size="10.3125" font-weight="400" font-style="normal" 
>
<path vector-effect="non-scaling-stroke" fill-rule="evenodd" d="M-104193,0.01 L-104143,0.01 L-64115.5,0.01 L-63165.7,0.01 L-63065.4,0.01 L-62115.5,0.01 L-62065.7,0.01 L-22038.5,0.01 L-21088.6,0.01 L-21038.5,0.01 L-21038.5,50.1414 L-21038.5,999.988 L-21421.2,923.87 L-21529.9,851.199 L-21529.9,851.198 L-21530,851.198 L-21530,851.199 L-21530,851.202 L-42077,36439.8 L-42077,36439.8 L-42077,36439.8 L-42077,36439.8 L-21038.5,72879.5 L-21038.5,72879.5 L-21038.5,72879.5 L-21038.5,72879.5 L21038.5,72879.5 L21038.5,72879.5 L21038.5,72879.5 L21038.5,72879.5 L42077,36439.8 L42077,36439.8 L42077,36439.8 L42077,36439.8 L21530,851.202 L21530,851.199 L21530,851.198 L21529.9,851.198 L21529.9,851.199 L21421.2,923.87 L21038.5,999.988 L21038.5,50.1414 L21038.5,0.01 L21088.6,0.01 L22038.5,0.01 L22088.4,0.01 L62115.5,0.01 L63065.4,0.01 L63165.7,0.01 L64115.5,0.01 L64165.4,0.01 L104193,0.01 L105142,0.01 L105243,0.01 L106193,0.01 L106242,0.01 L126231,0.01 L126231,0.00924 L126231,0.00707 L126231,0.00383 L126231,0 L126231,-100000 L126231,-100000 L126231,-100000 L126231,-100000 L126231,-100000 L106193,-100000 L105243,-100000 L105142,-100000 L104193,-100000 L104143,-100000 L64115.5,-100000 L63165.7,-100000 L63065.4,-100000 L62115.5,-100000 L62065.7,-100000 L22038.5,-100000 L21088.6,-100000 L21038.5,-100000 L21038.5,-100050 L21038.5,-101000 L21421.2,-100924 L21529.9,-100851 L21529.9,-100851 L21530,-100851 L21530,-100851 L21530,-100851 L42077,-136440 L42077,-136440 L42077,-136440 L42077,-136440 L21038.5,-172880 L21038.5,-172880 L21038.5,-172880 L21038.5,-172880 L-21038.5,-172880 L-21038.5,-172880 L-21038.5,-172880 L-21038.5,-172880 L-42077,-136440 L-42077,-136440 L-42077,-136440 L-42077,-136440 L-21530,-100851 L-21530,-100851 L-21530,-100851 L-21529.9,-100851 L-21529.9,-100851 L-21421.2,-100924 L-21038.5,-101000 L-21038.5,-100050 L-21038.5,-100000 L-21088.6,-100000 L-22038.5,-100000 L-22088.4,-100000 L-62115.5,-100000 L-63065.4,-100000 L-63165.7,-100000 L-64115.5,-100000 L-64165.4,-100000 L-104193,-100000 L-105142,-100000 L-105243,-100000 L-106193,-100000 L-106242,-100000 L-126231,-100000 L-126231,-100000 L-126231,-100000 L-126231,-100000 L-126231,-100000 L-126231,0 L-126231,0.00383 L-126231,0.00707 L-126231,0.00924 L-126231,0.01 L-106193,0.01 L-105243,0.01 L-105142,0.01 L-104193,0.01 M42077,-136440 L21530,-100851 L21421.2,-100924 L21038.5,-101000 L21038.5,-100050 L21038.5,-100000 L21088.6,-100000 L22038.5,-100000 L62065.7,-100000 L62115.5,-100000 L63065.4,-100000 L63165.7,-100000 L64115.5,-100000 L104143,-100000 L104193,-100000 L105142,-100000 L105243,-100000 L106193,-100000 L126231,-100000 L126231,0 L106242,0 L106193,0 L105243,0 L105142,0 L104193,0 L64165.4,0 L64115.5,0 L63165.7,0 L63065.4,0 L62115.5,0 L22088.4,0 L22038.5,0 L21088.6,0 L21038.5,0 L21038.5,50.1414 L21038.5,1000 L21421.2,923.88 L21530,851.207 L42077,36439.8 L21038.5,72879.5 L-21038.5,72879.5 L-42077,36439.8 L-21530,851.207 L-21421.2,923.88 L-21038.5,1000 L-21038.5,50.1414 L-21038.5,0 L-21088.6,0 L-22038.5,0 L-62065.7,0 L-62115.5,0 L-63065.4,0 L-63165.7,0 L-64115.5,0 L-104143,0 L-104193,0 L-105142,0 L-105243,0 L-106193,0 L-126231,0 L-126231,-100000 L-106242,-100000 L-106193,-100000 L-105243,-100000 L-105142,-100000 L-104193,-100000 L-64165.4,-100000 L-64115.5,-100000 L-63165.7,-100000 L-63065.4,-100000 L-62115.5,-100000 L-22088.4,-100000 L-22038.5,-100000 L-21088.6,-100000 L-21038.5,-100000 L-21038.5,-100050 L-21038.5,-101000 L-21421.2,-100924 L-21530,-100851 L-42077,-136440 L-21038.5,-172880 L21038.5,-172880 L42077,-136440"/>
</g>

<g fill="none" stroke="#000000" stroke-opacity="1" stroke-width="1" stroke-linecap="square" stroke-linejoin="bevel" transform="matrix(1,0,0,-1,126232,72880.1)"
font-family="MS Shell Dlg 2" font-size="10.3125" font-weight="400" font-style="normal" 
>
</g>

<g fill="none" stroke="#000000" stroke-opacity="1" stroke-width="1" stroke-linecap="square" stroke-linejoin="bevel" transform="matrix(1,0,0,-1,126232,72880.1)"
font-family="MS Shell Dlg 2" font-size="10.3125" font-weight="400" font-style="normal" 
>
</g>

<g fill="#ae5151" fill-opacity="0.2" stroke="#333333" stroke-opacity="1" stroke-width="1" stroke-linecap="round" stroke-linejoin="round" transform="matrix(1,0,0,-1,126232,72880.1)"
font-family="MS Shell Dlg 2" font-size="10.3125" font-weight="400" font-style="normal" 
>
<path vector-effect="non-scaling-stroke" fill-rule="evenodd" d="M-105243,-40039.8 L-105142,-40039.8 L-104193,-40039.8 L-104193,-59960.2 L-105142,-59960.2 L-105243,-59960.2 L-106193,-59960.2 L-106193,-40039.8 L-105243,-40039.8 M-105243,-40039.9 L-106193,-40039.9 L-106193,-59960.1 L-105243,-59960.1 L-105142,-59960.1 L-104193,-59960.1 L-104193,-40039.9 L-105142,-40039.9 L-105243,-40039.9"/>
</g>

<g fill="none" stroke="#000000" stroke-opacity="1" stroke-width="1" stroke-linecap="square" stroke-linejoin="bevel" transform="matrix(1,0,0,-1,126232,72880.1)"
font-family="MS Shell Dlg 2" font-size="10.3125" font-weight="400" font-style="normal" 
>
</g>

<g fill="none" stroke="#000000" stroke-opacity="1" stroke-width="1" stroke-linecap="square" stroke-linejoin="bevel" transform="matrix(1,0,0,-1,126232,72880.1)"
font-family="MS Shell Dlg 2" font-size="10.3125" font-weight="400" font-style="normal" 
>
</g>

<g fill="#ae5151" fill-opacity="0.2" stroke="#333333" stroke-opacity="1" stroke-width="1" stroke-linecap="round" stroke-linejoin="round" transform="matrix(1,0,0,-1,126232,72880.1)"
font-family="MS Shell Dlg 2" font-size="10.3125" font-weight="400" font-style="normal" 
>
<path vector-effect="non-scaling-stroke" fill-rule="evenodd" d="M4190.94,50.1414 L4190.94,-50.1414 L4190.94,-1000 L-4190.94,-1000 L-4190.94,-50.1414 L-4190.94,50.1414 L-4190.94,1000 L4190.94,1000 L4190.94,50.1414 M4190.93,50.1414 L4190.93,999.99 L-4190.93,999.99 L-4190.93,50.1414 L-4190.93,-50.1414 L-4190.93,-999.99 L4190.93,-999.99 L4190.93,-50.1414 L4190.93,50.1414"/>
</g>

<g fill="none" stroke="#000000" stroke-opacity="1" stroke-width="1" stroke-linecap="square" stroke-linejoin="bevel" transform="matrix(1,0,0,-1,126232,72880.1)"
font-family="MS Shell Dlg 2" font-size="10.3125" font-weight="400" font-style="normal" 
>
</g>

<g fill="none" stroke="#000000" stroke-opacity="1" stroke-width="1" stroke-linecap="square" stroke-linejoin="bevel" transform="matrix(1,0,0,-1,126232,72880.1)"
font-family="MS Shell Dlg 2" font-size="10.3125" font-weight="400" font-style="normal" 
>
</g>

<g fill="#ae5151" fill-opacity="0.2" stroke="#333333" stroke-opacity="1" stroke-width="1" stroke-linecap="round" stroke-linejoin="round" transform="matrix(1,0,0,-1,126232,72880.1)"
font-family="MS Shell Dlg 2" font-size="10.3125" font-weight="400" font-style="normal" 
>
<path vector-effect="non-scaling-stroke" fill-rule="evenodd" d="M-63165.7,-40039.8 L-63065.4,-40039.8 L-62115.5,-40039.8 L-62115.5,-59960.2 L-63065.4,-59960.2 L-63165.7,-59960.2 L-64115.5,-59960.2 L-64115.5,-40039.8 L-63165.7,-40039.8 M-63165.7,-40039.9 L-64115.5,-40039.9 L-64115.5,-59960.1 L-63165.7,-59960.1 L-63065.4,-59960.1 L-62115.5,-59960.1 L-62115.5,-40039.9 L-63065.4,-40039.9 L-63165.7,-40039.9"/>
</g>

<g fill="none" stroke="#000000" stroke-opacity="1" stroke-width="1" stroke-linecap="square" stroke-linejoin="bevel" transform="matrix(1,0,0,-1,126232,72880.1)"
font-family="MS Shell Dlg 2" font-size="10.3125" font-weight="400" font-style="normal" 
>
</g>

<g fill="none" stroke="#000000" stroke-opacity="1" stroke-width="1" stroke-linecap="square" stroke-linejoin="bevel" transform="matrix(1,0,0,-1,126232,72880.1)"
font-family="MS Shell Dlg 2" font-size="10.3125" font-weight="400" font-style="normal" 
>
</g>

<g fill="#ae5151" fill-opacity="0.2" stroke="#333333" stroke-opacity="1" stroke-width="1" stroke-linecap="round" stroke-linejoin="round" transform="matrix(1,0,0,-1,126232,72880.1)"
font-family="MS Shell Dlg 2" font-size="10.3125" font-weight="400" font-style="normal" 
>
<path vector-effect="non-scaling-stroke" fill-rule="evenodd" d="M-20988.4,-59960.2 L-21088.6,-59960.2 L-22038.5,-59960.2 L-22038.5,-40039.8 L-21088.6,-40039.8 L-20988.4,-40039.8 L-20038.5,-40039.8 L-20038.5,-59960.2 L-20988.4,-59960.2 M-20988.4,-59960.1 L-20038.5,-59960.1 L-20038.5,-40039.9 L-20988.4,-40039.9 L-21088.6,-40039.9 L-22038.5,-40039.9 L-22038.5,-59960.1 L-21088.6,-59960.1 L-20988.4,-59960.1"/>
</g>

<g fill="none" stroke="#000000" stroke-opacity="1" stroke-width="1" stroke-linecap="square" stroke-linejoin="bevel" transform="matrix(1,0,0,-1,126232,72880.1)"
font-family="MS Shell Dlg 2" font-size="10.3125" font-weight="400" font-style="normal" 
>
</g>

<g fill="none" stroke="#000000" stroke-opacity="1" stroke-width="1" stroke-linecap="square" stroke-linejoin="bevel" transform="matrix(1,0,0,-1,126232,72880.1)"
font-family="MS Shell Dlg 2" font-size="10.3125" font-weight="400" font-style="normal" 
>
</g>

<g fill="#ae5151" fill-opacity="0.2" stroke="#333333" stroke-opacity="1" stroke-width="1" stroke-linecap="round" stroke-linejoin="round" transform="matrix(1,0,0,-1,126232,72880.1)"
font-family="MS Shell Dlg 2" font-size="10.3125" font-weight="400" font-style="normal" 
>
<path vector-effect="non-scaling-stroke" fill-rule="evenodd" d="M-4190.94,-100050 L-4190.94,-99949.9 L-4190.94,-99000 L4190.94,-99000 L4190.94,-99949.9 L4190.94,-100050 L4190.94,-101000 L-4190.94,-101000 L-4190.94,-100050 M-4190.93,-100050 L-4190.93,-101000 L4190.93,-101000 L4190.93,-100050 L4190.93,-99949.9 L4190.93,-99000 L-4190.93,-99000 L-4190.93,-99949.9 L-4190.93,-100050"/>
</g>

<g fill="none" stroke="#000000" stroke-opacity="1" stroke-width="1" stroke-linecap="square" stroke-linejoin="bevel" transform="matrix(1,0,0,-1,126232,72880.1)"
font-family="MS Shell Dlg 2" font-size="10.3125" font-weight="400" font-style="normal" 
>
</g>

<g fill="none" stroke="#000000" stroke-opacity="1" stroke-width="1" stroke-linecap="square" stroke-linejoin="bevel" transform="matrix(1,0,0,-1,126232,72880.1)"
font-family="MS Shell Dlg 2" font-size="10.3125" font-weight="400" font-style="normal" 
>
</g>

<g fill="#ae5151" fill-opacity="0.2" stroke="#333333" stroke-opacity="1" stroke-width="1" stroke-linecap="round" stroke-linejoin="round" transform="matrix(1,0,0,-1,126232,72880.1)"
font-family="MS Shell Dlg 2" font-size="10.3125" font-weight="400" font-style="normal" 
>
<path vector-effect="non-scaling-stroke" fill-rule="evenodd" d="M104193,-40039.8 L105142,-40039.8 L105243,-40039.8 L106193,-40039.8 L106193,-59960.2 L105243,-59960.2 L105142,-59960.2 L104193,-59960.2 L104193,-40039.8 M104193,-40039.9 L104193,-59960.1 L105142,-59960.1 L105243,-59960.1 L106193,-59960.1 L106193,-40039.9 L105243,-40039.9 L105142,-40039.9 L104193,-40039.9"/>
</g>

<g fill="none" stroke="#000000" stroke-opacity="1" stroke-width="1" stroke-linecap="square" stroke-linejoin="bevel" transform="matrix(1,0,0,-1,126232,72880.1)"
font-family="MS Shell Dlg 2" font-size="10.3125" font-weight="400" font-style="normal" 
>
</g>

<g fill="none" stroke="#000000" stroke-opacity="1" stroke-width="1" stroke-linecap="square" stroke-linejoin="bevel" transform="matrix(1,0,0,-1,126232,72880.1)"
font-family="MS Shell Dlg 2" font-size="10.3125" font-weight="400" font-style="normal" 
>
</g>

<g fill="#ae5151" fill-opacity="0.2" stroke="#333333" stroke-opacity="1" stroke-width="1" stroke-linecap="round" stroke-linejoin="round" transform="matrix(1,0,0,-1,126232,72880.1)"
font-family="MS Shell Dlg 2" font-size="10.3125" font-weight="400" font-style="normal" 
>
<path vector-effect="non-scaling-stroke" fill-rule="evenodd" d="M64115.5,-59960.2 L63165.7,-59960.2 L63065.4,-59960.2 L62115.5,-59960.2 L62115.5,-40039.8 L63065.4,-40039.8 L63165.7,-40039.8 L64115.5,-40039.8 L64115.5,-59960.2 M64115.5,-59960.1 L64115.5,-40039.9 L63165.7,-40039.9 L63065.4,-40039.9 L62115.5,-40039.9 L62115.5,-59960.1 L63065.4,-59960.1 L63165.7,-59960.1 L64115.5,-59960.1"/>
</g>

<g fill="none" stroke="#000000" stroke-opacity="1" stroke-width="1" stroke-linecap="square" stroke-linejoin="bevel" transform="matrix(1,0,0,-1,126232,72880.1)"
font-family="MS Shell Dlg 2" font-size="10.3125" font-weight="400" font-style="normal" 
>
</g>

<g fill="none" stroke="#000000" stroke-opacity="1" stroke-width="1" stroke-linecap="square" stroke-linejoin="bevel" transform="matrix(1,0,0,-1,126232,72880.1)"
font-family="MS Shell Dlg 2" font-size="10.3125" font-weight="400" font-style="normal" 
>
</g>

<g fill="#ae5151" fill-opacity="0.2" stroke="#333333" stroke-opacity="1" stroke-width="1" stroke-linecap="round" stroke-linejoin="round" transform="matrix(1,0,0,-1,126232,72880.1)"
font-family="MS Shell Dlg 2" font-size="10.3125" font-weight="400" font-style="normal" 
>
<path vector-effect="non-scaling-stroke" fill-rule="evenodd" d="M20038.5,-40039.8 L20988.4,-40039.8 L21088.6,-40039.8 L22038.5,-40039.8 L22038.5,-59960.2 L21088.6,-59960.2 L20988.4,-59960.2 L20038.5,-59960.2 L20038.5,-40039.8 M20038.5,-40039.9 L20038.5,-59960.1 L20988.4,-59960.1 L21088.6,-59960.1 L22038.5,-59960.1 L22038.5,-40039.9 L21088.6,-40039.9 L20988.4,-40039.9 L20038.5,-40039.9"/>
</g>

<g fill="none" stroke="#000000" stroke-opacity="1" stroke-width="1" stroke-linecap="square" stroke-linejoin="bevel" transform="matrix(1,0,0,-1,126232,72880.1)"
font-family="MS Shell Dlg 2" font-size="10.3125" font-weight="400" font-style="normal" 
>
</g>

<g fill="none" stroke="#000000" stroke-opacity="1" stroke-width="1" stroke-linecap="square" stroke-linejoin="bevel" transform="matrix(1,0,0,-1,126232,72880.1)"
font-family="MS Shell Dlg 2" font-size="10.3125" font-weight="400" font-style="normal" 
>
</g>

<g fill="#ae5151" fill-opacity="0.2" stroke="#333333" stroke-opacity="1" stroke-width="1" stroke-linecap="round" stroke-linejoin="round" transform="matrix(1,0,0,-1,126232,72880.1)"
font-family="MS Shell Dlg 2" font-size="10.3125" font-weight="400" font-style="normal" 
>
<path vector-effect="non-scaling-stroke" fill-rule="evenodd" d="M-104193,0.01 L-104143,0.01 L-64115.5,0.01 L-63165.7,0.01 L-63065.4,0.01 L-62115.5,0.01 L-62065.7,0.01 L-22038.5,0.01 L-21088.6,0.01 L-21038.5,0.01 L-21038.5,50.1414 L-21038.5,999.988 L-21421.2,923.87 L-21529.9,851.199 L-21529.9,851.198 L-21530,851.198 L-21530,851.199 L-21530,851.202 L-42077,36439.8 L-42077,36439.8 L-42077,36439.8 L-42077,36439.8 L-21038.5,72879.5 L-21038.5,72879.5 L-21038.5,72879.5 L-21038.5,72879.5 L21038.5,72879.5 L21038.5,72879.5 L21038.5,72879.5 L21038.5,72879.5 L42077,36439.8 L42077,36439.8 L42077,36439.8 L42077,36439.8 L21530,851.202 L21530,851.199 L21530,851.198 L21529.9,851.198 L21529.9,851.199 L21421.2,923.87 L21038.5,999.988 L21038.5,50.1414 L21038.5,0.01 L21088.6,0.01 L22038.5,0.01 L22088.4,0.01 L62115.5,0.01 L63065.4,0.01 L63165.7,0.01 L64115.5,0.01 L64165.4,0.01 L104193,0.01 L105142,0.01 L105243,0.01 L106193,0.01 L106242,0.01 L126231,0.01 L126231,0.00924 L126231,0.00707 L126231,0.00383 L126231,0 L126231,-100000 L126231,-100000 L126231,-100000 L126231,-100000 L126231,-100000 L106193,-100000 L105243,-100000 L105142,-100000 L104193,-100000 L104143,-100000 L64115.5,-100000 L63165.7,-100000 L63065.4,-100000 L62115.5,-100000 L62065.7,-100000 L22038.5,-100000 L21088.6,-100000 L21038.5,-100000 L21038.5,-100050 L21038.5,-101000 L21421.2,-100924 L21529.9,-100851 L21529.9,-100851 L21530,-100851 L21530,-100851 L21530,-100851 L42077,-136440 L42077,-136440 L42077,-136440 L42077,-136440 L21038.5,-172880 L21038.5,-172880 L21038.5,-172880 L21038.5,-172880 L-21038.5,-172880 L-21038.5,-172880 L-21038.5,-172880 L-21038.5,-172880 L-42077,-136440 L-42077,-136440 L-42077,-136440 L-42077,-136440 L-21530,-100851 L-21530,-100851 L-21530,-100851 L-21529.9,-100851 L-21529.9,-100851 L-21421.2,-100924 L-21038.5,-101000 L-21038.5,-100050 L-21038.5,-100000 L-21088.6,-100000 L-22038.5,-100000 L-22088.4,-100000 L-62115.5,-100000 L-63065.4,-100000 L-63165.7,-100000 L-64115.5,-100000 L-64165.4,-100000 L-104193,-100000 L-105142,-100000 L-105243,-100000 L-106193,-100000 L-106242,-100000 L-126231,-100000 L-126231,-100000 L-126231,-100000 L-126231,-100000 L-126231,-100000 L-126231,0 L-126231,0.00383 L-126231,0.00707 L-126231,0.00924 L-126231,0.01 L-106193,0.01 L-105243,0.01 L-105142,0.01 L-104193,0.01 M42077,-136440 L21530,-100851 L21421.2,-100924 L21038.5,-101000 L21038.5,-100050 L21038.5,-100000 L21088.6,-100000 L22038.5,-100000 L62065.7,-100000 L62115.5,-100000 L63065.4,-100000 L63165.7,-100000 L64115.5,-100000 L104143,-100000 L104193,-100000 L105142,-100000 L105243,-100000 L106193,-100000 L126231,-100000 L126231,0 L106242,0 L106193,0 L105243,0 L105142,0 L104193,0 L64165.4,0 L64115.5,0 L63165.7,0 L63065.4,0 L62115.5,0 L22088.4,0 L22038.5,0 L21088.6,0 L21038.5,0 L21038.5,50.1414 L21038.5,1000 L21421.2,923.88 L21530,851.207 L42077,36439.8 L21038.5,72879.5 L-21038.5,72879.5 L-42077,36439.8 L-21530,851.207 L-21421.2,923.88 L-21038.5,1000 L-21038.5,50.1414 L-21038.5,0 L-21088.6,0 L-22038.5,0 L-62065.7,0 L-62115.5,0 L-63065.4,0 L-63165.7,0 L-64115.5,0 L-104143,0 L-104193,0 L-105142,0 L-105243,0 L-106193,0 L-126231,0 L-126231,-100000 L-106242,-100000 L-106193,-100000 L-105243,-100000 L-105142,-100000 L-104193,-100000 L-64165.4,-100000 L-64115.5,-100000 L-63165.7,-100000 L-63065.4,-100000 L-62115.5,-100000 L-22088.4,-100000 L-22038.5,-100000 L-21088.6,-100000 L-21038.5,-100000 L-21038.5,-100050 L-21038.5,-101000 L-21421.2,-100924 L-21530,-100851 L-42077,-136440 L-21038.5,-172880 L21038.5,-172880 L42077,-136440"/>
</g>

<g fill="none" stroke="#000000" stroke-opacity="1" stroke-width="1" stroke-linecap="square" stroke-linejoin="bevel" transform="matrix(1,0,0,-1,126232,72880.1)"
font-family="MS Shell Dlg 2" font-size="10.3125" font-weight="400" font-style="normal" 
>
</g>

<g fill="none" stroke="#000000" stroke-opacity="1" stroke-width="1" stroke-linecap="square" stroke-linejoin="bevel" transform="matrix(1,0,0,-1,126232,72880.1)"
font-family="MS Shell Dlg 2" font-size="10.3125" font-weight="400" font-style="normal" 
>
</g>

<g fill="#333333" fill-opacity="0.2" stroke="#333333" stroke-opacity="1" stroke-width="1" stroke-linecap="round" stroke-linejoin="round" transform="matrix(1,0,0,-1,126232,72880.1)"
font-family="MS Shell Dlg 2" font-size="10.3125" font-weight="400" font-style="normal" 
>
<path vector-effect="non-scaling-stroke" fill-rule="evenodd" d="M-105243,-40039.8 L-105142,-40039.8 L-104193,-40039.8 L-104193,-59960.2 L-105142,-59960.2 L-105243,-59960.2 L-106193,-59960.2 L-106193,-40039.8 L-105243,-40039.8 M-105243,-40039.9 L-106193,-40039.9 L-106193,-59960.1 L-105243,-59960.1 L-105142,-59960.1 L-104193,-59960.1 L-104193,-40039.9 L-105142,-40039.9 L-105243,-40039.9"/>
</g>

<g fill="none" stroke="#000000" stroke-opacity="1" stroke-width="1" stroke-linecap="square" stroke-linejoin="bevel" transform="matrix(1,0,0,-1,126232,72880.1)"
font-family="MS Shell Dlg 2" font-size="10.3125" font-weight="400" font-style="normal" 
>
</g>

<g fill="none" stroke="#000000" stroke-opacity="1" stroke-width="1" stroke-linecap="square" stroke-linejoin="bevel" transform="matrix(1,0,0,-1,126232,72880.1)"
font-family="MS Shell Dlg 2" font-size="10.3125" font-weight="400" font-style="normal" 
>
</g>

<g fill="#333333" fill-opacity="0.2" stroke="#333333" stroke-opacity="1" stroke-width="1" stroke-linecap="round" stroke-linejoin="round" transform="matrix(1,0,0,-1,126232,72880.1)"
font-family="MS Shell Dlg 2" font-size="10.3125" font-weight="400" font-style="normal" 
>
<path vector-effect="non-scaling-stroke" fill-rule="evenodd" d="M4190.94,50.1414 L4190.94,-50.1414 L4190.94,-1000 L-4190.94,-1000 L-4190.94,-50.1414 L-4190.94,50.1414 L-4190.94,1000 L4190.94,1000 L4190.94,50.1414 M4190.93,50.1414 L4190.93,999.99 L-4190.93,999.99 L-4190.93,50.1414 L-4190.93,-50.1414 L-4190.93,-999.99 L4190.93,-999.99 L4190.93,-50.1414 L4190.93,50.1414"/>
</g>

<g fill="none" stroke="#000000" stroke-opacity="1" stroke-width="1" stroke-linecap="square" stroke-linejoin="bevel" transform="matrix(1,0,0,-1,126232,72880.1)"
font-family="MS Shell Dlg 2" font-size="10.3125" font-weight="400" font-style="normal" 
>
</g>

<g fill="none" stroke="#000000" stroke-opacity="1" stroke-width="1" stroke-linecap="square" stroke-linejoin="bevel" transform="matrix(1,0,0,-1,126232,72880.1)"
font-family="MS Shell Dlg 2" font-size="10.3125" font-weight="400" font-style="normal" 
>
</g>

<g fill="#333333" fill-opacity="0.2" stroke="#333333" stroke-opacity="1" stroke-width="1" stroke-linecap="round" stroke-linejoin="round" transform="matrix(1,0,0,-1,126232,72880.1)"
font-family="MS Shell Dlg 2" font-size="10.3125" font-weight="400" font-style="normal" 
>
<path vector-effect="non-scaling-stroke" fill-rule="evenodd" d="M-63165.7,-40039.8 L-63065.4,-40039.8 L-62115.5,-40039.8 L-62115.5,-59960.2 L-63065.4,-59960.2 L-63165.7,-59960.2 L-64115.5,-59960.2 L-64115.5,-40039.8 L-63165.7,-40039.8 M-63165.7,-40039.9 L-64115.5,-40039.9 L-64115.5,-59960.1 L-63165.7,-59960.1 L-63065.4,-59960.1 L-62115.5,-59960.1 L-62115.5,-40039.9 L-63065.4,-40039.9 L-63165.7,-40039.9"/>
</g>

<g fill="none" stroke="#000000" stroke-opacity="1" stroke-width="1" stroke-linecap="square" stroke-linejoin="bevel" transform="matrix(1,0,0,-1,126232,72880.1)"
font-family="MS Shell Dlg 2" font-size="10.3125" font-weight="400" font-style="normal" 
>
</g>

<g fill="none" stroke="#000000" stroke-opacity="1" stroke-width="1" stroke-linecap="square" stroke-linejoin="bevel" transform="matrix(1,0,0,-1,126232,72880.1)"
font-family="MS Shell Dlg 2" font-size="10.3125" font-weight="400" font-style="normal" 
>
</g>

<g fill="#333333" fill-opacity="0.2" stroke="#333333" stroke-opacity="1" stroke-width="1" stroke-linecap="round" stroke-linejoin="round" transform="matrix(1,0,0,-1,126232,72880.1)"
font-family="MS Shell Dlg 2" font-size="10.3125" font-weight="400" font-style="normal" 
>
<path vector-effect="non-scaling-stroke" fill-rule="evenodd" d="M-20988.4,-59960.2 L-21088.6,-59960.2 L-22038.5,-59960.2 L-22038.5,-40039.8 L-21088.6,-40039.8 L-20988.4,-40039.8 L-20038.5,-40039.8 L-20038.5,-59960.2 L-20988.4,-59960.2 M-20988.4,-59960.1 L-20038.5,-59960.1 L-20038.5,-40039.9 L-20988.4,-40039.9 L-21088.6,-40039.9 L-22038.5,-40039.9 L-22038.5,-59960.1 L-21088.6,-59960.1 L-20988.4,-59960.1"/>
</g>

<g fill="none" stroke="#000000" stroke-opacity="1" stroke-width="1" stroke-linecap="square" stroke-linejoin="bevel" transform="matrix(1,0,0,-1,126232,72880.1)"
font-family="MS Shell Dlg 2" font-size="10.3125" font-weight="400" font-style="normal" 
>
</g>

<g fill="none" stroke="#000000" stroke-opacity="1" stroke-width="1" stroke-linecap="square" stroke-linejoin="bevel" transform="matrix(1,0,0,-1,126232,72880.1)"
font-family="MS Shell Dlg 2" font-size="10.3125" font-weight="400" font-style="normal" 
>
</g>

<g fill="#333333" fill-opacity="0.2" stroke="#333333" stroke-opacity="1" stroke-width="1" stroke-linecap="round" stroke-linejoin="round" transform="matrix(1,0,0,-1,126232,72880.1)"
font-family="MS Shell Dlg 2" font-size="10.3125" font-weight="400" font-style="normal" 
>
<path vector-effect="non-scaling-stroke" fill-rule="evenodd" d="M-4190.94,-100050 L-4190.94,-99949.9 L-4190.94,-99000 L4190.94,-99000 L4190.94,-99949.9 L4190.94,-100050 L4190.94,-101000 L-4190.94,-101000 L-4190.94,-100050 M-4190.93,-100050 L-4190.93,-101000 L4190.93,-101000 L4190.93,-100050 L4190.93,-99949.9 L4190.93,-99000 L-4190.93,-99000 L-4190.93,-99949.9 L-4190.93,-100050"/>
</g>

<g fill="none" stroke="#000000" stroke-opacity="1" stroke-width="1" stroke-linecap="square" stroke-linejoin="bevel" transform="matrix(1,0,0,-1,126232,72880.1)"
font-family="MS Shell Dlg 2" font-size="10.3125" font-weight="400" font-style="normal" 
>
</g>

<g fill="none" stroke="#000000" stroke-opacity="1" stroke-width="1" stroke-linecap="square" stroke-linejoin="bevel" transform="matrix(1,0,0,-1,126232,72880.1)"
font-family="MS Shell Dlg 2" font-size="10.3125" font-weight="400" font-style="normal" 
>
</g>

<g fill="#333333" fill-opacity="0.2" stroke="#333333" stroke-opacity="1" stroke-width="1" stroke-linecap="round" stroke-linejoin="round" transform="matrix(1,0,0,-1,126232,72880.1)"
font-family="MS Shell Dlg 2" font-size="10.3125" font-weight="400" font-style="normal" 
>
<path vector-effect="non-scaling-stroke" fill-rule="evenodd" d="M104193,-40039.8 L105142,-40039.8 L105243,-40039.8 L106193,-40039.8 L106193,-59960.2 L105243,-59960.2 L105142,-59960.2 L104193,-59960.2 L104193,-40039.8 M104193,-40039.9 L104193,-59960.1 L105142,-59960.1 L105243,-59960.1 L106193,-59960.1 L106193,-40039.9 L105243,-40039.9 L105142,-40039.9 L104193,-40039.9"/>
</g>

<g fill="none" stroke="#000000" stroke-opacity="1" stroke-width="1" stroke-linecap="square" stroke-linejoin="bevel" transform="matrix(1,0,0,-1,126232,72880.1)"
font-family="MS Shell Dlg 2" font-size="10.3125" font-weight="400" font-style="normal" 
>
</g>

<g fill="none" stroke="#000000" stroke-opacity="1" stroke-width="1" stroke-linecap="square" stroke-linejoin="bevel" transform="matrix(1,0,0,-1,126232,72880.1)"
font-family="MS Shell Dlg 2" font-size="10.3125" font-weight="400" font-style="normal" 
>
</g>

<g fill="#333333" fill-opacity="0.2" stroke="#333333" stroke-opacity="1" stroke-width="1" stroke-linecap="round" stroke-linejoin="round" transform="matrix(1,0,0,-1,126232,72880.1)"
font-family="MS Shell Dlg 2" font-size="10.3125" font-weight="400" font-style="normal" 
>
<path vector-effect="non-scaling-stroke" fill-rule="evenodd" d="M64115.5,-59960.2 L63165.7,-59960.2 L63065.4,-59960.2 L62115.5,-59960.2 L62115.5,-40039.8 L63065.4,-40039.8 L63165.7,-40039.8 L64115.5,-40039.8 L64115.5,-59960.2 M64115.5,-59960.1 L64115.5,-40039.9 L63165.7,-40039.9 L63065.4,-40039.9 L62115.5,-40039.9 L62115.5,-59960.1 L63065.4,-59960.1 L63165.7,-59960.1 L64115.5,-59960.1"/>
</g>

<g fill="none" stroke="#000000" stroke-opacity="1" stroke-width="1" stroke-linecap="square" stroke-linejoin="bevel" transform="matrix(1,0,0,-1,126232,72880.1)"
font-family="MS Shell Dlg 2" font-size="10.3125" font-weight="400" font-style="normal" 
>
</g>

<g fill="none" stroke="#000000" stroke-opacity="1" stroke-width="1" stroke-linecap="square" stroke-linejoin="bevel" transform="matrix(1,0,0,-1,126232,72880.1)"
font-family="MS Shell Dlg 2" font-size="10.3125" font-weight="400" font-style="normal" 
>
</g>

<g fill="#333333" fill-opacity="0.2" stroke="#333333" stroke-opacity="1" stroke-width="1" stroke-linecap="round" stroke-linejoin="round" transform="matrix(1,0,0,-1,126232,72880.1)"
font-family="MS Shell Dlg 2" font-size="10.3125" font-weight="400" font-style="normal" 
>
<path vector-effect="non-scaling-stroke" fill-rule="evenodd" d="M20038.5,-40039.8 L20988.4,-40039.8 L21088.6,-40039.8 L22038.5,-40039.8 L22038.5,-59960.2 L21088.6,-59960.2 L20988.4,-59960.2 L20038.5,-59960.2 L20038.5,-40039.8 M20038.5,-40039.9 L20038.5,-59960.1 L20988.4,-59960.1 L21088.6,-59960.1 L22038.5,-59960.1 L22038.5,-40039.9 L21088.6,-40039.9 L20988.4,-40039.9 L20038.5,-40039.9"/>
</g>

<g fill="none" stroke="#000000" stroke-opacity="1" stroke-width="1" stroke-linecap="square" stroke-linejoin="bevel" transform="matrix(1,0,0,-1,126232,72880.1)"
font-family="MS Shell Dlg 2" font-size="10.3125" font-weight="400" font-style="normal" 
>
</g>

<g fill="none" stroke="#000000" stroke-opacity="1" stroke-width="1" stroke-linecap="square" stroke-linejoin="bevel" transform="matrix(1,0,0,-1,126232,72880.1)"
font-family="MS Shell Dlg 2" font-size="10.3125" font-weight="400" font-style="normal" 
>
</g>

<g fill="#333333" fill-opacity="0.2" stroke="#333333" stroke-opacity="1" stroke-width="1" stroke-linecap="round" stroke-linejoin="round" transform="matrix(1,0,0,-1,126232,72880.1)"
font-family="MS Shell Dlg 2" font-size="10.3125" font-weight="400" font-style="normal" 
>
<path vector-effect="non-scaling-stroke" fill-rule="evenodd" d="M-104193,0.01 L-104143,0.01 L-64115.5,0.01 L-63165.7,0.01 L-63065.4,0.01 L-62115.5,0.01 L-62065.7,0.01 L-22038.5,0.01 L-21088.6,0.01 L-21038.5,0.01 L-21038.5,50.1414 L-21038.5,999.988 L-21421.2,923.87 L-21529.9,851.199 L-21529.9,851.198 L-21530,851.198 L-21530,851.199 L-21530,851.202 L-42077,36439.8 L-42077,36439.8 L-42077,36439.8 L-42077,36439.8 L-21038.5,72879.5 L-21038.5,72879.5 L-21038.5,72879.5 L-21038.5,72879.5 L21038.5,72879.5 L21038.5,72879.5 L21038.5,72879.5 L21038.5,72879.5 L42077,36439.8 L42077,36439.8 L42077,36439.8 L42077,36439.8 L21530,851.202 L21530,851.199 L21530,851.198 L21529.9,851.198 L21529.9,851.199 L21421.2,923.87 L21038.5,999.988 L21038.5,50.1414 L21038.5,0.01 L21088.6,0.01 L22038.5,0.01 L22088.4,0.01 L62115.5,0.01 L63065.4,0.01 L63165.7,0.01 L64115.5,0.01 L64165.4,0.01 L104193,0.01 L105142,0.01 L105243,0.01 L106193,0.01 L106242,0.01 L126231,0.01 L126231,0.00924 L126231,0.00707 L126231,0.00383 L126231,0 L126231,-100000 L126231,-100000 L126231,-100000 L126231,-100000 L126231,-100000 L106193,-100000 L105243,-100000 L105142,-100000 L104193,-100000 L104143,-100000 L64115.5,-100000 L63165.7,-100000 L63065.4,-100000 L62115.5,-100000 L62065.7,-100000 L22038.5,-100000 L21088.6,-100000 L21038.5,-100000 L21038.5,-100050 L21038.5,-101000 L21421.2,-100924 L21529.9,-100851 L21529.9,-100851 L21530,-100851 L21530,-100851 L21530,-100851 L42077,-136440 L42077,-136440 L42077,-136440 L42077,-136440 L21038.5,-172880 L21038.5,-172880 L21038.5,-172880 L21038.5,-172880 L-21038.5,-172880 L-21038.5,-172880 L-21038.5,-172880 L-21038.5,-172880 L-42077,-136440 L-42077,-136440 L-42077,-136440 L-42077,-136440 L-21530,-100851 L-21530,-100851 L-21530,-100851 L-21529.9,-100851 L-21529.9,-100851 L-21421.2,-100924 L-21038.5,-101000 L-21038.5,-100050 L-21038.5,-100000 L-21088.6,-100000 L-22038.5,-100000 L-22088.4,-100000 L-62115.5,-100000 L-63065.4,-100000 L-63165.7,-100000 L-64115.5,-100000 L-64165.4,-100000 L-104193,-100000 L-105142,-100000 L-105243,-100000 L-106193,-100000 L-106242,-100000 L-126231,-100000 L-126231,-100000 L-126231,-100000 L-126231,-100000 L-126231,-100000 L-126231,0 L-126231,0.00383 L-126231,0.00707 L-126231,0.00924 L-126231,0.01 L-106193,0.01 L-105243,0.01 L-105142,0.01 L-104193,0.01 M42077,-136440 L21530,-100851 L21421.2,-100924 L21038.5,-101000 L21038.5,-100050 L21038.5,-100000 L21088.6,-100000 L22038.5,-100000 L62065.7,-100000 L62115.5,-100000 L63065.4,-100000 L63165.7,-100000 L64115.5,-100000 L104143,-100000 L104193,-100000 L105142,-100000 L105243,-100000 L106193,-100000 L126231,-100000 L126231,0 L106242,0 L106193,0 L105243,0 L105142,0 L104193,0 L64165.4,0 L64115.5,0 L63165.7,0 L63065.4,0 L62115.5,0 L22088.4,0 L22038.5,0 L21088.6,0 L21038.5,0 L21038.5,50.1414 L21038.5,1000 L21421.2,923.88 L21530,851.207 L42077,36439.8 L21038.5,72879.5 L-21038.5,72879.5 L-42077,36439.8 L-21530,851.207 L-21421.2,923.88 L-21038.5,1000 L-21038.5,50.1414 L-21038.5,0 L-21088.6,0 L-22038.5,0 L-62065.7,0 L-62115.5,0 L-63065.4,0 L-63165.7,0 L-64115.5,0 L-104143,0 L-104193,0 L-105142,0 L-105243,0 L-106193,0 L-126231,0 L-126231,-100000 L-106242,-100000 L-106193,-100000 L-105243,-100000 L-105142,-100000 L-104193,-100000 L-64165.4,-100000 L-64115.5,-100000 L-63165.7,-100000 L-63065.4,-100000 L-62115.5,-100000 L-22088.4,-100000 L-22038.5,-100000 L-21088.6,-100000 L-21038.5,-100000 L-21038.5,-100050 L-21038.5,-101000 L-21421.2,-100924 L-21530,-100851 L-42077,-136440 L-21038.5,-172880 L21038.5,-172880 L42077,-136440"/>
</g>

<g fill="none" stroke="#000000" stroke-opacity="1" stroke-width="1" stroke-linecap="square" stroke-linejoin="bevel" transform="matrix(1,0,0,-1,126232,72880.1)"
font-family="MS Shell Dlg 2" font-size="10.3125" font-weight="400" font-style="normal" 
>
</g>

<g fill="none" stroke="#000000" stroke-opacity="1" stroke-width="1" stroke-linecap="square" stroke-linejoin="bevel" transform="matrix(1,0,0,-1,0,245760)"
font-family="MS Shell Dlg 2" font-size="10.3125" font-weight="400" font-style="normal" 
>
</g>
</g>
</svg>
