<?xml version="1.0" encoding="UTF-8" standalone="no"?>
<svg width="3498.71mm" height="614.116mm"
 xmlns="http://www.w3.org/2000/svg" xmlns:xlink="http://www.w3.org/1999/xlink"  version="1.2" baseProfile="tiny">
<title>SVG Generator Example Drawing</title>
<desc>An SVG drawing created by the SVG Generator</desc>
<defs>
</defs>
<g fill="none" stroke="black" stroke-width="1" fill-rule="evenodd" stroke-linecap="square" stroke-linejoin="bevel" >

<g fill="none" stroke="#000000" stroke-opacity="1" stroke-width="1" stroke-linecap="square" stroke-linejoin="bevel" transform="matrix(1,0,0,-1,0,2176.78)"
font-family="MS Shell Dlg 2" font-size="10.3125" font-weight="400" font-style="normal" 
>
</g>

<g fill="none" stroke="#000000" stroke-opacity="1" stroke-width="1" stroke-linecap="square" stroke-linejoin="bevel" transform="matrix(1,0,0,-1,0,2176.78)"
font-family="MS Shell Dlg 2" font-size="10.3125" font-weight="400" font-style="normal" 
>
</g>

<g fill="none" stroke="#000000" stroke-opacity="1" stroke-width="1" stroke-linecap="square" stroke-linejoin="bevel" transform="matrix(0.99964,0,0,-0.99964,13449,-631.701)"
font-family="MS Shell Dlg 2" font-size="10.3125" font-weight="400" font-style="normal" 
>
</g>

<g fill="#808080" fill-opacity="0.2" stroke="#333333" stroke-opacity="1" stroke-width="1" stroke-linecap="round" stroke-linejoin="round" transform="matrix(0.99964,0,0,-0.99964,13449,-631.701)"
font-family="MS Shell Dlg 2" font-size="10.3125" font-weight="400" font-style="normal" 
>
<path vector-effect="non-scaling-stroke" fill-rule="evenodd" d="M-13009.3,-892.327 L-13009.3,-2197.02 L-12282.7,-2197.02 L-12282.7,-1762.12 L-12282.7,-1736.08 L-12256.7,-1694.85 L-12211.1,-1689.2 L-12177.3,-1716.33 L-12172.1,-2306.39 L-13380.4,-2306.39 L-13406.4,-2306.39 L-13447.7,-2280.35 L-13453.3,-2235.21 L-13425.1,-2202.01 L-13120,-2197.02 L-13120,-892.327 L-13380.4,-892.327 L-13406.4,-892.327 L-13447.7,-867.371 L-13453.3,-821.147 L-13425.1,-787.943 L-12748.9,-782.952 L-12722.8,-782.952 L-12681.6,-807.909 L-12676,-854.133 L-12704.2,-887.336 L-13009.3,-892.327"/>
</g>

<g fill="none" stroke="#000000" stroke-opacity="1" stroke-width="1" stroke-linecap="square" stroke-linejoin="bevel" transform="matrix(0.99964,0,0,-0.99964,13449,-631.701)"
font-family="MS Shell Dlg 2" font-size="10.3125" font-weight="400" font-style="normal" 
>
</g>

<g fill="none" stroke="#000000" stroke-opacity="1" stroke-width="1" stroke-linecap="square" stroke-linejoin="bevel" transform="matrix(0.99964,0,0,-0.99964,13449,-631.701)"
font-family="MS Shell Dlg 2" font-size="10.3125" font-weight="400" font-style="normal" 
>
</g>

<g fill="#808080" fill-opacity="0.2" stroke="#333333" stroke-opacity="1" stroke-width="1" stroke-linecap="round" stroke-linejoin="round" transform="matrix(0.99964,0,0,-0.99964,13449,-631.701)"
font-family="MS Shell Dlg 2" font-size="10.3125" font-weight="400" font-style="normal" 
>
<path vector-effect="non-scaling-stroke" fill-rule="evenodd" d="M-1171.28,-1381.91 L-1227.71,-1481.74 L-1450.14,-1657.52 L-1686.91,-1682.69 L-1901.53,-1574.19 L-2041.07,-1343.07 L-2061.91,-1029.48 L-1854.66,-688.117 L-1505.92,-633.212 L-1252.44,-787.292 L-1085.78,-1144.06 L-1056.7,-1671.84 L-1163.9,-1972.19 L-1339.9,-2169.67 L-1600.97,-2318.11 L-1910.87,-2345.45 L-2046.72,-2287.29 L-2058,-2234.34 L-2031.96,-2202.01 L-1994.2,-2197.02 L-1925.19,-2227.83 L-1656.96,-2236.08 L-1232.48,-1902.96 L-1166.07,-1499.1 L-1171.28,-1381.91 M-1192.11,-1199.62 L-1238.12,-1023.4 L-1431.48,-775.791 L-1695.15,-743.89 L-1917.38,-939.202 L-1952.53,-1280.78 L-1776.75,-1534.47 L-1557.57,-1573.32 L-1407.18,-1503.87 L-1287.17,-1369.32 L-1192.11,-1199.62"/>
</g>

<g fill="none" stroke="#000000" stroke-opacity="1" stroke-width="1" stroke-linecap="square" stroke-linejoin="bevel" transform="matrix(0.99964,0,0,-0.99964,13449,-631.701)"
font-family="MS Shell Dlg 2" font-size="10.3125" font-weight="400" font-style="normal" 
>
</g>

<g fill="none" stroke="#000000" stroke-opacity="1" stroke-width="1" stroke-linecap="square" stroke-linejoin="bevel" transform="matrix(0.99964,0,0,-0.99964,13449,-631.701)"
font-family="MS Shell Dlg 2" font-size="10.3125" font-weight="400" font-style="normal" 
>
</g>

<g fill="#808080" fill-opacity="0.2" stroke="#333333" stroke-opacity="1" stroke-width="1" stroke-linecap="round" stroke-linejoin="round" transform="matrix(0.99964,0,0,-0.99964,13449,-631.701)"
font-family="MS Shell Dlg 2" font-size="10.3125" font-weight="400" font-style="normal" 
>
<path vector-effect="non-scaling-stroke" fill-rule="evenodd" d="M-6550.71,-1178.79 L-6550.71,-1454.83 L-6408.35,-1326.36 L-6160.3,-1169.89 L-5969.98,-1151.44 L-5797.45,-1261.03 L-5769.46,-1333.3 L-5796.59,-1368.67 L-5835.43,-1374.1 L-5854.96,-1366.5 L-5913.12,-1309.86 L-5984.74,-1266.46 L-6076.32,-1260.82 L-6268.37,-1356.3 L-6550.71,-2197.02 L-6066.33,-2197.02 L-6039.42,-2197.02 L-5997.76,-2221.97 L-5992.11,-2267.33 L-6020.33,-2301.18 L-6924.41,-2306.39 L-6950.45,-2306.39 L-6991.68,-2281.43 L-6997.32,-2238.25 L-6970.2,-2205.91 L-6660.08,-2200.92 L-6660.08,-1289.46 L-6861.91,-1289.46 L-6887.95,-1289.46 L-6929.18,-1263.42 L-6934.82,-1217.85 L-6907.7,-1183.99 L-6550.71,-1178.79"/>
</g>

<g fill="none" stroke="#000000" stroke-opacity="1" stroke-width="1" stroke-linecap="square" stroke-linejoin="bevel" transform="matrix(0.99964,0,0,-0.99964,13449,-631.701)"
font-family="MS Shell Dlg 2" font-size="10.3125" font-weight="400" font-style="normal" 
>
</g>

<g fill="none" stroke="#000000" stroke-opacity="1" stroke-width="1" stroke-linecap="square" stroke-linejoin="bevel" transform="matrix(0.99964,0,0,-0.99964,13449,-631.701)"
font-family="MS Shell Dlg 2" font-size="10.3125" font-weight="400" font-style="normal" 
>
</g>

<g fill="#808080" fill-opacity="0.2" stroke="#333333" stroke-opacity="1" stroke-width="1" stroke-linecap="round" stroke-linejoin="round" transform="matrix(0.99964,0,0,-0.99964,13449,-631.701)"
font-family="MS Shell Dlg 2" font-size="10.3125" font-weight="400" font-style="normal" 
>
<path vector-effect="non-scaling-stroke" fill-rule="evenodd" d="M-10905.4,-2306.39 L-10905.4,-2148.84 L-11064.3,-2282.52 L-11545.6,-2349.36 L-11795.6,-2183.34 L-11832.5,-1899.71 L-11589.4,-1649.27 L-11210.5,-1609.78 L-11037.8,-1626.05 L-10905.4,-1473.06 L-10905.4,-1413.16 L-11044.3,-1272.54 L-11323.8,-1250.4 L-11624.6,-1333.3 L-11664.1,-1337.64 L-11696,-1311.6 L-11701,-1268.2 L-11675.8,-1234.78 L-11405.4,-1157.95 L-11095.5,-1139.72 L-10833.3,-1310.08 L-10794.7,-2197.02 L-10648.9,-2197.02 L-10622,-2197.02 L-10580.3,-2221.97 L-10574.7,-2267.33 L-10602.9,-2301.18 L-10905.4,-2306.39 M-10905.4,-1762.12 L-10956.6,-1747.36 L-11125.4,-1722.62 L-11408,-1719.15 L-11689.3,-1873.23 L-11723.1,-2071.58 L-11594,-2217.42 L-11325.1,-2239.99 L-11074.9,-2145.58 L-10905.4,-1762.12"/>
</g>

<g fill="none" stroke="#000000" stroke-opacity="1" stroke-width="1" stroke-linecap="square" stroke-linejoin="bevel" transform="matrix(0.99964,0,0,-0.99964,13449,-631.701)"
font-family="MS Shell Dlg 2" font-size="10.3125" font-weight="400" font-style="normal" 
>
</g>

<g fill="none" stroke="#000000" stroke-opacity="1" stroke-width="1" stroke-linecap="square" stroke-linejoin="bevel" transform="matrix(0.99964,0,0,-0.99964,13449,-631.701)"
font-family="MS Shell Dlg 2" font-size="10.3125" font-weight="400" font-style="normal" 
>
</g>

<g fill="#808080" fill-opacity="0.2" stroke="#333333" stroke-opacity="1" stroke-width="1" stroke-linecap="round" stroke-linejoin="round" transform="matrix(0.99964,0,0,-0.99964,13449,-631.701)"
font-family="MS Shell Dlg 2" font-size="10.3125" font-weight="400" font-style="normal" 
>
<path vector-effect="non-scaling-stroke" fill-rule="evenodd" d="M-7428.05,-1768.63 L-8542.64,-1768.63 L-8523.54,-1910.12 L-8265.51,-2196.8 L-7914.16,-2239.99 L-7649.84,-2172.71 L-7504.01,-2079.83 L-7463.64,-2073.32 L-7430.66,-2100.45 L-7425.45,-2142.76 L-7487.95,-2214.38 L-7774.62,-2330.48 L-8183.26,-2349.36 L-8590.6,-2042.29 L-8653.31,-1560.3 L-8359.26,-1196.58 L-7861.21,-1139.72 L-7483.17,-1431.61 L-7428.05,-1768.63 M-7538.73,-1657.95 L-7560.43,-1537.29 L-7802.4,-1288.16 L-8167.64,-1250.4 L-8461.47,-1437.03 L-7538.73,-1657.95"/>
</g>

<g fill="none" stroke="#000000" stroke-opacity="1" stroke-width="1" stroke-linecap="square" stroke-linejoin="bevel" transform="matrix(0.99964,0,0,-0.99964,13449,-631.701)"
font-family="MS Shell Dlg 2" font-size="10.3125" font-weight="400" font-style="normal" 
>
</g>

<g fill="none" stroke="#000000" stroke-opacity="1" stroke-width="1" stroke-linecap="square" stroke-linejoin="bevel" transform="matrix(0.99964,0,0,-0.99964,13449,-631.701)"
font-family="MS Shell Dlg 2" font-size="10.3125" font-weight="400" font-style="normal" 
>
</g>

<g fill="#808080" fill-opacity="0.2" stroke="#333333" stroke-opacity="1" stroke-width="1" stroke-linecap="round" stroke-linejoin="round" transform="matrix(0.99964,0,0,-0.99964,13449,-631.701)"
font-family="MS Shell Dlg 2" font-size="10.3125" font-weight="400" font-style="normal" 
>
<path vector-effect="non-scaling-stroke" fill-rule="evenodd" d="M-9612.69,-2306.39 L-10120.5,-1289.46 L-10153.1,-1289.46 L-10179.1,-1289.46 L-10220.3,-1263.42 L-10226,-1223.49 L-10211.9,-1195.06 L-10186.3,-1180.74 L-9853.57,-1178.79 L-9827.53,-1178.79 L-9786.3,-1204.83 L-9780.66,-1250.4 L-9808.87,-1284.25 L-10000.7,-1289.46 L-9554.09,-2186.6 L-9113.99,-1289.46 L-9261.13,-1289.46 L-9287.17,-1289.46 L-9328.4,-1263.42 L-9334.04,-1217.85 L-9305.83,-1183.99 L-8962.95,-1178.79 L-8936.04,-1178.79 L-8894.37,-1204.83 L-8888.73,-1246.06 L-8906.09,-1275.57 L-8931.26,-1287.94 L-9688.21,-2699.62 L-9517.64,-2699.62 L-9491.59,-2699.62 L-9450.36,-2724.58 L-9444.72,-2769.93 L-9472.93,-2803.79 L-10147.8,-2809 L-10173.9,-2809 L-10215.1,-2784.04 L-10220.8,-2737.82 L-10192.6,-2704.61 L-9805.4,-2699.62 L-9612.69,-2306.39"/>
</g>

<g fill="none" stroke="#000000" stroke-opacity="1" stroke-width="1" stroke-linecap="square" stroke-linejoin="bevel" transform="matrix(0.99964,0,0,-0.99964,13449,-631.701)"
font-family="MS Shell Dlg 2" font-size="10.3125" font-weight="400" font-style="normal" 
>
</g>

<g fill="none" stroke="#000000" stroke-opacity="1" stroke-width="1" stroke-linecap="square" stroke-linejoin="bevel" transform="matrix(0.99964,0,0,-0.99964,13449,-631.701)"
font-family="MS Shell Dlg 2" font-size="10.3125" font-weight="400" font-style="normal" 
>
</g>

<g fill="#808080" fill-opacity="0.2" stroke="#333333" stroke-opacity="1" stroke-width="1" stroke-linecap="round" stroke-linejoin="round" transform="matrix(0.99964,0,0,-0.99964,13449,-631.701)"
font-family="MS Shell Dlg 2" font-size="10.3125" font-weight="400" font-style="normal" 
>
<path vector-effect="non-scaling-stroke" fill-rule="evenodd" d="M-13009.3,-892.327 L-13009.3,-2197.02 L-12282.7,-2197.02 L-12282.7,-1762.12 L-12282.7,-1736.08 L-12256.7,-1694.85 L-12211.1,-1689.2 L-12177.3,-1716.33 L-12172.1,-2306.39 L-13380.4,-2306.39 L-13406.4,-2306.39 L-13447.7,-2280.35 L-13453.3,-2235.21 L-13425.1,-2202.01 L-13120,-2197.02 L-13120,-892.327 L-13380.4,-892.327 L-13406.4,-892.327 L-13447.7,-867.371 L-13453.3,-821.147 L-13425.1,-787.943 L-12748.9,-782.952 L-12722.8,-782.952 L-12681.6,-807.909 L-12676,-854.133 L-12704.2,-887.336 L-13009.3,-892.327"/>
</g>

<g fill="none" stroke="#000000" stroke-opacity="1" stroke-width="1" stroke-linecap="square" stroke-linejoin="bevel" transform="matrix(0.99964,0,0,-0.99964,13449,-631.701)"
font-family="MS Shell Dlg 2" font-size="10.3125" font-weight="400" font-style="normal" 
>
</g>

<g fill="none" stroke="#000000" stroke-opacity="1" stroke-width="1" stroke-linecap="square" stroke-linejoin="bevel" transform="matrix(0.99964,0,0,-0.99964,13449,-631.701)"
font-family="MS Shell Dlg 2" font-size="10.3125" font-weight="400" font-style="normal" 
>
</g>

<g fill="#808080" fill-opacity="0.2" stroke="#333333" stroke-opacity="1" stroke-width="1" stroke-linecap="round" stroke-linejoin="round" transform="matrix(0.99964,0,0,-0.99964,13449,-631.701)"
font-family="MS Shell Dlg 2" font-size="10.3125" font-weight="400" font-style="normal" 
>
<path vector-effect="non-scaling-stroke" fill-rule="evenodd" d="M-1171.28,-1381.91 L-1227.71,-1481.74 L-1450.14,-1657.52 L-1686.91,-1682.69 L-1901.53,-1574.19 L-2041.07,-1343.07 L-2061.91,-1029.48 L-1854.66,-688.117 L-1505.92,-633.212 L-1252.44,-787.292 L-1085.78,-1144.06 L-1056.7,-1671.84 L-1163.9,-1972.19 L-1339.9,-2169.67 L-1600.97,-2318.11 L-1910.87,-2345.45 L-2046.72,-2287.29 L-2058,-2234.34 L-2031.96,-2202.01 L-1994.2,-2197.02 L-1925.19,-2227.83 L-1656.96,-2236.08 L-1232.48,-1902.96 L-1166.07,-1499.1 L-1171.28,-1381.91 M-1192.11,-1199.62 L-1238.12,-1023.4 L-1431.48,-775.791 L-1695.15,-743.89 L-1917.38,-939.202 L-1952.53,-1280.78 L-1776.75,-1534.47 L-1557.57,-1573.32 L-1407.18,-1503.87 L-1287.17,-1369.32 L-1192.11,-1199.62"/>
</g>

<g fill="none" stroke="#000000" stroke-opacity="1" stroke-width="1" stroke-linecap="square" stroke-linejoin="bevel" transform="matrix(0.99964,0,0,-0.99964,13449,-631.701)"
font-family="MS Shell Dlg 2" font-size="10.3125" font-weight="400" font-style="normal" 
>
</g>

<g fill="none" stroke="#000000" stroke-opacity="1" stroke-width="1" stroke-linecap="square" stroke-linejoin="bevel" transform="matrix(0.99964,0,0,-0.99964,13449,-631.701)"
font-family="MS Shell Dlg 2" font-size="10.3125" font-weight="400" font-style="normal" 
>
</g>

<g fill="#808080" fill-opacity="0.2" stroke="#333333" stroke-opacity="1" stroke-width="1" stroke-linecap="round" stroke-linejoin="round" transform="matrix(0.99964,0,0,-0.99964,13449,-631.701)"
font-family="MS Shell Dlg 2" font-size="10.3125" font-weight="400" font-style="normal" 
>
<path vector-effect="non-scaling-stroke" fill-rule="evenodd" d="M-6550.71,-1178.79 L-6550.71,-1454.83 L-6408.35,-1326.36 L-6160.3,-1169.89 L-5969.98,-1151.44 L-5797.45,-1261.03 L-5769.46,-1333.3 L-5796.59,-1368.67 L-5835.43,-1374.1 L-5854.96,-1366.5 L-5913.12,-1309.86 L-5984.74,-1266.46 L-6076.32,-1260.82 L-6268.37,-1356.3 L-6550.71,-2197.02 L-6066.33,-2197.02 L-6039.42,-2197.02 L-5997.76,-2221.97 L-5992.11,-2267.33 L-6020.33,-2301.18 L-6924.41,-2306.39 L-6950.45,-2306.39 L-6991.68,-2281.43 L-6997.32,-2238.25 L-6970.2,-2205.91 L-6660.08,-2200.92 L-6660.08,-1289.46 L-6861.91,-1289.46 L-6887.95,-1289.46 L-6929.18,-1263.42 L-6934.82,-1217.85 L-6907.7,-1183.99 L-6550.71,-1178.79"/>
</g>

<g fill="none" stroke="#000000" stroke-opacity="1" stroke-width="1" stroke-linecap="square" stroke-linejoin="bevel" transform="matrix(0.99964,0,0,-0.99964,13449,-631.701)"
font-family="MS Shell Dlg 2" font-size="10.3125" font-weight="400" font-style="normal" 
>
</g>

<g fill="none" stroke="#000000" stroke-opacity="1" stroke-width="1" stroke-linecap="square" stroke-linejoin="bevel" transform="matrix(0.99964,0,0,-0.99964,13449,-631.701)"
font-family="MS Shell Dlg 2" font-size="10.3125" font-weight="400" font-style="normal" 
>
</g>

<g fill="#808080" fill-opacity="0.2" stroke="#333333" stroke-opacity="1" stroke-width="1" stroke-linecap="round" stroke-linejoin="round" transform="matrix(0.99964,0,0,-0.99964,13449,-631.701)"
font-family="MS Shell Dlg 2" font-size="10.3125" font-weight="400" font-style="normal" 
>
<path vector-effect="non-scaling-stroke" fill-rule="evenodd" d="M-10905.4,-2306.39 L-10905.4,-2148.84 L-11064.3,-2282.52 L-11545.6,-2349.36 L-11795.6,-2183.34 L-11832.5,-1899.71 L-11589.4,-1649.27 L-11210.5,-1609.78 L-11037.8,-1626.05 L-10905.4,-1473.06 L-10905.4,-1413.16 L-11044.3,-1272.54 L-11323.8,-1250.4 L-11624.6,-1333.3 L-11664.1,-1337.64 L-11696,-1311.6 L-11701,-1268.2 L-11675.8,-1234.78 L-11405.4,-1157.95 L-11095.5,-1139.72 L-10833.3,-1310.08 L-10794.7,-2197.02 L-10648.9,-2197.02 L-10622,-2197.02 L-10580.3,-2221.97 L-10574.7,-2267.33 L-10602.9,-2301.18 L-10905.4,-2306.39 M-10905.4,-1762.12 L-10956.6,-1747.36 L-11125.4,-1722.62 L-11408,-1719.15 L-11689.3,-1873.23 L-11723.1,-2071.58 L-11594,-2217.42 L-11325.1,-2239.99 L-11074.9,-2145.58 L-10905.4,-1762.12"/>
</g>

<g fill="none" stroke="#000000" stroke-opacity="1" stroke-width="1" stroke-linecap="square" stroke-linejoin="bevel" transform="matrix(0.99964,0,0,-0.99964,13449,-631.701)"
font-family="MS Shell Dlg 2" font-size="10.3125" font-weight="400" font-style="normal" 
>
</g>

<g fill="none" stroke="#000000" stroke-opacity="1" stroke-width="1" stroke-linecap="square" stroke-linejoin="bevel" transform="matrix(0.99964,0,0,-0.99964,13449,-631.701)"
font-family="MS Shell Dlg 2" font-size="10.3125" font-weight="400" font-style="normal" 
>
</g>

<g fill="#808080" fill-opacity="0.2" stroke="#333333" stroke-opacity="1" stroke-width="1" stroke-linecap="round" stroke-linejoin="round" transform="matrix(0.99964,0,0,-0.99964,13449,-631.701)"
font-family="MS Shell Dlg 2" font-size="10.3125" font-weight="400" font-style="normal" 
>
<path vector-effect="non-scaling-stroke" fill-rule="evenodd" d="M-7428.05,-1768.63 L-8542.64,-1768.63 L-8523.54,-1910.12 L-8265.51,-2196.8 L-7914.16,-2239.99 L-7649.84,-2172.71 L-7504.01,-2079.83 L-7463.64,-2073.32 L-7430.66,-2100.45 L-7425.45,-2142.76 L-7487.95,-2214.38 L-7774.62,-2330.48 L-8183.26,-2349.36 L-8590.6,-2042.29 L-8653.31,-1560.3 L-8359.26,-1196.58 L-7861.21,-1139.72 L-7483.17,-1431.61 L-7428.05,-1768.63 M-7538.73,-1657.95 L-7560.43,-1537.29 L-7802.4,-1288.16 L-8167.64,-1250.4 L-8461.47,-1437.03 L-7538.73,-1657.95"/>
</g>

<g fill="none" stroke="#000000" stroke-opacity="1" stroke-width="1" stroke-linecap="square" stroke-linejoin="bevel" transform="matrix(0.99964,0,0,-0.99964,13449,-631.701)"
font-family="MS Shell Dlg 2" font-size="10.3125" font-weight="400" font-style="normal" 
>
</g>

<g fill="none" stroke="#000000" stroke-opacity="1" stroke-width="1" stroke-linecap="square" stroke-linejoin="bevel" transform="matrix(0.99964,0,0,-0.99964,13449,-631.701)"
font-family="MS Shell Dlg 2" font-size="10.3125" font-weight="400" font-style="normal" 
>
</g>

<g fill="#808080" fill-opacity="0.2" stroke="#333333" stroke-opacity="1" stroke-width="1" stroke-linecap="round" stroke-linejoin="round" transform="matrix(0.99964,0,0,-0.99964,13449,-631.701)"
font-family="MS Shell Dlg 2" font-size="10.3125" font-weight="400" font-style="normal" 
>
<path vector-effect="non-scaling-stroke" fill-rule="evenodd" d="M-9612.69,-2306.39 L-10120.5,-1289.46 L-10153.1,-1289.46 L-10179.1,-1289.46 L-10220.3,-1263.42 L-10226,-1223.49 L-10211.9,-1195.06 L-10186.3,-1180.74 L-9853.57,-1178.79 L-9827.53,-1178.79 L-9786.3,-1204.83 L-9780.66,-1250.4 L-9808.87,-1284.25 L-10000.7,-1289.46 L-9554.09,-2186.6 L-9113.99,-1289.46 L-9261.13,-1289.46 L-9287.17,-1289.46 L-9328.4,-1263.42 L-9334.04,-1217.85 L-9305.83,-1183.99 L-8962.95,-1178.79 L-8936.04,-1178.79 L-8894.37,-1204.83 L-8888.73,-1246.06 L-8906.09,-1275.57 L-8931.26,-1287.94 L-9688.21,-2699.62 L-9517.64,-2699.62 L-9491.59,-2699.62 L-9450.36,-2724.58 L-9444.72,-2769.93 L-9472.93,-2803.79 L-10147.8,-2809 L-10173.9,-2809 L-10215.1,-2784.04 L-10220.8,-2737.82 L-10192.6,-2704.61 L-9805.4,-2699.62 L-9612.69,-2306.39"/>
</g>

<g fill="none" stroke="#000000" stroke-opacity="1" stroke-width="1" stroke-linecap="square" stroke-linejoin="bevel" transform="matrix(0.99964,0,0,-0.99964,13449,-631.701)"
font-family="MS Shell Dlg 2" font-size="10.3125" font-weight="400" font-style="normal" 
>
</g>

<g fill="none" stroke="#000000" stroke-opacity="1" stroke-width="1" stroke-linecap="square" stroke-linejoin="bevel" transform="matrix(1,0,0,-1,0,2176.78)"
font-family="MS Shell Dlg 2" font-size="10.3125" font-weight="400" font-style="normal" 
>
</g>
</g>
</svg>
