<?xml version="1.0" encoding="UTF-8" standalone="no"?>
<svg width="4289.5mm" height="614.962mm"
 xmlns="http://www.w3.org/2000/svg" xmlns:xlink="http://www.w3.org/1999/xlink"  version="1.2" baseProfile="tiny">
<title>SVG Generator Example Drawing</title>
<desc>An SVG drawing created by the SVG Generator</desc>
<defs>
</defs>
<g fill="none" stroke="black" stroke-width="1" fill-rule="evenodd" stroke-linecap="square" stroke-linejoin="bevel" >

<g fill="none" stroke="#000000" stroke-opacity="1" stroke-width="1" stroke-linecap="square" stroke-linejoin="bevel" transform="matrix(1,0,0,-1,0,2179.5)"
font-family="MS Shell Dlg 2" font-size="10.3125" font-weight="400" font-style="normal" 
>
</g>

<g fill="none" stroke="#000000" stroke-opacity="1" stroke-width="1" stroke-linecap="square" stroke-linejoin="bevel" transform="matrix(1,0,0,-1,0,2179.5)"
font-family="MS Shell Dlg 2" font-size="10.3125" font-weight="400" font-style="normal" 
>
</g>

<g fill="none" stroke="#000000" stroke-opacity="1" stroke-width="1" stroke-linecap="square" stroke-linejoin="bevel" transform="matrix(0.99977,0,0,-0.99977,-166.337,-323.656)"
font-family="MS Shell Dlg 2" font-size="10.3125" font-weight="400" font-style="normal" 
>
</g>

<g fill="#808080" fill-opacity="0.2" stroke="#333333" stroke-opacity="1" stroke-width="1" stroke-linecap="round" stroke-linejoin="round" transform="matrix(0.99977,0,0,-0.99977,-166.337,-323.656)"
font-family="MS Shell Dlg 2" font-size="10.3125" font-weight="400" font-style="normal" 
>
<path vector-effect="non-scaling-stroke" fill-rule="evenodd" d="M611.44,-1890.49 L1338.91,-1890.49 L1338.91,-1455.05 L1339.54,-1440.29 L1341.41,-1427.31 L1344.54,-1416.09 L1348.92,-1406.66 L1354.56,-1398.99 L1361.18,-1392.89 L1368.53,-1388.14 L1376.61,-1384.75 L1385.43,-1382.72 L1394.97,-1382.04 L1404.04,-1382.69 L1412.49,-1384.65 L1420.31,-1387.91 L1427.51,-1392.47 L1434.08,-1398.34 L1439.71,-1405.82 L1444.09,-1415.23 L1447.22,-1426.58 L1449.1,-1439.85 L1449.73,-1455.05 L1449.73,-2000 L239.883,-2000 L225.125,-1999.37 L212.14,-1997.5 L200.928,-1994.37 L191.489,-1989.99 L183.823,-1984.36 L177.722,-1977.78 L172.976,-1970.59 L169.587,-1962.77 L167.553,-1954.32 L166.875,-1945.24 L167.553,-1935.73 L169.587,-1926.99 L172.976,-1919.04 L177.722,-1911.87 L183.823,-1905.48 L191.489,-1900.08 L200.928,-1895.89 L212.14,-1892.89 L225.125,-1891.09 L239.883,-1890.49 L500.625,-1890.49 L500.625,-584.17 L239.883,-584.17 L225.125,-583.57 L212.14,-581.771 L200.928,-578.773 L191.489,-574.575 L183.823,-569.177 L177.722,-562.789 L172.976,-555.619 L169.587,-547.666 L167.553,-538.931 L166.875,-529.414 L167.553,-519.897 L169.587,-511.162 L172.976,-503.209 L177.722,-496.039 L183.823,-489.651 L191.489,-484.254 L200.928,-480.056 L212.14,-477.057 L225.125,-475.258 L239.883,-474.658 L872.183,-474.658 L886.941,-475.258 L899.926,-477.057 L911.137,-480.056 L920.576,-484.254 L928.242,-489.651 L934.344,-496.039 L939.089,-503.209 L942.479,-511.162 L944.513,-519.897 L945.19,-529.414 L944.513,-538.931 L942.479,-547.666 L939.089,-555.619 L934.344,-562.789 L928.242,-569.177 L920.576,-574.575 L911.138,-578.773 L899.926,-581.771 L886.941,-583.57 L872.183,-584.17 L611.44,-584.17 L611.44,-1890.49"/>
</g>

<g fill="none" stroke="#000000" stroke-opacity="1" stroke-width="1" stroke-linecap="square" stroke-linejoin="bevel" transform="matrix(0.99977,0,0,-0.99977,-166.337,-323.656)"
font-family="MS Shell Dlg 2" font-size="10.3125" font-weight="400" font-style="normal" 
>
</g>

<g fill="none" stroke="#000000" stroke-opacity="1" stroke-width="1" stroke-linecap="square" stroke-linejoin="bevel" transform="matrix(0.99977,0,0,-0.99977,-166.337,-323.656)"
font-family="MS Shell Dlg 2" font-size="10.3125" font-weight="400" font-style="normal" 
>
</g>

<g fill="#808080" fill-opacity="0.2" stroke="#333333" stroke-opacity="1" stroke-width="1" stroke-linecap="round" stroke-linejoin="round" transform="matrix(0.99977,0,0,-0.99977,-166.337,-323.656)"
font-family="MS Shell Dlg 2" font-size="10.3125" font-weight="400" font-style="normal" 
>
<path vector-effect="non-scaling-stroke" fill-rule="evenodd" d="M15250.3,-1074.37 L15215.1,-1131.36 L15177.4,-1182.42 L15137.1,-1227.53 L15094.2,-1266.69 L15048.8,-1299.91 L15001.9,-1327.13 L14954.6,-1348.3 L14906.7,-1363.42 L14858.4,-1372.5 L14809.6,-1375.52 L14764.5,-1372.92 L14720,-1365.09 L14676.1,-1352.06 L14632.7,-1333.8 L14589.9,-1310.34 L14549.2,-1281.84 L14511.9,-1248.49 L14478.1,-1210.29 L14447.9,-1167.24 L14421.1,-1119.34 L14398.6,-1068.52 L14381,-1016.72 L14368.5,-963.915 L14361,-910.124 L14358.5,-855.342 L14363.5,-776.467 L14378.4,-700.461 L14403.3,-627.323 L14438.2,-557.053 L14483,-489.651 L14536.2,-430.28 L14596.1,-384.102 L14662.7,-351.119 L14736,-331.328 L14816.1,-324.731 L14874.5,-328.434 L14930.8,-339.542 L14985.1,-358.054 L15037.2,-383.972 L15087.3,-417.295 L15134.1,-457.658 L15176.6,-504.696 L15214.6,-558.409 L15248.3,-618.796 L15277.6,-685.859 L15309.1,-778.996 L15333.5,-877.974 L15351,-982.793 L15361.5,-1093.45 L15365,-1209.95 L15362,-1299.65 L15353.1,-1383.08 L15338.2,-1460.26 L15317.4,-1531.19 L15290.7,-1595.85 L15269,-1637.31 L15243.6,-1678.24 L15214.6,-1718.66 L15181.8,-1758.55 L15145.3,-1797.92 L15106,-1835.58 L15064.8,-1870.31 L15021.6,-1902.12 L14976.6,-1931.01 L14929.5,-1956.98 L14863.3,-1986.55 L14796,-2009.54 L14727.7,-2025.97 L14658.4,-2035.83 L14588,-2039.11 L14542.8,-2037.34 L14501,-2032.02 L14462.7,-2023.15 L14427.8,-2010.74 L14396.3,-1994.79 L14384.1,-1986.02 L14374.6,-1976.43 L14367.9,-1966 L14363.8,-1954.74 L14362.4,-1942.64 L14363.1,-1934.06 L14364.9,-1926.05 L14368.1,-1918.62 L14372.4,-1911.76 L14378.1,-1905.48 L14384.6,-1900.08 L14391.6,-1895.89 L14399.2,-1892.89 L14407.3,-1891.09 L14415.9,-1890.49 L14422.7,-1891.06 L14430.7,-1892.78 L14439.8,-1895.65 L14450.1,-1899.67 L14461.5,-1904.83 L14482.5,-1913.75 L14504.7,-1920.68 L14528.2,-1925.64 L14552.9,-1928.61 L14578.8,-1929.6 L14686.8,-1921.59 L14788.5,-1897.58 L14883.9,-1857.56 L14973.1,-1801.52 L15056,-1729.48 L15127.8,-1645.39 L15183.7,-1553.22 L15223.6,-1452.96 L15247.5,-1344.62 L15255.5,-1228.2 L15255.3,-1204.53 L15254.6,-1177.31 L15253.6,-1146.54 L15252.1,-1112.23 L15250.3,-1074.37 M15229.4,-891.846 L15200.4,-792.738 L15168.8,-707.136 L15134.5,-635.041 L15097.6,-576.452 L15058,-531.37 L15015.6,-496.873 L14970.6,-470.043 L14922.7,-450.879 L14872.1,-439.38 L14818.7,-435.547 L14764.3,-440.24 L14712.6,-454.32 L14663.5,-477.787 L14617.2,-510.641 L14573.6,-552.881 L14535.6,-602.474 L14506,-657.386 L14484.9,-717.618 L14472.3,-783.168 L14468,-854.038 L14472.3,-923.004 L14484.9,-987.017 L14506,-1046.07 L14535.6,-1100.18 L14573.6,-1149.33 L14617,-1191.33 L14662.5,-1224.01 L14710.2,-1247.34 L14760.1,-1261.34 L14812.2,-1266.01 L14842.9,-1264.34 L14873.4,-1259.34 L14903.8,-1250.99 L14934,-1239.31 L14964.1,-1224.29 L14993.7,-1205.94 L15022.7,-1184.24 L15051,-1159.21 L15078.6,-1130.84 L15105.5,-1099.14 L15124.3,-1072.91 L15146,-1039.06 L15170.8,-997.603 L15198.6,-948.531 L15229.4,-891.846"/>
</g>

<g fill="none" stroke="#000000" stroke-opacity="1" stroke-width="1" stroke-linecap="square" stroke-linejoin="bevel" transform="matrix(0.99977,0,0,-0.99977,-166.337,-323.656)"
font-family="MS Shell Dlg 2" font-size="10.3125" font-weight="400" font-style="normal" 
>
</g>

<g fill="none" stroke="#000000" stroke-opacity="1" stroke-width="1" stroke-linecap="square" stroke-linejoin="bevel" transform="matrix(0.99977,0,0,-0.99977,-166.337,-323.656)"
font-family="MS Shell Dlg 2" font-size="10.3125" font-weight="400" font-style="normal" 
>
</g>

<g fill="#808080" fill-opacity="0.2" stroke="#333333" stroke-opacity="1" stroke-width="1" stroke-linecap="round" stroke-linejoin="round" transform="matrix(0.99977,0,0,-0.99977,-166.337,-323.656)"
font-family="MS Shell Dlg 2" font-size="10.3125" font-weight="400" font-style="normal" 
>
<path vector-effect="non-scaling-stroke" fill-rule="evenodd" d="M8670.11,-870.986 L8670.11,-1147.37 L8751.33,-1075.7 L8823.95,-1015.02 L8887.96,-965.349 L8943.37,-926.681 L8990.17,-899.016 L9032.02,-879.069 L9072.56,-863.555 L9111.8,-852.474 L9149.74,-845.825 L9186.38,-843.608 L9224.94,-846.242 L9262.41,-854.142 L9298.78,-867.31 L9334.06,-885.744 L9368.24,-909.446 L9398.52,-934.503 L9422.06,-957.005 L9438.88,-976.952 L9448.97,-994.343 L9452.33,-1009.18 L9451.68,-1018.75 L9449.73,-1027.64 L9446.47,-1035.85 L9441.9,-1043.39 L9436.04,-1050.25 L9429.18,-1056.11 L9421.64,-1060.68 L9413.43,-1063.94 L9404.54,-1065.89 L9394.97,-1066.54 L9389.91,-1066.36 L9385.17,-1065.81 L9380.73,-1064.9 L9376.61,-1063.62 L9372.81,-1061.98 L9368.53,-1059.35 L9363,-1055.1 L9356.22,-1049.23 L9348.19,-1041.75 L9338.91,-1032.65 L9321.13,-1015.54 L9304.28,-1000.73 L9288.38,-988.216 L9273.41,-977.995 L9259.38,-970.068 L9245.88,-963.967 L9232.48,-959.221 L9219.18,-955.832 L9205.98,-953.798 L9192.9,-953.12 L9163.04,-955.415 L9130.84,-962.298 L9096.29,-973.771 L9059.4,-989.833 L9020.15,-1010.48 L8973.82,-1040.05 L8915.65,-1082.87 L8845.64,-1138.92 L8763.79,-1208.23 L8670.11,-1290.78 L8670.11,-1890.49 L9155.09,-1890.49 L9170.32,-1891.09 L9183.67,-1892.89 L9195.14,-1895.89 L9204.73,-1900.08 L9212.45,-1905.48 L9218.55,-1911.87 L9223.3,-1919.04 L9226.69,-1926.99 L9228.72,-1935.73 L9229.4,-1945.24 L9228.72,-1954.32 L9226.69,-1962.77 L9223.3,-1970.59 L9218.55,-1977.78 L9212.45,-1984.36 L9204.73,-1989.99 L9195.14,-1994.37 L9183.67,-1997.5 L9170.32,-1999.37 L9155.09,-2000 L8295.94,-2000 L8281.18,-1999.4 L8268.2,-1997.6 L8256.99,-1994.6 L8247.55,-1990.4 L8239.88,-1985.01 L8233.78,-1978.67 L8229.04,-1971.66 L8225.65,-1963.97 L8223.61,-1955.6 L8222.93,-1946.55 L8223.59,-1937.97 L8225.54,-1929.96 L8228.8,-1922.53 L8233.36,-1915.68 L8239.23,-1909.39 L8246.71,-1903.99 L8256.13,-1899.8 L8267.47,-1896.8 L8280.74,-1895 L8295.94,-1894.4 L8560.6,-1894.4 L8560.6,-981.802 L8358.52,-981.802 L8343.76,-981.176 L8330.78,-979.299 L8319.57,-976.17 L8310.13,-971.789 L8302.46,-966.157 L8296.36,-959.534 L8291.61,-952.181 L8288.22,-944.098 L8286.19,-935.285 L8285.51,-925.742 L8286.16,-916.668 L8288.12,-908.22 L8291.38,-900.398 L8295.94,-893.202 L8301.81,-886.631 L8309.29,-880.999 L8318.71,-876.618 L8330.05,-873.489 L8343.32,-871.612 L8358.52,-870.986 L8670.11,-870.986"/>
</g>

<g fill="none" stroke="#000000" stroke-opacity="1" stroke-width="1" stroke-linecap="square" stroke-linejoin="bevel" transform="matrix(0.99977,0,0,-0.99977,-166.337,-323.656)"
font-family="MS Shell Dlg 2" font-size="10.3125" font-weight="400" font-style="normal" 
>
</g>

<g fill="none" stroke="#000000" stroke-opacity="1" stroke-width="1" stroke-linecap="square" stroke-linejoin="bevel" transform="matrix(0.99977,0,0,-0.99977,-166.337,-323.656)"
font-family="MS Shell Dlg 2" font-size="10.3125" font-weight="400" font-style="normal" 
>
</g>

<g fill="#808080" fill-opacity="0.2" stroke="#333333" stroke-opacity="1" stroke-width="1" stroke-linecap="round" stroke-linejoin="round" transform="matrix(0.99977,0,0,-0.99977,-166.337,-323.656)"
font-family="MS Shell Dlg 2" font-size="10.3125" font-weight="400" font-style="normal" 
>
<path vector-effect="non-scaling-stroke" fill-rule="evenodd" d="M3115.98,-2000 L3115.98,-1842.25 L3019.24,-1914.53 L2919.9,-1970.74 L2817.95,-2010.9 L2713.39,-2034.99 L2606.23,-2043.02 L2530.92,-2039.03 L2462.5,-2027.07 L2400.97,-2007.12 L2346.32,-1979.19 L2298.55,-1943.29 L2258.66,-1901.6 L2227.63,-1856.3 L2205.46,-1807.42 L2192.17,-1754.93 L2187.73,-1698.84 L2193.58,-1636.84 L2211.1,-1578.07 L2240.3,-1522.53 L2281.18,-1470.22 L2333.75,-1421.15 L2397.53,-1378.44 L2472.05,-1345.22 L2557.31,-1321.5 L2653.32,-1307.26 L2760.06,-1302.51 L2790.83,-1302.91 L2822.64,-1304.08 L2855.5,-1306.03 L2889.39,-1308.77 L2924.33,-1312.29 L2960.37,-1316.65 L2997.55,-1321.89 L3035.88,-1328.02 L3075.35,-1335.03 L3115.98,-1342.93 L3115.98,-1165.63 L3112.64,-1130.58 L3102.63,-1097.41 L3085.94,-1066.13 L3062.58,-1036.71 L3032.54,-1009.18 L2995.83,-985.244 L2952.44,-966.627 L2902.38,-953.329 L2845.64,-945.35 L2782.23,-942.69 L2727,-945.663 L2663.54,-954.58 L2591.83,-969.443 L2511.89,-990.25 L2423.71,-1017 L2408.22,-1021.7 L2395.13,-1025.35 L2384.44,-1027.95 L2376.15,-1029.52 L2370.25,-1030.04 L2362.14,-1029.41 L2354.51,-1027.54 L2347.33,-1024.41 L2340.63,-1020.03 L2334.4,-1014.39 L2329,-1007.82 L2324.81,-1000.63 L2321.81,-992.805 L2320.01,-984.357 L2319.41,-975.283 L2319.93,-966.783 L2321.5,-959.013 L2324.1,-951.973 L2327.75,-945.663 L2332.45,-940.083 L2344.18,-931.687 L2364.78,-922.144 L2394.24,-911.454 L2432.57,-899.616 L2479.77,-886.631 L2557.15,-866.919 L2626.62,-851.587 L2688.15,-840.636 L2741.76,-834.065 L2787.44,-831.875 L2866.71,-835.969 L2938.67,-848.25 L3003.34,-868.718 L3060.7,-897.373 L3110.76,-934.216 L3152.53,-976.222 L3185.02,-1020.37 L3208.23,-1066.65 L3222.15,-1115.07 L3226.79,-1165.63 L3226.79,-1890.49 L3372.81,-1890.49 L3388.03,-1891.09 L3401.38,-1892.89 L3412.86,-1895.89 L3422.45,-1900.08 L3430.17,-1905.48 L3436.27,-1911.87 L3441.02,-1919.04 L3444.41,-1926.99 L3446.44,-1935.73 L3447.12,-1945.24 L3446.44,-1954.32 L3444.41,-1962.77 L3441.02,-1970.59 L3436.27,-1977.78 L3430.17,-1984.36 L3422.45,-1989.99 L3412.86,-1994.37 L3401.38,-1997.5 L3388.03,-1999.37 L3372.81,-2000 L3115.98,-2000 M3115.98,-1455.05 L3084.84,-1446.65 L3052.98,-1439.2 L3020.39,-1432.68 L2987.07,-1427.1 L2953.01,-1422.46 L2918.23,-1418.7 L2882.72,-1415.78 L2846.47,-1413.7 L2809.5,-1412.44 L2771.8,-1412.03 L2680.54,-1416.15 L2597.62,-1428.51 L2523.05,-1449.1 L2456.82,-1477.94 L2398.94,-1515.02 L2362.33,-1546.99 L2333.85,-1581.35 L2313.52,-1618.12 L2301.31,-1657.28 L2297.25,-1698.84 L2300.35,-1737.22 L2309.66,-1773.1 L2325.17,-1806.48 L2346.89,-1837.35 L2374.82,-1865.72 L2408.69,-1890.12 L2448.24,-1909.11 L2493.48,-1922.66 L2544.4,-1930.8 L2601.01,-1933.51 L2657.04,-1931.24 L2711.46,-1924.44 L2764.26,-1913.09 L2815.45,-1897.22 L2865.01,-1876.8 L2914.06,-1851.43 L2963.68,-1820.69 L3013.87,-1784.57 L3064.64,-1743.09 L3115.98,-1696.24 L3115.98,-1455.05"/>
</g>

<g fill="none" stroke="#000000" stroke-opacity="1" stroke-width="1" stroke-linecap="square" stroke-linejoin="bevel" transform="matrix(0.99977,0,0,-0.99977,-166.337,-323.656)"
font-family="MS Shell Dlg 2" font-size="10.3125" font-weight="400" font-style="normal" 
>
</g>

<g fill="none" stroke="#000000" stroke-opacity="1" stroke-width="1" stroke-linecap="square" stroke-linejoin="bevel" transform="matrix(0.99977,0,0,-0.99977,-166.337,-323.656)"
font-family="MS Shell Dlg 2" font-size="10.3125" font-weight="400" font-style="normal" 
>
</g>

<g fill="#808080" fill-opacity="0.2" stroke="#333333" stroke-opacity="1" stroke-width="1" stroke-linecap="round" stroke-linejoin="round" transform="matrix(0.99977,0,0,-0.99977,-166.337,-323.656)"
font-family="MS Shell Dlg 2" font-size="10.3125" font-weight="400" font-style="normal" 
>
<path vector-effect="non-scaling-stroke" fill-rule="evenodd" d="M7393.67,-1461.57 L6277.69,-1461.57 L6293.99,-1543.26 L6319.93,-1618.33 L6355.52,-1686.77 L6400.76,-1748.59 L6455.65,-1803.79 L6518.2,-1850.49 L6586.44,-1886.81 L6660.36,-1912.76 L6739.96,-1928.32 L6825.25,-1933.51 L6874.74,-1931.89 L6925.17,-1927.04 L6976.53,-1918.96 L7028.84,-1907.65 L7082.08,-1893.1 L7133.81,-1875.89 L7181.58,-1856.59 L7225.38,-1835.21 L7265.23,-1811.74 L7301.1,-1786.19 L7310.75,-1779.15 L7319.88,-1773.68 L7328.48,-1769.76 L7336.56,-1767.42 L7344.13,-1766.64 L7352.26,-1767.29 L7359.98,-1769.24 L7367.28,-1772.5 L7374.16,-1777.07 L7380.63,-1782.93 L7386.26,-1789.69 L7390.64,-1796.91 L7393.77,-1804.6 L7395.65,-1812.76 L7396.27,-1821.39 L7395.44,-1830.2 L7392.94,-1838.91 L7388.77,-1847.52 L7382.92,-1856.02 L7375.42,-1864.41 L7346.5,-1890.15 L7309.81,-1915.21 L7265.36,-1939.59 L7213.13,-1963.29 L7153.13,-1986.31 L7088.91,-2006.73 L7024.01,-2022.61 L6958.44,-2033.95 L6892.18,-2040.75 L6825.25,-2043.02 L6716.34,-2035.64 L6614.88,-2013.51 L6520.88,-1976.61 L6434.34,-1924.96 L6355.26,-1858.55 L6287.44,-1781.65 L6234.69,-1698.56 L6197.02,-1609.25 L6174.41,-1513.74 L6166.88,-1412.03 L6173.94,-1319.31 L6195.14,-1232.01 L6230.47,-1150.14 L6279.93,-1073.69 L6343.53,-1002.66 L6417.55,-941.178 L6498.3,-893.358 L6585.78,-859.201 L6679.99,-838.706 L6780.92,-831.875 L6884.54,-838.889 L6980.55,-859.931 L7068.94,-895.001 L7149.72,-944.098 L7222.88,-1007.22 L7285.2,-1081.51 L7333.44,-1164.09 L7367.59,-1254.96 L7387.67,-1354.12 L7393.67,-1461.57 M7282.85,-1350.75 L7265.56,-1280.98 L7239.78,-1216.63 L7205.49,-1157.7 L7162.7,-1104.19 L7111.41,-1056.11 L7053.76,-1015.28 L6991.89,-983.523 L6925.79,-960.838 L6855.47,-947.227 L6780.92,-942.69 L6706.4,-947.175 L6636.16,-960.629 L6570.19,-983.053 L6508.5,-1014.45 L6451.08,-1054.81 L6399.98,-1102.53 L6357.22,-1155.98 L6322.8,-1215.17 L6296.72,-1280.09 L6278.99,-1350.75 L7282.85,-1350.75"/>
</g>

<g fill="none" stroke="#000000" stroke-opacity="1" stroke-width="1" stroke-linecap="square" stroke-linejoin="bevel" transform="matrix(0.99977,0,0,-0.99977,-166.337,-323.656)"
font-family="MS Shell Dlg 2" font-size="10.3125" font-weight="400" font-style="normal" 
>
</g>

<g fill="none" stroke="#000000" stroke-opacity="1" stroke-width="1" stroke-linecap="square" stroke-linejoin="bevel" transform="matrix(0.99977,0,0,-0.99977,-166.337,-323.656)"
font-family="MS Shell Dlg 2" font-size="10.3125" font-weight="400" font-style="normal" 
>
</g>

<g fill="#808080" fill-opacity="0.2" stroke="#333333" stroke-opacity="1" stroke-width="1" stroke-linecap="round" stroke-linejoin="round" transform="matrix(0.99977,0,0,-0.99977,-166.337,-323.656)"
font-family="MS Shell Dlg 2" font-size="10.3125" font-weight="400" font-style="normal" 
>
<path vector-effect="non-scaling-stroke" fill-rule="evenodd" d="M4808.3,-2000 L4299.85,-981.802 L4267.26,-981.802 L4252.5,-981.176 L4239.52,-979.299 L4228.31,-976.17 L4218.87,-971.789 L4211.2,-966.157 L4205.1,-959.587 L4200.35,-952.39 L4196.96,-944.568 L4194.93,-936.12 L4194.25,-927.046 L4194.59,-920.397 L4195.61,-914.009 L4197.3,-907.881 L4199.68,-902.015 L4202.73,-896.409 L4206.33,-891.246 L4210.34,-886.709 L4214.77,-882.798 L4219.62,-879.513 L4224.89,-876.853 L4230.97,-874.741 L4238.24,-873.098 L4246.71,-871.925 L4256.39,-871.221 L4267.26,-870.986 L4567.11,-870.986 L4581.87,-871.612 L4594.86,-873.489 L4606.07,-876.618 L4615.51,-880.999 L4623.17,-886.631 L4629.28,-893.254 L4634.02,-900.607 L4637.41,-908.69 L4639.44,-917.503 L4640.12,-927.046 L4639.44,-936.12 L4637.41,-944.568 L4634.02,-952.39 L4629.28,-959.587 L4623.17,-966.157 L4615.51,-971.789 L4606.07,-976.17 L4594.86,-979.299 L4581.87,-981.176 L4567.11,-981.802 L4419.79,-981.802 L4866.97,-1880.06 L5307.62,-981.802 L5160.3,-981.802 L5145.54,-981.176 L5132.56,-979.299 L5121.35,-976.17 L5111.91,-971.789 L5104.24,-966.157 L5098.14,-959.534 L5093.4,-952.181 L5090.01,-944.098 L5087.97,-935.285 L5087.29,-925.742 L5087.97,-916.668 L5090.01,-908.22 L5093.4,-900.398 L5098.14,-893.202 L5104.24,-886.631 L5111.91,-880.999 L5121.35,-876.618 L5132.56,-873.489 L5145.54,-871.612 L5160.3,-870.986 L5458.85,-870.986 L5474.08,-871.612 L5487.43,-873.489 L5498.9,-876.618 L5508.5,-880.999 L5516.22,-886.631 L5522.32,-893.254 L5527.06,-900.607 L5530.45,-908.69 L5532.49,-917.503 L5533.16,-927.046 L5532.75,-933.721 L5531.5,-940.187 L5529.41,-946.445 L5526.49,-952.494 L5522.73,-958.335 L5518.46,-963.68 L5513.97,-968.243 L5509.28,-972.024 L5504.38,-975.022 L5499.27,-977.239 L5492.18,-978.881 L5481.33,-980.159 L5466.73,-981.072 L5448.37,-981.619 L5426.26,-981.802 L4732.69,-2393.72 L4903.47,-2393.72 L4918.23,-2394.32 L4931.21,-2396.12 L4942.43,-2399.12 L4951.87,-2403.32 L4959.53,-2408.71 L4965.63,-2415.1 L4970.38,-2422.27 L4973.77,-2430.22 L4975.8,-2438.96 L4976.48,-2448.48 L4975.8,-2457.55 L4973.77,-2466 L4970.38,-2473.82 L4965.63,-2481.02 L4959.53,-2487.59 L4951.87,-2493.22 L4942.43,-2497.6 L4931.21,-2500.73 L4918.23,-2502.61 L4903.47,-2503.23 L4272.48,-2503.23 L4257.72,-2502.63 L4244.73,-2500.83 L4233.52,-2497.84 L4224.08,-2493.64 L4216.42,-2488.24 L4210.31,-2481.85 L4205.57,-2474.68 L4202.18,-2466.73 L4200.15,-2457.99 L4199.47,-2448.48 L4200.15,-2438.96 L4202.18,-2430.22 L4205.57,-2422.27 L4210.31,-2415.1 L4216.42,-2408.71 L4224.08,-2403.32 L4233.52,-2399.12 L4244.73,-2396.12 L4257.72,-2394.32 L4272.48,-2393.72 L4615.35,-2393.72 L4808.3,-2000"/>
</g>

<g fill="none" stroke="#000000" stroke-opacity="1" stroke-width="1" stroke-linecap="square" stroke-linejoin="bevel" transform="matrix(0.99977,0,0,-0.99977,-166.337,-323.656)"
font-family="MS Shell Dlg 2" font-size="10.3125" font-weight="400" font-style="normal" 
>
</g>

<g fill="none" stroke="#000000" stroke-opacity="1" stroke-width="1" stroke-linecap="square" stroke-linejoin="bevel" transform="matrix(0.99977,0,0,-0.99977,-166.337,-323.656)"
font-family="MS Shell Dlg 2" font-size="10.3125" font-weight="400" font-style="normal" 
>
</g>

<g fill="#808080" fill-opacity="0.2" stroke="#333333" stroke-opacity="1" stroke-width="1" stroke-linecap="round" stroke-linejoin="round" transform="matrix(0.99977,0,0,-0.99977,-166.337,-323.656)"
font-family="MS Shell Dlg 2" font-size="10.3125" font-weight="400" font-style="normal" 
>
<path vector-effect="non-scaling-stroke" fill-rule="evenodd" d="M611.44,-1890.49 L1338.91,-1890.49 L1338.91,-1455.05 L1339.54,-1440.29 L1341.41,-1427.31 L1344.54,-1416.09 L1348.92,-1406.66 L1354.56,-1398.99 L1361.18,-1392.89 L1368.53,-1388.14 L1376.61,-1384.75 L1385.43,-1382.72 L1394.97,-1382.04 L1404.04,-1382.69 L1412.49,-1384.65 L1420.31,-1387.91 L1427.51,-1392.47 L1434.08,-1398.34 L1439.71,-1405.82 L1444.09,-1415.23 L1447.22,-1426.58 L1449.1,-1439.85 L1449.73,-1455.05 L1449.73,-2000 L239.883,-2000 L225.125,-1999.37 L212.14,-1997.5 L200.928,-1994.37 L191.489,-1989.99 L183.823,-1984.36 L177.722,-1977.78 L172.976,-1970.59 L169.587,-1962.77 L167.553,-1954.32 L166.875,-1945.24 L167.553,-1935.73 L169.587,-1926.99 L172.976,-1919.04 L177.722,-1911.87 L183.823,-1905.48 L191.489,-1900.08 L200.928,-1895.89 L212.14,-1892.89 L225.125,-1891.09 L239.883,-1890.49 L500.625,-1890.49 L500.625,-584.17 L239.883,-584.17 L225.125,-583.57 L212.14,-581.771 L200.928,-578.773 L191.489,-574.575 L183.823,-569.177 L177.722,-562.789 L172.976,-555.619 L169.587,-547.666 L167.553,-538.931 L166.875,-529.414 L167.553,-519.897 L169.587,-511.162 L172.976,-503.209 L177.722,-496.039 L183.823,-489.651 L191.489,-484.254 L200.928,-480.056 L212.14,-477.057 L225.125,-475.258 L239.883,-474.658 L872.183,-474.658 L886.941,-475.258 L899.926,-477.057 L911.137,-480.056 L920.576,-484.254 L928.242,-489.651 L934.344,-496.039 L939.089,-503.209 L942.479,-511.162 L944.513,-519.897 L945.19,-529.414 L944.513,-538.931 L942.479,-547.666 L939.089,-555.619 L934.344,-562.789 L928.242,-569.177 L920.576,-574.575 L911.138,-578.773 L899.926,-581.771 L886.941,-583.57 L872.183,-584.17 L611.44,-584.17 L611.44,-1890.49"/>
</g>

<g fill="none" stroke="#000000" stroke-opacity="1" stroke-width="1" stroke-linecap="square" stroke-linejoin="bevel" transform="matrix(0.99977,0,0,-0.99977,-166.337,-323.656)"
font-family="MS Shell Dlg 2" font-size="10.3125" font-weight="400" font-style="normal" 
>
</g>

<g fill="none" stroke="#000000" stroke-opacity="1" stroke-width="1" stroke-linecap="square" stroke-linejoin="bevel" transform="matrix(0.99977,0,0,-0.99977,-166.337,-323.656)"
font-family="MS Shell Dlg 2" font-size="10.3125" font-weight="400" font-style="normal" 
>
</g>

<g fill="#808080" fill-opacity="0.2" stroke="#333333" stroke-opacity="1" stroke-width="1" stroke-linecap="round" stroke-linejoin="round" transform="matrix(0.99977,0,0,-0.99977,-166.337,-323.656)"
font-family="MS Shell Dlg 2" font-size="10.3125" font-weight="400" font-style="normal" 
>
<path vector-effect="non-scaling-stroke" fill-rule="evenodd" d="M15250.3,-1074.37 L15215.1,-1131.36 L15177.4,-1182.42 L15137.1,-1227.53 L15094.2,-1266.69 L15048.8,-1299.91 L15001.9,-1327.13 L14954.6,-1348.3 L14906.7,-1363.42 L14858.4,-1372.5 L14809.6,-1375.52 L14764.5,-1372.92 L14720,-1365.09 L14676.1,-1352.06 L14632.7,-1333.8 L14589.9,-1310.34 L14549.2,-1281.84 L14511.9,-1248.49 L14478.1,-1210.29 L14447.9,-1167.24 L14421.1,-1119.34 L14398.6,-1068.52 L14381,-1016.72 L14368.5,-963.915 L14361,-910.124 L14358.5,-855.342 L14363.5,-776.467 L14378.4,-700.461 L14403.3,-627.323 L14438.2,-557.053 L14483,-489.651 L14536.2,-430.28 L14596.1,-384.102 L14662.7,-351.119 L14736,-331.328 L14816.1,-324.731 L14874.5,-328.434 L14930.8,-339.542 L14985.1,-358.054 L15037.2,-383.972 L15087.3,-417.295 L15134.1,-457.658 L15176.6,-504.696 L15214.6,-558.409 L15248.3,-618.796 L15277.6,-685.859 L15309.1,-778.996 L15333.5,-877.974 L15351,-982.793 L15361.5,-1093.45 L15365,-1209.95 L15362,-1299.65 L15353.1,-1383.08 L15338.2,-1460.26 L15317.4,-1531.19 L15290.7,-1595.85 L15269,-1637.31 L15243.6,-1678.24 L15214.6,-1718.66 L15181.8,-1758.55 L15145.3,-1797.92 L15106,-1835.58 L15064.8,-1870.31 L15021.6,-1902.12 L14976.6,-1931.01 L14929.5,-1956.98 L14863.3,-1986.55 L14796,-2009.54 L14727.7,-2025.97 L14658.4,-2035.83 L14588,-2039.11 L14542.8,-2037.34 L14501,-2032.02 L14462.7,-2023.15 L14427.8,-2010.74 L14396.3,-1994.79 L14384.1,-1986.02 L14374.6,-1976.43 L14367.9,-1966 L14363.8,-1954.74 L14362.4,-1942.64 L14363.1,-1934.06 L14364.9,-1926.05 L14368.1,-1918.62 L14372.4,-1911.76 L14378.1,-1905.48 L14384.6,-1900.08 L14391.6,-1895.89 L14399.2,-1892.89 L14407.3,-1891.09 L14415.9,-1890.49 L14422.7,-1891.06 L14430.7,-1892.78 L14439.8,-1895.65 L14450.1,-1899.67 L14461.5,-1904.83 L14482.5,-1913.75 L14504.7,-1920.68 L14528.2,-1925.64 L14552.9,-1928.61 L14578.8,-1929.6 L14686.8,-1921.59 L14788.5,-1897.58 L14883.9,-1857.56 L14973.1,-1801.52 L15056,-1729.48 L15127.8,-1645.39 L15183.7,-1553.22 L15223.6,-1452.96 L15247.5,-1344.62 L15255.5,-1228.2 L15255.3,-1204.53 L15254.6,-1177.31 L15253.6,-1146.54 L15252.1,-1112.23 L15250.3,-1074.37 M15229.4,-891.846 L15200.4,-792.738 L15168.8,-707.136 L15134.5,-635.041 L15097.6,-576.452 L15058,-531.37 L15015.6,-496.873 L14970.6,-470.043 L14922.7,-450.879 L14872.1,-439.38 L14818.7,-435.547 L14764.3,-440.24 L14712.6,-454.32 L14663.5,-477.787 L14617.2,-510.641 L14573.6,-552.881 L14535.6,-602.474 L14506,-657.386 L14484.9,-717.618 L14472.3,-783.168 L14468,-854.038 L14472.3,-923.004 L14484.9,-987.017 L14506,-1046.07 L14535.6,-1100.18 L14573.6,-1149.33 L14617,-1191.33 L14662.5,-1224.01 L14710.2,-1247.34 L14760.1,-1261.34 L14812.2,-1266.01 L14842.9,-1264.34 L14873.4,-1259.34 L14903.8,-1250.99 L14934,-1239.31 L14964.1,-1224.29 L14993.7,-1205.94 L15022.7,-1184.24 L15051,-1159.21 L15078.6,-1130.84 L15105.5,-1099.14 L15124.3,-1072.91 L15146,-1039.06 L15170.8,-997.603 L15198.6,-948.531 L15229.4,-891.846"/>
</g>

<g fill="none" stroke="#000000" stroke-opacity="1" stroke-width="1" stroke-linecap="square" stroke-linejoin="bevel" transform="matrix(0.99977,0,0,-0.99977,-166.337,-323.656)"
font-family="MS Shell Dlg 2" font-size="10.3125" font-weight="400" font-style="normal" 
>
</g>

<g fill="none" stroke="#000000" stroke-opacity="1" stroke-width="1" stroke-linecap="square" stroke-linejoin="bevel" transform="matrix(0.99977,0,0,-0.99977,-166.337,-323.656)"
font-family="MS Shell Dlg 2" font-size="10.3125" font-weight="400" font-style="normal" 
>
</g>

<g fill="#808080" fill-opacity="0.2" stroke="#333333" stroke-opacity="1" stroke-width="1" stroke-linecap="round" stroke-linejoin="round" transform="matrix(0.99977,0,0,-0.99977,-166.337,-323.656)"
font-family="MS Shell Dlg 2" font-size="10.3125" font-weight="400" font-style="normal" 
>
<path vector-effect="non-scaling-stroke" fill-rule="evenodd" d="M8670.11,-870.986 L8670.11,-1147.37 L8751.33,-1075.7 L8823.95,-1015.02 L8887.96,-965.349 L8943.37,-926.681 L8990.17,-899.016 L9032.02,-879.069 L9072.56,-863.555 L9111.8,-852.474 L9149.74,-845.825 L9186.38,-843.608 L9224.94,-846.242 L9262.41,-854.142 L9298.78,-867.31 L9334.06,-885.744 L9368.24,-909.446 L9398.52,-934.503 L9422.06,-957.005 L9438.88,-976.952 L9448.97,-994.343 L9452.33,-1009.18 L9451.68,-1018.75 L9449.73,-1027.64 L9446.47,-1035.85 L9441.9,-1043.39 L9436.04,-1050.25 L9429.18,-1056.11 L9421.64,-1060.68 L9413.43,-1063.94 L9404.54,-1065.89 L9394.97,-1066.54 L9389.91,-1066.36 L9385.17,-1065.81 L9380.73,-1064.9 L9376.61,-1063.62 L9372.81,-1061.98 L9368.53,-1059.35 L9363,-1055.1 L9356.22,-1049.23 L9348.19,-1041.75 L9338.91,-1032.65 L9321.13,-1015.54 L9304.28,-1000.73 L9288.38,-988.216 L9273.41,-977.995 L9259.38,-970.068 L9245.88,-963.967 L9232.48,-959.221 L9219.18,-955.832 L9205.98,-953.798 L9192.9,-953.12 L9163.04,-955.415 L9130.84,-962.298 L9096.29,-973.771 L9059.4,-989.833 L9020.15,-1010.48 L8973.82,-1040.05 L8915.65,-1082.87 L8845.64,-1138.92 L8763.79,-1208.23 L8670.11,-1290.78 L8670.11,-1890.49 L9155.09,-1890.49 L9170.32,-1891.09 L9183.67,-1892.89 L9195.14,-1895.89 L9204.73,-1900.08 L9212.45,-1905.48 L9218.55,-1911.87 L9223.3,-1919.04 L9226.69,-1926.99 L9228.72,-1935.73 L9229.4,-1945.24 L9228.72,-1954.32 L9226.69,-1962.77 L9223.3,-1970.59 L9218.55,-1977.78 L9212.45,-1984.36 L9204.73,-1989.99 L9195.14,-1994.37 L9183.67,-1997.5 L9170.32,-1999.37 L9155.09,-2000 L8295.94,-2000 L8281.18,-1999.4 L8268.2,-1997.6 L8256.99,-1994.6 L8247.55,-1990.4 L8239.88,-1985.01 L8233.78,-1978.67 L8229.04,-1971.66 L8225.65,-1963.97 L8223.61,-1955.6 L8222.93,-1946.55 L8223.59,-1937.97 L8225.54,-1929.96 L8228.8,-1922.53 L8233.36,-1915.68 L8239.23,-1909.39 L8246.71,-1903.99 L8256.13,-1899.8 L8267.47,-1896.8 L8280.74,-1895 L8295.94,-1894.4 L8560.6,-1894.4 L8560.6,-981.802 L8358.52,-981.802 L8343.76,-981.176 L8330.78,-979.299 L8319.57,-976.17 L8310.13,-971.789 L8302.46,-966.157 L8296.36,-959.534 L8291.61,-952.181 L8288.22,-944.098 L8286.19,-935.285 L8285.51,-925.742 L8286.16,-916.668 L8288.12,-908.22 L8291.38,-900.398 L8295.94,-893.202 L8301.81,-886.631 L8309.29,-880.999 L8318.71,-876.618 L8330.05,-873.489 L8343.32,-871.612 L8358.52,-870.986 L8670.11,-870.986"/>
</g>

<g fill="none" stroke="#000000" stroke-opacity="1" stroke-width="1" stroke-linecap="square" stroke-linejoin="bevel" transform="matrix(0.99977,0,0,-0.99977,-166.337,-323.656)"
font-family="MS Shell Dlg 2" font-size="10.3125" font-weight="400" font-style="normal" 
>
</g>

<g fill="none" stroke="#000000" stroke-opacity="1" stroke-width="1" stroke-linecap="square" stroke-linejoin="bevel" transform="matrix(0.99977,0,0,-0.99977,-166.337,-323.656)"
font-family="MS Shell Dlg 2" font-size="10.3125" font-weight="400" font-style="normal" 
>
</g>

<g fill="#808080" fill-opacity="0.2" stroke="#333333" stroke-opacity="1" stroke-width="1" stroke-linecap="round" stroke-linejoin="round" transform="matrix(0.99977,0,0,-0.99977,-166.337,-323.656)"
font-family="MS Shell Dlg 2" font-size="10.3125" font-weight="400" font-style="normal" 
>
<path vector-effect="non-scaling-stroke" fill-rule="evenodd" d="M3115.98,-2000 L3115.98,-1842.25 L3019.24,-1914.53 L2919.9,-1970.74 L2817.95,-2010.9 L2713.39,-2034.99 L2606.23,-2043.02 L2530.92,-2039.03 L2462.5,-2027.07 L2400.97,-2007.12 L2346.32,-1979.19 L2298.55,-1943.29 L2258.66,-1901.6 L2227.63,-1856.3 L2205.46,-1807.42 L2192.17,-1754.93 L2187.73,-1698.84 L2193.58,-1636.84 L2211.1,-1578.07 L2240.3,-1522.53 L2281.18,-1470.22 L2333.75,-1421.15 L2397.53,-1378.44 L2472.05,-1345.22 L2557.31,-1321.5 L2653.32,-1307.26 L2760.06,-1302.51 L2790.83,-1302.91 L2822.64,-1304.08 L2855.5,-1306.03 L2889.39,-1308.77 L2924.33,-1312.29 L2960.37,-1316.65 L2997.55,-1321.89 L3035.88,-1328.02 L3075.35,-1335.03 L3115.98,-1342.93 L3115.98,-1165.63 L3112.64,-1130.58 L3102.63,-1097.41 L3085.94,-1066.13 L3062.58,-1036.71 L3032.54,-1009.18 L2995.83,-985.244 L2952.44,-966.627 L2902.38,-953.329 L2845.64,-945.35 L2782.23,-942.69 L2727,-945.663 L2663.54,-954.58 L2591.83,-969.443 L2511.89,-990.25 L2423.71,-1017 L2408.22,-1021.7 L2395.13,-1025.35 L2384.44,-1027.95 L2376.15,-1029.52 L2370.25,-1030.04 L2362.14,-1029.41 L2354.51,-1027.54 L2347.33,-1024.41 L2340.63,-1020.03 L2334.4,-1014.39 L2329,-1007.82 L2324.81,-1000.63 L2321.81,-992.805 L2320.01,-984.357 L2319.41,-975.283 L2319.93,-966.783 L2321.5,-959.013 L2324.1,-951.973 L2327.75,-945.663 L2332.45,-940.083 L2344.18,-931.687 L2364.78,-922.144 L2394.24,-911.454 L2432.57,-899.616 L2479.77,-886.631 L2557.15,-866.919 L2626.62,-851.587 L2688.15,-840.636 L2741.76,-834.065 L2787.44,-831.875 L2866.71,-835.969 L2938.67,-848.25 L3003.34,-868.718 L3060.7,-897.373 L3110.76,-934.216 L3152.53,-976.222 L3185.02,-1020.37 L3208.23,-1066.65 L3222.15,-1115.07 L3226.79,-1165.63 L3226.79,-1890.49 L3372.81,-1890.49 L3388.03,-1891.09 L3401.38,-1892.89 L3412.86,-1895.89 L3422.45,-1900.08 L3430.17,-1905.48 L3436.27,-1911.87 L3441.02,-1919.04 L3444.41,-1926.99 L3446.44,-1935.73 L3447.12,-1945.24 L3446.44,-1954.32 L3444.41,-1962.77 L3441.02,-1970.59 L3436.27,-1977.78 L3430.17,-1984.36 L3422.45,-1989.99 L3412.86,-1994.37 L3401.38,-1997.5 L3388.03,-1999.37 L3372.81,-2000 L3115.98,-2000 M3115.98,-1455.05 L3084.84,-1446.65 L3052.98,-1439.2 L3020.39,-1432.68 L2987.07,-1427.1 L2953.01,-1422.46 L2918.23,-1418.7 L2882.72,-1415.78 L2846.47,-1413.7 L2809.5,-1412.44 L2771.8,-1412.03 L2680.54,-1416.15 L2597.62,-1428.51 L2523.05,-1449.1 L2456.82,-1477.94 L2398.94,-1515.02 L2362.33,-1546.99 L2333.85,-1581.35 L2313.52,-1618.12 L2301.31,-1657.28 L2297.25,-1698.84 L2300.35,-1737.22 L2309.66,-1773.1 L2325.17,-1806.48 L2346.89,-1837.35 L2374.82,-1865.72 L2408.69,-1890.12 L2448.24,-1909.11 L2493.48,-1922.66 L2544.4,-1930.8 L2601.01,-1933.51 L2657.04,-1931.24 L2711.46,-1924.44 L2764.26,-1913.09 L2815.45,-1897.22 L2865.01,-1876.8 L2914.06,-1851.43 L2963.68,-1820.69 L3013.87,-1784.57 L3064.64,-1743.09 L3115.98,-1696.24 L3115.98,-1455.05"/>
</g>

<g fill="none" stroke="#000000" stroke-opacity="1" stroke-width="1" stroke-linecap="square" stroke-linejoin="bevel" transform="matrix(0.99977,0,0,-0.99977,-166.337,-323.656)"
font-family="MS Shell Dlg 2" font-size="10.3125" font-weight="400" font-style="normal" 
>
</g>

<g fill="none" stroke="#000000" stroke-opacity="1" stroke-width="1" stroke-linecap="square" stroke-linejoin="bevel" transform="matrix(0.99977,0,0,-0.99977,-166.337,-323.656)"
font-family="MS Shell Dlg 2" font-size="10.3125" font-weight="400" font-style="normal" 
>
</g>

<g fill="#808080" fill-opacity="0.2" stroke="#333333" stroke-opacity="1" stroke-width="1" stroke-linecap="round" stroke-linejoin="round" transform="matrix(0.99977,0,0,-0.99977,-166.337,-323.656)"
font-family="MS Shell Dlg 2" font-size="10.3125" font-weight="400" font-style="normal" 
>
<path vector-effect="non-scaling-stroke" fill-rule="evenodd" d="M7393.67,-1461.57 L6277.69,-1461.57 L6293.99,-1543.26 L6319.93,-1618.33 L6355.52,-1686.77 L6400.76,-1748.59 L6455.65,-1803.79 L6518.2,-1850.49 L6586.44,-1886.81 L6660.36,-1912.76 L6739.96,-1928.32 L6825.25,-1933.51 L6874.74,-1931.89 L6925.17,-1927.04 L6976.53,-1918.96 L7028.84,-1907.65 L7082.08,-1893.1 L7133.81,-1875.89 L7181.58,-1856.59 L7225.38,-1835.21 L7265.23,-1811.74 L7301.1,-1786.19 L7310.75,-1779.15 L7319.88,-1773.68 L7328.48,-1769.76 L7336.56,-1767.42 L7344.13,-1766.64 L7352.26,-1767.29 L7359.98,-1769.24 L7367.28,-1772.5 L7374.16,-1777.07 L7380.63,-1782.93 L7386.26,-1789.69 L7390.64,-1796.91 L7393.77,-1804.6 L7395.65,-1812.76 L7396.27,-1821.39 L7395.44,-1830.2 L7392.94,-1838.91 L7388.77,-1847.52 L7382.92,-1856.02 L7375.42,-1864.41 L7346.5,-1890.15 L7309.81,-1915.21 L7265.36,-1939.59 L7213.13,-1963.29 L7153.13,-1986.31 L7088.91,-2006.73 L7024.01,-2022.61 L6958.44,-2033.95 L6892.18,-2040.75 L6825.25,-2043.02 L6716.34,-2035.64 L6614.88,-2013.51 L6520.88,-1976.61 L6434.34,-1924.96 L6355.26,-1858.55 L6287.44,-1781.65 L6234.69,-1698.56 L6197.02,-1609.25 L6174.41,-1513.74 L6166.88,-1412.03 L6173.94,-1319.31 L6195.14,-1232.01 L6230.47,-1150.14 L6279.93,-1073.69 L6343.53,-1002.66 L6417.55,-941.178 L6498.3,-893.358 L6585.78,-859.201 L6679.99,-838.706 L6780.92,-831.875 L6884.54,-838.889 L6980.55,-859.931 L7068.94,-895.001 L7149.72,-944.098 L7222.88,-1007.22 L7285.2,-1081.51 L7333.44,-1164.09 L7367.59,-1254.96 L7387.67,-1354.12 L7393.67,-1461.57 M7282.85,-1350.75 L7265.56,-1280.98 L7239.78,-1216.63 L7205.49,-1157.7 L7162.7,-1104.19 L7111.41,-1056.11 L7053.76,-1015.28 L6991.89,-983.523 L6925.79,-960.838 L6855.47,-947.227 L6780.92,-942.69 L6706.4,-947.175 L6636.16,-960.629 L6570.19,-983.053 L6508.5,-1014.45 L6451.08,-1054.81 L6399.98,-1102.53 L6357.22,-1155.98 L6322.8,-1215.17 L6296.72,-1280.09 L6278.99,-1350.75 L7282.85,-1350.75"/>
</g>

<g fill="none" stroke="#000000" stroke-opacity="1" stroke-width="1" stroke-linecap="square" stroke-linejoin="bevel" transform="matrix(0.99977,0,0,-0.99977,-166.337,-323.656)"
font-family="MS Shell Dlg 2" font-size="10.3125" font-weight="400" font-style="normal" 
>
</g>

<g fill="none" stroke="#000000" stroke-opacity="1" stroke-width="1" stroke-linecap="square" stroke-linejoin="bevel" transform="matrix(0.99977,0,0,-0.99977,-166.337,-323.656)"
font-family="MS Shell Dlg 2" font-size="10.3125" font-weight="400" font-style="normal" 
>
</g>

<g fill="#808080" fill-opacity="0.2" stroke="#333333" stroke-opacity="1" stroke-width="1" stroke-linecap="round" stroke-linejoin="round" transform="matrix(0.99977,0,0,-0.99977,-166.337,-323.656)"
font-family="MS Shell Dlg 2" font-size="10.3125" font-weight="400" font-style="normal" 
>
<path vector-effect="non-scaling-stroke" fill-rule="evenodd" d="M4808.3,-2000 L4299.85,-981.802 L4267.26,-981.802 L4252.5,-981.176 L4239.52,-979.299 L4228.31,-976.17 L4218.87,-971.789 L4211.2,-966.157 L4205.1,-959.587 L4200.35,-952.39 L4196.96,-944.568 L4194.93,-936.12 L4194.25,-927.046 L4194.59,-920.397 L4195.61,-914.009 L4197.3,-907.881 L4199.68,-902.015 L4202.73,-896.409 L4206.33,-891.246 L4210.34,-886.709 L4214.77,-882.798 L4219.62,-879.513 L4224.89,-876.853 L4230.97,-874.741 L4238.24,-873.098 L4246.71,-871.925 L4256.39,-871.221 L4267.26,-870.986 L4567.11,-870.986 L4581.87,-871.612 L4594.86,-873.489 L4606.07,-876.618 L4615.51,-880.999 L4623.17,-886.631 L4629.28,-893.254 L4634.02,-900.607 L4637.41,-908.69 L4639.44,-917.503 L4640.12,-927.046 L4639.44,-936.12 L4637.41,-944.568 L4634.02,-952.39 L4629.28,-959.587 L4623.17,-966.157 L4615.51,-971.789 L4606.07,-976.17 L4594.86,-979.299 L4581.87,-981.176 L4567.11,-981.802 L4419.79,-981.802 L4866.97,-1880.06 L5307.62,-981.802 L5160.3,-981.802 L5145.54,-981.176 L5132.56,-979.299 L5121.35,-976.17 L5111.91,-971.789 L5104.24,-966.157 L5098.14,-959.534 L5093.4,-952.181 L5090.01,-944.098 L5087.97,-935.285 L5087.29,-925.742 L5087.97,-916.668 L5090.01,-908.22 L5093.4,-900.398 L5098.14,-893.202 L5104.24,-886.631 L5111.91,-880.999 L5121.35,-876.618 L5132.56,-873.489 L5145.54,-871.612 L5160.3,-870.986 L5458.85,-870.986 L5474.08,-871.612 L5487.43,-873.489 L5498.9,-876.618 L5508.5,-880.999 L5516.22,-886.631 L5522.32,-893.254 L5527.06,-900.607 L5530.45,-908.69 L5532.49,-917.503 L5533.16,-927.046 L5532.75,-933.721 L5531.5,-940.187 L5529.41,-946.445 L5526.49,-952.494 L5522.73,-958.335 L5518.46,-963.68 L5513.97,-968.243 L5509.28,-972.024 L5504.38,-975.022 L5499.27,-977.239 L5492.18,-978.881 L5481.33,-980.159 L5466.73,-981.072 L5448.37,-981.619 L5426.26,-981.802 L4732.69,-2393.72 L4903.47,-2393.72 L4918.23,-2394.32 L4931.21,-2396.12 L4942.43,-2399.12 L4951.87,-2403.32 L4959.53,-2408.71 L4965.63,-2415.1 L4970.38,-2422.27 L4973.77,-2430.22 L4975.8,-2438.96 L4976.48,-2448.48 L4975.8,-2457.55 L4973.77,-2466 L4970.38,-2473.82 L4965.63,-2481.02 L4959.53,-2487.59 L4951.87,-2493.22 L4942.43,-2497.6 L4931.21,-2500.73 L4918.23,-2502.61 L4903.47,-2503.23 L4272.48,-2503.23 L4257.72,-2502.63 L4244.73,-2500.83 L4233.52,-2497.84 L4224.08,-2493.64 L4216.42,-2488.24 L4210.31,-2481.85 L4205.57,-2474.68 L4202.18,-2466.73 L4200.15,-2457.99 L4199.47,-2448.48 L4200.15,-2438.96 L4202.18,-2430.22 L4205.57,-2422.27 L4210.31,-2415.1 L4216.42,-2408.71 L4224.08,-2403.32 L4233.52,-2399.12 L4244.73,-2396.12 L4257.72,-2394.32 L4272.48,-2393.72 L4615.35,-2393.72 L4808.3,-2000"/>
</g>

<g fill="none" stroke="#000000" stroke-opacity="1" stroke-width="1" stroke-linecap="square" stroke-linejoin="bevel" transform="matrix(0.99977,0,0,-0.99977,-166.337,-323.656)"
font-family="MS Shell Dlg 2" font-size="10.3125" font-weight="400" font-style="normal" 
>
</g>

<g fill="none" stroke="#000000" stroke-opacity="1" stroke-width="1" stroke-linecap="square" stroke-linejoin="bevel" transform="matrix(1,0,0,-1,0,2179.5)"
font-family="MS Shell Dlg 2" font-size="10.3125" font-weight="400" font-style="normal" 
>
</g>
</g>
</svg>
