<?xml version="1.0" encoding="UTF-8" standalone="no"?>
<svg width="283.916mm" height="484.011mm"
 xmlns="http://www.w3.org/2000/svg" xmlns:xlink="http://www.w3.org/1999/xlink"  version="1.2" baseProfile="tiny">
<title>SVG Generator Example Drawing</title>
<desc>An SVG drawing created by the SVG Generator</desc>
<defs>
</defs>
<g fill="none" stroke="black" stroke-width="1" fill-rule="evenodd" stroke-linecap="square" stroke-linejoin="bevel" >

<g fill="none" stroke="#000000" stroke-opacity="1" stroke-width="1" stroke-linecap="square" stroke-linejoin="bevel" transform="matrix(1,0,0,-1,0,1715.38)"
font-family="MS Shell Dlg 2" font-size="10.3125" font-weight="400" font-style="normal" 
>
</g>

<g fill="none" stroke="#000000" stroke-opacity="1" stroke-width="1" stroke-linecap="square" stroke-linejoin="bevel" transform="matrix(1,0,0,-1,0,1715.38)"
font-family="MS Shell Dlg 2" font-size="10.3125" font-weight="400" font-style="normal" 
>
</g>

<g fill="none" stroke="#000000" stroke-opacity="1" stroke-width="1" stroke-linecap="square" stroke-linejoin="bevel" transform="matrix(0.999779,0,0,-0.999779,-12295.3,-323.78)"
font-family="MS Shell Dlg 2" font-size="10.3125" font-weight="400" font-style="normal" 
>
</g>

<g fill="#808080" fill-opacity="0.2" stroke="#333333" stroke-opacity="1" stroke-width="1" stroke-linecap="round" stroke-linejoin="round" transform="matrix(0.999779,0,0,-0.999779,-12295.3,-323.78)"
font-family="MS Shell Dlg 2" font-size="10.3125" font-weight="400" font-style="normal" 
>
<path vector-effect="non-scaling-stroke" fill-rule="evenodd" d="M13303.7,-1318.16 L13297,-1453.59 L13276.8,-1577.23 L13243.2,-1689.09 L13196.1,-1789.16 L13135.5,-1877.45 L13080.1,-1935.65 L13019.1,-1980.91 L12952.6,-2013.25 L12880.6,-2032.64 L12803.1,-2039.11 L12764.9,-2037.57 L12727.7,-2032.96 L12691.3,-2025.27 L12655.8,-2014.5 L12621.2,-2000.65 L12588.1,-1984.04 L12557,-1964.98 L12527.9,-1943.47 L12500.9,-1919.51 L12475.9,-1893.1 L12460.4,-1873.8 L12444.5,-1850.33 L12427.9,-1822.7 L12410.8,-1790.88 L12393.1,-1754.9 L12376.1,-1717.46 L12361.2,-1681.27 L12348.2,-1646.33 L12337.4,-1612.64 L12328.5,-1580.21 L12317.7,-1533.85 L12309.3,-1484.46 L12303.3,-1432.05 L12299.7,-1376.62 L12298.5,-1318.16 L12298.5,-1046.99 L12305.3,-911.088 L12325.5,-787.079 L12359.1,-674.96 L12406.2,-574.731 L12466.7,-486.392 L12522.2,-428.194 L12583.1,-382.929 L12649.6,-350.597 L12721.6,-331.198 L12799.2,-324.731 L12837.8,-326.27 L12875.3,-330.885 L12911.8,-338.577 L12947.3,-349.346 L12981.7,-363.191 L13014.6,-379.8 L13045.5,-398.86 L13074.5,-420.372 L13101.4,-444.334 L13126.4,-470.747 L13142.3,-490.511 L13158.5,-514.343 L13175.2,-542.243 L13192.3,-574.21 L13209.8,-610.244 L13226.6,-647.635 L13241.5,-683.669 L13254.6,-718.348 L13265.7,-751.671 L13275,-783.638 L13285.4,-830.05 L13293.4,-879.591 L13299.1,-932.261 L13302.6,-988.06 L13303.7,-1046.99 L13303.7,-1318.16 M13194.2,-1061.33 L13192.5,-1000.13 L13187.2,-940.657 L13178.5,-882.902 L13166.2,-826.869 L13150.5,-772.556 L13132.6,-721.268 L13113.8,-674.308 L13094.1,-631.677 L13073.6,-593.374 L13052.1,-559.399 L13038.3,-541.669 L13022.9,-524.981 L13005.9,-509.337 L12987.4,-494.735 L12967.4,-481.177 L12936.9,-464.75 L12905,-451.974 L12871.6,-442.848 L12836.8,-437.372 L12800.5,-435.547 L12730.1,-443.056 L12666.1,-465.584 L12608.5,-503.131 L12557.3,-555.697 L12512.4,-623.281 L12474.8,-700.878 L12445.6,-783.481 L12424.7,-871.091 L12412.2,-963.706 L12408.1,-1061.33 L12408.1,-1302.51 L12409.8,-1363.74 L12415,-1423.29 L12423.8,-1481.18 L12436,-1537.39 L12451.7,-1591.94 L12469.7,-1643.46 L12488.7,-1690.6 L12508.6,-1733.37 L12529.5,-1771.75 L12551.5,-1805.75 L12564.8,-1823.01 L12579.8,-1839.33 L12596.5,-1854.71 L12614.9,-1869.16 L12634.9,-1882.67 L12665.4,-1899.56 L12697.5,-1912.7 L12731.1,-1922.09 L12766.3,-1927.72 L12803.1,-1929.6 L12873,-1922.06 L12936.6,-1899.46 L12993.9,-1861.78 L13045.1,-1809.03 L13089.9,-1741.21 L13127.4,-1663.38 L13156.7,-1580.6 L13177.5,-1492.86 L13190,-1400.16 L13194.2,-1302.51 L13194.2,-1061.33"/>
</g>

<g fill="none" stroke="#000000" stroke-opacity="1" stroke-width="1" stroke-linecap="square" stroke-linejoin="bevel" transform="matrix(0.999779,0,0,-0.999779,-12295.3,-323.78)"
font-family="MS Shell Dlg 2" font-size="10.3125" font-weight="400" font-style="normal" 
>
</g>

<g fill="none" stroke="#000000" stroke-opacity="1" stroke-width="1" stroke-linecap="square" stroke-linejoin="bevel" transform="matrix(0.999779,0,0,-0.999779,-12295.3,-323.78)"
font-family="MS Shell Dlg 2" font-size="10.3125" font-weight="400" font-style="normal" 
>
</g>

<g fill="#808080" fill-opacity="0.2" stroke="#333333" stroke-opacity="1" stroke-width="1" stroke-linecap="round" stroke-linejoin="round" transform="matrix(0.999779,0,0,-0.999779,-12295.3,-323.78)"
font-family="MS Shell Dlg 2" font-size="10.3125" font-weight="400" font-style="normal" 
>
<path vector-effect="non-scaling-stroke" fill-rule="evenodd" d="M13303.7,-1318.16 L13297,-1453.59 L13276.8,-1577.23 L13243.2,-1689.09 L13196.1,-1789.16 L13135.5,-1877.45 L13080.1,-1935.65 L13019.1,-1980.91 L12952.6,-2013.25 L12880.6,-2032.64 L12803.1,-2039.11 L12764.9,-2037.57 L12727.7,-2032.96 L12691.3,-2025.27 L12655.8,-2014.5 L12621.2,-2000.65 L12588.1,-1984.04 L12557,-1964.98 L12527.9,-1943.47 L12500.9,-1919.51 L12475.9,-1893.1 L12460.4,-1873.8 L12444.5,-1850.33 L12427.9,-1822.7 L12410.8,-1790.88 L12393.1,-1754.9 L12376.1,-1717.46 L12361.2,-1681.27 L12348.2,-1646.33 L12337.4,-1612.64 L12328.5,-1580.21 L12317.7,-1533.85 L12309.3,-1484.46 L12303.3,-1432.05 L12299.7,-1376.62 L12298.5,-1318.16 L12298.5,-1046.99 L12305.3,-911.088 L12325.5,-787.079 L12359.1,-674.96 L12406.2,-574.731 L12466.7,-486.392 L12522.2,-428.194 L12583.1,-382.929 L12649.6,-350.597 L12721.6,-331.198 L12799.2,-324.731 L12837.8,-326.27 L12875.3,-330.885 L12911.8,-338.577 L12947.3,-349.346 L12981.7,-363.191 L13014.6,-379.8 L13045.5,-398.86 L13074.5,-420.372 L13101.4,-444.334 L13126.4,-470.747 L13142.3,-490.511 L13158.5,-514.343 L13175.2,-542.243 L13192.3,-574.21 L13209.8,-610.244 L13226.6,-647.635 L13241.5,-683.669 L13254.6,-718.348 L13265.7,-751.671 L13275,-783.638 L13285.4,-830.05 L13293.4,-879.591 L13299.1,-932.261 L13302.6,-988.06 L13303.7,-1046.99 L13303.7,-1318.16 M13194.2,-1061.33 L13192.5,-1000.13 L13187.2,-940.657 L13178.5,-882.902 L13166.2,-826.869 L13150.5,-772.556 L13132.6,-721.268 L13113.8,-674.308 L13094.1,-631.677 L13073.6,-593.374 L13052.1,-559.399 L13038.3,-541.669 L13022.9,-524.981 L13005.9,-509.337 L12987.4,-494.735 L12967.4,-481.177 L12936.9,-464.75 L12905,-451.974 L12871.6,-442.848 L12836.8,-437.372 L12800.5,-435.547 L12730.1,-443.056 L12666.1,-465.584 L12608.5,-503.131 L12557.3,-555.697 L12512.4,-623.281 L12474.8,-700.878 L12445.6,-783.481 L12424.7,-871.091 L12412.2,-963.706 L12408.1,-1061.33 L12408.1,-1302.51 L12409.8,-1363.74 L12415,-1423.29 L12423.8,-1481.18 L12436,-1537.39 L12451.7,-1591.94 L12469.7,-1643.46 L12488.7,-1690.6 L12508.6,-1733.37 L12529.5,-1771.75 L12551.5,-1805.75 L12564.8,-1823.01 L12579.8,-1839.33 L12596.5,-1854.71 L12614.9,-1869.16 L12634.9,-1882.67 L12665.4,-1899.56 L12697.5,-1912.7 L12731.1,-1922.09 L12766.3,-1927.72 L12803.1,-1929.6 L12873,-1922.06 L12936.6,-1899.46 L12993.9,-1861.78 L13045.1,-1809.03 L13089.9,-1741.21 L13127.4,-1663.38 L13156.7,-1580.6 L13177.5,-1492.86 L13190,-1400.16 L13194.2,-1302.51 L13194.2,-1061.33"/>
</g>

<g fill="none" stroke="#000000" stroke-opacity="1" stroke-width="1" stroke-linecap="square" stroke-linejoin="bevel" transform="matrix(0.999779,0,0,-0.999779,-12295.3,-323.78)"
font-family="MS Shell Dlg 2" font-size="10.3125" font-weight="400" font-style="normal" 
>
</g>

<g fill="none" stroke="#000000" stroke-opacity="1" stroke-width="1" stroke-linecap="square" stroke-linejoin="bevel" transform="matrix(0.999779,0,0,-0.999779,-12295.3,-323.78)"
font-family="MS Shell Dlg 2" font-size="10.3125" font-weight="400" font-style="normal" 
>
</g>

<g fill="#808080" fill-opacity="0.2" stroke="#333333" stroke-opacity="1" stroke-width="1" stroke-linecap="round" stroke-linejoin="round" transform="matrix(0.999779,0,0,-0.999779,-12295.3,-323.78)"
font-family="MS Shell Dlg 2" font-size="10.3125" font-weight="400" font-style="normal" 
>
<path vector-effect="non-scaling-stroke" fill-rule="evenodd" d="M13303.7,-1318.16 L13297,-1453.59 L13276.8,-1577.23 L13243.2,-1689.09 L13196.1,-1789.16 L13135.5,-1877.45 L13080.1,-1935.65 L13019.1,-1980.91 L12952.6,-2013.25 L12880.6,-2032.64 L12803.1,-2039.11 L12764.9,-2037.57 L12727.7,-2032.96 L12691.3,-2025.27 L12655.8,-2014.5 L12621.2,-2000.65 L12588.1,-1984.04 L12557,-1964.98 L12527.9,-1943.47 L12500.9,-1919.51 L12475.9,-1893.1 L12460.4,-1873.8 L12444.5,-1850.33 L12427.9,-1822.7 L12410.8,-1790.88 L12393.1,-1754.9 L12376.1,-1717.46 L12361.2,-1681.27 L12348.2,-1646.33 L12337.4,-1612.64 L12328.5,-1580.21 L12317.7,-1533.85 L12309.3,-1484.46 L12303.3,-1432.05 L12299.7,-1376.62 L12298.5,-1318.16 L12298.5,-1046.99 L12305.3,-911.088 L12325.5,-787.079 L12359.1,-674.96 L12406.2,-574.731 L12466.7,-486.392 L12522.2,-428.194 L12583.1,-382.929 L12649.6,-350.597 L12721.6,-331.198 L12799.2,-324.731 L12837.8,-326.27 L12875.3,-330.885 L12911.8,-338.577 L12947.3,-349.346 L12981.7,-363.191 L13014.6,-379.8 L13045.5,-398.86 L13074.5,-420.372 L13101.4,-444.334 L13126.4,-470.747 L13142.3,-490.511 L13158.5,-514.343 L13175.2,-542.243 L13192.3,-574.21 L13209.8,-610.244 L13226.6,-647.635 L13241.5,-683.669 L13254.6,-718.348 L13265.7,-751.671 L13275,-783.638 L13285.4,-830.05 L13293.4,-879.591 L13299.1,-932.261 L13302.6,-988.06 L13303.7,-1046.99 L13303.7,-1318.16 M13194.2,-1061.33 L13192.5,-1000.13 L13187.2,-940.657 L13178.5,-882.902 L13166.2,-826.869 L13150.5,-772.556 L13132.6,-721.268 L13113.8,-674.308 L13094.1,-631.677 L13073.6,-593.374 L13052.1,-559.399 L13038.3,-541.669 L13022.9,-524.981 L13005.9,-509.337 L12987.4,-494.735 L12967.4,-481.177 L12936.9,-464.75 L12905,-451.974 L12871.6,-442.848 L12836.8,-437.372 L12800.5,-435.547 L12730.1,-443.056 L12666.1,-465.584 L12608.5,-503.131 L12557.3,-555.697 L12512.4,-623.281 L12474.8,-700.878 L12445.6,-783.481 L12424.7,-871.091 L12412.2,-963.706 L12408.1,-1061.33 L12408.1,-1302.51 L12409.8,-1363.74 L12415,-1423.29 L12423.8,-1481.18 L12436,-1537.39 L12451.7,-1591.94 L12469.7,-1643.46 L12488.7,-1690.6 L12508.6,-1733.37 L12529.5,-1771.75 L12551.5,-1805.75 L12564.8,-1823.01 L12579.8,-1839.33 L12596.5,-1854.71 L12614.9,-1869.16 L12634.9,-1882.67 L12665.4,-1899.56 L12697.5,-1912.7 L12731.1,-1922.09 L12766.3,-1927.72 L12803.1,-1929.6 L12873,-1922.06 L12936.6,-1899.46 L12993.9,-1861.78 L13045.1,-1809.03 L13089.9,-1741.21 L13127.4,-1663.38 L13156.7,-1580.6 L13177.5,-1492.86 L13190,-1400.16 L13194.2,-1302.51 L13194.2,-1061.33"/>
</g>

<g fill="none" stroke="#000000" stroke-opacity="1" stroke-width="1" stroke-linecap="square" stroke-linejoin="bevel" transform="matrix(0.999779,0,0,-0.999779,-12295.3,-323.78)"
font-family="MS Shell Dlg 2" font-size="10.3125" font-weight="400" font-style="normal" 
>
</g>

<g fill="none" stroke="#000000" stroke-opacity="1" stroke-width="1" stroke-linecap="square" stroke-linejoin="bevel" transform="matrix(0.999779,0,0,-0.999779,-12295.3,-323.78)"
font-family="MS Shell Dlg 2" font-size="10.3125" font-weight="400" font-style="normal" 
>
</g>

<g fill="#808080" fill-opacity="0.2" stroke="#333333" stroke-opacity="1" stroke-width="1" stroke-linecap="round" stroke-linejoin="round" transform="matrix(0.999779,0,0,-0.999779,-12295.3,-323.78)"
font-family="MS Shell Dlg 2" font-size="10.3125" font-weight="400" font-style="normal" 
>
<path vector-effect="non-scaling-stroke" fill-rule="evenodd" d="M13303.7,-1318.16 L13297,-1453.59 L13276.8,-1577.23 L13243.2,-1689.09 L13196.1,-1789.16 L13135.5,-1877.45 L13080.1,-1935.65 L13019.1,-1980.91 L12952.6,-2013.25 L12880.6,-2032.64 L12803.1,-2039.11 L12764.9,-2037.57 L12727.7,-2032.96 L12691.3,-2025.27 L12655.8,-2014.5 L12621.2,-2000.65 L12588.1,-1984.04 L12557,-1964.98 L12527.9,-1943.47 L12500.9,-1919.51 L12475.9,-1893.1 L12460.4,-1873.8 L12444.5,-1850.33 L12427.9,-1822.7 L12410.8,-1790.88 L12393.1,-1754.9 L12376.1,-1717.46 L12361.2,-1681.27 L12348.2,-1646.33 L12337.4,-1612.64 L12328.5,-1580.21 L12317.7,-1533.85 L12309.3,-1484.46 L12303.3,-1432.05 L12299.7,-1376.62 L12298.5,-1318.16 L12298.5,-1046.99 L12305.3,-911.088 L12325.5,-787.079 L12359.1,-674.96 L12406.2,-574.731 L12466.7,-486.392 L12522.2,-428.194 L12583.1,-382.929 L12649.6,-350.597 L12721.6,-331.198 L12799.2,-324.731 L12837.8,-326.27 L12875.3,-330.885 L12911.8,-338.577 L12947.3,-349.346 L12981.7,-363.191 L13014.6,-379.8 L13045.5,-398.86 L13074.5,-420.372 L13101.4,-444.334 L13126.4,-470.747 L13142.3,-490.511 L13158.5,-514.343 L13175.2,-542.243 L13192.3,-574.21 L13209.8,-610.244 L13226.6,-647.635 L13241.5,-683.669 L13254.6,-718.348 L13265.7,-751.671 L13275,-783.638 L13285.4,-830.05 L13293.4,-879.591 L13299.1,-932.261 L13302.6,-988.06 L13303.7,-1046.99 L13303.7,-1318.16 M13194.2,-1061.33 L13192.5,-1000.13 L13187.2,-940.657 L13178.5,-882.902 L13166.2,-826.869 L13150.5,-772.556 L13132.6,-721.268 L13113.8,-674.308 L13094.1,-631.677 L13073.6,-593.374 L13052.1,-559.399 L13038.3,-541.669 L13022.9,-524.981 L13005.9,-509.337 L12987.4,-494.735 L12967.4,-481.177 L12936.9,-464.75 L12905,-451.974 L12871.6,-442.848 L12836.8,-437.372 L12800.5,-435.547 L12730.1,-443.056 L12666.1,-465.584 L12608.5,-503.131 L12557.3,-555.697 L12512.4,-623.281 L12474.8,-700.878 L12445.6,-783.481 L12424.7,-871.091 L12412.2,-963.706 L12408.1,-1061.33 L12408.1,-1302.51 L12409.8,-1363.74 L12415,-1423.29 L12423.8,-1481.18 L12436,-1537.39 L12451.7,-1591.94 L12469.7,-1643.46 L12488.7,-1690.6 L12508.6,-1733.37 L12529.5,-1771.75 L12551.5,-1805.75 L12564.8,-1823.01 L12579.8,-1839.33 L12596.5,-1854.71 L12614.9,-1869.16 L12634.9,-1882.67 L12665.4,-1899.56 L12697.5,-1912.7 L12731.1,-1922.09 L12766.3,-1927.72 L12803.1,-1929.6 L12873,-1922.06 L12936.6,-1899.46 L12993.9,-1861.78 L13045.1,-1809.03 L13089.9,-1741.21 L13127.4,-1663.38 L13156.7,-1580.6 L13177.5,-1492.86 L13190,-1400.16 L13194.2,-1302.51 L13194.2,-1061.33"/>
</g>

<g fill="none" stroke="#000000" stroke-opacity="1" stroke-width="1" stroke-linecap="square" stroke-linejoin="bevel" transform="matrix(0.999779,0,0,-0.999779,-12295.3,-323.78)"
font-family="MS Shell Dlg 2" font-size="10.3125" font-weight="400" font-style="normal" 
>
</g>

<g fill="none" stroke="#000000" stroke-opacity="1" stroke-width="1" stroke-linecap="square" stroke-linejoin="bevel" transform="matrix(0.999779,0,0,-0.999779,-12295.3,-323.78)"
font-family="MS Shell Dlg 2" font-size="10.3125" font-weight="400" font-style="normal" 
>
</g>

<g fill="#808080" fill-opacity="0.2" stroke="#333333" stroke-opacity="1" stroke-width="1" stroke-linecap="round" stroke-linejoin="round" transform="matrix(0.999779,0,0,-0.999779,-12295.3,-323.78)"
font-family="MS Shell Dlg 2" font-size="10.3125" font-weight="400" font-style="normal" 
>
<path vector-effect="non-scaling-stroke" fill-rule="evenodd" d="M13303.7,-1318.16 L13297,-1453.59 L13276.8,-1577.23 L13243.2,-1689.09 L13196.1,-1789.16 L13135.5,-1877.45 L13080.1,-1935.65 L13019.1,-1980.91 L12952.6,-2013.25 L12880.6,-2032.64 L12803.1,-2039.11 L12764.9,-2037.57 L12727.7,-2032.96 L12691.3,-2025.27 L12655.8,-2014.5 L12621.2,-2000.65 L12588.1,-1984.04 L12557,-1964.98 L12527.9,-1943.47 L12500.9,-1919.51 L12475.9,-1893.1 L12460.4,-1873.8 L12444.5,-1850.33 L12427.9,-1822.7 L12410.8,-1790.88 L12393.1,-1754.9 L12376.1,-1717.46 L12361.2,-1681.27 L12348.2,-1646.33 L12337.4,-1612.64 L12328.5,-1580.21 L12317.7,-1533.85 L12309.3,-1484.46 L12303.3,-1432.05 L12299.7,-1376.62 L12298.5,-1318.16 L12298.5,-1046.99 L12305.3,-911.088 L12325.5,-787.079 L12359.1,-674.96 L12406.2,-574.731 L12466.7,-486.392 L12522.2,-428.194 L12583.1,-382.929 L12649.6,-350.597 L12721.6,-331.198 L12799.2,-324.731 L12837.8,-326.27 L12875.3,-330.885 L12911.8,-338.577 L12947.3,-349.346 L12981.7,-363.191 L13014.6,-379.8 L13045.5,-398.86 L13074.5,-420.372 L13101.4,-444.334 L13126.4,-470.747 L13142.3,-490.511 L13158.5,-514.343 L13175.2,-542.243 L13192.3,-574.21 L13209.8,-610.244 L13226.6,-647.635 L13241.5,-683.669 L13254.6,-718.348 L13265.7,-751.671 L13275,-783.638 L13285.4,-830.05 L13293.4,-879.591 L13299.1,-932.261 L13302.6,-988.06 L13303.7,-1046.99 L13303.7,-1318.16 M13194.2,-1061.33 L13192.5,-1000.13 L13187.2,-940.657 L13178.5,-882.902 L13166.2,-826.869 L13150.5,-772.556 L13132.6,-721.268 L13113.8,-674.308 L13094.1,-631.677 L13073.6,-593.374 L13052.1,-559.399 L13038.3,-541.669 L13022.9,-524.981 L13005.9,-509.337 L12987.4,-494.735 L12967.4,-481.177 L12936.9,-464.75 L12905,-451.974 L12871.6,-442.848 L12836.8,-437.372 L12800.5,-435.547 L12730.1,-443.056 L12666.1,-465.584 L12608.5,-503.131 L12557.3,-555.697 L12512.4,-623.281 L12474.8,-700.878 L12445.6,-783.481 L12424.7,-871.091 L12412.2,-963.706 L12408.1,-1061.33 L12408.1,-1302.51 L12409.8,-1363.74 L12415,-1423.29 L12423.8,-1481.18 L12436,-1537.39 L12451.7,-1591.94 L12469.7,-1643.46 L12488.7,-1690.6 L12508.6,-1733.37 L12529.5,-1771.75 L12551.5,-1805.75 L12564.8,-1823.01 L12579.8,-1839.33 L12596.5,-1854.71 L12614.9,-1869.16 L12634.9,-1882.67 L12665.4,-1899.56 L12697.5,-1912.7 L12731.1,-1922.09 L12766.3,-1927.72 L12803.1,-1929.6 L12873,-1922.06 L12936.6,-1899.46 L12993.9,-1861.78 L13045.1,-1809.03 L13089.9,-1741.21 L13127.4,-1663.38 L13156.7,-1580.6 L13177.5,-1492.86 L13190,-1400.16 L13194.2,-1302.51 L13194.2,-1061.33"/>
</g>

<g fill="none" stroke="#000000" stroke-opacity="1" stroke-width="1" stroke-linecap="square" stroke-linejoin="bevel" transform="matrix(0.999779,0,0,-0.999779,-12295.3,-323.78)"
font-family="MS Shell Dlg 2" font-size="10.3125" font-weight="400" font-style="normal" 
>
</g>

<g fill="none" stroke="#000000" stroke-opacity="1" stroke-width="1" stroke-linecap="square" stroke-linejoin="bevel" transform="matrix(0.999779,0,0,-0.999779,-12295.3,-323.78)"
font-family="MS Shell Dlg 2" font-size="10.3125" font-weight="400" font-style="normal" 
>
</g>

<g fill="#808080" fill-opacity="0.2" stroke="#333333" stroke-opacity="1" stroke-width="1" stroke-linecap="round" stroke-linejoin="round" transform="matrix(0.999779,0,0,-0.999779,-12295.3,-323.78)"
font-family="MS Shell Dlg 2" font-size="10.3125" font-weight="400" font-style="normal" 
>
<path vector-effect="non-scaling-stroke" fill-rule="evenodd" d="M13303.7,-1318.16 L13297,-1453.59 L13276.8,-1577.23 L13243.2,-1689.09 L13196.1,-1789.16 L13135.5,-1877.45 L13080.1,-1935.65 L13019.1,-1980.91 L12952.6,-2013.25 L12880.6,-2032.64 L12803.1,-2039.11 L12764.9,-2037.57 L12727.7,-2032.96 L12691.3,-2025.27 L12655.8,-2014.5 L12621.2,-2000.65 L12588.1,-1984.04 L12557,-1964.98 L12527.9,-1943.47 L12500.9,-1919.51 L12475.9,-1893.1 L12460.4,-1873.8 L12444.5,-1850.33 L12427.9,-1822.7 L12410.8,-1790.88 L12393.1,-1754.9 L12376.1,-1717.46 L12361.2,-1681.27 L12348.2,-1646.33 L12337.4,-1612.64 L12328.5,-1580.21 L12317.7,-1533.85 L12309.3,-1484.46 L12303.3,-1432.05 L12299.7,-1376.62 L12298.5,-1318.16 L12298.5,-1046.99 L12305.3,-911.088 L12325.5,-787.079 L12359.1,-674.96 L12406.2,-574.731 L12466.7,-486.392 L12522.2,-428.194 L12583.1,-382.929 L12649.6,-350.597 L12721.6,-331.198 L12799.2,-324.731 L12837.8,-326.27 L12875.3,-330.885 L12911.8,-338.577 L12947.3,-349.346 L12981.7,-363.191 L13014.6,-379.8 L13045.5,-398.86 L13074.5,-420.372 L13101.4,-444.334 L13126.4,-470.747 L13142.3,-490.511 L13158.5,-514.343 L13175.2,-542.243 L13192.3,-574.21 L13209.8,-610.244 L13226.6,-647.635 L13241.5,-683.669 L13254.6,-718.348 L13265.7,-751.671 L13275,-783.638 L13285.4,-830.05 L13293.4,-879.591 L13299.1,-932.261 L13302.6,-988.06 L13303.7,-1046.99 L13303.7,-1318.16 M13194.2,-1061.33 L13192.5,-1000.13 L13187.2,-940.657 L13178.5,-882.902 L13166.2,-826.869 L13150.5,-772.556 L13132.6,-721.268 L13113.8,-674.308 L13094.1,-631.677 L13073.6,-593.374 L13052.1,-559.399 L13038.3,-541.669 L13022.9,-524.981 L13005.9,-509.337 L12987.4,-494.735 L12967.4,-481.177 L12936.9,-464.75 L12905,-451.974 L12871.6,-442.848 L12836.8,-437.372 L12800.5,-435.547 L12730.1,-443.056 L12666.1,-465.584 L12608.5,-503.131 L12557.3,-555.697 L12512.4,-623.281 L12474.8,-700.878 L12445.6,-783.481 L12424.7,-871.091 L12412.2,-963.706 L12408.1,-1061.33 L12408.1,-1302.51 L12409.8,-1363.74 L12415,-1423.29 L12423.8,-1481.18 L12436,-1537.39 L12451.7,-1591.94 L12469.7,-1643.46 L12488.7,-1690.6 L12508.6,-1733.37 L12529.5,-1771.75 L12551.5,-1805.75 L12564.8,-1823.01 L12579.8,-1839.33 L12596.5,-1854.71 L12614.9,-1869.16 L12634.9,-1882.67 L12665.4,-1899.56 L12697.5,-1912.7 L12731.1,-1922.09 L12766.3,-1927.72 L12803.1,-1929.6 L12873,-1922.06 L12936.6,-1899.46 L12993.9,-1861.78 L13045.1,-1809.03 L13089.9,-1741.21 L13127.4,-1663.38 L13156.7,-1580.6 L13177.5,-1492.86 L13190,-1400.16 L13194.2,-1302.51 L13194.2,-1061.33"/>
</g>

<g fill="none" stroke="#000000" stroke-opacity="1" stroke-width="1" stroke-linecap="square" stroke-linejoin="bevel" transform="matrix(0.999779,0,0,-0.999779,-12295.3,-323.78)"
font-family="MS Shell Dlg 2" font-size="10.3125" font-weight="400" font-style="normal" 
>
</g>

<g fill="none" stroke="#000000" stroke-opacity="1" stroke-width="1" stroke-linecap="square" stroke-linejoin="bevel" transform="matrix(0.999779,0,0,-0.999779,-12295.3,-323.78)"
font-family="MS Shell Dlg 2" font-size="10.3125" font-weight="400" font-style="normal" 
>
</g>

<g fill="#808080" fill-opacity="0.2" stroke="#333333" stroke-opacity="1" stroke-width="1" stroke-linecap="round" stroke-linejoin="round" transform="matrix(0.999779,0,0,-0.999779,-12295.3,-323.78)"
font-family="MS Shell Dlg 2" font-size="10.3125" font-weight="400" font-style="normal" 
>
<path vector-effect="non-scaling-stroke" fill-rule="evenodd" d="M13303.7,-1318.16 L13297,-1453.59 L13276.8,-1577.23 L13243.2,-1689.09 L13196.1,-1789.16 L13135.5,-1877.45 L13080.1,-1935.65 L13019.1,-1980.91 L12952.6,-2013.25 L12880.6,-2032.64 L12803.1,-2039.11 L12764.9,-2037.57 L12727.7,-2032.96 L12691.3,-2025.27 L12655.8,-2014.5 L12621.2,-2000.65 L12588.1,-1984.04 L12557,-1964.98 L12527.9,-1943.47 L12500.9,-1919.51 L12475.9,-1893.1 L12460.4,-1873.8 L12444.5,-1850.33 L12427.9,-1822.7 L12410.8,-1790.88 L12393.1,-1754.9 L12376.1,-1717.46 L12361.2,-1681.27 L12348.2,-1646.33 L12337.4,-1612.64 L12328.5,-1580.21 L12317.7,-1533.85 L12309.3,-1484.46 L12303.3,-1432.05 L12299.7,-1376.62 L12298.5,-1318.16 L12298.5,-1046.99 L12305.3,-911.088 L12325.5,-787.079 L12359.1,-674.96 L12406.2,-574.731 L12466.7,-486.392 L12522.2,-428.194 L12583.1,-382.929 L12649.6,-350.597 L12721.6,-331.198 L12799.2,-324.731 L12837.8,-326.27 L12875.3,-330.885 L12911.8,-338.577 L12947.3,-349.346 L12981.7,-363.191 L13014.6,-379.8 L13045.5,-398.86 L13074.5,-420.372 L13101.4,-444.334 L13126.4,-470.747 L13142.3,-490.511 L13158.5,-514.343 L13175.2,-542.243 L13192.3,-574.21 L13209.8,-610.244 L13226.6,-647.635 L13241.5,-683.669 L13254.6,-718.348 L13265.7,-751.671 L13275,-783.638 L13285.4,-830.05 L13293.4,-879.591 L13299.1,-932.261 L13302.6,-988.06 L13303.7,-1046.99 L13303.7,-1318.16 M13194.2,-1061.33 L13192.5,-1000.13 L13187.2,-940.657 L13178.5,-882.902 L13166.2,-826.869 L13150.5,-772.556 L13132.6,-721.268 L13113.8,-674.308 L13094.1,-631.677 L13073.6,-593.374 L13052.1,-559.399 L13038.3,-541.669 L13022.9,-524.981 L13005.9,-509.337 L12987.4,-494.735 L12967.4,-481.177 L12936.9,-464.75 L12905,-451.974 L12871.6,-442.848 L12836.8,-437.372 L12800.5,-435.547 L12730.1,-443.056 L12666.1,-465.584 L12608.5,-503.131 L12557.3,-555.697 L12512.4,-623.281 L12474.8,-700.878 L12445.6,-783.481 L12424.7,-871.091 L12412.2,-963.706 L12408.1,-1061.33 L12408.1,-1302.51 L12409.8,-1363.74 L12415,-1423.29 L12423.8,-1481.18 L12436,-1537.39 L12451.7,-1591.94 L12469.7,-1643.46 L12488.7,-1690.6 L12508.6,-1733.37 L12529.5,-1771.75 L12551.5,-1805.75 L12564.8,-1823.01 L12579.8,-1839.33 L12596.5,-1854.71 L12614.9,-1869.16 L12634.9,-1882.67 L12665.4,-1899.56 L12697.5,-1912.7 L12731.1,-1922.09 L12766.3,-1927.72 L12803.1,-1929.6 L12873,-1922.06 L12936.6,-1899.46 L12993.9,-1861.78 L13045.1,-1809.03 L13089.9,-1741.21 L13127.4,-1663.38 L13156.7,-1580.6 L13177.5,-1492.86 L13190,-1400.16 L13194.2,-1302.51 L13194.2,-1061.33"/>
</g>

<g fill="none" stroke="#000000" stroke-opacity="1" stroke-width="1" stroke-linecap="square" stroke-linejoin="bevel" transform="matrix(0.999779,0,0,-0.999779,-12295.3,-323.78)"
font-family="MS Shell Dlg 2" font-size="10.3125" font-weight="400" font-style="normal" 
>
</g>

<g fill="none" stroke="#000000" stroke-opacity="1" stroke-width="1" stroke-linecap="square" stroke-linejoin="bevel" transform="matrix(0.999779,0,0,-0.999779,-12295.3,-323.78)"
font-family="MS Shell Dlg 2" font-size="10.3125" font-weight="400" font-style="normal" 
>
</g>

<g fill="#808080" fill-opacity="0.2" stroke="#333333" stroke-opacity="1" stroke-width="1" stroke-linecap="round" stroke-linejoin="round" transform="matrix(0.999779,0,0,-0.999779,-12295.3,-323.78)"
font-family="MS Shell Dlg 2" font-size="10.3125" font-weight="400" font-style="normal" 
>
<path vector-effect="non-scaling-stroke" fill-rule="evenodd" d="M13303.7,-1318.16 L13297,-1453.59 L13276.8,-1577.23 L13243.2,-1689.09 L13196.1,-1789.16 L13135.5,-1877.45 L13080.1,-1935.65 L13019.1,-1980.91 L12952.6,-2013.25 L12880.6,-2032.64 L12803.1,-2039.11 L12764.9,-2037.57 L12727.7,-2032.96 L12691.3,-2025.27 L12655.8,-2014.5 L12621.2,-2000.65 L12588.1,-1984.04 L12557,-1964.98 L12527.9,-1943.47 L12500.9,-1919.51 L12475.9,-1893.1 L12460.4,-1873.8 L12444.5,-1850.33 L12427.9,-1822.7 L12410.8,-1790.88 L12393.1,-1754.9 L12376.1,-1717.46 L12361.2,-1681.27 L12348.2,-1646.33 L12337.4,-1612.64 L12328.5,-1580.21 L12317.7,-1533.85 L12309.3,-1484.46 L12303.3,-1432.05 L12299.7,-1376.62 L12298.5,-1318.16 L12298.5,-1046.99 L12305.3,-911.088 L12325.5,-787.079 L12359.1,-674.96 L12406.2,-574.731 L12466.7,-486.392 L12522.2,-428.194 L12583.1,-382.929 L12649.6,-350.597 L12721.6,-331.198 L12799.2,-324.731 L12837.8,-326.27 L12875.3,-330.885 L12911.8,-338.577 L12947.3,-349.346 L12981.7,-363.191 L13014.6,-379.8 L13045.5,-398.86 L13074.5,-420.372 L13101.4,-444.334 L13126.4,-470.747 L13142.3,-490.511 L13158.5,-514.343 L13175.2,-542.243 L13192.3,-574.21 L13209.8,-610.244 L13226.6,-647.635 L13241.5,-683.669 L13254.6,-718.348 L13265.7,-751.671 L13275,-783.638 L13285.4,-830.05 L13293.4,-879.591 L13299.1,-932.261 L13302.6,-988.06 L13303.7,-1046.99 L13303.7,-1318.16 M13194.2,-1061.33 L13192.5,-1000.13 L13187.2,-940.657 L13178.5,-882.902 L13166.2,-826.869 L13150.5,-772.556 L13132.6,-721.268 L13113.8,-674.308 L13094.1,-631.677 L13073.6,-593.374 L13052.1,-559.399 L13038.3,-541.669 L13022.9,-524.981 L13005.9,-509.337 L12987.4,-494.735 L12967.4,-481.177 L12936.9,-464.75 L12905,-451.974 L12871.6,-442.848 L12836.8,-437.372 L12800.5,-435.547 L12730.1,-443.056 L12666.1,-465.584 L12608.5,-503.131 L12557.3,-555.697 L12512.4,-623.281 L12474.8,-700.878 L12445.6,-783.481 L12424.7,-871.091 L12412.2,-963.706 L12408.1,-1061.33 L12408.1,-1302.51 L12409.8,-1363.74 L12415,-1423.29 L12423.8,-1481.18 L12436,-1537.39 L12451.7,-1591.94 L12469.7,-1643.46 L12488.7,-1690.6 L12508.6,-1733.37 L12529.5,-1771.75 L12551.5,-1805.75 L12564.8,-1823.01 L12579.8,-1839.33 L12596.5,-1854.71 L12614.9,-1869.16 L12634.9,-1882.67 L12665.4,-1899.56 L12697.5,-1912.7 L12731.1,-1922.09 L12766.3,-1927.72 L12803.1,-1929.6 L12873,-1922.06 L12936.6,-1899.46 L12993.9,-1861.78 L13045.1,-1809.03 L13089.9,-1741.21 L13127.4,-1663.38 L13156.7,-1580.6 L13177.5,-1492.86 L13190,-1400.16 L13194.2,-1302.51 L13194.2,-1061.33"/>
</g>

<g fill="none" stroke="#000000" stroke-opacity="1" stroke-width="1" stroke-linecap="square" stroke-linejoin="bevel" transform="matrix(0.999779,0,0,-0.999779,-12295.3,-323.78)"
font-family="MS Shell Dlg 2" font-size="10.3125" font-weight="400" font-style="normal" 
>
</g>

<g fill="none" stroke="#000000" stroke-opacity="1" stroke-width="1" stroke-linecap="square" stroke-linejoin="bevel" transform="matrix(0.999779,0,0,-0.999779,-12295.3,-323.78)"
font-family="MS Shell Dlg 2" font-size="10.3125" font-weight="400" font-style="normal" 
>
</g>

<g fill="#808080" fill-opacity="0.2" stroke="#333333" stroke-opacity="1" stroke-width="1" stroke-linecap="round" stroke-linejoin="round" transform="matrix(0.999779,0,0,-0.999779,-12295.3,-323.78)"
font-family="MS Shell Dlg 2" font-size="10.3125" font-weight="400" font-style="normal" 
>
<path vector-effect="non-scaling-stroke" fill-rule="evenodd" d="M13303.7,-1318.16 L13297,-1453.59 L13276.8,-1577.23 L13243.2,-1689.09 L13196.1,-1789.16 L13135.5,-1877.45 L13080.1,-1935.65 L13019.1,-1980.91 L12952.6,-2013.25 L12880.6,-2032.64 L12803.1,-2039.11 L12764.9,-2037.57 L12727.7,-2032.96 L12691.3,-2025.27 L12655.8,-2014.5 L12621.2,-2000.65 L12588.1,-1984.04 L12557,-1964.98 L12527.9,-1943.47 L12500.9,-1919.51 L12475.9,-1893.1 L12460.4,-1873.8 L12444.5,-1850.33 L12427.9,-1822.7 L12410.8,-1790.88 L12393.1,-1754.9 L12376.1,-1717.46 L12361.2,-1681.27 L12348.2,-1646.33 L12337.4,-1612.64 L12328.5,-1580.21 L12317.7,-1533.85 L12309.3,-1484.46 L12303.3,-1432.05 L12299.7,-1376.62 L12298.5,-1318.16 L12298.5,-1046.99 L12305.3,-911.088 L12325.5,-787.079 L12359.1,-674.96 L12406.2,-574.731 L12466.7,-486.392 L12522.2,-428.194 L12583.1,-382.929 L12649.6,-350.597 L12721.6,-331.198 L12799.2,-324.731 L12837.8,-326.27 L12875.3,-330.885 L12911.8,-338.577 L12947.3,-349.346 L12981.7,-363.191 L13014.6,-379.8 L13045.5,-398.86 L13074.5,-420.372 L13101.4,-444.334 L13126.4,-470.747 L13142.3,-490.511 L13158.5,-514.343 L13175.2,-542.243 L13192.3,-574.21 L13209.8,-610.244 L13226.6,-647.635 L13241.5,-683.669 L13254.6,-718.348 L13265.7,-751.671 L13275,-783.638 L13285.4,-830.05 L13293.4,-879.591 L13299.1,-932.261 L13302.6,-988.06 L13303.7,-1046.99 L13303.7,-1318.16 M13194.2,-1061.33 L13192.5,-1000.13 L13187.2,-940.657 L13178.5,-882.902 L13166.2,-826.869 L13150.5,-772.556 L13132.6,-721.268 L13113.8,-674.308 L13094.1,-631.677 L13073.6,-593.374 L13052.1,-559.399 L13038.3,-541.669 L13022.9,-524.981 L13005.9,-509.337 L12987.4,-494.735 L12967.4,-481.177 L12936.9,-464.75 L12905,-451.974 L12871.6,-442.848 L12836.8,-437.372 L12800.5,-435.547 L12730.1,-443.056 L12666.1,-465.584 L12608.5,-503.131 L12557.3,-555.697 L12512.4,-623.281 L12474.8,-700.878 L12445.6,-783.481 L12424.7,-871.091 L12412.2,-963.706 L12408.1,-1061.33 L12408.1,-1302.51 L12409.8,-1363.74 L12415,-1423.29 L12423.8,-1481.18 L12436,-1537.39 L12451.7,-1591.94 L12469.7,-1643.46 L12488.7,-1690.6 L12508.6,-1733.37 L12529.5,-1771.75 L12551.5,-1805.75 L12564.8,-1823.01 L12579.8,-1839.33 L12596.5,-1854.71 L12614.9,-1869.16 L12634.9,-1882.67 L12665.4,-1899.56 L12697.5,-1912.7 L12731.1,-1922.09 L12766.3,-1927.72 L12803.1,-1929.6 L12873,-1922.06 L12936.6,-1899.46 L12993.9,-1861.78 L13045.1,-1809.03 L13089.9,-1741.21 L13127.4,-1663.38 L13156.7,-1580.6 L13177.5,-1492.86 L13190,-1400.16 L13194.2,-1302.51 L13194.2,-1061.33"/>
</g>

<g fill="none" stroke="#000000" stroke-opacity="1" stroke-width="1" stroke-linecap="square" stroke-linejoin="bevel" transform="matrix(0.999779,0,0,-0.999779,-12295.3,-323.78)"
font-family="MS Shell Dlg 2" font-size="10.3125" font-weight="400" font-style="normal" 
>
</g>

<g fill="none" stroke="#000000" stroke-opacity="1" stroke-width="1" stroke-linecap="square" stroke-linejoin="bevel" transform="matrix(1,0,0,-1,0,1715.38)"
font-family="MS Shell Dlg 2" font-size="10.3125" font-weight="400" font-style="normal" 
>
</g>
</g>
</svg>
