<?xml version="1.0" encoding="UTF-8" standalone="no"?>
<svg width="283.351mm" height="483.447mm"
 xmlns="http://www.w3.org/2000/svg" xmlns:xlink="http://www.w3.org/1999/xlink"  version="1.2" baseProfile="tiny">
<title>SVG Generator Example Drawing</title>
<desc>An SVG drawing created by the SVG Generator</desc>
<defs>
</defs>
<g fill="none" stroke="black" stroke-width="1" fill-rule="evenodd" stroke-linecap="square" stroke-linejoin="bevel" >

<g fill="none" stroke="#000000" stroke-opacity="1" stroke-width="1" stroke-linecap="square" stroke-linejoin="bevel" transform="matrix(1,0,0,-1,0,1713.24)"
font-family="MS Shell Dlg 2" font-size="10.3125" font-weight="400" font-style="normal" 
>
</g>

<g fill="none" stroke="#000000" stroke-opacity="1" stroke-width="1" stroke-linecap="square" stroke-linejoin="bevel" transform="matrix(1,0,0,-1,0,1713.24)"
font-family="MS Shell Dlg 2" font-size="10.3125" font-weight="400" font-style="normal" 
>
</g>

<g fill="none" stroke="#000000" stroke-opacity="1" stroke-width="1" stroke-linecap="square" stroke-linejoin="bevel" transform="matrix(0.999097,0,0,-0.999097,3718.94,-630.594)"
font-family="MS Shell Dlg 2" font-size="10.3125" font-weight="400" font-style="normal" 
>
</g>

<g fill="#808080" fill-opacity="0.2" stroke="#333333" stroke-opacity="1" stroke-width="1" stroke-linecap="round" stroke-linejoin="round" transform="matrix(0.999097,0,0,-0.999097,3718.94,-630.594)"
font-family="MS Shell Dlg 2" font-size="10.3125" font-weight="400" font-style="normal" 
>
<path vector-effect="non-scaling-stroke" fill-rule="evenodd" d="M-2717.9,-1354.57 L-2717.9,-1625.4 L-2717.9,-1860.64 L-2973.54,-2291.63 L-3282.13,-2345.45 L-3456.4,-2281.43 L-3569.89,-2170.97 L-3657.35,-1998.23 L-3711.82,-1812.47 L-3721.8,-1354.57 L-3721.8,-1118.46 L-3466.16,-687.032 L-3156.7,-633.212 L-2983.09,-697.232 L-2868.94,-808.56 L-2782.13,-981.737 L-2727.44,-1166.2 L-2717.9,-1354.57 M-2827.27,-1368.89 L-2827.27,-1265.59 L-2899.97,-991.503 L-2990.9,-837.206 L-3103.31,-759.081 L-3342.9,-743.89 L-3577.71,-1056.39 L-3612.43,-1609.78 L-3612.43,-1713.07 L-3539.73,-1988.25 L-3448.37,-2141.89 L-3336.39,-2220.45 L-3096.37,-2236.08 L-2861.99,-1922.49 L-2827.27,-1368.89"/>
</g>

<g fill="none" stroke="#000000" stroke-opacity="1" stroke-width="1" stroke-linecap="square" stroke-linejoin="bevel" transform="matrix(0.999097,0,0,-0.999097,3718.94,-630.594)"
font-family="MS Shell Dlg 2" font-size="10.3125" font-weight="400" font-style="normal" 
>
</g>

<g fill="none" stroke="#000000" stroke-opacity="1" stroke-width="1" stroke-linecap="square" stroke-linejoin="bevel" transform="matrix(0.999097,0,0,-0.999097,3718.94,-630.594)"
font-family="MS Shell Dlg 2" font-size="10.3125" font-weight="400" font-style="normal" 
>
</g>

<g fill="#808080" fill-opacity="0.2" stroke="#333333" stroke-opacity="1" stroke-width="1" stroke-linecap="round" stroke-linejoin="round" transform="matrix(0.999097,0,0,-0.999097,3718.94,-630.594)"
font-family="MS Shell Dlg 2" font-size="10.3125" font-weight="400" font-style="normal" 
>
<path vector-effect="non-scaling-stroke" fill-rule="evenodd" d="M-2717.9,-1354.57 L-2717.9,-1625.4 L-2717.9,-1860.64 L-2973.54,-2291.63 L-3282.13,-2345.45 L-3456.4,-2281.43 L-3569.89,-2170.97 L-3657.35,-1998.23 L-3711.82,-1812.47 L-3721.8,-1354.57 L-3721.8,-1118.46 L-3466.16,-687.032 L-3156.7,-633.212 L-2983.09,-697.232 L-2868.94,-808.56 L-2782.13,-981.737 L-2727.44,-1166.2 L-2717.9,-1354.57 M-2827.27,-1368.89 L-2827.27,-1265.59 L-2899.97,-991.503 L-2990.9,-837.206 L-3103.31,-759.081 L-3342.9,-743.89 L-3577.71,-1056.39 L-3612.43,-1609.78 L-3612.43,-1713.07 L-3539.73,-1988.25 L-3448.37,-2141.89 L-3336.39,-2220.45 L-3096.37,-2236.08 L-2861.99,-1922.49 L-2827.27,-1368.89"/>
</g>

<g fill="none" stroke="#000000" stroke-opacity="1" stroke-width="1" stroke-linecap="square" stroke-linejoin="bevel" transform="matrix(0.999097,0,0,-0.999097,3718.94,-630.594)"
font-family="MS Shell Dlg 2" font-size="10.3125" font-weight="400" font-style="normal" 
>
</g>

<g fill="none" stroke="#000000" stroke-opacity="1" stroke-width="1" stroke-linecap="square" stroke-linejoin="bevel" transform="matrix(0.999097,0,0,-0.999097,3718.94,-630.594)"
font-family="MS Shell Dlg 2" font-size="10.3125" font-weight="400" font-style="normal" 
>
</g>

<g fill="#808080" fill-opacity="0.2" stroke="#333333" stroke-opacity="1" stroke-width="1" stroke-linecap="round" stroke-linejoin="round" transform="matrix(0.999097,0,0,-0.999097,3718.94,-630.594)"
font-family="MS Shell Dlg 2" font-size="10.3125" font-weight="400" font-style="normal" 
>
<path vector-effect="non-scaling-stroke" fill-rule="evenodd" d="M-2717.9,-1354.57 L-2717.9,-1625.4 L-2717.9,-1860.64 L-2973.54,-2291.63 L-3282.13,-2345.45 L-3456.4,-2281.43 L-3569.89,-2170.97 L-3657.35,-1998.23 L-3711.82,-1812.47 L-3721.8,-1354.57 L-3721.8,-1118.46 L-3466.16,-687.032 L-3156.7,-633.212 L-2983.09,-697.232 L-2868.94,-808.56 L-2782.13,-981.737 L-2727.44,-1166.2 L-2717.9,-1354.57 M-2827.27,-1368.89 L-2827.27,-1265.59 L-2899.97,-991.503 L-2990.9,-837.206 L-3103.31,-759.081 L-3342.9,-743.89 L-3577.71,-1056.39 L-3612.43,-1609.78 L-3612.43,-1713.07 L-3539.73,-1988.25 L-3448.37,-2141.89 L-3336.39,-2220.45 L-3096.37,-2236.08 L-2861.99,-1922.49 L-2827.27,-1368.89"/>
</g>

<g fill="none" stroke="#000000" stroke-opacity="1" stroke-width="1" stroke-linecap="square" stroke-linejoin="bevel" transform="matrix(0.999097,0,0,-0.999097,3718.94,-630.594)"
font-family="MS Shell Dlg 2" font-size="10.3125" font-weight="400" font-style="normal" 
>
</g>

<g fill="none" stroke="#000000" stroke-opacity="1" stroke-width="1" stroke-linecap="square" stroke-linejoin="bevel" transform="matrix(0.999097,0,0,-0.999097,3718.94,-630.594)"
font-family="MS Shell Dlg 2" font-size="10.3125" font-weight="400" font-style="normal" 
>
</g>

<g fill="#808080" fill-opacity="0.2" stroke="#333333" stroke-opacity="1" stroke-width="1" stroke-linecap="round" stroke-linejoin="round" transform="matrix(0.999097,0,0,-0.999097,3718.94,-630.594)"
font-family="MS Shell Dlg 2" font-size="10.3125" font-weight="400" font-style="normal" 
>
<path vector-effect="non-scaling-stroke" fill-rule="evenodd" d="M-2717.9,-1354.57 L-2717.9,-1625.4 L-2717.9,-1860.64 L-2973.54,-2291.63 L-3282.13,-2345.45 L-3456.4,-2281.43 L-3569.89,-2170.97 L-3657.35,-1998.23 L-3711.82,-1812.47 L-3721.8,-1354.57 L-3721.8,-1118.46 L-3466.16,-687.032 L-3156.7,-633.212 L-2983.09,-697.232 L-2868.94,-808.56 L-2782.13,-981.737 L-2727.44,-1166.2 L-2717.9,-1354.57 M-2827.27,-1368.89 L-2827.27,-1265.59 L-2899.97,-991.503 L-2990.9,-837.206 L-3103.31,-759.081 L-3342.9,-743.89 L-3577.71,-1056.39 L-3612.43,-1609.78 L-3612.43,-1713.07 L-3539.73,-1988.25 L-3448.37,-2141.89 L-3336.39,-2220.45 L-3096.37,-2236.08 L-2861.99,-1922.49 L-2827.27,-1368.89"/>
</g>

<g fill="none" stroke="#000000" stroke-opacity="1" stroke-width="1" stroke-linecap="square" stroke-linejoin="bevel" transform="matrix(0.999097,0,0,-0.999097,3718.94,-630.594)"
font-family="MS Shell Dlg 2" font-size="10.3125" font-weight="400" font-style="normal" 
>
</g>

<g fill="none" stroke="#000000" stroke-opacity="1" stroke-width="1" stroke-linecap="square" stroke-linejoin="bevel" transform="matrix(0.999097,0,0,-0.999097,3718.94,-630.594)"
font-family="MS Shell Dlg 2" font-size="10.3125" font-weight="400" font-style="normal" 
>
</g>

<g fill="#808080" fill-opacity="0.2" stroke="#333333" stroke-opacity="1" stroke-width="1" stroke-linecap="round" stroke-linejoin="round" transform="matrix(0.999097,0,0,-0.999097,3718.94,-630.594)"
font-family="MS Shell Dlg 2" font-size="10.3125" font-weight="400" font-style="normal" 
>
<path vector-effect="non-scaling-stroke" fill-rule="evenodd" d="M-2717.9,-1354.57 L-2717.9,-1625.4 L-2717.9,-1860.64 L-2973.54,-2291.63 L-3282.13,-2345.45 L-3456.4,-2281.43 L-3569.89,-2170.97 L-3657.35,-1998.23 L-3711.82,-1812.47 L-3721.8,-1354.57 L-3721.8,-1118.46 L-3466.16,-687.032 L-3156.7,-633.212 L-2983.09,-697.232 L-2868.94,-808.56 L-2782.13,-981.737 L-2727.44,-1166.2 L-2717.9,-1354.57 M-2827.27,-1368.89 L-2827.27,-1265.59 L-2899.97,-991.503 L-2990.9,-837.206 L-3103.31,-759.081 L-3342.9,-743.89 L-3577.71,-1056.39 L-3612.43,-1609.78 L-3612.43,-1713.07 L-3539.73,-1988.25 L-3448.37,-2141.89 L-3336.39,-2220.45 L-3096.37,-2236.08 L-2861.99,-1922.49 L-2827.27,-1368.89"/>
</g>

<g fill="none" stroke="#000000" stroke-opacity="1" stroke-width="1" stroke-linecap="square" stroke-linejoin="bevel" transform="matrix(0.999097,0,0,-0.999097,3718.94,-630.594)"
font-family="MS Shell Dlg 2" font-size="10.3125" font-weight="400" font-style="normal" 
>
</g>

<g fill="none" stroke="#000000" stroke-opacity="1" stroke-width="1" stroke-linecap="square" stroke-linejoin="bevel" transform="matrix(0.999097,0,0,-0.999097,3718.94,-630.594)"
font-family="MS Shell Dlg 2" font-size="10.3125" font-weight="400" font-style="normal" 
>
</g>

<g fill="#808080" fill-opacity="0.2" stroke="#333333" stroke-opacity="1" stroke-width="1" stroke-linecap="round" stroke-linejoin="round" transform="matrix(0.999097,0,0,-0.999097,3718.94,-630.594)"
font-family="MS Shell Dlg 2" font-size="10.3125" font-weight="400" font-style="normal" 
>
<path vector-effect="non-scaling-stroke" fill-rule="evenodd" d="M-2717.9,-1354.57 L-2717.9,-1625.4 L-2717.9,-1860.64 L-2973.54,-2291.63 L-3282.13,-2345.45 L-3456.4,-2281.43 L-3569.89,-2170.97 L-3657.35,-1998.23 L-3711.82,-1812.47 L-3721.8,-1354.57 L-3721.8,-1118.46 L-3466.16,-687.032 L-3156.7,-633.212 L-2983.09,-697.232 L-2868.94,-808.56 L-2782.13,-981.737 L-2727.44,-1166.2 L-2717.9,-1354.57 M-2827.27,-1368.89 L-2827.27,-1265.59 L-2899.97,-991.503 L-2990.9,-837.206 L-3103.31,-759.081 L-3342.9,-743.89 L-3577.71,-1056.39 L-3612.43,-1609.78 L-3612.43,-1713.07 L-3539.73,-1988.25 L-3448.37,-2141.89 L-3336.39,-2220.45 L-3096.37,-2236.08 L-2861.99,-1922.49 L-2827.27,-1368.89"/>
</g>

<g fill="none" stroke="#000000" stroke-opacity="1" stroke-width="1" stroke-linecap="square" stroke-linejoin="bevel" transform="matrix(0.999097,0,0,-0.999097,3718.94,-630.594)"
font-family="MS Shell Dlg 2" font-size="10.3125" font-weight="400" font-style="normal" 
>
</g>

<g fill="none" stroke="#000000" stroke-opacity="1" stroke-width="1" stroke-linecap="square" stroke-linejoin="bevel" transform="matrix(0.999097,0,0,-0.999097,3718.94,-630.594)"
font-family="MS Shell Dlg 2" font-size="10.3125" font-weight="400" font-style="normal" 
>
</g>

<g fill="#808080" fill-opacity="0.2" stroke="#333333" stroke-opacity="1" stroke-width="1" stroke-linecap="round" stroke-linejoin="round" transform="matrix(0.999097,0,0,-0.999097,3718.94,-630.594)"
font-family="MS Shell Dlg 2" font-size="10.3125" font-weight="400" font-style="normal" 
>
<path vector-effect="non-scaling-stroke" fill-rule="evenodd" d="M-2717.9,-1354.57 L-2717.9,-1625.4 L-2717.9,-1860.64 L-2973.54,-2291.63 L-3282.13,-2345.45 L-3456.4,-2281.43 L-3569.89,-2170.97 L-3657.35,-1998.23 L-3711.82,-1812.47 L-3721.8,-1354.57 L-3721.8,-1118.46 L-3466.16,-687.032 L-3156.7,-633.212 L-2983.09,-697.232 L-2868.94,-808.56 L-2782.13,-981.737 L-2727.44,-1166.2 L-2717.9,-1354.57 M-2827.27,-1368.89 L-2827.27,-1265.59 L-2899.97,-991.503 L-2990.9,-837.206 L-3103.31,-759.081 L-3342.9,-743.89 L-3577.71,-1056.39 L-3612.43,-1609.78 L-3612.43,-1713.07 L-3539.73,-1988.25 L-3448.37,-2141.89 L-3336.39,-2220.45 L-3096.37,-2236.08 L-2861.99,-1922.49 L-2827.27,-1368.89"/>
</g>

<g fill="none" stroke="#000000" stroke-opacity="1" stroke-width="1" stroke-linecap="square" stroke-linejoin="bevel" transform="matrix(0.999097,0,0,-0.999097,3718.94,-630.594)"
font-family="MS Shell Dlg 2" font-size="10.3125" font-weight="400" font-style="normal" 
>
</g>

<g fill="none" stroke="#000000" stroke-opacity="1" stroke-width="1" stroke-linecap="square" stroke-linejoin="bevel" transform="matrix(0.999097,0,0,-0.999097,3718.94,-630.594)"
font-family="MS Shell Dlg 2" font-size="10.3125" font-weight="400" font-style="normal" 
>
</g>

<g fill="#808080" fill-opacity="0.2" stroke="#333333" stroke-opacity="1" stroke-width="1" stroke-linecap="round" stroke-linejoin="round" transform="matrix(0.999097,0,0,-0.999097,3718.94,-630.594)"
font-family="MS Shell Dlg 2" font-size="10.3125" font-weight="400" font-style="normal" 
>
<path vector-effect="non-scaling-stroke" fill-rule="evenodd" d="M-2717.9,-1354.57 L-2717.9,-1625.4 L-2717.9,-1860.64 L-2973.54,-2291.63 L-3282.13,-2345.45 L-3456.4,-2281.43 L-3569.89,-2170.97 L-3657.35,-1998.23 L-3711.82,-1812.47 L-3721.8,-1354.57 L-3721.8,-1118.46 L-3466.16,-687.032 L-3156.7,-633.212 L-2983.09,-697.232 L-2868.94,-808.56 L-2782.13,-981.737 L-2727.44,-1166.2 L-2717.9,-1354.57 M-2827.27,-1368.89 L-2827.27,-1265.59 L-2899.97,-991.503 L-2990.9,-837.206 L-3103.31,-759.081 L-3342.9,-743.89 L-3577.71,-1056.39 L-3612.43,-1609.78 L-3612.43,-1713.07 L-3539.73,-1988.25 L-3448.37,-2141.89 L-3336.39,-2220.45 L-3096.37,-2236.08 L-2861.99,-1922.49 L-2827.27,-1368.89"/>
</g>

<g fill="none" stroke="#000000" stroke-opacity="1" stroke-width="1" stroke-linecap="square" stroke-linejoin="bevel" transform="matrix(0.999097,0,0,-0.999097,3718.94,-630.594)"
font-family="MS Shell Dlg 2" font-size="10.3125" font-weight="400" font-style="normal" 
>
</g>

<g fill="none" stroke="#000000" stroke-opacity="1" stroke-width="1" stroke-linecap="square" stroke-linejoin="bevel" transform="matrix(0.999097,0,0,-0.999097,3718.94,-630.594)"
font-family="MS Shell Dlg 2" font-size="10.3125" font-weight="400" font-style="normal" 
>
</g>

<g fill="#808080" fill-opacity="0.2" stroke="#333333" stroke-opacity="1" stroke-width="1" stroke-linecap="round" stroke-linejoin="round" transform="matrix(0.999097,0,0,-0.999097,3718.94,-630.594)"
font-family="MS Shell Dlg 2" font-size="10.3125" font-weight="400" font-style="normal" 
>
<path vector-effect="non-scaling-stroke" fill-rule="evenodd" d="M-2717.9,-1354.57 L-2717.9,-1625.4 L-2717.9,-1860.64 L-2973.54,-2291.63 L-3282.13,-2345.45 L-3456.4,-2281.43 L-3569.89,-2170.97 L-3657.35,-1998.23 L-3711.82,-1812.47 L-3721.8,-1354.57 L-3721.8,-1118.46 L-3466.16,-687.032 L-3156.7,-633.212 L-2983.09,-697.232 L-2868.94,-808.56 L-2782.13,-981.737 L-2727.44,-1166.2 L-2717.9,-1354.57 M-2827.27,-1368.89 L-2827.27,-1265.59 L-2899.97,-991.503 L-2990.9,-837.206 L-3103.31,-759.081 L-3342.9,-743.89 L-3577.71,-1056.39 L-3612.43,-1609.78 L-3612.43,-1713.07 L-3539.73,-1988.25 L-3448.37,-2141.89 L-3336.39,-2220.45 L-3096.37,-2236.08 L-2861.99,-1922.49 L-2827.27,-1368.89"/>
</g>

<g fill="none" stroke="#000000" stroke-opacity="1" stroke-width="1" stroke-linecap="square" stroke-linejoin="bevel" transform="matrix(0.999097,0,0,-0.999097,3718.94,-630.594)"
font-family="MS Shell Dlg 2" font-size="10.3125" font-weight="400" font-style="normal" 
>
</g>

<g fill="none" stroke="#000000" stroke-opacity="1" stroke-width="1" stroke-linecap="square" stroke-linejoin="bevel" transform="matrix(1,0,0,-1,0,1713.24)"
font-family="MS Shell Dlg 2" font-size="10.3125" font-weight="400" font-style="normal" 
>
</g>
</g>
</svg>
