<?xml version="1.0" encoding="UTF-8" standalone="no"?>
<svg width="284.198mm" height="468.207mm"
 xmlns="http://www.w3.org/2000/svg" xmlns:xlink="http://www.w3.org/1999/xlink"  version="1.2" baseProfile="tiny">
<title>SVG Generator Example Drawing</title>
<desc>An SVG drawing created by the SVG Generator</desc>
<defs>
</defs>
<g fill="none" stroke="black" stroke-width="1" fill-rule="evenodd" stroke-linecap="square" stroke-linejoin="bevel" >

<g fill="none" stroke="#000000" stroke-opacity="1" stroke-width="1" stroke-linecap="square" stroke-linejoin="bevel" transform="matrix(1,0,0,-1,0,1659.32)"
font-family="MS Shell Dlg 2" font-size="10.3125" font-weight="400" font-style="normal" 
>
</g>

<g fill="none" stroke="#000000" stroke-opacity="1" stroke-width="1" stroke-linecap="square" stroke-linejoin="bevel" transform="matrix(1,0,0,-1,0,1659.32)"
font-family="MS Shell Dlg 2" font-size="10.3125" font-weight="400" font-style="normal" 
>
</g>

<g fill="none" stroke="#000000" stroke-opacity="1" stroke-width="1" stroke-linecap="square" stroke-linejoin="bevel" transform="matrix(0.999539,0,0,-0.999539,-12291.1,-340.257)"
font-family="MS Shell Dlg 2" font-size="10.3125" font-weight="400" font-style="normal" 
>
</g>

<g fill="#808080" fill-opacity="0.2" stroke="#333333" stroke-opacity="1" stroke-width="1" stroke-linecap="round" stroke-linejoin="round" transform="matrix(0.999539,0,0,-0.999539,-12291.1,-340.257)"
font-family="MS Shell Dlg 2" font-size="10.3125" font-weight="400" font-style="normal" 
>
<path vector-effect="non-scaling-stroke" fill-rule="evenodd" d="M12855.2,-1890.49 L13230.7,-1890.49 L13245.5,-1891.09 L13258.4,-1892.89 L13269.7,-1895.89 L13279.1,-1900.08 L13286.8,-1905.48 L13292.9,-1911.87 L13297.6,-1919.04 L13301,-1926.99 L13303,-1935.73 L13303.7,-1945.24 L13303,-1954.32 L13301,-1962.77 L13297.6,-1970.59 L13292.9,-1977.78 L13286.8,-1984.36 L13279.1,-1989.99 L13269.7,-1994.37 L13258.4,-1997.5 L13245.5,-1999.37 L13230.7,-2000 L12370.3,-2000 L12355.5,-1999.37 L12342.5,-1997.5 L12331.3,-1994.37 L12321.9,-1989.99 L12314.2,-1984.36 L12308.1,-1977.78 L12303.3,-1970.59 L12300,-1962.77 L12297.9,-1954.32 L12297.2,-1945.24 L12297.9,-1935.73 L12300,-1926.99 L12303.3,-1919.04 L12308.1,-1911.87 L12314.2,-1905.48 L12321.9,-1900.08 L12331.3,-1895.89 L12342.5,-1892.89 L12355.5,-1891.09 L12370.3,-1890.49 L12745.7,-1890.49 L12745.7,-492.91 L12388.5,-605.029 L12378.6,-607.845 L12369.9,-610.036 L12362.4,-611.6 L12356,-612.539 L12350.7,-612.852 L12343,-612.2 L12335.6,-610.244 L12328.4,-606.985 L12321.5,-602.422 L12314.8,-596.555 L12309,-589.802 L12304.4,-582.579 L12301.2,-574.888 L12299.2,-566.726 L12298.5,-558.096 L12299.1,-550.378 L12300.6,-542.868 L12303.2,-535.568 L12306.9,-528.475 L12311.6,-521.592 L12316.6,-517.368 L12323.5,-513.039 L12332.1,-508.607 L12342.5,-504.07 L12354.6,-499.429 L12855.2,-341.68 L12855.2,-1890.49"/>
</g>

<g fill="none" stroke="#000000" stroke-opacity="1" stroke-width="1" stroke-linecap="square" stroke-linejoin="bevel" transform="matrix(0.999539,0,0,-0.999539,-12291.1,-340.257)"
font-family="MS Shell Dlg 2" font-size="10.3125" font-weight="400" font-style="normal" 
>
</g>

<g fill="none" stroke="#000000" stroke-opacity="1" stroke-width="1" stroke-linecap="square" stroke-linejoin="bevel" transform="matrix(0.999539,0,0,-0.999539,-12291.1,-340.257)"
font-family="MS Shell Dlg 2" font-size="10.3125" font-weight="400" font-style="normal" 
>
</g>

<g fill="#808080" fill-opacity="0.2" stroke="#333333" stroke-opacity="1" stroke-width="1" stroke-linecap="round" stroke-linejoin="round" transform="matrix(0.999539,0,0,-0.999539,-12291.1,-340.257)"
font-family="MS Shell Dlg 2" font-size="10.3125" font-weight="400" font-style="normal" 
>
<path vector-effect="non-scaling-stroke" fill-rule="evenodd" d="M12855.2,-1890.49 L13230.7,-1890.49 L13245.5,-1891.09 L13258.4,-1892.89 L13269.7,-1895.89 L13279.1,-1900.08 L13286.8,-1905.48 L13292.9,-1911.87 L13297.6,-1919.04 L13301,-1926.99 L13303,-1935.73 L13303.7,-1945.24 L13303,-1954.32 L13301,-1962.77 L13297.6,-1970.59 L13292.9,-1977.78 L13286.8,-1984.36 L13279.1,-1989.99 L13269.7,-1994.37 L13258.4,-1997.5 L13245.5,-1999.37 L13230.7,-2000 L12370.3,-2000 L12355.5,-1999.37 L12342.5,-1997.5 L12331.3,-1994.37 L12321.9,-1989.99 L12314.2,-1984.36 L12308.1,-1977.78 L12303.3,-1970.59 L12300,-1962.77 L12297.9,-1954.32 L12297.2,-1945.24 L12297.9,-1935.73 L12300,-1926.99 L12303.3,-1919.04 L12308.1,-1911.87 L12314.2,-1905.48 L12321.9,-1900.08 L12331.3,-1895.89 L12342.5,-1892.89 L12355.5,-1891.09 L12370.3,-1890.49 L12745.7,-1890.49 L12745.7,-492.91 L12388.5,-605.029 L12378.6,-607.845 L12369.9,-610.036 L12362.4,-611.6 L12356,-612.539 L12350.7,-612.852 L12343,-612.2 L12335.6,-610.244 L12328.4,-606.985 L12321.5,-602.422 L12314.8,-596.555 L12309,-589.802 L12304.4,-582.579 L12301.2,-574.888 L12299.2,-566.726 L12298.5,-558.096 L12299.1,-550.378 L12300.6,-542.868 L12303.2,-535.568 L12306.9,-528.475 L12311.6,-521.592 L12316.6,-517.368 L12323.5,-513.039 L12332.1,-508.607 L12342.5,-504.07 L12354.6,-499.429 L12855.2,-341.68 L12855.2,-1890.49"/>
</g>

<g fill="none" stroke="#000000" stroke-opacity="1" stroke-width="1" stroke-linecap="square" stroke-linejoin="bevel" transform="matrix(0.999539,0,0,-0.999539,-12291.1,-340.257)"
font-family="MS Shell Dlg 2" font-size="10.3125" font-weight="400" font-style="normal" 
>
</g>

<g fill="none" stroke="#000000" stroke-opacity="1" stroke-width="1" stroke-linecap="square" stroke-linejoin="bevel" transform="matrix(0.999539,0,0,-0.999539,-12291.1,-340.257)"
font-family="MS Shell Dlg 2" font-size="10.3125" font-weight="400" font-style="normal" 
>
</g>

<g fill="#808080" fill-opacity="0.2" stroke="#333333" stroke-opacity="1" stroke-width="1" stroke-linecap="round" stroke-linejoin="round" transform="matrix(0.999539,0,0,-0.999539,-12291.1,-340.257)"
font-family="MS Shell Dlg 2" font-size="10.3125" font-weight="400" font-style="normal" 
>
<path vector-effect="non-scaling-stroke" fill-rule="evenodd" d="M12855.2,-1890.49 L13230.7,-1890.49 L13245.5,-1891.09 L13258.4,-1892.89 L13269.7,-1895.89 L13279.1,-1900.08 L13286.8,-1905.48 L13292.9,-1911.87 L13297.6,-1919.04 L13301,-1926.99 L13303,-1935.73 L13303.7,-1945.24 L13303,-1954.32 L13301,-1962.77 L13297.6,-1970.59 L13292.9,-1977.78 L13286.8,-1984.36 L13279.1,-1989.99 L13269.7,-1994.37 L13258.4,-1997.5 L13245.5,-1999.37 L13230.7,-2000 L12370.3,-2000 L12355.5,-1999.37 L12342.5,-1997.5 L12331.3,-1994.37 L12321.9,-1989.99 L12314.2,-1984.36 L12308.1,-1977.78 L12303.3,-1970.59 L12300,-1962.77 L12297.9,-1954.32 L12297.2,-1945.24 L12297.9,-1935.73 L12300,-1926.99 L12303.3,-1919.04 L12308.1,-1911.87 L12314.2,-1905.48 L12321.9,-1900.08 L12331.3,-1895.89 L12342.5,-1892.89 L12355.5,-1891.09 L12370.3,-1890.49 L12745.7,-1890.49 L12745.7,-492.91 L12388.5,-605.029 L12378.6,-607.845 L12369.9,-610.036 L12362.4,-611.6 L12356,-612.539 L12350.7,-612.852 L12343,-612.2 L12335.6,-610.244 L12328.4,-606.985 L12321.5,-602.422 L12314.8,-596.555 L12309,-589.802 L12304.4,-582.579 L12301.2,-574.888 L12299.2,-566.726 L12298.5,-558.096 L12299.1,-550.378 L12300.6,-542.868 L12303.2,-535.568 L12306.9,-528.475 L12311.6,-521.592 L12316.6,-517.368 L12323.5,-513.039 L12332.1,-508.607 L12342.5,-504.07 L12354.6,-499.429 L12855.2,-341.68 L12855.2,-1890.49"/>
</g>

<g fill="none" stroke="#000000" stroke-opacity="1" stroke-width="1" stroke-linecap="square" stroke-linejoin="bevel" transform="matrix(0.999539,0,0,-0.999539,-12291.1,-340.257)"
font-family="MS Shell Dlg 2" font-size="10.3125" font-weight="400" font-style="normal" 
>
</g>

<g fill="none" stroke="#000000" stroke-opacity="1" stroke-width="1" stroke-linecap="square" stroke-linejoin="bevel" transform="matrix(0.999539,0,0,-0.999539,-12291.1,-340.257)"
font-family="MS Shell Dlg 2" font-size="10.3125" font-weight="400" font-style="normal" 
>
</g>

<g fill="#808080" fill-opacity="0.2" stroke="#333333" stroke-opacity="1" stroke-width="1" stroke-linecap="round" stroke-linejoin="round" transform="matrix(0.999539,0,0,-0.999539,-12291.1,-340.257)"
font-family="MS Shell Dlg 2" font-size="10.3125" font-weight="400" font-style="normal" 
>
<path vector-effect="non-scaling-stroke" fill-rule="evenodd" d="M12855.2,-1890.49 L13230.7,-1890.49 L13245.5,-1891.09 L13258.4,-1892.89 L13269.7,-1895.89 L13279.1,-1900.08 L13286.8,-1905.48 L13292.9,-1911.87 L13297.6,-1919.04 L13301,-1926.99 L13303,-1935.73 L13303.7,-1945.24 L13303,-1954.32 L13301,-1962.77 L13297.6,-1970.59 L13292.9,-1977.78 L13286.8,-1984.36 L13279.1,-1989.99 L13269.7,-1994.37 L13258.4,-1997.5 L13245.5,-1999.37 L13230.7,-2000 L12370.3,-2000 L12355.5,-1999.37 L12342.5,-1997.5 L12331.3,-1994.37 L12321.9,-1989.99 L12314.2,-1984.36 L12308.1,-1977.78 L12303.3,-1970.59 L12300,-1962.77 L12297.9,-1954.32 L12297.2,-1945.24 L12297.9,-1935.73 L12300,-1926.99 L12303.3,-1919.04 L12308.1,-1911.87 L12314.2,-1905.48 L12321.9,-1900.08 L12331.3,-1895.89 L12342.5,-1892.89 L12355.5,-1891.09 L12370.3,-1890.49 L12745.7,-1890.49 L12745.7,-492.91 L12388.5,-605.029 L12378.6,-607.845 L12369.9,-610.036 L12362.4,-611.6 L12356,-612.539 L12350.7,-612.852 L12343,-612.2 L12335.6,-610.244 L12328.4,-606.985 L12321.5,-602.422 L12314.8,-596.555 L12309,-589.802 L12304.4,-582.579 L12301.2,-574.888 L12299.2,-566.726 L12298.5,-558.096 L12299.1,-550.378 L12300.6,-542.868 L12303.2,-535.568 L12306.9,-528.475 L12311.6,-521.592 L12316.6,-517.368 L12323.5,-513.039 L12332.1,-508.607 L12342.5,-504.07 L12354.6,-499.429 L12855.2,-341.68 L12855.2,-1890.49"/>
</g>

<g fill="none" stroke="#000000" stroke-opacity="1" stroke-width="1" stroke-linecap="square" stroke-linejoin="bevel" transform="matrix(0.999539,0,0,-0.999539,-12291.1,-340.257)"
font-family="MS Shell Dlg 2" font-size="10.3125" font-weight="400" font-style="normal" 
>
</g>

<g fill="none" stroke="#000000" stroke-opacity="1" stroke-width="1" stroke-linecap="square" stroke-linejoin="bevel" transform="matrix(0.999539,0,0,-0.999539,-12291.1,-340.257)"
font-family="MS Shell Dlg 2" font-size="10.3125" font-weight="400" font-style="normal" 
>
</g>

<g fill="#808080" fill-opacity="0.2" stroke="#333333" stroke-opacity="1" stroke-width="1" stroke-linecap="round" stroke-linejoin="round" transform="matrix(0.999539,0,0,-0.999539,-12291.1,-340.257)"
font-family="MS Shell Dlg 2" font-size="10.3125" font-weight="400" font-style="normal" 
>
<path vector-effect="non-scaling-stroke" fill-rule="evenodd" d="M12855.2,-1890.49 L13230.7,-1890.49 L13245.5,-1891.09 L13258.4,-1892.89 L13269.7,-1895.89 L13279.1,-1900.08 L13286.8,-1905.48 L13292.9,-1911.87 L13297.6,-1919.04 L13301,-1926.99 L13303,-1935.73 L13303.7,-1945.24 L13303,-1954.32 L13301,-1962.77 L13297.6,-1970.59 L13292.9,-1977.78 L13286.8,-1984.36 L13279.1,-1989.99 L13269.7,-1994.37 L13258.4,-1997.5 L13245.5,-1999.37 L13230.7,-2000 L12370.3,-2000 L12355.5,-1999.37 L12342.5,-1997.5 L12331.3,-1994.37 L12321.9,-1989.99 L12314.2,-1984.36 L12308.1,-1977.78 L12303.3,-1970.59 L12300,-1962.77 L12297.9,-1954.32 L12297.2,-1945.24 L12297.9,-1935.73 L12300,-1926.99 L12303.3,-1919.04 L12308.1,-1911.87 L12314.2,-1905.48 L12321.9,-1900.08 L12331.3,-1895.89 L12342.5,-1892.89 L12355.5,-1891.09 L12370.3,-1890.49 L12745.7,-1890.49 L12745.7,-492.91 L12388.5,-605.029 L12378.6,-607.845 L12369.9,-610.036 L12362.4,-611.6 L12356,-612.539 L12350.7,-612.852 L12343,-612.2 L12335.6,-610.244 L12328.4,-606.985 L12321.5,-602.422 L12314.8,-596.555 L12309,-589.802 L12304.4,-582.579 L12301.2,-574.888 L12299.2,-566.726 L12298.5,-558.096 L12299.1,-550.378 L12300.6,-542.868 L12303.2,-535.568 L12306.9,-528.475 L12311.6,-521.592 L12316.6,-517.368 L12323.5,-513.039 L12332.1,-508.607 L12342.5,-504.07 L12354.6,-499.429 L12855.2,-341.68 L12855.2,-1890.49"/>
</g>

<g fill="none" stroke="#000000" stroke-opacity="1" stroke-width="1" stroke-linecap="square" stroke-linejoin="bevel" transform="matrix(0.999539,0,0,-0.999539,-12291.1,-340.257)"
font-family="MS Shell Dlg 2" font-size="10.3125" font-weight="400" font-style="normal" 
>
</g>

<g fill="none" stroke="#000000" stroke-opacity="1" stroke-width="1" stroke-linecap="square" stroke-linejoin="bevel" transform="matrix(0.999539,0,0,-0.999539,-12291.1,-340.257)"
font-family="MS Shell Dlg 2" font-size="10.3125" font-weight="400" font-style="normal" 
>
</g>

<g fill="#808080" fill-opacity="0.2" stroke="#333333" stroke-opacity="1" stroke-width="1" stroke-linecap="round" stroke-linejoin="round" transform="matrix(0.999539,0,0,-0.999539,-12291.1,-340.257)"
font-family="MS Shell Dlg 2" font-size="10.3125" font-weight="400" font-style="normal" 
>
<path vector-effect="non-scaling-stroke" fill-rule="evenodd" d="M12855.2,-1890.49 L13230.7,-1890.49 L13245.5,-1891.09 L13258.4,-1892.89 L13269.7,-1895.89 L13279.1,-1900.08 L13286.8,-1905.48 L13292.9,-1911.87 L13297.6,-1919.04 L13301,-1926.99 L13303,-1935.73 L13303.7,-1945.24 L13303,-1954.32 L13301,-1962.77 L13297.6,-1970.59 L13292.9,-1977.78 L13286.8,-1984.36 L13279.1,-1989.99 L13269.7,-1994.37 L13258.4,-1997.5 L13245.5,-1999.37 L13230.7,-2000 L12370.3,-2000 L12355.5,-1999.37 L12342.5,-1997.5 L12331.3,-1994.37 L12321.9,-1989.99 L12314.2,-1984.36 L12308.1,-1977.78 L12303.3,-1970.59 L12300,-1962.77 L12297.9,-1954.32 L12297.2,-1945.24 L12297.9,-1935.73 L12300,-1926.99 L12303.3,-1919.04 L12308.1,-1911.87 L12314.2,-1905.48 L12321.9,-1900.08 L12331.3,-1895.89 L12342.5,-1892.89 L12355.5,-1891.09 L12370.3,-1890.49 L12745.7,-1890.49 L12745.7,-492.91 L12388.5,-605.029 L12378.6,-607.845 L12369.9,-610.036 L12362.4,-611.6 L12356,-612.539 L12350.7,-612.852 L12343,-612.2 L12335.6,-610.244 L12328.4,-606.985 L12321.5,-602.422 L12314.8,-596.555 L12309,-589.802 L12304.4,-582.579 L12301.2,-574.888 L12299.2,-566.726 L12298.5,-558.096 L12299.1,-550.378 L12300.6,-542.868 L12303.2,-535.568 L12306.9,-528.475 L12311.6,-521.592 L12316.6,-517.368 L12323.5,-513.039 L12332.1,-508.607 L12342.5,-504.07 L12354.6,-499.429 L12855.2,-341.68 L12855.2,-1890.49"/>
</g>

<g fill="none" stroke="#000000" stroke-opacity="1" stroke-width="1" stroke-linecap="square" stroke-linejoin="bevel" transform="matrix(0.999539,0,0,-0.999539,-12291.1,-340.257)"
font-family="MS Shell Dlg 2" font-size="10.3125" font-weight="400" font-style="normal" 
>
</g>

<g fill="none" stroke="#000000" stroke-opacity="1" stroke-width="1" stroke-linecap="square" stroke-linejoin="bevel" transform="matrix(0.999539,0,0,-0.999539,-12291.1,-340.257)"
font-family="MS Shell Dlg 2" font-size="10.3125" font-weight="400" font-style="normal" 
>
</g>

<g fill="#808080" fill-opacity="0.2" stroke="#333333" stroke-opacity="1" stroke-width="1" stroke-linecap="round" stroke-linejoin="round" transform="matrix(0.999539,0,0,-0.999539,-12291.1,-340.257)"
font-family="MS Shell Dlg 2" font-size="10.3125" font-weight="400" font-style="normal" 
>
<path vector-effect="non-scaling-stroke" fill-rule="evenodd" d="M12855.2,-1890.49 L13230.7,-1890.49 L13245.5,-1891.09 L13258.4,-1892.89 L13269.7,-1895.89 L13279.1,-1900.08 L13286.8,-1905.48 L13292.9,-1911.87 L13297.6,-1919.04 L13301,-1926.99 L13303,-1935.73 L13303.7,-1945.24 L13303,-1954.32 L13301,-1962.77 L13297.6,-1970.59 L13292.9,-1977.78 L13286.8,-1984.36 L13279.1,-1989.99 L13269.7,-1994.37 L13258.4,-1997.5 L13245.5,-1999.37 L13230.7,-2000 L12370.3,-2000 L12355.5,-1999.37 L12342.5,-1997.5 L12331.3,-1994.37 L12321.9,-1989.99 L12314.2,-1984.36 L12308.1,-1977.78 L12303.3,-1970.59 L12300,-1962.77 L12297.9,-1954.32 L12297.2,-1945.24 L12297.9,-1935.73 L12300,-1926.99 L12303.3,-1919.04 L12308.1,-1911.87 L12314.2,-1905.48 L12321.9,-1900.08 L12331.3,-1895.89 L12342.5,-1892.89 L12355.5,-1891.09 L12370.3,-1890.49 L12745.7,-1890.49 L12745.7,-492.91 L12388.5,-605.029 L12378.6,-607.845 L12369.9,-610.036 L12362.4,-611.6 L12356,-612.539 L12350.7,-612.852 L12343,-612.2 L12335.6,-610.244 L12328.4,-606.985 L12321.5,-602.422 L12314.8,-596.555 L12309,-589.802 L12304.4,-582.579 L12301.2,-574.888 L12299.2,-566.726 L12298.5,-558.096 L12299.1,-550.378 L12300.6,-542.868 L12303.2,-535.568 L12306.9,-528.475 L12311.6,-521.592 L12316.6,-517.368 L12323.5,-513.039 L12332.1,-508.607 L12342.5,-504.07 L12354.6,-499.429 L12855.2,-341.68 L12855.2,-1890.49"/>
</g>

<g fill="none" stroke="#000000" stroke-opacity="1" stroke-width="1" stroke-linecap="square" stroke-linejoin="bevel" transform="matrix(0.999539,0,0,-0.999539,-12291.1,-340.257)"
font-family="MS Shell Dlg 2" font-size="10.3125" font-weight="400" font-style="normal" 
>
</g>

<g fill="none" stroke="#000000" stroke-opacity="1" stroke-width="1" stroke-linecap="square" stroke-linejoin="bevel" transform="matrix(0.999539,0,0,-0.999539,-12291.1,-340.257)"
font-family="MS Shell Dlg 2" font-size="10.3125" font-weight="400" font-style="normal" 
>
</g>

<g fill="#808080" fill-opacity="0.2" stroke="#333333" stroke-opacity="1" stroke-width="1" stroke-linecap="round" stroke-linejoin="round" transform="matrix(0.999539,0,0,-0.999539,-12291.1,-340.257)"
font-family="MS Shell Dlg 2" font-size="10.3125" font-weight="400" font-style="normal" 
>
<path vector-effect="non-scaling-stroke" fill-rule="evenodd" d="M12855.2,-1890.49 L13230.7,-1890.49 L13245.5,-1891.09 L13258.4,-1892.89 L13269.7,-1895.89 L13279.1,-1900.08 L13286.8,-1905.48 L13292.9,-1911.87 L13297.6,-1919.04 L13301,-1926.99 L13303,-1935.73 L13303.7,-1945.24 L13303,-1954.32 L13301,-1962.77 L13297.6,-1970.59 L13292.9,-1977.78 L13286.8,-1984.36 L13279.1,-1989.99 L13269.7,-1994.37 L13258.4,-1997.5 L13245.5,-1999.37 L13230.7,-2000 L12370.3,-2000 L12355.5,-1999.37 L12342.5,-1997.5 L12331.3,-1994.37 L12321.9,-1989.99 L12314.2,-1984.36 L12308.1,-1977.78 L12303.3,-1970.59 L12300,-1962.77 L12297.9,-1954.32 L12297.2,-1945.24 L12297.9,-1935.73 L12300,-1926.99 L12303.3,-1919.04 L12308.1,-1911.87 L12314.2,-1905.48 L12321.9,-1900.08 L12331.3,-1895.89 L12342.5,-1892.89 L12355.5,-1891.09 L12370.3,-1890.49 L12745.7,-1890.49 L12745.7,-492.91 L12388.5,-605.029 L12378.6,-607.845 L12369.9,-610.036 L12362.4,-611.6 L12356,-612.539 L12350.7,-612.852 L12343,-612.2 L12335.6,-610.244 L12328.4,-606.985 L12321.5,-602.422 L12314.8,-596.555 L12309,-589.802 L12304.4,-582.579 L12301.2,-574.888 L12299.2,-566.726 L12298.5,-558.096 L12299.1,-550.378 L12300.6,-542.868 L12303.2,-535.568 L12306.9,-528.475 L12311.6,-521.592 L12316.6,-517.368 L12323.5,-513.039 L12332.1,-508.607 L12342.5,-504.07 L12354.6,-499.429 L12855.2,-341.68 L12855.2,-1890.49"/>
</g>

<g fill="none" stroke="#000000" stroke-opacity="1" stroke-width="1" stroke-linecap="square" stroke-linejoin="bevel" transform="matrix(0.999539,0,0,-0.999539,-12291.1,-340.257)"
font-family="MS Shell Dlg 2" font-size="10.3125" font-weight="400" font-style="normal" 
>
</g>

<g fill="none" stroke="#000000" stroke-opacity="1" stroke-width="1" stroke-linecap="square" stroke-linejoin="bevel" transform="matrix(0.999539,0,0,-0.999539,-12291.1,-340.257)"
font-family="MS Shell Dlg 2" font-size="10.3125" font-weight="400" font-style="normal" 
>
</g>

<g fill="#808080" fill-opacity="0.2" stroke="#333333" stroke-opacity="1" stroke-width="1" stroke-linecap="round" stroke-linejoin="round" transform="matrix(0.999539,0,0,-0.999539,-12291.1,-340.257)"
font-family="MS Shell Dlg 2" font-size="10.3125" font-weight="400" font-style="normal" 
>
<path vector-effect="non-scaling-stroke" fill-rule="evenodd" d="M12855.2,-1890.49 L13230.7,-1890.49 L13245.5,-1891.09 L13258.4,-1892.89 L13269.7,-1895.89 L13279.1,-1900.08 L13286.8,-1905.48 L13292.9,-1911.87 L13297.6,-1919.04 L13301,-1926.99 L13303,-1935.73 L13303.7,-1945.24 L13303,-1954.32 L13301,-1962.77 L13297.6,-1970.59 L13292.9,-1977.78 L13286.8,-1984.36 L13279.1,-1989.99 L13269.7,-1994.37 L13258.4,-1997.5 L13245.5,-1999.37 L13230.7,-2000 L12370.3,-2000 L12355.5,-1999.37 L12342.5,-1997.5 L12331.3,-1994.37 L12321.9,-1989.99 L12314.2,-1984.36 L12308.1,-1977.78 L12303.3,-1970.59 L12300,-1962.77 L12297.9,-1954.32 L12297.2,-1945.24 L12297.9,-1935.73 L12300,-1926.99 L12303.3,-1919.04 L12308.1,-1911.87 L12314.2,-1905.48 L12321.9,-1900.08 L12331.3,-1895.89 L12342.5,-1892.89 L12355.5,-1891.09 L12370.3,-1890.49 L12745.7,-1890.49 L12745.7,-492.91 L12388.5,-605.029 L12378.6,-607.845 L12369.9,-610.036 L12362.4,-611.6 L12356,-612.539 L12350.7,-612.852 L12343,-612.2 L12335.6,-610.244 L12328.4,-606.985 L12321.5,-602.422 L12314.8,-596.555 L12309,-589.802 L12304.4,-582.579 L12301.2,-574.888 L12299.2,-566.726 L12298.5,-558.096 L12299.1,-550.378 L12300.6,-542.868 L12303.2,-535.568 L12306.9,-528.475 L12311.6,-521.592 L12316.6,-517.368 L12323.5,-513.039 L12332.1,-508.607 L12342.5,-504.07 L12354.6,-499.429 L12855.2,-341.68 L12855.2,-1890.49"/>
</g>

<g fill="none" stroke="#000000" stroke-opacity="1" stroke-width="1" stroke-linecap="square" stroke-linejoin="bevel" transform="matrix(0.999539,0,0,-0.999539,-12291.1,-340.257)"
font-family="MS Shell Dlg 2" font-size="10.3125" font-weight="400" font-style="normal" 
>
</g>

<g fill="none" stroke="#000000" stroke-opacity="1" stroke-width="1" stroke-linecap="square" stroke-linejoin="bevel" transform="matrix(0.999539,0,0,-0.999539,-12291.1,-340.257)"
font-family="MS Shell Dlg 2" font-size="10.3125" font-weight="400" font-style="normal" 
>
</g>

<g fill="#808080" fill-opacity="0.2" stroke="#333333" stroke-opacity="1" stroke-width="1" stroke-linecap="round" stroke-linejoin="round" transform="matrix(0.999539,0,0,-0.999539,-12291.1,-340.257)"
font-family="MS Shell Dlg 2" font-size="10.3125" font-weight="400" font-style="normal" 
>
<path vector-effect="non-scaling-stroke" fill-rule="evenodd" d="M12855.2,-1890.49 L13230.7,-1890.49 L13245.5,-1891.09 L13258.4,-1892.89 L13269.7,-1895.89 L13279.1,-1900.08 L13286.8,-1905.48 L13292.9,-1911.87 L13297.6,-1919.04 L13301,-1926.99 L13303,-1935.73 L13303.7,-1945.24 L13303,-1954.32 L13301,-1962.77 L13297.6,-1970.59 L13292.9,-1977.78 L13286.8,-1984.36 L13279.1,-1989.99 L13269.7,-1994.37 L13258.4,-1997.5 L13245.5,-1999.37 L13230.7,-2000 L12370.3,-2000 L12355.5,-1999.37 L12342.5,-1997.5 L12331.3,-1994.37 L12321.9,-1989.99 L12314.2,-1984.36 L12308.1,-1977.78 L12303.3,-1970.59 L12300,-1962.77 L12297.9,-1954.32 L12297.2,-1945.24 L12297.9,-1935.73 L12300,-1926.99 L12303.3,-1919.04 L12308.1,-1911.87 L12314.2,-1905.48 L12321.9,-1900.08 L12331.3,-1895.89 L12342.5,-1892.89 L12355.5,-1891.09 L12370.3,-1890.49 L12745.7,-1890.49 L12745.7,-492.91 L12388.5,-605.029 L12378.6,-607.845 L12369.9,-610.036 L12362.4,-611.6 L12356,-612.539 L12350.7,-612.852 L12343,-612.2 L12335.6,-610.244 L12328.4,-606.985 L12321.5,-602.422 L12314.8,-596.555 L12309,-589.802 L12304.4,-582.579 L12301.2,-574.888 L12299.2,-566.726 L12298.5,-558.096 L12299.1,-550.378 L12300.6,-542.868 L12303.2,-535.568 L12306.9,-528.475 L12311.6,-521.592 L12316.6,-517.368 L12323.5,-513.039 L12332.1,-508.607 L12342.5,-504.07 L12354.6,-499.429 L12855.2,-341.68 L12855.2,-1890.49"/>
</g>

<g fill="none" stroke="#000000" stroke-opacity="1" stroke-width="1" stroke-linecap="square" stroke-linejoin="bevel" transform="matrix(0.999539,0,0,-0.999539,-12291.1,-340.257)"
font-family="MS Shell Dlg 2" font-size="10.3125" font-weight="400" font-style="normal" 
>
</g>

<g fill="none" stroke="#000000" stroke-opacity="1" stroke-width="1" stroke-linecap="square" stroke-linejoin="bevel" transform="matrix(1,0,0,-1,0,1659.32)"
font-family="MS Shell Dlg 2" font-size="10.3125" font-weight="400" font-style="normal" 
>
</g>
</g>
</svg>
