<?xml version="1.0" encoding="UTF-8" standalone="no"?>
<svg width="283.916mm" height="467.642mm"
 xmlns="http://www.w3.org/2000/svg" xmlns:xlink="http://www.w3.org/1999/xlink"  version="1.2" baseProfile="tiny">
<title>SVG Generator Example Drawing</title>
<desc>An SVG drawing created by the SVG Generator</desc>
<defs>
</defs>
<g fill="none" stroke="black" stroke-width="1" fill-rule="evenodd" stroke-linecap="square" stroke-linejoin="bevel" >

<g fill="none" stroke="#000000" stroke-opacity="1" stroke-width="1" stroke-linecap="square" stroke-linejoin="bevel" transform="matrix(1,0,0,-1,0,1657.25)"
font-family="MS Shell Dlg 2" font-size="10.3125" font-weight="400" font-style="normal" 
>
</g>

<g fill="none" stroke="#000000" stroke-opacity="1" stroke-width="1" stroke-linecap="square" stroke-linejoin="bevel" transform="matrix(1,0,0,-1,0,1657.25)"
font-family="MS Shell Dlg 2" font-size="10.3125" font-weight="400" font-style="normal" 
>
</g>

<g fill="none" stroke="#000000" stroke-opacity="1" stroke-width="1" stroke-linecap="square" stroke-linejoin="bevel" transform="matrix(0.999792,0,0,-0.999792,3722.83,-649.159)"
font-family="MS Shell Dlg 2" font-size="10.3125" font-weight="400" font-style="normal" 
>
</g>

<g fill="#808080" fill-opacity="0.2" stroke="#333333" stroke-opacity="1" stroke-width="1" stroke-linecap="round" stroke-linejoin="round" transform="matrix(0.999792,0,0,-0.999792,3722.83,-649.159)"
font-family="MS Shell Dlg 2" font-size="10.3125" font-weight="400" font-style="normal" 
>
<path vector-effect="non-scaling-stroke" fill-rule="evenodd" d="M-3165.81,-650.139 L-3165.81,-2197.02 L-2790.81,-2197.02 L-2764.77,-2197.02 L-2723.54,-2221.97 L-2717.9,-2267.33 L-2746.11,-2301.18 L-3650.19,-2306.39 L-3676.23,-2306.39 L-3717.46,-2280.35 L-3723.11,-2235.21 L-3694.89,-2202.01 L-3275.19,-2197.02 L-3275.19,-801.181 L-3631.96,-913.161 L-3649.32,-918.369 L-3682.74,-920.973 L-3716.38,-893.846 L-3721.8,-853.265 L-3701.84,-822.883 L-3165.81,-650.139"/>
</g>

<g fill="none" stroke="#000000" stroke-opacity="1" stroke-width="1" stroke-linecap="square" stroke-linejoin="bevel" transform="matrix(0.999792,0,0,-0.999792,3722.83,-649.159)"
font-family="MS Shell Dlg 2" font-size="10.3125" font-weight="400" font-style="normal" 
>
</g>

<g fill="none" stroke="#000000" stroke-opacity="1" stroke-width="1" stroke-linecap="square" stroke-linejoin="bevel" transform="matrix(0.999792,0,0,-0.999792,3722.83,-649.159)"
font-family="MS Shell Dlg 2" font-size="10.3125" font-weight="400" font-style="normal" 
>
</g>

<g fill="#808080" fill-opacity="0.2" stroke="#333333" stroke-opacity="1" stroke-width="1" stroke-linecap="round" stroke-linejoin="round" transform="matrix(0.999792,0,0,-0.999792,3722.83,-649.159)"
font-family="MS Shell Dlg 2" font-size="10.3125" font-weight="400" font-style="normal" 
>
<path vector-effect="non-scaling-stroke" fill-rule="evenodd" d="M-3165.81,-650.139 L-3165.81,-2197.02 L-2790.81,-2197.02 L-2764.77,-2197.02 L-2723.54,-2221.97 L-2717.9,-2267.33 L-2746.11,-2301.18 L-3650.19,-2306.39 L-3676.23,-2306.39 L-3717.46,-2280.35 L-3723.11,-2235.21 L-3694.89,-2202.01 L-3275.19,-2197.02 L-3275.19,-801.181 L-3631.96,-913.161 L-3649.32,-918.369 L-3682.74,-920.973 L-3716.38,-893.846 L-3721.8,-853.265 L-3701.84,-822.883 L-3165.81,-650.139"/>
</g>

<g fill="none" stroke="#000000" stroke-opacity="1" stroke-width="1" stroke-linecap="square" stroke-linejoin="bevel" transform="matrix(0.999792,0,0,-0.999792,3722.83,-649.159)"
font-family="MS Shell Dlg 2" font-size="10.3125" font-weight="400" font-style="normal" 
>
</g>

<g fill="none" stroke="#000000" stroke-opacity="1" stroke-width="1" stroke-linecap="square" stroke-linejoin="bevel" transform="matrix(0.999792,0,0,-0.999792,3722.83,-649.159)"
font-family="MS Shell Dlg 2" font-size="10.3125" font-weight="400" font-style="normal" 
>
</g>

<g fill="#808080" fill-opacity="0.2" stroke="#333333" stroke-opacity="1" stroke-width="1" stroke-linecap="round" stroke-linejoin="round" transform="matrix(0.999792,0,0,-0.999792,3722.83,-649.159)"
font-family="MS Shell Dlg 2" font-size="10.3125" font-weight="400" font-style="normal" 
>
<path vector-effect="non-scaling-stroke" fill-rule="evenodd" d="M-3165.81,-650.139 L-3165.81,-2197.02 L-2790.81,-2197.02 L-2764.77,-2197.02 L-2723.54,-2221.97 L-2717.9,-2267.33 L-2746.11,-2301.18 L-3650.19,-2306.39 L-3676.23,-2306.39 L-3717.46,-2280.35 L-3723.11,-2235.21 L-3694.89,-2202.01 L-3275.19,-2197.02 L-3275.19,-801.181 L-3631.96,-913.161 L-3649.32,-918.369 L-3682.74,-920.973 L-3716.38,-893.846 L-3721.8,-853.265 L-3701.84,-822.883 L-3165.81,-650.139"/>
</g>

<g fill="none" stroke="#000000" stroke-opacity="1" stroke-width="1" stroke-linecap="square" stroke-linejoin="bevel" transform="matrix(0.999792,0,0,-0.999792,3722.83,-649.159)"
font-family="MS Shell Dlg 2" font-size="10.3125" font-weight="400" font-style="normal" 
>
</g>

<g fill="none" stroke="#000000" stroke-opacity="1" stroke-width="1" stroke-linecap="square" stroke-linejoin="bevel" transform="matrix(0.999792,0,0,-0.999792,3722.83,-649.159)"
font-family="MS Shell Dlg 2" font-size="10.3125" font-weight="400" font-style="normal" 
>
</g>

<g fill="#808080" fill-opacity="0.2" stroke="#333333" stroke-opacity="1" stroke-width="1" stroke-linecap="round" stroke-linejoin="round" transform="matrix(0.999792,0,0,-0.999792,3722.83,-649.159)"
font-family="MS Shell Dlg 2" font-size="10.3125" font-weight="400" font-style="normal" 
>
<path vector-effect="non-scaling-stroke" fill-rule="evenodd" d="M-3165.81,-650.139 L-3165.81,-2197.02 L-2790.81,-2197.02 L-2764.77,-2197.02 L-2723.54,-2221.97 L-2717.9,-2267.33 L-2746.11,-2301.18 L-3650.19,-2306.39 L-3676.23,-2306.39 L-3717.46,-2280.35 L-3723.11,-2235.21 L-3694.89,-2202.01 L-3275.19,-2197.02 L-3275.19,-801.181 L-3631.96,-913.161 L-3649.32,-918.369 L-3682.74,-920.973 L-3716.38,-893.846 L-3721.8,-853.265 L-3701.84,-822.883 L-3165.81,-650.139"/>
</g>

<g fill="none" stroke="#000000" stroke-opacity="1" stroke-width="1" stroke-linecap="square" stroke-linejoin="bevel" transform="matrix(0.999792,0,0,-0.999792,3722.83,-649.159)"
font-family="MS Shell Dlg 2" font-size="10.3125" font-weight="400" font-style="normal" 
>
</g>

<g fill="none" stroke="#000000" stroke-opacity="1" stroke-width="1" stroke-linecap="square" stroke-linejoin="bevel" transform="matrix(0.999792,0,0,-0.999792,3722.83,-649.159)"
font-family="MS Shell Dlg 2" font-size="10.3125" font-weight="400" font-style="normal" 
>
</g>

<g fill="#808080" fill-opacity="0.2" stroke="#333333" stroke-opacity="1" stroke-width="1" stroke-linecap="round" stroke-linejoin="round" transform="matrix(0.999792,0,0,-0.999792,3722.83,-649.159)"
font-family="MS Shell Dlg 2" font-size="10.3125" font-weight="400" font-style="normal" 
>
<path vector-effect="non-scaling-stroke" fill-rule="evenodd" d="M-3165.81,-650.139 L-3165.81,-2197.02 L-2790.81,-2197.02 L-2764.77,-2197.02 L-2723.54,-2221.97 L-2717.9,-2267.33 L-2746.11,-2301.18 L-3650.19,-2306.39 L-3676.23,-2306.39 L-3717.46,-2280.35 L-3723.11,-2235.21 L-3694.89,-2202.01 L-3275.19,-2197.02 L-3275.19,-801.181 L-3631.96,-913.161 L-3649.32,-918.369 L-3682.74,-920.973 L-3716.38,-893.846 L-3721.8,-853.265 L-3701.84,-822.883 L-3165.81,-650.139"/>
</g>

<g fill="none" stroke="#000000" stroke-opacity="1" stroke-width="1" stroke-linecap="square" stroke-linejoin="bevel" transform="matrix(0.999792,0,0,-0.999792,3722.83,-649.159)"
font-family="MS Shell Dlg 2" font-size="10.3125" font-weight="400" font-style="normal" 
>
</g>

<g fill="none" stroke="#000000" stroke-opacity="1" stroke-width="1" stroke-linecap="square" stroke-linejoin="bevel" transform="matrix(0.999792,0,0,-0.999792,3722.83,-649.159)"
font-family="MS Shell Dlg 2" font-size="10.3125" font-weight="400" font-style="normal" 
>
</g>

<g fill="#808080" fill-opacity="0.2" stroke="#333333" stroke-opacity="1" stroke-width="1" stroke-linecap="round" stroke-linejoin="round" transform="matrix(0.999792,0,0,-0.999792,3722.83,-649.159)"
font-family="MS Shell Dlg 2" font-size="10.3125" font-weight="400" font-style="normal" 
>
<path vector-effect="non-scaling-stroke" fill-rule="evenodd" d="M-3165.81,-650.139 L-3165.81,-2197.02 L-2790.81,-2197.02 L-2764.77,-2197.02 L-2723.54,-2221.97 L-2717.9,-2267.33 L-2746.11,-2301.18 L-3650.19,-2306.39 L-3676.23,-2306.39 L-3717.46,-2280.35 L-3723.11,-2235.21 L-3694.89,-2202.01 L-3275.19,-2197.02 L-3275.19,-801.181 L-3631.96,-913.161 L-3649.32,-918.369 L-3682.74,-920.973 L-3716.38,-893.846 L-3721.8,-853.265 L-3701.84,-822.883 L-3165.81,-650.139"/>
</g>

<g fill="none" stroke="#000000" stroke-opacity="1" stroke-width="1" stroke-linecap="square" stroke-linejoin="bevel" transform="matrix(0.999792,0,0,-0.999792,3722.83,-649.159)"
font-family="MS Shell Dlg 2" font-size="10.3125" font-weight="400" font-style="normal" 
>
</g>

<g fill="none" stroke="#000000" stroke-opacity="1" stroke-width="1" stroke-linecap="square" stroke-linejoin="bevel" transform="matrix(0.999792,0,0,-0.999792,3722.83,-649.159)"
font-family="MS Shell Dlg 2" font-size="10.3125" font-weight="400" font-style="normal" 
>
</g>

<g fill="#808080" fill-opacity="0.2" stroke="#333333" stroke-opacity="1" stroke-width="1" stroke-linecap="round" stroke-linejoin="round" transform="matrix(0.999792,0,0,-0.999792,3722.83,-649.159)"
font-family="MS Shell Dlg 2" font-size="10.3125" font-weight="400" font-style="normal" 
>
<path vector-effect="non-scaling-stroke" fill-rule="evenodd" d="M-3165.81,-650.139 L-3165.81,-2197.02 L-2790.81,-2197.02 L-2764.77,-2197.02 L-2723.54,-2221.97 L-2717.9,-2267.33 L-2746.11,-2301.18 L-3650.19,-2306.39 L-3676.23,-2306.39 L-3717.46,-2280.35 L-3723.11,-2235.21 L-3694.89,-2202.01 L-3275.19,-2197.02 L-3275.19,-801.181 L-3631.96,-913.161 L-3649.32,-918.369 L-3682.74,-920.973 L-3716.38,-893.846 L-3721.8,-853.265 L-3701.84,-822.883 L-3165.81,-650.139"/>
</g>

<g fill="none" stroke="#000000" stroke-opacity="1" stroke-width="1" stroke-linecap="square" stroke-linejoin="bevel" transform="matrix(0.999792,0,0,-0.999792,3722.83,-649.159)"
font-family="MS Shell Dlg 2" font-size="10.3125" font-weight="400" font-style="normal" 
>
</g>

<g fill="none" stroke="#000000" stroke-opacity="1" stroke-width="1" stroke-linecap="square" stroke-linejoin="bevel" transform="matrix(0.999792,0,0,-0.999792,3722.83,-649.159)"
font-family="MS Shell Dlg 2" font-size="10.3125" font-weight="400" font-style="normal" 
>
</g>

<g fill="#808080" fill-opacity="0.2" stroke="#333333" stroke-opacity="1" stroke-width="1" stroke-linecap="round" stroke-linejoin="round" transform="matrix(0.999792,0,0,-0.999792,3722.83,-649.159)"
font-family="MS Shell Dlg 2" font-size="10.3125" font-weight="400" font-style="normal" 
>
<path vector-effect="non-scaling-stroke" fill-rule="evenodd" d="M-3165.81,-650.139 L-3165.81,-2197.02 L-2790.81,-2197.02 L-2764.77,-2197.02 L-2723.54,-2221.97 L-2717.9,-2267.33 L-2746.11,-2301.18 L-3650.19,-2306.39 L-3676.23,-2306.39 L-3717.46,-2280.35 L-3723.11,-2235.21 L-3694.89,-2202.01 L-3275.19,-2197.02 L-3275.19,-801.181 L-3631.96,-913.161 L-3649.32,-918.369 L-3682.74,-920.973 L-3716.38,-893.846 L-3721.8,-853.265 L-3701.84,-822.883 L-3165.81,-650.139"/>
</g>

<g fill="none" stroke="#000000" stroke-opacity="1" stroke-width="1" stroke-linecap="square" stroke-linejoin="bevel" transform="matrix(0.999792,0,0,-0.999792,3722.83,-649.159)"
font-family="MS Shell Dlg 2" font-size="10.3125" font-weight="400" font-style="normal" 
>
</g>

<g fill="none" stroke="#000000" stroke-opacity="1" stroke-width="1" stroke-linecap="square" stroke-linejoin="bevel" transform="matrix(0.999792,0,0,-0.999792,3722.83,-649.159)"
font-family="MS Shell Dlg 2" font-size="10.3125" font-weight="400" font-style="normal" 
>
</g>

<g fill="#808080" fill-opacity="0.2" stroke="#333333" stroke-opacity="1" stroke-width="1" stroke-linecap="round" stroke-linejoin="round" transform="matrix(0.999792,0,0,-0.999792,3722.83,-649.159)"
font-family="MS Shell Dlg 2" font-size="10.3125" font-weight="400" font-style="normal" 
>
<path vector-effect="non-scaling-stroke" fill-rule="evenodd" d="M-3165.81,-650.139 L-3165.81,-2197.02 L-2790.81,-2197.02 L-2764.77,-2197.02 L-2723.54,-2221.97 L-2717.9,-2267.33 L-2746.11,-2301.18 L-3650.19,-2306.39 L-3676.23,-2306.39 L-3717.46,-2280.35 L-3723.11,-2235.21 L-3694.89,-2202.01 L-3275.19,-2197.02 L-3275.19,-801.181 L-3631.96,-913.161 L-3649.32,-918.369 L-3682.74,-920.973 L-3716.38,-893.846 L-3721.8,-853.265 L-3701.84,-822.883 L-3165.81,-650.139"/>
</g>

<g fill="none" stroke="#000000" stroke-opacity="1" stroke-width="1" stroke-linecap="square" stroke-linejoin="bevel" transform="matrix(0.999792,0,0,-0.999792,3722.83,-649.159)"
font-family="MS Shell Dlg 2" font-size="10.3125" font-weight="400" font-style="normal" 
>
</g>

<g fill="none" stroke="#000000" stroke-opacity="1" stroke-width="1" stroke-linecap="square" stroke-linejoin="bevel" transform="matrix(0.999792,0,0,-0.999792,3722.83,-649.159)"
font-family="MS Shell Dlg 2" font-size="10.3125" font-weight="400" font-style="normal" 
>
</g>

<g fill="#808080" fill-opacity="0.2" stroke="#333333" stroke-opacity="1" stroke-width="1" stroke-linecap="round" stroke-linejoin="round" transform="matrix(0.999792,0,0,-0.999792,3722.83,-649.159)"
font-family="MS Shell Dlg 2" font-size="10.3125" font-weight="400" font-style="normal" 
>
<path vector-effect="non-scaling-stroke" fill-rule="evenodd" d="M-3165.81,-650.139 L-3165.81,-2197.02 L-2790.81,-2197.02 L-2764.77,-2197.02 L-2723.54,-2221.97 L-2717.9,-2267.33 L-2746.11,-2301.18 L-3650.19,-2306.39 L-3676.23,-2306.39 L-3717.46,-2280.35 L-3723.11,-2235.21 L-3694.89,-2202.01 L-3275.19,-2197.02 L-3275.19,-801.181 L-3631.96,-913.161 L-3649.32,-918.369 L-3682.74,-920.973 L-3716.38,-893.846 L-3721.8,-853.265 L-3701.84,-822.883 L-3165.81,-650.139"/>
</g>

<g fill="none" stroke="#000000" stroke-opacity="1" stroke-width="1" stroke-linecap="square" stroke-linejoin="bevel" transform="matrix(0.999792,0,0,-0.999792,3722.83,-649.159)"
font-family="MS Shell Dlg 2" font-size="10.3125" font-weight="400" font-style="normal" 
>
</g>

<g fill="none" stroke="#000000" stroke-opacity="1" stroke-width="1" stroke-linecap="square" stroke-linejoin="bevel" transform="matrix(1,0,0,-1,0,1657.25)"
font-family="MS Shell Dlg 2" font-size="10.3125" font-weight="400" font-style="normal" 
>
</g>
</g>
</svg>
