<?xml version="1.0" encoding="UTF-8" standalone="no"?>
<svg width="298.591mm" height="472.44mm"
 xmlns="http://www.w3.org/2000/svg" xmlns:xlink="http://www.w3.org/1999/xlink"  version="1.2" baseProfile="tiny">
<title>SVG Generator Example Drawing</title>
<desc>An SVG drawing created by the SVG Generator</desc>
<defs>
</defs>
<g fill="none" stroke="black" stroke-width="1" fill-rule="evenodd" stroke-linecap="square" stroke-linejoin="bevel" >

<g fill="none" stroke="#000000" stroke-opacity="1" stroke-width="1" stroke-linecap="square" stroke-linejoin="bevel" transform="matrix(1,0,0,-1,0,1674.18)"
font-family="MS Shell Dlg 2" font-size="10.3125" font-weight="400" font-style="normal" 
>
</g>

<g fill="none" stroke="#000000" stroke-opacity="1" stroke-width="1" stroke-linecap="square" stroke-linejoin="bevel" transform="matrix(1,0,0,-1,0,1674.18)"
font-family="MS Shell Dlg 2" font-size="10.3125" font-weight="400" font-style="normal" 
>
</g>

<g fill="none" stroke="#000000" stroke-opacity="1" stroke-width="1" stroke-linecap="square" stroke-linejoin="bevel" transform="matrix(0.999723,0,0,-0.999723,3796.77,-632.074)"
font-family="MS Shell Dlg 2" font-size="10.3125" font-weight="400" font-style="normal" 
>
</g>

<g fill="#808080" fill-opacity="0.2" stroke="#333333" stroke-opacity="1" stroke-width="1" stroke-linecap="round" stroke-linejoin="round" transform="matrix(0.999723,0,0,-0.999723,3796.77,-632.074)"
font-family="MS Shell Dlg 2" font-size="10.3125" font-weight="400" font-style="normal" 
>
<path vector-effect="non-scaling-stroke" fill-rule="evenodd" d="M-3690.55,-2197.02 L-2850.71,-2197.02 L-2850.71,-2154.05 L-2850.71,-2128.01 L-2824.67,-2086.77 L-2779.09,-2081.13 L-2745.24,-2109.34 L-2740.03,-2306.39 L-3797.32,-2306.39 L-3797.32,-2144.93 L-3575.1,-1945.28 L-3050.8,-1439.2 L-2910.6,-1278.18 L-2858.74,-1169.89 L-2852.01,-1006.91 L-3040.81,-779.914 L-3334.22,-743.89 L-3566.42,-880.608 L-3641.07,-1049.88 L-3665.81,-1078.09 L-3706.61,-1082.43 L-3738.95,-1057.48 L-3743.94,-989.984 L-3630.01,-791.199 L-3406.48,-653.612 L-3103.75,-633.212 L-2790.38,-869.758 L-2741.33,-1147.1 L-2782.57,-1277.53 L-2889.55,-1423.36 L-3319.89,-1852.83 L-3690.55,-2197.02"/>
</g>

<g fill="none" stroke="#000000" stroke-opacity="1" stroke-width="1" stroke-linecap="square" stroke-linejoin="bevel" transform="matrix(0.999723,0,0,-0.999723,3796.77,-632.074)"
font-family="MS Shell Dlg 2" font-size="10.3125" font-weight="400" font-style="normal" 
>
</g>

<g fill="none" stroke="#000000" stroke-opacity="1" stroke-width="1" stroke-linecap="square" stroke-linejoin="bevel" transform="matrix(1,0,0,-1,0,1674.18)"
font-family="MS Shell Dlg 2" font-size="10.3125" font-weight="400" font-style="normal" 
>
</g>
</g>
</svg>
