<?xml version="1.0" encoding="UTF-8" standalone="no"?>
<svg width="3564.18mm" height="581.942mm"
 xmlns="http://www.w3.org/2000/svg" xmlns:xlink="http://www.w3.org/1999/xlink"  version="1.2" baseProfile="tiny">
<title>SVG Generator Example Drawing</title>
<desc>An SVG drawing created by the SVG Generator</desc>
<defs>
</defs>
<g fill="none" stroke="black" stroke-width="1" fill-rule="evenodd" stroke-linecap="square" stroke-linejoin="bevel" >

<g fill="none" stroke="#000000" stroke-opacity="1" stroke-width="1" stroke-linecap="square" stroke-linejoin="bevel" transform="matrix(1,0,0,-1,0,2062.2)"
font-family="MS Shell Dlg 2" font-size="10.3125" font-weight="400" font-style="normal" 
>
</g>

<g fill="none" stroke="#000000" stroke-opacity="1" stroke-width="1" stroke-linecap="square" stroke-linejoin="bevel" transform="matrix(1,0,0,-1,0,2062.2)"
font-family="MS Shell Dlg 2" font-size="10.3125" font-weight="400" font-style="normal" 
>
</g>

<g fill="none" stroke="#000000" stroke-opacity="1" stroke-width="1" stroke-linecap="square" stroke-linejoin="bevel" transform="matrix(0.999903,0,0,-0.999903,14776.8,8067.6)"
font-family="MS Shell Dlg 2" font-size="10.3125" font-weight="400" font-style="normal" 
>
</g>

<g fill="#ae5151" fill-opacity="0.2" stroke="#333333" stroke-opacity="1" stroke-width="1" stroke-linecap="round" stroke-linejoin="round" transform="matrix(0.999903,0,0,-0.999903,14776.8,8067.6)"
font-family="MS Shell Dlg 2" font-size="10.3125" font-weight="400" font-style="normal" 
>
<path vector-effect="non-scaling-stroke" fill-rule="evenodd" d="M-14448.3,7636.7 L-14448.3,7437.48 L-14383.2,7516.47 L-14164.1,7655.79 L-13866.7,7675.76 L-13585.1,7549.89 L-13414.7,7300.11 L-13389.7,6949.63 L-13670.8,6592.21 L-14168.4,6536.43 L-14448.3,6115.86 L-14182.7,6115.86 L-14156.7,6115.86 L-14115.4,6090.9 L-14109.8,6045.55 L-14138,6011.69 L-14704.9,6006.49 L-14730.9,6006.49 L-14772.1,6031.44 L-14777.8,6077.67 L-14749.6,6110.87 L-14557.7,6115.86 L-14557.7,7526.02 L-14704.9,7526.02 L-14730.9,7526.02 L-14772.1,7552.06 L-14777.8,7597.63 L-14749.6,7631.49 L-14448.3,7636.7 M-13500.4,7106.75 L-13500.4,7232.62 L-13729.4,7520.16 L-14105.9,7565.08 L-14402.3,7339.39 L-14448.3,6980.88 L-14218.3,6692.25 L-13842,6647.11 L-13546.4,6871.72 L-13500.4,7106.75"/>
</g>

<g fill="none" stroke="#000000" stroke-opacity="1" stroke-width="1" stroke-linecap="square" stroke-linejoin="bevel" transform="matrix(0.999903,0,0,-0.999903,14776.8,8067.6)"
font-family="MS Shell Dlg 2" font-size="10.3125" font-weight="400" font-style="normal" 
>
</g>

<g fill="none" stroke="#000000" stroke-opacity="1" stroke-width="1" stroke-linecap="square" stroke-linejoin="bevel" transform="matrix(0.999903,0,0,-0.999903,14776.8,8067.6)"
font-family="MS Shell Dlg 2" font-size="10.3125" font-weight="400" font-style="normal" 
>
</g>

<g fill="#ae5151" fill-opacity="0.2" stroke="#333333" stroke-opacity="1" stroke-width="1" stroke-linecap="round" stroke-linejoin="round" transform="matrix(0.999903,0,0,-0.999903,14776.8,8067.6)"
font-family="MS Shell Dlg 2" font-size="10.3125" font-weight="400" font-style="normal" 
>
<path vector-effect="non-scaling-stroke" fill-rule="evenodd" d="M-5555.11,7882.79 L-5555.11,7959.61 L-5555.11,7985.66 L-5530.16,8026.89 L-5483.93,8032.53 L-5450.73,8004.32 L-5445.74,7656.23 L-5445.74,7629.32 L-5470.69,7587.65 L-5515.18,7582.01 L-5547.52,7608.05 L-5559.45,7721.33 L-5774.3,7919.68 L-6101.55,7958.31 L-6311.19,7875.41 L-6445.74,7735.65 L-6549.47,7517.34 L-6561.62,7180.97 L-6561.62,7017.77 L-6266.48,6635.61 L-5879.33,6575.5 L-5646.91,6677.49 L-5490.88,6839.82 L-5440.53,6848.94 L-5408.84,6825.06 L-5404.07,6778.19 L-5531.24,6627.15 L-5789.27,6486.3 L-6049.47,6466.12 L-6273.86,6535.13 L-6407.11,6624.98 L-6576.16,6826.15 L-6660.15,7020.59 L-6671,7388 L-6671,7495.64 L-6526.68,7830.49 L-6247.17,8037.52 L-5840.7,8067.69 L-5555.11,7882.79"/>
</g>

<g fill="none" stroke="#000000" stroke-opacity="1" stroke-width="1" stroke-linecap="square" stroke-linejoin="bevel" transform="matrix(0.999903,0,0,-0.999903,14776.8,8067.6)"
font-family="MS Shell Dlg 2" font-size="10.3125" font-weight="400" font-style="normal" 
>
</g>

<g fill="none" stroke="#000000" stroke-opacity="1" stroke-width="1" stroke-linecap="square" stroke-linejoin="bevel" transform="matrix(0.999903,0,0,-0.999903,14776.8,8067.6)"
font-family="MS Shell Dlg 2" font-size="10.3125" font-weight="400" font-style="normal" 
>
</g>

<g fill="#ae5151" fill-opacity="0.2" stroke="#333333" stroke-opacity="1" stroke-width="1" stroke-linecap="round" stroke-linejoin="round" transform="matrix(0.999903,0,0,-0.999903,14776.8,8067.6)"
font-family="MS Shell Dlg 2" font-size="10.3125" font-weight="400" font-style="normal" 
>
<path vector-effect="non-scaling-stroke" fill-rule="evenodd" d="M-4076.21,7018.21 L-4794.96,7018.21 L-4942.09,6618.47 L-4732.46,6618.47 L-4706.42,6618.47 L-4665.18,6593.51 L-4659.54,6548.15 L-4687.75,6514.3 L-5141.31,6509.09 L-5167.35,6509.09 L-5208.59,6535.13 L-5214.23,6580.27 L-5186.02,6613.47 L-5056.68,6618.47 L-4573.6,7923.16 L-4896.52,7923.16 L-4922.56,7923.16 L-4963.79,7948.11 L-4969.44,7994.34 L-4941.22,8027.54 L-4345.74,8032.53 L-3811.88,6618.47 L-3727.25,6618.47 L-3701.21,6618.47 L-3659.97,6593.51 L-3654.33,6548.15 L-3682.54,6514.3 L-4134.8,6509.09 L-4161.71,6509.09 L-4203.38,6535.13 L-4209.02,6580.27 L-4180.81,6613.47 L-3926.47,6618.47 L-4076.21,7018.21 M-4117.87,7127.58 L-4419.96,7923.16 L-4460.32,7923.16 L-4753.29,7127.58 L-4117.87,7127.58"/>
</g>

<g fill="none" stroke="#000000" stroke-opacity="1" stroke-width="1" stroke-linecap="square" stroke-linejoin="bevel" transform="matrix(0.999903,0,0,-0.999903,14776.8,8067.6)"
font-family="MS Shell Dlg 2" font-size="10.3125" font-weight="400" font-style="normal" 
>
</g>

<g fill="none" stroke="#000000" stroke-opacity="1" stroke-width="1" stroke-linecap="square" stroke-linejoin="bevel" transform="matrix(0.999903,0,0,-0.999903,14776.8,8067.6)"
font-family="MS Shell Dlg 2" font-size="10.3125" font-weight="400" font-style="normal" 
>
</g>

<g fill="#ae5151" fill-opacity="0.2" stroke="#333333" stroke-opacity="1" stroke-width="1" stroke-linecap="round" stroke-linejoin="round" transform="matrix(0.999903,0,0,-0.999903,14776.8,8067.6)"
font-family="MS Shell Dlg 2" font-size="10.3125" font-weight="400" font-style="normal" 
>
<path vector-effect="non-scaling-stroke" fill-rule="evenodd" d="M-3265.27,6618.47 L-3265.27,7923.16 L-3357.72,7923.16 L-3383.76,7923.16 L-3424.99,7948.11 L-3430.63,7994.34 L-3402.42,8027.54 L-2769.18,8032.53 L-2677.16,8032.53 L-2441.27,7937.04 L-2274.82,7762.56 L-2161.97,7516.47 L-2149.38,7195.29 L-2149.38,7083.31 L-2273.08,6764.73 L-2556.94,6537.74 L-3357.72,6509.09 L-3383.76,6509.09 L-3424.99,6535.13 L-3430.63,6580.27 L-3402.42,6613.47 L-3265.27,6618.47 M-3155.89,6618.47 L-2758.76,6618.47 L-2666.74,6618.47 L-2420,6768.21 L-2278.94,7007.57 L-2258.76,7369.77 L-2258.76,7437.48 L-2322.56,7628.02 L-2455.37,7809.01 L-2622.91,7907.31 L-3155.89,7923.16 L-3155.89,6618.47"/>
</g>

<g fill="none" stroke="#000000" stroke-opacity="1" stroke-width="1" stroke-linecap="square" stroke-linejoin="bevel" transform="matrix(0.999903,0,0,-0.999903,14776.8,8067.6)"
font-family="MS Shell Dlg 2" font-size="10.3125" font-weight="400" font-style="normal" 
>
</g>

<g fill="none" stroke="#000000" stroke-opacity="1" stroke-width="1" stroke-linecap="square" stroke-linejoin="bevel" transform="matrix(0.999903,0,0,-0.999903,14776.8,8067.6)"
font-family="MS Shell Dlg 2" font-size="10.3125" font-weight="400" font-style="normal" 
>
</g>

<g fill="#ae5151" fill-opacity="0.2" stroke="#333333" stroke-opacity="1" stroke-width="1" stroke-linecap="round" stroke-linejoin="round" transform="matrix(0.999903,0,0,-0.999903,14776.8,8067.6)"
font-family="MS Shell Dlg 2" font-size="10.3125" font-weight="400" font-style="normal" 
>
<path vector-effect="non-scaling-stroke" fill-rule="evenodd" d="M-11248.3,7636.7 L-11248.3,7437.48 L-11183.2,7516.47 L-10964.1,7655.79 L-10666.7,7675.76 L-10385.1,7549.89 L-10214.7,7300.11 L-10189.7,6949.63 L-10470.8,6592.21 L-10968.4,6536.43 L-11248.3,6115.86 L-10982.7,6115.86 L-10956.7,6115.86 L-10915.4,6090.9 L-10909.8,6045.55 L-10938,6011.69 L-11504.9,6006.49 L-11530.9,6006.49 L-11572.1,6031.44 L-11577.8,6077.67 L-11549.6,6110.87 L-11357.7,6115.86 L-11357.7,7526.02 L-11504.9,7526.02 L-11530.9,7526.02 L-11572.1,7552.06 L-11577.8,7597.63 L-11549.6,7631.49 L-11248.3,7636.7 M-10300.4,7106.75 L-10300.4,7232.62 L-10529.4,7520.16 L-10905.9,7565.08 L-11202.3,7339.39 L-11248.3,6980.88 L-11018.3,6692.25 L-10642,6647.11 L-10346.4,6871.72 L-10300.4,7106.75"/>
</g>

<g fill="none" stroke="#000000" stroke-opacity="1" stroke-width="1" stroke-linecap="square" stroke-linejoin="bevel" transform="matrix(0.999903,0,0,-0.999903,14776.8,8067.6)"
font-family="MS Shell Dlg 2" font-size="10.3125" font-weight="400" font-style="normal" 
>
</g>

<g fill="none" stroke="#000000" stroke-opacity="1" stroke-width="1" stroke-linecap="square" stroke-linejoin="bevel" transform="matrix(0.999903,0,0,-0.999903,14776.8,8067.6)"
font-family="MS Shell Dlg 2" font-size="10.3125" font-weight="400" font-style="normal" 
>
</g>

<g fill="#ae5151" fill-opacity="0.2" stroke="#333333" stroke-opacity="1" stroke-width="1" stroke-linecap="round" stroke-linejoin="round" transform="matrix(0.999903,0,0,-0.999903,14776.8,8067.6)"
font-family="MS Shell Dlg 2" font-size="10.3125" font-weight="400" font-style="normal" 
>
<path vector-effect="non-scaling-stroke" fill-rule="evenodd" d="M-8048.34,7636.7 L-8048.34,7437.48 L-7983.24,7516.47 L-7764.05,7655.79 L-7466.74,7675.76 L-7185.06,7549.89 L-7014.7,7300.11 L-6989.75,6949.63 L-7270.78,6592.21 L-7768.39,6536.43 L-8048.34,6115.86 L-7782.72,6115.86 L-7756.68,6115.86 L-7715.44,6090.9 L-7709.8,6045.55 L-7738.01,6011.69 L-8304.85,6006.49 L-8330.89,6006.49 L-8372.13,6031.44 L-8377.77,6077.67 L-8349.56,6110.87 L-8157.72,6115.86 L-8157.72,7526.02 L-8304.85,7526.02 L-8330.89,7526.02 L-8372.13,7552.06 L-8377.77,7597.63 L-8349.56,7631.49 L-8048.34,7636.7 M-7100.42,7106.75 L-7100.42,7232.62 L-7329.37,7520.16 L-7705.89,7565.08 L-8002.34,7339.39 L-8048.34,6980.88 L-7818.31,6692.25 L-7442,6647.11 L-7146.43,6871.72 L-7100.42,7106.75"/>
</g>

<g fill="none" stroke="#000000" stroke-opacity="1" stroke-width="1" stroke-linecap="square" stroke-linejoin="bevel" transform="matrix(0.999903,0,0,-0.999903,14776.8,8067.6)"
font-family="MS Shell Dlg 2" font-size="10.3125" font-weight="400" font-style="normal" 
>
</g>

<g fill="none" stroke="#000000" stroke-opacity="1" stroke-width="1" stroke-linecap="square" stroke-linejoin="bevel" transform="matrix(0.999903,0,0,-0.999903,14776.8,8067.6)"
font-family="MS Shell Dlg 2" font-size="10.3125" font-weight="400" font-style="normal" 
>
</g>

<g fill="#ae5151" fill-opacity="0.2" stroke="#333333" stroke-opacity="1" stroke-width="1" stroke-linecap="round" stroke-linejoin="round" transform="matrix(0.999903,0,0,-0.999903,14776.8,8067.6)"
font-family="MS Shell Dlg 2" font-size="10.3125" font-weight="400" font-style="normal" 
>
<path vector-effect="non-scaling-stroke" fill-rule="evenodd" d="M-8861.88,6509.09 L-8861.88,6669.25 L-9011.19,6533.83 L-9453.03,6466.12 L-9661.8,6629.75 L-9697.82,7526.02 L-9844.96,7526.02 L-9871,7526.02 L-9912.23,7552.06 L-9917.87,7597.63 L-9889.66,7631.49 L-9588.45,7636.7 L-9588.45,6820.29 L-9588.45,6749.11 L-9475.6,6598.5 L-9173.52,6575.5 L-8861.88,7526.02 L-9063.71,7526.02 L-9089.75,7526.02 L-9130.98,7552.06 L-9136.62,7597.63 L-9108.41,7631.49 L-8752.51,7636.7 L-8752.51,6618.47 L-8660.06,6618.47 L-8634.02,6618.47 L-8592.79,6593.51 L-8587.14,6548.15 L-8615.35,6514.3 L-8861.88,6509.09"/>
</g>

<g fill="none" stroke="#000000" stroke-opacity="1" stroke-width="1" stroke-linecap="square" stroke-linejoin="bevel" transform="matrix(0.999903,0,0,-0.999903,14776.8,8067.6)"
font-family="MS Shell Dlg 2" font-size="10.3125" font-weight="400" font-style="normal" 
>
</g>

<g fill="none" stroke="#000000" stroke-opacity="1" stroke-width="1" stroke-linecap="square" stroke-linejoin="bevel" transform="matrix(0.999903,0,0,-0.999903,14776.8,8067.6)"
font-family="MS Shell Dlg 2" font-size="10.3125" font-weight="400" font-style="normal" 
>
</g>

<g fill="#ae5151" fill-opacity="0.2" stroke="#333333" stroke-opacity="1" stroke-width="1" stroke-linecap="round" stroke-linejoin="round" transform="matrix(0.999903,0,0,-0.999903,14776.8,8067.6)"
font-family="MS Shell Dlg 2" font-size="10.3125" font-weight="400" font-style="normal" 
>
<path vector-effect="non-scaling-stroke" fill-rule="evenodd" d="M-11824.9,7070.29 L-11824.9,6903.62 L-12123.3,6525.15 L-12605.7,6466.12 L-12988.1,6762.35 L-13047.6,7236.96 L-12750.3,7616.51 L-12267.2,7675.76 L-11884.6,7380.62 L-11824.9,7070.29 M-11935.6,7070.29 L-11935.6,7207.44 L-12179.7,7516.9 L-12575.8,7565.08 L-12889.4,7323.11 L-12938.2,6934.87 L-12694,6624.11 L-12298,6575.5 L-11984.4,6817.47 L-11935.6,7070.29"/>
</g>

<g fill="none" stroke="#000000" stroke-opacity="1" stroke-width="1" stroke-linecap="square" stroke-linejoin="bevel" transform="matrix(0.999903,0,0,-0.999903,14776.8,8067.6)"
font-family="MS Shell Dlg 2" font-size="10.3125" font-weight="400" font-style="normal" 
>
</g>

<g fill="none" stroke="#000000" stroke-opacity="1" stroke-width="1" stroke-linecap="square" stroke-linejoin="bevel" transform="matrix(1,0,0,-1,0,2062.2)"
font-family="MS Shell Dlg 2" font-size="10.3125" font-weight="400" font-style="normal" 
>
</g>
</g>
</svg>
