<?xml version="1.0" encoding="UTF-8" standalone="no"?>
<svg width="3789.68mm" height="807.438mm"
 xmlns="http://www.w3.org/2000/svg" xmlns:xlink="http://www.w3.org/1999/xlink"  version="1.2" baseProfile="tiny">
<title>SVG Generator Example Drawing</title>
<desc>An SVG drawing created by the SVG Generator</desc>
<defs>
</defs>
<g fill="none" stroke="black" stroke-width="1" fill-rule="evenodd" stroke-linecap="square" stroke-linejoin="bevel" >

<g fill="none" stroke="#000000" stroke-opacity="1" stroke-width="1" stroke-linecap="square" stroke-linejoin="bevel" transform="matrix(1,0,0,-1,0,2861.93)"
font-family="MS Shell Dlg 2" font-size="10.3125" font-weight="400" font-style="normal" 
>
</g>

<g fill="none" stroke="#000000" stroke-opacity="1" stroke-width="1" stroke-linecap="square" stroke-linejoin="bevel" transform="matrix(1,0,0,-1,0,2861.93)"
font-family="MS Shell Dlg 2" font-size="10.3125" font-weight="400" font-style="normal" 
>
</g>

<g fill="none" stroke="#000000" stroke-opacity="1" stroke-width="1" stroke-linecap="square" stroke-linejoin="bevel" transform="matrix(0.999676,0,0,-0.999676,15172.6,8466.1)"
font-family="MS Shell Dlg 2" font-size="10.3125" font-weight="400" font-style="normal" 
>
</g>

<g fill="#ffff00" fill-opacity="0.2" stroke="#333333" stroke-opacity="1" stroke-width="1" stroke-linecap="round" stroke-linejoin="round" transform="matrix(0.999676,0,0,-0.999676,15172.6,8466.1)"
font-family="MS Shell Dlg 2" font-size="10.3125" font-weight="400" font-style="normal" 
>
<path vector-effect="non-scaling-stroke" fill-rule="evenodd" d="M-15177,5606.49 L-1749.38,5606.49 L-1749.38,8467.41 L-15177,8467.41 L-15177,5606.49"/>
</g>

<g fill="none" stroke="#000000" stroke-opacity="1" stroke-width="1" stroke-linecap="square" stroke-linejoin="bevel" transform="matrix(0.999676,0,0,-0.999676,15172.6,8466.1)"
font-family="MS Shell Dlg 2" font-size="10.3125" font-weight="400" font-style="normal" 
>
</g>

<g fill="none" stroke="#000000" stroke-opacity="1" stroke-width="1" stroke-linecap="square" stroke-linejoin="bevel" transform="matrix(0.999676,0,0,-0.999676,15172.6,8466.1)"
font-family="MS Shell Dlg 2" font-size="10.3125" font-weight="400" font-style="normal" 
>
</g>

<g fill="#ae5151" fill-opacity="0.2" stroke="#333333" stroke-opacity="1" stroke-width="1" stroke-linecap="round" stroke-linejoin="round" transform="matrix(0.999676,0,0,-0.999676,15172.6,8466.1)"
font-family="MS Shell Dlg 2" font-size="10.3125" font-weight="400" font-style="normal" 
>
<path vector-effect="non-scaling-stroke" fill-rule="evenodd" d="M-11935.6,7070.29 L-11984.4,6817.47 L-12298,6575.5 L-12694,6624.11 L-12938.2,6934.87 L-12889.4,7323.11 L-12575.8,7565.08 L-12179.7,7516.9 L-11935.6,7207.44 L-11935.6,7070.29"/>
</g>

<g fill="none" stroke="#000000" stroke-opacity="1" stroke-width="1" stroke-linecap="square" stroke-linejoin="bevel" transform="matrix(0.999676,0,0,-0.999676,15172.6,8466.1)"
font-family="MS Shell Dlg 2" font-size="10.3125" font-weight="400" font-style="normal" 
>
</g>

<g fill="none" stroke="#000000" stroke-opacity="1" stroke-width="1" stroke-linecap="square" stroke-linejoin="bevel" transform="matrix(0.999676,0,0,-0.999676,15172.6,8466.1)"
font-family="MS Shell Dlg 2" font-size="10.3125" font-weight="400" font-style="normal" 
>
</g>

<g fill="#ae5151" fill-opacity="0.2" stroke="#333333" stroke-opacity="1" stroke-width="1" stroke-linecap="round" stroke-linejoin="round" transform="matrix(0.999676,0,0,-0.999676,15172.6,8466.1)"
font-family="MS Shell Dlg 2" font-size="10.3125" font-weight="400" font-style="normal" 
>
<path vector-effect="non-scaling-stroke" fill-rule="evenodd" d="M-13500.4,7106.75 L-13546.4,6871.72 L-13842,6647.11 L-14218.3,6692.25 L-14448.3,6980.88 L-14402.3,7339.39 L-14105.9,7565.08 L-13729.4,7520.16 L-13500.4,7232.62 L-13500.4,7106.75"/>
</g>

<g fill="none" stroke="#000000" stroke-opacity="1" stroke-width="1" stroke-linecap="square" stroke-linejoin="bevel" transform="matrix(0.999676,0,0,-0.999676,15172.6,8466.1)"
font-family="MS Shell Dlg 2" font-size="10.3125" font-weight="400" font-style="normal" 
>
</g>

<g fill="none" stroke="#000000" stroke-opacity="1" stroke-width="1" stroke-linecap="square" stroke-linejoin="bevel" transform="matrix(0.999676,0,0,-0.999676,15172.6,8466.1)"
font-family="MS Shell Dlg 2" font-size="10.3125" font-weight="400" font-style="normal" 
>
</g>

<g fill="#ae5151" fill-opacity="0.2" stroke="#333333" stroke-opacity="1" stroke-width="1" stroke-linecap="round" stroke-linejoin="round" transform="matrix(0.999676,0,0,-0.999676,15172.6,8466.1)"
font-family="MS Shell Dlg 2" font-size="10.3125" font-weight="400" font-style="normal" 
>
<path vector-effect="non-scaling-stroke" fill-rule="evenodd" d="M-10300.4,7106.75 L-10346.4,6871.72 L-10642,6647.11 L-11018.3,6692.25 L-11248.3,6980.88 L-11202.3,7339.39 L-10905.9,7565.08 L-10529.4,7520.16 L-10300.4,7232.62 L-10300.4,7106.75"/>
</g>

<g fill="none" stroke="#000000" stroke-opacity="1" stroke-width="1" stroke-linecap="square" stroke-linejoin="bevel" transform="matrix(0.999676,0,0,-0.999676,15172.6,8466.1)"
font-family="MS Shell Dlg 2" font-size="10.3125" font-weight="400" font-style="normal" 
>
</g>

<g fill="none" stroke="#000000" stroke-opacity="1" stroke-width="1" stroke-linecap="square" stroke-linejoin="bevel" transform="matrix(0.999676,0,0,-0.999676,15172.6,8466.1)"
font-family="MS Shell Dlg 2" font-size="10.3125" font-weight="400" font-style="normal" 
>
</g>

<g fill="#ae5151" fill-opacity="0.2" stroke="#333333" stroke-opacity="1" stroke-width="1" stroke-linecap="round" stroke-linejoin="round" transform="matrix(0.999676,0,0,-0.999676,15172.6,8466.1)"
font-family="MS Shell Dlg 2" font-size="10.3125" font-weight="400" font-style="normal" 
>
<path vector-effect="non-scaling-stroke" fill-rule="evenodd" d="M-15177,5606.49 L-15177,8467.41 L-1749.38,8467.41 L-1749.38,5606.49 L-15177,5606.49 M-14448.3,7636.7 L-14749.6,7631.49 L-14777.8,7597.63 L-14772.1,7552.06 L-14730.9,7526.02 L-14704.9,7526.02 L-14557.7,7526.02 L-14557.7,6115.86 L-14749.6,6110.87 L-14777.8,6077.67 L-14772.1,6031.44 L-14730.9,6006.49 L-14704.9,6006.49 L-14138,6011.69 L-14109.8,6045.55 L-14115.4,6090.9 L-14156.7,6115.86 L-14182.7,6115.86 L-14448.3,6115.86 L-14168.4,6536.43 L-13670.8,6592.21 L-13389.7,6949.63 L-13414.7,7300.11 L-13585.1,7549.89 L-13866.7,7675.76 L-14164.1,7655.79 L-14383.2,7516.47 L-14448.3,7437.48 L-14448.3,7636.7 M-5555.11,7882.79 L-5840.7,8067.69 L-6247.17,8037.52 L-6526.68,7830.49 L-6671,7495.64 L-6671,7388 L-6660.15,7020.59 L-6576.16,6826.15 L-6407.11,6624.98 L-6273.86,6535.13 L-6049.47,6466.12 L-5789.27,6486.3 L-5531.24,6627.15 L-5404.07,6778.19 L-5408.84,6825.06 L-5440.53,6848.94 L-5490.88,6839.82 L-5646.91,6677.49 L-5879.33,6575.5 L-6266.48,6635.61 L-6561.62,7017.77 L-6561.62,7180.97 L-6549.47,7517.34 L-6445.74,7735.65 L-6311.19,7875.41 L-6101.55,7958.31 L-5774.3,7919.68 L-5559.45,7721.33 L-5547.52,7608.05 L-5515.18,7582.01 L-5470.69,7587.65 L-5445.74,7629.32 L-5445.74,7656.23 L-5450.73,8004.32 L-5483.93,8032.53 L-5530.16,8026.89 L-5555.11,7985.66 L-5555.11,7959.61 L-5555.11,7882.79 M-4076.21,7018.21 L-3926.47,6618.47 L-4180.81,6613.47 L-4209.02,6580.27 L-4203.38,6535.13 L-4161.71,6509.09 L-4134.8,6509.09 L-3682.54,6514.3 L-3654.33,6548.15 L-3659.97,6593.51 L-3701.21,6618.47 L-3727.25,6618.47 L-3811.88,6618.47 L-4345.74,8032.53 L-4941.22,8027.54 L-4969.44,7994.34 L-4963.79,7948.11 L-4922.56,7923.16 L-4896.52,7923.16 L-4573.6,7923.16 L-5056.68,6618.47 L-5186.02,6613.47 L-5214.23,6580.27 L-5208.59,6535.13 L-5167.35,6509.09 L-5141.31,6509.09 L-4687.75,6514.3 L-4659.54,6548.15 L-4665.18,6593.51 L-4706.42,6618.47 L-4732.46,6618.47 L-4942.09,6618.47 L-4794.96,7018.21 L-4076.21,7018.21 M-3265.27,6618.47 L-3402.42,6613.47 L-3430.63,6580.27 L-3424.99,6535.13 L-3383.76,6509.09 L-3357.72,6509.09 L-2556.94,6537.74 L-2273.08,6764.73 L-2149.38,7083.31 L-2149.38,7195.29 L-2161.97,7516.47 L-2274.82,7762.56 L-2441.27,7937.04 L-2677.16,8032.53 L-2769.18,8032.53 L-3402.42,8027.54 L-3430.63,7994.34 L-3424.99,7948.11 L-3383.76,7923.16 L-3357.72,7923.16 L-3265.27,7923.16 L-3265.27,6618.47 M-11248.3,7636.7 L-11549.6,7631.49 L-11577.8,7597.63 L-11572.1,7552.06 L-11530.9,7526.02 L-11504.9,7526.02 L-11357.7,7526.02 L-11357.7,6115.86 L-11549.6,6110.87 L-11577.8,6077.67 L-11572.1,6031.44 L-11530.9,6006.49 L-11504.9,6006.49 L-10938,6011.69 L-10909.8,6045.55 L-10915.4,6090.9 L-10956.7,6115.86 L-10982.7,6115.86 L-11248.3,6115.86 L-10968.4,6536.43 L-10470.8,6592.21 L-10189.7,6949.63 L-10214.7,7300.11 L-10385.1,7549.89 L-10666.7,7675.76 L-10964.1,7655.79 L-11183.2,7516.47 L-11248.3,7437.48 L-11248.3,7636.7 M-8048.34,7636.7 L-8349.56,7631.49 L-8377.77,7597.63 L-8372.13,7552.06 L-8330.89,7526.02 L-8304.85,7526.02 L-8157.72,7526.02 L-8157.72,6115.86 L-8349.56,6110.87 L-8377.77,6077.67 L-8372.13,6031.44 L-8330.89,6006.49 L-8304.85,6006.49 L-7738.01,6011.69 L-7709.8,6045.55 L-7715.44,6090.9 L-7756.68,6115.86 L-7782.72,6115.86 L-8048.34,6115.86 L-7768.39,6536.43 L-7270.78,6592.21 L-6989.75,6949.63 L-7014.7,7300.11 L-7185.06,7549.89 L-7466.74,7675.76 L-7764.05,7655.79 L-7983.24,7516.47 L-8048.34,7437.48 L-8048.34,7636.7 M-8861.88,6509.09 L-8615.35,6514.3 L-8587.14,6548.15 L-8592.79,6593.51 L-8634.02,6618.47 L-8660.06,6618.47 L-8752.51,6618.47 L-8752.51,7636.7 L-9108.41,7631.49 L-9136.62,7597.63 L-9130.98,7552.06 L-9089.75,7526.02 L-9063.71,7526.02 L-8861.88,7526.02 L-9173.52,6575.5 L-9475.6,6598.5 L-9588.45,6749.11 L-9588.45,6820.29 L-9588.45,7636.7 L-9889.66,7631.49 L-9917.87,7597.63 L-9912.23,7552.06 L-9871,7526.02 L-9844.96,7526.02 L-9697.82,7526.02 L-9661.8,6629.75 L-9453.03,6466.12 L-9011.19,6533.83 L-8861.88,6669.25 L-8861.88,6509.09 M-11824.9,7070.29 L-11884.6,7380.62 L-12267.2,7675.76 L-12750.3,7616.51 L-13047.6,7236.96 L-12988.1,6762.35 L-12605.7,6466.12 L-12123.3,6525.15 L-11824.9,6903.62 L-11824.9,7070.29"/>
</g>

<g fill="none" stroke="#000000" stroke-opacity="1" stroke-width="1" stroke-linecap="square" stroke-linejoin="bevel" transform="matrix(0.999676,0,0,-0.999676,15172.6,8466.1)"
font-family="MS Shell Dlg 2" font-size="10.3125" font-weight="400" font-style="normal" 
>
</g>

<g fill="none" stroke="#000000" stroke-opacity="1" stroke-width="1" stroke-linecap="square" stroke-linejoin="bevel" transform="matrix(0.999676,0,0,-0.999676,15172.6,8466.1)"
font-family="MS Shell Dlg 2" font-size="10.3125" font-weight="400" font-style="normal" 
>
</g>

<g fill="#ae5151" fill-opacity="0.2" stroke="#333333" stroke-opacity="1" stroke-width="1" stroke-linecap="round" stroke-linejoin="round" transform="matrix(0.999676,0,0,-0.999676,15172.6,8466.1)"
font-family="MS Shell Dlg 2" font-size="10.3125" font-weight="400" font-style="normal" 
>
<path vector-effect="non-scaling-stroke" fill-rule="evenodd" d="M-7100.42,7106.75 L-7146.43,6871.72 L-7442,6647.11 L-7818.31,6692.25 L-8048.34,6980.88 L-8002.34,7339.39 L-7705.89,7565.08 L-7329.37,7520.16 L-7100.42,7232.62 L-7100.42,7106.75"/>
</g>

<g fill="none" stroke="#000000" stroke-opacity="1" stroke-width="1" stroke-linecap="square" stroke-linejoin="bevel" transform="matrix(0.999676,0,0,-0.999676,15172.6,8466.1)"
font-family="MS Shell Dlg 2" font-size="10.3125" font-weight="400" font-style="normal" 
>
</g>

<g fill="none" stroke="#000000" stroke-opacity="1" stroke-width="1" stroke-linecap="square" stroke-linejoin="bevel" transform="matrix(0.999676,0,0,-0.999676,15172.6,8466.1)"
font-family="MS Shell Dlg 2" font-size="10.3125" font-weight="400" font-style="normal" 
>
</g>

<g fill="#ae5151" fill-opacity="0.2" stroke="#333333" stroke-opacity="1" stroke-width="1" stroke-linecap="round" stroke-linejoin="round" transform="matrix(0.999676,0,0,-0.999676,15172.6,8466.1)"
font-family="MS Shell Dlg 2" font-size="10.3125" font-weight="400" font-style="normal" 
>
<path vector-effect="non-scaling-stroke" fill-rule="evenodd" d="M-3155.89,6618.47 L-3155.89,7923.16 L-2622.91,7907.31 L-2455.37,7809.01 L-2322.56,7628.02 L-2258.76,7437.48 L-2258.76,7369.77 L-2278.94,7007.57 L-2420,6768.21 L-2666.74,6618.47 L-2758.76,6618.47 L-3155.89,6618.47"/>
</g>

<g fill="none" stroke="#000000" stroke-opacity="1" stroke-width="1" stroke-linecap="square" stroke-linejoin="bevel" transform="matrix(0.999676,0,0,-0.999676,15172.6,8466.1)"
font-family="MS Shell Dlg 2" font-size="10.3125" font-weight="400" font-style="normal" 
>
</g>

<g fill="none" stroke="#000000" stroke-opacity="1" stroke-width="1" stroke-linecap="square" stroke-linejoin="bevel" transform="matrix(0.999676,0,0,-0.999676,15172.6,8466.1)"
font-family="MS Shell Dlg 2" font-size="10.3125" font-weight="400" font-style="normal" 
>
</g>

<g fill="#ae5151" fill-opacity="0.2" stroke="#333333" stroke-opacity="1" stroke-width="1" stroke-linecap="round" stroke-linejoin="round" transform="matrix(0.999676,0,0,-0.999676,15172.6,8466.1)"
font-family="MS Shell Dlg 2" font-size="10.3125" font-weight="400" font-style="normal" 
>
<path vector-effect="non-scaling-stroke" fill-rule="evenodd" d="M-4117.87,7127.58 L-4753.29,7127.58 L-4460.32,7923.16 L-4419.96,7923.16 L-4117.87,7127.58"/>
</g>

<g fill="none" stroke="#000000" stroke-opacity="1" stroke-width="1" stroke-linecap="square" stroke-linejoin="bevel" transform="matrix(0.999676,0,0,-0.999676,15172.6,8466.1)"
font-family="MS Shell Dlg 2" font-size="10.3125" font-weight="400" font-style="normal" 
>
</g>

<g fill="none" stroke="#000000" stroke-opacity="1" stroke-width="1" stroke-linecap="square" stroke-linejoin="bevel" transform="matrix(0.999676,0,0,-0.999676,15172.6,8466.1)"
font-family="MS Shell Dlg 2" font-size="10.3125" font-weight="400" font-style="normal" 
>
</g>

<g fill="#333333" fill-opacity="0.2" stroke="#333333" stroke-opacity="1" stroke-width="1" stroke-linecap="round" stroke-linejoin="round" transform="matrix(0.999676,0,0,-0.999676,15172.6,8466.1)"
font-family="MS Shell Dlg 2" font-size="10.3125" font-weight="400" font-style="normal" 
>
<path vector-effect="non-scaling-stroke" fill-rule="evenodd" d="M-12035.6,7079.86 L-12075.4,6873.55 L-12326.6,6679.76 L-12640.9,6718.34 L-12833.8,6963.82 L-12795.3,7269.36 L-12547.1,7460.86 L-12232.7,7422.61 L-12035.6,7172.75 L-12035.6,7079.86"/>
</g>

<g fill="none" stroke="#000000" stroke-opacity="1" stroke-width="1" stroke-linecap="square" stroke-linejoin="bevel" transform="matrix(0.999676,0,0,-0.999676,15172.6,8466.1)"
font-family="MS Shell Dlg 2" font-size="10.3125" font-weight="400" font-style="normal" 
>
</g>

<g fill="none" stroke="#000000" stroke-opacity="1" stroke-width="1" stroke-linecap="square" stroke-linejoin="bevel" transform="matrix(0.999676,0,0,-0.999676,15172.6,8466.1)"
font-family="MS Shell Dlg 2" font-size="10.3125" font-weight="400" font-style="normal" 
>
</g>

<g fill="#333333" fill-opacity="0.2" stroke="#333333" stroke-opacity="1" stroke-width="1" stroke-linecap="round" stroke-linejoin="round" transform="matrix(0.999676,0,0,-0.999676,15172.6,8466.1)"
font-family="MS Shell Dlg 2" font-size="10.3125" font-weight="400" font-style="normal" 
>
<path vector-effect="non-scaling-stroke" fill-rule="evenodd" d="M-13600.4,7116.44 L-13637.3,6928.3 L-13870.3,6751.22 L-14165.7,6786.65 L-14343.8,7010.12 L-14308.5,7285.16 L-14077.5,7460.99 L-13782,7425.73 L-13600.4,7197.67 L-13600.4,7116.44"/>
</g>

<g fill="none" stroke="#000000" stroke-opacity="1" stroke-width="1" stroke-linecap="square" stroke-linejoin="bevel" transform="matrix(0.999676,0,0,-0.999676,15172.6,8466.1)"
font-family="MS Shell Dlg 2" font-size="10.3125" font-weight="400" font-style="normal" 
>
</g>

<g fill="none" stroke="#000000" stroke-opacity="1" stroke-width="1" stroke-linecap="square" stroke-linejoin="bevel" transform="matrix(0.999676,0,0,-0.999676,15172.6,8466.1)"
font-family="MS Shell Dlg 2" font-size="10.3125" font-weight="400" font-style="normal" 
>
</g>

<g fill="#333333" fill-opacity="0.2" stroke="#333333" stroke-opacity="1" stroke-width="1" stroke-linecap="round" stroke-linejoin="round" transform="matrix(0.999676,0,0,-0.999676,15172.6,8466.1)"
font-family="MS Shell Dlg 2" font-size="10.3125" font-weight="400" font-style="normal" 
>
<path vector-effect="non-scaling-stroke" fill-rule="evenodd" d="M-15177,5606.49 L-15177,8467.41 L-1749.38,8467.41 L-1749.38,5606.49 L-15177,5606.49 M-14450.1,7736.68 L-14751.3,7731.47 L-14792.8,7721.68 L-14826.4,7695.51 L-14854.6,7661.65 L-14873.7,7625.82 L-14877,7585.35 L-14871.4,7539.77 L-14856.6,7498.49 L-14825.5,7467.51 L-14784.3,7441.47 L-14730.9,7426.02 L-14657.7,7426.02 L-14657.7,6213.29 L-14752.2,6210.84 L-14792.7,6201.08 L-14825.8,6175.62 L-14854,6142.42 L-14873.6,6106.4 L-14877,6065.55 L-14871.4,6019.33 L-14856.1,5977.14 L-14823.9,5945.89 L-14782.7,5920.94 L-14730.9,5906.49 L-14704.9,5906.49 L-14703.9,5906.49 L-14137.1,5911.7 L-14095.2,5921.33 L-14061.2,5947.68 L-14033,5981.53 L-14013.8,6017.39 L-14010.6,6057.89 L-14016.2,6103.25 L-14031.5,6145.3 L-14063.7,6176.45 L-14104.9,6201.41 L-14156.7,6215.86 L-14261.7,6215.86 L-14111,6442.25 L-13659.6,6492.83 L-13622.1,6504.84 L-13592.2,6530.4 L-13311.1,6887.82 L-13294.1,6920.31 L-13290,6956.73 L-13315,7307.21 L-13332.1,7356.45 L-13502.4,7606.24 L-13544.3,7641.19 L-13825.9,7767.06 L-13873.4,7775.53 L-14170.8,7755.57 L-14217.7,7740.19 L-14352,7654.83 L-14356.1,7675.36 L-14378.2,7708.02 L-14411.3,7729.57 L-14450.1,7736.68 M-3365.27,6714.89 L-3406.06,6713.41 L-3446.05,6703.46 L-3478.63,6678.23 L-3506.84,6645.02 L-3526.46,6608.86 L-3529.86,6567.87 L-3524.22,6522.73 L-3509.4,6481.51 L-3478.39,6450.58 L-3437.16,6424.54 L-3383.76,6409.09 L-3357.72,6409.09 L-3354.14,6409.15 L-2553.36,6437.8 L-2522.16,6443.98 L-2494.48,6459.64 L-2210.63,6686.64 L-2179.86,6728.54 L-2056.16,7047.11 L-2049.38,7083.31 L-2049.38,7195.29 L-2049.46,7199.21 L-2062.05,7520.39 L-2071.07,7558.15 L-2183.92,7804.25 L-2202.46,7831.59 L-2368.91,8006.07 L-2403.75,8029.74 L-2639.64,8125.22 L-2677.16,8132.53 L-2769.18,8132.53 L-2769.96,8132.53 L-3403.21,8127.54 L-3444.76,8118.13 L-3478.63,8092.29 L-3506.84,8059.09 L-3526.42,8023.07 L-3529.9,7982.22 L-3524.26,7936 L-3508.97,7893.81 L-3476.77,7862.56 L-3435.54,7837.61 L-3383.76,7823.16 L-3365.27,7823.16 L-3365.27,6714.89 M-5632.02,8051.71 L-5786.36,8151.63 L-5815.94,8164.57 L-5848.1,8167.41 L-6254.57,8137.25 L-6306.69,8117.88 L-6586.2,7910.85 L-6618.52,7870.07 L-6762.83,7535.22 L-6771,7495.64 L-6771,7388 L-6770.96,7385.05 L-6760.1,7017.64 L-6751.95,6980.94 L-6667.97,6786.5 L-6652.72,6761.81 L-6483.67,6560.64 L-6463.02,6542.06 L-6329.77,6452.22 L-6303.26,6439.55 L-6078.87,6370.54 L-6041.74,6366.42 L-5781.54,6386.6 L-5741.36,6398.53 L-5483.33,6539.37 L-5454.74,6562.74 L-5327.57,6713.78 L-5308.51,6748.72 L-5304.58,6788.32 L-5309.36,6835.2 L-5321.73,6874.17 L-5348.67,6904.93 L-5380.35,6928.8 L-5417.41,6946.23 L-5458.34,6947.34 L-5508.69,6938.22 L-5538.13,6927.95 L-5562.97,6909.12 L-5705.26,6761.09 L-5892.81,6678.79 L-6211.72,6728.31 L-6461.62,7051.89 L-6461.62,7179.16 L-6450.28,7493.08 L-6362.4,7678.03 L-6254.22,7790.41 L-6088.23,7856.04 L-5818.27,7824.18 L-5654.96,7673.4 L-5646.97,7597.57 L-5635.33,7560.21 L-5610.24,7530.17 L-5577.91,7504.13 L-5542.43,7485.79 L-5502.6,7482.8 L-5458.11,7488.45 L-5416,7503.93 L-5384.9,7536.27 L-5359.95,7577.93 L-5345.74,7629.32 L-5345.74,7656.23 L-5345.75,7657.66 L-5350.74,8005.75 L-5360.27,8046.95 L-5385.98,8080.52 L-5419.18,8108.74 L-5455.2,8128.31 L-5496.05,8131.79 L-5542.27,8126.15 L-5584.45,8110.86 L-5615.71,8078.67 L-5632.02,8051.71 M-4145.53,6918.21 L-4069.67,6715.68 L-4182.77,6713.46 L-4223.68,6703.82 L-4257.01,6678.23 L-4285.22,6645.02 L-4304.84,6608.86 L-4308.25,6567.87 L-4302.6,6522.73 L-4287.66,6481.31 L-4256.38,6450.33 L-4214.71,6424.29 L-4161.71,6409.09 L-4134.8,6409.09 L-4133.65,6409.1 L-3681.39,6414.31 L-3639.61,6423.99 L-3605.72,6450.28 L-3577.51,6484.14 L-3558.38,6519.99 L-3555.1,6560.5 L-3560.74,6605.85 L-3576.06,6647.9 L-3608.19,6679.06 L-3649.43,6704.02 L-3701.21,6718.47 L-3742.75,6718.47 L-4252.18,8067.85 L-4273.74,8101.93 L-4307.01,8124.73 L-4346.58,8132.53 L-4942.06,8127.54 L-4983.59,8118.12 L-5017.43,8092.29 L-5045.64,8059.09 L-5065.22,8023.07 L-5068.7,7982.22 L-5063.06,7936 L-5047.77,7893.81 L-5015.57,7862.56 L-4974.34,7837.61 L-4922.56,7823.16 L-4717.26,7823.16 L-5127.27,6715.82 L-5189.87,6713.4 L-5229.74,6703.41 L-5262.22,6678.23 L-5290.43,6645.02 L-5310.05,6608.86 L-5313.46,6567.87 L-5307.81,6522.73 L-5293,6481.51 L-5261.99,6450.58 L-5220.75,6424.54 L-5167.35,6409.09 L-5141.31,6409.09 L-5140.16,6409.1 L-4686.6,6414.31 L-4644.82,6423.99 L-4610.93,6450.28 L-4582.72,6484.14 L-4563.59,6519.99 L-4560.3,6560.5 L-4565.95,6605.85 L-4581.27,6647.9 L-4613.4,6679.06 L-4654.63,6704.02 L-4706.42,6718.47 L-4798.73,6718.47 L-4725.21,6918.21 L-4145.53,6918.21 M-8050.07,7736.68 L-8351.29,7731.47 L-8392.75,7721.68 L-8426.38,7695.51 L-8454.59,7661.65 L-8473.71,7625.82 L-8477.01,7585.35 L-8471.37,7539.77 L-8456.57,7498.49 L-8425.53,7467.51 L-8384.29,7441.47 L-8330.89,7426.02 L-8257.72,7426.02 L-8257.72,6213.29 L-8352.16,6210.84 L-8392.72,6201.08 L-8425.76,6175.62 L-8453.98,6142.42 L-8473.55,6106.4 L-8477.03,6065.55 L-8471.39,6019.33 L-8456.1,5977.14 L-8423.91,5945.89 L-8382.68,5920.94 L-8330.89,5906.49 L-8304.85,5906.49 L-8303.93,5906.49 L-7737.09,5911.7 L-7695.18,5921.33 L-7661.19,5947.68 L-7632.98,5981.53 L-7613.85,6017.39 L-7610.57,6057.89 L-7616.21,6103.25 L-7631.53,6145.3 L-7663.66,6176.45 L-7704.9,6201.41 L-7756.68,6215.86 L-7861.65,6215.86 L-7710.96,6442.25 L-7259.64,6492.83 L-7222.13,6504.84 L-7192.17,6530.4 L-6911.14,6887.82 L-6894.14,6920.31 L-6890,6956.73 L-6914.96,7307.21 L-6932.09,7356.45 L-7102.44,7606.24 L-7144.26,7641.19 L-7425.95,7767.06 L-7473.44,7775.53 L-7770.75,7755.57 L-7817.7,7740.19 L-7951.99,7654.83 L-7956.12,7675.36 L-7978.25,7708.02 L-8011.28,7729.57 L-8050.07,7736.68 M-11250.1,7736.68 L-11551.3,7731.47 L-11592.8,7721.68 L-11626.4,7695.51 L-11654.6,7661.65 L-11673.7,7625.82 L-11677,7585.35 L-11671.4,7539.77 L-11656.6,7498.49 L-11625.5,7467.51 L-11584.3,7441.47 L-11530.9,7426.02 L-11457.7,7426.02 L-11457.7,6213.29 L-11552.2,6210.84 L-11592.7,6201.08 L-11625.8,6175.62 L-11654,6142.42 L-11673.6,6106.4 L-11677,6065.55 L-11671.4,6019.33 L-11656.1,5977.14 L-11623.9,5945.89 L-11582.7,5920.94 L-11530.9,5906.49 L-11504.9,5906.49 L-11503.9,5906.49 L-10937.1,5911.7 L-10895.2,5921.33 L-10861.2,5947.68 L-10833,5981.53 L-10813.8,6017.39 L-10810.6,6057.89 L-10816.2,6103.25 L-10831.5,6145.3 L-10863.7,6176.45 L-10904.9,6201.41 L-10956.7,6215.86 L-11061.7,6215.86 L-10911,6442.25 L-10459.6,6492.83 L-10422.1,6504.84 L-10392.2,6530.4 L-10111.1,6887.82 L-10094.1,6920.31 L-10090,6956.73 L-10115,7307.21 L-10132.1,7356.45 L-10302.4,7606.24 L-10344.3,7641.19 L-10625.9,7767.06 L-10673.4,7775.53 L-10970.8,7755.57 L-11017.7,7740.19 L-11152,7654.83 L-11156.1,7675.36 L-11178.2,7708.02 L-11211.3,7729.57 L-11250.1,7736.68 M-8946.18,6458.73 L-8931.84,6437.64 L-8898.68,6416.11 L-8859.77,6409.11 L-8613.24,6414.32 L-8571.99,6424.19 L-8538.53,6450.28 L-8510.32,6484.14 L-8491.19,6519.99 L-8487.91,6560.5 L-8493.55,6605.85 L-8508.87,6647.9 L-8541.01,6679.06 L-8582.24,6704.02 L-8634.02,6718.47 L-8652.51,6718.47 L-8652.51,7636.7 L-8660.26,7675.3 L-8682.32,7707.92 L-8715.26,7729.5 L-8753.97,7736.69 L-9109.87,7731.48 L-9151.49,7721.73 L-9185.23,7695.51 L-9213.45,7661.65 L-9232.57,7625.82 L-9235.87,7585.35 L-9230.22,7539.77 L-9215.42,7498.49 L-9184.38,7467.51 L-9143.15,7441.47 L-9089.75,7426.02 L-8999.91,7426.02 L-9244.11,6681.16 L-9422.77,6694.77 L-9488.45,6782.42 L-9488.45,7636.7 L-9496.22,7675.36 L-9518.35,7708.02 L-9551.38,7729.57 L-9590.18,7736.68 L-9891.39,7731.47 L-9932.86,7721.68 L-9966.48,7695.51 L-9994.7,7661.65 L-10013.8,7625.82 L-10017.1,7585.35 L-10011.5,7539.77 L-9996.67,7498.49 L-9965.63,7467.51 L-9924.4,7441.47 L-9871,7426.02 L-9793.88,7426.02 L-9761.72,6625.73 L-9750.81,6584.19 L-9723.49,6551.05 L-9514.72,6387.42 L-9478.39,6369.39 L-9437.88,6367.28 L-8996.04,6434.98 L-8946.18,6458.73 M-11726.7,7089.17 L-11786.4,7399.5 L-11799.4,7433.05 L-11823.5,7459.8 L-12206.1,7754.94 L-12240.7,7772.2 L-12279.4,7775.02 L-12762.4,7715.77 L-12799.4,7703.58 L-12829,7678.18 L-13126.3,7298.62 L-13143.9,7263.62 L-13146.8,7224.53 L-13087.3,6749.92 L-13075,6712.82 L-13049.3,6683.29 L-12667,6387.07 L-12632.3,6369.71 L-12593.6,6366.86 L-12111.2,6425.89 L-12074.3,6438 L-12044.8,6463.24 L-11746.4,6841.71 L-11730.4,6870.86 L-11724.9,6903.62 L-11724.9,7070.29 L-11726.7,7089.17"/>
</g>

<g fill="none" stroke="#000000" stroke-opacity="1" stroke-width="1" stroke-linecap="square" stroke-linejoin="bevel" transform="matrix(0.999676,0,0,-0.999676,15172.6,8466.1)"
font-family="MS Shell Dlg 2" font-size="10.3125" font-weight="400" font-style="normal" 
>
</g>

<g fill="none" stroke="#000000" stroke-opacity="1" stroke-width="1" stroke-linecap="square" stroke-linejoin="bevel" transform="matrix(0.999676,0,0,-0.999676,15172.6,8466.1)"
font-family="MS Shell Dlg 2" font-size="10.3125" font-weight="400" font-style="normal" 
>
</g>

<g fill="#333333" fill-opacity="0.2" stroke="#333333" stroke-opacity="1" stroke-width="1" stroke-linecap="round" stroke-linejoin="round" transform="matrix(0.999676,0,0,-0.999676,15172.6,8466.1)"
font-family="MS Shell Dlg 2" font-size="10.3125" font-weight="400" font-style="normal" 
>
<path vector-effect="non-scaling-stroke" fill-rule="evenodd" d="M-7200.42,7116.44 L-7237.25,6928.3 L-7470.28,6751.22 L-7765.67,6786.65 L-7943.77,7010.12 L-7908.47,7285.16 L-7677.53,7460.99 L-7382.01,7425.73 L-7200.42,7197.67 L-7200.42,7116.44"/>
</g>

<g fill="none" stroke="#000000" stroke-opacity="1" stroke-width="1" stroke-linecap="square" stroke-linejoin="bevel" transform="matrix(0.999676,0,0,-0.999676,15172.6,8466.1)"
font-family="MS Shell Dlg 2" font-size="10.3125" font-weight="400" font-style="normal" 
>
</g>

<g fill="none" stroke="#000000" stroke-opacity="1" stroke-width="1" stroke-linecap="square" stroke-linejoin="bevel" transform="matrix(0.999676,0,0,-0.999676,15172.6,8466.1)"
font-family="MS Shell Dlg 2" font-size="10.3125" font-weight="400" font-style="normal" 
>
</g>

<g fill="#333333" fill-opacity="0.2" stroke="#333333" stroke-opacity="1" stroke-width="1" stroke-linecap="round" stroke-linejoin="round" transform="matrix(0.999676,0,0,-0.999676,15172.6,8466.1)"
font-family="MS Shell Dlg 2" font-size="10.3125" font-weight="400" font-style="normal" 
>
<path vector-effect="non-scaling-stroke" fill-rule="evenodd" d="M-10400.4,7116.44 L-10437.3,6928.3 L-10670.3,6751.22 L-10965.7,6786.65 L-11143.8,7010.12 L-11108.5,7285.16 L-10877.5,7460.99 L-10582,7425.73 L-10400.4,7197.67 L-10400.4,7116.44"/>
</g>

<g fill="none" stroke="#000000" stroke-opacity="1" stroke-width="1" stroke-linecap="square" stroke-linejoin="bevel" transform="matrix(0.999676,0,0,-0.999676,15172.6,8466.1)"
font-family="MS Shell Dlg 2" font-size="10.3125" font-weight="400" font-style="normal" 
>
</g>

<g fill="none" stroke="#000000" stroke-opacity="1" stroke-width="1" stroke-linecap="square" stroke-linejoin="bevel" transform="matrix(0.999676,0,0,-0.999676,15172.6,8466.1)"
font-family="MS Shell Dlg 2" font-size="10.3125" font-weight="400" font-style="normal" 
>
</g>

<g fill="#333333" fill-opacity="0.2" stroke="#333333" stroke-opacity="1" stroke-width="1" stroke-linecap="round" stroke-linejoin="round" transform="matrix(0.999676,0,0,-0.999676,15172.6,8466.1)"
font-family="MS Shell Dlg 2" font-size="10.3125" font-weight="400" font-style="normal" 
>
<path vector-effect="non-scaling-stroke" fill-rule="evenodd" d="M-3055.89,6718.47 L-3055.89,7820.14 L-2651.45,7808.12 L-2523.78,7733.2 L-2412.42,7581.45 L-2358.76,7421.18 L-2358.76,7372.55 L-2377.43,7037.4 L-2493.38,6840.65 L-2694.71,6718.47 L-3055.89,6718.47"/>
</g>

<g fill="none" stroke="#000000" stroke-opacity="1" stroke-width="1" stroke-linecap="square" stroke-linejoin="bevel" transform="matrix(0.999676,0,0,-0.999676,15172.6,8466.1)"
font-family="MS Shell Dlg 2" font-size="10.3125" font-weight="400" font-style="normal" 
>
</g>

<g fill="none" stroke="#000000" stroke-opacity="1" stroke-width="1" stroke-linecap="square" stroke-linejoin="bevel" transform="matrix(0.999676,0,0,-0.999676,15172.6,8466.1)"
font-family="MS Shell Dlg 2" font-size="10.3125" font-weight="400" font-style="normal" 
>
</g>

<g fill="#333333" fill-opacity="0.2" stroke="#333333" stroke-opacity="1" stroke-width="1" stroke-linecap="round" stroke-linejoin="round" transform="matrix(0.999676,0,0,-0.999676,15172.6,8466.1)"
font-family="MS Shell Dlg 2" font-size="10.3125" font-weight="400" font-style="normal" 
>
<path vector-effect="non-scaling-stroke" fill-rule="evenodd" d="M-4439.01,7691.64 L-4262.81,7227.58 L-4609.9,7227.58 L-4439.01,7691.64"/>
</g>

<g fill="none" stroke="#000000" stroke-opacity="1" stroke-width="1" stroke-linecap="square" stroke-linejoin="bevel" transform="matrix(0.999676,0,0,-0.999676,15172.6,8466.1)"
font-family="MS Shell Dlg 2" font-size="10.3125" font-weight="400" font-style="normal" 
>
</g>

<g fill="none" stroke="#000000" stroke-opacity="1" stroke-width="1" stroke-linecap="square" stroke-linejoin="bevel" transform="matrix(1,0,0,-1,0,2861.93)"
font-family="MS Shell Dlg 2" font-size="10.3125" font-weight="400" font-style="normal" 
>
</g>
</g>
</svg>
