<?xml version="1.0" encoding="UTF-8" standalone="no"?>
<!-- Created with Inkscape (http://www.inkscape.org/) -->

<svg
   xmlns:dc="http://purl.org/dc/elements/1.1/"
   xmlns:cc="http://creativecommons.org/ns#"
   xmlns:rdf="http://www.w3.org/1999/02/22-rdf-syntax-ns#"
   xmlns:svg="http://www.w3.org/2000/svg"
   xmlns="http://www.w3.org/2000/svg"
   xmlns:sodipodi="http://sodipodi.sourceforge.net/DTD/sodipodi-0.dtd"
   xmlns:inkscape="http://www.inkscape.org/namespaces/inkscape"
   width="463.85715"
   height="147.14285"
   id="svg2"
   version="1.1"
   inkscape:version="0.48.5 r10040"
   sodipodi:docname="drawing1.svg">
  <defs
     id="defs4" />
  <sodipodi:namedview
     id="base"
     pagecolor="#ffffff"
     bordercolor="#666666"
     borderopacity="1.0"
     inkscape:pageopacity="0.0"
     inkscape:pageshadow="2"
     inkscape:zoom="0.62811075"
     inkscape:cx="158.26152"
     inkscape:cy="-108.81891"
     inkscape:document-units="px"
     inkscape:current-layer="layer1"
     showgrid="false"
     inkscape:snap-bbox="true"
     inkscape:bbox-paths="true"
     inkscape:snap-bbox-edge-midpoints="true"
     inkscape:snap-bbox-midpoints="true"
     inkscape:bbox-nodes="true"
     inkscape:object-paths="true"
     inkscape:snap-intersection-paths="false"
     inkscape:object-nodes="false"
     inkscape:snap-smooth-nodes="false"
     inkscape:snap-midpoints="true"
     inkscape:window-width="1600"
     inkscape:window-height="848"
     inkscape:window-x="-8"
     inkscape:window-y="-8"
     inkscape:window-maximized="1"
     fit-margin-top="0"
     fit-margin-left="0"
     fit-margin-right="0"
     fit-margin-bottom="0" />
  <metadata
     id="metadata7">
    <rdf:RDF>
      <cc:Work
         rdf:about="">
        <dc:format>image/svg+xml</dc:format>
        <dc:type
           rdf:resource="http://purl.org/dc/dcmitype/StillImage" />
        <dc:title></dc:title>
      </cc:Work>
    </rdf:RDF>
  </metadata>
  <g
     inkscape:label="Layer 1"
     inkscape:groupmode="layer"
     id="layer1"
     transform="translate(-213.78572,-270.21933)">
    <rect
       style="color:#000000;fill:none;stroke:#000000;stroke-width:1;stroke-linecap:round;stroke-linejoin:round;stroke-miterlimit:4;stroke-opacity:1;stroke-dasharray:none;stroke-dashoffset:0;marker:none;visibility:visible;display:inline;overflow:visible;enable-background:accumulate"
       id="rect2985"
       width="462.85715"
       height="137.14285"
       x="214.28572"
       y="275.21933" />
    <path
       style="fill:none;stroke:#0000ff;stroke-width:1px;stroke-linecap:butt;stroke-linejoin:miter;stroke-opacity:1"
       d="M 511.42857,275.21933 380,412.36218"
       id="path3757"
       inkscape:connector-curvature="0"
       sodipodi:nodetypes="cc" />
    <path
       style="fill:none;stroke:#0000ff;stroke-width:1px;stroke-linecap:butt;stroke-linejoin:miter;stroke-opacity:1"
       d="M 511.42857,412.36218 380,275.21933"
       id="path3757-1"
       inkscape:connector-curvature="0"
       sodipodi:nodetypes="cc" />
    <path
       style="fill:none;stroke:#ff0000;stroke-width:1px;stroke-linecap:butt;stroke-linejoin:miter;stroke-opacity:1"
       d="m 445.71429,275.21933 0,137.14285"
       id="path3777"
       inkscape:connector-curvature="0"
       sodipodi:nodetypes="cc" />
    <path
       sodipodi:type="arc"
       style="color:#000000;fill:#000000;fill-opacity:1;stroke:none;stroke-width:2.73270082;marker:none;visibility:visible;display:inline;overflow:visible;enable-background:accumulate"
       id="path3779"
       sodipodi:cx="280.65823"
       sodipodi:cy="251.50952"
       sodipodi:rx="15.009562"
       sodipodi:ry="10.074911"
       d="m 295.6678,251.50952 c 0,5.56422 -6.72001,10.07491 -15.00957,10.07491 -8.28955,0 -15.00956,-4.51069 -15.00956,-10.07491 0,-5.56422 6.72001,-10.07491 15.00956,-10.07491 8.28956,0 15.00957,4.51069 15.00957,10.07491 z"
       transform="matrix(0.29980889,0,0,0.44665406,362.07046,231.45301)" />
    <path
       sodipodi:type="arc"
       style="color:#000000;fill:#000000;fill-opacity:1;stroke:none;stroke-width:2.73270082;marker:none;visibility:visible;display:inline;overflow:visible;enable-background:accumulate"
       id="path3779-7"
       sodipodi:cx="280.65823"
       sodipodi:cy="251.50952"
       sodipodi:rx="15.009562"
       sodipodi:ry="10.074911"
       d="m 295.6678,251.50952 c 0,5.56422 -6.72001,10.07491 -15.00957,10.07491 -8.28955,0 -15.00956,-4.51069 -15.00956,-10.07491 0,-5.56422 6.72001,-10.07491 15.00956,-10.07491 8.28956,0 15.00957,4.51069 15.00957,10.07491 z"
       transform="matrix(0.29980889,0,0,0.44665406,295.35617,162.38158)" />
    <path
       sodipodi:type="arc"
       style="color:#000000;fill:#000000;fill-opacity:1;stroke:none;stroke-width:2.73270082;marker:none;visibility:visible;display:inline;overflow:visible;enable-background:accumulate"
       id="path3779-4"
       sodipodi:cx="280.65823"
       sodipodi:cy="251.50952"
       sodipodi:rx="15.009562"
       sodipodi:ry="10.074911"
       d="m 295.6678,251.50952 c 0,5.56422 -6.72001,10.07491 -15.00957,10.07491 -8.28955,0 -15.00956,-4.51069 -15.00956,-10.07491 0,-5.56422 6.72001,-10.07491 15.00956,-10.07491 8.28956,0 15.00957,4.51069 15.00957,10.07491 z"
       transform="matrix(0.29980889,0,0,0.44665406,427.78474,162.38158)" />
    <path
       sodipodi:type="arc"
       style="color:#000000;fill:#000000;fill-opacity:1;stroke:none;stroke-width:2.73270082;marker:none;visibility:visible;display:inline;overflow:visible;enable-background:accumulate"
       id="path3779-0"
       sodipodi:cx="280.65823"
       sodipodi:cy="251.50952"
       sodipodi:rx="15.009562"
       sodipodi:ry="10.074911"
       d="m 295.6678,251.50952 c 0,5.56422 -6.72001,10.07491 -15.00957,10.07491 -8.28955,0 -15.00956,-4.51069 -15.00956,-10.07491 0,-5.56422 6.72001,-10.07491 15.00956,-10.07491 8.28956,0 15.00957,4.51069 15.00957,10.07491 z"
       transform="matrix(0.29980889,0,0,0.44665406,427.78474,300.52443)" />
    <path
       sodipodi:type="arc"
       style="color:#000000;fill:#000000;fill-opacity:1;stroke:none;stroke-width:2.73270082;marker:none;visibility:visible;display:inline;overflow:visible;enable-background:accumulate"
       id="path3779-9"
       sodipodi:cx="280.65823"
       sodipodi:cy="251.50952"
       sodipodi:rx="15.009562"
       sodipodi:ry="10.074911"
       d="m 295.6678,251.50952 c 0,5.56422 -6.72001,10.07491 -15.00957,10.07491 -8.28955,0 -15.00956,-4.51069 -15.00956,-10.07491 0,-5.56422 6.72001,-10.07491 15.00956,-10.07491 8.28956,0 15.00957,4.51069 15.00957,10.07491 z"
       transform="matrix(0.29980889,0,0,0.44665406,295.35617,300.52443)" />
    <path
       sodipodi:type="arc"
       style="color:#000000;fill:#000000;fill-opacity:1;stroke:none;stroke-width:2.73270082;marker:none;visibility:visible;display:inline;overflow:visible;enable-background:accumulate"
       id="path3779-48"
       sodipodi:cx="280.65823"
       sodipodi:cy="251.50952"
       sodipodi:rx="15.009562"
       sodipodi:ry="10.074911"
       d="m 295.6678,251.50952 c 0,5.56422 -6.72001,10.07491 -15.00957,10.07491 -8.28955,0 -15.00956,-4.51069 -15.00956,-10.07491 0,-5.56422 6.72001,-10.07491 15.00956,-10.07491 8.28956,0 15.00957,4.51069 15.00957,10.07491 z"
       transform="matrix(0.29980889,0,0,0.44665406,362.07046,162.38158)" />
    <path
       sodipodi:type="arc"
       style="color:#000000;fill:#000000;fill-opacity:1;stroke:none;stroke-width:2.73270082;marker:none;visibility:visible;display:inline;overflow:visible;enable-background:accumulate"
       id="path3779-8"
       sodipodi:cx="280.65823"
       sodipodi:cy="251.50952"
       sodipodi:rx="15.009562"
       sodipodi:ry="10.074911"
       d="m 295.6678,251.50952 c 0,5.56422 -6.72001,10.07491 -15.00957,10.07491 -8.28955,0 -15.00956,-4.51069 -15.00956,-10.07491 0,-5.56422 6.72001,-10.07491 15.00956,-10.07491 8.28956,0 15.00957,4.51069 15.00957,10.07491 z"
       transform="matrix(0.29980889,0,0,0.44665406,362.07046,300.52443)" />
  </g>
</svg>
