<svg width="1600" height="640" viewBox="0 0 1600 640" xmlns="http://www.w3.org/2000/svg" xmlns:xlink="http://www.w3.org/1999/xlink"><title>Untitled 2</title><desc>Created with Sketch.</desc><defs><path id="a" d="M1641.27292,7.57080078 C1642.34233,21.6895738 1640.19888,663.29037 1613.58398,663.273437 C1510.87631,663.202763 1315.46687,662.098239 1212.15989,662.073944 C1145.28982,662.05554 1078.89524,666.099466 1010.32237,666.107564 C941.919964,666.11419 870.99118,668.59149 799.728655,665.30511 C688.776155,660.189282 592.60512,663.133331 485.650326,662.844742 C452.087895,662.753454 419.031457,664.766214 384.785396,664.535049 C281.083673,663.838607 174.722793,661.781674 69.0078626,662.679098 C47.1694048,662.866092 -18.1360353,665.578975 -22.4692763,656.126214 C-25.995081,648.434435 -16.2365721,2.59851074 -8.32234377e-07,3 C16.2365705,3.40148926 36.7983353,2.28793215 53.1659643,2.10903644 C86.9580665,1.74682785 123.29449,-0.0605341123 147.675475,0.236889201 C287.580843,1.94265607 411.942167,2.3365211 554.451068,2.08326957 C622.153696,1.96326957 689.664335,-1.29439914 758.802405,2.05087693 C829.415393,5.46830024 898.250226,4.79394442 965.882877,4.7166438 C1033.64651,4.6378708 1100.19899,4.09234932 1164.32378,1.89480331 C1230.53176,-0.374153744 1297.8827,1.99271742 1365.71631,0.468791041 C1431.72512,-1.01685313 1534.16521,1.80662582 1599.99997,3.00000005 C1613.72998,3.24662582 1640.75437,0.7271198 1641.27292,7.57080078 Z"/></defs><g fill="none" fill-rule="evenodd"><g><g transform="matrix(1 0 0 -1 0 640)"><use fill="#000" xlink:href="#a"/><use xlink:href="#a"/></g></g></g></svg>