<?xml version="1.0" encoding="UTF-8" standalone="no"?>
<svg width="681px" height="5px" viewBox="0 0 681 5" version="1.1" xmlns="http://www.w3.org/2000/svg" xmlns:xlink="http://www.w3.org/1999/xlink" xmlns:sketch="http://www.bohemiancoding.com/sketch/ns">
    <!-- Generator: Sketch 3.0.4 (8053) - http://www.bohemiancoding.com/sketch -->
    <title>Slice 2</title>
    <desc>Created with Sketch.</desc>
    <defs></defs>
    <g id="Page-1" stroke="none" stroke-width="1" fill="none" fill-rule="evenodd" sketch:type="MSPage">
        <path d="M678.292222,4.29728892 C643.407314,4.35849641 606.738918,3.9800711 571.962773,4.11734263 C552.936897,4.19467597 533.911021,4.5760093 514.885144,4.56534263 C467.39066,4.5440093 419.896175,4.32534263 372.401691,4.29067597 C349.486392,4.27467597 326.571093,4.49334263 303.662814,4.61067597 C279.357433,4.7360093 255.059072,4.89067597 230.753691,4.9920093 C214.430753,5.05867597 198.100794,5.1200093 181.777856,5.07467597 C147.762959,4.9840093 113.748062,4.7360093 79.7331649,4.7120093 C55.1118557,4.6960093 30.4835258,4.94134263 5.85519588,5.0480093 C3.90346392,5.0560093 1.73764607,4.79734276 -0.214085891,4.71200943 C-0.115797231,3.43200943 -0.312374551,1.87467596 -0.214085891,0.594675958 C26.9697492,0.810675958 54.6625361,1.56534263 81.8463711,1.55467597 C105.232052,1.54667597 128.610711,0.973342632 151.996392,0.850675965 C177.544423,0.717342632 203.092454,0.816009299 228.640485,0.808009299 C247.343412,0.805342632 266.053361,0.805342632 284.756289,0.778675965 C311.511866,0.738675965 338.274464,0.610675965 365.030041,0.634675965 C397.310845,0.666675965 429.584629,0.930675965 461.858412,0.869342632 C478.005835,0.837342632 494.139216,0.186675965 510.29366,0.0346759654 C522.656969,-0.0826573679 535.04134,0.128009299 547.41167,0.218675965 C560.757866,0.320009299 574.104062,0.493342632 587.450258,0.554675965 C601.702113,0.618675965 615.96099,0.584009299 630.212845,0.594675965 C646.683216,0.608009299 664.913756,0.856009292 681.384128,0.869342625 C681.360925,1.18982287 681.202988,1.19317935 681.209045,1.55467594 C681.22315,2.39636228 681.438152,4.06912652 681.384128,4.81344748 C680.355117,4.81605316 679.32445,4.29547782 678.292222,4.29728892 Z" id="divide-3" fill="#000000" sketch:type="MSShapeGroup"></path>
    </g>
</svg>