<?xml version="1.0" encoding="UTF-8" standalone="no"?>
<svg width="3974.25mm" height="7880.49mm"
 xmlns="http://www.w3.org/2000/svg" xmlns:xlink="http://www.w3.org/1999/xlink"  version="1.2" baseProfile="tiny">
<title>SVG Generator Example Drawing</title>
<desc>An SVG drawing created by the SVG Generator</desc>
<defs>
</defs>
<g fill="none" stroke="black" stroke-width="1" fill-rule="evenodd" stroke-linecap="square" stroke-linejoin="bevel" >

<g fill="none" stroke="#000000" stroke-opacity="1" stroke-width="1" stroke-linecap="square" stroke-linejoin="bevel" transform="matrix(1,0,0,-1,0,27923.1)"
font-family="MS Shell Dlg 2" font-size="10.3125" font-weight="400" font-style="normal" 
>
</g>

<g fill="none" stroke="#000000" stroke-opacity="1" stroke-width="1" stroke-linecap="square" stroke-linejoin="bevel" transform="matrix(1,0,0,-1,0,27923.1)"
font-family="MS Shell Dlg 2" font-size="10.3125" font-weight="400" font-style="normal" 
>
</g>

<g fill="none" stroke="#000000" stroke-opacity="1" stroke-width="1" stroke-linecap="square" stroke-linejoin="bevel" transform="matrix(0.999992,0,0,-0.999992,14919.7,828)"
font-family="MS Shell Dlg 2" font-size="10.3125" font-weight="400" font-style="normal" 
>
</g>

<g fill="#333333" fill-opacity="0.2" stroke="#333333" stroke-opacity="1" stroke-width="1" stroke-linecap="round" stroke-linejoin="round" transform="matrix(0.999992,0,0,-0.999992,14919.7,828)"
font-family="MS Shell Dlg 2" font-size="10.3125" font-weight="400" font-style="normal" 
>
<path vector-effect="non-scaling-stroke" fill-rule="evenodd" d="M-6128.92,-25194.9 L-6128.78,-25195 L-6128.78,-27094.7 L-6128.92,-27094.9 L-9628.64,-27094.9 L-9628.78,-27094.7 L-9628.78,-25195 L-9628.64,-25194.9 L-8924.59,-25194.9 L-8924.59,-25099.9 L-8227.38,-25099.9 L-8227.38,-25194.9 L-7530.17,-25194.9 L-7530.17,-25099.9 L-6832.96,-25099.9 L-6832.96,-25194.9 L-6128.92,-25194.9"/>
</g>

<g fill="none" stroke="#000000" stroke-opacity="1" stroke-width="1" stroke-linecap="square" stroke-linejoin="bevel" transform="matrix(0.999992,0,0,-0.999992,14919.7,828)"
font-family="MS Shell Dlg 2" font-size="10.3125" font-weight="400" font-style="normal" 
>
</g>

<g fill="none" stroke="#000000" stroke-opacity="1" stroke-width="1" stroke-linecap="square" stroke-linejoin="bevel" transform="matrix(0.999992,0,0,-0.999992,14919.7,828)"
font-family="MS Shell Dlg 2" font-size="10.3125" font-weight="400" font-style="normal" 
>
</g>

<g fill="#333333" fill-opacity="0.2" stroke="#333333" stroke-opacity="1" stroke-width="1" stroke-linecap="round" stroke-linejoin="round" transform="matrix(0.999992,0,0,-0.999992,14919.7,828)"
font-family="MS Shell Dlg 2" font-size="10.3125" font-weight="400" font-style="normal" 
>
<path vector-effect="non-scaling-stroke" fill-rule="evenodd" d="M-9628.78,-20559.2 L-9628.81,-20559.1 L-12020.1,-18167.8 L-12020.1,-18167.6 L-11294.7,-17442.2 L-11361.9,-17375 L-10643.5,-16656.7 L-10576.3,-16723.8 L-9858,-16005.5 L-9925.17,-15938.3 L-9206.83,-15220 L-9139.66,-15287.2 L-8414.23,-14561.7 L-8414.03,-14561.7 L-8378.81,-14597 L-8378.74,-14597 L-7378.82,-14597 L-7378.75,-14597 L-7343.52,-14561.7 L-7343.32,-14561.7 L-6617.9,-15287.2 L-6550.72,-15220 L-5832.38,-15938.3 L-5899.56,-16005.5 L-5181.22,-16723.8 L-5114.04,-16656.7 L-4395.7,-17375 L-4462.88,-17442.2 L-3737.46,-18167.6 L-3737.46,-18167.8 L-6128.75,-20559.1 L-6128.78,-20559.2 L-6128.78,-24994.7 L-6128.78,-25089.9 L-6825.99,-25089.9 L-6825.99,-24994.9 L-8931.57,-24994.9 L-8931.57,-25089.9 L-9628.78,-25089.9 L-9628.78,-24989.9 L-9628.78,-20559.2"/>
</g>

<g fill="none" stroke="#000000" stroke-opacity="1" stroke-width="1" stroke-linecap="square" stroke-linejoin="bevel" transform="matrix(0.999992,0,0,-0.999992,14919.7,828)"
font-family="MS Shell Dlg 2" font-size="10.3125" font-weight="400" font-style="normal" 
>
</g>

<g fill="none" stroke="#000000" stroke-opacity="1" stroke-width="1" stroke-linecap="square" stroke-linejoin="bevel" transform="matrix(0.999992,0,0,-0.999992,14919.7,828)"
font-family="MS Shell Dlg 2" font-size="10.3125" font-weight="400" font-style="normal" 
>
</g>

<g fill="#333333" fill-opacity="0.2" stroke="#333333" stroke-opacity="1" stroke-width="1" stroke-linecap="round" stroke-linejoin="round" transform="matrix(0.999992,0,0,-0.999992,14919.7,828)"
font-family="MS Shell Dlg 2" font-size="10.3125" font-weight="400" font-style="normal" 
>
<path vector-effect="non-scaling-stroke" fill-rule="evenodd" d="M-12090.9,-17948.5 L-12090.9,-13985 L-12090.8,-13984.9 L-11386.7,-13984.9 L-11386.7,-13889.9 L-10689.5,-13889.9 L-10689.5,-13984.9 L-9992.3,-13984.9 L-9992.3,-13889.9 L-9295.09,-13889.9 L-9295.09,-13984.9 L-8591.05,-13984.9 L-8590.91,-13985 L-8590.91,-14384.8 L-8590.88,-14384.9 L-8555.65,-14420.1 L-8488.38,-14487.4 L-9206.72,-15205.7 L-9273.89,-15138.6 L-11443.3,-17307.9 L-11376.1,-17375.1 L-12094.4,-18093.5 L-12165.2,-18022.7 L-12090.9,-17948.5"/>
</g>

<g fill="none" stroke="#000000" stroke-opacity="1" stroke-width="1" stroke-linecap="square" stroke-linejoin="bevel" transform="matrix(0.999992,0,0,-0.999992,14919.7,828)"
font-family="MS Shell Dlg 2" font-size="10.3125" font-weight="400" font-style="normal" 
>
</g>

<g fill="none" stroke="#000000" stroke-opacity="1" stroke-width="1" stroke-linecap="square" stroke-linejoin="bevel" transform="matrix(0.999992,0,0,-0.999992,14919.7,828)"
font-family="MS Shell Dlg 2" font-size="10.3125" font-weight="400" font-style="normal" 
>
</g>

<g fill="#333333" fill-opacity="0.2" stroke="#333333" stroke-opacity="1" stroke-width="1" stroke-linecap="round" stroke-linejoin="round" transform="matrix(0.999992,0,0,-0.999992,14919.7,828)"
font-family="MS Shell Dlg 2" font-size="10.3125" font-weight="400" font-style="normal" 
>
<path vector-effect="non-scaling-stroke" fill-rule="evenodd" d="M-7166.67,-14384.9 L-7166.65,-14384.8 L-7166.65,-13985 L-7166.5,-13984.9 L-6462.46,-13984.9 L-6462.46,-13889.9 L-5765.25,-13889.9 L-5765.25,-13984.9 L-5068.04,-13984.9 L-5068.04,-13889.9 L-4370.83,-13889.9 L-4370.83,-13984.9 L-3666.79,-13984.9 L-3666.65,-13985 L-3666.65,-17948.5 L-3592.4,-18022.7 L-3663.11,-18093.5 L-4381.45,-17375.1 L-4314.27,-17307.9 L-6483.66,-15138.6 L-6550.84,-15205.7 L-7269.18,-14487.4 L-7198.46,-14416.7 L-7166.67,-14384.9"/>
</g>

<g fill="none" stroke="#000000" stroke-opacity="1" stroke-width="1" stroke-linecap="square" stroke-linejoin="bevel" transform="matrix(0.999992,0,0,-0.999992,14919.7,828)"
font-family="MS Shell Dlg 2" font-size="10.3125" font-weight="400" font-style="normal" 
>
</g>

<g fill="none" stroke="#000000" stroke-opacity="1" stroke-width="1" stroke-linecap="square" stroke-linejoin="bevel" transform="matrix(0.999992,0,0,-0.999992,14919.7,828)"
font-family="MS Shell Dlg 2" font-size="10.3125" font-weight="400" font-style="normal" 
>
</g>

<g fill="#333333" fill-opacity="0.2" stroke="#333333" stroke-opacity="1" stroke-width="1" stroke-linecap="round" stroke-linejoin="round" transform="matrix(0.999992,0,0,-0.999992,14919.7,828)"
font-family="MS Shell Dlg 2" font-size="10.3125" font-weight="400" font-style="normal" 
>
<path vector-effect="non-scaling-stroke" fill-rule="evenodd" d="M-7128.78,-2067.73 L-7128.78,827.131 L-7128.64,827.273 L-4128.92,827.273 L-4128.78,827.131 L-4128.78,-2072.59 L-4128.78,-2167.73 L-4726.39,-2167.73 L-4726.39,-2072.73 L-6531.17,-2072.73 L-6531.17,-2167.73 L-7128.78,-2167.73 L-7128.78,-2067.73"/>
</g>

<g fill="none" stroke="#000000" stroke-opacity="1" stroke-width="1" stroke-linecap="square" stroke-linejoin="bevel" transform="matrix(0.999992,0,0,-0.999992,14919.7,828)"
font-family="MS Shell Dlg 2" font-size="10.3125" font-weight="400" font-style="normal" 
>
</g>

<g fill="none" stroke="#000000" stroke-opacity="1" stroke-width="1" stroke-linecap="square" stroke-linejoin="bevel" transform="matrix(0.999992,0,0,-0.999992,14919.7,828)"
font-family="MS Shell Dlg 2" font-size="10.3125" font-weight="400" font-style="normal" 
>
</g>

<g fill="#333333" fill-opacity="0.2" stroke="#333333" stroke-opacity="1" stroke-width="1" stroke-linecap="round" stroke-linejoin="round" transform="matrix(0.999992,0,0,-0.999992,14919.7,828)"
font-family="MS Shell Dlg 2" font-size="10.3125" font-weight="400" font-style="normal" 
>
<path vector-effect="non-scaling-stroke" fill-rule="evenodd" d="M-11628.8,-2067.73 L-11628.8,827.131 L-11628.6,827.273 L-8628.92,827.273 L-8628.78,827.131 L-8628.78,-2072.59 L-8628.78,-2167.73 L-9226.39,-2167.73 L-9226.39,-2072.73 L-11031.2,-2072.73 L-11031.2,-2167.73 L-11628.8,-2167.73 L-11628.8,-2067.73"/>
</g>

<g fill="none" stroke="#000000" stroke-opacity="1" stroke-width="1" stroke-linecap="square" stroke-linejoin="bevel" transform="matrix(0.999992,0,0,-0.999992,14919.7,828)"
font-family="MS Shell Dlg 2" font-size="10.3125" font-weight="400" font-style="normal" 
>
</g>

<g fill="none" stroke="#000000" stroke-opacity="1" stroke-width="1" stroke-linecap="square" stroke-linejoin="bevel" transform="matrix(0.999992,0,0,-0.999992,14919.7,828)"
font-family="MS Shell Dlg 2" font-size="10.3125" font-weight="400" font-style="normal" 
>
</g>

<g fill="#333333" fill-opacity="0.2" stroke="#333333" stroke-opacity="1" stroke-width="1" stroke-linecap="round" stroke-linejoin="round" transform="matrix(0.999992,0,0,-0.999992,14919.7,828)"
font-family="MS Shell Dlg 2" font-size="10.3125" font-weight="400" font-style="normal" 
>
<path vector-effect="non-scaling-stroke" fill-rule="evenodd" d="M-14491.5,-7123.61 L-14212.3,-6844.34 L-14212.2,-6844.3 L-12907.3,-6844.3 L-12907.2,-6844.34 L-11278.8,-8472.7 L-11278.7,-8472.73 L-11128.9,-8472.73 L-11128.8,-8472.84 L-11121.2,-8510.98 L-11121.2,-8511.01 L-11099.5,-8543.42 L-11099.5,-8543.45 L-11067.1,-8565.1 L-11067,-8565.12 L-11028.8,-8572.73 L-11028.8,-8572.73 L-11028.8,-8477.73 L-10431.2,-8477.73 L-10431.2,-8572.73 L-8626.39,-8572.73 L-8626.39,-8477.73 L-8028.78,-8477.73 L-8028.78,-8572.73 L-8028.77,-8572.73 L-7990.53,-8565.12 L-7990.49,-8565.1 L-7958.08,-8543.45 L-7958.06,-8543.42 L-7936.4,-8511.01 L-7936.39,-8510.98 L-7928.8,-8472.84 L-7928.66,-8472.73 L-7828.89,-8472.73 L-7828.75,-8472.84 L-7821.17,-8510.98 L-7821.15,-8511.01 L-7799.5,-8543.42 L-7799.47,-8543.45 L-7767.06,-8565.1 L-7767.03,-8565.12 L-7728.79,-8572.73 L-7728.78,-8572.73 L-7728.78,-8477.73 L-7131.17,-8477.73 L-7131.17,-8572.73 L-5326.39,-8572.73 L-5326.39,-8477.73 L-4728.78,-8477.73 L-4728.78,-8572.73 L-4728.77,-8572.73 L-4690.53,-8565.12 L-4690.49,-8565.1 L-4658.08,-8543.45 L-4658.06,-8543.42 L-4636.4,-8511.01 L-4636.39,-8510.98 L-4628.8,-8472.84 L-4628.66,-8472.73 L-4478.82,-8472.73 L-4478.75,-8472.7 L-2850.39,-6844.34 L-2850.29,-6844.3 L-1545.39,-6844.3 L-1545.28,-6844.34 L-1262.58,-7127.04 L-1195.31,-7194.32 L-1679.56,-7678.57 L-1746.73,-7611.39 L-3209.17,-9073.83 L-3142,-9141.01 L-3626.25,-9625.26 L-3696.96,-9554.55 L-3728.75,-9522.76 L-3728.82,-9522.73 L-4028.68,-9522.73 L-4028.78,-9522.83 L-4028.78,-9572.59 L-4028.78,-9667.73 L-4795.71,-9667.73 L-4795.71,-9572.73 L-7111.84,-9572.73 L-7111.84,-9667.73 L-7878.78,-9667.73 L-8645.71,-9667.73 L-8645.71,-9572.73 L-10961.8,-9572.73 L-10961.8,-9667.73 L-11728.8,-9667.73 L-11728.8,-9567.73 L-11728.8,-9522.83 L-11728.9,-9522.73 L-12028.7,-9522.73 L-12028.8,-9522.76 L-12064,-9557.98 L-12131.3,-9625.26 L-12615.6,-9141.01 L-12548.4,-9073.83 L-14010.8,-7611.39 L-14078,-7678.57 L-14562.2,-7194.32 L-14491.5,-7123.61"/>
</g>

<g fill="none" stroke="#000000" stroke-opacity="1" stroke-width="1" stroke-linecap="square" stroke-linejoin="bevel" transform="matrix(0.999992,0,0,-0.999992,14919.7,828)"
font-family="MS Shell Dlg 2" font-size="10.3125" font-weight="400" font-style="normal" 
>
</g>

<g fill="none" stroke="#000000" stroke-opacity="1" stroke-width="1" stroke-linecap="square" stroke-linejoin="bevel" transform="matrix(0.999992,0,0,-0.999992,14919.7,828)"
font-family="MS Shell Dlg 2" font-size="10.3125" font-weight="400" font-style="normal" 
>
</g>

<g fill="#333333" fill-opacity="0.2" stroke="#333333" stroke-opacity="1" stroke-width="1" stroke-linecap="round" stroke-linejoin="round" transform="matrix(0.999992,0,0,-0.999992,14919.7,828)"
font-family="MS Shell Dlg 2" font-size="10.3125" font-weight="400" font-style="normal" 
>
<path vector-effect="non-scaling-stroke" fill-rule="evenodd" d="M-7719.1,-8372.73 L-7719.24,-8372.57 L-7138.14,-2271.02 L-7137.97,-2270.9 L-7128.79,-2272.73 L-7128.77,-2272.73 L-6525.19,-2272.73 L-6525.19,-2177.73 L-5927.58,-2177.73 L-5927.58,-2272.73 L-5329.97,-2272.73 L-5329.97,-2177.73 L-4732.36,-2177.73 L-4732.36,-2272.73 L-4138.46,-2272.73 L-4138.32,-2272.88 L-4719.42,-8374.43 L-4719.58,-8374.56 L-4728.77,-8372.73 L-4728.79,-8372.73 L-5332.36,-8372.73 L-5332.36,-8467.73 L-5929.97,-8467.73 L-5929.97,-8372.73 L-6527.58,-8372.73 L-6527.58,-8467.73 L-7125.19,-8467.73 L-7125.19,-8372.73 L-7719.1,-8372.73"/>
</g>

<g fill="none" stroke="#000000" stroke-opacity="1" stroke-width="1" stroke-linecap="square" stroke-linejoin="bevel" transform="matrix(0.999992,0,0,-0.999992,14919.7,828)"
font-family="MS Shell Dlg 2" font-size="10.3125" font-weight="400" font-style="normal" 
>
</g>

<g fill="none" stroke="#000000" stroke-opacity="1" stroke-width="1" stroke-linecap="square" stroke-linejoin="bevel" transform="matrix(0.999992,0,0,-0.999992,14919.7,828)"
font-family="MS Shell Dlg 2" font-size="10.3125" font-weight="400" font-style="normal" 
>
</g>

<g fill="#333333" fill-opacity="0.2" stroke="#333333" stroke-opacity="1" stroke-width="1" stroke-linecap="round" stroke-linejoin="round" transform="matrix(0.999992,0,0,-0.999992,14919.7,828)"
font-family="MS Shell Dlg 2" font-size="10.3125" font-weight="400" font-style="normal" 
>
<path vector-effect="non-scaling-stroke" fill-rule="evenodd" d="M-11038,-8374.56 L-11038.1,-8374.43 L-11619.2,-2272.88 L-11619.1,-2272.73 L-11025.2,-2272.73 L-11025.2,-2177.73 L-10427.6,-2177.73 L-10427.6,-2272.73 L-9829.97,-2272.73 L-9829.97,-2177.73 L-9232.36,-2177.73 L-9232.36,-2272.73 L-8628.79,-2272.73 L-8628.77,-2272.73 L-8619.58,-2270.9 L-8619.42,-2271.02 L-8038.32,-8372.57 L-8038.46,-8372.73 L-8632.36,-8372.73 L-8632.36,-8467.73 L-9229.97,-8467.73 L-9229.97,-8372.73 L-9827.58,-8372.73 L-9827.58,-8467.73 L-10425.2,-8467.73 L-10425.2,-8372.73 L-11028.8,-8372.73 L-11028.8,-8372.73 L-11038,-8374.56"/>
</g>

<g fill="none" stroke="#000000" stroke-opacity="1" stroke-width="1" stroke-linecap="square" stroke-linejoin="bevel" transform="matrix(0.999992,0,0,-0.999992,14919.7,828)"
font-family="MS Shell Dlg 2" font-size="10.3125" font-weight="400" font-style="normal" 
>
</g>

<g fill="none" stroke="#000000" stroke-opacity="1" stroke-width="1" stroke-linecap="square" stroke-linejoin="bevel" transform="matrix(0.999992,0,0,-0.999992,14919.7,828)"
font-family="MS Shell Dlg 2" font-size="10.3125" font-weight="400" font-style="normal" 
>
</g>

<g fill="#333333" fill-opacity="0.2" stroke="#333333" stroke-opacity="1" stroke-width="1" stroke-linecap="round" stroke-linejoin="round" transform="matrix(0.999992,0,0,-0.999992,14919.7,828)"
font-family="MS Shell Dlg 2" font-size="10.3125" font-weight="400" font-style="normal" 
>
<path vector-effect="non-scaling-stroke" fill-rule="evenodd" d="M-7166.65,-13384.9 L-7166.67,-13384.8 L-7201.9,-13349.6 L-7201.9,-13349.4 L-6528,-12675.5 L-6595.17,-12608.3 L-5927.84,-11941 L-5860.67,-12008.2 L-5193.34,-11340.8 L-5260.51,-11273.7 L-4593.18,-10606.3 L-4526,-10673.5 L-3852.1,-9999.6 L-3851.9,-9999.6 L-3816.67,-10034.8 L-3816.6,-10034.9 L-3766.79,-10034.9 L-3766.65,-10035 L-3766.65,-10739 L-3671.65,-10739 L-3671.65,-11436.3 L-3766.65,-11436.3 L-3766.65,-12133.5 L-3671.65,-12133.5 L-3671.65,-12830.7 L-3766.65,-12830.7 L-3766.65,-13534.8 L-3766.64,-13534.9 L-3759.04,-13573.1 L-3759.02,-13573.1 L-3737.37,-13605.6 L-3737.34,-13605.6 L-3704.93,-13627.2 L-3704.89,-13627.3 L-3666.76,-13634.8 L-3666.65,-13635 L-3666.65,-13784.7 L-3666.65,-13879.9 L-4363.86,-13879.9 L-4363.86,-13784.9 L-6469.43,-13784.9 L-6469.43,-13879.9 L-7166.65,-13879.9 L-7166.65,-13779.9 L-7166.65,-13384.9"/>
</g>

<g fill="none" stroke="#000000" stroke-opacity="1" stroke-width="1" stroke-linecap="square" stroke-linejoin="bevel" transform="matrix(0.999992,0,0,-0.999992,14919.7,828)"
font-family="MS Shell Dlg 2" font-size="10.3125" font-weight="400" font-style="normal" 
>
</g>

<g fill="none" stroke="#000000" stroke-opacity="1" stroke-width="1" stroke-linecap="square" stroke-linejoin="bevel" transform="matrix(0.999992,0,0,-0.999992,14919.7,828)"
font-family="MS Shell Dlg 2" font-size="10.3125" font-weight="400" font-style="normal" 
>
</g>

<g fill="#333333" fill-opacity="0.2" stroke="#333333" stroke-opacity="1" stroke-width="1" stroke-linecap="round" stroke-linejoin="round" transform="matrix(0.999992,0,0,-0.999992,14919.7,828)"
font-family="MS Shell Dlg 2" font-size="10.3125" font-weight="400" font-style="normal" 
>
<path vector-effect="non-scaling-stroke" fill-rule="evenodd" d="M-12090.9,-13779.9 L-12090.9,-13635 L-12090.8,-13634.8 L-12052.7,-13627.3 L-12052.6,-13627.2 L-12020.2,-13605.6 L-12020.2,-13605.6 L-11998.5,-13573.1 L-11998.5,-13573.1 L-11990.9,-13534.9 L-11990.9,-13534.9 L-12085.9,-13534.9 L-12085.9,-12837.6 L-11990.9,-12837.6 L-11990.9,-10732.1 L-12085.9,-10732.1 L-12085.9,-10034.9 L-11985.9,-10034.9 L-11941,-10034.9 L-11940.9,-10034.8 L-11905.7,-9999.6 L-11905.5,-9999.6 L-11231.5,-10673.5 L-11164.4,-10606.3 L-10497,-11273.7 L-10564.2,-11340.8 L-9896.89,-12008.2 L-9829.71,-11941 L-9162.38,-12608.3 L-9229.56,-12675.5 L-8555.65,-13349.4 L-8555.65,-13349.6 L-8590.88,-13384.8 L-8590.91,-13384.9 L-8590.91,-13784.7 L-8590.91,-13879.9 L-9288.12,-13879.9 L-9288.12,-13784.9 L-11393.7,-13784.9 L-11393.7,-13879.9 L-12090.9,-13879.9 L-12090.9,-13779.9"/>
</g>

<g fill="none" stroke="#000000" stroke-opacity="1" stroke-width="1" stroke-linecap="square" stroke-linejoin="bevel" transform="matrix(0.999992,0,0,-0.999992,14919.7,828)"
font-family="MS Shell Dlg 2" font-size="10.3125" font-weight="400" font-style="normal" 
>
</g>

<g fill="none" stroke="#000000" stroke-opacity="1" stroke-width="1" stroke-linecap="square" stroke-linejoin="bevel" transform="matrix(0.999992,0,0,-0.999992,14919.7,828)"
font-family="MS Shell Dlg 2" font-size="10.3125" font-weight="400" font-style="normal" 
>
</g>

<g fill="#333333" fill-opacity="0.2" stroke="#333333" stroke-opacity="1" stroke-width="1" stroke-linecap="round" stroke-linejoin="round" transform="matrix(0.999992,0,0,-0.999992,14919.7,828)"
font-family="MS Shell Dlg 2" font-size="10.3125" font-weight="400" font-style="normal" 
>
<path vector-effect="non-scaling-stroke" fill-rule="evenodd" d="M-11728.8,-9822.76 L-11728.8,-9822.69 L-11728.8,-9772.87 L-11728.6,-9772.73 L-10954.2,-9772.73 L-10954.2,-9677.73 L-10187.2,-9677.73 L-10187.2,-9772.73 L-9420.31,-9772.73 L-9420.31,-9677.73 L-8653.38,-9677.73 L-8653.38,-9772.73 L-7104.18,-9772.73 L-7104.18,-9677.73 L-6337.24,-9677.73 L-6337.24,-9772.73 L-5570.31,-9772.73 L-5570.31,-9677.73 L-4803.38,-9677.73 L-4803.38,-9772.73 L-4028.92,-9772.73 L-4028.78,-9772.87 L-4028.78,-9822.69 L-4028.75,-9822.76 L-3993.52,-9857.98 L-3926.25,-9925.26 L-4593.58,-10592.6 L-4660.75,-10525.4 L-6676.09,-12540.8 L-6608.92,-12607.9 L-7276.25,-13275.3 L-7346.96,-13204.5 L-7378.75,-13172.8 L-7378.82,-13172.7 L-8378.74,-13172.7 L-8378.81,-13172.8 L-8414.03,-13208 L-8481.31,-13275.3 L-9148.64,-12607.9 L-9081.46,-12540.8 L-11096.8,-10525.4 L-11164,-10592.6 L-11831.3,-9925.26 L-11760.6,-9854.55 L-11728.8,-9822.76 M-9138.78,-11972.7 L-9138.78,-11972.7 L-9138.02,-11976.5 L-9138,-11976.6 L-9135.86,-11979.8 L-9135.83,-11979.8 L-9132.62,-11982 L-9132.58,-11982 L-9128.79,-11982.7 L-9128.77,-11982.7 L-6628.79,-11982.7 L-6628.77,-11982.7 L-6624.97,-11982 L-6624.93,-11982 L-6621.72,-11979.8 L-6621.69,-11979.8 L-6619.55,-11976.6 L-6619.53,-11976.5 L-6618.78,-11972.7 L-6618.78,-11972.7 L-6618.78,-10597 L-6618.78,-10597 L-6619.53,-10593.2 L-6619.55,-10593.1 L-6621.69,-10589.9 L-6621.72,-10589.9 L-6624.93,-10587.8 L-6624.97,-10587.7 L-6628.76,-10587 L-6628.8,-10587 L-6632.58,-10587.7 L-6632.62,-10587.8 L-6635.83,-10589.9 L-6635.86,-10589.9 L-6638,-10593.1 L-6638.02,-10593.2 L-6638.78,-10597 L-6638.78,-10597 L-6638.78,-11962.6 L-6638.92,-11962.7 L-9118.64,-11962.7 L-9118.78,-11962.6 L-9118.78,-10597 L-9118.78,-10597 L-9119.53,-10593.2 L-9119.55,-10593.1 L-9121.69,-10589.9 L-9121.72,-10589.9 L-9124.93,-10587.8 L-9124.97,-10587.7 L-9128.76,-10587 L-9128.8,-10587 L-9132.58,-10587.7 L-9132.62,-10587.8 L-9135.83,-10589.9 L-9135.86,-10589.9 L-9138,-10593.1 L-9138.02,-10593.2 L-9138.78,-10597 L-9138.78,-10597 L-9138.78,-11972.7"/>
</g>

<g fill="none" stroke="#000000" stroke-opacity="1" stroke-width="1" stroke-linecap="square" stroke-linejoin="bevel" transform="matrix(0.999992,0,0,-0.999992,14919.7,828)"
font-family="MS Shell Dlg 2" font-size="10.3125" font-weight="400" font-style="normal" 
>
</g>

<g fill="none" stroke="#000000" stroke-opacity="1" stroke-width="1" stroke-linecap="square" stroke-linejoin="bevel" transform="matrix(0.999992,0,0,-0.999992,14919.7,828)"
font-family="MS Shell Dlg 2" font-size="10.3125" font-weight="400" font-style="normal" 
>
</g>

<g fill="#333333" fill-opacity="0.2" stroke="#333333" stroke-opacity="1" stroke-width="1" stroke-linecap="round" stroke-linejoin="round" transform="matrix(0.999992,0,0,-0.999992,14919.7,828)"
font-family="MS Shell Dlg 2" font-size="10.3125" font-weight="400" font-style="normal" 
>
<path vector-effect="non-scaling-stroke" fill-rule="evenodd" d="M-3551.9,-9699.6 L-3551.9,-9699.4 L-3062.91,-9210.41 L-3130.08,-9143.24 L-2645.83,-8658.98 L-2578.66,-8726.16 L-2094.41,-8241.91 L-2161.58,-8174.73 L-1677.33,-7690.48 L-1610.15,-7757.66 L-1121.16,-7268.66 L-1120.96,-7268.66 L-838.261,-7551.36 L-838.218,-7551.47 L-838.218,-11901.8 L-838.291,-11901.9 L-3561.65,-13474.2 L-3561.65,-13534.9 L-3661.65,-13534.9 L-3661.65,-12837.6 L-3566.65,-12837.6 L-3566.65,-10732.1 L-3661.65,-10732.1 L-3661.65,-10034.9 L-3561.65,-10034.9 L-3516.75,-10034.9 L-3516.65,-10034.8 L-3516.65,-9734.9 L-3516.67,-9734.83 L-3551.9,-9699.6"/>
</g>

<g fill="none" stroke="#000000" stroke-opacity="1" stroke-width="1" stroke-linecap="square" stroke-linejoin="bevel" transform="matrix(0.999992,0,0,-0.999992,14919.7,828)"
font-family="MS Shell Dlg 2" font-size="10.3125" font-weight="400" font-style="normal" 
>
</g>

<g fill="none" stroke="#000000" stroke-opacity="1" stroke-width="1" stroke-linecap="square" stroke-linejoin="bevel" transform="matrix(0.999992,0,0,-0.999992,14919.7,828)"
font-family="MS Shell Dlg 2" font-size="10.3125" font-weight="400" font-style="normal" 
>
</g>

<g fill="#333333" fill-opacity="0.2" stroke="#333333" stroke-opacity="1" stroke-width="1" stroke-linecap="round" stroke-linejoin="round" transform="matrix(0.999992,0,0,-0.999992,14919.7,828)"
font-family="MS Shell Dlg 2" font-size="10.3125" font-weight="400" font-style="normal" 
>
<path vector-effect="non-scaling-stroke" fill-rule="evenodd" d="M-12240.9,-10034.8 L-12240.8,-10034.9 L-12191.1,-10034.9 L-12190.9,-10035 L-12190.9,-10739 L-12095.9,-10739 L-12095.9,-11436.3 L-12190.9,-11436.3 L-12190.9,-12133.5 L-12095.9,-12133.5 L-12095.9,-12830.7 L-12190.9,-12830.7 L-12190.9,-13476.9 L-12191.1,-13477 L-14919.3,-11901.9 L-14919.3,-11901.8 L-14919.3,-7551.47 L-14919.3,-7551.36 L-14636.6,-7268.66 L-14636.4,-7268.66 L-14147.4,-7757.66 L-14080.2,-7690.48 L-13596,-8174.73 L-13663.1,-8241.91 L-13178.9,-8726.16 L-13111.7,-8658.98 L-12627.5,-9143.24 L-12694.6,-9210.41 L-12205.7,-9699.4 L-12205.7,-9699.6 L-12240.9,-9734.83 L-12240.9,-9734.9 L-12240.9,-10034.8"/>
</g>

<g fill="none" stroke="#000000" stroke-opacity="1" stroke-width="1" stroke-linecap="square" stroke-linejoin="bevel" transform="matrix(0.999992,0,0,-0.999992,14919.7,828)"
font-family="MS Shell Dlg 2" font-size="10.3125" font-weight="400" font-style="normal" 
>
</g>

<g fill="none" stroke="#000000" stroke-opacity="1" stroke-width="1" stroke-linecap="square" stroke-linejoin="bevel" transform="matrix(0.999992,0,0,-0.999992,14919.7,828)"
font-family="MS Shell Dlg 2" font-size="10.3125" font-weight="400" font-style="normal" 
>
</g>

<g fill="#ae5151" fill-opacity="0.2" stroke="#333333" stroke-opacity="1" stroke-width="1" stroke-linecap="round" stroke-linejoin="round" transform="matrix(0.999992,0,0,-0.999992,14919.7,828)"
font-family="MS Shell Dlg 2" font-size="10.3125" font-weight="400" font-style="normal" 
>
<path vector-effect="non-scaling-stroke" fill-rule="evenodd" d="M-6128.92,-25194.9 L-6128.78,-25195 L-6128.78,-27094.7 L-6128.92,-27094.9 L-9628.64,-27094.9 L-9628.78,-27094.7 L-9628.78,-25195 L-9628.64,-25194.9 L-8924.59,-25194.9 L-8924.59,-25099.9 L-8227.38,-25099.9 L-8227.38,-25194.9 L-7530.17,-25194.9 L-7530.17,-25099.9 L-6832.96,-25099.9 L-6832.96,-25194.9 L-6128.92,-25194.9"/>
</g>

<g fill="none" stroke="#000000" stroke-opacity="1" stroke-width="1" stroke-linecap="square" stroke-linejoin="bevel" transform="matrix(0.999992,0,0,-0.999992,14919.7,828)"
font-family="MS Shell Dlg 2" font-size="10.3125" font-weight="400" font-style="normal" 
>
</g>

<g fill="none" stroke="#000000" stroke-opacity="1" stroke-width="1" stroke-linecap="square" stroke-linejoin="bevel" transform="matrix(0.999992,0,0,-0.999992,14919.7,828)"
font-family="MS Shell Dlg 2" font-size="10.3125" font-weight="400" font-style="normal" 
>
</g>

<g fill="#ae5151" fill-opacity="0.2" stroke="#333333" stroke-opacity="1" stroke-width="1" stroke-linecap="round" stroke-linejoin="round" transform="matrix(0.999992,0,0,-0.999992,14919.7,828)"
font-family="MS Shell Dlg 2" font-size="10.3125" font-weight="400" font-style="normal" 
>
<path vector-effect="non-scaling-stroke" fill-rule="evenodd" d="M-9628.78,-20559.2 L-9628.81,-20559.1 L-12020.1,-18167.8 L-12020.1,-18167.6 L-11294.7,-17442.2 L-11361.9,-17375 L-10643.5,-16656.7 L-10576.3,-16723.8 L-9858,-16005.5 L-9925.17,-15938.3 L-9206.83,-15220 L-9139.66,-15287.2 L-8414.23,-14561.7 L-8414.03,-14561.7 L-8378.81,-14597 L-8378.74,-14597 L-7378.82,-14597 L-7378.75,-14597 L-7343.52,-14561.7 L-7343.32,-14561.7 L-6617.9,-15287.2 L-6550.72,-15220 L-5832.38,-15938.3 L-5899.56,-16005.5 L-5181.22,-16723.8 L-5114.04,-16656.7 L-4395.7,-17375 L-4462.88,-17442.2 L-3737.46,-18167.6 L-3737.46,-18167.8 L-6128.75,-20559.1 L-6128.78,-20559.2 L-6128.78,-24994.7 L-6128.78,-25089.9 L-6825.99,-25089.9 L-6825.99,-24994.9 L-8931.57,-24994.9 L-8931.57,-25089.9 L-9628.78,-25089.9 L-9628.78,-24989.9 L-9628.78,-20559.2"/>
</g>

<g fill="none" stroke="#000000" stroke-opacity="1" stroke-width="1" stroke-linecap="square" stroke-linejoin="bevel" transform="matrix(0.999992,0,0,-0.999992,14919.7,828)"
font-family="MS Shell Dlg 2" font-size="10.3125" font-weight="400" font-style="normal" 
>
</g>

<g fill="none" stroke="#000000" stroke-opacity="1" stroke-width="1" stroke-linecap="square" stroke-linejoin="bevel" transform="matrix(0.999992,0,0,-0.999992,14919.7,828)"
font-family="MS Shell Dlg 2" font-size="10.3125" font-weight="400" font-style="normal" 
>
</g>

<g fill="#ae5151" fill-opacity="0.2" stroke="#333333" stroke-opacity="1" stroke-width="1" stroke-linecap="round" stroke-linejoin="round" transform="matrix(0.999992,0,0,-0.999992,14919.7,828)"
font-family="MS Shell Dlg 2" font-size="10.3125" font-weight="400" font-style="normal" 
>
<path vector-effect="non-scaling-stroke" fill-rule="evenodd" d="M-12090.9,-17948.5 L-12090.9,-13985 L-12090.8,-13984.9 L-11386.7,-13984.9 L-11386.7,-13889.9 L-10689.5,-13889.9 L-10689.5,-13984.9 L-9992.3,-13984.9 L-9992.3,-13889.9 L-9295.09,-13889.9 L-9295.09,-13984.9 L-8591.05,-13984.9 L-8590.91,-13985 L-8590.91,-14384.8 L-8590.88,-14384.9 L-8555.65,-14420.1 L-8488.38,-14487.4 L-9206.72,-15205.7 L-9273.89,-15138.6 L-11443.3,-17307.9 L-11376.1,-17375.1 L-12094.4,-18093.5 L-12165.2,-18022.7 L-12090.9,-17948.5"/>
</g>

<g fill="none" stroke="#000000" stroke-opacity="1" stroke-width="1" stroke-linecap="square" stroke-linejoin="bevel" transform="matrix(0.999992,0,0,-0.999992,14919.7,828)"
font-family="MS Shell Dlg 2" font-size="10.3125" font-weight="400" font-style="normal" 
>
</g>

<g fill="none" stroke="#000000" stroke-opacity="1" stroke-width="1" stroke-linecap="square" stroke-linejoin="bevel" transform="matrix(0.999992,0,0,-0.999992,14919.7,828)"
font-family="MS Shell Dlg 2" font-size="10.3125" font-weight="400" font-style="normal" 
>
</g>

<g fill="#ae5151" fill-opacity="0.2" stroke="#333333" stroke-opacity="1" stroke-width="1" stroke-linecap="round" stroke-linejoin="round" transform="matrix(0.999992,0,0,-0.999992,14919.7,828)"
font-family="MS Shell Dlg 2" font-size="10.3125" font-weight="400" font-style="normal" 
>
<path vector-effect="non-scaling-stroke" fill-rule="evenodd" d="M-7166.67,-14384.9 L-7166.65,-14384.8 L-7166.65,-13985 L-7166.5,-13984.9 L-6462.46,-13984.9 L-6462.46,-13889.9 L-5765.25,-13889.9 L-5765.25,-13984.9 L-5068.04,-13984.9 L-5068.04,-13889.9 L-4370.83,-13889.9 L-4370.83,-13984.9 L-3666.79,-13984.9 L-3666.65,-13985 L-3666.65,-17948.5 L-3592.4,-18022.7 L-3663.11,-18093.5 L-4381.45,-17375.1 L-4314.27,-17307.9 L-6483.66,-15138.6 L-6550.84,-15205.7 L-7269.18,-14487.4 L-7198.46,-14416.7 L-7166.67,-14384.9"/>
</g>

<g fill="none" stroke="#000000" stroke-opacity="1" stroke-width="1" stroke-linecap="square" stroke-linejoin="bevel" transform="matrix(0.999992,0,0,-0.999992,14919.7,828)"
font-family="MS Shell Dlg 2" font-size="10.3125" font-weight="400" font-style="normal" 
>
</g>

<g fill="none" stroke="#000000" stroke-opacity="1" stroke-width="1" stroke-linecap="square" stroke-linejoin="bevel" transform="matrix(0.999992,0,0,-0.999992,14919.7,828)"
font-family="MS Shell Dlg 2" font-size="10.3125" font-weight="400" font-style="normal" 
>
</g>

<g fill="#ae5151" fill-opacity="0.2" stroke="#333333" stroke-opacity="1" stroke-width="1" stroke-linecap="round" stroke-linejoin="round" transform="matrix(0.999992,0,0,-0.999992,14919.7,828)"
font-family="MS Shell Dlg 2" font-size="10.3125" font-weight="400" font-style="normal" 
>
<path vector-effect="non-scaling-stroke" fill-rule="evenodd" d="M-7128.78,-2067.73 L-7128.78,827.131 L-7128.64,827.273 L-4128.92,827.273 L-4128.78,827.131 L-4128.78,-2072.59 L-4128.78,-2167.73 L-4726.39,-2167.73 L-4726.39,-2072.73 L-6531.17,-2072.73 L-6531.17,-2167.73 L-7128.78,-2167.73 L-7128.78,-2067.73"/>
</g>

<g fill="none" stroke="#000000" stroke-opacity="1" stroke-width="1" stroke-linecap="square" stroke-linejoin="bevel" transform="matrix(0.999992,0,0,-0.999992,14919.7,828)"
font-family="MS Shell Dlg 2" font-size="10.3125" font-weight="400" font-style="normal" 
>
</g>

<g fill="none" stroke="#000000" stroke-opacity="1" stroke-width="1" stroke-linecap="square" stroke-linejoin="bevel" transform="matrix(0.999992,0,0,-0.999992,14919.7,828)"
font-family="MS Shell Dlg 2" font-size="10.3125" font-weight="400" font-style="normal" 
>
</g>

<g fill="#ae5151" fill-opacity="0.2" stroke="#333333" stroke-opacity="1" stroke-width="1" stroke-linecap="round" stroke-linejoin="round" transform="matrix(0.999992,0,0,-0.999992,14919.7,828)"
font-family="MS Shell Dlg 2" font-size="10.3125" font-weight="400" font-style="normal" 
>
<path vector-effect="non-scaling-stroke" fill-rule="evenodd" d="M-11628.8,-2067.73 L-11628.8,827.131 L-11628.6,827.273 L-8628.92,827.273 L-8628.78,827.131 L-8628.78,-2072.59 L-8628.78,-2167.73 L-9226.39,-2167.73 L-9226.39,-2072.73 L-11031.2,-2072.73 L-11031.2,-2167.73 L-11628.8,-2167.73 L-11628.8,-2067.73"/>
</g>

<g fill="none" stroke="#000000" stroke-opacity="1" stroke-width="1" stroke-linecap="square" stroke-linejoin="bevel" transform="matrix(0.999992,0,0,-0.999992,14919.7,828)"
font-family="MS Shell Dlg 2" font-size="10.3125" font-weight="400" font-style="normal" 
>
</g>

<g fill="none" stroke="#000000" stroke-opacity="1" stroke-width="1" stroke-linecap="square" stroke-linejoin="bevel" transform="matrix(0.999992,0,0,-0.999992,14919.7,828)"
font-family="MS Shell Dlg 2" font-size="10.3125" font-weight="400" font-style="normal" 
>
</g>

<g fill="#ae5151" fill-opacity="0.2" stroke="#333333" stroke-opacity="1" stroke-width="1" stroke-linecap="round" stroke-linejoin="round" transform="matrix(0.999992,0,0,-0.999992,14919.7,828)"
font-family="MS Shell Dlg 2" font-size="10.3125" font-weight="400" font-style="normal" 
>
<path vector-effect="non-scaling-stroke" fill-rule="evenodd" d="M-14491.5,-7123.61 L-14212.3,-6844.34 L-14212.2,-6844.3 L-12907.3,-6844.3 L-12907.2,-6844.34 L-11278.8,-8472.7 L-11278.7,-8472.73 L-11128.9,-8472.73 L-11128.8,-8472.84 L-11121.2,-8510.98 L-11121.2,-8511.01 L-11099.5,-8543.42 L-11099.5,-8543.45 L-11067.1,-8565.1 L-11067,-8565.12 L-11028.8,-8572.73 L-11028.8,-8572.73 L-11028.8,-8477.73 L-10431.2,-8477.73 L-10431.2,-8572.73 L-8626.39,-8572.73 L-8626.39,-8477.73 L-8028.78,-8477.73 L-8028.78,-8572.73 L-8028.77,-8572.73 L-7990.53,-8565.12 L-7990.49,-8565.1 L-7958.08,-8543.45 L-7958.06,-8543.42 L-7936.4,-8511.01 L-7936.39,-8510.98 L-7928.8,-8472.84 L-7928.66,-8472.73 L-7828.89,-8472.73 L-7828.75,-8472.84 L-7821.17,-8510.98 L-7821.15,-8511.01 L-7799.5,-8543.42 L-7799.47,-8543.45 L-7767.06,-8565.1 L-7767.03,-8565.12 L-7728.79,-8572.73 L-7728.78,-8572.73 L-7728.78,-8477.73 L-7131.17,-8477.73 L-7131.17,-8572.73 L-5326.39,-8572.73 L-5326.39,-8477.73 L-4728.78,-8477.73 L-4728.78,-8572.73 L-4728.77,-8572.73 L-4690.53,-8565.12 L-4690.49,-8565.1 L-4658.08,-8543.45 L-4658.06,-8543.42 L-4636.4,-8511.01 L-4636.39,-8510.98 L-4628.8,-8472.84 L-4628.66,-8472.73 L-4478.82,-8472.73 L-4478.75,-8472.7 L-2850.39,-6844.34 L-2850.29,-6844.3 L-1545.39,-6844.3 L-1545.28,-6844.34 L-1262.58,-7127.04 L-1195.31,-7194.32 L-1679.56,-7678.57 L-1746.73,-7611.39 L-3209.17,-9073.83 L-3142,-9141.01 L-3626.25,-9625.26 L-3696.96,-9554.55 L-3728.75,-9522.76 L-3728.82,-9522.73 L-4028.68,-9522.73 L-4028.78,-9522.83 L-4028.78,-9572.59 L-4028.78,-9667.73 L-4795.71,-9667.73 L-4795.71,-9572.73 L-7111.84,-9572.73 L-7111.84,-9667.73 L-7878.78,-9667.73 L-8645.71,-9667.73 L-8645.71,-9572.73 L-10961.8,-9572.73 L-10961.8,-9667.73 L-11728.8,-9667.73 L-11728.8,-9567.73 L-11728.8,-9522.83 L-11728.9,-9522.73 L-12028.7,-9522.73 L-12028.8,-9522.76 L-12064,-9557.98 L-12131.3,-9625.26 L-12615.6,-9141.01 L-12548.4,-9073.83 L-14010.8,-7611.39 L-14078,-7678.57 L-14562.2,-7194.32 L-14491.5,-7123.61"/>
</g>

<g fill="none" stroke="#000000" stroke-opacity="1" stroke-width="1" stroke-linecap="square" stroke-linejoin="bevel" transform="matrix(0.999992,0,0,-0.999992,14919.7,828)"
font-family="MS Shell Dlg 2" font-size="10.3125" font-weight="400" font-style="normal" 
>
</g>

<g fill="none" stroke="#000000" stroke-opacity="1" stroke-width="1" stroke-linecap="square" stroke-linejoin="bevel" transform="matrix(0.999992,0,0,-0.999992,14919.7,828)"
font-family="MS Shell Dlg 2" font-size="10.3125" font-weight="400" font-style="normal" 
>
</g>

<g fill="#ae5151" fill-opacity="0.2" stroke="#333333" stroke-opacity="1" stroke-width="1" stroke-linecap="round" stroke-linejoin="round" transform="matrix(0.999992,0,0,-0.999992,14919.7,828)"
font-family="MS Shell Dlg 2" font-size="10.3125" font-weight="400" font-style="normal" 
>
<path vector-effect="non-scaling-stroke" fill-rule="evenodd" d="M-7719.1,-8372.73 L-7719.24,-8372.57 L-7138.14,-2271.02 L-7137.97,-2270.9 L-7128.79,-2272.73 L-7128.77,-2272.73 L-6525.19,-2272.73 L-6525.19,-2177.73 L-5927.58,-2177.73 L-5927.58,-2272.73 L-5329.97,-2272.73 L-5329.97,-2177.73 L-4732.36,-2177.73 L-4732.36,-2272.73 L-4138.46,-2272.73 L-4138.32,-2272.88 L-4719.42,-8374.43 L-4719.58,-8374.56 L-4728.77,-8372.73 L-4728.79,-8372.73 L-5332.36,-8372.73 L-5332.36,-8467.73 L-5929.97,-8467.73 L-5929.97,-8372.73 L-6527.58,-8372.73 L-6527.58,-8467.73 L-7125.19,-8467.73 L-7125.19,-8372.73 L-7719.1,-8372.73"/>
</g>

<g fill="none" stroke="#000000" stroke-opacity="1" stroke-width="1" stroke-linecap="square" stroke-linejoin="bevel" transform="matrix(0.999992,0,0,-0.999992,14919.7,828)"
font-family="MS Shell Dlg 2" font-size="10.3125" font-weight="400" font-style="normal" 
>
</g>

<g fill="none" stroke="#000000" stroke-opacity="1" stroke-width="1" stroke-linecap="square" stroke-linejoin="bevel" transform="matrix(0.999992,0,0,-0.999992,14919.7,828)"
font-family="MS Shell Dlg 2" font-size="10.3125" font-weight="400" font-style="normal" 
>
</g>

<g fill="#ae5151" fill-opacity="0.2" stroke="#333333" stroke-opacity="1" stroke-width="1" stroke-linecap="round" stroke-linejoin="round" transform="matrix(0.999992,0,0,-0.999992,14919.7,828)"
font-family="MS Shell Dlg 2" font-size="10.3125" font-weight="400" font-style="normal" 
>
<path vector-effect="non-scaling-stroke" fill-rule="evenodd" d="M-11038,-8374.56 L-11038.1,-8374.43 L-11619.2,-2272.88 L-11619.1,-2272.73 L-11025.2,-2272.73 L-11025.2,-2177.73 L-10427.6,-2177.73 L-10427.6,-2272.73 L-9829.97,-2272.73 L-9829.97,-2177.73 L-9232.36,-2177.73 L-9232.36,-2272.73 L-8628.79,-2272.73 L-8628.77,-2272.73 L-8619.58,-2270.9 L-8619.42,-2271.02 L-8038.32,-8372.57 L-8038.46,-8372.73 L-8632.36,-8372.73 L-8632.36,-8467.73 L-9229.97,-8467.73 L-9229.97,-8372.73 L-9827.58,-8372.73 L-9827.58,-8467.73 L-10425.2,-8467.73 L-10425.2,-8372.73 L-11028.8,-8372.73 L-11028.8,-8372.73 L-11038,-8374.56"/>
</g>

<g fill="none" stroke="#000000" stroke-opacity="1" stroke-width="1" stroke-linecap="square" stroke-linejoin="bevel" transform="matrix(0.999992,0,0,-0.999992,14919.7,828)"
font-family="MS Shell Dlg 2" font-size="10.3125" font-weight="400" font-style="normal" 
>
</g>

<g fill="none" stroke="#000000" stroke-opacity="1" stroke-width="1" stroke-linecap="square" stroke-linejoin="bevel" transform="matrix(0.999992,0,0,-0.999992,14919.7,828)"
font-family="MS Shell Dlg 2" font-size="10.3125" font-weight="400" font-style="normal" 
>
</g>

<g fill="#ae5151" fill-opacity="0.2" stroke="#333333" stroke-opacity="1" stroke-width="1" stroke-linecap="round" stroke-linejoin="round" transform="matrix(0.999992,0,0,-0.999992,14919.7,828)"
font-family="MS Shell Dlg 2" font-size="10.3125" font-weight="400" font-style="normal" 
>
<path vector-effect="non-scaling-stroke" fill-rule="evenodd" d="M-7166.65,-13384.9 L-7166.67,-13384.8 L-7201.9,-13349.6 L-7201.9,-13349.4 L-6528,-12675.5 L-6595.17,-12608.3 L-5927.84,-11941 L-5860.67,-12008.2 L-5193.34,-11340.8 L-5260.51,-11273.7 L-4593.18,-10606.3 L-4526,-10673.5 L-3852.1,-9999.6 L-3851.9,-9999.6 L-3816.67,-10034.8 L-3816.6,-10034.9 L-3766.79,-10034.9 L-3766.65,-10035 L-3766.65,-10739 L-3671.65,-10739 L-3671.65,-11436.3 L-3766.65,-11436.3 L-3766.65,-12133.5 L-3671.65,-12133.5 L-3671.65,-12830.7 L-3766.65,-12830.7 L-3766.65,-13534.8 L-3766.64,-13534.9 L-3759.04,-13573.1 L-3759.02,-13573.1 L-3737.37,-13605.6 L-3737.34,-13605.6 L-3704.93,-13627.2 L-3704.89,-13627.3 L-3666.76,-13634.8 L-3666.65,-13635 L-3666.65,-13784.7 L-3666.65,-13879.9 L-4363.86,-13879.9 L-4363.86,-13784.9 L-6469.43,-13784.9 L-6469.43,-13879.9 L-7166.65,-13879.9 L-7166.65,-13779.9 L-7166.65,-13384.9"/>
</g>

<g fill="none" stroke="#000000" stroke-opacity="1" stroke-width="1" stroke-linecap="square" stroke-linejoin="bevel" transform="matrix(0.999992,0,0,-0.999992,14919.7,828)"
font-family="MS Shell Dlg 2" font-size="10.3125" font-weight="400" font-style="normal" 
>
</g>

<g fill="none" stroke="#000000" stroke-opacity="1" stroke-width="1" stroke-linecap="square" stroke-linejoin="bevel" transform="matrix(0.999992,0,0,-0.999992,14919.7,828)"
font-family="MS Shell Dlg 2" font-size="10.3125" font-weight="400" font-style="normal" 
>
</g>

<g fill="#ae5151" fill-opacity="0.2" stroke="#333333" stroke-opacity="1" stroke-width="1" stroke-linecap="round" stroke-linejoin="round" transform="matrix(0.999992,0,0,-0.999992,14919.7,828)"
font-family="MS Shell Dlg 2" font-size="10.3125" font-weight="400" font-style="normal" 
>
<path vector-effect="non-scaling-stroke" fill-rule="evenodd" d="M-12090.9,-13779.9 L-12090.9,-13635 L-12090.8,-13634.8 L-12052.7,-13627.3 L-12052.6,-13627.2 L-12020.2,-13605.6 L-12020.2,-13605.6 L-11998.5,-13573.1 L-11998.5,-13573.1 L-11990.9,-13534.9 L-11990.9,-13534.9 L-12085.9,-13534.9 L-12085.9,-12837.6 L-11990.9,-12837.6 L-11990.9,-10732.1 L-12085.9,-10732.1 L-12085.9,-10034.9 L-11985.9,-10034.9 L-11941,-10034.9 L-11940.9,-10034.8 L-11905.7,-9999.6 L-11905.5,-9999.6 L-11231.5,-10673.5 L-11164.4,-10606.3 L-10497,-11273.7 L-10564.2,-11340.8 L-9896.89,-12008.2 L-9829.71,-11941 L-9162.38,-12608.3 L-9229.56,-12675.5 L-8555.65,-13349.4 L-8555.65,-13349.6 L-8590.88,-13384.8 L-8590.91,-13384.9 L-8590.91,-13784.7 L-8590.91,-13879.9 L-9288.12,-13879.9 L-9288.12,-13784.9 L-11393.7,-13784.9 L-11393.7,-13879.9 L-12090.9,-13879.9 L-12090.9,-13779.9"/>
</g>

<g fill="none" stroke="#000000" stroke-opacity="1" stroke-width="1" stroke-linecap="square" stroke-linejoin="bevel" transform="matrix(0.999992,0,0,-0.999992,14919.7,828)"
font-family="MS Shell Dlg 2" font-size="10.3125" font-weight="400" font-style="normal" 
>
</g>

<g fill="none" stroke="#000000" stroke-opacity="1" stroke-width="1" stroke-linecap="square" stroke-linejoin="bevel" transform="matrix(0.999992,0,0,-0.999992,14919.7,828)"
font-family="MS Shell Dlg 2" font-size="10.3125" font-weight="400" font-style="normal" 
>
</g>

<g fill="#ae5151" fill-opacity="0.2" stroke="#333333" stroke-opacity="1" stroke-width="1" stroke-linecap="round" stroke-linejoin="round" transform="matrix(0.999992,0,0,-0.999992,14919.7,828)"
font-family="MS Shell Dlg 2" font-size="10.3125" font-weight="400" font-style="normal" 
>
<path vector-effect="non-scaling-stroke" fill-rule="evenodd" d="M-11728.8,-9822.76 L-11728.8,-9822.69 L-11728.8,-9772.87 L-11728.6,-9772.73 L-10954.2,-9772.73 L-10954.2,-9677.73 L-10187.2,-9677.73 L-10187.2,-9772.73 L-9420.31,-9772.73 L-9420.31,-9677.73 L-8653.38,-9677.73 L-8653.38,-9772.73 L-7104.18,-9772.73 L-7104.18,-9677.73 L-6337.24,-9677.73 L-6337.24,-9772.73 L-5570.31,-9772.73 L-5570.31,-9677.73 L-4803.38,-9677.73 L-4803.38,-9772.73 L-4028.92,-9772.73 L-4028.78,-9772.87 L-4028.78,-9822.69 L-4028.75,-9822.76 L-3993.52,-9857.98 L-3926.25,-9925.26 L-4593.58,-10592.6 L-4660.75,-10525.4 L-6676.09,-12540.8 L-6608.92,-12607.9 L-7276.25,-13275.3 L-7346.96,-13204.5 L-7378.75,-13172.8 L-7378.82,-13172.7 L-8378.74,-13172.7 L-8378.81,-13172.8 L-8414.03,-13208 L-8481.31,-13275.3 L-9148.64,-12607.9 L-9081.46,-12540.8 L-11096.8,-10525.4 L-11164,-10592.6 L-11831.3,-9925.26 L-11760.6,-9854.55 L-11728.8,-9822.76 M-9138.78,-11972.7 L-9138.78,-11972.7 L-9138.02,-11976.5 L-9138,-11976.6 L-9135.86,-11979.8 L-9135.83,-11979.8 L-9132.62,-11982 L-9132.58,-11982 L-9128.79,-11982.7 L-9128.77,-11982.7 L-6628.79,-11982.7 L-6628.77,-11982.7 L-6624.97,-11982 L-6624.93,-11982 L-6621.72,-11979.8 L-6621.69,-11979.8 L-6619.55,-11976.6 L-6619.53,-11976.5 L-6618.78,-11972.7 L-6618.78,-11972.7 L-6618.78,-10597 L-6618.78,-10597 L-6619.53,-10593.2 L-6619.55,-10593.1 L-6621.69,-10589.9 L-6621.72,-10589.9 L-6624.93,-10587.8 L-6624.97,-10587.7 L-6628.76,-10587 L-6628.8,-10587 L-6632.58,-10587.7 L-6632.62,-10587.8 L-6635.83,-10589.9 L-6635.86,-10589.9 L-6638,-10593.1 L-6638.02,-10593.2 L-6638.78,-10597 L-6638.78,-10597 L-6638.78,-11962.6 L-6638.92,-11962.7 L-9118.64,-11962.7 L-9118.78,-11962.6 L-9118.78,-10597 L-9118.78,-10597 L-9119.53,-10593.2 L-9119.55,-10593.1 L-9121.69,-10589.9 L-9121.72,-10589.9 L-9124.93,-10587.8 L-9124.97,-10587.7 L-9128.76,-10587 L-9128.8,-10587 L-9132.58,-10587.7 L-9132.62,-10587.8 L-9135.83,-10589.9 L-9135.86,-10589.9 L-9138,-10593.1 L-9138.02,-10593.2 L-9138.78,-10597 L-9138.78,-10597 L-9138.78,-11972.7"/>
</g>

<g fill="none" stroke="#000000" stroke-opacity="1" stroke-width="1" stroke-linecap="square" stroke-linejoin="bevel" transform="matrix(0.999992,0,0,-0.999992,14919.7,828)"
font-family="MS Shell Dlg 2" font-size="10.3125" font-weight="400" font-style="normal" 
>
</g>

<g fill="none" stroke="#000000" stroke-opacity="1" stroke-width="1" stroke-linecap="square" stroke-linejoin="bevel" transform="matrix(0.999992,0,0,-0.999992,14919.7,828)"
font-family="MS Shell Dlg 2" font-size="10.3125" font-weight="400" font-style="normal" 
>
</g>

<g fill="#ae5151" fill-opacity="0.2" stroke="#333333" stroke-opacity="1" stroke-width="1" stroke-linecap="round" stroke-linejoin="round" transform="matrix(0.999992,0,0,-0.999992,14919.7,828)"
font-family="MS Shell Dlg 2" font-size="10.3125" font-weight="400" font-style="normal" 
>
<path vector-effect="non-scaling-stroke" fill-rule="evenodd" d="M-3551.9,-9699.6 L-3551.9,-9699.4 L-3062.91,-9210.41 L-3130.08,-9143.24 L-2645.83,-8658.98 L-2578.66,-8726.16 L-2094.41,-8241.91 L-2161.58,-8174.73 L-1677.33,-7690.48 L-1610.15,-7757.66 L-1121.16,-7268.66 L-1120.96,-7268.66 L-838.261,-7551.36 L-838.218,-7551.47 L-838.218,-11901.8 L-838.291,-11901.9 L-3561.65,-13474.2 L-3561.65,-13534.9 L-3661.65,-13534.9 L-3661.65,-12837.6 L-3566.65,-12837.6 L-3566.65,-10732.1 L-3661.65,-10732.1 L-3661.65,-10034.9 L-3561.65,-10034.9 L-3516.75,-10034.9 L-3516.65,-10034.8 L-3516.65,-9734.9 L-3516.67,-9734.83 L-3551.9,-9699.6"/>
</g>

<g fill="none" stroke="#000000" stroke-opacity="1" stroke-width="1" stroke-linecap="square" stroke-linejoin="bevel" transform="matrix(0.999992,0,0,-0.999992,14919.7,828)"
font-family="MS Shell Dlg 2" font-size="10.3125" font-weight="400" font-style="normal" 
>
</g>

<g fill="none" stroke="#000000" stroke-opacity="1" stroke-width="1" stroke-linecap="square" stroke-linejoin="bevel" transform="matrix(0.999992,0,0,-0.999992,14919.7,828)"
font-family="MS Shell Dlg 2" font-size="10.3125" font-weight="400" font-style="normal" 
>
</g>

<g fill="#ae5151" fill-opacity="0.2" stroke="#333333" stroke-opacity="1" stroke-width="1" stroke-linecap="round" stroke-linejoin="round" transform="matrix(0.999992,0,0,-0.999992,14919.7,828)"
font-family="MS Shell Dlg 2" font-size="10.3125" font-weight="400" font-style="normal" 
>
<path vector-effect="non-scaling-stroke" fill-rule="evenodd" d="M-12240.9,-10034.8 L-12240.8,-10034.9 L-12191.1,-10034.9 L-12190.9,-10035 L-12190.9,-10739 L-12095.9,-10739 L-12095.9,-11436.3 L-12190.9,-11436.3 L-12190.9,-12133.5 L-12095.9,-12133.5 L-12095.9,-12830.7 L-12190.9,-12830.7 L-12190.9,-13476.9 L-12191.1,-13477 L-14919.3,-11901.9 L-14919.3,-11901.8 L-14919.3,-7551.47 L-14919.3,-7551.36 L-14636.6,-7268.66 L-14636.4,-7268.66 L-14147.4,-7757.66 L-14080.2,-7690.48 L-13596,-8174.73 L-13663.1,-8241.91 L-13178.9,-8726.16 L-13111.7,-8658.98 L-12627.5,-9143.24 L-12694.6,-9210.41 L-12205.7,-9699.4 L-12205.7,-9699.6 L-12240.9,-9734.83 L-12240.9,-9734.9 L-12240.9,-10034.8"/>
</g>

<g fill="none" stroke="#000000" stroke-opacity="1" stroke-width="1" stroke-linecap="square" stroke-linejoin="bevel" transform="matrix(0.999992,0,0,-0.999992,14919.7,828)"
font-family="MS Shell Dlg 2" font-size="10.3125" font-weight="400" font-style="normal" 
>
</g>

<g fill="none" stroke="#000000" stroke-opacity="1" stroke-width="1" stroke-linecap="square" stroke-linejoin="bevel" transform="matrix(0.999992,0,0,-0.999992,14919.7,828)"
font-family="MS Shell Dlg 2" font-size="10.3125" font-weight="400" font-style="normal" 
>
</g>

<g fill="#ffff00" fill-opacity="0.2" stroke="#333333" stroke-opacity="1" stroke-width="1" stroke-linecap="round" stroke-linejoin="round" transform="matrix(0.999992,0,0,-0.999992,14919.7,828)"
font-family="MS Shell Dlg 2" font-size="10.3125" font-weight="400" font-style="normal" 
>
<path vector-effect="non-scaling-stroke" fill-rule="evenodd" d="M-6128.78,-25199.9 L-6128.78,-27094.7 L-6128.92,-27094.9 L-9628.64,-27094.9 L-9628.78,-27094.7 L-9628.78,-25195 L-9628.78,-24989.9 L-9628.78,-20559.2 L-9628.81,-20559.1 L-12020.1,-18167.8 L-12165.2,-18022.7 L-12090.9,-17948.5 L-12090.9,-13985 L-12090.9,-13779.9 L-12090.9,-13635 L-12090.8,-13634.8 L-12052.7,-13627.3 L-12052.6,-13627.2 L-12020.2,-13605.6 L-12020.2,-13605.6 L-11998.5,-13573.1 L-11998.5,-13573.1 L-11990.9,-13534.9 L-11990.9,-13534.9 L-12195.9,-13534.9 L-12195.9,-13474.2 L-14919.3,-11901.9 L-14919.3,-11901.8 L-14919.3,-7551.47 L-14919.3,-7551.36 L-14636.6,-7268.66 L-14491.5,-7123.61 L-14212.3,-6844.34 L-14212.2,-6844.3 L-12907.3,-6844.3 L-12907.2,-6844.34 L-11278.8,-8472.7 L-11278.7,-8472.73 L-11128.9,-8472.73 L-11128.8,-8472.84 L-11121.2,-8510.98 L-11121.2,-8511.01 L-11099.5,-8543.42 L-11099.5,-8543.45 L-11067.1,-8565.1 L-11067,-8565.12 L-11028.8,-8572.73 L-11028.8,-8572.73 L-11028.8,-8372.73 L-11028.8,-8372.73 L-11038,-8374.56 L-11038.1,-8374.43 L-11618.8,-2277.73 L-11628.8,-2277.73 L-11628.8,-2067.73 L-11628.8,827.131 L-11628.6,827.273 L-8628.92,827.273 L-8628.78,827.131 L-8628.78,-2072.59 L-8628.78,-2272.73 L-8628.77,-2272.73 L-8619.58,-2270.9 L-8619.42,-2271.02 L-8038.78,-8367.73 L-8028.78,-8367.73 L-8028.78,-8572.73 L-8028.77,-8572.73 L-7990.53,-8565.12 L-7990.49,-8565.1 L-7958.08,-8543.45 L-7958.06,-8543.42 L-7936.4,-8511.01 L-7936.39,-8510.98 L-7928.8,-8472.84 L-7928.66,-8472.73 L-7828.89,-8472.73 L-7828.75,-8472.84 L-7821.17,-8510.98 L-7821.15,-8511.01 L-7799.5,-8543.42 L-7799.47,-8543.45 L-7767.06,-8565.1 L-7767.03,-8565.12 L-7728.79,-8572.73 L-7728.78,-8572.73 L-7728.78,-8367.73 L-7718.78,-8367.73 L-7138.14,-2271.02 L-7137.97,-2270.9 L-7128.79,-2272.73 L-7128.78,-2272.73 L-7128.78,-2067.73 L-7128.78,827.131 L-7128.64,827.273 L-4128.92,827.273 L-4128.78,827.131 L-4128.78,-2072.59 L-4128.78,-2277.73 L-4138.78,-2277.73 L-4719.42,-8374.43 L-4719.58,-8374.56 L-4728.77,-8372.73 L-4728.78,-8372.73 L-4728.78,-8572.73 L-4728.77,-8572.73 L-4690.53,-8565.12 L-4690.49,-8565.1 L-4658.08,-8543.45 L-4658.06,-8543.42 L-4636.4,-8511.01 L-4636.39,-8510.98 L-4628.8,-8472.84 L-4628.66,-8472.73 L-4478.82,-8472.73 L-4478.75,-8472.7 L-2850.39,-6844.34 L-2850.29,-6844.3 L-1545.39,-6844.3 L-1545.28,-6844.34 L-1262.58,-7127.04 L-1117.53,-7272.1 L-838.261,-7551.36 L-838.218,-7551.47 L-838.218,-11901.8 L-838.291,-11901.9 L-3561.65,-13474.2 L-3561.65,-13534.9 L-3766.64,-13534.9 L-3766.64,-13534.9 L-3759.04,-13573.1 L-3759.02,-13573.1 L-3737.37,-13605.6 L-3737.34,-13605.6 L-3704.93,-13627.2 L-3704.89,-13627.3 L-3666.76,-13634.8 L-3666.65,-13635 L-3666.65,-13784.7 L-3666.65,-13989.9 L-3666.65,-17948.5 L-3592.4,-18022.7 L-3740.89,-18171.2 L-6128.75,-20559.1 L-6128.78,-20559.2 L-6128.78,-24994.7 L-6128.78,-25199.9 M-8227.38,-25194.9 L-7530.17,-25194.9 L-7530.17,-24994.9 L-8227.38,-24994.9 L-8227.38,-25194.9 M-10576.3,-16723.8 L-9858,-16005.5 L-9999.42,-15864.1 L-10717.8,-16582.4 L-10576.3,-16723.8 M-8410.6,-14565.2 L-8378.81,-14597 L-8378.74,-14597 L-7378.82,-14597 L-7378.75,-14597 L-7343.52,-14561.7 L-7198.46,-14416.7 L-7166.67,-14384.9 L-7166.65,-14384.8 L-7166.65,-13985 L-7166.65,-13779.9 L-7166.65,-13384.9 L-7166.67,-13384.8 L-7201.9,-13349.6 L-7346.96,-13204.5 L-7378.75,-13172.8 L-7378.82,-13172.7 L-8378.74,-13172.7 L-8378.81,-13172.8 L-8414.03,-13208 L-8559.09,-13353 L-8590.88,-13384.8 L-8590.91,-13384.9 L-8590.91,-13784.7 L-8590.91,-13989.9 L-8590.91,-14384.8 L-8590.88,-14384.9 L-8555.65,-14420.1 L-8410.6,-14565.2 M-5899.56,-16005.5 L-5181.22,-16723.8 L-5039.8,-16582.4 L-5758.14,-15864.1 L-5899.56,-16005.5 M-5765.25,-13984.9 L-5068.04,-13984.9 L-5068.04,-13784.9 L-5765.25,-13784.9 L-5765.25,-13984.9 M-10689.5,-13984.9 L-9992.3,-13984.9 L-9992.3,-13784.9 L-10689.5,-13784.9 L-10689.5,-13984.9 M-3551.9,-9699.6 L-3696.96,-9554.55 L-3728.75,-9522.76 L-3728.82,-9522.73 L-4028.68,-9522.73 L-4028.78,-9522.83 L-4028.78,-9572.59 L-4028.78,-9777.73 L-4028.78,-9822.69 L-4028.75,-9822.76 L-3993.52,-9857.98 L-3848.46,-10003 L-3816.67,-10034.8 L-3816.6,-10034.9 L-3766.79,-10034.9 L-3561.65,-10034.9 L-3516.75,-10034.9 L-3516.65,-10034.8 L-3516.65,-9734.9 L-3516.67,-9734.83 L-3551.9,-9699.6 M-2578.66,-8726.16 L-2094.41,-8241.91 L-2235.83,-8100.49 L-2720.08,-8584.74 L-2578.66,-8726.16 M-3566.65,-12133.5 L-3566.65,-11436.3 L-3766.65,-11436.3 L-3766.65,-12133.5 L-3566.65,-12133.5 M-12240.9,-10034.8 L-12240.8,-10034.9 L-12191.1,-10034.9 L-11985.9,-10034.9 L-11941,-10034.9 L-11940.9,-10034.8 L-11905.7,-9999.6 L-11760.6,-9854.55 L-11728.8,-9822.76 L-11728.8,-9822.69 L-11728.8,-9772.87 L-11728.8,-9567.73 L-11728.8,-9522.83 L-11728.9,-9522.73 L-12028.7,-9522.73 L-12028.8,-9522.76 L-12064,-9557.98 L-12209.1,-9703.04 L-12240.9,-9734.83 L-12240.9,-9734.9 L-12240.9,-10034.8 M-12190.9,-11436.3 L-12190.9,-12133.5 L-11990.9,-12133.5 L-11990.9,-11436.3 L-12190.9,-11436.3 M-13663.1,-8241.91 L-13178.9,-8726.16 L-13037.5,-8584.74 L-13521.7,-8100.49 L-13663.1,-8241.91 M-5329.97,-2072.73 L-5927.58,-2072.73 L-5927.58,-2272.73 L-5329.97,-2272.73 L-5329.97,-2072.73 M-9829.97,-2072.73 L-10427.6,-2072.73 L-10427.6,-2272.73 L-9829.97,-2272.73 L-9829.97,-2072.73 M-9827.58,-8572.73 L-9229.97,-8572.73 L-9229.97,-8372.73 L-9827.58,-8372.73 L-9827.58,-8572.73 M-6527.58,-8572.73 L-5929.97,-8572.73 L-5929.97,-8372.73 L-6527.58,-8372.73 L-6527.58,-8572.73 M-5570.31,-9572.73 L-6337.24,-9572.73 L-6337.24,-9772.73 L-5570.31,-9772.73 L-5570.31,-9572.73 M-9420.31,-9572.73 L-10187.2,-9572.73 L-10187.2,-9772.73 L-9420.31,-9772.73 L-9420.31,-9572.73 M-10564.2,-11340.8 L-9896.89,-12008.2 L-9755.47,-11866.7 L-10422.8,-11199.4 L-10564.2,-11340.8 M-5860.67,-12008.2 L-5193.34,-11340.8 L-5334.76,-11199.4 L-6002.09,-11866.7 L-5860.67,-12008.2 M-9138.78,-11972.7 L-9138.78,-11972.7 L-9138.02,-11976.5 L-9138,-11976.6 L-9135.86,-11979.8 L-9135.83,-11979.8 L-9132.62,-11982 L-9132.58,-11982 L-9128.79,-11982.7 L-9128.77,-11982.7 L-6628.79,-11982.7 L-6628.77,-11982.7 L-6624.97,-11982 L-6624.93,-11982 L-6621.72,-11979.8 L-6621.69,-11979.8 L-6619.55,-11976.6 L-6619.53,-11976.5 L-6618.78,-11972.7 L-6618.78,-11972.7 L-6618.78,-10597 L-6618.78,-10597 L-6619.53,-10593.2 L-6619.55,-10593.1 L-6621.69,-10589.9 L-6621.72,-10589.9 L-6624.93,-10587.8 L-6624.97,-10587.7 L-6628.76,-10587 L-6628.8,-10587 L-6632.58,-10587.7 L-6632.62,-10587.8 L-6635.83,-10589.9 L-6635.86,-10589.9 L-6638,-10593.1 L-6638.02,-10593.2 L-6638.78,-10597 L-6638.78,-10597 L-6638.78,-11962.6 L-6638.92,-11962.7 L-9118.64,-11962.7 L-9118.78,-11962.6 L-9118.78,-10597 L-9118.78,-10597 L-9119.53,-10593.2 L-9119.55,-10593.1 L-9121.69,-10589.9 L-9121.72,-10589.9 L-9124.93,-10587.8 L-9124.97,-10587.7 L-9128.76,-10587 L-9128.8,-10587 L-9132.58,-10587.7 L-9132.62,-10587.8 L-9135.83,-10589.9 L-9135.86,-10589.9 L-9138,-10593.1 L-9138.02,-10593.2 L-9138.78,-10597 L-9138.78,-10597 L-9138.78,-11972.7"/>
</g>

<g fill="none" stroke="#000000" stroke-opacity="1" stroke-width="1" stroke-linecap="square" stroke-linejoin="bevel" transform="matrix(0.999992,0,0,-0.999992,14919.7,828)"
font-family="MS Shell Dlg 2" font-size="10.3125" font-weight="400" font-style="normal" 
>
</g>

<g fill="none" stroke="#000000" stroke-opacity="1" stroke-width="1" stroke-linecap="square" stroke-linejoin="bevel" transform="matrix(0.999992,0,0,-0.999992,14919.7,828)"
font-family="MS Shell Dlg 2" font-size="10.3125" font-weight="400" font-style="normal" 
>
</g>

<g fill="#ae5151" fill-opacity="0.2" stroke="#333333" stroke-opacity="1" stroke-width="1" stroke-linecap="round" stroke-linejoin="round" transform="matrix(0.999992,0,0,-0.999992,14919.7,828)"
font-family="MS Shell Dlg 2" font-size="10.3125" font-weight="400" font-style="normal" 
>
<path vector-effect="non-scaling-stroke" fill-rule="evenodd" d="M-6128.78,-25199.9 L-6128.78,-27094.7 L-6128.92,-27094.9 L-9628.64,-27094.9 L-9628.78,-27094.7 L-9628.78,-25195 L-9628.78,-25099.9 L-8931.57,-25099.9 L-8931.57,-25194.9 L-6825.99,-25194.9 L-6825.99,-25099.9 L-6128.78,-25099.9 L-6128.78,-25199.9"/>
</g>

<g fill="none" stroke="#000000" stroke-opacity="1" stroke-width="1" stroke-linecap="square" stroke-linejoin="bevel" transform="matrix(0.999992,0,0,-0.999992,14919.7,828)"
font-family="MS Shell Dlg 2" font-size="10.3125" font-weight="400" font-style="normal" 
>
</g>

<g fill="none" stroke="#000000" stroke-opacity="1" stroke-width="1" stroke-linecap="square" stroke-linejoin="bevel" transform="matrix(0.999992,0,0,-0.999992,14919.7,828)"
font-family="MS Shell Dlg 2" font-size="10.3125" font-weight="400" font-style="normal" 
>
</g>

<g fill="#ae5151" fill-opacity="0.2" stroke="#333333" stroke-opacity="1" stroke-width="1" stroke-linecap="round" stroke-linejoin="round" transform="matrix(0.999992,0,0,-0.999992,14919.7,828)"
font-family="MS Shell Dlg 2" font-size="10.3125" font-weight="400" font-style="normal" 
>
<path vector-effect="non-scaling-stroke" fill-rule="evenodd" d="M-9628.78,-20559.2 L-9628.81,-20559.1 L-12020.1,-18167.8 L-12087.4,-18100.5 L-11369,-17382.2 L-11301.9,-17449.4 L-9132.47,-15280 L-9199.65,-15212.8 L-8481.31,-14494.5 L-8410.6,-14565.2 L-8378.81,-14597 L-8378.74,-14597 L-7378.82,-14597 L-7378.75,-14597 L-7343.52,-14561.7 L-7276.25,-14494.5 L-6557.91,-15212.8 L-6625.08,-15280 L-4455.7,-17449.4 L-4388.52,-17382.2 L-3670.18,-18100.5 L-3740.89,-18171.2 L-6128.75,-20559.1 L-6128.78,-20559.2 L-6128.78,-24994.7 L-6128.92,-24994.9 L-6832.96,-24994.9 L-6832.96,-25089.9 L-7530.17,-25089.9 L-7530.17,-24994.9 L-8227.38,-24994.9 L-8227.38,-25089.9 L-8924.59,-25089.9 L-8924.59,-24994.9 L-9628.64,-24994.9 L-9628.78,-24994.7 L-9628.78,-20559.2"/>
</g>

<g fill="none" stroke="#000000" stroke-opacity="1" stroke-width="1" stroke-linecap="square" stroke-linejoin="bevel" transform="matrix(0.999992,0,0,-0.999992,14919.7,828)"
font-family="MS Shell Dlg 2" font-size="10.3125" font-weight="400" font-style="normal" 
>
</g>

<g fill="none" stroke="#000000" stroke-opacity="1" stroke-width="1" stroke-linecap="square" stroke-linejoin="bevel" transform="matrix(0.999992,0,0,-0.999992,14919.7,828)"
font-family="MS Shell Dlg 2" font-size="10.3125" font-weight="400" font-style="normal" 
>
</g>

<g fill="#ae5151" fill-opacity="0.2" stroke="#333333" stroke-opacity="1" stroke-width="1" stroke-linecap="round" stroke-linejoin="round" transform="matrix(0.999992,0,0,-0.999992,14919.7,828)"
font-family="MS Shell Dlg 2" font-size="10.3125" font-weight="400" font-style="normal" 
>
<path vector-effect="non-scaling-stroke" fill-rule="evenodd" d="M-7166.67,-14384.9 L-7166.65,-14384.8 L-7166.65,-13985 L-7166.65,-13889.9 L-6469.43,-13889.9 L-6469.43,-13984.9 L-4363.86,-13984.9 L-4363.86,-13889.9 L-3666.65,-13889.9 L-3666.65,-13989.9 L-3666.65,-17955.3 L-3666.71,-17955.4 L-3666.84,-17955.4 L-4321.46,-17300.8 L-4388.63,-17367.9 L-5106.97,-16649.6 L-5039.8,-16582.4 L-5758.14,-15864.1 L-5825.31,-15931.3 L-6543.65,-15212.9 L-6476.48,-15145.7 L-7201.9,-14420.3 L-7201.9,-14420.1 L-7166.67,-14384.9"/>
</g>

<g fill="none" stroke="#000000" stroke-opacity="1" stroke-width="1" stroke-linecap="square" stroke-linejoin="bevel" transform="matrix(0.999992,0,0,-0.999992,14919.7,828)"
font-family="MS Shell Dlg 2" font-size="10.3125" font-weight="400" font-style="normal" 
>
</g>

<g fill="none" stroke="#000000" stroke-opacity="1" stroke-width="1" stroke-linecap="square" stroke-linejoin="bevel" transform="matrix(0.999992,0,0,-0.999992,14919.7,828)"
font-family="MS Shell Dlg 2" font-size="10.3125" font-weight="400" font-style="normal" 
>
</g>

<g fill="#ae5151" fill-opacity="0.2" stroke="#333333" stroke-opacity="1" stroke-width="1" stroke-linecap="round" stroke-linejoin="round" transform="matrix(0.999992,0,0,-0.999992,14919.7,828)"
font-family="MS Shell Dlg 2" font-size="10.3125" font-weight="400" font-style="normal" 
>
<path vector-effect="non-scaling-stroke" fill-rule="evenodd" d="M-12090.7,-17955.4 L-12090.9,-17955.3 L-12090.9,-13985 L-12090.9,-13889.9 L-11393.7,-13889.9 L-11393.7,-13984.9 L-9288.12,-13984.9 L-9288.12,-13889.9 L-8590.91,-13889.9 L-8590.91,-13989.9 L-8590.91,-14384.8 L-8590.88,-14384.9 L-8555.65,-14420.1 L-8555.65,-14420.3 L-9281.08,-15145.7 L-9213.9,-15212.9 L-9932.24,-15931.3 L-9999.42,-15864.1 L-10717.8,-16582.4 L-10650.6,-16649.6 L-11368.9,-17367.9 L-11436.1,-17300.8 L-12090.7,-17955.4"/>
</g>

<g fill="none" stroke="#000000" stroke-opacity="1" stroke-width="1" stroke-linecap="square" stroke-linejoin="bevel" transform="matrix(0.999992,0,0,-0.999992,14919.7,828)"
font-family="MS Shell Dlg 2" font-size="10.3125" font-weight="400" font-style="normal" 
>
</g>

<g fill="none" stroke="#000000" stroke-opacity="1" stroke-width="1" stroke-linecap="square" stroke-linejoin="bevel" transform="matrix(0.999992,0,0,-0.999992,14919.7,828)"
font-family="MS Shell Dlg 2" font-size="10.3125" font-weight="400" font-style="normal" 
>
</g>

<g fill="#ae5151" fill-opacity="0.2" stroke="#333333" stroke-opacity="1" stroke-width="1" stroke-linecap="round" stroke-linejoin="round" transform="matrix(0.999992,0,0,-0.999992,14919.7,828)"
font-family="MS Shell Dlg 2" font-size="10.3125" font-weight="400" font-style="normal" 
>
<path vector-effect="non-scaling-stroke" fill-rule="evenodd" d="M-12240.9,-10034.8 L-12240.8,-10034.9 L-12191.1,-10034.9 L-12095.9,-10034.9 L-12095.9,-10732.1 L-12190.9,-10732.1 L-12190.9,-12837.6 L-12095.9,-12837.6 L-12095.9,-13534.9 L-12195.9,-13534.9 L-12195.9,-13474.2 L-14919.3,-11901.9 L-14919.3,-11901.8 L-14919.3,-7551.47 L-14919.3,-7551.36 L-14636.6,-7268.66 L-14569.3,-7201.39 L-14085.1,-7685.64 L-14152.2,-7752.82 L-12689.8,-9215.25 L-12622.6,-9148.08 L-12138.4,-9632.33 L-12209.1,-9703.04 L-12240.9,-9734.83 L-12240.9,-9734.9 L-12240.9,-10034.8"/>
</g>

<g fill="none" stroke="#000000" stroke-opacity="1" stroke-width="1" stroke-linecap="square" stroke-linejoin="bevel" transform="matrix(0.999992,0,0,-0.999992,14919.7,828)"
font-family="MS Shell Dlg 2" font-size="10.3125" font-weight="400" font-style="normal" 
>
</g>

<g fill="none" stroke="#000000" stroke-opacity="1" stroke-width="1" stroke-linecap="square" stroke-linejoin="bevel" transform="matrix(0.999992,0,0,-0.999992,14919.7,828)"
font-family="MS Shell Dlg 2" font-size="10.3125" font-weight="400" font-style="normal" 
>
</g>

<g fill="#ae5151" fill-opacity="0.2" stroke="#333333" stroke-opacity="1" stroke-width="1" stroke-linecap="round" stroke-linejoin="round" transform="matrix(0.999992,0,0,-0.999992,14919.7,828)"
font-family="MS Shell Dlg 2" font-size="10.3125" font-weight="400" font-style="normal" 
>
<path vector-effect="non-scaling-stroke" fill-rule="evenodd" d="M-3551.9,-9699.6 L-3619.18,-9632.33 L-3134.92,-9148.08 L-3067.75,-9215.25 L-1605.31,-7752.82 L-1672.49,-7685.64 L-1188.24,-7201.39 L-1117.53,-7272.1 L-838.261,-7551.36 L-838.218,-7551.47 L-838.218,-11901.8 L-838.291,-11901.9 L-3566.45,-13477 L-3566.65,-13476.9 L-3566.65,-12830.7 L-3661.65,-12830.7 L-3661.65,-12133.5 L-3566.65,-12133.5 L-3566.65,-11436.3 L-3661.65,-11436.3 L-3661.65,-10739 L-3566.65,-10739 L-3566.65,-10035 L-3566.5,-10034.9 L-3516.75,-10034.9 L-3516.65,-10034.8 L-3516.65,-9734.9 L-3516.67,-9734.83 L-3551.9,-9699.6"/>
</g>

<g fill="none" stroke="#000000" stroke-opacity="1" stroke-width="1" stroke-linecap="square" stroke-linejoin="bevel" transform="matrix(0.999992,0,0,-0.999992,14919.7,828)"
font-family="MS Shell Dlg 2" font-size="10.3125" font-weight="400" font-style="normal" 
>
</g>

<g fill="none" stroke="#000000" stroke-opacity="1" stroke-width="1" stroke-linecap="square" stroke-linejoin="bevel" transform="matrix(0.999992,0,0,-0.999992,14919.7,828)"
font-family="MS Shell Dlg 2" font-size="10.3125" font-weight="400" font-style="normal" 
>
</g>

<g fill="#ae5151" fill-opacity="0.2" stroke="#333333" stroke-opacity="1" stroke-width="1" stroke-linecap="round" stroke-linejoin="round" transform="matrix(0.999992,0,0,-0.999992,14919.7,828)"
font-family="MS Shell Dlg 2" font-size="10.3125" font-weight="400" font-style="normal" 
>
<path vector-effect="non-scaling-stroke" fill-rule="evenodd" d="M-7128.64,-2072.73 L-7128.78,-2072.59 L-7128.78,827.131 L-7128.64,827.273 L-4128.92,827.273 L-4128.78,827.131 L-4128.78,-2072.59 L-4128.92,-2072.73 L-4732.36,-2072.73 L-4732.36,-2167.73 L-5329.97,-2167.73 L-5329.97,-2072.73 L-5927.58,-2072.73 L-5927.58,-2167.73 L-6525.19,-2167.73 L-6525.19,-2072.73 L-7128.64,-2072.73"/>
</g>

<g fill="none" stroke="#000000" stroke-opacity="1" stroke-width="1" stroke-linecap="square" stroke-linejoin="bevel" transform="matrix(0.999992,0,0,-0.999992,14919.7,828)"
font-family="MS Shell Dlg 2" font-size="10.3125" font-weight="400" font-style="normal" 
>
</g>

<g fill="none" stroke="#000000" stroke-opacity="1" stroke-width="1" stroke-linecap="square" stroke-linejoin="bevel" transform="matrix(0.999992,0,0,-0.999992,14919.7,828)"
font-family="MS Shell Dlg 2" font-size="10.3125" font-weight="400" font-style="normal" 
>
</g>

<g fill="#ae5151" fill-opacity="0.2" stroke="#333333" stroke-opacity="1" stroke-width="1" stroke-linecap="round" stroke-linejoin="round" transform="matrix(0.999992,0,0,-0.999992,14919.7,828)"
font-family="MS Shell Dlg 2" font-size="10.3125" font-weight="400" font-style="normal" 
>
<path vector-effect="non-scaling-stroke" fill-rule="evenodd" d="M-11628.6,-2072.73 L-11628.8,-2072.59 L-11628.8,827.131 L-11628.6,827.273 L-8628.92,827.273 L-8628.78,827.131 L-8628.78,-2072.59 L-8628.92,-2072.73 L-9232.36,-2072.73 L-9232.36,-2167.73 L-9829.97,-2167.73 L-9829.97,-2072.73 L-10427.6,-2072.73 L-10427.6,-2167.73 L-11025.2,-2167.73 L-11025.2,-2072.73 L-11628.6,-2072.73"/>
</g>

<g fill="none" stroke="#000000" stroke-opacity="1" stroke-width="1" stroke-linecap="square" stroke-linejoin="bevel" transform="matrix(0.999992,0,0,-0.999992,14919.7,828)"
font-family="MS Shell Dlg 2" font-size="10.3125" font-weight="400" font-style="normal" 
>
</g>

<g fill="none" stroke="#000000" stroke-opacity="1" stroke-width="1" stroke-linecap="square" stroke-linejoin="bevel" transform="matrix(0.999992,0,0,-0.999992,14919.7,828)"
font-family="MS Shell Dlg 2" font-size="10.3125" font-weight="400" font-style="normal" 
>
</g>

<g fill="#ae5151" fill-opacity="0.2" stroke="#333333" stroke-opacity="1" stroke-width="1" stroke-linecap="round" stroke-linejoin="round" transform="matrix(0.999992,0,0,-0.999992,14919.7,828)"
font-family="MS Shell Dlg 2" font-size="10.3125" font-weight="400" font-style="normal" 
>
<path vector-effect="non-scaling-stroke" fill-rule="evenodd" d="M-14495,-7127.24 L-14495,-7127.04 L-14212.3,-6844.34 L-14212.2,-6844.3 L-12907.3,-6844.3 L-12907.2,-6844.34 L-11278.8,-8472.7 L-11278.7,-8472.73 L-11128.9,-8472.73 L-11128.8,-8472.84 L-11121.2,-8510.98 L-11121.2,-8511.01 L-11099.5,-8543.42 L-11099.5,-8543.45 L-11067.1,-8565.1 L-11067,-8565.12 L-11028.8,-8572.73 L-11028.8,-8572.73 L-10425.2,-8572.73 L-10425.2,-8477.73 L-9827.58,-8477.73 L-9827.58,-8572.73 L-9229.97,-8572.73 L-9229.97,-8477.73 L-8632.36,-8477.73 L-8632.36,-8572.73 L-8028.79,-8572.73 L-8028.77,-8572.73 L-7990.53,-8565.12 L-7990.49,-8565.1 L-7958.08,-8543.45 L-7958.06,-8543.42 L-7936.4,-8511.01 L-7936.39,-8510.98 L-7928.8,-8472.84 L-7928.66,-8472.73 L-7828.89,-8472.73 L-7828.75,-8472.84 L-7821.17,-8510.98 L-7821.15,-8511.01 L-7799.5,-8543.42 L-7799.47,-8543.45 L-7767.06,-8565.1 L-7767.03,-8565.12 L-7728.79,-8572.73 L-7728.77,-8572.73 L-7125.19,-8572.73 L-7125.19,-8477.73 L-6527.58,-8477.73 L-6527.58,-8572.73 L-5929.97,-8572.73 L-5929.97,-8477.73 L-5332.36,-8477.73 L-5332.36,-8572.73 L-4728.79,-8572.73 L-4728.77,-8572.73 L-4690.53,-8565.12 L-4690.49,-8565.1 L-4658.08,-8543.45 L-4658.06,-8543.42 L-4636.4,-8511.01 L-4636.39,-8510.98 L-4628.8,-8472.84 L-4628.66,-8472.73 L-4478.82,-8472.73 L-4478.75,-8472.7 L-2850.39,-6844.34 L-2850.29,-6844.3 L-1545.39,-6844.3 L-1545.28,-6844.34 L-1262.58,-7127.04 L-1262.58,-7127.24 L-1751.58,-7616.24 L-1684.4,-7683.41 L-2168.65,-8167.66 L-2235.83,-8100.49 L-2720.08,-8584.74 L-2652.9,-8651.91 L-3137.15,-9136.16 L-3204.33,-9068.99 L-3693.32,-9557.98 L-3693.52,-9557.98 L-3728.75,-9522.76 L-3728.82,-9522.73 L-4028.68,-9522.73 L-4028.78,-9522.83 L-4028.78,-9572.59 L-4028.92,-9572.73 L-4803.38,-9572.73 L-4803.38,-9667.73 L-5570.31,-9667.73 L-5570.31,-9572.73 L-6337.24,-9572.73 L-6337.24,-9667.73 L-7104.18,-9667.73 L-7104.18,-9572.73 L-8653.38,-9572.73 L-8653.38,-9667.73 L-9420.31,-9667.73 L-9420.31,-9572.73 L-10187.2,-9572.73 L-10187.2,-9667.73 L-10954.2,-9667.73 L-10954.2,-9572.73 L-11728.6,-9572.73 L-11728.8,-9572.59 L-11728.8,-9522.83 L-11728.9,-9522.73 L-12028.7,-9522.73 L-12028.8,-9522.76 L-12064,-9557.98 L-12064.2,-9557.98 L-12553.2,-9068.99 L-12620.4,-9136.16 L-13104.7,-8651.91 L-13037.5,-8584.74 L-13521.7,-8100.49 L-13588.9,-8167.66 L-14073.2,-7683.41 L-14006,-7616.24 L-14495,-7127.24"/>
</g>

<g fill="none" stroke="#000000" stroke-opacity="1" stroke-width="1" stroke-linecap="square" stroke-linejoin="bevel" transform="matrix(0.999992,0,0,-0.999992,14919.7,828)"
font-family="MS Shell Dlg 2" font-size="10.3125" font-weight="400" font-style="normal" 
>
</g>

<g fill="none" stroke="#000000" stroke-opacity="1" stroke-width="1" stroke-linecap="square" stroke-linejoin="bevel" transform="matrix(0.999992,0,0,-0.999992,14919.7,828)"
font-family="MS Shell Dlg 2" font-size="10.3125" font-weight="400" font-style="normal" 
>
</g>

<g fill="#ae5151" fill-opacity="0.2" stroke="#333333" stroke-opacity="1" stroke-width="1" stroke-linecap="round" stroke-linejoin="round" transform="matrix(0.999992,0,0,-0.999992,14919.7,828)"
font-family="MS Shell Dlg 2" font-size="10.3125" font-weight="400" font-style="normal" 
>
<path vector-effect="non-scaling-stroke" fill-rule="evenodd" d="M-7718.78,-8367.73 L-7138.14,-2271.02 L-7137.97,-2270.9 L-7128.79,-2272.73 L-7128.78,-2272.73 L-7128.78,-2177.73 L-6531.17,-2177.73 L-6531.17,-2272.73 L-4726.39,-2272.73 L-4726.39,-2177.73 L-4128.78,-2177.73 L-4128.78,-2277.73 L-4138.78,-2277.73 L-4719.42,-8374.43 L-4719.58,-8374.56 L-4728.77,-8372.73 L-4728.78,-8372.73 L-4728.78,-8467.73 L-5326.39,-8467.73 L-5326.39,-8372.73 L-7131.17,-8372.73 L-7131.17,-8467.73 L-7728.78,-8467.73 L-7728.78,-8367.73 L-7718.78,-8367.73"/>
</g>

<g fill="none" stroke="#000000" stroke-opacity="1" stroke-width="1" stroke-linecap="square" stroke-linejoin="bevel" transform="matrix(0.999992,0,0,-0.999992,14919.7,828)"
font-family="MS Shell Dlg 2" font-size="10.3125" font-weight="400" font-style="normal" 
>
</g>

<g fill="none" stroke="#000000" stroke-opacity="1" stroke-width="1" stroke-linecap="square" stroke-linejoin="bevel" transform="matrix(0.999992,0,0,-0.999992,14919.7,828)"
font-family="MS Shell Dlg 2" font-size="10.3125" font-weight="400" font-style="normal" 
>
</g>

<g fill="#ae5151" fill-opacity="0.2" stroke="#333333" stroke-opacity="1" stroke-width="1" stroke-linecap="round" stroke-linejoin="round" transform="matrix(0.999992,0,0,-0.999992,14919.7,828)"
font-family="MS Shell Dlg 2" font-size="10.3125" font-weight="400" font-style="normal" 
>
<path vector-effect="non-scaling-stroke" fill-rule="evenodd" d="M-11038,-8374.56 L-11038.1,-8374.43 L-11618.8,-2277.73 L-11628.8,-2277.73 L-11628.8,-2177.73 L-11031.2,-2177.73 L-11031.2,-2272.73 L-9226.39,-2272.73 L-9226.39,-2177.73 L-8628.78,-2177.73 L-8628.78,-2272.73 L-8628.77,-2272.73 L-8619.58,-2270.9 L-8619.42,-2271.02 L-8038.78,-8367.73 L-8028.78,-8367.73 L-8028.78,-8467.73 L-8626.39,-8467.73 L-8626.39,-8372.73 L-10431.2,-8372.73 L-10431.2,-8467.73 L-11028.8,-8467.73 L-11028.8,-8372.73 L-11028.8,-8372.73 L-11038,-8374.56"/>
</g>

<g fill="none" stroke="#000000" stroke-opacity="1" stroke-width="1" stroke-linecap="square" stroke-linejoin="bevel" transform="matrix(0.999992,0,0,-0.999992,14919.7,828)"
font-family="MS Shell Dlg 2" font-size="10.3125" font-weight="400" font-style="normal" 
>
</g>

<g fill="none" stroke="#000000" stroke-opacity="1" stroke-width="1" stroke-linecap="square" stroke-linejoin="bevel" transform="matrix(0.999992,0,0,-0.999992,14919.7,828)"
font-family="MS Shell Dlg 2" font-size="10.3125" font-weight="400" font-style="normal" 
>
</g>

<g fill="#ae5151" fill-opacity="0.2" stroke="#333333" stroke-opacity="1" stroke-width="1" stroke-linecap="round" stroke-linejoin="round" transform="matrix(0.999992,0,0,-0.999992,14919.7,828)"
font-family="MS Shell Dlg 2" font-size="10.3125" font-weight="400" font-style="normal" 
>
<path vector-effect="non-scaling-stroke" fill-rule="evenodd" d="M-7166.65,-13384.9 L-7166.67,-13384.8 L-7201.9,-13349.6 L-7269.18,-13282.3 L-6601.84,-12615 L-6534.67,-12682.2 L-4519.33,-10666.8 L-4586.51,-10599.7 L-3919.18,-9932.33 L-3848.46,-10003 L-3816.67,-10034.8 L-3816.6,-10034.9 L-3766.79,-10034.9 L-3671.65,-10034.9 L-3671.65,-10732.1 L-3766.65,-10732.1 L-3766.65,-12837.6 L-3671.65,-12837.6 L-3671.65,-13534.9 L-3766.64,-13534.9 L-3766.64,-13534.9 L-3759.04,-13573.1 L-3759.02,-13573.1 L-3737.37,-13605.6 L-3737.34,-13605.6 L-3704.93,-13627.2 L-3704.89,-13627.3 L-3666.76,-13634.8 L-3666.65,-13635 L-3666.65,-13784.7 L-3666.79,-13784.9 L-4370.83,-13784.9 L-4370.83,-13879.9 L-5068.04,-13879.9 L-5068.04,-13784.9 L-5765.25,-13784.9 L-5765.25,-13879.9 L-6462.46,-13879.9 L-6462.46,-13784.9 L-7166.5,-13784.9 L-7166.65,-13784.7 L-7166.65,-13384.9"/>
</g>

<g fill="none" stroke="#000000" stroke-opacity="1" stroke-width="1" stroke-linecap="square" stroke-linejoin="bevel" transform="matrix(0.999992,0,0,-0.999992,14919.7,828)"
font-family="MS Shell Dlg 2" font-size="10.3125" font-weight="400" font-style="normal" 
>
</g>

<g fill="none" stroke="#000000" stroke-opacity="1" stroke-width="1" stroke-linecap="square" stroke-linejoin="bevel" transform="matrix(0.999992,0,0,-0.999992,14919.7,828)"
font-family="MS Shell Dlg 2" font-size="10.3125" font-weight="400" font-style="normal" 
>
</g>

<g fill="#ae5151" fill-opacity="0.2" stroke="#333333" stroke-opacity="1" stroke-width="1" stroke-linecap="round" stroke-linejoin="round" transform="matrix(0.999992,0,0,-0.999992,14919.7,828)"
font-family="MS Shell Dlg 2" font-size="10.3125" font-weight="400" font-style="normal" 
>
<path vector-effect="non-scaling-stroke" fill-rule="evenodd" d="M-12090.8,-13784.9 L-12090.9,-13784.7 L-12090.9,-13635 L-12090.8,-13634.8 L-12052.7,-13627.3 L-12052.6,-13627.2 L-12020.2,-13605.6 L-12020.2,-13605.6 L-11998.5,-13573.1 L-11998.5,-13573.1 L-11990.9,-13534.9 L-11990.9,-13534.8 L-11990.9,-12830.7 L-12085.9,-12830.7 L-12085.9,-12133.5 L-11990.9,-12133.5 L-11990.9,-11436.3 L-12085.9,-11436.3 L-12085.9,-10739 L-11990.9,-10739 L-11990.9,-10035 L-11990.8,-10034.9 L-11941,-10034.9 L-11940.9,-10034.8 L-11905.7,-9999.6 L-11838.4,-9932.33 L-11171,-10599.7 L-11238.2,-10666.8 L-9222.88,-12682.2 L-9155.71,-12615 L-8488.38,-13282.3 L-8559.09,-13353 L-8590.88,-13384.8 L-8590.91,-13384.9 L-8590.91,-13784.7 L-8591.05,-13784.9 L-9295.09,-13784.9 L-9295.09,-13879.9 L-9992.3,-13879.9 L-9992.3,-13784.9 L-10689.5,-13784.9 L-10689.5,-13879.9 L-11386.7,-13879.9 L-11386.7,-13784.9 L-12090.8,-13784.9"/>
</g>

<g fill="none" stroke="#000000" stroke-opacity="1" stroke-width="1" stroke-linecap="square" stroke-linejoin="bevel" transform="matrix(0.999992,0,0,-0.999992,14919.7,828)"
font-family="MS Shell Dlg 2" font-size="10.3125" font-weight="400" font-style="normal" 
>
</g>

<g fill="none" stroke="#000000" stroke-opacity="1" stroke-width="1" stroke-linecap="square" stroke-linejoin="bevel" transform="matrix(0.999992,0,0,-0.999992,14919.7,828)"
font-family="MS Shell Dlg 2" font-size="10.3125" font-weight="400" font-style="normal" 
>
</g>

<g fill="#ae5151" fill-opacity="0.2" stroke="#333333" stroke-opacity="1" stroke-width="1" stroke-linecap="round" stroke-linejoin="round" transform="matrix(0.999992,0,0,-0.999992,14919.7,828)"
font-family="MS Shell Dlg 2" font-size="10.3125" font-weight="400" font-style="normal" 
>
<path vector-effect="non-scaling-stroke" fill-rule="evenodd" d="M-11728.8,-9822.76 L-11728.8,-9822.69 L-11728.8,-9772.87 L-11728.8,-9677.73 L-10961.8,-9677.73 L-10961.8,-9772.73 L-8645.71,-9772.73 L-8645.71,-9677.73 L-7878.78,-9677.73 L-7111.84,-9677.73 L-7111.84,-9772.73 L-4795.71,-9772.73 L-4795.71,-9677.73 L-4028.78,-9677.73 L-4028.78,-9777.73 L-4028.78,-9822.69 L-4028.75,-9822.76 L-3993.52,-9857.98 L-3993.52,-9858.18 L-4667.43,-10532.1 L-4600.25,-10599.3 L-5267.58,-11266.6 L-5334.76,-11199.4 L-6002.09,-11866.7 L-5934.91,-11933.9 L-6602.24,-12601.3 L-6669.42,-12534.1 L-7343.32,-13208 L-7343.52,-13208 L-7378.75,-13172.8 L-7378.82,-13172.7 L-8378.74,-13172.7 L-8378.81,-13172.8 L-8414.03,-13208 L-8414.23,-13208 L-9088.14,-12534.1 L-9155.31,-12601.3 L-9822.64,-11933.9 L-9755.47,-11866.7 L-10422.8,-11199.4 L-10490,-11266.6 L-11157.3,-10599.3 L-11090.1,-10532.1 L-11764,-9858.18 L-11764,-9857.98 L-11728.8,-9822.76 M-9138.78,-11972.7 L-9138.78,-11972.7 L-9138.02,-11976.5 L-9138,-11976.6 L-9135.86,-11979.8 L-9135.83,-11979.8 L-9132.62,-11982 L-9132.58,-11982 L-9128.79,-11982.7 L-9128.77,-11982.7 L-6628.79,-11982.7 L-6628.77,-11982.7 L-6624.97,-11982 L-6624.93,-11982 L-6621.72,-11979.8 L-6621.69,-11979.8 L-6619.55,-11976.6 L-6619.53,-11976.5 L-6618.78,-11972.7 L-6618.78,-11972.7 L-6618.78,-10597 L-6618.78,-10597 L-6619.53,-10593.2 L-6619.55,-10593.1 L-6621.69,-10589.9 L-6621.72,-10589.9 L-6624.93,-10587.8 L-6624.97,-10587.7 L-6628.76,-10587 L-6628.8,-10587 L-6632.58,-10587.7 L-6632.62,-10587.8 L-6635.83,-10589.9 L-6635.86,-10589.9 L-6638,-10593.1 L-6638.02,-10593.2 L-6638.78,-10597 L-6638.78,-10597 L-6638.78,-11962.6 L-6638.92,-11962.7 L-9118.64,-11962.7 L-9118.78,-11962.6 L-9118.78,-10597 L-9118.78,-10597 L-9119.53,-10593.2 L-9119.55,-10593.1 L-9121.69,-10589.9 L-9121.72,-10589.9 L-9124.93,-10587.8 L-9124.97,-10587.7 L-9128.76,-10587 L-9128.8,-10587 L-9132.58,-10587.7 L-9132.62,-10587.8 L-9135.83,-10589.9 L-9135.86,-10589.9 L-9138,-10593.1 L-9138.02,-10593.2 L-9138.78,-10597 L-9138.78,-10597 L-9138.78,-11972.7"/>
</g>

<g fill="none" stroke="#000000" stroke-opacity="1" stroke-width="1" stroke-linecap="square" stroke-linejoin="bevel" transform="matrix(0.999992,0,0,-0.999992,14919.7,828)"
font-family="MS Shell Dlg 2" font-size="10.3125" font-weight="400" font-style="normal" 
>
</g>

<g fill="none" stroke="#000000" stroke-opacity="1" stroke-width="1" stroke-linecap="square" stroke-linejoin="bevel" transform="matrix(0.999992,0,0,-0.999992,14919.7,828)"
font-family="MS Shell Dlg 2" font-size="10.3125" font-weight="400" font-style="normal" 
>
</g>

<g fill="#333333" fill-opacity="0.2" stroke="#333333" stroke-opacity="1" stroke-width="1" stroke-linecap="round" stroke-linejoin="round" transform="matrix(0.999992,0,0,-0.999992,14919.7,828)"
font-family="MS Shell Dlg 2" font-size="10.3125" font-weight="400" font-style="normal" 
>
<path vector-effect="non-scaling-stroke" fill-rule="evenodd" d="M-6128.78,-25199.9 L-6128.78,-27094.7 L-6128.92,-27094.9 L-9628.64,-27094.9 L-9628.78,-27094.7 L-9628.78,-25195 L-9628.78,-25099.9 L-8931.57,-25099.9 L-8931.57,-25194.9 L-6825.99,-25194.9 L-6825.99,-25099.9 L-6128.78,-25099.9 L-6128.78,-25199.9"/>
</g>

<g fill="none" stroke="#000000" stroke-opacity="1" stroke-width="1" stroke-linecap="square" stroke-linejoin="bevel" transform="matrix(0.999992,0,0,-0.999992,14919.7,828)"
font-family="MS Shell Dlg 2" font-size="10.3125" font-weight="400" font-style="normal" 
>
</g>

<g fill="none" stroke="#000000" stroke-opacity="1" stroke-width="1" stroke-linecap="square" stroke-linejoin="bevel" transform="matrix(0.999992,0,0,-0.999992,14919.7,828)"
font-family="MS Shell Dlg 2" font-size="10.3125" font-weight="400" font-style="normal" 
>
</g>

<g fill="#333333" fill-opacity="0.2" stroke="#333333" stroke-opacity="1" stroke-width="1" stroke-linecap="round" stroke-linejoin="round" transform="matrix(0.999992,0,0,-0.999992,14919.7,828)"
font-family="MS Shell Dlg 2" font-size="10.3125" font-weight="400" font-style="normal" 
>
<path vector-effect="non-scaling-stroke" fill-rule="evenodd" d="M-9628.78,-20559.2 L-9628.81,-20559.1 L-12020.1,-18167.8 L-12087.4,-18100.5 L-11369,-17382.2 L-11301.9,-17449.4 L-9132.47,-15280 L-9199.65,-15212.8 L-8481.31,-14494.5 L-8410.6,-14565.2 L-8378.81,-14597 L-8378.74,-14597 L-7378.82,-14597 L-7378.75,-14597 L-7343.52,-14561.7 L-7276.25,-14494.5 L-6557.91,-15212.8 L-6625.08,-15280 L-4455.7,-17449.4 L-4388.52,-17382.2 L-3670.18,-18100.5 L-3740.89,-18171.2 L-6128.75,-20559.1 L-6128.78,-20559.2 L-6128.78,-24994.7 L-6128.92,-24994.9 L-6832.96,-24994.9 L-6832.96,-25089.9 L-7530.17,-25089.9 L-7530.17,-24994.9 L-8227.38,-24994.9 L-8227.38,-25089.9 L-8924.59,-25089.9 L-8924.59,-24994.9 L-9628.64,-24994.9 L-9628.78,-24994.7 L-9628.78,-20559.2"/>
</g>

<g fill="none" stroke="#000000" stroke-opacity="1" stroke-width="1" stroke-linecap="square" stroke-linejoin="bevel" transform="matrix(0.999992,0,0,-0.999992,14919.7,828)"
font-family="MS Shell Dlg 2" font-size="10.3125" font-weight="400" font-style="normal" 
>
</g>

<g fill="none" stroke="#000000" stroke-opacity="1" stroke-width="1" stroke-linecap="square" stroke-linejoin="bevel" transform="matrix(0.999992,0,0,-0.999992,14919.7,828)"
font-family="MS Shell Dlg 2" font-size="10.3125" font-weight="400" font-style="normal" 
>
</g>

<g fill="#333333" fill-opacity="0.2" stroke="#333333" stroke-opacity="1" stroke-width="1" stroke-linecap="round" stroke-linejoin="round" transform="matrix(0.999992,0,0,-0.999992,14919.7,828)"
font-family="MS Shell Dlg 2" font-size="10.3125" font-weight="400" font-style="normal" 
>
<path vector-effect="non-scaling-stroke" fill-rule="evenodd" d="M-7166.67,-14384.9 L-7166.65,-14384.8 L-7166.65,-13985 L-7166.65,-13889.9 L-6469.43,-13889.9 L-6469.43,-13984.9 L-4363.86,-13984.9 L-4363.86,-13889.9 L-3666.65,-13889.9 L-3666.65,-13989.9 L-3666.65,-17955.3 L-3666.71,-17955.4 L-3666.84,-17955.4 L-4321.46,-17300.8 L-4388.63,-17367.9 L-5106.97,-16649.6 L-5039.8,-16582.4 L-5758.14,-15864.1 L-5825.31,-15931.3 L-6543.65,-15212.9 L-6476.48,-15145.7 L-7201.9,-14420.3 L-7201.9,-14420.1 L-7166.67,-14384.9"/>
</g>

<g fill="none" stroke="#000000" stroke-opacity="1" stroke-width="1" stroke-linecap="square" stroke-linejoin="bevel" transform="matrix(0.999992,0,0,-0.999992,14919.7,828)"
font-family="MS Shell Dlg 2" font-size="10.3125" font-weight="400" font-style="normal" 
>
</g>

<g fill="none" stroke="#000000" stroke-opacity="1" stroke-width="1" stroke-linecap="square" stroke-linejoin="bevel" transform="matrix(0.999992,0,0,-0.999992,14919.7,828)"
font-family="MS Shell Dlg 2" font-size="10.3125" font-weight="400" font-style="normal" 
>
</g>

<g fill="#333333" fill-opacity="0.2" stroke="#333333" stroke-opacity="1" stroke-width="1" stroke-linecap="round" stroke-linejoin="round" transform="matrix(0.999992,0,0,-0.999992,14919.7,828)"
font-family="MS Shell Dlg 2" font-size="10.3125" font-weight="400" font-style="normal" 
>
<path vector-effect="non-scaling-stroke" fill-rule="evenodd" d="M-12090.7,-17955.4 L-12090.9,-17955.3 L-12090.9,-13985 L-12090.9,-13889.9 L-11393.7,-13889.9 L-11393.7,-13984.9 L-9288.12,-13984.9 L-9288.12,-13889.9 L-8590.91,-13889.9 L-8590.91,-13989.9 L-8590.91,-14384.8 L-8590.88,-14384.9 L-8555.65,-14420.1 L-8555.65,-14420.3 L-9281.08,-15145.7 L-9213.9,-15212.9 L-9932.24,-15931.3 L-9999.42,-15864.1 L-10717.8,-16582.4 L-10650.6,-16649.6 L-11368.9,-17367.9 L-11436.1,-17300.8 L-12090.7,-17955.4"/>
</g>

<g fill="none" stroke="#000000" stroke-opacity="1" stroke-width="1" stroke-linecap="square" stroke-linejoin="bevel" transform="matrix(0.999992,0,0,-0.999992,14919.7,828)"
font-family="MS Shell Dlg 2" font-size="10.3125" font-weight="400" font-style="normal" 
>
</g>

<g fill="none" stroke="#000000" stroke-opacity="1" stroke-width="1" stroke-linecap="square" stroke-linejoin="bevel" transform="matrix(0.999992,0,0,-0.999992,14919.7,828)"
font-family="MS Shell Dlg 2" font-size="10.3125" font-weight="400" font-style="normal" 
>
</g>

<g fill="#333333" fill-opacity="0.2" stroke="#333333" stroke-opacity="1" stroke-width="1" stroke-linecap="round" stroke-linejoin="round" transform="matrix(0.999992,0,0,-0.999992,14919.7,828)"
font-family="MS Shell Dlg 2" font-size="10.3125" font-weight="400" font-style="normal" 
>
<path vector-effect="non-scaling-stroke" fill-rule="evenodd" d="M-12240.9,-10034.8 L-12240.8,-10034.9 L-12191.1,-10034.9 L-12095.9,-10034.9 L-12095.9,-10732.1 L-12190.9,-10732.1 L-12190.9,-12837.6 L-12095.9,-12837.6 L-12095.9,-13534.9 L-12195.9,-13534.9 L-12195.9,-13474.2 L-14919.3,-11901.9 L-14919.3,-11901.8 L-14919.3,-7551.47 L-14919.3,-7551.36 L-14636.6,-7268.66 L-14569.3,-7201.39 L-14085.1,-7685.64 L-14152.2,-7752.82 L-12689.8,-9215.25 L-12622.6,-9148.08 L-12138.4,-9632.33 L-12209.1,-9703.04 L-12240.9,-9734.83 L-12240.9,-9734.9 L-12240.9,-10034.8"/>
</g>

<g fill="none" stroke="#000000" stroke-opacity="1" stroke-width="1" stroke-linecap="square" stroke-linejoin="bevel" transform="matrix(0.999992,0,0,-0.999992,14919.7,828)"
font-family="MS Shell Dlg 2" font-size="10.3125" font-weight="400" font-style="normal" 
>
</g>

<g fill="none" stroke="#000000" stroke-opacity="1" stroke-width="1" stroke-linecap="square" stroke-linejoin="bevel" transform="matrix(0.999992,0,0,-0.999992,14919.7,828)"
font-family="MS Shell Dlg 2" font-size="10.3125" font-weight="400" font-style="normal" 
>
</g>

<g fill="#333333" fill-opacity="0.2" stroke="#333333" stroke-opacity="1" stroke-width="1" stroke-linecap="round" stroke-linejoin="round" transform="matrix(0.999992,0,0,-0.999992,14919.7,828)"
font-family="MS Shell Dlg 2" font-size="10.3125" font-weight="400" font-style="normal" 
>
<path vector-effect="non-scaling-stroke" fill-rule="evenodd" d="M-3551.9,-9699.6 L-3619.18,-9632.33 L-3134.92,-9148.08 L-3067.75,-9215.25 L-1605.31,-7752.82 L-1672.49,-7685.64 L-1188.24,-7201.39 L-1117.53,-7272.1 L-838.261,-7551.36 L-838.218,-7551.47 L-838.218,-11901.8 L-838.291,-11901.9 L-3566.45,-13477 L-3566.65,-13476.9 L-3566.65,-12830.7 L-3661.65,-12830.7 L-3661.65,-12133.5 L-3566.65,-12133.5 L-3566.65,-11436.3 L-3661.65,-11436.3 L-3661.65,-10739 L-3566.65,-10739 L-3566.65,-10035 L-3566.5,-10034.9 L-3516.75,-10034.9 L-3516.65,-10034.8 L-3516.65,-9734.9 L-3516.67,-9734.83 L-3551.9,-9699.6"/>
</g>

<g fill="none" stroke="#000000" stroke-opacity="1" stroke-width="1" stroke-linecap="square" stroke-linejoin="bevel" transform="matrix(0.999992,0,0,-0.999992,14919.7,828)"
font-family="MS Shell Dlg 2" font-size="10.3125" font-weight="400" font-style="normal" 
>
</g>

<g fill="none" stroke="#000000" stroke-opacity="1" stroke-width="1" stroke-linecap="square" stroke-linejoin="bevel" transform="matrix(0.999992,0,0,-0.999992,14919.7,828)"
font-family="MS Shell Dlg 2" font-size="10.3125" font-weight="400" font-style="normal" 
>
</g>

<g fill="#333333" fill-opacity="0.2" stroke="#333333" stroke-opacity="1" stroke-width="1" stroke-linecap="round" stroke-linejoin="round" transform="matrix(0.999992,0,0,-0.999992,14919.7,828)"
font-family="MS Shell Dlg 2" font-size="10.3125" font-weight="400" font-style="normal" 
>
<path vector-effect="non-scaling-stroke" fill-rule="evenodd" d="M-7128.64,-2072.73 L-7128.78,-2072.59 L-7128.78,827.131 L-7128.64,827.273 L-4128.92,827.273 L-4128.78,827.131 L-4128.78,-2072.59 L-4128.92,-2072.73 L-4732.36,-2072.73 L-4732.36,-2167.73 L-5329.97,-2167.73 L-5329.97,-2072.73 L-5927.58,-2072.73 L-5927.58,-2167.73 L-6525.19,-2167.73 L-6525.19,-2072.73 L-7128.64,-2072.73"/>
</g>

<g fill="none" stroke="#000000" stroke-opacity="1" stroke-width="1" stroke-linecap="square" stroke-linejoin="bevel" transform="matrix(0.999992,0,0,-0.999992,14919.7,828)"
font-family="MS Shell Dlg 2" font-size="10.3125" font-weight="400" font-style="normal" 
>
</g>

<g fill="none" stroke="#000000" stroke-opacity="1" stroke-width="1" stroke-linecap="square" stroke-linejoin="bevel" transform="matrix(0.999992,0,0,-0.999992,14919.7,828)"
font-family="MS Shell Dlg 2" font-size="10.3125" font-weight="400" font-style="normal" 
>
</g>

<g fill="#333333" fill-opacity="0.2" stroke="#333333" stroke-opacity="1" stroke-width="1" stroke-linecap="round" stroke-linejoin="round" transform="matrix(0.999992,0,0,-0.999992,14919.7,828)"
font-family="MS Shell Dlg 2" font-size="10.3125" font-weight="400" font-style="normal" 
>
<path vector-effect="non-scaling-stroke" fill-rule="evenodd" d="M-11628.6,-2072.73 L-11628.8,-2072.59 L-11628.8,827.131 L-11628.6,827.273 L-8628.92,827.273 L-8628.78,827.131 L-8628.78,-2072.59 L-8628.92,-2072.73 L-9232.36,-2072.73 L-9232.36,-2167.73 L-9829.97,-2167.73 L-9829.97,-2072.73 L-10427.6,-2072.73 L-10427.6,-2167.73 L-11025.2,-2167.73 L-11025.2,-2072.73 L-11628.6,-2072.73"/>
</g>

<g fill="none" stroke="#000000" stroke-opacity="1" stroke-width="1" stroke-linecap="square" stroke-linejoin="bevel" transform="matrix(0.999992,0,0,-0.999992,14919.7,828)"
font-family="MS Shell Dlg 2" font-size="10.3125" font-weight="400" font-style="normal" 
>
</g>

<g fill="none" stroke="#000000" stroke-opacity="1" stroke-width="1" stroke-linecap="square" stroke-linejoin="bevel" transform="matrix(0.999992,0,0,-0.999992,14919.7,828)"
font-family="MS Shell Dlg 2" font-size="10.3125" font-weight="400" font-style="normal" 
>
</g>

<g fill="#333333" fill-opacity="0.2" stroke="#333333" stroke-opacity="1" stroke-width="1" stroke-linecap="round" stroke-linejoin="round" transform="matrix(0.999992,0,0,-0.999992,14919.7,828)"
font-family="MS Shell Dlg 2" font-size="10.3125" font-weight="400" font-style="normal" 
>
<path vector-effect="non-scaling-stroke" fill-rule="evenodd" d="M-14495,-7127.24 L-14495,-7127.04 L-14212.3,-6844.34 L-14212.2,-6844.3 L-12907.3,-6844.3 L-12907.2,-6844.34 L-11278.8,-8472.7 L-11278.7,-8472.73 L-11128.9,-8472.73 L-11128.8,-8472.84 L-11121.2,-8510.98 L-11121.2,-8511.01 L-11099.5,-8543.42 L-11099.5,-8543.45 L-11067.1,-8565.1 L-11067,-8565.12 L-11028.8,-8572.73 L-11028.8,-8572.73 L-10425.2,-8572.73 L-10425.2,-8477.73 L-9827.58,-8477.73 L-9827.58,-8572.73 L-9229.97,-8572.73 L-9229.97,-8477.73 L-8632.36,-8477.73 L-8632.36,-8572.73 L-8028.79,-8572.73 L-8028.77,-8572.73 L-7990.53,-8565.12 L-7990.49,-8565.1 L-7958.08,-8543.45 L-7958.06,-8543.42 L-7936.4,-8511.01 L-7936.39,-8510.98 L-7928.8,-8472.84 L-7928.66,-8472.73 L-7828.89,-8472.73 L-7828.75,-8472.84 L-7821.17,-8510.98 L-7821.15,-8511.01 L-7799.5,-8543.42 L-7799.47,-8543.45 L-7767.06,-8565.1 L-7767.03,-8565.12 L-7728.79,-8572.73 L-7728.77,-8572.73 L-7125.19,-8572.73 L-7125.19,-8477.73 L-6527.58,-8477.73 L-6527.58,-8572.73 L-5929.97,-8572.73 L-5929.97,-8477.73 L-5332.36,-8477.73 L-5332.36,-8572.73 L-4728.79,-8572.73 L-4728.77,-8572.73 L-4690.53,-8565.12 L-4690.49,-8565.1 L-4658.08,-8543.45 L-4658.06,-8543.42 L-4636.4,-8511.01 L-4636.39,-8510.98 L-4628.8,-8472.84 L-4628.66,-8472.73 L-4478.82,-8472.73 L-4478.75,-8472.7 L-2850.39,-6844.34 L-2850.29,-6844.3 L-1545.39,-6844.3 L-1545.28,-6844.34 L-1262.58,-7127.04 L-1262.58,-7127.24 L-1751.58,-7616.24 L-1684.4,-7683.41 L-2168.65,-8167.66 L-2235.83,-8100.49 L-2720.08,-8584.74 L-2652.9,-8651.91 L-3137.15,-9136.16 L-3204.33,-9068.99 L-3693.32,-9557.98 L-3693.52,-9557.98 L-3728.75,-9522.76 L-3728.82,-9522.73 L-4028.68,-9522.73 L-4028.78,-9522.83 L-4028.78,-9572.59 L-4028.92,-9572.73 L-4803.38,-9572.73 L-4803.38,-9667.73 L-5570.31,-9667.73 L-5570.31,-9572.73 L-6337.24,-9572.73 L-6337.24,-9667.73 L-7104.18,-9667.73 L-7104.18,-9572.73 L-8653.38,-9572.73 L-8653.38,-9667.73 L-9420.31,-9667.73 L-9420.31,-9572.73 L-10187.2,-9572.73 L-10187.2,-9667.73 L-10954.2,-9667.73 L-10954.2,-9572.73 L-11728.6,-9572.73 L-11728.8,-9572.59 L-11728.8,-9522.83 L-11728.9,-9522.73 L-12028.7,-9522.73 L-12028.8,-9522.76 L-12064,-9557.98 L-12064.2,-9557.98 L-12553.2,-9068.99 L-12620.4,-9136.16 L-13104.7,-8651.91 L-13037.5,-8584.74 L-13521.7,-8100.49 L-13588.9,-8167.66 L-14073.2,-7683.41 L-14006,-7616.24 L-14495,-7127.24"/>
</g>

<g fill="none" stroke="#000000" stroke-opacity="1" stroke-width="1" stroke-linecap="square" stroke-linejoin="bevel" transform="matrix(0.999992,0,0,-0.999992,14919.7,828)"
font-family="MS Shell Dlg 2" font-size="10.3125" font-weight="400" font-style="normal" 
>
</g>

<g fill="none" stroke="#000000" stroke-opacity="1" stroke-width="1" stroke-linecap="square" stroke-linejoin="bevel" transform="matrix(0.999992,0,0,-0.999992,14919.7,828)"
font-family="MS Shell Dlg 2" font-size="10.3125" font-weight="400" font-style="normal" 
>
</g>

<g fill="#333333" fill-opacity="0.2" stroke="#333333" stroke-opacity="1" stroke-width="1" stroke-linecap="round" stroke-linejoin="round" transform="matrix(0.999992,0,0,-0.999992,14919.7,828)"
font-family="MS Shell Dlg 2" font-size="10.3125" font-weight="400" font-style="normal" 
>
<path vector-effect="non-scaling-stroke" fill-rule="evenodd" d="M-7718.78,-8367.73 L-7138.14,-2271.02 L-7137.97,-2270.9 L-7128.79,-2272.73 L-7128.78,-2272.73 L-7128.78,-2177.73 L-6531.17,-2177.73 L-6531.17,-2272.73 L-4726.39,-2272.73 L-4726.39,-2177.73 L-4128.78,-2177.73 L-4128.78,-2277.73 L-4138.78,-2277.73 L-4719.42,-8374.43 L-4719.58,-8374.56 L-4728.77,-8372.73 L-4728.78,-8372.73 L-4728.78,-8467.73 L-5326.39,-8467.73 L-5326.39,-8372.73 L-7131.17,-8372.73 L-7131.17,-8467.73 L-7728.78,-8467.73 L-7728.78,-8367.73 L-7718.78,-8367.73"/>
</g>

<g fill="none" stroke="#000000" stroke-opacity="1" stroke-width="1" stroke-linecap="square" stroke-linejoin="bevel" transform="matrix(0.999992,0,0,-0.999992,14919.7,828)"
font-family="MS Shell Dlg 2" font-size="10.3125" font-weight="400" font-style="normal" 
>
</g>

<g fill="none" stroke="#000000" stroke-opacity="1" stroke-width="1" stroke-linecap="square" stroke-linejoin="bevel" transform="matrix(0.999992,0,0,-0.999992,14919.7,828)"
font-family="MS Shell Dlg 2" font-size="10.3125" font-weight="400" font-style="normal" 
>
</g>

<g fill="#333333" fill-opacity="0.2" stroke="#333333" stroke-opacity="1" stroke-width="1" stroke-linecap="round" stroke-linejoin="round" transform="matrix(0.999992,0,0,-0.999992,14919.7,828)"
font-family="MS Shell Dlg 2" font-size="10.3125" font-weight="400" font-style="normal" 
>
<path vector-effect="non-scaling-stroke" fill-rule="evenodd" d="M-11038,-8374.56 L-11038.1,-8374.43 L-11618.8,-2277.73 L-11628.8,-2277.73 L-11628.8,-2177.73 L-11031.2,-2177.73 L-11031.2,-2272.73 L-9226.39,-2272.73 L-9226.39,-2177.73 L-8628.78,-2177.73 L-8628.78,-2272.73 L-8628.77,-2272.73 L-8619.58,-2270.9 L-8619.42,-2271.02 L-8038.78,-8367.73 L-8028.78,-8367.73 L-8028.78,-8467.73 L-8626.39,-8467.73 L-8626.39,-8372.73 L-10431.2,-8372.73 L-10431.2,-8467.73 L-11028.8,-8467.73 L-11028.8,-8372.73 L-11028.8,-8372.73 L-11038,-8374.56"/>
</g>

<g fill="none" stroke="#000000" stroke-opacity="1" stroke-width="1" stroke-linecap="square" stroke-linejoin="bevel" transform="matrix(0.999992,0,0,-0.999992,14919.7,828)"
font-family="MS Shell Dlg 2" font-size="10.3125" font-weight="400" font-style="normal" 
>
</g>

<g fill="none" stroke="#000000" stroke-opacity="1" stroke-width="1" stroke-linecap="square" stroke-linejoin="bevel" transform="matrix(0.999992,0,0,-0.999992,14919.7,828)"
font-family="MS Shell Dlg 2" font-size="10.3125" font-weight="400" font-style="normal" 
>
</g>

<g fill="#333333" fill-opacity="0.2" stroke="#333333" stroke-opacity="1" stroke-width="1" stroke-linecap="round" stroke-linejoin="round" transform="matrix(0.999992,0,0,-0.999992,14919.7,828)"
font-family="MS Shell Dlg 2" font-size="10.3125" font-weight="400" font-style="normal" 
>
<path vector-effect="non-scaling-stroke" fill-rule="evenodd" d="M-7166.65,-13384.9 L-7166.67,-13384.8 L-7201.9,-13349.6 L-7269.18,-13282.3 L-6601.84,-12615 L-6534.67,-12682.2 L-4519.33,-10666.8 L-4586.51,-10599.7 L-3919.18,-9932.33 L-3848.46,-10003 L-3816.67,-10034.8 L-3816.6,-10034.9 L-3766.79,-10034.9 L-3671.65,-10034.9 L-3671.65,-10732.1 L-3766.65,-10732.1 L-3766.65,-12837.6 L-3671.65,-12837.6 L-3671.65,-13534.9 L-3766.64,-13534.9 L-3766.64,-13534.9 L-3759.04,-13573.1 L-3759.02,-13573.1 L-3737.37,-13605.6 L-3737.34,-13605.6 L-3704.93,-13627.2 L-3704.89,-13627.3 L-3666.76,-13634.8 L-3666.65,-13635 L-3666.65,-13784.7 L-3666.79,-13784.9 L-4370.83,-13784.9 L-4370.83,-13879.9 L-5068.04,-13879.9 L-5068.04,-13784.9 L-5765.25,-13784.9 L-5765.25,-13879.9 L-6462.46,-13879.9 L-6462.46,-13784.9 L-7166.5,-13784.9 L-7166.65,-13784.7 L-7166.65,-13384.9"/>
</g>

<g fill="none" stroke="#000000" stroke-opacity="1" stroke-width="1" stroke-linecap="square" stroke-linejoin="bevel" transform="matrix(0.999992,0,0,-0.999992,14919.7,828)"
font-family="MS Shell Dlg 2" font-size="10.3125" font-weight="400" font-style="normal" 
>
</g>

<g fill="none" stroke="#000000" stroke-opacity="1" stroke-width="1" stroke-linecap="square" stroke-linejoin="bevel" transform="matrix(0.999992,0,0,-0.999992,14919.7,828)"
font-family="MS Shell Dlg 2" font-size="10.3125" font-weight="400" font-style="normal" 
>
</g>

<g fill="#333333" fill-opacity="0.2" stroke="#333333" stroke-opacity="1" stroke-width="1" stroke-linecap="round" stroke-linejoin="round" transform="matrix(0.999992,0,0,-0.999992,14919.7,828)"
font-family="MS Shell Dlg 2" font-size="10.3125" font-weight="400" font-style="normal" 
>
<path vector-effect="non-scaling-stroke" fill-rule="evenodd" d="M-12090.8,-13784.9 L-12090.9,-13784.7 L-12090.9,-13635 L-12090.8,-13634.8 L-12052.7,-13627.3 L-12052.6,-13627.2 L-12020.2,-13605.6 L-12020.2,-13605.6 L-11998.5,-13573.1 L-11998.5,-13573.1 L-11990.9,-13534.9 L-11990.9,-13534.8 L-11990.9,-12830.7 L-12085.9,-12830.7 L-12085.9,-12133.5 L-11990.9,-12133.5 L-11990.9,-11436.3 L-12085.9,-11436.3 L-12085.9,-10739 L-11990.9,-10739 L-11990.9,-10035 L-11990.8,-10034.9 L-11941,-10034.9 L-11940.9,-10034.8 L-11905.7,-9999.6 L-11838.4,-9932.33 L-11171,-10599.7 L-11238.2,-10666.8 L-9222.88,-12682.2 L-9155.71,-12615 L-8488.38,-13282.3 L-8559.09,-13353 L-8590.88,-13384.8 L-8590.91,-13384.9 L-8590.91,-13784.7 L-8591.05,-13784.9 L-9295.09,-13784.9 L-9295.09,-13879.9 L-9992.3,-13879.9 L-9992.3,-13784.9 L-10689.5,-13784.9 L-10689.5,-13879.9 L-11386.7,-13879.9 L-11386.7,-13784.9 L-12090.8,-13784.9"/>
</g>

<g fill="none" stroke="#000000" stroke-opacity="1" stroke-width="1" stroke-linecap="square" stroke-linejoin="bevel" transform="matrix(0.999992,0,0,-0.999992,14919.7,828)"
font-family="MS Shell Dlg 2" font-size="10.3125" font-weight="400" font-style="normal" 
>
</g>

<g fill="none" stroke="#000000" stroke-opacity="1" stroke-width="1" stroke-linecap="square" stroke-linejoin="bevel" transform="matrix(0.999992,0,0,-0.999992,14919.7,828)"
font-family="MS Shell Dlg 2" font-size="10.3125" font-weight="400" font-style="normal" 
>
</g>

<g fill="#333333" fill-opacity="0.2" stroke="#333333" stroke-opacity="1" stroke-width="1" stroke-linecap="round" stroke-linejoin="round" transform="matrix(0.999992,0,0,-0.999992,14919.7,828)"
font-family="MS Shell Dlg 2" font-size="10.3125" font-weight="400" font-style="normal" 
>
<path vector-effect="non-scaling-stroke" fill-rule="evenodd" d="M-11728.8,-9822.76 L-11728.8,-9822.69 L-11728.8,-9772.87 L-11728.8,-9677.73 L-10961.8,-9677.73 L-10961.8,-9772.73 L-8645.71,-9772.73 L-8645.71,-9677.73 L-7878.78,-9677.73 L-7111.84,-9677.73 L-7111.84,-9772.73 L-4795.71,-9772.73 L-4795.71,-9677.73 L-4028.78,-9677.73 L-4028.78,-9777.73 L-4028.78,-9822.69 L-4028.75,-9822.76 L-3993.52,-9857.98 L-3993.52,-9858.18 L-4667.43,-10532.1 L-4600.25,-10599.3 L-5267.58,-11266.6 L-5334.76,-11199.4 L-6002.09,-11866.7 L-5934.91,-11933.9 L-6602.24,-12601.3 L-6669.42,-12534.1 L-7343.32,-13208 L-7343.52,-13208 L-7378.75,-13172.8 L-7378.82,-13172.7 L-8378.74,-13172.7 L-8378.81,-13172.8 L-8414.03,-13208 L-8414.23,-13208 L-9088.14,-12534.1 L-9155.31,-12601.3 L-9822.64,-11933.9 L-9755.47,-11866.7 L-10422.8,-11199.4 L-10490,-11266.6 L-11157.3,-10599.3 L-11090.1,-10532.1 L-11764,-9858.18 L-11764,-9857.98 L-11728.8,-9822.76 M-9138.78,-11972.7 L-9138.78,-11972.7 L-9138.02,-11976.5 L-9138,-11976.6 L-9135.86,-11979.8 L-9135.83,-11979.8 L-9132.62,-11982 L-9132.58,-11982 L-9128.79,-11982.7 L-9128.77,-11982.7 L-6628.79,-11982.7 L-6628.77,-11982.7 L-6624.97,-11982 L-6624.93,-11982 L-6621.72,-11979.8 L-6621.69,-11979.8 L-6619.55,-11976.6 L-6619.53,-11976.5 L-6618.78,-11972.7 L-6618.78,-11972.7 L-6618.78,-10597 L-6618.78,-10597 L-6619.53,-10593.2 L-6619.55,-10593.1 L-6621.69,-10589.9 L-6621.72,-10589.9 L-6624.93,-10587.8 L-6624.97,-10587.7 L-6628.76,-10587 L-6628.8,-10587 L-6632.58,-10587.7 L-6632.62,-10587.8 L-6635.83,-10589.9 L-6635.86,-10589.9 L-6638,-10593.1 L-6638.02,-10593.2 L-6638.78,-10597 L-6638.78,-10597 L-6638.78,-11962.6 L-6638.92,-11962.7 L-9118.64,-11962.7 L-9118.78,-11962.6 L-9118.78,-10597 L-9118.78,-10597 L-9119.53,-10593.2 L-9119.55,-10593.1 L-9121.69,-10589.9 L-9121.72,-10589.9 L-9124.93,-10587.8 L-9124.97,-10587.7 L-9128.76,-10587 L-9128.8,-10587 L-9132.58,-10587.7 L-9132.62,-10587.8 L-9135.83,-10589.9 L-9135.86,-10589.9 L-9138,-10593.1 L-9138.02,-10593.2 L-9138.78,-10597 L-9138.78,-10597 L-9138.78,-11972.7"/>
</g>

<g fill="none" stroke="#000000" stroke-opacity="1" stroke-width="1" stroke-linecap="square" stroke-linejoin="bevel" transform="matrix(0.999992,0,0,-0.999992,14919.7,828)"
font-family="MS Shell Dlg 2" font-size="10.3125" font-weight="400" font-style="normal" 
>
</g>

<g fill="none" stroke="#000000" stroke-opacity="1" stroke-width="1" stroke-linecap="square" stroke-linejoin="bevel" transform="matrix(1,0,0,-1,0,27923.1)"
font-family="MS Shell Dlg 2" font-size="10.3125" font-weight="400" font-style="normal" 
>
</g>
</g>
</svg>
