<?xml version="1.0" encoding="UTF-8" standalone="no"?>
<svg width="2983.94mm" height="12656.8mm"
 xmlns="http://www.w3.org/2000/svg" xmlns:xlink="http://www.w3.org/1999/xlink"  version="1.2" baseProfile="tiny">
<title>SVG Generator Example Drawing</title>
<desc>An SVG drawing created by the SVG Generator</desc>
<defs>
</defs>
<g fill="none" stroke="black" stroke-width="1" fill-rule="evenodd" stroke-linecap="square" stroke-linejoin="bevel" >

<g fill="none" stroke="#000000" stroke-opacity="1" stroke-width="1" stroke-linecap="square" stroke-linejoin="bevel" transform="matrix(1,0,0,-1,0,44847.8)"
font-family="MS Shell Dlg 2" font-size="10.3125" font-weight="400" font-style="normal" 
>
</g>

<g fill="none" stroke="#000000" stroke-opacity="1" stroke-width="1" stroke-linecap="square" stroke-linejoin="bevel" transform="matrix(1,0,0,-1,0,44847.8)"
font-family="MS Shell Dlg 2" font-size="10.3125" font-weight="400" font-style="normal" 
>
</g>

<g fill="none" stroke="#000000" stroke-opacity="1" stroke-width="1" stroke-linecap="square" stroke-linejoin="bevel" transform="matrix(0.999928,0,0,-0.999928,13164.7,13530)"
font-family="MS Shell Dlg 2" font-size="10.3125" font-weight="400" font-style="normal" 
>
</g>

<g fill="#333333" fill-opacity="0.2" stroke="#333333" stroke-opacity="1" stroke-width="1" stroke-linecap="round" stroke-linejoin="round" transform="matrix(0.999928,0,0,-0.999928,13164.7,13530)"
font-family="MS Shell Dlg 2" font-size="10.3125" font-weight="400" font-style="normal" 
>
<path vector-effect="non-scaling-stroke" fill-rule="evenodd" d="M-6128.78,-27094.8 L-6128.79,-27094.9 L-7878.67,-31319.5 L-7878.78,-31319.6 L-7878.88,-31319.5 L-9628.77,-27094.9 L-9628.78,-27094.8 L-9628.78,-20195 L-9628.78,-20099.9 L-8931.57,-20099.9 L-8931.57,-20194.9 L-6825.99,-20194.9 L-6825.99,-20099.9 L-6128.78,-20099.9 L-6128.78,-20199.9 L-6128.78,-27094.8"/>
</g>

<g fill="none" stroke="#000000" stroke-opacity="1" stroke-width="1" stroke-linecap="square" stroke-linejoin="bevel" transform="matrix(0.999928,0,0,-0.999928,13164.7,13530)"
font-family="MS Shell Dlg 2" font-size="10.3125" font-weight="400" font-style="normal" 
>
</g>

<g fill="none" stroke="#000000" stroke-opacity="1" stroke-width="1" stroke-linecap="square" stroke-linejoin="bevel" transform="matrix(0.999928,0,0,-0.999928,13164.7,13530)"
font-family="MS Shell Dlg 2" font-size="10.3125" font-weight="400" font-style="normal" 
>
</g>

<g fill="#333333" fill-opacity="0.2" stroke="#333333" stroke-opacity="1" stroke-width="1" stroke-linecap="round" stroke-linejoin="round" transform="matrix(0.999928,0,0,-0.999928,13164.7,13530)"
font-family="MS Shell Dlg 2" font-size="10.3125" font-weight="400" font-style="normal" 
>
<path vector-effect="non-scaling-stroke" fill-rule="evenodd" d="M-13090.8,-3272.73 L-13090.9,-3272.59 L-13090.9,13527.1 L-13090.8,13527.3 L-2666.79,13527.3 L-2666.65,13527.1 L-2666.65,-3272.59 L-2666.79,-3272.73 L-4763.96,-3272.73 L-4763.96,-3367.73 L-6840.5,-3367.73 L-6840.5,-3272.73 L-8917.05,-3272.73 L-8917.05,-3367.73 L-10993.6,-3367.73 L-10993.6,-3272.73 L-13090.8,-3272.73 M-7628.66,10027.3 L-7628.76,10027.2 L-7378.78,8527.28 L-7378.78,8527.26 L-7378.78,-2272.63 L-7378.68,-2272.73 L-3878.88,-2272.73 L-3878.78,-2272.63 L-3878.78,8527.26 L-3878.78,8527.28 L-3628.8,10027.2 L-3628.9,10027.3 L-3878.64,10027.3 L-3878.78,10027.4 L-3878.78,12527.2 L-3878.88,12527.3 L-7378.68,12527.3 L-7378.78,12527.2 L-7378.78,10027.4 L-7378.92,10027.3 L-7628.66,10027.3 M-12128.7,10027.3 L-12128.8,10027.2 L-11878.8,8527.28 L-11878.8,8527.26 L-11878.8,-2272.63 L-11878.7,-2272.73 L-8378.88,-2272.73 L-8378.78,-2272.63 L-8378.78,8527.26 L-8378.78,8527.28 L-8128.8,10027.2 L-8128.9,10027.3 L-8378.64,10027.3 L-8378.78,10027.4 L-8378.78,12527.2 L-8378.88,12527.3 L-11878.7,12527.3 L-11878.8,12527.2 L-11878.8,10027.4 L-11878.9,10027.3 L-12128.7,10027.3"/>
</g>

<g fill="none" stroke="#000000" stroke-opacity="1" stroke-width="1" stroke-linecap="square" stroke-linejoin="bevel" transform="matrix(0.999928,0,0,-0.999928,13164.7,13530)"
font-family="MS Shell Dlg 2" font-size="10.3125" font-weight="400" font-style="normal" 
>
</g>

<g fill="none" stroke="#000000" stroke-opacity="1" stroke-width="1" stroke-linecap="square" stroke-linejoin="bevel" transform="matrix(0.999928,0,0,-0.999928,13164.7,13530)"
font-family="MS Shell Dlg 2" font-size="10.3125" font-weight="400" font-style="normal" 
>
</g>

<g fill="#333333" fill-opacity="0.2" stroke="#333333" stroke-opacity="1" stroke-width="1" stroke-linecap="round" stroke-linejoin="round" transform="matrix(0.999928,0,0,-0.999928,13164.7,13530)"
font-family="MS Shell Dlg 2" font-size="10.3125" font-weight="400" font-style="normal" 
>
<path vector-effect="non-scaling-stroke" fill-rule="evenodd" d="M-13090.8,-8784.86 L-13090.9,-8784.72 L-13090.9,-3814.42 L-13090.8,-3814.32 L-13090.7,-3814.34 L-12436.1,-4468.96 L-12368.9,-4401.79 L-11650.6,-5120.13 L-11717.8,-5187.3 L-10999.4,-5905.64 L-10932.2,-5838.47 L-10213.9,-6556.81 L-10281.1,-6623.98 L-9555.65,-7349.4 L-9555.65,-7349.6 L-9590.88,-7384.83 L-9590.91,-7384.9 L-9590.91,-8784.72 L-9591.05,-8784.86 L-10295.1,-8784.86 L-10295.1,-8879.86 L-10992.3,-8879.86 L-10992.3,-8784.86 L-11689.5,-8784.86 L-11689.5,-8879.86 L-12386.7,-8879.86 L-12386.7,-8784.86 L-13090.8,-8784.86"/>
</g>

<g fill="none" stroke="#000000" stroke-opacity="1" stroke-width="1" stroke-linecap="square" stroke-linejoin="bevel" transform="matrix(0.999928,0,0,-0.999928,13164.7,13530)"
font-family="MS Shell Dlg 2" font-size="10.3125" font-weight="400" font-style="normal" 
>
</g>

<g fill="none" stroke="#000000" stroke-opacity="1" stroke-width="1" stroke-linecap="square" stroke-linejoin="bevel" transform="matrix(0.999928,0,0,-0.999928,13164.7,13530)"
font-family="MS Shell Dlg 2" font-size="10.3125" font-weight="400" font-style="normal" 
>
</g>

<g fill="#333333" fill-opacity="0.2" stroke="#333333" stroke-opacity="1" stroke-width="1" stroke-linecap="round" stroke-linejoin="round" transform="matrix(0.999928,0,0,-0.999928,13164.7,13530)"
font-family="MS Shell Dlg 2" font-size="10.3125" font-weight="400" font-style="normal" 
>
<path vector-effect="non-scaling-stroke" fill-rule="evenodd" d="M-6166.65,-7384.9 L-6166.67,-7384.83 L-6201.9,-7349.6 L-6269.18,-7282.33 L-5550.84,-6563.99 L-5483.66,-6631.16 L-3314.27,-4461.78 L-3381.45,-4394.6 L-2663.11,-3676.26 L-2592.4,-3746.97 L-2666.65,-3821.22 L-2666.65,-8784.72 L-2666.79,-8784.86 L-3370.83,-8784.86 L-3370.83,-8879.86 L-4068.04,-8879.86 L-4068.04,-8784.86 L-4765.25,-8784.86 L-4765.25,-8879.86 L-5462.46,-8879.86 L-5462.46,-8784.86 L-6166.5,-8784.86 L-6166.65,-8784.72 L-6166.65,-7384.9"/>
</g>

<g fill="none" stroke="#000000" stroke-opacity="1" stroke-width="1" stroke-linecap="square" stroke-linejoin="bevel" transform="matrix(0.999928,0,0,-0.999928,13164.7,13530)"
font-family="MS Shell Dlg 2" font-size="10.3125" font-weight="400" font-style="normal" 
>
</g>

<g fill="none" stroke="#000000" stroke-opacity="1" stroke-width="1" stroke-linecap="square" stroke-linejoin="bevel" transform="matrix(0.999928,0,0,-0.999928,13164.7,13530)"
font-family="MS Shell Dlg 2" font-size="10.3125" font-weight="400" font-style="normal" 
>
</g>

<g fill="#333333" fill-opacity="0.2" stroke="#333333" stroke-opacity="1" stroke-width="1" stroke-linecap="round" stroke-linejoin="round" transform="matrix(0.999928,0,0,-0.999928,13164.7,13530)"
font-family="MS Shell Dlg 2" font-size="10.3125" font-weight="400" font-style="normal" 
>
<path vector-effect="non-scaling-stroke" fill-rule="evenodd" d="M-9628.78,-17559.2 L-9628.81,-17559.1 L-13020.1,-14167.8 L-13087.4,-14100.5 L-12369,-13382.2 L-12301.9,-13449.4 L-10132.5,-11280 L-10199.6,-11212.8 L-9481.31,-10494.5 L-9410.6,-10565.2 L-9378.81,-10597 L-9378.74,-10597 L-9138.92,-10597 L-9138.78,-10597.1 L-9138.78,-11972.7 L-9138.78,-11972.7 L-9138.02,-11976.5 L-9138,-11976.6 L-9135.86,-11979.8 L-9135.83,-11979.8 L-9132.62,-11982 L-9132.58,-11982 L-9128.79,-11982.7 L-9128.77,-11982.7 L-6628.79,-11982.7 L-6628.77,-11982.7 L-6624.97,-11982 L-6624.93,-11982 L-6621.72,-11979.8 L-6621.69,-11979.8 L-6619.55,-11976.6 L-6619.53,-11976.5 L-6618.78,-11972.7 L-6618.78,-11972.7 L-6618.78,-10597.1 L-6618.64,-10597 L-6378.82,-10597 L-6378.75,-10597 L-6343.52,-10561.7 L-6343.32,-10561.7 L-5617.9,-11287.2 L-5550.72,-11220 L-4832.38,-11938.3 L-4899.56,-12005.5 L-4181.22,-12723.8 L-4114.04,-12656.7 L-3395.7,-13375 L-3462.88,-13442.2 L-2737.46,-14167.6 L-2737.46,-14167.8 L-6128.75,-17559.1 L-6128.78,-17559.2 L-6128.78,-19994.7 L-6128.92,-19994.9 L-6832.96,-19994.9 L-6832.96,-20089.9 L-7530.17,-20089.9 L-7530.17,-19994.9 L-8227.38,-19994.9 L-8227.38,-20089.9 L-8924.59,-20089.9 L-8924.59,-19994.9 L-9628.64,-19994.9 L-9628.78,-19994.7 L-9628.78,-17559.2"/>
</g>

<g fill="none" stroke="#000000" stroke-opacity="1" stroke-width="1" stroke-linecap="square" stroke-linejoin="bevel" transform="matrix(0.999928,0,0,-0.999928,13164.7,13530)"
font-family="MS Shell Dlg 2" font-size="10.3125" font-weight="400" font-style="normal" 
>
</g>

<g fill="none" stroke="#000000" stroke-opacity="1" stroke-width="1" stroke-linecap="square" stroke-linejoin="bevel" transform="matrix(0.999928,0,0,-0.999928,13164.7,13530)"
font-family="MS Shell Dlg 2" font-size="10.3125" font-weight="400" font-style="normal" 
>
</g>

<g fill="#333333" fill-opacity="0.2" stroke="#333333" stroke-opacity="1" stroke-width="1" stroke-linecap="round" stroke-linejoin="round" transform="matrix(0.999928,0,0,-0.999928,13164.7,13530)"
font-family="MS Shell Dlg 2" font-size="10.3125" font-weight="400" font-style="normal" 
>
<path vector-effect="non-scaling-stroke" fill-rule="evenodd" d="M-6166.67,-10384.9 L-6166.65,-10384.8 L-6166.65,-8985 L-6166.65,-8889.86 L-5469.43,-8889.86 L-5469.43,-8984.86 L-3363.86,-8984.86 L-3363.86,-8889.86 L-2666.65,-8889.86 L-2666.65,-8989.86 L-2666.65,-13948.5 L-2592.4,-14022.7 L-2663.11,-14093.5 L-3381.45,-13375.1 L-3314.27,-13307.9 L-5483.66,-11138.6 L-5550.84,-11205.7 L-6269.18,-10487.4 L-6198.46,-10416.7 L-6166.67,-10384.9"/>
</g>

<g fill="none" stroke="#000000" stroke-opacity="1" stroke-width="1" stroke-linecap="square" stroke-linejoin="bevel" transform="matrix(0.999928,0,0,-0.999928,13164.7,13530)"
font-family="MS Shell Dlg 2" font-size="10.3125" font-weight="400" font-style="normal" 
>
</g>

<g fill="none" stroke="#000000" stroke-opacity="1" stroke-width="1" stroke-linecap="square" stroke-linejoin="bevel" transform="matrix(0.999928,0,0,-0.999928,13164.7,13530)"
font-family="MS Shell Dlg 2" font-size="10.3125" font-weight="400" font-style="normal" 
>
</g>

<g fill="#333333" fill-opacity="0.2" stroke="#333333" stroke-opacity="1" stroke-width="1" stroke-linecap="round" stroke-linejoin="round" transform="matrix(0.999928,0,0,-0.999928,13164.7,13530)"
font-family="MS Shell Dlg 2" font-size="10.3125" font-weight="400" font-style="normal" 
>
<path vector-effect="non-scaling-stroke" fill-rule="evenodd" d="M-13090.7,-13955.4 L-13090.8,-13955.4 L-13090.9,-13955.3 L-13090.9,-8985 L-13090.9,-8889.86 L-12393.7,-8889.86 L-12393.7,-8984.86 L-10288.1,-8984.86 L-10288.1,-8889.86 L-9590.91,-8889.86 L-9590.91,-8989.86 L-9590.91,-10384.8 L-9590.88,-10384.9 L-9555.65,-10420.1 L-9555.65,-10420.3 L-10281.1,-11145.7 L-10213.9,-11212.9 L-10932.2,-11931.3 L-10999.4,-11864.1 L-11717.8,-12582.4 L-11650.6,-12649.6 L-12368.9,-13367.9 L-12436.1,-13300.8 L-13090.7,-13955.4"/>
</g>

<g fill="none" stroke="#000000" stroke-opacity="1" stroke-width="1" stroke-linecap="square" stroke-linejoin="bevel" transform="matrix(0.999928,0,0,-0.999928,13164.7,13530)"
font-family="MS Shell Dlg 2" font-size="10.3125" font-weight="400" font-style="normal" 
>
</g>

<g fill="none" stroke="#000000" stroke-opacity="1" stroke-width="1" stroke-linecap="square" stroke-linejoin="bevel" transform="matrix(0.999928,0,0,-0.999928,13164.7,13530)"
font-family="MS Shell Dlg 2" font-size="10.3125" font-weight="400" font-style="normal" 
>
</g>

<g fill="#333333" fill-opacity="0.2" stroke="#333333" stroke-opacity="1" stroke-width="1" stroke-linecap="round" stroke-linejoin="round" transform="matrix(0.999928,0,0,-0.999928,13164.7,13530)"
font-family="MS Shell Dlg 2" font-size="10.3125" font-weight="400" font-style="normal" 
>
<path vector-effect="non-scaling-stroke" fill-rule="evenodd" d="M-13090.8,-3572.75 L-13090.9,-3572.61 L-13090.9,-3472.87 L-13090.9,-3377.73 L-11014.4,-3377.73 L-11014.4,-3472.73 L-4743.19,-3472.73 L-4743.19,-3377.73 L-2666.65,-3377.73 L-2666.65,-3477.73 L-2666.65,-3572.61 L-2666.76,-3572.75 L-2704.89,-3580.34 L-2704.93,-3580.35 L-2737.35,-3602.01 L-2737.36,-3602.02 L-3462.88,-4327.54 L-3395.7,-4394.71 L-4114.04,-5113.05 L-4181.22,-5045.88 L-4899.56,-5764.22 L-4832.38,-5831.39 L-5550.72,-6549.73 L-5617.9,-6482.56 L-6343.32,-7207.98 L-6343.52,-7207.98 L-6378.75,-7172.76 L-6378.82,-7172.73 L-6628.68,-7172.73 L-6628.78,-7172.83 L-6628.78,-10586.9 L-6628.89,-10587 L-6632.58,-10587.7 L-6632.62,-10587.8 L-6635.83,-10589.9 L-6635.86,-10589.9 L-6638,-10593.1 L-6638.02,-10593.2 L-6638.78,-10597 L-6638.78,-10597 L-6638.78,-11962.6 L-6638.92,-11962.7 L-9118.64,-11962.7 L-9118.78,-11962.6 L-9118.78,-10597 L-9118.78,-10597 L-9119.53,-10593.2 L-9119.55,-10593.1 L-9121.69,-10589.9 L-9121.72,-10589.9 L-9124.93,-10587.8 L-9124.97,-10587.7 L-9128.66,-10587 L-9128.78,-10586.9 L-9128.78,-7172.83 L-9128.88,-7172.73 L-9378.74,-7172.73 L-9378.81,-7172.76 L-9414.03,-7207.98 L-9481.31,-7275.26 L-10199.6,-6556.92 L-10132.5,-6489.74 L-12301.9,-4320.36 L-12369,-4387.53 L-13087.4,-3669.19 L-13020.2,-3602.02 L-13020.2,-3602.01 L-13052.6,-3580.35 L-13052.7,-3580.34 L-13090.8,-3572.75"/>
</g>

<g fill="none" stroke="#000000" stroke-opacity="1" stroke-width="1" stroke-linecap="square" stroke-linejoin="bevel" transform="matrix(0.999928,0,0,-0.999928,13164.7,13530)"
font-family="MS Shell Dlg 2" font-size="10.3125" font-weight="400" font-style="normal" 
>
</g>

<g fill="none" stroke="#000000" stroke-opacity="1" stroke-width="1" stroke-linecap="square" stroke-linejoin="bevel" transform="matrix(0.999928,0,0,-0.999928,13164.7,13530)"
font-family="MS Shell Dlg 2" font-size="10.3125" font-weight="400" font-style="normal" 
>
</g>

<g fill="#ae5151" fill-opacity="0.2" stroke="#333333" stroke-opacity="1" stroke-width="1" stroke-linecap="round" stroke-linejoin="round" transform="matrix(0.999928,0,0,-0.999928,13164.7,13530)"
font-family="MS Shell Dlg 2" font-size="10.3125" font-weight="400" font-style="normal" 
>
<path vector-effect="non-scaling-stroke" fill-rule="evenodd" d="M-6128.78,-27094.8 L-6128.79,-27094.9 L-7878.67,-31319.5 L-7878.78,-31319.6 L-7878.88,-31319.5 L-9628.77,-27094.9 L-9628.78,-27094.8 L-9628.78,-20195 L-9628.78,-20099.9 L-8931.57,-20099.9 L-8931.57,-20194.9 L-6825.99,-20194.9 L-6825.99,-20099.9 L-6128.78,-20099.9 L-6128.78,-20199.9 L-6128.78,-27094.8"/>
</g>

<g fill="none" stroke="#000000" stroke-opacity="1" stroke-width="1" stroke-linecap="square" stroke-linejoin="bevel" transform="matrix(0.999928,0,0,-0.999928,13164.7,13530)"
font-family="MS Shell Dlg 2" font-size="10.3125" font-weight="400" font-style="normal" 
>
</g>

<g fill="none" stroke="#000000" stroke-opacity="1" stroke-width="1" stroke-linecap="square" stroke-linejoin="bevel" transform="matrix(0.999928,0,0,-0.999928,13164.7,13530)"
font-family="MS Shell Dlg 2" font-size="10.3125" font-weight="400" font-style="normal" 
>
</g>

<g fill="#ae5151" fill-opacity="0.2" stroke="#333333" stroke-opacity="1" stroke-width="1" stroke-linecap="round" stroke-linejoin="round" transform="matrix(0.999928,0,0,-0.999928,13164.7,13530)"
font-family="MS Shell Dlg 2" font-size="10.3125" font-weight="400" font-style="normal" 
>
<path vector-effect="non-scaling-stroke" fill-rule="evenodd" d="M-13090.8,-3272.73 L-13090.9,-3272.59 L-13090.9,13527.1 L-13090.8,13527.3 L-2666.79,13527.3 L-2666.65,13527.1 L-2666.65,-3272.59 L-2666.79,-3272.73 L-4763.96,-3272.73 L-4763.96,-3367.73 L-6840.5,-3367.73 L-6840.5,-3272.73 L-8917.05,-3272.73 L-8917.05,-3367.73 L-10993.6,-3367.73 L-10993.6,-3272.73 L-13090.8,-3272.73 M-7628.66,10027.3 L-7628.76,10027.2 L-7378.78,8527.28 L-7378.78,8527.26 L-7378.78,-2272.63 L-7378.68,-2272.73 L-3878.88,-2272.73 L-3878.78,-2272.63 L-3878.78,8527.26 L-3878.78,8527.28 L-3628.8,10027.2 L-3628.9,10027.3 L-3878.64,10027.3 L-3878.78,10027.4 L-3878.78,12527.2 L-3878.88,12527.3 L-7378.68,12527.3 L-7378.78,12527.2 L-7378.78,10027.4 L-7378.92,10027.3 L-7628.66,10027.3 M-12128.7,10027.3 L-12128.8,10027.2 L-11878.8,8527.28 L-11878.8,8527.26 L-11878.8,-2272.63 L-11878.7,-2272.73 L-8378.88,-2272.73 L-8378.78,-2272.63 L-8378.78,8527.26 L-8378.78,8527.28 L-8128.8,10027.2 L-8128.9,10027.3 L-8378.64,10027.3 L-8378.78,10027.4 L-8378.78,12527.2 L-8378.88,12527.3 L-11878.7,12527.3 L-11878.8,12527.2 L-11878.8,10027.4 L-11878.9,10027.3 L-12128.7,10027.3"/>
</g>

<g fill="none" stroke="#000000" stroke-opacity="1" stroke-width="1" stroke-linecap="square" stroke-linejoin="bevel" transform="matrix(0.999928,0,0,-0.999928,13164.7,13530)"
font-family="MS Shell Dlg 2" font-size="10.3125" font-weight="400" font-style="normal" 
>
</g>

<g fill="none" stroke="#000000" stroke-opacity="1" stroke-width="1" stroke-linecap="square" stroke-linejoin="bevel" transform="matrix(0.999928,0,0,-0.999928,13164.7,13530)"
font-family="MS Shell Dlg 2" font-size="10.3125" font-weight="400" font-style="normal" 
>
</g>

<g fill="#ae5151" fill-opacity="0.2" stroke="#333333" stroke-opacity="1" stroke-width="1" stroke-linecap="round" stroke-linejoin="round" transform="matrix(0.999928,0,0,-0.999928,13164.7,13530)"
font-family="MS Shell Dlg 2" font-size="10.3125" font-weight="400" font-style="normal" 
>
<path vector-effect="non-scaling-stroke" fill-rule="evenodd" d="M-13090.8,-8784.86 L-13090.9,-8784.72 L-13090.9,-3814.42 L-13090.8,-3814.32 L-13090.7,-3814.34 L-12436.1,-4468.96 L-12368.9,-4401.79 L-11650.6,-5120.13 L-11717.8,-5187.3 L-10999.4,-5905.64 L-10932.2,-5838.47 L-10213.9,-6556.81 L-10281.1,-6623.98 L-9555.65,-7349.4 L-9555.65,-7349.6 L-9590.88,-7384.83 L-9590.91,-7384.9 L-9590.91,-8784.72 L-9591.05,-8784.86 L-10295.1,-8784.86 L-10295.1,-8879.86 L-10992.3,-8879.86 L-10992.3,-8784.86 L-11689.5,-8784.86 L-11689.5,-8879.86 L-12386.7,-8879.86 L-12386.7,-8784.86 L-13090.8,-8784.86"/>
</g>

<g fill="none" stroke="#000000" stroke-opacity="1" stroke-width="1" stroke-linecap="square" stroke-linejoin="bevel" transform="matrix(0.999928,0,0,-0.999928,13164.7,13530)"
font-family="MS Shell Dlg 2" font-size="10.3125" font-weight="400" font-style="normal" 
>
</g>

<g fill="none" stroke="#000000" stroke-opacity="1" stroke-width="1" stroke-linecap="square" stroke-linejoin="bevel" transform="matrix(0.999928,0,0,-0.999928,13164.7,13530)"
font-family="MS Shell Dlg 2" font-size="10.3125" font-weight="400" font-style="normal" 
>
</g>

<g fill="#ae5151" fill-opacity="0.2" stroke="#333333" stroke-opacity="1" stroke-width="1" stroke-linecap="round" stroke-linejoin="round" transform="matrix(0.999928,0,0,-0.999928,13164.7,13530)"
font-family="MS Shell Dlg 2" font-size="10.3125" font-weight="400" font-style="normal" 
>
<path vector-effect="non-scaling-stroke" fill-rule="evenodd" d="M-6166.65,-7384.9 L-6166.67,-7384.83 L-6201.9,-7349.6 L-6269.18,-7282.33 L-5550.84,-6563.99 L-5483.66,-6631.16 L-3314.27,-4461.78 L-3381.45,-4394.6 L-2663.11,-3676.26 L-2592.4,-3746.97 L-2666.65,-3821.22 L-2666.65,-8784.72 L-2666.79,-8784.86 L-3370.83,-8784.86 L-3370.83,-8879.86 L-4068.04,-8879.86 L-4068.04,-8784.86 L-4765.25,-8784.86 L-4765.25,-8879.86 L-5462.46,-8879.86 L-5462.46,-8784.86 L-6166.5,-8784.86 L-6166.65,-8784.72 L-6166.65,-7384.9"/>
</g>

<g fill="none" stroke="#000000" stroke-opacity="1" stroke-width="1" stroke-linecap="square" stroke-linejoin="bevel" transform="matrix(0.999928,0,0,-0.999928,13164.7,13530)"
font-family="MS Shell Dlg 2" font-size="10.3125" font-weight="400" font-style="normal" 
>
</g>

<g fill="none" stroke="#000000" stroke-opacity="1" stroke-width="1" stroke-linecap="square" stroke-linejoin="bevel" transform="matrix(0.999928,0,0,-0.999928,13164.7,13530)"
font-family="MS Shell Dlg 2" font-size="10.3125" font-weight="400" font-style="normal" 
>
</g>

<g fill="#ae5151" fill-opacity="0.2" stroke="#333333" stroke-opacity="1" stroke-width="1" stroke-linecap="round" stroke-linejoin="round" transform="matrix(0.999928,0,0,-0.999928,13164.7,13530)"
font-family="MS Shell Dlg 2" font-size="10.3125" font-weight="400" font-style="normal" 
>
<path vector-effect="non-scaling-stroke" fill-rule="evenodd" d="M-9628.78,-17559.2 L-9628.81,-17559.1 L-13020.1,-14167.8 L-13087.4,-14100.5 L-12369,-13382.2 L-12301.9,-13449.4 L-10132.5,-11280 L-10199.6,-11212.8 L-9481.31,-10494.5 L-9410.6,-10565.2 L-9378.81,-10597 L-9378.74,-10597 L-9138.92,-10597 L-9138.78,-10597.1 L-9138.78,-11972.7 L-9138.78,-11972.7 L-9138.02,-11976.5 L-9138,-11976.6 L-9135.86,-11979.8 L-9135.83,-11979.8 L-9132.62,-11982 L-9132.58,-11982 L-9128.79,-11982.7 L-9128.77,-11982.7 L-6628.79,-11982.7 L-6628.77,-11982.7 L-6624.97,-11982 L-6624.93,-11982 L-6621.72,-11979.8 L-6621.69,-11979.8 L-6619.55,-11976.6 L-6619.53,-11976.5 L-6618.78,-11972.7 L-6618.78,-11972.7 L-6618.78,-10597.1 L-6618.64,-10597 L-6378.82,-10597 L-6378.75,-10597 L-6343.52,-10561.7 L-6343.32,-10561.7 L-5617.9,-11287.2 L-5550.72,-11220 L-4832.38,-11938.3 L-4899.56,-12005.5 L-4181.22,-12723.8 L-4114.04,-12656.7 L-3395.7,-13375 L-3462.88,-13442.2 L-2737.46,-14167.6 L-2737.46,-14167.8 L-6128.75,-17559.1 L-6128.78,-17559.2 L-6128.78,-19994.7 L-6128.92,-19994.9 L-6832.96,-19994.9 L-6832.96,-20089.9 L-7530.17,-20089.9 L-7530.17,-19994.9 L-8227.38,-19994.9 L-8227.38,-20089.9 L-8924.59,-20089.9 L-8924.59,-19994.9 L-9628.64,-19994.9 L-9628.78,-19994.7 L-9628.78,-17559.2"/>
</g>

<g fill="none" stroke="#000000" stroke-opacity="1" stroke-width="1" stroke-linecap="square" stroke-linejoin="bevel" transform="matrix(0.999928,0,0,-0.999928,13164.7,13530)"
font-family="MS Shell Dlg 2" font-size="10.3125" font-weight="400" font-style="normal" 
>
</g>

<g fill="none" stroke="#000000" stroke-opacity="1" stroke-width="1" stroke-linecap="square" stroke-linejoin="bevel" transform="matrix(0.999928,0,0,-0.999928,13164.7,13530)"
font-family="MS Shell Dlg 2" font-size="10.3125" font-weight="400" font-style="normal" 
>
</g>

<g fill="#ae5151" fill-opacity="0.2" stroke="#333333" stroke-opacity="1" stroke-width="1" stroke-linecap="round" stroke-linejoin="round" transform="matrix(0.999928,0,0,-0.999928,13164.7,13530)"
font-family="MS Shell Dlg 2" font-size="10.3125" font-weight="400" font-style="normal" 
>
<path vector-effect="non-scaling-stroke" fill-rule="evenodd" d="M-6166.67,-10384.9 L-6166.65,-10384.8 L-6166.65,-8985 L-6166.65,-8889.86 L-5469.43,-8889.86 L-5469.43,-8984.86 L-3363.86,-8984.86 L-3363.86,-8889.86 L-2666.65,-8889.86 L-2666.65,-8989.86 L-2666.65,-13948.5 L-2592.4,-14022.7 L-2663.11,-14093.5 L-3381.45,-13375.1 L-3314.27,-13307.9 L-5483.66,-11138.6 L-5550.84,-11205.7 L-6269.18,-10487.4 L-6198.46,-10416.7 L-6166.67,-10384.9"/>
</g>

<g fill="none" stroke="#000000" stroke-opacity="1" stroke-width="1" stroke-linecap="square" stroke-linejoin="bevel" transform="matrix(0.999928,0,0,-0.999928,13164.7,13530)"
font-family="MS Shell Dlg 2" font-size="10.3125" font-weight="400" font-style="normal" 
>
</g>

<g fill="none" stroke="#000000" stroke-opacity="1" stroke-width="1" stroke-linecap="square" stroke-linejoin="bevel" transform="matrix(0.999928,0,0,-0.999928,13164.7,13530)"
font-family="MS Shell Dlg 2" font-size="10.3125" font-weight="400" font-style="normal" 
>
</g>

<g fill="#ae5151" fill-opacity="0.2" stroke="#333333" stroke-opacity="1" stroke-width="1" stroke-linecap="round" stroke-linejoin="round" transform="matrix(0.999928,0,0,-0.999928,13164.7,13530)"
font-family="MS Shell Dlg 2" font-size="10.3125" font-weight="400" font-style="normal" 
>
<path vector-effect="non-scaling-stroke" fill-rule="evenodd" d="M-13090.7,-13955.4 L-13090.8,-13955.4 L-13090.9,-13955.3 L-13090.9,-8985 L-13090.9,-8889.86 L-12393.7,-8889.86 L-12393.7,-8984.86 L-10288.1,-8984.86 L-10288.1,-8889.86 L-9590.91,-8889.86 L-9590.91,-8989.86 L-9590.91,-10384.8 L-9590.88,-10384.9 L-9555.65,-10420.1 L-9555.65,-10420.3 L-10281.1,-11145.7 L-10213.9,-11212.9 L-10932.2,-11931.3 L-10999.4,-11864.1 L-11717.8,-12582.4 L-11650.6,-12649.6 L-12368.9,-13367.9 L-12436.1,-13300.8 L-13090.7,-13955.4"/>
</g>

<g fill="none" stroke="#000000" stroke-opacity="1" stroke-width="1" stroke-linecap="square" stroke-linejoin="bevel" transform="matrix(0.999928,0,0,-0.999928,13164.7,13530)"
font-family="MS Shell Dlg 2" font-size="10.3125" font-weight="400" font-style="normal" 
>
</g>

<g fill="none" stroke="#000000" stroke-opacity="1" stroke-width="1" stroke-linecap="square" stroke-linejoin="bevel" transform="matrix(0.999928,0,0,-0.999928,13164.7,13530)"
font-family="MS Shell Dlg 2" font-size="10.3125" font-weight="400" font-style="normal" 
>
</g>

<g fill="#ae5151" fill-opacity="0.2" stroke="#333333" stroke-opacity="1" stroke-width="1" stroke-linecap="round" stroke-linejoin="round" transform="matrix(0.999928,0,0,-0.999928,13164.7,13530)"
font-family="MS Shell Dlg 2" font-size="10.3125" font-weight="400" font-style="normal" 
>
<path vector-effect="non-scaling-stroke" fill-rule="evenodd" d="M-13090.8,-3572.75 L-13090.9,-3572.61 L-13090.9,-3472.87 L-13090.9,-3377.73 L-11014.4,-3377.73 L-11014.4,-3472.73 L-4743.19,-3472.73 L-4743.19,-3377.73 L-2666.65,-3377.73 L-2666.65,-3477.73 L-2666.65,-3572.61 L-2666.76,-3572.75 L-2704.89,-3580.34 L-2704.93,-3580.35 L-2737.35,-3602.01 L-2737.36,-3602.02 L-3462.88,-4327.54 L-3395.7,-4394.71 L-4114.04,-5113.05 L-4181.22,-5045.88 L-4899.56,-5764.22 L-4832.38,-5831.39 L-5550.72,-6549.73 L-5617.9,-6482.56 L-6343.32,-7207.98 L-6343.52,-7207.98 L-6378.75,-7172.76 L-6378.82,-7172.73 L-6628.68,-7172.73 L-6628.78,-7172.83 L-6628.78,-10586.9 L-6628.89,-10587 L-6632.58,-10587.7 L-6632.62,-10587.8 L-6635.83,-10589.9 L-6635.86,-10589.9 L-6638,-10593.1 L-6638.02,-10593.2 L-6638.78,-10597 L-6638.78,-10597 L-6638.78,-11962.6 L-6638.92,-11962.7 L-9118.64,-11962.7 L-9118.78,-11962.6 L-9118.78,-10597 L-9118.78,-10597 L-9119.53,-10593.2 L-9119.55,-10593.1 L-9121.69,-10589.9 L-9121.72,-10589.9 L-9124.93,-10587.8 L-9124.97,-10587.7 L-9128.66,-10587 L-9128.78,-10586.9 L-9128.78,-7172.83 L-9128.88,-7172.73 L-9378.74,-7172.73 L-9378.81,-7172.76 L-9414.03,-7207.98 L-9481.31,-7275.26 L-10199.6,-6556.92 L-10132.5,-6489.74 L-12301.9,-4320.36 L-12369,-4387.53 L-13087.4,-3669.19 L-13020.2,-3602.02 L-13020.2,-3602.01 L-13052.6,-3580.35 L-13052.7,-3580.34 L-13090.8,-3572.75"/>
</g>

<g fill="none" stroke="#000000" stroke-opacity="1" stroke-width="1" stroke-linecap="square" stroke-linejoin="bevel" transform="matrix(0.999928,0,0,-0.999928,13164.7,13530)"
font-family="MS Shell Dlg 2" font-size="10.3125" font-weight="400" font-style="normal" 
>
</g>

<g fill="none" stroke="#000000" stroke-opacity="1" stroke-width="1" stroke-linecap="square" stroke-linejoin="bevel" transform="matrix(0.999928,0,0,-0.999928,13164.7,13530)"
font-family="MS Shell Dlg 2" font-size="10.3125" font-weight="400" font-style="normal" 
>
</g>

<g fill="#ffff00" fill-opacity="0.2" stroke="#333333" stroke-opacity="1" stroke-width="1" stroke-linecap="round" stroke-linejoin="round" transform="matrix(0.999928,0,0,-0.999928,13164.7,13530)"
font-family="MS Shell Dlg 2" font-size="10.3125" font-weight="400" font-style="normal" 
>
<path vector-effect="non-scaling-stroke" fill-rule="evenodd" d="M-6128.78,-27094.8 L-6128.79,-27094.9 L-7878.67,-31319.5 L-7878.78,-31319.6 L-7878.88,-31319.5 L-9628.77,-27094.9 L-9628.78,-27094.8 L-9628.78,-20195 L-9628.78,-19989.9 L-9628.78,-17559.2 L-9628.81,-17559.1 L-13020.1,-14167.8 L-13165.2,-14022.7 L-13090.9,-13948.5 L-13090.9,-8985 L-13090.9,-8779.86 L-13090.9,-3821.22 L-13165.2,-3746.97 L-13020.2,-3602.02 L-13020.2,-3602.01 L-13052.6,-3580.35 L-13052.7,-3580.34 L-13090.8,-3572.75 L-13090.9,-3572.61 L-13090.9,-3472.87 L-13090.9,-3267.73 L-13090.9,13527.1 L-13090.8,13527.3 L-2666.79,13527.3 L-2666.65,13527.1 L-2666.65,-3272.59 L-2666.65,-3477.73 L-2666.65,-3572.61 L-2666.76,-3572.75 L-2704.89,-3580.34 L-2704.93,-3580.35 L-2737.35,-3602.01 L-2737.36,-3602.02 L-2592.4,-3746.97 L-2666.65,-3821.22 L-2666.65,-8784.72 L-2666.65,-8989.86 L-2666.65,-13948.5 L-2592.4,-14022.7 L-2740.89,-14171.2 L-6128.75,-17559.1 L-6128.78,-17559.2 L-6128.78,-19994.7 L-6128.78,-20199.9 L-6128.78,-27094.8 M-8227.38,-20194.9 L-7530.17,-20194.9 L-7530.17,-19994.9 L-8227.38,-19994.9 L-8227.38,-20194.9 M-6840.5,-3272.73 L-8917.05,-3272.73 L-8917.05,-3472.73 L-6840.5,-3472.73 L-6840.5,-3272.73 M-7628.66,10027.3 L-7628.76,10027.2 L-7378.78,8527.28 L-7378.78,8527.26 L-7378.78,-2272.63 L-7378.68,-2272.73 L-3878.88,-2272.73 L-3878.78,-2272.63 L-3878.78,8527.26 L-3878.78,8527.28 L-3628.8,10027.2 L-3628.9,10027.3 L-3878.64,10027.3 L-3878.78,10027.4 L-3878.78,12527.2 L-3878.88,12527.3 L-7378.68,12527.3 L-7378.78,12527.2 L-7378.78,10027.4 L-7378.92,10027.3 L-7628.66,10027.3 M-12128.7,10027.3 L-12128.8,10027.2 L-11878.8,8527.28 L-11878.8,8527.26 L-11878.8,-2272.63 L-11878.7,-2272.73 L-8378.88,-2272.73 L-8378.78,-2272.63 L-8378.78,8527.26 L-8378.78,8527.28 L-8128.8,10027.2 L-8128.9,10027.3 L-8378.64,10027.3 L-8378.78,10027.4 L-8378.78,12527.2 L-8378.88,12527.3 L-11878.7,12527.3 L-11878.8,12527.2 L-11878.8,10027.4 L-11878.9,10027.3 L-12128.7,10027.3 M-6166.65,-7384.9 L-6166.67,-7384.83 L-6201.9,-7349.6 L-6346.96,-7204.55 L-6378.75,-7172.76 L-6378.82,-7172.73 L-6628.68,-7172.73 L-6628.78,-7172.83 L-6628.78,-10586.9 L-6628.89,-10587 L-6632.58,-10587.7 L-6632.62,-10587.8 L-6635.83,-10589.9 L-6635.86,-10589.9 L-6638,-10593.1 L-6638.02,-10593.2 L-6638.78,-10597 L-6638.78,-10597 L-6638.78,-11962.6 L-6638.92,-11962.7 L-9118.64,-11962.7 L-9118.78,-11962.6 L-9118.78,-10597 L-9118.78,-10597 L-9119.53,-10593.2 L-9119.55,-10593.1 L-9121.69,-10589.9 L-9121.72,-10589.9 L-9124.93,-10587.8 L-9124.97,-10587.7 L-9128.66,-10587 L-9128.78,-10586.9 L-9128.78,-7172.83 L-9128.88,-7172.73 L-9378.74,-7172.73 L-9378.81,-7172.76 L-9414.03,-7207.98 L-9559.09,-7353.04 L-9590.88,-7384.83 L-9590.91,-7384.9 L-9590.91,-8784.72 L-9590.91,-8989.86 L-9590.91,-10384.8 L-9590.88,-10384.9 L-9555.65,-10420.1 L-9410.6,-10565.2 L-9378.81,-10597 L-9378.74,-10597 L-9138.92,-10597 L-9138.78,-10597.1 L-9138.78,-11972.7 L-9138.78,-11972.7 L-9138.02,-11976.5 L-9138,-11976.6 L-9135.86,-11979.8 L-9135.83,-11979.8 L-9132.62,-11982 L-9132.58,-11982 L-9128.79,-11982.7 L-9128.77,-11982.7 L-6628.79,-11982.7 L-6628.77,-11982.7 L-6624.97,-11982 L-6624.93,-11982 L-6621.72,-11979.8 L-6621.69,-11979.8 L-6619.55,-11976.6 L-6619.53,-11976.5 L-6618.78,-11972.7 L-6618.78,-11972.7 L-6618.78,-10597.1 L-6618.64,-10597 L-6378.82,-10597 L-6378.75,-10597 L-6343.52,-10561.7 L-6198.46,-10416.7 L-6166.67,-10384.9 L-6166.65,-10384.8 L-6166.65,-8985 L-6166.65,-8779.86 L-6166.65,-7384.9 M-4758.14,-5905.64 L-4039.8,-5187.3 L-4181.22,-5045.88 L-4899.56,-5764.22 L-4758.14,-5905.64 M-4068.04,-8784.86 L-4765.25,-8784.86 L-4765.25,-8984.86 L-4068.04,-8984.86 L-4068.04,-8784.86 M-11717.8,-5187.3 L-10999.4,-5905.64 L-10858,-5764.22 L-11576.3,-5045.88 L-11717.8,-5187.3 M-10992.3,-8784.86 L-11689.5,-8784.86 L-11689.5,-8984.86 L-10992.3,-8984.86 L-10992.3,-8784.86 M-11576.3,-12723.8 L-10858,-12005.5 L-10999.4,-11864.1 L-11717.8,-12582.4 L-11576.3,-12723.8 M-4899.56,-12005.5 L-4181.22,-12723.8 L-4039.8,-12582.4 L-4758.14,-11864.1 L-4899.56,-12005.5"/>
</g>

<g fill="none" stroke="#000000" stroke-opacity="1" stroke-width="1" stroke-linecap="square" stroke-linejoin="bevel" transform="matrix(0.999928,0,0,-0.999928,13164.7,13530)"
font-family="MS Shell Dlg 2" font-size="10.3125" font-weight="400" font-style="normal" 
>
</g>

<g fill="none" stroke="#000000" stroke-opacity="1" stroke-width="1" stroke-linecap="square" stroke-linejoin="bevel" transform="matrix(0.999928,0,0,-0.999928,13164.7,13530)"
font-family="MS Shell Dlg 2" font-size="10.3125" font-weight="400" font-style="normal" 
>
</g>

<g fill="#ae5151" fill-opacity="0.2" stroke="#333333" stroke-opacity="1" stroke-width="1" stroke-linecap="round" stroke-linejoin="round" transform="matrix(0.999928,0,0,-0.999928,13164.7,13530)"
font-family="MS Shell Dlg 2" font-size="10.3125" font-weight="400" font-style="normal" 
>
<path vector-effect="non-scaling-stroke" fill-rule="evenodd" d="M-6128.78,-27094.8 L-6128.79,-27094.9 L-7878.67,-31319.5 L-7878.78,-31319.6 L-7878.88,-31319.5 L-9628.77,-27094.9 L-9628.78,-27094.8 L-9628.78,-20195 L-9628.64,-20194.9 L-8924.59,-20194.9 L-8924.59,-20099.9 L-8227.38,-20099.9 L-8227.38,-20194.9 L-7530.17,-20194.9 L-7530.17,-20099.9 L-6832.96,-20099.9 L-6832.96,-20194.9 L-6128.92,-20194.9 L-6128.78,-20195 L-6128.78,-27094.8"/>
</g>

<g fill="none" stroke="#000000" stroke-opacity="1" stroke-width="1" stroke-linecap="square" stroke-linejoin="bevel" transform="matrix(0.999928,0,0,-0.999928,13164.7,13530)"
font-family="MS Shell Dlg 2" font-size="10.3125" font-weight="400" font-style="normal" 
>
</g>

<g fill="none" stroke="#000000" stroke-opacity="1" stroke-width="1" stroke-linecap="square" stroke-linejoin="bevel" transform="matrix(0.999928,0,0,-0.999928,13164.7,13530)"
font-family="MS Shell Dlg 2" font-size="10.3125" font-weight="400" font-style="normal" 
>
</g>

<g fill="#ae5151" fill-opacity="0.2" stroke="#333333" stroke-opacity="1" stroke-width="1" stroke-linecap="round" stroke-linejoin="round" transform="matrix(0.999928,0,0,-0.999928,13164.7,13530)"
font-family="MS Shell Dlg 2" font-size="10.3125" font-weight="400" font-style="normal" 
>
<path vector-effect="non-scaling-stroke" fill-rule="evenodd" d="M-13090.9,-3267.73 L-13090.9,13527.1 L-13090.8,13527.3 L-2666.79,13527.3 L-2666.65,13527.1 L-2666.65,-3272.59 L-2666.65,-3367.73 L-4743.19,-3367.73 L-4743.19,-3272.73 L-11014.4,-3272.73 L-11014.4,-3367.73 L-13090.9,-3367.73 L-13090.9,-3267.73 M-7628.66,10027.3 L-7628.76,10027.2 L-7378.78,8527.28 L-7378.78,8527.26 L-7378.78,-2272.63 L-7378.68,-2272.73 L-3878.88,-2272.73 L-3878.78,-2272.63 L-3878.78,8527.26 L-3878.78,8527.28 L-3628.8,10027.2 L-3628.9,10027.3 L-3878.64,10027.3 L-3878.78,10027.4 L-3878.78,12527.2 L-3878.88,12527.3 L-7378.68,12527.3 L-7378.78,12527.2 L-7378.78,10027.4 L-7378.92,10027.3 L-7628.66,10027.3 M-12128.7,10027.3 L-12128.8,10027.2 L-11878.8,8527.28 L-11878.8,8527.26 L-11878.8,-2272.63 L-11878.7,-2272.73 L-8378.88,-2272.73 L-8378.78,-2272.63 L-8378.78,8527.26 L-8378.78,8527.28 L-8128.8,10027.2 L-8128.9,10027.3 L-8378.64,10027.3 L-8378.78,10027.4 L-8378.78,12527.2 L-8378.88,12527.3 L-11878.7,12527.3 L-11878.8,12527.2 L-11878.8,10027.4 L-11878.9,10027.3 L-12128.7,10027.3"/>
</g>

<g fill="none" stroke="#000000" stroke-opacity="1" stroke-width="1" stroke-linecap="square" stroke-linejoin="bevel" transform="matrix(0.999928,0,0,-0.999928,13164.7,13530)"
font-family="MS Shell Dlg 2" font-size="10.3125" font-weight="400" font-style="normal" 
>
</g>

<g fill="none" stroke="#000000" stroke-opacity="1" stroke-width="1" stroke-linecap="square" stroke-linejoin="bevel" transform="matrix(0.999928,0,0,-0.999928,13164.7,13530)"
font-family="MS Shell Dlg 2" font-size="10.3125" font-weight="400" font-style="normal" 
>
</g>

<g fill="#ae5151" fill-opacity="0.2" stroke="#333333" stroke-opacity="1" stroke-width="1" stroke-linecap="round" stroke-linejoin="round" transform="matrix(0.999928,0,0,-0.999928,13164.7,13530)"
font-family="MS Shell Dlg 2" font-size="10.3125" font-weight="400" font-style="normal" 
>
<path vector-effect="non-scaling-stroke" fill-rule="evenodd" d="M-6166.65,-7384.9 L-6166.67,-7384.83 L-6201.9,-7349.6 L-6201.9,-7349.4 L-5476.48,-6623.98 L-5543.65,-6556.81 L-4825.31,-5838.47 L-4758.14,-5905.64 L-4039.8,-5187.3 L-4106.97,-5120.13 L-3388.63,-4401.79 L-3321.46,-4468.96 L-2666.84,-3814.34 L-2666.71,-3814.32 L-2666.65,-3814.42 L-2666.65,-8784.72 L-2666.65,-8879.86 L-3363.86,-8879.86 L-3363.86,-8784.86 L-5469.43,-8784.86 L-5469.43,-8879.86 L-6166.65,-8879.86 L-6166.65,-8779.86 L-6166.65,-7384.9"/>
</g>

<g fill="none" stroke="#000000" stroke-opacity="1" stroke-width="1" stroke-linecap="square" stroke-linejoin="bevel" transform="matrix(0.999928,0,0,-0.999928,13164.7,13530)"
font-family="MS Shell Dlg 2" font-size="10.3125" font-weight="400" font-style="normal" 
>
</g>

<g fill="none" stroke="#000000" stroke-opacity="1" stroke-width="1" stroke-linecap="square" stroke-linejoin="bevel" transform="matrix(0.999928,0,0,-0.999928,13164.7,13530)"
font-family="MS Shell Dlg 2" font-size="10.3125" font-weight="400" font-style="normal" 
>
</g>

<g fill="#ae5151" fill-opacity="0.2" stroke="#333333" stroke-opacity="1" stroke-width="1" stroke-linecap="round" stroke-linejoin="round" transform="matrix(0.999928,0,0,-0.999928,13164.7,13530)"
font-family="MS Shell Dlg 2" font-size="10.3125" font-weight="400" font-style="normal" 
>
<path vector-effect="non-scaling-stroke" fill-rule="evenodd" d="M-13090.9,-8779.86 L-13090.9,-3821.22 L-13165.2,-3746.97 L-13094.4,-3676.26 L-12376.1,-4394.6 L-12443.3,-4461.78 L-10273.9,-6631.16 L-10206.7,-6563.99 L-9488.38,-7282.33 L-9559.09,-7353.04 L-9590.88,-7384.83 L-9590.91,-7384.9 L-9590.91,-8784.72 L-9590.91,-8879.86 L-10288.1,-8879.86 L-10288.1,-8784.86 L-12393.7,-8784.86 L-12393.7,-8879.86 L-13090.9,-8879.86 L-13090.9,-8779.86"/>
</g>

<g fill="none" stroke="#000000" stroke-opacity="1" stroke-width="1" stroke-linecap="square" stroke-linejoin="bevel" transform="matrix(0.999928,0,0,-0.999928,13164.7,13530)"
font-family="MS Shell Dlg 2" font-size="10.3125" font-weight="400" font-style="normal" 
>
</g>

<g fill="none" stroke="#000000" stroke-opacity="1" stroke-width="1" stroke-linecap="square" stroke-linejoin="bevel" transform="matrix(0.999928,0,0,-0.999928,13164.7,13530)"
font-family="MS Shell Dlg 2" font-size="10.3125" font-weight="400" font-style="normal" 
>
</g>

<g fill="#ae5151" fill-opacity="0.2" stroke="#333333" stroke-opacity="1" stroke-width="1" stroke-linecap="round" stroke-linejoin="round" transform="matrix(0.999928,0,0,-0.999928,13164.7,13530)"
font-family="MS Shell Dlg 2" font-size="10.3125" font-weight="400" font-style="normal" 
>
<path vector-effect="non-scaling-stroke" fill-rule="evenodd" d="M-9628.78,-17559.2 L-9628.81,-17559.1 L-13020.1,-14167.8 L-13020.1,-14167.6 L-12294.7,-13442.2 L-12361.9,-13375 L-11643.5,-12656.7 L-11576.3,-12723.8 L-10858,-12005.5 L-10925.2,-11938.3 L-10206.8,-11220 L-10139.7,-11287.2 L-9414.23,-10561.7 L-9414.03,-10561.7 L-9378.81,-10597 L-9378.74,-10597 L-9138.92,-10597 L-9138.78,-10597.1 L-9138.78,-11972.7 L-9138.78,-11972.7 L-9138.02,-11976.5 L-9138,-11976.6 L-9135.86,-11979.8 L-9135.83,-11979.8 L-9132.62,-11982 L-9132.58,-11982 L-9128.79,-11982.7 L-9128.77,-11982.7 L-6628.79,-11982.7 L-6628.77,-11982.7 L-6624.97,-11982 L-6624.93,-11982 L-6621.72,-11979.8 L-6621.69,-11979.8 L-6619.55,-11976.6 L-6619.53,-11976.5 L-6618.78,-11972.7 L-6618.78,-11972.7 L-6618.78,-10597.1 L-6618.64,-10597 L-6378.82,-10597 L-6378.75,-10597 L-6343.52,-10561.7 L-6276.25,-10494.5 L-5557.91,-11212.8 L-5625.08,-11280 L-3455.7,-13449.4 L-3388.52,-13382.2 L-2670.18,-14100.5 L-2740.89,-14171.2 L-6128.75,-17559.1 L-6128.78,-17559.2 L-6128.78,-19994.7 L-6128.78,-20089.9 L-6825.99,-20089.9 L-6825.99,-19994.9 L-8931.57,-19994.9 L-8931.57,-20089.9 L-9628.78,-20089.9 L-9628.78,-19989.9 L-9628.78,-17559.2"/>
</g>

<g fill="none" stroke="#000000" stroke-opacity="1" stroke-width="1" stroke-linecap="square" stroke-linejoin="bevel" transform="matrix(0.999928,0,0,-0.999928,13164.7,13530)"
font-family="MS Shell Dlg 2" font-size="10.3125" font-weight="400" font-style="normal" 
>
</g>

<g fill="none" stroke="#000000" stroke-opacity="1" stroke-width="1" stroke-linecap="square" stroke-linejoin="bevel" transform="matrix(0.999928,0,0,-0.999928,13164.7,13530)"
font-family="MS Shell Dlg 2" font-size="10.3125" font-weight="400" font-style="normal" 
>
</g>

<g fill="#ae5151" fill-opacity="0.2" stroke="#333333" stroke-opacity="1" stroke-width="1" stroke-linecap="round" stroke-linejoin="round" transform="matrix(0.999928,0,0,-0.999928,13164.7,13530)"
font-family="MS Shell Dlg 2" font-size="10.3125" font-weight="400" font-style="normal" 
>
<path vector-effect="non-scaling-stroke" fill-rule="evenodd" d="M-13090.9,-13948.5 L-13090.9,-8985 L-13090.8,-8984.86 L-12386.7,-8984.86 L-12386.7,-8889.86 L-11689.5,-8889.86 L-11689.5,-8984.86 L-10992.3,-8984.86 L-10992.3,-8889.86 L-10295.1,-8889.86 L-10295.1,-8984.86 L-9591.05,-8984.86 L-9590.91,-8985 L-9590.91,-10384.8 L-9590.88,-10384.9 L-9555.65,-10420.1 L-9488.38,-10487.4 L-10206.7,-11205.7 L-10273.9,-11138.6 L-12443.3,-13307.9 L-12376.1,-13375.1 L-13094.4,-14093.5 L-13165.2,-14022.7 L-13090.9,-13948.5"/>
</g>

<g fill="none" stroke="#000000" stroke-opacity="1" stroke-width="1" stroke-linecap="square" stroke-linejoin="bevel" transform="matrix(0.999928,0,0,-0.999928,13164.7,13530)"
font-family="MS Shell Dlg 2" font-size="10.3125" font-weight="400" font-style="normal" 
>
</g>

<g fill="none" stroke="#000000" stroke-opacity="1" stroke-width="1" stroke-linecap="square" stroke-linejoin="bevel" transform="matrix(0.999928,0,0,-0.999928,13164.7,13530)"
font-family="MS Shell Dlg 2" font-size="10.3125" font-weight="400" font-style="normal" 
>
</g>

<g fill="#ae5151" fill-opacity="0.2" stroke="#333333" stroke-opacity="1" stroke-width="1" stroke-linecap="round" stroke-linejoin="round" transform="matrix(0.999928,0,0,-0.999928,13164.7,13530)"
font-family="MS Shell Dlg 2" font-size="10.3125" font-weight="400" font-style="normal" 
>
<path vector-effect="non-scaling-stroke" fill-rule="evenodd" d="M-6166.67,-10384.9 L-6166.65,-10384.8 L-6166.65,-8985 L-6166.5,-8984.86 L-5462.46,-8984.86 L-5462.46,-8889.86 L-4765.25,-8889.86 L-4765.25,-8984.86 L-4068.04,-8984.86 L-4068.04,-8889.86 L-3370.83,-8889.86 L-3370.83,-8984.86 L-2666.79,-8984.86 L-2666.65,-8985 L-2666.65,-13955.3 L-2666.71,-13955.4 L-2666.84,-13955.4 L-3321.46,-13300.8 L-3388.63,-13367.9 L-4106.97,-12649.6 L-4039.8,-12582.4 L-4758.14,-11864.1 L-4825.31,-11931.3 L-5543.65,-11212.9 L-5476.48,-11145.7 L-6201.9,-10420.3 L-6201.9,-10420.1 L-6166.67,-10384.9"/>
</g>

<g fill="none" stroke="#000000" stroke-opacity="1" stroke-width="1" stroke-linecap="square" stroke-linejoin="bevel" transform="matrix(0.999928,0,0,-0.999928,13164.7,13530)"
font-family="MS Shell Dlg 2" font-size="10.3125" font-weight="400" font-style="normal" 
>
</g>

<g fill="none" stroke="#000000" stroke-opacity="1" stroke-width="1" stroke-linecap="square" stroke-linejoin="bevel" transform="matrix(0.999928,0,0,-0.999928,13164.7,13530)"
font-family="MS Shell Dlg 2" font-size="10.3125" font-weight="400" font-style="normal" 
>
</g>

<g fill="#ae5151" fill-opacity="0.2" stroke="#333333" stroke-opacity="1" stroke-width="1" stroke-linecap="round" stroke-linejoin="round" transform="matrix(0.999928,0,0,-0.999928,13164.7,13530)"
font-family="MS Shell Dlg 2" font-size="10.3125" font-weight="400" font-style="normal" 
>
<path vector-effect="non-scaling-stroke" fill-rule="evenodd" d="M-13090.8,-3572.75 L-13090.9,-3572.61 L-13090.9,-3472.87 L-13090.8,-3472.73 L-10993.6,-3472.73 L-10993.6,-3377.73 L-8917.05,-3377.73 L-8917.05,-3472.73 L-6840.5,-3472.73 L-6840.5,-3377.73 L-4763.96,-3377.73 L-4763.96,-3472.73 L-2666.79,-3472.73 L-2666.65,-3472.87 L-2666.65,-3572.61 L-2666.76,-3572.75 L-2704.89,-3580.34 L-2704.93,-3580.35 L-2737.35,-3602.01 L-2737.36,-3602.02 L-2670.18,-3669.19 L-3388.52,-4387.53 L-3455.7,-4320.36 L-5625.08,-6489.74 L-5557.91,-6556.92 L-6276.25,-7275.26 L-6346.96,-7204.55 L-6378.75,-7172.76 L-6378.82,-7172.73 L-6628.68,-7172.73 L-6628.78,-7172.83 L-6628.78,-10586.9 L-6628.89,-10587 L-6632.58,-10587.7 L-6632.62,-10587.8 L-6635.83,-10589.9 L-6635.86,-10589.9 L-6638,-10593.1 L-6638.02,-10593.2 L-6638.78,-10597 L-6638.78,-10597 L-6638.78,-11962.6 L-6638.92,-11962.7 L-9118.64,-11962.7 L-9118.78,-11962.6 L-9118.78,-10597 L-9118.78,-10597 L-9119.53,-10593.2 L-9119.55,-10593.1 L-9121.69,-10589.9 L-9121.72,-10589.9 L-9124.93,-10587.8 L-9124.97,-10587.7 L-9128.66,-10587 L-9128.78,-10586.9 L-9128.78,-7172.83 L-9128.88,-7172.73 L-9378.74,-7172.73 L-9378.81,-7172.76 L-9414.03,-7207.98 L-9414.23,-7207.98 L-10139.7,-6482.56 L-10206.8,-6549.73 L-10925.2,-5831.39 L-10858,-5764.22 L-11576.3,-5045.88 L-11643.5,-5113.05 L-12361.9,-4394.71 L-12294.7,-4327.54 L-13020.2,-3602.02 L-13020.2,-3602.01 L-13052.6,-3580.35 L-13052.7,-3580.34 L-13090.8,-3572.75"/>
</g>

<g fill="none" stroke="#000000" stroke-opacity="1" stroke-width="1" stroke-linecap="square" stroke-linejoin="bevel" transform="matrix(0.999928,0,0,-0.999928,13164.7,13530)"
font-family="MS Shell Dlg 2" font-size="10.3125" font-weight="400" font-style="normal" 
>
</g>

<g fill="none" stroke="#000000" stroke-opacity="1" stroke-width="1" stroke-linecap="square" stroke-linejoin="bevel" transform="matrix(0.999928,0,0,-0.999928,13164.7,13530)"
font-family="MS Shell Dlg 2" font-size="10.3125" font-weight="400" font-style="normal" 
>
</g>

<g fill="#333333" fill-opacity="0.2" stroke="#333333" stroke-opacity="1" stroke-width="1" stroke-linecap="round" stroke-linejoin="round" transform="matrix(0.999928,0,0,-0.999928,13164.7,13530)"
font-family="MS Shell Dlg 2" font-size="10.3125" font-weight="400" font-style="normal" 
>
<path vector-effect="non-scaling-stroke" fill-rule="evenodd" d="M-6128.78,-27094.8 L-6128.79,-27094.9 L-7878.67,-31319.5 L-7878.78,-31319.6 L-7878.88,-31319.5 L-9628.77,-27094.9 L-9628.78,-27094.8 L-9628.78,-20195 L-9628.64,-20194.9 L-8924.59,-20194.9 L-8924.59,-20099.9 L-8227.38,-20099.9 L-8227.38,-20194.9 L-7530.17,-20194.9 L-7530.17,-20099.9 L-6832.96,-20099.9 L-6832.96,-20194.9 L-6128.92,-20194.9 L-6128.78,-20195 L-6128.78,-27094.8"/>
</g>

<g fill="none" stroke="#000000" stroke-opacity="1" stroke-width="1" stroke-linecap="square" stroke-linejoin="bevel" transform="matrix(0.999928,0,0,-0.999928,13164.7,13530)"
font-family="MS Shell Dlg 2" font-size="10.3125" font-weight="400" font-style="normal" 
>
</g>

<g fill="none" stroke="#000000" stroke-opacity="1" stroke-width="1" stroke-linecap="square" stroke-linejoin="bevel" transform="matrix(0.999928,0,0,-0.999928,13164.7,13530)"
font-family="MS Shell Dlg 2" font-size="10.3125" font-weight="400" font-style="normal" 
>
</g>

<g fill="#333333" fill-opacity="0.2" stroke="#333333" stroke-opacity="1" stroke-width="1" stroke-linecap="round" stroke-linejoin="round" transform="matrix(0.999928,0,0,-0.999928,13164.7,13530)"
font-family="MS Shell Dlg 2" font-size="10.3125" font-weight="400" font-style="normal" 
>
<path vector-effect="non-scaling-stroke" fill-rule="evenodd" d="M-13090.9,-3267.73 L-13090.9,13527.1 L-13090.8,13527.3 L-2666.79,13527.3 L-2666.65,13527.1 L-2666.65,-3272.59 L-2666.65,-3367.73 L-4743.19,-3367.73 L-4743.19,-3272.73 L-11014.4,-3272.73 L-11014.4,-3367.73 L-13090.9,-3367.73 L-13090.9,-3267.73 M-7628.66,10027.3 L-7628.76,10027.2 L-7378.78,8527.28 L-7378.78,8527.26 L-7378.78,-2272.63 L-7378.68,-2272.73 L-3878.88,-2272.73 L-3878.78,-2272.63 L-3878.78,8527.26 L-3878.78,8527.28 L-3628.8,10027.2 L-3628.9,10027.3 L-3878.64,10027.3 L-3878.78,10027.4 L-3878.78,12527.2 L-3878.88,12527.3 L-7378.68,12527.3 L-7378.78,12527.2 L-7378.78,10027.4 L-7378.92,10027.3 L-7628.66,10027.3 M-12128.7,10027.3 L-12128.8,10027.2 L-11878.8,8527.28 L-11878.8,8527.26 L-11878.8,-2272.63 L-11878.7,-2272.73 L-8378.88,-2272.73 L-8378.78,-2272.63 L-8378.78,8527.26 L-8378.78,8527.28 L-8128.8,10027.2 L-8128.9,10027.3 L-8378.64,10027.3 L-8378.78,10027.4 L-8378.78,12527.2 L-8378.88,12527.3 L-11878.7,12527.3 L-11878.8,12527.2 L-11878.8,10027.4 L-11878.9,10027.3 L-12128.7,10027.3"/>
</g>

<g fill="none" stroke="#000000" stroke-opacity="1" stroke-width="1" stroke-linecap="square" stroke-linejoin="bevel" transform="matrix(0.999928,0,0,-0.999928,13164.7,13530)"
font-family="MS Shell Dlg 2" font-size="10.3125" font-weight="400" font-style="normal" 
>
</g>

<g fill="none" stroke="#000000" stroke-opacity="1" stroke-width="1" stroke-linecap="square" stroke-linejoin="bevel" transform="matrix(0.999928,0,0,-0.999928,13164.7,13530)"
font-family="MS Shell Dlg 2" font-size="10.3125" font-weight="400" font-style="normal" 
>
</g>

<g fill="#333333" fill-opacity="0.2" stroke="#333333" stroke-opacity="1" stroke-width="1" stroke-linecap="round" stroke-linejoin="round" transform="matrix(0.999928,0,0,-0.999928,13164.7,13530)"
font-family="MS Shell Dlg 2" font-size="10.3125" font-weight="400" font-style="normal" 
>
<path vector-effect="non-scaling-stroke" fill-rule="evenodd" d="M-6166.65,-7384.9 L-6166.67,-7384.83 L-6201.9,-7349.6 L-6201.9,-7349.4 L-5476.48,-6623.98 L-5543.65,-6556.81 L-4825.31,-5838.47 L-4758.14,-5905.64 L-4039.8,-5187.3 L-4106.97,-5120.13 L-3388.63,-4401.79 L-3321.46,-4468.96 L-2666.84,-3814.34 L-2666.71,-3814.32 L-2666.65,-3814.42 L-2666.65,-8784.72 L-2666.65,-8879.86 L-3363.86,-8879.86 L-3363.86,-8784.86 L-5469.43,-8784.86 L-5469.43,-8879.86 L-6166.65,-8879.86 L-6166.65,-8779.86 L-6166.65,-7384.9"/>
</g>

<g fill="none" stroke="#000000" stroke-opacity="1" stroke-width="1" stroke-linecap="square" stroke-linejoin="bevel" transform="matrix(0.999928,0,0,-0.999928,13164.7,13530)"
font-family="MS Shell Dlg 2" font-size="10.3125" font-weight="400" font-style="normal" 
>
</g>

<g fill="none" stroke="#000000" stroke-opacity="1" stroke-width="1" stroke-linecap="square" stroke-linejoin="bevel" transform="matrix(0.999928,0,0,-0.999928,13164.7,13530)"
font-family="MS Shell Dlg 2" font-size="10.3125" font-weight="400" font-style="normal" 
>
</g>

<g fill="#333333" fill-opacity="0.2" stroke="#333333" stroke-opacity="1" stroke-width="1" stroke-linecap="round" stroke-linejoin="round" transform="matrix(0.999928,0,0,-0.999928,13164.7,13530)"
font-family="MS Shell Dlg 2" font-size="10.3125" font-weight="400" font-style="normal" 
>
<path vector-effect="non-scaling-stroke" fill-rule="evenodd" d="M-13090.9,-8779.86 L-13090.9,-3821.22 L-13165.2,-3746.97 L-13094.4,-3676.26 L-12376.1,-4394.6 L-12443.3,-4461.78 L-10273.9,-6631.16 L-10206.7,-6563.99 L-9488.38,-7282.33 L-9559.09,-7353.04 L-9590.88,-7384.83 L-9590.91,-7384.9 L-9590.91,-8784.72 L-9590.91,-8879.86 L-10288.1,-8879.86 L-10288.1,-8784.86 L-12393.7,-8784.86 L-12393.7,-8879.86 L-13090.9,-8879.86 L-13090.9,-8779.86"/>
</g>

<g fill="none" stroke="#000000" stroke-opacity="1" stroke-width="1" stroke-linecap="square" stroke-linejoin="bevel" transform="matrix(0.999928,0,0,-0.999928,13164.7,13530)"
font-family="MS Shell Dlg 2" font-size="10.3125" font-weight="400" font-style="normal" 
>
</g>

<g fill="none" stroke="#000000" stroke-opacity="1" stroke-width="1" stroke-linecap="square" stroke-linejoin="bevel" transform="matrix(0.999928,0,0,-0.999928,13164.7,13530)"
font-family="MS Shell Dlg 2" font-size="10.3125" font-weight="400" font-style="normal" 
>
</g>

<g fill="#333333" fill-opacity="0.2" stroke="#333333" stroke-opacity="1" stroke-width="1" stroke-linecap="round" stroke-linejoin="round" transform="matrix(0.999928,0,0,-0.999928,13164.7,13530)"
font-family="MS Shell Dlg 2" font-size="10.3125" font-weight="400" font-style="normal" 
>
<path vector-effect="non-scaling-stroke" fill-rule="evenodd" d="M-9628.78,-17559.2 L-9628.81,-17559.1 L-13020.1,-14167.8 L-13020.1,-14167.6 L-12294.7,-13442.2 L-12361.9,-13375 L-11643.5,-12656.7 L-11576.3,-12723.8 L-10858,-12005.5 L-10925.2,-11938.3 L-10206.8,-11220 L-10139.7,-11287.2 L-9414.23,-10561.7 L-9414.03,-10561.7 L-9378.81,-10597 L-9378.74,-10597 L-9138.92,-10597 L-9138.78,-10597.1 L-9138.78,-11972.7 L-9138.78,-11972.7 L-9138.02,-11976.5 L-9138,-11976.6 L-9135.86,-11979.8 L-9135.83,-11979.8 L-9132.62,-11982 L-9132.58,-11982 L-9128.79,-11982.7 L-9128.77,-11982.7 L-6628.79,-11982.7 L-6628.77,-11982.7 L-6624.97,-11982 L-6624.93,-11982 L-6621.72,-11979.8 L-6621.69,-11979.8 L-6619.55,-11976.6 L-6619.53,-11976.5 L-6618.78,-11972.7 L-6618.78,-11972.7 L-6618.78,-10597.1 L-6618.64,-10597 L-6378.82,-10597 L-6378.75,-10597 L-6343.52,-10561.7 L-6276.25,-10494.5 L-5557.91,-11212.8 L-5625.08,-11280 L-3455.7,-13449.4 L-3388.52,-13382.2 L-2670.18,-14100.5 L-2740.89,-14171.2 L-6128.75,-17559.1 L-6128.78,-17559.2 L-6128.78,-19994.7 L-6128.78,-20089.9 L-6825.99,-20089.9 L-6825.99,-19994.9 L-8931.57,-19994.9 L-8931.57,-20089.9 L-9628.78,-20089.9 L-9628.78,-19989.9 L-9628.78,-17559.2"/>
</g>

<g fill="none" stroke="#000000" stroke-opacity="1" stroke-width="1" stroke-linecap="square" stroke-linejoin="bevel" transform="matrix(0.999928,0,0,-0.999928,13164.7,13530)"
font-family="MS Shell Dlg 2" font-size="10.3125" font-weight="400" font-style="normal" 
>
</g>

<g fill="none" stroke="#000000" stroke-opacity="1" stroke-width="1" stroke-linecap="square" stroke-linejoin="bevel" transform="matrix(0.999928,0,0,-0.999928,13164.7,13530)"
font-family="MS Shell Dlg 2" font-size="10.3125" font-weight="400" font-style="normal" 
>
</g>

<g fill="#333333" fill-opacity="0.2" stroke="#333333" stroke-opacity="1" stroke-width="1" stroke-linecap="round" stroke-linejoin="round" transform="matrix(0.999928,0,0,-0.999928,13164.7,13530)"
font-family="MS Shell Dlg 2" font-size="10.3125" font-weight="400" font-style="normal" 
>
<path vector-effect="non-scaling-stroke" fill-rule="evenodd" d="M-13090.9,-13948.5 L-13090.9,-8985 L-13090.8,-8984.86 L-12386.7,-8984.86 L-12386.7,-8889.86 L-11689.5,-8889.86 L-11689.5,-8984.86 L-10992.3,-8984.86 L-10992.3,-8889.86 L-10295.1,-8889.86 L-10295.1,-8984.86 L-9591.05,-8984.86 L-9590.91,-8985 L-9590.91,-10384.8 L-9590.88,-10384.9 L-9555.65,-10420.1 L-9488.38,-10487.4 L-10206.7,-11205.7 L-10273.9,-11138.6 L-12443.3,-13307.9 L-12376.1,-13375.1 L-13094.4,-14093.5 L-13165.2,-14022.7 L-13090.9,-13948.5"/>
</g>

<g fill="none" stroke="#000000" stroke-opacity="1" stroke-width="1" stroke-linecap="square" stroke-linejoin="bevel" transform="matrix(0.999928,0,0,-0.999928,13164.7,13530)"
font-family="MS Shell Dlg 2" font-size="10.3125" font-weight="400" font-style="normal" 
>
</g>

<g fill="none" stroke="#000000" stroke-opacity="1" stroke-width="1" stroke-linecap="square" stroke-linejoin="bevel" transform="matrix(0.999928,0,0,-0.999928,13164.7,13530)"
font-family="MS Shell Dlg 2" font-size="10.3125" font-weight="400" font-style="normal" 
>
</g>

<g fill="#333333" fill-opacity="0.2" stroke="#333333" stroke-opacity="1" stroke-width="1" stroke-linecap="round" stroke-linejoin="round" transform="matrix(0.999928,0,0,-0.999928,13164.7,13530)"
font-family="MS Shell Dlg 2" font-size="10.3125" font-weight="400" font-style="normal" 
>
<path vector-effect="non-scaling-stroke" fill-rule="evenodd" d="M-6166.67,-10384.9 L-6166.65,-10384.8 L-6166.65,-8985 L-6166.5,-8984.86 L-5462.46,-8984.86 L-5462.46,-8889.86 L-4765.25,-8889.86 L-4765.25,-8984.86 L-4068.04,-8984.86 L-4068.04,-8889.86 L-3370.83,-8889.86 L-3370.83,-8984.86 L-2666.79,-8984.86 L-2666.65,-8985 L-2666.65,-13955.3 L-2666.71,-13955.4 L-2666.84,-13955.4 L-3321.46,-13300.8 L-3388.63,-13367.9 L-4106.97,-12649.6 L-4039.8,-12582.4 L-4758.14,-11864.1 L-4825.31,-11931.3 L-5543.65,-11212.9 L-5476.48,-11145.7 L-6201.9,-10420.3 L-6201.9,-10420.1 L-6166.67,-10384.9"/>
</g>

<g fill="none" stroke="#000000" stroke-opacity="1" stroke-width="1" stroke-linecap="square" stroke-linejoin="bevel" transform="matrix(0.999928,0,0,-0.999928,13164.7,13530)"
font-family="MS Shell Dlg 2" font-size="10.3125" font-weight="400" font-style="normal" 
>
</g>

<g fill="none" stroke="#000000" stroke-opacity="1" stroke-width="1" stroke-linecap="square" stroke-linejoin="bevel" transform="matrix(0.999928,0,0,-0.999928,13164.7,13530)"
font-family="MS Shell Dlg 2" font-size="10.3125" font-weight="400" font-style="normal" 
>
</g>

<g fill="#333333" fill-opacity="0.2" stroke="#333333" stroke-opacity="1" stroke-width="1" stroke-linecap="round" stroke-linejoin="round" transform="matrix(0.999928,0,0,-0.999928,13164.7,13530)"
font-family="MS Shell Dlg 2" font-size="10.3125" font-weight="400" font-style="normal" 
>
<path vector-effect="non-scaling-stroke" fill-rule="evenodd" d="M-13090.8,-3572.75 L-13090.9,-3572.61 L-13090.9,-3472.87 L-13090.8,-3472.73 L-10993.6,-3472.73 L-10993.6,-3377.73 L-8917.05,-3377.73 L-8917.05,-3472.73 L-6840.5,-3472.73 L-6840.5,-3377.73 L-4763.96,-3377.73 L-4763.96,-3472.73 L-2666.79,-3472.73 L-2666.65,-3472.87 L-2666.65,-3572.61 L-2666.76,-3572.75 L-2704.89,-3580.34 L-2704.93,-3580.35 L-2737.35,-3602.01 L-2737.36,-3602.02 L-2670.18,-3669.19 L-3388.52,-4387.53 L-3455.7,-4320.36 L-5625.08,-6489.74 L-5557.91,-6556.92 L-6276.25,-7275.26 L-6346.96,-7204.55 L-6378.75,-7172.76 L-6378.82,-7172.73 L-6628.68,-7172.73 L-6628.78,-7172.83 L-6628.78,-10586.9 L-6628.89,-10587 L-6632.58,-10587.7 L-6632.62,-10587.8 L-6635.83,-10589.9 L-6635.86,-10589.9 L-6638,-10593.1 L-6638.02,-10593.2 L-6638.78,-10597 L-6638.78,-10597 L-6638.78,-11962.6 L-6638.92,-11962.7 L-9118.64,-11962.7 L-9118.78,-11962.6 L-9118.78,-10597 L-9118.78,-10597 L-9119.53,-10593.2 L-9119.55,-10593.1 L-9121.69,-10589.9 L-9121.72,-10589.9 L-9124.93,-10587.8 L-9124.97,-10587.7 L-9128.66,-10587 L-9128.78,-10586.9 L-9128.78,-7172.83 L-9128.88,-7172.73 L-9378.74,-7172.73 L-9378.81,-7172.76 L-9414.03,-7207.98 L-9414.23,-7207.98 L-10139.7,-6482.56 L-10206.8,-6549.73 L-10925.2,-5831.39 L-10858,-5764.22 L-11576.3,-5045.88 L-11643.5,-5113.05 L-12361.9,-4394.71 L-12294.7,-4327.54 L-13020.2,-3602.02 L-13020.2,-3602.01 L-13052.6,-3580.35 L-13052.7,-3580.34 L-13090.8,-3572.75"/>
</g>

<g fill="none" stroke="#000000" stroke-opacity="1" stroke-width="1" stroke-linecap="square" stroke-linejoin="bevel" transform="matrix(0.999928,0,0,-0.999928,13164.7,13530)"
font-family="MS Shell Dlg 2" font-size="10.3125" font-weight="400" font-style="normal" 
>
</g>

<g fill="none" stroke="#000000" stroke-opacity="1" stroke-width="1" stroke-linecap="square" stroke-linejoin="bevel" transform="matrix(1,0,0,-1,0,44847.8)"
font-family="MS Shell Dlg 2" font-size="10.3125" font-weight="400" font-style="normal" 
>
</g>
</g>
</svg>
