<?xml version="1.0" encoding="UTF-8" standalone="no"?>
<svg width="2942.17mm" height="7005.6mm"
 xmlns="http://www.w3.org/2000/svg" xmlns:xlink="http://www.w3.org/1999/xlink"  version="1.2" baseProfile="tiny">
<title>SVG Generator Example Drawing</title>
<desc>An SVG drawing created by the SVG Generator</desc>
<defs>
</defs>
<g fill="none" stroke="black" stroke-width="1" fill-rule="evenodd" stroke-linecap="square" stroke-linejoin="bevel" >

<g fill="none" stroke="#000000" stroke-opacity="1" stroke-width="1" stroke-linecap="square" stroke-linejoin="bevel" transform="matrix(1,0,0,-1,0,24823.1)"
font-family="MS Shell Dlg 2" font-size="10.3125" font-weight="400" font-style="normal" 
>
</g>

<g fill="none" stroke="#000000" stroke-opacity="1" stroke-width="1" stroke-linecap="square" stroke-linejoin="bevel" transform="matrix(1,0,0,-1,0,24823.1)"
font-family="MS Shell Dlg 2" font-size="10.3125" font-weight="400" font-style="normal" 
>
</g>

<g fill="none" stroke="#000000" stroke-opacity="1" stroke-width="1" stroke-linecap="square" stroke-linejoin="bevel" transform="matrix(0.999975,0,0,-0.999975,13091.1,-2271.54)"
font-family="MS Shell Dlg 2" font-size="10.3125" font-weight="400" font-style="normal" 
>
</g>

<g fill="#ae5151" fill-opacity="0.2" stroke="#333333" stroke-opacity="1" stroke-width="1" stroke-linecap="round" stroke-linejoin="round" transform="matrix(0.999975,0,0,-0.999975,13091.1,-2271.54)"
font-family="MS Shell Dlg 2" font-size="10.3125" font-weight="400" font-style="normal" 
>
<path vector-effect="non-scaling-stroke" fill-rule="evenodd" d="M-6128.78,-25199.9 L-6128.78,-27094.7 L-6128.92,-27094.9 L-9628.64,-27094.9 L-9628.78,-27094.7 L-9628.78,-25195 L-9628.78,-25099.9 L-8931.57,-25099.9 L-8931.57,-25194.9 L-6825.99,-25194.9 L-6825.99,-25099.9 L-6128.78,-25099.9 L-6128.78,-25199.9"/>
</g>

<g fill="none" stroke="#000000" stroke-opacity="1" stroke-width="1" stroke-linecap="square" stroke-linejoin="bevel" transform="matrix(0.999975,0,0,-0.999975,13091.1,-2271.54)"
font-family="MS Shell Dlg 2" font-size="10.3125" font-weight="400" font-style="normal" 
>
</g>

<g fill="none" stroke="#000000" stroke-opacity="1" stroke-width="1" stroke-linecap="square" stroke-linejoin="bevel" transform="matrix(0.999975,0,0,-0.999975,13091.1,-2271.54)"
font-family="MS Shell Dlg 2" font-size="10.3125" font-weight="400" font-style="normal" 
>
</g>

<g fill="#ae5151" fill-opacity="0.2" stroke="#333333" stroke-opacity="1" stroke-width="1" stroke-linecap="round" stroke-linejoin="round" transform="matrix(0.999975,0,0,-0.999975,13091.1,-2271.54)"
font-family="MS Shell Dlg 2" font-size="10.3125" font-weight="400" font-style="normal" 
>
<path vector-effect="non-scaling-stroke" fill-rule="evenodd" d="M-6128.78,-20559.2 L-6128.78,-24994.7 L-6128.92,-24994.9 L-6832.96,-24994.9 L-6832.96,-25089.9 L-7530.17,-25089.9 L-7530.17,-24994.9 L-8227.38,-24994.9 L-8227.38,-25089.9 L-8924.59,-25089.9 L-8924.59,-24994.9 L-9628.64,-24994.9 L-9628.78,-24994.7 L-9628.78,-20559.2 L-9628.78,-20195 L-9628.78,-20099.9 L-8931.57,-20099.9 L-8931.57,-20194.9 L-6825.99,-20194.9 L-6825.99,-20099.9 L-6128.78,-20099.9 L-6128.78,-20199.9 L-6128.78,-20559.2"/>
</g>

<g fill="none" stroke="#000000" stroke-opacity="1" stroke-width="1" stroke-linecap="square" stroke-linejoin="bevel" transform="matrix(0.999975,0,0,-0.999975,13091.1,-2271.54)"
font-family="MS Shell Dlg 2" font-size="10.3125" font-weight="400" font-style="normal" 
>
</g>

<g fill="none" stroke="#000000" stroke-opacity="1" stroke-width="1" stroke-linecap="square" stroke-linejoin="bevel" transform="matrix(0.999975,0,0,-0.999975,13091.1,-2271.54)"
font-family="MS Shell Dlg 2" font-size="10.3125" font-weight="400" font-style="normal" 
>
</g>

<g fill="#ae5151" fill-opacity="0.2" stroke="#333333" stroke-opacity="1" stroke-width="1" stroke-linecap="round" stroke-linejoin="round" transform="matrix(0.999975,0,0,-0.999975,13091.1,-2271.54)"
font-family="MS Shell Dlg 2" font-size="10.3125" font-weight="400" font-style="normal" 
>
<path vector-effect="non-scaling-stroke" fill-rule="evenodd" d="M-10520.2,-16667.7 L-9132.47,-15280 L-9199.65,-15212.8 L-8481.31,-14494.5 L-8410.6,-14565.2 L-8378.81,-14597 L-8378.74,-14597 L-7378.82,-14597 L-7378.75,-14597 L-7343.52,-14561.7 L-7276.25,-14494.5 L-6557.91,-15212.8 L-6625.08,-15280 L-5237.36,-16667.7 L-6128.75,-17559.1 L-6128.78,-17559.2 L-6128.78,-19994.7 L-6128.92,-19994.9 L-6832.96,-19994.9 L-6832.96,-20089.9 L-7530.17,-20089.9 L-7530.17,-19994.9 L-8227.38,-19994.9 L-8227.38,-20089.9 L-8924.59,-20089.9 L-8924.59,-19994.9 L-9628.64,-19994.9 L-9628.78,-19994.7 L-9628.78,-17559.2 L-9628.81,-17559.1 L-10520.2,-16667.7"/>
</g>

<g fill="none" stroke="#000000" stroke-opacity="1" stroke-width="1" stroke-linecap="square" stroke-linejoin="bevel" transform="matrix(0.999975,0,0,-0.999975,13091.1,-2271.54)"
font-family="MS Shell Dlg 2" font-size="10.3125" font-weight="400" font-style="normal" 
>
</g>

<g fill="none" stroke="#000000" stroke-opacity="1" stroke-width="1" stroke-linecap="square" stroke-linejoin="bevel" transform="matrix(0.999975,0,0,-0.999975,13091.1,-2271.54)"
font-family="MS Shell Dlg 2" font-size="10.3125" font-weight="400" font-style="normal" 
>
</g>

<g fill="#ae5151" fill-opacity="0.2" stroke="#333333" stroke-opacity="1" stroke-width="1" stroke-linecap="round" stroke-linejoin="round" transform="matrix(0.999975,0,0,-0.999975,13091.1,-2271.54)"
font-family="MS Shell Dlg 2" font-size="10.3125" font-weight="400" font-style="normal" 
>
<path vector-effect="non-scaling-stroke" fill-rule="evenodd" d="M-7166.67,-14384.9 L-7166.65,-14384.8 L-7166.65,-13985 L-7166.65,-13889.9 L-6469.43,-13889.9 L-6469.43,-13984.9 L-4363.86,-13984.9 L-4363.86,-13889.9 L-3666.65,-13889.9 L-3666.65,-13989.9 L-3666.65,-15097 L-5095.93,-16526.3 L-5758.14,-15864.1 L-5825.31,-15931.3 L-6543.65,-15212.9 L-6476.48,-15145.7 L-7201.9,-14420.3 L-7201.9,-14420.1 L-7166.67,-14384.9"/>
</g>

<g fill="none" stroke="#000000" stroke-opacity="1" stroke-width="1" stroke-linecap="square" stroke-linejoin="bevel" transform="matrix(0.999975,0,0,-0.999975,13091.1,-2271.54)"
font-family="MS Shell Dlg 2" font-size="10.3125" font-weight="400" font-style="normal" 
>
</g>

<g fill="none" stroke="#000000" stroke-opacity="1" stroke-width="1" stroke-linecap="square" stroke-linejoin="bevel" transform="matrix(0.999975,0,0,-0.999975,13091.1,-2271.54)"
font-family="MS Shell Dlg 2" font-size="10.3125" font-weight="400" font-style="normal" 
>
</g>

<g fill="#ae5151" fill-opacity="0.2" stroke="#333333" stroke-opacity="1" stroke-width="1" stroke-linecap="round" stroke-linejoin="round" transform="matrix(0.999975,0,0,-0.999975,13091.1,-2271.54)"
font-family="MS Shell Dlg 2" font-size="10.3125" font-weight="400" font-style="normal" 
>
<path vector-effect="non-scaling-stroke" fill-rule="evenodd" d="M-12090.9,-15097 L-12090.9,-13985 L-12090.9,-13889.9 L-11393.7,-13889.9 L-11393.7,-13984.9 L-9288.12,-13984.9 L-9288.12,-13889.9 L-8590.91,-13889.9 L-8590.91,-13989.9 L-8590.91,-14384.8 L-8590.88,-14384.9 L-8555.65,-14420.1 L-8555.65,-14420.3 L-9281.08,-15145.7 L-9213.9,-15212.9 L-9932.24,-15931.3 L-9999.42,-15864.1 L-10661.6,-16526.3 L-12090.9,-15097"/>
</g>

<g fill="none" stroke="#000000" stroke-opacity="1" stroke-width="1" stroke-linecap="square" stroke-linejoin="bevel" transform="matrix(0.999975,0,0,-0.999975,13091.1,-2271.54)"
font-family="MS Shell Dlg 2" font-size="10.3125" font-weight="400" font-style="normal" 
>
</g>

<g fill="none" stroke="#000000" stroke-opacity="1" stroke-width="1" stroke-linecap="square" stroke-linejoin="bevel" transform="matrix(0.999975,0,0,-0.999975,13091.1,-2271.54)"
font-family="MS Shell Dlg 2" font-size="10.3125" font-weight="400" font-style="normal" 
>
</g>

<g fill="#ae5151" fill-opacity="0.2" stroke="#333333" stroke-opacity="1" stroke-width="1" stroke-linecap="round" stroke-linejoin="round" transform="matrix(0.999975,0,0,-0.999975,13091.1,-2271.54)"
font-family="MS Shell Dlg 2" font-size="10.3125" font-weight="400" font-style="normal" 
>
<path vector-effect="non-scaling-stroke" fill-rule="evenodd" d="M-12095.9,-13243.4 L-12095.9,-13534.9 L-12195.9,-13534.9 L-12195.9,-13474.2 L-12278.8,-13426.4 L-12095.9,-13243.4"/>
</g>

<g fill="none" stroke="#000000" stroke-opacity="1" stroke-width="1" stroke-linecap="square" stroke-linejoin="bevel" transform="matrix(0.999975,0,0,-0.999975,13091.1,-2271.54)"
font-family="MS Shell Dlg 2" font-size="10.3125" font-weight="400" font-style="normal" 
>
</g>

<g fill="none" stroke="#000000" stroke-opacity="1" stroke-width="1" stroke-linecap="square" stroke-linejoin="bevel" transform="matrix(0.999975,0,0,-0.999975,13091.1,-2271.54)"
font-family="MS Shell Dlg 2" font-size="10.3125" font-weight="400" font-style="normal" 
>
</g>

<g fill="#ae5151" fill-opacity="0.2" stroke="#333333" stroke-opacity="1" stroke-width="1" stroke-linecap="round" stroke-linejoin="round" transform="matrix(0.999975,0,0,-0.999975,13091.1,-2271.54)"
font-family="MS Shell Dlg 2" font-size="10.3125" font-weight="400" font-style="normal" 
>
<path vector-effect="non-scaling-stroke" fill-rule="evenodd" d="M-3403.81,-13383.1 L-3566.45,-13477 L-3566.65,-13476.9 L-3566.65,-13204.1 L-3395.7,-13375 L-3403.81,-13383.1"/>
</g>

<g fill="none" stroke="#000000" stroke-opacity="1" stroke-width="1" stroke-linecap="square" stroke-linejoin="bevel" transform="matrix(0.999975,0,0,-0.999975,13091.1,-2271.54)"
font-family="MS Shell Dlg 2" font-size="10.3125" font-weight="400" font-style="normal" 
>
</g>

<g fill="none" stroke="#000000" stroke-opacity="1" stroke-width="1" stroke-linecap="square" stroke-linejoin="bevel" transform="matrix(0.999975,0,0,-0.999975,13091.1,-2271.54)"
font-family="MS Shell Dlg 2" font-size="10.3125" font-weight="400" font-style="normal" 
>
</g>

<g fill="#ae5151" fill-opacity="0.2" stroke="#333333" stroke-opacity="1" stroke-width="1" stroke-linecap="round" stroke-linejoin="round" transform="matrix(0.999975,0,0,-0.999975,13091.1,-2271.54)"
font-family="MS Shell Dlg 2" font-size="10.3125" font-weight="400" font-style="normal" 
>
<path vector-effect="non-scaling-stroke" fill-rule="evenodd" d="M-11524,-3272.73 L-11618.8,-2277.73 L-11628.8,-2277.73 L-11628.8,-2272.73 L-8619.25,-2272.73 L-8524.02,-3272.73 L-8917.05,-3272.73 L-8917.05,-3367.73 L-10993.6,-3367.73 L-10993.6,-3272.73 L-11524,-3272.73"/>
</g>

<g fill="none" stroke="#000000" stroke-opacity="1" stroke-width="1" stroke-linecap="square" stroke-linejoin="bevel" transform="matrix(0.999975,0,0,-0.999975,13091.1,-2271.54)"
font-family="MS Shell Dlg 2" font-size="10.3125" font-weight="400" font-style="normal" 
>
</g>

<g fill="none" stroke="#000000" stroke-opacity="1" stroke-width="1" stroke-linecap="square" stroke-linejoin="bevel" transform="matrix(0.999975,0,0,-0.999975,13091.1,-2271.54)"
font-family="MS Shell Dlg 2" font-size="10.3125" font-weight="400" font-style="normal" 
>
</g>

<g fill="#ae5151" fill-opacity="0.2" stroke="#333333" stroke-opacity="1" stroke-width="1" stroke-linecap="round" stroke-linejoin="round" transform="matrix(0.999975,0,0,-0.999975,13091.1,-2271.54)"
font-family="MS Shell Dlg 2" font-size="10.3125" font-weight="400" font-style="normal" 
>
<path vector-effect="non-scaling-stroke" fill-rule="evenodd" d="M-7233.54,-3272.73 L-7138.3,-2272.73 L-4128.78,-2272.73 L-4128.78,-2277.73 L-4138.78,-2277.73 L-4233.54,-3272.73 L-4763.96,-3272.73 L-4763.96,-3367.73 L-6840.5,-3367.73 L-6840.5,-3272.73 L-7233.54,-3272.73"/>
</g>

<g fill="none" stroke="#000000" stroke-opacity="1" stroke-width="1" stroke-linecap="square" stroke-linejoin="bevel" transform="matrix(0.999975,0,0,-0.999975,13091.1,-2271.54)"
font-family="MS Shell Dlg 2" font-size="10.3125" font-weight="400" font-style="normal" 
>
</g>

<g fill="none" stroke="#000000" stroke-opacity="1" stroke-width="1" stroke-linecap="square" stroke-linejoin="bevel" transform="matrix(0.999975,0,0,-0.999975,13091.1,-2271.54)"
font-family="MS Shell Dlg 2" font-size="10.3125" font-weight="400" font-style="normal" 
>
</g>

<g fill="#ae5151" fill-opacity="0.2" stroke="#333333" stroke-opacity="1" stroke-width="1" stroke-linecap="round" stroke-linejoin="round" transform="matrix(0.999975,0,0,-0.999975,13091.1,-2271.54)"
font-family="MS Shell Dlg 2" font-size="10.3125" font-weight="400" font-style="normal" 
>
<path vector-effect="non-scaling-stroke" fill-rule="evenodd" d="M-11038,-8374.56 L-11038.1,-8374.43 L-11302.1,-5602.97 L-10999.4,-5905.64 L-10932.2,-5838.47 L-10213.9,-6556.81 L-10281.1,-6623.98 L-9555.65,-7349.4 L-9555.65,-7349.6 L-9590.88,-7384.83 L-9590.91,-7384.9 L-9590.91,-8372.73 L-10431.2,-8372.73 L-10431.2,-8467.73 L-11028.8,-8467.73 L-11028.8,-8372.73 L-11028.8,-8372.73 L-11038,-8374.56"/>
</g>

<g fill="none" stroke="#000000" stroke-opacity="1" stroke-width="1" stroke-linecap="square" stroke-linejoin="bevel" transform="matrix(0.999975,0,0,-0.999975,13091.1,-2271.54)"
font-family="MS Shell Dlg 2" font-size="10.3125" font-weight="400" font-style="normal" 
>
</g>

<g fill="none" stroke="#000000" stroke-opacity="1" stroke-width="1" stroke-linecap="square" stroke-linejoin="bevel" transform="matrix(0.999975,0,0,-0.999975,13091.1,-2271.54)"
font-family="MS Shell Dlg 2" font-size="10.3125" font-weight="400" font-style="normal" 
>
</g>

<g fill="#ae5151" fill-opacity="0.2" stroke="#333333" stroke-opacity="1" stroke-width="1" stroke-linecap="round" stroke-linejoin="round" transform="matrix(0.999975,0,0,-0.999975,13091.1,-2271.54)"
font-family="MS Shell Dlg 2" font-size="10.3125" font-weight="400" font-style="normal" 
>
<path vector-effect="non-scaling-stroke" fill-rule="evenodd" d="M-4455.47,-5602.97 L-4719.42,-8374.43 L-4719.58,-8374.56 L-4728.77,-8372.73 L-4728.78,-8372.73 L-4728.78,-8467.73 L-5326.39,-8467.73 L-5326.39,-8372.73 L-6166.65,-8372.73 L-6166.65,-7384.9 L-6166.67,-7384.83 L-6201.9,-7349.6 L-6269.18,-7282.33 L-5550.84,-6563.99 L-5483.66,-6631.16 L-4455.47,-5602.97"/>
</g>

<g fill="none" stroke="#000000" stroke-opacity="1" stroke-width="1" stroke-linecap="square" stroke-linejoin="bevel" transform="matrix(0.999975,0,0,-0.999975,13091.1,-2271.54)"
font-family="MS Shell Dlg 2" font-size="10.3125" font-weight="400" font-style="normal" 
>
</g>

<g fill="none" stroke="#000000" stroke-opacity="1" stroke-width="1" stroke-linecap="square" stroke-linejoin="bevel" transform="matrix(0.999975,0,0,-0.999975,13091.1,-2271.54)"
font-family="MS Shell Dlg 2" font-size="10.3125" font-weight="400" font-style="normal" 
>
</g>

<g fill="#ae5151" fill-opacity="0.2" stroke="#333333" stroke-opacity="1" stroke-width="1" stroke-linecap="round" stroke-linejoin="round" transform="matrix(0.999975,0,0,-0.999975,13091.1,-2271.54)"
font-family="MS Shell Dlg 2" font-size="10.3125" font-weight="400" font-style="normal" 
>
<path vector-effect="non-scaling-stroke" fill-rule="evenodd" d="M-7718.78,-8367.73 L-7252.59,-3472.73 L-4743.19,-3472.73 L-4743.19,-3377.73 L-4243.54,-3377.73 L-4425.69,-5290.35 L-4899.56,-5764.22 L-4832.38,-5831.39 L-5550.72,-6549.73 L-5617.9,-6482.56 L-6343.32,-7207.98 L-6343.52,-7207.98 L-6378.75,-7172.76 L-6378.82,-7172.73 L-6628.68,-7172.73 L-6628.78,-7172.83 L-6628.78,-8372.73 L-7131.17,-8372.73 L-7131.17,-8467.73 L-7728.78,-8467.73 L-7728.78,-8367.73 L-7718.78,-8367.73"/>
</g>

<g fill="none" stroke="#000000" stroke-opacity="1" stroke-width="1" stroke-linecap="square" stroke-linejoin="bevel" transform="matrix(0.999975,0,0,-0.999975,13091.1,-2271.54)"
font-family="MS Shell Dlg 2" font-size="10.3125" font-weight="400" font-style="normal" 
>
</g>

<g fill="none" stroke="#000000" stroke-opacity="1" stroke-width="1" stroke-linecap="square" stroke-linejoin="bevel" transform="matrix(0.999975,0,0,-0.999975,13091.1,-2271.54)"
font-family="MS Shell Dlg 2" font-size="10.3125" font-weight="400" font-style="normal" 
>
</g>

<g fill="#ae5151" fill-opacity="0.2" stroke="#333333" stroke-opacity="1" stroke-width="1" stroke-linecap="round" stroke-linejoin="round" transform="matrix(0.999975,0,0,-0.999975,13091.1,-2271.54)"
font-family="MS Shell Dlg 2" font-size="10.3125" font-weight="400" font-style="normal" 
>
<path vector-effect="non-scaling-stroke" fill-rule="evenodd" d="M-11331.9,-5290.35 L-11514,-3377.73 L-11014.4,-3377.73 L-11014.4,-3472.73 L-8504.97,-3472.73 L-8038.78,-8367.73 L-8028.78,-8367.73 L-8028.78,-8467.73 L-8626.39,-8467.73 L-8626.39,-8372.73 L-9128.78,-8372.73 L-9128.78,-7172.83 L-9128.88,-7172.73 L-9378.74,-7172.73 L-9378.81,-7172.76 L-9414.03,-7207.98 L-9481.31,-7275.26 L-10199.6,-6556.92 L-10132.5,-6489.74 L-11331.9,-5290.35"/>
</g>

<g fill="none" stroke="#000000" stroke-opacity="1" stroke-width="1" stroke-linecap="square" stroke-linejoin="bevel" transform="matrix(0.999975,0,0,-0.999975,13091.1,-2271.54)"
font-family="MS Shell Dlg 2" font-size="10.3125" font-weight="400" font-style="normal" 
>
</g>

<g fill="none" stroke="#000000" stroke-opacity="1" stroke-width="1" stroke-linecap="square" stroke-linejoin="bevel" transform="matrix(0.999975,0,0,-0.999975,13091.1,-2271.54)"
font-family="MS Shell Dlg 2" font-size="10.3125" font-weight="400" font-style="normal" 
>
</g>

<g fill="#ae5151" fill-opacity="0.2" stroke="#333333" stroke-opacity="1" stroke-width="1" stroke-linecap="round" stroke-linejoin="round" transform="matrix(0.999975,0,0,-0.999975,13091.1,-2271.54)"
font-family="MS Shell Dlg 2" font-size="10.3125" font-weight="400" font-style="normal" 
>
<path vector-effect="non-scaling-stroke" fill-rule="evenodd" d="M-13090.9,-6844.3 L-12907.3,-6844.3 L-12907.2,-6844.34 L-11278.8,-8472.7 L-11278.7,-8472.73 L-11128.9,-8472.73 L-11128.8,-8472.84 L-11121.2,-8510.98 L-11121.2,-8511.01 L-11099.5,-8543.42 L-11099.5,-8543.45 L-11067.1,-8565.1 L-11067,-8565.12 L-11028.8,-8572.73 L-11028.8,-8572.73 L-10425.2,-8572.73 L-10425.2,-8477.73 L-9827.58,-8477.73 L-9827.58,-8572.73 L-9590.91,-8572.73 L-9590.91,-8784.72 L-9591.05,-8784.86 L-10295.1,-8784.86 L-10295.1,-8879.86 L-10992.3,-8879.86 L-10992.3,-8784.86 L-11689.5,-8784.86 L-11689.5,-8879.86 L-12386.7,-8879.86 L-12386.7,-8784.86 L-12971.7,-8784.86 L-13090.9,-8665.66 L-13090.9,-8638.17 L-13037.5,-8584.74 L-13090.9,-8531.31 L-13090.9,-6844.3"/>
</g>

<g fill="none" stroke="#000000" stroke-opacity="1" stroke-width="1" stroke-linecap="square" stroke-linejoin="bevel" transform="matrix(0.999975,0,0,-0.999975,13091.1,-2271.54)"
font-family="MS Shell Dlg 2" font-size="10.3125" font-weight="400" font-style="normal" 
>
</g>

<g fill="none" stroke="#000000" stroke-opacity="1" stroke-width="1" stroke-linecap="square" stroke-linejoin="bevel" transform="matrix(0.999975,0,0,-0.999975,13091.1,-2271.54)"
font-family="MS Shell Dlg 2" font-size="10.3125" font-weight="400" font-style="normal" 
>
</g>

<g fill="#ae5151" fill-opacity="0.2" stroke="#333333" stroke-opacity="1" stroke-width="1" stroke-linecap="round" stroke-linejoin="round" transform="matrix(0.999975,0,0,-0.999975,13091.1,-2271.54)"
font-family="MS Shell Dlg 2" font-size="10.3125" font-weight="400" font-style="normal" 
>
<path vector-effect="non-scaling-stroke" fill-rule="evenodd" d="M-6166.65,-8572.73 L-5929.97,-8572.73 L-5929.97,-8477.73 L-5332.36,-8477.73 L-5332.36,-8572.73 L-4728.79,-8572.73 L-4728.77,-8572.73 L-4690.53,-8565.12 L-4690.49,-8565.1 L-4658.08,-8543.45 L-4658.06,-8543.42 L-4636.4,-8511.01 L-4636.39,-8510.98 L-4628.8,-8472.84 L-4628.66,-8472.73 L-4478.82,-8472.73 L-4478.75,-8472.7 L-2850.39,-6844.34 L-2850.29,-6844.3 L-2666.65,-6844.3 L-2666.65,-8531.31 L-2720.08,-8584.74 L-2666.65,-8638.17 L-2666.65,-8665.66 L-2785.85,-8784.86 L-3370.83,-8784.86 L-3370.83,-8879.86 L-4068.04,-8879.86 L-4068.04,-8784.86 L-4765.25,-8784.86 L-4765.25,-8879.86 L-5462.46,-8879.86 L-5462.46,-8784.86 L-6166.5,-8784.86 L-6166.65,-8784.72 L-6166.65,-8572.73"/>
</g>

<g fill="none" stroke="#000000" stroke-opacity="1" stroke-width="1" stroke-linecap="square" stroke-linejoin="bevel" transform="matrix(0.999975,0,0,-0.999975,13091.1,-2271.54)"
font-family="MS Shell Dlg 2" font-size="10.3125" font-weight="400" font-style="normal" 
>
</g>

<g fill="none" stroke="#000000" stroke-opacity="1" stroke-width="1" stroke-linecap="square" stroke-linejoin="bevel" transform="matrix(0.999975,0,0,-0.999975,13091.1,-2271.54)"
font-family="MS Shell Dlg 2" font-size="10.3125" font-weight="400" font-style="normal" 
>
</g>

<g fill="#ae5151" fill-opacity="0.2" stroke="#333333" stroke-opacity="1" stroke-width="1" stroke-linecap="round" stroke-linejoin="round" transform="matrix(0.999975,0,0,-0.999975,13091.1,-2271.54)"
font-family="MS Shell Dlg 2" font-size="10.3125" font-weight="400" font-style="normal" 
>
<path vector-effect="non-scaling-stroke" fill-rule="evenodd" d="M-12090.8,-13784.9 L-12090.9,-13784.7 L-12090.9,-13635 L-12090.8,-13634.8 L-12052.7,-13627.3 L-12052.6,-13627.2 L-12020.2,-13605.6 L-12020.2,-13605.6 L-11998.5,-13573.1 L-11998.5,-13573.1 L-11990.9,-13534.9 L-11990.9,-13534.8 L-11990.9,-13138.4 L-10378.8,-11526.3 L-9222.88,-12682.2 L-9155.71,-12615 L-8488.38,-13282.3 L-8559.09,-13353 L-8590.88,-13384.8 L-8590.91,-13384.9 L-8590.91,-13784.7 L-8591.05,-13784.9 L-9295.09,-13784.9 L-9295.09,-13879.9 L-9992.3,-13879.9 L-9992.3,-13784.9 L-10689.5,-13784.9 L-10689.5,-13879.9 L-11386.7,-13879.9 L-11386.7,-13784.9 L-12090.8,-13784.9"/>
</g>

<g fill="none" stroke="#000000" stroke-opacity="1" stroke-width="1" stroke-linecap="square" stroke-linejoin="bevel" transform="matrix(0.999975,0,0,-0.999975,13091.1,-2271.54)"
font-family="MS Shell Dlg 2" font-size="10.3125" font-weight="400" font-style="normal" 
>
</g>

<g fill="none" stroke="#000000" stroke-opacity="1" stroke-width="1" stroke-linecap="square" stroke-linejoin="bevel" transform="matrix(0.999975,0,0,-0.999975,13091.1,-2271.54)"
font-family="MS Shell Dlg 2" font-size="10.3125" font-weight="400" font-style="normal" 
>
</g>

<g fill="#ae5151" fill-opacity="0.2" stroke="#333333" stroke-opacity="1" stroke-width="1" stroke-linecap="round" stroke-linejoin="round" transform="matrix(0.999975,0,0,-0.999975,13091.1,-2271.54)"
font-family="MS Shell Dlg 2" font-size="10.3125" font-weight="400" font-style="normal" 
>
<path vector-effect="non-scaling-stroke" fill-rule="evenodd" d="M-12240.9,-10034.8 L-12240.8,-10034.9 L-12191.1,-10034.9 L-12095.9,-10034.9 L-12095.9,-10732.1 L-12190.9,-10732.1 L-12190.9,-12837.6 L-12095.9,-12837.6 L-12095.9,-13094.9 L-12368.9,-13367.9 L-12436.1,-13300.8 L-12458.2,-13322.8 L-13090.9,-12957.5 L-13090.9,-8985 L-13090.9,-8889.86 L-13015.2,-8889.86 L-12689.8,-9215.25 L-12622.6,-9148.08 L-12138.4,-9632.33 L-12209.1,-9703.04 L-12240.9,-9734.83 L-12240.9,-9734.9 L-12240.9,-10034.8"/>
</g>

<g fill="none" stroke="#000000" stroke-opacity="1" stroke-width="1" stroke-linecap="square" stroke-linejoin="bevel" transform="matrix(0.999975,0,0,-0.999975,13091.1,-2271.54)"
font-family="MS Shell Dlg 2" font-size="10.3125" font-weight="400" font-style="normal" 
>
</g>

<g fill="none" stroke="#000000" stroke-opacity="1" stroke-width="1" stroke-linecap="square" stroke-linejoin="bevel" transform="matrix(0.999975,0,0,-0.999975,13091.1,-2271.54)"
font-family="MS Shell Dlg 2" font-size="10.3125" font-weight="400" font-style="normal" 
>
</g>

<g fill="#ae5151" fill-opacity="0.2" stroke="#333333" stroke-opacity="1" stroke-width="1" stroke-linecap="round" stroke-linejoin="round" transform="matrix(0.999975,0,0,-0.999975,13091.1,-2271.54)"
font-family="MS Shell Dlg 2" font-size="10.3125" font-weight="400" font-style="normal" 
>
<path vector-effect="non-scaling-stroke" fill-rule="evenodd" d="M-3551.9,-9699.6 L-3619.18,-9632.33 L-3134.92,-9148.08 L-3067.75,-9215.25 L-2742.36,-8889.86 L-2666.65,-8889.86 L-2666.65,-8989.86 L-2666.65,-12957.5 L-3369.82,-13363.5 L-3314.27,-13307.9 L-3566.65,-13055.6 L-3566.65,-12830.7 L-3661.65,-12830.7 L-3661.65,-12133.5 L-3566.65,-12133.5 L-3566.65,-11436.3 L-3661.65,-11436.3 L-3661.65,-10739 L-3566.65,-10739 L-3566.65,-10035 L-3566.5,-10034.9 L-3516.75,-10034.9 L-3516.65,-10034.8 L-3516.65,-9734.9 L-3516.67,-9734.83 L-3551.9,-9699.6"/>
</g>

<g fill="none" stroke="#000000" stroke-opacity="1" stroke-width="1" stroke-linecap="square" stroke-linejoin="bevel" transform="matrix(0.999975,0,0,-0.999975,13091.1,-2271.54)"
font-family="MS Shell Dlg 2" font-size="10.3125" font-weight="400" font-style="normal" 
>
</g>

<g fill="none" stroke="#000000" stroke-opacity="1" stroke-width="1" stroke-linecap="square" stroke-linejoin="bevel" transform="matrix(0.999975,0,0,-0.999975,13091.1,-2271.54)"
font-family="MS Shell Dlg 2" font-size="10.3125" font-weight="400" font-style="normal" 
>
</g>

<g fill="#ae5151" fill-opacity="0.2" stroke="#333333" stroke-opacity="1" stroke-width="1" stroke-linecap="round" stroke-linejoin="round" transform="matrix(0.999975,0,0,-0.999975,13091.1,-2271.54)"
font-family="MS Shell Dlg 2" font-size="10.3125" font-weight="400" font-style="normal" 
>
<path vector-effect="non-scaling-stroke" fill-rule="evenodd" d="M-11990.9,-12989.9 L-11990.9,-12830.7 L-12085.9,-12830.7 L-12085.9,-12133.5 L-11990.9,-12133.5 L-11990.9,-11436.3 L-12085.9,-11436.3 L-12085.9,-10739 L-11990.9,-10739 L-11990.9,-10035 L-11990.8,-10034.9 L-11941,-10034.9 L-11940.9,-10034.8 L-11905.7,-9999.6 L-11838.4,-9932.33 L-11171,-10599.7 L-11238.2,-10666.8 L-10453,-11452 L-10932.2,-11931.3 L-10999.4,-11864.1 L-11717.8,-12582.4 L-11650.6,-12649.6 L-11990.9,-12989.9"/>
</g>

<g fill="none" stroke="#000000" stroke-opacity="1" stroke-width="1" stroke-linecap="square" stroke-linejoin="bevel" transform="matrix(0.999975,0,0,-0.999975,13091.1,-2271.54)"
font-family="MS Shell Dlg 2" font-size="10.3125" font-weight="400" font-style="normal" 
>
</g>

<g fill="none" stroke="#000000" stroke-opacity="1" stroke-width="1" stroke-linecap="square" stroke-linejoin="bevel" transform="matrix(0.999975,0,0,-0.999975,13091.1,-2271.54)"
font-family="MS Shell Dlg 2" font-size="10.3125" font-weight="400" font-style="normal" 
>
</g>

<g fill="#ae5151" fill-opacity="0.2" stroke="#333333" stroke-opacity="1" stroke-width="1" stroke-linecap="round" stroke-linejoin="round" transform="matrix(0.999975,0,0,-0.999975,13091.1,-2271.54)"
font-family="MS Shell Dlg 2" font-size="10.3125" font-weight="400" font-style="normal" 
>
<path vector-effect="non-scaling-stroke" fill-rule="evenodd" d="M-7166.65,-13384.9 L-7166.67,-13384.8 L-7201.9,-13349.6 L-7269.18,-13282.3 L-6601.84,-12615 L-6534.67,-12682.2 L-5311.6,-11459.1 L-4832.38,-11938.3 L-4899.56,-12005.5 L-4181.22,-12723.8 L-4114.04,-12656.7 L-3671.65,-13099.1 L-3671.65,-13534.9 L-3766.64,-13534.9 L-3766.64,-13534.9 L-3759.04,-13573.1 L-3759.02,-13573.1 L-3737.37,-13605.6 L-3737.34,-13605.6 L-3704.93,-13627.2 L-3704.89,-13627.3 L-3666.76,-13634.8 L-3666.65,-13635 L-3666.65,-13784.7 L-3666.79,-13784.9 L-4370.83,-13784.9 L-4370.83,-13879.9 L-5068.04,-13879.9 L-5068.04,-13784.9 L-5765.25,-13784.9 L-5765.25,-13879.9 L-6462.46,-13879.9 L-6462.46,-13784.9 L-7166.5,-13784.9 L-7166.65,-13784.7 L-7166.65,-13384.9"/>
</g>

<g fill="none" stroke="#000000" stroke-opacity="1" stroke-width="1" stroke-linecap="square" stroke-linejoin="bevel" transform="matrix(0.999975,0,0,-0.999975,13091.1,-2271.54)"
font-family="MS Shell Dlg 2" font-size="10.3125" font-weight="400" font-style="normal" 
>
</g>

<g fill="none" stroke="#000000" stroke-opacity="1" stroke-width="1" stroke-linecap="square" stroke-linejoin="bevel" transform="matrix(0.999975,0,0,-0.999975,13091.1,-2271.54)"
font-family="MS Shell Dlg 2" font-size="10.3125" font-weight="400" font-style="normal" 
>
</g>

<g fill="#ae5151" fill-opacity="0.2" stroke="#333333" stroke-opacity="1" stroke-width="1" stroke-linecap="round" stroke-linejoin="round" transform="matrix(0.999975,0,0,-0.999975,13091.1,-2271.54)"
font-family="MS Shell Dlg 2" font-size="10.3125" font-weight="400" font-style="normal" 
>
<path vector-effect="non-scaling-stroke" fill-rule="evenodd" d="M-5453.02,-11317.7 L-6002.09,-11866.7 L-5934.91,-11933.9 L-6602.24,-12601.3 L-6669.42,-12534.1 L-7343.32,-13208 L-7343.52,-13208 L-7378.75,-13172.8 L-7378.82,-13172.7 L-8378.74,-13172.7 L-8378.81,-13172.8 L-8414.03,-13208 L-8414.23,-13208 L-9088.14,-12534.1 L-9155.31,-12601.3 L-9822.64,-11933.9 L-9755.47,-11866.7 L-10237.4,-11384.9 L-10132.5,-11280 L-10199.6,-11212.8 L-9481.31,-10494.5 L-9410.6,-10565.2 L-9378.81,-10597 L-9378.74,-10597 L-9138.92,-10597 L-9138.78,-10597.1 L-9138.78,-11972.7 L-9138.78,-11972.7 L-9138.02,-11976.5 L-9138,-11976.6 L-9135.86,-11979.8 L-9135.83,-11979.8 L-9132.62,-11982 L-9132.58,-11982 L-9128.79,-11982.7 L-9128.77,-11982.7 L-6628.79,-11982.7 L-6628.77,-11982.7 L-6624.97,-11982 L-6624.93,-11982 L-6621.72,-11979.8 L-6621.69,-11979.8 L-6619.55,-11976.6 L-6619.53,-11976.5 L-6618.78,-11972.7 L-6618.78,-11972.7 L-6618.78,-10597.1 L-6618.64,-10597 L-6378.82,-10597 L-6378.75,-10597 L-6343.52,-10561.7 L-6343.32,-10561.7 L-5617.9,-11287.2 L-5550.72,-11220 L-5453.02,-11317.7"/>
</g>

<g fill="none" stroke="#000000" stroke-opacity="1" stroke-width="1" stroke-linecap="square" stroke-linejoin="bevel" transform="matrix(0.999975,0,0,-0.999975,13091.1,-2271.54)"
font-family="MS Shell Dlg 2" font-size="10.3125" font-weight="400" font-style="normal" 
>
</g>

<g fill="none" stroke="#000000" stroke-opacity="1" stroke-width="1" stroke-linecap="square" stroke-linejoin="bevel" transform="matrix(0.999975,0,0,-0.999975,13091.1,-2271.54)"
font-family="MS Shell Dlg 2" font-size="10.3125" font-weight="400" font-style="normal" 
>
</g>

<g fill="#ae5151" fill-opacity="0.2" stroke="#333333" stroke-opacity="1" stroke-width="1" stroke-linecap="round" stroke-linejoin="round" transform="matrix(0.999975,0,0,-0.999975,13091.1,-2271.54)"
font-family="MS Shell Dlg 2" font-size="10.3125" font-weight="400" font-style="normal" 
>
<path vector-effect="non-scaling-stroke" fill-rule="evenodd" d="M-5237.36,-11384.9 L-4519.33,-10666.8 L-4586.51,-10599.7 L-3919.18,-9932.33 L-3848.46,-10003 L-3816.67,-10034.8 L-3816.6,-10034.9 L-3766.79,-10034.9 L-3671.65,-10034.9 L-3671.65,-10732.1 L-3766.65,-10732.1 L-3766.65,-12837.6 L-3671.65,-12837.6 L-3671.65,-12950.6 L-5237.36,-11384.9"/>
</g>

<g fill="none" stroke="#000000" stroke-opacity="1" stroke-width="1" stroke-linecap="square" stroke-linejoin="bevel" transform="matrix(0.999975,0,0,-0.999975,13091.1,-2271.54)"
font-family="MS Shell Dlg 2" font-size="10.3125" font-weight="400" font-style="normal" 
>
</g>

<g fill="none" stroke="#000000" stroke-opacity="1" stroke-width="1" stroke-linecap="square" stroke-linejoin="bevel" transform="matrix(0.999975,0,0,-0.999975,13091.1,-2271.54)"
font-family="MS Shell Dlg 2" font-size="10.3125" font-weight="400" font-style="normal" 
>
</g>

<g fill="#ae5151" fill-opacity="0.2" stroke="#333333" stroke-opacity="1" stroke-width="1" stroke-linecap="round" stroke-linejoin="round" transform="matrix(0.999975,0,0,-0.999975,13091.1,-2271.54)"
font-family="MS Shell Dlg 2" font-size="10.3125" font-weight="400" font-style="normal" 
>
<path vector-effect="non-scaling-stroke" fill-rule="evenodd" d="M-6166.65,-9772.73 L-4795.71,-9772.73 L-4795.71,-9677.73 L-4028.78,-9677.73 L-4028.78,-9777.73 L-4028.78,-9822.69 L-4028.75,-9822.76 L-3993.52,-9857.98 L-3993.52,-9858.18 L-4667.43,-10532.1 L-4600.25,-10599.3 L-5267.58,-11266.6 L-5334.76,-11199.4 L-5378.78,-11243.4 L-5483.66,-11138.6 L-5550.84,-11205.7 L-6269.18,-10487.4 L-6198.46,-10416.7 L-6166.67,-10384.9 L-6166.65,-10384.8 L-6166.65,-9772.73"/>
</g>

<g fill="none" stroke="#000000" stroke-opacity="1" stroke-width="1" stroke-linecap="square" stroke-linejoin="bevel" transform="matrix(0.999975,0,0,-0.999975,13091.1,-2271.54)"
font-family="MS Shell Dlg 2" font-size="10.3125" font-weight="400" font-style="normal" 
>
</g>

<g fill="none" stroke="#000000" stroke-opacity="1" stroke-width="1" stroke-linecap="square" stroke-linejoin="bevel" transform="matrix(0.999975,0,0,-0.999975,13091.1,-2271.54)"
font-family="MS Shell Dlg 2" font-size="10.3125" font-weight="400" font-style="normal" 
>
</g>

<g fill="#ae5151" fill-opacity="0.2" stroke="#333333" stroke-opacity="1" stroke-width="1" stroke-linecap="round" stroke-linejoin="round" transform="matrix(0.999975,0,0,-0.999975,13091.1,-2271.54)"
font-family="MS Shell Dlg 2" font-size="10.3125" font-weight="400" font-style="normal" 
>
<path vector-effect="non-scaling-stroke" fill-rule="evenodd" d="M-9590.91,-9572.73 L-10187.2,-9572.73 L-10187.2,-9667.73 L-10954.2,-9667.73 L-10954.2,-9572.73 L-11728.6,-9572.73 L-11728.8,-9572.59 L-11728.8,-9522.83 L-11728.9,-9522.73 L-12028.7,-9522.73 L-12028.8,-9522.76 L-12064,-9557.98 L-12064.2,-9557.98 L-12553.2,-9068.99 L-12620.4,-9136.16 L-12866.7,-8889.86 L-12393.7,-8889.86 L-12393.7,-8984.86 L-10288.1,-8984.86 L-10288.1,-8889.86 L-9590.91,-8889.86 L-9590.91,-8989.86 L-9590.91,-9572.73"/>
</g>

<g fill="none" stroke="#000000" stroke-opacity="1" stroke-width="1" stroke-linecap="square" stroke-linejoin="bevel" transform="matrix(0.999975,0,0,-0.999975,13091.1,-2271.54)"
font-family="MS Shell Dlg 2" font-size="10.3125" font-weight="400" font-style="normal" 
>
</g>

<g fill="none" stroke="#000000" stroke-opacity="1" stroke-width="1" stroke-linecap="square" stroke-linejoin="bevel" transform="matrix(0.999975,0,0,-0.999975,13091.1,-2271.54)"
font-family="MS Shell Dlg 2" font-size="10.3125" font-weight="400" font-style="normal" 
>
</g>

<g fill="#ae5151" fill-opacity="0.2" stroke="#333333" stroke-opacity="1" stroke-width="1" stroke-linecap="round" stroke-linejoin="round" transform="matrix(0.999975,0,0,-0.999975,13091.1,-2271.54)"
font-family="MS Shell Dlg 2" font-size="10.3125" font-weight="400" font-style="normal" 
>
<path vector-effect="non-scaling-stroke" fill-rule="evenodd" d="M-9128.78,-9772.73 L-8645.71,-9772.73 L-8645.71,-9677.73 L-7878.78,-9677.73 L-7111.84,-9677.73 L-7111.84,-9772.73 L-6628.78,-9772.73 L-6628.78,-10586.9 L-6628.89,-10587 L-6632.58,-10587.7 L-6632.62,-10587.8 L-6635.83,-10589.9 L-6635.86,-10589.9 L-6638,-10593.1 L-6638.02,-10593.2 L-6638.78,-10597 L-6638.78,-10597 L-6638.78,-11962.6 L-6638.92,-11962.7 L-9118.64,-11962.7 L-9118.78,-11962.6 L-9118.78,-10597 L-9118.78,-10597 L-9119.53,-10593.2 L-9119.55,-10593.1 L-9121.69,-10589.9 L-9121.72,-10589.9 L-9124.93,-10587.8 L-9124.97,-10587.7 L-9128.66,-10587 L-9128.78,-10586.9 L-9128.78,-9772.73"/>
</g>

<g fill="none" stroke="#000000" stroke-opacity="1" stroke-width="1" stroke-linecap="square" stroke-linejoin="bevel" transform="matrix(0.999975,0,0,-0.999975,13091.1,-2271.54)"
font-family="MS Shell Dlg 2" font-size="10.3125" font-weight="400" font-style="normal" 
>
</g>

<g fill="none" stroke="#000000" stroke-opacity="1" stroke-width="1" stroke-linecap="square" stroke-linejoin="bevel" transform="matrix(0.999975,0,0,-0.999975,13091.1,-2271.54)"
font-family="MS Shell Dlg 2" font-size="10.3125" font-weight="400" font-style="normal" 
>
</g>

<g fill="#ae5151" fill-opacity="0.2" stroke="#333333" stroke-opacity="1" stroke-width="1" stroke-linecap="round" stroke-linejoin="round" transform="matrix(0.999975,0,0,-0.999975,13091.1,-2271.54)"
font-family="MS Shell Dlg 2" font-size="10.3125" font-weight="400" font-style="normal" 
>
<path vector-effect="non-scaling-stroke" fill-rule="evenodd" d="M-11728.8,-9822.76 L-11728.8,-9822.69 L-11728.8,-9772.87 L-11728.8,-9677.73 L-10961.8,-9677.73 L-10961.8,-9772.73 L-9590.91,-9772.73 L-9590.91,-10384.8 L-9590.88,-10384.9 L-9555.65,-10420.1 L-9555.65,-10420.3 L-10281.1,-11145.7 L-10213.9,-11212.9 L-10311.6,-11310.6 L-10422.8,-11199.4 L-10490,-11266.6 L-11157.3,-10599.3 L-11090.1,-10532.1 L-11764,-9858.18 L-11764,-9857.98 L-11728.8,-9822.76"/>
</g>

<g fill="none" stroke="#000000" stroke-opacity="1" stroke-width="1" stroke-linecap="square" stroke-linejoin="bevel" transform="matrix(0.999975,0,0,-0.999975,13091.1,-2271.54)"
font-family="MS Shell Dlg 2" font-size="10.3125" font-weight="400" font-style="normal" 
>
</g>

<g fill="none" stroke="#000000" stroke-opacity="1" stroke-width="1" stroke-linecap="square" stroke-linejoin="bevel" transform="matrix(0.999975,0,0,-0.999975,13091.1,-2271.54)"
font-family="MS Shell Dlg 2" font-size="10.3125" font-weight="400" font-style="normal" 
>
</g>

<g fill="#ae5151" fill-opacity="0.2" stroke="#333333" stroke-opacity="1" stroke-width="1" stroke-linecap="round" stroke-linejoin="round" transform="matrix(0.999975,0,0,-0.999975,13091.1,-2271.54)"
font-family="MS Shell Dlg 2" font-size="10.3125" font-weight="400" font-style="normal" 
>
<path vector-effect="non-scaling-stroke" fill-rule="evenodd" d="M-2890.85,-8889.86 L-3137.15,-9136.16 L-3204.33,-9068.99 L-3693.32,-9557.98 L-3693.52,-9557.98 L-3728.75,-9522.76 L-3728.82,-9522.73 L-4028.68,-9522.73 L-4028.78,-9522.83 L-4028.78,-9572.59 L-4028.92,-9572.73 L-4803.38,-9572.73 L-4803.38,-9667.73 L-5570.31,-9667.73 L-5570.31,-9572.73 L-6166.65,-9572.73 L-6166.65,-8985 L-6166.65,-8889.86 L-5469.43,-8889.86 L-5469.43,-8984.86 L-3363.86,-8984.86 L-3363.86,-8889.86 L-2890.85,-8889.86"/>
</g>

<g fill="none" stroke="#000000" stroke-opacity="1" stroke-width="1" stroke-linecap="square" stroke-linejoin="bevel" transform="matrix(0.999975,0,0,-0.999975,13091.1,-2271.54)"
font-family="MS Shell Dlg 2" font-size="10.3125" font-weight="400" font-style="normal" 
>
</g>

<g fill="none" stroke="#000000" stroke-opacity="1" stroke-width="1" stroke-linecap="square" stroke-linejoin="bevel" transform="matrix(0.999975,0,0,-0.999975,13091.1,-2271.54)"
font-family="MS Shell Dlg 2" font-size="10.3125" font-weight="400" font-style="normal" 
>
</g>

<g fill="#ae5151" fill-opacity="0.2" stroke="#333333" stroke-opacity="1" stroke-width="1" stroke-linecap="round" stroke-linejoin="round" transform="matrix(0.999975,0,0,-0.999975,13091.1,-2271.54)"
font-family="MS Shell Dlg 2" font-size="10.3125" font-weight="400" font-style="normal" 
>
<path vector-effect="non-scaling-stroke" fill-rule="evenodd" d="M-9128.78,-8477.73 L-8632.36,-8477.73 L-8632.36,-8572.73 L-8028.79,-8572.73 L-8028.77,-8572.73 L-7990.53,-8565.12 L-7990.49,-8565.1 L-7958.08,-8543.45 L-7958.06,-8543.42 L-7936.4,-8511.01 L-7936.39,-8510.98 L-7928.8,-8472.84 L-7928.66,-8472.73 L-7828.89,-8472.73 L-7828.75,-8472.84 L-7821.17,-8510.98 L-7821.15,-8511.01 L-7799.5,-8543.42 L-7799.47,-8543.45 L-7767.06,-8565.1 L-7767.03,-8565.12 L-7728.79,-8572.73 L-7728.77,-8572.73 L-7125.19,-8572.73 L-7125.19,-8477.73 L-6628.78,-8477.73 L-6628.78,-9667.73 L-7104.18,-9667.73 L-7104.18,-9572.73 L-8653.38,-9572.73 L-8653.38,-9667.73 L-9128.78,-9667.73 L-9128.78,-8477.73"/>
</g>

<g fill="none" stroke="#000000" stroke-opacity="1" stroke-width="1" stroke-linecap="square" stroke-linejoin="bevel" transform="matrix(0.999975,0,0,-0.999975,13091.1,-2271.54)"
font-family="MS Shell Dlg 2" font-size="10.3125" font-weight="400" font-style="normal" 
>
</g>

<g fill="none" stroke="#000000" stroke-opacity="1" stroke-width="1" stroke-linecap="square" stroke-linejoin="bevel" transform="matrix(1,0,0,-1,0,24823.1)"
font-family="MS Shell Dlg 2" font-size="10.3125" font-weight="400" font-style="normal" 
>
</g>
</g>
</svg>
