<?xml version="1.0" encoding="UTF-8" standalone="no"?>
<svg width="988.06mm" height="574.604mm"
 xmlns="http://www.w3.org/2000/svg" xmlns:xlink="http://www.w3.org/1999/xlink"  version="1.2" baseProfile="tiny">
<title>SVG Generator Example Drawing</title>
<desc>An SVG drawing created by the SVG Generator</desc>
<defs>
</defs>
<g fill="none" stroke="black" stroke-width="1" fill-rule="evenodd" stroke-linecap="square" stroke-linejoin="bevel" >

<g fill="none" stroke="#000000" stroke-opacity="1" stroke-width="1" stroke-linecap="square" stroke-linejoin="bevel" transform="matrix(1,0,0,-1,0,2036.56)"
font-family="MS Shell Dlg 2" font-size="10.3125" font-weight="400" font-style="normal" 
>
</g>

<g fill="none" stroke="#000000" stroke-opacity="1" stroke-width="1" stroke-linecap="square" stroke-linejoin="bevel" transform="matrix(1,0,0,-1,0,2036.56)"
font-family="MS Shell Dlg 2" font-size="10.3125" font-weight="400" font-style="normal" 
>
</g>

<g fill="none" stroke="#000000" stroke-opacity="1" stroke-width="1" stroke-linecap="square" stroke-linejoin="bevel" transform="matrix(0.999725,0,0,-0.999725,13087.8,-6841.36)"
font-family="MS Shell Dlg 2" font-size="10.3125" font-weight="400" font-style="normal" 
>
</g>

<g fill="#ae5151" fill-opacity="0.2" stroke="#333333" stroke-opacity="1" stroke-width="1" stroke-linecap="round" stroke-linejoin="round" transform="matrix(0.999725,0,0,-0.999725,13087.8,-6841.36)"
font-family="MS Shell Dlg 2" font-size="10.3125" font-weight="400" font-style="normal" 
>
<path vector-effect="non-scaling-stroke" fill-rule="evenodd" d="M-13090.9,-6844.3 L-12907.3,-6844.3 L-12907.2,-6844.34 L-11278.8,-8472.7 L-11278.7,-8472.73 L-11128.9,-8472.73 L-11128.8,-8472.84 L-11121.2,-8510.98 L-11121.2,-8511.01 L-11099.5,-8543.42 L-11099.5,-8543.45 L-11067.1,-8565.1 L-11067,-8565.12 L-11028.8,-8572.73 L-11028.8,-8572.73 L-10425.2,-8572.73 L-10425.2,-8477.73 L-9827.58,-8477.73 L-9827.58,-8572.73 L-9590.91,-8572.73 L-9590.91,-8784.72 L-9591.05,-8784.86 L-10295.1,-8784.86 L-10295.1,-8879.86 L-10992.3,-8879.86 L-10992.3,-8784.86 L-11689.5,-8784.86 L-11689.5,-8879.86 L-12386.7,-8879.86 L-12386.7,-8784.86 L-12971.7,-8784.86 L-13090.9,-8665.66 L-13090.9,-8638.17 L-13037.5,-8584.74 L-13090.9,-8531.31 L-13090.9,-6844.3"/>
</g>

<g fill="none" stroke="#000000" stroke-opacity="1" stroke-width="1" stroke-linecap="square" stroke-linejoin="bevel" transform="matrix(0.999725,0,0,-0.999725,13087.8,-6841.36)"
font-family="MS Shell Dlg 2" font-size="10.3125" font-weight="400" font-style="normal" 
>
</g>

<g fill="none" stroke="#000000" stroke-opacity="1" stroke-width="1" stroke-linecap="square" stroke-linejoin="bevel" transform="matrix(1,0,0,-1,0,2036.56)"
font-family="MS Shell Dlg 2" font-size="10.3125" font-weight="400" font-style="normal" 
>
</g>
</g>
</svg>
