<?xml version="1.0" encoding="UTF-8" standalone="no"?>
<svg width="924.56mm" height="219.569mm"
 xmlns="http://www.w3.org/2000/svg" xmlns:xlink="http://www.w3.org/1999/xlink"  version="1.2" baseProfile="tiny">
<title>SVG Generator Example Drawing</title>
<desc>An SVG drawing created by the SVG Generator</desc>
<defs>
</defs>
<g fill="none" stroke="black" stroke-width="1" fill-rule="evenodd" stroke-linecap="square" stroke-linejoin="bevel" >

<g fill="none" stroke="#000000" stroke-opacity="1" stroke-width="1" stroke-linecap="square" stroke-linejoin="bevel" transform="matrix(1,0,0,-1,0,778.868)"
font-family="MS Shell Dlg 2" font-size="10.3125" font-weight="400" font-style="normal" 
>
</g>

<g fill="none" stroke="#000000" stroke-opacity="1" stroke-width="1" stroke-linecap="square" stroke-linejoin="bevel" transform="matrix(1,0,0,-1,0,778.868)"
font-family="MS Shell Dlg 2" font-size="10.3125" font-weight="400" font-style="normal" 
>
</g>

<g fill="none" stroke="#000000" stroke-opacity="1" stroke-width="1" stroke-linecap="square" stroke-linejoin="bevel" transform="matrix(0.998886,0,0,-0.998886,12852.9,-8878.59)"
font-family="MS Shell Dlg 2" font-size="10.3125" font-weight="400" font-style="normal" 
>
</g>

<g fill="#ae5151" fill-opacity="0.2" stroke="#333333" stroke-opacity="1" stroke-width="1" stroke-linecap="round" stroke-linejoin="round" transform="matrix(0.998886,0,0,-0.998886,12852.9,-8878.59)"
font-family="MS Shell Dlg 2" font-size="10.3125" font-weight="400" font-style="normal" 
>
<path vector-effect="non-scaling-stroke" fill-rule="evenodd" d="M-9590.91,-9572.73 L-10187.2,-9572.73 L-10187.2,-9667.73 L-10954.2,-9667.73 L-10954.2,-9572.73 L-11728.6,-9572.73 L-11728.8,-9572.59 L-11728.8,-9522.83 L-11728.9,-9522.73 L-12028.7,-9522.73 L-12028.8,-9522.76 L-12064,-9557.98 L-12064.2,-9557.98 L-12553.2,-9068.99 L-12620.4,-9136.16 L-12866.7,-8889.86 L-12393.7,-8889.86 L-12393.7,-8984.86 L-10288.1,-8984.86 L-10288.1,-8889.86 L-9590.91,-8889.86 L-9590.91,-8989.86 L-9590.91,-9572.73"/>
</g>

<g fill="none" stroke="#000000" stroke-opacity="1" stroke-width="1" stroke-linecap="square" stroke-linejoin="bevel" transform="matrix(0.998886,0,0,-0.998886,12852.9,-8878.59)"
font-family="MS Shell Dlg 2" font-size="10.3125" font-weight="400" font-style="normal" 
>
</g>

<g fill="none" stroke="#000000" stroke-opacity="1" stroke-width="1" stroke-linecap="square" stroke-linejoin="bevel" transform="matrix(1,0,0,-1,0,778.868)"
font-family="MS Shell Dlg 2" font-size="10.3125" font-weight="400" font-style="normal" 
>
</g>
</g>
</svg>
