<?xml version="1.0" encoding="UTF-8" standalone="no"?>
<svg width="1016.85mm" height="664.351mm"
 xmlns="http://www.w3.org/2000/svg" xmlns:xlink="http://www.w3.org/1999/xlink"  version="1.2" baseProfile="tiny">
<title>SVG Generator Example Drawing</title>
<desc>An SVG drawing created by the SVG Generator</desc>
<defs>
</defs>
<g fill="none" stroke="black" stroke-width="1" fill-rule="evenodd" stroke-linecap="square" stroke-linejoin="bevel" >

<g fill="none" stroke="#000000" stroke-opacity="1" stroke-width="1" stroke-linecap="square" stroke-linejoin="bevel" transform="matrix(1,0,0,-1,0,2354.58)"
font-family="MS Shell Dlg 2" font-size="10.3125" font-weight="400" font-style="normal" 
>
</g>

<g fill="none" stroke="#000000" stroke-opacity="1" stroke-width="1" stroke-linecap="square" stroke-linejoin="bevel" transform="matrix(1,0,0,-1,0,2354.58)"
font-family="MS Shell Dlg 2" font-size="10.3125" font-weight="400" font-style="normal" 
>
</g>

<g fill="none" stroke="#000000" stroke-opacity="1" stroke-width="1" stroke-linecap="square" stroke-linejoin="bevel" transform="matrix(0.999754,0,0,-0.999754,12088.4,-11522.4)"
font-family="MS Shell Dlg 2" font-size="10.3125" font-weight="400" font-style="normal" 
>
</g>

<g fill="#ae5151" fill-opacity="0.2" stroke="#333333" stroke-opacity="1" stroke-width="1" stroke-linecap="round" stroke-linejoin="round" transform="matrix(0.999754,0,0,-0.999754,12088.4,-11522.4)"
font-family="MS Shell Dlg 2" font-size="10.3125" font-weight="400" font-style="normal" 
>
<path vector-effect="non-scaling-stroke" fill-rule="evenodd" d="M-12090.8,-13784.9 L-12090.9,-13784.7 L-12090.9,-13635 L-12090.8,-13634.8 L-12052.7,-13627.3 L-12052.6,-13627.2 L-12020.2,-13605.6 L-12020.2,-13605.6 L-11998.5,-13573.1 L-11998.5,-13573.1 L-11990.9,-13534.9 L-11990.9,-13534.8 L-11990.9,-13138.4 L-10378.8,-11526.3 L-9222.88,-12682.2 L-9155.71,-12615 L-8488.38,-13282.3 L-8559.09,-13353 L-8590.88,-13384.8 L-8590.91,-13384.9 L-8590.91,-13784.7 L-8591.05,-13784.9 L-9295.09,-13784.9 L-9295.09,-13879.9 L-9992.3,-13879.9 L-9992.3,-13784.9 L-10689.5,-13784.9 L-10689.5,-13879.9 L-11386.7,-13879.9 L-11386.7,-13784.9 L-12090.8,-13784.9"/>
</g>

<g fill="none" stroke="#000000" stroke-opacity="1" stroke-width="1" stroke-linecap="square" stroke-linejoin="bevel" transform="matrix(0.999754,0,0,-0.999754,12088.4,-11522.4)"
font-family="MS Shell Dlg 2" font-size="10.3125" font-weight="400" font-style="normal" 
>
</g>

<g fill="none" stroke="#000000" stroke-opacity="1" stroke-width="1" stroke-linecap="square" stroke-linejoin="bevel" transform="matrix(1,0,0,-1,0,2354.58)"
font-family="MS Shell Dlg 2" font-size="10.3125" font-weight="400" font-style="normal" 
>
</g>
</g>
</svg>
