<?xml version="1.0" encoding="UTF-8" standalone="no"?>
<svg width="705.838mm" height="337.538mm"
 xmlns="http://www.w3.org/2000/svg" xmlns:xlink="http://www.w3.org/1999/xlink"  version="1.2" baseProfile="tiny">
<title>SVG Generator Example Drawing</title>
<desc>An SVG drawing created by the SVG Generator</desc>
<defs>
</defs>
<g fill="none" stroke="black" stroke-width="1" fill-rule="evenodd" stroke-linecap="square" stroke-linejoin="bevel" >

<g fill="none" stroke="#000000" stroke-opacity="1" stroke-width="1" stroke-linecap="square" stroke-linejoin="bevel" transform="matrix(1,0,0,-1,0,1196)"
font-family="MS Shell Dlg 2" font-size="10.3125" font-weight="400" font-style="normal" 
>
</g>

<g fill="none" stroke="#000000" stroke-opacity="1" stroke-width="1" stroke-linecap="square" stroke-linejoin="bevel" transform="matrix(1,0,0,-1,0,1196)"
font-family="MS Shell Dlg 2" font-size="10.3125" font-weight="400" font-style="normal" 
>
</g>

<g fill="none" stroke="#000000" stroke-opacity="1" stroke-width="1" stroke-linecap="square" stroke-linejoin="bevel" transform="matrix(1,0,0,-1,9129.28,-8472.23)"
font-family="MS Shell Dlg 2" font-size="10.3125" font-weight="400" font-style="normal" 
>
</g>

<g fill="#ae5151" fill-opacity="0.2" stroke="#333333" stroke-opacity="1" stroke-width="1" stroke-linecap="round" stroke-linejoin="round" transform="matrix(1,0,0,-1,9129.28,-8472.23)"
font-family="MS Shell Dlg 2" font-size="10.3125" font-weight="400" font-style="normal" 
>
<path vector-effect="non-scaling-stroke" fill-rule="evenodd" d="M-9128.78,-8477.73 L-8632.36,-8477.73 L-8632.36,-8572.73 L-8028.79,-8572.73 L-8028.77,-8572.73 L-7990.53,-8565.12 L-7990.49,-8565.1 L-7958.08,-8543.45 L-7958.06,-8543.42 L-7936.4,-8511.01 L-7936.39,-8510.98 L-7928.8,-8472.84 L-7928.66,-8472.73 L-7828.89,-8472.73 L-7828.75,-8472.84 L-7821.17,-8510.98 L-7821.15,-8511.01 L-7799.5,-8543.42 L-7799.47,-8543.45 L-7767.06,-8565.1 L-7767.03,-8565.12 L-7728.79,-8572.73 L-7728.77,-8572.73 L-7125.19,-8572.73 L-7125.19,-8477.73 L-6628.78,-8477.73 L-6628.78,-9667.73 L-7104.18,-9667.73 L-7104.18,-9572.73 L-8653.38,-9572.73 L-8653.38,-9667.73 L-9128.78,-9667.73 L-9128.78,-8477.73"/>
</g>

<g fill="none" stroke="#000000" stroke-opacity="1" stroke-width="1" stroke-linecap="square" stroke-linejoin="bevel" transform="matrix(1,0,0,-1,9129.28,-8472.23)"
font-family="MS Shell Dlg 2" font-size="10.3125" font-weight="400" font-style="normal" 
>
</g>

<g fill="none" stroke="#000000" stroke-opacity="1" stroke-width="1" stroke-linecap="square" stroke-linejoin="bevel" transform="matrix(1,0,0,-1,0,1196)"
font-family="MS Shell Dlg 2" font-size="10.3125" font-weight="400" font-style="normal" 
>
</g>
</g>
</svg>
