<?xml version="1.0" encoding="UTF-8" standalone="no"?>
<svg width="1016.85mm" height="683.26mm"
 xmlns="http://www.w3.org/2000/svg" xmlns:xlink="http://www.w3.org/1999/xlink"  version="1.2" baseProfile="tiny">
<title>SVG Generator Example Drawing</title>
<desc>An SVG drawing created by the SVG Generator</desc>
<defs>
</defs>
<g fill="none" stroke="black" stroke-width="1" fill-rule="evenodd" stroke-linecap="square" stroke-linejoin="bevel" >

<g fill="none" stroke="#000000" stroke-opacity="1" stroke-width="1" stroke-linecap="square" stroke-linejoin="bevel" transform="matrix(1,0,0,-1,0,2421.75)"
font-family="MS Shell Dlg 2" font-size="10.3125" font-weight="400" font-style="normal" 
>
</g>

<g fill="none" stroke="#000000" stroke-opacity="1" stroke-width="1" stroke-linecap="square" stroke-linejoin="bevel" transform="matrix(1,0,0,-1,0,2421.75)"
font-family="MS Shell Dlg 2" font-size="10.3125" font-weight="400" font-style="normal" 
>
</g>

<g fill="none" stroke="#000000" stroke-opacity="1" stroke-width="1" stroke-linecap="square" stroke-linejoin="bevel" transform="matrix(0.999689,0,0,-0.999689,7267.41,-11454.3)"
font-family="MS Shell Dlg 2" font-size="10.3125" font-weight="400" font-style="normal" 
>
</g>

<g fill="#ae5151" fill-opacity="0.2" stroke="#333333" stroke-opacity="1" stroke-width="1" stroke-linecap="round" stroke-linejoin="round" transform="matrix(0.999689,0,0,-0.999689,7267.41,-11454.3)"
font-family="MS Shell Dlg 2" font-size="10.3125" font-weight="400" font-style="normal" 
>
<path vector-effect="non-scaling-stroke" fill-rule="evenodd" d="M-7166.65,-13384.9 L-7166.67,-13384.8 L-7201.9,-13349.6 L-7269.18,-13282.3 L-6601.84,-12615 L-6534.67,-12682.2 L-5311.6,-11459.1 L-4832.38,-11938.3 L-4899.56,-12005.5 L-4181.22,-12723.8 L-4114.04,-12656.7 L-3671.65,-13099.1 L-3671.65,-13534.9 L-3766.64,-13534.9 L-3766.64,-13534.9 L-3759.04,-13573.1 L-3759.02,-13573.1 L-3737.37,-13605.6 L-3737.34,-13605.6 L-3704.93,-13627.2 L-3704.89,-13627.3 L-3666.76,-13634.8 L-3666.65,-13635 L-3666.65,-13784.7 L-3666.79,-13784.9 L-4370.83,-13784.9 L-4370.83,-13879.9 L-5068.04,-13879.9 L-5068.04,-13784.9 L-5765.25,-13784.9 L-5765.25,-13879.9 L-6462.46,-13879.9 L-6462.46,-13784.9 L-7166.5,-13784.9 L-7166.65,-13784.7 L-7166.65,-13384.9"/>
</g>

<g fill="none" stroke="#000000" stroke-opacity="1" stroke-width="1" stroke-linecap="square" stroke-linejoin="bevel" transform="matrix(0.999689,0,0,-0.999689,7267.41,-11454.3)"
font-family="MS Shell Dlg 2" font-size="10.3125" font-weight="400" font-style="normal" 
>
</g>

<g fill="none" stroke="#000000" stroke-opacity="1" stroke-width="1" stroke-linecap="square" stroke-linejoin="bevel" transform="matrix(1,0,0,-1,0,2421.75)"
font-family="MS Shell Dlg 2" font-size="10.3125" font-weight="400" font-style="normal" 
>
</g>
</g>
</svg>
