<?xml version="1.0" encoding="UTF-8" standalone="no"?>
<svg width="1490.98mm" height="1579.32mm"
 xmlns="http://www.w3.org/2000/svg" xmlns:xlink="http://www.w3.org/1999/xlink"  version="1.2" baseProfile="tiny">
<title>SVG Generator Example Drawing</title>
<desc>An SVG drawing created by the SVG Generator</desc>
<defs>
</defs>
<g fill="none" stroke="black" stroke-width="1" fill-rule="evenodd" stroke-linecap="square" stroke-linejoin="bevel" >

<g fill="none" stroke="#000000" stroke-opacity="1" stroke-width="1" stroke-linecap="square" stroke-linejoin="bevel" transform="matrix(1,0,0,-1,0,5596.4)"
font-family="MS Shell Dlg 2" font-size="10.3125" font-weight="400" font-style="normal" 
>
</g>

<g fill="none" stroke="#000000" stroke-opacity="1" stroke-width="1" stroke-linecap="square" stroke-linejoin="bevel" transform="matrix(1,0,0,-1,0,5596.4)"
font-family="MS Shell Dlg 2" font-size="10.3125" font-weight="400" font-style="normal" 
>
</g>

<g fill="none" stroke="#000000" stroke-opacity="1" stroke-width="1" stroke-linecap="square" stroke-linejoin="bevel" transform="matrix(0.999841,0,0,-0.999841,10519,-14490.8)"
font-family="MS Shell Dlg 2" font-size="10.3125" font-weight="400" font-style="normal" 
>
</g>

<g fill="#ae5151" fill-opacity="0.2" stroke="#333333" stroke-opacity="1" stroke-width="1" stroke-linecap="round" stroke-linejoin="round" transform="matrix(0.999841,0,0,-0.999841,10519,-14490.8)"
font-family="MS Shell Dlg 2" font-size="10.3125" font-weight="400" font-style="normal" 
>
<path vector-effect="non-scaling-stroke" fill-rule="evenodd" d="M-10520.2,-16667.7 L-9132.47,-15280 L-9199.65,-15212.8 L-8481.31,-14494.5 L-8410.6,-14565.2 L-8378.81,-14597 L-8378.74,-14597 L-7378.82,-14597 L-7378.75,-14597 L-7343.52,-14561.7 L-7276.25,-14494.5 L-6557.91,-15212.8 L-6625.08,-15280 L-5237.36,-16667.7 L-6128.75,-17559.1 L-6128.78,-17559.2 L-6128.78,-19994.7 L-6128.92,-19994.9 L-6832.96,-19994.9 L-6832.96,-20089.9 L-7530.17,-20089.9 L-7530.17,-19994.9 L-8227.38,-19994.9 L-8227.38,-20089.9 L-8924.59,-20089.9 L-8924.59,-19994.9 L-9628.64,-19994.9 L-9628.78,-19994.7 L-9628.78,-17559.2 L-9628.81,-17559.1 L-10520.2,-16667.7"/>
</g>

<g fill="none" stroke="#000000" stroke-opacity="1" stroke-width="1" stroke-linecap="square" stroke-linejoin="bevel" transform="matrix(0.999841,0,0,-0.999841,10519,-14490.8)"
font-family="MS Shell Dlg 2" font-size="10.3125" font-weight="400" font-style="normal" 
>
</g>

<g fill="none" stroke="#000000" stroke-opacity="1" stroke-width="1" stroke-linecap="square" stroke-linejoin="bevel" transform="matrix(1,0,0,-1,0,5596.4)"
font-family="MS Shell Dlg 2" font-size="10.3125" font-weight="400" font-style="normal" 
>
</g>
</g>
</svg>
