<?xml version="1.0" encoding="UTF-8" standalone="no"?>
<svg width="1350.43mm" height="765.951mm"
 xmlns="http://www.w3.org/2000/svg" xmlns:xlink="http://www.w3.org/1999/xlink"  version="1.2" baseProfile="tiny">
<title>SVG Generator Example Drawing</title>
<desc>An SVG drawing created by the SVG Generator</desc>
<defs>
</defs>
<g fill="none" stroke="black" stroke-width="1" fill-rule="evenodd" stroke-linecap="square" stroke-linejoin="bevel" >

<g fill="none" stroke="#000000" stroke-opacity="1" stroke-width="1" stroke-linecap="square" stroke-linejoin="bevel" transform="matrix(1,0,0,-1,0,2714.52)"
font-family="MS Shell Dlg 2" font-size="10.3125" font-weight="400" font-style="normal" 
>
</g>

<g fill="none" stroke="#000000" stroke-opacity="1" stroke-width="1" stroke-linecap="square" stroke-linejoin="bevel" transform="matrix(1,0,0,-1,0,2714.52)"
font-family="MS Shell Dlg 2" font-size="10.3125" font-weight="400" font-style="normal" 
>
</g>

<g fill="none" stroke="#000000" stroke-opacity="1" stroke-width="1" stroke-linecap="square" stroke-linejoin="bevel" transform="matrix(0.999808,0,0,-0.999808,10235.9,-10491.4)"
font-family="MS Shell Dlg 2" font-size="10.3125" font-weight="400" font-style="normal" 
>
</g>

<g fill="#ae5151" fill-opacity="0.2" stroke="#333333" stroke-opacity="1" stroke-width="1" stroke-linecap="round" stroke-linejoin="round" transform="matrix(0.999808,0,0,-0.999808,10235.9,-10491.4)"
font-family="MS Shell Dlg 2" font-size="10.3125" font-weight="400" font-style="normal" 
>
<path vector-effect="non-scaling-stroke" fill-rule="evenodd" d="M-5453.02,-11317.7 L-6002.09,-11866.7 L-5934.91,-11933.9 L-6602.24,-12601.3 L-6669.42,-12534.1 L-7343.32,-13208 L-7343.52,-13208 L-7378.75,-13172.8 L-7378.82,-13172.7 L-8378.74,-13172.7 L-8378.81,-13172.8 L-8414.03,-13208 L-8414.23,-13208 L-9088.14,-12534.1 L-9155.31,-12601.3 L-9822.64,-11933.9 L-9755.47,-11866.7 L-10237.4,-11384.9 L-10132.5,-11280 L-10199.6,-11212.8 L-9481.31,-10494.5 L-9410.6,-10565.2 L-9378.81,-10597 L-9378.74,-10597 L-9138.92,-10597 L-9138.78,-10597.1 L-9138.78,-11972.7 L-9138.78,-11972.7 L-9138.02,-11976.5 L-9138,-11976.6 L-9135.86,-11979.8 L-9135.83,-11979.8 L-9132.62,-11982 L-9132.58,-11982 L-9128.79,-11982.7 L-9128.77,-11982.7 L-6628.79,-11982.7 L-6628.77,-11982.7 L-6624.97,-11982 L-6624.93,-11982 L-6621.72,-11979.8 L-6621.69,-11979.8 L-6619.55,-11976.6 L-6619.53,-11976.5 L-6618.78,-11972.7 L-6618.78,-11972.7 L-6618.78,-10597.1 L-6618.64,-10597 L-6378.82,-10597 L-6378.75,-10597 L-6343.52,-10561.7 L-6343.32,-10561.7 L-5617.9,-11287.2 L-5550.72,-11220 L-5453.02,-11317.7"/>
</g>

<g fill="none" stroke="#000000" stroke-opacity="1" stroke-width="1" stroke-linecap="square" stroke-linejoin="bevel" transform="matrix(0.999808,0,0,-0.999808,10235.9,-10491.4)"
font-family="MS Shell Dlg 2" font-size="10.3125" font-weight="400" font-style="normal" 
>
</g>

<g fill="none" stroke="#000000" stroke-opacity="1" stroke-width="1" stroke-linecap="square" stroke-linejoin="bevel" transform="matrix(1,0,0,-1,0,2714.52)"
font-family="MS Shell Dlg 2" font-size="10.3125" font-weight="400" font-style="normal" 
>
</g>
</g>
</svg>
