<?xml version="1.0" encoding="UTF-8" standalone="no"?>
<svg width="705.838mm" height="645.16mm"
 xmlns="http://www.w3.org/2000/svg" xmlns:xlink="http://www.w3.org/1999/xlink"  version="1.2" baseProfile="tiny">
<title>SVG Generator Example Drawing</title>
<desc>An SVG drawing created by the SVG Generator</desc>
<defs>
</defs>
<g fill="none" stroke="black" stroke-width="1" fill-rule="evenodd" stroke-linecap="square" stroke-linejoin="bevel" >

<g fill="none" stroke="#000000" stroke-opacity="1" stroke-width="1" stroke-linecap="square" stroke-linejoin="bevel" transform="matrix(1,0,0,-1,0,2286)"
font-family="MS Shell Dlg 2" font-size="10.3125" font-weight="400" font-style="normal" 
>
</g>

<g fill="none" stroke="#000000" stroke-opacity="1" stroke-width="1" stroke-linecap="square" stroke-linejoin="bevel" transform="matrix(1,0,0,-1,0,2286)"
font-family="MS Shell Dlg 2" font-size="10.3125" font-weight="400" font-style="normal" 
>
</g>

<g fill="none" stroke="#000000" stroke-opacity="1" stroke-width="1" stroke-linecap="square" stroke-linejoin="bevel" transform="matrix(1,0,0,-1,9129.28,-9677.23)"
font-family="MS Shell Dlg 2" font-size="10.3125" font-weight="400" font-style="normal" 
>
</g>

<g fill="#ae5151" fill-opacity="0.2" stroke="#333333" stroke-opacity="1" stroke-width="1" stroke-linecap="round" stroke-linejoin="round" transform="matrix(1,0,0,-1,9129.28,-9677.23)"
font-family="MS Shell Dlg 2" font-size="10.3125" font-weight="400" font-style="normal" 
>
<path vector-effect="non-scaling-stroke" fill-rule="evenodd" d="M-9128.78,-9772.73 L-8645.71,-9772.73 L-8645.71,-9677.73 L-7878.78,-9677.73 L-7111.84,-9677.73 L-7111.84,-9772.73 L-6628.78,-9772.73 L-6628.78,-10586.9 L-6628.89,-10587 L-6632.58,-10587.7 L-6632.62,-10587.8 L-6635.83,-10589.9 L-6635.86,-10589.9 L-6638,-10593.1 L-6638.02,-10593.2 L-6638.78,-10597 L-6638.78,-10597 L-6638.78,-11962.6 L-6638.92,-11962.7 L-9118.64,-11962.7 L-9118.78,-11962.6 L-9118.78,-10597 L-9118.78,-10597 L-9119.53,-10593.2 L-9119.55,-10593.1 L-9121.69,-10589.9 L-9121.72,-10589.9 L-9124.93,-10587.8 L-9124.97,-10587.7 L-9128.66,-10587 L-9128.78,-10586.9 L-9128.78,-9772.73"/>
</g>

<g fill="none" stroke="#000000" stroke-opacity="1" stroke-width="1" stroke-linecap="square" stroke-linejoin="bevel" transform="matrix(1,0,0,-1,9129.28,-9677.23)"
font-family="MS Shell Dlg 2" font-size="10.3125" font-weight="400" font-style="normal" 
>
</g>

<g fill="none" stroke="#000000" stroke-opacity="1" stroke-width="1" stroke-linecap="square" stroke-linejoin="bevel" transform="matrix(1,0,0,-1,0,2286)"
font-family="MS Shell Dlg 2" font-size="10.3125" font-weight="400" font-style="normal" 
>
</g>
</g>
</svg>
