<?xml version="1.0" encoding="UTF-8" standalone="no"?>
<svg width="988.06mm" height="574.604mm"
 xmlns="http://www.w3.org/2000/svg" xmlns:xlink="http://www.w3.org/1999/xlink"  version="1.2" baseProfile="tiny">
<title>SVG Generator Example Drawing</title>
<desc>An SVG drawing created by the SVG Generator</desc>
<defs>
</defs>
<g fill="none" stroke="black" stroke-width="1" fill-rule="evenodd" stroke-linecap="square" stroke-linejoin="bevel" >

<g fill="none" stroke="#000000" stroke-opacity="1" stroke-width="1" stroke-linecap="square" stroke-linejoin="bevel" transform="matrix(1,0,0,-1,0,2036.56)"
font-family="MS Shell Dlg 2" font-size="10.3125" font-weight="400" font-style="normal" 
>
</g>

<g fill="none" stroke="#000000" stroke-opacity="1" stroke-width="1" stroke-linecap="square" stroke-linejoin="bevel" transform="matrix(1,0,0,-1,0,2036.56)"
font-family="MS Shell Dlg 2" font-size="10.3125" font-weight="400" font-style="normal" 
>
</g>

<g fill="none" stroke="#000000" stroke-opacity="1" stroke-width="1" stroke-linecap="square" stroke-linejoin="bevel" transform="matrix(0.999725,0,0,-0.999725,6165.45,-6841.36)"
font-family="MS Shell Dlg 2" font-size="10.3125" font-weight="400" font-style="normal" 
>
</g>

<g fill="#ae5151" fill-opacity="0.2" stroke="#333333" stroke-opacity="1" stroke-width="1" stroke-linecap="round" stroke-linejoin="round" transform="matrix(0.999725,0,0,-0.999725,6165.45,-6841.36)"
font-family="MS Shell Dlg 2" font-size="10.3125" font-weight="400" font-style="normal" 
>
<path vector-effect="non-scaling-stroke" fill-rule="evenodd" d="M-6166.65,-8572.73 L-5929.97,-8572.73 L-5929.97,-8477.73 L-5332.36,-8477.73 L-5332.36,-8572.73 L-4728.79,-8572.73 L-4728.77,-8572.73 L-4690.53,-8565.12 L-4690.49,-8565.1 L-4658.08,-8543.45 L-4658.06,-8543.42 L-4636.4,-8511.01 L-4636.39,-8510.98 L-4628.8,-8472.84 L-4628.66,-8472.73 L-4478.82,-8472.73 L-4478.75,-8472.7 L-2850.39,-6844.34 L-2850.29,-6844.3 L-2666.65,-6844.3 L-2666.65,-8531.31 L-2720.08,-8584.74 L-2666.65,-8638.17 L-2666.65,-8665.66 L-2785.85,-8784.86 L-3370.83,-8784.86 L-3370.83,-8879.86 L-4068.04,-8879.86 L-4068.04,-8784.86 L-4765.25,-8784.86 L-4765.25,-8879.86 L-5462.46,-8879.86 L-5462.46,-8784.86 L-6166.5,-8784.86 L-6166.65,-8784.72 L-6166.65,-8572.73"/>
</g>

<g fill="none" stroke="#000000" stroke-opacity="1" stroke-width="1" stroke-linecap="square" stroke-linejoin="bevel" transform="matrix(0.999725,0,0,-0.999725,6165.45,-6841.36)"
font-family="MS Shell Dlg 2" font-size="10.3125" font-weight="400" font-style="normal" 
>
</g>

<g fill="none" stroke="#000000" stroke-opacity="1" stroke-width="1" stroke-linecap="square" stroke-linejoin="bevel" transform="matrix(1,0,0,-1,0,2036.56)"
font-family="MS Shell Dlg 2" font-size="10.3125" font-weight="400" font-style="normal" 
>
</g>
</g>
</svg>
