<?xml version="1.0" encoding="UTF-8" standalone="no"?>
<svg width="924.56mm" height="219.569mm"
 xmlns="http://www.w3.org/2000/svg" xmlns:xlink="http://www.w3.org/1999/xlink"  version="1.2" baseProfile="tiny">
<title>SVG Generator Example Drawing</title>
<desc>An SVG drawing created by the SVG Generator</desc>
<defs>
</defs>
<g fill="none" stroke="black" stroke-width="1" fill-rule="evenodd" stroke-linecap="square" stroke-linejoin="bevel" >

<g fill="none" stroke="#000000" stroke-opacity="1" stroke-width="1" stroke-linecap="square" stroke-linejoin="bevel" transform="matrix(1,0,0,-1,0,778.868)"
font-family="MS Shell Dlg 2" font-size="10.3125" font-weight="400" font-style="normal" 
>
</g>

<g fill="none" stroke="#000000" stroke-opacity="1" stroke-width="1" stroke-linecap="square" stroke-linejoin="bevel" transform="matrix(1,0,0,-1,0,778.868)"
font-family="MS Shell Dlg 2" font-size="10.3125" font-weight="400" font-style="normal" 
>
</g>

<g fill="none" stroke="#000000" stroke-opacity="1" stroke-width="1" stroke-linecap="square" stroke-linejoin="bevel" transform="matrix(0.998886,0,0,-0.998886,6160.27,-8878.59)"
font-family="MS Shell Dlg 2" font-size="10.3125" font-weight="400" font-style="normal" 
>
</g>

<g fill="#ae5151" fill-opacity="0.2" stroke="#333333" stroke-opacity="1" stroke-width="1" stroke-linecap="round" stroke-linejoin="round" transform="matrix(0.998886,0,0,-0.998886,6160.27,-8878.59)"
font-family="MS Shell Dlg 2" font-size="10.3125" font-weight="400" font-style="normal" 
>
<path vector-effect="non-scaling-stroke" fill-rule="evenodd" d="M-2890.85,-8889.86 L-3137.15,-9136.16 L-3204.33,-9068.99 L-3693.32,-9557.98 L-3693.52,-9557.98 L-3728.75,-9522.76 L-3728.82,-9522.73 L-4028.68,-9522.73 L-4028.78,-9522.83 L-4028.78,-9572.59 L-4028.92,-9572.73 L-4803.38,-9572.73 L-4803.38,-9667.73 L-5570.31,-9667.73 L-5570.31,-9572.73 L-6166.65,-9572.73 L-6166.65,-8985 L-6166.65,-8889.86 L-5469.43,-8889.86 L-5469.43,-8984.86 L-3363.86,-8984.86 L-3363.86,-8889.86 L-2890.85,-8889.86"/>
</g>

<g fill="none" stroke="#000000" stroke-opacity="1" stroke-width="1" stroke-linecap="square" stroke-linejoin="bevel" transform="matrix(0.998886,0,0,-0.998886,6160.27,-8878.59)"
font-family="MS Shell Dlg 2" font-size="10.3125" font-weight="400" font-style="normal" 
>
</g>

<g fill="none" stroke="#000000" stroke-opacity="1" stroke-width="1" stroke-linecap="square" stroke-linejoin="bevel" transform="matrix(1,0,0,-1,0,778.868)"
font-family="MS Shell Dlg 2" font-size="10.3125" font-weight="400" font-style="normal" 
>
</g>
</g>
</svg>
