<?xml version="1.0" encoding="UTF-8" standalone="no"?>
<svg width="1779.98mm" height="2737.56mm"
 xmlns="http://www.w3.org/2000/svg" xmlns:xlink="http://www.w3.org/1999/xlink"  version="1.2" baseProfile="tiny">
<title>SVG Generator Example Drawing</title>
<desc>An SVG drawing created by the SVG Generator</desc>
<defs>
</defs>
<g fill="none" stroke="black" stroke-width="1" fill-rule="evenodd" stroke-linecap="square" stroke-linejoin="bevel" >

<g fill="none" stroke="#000000" stroke-opacity="1" stroke-width="1" stroke-linecap="square" stroke-linejoin="bevel" transform="matrix(1,0,0,-1,0,9700.97)"
font-family="MS Shell Dlg 2" font-size="10.3125" font-weight="400" font-style="normal" 
>
</g>

<g fill="none" stroke="#000000" stroke-opacity="1" stroke-width="1" stroke-linecap="square" stroke-linejoin="bevel" transform="matrix(1,0,0,-1,0,9700.97)"
font-family="MS Shell Dlg 2" font-size="10.3125" font-weight="400" font-style="normal" 
>
</g>

<g fill="none" stroke="#000000" stroke-opacity="1" stroke-width="1" stroke-linecap="square" stroke-linejoin="bevel" transform="matrix(0.9999,0,0,-0.9999,11031.3,11527.6)"
font-family="MS Shell Dlg 2" font-size="10.3125" font-weight="400" font-style="normal" 
>
</g>

<g fill="#333333" fill-opacity="0.2" stroke="#333333" stroke-opacity="1" stroke-width="1" stroke-linecap="round" stroke-linejoin="round" transform="matrix(0.9999,0,0,-0.9999,11031.3,11527.6)"
font-family="MS Shell Dlg 2" font-size="10.3125" font-weight="400" font-style="normal" 
>
<path vector-effect="non-scaling-stroke" fill-rule="evenodd" d="M-10878.8,1827.27 L-10878.8,8527.26 L-10882.2,8609.74 L-10882.2,8609.77 L-10892.4,8691.61 L-11031.9,9529.42 L-10954.9,9644.71 L-10878.8,10027.4 L-10878.7,11527.2 L-9378.78,11527.2 L-9378.78,10027.4 L-9302.66,9644.73 L-9225.56,9529.35 L-9365.17,8691.68 L-9375.37,8609.77 L-9375.37,8609.74 L-9378.78,8527.27 L-9378.84,1827.27 L-10878.8,1827.27"/>
</g>

<g fill="none" stroke="#000000" stroke-opacity="1" stroke-width="1" stroke-linecap="square" stroke-linejoin="bevel" transform="matrix(0.9999,0,0,-0.9999,11031.3,11527.6)"
font-family="MS Shell Dlg 2" font-size="10.3125" font-weight="400" font-style="normal" 
>
</g>

<g fill="none" stroke="#000000" stroke-opacity="1" stroke-width="1" stroke-linecap="square" stroke-linejoin="bevel" transform="matrix(0.9999,0,0,-0.9999,11031.3,11527.6)"
font-family="MS Shell Dlg 2" font-size="10.3125" font-weight="400" font-style="normal" 
>
</g>

<g fill="#333333" fill-opacity="0.2" stroke="#333333" stroke-opacity="1" stroke-width="1" stroke-linecap="round" stroke-linejoin="round" transform="matrix(0.9999,0,0,-0.9999,11031.3,11527.6)"
font-family="MS Shell Dlg 2" font-size="10.3125" font-weight="400" font-style="normal" 
>
<path vector-effect="non-scaling-stroke" fill-rule="evenodd" d="M-6378.78,1827.27 L-6378.78,8527.26 L-6382.18,8609.74 L-6382.19,8609.77 L-6392.37,8691.61 L-6531.94,9529.42 L-6454.91,9644.71 L-6378.78,10027.4 L-6378.72,11527.2 L-4878.78,11527.2 L-4878.78,10027.4 L-4802.66,9644.73 L-4725.56,9529.35 L-4865.17,8691.68 L-4875.37,8609.77 L-4875.37,8609.74 L-4878.78,8527.27 L-4878.84,1827.27 L-6378.78,1827.27"/>
</g>

<g fill="none" stroke="#000000" stroke-opacity="1" stroke-width="1" stroke-linecap="square" stroke-linejoin="bevel" transform="matrix(0.9999,0,0,-0.9999,11031.3,11527.6)"
font-family="MS Shell Dlg 2" font-size="10.3125" font-weight="400" font-style="normal" 
>
</g>

<g fill="none" stroke="#000000" stroke-opacity="1" stroke-width="1" stroke-linecap="square" stroke-linejoin="bevel" transform="matrix(0.9999,0,0,-0.9999,11031.3,11527.6)"
font-family="MS Shell Dlg 2" font-size="10.3125" font-weight="400" font-style="normal" 
>
</g>

<g fill="#ae5151" fill-opacity="0.2" stroke="#333333" stroke-opacity="1" stroke-width="1" stroke-linecap="round" stroke-linejoin="round" transform="matrix(0.9999,0,0,-0.9999,11031.3,11527.6)"
font-family="MS Shell Dlg 2" font-size="10.3125" font-weight="400" font-style="normal" 
>
<path vector-effect="non-scaling-stroke" fill-rule="evenodd" d="M-10878.8,1827.27 L-10878.8,8527.26 L-10882.2,8609.74 L-10882.2,8609.77 L-10892.4,8691.61 L-11031.9,9529.42 L-10954.9,9644.71 L-10878.8,10027.4 L-10878.7,11527.2 L-9378.78,11527.2 L-9378.78,10027.4 L-9302.66,9644.73 L-9225.56,9529.35 L-9365.17,8691.68 L-9375.37,8609.77 L-9375.37,8609.74 L-9378.78,8527.27 L-9378.84,1827.27 L-10878.8,1827.27"/>
</g>

<g fill="none" stroke="#000000" stroke-opacity="1" stroke-width="1" stroke-linecap="square" stroke-linejoin="bevel" transform="matrix(0.9999,0,0,-0.9999,11031.3,11527.6)"
font-family="MS Shell Dlg 2" font-size="10.3125" font-weight="400" font-style="normal" 
>
</g>

<g fill="none" stroke="#000000" stroke-opacity="1" stroke-width="1" stroke-linecap="square" stroke-linejoin="bevel" transform="matrix(0.9999,0,0,-0.9999,11031.3,11527.6)"
font-family="MS Shell Dlg 2" font-size="10.3125" font-weight="400" font-style="normal" 
>
</g>

<g fill="#ae5151" fill-opacity="0.2" stroke="#333333" stroke-opacity="1" stroke-width="1" stroke-linecap="round" stroke-linejoin="round" transform="matrix(0.9999,0,0,-0.9999,11031.3,11527.6)"
font-family="MS Shell Dlg 2" font-size="10.3125" font-weight="400" font-style="normal" 
>
<path vector-effect="non-scaling-stroke" fill-rule="evenodd" d="M-6378.78,1827.27 L-6378.78,8527.26 L-6382.18,8609.74 L-6382.19,8609.77 L-6392.37,8691.61 L-6531.94,9529.42 L-6454.91,9644.71 L-6378.78,10027.4 L-6378.72,11527.2 L-4878.78,11527.2 L-4878.78,10027.4 L-4802.66,9644.73 L-4725.56,9529.35 L-4865.17,8691.68 L-4875.37,8609.77 L-4875.37,8609.74 L-4878.78,8527.27 L-4878.84,1827.27 L-6378.78,1827.27"/>
</g>

<g fill="none" stroke="#000000" stroke-opacity="1" stroke-width="1" stroke-linecap="square" stroke-linejoin="bevel" transform="matrix(0.9999,0,0,-0.9999,11031.3,11527.6)"
font-family="MS Shell Dlg 2" font-size="10.3125" font-weight="400" font-style="normal" 
>
</g>

<g fill="none" stroke="#000000" stroke-opacity="1" stroke-width="1" stroke-linecap="square" stroke-linejoin="bevel" transform="matrix(0.9999,0,0,-0.9999,11031.3,11527.6)"
font-family="MS Shell Dlg 2" font-size="10.3125" font-weight="400" font-style="normal" 
>
</g>

<g fill="#ffff00" fill-opacity="0.2" stroke="#333333" stroke-opacity="1" stroke-width="1" stroke-linecap="round" stroke-linejoin="round" transform="matrix(0.9999,0,0,-0.9999,11031.3,11527.6)"
font-family="MS Shell Dlg 2" font-size="10.3125" font-weight="400" font-style="normal" 
>
<path vector-effect="non-scaling-stroke" fill-rule="evenodd" d="M-10878.8,1827.27 L-10878.8,8527.26 L-10882.2,8609.74 L-10882.2,8609.77 L-10892.4,8691.61 L-11031.9,9529.42 L-10954.9,9644.71 L-10878.8,10027.4 L-10878.7,11527.2 L-9378.78,11527.2 L-9378.78,10027.4 L-9302.66,9644.73 L-9225.56,9529.35 L-9365.17,8691.68 L-9375.37,8609.77 L-9375.37,8609.74 L-9378.78,8527.27 L-9378.84,1827.27 L-10878.8,1827.27"/>
</g>

<g fill="none" stroke="#000000" stroke-opacity="1" stroke-width="1" stroke-linecap="square" stroke-linejoin="bevel" transform="matrix(0.9999,0,0,-0.9999,11031.3,11527.6)"
font-family="MS Shell Dlg 2" font-size="10.3125" font-weight="400" font-style="normal" 
>
</g>

<g fill="none" stroke="#000000" stroke-opacity="1" stroke-width="1" stroke-linecap="square" stroke-linejoin="bevel" transform="matrix(0.9999,0,0,-0.9999,11031.3,11527.6)"
font-family="MS Shell Dlg 2" font-size="10.3125" font-weight="400" font-style="normal" 
>
</g>

<g fill="#ffff00" fill-opacity="0.2" stroke="#333333" stroke-opacity="1" stroke-width="1" stroke-linecap="round" stroke-linejoin="round" transform="matrix(0.9999,0,0,-0.9999,11031.3,11527.6)"
font-family="MS Shell Dlg 2" font-size="10.3125" font-weight="400" font-style="normal" 
>
<path vector-effect="non-scaling-stroke" fill-rule="evenodd" d="M-6378.78,1827.27 L-6378.78,8527.26 L-6382.18,8609.74 L-6382.19,8609.77 L-6392.37,8691.61 L-6531.94,9529.42 L-6454.91,9644.71 L-6378.78,10027.4 L-6378.72,11527.2 L-4878.78,11527.2 L-4878.78,10027.4 L-4802.66,9644.73 L-4725.56,9529.35 L-4865.17,8691.68 L-4875.37,8609.77 L-4875.37,8609.74 L-4878.78,8527.27 L-4878.84,1827.27 L-6378.78,1827.27"/>
</g>

<g fill="none" stroke="#000000" stroke-opacity="1" stroke-width="1" stroke-linecap="square" stroke-linejoin="bevel" transform="matrix(0.9999,0,0,-0.9999,11031.3,11527.6)"
font-family="MS Shell Dlg 2" font-size="10.3125" font-weight="400" font-style="normal" 
>
</g>

<g fill="none" stroke="#000000" stroke-opacity="1" stroke-width="1" stroke-linecap="square" stroke-linejoin="bevel" transform="matrix(0.9999,0,0,-0.9999,11031.3,11527.6)"
font-family="MS Shell Dlg 2" font-size="10.3125" font-weight="400" font-style="normal" 
>
</g>

<g fill="#ae5151" fill-opacity="0.2" stroke="#333333" stroke-opacity="1" stroke-width="1" stroke-linecap="round" stroke-linejoin="round" transform="matrix(0.9999,0,0,-0.9999,11031.3,11527.6)"
font-family="MS Shell Dlg 2" font-size="10.3125" font-weight="400" font-style="normal" 
>
<path vector-effect="non-scaling-stroke" fill-rule="evenodd" d="M-10878.8,1827.27 L-10878.8,8527.26 L-10882.2,8609.74 L-10882.2,8609.77 L-10892.4,8691.61 L-11031.9,9529.42 L-10954.9,9644.71 L-10878.8,10027.4 L-10878.7,11527.2 L-9378.78,11527.2 L-9378.78,10027.4 L-9302.66,9644.73 L-9225.56,9529.35 L-9365.17,8691.68 L-9375.37,8609.77 L-9375.37,8609.74 L-9378.78,8527.27 L-9378.84,1827.27 L-10878.8,1827.27"/>
</g>

<g fill="none" stroke="#000000" stroke-opacity="1" stroke-width="1" stroke-linecap="square" stroke-linejoin="bevel" transform="matrix(0.9999,0,0,-0.9999,11031.3,11527.6)"
font-family="MS Shell Dlg 2" font-size="10.3125" font-weight="400" font-style="normal" 
>
</g>

<g fill="none" stroke="#000000" stroke-opacity="1" stroke-width="1" stroke-linecap="square" stroke-linejoin="bevel" transform="matrix(0.9999,0,0,-0.9999,11031.3,11527.6)"
font-family="MS Shell Dlg 2" font-size="10.3125" font-weight="400" font-style="normal" 
>
</g>

<g fill="#ae5151" fill-opacity="0.2" stroke="#333333" stroke-opacity="1" stroke-width="1" stroke-linecap="round" stroke-linejoin="round" transform="matrix(0.9999,0,0,-0.9999,11031.3,11527.6)"
font-family="MS Shell Dlg 2" font-size="10.3125" font-weight="400" font-style="normal" 
>
<path vector-effect="non-scaling-stroke" fill-rule="evenodd" d="M-6378.78,1827.27 L-6378.78,8527.26 L-6382.18,8609.74 L-6382.19,8609.77 L-6392.37,8691.61 L-6531.94,9529.42 L-6454.91,9644.71 L-6378.78,10027.4 L-6378.72,11527.2 L-4878.78,11527.2 L-4878.78,10027.4 L-4802.66,9644.73 L-4725.56,9529.35 L-4865.17,8691.68 L-4875.37,8609.77 L-4875.37,8609.74 L-4878.78,8527.27 L-4878.84,1827.27 L-6378.78,1827.27"/>
</g>

<g fill="none" stroke="#000000" stroke-opacity="1" stroke-width="1" stroke-linecap="square" stroke-linejoin="bevel" transform="matrix(0.9999,0,0,-0.9999,11031.3,11527.6)"
font-family="MS Shell Dlg 2" font-size="10.3125" font-weight="400" font-style="normal" 
>
</g>

<g fill="none" stroke="#000000" stroke-opacity="1" stroke-width="1" stroke-linecap="square" stroke-linejoin="bevel" transform="matrix(0.9999,0,0,-0.9999,11031.3,11527.6)"
font-family="MS Shell Dlg 2" font-size="10.3125" font-weight="400" font-style="normal" 
>
</g>

<g fill="#333333" fill-opacity="0.2" stroke="#333333" stroke-opacity="1" stroke-width="1" stroke-linecap="round" stroke-linejoin="round" transform="matrix(0.9999,0,0,-0.9999,11031.3,11527.6)"
font-family="MS Shell Dlg 2" font-size="10.3125" font-weight="400" font-style="normal" 
>
<path vector-effect="non-scaling-stroke" fill-rule="evenodd" d="M-10878.8,1827.27 L-10878.8,8527.26 L-10882.2,8609.74 L-10882.2,8609.77 L-10892.4,8691.61 L-11031.9,9529.42 L-10954.9,9644.71 L-10878.8,10027.4 L-10878.7,11527.2 L-9378.78,11527.2 L-9378.78,10027.4 L-9302.66,9644.73 L-9225.56,9529.35 L-9365.17,8691.68 L-9375.37,8609.77 L-9375.37,8609.74 L-9378.78,8527.27 L-9378.84,1827.27 L-10878.8,1827.27"/>
</g>

<g fill="none" stroke="#000000" stroke-opacity="1" stroke-width="1" stroke-linecap="square" stroke-linejoin="bevel" transform="matrix(0.9999,0,0,-0.9999,11031.3,11527.6)"
font-family="MS Shell Dlg 2" font-size="10.3125" font-weight="400" font-style="normal" 
>
</g>

<g fill="none" stroke="#000000" stroke-opacity="1" stroke-width="1" stroke-linecap="square" stroke-linejoin="bevel" transform="matrix(0.9999,0,0,-0.9999,11031.3,11527.6)"
font-family="MS Shell Dlg 2" font-size="10.3125" font-weight="400" font-style="normal" 
>
</g>

<g fill="#333333" fill-opacity="0.2" stroke="#333333" stroke-opacity="1" stroke-width="1" stroke-linecap="round" stroke-linejoin="round" transform="matrix(0.9999,0,0,-0.9999,11031.3,11527.6)"
font-family="MS Shell Dlg 2" font-size="10.3125" font-weight="400" font-style="normal" 
>
<path vector-effect="non-scaling-stroke" fill-rule="evenodd" d="M-6378.78,1827.27 L-6378.78,8527.26 L-6382.18,8609.74 L-6382.19,8609.77 L-6392.37,8691.61 L-6531.94,9529.42 L-6454.91,9644.71 L-6378.78,10027.4 L-6378.72,11527.2 L-4878.78,11527.2 L-4878.78,10027.4 L-4802.66,9644.73 L-4725.56,9529.35 L-4865.17,8691.68 L-4875.37,8609.77 L-4875.37,8609.74 L-4878.78,8527.27 L-4878.84,1827.27 L-6378.78,1827.27"/>
</g>

<g fill="none" stroke="#000000" stroke-opacity="1" stroke-width="1" stroke-linecap="square" stroke-linejoin="bevel" transform="matrix(0.9999,0,0,-0.9999,11031.3,11527.6)"
font-family="MS Shell Dlg 2" font-size="10.3125" font-weight="400" font-style="normal" 
>
</g>

<g fill="none" stroke="#000000" stroke-opacity="1" stroke-width="1" stroke-linecap="square" stroke-linejoin="bevel" transform="matrix(0.9999,0,0,-0.9999,11031.3,11527.6)"
font-family="MS Shell Dlg 2" font-size="10.3125" font-weight="400" font-style="normal" 
>
</g>

<g fill="#ae5151" fill-opacity="0.2" stroke="#333333" stroke-opacity="1" stroke-width="1" stroke-linecap="round" stroke-linejoin="round" transform="matrix(0.9999,0,0,-0.9999,11031.3,11527.6)"
font-family="MS Shell Dlg 2" font-size="10.3125" font-weight="400" font-style="normal" 
>
<path vector-effect="non-scaling-stroke" fill-rule="evenodd" d="M-10878.8,1827.27 L-10878.8,8527.26 L-10882.2,8609.74 L-10882.2,8609.77 L-10892.4,8691.61 L-11031.9,9529.42 L-10954.9,9644.71 L-10878.8,10027.4 L-10878.7,11527.2 L-9378.78,11527.2 L-9378.78,10027.4 L-9302.66,9644.73 L-9225.56,9529.35 L-9365.17,8691.68 L-9375.37,8609.77 L-9375.37,8609.74 L-9378.78,8527.27 L-9378.84,1827.27 L-10878.8,1827.27"/>
</g>

<g fill="none" stroke="#000000" stroke-opacity="1" stroke-width="1" stroke-linecap="square" stroke-linejoin="bevel" transform="matrix(0.9999,0,0,-0.9999,11031.3,11527.6)"
font-family="MS Shell Dlg 2" font-size="10.3125" font-weight="400" font-style="normal" 
>
</g>

<g fill="none" stroke="#000000" stroke-opacity="1" stroke-width="1" stroke-linecap="square" stroke-linejoin="bevel" transform="matrix(0.9999,0,0,-0.9999,11031.3,11527.6)"
font-family="MS Shell Dlg 2" font-size="10.3125" font-weight="400" font-style="normal" 
>
</g>

<g fill="#ae5151" fill-opacity="0.2" stroke="#333333" stroke-opacity="1" stroke-width="1" stroke-linecap="round" stroke-linejoin="round" transform="matrix(0.9999,0,0,-0.9999,11031.3,11527.6)"
font-family="MS Shell Dlg 2" font-size="10.3125" font-weight="400" font-style="normal" 
>
<path vector-effect="non-scaling-stroke" fill-rule="evenodd" d="M-6378.78,1827.27 L-6378.78,8527.26 L-6382.18,8609.74 L-6382.19,8609.77 L-6392.37,8691.61 L-6531.94,9529.42 L-6454.91,9644.71 L-6378.78,10027.4 L-6378.72,11527.2 L-4878.78,11527.2 L-4878.78,10027.4 L-4802.66,9644.73 L-4725.56,9529.35 L-4865.17,8691.68 L-4875.37,8609.77 L-4875.37,8609.74 L-4878.78,8527.27 L-4878.84,1827.27 L-6378.78,1827.27"/>
</g>

<g fill="none" stroke="#000000" stroke-opacity="1" stroke-width="1" stroke-linecap="square" stroke-linejoin="bevel" transform="matrix(0.9999,0,0,-0.9999,11031.3,11527.6)"
font-family="MS Shell Dlg 2" font-size="10.3125" font-weight="400" font-style="normal" 
>
</g>

<g fill="none" stroke="#000000" stroke-opacity="1" stroke-width="1" stroke-linecap="square" stroke-linejoin="bevel" transform="matrix(0.9999,0,0,-0.9999,11031.3,11527.6)"
font-family="MS Shell Dlg 2" font-size="10.3125" font-weight="400" font-style="normal" 
>
</g>

<g fill="#333333" fill-opacity="0.2" stroke="#333333" stroke-opacity="1" stroke-width="1" stroke-linecap="round" stroke-linejoin="round" transform="matrix(0.9999,0,0,-0.9999,11031.3,11527.6)"
font-family="MS Shell Dlg 2" font-size="10.3125" font-weight="400" font-style="normal" 
>
<path vector-effect="non-scaling-stroke" fill-rule="evenodd" d="M-10878.8,1827.27 L-10878.8,8527.26 L-10882.2,8609.74 L-10882.2,8609.77 L-10892.4,8691.61 L-11031.9,9529.42 L-10954.9,9644.71 L-10878.8,10027.4 L-10878.7,11527.2 L-9378.78,11527.2 L-9378.78,10027.4 L-9302.66,9644.73 L-9225.56,9529.35 L-9365.17,8691.68 L-9375.37,8609.77 L-9375.37,8609.74 L-9378.78,8527.27 L-9378.84,1827.27 L-10878.8,1827.27"/>
</g>

<g fill="none" stroke="#000000" stroke-opacity="1" stroke-width="1" stroke-linecap="square" stroke-linejoin="bevel" transform="matrix(0.9999,0,0,-0.9999,11031.3,11527.6)"
font-family="MS Shell Dlg 2" font-size="10.3125" font-weight="400" font-style="normal" 
>
</g>

<g fill="none" stroke="#000000" stroke-opacity="1" stroke-width="1" stroke-linecap="square" stroke-linejoin="bevel" transform="matrix(0.9999,0,0,-0.9999,11031.3,11527.6)"
font-family="MS Shell Dlg 2" font-size="10.3125" font-weight="400" font-style="normal" 
>
</g>

<g fill="#333333" fill-opacity="0.2" stroke="#333333" stroke-opacity="1" stroke-width="1" stroke-linecap="round" stroke-linejoin="round" transform="matrix(0.9999,0,0,-0.9999,11031.3,11527.6)"
font-family="MS Shell Dlg 2" font-size="10.3125" font-weight="400" font-style="normal" 
>
<path vector-effect="non-scaling-stroke" fill-rule="evenodd" d="M-6378.78,1827.27 L-6378.78,8527.26 L-6382.18,8609.74 L-6382.19,8609.77 L-6392.37,8691.61 L-6531.94,9529.42 L-6454.91,9644.71 L-6378.78,10027.4 L-6378.72,11527.2 L-4878.78,11527.2 L-4878.78,10027.4 L-4802.66,9644.73 L-4725.56,9529.35 L-4865.17,8691.68 L-4875.37,8609.77 L-4875.37,8609.74 L-4878.78,8527.27 L-4878.84,1827.27 L-6378.78,1827.27"/>
</g>

<g fill="none" stroke="#000000" stroke-opacity="1" stroke-width="1" stroke-linecap="square" stroke-linejoin="bevel" transform="matrix(0.9999,0,0,-0.9999,11031.3,11527.6)"
font-family="MS Shell Dlg 2" font-size="10.3125" font-weight="400" font-style="normal" 
>
</g>

<g fill="none" stroke="#000000" stroke-opacity="1" stroke-width="1" stroke-linecap="square" stroke-linejoin="bevel" transform="matrix(0.9999,0,0,-0.9999,11031.3,11527.6)"
font-family="MS Shell Dlg 2" font-size="10.3125" font-weight="400" font-style="normal" 
>
</g>

<g fill="#ae5151" fill-opacity="0.2" stroke="#333333" stroke-opacity="1" stroke-width="1" stroke-linecap="round" stroke-linejoin="round" transform="matrix(0.9999,0,0,-0.9999,11031.3,11527.6)"
font-family="MS Shell Dlg 2" font-size="10.3125" font-weight="400" font-style="normal" 
>
<path vector-effect="non-scaling-stroke" fill-rule="evenodd" d="M-10878.8,1827.27 L-10878.8,8527.26 L-10882.2,8609.74 L-10882.2,8609.77 L-10892.4,8691.61 L-11031.9,9529.42 L-10954.9,9644.71 L-10878.8,10027.4 L-10878.7,11527.2 L-9378.78,11527.2 L-9378.78,10027.4 L-9302.66,9644.73 L-9225.56,9529.35 L-9365.17,8691.68 L-9375.37,8609.77 L-9375.37,8609.74 L-9378.78,8527.27 L-9378.84,1827.27 L-10878.8,1827.27"/>
</g>

<g fill="none" stroke="#000000" stroke-opacity="1" stroke-width="1" stroke-linecap="square" stroke-linejoin="bevel" transform="matrix(0.9999,0,0,-0.9999,11031.3,11527.6)"
font-family="MS Shell Dlg 2" font-size="10.3125" font-weight="400" font-style="normal" 
>
</g>

<g fill="none" stroke="#000000" stroke-opacity="1" stroke-width="1" stroke-linecap="square" stroke-linejoin="bevel" transform="matrix(0.9999,0,0,-0.9999,11031.3,11527.6)"
font-family="MS Shell Dlg 2" font-size="10.3125" font-weight="400" font-style="normal" 
>
</g>

<g fill="#ae5151" fill-opacity="0.2" stroke="#333333" stroke-opacity="1" stroke-width="1" stroke-linecap="round" stroke-linejoin="round" transform="matrix(0.9999,0,0,-0.9999,11031.3,11527.6)"
font-family="MS Shell Dlg 2" font-size="10.3125" font-weight="400" font-style="normal" 
>
<path vector-effect="non-scaling-stroke" fill-rule="evenodd" d="M-6378.78,1827.27 L-6378.78,8527.26 L-6382.18,8609.74 L-6382.19,8609.77 L-6392.37,8691.61 L-6531.94,9529.42 L-6454.91,9644.71 L-6378.78,10027.4 L-6378.72,11527.2 L-4878.78,11527.2 L-4878.78,10027.4 L-4802.66,9644.73 L-4725.56,9529.35 L-4865.17,8691.68 L-4875.37,8609.77 L-4875.37,8609.74 L-4878.78,8527.27 L-4878.84,1827.27 L-6378.78,1827.27"/>
</g>

<g fill="none" stroke="#000000" stroke-opacity="1" stroke-width="1" stroke-linecap="square" stroke-linejoin="bevel" transform="matrix(0.9999,0,0,-0.9999,11031.3,11527.6)"
font-family="MS Shell Dlg 2" font-size="10.3125" font-weight="400" font-style="normal" 
>
</g>

<g fill="none" stroke="#000000" stroke-opacity="1" stroke-width="1" stroke-linecap="square" stroke-linejoin="bevel" transform="matrix(0.9999,0,0,-0.9999,11031.3,11527.6)"
font-family="MS Shell Dlg 2" font-size="10.3125" font-weight="400" font-style="normal" 
>
</g>

<g fill="#ffff00" fill-opacity="0.2" stroke="#333333" stroke-opacity="1" stroke-width="1" stroke-linecap="round" stroke-linejoin="round" transform="matrix(0.9999,0,0,-0.9999,11031.3,11527.6)"
font-family="MS Shell Dlg 2" font-size="10.3125" font-weight="400" font-style="normal" 
>
<path vector-effect="non-scaling-stroke" fill-rule="evenodd" d="M-10878.8,1827.27 L-10878.8,8527.26 L-10882.2,8609.74 L-10882.2,8609.77 L-10892.4,8691.61 L-11031.9,9529.42 L-10954.9,9644.71 L-10878.8,10027.4 L-10878.7,11527.2 L-9378.78,11527.2 L-9378.78,10027.4 L-9302.66,9644.73 L-9225.56,9529.35 L-9365.17,8691.68 L-9375.37,8609.77 L-9375.37,8609.74 L-9378.78,8527.27 L-9378.84,1827.27 L-10878.8,1827.27"/>
</g>

<g fill="none" stroke="#000000" stroke-opacity="1" stroke-width="1" stroke-linecap="square" stroke-linejoin="bevel" transform="matrix(0.9999,0,0,-0.9999,11031.3,11527.6)"
font-family="MS Shell Dlg 2" font-size="10.3125" font-weight="400" font-style="normal" 
>
</g>

<g fill="none" stroke="#000000" stroke-opacity="1" stroke-width="1" stroke-linecap="square" stroke-linejoin="bevel" transform="matrix(0.9999,0,0,-0.9999,11031.3,11527.6)"
font-family="MS Shell Dlg 2" font-size="10.3125" font-weight="400" font-style="normal" 
>
</g>

<g fill="#ffff00" fill-opacity="0.2" stroke="#333333" stroke-opacity="1" stroke-width="1" stroke-linecap="round" stroke-linejoin="round" transform="matrix(0.9999,0,0,-0.9999,11031.3,11527.6)"
font-family="MS Shell Dlg 2" font-size="10.3125" font-weight="400" font-style="normal" 
>
<path vector-effect="non-scaling-stroke" fill-rule="evenodd" d="M-6378.78,1827.27 L-6378.78,8527.26 L-6382.18,8609.74 L-6382.19,8609.77 L-6392.37,8691.61 L-6531.94,9529.42 L-6454.91,9644.71 L-6378.78,10027.4 L-6378.72,11527.2 L-4878.78,11527.2 L-4878.78,10027.4 L-4802.66,9644.73 L-4725.56,9529.35 L-4865.17,8691.68 L-4875.37,8609.77 L-4875.37,8609.74 L-4878.78,8527.27 L-4878.84,1827.27 L-6378.78,1827.27"/>
</g>

<g fill="none" stroke="#000000" stroke-opacity="1" stroke-width="1" stroke-linecap="square" stroke-linejoin="bevel" transform="matrix(0.9999,0,0,-0.9999,11031.3,11527.6)"
font-family="MS Shell Dlg 2" font-size="10.3125" font-weight="400" font-style="normal" 
>
</g>

<g fill="none" stroke="#000000" stroke-opacity="1" stroke-width="1" stroke-linecap="square" stroke-linejoin="bevel" transform="matrix(0.9999,0,0,-0.9999,11031.3,11527.6)"
font-family="MS Shell Dlg 2" font-size="10.3125" font-weight="400" font-style="normal" 
>
</g>

<g fill="#ae5151" fill-opacity="0.2" stroke="#333333" stroke-opacity="1" stroke-width="1" stroke-linecap="round" stroke-linejoin="round" transform="matrix(0.9999,0,0,-0.9999,11031.3,11527.6)"
font-family="MS Shell Dlg 2" font-size="10.3125" font-weight="400" font-style="normal" 
>
<path vector-effect="non-scaling-stroke" fill-rule="evenodd" d="M-10878.8,1827.27 L-10878.8,8527.26 L-10882.2,8609.74 L-10882.2,8609.77 L-10892.4,8691.61 L-11031.9,9529.42 L-10954.9,9644.71 L-10878.8,10027.4 L-10878.7,11527.2 L-9378.78,11527.2 L-9378.78,10027.4 L-9302.66,9644.73 L-9225.56,9529.35 L-9365.17,8691.68 L-9375.37,8609.77 L-9375.37,8609.74 L-9378.78,8527.27 L-9378.84,1827.27 L-10878.8,1827.27"/>
</g>

<g fill="none" stroke="#000000" stroke-opacity="1" stroke-width="1" stroke-linecap="square" stroke-linejoin="bevel" transform="matrix(0.9999,0,0,-0.9999,11031.3,11527.6)"
font-family="MS Shell Dlg 2" font-size="10.3125" font-weight="400" font-style="normal" 
>
</g>

<g fill="none" stroke="#000000" stroke-opacity="1" stroke-width="1" stroke-linecap="square" stroke-linejoin="bevel" transform="matrix(0.9999,0,0,-0.9999,11031.3,11527.6)"
font-family="MS Shell Dlg 2" font-size="10.3125" font-weight="400" font-style="normal" 
>
</g>

<g fill="#ae5151" fill-opacity="0.2" stroke="#333333" stroke-opacity="1" stroke-width="1" stroke-linecap="round" stroke-linejoin="round" transform="matrix(0.9999,0,0,-0.9999,11031.3,11527.6)"
font-family="MS Shell Dlg 2" font-size="10.3125" font-weight="400" font-style="normal" 
>
<path vector-effect="non-scaling-stroke" fill-rule="evenodd" d="M-6378.78,1827.27 L-6378.78,8527.26 L-6382.18,8609.74 L-6382.19,8609.77 L-6392.37,8691.61 L-6531.94,9529.42 L-6454.91,9644.71 L-6378.78,10027.4 L-6378.72,11527.2 L-4878.78,11527.2 L-4878.78,10027.4 L-4802.66,9644.73 L-4725.56,9529.35 L-4865.17,8691.68 L-4875.37,8609.77 L-4875.37,8609.74 L-4878.78,8527.27 L-4878.84,1827.27 L-6378.78,1827.27"/>
</g>

<g fill="none" stroke="#000000" stroke-opacity="1" stroke-width="1" stroke-linecap="square" stroke-linejoin="bevel" transform="matrix(0.9999,0,0,-0.9999,11031.3,11527.6)"
font-family="MS Shell Dlg 2" font-size="10.3125" font-weight="400" font-style="normal" 
>
</g>

<g fill="none" stroke="#000000" stroke-opacity="1" stroke-width="1" stroke-linecap="square" stroke-linejoin="bevel" transform="matrix(0.9999,0,0,-0.9999,11031.3,11527.6)"
font-family="MS Shell Dlg 2" font-size="10.3125" font-weight="400" font-style="normal" 
>
</g>

<g fill="#333333" fill-opacity="0.2" stroke="#333333" stroke-opacity="1" stroke-width="1" stroke-linecap="round" stroke-linejoin="round" transform="matrix(0.9999,0,0,-0.9999,11031.3,11527.6)"
font-family="MS Shell Dlg 2" font-size="10.3125" font-weight="400" font-style="normal" 
>
<path vector-effect="non-scaling-stroke" fill-rule="evenodd" d="M-10878.8,1827.27 L-10878.8,8527.26 L-10882.2,8609.74 L-10882.2,8609.77 L-10892.4,8691.61 L-11031.9,9529.42 L-10954.9,9644.71 L-10878.8,10027.4 L-10878.7,11527.2 L-9378.78,11527.2 L-9378.78,10027.4 L-9302.66,9644.73 L-9225.56,9529.35 L-9365.17,8691.68 L-9375.37,8609.77 L-9375.37,8609.74 L-9378.78,8527.27 L-9378.84,1827.27 L-10878.8,1827.27"/>
</g>

<g fill="none" stroke="#000000" stroke-opacity="1" stroke-width="1" stroke-linecap="square" stroke-linejoin="bevel" transform="matrix(0.9999,0,0,-0.9999,11031.3,11527.6)"
font-family="MS Shell Dlg 2" font-size="10.3125" font-weight="400" font-style="normal" 
>
</g>

<g fill="none" stroke="#000000" stroke-opacity="1" stroke-width="1" stroke-linecap="square" stroke-linejoin="bevel" transform="matrix(0.9999,0,0,-0.9999,11031.3,11527.6)"
font-family="MS Shell Dlg 2" font-size="10.3125" font-weight="400" font-style="normal" 
>
</g>

<g fill="#333333" fill-opacity="0.2" stroke="#333333" stroke-opacity="1" stroke-width="1" stroke-linecap="round" stroke-linejoin="round" transform="matrix(0.9999,0,0,-0.9999,11031.3,11527.6)"
font-family="MS Shell Dlg 2" font-size="10.3125" font-weight="400" font-style="normal" 
>
<path vector-effect="non-scaling-stroke" fill-rule="evenodd" d="M-6378.78,1827.27 L-6378.78,8527.26 L-6382.18,8609.74 L-6382.19,8609.77 L-6392.37,8691.61 L-6531.94,9529.42 L-6454.91,9644.71 L-6378.78,10027.4 L-6378.72,11527.2 L-4878.78,11527.2 L-4878.78,10027.4 L-4802.66,9644.73 L-4725.56,9529.35 L-4865.17,8691.68 L-4875.37,8609.77 L-4875.37,8609.74 L-4878.78,8527.27 L-4878.84,1827.27 L-6378.78,1827.27"/>
</g>

<g fill="none" stroke="#000000" stroke-opacity="1" stroke-width="1" stroke-linecap="square" stroke-linejoin="bevel" transform="matrix(0.9999,0,0,-0.9999,11031.3,11527.6)"
font-family="MS Shell Dlg 2" font-size="10.3125" font-weight="400" font-style="normal" 
>
</g>

<g fill="none" stroke="#000000" stroke-opacity="1" stroke-width="1" stroke-linecap="square" stroke-linejoin="bevel" transform="matrix(1,0,0,-1,0,9700.97)"
font-family="MS Shell Dlg 2" font-size="10.3125" font-weight="400" font-style="normal" 
>
</g>
</g>
</svg>
