<?xml version="1.0" encoding="UTF-8" standalone="no"?>
<svg width="4538.7mm" height="13215.9mm"
 xmlns="http://www.w3.org/2000/svg" xmlns:xlink="http://www.w3.org/1999/xlink"  version="1.2" baseProfile="tiny">
<title>SVG Generator Example Drawing</title>
<desc>An SVG drawing created by the SVG Generator</desc>
<defs>
</defs>
<g fill="none" stroke="black" stroke-width="1" fill-rule="evenodd" stroke-linecap="square" stroke-linejoin="bevel" >

<g fill="none" stroke="#000000" stroke-opacity="1" stroke-width="1" stroke-linecap="square" stroke-linejoin="bevel" transform="matrix(1,0,0,-1,0,46828.6)"
font-family="MS Shell Dlg 2" font-size="10.3125" font-weight="400" font-style="normal" 
>
</g>

<g fill="none" stroke="#000000" stroke-opacity="1" stroke-width="1" stroke-linecap="square" stroke-linejoin="bevel" transform="matrix(1,0,0,-1,0,46828.6)"
font-family="MS Shell Dlg 2" font-size="10.3125" font-weight="400" font-style="normal" 
>
</g>

<g fill="none" stroke="#000000" stroke-opacity="1" stroke-width="1" stroke-linecap="square" stroke-linejoin="bevel" transform="matrix(0.999987,0,0,-0.999987,15919.6,14528.2)"
font-family="MS Shell Dlg 2" font-size="10.3125" font-weight="400" font-style="normal" 
>
</g>

<g fill="#333333" fill-opacity="0.2" stroke="#333333" stroke-opacity="1" stroke-width="1" stroke-linecap="round" stroke-linejoin="round" transform="matrix(0.999987,0,0,-0.999987,15919.6,14528.2)"
font-family="MS Shell Dlg 2" font-size="10.3125" font-weight="400" font-style="normal" 
>
<path vector-effect="non-scaling-stroke" fill-rule="evenodd" d="M-14090.9,-3367.73 L-14090.9,-3267.73 L-14090.9,13527.1 L-14014.8,13909.8 L-13798,14234.2 L-13797.9,14234.4 L-13473.5,14451.2 L-13090.8,14527.3 L-2666.79,14527.3 L-2284.1,14451.2 L-1959.68,14234.4 L-1959.54,14234.2 L-1742.77,13909.8 L-1666.65,13527.1 L-1666.65,-3272.59 L-1666.65,-3367.73 L-1666.65,-3419.7 L-1593.52,-3699.69 L-1659.73,-4107.7 L-1666.65,-4118.32 L-1666.65,-5844.3 L-1545.39,-5844.3 L-1162.7,-5920.42 L-1162.6,-5920.46 L-838.175,-6137.24 L-555.475,-6419.94 L-488.2,-6487.21 L-410.418,-6564.99 L-131.154,-6844.26 L85.6183,-7168.68 L85.6616,-7168.78 L161.782,-7551.47 L161.782,-11901.8 L27.8075,-12401.8 L27.7343,-12401.9 L-338.291,-12767.9 L-1666.65,-13534.9 L-1666.65,-13649.5 L-1592.4,-14022.7 L-1668.52,-14405.4 L-1885.29,-14729.9 L-1963.07,-14807.6 L-2033.78,-14878.3 L-2666.65,-15511.2 L-2666.65,-17649.5 L-2592.4,-18022.7 L-2668.52,-18405.4 L-2885.29,-18729.9 L-2963.07,-18807.6 L-3033.78,-18878.3 L-5128.75,-20973.3 L-5128.78,-24994.7 L-5128.78,-25094.9 L-5128.78,-25099.9 L-5128.78,-25199.9 L-5128.78,-27094.7 L-5128.78,-27094.8 L-5147.99,-27289.9 L-5148,-27290 L-5204.91,-27477.6 L-6954.79,-31702.2 L-7105.66,-31953.9 L-7323.1,-32151 L-7323.21,-32151 L-7683.69,-32300.3 L-8073.87,-32300.3 L-8434.35,-32151 L-8434.45,-32151 L-8651.89,-31953.9 L-8802.76,-31702.2 L-10552.6,-27477.6 L-10609.6,-27290 L-10609.6,-27289.9 L-10628.8,-27094.9 L-10628.8,-27094.7 L-10628.8,-25099.9 L-10628.8,-24994.7 L-10628.8,-24989.9 L-10628.8,-20973.4 L-12727.2,-18874.9 L-12794.5,-18807.6 L-12872.3,-18729.9 L-13089,-18405.4 L-13165.2,-18022.7 L-13090.9,-17649.5 L-13090.9,-15511.2 L-13727.2,-14874.9 L-13801.6,-14800.6 L-13872.3,-14729.9 L-14089,-14405.4 L-14165.2,-14022.7 L-14090.9,-13649.5 L-14090.9,-13534.9 L-15419.3,-12767.9 L-15785.3,-12401.9 L-15785.4,-12401.8 L-15919.3,-11901.8 L-15919.3,-7551.47 L-15843.2,-7168.78 L-15843.2,-7168.68 L-15626.4,-6844.26 L-15343.7,-6561.56 L-15276.4,-6494.28 L-15269.4,-6487.21 L-15244.8,-6462.63 L-15202.1,-6419.94 L-15198.6,-6416.5 L-14919.4,-6137.24 L-14595,-5920.46 L-14594.9,-5920.42 L-14212.2,-5844.3 L-14090.9,-5844.3 L-14090.9,-4120.23 L-14165.2,-3746.97 L-14090.9,-3373.71 L-14090.9,-3367.73 M-10878.8,1827.27 L-9378.84,1827.27 L-9378.78,8527.27 L-9375.37,8609.74 L-9375.37,8609.77 L-9365.17,8691.68 L-9225.56,9529.35 L-9302.66,9644.73 L-9378.78,10027.4 L-9378.78,11527.2 L-10878.7,11527.2 L-10878.8,10027.4 L-10954.9,9644.71 L-11031.9,9529.42 L-10892.4,8691.61 L-10882.2,8609.77 L-10882.2,8609.74 L-10878.8,8527.26 L-10878.8,1827.27 M-6378.78,1827.27 L-4878.84,1827.27 L-4878.78,8527.27 L-4875.37,8609.74 L-4875.37,8609.77 L-4865.17,8691.68 L-4725.56,9529.35 L-4802.66,9644.73 L-4878.78,10027.4 L-4878.78,11527.2 L-6378.72,11527.2 L-6378.78,10027.4 L-6454.91,9644.71 L-6531.94,9529.42 L-6392.37,8691.61 L-6382.19,8609.77 L-6382.18,8609.74 L-6378.78,8527.26 L-6378.78,1827.27"/>
</g>

<g fill="none" stroke="#000000" stroke-opacity="1" stroke-width="1" stroke-linecap="square" stroke-linejoin="bevel" transform="matrix(0.999987,0,0,-0.999987,15919.6,14528.2)"
font-family="MS Shell Dlg 2" font-size="10.3125" font-weight="400" font-style="normal" 
>
</g>

<g fill="none" stroke="#000000" stroke-opacity="1" stroke-width="1" stroke-linecap="square" stroke-linejoin="bevel" transform="matrix(0.999987,0,0,-0.999987,15919.6,14528.2)"
font-family="MS Shell Dlg 2" font-size="10.3125" font-weight="400" font-style="normal" 
>
</g>

<g fill="#ae5151" fill-opacity="0.2" stroke="#333333" stroke-opacity="1" stroke-width="1" stroke-linecap="round" stroke-linejoin="round" transform="matrix(0.999987,0,0,-0.999987,15919.6,14528.2)"
font-family="MS Shell Dlg 2" font-size="10.3125" font-weight="400" font-style="normal" 
>
<path vector-effect="non-scaling-stroke" fill-rule="evenodd" d="M-14090.9,-3367.73 L-14090.9,-3267.73 L-14090.9,13527.1 L-14014.8,13909.8 L-13798,14234.2 L-13797.9,14234.4 L-13473.5,14451.2 L-13090.8,14527.3 L-2666.79,14527.3 L-2284.1,14451.2 L-1959.68,14234.4 L-1959.54,14234.2 L-1742.77,13909.8 L-1666.65,13527.1 L-1666.65,-3272.59 L-1666.65,-3367.73 L-1666.65,-3419.7 L-1593.52,-3699.69 L-1659.73,-4107.7 L-1666.65,-4118.32 L-1666.65,-5844.3 L-1545.39,-5844.3 L-1162.7,-5920.42 L-1162.6,-5920.46 L-838.175,-6137.24 L-555.475,-6419.94 L-488.2,-6487.21 L-410.418,-6564.99 L-131.154,-6844.26 L85.6183,-7168.68 L85.6616,-7168.78 L161.782,-7551.47 L161.782,-11901.8 L27.8075,-12401.8 L27.7343,-12401.9 L-338.291,-12767.9 L-1666.65,-13534.9 L-1666.65,-13649.5 L-1592.4,-14022.7 L-1668.52,-14405.4 L-1885.29,-14729.9 L-1963.07,-14807.6 L-2033.78,-14878.3 L-2666.65,-15511.2 L-2666.65,-17649.5 L-2592.4,-18022.7 L-2668.52,-18405.4 L-2885.29,-18729.9 L-2963.07,-18807.6 L-3033.78,-18878.3 L-5128.75,-20973.3 L-5128.78,-24994.7 L-5128.78,-25094.9 L-5128.78,-25099.9 L-5128.78,-25199.9 L-5128.78,-27094.7 L-5128.78,-27094.8 L-5147.99,-27289.9 L-5148,-27290 L-5204.91,-27477.6 L-6954.79,-31702.2 L-7105.66,-31953.9 L-7323.1,-32151 L-7323.21,-32151 L-7683.69,-32300.3 L-8073.87,-32300.3 L-8434.35,-32151 L-8434.45,-32151 L-8651.89,-31953.9 L-8802.76,-31702.2 L-10552.6,-27477.6 L-10609.6,-27290 L-10609.6,-27289.9 L-10628.8,-27094.9 L-10628.8,-27094.7 L-10628.8,-25099.9 L-10628.8,-24994.7 L-10628.8,-24989.9 L-10628.8,-20973.4 L-12727.2,-18874.9 L-12794.5,-18807.6 L-12872.3,-18729.9 L-13089,-18405.4 L-13165.2,-18022.7 L-13090.9,-17649.5 L-13090.9,-15511.2 L-13727.2,-14874.9 L-13801.6,-14800.6 L-13872.3,-14729.9 L-14089,-14405.4 L-14165.2,-14022.7 L-14090.9,-13649.5 L-14090.9,-13534.9 L-15419.3,-12767.9 L-15785.3,-12401.9 L-15785.4,-12401.8 L-15919.3,-11901.8 L-15919.3,-7551.47 L-15843.2,-7168.78 L-15843.2,-7168.68 L-15626.4,-6844.26 L-15343.7,-6561.56 L-15276.4,-6494.28 L-15269.4,-6487.21 L-15244.8,-6462.63 L-15202.1,-6419.94 L-15198.6,-6416.5 L-14919.4,-6137.24 L-14595,-5920.46 L-14594.9,-5920.42 L-14212.2,-5844.3 L-14090.9,-5844.3 L-14090.9,-4120.23 L-14165.2,-3746.97 L-14090.9,-3373.71 L-14090.9,-3367.73 M-10878.8,1827.27 L-9378.84,1827.27 L-9378.78,8527.27 L-9375.37,8609.74 L-9375.37,8609.77 L-9365.17,8691.68 L-9225.56,9529.35 L-9302.66,9644.73 L-9378.78,10027.4 L-9378.78,11527.2 L-10878.7,11527.2 L-10878.8,10027.4 L-10954.9,9644.71 L-11031.9,9529.42 L-10892.4,8691.61 L-10882.2,8609.77 L-10882.2,8609.74 L-10878.8,8527.26 L-10878.8,1827.27 M-6378.78,1827.27 L-4878.84,1827.27 L-4878.78,8527.27 L-4875.37,8609.74 L-4875.37,8609.77 L-4865.17,8691.68 L-4725.56,9529.35 L-4802.66,9644.73 L-4878.78,10027.4 L-4878.78,11527.2 L-6378.72,11527.2 L-6378.78,10027.4 L-6454.91,9644.71 L-6531.94,9529.42 L-6392.37,8691.61 L-6382.19,8609.77 L-6382.18,8609.74 L-6378.78,8527.26 L-6378.78,1827.27"/>
</g>

<g fill="none" stroke="#000000" stroke-opacity="1" stroke-width="1" stroke-linecap="square" stroke-linejoin="bevel" transform="matrix(0.999987,0,0,-0.999987,15919.6,14528.2)"
font-family="MS Shell Dlg 2" font-size="10.3125" font-weight="400" font-style="normal" 
>
</g>

<g fill="none" stroke="#000000" stroke-opacity="1" stroke-width="1" stroke-linecap="square" stroke-linejoin="bevel" transform="matrix(0.999987,0,0,-0.999987,15919.6,14528.2)"
font-family="MS Shell Dlg 2" font-size="10.3125" font-weight="400" font-style="normal" 
>
</g>

<g fill="#ffff00" fill-opacity="0.2" stroke="#333333" stroke-opacity="1" stroke-width="1" stroke-linecap="round" stroke-linejoin="round" transform="matrix(0.999987,0,0,-0.999987,15919.6,14528.2)"
font-family="MS Shell Dlg 2" font-size="10.3125" font-weight="400" font-style="normal" 
>
<path vector-effect="non-scaling-stroke" fill-rule="evenodd" d="M-14090.9,-3367.73 L-14090.9,-3267.73 L-14090.9,13527.1 L-14014.8,13909.8 L-13798,14234.2 L-13797.9,14234.4 L-13473.5,14451.2 L-13090.8,14527.3 L-2666.79,14527.3 L-2284.1,14451.2 L-1959.68,14234.4 L-1959.54,14234.2 L-1742.77,13909.8 L-1666.65,13527.1 L-1666.65,-3272.59 L-1666.65,-3367.73 L-1666.65,-3419.7 L-1593.52,-3699.69 L-1659.73,-4107.7 L-1666.65,-4118.32 L-1666.65,-5844.3 L-1545.39,-5844.3 L-1162.7,-5920.42 L-1162.6,-5920.46 L-838.175,-6137.24 L-555.475,-6419.94 L-488.2,-6487.21 L-410.418,-6564.99 L-131.154,-6844.26 L85.6183,-7168.68 L85.6616,-7168.78 L161.782,-7551.47 L161.782,-11901.8 L27.8075,-12401.8 L27.7343,-12401.9 L-338.291,-12767.9 L-1666.65,-13534.9 L-1666.65,-13649.5 L-1592.4,-14022.7 L-1668.52,-14405.4 L-1885.29,-14729.9 L-1963.07,-14807.6 L-2033.78,-14878.3 L-2666.65,-15511.2 L-2666.65,-17649.5 L-2592.4,-18022.7 L-2668.52,-18405.4 L-2885.29,-18729.9 L-2963.07,-18807.6 L-3033.78,-18878.3 L-5128.75,-20973.3 L-5128.78,-24994.7 L-5128.78,-25094.9 L-5128.78,-25099.9 L-5128.78,-25199.9 L-5128.78,-27094.7 L-5128.78,-27094.8 L-5147.99,-27289.9 L-5148,-27290 L-5204.91,-27477.6 L-6954.79,-31702.2 L-7105.66,-31953.9 L-7323.1,-32151 L-7323.21,-32151 L-7683.69,-32300.3 L-8073.87,-32300.3 L-8434.35,-32151 L-8434.45,-32151 L-8651.89,-31953.9 L-8802.76,-31702.2 L-10552.6,-27477.6 L-10609.6,-27290 L-10609.6,-27289.9 L-10628.8,-27094.9 L-10628.8,-27094.7 L-10628.8,-25099.9 L-10628.8,-24994.7 L-10628.8,-24989.9 L-10628.8,-20973.4 L-12727.2,-18874.9 L-12794.5,-18807.6 L-12872.3,-18729.9 L-13089,-18405.4 L-13165.2,-18022.7 L-13090.9,-17649.5 L-13090.9,-15511.2 L-13727.2,-14874.9 L-13801.6,-14800.6 L-13872.3,-14729.9 L-14089,-14405.4 L-14165.2,-14022.7 L-14090.9,-13649.5 L-14090.9,-13534.9 L-15419.3,-12767.9 L-15785.3,-12401.9 L-15785.4,-12401.8 L-15919.3,-11901.8 L-15919.3,-7551.47 L-15843.2,-7168.78 L-15843.2,-7168.68 L-15626.4,-6844.26 L-15343.7,-6561.56 L-15276.4,-6494.28 L-15269.4,-6487.21 L-15244.8,-6462.63 L-15202.1,-6419.94 L-15198.6,-6416.5 L-14919.4,-6137.24 L-14595,-5920.46 L-14594.9,-5920.42 L-14212.2,-5844.3 L-14090.9,-5844.3 L-14090.9,-4120.23 L-14165.2,-3746.97 L-14090.9,-3373.71 L-14090.9,-3367.73 M-10878.8,1827.27 L-9378.84,1827.27 L-9378.78,8527.27 L-9375.37,8609.74 L-9375.37,8609.77 L-9365.17,8691.68 L-9225.56,9529.35 L-9302.66,9644.73 L-9378.78,10027.4 L-9378.78,11527.2 L-10878.7,11527.2 L-10878.8,10027.4 L-10954.9,9644.71 L-11031.9,9529.42 L-10892.4,8691.61 L-10882.2,8609.77 L-10882.2,8609.74 L-10878.8,8527.26 L-10878.8,1827.27 M-6378.78,1827.27 L-4878.84,1827.27 L-4878.78,8527.27 L-4875.37,8609.74 L-4875.37,8609.77 L-4865.17,8691.68 L-4725.56,9529.35 L-4802.66,9644.73 L-4878.78,10027.4 L-4878.78,11527.2 L-6378.72,11527.2 L-6378.78,10027.4 L-6454.91,9644.71 L-6531.94,9529.42 L-6392.37,8691.61 L-6382.19,8609.77 L-6382.18,8609.74 L-6378.78,8527.26 L-6378.78,1827.27"/>
</g>

<g fill="none" stroke="#000000" stroke-opacity="1" stroke-width="1" stroke-linecap="square" stroke-linejoin="bevel" transform="matrix(0.999987,0,0,-0.999987,15919.6,14528.2)"
font-family="MS Shell Dlg 2" font-size="10.3125" font-weight="400" font-style="normal" 
>
</g>

<g fill="none" stroke="#000000" stroke-opacity="1" stroke-width="1" stroke-linecap="square" stroke-linejoin="bevel" transform="matrix(0.999987,0,0,-0.999987,15919.6,14528.2)"
font-family="MS Shell Dlg 2" font-size="10.3125" font-weight="400" font-style="normal" 
>
</g>

<g fill="#ae5151" fill-opacity="0.2" stroke="#333333" stroke-opacity="1" stroke-width="1" stroke-linecap="round" stroke-linejoin="round" transform="matrix(0.999987,0,0,-0.999987,15919.6,14528.2)"
font-family="MS Shell Dlg 2" font-size="10.3125" font-weight="400" font-style="normal" 
>
<path vector-effect="non-scaling-stroke" fill-rule="evenodd" d="M-14090.9,-3367.73 L-14090.9,-3267.73 L-14090.9,13527.1 L-14014.8,13909.8 L-13798,14234.2 L-13797.9,14234.4 L-13473.5,14451.2 L-13090.8,14527.3 L-2666.79,14527.3 L-2284.1,14451.2 L-1959.68,14234.4 L-1959.54,14234.2 L-1742.77,13909.8 L-1666.65,13527.1 L-1666.65,-3272.59 L-1666.65,-3367.73 L-1666.65,-3419.7 L-1593.52,-3699.69 L-1659.73,-4107.7 L-1666.65,-4118.32 L-1666.65,-5844.3 L-1545.39,-5844.3 L-1162.7,-5920.42 L-1162.6,-5920.46 L-838.175,-6137.24 L-555.475,-6419.94 L-488.2,-6487.21 L-410.418,-6564.99 L-131.154,-6844.26 L85.6183,-7168.68 L85.6616,-7168.78 L161.782,-7551.47 L161.782,-11901.8 L27.8075,-12401.8 L27.7343,-12401.9 L-338.291,-12767.9 L-1666.65,-13534.9 L-1666.65,-13649.5 L-1592.4,-14022.7 L-1668.52,-14405.4 L-1885.29,-14729.9 L-1963.07,-14807.6 L-2033.78,-14878.3 L-2666.65,-15511.2 L-2666.65,-17649.5 L-2592.4,-18022.7 L-2668.52,-18405.4 L-2885.29,-18729.9 L-2963.07,-18807.6 L-3033.78,-18878.3 L-5128.75,-20973.3 L-5128.78,-24994.7 L-5128.78,-25094.9 L-5128.78,-25099.9 L-5128.78,-25199.9 L-5128.78,-27094.7 L-5128.78,-27094.8 L-5147.99,-27289.9 L-5148,-27290 L-5204.91,-27477.6 L-6954.79,-31702.2 L-7105.66,-31953.9 L-7323.1,-32151 L-7323.21,-32151 L-7683.69,-32300.3 L-8073.87,-32300.3 L-8434.35,-32151 L-8434.45,-32151 L-8651.89,-31953.9 L-8802.76,-31702.2 L-10552.6,-27477.6 L-10609.6,-27290 L-10609.6,-27289.9 L-10628.8,-27094.9 L-10628.8,-27094.7 L-10628.8,-25099.9 L-10628.8,-24994.7 L-10628.8,-24989.9 L-10628.8,-20973.4 L-12727.2,-18874.9 L-12794.5,-18807.6 L-12872.3,-18729.9 L-13089,-18405.4 L-13165.2,-18022.7 L-13090.9,-17649.5 L-13090.9,-15511.2 L-13727.2,-14874.9 L-13801.6,-14800.6 L-13872.3,-14729.9 L-14089,-14405.4 L-14165.2,-14022.7 L-14090.9,-13649.5 L-14090.9,-13534.9 L-15419.3,-12767.9 L-15785.3,-12401.9 L-15785.4,-12401.8 L-15919.3,-11901.8 L-15919.3,-7551.47 L-15843.2,-7168.78 L-15843.2,-7168.68 L-15626.4,-6844.26 L-15343.7,-6561.56 L-15276.4,-6494.28 L-15269.4,-6487.21 L-15244.8,-6462.63 L-15202.1,-6419.94 L-15198.6,-6416.5 L-14919.4,-6137.24 L-14595,-5920.46 L-14594.9,-5920.42 L-14212.2,-5844.3 L-14090.9,-5844.3 L-14090.9,-4120.23 L-14165.2,-3746.97 L-14090.9,-3373.71 L-14090.9,-3367.73 M-10878.8,1827.27 L-9378.84,1827.27 L-9378.78,8527.27 L-9375.37,8609.74 L-9375.37,8609.77 L-9365.17,8691.68 L-9225.56,9529.35 L-9302.66,9644.73 L-9378.78,10027.4 L-9378.78,11527.2 L-10878.7,11527.2 L-10878.8,10027.4 L-10954.9,9644.71 L-11031.9,9529.42 L-10892.4,8691.61 L-10882.2,8609.77 L-10882.2,8609.74 L-10878.8,8527.26 L-10878.8,1827.27 M-6378.78,1827.27 L-4878.84,1827.27 L-4878.78,8527.27 L-4875.37,8609.74 L-4875.37,8609.77 L-4865.17,8691.68 L-4725.56,9529.35 L-4802.66,9644.73 L-4878.78,10027.4 L-4878.78,11527.2 L-6378.72,11527.2 L-6378.78,10027.4 L-6454.91,9644.71 L-6531.94,9529.42 L-6392.37,8691.61 L-6382.19,8609.77 L-6382.18,8609.74 L-6378.78,8527.26 L-6378.78,1827.27"/>
</g>

<g fill="none" stroke="#000000" stroke-opacity="1" stroke-width="1" stroke-linecap="square" stroke-linejoin="bevel" transform="matrix(0.999987,0,0,-0.999987,15919.6,14528.2)"
font-family="MS Shell Dlg 2" font-size="10.3125" font-weight="400" font-style="normal" 
>
</g>

<g fill="none" stroke="#000000" stroke-opacity="1" stroke-width="1" stroke-linecap="square" stroke-linejoin="bevel" transform="matrix(0.999987,0,0,-0.999987,15919.6,14528.2)"
font-family="MS Shell Dlg 2" font-size="10.3125" font-weight="400" font-style="normal" 
>
</g>

<g fill="#333333" fill-opacity="0.2" stroke="#333333" stroke-opacity="1" stroke-width="1" stroke-linecap="round" stroke-linejoin="round" transform="matrix(0.999987,0,0,-0.999987,15919.6,14528.2)"
font-family="MS Shell Dlg 2" font-size="10.3125" font-weight="400" font-style="normal" 
>
<path vector-effect="non-scaling-stroke" fill-rule="evenodd" d="M-14090.9,-3367.73 L-14090.9,-3267.73 L-14090.9,13527.1 L-14014.8,13909.8 L-13798,14234.2 L-13797.9,14234.4 L-13473.5,14451.2 L-13090.8,14527.3 L-2666.79,14527.3 L-2284.1,14451.2 L-1959.68,14234.4 L-1959.54,14234.2 L-1742.77,13909.8 L-1666.65,13527.1 L-1666.65,-3272.59 L-1666.65,-3367.73 L-1666.65,-3419.7 L-1593.52,-3699.69 L-1659.73,-4107.7 L-1666.65,-4118.32 L-1666.65,-5844.3 L-1545.39,-5844.3 L-1162.7,-5920.42 L-1162.6,-5920.46 L-838.175,-6137.24 L-555.475,-6419.94 L-488.2,-6487.21 L-410.418,-6564.99 L-131.154,-6844.26 L85.6183,-7168.68 L85.6616,-7168.78 L161.782,-7551.47 L161.782,-11901.8 L27.8075,-12401.8 L27.7343,-12401.9 L-338.291,-12767.9 L-1666.65,-13534.9 L-1666.65,-13649.5 L-1592.4,-14022.7 L-1668.52,-14405.4 L-1885.29,-14729.9 L-1963.07,-14807.6 L-2033.78,-14878.3 L-2666.65,-15511.2 L-2666.65,-17649.5 L-2592.4,-18022.7 L-2668.52,-18405.4 L-2885.29,-18729.9 L-2963.07,-18807.6 L-3033.78,-18878.3 L-5128.75,-20973.3 L-5128.78,-24994.7 L-5128.78,-25094.9 L-5128.78,-25099.9 L-5128.78,-25199.9 L-5128.78,-27094.7 L-5128.78,-27094.8 L-5147.99,-27289.9 L-5148,-27290 L-5204.91,-27477.6 L-6954.79,-31702.2 L-7105.66,-31953.9 L-7323.1,-32151 L-7323.21,-32151 L-7683.69,-32300.3 L-8073.87,-32300.3 L-8434.35,-32151 L-8434.45,-32151 L-8651.89,-31953.9 L-8802.76,-31702.2 L-10552.6,-27477.6 L-10609.6,-27290 L-10609.6,-27289.9 L-10628.8,-27094.9 L-10628.8,-27094.7 L-10628.8,-25099.9 L-10628.8,-24994.7 L-10628.8,-24989.9 L-10628.8,-20973.4 L-12727.2,-18874.9 L-12794.5,-18807.6 L-12872.3,-18729.9 L-13089,-18405.4 L-13165.2,-18022.7 L-13090.9,-17649.5 L-13090.9,-15511.2 L-13727.2,-14874.9 L-13801.6,-14800.6 L-13872.3,-14729.9 L-14089,-14405.4 L-14165.2,-14022.7 L-14090.9,-13649.5 L-14090.9,-13534.9 L-15419.3,-12767.9 L-15785.3,-12401.9 L-15785.4,-12401.8 L-15919.3,-11901.8 L-15919.3,-7551.47 L-15843.2,-7168.78 L-15843.2,-7168.68 L-15626.4,-6844.26 L-15343.7,-6561.56 L-15276.4,-6494.28 L-15269.4,-6487.21 L-15244.8,-6462.63 L-15202.1,-6419.94 L-15198.6,-6416.5 L-14919.4,-6137.24 L-14595,-5920.46 L-14594.9,-5920.42 L-14212.2,-5844.3 L-14090.9,-5844.3 L-14090.9,-4120.23 L-14165.2,-3746.97 L-14090.9,-3373.71 L-14090.9,-3367.73 M-10878.8,1827.27 L-9378.84,1827.27 L-9378.78,8527.27 L-9375.37,8609.74 L-9375.37,8609.77 L-9365.17,8691.68 L-9225.56,9529.35 L-9302.66,9644.73 L-9378.78,10027.4 L-9378.78,11527.2 L-10878.7,11527.2 L-10878.8,10027.4 L-10954.9,9644.71 L-11031.9,9529.42 L-10892.4,8691.61 L-10882.2,8609.77 L-10882.2,8609.74 L-10878.8,8527.26 L-10878.8,1827.27 M-6378.78,1827.27 L-4878.84,1827.27 L-4878.78,8527.27 L-4875.37,8609.74 L-4875.37,8609.77 L-4865.17,8691.68 L-4725.56,9529.35 L-4802.66,9644.73 L-4878.78,10027.4 L-4878.78,11527.2 L-6378.72,11527.2 L-6378.78,10027.4 L-6454.91,9644.71 L-6531.94,9529.42 L-6392.37,8691.61 L-6382.19,8609.77 L-6382.18,8609.74 L-6378.78,8527.26 L-6378.78,1827.27"/>
</g>

<g fill="none" stroke="#000000" stroke-opacity="1" stroke-width="1" stroke-linecap="square" stroke-linejoin="bevel" transform="matrix(0.999987,0,0,-0.999987,15919.6,14528.2)"
font-family="MS Shell Dlg 2" font-size="10.3125" font-weight="400" font-style="normal" 
>
</g>

<g fill="none" stroke="#000000" stroke-opacity="1" stroke-width="1" stroke-linecap="square" stroke-linejoin="bevel" transform="matrix(0.999987,0,0,-0.999987,15919.6,14528.2)"
font-family="MS Shell Dlg 2" font-size="10.3125" font-weight="400" font-style="normal" 
>
</g>

<g fill="#ae5151" fill-opacity="0.2" stroke="#333333" stroke-opacity="1" stroke-width="1" stroke-linecap="round" stroke-linejoin="round" transform="matrix(0.999987,0,0,-0.999987,15919.6,14528.2)"
font-family="MS Shell Dlg 2" font-size="10.3125" font-weight="400" font-style="normal" 
>
<path vector-effect="non-scaling-stroke" fill-rule="evenodd" d="M-14090.9,-3367.73 L-14090.9,-3267.73 L-14090.9,13527.1 L-14014.8,13909.8 L-13798,14234.2 L-13797.9,14234.4 L-13473.5,14451.2 L-13090.8,14527.3 L-2666.79,14527.3 L-2284.1,14451.2 L-1959.68,14234.4 L-1959.54,14234.2 L-1742.77,13909.8 L-1666.65,13527.1 L-1666.65,-3272.59 L-1666.65,-3367.73 L-1666.65,-3419.7 L-1593.52,-3699.69 L-1659.73,-4107.7 L-1666.65,-4118.32 L-1666.65,-5844.3 L-1545.39,-5844.3 L-1162.7,-5920.42 L-1162.6,-5920.46 L-838.175,-6137.24 L-555.475,-6419.94 L-488.2,-6487.21 L-410.418,-6564.99 L-131.154,-6844.26 L85.6183,-7168.68 L85.6616,-7168.78 L161.782,-7551.47 L161.782,-11901.8 L27.8075,-12401.8 L27.7343,-12401.9 L-338.291,-12767.9 L-1666.65,-13534.9 L-1666.65,-13649.5 L-1592.4,-14022.7 L-1668.52,-14405.4 L-1885.29,-14729.9 L-1963.07,-14807.6 L-2033.78,-14878.3 L-2666.65,-15511.2 L-2666.65,-17649.5 L-2592.4,-18022.7 L-2668.52,-18405.4 L-2885.29,-18729.9 L-2963.07,-18807.6 L-3033.78,-18878.3 L-5128.75,-20973.3 L-5128.78,-24994.7 L-5128.78,-25094.9 L-5128.78,-25099.9 L-5128.78,-25199.9 L-5128.78,-27094.7 L-5128.78,-27094.8 L-5147.99,-27289.9 L-5148,-27290 L-5204.91,-27477.6 L-6954.79,-31702.2 L-7105.66,-31953.9 L-7323.1,-32151 L-7323.21,-32151 L-7683.69,-32300.3 L-8073.87,-32300.3 L-8434.35,-32151 L-8434.45,-32151 L-8651.89,-31953.9 L-8802.76,-31702.2 L-10552.6,-27477.6 L-10609.6,-27290 L-10609.6,-27289.9 L-10628.8,-27094.9 L-10628.8,-27094.7 L-10628.8,-25099.9 L-10628.8,-24994.7 L-10628.8,-24989.9 L-10628.8,-20973.4 L-12727.2,-18874.9 L-12794.5,-18807.6 L-12872.3,-18729.9 L-13089,-18405.4 L-13165.2,-18022.7 L-13090.9,-17649.5 L-13090.9,-15511.2 L-13727.2,-14874.9 L-13801.6,-14800.6 L-13872.3,-14729.9 L-14089,-14405.4 L-14165.2,-14022.7 L-14090.9,-13649.5 L-14090.9,-13534.9 L-15419.3,-12767.9 L-15785.3,-12401.9 L-15785.4,-12401.8 L-15919.3,-11901.8 L-15919.3,-7551.47 L-15843.2,-7168.78 L-15843.2,-7168.68 L-15626.4,-6844.26 L-15343.7,-6561.56 L-15276.4,-6494.28 L-15269.4,-6487.21 L-15244.8,-6462.63 L-15202.1,-6419.94 L-15198.6,-6416.5 L-14919.4,-6137.24 L-14595,-5920.46 L-14594.9,-5920.42 L-14212.2,-5844.3 L-14090.9,-5844.3 L-14090.9,-4120.23 L-14165.2,-3746.97 L-14090.9,-3373.71 L-14090.9,-3367.73 M-10878.8,1827.27 L-9378.84,1827.27 L-9378.78,8527.27 L-9375.37,8609.74 L-9375.37,8609.77 L-9365.17,8691.68 L-9225.56,9529.35 L-9302.66,9644.73 L-9378.78,10027.4 L-9378.78,11527.2 L-10878.7,11527.2 L-10878.8,10027.4 L-10954.9,9644.71 L-11031.9,9529.42 L-10892.4,8691.61 L-10882.2,8609.77 L-10882.2,8609.74 L-10878.8,8527.26 L-10878.8,1827.27 M-6378.78,1827.27 L-4878.84,1827.27 L-4878.78,8527.27 L-4875.37,8609.74 L-4875.37,8609.77 L-4865.17,8691.68 L-4725.56,9529.35 L-4802.66,9644.73 L-4878.78,10027.4 L-4878.78,11527.2 L-6378.72,11527.2 L-6378.78,10027.4 L-6454.91,9644.71 L-6531.94,9529.42 L-6392.37,8691.61 L-6382.19,8609.77 L-6382.18,8609.74 L-6378.78,8527.26 L-6378.78,1827.27"/>
</g>

<g fill="none" stroke="#000000" stroke-opacity="1" stroke-width="1" stroke-linecap="square" stroke-linejoin="bevel" transform="matrix(0.999987,0,0,-0.999987,15919.6,14528.2)"
font-family="MS Shell Dlg 2" font-size="10.3125" font-weight="400" font-style="normal" 
>
</g>

<g fill="none" stroke="#000000" stroke-opacity="1" stroke-width="1" stroke-linecap="square" stroke-linejoin="bevel" transform="matrix(0.999987,0,0,-0.999987,15919.6,14528.2)"
font-family="MS Shell Dlg 2" font-size="10.3125" font-weight="400" font-style="normal" 
>
</g>

<g fill="#333333" fill-opacity="0.2" stroke="#333333" stroke-opacity="1" stroke-width="1" stroke-linecap="round" stroke-linejoin="round" transform="matrix(0.999987,0,0,-0.999987,15919.6,14528.2)"
font-family="MS Shell Dlg 2" font-size="10.3125" font-weight="400" font-style="normal" 
>
<path vector-effect="non-scaling-stroke" fill-rule="evenodd" d="M-14090.9,-3367.73 L-14090.9,-3267.73 L-14090.9,13527.1 L-14014.8,13909.8 L-13798,14234.2 L-13797.9,14234.4 L-13473.5,14451.2 L-13090.8,14527.3 L-2666.79,14527.3 L-2284.1,14451.2 L-1959.68,14234.4 L-1959.54,14234.2 L-1742.77,13909.8 L-1666.65,13527.1 L-1666.65,-3272.59 L-1666.65,-3367.73 L-1666.65,-3419.7 L-1593.52,-3699.69 L-1659.73,-4107.7 L-1666.65,-4118.32 L-1666.65,-5844.3 L-1545.39,-5844.3 L-1162.7,-5920.42 L-1162.6,-5920.46 L-838.175,-6137.24 L-555.475,-6419.94 L-488.2,-6487.21 L-410.418,-6564.99 L-131.154,-6844.26 L85.6183,-7168.68 L85.6616,-7168.78 L161.782,-7551.47 L161.782,-11901.8 L27.8075,-12401.8 L27.7343,-12401.9 L-338.291,-12767.9 L-1666.65,-13534.9 L-1666.65,-13649.5 L-1592.4,-14022.7 L-1668.52,-14405.4 L-1885.29,-14729.9 L-1963.07,-14807.6 L-2033.78,-14878.3 L-2666.65,-15511.2 L-2666.65,-17649.5 L-2592.4,-18022.7 L-2668.52,-18405.4 L-2885.29,-18729.9 L-2963.07,-18807.6 L-3033.78,-18878.3 L-5128.75,-20973.3 L-5128.78,-24994.7 L-5128.78,-25094.9 L-5128.78,-25099.9 L-5128.78,-25199.9 L-5128.78,-27094.7 L-5128.78,-27094.8 L-5147.99,-27289.9 L-5148,-27290 L-5204.91,-27477.6 L-6954.79,-31702.2 L-7105.66,-31953.9 L-7323.1,-32151 L-7323.21,-32151 L-7683.69,-32300.3 L-8073.87,-32300.3 L-8434.35,-32151 L-8434.45,-32151 L-8651.89,-31953.9 L-8802.76,-31702.2 L-10552.6,-27477.6 L-10609.6,-27290 L-10609.6,-27289.9 L-10628.8,-27094.9 L-10628.8,-27094.7 L-10628.8,-25099.9 L-10628.8,-24994.7 L-10628.8,-24989.9 L-10628.8,-20973.4 L-12727.2,-18874.9 L-12794.5,-18807.6 L-12872.3,-18729.9 L-13089,-18405.4 L-13165.2,-18022.7 L-13090.9,-17649.5 L-13090.9,-15511.2 L-13727.2,-14874.9 L-13801.6,-14800.6 L-13872.3,-14729.9 L-14089,-14405.4 L-14165.2,-14022.7 L-14090.9,-13649.5 L-14090.9,-13534.9 L-15419.3,-12767.9 L-15785.3,-12401.9 L-15785.4,-12401.8 L-15919.3,-11901.8 L-15919.3,-7551.47 L-15843.2,-7168.78 L-15843.2,-7168.68 L-15626.4,-6844.26 L-15343.7,-6561.56 L-15276.4,-6494.28 L-15269.4,-6487.21 L-15244.8,-6462.63 L-15202.1,-6419.94 L-15198.6,-6416.5 L-14919.4,-6137.24 L-14595,-5920.46 L-14594.9,-5920.42 L-14212.2,-5844.3 L-14090.9,-5844.3 L-14090.9,-4120.23 L-14165.2,-3746.97 L-14090.9,-3373.71 L-14090.9,-3367.73 M-10878.8,1827.27 L-9378.84,1827.27 L-9378.78,8527.27 L-9375.37,8609.74 L-9375.37,8609.77 L-9365.17,8691.68 L-9225.56,9529.35 L-9302.66,9644.73 L-9378.78,10027.4 L-9378.78,11527.2 L-10878.7,11527.2 L-10878.8,10027.4 L-10954.9,9644.71 L-11031.9,9529.42 L-10892.4,8691.61 L-10882.2,8609.77 L-10882.2,8609.74 L-10878.8,8527.26 L-10878.8,1827.27 M-6378.78,1827.27 L-4878.84,1827.27 L-4878.78,8527.27 L-4875.37,8609.74 L-4875.37,8609.77 L-4865.17,8691.68 L-4725.56,9529.35 L-4802.66,9644.73 L-4878.78,10027.4 L-4878.78,11527.2 L-6378.72,11527.2 L-6378.78,10027.4 L-6454.91,9644.71 L-6531.94,9529.42 L-6392.37,8691.61 L-6382.19,8609.77 L-6382.18,8609.74 L-6378.78,8527.26 L-6378.78,1827.27"/>
</g>

<g fill="none" stroke="#000000" stroke-opacity="1" stroke-width="1" stroke-linecap="square" stroke-linejoin="bevel" transform="matrix(0.999987,0,0,-0.999987,15919.6,14528.2)"
font-family="MS Shell Dlg 2" font-size="10.3125" font-weight="400" font-style="normal" 
>
</g>

<g fill="none" stroke="#000000" stroke-opacity="1" stroke-width="1" stroke-linecap="square" stroke-linejoin="bevel" transform="matrix(0.999987,0,0,-0.999987,15919.6,14528.2)"
font-family="MS Shell Dlg 2" font-size="10.3125" font-weight="400" font-style="normal" 
>
</g>

<g fill="#ae5151" fill-opacity="0.2" stroke="#333333" stroke-opacity="1" stroke-width="1" stroke-linecap="round" stroke-linejoin="round" transform="matrix(0.999987,0,0,-0.999987,15919.6,14528.2)"
font-family="MS Shell Dlg 2" font-size="10.3125" font-weight="400" font-style="normal" 
>
<path vector-effect="non-scaling-stroke" fill-rule="evenodd" d="M-14090.9,-3367.73 L-14090.9,-3267.73 L-14090.9,13527.1 L-14014.8,13909.8 L-13798,14234.2 L-13797.9,14234.4 L-13473.5,14451.2 L-13090.8,14527.3 L-2666.79,14527.3 L-2284.1,14451.2 L-1959.68,14234.4 L-1959.54,14234.2 L-1742.77,13909.8 L-1666.65,13527.1 L-1666.65,-3272.59 L-1666.65,-3367.73 L-1666.65,-3419.7 L-1593.52,-3699.69 L-1659.73,-4107.7 L-1666.65,-4118.32 L-1666.65,-5844.3 L-1545.39,-5844.3 L-1162.7,-5920.42 L-1162.6,-5920.46 L-838.175,-6137.24 L-555.475,-6419.94 L-488.2,-6487.21 L-410.418,-6564.99 L-131.154,-6844.26 L85.6183,-7168.68 L85.6616,-7168.78 L161.782,-7551.47 L161.782,-11901.8 L27.8075,-12401.8 L27.7343,-12401.9 L-338.291,-12767.9 L-1666.65,-13534.9 L-1666.65,-13649.5 L-1592.4,-14022.7 L-1668.52,-14405.4 L-1885.29,-14729.9 L-1963.07,-14807.6 L-2033.78,-14878.3 L-2666.65,-15511.2 L-2666.65,-17649.5 L-2592.4,-18022.7 L-2668.52,-18405.4 L-2885.29,-18729.9 L-2963.07,-18807.6 L-3033.78,-18878.3 L-5128.75,-20973.3 L-5128.78,-24994.7 L-5128.78,-25094.9 L-5128.78,-25099.9 L-5128.78,-25199.9 L-5128.78,-27094.7 L-5128.78,-27094.8 L-5147.99,-27289.9 L-5148,-27290 L-5204.91,-27477.6 L-6954.79,-31702.2 L-7105.66,-31953.9 L-7323.1,-32151 L-7323.21,-32151 L-7683.69,-32300.3 L-8073.87,-32300.3 L-8434.35,-32151 L-8434.45,-32151 L-8651.89,-31953.9 L-8802.76,-31702.2 L-10552.6,-27477.6 L-10609.6,-27290 L-10609.6,-27289.9 L-10628.8,-27094.9 L-10628.8,-27094.7 L-10628.8,-25099.9 L-10628.8,-24994.7 L-10628.8,-24989.9 L-10628.8,-20973.4 L-12727.2,-18874.9 L-12794.5,-18807.6 L-12872.3,-18729.9 L-13089,-18405.4 L-13165.2,-18022.7 L-13090.9,-17649.5 L-13090.9,-15511.2 L-13727.2,-14874.9 L-13801.6,-14800.6 L-13872.3,-14729.9 L-14089,-14405.4 L-14165.2,-14022.7 L-14090.9,-13649.5 L-14090.9,-13534.9 L-15419.3,-12767.9 L-15785.3,-12401.9 L-15785.4,-12401.8 L-15919.3,-11901.8 L-15919.3,-7551.47 L-15843.2,-7168.78 L-15843.2,-7168.68 L-15626.4,-6844.26 L-15343.7,-6561.56 L-15276.4,-6494.28 L-15269.4,-6487.21 L-15244.8,-6462.63 L-15202.1,-6419.94 L-15198.6,-6416.5 L-14919.4,-6137.24 L-14595,-5920.46 L-14594.9,-5920.42 L-14212.2,-5844.3 L-14090.9,-5844.3 L-14090.9,-4120.23 L-14165.2,-3746.97 L-14090.9,-3373.71 L-14090.9,-3367.73 M-10878.8,1827.27 L-9378.84,1827.27 L-9378.78,8527.27 L-9375.37,8609.74 L-9375.37,8609.77 L-9365.17,8691.68 L-9225.56,9529.35 L-9302.66,9644.73 L-9378.78,10027.4 L-9378.78,11527.2 L-10878.7,11527.2 L-10878.8,10027.4 L-10954.9,9644.71 L-11031.9,9529.42 L-10892.4,8691.61 L-10882.2,8609.77 L-10882.2,8609.74 L-10878.8,8527.26 L-10878.8,1827.27 M-6378.78,1827.27 L-4878.84,1827.27 L-4878.78,8527.27 L-4875.37,8609.74 L-4875.37,8609.77 L-4865.17,8691.68 L-4725.56,9529.35 L-4802.66,9644.73 L-4878.78,10027.4 L-4878.78,11527.2 L-6378.72,11527.2 L-6378.78,10027.4 L-6454.91,9644.71 L-6531.94,9529.42 L-6392.37,8691.61 L-6382.19,8609.77 L-6382.18,8609.74 L-6378.78,8527.26 L-6378.78,1827.27"/>
</g>

<g fill="none" stroke="#000000" stroke-opacity="1" stroke-width="1" stroke-linecap="square" stroke-linejoin="bevel" transform="matrix(0.999987,0,0,-0.999987,15919.6,14528.2)"
font-family="MS Shell Dlg 2" font-size="10.3125" font-weight="400" font-style="normal" 
>
</g>

<g fill="none" stroke="#000000" stroke-opacity="1" stroke-width="1" stroke-linecap="square" stroke-linejoin="bevel" transform="matrix(0.999987,0,0,-0.999987,15919.6,14528.2)"
font-family="MS Shell Dlg 2" font-size="10.3125" font-weight="400" font-style="normal" 
>
</g>

<g fill="#ffff00" fill-opacity="0.2" stroke="#333333" stroke-opacity="1" stroke-width="1" stroke-linecap="round" stroke-linejoin="round" transform="matrix(0.999987,0,0,-0.999987,15919.6,14528.2)"
font-family="MS Shell Dlg 2" font-size="10.3125" font-weight="400" font-style="normal" 
>
<path vector-effect="non-scaling-stroke" fill-rule="evenodd" d="M-14090.9,-3367.73 L-14090.9,-3267.73 L-14090.9,13527.1 L-14014.8,13909.8 L-13798,14234.2 L-13797.9,14234.4 L-13473.5,14451.2 L-13090.8,14527.3 L-2666.79,14527.3 L-2284.1,14451.2 L-1959.68,14234.4 L-1959.54,14234.2 L-1742.77,13909.8 L-1666.65,13527.1 L-1666.65,-3272.59 L-1666.65,-3367.73 L-1666.65,-3419.7 L-1593.52,-3699.69 L-1659.73,-4107.7 L-1666.65,-4118.32 L-1666.65,-5844.3 L-1545.39,-5844.3 L-1162.7,-5920.42 L-1162.6,-5920.46 L-838.175,-6137.24 L-555.475,-6419.94 L-488.2,-6487.21 L-410.418,-6564.99 L-131.154,-6844.26 L85.6183,-7168.68 L85.6616,-7168.78 L161.782,-7551.47 L161.782,-11901.8 L27.8075,-12401.8 L27.7343,-12401.9 L-338.291,-12767.9 L-1666.65,-13534.9 L-1666.65,-13649.5 L-1592.4,-14022.7 L-1668.52,-14405.4 L-1885.29,-14729.9 L-1963.07,-14807.6 L-2033.78,-14878.3 L-2666.65,-15511.2 L-2666.65,-17649.5 L-2592.4,-18022.7 L-2668.52,-18405.4 L-2885.29,-18729.9 L-2963.07,-18807.6 L-3033.78,-18878.3 L-5128.75,-20973.3 L-5128.78,-24994.7 L-5128.78,-25094.9 L-5128.78,-25099.9 L-5128.78,-25199.9 L-5128.78,-27094.7 L-5128.78,-27094.8 L-5147.99,-27289.9 L-5148,-27290 L-5204.91,-27477.6 L-6954.79,-31702.2 L-7105.66,-31953.9 L-7323.1,-32151 L-7323.21,-32151 L-7683.69,-32300.3 L-8073.87,-32300.3 L-8434.35,-32151 L-8434.45,-32151 L-8651.89,-31953.9 L-8802.76,-31702.2 L-10552.6,-27477.6 L-10609.6,-27290 L-10609.6,-27289.9 L-10628.8,-27094.9 L-10628.8,-27094.7 L-10628.8,-25099.9 L-10628.8,-24994.7 L-10628.8,-24989.9 L-10628.8,-20973.4 L-12727.2,-18874.9 L-12794.5,-18807.6 L-12872.3,-18729.9 L-13089,-18405.4 L-13165.2,-18022.7 L-13090.9,-17649.5 L-13090.9,-15511.2 L-13727.2,-14874.9 L-13801.6,-14800.6 L-13872.3,-14729.9 L-14089,-14405.4 L-14165.2,-14022.7 L-14090.9,-13649.5 L-14090.9,-13534.9 L-15419.3,-12767.9 L-15785.3,-12401.9 L-15785.4,-12401.8 L-15919.3,-11901.8 L-15919.3,-7551.47 L-15843.2,-7168.78 L-15843.2,-7168.68 L-15626.4,-6844.26 L-15343.7,-6561.56 L-15276.4,-6494.28 L-15269.4,-6487.21 L-15244.8,-6462.63 L-15202.1,-6419.94 L-15198.6,-6416.5 L-14919.4,-6137.24 L-14595,-5920.46 L-14594.9,-5920.42 L-14212.2,-5844.3 L-14090.9,-5844.3 L-14090.9,-4120.23 L-14165.2,-3746.97 L-14090.9,-3373.71 L-14090.9,-3367.73 M-10878.8,1827.27 L-9378.84,1827.27 L-9378.78,8527.27 L-9375.37,8609.74 L-9375.37,8609.77 L-9365.17,8691.68 L-9225.56,9529.35 L-9302.66,9644.73 L-9378.78,10027.4 L-9378.78,11527.2 L-10878.7,11527.2 L-10878.8,10027.4 L-10954.9,9644.71 L-11031.9,9529.42 L-10892.4,8691.61 L-10882.2,8609.77 L-10882.2,8609.74 L-10878.8,8527.26 L-10878.8,1827.27 M-6378.78,1827.27 L-4878.84,1827.27 L-4878.78,8527.27 L-4875.37,8609.74 L-4875.37,8609.77 L-4865.17,8691.68 L-4725.56,9529.35 L-4802.66,9644.73 L-4878.78,10027.4 L-4878.78,11527.2 L-6378.72,11527.2 L-6378.78,10027.4 L-6454.91,9644.71 L-6531.94,9529.42 L-6392.37,8691.61 L-6382.19,8609.77 L-6382.18,8609.74 L-6378.78,8527.26 L-6378.78,1827.27"/>
</g>

<g fill="none" stroke="#000000" stroke-opacity="1" stroke-width="1" stroke-linecap="square" stroke-linejoin="bevel" transform="matrix(0.999987,0,0,-0.999987,15919.6,14528.2)"
font-family="MS Shell Dlg 2" font-size="10.3125" font-weight="400" font-style="normal" 
>
</g>

<g fill="none" stroke="#000000" stroke-opacity="1" stroke-width="1" stroke-linecap="square" stroke-linejoin="bevel" transform="matrix(0.999987,0,0,-0.999987,15919.6,14528.2)"
font-family="MS Shell Dlg 2" font-size="10.3125" font-weight="400" font-style="normal" 
>
</g>

<g fill="#ae5151" fill-opacity="0.2" stroke="#333333" stroke-opacity="1" stroke-width="1" stroke-linecap="round" stroke-linejoin="round" transform="matrix(0.999987,0,0,-0.999987,15919.6,14528.2)"
font-family="MS Shell Dlg 2" font-size="10.3125" font-weight="400" font-style="normal" 
>
<path vector-effect="non-scaling-stroke" fill-rule="evenodd" d="M-14090.9,-3367.73 L-14090.9,-3267.73 L-14090.9,13527.1 L-14014.8,13909.8 L-13798,14234.2 L-13797.9,14234.4 L-13473.5,14451.2 L-13090.8,14527.3 L-2666.79,14527.3 L-2284.1,14451.2 L-1959.68,14234.4 L-1959.54,14234.2 L-1742.77,13909.8 L-1666.65,13527.1 L-1666.65,-3272.59 L-1666.65,-3367.73 L-1666.65,-3419.7 L-1593.52,-3699.69 L-1659.73,-4107.7 L-1666.65,-4118.32 L-1666.65,-5844.3 L-1545.39,-5844.3 L-1162.7,-5920.42 L-1162.6,-5920.46 L-838.175,-6137.24 L-555.475,-6419.94 L-488.2,-6487.21 L-410.418,-6564.99 L-131.154,-6844.26 L85.6183,-7168.68 L85.6616,-7168.78 L161.782,-7551.47 L161.782,-11901.8 L27.8075,-12401.8 L27.7343,-12401.9 L-338.291,-12767.9 L-1666.65,-13534.9 L-1666.65,-13649.5 L-1592.4,-14022.7 L-1668.52,-14405.4 L-1885.29,-14729.9 L-1963.07,-14807.6 L-2033.78,-14878.3 L-2666.65,-15511.2 L-2666.65,-17649.5 L-2592.4,-18022.7 L-2668.52,-18405.4 L-2885.29,-18729.9 L-2963.07,-18807.6 L-3033.78,-18878.3 L-5128.75,-20973.3 L-5128.78,-24994.7 L-5128.78,-25094.9 L-5128.78,-25099.9 L-5128.78,-25199.9 L-5128.78,-27094.7 L-5128.78,-27094.8 L-5147.99,-27289.9 L-5148,-27290 L-5204.91,-27477.6 L-6954.79,-31702.2 L-7105.66,-31953.9 L-7323.1,-32151 L-7323.21,-32151 L-7683.69,-32300.3 L-8073.87,-32300.3 L-8434.35,-32151 L-8434.45,-32151 L-8651.89,-31953.9 L-8802.76,-31702.2 L-10552.6,-27477.6 L-10609.6,-27290 L-10609.6,-27289.9 L-10628.8,-27094.9 L-10628.8,-27094.7 L-10628.8,-25099.9 L-10628.8,-24994.7 L-10628.8,-24989.9 L-10628.8,-20973.4 L-12727.2,-18874.9 L-12794.5,-18807.6 L-12872.3,-18729.9 L-13089,-18405.4 L-13165.2,-18022.7 L-13090.9,-17649.5 L-13090.9,-15511.2 L-13727.2,-14874.9 L-13801.6,-14800.6 L-13872.3,-14729.9 L-14089,-14405.4 L-14165.2,-14022.7 L-14090.9,-13649.5 L-14090.9,-13534.9 L-15419.3,-12767.9 L-15785.3,-12401.9 L-15785.4,-12401.8 L-15919.3,-11901.8 L-15919.3,-7551.47 L-15843.2,-7168.78 L-15843.2,-7168.68 L-15626.4,-6844.26 L-15343.7,-6561.56 L-15276.4,-6494.28 L-15269.4,-6487.21 L-15244.8,-6462.63 L-15202.1,-6419.94 L-15198.6,-6416.5 L-14919.4,-6137.24 L-14595,-5920.46 L-14594.9,-5920.42 L-14212.2,-5844.3 L-14090.9,-5844.3 L-14090.9,-4120.23 L-14165.2,-3746.97 L-14090.9,-3373.71 L-14090.9,-3367.73 M-10878.8,1827.27 L-9378.84,1827.27 L-9378.78,8527.27 L-9375.37,8609.74 L-9375.37,8609.77 L-9365.17,8691.68 L-9225.56,9529.35 L-9302.66,9644.73 L-9378.78,10027.4 L-9378.78,11527.2 L-10878.7,11527.2 L-10878.8,10027.4 L-10954.9,9644.71 L-11031.9,9529.42 L-10892.4,8691.61 L-10882.2,8609.77 L-10882.2,8609.74 L-10878.8,8527.26 L-10878.8,1827.27 M-6378.78,1827.27 L-4878.84,1827.27 L-4878.78,8527.27 L-4875.37,8609.74 L-4875.37,8609.77 L-4865.17,8691.68 L-4725.56,9529.35 L-4802.66,9644.73 L-4878.78,10027.4 L-4878.78,11527.2 L-6378.72,11527.2 L-6378.78,10027.4 L-6454.91,9644.71 L-6531.94,9529.42 L-6392.37,8691.61 L-6382.19,8609.77 L-6382.18,8609.74 L-6378.78,8527.26 L-6378.78,1827.27"/>
</g>

<g fill="none" stroke="#000000" stroke-opacity="1" stroke-width="1" stroke-linecap="square" stroke-linejoin="bevel" transform="matrix(0.999987,0,0,-0.999987,15919.6,14528.2)"
font-family="MS Shell Dlg 2" font-size="10.3125" font-weight="400" font-style="normal" 
>
</g>

<g fill="none" stroke="#000000" stroke-opacity="1" stroke-width="1" stroke-linecap="square" stroke-linejoin="bevel" transform="matrix(0.999987,0,0,-0.999987,15919.6,14528.2)"
font-family="MS Shell Dlg 2" font-size="10.3125" font-weight="400" font-style="normal" 
>
</g>

<g fill="#333333" fill-opacity="0.2" stroke="#333333" stroke-opacity="1" stroke-width="1" stroke-linecap="round" stroke-linejoin="round" transform="matrix(0.999987,0,0,-0.999987,15919.6,14528.2)"
font-family="MS Shell Dlg 2" font-size="10.3125" font-weight="400" font-style="normal" 
>
<path vector-effect="non-scaling-stroke" fill-rule="evenodd" d="M-14090.9,-3367.73 L-14090.9,-3267.73 L-14090.9,13527.1 L-14014.8,13909.8 L-13798,14234.2 L-13797.9,14234.4 L-13473.5,14451.2 L-13090.8,14527.3 L-2666.79,14527.3 L-2284.1,14451.2 L-1959.68,14234.4 L-1959.54,14234.2 L-1742.77,13909.8 L-1666.65,13527.1 L-1666.65,-3272.59 L-1666.65,-3367.73 L-1666.65,-3419.7 L-1593.52,-3699.69 L-1659.73,-4107.7 L-1666.65,-4118.32 L-1666.65,-5844.3 L-1545.39,-5844.3 L-1162.7,-5920.42 L-1162.6,-5920.46 L-838.175,-6137.24 L-555.475,-6419.94 L-488.2,-6487.21 L-410.418,-6564.99 L-131.154,-6844.26 L85.6183,-7168.68 L85.6616,-7168.78 L161.782,-7551.47 L161.782,-11901.8 L27.8075,-12401.8 L27.7343,-12401.9 L-338.291,-12767.9 L-1666.65,-13534.9 L-1666.65,-13649.5 L-1592.4,-14022.7 L-1668.52,-14405.4 L-1885.29,-14729.9 L-1963.07,-14807.6 L-2033.78,-14878.3 L-2666.65,-15511.2 L-2666.65,-17649.5 L-2592.4,-18022.7 L-2668.52,-18405.4 L-2885.29,-18729.9 L-2963.07,-18807.6 L-3033.78,-18878.3 L-5128.75,-20973.3 L-5128.78,-24994.7 L-5128.78,-25094.9 L-5128.78,-25099.9 L-5128.78,-25199.9 L-5128.78,-27094.7 L-5128.78,-27094.8 L-5147.99,-27289.9 L-5148,-27290 L-5204.91,-27477.6 L-6954.79,-31702.2 L-7105.66,-31953.9 L-7323.1,-32151 L-7323.21,-32151 L-7683.69,-32300.3 L-8073.87,-32300.3 L-8434.35,-32151 L-8434.45,-32151 L-8651.89,-31953.9 L-8802.76,-31702.2 L-10552.6,-27477.6 L-10609.6,-27290 L-10609.6,-27289.9 L-10628.8,-27094.9 L-10628.8,-27094.7 L-10628.8,-25099.9 L-10628.8,-24994.7 L-10628.8,-24989.9 L-10628.8,-20973.4 L-12727.2,-18874.9 L-12794.5,-18807.6 L-12872.3,-18729.9 L-13089,-18405.4 L-13165.2,-18022.7 L-13090.9,-17649.5 L-13090.9,-15511.2 L-13727.2,-14874.9 L-13801.6,-14800.6 L-13872.3,-14729.9 L-14089,-14405.4 L-14165.2,-14022.7 L-14090.9,-13649.5 L-14090.9,-13534.9 L-15419.3,-12767.9 L-15785.3,-12401.9 L-15785.4,-12401.8 L-15919.3,-11901.8 L-15919.3,-7551.47 L-15843.2,-7168.78 L-15843.2,-7168.68 L-15626.4,-6844.26 L-15343.7,-6561.56 L-15276.4,-6494.28 L-15269.4,-6487.21 L-15244.8,-6462.63 L-15202.1,-6419.94 L-15198.6,-6416.5 L-14919.4,-6137.24 L-14595,-5920.46 L-14594.9,-5920.42 L-14212.2,-5844.3 L-14090.9,-5844.3 L-14090.9,-4120.23 L-14165.2,-3746.97 L-14090.9,-3373.71 L-14090.9,-3367.73 M-10878.8,1827.27 L-9378.84,1827.27 L-9378.78,8527.27 L-9375.37,8609.74 L-9375.37,8609.77 L-9365.17,8691.68 L-9225.56,9529.35 L-9302.66,9644.73 L-9378.78,10027.4 L-9378.78,11527.2 L-10878.7,11527.2 L-10878.8,10027.4 L-10954.9,9644.71 L-11031.9,9529.42 L-10892.4,8691.61 L-10882.2,8609.77 L-10882.2,8609.74 L-10878.8,8527.26 L-10878.8,1827.27 M-6378.78,1827.27 L-4878.84,1827.27 L-4878.78,8527.27 L-4875.37,8609.74 L-4875.37,8609.77 L-4865.17,8691.68 L-4725.56,9529.35 L-4802.66,9644.73 L-4878.78,10027.4 L-4878.78,11527.2 L-6378.72,11527.2 L-6378.78,10027.4 L-6454.91,9644.71 L-6531.94,9529.42 L-6392.37,8691.61 L-6382.19,8609.77 L-6382.18,8609.74 L-6378.78,8527.26 L-6378.78,1827.27"/>
</g>

<g fill="none" stroke="#000000" stroke-opacity="1" stroke-width="1" stroke-linecap="square" stroke-linejoin="bevel" transform="matrix(0.999987,0,0,-0.999987,15919.6,14528.2)"
font-family="MS Shell Dlg 2" font-size="10.3125" font-weight="400" font-style="normal" 
>
</g>

<g fill="none" stroke="#000000" stroke-opacity="1" stroke-width="1" stroke-linecap="square" stroke-linejoin="bevel" transform="matrix(1,0,0,-1,0,46828.6)"
font-family="MS Shell Dlg 2" font-size="10.3125" font-weight="400" font-style="normal" 
>
</g>
</g>
</svg>
