<?xml version="1.0" encoding="UTF-8" standalone="no"?>
<svg width="3974.25mm" height="12656.8mm"
 xmlns="http://www.w3.org/2000/svg" xmlns:xlink="http://www.w3.org/1999/xlink"  version="1.2" baseProfile="tiny">
<title>SVG Generator Example Drawing</title>
<desc>An SVG drawing created by the SVG Generator</desc>
<defs>
</defs>
<g fill="none" stroke="black" stroke-width="1" fill-rule="evenodd" stroke-linecap="square" stroke-linejoin="bevel" >

<g fill="none" stroke="#000000" stroke-opacity="1" stroke-width="1" stroke-linecap="square" stroke-linejoin="bevel" transform="matrix(1,0,0,-1,0,44847.8)"
font-family="MS Shell Dlg 2" font-size="10.3125" font-weight="400" font-style="normal" 
>
</g>

<g fill="none" stroke="#000000" stroke-opacity="1" stroke-width="1" stroke-linecap="square" stroke-linejoin="bevel" transform="matrix(1,0,0,-1,0,44847.8)"
font-family="MS Shell Dlg 2" font-size="10.3125" font-weight="400" font-style="normal" 
>
</g>

<g fill="none" stroke="#000000" stroke-opacity="1" stroke-width="1" stroke-linecap="square" stroke-linejoin="bevel" transform="matrix(0.999982,0,0,-0.999982,14919.6,13528.3)"
font-family="MS Shell Dlg 2" font-size="10.3125" font-weight="400" font-style="normal" 
>
</g>

<g fill="#333333" fill-opacity="0.2" stroke="#333333" stroke-opacity="1" stroke-width="1" stroke-linecap="round" stroke-linejoin="round" transform="matrix(0.999982,0,0,-0.999982,14919.6,13528.3)"
font-family="MS Shell Dlg 2" font-size="10.3125" font-weight="400" font-style="normal" 
>
<path vector-effect="non-scaling-stroke" fill-rule="evenodd" d="M-6128.78,-27094.8 L-6128.79,-27094.9 L-7878.67,-31319.5 L-7878.78,-31319.6 L-7878.88,-31319.5 L-9628.77,-27094.9 L-9628.78,-27094.8 L-9628.78,-27094.7 L-9628.78,-25195 L-9628.78,-25099.9 L-9628.78,-24994.7 L-9628.78,-24989.9 L-9628.78,-20559.2 L-9628.81,-20559.1 L-12020.1,-18167.8 L-12087.4,-18100.5 L-12165.2,-18022.7 L-12090.9,-17948.5 L-12090.9,-15097 L-13020.1,-14167.8 L-13094.4,-14093.5 L-13165.2,-14022.7 L-13090.9,-13948.5 L-13090.9,-12957.5 L-14919.3,-11901.9 L-14919.3,-11901.8 L-14919.3,-7551.47 L-14919.3,-7551.36 L-14636.6,-7268.66 L-14569.3,-7201.39 L-14562.2,-7194.32 L-14537.7,-7169.74 L-14495,-7127.04 L-14491.5,-7123.61 L-14212.3,-6844.34 L-14212.2,-6844.3 L-13090.9,-6844.3 L-13090.9,-3821.22 L-13165.2,-3746.97 L-13094.4,-3676.26 L-13020.2,-3602.02 L-13020.2,-3602.01 L-13052.6,-3580.35 L-13052.7,-3580.34 L-13090.8,-3572.75 L-13090.9,-3572.61 L-13090.9,-3472.87 L-13090.9,-3367.73 L-13090.9,-3267.73 L-13090.9,13527.1 L-13090.8,13527.3 L-2666.79,13527.3 L-2666.65,13527.1 L-2666.65,-3272.59 L-2666.65,-3367.73 L-2666.65,-3472.87 L-2666.65,-3477.73 L-2666.65,-3572.61 L-2666.76,-3572.75 L-2704.89,-3580.34 L-2704.93,-3580.35 L-2737.35,-3602.01 L-2737.36,-3602.02 L-2695.1,-3644.27 L-2670.18,-3669.19 L-2663.11,-3676.26 L-2632.21,-3707.16 L-2592.4,-3746.97 L-2666.65,-3821.22 L-2666.65,-6844.3 L-1545.39,-6844.3 L-1545.28,-6844.34 L-1262.58,-7127.04 L-1195.31,-7194.32 L-1188.24,-7201.39 L-1117.53,-7272.1 L-838.261,-7551.36 L-838.218,-7551.47 L-838.218,-11901.8 L-838.291,-11901.9 L-2666.65,-12957.5 L-2666.65,-13948.5 L-2592.4,-14022.7 L-2670.18,-14100.5 L-2740.89,-14171.2 L-3666.65,-15097 L-3666.65,-17948.5 L-3592.4,-18022.7 L-3670.18,-18100.5 L-3740.89,-18171.2 L-6128.75,-20559.1 L-6128.78,-20559.2 L-6128.78,-24994.7 L-6128.78,-25094.9 L-6128.78,-25099.9 L-6128.78,-25199.9 L-6128.78,-27094.7 L-6128.78,-27094.8 M-11650.6,-5120.13 L-11717.8,-5187.3 L-11302.1,-5602.97 L-11331.9,-5290.35 L-11576.3,-5045.88 L-11643.5,-5113.05 L-11650.6,-5120.13 M-4114.04,-5113.05 L-4181.22,-5045.88 L-4425.69,-5290.35 L-4455.47,-5602.97 L-4039.8,-5187.3 L-4106.97,-5120.13 L-4114.04,-5113.05 M-11628.8,-2272.73 L-11628.8,-2177.73 L-11628.8,-2167.73 L-11628.8,-2072.59 L-11628.8,-2067.73 L-11628.8,827.131 L-11628.6,827.273 L-8628.92,827.273 L-8628.78,827.131 L-8628.78,-2072.59 L-8628.78,-2177.73 L-8628.78,-2272.73 L-8628.77,-2272.73 L-8619.58,-2270.9 L-8619.42,-2271.02 L-8619.25,-2272.73 L-8378.88,-2272.73 L-8378.78,-2272.63 L-8378.78,8527.26 L-8378.78,8527.28 L-8128.8,10027.2 L-8128.9,10027.3 L-8378.64,10027.3 L-8378.78,10027.4 L-8378.78,12527.2 L-8378.88,12527.3 L-11878.7,12527.3 L-11878.8,12527.2 L-11878.8,10027.4 L-11878.9,10027.3 L-12128.7,10027.3 L-12128.8,10027.2 L-11878.8,8527.28 L-11878.8,8527.26 L-11878.8,-2272.63 L-11878.7,-2272.73 L-11628.8,-2272.73 M-8524.02,-3272.73 L-8504.97,-3472.73 L-7252.59,-3472.73 L-7233.54,-3272.73 L-8524.02,-3272.73 M-7138.3,-2272.73 L-7138.14,-2271.02 L-7137.97,-2270.9 L-7128.79,-2272.73 L-7128.78,-2272.73 L-7128.78,-2177.73 L-7128.78,-2167.73 L-7128.78,-2072.59 L-7128.78,-2067.73 L-7128.78,827.131 L-7128.64,827.273 L-4128.92,827.273 L-4128.78,827.131 L-4128.78,-2072.59 L-4128.78,-2177.73 L-4128.78,-2272.73 L-3878.88,-2272.73 L-3878.78,-2272.63 L-3878.78,8527.26 L-3878.78,8527.28 L-3628.8,10027.2 L-3628.9,10027.3 L-3878.64,10027.3 L-3878.78,10027.4 L-3878.78,12527.2 L-3878.88,12527.3 L-7378.68,12527.3 L-7378.78,12527.2 L-7378.78,10027.4 L-7378.92,10027.3 L-7628.66,10027.3 L-7628.76,10027.2 L-7378.78,8527.28 L-7378.78,8527.26 L-7378.78,-2272.63 L-7378.68,-2272.73 L-7138.3,-2272.73 M-10643.5,-16656.7 L-10576.3,-16723.8 L-10520.2,-16667.7 L-10614.3,-16573.6 L-10641.6,-16546.3 L-10661.6,-16526.3 L-10717.8,-16582.4 L-10650.6,-16649.6 L-10643.5,-16656.7 M-5237.36,-16667.7 L-5181.22,-16723.8 L-5114.04,-16656.7 L-5106.97,-16649.6 L-5039.8,-16582.4 L-5095.93,-16526.3 L-5237.36,-16667.7 M-5329.97,-2072.73 L-5927.58,-2072.73 L-5927.58,-2167.73 L-5927.58,-2177.73 L-5927.58,-2272.73 L-5329.97,-2272.73 L-5329.97,-2167.73 L-5329.97,-2072.73 M-9829.97,-2072.73 L-10427.6,-2072.73 L-10427.6,-2167.73 L-10427.6,-2177.73 L-10427.6,-2272.73 L-9829.97,-2272.73 L-9829.97,-2177.73 L-9829.97,-2167.73 L-9829.97,-2072.73 M-9590.91,-8572.73 L-9229.97,-8572.73 L-9229.97,-8477.73 L-9229.97,-8372.73 L-9590.91,-8372.73 L-9590.91,-8572.73 M-6527.58,-8572.73 L-6166.65,-8572.73 L-6166.65,-8372.73 L-6527.58,-8372.73 L-6527.58,-8477.73 L-6527.58,-8572.73 M-6166.65,-9572.73 L-6337.24,-9572.73 L-6337.24,-9667.73 L-6337.24,-9677.73 L-6337.24,-9772.73 L-6166.65,-9772.73 L-6166.65,-9572.73 M-9420.31,-9572.73 L-9590.91,-9572.73 L-9590.91,-9772.73 L-9420.31,-9772.73 L-9420.31,-9677.73 L-9420.31,-9667.73 L-9420.31,-9572.73 M-13090.9,-8531.31 L-13521.7,-8100.49 L-13588.9,-8167.66 L-13663.1,-8241.91 L-13227.3,-8677.73 L-13178.9,-8726.16 L-13111.7,-8658.98 L-13104.7,-8651.91 L-13090.9,-8638.17 L-13090.9,-8531.31 M-9138.78,-11972.7 L-9138.78,-11972.7 L-9138.02,-11976.5 L-9138,-11976.6 L-9135.86,-11979.8 L-9135.83,-11979.8 L-9132.62,-11982 L-9132.58,-11982 L-9128.79,-11982.7 L-9128.77,-11982.7 L-6628.79,-11982.7 L-6628.77,-11982.7 L-6624.97,-11982 L-6624.93,-11982 L-6621.72,-11979.8 L-6621.69,-11979.8 L-6619.55,-11976.6 L-6619.53,-11976.5 L-6618.78,-11972.7 L-6618.78,-11972.7 L-6618.78,-10597.1 L-6618.78,-10597 L-6618.78,-10597 L-6619.53,-10593.2 L-6619.55,-10593.1 L-6621.69,-10589.9 L-6621.72,-10589.9 L-6624.93,-10587.8 L-6624.97,-10587.7 L-6628.76,-10587 L-6628.8,-10587 L-6628.89,-10587 L-6632.58,-10587.7 L-6632.62,-10587.8 L-6633.76,-10588.5 L-6635.83,-10589.9 L-6635.86,-10589.9 L-6638,-10593.1 L-6638.02,-10593.2 L-6638.78,-10597 L-6638.78,-10597 L-6638.78,-11962.6 L-6638.92,-11962.7 L-9118.64,-11962.7 L-9118.78,-11962.6 L-9118.78,-10597 L-9118.78,-10597 L-9119.53,-10593.2 L-9119.55,-10593.1 L-9120.74,-10591.4 L-9121.69,-10589.9 L-9121.72,-10589.9 L-9124.93,-10587.8 L-9124.97,-10587.7 L-9128.66,-10587 L-9128.76,-10587 L-9128.8,-10587 L-9132.58,-10587.7 L-9132.62,-10587.8 L-9135.83,-10589.9 L-9135.86,-10589.9 L-9138,-10593.1 L-9138.02,-10593.2 L-9138.78,-10597 L-9138.78,-10597 L-9138.78,-10597.1 L-9138.78,-11972.7 M-2645.83,-8658.98 L-2578.66,-8726.16 L-2155.31,-8302.82 L-2094.41,-8241.91 L-2168.65,-8167.66 L-2235.83,-8100.49 L-2666.65,-8531.31 L-2666.65,-8638.17 L-2652.9,-8651.91 L-2645.83,-8658.98"/>
</g>

<g fill="none" stroke="#000000" stroke-opacity="1" stroke-width="1" stroke-linecap="square" stroke-linejoin="bevel" transform="matrix(0.999982,0,0,-0.999982,14919.6,13528.3)"
font-family="MS Shell Dlg 2" font-size="10.3125" font-weight="400" font-style="normal" 
>
</g>

<g fill="none" stroke="#000000" stroke-opacity="1" stroke-width="1" stroke-linecap="square" stroke-linejoin="bevel" transform="matrix(0.999982,0,0,-0.999982,14919.6,13528.3)"
font-family="MS Shell Dlg 2" font-size="10.3125" font-weight="400" font-style="normal" 
>
</g>

<g fill="#ae5151" fill-opacity="0.2" stroke="#333333" stroke-opacity="1" stroke-width="1" stroke-linecap="round" stroke-linejoin="round" transform="matrix(0.999982,0,0,-0.999982,14919.6,13528.3)"
font-family="MS Shell Dlg 2" font-size="10.3125" font-weight="400" font-style="normal" 
>
<path vector-effect="non-scaling-stroke" fill-rule="evenodd" d="M-6128.78,-27094.8 L-6128.79,-27094.9 L-7878.67,-31319.5 L-7878.78,-31319.6 L-7878.88,-31319.5 L-9628.77,-27094.9 L-9628.78,-27094.8 L-9628.78,-27094.7 L-9628.78,-25195 L-9628.78,-25099.9 L-9628.78,-24994.7 L-9628.78,-24989.9 L-9628.78,-20559.2 L-9628.81,-20559.1 L-12020.1,-18167.8 L-12087.4,-18100.5 L-12165.2,-18022.7 L-12090.9,-17948.5 L-12090.9,-15097 L-13020.1,-14167.8 L-13094.4,-14093.5 L-13165.2,-14022.7 L-13090.9,-13948.5 L-13090.9,-12957.5 L-14919.3,-11901.9 L-14919.3,-11901.8 L-14919.3,-7551.47 L-14919.3,-7551.36 L-14636.6,-7268.66 L-14569.3,-7201.39 L-14562.2,-7194.32 L-14537.7,-7169.74 L-14495,-7127.04 L-14491.5,-7123.61 L-14212.3,-6844.34 L-14212.2,-6844.3 L-13090.9,-6844.3 L-13090.9,-3821.22 L-13165.2,-3746.97 L-13094.4,-3676.26 L-13020.2,-3602.02 L-13020.2,-3602.01 L-13052.6,-3580.35 L-13052.7,-3580.34 L-13090.8,-3572.75 L-13090.9,-3572.61 L-13090.9,-3472.87 L-13090.9,-3367.73 L-13090.9,-3267.73 L-13090.9,13527.1 L-13090.8,13527.3 L-2666.79,13527.3 L-2666.65,13527.1 L-2666.65,-3272.59 L-2666.65,-3367.73 L-2666.65,-3472.87 L-2666.65,-3477.73 L-2666.65,-3572.61 L-2666.76,-3572.75 L-2704.89,-3580.34 L-2704.93,-3580.35 L-2737.35,-3602.01 L-2737.36,-3602.02 L-2695.1,-3644.27 L-2670.18,-3669.19 L-2663.11,-3676.26 L-2632.21,-3707.16 L-2592.4,-3746.97 L-2666.65,-3821.22 L-2666.65,-6844.3 L-1545.39,-6844.3 L-1545.28,-6844.34 L-1262.58,-7127.04 L-1195.31,-7194.32 L-1188.24,-7201.39 L-1117.53,-7272.1 L-838.261,-7551.36 L-838.218,-7551.47 L-838.218,-11901.8 L-838.291,-11901.9 L-2666.65,-12957.5 L-2666.65,-13948.5 L-2592.4,-14022.7 L-2670.18,-14100.5 L-2740.89,-14171.2 L-3666.65,-15097 L-3666.65,-17948.5 L-3592.4,-18022.7 L-3670.18,-18100.5 L-3740.89,-18171.2 L-6128.75,-20559.1 L-6128.78,-20559.2 L-6128.78,-24994.7 L-6128.78,-25094.9 L-6128.78,-25099.9 L-6128.78,-25199.9 L-6128.78,-27094.7 L-6128.78,-27094.8 M-11650.6,-5120.13 L-11717.8,-5187.3 L-11302.1,-5602.97 L-11331.9,-5290.35 L-11576.3,-5045.88 L-11643.5,-5113.05 L-11650.6,-5120.13 M-4114.04,-5113.05 L-4181.22,-5045.88 L-4425.69,-5290.35 L-4455.47,-5602.97 L-4039.8,-5187.3 L-4106.97,-5120.13 L-4114.04,-5113.05 M-11628.8,-2272.73 L-11628.8,-2177.73 L-11628.8,-2167.73 L-11628.8,-2072.59 L-11628.8,-2067.73 L-11628.8,827.131 L-11628.6,827.273 L-8628.92,827.273 L-8628.78,827.131 L-8628.78,-2072.59 L-8628.78,-2177.73 L-8628.78,-2272.73 L-8628.77,-2272.73 L-8619.58,-2270.9 L-8619.42,-2271.02 L-8619.25,-2272.73 L-8378.88,-2272.73 L-8378.78,-2272.63 L-8378.78,8527.26 L-8378.78,8527.28 L-8128.8,10027.2 L-8128.9,10027.3 L-8378.64,10027.3 L-8378.78,10027.4 L-8378.78,12527.2 L-8378.88,12527.3 L-11878.7,12527.3 L-11878.8,12527.2 L-11878.8,10027.4 L-11878.9,10027.3 L-12128.7,10027.3 L-12128.8,10027.2 L-11878.8,8527.28 L-11878.8,8527.26 L-11878.8,-2272.63 L-11878.7,-2272.73 L-11628.8,-2272.73 M-8524.02,-3272.73 L-8504.97,-3472.73 L-7252.59,-3472.73 L-7233.54,-3272.73 L-8524.02,-3272.73 M-7138.3,-2272.73 L-7138.14,-2271.02 L-7137.97,-2270.9 L-7128.79,-2272.73 L-7128.78,-2272.73 L-7128.78,-2177.73 L-7128.78,-2167.73 L-7128.78,-2072.59 L-7128.78,-2067.73 L-7128.78,827.131 L-7128.64,827.273 L-4128.92,827.273 L-4128.78,827.131 L-4128.78,-2072.59 L-4128.78,-2177.73 L-4128.78,-2272.73 L-3878.88,-2272.73 L-3878.78,-2272.63 L-3878.78,8527.26 L-3878.78,8527.28 L-3628.8,10027.2 L-3628.9,10027.3 L-3878.64,10027.3 L-3878.78,10027.4 L-3878.78,12527.2 L-3878.88,12527.3 L-7378.68,12527.3 L-7378.78,12527.2 L-7378.78,10027.4 L-7378.92,10027.3 L-7628.66,10027.3 L-7628.76,10027.2 L-7378.78,8527.28 L-7378.78,8527.26 L-7378.78,-2272.63 L-7378.68,-2272.73 L-7138.3,-2272.73 M-10643.5,-16656.7 L-10576.3,-16723.8 L-10520.2,-16667.7 L-10614.3,-16573.6 L-10641.6,-16546.3 L-10661.6,-16526.3 L-10717.8,-16582.4 L-10650.6,-16649.6 L-10643.5,-16656.7 M-5237.36,-16667.7 L-5181.22,-16723.8 L-5114.04,-16656.7 L-5106.97,-16649.6 L-5039.8,-16582.4 L-5095.93,-16526.3 L-5237.36,-16667.7 M-5329.97,-2072.73 L-5927.58,-2072.73 L-5927.58,-2167.73 L-5927.58,-2177.73 L-5927.58,-2272.73 L-5329.97,-2272.73 L-5329.97,-2167.73 L-5329.97,-2072.73 M-9829.97,-2072.73 L-10427.6,-2072.73 L-10427.6,-2167.73 L-10427.6,-2177.73 L-10427.6,-2272.73 L-9829.97,-2272.73 L-9829.97,-2177.73 L-9829.97,-2167.73 L-9829.97,-2072.73 M-9590.91,-8572.73 L-9229.97,-8572.73 L-9229.97,-8477.73 L-9229.97,-8372.73 L-9590.91,-8372.73 L-9590.91,-8572.73 M-6527.58,-8572.73 L-6166.65,-8572.73 L-6166.65,-8372.73 L-6527.58,-8372.73 L-6527.58,-8477.73 L-6527.58,-8572.73 M-6166.65,-9572.73 L-6337.24,-9572.73 L-6337.24,-9667.73 L-6337.24,-9677.73 L-6337.24,-9772.73 L-6166.65,-9772.73 L-6166.65,-9572.73 M-9420.31,-9572.73 L-9590.91,-9572.73 L-9590.91,-9772.73 L-9420.31,-9772.73 L-9420.31,-9677.73 L-9420.31,-9667.73 L-9420.31,-9572.73 M-13090.9,-8531.31 L-13521.7,-8100.49 L-13588.9,-8167.66 L-13663.1,-8241.91 L-13227.3,-8677.73 L-13178.9,-8726.16 L-13111.7,-8658.98 L-13104.7,-8651.91 L-13090.9,-8638.17 L-13090.9,-8531.31 M-9138.78,-11972.7 L-9138.78,-11972.7 L-9138.02,-11976.5 L-9138,-11976.6 L-9135.86,-11979.8 L-9135.83,-11979.8 L-9132.62,-11982 L-9132.58,-11982 L-9128.79,-11982.7 L-9128.77,-11982.7 L-6628.79,-11982.7 L-6628.77,-11982.7 L-6624.97,-11982 L-6624.93,-11982 L-6621.72,-11979.8 L-6621.69,-11979.8 L-6619.55,-11976.6 L-6619.53,-11976.5 L-6618.78,-11972.7 L-6618.78,-11972.7 L-6618.78,-10597.1 L-6618.78,-10597 L-6618.78,-10597 L-6619.53,-10593.2 L-6619.55,-10593.1 L-6621.69,-10589.9 L-6621.72,-10589.9 L-6624.93,-10587.8 L-6624.97,-10587.7 L-6628.76,-10587 L-6628.8,-10587 L-6628.89,-10587 L-6632.58,-10587.7 L-6632.62,-10587.8 L-6633.76,-10588.5 L-6635.83,-10589.9 L-6635.86,-10589.9 L-6638,-10593.1 L-6638.02,-10593.2 L-6638.78,-10597 L-6638.78,-10597 L-6638.78,-11962.6 L-6638.92,-11962.7 L-9118.64,-11962.7 L-9118.78,-11962.6 L-9118.78,-10597 L-9118.78,-10597 L-9119.53,-10593.2 L-9119.55,-10593.1 L-9120.74,-10591.4 L-9121.69,-10589.9 L-9121.72,-10589.9 L-9124.93,-10587.8 L-9124.97,-10587.7 L-9128.66,-10587 L-9128.76,-10587 L-9128.8,-10587 L-9132.58,-10587.7 L-9132.62,-10587.8 L-9135.83,-10589.9 L-9135.86,-10589.9 L-9138,-10593.1 L-9138.02,-10593.2 L-9138.78,-10597 L-9138.78,-10597 L-9138.78,-10597.1 L-9138.78,-11972.7 M-2645.83,-8658.98 L-2578.66,-8726.16 L-2155.31,-8302.82 L-2094.41,-8241.91 L-2168.65,-8167.66 L-2235.83,-8100.49 L-2666.65,-8531.31 L-2666.65,-8638.17 L-2652.9,-8651.91 L-2645.83,-8658.98"/>
</g>

<g fill="none" stroke="#000000" stroke-opacity="1" stroke-width="1" stroke-linecap="square" stroke-linejoin="bevel" transform="matrix(0.999982,0,0,-0.999982,14919.6,13528.3)"
font-family="MS Shell Dlg 2" font-size="10.3125" font-weight="400" font-style="normal" 
>
</g>

<g fill="none" stroke="#000000" stroke-opacity="1" stroke-width="1" stroke-linecap="square" stroke-linejoin="bevel" transform="matrix(0.999982,0,0,-0.999982,14919.6,13528.3)"
font-family="MS Shell Dlg 2" font-size="10.3125" font-weight="400" font-style="normal" 
>
</g>

<g fill="#ffff00" fill-opacity="0.2" stroke="#333333" stroke-opacity="1" stroke-width="1" stroke-linecap="round" stroke-linejoin="round" transform="matrix(0.999982,0,0,-0.999982,14919.6,13528.3)"
font-family="MS Shell Dlg 2" font-size="10.3125" font-weight="400" font-style="normal" 
>
<path vector-effect="non-scaling-stroke" fill-rule="evenodd" d="M-6128.78,-27094.8 L-6128.79,-27094.9 L-7878.67,-31319.5 L-7878.78,-31319.6 L-7878.88,-31319.5 L-9628.77,-27094.9 L-9628.78,-27094.8 L-9628.78,-27094.7 L-9628.78,-25195 L-9628.78,-25099.9 L-9628.78,-24994.7 L-9628.78,-24989.9 L-9628.78,-20559.2 L-9628.81,-20559.1 L-12020.1,-18167.8 L-12087.4,-18100.5 L-12165.2,-18022.7 L-12090.9,-17948.5 L-12090.9,-15097 L-13020.1,-14167.8 L-13094.4,-14093.5 L-13165.2,-14022.7 L-13090.9,-13948.5 L-13090.9,-12957.5 L-14919.3,-11901.9 L-14919.3,-11901.8 L-14919.3,-7551.47 L-14919.3,-7551.36 L-14636.6,-7268.66 L-14569.3,-7201.39 L-14562.2,-7194.32 L-14537.7,-7169.74 L-14495,-7127.04 L-14491.5,-7123.61 L-14212.3,-6844.34 L-14212.2,-6844.3 L-13090.9,-6844.3 L-13090.9,-3821.22 L-13165.2,-3746.97 L-13094.4,-3676.26 L-13020.2,-3602.02 L-13020.2,-3602.01 L-13052.6,-3580.35 L-13052.7,-3580.34 L-13090.8,-3572.75 L-13090.9,-3572.61 L-13090.9,-3472.87 L-13090.9,-3367.73 L-13090.9,-3267.73 L-13090.9,13527.1 L-13090.8,13527.3 L-2666.79,13527.3 L-2666.65,13527.1 L-2666.65,-3272.59 L-2666.65,-3367.73 L-2666.65,-3472.87 L-2666.65,-3477.73 L-2666.65,-3572.61 L-2666.76,-3572.75 L-2704.89,-3580.34 L-2704.93,-3580.35 L-2737.35,-3602.01 L-2737.36,-3602.02 L-2695.1,-3644.27 L-2670.18,-3669.19 L-2663.11,-3676.26 L-2632.21,-3707.16 L-2592.4,-3746.97 L-2666.65,-3821.22 L-2666.65,-6844.3 L-1545.39,-6844.3 L-1545.28,-6844.34 L-1262.58,-7127.04 L-1195.31,-7194.32 L-1188.24,-7201.39 L-1117.53,-7272.1 L-838.261,-7551.36 L-838.218,-7551.47 L-838.218,-11901.8 L-838.291,-11901.9 L-2666.65,-12957.5 L-2666.65,-13948.5 L-2592.4,-14022.7 L-2670.18,-14100.5 L-2740.89,-14171.2 L-3666.65,-15097 L-3666.65,-17948.5 L-3592.4,-18022.7 L-3670.18,-18100.5 L-3740.89,-18171.2 L-6128.75,-20559.1 L-6128.78,-20559.2 L-6128.78,-24994.7 L-6128.78,-25094.9 L-6128.78,-25099.9 L-6128.78,-25199.9 L-6128.78,-27094.7 L-6128.78,-27094.8 M-11650.6,-5120.13 L-11717.8,-5187.3 L-11302.1,-5602.97 L-11331.9,-5290.35 L-11576.3,-5045.88 L-11643.5,-5113.05 L-11650.6,-5120.13 M-4114.04,-5113.05 L-4181.22,-5045.88 L-4425.69,-5290.35 L-4455.47,-5602.97 L-4039.8,-5187.3 L-4106.97,-5120.13 L-4114.04,-5113.05 M-11628.8,-2272.73 L-11628.8,-2177.73 L-11628.8,-2167.73 L-11628.8,-2072.59 L-11628.8,-2067.73 L-11628.8,827.131 L-11628.6,827.273 L-8628.92,827.273 L-8628.78,827.131 L-8628.78,-2072.59 L-8628.78,-2177.73 L-8628.78,-2272.73 L-8628.77,-2272.73 L-8619.58,-2270.9 L-8619.42,-2271.02 L-8619.25,-2272.73 L-8378.88,-2272.73 L-8378.78,-2272.63 L-8378.78,8527.26 L-8378.78,8527.28 L-8128.8,10027.2 L-8128.9,10027.3 L-8378.64,10027.3 L-8378.78,10027.4 L-8378.78,12527.2 L-8378.88,12527.3 L-11878.7,12527.3 L-11878.8,12527.2 L-11878.8,10027.4 L-11878.9,10027.3 L-12128.7,10027.3 L-12128.8,10027.2 L-11878.8,8527.28 L-11878.8,8527.26 L-11878.8,-2272.63 L-11878.7,-2272.73 L-11628.8,-2272.73 M-8524.02,-3272.73 L-8504.97,-3472.73 L-7252.59,-3472.73 L-7233.54,-3272.73 L-8524.02,-3272.73 M-7138.3,-2272.73 L-7138.14,-2271.02 L-7137.97,-2270.9 L-7128.79,-2272.73 L-7128.78,-2272.73 L-7128.78,-2177.73 L-7128.78,-2167.73 L-7128.78,-2072.59 L-7128.78,-2067.73 L-7128.78,827.131 L-7128.64,827.273 L-4128.92,827.273 L-4128.78,827.131 L-4128.78,-2072.59 L-4128.78,-2177.73 L-4128.78,-2272.73 L-3878.88,-2272.73 L-3878.78,-2272.63 L-3878.78,8527.26 L-3878.78,8527.28 L-3628.8,10027.2 L-3628.9,10027.3 L-3878.64,10027.3 L-3878.78,10027.4 L-3878.78,12527.2 L-3878.88,12527.3 L-7378.68,12527.3 L-7378.78,12527.2 L-7378.78,10027.4 L-7378.92,10027.3 L-7628.66,10027.3 L-7628.76,10027.2 L-7378.78,8527.28 L-7378.78,8527.26 L-7378.78,-2272.63 L-7378.68,-2272.73 L-7138.3,-2272.73 M-10643.5,-16656.7 L-10576.3,-16723.8 L-10520.2,-16667.7 L-10614.3,-16573.6 L-10641.6,-16546.3 L-10661.6,-16526.3 L-10717.8,-16582.4 L-10650.6,-16649.6 L-10643.5,-16656.7 M-5237.36,-16667.7 L-5181.22,-16723.8 L-5114.04,-16656.7 L-5106.97,-16649.6 L-5039.8,-16582.4 L-5095.93,-16526.3 L-5237.36,-16667.7 M-5329.97,-2072.73 L-5927.58,-2072.73 L-5927.58,-2167.73 L-5927.58,-2177.73 L-5927.58,-2272.73 L-5329.97,-2272.73 L-5329.97,-2167.73 L-5329.97,-2072.73 M-9829.97,-2072.73 L-10427.6,-2072.73 L-10427.6,-2167.73 L-10427.6,-2177.73 L-10427.6,-2272.73 L-9829.97,-2272.73 L-9829.97,-2177.73 L-9829.97,-2167.73 L-9829.97,-2072.73 M-9590.91,-8572.73 L-9229.97,-8572.73 L-9229.97,-8477.73 L-9229.97,-8372.73 L-9590.91,-8372.73 L-9590.91,-8572.73 M-6527.58,-8572.73 L-6166.65,-8572.73 L-6166.65,-8372.73 L-6527.58,-8372.73 L-6527.58,-8477.73 L-6527.58,-8572.73 M-6166.65,-9572.73 L-6337.24,-9572.73 L-6337.24,-9667.73 L-6337.24,-9677.73 L-6337.24,-9772.73 L-6166.65,-9772.73 L-6166.65,-9572.73 M-9420.31,-9572.73 L-9590.91,-9572.73 L-9590.91,-9772.73 L-9420.31,-9772.73 L-9420.31,-9677.73 L-9420.31,-9667.73 L-9420.31,-9572.73 M-13090.9,-8531.31 L-13521.7,-8100.49 L-13588.9,-8167.66 L-13663.1,-8241.91 L-13227.3,-8677.73 L-13178.9,-8726.16 L-13111.7,-8658.98 L-13104.7,-8651.91 L-13090.9,-8638.17 L-13090.9,-8531.31 M-9138.78,-11972.7 L-9138.78,-11972.7 L-9138.02,-11976.5 L-9138,-11976.6 L-9135.86,-11979.8 L-9135.83,-11979.8 L-9132.62,-11982 L-9132.58,-11982 L-9128.79,-11982.7 L-9128.77,-11982.7 L-6628.79,-11982.7 L-6628.77,-11982.7 L-6624.97,-11982 L-6624.93,-11982 L-6621.72,-11979.8 L-6621.69,-11979.8 L-6619.55,-11976.6 L-6619.53,-11976.5 L-6618.78,-11972.7 L-6618.78,-11972.7 L-6618.78,-10597.1 L-6618.78,-10597 L-6618.78,-10597 L-6619.53,-10593.2 L-6619.55,-10593.1 L-6621.69,-10589.9 L-6621.72,-10589.9 L-6624.93,-10587.8 L-6624.97,-10587.7 L-6628.76,-10587 L-6628.8,-10587 L-6628.89,-10587 L-6632.58,-10587.7 L-6632.62,-10587.8 L-6633.76,-10588.5 L-6635.83,-10589.9 L-6635.86,-10589.9 L-6638,-10593.1 L-6638.02,-10593.2 L-6638.78,-10597 L-6638.78,-10597 L-6638.78,-11962.6 L-6638.92,-11962.7 L-9118.64,-11962.7 L-9118.78,-11962.6 L-9118.78,-10597 L-9118.78,-10597 L-9119.53,-10593.2 L-9119.55,-10593.1 L-9120.74,-10591.4 L-9121.69,-10589.9 L-9121.72,-10589.9 L-9124.93,-10587.8 L-9124.97,-10587.7 L-9128.66,-10587 L-9128.76,-10587 L-9128.8,-10587 L-9132.58,-10587.7 L-9132.62,-10587.8 L-9135.83,-10589.9 L-9135.86,-10589.9 L-9138,-10593.1 L-9138.02,-10593.2 L-9138.78,-10597 L-9138.78,-10597 L-9138.78,-10597.1 L-9138.78,-11972.7 M-2645.83,-8658.98 L-2578.66,-8726.16 L-2155.31,-8302.82 L-2094.41,-8241.91 L-2168.65,-8167.66 L-2235.83,-8100.49 L-2666.65,-8531.31 L-2666.65,-8638.17 L-2652.9,-8651.91 L-2645.83,-8658.98"/>
</g>

<g fill="none" stroke="#000000" stroke-opacity="1" stroke-width="1" stroke-linecap="square" stroke-linejoin="bevel" transform="matrix(0.999982,0,0,-0.999982,14919.6,13528.3)"
font-family="MS Shell Dlg 2" font-size="10.3125" font-weight="400" font-style="normal" 
>
</g>

<g fill="none" stroke="#000000" stroke-opacity="1" stroke-width="1" stroke-linecap="square" stroke-linejoin="bevel" transform="matrix(0.999982,0,0,-0.999982,14919.6,13528.3)"
font-family="MS Shell Dlg 2" font-size="10.3125" font-weight="400" font-style="normal" 
>
</g>

<g fill="#ae5151" fill-opacity="0.2" stroke="#333333" stroke-opacity="1" stroke-width="1" stroke-linecap="round" stroke-linejoin="round" transform="matrix(0.999982,0,0,-0.999982,14919.6,13528.3)"
font-family="MS Shell Dlg 2" font-size="10.3125" font-weight="400" font-style="normal" 
>
<path vector-effect="non-scaling-stroke" fill-rule="evenodd" d="M-6128.78,-27094.8 L-6128.79,-27094.9 L-7878.67,-31319.5 L-7878.78,-31319.6 L-7878.88,-31319.5 L-9628.77,-27094.9 L-9628.78,-27094.8 L-9628.78,-27094.7 L-9628.78,-25195 L-9628.78,-25099.9 L-9628.78,-24994.7 L-9628.78,-24989.9 L-9628.78,-20559.2 L-9628.81,-20559.1 L-12020.1,-18167.8 L-12087.4,-18100.5 L-12165.2,-18022.7 L-12090.9,-17948.5 L-12090.9,-15097 L-13020.1,-14167.8 L-13094.4,-14093.5 L-13165.2,-14022.7 L-13090.9,-13948.5 L-13090.9,-12957.5 L-14919.3,-11901.9 L-14919.3,-11901.8 L-14919.3,-7551.47 L-14919.3,-7551.36 L-14636.6,-7268.66 L-14569.3,-7201.39 L-14562.2,-7194.32 L-14537.7,-7169.74 L-14495,-7127.04 L-14491.5,-7123.61 L-14212.3,-6844.34 L-14212.2,-6844.3 L-13090.9,-6844.3 L-13090.9,-3821.22 L-13165.2,-3746.97 L-13094.4,-3676.26 L-13020.2,-3602.02 L-13020.2,-3602.01 L-13052.6,-3580.35 L-13052.7,-3580.34 L-13090.8,-3572.75 L-13090.9,-3572.61 L-13090.9,-3472.87 L-13090.9,-3367.73 L-13090.9,-3267.73 L-13090.9,13527.1 L-13090.8,13527.3 L-2666.79,13527.3 L-2666.65,13527.1 L-2666.65,-3272.59 L-2666.65,-3367.73 L-2666.65,-3472.87 L-2666.65,-3477.73 L-2666.65,-3572.61 L-2666.76,-3572.75 L-2704.89,-3580.34 L-2704.93,-3580.35 L-2737.35,-3602.01 L-2737.36,-3602.02 L-2695.1,-3644.27 L-2670.18,-3669.19 L-2663.11,-3676.26 L-2632.21,-3707.16 L-2592.4,-3746.97 L-2666.65,-3821.22 L-2666.65,-6844.3 L-1545.39,-6844.3 L-1545.28,-6844.34 L-1262.58,-7127.04 L-1195.31,-7194.32 L-1188.24,-7201.39 L-1117.53,-7272.1 L-838.261,-7551.36 L-838.218,-7551.47 L-838.218,-11901.8 L-838.291,-11901.9 L-2666.65,-12957.5 L-2666.65,-13948.5 L-2592.4,-14022.7 L-2670.18,-14100.5 L-2740.89,-14171.2 L-3666.65,-15097 L-3666.65,-17948.5 L-3592.4,-18022.7 L-3670.18,-18100.5 L-3740.89,-18171.2 L-6128.75,-20559.1 L-6128.78,-20559.2 L-6128.78,-24994.7 L-6128.78,-25094.9 L-6128.78,-25099.9 L-6128.78,-25199.9 L-6128.78,-27094.7 L-6128.78,-27094.8 M-11650.6,-5120.13 L-11717.8,-5187.3 L-11302.1,-5602.97 L-11331.9,-5290.35 L-11576.3,-5045.88 L-11643.5,-5113.05 L-11650.6,-5120.13 M-4114.04,-5113.05 L-4181.22,-5045.88 L-4425.69,-5290.35 L-4455.47,-5602.97 L-4039.8,-5187.3 L-4106.97,-5120.13 L-4114.04,-5113.05 M-11628.8,-2272.73 L-11628.8,-2177.73 L-11628.8,-2167.73 L-11628.8,-2072.59 L-11628.8,-2067.73 L-11628.8,827.131 L-11628.6,827.273 L-8628.92,827.273 L-8628.78,827.131 L-8628.78,-2072.59 L-8628.78,-2177.73 L-8628.78,-2272.73 L-8628.77,-2272.73 L-8619.58,-2270.9 L-8619.42,-2271.02 L-8619.25,-2272.73 L-8378.88,-2272.73 L-8378.78,-2272.63 L-8378.78,8527.26 L-8378.78,8527.28 L-8128.8,10027.2 L-8128.9,10027.3 L-8378.64,10027.3 L-8378.78,10027.4 L-8378.78,12527.2 L-8378.88,12527.3 L-11878.7,12527.3 L-11878.8,12527.2 L-11878.8,10027.4 L-11878.9,10027.3 L-12128.7,10027.3 L-12128.8,10027.2 L-11878.8,8527.28 L-11878.8,8527.26 L-11878.8,-2272.63 L-11878.7,-2272.73 L-11628.8,-2272.73 M-8524.02,-3272.73 L-8504.97,-3472.73 L-7252.59,-3472.73 L-7233.54,-3272.73 L-8524.02,-3272.73 M-7138.3,-2272.73 L-7138.14,-2271.02 L-7137.97,-2270.9 L-7128.79,-2272.73 L-7128.78,-2272.73 L-7128.78,-2177.73 L-7128.78,-2167.73 L-7128.78,-2072.59 L-7128.78,-2067.73 L-7128.78,827.131 L-7128.64,827.273 L-4128.92,827.273 L-4128.78,827.131 L-4128.78,-2072.59 L-4128.78,-2177.73 L-4128.78,-2272.73 L-3878.88,-2272.73 L-3878.78,-2272.63 L-3878.78,8527.26 L-3878.78,8527.28 L-3628.8,10027.2 L-3628.9,10027.3 L-3878.64,10027.3 L-3878.78,10027.4 L-3878.78,12527.2 L-3878.88,12527.3 L-7378.68,12527.3 L-7378.78,12527.2 L-7378.78,10027.4 L-7378.92,10027.3 L-7628.66,10027.3 L-7628.76,10027.2 L-7378.78,8527.28 L-7378.78,8527.26 L-7378.78,-2272.63 L-7378.68,-2272.73 L-7138.3,-2272.73 M-10643.5,-16656.7 L-10576.3,-16723.8 L-10520.2,-16667.7 L-10614.3,-16573.6 L-10641.6,-16546.3 L-10661.6,-16526.3 L-10717.8,-16582.4 L-10650.6,-16649.6 L-10643.5,-16656.7 M-5237.36,-16667.7 L-5181.22,-16723.8 L-5114.04,-16656.7 L-5106.97,-16649.6 L-5039.8,-16582.4 L-5095.93,-16526.3 L-5237.36,-16667.7 M-5329.97,-2072.73 L-5927.58,-2072.73 L-5927.58,-2167.73 L-5927.58,-2177.73 L-5927.58,-2272.73 L-5329.97,-2272.73 L-5329.97,-2167.73 L-5329.97,-2072.73 M-9829.97,-2072.73 L-10427.6,-2072.73 L-10427.6,-2167.73 L-10427.6,-2177.73 L-10427.6,-2272.73 L-9829.97,-2272.73 L-9829.97,-2177.73 L-9829.97,-2167.73 L-9829.97,-2072.73 M-9590.91,-8572.73 L-9229.97,-8572.73 L-9229.97,-8477.73 L-9229.97,-8372.73 L-9590.91,-8372.73 L-9590.91,-8572.73 M-6527.58,-8572.73 L-6166.65,-8572.73 L-6166.65,-8372.73 L-6527.58,-8372.73 L-6527.58,-8477.73 L-6527.58,-8572.73 M-6166.65,-9572.73 L-6337.24,-9572.73 L-6337.24,-9667.73 L-6337.24,-9677.73 L-6337.24,-9772.73 L-6166.65,-9772.73 L-6166.65,-9572.73 M-9420.31,-9572.73 L-9590.91,-9572.73 L-9590.91,-9772.73 L-9420.31,-9772.73 L-9420.31,-9677.73 L-9420.31,-9667.73 L-9420.31,-9572.73 M-13090.9,-8531.31 L-13521.7,-8100.49 L-13588.9,-8167.66 L-13663.1,-8241.91 L-13227.3,-8677.73 L-13178.9,-8726.16 L-13111.7,-8658.98 L-13104.7,-8651.91 L-13090.9,-8638.17 L-13090.9,-8531.31 M-9138.78,-11972.7 L-9138.78,-11972.7 L-9138.02,-11976.5 L-9138,-11976.6 L-9135.86,-11979.8 L-9135.83,-11979.8 L-9132.62,-11982 L-9132.58,-11982 L-9128.79,-11982.7 L-9128.77,-11982.7 L-6628.79,-11982.7 L-6628.77,-11982.7 L-6624.97,-11982 L-6624.93,-11982 L-6621.72,-11979.8 L-6621.69,-11979.8 L-6619.55,-11976.6 L-6619.53,-11976.5 L-6618.78,-11972.7 L-6618.78,-11972.7 L-6618.78,-10597.1 L-6618.78,-10597 L-6618.78,-10597 L-6619.53,-10593.2 L-6619.55,-10593.1 L-6621.69,-10589.9 L-6621.72,-10589.9 L-6624.93,-10587.8 L-6624.97,-10587.7 L-6628.76,-10587 L-6628.8,-10587 L-6628.89,-10587 L-6632.58,-10587.7 L-6632.62,-10587.8 L-6633.76,-10588.5 L-6635.83,-10589.9 L-6635.86,-10589.9 L-6638,-10593.1 L-6638.02,-10593.2 L-6638.78,-10597 L-6638.78,-10597 L-6638.78,-11962.6 L-6638.92,-11962.7 L-9118.64,-11962.7 L-9118.78,-11962.6 L-9118.78,-10597 L-9118.78,-10597 L-9119.53,-10593.2 L-9119.55,-10593.1 L-9120.74,-10591.4 L-9121.69,-10589.9 L-9121.72,-10589.9 L-9124.93,-10587.8 L-9124.97,-10587.7 L-9128.66,-10587 L-9128.76,-10587 L-9128.8,-10587 L-9132.58,-10587.7 L-9132.62,-10587.8 L-9135.83,-10589.9 L-9135.86,-10589.9 L-9138,-10593.1 L-9138.02,-10593.2 L-9138.78,-10597 L-9138.78,-10597 L-9138.78,-10597.1 L-9138.78,-11972.7 M-2645.83,-8658.98 L-2578.66,-8726.16 L-2155.31,-8302.82 L-2094.41,-8241.91 L-2168.65,-8167.66 L-2235.83,-8100.49 L-2666.65,-8531.31 L-2666.65,-8638.17 L-2652.9,-8651.91 L-2645.83,-8658.98"/>
</g>

<g fill="none" stroke="#000000" stroke-opacity="1" stroke-width="1" stroke-linecap="square" stroke-linejoin="bevel" transform="matrix(0.999982,0,0,-0.999982,14919.6,13528.3)"
font-family="MS Shell Dlg 2" font-size="10.3125" font-weight="400" font-style="normal" 
>
</g>

<g fill="none" stroke="#000000" stroke-opacity="1" stroke-width="1" stroke-linecap="square" stroke-linejoin="bevel" transform="matrix(0.999982,0,0,-0.999982,14919.6,13528.3)"
font-family="MS Shell Dlg 2" font-size="10.3125" font-weight="400" font-style="normal" 
>
</g>

<g fill="#333333" fill-opacity="0.2" stroke="#333333" stroke-opacity="1" stroke-width="1" stroke-linecap="round" stroke-linejoin="round" transform="matrix(0.999982,0,0,-0.999982,14919.6,13528.3)"
font-family="MS Shell Dlg 2" font-size="10.3125" font-weight="400" font-style="normal" 
>
<path vector-effect="non-scaling-stroke" fill-rule="evenodd" d="M-6128.78,-27094.8 L-6128.79,-27094.9 L-7878.67,-31319.5 L-7878.78,-31319.6 L-7878.88,-31319.5 L-9628.77,-27094.9 L-9628.78,-27094.8 L-9628.78,-27094.7 L-9628.78,-25195 L-9628.78,-25099.9 L-9628.78,-24994.7 L-9628.78,-24989.9 L-9628.78,-20559.2 L-9628.81,-20559.1 L-12020.1,-18167.8 L-12087.4,-18100.5 L-12165.2,-18022.7 L-12090.9,-17948.5 L-12090.9,-15097 L-13020.1,-14167.8 L-13094.4,-14093.5 L-13165.2,-14022.7 L-13090.9,-13948.5 L-13090.9,-12957.5 L-14919.3,-11901.9 L-14919.3,-11901.8 L-14919.3,-7551.47 L-14919.3,-7551.36 L-14636.6,-7268.66 L-14569.3,-7201.39 L-14562.2,-7194.32 L-14537.7,-7169.74 L-14495,-7127.04 L-14491.5,-7123.61 L-14212.3,-6844.34 L-14212.2,-6844.3 L-13090.9,-6844.3 L-13090.9,-3821.22 L-13165.2,-3746.97 L-13094.4,-3676.26 L-13020.2,-3602.02 L-13020.2,-3602.01 L-13052.6,-3580.35 L-13052.7,-3580.34 L-13090.8,-3572.75 L-13090.9,-3572.61 L-13090.9,-3472.87 L-13090.9,-3367.73 L-13090.9,-3267.73 L-13090.9,13527.1 L-13090.8,13527.3 L-2666.79,13527.3 L-2666.65,13527.1 L-2666.65,-3272.59 L-2666.65,-3367.73 L-2666.65,-3472.87 L-2666.65,-3477.73 L-2666.65,-3572.61 L-2666.76,-3572.75 L-2704.89,-3580.34 L-2704.93,-3580.35 L-2737.35,-3602.01 L-2737.36,-3602.02 L-2695.1,-3644.27 L-2670.18,-3669.19 L-2663.11,-3676.26 L-2632.21,-3707.16 L-2592.4,-3746.97 L-2666.65,-3821.22 L-2666.65,-6844.3 L-1545.39,-6844.3 L-1545.28,-6844.34 L-1262.58,-7127.04 L-1195.31,-7194.32 L-1188.24,-7201.39 L-1117.53,-7272.1 L-838.261,-7551.36 L-838.218,-7551.47 L-838.218,-11901.8 L-838.291,-11901.9 L-2666.65,-12957.5 L-2666.65,-13948.5 L-2592.4,-14022.7 L-2670.18,-14100.5 L-2740.89,-14171.2 L-3666.65,-15097 L-3666.65,-17948.5 L-3592.4,-18022.7 L-3670.18,-18100.5 L-3740.89,-18171.2 L-6128.75,-20559.1 L-6128.78,-20559.2 L-6128.78,-24994.7 L-6128.78,-25094.9 L-6128.78,-25099.9 L-6128.78,-25199.9 L-6128.78,-27094.7 L-6128.78,-27094.8 M-11650.6,-5120.13 L-11717.8,-5187.3 L-11302.1,-5602.97 L-11331.9,-5290.35 L-11576.3,-5045.88 L-11643.5,-5113.05 L-11650.6,-5120.13 M-4114.04,-5113.05 L-4181.22,-5045.88 L-4425.69,-5290.35 L-4455.47,-5602.97 L-4039.8,-5187.3 L-4106.97,-5120.13 L-4114.04,-5113.05 M-11628.8,-2272.73 L-11628.8,-2177.73 L-11628.8,-2167.73 L-11628.8,-2072.59 L-11628.8,-2067.73 L-11628.8,827.131 L-11628.6,827.273 L-8628.92,827.273 L-8628.78,827.131 L-8628.78,-2072.59 L-8628.78,-2177.73 L-8628.78,-2272.73 L-8628.77,-2272.73 L-8619.58,-2270.9 L-8619.42,-2271.02 L-8619.25,-2272.73 L-8378.88,-2272.73 L-8378.78,-2272.63 L-8378.78,8527.26 L-8378.78,8527.28 L-8128.8,10027.2 L-8128.9,10027.3 L-8378.64,10027.3 L-8378.78,10027.4 L-8378.78,12527.2 L-8378.88,12527.3 L-11878.7,12527.3 L-11878.8,12527.2 L-11878.8,10027.4 L-11878.9,10027.3 L-12128.7,10027.3 L-12128.8,10027.2 L-11878.8,8527.28 L-11878.8,8527.26 L-11878.8,-2272.63 L-11878.7,-2272.73 L-11628.8,-2272.73 M-8524.02,-3272.73 L-8504.97,-3472.73 L-7252.59,-3472.73 L-7233.54,-3272.73 L-8524.02,-3272.73 M-7138.3,-2272.73 L-7138.14,-2271.02 L-7137.97,-2270.9 L-7128.79,-2272.73 L-7128.78,-2272.73 L-7128.78,-2177.73 L-7128.78,-2167.73 L-7128.78,-2072.59 L-7128.78,-2067.73 L-7128.78,827.131 L-7128.64,827.273 L-4128.92,827.273 L-4128.78,827.131 L-4128.78,-2072.59 L-4128.78,-2177.73 L-4128.78,-2272.73 L-3878.88,-2272.73 L-3878.78,-2272.63 L-3878.78,8527.26 L-3878.78,8527.28 L-3628.8,10027.2 L-3628.9,10027.3 L-3878.64,10027.3 L-3878.78,10027.4 L-3878.78,12527.2 L-3878.88,12527.3 L-7378.68,12527.3 L-7378.78,12527.2 L-7378.78,10027.4 L-7378.92,10027.3 L-7628.66,10027.3 L-7628.76,10027.2 L-7378.78,8527.28 L-7378.78,8527.26 L-7378.78,-2272.63 L-7378.68,-2272.73 L-7138.3,-2272.73 M-10643.5,-16656.7 L-10576.3,-16723.8 L-10520.2,-16667.7 L-10614.3,-16573.6 L-10641.6,-16546.3 L-10661.6,-16526.3 L-10717.8,-16582.4 L-10650.6,-16649.6 L-10643.5,-16656.7 M-5237.36,-16667.7 L-5181.22,-16723.8 L-5114.04,-16656.7 L-5106.97,-16649.6 L-5039.8,-16582.4 L-5095.93,-16526.3 L-5237.36,-16667.7 M-5329.97,-2072.73 L-5927.58,-2072.73 L-5927.58,-2167.73 L-5927.58,-2177.73 L-5927.58,-2272.73 L-5329.97,-2272.73 L-5329.97,-2167.73 L-5329.97,-2072.73 M-9829.97,-2072.73 L-10427.6,-2072.73 L-10427.6,-2167.73 L-10427.6,-2177.73 L-10427.6,-2272.73 L-9829.97,-2272.73 L-9829.97,-2177.73 L-9829.97,-2167.73 L-9829.97,-2072.73 M-9590.91,-8572.73 L-9229.97,-8572.73 L-9229.97,-8477.73 L-9229.97,-8372.73 L-9590.91,-8372.73 L-9590.91,-8572.73 M-6527.58,-8572.73 L-6166.65,-8572.73 L-6166.65,-8372.73 L-6527.58,-8372.73 L-6527.58,-8477.73 L-6527.58,-8572.73 M-6166.65,-9572.73 L-6337.24,-9572.73 L-6337.24,-9667.73 L-6337.24,-9677.73 L-6337.24,-9772.73 L-6166.65,-9772.73 L-6166.65,-9572.73 M-9420.31,-9572.73 L-9590.91,-9572.73 L-9590.91,-9772.73 L-9420.31,-9772.73 L-9420.31,-9677.73 L-9420.31,-9667.73 L-9420.31,-9572.73 M-13090.9,-8531.31 L-13521.7,-8100.49 L-13588.9,-8167.66 L-13663.1,-8241.91 L-13227.3,-8677.73 L-13178.9,-8726.16 L-13111.7,-8658.98 L-13104.7,-8651.91 L-13090.9,-8638.17 L-13090.9,-8531.31 M-9138.78,-11972.7 L-9138.78,-11972.7 L-9138.02,-11976.5 L-9138,-11976.6 L-9135.86,-11979.8 L-9135.83,-11979.8 L-9132.62,-11982 L-9132.58,-11982 L-9128.79,-11982.7 L-9128.77,-11982.7 L-6628.79,-11982.7 L-6628.77,-11982.7 L-6624.97,-11982 L-6624.93,-11982 L-6621.72,-11979.8 L-6621.69,-11979.8 L-6619.55,-11976.6 L-6619.53,-11976.5 L-6618.78,-11972.7 L-6618.78,-11972.7 L-6618.78,-10597.1 L-6618.78,-10597 L-6618.78,-10597 L-6619.53,-10593.2 L-6619.55,-10593.1 L-6621.69,-10589.9 L-6621.72,-10589.9 L-6624.93,-10587.8 L-6624.97,-10587.7 L-6628.76,-10587 L-6628.8,-10587 L-6628.89,-10587 L-6632.58,-10587.7 L-6632.62,-10587.8 L-6633.76,-10588.5 L-6635.83,-10589.9 L-6635.86,-10589.9 L-6638,-10593.1 L-6638.02,-10593.2 L-6638.78,-10597 L-6638.78,-10597 L-6638.78,-11962.6 L-6638.92,-11962.7 L-9118.64,-11962.7 L-9118.78,-11962.6 L-9118.78,-10597 L-9118.78,-10597 L-9119.53,-10593.2 L-9119.55,-10593.1 L-9120.74,-10591.4 L-9121.69,-10589.9 L-9121.72,-10589.9 L-9124.93,-10587.8 L-9124.97,-10587.7 L-9128.66,-10587 L-9128.76,-10587 L-9128.8,-10587 L-9132.58,-10587.7 L-9132.62,-10587.8 L-9135.83,-10589.9 L-9135.86,-10589.9 L-9138,-10593.1 L-9138.02,-10593.2 L-9138.78,-10597 L-9138.78,-10597 L-9138.78,-10597.1 L-9138.78,-11972.7 M-2645.83,-8658.98 L-2578.66,-8726.16 L-2155.31,-8302.82 L-2094.41,-8241.91 L-2168.65,-8167.66 L-2235.83,-8100.49 L-2666.65,-8531.31 L-2666.65,-8638.17 L-2652.9,-8651.91 L-2645.83,-8658.98"/>
</g>

<g fill="none" stroke="#000000" stroke-opacity="1" stroke-width="1" stroke-linecap="square" stroke-linejoin="bevel" transform="matrix(0.999982,0,0,-0.999982,14919.6,13528.3)"
font-family="MS Shell Dlg 2" font-size="10.3125" font-weight="400" font-style="normal" 
>
</g>

<g fill="none" stroke="#000000" stroke-opacity="1" stroke-width="1" stroke-linecap="square" stroke-linejoin="bevel" transform="matrix(0.999982,0,0,-0.999982,14919.6,13528.3)"
font-family="MS Shell Dlg 2" font-size="10.3125" font-weight="400" font-style="normal" 
>
</g>

<g fill="#ae5151" fill-opacity="0.2" stroke="#333333" stroke-opacity="1" stroke-width="1" stroke-linecap="round" stroke-linejoin="round" transform="matrix(0.999982,0,0,-0.999982,14919.6,13528.3)"
font-family="MS Shell Dlg 2" font-size="10.3125" font-weight="400" font-style="normal" 
>
<path vector-effect="non-scaling-stroke" fill-rule="evenodd" d="M-6128.78,-27094.8 L-6128.79,-27094.9 L-7878.67,-31319.5 L-7878.78,-31319.6 L-7878.88,-31319.5 L-9628.77,-27094.9 L-9628.78,-27094.8 L-9628.78,-27094.7 L-9628.78,-25195 L-9628.78,-25099.9 L-9628.78,-24994.7 L-9628.78,-24989.9 L-9628.78,-20559.2 L-9628.81,-20559.1 L-12020.1,-18167.8 L-12087.4,-18100.5 L-12165.2,-18022.7 L-12090.9,-17948.5 L-12090.9,-15097 L-13020.1,-14167.8 L-13094.4,-14093.5 L-13165.2,-14022.7 L-13090.9,-13948.5 L-13090.9,-12957.5 L-14919.3,-11901.9 L-14919.3,-11901.8 L-14919.3,-7551.47 L-14919.3,-7551.36 L-14636.6,-7268.66 L-14569.3,-7201.39 L-14562.2,-7194.32 L-14537.7,-7169.74 L-14495,-7127.04 L-14491.5,-7123.61 L-14212.3,-6844.34 L-14212.2,-6844.3 L-13090.9,-6844.3 L-13090.9,-3821.22 L-13165.2,-3746.97 L-13094.4,-3676.26 L-13020.2,-3602.02 L-13020.2,-3602.01 L-13052.6,-3580.35 L-13052.7,-3580.34 L-13090.8,-3572.75 L-13090.9,-3572.61 L-13090.9,-3472.87 L-13090.9,-3367.73 L-13090.9,-3267.73 L-13090.9,13527.1 L-13090.8,13527.3 L-2666.79,13527.3 L-2666.65,13527.1 L-2666.65,-3272.59 L-2666.65,-3367.73 L-2666.65,-3472.87 L-2666.65,-3477.73 L-2666.65,-3572.61 L-2666.76,-3572.75 L-2704.89,-3580.34 L-2704.93,-3580.35 L-2737.35,-3602.01 L-2737.36,-3602.02 L-2695.1,-3644.27 L-2670.18,-3669.19 L-2663.11,-3676.26 L-2632.21,-3707.16 L-2592.4,-3746.97 L-2666.65,-3821.22 L-2666.65,-6844.3 L-1545.39,-6844.3 L-1545.28,-6844.34 L-1262.58,-7127.04 L-1195.31,-7194.32 L-1188.24,-7201.39 L-1117.53,-7272.1 L-838.261,-7551.36 L-838.218,-7551.47 L-838.218,-11901.8 L-838.291,-11901.9 L-2666.65,-12957.5 L-2666.65,-13948.5 L-2592.4,-14022.7 L-2670.18,-14100.5 L-2740.89,-14171.2 L-3666.65,-15097 L-3666.65,-17948.5 L-3592.4,-18022.7 L-3670.18,-18100.5 L-3740.89,-18171.2 L-6128.75,-20559.1 L-6128.78,-20559.2 L-6128.78,-24994.7 L-6128.78,-25094.9 L-6128.78,-25099.9 L-6128.78,-25199.9 L-6128.78,-27094.7 L-6128.78,-27094.8 M-11650.6,-5120.13 L-11717.8,-5187.3 L-11302.1,-5602.97 L-11331.9,-5290.35 L-11576.3,-5045.88 L-11643.5,-5113.05 L-11650.6,-5120.13 M-4114.04,-5113.05 L-4181.22,-5045.88 L-4425.69,-5290.35 L-4455.47,-5602.97 L-4039.8,-5187.3 L-4106.97,-5120.13 L-4114.04,-5113.05 M-11628.8,-2272.73 L-11628.8,-2177.73 L-11628.8,-2167.73 L-11628.8,-2072.59 L-11628.8,-2067.73 L-11628.8,827.131 L-11628.6,827.273 L-8628.92,827.273 L-8628.78,827.131 L-8628.78,-2072.59 L-8628.78,-2177.73 L-8628.78,-2272.73 L-8628.77,-2272.73 L-8619.58,-2270.9 L-8619.42,-2271.02 L-8619.25,-2272.73 L-8378.88,-2272.73 L-8378.78,-2272.63 L-8378.78,8527.26 L-8378.78,8527.28 L-8128.8,10027.2 L-8128.9,10027.3 L-8378.64,10027.3 L-8378.78,10027.4 L-8378.78,12527.2 L-8378.88,12527.3 L-11878.7,12527.3 L-11878.8,12527.2 L-11878.8,10027.4 L-11878.9,10027.3 L-12128.7,10027.3 L-12128.8,10027.2 L-11878.8,8527.28 L-11878.8,8527.26 L-11878.8,-2272.63 L-11878.7,-2272.73 L-11628.8,-2272.73 M-8524.02,-3272.73 L-8504.97,-3472.73 L-7252.59,-3472.73 L-7233.54,-3272.73 L-8524.02,-3272.73 M-7138.3,-2272.73 L-7138.14,-2271.02 L-7137.97,-2270.9 L-7128.79,-2272.73 L-7128.78,-2272.73 L-7128.78,-2177.73 L-7128.78,-2167.73 L-7128.78,-2072.59 L-7128.78,-2067.73 L-7128.78,827.131 L-7128.64,827.273 L-4128.92,827.273 L-4128.78,827.131 L-4128.78,-2072.59 L-4128.78,-2177.73 L-4128.78,-2272.73 L-3878.88,-2272.73 L-3878.78,-2272.63 L-3878.78,8527.26 L-3878.78,8527.28 L-3628.8,10027.2 L-3628.9,10027.3 L-3878.64,10027.3 L-3878.78,10027.4 L-3878.78,12527.2 L-3878.88,12527.3 L-7378.68,12527.3 L-7378.78,12527.2 L-7378.78,10027.4 L-7378.92,10027.3 L-7628.66,10027.3 L-7628.76,10027.2 L-7378.78,8527.28 L-7378.78,8527.26 L-7378.78,-2272.63 L-7378.68,-2272.73 L-7138.3,-2272.73 M-10643.5,-16656.7 L-10576.3,-16723.8 L-10520.2,-16667.7 L-10614.3,-16573.6 L-10641.6,-16546.3 L-10661.6,-16526.3 L-10717.8,-16582.4 L-10650.6,-16649.6 L-10643.5,-16656.7 M-5237.36,-16667.7 L-5181.22,-16723.8 L-5114.04,-16656.7 L-5106.97,-16649.6 L-5039.8,-16582.4 L-5095.93,-16526.3 L-5237.36,-16667.7 M-5329.97,-2072.73 L-5927.58,-2072.73 L-5927.58,-2167.73 L-5927.58,-2177.73 L-5927.58,-2272.73 L-5329.97,-2272.73 L-5329.97,-2167.73 L-5329.97,-2072.73 M-9829.97,-2072.73 L-10427.6,-2072.73 L-10427.6,-2167.73 L-10427.6,-2177.73 L-10427.6,-2272.73 L-9829.97,-2272.73 L-9829.97,-2177.73 L-9829.97,-2167.73 L-9829.97,-2072.73 M-9590.91,-8572.73 L-9229.97,-8572.73 L-9229.97,-8477.73 L-9229.97,-8372.73 L-9590.91,-8372.73 L-9590.91,-8572.73 M-6527.58,-8572.73 L-6166.65,-8572.73 L-6166.65,-8372.73 L-6527.58,-8372.73 L-6527.58,-8477.73 L-6527.58,-8572.73 M-6166.65,-9572.73 L-6337.24,-9572.73 L-6337.24,-9667.73 L-6337.24,-9677.73 L-6337.24,-9772.73 L-6166.65,-9772.73 L-6166.65,-9572.73 M-9420.31,-9572.73 L-9590.91,-9572.73 L-9590.91,-9772.73 L-9420.31,-9772.73 L-9420.31,-9677.73 L-9420.31,-9667.73 L-9420.31,-9572.73 M-13090.9,-8531.31 L-13521.7,-8100.49 L-13588.9,-8167.66 L-13663.1,-8241.91 L-13227.3,-8677.73 L-13178.9,-8726.16 L-13111.7,-8658.98 L-13104.7,-8651.91 L-13090.9,-8638.17 L-13090.9,-8531.31 M-9138.78,-11972.7 L-9138.78,-11972.7 L-9138.02,-11976.5 L-9138,-11976.6 L-9135.86,-11979.8 L-9135.83,-11979.8 L-9132.62,-11982 L-9132.58,-11982 L-9128.79,-11982.7 L-9128.77,-11982.7 L-6628.79,-11982.7 L-6628.77,-11982.7 L-6624.97,-11982 L-6624.93,-11982 L-6621.72,-11979.8 L-6621.69,-11979.8 L-6619.55,-11976.6 L-6619.53,-11976.5 L-6618.78,-11972.7 L-6618.78,-11972.7 L-6618.78,-10597.1 L-6618.78,-10597 L-6618.78,-10597 L-6619.53,-10593.2 L-6619.55,-10593.1 L-6621.69,-10589.9 L-6621.72,-10589.9 L-6624.93,-10587.8 L-6624.97,-10587.7 L-6628.76,-10587 L-6628.8,-10587 L-6628.89,-10587 L-6632.58,-10587.7 L-6632.62,-10587.8 L-6633.76,-10588.5 L-6635.83,-10589.9 L-6635.86,-10589.9 L-6638,-10593.1 L-6638.02,-10593.2 L-6638.78,-10597 L-6638.78,-10597 L-6638.78,-11962.6 L-6638.92,-11962.7 L-9118.64,-11962.7 L-9118.78,-11962.6 L-9118.78,-10597 L-9118.78,-10597 L-9119.53,-10593.2 L-9119.55,-10593.1 L-9120.74,-10591.4 L-9121.69,-10589.9 L-9121.72,-10589.9 L-9124.93,-10587.8 L-9124.97,-10587.7 L-9128.66,-10587 L-9128.76,-10587 L-9128.8,-10587 L-9132.58,-10587.7 L-9132.62,-10587.8 L-9135.83,-10589.9 L-9135.86,-10589.9 L-9138,-10593.1 L-9138.02,-10593.2 L-9138.78,-10597 L-9138.78,-10597 L-9138.78,-10597.1 L-9138.78,-11972.7 M-2645.83,-8658.98 L-2578.66,-8726.16 L-2155.31,-8302.82 L-2094.41,-8241.91 L-2168.65,-8167.66 L-2235.83,-8100.49 L-2666.65,-8531.31 L-2666.65,-8638.17 L-2652.9,-8651.91 L-2645.83,-8658.98"/>
</g>

<g fill="none" stroke="#000000" stroke-opacity="1" stroke-width="1" stroke-linecap="square" stroke-linejoin="bevel" transform="matrix(0.999982,0,0,-0.999982,14919.6,13528.3)"
font-family="MS Shell Dlg 2" font-size="10.3125" font-weight="400" font-style="normal" 
>
</g>

<g fill="none" stroke="#000000" stroke-opacity="1" stroke-width="1" stroke-linecap="square" stroke-linejoin="bevel" transform="matrix(0.999982,0,0,-0.999982,14919.6,13528.3)"
font-family="MS Shell Dlg 2" font-size="10.3125" font-weight="400" font-style="normal" 
>
</g>

<g fill="#333333" fill-opacity="0.2" stroke="#333333" stroke-opacity="1" stroke-width="1" stroke-linecap="round" stroke-linejoin="round" transform="matrix(0.999982,0,0,-0.999982,14919.6,13528.3)"
font-family="MS Shell Dlg 2" font-size="10.3125" font-weight="400" font-style="normal" 
>
<path vector-effect="non-scaling-stroke" fill-rule="evenodd" d="M-6128.78,-27094.8 L-6128.79,-27094.9 L-7878.67,-31319.5 L-7878.78,-31319.6 L-7878.88,-31319.5 L-9628.77,-27094.9 L-9628.78,-27094.8 L-9628.78,-27094.7 L-9628.78,-25195 L-9628.78,-25099.9 L-9628.78,-24994.7 L-9628.78,-24989.9 L-9628.78,-20559.2 L-9628.81,-20559.1 L-12020.1,-18167.8 L-12087.4,-18100.5 L-12165.2,-18022.7 L-12090.9,-17948.5 L-12090.9,-15097 L-13020.1,-14167.8 L-13094.4,-14093.5 L-13165.2,-14022.7 L-13090.9,-13948.5 L-13090.9,-12957.5 L-14919.3,-11901.9 L-14919.3,-11901.8 L-14919.3,-7551.47 L-14919.3,-7551.36 L-14636.6,-7268.66 L-14569.3,-7201.39 L-14562.2,-7194.32 L-14537.7,-7169.74 L-14495,-7127.04 L-14491.5,-7123.61 L-14212.3,-6844.34 L-14212.2,-6844.3 L-13090.9,-6844.3 L-13090.9,-3821.22 L-13165.2,-3746.97 L-13094.4,-3676.26 L-13020.2,-3602.02 L-13020.2,-3602.01 L-13052.6,-3580.35 L-13052.7,-3580.34 L-13090.8,-3572.75 L-13090.9,-3572.61 L-13090.9,-3472.87 L-13090.9,-3367.73 L-13090.9,-3267.73 L-13090.9,13527.1 L-13090.8,13527.3 L-2666.79,13527.3 L-2666.65,13527.1 L-2666.65,-3272.59 L-2666.65,-3367.73 L-2666.65,-3472.87 L-2666.65,-3477.73 L-2666.65,-3572.61 L-2666.76,-3572.75 L-2704.89,-3580.34 L-2704.93,-3580.35 L-2737.35,-3602.01 L-2737.36,-3602.02 L-2695.1,-3644.27 L-2670.18,-3669.19 L-2663.11,-3676.26 L-2632.21,-3707.16 L-2592.4,-3746.97 L-2666.65,-3821.22 L-2666.65,-6844.3 L-1545.39,-6844.3 L-1545.28,-6844.34 L-1262.58,-7127.04 L-1195.31,-7194.32 L-1188.24,-7201.39 L-1117.53,-7272.1 L-838.261,-7551.36 L-838.218,-7551.47 L-838.218,-11901.8 L-838.291,-11901.9 L-2666.65,-12957.5 L-2666.65,-13948.5 L-2592.4,-14022.7 L-2670.18,-14100.5 L-2740.89,-14171.2 L-3666.65,-15097 L-3666.65,-17948.5 L-3592.4,-18022.7 L-3670.18,-18100.5 L-3740.89,-18171.2 L-6128.75,-20559.1 L-6128.78,-20559.2 L-6128.78,-24994.7 L-6128.78,-25094.9 L-6128.78,-25099.9 L-6128.78,-25199.9 L-6128.78,-27094.7 L-6128.78,-27094.8 M-11650.6,-5120.13 L-11717.8,-5187.3 L-11302.1,-5602.97 L-11331.9,-5290.35 L-11576.3,-5045.88 L-11643.5,-5113.05 L-11650.6,-5120.13 M-4114.04,-5113.05 L-4181.22,-5045.88 L-4425.69,-5290.35 L-4455.47,-5602.97 L-4039.8,-5187.3 L-4106.97,-5120.13 L-4114.04,-5113.05 M-11628.8,-2272.73 L-11628.8,-2177.73 L-11628.8,-2167.73 L-11628.8,-2072.59 L-11628.8,-2067.73 L-11628.8,827.131 L-11628.6,827.273 L-8628.92,827.273 L-8628.78,827.131 L-8628.78,-2072.59 L-8628.78,-2177.73 L-8628.78,-2272.73 L-8628.77,-2272.73 L-8619.58,-2270.9 L-8619.42,-2271.02 L-8619.25,-2272.73 L-8378.88,-2272.73 L-8378.78,-2272.63 L-8378.78,8527.26 L-8378.78,8527.28 L-8128.8,10027.2 L-8128.9,10027.3 L-8378.64,10027.3 L-8378.78,10027.4 L-8378.78,12527.2 L-8378.88,12527.3 L-11878.7,12527.3 L-11878.8,12527.2 L-11878.8,10027.4 L-11878.9,10027.3 L-12128.7,10027.3 L-12128.8,10027.2 L-11878.8,8527.28 L-11878.8,8527.26 L-11878.8,-2272.63 L-11878.7,-2272.73 L-11628.8,-2272.73 M-8524.02,-3272.73 L-8504.97,-3472.73 L-7252.59,-3472.73 L-7233.54,-3272.73 L-8524.02,-3272.73 M-7138.3,-2272.73 L-7138.14,-2271.02 L-7137.97,-2270.9 L-7128.79,-2272.73 L-7128.78,-2272.73 L-7128.78,-2177.73 L-7128.78,-2167.73 L-7128.78,-2072.59 L-7128.78,-2067.73 L-7128.78,827.131 L-7128.64,827.273 L-4128.92,827.273 L-4128.78,827.131 L-4128.78,-2072.59 L-4128.78,-2177.73 L-4128.78,-2272.73 L-3878.88,-2272.73 L-3878.78,-2272.63 L-3878.78,8527.26 L-3878.78,8527.28 L-3628.8,10027.2 L-3628.9,10027.3 L-3878.64,10027.3 L-3878.78,10027.4 L-3878.78,12527.2 L-3878.88,12527.3 L-7378.68,12527.3 L-7378.78,12527.2 L-7378.78,10027.4 L-7378.92,10027.3 L-7628.66,10027.3 L-7628.76,10027.2 L-7378.78,8527.28 L-7378.78,8527.26 L-7378.78,-2272.63 L-7378.68,-2272.73 L-7138.3,-2272.73 M-10643.5,-16656.7 L-10576.3,-16723.8 L-10520.2,-16667.7 L-10614.3,-16573.6 L-10641.6,-16546.3 L-10661.6,-16526.3 L-10717.8,-16582.4 L-10650.6,-16649.6 L-10643.5,-16656.7 M-5237.36,-16667.7 L-5181.22,-16723.8 L-5114.04,-16656.7 L-5106.97,-16649.6 L-5039.8,-16582.4 L-5095.93,-16526.3 L-5237.36,-16667.7 M-5329.97,-2072.73 L-5927.58,-2072.73 L-5927.58,-2167.73 L-5927.58,-2177.73 L-5927.58,-2272.73 L-5329.97,-2272.73 L-5329.97,-2167.73 L-5329.97,-2072.73 M-9829.97,-2072.73 L-10427.6,-2072.73 L-10427.6,-2167.73 L-10427.6,-2177.73 L-10427.6,-2272.73 L-9829.97,-2272.73 L-9829.97,-2177.73 L-9829.97,-2167.73 L-9829.97,-2072.73 M-9590.91,-8572.73 L-9229.97,-8572.73 L-9229.97,-8477.73 L-9229.97,-8372.73 L-9590.91,-8372.73 L-9590.91,-8572.73 M-6527.58,-8572.73 L-6166.65,-8572.73 L-6166.65,-8372.73 L-6527.58,-8372.73 L-6527.58,-8477.73 L-6527.58,-8572.73 M-6166.65,-9572.73 L-6337.24,-9572.73 L-6337.24,-9667.73 L-6337.24,-9677.73 L-6337.24,-9772.73 L-6166.65,-9772.73 L-6166.65,-9572.73 M-9420.31,-9572.73 L-9590.91,-9572.73 L-9590.91,-9772.73 L-9420.31,-9772.73 L-9420.31,-9677.73 L-9420.31,-9667.73 L-9420.31,-9572.73 M-13090.9,-8531.31 L-13521.7,-8100.49 L-13588.9,-8167.66 L-13663.1,-8241.91 L-13227.3,-8677.73 L-13178.9,-8726.16 L-13111.7,-8658.98 L-13104.7,-8651.91 L-13090.9,-8638.17 L-13090.9,-8531.31 M-9138.78,-11972.7 L-9138.78,-11972.7 L-9138.02,-11976.5 L-9138,-11976.6 L-9135.86,-11979.8 L-9135.83,-11979.8 L-9132.62,-11982 L-9132.58,-11982 L-9128.79,-11982.7 L-9128.77,-11982.7 L-6628.79,-11982.7 L-6628.77,-11982.7 L-6624.97,-11982 L-6624.93,-11982 L-6621.72,-11979.8 L-6621.69,-11979.8 L-6619.55,-11976.6 L-6619.53,-11976.5 L-6618.78,-11972.7 L-6618.78,-11972.7 L-6618.78,-10597.1 L-6618.78,-10597 L-6618.78,-10597 L-6619.53,-10593.2 L-6619.55,-10593.1 L-6621.69,-10589.9 L-6621.72,-10589.9 L-6624.93,-10587.8 L-6624.97,-10587.7 L-6628.76,-10587 L-6628.8,-10587 L-6628.89,-10587 L-6632.58,-10587.7 L-6632.62,-10587.8 L-6633.76,-10588.5 L-6635.83,-10589.9 L-6635.86,-10589.9 L-6638,-10593.1 L-6638.02,-10593.2 L-6638.78,-10597 L-6638.78,-10597 L-6638.78,-11962.6 L-6638.92,-11962.7 L-9118.64,-11962.7 L-9118.78,-11962.6 L-9118.78,-10597 L-9118.78,-10597 L-9119.53,-10593.2 L-9119.55,-10593.1 L-9120.74,-10591.4 L-9121.69,-10589.9 L-9121.72,-10589.9 L-9124.93,-10587.8 L-9124.97,-10587.7 L-9128.66,-10587 L-9128.76,-10587 L-9128.8,-10587 L-9132.58,-10587.7 L-9132.62,-10587.8 L-9135.83,-10589.9 L-9135.86,-10589.9 L-9138,-10593.1 L-9138.02,-10593.2 L-9138.78,-10597 L-9138.78,-10597 L-9138.78,-10597.1 L-9138.78,-11972.7 M-2645.83,-8658.98 L-2578.66,-8726.16 L-2155.31,-8302.82 L-2094.41,-8241.91 L-2168.65,-8167.66 L-2235.83,-8100.49 L-2666.65,-8531.31 L-2666.65,-8638.17 L-2652.9,-8651.91 L-2645.83,-8658.98"/>
</g>

<g fill="none" stroke="#000000" stroke-opacity="1" stroke-width="1" stroke-linecap="square" stroke-linejoin="bevel" transform="matrix(0.999982,0,0,-0.999982,14919.6,13528.3)"
font-family="MS Shell Dlg 2" font-size="10.3125" font-weight="400" font-style="normal" 
>
</g>

<g fill="none" stroke="#000000" stroke-opacity="1" stroke-width="1" stroke-linecap="square" stroke-linejoin="bevel" transform="matrix(0.999982,0,0,-0.999982,14919.6,13528.3)"
font-family="MS Shell Dlg 2" font-size="10.3125" font-weight="400" font-style="normal" 
>
</g>

<g fill="#ae5151" fill-opacity="0.2" stroke="#333333" stroke-opacity="1" stroke-width="1" stroke-linecap="round" stroke-linejoin="round" transform="matrix(0.999982,0,0,-0.999982,14919.6,13528.3)"
font-family="MS Shell Dlg 2" font-size="10.3125" font-weight="400" font-style="normal" 
>
<path vector-effect="non-scaling-stroke" fill-rule="evenodd" d="M-6128.78,-27094.8 L-6128.79,-27094.9 L-7878.67,-31319.5 L-7878.78,-31319.6 L-7878.88,-31319.5 L-9628.77,-27094.9 L-9628.78,-27094.8 L-9628.78,-27094.7 L-9628.78,-25195 L-9628.78,-25099.9 L-9628.78,-24994.7 L-9628.78,-24989.9 L-9628.78,-20559.2 L-9628.81,-20559.1 L-12020.1,-18167.8 L-12087.4,-18100.5 L-12165.2,-18022.7 L-12090.9,-17948.5 L-12090.9,-15097 L-13020.1,-14167.8 L-13094.4,-14093.5 L-13165.2,-14022.7 L-13090.9,-13948.5 L-13090.9,-12957.5 L-14919.3,-11901.9 L-14919.3,-11901.8 L-14919.3,-7551.47 L-14919.3,-7551.36 L-14636.6,-7268.66 L-14569.3,-7201.39 L-14562.2,-7194.32 L-14537.7,-7169.74 L-14495,-7127.04 L-14491.5,-7123.61 L-14212.3,-6844.34 L-14212.2,-6844.3 L-13090.9,-6844.3 L-13090.9,-3821.22 L-13165.2,-3746.97 L-13094.4,-3676.26 L-13020.2,-3602.02 L-13020.2,-3602.01 L-13052.6,-3580.35 L-13052.7,-3580.34 L-13090.8,-3572.75 L-13090.9,-3572.61 L-13090.9,-3472.87 L-13090.9,-3367.73 L-13090.9,-3267.73 L-13090.9,13527.1 L-13090.8,13527.3 L-2666.79,13527.3 L-2666.65,13527.1 L-2666.65,-3272.59 L-2666.65,-3367.73 L-2666.65,-3472.87 L-2666.65,-3477.73 L-2666.65,-3572.61 L-2666.76,-3572.75 L-2704.89,-3580.34 L-2704.93,-3580.35 L-2737.35,-3602.01 L-2737.36,-3602.02 L-2695.1,-3644.27 L-2670.18,-3669.19 L-2663.11,-3676.26 L-2632.21,-3707.16 L-2592.4,-3746.97 L-2666.65,-3821.22 L-2666.65,-6844.3 L-1545.39,-6844.3 L-1545.28,-6844.34 L-1262.58,-7127.04 L-1195.31,-7194.32 L-1188.24,-7201.39 L-1117.53,-7272.1 L-838.261,-7551.36 L-838.218,-7551.47 L-838.218,-11901.8 L-838.291,-11901.9 L-2666.65,-12957.5 L-2666.65,-13948.5 L-2592.4,-14022.7 L-2670.18,-14100.5 L-2740.89,-14171.2 L-3666.65,-15097 L-3666.65,-17948.5 L-3592.4,-18022.7 L-3670.18,-18100.5 L-3740.89,-18171.2 L-6128.75,-20559.1 L-6128.78,-20559.2 L-6128.78,-24994.7 L-6128.78,-25094.9 L-6128.78,-25099.9 L-6128.78,-25199.9 L-6128.78,-27094.7 L-6128.78,-27094.8 M-11650.6,-5120.13 L-11717.8,-5187.3 L-11302.1,-5602.97 L-11331.9,-5290.35 L-11576.3,-5045.88 L-11643.5,-5113.05 L-11650.6,-5120.13 M-4114.04,-5113.05 L-4181.22,-5045.88 L-4425.69,-5290.35 L-4455.47,-5602.97 L-4039.8,-5187.3 L-4106.97,-5120.13 L-4114.04,-5113.05 M-11628.8,-2272.73 L-11628.8,-2177.73 L-11628.8,-2167.73 L-11628.8,-2072.59 L-11628.8,-2067.73 L-11628.8,827.131 L-11628.6,827.273 L-8628.92,827.273 L-8628.78,827.131 L-8628.78,-2072.59 L-8628.78,-2177.73 L-8628.78,-2272.73 L-8628.77,-2272.73 L-8619.58,-2270.9 L-8619.42,-2271.02 L-8619.25,-2272.73 L-8378.88,-2272.73 L-8378.78,-2272.63 L-8378.78,8527.26 L-8378.78,8527.28 L-8128.8,10027.2 L-8128.9,10027.3 L-8378.64,10027.3 L-8378.78,10027.4 L-8378.78,12527.2 L-8378.88,12527.3 L-11878.7,12527.3 L-11878.8,12527.2 L-11878.8,10027.4 L-11878.9,10027.3 L-12128.7,10027.3 L-12128.8,10027.2 L-11878.8,8527.28 L-11878.8,8527.26 L-11878.8,-2272.63 L-11878.7,-2272.73 L-11628.8,-2272.73 M-8524.02,-3272.73 L-8504.97,-3472.73 L-7252.59,-3472.73 L-7233.54,-3272.73 L-8524.02,-3272.73 M-7138.3,-2272.73 L-7138.14,-2271.02 L-7137.97,-2270.9 L-7128.79,-2272.73 L-7128.78,-2272.73 L-7128.78,-2177.73 L-7128.78,-2167.73 L-7128.78,-2072.59 L-7128.78,-2067.73 L-7128.78,827.131 L-7128.64,827.273 L-4128.92,827.273 L-4128.78,827.131 L-4128.78,-2072.59 L-4128.78,-2177.73 L-4128.78,-2272.73 L-3878.88,-2272.73 L-3878.78,-2272.63 L-3878.78,8527.26 L-3878.78,8527.28 L-3628.8,10027.2 L-3628.9,10027.3 L-3878.64,10027.3 L-3878.78,10027.4 L-3878.78,12527.2 L-3878.88,12527.3 L-7378.68,12527.3 L-7378.78,12527.2 L-7378.78,10027.4 L-7378.92,10027.3 L-7628.66,10027.3 L-7628.76,10027.2 L-7378.78,8527.28 L-7378.78,8527.26 L-7378.78,-2272.63 L-7378.68,-2272.73 L-7138.3,-2272.73 M-10643.5,-16656.7 L-10576.3,-16723.8 L-10520.2,-16667.7 L-10614.3,-16573.6 L-10641.6,-16546.3 L-10661.6,-16526.3 L-10717.8,-16582.4 L-10650.6,-16649.6 L-10643.5,-16656.7 M-5237.36,-16667.7 L-5181.22,-16723.8 L-5114.04,-16656.7 L-5106.97,-16649.6 L-5039.8,-16582.4 L-5095.93,-16526.3 L-5237.36,-16667.7 M-5329.97,-2072.73 L-5927.58,-2072.73 L-5927.58,-2167.73 L-5927.58,-2177.73 L-5927.58,-2272.73 L-5329.97,-2272.73 L-5329.97,-2167.73 L-5329.97,-2072.73 M-9829.97,-2072.73 L-10427.6,-2072.73 L-10427.6,-2167.73 L-10427.6,-2177.73 L-10427.6,-2272.73 L-9829.97,-2272.73 L-9829.97,-2177.73 L-9829.97,-2167.73 L-9829.97,-2072.73 M-9590.91,-8572.73 L-9229.97,-8572.73 L-9229.97,-8477.73 L-9229.97,-8372.73 L-9590.91,-8372.73 L-9590.91,-8572.73 M-6527.58,-8572.73 L-6166.65,-8572.73 L-6166.65,-8372.73 L-6527.58,-8372.73 L-6527.58,-8477.73 L-6527.58,-8572.73 M-6166.65,-9572.73 L-6337.24,-9572.73 L-6337.24,-9667.73 L-6337.24,-9677.73 L-6337.24,-9772.73 L-6166.65,-9772.73 L-6166.65,-9572.73 M-9420.31,-9572.73 L-9590.91,-9572.73 L-9590.91,-9772.73 L-9420.31,-9772.73 L-9420.31,-9677.73 L-9420.31,-9667.73 L-9420.31,-9572.73 M-13090.9,-8531.31 L-13521.7,-8100.49 L-13588.9,-8167.66 L-13663.1,-8241.91 L-13227.3,-8677.73 L-13178.9,-8726.16 L-13111.7,-8658.98 L-13104.7,-8651.91 L-13090.9,-8638.17 L-13090.9,-8531.31 M-9138.78,-11972.7 L-9138.78,-11972.7 L-9138.02,-11976.5 L-9138,-11976.6 L-9135.86,-11979.8 L-9135.83,-11979.8 L-9132.62,-11982 L-9132.58,-11982 L-9128.79,-11982.7 L-9128.77,-11982.7 L-6628.79,-11982.7 L-6628.77,-11982.7 L-6624.97,-11982 L-6624.93,-11982 L-6621.72,-11979.8 L-6621.69,-11979.8 L-6619.55,-11976.6 L-6619.53,-11976.5 L-6618.78,-11972.7 L-6618.78,-11972.7 L-6618.78,-10597.1 L-6618.78,-10597 L-6618.78,-10597 L-6619.53,-10593.2 L-6619.55,-10593.1 L-6621.69,-10589.9 L-6621.72,-10589.9 L-6624.93,-10587.8 L-6624.97,-10587.7 L-6628.76,-10587 L-6628.8,-10587 L-6628.89,-10587 L-6632.58,-10587.7 L-6632.62,-10587.8 L-6633.76,-10588.5 L-6635.83,-10589.9 L-6635.86,-10589.9 L-6638,-10593.1 L-6638.02,-10593.2 L-6638.78,-10597 L-6638.78,-10597 L-6638.78,-11962.6 L-6638.92,-11962.7 L-9118.64,-11962.7 L-9118.78,-11962.6 L-9118.78,-10597 L-9118.78,-10597 L-9119.53,-10593.2 L-9119.55,-10593.1 L-9120.74,-10591.4 L-9121.69,-10589.9 L-9121.72,-10589.9 L-9124.93,-10587.8 L-9124.97,-10587.7 L-9128.66,-10587 L-9128.76,-10587 L-9128.8,-10587 L-9132.58,-10587.7 L-9132.62,-10587.8 L-9135.83,-10589.9 L-9135.86,-10589.9 L-9138,-10593.1 L-9138.02,-10593.2 L-9138.78,-10597 L-9138.78,-10597 L-9138.78,-10597.1 L-9138.78,-11972.7 M-2645.83,-8658.98 L-2578.66,-8726.16 L-2155.31,-8302.82 L-2094.41,-8241.91 L-2168.65,-8167.66 L-2235.83,-8100.49 L-2666.65,-8531.31 L-2666.65,-8638.17 L-2652.9,-8651.91 L-2645.83,-8658.98"/>
</g>

<g fill="none" stroke="#000000" stroke-opacity="1" stroke-width="1" stroke-linecap="square" stroke-linejoin="bevel" transform="matrix(0.999982,0,0,-0.999982,14919.6,13528.3)"
font-family="MS Shell Dlg 2" font-size="10.3125" font-weight="400" font-style="normal" 
>
</g>

<g fill="none" stroke="#000000" stroke-opacity="1" stroke-width="1" stroke-linecap="square" stroke-linejoin="bevel" transform="matrix(0.999982,0,0,-0.999982,14919.6,13528.3)"
font-family="MS Shell Dlg 2" font-size="10.3125" font-weight="400" font-style="normal" 
>
</g>

<g fill="#ffff00" fill-opacity="0.2" stroke="#333333" stroke-opacity="1" stroke-width="1" stroke-linecap="round" stroke-linejoin="round" transform="matrix(0.999982,0,0,-0.999982,14919.6,13528.3)"
font-family="MS Shell Dlg 2" font-size="10.3125" font-weight="400" font-style="normal" 
>
<path vector-effect="non-scaling-stroke" fill-rule="evenodd" d="M-6128.78,-27094.8 L-6128.79,-27094.9 L-7878.67,-31319.5 L-7878.78,-31319.6 L-7878.88,-31319.5 L-9628.77,-27094.9 L-9628.78,-27094.8 L-9628.78,-27094.7 L-9628.78,-25195 L-9628.78,-25099.9 L-9628.78,-24994.7 L-9628.78,-24989.9 L-9628.78,-20559.2 L-9628.81,-20559.1 L-12020.1,-18167.8 L-12087.4,-18100.5 L-12165.2,-18022.7 L-12090.9,-17948.5 L-12090.9,-15097 L-13020.1,-14167.8 L-13094.4,-14093.5 L-13165.2,-14022.7 L-13090.9,-13948.5 L-13090.9,-12957.5 L-14919.3,-11901.9 L-14919.3,-11901.8 L-14919.3,-7551.47 L-14919.3,-7551.36 L-14636.6,-7268.66 L-14569.3,-7201.39 L-14562.2,-7194.32 L-14537.7,-7169.74 L-14495,-7127.04 L-14491.5,-7123.61 L-14212.3,-6844.34 L-14212.2,-6844.3 L-13090.9,-6844.3 L-13090.9,-3821.22 L-13165.2,-3746.97 L-13094.4,-3676.26 L-13020.2,-3602.02 L-13020.2,-3602.01 L-13052.6,-3580.35 L-13052.7,-3580.34 L-13090.8,-3572.75 L-13090.9,-3572.61 L-13090.9,-3472.87 L-13090.9,-3367.73 L-13090.9,-3267.73 L-13090.9,13527.1 L-13090.8,13527.3 L-2666.79,13527.3 L-2666.65,13527.1 L-2666.65,-3272.59 L-2666.65,-3367.73 L-2666.65,-3472.87 L-2666.65,-3477.73 L-2666.65,-3572.61 L-2666.76,-3572.75 L-2704.89,-3580.34 L-2704.93,-3580.35 L-2737.35,-3602.01 L-2737.36,-3602.02 L-2695.1,-3644.27 L-2670.18,-3669.19 L-2663.11,-3676.26 L-2632.21,-3707.16 L-2592.4,-3746.97 L-2666.65,-3821.22 L-2666.65,-6844.3 L-1545.39,-6844.3 L-1545.28,-6844.34 L-1262.58,-7127.04 L-1195.31,-7194.32 L-1188.24,-7201.39 L-1117.53,-7272.1 L-838.261,-7551.36 L-838.218,-7551.47 L-838.218,-11901.8 L-838.291,-11901.9 L-2666.65,-12957.5 L-2666.65,-13948.5 L-2592.4,-14022.7 L-2670.18,-14100.5 L-2740.89,-14171.2 L-3666.65,-15097 L-3666.65,-17948.5 L-3592.4,-18022.7 L-3670.18,-18100.5 L-3740.89,-18171.2 L-6128.75,-20559.1 L-6128.78,-20559.2 L-6128.78,-24994.7 L-6128.78,-25094.9 L-6128.78,-25099.9 L-6128.78,-25199.9 L-6128.78,-27094.7 L-6128.78,-27094.8 M-11650.6,-5120.13 L-11717.8,-5187.3 L-11302.1,-5602.97 L-11331.9,-5290.35 L-11576.3,-5045.88 L-11643.5,-5113.05 L-11650.6,-5120.13 M-4114.04,-5113.05 L-4181.22,-5045.88 L-4425.69,-5290.35 L-4455.47,-5602.97 L-4039.8,-5187.3 L-4106.97,-5120.13 L-4114.04,-5113.05 M-11628.8,-2272.73 L-11628.8,-2177.73 L-11628.8,-2167.73 L-11628.8,-2072.59 L-11628.8,-2067.73 L-11628.8,827.131 L-11628.6,827.273 L-8628.92,827.273 L-8628.78,827.131 L-8628.78,-2072.59 L-8628.78,-2177.73 L-8628.78,-2272.73 L-8628.77,-2272.73 L-8619.58,-2270.9 L-8619.42,-2271.02 L-8619.25,-2272.73 L-8378.88,-2272.73 L-8378.78,-2272.63 L-8378.78,8527.26 L-8378.78,8527.28 L-8128.8,10027.2 L-8128.9,10027.3 L-8378.64,10027.3 L-8378.78,10027.4 L-8378.78,12527.2 L-8378.88,12527.3 L-11878.7,12527.3 L-11878.8,12527.2 L-11878.8,10027.4 L-11878.9,10027.3 L-12128.7,10027.3 L-12128.8,10027.2 L-11878.8,8527.28 L-11878.8,8527.26 L-11878.8,-2272.63 L-11878.7,-2272.73 L-11628.8,-2272.73 M-8524.02,-3272.73 L-8504.97,-3472.73 L-7252.59,-3472.73 L-7233.54,-3272.73 L-8524.02,-3272.73 M-7138.3,-2272.73 L-7138.14,-2271.02 L-7137.97,-2270.9 L-7128.79,-2272.73 L-7128.78,-2272.73 L-7128.78,-2177.73 L-7128.78,-2167.73 L-7128.78,-2072.59 L-7128.78,-2067.73 L-7128.78,827.131 L-7128.64,827.273 L-4128.92,827.273 L-4128.78,827.131 L-4128.78,-2072.59 L-4128.78,-2177.73 L-4128.78,-2272.73 L-3878.88,-2272.73 L-3878.78,-2272.63 L-3878.78,8527.26 L-3878.78,8527.28 L-3628.8,10027.2 L-3628.9,10027.3 L-3878.64,10027.3 L-3878.78,10027.4 L-3878.78,12527.2 L-3878.88,12527.3 L-7378.68,12527.3 L-7378.78,12527.2 L-7378.78,10027.4 L-7378.92,10027.3 L-7628.66,10027.3 L-7628.76,10027.2 L-7378.78,8527.28 L-7378.78,8527.26 L-7378.78,-2272.63 L-7378.68,-2272.73 L-7138.3,-2272.73 M-10643.5,-16656.7 L-10576.3,-16723.8 L-10520.2,-16667.7 L-10614.3,-16573.6 L-10641.6,-16546.3 L-10661.6,-16526.3 L-10717.8,-16582.4 L-10650.6,-16649.6 L-10643.5,-16656.7 M-5237.36,-16667.7 L-5181.22,-16723.8 L-5114.04,-16656.7 L-5106.97,-16649.6 L-5039.8,-16582.4 L-5095.93,-16526.3 L-5237.36,-16667.7 M-5329.97,-2072.73 L-5927.58,-2072.73 L-5927.58,-2167.73 L-5927.58,-2177.73 L-5927.58,-2272.73 L-5329.97,-2272.73 L-5329.97,-2167.73 L-5329.97,-2072.73 M-9829.97,-2072.73 L-10427.6,-2072.73 L-10427.6,-2167.73 L-10427.6,-2177.73 L-10427.6,-2272.73 L-9829.97,-2272.73 L-9829.97,-2177.73 L-9829.97,-2167.73 L-9829.97,-2072.73 M-9590.91,-8572.73 L-9229.97,-8572.73 L-9229.97,-8477.73 L-9229.97,-8372.73 L-9590.91,-8372.73 L-9590.91,-8572.73 M-6527.58,-8572.73 L-6166.65,-8572.73 L-6166.65,-8372.73 L-6527.58,-8372.73 L-6527.58,-8477.73 L-6527.58,-8572.73 M-6166.65,-9572.73 L-6337.24,-9572.73 L-6337.24,-9667.73 L-6337.24,-9677.73 L-6337.24,-9772.73 L-6166.65,-9772.73 L-6166.65,-9572.73 M-9420.31,-9572.73 L-9590.91,-9572.73 L-9590.91,-9772.73 L-9420.31,-9772.73 L-9420.31,-9677.73 L-9420.31,-9667.73 L-9420.31,-9572.73 M-13090.9,-8531.31 L-13521.7,-8100.49 L-13588.9,-8167.66 L-13663.1,-8241.91 L-13227.3,-8677.73 L-13178.9,-8726.16 L-13111.7,-8658.98 L-13104.7,-8651.91 L-13090.9,-8638.17 L-13090.9,-8531.31 M-9138.78,-11972.7 L-9138.78,-11972.7 L-9138.02,-11976.5 L-9138,-11976.6 L-9135.86,-11979.8 L-9135.83,-11979.8 L-9132.62,-11982 L-9132.58,-11982 L-9128.79,-11982.7 L-9128.77,-11982.7 L-6628.79,-11982.7 L-6628.77,-11982.7 L-6624.97,-11982 L-6624.93,-11982 L-6621.72,-11979.8 L-6621.69,-11979.8 L-6619.55,-11976.6 L-6619.53,-11976.5 L-6618.78,-11972.7 L-6618.78,-11972.7 L-6618.78,-10597.1 L-6618.78,-10597 L-6618.78,-10597 L-6619.53,-10593.2 L-6619.55,-10593.1 L-6621.69,-10589.9 L-6621.72,-10589.9 L-6624.93,-10587.8 L-6624.97,-10587.7 L-6628.76,-10587 L-6628.8,-10587 L-6628.89,-10587 L-6632.58,-10587.7 L-6632.62,-10587.8 L-6633.76,-10588.5 L-6635.83,-10589.9 L-6635.86,-10589.9 L-6638,-10593.1 L-6638.02,-10593.2 L-6638.78,-10597 L-6638.78,-10597 L-6638.78,-11962.6 L-6638.92,-11962.7 L-9118.64,-11962.7 L-9118.78,-11962.6 L-9118.78,-10597 L-9118.78,-10597 L-9119.53,-10593.2 L-9119.55,-10593.1 L-9120.74,-10591.4 L-9121.69,-10589.9 L-9121.72,-10589.9 L-9124.93,-10587.8 L-9124.97,-10587.7 L-9128.66,-10587 L-9128.76,-10587 L-9128.8,-10587 L-9132.58,-10587.7 L-9132.62,-10587.8 L-9135.83,-10589.9 L-9135.86,-10589.9 L-9138,-10593.1 L-9138.02,-10593.2 L-9138.78,-10597 L-9138.78,-10597 L-9138.78,-10597.1 L-9138.78,-11972.7 M-2645.83,-8658.98 L-2578.66,-8726.16 L-2155.31,-8302.82 L-2094.41,-8241.91 L-2168.65,-8167.66 L-2235.83,-8100.49 L-2666.65,-8531.31 L-2666.65,-8638.17 L-2652.9,-8651.91 L-2645.83,-8658.98"/>
</g>

<g fill="none" stroke="#000000" stroke-opacity="1" stroke-width="1" stroke-linecap="square" stroke-linejoin="bevel" transform="matrix(0.999982,0,0,-0.999982,14919.6,13528.3)"
font-family="MS Shell Dlg 2" font-size="10.3125" font-weight="400" font-style="normal" 
>
</g>

<g fill="none" stroke="#000000" stroke-opacity="1" stroke-width="1" stroke-linecap="square" stroke-linejoin="bevel" transform="matrix(0.999982,0,0,-0.999982,14919.6,13528.3)"
font-family="MS Shell Dlg 2" font-size="10.3125" font-weight="400" font-style="normal" 
>
</g>

<g fill="#ae5151" fill-opacity="0.2" stroke="#333333" stroke-opacity="1" stroke-width="1" stroke-linecap="round" stroke-linejoin="round" transform="matrix(0.999982,0,0,-0.999982,14919.6,13528.3)"
font-family="MS Shell Dlg 2" font-size="10.3125" font-weight="400" font-style="normal" 
>
<path vector-effect="non-scaling-stroke" fill-rule="evenodd" d="M-6128.78,-27094.8 L-6128.79,-27094.9 L-7878.67,-31319.5 L-7878.78,-31319.6 L-7878.88,-31319.5 L-9628.77,-27094.9 L-9628.78,-27094.8 L-9628.78,-27094.7 L-9628.78,-25195 L-9628.78,-25099.9 L-9628.78,-24994.7 L-9628.78,-24989.9 L-9628.78,-20559.2 L-9628.81,-20559.1 L-12020.1,-18167.8 L-12087.4,-18100.5 L-12165.2,-18022.7 L-12090.9,-17948.5 L-12090.9,-15097 L-13020.1,-14167.8 L-13094.4,-14093.5 L-13165.2,-14022.7 L-13090.9,-13948.5 L-13090.9,-12957.5 L-14919.3,-11901.9 L-14919.3,-11901.8 L-14919.3,-7551.47 L-14919.3,-7551.36 L-14636.6,-7268.66 L-14569.3,-7201.39 L-14562.2,-7194.32 L-14537.7,-7169.74 L-14495,-7127.04 L-14491.5,-7123.61 L-14212.3,-6844.34 L-14212.2,-6844.3 L-13090.9,-6844.3 L-13090.9,-3821.22 L-13165.2,-3746.97 L-13094.4,-3676.26 L-13020.2,-3602.02 L-13020.2,-3602.01 L-13052.6,-3580.35 L-13052.7,-3580.34 L-13090.8,-3572.75 L-13090.9,-3572.61 L-13090.9,-3472.87 L-13090.9,-3367.73 L-13090.9,-3267.73 L-13090.9,13527.1 L-13090.8,13527.3 L-2666.79,13527.3 L-2666.65,13527.1 L-2666.65,-3272.59 L-2666.65,-3367.73 L-2666.65,-3472.87 L-2666.65,-3477.73 L-2666.65,-3572.61 L-2666.76,-3572.75 L-2704.89,-3580.34 L-2704.93,-3580.35 L-2737.35,-3602.01 L-2737.36,-3602.02 L-2695.1,-3644.27 L-2670.18,-3669.19 L-2663.11,-3676.26 L-2632.21,-3707.16 L-2592.4,-3746.97 L-2666.65,-3821.22 L-2666.65,-6844.3 L-1545.39,-6844.3 L-1545.28,-6844.34 L-1262.58,-7127.04 L-1195.31,-7194.32 L-1188.24,-7201.39 L-1117.53,-7272.1 L-838.261,-7551.36 L-838.218,-7551.47 L-838.218,-11901.8 L-838.291,-11901.9 L-2666.65,-12957.5 L-2666.65,-13948.5 L-2592.4,-14022.7 L-2670.18,-14100.5 L-2740.89,-14171.2 L-3666.65,-15097 L-3666.65,-17948.5 L-3592.4,-18022.7 L-3670.18,-18100.5 L-3740.89,-18171.2 L-6128.75,-20559.1 L-6128.78,-20559.2 L-6128.78,-24994.7 L-6128.78,-25094.9 L-6128.78,-25099.9 L-6128.78,-25199.9 L-6128.78,-27094.7 L-6128.78,-27094.8 M-11650.6,-5120.13 L-11717.8,-5187.3 L-11302.1,-5602.97 L-11331.9,-5290.35 L-11576.3,-5045.88 L-11643.5,-5113.05 L-11650.6,-5120.13 M-4114.04,-5113.05 L-4181.22,-5045.88 L-4425.69,-5290.35 L-4455.47,-5602.97 L-4039.8,-5187.3 L-4106.97,-5120.13 L-4114.04,-5113.05 M-11628.8,-2272.73 L-11628.8,-2177.73 L-11628.8,-2167.73 L-11628.8,-2072.59 L-11628.8,-2067.73 L-11628.8,827.131 L-11628.6,827.273 L-8628.92,827.273 L-8628.78,827.131 L-8628.78,-2072.59 L-8628.78,-2177.73 L-8628.78,-2272.73 L-8628.77,-2272.73 L-8619.58,-2270.9 L-8619.42,-2271.02 L-8619.25,-2272.73 L-8378.88,-2272.73 L-8378.78,-2272.63 L-8378.78,8527.26 L-8378.78,8527.28 L-8128.8,10027.2 L-8128.9,10027.3 L-8378.64,10027.3 L-8378.78,10027.4 L-8378.78,12527.2 L-8378.88,12527.3 L-11878.7,12527.3 L-11878.8,12527.2 L-11878.8,10027.4 L-11878.9,10027.3 L-12128.7,10027.3 L-12128.8,10027.2 L-11878.8,8527.28 L-11878.8,8527.26 L-11878.8,-2272.63 L-11878.7,-2272.73 L-11628.8,-2272.73 M-8524.02,-3272.73 L-8504.97,-3472.73 L-7252.59,-3472.73 L-7233.54,-3272.73 L-8524.02,-3272.73 M-7138.3,-2272.73 L-7138.14,-2271.02 L-7137.97,-2270.9 L-7128.79,-2272.73 L-7128.78,-2272.73 L-7128.78,-2177.73 L-7128.78,-2167.73 L-7128.78,-2072.59 L-7128.78,-2067.73 L-7128.78,827.131 L-7128.64,827.273 L-4128.92,827.273 L-4128.78,827.131 L-4128.78,-2072.59 L-4128.78,-2177.73 L-4128.78,-2272.73 L-3878.88,-2272.73 L-3878.78,-2272.63 L-3878.78,8527.26 L-3878.78,8527.28 L-3628.8,10027.2 L-3628.9,10027.3 L-3878.64,10027.3 L-3878.78,10027.4 L-3878.78,12527.2 L-3878.88,12527.3 L-7378.68,12527.3 L-7378.78,12527.2 L-7378.78,10027.4 L-7378.92,10027.3 L-7628.66,10027.3 L-7628.76,10027.2 L-7378.78,8527.28 L-7378.78,8527.26 L-7378.78,-2272.63 L-7378.68,-2272.73 L-7138.3,-2272.73 M-10643.5,-16656.7 L-10576.3,-16723.8 L-10520.2,-16667.7 L-10614.3,-16573.6 L-10641.6,-16546.3 L-10661.6,-16526.3 L-10717.8,-16582.4 L-10650.6,-16649.6 L-10643.5,-16656.7 M-5237.36,-16667.7 L-5181.22,-16723.8 L-5114.04,-16656.7 L-5106.97,-16649.6 L-5039.8,-16582.4 L-5095.93,-16526.3 L-5237.36,-16667.7 M-5329.97,-2072.73 L-5927.58,-2072.73 L-5927.58,-2167.73 L-5927.58,-2177.73 L-5927.58,-2272.73 L-5329.97,-2272.73 L-5329.97,-2167.73 L-5329.97,-2072.73 M-9829.97,-2072.73 L-10427.6,-2072.73 L-10427.6,-2167.73 L-10427.6,-2177.73 L-10427.6,-2272.73 L-9829.97,-2272.73 L-9829.97,-2177.73 L-9829.97,-2167.73 L-9829.97,-2072.73 M-9590.91,-8572.73 L-9229.97,-8572.73 L-9229.97,-8477.73 L-9229.97,-8372.73 L-9590.91,-8372.73 L-9590.91,-8572.73 M-6527.58,-8572.73 L-6166.65,-8572.73 L-6166.65,-8372.73 L-6527.58,-8372.73 L-6527.58,-8477.73 L-6527.58,-8572.73 M-6166.65,-9572.73 L-6337.24,-9572.73 L-6337.24,-9667.73 L-6337.24,-9677.73 L-6337.24,-9772.73 L-6166.65,-9772.73 L-6166.65,-9572.73 M-9420.31,-9572.73 L-9590.91,-9572.73 L-9590.91,-9772.73 L-9420.31,-9772.73 L-9420.31,-9677.73 L-9420.31,-9667.73 L-9420.31,-9572.73 M-13090.9,-8531.31 L-13521.7,-8100.49 L-13588.9,-8167.66 L-13663.1,-8241.91 L-13227.3,-8677.73 L-13178.9,-8726.16 L-13111.7,-8658.98 L-13104.7,-8651.91 L-13090.9,-8638.17 L-13090.9,-8531.31 M-9138.78,-11972.7 L-9138.78,-11972.7 L-9138.02,-11976.5 L-9138,-11976.6 L-9135.86,-11979.8 L-9135.83,-11979.8 L-9132.62,-11982 L-9132.58,-11982 L-9128.79,-11982.7 L-9128.77,-11982.7 L-6628.79,-11982.7 L-6628.77,-11982.7 L-6624.97,-11982 L-6624.93,-11982 L-6621.72,-11979.8 L-6621.69,-11979.8 L-6619.55,-11976.6 L-6619.53,-11976.5 L-6618.78,-11972.7 L-6618.78,-11972.7 L-6618.78,-10597.1 L-6618.78,-10597 L-6618.78,-10597 L-6619.53,-10593.2 L-6619.55,-10593.1 L-6621.69,-10589.9 L-6621.72,-10589.9 L-6624.93,-10587.8 L-6624.97,-10587.7 L-6628.76,-10587 L-6628.8,-10587 L-6628.89,-10587 L-6632.58,-10587.7 L-6632.62,-10587.8 L-6633.76,-10588.5 L-6635.83,-10589.9 L-6635.86,-10589.9 L-6638,-10593.1 L-6638.02,-10593.2 L-6638.78,-10597 L-6638.78,-10597 L-6638.78,-11962.6 L-6638.92,-11962.7 L-9118.64,-11962.7 L-9118.78,-11962.6 L-9118.78,-10597 L-9118.78,-10597 L-9119.53,-10593.2 L-9119.55,-10593.1 L-9120.74,-10591.4 L-9121.69,-10589.9 L-9121.72,-10589.9 L-9124.93,-10587.8 L-9124.97,-10587.7 L-9128.66,-10587 L-9128.76,-10587 L-9128.8,-10587 L-9132.58,-10587.7 L-9132.62,-10587.8 L-9135.83,-10589.9 L-9135.86,-10589.9 L-9138,-10593.1 L-9138.02,-10593.2 L-9138.78,-10597 L-9138.78,-10597 L-9138.78,-10597.1 L-9138.78,-11972.7 M-2645.83,-8658.98 L-2578.66,-8726.16 L-2155.31,-8302.82 L-2094.41,-8241.91 L-2168.65,-8167.66 L-2235.83,-8100.49 L-2666.65,-8531.31 L-2666.65,-8638.17 L-2652.9,-8651.91 L-2645.83,-8658.98"/>
</g>

<g fill="none" stroke="#000000" stroke-opacity="1" stroke-width="1" stroke-linecap="square" stroke-linejoin="bevel" transform="matrix(0.999982,0,0,-0.999982,14919.6,13528.3)"
font-family="MS Shell Dlg 2" font-size="10.3125" font-weight="400" font-style="normal" 
>
</g>

<g fill="none" stroke="#000000" stroke-opacity="1" stroke-width="1" stroke-linecap="square" stroke-linejoin="bevel" transform="matrix(0.999982,0,0,-0.999982,14919.6,13528.3)"
font-family="MS Shell Dlg 2" font-size="10.3125" font-weight="400" font-style="normal" 
>
</g>

<g fill="#333333" fill-opacity="0.2" stroke="#333333" stroke-opacity="1" stroke-width="1" stroke-linecap="round" stroke-linejoin="round" transform="matrix(0.999982,0,0,-0.999982,14919.6,13528.3)"
font-family="MS Shell Dlg 2" font-size="10.3125" font-weight="400" font-style="normal" 
>
<path vector-effect="non-scaling-stroke" fill-rule="evenodd" d="M-6128.78,-27094.8 L-6128.79,-27094.9 L-7878.67,-31319.5 L-7878.78,-31319.6 L-7878.88,-31319.5 L-9628.77,-27094.9 L-9628.78,-27094.8 L-9628.78,-27094.7 L-9628.78,-25195 L-9628.78,-25099.9 L-9628.78,-24994.7 L-9628.78,-24989.9 L-9628.78,-20559.2 L-9628.81,-20559.1 L-12020.1,-18167.8 L-12087.4,-18100.5 L-12165.2,-18022.7 L-12090.9,-17948.5 L-12090.9,-15097 L-13020.1,-14167.8 L-13094.4,-14093.5 L-13165.2,-14022.7 L-13090.9,-13948.5 L-13090.9,-12957.5 L-14919.3,-11901.9 L-14919.3,-11901.8 L-14919.3,-7551.47 L-14919.3,-7551.36 L-14636.6,-7268.66 L-14569.3,-7201.39 L-14562.2,-7194.32 L-14537.7,-7169.74 L-14495,-7127.04 L-14491.5,-7123.61 L-14212.3,-6844.34 L-14212.2,-6844.3 L-13090.9,-6844.3 L-13090.9,-3821.22 L-13165.2,-3746.97 L-13094.4,-3676.26 L-13020.2,-3602.02 L-13020.2,-3602.01 L-13052.6,-3580.35 L-13052.7,-3580.34 L-13090.8,-3572.75 L-13090.9,-3572.61 L-13090.9,-3472.87 L-13090.9,-3367.73 L-13090.9,-3267.73 L-13090.9,13527.1 L-13090.8,13527.3 L-2666.79,13527.3 L-2666.65,13527.1 L-2666.65,-3272.59 L-2666.65,-3367.73 L-2666.65,-3472.87 L-2666.65,-3477.73 L-2666.65,-3572.61 L-2666.76,-3572.75 L-2704.89,-3580.34 L-2704.93,-3580.35 L-2737.35,-3602.01 L-2737.36,-3602.02 L-2695.1,-3644.27 L-2670.18,-3669.19 L-2663.11,-3676.26 L-2632.21,-3707.16 L-2592.4,-3746.97 L-2666.65,-3821.22 L-2666.65,-6844.3 L-1545.39,-6844.3 L-1545.28,-6844.34 L-1262.58,-7127.04 L-1195.31,-7194.32 L-1188.24,-7201.39 L-1117.53,-7272.1 L-838.261,-7551.36 L-838.218,-7551.47 L-838.218,-11901.8 L-838.291,-11901.9 L-2666.65,-12957.5 L-2666.65,-13948.5 L-2592.4,-14022.7 L-2670.18,-14100.5 L-2740.89,-14171.2 L-3666.65,-15097 L-3666.65,-17948.5 L-3592.4,-18022.7 L-3670.18,-18100.5 L-3740.89,-18171.2 L-6128.75,-20559.1 L-6128.78,-20559.2 L-6128.78,-24994.7 L-6128.78,-25094.9 L-6128.78,-25099.9 L-6128.78,-25199.9 L-6128.78,-27094.7 L-6128.78,-27094.8 M-11650.6,-5120.13 L-11717.8,-5187.3 L-11302.1,-5602.97 L-11331.9,-5290.35 L-11576.3,-5045.88 L-11643.5,-5113.05 L-11650.6,-5120.13 M-4114.04,-5113.05 L-4181.22,-5045.88 L-4425.69,-5290.35 L-4455.47,-5602.97 L-4039.8,-5187.3 L-4106.97,-5120.13 L-4114.04,-5113.05 M-11628.8,-2272.73 L-11628.8,-2177.73 L-11628.8,-2167.73 L-11628.8,-2072.59 L-11628.8,-2067.73 L-11628.8,827.131 L-11628.6,827.273 L-8628.92,827.273 L-8628.78,827.131 L-8628.78,-2072.59 L-8628.78,-2177.73 L-8628.78,-2272.73 L-8628.77,-2272.73 L-8619.58,-2270.9 L-8619.42,-2271.02 L-8619.25,-2272.73 L-8378.88,-2272.73 L-8378.78,-2272.63 L-8378.78,8527.26 L-8378.78,8527.28 L-8128.8,10027.2 L-8128.9,10027.3 L-8378.64,10027.3 L-8378.78,10027.4 L-8378.78,12527.2 L-8378.88,12527.3 L-11878.7,12527.3 L-11878.8,12527.2 L-11878.8,10027.4 L-11878.9,10027.3 L-12128.7,10027.3 L-12128.8,10027.2 L-11878.8,8527.28 L-11878.8,8527.26 L-11878.8,-2272.63 L-11878.7,-2272.73 L-11628.8,-2272.73 M-8524.02,-3272.73 L-8504.97,-3472.73 L-7252.59,-3472.73 L-7233.54,-3272.73 L-8524.02,-3272.73 M-7138.3,-2272.73 L-7138.14,-2271.02 L-7137.97,-2270.9 L-7128.79,-2272.73 L-7128.78,-2272.73 L-7128.78,-2177.73 L-7128.78,-2167.73 L-7128.78,-2072.59 L-7128.78,-2067.73 L-7128.78,827.131 L-7128.64,827.273 L-4128.92,827.273 L-4128.78,827.131 L-4128.78,-2072.59 L-4128.78,-2177.73 L-4128.78,-2272.73 L-3878.88,-2272.73 L-3878.78,-2272.63 L-3878.78,8527.26 L-3878.78,8527.28 L-3628.8,10027.2 L-3628.9,10027.3 L-3878.64,10027.3 L-3878.78,10027.4 L-3878.78,12527.2 L-3878.88,12527.3 L-7378.68,12527.3 L-7378.78,12527.2 L-7378.78,10027.4 L-7378.92,10027.3 L-7628.66,10027.3 L-7628.76,10027.2 L-7378.78,8527.28 L-7378.78,8527.26 L-7378.78,-2272.63 L-7378.68,-2272.73 L-7138.3,-2272.73 M-10643.5,-16656.7 L-10576.3,-16723.8 L-10520.2,-16667.7 L-10614.3,-16573.6 L-10641.6,-16546.3 L-10661.6,-16526.3 L-10717.8,-16582.4 L-10650.6,-16649.6 L-10643.5,-16656.7 M-5237.36,-16667.7 L-5181.22,-16723.8 L-5114.04,-16656.7 L-5106.97,-16649.6 L-5039.8,-16582.4 L-5095.93,-16526.3 L-5237.36,-16667.7 M-5329.97,-2072.73 L-5927.58,-2072.73 L-5927.58,-2167.73 L-5927.58,-2177.73 L-5927.58,-2272.73 L-5329.97,-2272.73 L-5329.97,-2167.73 L-5329.97,-2072.73 M-9829.97,-2072.73 L-10427.6,-2072.73 L-10427.6,-2167.73 L-10427.6,-2177.73 L-10427.6,-2272.73 L-9829.97,-2272.73 L-9829.97,-2177.73 L-9829.97,-2167.73 L-9829.97,-2072.73 M-9590.91,-8572.73 L-9229.97,-8572.73 L-9229.97,-8477.73 L-9229.97,-8372.73 L-9590.91,-8372.73 L-9590.91,-8572.73 M-6527.58,-8572.73 L-6166.65,-8572.73 L-6166.65,-8372.73 L-6527.58,-8372.73 L-6527.58,-8477.73 L-6527.58,-8572.73 M-6166.65,-9572.73 L-6337.24,-9572.73 L-6337.24,-9667.73 L-6337.24,-9677.73 L-6337.24,-9772.73 L-6166.65,-9772.73 L-6166.65,-9572.73 M-9420.31,-9572.73 L-9590.91,-9572.73 L-9590.91,-9772.73 L-9420.31,-9772.73 L-9420.31,-9677.73 L-9420.31,-9667.73 L-9420.31,-9572.73 M-13090.9,-8531.31 L-13521.7,-8100.49 L-13588.9,-8167.66 L-13663.1,-8241.91 L-13227.3,-8677.73 L-13178.9,-8726.16 L-13111.7,-8658.98 L-13104.7,-8651.91 L-13090.9,-8638.17 L-13090.9,-8531.31 M-9138.78,-11972.7 L-9138.78,-11972.7 L-9138.02,-11976.5 L-9138,-11976.6 L-9135.86,-11979.8 L-9135.83,-11979.8 L-9132.62,-11982 L-9132.58,-11982 L-9128.79,-11982.7 L-9128.77,-11982.7 L-6628.79,-11982.7 L-6628.77,-11982.7 L-6624.97,-11982 L-6624.93,-11982 L-6621.72,-11979.8 L-6621.69,-11979.8 L-6619.55,-11976.6 L-6619.53,-11976.5 L-6618.78,-11972.7 L-6618.78,-11972.7 L-6618.78,-10597.1 L-6618.78,-10597 L-6618.78,-10597 L-6619.53,-10593.2 L-6619.55,-10593.1 L-6621.69,-10589.9 L-6621.72,-10589.9 L-6624.93,-10587.8 L-6624.97,-10587.7 L-6628.76,-10587 L-6628.8,-10587 L-6628.89,-10587 L-6632.58,-10587.7 L-6632.62,-10587.8 L-6633.76,-10588.5 L-6635.83,-10589.9 L-6635.86,-10589.9 L-6638,-10593.1 L-6638.02,-10593.2 L-6638.78,-10597 L-6638.78,-10597 L-6638.78,-11962.6 L-6638.92,-11962.7 L-9118.64,-11962.7 L-9118.78,-11962.6 L-9118.78,-10597 L-9118.78,-10597 L-9119.53,-10593.2 L-9119.55,-10593.1 L-9120.74,-10591.4 L-9121.69,-10589.9 L-9121.72,-10589.9 L-9124.93,-10587.8 L-9124.97,-10587.7 L-9128.66,-10587 L-9128.76,-10587 L-9128.8,-10587 L-9132.58,-10587.7 L-9132.62,-10587.8 L-9135.83,-10589.9 L-9135.86,-10589.9 L-9138,-10593.1 L-9138.02,-10593.2 L-9138.78,-10597 L-9138.78,-10597 L-9138.78,-10597.1 L-9138.78,-11972.7 M-2645.83,-8658.98 L-2578.66,-8726.16 L-2155.31,-8302.82 L-2094.41,-8241.91 L-2168.65,-8167.66 L-2235.83,-8100.49 L-2666.65,-8531.31 L-2666.65,-8638.17 L-2652.9,-8651.91 L-2645.83,-8658.98"/>
</g>

<g fill="none" stroke="#000000" stroke-opacity="1" stroke-width="1" stroke-linecap="square" stroke-linejoin="bevel" transform="matrix(0.999982,0,0,-0.999982,14919.6,13528.3)"
font-family="MS Shell Dlg 2" font-size="10.3125" font-weight="400" font-style="normal" 
>
</g>

<g fill="none" stroke="#000000" stroke-opacity="1" stroke-width="1" stroke-linecap="square" stroke-linejoin="bevel" transform="matrix(1,0,0,-1,0,44847.8)"
font-family="MS Shell Dlg 2" font-size="10.3125" font-weight="400" font-style="normal" 
>
</g>
</g>
</svg>
