<?xml version="1.0" encoding="UTF-8" standalone="no"?>
<svg width="3491.09mm" height="614.116mm"
 xmlns="http://www.w3.org/2000/svg" xmlns:xlink="http://www.w3.org/1999/xlink"  version="1.2" baseProfile="tiny">
<title>SVG Generator Example Drawing</title>
<desc>An SVG drawing created by the SVG Generator</desc>
<defs>
</defs>
<g fill="none" stroke="black" stroke-width="1" fill-rule="evenodd" stroke-linecap="square" stroke-linejoin="bevel" >

<g fill="none" stroke="#000000" stroke-opacity="1" stroke-width="1" stroke-linecap="square" stroke-linejoin="bevel" transform="matrix(1,0,0,-1,0,2176.83)"
font-family="MS Shell Dlg 2" font-size="10.3125" font-weight="400" font-style="normal" 
>
</g>

<g fill="none" stroke="#000000" stroke-opacity="1" stroke-width="1" stroke-linecap="square" stroke-linejoin="bevel" transform="matrix(1,0,0,-1,0,2176.83)"
font-family="MS Shell Dlg 2" font-size="10.3125" font-weight="400" font-style="normal" 
>
</g>

<g fill="none" stroke="#000000" stroke-opacity="1" stroke-width="1" stroke-linecap="square" stroke-linejoin="bevel" transform="matrix(0.999617,0,0,-0.999617,13448.7,-1297.89)"
font-family="MS Shell Dlg 2" font-size="10.3125" font-weight="400" font-style="normal" 
>
</g>

<g fill="#808080" fill-opacity="0.2" stroke="#333333" stroke-opacity="1" stroke-width="1" stroke-linecap="round" stroke-linejoin="round" transform="matrix(0.999617,0,0,-0.999617,13448.7,-1297.89)"
font-family="MS Shell Dlg 2" font-size="10.3125" font-weight="400" font-style="normal" 
>
<path vector-effect="non-scaling-stroke" fill-rule="evenodd" d="M-13009.1,-1558.89 L-13009.1,-2863.47 L-12282.9,-2863.47 L-12282.9,-2428.89 L-12279,-2395.35 L-12267.5,-2373.06 L-12249.4,-2360.25 L-12226.6,-2355.97 L-12205.3,-2360.04 L-12187.9,-2372.22 L-12176,-2394.52 L-12172.1,-2428.89 L-12172.1,-2973.06 L-13380.4,-2973.06 L-13414,-2969.2 L-13436.6,-2957.64 L-13449.1,-2939.93 L-13453.3,-2918.47 L-13449.1,-2895.97 L-13436.6,-2878.47 L-13414,-2867.22 L-13380.4,-2863.47 L-13120,-2863.47 L-13120,-1558.89 L-13380.4,-1558.89 L-13414,-1555.14 L-13436.6,-1543.89 L-13449.1,-1526.5 L-13453.3,-1504.31 L-13449.1,-1482.12 L-13436.6,-1464.72 L-13414,-1453.47 L-13380.4,-1449.72 L-12748.7,-1449.72 L-12715.4,-1453.47 L-12692.9,-1464.72 L-12680.1,-1482.12 L-12675.8,-1504.31 L-12680.1,-1526.5 L-12692.9,-1543.89 L-12715.4,-1555.14 L-12748.7,-1558.89 L-13009.1,-1558.89"/>
</g>

<g fill="none" stroke="#000000" stroke-opacity="1" stroke-width="1" stroke-linecap="square" stroke-linejoin="bevel" transform="matrix(0.999617,0,0,-0.999617,13448.7,-1297.89)"
font-family="MS Shell Dlg 2" font-size="10.3125" font-weight="400" font-style="normal" 
>
</g>

<g fill="none" stroke="#000000" stroke-opacity="1" stroke-width="1" stroke-linecap="square" stroke-linejoin="bevel" transform="matrix(0.999617,0,0,-0.999617,13448.7,-1297.89)"
font-family="MS Shell Dlg 2" font-size="10.3125" font-weight="400" font-style="normal" 
>
</g>

<g fill="#808080" fill-opacity="0.2" stroke="#333333" stroke-opacity="1" stroke-width="1" stroke-linecap="round" stroke-linejoin="round" transform="matrix(0.999617,0,0,-0.999617,13448.7,-1297.89)"
font-family="MS Shell Dlg 2" font-size="10.3125" font-weight="400" font-style="normal" 
>
<path vector-effect="non-scaling-stroke" fill-rule="evenodd" d="M-1393.57,-2083.89 L-1260.35,-2164 L-1163.16,-2269.31 L-1103.47,-2389.62 L-1083.57,-2514.72 L-1123.47,-2699.83 L-1243.16,-2861.81 L-1422.43,-2974.62 L-1641.91,-3012.22 L-1785.35,-2997.22 L-1933.99,-2952.22 L-2062.12,-2891.6 L-2144.82,-2829.72 L-2159.51,-2808.27 L-2164.41,-2785.56 L-2160.66,-2766.08 L-2149.41,-2749.31 L-2132.95,-2737.43 L-2113.57,-2733.47 L-2091.39,-2738.37 L-2066.49,-2753.06 L-1858.89,-2865.25 L-1639.41,-2902.64 L-1464.82,-2872.85 L-1321.07,-2783.47 L-1224.82,-2657.64 L-1192.74,-2518.47 L-1208.57,-2421.91 L-1256.07,-2327.22 L-1332.95,-2243.47 L-1437.74,-2179.72 L-1556.8,-2139.1 L-1677.32,-2125.56 L-1710.97,-2121.81 L-1733.57,-2110.56 L-1746.07,-2093.06 L-1750.24,-2070.56 L-1746.18,-2049.2 L-1733.99,-2031.81 L-1713.68,-2019.93 L-1685.24,-2015.97 L-1591.49,-2017.22 L-1457.01,-1994.83 L-1348.57,-1927.64 L-1276.7,-1830.56 L-1252.74,-1719.31 L-1277.85,-1604 L-1353.16,-1503.06 L-1468.57,-1432.75 L-1614.82,-1409.31 L-1723.57,-1419.1 L-1823.16,-1448.47 L-1908.68,-1494.52 L-1975.24,-1555.14 L-1993.68,-1575.97 L-2007.32,-1586.81 L-2019.3,-1591.18 L-2032.74,-1592.64 L-2053.26,-1589 L-2070.66,-1578.06 L-2082.22,-1561.6 L-2086.07,-1542.22 L-2057.74,-1483.27 L-1972.74,-1410.56 L-1804.51,-1327.43 L-1614.82,-1299.72 L-1426.28,-1330.87 L-1274.82,-1424.31 L-1175.14,-1560.45 L-1141.91,-1720.56 L-1157.95,-1826.91 L-1206.07,-1927.64 L-1284.82,-2015.45 L-1393.57,-2083.89"/>
</g>

<g fill="none" stroke="#000000" stroke-opacity="1" stroke-width="1" stroke-linecap="square" stroke-linejoin="bevel" transform="matrix(0.999617,0,0,-0.999617,13448.7,-1297.89)"
font-family="MS Shell Dlg 2" font-size="10.3125" font-weight="400" font-style="normal" 
>
</g>

<g fill="none" stroke="#000000" stroke-opacity="1" stroke-width="1" stroke-linecap="square" stroke-linejoin="bevel" transform="matrix(0.999617,0,0,-0.999617,13448.7,-1297.89)"
font-family="MS Shell Dlg 2" font-size="10.3125" font-weight="400" font-style="normal" 
>
</g>

<g fill="#808080" fill-opacity="0.2" stroke="#333333" stroke-opacity="1" stroke-width="1" stroke-linecap="round" stroke-linejoin="round" transform="matrix(0.999617,0,0,-0.999617,13448.7,-1297.89)"
font-family="MS Shell Dlg 2" font-size="10.3125" font-weight="400" font-style="normal" 
>
<path vector-effect="non-scaling-stroke" fill-rule="evenodd" d="M-6549.77,-1845.56 L-6549.77,-2121.39 L-6363,-1963.16 L-6230.19,-1873.47 L-6128,-1831.91 L-6033.94,-1818.06 L-5939.88,-1834.52 L-5852.69,-1883.89 L-5789.56,-1941.7 L-5768.52,-1983.47 L-5772.59,-2005.97 L-5784.77,-2024.31 L-5803.11,-2036.5 L-5825.61,-2040.56 L-5837.59,-2039.52 L-5847.69,-2036.39 L-5860.81,-2026.7 L-5881.86,-2006.81 L-5924.36,-1968.58 L-5961.02,-1944.72 L-5994.56,-1931.91 L-6027.69,-1927.64 L-6106.44,-1942.02 L-6200.19,-1985.14 L-6338,-2083.58 L-6549.77,-2264.72 L-6549.77,-2863.47 L-6065.19,-2863.47 L-6030.71,-2867.22 L-6008.11,-2878.47 L-5995.29,-2895.97 L-5991.02,-2918.47 L-5995.29,-2939.93 L-6008.11,-2957.64 L-6030.71,-2969.2 L-6065.19,-2973.06 L-6923.52,-2973.06 L-6956.86,-2969.31 L-6979.36,-2958.06 L-6992.17,-2940.97 L-6996.44,-2919.72 L-6992.38,-2899.41 L-6980.19,-2882.64 L-6957.69,-2871.39 L-6923.52,-2867.64 L-6658.94,-2867.64 L-6658.94,-1955.97 L-6861.02,-1955.97 L-6894.36,-1952.12 L-6916.86,-1940.56 L-6929.67,-1922.54 L-6933.94,-1900.14 L-6929.88,-1878.79 L-6917.69,-1861.39 L-6895.19,-1849.52 L-6861.02,-1845.56 L-6549.77,-1845.56"/>
</g>

<g fill="none" stroke="#000000" stroke-opacity="1" stroke-width="1" stroke-linecap="square" stroke-linejoin="bevel" transform="matrix(0.999617,0,0,-0.999617,13448.7,-1297.89)"
font-family="MS Shell Dlg 2" font-size="10.3125" font-weight="400" font-style="normal" 
>
</g>

<g fill="none" stroke="#000000" stroke-opacity="1" stroke-width="1" stroke-linecap="square" stroke-linejoin="bevel" transform="matrix(0.999617,0,0,-0.999617,13448.7,-1297.89)"
font-family="MS Shell Dlg 2" font-size="10.3125" font-weight="400" font-style="normal" 
>
</g>

<g fill="#808080" fill-opacity="0.2" stroke="#333333" stroke-opacity="1" stroke-width="1" stroke-linecap="round" stroke-linejoin="round" transform="matrix(0.999617,0,0,-0.999617,13448.7,-1297.89)"
font-family="MS Shell Dlg 2" font-size="10.3125" font-weight="400" font-style="normal" 
>
<path vector-effect="non-scaling-stroke" fill-rule="evenodd" d="M-10905.1,-2973.06 L-10905.1,-2815.56 L-11151.6,-2965.87 L-11414.3,-3015.97 L-11589.5,-2991.08 L-11721.8,-2916.39 L-11804.6,-2805.56 L-11832.2,-2672.22 L-11795.8,-2523.58 L-11686.4,-2395.14 L-11507,-2306.08 L-11260.6,-2276.39 L-11181.9,-2278.89 L-11096.8,-2286.39 L-11004.5,-2298.79 L-10905.1,-2316.81 L-10905.1,-2139.72 L-10926,-2055.66 L-10988.5,-1983.47 L-11092.6,-1933.79 L-11238.5,-1917.22 L-11391.7,-1935.77 L-11596.4,-1991.39 L-11630.6,-2001.08 L-11649.7,-2004.31 L-11669.1,-2000.45 L-11685.6,-1988.89 L-11696.8,-1971.18 L-11700.6,-1949.72 L-11697.3,-1929.83 L-11687.6,-1914.31 L-11641.7,-1891.18 L-11540.6,-1860.97 L-11362,-1820.04 L-11233.1,-1806.39 L-11049.1,-1832.02 L-10910.6,-1908.89 L-10823.4,-2017.64 L-10794.3,-2139.72 L-10794.3,-2863.47 L-10648.5,-2863.47 L-10614,-2867.22 L-10591.4,-2878.47 L-10578.6,-2895.97 L-10574.3,-2918.47 L-10578.6,-2939.93 L-10591.4,-2957.64 L-10614,-2969.2 L-10648.5,-2973.06 L-10905.1,-2973.06 M-10905.1,-2428.89 L-10984.2,-2409.72 L-11068.1,-2396.39 L-11156.2,-2388.58 L-11248.9,-2385.97 L-11461.2,-2411.6 L-11621.4,-2488.47 L-11697.3,-2572.95 L-11722.6,-2672.22 L-11703.4,-2763.58 L-11645.6,-2839.31 L-11550.2,-2889.93 L-11419.3,-2906.81 L-11282.6,-2892.64 L-11156,-2850.14 L-11032.2,-2776.7 L-10905.1,-2669.72 L-10905.1,-2428.89"/>
</g>

<g fill="none" stroke="#000000" stroke-opacity="1" stroke-width="1" stroke-linecap="square" stroke-linejoin="bevel" transform="matrix(0.999617,0,0,-0.999617,13448.7,-1297.89)"
font-family="MS Shell Dlg 2" font-size="10.3125" font-weight="400" font-style="normal" 
>
</g>

<g fill="none" stroke="#000000" stroke-opacity="1" stroke-width="1" stroke-linecap="square" stroke-linejoin="bevel" transform="matrix(0.999617,0,0,-0.999617,13448.7,-1297.89)"
font-family="MS Shell Dlg 2" font-size="10.3125" font-weight="400" font-style="normal" 
>
</g>

<g fill="#808080" fill-opacity="0.2" stroke="#333333" stroke-opacity="1" stroke-width="1" stroke-linecap="round" stroke-linejoin="round" transform="matrix(0.999617,0,0,-0.999617,13448.7,-1297.89)"
font-family="MS Shell Dlg 2" font-size="10.3125" font-weight="400" font-style="normal" 
>
<path vector-effect="non-scaling-stroke" fill-rule="evenodd" d="M-7427.12,-2435.14 L-8541.7,-2435.14 L-8483.16,-2626.91 L-8364.2,-2777.22 L-8197.32,-2874.41 L-7995.03,-2906.81 L-7869.62,-2896.7 L-7738.37,-2866.39 L-7616.6,-2819.41 L-7519.62,-2759.31 L-7496.6,-2744.93 L-7476.7,-2740.14 L-7457.22,-2744.2 L-7440.45,-2756.39 L-7428.57,-2774.1 L-7424.62,-2794.72 L-7429.82,-2816.5 L-7445.45,-2837.64 L-7532.22,-2900.56 L-7667.53,-2959.31 L-7829.2,-3001.81 L-7995.03,-3015.97 L-8253.05,-2969.93 L-8464.62,-2831.81 L-8605.55,-2628.27 L-8652.53,-2385.97 L-8608.47,-2164.62 L-8476.28,-1977.22 L-8278.68,-1849.1 L-8039.2,-1806.39 L-7794.72,-1850.25 L-7597.95,-1981.81 L-7468.57,-2182.64 L-7427.12,-2435.14 M-7537.95,-2324.72 L-7597.01,-2160.56 L-7709.2,-2030.56 L-7861.07,-1945.56 L-8039.2,-1917.22 L-8217.22,-1945.25 L-8368.78,-2029.31 L-8480.66,-2159 L-8540.45,-2324.72 L-7537.95,-2324.72"/>
</g>

<g fill="none" stroke="#000000" stroke-opacity="1" stroke-width="1" stroke-linecap="square" stroke-linejoin="bevel" transform="matrix(0.999617,0,0,-0.999617,13448.7,-1297.89)"
font-family="MS Shell Dlg 2" font-size="10.3125" font-weight="400" font-style="normal" 
>
</g>

<g fill="none" stroke="#000000" stroke-opacity="1" stroke-width="1" stroke-linecap="square" stroke-linejoin="bevel" transform="matrix(0.999617,0,0,-0.999617,13448.7,-1297.89)"
font-family="MS Shell Dlg 2" font-size="10.3125" font-weight="400" font-style="normal" 
>
</g>

<g fill="#808080" fill-opacity="0.2" stroke="#333333" stroke-opacity="1" stroke-width="1" stroke-linecap="round" stroke-linejoin="round" transform="matrix(0.999617,0,0,-0.999617,13448.7,-1297.89)"
font-family="MS Shell Dlg 2" font-size="10.3125" font-weight="400" font-style="normal" 
>
<path vector-effect="non-scaling-stroke" fill-rule="evenodd" d="M-9611.96,-2973.06 L-10119.9,-1955.97 L-10152.4,-1955.97 L-10186,-1952.12 L-10208.6,-1940.56 L-10221.1,-1922.85 L-10225.3,-1901.39 L-10223.2,-1885.25 L-10217,-1870.97 L-10207.3,-1859.2 L-10194.9,-1851.39 L-10177.4,-1847.02 L-10152.4,-1845.56 L-9853.21,-1845.56 L-9819.67,-1849.52 L-9797.38,-1861.39 L-9784.56,-1879.1 L-9780.29,-1901.39 L-9784.56,-1922.85 L-9797.38,-1940.56 L-9819.67,-1952.12 L-9853.21,-1955.97 L-10000.3,-1955.97 L-9553.63,-2853.06 L-9113.63,-1955.97 L-9260.71,-1955.97 L-9294.04,-1952.12 L-9316.54,-1940.56 L-9329.36,-1922.54 L-9333.63,-1900.14 L-9329.36,-1878.79 L-9316.54,-1861.39 L-9294.04,-1849.52 L-9260.71,-1845.56 L-8962.38,-1845.56 L-8927.9,-1849.52 L-8905.29,-1861.39 L-8892.48,-1879.1 L-8888.21,-1901.39 L-8890.81,-1917.75 L-8898.63,-1932.64 L-8909.67,-1944.41 L-8921.96,-1951.39 L-8946.65,-1954.83 L-8994.88,-1955.97 L-9687.79,-3366.39 L-9516.96,-3366.39 L-9483.63,-3370.14 L-9461.13,-3381.39 L-9448.31,-3398.79 L-9444.04,-3420.97 L-9448.31,-3442.33 L-9461.13,-3459.72 L-9483.63,-3471.6 L-9516.96,-3475.56 L-10147.4,-3475.56 L-10181,-3471.81 L-10203.6,-3460.56 L-10216.1,-3443.16 L-10220.3,-3420.97 L-10216.1,-3398.79 L-10203.6,-3381.39 L-10181,-3370.14 L-10147.4,-3366.39 L-9804.88,-3366.39 L-9611.96,-2973.06"/>
</g>

<g fill="none" stroke="#000000" stroke-opacity="1" stroke-width="1" stroke-linecap="square" stroke-linejoin="bevel" transform="matrix(0.999617,0,0,-0.999617,13448.7,-1297.89)"
font-family="MS Shell Dlg 2" font-size="10.3125" font-weight="400" font-style="normal" 
>
</g>

<g fill="none" stroke="#000000" stroke-opacity="1" stroke-width="1" stroke-linecap="square" stroke-linejoin="bevel" transform="matrix(0.999617,0,0,-0.999617,13448.7,-1297.89)"
font-family="MS Shell Dlg 2" font-size="10.3125" font-weight="400" font-style="normal" 
>
</g>

<g fill="#808080" fill-opacity="0.2" stroke="#333333" stroke-opacity="1" stroke-width="1" stroke-linecap="round" stroke-linejoin="round" transform="matrix(0.999617,0,0,-0.999617,13448.7,-1297.89)"
font-family="MS Shell Dlg 2" font-size="10.3125" font-weight="400" font-style="normal" 
>
<path vector-effect="non-scaling-stroke" fill-rule="evenodd" d="M-13009.1,-1558.89 L-13009.1,-2863.47 L-12282.9,-2863.47 L-12282.9,-2428.89 L-12279,-2395.35 L-12267.5,-2373.06 L-12249.4,-2360.25 L-12226.6,-2355.97 L-12205.3,-2360.04 L-12187.9,-2372.22 L-12176,-2394.52 L-12172.1,-2428.89 L-12172.1,-2973.06 L-13380.4,-2973.06 L-13414,-2969.2 L-13436.6,-2957.64 L-13449.1,-2939.93 L-13453.3,-2918.47 L-13449.1,-2895.97 L-13436.6,-2878.47 L-13414,-2867.22 L-13380.4,-2863.47 L-13120,-2863.47 L-13120,-1558.89 L-13380.4,-1558.89 L-13414,-1555.14 L-13436.6,-1543.89 L-13449.1,-1526.5 L-13453.3,-1504.31 L-13449.1,-1482.12 L-13436.6,-1464.72 L-13414,-1453.47 L-13380.4,-1449.72 L-12748.7,-1449.72 L-12715.4,-1453.47 L-12692.9,-1464.72 L-12680.1,-1482.12 L-12675.8,-1504.31 L-12680.1,-1526.5 L-12692.9,-1543.89 L-12715.4,-1555.14 L-12748.7,-1558.89 L-13009.1,-1558.89"/>
</g>

<g fill="none" stroke="#000000" stroke-opacity="1" stroke-width="1" stroke-linecap="square" stroke-linejoin="bevel" transform="matrix(0.999617,0,0,-0.999617,13448.7,-1297.89)"
font-family="MS Shell Dlg 2" font-size="10.3125" font-weight="400" font-style="normal" 
>
</g>

<g fill="none" stroke="#000000" stroke-opacity="1" stroke-width="1" stroke-linecap="square" stroke-linejoin="bevel" transform="matrix(0.999617,0,0,-0.999617,13448.7,-1297.89)"
font-family="MS Shell Dlg 2" font-size="10.3125" font-weight="400" font-style="normal" 
>
</g>

<g fill="#808080" fill-opacity="0.2" stroke="#333333" stroke-opacity="1" stroke-width="1" stroke-linecap="round" stroke-linejoin="round" transform="matrix(0.999617,0,0,-0.999617,13448.7,-1297.89)"
font-family="MS Shell Dlg 2" font-size="10.3125" font-weight="400" font-style="normal" 
>
<path vector-effect="non-scaling-stroke" fill-rule="evenodd" d="M-1393.57,-2083.89 L-1260.35,-2164 L-1163.16,-2269.31 L-1103.47,-2389.62 L-1083.57,-2514.72 L-1123.47,-2699.83 L-1243.16,-2861.81 L-1422.43,-2974.62 L-1641.91,-3012.22 L-1785.35,-2997.22 L-1933.99,-2952.22 L-2062.12,-2891.6 L-2144.82,-2829.72 L-2159.51,-2808.27 L-2164.41,-2785.56 L-2160.66,-2766.08 L-2149.41,-2749.31 L-2132.95,-2737.43 L-2113.57,-2733.47 L-2091.39,-2738.37 L-2066.49,-2753.06 L-1858.89,-2865.25 L-1639.41,-2902.64 L-1464.82,-2872.85 L-1321.07,-2783.47 L-1224.82,-2657.64 L-1192.74,-2518.47 L-1208.57,-2421.91 L-1256.07,-2327.22 L-1332.95,-2243.47 L-1437.74,-2179.72 L-1556.8,-2139.1 L-1677.32,-2125.56 L-1710.97,-2121.81 L-1733.57,-2110.56 L-1746.07,-2093.06 L-1750.24,-2070.56 L-1746.18,-2049.2 L-1733.99,-2031.81 L-1713.68,-2019.93 L-1685.24,-2015.97 L-1591.49,-2017.22 L-1457.01,-1994.83 L-1348.57,-1927.64 L-1276.7,-1830.56 L-1252.74,-1719.31 L-1277.85,-1604 L-1353.16,-1503.06 L-1468.57,-1432.75 L-1614.82,-1409.31 L-1723.57,-1419.1 L-1823.16,-1448.47 L-1908.68,-1494.52 L-1975.24,-1555.14 L-1993.68,-1575.97 L-2007.32,-1586.81 L-2019.3,-1591.18 L-2032.74,-1592.64 L-2053.26,-1589 L-2070.66,-1578.06 L-2082.22,-1561.6 L-2086.07,-1542.22 L-2057.74,-1483.27 L-1972.74,-1410.56 L-1804.51,-1327.43 L-1614.82,-1299.72 L-1426.28,-1330.87 L-1274.82,-1424.31 L-1175.14,-1560.45 L-1141.91,-1720.56 L-1157.95,-1826.91 L-1206.07,-1927.64 L-1284.82,-2015.45 L-1393.57,-2083.89"/>
</g>

<g fill="none" stroke="#000000" stroke-opacity="1" stroke-width="1" stroke-linecap="square" stroke-linejoin="bevel" transform="matrix(0.999617,0,0,-0.999617,13448.7,-1297.89)"
font-family="MS Shell Dlg 2" font-size="10.3125" font-weight="400" font-style="normal" 
>
</g>

<g fill="none" stroke="#000000" stroke-opacity="1" stroke-width="1" stroke-linecap="square" stroke-linejoin="bevel" transform="matrix(0.999617,0,0,-0.999617,13448.7,-1297.89)"
font-family="MS Shell Dlg 2" font-size="10.3125" font-weight="400" font-style="normal" 
>
</g>

<g fill="#808080" fill-opacity="0.2" stroke="#333333" stroke-opacity="1" stroke-width="1" stroke-linecap="round" stroke-linejoin="round" transform="matrix(0.999617,0,0,-0.999617,13448.7,-1297.89)"
font-family="MS Shell Dlg 2" font-size="10.3125" font-weight="400" font-style="normal" 
>
<path vector-effect="non-scaling-stroke" fill-rule="evenodd" d="M-6549.77,-1845.56 L-6549.77,-2121.39 L-6363,-1963.16 L-6230.19,-1873.47 L-6128,-1831.91 L-6033.94,-1818.06 L-5939.88,-1834.52 L-5852.69,-1883.89 L-5789.56,-1941.7 L-5768.52,-1983.47 L-5772.59,-2005.97 L-5784.77,-2024.31 L-5803.11,-2036.5 L-5825.61,-2040.56 L-5837.59,-2039.52 L-5847.69,-2036.39 L-5860.81,-2026.7 L-5881.86,-2006.81 L-5924.36,-1968.58 L-5961.02,-1944.72 L-5994.56,-1931.91 L-6027.69,-1927.64 L-6106.44,-1942.02 L-6200.19,-1985.14 L-6338,-2083.58 L-6549.77,-2264.72 L-6549.77,-2863.47 L-6065.19,-2863.47 L-6030.71,-2867.22 L-6008.11,-2878.47 L-5995.29,-2895.97 L-5991.02,-2918.47 L-5995.29,-2939.93 L-6008.11,-2957.64 L-6030.71,-2969.2 L-6065.19,-2973.06 L-6923.52,-2973.06 L-6956.86,-2969.31 L-6979.36,-2958.06 L-6992.17,-2940.97 L-6996.44,-2919.72 L-6992.38,-2899.41 L-6980.19,-2882.64 L-6957.69,-2871.39 L-6923.52,-2867.64 L-6658.94,-2867.64 L-6658.94,-1955.97 L-6861.02,-1955.97 L-6894.36,-1952.12 L-6916.86,-1940.56 L-6929.67,-1922.54 L-6933.94,-1900.14 L-6929.88,-1878.79 L-6917.69,-1861.39 L-6895.19,-1849.52 L-6861.02,-1845.56 L-6549.77,-1845.56"/>
</g>

<g fill="none" stroke="#000000" stroke-opacity="1" stroke-width="1" stroke-linecap="square" stroke-linejoin="bevel" transform="matrix(0.999617,0,0,-0.999617,13448.7,-1297.89)"
font-family="MS Shell Dlg 2" font-size="10.3125" font-weight="400" font-style="normal" 
>
</g>

<g fill="none" stroke="#000000" stroke-opacity="1" stroke-width="1" stroke-linecap="square" stroke-linejoin="bevel" transform="matrix(0.999617,0,0,-0.999617,13448.7,-1297.89)"
font-family="MS Shell Dlg 2" font-size="10.3125" font-weight="400" font-style="normal" 
>
</g>

<g fill="#808080" fill-opacity="0.2" stroke="#333333" stroke-opacity="1" stroke-width="1" stroke-linecap="round" stroke-linejoin="round" transform="matrix(0.999617,0,0,-0.999617,13448.7,-1297.89)"
font-family="MS Shell Dlg 2" font-size="10.3125" font-weight="400" font-style="normal" 
>
<path vector-effect="non-scaling-stroke" fill-rule="evenodd" d="M-10905.1,-2973.06 L-10905.1,-2815.56 L-11151.6,-2965.87 L-11414.3,-3015.97 L-11589.5,-2991.08 L-11721.8,-2916.39 L-11804.6,-2805.56 L-11832.2,-2672.22 L-11795.8,-2523.58 L-11686.4,-2395.14 L-11507,-2306.08 L-11260.6,-2276.39 L-11181.9,-2278.89 L-11096.8,-2286.39 L-11004.5,-2298.79 L-10905.1,-2316.81 L-10905.1,-2139.72 L-10926,-2055.66 L-10988.5,-1983.47 L-11092.6,-1933.79 L-11238.5,-1917.22 L-11391.7,-1935.77 L-11596.4,-1991.39 L-11630.6,-2001.08 L-11649.7,-2004.31 L-11669.1,-2000.45 L-11685.6,-1988.89 L-11696.8,-1971.18 L-11700.6,-1949.72 L-11697.3,-1929.83 L-11687.6,-1914.31 L-11641.7,-1891.18 L-11540.6,-1860.97 L-11362,-1820.04 L-11233.1,-1806.39 L-11049.1,-1832.02 L-10910.6,-1908.89 L-10823.4,-2017.64 L-10794.3,-2139.72 L-10794.3,-2863.47 L-10648.5,-2863.47 L-10614,-2867.22 L-10591.4,-2878.47 L-10578.6,-2895.97 L-10574.3,-2918.47 L-10578.6,-2939.93 L-10591.4,-2957.64 L-10614,-2969.2 L-10648.5,-2973.06 L-10905.1,-2973.06 M-10905.1,-2428.89 L-10984.2,-2409.72 L-11068.1,-2396.39 L-11156.2,-2388.58 L-11248.9,-2385.97 L-11461.2,-2411.6 L-11621.4,-2488.47 L-11697.3,-2572.95 L-11722.6,-2672.22 L-11703.4,-2763.58 L-11645.6,-2839.31 L-11550.2,-2889.93 L-11419.3,-2906.81 L-11282.6,-2892.64 L-11156,-2850.14 L-11032.2,-2776.7 L-10905.1,-2669.72 L-10905.1,-2428.89"/>
</g>

<g fill="none" stroke="#000000" stroke-opacity="1" stroke-width="1" stroke-linecap="square" stroke-linejoin="bevel" transform="matrix(0.999617,0,0,-0.999617,13448.7,-1297.89)"
font-family="MS Shell Dlg 2" font-size="10.3125" font-weight="400" font-style="normal" 
>
</g>

<g fill="none" stroke="#000000" stroke-opacity="1" stroke-width="1" stroke-linecap="square" stroke-linejoin="bevel" transform="matrix(0.999617,0,0,-0.999617,13448.7,-1297.89)"
font-family="MS Shell Dlg 2" font-size="10.3125" font-weight="400" font-style="normal" 
>
</g>

<g fill="#808080" fill-opacity="0.2" stroke="#333333" stroke-opacity="1" stroke-width="1" stroke-linecap="round" stroke-linejoin="round" transform="matrix(0.999617,0,0,-0.999617,13448.7,-1297.89)"
font-family="MS Shell Dlg 2" font-size="10.3125" font-weight="400" font-style="normal" 
>
<path vector-effect="non-scaling-stroke" fill-rule="evenodd" d="M-7427.12,-2435.14 L-8541.7,-2435.14 L-8483.16,-2626.91 L-8364.2,-2777.22 L-8197.32,-2874.41 L-7995.03,-2906.81 L-7869.62,-2896.7 L-7738.37,-2866.39 L-7616.6,-2819.41 L-7519.62,-2759.31 L-7496.6,-2744.93 L-7476.7,-2740.14 L-7457.22,-2744.2 L-7440.45,-2756.39 L-7428.57,-2774.1 L-7424.62,-2794.72 L-7429.82,-2816.5 L-7445.45,-2837.64 L-7532.22,-2900.56 L-7667.53,-2959.31 L-7829.2,-3001.81 L-7995.03,-3015.97 L-8253.05,-2969.93 L-8464.62,-2831.81 L-8605.55,-2628.27 L-8652.53,-2385.97 L-8608.47,-2164.62 L-8476.28,-1977.22 L-8278.68,-1849.1 L-8039.2,-1806.39 L-7794.72,-1850.25 L-7597.95,-1981.81 L-7468.57,-2182.64 L-7427.12,-2435.14 M-7537.95,-2324.72 L-7597.01,-2160.56 L-7709.2,-2030.56 L-7861.07,-1945.56 L-8039.2,-1917.22 L-8217.22,-1945.25 L-8368.78,-2029.31 L-8480.66,-2159 L-8540.45,-2324.72 L-7537.95,-2324.72"/>
</g>

<g fill="none" stroke="#000000" stroke-opacity="1" stroke-width="1" stroke-linecap="square" stroke-linejoin="bevel" transform="matrix(0.999617,0,0,-0.999617,13448.7,-1297.89)"
font-family="MS Shell Dlg 2" font-size="10.3125" font-weight="400" font-style="normal" 
>
</g>

<g fill="none" stroke="#000000" stroke-opacity="1" stroke-width="1" stroke-linecap="square" stroke-linejoin="bevel" transform="matrix(0.999617,0,0,-0.999617,13448.7,-1297.89)"
font-family="MS Shell Dlg 2" font-size="10.3125" font-weight="400" font-style="normal" 
>
</g>

<g fill="#808080" fill-opacity="0.2" stroke="#333333" stroke-opacity="1" stroke-width="1" stroke-linecap="round" stroke-linejoin="round" transform="matrix(0.999617,0,0,-0.999617,13448.7,-1297.89)"
font-family="MS Shell Dlg 2" font-size="10.3125" font-weight="400" font-style="normal" 
>
<path vector-effect="non-scaling-stroke" fill-rule="evenodd" d="M-9611.96,-2973.06 L-10119.9,-1955.97 L-10152.4,-1955.97 L-10186,-1952.12 L-10208.6,-1940.56 L-10221.1,-1922.85 L-10225.3,-1901.39 L-10223.2,-1885.25 L-10217,-1870.97 L-10207.3,-1859.2 L-10194.9,-1851.39 L-10177.4,-1847.02 L-10152.4,-1845.56 L-9853.21,-1845.56 L-9819.67,-1849.52 L-9797.38,-1861.39 L-9784.56,-1879.1 L-9780.29,-1901.39 L-9784.56,-1922.85 L-9797.38,-1940.56 L-9819.67,-1952.12 L-9853.21,-1955.97 L-10000.3,-1955.97 L-9553.63,-2853.06 L-9113.63,-1955.97 L-9260.71,-1955.97 L-9294.04,-1952.12 L-9316.54,-1940.56 L-9329.36,-1922.54 L-9333.63,-1900.14 L-9329.36,-1878.79 L-9316.54,-1861.39 L-9294.04,-1849.52 L-9260.71,-1845.56 L-8962.38,-1845.56 L-8927.9,-1849.52 L-8905.29,-1861.39 L-8892.48,-1879.1 L-8888.21,-1901.39 L-8890.81,-1917.75 L-8898.63,-1932.64 L-8909.67,-1944.41 L-8921.96,-1951.39 L-8946.65,-1954.83 L-8994.88,-1955.97 L-9687.79,-3366.39 L-9516.96,-3366.39 L-9483.63,-3370.14 L-9461.13,-3381.39 L-9448.31,-3398.79 L-9444.04,-3420.97 L-9448.31,-3442.33 L-9461.13,-3459.72 L-9483.63,-3471.6 L-9516.96,-3475.56 L-10147.4,-3475.56 L-10181,-3471.81 L-10203.6,-3460.56 L-10216.1,-3443.16 L-10220.3,-3420.97 L-10216.1,-3398.79 L-10203.6,-3381.39 L-10181,-3370.14 L-10147.4,-3366.39 L-9804.88,-3366.39 L-9611.96,-2973.06"/>
</g>

<g fill="none" stroke="#000000" stroke-opacity="1" stroke-width="1" stroke-linecap="square" stroke-linejoin="bevel" transform="matrix(0.999617,0,0,-0.999617,13448.7,-1297.89)"
font-family="MS Shell Dlg 2" font-size="10.3125" font-weight="400" font-style="normal" 
>
</g>

<g fill="none" stroke="#000000" stroke-opacity="1" stroke-width="1" stroke-linecap="square" stroke-linejoin="bevel" transform="matrix(1,0,0,-1,0,2176.83)"
font-family="MS Shell Dlg 2" font-size="10.3125" font-weight="400" font-style="normal" 
>
</g>
</g>
</svg>
