<?xml version="1.0" encoding="UTF-8" standalone="no"?>
<svg width="283.916mm" height="467.642mm"
 xmlns="http://www.w3.org/2000/svg" xmlns:xlink="http://www.w3.org/1999/xlink"  version="1.2" baseProfile="tiny">
<title>SVG Generator Example Drawing</title>
<desc>An SVG drawing created by the SVG Generator</desc>
<defs>
</defs>
<g fill="none" stroke="black" stroke-width="1" fill-rule="evenodd" stroke-linecap="square" stroke-linejoin="bevel" >

<g fill="none" stroke="#000000" stroke-opacity="1" stroke-width="1" stroke-linecap="square" stroke-linejoin="bevel" transform="matrix(1,0,0,-1,0,1657.25)"
font-family="MS Shell Dlg 2" font-size="10.3125" font-weight="400" font-style="normal" 
>
</g>

<g fill="none" stroke="#000000" stroke-opacity="1" stroke-width="1" stroke-linecap="square" stroke-linejoin="bevel" transform="matrix(1,0,0,-1,0,1657.25)"
font-family="MS Shell Dlg 2" font-size="10.3125" font-weight="400" font-style="normal" 
>
</g>

<g fill="none" stroke="#000000" stroke-opacity="1" stroke-width="1" stroke-linecap="square" stroke-linejoin="bevel" transform="matrix(0.999849,0,0,-0.999849,3721.27,-1315.86)"
font-family="MS Shell Dlg 2" font-size="10.3125" font-weight="400" font-style="normal" 
>
</g>

<g fill="#808080" fill-opacity="0.2" stroke="#333333" stroke-opacity="1" stroke-width="1" stroke-linecap="round" stroke-linejoin="round" transform="matrix(0.999849,0,0,-0.999849,3721.27,-1315.86)"
font-family="MS Shell Dlg 2" font-size="10.3125" font-weight="400" font-style="normal" 
>
<path vector-effect="non-scaling-stroke" fill-rule="evenodd" d="M-3164.25,-1316.81 L-3164.25,-2863.47 L-2789.25,-2863.47 L-2755.71,-2867.22 L-2733.42,-2878.47 L-2720.61,-2895.97 L-2716.34,-2918.47 L-2720.61,-2939.93 L-2733.42,-2957.64 L-2755.71,-2969.2 L-2789.25,-2973.06 L-3648.42,-2973.06 L-3682.06,-2969.2 L-3704.67,-2957.64 L-3717.17,-2939.93 L-3721.34,-2918.47 L-3717.17,-2895.97 L-3704.67,-2878.47 L-3682.06,-2867.22 L-3648.42,-2863.47 L-3273.42,-2863.47 L-3273.42,-1467.64 L-3630.5,-1579.72 L-3652.79,-1585.66 L-3668,-1587.64 L-3686.75,-1583.58 L-3703.84,-1571.39 L-3716.02,-1553.68 L-3720.09,-1533.06 L-3716.86,-1514.1 L-3707.17,-1496.39 L-3691.23,-1485.66 L-3664.25,-1474.31 L-3164.25,-1316.81"/>
</g>

<g fill="none" stroke="#000000" stroke-opacity="1" stroke-width="1" stroke-linecap="square" stroke-linejoin="bevel" transform="matrix(0.999849,0,0,-0.999849,3721.27,-1315.86)"
font-family="MS Shell Dlg 2" font-size="10.3125" font-weight="400" font-style="normal" 
>
</g>

<g fill="none" stroke="#000000" stroke-opacity="1" stroke-width="1" stroke-linecap="square" stroke-linejoin="bevel" transform="matrix(0.999849,0,0,-0.999849,3721.27,-1315.86)"
font-family="MS Shell Dlg 2" font-size="10.3125" font-weight="400" font-style="normal" 
>
</g>

<g fill="#808080" fill-opacity="0.2" stroke="#333333" stroke-opacity="1" stroke-width="1" stroke-linecap="round" stroke-linejoin="round" transform="matrix(0.999849,0,0,-0.999849,3721.27,-1315.86)"
font-family="MS Shell Dlg 2" font-size="10.3125" font-weight="400" font-style="normal" 
>
<path vector-effect="non-scaling-stroke" fill-rule="evenodd" d="M-3164.25,-1316.81 L-3164.25,-2863.47 L-2789.25,-2863.47 L-2755.71,-2867.22 L-2733.42,-2878.47 L-2720.61,-2895.97 L-2716.34,-2918.47 L-2720.61,-2939.93 L-2733.42,-2957.64 L-2755.71,-2969.2 L-2789.25,-2973.06 L-3648.42,-2973.06 L-3682.06,-2969.2 L-3704.67,-2957.64 L-3717.17,-2939.93 L-3721.34,-2918.47 L-3717.17,-2895.97 L-3704.67,-2878.47 L-3682.06,-2867.22 L-3648.42,-2863.47 L-3273.42,-2863.47 L-3273.42,-1467.64 L-3630.5,-1579.72 L-3652.79,-1585.66 L-3668,-1587.64 L-3686.75,-1583.58 L-3703.84,-1571.39 L-3716.02,-1553.68 L-3720.09,-1533.06 L-3716.86,-1514.1 L-3707.17,-1496.39 L-3691.23,-1485.66 L-3664.25,-1474.31 L-3164.25,-1316.81"/>
</g>

<g fill="none" stroke="#000000" stroke-opacity="1" stroke-width="1" stroke-linecap="square" stroke-linejoin="bevel" transform="matrix(0.999849,0,0,-0.999849,3721.27,-1315.86)"
font-family="MS Shell Dlg 2" font-size="10.3125" font-weight="400" font-style="normal" 
>
</g>

<g fill="none" stroke="#000000" stroke-opacity="1" stroke-width="1" stroke-linecap="square" stroke-linejoin="bevel" transform="matrix(0.999849,0,0,-0.999849,3721.27,-1315.86)"
font-family="MS Shell Dlg 2" font-size="10.3125" font-weight="400" font-style="normal" 
>
</g>

<g fill="#808080" fill-opacity="0.2" stroke="#333333" stroke-opacity="1" stroke-width="1" stroke-linecap="round" stroke-linejoin="round" transform="matrix(0.999849,0,0,-0.999849,3721.27,-1315.86)"
font-family="MS Shell Dlg 2" font-size="10.3125" font-weight="400" font-style="normal" 
>
<path vector-effect="non-scaling-stroke" fill-rule="evenodd" d="M-3164.25,-1316.81 L-3164.25,-2863.47 L-2789.25,-2863.47 L-2755.71,-2867.22 L-2733.42,-2878.47 L-2720.61,-2895.97 L-2716.34,-2918.47 L-2720.61,-2939.93 L-2733.42,-2957.64 L-2755.71,-2969.2 L-2789.25,-2973.06 L-3648.42,-2973.06 L-3682.06,-2969.2 L-3704.67,-2957.64 L-3717.17,-2939.93 L-3721.34,-2918.47 L-3717.17,-2895.97 L-3704.67,-2878.47 L-3682.06,-2867.22 L-3648.42,-2863.47 L-3273.42,-2863.47 L-3273.42,-1467.64 L-3630.5,-1579.72 L-3652.79,-1585.66 L-3668,-1587.64 L-3686.75,-1583.58 L-3703.84,-1571.39 L-3716.02,-1553.68 L-3720.09,-1533.06 L-3716.86,-1514.1 L-3707.17,-1496.39 L-3691.23,-1485.66 L-3664.25,-1474.31 L-3164.25,-1316.81"/>
</g>

<g fill="none" stroke="#000000" stroke-opacity="1" stroke-width="1" stroke-linecap="square" stroke-linejoin="bevel" transform="matrix(0.999849,0,0,-0.999849,3721.27,-1315.86)"
font-family="MS Shell Dlg 2" font-size="10.3125" font-weight="400" font-style="normal" 
>
</g>

<g fill="none" stroke="#000000" stroke-opacity="1" stroke-width="1" stroke-linecap="square" stroke-linejoin="bevel" transform="matrix(0.999849,0,0,-0.999849,3721.27,-1315.86)"
font-family="MS Shell Dlg 2" font-size="10.3125" font-weight="400" font-style="normal" 
>
</g>

<g fill="#808080" fill-opacity="0.2" stroke="#333333" stroke-opacity="1" stroke-width="1" stroke-linecap="round" stroke-linejoin="round" transform="matrix(0.999849,0,0,-0.999849,3721.27,-1315.86)"
font-family="MS Shell Dlg 2" font-size="10.3125" font-weight="400" font-style="normal" 
>
<path vector-effect="non-scaling-stroke" fill-rule="evenodd" d="M-3164.25,-1316.81 L-3164.25,-2863.47 L-2789.25,-2863.47 L-2755.71,-2867.22 L-2733.42,-2878.47 L-2720.61,-2895.97 L-2716.34,-2918.47 L-2720.61,-2939.93 L-2733.42,-2957.64 L-2755.71,-2969.2 L-2789.25,-2973.06 L-3648.42,-2973.06 L-3682.06,-2969.2 L-3704.67,-2957.64 L-3717.17,-2939.93 L-3721.34,-2918.47 L-3717.17,-2895.97 L-3704.67,-2878.47 L-3682.06,-2867.22 L-3648.42,-2863.47 L-3273.42,-2863.47 L-3273.42,-1467.64 L-3630.5,-1579.72 L-3652.79,-1585.66 L-3668,-1587.64 L-3686.75,-1583.58 L-3703.84,-1571.39 L-3716.02,-1553.68 L-3720.09,-1533.06 L-3716.86,-1514.1 L-3707.17,-1496.39 L-3691.23,-1485.66 L-3664.25,-1474.31 L-3164.25,-1316.81"/>
</g>

<g fill="none" stroke="#000000" stroke-opacity="1" stroke-width="1" stroke-linecap="square" stroke-linejoin="bevel" transform="matrix(0.999849,0,0,-0.999849,3721.27,-1315.86)"
font-family="MS Shell Dlg 2" font-size="10.3125" font-weight="400" font-style="normal" 
>
</g>

<g fill="none" stroke="#000000" stroke-opacity="1" stroke-width="1" stroke-linecap="square" stroke-linejoin="bevel" transform="matrix(0.999849,0,0,-0.999849,3721.27,-1315.86)"
font-family="MS Shell Dlg 2" font-size="10.3125" font-weight="400" font-style="normal" 
>
</g>

<g fill="#808080" fill-opacity="0.2" stroke="#333333" stroke-opacity="1" stroke-width="1" stroke-linecap="round" stroke-linejoin="round" transform="matrix(0.999849,0,0,-0.999849,3721.27,-1315.86)"
font-family="MS Shell Dlg 2" font-size="10.3125" font-weight="400" font-style="normal" 
>
<path vector-effect="non-scaling-stroke" fill-rule="evenodd" d="M-3164.25,-1316.81 L-3164.25,-2863.47 L-2789.25,-2863.47 L-2755.71,-2867.22 L-2733.42,-2878.47 L-2720.61,-2895.97 L-2716.34,-2918.47 L-2720.61,-2939.93 L-2733.42,-2957.64 L-2755.71,-2969.2 L-2789.25,-2973.06 L-3648.42,-2973.06 L-3682.06,-2969.2 L-3704.67,-2957.64 L-3717.17,-2939.93 L-3721.34,-2918.47 L-3717.17,-2895.97 L-3704.67,-2878.47 L-3682.06,-2867.22 L-3648.42,-2863.47 L-3273.42,-2863.47 L-3273.42,-1467.64 L-3630.5,-1579.72 L-3652.79,-1585.66 L-3668,-1587.64 L-3686.75,-1583.58 L-3703.84,-1571.39 L-3716.02,-1553.68 L-3720.09,-1533.06 L-3716.86,-1514.1 L-3707.17,-1496.39 L-3691.23,-1485.66 L-3664.25,-1474.31 L-3164.25,-1316.81"/>
</g>

<g fill="none" stroke="#000000" stroke-opacity="1" stroke-width="1" stroke-linecap="square" stroke-linejoin="bevel" transform="matrix(0.999849,0,0,-0.999849,3721.27,-1315.86)"
font-family="MS Shell Dlg 2" font-size="10.3125" font-weight="400" font-style="normal" 
>
</g>

<g fill="none" stroke="#000000" stroke-opacity="1" stroke-width="1" stroke-linecap="square" stroke-linejoin="bevel" transform="matrix(0.999849,0,0,-0.999849,3721.27,-1315.86)"
font-family="MS Shell Dlg 2" font-size="10.3125" font-weight="400" font-style="normal" 
>
</g>

<g fill="#808080" fill-opacity="0.2" stroke="#333333" stroke-opacity="1" stroke-width="1" stroke-linecap="round" stroke-linejoin="round" transform="matrix(0.999849,0,0,-0.999849,3721.27,-1315.86)"
font-family="MS Shell Dlg 2" font-size="10.3125" font-weight="400" font-style="normal" 
>
<path vector-effect="non-scaling-stroke" fill-rule="evenodd" d="M-3164.25,-1316.81 L-3164.25,-2863.47 L-2789.25,-2863.47 L-2755.71,-2867.22 L-2733.42,-2878.47 L-2720.61,-2895.97 L-2716.34,-2918.47 L-2720.61,-2939.93 L-2733.42,-2957.64 L-2755.71,-2969.2 L-2789.25,-2973.06 L-3648.42,-2973.06 L-3682.06,-2969.2 L-3704.67,-2957.64 L-3717.17,-2939.93 L-3721.34,-2918.47 L-3717.17,-2895.97 L-3704.67,-2878.47 L-3682.06,-2867.22 L-3648.42,-2863.47 L-3273.42,-2863.47 L-3273.42,-1467.64 L-3630.5,-1579.72 L-3652.79,-1585.66 L-3668,-1587.64 L-3686.75,-1583.58 L-3703.84,-1571.39 L-3716.02,-1553.68 L-3720.09,-1533.06 L-3716.86,-1514.1 L-3707.17,-1496.39 L-3691.23,-1485.66 L-3664.25,-1474.31 L-3164.25,-1316.81"/>
</g>

<g fill="none" stroke="#000000" stroke-opacity="1" stroke-width="1" stroke-linecap="square" stroke-linejoin="bevel" transform="matrix(0.999849,0,0,-0.999849,3721.27,-1315.86)"
font-family="MS Shell Dlg 2" font-size="10.3125" font-weight="400" font-style="normal" 
>
</g>

<g fill="none" stroke="#000000" stroke-opacity="1" stroke-width="1" stroke-linecap="square" stroke-linejoin="bevel" transform="matrix(0.999849,0,0,-0.999849,3721.27,-1315.86)"
font-family="MS Shell Dlg 2" font-size="10.3125" font-weight="400" font-style="normal" 
>
</g>

<g fill="#808080" fill-opacity="0.2" stroke="#333333" stroke-opacity="1" stroke-width="1" stroke-linecap="round" stroke-linejoin="round" transform="matrix(0.999849,0,0,-0.999849,3721.27,-1315.86)"
font-family="MS Shell Dlg 2" font-size="10.3125" font-weight="400" font-style="normal" 
>
<path vector-effect="non-scaling-stroke" fill-rule="evenodd" d="M-3164.25,-1316.81 L-3164.25,-2863.47 L-2789.25,-2863.47 L-2755.71,-2867.22 L-2733.42,-2878.47 L-2720.61,-2895.97 L-2716.34,-2918.47 L-2720.61,-2939.93 L-2733.42,-2957.64 L-2755.71,-2969.2 L-2789.25,-2973.06 L-3648.42,-2973.06 L-3682.06,-2969.2 L-3704.67,-2957.64 L-3717.17,-2939.93 L-3721.34,-2918.47 L-3717.17,-2895.97 L-3704.67,-2878.47 L-3682.06,-2867.22 L-3648.42,-2863.47 L-3273.42,-2863.47 L-3273.42,-1467.64 L-3630.5,-1579.72 L-3652.79,-1585.66 L-3668,-1587.64 L-3686.75,-1583.58 L-3703.84,-1571.39 L-3716.02,-1553.68 L-3720.09,-1533.06 L-3716.86,-1514.1 L-3707.17,-1496.39 L-3691.23,-1485.66 L-3664.25,-1474.31 L-3164.25,-1316.81"/>
</g>

<g fill="none" stroke="#000000" stroke-opacity="1" stroke-width="1" stroke-linecap="square" stroke-linejoin="bevel" transform="matrix(0.999849,0,0,-0.999849,3721.27,-1315.86)"
font-family="MS Shell Dlg 2" font-size="10.3125" font-weight="400" font-style="normal" 
>
</g>

<g fill="none" stroke="#000000" stroke-opacity="1" stroke-width="1" stroke-linecap="square" stroke-linejoin="bevel" transform="matrix(0.999849,0,0,-0.999849,3721.27,-1315.86)"
font-family="MS Shell Dlg 2" font-size="10.3125" font-weight="400" font-style="normal" 
>
</g>

<g fill="#808080" fill-opacity="0.2" stroke="#333333" stroke-opacity="1" stroke-width="1" stroke-linecap="round" stroke-linejoin="round" transform="matrix(0.999849,0,0,-0.999849,3721.27,-1315.86)"
font-family="MS Shell Dlg 2" font-size="10.3125" font-weight="400" font-style="normal" 
>
<path vector-effect="non-scaling-stroke" fill-rule="evenodd" d="M-3164.25,-1316.81 L-3164.25,-2863.47 L-2789.25,-2863.47 L-2755.71,-2867.22 L-2733.42,-2878.47 L-2720.61,-2895.97 L-2716.34,-2918.47 L-2720.61,-2939.93 L-2733.42,-2957.64 L-2755.71,-2969.2 L-2789.25,-2973.06 L-3648.42,-2973.06 L-3682.06,-2969.2 L-3704.67,-2957.64 L-3717.17,-2939.93 L-3721.34,-2918.47 L-3717.17,-2895.97 L-3704.67,-2878.47 L-3682.06,-2867.22 L-3648.42,-2863.47 L-3273.42,-2863.47 L-3273.42,-1467.64 L-3630.5,-1579.72 L-3652.79,-1585.66 L-3668,-1587.64 L-3686.75,-1583.58 L-3703.84,-1571.39 L-3716.02,-1553.68 L-3720.09,-1533.06 L-3716.86,-1514.1 L-3707.17,-1496.39 L-3691.23,-1485.66 L-3664.25,-1474.31 L-3164.25,-1316.81"/>
</g>

<g fill="none" stroke="#000000" stroke-opacity="1" stroke-width="1" stroke-linecap="square" stroke-linejoin="bevel" transform="matrix(0.999849,0,0,-0.999849,3721.27,-1315.86)"
font-family="MS Shell Dlg 2" font-size="10.3125" font-weight="400" font-style="normal" 
>
</g>

<g fill="none" stroke="#000000" stroke-opacity="1" stroke-width="1" stroke-linecap="square" stroke-linejoin="bevel" transform="matrix(0.999849,0,0,-0.999849,3721.27,-1315.86)"
font-family="MS Shell Dlg 2" font-size="10.3125" font-weight="400" font-style="normal" 
>
</g>

<g fill="#808080" fill-opacity="0.2" stroke="#333333" stroke-opacity="1" stroke-width="1" stroke-linecap="round" stroke-linejoin="round" transform="matrix(0.999849,0,0,-0.999849,3721.27,-1315.86)"
font-family="MS Shell Dlg 2" font-size="10.3125" font-weight="400" font-style="normal" 
>
<path vector-effect="non-scaling-stroke" fill-rule="evenodd" d="M-3164.25,-1316.81 L-3164.25,-2863.47 L-2789.25,-2863.47 L-2755.71,-2867.22 L-2733.42,-2878.47 L-2720.61,-2895.97 L-2716.34,-2918.47 L-2720.61,-2939.93 L-2733.42,-2957.64 L-2755.71,-2969.2 L-2789.25,-2973.06 L-3648.42,-2973.06 L-3682.06,-2969.2 L-3704.67,-2957.64 L-3717.17,-2939.93 L-3721.34,-2918.47 L-3717.17,-2895.97 L-3704.67,-2878.47 L-3682.06,-2867.22 L-3648.42,-2863.47 L-3273.42,-2863.47 L-3273.42,-1467.64 L-3630.5,-1579.72 L-3652.79,-1585.66 L-3668,-1587.64 L-3686.75,-1583.58 L-3703.84,-1571.39 L-3716.02,-1553.68 L-3720.09,-1533.06 L-3716.86,-1514.1 L-3707.17,-1496.39 L-3691.23,-1485.66 L-3664.25,-1474.31 L-3164.25,-1316.81"/>
</g>

<g fill="none" stroke="#000000" stroke-opacity="1" stroke-width="1" stroke-linecap="square" stroke-linejoin="bevel" transform="matrix(0.999849,0,0,-0.999849,3721.27,-1315.86)"
font-family="MS Shell Dlg 2" font-size="10.3125" font-weight="400" font-style="normal" 
>
</g>

<g fill="none" stroke="#000000" stroke-opacity="1" stroke-width="1" stroke-linecap="square" stroke-linejoin="bevel" transform="matrix(0.999849,0,0,-0.999849,3721.27,-1315.86)"
font-family="MS Shell Dlg 2" font-size="10.3125" font-weight="400" font-style="normal" 
>
</g>

<g fill="#808080" fill-opacity="0.2" stroke="#333333" stroke-opacity="1" stroke-width="1" stroke-linecap="round" stroke-linejoin="round" transform="matrix(0.999849,0,0,-0.999849,3721.27,-1315.86)"
font-family="MS Shell Dlg 2" font-size="10.3125" font-weight="400" font-style="normal" 
>
<path vector-effect="non-scaling-stroke" fill-rule="evenodd" d="M-3164.25,-1316.81 L-3164.25,-2863.47 L-2789.25,-2863.47 L-2755.71,-2867.22 L-2733.42,-2878.47 L-2720.61,-2895.97 L-2716.34,-2918.47 L-2720.61,-2939.93 L-2733.42,-2957.64 L-2755.71,-2969.2 L-2789.25,-2973.06 L-3648.42,-2973.06 L-3682.06,-2969.2 L-3704.67,-2957.64 L-3717.17,-2939.93 L-3721.34,-2918.47 L-3717.17,-2895.97 L-3704.67,-2878.47 L-3682.06,-2867.22 L-3648.42,-2863.47 L-3273.42,-2863.47 L-3273.42,-1467.64 L-3630.5,-1579.72 L-3652.79,-1585.66 L-3668,-1587.64 L-3686.75,-1583.58 L-3703.84,-1571.39 L-3716.02,-1553.68 L-3720.09,-1533.06 L-3716.86,-1514.1 L-3707.17,-1496.39 L-3691.23,-1485.66 L-3664.25,-1474.31 L-3164.25,-1316.81"/>
</g>

<g fill="none" stroke="#000000" stroke-opacity="1" stroke-width="1" stroke-linecap="square" stroke-linejoin="bevel" transform="matrix(0.999849,0,0,-0.999849,3721.27,-1315.86)"
font-family="MS Shell Dlg 2" font-size="10.3125" font-weight="400" font-style="normal" 
>
</g>

<g fill="none" stroke="#000000" stroke-opacity="1" stroke-width="1" stroke-linecap="square" stroke-linejoin="bevel" transform="matrix(1,0,0,-1,0,1657.25)"
font-family="MS Shell Dlg 2" font-size="10.3125" font-weight="400" font-style="normal" 
>
</g>
</g>
</svg>
