<?xml version="1.0" encoding="UTF-8" standalone="no"?>
<svg width="429.26mm" height="429.26mm"
 xmlns="http://www.w3.org/2000/svg" xmlns:xlink="http://www.w3.org/1999/xlink"  version="1.2" baseProfile="tiny">
<title>SVG Generator Example Drawing</title>
<desc>An SVG drawing created by the SVG Generator</desc>
<defs>
</defs>
<g fill="none" stroke="black" stroke-width="1" fill-rule="evenodd" stroke-linecap="square" stroke-linejoin="bevel" >

<g fill="none" stroke="#000000" stroke-opacity="1" stroke-width="1" stroke-linecap="square" stroke-linejoin="bevel" transform="matrix(1,0,0,-1,0,1521)"
font-family="MS Shell Dlg 2" font-size="10.3125" font-weight="400" font-style="normal" 
>
</g>

<g fill="none" stroke="#000000" stroke-opacity="1" stroke-width="1" stroke-linecap="square" stroke-linejoin="bevel" transform="matrix(1,0,0,-1,0,1521)"
font-family="MS Shell Dlg 2" font-size="10.3125" font-weight="400" font-style="normal" 
>
</g>

<g fill="none" stroke="#000000" stroke-opacity="1" stroke-width="1" stroke-linecap="square" stroke-linejoin="bevel" transform="matrix(1,0,0,-1,7889.25,13702.7)"
font-family="MS Shell Dlg 2" font-size="10.3125" font-weight="400" font-style="normal" 
>
</g>

<g fill="#333333" fill-opacity="0.2" stroke="#333333" stroke-opacity="1" stroke-width="1" stroke-linecap="round" stroke-linejoin="round" transform="matrix(1,0,0,-1,7889.25,13702.7)"
font-family="MS Shell Dlg 2" font-size="10.3125" font-weight="400" font-style="normal" 
>
<path vector-effect="non-scaling-stroke" fill-rule="evenodd" d="M-7138.75,12932.2 L-7878.75,12932.2 L-7882.58,12933 L-7885.82,12935.2 L-7887.99,12938.4 L-7888.75,12942.2 L-7887.99,12946.1 L-7885.82,12949.3 L-7882.58,12951.5 L-7878.75,12952.2 L-7138.75,12952.2 L-7138.75,13692.2 L-7137.99,13696.1 L-7135.82,13699.3 L-7132.58,13701.5 L-7128.75,13702.2 L-7124.92,13701.5 L-7121.68,13699.3 L-7119.51,13696.1 L-7118.75,13692.2 L-7118.75,12952.2 L-6378.75,12952.2 L-6374.92,12951.5 L-6371.68,12949.3 L-6369.51,12946.1 L-6368.75,12942.2 L-6369.51,12938.4 L-6371.68,12935.2 L-6374.92,12933 L-6378.75,12932.2 L-7118.75,12932.2 L-7118.75,12192.2 L-7119.51,12188.4 L-7121.68,12185.2 L-7124.92,12183 L-7128.75,12182.2 L-7132.58,12183 L-7135.82,12185.2 L-7137.99,12188.4 L-7138.75,12192.2 L-7138.75,12932.2"/>
</g>

<g fill="none" stroke="#000000" stroke-opacity="1" stroke-width="1" stroke-linecap="square" stroke-linejoin="bevel" transform="matrix(1,0,0,-1,7889.25,13702.7)"
font-family="MS Shell Dlg 2" font-size="10.3125" font-weight="400" font-style="normal" 
>
</g>

<g fill="none" stroke="#000000" stroke-opacity="1" stroke-width="1" stroke-linecap="square" stroke-linejoin="bevel" transform="matrix(1,0,0,-1,7889.25,13702.7)"
font-family="MS Shell Dlg 2" font-size="10.3125" font-weight="400" font-style="normal" 
>
</g>

<g fill="#ae5151" fill-opacity="0.2" stroke="#333333" stroke-opacity="1" stroke-width="1" stroke-linecap="round" stroke-linejoin="round" transform="matrix(1,0,0,-1,7889.25,13702.7)"
font-family="MS Shell Dlg 2" font-size="10.3125" font-weight="400" font-style="normal" 
>
<path vector-effect="non-scaling-stroke" fill-rule="evenodd" d="M-7138.75,12932.2 L-7878.75,12932.2 L-7882.58,12933 L-7885.82,12935.2 L-7887.99,12938.4 L-7888.75,12942.2 L-7887.99,12946.1 L-7885.82,12949.3 L-7882.58,12951.5 L-7878.75,12952.2 L-7138.75,12952.2 L-7138.75,13692.2 L-7137.99,13696.1 L-7135.82,13699.3 L-7132.58,13701.5 L-7128.75,13702.2 L-7124.92,13701.5 L-7121.68,13699.3 L-7119.51,13696.1 L-7118.75,13692.2 L-7118.75,12952.2 L-6378.75,12952.2 L-6374.92,12951.5 L-6371.68,12949.3 L-6369.51,12946.1 L-6368.75,12942.2 L-6369.51,12938.4 L-6371.68,12935.2 L-6374.92,12933 L-6378.75,12932.2 L-7118.75,12932.2 L-7118.75,12192.2 L-7119.51,12188.4 L-7121.68,12185.2 L-7124.92,12183 L-7128.75,12182.2 L-7132.58,12183 L-7135.82,12185.2 L-7137.99,12188.4 L-7138.75,12192.2 L-7138.75,12932.2"/>
</g>

<g fill="none" stroke="#000000" stroke-opacity="1" stroke-width="1" stroke-linecap="square" stroke-linejoin="bevel" transform="matrix(1,0,0,-1,7889.25,13702.7)"
font-family="MS Shell Dlg 2" font-size="10.3125" font-weight="400" font-style="normal" 
>
</g>

<g fill="none" stroke="#000000" stroke-opacity="1" stroke-width="1" stroke-linecap="square" stroke-linejoin="bevel" transform="matrix(1,0,0,-1,7889.25,13702.7)"
font-family="MS Shell Dlg 2" font-size="10.3125" font-weight="400" font-style="normal" 
>
</g>

<g fill="#ffff00" fill-opacity="0.2" stroke="#333333" stroke-opacity="1" stroke-width="1" stroke-linecap="round" stroke-linejoin="round" transform="matrix(1,0,0,-1,7889.25,13702.7)"
font-family="MS Shell Dlg 2" font-size="10.3125" font-weight="400" font-style="normal" 
>
<path vector-effect="non-scaling-stroke" fill-rule="evenodd" d="M-7138.75,12932.2 L-7878.75,12932.2 L-7882.58,12933 L-7885.82,12935.2 L-7887.99,12938.4 L-7888.75,12942.2 L-7887.99,12946.1 L-7885.82,12949.3 L-7882.58,12951.5 L-7878.75,12952.2 L-7138.75,12952.2 L-7138.75,13692.2 L-7137.99,13696.1 L-7135.82,13699.3 L-7132.58,13701.5 L-7128.75,13702.2 L-7124.92,13701.5 L-7121.68,13699.3 L-7119.51,13696.1 L-7118.75,13692.2 L-7118.75,12952.2 L-6378.75,12952.2 L-6374.92,12951.5 L-6371.68,12949.3 L-6369.51,12946.1 L-6368.75,12942.2 L-6369.51,12938.4 L-6371.68,12935.2 L-6374.92,12933 L-6378.75,12932.2 L-7118.75,12932.2 L-7118.75,12192.2 L-7119.51,12188.4 L-7121.68,12185.2 L-7124.92,12183 L-7128.75,12182.2 L-7132.58,12183 L-7135.82,12185.2 L-7137.99,12188.4 L-7138.75,12192.2 L-7138.75,12932.2"/>
</g>

<g fill="none" stroke="#000000" stroke-opacity="1" stroke-width="1" stroke-linecap="square" stroke-linejoin="bevel" transform="matrix(1,0,0,-1,7889.25,13702.7)"
font-family="MS Shell Dlg 2" font-size="10.3125" font-weight="400" font-style="normal" 
>
</g>

<g fill="none" stroke="#000000" stroke-opacity="1" stroke-width="1" stroke-linecap="square" stroke-linejoin="bevel" transform="matrix(1,0,0,-1,7889.25,13702.7)"
font-family="MS Shell Dlg 2" font-size="10.3125" font-weight="400" font-style="normal" 
>
</g>

<g fill="#ae5151" fill-opacity="0.2" stroke="#333333" stroke-opacity="1" stroke-width="1" stroke-linecap="round" stroke-linejoin="round" transform="matrix(1,0,0,-1,7889.25,13702.7)"
font-family="MS Shell Dlg 2" font-size="10.3125" font-weight="400" font-style="normal" 
>
<path vector-effect="non-scaling-stroke" fill-rule="evenodd" d="M-7138.75,12932.2 L-7878.75,12932.2 L-7882.58,12933 L-7885.82,12935.2 L-7887.99,12938.4 L-7888.75,12942.2 L-7887.99,12946.1 L-7885.82,12949.3 L-7882.58,12951.5 L-7878.75,12952.2 L-7138.75,12952.2 L-7138.75,13692.2 L-7137.99,13696.1 L-7135.82,13699.3 L-7132.58,13701.5 L-7128.75,13702.2 L-7124.92,13701.5 L-7121.68,13699.3 L-7119.51,13696.1 L-7118.75,13692.2 L-7118.75,12952.2 L-6378.75,12952.2 L-6374.92,12951.5 L-6371.68,12949.3 L-6369.51,12946.1 L-6368.75,12942.2 L-6369.51,12938.4 L-6371.68,12935.2 L-6374.92,12933 L-6378.75,12932.2 L-7118.75,12932.2 L-7118.75,12192.2 L-7119.51,12188.4 L-7121.68,12185.2 L-7124.92,12183 L-7128.75,12182.2 L-7132.58,12183 L-7135.82,12185.2 L-7137.99,12188.4 L-7138.75,12192.2 L-7138.75,12932.2"/>
</g>

<g fill="none" stroke="#000000" stroke-opacity="1" stroke-width="1" stroke-linecap="square" stroke-linejoin="bevel" transform="matrix(1,0,0,-1,7889.25,13702.7)"
font-family="MS Shell Dlg 2" font-size="10.3125" font-weight="400" font-style="normal" 
>
</g>

<g fill="none" stroke="#000000" stroke-opacity="1" stroke-width="1" stroke-linecap="square" stroke-linejoin="bevel" transform="matrix(1,0,0,-1,7889.25,13702.7)"
font-family="MS Shell Dlg 2" font-size="10.3125" font-weight="400" font-style="normal" 
>
</g>

<g fill="#333333" fill-opacity="0.2" stroke="#333333" stroke-opacity="1" stroke-width="1" stroke-linecap="round" stroke-linejoin="round" transform="matrix(1,0,0,-1,7889.25,13702.7)"
font-family="MS Shell Dlg 2" font-size="10.3125" font-weight="400" font-style="normal" 
>
<path vector-effect="non-scaling-stroke" fill-rule="evenodd" d="M-7138.75,12932.2 L-7878.75,12932.2 L-7882.58,12933 L-7885.82,12935.2 L-7887.99,12938.4 L-7888.75,12942.2 L-7887.99,12946.1 L-7885.82,12949.3 L-7882.58,12951.5 L-7878.75,12952.2 L-7138.75,12952.2 L-7138.75,13692.2 L-7137.99,13696.1 L-7135.82,13699.3 L-7132.58,13701.5 L-7128.75,13702.2 L-7124.92,13701.5 L-7121.68,13699.3 L-7119.51,13696.1 L-7118.75,13692.2 L-7118.75,12952.2 L-6378.75,12952.2 L-6374.92,12951.5 L-6371.68,12949.3 L-6369.51,12946.1 L-6368.75,12942.2 L-6369.51,12938.4 L-6371.68,12935.2 L-6374.92,12933 L-6378.75,12932.2 L-7118.75,12932.2 L-7118.75,12192.2 L-7119.51,12188.4 L-7121.68,12185.2 L-7124.92,12183 L-7128.75,12182.2 L-7132.58,12183 L-7135.82,12185.2 L-7137.99,12188.4 L-7138.75,12192.2 L-7138.75,12932.2"/>
</g>

<g fill="none" stroke="#000000" stroke-opacity="1" stroke-width="1" stroke-linecap="square" stroke-linejoin="bevel" transform="matrix(1,0,0,-1,7889.25,13702.7)"
font-family="MS Shell Dlg 2" font-size="10.3125" font-weight="400" font-style="normal" 
>
</g>

<g fill="none" stroke="#000000" stroke-opacity="1" stroke-width="1" stroke-linecap="square" stroke-linejoin="bevel" transform="matrix(1,0,0,-1,0,1521)"
font-family="MS Shell Dlg 2" font-size="10.3125" font-weight="400" font-style="normal" 
>
</g>
</g>
</svg>
