<?xml version="1.0" encoding="UTF-8" standalone="no"?>
<svg width="4982.35mm" height="4982.35mm"
 xmlns="http://www.w3.org/2000/svg" xmlns:xlink="http://www.w3.org/1999/xlink"  version="1.2" baseProfile="tiny">
<title>SVG Generator Example Drawing</title>
<desc>An SVG drawing created by the SVG Generator</desc>
<defs>
</defs>
<g fill="none" stroke="black" stroke-width="1" fill-rule="evenodd" stroke-linecap="square" stroke-linejoin="bevel" >

<g fill="none" stroke="#000000" stroke-opacity="1" stroke-width="1" stroke-linecap="square" stroke-linejoin="bevel" transform="matrix(1,0,0,-1,0,17654.7)"
font-family="MS Shell Dlg 2" font-size="10.3125" font-weight="400" font-style="normal" 
>
</g>

<g fill="none" stroke="#000000" stroke-opacity="1" stroke-width="1" stroke-linecap="square" stroke-linejoin="bevel" transform="matrix(1,0,0,-1,0,17654.7)"
font-family="MS Shell Dlg 2" font-size="10.3125" font-weight="400" font-style="normal" 
>
</g>

<g fill="none" stroke="#000000" stroke-opacity="1" stroke-width="1" stroke-linecap="square" stroke-linejoin="bevel" transform="matrix(0.999962,0,0,-0.999962,91485.1,31690.5)"
font-family="MS Shell Dlg 2" font-size="10.3125" font-weight="400" font-style="normal" 
>
</g>

<g fill="#333333" fill-opacity="0.2" stroke="#333333" stroke-opacity="1" stroke-width="1" stroke-linecap="round" stroke-linejoin="round" transform="matrix(0.999962,0,0,-0.999962,91485.1,31690.5)"
font-family="MS Shell Dlg 2" font-size="10.3125" font-weight="400" font-style="normal" 
>
<path vector-effect="non-scaling-stroke" fill-rule="evenodd" d="M-73834.4,22863.7 L-73876.9,21998.6 L-74004,21141.7 L-74214.5,20301.4 L-74506.3,19485.9 L-74876.7,18702.8 L-75322,17959.8 L-75838,17264.1 L-76419.7,16622.2 L-77061.5,16040.5 L-77757.3,15524.5 L-78500.3,15079.2 L-79283.3,14708.8 L-80098.9,14417 L-80939.2,14206.5 L-81796,14079.4 L-82661.2,14036.9 L-83526.4,14079.4 L-84383.3,14206.5 L-85223.5,14417 L-86039.1,14708.8 L-86822.2,15079.2 L-87565.2,15524.5 L-88260.9,16040.5 L-88902.7,16622.2 L-89484.5,17264.1 L-90000.5,17959.8 L-90445.8,18702.8 L-90816.2,19485.9 L-91108,20301.4 L-91318.5,21141.7 L-91445.6,21998.6 L-91488.1,22863.7 L-91445.6,23728.9 L-91318.5,24585.8 L-91108,25426 L-90816.2,26241.6 L-90445.8,27024.7 L-90000.5,27767.7 L-89484.5,28463.4 L-88902.7,29105.3 L-88260.9,29687 L-87565.2,30203 L-86822.2,30648.3 L-86039.1,31018.7 L-85223.5,31310.5 L-84383.3,31521 L-83526.4,31648.1 L-82661.2,31690.6 L-81796,31648.1 L-80939.2,31521 L-80098.9,31310.5 L-79283.3,31018.7 L-78500.3,30648.3 L-77757.3,30203 L-77061.5,29687 L-76419.7,29105.3 L-75838,28463.4 L-75322,27767.7 L-74876.7,27024.7 L-74506.3,26241.6 L-74214.5,25426 L-74004,24585.8 L-73876.9,23728.9 L-73834.4,22863.7"/>
</g>

<g fill="none" stroke="#000000" stroke-opacity="1" stroke-width="1" stroke-linecap="square" stroke-linejoin="bevel" transform="matrix(0.999962,0,0,-0.999962,91485.1,31690.5)"
font-family="MS Shell Dlg 2" font-size="10.3125" font-weight="400" font-style="normal" 
>
</g>

<g fill="none" stroke="#000000" stroke-opacity="1" stroke-width="1" stroke-linecap="square" stroke-linejoin="bevel" transform="matrix(0.999962,0,0,-0.999962,91485.1,31690.5)"
font-family="MS Shell Dlg 2" font-size="10.3125" font-weight="400" font-style="normal" 
>
</g>

<g fill="#ae5151" fill-opacity="0.2" stroke="#333333" stroke-opacity="1" stroke-width="1" stroke-linecap="round" stroke-linejoin="round" transform="matrix(0.999962,0,0,-0.999962,91485.1,31690.5)"
font-family="MS Shell Dlg 2" font-size="10.3125" font-weight="400" font-style="normal" 
>
<path vector-effect="non-scaling-stroke" fill-rule="evenodd" d="M-73834.4,22863.7 L-73876.9,21998.6 L-74004,21141.7 L-74214.5,20301.4 L-74506.3,19485.9 L-74876.7,18702.8 L-75322,17959.8 L-75838,17264.1 L-76419.7,16622.2 L-77061.5,16040.5 L-77757.3,15524.5 L-78500.3,15079.2 L-79283.3,14708.8 L-80098.9,14417 L-80939.2,14206.5 L-81796,14079.4 L-82661.2,14036.9 L-83526.4,14079.4 L-84383.3,14206.5 L-85223.5,14417 L-86039.1,14708.8 L-86822.2,15079.2 L-87565.2,15524.5 L-88260.9,16040.5 L-88902.7,16622.2 L-89484.5,17264.1 L-90000.5,17959.8 L-90445.8,18702.8 L-90816.2,19485.9 L-91108,20301.4 L-91318.5,21141.7 L-91445.6,21998.6 L-91488.1,22863.7 L-91445.6,23728.9 L-91318.5,24585.8 L-91108,25426 L-90816.2,26241.6 L-90445.8,27024.7 L-90000.5,27767.7 L-89484.5,28463.4 L-88902.7,29105.3 L-88260.9,29687 L-87565.2,30203 L-86822.2,30648.3 L-86039.1,31018.7 L-85223.5,31310.5 L-84383.3,31521 L-83526.4,31648.1 L-82661.2,31690.6 L-81796,31648.1 L-80939.2,31521 L-80098.9,31310.5 L-79283.3,31018.7 L-78500.3,30648.3 L-77757.3,30203 L-77061.5,29687 L-76419.7,29105.3 L-75838,28463.4 L-75322,27767.7 L-74876.7,27024.7 L-74506.3,26241.6 L-74214.5,25426 L-74004,24585.8 L-73876.9,23728.9 L-73834.4,22863.7"/>
</g>

<g fill="none" stroke="#000000" stroke-opacity="1" stroke-width="1" stroke-linecap="square" stroke-linejoin="bevel" transform="matrix(0.999962,0,0,-0.999962,91485.1,31690.5)"
font-family="MS Shell Dlg 2" font-size="10.3125" font-weight="400" font-style="normal" 
>
</g>

<g fill="none" stroke="#000000" stroke-opacity="1" stroke-width="1" stroke-linecap="square" stroke-linejoin="bevel" transform="matrix(0.999962,0,0,-0.999962,91485.1,31690.5)"
font-family="MS Shell Dlg 2" font-size="10.3125" font-weight="400" font-style="normal" 
>
</g>

<g fill="#ffff00" fill-opacity="0.2" stroke="#333333" stroke-opacity="1" stroke-width="1" stroke-linecap="round" stroke-linejoin="round" transform="matrix(0.999962,0,0,-0.999962,91485.1,31690.5)"
font-family="MS Shell Dlg 2" font-size="10.3125" font-weight="400" font-style="normal" 
>
<path vector-effect="non-scaling-stroke" fill-rule="evenodd" d="M-73834.4,22863.7 L-73876.9,21998.6 L-74004,21141.7 L-74214.5,20301.4 L-74506.3,19485.9 L-74876.7,18702.8 L-75322,17959.8 L-75838,17264.1 L-76419.7,16622.2 L-77061.5,16040.5 L-77757.3,15524.5 L-78500.3,15079.2 L-79283.3,14708.8 L-80098.9,14417 L-80939.2,14206.5 L-81796,14079.4 L-82661.2,14036.9 L-83526.4,14079.4 L-84383.3,14206.5 L-85223.5,14417 L-86039.1,14708.8 L-86822.2,15079.2 L-87565.2,15524.5 L-88260.9,16040.5 L-88902.7,16622.2 L-89484.5,17264.1 L-90000.5,17959.8 L-90445.8,18702.8 L-90816.2,19485.9 L-91108,20301.4 L-91318.5,21141.7 L-91445.6,21998.6 L-91488.1,22863.7 L-91445.6,23728.9 L-91318.5,24585.8 L-91108,25426 L-90816.2,26241.6 L-90445.8,27024.7 L-90000.5,27767.7 L-89484.5,28463.4 L-88902.7,29105.3 L-88260.9,29687 L-87565.2,30203 L-86822.2,30648.3 L-86039.1,31018.7 L-85223.5,31310.5 L-84383.3,31521 L-83526.4,31648.1 L-82661.2,31690.6 L-81796,31648.1 L-80939.2,31521 L-80098.9,31310.5 L-79283.3,31018.7 L-78500.3,30648.3 L-77757.3,30203 L-77061.5,29687 L-76419.7,29105.3 L-75838,28463.4 L-75322,27767.7 L-74876.7,27024.7 L-74506.3,26241.6 L-74214.5,25426 L-74004,24585.8 L-73876.9,23728.9 L-73834.4,22863.7"/>
</g>

<g fill="none" stroke="#000000" stroke-opacity="1" stroke-width="1" stroke-linecap="square" stroke-linejoin="bevel" transform="matrix(0.999962,0,0,-0.999962,91485.1,31690.5)"
font-family="MS Shell Dlg 2" font-size="10.3125" font-weight="400" font-style="normal" 
>
</g>

<g fill="none" stroke="#000000" stroke-opacity="1" stroke-width="1" stroke-linecap="square" stroke-linejoin="bevel" transform="matrix(0.999962,0,0,-0.999962,91485.1,31690.5)"
font-family="MS Shell Dlg 2" font-size="10.3125" font-weight="400" font-style="normal" 
>
</g>

<g fill="#ae5151" fill-opacity="0.2" stroke="#333333" stroke-opacity="1" stroke-width="1" stroke-linecap="round" stroke-linejoin="round" transform="matrix(0.999962,0,0,-0.999962,91485.1,31690.5)"
font-family="MS Shell Dlg 2" font-size="10.3125" font-weight="400" font-style="normal" 
>
<path vector-effect="non-scaling-stroke" fill-rule="evenodd" d="M-73834.4,22863.7 L-73876.9,21998.6 L-74004,21141.7 L-74214.5,20301.4 L-74506.3,19485.9 L-74876.7,18702.8 L-75322,17959.8 L-75838,17264.1 L-76419.7,16622.2 L-77061.5,16040.5 L-77757.3,15524.5 L-78500.3,15079.2 L-79283.3,14708.8 L-80098.9,14417 L-80939.2,14206.5 L-81796,14079.4 L-82661.2,14036.9 L-83526.4,14079.4 L-84383.3,14206.5 L-85223.5,14417 L-86039.1,14708.8 L-86822.2,15079.2 L-87565.2,15524.5 L-88260.9,16040.5 L-88902.7,16622.2 L-89484.5,17264.1 L-90000.5,17959.8 L-90445.8,18702.8 L-90816.2,19485.9 L-91108,20301.4 L-91318.5,21141.7 L-91445.6,21998.6 L-91488.1,22863.7 L-91445.6,23728.9 L-91318.5,24585.8 L-91108,25426 L-90816.2,26241.6 L-90445.8,27024.7 L-90000.5,27767.7 L-89484.5,28463.4 L-88902.7,29105.3 L-88260.9,29687 L-87565.2,30203 L-86822.2,30648.3 L-86039.1,31018.7 L-85223.5,31310.5 L-84383.3,31521 L-83526.4,31648.1 L-82661.2,31690.6 L-81796,31648.1 L-80939.2,31521 L-80098.9,31310.5 L-79283.3,31018.7 L-78500.3,30648.3 L-77757.3,30203 L-77061.5,29687 L-76419.7,29105.3 L-75838,28463.4 L-75322,27767.7 L-74876.7,27024.7 L-74506.3,26241.6 L-74214.5,25426 L-74004,24585.8 L-73876.9,23728.9 L-73834.4,22863.7"/>
</g>

<g fill="none" stroke="#000000" stroke-opacity="1" stroke-width="1" stroke-linecap="square" stroke-linejoin="bevel" transform="matrix(0.999962,0,0,-0.999962,91485.1,31690.5)"
font-family="MS Shell Dlg 2" font-size="10.3125" font-weight="400" font-style="normal" 
>
</g>

<g fill="none" stroke="#000000" stroke-opacity="1" stroke-width="1" stroke-linecap="square" stroke-linejoin="bevel" transform="matrix(0.999962,0,0,-0.999962,91485.1,31690.5)"
font-family="MS Shell Dlg 2" font-size="10.3125" font-weight="400" font-style="normal" 
>
</g>

<g fill="#333333" fill-opacity="0.2" stroke="#333333" stroke-opacity="1" stroke-width="1" stroke-linecap="round" stroke-linejoin="round" transform="matrix(0.999962,0,0,-0.999962,91485.1,31690.5)"
font-family="MS Shell Dlg 2" font-size="10.3125" font-weight="400" font-style="normal" 
>
<path vector-effect="non-scaling-stroke" fill-rule="evenodd" d="M-73834.4,22863.7 L-73876.9,21998.6 L-74004,21141.7 L-74214.5,20301.4 L-74506.3,19485.9 L-74876.7,18702.8 L-75322,17959.8 L-75838,17264.1 L-76419.7,16622.2 L-77061.5,16040.5 L-77757.3,15524.5 L-78500.3,15079.2 L-79283.3,14708.8 L-80098.9,14417 L-80939.2,14206.5 L-81796,14079.4 L-82661.2,14036.9 L-83526.4,14079.4 L-84383.3,14206.5 L-85223.5,14417 L-86039.1,14708.8 L-86822.2,15079.2 L-87565.2,15524.5 L-88260.9,16040.5 L-88902.7,16622.2 L-89484.5,17264.1 L-90000.5,17959.8 L-90445.8,18702.8 L-90816.2,19485.9 L-91108,20301.4 L-91318.5,21141.7 L-91445.6,21998.6 L-91488.1,22863.7 L-91445.6,23728.9 L-91318.5,24585.8 L-91108,25426 L-90816.2,26241.6 L-90445.8,27024.7 L-90000.5,27767.7 L-89484.5,28463.4 L-88902.7,29105.3 L-88260.9,29687 L-87565.2,30203 L-86822.2,30648.3 L-86039.1,31018.7 L-85223.5,31310.5 L-84383.3,31521 L-83526.4,31648.1 L-82661.2,31690.6 L-81796,31648.1 L-80939.2,31521 L-80098.9,31310.5 L-79283.3,31018.7 L-78500.3,30648.3 L-77757.3,30203 L-77061.5,29687 L-76419.7,29105.3 L-75838,28463.4 L-75322,27767.7 L-74876.7,27024.7 L-74506.3,26241.6 L-74214.5,25426 L-74004,24585.8 L-73876.9,23728.9 L-73834.4,22863.7"/>
</g>

<g fill="none" stroke="#000000" stroke-opacity="1" stroke-width="1" stroke-linecap="square" stroke-linejoin="bevel" transform="matrix(0.999962,0,0,-0.999962,91485.1,31690.5)"
font-family="MS Shell Dlg 2" font-size="10.3125" font-weight="400" font-style="normal" 
>
</g>

<g fill="none" stroke="#000000" stroke-opacity="1" stroke-width="1" stroke-linecap="square" stroke-linejoin="bevel" transform="matrix(1,0,0,-1,0,17654.7)"
font-family="MS Shell Dlg 2" font-size="10.3125" font-weight="400" font-style="normal" 
>
</g>
</g>
</svg>
