<?xml version="1.0" encoding="UTF-8" standalone="no"?>
<svg width="102407mm" height="40144.1mm"
 xmlns="http://www.w3.org/2000/svg" xmlns:xlink="http://www.w3.org/1999/xlink"  version="1.2" baseProfile="tiny">
<title>SVG Generator Example Drawing</title>
<desc>An SVG drawing created by the SVG Generator</desc>
<defs>
</defs>
<g fill="none" stroke="black" stroke-width="1" fill-rule="evenodd" stroke-linecap="square" stroke-linejoin="bevel" >

<g fill="none" stroke="#000000" stroke-opacity="1" stroke-width="1" stroke-linecap="square" stroke-linejoin="bevel" transform="matrix(1,0,0,-1,0,142243)"
font-family="MS Shell Dlg 2" font-size="10.3125" font-weight="400" font-style="normal" 
>
</g>

<g fill="none" stroke="#000000" stroke-opacity="1" stroke-width="1" stroke-linecap="square" stroke-linejoin="bevel" transform="matrix(1,0,0,-1,0,142243)"
font-family="MS Shell Dlg 2" font-size="10.3125" font-weight="400" font-style="normal" 
>
</g>

<g fill="none" stroke="#000000" stroke-opacity="1" stroke-width="1" stroke-linecap="square" stroke-linejoin="bevel" transform="matrix(0.999997,0,0,-0.999997,142770,100562)"
font-family="MS Shell Dlg 2" font-size="10.3125" font-weight="400" font-style="normal" 
>
</g>

<g fill="#333333" fill-opacity="0.2" stroke="#333333" stroke-opacity="1" stroke-width="1" stroke-linecap="round" stroke-linejoin="round" transform="matrix(0.999997,0,0,-0.999997,142770,100562)"
font-family="MS Shell Dlg 2" font-size="10.3125" font-weight="400" font-style="normal" 
>
<path vector-effect="non-scaling-stroke" fill-rule="evenodd" d="M-76742.9,-38265.8 L-102353,-33345.3 L-104396,-32720.4 L-134923,-19675 L-137974,-17640 L-140086,-14642 L-140975,-11084.1 L-142770,18550.8 L-142326,22161.9 L-140619,25375 L-137876,27764.8 L-106141,46516.5 L-103323,47646.4 L-76343.8,53931.7 L-76277.1,54029.9 L-73016.6,56173.1 L-69184.1,56905.4 L3762.28,56354.2 L21741.7,94814.1 L23799.6,97719.5 L26744.9,99719.8 L30204.4,100561 L33739.4,100138 L36901.9,98502.2 L59091.7,81414.8 L74936.7,69213.2 L75120.2,68990.9 L75432.7,68831.2 L87047,59887.4 L92462.9,55716.9 L109978,42229.6 L116192,42081.6 L120000,41229.5 L123192,38985.2 L123547,38425.7 L149727,38425.7 L153554,37664.5 L156799,35496.8 L157579,34327.9 L171172,34061.4 L174470,33996.8 L202598,65885.6 L205727,68265.3 L209532,69254.7 L213425,68700.8 L216803,66689.3 L219144,63531.1 L220087,59714.4 L219486,55829.1 L205516,17716.6 L204235,6823.46 L206158,-2792.42 L215400,-26436.1 L216086,-30175.9 L215326,-33901.3 L213231,-37073.9 L210103,-39234.9 L206394,-40072.1 L202641,-39464.4 L199386,-37499.6 L174151,-14719 L158104,-14404.4 L156799,-16358.7 L153554,-18526.4 L149727,-19287.6 L123943,-19287.6 L121729,-22435.3 L118434,-24525.2 L114591,-25195.1 L102770,-24913.6 L80143.6,-24374.9 L79666.9,-27019.5 L77557.9,-30302.3 L74353.3,-32528.1 L70540.8,-33358.1 L23680.6,-34202.4 L17620.1,-34311.6 L17358.2,-35577.8 L15166.1,-38805.6 L11905.5,-40948.7 L8073.06,-41681 L-69924.5,-41091.7 L-73745.5,-40301.6 L-76742.9,-38265.8"/>
</g>

<g fill="none" stroke="#000000" stroke-opacity="1" stroke-width="1" stroke-linecap="square" stroke-linejoin="bevel" transform="matrix(0.999997,0,0,-0.999997,142770,100562)"
font-family="MS Shell Dlg 2" font-size="10.3125" font-weight="400" font-style="normal" 
>
</g>

<g fill="none" stroke="#000000" stroke-opacity="1" stroke-width="1" stroke-linecap="square" stroke-linejoin="bevel" transform="matrix(0.999997,0,0,-0.999997,142770,100562)"
font-family="MS Shell Dlg 2" font-size="10.3125" font-weight="400" font-style="normal" 
>
</g>

<g fill="#ae5151" fill-opacity="0.2" stroke="#333333" stroke-opacity="1" stroke-width="1" stroke-linecap="round" stroke-linejoin="round" transform="matrix(0.999997,0,0,-0.999997,142770,100562)"
font-family="MS Shell Dlg 2" font-size="10.3125" font-weight="400" font-style="normal" 
>
<path vector-effect="non-scaling-stroke" fill-rule="evenodd" d="M-76742.9,-38265.8 L-102353,-33345.3 L-104396,-32720.4 L-134923,-19675 L-137974,-17640 L-140086,-14642 L-140975,-11084.1 L-142770,18550.8 L-142326,22161.9 L-140619,25375 L-137876,27764.8 L-106141,46516.5 L-103323,47646.4 L-76343.8,53931.7 L-76277.1,54029.9 L-73016.6,56173.1 L-69184.1,56905.4 L3762.28,56354.2 L21741.7,94814.1 L23799.6,97719.5 L26744.9,99719.8 L30204.4,100561 L33739.4,100138 L36901.9,98502.2 L59091.7,81414.8 L74936.7,69213.2 L75120.2,68990.9 L75432.7,68831.2 L87047,59887.4 L92462.9,55716.9 L109978,42229.6 L116192,42081.6 L120000,41229.5 L123192,38985.2 L123547,38425.7 L149727,38425.7 L153554,37664.5 L156799,35496.8 L157579,34327.9 L171172,34061.4 L174470,33996.8 L202598,65885.6 L205727,68265.3 L209532,69254.7 L213425,68700.8 L216803,66689.3 L219144,63531.1 L220087,59714.4 L219486,55829.1 L205516,17716.6 L204235,6823.46 L206158,-2792.42 L215400,-26436.1 L216086,-30175.9 L215326,-33901.3 L213231,-37073.9 L210103,-39234.9 L206394,-40072.1 L202641,-39464.4 L199386,-37499.6 L174151,-14719 L158104,-14404.4 L156799,-16358.7 L153554,-18526.4 L149727,-19287.6 L123943,-19287.6 L121729,-22435.3 L118434,-24525.2 L114591,-25195.1 L102770,-24913.6 L80143.6,-24374.9 L79666.9,-27019.5 L77557.9,-30302.3 L74353.3,-32528.1 L70540.8,-33358.1 L23680.6,-34202.4 L17620.1,-34311.6 L17358.2,-35577.8 L15166.1,-38805.6 L11905.5,-40948.7 L8073.06,-41681 L-69924.5,-41091.7 L-73745.5,-40301.6 L-76742.9,-38265.8"/>
</g>

<g fill="none" stroke="#000000" stroke-opacity="1" stroke-width="1" stroke-linecap="square" stroke-linejoin="bevel" transform="matrix(0.999997,0,0,-0.999997,142770,100562)"
font-family="MS Shell Dlg 2" font-size="10.3125" font-weight="400" font-style="normal" 
>
</g>

<g fill="none" stroke="#000000" stroke-opacity="1" stroke-width="1" stroke-linecap="square" stroke-linejoin="bevel" transform="matrix(0.999997,0,0,-0.999997,142770,100562)"
font-family="MS Shell Dlg 2" font-size="10.3125" font-weight="400" font-style="normal" 
>
</g>

<g fill="#ffff00" fill-opacity="0.2" stroke="#333333" stroke-opacity="1" stroke-width="1" stroke-linecap="round" stroke-linejoin="round" transform="matrix(0.999997,0,0,-0.999997,142770,100562)"
font-family="MS Shell Dlg 2" font-size="10.3125" font-weight="400" font-style="normal" 
>
<path vector-effect="non-scaling-stroke" fill-rule="evenodd" d="M-76742.9,-38265.8 L-102353,-33345.3 L-104396,-32720.4 L-134923,-19675 L-137974,-17640 L-140086,-14642 L-140975,-11084.1 L-142770,18550.8 L-142326,22161.9 L-140619,25375 L-137876,27764.8 L-106141,46516.5 L-103323,47646.4 L-76343.8,53931.7 L-76277.1,54029.9 L-73016.6,56173.1 L-69184.1,56905.4 L3762.28,56354.2 L21741.7,94814.1 L23799.6,97719.5 L26744.9,99719.8 L30204.4,100561 L33739.4,100138 L36901.9,98502.2 L59091.7,81414.8 L74936.7,69213.2 L75120.2,68990.9 L75432.7,68831.2 L87047,59887.4 L92462.9,55716.9 L109978,42229.6 L116192,42081.6 L120000,41229.5 L123192,38985.2 L123547,38425.7 L149727,38425.7 L153554,37664.5 L156799,35496.8 L157579,34327.9 L171172,34061.4 L174470,33996.8 L202598,65885.6 L205727,68265.3 L209532,69254.7 L213425,68700.8 L216803,66689.3 L219144,63531.1 L220087,59714.4 L219486,55829.1 L205516,17716.6 L204235,6823.46 L206158,-2792.42 L215400,-26436.1 L216086,-30175.9 L215326,-33901.3 L213231,-37073.9 L210103,-39234.9 L206394,-40072.1 L202641,-39464.4 L199386,-37499.6 L174151,-14719 L158104,-14404.4 L156799,-16358.7 L153554,-18526.4 L149727,-19287.6 L123943,-19287.6 L121729,-22435.3 L118434,-24525.2 L114591,-25195.1 L102770,-24913.6 L80143.6,-24374.9 L79666.9,-27019.5 L77557.9,-30302.3 L74353.3,-32528.1 L70540.8,-33358.1 L23680.6,-34202.4 L17620.1,-34311.6 L17358.2,-35577.8 L15166.1,-38805.6 L11905.5,-40948.7 L8073.06,-41681 L-69924.5,-41091.7 L-73745.5,-40301.6 L-76742.9,-38265.8"/>
</g>

<g fill="none" stroke="#000000" stroke-opacity="1" stroke-width="1" stroke-linecap="square" stroke-linejoin="bevel" transform="matrix(0.999997,0,0,-0.999997,142770,100562)"
font-family="MS Shell Dlg 2" font-size="10.3125" font-weight="400" font-style="normal" 
>
</g>

<g fill="none" stroke="#000000" stroke-opacity="1" stroke-width="1" stroke-linecap="square" stroke-linejoin="bevel" transform="matrix(0.999997,0,0,-0.999997,142770,100562)"
font-family="MS Shell Dlg 2" font-size="10.3125" font-weight="400" font-style="normal" 
>
</g>

<g fill="#ae5151" fill-opacity="0.2" stroke="#333333" stroke-opacity="1" stroke-width="1" stroke-linecap="round" stroke-linejoin="round" transform="matrix(0.999997,0,0,-0.999997,142770,100562)"
font-family="MS Shell Dlg 2" font-size="10.3125" font-weight="400" font-style="normal" 
>
<path vector-effect="non-scaling-stroke" fill-rule="evenodd" d="M-76742.9,-38265.8 L-102353,-33345.3 L-104396,-32720.4 L-134923,-19675 L-137974,-17640 L-140086,-14642 L-140975,-11084.1 L-142770,18550.8 L-142326,22161.9 L-140619,25375 L-137876,27764.8 L-106141,46516.5 L-103323,47646.4 L-76343.8,53931.7 L-76277.1,54029.9 L-73016.6,56173.1 L-69184.1,56905.4 L3762.28,56354.2 L21741.7,94814.1 L23799.6,97719.5 L26744.9,99719.8 L30204.4,100561 L33739.4,100138 L36901.9,98502.2 L59091.7,81414.8 L74936.7,69213.2 L75120.2,68990.9 L75432.7,68831.2 L87047,59887.4 L92462.9,55716.9 L109978,42229.6 L116192,42081.6 L120000,41229.5 L123192,38985.2 L123547,38425.7 L149727,38425.7 L153554,37664.5 L156799,35496.8 L157579,34327.9 L171172,34061.4 L174470,33996.8 L202598,65885.6 L205727,68265.3 L209532,69254.7 L213425,68700.8 L216803,66689.3 L219144,63531.1 L220087,59714.4 L219486,55829.1 L205516,17716.6 L204235,6823.46 L206158,-2792.42 L215400,-26436.1 L216086,-30175.9 L215326,-33901.3 L213231,-37073.9 L210103,-39234.9 L206394,-40072.1 L202641,-39464.4 L199386,-37499.6 L174151,-14719 L158104,-14404.4 L156799,-16358.7 L153554,-18526.4 L149727,-19287.6 L123943,-19287.6 L121729,-22435.3 L118434,-24525.2 L114591,-25195.1 L102770,-24913.6 L80143.6,-24374.9 L79666.9,-27019.5 L77557.9,-30302.3 L74353.3,-32528.1 L70540.8,-33358.1 L23680.6,-34202.4 L17620.1,-34311.6 L17358.2,-35577.8 L15166.1,-38805.6 L11905.5,-40948.7 L8073.06,-41681 L-69924.5,-41091.7 L-73745.5,-40301.6 L-76742.9,-38265.8"/>
</g>

<g fill="none" stroke="#000000" stroke-opacity="1" stroke-width="1" stroke-linecap="square" stroke-linejoin="bevel" transform="matrix(0.999997,0,0,-0.999997,142770,100562)"
font-family="MS Shell Dlg 2" font-size="10.3125" font-weight="400" font-style="normal" 
>
</g>

<g fill="none" stroke="#000000" stroke-opacity="1" stroke-width="1" stroke-linecap="square" stroke-linejoin="bevel" transform="matrix(0.999997,0,0,-0.999997,142770,100562)"
font-family="MS Shell Dlg 2" font-size="10.3125" font-weight="400" font-style="normal" 
>
</g>

<g fill="#333333" fill-opacity="0.2" stroke="#333333" stroke-opacity="1" stroke-width="1" stroke-linecap="round" stroke-linejoin="round" transform="matrix(0.999997,0,0,-0.999997,142770,100562)"
font-family="MS Shell Dlg 2" font-size="10.3125" font-weight="400" font-style="normal" 
>
<path vector-effect="non-scaling-stroke" fill-rule="evenodd" d="M-76742.9,-38265.8 L-102353,-33345.3 L-104396,-32720.4 L-134923,-19675 L-137974,-17640 L-140086,-14642 L-140975,-11084.1 L-142770,18550.8 L-142326,22161.9 L-140619,25375 L-137876,27764.8 L-106141,46516.5 L-103323,47646.4 L-76343.8,53931.7 L-76277.1,54029.9 L-73016.6,56173.1 L-69184.1,56905.4 L3762.28,56354.2 L21741.7,94814.1 L23799.6,97719.5 L26744.9,99719.8 L30204.4,100561 L33739.4,100138 L36901.9,98502.2 L59091.7,81414.8 L74936.7,69213.2 L75120.2,68990.9 L75432.7,68831.2 L87047,59887.4 L92462.9,55716.9 L109978,42229.6 L116192,42081.6 L120000,41229.5 L123192,38985.2 L123547,38425.7 L149727,38425.7 L153554,37664.5 L156799,35496.8 L157579,34327.9 L171172,34061.4 L174470,33996.8 L202598,65885.6 L205727,68265.3 L209532,69254.7 L213425,68700.8 L216803,66689.3 L219144,63531.1 L220087,59714.4 L219486,55829.1 L205516,17716.6 L204235,6823.46 L206158,-2792.42 L215400,-26436.1 L216086,-30175.9 L215326,-33901.3 L213231,-37073.9 L210103,-39234.9 L206394,-40072.1 L202641,-39464.4 L199386,-37499.6 L174151,-14719 L158104,-14404.4 L156799,-16358.7 L153554,-18526.4 L149727,-19287.6 L123943,-19287.6 L121729,-22435.3 L118434,-24525.2 L114591,-25195.1 L102770,-24913.6 L80143.6,-24374.9 L79666.9,-27019.5 L77557.9,-30302.3 L74353.3,-32528.1 L70540.8,-33358.1 L23680.6,-34202.4 L17620.1,-34311.6 L17358.2,-35577.8 L15166.1,-38805.6 L11905.5,-40948.7 L8073.06,-41681 L-69924.5,-41091.7 L-73745.5,-40301.6 L-76742.9,-38265.8"/>
</g>

<g fill="none" stroke="#000000" stroke-opacity="1" stroke-width="1" stroke-linecap="square" stroke-linejoin="bevel" transform="matrix(0.999997,0,0,-0.999997,142770,100562)"
font-family="MS Shell Dlg 2" font-size="10.3125" font-weight="400" font-style="normal" 
>
</g>

<g fill="none" stroke="#000000" stroke-opacity="1" stroke-width="1" stroke-linecap="square" stroke-linejoin="bevel" transform="matrix(1,0,0,-1,0,142243)"
font-family="MS Shell Dlg 2" font-size="10.3125" font-weight="400" font-style="normal" 
>
</g>
</g>
</svg>
