<?xml version="1.0" encoding="UTF-8" standalone="no"?>
<svg width="102407mm" height="40144.7mm"
 xmlns="http://www.w3.org/2000/svg" xmlns:xlink="http://www.w3.org/1999/xlink"  version="1.2" baseProfile="tiny">
<title>SVG Generator Example Drawing</title>
<desc>An SVG drawing created by the SVG Generator</desc>
<defs>
</defs>
<g fill="none" stroke="black" stroke-width="1" fill-rule="evenodd" stroke-linecap="square" stroke-linejoin="bevel" >

<g fill="none" stroke="#000000" stroke-opacity="1" stroke-width="1" stroke-linecap="square" stroke-linejoin="bevel" transform="matrix(1,0,0,-1,0,142245)"
font-family="MS Shell Dlg 2" font-size="10.3125" font-weight="400" font-style="normal" 
>
</g>

<g fill="none" stroke="#000000" stroke-opacity="1" stroke-width="1" stroke-linecap="square" stroke-linejoin="bevel" transform="matrix(1,0,0,-1,0,142245)"
font-family="MS Shell Dlg 2" font-size="10.3125" font-weight="400" font-style="normal" 
>
</g>

<g fill="none" stroke="#000000" stroke-opacity="1" stroke-width="1" stroke-linecap="square" stroke-linejoin="bevel" transform="matrix(0.999997,0,0,-0.999997,142771,100563)"
font-family="MS Shell Dlg 2" font-size="10.3125" font-weight="400" font-style="normal" 
>
</g>

<g fill="#333333" fill-opacity="0.2" stroke="#333333" stroke-opacity="1" stroke-width="1" stroke-linecap="round" stroke-linejoin="round" transform="matrix(0.999997,0,0,-0.999997,142771,100563)"
font-family="MS Shell Dlg 2" font-size="10.3125" font-weight="400" font-style="normal" 
>
<path vector-effect="non-scaling-stroke" fill-rule="evenodd" d="M-73833.4,22863.7 L-73833.4,22863.7 L-73875.9,21998.5 L-73875.9,21998.4 L-74003,21141.6 L-74003,21141.5 L-74213.5,20301.2 L-74213.5,20301.1 L-74505.4,19485.5 L-74505.4,19485.4 L-74875.8,18702.4 L-74875.8,18702.3 L-75321.1,17959.3 L-75321.2,17959.2 L-75837.2,17263.5 L-75837.3,17263.4 L-76419,16621.6 L-76419,16621.5 L-77060.9,16039.8 L-77060.9,16039.7 L-77756.7,15523.7 L-77756.8,15523.6 L-78499.8,15078.3 L-78499.9,15078.3 L-79282.9,14707.9 L-79283,14707.9 L-80098.6,14416.1 L-80098.7,14416 L-80939,14205.5 L-80939.1,14205.5 L-81795.9,14078.4 L-81796,14078.4 L-82661.2,14035.9 L-82661.3,14035.9 L-83526.5,14078.4 L-83526.6,14078.4 L-84383.4,14205.5 L-84383.5,14205.5 L-85223.8,14416 L-85223.9,14416.1 L-86039.4,14707.9 L-86039.5,14707.9 L-86822.6,15078.3 L-86822.7,15078.3 L-87565.7,15523.6 L-87565.7,15523.7 L-88261.5,16039.7 L-88261.6,16039.8 L-88903.4,16621.5 L-88903.5,16621.6 L-89485.2,17263.4 L-89485.3,17263.5 L-90001.3,17959.2 L-90001.3,17959.3 L-90446.7,18702.3 L-90446.7,18702.4 L-90817.1,19485.4 L-90817.1,19485.5 L-91108.9,20301.1 L-91108.9,20301.2 L-91319.4,21141.5 L-91319.4,21141.6 L-91446.5,21998.4 L-91446.6,21998.5 L-91489.1,22863.7 L-91489.1,22863.8 L-91446.6,23729 L-91446.5,23729.1 L-91319.4,24585.9 L-91319.4,24586 L-91108.9,25426.3 L-91108.9,25426.4 L-90817.1,26242 L-90817.1,26242.1 L-90446.7,27025.1 L-90446.7,27025.2 L-90001.3,27768.2 L-90001.3,27768.3 L-89485.3,28464 L-89485.2,28464.1 L-88903.5,29105.9 L-88903.4,29106 L-88261.6,29687.7 L-88261.5,29687.8 L-87565.7,30203.8 L-87565.7,30203.8 L-86822.7,30649.2 L-86822.6,30649.2 L-86039.5,31019.6 L-86039.4,31019.6 L-85223.9,31311.4 L-85223.8,31311.5 L-84383.5,31521.9 L-84383.4,31522 L-83526.6,31649.1 L-83526.5,31649.1 L-82661.3,31691.6 L-82661.2,31691.6 L-81796,31649.1 L-81795.9,31649.1 L-80939.1,31522 L-80939,31521.9 L-80098.7,31311.5 L-80098.6,31311.4 L-79283,31019.6 L-79282.9,31019.6 L-78499.9,30649.2 L-78499.8,30649.2 L-77756.8,30203.8 L-77756.7,30203.8 L-77060.9,29687.8 L-77060.9,29687.7 L-76419,29106 L-76419,29105.9 L-75837.3,28464.1 L-75837.2,28464 L-75321.2,27768.3 L-75321.1,27768.2 L-74875.8,27025.2 L-74875.8,27025.1 L-74505.4,26242.1 L-74505.4,26242 L-74213.5,25426.4 L-74213.5,25426.3 L-74003,24586 L-74003,24585.9 L-73875.9,23729.1 L-73875.9,23729 L-73833.4,22863.8 L-73833.4,22863.7"/>
</g>

<g fill="none" stroke="#000000" stroke-opacity="1" stroke-width="1" stroke-linecap="square" stroke-linejoin="bevel" transform="matrix(0.999997,0,0,-0.999997,142771,100563)"
font-family="MS Shell Dlg 2" font-size="10.3125" font-weight="400" font-style="normal" 
>
</g>

<g fill="none" stroke="#000000" stroke-opacity="1" stroke-width="1" stroke-linecap="square" stroke-linejoin="bevel" transform="matrix(0.999997,0,0,-0.999997,142771,100563)"
font-family="MS Shell Dlg 2" font-size="10.3125" font-weight="400" font-style="normal" 
>
</g>

<g fill="#333333" fill-opacity="0.2" stroke="#333333" stroke-opacity="1" stroke-width="1" stroke-linecap="round" stroke-linejoin="round" transform="matrix(0.999997,0,0,-0.999997,142771,100563)"
font-family="MS Shell Dlg 2" font-size="10.3125" font-weight="400" font-style="normal" 
>
<path vector-effect="non-scaling-stroke" fill-rule="evenodd" d="M-76743.3,-38266.8 L-102353,-33346.2 L-102353,-33346.2 L-104396,-32721.4 L-104396,-32721.4 L-134923,-19676 L-134924,-19675.9 L-137974,-17640.8 L-137975,-17640.6 L-140087,-14642.5 L-140087,-14642.2 L-140976,-11084.3 L-140976,-11084.2 L-142771,18550.7 L-142771,18550.9 L-142327,22162 L-142327,22162.3 L-140620,25375.4 L-140620,25375.7 L-137876,27765.5 L-137876,27765.6 L-106141,46517.4 L-106141,46517.5 L-103323,47647.3 L-103323,47647.4 L-76344.5,53932.5 L-76277.9,54030.5 L-76277.7,54030.8 L-73017.1,56173.9 L-73016.8,56174.1 L-69184.3,56906.3 L-69184.1,56906.4 L3761.64,56355.2 L21740.8,94814.5 L21740.9,94814.7 L23798.7,97720.1 L23799,97720.3 L26744.3,99720.6 L26744.7,99720.8 L30204.1,100562 L30204.5,100562 L33739.5,100139 L33739.9,100139 L36902.4,98503.1 L36902.5,98503 L59092.3,81415.6 L74937.3,69214 L74937.4,69213.8 L75120.9,68991.7 L75433.2,68832.1 L75433.3,68832 L87047.7,59888.2 L92463.5,55717.7 L109978,42230.6 L116192,42082.6 L116193,42082.6 L120000,41230.5 L120001,41230.4 L123192,38986 L123193,38985.7 L123547,38426.7 L149727,38426.7 L149728,38426.7 L153554,37665.5 L153555,37665.3 L156799,35497.6 L156799,35497.3 L157580,34328.9 L171172,34062.4 L174470,33997.8 L202597,65886.3 L202597,65886.4 L205727,68266.1 L205727,68266.3 L209532,69255.6 L209533,69255.7 L213425,68701.8 L213425,68701.7 L216803,66690.2 L216804,66689.9 L219145,63531.7 L219145,63531.4 L220088,59714.6 L220088,59714.3 L219487,55828.9 L219487,55828.7 L205517,17716.4 L204236,6823.51 L206159,-2792.14 L215401,-26435.8 L215401,-26435.9 L216087,-30175.7 L216087,-30176.1 L215327,-33901.5 L215327,-33901.8 L213232,-37074.4 L213232,-37074.7 L210103,-39235.8 L210103,-39235.9 L206394,-40073.1 L206394,-40073.1 L202641,-39465.4 L202640,-39465.2 L199385,-37500.4 L199385,-37500.3 L174151,-14720 L158105,-14405.4 L156799,-16359.2 L156799,-16359.5 L153555,-18527.2 L153554,-18527.4 L149728,-19288.6 L149727,-19288.6 L123943,-19288.6 L121730,-22435.8 L121730,-22436.1 L118435,-24526 L118435,-24526.2 L114591,-25196.1 L114591,-25196.1 L102770,-24914.6 L80144.4,-24375.9 L79667.9,-27019.7 L79667.7,-27020 L77558.8,-30302.8 L77558.5,-30303.1 L74353.9,-32528.9 L74353.5,-32529.1 L70541,-33359.1 L70540.8,-33359.1 L23680.6,-34203.4 L17620.9,-34312.6 L17359.2,-35578 L17359.1,-35578.4 L15166.9,-38806.1 L15166.6,-38806.4 L11906.1,-40949.6 L11905.7,-40949.7 L8073.24,-41682 L8073.05,-41682 L-69924.6,-41092.7 L-69924.8,-41092.7 L-73745.7,-40302.6 L-73746.1,-40302.4 L-76743.3,-38266.8 M-6352.11,-31571.5 L-6351.98,-31571.2 L-6351.76,-31571 L-6351.46,-31570.8 L-6351.12,-31570.7 L8147.62,-31680.3 L8202.03,-24479.7 L8202.1,-24479.3 L8202.31,-24479 L8202.63,-24478.8 L8203.01,-24478.7 L18501.4,-24293.1 L18501.9,-24293.2 L18502.2,-24293.5 L18502.4,-24293.9 L18917.3,-26199.4 L20030.2,-27801.7 L21671.6,-28856.1 L23591.6,-29202.2 L54829.5,-28639.4 L56735.9,-28224.4 L58338.2,-27111.4 L59392.7,-25470.1 L59738.6,-23550.9 L59738.7,-23550.6 L59738.9,-23550.3 L59739.2,-23550.2 L59739.6,-23550.1 L70359.6,-23358.8 L70193.4,-14135.2 L70193.5,-14134.8 L70193.7,-14134.5 L70194.1,-14134.3 L70194.5,-14134.2 L74368.4,-14233.6 L74368.8,-14233.6 L74369.1,-14233.8 L74369.3,-14234.1 L74369.4,-14234.4 L74704.2,-16155.5 L75749.2,-17803 L77345,-18925.1 L79248.9,-19351.2 L102888,-19914 L104810,-19579 L106457,-18534.1 L107580,-16938.3 L108005,-15035.2 L108006,-15034.8 L108006,-15034.6 L108006,-15034.5 L114828,-15196.9 L114968,-9287.58 L114968,-9287.21 L114969,-9286.89 L114969,-9286.68 L114969,-9286.6 L116443,-9286.6 L116443,-9286.66 L116443,-9286.83 L116444,-9287.09 L116444,-9287.41 L116824,-11200 L117908,-12822.1 L119530,-13906 L121444,-14286.6 L140298,-14286.6 L142212,-13906 L143834,-12822.1 L144917,-11200 L145298,-9287.41 L145298,-9287.09 L145298,-9286.83 L145299,-9286.66 L145299,-9286.6 L149726,-9286.6 L149726,-4238.19 L149727,-4237.81 L149727,-4237.48 L149727,-4237.26 L149727,-4237.19 L151061,-4263.34 L151062,-4263.46 L151062,-4263.75 L151062,-4264.17 L151405,-6183.86 L152457,-7826.91 L154057,-8942.36 L155963,-9360.42 L170314,-9641.82 L172235,-9298.79 L173878,-8246.93 L174993,-6646.38 L175411,-4741.6 L175411,-4741.29 L175412,-4741.03 L175412,-4740.87 L175412,-4740.82 L177589,-4783.5 L177598,-4358.85 L177598,-4358.48 L177598,-4358.17 L177598,-4357.96 L177599,-4357.87 L177599,-4357.94 L177599,-4358.13 L206084,-30073.3 L196524,-5615.35 L196523,-5615.18 L194117,6416.93 L194117,6417.24 L195721,20053.6 L195721,20053.9 L210095,59266 L178136,23034.8 L178136,23034.6 L178136,23034.5 L178135,23034.6 L178135,23034.8 L178135,23035.1 L178135,23035.5 L178152,23921.6 L175975,23964.3 L175975,23964.4 L175974,23964.7 L175974,23965.1 L175631,25884.8 L174579,27527.9 L172979,28643.3 L171073,29061.4 L156722,29342.8 L154801,28999.8 L153158,27947.9 L152043,26347.4 L151625,24442.6 L151625,24442.3 L151625,24442 L151624,24441.9 L151624,24441.8 L149727,24479 L149727,24479.1 L149727,24479.3 L149727,24479.6 L149726,24480 L149726,28424.7 L145299,28424.7 L145299,28424.8 L145298,28424.9 L145298,28425.2 L145298,28425.5 L144917,30338.1 L143834,31960.2 L142212,33044.1 L140298,33424.7 L121444,33424.7 L119530,33044.1 L117908,31960.2 L116824,30338.1 L116444,28425.5 L116444,28425.2 L116443,28424.9 L116443,28424.8 L116443,28424.7 L115867,28424.7 L115867,28424.8 L115867,28425 L115866,28425.3 L115866,28425.7 L115953,32083.5 L109132,32245.9 L109132,32246 L109132,32246.2 L109131,32246.5 L109131,32246.9 L109131,32246.9 L109172,33957.3 L108686,36230.4 L107224,38038 L89411.6,51754.6 L83997.4,55923.9 L82371.8,56755 L80556.2,56947.1 L78792.7,56474.6 L77316.4,55400.5 L77039.4,54972.7 L77039.1,54972.4 L77038.7,54972.2 L77038.3,54972.2 L77038,54972.4 L69332.4,60906.1 L69054,49213.5 L69053.9,49213.1 L69053.7,49212.8 L69053.4,49212.6 L69053,49212.5 L69052.6,49212.6 L69052.3,49212.8 L69052.1,49213.1 L69052,49213.5 L68834.4,61289.6 L58061,69585.8 L58060.7,69586.2 L58060.6,69586.6 L57988.6,73581.2 L57455.6,75739.1 L56040,77452.8 L33851.8,94539.1 L32270.4,95356.8 L30502.9,95568.7 L28773.2,95147.9 L27300.5,94147.8 L26271.5,92695 L17251.5,73400.2 L16781.8,71192.5 L16965.7,60982.6 L16965.7,60982.2 L8716.33,43336 L8716.11,43335.7 L8715.78,43335.5 L8715.4,43335.4 L8715.02,43335.5 L8714.71,43335.7 L8714.5,43336 L8714.43,43336.4 L8736.93,46315.3 L-5761.81,46424.9 L-5762.14,46424.9 L-5762.44,46425.1 L-5762.66,46425.4 L-5762.78,46425.7 L-6128.76,48341.1 L-7200.33,49971.4 L-8814.21,51067.4 L-10724.8,51462.5 L-49721.4,51757.2 L-51637.7,51391 L-53268,50319.4 L-54364.1,48705.6 L-54758.9,46795.9 L-54759.1,46795.5 L-54759.5,46795.2 L-54759.9,46795.1 L-69258.7,46904.6 L-69270.7,45311.5 L-69270.8,45311 L-69271.1,45310.7 L-69271.5,45310.5 L-101053,37906.3 L-132787,19154.9 L-130992,-10478.8 L-100466,-23523.9 L-69836.1,-29409 L-69835.8,-29409.1 L-69835.5,-29409.3 L-69835.3,-29409.6 L-69835.3,-29410 L-69848,-31091 L-55349.2,-31200.5 L-55348.9,-31200.6 L-55348.6,-31200.8 L-55348.4,-31201 L-55348.3,-31201.3 L-54982.3,-33116.8 L-53910.7,-34747 L-52296.8,-35843.1 L-50386.3,-36238.2 L-11389.7,-36532.8 L-9473.33,-36166.7 L-7843.08,-35095.1 L-6746.99,-33481.2 L-6352.11,-31571.5"/>
</g>

<g fill="none" stroke="#000000" stroke-opacity="1" stroke-width="1" stroke-linecap="square" stroke-linejoin="bevel" transform="matrix(0.999997,0,0,-0.999997,142771,100563)"
font-family="MS Shell Dlg 2" font-size="10.3125" font-weight="400" font-style="normal" 
>
</g>

<g fill="none" stroke="#000000" stroke-opacity="1" stroke-width="1" stroke-linecap="square" stroke-linejoin="bevel" transform="matrix(0.999997,0,0,-0.999997,142771,100563)"
font-family="MS Shell Dlg 2" font-size="10.3125" font-weight="400" font-style="normal" 
>
</g>

<g fill="#ae5151" fill-opacity="0.2" stroke="#333333" stroke-opacity="1" stroke-width="1" stroke-linecap="round" stroke-linejoin="round" transform="matrix(0.999997,0,0,-0.999997,142771,100563)"
font-family="MS Shell Dlg 2" font-size="10.3125" font-weight="400" font-style="normal" 
>
<path vector-effect="non-scaling-stroke" fill-rule="evenodd" d="M-73833.4,22863.7 L-73833.4,22863.7 L-73875.9,21998.5 L-73875.9,21998.4 L-74003,21141.6 L-74003,21141.5 L-74213.5,20301.2 L-74213.5,20301.1 L-74505.4,19485.5 L-74505.4,19485.4 L-74875.8,18702.4 L-74875.8,18702.3 L-75321.1,17959.3 L-75321.2,17959.2 L-75837.2,17263.5 L-75837.3,17263.4 L-76419,16621.6 L-76419,16621.5 L-77060.9,16039.8 L-77060.9,16039.7 L-77756.7,15523.7 L-77756.8,15523.6 L-78499.8,15078.3 L-78499.9,15078.3 L-79282.9,14707.9 L-79283,14707.9 L-80098.6,14416.1 L-80098.7,14416 L-80939,14205.5 L-80939.1,14205.5 L-81795.9,14078.4 L-81796,14078.4 L-82661.2,14035.9 L-82661.3,14035.9 L-83526.5,14078.4 L-83526.6,14078.4 L-84383.4,14205.5 L-84383.5,14205.5 L-85223.8,14416 L-85223.9,14416.1 L-86039.4,14707.9 L-86039.5,14707.9 L-86822.6,15078.3 L-86822.7,15078.3 L-87565.7,15523.6 L-87565.7,15523.7 L-88261.5,16039.7 L-88261.6,16039.8 L-88903.4,16621.5 L-88903.5,16621.6 L-89485.2,17263.4 L-89485.3,17263.5 L-90001.3,17959.2 L-90001.3,17959.3 L-90446.7,18702.3 L-90446.7,18702.4 L-90817.1,19485.4 L-90817.1,19485.5 L-91108.9,20301.1 L-91108.9,20301.2 L-91319.4,21141.5 L-91319.4,21141.6 L-91446.5,21998.4 L-91446.6,21998.5 L-91489.1,22863.7 L-91489.1,22863.8 L-91446.6,23729 L-91446.5,23729.1 L-91319.4,24585.9 L-91319.4,24586 L-91108.9,25426.3 L-91108.9,25426.4 L-90817.1,26242 L-90817.1,26242.1 L-90446.7,27025.1 L-90446.7,27025.2 L-90001.3,27768.2 L-90001.3,27768.3 L-89485.3,28464 L-89485.2,28464.1 L-88903.5,29105.9 L-88903.4,29106 L-88261.6,29687.7 L-88261.5,29687.8 L-87565.7,30203.8 L-87565.7,30203.8 L-86822.7,30649.2 L-86822.6,30649.2 L-86039.5,31019.6 L-86039.4,31019.6 L-85223.9,31311.4 L-85223.8,31311.5 L-84383.5,31521.9 L-84383.4,31522 L-83526.6,31649.1 L-83526.5,31649.1 L-82661.3,31691.6 L-82661.2,31691.6 L-81796,31649.1 L-81795.9,31649.1 L-80939.1,31522 L-80939,31521.9 L-80098.7,31311.5 L-80098.6,31311.4 L-79283,31019.6 L-79282.9,31019.6 L-78499.9,30649.2 L-78499.8,30649.2 L-77756.8,30203.8 L-77756.7,30203.8 L-77060.9,29687.8 L-77060.9,29687.7 L-76419,29106 L-76419,29105.9 L-75837.3,28464.1 L-75837.2,28464 L-75321.2,27768.3 L-75321.1,27768.2 L-74875.8,27025.2 L-74875.8,27025.1 L-74505.4,26242.1 L-74505.4,26242 L-74213.5,25426.4 L-74213.5,25426.3 L-74003,24586 L-74003,24585.9 L-73875.9,23729.1 L-73875.9,23729 L-73833.4,22863.8 L-73833.4,22863.7"/>
</g>

<g fill="none" stroke="#000000" stroke-opacity="1" stroke-width="1" stroke-linecap="square" stroke-linejoin="bevel" transform="matrix(0.999997,0,0,-0.999997,142771,100563)"
font-family="MS Shell Dlg 2" font-size="10.3125" font-weight="400" font-style="normal" 
>
</g>

<g fill="none" stroke="#000000" stroke-opacity="1" stroke-width="1" stroke-linecap="square" stroke-linejoin="bevel" transform="matrix(0.999997,0,0,-0.999997,142771,100563)"
font-family="MS Shell Dlg 2" font-size="10.3125" font-weight="400" font-style="normal" 
>
</g>

<g fill="#ae5151" fill-opacity="0.2" stroke="#333333" stroke-opacity="1" stroke-width="1" stroke-linecap="round" stroke-linejoin="round" transform="matrix(0.999997,0,0,-0.999997,142771,100563)"
font-family="MS Shell Dlg 2" font-size="10.3125" font-weight="400" font-style="normal" 
>
<path vector-effect="non-scaling-stroke" fill-rule="evenodd" d="M-76743.3,-38266.8 L-102353,-33346.2 L-102353,-33346.2 L-104396,-32721.4 L-104396,-32721.4 L-134923,-19676 L-134924,-19675.9 L-137974,-17640.8 L-137975,-17640.6 L-140087,-14642.5 L-140087,-14642.2 L-140976,-11084.3 L-140976,-11084.2 L-142771,18550.7 L-142771,18550.9 L-142327,22162 L-142327,22162.3 L-140620,25375.4 L-140620,25375.7 L-137876,27765.5 L-137876,27765.6 L-106141,46517.4 L-106141,46517.5 L-103323,47647.3 L-103323,47647.4 L-76344.5,53932.5 L-76277.9,54030.5 L-76277.7,54030.8 L-73017.1,56173.9 L-73016.8,56174.1 L-69184.3,56906.3 L-69184.1,56906.4 L3761.64,56355.2 L21740.8,94814.5 L21740.9,94814.7 L23798.7,97720.1 L23799,97720.3 L26744.3,99720.6 L26744.7,99720.8 L30204.1,100562 L30204.5,100562 L33739.5,100139 L33739.9,100139 L36902.4,98503.1 L36902.5,98503 L59092.3,81415.6 L74937.3,69214 L74937.4,69213.8 L75120.9,68991.7 L75433.2,68832.1 L75433.3,68832 L87047.7,59888.2 L92463.5,55717.7 L109978,42230.6 L116192,42082.6 L116193,42082.6 L120000,41230.5 L120001,41230.4 L123192,38986 L123193,38985.7 L123547,38426.7 L149727,38426.7 L149728,38426.7 L153554,37665.5 L153555,37665.3 L156799,35497.6 L156799,35497.3 L157580,34328.9 L171172,34062.4 L174470,33997.8 L202597,65886.3 L202597,65886.4 L205727,68266.1 L205727,68266.3 L209532,69255.6 L209533,69255.7 L213425,68701.8 L213425,68701.7 L216803,66690.2 L216804,66689.9 L219145,63531.7 L219145,63531.4 L220088,59714.6 L220088,59714.3 L219487,55828.9 L219487,55828.7 L205517,17716.4 L204236,6823.51 L206159,-2792.14 L215401,-26435.8 L215401,-26435.9 L216087,-30175.7 L216087,-30176.1 L215327,-33901.5 L215327,-33901.8 L213232,-37074.4 L213232,-37074.7 L210103,-39235.8 L210103,-39235.9 L206394,-40073.1 L206394,-40073.1 L202641,-39465.4 L202640,-39465.2 L199385,-37500.4 L199385,-37500.3 L174151,-14720 L158105,-14405.4 L156799,-16359.2 L156799,-16359.5 L153555,-18527.2 L153554,-18527.4 L149728,-19288.6 L149727,-19288.6 L123943,-19288.6 L121730,-22435.8 L121730,-22436.1 L118435,-24526 L118435,-24526.2 L114591,-25196.1 L114591,-25196.1 L102770,-24914.6 L80144.4,-24375.9 L79667.9,-27019.7 L79667.7,-27020 L77558.8,-30302.8 L77558.5,-30303.1 L74353.9,-32528.9 L74353.5,-32529.1 L70541,-33359.1 L70540.8,-33359.1 L23680.6,-34203.4 L17620.9,-34312.6 L17359.2,-35578 L17359.1,-35578.4 L15166.9,-38806.1 L15166.6,-38806.4 L11906.1,-40949.6 L11905.7,-40949.7 L8073.24,-41682 L8073.05,-41682 L-69924.6,-41092.7 L-69924.8,-41092.7 L-73745.7,-40302.6 L-73746.1,-40302.4 L-76743.3,-38266.8 M8147.62,-31680.3 L8202.03,-24479.7 L8202.1,-24479.3 L8202.31,-24479 L8202.63,-24478.8 L8203.01,-24478.7 L23500.4,-24203.1 L70359.6,-23358.8 L70193.4,-14135.2 L70193.5,-14134.8 L70193.7,-14134.5 L70194.1,-14134.3 L70194.5,-14134.2 L103008,-14915.5 L114828,-15196.9 L114968,-9287.58 L114968,-9287.21 L114969,-9286.89 L114969,-9286.68 L114969,-9286.6 L149726,-9286.6 L149726,-4238.19 L149727,-4237.81 L149727,-4237.48 L149727,-4237.26 L149727,-4237.19 L156060,-4361.36 L177589,-4783.5 L177598,-4358.85 L177598,-4358.48 L177598,-4358.17 L177598,-4357.96 L177599,-4357.87 L177599,-4357.94 L177599,-4358.13 L206084,-30073.3 L196524,-5615.35 L196523,-5615.18 L194117,6416.93 L194117,6417.24 L195721,20053.6 L195721,20053.9 L210095,59266 L178136,23034.8 L178136,23034.6 L178136,23034.5 L178135,23034.6 L178135,23034.8 L178135,23035.1 L178135,23035.5 L178152,23921.6 L170976,24062.3 L149727,24479 L149727,24479.1 L149727,24479.3 L149727,24479.6 L149726,24480 L149726,28424.7 L115867,28424.7 L115867,28424.8 L115867,28425 L115866,28425.3 L115866,28425.7 L115953,32083.5 L106469,32309.3 L106468,32309.4 L106468,32309.5 L105722,32884.1 L104174,34076.1 L86361,47793.1 L80945.2,51963.6 L69332.4,60906.1 L69054,49213.5 L69053.9,49213.1 L69053.7,49212.8 L69053.4,49212.6 L69053,49212.5 L69052.6,49212.6 L69052.3,49212.8 L69052.1,49213.1 L69052,49213.5 L68834.4,61289.6 L52989.8,73490.9 L30801.1,90577.6 L8716.33,43336 L8716.11,43335.7 L8715.78,43335.5 L8715.4,43335.4 L8715.02,43335.5 L8714.71,43335.7 L8714.5,43336 L8714.43,43336.4 L8736.93,46315.3 L-69258.7,46904.6 L-69270.7,45311.5 L-69270.8,45311 L-69271.1,45310.7 L-69271.5,45310.5 L-101053,37906.3 L-132787,19154.9 L-130992,-10478.8 L-100466,-23523.9 L-69836.1,-29409 L-69835.8,-29409.1 L-69835.5,-29409.3 L-69835.3,-29409.6 L-69835.3,-29410 L-69848,-31091 L8147.62,-31680.3"/>
</g>

<g fill="none" stroke="#000000" stroke-opacity="1" stroke-width="1" stroke-linecap="square" stroke-linejoin="bevel" transform="matrix(0.999997,0,0,-0.999997,142771,100563)"
font-family="MS Shell Dlg 2" font-size="10.3125" font-weight="400" font-style="normal" 
>
</g>

<g fill="none" stroke="#000000" stroke-opacity="1" stroke-width="1" stroke-linecap="square" stroke-linejoin="bevel" transform="matrix(0.999997,0,0,-0.999997,142771,100563)"
font-family="MS Shell Dlg 2" font-size="10.3125" font-weight="400" font-style="normal" 
>
</g>

<g fill="#ffff00" fill-opacity="0.2" stroke="#333333" stroke-opacity="1" stroke-width="1" stroke-linecap="round" stroke-linejoin="round" transform="matrix(0.999997,0,0,-0.999997,142771,100563)"
font-family="MS Shell Dlg 2" font-size="10.3125" font-weight="400" font-style="normal" 
>
<path vector-effect="non-scaling-stroke" fill-rule="evenodd" d="M-73833.4,22863.7 L-73833.4,22863.7 L-73875.9,21998.5 L-73875.9,21998.4 L-74003,21141.6 L-74003,21141.5 L-74213.5,20301.2 L-74213.5,20301.1 L-74505.4,19485.5 L-74505.4,19485.4 L-74875.8,18702.4 L-74875.8,18702.3 L-75321.1,17959.3 L-75321.2,17959.2 L-75837.2,17263.5 L-75837.3,17263.4 L-76419,16621.6 L-76419,16621.5 L-77060.9,16039.8 L-77060.9,16039.7 L-77756.7,15523.7 L-77756.8,15523.6 L-78499.8,15078.3 L-78499.9,15078.3 L-79282.9,14707.9 L-79283,14707.9 L-80098.6,14416.1 L-80098.7,14416 L-80939,14205.5 L-80939.1,14205.5 L-81795.9,14078.4 L-81796,14078.4 L-82661.2,14035.9 L-82661.3,14035.9 L-83526.5,14078.4 L-83526.6,14078.4 L-84383.4,14205.5 L-84383.5,14205.5 L-85223.8,14416 L-85223.9,14416.1 L-86039.4,14707.9 L-86039.5,14707.9 L-86822.6,15078.3 L-86822.7,15078.3 L-87565.7,15523.6 L-87565.7,15523.7 L-88261.5,16039.7 L-88261.6,16039.8 L-88903.4,16621.5 L-88903.5,16621.6 L-89485.2,17263.4 L-89485.3,17263.5 L-90001.3,17959.2 L-90001.3,17959.3 L-90446.7,18702.3 L-90446.7,18702.4 L-90817.1,19485.4 L-90817.1,19485.5 L-91108.9,20301.1 L-91108.9,20301.2 L-91319.4,21141.5 L-91319.4,21141.6 L-91446.5,21998.4 L-91446.6,21998.5 L-91489.1,22863.7 L-91489.1,22863.8 L-91446.6,23729 L-91446.5,23729.1 L-91319.4,24585.9 L-91319.4,24586 L-91108.9,25426.3 L-91108.9,25426.4 L-90817.1,26242 L-90817.1,26242.1 L-90446.7,27025.1 L-90446.7,27025.2 L-90001.3,27768.2 L-90001.3,27768.3 L-89485.3,28464 L-89485.2,28464.1 L-88903.5,29105.9 L-88903.4,29106 L-88261.6,29687.7 L-88261.5,29687.8 L-87565.7,30203.8 L-87565.7,30203.8 L-86822.7,30649.2 L-86822.6,30649.2 L-86039.5,31019.6 L-86039.4,31019.6 L-85223.9,31311.4 L-85223.8,31311.5 L-84383.5,31521.9 L-84383.4,31522 L-83526.6,31649.1 L-83526.5,31649.1 L-82661.3,31691.6 L-82661.2,31691.6 L-81796,31649.1 L-81795.9,31649.1 L-80939.1,31522 L-80939,31521.9 L-80098.7,31311.5 L-80098.6,31311.4 L-79283,31019.6 L-79282.9,31019.6 L-78499.9,30649.2 L-78499.8,30649.2 L-77756.8,30203.8 L-77756.7,30203.8 L-77060.9,29687.8 L-77060.9,29687.7 L-76419,29106 L-76419,29105.9 L-75837.3,28464.1 L-75837.2,28464 L-75321.2,27768.3 L-75321.1,27768.2 L-74875.8,27025.2 L-74875.8,27025.1 L-74505.4,26242.1 L-74505.4,26242 L-74213.5,25426.4 L-74213.5,25426.3 L-74003,24586 L-74003,24585.9 L-73875.9,23729.1 L-73875.9,23729 L-73833.4,22863.8 L-73833.4,22863.7"/>
</g>

<g fill="none" stroke="#000000" stroke-opacity="1" stroke-width="1" stroke-linecap="square" stroke-linejoin="bevel" transform="matrix(0.999997,0,0,-0.999997,142771,100563)"
font-family="MS Shell Dlg 2" font-size="10.3125" font-weight="400" font-style="normal" 
>
</g>

<g fill="none" stroke="#000000" stroke-opacity="1" stroke-width="1" stroke-linecap="square" stroke-linejoin="bevel" transform="matrix(0.999997,0,0,-0.999997,142771,100563)"
font-family="MS Shell Dlg 2" font-size="10.3125" font-weight="400" font-style="normal" 
>
</g>

<g fill="#ffff00" fill-opacity="0.2" stroke="#333333" stroke-opacity="1" stroke-width="1" stroke-linecap="round" stroke-linejoin="round" transform="matrix(0.999997,0,0,-0.999997,142771,100563)"
font-family="MS Shell Dlg 2" font-size="10.3125" font-weight="400" font-style="normal" 
>
<path vector-effect="non-scaling-stroke" fill-rule="evenodd" d="M-76743.3,-38266.8 L-102353,-33346.2 L-102353,-33346.2 L-104396,-32721.4 L-104396,-32721.4 L-134923,-19676 L-134924,-19675.9 L-137974,-17640.8 L-137975,-17640.6 L-140087,-14642.5 L-140087,-14642.2 L-140976,-11084.3 L-140976,-11084.2 L-142771,18550.7 L-142771,18550.9 L-142327,22162 L-142327,22162.3 L-140620,25375.4 L-140620,25375.7 L-137876,27765.5 L-137876,27765.6 L-106141,46517.4 L-106141,46517.5 L-103323,47647.3 L-103323,47647.4 L-76344.5,53932.5 L-76277.9,54030.5 L-76277.7,54030.8 L-73017.1,56173.9 L-73016.8,56174.1 L-69184.3,56906.3 L-69184.1,56906.4 L3761.64,56355.2 L21740.8,94814.5 L21740.9,94814.7 L23798.7,97720.1 L23799,97720.3 L26744.3,99720.6 L26744.7,99720.8 L30204.1,100562 L30204.5,100562 L33739.5,100139 L33739.9,100139 L36902.4,98503.1 L36902.5,98503 L59092.3,81415.6 L74937.3,69214 L74937.4,69213.8 L75120.9,68991.7 L75433.2,68832.1 L75433.3,68832 L87047.7,59888.2 L92463.5,55717.7 L109978,42230.6 L116192,42082.6 L116193,42082.6 L120000,41230.5 L120001,41230.4 L123192,38986 L123193,38985.7 L123547,38426.7 L149727,38426.7 L149728,38426.7 L153554,37665.5 L153555,37665.3 L156799,35497.6 L156799,35497.3 L157580,34328.9 L171172,34062.4 L174470,33997.8 L202597,65886.3 L202597,65886.4 L205727,68266.1 L205727,68266.3 L209532,69255.6 L209533,69255.7 L213425,68701.8 L213425,68701.7 L216803,66690.2 L216804,66689.9 L219145,63531.7 L219145,63531.4 L220088,59714.6 L220088,59714.3 L219487,55828.9 L219487,55828.7 L205517,17716.4 L204236,6823.51 L206159,-2792.14 L215401,-26435.8 L215401,-26435.9 L216087,-30175.7 L216087,-30176.1 L215327,-33901.5 L215327,-33901.8 L213232,-37074.4 L213232,-37074.7 L210103,-39235.8 L210103,-39235.9 L206394,-40073.1 L206394,-40073.1 L202641,-39465.4 L202640,-39465.2 L199385,-37500.4 L199385,-37500.3 L174151,-14720 L158105,-14405.4 L156799,-16359.2 L156799,-16359.5 L153555,-18527.2 L153554,-18527.4 L149728,-19288.6 L149727,-19288.6 L123943,-19288.6 L121730,-22435.8 L121730,-22436.1 L118435,-24526 L118435,-24526.2 L114591,-25196.1 L114591,-25196.1 L102770,-24914.6 L80144.4,-24375.9 L79667.9,-27019.7 L79667.7,-27020 L77558.8,-30302.8 L77558.5,-30303.1 L74353.9,-32528.9 L74353.5,-32529.1 L70541,-33359.1 L70540.8,-33359.1 L23680.6,-34203.4 L17620.9,-34312.6 L17359.2,-35578 L17359.1,-35578.4 L15166.9,-38806.1 L15166.6,-38806.4 L11906.1,-40949.6 L11905.7,-40949.7 L8073.24,-41682 L8073.05,-41682 L-69924.6,-41092.7 L-69924.8,-41092.7 L-73745.7,-40302.6 L-73746.1,-40302.4 L-76743.3,-38266.8 M8147.62,-31680.3 L8202.03,-24479.7 L8202.1,-24479.3 L8202.31,-24479 L8202.63,-24478.8 L8203.01,-24478.7 L23500.4,-24203.1 L70359.6,-23358.8 L70193.4,-14135.2 L70193.5,-14134.8 L70193.7,-14134.5 L70194.1,-14134.3 L70194.5,-14134.2 L103008,-14915.5 L114828,-15196.9 L114968,-9287.58 L114968,-9287.21 L114969,-9286.89 L114969,-9286.68 L114969,-9286.6 L149726,-9286.6 L149726,-4238.19 L149727,-4237.81 L149727,-4237.48 L149727,-4237.26 L149727,-4237.19 L156060,-4361.36 L177589,-4783.5 L177598,-4358.85 L177598,-4358.48 L177598,-4358.17 L177598,-4357.96 L177599,-4357.87 L177599,-4357.94 L177599,-4358.13 L206084,-30073.3 L196524,-5615.35 L196523,-5615.18 L194117,6416.93 L194117,6417.24 L195721,20053.6 L195721,20053.9 L210095,59266 L178136,23034.8 L178136,23034.6 L178136,23034.5 L178135,23034.6 L178135,23034.8 L178135,23035.1 L178135,23035.5 L178152,23921.6 L170976,24062.3 L149727,24479 L149727,24479.1 L149727,24479.3 L149727,24479.6 L149726,24480 L149726,28424.7 L115867,28424.7 L115867,28424.8 L115867,28425 L115866,28425.3 L115866,28425.7 L115953,32083.5 L106469,32309.3 L106468,32309.4 L106468,32309.5 L105722,32884.1 L104174,34076.1 L86361,47793.1 L80945.2,51963.6 L69332.4,60906.1 L69054,49213.5 L69053.9,49213.1 L69053.7,49212.8 L69053.4,49212.6 L69053,49212.5 L69052.6,49212.6 L69052.3,49212.8 L69052.1,49213.1 L69052,49213.5 L68834.4,61289.6 L52989.8,73490.9 L30801.1,90577.6 L8716.33,43336 L8716.11,43335.7 L8715.78,43335.5 L8715.4,43335.4 L8715.02,43335.5 L8714.71,43335.7 L8714.5,43336 L8714.43,43336.4 L8736.93,46315.3 L-69258.7,46904.6 L-69270.7,45311.5 L-69270.8,45311 L-69271.1,45310.7 L-69271.5,45310.5 L-101053,37906.3 L-132787,19154.9 L-130992,-10478.8 L-100466,-23523.9 L-69836.1,-29409 L-69835.8,-29409.1 L-69835.5,-29409.3 L-69835.3,-29409.6 L-69835.3,-29410 L-69848,-31091 L8147.62,-31680.3"/>
</g>

<g fill="none" stroke="#000000" stroke-opacity="1" stroke-width="1" stroke-linecap="square" stroke-linejoin="bevel" transform="matrix(0.999997,0,0,-0.999997,142771,100563)"
font-family="MS Shell Dlg 2" font-size="10.3125" font-weight="400" font-style="normal" 
>
</g>

<g fill="none" stroke="#000000" stroke-opacity="1" stroke-width="1" stroke-linecap="square" stroke-linejoin="bevel" transform="matrix(0.999997,0,0,-0.999997,142771,100563)"
font-family="MS Shell Dlg 2" font-size="10.3125" font-weight="400" font-style="normal" 
>
</g>

<g fill="#ae5151" fill-opacity="0.2" stroke="#333333" stroke-opacity="1" stroke-width="1" stroke-linecap="round" stroke-linejoin="round" transform="matrix(0.999997,0,0,-0.999997,142771,100563)"
font-family="MS Shell Dlg 2" font-size="10.3125" font-weight="400" font-style="normal" 
>
<path vector-effect="non-scaling-stroke" fill-rule="evenodd" d="M-73833.4,22863.7 L-73833.4,22863.7 L-73875.9,21998.5 L-73875.9,21998.4 L-74003,21141.6 L-74003,21141.5 L-74213.5,20301.2 L-74213.5,20301.1 L-74505.4,19485.5 L-74505.4,19485.4 L-74875.8,18702.4 L-74875.8,18702.3 L-75321.1,17959.3 L-75321.2,17959.2 L-75837.2,17263.5 L-75837.3,17263.4 L-76419,16621.6 L-76419,16621.5 L-77060.9,16039.8 L-77060.9,16039.7 L-77756.7,15523.7 L-77756.8,15523.6 L-78499.8,15078.3 L-78499.9,15078.3 L-79282.9,14707.9 L-79283,14707.9 L-80098.6,14416.1 L-80098.7,14416 L-80939,14205.5 L-80939.1,14205.5 L-81795.9,14078.4 L-81796,14078.4 L-82661.2,14035.9 L-82661.3,14035.9 L-83526.5,14078.4 L-83526.6,14078.4 L-84383.4,14205.5 L-84383.5,14205.5 L-85223.8,14416 L-85223.9,14416.1 L-86039.4,14707.9 L-86039.5,14707.9 L-86822.6,15078.3 L-86822.7,15078.3 L-87565.7,15523.6 L-87565.7,15523.7 L-88261.5,16039.7 L-88261.6,16039.8 L-88903.4,16621.5 L-88903.5,16621.6 L-89485.2,17263.4 L-89485.3,17263.5 L-90001.3,17959.2 L-90001.3,17959.3 L-90446.7,18702.3 L-90446.7,18702.4 L-90817.1,19485.4 L-90817.1,19485.5 L-91108.9,20301.1 L-91108.9,20301.2 L-91319.4,21141.5 L-91319.4,21141.6 L-91446.5,21998.4 L-91446.6,21998.5 L-91489.1,22863.7 L-91489.1,22863.8 L-91446.6,23729 L-91446.5,23729.1 L-91319.4,24585.9 L-91319.4,24586 L-91108.9,25426.3 L-91108.9,25426.4 L-90817.1,26242 L-90817.1,26242.1 L-90446.7,27025.1 L-90446.7,27025.2 L-90001.3,27768.2 L-90001.3,27768.3 L-89485.3,28464 L-89485.2,28464.1 L-88903.5,29105.9 L-88903.4,29106 L-88261.6,29687.7 L-88261.5,29687.8 L-87565.7,30203.8 L-87565.7,30203.8 L-86822.7,30649.2 L-86822.6,30649.2 L-86039.5,31019.6 L-86039.4,31019.6 L-85223.9,31311.4 L-85223.8,31311.5 L-84383.5,31521.9 L-84383.4,31522 L-83526.6,31649.1 L-83526.5,31649.1 L-82661.3,31691.6 L-82661.2,31691.6 L-81796,31649.1 L-81795.9,31649.1 L-80939.1,31522 L-80939,31521.9 L-80098.7,31311.5 L-80098.6,31311.4 L-79283,31019.6 L-79282.9,31019.6 L-78499.9,30649.2 L-78499.8,30649.2 L-77756.8,30203.8 L-77756.7,30203.8 L-77060.9,29687.8 L-77060.9,29687.7 L-76419,29106 L-76419,29105.9 L-75837.3,28464.1 L-75837.2,28464 L-75321.2,27768.3 L-75321.1,27768.2 L-74875.8,27025.2 L-74875.8,27025.1 L-74505.4,26242.1 L-74505.4,26242 L-74213.5,25426.4 L-74213.5,25426.3 L-74003,24586 L-74003,24585.9 L-73875.9,23729.1 L-73875.9,23729 L-73833.4,22863.8 L-73833.4,22863.7"/>
</g>

<g fill="none" stroke="#000000" stroke-opacity="1" stroke-width="1" stroke-linecap="square" stroke-linejoin="bevel" transform="matrix(0.999997,0,0,-0.999997,142771,100563)"
font-family="MS Shell Dlg 2" font-size="10.3125" font-weight="400" font-style="normal" 
>
</g>

<g fill="none" stroke="#000000" stroke-opacity="1" stroke-width="1" stroke-linecap="square" stroke-linejoin="bevel" transform="matrix(0.999997,0,0,-0.999997,142771,100563)"
font-family="MS Shell Dlg 2" font-size="10.3125" font-weight="400" font-style="normal" 
>
</g>

<g fill="#ae5151" fill-opacity="0.2" stroke="#333333" stroke-opacity="1" stroke-width="1" stroke-linecap="round" stroke-linejoin="round" transform="matrix(0.999997,0,0,-0.999997,142771,100563)"
font-family="MS Shell Dlg 2" font-size="10.3125" font-weight="400" font-style="normal" 
>
<path vector-effect="non-scaling-stroke" fill-rule="evenodd" d="M-76743.3,-38266.8 L-102353,-33346.2 L-102353,-33346.2 L-104396,-32721.4 L-104396,-32721.4 L-134923,-19676 L-134924,-19675.9 L-137974,-17640.8 L-137975,-17640.6 L-140087,-14642.5 L-140087,-14642.2 L-140976,-11084.3 L-140976,-11084.2 L-142771,18550.7 L-142771,18550.9 L-142327,22162 L-142327,22162.3 L-140620,25375.4 L-140620,25375.7 L-137876,27765.5 L-137876,27765.6 L-106141,46517.4 L-106141,46517.5 L-103323,47647.3 L-103323,47647.4 L-76344.5,53932.5 L-76277.9,54030.5 L-76277.7,54030.8 L-73017.1,56173.9 L-73016.8,56174.1 L-69184.3,56906.3 L-69184.1,56906.4 L3761.64,56355.2 L21740.8,94814.5 L21740.9,94814.7 L23798.7,97720.1 L23799,97720.3 L26744.3,99720.6 L26744.7,99720.8 L30204.1,100562 L30204.5,100562 L33739.5,100139 L33739.9,100139 L36902.4,98503.1 L36902.5,98503 L59092.3,81415.6 L74937.3,69214 L74937.4,69213.8 L75120.9,68991.7 L75433.2,68832.1 L75433.3,68832 L87047.7,59888.2 L92463.5,55717.7 L109978,42230.6 L116192,42082.6 L116193,42082.6 L120000,41230.5 L120001,41230.4 L123192,38986 L123193,38985.7 L123547,38426.7 L149727,38426.7 L149728,38426.7 L153554,37665.5 L153555,37665.3 L156799,35497.6 L156799,35497.3 L157580,34328.9 L171172,34062.4 L174470,33997.8 L202597,65886.3 L202597,65886.4 L205727,68266.1 L205727,68266.3 L209532,69255.6 L209533,69255.7 L213425,68701.8 L213425,68701.7 L216803,66690.2 L216804,66689.9 L219145,63531.7 L219145,63531.4 L220088,59714.6 L220088,59714.3 L219487,55828.9 L219487,55828.7 L205517,17716.4 L204236,6823.51 L206159,-2792.14 L215401,-26435.8 L215401,-26435.9 L216087,-30175.7 L216087,-30176.1 L215327,-33901.5 L215327,-33901.8 L213232,-37074.4 L213232,-37074.7 L210103,-39235.8 L210103,-39235.9 L206394,-40073.1 L206394,-40073.1 L202641,-39465.4 L202640,-39465.2 L199385,-37500.4 L199385,-37500.3 L174151,-14720 L158105,-14405.4 L156799,-16359.2 L156799,-16359.5 L153555,-18527.2 L153554,-18527.4 L149728,-19288.6 L149727,-19288.6 L123943,-19288.6 L121730,-22435.8 L121730,-22436.1 L118435,-24526 L118435,-24526.2 L114591,-25196.1 L114591,-25196.1 L102770,-24914.6 L80144.4,-24375.9 L79667.9,-27019.7 L79667.7,-27020 L77558.8,-30302.8 L77558.5,-30303.1 L74353.9,-32528.9 L74353.5,-32529.1 L70541,-33359.1 L70540.8,-33359.1 L23680.6,-34203.4 L17620.9,-34312.6 L17359.2,-35578 L17359.1,-35578.4 L15166.9,-38806.1 L15166.6,-38806.4 L11906.1,-40949.6 L11905.7,-40949.7 L8073.24,-41682 L8073.05,-41682 L-69924.6,-41092.7 L-69924.8,-41092.7 L-73745.7,-40302.6 L-73746.1,-40302.4 L-76743.3,-38266.8 M8147.62,-31680.3 L8202.03,-24479.7 L8202.1,-24479.3 L8202.31,-24479 L8202.63,-24478.8 L8203.01,-24478.7 L23500.4,-24203.1 L70359.6,-23358.8 L70193.4,-14135.2 L70193.5,-14134.8 L70193.7,-14134.5 L70194.1,-14134.3 L70194.5,-14134.2 L103008,-14915.5 L114828,-15196.9 L114968,-9287.58 L114968,-9287.21 L114969,-9286.89 L114969,-9286.68 L114969,-9286.6 L149726,-9286.6 L149726,-4238.19 L149727,-4237.81 L149727,-4237.48 L149727,-4237.26 L149727,-4237.19 L156060,-4361.36 L177589,-4783.5 L177598,-4358.85 L177598,-4358.48 L177598,-4358.17 L177598,-4357.96 L177599,-4357.87 L177599,-4357.94 L177599,-4358.13 L206084,-30073.3 L196524,-5615.35 L196523,-5615.18 L194117,6416.93 L194117,6417.24 L195721,20053.6 L195721,20053.9 L210095,59266 L178136,23034.8 L178136,23034.6 L178136,23034.5 L178135,23034.6 L178135,23034.8 L178135,23035.1 L178135,23035.5 L178152,23921.6 L170976,24062.3 L149727,24479 L149727,24479.1 L149727,24479.3 L149727,24479.6 L149726,24480 L149726,28424.7 L115867,28424.7 L115867,28424.8 L115867,28425 L115866,28425.3 L115866,28425.7 L115953,32083.5 L106469,32309.3 L106468,32309.4 L106468,32309.5 L105722,32884.1 L104174,34076.1 L86361,47793.1 L80945.2,51963.6 L69332.4,60906.1 L69054,49213.5 L69053.9,49213.1 L69053.7,49212.8 L69053.4,49212.6 L69053,49212.5 L69052.6,49212.6 L69052.3,49212.8 L69052.1,49213.1 L69052,49213.5 L68834.4,61289.6 L52989.8,73490.9 L30801.1,90577.6 L8716.33,43336 L8716.11,43335.7 L8715.78,43335.5 L8715.4,43335.4 L8715.02,43335.5 L8714.71,43335.7 L8714.5,43336 L8714.43,43336.4 L8736.93,46315.3 L-69258.7,46904.6 L-69270.7,45311.5 L-69270.8,45311 L-69271.1,45310.7 L-69271.5,45310.5 L-101053,37906.3 L-132787,19154.9 L-130992,-10478.8 L-100466,-23523.9 L-69836.1,-29409 L-69835.8,-29409.1 L-69835.5,-29409.3 L-69835.3,-29409.6 L-69835.3,-29410 L-69848,-31091 L8147.62,-31680.3"/>
</g>

<g fill="none" stroke="#000000" stroke-opacity="1" stroke-width="1" stroke-linecap="square" stroke-linejoin="bevel" transform="matrix(0.999997,0,0,-0.999997,142771,100563)"
font-family="MS Shell Dlg 2" font-size="10.3125" font-weight="400" font-style="normal" 
>
</g>

<g fill="none" stroke="#000000" stroke-opacity="1" stroke-width="1" stroke-linecap="square" stroke-linejoin="bevel" transform="matrix(0.999997,0,0,-0.999997,142771,100563)"
font-family="MS Shell Dlg 2" font-size="10.3125" font-weight="400" font-style="normal" 
>
</g>

<g fill="#333333" fill-opacity="0.2" stroke="#333333" stroke-opacity="1" stroke-width="1" stroke-linecap="round" stroke-linejoin="round" transform="matrix(0.999997,0,0,-0.999997,142771,100563)"
font-family="MS Shell Dlg 2" font-size="10.3125" font-weight="400" font-style="normal" 
>
<path vector-effect="non-scaling-stroke" fill-rule="evenodd" d="M-73833.4,22863.7 L-73833.4,22863.7 L-73875.9,21998.5 L-73875.9,21998.4 L-74003,21141.6 L-74003,21141.5 L-74213.5,20301.2 L-74213.5,20301.1 L-74505.4,19485.5 L-74505.4,19485.4 L-74875.8,18702.4 L-74875.8,18702.3 L-75321.1,17959.3 L-75321.2,17959.2 L-75837.2,17263.5 L-75837.3,17263.4 L-76419,16621.6 L-76419,16621.5 L-77060.9,16039.8 L-77060.9,16039.7 L-77756.7,15523.7 L-77756.8,15523.6 L-78499.8,15078.3 L-78499.9,15078.3 L-79282.9,14707.9 L-79283,14707.9 L-80098.6,14416.1 L-80098.7,14416 L-80939,14205.5 L-80939.1,14205.5 L-81795.9,14078.4 L-81796,14078.4 L-82661.2,14035.9 L-82661.3,14035.9 L-83526.5,14078.4 L-83526.6,14078.4 L-84383.4,14205.5 L-84383.5,14205.5 L-85223.8,14416 L-85223.9,14416.1 L-86039.4,14707.9 L-86039.5,14707.9 L-86822.6,15078.3 L-86822.7,15078.3 L-87565.7,15523.6 L-87565.7,15523.7 L-88261.5,16039.7 L-88261.6,16039.8 L-88903.4,16621.5 L-88903.5,16621.6 L-89485.2,17263.4 L-89485.3,17263.5 L-90001.3,17959.2 L-90001.3,17959.3 L-90446.7,18702.3 L-90446.7,18702.4 L-90817.1,19485.4 L-90817.1,19485.5 L-91108.9,20301.1 L-91108.9,20301.2 L-91319.4,21141.5 L-91319.4,21141.6 L-91446.5,21998.4 L-91446.6,21998.5 L-91489.1,22863.7 L-91489.1,22863.8 L-91446.6,23729 L-91446.5,23729.1 L-91319.4,24585.9 L-91319.4,24586 L-91108.9,25426.3 L-91108.9,25426.4 L-90817.1,26242 L-90817.1,26242.1 L-90446.7,27025.1 L-90446.7,27025.2 L-90001.3,27768.2 L-90001.3,27768.3 L-89485.3,28464 L-89485.2,28464.1 L-88903.5,29105.9 L-88903.4,29106 L-88261.6,29687.7 L-88261.5,29687.8 L-87565.7,30203.8 L-87565.7,30203.8 L-86822.7,30649.2 L-86822.6,30649.2 L-86039.5,31019.6 L-86039.4,31019.6 L-85223.9,31311.4 L-85223.8,31311.5 L-84383.5,31521.9 L-84383.4,31522 L-83526.6,31649.1 L-83526.5,31649.1 L-82661.3,31691.6 L-82661.2,31691.6 L-81796,31649.1 L-81795.9,31649.1 L-80939.1,31522 L-80939,31521.9 L-80098.7,31311.5 L-80098.6,31311.4 L-79283,31019.6 L-79282.9,31019.6 L-78499.9,30649.2 L-78499.8,30649.2 L-77756.8,30203.8 L-77756.7,30203.8 L-77060.9,29687.8 L-77060.9,29687.7 L-76419,29106 L-76419,29105.9 L-75837.3,28464.1 L-75837.2,28464 L-75321.2,27768.3 L-75321.1,27768.2 L-74875.8,27025.2 L-74875.8,27025.1 L-74505.4,26242.1 L-74505.4,26242 L-74213.5,25426.4 L-74213.5,25426.3 L-74003,24586 L-74003,24585.9 L-73875.9,23729.1 L-73875.9,23729 L-73833.4,22863.8 L-73833.4,22863.7"/>
</g>

<g fill="none" stroke="#000000" stroke-opacity="1" stroke-width="1" stroke-linecap="square" stroke-linejoin="bevel" transform="matrix(0.999997,0,0,-0.999997,142771,100563)"
font-family="MS Shell Dlg 2" font-size="10.3125" font-weight="400" font-style="normal" 
>
</g>

<g fill="none" stroke="#000000" stroke-opacity="1" stroke-width="1" stroke-linecap="square" stroke-linejoin="bevel" transform="matrix(0.999997,0,0,-0.999997,142771,100563)"
font-family="MS Shell Dlg 2" font-size="10.3125" font-weight="400" font-style="normal" 
>
</g>

<g fill="#333333" fill-opacity="0.2" stroke="#333333" stroke-opacity="1" stroke-width="1" stroke-linecap="round" stroke-linejoin="round" transform="matrix(0.999997,0,0,-0.999997,142771,100563)"
font-family="MS Shell Dlg 2" font-size="10.3125" font-weight="400" font-style="normal" 
>
<path vector-effect="non-scaling-stroke" fill-rule="evenodd" d="M-76743.3,-38266.8 L-102353,-33346.2 L-102353,-33346.2 L-104396,-32721.4 L-104396,-32721.4 L-134923,-19676 L-134924,-19675.9 L-137974,-17640.8 L-137975,-17640.6 L-140087,-14642.5 L-140087,-14642.2 L-140976,-11084.3 L-140976,-11084.2 L-142771,18550.7 L-142771,18550.9 L-142327,22162 L-142327,22162.3 L-140620,25375.4 L-140620,25375.7 L-137876,27765.5 L-137876,27765.6 L-106141,46517.4 L-106141,46517.5 L-103323,47647.3 L-103323,47647.4 L-76344.5,53932.5 L-76277.9,54030.5 L-76277.7,54030.8 L-73017.1,56173.9 L-73016.8,56174.1 L-69184.3,56906.3 L-69184.1,56906.4 L3761.64,56355.2 L21740.8,94814.5 L21740.9,94814.7 L23798.7,97720.1 L23799,97720.3 L26744.3,99720.6 L26744.7,99720.8 L30204.1,100562 L30204.5,100562 L33739.5,100139 L33739.9,100139 L36902.4,98503.1 L36902.5,98503 L59092.3,81415.6 L74937.3,69214 L74937.4,69213.8 L75120.9,68991.7 L75433.2,68832.1 L75433.3,68832 L87047.7,59888.2 L92463.5,55717.7 L109978,42230.6 L116192,42082.6 L116193,42082.6 L120000,41230.5 L120001,41230.4 L123192,38986 L123193,38985.7 L123547,38426.7 L149727,38426.7 L149728,38426.7 L153554,37665.5 L153555,37665.3 L156799,35497.6 L156799,35497.3 L157580,34328.9 L171172,34062.4 L174470,33997.8 L202597,65886.3 L202597,65886.4 L205727,68266.1 L205727,68266.3 L209532,69255.6 L209533,69255.7 L213425,68701.8 L213425,68701.7 L216803,66690.2 L216804,66689.9 L219145,63531.7 L219145,63531.4 L220088,59714.6 L220088,59714.3 L219487,55828.9 L219487,55828.7 L205517,17716.4 L204236,6823.51 L206159,-2792.14 L215401,-26435.8 L215401,-26435.9 L216087,-30175.7 L216087,-30176.1 L215327,-33901.5 L215327,-33901.8 L213232,-37074.4 L213232,-37074.7 L210103,-39235.8 L210103,-39235.9 L206394,-40073.1 L206394,-40073.1 L202641,-39465.4 L202640,-39465.2 L199385,-37500.4 L199385,-37500.3 L174151,-14720 L158105,-14405.4 L156799,-16359.2 L156799,-16359.5 L153555,-18527.2 L153554,-18527.4 L149728,-19288.6 L149727,-19288.6 L123943,-19288.6 L121730,-22435.8 L121730,-22436.1 L118435,-24526 L118435,-24526.2 L114591,-25196.1 L114591,-25196.1 L102770,-24914.6 L80144.4,-24375.9 L79667.9,-27019.7 L79667.7,-27020 L77558.8,-30302.8 L77558.5,-30303.1 L74353.9,-32528.9 L74353.5,-32529.1 L70541,-33359.1 L70540.8,-33359.1 L23680.6,-34203.4 L17620.9,-34312.6 L17359.2,-35578 L17359.1,-35578.4 L15166.9,-38806.1 L15166.6,-38806.4 L11906.1,-40949.6 L11905.7,-40949.7 L8073.24,-41682 L8073.05,-41682 L-69924.6,-41092.7 L-69924.8,-41092.7 L-73745.7,-40302.6 L-73746.1,-40302.4 L-76743.3,-38266.8 M-6352.11,-31571.5 L-6351.98,-31571.2 L-6351.76,-31571 L-6351.46,-31570.8 L-6351.12,-31570.7 L8147.62,-31680.3 L8202.03,-24479.7 L8202.1,-24479.3 L8202.31,-24479 L8202.63,-24478.8 L8203.01,-24478.7 L18501.4,-24293.1 L18501.9,-24293.2 L18502.2,-24293.5 L18502.4,-24293.9 L18917.3,-26199.4 L20030.2,-27801.7 L21671.6,-28856.1 L23591.6,-29202.2 L54829.5,-28639.4 L56735.9,-28224.4 L58338.2,-27111.4 L59392.7,-25470.1 L59738.6,-23550.9 L59738.7,-23550.6 L59738.9,-23550.3 L59739.2,-23550.2 L59739.6,-23550.1 L70359.6,-23358.8 L70193.4,-14135.2 L70193.5,-14134.8 L70193.7,-14134.5 L70194.1,-14134.3 L70194.5,-14134.2 L74368.4,-14233.6 L74368.8,-14233.6 L74369.1,-14233.8 L74369.3,-14234.1 L74369.4,-14234.4 L74704.2,-16155.5 L75749.2,-17803 L77345,-18925.1 L79248.9,-19351.2 L102888,-19914 L104810,-19579 L106457,-18534.1 L107580,-16938.3 L108005,-15035.2 L108006,-15034.8 L108006,-15034.6 L108006,-15034.5 L114828,-15196.9 L114968,-9287.58 L114968,-9287.21 L114969,-9286.89 L114969,-9286.68 L114969,-9286.6 L116443,-9286.6 L116443,-9286.66 L116443,-9286.83 L116444,-9287.09 L116444,-9287.41 L116824,-11200 L117908,-12822.1 L119530,-13906 L121444,-14286.6 L140298,-14286.6 L142212,-13906 L143834,-12822.1 L144917,-11200 L145298,-9287.41 L145298,-9287.09 L145298,-9286.83 L145299,-9286.66 L145299,-9286.6 L149726,-9286.6 L149726,-4238.19 L149727,-4237.81 L149727,-4237.48 L149727,-4237.26 L149727,-4237.19 L151061,-4263.34 L151062,-4263.46 L151062,-4263.75 L151062,-4264.17 L151405,-6183.86 L152457,-7826.91 L154057,-8942.36 L155963,-9360.42 L170314,-9641.82 L172235,-9298.79 L173878,-8246.93 L174993,-6646.38 L175411,-4741.6 L175411,-4741.29 L175412,-4741.03 L175412,-4740.87 L175412,-4740.82 L177589,-4783.5 L177598,-4358.85 L177598,-4358.48 L177598,-4358.17 L177598,-4357.96 L177599,-4357.87 L177599,-4357.94 L177599,-4358.13 L206084,-30073.3 L196524,-5615.35 L196523,-5615.18 L194117,6416.93 L194117,6417.24 L195721,20053.6 L195721,20053.9 L210095,59266 L178136,23034.8 L178136,23034.6 L178136,23034.5 L178135,23034.6 L178135,23034.8 L178135,23035.1 L178135,23035.5 L178152,23921.6 L175975,23964.3 L175975,23964.4 L175974,23964.7 L175974,23965.1 L175631,25884.8 L174579,27527.9 L172979,28643.3 L171073,29061.4 L156722,29342.8 L154801,28999.8 L153158,27947.9 L152043,26347.4 L151625,24442.6 L151625,24442.3 L151625,24442 L151624,24441.9 L151624,24441.8 L149727,24479 L149727,24479.1 L149727,24479.3 L149727,24479.6 L149726,24480 L149726,28424.7 L145299,28424.7 L145299,28424.8 L145298,28424.9 L145298,28425.2 L145298,28425.5 L144917,30338.1 L143834,31960.2 L142212,33044.1 L140298,33424.7 L121444,33424.7 L119530,33044.1 L117908,31960.2 L116824,30338.1 L116444,28425.5 L116444,28425.2 L116443,28424.9 L116443,28424.8 L116443,28424.7 L115867,28424.7 L115867,28424.8 L115867,28425 L115866,28425.3 L115866,28425.7 L115953,32083.5 L109132,32245.9 L109132,32246 L109132,32246.2 L109131,32246.5 L109131,32246.9 L109131,32246.9 L109172,33957.3 L108686,36230.4 L107224,38038 L89411.6,51754.6 L83997.4,55923.9 L82371.8,56755 L80556.2,56947.1 L78792.7,56474.6 L77316.4,55400.5 L77039.4,54972.7 L77039.1,54972.4 L77038.7,54972.2 L77038.3,54972.2 L77038,54972.4 L69332.4,60906.1 L69054,49213.5 L69053.9,49213.1 L69053.7,49212.8 L69053.4,49212.6 L69053,49212.5 L69052.6,49212.6 L69052.3,49212.8 L69052.1,49213.1 L69052,49213.5 L68834.4,61289.6 L58061,69585.8 L58060.7,69586.2 L58060.6,69586.6 L57988.6,73581.2 L57455.6,75739.1 L56040,77452.8 L33851.8,94539.1 L32270.4,95356.8 L30502.9,95568.7 L28773.2,95147.9 L27300.5,94147.8 L26271.5,92695 L17251.5,73400.2 L16781.8,71192.5 L16965.7,60982.6 L16965.7,60982.2 L8716.33,43336 L8716.11,43335.7 L8715.78,43335.5 L8715.4,43335.4 L8715.02,43335.5 L8714.71,43335.7 L8714.5,43336 L8714.43,43336.4 L8736.93,46315.3 L-5761.81,46424.9 L-5762.14,46424.9 L-5762.44,46425.1 L-5762.66,46425.4 L-5762.78,46425.7 L-6128.76,48341.1 L-7200.33,49971.4 L-8814.21,51067.4 L-10724.8,51462.5 L-49721.4,51757.2 L-51637.7,51391 L-53268,50319.4 L-54364.1,48705.6 L-54758.9,46795.9 L-54759.1,46795.5 L-54759.5,46795.2 L-54759.9,46795.1 L-69258.7,46904.6 L-69270.7,45311.5 L-69270.8,45311 L-69271.1,45310.7 L-69271.5,45310.5 L-101053,37906.3 L-132787,19154.9 L-130992,-10478.8 L-100466,-23523.9 L-69836.1,-29409 L-69835.8,-29409.1 L-69835.5,-29409.3 L-69835.3,-29409.6 L-69835.3,-29410 L-69848,-31091 L-55349.2,-31200.5 L-55348.9,-31200.6 L-55348.6,-31200.8 L-55348.4,-31201 L-55348.3,-31201.3 L-54982.3,-33116.8 L-53910.7,-34747 L-52296.8,-35843.1 L-50386.3,-36238.2 L-11389.7,-36532.8 L-9473.33,-36166.7 L-7843.08,-35095.1 L-6746.99,-33481.2 L-6352.11,-31571.5"/>
</g>

<g fill="none" stroke="#000000" stroke-opacity="1" stroke-width="1" stroke-linecap="square" stroke-linejoin="bevel" transform="matrix(0.999997,0,0,-0.999997,142771,100563)"
font-family="MS Shell Dlg 2" font-size="10.3125" font-weight="400" font-style="normal" 
>
</g>

<g fill="none" stroke="#000000" stroke-opacity="1" stroke-width="1" stroke-linecap="square" stroke-linejoin="bevel" transform="matrix(1,0,0,-1,0,142245)"
font-family="MS Shell Dlg 2" font-size="10.3125" font-weight="400" font-style="normal" 
>
</g>
</g>
</svg>
