<?xml version="1.0" encoding="UTF-8" standalone="no"?>
<svg width="96770mm" height="34504.8mm"
 xmlns="http://www.w3.org/2000/svg" xmlns:xlink="http://www.w3.org/1999/xlink"  version="1.2" baseProfile="tiny">
<title>SVG Generator Example Drawing</title>
<desc>An SVG drawing created by the SVG Generator</desc>
<defs>
</defs>
<g fill="none" stroke="black" stroke-width="1" fill-rule="evenodd" stroke-linecap="square" stroke-linejoin="bevel" >

<g fill="none" stroke="#000000" stroke-opacity="1" stroke-width="1" stroke-linecap="square" stroke-linejoin="bevel" transform="matrix(1,0,0,-1,0,122261)"
font-family="MS Shell Dlg 2" font-size="10.3125" font-weight="400" font-style="normal" 
>
</g>

<g fill="none" stroke="#000000" stroke-opacity="1" stroke-width="1" stroke-linecap="square" stroke-linejoin="bevel" transform="matrix(1,0,0,-1,0,122261)"
font-family="MS Shell Dlg 2" font-size="10.3125" font-weight="400" font-style="normal" 
>
</g>

<g fill="none" stroke="#000000" stroke-opacity="1" stroke-width="1" stroke-linecap="square" stroke-linejoin="bevel" transform="matrix(0.999996,0,0,-0.999996,132788,90579.8)"
font-family="MS Shell Dlg 2" font-size="10.3125" font-weight="400" font-style="normal" 
>
</g>

<g fill="#333333" fill-opacity="0.2" stroke="#333333" stroke-opacity="1" stroke-width="1" stroke-linecap="round" stroke-linejoin="round" transform="matrix(0.999996,0,0,-0.999996,132788,90579.8)"
font-family="MS Shell Dlg 2" font-size="10.3125" font-weight="400" font-style="normal" 
>
<path vector-effect="non-scaling-stroke" fill-rule="evenodd" d="M-73834.4,22863.7 L-73876.9,21998.6 L-74004,21141.7 L-74214.5,20301.4 L-74506.3,19485.9 L-74876.7,18702.8 L-75322,17959.8 L-75838,17264.1 L-76419.7,16622.2 L-77061.5,16040.5 L-77757.3,15524.5 L-78500.3,15079.2 L-79283.3,14708.8 L-80098.9,14417 L-80939.2,14206.5 L-81796,14079.4 L-82661.2,14036.9 L-83526.4,14079.4 L-84383.3,14206.5 L-85223.5,14417 L-86039.1,14708.8 L-86822.2,15079.2 L-87565.2,15524.5 L-88260.9,16040.5 L-88902.7,16622.2 L-89484.5,17264.1 L-90000.5,17959.8 L-90445.8,18702.8 L-90816.2,19485.9 L-91108,20301.4 L-91318.5,21141.7 L-91445.6,21998.6 L-91488.1,22863.7 L-91445.6,23728.9 L-91318.5,24585.8 L-91108,25426 L-90816.2,26241.6 L-90445.8,27024.7 L-90000.5,27767.7 L-89484.5,28463.4 L-88902.7,29105.3 L-88260.9,29687 L-87565.2,30203 L-86822.2,30648.3 L-86039.1,31018.7 L-85223.5,31310.5 L-84383.3,31521 L-83526.4,31648.1 L-82661.2,31690.6 L-81796,31648.1 L-80939.2,31521 L-80098.9,31310.5 L-79283.3,31018.7 L-78500.3,30648.3 L-77757.3,30203 L-77061.5,29687 L-76419.7,29105.3 L-75838,28463.4 L-75322,27767.7 L-74876.7,27024.7 L-74506.3,26241.6 L-74214.5,25426 L-74004,24585.8 L-73876.9,23728.9 L-73834.4,22863.7 M-73834.4,22863.7 L-73876.9,23728.9 L-74004,24585.8 L-74214.5,25426 L-74506.3,26241.6 L-74876.7,27024.7 L-75322,27767.7 L-75838,28463.4 L-76419.7,29105.2 L-77061.5,29687 L-77757.3,30203 L-78500.3,30648.3 L-79283.3,31018.7 L-80098.9,31310.5 L-80939.2,31521 L-81796,31648.1 L-82661.2,31690.6 L-83526.4,31648.1 L-84383.3,31521 L-85223.5,31310.5 L-86039.1,31018.7 L-86822.2,30648.3 L-87565.1,30203 L-88260.9,29687 L-88902.7,29105.2 L-89484.5,28463.4 L-90000.5,27767.7 L-90445.8,27024.7 L-90816.1,26241.6 L-91108,25426 L-91318.4,24585.8 L-91445.5,23728.9 L-91488,22863.7 L-91445.5,21998.6 L-91318.4,21141.7 L-91108,20301.5 L-90816.1,19485.9 L-90445.8,18702.8 L-90000.5,17959.8 L-89484.5,17264.1 L-88902.7,16622.2 L-88260.9,16040.5 L-87565.1,15524.5 L-86822.2,15079.2 L-86039.1,14708.8 L-85223.5,14417 L-84383.3,14206.5 L-83526.4,14079.4 L-82661.2,14036.9 L-81796,14079.4 L-80939.2,14206.5 L-80098.9,14417 L-79283.3,14708.8 L-78500.3,15079.2 L-77757.3,15524.5 L-77061.5,16040.5 L-76419.7,16622.2 L-75838,17264.1 L-75322,17959.8 L-74876.7,18702.8 L-74506.3,19485.9 L-74214.5,20301.5 L-74004,21141.7 L-73876.9,21998.6 L-73834.4,22863.7"/>
</g>

<g fill="none" stroke="#000000" stroke-opacity="1" stroke-width="1" stroke-linecap="square" stroke-linejoin="bevel" transform="matrix(0.999996,0,0,-0.999996,132788,90579.8)"
font-family="MS Shell Dlg 2" font-size="10.3125" font-weight="400" font-style="normal" 
>
</g>

<g fill="none" stroke="#000000" stroke-opacity="1" stroke-width="1" stroke-linecap="square" stroke-linejoin="bevel" transform="matrix(0.999996,0,0,-0.999996,132788,90579.8)"
font-family="MS Shell Dlg 2" font-size="10.3125" font-weight="400" font-style="normal" 
>
</g>

<g fill="#333333" fill-opacity="0.2" stroke="#333333" stroke-opacity="1" stroke-width="1" stroke-linecap="round" stroke-linejoin="round" transform="matrix(0.999996,0,0,-0.999996,132788,90579.8)"
font-family="MS Shell Dlg 2" font-size="10.3125" font-weight="400" font-style="normal" 
>
<path vector-effect="non-scaling-stroke" fill-rule="evenodd" d="M-69849,-31092 L-69849,-31092 L-69849,-31092 L-69849,-31092 L-69849,-31092 L-69836.3,-29410 L-100466,-23524.9 L-100466,-23524.9 L-130993,-10479.5 L-130993,-10479.5 L-130993,-10479.5 L-130993,-10479.5 L-132789,19155.4 L-132789,19155.4 L-132789,19155.4 L-132789,19155.4 L-101054,37907.2 L-101054,37907.2 L-69271.7,45311.5 L-69259.7,46905.6 L-69259.7,46905.6 L-69259.7,46905.6 L-69259.7,46905.6 L-69259.7,46905.6 L8737.94,46316.3 L8737.95,46316.3 L8737.95,46316.3 L8737.95,46316.3 L8737.95,46316.3 L8715.44,43336.5 L30800.7,90579.2 L30800.7,90579.2 L30800.7,90579.2 L30800.7,90579.2 L30800.7,90579.2 L30800.7,90579.2 L52990.4,73491.7 L68835.4,61290.1 L68835.4,61290.1 L68835.4,61290.1 L69053,49214 L69331.4,60908.1 L69331.5,60908.1 L69331.5,60908.1 L69331.5,60908.1 L69331.5,60908.1 L69331.5,60908.1 L69331.5,60908.1 L80945.8,51964.4 L86361.6,47793.9 L104174,34076.9 L105722,32884.9 L106469,32310.3 L115954,32084.5 L115954,32084.5 L115954,32084.5 L115954,32084.5 L115954,32084.5 L115867,28425.7 L149727,28425.7 L149727,28425.7 L149727,28425.7 L149727,28425.7 L149727,28425.7 L149727,24480 L170976,24063.3 L178153,23922.6 L178153,23922.6 L178153,23922.6 L178153,23922.6 L178153,23922.6 L178136,23035.5 L210097,59270.7 L210097,59270.7 L210097,59270.7 L210097,59270.7 L210097,59270.7 L210097,59270.7 L210097,59270.6 L210097,59270.6 L195722,20053.5 L194118,6417.13 L196524,-5614.98 L206087,-30076.8 L206087,-30076.8 L206087,-30076.8 L206087,-30076.9 L206087,-30076.9 L206087,-30076.9 L206087,-30076.9 L206087,-30076.9 L177599,-4358.9 L177590,-4784.52 L177590,-4784.53 L177590,-4784.53 L177590,-4784.53 L177590,-4784.53 L156060,-4362.37 L149727,-4238.2 L149727,-9287.6 L149727,-9287.61 L149727,-9287.61 L149727,-9287.61 L149727,-9287.61 L114969,-9287.61 L114829,-15197.9 L114829,-15197.9 L114829,-15197.9 L114829,-15197.9 L114829,-15197.9 L103008,-14916.5 L70194.4,-14135.2 L70360.7,-23359.7 L70360.7,-23359.7 L70360.6,-23359.7 L70360.6,-23359.7 L70360.6,-23359.7 L23500.5,-24204.1 L8203.04,-24479.7 L8148.62,-31681.3 L8148.62,-31681.3 L8148.62,-31681.3 L8148.62,-31681.3 L8148.61,-31681.3 L-69849,-31092 M-50349.6,-31239.3 L-11350.8,-31534 L8148.61,-31681.3 L8203.03,-24479.7 L23500.5,-24204.1 L70360.6,-23359.7 L70194.4,-14135.2 L103008,-14916.5 L114829,-15197.9 L114969,-9287.6 L121442,-9287.6 L140299,-9287.6 L149727,-9287.6 L149727,-4238.19 L156060,-4362.36 L177590,-4784.52 L177599,-4358.87 L206087,-30076.8 L196524,-5614.98 L194118,6417.12 L195722,20053.5 L210097,59270.6 L178136,23035.5 L178153,23922.6 L170976,24063.3 L149727,24480 L149727,28425.7 L140299,28425.7 L121442,28425.7 L115867,28425.7 L115954,32084.5 L106469,32310.3 L105722,32884.9 L104174,34076.9 L86361.6,47793.9 L80945.8,51964.4 L69331.5,60908.1 L69053,49213.5 L68835.4,61290.1 L52990.4,73491.7 L30800.7,90579.2 L8715.43,43336.4 L8737.94,46316.3 L-10761.5,46463.6 L-49760.3,46758.3 L-69259.7,46905.6 L-69271.7,45311.5 L-101054,37907.2 L-132789,19155.4 L-130993,-10479.5 L-100466,-23524.9 L-69836.3,-29409.9 L-69849,-31092 L-50349.6,-31239.3"/>
</g>

<g fill="none" stroke="#000000" stroke-opacity="1" stroke-width="1" stroke-linecap="square" stroke-linejoin="bevel" transform="matrix(0.999996,0,0,-0.999996,132788,90579.8)"
font-family="MS Shell Dlg 2" font-size="10.3125" font-weight="400" font-style="normal" 
>
</g>

<g fill="none" stroke="#000000" stroke-opacity="1" stroke-width="1" stroke-linecap="square" stroke-linejoin="bevel" transform="matrix(0.999996,0,0,-0.999996,132788,90579.8)"
font-family="MS Shell Dlg 2" font-size="10.3125" font-weight="400" font-style="normal" 
>
</g>

<g fill="#ae5151" fill-opacity="0.2" stroke="#333333" stroke-opacity="1" stroke-width="1" stroke-linecap="round" stroke-linejoin="round" transform="matrix(0.999996,0,0,-0.999996,132788,90579.8)"
font-family="MS Shell Dlg 2" font-size="10.3125" font-weight="400" font-style="normal" 
>
<path vector-effect="non-scaling-stroke" fill-rule="evenodd" d="M-73834.4,22863.7 L-73876.9,21998.6 L-74004,21141.7 L-74214.5,20301.4 L-74506.3,19485.9 L-74876.7,18702.8 L-75322,17959.8 L-75838,17264.1 L-76419.7,16622.2 L-77061.5,16040.5 L-77757.3,15524.5 L-78500.3,15079.2 L-79283.3,14708.8 L-80098.9,14417 L-80939.2,14206.5 L-81796,14079.4 L-82661.2,14036.9 L-83526.4,14079.4 L-84383.3,14206.5 L-85223.5,14417 L-86039.1,14708.8 L-86822.2,15079.2 L-87565.2,15524.5 L-88260.9,16040.5 L-88902.7,16622.2 L-89484.5,17264.1 L-90000.5,17959.8 L-90445.8,18702.8 L-90816.2,19485.9 L-91108,20301.4 L-91318.5,21141.7 L-91445.6,21998.6 L-91488.1,22863.7 L-91445.6,23728.9 L-91318.5,24585.8 L-91108,25426 L-90816.2,26241.6 L-90445.8,27024.7 L-90000.5,27767.7 L-89484.5,28463.4 L-88902.7,29105.3 L-88260.9,29687 L-87565.2,30203 L-86822.2,30648.3 L-86039.1,31018.7 L-85223.5,31310.5 L-84383.3,31521 L-83526.4,31648.1 L-82661.2,31690.6 L-81796,31648.1 L-80939.2,31521 L-80098.9,31310.5 L-79283.3,31018.7 L-78500.3,30648.3 L-77757.3,30203 L-77061.5,29687 L-76419.7,29105.3 L-75838,28463.4 L-75322,27767.7 L-74876.7,27024.7 L-74506.3,26241.6 L-74214.5,25426 L-74004,24585.8 L-73876.9,23728.9 L-73834.4,22863.7 M-73834.4,22863.7 L-73876.9,23728.9 L-74004,24585.8 L-74214.5,25426 L-74506.3,26241.6 L-74876.7,27024.7 L-75322,27767.7 L-75838,28463.4 L-76419.7,29105.2 L-77061.5,29687 L-77757.3,30203 L-78500.3,30648.3 L-79283.3,31018.7 L-80098.9,31310.5 L-80939.2,31521 L-81796,31648.1 L-82661.2,31690.6 L-83526.4,31648.1 L-84383.3,31521 L-85223.5,31310.5 L-86039.1,31018.7 L-86822.2,30648.3 L-87565.1,30203 L-88260.9,29687 L-88902.7,29105.2 L-89484.5,28463.4 L-90000.5,27767.7 L-90445.8,27024.7 L-90816.1,26241.6 L-91108,25426 L-91318.4,24585.8 L-91445.5,23728.9 L-91488,22863.7 L-91445.5,21998.6 L-91318.4,21141.7 L-91108,20301.5 L-90816.1,19485.9 L-90445.8,18702.8 L-90000.5,17959.8 L-89484.5,17264.1 L-88902.7,16622.2 L-88260.9,16040.5 L-87565.1,15524.5 L-86822.2,15079.2 L-86039.1,14708.8 L-85223.5,14417 L-84383.3,14206.5 L-83526.4,14079.4 L-82661.2,14036.9 L-81796,14079.4 L-80939.2,14206.5 L-80098.9,14417 L-79283.3,14708.8 L-78500.3,15079.2 L-77757.3,15524.5 L-77061.5,16040.5 L-76419.7,16622.2 L-75838,17264.1 L-75322,17959.8 L-74876.7,18702.8 L-74506.3,19485.9 L-74214.5,20301.5 L-74004,21141.7 L-73876.9,21998.6 L-73834.4,22863.7"/>
</g>

<g fill="none" stroke="#000000" stroke-opacity="1" stroke-width="1" stroke-linecap="square" stroke-linejoin="bevel" transform="matrix(0.999996,0,0,-0.999996,132788,90579.8)"
font-family="MS Shell Dlg 2" font-size="10.3125" font-weight="400" font-style="normal" 
>
</g>

<g fill="none" stroke="#000000" stroke-opacity="1" stroke-width="1" stroke-linecap="square" stroke-linejoin="bevel" transform="matrix(0.999996,0,0,-0.999996,132788,90579.8)"
font-family="MS Shell Dlg 2" font-size="10.3125" font-weight="400" font-style="normal" 
>
</g>

<g fill="#ae5151" fill-opacity="0.2" stroke="#333333" stroke-opacity="1" stroke-width="1" stroke-linecap="round" stroke-linejoin="round" transform="matrix(0.999996,0,0,-0.999996,132788,90579.8)"
font-family="MS Shell Dlg 2" font-size="10.3125" font-weight="400" font-style="normal" 
>
<path vector-effect="non-scaling-stroke" fill-rule="evenodd" d="M-69849,-31092 L-69849,-31092 L-69849,-31092 L-69849,-31092 L-69849,-31092 L-69836.3,-29410 L-100466,-23524.9 L-100466,-23524.9 L-130993,-10479.5 L-130993,-10479.5 L-130993,-10479.5 L-130993,-10479.5 L-132789,19155.4 L-132789,19155.4 L-132789,19155.4 L-132789,19155.4 L-101054,37907.2 L-101054,37907.2 L-69271.7,45311.5 L-69259.7,46905.6 L-69259.7,46905.6 L-69259.7,46905.6 L-69259.7,46905.6 L-69259.7,46905.6 L8737.94,46316.3 L8737.95,46316.3 L8737.95,46316.3 L8737.95,46316.3 L8737.95,46316.3 L8715.44,43336.5 L30800.7,90579.2 L30800.7,90579.2 L30800.7,90579.2 L30800.7,90579.2 L30800.7,90579.2 L30800.7,90579.2 L52990.4,73491.7 L68835.4,61290.1 L68835.4,61290.1 L68835.4,61290.1 L69053,49214 L69331.4,60908.1 L69331.5,60908.1 L69331.5,60908.1 L69331.5,60908.1 L69331.5,60908.1 L69331.5,60908.1 L69331.5,60908.1 L80945.8,51964.4 L86361.6,47793.9 L104174,34076.9 L105722,32884.9 L106469,32310.3 L115954,32084.5 L115954,32084.5 L115954,32084.5 L115954,32084.5 L115954,32084.5 L115867,28425.7 L149727,28425.7 L149727,28425.7 L149727,28425.7 L149727,28425.7 L149727,28425.7 L149727,24480 L170976,24063.3 L178153,23922.6 L178153,23922.6 L178153,23922.6 L178153,23922.6 L178153,23922.6 L178136,23035.5 L210097,59270.7 L210097,59270.7 L210097,59270.7 L210097,59270.7 L210097,59270.7 L210097,59270.7 L210097,59270.6 L210097,59270.6 L195722,20053.5 L194118,6417.13 L196524,-5614.98 L206087,-30076.8 L206087,-30076.8 L206087,-30076.8 L206087,-30076.9 L206087,-30076.9 L206087,-30076.9 L206087,-30076.9 L206087,-30076.9 L177599,-4358.9 L177590,-4784.52 L177590,-4784.53 L177590,-4784.53 L177590,-4784.53 L177590,-4784.53 L156060,-4362.37 L149727,-4238.2 L149727,-9287.6 L149727,-9287.61 L149727,-9287.61 L149727,-9287.61 L149727,-9287.61 L114969,-9287.61 L114829,-15197.9 L114829,-15197.9 L114829,-15197.9 L114829,-15197.9 L114829,-15197.9 L103008,-14916.5 L70194.4,-14135.2 L70360.7,-23359.7 L70360.7,-23359.7 L70360.6,-23359.7 L70360.6,-23359.7 L70360.6,-23359.7 L23500.5,-24204.1 L8203.04,-24479.7 L8148.62,-31681.3 L8148.62,-31681.3 L8148.62,-31681.3 L8148.62,-31681.3 L8148.61,-31681.3 L-69849,-31092 M-50349.6,-31239.3 L-11350.8,-31534 L8148.61,-31681.3 L8203.03,-24479.7 L23500.5,-24204.1 L70360.6,-23359.7 L70194.4,-14135.2 L103008,-14916.5 L114829,-15197.9 L114969,-9287.6 L121442,-9287.6 L140299,-9287.6 L149727,-9287.6 L149727,-4238.19 L156060,-4362.36 L177590,-4784.52 L177599,-4358.87 L206087,-30076.8 L196524,-5614.98 L194118,6417.12 L195722,20053.5 L210097,59270.6 L178136,23035.5 L178153,23922.6 L170976,24063.3 L149727,24480 L149727,28425.7 L140299,28425.7 L121442,28425.7 L115867,28425.7 L115954,32084.5 L106469,32310.3 L105722,32884.9 L104174,34076.9 L86361.6,47793.9 L80945.8,51964.4 L69331.5,60908.1 L69053,49213.5 L68835.4,61290.1 L52990.4,73491.7 L30800.7,90579.2 L8715.43,43336.4 L8737.94,46316.3 L-10761.5,46463.6 L-49760.3,46758.3 L-69259.7,46905.6 L-69271.7,45311.5 L-101054,37907.2 L-132789,19155.4 L-130993,-10479.5 L-100466,-23524.9 L-69836.3,-29409.9 L-69849,-31092 L-50349.6,-31239.3"/>
</g>

<g fill="none" stroke="#000000" stroke-opacity="1" stroke-width="1" stroke-linecap="square" stroke-linejoin="bevel" transform="matrix(0.999996,0,0,-0.999996,132788,90579.8)"
font-family="MS Shell Dlg 2" font-size="10.3125" font-weight="400" font-style="normal" 
>
</g>

<g fill="none" stroke="#000000" stroke-opacity="1" stroke-width="1" stroke-linecap="square" stroke-linejoin="bevel" transform="matrix(0.999996,0,0,-0.999996,132788,90579.8)"
font-family="MS Shell Dlg 2" font-size="10.3125" font-weight="400" font-style="normal" 
>
</g>

<g fill="#ffff00" fill-opacity="0.2" stroke="#333333" stroke-opacity="1" stroke-width="1" stroke-linecap="round" stroke-linejoin="round" transform="matrix(0.999996,0,0,-0.999996,132788,90579.8)"
font-family="MS Shell Dlg 2" font-size="10.3125" font-weight="400" font-style="normal" 
>
<path vector-effect="non-scaling-stroke" fill-rule="evenodd" d="M-73834.4,22863.7 L-73876.9,21998.6 L-74004,21141.7 L-74214.5,20301.4 L-74506.3,19485.9 L-74876.7,18702.8 L-75322,17959.8 L-75838,17264.1 L-76419.7,16622.2 L-77061.5,16040.5 L-77757.3,15524.5 L-78500.3,15079.2 L-79283.3,14708.8 L-80098.9,14417 L-80939.2,14206.5 L-81796,14079.4 L-82661.2,14036.9 L-83526.4,14079.4 L-84383.3,14206.5 L-85223.5,14417 L-86039.1,14708.8 L-86822.2,15079.2 L-87565.2,15524.5 L-88260.9,16040.5 L-88902.7,16622.2 L-89484.5,17264.1 L-90000.5,17959.8 L-90445.8,18702.8 L-90816.2,19485.9 L-91108,20301.4 L-91318.5,21141.7 L-91445.6,21998.6 L-91488.1,22863.7 L-91445.6,23728.9 L-91318.5,24585.8 L-91108,25426 L-90816.2,26241.6 L-90445.8,27024.7 L-90000.5,27767.7 L-89484.5,28463.4 L-88902.7,29105.3 L-88260.9,29687 L-87565.2,30203 L-86822.2,30648.3 L-86039.1,31018.7 L-85223.5,31310.5 L-84383.3,31521 L-83526.4,31648.1 L-82661.2,31690.6 L-81796,31648.1 L-80939.2,31521 L-80098.9,31310.5 L-79283.3,31018.7 L-78500.3,30648.3 L-77757.3,30203 L-77061.5,29687 L-76419.7,29105.3 L-75838,28463.4 L-75322,27767.7 L-74876.7,27024.7 L-74506.3,26241.6 L-74214.5,25426 L-74004,24585.8 L-73876.9,23728.9 L-73834.4,22863.7 M-73834.4,22863.7 L-73876.9,23728.9 L-74004,24585.8 L-74214.5,25426 L-74506.3,26241.6 L-74876.7,27024.7 L-75322,27767.7 L-75838,28463.4 L-76419.7,29105.2 L-77061.5,29687 L-77757.3,30203 L-78500.3,30648.3 L-79283.3,31018.7 L-80098.9,31310.5 L-80939.2,31521 L-81796,31648.1 L-82661.2,31690.6 L-83526.4,31648.1 L-84383.3,31521 L-85223.5,31310.5 L-86039.1,31018.7 L-86822.2,30648.3 L-87565.1,30203 L-88260.9,29687 L-88902.7,29105.2 L-89484.5,28463.4 L-90000.5,27767.7 L-90445.8,27024.7 L-90816.1,26241.6 L-91108,25426 L-91318.4,24585.8 L-91445.5,23728.9 L-91488,22863.7 L-91445.5,21998.6 L-91318.4,21141.7 L-91108,20301.5 L-90816.1,19485.9 L-90445.8,18702.8 L-90000.5,17959.8 L-89484.5,17264.1 L-88902.7,16622.2 L-88260.9,16040.5 L-87565.1,15524.5 L-86822.2,15079.2 L-86039.1,14708.8 L-85223.5,14417 L-84383.3,14206.5 L-83526.4,14079.4 L-82661.2,14036.9 L-81796,14079.4 L-80939.2,14206.5 L-80098.9,14417 L-79283.3,14708.8 L-78500.3,15079.2 L-77757.3,15524.5 L-77061.5,16040.5 L-76419.7,16622.2 L-75838,17264.1 L-75322,17959.8 L-74876.7,18702.8 L-74506.3,19485.9 L-74214.5,20301.5 L-74004,21141.7 L-73876.9,21998.6 L-73834.4,22863.7"/>
</g>

<g fill="none" stroke="#000000" stroke-opacity="1" stroke-width="1" stroke-linecap="square" stroke-linejoin="bevel" transform="matrix(0.999996,0,0,-0.999996,132788,90579.8)"
font-family="MS Shell Dlg 2" font-size="10.3125" font-weight="400" font-style="normal" 
>
</g>

<g fill="none" stroke="#000000" stroke-opacity="1" stroke-width="1" stroke-linecap="square" stroke-linejoin="bevel" transform="matrix(0.999996,0,0,-0.999996,132788,90579.8)"
font-family="MS Shell Dlg 2" font-size="10.3125" font-weight="400" font-style="normal" 
>
</g>

<g fill="#ffff00" fill-opacity="0.2" stroke="#333333" stroke-opacity="1" stroke-width="1" stroke-linecap="round" stroke-linejoin="round" transform="matrix(0.999996,0,0,-0.999996,132788,90579.8)"
font-family="MS Shell Dlg 2" font-size="10.3125" font-weight="400" font-style="normal" 
>
<path vector-effect="non-scaling-stroke" fill-rule="evenodd" d="M-69849,-31092 L-69849,-31092 L-69849,-31092 L-69849,-31092 L-69849,-31092 L-69836.3,-29410 L-100466,-23524.9 L-100466,-23524.9 L-130993,-10479.5 L-130993,-10479.5 L-130993,-10479.5 L-130993,-10479.5 L-132789,19155.4 L-132789,19155.4 L-132789,19155.4 L-132789,19155.4 L-101054,37907.2 L-101054,37907.2 L-69271.7,45311.5 L-69259.7,46905.6 L-69259.7,46905.6 L-69259.7,46905.6 L-69259.7,46905.6 L-69259.7,46905.6 L8737.94,46316.3 L8737.95,46316.3 L8737.95,46316.3 L8737.95,46316.3 L8737.95,46316.3 L8715.44,43336.5 L30800.7,90579.2 L30800.7,90579.2 L30800.7,90579.2 L30800.7,90579.2 L30800.7,90579.2 L30800.7,90579.2 L52990.4,73491.7 L68835.4,61290.1 L68835.4,61290.1 L68835.4,61290.1 L69053,49214 L69331.4,60908.1 L69331.5,60908.1 L69331.5,60908.1 L69331.5,60908.1 L69331.5,60908.1 L69331.5,60908.1 L69331.5,60908.1 L80945.8,51964.4 L86361.6,47793.9 L104174,34076.9 L105722,32884.9 L106469,32310.3 L115954,32084.5 L115954,32084.5 L115954,32084.5 L115954,32084.5 L115954,32084.5 L115867,28425.7 L149727,28425.7 L149727,28425.7 L149727,28425.7 L149727,28425.7 L149727,28425.7 L149727,24480 L170976,24063.3 L178153,23922.6 L178153,23922.6 L178153,23922.6 L178153,23922.6 L178153,23922.6 L178136,23035.5 L210097,59270.7 L210097,59270.7 L210097,59270.7 L210097,59270.7 L210097,59270.7 L210097,59270.7 L210097,59270.6 L210097,59270.6 L195722,20053.5 L194118,6417.13 L196524,-5614.98 L206087,-30076.8 L206087,-30076.8 L206087,-30076.8 L206087,-30076.9 L206087,-30076.9 L206087,-30076.9 L206087,-30076.9 L206087,-30076.9 L177599,-4358.9 L177590,-4784.52 L177590,-4784.53 L177590,-4784.53 L177590,-4784.53 L177590,-4784.53 L156060,-4362.37 L149727,-4238.2 L149727,-9287.6 L149727,-9287.61 L149727,-9287.61 L149727,-9287.61 L149727,-9287.61 L114969,-9287.61 L114829,-15197.9 L114829,-15197.9 L114829,-15197.9 L114829,-15197.9 L114829,-15197.9 L103008,-14916.5 L70194.4,-14135.2 L70360.7,-23359.7 L70360.7,-23359.7 L70360.6,-23359.7 L70360.6,-23359.7 L70360.6,-23359.7 L23500.5,-24204.1 L8203.04,-24479.7 L8148.62,-31681.3 L8148.62,-31681.3 L8148.62,-31681.3 L8148.62,-31681.3 L8148.61,-31681.3 L-69849,-31092 M-50349.6,-31239.3 L-11350.8,-31534 L8148.61,-31681.3 L8203.03,-24479.7 L23500.5,-24204.1 L70360.6,-23359.7 L70194.4,-14135.2 L103008,-14916.5 L114829,-15197.9 L114969,-9287.6 L121442,-9287.6 L140299,-9287.6 L149727,-9287.6 L149727,-4238.19 L156060,-4362.36 L177590,-4784.52 L177599,-4358.87 L206087,-30076.8 L196524,-5614.98 L194118,6417.12 L195722,20053.5 L210097,59270.6 L178136,23035.5 L178153,23922.6 L170976,24063.3 L149727,24480 L149727,28425.7 L140299,28425.7 L121442,28425.7 L115867,28425.7 L115954,32084.5 L106469,32310.3 L105722,32884.9 L104174,34076.9 L86361.6,47793.9 L80945.8,51964.4 L69331.5,60908.1 L69053,49213.5 L68835.4,61290.1 L52990.4,73491.7 L30800.7,90579.2 L8715.43,43336.4 L8737.94,46316.3 L-10761.5,46463.6 L-49760.3,46758.3 L-69259.7,46905.6 L-69271.7,45311.5 L-101054,37907.2 L-132789,19155.4 L-130993,-10479.5 L-100466,-23524.9 L-69836.3,-29409.9 L-69849,-31092 L-50349.6,-31239.3"/>
</g>

<g fill="none" stroke="#000000" stroke-opacity="1" stroke-width="1" stroke-linecap="square" stroke-linejoin="bevel" transform="matrix(0.999996,0,0,-0.999996,132788,90579.8)"
font-family="MS Shell Dlg 2" font-size="10.3125" font-weight="400" font-style="normal" 
>
</g>

<g fill="none" stroke="#000000" stroke-opacity="1" stroke-width="1" stroke-linecap="square" stroke-linejoin="bevel" transform="matrix(0.999996,0,0,-0.999996,132788,90579.8)"
font-family="MS Shell Dlg 2" font-size="10.3125" font-weight="400" font-style="normal" 
>
</g>

<g fill="#ae5151" fill-opacity="0.2" stroke="#333333" stroke-opacity="1" stroke-width="1" stroke-linecap="round" stroke-linejoin="round" transform="matrix(0.999996,0,0,-0.999996,132788,90579.8)"
font-family="MS Shell Dlg 2" font-size="10.3125" font-weight="400" font-style="normal" 
>
<path vector-effect="non-scaling-stroke" fill-rule="evenodd" d="M-73834.4,22863.7 L-73876.9,21998.6 L-74004,21141.7 L-74214.5,20301.4 L-74506.3,19485.9 L-74876.7,18702.8 L-75322,17959.8 L-75838,17264.1 L-76419.7,16622.2 L-77061.5,16040.5 L-77757.3,15524.5 L-78500.3,15079.2 L-79283.3,14708.8 L-80098.9,14417 L-80939.2,14206.5 L-81796,14079.4 L-82661.2,14036.9 L-83526.4,14079.4 L-84383.3,14206.5 L-85223.5,14417 L-86039.1,14708.8 L-86822.2,15079.2 L-87565.2,15524.5 L-88260.9,16040.5 L-88902.7,16622.2 L-89484.5,17264.1 L-90000.5,17959.8 L-90445.8,18702.8 L-90816.2,19485.9 L-91108,20301.4 L-91318.5,21141.7 L-91445.6,21998.6 L-91488.1,22863.7 L-91445.6,23728.9 L-91318.5,24585.8 L-91108,25426 L-90816.2,26241.6 L-90445.8,27024.7 L-90000.5,27767.7 L-89484.5,28463.4 L-88902.7,29105.3 L-88260.9,29687 L-87565.2,30203 L-86822.2,30648.3 L-86039.1,31018.7 L-85223.5,31310.5 L-84383.3,31521 L-83526.4,31648.1 L-82661.2,31690.6 L-81796,31648.1 L-80939.2,31521 L-80098.9,31310.5 L-79283.3,31018.7 L-78500.3,30648.3 L-77757.3,30203 L-77061.5,29687 L-76419.7,29105.3 L-75838,28463.4 L-75322,27767.7 L-74876.7,27024.7 L-74506.3,26241.6 L-74214.5,25426 L-74004,24585.8 L-73876.9,23728.9 L-73834.4,22863.7 M-73834.4,22863.7 L-73876.9,23728.9 L-74004,24585.8 L-74214.5,25426 L-74506.3,26241.6 L-74876.7,27024.7 L-75322,27767.7 L-75838,28463.4 L-76419.7,29105.2 L-77061.5,29687 L-77757.3,30203 L-78500.3,30648.3 L-79283.3,31018.7 L-80098.9,31310.5 L-80939.2,31521 L-81796,31648.1 L-82661.2,31690.6 L-83526.4,31648.1 L-84383.3,31521 L-85223.5,31310.5 L-86039.1,31018.7 L-86822.2,30648.3 L-87565.1,30203 L-88260.9,29687 L-88902.7,29105.2 L-89484.5,28463.4 L-90000.5,27767.7 L-90445.8,27024.7 L-90816.1,26241.6 L-91108,25426 L-91318.4,24585.8 L-91445.5,23728.9 L-91488,22863.7 L-91445.5,21998.6 L-91318.4,21141.7 L-91108,20301.5 L-90816.1,19485.9 L-90445.8,18702.8 L-90000.5,17959.8 L-89484.5,17264.1 L-88902.7,16622.2 L-88260.9,16040.5 L-87565.1,15524.5 L-86822.2,15079.2 L-86039.1,14708.8 L-85223.5,14417 L-84383.3,14206.5 L-83526.4,14079.4 L-82661.2,14036.9 L-81796,14079.4 L-80939.2,14206.5 L-80098.9,14417 L-79283.3,14708.8 L-78500.3,15079.2 L-77757.3,15524.5 L-77061.5,16040.5 L-76419.7,16622.2 L-75838,17264.1 L-75322,17959.8 L-74876.7,18702.8 L-74506.3,19485.9 L-74214.5,20301.5 L-74004,21141.7 L-73876.9,21998.6 L-73834.4,22863.7"/>
</g>

<g fill="none" stroke="#000000" stroke-opacity="1" stroke-width="1" stroke-linecap="square" stroke-linejoin="bevel" transform="matrix(0.999996,0,0,-0.999996,132788,90579.8)"
font-family="MS Shell Dlg 2" font-size="10.3125" font-weight="400" font-style="normal" 
>
</g>

<g fill="none" stroke="#000000" stroke-opacity="1" stroke-width="1" stroke-linecap="square" stroke-linejoin="bevel" transform="matrix(0.999996,0,0,-0.999996,132788,90579.8)"
font-family="MS Shell Dlg 2" font-size="10.3125" font-weight="400" font-style="normal" 
>
</g>

<g fill="#ae5151" fill-opacity="0.2" stroke="#333333" stroke-opacity="1" stroke-width="1" stroke-linecap="round" stroke-linejoin="round" transform="matrix(0.999996,0,0,-0.999996,132788,90579.8)"
font-family="MS Shell Dlg 2" font-size="10.3125" font-weight="400" font-style="normal" 
>
<path vector-effect="non-scaling-stroke" fill-rule="evenodd" d="M-69849,-31092 L-69849,-31092 L-69849,-31092 L-69849,-31092 L-69849,-31092 L-69836.3,-29410 L-100466,-23524.9 L-100466,-23524.9 L-130993,-10479.5 L-130993,-10479.5 L-130993,-10479.5 L-130993,-10479.5 L-132789,19155.4 L-132789,19155.4 L-132789,19155.4 L-132789,19155.4 L-101054,37907.2 L-101054,37907.2 L-69271.7,45311.5 L-69259.7,46905.6 L-69259.7,46905.6 L-69259.7,46905.6 L-69259.7,46905.6 L-69259.7,46905.6 L8737.94,46316.3 L8737.95,46316.3 L8737.95,46316.3 L8737.95,46316.3 L8737.95,46316.3 L8715.44,43336.5 L30800.7,90579.2 L30800.7,90579.2 L30800.7,90579.2 L30800.7,90579.2 L30800.7,90579.2 L30800.7,90579.2 L52990.4,73491.7 L68835.4,61290.1 L68835.4,61290.1 L68835.4,61290.1 L69053,49214 L69331.4,60908.1 L69331.5,60908.1 L69331.5,60908.1 L69331.5,60908.1 L69331.5,60908.1 L69331.5,60908.1 L69331.5,60908.1 L80945.8,51964.4 L86361.6,47793.9 L104174,34076.9 L105722,32884.9 L106469,32310.3 L115954,32084.5 L115954,32084.5 L115954,32084.5 L115954,32084.5 L115954,32084.5 L115867,28425.7 L149727,28425.7 L149727,28425.7 L149727,28425.7 L149727,28425.7 L149727,28425.7 L149727,24480 L170976,24063.3 L178153,23922.6 L178153,23922.6 L178153,23922.6 L178153,23922.6 L178153,23922.6 L178136,23035.5 L210097,59270.7 L210097,59270.7 L210097,59270.7 L210097,59270.7 L210097,59270.7 L210097,59270.7 L210097,59270.6 L210097,59270.6 L195722,20053.5 L194118,6417.13 L196524,-5614.98 L206087,-30076.8 L206087,-30076.8 L206087,-30076.8 L206087,-30076.9 L206087,-30076.9 L206087,-30076.9 L206087,-30076.9 L206087,-30076.9 L177599,-4358.9 L177590,-4784.52 L177590,-4784.53 L177590,-4784.53 L177590,-4784.53 L177590,-4784.53 L156060,-4362.37 L149727,-4238.2 L149727,-9287.6 L149727,-9287.61 L149727,-9287.61 L149727,-9287.61 L149727,-9287.61 L114969,-9287.61 L114829,-15197.9 L114829,-15197.9 L114829,-15197.9 L114829,-15197.9 L114829,-15197.9 L103008,-14916.5 L70194.4,-14135.2 L70360.7,-23359.7 L70360.7,-23359.7 L70360.6,-23359.7 L70360.6,-23359.7 L70360.6,-23359.7 L23500.5,-24204.1 L8203.04,-24479.7 L8148.62,-31681.3 L8148.62,-31681.3 L8148.62,-31681.3 L8148.62,-31681.3 L8148.61,-31681.3 L-69849,-31092 M-50349.6,-31239.3 L-11350.8,-31534 L8148.61,-31681.3 L8203.03,-24479.7 L23500.5,-24204.1 L70360.6,-23359.7 L70194.4,-14135.2 L103008,-14916.5 L114829,-15197.9 L114969,-9287.6 L121442,-9287.6 L140299,-9287.6 L149727,-9287.6 L149727,-4238.19 L156060,-4362.36 L177590,-4784.52 L177599,-4358.87 L206087,-30076.8 L196524,-5614.98 L194118,6417.12 L195722,20053.5 L210097,59270.6 L178136,23035.5 L178153,23922.6 L170976,24063.3 L149727,24480 L149727,28425.7 L140299,28425.7 L121442,28425.7 L115867,28425.7 L115954,32084.5 L106469,32310.3 L105722,32884.9 L104174,34076.9 L86361.6,47793.9 L80945.8,51964.4 L69331.5,60908.1 L69053,49213.5 L68835.4,61290.1 L52990.4,73491.7 L30800.7,90579.2 L8715.43,43336.4 L8737.94,46316.3 L-10761.5,46463.6 L-49760.3,46758.3 L-69259.7,46905.6 L-69271.7,45311.5 L-101054,37907.2 L-132789,19155.4 L-130993,-10479.5 L-100466,-23524.9 L-69836.3,-29409.9 L-69849,-31092 L-50349.6,-31239.3"/>
</g>

<g fill="none" stroke="#000000" stroke-opacity="1" stroke-width="1" stroke-linecap="square" stroke-linejoin="bevel" transform="matrix(0.999996,0,0,-0.999996,132788,90579.8)"
font-family="MS Shell Dlg 2" font-size="10.3125" font-weight="400" font-style="normal" 
>
</g>

<g fill="none" stroke="#000000" stroke-opacity="1" stroke-width="1" stroke-linecap="square" stroke-linejoin="bevel" transform="matrix(0.999996,0,0,-0.999996,132788,90579.8)"
font-family="MS Shell Dlg 2" font-size="10.3125" font-weight="400" font-style="normal" 
>
</g>

<g fill="#333333" fill-opacity="0.2" stroke="#333333" stroke-opacity="1" stroke-width="1" stroke-linecap="round" stroke-linejoin="round" transform="matrix(0.999996,0,0,-0.999996,132788,90579.8)"
font-family="MS Shell Dlg 2" font-size="10.3125" font-weight="400" font-style="normal" 
>
<path vector-effect="non-scaling-stroke" fill-rule="evenodd" d="M-73834.4,22863.7 L-73876.9,21998.6 L-74004,21141.7 L-74214.5,20301.4 L-74506.3,19485.9 L-74876.7,18702.8 L-75322,17959.8 L-75838,17264.1 L-76419.7,16622.2 L-77061.5,16040.5 L-77757.3,15524.5 L-78500.3,15079.2 L-79283.3,14708.8 L-80098.9,14417 L-80939.2,14206.5 L-81796,14079.4 L-82661.2,14036.9 L-83526.4,14079.4 L-84383.3,14206.5 L-85223.5,14417 L-86039.1,14708.8 L-86822.2,15079.2 L-87565.2,15524.5 L-88260.9,16040.5 L-88902.7,16622.2 L-89484.5,17264.1 L-90000.5,17959.8 L-90445.8,18702.8 L-90816.2,19485.9 L-91108,20301.4 L-91318.5,21141.7 L-91445.6,21998.6 L-91488.1,22863.7 L-91445.6,23728.9 L-91318.5,24585.8 L-91108,25426 L-90816.2,26241.6 L-90445.8,27024.7 L-90000.5,27767.7 L-89484.5,28463.4 L-88902.7,29105.3 L-88260.9,29687 L-87565.2,30203 L-86822.2,30648.3 L-86039.1,31018.7 L-85223.5,31310.5 L-84383.3,31521 L-83526.4,31648.1 L-82661.2,31690.6 L-81796,31648.1 L-80939.2,31521 L-80098.9,31310.5 L-79283.3,31018.7 L-78500.3,30648.3 L-77757.3,30203 L-77061.5,29687 L-76419.7,29105.3 L-75838,28463.4 L-75322,27767.7 L-74876.7,27024.7 L-74506.3,26241.6 L-74214.5,25426 L-74004,24585.8 L-73876.9,23728.9 L-73834.4,22863.7 M-73834.4,22863.7 L-73876.9,23728.9 L-74004,24585.8 L-74214.5,25426 L-74506.3,26241.6 L-74876.7,27024.7 L-75322,27767.7 L-75838,28463.4 L-76419.7,29105.2 L-77061.5,29687 L-77757.3,30203 L-78500.3,30648.3 L-79283.3,31018.7 L-80098.9,31310.5 L-80939.2,31521 L-81796,31648.1 L-82661.2,31690.6 L-83526.4,31648.1 L-84383.3,31521 L-85223.5,31310.5 L-86039.1,31018.7 L-86822.2,30648.3 L-87565.1,30203 L-88260.9,29687 L-88902.7,29105.2 L-89484.5,28463.4 L-90000.5,27767.7 L-90445.8,27024.7 L-90816.1,26241.6 L-91108,25426 L-91318.4,24585.8 L-91445.5,23728.9 L-91488,22863.7 L-91445.5,21998.6 L-91318.4,21141.7 L-91108,20301.5 L-90816.1,19485.9 L-90445.8,18702.8 L-90000.5,17959.8 L-89484.5,17264.1 L-88902.7,16622.2 L-88260.9,16040.5 L-87565.1,15524.5 L-86822.2,15079.2 L-86039.1,14708.8 L-85223.5,14417 L-84383.3,14206.5 L-83526.4,14079.4 L-82661.2,14036.9 L-81796,14079.4 L-80939.2,14206.5 L-80098.9,14417 L-79283.3,14708.8 L-78500.3,15079.2 L-77757.3,15524.5 L-77061.5,16040.5 L-76419.7,16622.2 L-75838,17264.1 L-75322,17959.8 L-74876.7,18702.8 L-74506.3,19485.9 L-74214.5,20301.5 L-74004,21141.7 L-73876.9,21998.6 L-73834.4,22863.7"/>
</g>

<g fill="none" stroke="#000000" stroke-opacity="1" stroke-width="1" stroke-linecap="square" stroke-linejoin="bevel" transform="matrix(0.999996,0,0,-0.999996,132788,90579.8)"
font-family="MS Shell Dlg 2" font-size="10.3125" font-weight="400" font-style="normal" 
>
</g>

<g fill="none" stroke="#000000" stroke-opacity="1" stroke-width="1" stroke-linecap="square" stroke-linejoin="bevel" transform="matrix(0.999996,0,0,-0.999996,132788,90579.8)"
font-family="MS Shell Dlg 2" font-size="10.3125" font-weight="400" font-style="normal" 
>
</g>

<g fill="#333333" fill-opacity="0.2" stroke="#333333" stroke-opacity="1" stroke-width="1" stroke-linecap="round" stroke-linejoin="round" transform="matrix(0.999996,0,0,-0.999996,132788,90579.8)"
font-family="MS Shell Dlg 2" font-size="10.3125" font-weight="400" font-style="normal" 
>
<path vector-effect="non-scaling-stroke" fill-rule="evenodd" d="M-69849,-31092 L-69849,-31092 L-69849,-31092 L-69849,-31092 L-69849,-31092 L-69836.3,-29410 L-100466,-23524.9 L-100466,-23524.9 L-130993,-10479.5 L-130993,-10479.5 L-130993,-10479.5 L-130993,-10479.5 L-132789,19155.4 L-132789,19155.4 L-132789,19155.4 L-132789,19155.4 L-101054,37907.2 L-101054,37907.2 L-69271.7,45311.5 L-69259.7,46905.6 L-69259.7,46905.6 L-69259.7,46905.6 L-69259.7,46905.6 L-69259.7,46905.6 L8737.94,46316.3 L8737.95,46316.3 L8737.95,46316.3 L8737.95,46316.3 L8737.95,46316.3 L8715.44,43336.5 L30800.7,90579.2 L30800.7,90579.2 L30800.7,90579.2 L30800.7,90579.2 L30800.7,90579.2 L30800.7,90579.2 L52990.4,73491.7 L68835.4,61290.1 L68835.4,61290.1 L68835.4,61290.1 L69053,49214 L69331.4,60908.1 L69331.5,60908.1 L69331.5,60908.1 L69331.5,60908.1 L69331.5,60908.1 L69331.5,60908.1 L69331.5,60908.1 L80945.8,51964.4 L86361.6,47793.9 L104174,34076.9 L105722,32884.9 L106469,32310.3 L115954,32084.5 L115954,32084.5 L115954,32084.5 L115954,32084.5 L115954,32084.5 L115867,28425.7 L149727,28425.7 L149727,28425.7 L149727,28425.7 L149727,28425.7 L149727,28425.7 L149727,24480 L170976,24063.3 L178153,23922.6 L178153,23922.6 L178153,23922.6 L178153,23922.6 L178153,23922.6 L178136,23035.5 L210097,59270.7 L210097,59270.7 L210097,59270.7 L210097,59270.7 L210097,59270.7 L210097,59270.7 L210097,59270.6 L210097,59270.6 L195722,20053.5 L194118,6417.13 L196524,-5614.98 L206087,-30076.8 L206087,-30076.8 L206087,-30076.8 L206087,-30076.9 L206087,-30076.9 L206087,-30076.9 L206087,-30076.9 L206087,-30076.9 L177599,-4358.9 L177590,-4784.52 L177590,-4784.53 L177590,-4784.53 L177590,-4784.53 L177590,-4784.53 L156060,-4362.37 L149727,-4238.2 L149727,-9287.6 L149727,-9287.61 L149727,-9287.61 L149727,-9287.61 L149727,-9287.61 L114969,-9287.61 L114829,-15197.9 L114829,-15197.9 L114829,-15197.9 L114829,-15197.9 L114829,-15197.9 L103008,-14916.5 L70194.4,-14135.2 L70360.7,-23359.7 L70360.7,-23359.7 L70360.6,-23359.7 L70360.6,-23359.7 L70360.6,-23359.7 L23500.5,-24204.1 L8203.04,-24479.7 L8148.62,-31681.3 L8148.62,-31681.3 L8148.62,-31681.3 L8148.62,-31681.3 L8148.61,-31681.3 L-69849,-31092 M-50349.6,-31239.3 L-11350.8,-31534 L8148.61,-31681.3 L8203.03,-24479.7 L23500.5,-24204.1 L70360.6,-23359.7 L70194.4,-14135.2 L103008,-14916.5 L114829,-15197.9 L114969,-9287.6 L121442,-9287.6 L140299,-9287.6 L149727,-9287.6 L149727,-4238.19 L156060,-4362.36 L177590,-4784.52 L177599,-4358.87 L206087,-30076.8 L196524,-5614.98 L194118,6417.12 L195722,20053.5 L210097,59270.6 L178136,23035.5 L178153,23922.6 L170976,24063.3 L149727,24480 L149727,28425.7 L140299,28425.7 L121442,28425.7 L115867,28425.7 L115954,32084.5 L106469,32310.3 L105722,32884.9 L104174,34076.9 L86361.6,47793.9 L80945.8,51964.4 L69331.5,60908.1 L69053,49213.5 L68835.4,61290.1 L52990.4,73491.7 L30800.7,90579.2 L8715.43,43336.4 L8737.94,46316.3 L-10761.5,46463.6 L-49760.3,46758.3 L-69259.7,46905.6 L-69271.7,45311.5 L-101054,37907.2 L-132789,19155.4 L-130993,-10479.5 L-100466,-23524.9 L-69836.3,-29409.9 L-69849,-31092 L-50349.6,-31239.3"/>
</g>

<g fill="none" stroke="#000000" stroke-opacity="1" stroke-width="1" stroke-linecap="square" stroke-linejoin="bevel" transform="matrix(0.999996,0,0,-0.999996,132788,90579.8)"
font-family="MS Shell Dlg 2" font-size="10.3125" font-weight="400" font-style="normal" 
>
</g>

<g fill="none" stroke="#000000" stroke-opacity="1" stroke-width="1" stroke-linecap="square" stroke-linejoin="bevel" transform="matrix(1,0,0,-1,0,122261)"
font-family="MS Shell Dlg 2" font-size="10.3125" font-weight="400" font-style="normal" 
>
</g>
</g>
</svg>
