<?xml version="1.0" encoding="UTF-8" standalone="no"?>
<svg width="14117mm" height="570.371mm"
 xmlns="http://www.w3.org/2000/svg" xmlns:xlink="http://www.w3.org/1999/xlink"  version="1.2" baseProfile="tiny">
<title>SVG Generator Example Drawing</title>
<desc>An SVG drawing created by the SVG Generator</desc>
<defs>
</defs>
<g fill="none" stroke="black" stroke-width="1" fill-rule="evenodd" stroke-linecap="square" stroke-linejoin="bevel" >

<g fill="none" stroke="#000000" stroke-opacity="1" stroke-width="1" stroke-linecap="square" stroke-linejoin="bevel" transform="matrix(1,0,0,-1,0,2021)"
font-family="MS Shell Dlg 2" font-size="10.3125" font-weight="400" font-style="normal" 
>
</g>

<g fill="none" stroke="#000000" stroke-opacity="1" stroke-width="1" stroke-linecap="square" stroke-linejoin="bevel" transform="matrix(1,0,0,-1,0,2021)"
font-family="MS Shell Dlg 2" font-size="10.3125" font-weight="400" font-style="normal" 
>
</g>

<g fill="none" stroke="#000000" stroke-opacity="1" stroke-width="1" stroke-linecap="square" stroke-linejoin="bevel" transform="matrix(1,0,0,-1,10.5,1010.5)"
font-family="MS Shell Dlg 2" font-size="10.3125" font-weight="400" font-style="normal" 
>
</g>

<g fill="#333333" fill-opacity="0.2" stroke="#333333" stroke-opacity="1" stroke-width="1" stroke-linecap="round" stroke-linejoin="round" transform="matrix(1,0,0,-1,10.5,1010.5)"
font-family="MS Shell Dlg 2" font-size="10.3125" font-weight="400" font-style="normal" 
>
<path vector-effect="non-scaling-stroke" fill-rule="evenodd" d="M9990,10 L9990,1000 L9990.76,1003.83 L9992.93,1007.07 L9996.17,1009.24 L10000,1010 L40000,1010 L40003.8,1009.24 L40007.1,1007.07 L40009.2,1003.83 L40010,1000 L40010,10 L50000,10 L50003.8,9.2388 L50007.1,7.07107 L50009.2,3.82683 L50010,0 L50010,-1000 L50009.2,-1003.83 L50007.1,-1007.07 L50003.8,-1009.24 L50000,-1010 L40000,-1010 L39996.2,-1009.24 L39992.9,-1007.07 L39990.8,-1003.83 L39990,-1000 L39990,-10 L30010,-10 L30010,-1000 L30009.2,-1003.83 L30007.1,-1007.07 L30003.8,-1009.24 L30000,-1010 L20000,-1010 L19996.2,-1009.24 L19992.9,-1007.07 L19990.8,-1003.83 L19990,-1000 L19990,-10 L10010,-10 L10010,-1000 L10009.2,-1003.83 L10007.1,-1007.07 L10003.8,-1009.24 L10000,-1010 L0,-1010 L-3.82683,-1009.24 L-7.07107,-1007.07 L-9.2388,-1003.83 L-10,-1000 L-10,0 L-9.2388,3.82683 L-7.07107,7.07107 L-3.82683,9.2388 L0,10 L9990,10"/>
</g>

<g fill="none" stroke="#000000" stroke-opacity="1" stroke-width="1" stroke-linecap="square" stroke-linejoin="bevel" transform="matrix(1,0,0,-1,10.5,1010.5)"
font-family="MS Shell Dlg 2" font-size="10.3125" font-weight="400" font-style="normal" 
>
</g>

<g fill="none" stroke="#000000" stroke-opacity="1" stroke-width="1" stroke-linecap="square" stroke-linejoin="bevel" transform="matrix(1,0,0,-1,10.5,1010.5)"
font-family="MS Shell Dlg 2" font-size="10.3125" font-weight="400" font-style="normal" 
>
</g>

<g fill="#ae5151" fill-opacity="0.2" stroke="#333333" stroke-opacity="1" stroke-width="1" stroke-linecap="round" stroke-linejoin="round" transform="matrix(1,0,0,-1,10.5,1010.5)"
font-family="MS Shell Dlg 2" font-size="10.3125" font-weight="400" font-style="normal" 
>
<path vector-effect="non-scaling-stroke" fill-rule="evenodd" d="M9990,10 L9990,1000 L9990.76,1003.83 L9992.93,1007.07 L9996.17,1009.24 L10000,1010 L40000,1010 L40003.8,1009.24 L40007.1,1007.07 L40009.2,1003.83 L40010,1000 L40010,10 L50000,10 L50003.8,9.2388 L50007.1,7.07107 L50009.2,3.82683 L50010,0 L50010,-1000 L50009.2,-1003.83 L50007.1,-1007.07 L50003.8,-1009.24 L50000,-1010 L40000,-1010 L39996.2,-1009.24 L39992.9,-1007.07 L39990.8,-1003.83 L39990,-1000 L39990,-10 L30010,-10 L30010,-1000 L30009.2,-1003.83 L30007.1,-1007.07 L30003.8,-1009.24 L30000,-1010 L20000,-1010 L19996.2,-1009.24 L19992.9,-1007.07 L19990.8,-1003.83 L19990,-1000 L19990,-10 L10010,-10 L10010,-1000 L10009.2,-1003.83 L10007.1,-1007.07 L10003.8,-1009.24 L10000,-1010 L0,-1010 L-3.82683,-1009.24 L-7.07107,-1007.07 L-9.2388,-1003.83 L-10,-1000 L-10,0 L-9.2388,3.82683 L-7.07107,7.07107 L-3.82683,9.2388 L0,10 L9990,10"/>
</g>

<g fill="none" stroke="#000000" stroke-opacity="1" stroke-width="1" stroke-linecap="square" stroke-linejoin="bevel" transform="matrix(1,0,0,-1,10.5,1010.5)"
font-family="MS Shell Dlg 2" font-size="10.3125" font-weight="400" font-style="normal" 
>
</g>

<g fill="none" stroke="#000000" stroke-opacity="1" stroke-width="1" stroke-linecap="square" stroke-linejoin="bevel" transform="matrix(1,0,0,-1,10.5,1010.5)"
font-family="MS Shell Dlg 2" font-size="10.3125" font-weight="400" font-style="normal" 
>
</g>

<g fill="none" stroke="#333333" stroke-opacity="1" stroke-width="1" stroke-linecap="round" stroke-linejoin="round" transform="matrix(1,0,0,-1,10.5,1010.5)"
font-family="MS Shell Dlg 2" font-size="10.3125" font-weight="400" font-style="normal" 
>
<path vector-effect="non-scaling-stroke" fill-rule="evenodd" d="M0,0 L19990,0"/>
</g>

<g fill="none" stroke="#000000" stroke-opacity="1" stroke-width="1" stroke-linecap="square" stroke-linejoin="bevel" transform="matrix(1,0,0,-1,10.5,1010.5)"
font-family="MS Shell Dlg 2" font-size="10.3125" font-weight="400" font-style="normal" 
>
</g>

<g fill="none" stroke="#000000" stroke-opacity="1" stroke-width="1" stroke-linecap="square" stroke-linejoin="bevel" transform="matrix(1,0,0,-1,10.5,1010.5)"
font-family="MS Shell Dlg 2" font-size="10.3125" font-weight="400" font-style="normal" 
>
</g>

<g fill="none" stroke="#333333" stroke-opacity="1" stroke-width="1" stroke-linecap="round" stroke-linejoin="round" transform="matrix(1,0,0,-1,10.5,1010.5)"
font-family="MS Shell Dlg 2" font-size="10.3125" font-weight="400" font-style="normal" 
>
<path vector-effect="non-scaling-stroke" fill-rule="evenodd" d="M30010,0 L50000,0"/>
</g>

<g fill="none" stroke="#000000" stroke-opacity="1" stroke-width="1" stroke-linecap="square" stroke-linejoin="bevel" transform="matrix(1,0,0,-1,10.5,1010.5)"
font-family="MS Shell Dlg 2" font-size="10.3125" font-weight="400" font-style="normal" 
>
</g>

<g fill="none" stroke="#000000" stroke-opacity="1" stroke-width="1" stroke-linecap="square" stroke-linejoin="bevel" transform="matrix(1,0,0,-1,10.5,1010.5)"
font-family="MS Shell Dlg 2" font-size="10.3125" font-weight="400" font-style="normal" 
>
</g>

<g fill="#ffff00" fill-opacity="0.2" stroke="#333333" stroke-opacity="1" stroke-width="1" stroke-linecap="round" stroke-linejoin="round" transform="matrix(1,0,0,-1,10.5,1010.5)"
font-family="MS Shell Dlg 2" font-size="10.3125" font-weight="400" font-style="normal" 
>
<path vector-effect="non-scaling-stroke" fill-rule="evenodd" d="M20000,1010 L30000,1010 L30003.8,1009.24 L30007.1,1007.07 L30009.2,1003.83 L30010,1000 L30010,0 L30010,-1000 L30009.2,-1003.83 L30007.1,-1007.07 L30003.8,-1009.24 L30000,-1010 L20000,-1010 L19996.2,-1009.24 L19992.9,-1007.07 L19990.8,-1003.83 L19990,-1000 L19990,0 L19990,1000 L19990.8,1003.83 L19992.9,1007.07 L19996.2,1009.24 L20000,1010"/>
</g>

<g fill="none" stroke="#000000" stroke-opacity="1" stroke-width="1" stroke-linecap="square" stroke-linejoin="bevel" transform="matrix(1,0,0,-1,10.5,1010.5)"
font-family="MS Shell Dlg 2" font-size="10.3125" font-weight="400" font-style="normal" 
>
</g>

<g fill="none" stroke="#000000" stroke-opacity="1" stroke-width="1" stroke-linecap="square" stroke-linejoin="bevel" transform="matrix(1,0,0,-1,10.5,1010.5)"
font-family="MS Shell Dlg 2" font-size="10.3125" font-weight="400" font-style="normal" 
>
</g>

<g fill="#ae5151" fill-opacity="0.2" stroke="#333333" stroke-opacity="1" stroke-width="1" stroke-linecap="round" stroke-linejoin="round" transform="matrix(1,0,0,-1,10.5,1010.5)"
font-family="MS Shell Dlg 2" font-size="10.3125" font-weight="400" font-style="normal" 
>
<path vector-effect="non-scaling-stroke" fill-rule="evenodd" d="M9990,-10 L0,-10 L-3.82683,-9.2388 L-7.07107,-7.07107 L-9.2388,-3.82683 L-10,0 L-10,1000 L-9.2388,1003.83 L-7.07107,1007.07 L-3.82683,1009.24 L0,1010 L10000,1010 L10003.8,1009.24 L10007.1,1007.07 L10009.2,1003.83 L10010,1000 L10010,10 L19990,10 L19990,1000 L19990.8,1003.83 L19992.9,1007.07 L19996.2,1009.24 L20000,1010 L30000,1010 L30003.8,1009.24 L30007.1,1007.07 L30009.2,1003.83 L30010,1000 L30010,10 L39990,10 L39990,1000 L39990.8,1003.83 L39992.9,1007.07 L39996.2,1009.24 L40000,1010 L50000,1010 L50003.8,1009.24 L50007.1,1007.07 L50009.2,1003.83 L50010,1000 L50010,0 L50009.2,-3.82683 L50007.1,-7.07107 L50003.8,-9.2388 L50000,-10 L40010,-10 L40010,-1000 L40009.2,-1003.83 L40007.1,-1007.07 L40003.8,-1009.24 L40000,-1010 L10000,-1010 L9996.17,-1009.24 L9992.93,-1007.07 L9990.76,-1003.83 L9990,-1000 L9990,-10"/>
</g>

<g fill="none" stroke="#000000" stroke-opacity="1" stroke-width="1" stroke-linecap="square" stroke-linejoin="bevel" transform="matrix(1,0,0,-1,10.5,1010.5)"
font-family="MS Shell Dlg 2" font-size="10.3125" font-weight="400" font-style="normal" 
>
</g>

<g fill="none" stroke="#000000" stroke-opacity="1" stroke-width="1" stroke-linecap="square" stroke-linejoin="bevel" transform="matrix(1,0,0,-1,10.5,1010.5)"
font-family="MS Shell Dlg 2" font-size="10.3125" font-weight="400" font-style="normal" 
>
</g>

<g fill="#333333" fill-opacity="0.2" stroke="#333333" stroke-opacity="1" stroke-width="1" stroke-linecap="round" stroke-linejoin="round" transform="matrix(1,0,0,-1,10.5,1010.5)"
font-family="MS Shell Dlg 2" font-size="10.3125" font-weight="400" font-style="normal" 
>
<path vector-effect="non-scaling-stroke" fill-rule="evenodd" d="M9990,-10 L0,-10 L-3.82683,-9.2388 L-7.07107,-7.07107 L-9.2388,-3.82683 L-10,0 L-10,1000 L-9.2388,1003.83 L-7.07107,1007.07 L-3.82683,1009.24 L0,1010 L10000,1010 L10003.8,1009.24 L10007.1,1007.07 L10009.2,1003.83 L10010,1000 L10010,10 L19990,10 L19990,1000 L19990.8,1003.83 L19992.9,1007.07 L19996.2,1009.24 L20000,1010 L30000,1010 L30003.8,1009.24 L30007.1,1007.07 L30009.2,1003.83 L30010,1000 L30010,10 L39990,10 L39990,1000 L39990.8,1003.83 L39992.9,1007.07 L39996.2,1009.24 L40000,1010 L50000,1010 L50003.8,1009.24 L50007.1,1007.07 L50009.2,1003.83 L50010,1000 L50010,0 L50009.2,-3.82683 L50007.1,-7.07107 L50003.8,-9.2388 L50000,-10 L40010,-10 L40010,-1000 L40009.2,-1003.83 L40007.1,-1007.07 L40003.8,-1009.24 L40000,-1010 L10000,-1010 L9996.17,-1009.24 L9992.93,-1007.07 L9990.76,-1003.83 L9990,-1000 L9990,-10"/>
</g>

<g fill="none" stroke="#000000" stroke-opacity="1" stroke-width="1" stroke-linecap="square" stroke-linejoin="bevel" transform="matrix(1,0,0,-1,10.5,1010.5)"
font-family="MS Shell Dlg 2" font-size="10.3125" font-weight="400" font-style="normal" 
>
</g>

<g fill="none" stroke="#000000" stroke-opacity="1" stroke-width="1" stroke-linecap="square" stroke-linejoin="bevel" transform="matrix(1,0,0,-1,0,2021)"
font-family="MS Shell Dlg 2" font-size="10.3125" font-weight="400" font-style="normal" 
>
</g>
</g>
</svg>
