<?xml version="1.0" encoding="UTF-8" standalone="no"?>
<svg width="16933.6mm" height="28053.2mm"
 xmlns="http://www.w3.org/2000/svg" xmlns:xlink="http://www.w3.org/1999/xlink"  version="1.2" baseProfile="tiny">
<title>SVG Generator Example Drawing</title>
<desc>An SVG drawing created by the SVG Generator</desc>
<defs>
</defs>
<g fill="none" stroke="black" stroke-width="1" fill-rule="evenodd" stroke-linecap="square" stroke-linejoin="bevel" >

<g fill="none" stroke="#000000" stroke-opacity="1" stroke-width="1" stroke-linecap="square" stroke-linejoin="bevel" transform="matrix(1,0,0,-1,0,99402)"
font-family="MS Shell Dlg 2" font-size="10.3125" font-weight="400" font-style="normal" 
>
</g>

<g fill="none" stroke="#000000" stroke-opacity="1" stroke-width="1" stroke-linecap="square" stroke-linejoin="bevel" transform="matrix(1,0,0,-1,0,99402)"
font-family="MS Shell Dlg 2" font-size="10.3125" font-weight="400" font-style="normal" 
>
</g>

<g fill="none" stroke="#000000" stroke-opacity="1" stroke-width="1" stroke-linecap="square" stroke-linejoin="bevel" transform="matrix(0.99999,0,0,-0.99999,30000.2,55402)"
font-family="MS Shell Dlg 2" font-size="10.3125" font-weight="400" font-style="normal" 
>
</g>

<g fill="#333333" fill-opacity="0.2" stroke="#333333" stroke-opacity="1" stroke-width="1" stroke-linecap="round" stroke-linejoin="round" transform="matrix(0.99999,0,0,-0.99999,30000.2,55402)"
font-family="MS Shell Dlg 2" font-size="10.3125" font-weight="400" font-style="normal" 
>
<path vector-effect="non-scaling-stroke" fill-rule="evenodd" d="M-22380,36451.2 L-22379.9,36451.1 L-16026.4,36451.1 L-16026.3,36450.9 L-16026.3,671.209 L-16026.4,671.068 L-29999.9,671.068 L-30000,671.209 L-30000,55400.9 L-29999.9,55401.1 L29999.9,55401.1 L30000,55400.9 L30000,671.209 L29999.9,671.068 L16026.4,671.068 L16026.3,671.209 L16026.3,36450.9 L16026.4,36451.1 L22379.9,36451.1 L22380,36451.2 L22380,38801 L22379.9,38801.1 L10380.1,38801.1 L10380,38801 L10380,36451.1 L10375,29931.2 L10374.9,29931.1 L10125.1,29931.1 L10125,29931 L10125,7778.55 L10125.1,7778.45 L10125.2,7778.5 L10275.1,8038.13 L10275.3,8038.18 L13278.1,6304.49 L13278.2,6304.38 L15026.3,-6973.67 L15026.3,-6973.76 L9526.29,-16500 L9526.27,-16500 L5500.01,-20526.3 L5499.98,-20526.3 L5000.05,-20814.9 L5000,-20815 L5000,-38999.9 L4999.96,-39000 L0.1,-43999.9 L-0.1,-43999.9 L-4999.96,-39000 L-5000,-38999.9 L-5000,-20815 L-5000.05,-20814.9 L-5499.98,-20526.3 L-5500.01,-20526.3 L-9526.27,-16500 L-9526.29,-16500 L-15026.3,-6973.76 L-15026.3,-6973.67 L-13278.2,6304.38 L-13278.1,6304.49 L-10275.3,8038.18 L-10275.1,8038.13 L-10125.2,7778.5 L-10125.1,7778.45 L-10125,7778.55 L-10125,29931 L-10125.1,29931.1 L-10374.9,29931.1 L-10375,29931.2 L-10375,36451.1 L-10375,36451.1 L-10380,38801 L-10380.1,38801.1 L-22379.9,38801.1 L-22380,38801 L-22380,36451.2 M12380,47931.2 L12380.1,47931.1 L20379.9,47931.1 L20380,47931.2 L20380,50931 L20379.9,50931.1 L12380.1,50931.1 L12380,50931 L12380,47931.2 M4813.21,9796.92 L4813.2,9796.88 L4826.52,9695.65 L4826.53,9695.61 L4879.21,9608.16 L4879.24,9608.13 L4962.5,9549.05 L4962.54,9549.03 L5062.49,9528.18 L5062.51,9528.18 L5090.33,9529.73 L5090.36,9529.73 L5187.36,9561.59 L5187.4,9561.61 L5263.56,9629.6 L5263.58,9629.64 L5306.2,9722.41 L5306.21,9722.45 L5308.16,9824.53 L5308.15,9824.57 L5269.12,9918.91 L5269.1,9918.94 L5195.6,9989.79 L5195.56,9989.82 L5099.86,10025.4 L5099.82,10025.4 L4997.88,10019.7 L4997.84,10019.7 L4906.69,9973.68 L4906.66,9973.65 L4841.51,9895.05 L4841.49,9895.01 L4813.21,9796.92 M-125,7778.27 L-124.9,7778.17 L124.9,7778.17 L125,7778.27 L125,29931 L124.9,29931.1 L-124.9,29931.1 L-125,29931 L-125,7778.27 M-5311.79,9796.92 L-5311.8,9796.88 L-5298.48,9695.65 L-5298.47,9695.61 L-5245.79,9608.16 L-5245.76,9608.13 L-5162.5,9549.05 L-5162.46,9549.03 L-5062.51,9528.18 L-5062.49,9528.18 L-5034.67,9529.73 L-5034.64,9529.73 L-4937.64,9561.59 L-4937.6,9561.61 L-4861.44,9629.6 L-4861.42,9629.64 L-4818.8,9722.41 L-4818.79,9722.45 L-4816.84,9824.53 L-4816.85,9824.57 L-4855.88,9918.91 L-4855.9,9918.94 L-4929.4,9989.79 L-4929.44,9989.82 L-5025.14,10025.4 L-5025.18,10025.4 L-5127.12,10019.7 L-5127.16,10019.7 L-5218.31,9973.68 L-5218.34,9973.65 L-5283.49,9895.05 L-5283.51,9895.01 L-5311.79,9796.92 M-20380,47931.2 L-20379.9,47931.1 L-12380.1,47931.1 L-12380,47931.2 L-12380,50931 L-12380.1,50931.1 L-20379.9,50931.1 L-20380,50931 L-20380,47931.2"/>
</g>

<g fill="none" stroke="#000000" stroke-opacity="1" stroke-width="1" stroke-linecap="square" stroke-linejoin="bevel" transform="matrix(0.99999,0,0,-0.99999,30000.2,55402)"
font-family="MS Shell Dlg 2" font-size="10.3125" font-weight="400" font-style="normal" 
>
</g>

<g fill="none" stroke="#000000" stroke-opacity="1" stroke-width="1" stroke-linecap="square" stroke-linejoin="bevel" transform="matrix(0.99999,0,0,-0.99999,30000.2,55402)"
font-family="MS Shell Dlg 2" font-size="10.3125" font-weight="400" font-style="normal" 
>
</g>

<g fill="#ae5151" fill-opacity="0.2" stroke="#333333" stroke-opacity="1" stroke-width="1" stroke-linecap="round" stroke-linejoin="round" transform="matrix(0.99999,0,0,-0.99999,30000.2,55402)"
font-family="MS Shell Dlg 2" font-size="10.3125" font-weight="400" font-style="normal" 
>
<path vector-effect="non-scaling-stroke" fill-rule="evenodd" d="M-22380,36451.2 L-22379.9,36451.1 L-16026.4,36451.1 L-16026.3,36450.9 L-16026.3,671.209 L-16026.4,671.068 L-29999.9,671.068 L-30000,671.209 L-30000,55400.9 L-29999.9,55401.1 L29999.9,55401.1 L30000,55400.9 L30000,671.209 L29999.9,671.068 L16026.4,671.068 L16026.3,671.209 L16026.3,36450.9 L16026.4,36451.1 L22379.9,36451.1 L22380,36451.2 L22380,38801 L22379.9,38801.1 L10380.1,38801.1 L10380,38801 L10380,36451.1 L10375,29931.2 L10374.9,29931.1 L10125.1,29931.1 L10125,29931 L10125,7778.55 L10125.1,7778.45 L10125.2,7778.5 L10275.1,8038.13 L10275.3,8038.18 L13278.1,6304.49 L13278.2,6304.38 L15026.3,-6973.67 L15026.3,-6973.76 L9526.29,-16500 L9526.27,-16500 L5500.01,-20526.3 L5499.98,-20526.3 L5000.05,-20814.9 L5000,-20815 L5000,-38999.9 L4999.96,-39000 L0.1,-43999.9 L-0.1,-43999.9 L-4999.96,-39000 L-5000,-38999.9 L-5000,-20815 L-5000.05,-20814.9 L-5499.98,-20526.3 L-5500.01,-20526.3 L-9526.27,-16500 L-9526.29,-16500 L-15026.3,-6973.76 L-15026.3,-6973.67 L-13278.2,6304.38 L-13278.1,6304.49 L-10275.3,8038.18 L-10275.1,8038.13 L-10125.2,7778.5 L-10125.1,7778.45 L-10125,7778.55 L-10125,29931 L-10125.1,29931.1 L-10374.9,29931.1 L-10375,29931.2 L-10375,36451.1 L-10375,36451.1 L-10380,38801 L-10380.1,38801.1 L-22379.9,38801.1 L-22380,38801 L-22380,36451.2 M12380,47931.2 L12380.1,47931.1 L20379.9,47931.1 L20380,47931.2 L20380,50931 L20379.9,50931.1 L12380.1,50931.1 L12380,50931 L12380,47931.2 M4813.21,9796.92 L4813.2,9796.88 L4826.52,9695.65 L4826.53,9695.61 L4879.21,9608.16 L4879.24,9608.13 L4962.5,9549.05 L4962.54,9549.03 L5062.49,9528.18 L5062.51,9528.18 L5090.33,9529.73 L5090.36,9529.73 L5187.36,9561.59 L5187.4,9561.61 L5263.56,9629.6 L5263.58,9629.64 L5306.2,9722.41 L5306.21,9722.45 L5308.16,9824.53 L5308.15,9824.57 L5269.12,9918.91 L5269.1,9918.94 L5195.6,9989.79 L5195.56,9989.82 L5099.86,10025.4 L5099.82,10025.4 L4997.88,10019.7 L4997.84,10019.7 L4906.69,9973.68 L4906.66,9973.65 L4841.51,9895.05 L4841.49,9895.01 L4813.21,9796.92 M-125,7778.27 L-124.9,7778.17 L124.9,7778.17 L125,7778.27 L125,29931 L124.9,29931.1 L-124.9,29931.1 L-125,29931 L-125,7778.27 M-5311.79,9796.92 L-5311.8,9796.88 L-5298.48,9695.65 L-5298.47,9695.61 L-5245.79,9608.16 L-5245.76,9608.13 L-5162.5,9549.05 L-5162.46,9549.03 L-5062.51,9528.18 L-5062.49,9528.18 L-5034.67,9529.73 L-5034.64,9529.73 L-4937.64,9561.59 L-4937.6,9561.61 L-4861.44,9629.6 L-4861.42,9629.64 L-4818.8,9722.41 L-4818.79,9722.45 L-4816.84,9824.53 L-4816.85,9824.57 L-4855.88,9918.91 L-4855.9,9918.94 L-4929.4,9989.79 L-4929.44,9989.82 L-5025.14,10025.4 L-5025.18,10025.4 L-5127.12,10019.7 L-5127.16,10019.7 L-5218.31,9973.68 L-5218.34,9973.65 L-5283.49,9895.05 L-5283.51,9895.01 L-5311.79,9796.92 M-20380,47931.2 L-20379.9,47931.1 L-12380.1,47931.1 L-12380,47931.2 L-12380,50931 L-12380.1,50931.1 L-20379.9,50931.1 L-20380,50931 L-20380,47931.2"/>
</g>

<g fill="none" stroke="#000000" stroke-opacity="1" stroke-width="1" stroke-linecap="square" stroke-linejoin="bevel" transform="matrix(0.99999,0,0,-0.99999,30000.2,55402)"
font-family="MS Shell Dlg 2" font-size="10.3125" font-weight="400" font-style="normal" 
>
</g>

<g fill="none" stroke="#000000" stroke-opacity="1" stroke-width="1" stroke-linecap="square" stroke-linejoin="bevel" transform="matrix(0.99999,0,0,-0.99999,30000.2,55402)"
font-family="MS Shell Dlg 2" font-size="10.3125" font-weight="400" font-style="normal" 
>
</g>

<g fill="#ffff00" fill-opacity="0.2" stroke="#333333" stroke-opacity="1" stroke-width="1" stroke-linecap="round" stroke-linejoin="round" transform="matrix(0.99999,0,0,-0.99999,30000.2,55402)"
font-family="MS Shell Dlg 2" font-size="10.3125" font-weight="400" font-style="normal" 
>
<path vector-effect="non-scaling-stroke" fill-rule="evenodd" d="M-22380,36451.2 L-22379.9,36451.1 L-16026.4,36451.1 L-16026.3,36450.9 L-16026.3,671.209 L-16026.4,671.068 L-29999.9,671.068 L-30000,671.209 L-30000,55400.9 L-29999.9,55401.1 L29999.9,55401.1 L30000,55400.9 L30000,671.209 L29999.9,671.068 L16026.4,671.068 L16026.3,671.209 L16026.3,36450.9 L16026.4,36451.1 L22379.9,36451.1 L22380,36451.2 L22380,38801 L22379.9,38801.1 L10380.1,38801.1 L10380,38801 L10380,36451.1 L10375,29931.2 L10374.9,29931.1 L10125.1,29931.1 L10125,29931 L10125,7778.55 L10125.1,7778.45 L10125.2,7778.5 L10275.1,8038.13 L10275.3,8038.18 L13278.1,6304.49 L13278.2,6304.38 L15026.3,-6973.67 L15026.3,-6973.76 L9526.29,-16500 L9526.27,-16500 L5500.01,-20526.3 L5499.98,-20526.3 L5000.05,-20814.9 L5000,-20815 L5000,-38999.9 L4999.96,-39000 L0.1,-43999.9 L-0.1,-43999.9 L-4999.96,-39000 L-5000,-38999.9 L-5000,-20815 L-5000.05,-20814.9 L-5499.98,-20526.3 L-5500.01,-20526.3 L-9526.27,-16500 L-9526.29,-16500 L-15026.3,-6973.76 L-15026.3,-6973.67 L-13278.2,6304.38 L-13278.1,6304.49 L-10275.3,8038.18 L-10275.1,8038.13 L-10125.2,7778.5 L-10125.1,7778.45 L-10125,7778.55 L-10125,29931 L-10125.1,29931.1 L-10374.9,29931.1 L-10375,29931.2 L-10375,36451.1 L-10375,36451.1 L-10380,38801 L-10380.1,38801.1 L-22379.9,38801.1 L-22380,38801 L-22380,36451.2 M12380,47931.2 L12380.1,47931.1 L20379.9,47931.1 L20380,47931.2 L20380,50931 L20379.9,50931.1 L12380.1,50931.1 L12380,50931 L12380,47931.2 M4813.21,9796.92 L4813.2,9796.88 L4826.52,9695.65 L4826.53,9695.61 L4879.21,9608.16 L4879.24,9608.13 L4962.5,9549.05 L4962.54,9549.03 L5062.49,9528.18 L5062.51,9528.18 L5090.33,9529.73 L5090.36,9529.73 L5187.36,9561.59 L5187.4,9561.61 L5263.56,9629.6 L5263.58,9629.64 L5306.2,9722.41 L5306.21,9722.45 L5308.16,9824.53 L5308.15,9824.57 L5269.12,9918.91 L5269.1,9918.94 L5195.6,9989.79 L5195.56,9989.82 L5099.86,10025.4 L5099.82,10025.4 L4997.88,10019.7 L4997.84,10019.7 L4906.69,9973.68 L4906.66,9973.65 L4841.51,9895.05 L4841.49,9895.01 L4813.21,9796.92 M-125,7778.27 L-124.9,7778.17 L124.9,7778.17 L125,7778.27 L125,29931 L124.9,29931.1 L-124.9,29931.1 L-125,29931 L-125,7778.27 M-5311.79,9796.92 L-5311.8,9796.88 L-5298.48,9695.65 L-5298.47,9695.61 L-5245.79,9608.16 L-5245.76,9608.13 L-5162.5,9549.05 L-5162.46,9549.03 L-5062.51,9528.18 L-5062.49,9528.18 L-5034.67,9529.73 L-5034.64,9529.73 L-4937.64,9561.59 L-4937.6,9561.61 L-4861.44,9629.6 L-4861.42,9629.64 L-4818.8,9722.41 L-4818.79,9722.45 L-4816.84,9824.53 L-4816.85,9824.57 L-4855.88,9918.91 L-4855.9,9918.94 L-4929.4,9989.79 L-4929.44,9989.82 L-5025.14,10025.4 L-5025.18,10025.4 L-5127.12,10019.7 L-5127.16,10019.7 L-5218.31,9973.68 L-5218.34,9973.65 L-5283.49,9895.05 L-5283.51,9895.01 L-5311.79,9796.92 M-20380,47931.2 L-20379.9,47931.1 L-12380.1,47931.1 L-12380,47931.2 L-12380,50931 L-12380.1,50931.1 L-20379.9,50931.1 L-20380,50931 L-20380,47931.2"/>
</g>

<g fill="none" stroke="#000000" stroke-opacity="1" stroke-width="1" stroke-linecap="square" stroke-linejoin="bevel" transform="matrix(0.99999,0,0,-0.99999,30000.2,55402)"
font-family="MS Shell Dlg 2" font-size="10.3125" font-weight="400" font-style="normal" 
>
</g>

<g fill="none" stroke="#000000" stroke-opacity="1" stroke-width="1" stroke-linecap="square" stroke-linejoin="bevel" transform="matrix(0.99999,0,0,-0.99999,30000.2,55402)"
font-family="MS Shell Dlg 2" font-size="10.3125" font-weight="400" font-style="normal" 
>
</g>

<g fill="#ae5151" fill-opacity="0.2" stroke="#333333" stroke-opacity="1" stroke-width="1" stroke-linecap="round" stroke-linejoin="round" transform="matrix(0.99999,0,0,-0.99999,30000.2,55402)"
font-family="MS Shell Dlg 2" font-size="10.3125" font-weight="400" font-style="normal" 
>
<path vector-effect="non-scaling-stroke" fill-rule="evenodd" d="M-22380,36451.2 L-22379.9,36451.1 L-16026.4,36451.1 L-16026.3,36450.9 L-16026.3,671.209 L-16026.4,671.068 L-29999.9,671.068 L-30000,671.209 L-30000,55400.9 L-29999.9,55401.1 L29999.9,55401.1 L30000,55400.9 L30000,671.209 L29999.9,671.068 L16026.4,671.068 L16026.3,671.209 L16026.3,36450.9 L16026.4,36451.1 L22379.9,36451.1 L22380,36451.2 L22380,38801 L22379.9,38801.1 L10380.1,38801.1 L10380,38801 L10380,36451.1 L10375,29931.2 L10374.9,29931.1 L10125.1,29931.1 L10125,29931 L10125,7778.55 L10125.1,7778.45 L10125.2,7778.5 L10275.1,8038.13 L10275.3,8038.18 L13278.1,6304.49 L13278.2,6304.38 L15026.3,-6973.67 L15026.3,-6973.76 L9526.29,-16500 L9526.27,-16500 L5500.01,-20526.3 L5499.98,-20526.3 L5000.05,-20814.9 L5000,-20815 L5000,-38999.9 L4999.96,-39000 L0.1,-43999.9 L-0.1,-43999.9 L-4999.96,-39000 L-5000,-38999.9 L-5000,-20815 L-5000.05,-20814.9 L-5499.98,-20526.3 L-5500.01,-20526.3 L-9526.27,-16500 L-9526.29,-16500 L-15026.3,-6973.76 L-15026.3,-6973.67 L-13278.2,6304.38 L-13278.1,6304.49 L-10275.3,8038.18 L-10275.1,8038.13 L-10125.2,7778.5 L-10125.1,7778.45 L-10125,7778.55 L-10125,29931 L-10125.1,29931.1 L-10374.9,29931.1 L-10375,29931.2 L-10375,36451.1 L-10375,36451.1 L-10380,38801 L-10380.1,38801.1 L-22379.9,38801.1 L-22380,38801 L-22380,36451.2 M12380,47931.2 L12380.1,47931.1 L20379.9,47931.1 L20380,47931.2 L20380,50931 L20379.9,50931.1 L12380.1,50931.1 L12380,50931 L12380,47931.2 M4813.21,9796.92 L4813.2,9796.88 L4826.52,9695.65 L4826.53,9695.61 L4879.21,9608.16 L4879.24,9608.13 L4962.5,9549.05 L4962.54,9549.03 L5062.49,9528.18 L5062.51,9528.18 L5090.33,9529.73 L5090.36,9529.73 L5187.36,9561.59 L5187.4,9561.61 L5263.56,9629.6 L5263.58,9629.64 L5306.2,9722.41 L5306.21,9722.45 L5308.16,9824.53 L5308.15,9824.57 L5269.12,9918.91 L5269.1,9918.94 L5195.6,9989.79 L5195.56,9989.82 L5099.86,10025.4 L5099.82,10025.4 L4997.88,10019.7 L4997.84,10019.7 L4906.69,9973.68 L4906.66,9973.65 L4841.51,9895.05 L4841.49,9895.01 L4813.21,9796.92 M-125,7778.27 L-124.9,7778.17 L124.9,7778.17 L125,7778.27 L125,29931 L124.9,29931.1 L-124.9,29931.1 L-125,29931 L-125,7778.27 M-5311.79,9796.92 L-5311.8,9796.88 L-5298.48,9695.65 L-5298.47,9695.61 L-5245.79,9608.16 L-5245.76,9608.13 L-5162.5,9549.05 L-5162.46,9549.03 L-5062.51,9528.18 L-5062.49,9528.18 L-5034.67,9529.73 L-5034.64,9529.73 L-4937.64,9561.59 L-4937.6,9561.61 L-4861.44,9629.6 L-4861.42,9629.64 L-4818.8,9722.41 L-4818.79,9722.45 L-4816.84,9824.53 L-4816.85,9824.57 L-4855.88,9918.91 L-4855.9,9918.94 L-4929.4,9989.79 L-4929.44,9989.82 L-5025.14,10025.4 L-5025.18,10025.4 L-5127.12,10019.7 L-5127.16,10019.7 L-5218.31,9973.68 L-5218.34,9973.65 L-5283.49,9895.05 L-5283.51,9895.01 L-5311.79,9796.92 M-20380,47931.2 L-20379.9,47931.1 L-12380.1,47931.1 L-12380,47931.2 L-12380,50931 L-12380.1,50931.1 L-20379.9,50931.1 L-20380,50931 L-20380,47931.2"/>
</g>

<g fill="none" stroke="#000000" stroke-opacity="1" stroke-width="1" stroke-linecap="square" stroke-linejoin="bevel" transform="matrix(0.99999,0,0,-0.99999,30000.2,55402)"
font-family="MS Shell Dlg 2" font-size="10.3125" font-weight="400" font-style="normal" 
>
</g>

<g fill="none" stroke="#000000" stroke-opacity="1" stroke-width="1" stroke-linecap="square" stroke-linejoin="bevel" transform="matrix(0.99999,0,0,-0.99999,30000.2,55402)"
font-family="MS Shell Dlg 2" font-size="10.3125" font-weight="400" font-style="normal" 
>
</g>

<g fill="#333333" fill-opacity="0.2" stroke="#333333" stroke-opacity="1" stroke-width="1" stroke-linecap="round" stroke-linejoin="round" transform="matrix(0.99999,0,0,-0.99999,30000.2,55402)"
font-family="MS Shell Dlg 2" font-size="10.3125" font-weight="400" font-style="normal" 
>
<path vector-effect="non-scaling-stroke" fill-rule="evenodd" d="M-22380,36451.2 L-22379.9,36451.1 L-16026.4,36451.1 L-16026.3,36450.9 L-16026.3,671.209 L-16026.4,671.068 L-29999.9,671.068 L-30000,671.209 L-30000,55400.9 L-29999.9,55401.1 L29999.9,55401.1 L30000,55400.9 L30000,671.209 L29999.9,671.068 L16026.4,671.068 L16026.3,671.209 L16026.3,36450.9 L16026.4,36451.1 L22379.9,36451.1 L22380,36451.2 L22380,38801 L22379.9,38801.1 L10380.1,38801.1 L10380,38801 L10380,36451.1 L10375,29931.2 L10374.9,29931.1 L10125.1,29931.1 L10125,29931 L10125,7778.55 L10125.1,7778.45 L10125.2,7778.5 L10275.1,8038.13 L10275.3,8038.18 L13278.1,6304.49 L13278.2,6304.38 L15026.3,-6973.67 L15026.3,-6973.76 L9526.29,-16500 L9526.27,-16500 L5500.01,-20526.3 L5499.98,-20526.3 L5000.05,-20814.9 L5000,-20815 L5000,-38999.9 L4999.96,-39000 L0.1,-43999.9 L-0.1,-43999.9 L-4999.96,-39000 L-5000,-38999.9 L-5000,-20815 L-5000.05,-20814.9 L-5499.98,-20526.3 L-5500.01,-20526.3 L-9526.27,-16500 L-9526.29,-16500 L-15026.3,-6973.76 L-15026.3,-6973.67 L-13278.2,6304.38 L-13278.1,6304.49 L-10275.3,8038.18 L-10275.1,8038.13 L-10125.2,7778.5 L-10125.1,7778.45 L-10125,7778.55 L-10125,29931 L-10125.1,29931.1 L-10374.9,29931.1 L-10375,29931.2 L-10375,36451.1 L-10375,36451.1 L-10380,38801 L-10380.1,38801.1 L-22379.9,38801.1 L-22380,38801 L-22380,36451.2 M12380,47931.2 L12380.1,47931.1 L20379.9,47931.1 L20380,47931.2 L20380,50931 L20379.9,50931.1 L12380.1,50931.1 L12380,50931 L12380,47931.2 M4813.21,9796.92 L4813.2,9796.88 L4826.52,9695.65 L4826.53,9695.61 L4879.21,9608.16 L4879.24,9608.13 L4962.5,9549.05 L4962.54,9549.03 L5062.49,9528.18 L5062.51,9528.18 L5090.33,9529.73 L5090.36,9529.73 L5187.36,9561.59 L5187.4,9561.61 L5263.56,9629.6 L5263.58,9629.64 L5306.2,9722.41 L5306.21,9722.45 L5308.16,9824.53 L5308.15,9824.57 L5269.12,9918.91 L5269.1,9918.94 L5195.6,9989.79 L5195.56,9989.82 L5099.86,10025.4 L5099.82,10025.4 L4997.88,10019.7 L4997.84,10019.7 L4906.69,9973.68 L4906.66,9973.65 L4841.51,9895.05 L4841.49,9895.01 L4813.21,9796.92 M-125,7778.27 L-124.9,7778.17 L124.9,7778.17 L125,7778.27 L125,29931 L124.9,29931.1 L-124.9,29931.1 L-125,29931 L-125,7778.27 M-5311.79,9796.92 L-5311.8,9796.88 L-5298.48,9695.65 L-5298.47,9695.61 L-5245.79,9608.16 L-5245.76,9608.13 L-5162.5,9549.05 L-5162.46,9549.03 L-5062.51,9528.18 L-5062.49,9528.18 L-5034.67,9529.73 L-5034.64,9529.73 L-4937.64,9561.59 L-4937.6,9561.61 L-4861.44,9629.6 L-4861.42,9629.64 L-4818.8,9722.41 L-4818.79,9722.45 L-4816.84,9824.53 L-4816.85,9824.57 L-4855.88,9918.91 L-4855.9,9918.94 L-4929.4,9989.79 L-4929.44,9989.82 L-5025.14,10025.4 L-5025.18,10025.4 L-5127.12,10019.7 L-5127.16,10019.7 L-5218.31,9973.68 L-5218.34,9973.65 L-5283.49,9895.05 L-5283.51,9895.01 L-5311.79,9796.92 M-20380,47931.2 L-20379.9,47931.1 L-12380.1,47931.1 L-12380,47931.2 L-12380,50931 L-12380.1,50931.1 L-20379.9,50931.1 L-20380,50931 L-20380,47931.2"/>
</g>

<g fill="none" stroke="#000000" stroke-opacity="1" stroke-width="1" stroke-linecap="square" stroke-linejoin="bevel" transform="matrix(0.99999,0,0,-0.99999,30000.2,55402)"
font-family="MS Shell Dlg 2" font-size="10.3125" font-weight="400" font-style="normal" 
>
</g>

<g fill="none" stroke="#000000" stroke-opacity="1" stroke-width="1" stroke-linecap="square" stroke-linejoin="bevel" transform="matrix(0.99999,0,0,-0.99999,30000.2,55402)"
font-family="MS Shell Dlg 2" font-size="10.3125" font-weight="400" font-style="normal" 
>
</g>

<g fill="#333333" fill-opacity="0.2" stroke="#333333" stroke-opacity="1" stroke-width="1" stroke-linecap="round" stroke-linejoin="round" transform="matrix(0.99999,0,0,-0.99999,30000.2,55402)"
font-family="MS Shell Dlg 2" font-size="10.3125" font-weight="400" font-style="normal" 
>
<path vector-effect="non-scaling-stroke" fill-rule="evenodd" d="M-16026.2,12071.1 L-16026.3,12071 L-16026.3,671.209 L-16026.4,671.068 L-29999.9,671.068 L-30000,671.209 L-30000,55400.9 L-29999.9,55401.1 L29999.9,55401.1 L30000,55400.9 L30000,671.209 L29999.9,671.068 L16026.4,671.068 L16026.3,671.209 L16026.3,12071 L16026.2,12071.1 L12071.2,12071.1 L12071.1,12071 L13660.3,-7886.71 L13660.2,-7886.79 L9330.15,-16160.2 L9330.09,-16160.3 L5000.05,-18660.2 L5000,-18660.3 L5000,-38999.9 L4999.96,-39000 L0.1,-43999.9 L-0.1,-43999.9 L-4999.96,-39000 L-5000,-38999.9 L-5000,-18660.3 L-5000.05,-18660.2 L-9330.09,-16160.3 L-9330.15,-16160.2 L-13660.2,-7886.79 L-13660.3,-7886.71 L-12071.1,12071 L-12071.2,12071.1 L-16026.2,12071.1 M10380,36451.2 L10380.1,36451.1 L22379.9,36451.1 L22380,36451.2 L22380,38801 L22379.9,38801.1 L10380.1,38801.1 L10380,38801 L10380,36451.2 M12380,47931.2 L12380.1,47931.1 L20379.9,47931.1 L20380,47931.2 L20380,50931 L20379.9,50931.1 L12380.1,50931.1 L12380,50931 L12380,47931.2 M-10375,21821.2 L-10374.9,21821.1 L10374.9,21821.1 L10375,21821.2 L10375,29931 L10374.9,29931.1 L-10374.9,29931.1 L-10375,29931 L-10375,21821.2 M-22380,36451.2 L-22379.9,36451.1 L-10380.1,36451.1 L-10380,36451.2 L-10380,38801 L-10380.1,38801.1 L-22379.9,38801.1 L-22380,38801 L-22380,36451.2 M-20380,47931.2 L-20379.9,47931.1 L-12380.1,47931.1 L-12380,47931.2 L-12380,50931 L-12380.1,50931.1 L-20379.9,50931.1 L-20380,50931 L-20380,47931.2"/>
</g>

<g fill="none" stroke="#000000" stroke-opacity="1" stroke-width="1" stroke-linecap="square" stroke-linejoin="bevel" transform="matrix(0.99999,0,0,-0.99999,30000.2,55402)"
font-family="MS Shell Dlg 2" font-size="10.3125" font-weight="400" font-style="normal" 
>
</g>

<g fill="none" stroke="#000000" stroke-opacity="1" stroke-width="1" stroke-linecap="square" stroke-linejoin="bevel" transform="matrix(0.99999,0,0,-0.99999,30000.2,55402)"
font-family="MS Shell Dlg 2" font-size="10.3125" font-weight="400" font-style="normal" 
>
</g>

<g fill="#ae5151" fill-opacity="0.2" stroke="#333333" stroke-opacity="1" stroke-width="1" stroke-linecap="round" stroke-linejoin="round" transform="matrix(0.99999,0,0,-0.99999,30000.2,55402)"
font-family="MS Shell Dlg 2" font-size="10.3125" font-weight="400" font-style="normal" 
>
<path vector-effect="non-scaling-stroke" fill-rule="evenodd" d="M-16026.2,12071.1 L-16026.3,12071 L-16026.3,671.209 L-16026.4,671.068 L-29999.9,671.068 L-30000,671.209 L-30000,55400.9 L-29999.9,55401.1 L29999.9,55401.1 L30000,55400.9 L30000,671.209 L29999.9,671.068 L16026.4,671.068 L16026.3,671.209 L16026.3,12071 L16026.2,12071.1 L12071.2,12071.1 L12071.1,12071 L13660.3,-7886.71 L13660.2,-7886.79 L9330.15,-16160.2 L9330.09,-16160.3 L5000.05,-18660.2 L5000,-18660.3 L5000,-38999.9 L4999.96,-39000 L0.1,-43999.9 L-0.1,-43999.9 L-4999.96,-39000 L-5000,-38999.9 L-5000,-18660.3 L-5000.05,-18660.2 L-9330.09,-16160.3 L-9330.15,-16160.2 L-13660.2,-7886.79 L-13660.3,-7886.71 L-12071.1,12071 L-12071.2,12071.1 L-16026.2,12071.1 M10380,36451.2 L10380.1,36451.1 L22379.9,36451.1 L22380,36451.2 L22380,38801 L22379.9,38801.1 L10380.1,38801.1 L10380,38801 L10380,36451.2 M12380,47931.2 L12380.1,47931.1 L20379.9,47931.1 L20380,47931.2 L20380,50931 L20379.9,50931.1 L12380.1,50931.1 L12380,50931 L12380,47931.2 M-10375,21821.2 L-10374.9,21821.1 L10374.9,21821.1 L10375,21821.2 L10375,29931 L10374.9,29931.1 L-10374.9,29931.1 L-10375,29931 L-10375,21821.2 M-22380,36451.2 L-22379.9,36451.1 L-10380.1,36451.1 L-10380,36451.2 L-10380,38801 L-10380.1,38801.1 L-22379.9,38801.1 L-22380,38801 L-22380,36451.2 M-20380,47931.2 L-20379.9,47931.1 L-12380.1,47931.1 L-12380,47931.2 L-12380,50931 L-12380.1,50931.1 L-20379.9,50931.1 L-20380,50931 L-20380,47931.2"/>
</g>

<g fill="none" stroke="#000000" stroke-opacity="1" stroke-width="1" stroke-linecap="square" stroke-linejoin="bevel" transform="matrix(0.99999,0,0,-0.99999,30000.2,55402)"
font-family="MS Shell Dlg 2" font-size="10.3125" font-weight="400" font-style="normal" 
>
</g>

<g fill="none" stroke="#000000" stroke-opacity="1" stroke-width="1" stroke-linecap="square" stroke-linejoin="bevel" transform="matrix(0.99999,0,0,-0.99999,30000.2,55402)"
font-family="MS Shell Dlg 2" font-size="10.3125" font-weight="400" font-style="normal" 
>
</g>

<g fill="#ffff00" fill-opacity="0.2" stroke="#333333" stroke-opacity="1" stroke-width="1" stroke-linecap="round" stroke-linejoin="round" transform="matrix(0.99999,0,0,-0.99999,30000.2,55402)"
font-family="MS Shell Dlg 2" font-size="10.3125" font-weight="400" font-style="normal" 
>
<path vector-effect="non-scaling-stroke" fill-rule="evenodd" d="M-16026.2,12071.1 L-16026.3,12071 L-16026.3,671.209 L-16026.4,671.068 L-29999.9,671.068 L-30000,671.209 L-30000,55400.9 L-29999.9,55401.1 L29999.9,55401.1 L30000,55400.9 L30000,671.209 L29999.9,671.068 L16026.4,671.068 L16026.3,671.209 L16026.3,12071 L16026.2,12071.1 L12071.2,12071.1 L12071.1,12071 L13660.3,-7886.71 L13660.2,-7886.79 L9330.15,-16160.2 L9330.09,-16160.3 L5000.05,-18660.2 L5000,-18660.3 L5000,-38999.9 L4999.96,-39000 L0.1,-43999.9 L-0.1,-43999.9 L-4999.96,-39000 L-5000,-38999.9 L-5000,-18660.3 L-5000.05,-18660.2 L-9330.09,-16160.3 L-9330.15,-16160.2 L-13660.2,-7886.79 L-13660.3,-7886.71 L-12071.1,12071 L-12071.2,12071.1 L-16026.2,12071.1 M10380,36451.2 L10380.1,36451.1 L22379.9,36451.1 L22380,36451.2 L22380,38801 L22379.9,38801.1 L10380.1,38801.1 L10380,38801 L10380,36451.2 M12380,47931.2 L12380.1,47931.1 L20379.9,47931.1 L20380,47931.2 L20380,50931 L20379.9,50931.1 L12380.1,50931.1 L12380,50931 L12380,47931.2 M-10375,21821.2 L-10374.9,21821.1 L10374.9,21821.1 L10375,21821.2 L10375,29931 L10374.9,29931.1 L-10374.9,29931.1 L-10375,29931 L-10375,21821.2 M-22380,36451.2 L-22379.9,36451.1 L-10380.1,36451.1 L-10380,36451.2 L-10380,38801 L-10380.1,38801.1 L-22379.9,38801.1 L-22380,38801 L-22380,36451.2 M-20380,47931.2 L-20379.9,47931.1 L-12380.1,47931.1 L-12380,47931.2 L-12380,50931 L-12380.1,50931.1 L-20379.9,50931.1 L-20380,50931 L-20380,47931.2"/>
</g>

<g fill="none" stroke="#000000" stroke-opacity="1" stroke-width="1" stroke-linecap="square" stroke-linejoin="bevel" transform="matrix(0.99999,0,0,-0.99999,30000.2,55402)"
font-family="MS Shell Dlg 2" font-size="10.3125" font-weight="400" font-style="normal" 
>
</g>

<g fill="none" stroke="#000000" stroke-opacity="1" stroke-width="1" stroke-linecap="square" stroke-linejoin="bevel" transform="matrix(0.99999,0,0,-0.99999,30000.2,55402)"
font-family="MS Shell Dlg 2" font-size="10.3125" font-weight="400" font-style="normal" 
>
</g>

<g fill="#ae5151" fill-opacity="0.2" stroke="#333333" stroke-opacity="1" stroke-width="1" stroke-linecap="round" stroke-linejoin="round" transform="matrix(0.99999,0,0,-0.99999,30000.2,55402)"
font-family="MS Shell Dlg 2" font-size="10.3125" font-weight="400" font-style="normal" 
>
<path vector-effect="non-scaling-stroke" fill-rule="evenodd" d="M-16026.2,12071.1 L-16026.3,12071 L-16026.3,671.209 L-16026.4,671.068 L-29999.9,671.068 L-30000,671.209 L-30000,55400.9 L-29999.9,55401.1 L29999.9,55401.1 L30000,55400.9 L30000,671.209 L29999.9,671.068 L16026.4,671.068 L16026.3,671.209 L16026.3,12071 L16026.2,12071.1 L12071.2,12071.1 L12071.1,12071 L13660.3,-7886.71 L13660.2,-7886.79 L9330.15,-16160.2 L9330.09,-16160.3 L5000.05,-18660.2 L5000,-18660.3 L5000,-38999.9 L4999.96,-39000 L0.1,-43999.9 L-0.1,-43999.9 L-4999.96,-39000 L-5000,-38999.9 L-5000,-18660.3 L-5000.05,-18660.2 L-9330.09,-16160.3 L-9330.15,-16160.2 L-13660.2,-7886.79 L-13660.3,-7886.71 L-12071.1,12071 L-12071.2,12071.1 L-16026.2,12071.1 M10380,36451.2 L10380.1,36451.1 L22379.9,36451.1 L22380,36451.2 L22380,38801 L22379.9,38801.1 L10380.1,38801.1 L10380,38801 L10380,36451.2 M12380,47931.2 L12380.1,47931.1 L20379.9,47931.1 L20380,47931.2 L20380,50931 L20379.9,50931.1 L12380.1,50931.1 L12380,50931 L12380,47931.2 M-10375,21821.2 L-10374.9,21821.1 L10374.9,21821.1 L10375,21821.2 L10375,29931 L10374.9,29931.1 L-10374.9,29931.1 L-10375,29931 L-10375,21821.2 M-22380,36451.2 L-22379.9,36451.1 L-10380.1,36451.1 L-10380,36451.2 L-10380,38801 L-10380.1,38801.1 L-22379.9,38801.1 L-22380,38801 L-22380,36451.2 M-20380,47931.2 L-20379.9,47931.1 L-12380.1,47931.1 L-12380,47931.2 L-12380,50931 L-12380.1,50931.1 L-20379.9,50931.1 L-20380,50931 L-20380,47931.2"/>
</g>

<g fill="none" stroke="#000000" stroke-opacity="1" stroke-width="1" stroke-linecap="square" stroke-linejoin="bevel" transform="matrix(0.99999,0,0,-0.99999,30000.2,55402)"
font-family="MS Shell Dlg 2" font-size="10.3125" font-weight="400" font-style="normal" 
>
</g>

<g fill="none" stroke="#000000" stroke-opacity="1" stroke-width="1" stroke-linecap="square" stroke-linejoin="bevel" transform="matrix(0.99999,0,0,-0.99999,30000.2,55402)"
font-family="MS Shell Dlg 2" font-size="10.3125" font-weight="400" font-style="normal" 
>
</g>

<g fill="#333333" fill-opacity="0.2" stroke="#333333" stroke-opacity="1" stroke-width="1" stroke-linecap="round" stroke-linejoin="round" transform="matrix(0.99999,0,0,-0.99999,30000.2,55402)"
font-family="MS Shell Dlg 2" font-size="10.3125" font-weight="400" font-style="normal" 
>
<path vector-effect="non-scaling-stroke" fill-rule="evenodd" d="M-16026.2,12071.1 L-16026.3,12071 L-16026.3,671.209 L-16026.4,671.068 L-29999.9,671.068 L-30000,671.209 L-30000,55400.9 L-29999.9,55401.1 L29999.9,55401.1 L30000,55400.9 L30000,671.209 L29999.9,671.068 L16026.4,671.068 L16026.3,671.209 L16026.3,12071 L16026.2,12071.1 L12071.2,12071.1 L12071.1,12071 L13660.3,-7886.71 L13660.2,-7886.79 L9330.15,-16160.2 L9330.09,-16160.3 L5000.05,-18660.2 L5000,-18660.3 L5000,-38999.9 L4999.96,-39000 L0.1,-43999.9 L-0.1,-43999.9 L-4999.96,-39000 L-5000,-38999.9 L-5000,-18660.3 L-5000.05,-18660.2 L-9330.09,-16160.3 L-9330.15,-16160.2 L-13660.2,-7886.79 L-13660.3,-7886.71 L-12071.1,12071 L-12071.2,12071.1 L-16026.2,12071.1 M10380,36451.2 L10380.1,36451.1 L22379.9,36451.1 L22380,36451.2 L22380,38801 L22379.9,38801.1 L10380.1,38801.1 L10380,38801 L10380,36451.2 M12380,47931.2 L12380.1,47931.1 L20379.9,47931.1 L20380,47931.2 L20380,50931 L20379.9,50931.1 L12380.1,50931.1 L12380,50931 L12380,47931.2 M-10375,21821.2 L-10374.9,21821.1 L10374.9,21821.1 L10375,21821.2 L10375,29931 L10374.9,29931.1 L-10374.9,29931.1 L-10375,29931 L-10375,21821.2 M-22380,36451.2 L-22379.9,36451.1 L-10380.1,36451.1 L-10380,36451.2 L-10380,38801 L-10380.1,38801.1 L-22379.9,38801.1 L-22380,38801 L-22380,36451.2 M-20380,47931.2 L-20379.9,47931.1 L-12380.1,47931.1 L-12380,47931.2 L-12380,50931 L-12380.1,50931.1 L-20379.9,50931.1 L-20380,50931 L-20380,47931.2"/>
</g>

<g fill="none" stroke="#000000" stroke-opacity="1" stroke-width="1" stroke-linecap="square" stroke-linejoin="bevel" transform="matrix(0.99999,0,0,-0.99999,30000.2,55402)"
font-family="MS Shell Dlg 2" font-size="10.3125" font-weight="400" font-style="normal" 
>
</g>

<g fill="none" stroke="#000000" stroke-opacity="1" stroke-width="1" stroke-linecap="square" stroke-linejoin="bevel" transform="matrix(1,0,0,-1,0,99402)"
font-family="MS Shell Dlg 2" font-size="10.3125" font-weight="400" font-style="normal" 
>
</g>
</g>
</svg>
