<?xml version="1.0" encoding="UTF-8" standalone="no"?>
<svg width="2878.95mm" height="4289.78mm"
 xmlns="http://www.w3.org/2000/svg" xmlns:xlink="http://www.w3.org/1999/xlink"  version="1.2" baseProfile="tiny">
<title>SVG Generator Example Drawing</title>
<desc>An SVG drawing created by the SVG Generator</desc>
<defs>
</defs>
<g fill="none" stroke="black" stroke-width="1" fill-rule="evenodd" stroke-linecap="square" stroke-linejoin="bevel" >

<g fill="none" stroke="#000000" stroke-opacity="1" stroke-width="1" stroke-linecap="square" stroke-linejoin="bevel" transform="matrix(1,0,0,-1,0,15200.1)"
font-family="MS Shell Dlg 2" font-size="10.3125" font-weight="400" font-style="normal" 
>
</g>

<g fill="none" stroke="#000000" stroke-opacity="1" stroke-width="1" stroke-linecap="square" stroke-linejoin="bevel" transform="matrix(1,0,0,-1,0,15200.1)"
font-family="MS Shell Dlg 2" font-size="10.3125" font-weight="400" font-style="normal" 
>
</g>

<g fill="none" stroke="#000000" stroke-opacity="1" stroke-width="1" stroke-linecap="square" stroke-linejoin="bevel" transform="matrix(0.99999,0,0,-0.99999,5100.45,5100.6)"
font-family="MS Shell Dlg 2" font-size="10.3125" font-weight="400" font-style="normal" 
>
</g>

<g fill="#333333" fill-opacity="0.2" stroke="#333333" stroke-opacity="1" stroke-width="1" stroke-linecap="round" stroke-linejoin="round" transform="matrix(0.99999,0,0,-0.99999,5100.45,5100.6)"
font-family="MS Shell Dlg 2" font-size="10.3125" font-weight="400" font-style="normal" 
>
<path vector-effect="non-scaling-stroke" fill-rule="evenodd" d="M-5100,-2886.75 L-5100,5000 L-5092.39,5038.27 L-5070.71,5070.71 L-5038.27,5092.39 L-5000,5100 L-4961.73,5092.39 L-4929.29,5070.71 L-4907.61,5038.27 L-4900,5000 L-4900,-2886.75 L-4900,-7055.51 L-4280.13,-7413.4 L-6.75016e-14,-9884.53 L4280.13,-7413.4 L4900,-7055.51 L4900,-2886.75 L4900,5000 L4907.61,5038.27 L4929.29,5070.71 L4961.73,5092.39 L5000,5100 L5038.27,5092.39 L5070.71,5070.71 L5092.39,5038.27 L5100,5000 L5100,-2886.75 L5100,-7113.25 L5097.45,-7126.08 L5096.59,-7139.13 L5093.67,-7145.05 L5092.39,-7151.52 L5085.12,-7162.39 L5079.34,-7174.12 L5074.38,-7178.47 L5070.71,-7183.96 L5059.83,-7191.23 L5050,-7199.85 L4380.13,-7586.6 L50,-10086.6 L37.6136,-10090.8 L25.8819,-10096.6 L19.2993,-10097 L13.0526,-10099.1 L-5.32907e-15,-10098.3 L-13.0526,-10099.1 L-19.2993,-10097 L-25.8819,-10096.6 L-37.6136,-10090.8 L-50,-10086.6 L-4380.13,-7586.6 L-5050,-7199.85 L-5059.83,-7191.23 L-5070.71,-7183.96 L-5074.38,-7178.47 L-5079.34,-7174.12 L-5085.12,-7162.39 L-5092.39,-7151.52 L-5093.67,-7145.05 L-5096.59,-7139.13 L-5097.45,-7126.08 L-5100,-7113.25 L-5100,-2886.75"/>
</g>

<g fill="none" stroke="#000000" stroke-opacity="1" stroke-width="1" stroke-linecap="square" stroke-linejoin="bevel" transform="matrix(0.99999,0,0,-0.99999,5100.45,5100.6)"
font-family="MS Shell Dlg 2" font-size="10.3125" font-weight="400" font-style="normal" 
>
</g>

<g fill="none" stroke="#000000" stroke-opacity="1" stroke-width="1" stroke-linecap="square" stroke-linejoin="bevel" transform="matrix(0.99999,0,0,-0.99999,5100.45,5100.6)"
font-family="MS Shell Dlg 2" font-size="10.3125" font-weight="400" font-style="normal" 
>
</g>

<g fill="#ae5151" fill-opacity="0.2" stroke="#333333" stroke-opacity="1" stroke-width="1" stroke-linecap="round" stroke-linejoin="round" transform="matrix(0.99999,0,0,-0.99999,5100.45,5100.6)"
font-family="MS Shell Dlg 2" font-size="10.3125" font-weight="400" font-style="normal" 
>
<path vector-effect="non-scaling-stroke" fill-rule="evenodd" d="M-5100,-2886.75 L-5100,5000 L-5092.39,5038.27 L-5070.71,5070.71 L-5038.27,5092.39 L-5000,5100 L-4961.73,5092.39 L-4929.29,5070.71 L-4907.61,5038.27 L-4900,5000 L-4900,-2886.75 L-4900,-7055.51 L-4280.13,-7413.4 L-6.75016e-14,-9884.53 L4280.13,-7413.4 L4900,-7055.51 L4900,-2886.75 L4900,5000 L4907.61,5038.27 L4929.29,5070.71 L4961.73,5092.39 L5000,5100 L5038.27,5092.39 L5070.71,5070.71 L5092.39,5038.27 L5100,5000 L5100,-2886.75 L5100,-7113.25 L5097.45,-7126.08 L5096.59,-7139.13 L5093.67,-7145.05 L5092.39,-7151.52 L5085.12,-7162.39 L5079.34,-7174.12 L5074.38,-7178.47 L5070.71,-7183.96 L5059.83,-7191.23 L5050,-7199.85 L4380.13,-7586.6 L50,-10086.6 L37.6136,-10090.8 L25.8819,-10096.6 L19.2993,-10097 L13.0526,-10099.1 L-5.32907e-15,-10098.3 L-13.0526,-10099.1 L-19.2993,-10097 L-25.8819,-10096.6 L-37.6136,-10090.8 L-50,-10086.6 L-4380.13,-7586.6 L-5050,-7199.85 L-5059.83,-7191.23 L-5070.71,-7183.96 L-5074.38,-7178.47 L-5079.34,-7174.12 L-5085.12,-7162.39 L-5092.39,-7151.52 L-5093.67,-7145.05 L-5096.59,-7139.13 L-5097.45,-7126.08 L-5100,-7113.25 L-5100,-2886.75"/>
</g>

<g fill="none" stroke="#000000" stroke-opacity="1" stroke-width="1" stroke-linecap="square" stroke-linejoin="bevel" transform="matrix(0.99999,0,0,-0.99999,5100.45,5100.6)"
font-family="MS Shell Dlg 2" font-size="10.3125" font-weight="400" font-style="normal" 
>
</g>

<g fill="none" stroke="#000000" stroke-opacity="1" stroke-width="1" stroke-linecap="square" stroke-linejoin="bevel" transform="matrix(0.99999,0,0,-0.99999,5100.45,5100.6)"
font-family="MS Shell Dlg 2" font-size="10.3125" font-weight="400" font-style="normal" 
>
</g>

<g fill="#ffff00" fill-opacity="0.2" stroke="#333333" stroke-opacity="1" stroke-width="1" stroke-linecap="round" stroke-linejoin="round" transform="matrix(0.99999,0,0,-0.99999,5100.45,5100.6)"
font-family="MS Shell Dlg 2" font-size="10.3125" font-weight="400" font-style="normal" 
>
<path vector-effect="non-scaling-stroke" fill-rule="evenodd" d="M-5100,-2886.75 L-5100,5000 L-5092.39,5038.27 L-5070.71,5070.71 L-5038.27,5092.39 L-5000,5100 L-4961.73,5092.39 L-4929.29,5070.71 L-4907.61,5038.27 L-4900,5000 L-4900,-2886.75 L-4900,-7055.51 L-4280.13,-7413.4 L-6.75016e-14,-9884.53 L4280.13,-7413.4 L4900,-7055.51 L4900,-2886.75 L4900,5000 L4907.61,5038.27 L4929.29,5070.71 L4961.73,5092.39 L5000,5100 L5038.27,5092.39 L5070.71,5070.71 L5092.39,5038.27 L5100,5000 L5100,-2886.75 L5100,-7113.25 L5097.45,-7126.08 L5096.59,-7139.13 L5093.67,-7145.05 L5092.39,-7151.52 L5085.12,-7162.39 L5079.34,-7174.12 L5074.38,-7178.47 L5070.71,-7183.96 L5059.83,-7191.23 L5050,-7199.85 L4380.13,-7586.6 L50,-10086.6 L37.6136,-10090.8 L25.8819,-10096.6 L19.2993,-10097 L13.0526,-10099.1 L-5.32907e-15,-10098.3 L-13.0526,-10099.1 L-19.2993,-10097 L-25.8819,-10096.6 L-37.6136,-10090.8 L-50,-10086.6 L-4380.13,-7586.6 L-5050,-7199.85 L-5059.83,-7191.23 L-5070.71,-7183.96 L-5074.38,-7178.47 L-5079.34,-7174.12 L-5085.12,-7162.39 L-5092.39,-7151.52 L-5093.67,-7145.05 L-5096.59,-7139.13 L-5097.45,-7126.08 L-5100,-7113.25 L-5100,-2886.75"/>
</g>

<g fill="none" stroke="#000000" stroke-opacity="1" stroke-width="1" stroke-linecap="square" stroke-linejoin="bevel" transform="matrix(0.99999,0,0,-0.99999,5100.45,5100.6)"
font-family="MS Shell Dlg 2" font-size="10.3125" font-weight="400" font-style="normal" 
>
</g>

<g fill="none" stroke="#000000" stroke-opacity="1" stroke-width="1" stroke-linecap="square" stroke-linejoin="bevel" transform="matrix(0.99999,0,0,-0.99999,5100.45,5100.6)"
font-family="MS Shell Dlg 2" font-size="10.3125" font-weight="400" font-style="normal" 
>
</g>

<g fill="#ae5151" fill-opacity="0.2" stroke="#333333" stroke-opacity="1" stroke-width="1" stroke-linecap="round" stroke-linejoin="round" transform="matrix(0.99999,0,0,-0.99999,5100.45,5100.6)"
font-family="MS Shell Dlg 2" font-size="10.3125" font-weight="400" font-style="normal" 
>
<path vector-effect="non-scaling-stroke" fill-rule="evenodd" d="M-5100,-2886.75 L-5100,5000 L-5092.39,5038.27 L-5070.71,5070.71 L-5038.27,5092.39 L-5000,5100 L-4961.73,5092.39 L-4929.29,5070.71 L-4907.61,5038.27 L-4900,5000 L-4900,-2886.75 L-4900,-7055.51 L-4280.13,-7413.4 L-6.75016e-14,-9884.53 L4280.13,-7413.4 L4900,-7055.51 L4900,-2886.75 L4900,5000 L4907.61,5038.27 L4929.29,5070.71 L4961.73,5092.39 L5000,5100 L5038.27,5092.39 L5070.71,5070.71 L5092.39,5038.27 L5100,5000 L5100,-2886.75 L5100,-7113.25 L5097.45,-7126.08 L5096.59,-7139.13 L5093.67,-7145.05 L5092.39,-7151.52 L5085.12,-7162.39 L5079.34,-7174.12 L5074.38,-7178.47 L5070.71,-7183.96 L5059.83,-7191.23 L5050,-7199.85 L4380.13,-7586.6 L50,-10086.6 L37.6136,-10090.8 L25.8819,-10096.6 L19.2993,-10097 L13.0526,-10099.1 L-5.32907e-15,-10098.3 L-13.0526,-10099.1 L-19.2993,-10097 L-25.8819,-10096.6 L-37.6136,-10090.8 L-50,-10086.6 L-4380.13,-7586.6 L-5050,-7199.85 L-5059.83,-7191.23 L-5070.71,-7183.96 L-5074.38,-7178.47 L-5079.34,-7174.12 L-5085.12,-7162.39 L-5092.39,-7151.52 L-5093.67,-7145.05 L-5096.59,-7139.13 L-5097.45,-7126.08 L-5100,-7113.25 L-5100,-2886.75"/>
</g>

<g fill="none" stroke="#000000" stroke-opacity="1" stroke-width="1" stroke-linecap="square" stroke-linejoin="bevel" transform="matrix(0.99999,0,0,-0.99999,5100.45,5100.6)"
font-family="MS Shell Dlg 2" font-size="10.3125" font-weight="400" font-style="normal" 
>
</g>

<g fill="none" stroke="#000000" stroke-opacity="1" stroke-width="1" stroke-linecap="square" stroke-linejoin="bevel" transform="matrix(0.99999,0,0,-0.99999,5100.45,5100.6)"
font-family="MS Shell Dlg 2" font-size="10.3125" font-weight="400" font-style="normal" 
>
</g>

<g fill="#333333" fill-opacity="0.2" stroke="#333333" stroke-opacity="1" stroke-width="1" stroke-linecap="round" stroke-linejoin="round" transform="matrix(0.99999,0,0,-0.99999,5100.45,5100.6)"
font-family="MS Shell Dlg 2" font-size="10.3125" font-weight="400" font-style="normal" 
>
<path vector-effect="non-scaling-stroke" fill-rule="evenodd" d="M-5100,-2886.75 L-5100,5000 L-5092.39,5038.27 L-5070.71,5070.71 L-5038.27,5092.39 L-5000,5100 L-4961.73,5092.39 L-4929.29,5070.71 L-4907.61,5038.27 L-4900,5000 L-4900,-2886.75 L-4900,-7055.51 L-4280.13,-7413.4 L-6.75016e-14,-9884.53 L4280.13,-7413.4 L4900,-7055.51 L4900,-2886.75 L4900,5000 L4907.61,5038.27 L4929.29,5070.71 L4961.73,5092.39 L5000,5100 L5038.27,5092.39 L5070.71,5070.71 L5092.39,5038.27 L5100,5000 L5100,-2886.75 L5100,-7113.25 L5097.45,-7126.08 L5096.59,-7139.13 L5093.67,-7145.05 L5092.39,-7151.52 L5085.12,-7162.39 L5079.34,-7174.12 L5074.38,-7178.47 L5070.71,-7183.96 L5059.83,-7191.23 L5050,-7199.85 L4380.13,-7586.6 L50,-10086.6 L37.6136,-10090.8 L25.8819,-10096.6 L19.2993,-10097 L13.0526,-10099.1 L-5.32907e-15,-10098.3 L-13.0526,-10099.1 L-19.2993,-10097 L-25.8819,-10096.6 L-37.6136,-10090.8 L-50,-10086.6 L-4380.13,-7586.6 L-5050,-7199.85 L-5059.83,-7191.23 L-5070.71,-7183.96 L-5074.38,-7178.47 L-5079.34,-7174.12 L-5085.12,-7162.39 L-5092.39,-7151.52 L-5093.67,-7145.05 L-5096.59,-7139.13 L-5097.45,-7126.08 L-5100,-7113.25 L-5100,-2886.75"/>
</g>

<g fill="none" stroke="#000000" stroke-opacity="1" stroke-width="1" stroke-linecap="square" stroke-linejoin="bevel" transform="matrix(0.99999,0,0,-0.99999,5100.45,5100.6)"
font-family="MS Shell Dlg 2" font-size="10.3125" font-weight="400" font-style="normal" 
>
</g>

<g fill="none" stroke="#000000" stroke-opacity="1" stroke-width="1" stroke-linecap="square" stroke-linejoin="bevel" transform="matrix(1,0,0,-1,0,15200.1)"
font-family="MS Shell Dlg 2" font-size="10.3125" font-weight="400" font-style="normal" 
>
</g>
</g>
</svg>
