<?xml version="1.0" encoding="UTF-8" standalone="no"?>
<svg width="16933.6mm" height="24025mm"
 xmlns="http://www.w3.org/2000/svg" xmlns:xlink="http://www.w3.org/1999/xlink"  version="1.2" baseProfile="tiny">
<title>SVG Generator Example Drawing</title>
<desc>An SVG drawing created by the SVG Generator</desc>
<defs>
</defs>
<g fill="none" stroke="black" stroke-width="1" fill-rule="evenodd" stroke-linecap="square" stroke-linejoin="bevel" >

<g fill="none" stroke="#000000" stroke-opacity="1" stroke-width="1" stroke-linecap="square" stroke-linejoin="bevel" transform="matrix(1,0,0,-1,0,85128.2)"
font-family="MS Shell Dlg 2" font-size="10.3125" font-weight="400" font-style="normal" 
>
</g>

<g fill="none" stroke="#000000" stroke-opacity="1" stroke-width="1" stroke-linecap="square" stroke-linejoin="bevel" transform="matrix(1,0,0,-1,0,85128.2)"
font-family="MS Shell Dlg 2" font-size="10.3125" font-weight="400" font-style="normal" 
>
</g>

<g fill="none" stroke="#000000" stroke-opacity="1" stroke-width="1" stroke-linecap="square" stroke-linejoin="bevel" transform="matrix(0.999998,0,0,-0.999998,30000.4,41127.9)"
font-family="MS Shell Dlg 2" font-size="10.3125" font-weight="400" font-style="normal" 
>
</g>

<g fill="#ae5151" fill-opacity="0.2" stroke="#333333" stroke-opacity="1" stroke-width="1" stroke-linecap="round" stroke-linejoin="round" transform="matrix(0.999998,0,0,-0.999998,30000.4,41127.9)"
font-family="MS Shell Dlg 2" font-size="10.3125" font-weight="400" font-style="normal" 
>
<path vector-effect="non-scaling-stroke" fill-rule="evenodd" d="M-2988.05,-31025.1 L-2988.02,-31025 L-996.044,-31025 L-996.016,-31025.1 L-996.016,-31500 L996.016,-31500 L996.016,-31025.1 L996.044,-31025 L2988.02,-31025 L2988.05,-31025.1 L2988.05,-31500 L5000,-31500 L5000,-38999.9 L4999.96,-39000 L0.1,-43999.9 L-0.1,-43999.9 L-4999.96,-39000 L-5000,-38999.9 L-5000,-31500 L-2988.05,-31500 L-2988.05,-31025.1"/>
</g>

<g fill="none" stroke="#000000" stroke-opacity="1" stroke-width="1" stroke-linecap="square" stroke-linejoin="bevel" transform="matrix(0.999998,0,0,-0.999998,30000.4,41127.9)"
font-family="MS Shell Dlg 2" font-size="10.3125" font-weight="400" font-style="normal" 
>
</g>

<g fill="none" stroke="#000000" stroke-opacity="1" stroke-width="1" stroke-linecap="square" stroke-linejoin="bevel" transform="matrix(0.999998,0,0,-0.999998,30000.4,41127.9)"
font-family="MS Shell Dlg 2" font-size="10.3125" font-weight="400" font-style="normal" 
>
</g>

<g fill="#ae5151" fill-opacity="0.2" stroke="#333333" stroke-opacity="1" stroke-width="1" stroke-linecap="round" stroke-linejoin="round" transform="matrix(0.999998,0,0,-0.999998,30000.4,41127.9)"
font-family="MS Shell Dlg 2" font-size="10.3125" font-weight="400" font-style="normal" 
>
<path vector-effect="non-scaling-stroke" fill-rule="evenodd" d="M5000,-30475.1 L5000,-30500 L5000,-30974.9 L4999.97,-30975 L3008,-30975 L3007.97,-30974.9 L3007.97,-30500 L-3007.97,-30500 L-3007.97,-30974.9 L-3008,-30975 L-4999.97,-30975 L-5000,-30974.9 L-5000,-30500 L-5000,-30475.1 L-5000,-26618.2 L5000,-26618.2 L5000,-30475.1"/>
</g>

<g fill="none" stroke="#000000" stroke-opacity="1" stroke-width="1" stroke-linecap="square" stroke-linejoin="bevel" transform="matrix(0.999998,0,0,-0.999998,30000.4,41127.9)"
font-family="MS Shell Dlg 2" font-size="10.3125" font-weight="400" font-style="normal" 
>
</g>

<g fill="none" stroke="#000000" stroke-opacity="1" stroke-width="1" stroke-linecap="square" stroke-linejoin="bevel" transform="matrix(0.999998,0,0,-0.999998,30000.4,41127.9)"
font-family="MS Shell Dlg 2" font-size="10.3125" font-weight="400" font-style="normal" 
>
</g>

<g fill="#ae5151" fill-opacity="0.2" stroke="#333333" stroke-opacity="1" stroke-width="1" stroke-linecap="round" stroke-linejoin="round" transform="matrix(0.999998,0,0,-0.999998,30000.4,41127.9)"
font-family="MS Shell Dlg 2" font-size="10.3125" font-weight="400" font-style="normal" 
>
<path vector-effect="non-scaling-stroke" fill-rule="evenodd" d="M-1232.38,-9403.95 L-1396.49,-9568.06 L-1396.55,-9568.09 L-2009.17,-8955.48 L-1232.38,-9403.95"/>
</g>

<g fill="none" stroke="#000000" stroke-opacity="1" stroke-width="1" stroke-linecap="square" stroke-linejoin="bevel" transform="matrix(0.999998,0,0,-0.999998,30000.4,41127.9)"
font-family="MS Shell Dlg 2" font-size="10.3125" font-weight="400" font-style="normal" 
>
</g>

<g fill="none" stroke="#000000" stroke-opacity="1" stroke-width="1" stroke-linecap="square" stroke-linejoin="bevel" transform="matrix(0.999998,0,0,-0.999998,30000.4,41127.9)"
font-family="MS Shell Dlg 2" font-size="10.3125" font-weight="400" font-style="normal" 
>
</g>

<g fill="#ae5151" fill-opacity="0.2" stroke="#333333" stroke-opacity="1" stroke-width="1" stroke-linecap="round" stroke-linejoin="round" transform="matrix(0.999998,0,0,-0.999998,30000.4,41127.9)"
font-family="MS Shell Dlg 2" font-size="10.3125" font-weight="400" font-style="normal" 
>
<path vector-effect="non-scaling-stroke" fill-rule="evenodd" d="M1805.58,-10145.5 L1763.84,-10057.2 L1721.14,-9985.96 L1767.77,-9939.34 L1431.94,-9603.51 L1431.91,-9603.45 L2176.47,-8858.88 L2571.89,-8630.59 L2824.2,-8882.91 L3765.85,-7941.25 L3947.11,-7836.6 L4903.09,-9492.4 L5314.39,-9254.94 L5314.47,-9254.93 L5828.61,-10145.5 L1805.58,-10145.5"/>
</g>

<g fill="none" stroke="#000000" stroke-opacity="1" stroke-width="1" stroke-linecap="square" stroke-linejoin="bevel" transform="matrix(0.999998,0,0,-0.999998,30000.4,41127.9)"
font-family="MS Shell Dlg 2" font-size="10.3125" font-weight="400" font-style="normal" 
>
</g>

<g fill="none" stroke="#000000" stroke-opacity="1" stroke-width="1" stroke-linecap="square" stroke-linejoin="bevel" transform="matrix(0.999998,0,0,-0.999998,30000.4,41127.9)"
font-family="MS Shell Dlg 2" font-size="10.3125" font-weight="400" font-style="normal" 
>
</g>

<g fill="#ae5151" fill-opacity="0.2" stroke="#333333" stroke-opacity="1" stroke-width="1" stroke-linecap="round" stroke-linejoin="round" transform="matrix(0.999998,0,0,-0.999998,30000.4,41127.9)"
font-family="MS Shell Dlg 2" font-size="10.3125" font-weight="400" font-style="normal" 
>
<path vector-effect="non-scaling-stroke" fill-rule="evenodd" d="M-5280.13,-10145.5 L-4893.13,-9475.15 L-5304.43,-9237.69 L-5304.48,-9237.63 L-4358.48,-7599.1 L-3947.11,-7836.6 L-2585.28,-8622.86 L-2834.77,-8872.34 L-1721.14,-9985.96 L-1763.84,-10057.2 L-1805.58,-10145.5 L-5280.13,-10145.5"/>
</g>

<g fill="none" stroke="#000000" stroke-opacity="1" stroke-width="1" stroke-linecap="square" stroke-linejoin="bevel" transform="matrix(0.999998,0,0,-0.999998,30000.4,41127.9)"
font-family="MS Shell Dlg 2" font-size="10.3125" font-weight="400" font-style="normal" 
>
</g>

<g fill="none" stroke="#000000" stroke-opacity="1" stroke-width="1" stroke-linecap="square" stroke-linejoin="bevel" transform="matrix(0.999998,0,0,-0.999998,30000.4,41127.9)"
font-family="MS Shell Dlg 2" font-size="10.3125" font-weight="400" font-style="normal" 
>
</g>

<g fill="#ae5151" fill-opacity="0.2" stroke="#333333" stroke-opacity="1" stroke-width="1" stroke-linecap="round" stroke-linejoin="round" transform="matrix(0.999998,0,0,-0.999998,30000.4,41127.9)"
font-family="MS Shell Dlg 2" font-size="10.3125" font-weight="400" font-style="normal" 
>
<path vector-effect="non-scaling-stroke" fill-rule="evenodd" d="M-3778.38,-7703.08 L-3555.37,-7480.08 L-3555.31,-7480.05 L-2722.88,-8312.47 L-3778.38,-7703.08"/>
</g>

<g fill="none" stroke="#000000" stroke-opacity="1" stroke-width="1" stroke-linecap="square" stroke-linejoin="bevel" transform="matrix(0.999998,0,0,-0.999998,30000.4,41127.9)"
font-family="MS Shell Dlg 2" font-size="10.3125" font-weight="400" font-style="normal" 
>
</g>

<g fill="none" stroke="#000000" stroke-opacity="1" stroke-width="1" stroke-linecap="square" stroke-linejoin="bevel" transform="matrix(0.999998,0,0,-0.999998,30000.4,41127.9)"
font-family="MS Shell Dlg 2" font-size="10.3125" font-weight="400" font-style="normal" 
>
</g>

<g fill="#ae5151" fill-opacity="0.2" stroke="#333333" stroke-opacity="1" stroke-width="1" stroke-linecap="round" stroke-linejoin="round" transform="matrix(0.999998,0,0,-0.999998,30000.4,41127.9)"
font-family="MS Shell Dlg 2" font-size="10.3125" font-weight="400" font-style="normal" 
>
<path vector-effect="non-scaling-stroke" fill-rule="evenodd" d="M-6218.18,-5488.92 L-6004.07,-5703.04 L-5668.24,-5367.21 L-5668.18,-5367.18 L-5100,-5935.36 L-5100,-7113.25 L-5097.45,-7126.08 L-5096.59,-7139.13 L-5093.67,-7145.05 L-5092.39,-7151.52 L-5085.12,-7162.39 L-5079.34,-7174.12 L-5074.38,-7178.47 L-5070.71,-7183.96 L-5059.83,-7191.23 L-5050,-7199.85 L-4813.14,-7336.6 L-5769.12,-8992.4 L-5357.81,-9229.87 L-5357.77,-9229.93 L-5886.35,-10145.5 L-6218.18,-10145.5 L-6218.18,-5488.92"/>
</g>

<g fill="none" stroke="#000000" stroke-opacity="1" stroke-width="1" stroke-linecap="square" stroke-linejoin="bevel" transform="matrix(0.999998,0,0,-0.999998,30000.4,41127.9)"
font-family="MS Shell Dlg 2" font-size="10.3125" font-weight="400" font-style="normal" 
>
</g>

<g fill="none" stroke="#000000" stroke-opacity="1" stroke-width="1" stroke-linecap="square" stroke-linejoin="bevel" transform="matrix(0.999998,0,0,-0.999998,30000.4,41127.9)"
font-family="MS Shell Dlg 2" font-size="10.3125" font-weight="400" font-style="normal" 
>
</g>

<g fill="#ae5151" fill-opacity="0.2" stroke="#333333" stroke-opacity="1" stroke-width="1" stroke-linecap="round" stroke-linejoin="round" transform="matrix(0.999998,0,0,-0.999998,30000.4,41127.9)"
font-family="MS Shell Dlg 2" font-size="10.3125" font-weight="400" font-style="normal" 
>
<path vector-effect="non-scaling-stroke" fill-rule="evenodd" d="M4613.93,-7093.18 L4900,-6807.11 L4900,-7055.51 L4695.91,-7173.34 L4634.51,-7103.32 L4613.93,-7093.18"/>
</g>

<g fill="none" stroke="#000000" stroke-opacity="1" stroke-width="1" stroke-linecap="square" stroke-linejoin="bevel" transform="matrix(0.999998,0,0,-0.999998,30000.4,41127.9)"
font-family="MS Shell Dlg 2" font-size="10.3125" font-weight="400" font-style="normal" 
>
</g>

<g fill="none" stroke="#000000" stroke-opacity="1" stroke-width="1" stroke-linecap="square" stroke-linejoin="bevel" transform="matrix(0.999998,0,0,-0.999998,30000.4,41127.9)"
font-family="MS Shell Dlg 2" font-size="10.3125" font-weight="400" font-style="normal" 
>
</g>

<g fill="#ae5151" fill-opacity="0.2" stroke="#333333" stroke-opacity="1" stroke-width="1" stroke-linecap="round" stroke-linejoin="round" transform="matrix(0.999998,0,0,-0.999998,30000.4,41127.9)"
font-family="MS Shell Dlg 2" font-size="10.3125" font-weight="400" font-style="normal" 
>
<path vector-effect="non-scaling-stroke" fill-rule="evenodd" d="M-4900,-6135.36 L-4611.77,-6423.58 L-4611.81,-6423.65 L-4900,-6711.84 L-4900,-6135.36"/>
</g>

<g fill="none" stroke="#000000" stroke-opacity="1" stroke-width="1" stroke-linecap="square" stroke-linejoin="bevel" transform="matrix(0.999998,0,0,-0.999998,30000.4,41127.9)"
font-family="MS Shell Dlg 2" font-size="10.3125" font-weight="400" font-style="normal" 
>
</g>

<g fill="none" stroke="#000000" stroke-opacity="1" stroke-width="1" stroke-linecap="square" stroke-linejoin="bevel" transform="matrix(0.999998,0,0,-0.999998,30000.4,41127.9)"
font-family="MS Shell Dlg 2" font-size="10.3125" font-weight="400" font-style="normal" 
>
</g>

<g fill="#ae5151" fill-opacity="0.2" stroke="#333333" stroke-opacity="1" stroke-width="1" stroke-linecap="round" stroke-linejoin="round" transform="matrix(0.999998,0,0,-0.999998,30000.4,41127.9)"
font-family="MS Shell Dlg 2" font-size="10.3125" font-weight="400" font-style="normal" 
>
<path vector-effect="non-scaling-stroke" fill-rule="evenodd" d="M-4900,-6807.11 L-4613.93,-7093.18 L-4634.51,-7103.32 L-4695.91,-7173.34 L-4900,-7055.51 L-4900,-6807.11"/>
</g>

<g fill="none" stroke="#000000" stroke-opacity="1" stroke-width="1" stroke-linecap="square" stroke-linejoin="bevel" transform="matrix(0.999998,0,0,-0.999998,30000.4,41127.9)"
font-family="MS Shell Dlg 2" font-size="10.3125" font-weight="400" font-style="normal" 
>
</g>

<g fill="none" stroke="#000000" stroke-opacity="1" stroke-width="1" stroke-linecap="square" stroke-linejoin="bevel" transform="matrix(0.999998,0,0,-0.999998,30000.4,41127.9)"
font-family="MS Shell Dlg 2" font-size="10.3125" font-weight="400" font-style="normal" 
>
</g>

<g fill="#ae5151" fill-opacity="0.2" stroke="#333333" stroke-opacity="1" stroke-width="1" stroke-linecap="round" stroke-linejoin="round" transform="matrix(0.999998,0,0,-0.999998,30000.4,41127.9)"
font-family="MS Shell Dlg 2" font-size="10.3125" font-weight="400" font-style="normal" 
>
<path vector-effect="non-scaling-stroke" fill-rule="evenodd" d="M27216.4,3646 L27216.4,3646.04 L27216.4,3646.07 L30000,3646.07 L30000,3646 L30000,3171.07 L30000,671.209 L29999.9,671.068 L16026.4,671.068 L16026.3,671.209 L16026.3,3146.14 L16026.3,3171.07 L16026.3,3646 L16026.3,3646.07 L18809.8,3646.07 L18809.9,3646 L18809.9,3171.07 L27216.4,3171.07 L27216.4,3646"/>
</g>

<g fill="none" stroke="#000000" stroke-opacity="1" stroke-width="1" stroke-linecap="square" stroke-linejoin="bevel" transform="matrix(0.999998,0,0,-0.999998,30000.4,41127.9)"
font-family="MS Shell Dlg 2" font-size="10.3125" font-weight="400" font-style="normal" 
>
</g>

<g fill="none" stroke="#000000" stroke-opacity="1" stroke-width="1" stroke-linecap="square" stroke-linejoin="bevel" transform="matrix(0.999998,0,0,-0.999998,30000.4,41127.9)"
font-family="MS Shell Dlg 2" font-size="10.3125" font-weight="400" font-style="normal" 
>
</g>

<g fill="#ae5151" fill-opacity="0.2" stroke="#333333" stroke-opacity="1" stroke-width="1" stroke-linecap="round" stroke-linejoin="round" transform="matrix(0.999998,0,0,-0.999998,30000.4,41127.9)"
font-family="MS Shell Dlg 2" font-size="10.3125" font-weight="400" font-style="normal" 
>
<path vector-effect="non-scaling-stroke" fill-rule="evenodd" d="M-30000,3171.07 L-30000,3646 L-30000,3646.07 L-27216.4,3646.07 L-27216.4,3646.06 L-27216.4,3646 L-27216.4,3171.07 L-18809.9,3171.07 L-18809.9,3646 L-18809.8,3646.07 L-16026.3,3646.07 L-16026.3,3646 L-16026.3,3171.07 L-16026.3,3146.14 L-16026.3,671.209 L-16026.4,671.068 L-29999.9,671.068 L-30000,671.209 L-30000,3171.07"/>
</g>

<g fill="none" stroke="#000000" stroke-opacity="1" stroke-width="1" stroke-linecap="square" stroke-linejoin="bevel" transform="matrix(0.999998,0,0,-0.999998,30000.4,41127.9)"
font-family="MS Shell Dlg 2" font-size="10.3125" font-weight="400" font-style="normal" 
>
</g>

<g fill="none" stroke="#000000" stroke-opacity="1" stroke-width="1" stroke-linecap="square" stroke-linejoin="bevel" transform="matrix(0.999998,0,0,-0.999998,30000.4,41127.9)"
font-family="MS Shell Dlg 2" font-size="10.3125" font-weight="400" font-style="normal" 
>
</g>

<g fill="#ae5151" fill-opacity="0.2" stroke="#333333" stroke-opacity="1" stroke-width="1" stroke-linecap="round" stroke-linejoin="round" transform="matrix(0.999998,0,0,-0.999998,30000.4,41127.9)"
font-family="MS Shell Dlg 2" font-size="10.3125" font-weight="400" font-style="normal" 
>
<path vector-effect="non-scaling-stroke" fill-rule="evenodd" d="M-24405,3696.08 L-24405,3696.07 L-26260.7,3696.07 L-27188.5,3696.07 L-27188.6,3696.14 L-27188.6,4171.07 L-30000,4171.07 L-30000,6545.45 L-16026.3,6545.45 L-16026.3,4171.07 L-18837.7,4171.07 L-18837.7,3696.14 L-18837.7,3696.12 L-18837.8,3696.07 L-21621.3,3696.07 L-21621.3,3696.14 L-21621.3,4171.07 L-24404.9,4171.07 L-24404.9,3696.14 L-24405,3696.08"/>
</g>

<g fill="none" stroke="#000000" stroke-opacity="1" stroke-width="1" stroke-linecap="square" stroke-linejoin="bevel" transform="matrix(0.999998,0,0,-0.999998,30000.4,41127.9)"
font-family="MS Shell Dlg 2" font-size="10.3125" font-weight="400" font-style="normal" 
>
</g>

<g fill="none" stroke="#000000" stroke-opacity="1" stroke-width="1" stroke-linecap="square" stroke-linejoin="bevel" transform="matrix(0.999998,0,0,-0.999998,30000.4,41127.9)"
font-family="MS Shell Dlg 2" font-size="10.3125" font-weight="400" font-style="normal" 
>
</g>

<g fill="#ae5151" fill-opacity="0.2" stroke="#333333" stroke-opacity="1" stroke-width="1" stroke-linecap="round" stroke-linejoin="round" transform="matrix(0.999998,0,0,-0.999998,30000.4,41127.9)"
font-family="MS Shell Dlg 2" font-size="10.3125" font-weight="400" font-style="normal" 
>
<path vector-effect="non-scaling-stroke" fill-rule="evenodd" d="M27188.6,3696.14 L27188.5,3696.07 L24405,3696.07 L24404.9,3696.14 L24404.9,4171.07 L21621.3,4171.07 L21621.3,3696.14 L21621.3,3696.07 L19765.6,3696.07 L18837.8,3696.07 L18837.7,3696.14 L18837.7,4171.07 L16026.3,4171.07 L16026.3,8072.73 L30000,8072.73 L30000,4171.07 L27188.6,4171.07 L27188.6,3696.14"/>
</g>

<g fill="none" stroke="#000000" stroke-opacity="1" stroke-width="1" stroke-linecap="square" stroke-linejoin="bevel" transform="matrix(0.999998,0,0,-0.999998,30000.4,41127.9)"
font-family="MS Shell Dlg 2" font-size="10.3125" font-weight="400" font-style="normal" 
>
</g>

<g fill="none" stroke="#000000" stroke-opacity="1" stroke-width="1" stroke-linecap="square" stroke-linejoin="bevel" transform="matrix(0.999998,0,0,-0.999998,30000.4,41127.9)"
font-family="MS Shell Dlg 2" font-size="10.3125" font-weight="400" font-style="normal" 
>
</g>

<g fill="#ae5151" fill-opacity="0.2" stroke="#333333" stroke-opacity="1" stroke-width="1" stroke-linecap="round" stroke-linejoin="round" transform="matrix(0.999998,0,0,-0.999998,30000.4,41127.9)"
font-family="MS Shell Dlg 2" font-size="10.3125" font-weight="400" font-style="normal" 
>
<path vector-effect="non-scaling-stroke" fill-rule="evenodd" d="M-6121.02,29956.1 L-6121.04,29956.1 L-8113.02,29956.1 L-8113.05,29956.1 L-8113.05,30431.1 L-10125,30431.1 L-10316.3,30393 L-10375,30353.8 L-10375,36451.1 L-10375,36451.1 L-10379.8,38701.1 L10380,38701.1 L10380,36451.2 L10380,36451.1 L10375.3,30353.6 L10316.3,30393 L10125,30431.1 L8113.05,30431.1 L8113.05,29956.1 L8113.02,29956.1 L6121.04,29956.1 L6121.02,29956.1 L6121.02,30431.1 L4128.98,30431.1 L4128.98,29956.1 L4128.96,29956.1 L2136.98,29956.1 L2136.95,29956.1 L2136.95,30431.1 L125,30431.1 L0,30406.2 L-125,30431.1 L-2136.95,30431.1 L-2136.95,29956.1 L-2136.98,29956.1 L-4128.96,29956.1 L-4128.98,29956.1 L-4128.98,30431.1 L-6121.02,30431.1 L-6121.02,29956.1"/>
</g>

<g fill="none" stroke="#000000" stroke-opacity="1" stroke-width="1" stroke-linecap="square" stroke-linejoin="bevel" transform="matrix(0.999998,0,0,-0.999998,30000.4,41127.9)"
font-family="MS Shell Dlg 2" font-size="10.3125" font-weight="400" font-style="normal" 
>
</g>

<g fill="none" stroke="#000000" stroke-opacity="1" stroke-width="1" stroke-linecap="square" stroke-linejoin="bevel" transform="matrix(0.999998,0,0,-0.999998,30000.4,41127.9)"
font-family="MS Shell Dlg 2" font-size="10.3125" font-weight="400" font-style="normal" 
>
</g>

<g fill="#ae5151" fill-opacity="0.2" stroke="#333333" stroke-opacity="1" stroke-width="1" stroke-linecap="round" stroke-linejoin="round" transform="matrix(0.999998,0,0,-0.999998,30000.4,41127.9)"
font-family="MS Shell Dlg 2" font-size="10.3125" font-weight="400" font-style="normal" 
>
<path vector-effect="non-scaling-stroke" fill-rule="evenodd" d="M12436.4,38801.1 L10480,38801.1 L10472.4,38839.3 L10450.7,38871.8 L10418.3,38893.5 L10380,38901.1 L-10380,38901.1 L-10418.3,38893.5 L-10450.7,38871.8 L-10472.4,38839.3 L-10480,38801.1 L-12545.5,38801.1 L-12545.5,41127.3 L12436.4,41127.3 L12436.4,38801.1"/>
</g>

<g fill="none" stroke="#000000" stroke-opacity="1" stroke-width="1" stroke-linecap="square" stroke-linejoin="bevel" transform="matrix(0.999998,0,0,-0.999998,30000.4,41127.9)"
font-family="MS Shell Dlg 2" font-size="10.3125" font-weight="400" font-style="normal" 
>
</g>

<g fill="none" stroke="#000000" stroke-opacity="1" stroke-width="1" stroke-linecap="square" stroke-linejoin="bevel" transform="matrix(0.999998,0,0,-0.999998,30000.4,41127.9)"
font-family="MS Shell Dlg 2" font-size="10.3125" font-weight="400" font-style="normal" 
>
</g>

<g fill="#ae5151" fill-opacity="0.2" stroke="#333333" stroke-opacity="1" stroke-width="1" stroke-linecap="round" stroke-linejoin="round" transform="matrix(0.999998,0,0,-0.999998,30000.4,41127.9)"
font-family="MS Shell Dlg 2" font-size="10.3125" font-weight="400" font-style="normal" 
>
<path vector-effect="non-scaling-stroke" fill-rule="evenodd" d="M-5100,-3196.83 L-5487.06,-3196.83 L-5100,-2973.35 L-5100,-3196.83"/>
</g>

<g fill="none" stroke="#000000" stroke-opacity="1" stroke-width="1" stroke-linecap="square" stroke-linejoin="bevel" transform="matrix(0.999998,0,0,-0.999998,30000.4,41127.9)"
font-family="MS Shell Dlg 2" font-size="10.3125" font-weight="400" font-style="normal" 
>
</g>

<g fill="none" stroke="#000000" stroke-opacity="1" stroke-width="1" stroke-linecap="square" stroke-linejoin="bevel" transform="matrix(0.999998,0,0,-0.999998,30000.4,41127.9)"
font-family="MS Shell Dlg 2" font-size="10.3125" font-weight="400" font-style="normal" 
>
</g>

<g fill="#ae5151" fill-opacity="0.2" stroke="#333333" stroke-opacity="1" stroke-width="1" stroke-linecap="round" stroke-linejoin="round" transform="matrix(0.999998,0,0,-0.999998,30000.4,41127.9)"
font-family="MS Shell Dlg 2" font-size="10.3125" font-weight="400" font-style="normal" 
>
<path vector-effect="non-scaling-stroke" fill-rule="evenodd" d="M5487.06,-3196.83 L5100,-3196.83 L5100,-2973.35 L5487.06,-3196.83"/>
</g>

<g fill="none" stroke="#000000" stroke-opacity="1" stroke-width="1" stroke-linecap="square" stroke-linejoin="bevel" transform="matrix(0.999998,0,0,-0.999998,30000.4,41127.9)"
font-family="MS Shell Dlg 2" font-size="10.3125" font-weight="400" font-style="normal" 
>
</g>

<g fill="none" stroke="#000000" stroke-opacity="1" stroke-width="1" stroke-linecap="square" stroke-linejoin="bevel" transform="matrix(0.999998,0,0,-0.999998,30000.4,41127.9)"
font-family="MS Shell Dlg 2" font-size="10.3125" font-weight="400" font-style="normal" 
>
</g>

<g fill="#ae5151" fill-opacity="0.2" stroke="#333333" stroke-opacity="1" stroke-width="1" stroke-linecap="round" stroke-linejoin="round" transform="matrix(0.999998,0,0,-0.999998,30000.4,41127.9)"
font-family="MS Shell Dlg 2" font-size="10.3125" font-weight="400" font-style="normal" 
>
<path vector-effect="non-scaling-stroke" fill-rule="evenodd" d="M4538.11,-2721.83 L1250.63,-2721.83 L1250.63,-3196.75 L1250.61,-3196.83 L100,-3196.83 L100,-2721.83 L100,-2696.83 L100,-545.455 L4900,-545.455 L4900,-2401.86 L4870.59,-2403.79 L4695.62,-2490.07 L4566.99,-2636.75 L4538.11,-2721.83"/>
</g>

<g fill="none" stroke="#000000" stroke-opacity="1" stroke-width="1" stroke-linecap="square" stroke-linejoin="bevel" transform="matrix(0.999998,0,0,-0.999998,30000.4,41127.9)"
font-family="MS Shell Dlg 2" font-size="10.3125" font-weight="400" font-style="normal" 
>
</g>

<g fill="none" stroke="#000000" stroke-opacity="1" stroke-width="1" stroke-linecap="square" stroke-linejoin="bevel" transform="matrix(0.999998,0,0,-0.999998,30000.4,41127.9)"
font-family="MS Shell Dlg 2" font-size="10.3125" font-weight="400" font-style="normal" 
>
</g>

<g fill="#ae5151" fill-opacity="0.2" stroke="#333333" stroke-opacity="1" stroke-width="1" stroke-linecap="round" stroke-linejoin="round" transform="matrix(0.999998,0,0,-0.999998,30000.4,41127.9)"
font-family="MS Shell Dlg 2" font-size="10.3125" font-weight="400" font-style="normal" 
>
<path vector-effect="non-scaling-stroke" fill-rule="evenodd" d="M-100,-545.455 L-100,-2696.83 L-100,-2721.83 L-100,-3196.83 L-1250.61,-3196.83 L-1250.63,-3196.75 L-1250.63,-2721.83 L-4538.11,-2721.83 L-4566.99,-2636.75 L-4695.62,-2490.07 L-4870.59,-2403.79 L-4900,-2401.86 L-4900,-545.455 L-100,-545.455"/>
</g>

<g fill="none" stroke="#000000" stroke-opacity="1" stroke-width="1" stroke-linecap="square" stroke-linejoin="bevel" transform="matrix(0.999998,0,0,-0.999998,30000.4,41127.9)"
font-family="MS Shell Dlg 2" font-size="10.3125" font-weight="400" font-style="normal" 
>
</g>

<g fill="none" stroke="#000000" stroke-opacity="1" stroke-width="1" stroke-linecap="square" stroke-linejoin="bevel" transform="matrix(0.999998,0,0,-0.999998,30000.4,41127.9)"
font-family="MS Shell Dlg 2" font-size="10.3125" font-weight="400" font-style="normal" 
>
</g>

<g fill="#ae5151" fill-opacity="0.2" stroke="#333333" stroke-opacity="1" stroke-width="1" stroke-linecap="round" stroke-linejoin="round" transform="matrix(0.999998,0,0,-0.999998,30000.4,41127.9)"
font-family="MS Shell Dlg 2" font-size="10.3125" font-weight="400" font-style="normal" 
>
<path vector-effect="non-scaling-stroke" fill-rule="evenodd" d="M6278.17,-2721.83 L6278.17,-3047.36 L5250,-2453.74 L5100,-2402.82 L5100,-545.455 L6763.64,-545.455 L6763.64,-2119.36 L6717.51,-2161.17 L6618.66,-2270.24 L6530.97,-2388.47 L6455.29,-2514.73 L6392.36,-2647.8 L6365.87,-2721.83 L6278.17,-2721.83"/>
</g>

<g fill="none" stroke="#000000" stroke-opacity="1" stroke-width="1" stroke-linecap="square" stroke-linejoin="bevel" transform="matrix(0.999998,0,0,-0.999998,30000.4,41127.9)"
font-family="MS Shell Dlg 2" font-size="10.3125" font-weight="400" font-style="normal" 
>
</g>

<g fill="none" stroke="#000000" stroke-opacity="1" stroke-width="1" stroke-linecap="square" stroke-linejoin="bevel" transform="matrix(0.999998,0,0,-0.999998,30000.4,41127.9)"
font-family="MS Shell Dlg 2" font-size="10.3125" font-weight="400" font-style="normal" 
>
</g>

<g fill="#ae5151" fill-opacity="0.2" stroke="#333333" stroke-opacity="1" stroke-width="1" stroke-linecap="round" stroke-linejoin="round" transform="matrix(0.999998,0,0,-0.999998,30000.4,41127.9)"
font-family="MS Shell Dlg 2" font-size="10.3125" font-weight="400" font-style="normal" 
>
<path vector-effect="non-scaling-stroke" fill-rule="evenodd" d="M-5100,-545.455 L-5100,-2402.82 L-5250,-2453.74 L-6218.18,-3012.72 L-6218.18,-545.455 L-5100,-545.455"/>
</g>

<g fill="none" stroke="#000000" stroke-opacity="1" stroke-width="1" stroke-linecap="square" stroke-linejoin="bevel" transform="matrix(0.999998,0,0,-0.999998,30000.4,41127.9)"
font-family="MS Shell Dlg 2" font-size="10.3125" font-weight="400" font-style="normal" 
>
</g>

<g fill="none" stroke="#000000" stroke-opacity="1" stroke-width="1" stroke-linecap="square" stroke-linejoin="bevel" transform="matrix(0.999998,0,0,-0.999998,30000.4,41127.9)"
font-family="MS Shell Dlg 2" font-size="10.3125" font-weight="400" font-style="normal" 
>
</g>

<g fill="#ae5151" fill-opacity="0.2" stroke="#333333" stroke-opacity="1" stroke-width="1" stroke-linecap="round" stroke-linejoin="round" transform="matrix(0.999998,0,0,-0.999998,30000.4,41127.9)"
font-family="MS Shell Dlg 2" font-size="10.3125" font-weight="400" font-style="normal" 
>
<path vector-effect="non-scaling-stroke" fill-rule="evenodd" d="M5100,-6607.11 L6014.63,-5692.47 L5678.81,-5356.65 L5678.77,-5356.58 L6630.11,-4405.25 L6763.64,-4482.34 L6763.64,-10145.5 L6434.83,-10145.5 L5759.16,-8975.15 L5347.85,-9212.61 L5347.78,-9212.63 L4401.78,-7574.1 L4813.14,-7336.6 L5050,-7199.85 L5059.83,-7191.23 L5070.71,-7183.96 L5074.38,-7178.47 L5079.34,-7174.12 L5085.12,-7162.39 L5092.39,-7151.52 L5093.67,-7145.05 L5096.59,-7139.13 L5097.45,-7126.08 L5100,-7113.25 L5100,-6607.11"/>
</g>

<g fill="none" stroke="#000000" stroke-opacity="1" stroke-width="1" stroke-linecap="square" stroke-linejoin="bevel" transform="matrix(0.999998,0,0,-0.999998,30000.4,41127.9)"
font-family="MS Shell Dlg 2" font-size="10.3125" font-weight="400" font-style="normal" 
>
</g>

<g fill="none" stroke="#000000" stroke-opacity="1" stroke-width="1" stroke-linecap="square" stroke-linejoin="bevel" transform="matrix(0.999998,0,0,-0.999998,30000.4,41127.9)"
font-family="MS Shell Dlg 2" font-size="10.3125" font-weight="400" font-style="normal" 
>
</g>

<g fill="#ae5151" fill-opacity="0.2" stroke="#333333" stroke-opacity="1" stroke-width="1" stroke-linecap="round" stroke-linejoin="round" transform="matrix(0.999998,0,0,-0.999998,30000.4,41127.9)"
font-family="MS Shell Dlg 2" font-size="10.3125" font-weight="400" font-style="normal" 
>
<path vector-effect="non-scaling-stroke" fill-rule="evenodd" d="M5100,-3721.83 L6365.87,-3721.83 L6392.36,-3795.85 L6425.97,-3866.92 L5296.96,-4995.93 L5632.79,-5331.76 L5632.82,-5331.82 L5100,-5864.64 L5100,-3721.83"/>
</g>

<g fill="none" stroke="#000000" stroke-opacity="1" stroke-width="1" stroke-linecap="square" stroke-linejoin="bevel" transform="matrix(0.999998,0,0,-0.999998,30000.4,41127.9)"
font-family="MS Shell Dlg 2" font-size="10.3125" font-weight="400" font-style="normal" 
>
</g>

<g fill="none" stroke="#000000" stroke-opacity="1" stroke-width="1" stroke-linecap="square" stroke-linejoin="bevel" transform="matrix(0.999998,0,0,-0.999998,30000.4,41127.9)"
font-family="MS Shell Dlg 2" font-size="10.3125" font-weight="400" font-style="normal" 
>
</g>

<g fill="#ae5151" fill-opacity="0.2" stroke="#333333" stroke-opacity="1" stroke-width="1" stroke-linecap="round" stroke-linejoin="round" transform="matrix(0.999998,0,0,-0.999998,30000.4,41127.9)"
font-family="MS Shell Dlg 2" font-size="10.3125" font-weight="400" font-style="normal" 
>
<path vector-effect="non-scaling-stroke" fill-rule="evenodd" d="M-1060.66,-9232.23 L-1085.97,-9257.54 L-2425.48,-8484.18 L-2117.09,-8175.8 L-4900,-5392.89 L-4900,-3435.23 L-4900,-3406.37 L-4900,-3246.83 L-4792.11,-3246.83 L-4750,-3319.76 L-4666.83,-3246.83 L-3764.42,-3246.83 L-3764.4,-3246.9 L-3764.4,-3721.83 L-2513.77,-3721.83 L-2513.77,-3246.9 L-2513.75,-3246.83 L-1263.16,-3246.83 L-1263.14,-3246.9 L-1263.14,-3721.83 L0,-3721.83 L1263.14,-3721.83 L1263.14,-3246.9 L1263.16,-3246.83 L2513.75,-3246.83 L2513.77,-3246.9 L2513.77,-3721.83 L3764.4,-3721.83 L3764.4,-3246.9 L3764.42,-3246.83 L4666.83,-3246.83 L4750,-3319.76 L4792.11,-3246.83 L4900,-3246.83 L4900,-3406.37 L4900,-3435.23 L4900,-6064.64 L4576.42,-6388.23 L4576.35,-6388.19 L4240.53,-6052.37 L3184.09,-7108.8 L3519.92,-7444.63 L3519.95,-7444.69 L2555.58,-8409.07 L2438.87,-8476.45 L2127.66,-8165.23 L1014.04,-9278.86 L942.793,-9236.16 L765.367,-9152.24 L580.569,-9086.12 L390.181,-9038.43 L196.034,-9009.63 L-5.69646e-12,-9000 L-196.034,-9009.63 L-390.181,-9038.43 L-580.569,-9086.12 L-765.367,-9152.24 L-942.793,-9236.16 L-1014.04,-9278.86 L-1060.66,-9232.23"/>
</g>

<g fill="none" stroke="#000000" stroke-opacity="1" stroke-width="1" stroke-linecap="square" stroke-linejoin="bevel" transform="matrix(0.999998,0,0,-0.999998,30000.4,41127.9)"
font-family="MS Shell Dlg 2" font-size="10.3125" font-weight="400" font-style="normal" 
>
</g>

<g fill="none" stroke="#000000" stroke-opacity="1" stroke-width="1" stroke-linecap="square" stroke-linejoin="bevel" transform="matrix(0.999998,0,0,-0.999998,30000.4,41127.9)"
font-family="MS Shell Dlg 2" font-size="10.3125" font-weight="400" font-style="normal" 
>
</g>

<g fill="#ae5151" fill-opacity="0.2" stroke="#333333" stroke-opacity="1" stroke-width="1" stroke-linecap="round" stroke-linejoin="round" transform="matrix(0.999998,0,0,-0.999998,30000.4,41127.9)"
font-family="MS Shell Dlg 2" font-size="10.3125" font-weight="400" font-style="normal" 
>
<path vector-effect="non-scaling-stroke" fill-rule="evenodd" d="M-5100,-5192.89 L-5307.53,-4985.37 L-5643.35,-5321.19 L-5643.42,-5321.23 L-6218.18,-4746.46 L-6218.18,-3721.83 L-5100,-3721.83 L-5100,-5192.89"/>
</g>

<g fill="none" stroke="#000000" stroke-opacity="1" stroke-width="1" stroke-linecap="square" stroke-linejoin="bevel" transform="matrix(0.999998,0,0,-0.999998,30000.4,41127.9)"
font-family="MS Shell Dlg 2" font-size="10.3125" font-weight="400" font-style="normal" 
>
</g>

<g fill="none" stroke="#000000" stroke-opacity="1" stroke-width="1" stroke-linecap="square" stroke-linejoin="bevel" transform="matrix(1,0,0,-1,0,85128.2)"
font-family="MS Shell Dlg 2" font-size="10.3125" font-weight="400" font-style="normal" 
>
</g>
</g>
</svg>
