<?xml version="1.0" encoding="UTF-8" standalone="no"?>
<svg width="5858.93mm" height="2468.32mm"
 xmlns="http://www.w3.org/2000/svg" xmlns:xlink="http://www.w3.org/1999/xlink"  version="1.2" baseProfile="tiny">
<title>SVG Generator Example Drawing</title>
<desc>An SVG drawing created by the SVG Generator</desc>
<defs>
</defs>
<g fill="none" stroke="black" stroke-width="1" fill-rule="evenodd" stroke-linecap="square" stroke-linejoin="bevel" >

<g fill="none" stroke="#000000" stroke-opacity="1" stroke-width="1" stroke-linecap="square" stroke-linejoin="bevel" transform="matrix(1,0,0,-1,0,8746)"
font-family="MS Shell Dlg 2" font-size="10.3125" font-weight="400" font-style="normal" 
>
</g>

<g fill="none" stroke="#000000" stroke-opacity="1" stroke-width="1" stroke-linecap="square" stroke-linejoin="bevel" transform="matrix(1,0,0,-1,0,8746)"
font-family="MS Shell Dlg 2" font-size="10.3125" font-weight="400" font-style="normal" 
>
</g>

<g fill="none" stroke="#000000" stroke-opacity="1" stroke-width="1" stroke-linecap="square" stroke-linejoin="bevel" transform="matrix(0.999962,0,0,-0.999962,10379.9,38700.4)"
font-family="MS Shell Dlg 2" font-size="10.3125" font-weight="400" font-style="normal" 
>
</g>

<g fill="#ae5151" fill-opacity="0.2" stroke="#333333" stroke-opacity="1" stroke-width="1" stroke-linecap="round" stroke-linejoin="round" transform="matrix(0.999962,0,0,-0.999962,10379.9,38700.4)"
font-family="MS Shell Dlg 2" font-size="10.3125" font-weight="400" font-style="normal" 
>
<path vector-effect="non-scaling-stroke" fill-rule="evenodd" d="M-10316.3,30393 L-10316.4,30393 L-10374.8,30354 L-10375,30354.1 L-10375,36451.1 L-10375,36451.1 L-10379.8,38700.9 L-10379.6,38701.1 L10379.9,38701.1 L10380,38700.9 L10380,36451.1 L10375.3,30353.8 L10375.1,30353.7 L10316.4,30393 L10316.3,30393 L10125,30431.1 L10125,30431.1 L8113.15,30431.1 L8113.05,30431 L8113.05,29956.2 L8112.91,29956.1 L6121.16,29956.1 L6121.02,29956.2 L6121.02,30431 L6120.92,30431.1 L4129.08,30431.1 L4128.98,30431 L4128.98,29956.2 L4128.84,29956.1 L2137.09,29956.1 L2136.95,29956.2 L2136.95,30431 L2136.85,30431.1 L125.01,30431.1 L124.99,30431.1 L0.0291689,30406.2 L-0.0291689,30406.2 L-124.99,30431.1 L-125.01,30431.1 L-2136.85,30431.1 L-2136.95,30431 L-2136.95,29956.2 L-2137.09,29956.1 L-4128.84,29956.1 L-4128.98,29956.2 L-4128.98,30431 L-4129.08,30431.1 L-6120.92,30431.1 L-6121.02,30431 L-6121.02,29956.2 L-6121.16,29956.1 L-8112.91,29956.1 L-8113.05,29956.2 L-8113.05,30431 L-8113.15,30431.1 L-10125,30431.1 L-10125,30431.1 L-10316.3,30393"/>
</g>

<g fill="none" stroke="#000000" stroke-opacity="1" stroke-width="1" stroke-linecap="square" stroke-linejoin="bevel" transform="matrix(0.999962,0,0,-0.999962,10379.9,38700.4)"
font-family="MS Shell Dlg 2" font-size="10.3125" font-weight="400" font-style="normal" 
>
</g>

<g fill="none" stroke="#000000" stroke-opacity="1" stroke-width="1" stroke-linecap="square" stroke-linejoin="bevel" transform="matrix(1,0,0,-1,0,8746)"
font-family="MS Shell Dlg 2" font-size="10.3125" font-weight="400" font-style="normal" 
>
</g>
</g>
</svg>
