<?xml version="1.0" encoding="UTF-8" standalone="no"?>
<svg width="1240.93mm" height="651.651mm"
 xmlns="http://www.w3.org/2000/svg" xmlns:xlink="http://www.w3.org/1999/xlink"  version="1.2" baseProfile="tiny">
<title>SVG Generator Example Drawing</title>
<desc>An SVG drawing created by the SVG Generator</desc>
<defs>
</defs>
<g fill="none" stroke="black" stroke-width="1" fill-rule="evenodd" stroke-linecap="square" stroke-linejoin="bevel" >

<g fill="none" stroke="#000000" stroke-opacity="1" stroke-width="1" stroke-linecap="square" stroke-linejoin="bevel" transform="matrix(1,0,0,-1,0,2309.78)"
font-family="MS Shell Dlg 2" font-size="10.3125" font-weight="400" font-style="normal" 
>
</g>

<g fill="none" stroke="#000000" stroke-opacity="1" stroke-width="1" stroke-linecap="square" stroke-linejoin="bevel" transform="matrix(1,0,0,-1,0,2309.78)"
font-family="MS Shell Dlg 2" font-size="10.3125" font-weight="400" font-style="normal" 
>
</g>

<g fill="none" stroke="#000000" stroke-opacity="1" stroke-width="1" stroke-linecap="square" stroke-linejoin="bevel" transform="matrix(0.999662,0,0,-0.999662,-1431.01,-7832.74)"
font-family="MS Shell Dlg 2" font-size="10.3125" font-weight="400" font-style="normal" 
>
</g>

<g fill="#ae5151" fill-opacity="0.2" stroke="#333333" stroke-opacity="1" stroke-width="1" stroke-linecap="round" stroke-linejoin="round" transform="matrix(0.999662,0,0,-0.999662,-1431.01,-7832.74)"
font-family="MS Shell Dlg 2" font-size="10.3125" font-weight="400" font-style="normal" 
>
<path vector-effect="non-scaling-stroke" fill-rule="evenodd" d="M1431.99,-9603.56 L1431.99,-9603.36 L2176.46,-8858.9 L2176.49,-8858.87 L2571.79,-8630.65 L2571.96,-8630.67 L2824.13,-8882.83 L2824.27,-8882.83 L3765.84,-7941.27 L3765.87,-7941.24 L3946.99,-7836.67 L3947.19,-7836.73 L4903.04,-9492.32 L4903.18,-9492.35 L5314.33,-9254.97 L5314.52,-9255.02 L5828.5,-10145.3 L5828.38,-10145.5 L1805.67,-10145.5 L1805.54,-10145.4 L1763.84,-10057.2 L1763.84,-10057.2 L1721.2,-9986.06 L1721.22,-9985.89 L1767.7,-9939.41 L1767.7,-9939.27 L1431.99,-9603.56"/>
</g>

<g fill="none" stroke="#000000" stroke-opacity="1" stroke-width="1" stroke-linecap="square" stroke-linejoin="bevel" transform="matrix(0.999662,0,0,-0.999662,-1431.01,-7832.74)"
font-family="MS Shell Dlg 2" font-size="10.3125" font-weight="400" font-style="normal" 
>
</g>

<g fill="none" stroke="#000000" stroke-opacity="1" stroke-width="1" stroke-linecap="square" stroke-linejoin="bevel" transform="matrix(1,0,0,-1,0,2309.78)"
font-family="MS Shell Dlg 2" font-size="10.3125" font-weight="400" font-style="normal" 
>
</g>
</g>
</svg>
