<?xml version="1.0" encoding="UTF-8" standalone="no"?>
<svg width="2822.22mm" height="3661.83mm"
 xmlns="http://www.w3.org/2000/svg" xmlns:xlink="http://www.w3.org/1999/xlink"  version="1.2" baseProfile="tiny">
<title>SVG Generator Example Drawing</title>
<desc>An SVG drawing created by the SVG Generator</desc>
<defs>
</defs>
<g fill="none" stroke="black" stroke-width="1" fill-rule="evenodd" stroke-linecap="square" stroke-linejoin="bevel" >

<g fill="none" stroke="#000000" stroke-opacity="1" stroke-width="1" stroke-linecap="square" stroke-linejoin="bevel" transform="matrix(1,0,0,-1,0,12975.9)"
font-family="MS Shell Dlg 2" font-size="10.3125" font-weight="400" font-style="normal" 
>
</g>

<g fill="none" stroke="#000000" stroke-opacity="1" stroke-width="1" stroke-linecap="square" stroke-linejoin="bevel" transform="matrix(1,0,0,-1,0,12975.9)"
font-family="MS Shell Dlg 2" font-size="10.3125" font-weight="400" font-style="normal" 
>
</g>

<g fill="none" stroke="#000000" stroke-opacity="1" stroke-width="1" stroke-linecap="square" stroke-linejoin="bevel" transform="matrix(0.9999,0,0,-0.9999,5000,-31020.1)"
font-family="MS Shell Dlg 2" font-size="10.3125" font-weight="400" font-style="normal" 
>
</g>

<g fill="#ae5151" fill-opacity="0.2" stroke="#333333" stroke-opacity="1" stroke-width="1" stroke-linecap="round" stroke-linejoin="round" transform="matrix(0.9999,0,0,-0.9999,5000,-31020.1)"
font-family="MS Shell Dlg 2" font-size="10.3125" font-weight="400" font-style="normal" 
>
<path vector-effect="non-scaling-stroke" fill-rule="evenodd" d="M-2988.15,-31500 L-2988.05,-31499.9 L-2988.05,-31025.1 L-2987.91,-31025 L-996.157,-31025 L-996.016,-31025.1 L-996.016,-31499.9 L-995.916,-31500 L995.916,-31500 L996.016,-31499.9 L996.016,-31025.1 L996.157,-31025 L2987.91,-31025 L2988.05,-31025.1 L2988.05,-31499.9 L2988.15,-31500 L4999.86,-31500 L5000,-31500.1 L5000,-38999.9 L4999.99,-39000 L4999.97,-39000 L4999.94,-39000.1 L0.143355,-43999.9 L0.0386874,-43999.9 L-0.0386874,-43999.9 L-0.143355,-43999.9 L-4999.94,-39000.1 L-4999.97,-39000 L-4999.99,-39000 L-5000,-38999.9 L-5000,-31500.1 L-4999.86,-31500 L-2988.15,-31500"/>
</g>

<g fill="none" stroke="#000000" stroke-opacity="1" stroke-width="1" stroke-linecap="square" stroke-linejoin="bevel" transform="matrix(0.9999,0,0,-0.9999,5000,-31020.1)"
font-family="MS Shell Dlg 2" font-size="10.3125" font-weight="400" font-style="normal" 
>
</g>

<g fill="none" stroke="#000000" stroke-opacity="1" stroke-width="1" stroke-linecap="square" stroke-linejoin="bevel" transform="matrix(1,0,0,-1,0,12975.9)"
font-family="MS Shell Dlg 2" font-size="10.3125" font-weight="400" font-style="normal" 
>
</g>
</g>
</svg>
