<?xml version="1.0" encoding="UTF-8" standalone="no"?>
<svg width="13194.7mm" height="15093.5mm"
 xmlns="http://www.w3.org/2000/svg" xmlns:xlink="http://www.w3.org/1999/xlink"  version="1.2" baseProfile="tiny">
<title>SVG Generator Example Drawing</title>
<desc>An SVG drawing created by the SVG Generator</desc>
<defs>
</defs>
<g fill="none" stroke="black" stroke-width="1" fill-rule="evenodd" stroke-linecap="square" stroke-linejoin="bevel" >

<g fill="none" stroke="#000000" stroke-opacity="1" stroke-width="1" stroke-linecap="square" stroke-linejoin="bevel" transform="matrix(1,0,0,-1,0,53481.6)"
font-family="MS Shell Dlg 2" font-size="10.3125" font-weight="400" font-style="normal" 
>
</g>

<g fill="none" stroke="#000000" stroke-opacity="1" stroke-width="1" stroke-linecap="square" stroke-linejoin="bevel" transform="matrix(1,0,0,-1,0,53481.6)"
font-family="MS Shell Dlg 2" font-size="10.3125" font-weight="400" font-style="normal" 
>
</g>

<g fill="none" stroke="#000000" stroke-opacity="1" stroke-width="1" stroke-linecap="square" stroke-linejoin="bevel" transform="matrix(0.999979,0,0,-0.999979,-7566.28,52481.1)"
font-family="MS Shell Dlg 2" font-size="10.3125" font-weight="400" font-style="normal" 
>
</g>

<g fill="#333333" fill-opacity="0.2" stroke="#333333" stroke-opacity="1" stroke-width="1" stroke-linecap="round" stroke-linejoin="round" transform="matrix(0.999979,0,0,-0.999979,-7566.28,52481.1)"
font-family="MS Shell Dlg 2" font-size="10.3125" font-weight="400" font-style="normal" 
>
<path vector-effect="non-scaling-stroke" fill-rule="evenodd" d="M7809.84,50824.5 L7616.2,51163.2 L7566.94,51550.3 L7669.54,51926.7 L7908.39,52235.2 L8247.13,52428.9 L8634.19,52478.2 L9010.64,52375.6 L9319.17,52136.7 L29544.9,28873 L28736.7,51444.8 L28799,51830 L29004.1,52161.9 L29320.5,52390.2 L29700.2,52479.9 L30085.4,52417.6 L30417.4,52212.5 L30645.6,51896.1 L30735.4,51516.4 L31481.1,30691.7 L40296.4,51864.9 L40513.8,52189 L40838.6,52405.2 L41221.4,52480.6 L41604,52403.8 L41928,52186.4 L42144.2,51861.6 L42219.6,51478.8 L42142.8,51096.2 L31807,26271.1 L54077,656.113 L54270.6,317.372 L54319.9,-69.6854 L54217.3,-446.134 L53978.4,-754.663 L53639.7,-948.301 L53252.6,-997.569 L52876.2,-894.966 L52567.7,-656.113 L30948.8,24209.9 L20709.1,-384.362 L20491.8,-708.391 L20166.9,-924.574 L19784.1,-999.998 L19401.6,-923.182 L19077.5,-705.82 L18861.4,-381.003 L18785.9,1.81807 L18862.8,384.362 L29483.9,25894.9 L7809.84,50824.5"/>
</g>

<g fill="none" stroke="#000000" stroke-opacity="1" stroke-width="1" stroke-linecap="square" stroke-linejoin="bevel" transform="matrix(0.999979,0,0,-0.999979,-7566.28,52481.1)"
font-family="MS Shell Dlg 2" font-size="10.3125" font-weight="400" font-style="normal" 
>
</g>

<g fill="none" stroke="#000000" stroke-opacity="1" stroke-width="1" stroke-linecap="square" stroke-linejoin="bevel" transform="matrix(0.999979,0,0,-0.999979,-7566.28,52481.1)"
font-family="MS Shell Dlg 2" font-size="10.3125" font-weight="400" font-style="normal" 
>
</g>

<g fill="#ae5151" fill-opacity="0.2" stroke="#333333" stroke-opacity="1" stroke-width="1" stroke-linecap="round" stroke-linejoin="round" transform="matrix(0.999979,0,0,-0.999979,-7566.28,52481.1)"
font-family="MS Shell Dlg 2" font-size="10.3125" font-weight="400" font-style="normal" 
>
<path vector-effect="non-scaling-stroke" fill-rule="evenodd" d="M7809.84,50824.5 L7616.2,51163.2 L7566.94,51550.3 L7669.54,51926.7 L7908.39,52235.2 L8247.13,52428.9 L8634.19,52478.2 L9010.64,52375.6 L9319.17,52136.7 L29544.9,28873 L28736.7,51444.8 L28799,51830 L29004.1,52161.9 L29320.5,52390.2 L29700.2,52479.9 L30085.4,52417.6 L30417.4,52212.5 L30645.6,51896.1 L30735.4,51516.4 L31481.1,30691.7 L40296.4,51864.9 L40513.8,52189 L40838.6,52405.2 L41221.4,52480.6 L41604,52403.8 L41928,52186.4 L42144.2,51861.6 L42219.6,51478.8 L42142.8,51096.2 L31807,26271.1 L54077,656.113 L54270.6,317.372 L54319.9,-69.6854 L54217.3,-446.134 L53978.4,-754.663 L53639.7,-948.301 L53252.6,-997.569 L52876.2,-894.966 L52567.7,-656.113 L30948.8,24209.9 L20709.1,-384.362 L20491.8,-708.391 L20166.9,-924.574 L19784.1,-999.998 L19401.6,-923.182 L19077.5,-705.82 L18861.4,-381.003 L18785.9,1.81807 L18862.8,384.362 L29483.9,25894.9 L7809.84,50824.5"/>
</g>

<g fill="none" stroke="#000000" stroke-opacity="1" stroke-width="1" stroke-linecap="square" stroke-linejoin="bevel" transform="matrix(0.999979,0,0,-0.999979,-7566.28,52481.1)"
font-family="MS Shell Dlg 2" font-size="10.3125" font-weight="400" font-style="normal" 
>
</g>

<g fill="none" stroke="#000000" stroke-opacity="1" stroke-width="1" stroke-linecap="square" stroke-linejoin="bevel" transform="matrix(0.999979,0,0,-0.999979,-7566.28,52481.1)"
font-family="MS Shell Dlg 2" font-size="10.3125" font-weight="400" font-style="normal" 
>
</g>

<g fill="#ffff00" fill-opacity="0.2" stroke="#333333" stroke-opacity="1" stroke-width="1" stroke-linecap="round" stroke-linejoin="round" transform="matrix(0.999979,0,0,-0.999979,-7566.28,52481.1)"
font-family="MS Shell Dlg 2" font-size="10.3125" font-weight="400" font-style="normal" 
>
<path vector-effect="non-scaling-stroke" fill-rule="evenodd" d="M7809.84,50824.5 L7616.2,51163.2 L7566.94,51550.3 L7669.54,51926.7 L7908.39,52235.2 L8247.13,52428.9 L8634.19,52478.2 L9010.64,52375.6 L9319.17,52136.7 L29544.9,28873 L28736.7,51444.8 L28799,51830 L29004.1,52161.9 L29320.5,52390.2 L29700.2,52479.9 L30085.4,52417.6 L30417.4,52212.5 L30645.6,51896.1 L30735.4,51516.4 L31481.1,30691.7 L40296.4,51864.9 L40513.8,52189 L40838.6,52405.2 L41221.4,52480.6 L41604,52403.8 L41928,52186.4 L42144.2,51861.6 L42219.6,51478.8 L42142.8,51096.2 L31807,26271.1 L54077,656.113 L54270.6,317.372 L54319.9,-69.6854 L54217.3,-446.134 L53978.4,-754.663 L53639.7,-948.301 L53252.6,-997.569 L52876.2,-894.966 L52567.7,-656.113 L30948.8,24209.9 L20709.1,-384.362 L20491.8,-708.391 L20166.9,-924.574 L19784.1,-999.998 L19401.6,-923.182 L19077.5,-705.82 L18861.4,-381.003 L18785.9,1.81807 L18862.8,384.362 L29483.9,25894.9 L7809.84,50824.5"/>
</g>

<g fill="none" stroke="#000000" stroke-opacity="1" stroke-width="1" stroke-linecap="square" stroke-linejoin="bevel" transform="matrix(0.999979,0,0,-0.999979,-7566.28,52481.1)"
font-family="MS Shell Dlg 2" font-size="10.3125" font-weight="400" font-style="normal" 
>
</g>

<g fill="none" stroke="#000000" stroke-opacity="1" stroke-width="1" stroke-linecap="square" stroke-linejoin="bevel" transform="matrix(0.999979,0,0,-0.999979,-7566.28,52481.1)"
font-family="MS Shell Dlg 2" font-size="10.3125" font-weight="400" font-style="normal" 
>
</g>

<g fill="#ae5151" fill-opacity="0.2" stroke="#333333" stroke-opacity="1" stroke-width="1" stroke-linecap="round" stroke-linejoin="round" transform="matrix(0.999979,0,0,-0.999979,-7566.28,52481.1)"
font-family="MS Shell Dlg 2" font-size="10.3125" font-weight="400" font-style="normal" 
>
<path vector-effect="non-scaling-stroke" fill-rule="evenodd" d="M7809.84,50824.5 L7616.2,51163.2 L7566.94,51550.3 L7669.54,51926.7 L7908.39,52235.2 L8247.13,52428.9 L8634.19,52478.2 L9010.64,52375.6 L9319.17,52136.7 L29544.9,28873 L28736.7,51444.8 L28799,51830 L29004.1,52161.9 L29320.5,52390.2 L29700.2,52479.9 L30085.4,52417.6 L30417.4,52212.5 L30645.6,51896.1 L30735.4,51516.4 L31481.1,30691.7 L40296.4,51864.9 L40513.8,52189 L40838.6,52405.2 L41221.4,52480.6 L41604,52403.8 L41928,52186.4 L42144.2,51861.6 L42219.6,51478.8 L42142.8,51096.2 L31807,26271.1 L54077,656.113 L54270.6,317.372 L54319.9,-69.6854 L54217.3,-446.134 L53978.4,-754.663 L53639.7,-948.301 L53252.6,-997.569 L52876.2,-894.966 L52567.7,-656.113 L30948.8,24209.9 L20709.1,-384.362 L20491.8,-708.391 L20166.9,-924.574 L19784.1,-999.998 L19401.6,-923.182 L19077.5,-705.82 L18861.4,-381.003 L18785.9,1.81807 L18862.8,384.362 L29483.9,25894.9 L7809.84,50824.5"/>
</g>

<g fill="none" stroke="#000000" stroke-opacity="1" stroke-width="1" stroke-linecap="square" stroke-linejoin="bevel" transform="matrix(0.999979,0,0,-0.999979,-7566.28,52481.1)"
font-family="MS Shell Dlg 2" font-size="10.3125" font-weight="400" font-style="normal" 
>
</g>

<g fill="none" stroke="#000000" stroke-opacity="1" stroke-width="1" stroke-linecap="square" stroke-linejoin="bevel" transform="matrix(0.999979,0,0,-0.999979,-7566.28,52481.1)"
font-family="MS Shell Dlg 2" font-size="10.3125" font-weight="400" font-style="normal" 
>
</g>

<g fill="#333333" fill-opacity="0.2" stroke="#333333" stroke-opacity="1" stroke-width="1" stroke-linecap="round" stroke-linejoin="round" transform="matrix(0.999979,0,0,-0.999979,-7566.28,52481.1)"
font-family="MS Shell Dlg 2" font-size="10.3125" font-weight="400" font-style="normal" 
>
<path vector-effect="non-scaling-stroke" fill-rule="evenodd" d="M7809.84,50824.5 L7616.2,51163.2 L7566.94,51550.3 L7669.54,51926.7 L7908.39,52235.2 L8247.13,52428.9 L8634.19,52478.2 L9010.64,52375.6 L9319.17,52136.7 L29544.9,28873 L28736.7,51444.8 L28799,51830 L29004.1,52161.9 L29320.5,52390.2 L29700.2,52479.9 L30085.4,52417.6 L30417.4,52212.5 L30645.6,51896.1 L30735.4,51516.4 L31481.1,30691.7 L40296.4,51864.9 L40513.8,52189 L40838.6,52405.2 L41221.4,52480.6 L41604,52403.8 L41928,52186.4 L42144.2,51861.6 L42219.6,51478.8 L42142.8,51096.2 L31807,26271.1 L54077,656.113 L54270.6,317.372 L54319.9,-69.6854 L54217.3,-446.134 L53978.4,-754.663 L53639.7,-948.301 L53252.6,-997.569 L52876.2,-894.966 L52567.7,-656.113 L30948.8,24209.9 L20709.1,-384.362 L20491.8,-708.391 L20166.9,-924.574 L19784.1,-999.998 L19401.6,-923.182 L19077.5,-705.82 L18861.4,-381.003 L18785.9,1.81807 L18862.8,384.362 L29483.9,25894.9 L7809.84,50824.5"/>
</g>

<g fill="none" stroke="#000000" stroke-opacity="1" stroke-width="1" stroke-linecap="square" stroke-linejoin="bevel" transform="matrix(0.999979,0,0,-0.999979,-7566.28,52481.1)"
font-family="MS Shell Dlg 2" font-size="10.3125" font-weight="400" font-style="normal" 
>
</g>

<g fill="none" stroke="#000000" stroke-opacity="1" stroke-width="1" stroke-linecap="square" stroke-linejoin="bevel" transform="matrix(1,0,0,-1,0,53481.6)"
font-family="MS Shell Dlg 2" font-size="10.3125" font-weight="400" font-style="normal" 
>
</g>
</g>
</svg>
