<?xml version="1.0" encoding="UTF-8" standalone="no"?>
<svg width="3649.7mm" height="3649.7mm"
 xmlns="http://www.w3.org/2000/svg" xmlns:xlink="http://www.w3.org/1999/xlink"  version="1.2" baseProfile="tiny">
<title>SVG Generator Example Drawing</title>
<desc>An SVG drawing created by the SVG Generator</desc>
<defs>
</defs>
<g fill="none" stroke="black" stroke-width="1" fill-rule="evenodd" stroke-linecap="square" stroke-linejoin="bevel" >

<g fill="none" stroke="#000000" stroke-opacity="1" stroke-width="1" stroke-linecap="square" stroke-linejoin="bevel" transform="matrix(1,0,0,-1,0,12933)"
font-family="MS Shell Dlg 2" font-size="10.3125" font-weight="400" font-style="normal" 
>
</g>

<g fill="none" stroke="#000000" stroke-opacity="1" stroke-width="1" stroke-linecap="square" stroke-linejoin="bevel" transform="matrix(1,0,0,-1,0,12933)"
font-family="MS Shell Dlg 2" font-size="10.3125" font-weight="400" font-style="normal" 
>
</g>

<g fill="none" stroke="#000000" stroke-opacity="1" stroke-width="1" stroke-linecap="square" stroke-linejoin="bevel" transform="matrix(0.999926,0,0,-0.999926,-24177.2,32548)"
font-family="MS Shell Dlg 2" font-size="10.3125" font-weight="400" font-style="normal" 
>
</g>

<g fill="#333333" fill-opacity="0.2" stroke="#333333" stroke-opacity="1" stroke-width="1" stroke-linecap="round" stroke-linejoin="round" transform="matrix(0.999926,0,0,-0.999926,-24177.2,32548)"
font-family="MS Shell Dlg 2" font-size="10.3125" font-weight="400" font-style="normal" 
>
<path vector-effect="non-scaling-stroke" fill-rule="evenodd" d="M37111.4,26083 L37080.3,25449.2 L36987.2,24821.5 L36833,24206 L36619.3,23608.6 L36348,23035 L36021.7,22490.7 L35643.7,21981 L35217.6,21510.9 L34747.4,21084.7 L34237.8,20706.7 L33693.5,20380.5 L33119.9,20109.2 L32522.4,19895.4 L31906.9,19741.3 L31279.2,19648.2 L30645.5,19617 L30011.7,19648.2 L29384,19741.3 L28768.5,19895.4 L28171,20109.2 L27597.4,20380.5 L27053.2,20706.7 L26543.5,21084.7 L26073.3,21510.9 L25647.2,21981 L25269.2,22490.7 L24943,23035 L24671.7,23608.6 L24457.9,24206 L24303.7,24821.5 L24210.6,25449.2 L24179.5,26083 L24210.6,26716.8 L24303.7,27344.4 L24457.9,27960 L24671.7,28557.4 L24943,29131 L25269.2,29675.3 L25647.2,30185 L26073.3,30655.1 L26543.5,31081.3 L27053.2,31459.3 L27597.4,31785.5 L28171,32056.8 L28768.5,32270.6 L29384,32424.7 L30011.7,32517.8 L30645.5,32549 L31279.2,32517.8 L31906.9,32424.7 L32522.4,32270.6 L33119.9,32056.8 L33693.5,31785.5 L34237.8,31459.3 L34747.4,31081.3 L35217.6,30655.1 L35643.7,30185 L36021.7,29675.3 L36348,29131 L36619.3,28557.4 L36833,27960 L36987.2,27344.4 L37080.3,26716.8 L37111.4,26083"/>
</g>

<g fill="none" stroke="#000000" stroke-opacity="1" stroke-width="1" stroke-linecap="square" stroke-linejoin="bevel" transform="matrix(0.999926,0,0,-0.999926,-24177.2,32548)"
font-family="MS Shell Dlg 2" font-size="10.3125" font-weight="400" font-style="normal" 
>
</g>

<g fill="none" stroke="#000000" stroke-opacity="1" stroke-width="1" stroke-linecap="square" stroke-linejoin="bevel" transform="matrix(0.999926,0,0,-0.999926,-24177.2,32548)"
font-family="MS Shell Dlg 2" font-size="10.3125" font-weight="400" font-style="normal" 
>
</g>

<g fill="#ae5151" fill-opacity="0.2" stroke="#333333" stroke-opacity="1" stroke-width="1" stroke-linecap="round" stroke-linejoin="round" transform="matrix(0.999926,0,0,-0.999926,-24177.2,32548)"
font-family="MS Shell Dlg 2" font-size="10.3125" font-weight="400" font-style="normal" 
>
<path vector-effect="non-scaling-stroke" fill-rule="evenodd" d="M37111.4,26083 L37080.3,25449.2 L36987.2,24821.5 L36833,24206 L36619.3,23608.6 L36348,23035 L36021.7,22490.7 L35643.7,21981 L35217.6,21510.9 L34747.4,21084.7 L34237.8,20706.7 L33693.5,20380.5 L33119.9,20109.2 L32522.4,19895.4 L31906.9,19741.3 L31279.2,19648.2 L30645.5,19617 L30011.7,19648.2 L29384,19741.3 L28768.5,19895.4 L28171,20109.2 L27597.4,20380.5 L27053.2,20706.7 L26543.5,21084.7 L26073.3,21510.9 L25647.2,21981 L25269.2,22490.7 L24943,23035 L24671.7,23608.6 L24457.9,24206 L24303.7,24821.5 L24210.6,25449.2 L24179.5,26083 L24210.6,26716.8 L24303.7,27344.4 L24457.9,27960 L24671.7,28557.4 L24943,29131 L25269.2,29675.3 L25647.2,30185 L26073.3,30655.1 L26543.5,31081.3 L27053.2,31459.3 L27597.4,31785.5 L28171,32056.8 L28768.5,32270.6 L29384,32424.7 L30011.7,32517.8 L30645.5,32549 L31279.2,32517.8 L31906.9,32424.7 L32522.4,32270.6 L33119.9,32056.8 L33693.5,31785.5 L34237.8,31459.3 L34747.4,31081.3 L35217.6,30655.1 L35643.7,30185 L36021.7,29675.3 L36348,29131 L36619.3,28557.4 L36833,27960 L36987.2,27344.4 L37080.3,26716.8 L37111.4,26083"/>
</g>

<g fill="none" stroke="#000000" stroke-opacity="1" stroke-width="1" stroke-linecap="square" stroke-linejoin="bevel" transform="matrix(0.999926,0,0,-0.999926,-24177.2,32548)"
font-family="MS Shell Dlg 2" font-size="10.3125" font-weight="400" font-style="normal" 
>
</g>

<g fill="none" stroke="#000000" stroke-opacity="1" stroke-width="1" stroke-linecap="square" stroke-linejoin="bevel" transform="matrix(0.999926,0,0,-0.999926,-24177.2,32548)"
font-family="MS Shell Dlg 2" font-size="10.3125" font-weight="400" font-style="normal" 
>
</g>

<g fill="#ffff00" fill-opacity="0.2" stroke="#333333" stroke-opacity="1" stroke-width="1" stroke-linecap="round" stroke-linejoin="round" transform="matrix(0.999926,0,0,-0.999926,-24177.2,32548)"
font-family="MS Shell Dlg 2" font-size="10.3125" font-weight="400" font-style="normal" 
>
<path vector-effect="non-scaling-stroke" fill-rule="evenodd" d="M37111.4,26083 L37080.3,25449.2 L36987.2,24821.5 L36833,24206 L36619.3,23608.6 L36348,23035 L36021.7,22490.7 L35643.7,21981 L35217.6,21510.9 L34747.4,21084.7 L34237.8,20706.7 L33693.5,20380.5 L33119.9,20109.2 L32522.4,19895.4 L31906.9,19741.3 L31279.2,19648.2 L30645.5,19617 L30011.7,19648.2 L29384,19741.3 L28768.5,19895.4 L28171,20109.2 L27597.4,20380.5 L27053.2,20706.7 L26543.5,21084.7 L26073.3,21510.9 L25647.2,21981 L25269.2,22490.7 L24943,23035 L24671.7,23608.6 L24457.9,24206 L24303.7,24821.5 L24210.6,25449.2 L24179.5,26083 L24210.6,26716.8 L24303.7,27344.4 L24457.9,27960 L24671.7,28557.4 L24943,29131 L25269.2,29675.3 L25647.2,30185 L26073.3,30655.1 L26543.5,31081.3 L27053.2,31459.3 L27597.4,31785.5 L28171,32056.8 L28768.5,32270.6 L29384,32424.7 L30011.7,32517.8 L30645.5,32549 L31279.2,32517.8 L31906.9,32424.7 L32522.4,32270.6 L33119.9,32056.8 L33693.5,31785.5 L34237.8,31459.3 L34747.4,31081.3 L35217.6,30655.1 L35643.7,30185 L36021.7,29675.3 L36348,29131 L36619.3,28557.4 L36833,27960 L36987.2,27344.4 L37080.3,26716.8 L37111.4,26083"/>
</g>

<g fill="none" stroke="#000000" stroke-opacity="1" stroke-width="1" stroke-linecap="square" stroke-linejoin="bevel" transform="matrix(0.999926,0,0,-0.999926,-24177.2,32548)"
font-family="MS Shell Dlg 2" font-size="10.3125" font-weight="400" font-style="normal" 
>
</g>

<g fill="none" stroke="#000000" stroke-opacity="1" stroke-width="1" stroke-linecap="square" stroke-linejoin="bevel" transform="matrix(0.999926,0,0,-0.999926,-24177.2,32548)"
font-family="MS Shell Dlg 2" font-size="10.3125" font-weight="400" font-style="normal" 
>
</g>

<g fill="#ae5151" fill-opacity="0.2" stroke="#333333" stroke-opacity="1" stroke-width="1" stroke-linecap="round" stroke-linejoin="round" transform="matrix(0.999926,0,0,-0.999926,-24177.2,32548)"
font-family="MS Shell Dlg 2" font-size="10.3125" font-weight="400" font-style="normal" 
>
<path vector-effect="non-scaling-stroke" fill-rule="evenodd" d="M37111.4,26083 L37080.3,25449.2 L36987.2,24821.5 L36833,24206 L36619.3,23608.6 L36348,23035 L36021.7,22490.7 L35643.7,21981 L35217.6,21510.9 L34747.4,21084.7 L34237.8,20706.7 L33693.5,20380.5 L33119.9,20109.2 L32522.4,19895.4 L31906.9,19741.3 L31279.2,19648.2 L30645.5,19617 L30011.7,19648.2 L29384,19741.3 L28768.5,19895.4 L28171,20109.2 L27597.4,20380.5 L27053.2,20706.7 L26543.5,21084.7 L26073.3,21510.9 L25647.2,21981 L25269.2,22490.7 L24943,23035 L24671.7,23608.6 L24457.9,24206 L24303.7,24821.5 L24210.6,25449.2 L24179.5,26083 L24210.6,26716.8 L24303.7,27344.4 L24457.9,27960 L24671.7,28557.4 L24943,29131 L25269.2,29675.3 L25647.2,30185 L26073.3,30655.1 L26543.5,31081.3 L27053.2,31459.3 L27597.4,31785.5 L28171,32056.8 L28768.5,32270.6 L29384,32424.7 L30011.7,32517.8 L30645.5,32549 L31279.2,32517.8 L31906.9,32424.7 L32522.4,32270.6 L33119.9,32056.8 L33693.5,31785.5 L34237.8,31459.3 L34747.4,31081.3 L35217.6,30655.1 L35643.7,30185 L36021.7,29675.3 L36348,29131 L36619.3,28557.4 L36833,27960 L36987.2,27344.4 L37080.3,26716.8 L37111.4,26083"/>
</g>

<g fill="none" stroke="#000000" stroke-opacity="1" stroke-width="1" stroke-linecap="square" stroke-linejoin="bevel" transform="matrix(0.999926,0,0,-0.999926,-24177.2,32548)"
font-family="MS Shell Dlg 2" font-size="10.3125" font-weight="400" font-style="normal" 
>
</g>

<g fill="none" stroke="#000000" stroke-opacity="1" stroke-width="1" stroke-linecap="square" stroke-linejoin="bevel" transform="matrix(0.999926,0,0,-0.999926,-24177.2,32548)"
font-family="MS Shell Dlg 2" font-size="10.3125" font-weight="400" font-style="normal" 
>
</g>

<g fill="#333333" fill-opacity="0.2" stroke="#333333" stroke-opacity="1" stroke-width="1" stroke-linecap="round" stroke-linejoin="round" transform="matrix(0.999926,0,0,-0.999926,-24177.2,32548)"
font-family="MS Shell Dlg 2" font-size="10.3125" font-weight="400" font-style="normal" 
>
<path vector-effect="non-scaling-stroke" fill-rule="evenodd" d="M37111.4,26083 L37080.3,25449.2 L36987.2,24821.5 L36833,24206 L36619.3,23608.6 L36348,23035 L36021.7,22490.7 L35643.7,21981 L35217.6,21510.9 L34747.4,21084.7 L34237.8,20706.7 L33693.5,20380.5 L33119.9,20109.2 L32522.4,19895.4 L31906.9,19741.3 L31279.2,19648.2 L30645.5,19617 L30011.7,19648.2 L29384,19741.3 L28768.5,19895.4 L28171,20109.2 L27597.4,20380.5 L27053.2,20706.7 L26543.5,21084.7 L26073.3,21510.9 L25647.2,21981 L25269.2,22490.7 L24943,23035 L24671.7,23608.6 L24457.9,24206 L24303.7,24821.5 L24210.6,25449.2 L24179.5,26083 L24210.6,26716.8 L24303.7,27344.4 L24457.9,27960 L24671.7,28557.4 L24943,29131 L25269.2,29675.3 L25647.2,30185 L26073.3,30655.1 L26543.5,31081.3 L27053.2,31459.3 L27597.4,31785.5 L28171,32056.8 L28768.5,32270.6 L29384,32424.7 L30011.7,32517.8 L30645.5,32549 L31279.2,32517.8 L31906.9,32424.7 L32522.4,32270.6 L33119.9,32056.8 L33693.5,31785.5 L34237.8,31459.3 L34747.4,31081.3 L35217.6,30655.1 L35643.7,30185 L36021.7,29675.3 L36348,29131 L36619.3,28557.4 L36833,27960 L36987.2,27344.4 L37080.3,26716.8 L37111.4,26083"/>
</g>

<g fill="none" stroke="#000000" stroke-opacity="1" stroke-width="1" stroke-linecap="square" stroke-linejoin="bevel" transform="matrix(0.999926,0,0,-0.999926,-24177.2,32548)"
font-family="MS Shell Dlg 2" font-size="10.3125" font-weight="400" font-style="normal" 
>
</g>

<g fill="none" stroke="#000000" stroke-opacity="1" stroke-width="1" stroke-linecap="square" stroke-linejoin="bevel" transform="matrix(1,0,0,-1,0,12933)"
font-family="MS Shell Dlg 2" font-size="10.3125" font-weight="400" font-style="normal" 
>
</g>
</g>
</svg>
