<?xml version="1.0" encoding="UTF-8" standalone="no"?>
<svg width="17183.1mm" height="14918mm"
 xmlns="http://www.w3.org/2000/svg" xmlns:xlink="http://www.w3.org/1999/xlink"  version="1.2" baseProfile="tiny">
<title>SVG Generator Example Drawing</title>
<desc>An SVG drawing created by the SVG Generator</desc>
<defs>
</defs>
<g fill="none" stroke="black" stroke-width="1" fill-rule="evenodd" stroke-linecap="square" stroke-linejoin="bevel" >

<g fill="none" stroke="#000000" stroke-opacity="1" stroke-width="1" stroke-linecap="square" stroke-linejoin="bevel" transform="matrix(1,0,0,-1,0,52859.3)"
font-family="MS Shell Dlg 2" font-size="10.3125" font-weight="400" font-style="normal" 
>
</g>

<g fill="none" stroke="#000000" stroke-opacity="1" stroke-width="1" stroke-linecap="square" stroke-linejoin="bevel" transform="matrix(1,0,0,-1,0,52859.3)"
font-family="MS Shell Dlg 2" font-size="10.3125" font-weight="400" font-style="normal" 
>
</g>

<g fill="none" stroke="#000000" stroke-opacity="1" stroke-width="1" stroke-linecap="square" stroke-linejoin="bevel" transform="matrix(0.999995,0,0,-0.999995,0.499997,52169.9)"
font-family="MS Shell Dlg 2" font-size="10.3125" font-weight="400" font-style="normal" 
>
</g>

<g fill="#333333" fill-opacity="0.2" stroke="#333333" stroke-opacity="1" stroke-width="1" stroke-linecap="round" stroke-linejoin="round" transform="matrix(0.999995,0,0,-0.999995,0.499997,52169.9)"
font-family="MS Shell Dlg 2" font-size="10.3125" font-weight="400" font-style="normal" 
>
<path vector-effect="non-scaling-stroke" fill-rule="evenodd" d="M51997.2,0 L20923.3,0 L20755.3,-403.507 L20755.1,-403.526 L19832.2,-19.2725 L19832.1,-19.1446 L21995.3,5176.52 L21995.5,5176.54 L22872.4,4811.45 L29116.3,19808.3 L29384,19741.3 L30011.7,19648.2 L30645.5,19617 L31279.2,19648.2 L31906.9,19741.3 L32522.4,19895.4 L33119.9,20109.2 L33693.5,20380.5 L34077.9,20610.9 L34453.3,20179.1 L35170.1,20802.3 L35170.3,20802.3 L39687.5,15606.7 L39687.4,15606.5 L38970.6,14983.3 L43487.9,9787.48 L44204.7,10410.7 L44204.9,10410.7 L48722.1,5215.04 L48722,5214.88 L48005.2,4591.66 L51997.2,0"/>
</g>

<g fill="none" stroke="#000000" stroke-opacity="1" stroke-width="1" stroke-linecap="square" stroke-linejoin="bevel" transform="matrix(0.999995,0,0,-0.999995,0.499997,52169.9)"
font-family="MS Shell Dlg 2" font-size="10.3125" font-weight="400" font-style="normal" 
>
</g>

<g fill="none" stroke="#000000" stroke-opacity="1" stroke-width="1" stroke-linecap="square" stroke-linejoin="bevel" transform="matrix(0.999995,0,0,-0.999995,0.499997,52169.9)"
font-family="MS Shell Dlg 2" font-size="10.3125" font-weight="400" font-style="normal" 
>
</g>

<g fill="#333333" fill-opacity="0.2" stroke="#333333" stroke-opacity="1" stroke-width="1" stroke-linecap="round" stroke-linejoin="round" transform="matrix(0.999995,0,0,-0.999995,0.499997,52169.9)"
font-family="MS Shell Dlg 2" font-size="10.3125" font-weight="400" font-style="normal" 
>
<path vector-effect="non-scaling-stroke" fill-rule="evenodd" d="M18786.3,0 L0,0 L0,51480.6 L7575.81,51480.6 L7616.2,51163.2 L7809.84,50824.5 L12252.4,45714.6 L12969.2,46337.8 L12969.4,46337.8 L17367.9,41278.7 L17367.8,41278.5 L16651,40655.3 L21049.6,35596 L21766.4,36219.3 L21766.6,36219.3 L26165.1,31160.1 L26165,31160 L25448.2,30536.8 L25701.7,30245.2 L25647.2,30185 L25269.2,29675.3 L24943,29131 L24671.7,28557.4 L24457.9,27960 L24303.7,27344.4 L24210.6,26716.8 L24179.5,26083 L24210.6,25449.2 L24303.7,24821.5 L24457.9,24206 L24671.7,23608.6 L24943,23035 L25269.2,22490.7 L25647.2,21981 L26073.3,21510.9 L26543.5,21084.7 L27053.2,20706.7 L27597.4,20380.5 L28115.2,20135.6 L26251.2,15658.7 L26251,15658.7 L25374.1,16023.8 L23210.9,10828 L24087.8,10462.9 L24087.9,10462.7 L21924.7,5267.07 L21924.5,5267.05 L21047.6,5632.14 L18862.8,384.362 L18785.9,1.81807 L18786.3,0"/>
</g>

<g fill="none" stroke="#000000" stroke-opacity="1" stroke-width="1" stroke-linecap="square" stroke-linejoin="bevel" transform="matrix(0.999995,0,0,-0.999995,0.499997,52169.9)"
font-family="MS Shell Dlg 2" font-size="10.3125" font-weight="400" font-style="normal" 
>
</g>

<g fill="none" stroke="#000000" stroke-opacity="1" stroke-width="1" stroke-linecap="square" stroke-linejoin="bevel" transform="matrix(0.999995,0,0,-0.999995,0.499997,52169.9)"
font-family="MS Shell Dlg 2" font-size="10.3125" font-weight="400" font-style="normal" 
>
</g>

<g fill="#333333" fill-opacity="0.2" stroke="#333333" stroke-opacity="1" stroke-width="1" stroke-linecap="round" stroke-linejoin="round" transform="matrix(0.999995,0,0,-0.999995,0.499997,52169.9)"
font-family="MS Shell Dlg 2" font-size="10.3125" font-weight="400" font-style="normal" 
>
<path vector-effect="non-scaling-stroke" fill-rule="evenodd" d="M34021.1,31589.1 L40036.4,46036.9 L39159.5,46402 L39159.4,46402.2 L41265.8,51461.3 L41265.9,51461.3 L42142.8,51096.2 L42219.6,51478.8 L42219.3,51480.6 L60884.2,51480.6 L60884.2,0 L54311,0 L54270.6,317.372 L54077,656.113 L53360.2,32.8984 L53360,32.8791 L48842.8,5228.55 L48842.9,5228.71 L49559.7,5851.93 L35917.4,21543.3 L35200.6,20920.1 L35200.4,20920.1 L34920.7,21241.8 L35217.6,21510.9 L35643.7,21981 L36021.7,22490.7 L36348,23035 L36619.3,23608.6 L36833,24206 L36987.2,24821.5 L37080.3,25449.2 L37111.4,26083 L37080.3,26716.8 L36987.2,27344.4 L36833,27960 L36619.3,28557.4 L36348,29131 L36021.7,29675.3 L35643.7,30185 L35217.6,30655.1 L34747.4,31081.3 L34237.8,31459.3 L34021.1,31589.1"/>
</g>

<g fill="none" stroke="#000000" stroke-opacity="1" stroke-width="1" stroke-linecap="square" stroke-linejoin="bevel" transform="matrix(0.999995,0,0,-0.999995,0.499997,52169.9)"
font-family="MS Shell Dlg 2" font-size="10.3125" font-weight="400" font-style="normal" 
>
</g>

<g fill="none" stroke="#000000" stroke-opacity="1" stroke-width="1" stroke-linecap="square" stroke-linejoin="bevel" transform="matrix(0.999995,0,0,-0.999995,0.499997,52169.9)"
font-family="MS Shell Dlg 2" font-size="10.3125" font-weight="400" font-style="normal" 
>
</g>

<g fill="#333333" fill-opacity="0.2" stroke="#333333" stroke-opacity="1" stroke-width="1" stroke-linecap="round" stroke-linejoin="round" transform="matrix(0.999995,0,0,-0.999995,0.499997,52169.9)"
font-family="MS Shell Dlg 2" font-size="10.3125" font-weight="400" font-style="normal" 
>
<path vector-effect="non-scaling-stroke" fill-rule="evenodd" d="M26444.3,30991.4 L26284.7,31175 L26284.7,31175.2 L27001.5,31798.4 L13717.8,47077.4 L13000.9,46454.2 L13000.8,46454.2 L8602.3,51513.3 L8602.34,51513.5 L9356.79,52169.4 L9356.96,52169.4 L9955.85,51480.6 L28742.5,51480.6 L28736.7,51444.8 L29685.9,51478.8 L29686.1,51478.7 L29867.2,46419.6 L29867.1,46419.5 L28917.8,46385.5 L29417.6,32429.7 L29384,32424.7 L28768.5,32270.6 L28171,32056.8 L27597.4,31785.5 L27053.2,31459.3 L26543.5,31081.3 L26444.3,30991.4"/>
</g>

<g fill="none" stroke="#000000" stroke-opacity="1" stroke-width="1" stroke-linecap="square" stroke-linejoin="bevel" transform="matrix(0.999995,0,0,-0.999995,0.499997,52169.9)"
font-family="MS Shell Dlg 2" font-size="10.3125" font-weight="400" font-style="normal" 
>
</g>

<g fill="none" stroke="#000000" stroke-opacity="1" stroke-width="1" stroke-linecap="square" stroke-linejoin="bevel" transform="matrix(0.999995,0,0,-0.999995,0.499997,52169.9)"
font-family="MS Shell Dlg 2" font-size="10.3125" font-weight="400" font-style="normal" 
>
</g>

<g fill="#333333" fill-opacity="0.2" stroke="#333333" stroke-opacity="1" stroke-width="1" stroke-linecap="round" stroke-linejoin="round" transform="matrix(0.999995,0,0,-0.999995,0.499997,52169.9)"
font-family="MS Shell Dlg 2" font-size="10.3125" font-weight="400" font-style="normal" 
>
<path vector-effect="non-scaling-stroke" fill-rule="evenodd" d="M30736.7,51480.6 L40136.4,51480.6 L38169,46755.1 L39045.9,46390 L39046,46389.9 L36939.6,41330.7 L36939.5,41330.7 L36062.6,41695.8 L33956.2,36636.5 L34833.1,36271.4 L34833.2,36271.3 L33083.8,32069.7 L32522.4,32270.6 L31906.9,32424.7 L31279.2,32517.8 L30645.5,32549 L30464.3,32540.1 L30331.3,36253.9 L30331.4,36253.9 L31280.7,36287.9 L31099.5,41347.2 L30150.3,41313.2 L30150.1,41313.3 L29969,46372.4 L29969.1,46372.5 L30918.4,46406.5 L30736.7,51480.6"/>
</g>

<g fill="none" stroke="#000000" stroke-opacity="1" stroke-width="1" stroke-linecap="square" stroke-linejoin="bevel" transform="matrix(0.999995,0,0,-0.999995,0.499997,52169.9)"
font-family="MS Shell Dlg 2" font-size="10.3125" font-weight="400" font-style="normal" 
>
</g>

<g fill="none" stroke="#000000" stroke-opacity="1" stroke-width="1" stroke-linecap="square" stroke-linejoin="bevel" transform="matrix(0.999995,0,0,-0.999995,0.499997,52169.9)"
font-family="MS Shell Dlg 2" font-size="10.3125" font-weight="400" font-style="normal" 
>
</g>

<g fill="#ae5151" fill-opacity="0.2" stroke="#333333" stroke-opacity="1" stroke-width="1" stroke-linecap="round" stroke-linejoin="round" transform="matrix(0.999995,0,0,-0.999995,0.499997,52169.9)"
font-family="MS Shell Dlg 2" font-size="10.3125" font-weight="400" font-style="normal" 
>
<path vector-effect="non-scaling-stroke" fill-rule="evenodd" d="M51997.2,0 L20923.3,0 L20755.3,-403.507 L20755.1,-403.526 L19832.2,-19.2725 L19832.1,-19.1446 L21995.3,5176.52 L21995.5,5176.54 L22872.4,4811.45 L29116.3,19808.3 L29384,19741.3 L30011.7,19648.2 L30645.5,19617 L31279.2,19648.2 L31906.9,19741.3 L32522.4,19895.4 L33119.9,20109.2 L33693.5,20380.5 L34077.9,20610.9 L34453.3,20179.1 L35170.1,20802.3 L35170.3,20802.3 L39687.5,15606.7 L39687.4,15606.5 L38970.6,14983.3 L43487.9,9787.48 L44204.7,10410.7 L44204.9,10410.7 L48722.1,5215.04 L48722,5214.88 L48005.2,4591.66 L51997.2,0"/>
</g>

<g fill="none" stroke="#000000" stroke-opacity="1" stroke-width="1" stroke-linecap="square" stroke-linejoin="bevel" transform="matrix(0.999995,0,0,-0.999995,0.499997,52169.9)"
font-family="MS Shell Dlg 2" font-size="10.3125" font-weight="400" font-style="normal" 
>
</g>

<g fill="none" stroke="#000000" stroke-opacity="1" stroke-width="1" stroke-linecap="square" stroke-linejoin="bevel" transform="matrix(0.999995,0,0,-0.999995,0.499997,52169.9)"
font-family="MS Shell Dlg 2" font-size="10.3125" font-weight="400" font-style="normal" 
>
</g>

<g fill="#ae5151" fill-opacity="0.2" stroke="#333333" stroke-opacity="1" stroke-width="1" stroke-linecap="round" stroke-linejoin="round" transform="matrix(0.999995,0,0,-0.999995,0.499997,52169.9)"
font-family="MS Shell Dlg 2" font-size="10.3125" font-weight="400" font-style="normal" 
>
<path vector-effect="non-scaling-stroke" fill-rule="evenodd" d="M18786.3,0 L0,0 L0,51480.6 L7575.81,51480.6 L7616.2,51163.2 L7809.84,50824.5 L12252.4,45714.6 L12969.2,46337.8 L12969.4,46337.8 L17367.9,41278.7 L17367.8,41278.5 L16651,40655.3 L21049.6,35596 L21766.4,36219.3 L21766.6,36219.3 L26165.1,31160.1 L26165,31160 L25448.2,30536.8 L25701.7,30245.2 L25647.2,30185 L25269.2,29675.3 L24943,29131 L24671.7,28557.4 L24457.9,27960 L24303.7,27344.4 L24210.6,26716.8 L24179.5,26083 L24210.6,25449.2 L24303.7,24821.5 L24457.9,24206 L24671.7,23608.6 L24943,23035 L25269.2,22490.7 L25647.2,21981 L26073.3,21510.9 L26543.5,21084.7 L27053.2,20706.7 L27597.4,20380.5 L28115.2,20135.6 L26251.2,15658.7 L26251,15658.7 L25374.1,16023.8 L23210.9,10828 L24087.8,10462.9 L24087.9,10462.7 L21924.7,5267.07 L21924.5,5267.05 L21047.6,5632.14 L18862.8,384.362 L18785.9,1.81807 L18786.3,0"/>
</g>

<g fill="none" stroke="#000000" stroke-opacity="1" stroke-width="1" stroke-linecap="square" stroke-linejoin="bevel" transform="matrix(0.999995,0,0,-0.999995,0.499997,52169.9)"
font-family="MS Shell Dlg 2" font-size="10.3125" font-weight="400" font-style="normal" 
>
</g>

<g fill="none" stroke="#000000" stroke-opacity="1" stroke-width="1" stroke-linecap="square" stroke-linejoin="bevel" transform="matrix(0.999995,0,0,-0.999995,0.499997,52169.9)"
font-family="MS Shell Dlg 2" font-size="10.3125" font-weight="400" font-style="normal" 
>
</g>

<g fill="#ae5151" fill-opacity="0.2" stroke="#333333" stroke-opacity="1" stroke-width="1" stroke-linecap="round" stroke-linejoin="round" transform="matrix(0.999995,0,0,-0.999995,0.499997,52169.9)"
font-family="MS Shell Dlg 2" font-size="10.3125" font-weight="400" font-style="normal" 
>
<path vector-effect="non-scaling-stroke" fill-rule="evenodd" d="M34021.1,31589.1 L40036.4,46036.9 L39159.5,46402 L39159.4,46402.2 L41265.8,51461.3 L41265.9,51461.3 L42142.8,51096.2 L42219.6,51478.8 L42219.3,51480.6 L60884.2,51480.6 L60884.2,0 L54311,0 L54270.6,317.372 L54077,656.113 L53360.2,32.8984 L53360,32.8791 L48842.8,5228.55 L48842.9,5228.71 L49559.7,5851.93 L35917.4,21543.3 L35200.6,20920.1 L35200.4,20920.1 L34920.7,21241.8 L35217.6,21510.9 L35643.7,21981 L36021.7,22490.7 L36348,23035 L36619.3,23608.6 L36833,24206 L36987.2,24821.5 L37080.3,25449.2 L37111.4,26083 L37080.3,26716.8 L36987.2,27344.4 L36833,27960 L36619.3,28557.4 L36348,29131 L36021.7,29675.3 L35643.7,30185 L35217.6,30655.1 L34747.4,31081.3 L34237.8,31459.3 L34021.1,31589.1"/>
</g>

<g fill="none" stroke="#000000" stroke-opacity="1" stroke-width="1" stroke-linecap="square" stroke-linejoin="bevel" transform="matrix(0.999995,0,0,-0.999995,0.499997,52169.9)"
font-family="MS Shell Dlg 2" font-size="10.3125" font-weight="400" font-style="normal" 
>
</g>

<g fill="none" stroke="#000000" stroke-opacity="1" stroke-width="1" stroke-linecap="square" stroke-linejoin="bevel" transform="matrix(0.999995,0,0,-0.999995,0.499997,52169.9)"
font-family="MS Shell Dlg 2" font-size="10.3125" font-weight="400" font-style="normal" 
>
</g>

<g fill="#ae5151" fill-opacity="0.2" stroke="#333333" stroke-opacity="1" stroke-width="1" stroke-linecap="round" stroke-linejoin="round" transform="matrix(0.999995,0,0,-0.999995,0.499997,52169.9)"
font-family="MS Shell Dlg 2" font-size="10.3125" font-weight="400" font-style="normal" 
>
<path vector-effect="non-scaling-stroke" fill-rule="evenodd" d="M26444.3,30991.4 L26284.7,31175 L26284.7,31175.2 L27001.5,31798.4 L13717.8,47077.4 L13000.9,46454.2 L13000.8,46454.2 L8602.3,51513.3 L8602.34,51513.5 L9356.79,52169.4 L9356.96,52169.4 L9955.85,51480.6 L28742.5,51480.6 L28736.7,51444.8 L29685.9,51478.8 L29686.1,51478.7 L29867.2,46419.6 L29867.1,46419.5 L28917.8,46385.5 L29417.6,32429.7 L29384,32424.7 L28768.5,32270.6 L28171,32056.8 L27597.4,31785.5 L27053.2,31459.3 L26543.5,31081.3 L26444.3,30991.4"/>
</g>

<g fill="none" stroke="#000000" stroke-opacity="1" stroke-width="1" stroke-linecap="square" stroke-linejoin="bevel" transform="matrix(0.999995,0,0,-0.999995,0.499997,52169.9)"
font-family="MS Shell Dlg 2" font-size="10.3125" font-weight="400" font-style="normal" 
>
</g>

<g fill="none" stroke="#000000" stroke-opacity="1" stroke-width="1" stroke-linecap="square" stroke-linejoin="bevel" transform="matrix(0.999995,0,0,-0.999995,0.499997,52169.9)"
font-family="MS Shell Dlg 2" font-size="10.3125" font-weight="400" font-style="normal" 
>
</g>

<g fill="#ae5151" fill-opacity="0.2" stroke="#333333" stroke-opacity="1" stroke-width="1" stroke-linecap="round" stroke-linejoin="round" transform="matrix(0.999995,0,0,-0.999995,0.499997,52169.9)"
font-family="MS Shell Dlg 2" font-size="10.3125" font-weight="400" font-style="normal" 
>
<path vector-effect="non-scaling-stroke" fill-rule="evenodd" d="M30736.7,51480.6 L40136.4,51480.6 L38169,46755.1 L39045.9,46390 L39046,46389.9 L36939.6,41330.7 L36939.5,41330.7 L36062.6,41695.8 L33956.2,36636.5 L34833.1,36271.4 L34833.2,36271.3 L33083.8,32069.7 L32522.4,32270.6 L31906.9,32424.7 L31279.2,32517.8 L30645.5,32549 L30464.3,32540.1 L30331.3,36253.9 L30331.4,36253.9 L31280.7,36287.9 L31099.5,41347.2 L30150.3,41313.2 L30150.1,41313.3 L29969,46372.4 L29969.1,46372.5 L30918.4,46406.5 L30736.7,51480.6"/>
</g>

<g fill="none" stroke="#000000" stroke-opacity="1" stroke-width="1" stroke-linecap="square" stroke-linejoin="bevel" transform="matrix(0.999995,0,0,-0.999995,0.499997,52169.9)"
font-family="MS Shell Dlg 2" font-size="10.3125" font-weight="400" font-style="normal" 
>
</g>

<g fill="none" stroke="#000000" stroke-opacity="1" stroke-width="1" stroke-linecap="square" stroke-linejoin="bevel" transform="matrix(0.999995,0,0,-0.999995,0.499997,52169.9)"
font-family="MS Shell Dlg 2" font-size="10.3125" font-weight="400" font-style="normal" 
>
</g>

<g fill="#ffff00" fill-opacity="0.2" stroke="#333333" stroke-opacity="1" stroke-width="1" stroke-linecap="round" stroke-linejoin="round" transform="matrix(0.999995,0,0,-0.999995,0.499997,52169.9)"
font-family="MS Shell Dlg 2" font-size="10.3125" font-weight="400" font-style="normal" 
>
<path vector-effect="non-scaling-stroke" fill-rule="evenodd" d="M51931,0 L20923.3,0 L20755.3,-403.507 L20755.1,-403.526 L18862.8,384.362 L18785.9,1.81807 L18786.3,0 L0,0 L0,51480.6 L7575.81,51480.6 L7616.2,51163.2 L7809.84,50824.5 L9356.79,52169.4 L9356.96,52169.4 L9955.85,51480.6 L28742.5,51480.6 L28736.7,51444.8 L30785.2,51518.2 L30785.4,51518.1 L30786.7,51480.6 L40082.3,51480.6 L40250.3,51884.1 L40250.4,51884.1 L42142.8,51096.2 L42219.6,51478.8 L42219.3,51480.6 L60884.2,51480.6 L60884.2,0 L54311,0 L54270.6,317.372 L54077,656.113 L52530,-688.826 L52529.9,-688.845 L51931,0 M25057.3,10059.2 L27220.5,15255 L25374.1,16023.8 L23210.9,10828 L25057.3,10059.2 M38970.6,14983.3 L43487.9,9787.48 L44997.2,11099.7 L40479.9,16295.5 L38970.6,14983.3 M16651,40655.3 L21049.6,35596 L22558.9,36908.3 L18160.3,41967.5 L16651,40655.3 M35802.5,35867.8 L37908.9,40927.1 L36062.6,41695.8 L33956.2,36636.5 L35802.5,35867.8 M29100.8,41275.6 L29282,36216.4 L31280.7,36287.9 L31099.5,41347.2 L29100.8,41275.6 M37111.4,26083 L37080.3,26716.8 L36987.2,27344.4 L36833,27960 L36619.3,28557.4 L36348,29131 L36021.7,29675.3 L35643.7,30185 L35217.6,30655.1 L34747.4,31081.3 L34237.8,31459.3 L33693.5,31785.5 L33119.9,32056.8 L32522.4,32270.6 L31906.9,32424.7 L31279.2,32517.8 L30645.5,32549 L30011.7,32517.8 L29384,32424.7 L28768.5,32270.6 L28171,32056.8 L27597.4,31785.5 L27053.2,31459.3 L26543.5,31081.3 L26073.3,30655.1 L25647.2,30185 L25269.2,29675.3 L24943,29131 L24671.7,28557.4 L24457.9,27960 L24303.7,27344.4 L24210.6,26716.8 L24179.5,26083 L24210.6,25449.2 L24303.7,24821.5 L24457.9,24206 L24671.7,23608.6 L24943,23035 L25269.2,22490.7 L25647.2,21981 L26073.3,21510.9 L26543.5,21084.7 L27053.2,20706.7 L27597.4,20380.5 L28171,20109.2 L28768.5,19895.4 L29384,19741.3 L30011.7,19648.2 L30645.5,19617 L31279.2,19648.2 L31906.9,19741.3 L32522.4,19895.4 L33119.9,20109.2 L33693.5,20380.5 L34237.8,20706.7 L34747.4,21084.7 L35217.6,21510.9 L35643.7,21981 L36021.7,22490.7 L36348,23035 L36619.3,23608.6 L36833,24206 L36987.2,24821.5 L37080.3,25449.2 L37111.4,26083"/>
</g>

<g fill="none" stroke="#000000" stroke-opacity="1" stroke-width="1" stroke-linecap="square" stroke-linejoin="bevel" transform="matrix(0.999995,0,0,-0.999995,0.499997,52169.9)"
font-family="MS Shell Dlg 2" font-size="10.3125" font-weight="400" font-style="normal" 
>
</g>

<g fill="none" stroke="#000000" stroke-opacity="1" stroke-width="1" stroke-linecap="square" stroke-linejoin="bevel" transform="matrix(0.999995,0,0,-0.999995,0.499997,52169.9)"
font-family="MS Shell Dlg 2" font-size="10.3125" font-weight="400" font-style="normal" 
>
</g>

<g fill="#ae5151" fill-opacity="0.2" stroke="#333333" stroke-opacity="1" stroke-width="1" stroke-linecap="round" stroke-linejoin="round" transform="matrix(0.999995,0,0,-0.999995,0.499997,52169.9)"
font-family="MS Shell Dlg 2" font-size="10.3125" font-weight="400" font-style="normal" 
>
<path vector-effect="non-scaling-stroke" fill-rule="evenodd" d="M51931,0 L20869.1,0 L22894,4863.41 L22017.1,5228.5 L22017,5228.63 L24180.2,10424.3 L24180.4,10424.3 L25057.3,10059.2 L27220.5,15255 L26343.6,15620.1 L26343.5,15620.3 L28207.1,20096.3 L28768.5,19895.4 L29384,19741.3 L30011.7,19648.2 L30645.5,19617 L31279.2,19648.2 L31906.9,19741.3 L32522.4,19895.4 L33119.9,20109.2 L33693.5,20380.5 L34237.8,20706.7 L34747.4,21084.7 L34846.6,21174.6 L35125,20854.5 L35124.9,20854.3 L34408.1,20231.1 L48050.4,4539.7 L48767.2,5162.92 L48767.4,5162.94 L53284.5,-32.7322 L53284.5,-32.8984 L52530,-688.826 L52529.9,-688.845 L51931,0"/>
</g>

<g fill="none" stroke="#000000" stroke-opacity="1" stroke-width="1" stroke-linecap="square" stroke-linejoin="bevel" transform="matrix(0.999995,0,0,-0.999995,0.499997,52169.9)"
font-family="MS Shell Dlg 2" font-size="10.3125" font-weight="400" font-style="normal" 
>
</g>

<g fill="none" stroke="#000000" stroke-opacity="1" stroke-width="1" stroke-linecap="square" stroke-linejoin="bevel" transform="matrix(0.999995,0,0,-0.999995,0.499997,52169.9)"
font-family="MS Shell Dlg 2" font-size="10.3125" font-weight="400" font-style="normal" 
>
</g>

<g fill="#ae5151" fill-opacity="0.2" stroke="#333333" stroke-opacity="1" stroke-width="1" stroke-linecap="round" stroke-linejoin="round" transform="matrix(0.999995,0,0,-0.999995,0.499997,52169.9)"
font-family="MS Shell Dlg 2" font-size="10.3125" font-weight="400" font-style="normal" 
>
<path vector-effect="non-scaling-stroke" fill-rule="evenodd" d="M27269.8,20576.9 L21026,5580.18 L21902.9,5215.09 L21903,5214.96 L19739.8,19.2916 L19739.6,19.2725 L18862.8,384.362 L18785.9,1.81807 L18786.3,0 L0,0 L0,51480.6 L7575.81,51480.6 L7616.2,51163.2 L7809.84,50824.5 L8526.66,51447.7 L8526.83,51447.7 L12925.3,46388.6 L12925.3,46388.4 L12208.4,45765.2 L25492.2,30486.2 L26209,31109.4 L26209.2,31109.4 L26370.2,30924.2 L26073.3,30655.1 L25647.2,30185 L25269.2,29675.3 L24943,29131 L24671.7,28557.4 L24457.9,27960 L24303.7,27344.4 L24210.6,26716.8 L24179.5,26083 L24210.6,25449.2 L24303.7,24821.5 L24457.9,24206 L24671.7,23608.6 L24943,23035 L25269.2,22490.7 L25647.2,21981 L26073.3,21510.9 L26543.5,21084.7 L27053.2,20706.7 L27269.8,20576.9"/>
</g>

<g fill="none" stroke="#000000" stroke-opacity="1" stroke-width="1" stroke-linecap="square" stroke-linejoin="bevel" transform="matrix(0.999995,0,0,-0.999995,0.499997,52169.9)"
font-family="MS Shell Dlg 2" font-size="10.3125" font-weight="400" font-style="normal" 
>
</g>

<g fill="none" stroke="#000000" stroke-opacity="1" stroke-width="1" stroke-linecap="square" stroke-linejoin="bevel" transform="matrix(0.999995,0,0,-0.999995,0.499997,52169.9)"
font-family="MS Shell Dlg 2" font-size="10.3125" font-weight="400" font-style="normal" 
>
</g>

<g fill="#ae5151" fill-opacity="0.2" stroke="#333333" stroke-opacity="1" stroke-width="1" stroke-linecap="round" stroke-linejoin="round" transform="matrix(0.999995,0,0,-0.999995,0.499997,52169.9)"
font-family="MS Shell Dlg 2" font-size="10.3125" font-weight="400" font-style="normal" 
>
<path vector-effect="non-scaling-stroke" fill-rule="evenodd" d="M42219.3,51480.6 L60884.2,51480.6 L60884.2,0 L54311,0 L54270.6,317.372 L54077,656.113 L49514.5,5903.89 L48797.7,5280.67 L48797.5,5280.65 L44280.3,10476.3 L44280.4,10476.5 L44997.2,11099.7 L40479.9,16295.5 L39763.1,15672.3 L39762.9,15672.3 L35245.7,20868 L35245.8,20868.1 L35962.6,21491.3 L35589.2,21920.8 L35643.7,21981 L36021.7,22490.7 L36348,23035 L36619.3,23608.6 L36833,24206 L36987.2,24821.5 L37080.3,25449.2 L37111.4,26083 L37080.3,26716.8 L36987.2,27344.4 L36833,27960 L36619.3,28557.4 L36348,29131 L36021.7,29675.3 L35643.7,30185 L35217.6,30655.1 L34747.4,31081.3 L34237.8,31459.3 L33693.5,31785.5 L33175.8,32030.4 L34925.5,36232.9 L34925.6,36232.9 L35802.5,35867.8 L37908.9,40927.1 L37032,41292.2 L37031.9,41292.3 L39138.3,46351.4 L39138.4,46351.4 L40015.3,45986.4 L42142.8,51096.2 L42219.6,51478.8 L42219.3,51480.6"/>
</g>

<g fill="none" stroke="#000000" stroke-opacity="1" stroke-width="1" stroke-linecap="square" stroke-linejoin="bevel" transform="matrix(0.999995,0,0,-0.999995,0.499997,52169.9)"
font-family="MS Shell Dlg 2" font-size="10.3125" font-weight="400" font-style="normal" 
>
</g>

<g fill="none" stroke="#000000" stroke-opacity="1" stroke-width="1" stroke-linecap="square" stroke-linejoin="bevel" transform="matrix(0.999995,0,0,-0.999995,0.499997,52169.9)"
font-family="MS Shell Dlg 2" font-size="10.3125" font-weight="400" font-style="normal" 
>
</g>

<g fill="#ae5151" fill-opacity="0.2" stroke="#333333" stroke-opacity="1" stroke-width="1" stroke-linecap="round" stroke-linejoin="round" transform="matrix(0.999995,0,0,-0.999995,0.499997,52169.9)"
font-family="MS Shell Dlg 2" font-size="10.3125" font-weight="400" font-style="normal" 
>
<path vector-effect="non-scaling-stroke" fill-rule="evenodd" d="M9889.6,51480.6 L28742.5,51480.6 L28736.7,51444.8 L28919.6,46334.9 L29868.9,46368.9 L29869,46368.9 L30050.2,41309.7 L30050.1,41309.6 L29100.8,41275.6 L29282,36216.4 L30231.2,36250.4 L30231.4,36250.3 L30364.4,32535.2 L30011.7,32517.8 L29384,32424.7 L28768.5,32270.6 L28171,32056.8 L27597.4,31785.5 L27213.1,31555.1 L26957.5,31849 L26240.7,31225.8 L26240.6,31225.7 L21842.1,36284.9 L21842.1,36285.1 L22558.9,36908.3 L18160.3,41967.5 L17443.5,41344.3 L17443.4,41344.3 L13044.9,46403.4 L13044.9,46403.6 L13761.8,47026.8 L9889.6,51480.6"/>
</g>

<g fill="none" stroke="#000000" stroke-opacity="1" stroke-width="1" stroke-linecap="square" stroke-linejoin="bevel" transform="matrix(0.999995,0,0,-0.999995,0.499997,52169.9)"
font-family="MS Shell Dlg 2" font-size="10.3125" font-weight="400" font-style="normal" 
>
</g>

<g fill="none" stroke="#000000" stroke-opacity="1" stroke-width="1" stroke-linecap="square" stroke-linejoin="bevel" transform="matrix(0.999995,0,0,-0.999995,0.499997,52169.9)"
font-family="MS Shell Dlg 2" font-size="10.3125" font-weight="400" font-style="normal" 
>
</g>

<g fill="#ae5151" fill-opacity="0.2" stroke="#333333" stroke-opacity="1" stroke-width="1" stroke-linecap="round" stroke-linejoin="round" transform="matrix(0.999995,0,0,-0.999995,0.499997,52169.9)"
font-family="MS Shell Dlg 2" font-size="10.3125" font-weight="400" font-style="normal" 
>
<path vector-effect="non-scaling-stroke" fill-rule="evenodd" d="M31416.4,32497.5 L30916.5,46457.1 L29967.3,46423.1 L29967.2,46423.2 L29786,51482.3 L29786.1,51482.4 L30785.2,51518.2 L30785.4,51518.1 L30786.7,51480.6 L40082.3,51480.6 L40250.3,51884.1 L40250.4,51884.1 L41173.3,51499.9 L41173.4,51499.7 L39067.1,46440.6 L39066.9,46440.6 L38190,46805.7 L32174.7,32357.7 L31906.9,32424.7 L31416.4,32497.5"/>
</g>

<g fill="none" stroke="#000000" stroke-opacity="1" stroke-width="1" stroke-linecap="square" stroke-linejoin="bevel" transform="matrix(0.999995,0,0,-0.999995,0.499997,52169.9)"
font-family="MS Shell Dlg 2" font-size="10.3125" font-weight="400" font-style="normal" 
>
</g>

<g fill="none" stroke="#000000" stroke-opacity="1" stroke-width="1" stroke-linecap="square" stroke-linejoin="bevel" transform="matrix(0.999995,0,0,-0.999995,0.499997,52169.9)"
font-family="MS Shell Dlg 2" font-size="10.3125" font-weight="400" font-style="normal" 
>
</g>

<g fill="#333333" fill-opacity="0.2" stroke="#333333" stroke-opacity="1" stroke-width="1" stroke-linecap="round" stroke-linejoin="round" transform="matrix(0.999995,0,0,-0.999995,0.499997,52169.9)"
font-family="MS Shell Dlg 2" font-size="10.3125" font-weight="400" font-style="normal" 
>
<path vector-effect="non-scaling-stroke" fill-rule="evenodd" d="M51931,0 L20869.1,0 L22894,4863.41 L22017.1,5228.5 L22017,5228.63 L24180.2,10424.3 L24180.4,10424.3 L25057.3,10059.2 L27220.5,15255 L26343.6,15620.1 L26343.5,15620.3 L28207.1,20096.3 L28768.5,19895.4 L29384,19741.3 L30011.7,19648.2 L30645.5,19617 L31279.2,19648.2 L31906.9,19741.3 L32522.4,19895.4 L33119.9,20109.2 L33693.5,20380.5 L34237.8,20706.7 L34747.4,21084.7 L34846.6,21174.6 L35125,20854.5 L35124.9,20854.3 L34408.1,20231.1 L48050.4,4539.7 L48767.2,5162.92 L48767.4,5162.94 L53284.5,-32.7322 L53284.5,-32.8984 L52530,-688.826 L52529.9,-688.845 L51931,0"/>
</g>

<g fill="none" stroke="#000000" stroke-opacity="1" stroke-width="1" stroke-linecap="square" stroke-linejoin="bevel" transform="matrix(0.999995,0,0,-0.999995,0.499997,52169.9)"
font-family="MS Shell Dlg 2" font-size="10.3125" font-weight="400" font-style="normal" 
>
</g>

<g fill="none" stroke="#000000" stroke-opacity="1" stroke-width="1" stroke-linecap="square" stroke-linejoin="bevel" transform="matrix(0.999995,0,0,-0.999995,0.499997,52169.9)"
font-family="MS Shell Dlg 2" font-size="10.3125" font-weight="400" font-style="normal" 
>
</g>

<g fill="#333333" fill-opacity="0.2" stroke="#333333" stroke-opacity="1" stroke-width="1" stroke-linecap="round" stroke-linejoin="round" transform="matrix(0.999995,0,0,-0.999995,0.499997,52169.9)"
font-family="MS Shell Dlg 2" font-size="10.3125" font-weight="400" font-style="normal" 
>
<path vector-effect="non-scaling-stroke" fill-rule="evenodd" d="M27269.8,20576.9 L21026,5580.18 L21902.9,5215.09 L21903,5214.96 L19739.8,19.2916 L19739.6,19.2725 L18862.8,384.362 L18785.9,1.81807 L18786.3,0 L0,0 L0,51480.6 L7575.81,51480.6 L7616.2,51163.2 L7809.84,50824.5 L8526.66,51447.7 L8526.83,51447.7 L12925.3,46388.6 L12925.3,46388.4 L12208.4,45765.2 L25492.2,30486.2 L26209,31109.4 L26209.2,31109.4 L26370.2,30924.2 L26073.3,30655.1 L25647.2,30185 L25269.2,29675.3 L24943,29131 L24671.7,28557.4 L24457.9,27960 L24303.7,27344.4 L24210.6,26716.8 L24179.5,26083 L24210.6,25449.2 L24303.7,24821.5 L24457.9,24206 L24671.7,23608.6 L24943,23035 L25269.2,22490.7 L25647.2,21981 L26073.3,21510.9 L26543.5,21084.7 L27053.2,20706.7 L27269.8,20576.9"/>
</g>

<g fill="none" stroke="#000000" stroke-opacity="1" stroke-width="1" stroke-linecap="square" stroke-linejoin="bevel" transform="matrix(0.999995,0,0,-0.999995,0.499997,52169.9)"
font-family="MS Shell Dlg 2" font-size="10.3125" font-weight="400" font-style="normal" 
>
</g>

<g fill="none" stroke="#000000" stroke-opacity="1" stroke-width="1" stroke-linecap="square" stroke-linejoin="bevel" transform="matrix(0.999995,0,0,-0.999995,0.499997,52169.9)"
font-family="MS Shell Dlg 2" font-size="10.3125" font-weight="400" font-style="normal" 
>
</g>

<g fill="#333333" fill-opacity="0.2" stroke="#333333" stroke-opacity="1" stroke-width="1" stroke-linecap="round" stroke-linejoin="round" transform="matrix(0.999995,0,0,-0.999995,0.499997,52169.9)"
font-family="MS Shell Dlg 2" font-size="10.3125" font-weight="400" font-style="normal" 
>
<path vector-effect="non-scaling-stroke" fill-rule="evenodd" d="M42219.3,51480.6 L60884.2,51480.6 L60884.2,0 L54311,0 L54270.6,317.372 L54077,656.113 L49514.5,5903.89 L48797.7,5280.67 L48797.5,5280.65 L44280.3,10476.3 L44280.4,10476.5 L44997.2,11099.7 L40479.9,16295.5 L39763.1,15672.3 L39762.9,15672.3 L35245.7,20868 L35245.8,20868.1 L35962.6,21491.3 L35589.2,21920.8 L35643.7,21981 L36021.7,22490.7 L36348,23035 L36619.3,23608.6 L36833,24206 L36987.2,24821.5 L37080.3,25449.2 L37111.4,26083 L37080.3,26716.8 L36987.2,27344.4 L36833,27960 L36619.3,28557.4 L36348,29131 L36021.7,29675.3 L35643.7,30185 L35217.6,30655.1 L34747.4,31081.3 L34237.8,31459.3 L33693.5,31785.5 L33175.8,32030.4 L34925.5,36232.9 L34925.6,36232.9 L35802.5,35867.8 L37908.9,40927.1 L37032,41292.2 L37031.9,41292.3 L39138.3,46351.4 L39138.4,46351.4 L40015.3,45986.4 L42142.8,51096.2 L42219.6,51478.8 L42219.3,51480.6"/>
</g>

<g fill="none" stroke="#000000" stroke-opacity="1" stroke-width="1" stroke-linecap="square" stroke-linejoin="bevel" transform="matrix(0.999995,0,0,-0.999995,0.499997,52169.9)"
font-family="MS Shell Dlg 2" font-size="10.3125" font-weight="400" font-style="normal" 
>
</g>

<g fill="none" stroke="#000000" stroke-opacity="1" stroke-width="1" stroke-linecap="square" stroke-linejoin="bevel" transform="matrix(0.999995,0,0,-0.999995,0.499997,52169.9)"
font-family="MS Shell Dlg 2" font-size="10.3125" font-weight="400" font-style="normal" 
>
</g>

<g fill="#333333" fill-opacity="0.2" stroke="#333333" stroke-opacity="1" stroke-width="1" stroke-linecap="round" stroke-linejoin="round" transform="matrix(0.999995,0,0,-0.999995,0.499997,52169.9)"
font-family="MS Shell Dlg 2" font-size="10.3125" font-weight="400" font-style="normal" 
>
<path vector-effect="non-scaling-stroke" fill-rule="evenodd" d="M9889.6,51480.6 L28742.5,51480.6 L28736.7,51444.8 L28919.6,46334.9 L29868.9,46368.9 L29869,46368.9 L30050.2,41309.7 L30050.1,41309.6 L29100.8,41275.6 L29282,36216.4 L30231.2,36250.4 L30231.4,36250.3 L30364.4,32535.2 L30011.7,32517.8 L29384,32424.7 L28768.5,32270.6 L28171,32056.8 L27597.4,31785.5 L27213.1,31555.1 L26957.5,31849 L26240.7,31225.8 L26240.6,31225.7 L21842.1,36284.9 L21842.1,36285.1 L22558.9,36908.3 L18160.3,41967.5 L17443.5,41344.3 L17443.4,41344.3 L13044.9,46403.4 L13044.9,46403.6 L13761.8,47026.8 L9889.6,51480.6"/>
</g>

<g fill="none" stroke="#000000" stroke-opacity="1" stroke-width="1" stroke-linecap="square" stroke-linejoin="bevel" transform="matrix(0.999995,0,0,-0.999995,0.499997,52169.9)"
font-family="MS Shell Dlg 2" font-size="10.3125" font-weight="400" font-style="normal" 
>
</g>

<g fill="none" stroke="#000000" stroke-opacity="1" stroke-width="1" stroke-linecap="square" stroke-linejoin="bevel" transform="matrix(0.999995,0,0,-0.999995,0.499997,52169.9)"
font-family="MS Shell Dlg 2" font-size="10.3125" font-weight="400" font-style="normal" 
>
</g>

<g fill="#333333" fill-opacity="0.2" stroke="#333333" stroke-opacity="1" stroke-width="1" stroke-linecap="round" stroke-linejoin="round" transform="matrix(0.999995,0,0,-0.999995,0.499997,52169.9)"
font-family="MS Shell Dlg 2" font-size="10.3125" font-weight="400" font-style="normal" 
>
<path vector-effect="non-scaling-stroke" fill-rule="evenodd" d="M31416.4,32497.5 L30916.5,46457.1 L29967.3,46423.1 L29967.2,46423.2 L29786,51482.3 L29786.1,51482.4 L30785.2,51518.2 L30785.4,51518.1 L30786.7,51480.6 L40082.3,51480.6 L40250.3,51884.1 L40250.4,51884.1 L41173.3,51499.9 L41173.4,51499.7 L39067.1,46440.6 L39066.9,46440.6 L38190,46805.7 L32174.7,32357.7 L31906.9,32424.7 L31416.4,32497.5"/>
</g>

<g fill="none" stroke="#000000" stroke-opacity="1" stroke-width="1" stroke-linecap="square" stroke-linejoin="bevel" transform="matrix(0.999995,0,0,-0.999995,0.499997,52169.9)"
font-family="MS Shell Dlg 2" font-size="10.3125" font-weight="400" font-style="normal" 
>
</g>

<g fill="none" stroke="#000000" stroke-opacity="1" stroke-width="1" stroke-linecap="square" stroke-linejoin="bevel" transform="matrix(1,0,0,-1,0,52859.3)"
font-family="MS Shell Dlg 2" font-size="10.3125" font-weight="400" font-style="normal" 
>
</g>
</g>
</svg>
