<?xml version="1.0" encoding="UTF-8" standalone="no"?>
<svg width="17748.1mm" height="15481mm"
 xmlns="http://www.w3.org/2000/svg" xmlns:xlink="http://www.w3.org/1999/xlink"  version="1.2" baseProfile="tiny">
<title>SVG Generator Example Drawing</title>
<desc>An SVG drawing created by the SVG Generator</desc>
<defs>
</defs>
<g fill="none" stroke="black" stroke-width="1" fill-rule="evenodd" stroke-linecap="square" stroke-linejoin="bevel" >

<g fill="none" stroke="#000000" stroke-opacity="1" stroke-width="1" stroke-linecap="square" stroke-linejoin="bevel" transform="matrix(1,0,0,-1,0,54854.9)"
font-family="MS Shell Dlg 2" font-size="10.3125" font-weight="400" font-style="normal" 
>
</g>

<g fill="none" stroke="#000000" stroke-opacity="1" stroke-width="1" stroke-linecap="square" stroke-linejoin="bevel" transform="matrix(1,0,0,-1,0,54854.9)"
font-family="MS Shell Dlg 2" font-size="10.3125" font-weight="400" font-style="normal" 
>
</g>

<g fill="none" stroke="#000000" stroke-opacity="1" stroke-width="1" stroke-linecap="square" stroke-linejoin="bevel" transform="matrix(0.999983,0,0,-0.999983,1001.48,53171)"
font-family="MS Shell Dlg 2" font-size="10.3125" font-weight="400" font-style="normal" 
>
</g>

<g fill="#333333" fill-opacity="0.2" stroke="#333333" stroke-opacity="1" stroke-width="1" stroke-linecap="round" stroke-linejoin="round" transform="matrix(0.999983,0,0,-0.999983,1001.48,53171)"
font-family="MS Shell Dlg 2" font-size="10.3125" font-weight="400" font-style="normal" 
>
<path vector-effect="non-scaling-stroke" fill-rule="evenodd" d="M27668,20347 L27667.8,20346.7 L27667.5,20346.6 L27667.1,20346.5 L27666.8,20346.6 L27597,20379.6 L27596.9,20379.7 L27269.3,20576 L27052.6,20705.9 L27052.6,20705.9 L26542.9,21083.9 L26542.8,21084 L26072.7,21510.1 L26072.6,21510.2 L25646.5,21980.4 L25646.4,21980.4 L25268.4,22490.1 L25268.3,22490.2 L24942.1,23034.4 L24942.1,23034.5 L24670.8,23608.1 L24670.7,23608.2 L24457,24205.7 L24456.9,24205.8 L24302.8,24821.3 L24302.7,24821.4 L24209.6,25449.1 L24209.6,25449.2 L24178.5,26082.9 L24178.5,26083 L24209.6,26716.8 L24209.6,26716.9 L24302.7,27344.6 L24302.8,27344.7 L24456.9,27960.2 L24457,27960.3 L24670.7,28557.8 L24670.8,28557.8 L24942.1,29131.5 L24942.1,29131.6 L25268.3,29675.8 L25268.4,29675.9 L25403.5,29858 L25403.8,29858.3 L25404.1,29858.4 L25404.5,29858.4 L25404.9,29858.2 L25492.1,29792.8 L25696.6,29746.7 L25902,29788.5 L26072.3,29911 L26426.6,30301.9 L26426.7,30301.9 L26705.3,30554.5 L26778.6,30620.9 L26893.5,30774.8 L26941.9,30960.6 L26927.2,31072 L26927.2,31072.3 L26927.4,31072.6 L26927.6,31072.9 L27328.1,31421.1 L27447.6,31575.4 L27487,31720.2 L27487.2,31720.5 L27487.5,31720.8 L27596.9,31786.3 L27597,31786.4 L28170.6,32057.7 L28170.7,32057.7 L28768.2,32271.5 L28768.2,32271.5 L28942.4,32315.1 L28942.8,32315.2 L28943.2,32315 L28943.4,32314.8 L28943.6,32314.4 L28969.7,32210.5 L29098.8,32046.5 L29283.6,31949.4 L29492,31936.3 L30060.7,32020.6 L30060.8,32020.7 L30388.9,32036.8 L30487.7,32041.6 L30675.5,32088.3 L30831.5,32202.8 L30932.3,32367.9 L30958.9,32533.7 L30959,32534 L30959.2,32534.3 L30959.5,32534.5 L30959.9,32534.5 L31279.3,32518.8 L31279.4,32518.8 L31416.6,32498.5 L31907.1,32425.7 L31907.2,32425.7 L32174.9,32358.6 L32522.7,32271.5 L32522.8,32271.5 L32617.9,32237.5 L32618.2,32237.3 L32618.4,32237 L32618.5,32236.7 L32618.5,32236.3 L32585.2,32064.8 L32627.9,31868.1 L32744.7,31704.1 L32916.8,31599.5 L32928.7,31595.2 L32928.8,31595.2 L32962.4,31579.3 L33458,31344.9 L33458.1,31344.8 L33763.5,31161.8 L33965.3,31093.7 L34177,31115.7 L34360.4,31223.8 L34426.8,31319 L34427.1,31319.3 L34427.5,31319.4 L34427.9,31319.4 L34428.3,31319.2 L34748,31082.1 L34748.1,31082 L35218.3,30655.9 L35218.3,30655.8 L35644.5,30185.6 L35644.5,30185.6 L36022.5,29675.9 L36022.6,29675.8 L36348.8,29131.6 L36348.9,29131.5 L36620.2,28557.8 L36620.2,28557.8 L36834,27960.3 L36834,27960.2 L36988.2,27344.7 L36988.2,27344.6 L37081.3,26716.9 L37081.3,26716.8 L37112.4,26083 L37112.4,26083 L37112.4,26082.9 L37081.3,25449.2 L37081.3,25449.1 L36988.2,24821.4 L36988.2,24821.3 L36834,24205.8 L36834,24205.7 L36620.2,23608.2 L36620.2,23608.1 L36348.9,23034.5 L36348.8,23034.4 L36022.6,22490.2 L36022.5,22490.1 L35644.5,21980.4 L35644.5,21980.4 L35589.9,21920.2 L35588.3,21918.4 L35588.2,21918.3 L35238.7,21615.1 L35238.3,21614.9 L35237.8,21614.9 L35237.4,21615 L35141.4,21689 L34950.3,21739.5 L34754.6,21712 L34584.8,21610.8 L34511.5,21544.4 L34430.5,21470.9 L34430.4,21470.9 L33960.2,21122.1 L33960.1,21122.1 L33822.5,21039.6 L33665.1,20890.6 L33585.6,20689.1 L33598.8,20472.9 L33658,20363.8 L33658.2,20363.4 L33658.1,20363 L33657.9,20362.7 L33657.6,20362.4 L33120.3,20108.3 L33120.2,20108.3 L32522.8,19894.5 L32522.7,19894.5 L31907.2,19740.3 L31907.1,19740.3 L31279.4,19647.2 L31279.3,19647.2 L30645.5,19616 L30645.4,19616 L30011.6,19647.2 L30011.5,19647.2 L29594.5,19709 L29594.1,19709.2 L29593.8,19709.4 L29593.6,19709.8 L29593.6,19710.2 L29614.5,19825.4 L29561.7,20032 L29427.5,20197.9 L29236.3,20292.7 L28913.5,20373.5 L28913.4,20373.6 L28375.2,20566.1 L28362.3,20570.8 L28362.2,20570.8 L28329.5,20586.2 L28134.3,20633.9 L27936.2,20600.9 L27767,20492.6 L27668,20347 M28554.6,21035.1 L29059.4,20854.5 L29579.5,20724.2 L30109.9,20645.5 L30645.5,20619.2 L31181,20645.5 L31711.4,20724.2 L32231.5,20854.5 L32736.4,21035.1 L33221.1,21264.4 L33681,21540 L34111.6,21859.4 L34174.4,21916.3 L34508.9,22219.5 L34847.5,22593.1 L34869,22616.8 L35188.4,23047.5 L35464.1,23507.4 L35693.3,23992.1 L35874,24496.9 L36004.3,25017.1 L36082.9,25547.5 L36109.2,26083 L36082.9,26618.5 L36004.3,27148.9 L35874,27669 L35693.3,28173.9 L35464.1,28658.6 L35188.4,29118.5 L34869,29549.2 L34508.9,29946.5 L34111.6,30306.6 L33681,30626 L33221.1,30901.6 L32747.8,31125.5 L32736.4,31130.9 L32231.5,31311.5 L31931.5,31386.7 L31711.4,31441.8 L31269.5,31507.3 L31181,31520.5 L30645.5,31546.8 L30413.5,31535.4 L30109.9,31520.5 L29579.5,31441.8 L29059.4,31311.5 L28554.6,31130.9 L28069.9,30901.6 L27727.7,30696.5 L27610,30626 L27179.3,30306.6 L27042.4,30182.5 L26782,29946.5 L26421.9,29549.2 L26102.5,29118.5 L25826.9,28658.6 L25597.6,28173.9 L25417,27669 L25286.7,27148.9 L25208,26618.5 L25181.7,26083 L25208,25547.5 L25286.7,25017.1 L25417,24496.9 L25597.6,23992.1 L25826.9,23507.4 L26102.5,23047.5 L26421.9,22616.8 L26782,22219.5 L27179.3,21859.4 L27610,21540 L27784.4,21435.5 L28069.9,21264.4 L28554.6,21035.1"/>
</g>

<g fill="none" stroke="#000000" stroke-opacity="1" stroke-width="1" stroke-linecap="square" stroke-linejoin="bevel" transform="matrix(0.999983,0,0,-0.999983,1001.48,53171)"
font-family="MS Shell Dlg 2" font-size="10.3125" font-weight="400" font-style="normal" 
>
</g>

<g fill="none" stroke="#000000" stroke-opacity="1" stroke-width="1" stroke-linecap="square" stroke-linejoin="bevel" transform="matrix(0.999983,0,0,-0.999983,1001.48,53171)"
font-family="MS Shell Dlg 2" font-size="10.3125" font-weight="400" font-style="normal" 
>
</g>

<g fill="#333333" fill-opacity="0.2" stroke="#333333" stroke-opacity="1" stroke-width="1" stroke-linecap="round" stroke-linejoin="round" transform="matrix(0.999983,0,0,-0.999983,1001.48,53171)"
font-family="MS Shell Dlg 2" font-size="10.3125" font-weight="400" font-style="normal" 
>
<path vector-effect="non-scaling-stroke" fill-rule="evenodd" d="M40807,15919 L40807.3,15919.2 L40807.6,15919.3 L40808,15919.3 L40808.3,15919.2 L40808.6,15919 L44670,11477.5 L44670.3,11477.2 L44670.3,11476.7 L44670.1,11476.3 L44669.8,11476 L44669,11475.6 L43953,10853.1 L43878.2,10788.1 L43758.8,10633.8 L43707.5,10445.6 L43732.1,10252.1 L43828.5,10083.3 L43828.6,10082.9 L43828.5,10082.5 L43828.3,10082.1 L43488.5,9786.72 L43488.2,9786.53 L43487.8,9786.48 L43487.4,9786.58 L43487.1,9786.82 L38969.8,14982.6 L38969.6,14983 L38969.6,14983.4 L38969.7,14983.7 L38969.9,14984 L39309.7,15279.4 L39310.1,15279.6 L39310.5,15279.7 L39310.9,15279.5 L39464.6,15160.5 L39652.8,15109.2 L39846.3,15133.9 L40015.7,15230.7 L40090.5,15295.7 L40806.5,15918.2 L40807,15919"/>
</g>

<g fill="none" stroke="#000000" stroke-opacity="1" stroke-width="1" stroke-linecap="square" stroke-linejoin="bevel" transform="matrix(0.999983,0,0,-0.999983,1001.48,53171)"
font-family="MS Shell Dlg 2" font-size="10.3125" font-weight="400" font-style="normal" 
>
</g>

<g fill="none" stroke="#000000" stroke-opacity="1" stroke-width="1" stroke-linecap="square" stroke-linejoin="bevel" transform="matrix(0.999983,0,0,-0.999983,1001.48,53171)"
font-family="MS Shell Dlg 2" font-size="10.3125" font-weight="400" font-style="normal" 
>
</g>

<g fill="#333333" fill-opacity="0.2" stroke="#333333" stroke-opacity="1" stroke-width="1" stroke-linecap="round" stroke-linejoin="round" transform="matrix(0.999983,0,0,-0.999983,1001.48,53171)"
font-family="MS Shell Dlg 2" font-size="10.3125" font-weight="400" font-style="normal" 
>
<path vector-effect="non-scaling-stroke" fill-rule="evenodd" d="M25373.2,16024.2 L25373.4,16024.5 L25373.8,16024.7 L25374.1,16024.8 L25374.5,16024.7 L25790.1,15851.7 L25790.5,15851.4 L25790.7,15851 L25790.7,15850.5 L25752.5,15660.1 L25790.2,15468.7 L25898.3,15306.3 L26060.4,15197.5 L26151.8,15159.5 L27027.7,14794.8 L27028.6,14794.6 L27028.9,14794.5 L27029.2,14794.3 L27029.4,14793.9 L27029.4,14793.6 L27029.3,14793.3 L25250.3,10520.3 L25250,10519.9 L25249.7,10519.7 L25249.2,10519.6 L25248.8,10519.8 L25248,10520.3 L24372.2,10885 L24280.7,10923.1 L24089.4,10961.5 L23898,10923.8 L23735.6,10815.7 L23627.3,10654.4 L23627,10654.1 L23626.6,10653.9 L23626.1,10654 L23210.5,10827 L23210.2,10827.2 L23210,10827.6 L23209.9,10828 L23210,10828.3 L25373.2,16024.2"/>
</g>

<g fill="none" stroke="#000000" stroke-opacity="1" stroke-width="1" stroke-linecap="square" stroke-linejoin="bevel" transform="matrix(0.999983,0,0,-0.999983,1001.48,53171)"
font-family="MS Shell Dlg 2" font-size="10.3125" font-weight="400" font-style="normal" 
>
</g>

<g fill="none" stroke="#000000" stroke-opacity="1" stroke-width="1" stroke-linecap="square" stroke-linejoin="bevel" transform="matrix(0.999983,0,0,-0.999983,1001.48,53171)"
font-family="MS Shell Dlg 2" font-size="10.3125" font-weight="400" font-style="normal" 
>
</g>

<g fill="#333333" fill-opacity="0.2" stroke="#333333" stroke-opacity="1" stroke-width="1" stroke-linecap="round" stroke-linejoin="round" transform="matrix(0.999983,0,0,-0.999983,1001.48,53171)"
font-family="MS Shell Dlg 2" font-size="10.3125" font-weight="400" font-style="normal" 
>
<path vector-effect="non-scaling-stroke" fill-rule="evenodd" d="M8039.69,52350.7 L8700.03,52924.8 L8700.14,52924.9 L8948.16,53083.2 L8948.43,53083.3 L9231.78,53162.6 L9231.92,53162.6 L9232.09,53162.6 L9232.15,53162.6 L9356.9,53170.4 L9357.18,53170.4 L9771.84,53080.4 L9772.22,53080.2 L10112.2,52826.3 L10112.4,52826.2 L10412,52481.6 L28742.5,52481.6 L28742.7,52481.6 L28879.2,52451.5 L29650.1,52479.2 L29750.3,52482.7 L30749.4,52518.5 L30749.6,52518.5 L30933.1,52481.6 L39463.3,52481.6 L39518.4,52567 L39518.7,52567.3 L39802.8,52779.5 L39803.1,52779.6 L40143.4,52879.4 L40143.5,52879.4 L40143.7,52879.4 L40143.8,52879.4 L40250.4,52885.1 L40250.6,52885.1 L40635,52808.3 L40635.2,52808.2 L41282.6,52538.7 L41558.1,52424 L41742.4,52347.2 L41791.5,52385.6 L41791.9,52385.7 L42219.1,52481.6 L42219.3,52481.6 L60884.2,52481.6 L60884.4,52481.6 L61267,52405.4 L61267.4,52405.3 L61591.8,52188.5 L61592.1,52188.2 L61808.9,51863.8 L61809,51863.5 L61885.1,51480.8 L61885.2,51480.6 L61885.2,0 L61885.1,-0.19509 L61809,-382.879 L61808.9,-383.239 L61592.1,-707.662 L61591.8,-707.938 L61267.4,-924.711 L61267,-924.86 L60884.4,-1000.98 L60884.2,-1001 L54311,-1001 L54310.9,-1000.98 L53957.6,-936.511 L53957.3,-936.384 L53847.1,-870.142 L53186.8,-1444.24 L53186.7,-1444.33 L52933,-1605.12 L52932.7,-1605.24 L52642.8,-1683.45 L52642.6,-1683.48 L52642.4,-1683.5 L52642.2,-1683.49 L52167,-1621.72 L52166.5,-1621.55 L51774.6,-1345.78 L51774.5,-1345.61 L51474.8,-1001 L21542.8,-1001 L21489.7,-1083.66 L21489.5,-1083.92 L21209.5,-1295.49 L21209.2,-1295.65 L20873.4,-1397.5 L20873.3,-1397.53 L20873.1,-1397.55 L20872.9,-1397.55 L20403.9,-1340.85 L20403.7,-1340.79 L20370.4,-1327.64 L20370.4,-1327.63 L20113.7,-1220.75 L19447.5,-943.378 L19354.9,-904.833 L19263.2,-866.661 L19214.1,-904.972 L19213.7,-905.159 L18786.5,-1000.98 L18786.3,-1001 L0,-1001 L-0.19509,-1000.98 L-382.879,-924.86 L-383.239,-924.711 L-707.662,-707.938 L-707.938,-707.662 L-924.711,-383.239 L-924.86,-382.879 L-1000.98,-0.19509 L-1001,0 L-1001,51480.6 L-1000.98,51480.8 L-924.86,51863.5 L-924.711,51863.8 L-707.938,52188.2 L-707.662,52188.5 L-383.239,52405.3 L-382.879,52405.4 L-0.19509,52481.6 L0,52481.6 L7575.81,52481.6 L7575.99,52481.6 L7929.24,52417.1 L7929.58,52417 L8039.69,52350.7 M9356.8,52168.1 L8980.08,51840.6 L8979.67,51840.4 L8979.22,51840.3 L8978.81,51840.5 L8825.2,51959.4 L8636.98,52010.7 L8443.46,51986.1 L8274.01,51889.2 L8199.26,51824.3 L7599.04,51302.4 L7598.74,51302.2 L7598.38,51302.2 L7598.03,51302.2 L7597.73,51302.4 L7597.5,51302.7 L7597.4,51303.1 L7574.93,51479.6 L1,51479.6 L1,1 L18555.8,1 L18556.1,0.95668 L18556.4,0.83046 L18672,-76.7277 L19547.8,-441.395 L19639.3,-479.464 L19830.6,-517.89 L20022,-480.199 L20184.4,-372.146 L20292.7,-210.773 L20293,-210.464 L20293.5,-210.333 L20293.9,-210.407 L20498.8,-295.722 L20754.7,-402.273 L20922.4,0.38436 L20922.6,0.70796 L20922.9,0.92411 L20923.3,1 L51332.7,1 L51333.1,0.90992 L51333.4,0.65591 L51457.4,-142.043 L51457.6,-142.556 L51460.9,-165.181 L51555.9,-329.129 L52152.6,-1015.49 L52307,-1134.97 L52495.2,-1186.27 L52688.7,-1161.64 L52858.2,-1064.77 L53611.9,-409.475 L53686.6,-344.492 L53806.1,-190.173 L53857.4,-1.9785 L53832.8,191.525 L53736.4,360.246 L53736.3,360.681 L53736.3,361.129 L53736.6,361.497 L54076.3,656.867 L54076.7,657.076 L54077.2,657.099 L54077.6,656.933 L54077.9,656.609 L54271.5,317.868 L54271.6,317.498 L54311.9,1 L60883.2,1 L60883.2,51479.6 L42220.5,51479.6 L42220.6,51479 L42220.6,51478.6 L42143.8,51096 L42143.7,51095.8 L42143.5,51095.5 L42143.2,51095.3 L42142.8,51095.2 L42142.4,51095.3 L41726.8,51268.3 L41726.4,51268.6 L41726.2,51269 L41726.2,51269.5 L41764.5,51459.9 L41726.8,51651.3 L41618.7,51813.7 L41456.6,51922.5 L41365.1,51960.5 L41089.6,52075.2 L40443.1,52344.4 L40251.7,52382.8 L40060.3,52345.1 L39897.9,52237 L39789.2,52074.9 L39622.2,51673.9 L39583.8,51484.9 L39584.6,51480.8 L39584.6,51480.3 L39584.4,51479.9 L39584,51479.7 L39583.6,51479.6 L31283.2,51479.6 L31282.8,51479.7 L31282.4,51479.9 L31282.2,51480.3 L31282.2,51480.8 L31285.3,51499.6 L31284.1,51534.9 L31239.2,51724.9 L31125,51883.1 L30959.1,51985.6 L30766.4,52016.8 L29768.3,51981.1 L29669.3,51977.5 L29479.4,51932.6 L29321.2,51818.5 L29218.6,51652.6 L29187.5,51460.8 L29187.4,51460.3 L29187,51460 L29186.6,51459.9 L28736.7,51443.8 L28736.3,51443.9 L28736,51444.1 L28735.8,51444.4 L28735.7,51444.8 L28735.7,51445 L28741.3,51479.6 L9955.85,51479.6 L9955.44,51479.7 L9955.1,51479.9 L9356.8,52168.1"/>
</g>

<g fill="none" stroke="#000000" stroke-opacity="1" stroke-width="1" stroke-linecap="square" stroke-linejoin="bevel" transform="matrix(0.999983,0,0,-0.999983,1001.48,53171)"
font-family="MS Shell Dlg 2" font-size="10.3125" font-weight="400" font-style="normal" 
>
</g>

<g fill="none" stroke="#000000" stroke-opacity="1" stroke-width="1" stroke-linecap="square" stroke-linejoin="bevel" transform="matrix(0.999983,0,0,-0.999983,1001.48,53171)"
font-family="MS Shell Dlg 2" font-size="10.3125" font-weight="400" font-style="normal" 
>
</g>

<g fill="#333333" fill-opacity="0.2" stroke="#333333" stroke-opacity="1" stroke-width="1" stroke-linecap="round" stroke-linejoin="round" transform="matrix(0.999983,0,0,-0.999983,1001.48,53171)"
font-family="MS Shell Dlg 2" font-size="10.3125" font-weight="400" font-style="normal" 
>
<path vector-effect="non-scaling-stroke" fill-rule="evenodd" d="M18487.5,41591 L18487.8,41591.3 L18488.2,41591.4 L18488.7,41591.3 L18489,41591 L22231.8,37286.1 L22232,37285.7 L22232,37285.3 L22231.8,37284.9 L22231.5,37284.6 L22230.7,37284.1 L21514.7,36661.6 L21440,36596.6 L21320.5,36442.3 L21269.2,36254.1 L21293.8,36060.6 L21390.2,35891.9 L21390.4,35891.5 L21390.3,35891 L21390,35890.7 L21050.3,35595.3 L21049.9,35595.1 L21049.6,35595 L21049.2,35595.1 L21048.9,35595.4 L18423.1,38615.6 L16650.3,40654.7 L16650.1,40655 L16650,40655.4 L16650.1,40655.8 L16650.4,40656.1 L16990.1,40951.5 L16990.4,40951.6 L16990.7,40951.7 L16991.1,40951.7 L16991.4,40951.5 L17145,40832.6 L17333.2,40781.3 L17526.7,40805.9 L17696.2,40902.8 L17770.9,40967.8 L18486.9,41590.2 L18487.5,41591"/>
</g>

<g fill="none" stroke="#000000" stroke-opacity="1" stroke-width="1" stroke-linecap="square" stroke-linejoin="bevel" transform="matrix(0.999983,0,0,-0.999983,1001.48,53171)"
font-family="MS Shell Dlg 2" font-size="10.3125" font-weight="400" font-style="normal" 
>
</g>

<g fill="none" stroke="#000000" stroke-opacity="1" stroke-width="1" stroke-linecap="square" stroke-linejoin="bevel" transform="matrix(0.999983,0,0,-0.999983,1001.48,53171)"
font-family="MS Shell Dlg 2" font-size="10.3125" font-weight="400" font-style="normal" 
>
</g>

<g fill="#333333" fill-opacity="0.2" stroke="#333333" stroke-opacity="1" stroke-width="1" stroke-linecap="round" stroke-linejoin="round" transform="matrix(0.999983,0,0,-0.999983,1001.48,53171)"
font-family="MS Shell Dlg 2" font-size="10.3125" font-weight="400" font-style="normal" 
>
<path vector-effect="non-scaling-stroke" fill-rule="evenodd" d="M31281.7,36288 L31281.6,36287.6 L31281.4,36287.3 L31281.1,36287 L31280.7,36286.9 L30830.8,36270.8 L30830.4,36270.9 L30830,36271.2 L30829.8,36271.6 L30785.1,36460.6 L30671,36618.9 L30505,36721.4 L30312.3,36752.6 L30213.4,36749 L29265.2,36715.1 L29264.3,36714.9 L29263.9,36714.9 L29263.5,36715.1 L29263.2,36715.4 L29263.1,36715.8 L29117.7,40776.1 L29117.7,40776.5 L29117.9,40776.8 L29118.2,40777 L29118.5,40777.1 L29118.8,40777.2 L29119.8,40777 L30067.9,40811 L30166.9,40814.5 L30356.8,40859.4 L30515,40973.5 L30617.5,41139.4 L30648.6,41331.3 L30648.8,41331.7 L30649.2,41332 L30649.6,41332.1 L31099.5,41348.2 L31099.9,41348.2 L31100.2,41348 L31100.4,41347.6 L31100.5,41347.3 L31137.1,40325.1 L31281.7,36288"/>
</g>

<g fill="none" stroke="#000000" stroke-opacity="1" stroke-width="1" stroke-linecap="square" stroke-linejoin="bevel" transform="matrix(0.999983,0,0,-0.999983,1001.48,53171)"
font-family="MS Shell Dlg 2" font-size="10.3125" font-weight="400" font-style="normal" 
>
</g>

<g fill="none" stroke="#000000" stroke-opacity="1" stroke-width="1" stroke-linecap="square" stroke-linejoin="bevel" transform="matrix(0.999983,0,0,-0.999983,1001.48,53171)"
font-family="MS Shell Dlg 2" font-size="10.3125" font-weight="400" font-style="normal" 
>
</g>

<g fill="#333333" fill-opacity="0.2" stroke="#333333" stroke-opacity="1" stroke-width="1" stroke-linecap="round" stroke-linejoin="round" transform="matrix(0.999983,0,0,-0.999983,1001.48,53171)"
font-family="MS Shell Dlg 2" font-size="10.3125" font-weight="400" font-style="normal" 
>
<path vector-effect="non-scaling-stroke" fill-rule="evenodd" d="M36061.6,41696.2 L36061.9,41696.5 L36062.2,41696.7 L36062.6,41696.8 L36063,41696.7 L36478.6,41523.7 L36478.9,41523.4 L36479.2,41523 L36479.2,41522.6 L36440.9,41332.1 L36478.6,41140.7 L36586.7,40978.3 L36748.8,40869.6 L36840.2,40831.5 L37716.1,40466.8 L37717,40466.6 L37717.4,40466.5 L37717.7,40466.1 L37717.8,40465.7 L37717.8,40465.3 L35995.6,36328.8 L35995.4,36328.5 L35995.1,36328.3 L35994.7,36328.2 L35994.4,36328.2 L35994.1,36328.4 L35993.3,36328.9 L35117.4,36693.5 L35026,36731.6 L34834.6,36770 L34643.2,36732.3 L34480.8,36624.2 L34372.6,36462.9 L34372.4,36462.7 L34372.1,36462.5 L34371.7,36462.5 L34371.4,36462.6 L33955.8,36635.6 L33955.5,36635.8 L33955.2,36636.1 L33955.2,36636.5 L33955.2,36636.9 L36061.6,41696.2"/>
</g>

<g fill="none" stroke="#000000" stroke-opacity="1" stroke-width="1" stroke-linecap="square" stroke-linejoin="bevel" transform="matrix(0.999983,0,0,-0.999983,1001.48,53171)"
font-family="MS Shell Dlg 2" font-size="10.3125" font-weight="400" font-style="normal" 
>
</g>

<g fill="none" stroke="#000000" stroke-opacity="1" stroke-width="1" stroke-linecap="square" stroke-linejoin="bevel" transform="matrix(0.999983,0,0,-0.999983,1001.48,53171)"
font-family="MS Shell Dlg 2" font-size="10.3125" font-weight="400" font-style="normal" 
>
</g>

<g fill="#ae5151" fill-opacity="0.2" stroke="#333333" stroke-opacity="1" stroke-width="1" stroke-linecap="round" stroke-linejoin="round" transform="matrix(0.999983,0,0,-0.999983,1001.48,53171)"
font-family="MS Shell Dlg 2" font-size="10.3125" font-weight="400" font-style="normal" 
>
<path vector-effect="non-scaling-stroke" fill-rule="evenodd" d="M27668,20347 L27667.8,20346.7 L27667.5,20346.6 L27667.1,20346.5 L27666.8,20346.6 L27597,20379.6 L27596.9,20379.7 L27269.3,20576 L27052.6,20705.9 L27052.6,20705.9 L26542.9,21083.9 L26542.8,21084 L26072.7,21510.1 L26072.6,21510.2 L25646.5,21980.4 L25646.4,21980.4 L25268.4,22490.1 L25268.3,22490.2 L24942.1,23034.4 L24942.1,23034.5 L24670.8,23608.1 L24670.7,23608.2 L24457,24205.7 L24456.9,24205.8 L24302.8,24821.3 L24302.7,24821.4 L24209.6,25449.1 L24209.6,25449.2 L24178.5,26082.9 L24178.5,26083 L24209.6,26716.8 L24209.6,26716.9 L24302.7,27344.6 L24302.8,27344.7 L24456.9,27960.2 L24457,27960.3 L24670.7,28557.8 L24670.8,28557.8 L24942.1,29131.5 L24942.1,29131.6 L25268.3,29675.8 L25268.4,29675.9 L25403.5,29858 L25403.8,29858.3 L25404.1,29858.4 L25404.5,29858.4 L25404.9,29858.2 L25492.1,29792.8 L25696.6,29746.7 L25902,29788.5 L26072.3,29911 L26426.6,30301.9 L26426.7,30301.9 L26705.3,30554.5 L26778.6,30620.9 L26893.5,30774.8 L26941.9,30960.6 L26927.2,31072 L26927.2,31072.3 L26927.4,31072.6 L26927.6,31072.9 L27328.1,31421.1 L27447.6,31575.4 L27487,31720.2 L27487.2,31720.5 L27487.5,31720.8 L27596.9,31786.3 L27597,31786.4 L28170.6,32057.7 L28170.7,32057.7 L28768.2,32271.5 L28768.2,32271.5 L28942.4,32315.1 L28942.8,32315.2 L28943.2,32315 L28943.4,32314.8 L28943.6,32314.4 L28969.7,32210.5 L29098.8,32046.5 L29283.6,31949.4 L29492,31936.3 L30060.7,32020.6 L30060.8,32020.7 L30388.9,32036.8 L30487.7,32041.6 L30675.5,32088.3 L30831.5,32202.8 L30932.3,32367.9 L30958.9,32533.7 L30959,32534 L30959.2,32534.3 L30959.5,32534.5 L30959.9,32534.5 L31279.3,32518.8 L31279.4,32518.8 L31416.6,32498.5 L31907.1,32425.7 L31907.2,32425.7 L32174.9,32358.6 L32522.7,32271.5 L32522.8,32271.5 L32617.9,32237.5 L32618.2,32237.3 L32618.4,32237 L32618.5,32236.7 L32618.5,32236.3 L32585.2,32064.8 L32627.9,31868.1 L32744.7,31704.1 L32916.8,31599.5 L32928.7,31595.2 L32928.8,31595.2 L32962.4,31579.3 L33458,31344.9 L33458.1,31344.8 L33763.5,31161.8 L33965.3,31093.7 L34177,31115.7 L34360.4,31223.8 L34426.8,31319 L34427.1,31319.3 L34427.5,31319.4 L34427.9,31319.4 L34428.3,31319.2 L34748,31082.1 L34748.1,31082 L35218.3,30655.9 L35218.3,30655.8 L35644.5,30185.6 L35644.5,30185.6 L36022.5,29675.9 L36022.6,29675.8 L36348.8,29131.6 L36348.9,29131.5 L36620.2,28557.8 L36620.2,28557.8 L36834,27960.3 L36834,27960.2 L36988.2,27344.7 L36988.2,27344.6 L37081.3,26716.9 L37081.3,26716.8 L37112.4,26083 L37112.4,26083 L37112.4,26082.9 L37081.3,25449.2 L37081.3,25449.1 L36988.2,24821.4 L36988.2,24821.3 L36834,24205.8 L36834,24205.7 L36620.2,23608.2 L36620.2,23608.1 L36348.9,23034.5 L36348.8,23034.4 L36022.6,22490.2 L36022.5,22490.1 L35644.5,21980.4 L35644.5,21980.4 L35589.9,21920.2 L35588.3,21918.4 L35588.2,21918.3 L35238.7,21615.1 L35238.3,21614.9 L35237.8,21614.9 L35237.4,21615 L35141.4,21689 L34950.3,21739.5 L34754.6,21712 L34584.8,21610.8 L34511.5,21544.4 L34430.5,21470.9 L34430.4,21470.9 L33960.2,21122.1 L33960.1,21122.1 L33822.5,21039.6 L33665.1,20890.6 L33585.6,20689.1 L33598.8,20472.9 L33658,20363.8 L33658.2,20363.4 L33658.1,20363 L33657.9,20362.7 L33657.6,20362.4 L33120.3,20108.3 L33120.2,20108.3 L32522.8,19894.5 L32522.7,19894.5 L31907.2,19740.3 L31907.1,19740.3 L31279.4,19647.2 L31279.3,19647.2 L30645.5,19616 L30645.4,19616 L30011.6,19647.2 L30011.5,19647.2 L29594.5,19709 L29594.1,19709.2 L29593.8,19709.4 L29593.6,19709.8 L29593.6,19710.2 L29614.5,19825.4 L29561.7,20032 L29427.5,20197.9 L29236.3,20292.7 L28913.5,20373.5 L28913.4,20373.6 L28375.2,20566.1 L28362.3,20570.8 L28362.2,20570.8 L28329.5,20586.2 L28134.3,20633.9 L27936.2,20600.9 L27767,20492.6 L27668,20347 M28554.6,21035.1 L29059.4,20854.5 L29579.5,20724.2 L30109.9,20645.5 L30645.5,20619.2 L31181,20645.5 L31711.4,20724.2 L32231.5,20854.5 L32736.4,21035.1 L33221.1,21264.4 L33681,21540 L34111.6,21859.4 L34174.4,21916.3 L34508.9,22219.5 L34847.5,22593.1 L34869,22616.8 L35188.4,23047.5 L35464.1,23507.4 L35693.3,23992.1 L35874,24496.9 L36004.3,25017.1 L36082.9,25547.5 L36109.2,26083 L36082.9,26618.5 L36004.3,27148.9 L35874,27669 L35693.3,28173.9 L35464.1,28658.6 L35188.4,29118.5 L34869,29549.2 L34508.9,29946.5 L34111.6,30306.6 L33681,30626 L33221.1,30901.6 L32747.8,31125.5 L32736.4,31130.9 L32231.5,31311.5 L31931.5,31386.7 L31711.4,31441.8 L31269.5,31507.3 L31181,31520.5 L30645.5,31546.8 L30413.5,31535.4 L30109.9,31520.5 L29579.5,31441.8 L29059.4,31311.5 L28554.6,31130.9 L28069.9,30901.6 L27727.7,30696.5 L27610,30626 L27179.3,30306.6 L27042.4,30182.5 L26782,29946.5 L26421.9,29549.2 L26102.5,29118.5 L25826.9,28658.6 L25597.6,28173.9 L25417,27669 L25286.7,27148.9 L25208,26618.5 L25181.7,26083 L25208,25547.5 L25286.7,25017.1 L25417,24496.9 L25597.6,23992.1 L25826.9,23507.4 L26102.5,23047.5 L26421.9,22616.8 L26782,22219.5 L27179.3,21859.4 L27610,21540 L27784.4,21435.5 L28069.9,21264.4 L28554.6,21035.1"/>
</g>

<g fill="none" stroke="#000000" stroke-opacity="1" stroke-width="1" stroke-linecap="square" stroke-linejoin="bevel" transform="matrix(0.999983,0,0,-0.999983,1001.48,53171)"
font-family="MS Shell Dlg 2" font-size="10.3125" font-weight="400" font-style="normal" 
>
</g>

<g fill="none" stroke="#000000" stroke-opacity="1" stroke-width="1" stroke-linecap="square" stroke-linejoin="bevel" transform="matrix(0.999983,0,0,-0.999983,1001.48,53171)"
font-family="MS Shell Dlg 2" font-size="10.3125" font-weight="400" font-style="normal" 
>
</g>

<g fill="#ae5151" fill-opacity="0.2" stroke="#333333" stroke-opacity="1" stroke-width="1" stroke-linecap="round" stroke-linejoin="round" transform="matrix(0.999983,0,0,-0.999983,1001.48,53171)"
font-family="MS Shell Dlg 2" font-size="10.3125" font-weight="400" font-style="normal" 
>
<path vector-effect="non-scaling-stroke" fill-rule="evenodd" d="M40807,15919 L40807.3,15919.2 L40807.6,15919.3 L40808,15919.3 L40808.3,15919.2 L40808.6,15919 L44670,11477.5 L44670.3,11477.2 L44670.3,11476.7 L44670.1,11476.3 L44669.8,11476 L44669,11475.6 L43953,10853.1 L43878.2,10788.1 L43758.8,10633.8 L43707.5,10445.6 L43732.1,10252.1 L43828.5,10083.3 L43828.6,10082.9 L43828.5,10082.5 L43828.3,10082.1 L43488.5,9786.72 L43488.2,9786.53 L43487.8,9786.48 L43487.4,9786.58 L43487.1,9786.82 L38969.8,14982.6 L38969.6,14983 L38969.6,14983.4 L38969.7,14983.7 L38969.9,14984 L39309.7,15279.4 L39310.1,15279.6 L39310.5,15279.7 L39310.9,15279.5 L39464.6,15160.5 L39652.8,15109.2 L39846.3,15133.9 L40015.7,15230.7 L40090.5,15295.7 L40806.5,15918.2 L40807,15919"/>
</g>

<g fill="none" stroke="#000000" stroke-opacity="1" stroke-width="1" stroke-linecap="square" stroke-linejoin="bevel" transform="matrix(0.999983,0,0,-0.999983,1001.48,53171)"
font-family="MS Shell Dlg 2" font-size="10.3125" font-weight="400" font-style="normal" 
>
</g>

<g fill="none" stroke="#000000" stroke-opacity="1" stroke-width="1" stroke-linecap="square" stroke-linejoin="bevel" transform="matrix(0.999983,0,0,-0.999983,1001.48,53171)"
font-family="MS Shell Dlg 2" font-size="10.3125" font-weight="400" font-style="normal" 
>
</g>

<g fill="#ae5151" fill-opacity="0.2" stroke="#333333" stroke-opacity="1" stroke-width="1" stroke-linecap="round" stroke-linejoin="round" transform="matrix(0.999983,0,0,-0.999983,1001.48,53171)"
font-family="MS Shell Dlg 2" font-size="10.3125" font-weight="400" font-style="normal" 
>
<path vector-effect="non-scaling-stroke" fill-rule="evenodd" d="M25373.2,16024.2 L25373.4,16024.5 L25373.8,16024.7 L25374.1,16024.8 L25374.5,16024.7 L25790.1,15851.7 L25790.5,15851.4 L25790.7,15851 L25790.7,15850.5 L25752.5,15660.1 L25790.2,15468.7 L25898.3,15306.3 L26060.4,15197.5 L26151.8,15159.5 L27027.7,14794.8 L27028.6,14794.6 L27028.9,14794.5 L27029.2,14794.3 L27029.4,14793.9 L27029.4,14793.6 L27029.3,14793.3 L25250.3,10520.3 L25250,10519.9 L25249.7,10519.7 L25249.2,10519.6 L25248.8,10519.8 L25248,10520.3 L24372.2,10885 L24280.7,10923.1 L24089.4,10961.5 L23898,10923.8 L23735.6,10815.7 L23627.3,10654.4 L23627,10654.1 L23626.6,10653.9 L23626.1,10654 L23210.5,10827 L23210.2,10827.2 L23210,10827.6 L23209.9,10828 L23210,10828.3 L25373.2,16024.2"/>
</g>

<g fill="none" stroke="#000000" stroke-opacity="1" stroke-width="1" stroke-linecap="square" stroke-linejoin="bevel" transform="matrix(0.999983,0,0,-0.999983,1001.48,53171)"
font-family="MS Shell Dlg 2" font-size="10.3125" font-weight="400" font-style="normal" 
>
</g>

<g fill="none" stroke="#000000" stroke-opacity="1" stroke-width="1" stroke-linecap="square" stroke-linejoin="bevel" transform="matrix(0.999983,0,0,-0.999983,1001.48,53171)"
font-family="MS Shell Dlg 2" font-size="10.3125" font-weight="400" font-style="normal" 
>
</g>

<g fill="#ae5151" fill-opacity="0.2" stroke="#333333" stroke-opacity="1" stroke-width="1" stroke-linecap="round" stroke-linejoin="round" transform="matrix(0.999983,0,0,-0.999983,1001.48,53171)"
font-family="MS Shell Dlg 2" font-size="10.3125" font-weight="400" font-style="normal" 
>
<path vector-effect="non-scaling-stroke" fill-rule="evenodd" d="M8039.69,52350.7 L8700.03,52924.8 L8700.14,52924.9 L8948.16,53083.2 L8948.43,53083.3 L9231.78,53162.6 L9231.92,53162.6 L9232.09,53162.6 L9232.15,53162.6 L9356.9,53170.4 L9357.18,53170.4 L9771.84,53080.4 L9772.22,53080.2 L10112.2,52826.3 L10112.4,52826.2 L10412,52481.6 L28742.5,52481.6 L28742.7,52481.6 L28879.2,52451.5 L29650.1,52479.2 L29750.3,52482.7 L30749.4,52518.5 L30749.6,52518.5 L30933.1,52481.6 L39463.3,52481.6 L39518.4,52567 L39518.7,52567.3 L39802.8,52779.5 L39803.1,52779.6 L40143.4,52879.4 L40143.5,52879.4 L40143.7,52879.4 L40143.8,52879.4 L40250.4,52885.1 L40250.6,52885.1 L40635,52808.3 L40635.2,52808.2 L41282.6,52538.7 L41558.1,52424 L41742.4,52347.2 L41791.5,52385.6 L41791.9,52385.7 L42219.1,52481.6 L42219.3,52481.6 L60884.2,52481.6 L60884.4,52481.6 L61267,52405.4 L61267.4,52405.3 L61591.8,52188.5 L61592.1,52188.2 L61808.9,51863.8 L61809,51863.5 L61885.1,51480.8 L61885.2,51480.6 L61885.2,0 L61885.1,-0.19509 L61809,-382.879 L61808.9,-383.239 L61592.1,-707.662 L61591.8,-707.938 L61267.4,-924.711 L61267,-924.86 L60884.4,-1000.98 L60884.2,-1001 L54311,-1001 L54310.9,-1000.98 L53957.6,-936.511 L53957.3,-936.384 L53847.1,-870.142 L53186.8,-1444.24 L53186.7,-1444.33 L52933,-1605.12 L52932.7,-1605.24 L52642.8,-1683.45 L52642.6,-1683.48 L52642.4,-1683.5 L52642.2,-1683.49 L52167,-1621.72 L52166.5,-1621.55 L51774.6,-1345.78 L51774.5,-1345.61 L51474.8,-1001 L21542.8,-1001 L21489.7,-1083.66 L21489.5,-1083.92 L21209.5,-1295.49 L21209.2,-1295.65 L20873.4,-1397.5 L20873.3,-1397.53 L20873.1,-1397.55 L20872.9,-1397.55 L20403.9,-1340.85 L20403.7,-1340.79 L20370.4,-1327.64 L20370.4,-1327.63 L20113.7,-1220.75 L19447.5,-943.378 L19354.9,-904.833 L19263.2,-866.661 L19214.1,-904.972 L19213.7,-905.159 L18786.5,-1000.98 L18786.3,-1001 L0,-1001 L-0.19509,-1000.98 L-382.879,-924.86 L-383.239,-924.711 L-707.662,-707.938 L-707.938,-707.662 L-924.711,-383.239 L-924.86,-382.879 L-1000.98,-0.19509 L-1001,0 L-1001,51480.6 L-1000.98,51480.8 L-924.86,51863.5 L-924.711,51863.8 L-707.938,52188.2 L-707.662,52188.5 L-383.239,52405.3 L-382.879,52405.4 L-0.19509,52481.6 L0,52481.6 L7575.81,52481.6 L7575.99,52481.6 L7929.24,52417.1 L7929.58,52417 L8039.69,52350.7 M9356.8,52168.1 L8980.08,51840.6 L8979.67,51840.4 L8979.22,51840.3 L8978.81,51840.5 L8825.2,51959.4 L8636.98,52010.7 L8443.46,51986.1 L8274.01,51889.2 L8199.26,51824.3 L7599.04,51302.4 L7598.74,51302.2 L7598.38,51302.2 L7598.03,51302.2 L7597.73,51302.4 L7597.5,51302.7 L7597.4,51303.1 L7574.93,51479.6 L1,51479.6 L1,1 L18555.8,1 L18556.1,0.95668 L18556.4,0.83046 L18672,-76.7277 L19547.8,-441.395 L19639.3,-479.464 L19830.6,-517.89 L20022,-480.199 L20184.4,-372.146 L20292.7,-210.773 L20293,-210.464 L20293.5,-210.333 L20293.9,-210.407 L20498.8,-295.722 L20754.7,-402.273 L20922.4,0.38436 L20922.6,0.70796 L20922.9,0.92411 L20923.3,1 L51332.7,1 L51333.1,0.90992 L51333.4,0.65591 L51457.4,-142.043 L51457.6,-142.556 L51460.9,-165.181 L51555.9,-329.129 L52152.6,-1015.49 L52307,-1134.97 L52495.2,-1186.27 L52688.7,-1161.64 L52858.2,-1064.77 L53611.9,-409.475 L53686.6,-344.492 L53806.1,-190.173 L53857.4,-1.9785 L53832.8,191.525 L53736.4,360.246 L53736.3,360.681 L53736.3,361.129 L53736.6,361.497 L54076.3,656.867 L54076.7,657.076 L54077.2,657.099 L54077.6,656.933 L54077.9,656.609 L54271.5,317.868 L54271.6,317.498 L54311.9,1 L60883.2,1 L60883.2,51479.6 L42220.5,51479.6 L42220.6,51479 L42220.6,51478.6 L42143.8,51096 L42143.7,51095.8 L42143.5,51095.5 L42143.2,51095.3 L42142.8,51095.2 L42142.4,51095.3 L41726.8,51268.3 L41726.4,51268.6 L41726.2,51269 L41726.2,51269.5 L41764.5,51459.9 L41726.8,51651.3 L41618.7,51813.7 L41456.6,51922.5 L41365.1,51960.5 L41089.6,52075.2 L40443.1,52344.4 L40251.7,52382.8 L40060.3,52345.1 L39897.9,52237 L39789.2,52074.9 L39622.2,51673.9 L39583.8,51484.9 L39584.6,51480.8 L39584.6,51480.3 L39584.4,51479.9 L39584,51479.7 L39583.6,51479.6 L31283.2,51479.6 L31282.8,51479.7 L31282.4,51479.9 L31282.2,51480.3 L31282.2,51480.8 L31285.3,51499.6 L31284.1,51534.9 L31239.2,51724.9 L31125,51883.1 L30959.1,51985.6 L30766.4,52016.8 L29768.3,51981.1 L29669.3,51977.5 L29479.4,51932.6 L29321.2,51818.5 L29218.6,51652.6 L29187.5,51460.8 L29187.4,51460.3 L29187,51460 L29186.6,51459.9 L28736.7,51443.8 L28736.3,51443.9 L28736,51444.1 L28735.8,51444.4 L28735.7,51444.8 L28735.7,51445 L28741.3,51479.6 L9955.85,51479.6 L9955.44,51479.7 L9955.1,51479.9 L9356.8,52168.1"/>
</g>

<g fill="none" stroke="#000000" stroke-opacity="1" stroke-width="1" stroke-linecap="square" stroke-linejoin="bevel" transform="matrix(0.999983,0,0,-0.999983,1001.48,53171)"
font-family="MS Shell Dlg 2" font-size="10.3125" font-weight="400" font-style="normal" 
>
</g>

<g fill="none" stroke="#000000" stroke-opacity="1" stroke-width="1" stroke-linecap="square" stroke-linejoin="bevel" transform="matrix(0.999983,0,0,-0.999983,1001.48,53171)"
font-family="MS Shell Dlg 2" font-size="10.3125" font-weight="400" font-style="normal" 
>
</g>

<g fill="#ae5151" fill-opacity="0.2" stroke="#333333" stroke-opacity="1" stroke-width="1" stroke-linecap="round" stroke-linejoin="round" transform="matrix(0.999983,0,0,-0.999983,1001.48,53171)"
font-family="MS Shell Dlg 2" font-size="10.3125" font-weight="400" font-style="normal" 
>
<path vector-effect="non-scaling-stroke" fill-rule="evenodd" d="M18487.5,41591 L18487.8,41591.3 L18488.2,41591.4 L18488.7,41591.3 L18489,41591 L22231.8,37286.1 L22232,37285.7 L22232,37285.3 L22231.8,37284.9 L22231.5,37284.6 L22230.7,37284.1 L21514.7,36661.6 L21440,36596.6 L21320.5,36442.3 L21269.2,36254.1 L21293.8,36060.6 L21390.2,35891.9 L21390.4,35891.5 L21390.3,35891 L21390,35890.7 L21050.3,35595.3 L21049.9,35595.1 L21049.6,35595 L21049.2,35595.1 L21048.9,35595.4 L18423.1,38615.6 L16650.3,40654.7 L16650.1,40655 L16650,40655.4 L16650.1,40655.8 L16650.4,40656.1 L16990.1,40951.5 L16990.4,40951.6 L16990.7,40951.7 L16991.1,40951.7 L16991.4,40951.5 L17145,40832.6 L17333.2,40781.3 L17526.7,40805.9 L17696.2,40902.8 L17770.9,40967.8 L18486.9,41590.2 L18487.5,41591"/>
</g>

<g fill="none" stroke="#000000" stroke-opacity="1" stroke-width="1" stroke-linecap="square" stroke-linejoin="bevel" transform="matrix(0.999983,0,0,-0.999983,1001.48,53171)"
font-family="MS Shell Dlg 2" font-size="10.3125" font-weight="400" font-style="normal" 
>
</g>

<g fill="none" stroke="#000000" stroke-opacity="1" stroke-width="1" stroke-linecap="square" stroke-linejoin="bevel" transform="matrix(0.999983,0,0,-0.999983,1001.48,53171)"
font-family="MS Shell Dlg 2" font-size="10.3125" font-weight="400" font-style="normal" 
>
</g>

<g fill="#ae5151" fill-opacity="0.2" stroke="#333333" stroke-opacity="1" stroke-width="1" stroke-linecap="round" stroke-linejoin="round" transform="matrix(0.999983,0,0,-0.999983,1001.48,53171)"
font-family="MS Shell Dlg 2" font-size="10.3125" font-weight="400" font-style="normal" 
>
<path vector-effect="non-scaling-stroke" fill-rule="evenodd" d="M31281.7,36288 L31281.6,36287.6 L31281.4,36287.3 L31281.1,36287 L31280.7,36286.9 L30830.8,36270.8 L30830.4,36270.9 L30830,36271.2 L30829.8,36271.6 L30785.1,36460.6 L30671,36618.9 L30505,36721.4 L30312.3,36752.6 L30213.4,36749 L29265.2,36715.1 L29264.3,36714.9 L29263.9,36714.9 L29263.5,36715.1 L29263.2,36715.4 L29263.1,36715.8 L29117.7,40776.1 L29117.7,40776.5 L29117.9,40776.8 L29118.2,40777 L29118.5,40777.1 L29118.8,40777.2 L29119.8,40777 L30067.9,40811 L30166.9,40814.5 L30356.8,40859.4 L30515,40973.5 L30617.5,41139.4 L30648.6,41331.3 L30648.8,41331.7 L30649.2,41332 L30649.6,41332.1 L31099.5,41348.2 L31099.9,41348.2 L31100.2,41348 L31100.4,41347.6 L31100.5,41347.3 L31137.1,40325.1 L31281.7,36288"/>
</g>

<g fill="none" stroke="#000000" stroke-opacity="1" stroke-width="1" stroke-linecap="square" stroke-linejoin="bevel" transform="matrix(0.999983,0,0,-0.999983,1001.48,53171)"
font-family="MS Shell Dlg 2" font-size="10.3125" font-weight="400" font-style="normal" 
>
</g>

<g fill="none" stroke="#000000" stroke-opacity="1" stroke-width="1" stroke-linecap="square" stroke-linejoin="bevel" transform="matrix(0.999983,0,0,-0.999983,1001.48,53171)"
font-family="MS Shell Dlg 2" font-size="10.3125" font-weight="400" font-style="normal" 
>
</g>

<g fill="#ae5151" fill-opacity="0.2" stroke="#333333" stroke-opacity="1" stroke-width="1" stroke-linecap="round" stroke-linejoin="round" transform="matrix(0.999983,0,0,-0.999983,1001.48,53171)"
font-family="MS Shell Dlg 2" font-size="10.3125" font-weight="400" font-style="normal" 
>
<path vector-effect="non-scaling-stroke" fill-rule="evenodd" d="M36061.6,41696.2 L36061.9,41696.5 L36062.2,41696.7 L36062.6,41696.8 L36063,41696.7 L36478.6,41523.7 L36478.9,41523.4 L36479.2,41523 L36479.2,41522.6 L36440.9,41332.1 L36478.6,41140.7 L36586.7,40978.3 L36748.8,40869.6 L36840.2,40831.5 L37716.1,40466.8 L37717,40466.6 L37717.4,40466.5 L37717.7,40466.1 L37717.8,40465.7 L37717.8,40465.3 L35995.6,36328.8 L35995.4,36328.5 L35995.1,36328.3 L35994.7,36328.2 L35994.4,36328.2 L35994.1,36328.4 L35993.3,36328.9 L35117.4,36693.5 L35026,36731.6 L34834.6,36770 L34643.2,36732.3 L34480.8,36624.2 L34372.6,36462.9 L34372.4,36462.7 L34372.1,36462.5 L34371.7,36462.5 L34371.4,36462.6 L33955.8,36635.6 L33955.5,36635.8 L33955.2,36636.1 L33955.2,36636.5 L33955.2,36636.9 L36061.6,41696.2"/>
</g>

<g fill="none" stroke="#000000" stroke-opacity="1" stroke-width="1" stroke-linecap="square" stroke-linejoin="bevel" transform="matrix(0.999983,0,0,-0.999983,1001.48,53171)"
font-family="MS Shell Dlg 2" font-size="10.3125" font-weight="400" font-style="normal" 
>
</g>

<g fill="none" stroke="#000000" stroke-opacity="1" stroke-width="1" stroke-linecap="square" stroke-linejoin="bevel" transform="matrix(0.999983,0,0,-0.999983,1001.48,53171)"
font-family="MS Shell Dlg 2" font-size="10.3125" font-weight="400" font-style="normal" 
>
</g>

<g fill="#ffff00" fill-opacity="0.2" stroke="#333333" stroke-opacity="1" stroke-width="1" stroke-linecap="round" stroke-linejoin="round" transform="matrix(0.999983,0,0,-0.999983,1001.48,53171)"
font-family="MS Shell Dlg 2" font-size="10.3125" font-weight="400" font-style="normal" 
>
<path vector-effect="non-scaling-stroke" fill-rule="evenodd" d="M29383.9,19740.3 L29383.8,19740.3 L28768.2,19894.5 L28768.2,19894.5 L28206.8,20095.4 L28170.7,20108.3 L28170.6,20108.3 L27597,20379.6 L27596.9,20379.7 L27269.3,20576 L27052.6,20705.9 L27052.6,20705.9 L26542.9,21083.9 L26542.8,21084 L26072.7,21510.1 L26072.6,21510.2 L25646.5,21980.4 L25646.4,21980.4 L25268.4,22490.1 L25268.3,22490.2 L24942.1,23034.4 L24942.1,23034.5 L24670.8,23608.1 L24670.7,23608.2 L24457,24205.7 L24456.9,24205.8 L24302.8,24821.3 L24302.7,24821.4 L24209.6,25449.1 L24209.6,25449.2 L24178.5,26082.9 L24178.5,26083 L24209.6,26716.8 L24209.6,26716.9 L24302.7,27344.6 L24302.8,27344.7 L24456.9,27960.2 L24457,27960.3 L24670.7,28557.8 L24670.8,28557.8 L24942.1,29131.5 L24942.1,29131.6 L25268.3,29675.8 L25268.4,29675.9 L25646.4,30185.6 L25646.5,30185.6 L26072.6,30655.8 L26072.7,30655.9 L26369.5,30925 L26542.8,31082 L26542.9,31082.1 L27052.6,31460.1 L27052.6,31460.1 L27212.5,31556 L27596.9,31786.3 L27597,31786.4 L28170.6,32057.7 L28170.7,32057.7 L28768.2,32271.5 L28768.2,32271.5 L29383.8,32425.7 L29383.9,32425.7 L30011.5,32518.8 L30011.6,32518.8 L30364.3,32536.2 L30645.4,32550 L30645.5,32550 L31279.3,32518.8 L31279.4,32518.8 L31416.6,32498.5 L31907.1,32425.7 L31907.2,32425.7 L32174.9,32358.6 L32522.7,32271.5 L32522.8,32271.5 L33120.2,32057.7 L33120.3,32057.7 L33176.2,32031.3 L33693.9,31786.4 L33694,31786.3 L34238.3,31460.1 L34238.4,31460.1 L34748,31082.1 L34748.1,31082 L35218.3,30655.9 L35218.3,30655.8 L35644.5,30185.6 L35644.5,30185.6 L36022.5,29675.9 L36022.6,29675.8 L36348.8,29131.6 L36348.9,29131.5 L36620.2,28557.8 L36620.2,28557.8 L36834,27960.3 L36834,27960.2 L36988.2,27344.7 L36988.2,27344.6 L37081.3,26716.9 L37081.3,26716.8 L37112.4,26083 L37112.4,26083 L37112.4,26082.9 L37081.3,25449.2 L37081.3,25449.1 L36988.2,24821.4 L36988.2,24821.3 L36834,24205.8 L36834,24205.7 L36620.2,23608.2 L36620.2,23608.1 L36348.9,23034.5 L36348.8,23034.4 L36022.6,22490.2 L36022.5,22490.1 L35644.5,21980.4 L35644.5,21980.4 L35589.9,21920.2 L35218.3,21510.2 L35218.3,21510.1 L34847.3,21173.9 L34748.1,21084 L34748,21083.9 L34238.4,20705.9 L34238.3,20705.9 L33694,20379.7 L33693.9,20379.6 L33120.3,20108.3 L33120.2,20108.3 L32522.8,19894.5 L32522.7,19894.5 L31907.2,19740.3 L31907.1,19740.3 L31279.4,19647.2 L31279.3,19647.2 L30645.5,19616 L30645.4,19616 L30011.6,19647.2 L30011.5,19647.2 L29383.9,19740.3 M28554.6,21035.1 L29059.4,20854.5 L29579.5,20724.2 L30109.9,20645.5 L30645.5,20619.2 L31181,20645.5 L31711.4,20724.2 L32231.5,20854.5 L32736.4,21035.1 L33221.1,21264.4 L33681,21540 L34111.6,21859.4 L34174.4,21916.3 L34508.9,22219.5 L34847.5,22593.1 L34869,22616.8 L35188.4,23047.5 L35464.1,23507.4 L35693.3,23992.1 L35874,24496.9 L36004.3,25017.1 L36082.9,25547.5 L36109.2,26083 L36082.9,26618.5 L36004.3,27148.9 L35874,27669 L35693.3,28173.9 L35464.1,28658.6 L35188.4,29118.5 L34869,29549.2 L34508.9,29946.5 L34111.6,30306.6 L33681,30626 L33221.1,30901.6 L32747.8,31125.5 L32736.4,31130.9 L32231.5,31311.5 L31931.5,31386.7 L31711.4,31441.8 L31269.5,31507.3 L31181,31520.5 L30645.5,31546.8 L30413.5,31535.4 L30109.9,31520.5 L29579.5,31441.8 L29059.4,31311.5 L28554.6,31130.9 L28069.9,30901.6 L27727.7,30696.5 L27610,30626 L27179.3,30306.6 L27042.4,30182.5 L26782,29946.5 L26421.9,29549.2 L26102.5,29118.5 L25826.9,28658.6 L25597.6,28173.9 L25417,27669 L25286.7,27148.9 L25208,26618.5 L25181.7,26083 L25208,25547.5 L25286.7,25017.1 L25417,24496.9 L25597.6,23992.1 L25826.9,23507.4 L26102.5,23047.5 L26421.9,22616.8 L26782,22219.5 L27179.3,21859.4 L27610,21540 L27784.4,21435.5 L28069.9,21264.4 L28554.6,21035.1"/>
</g>

<g fill="none" stroke="#000000" stroke-opacity="1" stroke-width="1" stroke-linecap="square" stroke-linejoin="bevel" transform="matrix(0.999983,0,0,-0.999983,1001.48,53171)"
font-family="MS Shell Dlg 2" font-size="10.3125" font-weight="400" font-style="normal" 
>
</g>

<g fill="none" stroke="#000000" stroke-opacity="1" stroke-width="1" stroke-linecap="square" stroke-linejoin="bevel" transform="matrix(0.999983,0,0,-0.999983,1001.48,53171)"
font-family="MS Shell Dlg 2" font-size="10.3125" font-weight="400" font-style="normal" 
>
</g>

<g fill="#ffff00" fill-opacity="0.2" stroke="#333333" stroke-opacity="1" stroke-width="1" stroke-linecap="round" stroke-linejoin="round" transform="matrix(0.999983,0,0,-0.999983,1001.48,53171)"
font-family="MS Shell Dlg 2" font-size="10.3125" font-weight="400" font-style="normal" 
>
<path vector-effect="non-scaling-stroke" fill-rule="evenodd" d="M39686.8,15607.3 L39762.4,15673.1 L40479.3,16296.3 L40479.6,16296.5 L40480,16296.5 L40480.4,16296.4 L40480.7,16296.2 L44998,11100.4 L44998.2,11100 L44998.2,11099.6 L44998.1,11099.3 L44997.9,11098.9 L44281,10475.7 L44205.4,10409.9 L43488.5,9786.72 L43488.2,9786.53 L43487.8,9786.48 L43487.4,9786.58 L43487.1,9786.82 L38969.8,14982.6 L38969.6,14983 L38969.6,14983.4 L38969.7,14983.7 L38969.9,14984 L39686.8,15607.3"/>
</g>

<g fill="none" stroke="#000000" stroke-opacity="1" stroke-width="1" stroke-linecap="square" stroke-linejoin="bevel" transform="matrix(0.999983,0,0,-0.999983,1001.48,53171)"
font-family="MS Shell Dlg 2" font-size="10.3125" font-weight="400" font-style="normal" 
>
</g>

<g fill="none" stroke="#000000" stroke-opacity="1" stroke-width="1" stroke-linecap="square" stroke-linejoin="bevel" transform="matrix(0.999983,0,0,-0.999983,1001.48,53171)"
font-family="MS Shell Dlg 2" font-size="10.3125" font-weight="400" font-style="normal" 
>
</g>

<g fill="#ffff00" fill-opacity="0.2" stroke="#333333" stroke-opacity="1" stroke-width="1" stroke-linecap="round" stroke-linejoin="round" transform="matrix(0.999983,0,0,-0.999983,1001.48,53171)"
font-family="MS Shell Dlg 2" font-size="10.3125" font-weight="400" font-style="normal" 
>
<path vector-effect="non-scaling-stroke" fill-rule="evenodd" d="M25373.2,16024.2 L25373.4,16024.5 L25373.8,16024.7 L25374.1,16024.8 L25374.5,16024.7 L26344,15621.1 L27220.9,15256 L27221.2,15255.8 L27221.4,15255.4 L27221.5,15255 L27221.4,15254.7 L25058.2,10058.8 L25058,10058.5 L25057.6,10058.3 L25057.3,10058.2 L25056.9,10058.3 L24180,10423.4 L24087.4,10461.9 L23210.5,10827 L23210.2,10827.2 L23210,10827.6 L23209.9,10828 L23210,10828.3 L25373.2,16024.2"/>
</g>

<g fill="none" stroke="#000000" stroke-opacity="1" stroke-width="1" stroke-linecap="square" stroke-linejoin="bevel" transform="matrix(0.999983,0,0,-0.999983,1001.48,53171)"
font-family="MS Shell Dlg 2" font-size="10.3125" font-weight="400" font-style="normal" 
>
</g>

<g fill="none" stroke="#000000" stroke-opacity="1" stroke-width="1" stroke-linecap="square" stroke-linejoin="bevel" transform="matrix(0.999983,0,0,-0.999983,1001.48,53171)"
font-family="MS Shell Dlg 2" font-size="10.3125" font-weight="400" font-style="normal" 
>
</g>

<g fill="#ffff00" fill-opacity="0.2" stroke="#333333" stroke-opacity="1" stroke-width="1" stroke-linecap="round" stroke-linejoin="round" transform="matrix(0.999983,0,0,-0.999983,1001.48,53171)"
font-family="MS Shell Dlg 2" font-size="10.3125" font-weight="400" font-style="normal" 
>
<path vector-effect="non-scaling-stroke" fill-rule="evenodd" d="M8039.69,52350.7 L8700.03,52924.8 L8700.14,52924.9 L8948.16,53083.2 L8948.43,53083.3 L9231.78,53162.6 L9231.92,53162.6 L9232.09,53162.6 L9232.15,53162.6 L9356.9,53170.4 L9357.18,53170.4 L9771.84,53080.4 L9772.22,53080.2 L10112.2,52826.3 L10112.4,52826.2 L10412,52481.6 L28742.5,52481.6 L28742.7,52481.6 L28879.2,52451.5 L29650.1,52479.2 L29750.3,52482.7 L30749.4,52518.5 L30749.6,52518.5 L30933.1,52481.6 L39463.3,52481.6 L39518.4,52567 L39518.7,52567.3 L39802.8,52779.5 L39803.1,52779.6 L40143.4,52879.4 L40143.5,52879.4 L40143.7,52879.4 L40143.8,52879.4 L40250.4,52885.1 L40250.6,52885.1 L40635,52808.3 L40635.2,52808.2 L41282.6,52538.7 L41558.1,52424 L41742.4,52347.2 L41791.5,52385.6 L41791.9,52385.7 L42219.1,52481.6 L42219.3,52481.6 L60884.2,52481.6 L60884.4,52481.6 L61267,52405.4 L61267.4,52405.3 L61591.8,52188.5 L61592.1,52188.2 L61808.9,51863.8 L61809,51863.5 L61885.1,51480.8 L61885.2,51480.6 L61885.2,0 L61885.1,-0.19509 L61809,-382.879 L61808.9,-383.239 L61592.1,-707.662 L61591.8,-707.938 L61267.4,-924.711 L61267,-924.86 L60884.4,-1000.98 L60884.2,-1001 L54311,-1001 L54310.9,-1000.98 L53957.6,-936.511 L53957.3,-936.384 L53847.1,-870.142 L53186.8,-1444.24 L53186.7,-1444.33 L52933,-1605.12 L52932.7,-1605.24 L52642.8,-1683.45 L52642.6,-1683.48 L52642.4,-1683.5 L52642.2,-1683.49 L52167,-1621.72 L52166.5,-1621.55 L51774.6,-1345.78 L51774.5,-1345.61 L51474.8,-1001 L21542.8,-1001 L21489.7,-1083.66 L21489.5,-1083.92 L21209.5,-1295.49 L21209.2,-1295.65 L20873.4,-1397.5 L20873.3,-1397.53 L20873.1,-1397.55 L20872.9,-1397.55 L20403.9,-1340.85 L20403.7,-1340.79 L20370.4,-1327.64 L20370.4,-1327.63 L20113.7,-1220.75 L19447.5,-943.378 L19354.9,-904.833 L19263.2,-866.661 L19214.1,-904.972 L19213.7,-905.159 L18786.5,-1000.98 L18786.3,-1001 L0,-1001 L-0.19509,-1000.98 L-382.879,-924.86 L-383.239,-924.711 L-707.662,-707.938 L-707.938,-707.662 L-924.711,-383.239 L-924.86,-382.879 L-1000.98,-0.19509 L-1001,0 L-1001,51480.6 L-1000.98,51480.8 L-924.86,51863.5 L-924.711,51863.8 L-707.938,52188.2 L-707.662,52188.5 L-383.239,52405.3 L-382.879,52405.4 L-0.19509,52481.6 L0,52481.6 L7575.81,52481.6 L7575.99,52481.6 L7929.24,52417.1 L7929.58,52417 L8039.69,52350.7 M9356.8,52168.1 L8603,51512.7 L8527.32,51446.9 L7810.5,50823.7 L7810.16,50823.5 L7809.77,50823.5 L7809.4,50823.6 L7809.09,50823.8 L7808.97,50824 L7615.34,51162.7 L7615.21,51163.1 L7574.93,51479.6 L1,51479.6 L1,1 L18785.1,1 L18785,1.62477 L18785,2.01495 L18861.8,384.559 L18861.9,384.887 L18862.1,385.149 L18862.4,385.314 L18862.8,385.362 L18863.1,385.286 L19740,20.1957 L19832.6,-18.3493 L20498.8,-295.722 L20754.7,-402.273 L20922.4,0.38436 L20922.6,0.70796 L20922.9,0.92411 L20923.3,1 L51931,1 L51931.4,0.90998 L51931.7,0.65611 L52530,-687.508 L53283.8,-32.1438 L53359.5,33.6531 L54076.3,656.867 L54076.7,657.076 L54077.2,657.099 L54077.6,656.933 L54077.9,656.609 L54271.5,317.868 L54271.6,317.498 L54311.9,1 L60883.2,1 L60883.2,51479.6 L42220.5,51479.6 L42220.6,51479 L42220.6,51478.6 L42143.8,51096 L42143.7,51095.8 L42143.5,51095.5 L42143.2,51095.3 L42142.8,51095.2 L42142.4,51095.3 L41173,51498.9 L40897.5,51613.6 L40250.8,51882.9 L40083.2,51480.2 L40083,51479.9 L40082.6,51479.7 L40082.3,51479.6 L30786.7,51479.6 L30786.3,51479.7 L30786,51479.9 L30785.8,51480.2 L30785.7,51480.6 L30784.4,51517.1 L29786.2,51481.4 L29685.9,51477.8 L28736.7,51443.8 L28736.3,51443.9 L28736,51444.1 L28735.8,51444.4 L28735.7,51444.8 L28735.7,51445 L28741.3,51479.6 L9955.85,51479.6 L9955.44,51479.7 L9955.1,51479.9 L9356.8,52168.1"/>
</g>

<g fill="none" stroke="#000000" stroke-opacity="1" stroke-width="1" stroke-linecap="square" stroke-linejoin="bevel" transform="matrix(0.999983,0,0,-0.999983,1001.48,53171)"
font-family="MS Shell Dlg 2" font-size="10.3125" font-weight="400" font-style="normal" 
>
</g>

<g fill="none" stroke="#000000" stroke-opacity="1" stroke-width="1" stroke-linecap="square" stroke-linejoin="bevel" transform="matrix(0.999983,0,0,-0.999983,1001.48,53171)"
font-family="MS Shell Dlg 2" font-size="10.3125" font-weight="400" font-style="normal" 
>
</g>

<g fill="#ffff00" fill-opacity="0.2" stroke="#333333" stroke-opacity="1" stroke-width="1" stroke-linecap="round" stroke-linejoin="round" transform="matrix(0.999983,0,0,-0.999983,1001.48,53171)"
font-family="MS Shell Dlg 2" font-size="10.3125" font-weight="400" font-style="normal" 
>
<path vector-effect="non-scaling-stroke" fill-rule="evenodd" d="M17367.2,41279.3 L17442.9,41345.1 L18159.7,41968.3 L18160,41968.5 L18160.4,41968.5 L18160.8,41968.4 L18161.1,41968.2 L22559.7,36908.9 L22559.9,36908.6 L22559.9,36908.2 L22559.8,36907.8 L22559.6,36907.5 L21842.8,36284.3 L21050.3,35595.3 L21049.9,35595.1 L21049.6,35595 L21049.2,35595.1 L21048.9,35595.4 L18423.1,38615.6 L16650.3,40654.7 L16650.1,40655 L16650,40655.4 L16650.1,40655.8 L16650.4,40656.1 L17367.2,41279.3"/>
</g>

<g fill="none" stroke="#000000" stroke-opacity="1" stroke-width="1" stroke-linecap="square" stroke-linejoin="bevel" transform="matrix(0.999983,0,0,-0.999983,1001.48,53171)"
font-family="MS Shell Dlg 2" font-size="10.3125" font-weight="400" font-style="normal" 
>
</g>

<g fill="none" stroke="#000000" stroke-opacity="1" stroke-width="1" stroke-linecap="square" stroke-linejoin="bevel" transform="matrix(0.999983,0,0,-0.999983,1001.48,53171)"
font-family="MS Shell Dlg 2" font-size="10.3125" font-weight="400" font-style="normal" 
>
</g>

<g fill="#ffff00" fill-opacity="0.2" stroke="#333333" stroke-opacity="1" stroke-width="1" stroke-linecap="round" stroke-linejoin="round" transform="matrix(0.999983,0,0,-0.999983,1001.48,53171)"
font-family="MS Shell Dlg 2" font-size="10.3125" font-weight="400" font-style="normal" 
>
<path vector-effect="non-scaling-stroke" fill-rule="evenodd" d="M36061.6,41696.2 L36061.9,41696.5 L36062.2,41696.7 L36062.6,41696.8 L36063,41696.7 L37032.4,41293.1 L37909.3,40928 L37909.6,40927.8 L37909.9,40927.5 L37909.9,40927.1 L37909.9,40926.7 L35803.5,35867.4 L35803.2,35867.1 L35802.9,35866.9 L35802.5,35866.8 L35802.1,35866.9 L34925.3,36232 L34832.7,36270.5 L33955.8,36635.6 L33955.5,36635.8 L33955.2,36636.1 L33955.2,36636.5 L33955.2,36636.9 L36061.6,41696.2"/>
</g>

<g fill="none" stroke="#000000" stroke-opacity="1" stroke-width="1" stroke-linecap="square" stroke-linejoin="bevel" transform="matrix(0.999983,0,0,-0.999983,1001.48,53171)"
font-family="MS Shell Dlg 2" font-size="10.3125" font-weight="400" font-style="normal" 
>
</g>

<g fill="none" stroke="#000000" stroke-opacity="1" stroke-width="1" stroke-linecap="square" stroke-linejoin="bevel" transform="matrix(0.999983,0,0,-0.999983,1001.48,53171)"
font-family="MS Shell Dlg 2" font-size="10.3125" font-weight="400" font-style="normal" 
>
</g>

<g fill="#ffff00" fill-opacity="0.2" stroke="#333333" stroke-opacity="1" stroke-width="1" stroke-linecap="round" stroke-linejoin="round" transform="matrix(0.999983,0,0,-0.999983,1001.48,53171)"
font-family="MS Shell Dlg 2" font-size="10.3125" font-weight="400" font-style="normal" 
>
<path vector-effect="non-scaling-stroke" fill-rule="evenodd" d="M30050,41310.6 L30150.2,41314.2 L31099.5,41348.2 L31099.9,41348.2 L31100.2,41348 L31100.4,41347.6 L31100.5,41347.3 L31137.1,40325.1 L31281.7,36288 L31281.6,36287.6 L31281.4,36287.3 L31281.1,36287 L31280.7,36286.9 L30231.3,36249.4 L29282,36215.4 L29281.6,36215.4 L29281.3,36215.6 L29281.1,36216 L29281,36216.3 L29099.8,41275.6 L29099.9,41276 L29100.1,41276.3 L29100.4,41276.6 L29100.8,41276.6 L30050,41310.6"/>
</g>

<g fill="none" stroke="#000000" stroke-opacity="1" stroke-width="1" stroke-linecap="square" stroke-linejoin="bevel" transform="matrix(0.999983,0,0,-0.999983,1001.48,53171)"
font-family="MS Shell Dlg 2" font-size="10.3125" font-weight="400" font-style="normal" 
>
</g>

<g fill="none" stroke="#000000" stroke-opacity="1" stroke-width="1" stroke-linecap="square" stroke-linejoin="bevel" transform="matrix(0.999983,0,0,-0.999983,1001.48,53171)"
font-family="MS Shell Dlg 2" font-size="10.3125" font-weight="400" font-style="normal" 
>
</g>

<g fill="#ae5151" fill-opacity="0.2" stroke="#333333" stroke-opacity="1" stroke-width="1" stroke-linecap="round" stroke-linejoin="round" transform="matrix(0.999983,0,0,-0.999983,1001.48,53171)"
font-family="MS Shell Dlg 2" font-size="10.3125" font-weight="400" font-style="normal" 
>
<path vector-effect="non-scaling-stroke" fill-rule="evenodd" d="M29383.9,19740.3 L29383.8,19740.3 L28768.2,19894.5 L28768.2,19894.5 L28673.1,19928.5 L28672.8,19928.7 L28672.5,19929 L28672.4,19929.3 L28672.4,19929.7 L28705.7,20101.2 L28663.1,20297.9 L28546.3,20461.8 L28374.2,20566.5 L28362.3,20570.8 L28362.2,20570.8 L27832.9,20821.1 L27832.9,20821.2 L27527.4,21004.2 L27325.6,21072.3 L27113.9,21050.3 L26930.5,20942.2 L26864.1,20847 L26863.8,20846.7 L26863.4,20846.6 L26863,20846.6 L26862.7,20846.8 L26542.9,21083.9 L26542.8,21084 L26072.7,21510.1 L26072.6,21510.2 L25646.5,21980.4 L25646.4,21980.4 L25268.4,22490.1 L25268.3,22490.2 L24942.1,23034.4 L24942.1,23034.5 L24670.8,23608.1 L24670.7,23608.2 L24457,24205.7 L24456.9,24205.8 L24302.8,24821.3 L24302.7,24821.4 L24209.6,25449.1 L24209.6,25449.2 L24178.5,26082.9 L24178.5,26083 L24209.6,26716.8 L24209.6,26716.9 L24302.7,27344.6 L24302.8,27344.7 L24456.9,27960.2 L24457,27960.3 L24670.7,28557.8 L24670.8,28557.8 L24942.1,29131.5 L24942.1,29131.6 L25268.3,29675.8 L25268.4,29675.9 L25504.7,29994.5 L25505,29994.8 L25505.4,29994.9 L25650.6,30013.3 L25820,30109.9 L26220.9,30457.7 L26221.4,30457.9 L26221.9,30457.9 L26340.6,30426.5 L26536.3,30454 L26706.1,30555.2 L26860.4,30695.1 L26860.5,30695.1 L27330.7,31043.9 L27330.8,31043.9 L27468.5,31126.4 L27625.8,31275.4 L27705.3,31476.9 L27692.2,31693.1 L27632.9,31802.2 L27632.8,31802.6 L27632.8,31803 L27633,31803.3 L27633.4,31803.6 L28170.6,32057.7 L28170.7,32057.7 L28768.2,32271.5 L28768.2,32271.5 L29383.8,32425.7 L29383.9,32425.7 L29869.6,32497.8 L29870,32497.8 L29870.4,32497.6 L29870.6,32497.4 L29870.8,32497 L29911.3,32327 L30027.1,32168 L30195.3,32066 L30390,32036.8 L30645.5,32049.4 L30645.6,32049.4 L31230.3,32020.6 L31230.4,32020.6 L31341.9,32004.1 L31558.9,32019.7 L31739,32120.6 L31739.4,32120.7 L31739.7,32120.7 L31740,32120.6 L31740.3,32120.3 L31863.5,31968.1 L32054.7,31873.3 L32377.4,31792.5 L32377.5,31792.4 L32928.7,31595.2 L32928.8,31595.2 L32961.4,31579.8 L33156.6,31532.1 L33354.8,31565.1 L33523.9,31673.4 L33622.9,31819 L33623.2,31819.3 L33623.5,31819.4 L33623.8,31819.5 L33624.2,31819.4 L33693.9,31786.4 L33694,31786.3 L34238.3,31460.1 L34238.4,31460.1 L34748,31082.1 L34748.1,31082 L35218.3,30655.9 L35218.3,30655.8 L35644.5,30185.6 L35644.5,30185.6 L36022.5,29675.9 L36022.6,29675.8 L36348.8,29131.6 L36348.9,29131.5 L36620.2,28557.8 L36620.2,28557.8 L36834,27960.3 L36834,27960.2 L36988.2,27344.7 L36988.2,27344.6 L37081.3,26716.9 L37081.3,26716.8 L37112.4,26083 L37112.4,26083 L37112.4,26082.9 L37081.3,25449.2 L37081.3,25449.1 L36988.2,24821.4 L36988.2,24821.3 L36834,24205.8 L36834,24205.7 L36620.2,23608.2 L36620.2,23608.1 L36348.9,23034.5 L36348.8,23034.4 L36022.6,22490.2 L36022.5,22490.1 L35887.5,22308 L35887.2,22307.7 L35886.8,22307.6 L35886.4,22307.6 L35886.1,22307.8 L35798.8,22373.2 L35594.3,22419.3 L35388.9,22377.5 L35218.6,22255 L34864.3,21864.1 L34864.3,21864.1 L34512.3,21545.1 L34397.3,21390.9 L34349,21204.9 L34374.4,21014.4 L34431.8,20914 L34431.9,20913.6 L34431.9,20913.3 L34431.8,20913 L34431.6,20912.7 L34094.8,20619.9 L34094.6,20619.8 L33694,20379.7 L33693.9,20379.6 L33120.3,20108.3 L33120.2,20108.3 L32522.8,19894.5 L32522.7,19894.5 L31907.2,19740.3 L31907.1,19740.3 L31279.4,19647.2 L31279.3,19647.2 L30645.5,19616 L30645.4,19616 L30011.6,19647.2 L30011.5,19647.2 L29383.9,19740.3 M28554.6,21035.1 L29059.4,20854.5 L29579.5,20724.2 L30109.9,20645.5 L30645.5,20619.2 L31181,20645.5 L31711.4,20724.2 L32231.5,20854.5 L32736.4,21035.1 L33221.1,21264.4 L33681,21540 L34111.6,21859.4 L34174.4,21916.3 L34508.9,22219.5 L34847.5,22593.1 L34869,22616.8 L35188.4,23047.5 L35464.1,23507.4 L35693.3,23992.1 L35874,24496.9 L36004.3,25017.1 L36082.9,25547.5 L36109.2,26083 L36082.9,26618.5 L36004.3,27148.9 L35874,27669 L35693.3,28173.9 L35464.1,28658.6 L35188.4,29118.5 L34869,29549.2 L34508.9,29946.5 L34111.6,30306.6 L33681,30626 L33221.1,30901.6 L32747.8,31125.5 L32736.4,31130.9 L32231.5,31311.5 L31931.5,31386.7 L31711.4,31441.8 L31269.5,31507.3 L31181,31520.5 L30645.5,31546.8 L30413.5,31535.4 L30109.9,31520.5 L29579.5,31441.8 L29059.4,31311.5 L28554.6,31130.9 L28069.9,30901.6 L27727.7,30696.5 L27610,30626 L27179.3,30306.6 L27042.4,30182.5 L26782,29946.5 L26421.9,29549.2 L26102.5,29118.5 L25826.9,28658.6 L25597.6,28173.9 L25417,27669 L25286.7,27148.9 L25208,26618.5 L25181.7,26083 L25208,25547.5 L25286.7,25017.1 L25417,24496.9 L25597.6,23992.1 L25826.9,23507.4 L26102.5,23047.5 L26421.9,22616.8 L26782,22219.5 L27179.3,21859.4 L27610,21540 L27784.4,21435.5 L28069.9,21264.4 L28554.6,21035.1"/>
</g>

<g fill="none" stroke="#000000" stroke-opacity="1" stroke-width="1" stroke-linecap="square" stroke-linejoin="bevel" transform="matrix(0.999983,0,0,-0.999983,1001.48,53171)"
font-family="MS Shell Dlg 2" font-size="10.3125" font-weight="400" font-style="normal" 
>
</g>

<g fill="none" stroke="#000000" stroke-opacity="1" stroke-width="1" stroke-linecap="square" stroke-linejoin="bevel" transform="matrix(0.999983,0,0,-0.999983,1001.48,53171)"
font-family="MS Shell Dlg 2" font-size="10.3125" font-weight="400" font-style="normal" 
>
</g>

<g fill="#ae5151" fill-opacity="0.2" stroke="#333333" stroke-opacity="1" stroke-width="1" stroke-linecap="round" stroke-linejoin="round" transform="matrix(0.999983,0,0,-0.999983,1001.48,53171)"
font-family="MS Shell Dlg 2" font-size="10.3125" font-weight="400" font-style="normal" 
>
<path vector-effect="non-scaling-stroke" fill-rule="evenodd" d="M26804.1,15428.6 L26804.3,15428.9 L26804.6,15429 L26804.9,15429.1 L26805.3,15429 L27220.9,15256 L27221.2,15255.8 L27221.4,15255.4 L27221.5,15255 L27221.4,15254.7 L25058.2,10058.8 L25058,10058.5 L25057.6,10058.3 L25057.3,10058.2 L25056.9,10058.3 L24641.3,10231.3 L24640.9,10231.6 L24640.7,10232 L24640.7,10232.5 L24678.9,10422.9 L24641.2,10614.3 L24533.1,10776.7 L24371,10885.5 L24279.6,10923.5 L23403.7,11288.2 L23402.8,11288.4 L23402.4,11288.6 L23402.1,11288.9 L23402,11289.3 L23402.1,11289.7 L25181.1,15562.7 L25181.4,15563.1 L25181.8,15563.3 L25182.2,15563.4 L25182.6,15563.2 L25183.4,15562.7 L26150.7,15159.9 L26342,15121.5 L26533.4,15159.2 L26695.8,15267.3 L26804.1,15428.6"/>
</g>

<g fill="none" stroke="#000000" stroke-opacity="1" stroke-width="1" stroke-linecap="square" stroke-linejoin="bevel" transform="matrix(0.999983,0,0,-0.999983,1001.48,53171)"
font-family="MS Shell Dlg 2" font-size="10.3125" font-weight="400" font-style="normal" 
>
</g>

<g fill="none" stroke="#000000" stroke-opacity="1" stroke-width="1" stroke-linecap="square" stroke-linejoin="bevel" transform="matrix(0.999983,0,0,-0.999983,1001.48,53171)"
font-family="MS Shell Dlg 2" font-size="10.3125" font-weight="400" font-style="normal" 
>
</g>

<g fill="#ae5151" fill-opacity="0.2" stroke="#333333" stroke-opacity="1" stroke-width="1" stroke-linecap="round" stroke-linejoin="round" transform="matrix(0.999983,0,0,-0.999983,1001.48,53171)"
font-family="MS Shell Dlg 2" font-size="10.3125" font-weight="400" font-style="normal" 
>
<path vector-effect="non-scaling-stroke" fill-rule="evenodd" d="M40139.3,15999.7 L40139.2,16000.1 L40139.3,16000.5 L40139.5,16000.9 L40479.3,16296.3 L40479.6,16296.5 L40480,16296.5 L40480.4,16296.4 L40480.7,16296.2 L44998,11100.4 L44998.2,11100 L44998.2,11099.6 L44998.1,11099.3 L44997.9,11098.9 L44658.1,10803.6 L44657.7,10803.4 L44657.3,10803.3 L44656.9,10803.5 L44503.2,10922.5 L44315,10973.8 L44121.5,10949.1 L43952.1,10852.3 L43877.3,10787.3 L43161.3,10164.8 L43160.8,10164 L43160.4,10163.8 L43160,10163.7 L43159.6,10163.7 L43159.2,10164 L39297.8,14605.5 L39297.5,14605.8 L39297.5,14606.3 L39297.7,14606.7 L39298,14607 L39298.8,14607.4 L40014.8,15229.9 L40089.6,15294.9 L40209,15449.2 L40260.3,15637.4 L40235.7,15830.9 L40139.3,15999.7"/>
</g>

<g fill="none" stroke="#000000" stroke-opacity="1" stroke-width="1" stroke-linecap="square" stroke-linejoin="bevel" transform="matrix(0.999983,0,0,-0.999983,1001.48,53171)"
font-family="MS Shell Dlg 2" font-size="10.3125" font-weight="400" font-style="normal" 
>
</g>

<g fill="none" stroke="#000000" stroke-opacity="1" stroke-width="1" stroke-linecap="square" stroke-linejoin="bevel" transform="matrix(0.999983,0,0,-0.999983,1001.48,53171)"
font-family="MS Shell Dlg 2" font-size="10.3125" font-weight="400" font-style="normal" 
>
</g>

<g fill="#ae5151" fill-opacity="0.2" stroke="#333333" stroke-opacity="1" stroke-width="1" stroke-linecap="round" stroke-linejoin="round" transform="matrix(0.999983,0,0,-0.999983,1001.48,53171)"
font-family="MS Shell Dlg 2" font-size="10.3125" font-weight="400" font-style="normal" 
>
<path vector-effect="non-scaling-stroke" fill-rule="evenodd" d="M8039.69,52350.7 L8700.03,52924.8 L8700.14,52924.9 L8948.16,53083.2 L8948.43,53083.3 L9231.78,53162.6 L9231.92,53162.6 L9232.09,53162.6 L9232.15,53162.6 L9356.9,53170.4 L9357.18,53170.4 L9771.84,53080.4 L9772.22,53080.2 L10112.2,52826.3 L10112.4,52826.2 L10412,52481.6 L28742.5,52481.6 L28742.7,52481.6 L28879.2,52451.5 L29650.1,52479.2 L29750.3,52482.7 L30749.4,52518.5 L30749.6,52518.5 L30933.1,52481.6 L39463.3,52481.6 L39518.4,52567 L39518.7,52567.3 L39802.8,52779.5 L39803.1,52779.6 L40143.4,52879.4 L40143.5,52879.4 L40143.7,52879.4 L40143.8,52879.4 L40250.4,52885.1 L40250.6,52885.1 L40635,52808.3 L40635.2,52808.2 L41282.6,52538.7 L41558.1,52424 L41742.4,52347.2 L41791.5,52385.6 L41791.9,52385.7 L42219.1,52481.6 L42219.3,52481.6 L60884.2,52481.6 L60884.4,52481.6 L61267,52405.4 L61267.4,52405.3 L61591.8,52188.5 L61592.1,52188.2 L61808.9,51863.8 L61809,51863.5 L61885.1,51480.8 L61885.2,51480.6 L61885.2,0 L61885.1,-0.19509 L61809,-382.879 L61808.9,-383.239 L61592.1,-707.662 L61591.8,-707.938 L61267.4,-924.711 L61267,-924.86 L60884.4,-1000.98 L60884.2,-1001 L54311,-1001 L54310.9,-1000.98 L53957.6,-936.511 L53957.3,-936.384 L53847.1,-870.142 L53186.8,-1444.24 L53186.7,-1444.33 L52933,-1605.12 L52932.7,-1605.24 L52642.8,-1683.45 L52642.6,-1683.48 L52642.4,-1683.5 L52642.2,-1683.49 L52167,-1621.72 L52166.5,-1621.55 L51774.6,-1345.78 L51774.5,-1345.61 L51474.8,-1001 L21542.8,-1001 L21489.7,-1083.66 L21489.5,-1083.92 L21209.5,-1295.49 L21209.2,-1295.65 L20873.4,-1397.5 L20873.3,-1397.53 L20873.1,-1397.55 L20872.9,-1397.55 L20403.9,-1340.85 L20403.7,-1340.79 L20370.4,-1327.64 L20370.4,-1327.63 L20113.7,-1220.75 L19447.5,-943.378 L19354.9,-904.833 L19263.2,-866.661 L19214.1,-904.972 L19213.7,-905.159 L18786.5,-1000.98 L18786.3,-1001 L0,-1001 L-0.19509,-1000.98 L-382.879,-924.86 L-383.239,-924.711 L-707.662,-707.938 L-707.938,-707.662 L-924.711,-383.239 L-924.86,-382.879 L-1000.98,-0.19509 L-1001,0 L-1001,51480.6 L-1000.98,51480.8 L-924.86,51863.5 L-924.711,51863.8 L-707.938,52188.2 L-707.662,52188.5 L-383.239,52405.3 L-382.879,52405.4 L-0.19509,52481.6 L0,52481.6 L7575.81,52481.6 L7575.99,52481.6 L7929.24,52417.1 L7929.58,52417 L8039.69,52350.7 M30784.4,51517.1 L30285.5,51499.3 L30285.2,51499.3 L30284.9,51499.5 L30284.6,51499.7 L30284.5,51500 L30239.8,51689.1 L30125.7,51847.3 L29959.7,51949.8 L29767,51981 L29668.1,51977.5 L28719.9,51943.5 L28530,51898.6 L28371.7,51784.5 L28269.2,51618.5 L28246.9,51480.4 L28246.7,51480.1 L28246.5,51479.8 L28246.2,51479.6 L28245.9,51479.6 L10554.2,51479.6 L10553.8,51479.7 L10553.4,51479.9 L10429.4,51622.6 L10429.2,51623.1 L10425.9,51645.8 L10330.9,51809.7 L9734.2,52496.1 L9579.86,52615.6 L9391.64,52666.9 L9198.12,52642.2 L9028.67,52545.4 L8274.94,51890.1 L8200.2,51825.1 L8080.73,51670.8 L8029.42,51482.6 L8054.03,51289.1 L8150.45,51120.3 L8150.58,51119.9 L8150.5,51119.5 L8150.23,51119.1 L7810.5,50823.7 L7810.16,50823.5 L7809.77,50823.5 L7809.4,50823.6 L7809.09,50823.8 L7808.97,50824 L7615.34,51162.7 L7615.21,51163.1 L7574.93,51479.6 L1,51479.6 L1,1 L18785.1,1 L18785,1.62477 L18785,2.01495 L18861.8,384.559 L18861.9,384.887 L18862.1,385.149 L18862.4,385.314 L18862.8,385.362 L18863.1,385.286 L19278.8,212.246 L19279,212.063 L19279.3,211.793 L19279.4,211.468 L19279.4,211.126 L19241.1,20.6659 L19278.8,-170.737 L19386.9,-333.139 L19549,-441.872 L19640.4,-479.94 L20306.6,-757.313 L20562.5,-863.826 L20753.8,-902.253 L20945.2,-864.542 L21107.6,-756.455 L21216.4,-594.363 L21383.4,-193.271 L21421.8,-4.31004 L21421,-0.18623 L21421,0.24954 L21421.2,0.63787 L21421.6,0.90495 L21422,1 L51931,1 L51931.4,0.90998 L51931.7,0.65611 L52530,-687.508 L52906.8,-359.977 L52907.1,-359.8 L52907.4,-359.732 L52907.7,-359.781 L52908,-359.941 L53061.6,-478.86 L53249.9,-530.16 L53443.4,-505.527 L53612.8,-408.662 L53687.6,-343.678 L54287.8,178.161 L54288.1,178.344 L54288.5,178.406 L54288.8,178.34 L54289.1,178.155 L54289.3,177.874 L54289.4,177.532 L54311.9,1 L60883.2,1 L60883.2,51479.6 L42449.8,51479.6 L42449.5,51479.6 L42449.2,51479.8 L42333.6,51557.3 L41366.3,51960.1 L41174.9,51998.5 L40983.6,51960.8 L40821.2,51852.7 L40712.9,51691.4 L40712.5,51691.1 L40712.1,51690.9 L40711.7,51691 L40250.8,51882.9 L40083.2,51480.2 L40083,51479.9 L40082.6,51479.7 L40082.3,51479.6 L30786.7,51479.6 L30786.3,51479.7 L30786,51479.9 L30785.8,51480.2 L30785.7,51480.6 L30784.4,51517.1"/>
</g>

<g fill="none" stroke="#000000" stroke-opacity="1" stroke-width="1" stroke-linecap="square" stroke-linejoin="bevel" transform="matrix(0.999983,0,0,-0.999983,1001.48,53171)"
font-family="MS Shell Dlg 2" font-size="10.3125" font-weight="400" font-style="normal" 
>
</g>

<g fill="none" stroke="#000000" stroke-opacity="1" stroke-width="1" stroke-linecap="square" stroke-linejoin="bevel" transform="matrix(0.999983,0,0,-0.999983,1001.48,53171)"
font-family="MS Shell Dlg 2" font-size="10.3125" font-weight="400" font-style="normal" 
>
</g>

<g fill="#ae5151" fill-opacity="0.2" stroke="#333333" stroke-opacity="1" stroke-width="1" stroke-linecap="round" stroke-linejoin="round" transform="matrix(0.999983,0,0,-0.999983,1001.48,53171)"
font-family="MS Shell Dlg 2" font-size="10.3125" font-weight="400" font-style="normal" 
>
<path vector-effect="non-scaling-stroke" fill-rule="evenodd" d="M37492.5,41100.7 L37492.8,41101 L37493.3,41101.1 L37493.7,41101 L37909.3,40928 L37909.6,40927.8 L37909.9,40927.5 L37909.9,40927.1 L37909.9,40926.7 L35803.5,35867.4 L35803.2,35867.1 L35802.9,35866.9 L35802.5,35866.8 L35802.1,35866.9 L35386.5,36039.9 L35386.2,36040.1 L35386,36040.4 L35385.9,36040.7 L35385.9,36041 L35424.2,36231.5 L35386.5,36422.9 L35278.4,36585.3 L35116.3,36694 L35024.9,36732.1 L34149,37096.8 L34148.1,37096.9 L34147.7,37097.1 L34147.4,37097.5 L34147.3,37097.9 L34147.3,37098.3 L35008.4,39166.5 L35869.5,41234.8 L35869.8,41235.1 L35870.2,41235.3 L35870.6,41235.4 L35871,41235.2 L35871.8,41234.7 L36839.1,40832 L37030.4,40793.5 L37221.8,40831.2 L37384.2,40939.3 L37492.5,41100.7"/>
</g>

<g fill="none" stroke="#000000" stroke-opacity="1" stroke-width="1" stroke-linecap="square" stroke-linejoin="bevel" transform="matrix(0.999983,0,0,-0.999983,1001.48,53171)"
font-family="MS Shell Dlg 2" font-size="10.3125" font-weight="400" font-style="normal" 
>
</g>

<g fill="none" stroke="#000000" stroke-opacity="1" stroke-width="1" stroke-linecap="square" stroke-linejoin="bevel" transform="matrix(0.999983,0,0,-0.999983,1001.48,53171)"
font-family="MS Shell Dlg 2" font-size="10.3125" font-weight="400" font-style="normal" 
>
</g>

<g fill="#ae5151" fill-opacity="0.2" stroke="#333333" stroke-opacity="1" stroke-width="1" stroke-linecap="round" stroke-linejoin="round" transform="matrix(0.999983,0,0,-0.999983,1001.48,53171)"
font-family="MS Shell Dlg 2" font-size="10.3125" font-weight="400" font-style="normal" 
>
<path vector-effect="non-scaling-stroke" fill-rule="evenodd" d="M29732.9,36232.3 L29732.7,36231.9 L29732.4,36231.6 L29731.9,36231.5 L29282,36215.4 L29281.6,36215.4 L29281.3,36215.6 L29281.1,36216 L29281,36216.3 L29099.8,41275.6 L29099.9,41276 L29100.1,41276.3 L29100.4,41276.6 L29100.8,41276.6 L29550.7,41292.8 L29551,41292.7 L29551.3,41292.6 L29551.6,41292.3 L29551.7,41292 L29596.4,41102.9 L29710.5,40944.7 L29876.5,40842.2 L30069.1,40811 L30168.1,40814.5 L31116.3,40848.5 L31117.2,40848.7 L31117.5,40848.7 L31117.9,40848.6 L31118.1,40848.4 L31118.3,40848.1 L31118.4,40847.8 L31137.1,40325.1 L31263.8,36787.5 L31263.8,36787.1 L31263.6,36786.8 L31263.3,36786.6 L31263,36786.4 L31262.6,36786.4 L31261.7,36786.6 L30214.6,36749.1 L30024.7,36704.2 L29866.4,36590.1 L29763.9,36424.1 L29732.9,36232.3"/>
</g>

<g fill="none" stroke="#000000" stroke-opacity="1" stroke-width="1" stroke-linecap="square" stroke-linejoin="bevel" transform="matrix(0.999983,0,0,-0.999983,1001.48,53171)"
font-family="MS Shell Dlg 2" font-size="10.3125" font-weight="400" font-style="normal" 
>
</g>

<g fill="none" stroke="#000000" stroke-opacity="1" stroke-width="1" stroke-linecap="square" stroke-linejoin="bevel" transform="matrix(0.999983,0,0,-0.999983,1001.48,53171)"
font-family="MS Shell Dlg 2" font-size="10.3125" font-weight="400" font-style="normal" 
>
</g>

<g fill="#ae5151" fill-opacity="0.2" stroke="#333333" stroke-opacity="1" stroke-width="1" stroke-linecap="round" stroke-linejoin="round" transform="matrix(0.999983,0,0,-0.999983,1001.48,53171)"
font-family="MS Shell Dlg 2" font-size="10.3125" font-weight="400" font-style="normal" 
>
<path vector-effect="non-scaling-stroke" fill-rule="evenodd" d="M17819.7,41671.7 L17819.6,41672.1 L17819.7,41672.6 L17820,41672.9 L18159.7,41968.3 L18160,41968.5 L18160.4,41968.5 L18160.8,41968.4 L18161.1,41968.2 L22559.7,36908.9 L22559.9,36908.6 L22559.9,36908.2 L22559.8,36907.8 L22559.6,36907.5 L22219.9,36612.1 L22219.6,36612 L22219.2,36611.9 L22218.9,36611.9 L22218.6,36612.1 L22065,36731 L21876.8,36782.3 L21683.2,36757.7 L21513.8,36660.8 L20723.1,35973.3 L20722.5,35972.6 L20722.2,35972.4 L20721.9,35972.2 L20721.5,35972.2 L20721.2,35972.3 L20720.9,35972.6 L18423.1,38615.6 L16978.2,40277.5 L16978,40277.9 L16978,40278.3 L16978.1,40278.7 L16978.5,40279 L16979.3,40279.5 L17695.2,40902 L17770,40966.9 L17889.5,41121.3 L17940.8,41309.5 L17916.2,41503 L17819.7,41671.7"/>
</g>

<g fill="none" stroke="#000000" stroke-opacity="1" stroke-width="1" stroke-linecap="square" stroke-linejoin="bevel" transform="matrix(0.999983,0,0,-0.999983,1001.48,53171)"
font-family="MS Shell Dlg 2" font-size="10.3125" font-weight="400" font-style="normal" 
>
</g>

<g fill="none" stroke="#000000" stroke-opacity="1" stroke-width="1" stroke-linecap="square" stroke-linejoin="bevel" transform="matrix(0.999983,0,0,-0.999983,1001.48,53171)"
font-family="MS Shell Dlg 2" font-size="10.3125" font-weight="400" font-style="normal" 
>
</g>

<g fill="#333333" fill-opacity="0.2" stroke="#333333" stroke-opacity="1" stroke-width="1" stroke-linecap="round" stroke-linejoin="round" transform="matrix(0.999983,0,0,-0.999983,1001.48,53171)"
font-family="MS Shell Dlg 2" font-size="10.3125" font-weight="400" font-style="normal" 
>
<path vector-effect="non-scaling-stroke" fill-rule="evenodd" d="M29383.9,19740.3 L29383.8,19740.3 L28768.2,19894.5 L28768.2,19894.5 L28673.1,19928.5 L28672.8,19928.7 L28672.5,19929 L28672.4,19929.3 L28672.4,19929.7 L28705.7,20101.2 L28663.1,20297.9 L28546.3,20461.8 L28374.2,20566.5 L28362.3,20570.8 L28362.2,20570.8 L27832.9,20821.1 L27832.9,20821.2 L27527.4,21004.2 L27325.6,21072.3 L27113.9,21050.3 L26930.5,20942.2 L26864.1,20847 L26863.8,20846.7 L26863.4,20846.6 L26863,20846.6 L26862.7,20846.8 L26542.9,21083.9 L26542.8,21084 L26072.7,21510.1 L26072.6,21510.2 L25646.5,21980.4 L25646.4,21980.4 L25268.4,22490.1 L25268.3,22490.2 L24942.1,23034.4 L24942.1,23034.5 L24670.8,23608.1 L24670.7,23608.2 L24457,24205.7 L24456.9,24205.8 L24302.8,24821.3 L24302.7,24821.4 L24209.6,25449.1 L24209.6,25449.2 L24178.5,26082.9 L24178.5,26083 L24209.6,26716.8 L24209.6,26716.9 L24302.7,27344.6 L24302.8,27344.7 L24456.9,27960.2 L24457,27960.3 L24670.7,28557.8 L24670.8,28557.8 L24942.1,29131.5 L24942.1,29131.6 L25268.3,29675.8 L25268.4,29675.9 L25504.7,29994.5 L25505,29994.8 L25505.4,29994.9 L25650.6,30013.3 L25820,30109.9 L26220.9,30457.7 L26221.4,30457.9 L26221.9,30457.9 L26340.6,30426.5 L26536.3,30454 L26706.1,30555.2 L26860.4,30695.1 L26860.5,30695.1 L27330.7,31043.9 L27330.8,31043.9 L27468.5,31126.4 L27625.8,31275.4 L27705.3,31476.9 L27692.2,31693.1 L27632.9,31802.2 L27632.8,31802.6 L27632.8,31803 L27633,31803.3 L27633.4,31803.6 L28170.6,32057.7 L28170.7,32057.7 L28768.2,32271.5 L28768.2,32271.5 L29383.8,32425.7 L29383.9,32425.7 L29869.6,32497.8 L29870,32497.8 L29870.4,32497.6 L29870.6,32497.4 L29870.8,32497 L29911.3,32327 L30027.1,32168 L30195.3,32066 L30390,32036.8 L30645.5,32049.4 L30645.6,32049.4 L31230.3,32020.6 L31230.4,32020.6 L31341.9,32004.1 L31558.9,32019.7 L31739,32120.6 L31739.4,32120.7 L31739.7,32120.7 L31740,32120.6 L31740.3,32120.3 L31863.5,31968.1 L32054.7,31873.3 L32377.4,31792.5 L32377.5,31792.4 L32928.7,31595.2 L32928.8,31595.2 L32961.4,31579.8 L33156.6,31532.1 L33354.8,31565.1 L33523.9,31673.4 L33622.9,31819 L33623.2,31819.3 L33623.5,31819.4 L33623.8,31819.5 L33624.2,31819.4 L33693.9,31786.4 L33694,31786.3 L34238.3,31460.1 L34238.4,31460.1 L34748,31082.1 L34748.1,31082 L35218.3,30655.9 L35218.3,30655.8 L35644.5,30185.6 L35644.5,30185.6 L36022.5,29675.9 L36022.6,29675.8 L36348.8,29131.6 L36348.9,29131.5 L36620.2,28557.8 L36620.2,28557.8 L36834,27960.3 L36834,27960.2 L36988.2,27344.7 L36988.2,27344.6 L37081.3,26716.9 L37081.3,26716.8 L37112.4,26083 L37112.4,26083 L37112.4,26082.9 L37081.3,25449.2 L37081.3,25449.1 L36988.2,24821.4 L36988.2,24821.3 L36834,24205.8 L36834,24205.7 L36620.2,23608.2 L36620.2,23608.1 L36348.9,23034.5 L36348.8,23034.4 L36022.6,22490.2 L36022.5,22490.1 L35887.5,22308 L35887.2,22307.7 L35886.8,22307.6 L35886.4,22307.6 L35886.1,22307.8 L35798.8,22373.2 L35594.3,22419.3 L35388.9,22377.5 L35218.6,22255 L34864.3,21864.1 L34864.3,21864.1 L34512.3,21545.1 L34397.3,21390.9 L34349,21204.9 L34374.4,21014.4 L34431.8,20914 L34431.9,20913.6 L34431.9,20913.3 L34431.8,20913 L34431.6,20912.7 L34094.8,20619.9 L34094.6,20619.8 L33694,20379.7 L33693.9,20379.6 L33120.3,20108.3 L33120.2,20108.3 L32522.8,19894.5 L32522.7,19894.5 L31907.2,19740.3 L31907.1,19740.3 L31279.4,19647.2 L31279.3,19647.2 L30645.5,19616 L30645.4,19616 L30011.6,19647.2 L30011.5,19647.2 L29383.9,19740.3 M28554.6,21035.1 L29059.4,20854.5 L29579.5,20724.2 L30109.9,20645.5 L30645.5,20619.2 L31181,20645.5 L31711.4,20724.2 L32231.5,20854.5 L32736.4,21035.1 L33221.1,21264.4 L33681,21540 L34111.6,21859.4 L34174.4,21916.3 L34508.9,22219.5 L34847.5,22593.1 L34869,22616.8 L35188.4,23047.5 L35464.1,23507.4 L35693.3,23992.1 L35874,24496.9 L36004.3,25017.1 L36082.9,25547.5 L36109.2,26083 L36082.9,26618.5 L36004.3,27148.9 L35874,27669 L35693.3,28173.9 L35464.1,28658.6 L35188.4,29118.5 L34869,29549.2 L34508.9,29946.5 L34111.6,30306.6 L33681,30626 L33221.1,30901.6 L32747.8,31125.5 L32736.4,31130.9 L32231.5,31311.5 L31931.5,31386.7 L31711.4,31441.8 L31269.5,31507.3 L31181,31520.5 L30645.5,31546.8 L30413.5,31535.4 L30109.9,31520.5 L29579.5,31441.8 L29059.4,31311.5 L28554.6,31130.9 L28069.9,30901.6 L27727.7,30696.5 L27610,30626 L27179.3,30306.6 L27042.4,30182.5 L26782,29946.5 L26421.9,29549.2 L26102.5,29118.5 L25826.9,28658.6 L25597.6,28173.9 L25417,27669 L25286.7,27148.9 L25208,26618.5 L25181.7,26083 L25208,25547.5 L25286.7,25017.1 L25417,24496.9 L25597.6,23992.1 L25826.9,23507.4 L26102.5,23047.5 L26421.9,22616.8 L26782,22219.5 L27179.3,21859.4 L27610,21540 L27784.4,21435.5 L28069.9,21264.4 L28554.6,21035.1"/>
</g>

<g fill="none" stroke="#000000" stroke-opacity="1" stroke-width="1" stroke-linecap="square" stroke-linejoin="bevel" transform="matrix(0.999983,0,0,-0.999983,1001.48,53171)"
font-family="MS Shell Dlg 2" font-size="10.3125" font-weight="400" font-style="normal" 
>
</g>

<g fill="none" stroke="#000000" stroke-opacity="1" stroke-width="1" stroke-linecap="square" stroke-linejoin="bevel" transform="matrix(0.999983,0,0,-0.999983,1001.48,53171)"
font-family="MS Shell Dlg 2" font-size="10.3125" font-weight="400" font-style="normal" 
>
</g>

<g fill="#333333" fill-opacity="0.2" stroke="#333333" stroke-opacity="1" stroke-width="1" stroke-linecap="round" stroke-linejoin="round" transform="matrix(0.999983,0,0,-0.999983,1001.48,53171)"
font-family="MS Shell Dlg 2" font-size="10.3125" font-weight="400" font-style="normal" 
>
<path vector-effect="non-scaling-stroke" fill-rule="evenodd" d="M26804.1,15428.6 L26804.3,15428.9 L26804.6,15429 L26804.9,15429.1 L26805.3,15429 L27220.9,15256 L27221.2,15255.8 L27221.4,15255.4 L27221.5,15255 L27221.4,15254.7 L25058.2,10058.8 L25058,10058.5 L25057.6,10058.3 L25057.3,10058.2 L25056.9,10058.3 L24641.3,10231.3 L24640.9,10231.6 L24640.7,10232 L24640.7,10232.5 L24678.9,10422.9 L24641.2,10614.3 L24533.1,10776.7 L24371,10885.5 L24279.6,10923.5 L23403.7,11288.2 L23402.8,11288.4 L23402.4,11288.6 L23402.1,11288.9 L23402,11289.3 L23402.1,11289.7 L25181.1,15562.7 L25181.4,15563.1 L25181.8,15563.3 L25182.2,15563.4 L25182.6,15563.2 L25183.4,15562.7 L26150.7,15159.9 L26342,15121.5 L26533.4,15159.2 L26695.8,15267.3 L26804.1,15428.6"/>
</g>

<g fill="none" stroke="#000000" stroke-opacity="1" stroke-width="1" stroke-linecap="square" stroke-linejoin="bevel" transform="matrix(0.999983,0,0,-0.999983,1001.48,53171)"
font-family="MS Shell Dlg 2" font-size="10.3125" font-weight="400" font-style="normal" 
>
</g>

<g fill="none" stroke="#000000" stroke-opacity="1" stroke-width="1" stroke-linecap="square" stroke-linejoin="bevel" transform="matrix(0.999983,0,0,-0.999983,1001.48,53171)"
font-family="MS Shell Dlg 2" font-size="10.3125" font-weight="400" font-style="normal" 
>
</g>

<g fill="#333333" fill-opacity="0.2" stroke="#333333" stroke-opacity="1" stroke-width="1" stroke-linecap="round" stroke-linejoin="round" transform="matrix(0.999983,0,0,-0.999983,1001.48,53171)"
font-family="MS Shell Dlg 2" font-size="10.3125" font-weight="400" font-style="normal" 
>
<path vector-effect="non-scaling-stroke" fill-rule="evenodd" d="M40139.3,15999.7 L40139.2,16000.1 L40139.3,16000.5 L40139.5,16000.9 L40479.3,16296.3 L40479.6,16296.5 L40480,16296.5 L40480.4,16296.4 L40480.7,16296.2 L44998,11100.4 L44998.2,11100 L44998.2,11099.6 L44998.1,11099.3 L44997.9,11098.9 L44658.1,10803.6 L44657.7,10803.4 L44657.3,10803.3 L44656.9,10803.5 L44503.2,10922.5 L44315,10973.8 L44121.5,10949.1 L43952.1,10852.3 L43877.3,10787.3 L43161.3,10164.8 L43160.8,10164 L43160.4,10163.8 L43160,10163.7 L43159.6,10163.7 L43159.2,10164 L39297.8,14605.5 L39297.5,14605.8 L39297.5,14606.3 L39297.7,14606.7 L39298,14607 L39298.8,14607.4 L40014.8,15229.9 L40089.6,15294.9 L40209,15449.2 L40260.3,15637.4 L40235.7,15830.9 L40139.3,15999.7"/>
</g>

<g fill="none" stroke="#000000" stroke-opacity="1" stroke-width="1" stroke-linecap="square" stroke-linejoin="bevel" transform="matrix(0.999983,0,0,-0.999983,1001.48,53171)"
font-family="MS Shell Dlg 2" font-size="10.3125" font-weight="400" font-style="normal" 
>
</g>

<g fill="none" stroke="#000000" stroke-opacity="1" stroke-width="1" stroke-linecap="square" stroke-linejoin="bevel" transform="matrix(0.999983,0,0,-0.999983,1001.48,53171)"
font-family="MS Shell Dlg 2" font-size="10.3125" font-weight="400" font-style="normal" 
>
</g>

<g fill="#333333" fill-opacity="0.2" stroke="#333333" stroke-opacity="1" stroke-width="1" stroke-linecap="round" stroke-linejoin="round" transform="matrix(0.999983,0,0,-0.999983,1001.48,53171)"
font-family="MS Shell Dlg 2" font-size="10.3125" font-weight="400" font-style="normal" 
>
<path vector-effect="non-scaling-stroke" fill-rule="evenodd" d="M8039.69,52350.7 L8700.03,52924.8 L8700.14,52924.9 L8948.16,53083.2 L8948.43,53083.3 L9231.78,53162.6 L9231.92,53162.6 L9232.09,53162.6 L9232.15,53162.6 L9356.9,53170.4 L9357.18,53170.4 L9771.84,53080.4 L9772.22,53080.2 L10112.2,52826.3 L10112.4,52826.2 L10412,52481.6 L28742.5,52481.6 L28742.7,52481.6 L28879.2,52451.5 L29650.1,52479.2 L29750.3,52482.7 L30749.4,52518.5 L30749.6,52518.5 L30933.1,52481.6 L39463.3,52481.6 L39518.4,52567 L39518.7,52567.3 L39802.8,52779.5 L39803.1,52779.6 L40143.4,52879.4 L40143.5,52879.4 L40143.7,52879.4 L40143.8,52879.4 L40250.4,52885.1 L40250.6,52885.1 L40635,52808.3 L40635.2,52808.2 L41282.6,52538.7 L41558.1,52424 L41742.4,52347.2 L41791.5,52385.6 L41791.9,52385.7 L42219.1,52481.6 L42219.3,52481.6 L60884.2,52481.6 L60884.4,52481.6 L61267,52405.4 L61267.4,52405.3 L61591.8,52188.5 L61592.1,52188.2 L61808.9,51863.8 L61809,51863.5 L61885.1,51480.8 L61885.2,51480.6 L61885.2,0 L61885.1,-0.19509 L61809,-382.879 L61808.9,-383.239 L61592.1,-707.662 L61591.8,-707.938 L61267.4,-924.711 L61267,-924.86 L60884.4,-1000.98 L60884.2,-1001 L54311,-1001 L54310.9,-1000.98 L53957.6,-936.511 L53957.3,-936.384 L53847.1,-870.142 L53186.8,-1444.24 L53186.7,-1444.33 L52933,-1605.12 L52932.7,-1605.24 L52642.8,-1683.45 L52642.6,-1683.48 L52642.4,-1683.5 L52642.2,-1683.49 L52167,-1621.72 L52166.5,-1621.55 L51774.6,-1345.78 L51774.5,-1345.61 L51474.8,-1001 L21542.8,-1001 L21489.7,-1083.66 L21489.5,-1083.92 L21209.5,-1295.49 L21209.2,-1295.65 L20873.4,-1397.5 L20873.3,-1397.53 L20873.1,-1397.55 L20872.9,-1397.55 L20403.9,-1340.85 L20403.7,-1340.79 L20370.4,-1327.64 L20370.4,-1327.63 L20113.7,-1220.75 L19447.5,-943.378 L19354.9,-904.833 L19263.2,-866.661 L19214.1,-904.972 L19213.7,-905.159 L18786.5,-1000.98 L18786.3,-1001 L0,-1001 L-0.19509,-1000.98 L-382.879,-924.86 L-383.239,-924.711 L-707.662,-707.938 L-707.938,-707.662 L-924.711,-383.239 L-924.86,-382.879 L-1000.98,-0.19509 L-1001,0 L-1001,51480.6 L-1000.98,51480.8 L-924.86,51863.5 L-924.711,51863.8 L-707.938,52188.2 L-707.662,52188.5 L-383.239,52405.3 L-382.879,52405.4 L-0.19509,52481.6 L0,52481.6 L7575.81,52481.6 L7575.99,52481.6 L7929.24,52417.1 L7929.58,52417 L8039.69,52350.7 M30784.4,51517.1 L30285.5,51499.3 L30285.2,51499.3 L30284.9,51499.5 L30284.6,51499.7 L30284.5,51500 L30239.8,51689.1 L30125.7,51847.3 L29959.7,51949.8 L29767,51981 L29668.1,51977.5 L28719.9,51943.5 L28530,51898.6 L28371.7,51784.5 L28269.2,51618.5 L28246.9,51480.4 L28246.7,51480.1 L28246.5,51479.8 L28246.2,51479.6 L28245.9,51479.6 L10554.2,51479.6 L10553.8,51479.7 L10553.4,51479.9 L10429.4,51622.6 L10429.2,51623.1 L10425.9,51645.8 L10330.9,51809.7 L9734.2,52496.1 L9579.86,52615.6 L9391.64,52666.9 L9198.12,52642.2 L9028.67,52545.4 L8274.94,51890.1 L8200.2,51825.1 L8080.73,51670.8 L8029.42,51482.6 L8054.03,51289.1 L8150.45,51120.3 L8150.58,51119.9 L8150.5,51119.5 L8150.23,51119.1 L7810.5,50823.7 L7810.16,50823.5 L7809.77,50823.5 L7809.4,50823.6 L7809.09,50823.8 L7808.97,50824 L7615.34,51162.7 L7615.21,51163.1 L7574.93,51479.6 L1,51479.6 L1,1 L18785.1,1 L18785,1.62477 L18785,2.01495 L18861.8,384.559 L18861.9,384.887 L18862.1,385.149 L18862.4,385.314 L18862.8,385.362 L18863.1,385.286 L19278.8,212.246 L19279,212.063 L19279.3,211.793 L19279.4,211.468 L19279.4,211.126 L19241.1,20.6659 L19278.8,-170.737 L19386.9,-333.139 L19549,-441.872 L19640.4,-479.94 L20306.6,-757.313 L20562.5,-863.826 L20753.8,-902.253 L20945.2,-864.542 L21107.6,-756.455 L21216.4,-594.363 L21383.4,-193.271 L21421.8,-4.31004 L21421,-0.18623 L21421,0.24954 L21421.2,0.63787 L21421.6,0.90495 L21422,1 L51931,1 L51931.4,0.90998 L51931.7,0.65611 L52530,-687.508 L52906.8,-359.977 L52907.1,-359.8 L52907.4,-359.732 L52907.7,-359.781 L52908,-359.941 L53061.6,-478.86 L53249.9,-530.16 L53443.4,-505.527 L53612.8,-408.662 L53687.6,-343.678 L54287.8,178.161 L54288.1,178.344 L54288.5,178.406 L54288.8,178.34 L54289.1,178.155 L54289.3,177.874 L54289.4,177.532 L54311.9,1 L60883.2,1 L60883.2,51479.6 L42449.8,51479.6 L42449.5,51479.6 L42449.2,51479.8 L42333.6,51557.3 L41366.3,51960.1 L41174.9,51998.5 L40983.6,51960.8 L40821.2,51852.7 L40712.9,51691.4 L40712.5,51691.1 L40712.1,51690.9 L40711.7,51691 L40250.8,51882.9 L40083.2,51480.2 L40083,51479.9 L40082.6,51479.7 L40082.3,51479.6 L30786.7,51479.6 L30786.3,51479.7 L30786,51479.9 L30785.8,51480.2 L30785.7,51480.6 L30784.4,51517.1"/>
</g>

<g fill="none" stroke="#000000" stroke-opacity="1" stroke-width="1" stroke-linecap="square" stroke-linejoin="bevel" transform="matrix(0.999983,0,0,-0.999983,1001.48,53171)"
font-family="MS Shell Dlg 2" font-size="10.3125" font-weight="400" font-style="normal" 
>
</g>

<g fill="none" stroke="#000000" stroke-opacity="1" stroke-width="1" stroke-linecap="square" stroke-linejoin="bevel" transform="matrix(0.999983,0,0,-0.999983,1001.48,53171)"
font-family="MS Shell Dlg 2" font-size="10.3125" font-weight="400" font-style="normal" 
>
</g>

<g fill="#333333" fill-opacity="0.2" stroke="#333333" stroke-opacity="1" stroke-width="1" stroke-linecap="round" stroke-linejoin="round" transform="matrix(0.999983,0,0,-0.999983,1001.48,53171)"
font-family="MS Shell Dlg 2" font-size="10.3125" font-weight="400" font-style="normal" 
>
<path vector-effect="non-scaling-stroke" fill-rule="evenodd" d="M37492.5,41100.7 L37492.8,41101 L37493.3,41101.1 L37493.7,41101 L37909.3,40928 L37909.6,40927.8 L37909.9,40927.5 L37909.9,40927.1 L37909.9,40926.7 L35803.5,35867.4 L35803.2,35867.1 L35802.9,35866.9 L35802.5,35866.8 L35802.1,35866.9 L35386.5,36039.9 L35386.2,36040.1 L35386,36040.4 L35385.9,36040.7 L35385.9,36041 L35424.2,36231.5 L35386.5,36422.9 L35278.4,36585.3 L35116.3,36694 L35024.9,36732.1 L34149,37096.8 L34148.1,37096.9 L34147.7,37097.1 L34147.4,37097.5 L34147.3,37097.9 L34147.3,37098.3 L35008.4,39166.5 L35869.5,41234.8 L35869.8,41235.1 L35870.2,41235.3 L35870.6,41235.4 L35871,41235.2 L35871.8,41234.7 L36839.1,40832 L37030.4,40793.5 L37221.8,40831.2 L37384.2,40939.3 L37492.5,41100.7"/>
</g>

<g fill="none" stroke="#000000" stroke-opacity="1" stroke-width="1" stroke-linecap="square" stroke-linejoin="bevel" transform="matrix(0.999983,0,0,-0.999983,1001.48,53171)"
font-family="MS Shell Dlg 2" font-size="10.3125" font-weight="400" font-style="normal" 
>
</g>

<g fill="none" stroke="#000000" stroke-opacity="1" stroke-width="1" stroke-linecap="square" stroke-linejoin="bevel" transform="matrix(0.999983,0,0,-0.999983,1001.48,53171)"
font-family="MS Shell Dlg 2" font-size="10.3125" font-weight="400" font-style="normal" 
>
</g>

<g fill="#333333" fill-opacity="0.2" stroke="#333333" stroke-opacity="1" stroke-width="1" stroke-linecap="round" stroke-linejoin="round" transform="matrix(0.999983,0,0,-0.999983,1001.48,53171)"
font-family="MS Shell Dlg 2" font-size="10.3125" font-weight="400" font-style="normal" 
>
<path vector-effect="non-scaling-stroke" fill-rule="evenodd" d="M29732.9,36232.3 L29732.7,36231.9 L29732.4,36231.6 L29731.9,36231.5 L29282,36215.4 L29281.6,36215.4 L29281.3,36215.6 L29281.1,36216 L29281,36216.3 L29099.8,41275.6 L29099.9,41276 L29100.1,41276.3 L29100.4,41276.6 L29100.8,41276.6 L29550.7,41292.8 L29551,41292.7 L29551.3,41292.6 L29551.6,41292.3 L29551.7,41292 L29596.4,41102.9 L29710.5,40944.7 L29876.5,40842.2 L30069.1,40811 L30168.1,40814.5 L31116.3,40848.5 L31117.2,40848.7 L31117.5,40848.7 L31117.9,40848.6 L31118.1,40848.4 L31118.3,40848.1 L31118.4,40847.8 L31137.1,40325.1 L31263.8,36787.5 L31263.8,36787.1 L31263.6,36786.8 L31263.3,36786.6 L31263,36786.4 L31262.6,36786.4 L31261.7,36786.6 L30214.6,36749.1 L30024.7,36704.2 L29866.4,36590.1 L29763.9,36424.1 L29732.9,36232.3"/>
</g>

<g fill="none" stroke="#000000" stroke-opacity="1" stroke-width="1" stroke-linecap="square" stroke-linejoin="bevel" transform="matrix(0.999983,0,0,-0.999983,1001.48,53171)"
font-family="MS Shell Dlg 2" font-size="10.3125" font-weight="400" font-style="normal" 
>
</g>

<g fill="none" stroke="#000000" stroke-opacity="1" stroke-width="1" stroke-linecap="square" stroke-linejoin="bevel" transform="matrix(0.999983,0,0,-0.999983,1001.48,53171)"
font-family="MS Shell Dlg 2" font-size="10.3125" font-weight="400" font-style="normal" 
>
</g>

<g fill="#333333" fill-opacity="0.2" stroke="#333333" stroke-opacity="1" stroke-width="1" stroke-linecap="round" stroke-linejoin="round" transform="matrix(0.999983,0,0,-0.999983,1001.48,53171)"
font-family="MS Shell Dlg 2" font-size="10.3125" font-weight="400" font-style="normal" 
>
<path vector-effect="non-scaling-stroke" fill-rule="evenodd" d="M17819.7,41671.7 L17819.6,41672.1 L17819.7,41672.6 L17820,41672.9 L18159.7,41968.3 L18160,41968.5 L18160.4,41968.5 L18160.8,41968.4 L18161.1,41968.2 L22559.7,36908.9 L22559.9,36908.6 L22559.9,36908.2 L22559.8,36907.8 L22559.6,36907.5 L22219.9,36612.1 L22219.6,36612 L22219.2,36611.9 L22218.9,36611.9 L22218.6,36612.1 L22065,36731 L21876.8,36782.3 L21683.2,36757.7 L21513.8,36660.8 L20723.1,35973.3 L20722.5,35972.6 L20722.2,35972.4 L20721.9,35972.2 L20721.5,35972.2 L20721.2,35972.3 L20720.9,35972.6 L18423.1,38615.6 L16978.2,40277.5 L16978,40277.9 L16978,40278.3 L16978.1,40278.7 L16978.5,40279 L16979.3,40279.5 L17695.2,40902 L17770,40966.9 L17889.5,41121.3 L17940.8,41309.5 L17916.2,41503 L17819.7,41671.7"/>
</g>

<g fill="none" stroke="#000000" stroke-opacity="1" stroke-width="1" stroke-linecap="square" stroke-linejoin="bevel" transform="matrix(0.999983,0,0,-0.999983,1001.48,53171)"
font-family="MS Shell Dlg 2" font-size="10.3125" font-weight="400" font-style="normal" 
>
</g>

<g fill="none" stroke="#000000" stroke-opacity="1" stroke-width="1" stroke-linecap="square" stroke-linejoin="bevel" transform="matrix(1,0,0,-1,0,54854.9)"
font-family="MS Shell Dlg 2" font-size="10.3125" font-weight="400" font-style="normal" 
>
</g>
</g>
</svg>
