<?xml version="1.0" encoding="UTF-8" standalone="no"?>
<svg width="17183.1mm" height="14918mm"
 xmlns="http://www.w3.org/2000/svg" xmlns:xlink="http://www.w3.org/1999/xlink"  version="1.2" baseProfile="tiny">
<title>SVG Generator Example Drawing</title>
<desc>An SVG drawing created by the SVG Generator</desc>
<defs>
</defs>
<g fill="none" stroke="black" stroke-width="1" fill-rule="evenodd" stroke-linecap="square" stroke-linejoin="bevel" >

<g fill="none" stroke="#000000" stroke-opacity="1" stroke-width="1" stroke-linecap="square" stroke-linejoin="bevel" transform="matrix(1,0,0,-1,0,52859.3)"
font-family="MS Shell Dlg 2" font-size="10.3125" font-weight="400" font-style="normal" 
>
</g>

<g fill="none" stroke="#000000" stroke-opacity="1" stroke-width="1" stroke-linecap="square" stroke-linejoin="bevel" transform="matrix(1,0,0,-1,0,52859.3)"
font-family="MS Shell Dlg 2" font-size="10.3125" font-weight="400" font-style="normal" 
>
</g>

<g fill="none" stroke="#000000" stroke-opacity="1" stroke-width="1" stroke-linecap="square" stroke-linejoin="bevel" transform="matrix(0.999995,0,0,-0.999995,0.499997,52169.9)"
font-family="MS Shell Dlg 2" font-size="10.3125" font-weight="400" font-style="normal" 
>
</g>

<g fill="#333333" fill-opacity="0.2" stroke="#333333" stroke-opacity="1" stroke-width="1" stroke-linecap="round" stroke-linejoin="round" transform="matrix(0.999995,0,0,-0.999995,0.499997,52169.9)"
font-family="MS Shell Dlg 2" font-size="10.3125" font-weight="400" font-style="normal" 
>
<path vector-effect="non-scaling-stroke" fill-rule="evenodd" d="M51931,0 L20923.3,0 L20755.3,-403.507 L20755.1,-403.526 L20498.4,-296.645 L19832.2,-19.2725 L19739.6,19.2725 L18862.8,384.362 L18785.9,1.81807 L18786.3,0 L0,0 L0,51480.6 L7575.81,51480.6 L7616.2,51163.2 L7809.84,50824.5 L8526.66,51447.7 L8602.34,51513.5 L9356.79,52169.4 L9356.95,52169.4 L9356.96,52169.4 L9955.85,51480.6 L28742.5,51480.6 L28736.7,51444.8 L29685.9,51478.8 L29786.1,51482.4 L30785.2,51518.2 L30785.4,51518.1 L30786.7,51480.6 L40082.3,51480.6 L40250.3,51884.1 L40250.4,51884.1 L40897.9,51614.6 L41173.3,51499.9 L42142.8,51096.2 L42219.6,51478.8 L42219.3,51480.6 L60884.2,51480.6 L60884.2,0 L54311,0 L54270.6,317.372 L54077,656.113 L53360.2,32.8984 L53284.5,-32.8984 L52530,-688.826 L52529.9,-688.845 L51931,0 M29384,19741.3 L30011.7,19648.2 L30645.5,19617 L31279.2,19648.2 L31906.9,19741.3 L32522.4,19895.4 L33119.9,20109.2 L33693.5,20380.5 L34237.8,20706.7 L34747.4,21084.7 L34846.6,21174.6 L35217.6,21510.9 L35589.2,21920.8 L35643.7,21981 L36021.7,22490.7 L36348,23035 L36619.3,23608.6 L36833,24206 L36987.2,24821.5 L37080.3,25449.2 L37111.4,26083 L37080.3,26716.8 L36987.2,27344.4 L36833,27960 L36619.3,28557.4 L36348,29131 L36021.7,29675.3 L35643.7,30185 L35217.6,30655.1 L34747.4,31081.3 L34237.8,31459.3 L33693.5,31785.5 L33175.8,32030.4 L33119.9,32056.8 L32522.4,32270.6 L32174.7,32357.7 L31906.9,32424.7 L31416.4,32497.5 L31279.2,32517.8 L30645.5,32549 L30364.4,32535.2 L30011.7,32517.8 L29384,32424.7 L28768.5,32270.6 L28171,32056.8 L27597.4,31785.5 L27213.1,31555.1 L27053.2,31459.3 L26543.5,31081.3 L26370.2,30924.2 L26073.3,30655.1 L25647.2,30185 L25269.2,29675.3 L24943,29131 L24671.7,28557.4 L24457.9,27960 L24303.7,27344.4 L24210.6,26716.8 L24179.5,26083 L24210.6,25449.2 L24303.7,24821.5 L24457.9,24206 L24671.7,23608.6 L24943,23035 L25269.2,22490.7 L25647.2,21981 L26073.3,21510.9 L26543.5,21084.7 L27053.2,20706.7 L27269.8,20576.9 L27597.4,20380.5 L28171,20109.2 L28207.1,20096.3 L28768.5,19895.4 L29384,19741.3 M39687.4,15606.5 L38970.6,14983.3 L43487.9,9787.48 L44204.7,10410.7 L44280.4,10476.5 L44997.2,11099.7 L40479.9,16295.5 L39763.1,15672.3 L39687.4,15606.5 M17367.8,41278.5 L16651,40655.3 L18423.8,38616.2 L21049.6,35596 L21842.1,36285.1 L22558.9,36908.3 L18160.3,41967.5 L17443.5,41344.3 L17367.8,41278.5 M25374.1,16023.8 L23210.9,10828 L24087.8,10462.9 L24180.4,10424.3 L25057.3,10059.2 L27220.5,15255 L26343.6,15620.1 L25374.1,16023.8 M36062.6,41695.8 L35009.4,39166.2 L33956.2,36636.5 L34833.1,36271.4 L34925.6,36232.9 L35802.5,35867.8 L37908.9,40927.1 L37032,41292.2 L36062.6,41695.8 M31280.7,36287.9 L31136.1,40325.1 L31099.5,41347.2 L30150.3,41313.2 L30050.1,41309.6 L29100.8,41275.6 L29282,36216.4 L30231.2,36250.4 L31280.7,36287.9"/>
</g>

<g fill="none" stroke="#000000" stroke-opacity="1" stroke-width="1" stroke-linecap="square" stroke-linejoin="bevel" transform="matrix(0.999995,0,0,-0.999995,0.499997,52169.9)"
font-family="MS Shell Dlg 2" font-size="10.3125" font-weight="400" font-style="normal" 
>
</g>

<g fill="none" stroke="#000000" stroke-opacity="1" stroke-width="1" stroke-linecap="square" stroke-linejoin="bevel" transform="matrix(0.999995,0,0,-0.999995,0.499997,52169.9)"
font-family="MS Shell Dlg 2" font-size="10.3125" font-weight="400" font-style="normal" 
>
</g>

<g fill="#ae5151" fill-opacity="0.2" stroke="#333333" stroke-opacity="1" stroke-width="1" stroke-linecap="round" stroke-linejoin="round" transform="matrix(0.999995,0,0,-0.999995,0.499997,52169.9)"
font-family="MS Shell Dlg 2" font-size="10.3125" font-weight="400" font-style="normal" 
>
<path vector-effect="non-scaling-stroke" fill-rule="evenodd" d="M51931,0 L20923.3,0 L20755.3,-403.507 L20755.1,-403.526 L20498.4,-296.645 L19832.2,-19.2725 L19739.6,19.2725 L18862.8,384.362 L18785.9,1.81807 L18786.3,0 L0,0 L0,51480.6 L7575.81,51480.6 L7616.2,51163.2 L7809.84,50824.5 L8526.66,51447.7 L8602.34,51513.5 L9356.79,52169.4 L9356.95,52169.4 L9356.96,52169.4 L9955.85,51480.6 L28742.5,51480.6 L28736.7,51444.8 L29685.9,51478.8 L29786.1,51482.4 L30785.2,51518.2 L30785.4,51518.1 L30786.7,51480.6 L40082.3,51480.6 L40250.3,51884.1 L40250.4,51884.1 L40897.9,51614.6 L41173.3,51499.9 L42142.8,51096.2 L42219.6,51478.8 L42219.3,51480.6 L60884.2,51480.6 L60884.2,0 L54311,0 L54270.6,317.372 L54077,656.113 L53360.2,32.8984 L53284.5,-32.8984 L52530,-688.826 L52529.9,-688.845 L51931,0 M29384,19741.3 L30011.7,19648.2 L30645.5,19617 L31279.2,19648.2 L31906.9,19741.3 L32522.4,19895.4 L33119.9,20109.2 L33693.5,20380.5 L34237.8,20706.7 L34747.4,21084.7 L34846.6,21174.6 L35217.6,21510.9 L35589.2,21920.8 L35643.7,21981 L36021.7,22490.7 L36348,23035 L36619.3,23608.6 L36833,24206 L36987.2,24821.5 L37080.3,25449.2 L37111.4,26083 L37080.3,26716.8 L36987.2,27344.4 L36833,27960 L36619.3,28557.4 L36348,29131 L36021.7,29675.3 L35643.7,30185 L35217.6,30655.1 L34747.4,31081.3 L34237.8,31459.3 L33693.5,31785.5 L33175.8,32030.4 L33119.9,32056.8 L32522.4,32270.6 L32174.7,32357.7 L31906.9,32424.7 L31416.4,32497.5 L31279.2,32517.8 L30645.5,32549 L30364.4,32535.2 L30011.7,32517.8 L29384,32424.7 L28768.5,32270.6 L28171,32056.8 L27597.4,31785.5 L27213.1,31555.1 L27053.2,31459.3 L26543.5,31081.3 L26370.2,30924.2 L26073.3,30655.1 L25647.2,30185 L25269.2,29675.3 L24943,29131 L24671.7,28557.4 L24457.9,27960 L24303.7,27344.4 L24210.6,26716.8 L24179.5,26083 L24210.6,25449.2 L24303.7,24821.5 L24457.9,24206 L24671.7,23608.6 L24943,23035 L25269.2,22490.7 L25647.2,21981 L26073.3,21510.9 L26543.5,21084.7 L27053.2,20706.7 L27269.8,20576.9 L27597.4,20380.5 L28171,20109.2 L28207.1,20096.3 L28768.5,19895.4 L29384,19741.3 M39687.4,15606.5 L38970.6,14983.3 L43487.9,9787.48 L44204.7,10410.7 L44280.4,10476.5 L44997.2,11099.7 L40479.9,16295.5 L39763.1,15672.3 L39687.4,15606.5 M17367.8,41278.5 L16651,40655.3 L18423.8,38616.2 L21049.6,35596 L21842.1,36285.1 L22558.9,36908.3 L18160.3,41967.5 L17443.5,41344.3 L17367.8,41278.5 M25374.1,16023.8 L23210.9,10828 L24087.8,10462.9 L24180.4,10424.3 L25057.3,10059.2 L27220.5,15255 L26343.6,15620.1 L25374.1,16023.8 M36062.6,41695.8 L35009.4,39166.2 L33956.2,36636.5 L34833.1,36271.4 L34925.6,36232.9 L35802.5,35867.8 L37908.9,40927.1 L37032,41292.2 L36062.6,41695.8 M31280.7,36287.9 L31136.1,40325.1 L31099.5,41347.2 L30150.3,41313.2 L30050.1,41309.6 L29100.8,41275.6 L29282,36216.4 L30231.2,36250.4 L31280.7,36287.9"/>
</g>

<g fill="none" stroke="#000000" stroke-opacity="1" stroke-width="1" stroke-linecap="square" stroke-linejoin="bevel" transform="matrix(0.999995,0,0,-0.999995,0.499997,52169.9)"
font-family="MS Shell Dlg 2" font-size="10.3125" font-weight="400" font-style="normal" 
>
</g>

<g fill="none" stroke="#000000" stroke-opacity="1" stroke-width="1" stroke-linecap="square" stroke-linejoin="bevel" transform="matrix(0.999995,0,0,-0.999995,0.499997,52169.9)"
font-family="MS Shell Dlg 2" font-size="10.3125" font-weight="400" font-style="normal" 
>
</g>

<g fill="#ffff00" fill-opacity="0.2" stroke="#333333" stroke-opacity="1" stroke-width="1" stroke-linecap="round" stroke-linejoin="round" transform="matrix(0.999995,0,0,-0.999995,0.499997,52169.9)"
font-family="MS Shell Dlg 2" font-size="10.3125" font-weight="400" font-style="normal" 
>
<path vector-effect="non-scaling-stroke" fill-rule="evenodd" d="M51931,0 L20923.3,0 L20755.3,-403.507 L20755.1,-403.526 L20498.4,-296.645 L19832.2,-19.2725 L19739.6,19.2725 L18862.8,384.362 L18785.9,1.81807 L18786.3,0 L0,0 L0,51480.6 L7575.81,51480.6 L7616.2,51163.2 L7809.84,50824.5 L8526.66,51447.7 L8602.34,51513.5 L9356.79,52169.4 L9356.95,52169.4 L9356.96,52169.4 L9955.85,51480.6 L28742.5,51480.6 L28736.7,51444.8 L29685.9,51478.8 L29786.1,51482.4 L30785.2,51518.2 L30785.4,51518.1 L30786.7,51480.6 L40082.3,51480.6 L40250.3,51884.1 L40250.4,51884.1 L40897.9,51614.6 L41173.3,51499.9 L42142.8,51096.2 L42219.6,51478.8 L42219.3,51480.6 L60884.2,51480.6 L60884.2,0 L54311,0 L54270.6,317.372 L54077,656.113 L53360.2,32.8984 L53284.5,-32.8984 L52530,-688.826 L52529.9,-688.845 L51931,0 M29384,19741.3 L30011.7,19648.2 L30645.5,19617 L31279.2,19648.2 L31906.9,19741.3 L32522.4,19895.4 L33119.9,20109.2 L33693.5,20380.5 L34237.8,20706.7 L34747.4,21084.7 L34846.6,21174.6 L35217.6,21510.9 L35589.2,21920.8 L35643.7,21981 L36021.7,22490.7 L36348,23035 L36619.3,23608.6 L36833,24206 L36987.2,24821.5 L37080.3,25449.2 L37111.4,26083 L37080.3,26716.8 L36987.2,27344.4 L36833,27960 L36619.3,28557.4 L36348,29131 L36021.7,29675.3 L35643.7,30185 L35217.6,30655.1 L34747.4,31081.3 L34237.8,31459.3 L33693.5,31785.5 L33175.8,32030.4 L33119.9,32056.8 L32522.4,32270.6 L32174.7,32357.7 L31906.9,32424.7 L31416.4,32497.5 L31279.2,32517.8 L30645.5,32549 L30364.4,32535.2 L30011.7,32517.8 L29384,32424.7 L28768.5,32270.6 L28171,32056.8 L27597.4,31785.5 L27213.1,31555.1 L27053.2,31459.3 L26543.5,31081.3 L26370.2,30924.2 L26073.3,30655.1 L25647.2,30185 L25269.2,29675.3 L24943,29131 L24671.7,28557.4 L24457.9,27960 L24303.7,27344.4 L24210.6,26716.8 L24179.5,26083 L24210.6,25449.2 L24303.7,24821.5 L24457.9,24206 L24671.7,23608.6 L24943,23035 L25269.2,22490.7 L25647.2,21981 L26073.3,21510.9 L26543.5,21084.7 L27053.2,20706.7 L27269.8,20576.9 L27597.4,20380.5 L28171,20109.2 L28207.1,20096.3 L28768.5,19895.4 L29384,19741.3 M39687.4,15606.5 L38970.6,14983.3 L43487.9,9787.48 L44204.7,10410.7 L44280.4,10476.5 L44997.2,11099.7 L40479.9,16295.5 L39763.1,15672.3 L39687.4,15606.5 M17367.8,41278.5 L16651,40655.3 L18423.8,38616.2 L21049.6,35596 L21842.1,36285.1 L22558.9,36908.3 L18160.3,41967.5 L17443.5,41344.3 L17367.8,41278.5 M25374.1,16023.8 L23210.9,10828 L24087.8,10462.9 L24180.4,10424.3 L25057.3,10059.2 L27220.5,15255 L26343.6,15620.1 L25374.1,16023.8 M36062.6,41695.8 L35009.4,39166.2 L33956.2,36636.5 L34833.1,36271.4 L34925.6,36232.9 L35802.5,35867.8 L37908.9,40927.1 L37032,41292.2 L36062.6,41695.8 M31280.7,36287.9 L31136.1,40325.1 L31099.5,41347.2 L30150.3,41313.2 L30050.1,41309.6 L29100.8,41275.6 L29282,36216.4 L30231.2,36250.4 L31280.7,36287.9"/>
</g>

<g fill="none" stroke="#000000" stroke-opacity="1" stroke-width="1" stroke-linecap="square" stroke-linejoin="bevel" transform="matrix(0.999995,0,0,-0.999995,0.499997,52169.9)"
font-family="MS Shell Dlg 2" font-size="10.3125" font-weight="400" font-style="normal" 
>
</g>

<g fill="none" stroke="#000000" stroke-opacity="1" stroke-width="1" stroke-linecap="square" stroke-linejoin="bevel" transform="matrix(0.999995,0,0,-0.999995,0.499997,52169.9)"
font-family="MS Shell Dlg 2" font-size="10.3125" font-weight="400" font-style="normal" 
>
</g>

<g fill="#ae5151" fill-opacity="0.2" stroke="#333333" stroke-opacity="1" stroke-width="1" stroke-linecap="round" stroke-linejoin="round" transform="matrix(0.999995,0,0,-0.999995,0.499997,52169.9)"
font-family="MS Shell Dlg 2" font-size="10.3125" font-weight="400" font-style="normal" 
>
<path vector-effect="non-scaling-stroke" fill-rule="evenodd" d="M51931,0 L20923.3,0 L20755.3,-403.507 L20755.1,-403.526 L20498.4,-296.645 L19832.2,-19.2725 L19739.6,19.2725 L18862.8,384.362 L18785.9,1.81807 L18786.3,0 L0,0 L0,51480.6 L7575.81,51480.6 L7616.2,51163.2 L7809.84,50824.5 L8526.66,51447.7 L8602.34,51513.5 L9356.79,52169.4 L9356.95,52169.4 L9356.96,52169.4 L9955.85,51480.6 L28742.5,51480.6 L28736.7,51444.8 L29685.9,51478.8 L29786.1,51482.4 L30785.2,51518.2 L30785.4,51518.1 L30786.7,51480.6 L40082.3,51480.6 L40250.3,51884.1 L40250.4,51884.1 L40897.9,51614.6 L41173.3,51499.9 L42142.8,51096.2 L42219.6,51478.8 L42219.3,51480.6 L60884.2,51480.6 L60884.2,0 L54311,0 L54270.6,317.372 L54077,656.113 L53360.2,32.8984 L53284.5,-32.8984 L52530,-688.826 L52529.9,-688.845 L51931,0 M29384,19741.3 L30011.7,19648.2 L30645.5,19617 L31279.2,19648.2 L31906.9,19741.3 L32522.4,19895.4 L33119.9,20109.2 L33693.5,20380.5 L34237.8,20706.7 L34747.4,21084.7 L34846.6,21174.6 L35217.6,21510.9 L35589.2,21920.8 L35643.7,21981 L36021.7,22490.7 L36348,23035 L36619.3,23608.6 L36833,24206 L36987.2,24821.5 L37080.3,25449.2 L37111.4,26083 L37080.3,26716.8 L36987.2,27344.4 L36833,27960 L36619.3,28557.4 L36348,29131 L36021.7,29675.3 L35643.7,30185 L35217.6,30655.1 L34747.4,31081.3 L34237.8,31459.3 L33693.5,31785.5 L33175.8,32030.4 L33119.9,32056.8 L32522.4,32270.6 L32174.7,32357.7 L31906.9,32424.7 L31416.4,32497.5 L31279.2,32517.8 L30645.5,32549 L30364.4,32535.2 L30011.7,32517.8 L29384,32424.7 L28768.5,32270.6 L28171,32056.8 L27597.4,31785.5 L27213.1,31555.1 L27053.2,31459.3 L26543.5,31081.3 L26370.2,30924.2 L26073.3,30655.1 L25647.2,30185 L25269.2,29675.3 L24943,29131 L24671.7,28557.4 L24457.9,27960 L24303.7,27344.4 L24210.6,26716.8 L24179.5,26083 L24210.6,25449.2 L24303.7,24821.5 L24457.9,24206 L24671.7,23608.6 L24943,23035 L25269.2,22490.7 L25647.2,21981 L26073.3,21510.9 L26543.5,21084.7 L27053.2,20706.7 L27269.8,20576.9 L27597.4,20380.5 L28171,20109.2 L28207.1,20096.3 L28768.5,19895.4 L29384,19741.3 M39687.4,15606.5 L38970.6,14983.3 L43487.9,9787.48 L44204.7,10410.7 L44280.4,10476.5 L44997.2,11099.7 L40479.9,16295.5 L39763.1,15672.3 L39687.4,15606.5 M17367.8,41278.5 L16651,40655.3 L18423.8,38616.2 L21049.6,35596 L21842.1,36285.1 L22558.9,36908.3 L18160.3,41967.5 L17443.5,41344.3 L17367.8,41278.5 M25374.1,16023.8 L23210.9,10828 L24087.8,10462.9 L24180.4,10424.3 L25057.3,10059.2 L27220.5,15255 L26343.6,15620.1 L25374.1,16023.8 M36062.6,41695.8 L35009.4,39166.2 L33956.2,36636.5 L34833.1,36271.4 L34925.6,36232.9 L35802.5,35867.8 L37908.9,40927.1 L37032,41292.2 L36062.6,41695.8 M31280.7,36287.9 L31136.1,40325.1 L31099.5,41347.2 L30150.3,41313.2 L30050.1,41309.6 L29100.8,41275.6 L29282,36216.4 L30231.2,36250.4 L31280.7,36287.9"/>
</g>

<g fill="none" stroke="#000000" stroke-opacity="1" stroke-width="1" stroke-linecap="square" stroke-linejoin="bevel" transform="matrix(0.999995,0,0,-0.999995,0.499997,52169.9)"
font-family="MS Shell Dlg 2" font-size="10.3125" font-weight="400" font-style="normal" 
>
</g>

<g fill="none" stroke="#000000" stroke-opacity="1" stroke-width="1" stroke-linecap="square" stroke-linejoin="bevel" transform="matrix(0.999995,0,0,-0.999995,0.499997,52169.9)"
font-family="MS Shell Dlg 2" font-size="10.3125" font-weight="400" font-style="normal" 
>
</g>

<g fill="#333333" fill-opacity="0.2" stroke="#333333" stroke-opacity="1" stroke-width="1" stroke-linecap="round" stroke-linejoin="round" transform="matrix(0.999995,0,0,-0.999995,0.499997,52169.9)"
font-family="MS Shell Dlg 2" font-size="10.3125" font-weight="400" font-style="normal" 
>
<path vector-effect="non-scaling-stroke" fill-rule="evenodd" d="M51931,0 L20923.3,0 L20755.3,-403.507 L20755.1,-403.526 L20498.4,-296.645 L19832.2,-19.2725 L19739.6,19.2725 L18862.8,384.362 L18785.9,1.81807 L18786.3,0 L0,0 L0,51480.6 L7575.81,51480.6 L7616.2,51163.2 L7809.84,50824.5 L8526.66,51447.7 L8602.34,51513.5 L9356.79,52169.4 L9356.95,52169.4 L9356.96,52169.4 L9955.85,51480.6 L28742.5,51480.6 L28736.7,51444.8 L29685.9,51478.8 L29786.1,51482.4 L30785.2,51518.2 L30785.4,51518.1 L30786.7,51480.6 L40082.3,51480.6 L40250.3,51884.1 L40250.4,51884.1 L40897.9,51614.6 L41173.3,51499.9 L42142.8,51096.2 L42219.6,51478.8 L42219.3,51480.6 L60884.2,51480.6 L60884.2,0 L54311,0 L54270.6,317.372 L54077,656.113 L53360.2,32.8984 L53284.5,-32.8984 L52530,-688.826 L52529.9,-688.845 L51931,0 M29384,19741.3 L30011.7,19648.2 L30645.5,19617 L31279.2,19648.2 L31906.9,19741.3 L32522.4,19895.4 L33119.9,20109.2 L33693.5,20380.5 L34237.8,20706.7 L34747.4,21084.7 L34846.6,21174.6 L35217.6,21510.9 L35589.2,21920.8 L35643.7,21981 L36021.7,22490.7 L36348,23035 L36619.3,23608.6 L36833,24206 L36987.2,24821.5 L37080.3,25449.2 L37111.4,26083 L37080.3,26716.8 L36987.2,27344.4 L36833,27960 L36619.3,28557.4 L36348,29131 L36021.7,29675.3 L35643.7,30185 L35217.6,30655.1 L34747.4,31081.3 L34237.8,31459.3 L33693.5,31785.5 L33175.8,32030.4 L33119.9,32056.8 L32522.4,32270.6 L32174.7,32357.7 L31906.9,32424.7 L31416.4,32497.5 L31279.2,32517.8 L30645.5,32549 L30364.4,32535.2 L30011.7,32517.8 L29384,32424.7 L28768.5,32270.6 L28171,32056.8 L27597.4,31785.5 L27213.1,31555.1 L27053.2,31459.3 L26543.5,31081.3 L26370.2,30924.2 L26073.3,30655.1 L25647.2,30185 L25269.2,29675.3 L24943,29131 L24671.7,28557.4 L24457.9,27960 L24303.7,27344.4 L24210.6,26716.8 L24179.5,26083 L24210.6,25449.2 L24303.7,24821.5 L24457.9,24206 L24671.7,23608.6 L24943,23035 L25269.2,22490.7 L25647.2,21981 L26073.3,21510.9 L26543.5,21084.7 L27053.2,20706.7 L27269.8,20576.9 L27597.4,20380.5 L28171,20109.2 L28207.1,20096.3 L28768.5,19895.4 L29384,19741.3 M39687.4,15606.5 L38970.6,14983.3 L43487.9,9787.48 L44204.7,10410.7 L44280.4,10476.5 L44997.2,11099.7 L40479.9,16295.5 L39763.1,15672.3 L39687.4,15606.5 M17367.8,41278.5 L16651,40655.3 L18423.8,38616.2 L21049.6,35596 L21842.1,36285.1 L22558.9,36908.3 L18160.3,41967.5 L17443.5,41344.3 L17367.8,41278.5 M25374.1,16023.8 L23210.9,10828 L24087.8,10462.9 L24180.4,10424.3 L25057.3,10059.2 L27220.5,15255 L26343.6,15620.1 L25374.1,16023.8 M36062.6,41695.8 L35009.4,39166.2 L33956.2,36636.5 L34833.1,36271.4 L34925.6,36232.9 L35802.5,35867.8 L37908.9,40927.1 L37032,41292.2 L36062.6,41695.8 M31280.7,36287.9 L31136.1,40325.1 L31099.5,41347.2 L30150.3,41313.2 L30050.1,41309.6 L29100.8,41275.6 L29282,36216.4 L30231.2,36250.4 L31280.7,36287.9"/>
</g>

<g fill="none" stroke="#000000" stroke-opacity="1" stroke-width="1" stroke-linecap="square" stroke-linejoin="bevel" transform="matrix(0.999995,0,0,-0.999995,0.499997,52169.9)"
font-family="MS Shell Dlg 2" font-size="10.3125" font-weight="400" font-style="normal" 
>
</g>

<g fill="none" stroke="#000000" stroke-opacity="1" stroke-width="1" stroke-linecap="square" stroke-linejoin="bevel" transform="matrix(1,0,0,-1,0,52859.3)"
font-family="MS Shell Dlg 2" font-size="10.3125" font-weight="400" font-style="normal" 
>
</g>
</g>
</svg>
