<?xml version="1.0" encoding="UTF-8" standalone="no"?>
<svg width="3410.09mm" height="8190.65mm"
 xmlns="http://www.w3.org/2000/svg" xmlns:xlink="http://www.w3.org/1999/xlink"  version="1.2" baseProfile="tiny">
<title>SVG Generator Example Drawing</title>
<desc>An SVG drawing created by the SVG Generator</desc>
<defs>
</defs>
<g fill="none" stroke="black" stroke-width="1" fill-rule="evenodd" stroke-linecap="square" stroke-linejoin="bevel" >

<g fill="none" stroke="#000000" stroke-opacity="1" stroke-width="1" stroke-linecap="square" stroke-linejoin="bevel" transform="matrix(1,0,0,-1,0,29022.2)"
font-family="MS Shell Dlg 2" font-size="10.3125" font-weight="400" font-style="normal" 
>
</g>

<g fill="none" stroke="#000000" stroke-opacity="1" stroke-width="1" stroke-linecap="square" stroke-linejoin="bevel" transform="matrix(1,0,0,-1,0,29022.2)"
font-family="MS Shell Dlg 2" font-size="10.3125" font-weight="400" font-style="normal" 
>
</g>

<g fill="none" stroke="#000000" stroke-opacity="1" stroke-width="1" stroke-linecap="square" stroke-linejoin="bevel" transform="matrix(0.999924,0,0,-0.999924,-24516.1,40387.6)"
font-family="MS Shell Dlg 2" font-size="10.3125" font-weight="400" font-style="normal" 
>
</g>

<g fill="#333333" fill-opacity="0.2" stroke="#333333" stroke-opacity="1" stroke-width="1" stroke-linecap="round" stroke-linejoin="round" transform="matrix(0.999924,0,0,-0.999924,-24516.1,40387.6)"
font-family="MS Shell Dlg 2" font-size="10.3125" font-weight="400" font-style="normal" 
>
<path vector-effect="non-scaling-stroke" fill-rule="evenodd" d="M24518.4,11366.8 L25913,14716.2 L24518.4,11366.8"/>
</g>

<g fill="none" stroke="#000000" stroke-opacity="1" stroke-width="1" stroke-linecap="square" stroke-linejoin="bevel" transform="matrix(0.999924,0,0,-0.999924,-24516.1,40387.6)"
font-family="MS Shell Dlg 2" font-size="10.3125" font-weight="400" font-style="normal" 
>
</g>

<g fill="none" stroke="#000000" stroke-opacity="1" stroke-width="1" stroke-linecap="square" stroke-linejoin="bevel" transform="matrix(0.999924,0,0,-0.999924,-24516.1,40387.6)"
font-family="MS Shell Dlg 2" font-size="10.3125" font-weight="400" font-style="normal" 
>
</g>

<g fill="#333333" fill-opacity="0.2" stroke="#333333" stroke-opacity="1" stroke-width="1" stroke-linecap="round" stroke-linejoin="round" transform="matrix(0.999924,0,0,-0.999924,-24516.1,40387.6)"
font-family="MS Shell Dlg 2" font-size="10.3125" font-weight="400" font-style="normal" 
>
<path vector-effect="non-scaling-stroke" fill-rule="evenodd" d="M28554.2,21034.2 L28069.4,21263.5 L27783.9,21434.6 L27609.4,21539.2 L27178.7,21858.7 L26781.3,22218.8 L26421.1,22616.2 L26101.7,23046.9 L25826,23506.9 L25596.7,23991.7 L25416,24496.7 L25285.7,25016.9 L25207,25547.4 L25180.7,26083 L25207,26618.6 L25285.7,27149.1 L25416,27669.3 L25596.7,28174.3 L25826,28659.1 L26101.7,29119.1 L26421.1,29549.8 L26781.3,29947.2 L27041.8,30183.3 L27178.7,30307.3 L27609.4,30626.8 L27727.2,30697.4 L28069.4,30902.5 L28554.2,31131.8 L29059.1,31312.5 L29579.3,31442.8 L30109.8,31521.5 L30413.5,31536.4 L30645.5,31547.8 L31181.1,31521.5 L31269.7,31508.3 L31711.6,31442.8 L31931.7,31387.6 L32231.8,31312.5 L32736.7,31131.8 L32748.2,31126.4 L33221.5,30902.5 L33681.5,30626.8 L34112.3,30307.3 L34509.6,29947.2 L34869.8,29549.8 L35189.3,29119.1 L35465,28659.1 L35694.3,28174.3 L35874.9,27669.3 L36005.2,27149.1 L36083.9,26618.6 L36110.2,26083 L36083.9,25547.4 L36005.2,25016.9 L35874.9,24496.7 L35694.3,23991.7 L35465,23506.9 L35189.3,23046.9 L34869.8,22616.2 L34848.2,22592.4 L34509.6,22218.8 L34175.1,21915.6 L34112.3,21858.7 L33681.5,21539.2 L33221.5,21263.5 L32736.7,21034.2 L32231.8,20853.5 L31711.6,20723.2 L31181.1,20644.5 L30645.5,20618.2 L30109.8,20644.5 L29579.3,20723.2 L29059.1,20853.5 L28554.2,21034.2"/>
</g>

<g fill="none" stroke="#000000" stroke-opacity="1" stroke-width="1" stroke-linecap="square" stroke-linejoin="bevel" transform="matrix(0.999924,0,0,-0.999924,-24516.1,40387.6)"
font-family="MS Shell Dlg 2" font-size="10.3125" font-weight="400" font-style="normal" 
>
</g>

<g fill="none" stroke="#000000" stroke-opacity="1" stroke-width="1" stroke-linecap="square" stroke-linejoin="bevel" transform="matrix(0.999924,0,0,-0.999924,-24516.1,40387.6)"
font-family="MS Shell Dlg 2" font-size="10.3125" font-weight="400" font-style="normal" 
>
</g>

<g fill="#333333" fill-opacity="0.2" stroke="#333333" stroke-opacity="1" stroke-width="1" stroke-linecap="round" stroke-linejoin="round" transform="matrix(0.999924,0,0,-0.999924,-24516.1,40387.6)"
font-family="MS Shell Dlg 2" font-size="10.3125" font-weight="400" font-style="normal" 
>
<path vector-effect="non-scaling-stroke" fill-rule="evenodd" d="M35263.7,37175.3 L36601.4,40388.3 L35263.7,37175.3"/>
</g>

<g fill="none" stroke="#000000" stroke-opacity="1" stroke-width="1" stroke-linecap="square" stroke-linejoin="bevel" transform="matrix(0.999924,0,0,-0.999924,-24516.1,40387.6)"
font-family="MS Shell Dlg 2" font-size="10.3125" font-weight="400" font-style="normal" 
>
</g>

<g fill="none" stroke="#000000" stroke-opacity="1" stroke-width="1" stroke-linecap="square" stroke-linejoin="bevel" transform="matrix(0.999924,0,0,-0.999924,-24516.1,40387.6)"
font-family="MS Shell Dlg 2" font-size="10.3125" font-weight="400" font-style="normal" 
>
</g>

<g fill="#ae5151" fill-opacity="0.2" stroke="#333333" stroke-opacity="1" stroke-width="1" stroke-linecap="round" stroke-linejoin="round" transform="matrix(0.999924,0,0,-0.999924,-24516.1,40387.6)"
font-family="MS Shell Dlg 2" font-size="10.3125" font-weight="400" font-style="normal" 
>
<path vector-effect="non-scaling-stroke" fill-rule="evenodd" d="M24518.4,11366.8 L25913,14716.2 L24518.4,11366.8"/>
</g>

<g fill="none" stroke="#000000" stroke-opacity="1" stroke-width="1" stroke-linecap="square" stroke-linejoin="bevel" transform="matrix(0.999924,0,0,-0.999924,-24516.1,40387.6)"
font-family="MS Shell Dlg 2" font-size="10.3125" font-weight="400" font-style="normal" 
>
</g>

<g fill="none" stroke="#000000" stroke-opacity="1" stroke-width="1" stroke-linecap="square" stroke-linejoin="bevel" transform="matrix(0.999924,0,0,-0.999924,-24516.1,40387.6)"
font-family="MS Shell Dlg 2" font-size="10.3125" font-weight="400" font-style="normal" 
>
</g>

<g fill="#ae5151" fill-opacity="0.2" stroke="#333333" stroke-opacity="1" stroke-width="1" stroke-linecap="round" stroke-linejoin="round" transform="matrix(0.999924,0,0,-0.999924,-24516.1,40387.6)"
font-family="MS Shell Dlg 2" font-size="10.3125" font-weight="400" font-style="normal" 
>
<path vector-effect="non-scaling-stroke" fill-rule="evenodd" d="M28554.2,21034.2 L28069.4,21263.5 L27783.9,21434.6 L27609.4,21539.2 L27178.7,21858.7 L26781.3,22218.8 L26421.1,22616.2 L26101.7,23046.9 L25826,23506.9 L25596.7,23991.7 L25416,24496.7 L25285.7,25016.9 L25207,25547.4 L25180.7,26083 L25207,26618.6 L25285.7,27149.1 L25416,27669.3 L25596.7,28174.3 L25826,28659.1 L26101.7,29119.1 L26421.1,29549.8 L26781.3,29947.2 L27041.8,30183.3 L27178.7,30307.3 L27609.4,30626.8 L27727.2,30697.4 L28069.4,30902.5 L28554.2,31131.8 L29059.1,31312.5 L29579.3,31442.8 L30109.8,31521.5 L30413.5,31536.4 L30645.5,31547.8 L31181.1,31521.5 L31269.7,31508.3 L31711.6,31442.8 L31931.7,31387.6 L32231.8,31312.5 L32736.7,31131.8 L32748.2,31126.4 L33221.5,30902.5 L33681.5,30626.8 L34112.3,30307.3 L34509.6,29947.2 L34869.8,29549.8 L35189.3,29119.1 L35465,28659.1 L35694.3,28174.3 L35874.9,27669.3 L36005.2,27149.1 L36083.9,26618.6 L36110.2,26083 L36083.9,25547.4 L36005.2,25016.9 L35874.9,24496.7 L35694.3,23991.7 L35465,23506.9 L35189.3,23046.9 L34869.8,22616.2 L34848.2,22592.4 L34509.6,22218.8 L34175.1,21915.6 L34112.3,21858.7 L33681.5,21539.2 L33221.5,21263.5 L32736.7,21034.2 L32231.8,20853.5 L31711.6,20723.2 L31181.1,20644.5 L30645.5,20618.2 L30109.8,20644.5 L29579.3,20723.2 L29059.1,20853.5 L28554.2,21034.2"/>
</g>

<g fill="none" stroke="#000000" stroke-opacity="1" stroke-width="1" stroke-linecap="square" stroke-linejoin="bevel" transform="matrix(0.999924,0,0,-0.999924,-24516.1,40387.6)"
font-family="MS Shell Dlg 2" font-size="10.3125" font-weight="400" font-style="normal" 
>
</g>

<g fill="none" stroke="#000000" stroke-opacity="1" stroke-width="1" stroke-linecap="square" stroke-linejoin="bevel" transform="matrix(0.999924,0,0,-0.999924,-24516.1,40387.6)"
font-family="MS Shell Dlg 2" font-size="10.3125" font-weight="400" font-style="normal" 
>
</g>

<g fill="#ae5151" fill-opacity="0.2" stroke="#333333" stroke-opacity="1" stroke-width="1" stroke-linecap="round" stroke-linejoin="round" transform="matrix(0.999924,0,0,-0.999924,-24516.1,40387.6)"
font-family="MS Shell Dlg 2" font-size="10.3125" font-weight="400" font-style="normal" 
>
<path vector-effect="non-scaling-stroke" fill-rule="evenodd" d="M35263.7,37175.3 L36601.4,40388.3 L35263.7,37175.3"/>
</g>

<g fill="none" stroke="#000000" stroke-opacity="1" stroke-width="1" stroke-linecap="square" stroke-linejoin="bevel" transform="matrix(0.999924,0,0,-0.999924,-24516.1,40387.6)"
font-family="MS Shell Dlg 2" font-size="10.3125" font-weight="400" font-style="normal" 
>
</g>

<g fill="none" stroke="#000000" stroke-opacity="1" stroke-width="1" stroke-linecap="square" stroke-linejoin="bevel" transform="matrix(0.999924,0,0,-0.999924,-24516.1,40387.6)"
font-family="MS Shell Dlg 2" font-size="10.3125" font-weight="400" font-style="normal" 
>
</g>

<g fill="#ffff00" fill-opacity="0.2" stroke="#333333" stroke-opacity="1" stroke-width="1" stroke-linecap="round" stroke-linejoin="round" transform="matrix(0.999924,0,0,-0.999924,-24516.1,40387.6)"
font-family="MS Shell Dlg 2" font-size="10.3125" font-weight="400" font-style="normal" 
>
<path vector-effect="non-scaling-stroke" fill-rule="evenodd" d="M24518.4,11366.8 L25913,14716.2 L24518.4,11366.8"/>
</g>

<g fill="none" stroke="#000000" stroke-opacity="1" stroke-width="1" stroke-linecap="square" stroke-linejoin="bevel" transform="matrix(0.999924,0,0,-0.999924,-24516.1,40387.6)"
font-family="MS Shell Dlg 2" font-size="10.3125" font-weight="400" font-style="normal" 
>
</g>

<g fill="none" stroke="#000000" stroke-opacity="1" stroke-width="1" stroke-linecap="square" stroke-linejoin="bevel" transform="matrix(0.999924,0,0,-0.999924,-24516.1,40387.6)"
font-family="MS Shell Dlg 2" font-size="10.3125" font-weight="400" font-style="normal" 
>
</g>

<g fill="#ffff00" fill-opacity="0.2" stroke="#333333" stroke-opacity="1" stroke-width="1" stroke-linecap="round" stroke-linejoin="round" transform="matrix(0.999924,0,0,-0.999924,-24516.1,40387.6)"
font-family="MS Shell Dlg 2" font-size="10.3125" font-weight="400" font-style="normal" 
>
<path vector-effect="non-scaling-stroke" fill-rule="evenodd" d="M28554.2,21034.2 L28069.4,21263.5 L27783.9,21434.6 L27609.4,21539.2 L27178.7,21858.7 L26781.3,22218.8 L26421.1,22616.2 L26101.7,23046.9 L25826,23506.9 L25596.7,23991.7 L25416,24496.7 L25285.7,25016.9 L25207,25547.4 L25180.7,26083 L25207,26618.6 L25285.7,27149.1 L25416,27669.3 L25596.7,28174.3 L25826,28659.1 L26101.7,29119.1 L26421.1,29549.8 L26781.3,29947.2 L27041.8,30183.3 L27178.7,30307.3 L27609.4,30626.8 L27727.2,30697.4 L28069.4,30902.5 L28554.2,31131.8 L29059.1,31312.5 L29579.3,31442.8 L30109.8,31521.5 L30413.5,31536.4 L30645.5,31547.8 L31181.1,31521.5 L31269.7,31508.3 L31711.6,31442.8 L31931.7,31387.6 L32231.8,31312.5 L32736.7,31131.8 L32748.2,31126.4 L33221.5,30902.5 L33681.5,30626.8 L34112.3,30307.3 L34509.6,29947.2 L34869.8,29549.8 L35189.3,29119.1 L35465,28659.1 L35694.3,28174.3 L35874.9,27669.3 L36005.2,27149.1 L36083.9,26618.6 L36110.2,26083 L36083.9,25547.4 L36005.2,25016.9 L35874.9,24496.7 L35694.3,23991.7 L35465,23506.9 L35189.3,23046.9 L34869.8,22616.2 L34848.2,22592.4 L34509.6,22218.8 L34175.1,21915.6 L34112.3,21858.7 L33681.5,21539.2 L33221.5,21263.5 L32736.7,21034.2 L32231.8,20853.5 L31711.6,20723.2 L31181.1,20644.5 L30645.5,20618.2 L30109.8,20644.5 L29579.3,20723.2 L29059.1,20853.5 L28554.2,21034.2"/>
</g>

<g fill="none" stroke="#000000" stroke-opacity="1" stroke-width="1" stroke-linecap="square" stroke-linejoin="bevel" transform="matrix(0.999924,0,0,-0.999924,-24516.1,40387.6)"
font-family="MS Shell Dlg 2" font-size="10.3125" font-weight="400" font-style="normal" 
>
</g>

<g fill="none" stroke="#000000" stroke-opacity="1" stroke-width="1" stroke-linecap="square" stroke-linejoin="bevel" transform="matrix(0.999924,0,0,-0.999924,-24516.1,40387.6)"
font-family="MS Shell Dlg 2" font-size="10.3125" font-weight="400" font-style="normal" 
>
</g>

<g fill="#ffff00" fill-opacity="0.2" stroke="#333333" stroke-opacity="1" stroke-width="1" stroke-linecap="round" stroke-linejoin="round" transform="matrix(0.999924,0,0,-0.999924,-24516.1,40387.6)"
font-family="MS Shell Dlg 2" font-size="10.3125" font-weight="400" font-style="normal" 
>
<path vector-effect="non-scaling-stroke" fill-rule="evenodd" d="M35263.7,37175.3 L36601.4,40388.3 L35263.7,37175.3"/>
</g>

<g fill="none" stroke="#000000" stroke-opacity="1" stroke-width="1" stroke-linecap="square" stroke-linejoin="bevel" transform="matrix(0.999924,0,0,-0.999924,-24516.1,40387.6)"
font-family="MS Shell Dlg 2" font-size="10.3125" font-weight="400" font-style="normal" 
>
</g>

<g fill="none" stroke="#000000" stroke-opacity="1" stroke-width="1" stroke-linecap="square" stroke-linejoin="bevel" transform="matrix(0.999924,0,0,-0.999924,-24516.1,40387.6)"
font-family="MS Shell Dlg 2" font-size="10.3125" font-weight="400" font-style="normal" 
>
</g>

<g fill="#ae5151" fill-opacity="0.2" stroke="#333333" stroke-opacity="1" stroke-width="1" stroke-linecap="round" stroke-linejoin="round" transform="matrix(0.999924,0,0,-0.999924,-24516.1,40387.6)"
font-family="MS Shell Dlg 2" font-size="10.3125" font-weight="400" font-style="normal" 
>
<path vector-effect="non-scaling-stroke" fill-rule="evenodd" d="M24518.4,11366.8 L25913,14716.2 L24518.4,11366.8"/>
</g>

<g fill="none" stroke="#000000" stroke-opacity="1" stroke-width="1" stroke-linecap="square" stroke-linejoin="bevel" transform="matrix(0.999924,0,0,-0.999924,-24516.1,40387.6)"
font-family="MS Shell Dlg 2" font-size="10.3125" font-weight="400" font-style="normal" 
>
</g>

<g fill="none" stroke="#000000" stroke-opacity="1" stroke-width="1" stroke-linecap="square" stroke-linejoin="bevel" transform="matrix(0.999924,0,0,-0.999924,-24516.1,40387.6)"
font-family="MS Shell Dlg 2" font-size="10.3125" font-weight="400" font-style="normal" 
>
</g>

<g fill="#ae5151" fill-opacity="0.2" stroke="#333333" stroke-opacity="1" stroke-width="1" stroke-linecap="round" stroke-linejoin="round" transform="matrix(0.999924,0,0,-0.999924,-24516.1,40387.6)"
font-family="MS Shell Dlg 2" font-size="10.3125" font-weight="400" font-style="normal" 
>
<path vector-effect="non-scaling-stroke" fill-rule="evenodd" d="M28554.2,21034.2 L28069.4,21263.5 L27783.9,21434.6 L27609.4,21539.2 L27178.7,21858.7 L26781.3,22218.8 L26421.1,22616.2 L26101.7,23046.9 L25826,23506.9 L25596.7,23991.7 L25416,24496.7 L25285.7,25016.9 L25207,25547.4 L25180.7,26083 L25207,26618.6 L25285.7,27149.1 L25416,27669.3 L25596.7,28174.3 L25826,28659.1 L26101.7,29119.1 L26421.1,29549.8 L26781.3,29947.2 L27041.8,30183.3 L27178.7,30307.3 L27609.4,30626.8 L27727.2,30697.4 L28069.4,30902.5 L28554.2,31131.8 L29059.1,31312.5 L29579.3,31442.8 L30109.8,31521.5 L30413.5,31536.4 L30645.5,31547.8 L31181.1,31521.5 L31269.7,31508.3 L31711.6,31442.8 L31931.7,31387.6 L32231.8,31312.5 L32736.7,31131.8 L32748.2,31126.4 L33221.5,30902.5 L33681.5,30626.8 L34112.3,30307.3 L34509.6,29947.2 L34869.8,29549.8 L35189.3,29119.1 L35465,28659.1 L35694.3,28174.3 L35874.9,27669.3 L36005.2,27149.1 L36083.9,26618.6 L36110.2,26083 L36083.9,25547.4 L36005.2,25016.9 L35874.9,24496.7 L35694.3,23991.7 L35465,23506.9 L35189.3,23046.9 L34869.8,22616.2 L34848.2,22592.4 L34509.6,22218.8 L34175.1,21915.6 L34112.3,21858.7 L33681.5,21539.2 L33221.5,21263.5 L32736.7,21034.2 L32231.8,20853.5 L31711.6,20723.2 L31181.1,20644.5 L30645.5,20618.2 L30109.8,20644.5 L29579.3,20723.2 L29059.1,20853.5 L28554.2,21034.2"/>
</g>

<g fill="none" stroke="#000000" stroke-opacity="1" stroke-width="1" stroke-linecap="square" stroke-linejoin="bevel" transform="matrix(0.999924,0,0,-0.999924,-24516.1,40387.6)"
font-family="MS Shell Dlg 2" font-size="10.3125" font-weight="400" font-style="normal" 
>
</g>

<g fill="none" stroke="#000000" stroke-opacity="1" stroke-width="1" stroke-linecap="square" stroke-linejoin="bevel" transform="matrix(0.999924,0,0,-0.999924,-24516.1,40387.6)"
font-family="MS Shell Dlg 2" font-size="10.3125" font-weight="400" font-style="normal" 
>
</g>

<g fill="#ae5151" fill-opacity="0.2" stroke="#333333" stroke-opacity="1" stroke-width="1" stroke-linecap="round" stroke-linejoin="round" transform="matrix(0.999924,0,0,-0.999924,-24516.1,40387.6)"
font-family="MS Shell Dlg 2" font-size="10.3125" font-weight="400" font-style="normal" 
>
<path vector-effect="non-scaling-stroke" fill-rule="evenodd" d="M35263.7,37175.3 L36601.4,40388.3 L35263.7,37175.3"/>
</g>

<g fill="none" stroke="#000000" stroke-opacity="1" stroke-width="1" stroke-linecap="square" stroke-linejoin="bevel" transform="matrix(0.999924,0,0,-0.999924,-24516.1,40387.6)"
font-family="MS Shell Dlg 2" font-size="10.3125" font-weight="400" font-style="normal" 
>
</g>

<g fill="none" stroke="#000000" stroke-opacity="1" stroke-width="1" stroke-linecap="square" stroke-linejoin="bevel" transform="matrix(0.999924,0,0,-0.999924,-24516.1,40387.6)"
font-family="MS Shell Dlg 2" font-size="10.3125" font-weight="400" font-style="normal" 
>
</g>

<g fill="#333333" fill-opacity="0.2" stroke="#333333" stroke-opacity="1" stroke-width="1" stroke-linecap="round" stroke-linejoin="round" transform="matrix(0.999924,0,0,-0.999924,-24516.1,40387.6)"
font-family="MS Shell Dlg 2" font-size="10.3125" font-weight="400" font-style="normal" 
>
<path vector-effect="non-scaling-stroke" fill-rule="evenodd" d="M24518.4,11366.8 L25913,14716.2 L24518.4,11366.8"/>
</g>

<g fill="none" stroke="#000000" stroke-opacity="1" stroke-width="1" stroke-linecap="square" stroke-linejoin="bevel" transform="matrix(0.999924,0,0,-0.999924,-24516.1,40387.6)"
font-family="MS Shell Dlg 2" font-size="10.3125" font-weight="400" font-style="normal" 
>
</g>

<g fill="none" stroke="#000000" stroke-opacity="1" stroke-width="1" stroke-linecap="square" stroke-linejoin="bevel" transform="matrix(0.999924,0,0,-0.999924,-24516.1,40387.6)"
font-family="MS Shell Dlg 2" font-size="10.3125" font-weight="400" font-style="normal" 
>
</g>

<g fill="#333333" fill-opacity="0.2" stroke="#333333" stroke-opacity="1" stroke-width="1" stroke-linecap="round" stroke-linejoin="round" transform="matrix(0.999924,0,0,-0.999924,-24516.1,40387.6)"
font-family="MS Shell Dlg 2" font-size="10.3125" font-weight="400" font-style="normal" 
>
<path vector-effect="non-scaling-stroke" fill-rule="evenodd" d="M28554.2,21034.2 L28069.4,21263.5 L27783.9,21434.6 L27609.4,21539.2 L27178.7,21858.7 L26781.3,22218.8 L26421.1,22616.2 L26101.7,23046.9 L25826,23506.9 L25596.7,23991.7 L25416,24496.7 L25285.7,25016.9 L25207,25547.4 L25180.7,26083 L25207,26618.6 L25285.7,27149.1 L25416,27669.3 L25596.7,28174.3 L25826,28659.1 L26101.7,29119.1 L26421.1,29549.8 L26781.3,29947.2 L27041.8,30183.3 L27178.7,30307.3 L27609.4,30626.8 L27727.2,30697.4 L28069.4,30902.5 L28554.2,31131.8 L29059.1,31312.5 L29579.3,31442.8 L30109.8,31521.5 L30413.5,31536.4 L30645.5,31547.8 L31181.1,31521.5 L31269.7,31508.3 L31711.6,31442.8 L31931.7,31387.6 L32231.8,31312.5 L32736.7,31131.8 L32748.2,31126.4 L33221.5,30902.5 L33681.5,30626.8 L34112.3,30307.3 L34509.6,29947.2 L34869.8,29549.8 L35189.3,29119.1 L35465,28659.1 L35694.3,28174.3 L35874.9,27669.3 L36005.2,27149.1 L36083.9,26618.6 L36110.2,26083 L36083.9,25547.4 L36005.2,25016.9 L35874.9,24496.7 L35694.3,23991.7 L35465,23506.9 L35189.3,23046.9 L34869.8,22616.2 L34848.2,22592.4 L34509.6,22218.8 L34175.1,21915.6 L34112.3,21858.7 L33681.5,21539.2 L33221.5,21263.5 L32736.7,21034.2 L32231.8,20853.5 L31711.6,20723.2 L31181.1,20644.5 L30645.5,20618.2 L30109.8,20644.5 L29579.3,20723.2 L29059.1,20853.5 L28554.2,21034.2"/>
</g>

<g fill="none" stroke="#000000" stroke-opacity="1" stroke-width="1" stroke-linecap="square" stroke-linejoin="bevel" transform="matrix(0.999924,0,0,-0.999924,-24516.1,40387.6)"
font-family="MS Shell Dlg 2" font-size="10.3125" font-weight="400" font-style="normal" 
>
</g>

<g fill="none" stroke="#000000" stroke-opacity="1" stroke-width="1" stroke-linecap="square" stroke-linejoin="bevel" transform="matrix(0.999924,0,0,-0.999924,-24516.1,40387.6)"
font-family="MS Shell Dlg 2" font-size="10.3125" font-weight="400" font-style="normal" 
>
</g>

<g fill="#333333" fill-opacity="0.2" stroke="#333333" stroke-opacity="1" stroke-width="1" stroke-linecap="round" stroke-linejoin="round" transform="matrix(0.999924,0,0,-0.999924,-24516.1,40387.6)"
font-family="MS Shell Dlg 2" font-size="10.3125" font-weight="400" font-style="normal" 
>
<path vector-effect="non-scaling-stroke" fill-rule="evenodd" d="M35263.7,37175.3 L36601.4,40388.3 L35263.7,37175.3"/>
</g>

<g fill="none" stroke="#000000" stroke-opacity="1" stroke-width="1" stroke-linecap="square" stroke-linejoin="bevel" transform="matrix(0.999924,0,0,-0.999924,-24516.1,40387.6)"
font-family="MS Shell Dlg 2" font-size="10.3125" font-weight="400" font-style="normal" 
>
</g>

<g fill="none" stroke="#000000" stroke-opacity="1" stroke-width="1" stroke-linecap="square" stroke-linejoin="bevel" transform="matrix(1,0,0,-1,0,29022.2)"
font-family="MS Shell Dlg 2" font-size="10.3125" font-weight="400" font-style="normal" 
>
</g>
</g>
</svg>
