<?xml version="1.0" encoding="UTF-8" standalone="no"?>
<svg width="20569.8mm" height="18304.7mm"
 xmlns="http://www.w3.org/2000/svg" xmlns:xlink="http://www.w3.org/1999/xlink"  version="1.2" baseProfile="tiny">
<title>SVG Generator Example Drawing</title>
<desc>An SVG drawing created by the SVG Generator</desc>
<defs>
</defs>
<g fill="none" stroke="black" stroke-width="1" fill-rule="evenodd" stroke-linecap="square" stroke-linejoin="bevel" >

<g fill="none" stroke="#000000" stroke-opacity="1" stroke-width="1" stroke-linecap="square" stroke-linejoin="bevel" transform="matrix(1,0,0,-1,0,64859.3)"
font-family="MS Shell Dlg 2" font-size="10.3125" font-weight="400" font-style="normal" 
>
</g>

<g fill="none" stroke="#000000" stroke-opacity="1" stroke-width="1" stroke-linecap="square" stroke-linejoin="bevel" transform="matrix(1,0,0,-1,0,64859.3)"
font-family="MS Shell Dlg 2" font-size="10.3125" font-weight="400" font-style="normal" 
>
</g>

<g fill="none" stroke="#000000" stroke-opacity="1" stroke-width="1" stroke-linecap="square" stroke-linejoin="bevel" transform="matrix(0.999996,0,0,-0.999996,6000.47,58170)"
font-family="MS Shell Dlg 2" font-size="10.3125" font-weight="400" font-style="normal" 
>
</g>

<g fill="#333333" fill-opacity="0.2" stroke="#333333" stroke-opacity="1" stroke-width="1" stroke-linecap="round" stroke-linejoin="round" transform="matrix(0.999996,0,0,-0.999996,6000.47,58170)"
font-family="MS Shell Dlg 2" font-size="10.3125" font-weight="400" font-style="normal" 
>
<path vector-effect="non-scaling-stroke" fill-rule="evenodd" d="M-6000,-6688.84 L-6000,58169.4 L66884.2,58169.4 L66884.2,-6688.84 L-6000,-6688.84 M8039.8,52349.5 L7929.06,52416.1 L7575.81,52480.6 L0,52480.6 L-382.683,52404.5 L-707.107,52187.7 L-923.88,51863.3 L-1000,51480.6 L-1000,0 L-923.88,-382.683 L-707.107,-707.107 L-382.683,-923.88 L0,-1000 L18786.3,-1000 L19213.4,-904.184 L19263.1,-865.513 L19355.3,-903.91 L19447.9,-942.455 L20114.1,-1219.83 L20370.8,-1326.71 L20404,-1339.86 L20873,-1396.56 L20873.1,-1396.54 L21208.9,-1294.7 L21488.9,-1083.12 L21542.3,-1000 L51475.3,-1000 L51775.2,-1344.96 L52167.1,-1620.73 L52642.3,-1682.5 L52642.5,-1682.48 L52932.5,-1604.27 L53186.2,-1443.49 L53847,-868.91 L53957.8,-935.527 L54311,-1000 L60884.2,-1000 L61266.8,-923.88 L61591.3,-707.107 L61808,-382.683 L61884.2,0 L61884.2,51480.6 L61808,51863.3 L61591.3,52187.7 L61266.8,52404.5 L60884.2,52480.6 L42219.3,52480.6 L41792.1,52384.8 L41742.5,52346.1 L41557.7,52423 L41282.2,52537.7 L40634.8,52807.3 L40250.4,52884.1 L40143.8,52878.4 L40143.7,52878.4 L39803.4,52778.7 L39519.3,52566.5 L39463.9,52480.6 L30933,52480.6 L30749.4,52517.5 L29750.3,52481.7 L29650.1,52478.2 L28879.1,52450.5 L28742.5,52480.6 L10411.5,52480.6 L10111.6,52825.5 L9771.62,53079.4 L9356.96,53169.4 L9232.22,53161.6 L9232.05,53161.6 L8948.7,53082.4 L8700.68,52924.1 L8039.8,52349.5"/>
</g>

<g fill="none" stroke="#000000" stroke-opacity="1" stroke-width="1" stroke-linecap="square" stroke-linejoin="bevel" transform="matrix(0.999996,0,0,-0.999996,6000.47,58170)"
font-family="MS Shell Dlg 2" font-size="10.3125" font-weight="400" font-style="normal" 
>
</g>

<g fill="none" stroke="#000000" stroke-opacity="1" stroke-width="1" stroke-linecap="square" stroke-linejoin="bevel" transform="matrix(0.999996,0,0,-0.999996,6000.47,58170)"
font-family="MS Shell Dlg 2" font-size="10.3125" font-weight="400" font-style="normal" 
>
</g>

<g fill="#ae5151" fill-opacity="0.2" stroke="#333333" stroke-opacity="1" stroke-width="1" stroke-linecap="round" stroke-linejoin="round" transform="matrix(0.999996,0,0,-0.999996,6000.47,58170)"
font-family="MS Shell Dlg 2" font-size="10.3125" font-weight="400" font-style="normal" 
>
<path vector-effect="non-scaling-stroke" fill-rule="evenodd" d="M-6000,-6688.84 L-6000,58169.4 L66884.2,58169.4 L66884.2,-6688.84 L-6000,-6688.84 M8039.8,52349.5 L7929.06,52416.1 L7575.81,52480.6 L0,52480.6 L-382.683,52404.5 L-707.107,52187.7 L-923.88,51863.3 L-1000,51480.6 L-1000,0 L-923.88,-382.683 L-707.107,-707.107 L-382.683,-923.88 L0,-1000 L18786.3,-1000 L19213.4,-904.184 L19263.1,-865.513 L19355.3,-903.91 L19447.9,-942.455 L20114.1,-1219.83 L20370.8,-1326.71 L20404,-1339.86 L20873,-1396.56 L20873.1,-1396.54 L21208.9,-1294.7 L21488.9,-1083.12 L21542.3,-1000 L51475.3,-1000 L51775.2,-1344.96 L52167.1,-1620.73 L52642.3,-1682.5 L52642.5,-1682.48 L52932.5,-1604.27 L53186.2,-1443.49 L53847,-868.91 L53957.8,-935.527 L54311,-1000 L60884.2,-1000 L61266.8,-923.88 L61591.3,-707.107 L61808,-382.683 L61884.2,0 L61884.2,51480.6 L61808,51863.3 L61591.3,52187.7 L61266.8,52404.5 L60884.2,52480.6 L42219.3,52480.6 L41792.1,52384.8 L41742.5,52346.1 L41557.7,52423 L41282.2,52537.7 L40634.8,52807.3 L40250.4,52884.1 L40143.8,52878.4 L40143.7,52878.4 L39803.4,52778.7 L39519.3,52566.5 L39463.9,52480.6 L30933,52480.6 L30749.4,52517.5 L29750.3,52481.7 L29650.1,52478.2 L28879.1,52450.5 L28742.5,52480.6 L10411.5,52480.6 L10111.6,52825.5 L9771.62,53079.4 L9356.96,53169.4 L9232.22,53161.6 L9232.05,53161.6 L8948.7,53082.4 L8700.68,52924.1 L8039.8,52349.5"/>
</g>

<g fill="none" stroke="#000000" stroke-opacity="1" stroke-width="1" stroke-linecap="square" stroke-linejoin="bevel" transform="matrix(0.999996,0,0,-0.999996,6000.47,58170)"
font-family="MS Shell Dlg 2" font-size="10.3125" font-weight="400" font-style="normal" 
>
</g>

<g fill="none" stroke="#000000" stroke-opacity="1" stroke-width="1" stroke-linecap="square" stroke-linejoin="bevel" transform="matrix(0.999996,0,0,-0.999996,6000.47,58170)"
font-family="MS Shell Dlg 2" font-size="10.3125" font-weight="400" font-style="normal" 
>
</g>

<g fill="#ffff00" fill-opacity="0.2" stroke="#333333" stroke-opacity="1" stroke-width="1" stroke-linecap="round" stroke-linejoin="round" transform="matrix(0.999996,0,0,-0.999996,6000.47,58170)"
font-family="MS Shell Dlg 2" font-size="10.3125" font-weight="400" font-style="normal" 
>
<path vector-effect="non-scaling-stroke" fill-rule="evenodd" d="M-6000,-6688.84 L-6000,58169.4 L66884.2,58169.4 L66884.2,-6688.84 L-6000,-6688.84 M8039.8,52349.5 L7929.06,52416.1 L7575.81,52480.6 L0,52480.6 L-382.683,52404.5 L-707.107,52187.7 L-923.88,51863.3 L-1000,51480.6 L-1000,0 L-923.88,-382.683 L-707.107,-707.107 L-382.683,-923.88 L0,-1000 L18786.3,-1000 L19213.4,-904.184 L19263.1,-865.513 L19355.3,-903.91 L19447.9,-942.455 L20114.1,-1219.83 L20370.8,-1326.71 L20404,-1339.86 L20873,-1396.56 L20873.1,-1396.54 L21208.9,-1294.7 L21488.9,-1083.12 L21542.3,-1000 L51475.3,-1000 L51775.2,-1344.96 L52167.1,-1620.73 L52642.3,-1682.5 L52642.5,-1682.48 L52932.5,-1604.27 L53186.2,-1443.49 L53847,-868.91 L53957.8,-935.527 L54311,-1000 L60884.2,-1000 L61266.8,-923.88 L61591.3,-707.107 L61808,-382.683 L61884.2,0 L61884.2,51480.6 L61808,51863.3 L61591.3,52187.7 L61266.8,52404.5 L60884.2,52480.6 L42219.3,52480.6 L41792.1,52384.8 L41742.5,52346.1 L41557.7,52423 L41282.2,52537.7 L40634.8,52807.3 L40250.4,52884.1 L40143.8,52878.4 L40143.7,52878.4 L39803.4,52778.7 L39519.3,52566.5 L39463.9,52480.6 L30933,52480.6 L30749.4,52517.5 L29750.3,52481.7 L29650.1,52478.2 L28879.1,52450.5 L28742.5,52480.6 L10411.5,52480.6 L10111.6,52825.5 L9771.62,53079.4 L9356.96,53169.4 L9232.22,53161.6 L9232.05,53161.6 L8948.7,53082.4 L8700.68,52924.1 L8039.8,52349.5"/>
</g>

<g fill="none" stroke="#000000" stroke-opacity="1" stroke-width="1" stroke-linecap="square" stroke-linejoin="bevel" transform="matrix(0.999996,0,0,-0.999996,6000.47,58170)"
font-family="MS Shell Dlg 2" font-size="10.3125" font-weight="400" font-style="normal" 
>
</g>

<g fill="none" stroke="#000000" stroke-opacity="1" stroke-width="1" stroke-linecap="square" stroke-linejoin="bevel" transform="matrix(0.999996,0,0,-0.999996,6000.47,58170)"
font-family="MS Shell Dlg 2" font-size="10.3125" font-weight="400" font-style="normal" 
>
</g>

<g fill="#ae5151" fill-opacity="0.2" stroke="#333333" stroke-opacity="1" stroke-width="1" stroke-linecap="round" stroke-linejoin="round" transform="matrix(0.999996,0,0,-0.999996,6000.47,58170)"
font-family="MS Shell Dlg 2" font-size="10.3125" font-weight="400" font-style="normal" 
>
<path vector-effect="non-scaling-stroke" fill-rule="evenodd" d="M-6000,-6688.84 L-6000,58169.4 L66884.2,58169.4 L66884.2,-6688.84 L-6000,-6688.84 M8039.8,52349.5 L7929.06,52416.1 L7575.81,52480.6 L0,52480.6 L-382.683,52404.5 L-707.107,52187.7 L-923.88,51863.3 L-1000,51480.6 L-1000,0 L-923.88,-382.683 L-707.107,-707.107 L-382.683,-923.88 L0,-1000 L18786.3,-1000 L19213.4,-904.184 L19263.1,-865.513 L19355.3,-903.91 L19447.9,-942.455 L20114.1,-1219.83 L20370.8,-1326.71 L20404,-1339.86 L20873,-1396.56 L20873.1,-1396.54 L21208.9,-1294.7 L21488.9,-1083.12 L21542.3,-1000 L51475.3,-1000 L51775.2,-1344.96 L52167.1,-1620.73 L52642.3,-1682.5 L52642.5,-1682.48 L52932.5,-1604.27 L53186.2,-1443.49 L53847,-868.91 L53957.8,-935.527 L54311,-1000 L60884.2,-1000 L61266.8,-923.88 L61591.3,-707.107 L61808,-382.683 L61884.2,0 L61884.2,51480.6 L61808,51863.3 L61591.3,52187.7 L61266.8,52404.5 L60884.2,52480.6 L42219.3,52480.6 L41792.1,52384.8 L41742.5,52346.1 L41557.7,52423 L41282.2,52537.7 L40634.8,52807.3 L40250.4,52884.1 L40143.8,52878.4 L40143.7,52878.4 L39803.4,52778.7 L39519.3,52566.5 L39463.9,52480.6 L30933,52480.6 L30749.4,52517.5 L29750.3,52481.7 L29650.1,52478.2 L28879.1,52450.5 L28742.5,52480.6 L10411.5,52480.6 L10111.6,52825.5 L9771.62,53079.4 L9356.96,53169.4 L9232.22,53161.6 L9232.05,53161.6 L8948.7,53082.4 L8700.68,52924.1 L8039.8,52349.5"/>
</g>

<g fill="none" stroke="#000000" stroke-opacity="1" stroke-width="1" stroke-linecap="square" stroke-linejoin="bevel" transform="matrix(0.999996,0,0,-0.999996,6000.47,58170)"
font-family="MS Shell Dlg 2" font-size="10.3125" font-weight="400" font-style="normal" 
>
</g>

<g fill="none" stroke="#000000" stroke-opacity="1" stroke-width="1" stroke-linecap="square" stroke-linejoin="bevel" transform="matrix(0.999996,0,0,-0.999996,6000.47,58170)"
font-family="MS Shell Dlg 2" font-size="10.3125" font-weight="400" font-style="normal" 
>
</g>

<g fill="#333333" fill-opacity="0.2" stroke="#333333" stroke-opacity="1" stroke-width="1" stroke-linecap="round" stroke-linejoin="round" transform="matrix(0.999996,0,0,-0.999996,6000.47,58170)"
font-family="MS Shell Dlg 2" font-size="10.3125" font-weight="400" font-style="normal" 
>
<path vector-effect="non-scaling-stroke" fill-rule="evenodd" d="M-6000,-6688.84 L-6000,58169.4 L66884.2,58169.4 L66884.2,-6688.84 L-6000,-6688.84 M8039.8,52349.5 L7929.06,52416.1 L7575.81,52480.6 L0,52480.6 L-382.683,52404.5 L-707.107,52187.7 L-923.88,51863.3 L-1000,51480.6 L-1000,0 L-923.88,-382.683 L-707.107,-707.107 L-382.683,-923.88 L0,-1000 L18786.3,-1000 L19213.4,-904.184 L19263.1,-865.513 L19355.3,-903.91 L19447.9,-942.455 L20114.1,-1219.83 L20370.8,-1326.71 L20404,-1339.86 L20873,-1396.56 L20873.1,-1396.54 L21208.9,-1294.7 L21488.9,-1083.12 L21542.3,-1000 L51475.3,-1000 L51775.2,-1344.96 L52167.1,-1620.73 L52642.3,-1682.5 L52642.5,-1682.48 L52932.5,-1604.27 L53186.2,-1443.49 L53847,-868.91 L53957.8,-935.527 L54311,-1000 L60884.2,-1000 L61266.8,-923.88 L61591.3,-707.107 L61808,-382.683 L61884.2,0 L61884.2,51480.6 L61808,51863.3 L61591.3,52187.7 L61266.8,52404.5 L60884.2,52480.6 L42219.3,52480.6 L41792.1,52384.8 L41742.5,52346.1 L41557.7,52423 L41282.2,52537.7 L40634.8,52807.3 L40250.4,52884.1 L40143.8,52878.4 L40143.7,52878.4 L39803.4,52778.7 L39519.3,52566.5 L39463.9,52480.6 L30933,52480.6 L30749.4,52517.5 L29750.3,52481.7 L29650.1,52478.2 L28879.1,52450.5 L28742.5,52480.6 L10411.5,52480.6 L10111.6,52825.5 L9771.62,53079.4 L9356.96,53169.4 L9232.22,53161.6 L9232.05,53161.6 L8948.7,53082.4 L8700.68,52924.1 L8039.8,52349.5"/>
</g>

<g fill="none" stroke="#000000" stroke-opacity="1" stroke-width="1" stroke-linecap="square" stroke-linejoin="bevel" transform="matrix(0.999996,0,0,-0.999996,6000.47,58170)"
font-family="MS Shell Dlg 2" font-size="10.3125" font-weight="400" font-style="normal" 
>
</g>

<g fill="none" stroke="#000000" stroke-opacity="1" stroke-width="1" stroke-linecap="square" stroke-linejoin="bevel" transform="matrix(1,0,0,-1,0,64859.3)"
font-family="MS Shell Dlg 2" font-size="10.3125" font-weight="400" font-style="normal" 
>
</g>
</g>
</svg>
