<?xml version="1.0" encoding="UTF-8" standalone="no"?>
<svg width="20569.8mm" height="18304.7mm"
 xmlns="http://www.w3.org/2000/svg" xmlns:xlink="http://www.w3.org/1999/xlink"  version="1.2" baseProfile="tiny">
<title>SVG Generator Example Drawing</title>
<desc>An SVG drawing created by the SVG Generator</desc>
<defs>
</defs>
<g fill="none" stroke="black" stroke-width="1" fill-rule="evenodd" stroke-linecap="square" stroke-linejoin="bevel" >

<g fill="none" stroke="#000000" stroke-opacity="1" stroke-width="1" stroke-linecap="square" stroke-linejoin="bevel" transform="matrix(1,0,0,-1,0,64859.3)"
font-family="MS Shell Dlg 2" font-size="10.3125" font-weight="400" font-style="normal" 
>
</g>

<g fill="none" stroke="#000000" stroke-opacity="1" stroke-width="1" stroke-linecap="square" stroke-linejoin="bevel" transform="matrix(1,0,0,-1,0,64859.3)"
font-family="MS Shell Dlg 2" font-size="10.3125" font-weight="400" font-style="normal" 
>
</g>

<g fill="none" stroke="#000000" stroke-opacity="1" stroke-width="1" stroke-linecap="square" stroke-linejoin="bevel" transform="matrix(0.999996,0,0,-0.999996,6000.47,58170)"
font-family="MS Shell Dlg 2" font-size="10.3125" font-weight="400" font-style="normal" 
>
</g>

<g fill="#333333" fill-opacity="0.2" stroke="#333333" stroke-opacity="1" stroke-width="1" stroke-linecap="round" stroke-linejoin="round" transform="matrix(0.999996,0,0,-0.999996,6000.47,58170)"
font-family="MS Shell Dlg 2" font-size="10.3125" font-weight="400" font-style="normal" 
>
<path vector-effect="non-scaling-stroke" fill-rule="evenodd" d="M-6000,-6688.84 L-6000,58169.4 L66884.2,58169.4 L66884.2,-6688.84 L-6000,-6688.84 M25404.9,29858.2 L25404.9,29858.2 L25492.1,29792.8 L25696.6,29746.7 L25902,29788.5 L26072.3,29911 L26426.6,30301.9 L26426.7,30301.9 L26705.3,30554.5 L26778.6,30620.9 L26893.5,30774.8 L26941.9,30960.6 L26927.2,31072 L26927.2,31072.3 L26927.4,31072.6 L26927.6,31072.9 L27328.1,31421.1 L27447.6,31575.4 L27486.8,31719.2 L27053.2,31459.3 L26543.5,31081.3 L26444.3,30991.4 L26284.7,31175 L26284.7,31175.2 L27001.5,31798.4 L22231.7,37284.7 L22231.5,37284.6 L22230.7,37284.1 L21514.7,36661.6 L21440,36596.6 L21320.5,36442.3 L21269.2,36254.1 L21293.8,36060.6 L21390.1,35892.1 L21766.4,36219.3 L21766.6,36219.3 L26165.1,31160.1 L26165,31160 L25448.2,30536.8 L25701.7,30245.2 L25647.2,30185 L25404.9,29858.2 M28943.6,32314.4 L28969.7,32210.5 L29098.8,32046.5 L29283.6,31949.4 L29492,31936.3 L30060.7,32020.6 L30060.8,32020.7 L30388.9,32036.8 L30487.7,32041.6 L30675.5,32088.3 L30831.5,32202.8 L30932.3,32367.9 L30958.8,32533.6 L30645.5,32549 L30464.3,32540.1 L30331.3,36253.9 L30331.4,36253.9 L30829.8,36271.8 L30785.1,36460.6 L30671,36618.9 L30505,36721.4 L30312.3,36752.6 L30213.4,36749 L29265.2,36715.1 L29264.3,36714.9 L29264.1,36714.9 L29417.6,32429.7 L29384,32424.7 L28943.6,32314.4 M32618.5,32236.2 L32585.2,32064.8 L32627.9,31868.1 L32744.7,31704.1 L32916.8,31599.5 L32928.7,31595.2 L32928.8,31595.2 L32962.4,31579.3 L33458,31344.9 L33458.1,31344.8 L33763.5,31161.8 L33965.3,31093.7 L34177,31115.7 L34360.4,31223.8 L34426.8,31319 L34426.9,31319 L34237.8,31459.3 L34021.1,31589.1 L35994.3,36328.3 L35994.1,36328.4 L35993.3,36328.9 L35117.4,36693.5 L35026,36731.6 L34834.6,36770 L34643.2,36732.3 L34480.8,36624.2 L34372.7,36463.1 L34833.1,36271.4 L34833.2,36271.3 L33083.8,32069.7 L32618.5,32236.2 M35582,21912.9 L35238.7,21615.1 L35238.3,21614.9 L35237.8,21614.9 L35237.4,21615 L35141.4,21689 L34950.3,21739.5 L34754.6,21712 L34584.8,21610.8 L34511.5,21544.4 L34430.5,21470.9 L34430.4,21470.9 L33960.2,21122.1 L33960.1,21122.1 L33822.5,21039.6 L33665.1,20890.6 L33585.6,20689.1 L33598.8,20472.9 L33658,20363.8 L33658.1,20363.7 L33693.5,20380.5 L34077.9,20610.9 L34453.3,20179.1 L35170.1,20802.3 L35170.3,20802.3 L39687.5,15606.7 L39687.4,15606.5 L39311.1,15279.3 L39464.6,15160.5 L39652.8,15109.2 L39846.3,15133.9 L40015.7,15230.7 L40090.5,15295.7 L40806.5,15918.2 L40807,15919 L40807.2,15919.1 L35917.4,21543.3 L35200.6,20920.1 L35200.4,20920.1 L34920.7,21241.8 L35217.6,21510.9 L35582,21912.9 M29593.6,19710.2 L29593.6,19710.2 L29614.5,19825.4 L29561.7,20032 L29427.5,20197.9 L29236.3,20292.7 L28913.5,20373.5 L28913.4,20373.6 L28375.2,20566.1 L28362.3,20570.8 L28362.2,20570.8 L28329.5,20586.2 L28134.3,20633.9 L27936.2,20600.9 L27767,20492.6 L27668.1,20347.1 L28115.2,20135.6 L26251.2,15658.7 L26251,15658.7 L25790.7,15850.3 L25752.5,15660.1 L25790.2,15468.7 L25898.3,15306.3 L26060.4,15197.5 L26151.8,15159.5 L27027.7,14794.8 L27028.6,14794.6 L27028.8,14794.5 L29116.3,19808.3 L29384,19741.3 L29593.6,19710.2 M28554.6,21035.1 L29059.4,20854.5 L29579.5,20724.2 L30109.9,20645.5 L30645.5,20619.2 L31181,20645.5 L31711.4,20724.2 L32231.5,20854.5 L32736.4,21035.1 L33221.1,21264.4 L33681,21540 L34111.6,21859.4 L34174.4,21916.3 L34508.9,22219.5 L34847.5,22593.1 L34869,22616.8 L35188.4,23047.5 L35464.1,23507.4 L35693.3,23992.1 L35874,24496.9 L36004.3,25017.1 L36082.9,25547.5 L36109.2,26083 L36082.9,26618.5 L36004.3,27148.9 L35874,27669 L35693.3,28173.9 L35464.1,28658.6 L35188.4,29118.5 L34869,29549.2 L34508.9,29946.5 L34111.6,30306.6 L33681,30626 L33221.1,30901.6 L32747.8,31125.5 L32736.4,31130.9 L32231.5,31311.5 L31931.5,31386.7 L31711.4,31441.8 L31269.5,31507.3 L31181,31520.5 L30645.5,31546.8 L30413.5,31535.4 L30109.9,31520.5 L29579.5,31441.8 L29059.4,31311.5 L28554.6,31130.9 L28069.9,30901.6 L27727.7,30696.5 L27610,30626 L27179.3,30306.6 L27042.4,30182.5 L26782,29946.5 L26421.9,29549.2 L26102.5,29118.5 L25826.9,28658.6 L25597.6,28173.9 L25417,27669 L25286.7,27148.9 L25208,26618.5 L25181.7,26083 L25208,25547.5 L25286.7,25017.1 L25417,24496.9 L25597.6,23992.1 L25826.9,23507.4 L26102.5,23047.5 L26421.9,22616.8 L26782,22219.5 L27179.3,21859.4 L27610,21540 L27784.4,21435.5 L28069.9,21264.4 L28554.6,21035.1 M44669.9,11476.1 L44669.8,11476 L44669,11475.6 L43953,10853.1 L43878.2,10788.1 L43758.8,10633.8 L43707.5,10445.6 L43732.1,10252.1 L43828.4,10083.5 L44204.7,10410.7 L44204.9,10410.7 L48722.1,5215.04 L48722,5214.88 L48005.2,4591.66 L51997.2,0 L51334,0 L51457.4,-142.043 L51457.6,-142.556 L51460.9,-165.181 L51555.9,-329.129 L52152.6,-1015.49 L52307,-1134.97 L52495.2,-1186.27 L52688.7,-1161.64 L52858.2,-1064.77 L53611.9,-409.475 L53686.6,-344.492 L53806.1,-190.173 L53857.4,-1.9785 L53832.8,191.525 L53736.5,360.073 L53360.2,32.8984 L53360,32.8791 L48842.8,5228.55 L48842.9,5228.71 L49559.7,5851.93 L44669.9,11476.1 M25249,10519.7 L25248.8,10519.8 L25248,10520.3 L24372.2,10885 L24280.7,10923.1 L24089.4,10961.5 L23898,10923.8 L23735.6,10815.7 L23627.4,10654.5 L24087.8,10462.9 L24087.9,10462.7 L21924.7,5267.07 L21924.5,5267.05 L21047.6,5632.14 L18862.8,384.362 L18785.9,1.81807 L18786.3,0 L18557.6,0 L18672,-76.7277 L19547.8,-441.395 L19639.3,-479.464 L19830.6,-517.89 L20022,-480.199 L20184.4,-372.146 L20292.6,-210.939 L19832.2,-19.2725 L19832.1,-19.1446 L21995.3,5176.52 L21995.5,5176.54 L22872.4,4811.45 L25249,10519.7 M8978.65,51840.6 L8825.2,51959.4 L8636.98,52010.7 L8443.46,51986.1 L8274.01,51889.2 L8199.26,51824.3 L7599.04,51302.4 L7598.74,51302.2 L7598.51,51302.2 L7616.2,51163.2 L7809.84,50824.5 L12252.4,45714.6 L12969.2,46337.8 L12969.4,46337.8 L17367.9,41278.7 L17367.8,41278.5 L16991.5,40951.4 L17145,40832.6 L17333.2,40781.3 L17526.7,40805.9 L17696.2,40902.8 L17770.9,40967.8 L18486.9,41590.2 L18487.5,41591 L18487.6,41591.1 L13717.8,47077.4 L13000.9,46454.2 L13000.8,46454.2 L8602.3,51513.3 L8602.34,51513.5 L8978.65,51840.6 M41726.3,51269.7 L41764.5,51459.9 L41726.8,51651.3 L41618.7,51813.7 L41456.6,51922.5 L41365.1,51960.5 L41089.6,52075.2 L40443.1,52344.4 L40251.7,52382.8 L40060.3,52345.1 L39897.9,52237 L39789.2,52074.9 L39622.2,51673.9 L39583.8,51484.9 L39584.6,51480.8 L39584.6,51480.6 L40136.4,51480.6 L38169,46755.1 L39045.9,46390 L39046,46389.9 L36939.6,41330.7 L36939.5,41330.7 L36479.1,41522.4 L36440.9,41332.1 L36478.6,41140.7 L36586.7,40978.3 L36748.8,40869.6 L36840.2,40831.5 L37716.1,40466.8 L37717,40466.6 L37717.2,40466.6 L40036.4,46036.9 L39159.5,46402 L39159.4,46402.2 L41265.8,51461.3 L41265.9,51461.3 L41726.3,51269.7 M31282.2,51480.6 L31282.2,51480.8 L31285.3,51499.6 L31284.1,51534.9 L31239.2,51724.9 L31125,51883.1 L30959.1,51985.6 L30766.4,52016.8 L29768.3,51981.1 L29669.3,51977.5 L29479.4,51932.6 L29321.2,51818.5 L29218.6,51652.6 L29187.6,51460.9 L29685.9,51478.8 L29686.1,51478.7 L29867.2,46419.6 L29867.1,46419.5 L28917.8,46385.5 L29118.7,40777.2 L29118.8,40777.2 L29119.8,40777 L30067.9,40811 L30166.9,40814.5 L30356.8,40859.4 L30515,40973.5 L30617.5,41139.4 L30648.6,41331.1 L30150.3,41313.2 L30150.1,41313.3 L29969,46372.4 L29969.1,46372.5 L30918.4,46406.5 L30736.7,51480.6 L31282.2,51480.6"/>
</g>

<g fill="none" stroke="#000000" stroke-opacity="1" stroke-width="1" stroke-linecap="square" stroke-linejoin="bevel" transform="matrix(0.999996,0,0,-0.999996,6000.47,58170)"
font-family="MS Shell Dlg 2" font-size="10.3125" font-weight="400" font-style="normal" 
>
</g>

<g fill="none" stroke="#000000" stroke-opacity="1" stroke-width="1" stroke-linecap="square" stroke-linejoin="bevel" transform="matrix(0.999996,0,0,-0.999996,6000.47,58170)"
font-family="MS Shell Dlg 2" font-size="10.3125" font-weight="400" font-style="normal" 
>
</g>

<g fill="#ae5151" fill-opacity="0.2" stroke="#333333" stroke-opacity="1" stroke-width="1" stroke-linecap="round" stroke-linejoin="round" transform="matrix(0.999996,0,0,-0.999996,6000.47,58170)"
font-family="MS Shell Dlg 2" font-size="10.3125" font-weight="400" font-style="normal" 
>
<path vector-effect="non-scaling-stroke" fill-rule="evenodd" d="M-6000,-6688.84 L-6000,58169.4 L66884.2,58169.4 L66884.2,-6688.84 L-6000,-6688.84 M25404.9,29858.2 L25404.9,29858.2 L25492.1,29792.8 L25696.6,29746.7 L25902,29788.5 L26072.3,29911 L26426.6,30301.9 L26426.7,30301.9 L26705.3,30554.5 L26778.6,30620.9 L26893.5,30774.8 L26941.9,30960.6 L26927.2,31072 L26927.2,31072.3 L26927.4,31072.6 L26927.6,31072.9 L27328.1,31421.1 L27447.6,31575.4 L27486.8,31719.2 L27053.2,31459.3 L26543.5,31081.3 L26444.3,30991.4 L26284.7,31175 L26284.7,31175.2 L27001.5,31798.4 L22231.7,37284.7 L22231.5,37284.6 L22230.7,37284.1 L21514.7,36661.6 L21440,36596.6 L21320.5,36442.3 L21269.2,36254.1 L21293.8,36060.6 L21390.1,35892.1 L21766.4,36219.3 L21766.6,36219.3 L26165.1,31160.1 L26165,31160 L25448.2,30536.8 L25701.7,30245.2 L25647.2,30185 L25404.9,29858.2 M28943.6,32314.4 L28969.7,32210.5 L29098.8,32046.5 L29283.6,31949.4 L29492,31936.3 L30060.7,32020.6 L30060.8,32020.7 L30388.9,32036.8 L30487.7,32041.6 L30675.5,32088.3 L30831.5,32202.8 L30932.3,32367.9 L30958.8,32533.6 L30645.5,32549 L30464.3,32540.1 L30331.3,36253.9 L30331.4,36253.9 L30829.8,36271.8 L30785.1,36460.6 L30671,36618.9 L30505,36721.4 L30312.3,36752.6 L30213.4,36749 L29265.2,36715.1 L29264.3,36714.9 L29264.1,36714.9 L29417.6,32429.7 L29384,32424.7 L28943.6,32314.4 M32618.5,32236.2 L32585.2,32064.8 L32627.9,31868.1 L32744.7,31704.1 L32916.8,31599.5 L32928.7,31595.2 L32928.8,31595.2 L32962.4,31579.3 L33458,31344.9 L33458.1,31344.8 L33763.5,31161.8 L33965.3,31093.7 L34177,31115.7 L34360.4,31223.8 L34426.8,31319 L34426.9,31319 L34237.8,31459.3 L34021.1,31589.1 L35994.3,36328.3 L35994.1,36328.4 L35993.3,36328.9 L35117.4,36693.5 L35026,36731.6 L34834.6,36770 L34643.2,36732.3 L34480.8,36624.2 L34372.7,36463.1 L34833.1,36271.4 L34833.2,36271.3 L33083.8,32069.7 L32618.5,32236.2 M35582,21912.9 L35238.7,21615.1 L35238.3,21614.9 L35237.8,21614.9 L35237.4,21615 L35141.4,21689 L34950.3,21739.5 L34754.6,21712 L34584.8,21610.8 L34511.5,21544.4 L34430.5,21470.9 L34430.4,21470.9 L33960.2,21122.1 L33960.1,21122.1 L33822.5,21039.6 L33665.1,20890.6 L33585.6,20689.1 L33598.8,20472.9 L33658,20363.8 L33658.1,20363.7 L33693.5,20380.5 L34077.9,20610.9 L34453.3,20179.1 L35170.1,20802.3 L35170.3,20802.3 L39687.5,15606.7 L39687.4,15606.5 L39311.1,15279.3 L39464.6,15160.5 L39652.8,15109.2 L39846.3,15133.9 L40015.7,15230.7 L40090.5,15295.7 L40806.5,15918.2 L40807,15919 L40807.2,15919.1 L35917.4,21543.3 L35200.6,20920.1 L35200.4,20920.1 L34920.7,21241.8 L35217.6,21510.9 L35582,21912.9 M29593.6,19710.2 L29593.6,19710.2 L29614.5,19825.4 L29561.7,20032 L29427.5,20197.9 L29236.3,20292.7 L28913.5,20373.5 L28913.4,20373.6 L28375.2,20566.1 L28362.3,20570.8 L28362.2,20570.8 L28329.5,20586.2 L28134.3,20633.9 L27936.2,20600.9 L27767,20492.6 L27668.1,20347.1 L28115.2,20135.6 L26251.2,15658.7 L26251,15658.7 L25790.7,15850.3 L25752.5,15660.1 L25790.2,15468.7 L25898.3,15306.3 L26060.4,15197.5 L26151.8,15159.5 L27027.7,14794.8 L27028.6,14794.6 L27028.8,14794.5 L29116.3,19808.3 L29384,19741.3 L29593.6,19710.2 M28554.6,21035.1 L29059.4,20854.5 L29579.5,20724.2 L30109.9,20645.5 L30645.5,20619.2 L31181,20645.5 L31711.4,20724.2 L32231.5,20854.5 L32736.4,21035.1 L33221.1,21264.4 L33681,21540 L34111.6,21859.4 L34174.4,21916.3 L34508.9,22219.5 L34847.5,22593.1 L34869,22616.8 L35188.4,23047.5 L35464.1,23507.4 L35693.3,23992.1 L35874,24496.9 L36004.3,25017.1 L36082.9,25547.5 L36109.2,26083 L36082.9,26618.5 L36004.3,27148.9 L35874,27669 L35693.3,28173.9 L35464.1,28658.6 L35188.4,29118.5 L34869,29549.2 L34508.9,29946.5 L34111.6,30306.6 L33681,30626 L33221.1,30901.6 L32747.8,31125.5 L32736.4,31130.9 L32231.5,31311.5 L31931.5,31386.7 L31711.4,31441.8 L31269.5,31507.3 L31181,31520.5 L30645.5,31546.8 L30413.5,31535.4 L30109.9,31520.5 L29579.5,31441.8 L29059.4,31311.5 L28554.6,31130.9 L28069.9,30901.6 L27727.7,30696.5 L27610,30626 L27179.3,30306.6 L27042.4,30182.5 L26782,29946.5 L26421.9,29549.2 L26102.5,29118.5 L25826.9,28658.6 L25597.6,28173.9 L25417,27669 L25286.7,27148.9 L25208,26618.5 L25181.7,26083 L25208,25547.5 L25286.7,25017.1 L25417,24496.9 L25597.6,23992.1 L25826.9,23507.4 L26102.5,23047.5 L26421.9,22616.8 L26782,22219.5 L27179.3,21859.4 L27610,21540 L27784.4,21435.5 L28069.9,21264.4 L28554.6,21035.1 M44669.9,11476.1 L44669.8,11476 L44669,11475.6 L43953,10853.1 L43878.2,10788.1 L43758.8,10633.8 L43707.5,10445.6 L43732.1,10252.1 L43828.4,10083.5 L44204.7,10410.7 L44204.9,10410.7 L48722.1,5215.04 L48722,5214.88 L48005.2,4591.66 L51997.2,0 L51334,0 L51457.4,-142.043 L51457.6,-142.556 L51460.9,-165.181 L51555.9,-329.129 L52152.6,-1015.49 L52307,-1134.97 L52495.2,-1186.27 L52688.7,-1161.64 L52858.2,-1064.77 L53611.9,-409.475 L53686.6,-344.492 L53806.1,-190.173 L53857.4,-1.9785 L53832.8,191.525 L53736.5,360.073 L53360.2,32.8984 L53360,32.8791 L48842.8,5228.55 L48842.9,5228.71 L49559.7,5851.93 L44669.9,11476.1 M25249,10519.7 L25248.8,10519.8 L25248,10520.3 L24372.2,10885 L24280.7,10923.1 L24089.4,10961.5 L23898,10923.8 L23735.6,10815.7 L23627.4,10654.5 L24087.8,10462.9 L24087.9,10462.7 L21924.7,5267.07 L21924.5,5267.05 L21047.6,5632.14 L18862.8,384.362 L18785.9,1.81807 L18786.3,0 L18557.6,0 L18672,-76.7277 L19547.8,-441.395 L19639.3,-479.464 L19830.6,-517.89 L20022,-480.199 L20184.4,-372.146 L20292.6,-210.939 L19832.2,-19.2725 L19832.1,-19.1446 L21995.3,5176.52 L21995.5,5176.54 L22872.4,4811.45 L25249,10519.7 M8978.65,51840.6 L8825.2,51959.4 L8636.98,52010.7 L8443.46,51986.1 L8274.01,51889.2 L8199.26,51824.3 L7599.04,51302.4 L7598.74,51302.2 L7598.51,51302.2 L7616.2,51163.2 L7809.84,50824.5 L12252.4,45714.6 L12969.2,46337.8 L12969.4,46337.8 L17367.9,41278.7 L17367.8,41278.5 L16991.5,40951.4 L17145,40832.6 L17333.2,40781.3 L17526.7,40805.9 L17696.2,40902.8 L17770.9,40967.8 L18486.9,41590.2 L18487.5,41591 L18487.6,41591.1 L13717.8,47077.4 L13000.9,46454.2 L13000.8,46454.2 L8602.3,51513.3 L8602.34,51513.5 L8978.65,51840.6 M41726.3,51269.7 L41764.5,51459.9 L41726.8,51651.3 L41618.7,51813.7 L41456.6,51922.5 L41365.1,51960.5 L41089.6,52075.2 L40443.1,52344.4 L40251.7,52382.8 L40060.3,52345.1 L39897.9,52237 L39789.2,52074.9 L39622.2,51673.9 L39583.8,51484.9 L39584.6,51480.8 L39584.6,51480.6 L40136.4,51480.6 L38169,46755.1 L39045.9,46390 L39046,46389.9 L36939.6,41330.7 L36939.5,41330.7 L36479.1,41522.4 L36440.9,41332.1 L36478.6,41140.7 L36586.7,40978.3 L36748.8,40869.6 L36840.2,40831.5 L37716.1,40466.8 L37717,40466.6 L37717.2,40466.6 L40036.4,46036.9 L39159.5,46402 L39159.4,46402.2 L41265.8,51461.3 L41265.9,51461.3 L41726.3,51269.7 M31282.2,51480.6 L31282.2,51480.8 L31285.3,51499.6 L31284.1,51534.9 L31239.2,51724.9 L31125,51883.1 L30959.1,51985.6 L30766.4,52016.8 L29768.3,51981.1 L29669.3,51977.5 L29479.4,51932.6 L29321.2,51818.5 L29218.6,51652.6 L29187.6,51460.9 L29685.9,51478.8 L29686.1,51478.7 L29867.2,46419.6 L29867.1,46419.5 L28917.8,46385.5 L29118.7,40777.2 L29118.8,40777.2 L29119.8,40777 L30067.9,40811 L30166.9,40814.5 L30356.8,40859.4 L30515,40973.5 L30617.5,41139.4 L30648.6,41331.1 L30150.3,41313.2 L30150.1,41313.3 L29969,46372.4 L29969.1,46372.5 L30918.4,46406.5 L30736.7,51480.6 L31282.2,51480.6"/>
</g>

<g fill="none" stroke="#000000" stroke-opacity="1" stroke-width="1" stroke-linecap="square" stroke-linejoin="bevel" transform="matrix(0.999996,0,0,-0.999996,6000.47,58170)"
font-family="MS Shell Dlg 2" font-size="10.3125" font-weight="400" font-style="normal" 
>
</g>

<g fill="none" stroke="#000000" stroke-opacity="1" stroke-width="1" stroke-linecap="square" stroke-linejoin="bevel" transform="matrix(0.999996,0,0,-0.999996,6000.47,58170)"
font-family="MS Shell Dlg 2" font-size="10.3125" font-weight="400" font-style="normal" 
>
</g>

<g fill="#ffff00" fill-opacity="0.2" stroke="#333333" stroke-opacity="1" stroke-width="1" stroke-linecap="round" stroke-linejoin="round" transform="matrix(0.999996,0,0,-0.999996,6000.47,58170)"
font-family="MS Shell Dlg 2" font-size="10.3125" font-weight="400" font-style="normal" 
>
<path vector-effect="non-scaling-stroke" fill-rule="evenodd" d="M-6000,-6688.84 L-6000,58169.4 L66884.2,58169.4 L66884.2,-6688.84 L-6000,-6688.84 M28554.6,21035.1 L29059.4,20854.5 L29579.5,20724.2 L30109.9,20645.5 L30645.5,20619.2 L31181,20645.5 L31711.4,20724.2 L32231.5,20854.5 L32736.4,21035.1 L33221.1,21264.4 L33681,21540 L34111.6,21859.4 L34174.4,21916.3 L34508.9,22219.5 L34847.5,22593.1 L34869,22616.8 L35188.4,23047.5 L35464.1,23507.4 L35693.3,23992.1 L35874,24496.9 L36004.3,25017.1 L36082.9,25547.5 L36109.2,26083 L36082.9,26618.5 L36004.3,27148.9 L35874,27669 L35693.3,28173.9 L35464.1,28658.6 L35188.4,29118.5 L34869,29549.2 L34508.9,29946.5 L34111.6,30306.6 L33681,30626 L33221.1,30901.6 L32747.8,31125.5 L32736.4,31130.9 L32231.5,31311.5 L31931.5,31386.7 L31711.4,31441.8 L31269.5,31507.3 L31181,31520.5 L30645.5,31546.8 L30413.5,31535.4 L30109.9,31520.5 L29579.5,31441.8 L29059.4,31311.5 L28554.6,31130.9 L28069.9,30901.6 L27727.7,30696.5 L27610,30626 L27179.3,30306.6 L27042.4,30182.5 L26782,29946.5 L26421.9,29549.2 L26102.5,29118.5 L25826.9,28658.6 L25597.6,28173.9 L25417,27669 L25286.7,27148.9 L25208,26618.5 L25181.7,26083 L25208,25547.5 L25286.7,25017.1 L25417,24496.9 L25597.6,23992.1 L25826.9,23507.4 L26102.5,23047.5 L26421.9,22616.8 L26782,22219.5 L27179.3,21859.4 L27610,21540 L27784.4,21435.5 L28069.9,21264.4 L28554.6,21035.1"/>
</g>

<g fill="none" stroke="#000000" stroke-opacity="1" stroke-width="1" stroke-linecap="square" stroke-linejoin="bevel" transform="matrix(0.999996,0,0,-0.999996,6000.47,58170)"
font-family="MS Shell Dlg 2" font-size="10.3125" font-weight="400" font-style="normal" 
>
</g>

<g fill="none" stroke="#000000" stroke-opacity="1" stroke-width="1" stroke-linecap="square" stroke-linejoin="bevel" transform="matrix(0.999996,0,0,-0.999996,6000.47,58170)"
font-family="MS Shell Dlg 2" font-size="10.3125" font-weight="400" font-style="normal" 
>
</g>

<g fill="#ae5151" fill-opacity="0.2" stroke="#333333" stroke-opacity="1" stroke-width="1" stroke-linecap="round" stroke-linejoin="round" transform="matrix(0.999996,0,0,-0.999996,6000.47,58170)"
font-family="MS Shell Dlg 2" font-size="10.3125" font-weight="400" font-style="normal" 
>
<path vector-effect="non-scaling-stroke" fill-rule="evenodd" d="M-6000,-6688.84 L-6000,58169.4 L66884.2,58169.4 L66884.2,-6688.84 L-6000,-6688.84 M28672.4,19929.8 L28705.7,20101.2 L28663.1,20297.9 L28546.3,20461.8 L28374.2,20566.5 L28362.3,20570.8 L28362.2,20570.8 L27832.9,20821.1 L27832.9,20821.2 L27527.4,21004.2 L27325.6,21072.3 L27113.9,21050.3 L26930.5,20942.2 L26864.1,20847 L26864.1,20847 L27053.2,20706.7 L27269.8,20576.9 L25182.4,15563.3 L25182.6,15563.2 L25183.4,15562.7 L26150.7,15159.9 L26342,15121.5 L26533.4,15159.2 L26695.8,15267.3 L26804,15428.5 L26343.6,15620.1 L26343.5,15620.3 L28207.1,20096.3 L28672.4,19929.8 M25506.3,29995.1 L25650.6,30013.3 L25820,30109.9 L26220.9,30457.7 L26221.4,30457.9 L26221.9,30457.9 L26340.6,30426.5 L26536.3,30454 L26706.1,30555.2 L26860.4,30695.1 L26860.5,30695.1 L27330.7,31043.9 L27330.8,31043.9 L27468.5,31126.4 L27625.8,31275.4 L27705.3,31476.9 L27692.2,31693.1 L27632.9,31802.2 L27632.9,31802.3 L27597.4,31785.5 L27213.1,31555.1 L26957.5,31849 L26240.7,31225.8 L26240.6,31225.7 L21842.1,36284.9 L21842.1,36285.1 L22218.4,36612.2 L22065,36731 L21876.8,36782.3 L21683.2,36757.7 L21513.8,36660.8 L20723.1,35973.3 L20722.5,35972.6 L20722.3,35972.5 L25492.2,30486.2 L26209,31109.4 L26209.2,31109.4 L26370.2,30924.2 L26073.3,30655.1 L25647.2,30185 L25506.3,29995.1 M29870.8,32496.9 L29911.3,32327 L30027.1,32168 L30195.3,32066 L30390,32036.8 L30645.5,32049.4 L30645.6,32049.4 L31230.3,32020.6 L31230.4,32020.6 L31341.9,32004.1 L31558.9,32019.7 L31739,32120.6 L31739.4,32120.7 L31739.7,32120.7 L31740,32120.6 L31740.3,32120.3 L31863.5,31968.1 L32054.7,31873.3 L32377.4,31792.5 L32377.5,31792.4 L32928.7,31595.2 L32928.8,31595.2 L32961.4,31579.8 L33156.6,31532.1 L33354.8,31565.1 L33523.9,31673.4 L33622.8,31818.9 L33175.8,32030.4 L34925.5,36232.9 L34925.6,36232.9 L35386,36041.2 L35424.2,36231.5 L35386.5,36422.9 L35278.4,36585.3 L35116.3,36694 L35024.9,36732.1 L34149,37096.8 L34148.1,37096.9 L34147.9,37097 L32174.7,32357.7 L31906.9,32424.7 L31416.4,32497.5 L31262.8,36786.4 L31262.6,36786.4 L31261.7,36786.6 L30214.6,36749.1 L30024.7,36704.2 L29866.4,36590.1 L29763.9,36424.1 L29732.9,36232.5 L30231.2,36250.4 L30231.4,36250.3 L30364.4,32535.2 L30011.7,32517.8 L29870.8,32496.9 M35886.1,22307.8 L35886.1,22307.8 L35798.8,22373.2 L35594.3,22419.3 L35388.9,22377.5 L35218.6,22255 L34864.3,21864.1 L34864.3,21864.1 L34512.3,21545.1 L34397.3,21390.9 L34349,21204.9 L34374.4,21014.4 L34431.8,20914 L34431.9,20913.6 L34431.9,20913.3 L34431.8,20913 L34431.6,20912.7 L34099,20623.6 L34237.8,20706.7 L34747.4,21084.7 L34846.6,21174.6 L35125,20854.5 L35124.9,20854.3 L34408.1,20231.1 L39297.9,14606.9 L39298,14607 L39298.8,14607.4 L40014.8,15229.9 L40089.6,15294.9 L40209,15449.2 L40260.3,15637.4 L40235.7,15830.9 L40139.4,15999.5 L39763.1,15672.3 L39762.9,15672.3 L35245.7,20868 L35245.8,20868.1 L35962.6,21491.3 L35589.2,21920.8 L35643.7,21981 L35886.1,22307.8 M28554.6,21035.1 L29059.4,20854.5 L29579.5,20724.2 L30109.9,20645.5 L30645.5,20619.2 L31181,20645.5 L31711.4,20724.2 L32231.5,20854.5 L32736.4,21035.1 L33221.1,21264.4 L33681,21540 L34111.6,21859.4 L34174.4,21916.3 L34508.9,22219.5 L34847.5,22593.1 L34869,22616.8 L35188.4,23047.5 L35464.1,23507.4 L35693.3,23992.1 L35874,24496.9 L36004.3,25017.1 L36082.9,25547.5 L36109.2,26083 L36082.9,26618.5 L36004.3,27148.9 L35874,27669 L35693.3,28173.9 L35464.1,28658.6 L35188.4,29118.5 L34869,29549.2 L34508.9,29946.5 L34111.6,30306.6 L33681,30626 L33221.1,30901.6 L32747.8,31125.5 L32736.4,31130.9 L32231.5,31311.5 L31931.5,31386.7 L31711.4,31441.8 L31269.5,31507.3 L31181,31520.5 L30645.5,31546.8 L30413.5,31535.4 L30109.9,31520.5 L29579.5,31441.8 L29059.4,31311.5 L28554.6,31130.9 L28069.9,30901.6 L27727.7,30696.5 L27610,30626 L27179.3,30306.6 L27042.4,30182.5 L26782,29946.5 L26421.9,29549.2 L26102.5,29118.5 L25826.9,28658.6 L25597.6,28173.9 L25417,27669 L25286.7,27148.9 L25208,26618.5 L25181.7,26083 L25208,25547.5 L25286.7,25017.1 L25417,24496.9 L25597.6,23992.1 L25826.9,23507.4 L26102.5,23047.5 L26421.9,22616.8 L26782,22219.5 L27179.3,21859.4 L27610,21540 L27784.4,21435.5 L28069.9,21264.4 L28554.6,21035.1 M24640.7,10232.7 L24678.9,10422.9 L24641.2,10614.3 L24533.1,10776.7 L24371,10885.5 L24279.6,10923.5 L23403.7,11288.2 L23402.8,11288.4 L23402.6,11288.5 L21026,5580.18 L21902.9,5215.09 L21903,5214.96 L19739.8,19.2916 L19739.6,19.2725 L19279.3,210.931 L19241.1,20.6659 L19278.8,-170.737 L19386.9,-333.139 L19549,-441.872 L19640.4,-479.94 L20306.6,-757.313 L20562.5,-863.826 L20753.8,-902.253 L20945.2,-864.542 L21107.6,-756.455 L21216.4,-594.363 L21383.4,-193.271 L21421.8,-4.31004 L21421,-0.18623 L21421,0 L20869.1,0 L22894,4863.41 L22017.1,5228.5 L22017,5228.63 L24180.2,10424.3 L24180.4,10424.3 L24640.7,10232.7 M44656.7,10803.7 L44503.2,10922.5 L44315,10973.8 L44121.5,10949.1 L43952.1,10852.3 L43877.3,10787.3 L43161.3,10164.8 L43160.8,10164 L43160.6,10163.9 L48050.4,4539.7 L48767.2,5162.92 L48767.4,5162.94 L53284.5,-32.7322 L53284.5,-32.8984 L52908.2,-360.063 L53061.6,-478.86 L53249.9,-530.16 L53443.4,-505.527 L53612.8,-408.662 L53687.6,-343.678 L54287.8,178.161 L54288.1,178.344 L54288.3,178.383 L54270.6,317.372 L54077,656.113 L49514.5,5903.89 L48797.7,5280.67 L48797.5,5280.65 L44280.3,10476.3 L44280.4,10476.5 L44656.7,10803.7 M30284.5,51500.2 L30239.8,51689.1 L30125.7,51847.3 L29959.7,51949.8 L29767,51981 L29668.1,51977.5 L28719.9,51943.5 L28530,51898.6 L28371.7,51784.5 L28269.2,51618.5 L28246.9,51480.6 L28742.5,51480.6 L28736.7,51444.8 L28919.6,46334.9 L29868.9,46368.9 L29869,46368.9 L30050.2,41309.7 L30050.1,41309.6 L29551.7,41291.8 L29596.4,41102.9 L29710.5,40944.7 L29876.5,40842.2 L30069.1,40811 L30168.1,40814.5 L31116.3,40848.5 L31117.2,40848.7 L31117.4,40848.7 L30916.5,46457.1 L29967.3,46423.1 L29967.2,46423.2 L29786,51482.3 L29786.1,51482.4 L30284.5,51500.2 M10552.9,51480.6 L10429.4,51622.6 L10429.2,51623.1 L10425.9,51645.8 L10330.9,51809.7 L9734.2,52496.1 L9579.86,52615.6 L9391.64,52666.9 L9198.12,52642.2 L9028.67,52545.4 L8274.94,51890.1 L8200.2,51825.1 L8080.73,51670.8 L8029.42,51482.6 L8054.03,51289.1 L8150.35,51120.5 L8526.66,51447.7 L8526.83,51447.7 L12925.3,46388.6 L12925.3,46388.4 L12208.4,45765.2 L16978.3,40278.9 L16978.5,40279 L16979.3,40279.5 L17695.2,40902 L17770,40966.9 L17889.5,41121.3 L17940.8,41309.5 L17916.2,41503 L17819.8,41671.5 L17443.5,41344.3 L17443.4,41344.3 L13044.9,46403.4 L13044.9,46403.6 L13761.8,47026.8 L9889.6,51480.6 L10552.9,51480.6 M42448,51480.6 L42333.6,51557.3 L41366.3,51960.1 L41174.9,51998.5 L40983.6,51960.8 L40821.2,51852.7 L40713,51691.5 L41173.3,51499.9 L41173.4,51499.7 L39067.1,46440.6 L39066.9,46440.6 L38190,46805.7 L35870.8,41235.3 L35871,41235.2 L35871.8,41234.7 L36839.1,40832 L37030.4,40793.5 L37221.8,40831.2 L37384.2,40939.3 L37492.4,41100.5 L37032,41292.2 L37031.9,41292.3 L39138.3,46351.4 L39138.4,46351.4 L40015.3,45986.4 L42142.8,51096.2 L42219.6,51478.8 L42219.3,51480.6 L42448,51480.6"/>
</g>

<g fill="none" stroke="#000000" stroke-opacity="1" stroke-width="1" stroke-linecap="square" stroke-linejoin="bevel" transform="matrix(0.999996,0,0,-0.999996,6000.47,58170)"
font-family="MS Shell Dlg 2" font-size="10.3125" font-weight="400" font-style="normal" 
>
</g>

<g fill="none" stroke="#000000" stroke-opacity="1" stroke-width="1" stroke-linecap="square" stroke-linejoin="bevel" transform="matrix(0.999996,0,0,-0.999996,6000.47,58170)"
font-family="MS Shell Dlg 2" font-size="10.3125" font-weight="400" font-style="normal" 
>
</g>

<g fill="#333333" fill-opacity="0.2" stroke="#333333" stroke-opacity="1" stroke-width="1" stroke-linecap="round" stroke-linejoin="round" transform="matrix(0.999996,0,0,-0.999996,6000.47,58170)"
font-family="MS Shell Dlg 2" font-size="10.3125" font-weight="400" font-style="normal" 
>
<path vector-effect="non-scaling-stroke" fill-rule="evenodd" d="M-6000,-6688.84 L-6000,58169.4 L66884.2,58169.4 L66884.2,-6688.84 L-6000,-6688.84 M28672.4,19929.8 L28705.7,20101.2 L28663.1,20297.9 L28546.3,20461.8 L28374.2,20566.5 L28362.3,20570.8 L28362.2,20570.8 L27832.9,20821.1 L27832.9,20821.2 L27527.4,21004.2 L27325.6,21072.3 L27113.9,21050.3 L26930.5,20942.2 L26864.1,20847 L26864.1,20847 L27053.2,20706.7 L27269.8,20576.9 L25182.4,15563.3 L25182.6,15563.2 L25183.4,15562.7 L26150.7,15159.9 L26342,15121.5 L26533.4,15159.2 L26695.8,15267.3 L26804,15428.5 L26343.6,15620.1 L26343.5,15620.3 L28207.1,20096.3 L28672.4,19929.8 M25506.3,29995.1 L25650.6,30013.3 L25820,30109.9 L26220.9,30457.7 L26221.4,30457.9 L26221.9,30457.9 L26340.6,30426.5 L26536.3,30454 L26706.1,30555.2 L26860.4,30695.1 L26860.5,30695.1 L27330.7,31043.9 L27330.8,31043.9 L27468.5,31126.4 L27625.8,31275.4 L27705.3,31476.9 L27692.2,31693.1 L27632.9,31802.2 L27632.9,31802.3 L27597.4,31785.5 L27213.1,31555.1 L26957.5,31849 L26240.7,31225.8 L26240.6,31225.7 L21842.1,36284.9 L21842.1,36285.1 L22218.4,36612.2 L22065,36731 L21876.8,36782.3 L21683.2,36757.7 L21513.8,36660.8 L20723.1,35973.3 L20722.5,35972.6 L20722.3,35972.5 L25492.2,30486.2 L26209,31109.4 L26209.2,31109.4 L26370.2,30924.2 L26073.3,30655.1 L25647.2,30185 L25506.3,29995.1 M29870.8,32496.9 L29911.3,32327 L30027.1,32168 L30195.3,32066 L30390,32036.8 L30645.5,32049.4 L30645.6,32049.4 L31230.3,32020.6 L31230.4,32020.6 L31341.9,32004.1 L31558.9,32019.7 L31739,32120.6 L31739.4,32120.7 L31739.7,32120.7 L31740,32120.6 L31740.3,32120.3 L31863.5,31968.1 L32054.7,31873.3 L32377.4,31792.5 L32377.5,31792.4 L32928.7,31595.2 L32928.8,31595.2 L32961.4,31579.8 L33156.6,31532.1 L33354.8,31565.1 L33523.9,31673.4 L33622.8,31818.9 L33175.8,32030.4 L34925.5,36232.9 L34925.6,36232.9 L35386,36041.2 L35424.2,36231.5 L35386.5,36422.9 L35278.4,36585.3 L35116.3,36694 L35024.9,36732.1 L34149,37096.8 L34148.1,37096.9 L34147.9,37097 L32174.7,32357.7 L31906.9,32424.7 L31416.4,32497.5 L31262.8,36786.4 L31262.6,36786.4 L31261.7,36786.6 L30214.6,36749.1 L30024.7,36704.2 L29866.4,36590.1 L29763.9,36424.1 L29732.9,36232.5 L30231.2,36250.4 L30231.4,36250.3 L30364.4,32535.2 L30011.7,32517.8 L29870.8,32496.9 M35886.1,22307.8 L35886.1,22307.8 L35798.8,22373.2 L35594.3,22419.3 L35388.9,22377.5 L35218.6,22255 L34864.3,21864.1 L34864.3,21864.1 L34512.3,21545.1 L34397.3,21390.9 L34349,21204.9 L34374.4,21014.4 L34431.8,20914 L34431.9,20913.6 L34431.9,20913.3 L34431.8,20913 L34431.6,20912.7 L34099,20623.6 L34237.8,20706.7 L34747.4,21084.7 L34846.6,21174.6 L35125,20854.5 L35124.9,20854.3 L34408.1,20231.1 L39297.9,14606.9 L39298,14607 L39298.8,14607.4 L40014.8,15229.9 L40089.6,15294.9 L40209,15449.2 L40260.3,15637.4 L40235.7,15830.9 L40139.4,15999.5 L39763.1,15672.3 L39762.9,15672.3 L35245.7,20868 L35245.8,20868.1 L35962.6,21491.3 L35589.2,21920.8 L35643.7,21981 L35886.1,22307.8 M28554.6,21035.1 L29059.4,20854.5 L29579.5,20724.2 L30109.9,20645.5 L30645.5,20619.2 L31181,20645.5 L31711.4,20724.2 L32231.5,20854.5 L32736.4,21035.1 L33221.1,21264.4 L33681,21540 L34111.6,21859.4 L34174.4,21916.3 L34508.9,22219.5 L34847.5,22593.1 L34869,22616.8 L35188.4,23047.5 L35464.1,23507.4 L35693.3,23992.1 L35874,24496.9 L36004.3,25017.1 L36082.9,25547.5 L36109.2,26083 L36082.9,26618.5 L36004.3,27148.9 L35874,27669 L35693.3,28173.9 L35464.1,28658.6 L35188.4,29118.5 L34869,29549.2 L34508.9,29946.5 L34111.6,30306.6 L33681,30626 L33221.1,30901.6 L32747.8,31125.5 L32736.4,31130.9 L32231.5,31311.5 L31931.5,31386.7 L31711.4,31441.8 L31269.5,31507.3 L31181,31520.5 L30645.5,31546.8 L30413.5,31535.4 L30109.9,31520.5 L29579.5,31441.8 L29059.4,31311.5 L28554.6,31130.9 L28069.9,30901.6 L27727.7,30696.5 L27610,30626 L27179.3,30306.6 L27042.4,30182.5 L26782,29946.5 L26421.9,29549.2 L26102.5,29118.5 L25826.9,28658.6 L25597.6,28173.9 L25417,27669 L25286.7,27148.9 L25208,26618.5 L25181.7,26083 L25208,25547.5 L25286.7,25017.1 L25417,24496.9 L25597.6,23992.1 L25826.9,23507.4 L26102.5,23047.5 L26421.9,22616.8 L26782,22219.5 L27179.3,21859.4 L27610,21540 L27784.4,21435.5 L28069.9,21264.4 L28554.6,21035.1 M24640.7,10232.7 L24678.9,10422.9 L24641.2,10614.3 L24533.1,10776.7 L24371,10885.5 L24279.6,10923.5 L23403.7,11288.2 L23402.8,11288.4 L23402.6,11288.5 L21026,5580.18 L21902.9,5215.09 L21903,5214.96 L19739.8,19.2916 L19739.6,19.2725 L19279.3,210.931 L19241.1,20.6659 L19278.8,-170.737 L19386.9,-333.139 L19549,-441.872 L19640.4,-479.94 L20306.6,-757.313 L20562.5,-863.826 L20753.8,-902.253 L20945.2,-864.542 L21107.6,-756.455 L21216.4,-594.363 L21383.4,-193.271 L21421.8,-4.31004 L21421,-0.18623 L21421,0 L20869.1,0 L22894,4863.41 L22017.1,5228.5 L22017,5228.63 L24180.2,10424.3 L24180.4,10424.3 L24640.7,10232.7 M44656.7,10803.7 L44503.2,10922.5 L44315,10973.8 L44121.5,10949.1 L43952.1,10852.3 L43877.3,10787.3 L43161.3,10164.8 L43160.8,10164 L43160.6,10163.9 L48050.4,4539.7 L48767.2,5162.92 L48767.4,5162.94 L53284.5,-32.7322 L53284.5,-32.8984 L52908.2,-360.063 L53061.6,-478.86 L53249.9,-530.16 L53443.4,-505.527 L53612.8,-408.662 L53687.6,-343.678 L54287.8,178.161 L54288.1,178.344 L54288.3,178.383 L54270.6,317.372 L54077,656.113 L49514.5,5903.89 L48797.7,5280.67 L48797.5,5280.65 L44280.3,10476.3 L44280.4,10476.5 L44656.7,10803.7 M30284.5,51500.2 L30239.8,51689.1 L30125.7,51847.3 L29959.7,51949.8 L29767,51981 L29668.1,51977.5 L28719.9,51943.5 L28530,51898.6 L28371.7,51784.5 L28269.2,51618.5 L28246.9,51480.6 L28742.5,51480.6 L28736.7,51444.8 L28919.6,46334.9 L29868.9,46368.9 L29869,46368.9 L30050.2,41309.7 L30050.1,41309.6 L29551.7,41291.8 L29596.4,41102.9 L29710.5,40944.7 L29876.5,40842.2 L30069.1,40811 L30168.1,40814.5 L31116.3,40848.5 L31117.2,40848.7 L31117.4,40848.7 L30916.5,46457.1 L29967.3,46423.1 L29967.2,46423.2 L29786,51482.3 L29786.1,51482.4 L30284.5,51500.2 M10552.9,51480.6 L10429.4,51622.6 L10429.2,51623.1 L10425.9,51645.8 L10330.9,51809.7 L9734.2,52496.1 L9579.86,52615.6 L9391.64,52666.9 L9198.12,52642.2 L9028.67,52545.4 L8274.94,51890.1 L8200.2,51825.1 L8080.73,51670.8 L8029.42,51482.6 L8054.03,51289.1 L8150.35,51120.5 L8526.66,51447.7 L8526.83,51447.7 L12925.3,46388.6 L12925.3,46388.4 L12208.4,45765.2 L16978.3,40278.9 L16978.5,40279 L16979.3,40279.5 L17695.2,40902 L17770,40966.9 L17889.5,41121.3 L17940.8,41309.5 L17916.2,41503 L17819.8,41671.5 L17443.5,41344.3 L17443.4,41344.3 L13044.9,46403.4 L13044.9,46403.6 L13761.8,47026.8 L9889.6,51480.6 L10552.9,51480.6 M42448,51480.6 L42333.6,51557.3 L41366.3,51960.1 L41174.9,51998.5 L40983.6,51960.8 L40821.2,51852.7 L40713,51691.5 L41173.3,51499.9 L41173.4,51499.7 L39067.1,46440.6 L39066.9,46440.6 L38190,46805.7 L35870.8,41235.3 L35871,41235.2 L35871.8,41234.7 L36839.1,40832 L37030.4,40793.5 L37221.8,40831.2 L37384.2,40939.3 L37492.4,41100.5 L37032,41292.2 L37031.9,41292.3 L39138.3,46351.4 L39138.4,46351.4 L40015.3,45986.4 L42142.8,51096.2 L42219.6,51478.8 L42219.3,51480.6 L42448,51480.6"/>
</g>

<g fill="none" stroke="#000000" stroke-opacity="1" stroke-width="1" stroke-linecap="square" stroke-linejoin="bevel" transform="matrix(0.999996,0,0,-0.999996,6000.47,58170)"
font-family="MS Shell Dlg 2" font-size="10.3125" font-weight="400" font-style="normal" 
>
</g>

<g fill="none" stroke="#000000" stroke-opacity="1" stroke-width="1" stroke-linecap="square" stroke-linejoin="bevel" transform="matrix(1,0,0,-1,0,64859.3)"
font-family="MS Shell Dlg 2" font-size="10.3125" font-weight="400" font-style="normal" 
>
</g>
</g>
</svg>
