<?xml version="1.0" encoding="UTF-8" standalone="no"?>
<svg width="16933.6mm" height="32541.9mm"
 xmlns="http://www.w3.org/2000/svg" xmlns:xlink="http://www.w3.org/1999/xlink"  version="1.2" baseProfile="tiny">
<title>SVG Generator Example Drawing</title>
<desc>An SVG drawing created by the SVG Generator</desc>
<defs>
</defs>
<g fill="none" stroke="black" stroke-width="1" fill-rule="evenodd" stroke-linecap="square" stroke-linejoin="bevel" >

<g fill="none" stroke="#000000" stroke-opacity="1" stroke-width="1" stroke-linecap="square" stroke-linejoin="bevel" transform="matrix(1,0,0,-1,0,115307)"
font-family="MS Shell Dlg 2" font-size="10.3125" font-weight="400" font-style="normal" 
>
</g>

<g fill="none" stroke="#000000" stroke-opacity="1" stroke-width="1" stroke-linecap="square" stroke-linejoin="bevel" transform="matrix(1,0,0,-1,0,115307)"
font-family="MS Shell Dlg 2" font-size="10.3125" font-weight="400" font-style="normal" 
>
</g>

<g fill="none" stroke="#000000" stroke-opacity="1" stroke-width="1" stroke-linecap="square" stroke-linejoin="bevel" transform="matrix(0.999992,0,0,-0.999992,30000.2,71306.9)"
font-family="MS Shell Dlg 2" font-size="10.3125" font-weight="400" font-style="normal" 
>
</g>

<g fill="#333333" fill-opacity="0.2" stroke="#333333" stroke-opacity="1" stroke-width="1" stroke-linecap="round" stroke-linejoin="round" transform="matrix(0.999992,0,0,-0.999992,30000.2,71306.9)"
font-family="MS Shell Dlg 2" font-size="10.3125" font-weight="400" font-style="normal" 
>
<path vector-effect="non-scaling-stroke" fill-rule="evenodd" d="M-23225,34881.2 L-23224.9,34881.1 L-16026.4,34881.1 L-16026.3,34880.9 L-16026.3,646.209 L-16026.4,646.068 L-29999.9,646.068 L-30000,646.209 L-30000,71305.9 L-29999.9,71306.1 L-16026.4,71306.1 L-16026.3,71305.9 L-16026.3,56881.2 L-16026.2,56881.1 L16026.2,56881.1 L16026.3,56881.2 L16026.3,71305.9 L16026.4,71306.1 L29999.9,71306.1 L30000,71305.9 L30000,646.209 L29999.9,646.068 L16026.4,646.068 L16026.3,646.209 L16026.3,34880.9 L16026.4,34881.1 L23224.9,34881.1 L23225,34881.2 L23225,37311 L23224.9,37311.1 L16026.4,37311.1 L16026.3,37311.2 L16026.3,44071 L16026.2,44071.1 L10375.1,44071.1 L10375,44071 L10375,37071.2 L10374.9,37071.1 L10125.1,37071.1 L10125,37071 L10125,7778.55 L10125.1,7778.45 L10125.2,7778.5 L10275.1,8038.13 L10275.3,8038.18 L13278.1,6304.49 L13278.2,6304.38 L15026.3,-6973.67 L15026.3,-6973.76 L9526.29,-16500 L9526.27,-16500 L5500.01,-20526.3 L5499.98,-20526.3 L5000.05,-20814.9 L5000,-20815 L5000,-38999.9 L4999.96,-39000 L0.1,-43999.9 L-0.1,-43999.9 L-4999.96,-39000 L-5000,-38999.9 L-5000,-20815 L-5000.05,-20814.9 L-5499.98,-20526.3 L-5500.01,-20526.3 L-9526.27,-16500 L-9526.29,-16500 L-15026.3,-6973.76 L-15026.3,-6973.67 L-13278.2,6304.38 L-13278.1,6304.49 L-10275.3,8038.18 L-10275.1,8038.13 L-10125.2,7778.5 L-10125.1,7778.45 L-10125,7778.55 L-10125,37071 L-10125.1,37071.1 L-10374.9,37071.1 L-10375,37071.2 L-10375,44071 L-10375.1,44071.1 L-16026.2,44071.1 L-16026.3,44071 L-16026.3,37311.2 L-16026.4,37311.1 L-23224.9,37311.1 L-23225,37311 L-23225,34881.2 M4662.88,9760.82 L4662.88,9760.79 L4680.13,9660.74 L4680.14,9660.72 L4722.02,9568.24 L4722.03,9568.22 L4785.86,9489.27 L4785.88,9489.25 L4867.53,9428.91 L4867.55,9428.9 L4961.76,9391.07 L4961.79,9391.06 L5062.49,9378.18 L5062.51,9378.18 L5131.65,9384.2 L5131.67,9384.2 L5228.63,9414.31 L5228.65,9414.32 L5314.9,9467.87 L5314.92,9467.88 L5384.91,9541.43 L5384.93,9541.45 L5434.14,9630.24 L5434.15,9630.27 L5459.41,9728.6 L5459.42,9728.62 L5459.11,9830.15 L5459.1,9830.17 L5433.24,9928.34 L5433.23,9928.37 L5383.48,10016.9 L5383.46,10016.9 L5313.03,10090 L5313.01,10090 L5226.43,10143 L5226.41,10143 L5129.27,10172.6 L5129.24,10172.6 L5027.8,10176.7 L5027.78,10176.7 L4928.57,10155.1 L4928.55,10155.1 L4837.98,10109.2 L4837.95,10109.2 L4761.85,10042 L4761.83,10042 L4705.1,9957.8 L4705.09,9957.77 L4671.39,9862.01 L4671.38,9861.98 L4662.88,9760.82 M-125,7778.27 L-124.9,7778.17 L124.9,7778.17 L125,7778.27 L125,37071 L124.9,37071.1 L-124.9,37071.1 L-125,37071 L-125,7778.27 M-5462.12,9760.82 L-5462.12,9760.79 L-5444.87,9660.74 L-5444.86,9660.72 L-5402.98,9568.24 L-5402.97,9568.22 L-5339.14,9489.27 L-5339.12,9489.25 L-5257.47,9428.91 L-5257.45,9428.9 L-5163.24,9391.07 L-5163.21,9391.06 L-5062.51,9378.18 L-5062.49,9378.18 L-4993.35,9384.2 L-4993.33,9384.2 L-4896.37,9414.31 L-4896.35,9414.32 L-4810.1,9467.87 L-4810.08,9467.88 L-4740.09,9541.43 L-4740.07,9541.45 L-4690.86,9630.24 L-4690.85,9630.27 L-4665.59,9728.6 L-4665.58,9728.62 L-4665.89,9830.15 L-4665.9,9830.17 L-4691.76,9928.34 L-4691.77,9928.37 L-4741.52,10016.9 L-4741.54,10016.9 L-4811.97,10090 L-4811.99,10090 L-4898.57,10143 L-4898.59,10143 L-4995.73,10172.6 L-4995.76,10172.6 L-5097.2,10176.7 L-5097.22,10176.7 L-5196.43,10155.1 L-5196.45,10155.1 L-5287.02,10109.2 L-5287.05,10109.2 L-5363.15,10042 L-5363.17,10042 L-5419.9,9957.8 L-5419.91,9957.77 L-5453.61,9862.01 L-5453.62,9861.98 L-5462.12,9760.82"/>
</g>

<g fill="none" stroke="#000000" stroke-opacity="1" stroke-width="1" stroke-linecap="square" stroke-linejoin="bevel" transform="matrix(0.999992,0,0,-0.999992,30000.2,71306.9)"
font-family="MS Shell Dlg 2" font-size="10.3125" font-weight="400" font-style="normal" 
>
</g>

<g fill="none" stroke="#000000" stroke-opacity="1" stroke-width="1" stroke-linecap="square" stroke-linejoin="bevel" transform="matrix(0.999992,0,0,-0.999992,30000.2,71306.9)"
font-family="MS Shell Dlg 2" font-size="10.3125" font-weight="400" font-style="normal" 
>
</g>

<g fill="#ae5151" fill-opacity="0.2" stroke="#333333" stroke-opacity="1" stroke-width="1" stroke-linecap="round" stroke-linejoin="round" transform="matrix(0.999992,0,0,-0.999992,30000.2,71306.9)"
font-family="MS Shell Dlg 2" font-size="10.3125" font-weight="400" font-style="normal" 
>
<path vector-effect="non-scaling-stroke" fill-rule="evenodd" d="M-23225,34881.2 L-23224.9,34881.1 L-16026.4,34881.1 L-16026.3,34880.9 L-16026.3,646.209 L-16026.4,646.068 L-29999.9,646.068 L-30000,646.209 L-30000,71305.9 L-29999.9,71306.1 L-16026.4,71306.1 L-16026.3,71305.9 L-16026.3,56881.2 L-16026.2,56881.1 L16026.2,56881.1 L16026.3,56881.2 L16026.3,71305.9 L16026.4,71306.1 L29999.9,71306.1 L30000,71305.9 L30000,646.209 L29999.9,646.068 L16026.4,646.068 L16026.3,646.209 L16026.3,34880.9 L16026.4,34881.1 L23224.9,34881.1 L23225,34881.2 L23225,37311 L23224.9,37311.1 L16026.4,37311.1 L16026.3,37311.2 L16026.3,44071 L16026.2,44071.1 L10375.1,44071.1 L10375,44071 L10375,37071.2 L10374.9,37071.1 L10125.1,37071.1 L10125,37071 L10125,7778.55 L10125.1,7778.45 L10125.2,7778.5 L10275.1,8038.13 L10275.3,8038.18 L13278.1,6304.49 L13278.2,6304.38 L15026.3,-6973.67 L15026.3,-6973.76 L9526.29,-16500 L9526.27,-16500 L5500.01,-20526.3 L5499.98,-20526.3 L5000.05,-20814.9 L5000,-20815 L5000,-38999.9 L4999.96,-39000 L0.1,-43999.9 L-0.1,-43999.9 L-4999.96,-39000 L-5000,-38999.9 L-5000,-20815 L-5000.05,-20814.9 L-5499.98,-20526.3 L-5500.01,-20526.3 L-9526.27,-16500 L-9526.29,-16500 L-15026.3,-6973.76 L-15026.3,-6973.67 L-13278.2,6304.38 L-13278.1,6304.49 L-10275.3,8038.18 L-10275.1,8038.13 L-10125.2,7778.5 L-10125.1,7778.45 L-10125,7778.55 L-10125,37071 L-10125.1,37071.1 L-10374.9,37071.1 L-10375,37071.2 L-10375,44071 L-10375.1,44071.1 L-16026.2,44071.1 L-16026.3,44071 L-16026.3,37311.2 L-16026.4,37311.1 L-23224.9,37311.1 L-23225,37311 L-23225,34881.2 M4662.88,9760.82 L4662.88,9760.79 L4680.13,9660.74 L4680.14,9660.72 L4722.02,9568.24 L4722.03,9568.22 L4785.86,9489.27 L4785.88,9489.25 L4867.53,9428.91 L4867.55,9428.9 L4961.76,9391.07 L4961.79,9391.06 L5062.49,9378.18 L5062.51,9378.18 L5131.65,9384.2 L5131.67,9384.2 L5228.63,9414.31 L5228.65,9414.32 L5314.9,9467.87 L5314.92,9467.88 L5384.91,9541.43 L5384.93,9541.45 L5434.14,9630.24 L5434.15,9630.27 L5459.41,9728.6 L5459.42,9728.62 L5459.11,9830.15 L5459.1,9830.17 L5433.24,9928.34 L5433.23,9928.37 L5383.48,10016.9 L5383.46,10016.9 L5313.03,10090 L5313.01,10090 L5226.43,10143 L5226.41,10143 L5129.27,10172.6 L5129.24,10172.6 L5027.8,10176.7 L5027.78,10176.7 L4928.57,10155.1 L4928.55,10155.1 L4837.98,10109.2 L4837.95,10109.2 L4761.85,10042 L4761.83,10042 L4705.1,9957.8 L4705.09,9957.77 L4671.39,9862.01 L4671.38,9861.98 L4662.88,9760.82 M-125,7778.27 L-124.9,7778.17 L124.9,7778.17 L125,7778.27 L125,37071 L124.9,37071.1 L-124.9,37071.1 L-125,37071 L-125,7778.27 M-5462.12,9760.82 L-5462.12,9760.79 L-5444.87,9660.74 L-5444.86,9660.72 L-5402.98,9568.24 L-5402.97,9568.22 L-5339.14,9489.27 L-5339.12,9489.25 L-5257.47,9428.91 L-5257.45,9428.9 L-5163.24,9391.07 L-5163.21,9391.06 L-5062.51,9378.18 L-5062.49,9378.18 L-4993.35,9384.2 L-4993.33,9384.2 L-4896.37,9414.31 L-4896.35,9414.32 L-4810.1,9467.87 L-4810.08,9467.88 L-4740.09,9541.43 L-4740.07,9541.45 L-4690.86,9630.24 L-4690.85,9630.27 L-4665.59,9728.6 L-4665.58,9728.62 L-4665.89,9830.15 L-4665.9,9830.17 L-4691.76,9928.34 L-4691.77,9928.37 L-4741.52,10016.9 L-4741.54,10016.9 L-4811.97,10090 L-4811.99,10090 L-4898.57,10143 L-4898.59,10143 L-4995.73,10172.6 L-4995.76,10172.6 L-5097.2,10176.7 L-5097.22,10176.7 L-5196.43,10155.1 L-5196.45,10155.1 L-5287.02,10109.2 L-5287.05,10109.2 L-5363.15,10042 L-5363.17,10042 L-5419.9,9957.8 L-5419.91,9957.77 L-5453.61,9862.01 L-5453.62,9861.98 L-5462.12,9760.82"/>
</g>

<g fill="none" stroke="#000000" stroke-opacity="1" stroke-width="1" stroke-linecap="square" stroke-linejoin="bevel" transform="matrix(0.999992,0,0,-0.999992,30000.2,71306.9)"
font-family="MS Shell Dlg 2" font-size="10.3125" font-weight="400" font-style="normal" 
>
</g>

<g fill="none" stroke="#000000" stroke-opacity="1" stroke-width="1" stroke-linecap="square" stroke-linejoin="bevel" transform="matrix(0.999992,0,0,-0.999992,30000.2,71306.9)"
font-family="MS Shell Dlg 2" font-size="10.3125" font-weight="400" font-style="normal" 
>
</g>

<g fill="#ffff00" fill-opacity="0.2" stroke="#333333" stroke-opacity="1" stroke-width="1" stroke-linecap="round" stroke-linejoin="round" transform="matrix(0.999992,0,0,-0.999992,30000.2,71306.9)"
font-family="MS Shell Dlg 2" font-size="10.3125" font-weight="400" font-style="normal" 
>
<path vector-effect="non-scaling-stroke" fill-rule="evenodd" d="M-23225,34881.2 L-23224.9,34881.1 L-16026.4,34881.1 L-16026.3,34880.9 L-16026.3,646.209 L-16026.4,646.068 L-29999.9,646.068 L-30000,646.209 L-30000,71305.9 L-29999.9,71306.1 L-16026.4,71306.1 L-16026.3,71305.9 L-16026.3,56881.2 L-16026.2,56881.1 L16026.2,56881.1 L16026.3,56881.2 L16026.3,71305.9 L16026.4,71306.1 L29999.9,71306.1 L30000,71305.9 L30000,646.209 L29999.9,646.068 L16026.4,646.068 L16026.3,646.209 L16026.3,34880.9 L16026.4,34881.1 L23224.9,34881.1 L23225,34881.2 L23225,37311 L23224.9,37311.1 L16026.4,37311.1 L16026.3,37311.2 L16026.3,44071 L16026.2,44071.1 L10375.1,44071.1 L10375,44071 L10375,37071.2 L10374.9,37071.1 L10125.1,37071.1 L10125,37071 L10125,7778.55 L10125.1,7778.45 L10125.2,7778.5 L10275.1,8038.13 L10275.3,8038.18 L13278.1,6304.49 L13278.2,6304.38 L15026.3,-6973.67 L15026.3,-6973.76 L9526.29,-16500 L9526.27,-16500 L5500.01,-20526.3 L5499.98,-20526.3 L5000.05,-20814.9 L5000,-20815 L5000,-38999.9 L4999.96,-39000 L0.1,-43999.9 L-0.1,-43999.9 L-4999.96,-39000 L-5000,-38999.9 L-5000,-20815 L-5000.05,-20814.9 L-5499.98,-20526.3 L-5500.01,-20526.3 L-9526.27,-16500 L-9526.29,-16500 L-15026.3,-6973.76 L-15026.3,-6973.67 L-13278.2,6304.38 L-13278.1,6304.49 L-10275.3,8038.18 L-10275.1,8038.13 L-10125.2,7778.5 L-10125.1,7778.45 L-10125,7778.55 L-10125,37071 L-10125.1,37071.1 L-10374.9,37071.1 L-10375,37071.2 L-10375,44071 L-10375.1,44071.1 L-16026.2,44071.1 L-16026.3,44071 L-16026.3,37311.2 L-16026.4,37311.1 L-23224.9,37311.1 L-23225,37311 L-23225,34881.2 M4662.88,9760.82 L4662.88,9760.79 L4680.13,9660.74 L4680.14,9660.72 L4722.02,9568.24 L4722.03,9568.22 L4785.86,9489.27 L4785.88,9489.25 L4867.53,9428.91 L4867.55,9428.9 L4961.76,9391.07 L4961.79,9391.06 L5062.49,9378.18 L5062.51,9378.18 L5131.65,9384.2 L5131.67,9384.2 L5228.63,9414.31 L5228.65,9414.32 L5314.9,9467.87 L5314.92,9467.88 L5384.91,9541.43 L5384.93,9541.45 L5434.14,9630.24 L5434.15,9630.27 L5459.41,9728.6 L5459.42,9728.62 L5459.11,9830.15 L5459.1,9830.17 L5433.24,9928.34 L5433.23,9928.37 L5383.48,10016.9 L5383.46,10016.9 L5313.03,10090 L5313.01,10090 L5226.43,10143 L5226.41,10143 L5129.27,10172.6 L5129.24,10172.6 L5027.8,10176.7 L5027.78,10176.7 L4928.57,10155.1 L4928.55,10155.1 L4837.98,10109.2 L4837.95,10109.2 L4761.85,10042 L4761.83,10042 L4705.1,9957.8 L4705.09,9957.77 L4671.39,9862.01 L4671.38,9861.98 L4662.88,9760.82 M-125,7778.27 L-124.9,7778.17 L124.9,7778.17 L125,7778.27 L125,37071 L124.9,37071.1 L-124.9,37071.1 L-125,37071 L-125,7778.27 M-5462.12,9760.82 L-5462.12,9760.79 L-5444.87,9660.74 L-5444.86,9660.72 L-5402.98,9568.24 L-5402.97,9568.22 L-5339.14,9489.27 L-5339.12,9489.25 L-5257.47,9428.91 L-5257.45,9428.9 L-5163.24,9391.07 L-5163.21,9391.06 L-5062.51,9378.18 L-5062.49,9378.18 L-4993.35,9384.2 L-4993.33,9384.2 L-4896.37,9414.31 L-4896.35,9414.32 L-4810.1,9467.87 L-4810.08,9467.88 L-4740.09,9541.43 L-4740.07,9541.45 L-4690.86,9630.24 L-4690.85,9630.27 L-4665.59,9728.6 L-4665.58,9728.62 L-4665.89,9830.15 L-4665.9,9830.17 L-4691.76,9928.34 L-4691.77,9928.37 L-4741.52,10016.9 L-4741.54,10016.9 L-4811.97,10090 L-4811.99,10090 L-4898.57,10143 L-4898.59,10143 L-4995.73,10172.6 L-4995.76,10172.6 L-5097.2,10176.7 L-5097.22,10176.7 L-5196.43,10155.1 L-5196.45,10155.1 L-5287.02,10109.2 L-5287.05,10109.2 L-5363.15,10042 L-5363.17,10042 L-5419.9,9957.8 L-5419.91,9957.77 L-5453.61,9862.01 L-5453.62,9861.98 L-5462.12,9760.82"/>
</g>

<g fill="none" stroke="#000000" stroke-opacity="1" stroke-width="1" stroke-linecap="square" stroke-linejoin="bevel" transform="matrix(0.999992,0,0,-0.999992,30000.2,71306.9)"
font-family="MS Shell Dlg 2" font-size="10.3125" font-weight="400" font-style="normal" 
>
</g>

<g fill="none" stroke="#000000" stroke-opacity="1" stroke-width="1" stroke-linecap="square" stroke-linejoin="bevel" transform="matrix(0.999992,0,0,-0.999992,30000.2,71306.9)"
font-family="MS Shell Dlg 2" font-size="10.3125" font-weight="400" font-style="normal" 
>
</g>

<g fill="#ae5151" fill-opacity="0.2" stroke="#333333" stroke-opacity="1" stroke-width="1" stroke-linecap="round" stroke-linejoin="round" transform="matrix(0.999992,0,0,-0.999992,30000.2,71306.9)"
font-family="MS Shell Dlg 2" font-size="10.3125" font-weight="400" font-style="normal" 
>
<path vector-effect="non-scaling-stroke" fill-rule="evenodd" d="M-23225,34881.2 L-23224.9,34881.1 L-16026.4,34881.1 L-16026.3,34880.9 L-16026.3,646.209 L-16026.4,646.068 L-29999.9,646.068 L-30000,646.209 L-30000,71305.9 L-29999.9,71306.1 L-16026.4,71306.1 L-16026.3,71305.9 L-16026.3,56881.2 L-16026.2,56881.1 L16026.2,56881.1 L16026.3,56881.2 L16026.3,71305.9 L16026.4,71306.1 L29999.9,71306.1 L30000,71305.9 L30000,646.209 L29999.9,646.068 L16026.4,646.068 L16026.3,646.209 L16026.3,34880.9 L16026.4,34881.1 L23224.9,34881.1 L23225,34881.2 L23225,37311 L23224.9,37311.1 L16026.4,37311.1 L16026.3,37311.2 L16026.3,44071 L16026.2,44071.1 L10375.1,44071.1 L10375,44071 L10375,37071.2 L10374.9,37071.1 L10125.1,37071.1 L10125,37071 L10125,7778.55 L10125.1,7778.45 L10125.2,7778.5 L10275.1,8038.13 L10275.3,8038.18 L13278.1,6304.49 L13278.2,6304.38 L15026.3,-6973.67 L15026.3,-6973.76 L9526.29,-16500 L9526.27,-16500 L5500.01,-20526.3 L5499.98,-20526.3 L5000.05,-20814.9 L5000,-20815 L5000,-38999.9 L4999.96,-39000 L0.1,-43999.9 L-0.1,-43999.9 L-4999.96,-39000 L-5000,-38999.9 L-5000,-20815 L-5000.05,-20814.9 L-5499.98,-20526.3 L-5500.01,-20526.3 L-9526.27,-16500 L-9526.29,-16500 L-15026.3,-6973.76 L-15026.3,-6973.67 L-13278.2,6304.38 L-13278.1,6304.49 L-10275.3,8038.18 L-10275.1,8038.13 L-10125.2,7778.5 L-10125.1,7778.45 L-10125,7778.55 L-10125,37071 L-10125.1,37071.1 L-10374.9,37071.1 L-10375,37071.2 L-10375,44071 L-10375.1,44071.1 L-16026.2,44071.1 L-16026.3,44071 L-16026.3,37311.2 L-16026.4,37311.1 L-23224.9,37311.1 L-23225,37311 L-23225,34881.2 M4662.88,9760.82 L4662.88,9760.79 L4680.13,9660.74 L4680.14,9660.72 L4722.02,9568.24 L4722.03,9568.22 L4785.86,9489.27 L4785.88,9489.25 L4867.53,9428.91 L4867.55,9428.9 L4961.76,9391.07 L4961.79,9391.06 L5062.49,9378.18 L5062.51,9378.18 L5131.65,9384.2 L5131.67,9384.2 L5228.63,9414.31 L5228.65,9414.32 L5314.9,9467.87 L5314.92,9467.88 L5384.91,9541.43 L5384.93,9541.45 L5434.14,9630.24 L5434.15,9630.27 L5459.41,9728.6 L5459.42,9728.62 L5459.11,9830.15 L5459.1,9830.17 L5433.24,9928.34 L5433.23,9928.37 L5383.48,10016.9 L5383.46,10016.9 L5313.03,10090 L5313.01,10090 L5226.43,10143 L5226.41,10143 L5129.27,10172.6 L5129.24,10172.6 L5027.8,10176.7 L5027.78,10176.7 L4928.57,10155.1 L4928.55,10155.1 L4837.98,10109.2 L4837.95,10109.2 L4761.85,10042 L4761.83,10042 L4705.1,9957.8 L4705.09,9957.77 L4671.39,9862.01 L4671.38,9861.98 L4662.88,9760.82 M-125,7778.27 L-124.9,7778.17 L124.9,7778.17 L125,7778.27 L125,37071 L124.9,37071.1 L-124.9,37071.1 L-125,37071 L-125,7778.27 M-5462.12,9760.82 L-5462.12,9760.79 L-5444.87,9660.74 L-5444.86,9660.72 L-5402.98,9568.24 L-5402.97,9568.22 L-5339.14,9489.27 L-5339.12,9489.25 L-5257.47,9428.91 L-5257.45,9428.9 L-5163.24,9391.07 L-5163.21,9391.06 L-5062.51,9378.18 L-5062.49,9378.18 L-4993.35,9384.2 L-4993.33,9384.2 L-4896.37,9414.31 L-4896.35,9414.32 L-4810.1,9467.87 L-4810.08,9467.88 L-4740.09,9541.43 L-4740.07,9541.45 L-4690.86,9630.24 L-4690.85,9630.27 L-4665.59,9728.6 L-4665.58,9728.62 L-4665.89,9830.15 L-4665.9,9830.17 L-4691.76,9928.34 L-4691.77,9928.37 L-4741.52,10016.9 L-4741.54,10016.9 L-4811.97,10090 L-4811.99,10090 L-4898.57,10143 L-4898.59,10143 L-4995.73,10172.6 L-4995.76,10172.6 L-5097.2,10176.7 L-5097.22,10176.7 L-5196.43,10155.1 L-5196.45,10155.1 L-5287.02,10109.2 L-5287.05,10109.2 L-5363.15,10042 L-5363.17,10042 L-5419.9,9957.8 L-5419.91,9957.77 L-5453.61,9862.01 L-5453.62,9861.98 L-5462.12,9760.82"/>
</g>

<g fill="none" stroke="#000000" stroke-opacity="1" stroke-width="1" stroke-linecap="square" stroke-linejoin="bevel" transform="matrix(0.999992,0,0,-0.999992,30000.2,71306.9)"
font-family="MS Shell Dlg 2" font-size="10.3125" font-weight="400" font-style="normal" 
>
</g>

<g fill="none" stroke="#000000" stroke-opacity="1" stroke-width="1" stroke-linecap="square" stroke-linejoin="bevel" transform="matrix(0.999992,0,0,-0.999992,30000.2,71306.9)"
font-family="MS Shell Dlg 2" font-size="10.3125" font-weight="400" font-style="normal" 
>
</g>

<g fill="#333333" fill-opacity="0.2" stroke="#333333" stroke-opacity="1" stroke-width="1" stroke-linecap="round" stroke-linejoin="round" transform="matrix(0.999992,0,0,-0.999992,30000.2,71306.9)"
font-family="MS Shell Dlg 2" font-size="10.3125" font-weight="400" font-style="normal" 
>
<path vector-effect="non-scaling-stroke" fill-rule="evenodd" d="M-23225,34881.2 L-23224.9,34881.1 L-16026.4,34881.1 L-16026.3,34880.9 L-16026.3,646.209 L-16026.4,646.068 L-29999.9,646.068 L-30000,646.209 L-30000,71305.9 L-29999.9,71306.1 L-16026.4,71306.1 L-16026.3,71305.9 L-16026.3,56881.2 L-16026.2,56881.1 L16026.2,56881.1 L16026.3,56881.2 L16026.3,71305.9 L16026.4,71306.1 L29999.9,71306.1 L30000,71305.9 L30000,646.209 L29999.9,646.068 L16026.4,646.068 L16026.3,646.209 L16026.3,34880.9 L16026.4,34881.1 L23224.9,34881.1 L23225,34881.2 L23225,37311 L23224.9,37311.1 L16026.4,37311.1 L16026.3,37311.2 L16026.3,44071 L16026.2,44071.1 L10375.1,44071.1 L10375,44071 L10375,37071.2 L10374.9,37071.1 L10125.1,37071.1 L10125,37071 L10125,7778.55 L10125.1,7778.45 L10125.2,7778.5 L10275.1,8038.13 L10275.3,8038.18 L13278.1,6304.49 L13278.2,6304.38 L15026.3,-6973.67 L15026.3,-6973.76 L9526.29,-16500 L9526.27,-16500 L5500.01,-20526.3 L5499.98,-20526.3 L5000.05,-20814.9 L5000,-20815 L5000,-38999.9 L4999.96,-39000 L0.1,-43999.9 L-0.1,-43999.9 L-4999.96,-39000 L-5000,-38999.9 L-5000,-20815 L-5000.05,-20814.9 L-5499.98,-20526.3 L-5500.01,-20526.3 L-9526.27,-16500 L-9526.29,-16500 L-15026.3,-6973.76 L-15026.3,-6973.67 L-13278.2,6304.38 L-13278.1,6304.49 L-10275.3,8038.18 L-10275.1,8038.13 L-10125.2,7778.5 L-10125.1,7778.45 L-10125,7778.55 L-10125,37071 L-10125.1,37071.1 L-10374.9,37071.1 L-10375,37071.2 L-10375,44071 L-10375.1,44071.1 L-16026.2,44071.1 L-16026.3,44071 L-16026.3,37311.2 L-16026.4,37311.1 L-23224.9,37311.1 L-23225,37311 L-23225,34881.2 M4662.88,9760.82 L4662.88,9760.79 L4680.13,9660.74 L4680.14,9660.72 L4722.02,9568.24 L4722.03,9568.22 L4785.86,9489.27 L4785.88,9489.25 L4867.53,9428.91 L4867.55,9428.9 L4961.76,9391.07 L4961.79,9391.06 L5062.49,9378.18 L5062.51,9378.18 L5131.65,9384.2 L5131.67,9384.2 L5228.63,9414.31 L5228.65,9414.32 L5314.9,9467.87 L5314.92,9467.88 L5384.91,9541.43 L5384.93,9541.45 L5434.14,9630.24 L5434.15,9630.27 L5459.41,9728.6 L5459.42,9728.62 L5459.11,9830.15 L5459.1,9830.17 L5433.24,9928.34 L5433.23,9928.37 L5383.48,10016.9 L5383.46,10016.9 L5313.03,10090 L5313.01,10090 L5226.43,10143 L5226.41,10143 L5129.27,10172.6 L5129.24,10172.6 L5027.8,10176.7 L5027.78,10176.7 L4928.57,10155.1 L4928.55,10155.1 L4837.98,10109.2 L4837.95,10109.2 L4761.85,10042 L4761.83,10042 L4705.1,9957.8 L4705.09,9957.77 L4671.39,9862.01 L4671.38,9861.98 L4662.88,9760.82 M-125,7778.27 L-124.9,7778.17 L124.9,7778.17 L125,7778.27 L125,37071 L124.9,37071.1 L-124.9,37071.1 L-125,37071 L-125,7778.27 M-5462.12,9760.82 L-5462.12,9760.79 L-5444.87,9660.74 L-5444.86,9660.72 L-5402.98,9568.24 L-5402.97,9568.22 L-5339.14,9489.27 L-5339.12,9489.25 L-5257.47,9428.91 L-5257.45,9428.9 L-5163.24,9391.07 L-5163.21,9391.06 L-5062.51,9378.18 L-5062.49,9378.18 L-4993.35,9384.2 L-4993.33,9384.2 L-4896.37,9414.31 L-4896.35,9414.32 L-4810.1,9467.87 L-4810.08,9467.88 L-4740.09,9541.43 L-4740.07,9541.45 L-4690.86,9630.24 L-4690.85,9630.27 L-4665.59,9728.6 L-4665.58,9728.62 L-4665.89,9830.15 L-4665.9,9830.17 L-4691.76,9928.34 L-4691.77,9928.37 L-4741.52,10016.9 L-4741.54,10016.9 L-4811.97,10090 L-4811.99,10090 L-4898.57,10143 L-4898.59,10143 L-4995.73,10172.6 L-4995.76,10172.6 L-5097.2,10176.7 L-5097.22,10176.7 L-5196.43,10155.1 L-5196.45,10155.1 L-5287.02,10109.2 L-5287.05,10109.2 L-5363.15,10042 L-5363.17,10042 L-5419.9,9957.8 L-5419.91,9957.77 L-5453.61,9862.01 L-5453.62,9861.98 L-5462.12,9760.82"/>
</g>

<g fill="none" stroke="#000000" stroke-opacity="1" stroke-width="1" stroke-linecap="square" stroke-linejoin="bevel" transform="matrix(0.999992,0,0,-0.999992,30000.2,71306.9)"
font-family="MS Shell Dlg 2" font-size="10.3125" font-weight="400" font-style="normal" 
>
</g>

<g fill="none" stroke="#000000" stroke-opacity="1" stroke-width="1" stroke-linecap="square" stroke-linejoin="bevel" transform="matrix(0.999992,0,0,-0.999992,30000.2,71306.9)"
font-family="MS Shell Dlg 2" font-size="10.3125" font-weight="400" font-style="normal" 
>
</g>

<g fill="#333333" fill-opacity="0.2" stroke="#333333" stroke-opacity="1" stroke-width="1" stroke-linecap="round" stroke-linejoin="round" transform="matrix(0.999992,0,0,-0.999992,30000.2,71306.9)"
font-family="MS Shell Dlg 2" font-size="10.3125" font-weight="400" font-style="normal" 
>
<path vector-effect="non-scaling-stroke" fill-rule="evenodd" d="M-16026.3,646.209 L-16026.4,646.068 L-29999.9,646.068 L-30000,646.209 L-30000,71305.9 L-29999.9,71306.1 L-16026.4,71306.1 L-16026.3,71305.9 L-16026.3,56881.2 L-16026.2,56881.1 L16026.2,56881.1 L16026.3,56881.2 L16026.3,71305.9 L16026.4,71306.1 L29999.9,71306.1 L30000,71305.9 L30000,646.209 L29999.9,646.068 L16026.4,646.068 L16026.3,646.209 L16026.3,12071 L16026.2,12071.1 L12071.2,12071.1 L12071.1,12071 L13660.3,-7886.71 L13660.2,-7886.79 L9330.15,-16160.2 L9330.09,-16160.3 L7500.05,-17216.8 L7500,-17216.9 L7500,-36499.9 L7499.96,-36500 L0.1,-43999.9 L-0.1,-43999.9 L-7499.96,-36500 L-7500,-36499.9 L-7500,-17216.9 L-7500.05,-17216.8 L-9330.09,-16160.3 L-9330.15,-16160.2 L-13660.2,-7886.79 L-13660.3,-7886.71 L-12071.1,12071 L-12071.2,12071.1 L-16026.2,12071.1 L-16026.3,12071 L-16026.3,646.209 M11375,34881.2 L11375.1,34881.1 L23224.9,34881.1 L23225,34881.2 L23225,37311 L23224.9,37311.1 L11375.1,37311.1 L11375,37311 L11375,34881.2 M13300,49736.2 L13300.1,49736.1 L21299.9,49736.1 L21300,49736.2 L21300,52736 L21299.9,52736.1 L13300.1,52736.1 L13300,52736 L13300,49736.2 M-10375,21821.2 L-10374.9,21821.1 L10374.9,21821.1 L10375,21821.2 L10375,37071 L10374.9,37071.1 L-10374.9,37071.1 L-10375,37071 L-10375,21821.2 M-23225,34881.2 L-23224.9,34881.1 L-11375.1,34881.1 L-11375,34881.2 L-11375,37311 L-11375.1,37311.1 L-23224.9,37311.1 L-23225,37311 L-23225,34881.2 M-21300,49736.2 L-21299.9,49736.1 L-13300.1,49736.1 L-13300,49736.2 L-13300,52736 L-13300.1,52736.1 L-21299.9,52736.1 L-21300,52736 L-21300,49736.2"/>
</g>

<g fill="none" stroke="#000000" stroke-opacity="1" stroke-width="1" stroke-linecap="square" stroke-linejoin="bevel" transform="matrix(0.999992,0,0,-0.999992,30000.2,71306.9)"
font-family="MS Shell Dlg 2" font-size="10.3125" font-weight="400" font-style="normal" 
>
</g>

<g fill="none" stroke="#000000" stroke-opacity="1" stroke-width="1" stroke-linecap="square" stroke-linejoin="bevel" transform="matrix(0.999992,0,0,-0.999992,30000.2,71306.9)"
font-family="MS Shell Dlg 2" font-size="10.3125" font-weight="400" font-style="normal" 
>
</g>

<g fill="#ae5151" fill-opacity="0.2" stroke="#333333" stroke-opacity="1" stroke-width="1" stroke-linecap="round" stroke-linejoin="round" transform="matrix(0.999992,0,0,-0.999992,30000.2,71306.9)"
font-family="MS Shell Dlg 2" font-size="10.3125" font-weight="400" font-style="normal" 
>
<path vector-effect="non-scaling-stroke" fill-rule="evenodd" d="M-16026.3,646.209 L-16026.4,646.068 L-29999.9,646.068 L-30000,646.209 L-30000,71305.9 L-29999.9,71306.1 L-16026.4,71306.1 L-16026.3,71305.9 L-16026.3,56881.2 L-16026.2,56881.1 L16026.2,56881.1 L16026.3,56881.2 L16026.3,71305.9 L16026.4,71306.1 L29999.9,71306.1 L30000,71305.9 L30000,646.209 L29999.9,646.068 L16026.4,646.068 L16026.3,646.209 L16026.3,12071 L16026.2,12071.1 L12071.2,12071.1 L12071.1,12071 L13660.3,-7886.71 L13660.2,-7886.79 L9330.15,-16160.2 L9330.09,-16160.3 L7500.05,-17216.8 L7500,-17216.9 L7500,-36499.9 L7499.96,-36500 L0.1,-43999.9 L-0.1,-43999.9 L-7499.96,-36500 L-7500,-36499.9 L-7500,-17216.9 L-7500.05,-17216.8 L-9330.09,-16160.3 L-9330.15,-16160.2 L-13660.2,-7886.79 L-13660.3,-7886.71 L-12071.1,12071 L-12071.2,12071.1 L-16026.2,12071.1 L-16026.3,12071 L-16026.3,646.209 M11375,34881.2 L11375.1,34881.1 L23224.9,34881.1 L23225,34881.2 L23225,37311 L23224.9,37311.1 L11375.1,37311.1 L11375,37311 L11375,34881.2 M13300,49736.2 L13300.1,49736.1 L21299.9,49736.1 L21300,49736.2 L21300,52736 L21299.9,52736.1 L13300.1,52736.1 L13300,52736 L13300,49736.2 M-10375,21821.2 L-10374.9,21821.1 L10374.9,21821.1 L10375,21821.2 L10375,37071 L10374.9,37071.1 L-10374.9,37071.1 L-10375,37071 L-10375,21821.2 M-23225,34881.2 L-23224.9,34881.1 L-11375.1,34881.1 L-11375,34881.2 L-11375,37311 L-11375.1,37311.1 L-23224.9,37311.1 L-23225,37311 L-23225,34881.2 M-21300,49736.2 L-21299.9,49736.1 L-13300.1,49736.1 L-13300,49736.2 L-13300,52736 L-13300.1,52736.1 L-21299.9,52736.1 L-21300,52736 L-21300,49736.2"/>
</g>

<g fill="none" stroke="#000000" stroke-opacity="1" stroke-width="1" stroke-linecap="square" stroke-linejoin="bevel" transform="matrix(0.999992,0,0,-0.999992,30000.2,71306.9)"
font-family="MS Shell Dlg 2" font-size="10.3125" font-weight="400" font-style="normal" 
>
</g>

<g fill="none" stroke="#000000" stroke-opacity="1" stroke-width="1" stroke-linecap="square" stroke-linejoin="bevel" transform="matrix(0.999992,0,0,-0.999992,30000.2,71306.9)"
font-family="MS Shell Dlg 2" font-size="10.3125" font-weight="400" font-style="normal" 
>
</g>

<g fill="#ffff00" fill-opacity="0.2" stroke="#333333" stroke-opacity="1" stroke-width="1" stroke-linecap="round" stroke-linejoin="round" transform="matrix(0.999992,0,0,-0.999992,30000.2,71306.9)"
font-family="MS Shell Dlg 2" font-size="10.3125" font-weight="400" font-style="normal" 
>
<path vector-effect="non-scaling-stroke" fill-rule="evenodd" d="M-16026.3,646.209 L-16026.4,646.068 L-29999.9,646.068 L-30000,646.209 L-30000,71305.9 L-29999.9,71306.1 L-16026.4,71306.1 L-16026.3,71305.9 L-16026.3,56881.2 L-16026.2,56881.1 L16026.2,56881.1 L16026.3,56881.2 L16026.3,71305.9 L16026.4,71306.1 L29999.9,71306.1 L30000,71305.9 L30000,646.209 L29999.9,646.068 L16026.4,646.068 L16026.3,646.209 L16026.3,12071 L16026.2,12071.1 L12071.2,12071.1 L12071.1,12071 L13660.3,-7886.71 L13660.2,-7886.79 L9330.15,-16160.2 L9330.09,-16160.3 L7500.05,-17216.8 L7500,-17216.9 L7500,-36499.9 L7499.96,-36500 L0.1,-43999.9 L-0.1,-43999.9 L-7499.96,-36500 L-7500,-36499.9 L-7500,-17216.9 L-7500.05,-17216.8 L-9330.09,-16160.3 L-9330.15,-16160.2 L-13660.2,-7886.79 L-13660.3,-7886.71 L-12071.1,12071 L-12071.2,12071.1 L-16026.2,12071.1 L-16026.3,12071 L-16026.3,646.209 M11375,34881.2 L11375.1,34881.1 L23224.9,34881.1 L23225,34881.2 L23225,37311 L23224.9,37311.1 L11375.1,37311.1 L11375,37311 L11375,34881.2 M13300,49736.2 L13300.1,49736.1 L21299.9,49736.1 L21300,49736.2 L21300,52736 L21299.9,52736.1 L13300.1,52736.1 L13300,52736 L13300,49736.2 M-10375,21821.2 L-10374.9,21821.1 L10374.9,21821.1 L10375,21821.2 L10375,37071 L10374.9,37071.1 L-10374.9,37071.1 L-10375,37071 L-10375,21821.2 M-23225,34881.2 L-23224.9,34881.1 L-11375.1,34881.1 L-11375,34881.2 L-11375,37311 L-11375.1,37311.1 L-23224.9,37311.1 L-23225,37311 L-23225,34881.2 M-21300,49736.2 L-21299.9,49736.1 L-13300.1,49736.1 L-13300,49736.2 L-13300,52736 L-13300.1,52736.1 L-21299.9,52736.1 L-21300,52736 L-21300,49736.2"/>
</g>

<g fill="none" stroke="#000000" stroke-opacity="1" stroke-width="1" stroke-linecap="square" stroke-linejoin="bevel" transform="matrix(0.999992,0,0,-0.999992,30000.2,71306.9)"
font-family="MS Shell Dlg 2" font-size="10.3125" font-weight="400" font-style="normal" 
>
</g>

<g fill="none" stroke="#000000" stroke-opacity="1" stroke-width="1" stroke-linecap="square" stroke-linejoin="bevel" transform="matrix(0.999992,0,0,-0.999992,30000.2,71306.9)"
font-family="MS Shell Dlg 2" font-size="10.3125" font-weight="400" font-style="normal" 
>
</g>

<g fill="#ae5151" fill-opacity="0.2" stroke="#333333" stroke-opacity="1" stroke-width="1" stroke-linecap="round" stroke-linejoin="round" transform="matrix(0.999992,0,0,-0.999992,30000.2,71306.9)"
font-family="MS Shell Dlg 2" font-size="10.3125" font-weight="400" font-style="normal" 
>
<path vector-effect="non-scaling-stroke" fill-rule="evenodd" d="M-16026.3,646.209 L-16026.4,646.068 L-29999.9,646.068 L-30000,646.209 L-30000,71305.9 L-29999.9,71306.1 L-16026.4,71306.1 L-16026.3,71305.9 L-16026.3,56881.2 L-16026.2,56881.1 L16026.2,56881.1 L16026.3,56881.2 L16026.3,71305.9 L16026.4,71306.1 L29999.9,71306.1 L30000,71305.9 L30000,646.209 L29999.9,646.068 L16026.4,646.068 L16026.3,646.209 L16026.3,12071 L16026.2,12071.1 L12071.2,12071.1 L12071.1,12071 L13660.3,-7886.71 L13660.2,-7886.79 L9330.15,-16160.2 L9330.09,-16160.3 L7500.05,-17216.8 L7500,-17216.9 L7500,-36499.9 L7499.96,-36500 L0.1,-43999.9 L-0.1,-43999.9 L-7499.96,-36500 L-7500,-36499.9 L-7500,-17216.9 L-7500.05,-17216.8 L-9330.09,-16160.3 L-9330.15,-16160.2 L-13660.2,-7886.79 L-13660.3,-7886.71 L-12071.1,12071 L-12071.2,12071.1 L-16026.2,12071.1 L-16026.3,12071 L-16026.3,646.209 M11375,34881.2 L11375.1,34881.1 L23224.9,34881.1 L23225,34881.2 L23225,37311 L23224.9,37311.1 L11375.1,37311.1 L11375,37311 L11375,34881.2 M13300,49736.2 L13300.1,49736.1 L21299.9,49736.1 L21300,49736.2 L21300,52736 L21299.9,52736.1 L13300.1,52736.1 L13300,52736 L13300,49736.2 M-10375,21821.2 L-10374.9,21821.1 L10374.9,21821.1 L10375,21821.2 L10375,37071 L10374.9,37071.1 L-10374.9,37071.1 L-10375,37071 L-10375,21821.2 M-23225,34881.2 L-23224.9,34881.1 L-11375.1,34881.1 L-11375,34881.2 L-11375,37311 L-11375.1,37311.1 L-23224.9,37311.1 L-23225,37311 L-23225,34881.2 M-21300,49736.2 L-21299.9,49736.1 L-13300.1,49736.1 L-13300,49736.2 L-13300,52736 L-13300.1,52736.1 L-21299.9,52736.1 L-21300,52736 L-21300,49736.2"/>
</g>

<g fill="none" stroke="#000000" stroke-opacity="1" stroke-width="1" stroke-linecap="square" stroke-linejoin="bevel" transform="matrix(0.999992,0,0,-0.999992,30000.2,71306.9)"
font-family="MS Shell Dlg 2" font-size="10.3125" font-weight="400" font-style="normal" 
>
</g>

<g fill="none" stroke="#000000" stroke-opacity="1" stroke-width="1" stroke-linecap="square" stroke-linejoin="bevel" transform="matrix(0.999992,0,0,-0.999992,30000.2,71306.9)"
font-family="MS Shell Dlg 2" font-size="10.3125" font-weight="400" font-style="normal" 
>
</g>

<g fill="#333333" fill-opacity="0.2" stroke="#333333" stroke-opacity="1" stroke-width="1" stroke-linecap="round" stroke-linejoin="round" transform="matrix(0.999992,0,0,-0.999992,30000.2,71306.9)"
font-family="MS Shell Dlg 2" font-size="10.3125" font-weight="400" font-style="normal" 
>
<path vector-effect="non-scaling-stroke" fill-rule="evenodd" d="M-16026.3,646.209 L-16026.4,646.068 L-29999.9,646.068 L-30000,646.209 L-30000,71305.9 L-29999.9,71306.1 L-16026.4,71306.1 L-16026.3,71305.9 L-16026.3,56881.2 L-16026.2,56881.1 L16026.2,56881.1 L16026.3,56881.2 L16026.3,71305.9 L16026.4,71306.1 L29999.9,71306.1 L30000,71305.9 L30000,646.209 L29999.9,646.068 L16026.4,646.068 L16026.3,646.209 L16026.3,12071 L16026.2,12071.1 L12071.2,12071.1 L12071.1,12071 L13660.3,-7886.71 L13660.2,-7886.79 L9330.15,-16160.2 L9330.09,-16160.3 L7500.05,-17216.8 L7500,-17216.9 L7500,-36499.9 L7499.96,-36500 L0.1,-43999.9 L-0.1,-43999.9 L-7499.96,-36500 L-7500,-36499.9 L-7500,-17216.9 L-7500.05,-17216.8 L-9330.09,-16160.3 L-9330.15,-16160.2 L-13660.2,-7886.79 L-13660.3,-7886.71 L-12071.1,12071 L-12071.2,12071.1 L-16026.2,12071.1 L-16026.3,12071 L-16026.3,646.209 M11375,34881.2 L11375.1,34881.1 L23224.9,34881.1 L23225,34881.2 L23225,37311 L23224.9,37311.1 L11375.1,37311.1 L11375,37311 L11375,34881.2 M13300,49736.2 L13300.1,49736.1 L21299.9,49736.1 L21300,49736.2 L21300,52736 L21299.9,52736.1 L13300.1,52736.1 L13300,52736 L13300,49736.2 M-10375,21821.2 L-10374.9,21821.1 L10374.9,21821.1 L10375,21821.2 L10375,37071 L10374.9,37071.1 L-10374.9,37071.1 L-10375,37071 L-10375,21821.2 M-23225,34881.2 L-23224.9,34881.1 L-11375.1,34881.1 L-11375,34881.2 L-11375,37311 L-11375.1,37311.1 L-23224.9,37311.1 L-23225,37311 L-23225,34881.2 M-21300,49736.2 L-21299.9,49736.1 L-13300.1,49736.1 L-13300,49736.2 L-13300,52736 L-13300.1,52736.1 L-21299.9,52736.1 L-21300,52736 L-21300,49736.2"/>
</g>

<g fill="none" stroke="#000000" stroke-opacity="1" stroke-width="1" stroke-linecap="square" stroke-linejoin="bevel" transform="matrix(0.999992,0,0,-0.999992,30000.2,71306.9)"
font-family="MS Shell Dlg 2" font-size="10.3125" font-weight="400" font-style="normal" 
>
</g>

<g fill="none" stroke="#000000" stroke-opacity="1" stroke-width="1" stroke-linecap="square" stroke-linejoin="bevel" transform="matrix(1,0,0,-1,0,115307)"
font-family="MS Shell Dlg 2" font-size="10.3125" font-weight="400" font-style="normal" 
>
</g>
</g>
</svg>
