<?xml version="1.0" encoding="UTF-8" standalone="no"?>
<svg width="5912.84mm" height="13403.6mm"
 xmlns="http://www.w3.org/2000/svg" xmlns:xlink="http://www.w3.org/1999/xlink"  version="1.2" baseProfile="tiny">
<title>SVG Generator Example Drawing</title>
<desc>An SVG drawing created by the SVG Generator</desc>
<defs>
</defs>
<g fill="none" stroke="black" stroke-width="1" fill-rule="evenodd" stroke-linecap="square" stroke-linejoin="bevel" >

<g fill="none" stroke="#000000" stroke-opacity="1" stroke-width="1" stroke-linecap="square" stroke-linejoin="bevel" transform="matrix(1,0,0,-1,0,47493.9)"
font-family="MS Shell Dlg 2" font-size="10.3125" font-weight="400" font-style="normal" 
>
</g>

<g fill="none" stroke="#000000" stroke-opacity="1" stroke-width="1" stroke-linecap="square" stroke-linejoin="bevel" transform="matrix(1,0,0,-1,0,47493.9)"
font-family="MS Shell Dlg 2" font-size="10.3125" font-weight="400" font-style="normal" 
>
</g>

<g fill="none" stroke="#000000" stroke-opacity="1" stroke-width="1" stroke-linecap="square" stroke-linejoin="bevel" transform="matrix(0.999981,0,0,-0.999981,10475.3,44171.6)"
font-family="MS Shell Dlg 2" font-size="10.3125" font-weight="400" font-style="normal" 
>
</g>

<g fill="#333333" fill-opacity="0.2" stroke="#333333" stroke-opacity="1" stroke-width="1" stroke-linecap="round" stroke-linejoin="round" transform="matrix(0.999981,0,0,-0.999981,10475.3,44171.6)"
font-family="MS Shell Dlg 2" font-size="10.3125" font-weight="400" font-style="normal" 
>
<path vector-effect="non-scaling-stroke" fill-rule="evenodd" d="M100,-3221.83 L92.388,-3260.09 L70.7107,-3292.54 L38.2683,-3314.21 L2.83277e-14,-3321.83 L-38.2683,-3314.21 L-70.7107,-3292.54 L-92.388,-3260.09 L-100,-3221.83 L-100,7778.17 L-92.388,7816.44 L-70.7107,7848.89 L-38.2683,7870.56 L6.12323e-15,7878.17 L38.2683,7870.56 L70.7107,7848.89 L92.388,7816.44 L100,7778.17 L100,-3221.83"/>
</g>

<g fill="none" stroke="#000000" stroke-opacity="1" stroke-width="1" stroke-linecap="square" stroke-linejoin="bevel" transform="matrix(0.999981,0,0,-0.999981,10475.3,44171.6)"
font-family="MS Shell Dlg 2" font-size="10.3125" font-weight="400" font-style="normal" 
>
</g>

<g fill="none" stroke="#000000" stroke-opacity="1" stroke-width="1" stroke-linecap="square" stroke-linejoin="bevel" transform="matrix(0.999981,0,0,-0.999981,10475.3,44171.6)"
font-family="MS Shell Dlg 2" font-size="10.3125" font-weight="400" font-style="normal" 
>
</g>

<g fill="#333333" fill-opacity="0.2" stroke="#333333" stroke-opacity="1" stroke-width="1" stroke-linecap="round" stroke-linejoin="round" transform="matrix(0.999981,0,0,-0.999981,10475.3,44171.6)"
font-family="MS Shell Dlg 2" font-size="10.3125" font-weight="400" font-style="normal" 
>
<path vector-effect="non-scaling-stroke" fill-rule="evenodd" d="M-10375,43971.1 L-10413.3,43978.7 L-10445.7,44000.4 L-10467.4,44032.8 L-10475,44071.1 L-10467.4,44109.3 L-10445.7,44141.8 L-10413.3,44163.5 L-10375,44171.1 L10375,44171.1 L10413.3,44163.5 L10445.7,44141.8 L10467.4,44109.3 L10475,44071.1 L10467.4,44032.8 L10445.7,44000.4 L10413.3,43978.7 L10375,43971.1 L-10375,43971.1"/>
</g>

<g fill="none" stroke="#000000" stroke-opacity="1" stroke-width="1" stroke-linecap="square" stroke-linejoin="bevel" transform="matrix(0.999981,0,0,-0.999981,10475.3,44171.6)"
font-family="MS Shell Dlg 2" font-size="10.3125" font-weight="400" font-style="normal" 
>
</g>

<g fill="none" stroke="#000000" stroke-opacity="1" stroke-width="1" stroke-linecap="square" stroke-linejoin="bevel" transform="matrix(0.999981,0,0,-0.999981,10475.3,44171.6)"
font-family="MS Shell Dlg 2" font-size="10.3125" font-weight="400" font-style="normal" 
>
</g>

<g fill="#ae5151" fill-opacity="0.2" stroke="#333333" stroke-opacity="1" stroke-width="1" stroke-linecap="round" stroke-linejoin="round" transform="matrix(0.999981,0,0,-0.999981,10475.3,44171.6)"
font-family="MS Shell Dlg 2" font-size="10.3125" font-weight="400" font-style="normal" 
>
<path vector-effect="non-scaling-stroke" fill-rule="evenodd" d="M100,-3221.83 L92.388,-3260.09 L70.7107,-3292.54 L38.2683,-3314.21 L2.83277e-14,-3321.83 L-38.2683,-3314.21 L-70.7107,-3292.54 L-92.388,-3260.09 L-100,-3221.83 L-100,7778.17 L-92.388,7816.44 L-70.7107,7848.89 L-38.2683,7870.56 L6.12323e-15,7878.17 L38.2683,7870.56 L70.7107,7848.89 L92.388,7816.44 L100,7778.17 L100,-3221.83"/>
</g>

<g fill="none" stroke="#000000" stroke-opacity="1" stroke-width="1" stroke-linecap="square" stroke-linejoin="bevel" transform="matrix(0.999981,0,0,-0.999981,10475.3,44171.6)"
font-family="MS Shell Dlg 2" font-size="10.3125" font-weight="400" font-style="normal" 
>
</g>

<g fill="none" stroke="#000000" stroke-opacity="1" stroke-width="1" stroke-linecap="square" stroke-linejoin="bevel" transform="matrix(0.999981,0,0,-0.999981,10475.3,44171.6)"
font-family="MS Shell Dlg 2" font-size="10.3125" font-weight="400" font-style="normal" 
>
</g>

<g fill="#ae5151" fill-opacity="0.2" stroke="#333333" stroke-opacity="1" stroke-width="1" stroke-linecap="round" stroke-linejoin="round" transform="matrix(0.999981,0,0,-0.999981,10475.3,44171.6)"
font-family="MS Shell Dlg 2" font-size="10.3125" font-weight="400" font-style="normal" 
>
<path vector-effect="non-scaling-stroke" fill-rule="evenodd" d="M-10375,43971.1 L-10413.3,43978.7 L-10445.7,44000.4 L-10467.4,44032.8 L-10475,44071.1 L-10467.4,44109.3 L-10445.7,44141.8 L-10413.3,44163.5 L-10375,44171.1 L10375,44171.1 L10413.3,44163.5 L10445.7,44141.8 L10467.4,44109.3 L10475,44071.1 L10467.4,44032.8 L10445.7,44000.4 L10413.3,43978.7 L10375,43971.1 L-10375,43971.1"/>
</g>

<g fill="none" stroke="#000000" stroke-opacity="1" stroke-width="1" stroke-linecap="square" stroke-linejoin="bevel" transform="matrix(0.999981,0,0,-0.999981,10475.3,44171.6)"
font-family="MS Shell Dlg 2" font-size="10.3125" font-weight="400" font-style="normal" 
>
</g>

<g fill="none" stroke="#000000" stroke-opacity="1" stroke-width="1" stroke-linecap="square" stroke-linejoin="bevel" transform="matrix(0.999981,0,0,-0.999981,10475.3,44171.6)"
font-family="MS Shell Dlg 2" font-size="10.3125" font-weight="400" font-style="normal" 
>
</g>

<g fill="#ffff00" fill-opacity="0.2" stroke="#333333" stroke-opacity="1" stroke-width="1" stroke-linecap="round" stroke-linejoin="round" transform="matrix(0.999981,0,0,-0.999981,10475.3,44171.6)"
font-family="MS Shell Dlg 2" font-size="10.3125" font-weight="400" font-style="normal" 
>
<path vector-effect="non-scaling-stroke" fill-rule="evenodd" d="M100,-3221.83 L92.388,-3260.09 L70.7107,-3292.54 L38.2683,-3314.21 L2.83277e-14,-3321.83 L-38.2683,-3314.21 L-70.7107,-3292.54 L-92.388,-3260.09 L-100,-3221.83 L-100,7778.17 L-92.388,7816.44 L-70.7107,7848.89 L-38.2683,7870.56 L6.12323e-15,7878.17 L38.2683,7870.56 L70.7107,7848.89 L92.388,7816.44 L100,7778.17 L100,-3221.83"/>
</g>

<g fill="none" stroke="#000000" stroke-opacity="1" stroke-width="1" stroke-linecap="square" stroke-linejoin="bevel" transform="matrix(0.999981,0,0,-0.999981,10475.3,44171.6)"
font-family="MS Shell Dlg 2" font-size="10.3125" font-weight="400" font-style="normal" 
>
</g>

<g fill="none" stroke="#000000" stroke-opacity="1" stroke-width="1" stroke-linecap="square" stroke-linejoin="bevel" transform="matrix(0.999981,0,0,-0.999981,10475.3,44171.6)"
font-family="MS Shell Dlg 2" font-size="10.3125" font-weight="400" font-style="normal" 
>
</g>

<g fill="#ffff00" fill-opacity="0.2" stroke="#333333" stroke-opacity="1" stroke-width="1" stroke-linecap="round" stroke-linejoin="round" transform="matrix(0.999981,0,0,-0.999981,10475.3,44171.6)"
font-family="MS Shell Dlg 2" font-size="10.3125" font-weight="400" font-style="normal" 
>
<path vector-effect="non-scaling-stroke" fill-rule="evenodd" d="M-10375,43971.1 L-10413.3,43978.7 L-10445.7,44000.4 L-10467.4,44032.8 L-10475,44071.1 L-10467.4,44109.3 L-10445.7,44141.8 L-10413.3,44163.5 L-10375,44171.1 L10375,44171.1 L10413.3,44163.5 L10445.7,44141.8 L10467.4,44109.3 L10475,44071.1 L10467.4,44032.8 L10445.7,44000.4 L10413.3,43978.7 L10375,43971.1 L-10375,43971.1"/>
</g>

<g fill="none" stroke="#000000" stroke-opacity="1" stroke-width="1" stroke-linecap="square" stroke-linejoin="bevel" transform="matrix(0.999981,0,0,-0.999981,10475.3,44171.6)"
font-family="MS Shell Dlg 2" font-size="10.3125" font-weight="400" font-style="normal" 
>
</g>

<g fill="none" stroke="#000000" stroke-opacity="1" stroke-width="1" stroke-linecap="square" stroke-linejoin="bevel" transform="matrix(0.999981,0,0,-0.999981,10475.3,44171.6)"
font-family="MS Shell Dlg 2" font-size="10.3125" font-weight="400" font-style="normal" 
>
</g>

<g fill="#ae5151" fill-opacity="0.2" stroke="#333333" stroke-opacity="1" stroke-width="1" stroke-linecap="round" stroke-linejoin="round" transform="matrix(0.999981,0,0,-0.999981,10475.3,44171.6)"
font-family="MS Shell Dlg 2" font-size="10.3125" font-weight="400" font-style="normal" 
>
<path vector-effect="non-scaling-stroke" fill-rule="evenodd" d="M100,-3221.83 L92.388,-3260.09 L70.7107,-3292.54 L38.2683,-3314.21 L2.83277e-14,-3321.83 L-38.2683,-3314.21 L-70.7107,-3292.54 L-92.388,-3260.09 L-100,-3221.83 L-100,7778.17 L-92.388,7816.44 L-70.7107,7848.89 L-38.2683,7870.56 L6.12323e-15,7878.17 L38.2683,7870.56 L70.7107,7848.89 L92.388,7816.44 L100,7778.17 L100,-3221.83"/>
</g>

<g fill="none" stroke="#000000" stroke-opacity="1" stroke-width="1" stroke-linecap="square" stroke-linejoin="bevel" transform="matrix(0.999981,0,0,-0.999981,10475.3,44171.6)"
font-family="MS Shell Dlg 2" font-size="10.3125" font-weight="400" font-style="normal" 
>
</g>

<g fill="none" stroke="#000000" stroke-opacity="1" stroke-width="1" stroke-linecap="square" stroke-linejoin="bevel" transform="matrix(0.999981,0,0,-0.999981,10475.3,44171.6)"
font-family="MS Shell Dlg 2" font-size="10.3125" font-weight="400" font-style="normal" 
>
</g>

<g fill="#ae5151" fill-opacity="0.2" stroke="#333333" stroke-opacity="1" stroke-width="1" stroke-linecap="round" stroke-linejoin="round" transform="matrix(0.999981,0,0,-0.999981,10475.3,44171.6)"
font-family="MS Shell Dlg 2" font-size="10.3125" font-weight="400" font-style="normal" 
>
<path vector-effect="non-scaling-stroke" fill-rule="evenodd" d="M-10375,43971.1 L-10413.3,43978.7 L-10445.7,44000.4 L-10467.4,44032.8 L-10475,44071.1 L-10467.4,44109.3 L-10445.7,44141.8 L-10413.3,44163.5 L-10375,44171.1 L10375,44171.1 L10413.3,44163.5 L10445.7,44141.8 L10467.4,44109.3 L10475,44071.1 L10467.4,44032.8 L10445.7,44000.4 L10413.3,43978.7 L10375,43971.1 L-10375,43971.1"/>
</g>

<g fill="none" stroke="#000000" stroke-opacity="1" stroke-width="1" stroke-linecap="square" stroke-linejoin="bevel" transform="matrix(0.999981,0,0,-0.999981,10475.3,44171.6)"
font-family="MS Shell Dlg 2" font-size="10.3125" font-weight="400" font-style="normal" 
>
</g>

<g fill="none" stroke="#000000" stroke-opacity="1" stroke-width="1" stroke-linecap="square" stroke-linejoin="bevel" transform="matrix(0.999981,0,0,-0.999981,10475.3,44171.6)"
font-family="MS Shell Dlg 2" font-size="10.3125" font-weight="400" font-style="normal" 
>
</g>

<g fill="#333333" fill-opacity="0.2" stroke="#333333" stroke-opacity="1" stroke-width="1" stroke-linecap="round" stroke-linejoin="round" transform="matrix(0.999981,0,0,-0.999981,10475.3,44171.6)"
font-family="MS Shell Dlg 2" font-size="10.3125" font-weight="400" font-style="normal" 
>
<path vector-effect="non-scaling-stroke" fill-rule="evenodd" d="M100,-3221.83 L92.388,-3260.09 L70.7107,-3292.54 L38.2683,-3314.21 L2.83277e-14,-3321.83 L-38.2683,-3314.21 L-70.7107,-3292.54 L-92.388,-3260.09 L-100,-3221.83 L-100,7778.17 L-92.388,7816.44 L-70.7107,7848.89 L-38.2683,7870.56 L6.12323e-15,7878.17 L38.2683,7870.56 L70.7107,7848.89 L92.388,7816.44 L100,7778.17 L100,-3221.83"/>
</g>

<g fill="none" stroke="#000000" stroke-opacity="1" stroke-width="1" stroke-linecap="square" stroke-linejoin="bevel" transform="matrix(0.999981,0,0,-0.999981,10475.3,44171.6)"
font-family="MS Shell Dlg 2" font-size="10.3125" font-weight="400" font-style="normal" 
>
</g>

<g fill="none" stroke="#000000" stroke-opacity="1" stroke-width="1" stroke-linecap="square" stroke-linejoin="bevel" transform="matrix(0.999981,0,0,-0.999981,10475.3,44171.6)"
font-family="MS Shell Dlg 2" font-size="10.3125" font-weight="400" font-style="normal" 
>
</g>

<g fill="#333333" fill-opacity="0.2" stroke="#333333" stroke-opacity="1" stroke-width="1" stroke-linecap="round" stroke-linejoin="round" transform="matrix(0.999981,0,0,-0.999981,10475.3,44171.6)"
font-family="MS Shell Dlg 2" font-size="10.3125" font-weight="400" font-style="normal" 
>
<path vector-effect="non-scaling-stroke" fill-rule="evenodd" d="M-10375,43971.1 L-10413.3,43978.7 L-10445.7,44000.4 L-10467.4,44032.8 L-10475,44071.1 L-10467.4,44109.3 L-10445.7,44141.8 L-10413.3,44163.5 L-10375,44171.1 L10375,44171.1 L10413.3,44163.5 L10445.7,44141.8 L10467.4,44109.3 L10475,44071.1 L10467.4,44032.8 L10445.7,44000.4 L10413.3,43978.7 L10375,43971.1 L-10375,43971.1"/>
</g>

<g fill="none" stroke="#000000" stroke-opacity="1" stroke-width="1" stroke-linecap="square" stroke-linejoin="bevel" transform="matrix(0.999981,0,0,-0.999981,10475.3,44171.6)"
font-family="MS Shell Dlg 2" font-size="10.3125" font-weight="400" font-style="normal" 
>
</g>

<g fill="none" stroke="#000000" stroke-opacity="1" stroke-width="1" stroke-linecap="square" stroke-linejoin="bevel" transform="matrix(1,0,0,-1,0,47493.9)"
font-family="MS Shell Dlg 2" font-size="10.3125" font-weight="400" font-style="normal" 
>
</g>
</g>
</svg>
