<?xml version="1.0" encoding="UTF-8" standalone="no"?>
<svg width="16933.6mm" height="32541.9mm"
 xmlns="http://www.w3.org/2000/svg" xmlns:xlink="http://www.w3.org/1999/xlink"  version="1.2" baseProfile="tiny">
<title>SVG Generator Example Drawing</title>
<desc>An SVG drawing created by the SVG Generator</desc>
<defs>
</defs>
<g fill="none" stroke="black" stroke-width="1" fill-rule="evenodd" stroke-linecap="square" stroke-linejoin="bevel" >

<g fill="none" stroke="#000000" stroke-opacity="1" stroke-width="1" stroke-linecap="square" stroke-linejoin="bevel" transform="matrix(1,0,0,-1,0,115307)"
font-family="MS Shell Dlg 2" font-size="10.3125" font-weight="400" font-style="normal" 
>
</g>

<g fill="none" stroke="#000000" stroke-opacity="1" stroke-width="1" stroke-linecap="square" stroke-linejoin="bevel" transform="matrix(1,0,0,-1,0,115307)"
font-family="MS Shell Dlg 2" font-size="10.3125" font-weight="400" font-style="normal" 
>
</g>

<g fill="none" stroke="#000000" stroke-opacity="1" stroke-width="1" stroke-linecap="square" stroke-linejoin="bevel" transform="matrix(0.999992,0,0,-0.999992,30000.2,71306.9)"
font-family="MS Shell Dlg 2" font-size="10.3125" font-weight="400" font-style="normal" 
>
</g>

<g fill="#333333" fill-opacity="0.2" stroke="#333333" stroke-opacity="1" stroke-width="1" stroke-linecap="round" stroke-linejoin="round" transform="matrix(0.999992,0,0,-0.999992,30000.2,71306.9)"
font-family="MS Shell Dlg 2" font-size="10.3125" font-weight="400" font-style="normal" 
>
<path vector-effect="non-scaling-stroke" fill-rule="evenodd" d="M10375,43971.1 L10375,37071.2 L10374.9,37071.1 L10125.1,37071.1 L10125,37071 L10125,7778.55 L10125.1,7778.45 L10125.2,7778.5 L10275.1,8038.13 L10275.3,8038.18 L13278.1,6304.49 L13278.2,6304.38 L15026.3,-6973.67 L15026.3,-6973.76 L10275.5,-15202.4 L10233.4,-15177.1 L10100.3,-15114.2 L9961.71,-15064.6 L9818.91,-15028.8 L9673.31,-15007.2 L9526.28,-15000 L9379.25,-15007.2 L9233.64,-15028.8 L9090.85,-15064.6 L8952.25,-15114.2 L8819.18,-15177.1 L8692.92,-15252.8 L8574.69,-15340.5 L8465.62,-15439.3 L8366.76,-15548.4 L8279.08,-15666.6 L8203.4,-15792.9 L8140.46,-15926 L8090.87,-16064.6 L8055.1,-16207.4 L8033.5,-16353 L8026.28,-16500 L8033.5,-16647 L8055.1,-16792.6 L8090.87,-16935.4 L8140.46,-17074 L8203.4,-17207.1 L8279.08,-17333.4 L8366.76,-17451.6 L8465.62,-17560.7 L5500.01,-20526.3 L5499.98,-20526.3 L5000.05,-20814.9 L5000,-20815 L5000,-38999.9 L4999.96,-39000 L0.1,-43999.9 L-0.1,-43999.9 L-4999.96,-39000 L-5000,-38999.9 L-5000,-20815 L-5000.05,-20814.9 L-5499.98,-20526.3 L-5500.01,-20526.3 L-8465.62,-17560.7 L-8366.76,-17451.6 L-8279.08,-17333.4 L-8203.4,-17207.1 L-8140.46,-17074 L-8090.87,-16935.4 L-8055.1,-16792.6 L-8033.5,-16647 L-8026.28,-16500 L-8033.5,-16353 L-8055.1,-16207.4 L-8090.87,-16064.6 L-8140.46,-15926 L-8203.4,-15792.9 L-8279.08,-15666.6 L-8366.76,-15548.4 L-8465.62,-15439.3 L-8574.69,-15340.5 L-8692.92,-15252.8 L-8819.18,-15177.1 L-8952.25,-15114.2 L-9090.85,-15064.6 L-9233.64,-15028.8 L-9379.25,-15007.2 L-9526.28,-15000 L-9673.31,-15007.2 L-9818.91,-15028.8 L-9961.71,-15064.6 L-10100.3,-15114.2 L-10233.4,-15177.1 L-10275.5,-15202.4 L-15026.3,-6973.76 L-15026.3,-6973.67 L-13278.2,6304.38 L-13278.1,6304.49 L-10275.3,8038.18 L-10275.1,8038.13 L-10125.2,7778.5 L-10125.1,7778.45 L-10125,7778.55 L-10125,37071 L-10125.1,37071.1 L-10374.9,37071.1 L-10375,37071.2 L-10375,43971.1 L10375,43971.1 M4662.88,9760.82 L4662.88,9760.79 L4680.13,9660.74 L4680.14,9660.72 L4722.02,9568.24 L4722.03,9568.22 L4785.86,9489.27 L4785.88,9489.25 L4867.53,9428.91 L4867.55,9428.9 L4961.76,9391.07 L4961.79,9391.06 L5062.49,9378.18 L5062.51,9378.18 L5131.65,9384.2 L5131.67,9384.2 L5228.63,9414.31 L5228.65,9414.32 L5314.9,9467.87 L5314.92,9467.88 L5384.91,9541.43 L5384.93,9541.45 L5434.14,9630.24 L5434.15,9630.27 L5459.41,9728.6 L5459.42,9728.62 L5459.11,9830.15 L5459.1,9830.17 L5433.24,9928.34 L5433.23,9928.37 L5383.48,10016.9 L5383.46,10016.9 L5313.03,10090 L5313.01,10090 L5226.43,10143 L5226.41,10143 L5129.27,10172.6 L5129.24,10172.6 L5027.8,10176.7 L5027.78,10176.7 L4928.57,10155.1 L4928.55,10155.1 L4837.98,10109.2 L4837.95,10109.2 L4761.85,10042 L4761.83,10042 L4705.1,9957.8 L4705.09,9957.77 L4671.39,9862.01 L4671.38,9861.98 L4662.88,9760.82 M-125,7778.27 L-124.9,7778.17 L-100,7778.17 L-100,-3221.83 L-92.388,-3260.09 L-70.7107,-3292.54 L-38.2683,-3314.21 L2.83277e-14,-3321.83 L38.2683,-3314.21 L70.7107,-3292.54 L92.388,-3260.09 L100,-3221.83 L100,7778.17 L124.9,7778.17 L125,7778.27 L125,37071 L124.9,37071.1 L-124.9,37071.1 L-125,37071 L-125,7778.27 M-5462.12,9760.82 L-5462.12,9760.79 L-5444.87,9660.74 L-5444.86,9660.72 L-5402.98,9568.24 L-5402.97,9568.22 L-5339.14,9489.27 L-5339.12,9489.25 L-5257.47,9428.91 L-5257.45,9428.9 L-5163.24,9391.07 L-5163.21,9391.06 L-5062.51,9378.18 L-5062.49,9378.18 L-4993.35,9384.2 L-4993.33,9384.2 L-4896.37,9414.31 L-4896.35,9414.32 L-4810.1,9467.87 L-4810.08,9467.88 L-4740.09,9541.43 L-4740.07,9541.45 L-4690.86,9630.24 L-4690.85,9630.27 L-4665.59,9728.6 L-4665.58,9728.62 L-4665.89,9830.15 L-4665.9,9830.17 L-4691.76,9928.34 L-4691.77,9928.37 L-4741.52,10016.9 L-4741.54,10016.9 L-4811.97,10090 L-4811.99,10090 L-4898.57,10143 L-4898.59,10143 L-4995.73,10172.6 L-4995.76,10172.6 L-5097.2,10176.7 L-5097.22,10176.7 L-5196.43,10155.1 L-5196.45,10155.1 L-5287.02,10109.2 L-5287.05,10109.2 L-5363.15,10042 L-5363.17,10042 L-5419.9,9957.8 L-5419.91,9957.77 L-5453.61,9862.01 L-5453.62,9861.98 L-5462.12,9760.82 M2000,-11000 L1990.37,-10804 L1961.57,-10609.8 L1913.88,-10419.4 L1847.76,-10234.6 L1763.84,-10057.2 L1662.94,-9888.86 L1546.02,-9731.21 L1414.21,-9585.79 L1268.79,-9453.98 L1111.14,-9337.06 L942.793,-9236.16 L765.367,-9152.24 L580.569,-9086.12 L390.181,-9038.43 L196.034,-9009.63 L-5.69646e-12,-9000 L-196.034,-9009.63 L-390.181,-9038.43 L-580.569,-9086.12 L-765.367,-9152.24 L-942.793,-9236.16 L-1111.14,-9337.06 L-1268.79,-9453.98 L-1414.21,-9585.79 L-1546.02,-9731.21 L-1662.94,-9888.86 L-1763.84,-10057.2 L-1847.76,-10234.6 L-1913.88,-10419.4 L-1961.57,-10609.8 L-1990.37,-10804 L-2000,-11000 L-1990.37,-11196 L-1961.57,-11390.2 L-1913.88,-11580.6 L-1847.76,-11765.4 L-1763.84,-11942.8 L-1662.94,-12111.1 L-1546.02,-12268.8 L-1414.21,-12414.2 L-1268.79,-12546 L-1111.14,-12662.9 L-942.793,-12763.8 L-765.367,-12847.8 L-580.569,-12913.9 L-390.181,-12961.6 L-196.034,-12990.4 L3.23109e-12,-13000 L196.034,-12990.4 L390.181,-12961.6 L580.569,-12913.9 L765.367,-12847.8 L942.793,-12763.8 L1111.14,-12662.9 L1268.79,-12546 L1414.21,-12414.2 L1546.02,-12268.8 L1662.94,-12111.1 L1763.84,-11942.8 L1847.76,-11765.4 L1913.88,-11580.6 L1961.57,-11390.2 L1990.37,-11196 L2000,-11000 M-6278.17,-3221.83 L-6285.4,-3074.8 L-6307,-2929.19 L-6342.76,-2786.4 L-6392.36,-2647.8 L-6455.29,-2514.73 L-6530.97,-2388.47 L-6618.66,-2270.24 L-6717.51,-2161.17 L-6826.58,-2062.31 L-6944.82,-1974.62 L-7071.08,-1898.94 L-7204.15,-1836.01 L-7342.75,-1786.41 L-7485.54,-1750.65 L-7631.15,-1729.05 L-7778.17,-1721.83 L-7925.2,-1729.05 L-8070.81,-1750.65 L-8213.6,-1786.41 L-8352.2,-1836.01 L-8485.27,-1898.94 L-8611.53,-1974.62 L-8729.76,-2062.31 L-8838.83,-2161.17 L-8937.69,-2270.24 L-9025.38,-2388.47 L-9101.06,-2514.73 L-9163.99,-2647.8 L-9213.59,-2786.4 L-9249.35,-2929.19 L-9270.95,-3074.8 L-9278.17,-3221.83 L-9270.95,-3368.85 L-9249.35,-3514.46 L-9213.59,-3657.25 L-9163.99,-3795.85 L-9101.06,-3928.92 L-9025.38,-4055.18 L-8937.69,-4173.42 L-8838.83,-4282.49 L-8729.76,-4381.34 L-8611.53,-4469.03 L-8485.27,-4544.71 L-8352.2,-4607.64 L-8213.6,-4657.24 L-8070.81,-4693 L-7925.2,-4714.6 L-7778.17,-4721.83 L-7631.15,-4714.6 L-7485.54,-4693 L-7342.75,-4657.24 L-7204.15,-4607.64 L-7071.08,-4544.71 L-6944.82,-4469.03 L-6826.58,-4381.34 L-6717.51,-4282.49 L-6618.66,-4173.42 L-6530.97,-4055.18 L-6455.29,-3928.92 L-6392.36,-3795.85 L-6342.76,-3657.25 L-6307,-3514.46 L-6285.4,-3368.85 L-6278.17,-3221.83 M9278.17,-3221.83 L9270.95,-3074.8 L9249.35,-2929.19 L9213.59,-2786.4 L9163.99,-2647.8 L9101.06,-2514.73 L9025.38,-2388.47 L8937.69,-2270.24 L8838.83,-2161.17 L8729.76,-2062.31 L8611.53,-1974.62 L8485.27,-1898.94 L8352.2,-1836.01 L8213.6,-1786.41 L8070.81,-1750.65 L7925.2,-1729.05 L7778.17,-1721.83 L7631.15,-1729.05 L7485.54,-1750.65 L7342.75,-1786.41 L7204.15,-1836.01 L7071.08,-1898.94 L6944.82,-1974.62 L6826.58,-2062.31 L6717.51,-2161.17 L6618.66,-2270.24 L6530.97,-2388.47 L6455.29,-2514.73 L6392.36,-2647.8 L6342.76,-2786.4 L6307,-2929.19 L6285.4,-3074.8 L6278.17,-3221.83 L6285.4,-3368.85 L6307,-3514.46 L6342.76,-3657.25 L6392.36,-3795.85 L6455.29,-3928.92 L6530.97,-4055.18 L6618.66,-4173.42 L6717.51,-4282.49 L6826.58,-4381.34 L6944.82,-4469.03 L7071.08,-4544.71 L7204.15,-4607.64 L7342.75,-4657.24 L7485.54,-4693 L7631.15,-4714.6 L7778.17,-4721.83 L7925.2,-4714.6 L8070.81,-4693 L8213.6,-4657.24 L8352.2,-4607.64 L8485.27,-4544.71 L8611.53,-4469.03 L8729.76,-4381.34 L8838.83,-4282.49 L8937.69,-4173.42 L9025.38,-4055.18 L9101.06,-3928.92 L9163.99,-3795.85 L9213.59,-3657.25 L9249.35,-3514.46 L9270.95,-3368.85 L9278.17,-3221.83"/>
</g>

<g fill="none" stroke="#000000" stroke-opacity="1" stroke-width="1" stroke-linecap="square" stroke-linejoin="bevel" transform="matrix(0.999992,0,0,-0.999992,30000.2,71306.9)"
font-family="MS Shell Dlg 2" font-size="10.3125" font-weight="400" font-style="normal" 
>
</g>

<g fill="none" stroke="#000000" stroke-opacity="1" stroke-width="1" stroke-linecap="square" stroke-linejoin="bevel" transform="matrix(0.999992,0,0,-0.999992,30000.2,71306.9)"
font-family="MS Shell Dlg 2" font-size="10.3125" font-weight="400" font-style="normal" 
>
</g>

<g fill="#333333" fill-opacity="0.2" stroke="#333333" stroke-opacity="1" stroke-width="1" stroke-linecap="round" stroke-linejoin="round" transform="matrix(0.999992,0,0,-0.999992,30000.2,71306.9)"
font-family="MS Shell Dlg 2" font-size="10.3125" font-weight="400" font-style="normal" 
>
<path vector-effect="non-scaling-stroke" fill-rule="evenodd" d="M-23225,34881.2 L-23224.9,34881.1 L-16026.4,34881.1 L-16026.3,34880.9 L-16026.3,646.209 L-16026.4,646.068 L-29999.9,646.068 L-30000,646.209 L-30000,71305.9 L-29999.9,71306.1 L-16026.4,71306.1 L-16026.3,71305.9 L-16026.3,56881.2 L-16026.2,56881.1 L16026.2,56881.1 L16026.3,56881.2 L16026.3,71305.9 L16026.4,71306.1 L29999.9,71306.1 L30000,71305.9 L30000,646.209 L29999.9,646.068 L16026.4,646.068 L16026.3,646.209 L16026.3,34880.9 L16026.4,34881.1 L23224.9,34881.1 L23225,34881.2 L23225,37311 L23224.9,37311.1 L16026.4,37311.1 L16026.3,37311.2 L16026.3,44071 L16026.2,44071.1 L10475,44071.1 L10467.4,44109.3 L10445.7,44141.8 L10413.3,44163.5 L10375,44171.1 L-10375,44171.1 L-10413.3,44163.5 L-10445.7,44141.8 L-10467.4,44109.3 L-10475,44071.1 L-16026.2,44071.1 L-16026.3,44071 L-16026.3,37311.2 L-16026.4,37311.1 L-23224.9,37311.1 L-23225,37311 L-23225,34881.2"/>
</g>

<g fill="none" stroke="#000000" stroke-opacity="1" stroke-width="1" stroke-linecap="square" stroke-linejoin="bevel" transform="matrix(0.999992,0,0,-0.999992,30000.2,71306.9)"
font-family="MS Shell Dlg 2" font-size="10.3125" font-weight="400" font-style="normal" 
>
</g>

<g fill="none" stroke="#000000" stroke-opacity="1" stroke-width="1" stroke-linecap="square" stroke-linejoin="bevel" transform="matrix(0.999992,0,0,-0.999992,30000.2,71306.9)"
font-family="MS Shell Dlg 2" font-size="10.3125" font-weight="400" font-style="normal" 
>
</g>

<g fill="#ae5151" fill-opacity="0.2" stroke="#333333" stroke-opacity="1" stroke-width="1" stroke-linecap="round" stroke-linejoin="round" transform="matrix(0.999992,0,0,-0.999992,30000.2,71306.9)"
font-family="MS Shell Dlg 2" font-size="10.3125" font-weight="400" font-style="normal" 
>
<path vector-effect="non-scaling-stroke" fill-rule="evenodd" d="M10375,43971.1 L10375,37071.2 L10374.9,37071.1 L10125.1,37071.1 L10125,37071 L10125,7778.55 L10125.1,7778.45 L10125.2,7778.5 L10275.1,8038.13 L10275.3,8038.18 L13278.1,6304.49 L13278.2,6304.38 L15026.3,-6973.67 L15026.3,-6973.76 L10275.5,-15202.4 L10233.4,-15177.1 L10100.3,-15114.2 L9961.71,-15064.6 L9818.91,-15028.8 L9673.31,-15007.2 L9526.28,-15000 L9379.25,-15007.2 L9233.64,-15028.8 L9090.85,-15064.6 L8952.25,-15114.2 L8819.18,-15177.1 L8692.92,-15252.8 L8574.69,-15340.5 L8465.62,-15439.3 L8366.76,-15548.4 L8279.08,-15666.6 L8203.4,-15792.9 L8140.46,-15926 L8090.87,-16064.6 L8055.1,-16207.4 L8033.5,-16353 L8026.28,-16500 L8033.5,-16647 L8055.1,-16792.6 L8090.87,-16935.4 L8140.46,-17074 L8203.4,-17207.1 L8279.08,-17333.4 L8366.76,-17451.6 L8465.62,-17560.7 L5500.01,-20526.3 L5499.98,-20526.3 L5000.05,-20814.9 L5000,-20815 L5000,-38999.9 L4999.96,-39000 L0.1,-43999.9 L-0.1,-43999.9 L-4999.96,-39000 L-5000,-38999.9 L-5000,-20815 L-5000.05,-20814.9 L-5499.98,-20526.3 L-5500.01,-20526.3 L-8465.62,-17560.7 L-8366.76,-17451.6 L-8279.08,-17333.4 L-8203.4,-17207.1 L-8140.46,-17074 L-8090.87,-16935.4 L-8055.1,-16792.6 L-8033.5,-16647 L-8026.28,-16500 L-8033.5,-16353 L-8055.1,-16207.4 L-8090.87,-16064.6 L-8140.46,-15926 L-8203.4,-15792.9 L-8279.08,-15666.6 L-8366.76,-15548.4 L-8465.62,-15439.3 L-8574.69,-15340.5 L-8692.92,-15252.8 L-8819.18,-15177.1 L-8952.25,-15114.2 L-9090.85,-15064.6 L-9233.64,-15028.8 L-9379.25,-15007.2 L-9526.28,-15000 L-9673.31,-15007.2 L-9818.91,-15028.8 L-9961.71,-15064.6 L-10100.3,-15114.2 L-10233.4,-15177.1 L-10275.5,-15202.4 L-15026.3,-6973.76 L-15026.3,-6973.67 L-13278.2,6304.38 L-13278.1,6304.49 L-10275.3,8038.18 L-10275.1,8038.13 L-10125.2,7778.5 L-10125.1,7778.45 L-10125,7778.55 L-10125,37071 L-10125.1,37071.1 L-10374.9,37071.1 L-10375,37071.2 L-10375,43971.1 L10375,43971.1 M4662.88,9760.82 L4662.88,9760.79 L4680.13,9660.74 L4680.14,9660.72 L4722.02,9568.24 L4722.03,9568.22 L4785.86,9489.27 L4785.88,9489.25 L4867.53,9428.91 L4867.55,9428.9 L4961.76,9391.07 L4961.79,9391.06 L5062.49,9378.18 L5062.51,9378.18 L5131.65,9384.2 L5131.67,9384.2 L5228.63,9414.31 L5228.65,9414.32 L5314.9,9467.87 L5314.92,9467.88 L5384.91,9541.43 L5384.93,9541.45 L5434.14,9630.24 L5434.15,9630.27 L5459.41,9728.6 L5459.42,9728.62 L5459.11,9830.15 L5459.1,9830.17 L5433.24,9928.34 L5433.23,9928.37 L5383.48,10016.9 L5383.46,10016.9 L5313.03,10090 L5313.01,10090 L5226.43,10143 L5226.41,10143 L5129.27,10172.6 L5129.24,10172.6 L5027.8,10176.7 L5027.78,10176.7 L4928.57,10155.1 L4928.55,10155.1 L4837.98,10109.2 L4837.95,10109.2 L4761.85,10042 L4761.83,10042 L4705.1,9957.8 L4705.09,9957.77 L4671.39,9862.01 L4671.38,9861.98 L4662.88,9760.82 M-125,7778.27 L-124.9,7778.17 L-100,7778.17 L-100,-3221.83 L-92.388,-3260.09 L-70.7107,-3292.54 L-38.2683,-3314.21 L2.83277e-14,-3321.83 L38.2683,-3314.21 L70.7107,-3292.54 L92.388,-3260.09 L100,-3221.83 L100,7778.17 L124.9,7778.17 L125,7778.27 L125,37071 L124.9,37071.1 L-124.9,37071.1 L-125,37071 L-125,7778.27 M-5462.12,9760.82 L-5462.12,9760.79 L-5444.87,9660.74 L-5444.86,9660.72 L-5402.98,9568.24 L-5402.97,9568.22 L-5339.14,9489.27 L-5339.12,9489.25 L-5257.47,9428.91 L-5257.45,9428.9 L-5163.24,9391.07 L-5163.21,9391.06 L-5062.51,9378.18 L-5062.49,9378.18 L-4993.35,9384.2 L-4993.33,9384.2 L-4896.37,9414.31 L-4896.35,9414.32 L-4810.1,9467.87 L-4810.08,9467.88 L-4740.09,9541.43 L-4740.07,9541.45 L-4690.86,9630.24 L-4690.85,9630.27 L-4665.59,9728.6 L-4665.58,9728.62 L-4665.89,9830.15 L-4665.9,9830.17 L-4691.76,9928.34 L-4691.77,9928.37 L-4741.52,10016.9 L-4741.54,10016.9 L-4811.97,10090 L-4811.99,10090 L-4898.57,10143 L-4898.59,10143 L-4995.73,10172.6 L-4995.76,10172.6 L-5097.2,10176.7 L-5097.22,10176.7 L-5196.43,10155.1 L-5196.45,10155.1 L-5287.02,10109.2 L-5287.05,10109.2 L-5363.15,10042 L-5363.17,10042 L-5419.9,9957.8 L-5419.91,9957.77 L-5453.61,9862.01 L-5453.62,9861.98 L-5462.12,9760.82 M2000,-11000 L1990.37,-10804 L1961.57,-10609.8 L1913.88,-10419.4 L1847.76,-10234.6 L1763.84,-10057.2 L1662.94,-9888.86 L1546.02,-9731.21 L1414.21,-9585.79 L1268.79,-9453.98 L1111.14,-9337.06 L942.793,-9236.16 L765.367,-9152.24 L580.569,-9086.12 L390.181,-9038.43 L196.034,-9009.63 L-5.69646e-12,-9000 L-196.034,-9009.63 L-390.181,-9038.43 L-580.569,-9086.12 L-765.367,-9152.24 L-942.793,-9236.16 L-1111.14,-9337.06 L-1268.79,-9453.98 L-1414.21,-9585.79 L-1546.02,-9731.21 L-1662.94,-9888.86 L-1763.84,-10057.2 L-1847.76,-10234.6 L-1913.88,-10419.4 L-1961.57,-10609.8 L-1990.37,-10804 L-2000,-11000 L-1990.37,-11196 L-1961.57,-11390.2 L-1913.88,-11580.6 L-1847.76,-11765.4 L-1763.84,-11942.8 L-1662.94,-12111.1 L-1546.02,-12268.8 L-1414.21,-12414.2 L-1268.79,-12546 L-1111.14,-12662.9 L-942.793,-12763.8 L-765.367,-12847.8 L-580.569,-12913.9 L-390.181,-12961.6 L-196.034,-12990.4 L3.23109e-12,-13000 L196.034,-12990.4 L390.181,-12961.6 L580.569,-12913.9 L765.367,-12847.8 L942.793,-12763.8 L1111.14,-12662.9 L1268.79,-12546 L1414.21,-12414.2 L1546.02,-12268.8 L1662.94,-12111.1 L1763.84,-11942.8 L1847.76,-11765.4 L1913.88,-11580.6 L1961.57,-11390.2 L1990.37,-11196 L2000,-11000 M-6278.17,-3221.83 L-6285.4,-3074.8 L-6307,-2929.19 L-6342.76,-2786.4 L-6392.36,-2647.8 L-6455.29,-2514.73 L-6530.97,-2388.47 L-6618.66,-2270.24 L-6717.51,-2161.17 L-6826.58,-2062.31 L-6944.82,-1974.62 L-7071.08,-1898.94 L-7204.15,-1836.01 L-7342.75,-1786.41 L-7485.54,-1750.65 L-7631.15,-1729.05 L-7778.17,-1721.83 L-7925.2,-1729.05 L-8070.81,-1750.65 L-8213.6,-1786.41 L-8352.2,-1836.01 L-8485.27,-1898.94 L-8611.53,-1974.62 L-8729.76,-2062.31 L-8838.83,-2161.17 L-8937.69,-2270.24 L-9025.38,-2388.47 L-9101.06,-2514.73 L-9163.99,-2647.8 L-9213.59,-2786.4 L-9249.35,-2929.19 L-9270.95,-3074.8 L-9278.17,-3221.83 L-9270.95,-3368.85 L-9249.35,-3514.46 L-9213.59,-3657.25 L-9163.99,-3795.85 L-9101.06,-3928.92 L-9025.38,-4055.18 L-8937.69,-4173.42 L-8838.83,-4282.49 L-8729.76,-4381.34 L-8611.53,-4469.03 L-8485.27,-4544.71 L-8352.2,-4607.64 L-8213.6,-4657.24 L-8070.81,-4693 L-7925.2,-4714.6 L-7778.17,-4721.83 L-7631.15,-4714.6 L-7485.54,-4693 L-7342.75,-4657.24 L-7204.15,-4607.64 L-7071.08,-4544.71 L-6944.82,-4469.03 L-6826.58,-4381.34 L-6717.51,-4282.49 L-6618.66,-4173.42 L-6530.97,-4055.18 L-6455.29,-3928.92 L-6392.36,-3795.85 L-6342.76,-3657.25 L-6307,-3514.46 L-6285.4,-3368.85 L-6278.17,-3221.83 M9278.17,-3221.83 L9270.95,-3074.8 L9249.35,-2929.19 L9213.59,-2786.4 L9163.99,-2647.8 L9101.06,-2514.73 L9025.38,-2388.47 L8937.69,-2270.24 L8838.83,-2161.17 L8729.76,-2062.31 L8611.53,-1974.62 L8485.27,-1898.94 L8352.2,-1836.01 L8213.6,-1786.41 L8070.81,-1750.65 L7925.2,-1729.05 L7778.17,-1721.83 L7631.15,-1729.05 L7485.54,-1750.65 L7342.75,-1786.41 L7204.15,-1836.01 L7071.08,-1898.94 L6944.82,-1974.62 L6826.58,-2062.31 L6717.51,-2161.17 L6618.66,-2270.24 L6530.97,-2388.47 L6455.29,-2514.73 L6392.36,-2647.8 L6342.76,-2786.4 L6307,-2929.19 L6285.4,-3074.8 L6278.17,-3221.83 L6285.4,-3368.85 L6307,-3514.46 L6342.76,-3657.25 L6392.36,-3795.85 L6455.29,-3928.92 L6530.97,-4055.18 L6618.66,-4173.42 L6717.51,-4282.49 L6826.58,-4381.34 L6944.82,-4469.03 L7071.08,-4544.71 L7204.15,-4607.64 L7342.75,-4657.24 L7485.54,-4693 L7631.15,-4714.6 L7778.17,-4721.83 L7925.2,-4714.6 L8070.81,-4693 L8213.6,-4657.24 L8352.2,-4607.64 L8485.27,-4544.71 L8611.53,-4469.03 L8729.76,-4381.34 L8838.83,-4282.49 L8937.69,-4173.42 L9025.38,-4055.18 L9101.06,-3928.92 L9163.99,-3795.85 L9213.59,-3657.25 L9249.35,-3514.46 L9270.95,-3368.85 L9278.17,-3221.83"/>
</g>

<g fill="none" stroke="#000000" stroke-opacity="1" stroke-width="1" stroke-linecap="square" stroke-linejoin="bevel" transform="matrix(0.999992,0,0,-0.999992,30000.2,71306.9)"
font-family="MS Shell Dlg 2" font-size="10.3125" font-weight="400" font-style="normal" 
>
</g>

<g fill="none" stroke="#000000" stroke-opacity="1" stroke-width="1" stroke-linecap="square" stroke-linejoin="bevel" transform="matrix(0.999992,0,0,-0.999992,30000.2,71306.9)"
font-family="MS Shell Dlg 2" font-size="10.3125" font-weight="400" font-style="normal" 
>
</g>

<g fill="#ae5151" fill-opacity="0.2" stroke="#333333" stroke-opacity="1" stroke-width="1" stroke-linecap="round" stroke-linejoin="round" transform="matrix(0.999992,0,0,-0.999992,30000.2,71306.9)"
font-family="MS Shell Dlg 2" font-size="10.3125" font-weight="400" font-style="normal" 
>
<path vector-effect="non-scaling-stroke" fill-rule="evenodd" d="M-23225,34881.2 L-23224.9,34881.1 L-16026.4,34881.1 L-16026.3,34880.9 L-16026.3,646.209 L-16026.4,646.068 L-29999.9,646.068 L-30000,646.209 L-30000,71305.9 L-29999.9,71306.1 L-16026.4,71306.1 L-16026.3,71305.9 L-16026.3,56881.2 L-16026.2,56881.1 L16026.2,56881.1 L16026.3,56881.2 L16026.3,71305.9 L16026.4,71306.1 L29999.9,71306.1 L30000,71305.9 L30000,646.209 L29999.9,646.068 L16026.4,646.068 L16026.3,646.209 L16026.3,34880.9 L16026.4,34881.1 L23224.9,34881.1 L23225,34881.2 L23225,37311 L23224.9,37311.1 L16026.4,37311.1 L16026.3,37311.2 L16026.3,44071 L16026.2,44071.1 L10475,44071.1 L10467.4,44109.3 L10445.7,44141.8 L10413.3,44163.5 L10375,44171.1 L-10375,44171.1 L-10413.3,44163.5 L-10445.7,44141.8 L-10467.4,44109.3 L-10475,44071.1 L-16026.2,44071.1 L-16026.3,44071 L-16026.3,37311.2 L-16026.4,37311.1 L-23224.9,37311.1 L-23225,37311 L-23225,34881.2"/>
</g>

<g fill="none" stroke="#000000" stroke-opacity="1" stroke-width="1" stroke-linecap="square" stroke-linejoin="bevel" transform="matrix(0.999992,0,0,-0.999992,30000.2,71306.9)"
font-family="MS Shell Dlg 2" font-size="10.3125" font-weight="400" font-style="normal" 
>
</g>

<g fill="none" stroke="#000000" stroke-opacity="1" stroke-width="1" stroke-linecap="square" stroke-linejoin="bevel" transform="matrix(0.999992,0,0,-0.999992,30000.2,71306.9)"
font-family="MS Shell Dlg 2" font-size="10.3125" font-weight="400" font-style="normal" 
>
</g>

<g fill="#ffff00" fill-opacity="0.2" stroke="#333333" stroke-opacity="1" stroke-width="1" stroke-linecap="round" stroke-linejoin="round" transform="matrix(0.999992,0,0,-0.999992,30000.2,71306.9)"
font-family="MS Shell Dlg 2" font-size="10.3125" font-weight="400" font-style="normal" 
>
<path vector-effect="non-scaling-stroke" fill-rule="evenodd" d="M10375,43971.1 L10375,37071.2 L10374.9,37071.1 L10125.1,37071.1 L10125,37071 L10125,7778.55 L10125.1,7778.45 L10125.2,7778.5 L10275.1,8038.13 L10275.3,8038.18 L13278.1,6304.49 L13278.2,6304.38 L15026.3,-6973.67 L15026.3,-6973.76 L10275.5,-15202.4 L10233.4,-15177.1 L10100.3,-15114.2 L9961.71,-15064.6 L9818.91,-15028.8 L9673.31,-15007.2 L9526.28,-15000 L9379.25,-15007.2 L9233.64,-15028.8 L9090.85,-15064.6 L8952.25,-15114.2 L8819.18,-15177.1 L8692.92,-15252.8 L8574.69,-15340.5 L8465.62,-15439.3 L8366.76,-15548.4 L8279.08,-15666.6 L8203.4,-15792.9 L8140.46,-15926 L8090.87,-16064.6 L8055.1,-16207.4 L8033.5,-16353 L8026.28,-16500 L8033.5,-16647 L8055.1,-16792.6 L8090.87,-16935.4 L8140.46,-17074 L8203.4,-17207.1 L8279.08,-17333.4 L8366.76,-17451.6 L8465.62,-17560.7 L5500.01,-20526.3 L5499.98,-20526.3 L5000.05,-20814.9 L5000,-20815 L5000,-38999.9 L4999.96,-39000 L0.1,-43999.9 L-0.1,-43999.9 L-4999.96,-39000 L-5000,-38999.9 L-5000,-20815 L-5000.05,-20814.9 L-5499.98,-20526.3 L-5500.01,-20526.3 L-8465.62,-17560.7 L-8366.76,-17451.6 L-8279.08,-17333.4 L-8203.4,-17207.1 L-8140.46,-17074 L-8090.87,-16935.4 L-8055.1,-16792.6 L-8033.5,-16647 L-8026.28,-16500 L-8033.5,-16353 L-8055.1,-16207.4 L-8090.87,-16064.6 L-8140.46,-15926 L-8203.4,-15792.9 L-8279.08,-15666.6 L-8366.76,-15548.4 L-8465.62,-15439.3 L-8574.69,-15340.5 L-8692.92,-15252.8 L-8819.18,-15177.1 L-8952.25,-15114.2 L-9090.85,-15064.6 L-9233.64,-15028.8 L-9379.25,-15007.2 L-9526.28,-15000 L-9673.31,-15007.2 L-9818.91,-15028.8 L-9961.71,-15064.6 L-10100.3,-15114.2 L-10233.4,-15177.1 L-10275.5,-15202.4 L-15026.3,-6973.76 L-15026.3,-6973.67 L-13278.2,6304.38 L-13278.1,6304.49 L-10275.3,8038.18 L-10275.1,8038.13 L-10125.2,7778.5 L-10125.1,7778.45 L-10125,7778.55 L-10125,37071 L-10125.1,37071.1 L-10374.9,37071.1 L-10375,37071.2 L-10375,43971.1 L10375,43971.1 M4662.88,9760.82 L4662.88,9760.79 L4680.13,9660.74 L4680.14,9660.72 L4722.02,9568.24 L4722.03,9568.22 L4785.86,9489.27 L4785.88,9489.25 L4867.53,9428.91 L4867.55,9428.9 L4961.76,9391.07 L4961.79,9391.06 L5062.49,9378.18 L5062.51,9378.18 L5131.65,9384.2 L5131.67,9384.2 L5228.63,9414.31 L5228.65,9414.32 L5314.9,9467.87 L5314.92,9467.88 L5384.91,9541.43 L5384.93,9541.45 L5434.14,9630.24 L5434.15,9630.27 L5459.41,9728.6 L5459.42,9728.62 L5459.11,9830.15 L5459.1,9830.17 L5433.24,9928.34 L5433.23,9928.37 L5383.48,10016.9 L5383.46,10016.9 L5313.03,10090 L5313.01,10090 L5226.43,10143 L5226.41,10143 L5129.27,10172.6 L5129.24,10172.6 L5027.8,10176.7 L5027.78,10176.7 L4928.57,10155.1 L4928.55,10155.1 L4837.98,10109.2 L4837.95,10109.2 L4761.85,10042 L4761.83,10042 L4705.1,9957.8 L4705.09,9957.77 L4671.39,9862.01 L4671.38,9861.98 L4662.88,9760.82 M-125,7778.27 L-124.9,7778.17 L-100,7778.17 L-100,-3221.83 L-92.388,-3260.09 L-70.7107,-3292.54 L-38.2683,-3314.21 L2.83277e-14,-3321.83 L38.2683,-3314.21 L70.7107,-3292.54 L92.388,-3260.09 L100,-3221.83 L100,7778.17 L124.9,7778.17 L125,7778.27 L125,37071 L124.9,37071.1 L-124.9,37071.1 L-125,37071 L-125,7778.27 M-5462.12,9760.82 L-5462.12,9760.79 L-5444.87,9660.74 L-5444.86,9660.72 L-5402.98,9568.24 L-5402.97,9568.22 L-5339.14,9489.27 L-5339.12,9489.25 L-5257.47,9428.91 L-5257.45,9428.9 L-5163.24,9391.07 L-5163.21,9391.06 L-5062.51,9378.18 L-5062.49,9378.18 L-4993.35,9384.2 L-4993.33,9384.2 L-4896.37,9414.31 L-4896.35,9414.32 L-4810.1,9467.87 L-4810.08,9467.88 L-4740.09,9541.43 L-4740.07,9541.45 L-4690.86,9630.24 L-4690.85,9630.27 L-4665.59,9728.6 L-4665.58,9728.62 L-4665.89,9830.15 L-4665.9,9830.17 L-4691.76,9928.34 L-4691.77,9928.37 L-4741.52,10016.9 L-4741.54,10016.9 L-4811.97,10090 L-4811.99,10090 L-4898.57,10143 L-4898.59,10143 L-4995.73,10172.6 L-4995.76,10172.6 L-5097.2,10176.7 L-5097.22,10176.7 L-5196.43,10155.1 L-5196.45,10155.1 L-5287.02,10109.2 L-5287.05,10109.2 L-5363.15,10042 L-5363.17,10042 L-5419.9,9957.8 L-5419.91,9957.77 L-5453.61,9862.01 L-5453.62,9861.98 L-5462.12,9760.82 M2000,-11000 L1990.37,-10804 L1961.57,-10609.8 L1913.88,-10419.4 L1847.76,-10234.6 L1763.84,-10057.2 L1662.94,-9888.86 L1546.02,-9731.21 L1414.21,-9585.79 L1268.79,-9453.98 L1111.14,-9337.06 L942.793,-9236.16 L765.367,-9152.24 L580.569,-9086.12 L390.181,-9038.43 L196.034,-9009.63 L-5.69646e-12,-9000 L-196.034,-9009.63 L-390.181,-9038.43 L-580.569,-9086.12 L-765.367,-9152.24 L-942.793,-9236.16 L-1111.14,-9337.06 L-1268.79,-9453.98 L-1414.21,-9585.79 L-1546.02,-9731.21 L-1662.94,-9888.86 L-1763.84,-10057.2 L-1847.76,-10234.6 L-1913.88,-10419.4 L-1961.57,-10609.8 L-1990.37,-10804 L-2000,-11000 L-1990.37,-11196 L-1961.57,-11390.2 L-1913.88,-11580.6 L-1847.76,-11765.4 L-1763.84,-11942.8 L-1662.94,-12111.1 L-1546.02,-12268.8 L-1414.21,-12414.2 L-1268.79,-12546 L-1111.14,-12662.9 L-942.793,-12763.8 L-765.367,-12847.8 L-580.569,-12913.9 L-390.181,-12961.6 L-196.034,-12990.4 L3.23109e-12,-13000 L196.034,-12990.4 L390.181,-12961.6 L580.569,-12913.9 L765.367,-12847.8 L942.793,-12763.8 L1111.14,-12662.9 L1268.79,-12546 L1414.21,-12414.2 L1546.02,-12268.8 L1662.94,-12111.1 L1763.84,-11942.8 L1847.76,-11765.4 L1913.88,-11580.6 L1961.57,-11390.2 L1990.37,-11196 L2000,-11000 M-6278.17,-3221.83 L-6285.4,-3074.8 L-6307,-2929.19 L-6342.76,-2786.4 L-6392.36,-2647.8 L-6455.29,-2514.73 L-6530.97,-2388.47 L-6618.66,-2270.24 L-6717.51,-2161.17 L-6826.58,-2062.31 L-6944.82,-1974.62 L-7071.08,-1898.94 L-7204.15,-1836.01 L-7342.75,-1786.41 L-7485.54,-1750.65 L-7631.15,-1729.05 L-7778.17,-1721.83 L-7925.2,-1729.05 L-8070.81,-1750.65 L-8213.6,-1786.41 L-8352.2,-1836.01 L-8485.27,-1898.94 L-8611.53,-1974.62 L-8729.76,-2062.31 L-8838.83,-2161.17 L-8937.69,-2270.24 L-9025.38,-2388.47 L-9101.06,-2514.73 L-9163.99,-2647.8 L-9213.59,-2786.4 L-9249.35,-2929.19 L-9270.95,-3074.8 L-9278.17,-3221.83 L-9270.95,-3368.85 L-9249.35,-3514.46 L-9213.59,-3657.25 L-9163.99,-3795.85 L-9101.06,-3928.92 L-9025.38,-4055.18 L-8937.69,-4173.42 L-8838.83,-4282.49 L-8729.76,-4381.34 L-8611.53,-4469.03 L-8485.27,-4544.71 L-8352.2,-4607.64 L-8213.6,-4657.24 L-8070.81,-4693 L-7925.2,-4714.6 L-7778.17,-4721.83 L-7631.15,-4714.6 L-7485.54,-4693 L-7342.75,-4657.24 L-7204.15,-4607.64 L-7071.08,-4544.71 L-6944.82,-4469.03 L-6826.58,-4381.34 L-6717.51,-4282.49 L-6618.66,-4173.42 L-6530.97,-4055.18 L-6455.29,-3928.92 L-6392.36,-3795.85 L-6342.76,-3657.25 L-6307,-3514.46 L-6285.4,-3368.85 L-6278.17,-3221.83 M9278.17,-3221.83 L9270.95,-3074.8 L9249.35,-2929.19 L9213.59,-2786.4 L9163.99,-2647.8 L9101.06,-2514.73 L9025.38,-2388.47 L8937.69,-2270.24 L8838.83,-2161.17 L8729.76,-2062.31 L8611.53,-1974.62 L8485.27,-1898.94 L8352.2,-1836.01 L8213.6,-1786.41 L8070.81,-1750.65 L7925.2,-1729.05 L7778.17,-1721.83 L7631.15,-1729.05 L7485.54,-1750.65 L7342.75,-1786.41 L7204.15,-1836.01 L7071.08,-1898.94 L6944.82,-1974.62 L6826.58,-2062.31 L6717.51,-2161.17 L6618.66,-2270.24 L6530.97,-2388.47 L6455.29,-2514.73 L6392.36,-2647.8 L6342.76,-2786.4 L6307,-2929.19 L6285.4,-3074.8 L6278.17,-3221.83 L6285.4,-3368.85 L6307,-3514.46 L6342.76,-3657.25 L6392.36,-3795.85 L6455.29,-3928.92 L6530.97,-4055.18 L6618.66,-4173.42 L6717.51,-4282.49 L6826.58,-4381.34 L6944.82,-4469.03 L7071.08,-4544.71 L7204.15,-4607.64 L7342.75,-4657.24 L7485.54,-4693 L7631.15,-4714.6 L7778.17,-4721.83 L7925.2,-4714.6 L8070.81,-4693 L8213.6,-4657.24 L8352.2,-4607.64 L8485.27,-4544.71 L8611.53,-4469.03 L8729.76,-4381.34 L8838.83,-4282.49 L8937.69,-4173.42 L9025.38,-4055.18 L9101.06,-3928.92 L9163.99,-3795.85 L9213.59,-3657.25 L9249.35,-3514.46 L9270.95,-3368.85 L9278.17,-3221.83"/>
</g>

<g fill="none" stroke="#000000" stroke-opacity="1" stroke-width="1" stroke-linecap="square" stroke-linejoin="bevel" transform="matrix(0.999992,0,0,-0.999992,30000.2,71306.9)"
font-family="MS Shell Dlg 2" font-size="10.3125" font-weight="400" font-style="normal" 
>
</g>

<g fill="none" stroke="#000000" stroke-opacity="1" stroke-width="1" stroke-linecap="square" stroke-linejoin="bevel" transform="matrix(0.999992,0,0,-0.999992,30000.2,71306.9)"
font-family="MS Shell Dlg 2" font-size="10.3125" font-weight="400" font-style="normal" 
>
</g>

<g fill="#ffff00" fill-opacity="0.2" stroke="#333333" stroke-opacity="1" stroke-width="1" stroke-linecap="round" stroke-linejoin="round" transform="matrix(0.999992,0,0,-0.999992,30000.2,71306.9)"
font-family="MS Shell Dlg 2" font-size="10.3125" font-weight="400" font-style="normal" 
>
<path vector-effect="non-scaling-stroke" fill-rule="evenodd" d="M-23225,34881.2 L-23224.9,34881.1 L-16026.4,34881.1 L-16026.3,34880.9 L-16026.3,646.209 L-16026.4,646.068 L-29999.9,646.068 L-30000,646.209 L-30000,71305.9 L-29999.9,71306.1 L-16026.4,71306.1 L-16026.3,71305.9 L-16026.3,56881.2 L-16026.2,56881.1 L16026.2,56881.1 L16026.3,56881.2 L16026.3,71305.9 L16026.4,71306.1 L29999.9,71306.1 L30000,71305.9 L30000,646.209 L29999.9,646.068 L16026.4,646.068 L16026.3,646.209 L16026.3,34880.9 L16026.4,34881.1 L23224.9,34881.1 L23225,34881.2 L23225,37311 L23224.9,37311.1 L16026.4,37311.1 L16026.3,37311.2 L16026.3,44071 L16026.2,44071.1 L10475,44071.1 L10467.4,44109.3 L10445.7,44141.8 L10413.3,44163.5 L10375,44171.1 L-10375,44171.1 L-10413.3,44163.5 L-10445.7,44141.8 L-10467.4,44109.3 L-10475,44071.1 L-16026.2,44071.1 L-16026.3,44071 L-16026.3,37311.2 L-16026.4,37311.1 L-23224.9,37311.1 L-23225,37311 L-23225,34881.2"/>
</g>

<g fill="none" stroke="#000000" stroke-opacity="1" stroke-width="1" stroke-linecap="square" stroke-linejoin="bevel" transform="matrix(0.999992,0,0,-0.999992,30000.2,71306.9)"
font-family="MS Shell Dlg 2" font-size="10.3125" font-weight="400" font-style="normal" 
>
</g>

<g fill="none" stroke="#000000" stroke-opacity="1" stroke-width="1" stroke-linecap="square" stroke-linejoin="bevel" transform="matrix(0.999992,0,0,-0.999992,30000.2,71306.9)"
font-family="MS Shell Dlg 2" font-size="10.3125" font-weight="400" font-style="normal" 
>
</g>

<g fill="#ae5151" fill-opacity="0.2" stroke="#333333" stroke-opacity="1" stroke-width="1" stroke-linecap="round" stroke-linejoin="round" transform="matrix(0.999992,0,0,-0.999992,30000.2,71306.9)"
font-family="MS Shell Dlg 2" font-size="10.3125" font-weight="400" font-style="normal" 
>
<path vector-effect="non-scaling-stroke" fill-rule="evenodd" d="M10375,43971.1 L10375,37071.2 L10374.9,37071.1 L10125.1,37071.1 L10125,37071 L10125,7778.55 L10125.1,7778.45 L10125.2,7778.5 L10275.1,8038.13 L10275.3,8038.18 L13278.1,6304.49 L13278.2,6304.38 L15026.3,-6973.67 L15026.3,-6973.76 L10275.5,-15202.4 L10233.4,-15177.1 L10100.3,-15114.2 L9961.71,-15064.6 L9818.91,-15028.8 L9673.31,-15007.2 L9526.28,-15000 L9379.25,-15007.2 L9233.64,-15028.8 L9090.85,-15064.6 L8952.25,-15114.2 L8819.18,-15177.1 L8692.92,-15252.8 L8574.69,-15340.5 L8465.62,-15439.3 L8366.76,-15548.4 L8279.08,-15666.6 L8203.4,-15792.9 L8140.46,-15926 L8090.87,-16064.6 L8055.1,-16207.4 L8033.5,-16353 L8026.28,-16500 L8033.5,-16647 L8055.1,-16792.6 L8090.87,-16935.4 L8140.46,-17074 L8203.4,-17207.1 L8279.08,-17333.4 L8366.76,-17451.6 L8465.62,-17560.7 L5500.01,-20526.3 L5499.98,-20526.3 L5000.05,-20814.9 L5000,-20815 L5000,-38999.9 L4999.96,-39000 L0.1,-43999.9 L-0.1,-43999.9 L-4999.96,-39000 L-5000,-38999.9 L-5000,-20815 L-5000.05,-20814.9 L-5499.98,-20526.3 L-5500.01,-20526.3 L-8465.62,-17560.7 L-8366.76,-17451.6 L-8279.08,-17333.4 L-8203.4,-17207.1 L-8140.46,-17074 L-8090.87,-16935.4 L-8055.1,-16792.6 L-8033.5,-16647 L-8026.28,-16500 L-8033.5,-16353 L-8055.1,-16207.4 L-8090.87,-16064.6 L-8140.46,-15926 L-8203.4,-15792.9 L-8279.08,-15666.6 L-8366.76,-15548.4 L-8465.62,-15439.3 L-8574.69,-15340.5 L-8692.92,-15252.8 L-8819.18,-15177.1 L-8952.25,-15114.2 L-9090.85,-15064.6 L-9233.64,-15028.8 L-9379.25,-15007.2 L-9526.28,-15000 L-9673.31,-15007.2 L-9818.91,-15028.8 L-9961.71,-15064.6 L-10100.3,-15114.2 L-10233.4,-15177.1 L-10275.5,-15202.4 L-15026.3,-6973.76 L-15026.3,-6973.67 L-13278.2,6304.38 L-13278.1,6304.49 L-10275.3,8038.18 L-10275.1,8038.13 L-10125.2,7778.5 L-10125.1,7778.45 L-10125,7778.55 L-10125,37071 L-10125.1,37071.1 L-10374.9,37071.1 L-10375,37071.2 L-10375,43971.1 L10375,43971.1 M4662.88,9760.82 L4662.88,9760.79 L4680.13,9660.74 L4680.14,9660.72 L4722.02,9568.24 L4722.03,9568.22 L4785.86,9489.27 L4785.88,9489.25 L4867.53,9428.91 L4867.55,9428.9 L4961.76,9391.07 L4961.79,9391.06 L5062.49,9378.18 L5062.51,9378.18 L5131.65,9384.2 L5131.67,9384.2 L5228.63,9414.31 L5228.65,9414.32 L5314.9,9467.87 L5314.92,9467.88 L5384.91,9541.43 L5384.93,9541.45 L5434.14,9630.24 L5434.15,9630.27 L5459.41,9728.6 L5459.42,9728.62 L5459.11,9830.15 L5459.1,9830.17 L5433.24,9928.34 L5433.23,9928.37 L5383.48,10016.9 L5383.46,10016.9 L5313.03,10090 L5313.01,10090 L5226.43,10143 L5226.41,10143 L5129.27,10172.6 L5129.24,10172.6 L5027.8,10176.7 L5027.78,10176.7 L4928.57,10155.1 L4928.55,10155.1 L4837.98,10109.2 L4837.95,10109.2 L4761.85,10042 L4761.83,10042 L4705.1,9957.8 L4705.09,9957.77 L4671.39,9862.01 L4671.38,9861.98 L4662.88,9760.82 M-125,7778.27 L-124.9,7778.17 L-100,7778.17 L-100,-3221.83 L-92.388,-3260.09 L-70.7107,-3292.54 L-38.2683,-3314.21 L2.83277e-14,-3321.83 L38.2683,-3314.21 L70.7107,-3292.54 L92.388,-3260.09 L100,-3221.83 L100,7778.17 L124.9,7778.17 L125,7778.27 L125,37071 L124.9,37071.1 L-124.9,37071.1 L-125,37071 L-125,7778.27 M-5462.12,9760.82 L-5462.12,9760.79 L-5444.87,9660.74 L-5444.86,9660.72 L-5402.98,9568.24 L-5402.97,9568.22 L-5339.14,9489.27 L-5339.12,9489.25 L-5257.47,9428.91 L-5257.45,9428.9 L-5163.24,9391.07 L-5163.21,9391.06 L-5062.51,9378.18 L-5062.49,9378.18 L-4993.35,9384.2 L-4993.33,9384.2 L-4896.37,9414.31 L-4896.35,9414.32 L-4810.1,9467.87 L-4810.08,9467.88 L-4740.09,9541.43 L-4740.07,9541.45 L-4690.86,9630.24 L-4690.85,9630.27 L-4665.59,9728.6 L-4665.58,9728.62 L-4665.89,9830.15 L-4665.9,9830.17 L-4691.76,9928.34 L-4691.77,9928.37 L-4741.52,10016.9 L-4741.54,10016.9 L-4811.97,10090 L-4811.99,10090 L-4898.57,10143 L-4898.59,10143 L-4995.73,10172.6 L-4995.76,10172.6 L-5097.2,10176.7 L-5097.22,10176.7 L-5196.43,10155.1 L-5196.45,10155.1 L-5287.02,10109.2 L-5287.05,10109.2 L-5363.15,10042 L-5363.17,10042 L-5419.9,9957.8 L-5419.91,9957.77 L-5453.61,9862.01 L-5453.62,9861.98 L-5462.12,9760.82 M2000,-11000 L1990.37,-10804 L1961.57,-10609.8 L1913.88,-10419.4 L1847.76,-10234.6 L1763.84,-10057.2 L1662.94,-9888.86 L1546.02,-9731.21 L1414.21,-9585.79 L1268.79,-9453.98 L1111.14,-9337.06 L942.793,-9236.16 L765.367,-9152.24 L580.569,-9086.12 L390.181,-9038.43 L196.034,-9009.63 L-5.69646e-12,-9000 L-196.034,-9009.63 L-390.181,-9038.43 L-580.569,-9086.12 L-765.367,-9152.24 L-942.793,-9236.16 L-1111.14,-9337.06 L-1268.79,-9453.98 L-1414.21,-9585.79 L-1546.02,-9731.21 L-1662.94,-9888.86 L-1763.84,-10057.2 L-1847.76,-10234.6 L-1913.88,-10419.4 L-1961.57,-10609.8 L-1990.37,-10804 L-2000,-11000 L-1990.37,-11196 L-1961.57,-11390.2 L-1913.88,-11580.6 L-1847.76,-11765.4 L-1763.84,-11942.8 L-1662.94,-12111.1 L-1546.02,-12268.8 L-1414.21,-12414.2 L-1268.79,-12546 L-1111.14,-12662.9 L-942.793,-12763.8 L-765.367,-12847.8 L-580.569,-12913.9 L-390.181,-12961.6 L-196.034,-12990.4 L3.23109e-12,-13000 L196.034,-12990.4 L390.181,-12961.6 L580.569,-12913.9 L765.367,-12847.8 L942.793,-12763.8 L1111.14,-12662.9 L1268.79,-12546 L1414.21,-12414.2 L1546.02,-12268.8 L1662.94,-12111.1 L1763.84,-11942.8 L1847.76,-11765.4 L1913.88,-11580.6 L1961.57,-11390.2 L1990.37,-11196 L2000,-11000 M-6278.17,-3221.83 L-6285.4,-3074.8 L-6307,-2929.19 L-6342.76,-2786.4 L-6392.36,-2647.8 L-6455.29,-2514.73 L-6530.97,-2388.47 L-6618.66,-2270.24 L-6717.51,-2161.17 L-6826.58,-2062.31 L-6944.82,-1974.62 L-7071.08,-1898.94 L-7204.15,-1836.01 L-7342.75,-1786.41 L-7485.54,-1750.65 L-7631.15,-1729.05 L-7778.17,-1721.83 L-7925.2,-1729.05 L-8070.81,-1750.65 L-8213.6,-1786.41 L-8352.2,-1836.01 L-8485.27,-1898.94 L-8611.53,-1974.62 L-8729.76,-2062.31 L-8838.83,-2161.17 L-8937.69,-2270.24 L-9025.38,-2388.47 L-9101.06,-2514.73 L-9163.99,-2647.8 L-9213.59,-2786.4 L-9249.35,-2929.19 L-9270.95,-3074.8 L-9278.17,-3221.83 L-9270.95,-3368.85 L-9249.35,-3514.46 L-9213.59,-3657.25 L-9163.99,-3795.85 L-9101.06,-3928.92 L-9025.38,-4055.18 L-8937.69,-4173.42 L-8838.83,-4282.49 L-8729.76,-4381.34 L-8611.53,-4469.03 L-8485.27,-4544.71 L-8352.2,-4607.64 L-8213.6,-4657.24 L-8070.81,-4693 L-7925.2,-4714.6 L-7778.17,-4721.83 L-7631.15,-4714.6 L-7485.54,-4693 L-7342.75,-4657.24 L-7204.15,-4607.64 L-7071.08,-4544.71 L-6944.82,-4469.03 L-6826.58,-4381.34 L-6717.51,-4282.49 L-6618.66,-4173.42 L-6530.97,-4055.18 L-6455.29,-3928.92 L-6392.36,-3795.85 L-6342.76,-3657.25 L-6307,-3514.46 L-6285.4,-3368.85 L-6278.17,-3221.83 M9278.17,-3221.83 L9270.95,-3074.8 L9249.35,-2929.19 L9213.59,-2786.4 L9163.99,-2647.8 L9101.06,-2514.73 L9025.38,-2388.47 L8937.69,-2270.24 L8838.83,-2161.17 L8729.76,-2062.31 L8611.53,-1974.62 L8485.27,-1898.94 L8352.2,-1836.01 L8213.6,-1786.41 L8070.81,-1750.65 L7925.2,-1729.05 L7778.17,-1721.83 L7631.15,-1729.05 L7485.54,-1750.65 L7342.75,-1786.41 L7204.15,-1836.01 L7071.08,-1898.94 L6944.82,-1974.62 L6826.58,-2062.31 L6717.51,-2161.17 L6618.66,-2270.24 L6530.97,-2388.47 L6455.29,-2514.73 L6392.36,-2647.8 L6342.76,-2786.4 L6307,-2929.19 L6285.4,-3074.8 L6278.17,-3221.83 L6285.4,-3368.85 L6307,-3514.46 L6342.76,-3657.25 L6392.36,-3795.85 L6455.29,-3928.92 L6530.97,-4055.18 L6618.66,-4173.42 L6717.51,-4282.49 L6826.58,-4381.34 L6944.82,-4469.03 L7071.08,-4544.71 L7204.15,-4607.64 L7342.75,-4657.24 L7485.54,-4693 L7631.15,-4714.6 L7778.17,-4721.83 L7925.2,-4714.6 L8070.81,-4693 L8213.6,-4657.24 L8352.2,-4607.64 L8485.27,-4544.71 L8611.53,-4469.03 L8729.76,-4381.34 L8838.83,-4282.49 L8937.69,-4173.42 L9025.38,-4055.18 L9101.06,-3928.92 L9163.99,-3795.85 L9213.59,-3657.25 L9249.35,-3514.46 L9270.95,-3368.85 L9278.17,-3221.83"/>
</g>

<g fill="none" stroke="#000000" stroke-opacity="1" stroke-width="1" stroke-linecap="square" stroke-linejoin="bevel" transform="matrix(0.999992,0,0,-0.999992,30000.2,71306.9)"
font-family="MS Shell Dlg 2" font-size="10.3125" font-weight="400" font-style="normal" 
>
</g>

<g fill="none" stroke="#000000" stroke-opacity="1" stroke-width="1" stroke-linecap="square" stroke-linejoin="bevel" transform="matrix(0.999992,0,0,-0.999992,30000.2,71306.9)"
font-family="MS Shell Dlg 2" font-size="10.3125" font-weight="400" font-style="normal" 
>
</g>

<g fill="#ae5151" fill-opacity="0.2" stroke="#333333" stroke-opacity="1" stroke-width="1" stroke-linecap="round" stroke-linejoin="round" transform="matrix(0.999992,0,0,-0.999992,30000.2,71306.9)"
font-family="MS Shell Dlg 2" font-size="10.3125" font-weight="400" font-style="normal" 
>
<path vector-effect="non-scaling-stroke" fill-rule="evenodd" d="M-23225,34881.2 L-23224.9,34881.1 L-16026.4,34881.1 L-16026.3,34880.9 L-16026.3,646.209 L-16026.4,646.068 L-29999.9,646.068 L-30000,646.209 L-30000,71305.9 L-29999.9,71306.1 L-16026.4,71306.1 L-16026.3,71305.9 L-16026.3,56881.2 L-16026.2,56881.1 L16026.2,56881.1 L16026.3,56881.2 L16026.3,71305.9 L16026.4,71306.1 L29999.9,71306.1 L30000,71305.9 L30000,646.209 L29999.9,646.068 L16026.4,646.068 L16026.3,646.209 L16026.3,34880.9 L16026.4,34881.1 L23224.9,34881.1 L23225,34881.2 L23225,37311 L23224.9,37311.1 L16026.4,37311.1 L16026.3,37311.2 L16026.3,44071 L16026.2,44071.1 L10475,44071.1 L10467.4,44109.3 L10445.7,44141.8 L10413.3,44163.5 L10375,44171.1 L-10375,44171.1 L-10413.3,44163.5 L-10445.7,44141.8 L-10467.4,44109.3 L-10475,44071.1 L-16026.2,44071.1 L-16026.3,44071 L-16026.3,37311.2 L-16026.4,37311.1 L-23224.9,37311.1 L-23225,37311 L-23225,34881.2"/>
</g>

<g fill="none" stroke="#000000" stroke-opacity="1" stroke-width="1" stroke-linecap="square" stroke-linejoin="bevel" transform="matrix(0.999992,0,0,-0.999992,30000.2,71306.9)"
font-family="MS Shell Dlg 2" font-size="10.3125" font-weight="400" font-style="normal" 
>
</g>

<g fill="none" stroke="#000000" stroke-opacity="1" stroke-width="1" stroke-linecap="square" stroke-linejoin="bevel" transform="matrix(0.999992,0,0,-0.999992,30000.2,71306.9)"
font-family="MS Shell Dlg 2" font-size="10.3125" font-weight="400" font-style="normal" 
>
</g>

<g fill="#333333" fill-opacity="0.2" stroke="#333333" stroke-opacity="1" stroke-width="1" stroke-linecap="round" stroke-linejoin="round" transform="matrix(0.999992,0,0,-0.999992,30000.2,71306.9)"
font-family="MS Shell Dlg 2" font-size="10.3125" font-weight="400" font-style="normal" 
>
<path vector-effect="non-scaling-stroke" fill-rule="evenodd" d="M10375,43971.1 L10375,37071.2 L10374.9,37071.1 L10125.1,37071.1 L10125,37071 L10125,7778.55 L10125.1,7778.45 L10125.2,7778.5 L10275.1,8038.13 L10275.3,8038.18 L13278.1,6304.49 L13278.2,6304.38 L15026.3,-6973.67 L15026.3,-6973.76 L10275.5,-15202.4 L10233.4,-15177.1 L10100.3,-15114.2 L9961.71,-15064.6 L9818.91,-15028.8 L9673.31,-15007.2 L9526.28,-15000 L9379.25,-15007.2 L9233.64,-15028.8 L9090.85,-15064.6 L8952.25,-15114.2 L8819.18,-15177.1 L8692.92,-15252.8 L8574.69,-15340.5 L8465.62,-15439.3 L8366.76,-15548.4 L8279.08,-15666.6 L8203.4,-15792.9 L8140.46,-15926 L8090.87,-16064.6 L8055.1,-16207.4 L8033.5,-16353 L8026.28,-16500 L8033.5,-16647 L8055.1,-16792.6 L8090.87,-16935.4 L8140.46,-17074 L8203.4,-17207.1 L8279.08,-17333.4 L8366.76,-17451.6 L8465.62,-17560.7 L5500.01,-20526.3 L5499.98,-20526.3 L5000.05,-20814.9 L5000,-20815 L5000,-38999.9 L4999.96,-39000 L0.1,-43999.9 L-0.1,-43999.9 L-4999.96,-39000 L-5000,-38999.9 L-5000,-20815 L-5000.05,-20814.9 L-5499.98,-20526.3 L-5500.01,-20526.3 L-8465.62,-17560.7 L-8366.76,-17451.6 L-8279.08,-17333.4 L-8203.4,-17207.1 L-8140.46,-17074 L-8090.87,-16935.4 L-8055.1,-16792.6 L-8033.5,-16647 L-8026.28,-16500 L-8033.5,-16353 L-8055.1,-16207.4 L-8090.87,-16064.6 L-8140.46,-15926 L-8203.4,-15792.9 L-8279.08,-15666.6 L-8366.76,-15548.4 L-8465.62,-15439.3 L-8574.69,-15340.5 L-8692.92,-15252.8 L-8819.18,-15177.1 L-8952.25,-15114.2 L-9090.85,-15064.6 L-9233.64,-15028.8 L-9379.25,-15007.2 L-9526.28,-15000 L-9673.31,-15007.2 L-9818.91,-15028.8 L-9961.71,-15064.6 L-10100.3,-15114.2 L-10233.4,-15177.1 L-10275.5,-15202.4 L-15026.3,-6973.76 L-15026.3,-6973.67 L-13278.2,6304.38 L-13278.1,6304.49 L-10275.3,8038.18 L-10275.1,8038.13 L-10125.2,7778.5 L-10125.1,7778.45 L-10125,7778.55 L-10125,37071 L-10125.1,37071.1 L-10374.9,37071.1 L-10375,37071.2 L-10375,43971.1 L10375,43971.1 M4662.88,9760.82 L4662.88,9760.79 L4680.13,9660.74 L4680.14,9660.72 L4722.02,9568.24 L4722.03,9568.22 L4785.86,9489.27 L4785.88,9489.25 L4867.53,9428.91 L4867.55,9428.9 L4961.76,9391.07 L4961.79,9391.06 L5062.49,9378.18 L5062.51,9378.18 L5131.65,9384.2 L5131.67,9384.2 L5228.63,9414.31 L5228.65,9414.32 L5314.9,9467.87 L5314.92,9467.88 L5384.91,9541.43 L5384.93,9541.45 L5434.14,9630.24 L5434.15,9630.27 L5459.41,9728.6 L5459.42,9728.62 L5459.11,9830.15 L5459.1,9830.17 L5433.24,9928.34 L5433.23,9928.37 L5383.48,10016.9 L5383.46,10016.9 L5313.03,10090 L5313.01,10090 L5226.43,10143 L5226.41,10143 L5129.27,10172.6 L5129.24,10172.6 L5027.8,10176.7 L5027.78,10176.7 L4928.57,10155.1 L4928.55,10155.1 L4837.98,10109.2 L4837.95,10109.2 L4761.85,10042 L4761.83,10042 L4705.1,9957.8 L4705.09,9957.77 L4671.39,9862.01 L4671.38,9861.98 L4662.88,9760.82 M-125,7778.27 L-124.9,7778.17 L-100,7778.17 L-100,-3221.83 L-92.388,-3260.09 L-70.7107,-3292.54 L-38.2683,-3314.21 L2.83277e-14,-3321.83 L38.2683,-3314.21 L70.7107,-3292.54 L92.388,-3260.09 L100,-3221.83 L100,7778.17 L124.9,7778.17 L125,7778.27 L125,37071 L124.9,37071.1 L-124.9,37071.1 L-125,37071 L-125,7778.27 M-5462.12,9760.82 L-5462.12,9760.79 L-5444.87,9660.74 L-5444.86,9660.72 L-5402.98,9568.24 L-5402.97,9568.22 L-5339.14,9489.27 L-5339.12,9489.25 L-5257.47,9428.91 L-5257.45,9428.9 L-5163.24,9391.07 L-5163.21,9391.06 L-5062.51,9378.18 L-5062.49,9378.18 L-4993.35,9384.2 L-4993.33,9384.2 L-4896.37,9414.31 L-4896.35,9414.32 L-4810.1,9467.87 L-4810.08,9467.88 L-4740.09,9541.43 L-4740.07,9541.45 L-4690.86,9630.24 L-4690.85,9630.27 L-4665.59,9728.6 L-4665.58,9728.62 L-4665.89,9830.15 L-4665.9,9830.17 L-4691.76,9928.34 L-4691.77,9928.37 L-4741.52,10016.9 L-4741.54,10016.9 L-4811.97,10090 L-4811.99,10090 L-4898.57,10143 L-4898.59,10143 L-4995.73,10172.6 L-4995.76,10172.6 L-5097.2,10176.7 L-5097.22,10176.7 L-5196.43,10155.1 L-5196.45,10155.1 L-5287.02,10109.2 L-5287.05,10109.2 L-5363.15,10042 L-5363.17,10042 L-5419.9,9957.8 L-5419.91,9957.77 L-5453.61,9862.01 L-5453.62,9861.98 L-5462.12,9760.82 M2000,-11000 L1990.37,-10804 L1961.57,-10609.8 L1913.88,-10419.4 L1847.76,-10234.6 L1763.84,-10057.2 L1662.94,-9888.86 L1546.02,-9731.21 L1414.21,-9585.79 L1268.79,-9453.98 L1111.14,-9337.06 L942.793,-9236.16 L765.367,-9152.24 L580.569,-9086.12 L390.181,-9038.43 L196.034,-9009.63 L-5.69646e-12,-9000 L-196.034,-9009.63 L-390.181,-9038.43 L-580.569,-9086.12 L-765.367,-9152.24 L-942.793,-9236.16 L-1111.14,-9337.06 L-1268.79,-9453.98 L-1414.21,-9585.79 L-1546.02,-9731.21 L-1662.94,-9888.86 L-1763.84,-10057.2 L-1847.76,-10234.6 L-1913.88,-10419.4 L-1961.57,-10609.8 L-1990.37,-10804 L-2000,-11000 L-1990.37,-11196 L-1961.57,-11390.2 L-1913.88,-11580.6 L-1847.76,-11765.4 L-1763.84,-11942.8 L-1662.94,-12111.1 L-1546.02,-12268.8 L-1414.21,-12414.2 L-1268.79,-12546 L-1111.14,-12662.9 L-942.793,-12763.8 L-765.367,-12847.8 L-580.569,-12913.9 L-390.181,-12961.6 L-196.034,-12990.4 L3.23109e-12,-13000 L196.034,-12990.4 L390.181,-12961.6 L580.569,-12913.9 L765.367,-12847.8 L942.793,-12763.8 L1111.14,-12662.9 L1268.79,-12546 L1414.21,-12414.2 L1546.02,-12268.8 L1662.94,-12111.1 L1763.84,-11942.8 L1847.76,-11765.4 L1913.88,-11580.6 L1961.57,-11390.2 L1990.37,-11196 L2000,-11000 M-6278.17,-3221.83 L-6285.4,-3074.8 L-6307,-2929.19 L-6342.76,-2786.4 L-6392.36,-2647.8 L-6455.29,-2514.73 L-6530.97,-2388.47 L-6618.66,-2270.24 L-6717.51,-2161.17 L-6826.58,-2062.31 L-6944.82,-1974.62 L-7071.08,-1898.94 L-7204.15,-1836.01 L-7342.75,-1786.41 L-7485.54,-1750.65 L-7631.15,-1729.05 L-7778.17,-1721.83 L-7925.2,-1729.05 L-8070.81,-1750.65 L-8213.6,-1786.41 L-8352.2,-1836.01 L-8485.27,-1898.94 L-8611.53,-1974.62 L-8729.76,-2062.31 L-8838.83,-2161.17 L-8937.69,-2270.24 L-9025.38,-2388.47 L-9101.06,-2514.73 L-9163.99,-2647.8 L-9213.59,-2786.4 L-9249.35,-2929.19 L-9270.95,-3074.8 L-9278.17,-3221.83 L-9270.95,-3368.85 L-9249.35,-3514.46 L-9213.59,-3657.25 L-9163.99,-3795.85 L-9101.06,-3928.92 L-9025.38,-4055.18 L-8937.69,-4173.42 L-8838.83,-4282.49 L-8729.76,-4381.34 L-8611.53,-4469.03 L-8485.27,-4544.71 L-8352.2,-4607.64 L-8213.6,-4657.24 L-8070.81,-4693 L-7925.2,-4714.6 L-7778.17,-4721.83 L-7631.15,-4714.6 L-7485.54,-4693 L-7342.75,-4657.24 L-7204.15,-4607.64 L-7071.08,-4544.71 L-6944.82,-4469.03 L-6826.58,-4381.34 L-6717.51,-4282.49 L-6618.66,-4173.42 L-6530.97,-4055.18 L-6455.29,-3928.92 L-6392.36,-3795.85 L-6342.76,-3657.25 L-6307,-3514.46 L-6285.4,-3368.85 L-6278.17,-3221.83 M9278.17,-3221.83 L9270.95,-3074.8 L9249.35,-2929.19 L9213.59,-2786.4 L9163.99,-2647.8 L9101.06,-2514.73 L9025.38,-2388.47 L8937.69,-2270.24 L8838.83,-2161.17 L8729.76,-2062.31 L8611.53,-1974.62 L8485.27,-1898.94 L8352.2,-1836.01 L8213.6,-1786.41 L8070.81,-1750.65 L7925.2,-1729.05 L7778.17,-1721.83 L7631.15,-1729.05 L7485.54,-1750.65 L7342.75,-1786.41 L7204.15,-1836.01 L7071.08,-1898.94 L6944.82,-1974.62 L6826.58,-2062.31 L6717.51,-2161.17 L6618.66,-2270.24 L6530.97,-2388.47 L6455.29,-2514.73 L6392.36,-2647.8 L6342.76,-2786.4 L6307,-2929.19 L6285.4,-3074.8 L6278.17,-3221.83 L6285.4,-3368.85 L6307,-3514.46 L6342.76,-3657.25 L6392.36,-3795.85 L6455.29,-3928.92 L6530.97,-4055.18 L6618.66,-4173.42 L6717.51,-4282.49 L6826.58,-4381.34 L6944.82,-4469.03 L7071.08,-4544.71 L7204.15,-4607.64 L7342.75,-4657.24 L7485.54,-4693 L7631.15,-4714.6 L7778.17,-4721.83 L7925.2,-4714.6 L8070.81,-4693 L8213.6,-4657.24 L8352.2,-4607.64 L8485.27,-4544.71 L8611.53,-4469.03 L8729.76,-4381.34 L8838.83,-4282.49 L8937.69,-4173.42 L9025.38,-4055.18 L9101.06,-3928.92 L9163.99,-3795.85 L9213.59,-3657.25 L9249.35,-3514.46 L9270.95,-3368.85 L9278.17,-3221.83"/>
</g>

<g fill="none" stroke="#000000" stroke-opacity="1" stroke-width="1" stroke-linecap="square" stroke-linejoin="bevel" transform="matrix(0.999992,0,0,-0.999992,30000.2,71306.9)"
font-family="MS Shell Dlg 2" font-size="10.3125" font-weight="400" font-style="normal" 
>
</g>

<g fill="none" stroke="#000000" stroke-opacity="1" stroke-width="1" stroke-linecap="square" stroke-linejoin="bevel" transform="matrix(0.999992,0,0,-0.999992,30000.2,71306.9)"
font-family="MS Shell Dlg 2" font-size="10.3125" font-weight="400" font-style="normal" 
>
</g>

<g fill="#333333" fill-opacity="0.2" stroke="#333333" stroke-opacity="1" stroke-width="1" stroke-linecap="round" stroke-linejoin="round" transform="matrix(0.999992,0,0,-0.999992,30000.2,71306.9)"
font-family="MS Shell Dlg 2" font-size="10.3125" font-weight="400" font-style="normal" 
>
<path vector-effect="non-scaling-stroke" fill-rule="evenodd" d="M-23225,34881.2 L-23224.9,34881.1 L-16026.4,34881.1 L-16026.3,34880.9 L-16026.3,646.209 L-16026.4,646.068 L-29999.9,646.068 L-30000,646.209 L-30000,71305.9 L-29999.9,71306.1 L-16026.4,71306.1 L-16026.3,71305.9 L-16026.3,56881.2 L-16026.2,56881.1 L16026.2,56881.1 L16026.3,56881.2 L16026.3,71305.9 L16026.4,71306.1 L29999.9,71306.1 L30000,71305.9 L30000,646.209 L29999.9,646.068 L16026.4,646.068 L16026.3,646.209 L16026.3,34880.9 L16026.4,34881.1 L23224.9,34881.1 L23225,34881.2 L23225,37311 L23224.9,37311.1 L16026.4,37311.1 L16026.3,37311.2 L16026.3,44071 L16026.2,44071.1 L10475,44071.1 L10467.4,44109.3 L10445.7,44141.8 L10413.3,44163.5 L10375,44171.1 L-10375,44171.1 L-10413.3,44163.5 L-10445.7,44141.8 L-10467.4,44109.3 L-10475,44071.1 L-16026.2,44071.1 L-16026.3,44071 L-16026.3,37311.2 L-16026.4,37311.1 L-23224.9,37311.1 L-23225,37311 L-23225,34881.2"/>
</g>

<g fill="none" stroke="#000000" stroke-opacity="1" stroke-width="1" stroke-linecap="square" stroke-linejoin="bevel" transform="matrix(0.999992,0,0,-0.999992,30000.2,71306.9)"
font-family="MS Shell Dlg 2" font-size="10.3125" font-weight="400" font-style="normal" 
>
</g>

<g fill="none" stroke="#000000" stroke-opacity="1" stroke-width="1" stroke-linecap="square" stroke-linejoin="bevel" transform="matrix(0.999992,0,0,-0.999992,30000.2,71306.9)"
font-family="MS Shell Dlg 2" font-size="10.3125" font-weight="400" font-style="normal" 
>
</g>

<g fill="#333333" fill-opacity="0.2" stroke="#333333" stroke-opacity="1" stroke-width="1" stroke-linecap="round" stroke-linejoin="round" transform="matrix(0.999992,0,0,-0.999992,30000.2,71306.9)"
font-family="MS Shell Dlg 2" font-size="10.3125" font-weight="400" font-style="normal" 
>
<path vector-effect="non-scaling-stroke" fill-rule="evenodd" d="M-16026.3,646.209 L-16026.4,646.068 L-29999.9,646.068 L-30000,646.209 L-30000,71305.9 L-29999.9,71306.1 L-16026.4,71306.1 L-16026.3,71305.9 L-16026.3,56881.2 L-16026.2,56881.1 L16026.2,56881.1 L16026.3,56881.2 L16026.3,71305.9 L16026.4,71306.1 L29999.9,71306.1 L30000,71305.9 L30000,646.209 L29999.9,646.068 L16026.4,646.068 L16026.3,646.209 L16026.3,12071 L16026.2,12071.1 L12071.2,12071.1 L12071.1,12071 L13660.3,-7886.71 L13660.2,-7886.79 L9330.15,-16160.2 L9330.09,-16160.3 L7500.05,-17216.8 L7500,-17216.9 L7500,-36499.9 L7499.96,-36500 L0.1,-43999.9 L-0.1,-43999.9 L-7499.96,-36500 L-7500,-36499.9 L-7500,-17216.9 L-7500.05,-17216.8 L-9330.09,-16160.3 L-9330.15,-16160.2 L-13660.2,-7886.79 L-13660.3,-7886.71 L-12071.1,12071 L-12071.2,12071.1 L-16026.2,12071.1 L-16026.3,12071 L-16026.3,646.209 M11375,34881.2 L11375.1,34881.1 L23224.9,34881.1 L23225,34881.2 L23225,37311 L23224.9,37311.1 L11375.1,37311.1 L11375,37311 L11375,34881.2 M13300,49736.2 L13300.1,49736.1 L21299.9,49736.1 L21300,49736.2 L21300,52736 L21299.9,52736.1 L13300.1,52736.1 L13300,52736 L13300,49736.2 M-10375,21821.2 L-10374.9,21821.1 L10374.9,21821.1 L10375,21821.2 L10375,37071 L10374.9,37071.1 L-10374.9,37071.1 L-10375,37071 L-10375,21821.2 M-23225,34881.2 L-23224.9,34881.1 L-11375.1,34881.1 L-11375,34881.2 L-11375,37311 L-11375.1,37311.1 L-23224.9,37311.1 L-23225,37311 L-23225,34881.2 M-21300,49736.2 L-21299.9,49736.1 L-13300.1,49736.1 L-13300,49736.2 L-13300,52736 L-13300.1,52736.1 L-21299.9,52736.1 L-21300,52736 L-21300,49736.2 M-5100,-2886.75 L-5100,-7113.25 L-5097.45,-7126.08 L-5096.59,-7139.13 L-5093.67,-7145.05 L-5092.39,-7151.52 L-5085.12,-7162.39 L-5079.34,-7174.12 L-5074.38,-7178.47 L-5070.71,-7183.96 L-5059.83,-7191.23 L-5050,-7199.85 L-4380.13,-7586.6 L-50,-10086.6 L-37.6136,-10090.8 L-25.8819,-10096.6 L-19.2993,-10097 L-13.0526,-10099.1 L-5.32907e-15,-10098.3 L13.0526,-10099.1 L19.2993,-10097 L25.8819,-10096.6 L37.6136,-10090.8 L50,-10086.6 L4380.13,-7586.6 L5050,-7199.85 L5059.83,-7191.23 L5070.71,-7183.96 L5074.38,-7178.47 L5079.34,-7174.12 L5085.12,-7162.39 L5092.39,-7151.52 L5093.67,-7145.05 L5096.59,-7139.13 L5097.45,-7126.08 L5100,-7113.25 L5100,-2886.75 L5100,5000 L5092.39,5038.27 L5070.71,5070.71 L5038.27,5092.39 L5000,5100 L4961.73,5092.39 L4929.29,5070.71 L4907.61,5038.27 L4900,5000 L4900,-2886.75 L4900,-7055.51 L4280.13,-7413.4 L-6.75016e-14,-9884.53 L-4280.13,-7413.4 L-4900,-7055.51 L-4900,-2886.75 L-4900,5000 L-4907.61,5038.27 L-4929.29,5070.71 L-4961.73,5092.39 L-5000,5100 L-5038.27,5092.39 L-5070.71,5070.71 L-5092.39,5038.27 L-5100,5000 L-5100,-2886.75"/>
</g>

<g fill="none" stroke="#000000" stroke-opacity="1" stroke-width="1" stroke-linecap="square" stroke-linejoin="bevel" transform="matrix(0.999992,0,0,-0.999992,30000.2,71306.9)"
font-family="MS Shell Dlg 2" font-size="10.3125" font-weight="400" font-style="normal" 
>
</g>

<g fill="none" stroke="#000000" stroke-opacity="1" stroke-width="1" stroke-linecap="square" stroke-linejoin="bevel" transform="matrix(0.999992,0,0,-0.999992,30000.2,71306.9)"
font-family="MS Shell Dlg 2" font-size="10.3125" font-weight="400" font-style="normal" 
>
</g>

<g fill="#ae5151" fill-opacity="0.2" stroke="#333333" stroke-opacity="1" stroke-width="1" stroke-linecap="round" stroke-linejoin="round" transform="matrix(0.999992,0,0,-0.999992,30000.2,71306.9)"
font-family="MS Shell Dlg 2" font-size="10.3125" font-weight="400" font-style="normal" 
>
<path vector-effect="non-scaling-stroke" fill-rule="evenodd" d="M-16026.3,646.209 L-16026.4,646.068 L-29999.9,646.068 L-30000,646.209 L-30000,71305.9 L-29999.9,71306.1 L-16026.4,71306.1 L-16026.3,71305.9 L-16026.3,56881.2 L-16026.2,56881.1 L16026.2,56881.1 L16026.3,56881.2 L16026.3,71305.9 L16026.4,71306.1 L29999.9,71306.1 L30000,71305.9 L30000,646.209 L29999.9,646.068 L16026.4,646.068 L16026.3,646.209 L16026.3,12071 L16026.2,12071.1 L12071.2,12071.1 L12071.1,12071 L13660.3,-7886.71 L13660.2,-7886.79 L9330.15,-16160.2 L9330.09,-16160.3 L7500.05,-17216.8 L7500,-17216.9 L7500,-36499.9 L7499.96,-36500 L0.1,-43999.9 L-0.1,-43999.9 L-7499.96,-36500 L-7500,-36499.9 L-7500,-17216.9 L-7500.05,-17216.8 L-9330.09,-16160.3 L-9330.15,-16160.2 L-13660.2,-7886.79 L-13660.3,-7886.71 L-12071.1,12071 L-12071.2,12071.1 L-16026.2,12071.1 L-16026.3,12071 L-16026.3,646.209 M11375,34881.2 L11375.1,34881.1 L23224.9,34881.1 L23225,34881.2 L23225,37311 L23224.9,37311.1 L11375.1,37311.1 L11375,37311 L11375,34881.2 M13300,49736.2 L13300.1,49736.1 L21299.9,49736.1 L21300,49736.2 L21300,52736 L21299.9,52736.1 L13300.1,52736.1 L13300,52736 L13300,49736.2 M-10375,21821.2 L-10374.9,21821.1 L10374.9,21821.1 L10375,21821.2 L10375,37071 L10374.9,37071.1 L-10374.9,37071.1 L-10375,37071 L-10375,21821.2 M-23225,34881.2 L-23224.9,34881.1 L-11375.1,34881.1 L-11375,34881.2 L-11375,37311 L-11375.1,37311.1 L-23224.9,37311.1 L-23225,37311 L-23225,34881.2 M-21300,49736.2 L-21299.9,49736.1 L-13300.1,49736.1 L-13300,49736.2 L-13300,52736 L-13300.1,52736.1 L-21299.9,52736.1 L-21300,52736 L-21300,49736.2 M-5100,-2886.75 L-5100,-7113.25 L-5097.45,-7126.08 L-5096.59,-7139.13 L-5093.67,-7145.05 L-5092.39,-7151.52 L-5085.12,-7162.39 L-5079.34,-7174.12 L-5074.38,-7178.47 L-5070.71,-7183.96 L-5059.83,-7191.23 L-5050,-7199.85 L-4380.13,-7586.6 L-50,-10086.6 L-37.6136,-10090.8 L-25.8819,-10096.6 L-19.2993,-10097 L-13.0526,-10099.1 L-5.32907e-15,-10098.3 L13.0526,-10099.1 L19.2993,-10097 L25.8819,-10096.6 L37.6136,-10090.8 L50,-10086.6 L4380.13,-7586.6 L5050,-7199.85 L5059.83,-7191.23 L5070.71,-7183.96 L5074.38,-7178.47 L5079.34,-7174.12 L5085.12,-7162.39 L5092.39,-7151.52 L5093.67,-7145.05 L5096.59,-7139.13 L5097.45,-7126.08 L5100,-7113.25 L5100,-2886.75 L5100,5000 L5092.39,5038.27 L5070.71,5070.71 L5038.27,5092.39 L5000,5100 L4961.73,5092.39 L4929.29,5070.71 L4907.61,5038.27 L4900,5000 L4900,-2886.75 L4900,-7055.51 L4280.13,-7413.4 L-6.75016e-14,-9884.53 L-4280.13,-7413.4 L-4900,-7055.51 L-4900,-2886.75 L-4900,5000 L-4907.61,5038.27 L-4929.29,5070.71 L-4961.73,5092.39 L-5000,5100 L-5038.27,5092.39 L-5070.71,5070.71 L-5092.39,5038.27 L-5100,5000 L-5100,-2886.75"/>
</g>

<g fill="none" stroke="#000000" stroke-opacity="1" stroke-width="1" stroke-linecap="square" stroke-linejoin="bevel" transform="matrix(0.999992,0,0,-0.999992,30000.2,71306.9)"
font-family="MS Shell Dlg 2" font-size="10.3125" font-weight="400" font-style="normal" 
>
</g>

<g fill="none" stroke="#000000" stroke-opacity="1" stroke-width="1" stroke-linecap="square" stroke-linejoin="bevel" transform="matrix(0.999992,0,0,-0.999992,30000.2,71306.9)"
font-family="MS Shell Dlg 2" font-size="10.3125" font-weight="400" font-style="normal" 
>
</g>

<g fill="#ffff00" fill-opacity="0.2" stroke="#333333" stroke-opacity="1" stroke-width="1" stroke-linecap="round" stroke-linejoin="round" transform="matrix(0.999992,0,0,-0.999992,30000.2,71306.9)"
font-family="MS Shell Dlg 2" font-size="10.3125" font-weight="400" font-style="normal" 
>
<path vector-effect="non-scaling-stroke" fill-rule="evenodd" d="M-16026.3,646.209 L-16026.4,646.068 L-29999.9,646.068 L-30000,646.209 L-30000,71305.9 L-29999.9,71306.1 L-16026.4,71306.1 L-16026.3,71305.9 L-16026.3,56881.2 L-16026.2,56881.1 L16026.2,56881.1 L16026.3,56881.2 L16026.3,71305.9 L16026.4,71306.1 L29999.9,71306.1 L30000,71305.9 L30000,646.209 L29999.9,646.068 L16026.4,646.068 L16026.3,646.209 L16026.3,12071 L16026.2,12071.1 L12071.2,12071.1 L12071.1,12071 L13660.3,-7886.71 L13660.2,-7886.79 L9330.15,-16160.2 L9330.09,-16160.3 L7500.05,-17216.8 L7500,-17216.9 L7500,-36499.9 L7499.96,-36500 L0.1,-43999.9 L-0.1,-43999.9 L-7499.96,-36500 L-7500,-36499.9 L-7500,-17216.9 L-7500.05,-17216.8 L-9330.09,-16160.3 L-9330.15,-16160.2 L-13660.2,-7886.79 L-13660.3,-7886.71 L-12071.1,12071 L-12071.2,12071.1 L-16026.2,12071.1 L-16026.3,12071 L-16026.3,646.209 M11375,34881.2 L11375.1,34881.1 L23224.9,34881.1 L23225,34881.2 L23225,37311 L23224.9,37311.1 L11375.1,37311.1 L11375,37311 L11375,34881.2 M13300,49736.2 L13300.1,49736.1 L21299.9,49736.1 L21300,49736.2 L21300,52736 L21299.9,52736.1 L13300.1,52736.1 L13300,52736 L13300,49736.2 M-10375,21821.2 L-10374.9,21821.1 L10374.9,21821.1 L10375,21821.2 L10375,37071 L10374.9,37071.1 L-10374.9,37071.1 L-10375,37071 L-10375,21821.2 M-23225,34881.2 L-23224.9,34881.1 L-11375.1,34881.1 L-11375,34881.2 L-11375,37311 L-11375.1,37311.1 L-23224.9,37311.1 L-23225,37311 L-23225,34881.2 M-21300,49736.2 L-21299.9,49736.1 L-13300.1,49736.1 L-13300,49736.2 L-13300,52736 L-13300.1,52736.1 L-21299.9,52736.1 L-21300,52736 L-21300,49736.2 M-5100,-2886.75 L-5100,-7113.25 L-5097.45,-7126.08 L-5096.59,-7139.13 L-5093.67,-7145.05 L-5092.39,-7151.52 L-5085.12,-7162.39 L-5079.34,-7174.12 L-5074.38,-7178.47 L-5070.71,-7183.96 L-5059.83,-7191.23 L-5050,-7199.85 L-4380.13,-7586.6 L-50,-10086.6 L-37.6136,-10090.8 L-25.8819,-10096.6 L-19.2993,-10097 L-13.0526,-10099.1 L-5.32907e-15,-10098.3 L13.0526,-10099.1 L19.2993,-10097 L25.8819,-10096.6 L37.6136,-10090.8 L50,-10086.6 L4380.13,-7586.6 L5050,-7199.85 L5059.83,-7191.23 L5070.71,-7183.96 L5074.38,-7178.47 L5079.34,-7174.12 L5085.12,-7162.39 L5092.39,-7151.52 L5093.67,-7145.05 L5096.59,-7139.13 L5097.45,-7126.08 L5100,-7113.25 L5100,-2886.75 L5100,5000 L5092.39,5038.27 L5070.71,5070.71 L5038.27,5092.39 L5000,5100 L4961.73,5092.39 L4929.29,5070.71 L4907.61,5038.27 L4900,5000 L4900,-2886.75 L4900,-7055.51 L4280.13,-7413.4 L-6.75016e-14,-9884.53 L-4280.13,-7413.4 L-4900,-7055.51 L-4900,-2886.75 L-4900,5000 L-4907.61,5038.27 L-4929.29,5070.71 L-4961.73,5092.39 L-5000,5100 L-5038.27,5092.39 L-5070.71,5070.71 L-5092.39,5038.27 L-5100,5000 L-5100,-2886.75"/>
</g>

<g fill="none" stroke="#000000" stroke-opacity="1" stroke-width="1" stroke-linecap="square" stroke-linejoin="bevel" transform="matrix(0.999992,0,0,-0.999992,30000.2,71306.9)"
font-family="MS Shell Dlg 2" font-size="10.3125" font-weight="400" font-style="normal" 
>
</g>

<g fill="none" stroke="#000000" stroke-opacity="1" stroke-width="1" stroke-linecap="square" stroke-linejoin="bevel" transform="matrix(0.999992,0,0,-0.999992,30000.2,71306.9)"
font-family="MS Shell Dlg 2" font-size="10.3125" font-weight="400" font-style="normal" 
>
</g>

<g fill="#ae5151" fill-opacity="0.2" stroke="#333333" stroke-opacity="1" stroke-width="1" stroke-linecap="round" stroke-linejoin="round" transform="matrix(0.999992,0,0,-0.999992,30000.2,71306.9)"
font-family="MS Shell Dlg 2" font-size="10.3125" font-weight="400" font-style="normal" 
>
<path vector-effect="non-scaling-stroke" fill-rule="evenodd" d="M-16026.3,646.209 L-16026.4,646.068 L-29999.9,646.068 L-30000,646.209 L-30000,71305.9 L-29999.9,71306.1 L-16026.4,71306.1 L-16026.3,71305.9 L-16026.3,56881.2 L-16026.2,56881.1 L16026.2,56881.1 L16026.3,56881.2 L16026.3,71305.9 L16026.4,71306.1 L29999.9,71306.1 L30000,71305.9 L30000,646.209 L29999.9,646.068 L16026.4,646.068 L16026.3,646.209 L16026.3,12071 L16026.2,12071.1 L12071.2,12071.1 L12071.1,12071 L13660.3,-7886.71 L13660.2,-7886.79 L9330.15,-16160.2 L9330.09,-16160.3 L7500.05,-17216.8 L7500,-17216.9 L7500,-36499.9 L7499.96,-36500 L0.1,-43999.9 L-0.1,-43999.9 L-7499.96,-36500 L-7500,-36499.9 L-7500,-17216.9 L-7500.05,-17216.8 L-9330.09,-16160.3 L-9330.15,-16160.2 L-13660.2,-7886.79 L-13660.3,-7886.71 L-12071.1,12071 L-12071.2,12071.1 L-16026.2,12071.1 L-16026.3,12071 L-16026.3,646.209 M11375,34881.2 L11375.1,34881.1 L23224.9,34881.1 L23225,34881.2 L23225,37311 L23224.9,37311.1 L11375.1,37311.1 L11375,37311 L11375,34881.2 M13300,49736.2 L13300.1,49736.1 L21299.9,49736.1 L21300,49736.2 L21300,52736 L21299.9,52736.1 L13300.1,52736.1 L13300,52736 L13300,49736.2 M-10375,21821.2 L-10374.9,21821.1 L10374.9,21821.1 L10375,21821.2 L10375,37071 L10374.9,37071.1 L-10374.9,37071.1 L-10375,37071 L-10375,21821.2 M-23225,34881.2 L-23224.9,34881.1 L-11375.1,34881.1 L-11375,34881.2 L-11375,37311 L-11375.1,37311.1 L-23224.9,37311.1 L-23225,37311 L-23225,34881.2 M-21300,49736.2 L-21299.9,49736.1 L-13300.1,49736.1 L-13300,49736.2 L-13300,52736 L-13300.1,52736.1 L-21299.9,52736.1 L-21300,52736 L-21300,49736.2 M-5100,-2886.75 L-5100,-7113.25 L-5097.45,-7126.08 L-5096.59,-7139.13 L-5093.67,-7145.05 L-5092.39,-7151.52 L-5085.12,-7162.39 L-5079.34,-7174.12 L-5074.38,-7178.47 L-5070.71,-7183.96 L-5059.83,-7191.23 L-5050,-7199.85 L-4380.13,-7586.6 L-50,-10086.6 L-37.6136,-10090.8 L-25.8819,-10096.6 L-19.2993,-10097 L-13.0526,-10099.1 L-5.32907e-15,-10098.3 L13.0526,-10099.1 L19.2993,-10097 L25.8819,-10096.6 L37.6136,-10090.8 L50,-10086.6 L4380.13,-7586.6 L5050,-7199.85 L5059.83,-7191.23 L5070.71,-7183.96 L5074.38,-7178.47 L5079.34,-7174.12 L5085.12,-7162.39 L5092.39,-7151.52 L5093.67,-7145.05 L5096.59,-7139.13 L5097.45,-7126.08 L5100,-7113.25 L5100,-2886.75 L5100,5000 L5092.39,5038.27 L5070.71,5070.71 L5038.27,5092.39 L5000,5100 L4961.73,5092.39 L4929.29,5070.71 L4907.61,5038.27 L4900,5000 L4900,-2886.75 L4900,-7055.51 L4280.13,-7413.4 L-6.75016e-14,-9884.53 L-4280.13,-7413.4 L-4900,-7055.51 L-4900,-2886.75 L-4900,5000 L-4907.61,5038.27 L-4929.29,5070.71 L-4961.73,5092.39 L-5000,5100 L-5038.27,5092.39 L-5070.71,5070.71 L-5092.39,5038.27 L-5100,5000 L-5100,-2886.75"/>
</g>

<g fill="none" stroke="#000000" stroke-opacity="1" stroke-width="1" stroke-linecap="square" stroke-linejoin="bevel" transform="matrix(0.999992,0,0,-0.999992,30000.2,71306.9)"
font-family="MS Shell Dlg 2" font-size="10.3125" font-weight="400" font-style="normal" 
>
</g>

<g fill="none" stroke="#000000" stroke-opacity="1" stroke-width="1" stroke-linecap="square" stroke-linejoin="bevel" transform="matrix(0.999992,0,0,-0.999992,30000.2,71306.9)"
font-family="MS Shell Dlg 2" font-size="10.3125" font-weight="400" font-style="normal" 
>
</g>

<g fill="#333333" fill-opacity="0.2" stroke="#333333" stroke-opacity="1" stroke-width="1" stroke-linecap="round" stroke-linejoin="round" transform="matrix(0.999992,0,0,-0.999992,30000.2,71306.9)"
font-family="MS Shell Dlg 2" font-size="10.3125" font-weight="400" font-style="normal" 
>
<path vector-effect="non-scaling-stroke" fill-rule="evenodd" d="M-16026.3,646.209 L-16026.4,646.068 L-29999.9,646.068 L-30000,646.209 L-30000,71305.9 L-29999.9,71306.1 L-16026.4,71306.1 L-16026.3,71305.9 L-16026.3,56881.2 L-16026.2,56881.1 L16026.2,56881.1 L16026.3,56881.2 L16026.3,71305.9 L16026.4,71306.1 L29999.9,71306.1 L30000,71305.9 L30000,646.209 L29999.9,646.068 L16026.4,646.068 L16026.3,646.209 L16026.3,12071 L16026.2,12071.1 L12071.2,12071.1 L12071.1,12071 L13660.3,-7886.71 L13660.2,-7886.79 L9330.15,-16160.2 L9330.09,-16160.3 L7500.05,-17216.8 L7500,-17216.9 L7500,-36499.9 L7499.96,-36500 L0.1,-43999.9 L-0.1,-43999.9 L-7499.96,-36500 L-7500,-36499.9 L-7500,-17216.9 L-7500.05,-17216.8 L-9330.09,-16160.3 L-9330.15,-16160.2 L-13660.2,-7886.79 L-13660.3,-7886.71 L-12071.1,12071 L-12071.2,12071.1 L-16026.2,12071.1 L-16026.3,12071 L-16026.3,646.209 M11375,34881.2 L11375.1,34881.1 L23224.9,34881.1 L23225,34881.2 L23225,37311 L23224.9,37311.1 L11375.1,37311.1 L11375,37311 L11375,34881.2 M13300,49736.2 L13300.1,49736.1 L21299.9,49736.1 L21300,49736.2 L21300,52736 L21299.9,52736.1 L13300.1,52736.1 L13300,52736 L13300,49736.2 M-10375,21821.2 L-10374.9,21821.1 L10374.9,21821.1 L10375,21821.2 L10375,37071 L10374.9,37071.1 L-10374.9,37071.1 L-10375,37071 L-10375,21821.2 M-23225,34881.2 L-23224.9,34881.1 L-11375.1,34881.1 L-11375,34881.2 L-11375,37311 L-11375.1,37311.1 L-23224.9,37311.1 L-23225,37311 L-23225,34881.2 M-21300,49736.2 L-21299.9,49736.1 L-13300.1,49736.1 L-13300,49736.2 L-13300,52736 L-13300.1,52736.1 L-21299.9,52736.1 L-21300,52736 L-21300,49736.2 M-5100,-2886.75 L-5100,-7113.25 L-5097.45,-7126.08 L-5096.59,-7139.13 L-5093.67,-7145.05 L-5092.39,-7151.52 L-5085.12,-7162.39 L-5079.34,-7174.12 L-5074.38,-7178.47 L-5070.71,-7183.96 L-5059.83,-7191.23 L-5050,-7199.85 L-4380.13,-7586.6 L-50,-10086.6 L-37.6136,-10090.8 L-25.8819,-10096.6 L-19.2993,-10097 L-13.0526,-10099.1 L-5.32907e-15,-10098.3 L13.0526,-10099.1 L19.2993,-10097 L25.8819,-10096.6 L37.6136,-10090.8 L50,-10086.6 L4380.13,-7586.6 L5050,-7199.85 L5059.83,-7191.23 L5070.71,-7183.96 L5074.38,-7178.47 L5079.34,-7174.12 L5085.12,-7162.39 L5092.39,-7151.52 L5093.67,-7145.05 L5096.59,-7139.13 L5097.45,-7126.08 L5100,-7113.25 L5100,-2886.75 L5100,5000 L5092.39,5038.27 L5070.71,5070.71 L5038.27,5092.39 L5000,5100 L4961.73,5092.39 L4929.29,5070.71 L4907.61,5038.27 L4900,5000 L4900,-2886.75 L4900,-7055.51 L4280.13,-7413.4 L-6.75016e-14,-9884.53 L-4280.13,-7413.4 L-4900,-7055.51 L-4900,-2886.75 L-4900,5000 L-4907.61,5038.27 L-4929.29,5070.71 L-4961.73,5092.39 L-5000,5100 L-5038.27,5092.39 L-5070.71,5070.71 L-5092.39,5038.27 L-5100,5000 L-5100,-2886.75"/>
</g>

<g fill="none" stroke="#000000" stroke-opacity="1" stroke-width="1" stroke-linecap="square" stroke-linejoin="bevel" transform="matrix(0.999992,0,0,-0.999992,30000.2,71306.9)"
font-family="MS Shell Dlg 2" font-size="10.3125" font-weight="400" font-style="normal" 
>
</g>

<g fill="none" stroke="#000000" stroke-opacity="1" stroke-width="1" stroke-linecap="square" stroke-linejoin="bevel" transform="matrix(1,0,0,-1,0,115307)"
font-family="MS Shell Dlg 2" font-size="10.3125" font-weight="400" font-style="normal" 
>
</g>
</g>
</svg>
