<?xml version="1.0" encoding="UTF-8" standalone="no"?>
<svg width="16933.6mm" height="32541.9mm"
 xmlns="http://www.w3.org/2000/svg" xmlns:xlink="http://www.w3.org/1999/xlink"  version="1.2" baseProfile="tiny">
<title>SVG Generator Example Drawing</title>
<desc>An SVG drawing created by the SVG Generator</desc>
<defs>
</defs>
<g fill="none" stroke="black" stroke-width="1" fill-rule="evenodd" stroke-linecap="square" stroke-linejoin="bevel" >

<g fill="none" stroke="#000000" stroke-opacity="1" stroke-width="1" stroke-linecap="square" stroke-linejoin="bevel" transform="matrix(1,0,0,-1,0,115307)"
font-family="MS Shell Dlg 2" font-size="10.3125" font-weight="400" font-style="normal" 
>
</g>

<g fill="none" stroke="#000000" stroke-opacity="1" stroke-width="1" stroke-linecap="square" stroke-linejoin="bevel" transform="matrix(1,0,0,-1,0,115307)"
font-family="MS Shell Dlg 2" font-size="10.3125" font-weight="400" font-style="normal" 
>
</g>

<g fill="none" stroke="#000000" stroke-opacity="1" stroke-width="1" stroke-linecap="square" stroke-linejoin="bevel" transform="matrix(0.999992,0,0,-0.999992,30000.2,71306.9)"
font-family="MS Shell Dlg 2" font-size="10.3125" font-weight="400" font-style="normal" 
>
</g>

<g fill="#ae5151" fill-opacity="0.2" stroke="#333333" stroke-opacity="1" stroke-width="1" stroke-linecap="round" stroke-linejoin="round" transform="matrix(0.999992,0,0,-0.999992,30000.2,71306.9)"
font-family="MS Shell Dlg 2" font-size="10.3125" font-weight="400" font-style="normal" 
>
<path vector-effect="non-scaling-stroke" fill-rule="evenodd" d="M3007.97,-31025.1 L3008,-31025 L4999.97,-31025 L5000,-31025.1 L5000,-31500 L5000,-31524.9 L5000,-38999.9 L4999.96,-39000 L0.1,-43999.9 L-0.1,-43999.9 L-4999.96,-39000 L-5000,-38999.9 L-5000,-31524.9 L-5000,-31500 L-5000,-31025.1 L-4999.97,-31025 L-3008,-31025 L-3007.97,-31025.1 L-3007.97,-31500 L3007.97,-31500 L3007.97,-31025.1"/>
</g>

<g fill="none" stroke="#000000" stroke-opacity="1" stroke-width="1" stroke-linecap="square" stroke-linejoin="bevel" transform="matrix(0.999992,0,0,-0.999992,30000.2,71306.9)"
font-family="MS Shell Dlg 2" font-size="10.3125" font-weight="400" font-style="normal" 
>
</g>

<g fill="none" stroke="#000000" stroke-opacity="1" stroke-width="1" stroke-linecap="square" stroke-linejoin="bevel" transform="matrix(0.999992,0,0,-0.999992,30000.2,71306.9)"
font-family="MS Shell Dlg 2" font-size="10.3125" font-weight="400" font-style="normal" 
>
</g>

<g fill="#ae5151" fill-opacity="0.2" stroke="#333333" stroke-opacity="1" stroke-width="1" stroke-linecap="round" stroke-linejoin="round" transform="matrix(0.999992,0,0,-0.999992,30000.2,71306.9)"
font-family="MS Shell Dlg 2" font-size="10.3125" font-weight="400" font-style="normal" 
>
<path vector-effect="non-scaling-stroke" fill-rule="evenodd" d="M5866.03,-20160.3 L5518.3,-20508 L5239.45,-20025 L6001.28,-20025 L5866.03,-20160.3"/>
</g>

<g fill="none" stroke="#000000" stroke-opacity="1" stroke-width="1" stroke-linecap="square" stroke-linejoin="bevel" transform="matrix(0.999992,0,0,-0.999992,30000.2,71306.9)"
font-family="MS Shell Dlg 2" font-size="10.3125" font-weight="400" font-style="normal" 
>
</g>

<g fill="none" stroke="#000000" stroke-opacity="1" stroke-width="1" stroke-linecap="square" stroke-linejoin="bevel" transform="matrix(0.999992,0,0,-0.999992,30000.2,71306.9)"
font-family="MS Shell Dlg 2" font-size="10.3125" font-weight="400" font-style="normal" 
>
</g>

<g fill="#ae5151" fill-opacity="0.2" stroke="#333333" stroke-opacity="1" stroke-width="1" stroke-linecap="round" stroke-linejoin="round" transform="matrix(0.999992,0,0,-0.999992,30000.2,71306.9)"
font-family="MS Shell Dlg 2" font-size="10.3125" font-weight="400" font-style="normal" 
>
<path vector-effect="non-scaling-stroke" fill-rule="evenodd" d="M-5787.94,-20025 L-5866.03,-20160.3 L-6001.28,-20025 L-5787.94,-20025"/>
</g>

<g fill="none" stroke="#000000" stroke-opacity="1" stroke-width="1" stroke-linecap="square" stroke-linejoin="bevel" transform="matrix(0.999992,0,0,-0.999992,30000.2,71306.9)"
font-family="MS Shell Dlg 2" font-size="10.3125" font-weight="400" font-style="normal" 
>
</g>

<g fill="none" stroke="#000000" stroke-opacity="1" stroke-width="1" stroke-linecap="square" stroke-linejoin="bevel" transform="matrix(0.999992,0,0,-0.999992,30000.2,71306.9)"
font-family="MS Shell Dlg 2" font-size="10.3125" font-weight="400" font-style="normal" 
>
</g>

<g fill="#ae5151" fill-opacity="0.2" stroke="#333333" stroke-opacity="1" stroke-width="1" stroke-linecap="round" stroke-linejoin="round" transform="matrix(0.999992,0,0,-0.999992,30000.2,71306.9)"
font-family="MS Shell Dlg 2" font-size="10.3125" font-weight="400" font-style="normal" 
>
<path vector-effect="non-scaling-stroke" fill-rule="evenodd" d="M-996.016,-30974.9 L-996.044,-30975 L-2988.02,-30975 L-2988.05,-30974.9 L-2988.05,-30500 L-5000,-30500 L-5000,-20815 L-5000.05,-20814.9 L-5066.99,-20776.3 L-5478.29,-20538.8 L-5478.34,-20538.8 L-5181.72,-20025 L-4511.99,-20025 L-4511.95,-20025.1 L-4511.95,-20500 L4511.95,-20500 L4511.95,-20025.1 L4511.99,-20025 L4633.24,-20025 L5066.99,-20776.3 L5000.05,-20814.9 L5000,-20815 L5000,-30500 L2988.05,-30500 L2988.05,-30974.9 L2988.02,-30975 L996.044,-30975 L996.016,-30974.9 L996.016,-30500 L-996.016,-30500 L-996.016,-30974.9"/>
</g>

<g fill="none" stroke="#000000" stroke-opacity="1" stroke-width="1" stroke-linecap="square" stroke-linejoin="bevel" transform="matrix(0.999992,0,0,-0.999992,30000.2,71306.9)"
font-family="MS Shell Dlg 2" font-size="10.3125" font-weight="400" font-style="normal" 
>
</g>

<g fill="none" stroke="#000000" stroke-opacity="1" stroke-width="1" stroke-linecap="square" stroke-linejoin="bevel" transform="matrix(0.999992,0,0,-0.999992,30000.2,71306.9)"
font-family="MS Shell Dlg 2" font-size="10.3125" font-weight="400" font-style="normal" 
>
</g>

<g fill="#ae5151" fill-opacity="0.2" stroke="#333333" stroke-opacity="1" stroke-width="1" stroke-linecap="round" stroke-linejoin="round" transform="matrix(0.999992,0,0,-0.999992,30000.2,71306.9)"
font-family="MS Shell Dlg 2" font-size="10.3125" font-weight="400" font-style="normal" 
>
<path vector-effect="non-scaling-stroke" fill-rule="evenodd" d="M-3719.49,-17392.2 L-3719.44,-17392.3 L-4616.04,-18945.2 L-4616.12,-18945.2 L-5027.42,-18707.7 L-5484.83,-19500 L-6526.28,-19500 L-7500,-18526.3 L-7500,-17216.9 L-7500.05,-17216.8 L-8077.81,-16883.3 L-8055.1,-16792.6 L-8033.5,-16647 L-8026.28,-16500 L-8033.5,-16353 L-8052.29,-16226.3 L-6671.18,-15429 L-6908.64,-15017.7 L-6908.66,-15017.6 L-5614.19,-14270.2 L-5614.13,-14270.3 L-5376.67,-14681.6 L-4082.16,-13934.2 L-4319.62,-13522.9 L-4319.64,-13522.8 L-3025.17,-12775.4 L-3025.12,-12775.5 L-2787.65,-13186.8 L-1426.33,-12400.8 L-1414.21,-12414.2 L-1400.84,-12426.3 L-2337.54,-14048.7 L-1926.23,-14286.2 L-1926.19,-14286.3 L-2822.79,-15839.2 L-2822.86,-15839.2 L-3234.16,-15601.7 L-4130.79,-17154.7 L-3719.49,-17392.2"/>
</g>

<g fill="none" stroke="#000000" stroke-opacity="1" stroke-width="1" stroke-linecap="square" stroke-linejoin="bevel" transform="matrix(0.999992,0,0,-0.999992,30000.2,71306.9)"
font-family="MS Shell Dlg 2" font-size="10.3125" font-weight="400" font-style="normal" 
>
</g>

<g fill="none" stroke="#000000" stroke-opacity="1" stroke-width="1" stroke-linecap="square" stroke-linejoin="bevel" transform="matrix(0.999992,0,0,-0.999992,30000.2,71306.9)"
font-family="MS Shell Dlg 2" font-size="10.3125" font-weight="400" font-style="normal" 
>
</g>

<g fill="#ae5151" fill-opacity="0.2" stroke="#333333" stroke-opacity="1" stroke-width="1" stroke-linecap="round" stroke-linejoin="round" transform="matrix(0.999992,0,0,-0.999992,30000.2,71306.9)"
font-family="MS Shell Dlg 2" font-size="10.3125" font-weight="400" font-style="normal" 
>
<path vector-effect="non-scaling-stroke" fill-rule="evenodd" d="M8720.73,-14211.9 L8846.13,-15164.4 L8819.18,-15177.1 L8798.53,-15189.5 L8355.78,-14422.6 L8355.82,-14422.6 L8720.73,-14211.9"/>
</g>

<g fill="none" stroke="#000000" stroke-opacity="1" stroke-width="1" stroke-linecap="square" stroke-linejoin="bevel" transform="matrix(0.999992,0,0,-0.999992,30000.2,71306.9)"
font-family="MS Shell Dlg 2" font-size="10.3125" font-weight="400" font-style="normal" 
>
</g>

<g fill="none" stroke="#000000" stroke-opacity="1" stroke-width="1" stroke-linecap="square" stroke-linejoin="bevel" transform="matrix(0.999992,0,0,-0.999992,30000.2,71306.9)"
font-family="MS Shell Dlg 2" font-size="10.3125" font-weight="400" font-style="normal" 
>
</g>

<g fill="#ae5151" fill-opacity="0.2" stroke="#333333" stroke-opacity="1" stroke-width="1" stroke-linecap="round" stroke-linejoin="round" transform="matrix(0.999992,0,0,-0.999992,30000.2,71306.9)"
font-family="MS Shell Dlg 2" font-size="10.3125" font-weight="400" font-style="normal" 
>
<path vector-effect="non-scaling-stroke" fill-rule="evenodd" d="M-4878.61,-19500 L-4581.73,-18985.8 L-4581.66,-18985.8 L-4170.36,-19223.3 L-1462.54,-14533.2 L-1873.84,-14295.7 L-1873.89,-14295.7 L-977.483,-12743.1 L-942.793,-12763.8 L-930.948,-12769.4 L-565.916,-12980.2 L-534.318,-12925.5 L-390.181,-12961.6 L-196.034,-12990.4 L3.23109e-12,-13000 L196.034,-12990.4 L390.181,-12961.6 L534.318,-12925.5 L1471.51,-14548.7 L1882.81,-14311.3 L1882.89,-14311.3 L2779.49,-15864.2 L2779.44,-15864.3 L2368.14,-16101.7 L3264.77,-17654.7 L3676.07,-17417.3 L3676.14,-17417.3 L4572.74,-18970.2 L4572.69,-18970.3 L4161.39,-19207.7 L4482.07,-19763.2 L4482.07,-19974.9 L4482.03,-19975 L1494.07,-19975 L1494.02,-19974.9 L1494.02,-19500 L-1494.02,-19500 L-1494.02,-19974.9 L-1494.07,-19975 L-4482.03,-19975 L-4482.07,-19974.9 L-4482.07,-19500 L-4878.61,-19500"/>
</g>

<g fill="none" stroke="#000000" stroke-opacity="1" stroke-width="1" stroke-linecap="square" stroke-linejoin="bevel" transform="matrix(0.999992,0,0,-0.999992,30000.2,71306.9)"
font-family="MS Shell Dlg 2" font-size="10.3125" font-weight="400" font-style="normal" 
>
</g>

<g fill="none" stroke="#000000" stroke-opacity="1" stroke-width="1" stroke-linecap="square" stroke-linejoin="bevel" transform="matrix(0.999992,0,0,-0.999992,30000.2,71306.9)"
font-family="MS Shell Dlg 2" font-size="10.3125" font-weight="400" font-style="normal" 
>
</g>

<g fill="#ae5151" fill-opacity="0.2" stroke="#333333" stroke-opacity="1" stroke-width="1" stroke-linecap="round" stroke-linejoin="round" transform="matrix(0.999992,0,0,-0.999992,30000.2,71306.9)"
font-family="MS Shell Dlg 2" font-size="10.3125" font-weight="400" font-style="normal" 
>
<path vector-effect="non-scaling-stroke" fill-rule="evenodd" d="M4936.34,-19500 L4625.04,-18960.8 L4625.08,-18960.7 L5036.39,-18723.3 L2328.57,-14033.2 L1917.27,-14270.7 L1917.19,-14270.7 L1020.59,-12717.7 L1020.64,-12717.7 L1431.94,-12480.2 L1400.84,-12426.3 L1414.21,-12414.2 L1426.33,-12400.8 L2787.65,-13186.8 L3025.12,-12775.5 L3025.17,-12775.4 L4319.64,-13522.8 L4319.62,-13522.9 L4082.16,-13934.2 L5376.67,-14681.6 L5614.13,-14270.3 L5614.19,-14270.2 L6908.66,-15017.6 L6908.64,-15017.7 L6671.18,-15429 L8052.29,-16226.3 L8033.5,-16353 L8026.28,-16500 L8033.5,-16647 L8055.1,-16792.6 L8077.81,-16883.3 L7500.05,-17216.8 L7500,-17216.9 L7500,-18526.3 L6526.28,-19500 L4936.34,-19500"/>
</g>

<g fill="none" stroke="#000000" stroke-opacity="1" stroke-width="1" stroke-linecap="square" stroke-linejoin="bevel" transform="matrix(0.999992,0,0,-0.999992,30000.2,71306.9)"
font-family="MS Shell Dlg 2" font-size="10.3125" font-weight="400" font-style="normal" 
>
</g>

<g fill="none" stroke="#000000" stroke-opacity="1" stroke-width="1" stroke-linecap="square" stroke-linejoin="bevel" transform="matrix(0.999992,0,0,-0.999992,30000.2,71306.9)"
font-family="MS Shell Dlg 2" font-size="10.3125" font-weight="400" font-style="normal" 
>
</g>

<g fill="#ae5151" fill-opacity="0.2" stroke="#333333" stroke-opacity="1" stroke-width="1" stroke-linecap="round" stroke-linejoin="round" transform="matrix(0.999992,0,0,-0.999992,30000.2,71306.9)"
font-family="MS Shell Dlg 2" font-size="10.3125" font-weight="400" font-style="normal" 
>
<path vector-effect="non-scaling-stroke" fill-rule="evenodd" d="M-1232.38,-9403.95 L-1396.49,-9568.06 L-1396.55,-9568.09 L-2009.17,-8955.48 L-1232.38,-9403.95"/>
</g>

<g fill="none" stroke="#000000" stroke-opacity="1" stroke-width="1" stroke-linecap="square" stroke-linejoin="bevel" transform="matrix(0.999992,0,0,-0.999992,30000.2,71306.9)"
font-family="MS Shell Dlg 2" font-size="10.3125" font-weight="400" font-style="normal" 
>
</g>

<g fill="none" stroke="#000000" stroke-opacity="1" stroke-width="1" stroke-linecap="square" stroke-linejoin="bevel" transform="matrix(0.999992,0,0,-0.999992,30000.2,71306.9)"
font-family="MS Shell Dlg 2" font-size="10.3125" font-weight="400" font-style="normal" 
>
</g>

<g fill="#ae5151" fill-opacity="0.2" stroke="#333333" stroke-opacity="1" stroke-width="1" stroke-linecap="round" stroke-linejoin="round" transform="matrix(0.999992,0,0,-0.999992,30000.2,71306.9)"
font-family="MS Shell Dlg 2" font-size="10.3125" font-weight="400" font-style="normal" 
>
<path vector-effect="non-scaling-stroke" fill-rule="evenodd" d="M-3778.38,-7703.08 L-3555.37,-7480.08 L-3555.31,-7480.05 L-2722.88,-8312.47 L-3778.38,-7703.08"/>
</g>

<g fill="none" stroke="#000000" stroke-opacity="1" stroke-width="1" stroke-linecap="square" stroke-linejoin="bevel" transform="matrix(0.999992,0,0,-0.999992,30000.2,71306.9)"
font-family="MS Shell Dlg 2" font-size="10.3125" font-weight="400" font-style="normal" 
>
</g>

<g fill="none" stroke="#000000" stroke-opacity="1" stroke-width="1" stroke-linecap="square" stroke-linejoin="bevel" transform="matrix(0.999992,0,0,-0.999992,30000.2,71306.9)"
font-family="MS Shell Dlg 2" font-size="10.3125" font-weight="400" font-style="normal" 
>
</g>

<g fill="#ae5151" fill-opacity="0.2" stroke="#333333" stroke-opacity="1" stroke-width="1" stroke-linecap="round" stroke-linejoin="round" transform="matrix(0.999992,0,0,-0.999992,30000.2,71306.9)"
font-family="MS Shell Dlg 2" font-size="10.3125" font-weight="400" font-style="normal" 
>
<path vector-effect="non-scaling-stroke" fill-rule="evenodd" d="M8372.51,-15501.6 L8241.17,-15729.1 L8241.11,-15729.1 L6946.64,-14981.8 L6946.66,-14981.7 L7184.12,-14570.4 L3274.71,-12313.3 L3037.24,-12724.6 L3037.19,-12724.7 L1743.05,-11977.5 L1763.84,-11942.8 L1769.44,-11930.9 L1980.2,-11565.9 L1925.47,-11534.3 L1961.57,-11390.2 L1990.37,-11196 L2000,-11000 L1990.37,-10804 L1961.57,-10609.8 L1913.88,-10419.4 L1847.76,-10234.6 L1763.84,-10057.2 L1721.14,-9985.96 L1767.77,-9939.34 L1431.94,-9603.51 L1431.91,-9603.45 L2176.47,-8858.88 L2571.89,-8630.59 L2824.2,-8882.91 L3765.85,-7941.25 L3947.11,-7836.6 L4903.09,-9492.4 L5314.39,-9254.94 L5314.47,-9254.93 L6310.45,-10980 L6310.41,-10980.1 L5899.11,-11217.6 L6895.12,-12942.7 L7306.42,-12705.2 L7306.5,-12705.2 L8302.49,-14430.3 L8302.44,-14430.4 L7891.14,-14667.9 L8372.51,-15501.6"/>
</g>

<g fill="none" stroke="#000000" stroke-opacity="1" stroke-width="1" stroke-linecap="square" stroke-linejoin="bevel" transform="matrix(0.999992,0,0,-0.999992,30000.2,71306.9)"
font-family="MS Shell Dlg 2" font-size="10.3125" font-weight="400" font-style="normal" 
>
</g>

<g fill="none" stroke="#000000" stroke-opacity="1" stroke-width="1" stroke-linecap="square" stroke-linejoin="bevel" transform="matrix(0.999992,0,0,-0.999992,30000.2,71306.9)"
font-family="MS Shell Dlg 2" font-size="10.3125" font-weight="400" font-style="normal" 
>
</g>

<g fill="#ae5151" fill-opacity="0.2" stroke="#333333" stroke-opacity="1" stroke-width="1" stroke-linecap="round" stroke-linejoin="round" transform="matrix(0.999992,0,0,-0.999992,30000.2,71306.9)"
font-family="MS Shell Dlg 2" font-size="10.3125" font-weight="400" font-style="normal" 
>
<path vector-effect="non-scaling-stroke" fill-rule="evenodd" d="M-6946.66,-14981.7 L-6946.64,-14981.8 L-8241.11,-15729.1 L-8241.17,-15729.1 L-8478.63,-15317.8 L-8552.61,-15360.5 L-8574.69,-15340.5 L-8692.92,-15252.8 L-8755.64,-15215.2 L-8312.47,-14447.6 L-8312.4,-14447.6 L-7901.1,-14685.1 L-4893.13,-9475.15 L-5304.43,-9237.69 L-5304.48,-9237.63 L-4358.48,-7599.1 L-3947.11,-7836.6 L-2585.28,-8622.86 L-2834.77,-8872.34 L-1721.14,-9985.96 L-1763.84,-10057.2 L-1847.76,-10234.6 L-1913.88,-10419.4 L-1961.57,-10609.8 L-1990.37,-10804 L-2000,-11000 L-1990.37,-11196 L-1961.57,-11390.2 L-1925.47,-11534.3 L-1980.2,-11565.9 L-1769.44,-11930.9 L-1763.84,-11942.8 L-1743.05,-11977.5 L-3037.19,-12724.7 L-3037.24,-12724.6 L-3274.71,-12313.3 L-7184.12,-14570.4 L-6946.66,-14981.7"/>
</g>

<g fill="none" stroke="#000000" stroke-opacity="1" stroke-width="1" stroke-linecap="square" stroke-linejoin="bevel" transform="matrix(0.999992,0,0,-0.999992,30000.2,71306.9)"
font-family="MS Shell Dlg 2" font-size="10.3125" font-weight="400" font-style="normal" 
>
</g>

<g fill="none" stroke="#000000" stroke-opacity="1" stroke-width="1" stroke-linecap="square" stroke-linejoin="bevel" transform="matrix(0.999992,0,0,-0.999992,30000.2,71306.9)"
font-family="MS Shell Dlg 2" font-size="10.3125" font-weight="400" font-style="normal" 
>
</g>

<g fill="#ae5151" fill-opacity="0.2" stroke="#333333" stroke-opacity="1" stroke-width="1" stroke-linecap="round" stroke-linejoin="round" transform="matrix(0.999992,0,0,-0.999992,30000.2,71306.9)"
font-family="MS Shell Dlg 2" font-size="10.3125" font-weight="400" font-style="normal" 
>
<path vector-effect="non-scaling-stroke" fill-rule="evenodd" d="M-30000,3146.07 L-30000,3621 L-30000,3621.07 L-27216.4,3621.07 L-27216.4,3621.06 L-27216.4,3621 L-27216.4,3146.07 L-18809.9,3146.07 L-18809.9,3621 L-18809.8,3621.07 L-16026.3,3621.07 L-16026.3,3621 L-16026.3,3146.07 L-16026.3,3121.14 L-16026.3,646.209 L-16026.4,646.068 L-29999.9,646.068 L-30000,646.209 L-30000,3146.07"/>
</g>

<g fill="none" stroke="#000000" stroke-opacity="1" stroke-width="1" stroke-linecap="square" stroke-linejoin="bevel" transform="matrix(0.999992,0,0,-0.999992,30000.2,71306.9)"
font-family="MS Shell Dlg 2" font-size="10.3125" font-weight="400" font-style="normal" 
>
</g>

<g fill="none" stroke="#000000" stroke-opacity="1" stroke-width="1" stroke-linecap="square" stroke-linejoin="bevel" transform="matrix(0.999992,0,0,-0.999992,30000.2,71306.9)"
font-family="MS Shell Dlg 2" font-size="10.3125" font-weight="400" font-style="normal" 
>
</g>

<g fill="#ae5151" fill-opacity="0.2" stroke="#333333" stroke-opacity="1" stroke-width="1" stroke-linecap="round" stroke-linejoin="round" transform="matrix(0.999992,0,0,-0.999992,30000.2,71306.9)"
font-family="MS Shell Dlg 2" font-size="10.3125" font-weight="400" font-style="normal" 
>
<path vector-effect="non-scaling-stroke" fill-rule="evenodd" d="M27216.4,3621 L27216.4,3621.04 L27216.4,3621.07 L30000,3621.07 L30000,3621 L30000,3146.07 L30000,646.209 L29999.9,646.068 L16026.4,646.068 L16026.3,646.209 L16026.3,3121.14 L16026.3,3146.07 L16026.3,3621 L16026.3,3621.07 L18809.8,3621.07 L18809.9,3621 L18809.9,3146.07 L27216.4,3146.07 L27216.4,3621"/>
</g>

<g fill="none" stroke="#000000" stroke-opacity="1" stroke-width="1" stroke-linecap="square" stroke-linejoin="bevel" transform="matrix(0.999992,0,0,-0.999992,30000.2,71306.9)"
font-family="MS Shell Dlg 2" font-size="10.3125" font-weight="400" font-style="normal" 
>
</g>

<g fill="none" stroke="#000000" stroke-opacity="1" stroke-width="1" stroke-linecap="square" stroke-linejoin="bevel" transform="matrix(0.999992,0,0,-0.999992,30000.2,71306.9)"
font-family="MS Shell Dlg 2" font-size="10.3125" font-weight="400" font-style="normal" 
>
</g>

<g fill="#ae5151" fill-opacity="0.2" stroke="#333333" stroke-opacity="1" stroke-width="1" stroke-linecap="round" stroke-linejoin="round" transform="matrix(0.999992,0,0,-0.999992,30000.2,71306.9)"
font-family="MS Shell Dlg 2" font-size="10.3125" font-weight="400" font-style="normal" 
>
<path vector-effect="non-scaling-stroke" fill-rule="evenodd" d="M10125,9417.89 L10125,8278.17 L8985.28,8278.17 L10125,9417.89"/>
</g>

<g fill="none" stroke="#000000" stroke-opacity="1" stroke-width="1" stroke-linecap="square" stroke-linejoin="bevel" transform="matrix(0.999992,0,0,-0.999992,30000.2,71306.9)"
font-family="MS Shell Dlg 2" font-size="10.3125" font-weight="400" font-style="normal" 
>
</g>

<g fill="none" stroke="#000000" stroke-opacity="1" stroke-width="1" stroke-linecap="square" stroke-linejoin="bevel" transform="matrix(0.999992,0,0,-0.999992,30000.2,71306.9)"
font-family="MS Shell Dlg 2" font-size="10.3125" font-weight="400" font-style="normal" 
>
</g>

<g fill="#ae5151" fill-opacity="0.2" stroke="#333333" stroke-opacity="1" stroke-width="1" stroke-linecap="round" stroke-linejoin="round" transform="matrix(0.999992,0,0,-0.999992,30000.2,71306.9)"
font-family="MS Shell Dlg 2" font-size="10.3125" font-weight="400" font-style="normal" 
>
<path vector-effect="non-scaling-stroke" fill-rule="evenodd" d="M-8985.28,8278.17 L-10125,8278.17 L-10125,10089.6 L-9257.52,9222.17 L-9257.55,9222.1 L-9593.38,8886.27 L-8985.28,8278.17"/>
</g>

<g fill="none" stroke="#000000" stroke-opacity="1" stroke-width="1" stroke-linecap="square" stroke-linejoin="bevel" transform="matrix(0.999992,0,0,-0.999992,30000.2,71306.9)"
font-family="MS Shell Dlg 2" font-size="10.3125" font-weight="400" font-style="normal" 
>
</g>

<g fill="none" stroke="#000000" stroke-opacity="1" stroke-width="1" stroke-linecap="square" stroke-linejoin="bevel" transform="matrix(0.999992,0,0,-0.999992,30000.2,71306.9)"
font-family="MS Shell Dlg 2" font-size="10.3125" font-weight="400" font-style="normal" 
>
</g>

<g fill="#ae5151" fill-opacity="0.2" stroke="#333333" stroke-opacity="1" stroke-width="1" stroke-linecap="round" stroke-linejoin="round" transform="matrix(0.999992,0,0,-0.999992,30000.2,71306.9)"
font-family="MS Shell Dlg 2" font-size="10.3125" font-weight="400" font-style="normal" 
>
<path vector-effect="non-scaling-stroke" fill-rule="evenodd" d="M-24405,3671.08 L-24405,3671.07 L-26260.7,3671.07 L-27188.5,3671.07 L-27188.6,3671.14 L-27188.6,4146.07 L-30000,4146.07 L-30000,14571.1 L-27188.6,14571.1 L-24404.9,14571.1 L-21621.3,14571.1 L-18837.7,14571.1 L-17928.3,14571.1 L-16026.3,14571.1 L-16026.3,12071 L-16026.3,4146.07 L-18837.7,4146.07 L-18837.7,3671.14 L-18837.7,3671.12 L-18837.8,3671.07 L-21621.3,3671.07 L-21621.3,3671.14 L-21621.3,4146.07 L-24404.9,4146.07 L-24404.9,3671.14 L-24405,3671.08"/>
</g>

<g fill="none" stroke="#000000" stroke-opacity="1" stroke-width="1" stroke-linecap="square" stroke-linejoin="bevel" transform="matrix(0.999992,0,0,-0.999992,30000.2,71306.9)"
font-family="MS Shell Dlg 2" font-size="10.3125" font-weight="400" font-style="normal" 
>
</g>

<g fill="none" stroke="#000000" stroke-opacity="1" stroke-width="1" stroke-linecap="square" stroke-linejoin="bevel" transform="matrix(0.999992,0,0,-0.999992,30000.2,71306.9)"
font-family="MS Shell Dlg 2" font-size="10.3125" font-weight="400" font-style="normal" 
>
</g>

<g fill="#ae5151" fill-opacity="0.2" stroke="#333333" stroke-opacity="1" stroke-width="1" stroke-linecap="round" stroke-linejoin="round" transform="matrix(0.999992,0,0,-0.999992,30000.2,71306.9)"
font-family="MS Shell Dlg 2" font-size="10.3125" font-weight="400" font-style="normal" 
>
<path vector-effect="non-scaling-stroke" fill-rule="evenodd" d="M27188.6,3671.14 L27188.5,3671.07 L24405,3671.07 L24404.9,3671.14 L24404.9,4146.07 L21621.3,4146.07 L21621.3,3671.14 L21621.3,3671.07 L19765.6,3671.07 L18837.8,3671.07 L18837.7,3671.14 L18837.7,4146.07 L16026.3,4146.07 L16026.3,12071 L16026.3,14571.1 L17928.3,14571.1 L18837.7,14571.1 L21621.3,14571.1 L24404.9,14571.1 L27188.6,14571.1 L30000,14571.1 L30000,4146.07 L27188.6,4146.07 L27188.6,3671.14"/>
</g>

<g fill="none" stroke="#000000" stroke-opacity="1" stroke-width="1" stroke-linecap="square" stroke-linejoin="bevel" transform="matrix(0.999992,0,0,-0.999992,30000.2,71306.9)"
font-family="MS Shell Dlg 2" font-size="10.3125" font-weight="400" font-style="normal" 
>
</g>

<g fill="none" stroke="#000000" stroke-opacity="1" stroke-width="1" stroke-linecap="square" stroke-linejoin="bevel" transform="matrix(0.999992,0,0,-0.999992,30000.2,71306.9)"
font-family="MS Shell Dlg 2" font-size="10.3125" font-weight="400" font-style="normal" 
>
</g>

<g fill="#ae5151" fill-opacity="0.2" stroke="#333333" stroke-opacity="1" stroke-width="1" stroke-linecap="round" stroke-linejoin="round" transform="matrix(0.999992,0,0,-0.999992,30000.2,71306.9)"
font-family="MS Shell Dlg 2" font-size="10.3125" font-weight="400" font-style="normal" 
>
<path vector-effect="non-scaling-stroke" fill-rule="evenodd" d="M-7838.53,7803.17 L-7859.31,7803.17 L-7848.97,7813.52 L-7848.9,7813.55 L-7838.53,7803.17"/>
</g>

<g fill="none" stroke="#000000" stroke-opacity="1" stroke-width="1" stroke-linecap="square" stroke-linejoin="bevel" transform="matrix(0.999992,0,0,-0.999992,30000.2,71306.9)"
font-family="MS Shell Dlg 2" font-size="10.3125" font-weight="400" font-style="normal" 
>
</g>

<g fill="none" stroke="#000000" stroke-opacity="1" stroke-width="1" stroke-linecap="square" stroke-linejoin="bevel" transform="matrix(0.999992,0,0,-0.999992,30000.2,71306.9)"
font-family="MS Shell Dlg 2" font-size="10.3125" font-weight="400" font-style="normal" 
>
</g>

<g fill="#ae5151" fill-opacity="0.2" stroke="#333333" stroke-opacity="1" stroke-width="1" stroke-linecap="round" stroke-linejoin="round" transform="matrix(0.999992,0,0,-0.999992,30000.2,71306.9)"
font-family="MS Shell Dlg 2" font-size="10.3125" font-weight="400" font-style="normal" 
>
<path vector-effect="non-scaling-stroke" fill-rule="evenodd" d="M10125,15046.1 L10125,10160.4 L9222.17,9257.52 L9222.1,9257.55 L8886.27,9593.38 L7477.69,8184.8 L7813.52,7848.97 L7813.55,7848.9 L7767.82,7803.17 L6121.04,7803.17 L6121.02,7803.25 L6121.02,8278.17 L4128.98,8278.17 L4128.98,7803.25 L4128.96,7803.17 L2136.98,7803.17 L2136.95,7803.25 L2136.95,8278.17 L125,8278.17 L125,14571.1 L5976.1,14571.1 L5976.1,15046 L5976.26,15046.1 L10125,15046.1 M4662.88,9760.82 L4662.88,9760.79 L4680.13,9660.74 L4680.14,9660.72 L4722.02,9568.24 L4722.03,9568.22 L4785.86,9489.27 L4785.88,9489.25 L4867.53,9428.91 L4867.55,9428.9 L4961.76,9391.07 L4961.79,9391.06 L5062.49,9378.18 L5062.51,9378.18 L5131.65,9384.2 L5131.67,9384.2 L5228.63,9414.31 L5228.65,9414.32 L5314.9,9467.87 L5314.92,9467.88 L5384.91,9541.43 L5384.93,9541.45 L5434.14,9630.24 L5434.15,9630.27 L5459.41,9728.6 L5459.42,9728.62 L5459.11,9830.15 L5459.1,9830.17 L5433.24,9928.34 L5433.23,9928.37 L5383.48,10016.9 L5383.46,10016.9 L5313.03,10090 L5313.01,10090 L5226.43,10143 L5226.41,10143 L5129.27,10172.6 L5129.24,10172.6 L5027.8,10176.7 L5027.78,10176.7 L4928.57,10155.1 L4928.55,10155.1 L4837.98,10109.2 L4837.95,10109.2 L4761.85,10042 L4761.83,10042 L4705.1,9957.8 L4705.09,9957.77 L4671.39,9862.01 L4671.38,9861.98 L4662.88,9760.82"/>
</g>

<g fill="none" stroke="#000000" stroke-opacity="1" stroke-width="1" stroke-linecap="square" stroke-linejoin="bevel" transform="matrix(0.999992,0,0,-0.999992,30000.2,71306.9)"
font-family="MS Shell Dlg 2" font-size="10.3125" font-weight="400" font-style="normal" 
>
</g>

<g fill="none" stroke="#000000" stroke-opacity="1" stroke-width="1" stroke-linecap="square" stroke-linejoin="bevel" transform="matrix(0.999992,0,0,-0.999992,30000.2,71306.9)"
font-family="MS Shell Dlg 2" font-size="10.3125" font-weight="400" font-style="normal" 
>
</g>

<g fill="#ae5151" fill-opacity="0.2" stroke="#333333" stroke-opacity="1" stroke-width="1" stroke-linecap="round" stroke-linejoin="round" transform="matrix(0.999992,0,0,-0.999992,30000.2,71306.9)"
font-family="MS Shell Dlg 2" font-size="10.3125" font-weight="400" font-style="normal" 
>
<path vector-effect="non-scaling-stroke" fill-rule="evenodd" d="M-125,14571.1 L-125,8278.17 L-2136.95,8278.17 L-2136.95,7803.25 L-2136.98,7803.17 L-4128.96,7803.17 L-4128.98,7803.25 L-4128.98,8278.17 L-6121.02,8278.17 L-6121.02,7803.25 L-6121.04,7803.17 L-7096.07,7803.17 L-10125,10832.1 L-10125,15046.1 L-5976.26,15046.1 L-5976.1,15046 L-5976.1,14571.1 L-125,14571.1 M-5462.12,9760.82 L-5462.12,9760.79 L-5444.87,9660.74 L-5444.86,9660.72 L-5402.98,9568.24 L-5402.97,9568.22 L-5339.14,9489.27 L-5339.12,9489.25 L-5257.47,9428.91 L-5257.45,9428.9 L-5163.24,9391.07 L-5163.21,9391.06 L-5062.51,9378.18 L-5062.49,9378.18 L-4993.35,9384.2 L-4993.33,9384.2 L-4896.37,9414.31 L-4896.35,9414.32 L-4810.1,9467.87 L-4810.08,9467.88 L-4740.09,9541.43 L-4740.07,9541.45 L-4690.86,9630.24 L-4690.85,9630.27 L-4665.59,9728.6 L-4665.58,9728.62 L-4665.89,9830.15 L-4665.9,9830.17 L-4691.76,9928.34 L-4691.77,9928.37 L-4741.52,10016.9 L-4741.54,10016.9 L-4811.97,10090 L-4811.99,10090 L-4898.57,10143 L-4898.59,10143 L-4995.73,10172.6 L-4995.76,10172.6 L-5097.2,10176.7 L-5097.22,10176.7 L-5196.43,10155.1 L-5196.45,10155.1 L-5287.02,10109.2 L-5287.05,10109.2 L-5363.15,10042 L-5363.17,10042 L-5419.9,9957.8 L-5419.91,9957.77 L-5453.61,9862.01 L-5453.62,9861.98 L-5462.12,9760.82"/>
</g>

<g fill="none" stroke="#000000" stroke-opacity="1" stroke-width="1" stroke-linecap="square" stroke-linejoin="bevel" transform="matrix(0.999992,0,0,-0.999992,30000.2,71306.9)"
font-family="MS Shell Dlg 2" font-size="10.3125" font-weight="400" font-style="normal" 
>
</g>

<g fill="none" stroke="#000000" stroke-opacity="1" stroke-width="1" stroke-linecap="square" stroke-linejoin="bevel" transform="matrix(0.999992,0,0,-0.999992,30000.2,71306.9)"
font-family="MS Shell Dlg 2" font-size="10.3125" font-weight="400" font-style="normal" 
>
</g>

<g fill="#ae5151" fill-opacity="0.2" stroke="#333333" stroke-opacity="1" stroke-width="1" stroke-linecap="round" stroke-linejoin="round" transform="matrix(0.999992,0,0,-0.999992,30000.2,71306.9)"
font-family="MS Shell Dlg 2" font-size="10.3125" font-weight="400" font-style="normal" 
>
<path vector-effect="non-scaling-stroke" fill-rule="evenodd" d="M10125,37571.1 L10125,37096.1 L10125,37096.1 L8133,37096.1 L8132.97,37096.1 L8132.97,37571.1 L2117.03,37571.1 L2117.03,37096.1 L2117,37096.1 L125.028,37096.1 L125,37096.1 L125,37571.1 L0,37546.2 L-125,37571.1 L-125,37096.1 L-125.028,37096.1 L-2117,37096.1 L-2117.03,37096.1 L-2117.03,37571.1 L-8132.97,37571.1 L-8132.97,37096.1 L-8133,37096.1 L-10125,37096.1 L-10125,37096.1 L-10125,37571.1 L-10316.3,37533 L-10375,37493.8 L-10375,43971.1 L10375,43971.1 L10375,37493.8 L10316.3,37533 L10125,37571.1"/>
</g>

<g fill="none" stroke="#000000" stroke-opacity="1" stroke-width="1" stroke-linecap="square" stroke-linejoin="bevel" transform="matrix(0.999992,0,0,-0.999992,30000.2,71306.9)"
font-family="MS Shell Dlg 2" font-size="10.3125" font-weight="400" font-style="normal" 
>
</g>

<g fill="none" stroke="#000000" stroke-opacity="1" stroke-width="1" stroke-linecap="square" stroke-linejoin="bevel" transform="matrix(0.999992,0,0,-0.999992,30000.2,71306.9)"
font-family="MS Shell Dlg 2" font-size="10.3125" font-weight="400" font-style="normal" 
>
</g>

<g fill="#ae5151" fill-opacity="0.2" stroke="#333333" stroke-opacity="1" stroke-width="1" stroke-linecap="round" stroke-linejoin="round" transform="matrix(0.999992,0,0,-0.999992,30000.2,71306.9)"
font-family="MS Shell Dlg 2" font-size="10.3125" font-weight="400" font-style="normal" 
>
<path vector-effect="non-scaling-stroke" fill-rule="evenodd" d="M16026.3,68806.1 L16026.3,68831 L16026.3,71305.9 L16026.4,71306.1 L29999.9,71306.1 L30000,71305.9 L30000,68806.1 L27188.6,68806.1 L24404.9,68806.1 L21621.3,68806.1 L18837.7,68806.1 L16026.3,68806.1"/>
</g>

<g fill="none" stroke="#000000" stroke-opacity="1" stroke-width="1" stroke-linecap="square" stroke-linejoin="bevel" transform="matrix(0.999992,0,0,-0.999992,30000.2,71306.9)"
font-family="MS Shell Dlg 2" font-size="10.3125" font-weight="400" font-style="normal" 
>
</g>

<g fill="none" stroke="#000000" stroke-opacity="1" stroke-width="1" stroke-linecap="square" stroke-linejoin="bevel" transform="matrix(0.999992,0,0,-0.999992,30000.2,71306.9)"
font-family="MS Shell Dlg 2" font-size="10.3125" font-weight="400" font-style="normal" 
>
</g>

<g fill="#ae5151" fill-opacity="0.2" stroke="#333333" stroke-opacity="1" stroke-width="1" stroke-linecap="round" stroke-linejoin="round" transform="matrix(0.999992,0,0,-0.999992,30000.2,71306.9)"
font-family="MS Shell Dlg 2" font-size="10.3125" font-weight="400" font-style="normal" 
>
<path vector-effect="non-scaling-stroke" fill-rule="evenodd" d="M-30000,68806.1 L-30000,71305.9 L-29999.9,71306.1 L-16026.4,71306.1 L-16026.3,71305.9 L-16026.3,68831 L-16026.3,68806.1 L-18837.7,68806.1 L-21621.3,68806.1 L-24404.9,68806.1 L-27188.6,68806.1 L-30000,68806.1"/>
</g>

<g fill="none" stroke="#000000" stroke-opacity="1" stroke-width="1" stroke-linecap="square" stroke-linejoin="bevel" transform="matrix(0.999992,0,0,-0.999992,30000.2,71306.9)"
font-family="MS Shell Dlg 2" font-size="10.3125" font-weight="400" font-style="normal" 
>
</g>

<g fill="none" stroke="#000000" stroke-opacity="1" stroke-width="1" stroke-linecap="square" stroke-linejoin="bevel" transform="matrix(0.999992,0,0,-0.999992,30000.2,71306.9)"
font-family="MS Shell Dlg 2" font-size="10.3125" font-weight="400" font-style="normal" 
>
</g>

<g fill="#ae5151" fill-opacity="0.2" stroke="#333333" stroke-opacity="1" stroke-width="1" stroke-linecap="round" stroke-linejoin="round" transform="matrix(0.999992,0,0,-0.999992,30000.2,71306.9)"
font-family="MS Shell Dlg 2" font-size="10.3125" font-weight="400" font-style="normal" 
>
<path vector-effect="non-scaling-stroke" fill-rule="evenodd" d="M24404.9,57381.1 L21621.3,57381.1 L18837.7,57381.1 L18809.9,57381.1 L16026.3,57381.1 L16026.3,57406 L16026.3,67781.1 L16026.3,67806.1 L18837.7,67806.1 L21621.3,67806.1 L24404.9,67806.1 L27188.6,67806.1 L30000,67806.1 L30000,57381.1 L27216.4,57381.1 L27188.6,57381.1 L24404.9,57381.1"/>
</g>

<g fill="none" stroke="#000000" stroke-opacity="1" stroke-width="1" stroke-linecap="square" stroke-linejoin="bevel" transform="matrix(0.999992,0,0,-0.999992,30000.2,71306.9)"
font-family="MS Shell Dlg 2" font-size="10.3125" font-weight="400" font-style="normal" 
>
</g>

<g fill="none" stroke="#000000" stroke-opacity="1" stroke-width="1" stroke-linecap="square" stroke-linejoin="bevel" transform="matrix(0.999992,0,0,-0.999992,30000.2,71306.9)"
font-family="MS Shell Dlg 2" font-size="10.3125" font-weight="400" font-style="normal" 
>
</g>

<g fill="#ae5151" fill-opacity="0.2" stroke="#333333" stroke-opacity="1" stroke-width="1" stroke-linecap="round" stroke-linejoin="round" transform="matrix(0.999992,0,0,-0.999992,30000.2,71306.9)"
font-family="MS Shell Dlg 2" font-size="10.3125" font-weight="400" font-style="normal" 
>
<path vector-effect="non-scaling-stroke" fill-rule="evenodd" d="M-27188.6,57381.1 L-27216.4,57381.1 L-30000,57381.1 L-30000,67806.1 L-27188.6,67806.1 L-24404.9,67806.1 L-21621.3,67806.1 L-18837.7,67806.1 L-16026.3,67806.1 L-16026.3,67781.1 L-16026.3,57406 L-16026.3,57381.1 L-18809.9,57381.1 L-18837.7,57381.1 L-21621.3,57381.1 L-24404.9,57381.1 L-27188.6,57381.1"/>
</g>

<g fill="none" stroke="#000000" stroke-opacity="1" stroke-width="1" stroke-linecap="square" stroke-linejoin="bevel" transform="matrix(0.999992,0,0,-0.999992,30000.2,71306.9)"
font-family="MS Shell Dlg 2" font-size="10.3125" font-weight="400" font-style="normal" 
>
</g>

<g fill="none" stroke="#000000" stroke-opacity="1" stroke-width="1" stroke-linecap="square" stroke-linejoin="bevel" transform="matrix(0.999992,0,0,-0.999992,30000.2,71306.9)"
font-family="MS Shell Dlg 2" font-size="10.3125" font-weight="400" font-style="normal" 
>
</g>

<g fill="#ae5151" fill-opacity="0.2" stroke="#333333" stroke-opacity="1" stroke-width="1" stroke-linecap="round" stroke-linejoin="round" transform="matrix(0.999992,0,0,-0.999992,30000.2,71306.9)"
font-family="MS Shell Dlg 2" font-size="10.3125" font-weight="400" font-style="normal" 
>
<path vector-effect="non-scaling-stroke" fill-rule="evenodd" d="M-125,21821.1 L-125,15571.1 L-10125,15571.1 L-10125,21821.1 L-125,21821.1"/>
</g>

<g fill="none" stroke="#000000" stroke-opacity="1" stroke-width="1" stroke-linecap="square" stroke-linejoin="bevel" transform="matrix(0.999992,0,0,-0.999992,30000.2,71306.9)"
font-family="MS Shell Dlg 2" font-size="10.3125" font-weight="400" font-style="normal" 
>
</g>

<g fill="none" stroke="#000000" stroke-opacity="1" stroke-width="1" stroke-linecap="square" stroke-linejoin="bevel" transform="matrix(0.999992,0,0,-0.999992,30000.2,71306.9)"
font-family="MS Shell Dlg 2" font-size="10.3125" font-weight="400" font-style="normal" 
>
</g>

<g fill="#ae5151" fill-opacity="0.2" stroke="#333333" stroke-opacity="1" stroke-width="1" stroke-linecap="round" stroke-linejoin="round" transform="matrix(0.999992,0,0,-0.999992,30000.2,71306.9)"
font-family="MS Shell Dlg 2" font-size="10.3125" font-weight="400" font-style="normal" 
>
<path vector-effect="non-scaling-stroke" fill-rule="evenodd" d="M10125,21821.1 L10125,15571.1 L125,15571.1 L125,21821.1 L10125,21821.1"/>
</g>

<g fill="none" stroke="#000000" stroke-opacity="1" stroke-width="1" stroke-linecap="square" stroke-linejoin="bevel" transform="matrix(0.999992,0,0,-0.999992,30000.2,71306.9)"
font-family="MS Shell Dlg 2" font-size="10.3125" font-weight="400" font-style="normal" 
>
</g>

<g fill="none" stroke="#000000" stroke-opacity="1" stroke-width="1" stroke-linecap="square" stroke-linejoin="bevel" transform="matrix(0.999992,0,0,-0.999992,30000.2,71306.9)"
font-family="MS Shell Dlg 2" font-size="10.3125" font-weight="400" font-style="normal" 
>
</g>

<g fill="#ae5151" fill-opacity="0.2" stroke="#333333" stroke-opacity="1" stroke-width="1" stroke-linecap="round" stroke-linejoin="round" transform="matrix(0.999992,0,0,-0.999992,30000.2,71306.9)"
font-family="MS Shell Dlg 2" font-size="10.3125" font-weight="400" font-style="normal" 
>
<path vector-effect="non-scaling-stroke" fill-rule="evenodd" d="M-27216.4,15096.1 L-27216.4,15096.1 L-29999.8,15096.1 L-30000,15096.1 L-30000,15571.1 L-30000,56381.1 L-27216.4,56381.1 L-27188.6,56381.1 L-24404.9,56381.1 L-21621.3,56381.1 L-18837.7,56381.1 L-18809.9,56381.1 L-16026.3,56381.1 L-15834.9,56419.1 L-15672.7,56527.5 L-15564.3,56689.7 L-15526.3,56881.1 L15526.3,56881.1 L15564.3,56689.7 L15672.7,56527.5 L15834.9,56419.1 L16026.3,56381.1 L18809.9,56381.1 L18837.7,56381.1 L21621.3,56381.1 L24404.9,56381.1 L27188.6,56381.1 L27216.4,56381.1 L30000,56381.1 L30000,15571.1 L30000,15096.1 L29999.8,15096.1 L27216.4,15096.1 L27216.4,15096.1 L27216.4,15571.1 L18809.9,15571.1 L18809.9,15096.1 L18809.8,15096.1 L18048,15096.1 L18047.8,15096.1 L18047.8,15571.1 L16026.3,15571.1 L16026.3,15596 L16026.3,34880.9 L16026.4,34881.1 L23224.9,34881.1 L23225,34881.2 L23225,37311 L23224.9,37311.1 L16026.4,37311.1 L16026.3,37311.2 L16026.3,44071 L16026.2,44071.1 L10475,44071.1 L10467.4,44109.3 L10445.7,44141.8 L10413.3,44163.5 L10375,44171.1 L-10375,44171.1 L-10413.3,44163.5 L-10445.7,44141.8 L-10467.4,44109.3 L-10475,44071.1 L-16026.2,44071.1 L-16026.3,44071 L-16026.3,37311.2 L-16026.4,37311.1 L-23224.9,37311.1 L-23225,37311 L-23225,34881.2 L-23224.9,34881.1 L-16026.4,34881.1 L-16026.3,34880.9 L-16026.3,15596 L-16026.3,15571.1 L-18047.8,15571.1 L-18047.8,15096.1 L-18048,15096.1 L-18809.8,15096.1 L-18809.9,15096.1 L-18809.9,15571.1 L-27216.4,15571.1 L-27216.4,15096.1 M13300,49736.2 L13300.1,49736.1 L21299.9,49736.1 L21300,49736.2 L21300,52736 L21299.9,52736.1 L13300.1,52736.1 L13300,52736 L13300,49736.2 M-21300,49736.2 L-21299.9,49736.1 L-13300.1,49736.1 L-13300,49736.2 L-13300,52736 L-13300.1,52736.1 L-21299.9,52736.1 L-21300,52736 L-21300,49736.2"/>
</g>

<g fill="none" stroke="#000000" stroke-opacity="1" stroke-width="1" stroke-linecap="square" stroke-linejoin="bevel" transform="matrix(0.999992,0,0,-0.999992,30000.2,71306.9)"
font-family="MS Shell Dlg 2" font-size="10.3125" font-weight="400" font-style="normal" 
>
</g>

<g fill="none" stroke="#000000" stroke-opacity="1" stroke-width="1" stroke-linecap="square" stroke-linejoin="bevel" transform="matrix(0.999992,0,0,-0.999992,30000.2,71306.9)"
font-family="MS Shell Dlg 2" font-size="10.3125" font-weight="400" font-style="normal" 
>
</g>

<g fill="#ae5151" fill-opacity="0.2" stroke="#333333" stroke-opacity="1" stroke-width="1" stroke-linecap="round" stroke-linejoin="round" transform="matrix(0.999992,0,0,-0.999992,30000.2,71306.9)"
font-family="MS Shell Dlg 2" font-size="10.3125" font-weight="400" font-style="normal" 
>
<path vector-effect="non-scaling-stroke" fill-rule="evenodd" d="M9826.42,-14949.2 L9389.07,-15006.7 L9379.25,-15007.2 L9355.43,-15010.8 L9085.18,-12958 L9085.25,-12958 L9556.11,-12896 L8739.78,-6695.33 L8268.92,-6757.32 L8268.84,-6757.3 L8068.52,-5235.71 L11685.1,-7323.75 L11922.6,-6912.45 L11922.6,-6912.4 L13647.7,-7908.39 L13647.7,-7908.46 L13410.3,-8319.76 L13430.1,-8326.5 L9910.31,-15051.7 L9837.52,-15033.5 L9826.42,-14949.2"/>
</g>

<g fill="none" stroke="#000000" stroke-opacity="1" stroke-width="1" stroke-linecap="square" stroke-linejoin="bevel" transform="matrix(0.999992,0,0,-0.999992,30000.2,71306.9)"
font-family="MS Shell Dlg 2" font-size="10.3125" font-weight="400" font-style="normal" 
>
</g>

<g fill="none" stroke="#000000" stroke-opacity="1" stroke-width="1" stroke-linecap="square" stroke-linejoin="bevel" transform="matrix(0.999992,0,0,-0.999992,30000.2,71306.9)"
font-family="MS Shell Dlg 2" font-size="10.3125" font-weight="400" font-style="normal" 
>
</g>

<g fill="#ae5151" fill-opacity="0.2" stroke="#333333" stroke-opacity="1" stroke-width="1" stroke-linecap="round" stroke-linejoin="round" transform="matrix(0.999992,0,0,-0.999992,30000.2,71306.9)"
font-family="MS Shell Dlg 2" font-size="10.3125" font-weight="400" font-style="normal" 
>
<path vector-effect="non-scaling-stroke" fill-rule="evenodd" d="M5487.06,-3196.83 L5100,-3196.83 L5100,-2973.35 L5487.06,-3196.83"/>
</g>

<g fill="none" stroke="#000000" stroke-opacity="1" stroke-width="1" stroke-linecap="square" stroke-linejoin="bevel" transform="matrix(0.999992,0,0,-0.999992,30000.2,71306.9)"
font-family="MS Shell Dlg 2" font-size="10.3125" font-weight="400" font-style="normal" 
>
</g>

<g fill="none" stroke="#000000" stroke-opacity="1" stroke-width="1" stroke-linecap="square" stroke-linejoin="bevel" transform="matrix(0.999992,0,0,-0.999992,30000.2,71306.9)"
font-family="MS Shell Dlg 2" font-size="10.3125" font-weight="400" font-style="normal" 
>
</g>

<g fill="#ae5151" fill-opacity="0.2" stroke="#333333" stroke-opacity="1" stroke-width="1" stroke-linecap="round" stroke-linejoin="round" transform="matrix(0.999992,0,0,-0.999992,30000.2,71306.9)"
font-family="MS Shell Dlg 2" font-size="10.3125" font-weight="400" font-style="normal" 
>
<path vector-effect="non-scaling-stroke" fill-rule="evenodd" d="M-8812.24,-10884.2 L-8812.17,-10884.3 L-9082.47,-12937.4 L-9082.55,-12937.4 L-9553.41,-12875.4 L-9837.52,-15033.5 L-9910.31,-15051.7 L-13430.1,-8326.5 L-13410.3,-8319.76 L-11667.9,-7313.79 L-11905.3,-6902.49 L-11905.3,-6902.41 L-10180.2,-5906.42 L-10180.2,-5906.47 L-9942.7,-6317.77 L-8587.03,-5535.08 L-8742.49,-6715.86 L-8271.62,-6777.85 L-8271.56,-6777.89 L-8541.86,-8831.02 L-8541.93,-8831.04 L-9012.8,-8769.05 L-9283.1,-10822.2 L-8812.24,-10884.2"/>
</g>

<g fill="none" stroke="#000000" stroke-opacity="1" stroke-width="1" stroke-linecap="square" stroke-linejoin="bevel" transform="matrix(0.999992,0,0,-0.999992,30000.2,71306.9)"
font-family="MS Shell Dlg 2" font-size="10.3125" font-weight="400" font-style="normal" 
>
</g>

<g fill="none" stroke="#000000" stroke-opacity="1" stroke-width="1" stroke-linecap="square" stroke-linejoin="bevel" transform="matrix(0.999992,0,0,-0.999992,30000.2,71306.9)"
font-family="MS Shell Dlg 2" font-size="10.3125" font-weight="400" font-style="normal" 
>
</g>

<g fill="#ae5151" fill-opacity="0.2" stroke="#333333" stroke-opacity="1" stroke-width="1" stroke-linecap="round" stroke-linejoin="round" transform="matrix(0.999992,0,0,-0.999992,30000.2,71306.9)"
font-family="MS Shell Dlg 2" font-size="10.3125" font-weight="400" font-style="normal" 
>
<path vector-effect="non-scaling-stroke" fill-rule="evenodd" d="M-9251.92,-15024.8 L-9305.84,-15017.7 L-9305.91,-15017.7 L-9035.61,-12964.5 L-9035.54,-12964.5 L-8564.67,-13026.5 L-7748.34,-6825.86 L-8219.21,-6763.86 L-8219.27,-6763.83 L-7949.02,-4711.07 L-7925.2,-4714.6 L-7915.38,-4715.08 L-7478.03,-4772.66 L-7466.93,-4688.34 L-7342.75,-4657.24 L-7204.15,-4607.64 L-7133.08,-4574.03 L-6004.07,-5703.04 L-5668.24,-5367.21 L-5668.18,-5367.18 L-5100,-5935.36 L-5100,-7113.25 L-5097.45,-7126.08 L-5096.59,-7139.13 L-5093.67,-7145.05 L-5092.39,-7151.52 L-5085.12,-7162.39 L-5079.34,-7174.12 L-5074.38,-7178.47 L-5070.71,-7183.96 L-5059.83,-7191.23 L-5050,-7199.85 L-4813.14,-7336.6 L-5769.12,-8992.4 L-5357.81,-9229.87 L-5357.77,-9229.93 L-6353.76,-10955 L-6353.83,-10955 L-6765.13,-10717.6 L-7761.15,-12442.7 L-7349.85,-12680.2 L-7349.8,-12680.2 L-8345.79,-14405.3 L-8345.86,-14405.3 L-8757.16,-14167.9 L-9251.92,-15024.8"/>
</g>

<g fill="none" stroke="#000000" stroke-opacity="1" stroke-width="1" stroke-linecap="square" stroke-linejoin="bevel" transform="matrix(0.999992,0,0,-0.999992,30000.2,71306.9)"
font-family="MS Shell Dlg 2" font-size="10.3125" font-weight="400" font-style="normal" 
>
</g>

<g fill="none" stroke="#000000" stroke-opacity="1" stroke-width="1" stroke-linecap="square" stroke-linejoin="bevel" transform="matrix(0.999992,0,0,-0.999992,30000.2,71306.9)"
font-family="MS Shell Dlg 2" font-size="10.3125" font-weight="400" font-style="normal" 
>
</g>

<g fill="#ae5151" fill-opacity="0.2" stroke="#333333" stroke-opacity="1" stroke-width="1" stroke-linecap="round" stroke-linejoin="round" transform="matrix(0.999992,0,0,-0.999992,30000.2,71306.9)"
font-family="MS Shell Dlg 2" font-size="10.3125" font-weight="400" font-style="normal" 
>
<path vector-effect="non-scaling-stroke" fill-rule="evenodd" d="M5100,-6607.11 L6014.63,-5692.47 L5678.81,-5356.65 L5678.77,-5356.58 L6630.11,-4405.25 L7495.43,-4904.84 L7751.04,-6846.39 L8221.91,-6784.4 L8221.98,-6784.42 L8492.28,-8837.55 L8492.22,-8837.59 L8021.35,-8899.58 L8291.66,-10952.8 L8762.52,-10890.8 L8762.6,-10890.8 L9032.9,-12943.9 L9032.83,-12944 L8561.97,-13006 L8702.46,-14073.1 L5759.16,-8975.15 L5347.85,-9212.61 L5347.78,-9212.63 L4401.78,-7574.1 L4813.14,-7336.6 L5050,-7199.85 L5059.83,-7191.23 L5070.71,-7183.96 L5074.38,-7178.47 L5079.34,-7174.12 L5085.12,-7162.39 L5092.39,-7151.52 L5093.67,-7145.05 L5096.59,-7139.13 L5097.45,-7126.08 L5100,-7113.25 L5100,-6607.11"/>
</g>

<g fill="none" stroke="#000000" stroke-opacity="1" stroke-width="1" stroke-linecap="square" stroke-linejoin="bevel" transform="matrix(0.999992,0,0,-0.999992,30000.2,71306.9)"
font-family="MS Shell Dlg 2" font-size="10.3125" font-weight="400" font-style="normal" 
>
</g>

<g fill="none" stroke="#000000" stroke-opacity="1" stroke-width="1" stroke-linecap="square" stroke-linejoin="bevel" transform="matrix(0.999992,0,0,-0.999992,30000.2,71306.9)"
font-family="MS Shell Dlg 2" font-size="10.3125" font-weight="400" font-style="normal" 
>
</g>

<g fill="#ae5151" fill-opacity="0.2" stroke="#333333" stroke-opacity="1" stroke-width="1" stroke-linecap="round" stroke-linejoin="round" transform="matrix(0.999992,0,0,-0.999992,30000.2,71306.9)"
font-family="MS Shell Dlg 2" font-size="10.3125" font-weight="400" font-style="normal" 
>
<path vector-effect="non-scaling-stroke" fill-rule="evenodd" d="M-12678.4,4443.29 L-12344,4636.36 L-12344,4636.37 L-11397.6,2997.25 L-11397.7,2997.19 L-11809,2759.72 L-10862.6,1120.55 L-10451.3,1358.02 L-10451.2,1358.03 L-9504.87,-281.094 L-9504.92,-281.152 L-9916.22,-518.617 L-8917.68,-2248.15 L-8937.69,-2270.24 L-9025.38,-2388.47 L-9101.06,-2514.73 L-9163.99,-2647.8 L-9213.59,-2786.4 L-9249.35,-2929.19 L-9270.95,-3074.8 L-9278.17,-3221.83 L-9270.95,-3368.85 L-9249.35,-3514.46 L-9213.59,-3657.25 L-9163.99,-3795.85 L-9101.06,-3928.92 L-9025.38,-4055.18 L-8937.69,-4173.42 L-8838.83,-4282.49 L-8729.76,-4381.34 L-8668.02,-4427.13 L-12185.1,-6457.72 L-11947.6,-6869.02 L-11947.6,-6869.1 L-13657.8,-7856.49 L-13609.7,-7251.32 L-12678.4,4443.29"/>
</g>

<g fill="none" stroke="#000000" stroke-opacity="1" stroke-width="1" stroke-linecap="square" stroke-linejoin="bevel" transform="matrix(0.999992,0,0,-0.999992,30000.2,71306.9)"
font-family="MS Shell Dlg 2" font-size="10.3125" font-weight="400" font-style="normal" 
>
</g>

<g fill="none" stroke="#000000" stroke-opacity="1" stroke-width="1" stroke-linecap="square" stroke-linejoin="bevel" transform="matrix(0.999992,0,0,-0.999992,30000.2,71306.9)"
font-family="MS Shell Dlg 2" font-size="10.3125" font-weight="400" font-style="normal" 
>
</g>

<g fill="#ae5151" fill-opacity="0.2" stroke="#333333" stroke-opacity="1" stroke-width="1" stroke-linecap="round" stroke-linejoin="round" transform="matrix(0.999992,0,0,-0.999992,30000.2,71306.9)"
font-family="MS Shell Dlg 2" font-size="10.3125" font-weight="400" font-style="normal" 
>
<path vector-effect="non-scaling-stroke" fill-rule="evenodd" d="M5100,-3721.83 L6365.87,-3721.83 L6392.36,-3795.85 L6425.97,-3866.92 L5296.96,-4995.93 L5632.79,-5331.76 L5632.82,-5331.82 L5100,-5864.64 L5100,-3721.83"/>
</g>

<g fill="none" stroke="#000000" stroke-opacity="1" stroke-width="1" stroke-linecap="square" stroke-linejoin="bevel" transform="matrix(0.999992,0,0,-0.999992,30000.2,71306.9)"
font-family="MS Shell Dlg 2" font-size="10.3125" font-weight="400" font-style="normal" 
>
</g>

<g fill="none" stroke="#000000" stroke-opacity="1" stroke-width="1" stroke-linecap="square" stroke-linejoin="bevel" transform="matrix(0.999992,0,0,-0.999992,30000.2,71306.9)"
font-family="MS Shell Dlg 2" font-size="10.3125" font-weight="400" font-style="normal" 
>
</g>

<g fill="#ae5151" fill-opacity="0.2" stroke="#333333" stroke-opacity="1" stroke-width="1" stroke-linecap="round" stroke-linejoin="round" transform="matrix(0.999992,0,0,-0.999992,30000.2,71306.9)"
font-family="MS Shell Dlg 2" font-size="10.3125" font-weight="400" font-style="normal" 
>
<path vector-effect="non-scaling-stroke" fill-rule="evenodd" d="M-5100,-5192.89 L-5307.53,-4985.37 L-5643.35,-5321.19 L-5643.42,-5321.23 L-6699.82,-4264.82 L-6699.79,-4264.76 L-6590.63,-4155.6 L-6492.4,-4325.74 L-5446.39,-3721.83 L-5100,-3721.83 L-5100,-5192.89"/>
</g>

<g fill="none" stroke="#000000" stroke-opacity="1" stroke-width="1" stroke-linecap="square" stroke-linejoin="bevel" transform="matrix(0.999992,0,0,-0.999992,30000.2,71306.9)"
font-family="MS Shell Dlg 2" font-size="10.3125" font-weight="400" font-style="normal" 
>
</g>

<g fill="none" stroke="#000000" stroke-opacity="1" stroke-width="1" stroke-linecap="square" stroke-linejoin="bevel" transform="matrix(0.999992,0,0,-0.999992,30000.2,71306.9)"
font-family="MS Shell Dlg 2" font-size="10.3125" font-weight="400" font-style="normal" 
>
</g>

<g fill="#ae5151" fill-opacity="0.2" stroke="#333333" stroke-opacity="1" stroke-width="1" stroke-linecap="round" stroke-linejoin="round" transform="matrix(0.999992,0,0,-0.999992,30000.2,71306.9)"
font-family="MS Shell Dlg 2" font-size="10.3125" font-weight="400" font-style="normal" 
>
<path vector-effect="non-scaling-stroke" fill-rule="evenodd" d="M-4900,-6135.36 L-4611.77,-6423.58 L-4611.81,-6423.65 L-4900,-6711.84 L-4900,-6135.36"/>
</g>

<g fill="none" stroke="#000000" stroke-opacity="1" stroke-width="1" stroke-linecap="square" stroke-linejoin="bevel" transform="matrix(0.999992,0,0,-0.999992,30000.2,71306.9)"
font-family="MS Shell Dlg 2" font-size="10.3125" font-weight="400" font-style="normal" 
>
</g>

<g fill="none" stroke="#000000" stroke-opacity="1" stroke-width="1" stroke-linecap="square" stroke-linejoin="bevel" transform="matrix(0.999992,0,0,-0.999992,30000.2,71306.9)"
font-family="MS Shell Dlg 2" font-size="10.3125" font-weight="400" font-style="normal" 
>
</g>

<g fill="#ae5151" fill-opacity="0.2" stroke="#333333" stroke-opacity="1" stroke-width="1" stroke-linecap="round" stroke-linejoin="round" transform="matrix(0.999992,0,0,-0.999992,30000.2,71306.9)"
font-family="MS Shell Dlg 2" font-size="10.3125" font-weight="400" font-style="normal" 
>
<path vector-effect="non-scaling-stroke" fill-rule="evenodd" d="M-4900,-6807.11 L-4613.93,-7093.18 L-4634.51,-7103.32 L-4695.91,-7173.34 L-4900,-7055.51 L-4900,-6807.11"/>
</g>

<g fill="none" stroke="#000000" stroke-opacity="1" stroke-width="1" stroke-linecap="square" stroke-linejoin="bevel" transform="matrix(0.999992,0,0,-0.999992,30000.2,71306.9)"
font-family="MS Shell Dlg 2" font-size="10.3125" font-weight="400" font-style="normal" 
>
</g>

<g fill="none" stroke="#000000" stroke-opacity="1" stroke-width="1" stroke-linecap="square" stroke-linejoin="bevel" transform="matrix(0.999992,0,0,-0.999992,30000.2,71306.9)"
font-family="MS Shell Dlg 2" font-size="10.3125" font-weight="400" font-style="normal" 
>
</g>

<g fill="#ae5151" fill-opacity="0.2" stroke="#333333" stroke-opacity="1" stroke-width="1" stroke-linecap="round" stroke-linejoin="round" transform="matrix(0.999992,0,0,-0.999992,30000.2,71306.9)"
font-family="MS Shell Dlg 2" font-size="10.3125" font-weight="400" font-style="normal" 
>
<path vector-effect="non-scaling-stroke" fill-rule="evenodd" d="M4613.93,-7093.18 L4900,-6807.11 L4900,-7055.51 L4695.91,-7173.34 L4634.51,-7103.32 L4613.93,-7093.18"/>
</g>

<g fill="none" stroke="#000000" stroke-opacity="1" stroke-width="1" stroke-linecap="square" stroke-linejoin="bevel" transform="matrix(0.999992,0,0,-0.999992,30000.2,71306.9)"
font-family="MS Shell Dlg 2" font-size="10.3125" font-weight="400" font-style="normal" 
>
</g>

<g fill="none" stroke="#000000" stroke-opacity="1" stroke-width="1" stroke-linecap="square" stroke-linejoin="bevel" transform="matrix(0.999992,0,0,-0.999992,30000.2,71306.9)"
font-family="MS Shell Dlg 2" font-size="10.3125" font-weight="400" font-style="normal" 
>
</g>

<g fill="#ae5151" fill-opacity="0.2" stroke="#333333" stroke-opacity="1" stroke-width="1" stroke-linecap="round" stroke-linejoin="round" transform="matrix(0.999992,0,0,-0.999992,30000.2,71306.9)"
font-family="MS Shell Dlg 2" font-size="10.3125" font-weight="400" font-style="normal" 
>
<path vector-effect="non-scaling-stroke" fill-rule="evenodd" d="M-1060.66,-9232.23 L-1085.97,-9257.54 L-2425.48,-8484.18 L-2117.09,-8175.8 L-4900,-5392.89 L-4900,-3406.37 L-4750,-3319.76 L-4666.83,-3246.83 L-3764.42,-3246.83 L-3764.4,-3246.9 L-3764.4,-3721.83 L-2513.77,-3721.83 L-2513.77,-3246.9 L-2513.75,-3246.83 L-1263.16,-3246.83 L-1263.14,-3246.9 L-1263.14,-3721.83 L0,-3721.83 L1263.14,-3721.83 L1263.14,-3246.9 L1263.16,-3246.83 L2513.75,-3246.83 L2513.77,-3246.9 L2513.77,-3721.83 L3764.4,-3721.83 L3764.4,-3246.9 L3764.42,-3246.83 L4666.83,-3246.83 L4750,-3319.76 L4792.11,-3246.83 L4900,-3246.83 L4900,-3406.37 L4900,-3435.23 L4900,-6064.64 L4576.42,-6388.23 L4576.35,-6388.19 L4240.53,-6052.37 L3184.09,-7108.8 L3519.92,-7444.63 L3519.95,-7444.69 L2555.58,-8409.07 L2438.87,-8476.45 L2127.66,-8165.23 L1014.04,-9278.86 L942.793,-9236.16 L765.367,-9152.24 L580.569,-9086.12 L390.181,-9038.43 L196.034,-9009.63 L-5.69646e-12,-9000 L-196.034,-9009.63 L-390.181,-9038.43 L-580.569,-9086.12 L-765.367,-9152.24 L-942.793,-9236.16 L-1014.04,-9278.86 L-1060.66,-9232.23"/>
</g>

<g fill="none" stroke="#000000" stroke-opacity="1" stroke-width="1" stroke-linecap="square" stroke-linejoin="bevel" transform="matrix(0.999992,0,0,-0.999992,30000.2,71306.9)"
font-family="MS Shell Dlg 2" font-size="10.3125" font-weight="400" font-style="normal" 
>
</g>

<g fill="none" stroke="#000000" stroke-opacity="1" stroke-width="1" stroke-linecap="square" stroke-linejoin="bevel" transform="matrix(0.999992,0,0,-0.999992,30000.2,71306.9)"
font-family="MS Shell Dlg 2" font-size="10.3125" font-weight="400" font-style="normal" 
>
</g>

<g fill="#ae5151" fill-opacity="0.2" stroke="#333333" stroke-opacity="1" stroke-width="1" stroke-linecap="round" stroke-linejoin="round" transform="matrix(0.999992,0,0,-0.999992,30000.2,71306.9)"
font-family="MS Shell Dlg 2" font-size="10.3125" font-weight="400" font-style="normal" 
>
<path vector-effect="non-scaling-stroke" fill-rule="evenodd" d="M8160.8,-4682.77 L8469.48,-4642.14 L8458.33,-4557.45 L8485.27,-4544.71 L8611.53,-4469.03 L8729.76,-4381.34 L8838.83,-4282.49 L8937.69,-4173.42 L9025.38,-4055.18 L9101.06,-3928.92 L9163.99,-3795.85 L9213.59,-3657.25 L9249.35,-3514.46 L9270.95,-3368.85 L9278.17,-3221.83 L9270.95,-3074.8 L9249.35,-2929.19 L9213.59,-2786.4 L9163.99,-2647.8 L9101.06,-2514.73 L9025.38,-2388.47 L8937.69,-2270.24 L8917.68,-2248.15 L8960.38,-2174.18 L8549.08,-1936.71 L8549.04,-1936.66 L9495.38,-297.532 L9495.46,-297.544 L9906.76,-535.009 L12690.9,4287.22 L13612.1,-7281.58 L12167.9,-6447.76 L11930.4,-6859.06 L11930.3,-6859.11 L10205.2,-5863.12 L10205.2,-5863.05 L10442.7,-5451.75 L8717.55,-4455.73 L8480.09,-4867.03 L8480.03,-4867.08 L8160.8,-4682.77"/>
</g>

<g fill="none" stroke="#000000" stroke-opacity="1" stroke-width="1" stroke-linecap="square" stroke-linejoin="bevel" transform="matrix(0.999992,0,0,-0.999992,30000.2,71306.9)"
font-family="MS Shell Dlg 2" font-size="10.3125" font-weight="400" font-style="normal" 
>
</g>

<g fill="none" stroke="#000000" stroke-opacity="1" stroke-width="1" stroke-linecap="square" stroke-linejoin="bevel" transform="matrix(0.999992,0,0,-0.999992,30000.2,71306.9)"
font-family="MS Shell Dlg 2" font-size="10.3125" font-weight="400" font-style="normal" 
>
</g>

<g fill="#ae5151" fill-opacity="0.2" stroke="#333333" stroke-opacity="1" stroke-width="1" stroke-linecap="round" stroke-linejoin="round" transform="matrix(0.999992,0,0,-0.999992,30000.2,71306.9)"
font-family="MS Shell Dlg 2" font-size="10.3125" font-weight="400" font-style="normal" 
>
<path vector-effect="non-scaling-stroke" fill-rule="evenodd" d="M4538.11,-2721.83 L1250.63,-2721.83 L1250.63,-3196.75 L1250.61,-3196.83 L100,-3196.83 L100,-2721.83 L100,-2696.83 L100,7283.15 L125,7278.17 L125,7753.1 L125.028,7753.17 L2117,7753.17 L2117.03,7753.1 L2117.03,7278.17 L7242.82,7278.17 L6405.01,6440.36 L6404.94,6440.39 L6069.11,6776.22 L4646.45,5353.55 L4538.06,5191.34 L4500,5000 L4538.06,4808.66 L4646.45,4646.45 L4808.66,4538.06 L4900,4519.89 L4900,-2401.86 L4870.59,-2403.79 L4695.62,-2490.07 L4566.99,-2636.75 L4538.11,-2721.83"/>
</g>

<g fill="none" stroke="#000000" stroke-opacity="1" stroke-width="1" stroke-linecap="square" stroke-linejoin="bevel" transform="matrix(0.999992,0,0,-0.999992,30000.2,71306.9)"
font-family="MS Shell Dlg 2" font-size="10.3125" font-weight="400" font-style="normal" 
>
</g>

<g fill="none" stroke="#000000" stroke-opacity="1" stroke-width="1" stroke-linecap="square" stroke-linejoin="bevel" transform="matrix(0.999992,0,0,-0.999992,30000.2,71306.9)"
font-family="MS Shell Dlg 2" font-size="10.3125" font-weight="400" font-style="normal" 
>
</g>

<g fill="#ae5151" fill-opacity="0.2" stroke="#333333" stroke-opacity="1" stroke-width="1" stroke-linecap="round" stroke-linejoin="round" transform="matrix(0.999992,0,0,-0.999992,30000.2,71306.9)"
font-family="MS Shell Dlg 2" font-size="10.3125" font-weight="400" font-style="normal" 
>
<path vector-effect="non-scaling-stroke" fill-rule="evenodd" d="M-6571.07,7278.17 L-2117.03,7278.17 L-2117.03,7753.1 L-2117,7753.17 L-125.028,7753.17 L-125,7753.1 L-125,7278.17 L-100,7283.15 L-100,-2696.83 L-100,-2721.83 L-100,-3196.83 L-1250.61,-3196.83 L-1250.63,-3196.75 L-1250.63,-2721.83 L-4538.11,-2721.83 L-4566.99,-2636.75 L-4695.62,-2490.07 L-4870.59,-2403.79 L-4900,-2401.86 L-4900,4519.89 L-4808.66,4538.06 L-4646.45,4646.45 L-4538.06,4808.66 L-4500,5000 L-4538.06,5191.34 L-4646.45,5353.55 L-4929.29,5070.71 L-4961.73,5092.39 L-5000,5100 L-5038.27,5092.39 L-5049.52,5084.87 L-6390.88,6426.24 L-6390.85,6426.31 L-6055.03,6762.13 L-6571.07,7278.17"/>
</g>

<g fill="none" stroke="#000000" stroke-opacity="1" stroke-width="1" stroke-linecap="square" stroke-linejoin="bevel" transform="matrix(0.999992,0,0,-0.999992,30000.2,71306.9)"
font-family="MS Shell Dlg 2" font-size="10.3125" font-weight="400" font-style="normal" 
>
</g>

<g fill="none" stroke="#000000" stroke-opacity="1" stroke-width="1" stroke-linecap="square" stroke-linejoin="bevel" transform="matrix(0.999992,0,0,-0.999992,30000.2,71306.9)"
font-family="MS Shell Dlg 2" font-size="10.3125" font-weight="400" font-style="normal" 
>
</g>

<g fill="#ae5151" fill-opacity="0.2" stroke="#333333" stroke-opacity="1" stroke-width="1" stroke-linecap="round" stroke-linejoin="round" transform="matrix(0.999992,0,0,-0.999992,30000.2,71306.9)"
font-family="MS Shell Dlg 2" font-size="10.3125" font-weight="400" font-style="normal" 
>
<path vector-effect="non-scaling-stroke" fill-rule="evenodd" d="M-5587.06,-3196.83 L-6278.16,-3196.83 L-6278.17,-3196.75 L-6278.17,-2721.83 L-6365.87,-2721.83 L-6392.36,-2647.8 L-6455.29,-2514.73 L-6530.97,-2388.47 L-6618.66,-2270.24 L-6717.51,-2161.17 L-6826.58,-2062.31 L-6944.82,-1974.62 L-7071.08,-1898.94 L-7204.15,-1836.01 L-7342.75,-1786.41 L-7485.54,-1750.65 L-7631.15,-1729.05 L-7778.17,-1721.83 L-7925.2,-1729.05 L-8051.83,-1747.83 L-8094.36,-1674.18 L-8476.39,-1894.74 L-8485.27,-1898.94 L-8505.93,-1911.32 L-9452.08,-272.532 L-9452.03,-272.473 L-9040.73,-35.0085 L-11898.8,4915.28 L-12310.1,4677.82 L-12310.2,4677.81 L-12617.4,5209.96 L-12494.2,6757.08 L-10611.9,7843.8 L-10625,7778.17 L-10586.9,7586.83 L-10478.6,7424.62 L-10316.3,7316.23 L-10125,7278.17 L-10125,7753.1 L-10125,7753.17 L-8460.28,7753.17 L-8184.8,7477.69 L-8132.97,7529.52 L-8132.97,7278.17 L-7313.53,7278.17 L-6440.36,6405.01 L-6440.39,6404.94 L-6776.22,6069.11 L-5353.55,4646.45 L-5191.34,4538.06 L-5100,4519.89 L-5100,-2402.82 L-5250,-2453.74 L-5100,-2713.55 L-5100,-2886.75 L-5100,-2915.62 L-5587.06,-3196.83"/>
</g>

<g fill="none" stroke="#000000" stroke-opacity="1" stroke-width="1" stroke-linecap="square" stroke-linejoin="bevel" transform="matrix(0.999992,0,0,-0.999992,30000.2,71306.9)"
font-family="MS Shell Dlg 2" font-size="10.3125" font-weight="400" font-style="normal" 
>
</g>

<g fill="none" stroke="#000000" stroke-opacity="1" stroke-width="1" stroke-linecap="square" stroke-linejoin="bevel" transform="matrix(0.999992,0,0,-0.999992,30000.2,71306.9)"
font-family="MS Shell Dlg 2" font-size="10.3125" font-weight="400" font-style="normal" 
>
</g>

<g fill="#ae5151" fill-opacity="0.2" stroke="#333333" stroke-opacity="1" stroke-width="1" stroke-linecap="round" stroke-linejoin="round" transform="matrix(0.999992,0,0,-0.999992,30000.2,71306.9)"
font-family="MS Shell Dlg 2" font-size="10.3125" font-weight="400" font-style="normal" 
>
<path vector-effect="non-scaling-stroke" fill-rule="evenodd" d="M6278.17,-2721.83 L6278.17,-3047.36 L5250,-2453.74 L5100,-2402.82 L5100,4519.89 L5191.34,4538.06 L5353.55,4646.45 L5100,4900 L5100,5000 L5092.39,5038.27 L5084.87,5049.52 L6426.24,6390.88 L6426.31,6390.85 L6762.13,6055.03 L7985.28,7278.17 L8132.97,7278.17 L8132.97,7425.86 L8460.28,7753.17 L10125,7753.17 L10125,7753.1 L10125,7278.17 L10316.3,7316.23 L10478.6,7424.62 L10586.9,7586.83 L10625,7778.17 L10611.9,7843.8 L12494.2,6757.08 L12550.9,6044.82 L11889.3,4898.89 L12300.6,4661.43 L12300.7,4661.37 L11354.3,3022.25 L11354.2,3022.26 L10942.9,3259.72 L9996.57,1620.55 L10407.9,1383.09 L10407.9,1383.03 L9461.57,-256.094 L9461.5,-256.081 L9050.2,-18.6168 L8051.83,-1747.83 L7925.2,-1729.05 L7778.17,-1721.83 L7631.15,-1729.05 L7485.54,-1750.65 L7342.75,-1786.41 L7204.15,-1836.01 L7071.08,-1898.94 L6944.82,-1974.62 L6826.58,-2062.31 L6717.51,-2161.17 L6618.66,-2270.24 L6530.97,-2388.47 L6455.29,-2514.73 L6392.36,-2647.8 L6365.87,-2721.83 L6278.17,-2721.83"/>
</g>

<g fill="none" stroke="#000000" stroke-opacity="1" stroke-width="1" stroke-linecap="square" stroke-linejoin="bevel" transform="matrix(0.999992,0,0,-0.999992,30000.2,71306.9)"
font-family="MS Shell Dlg 2" font-size="10.3125" font-weight="400" font-style="normal" 
>
</g>

<g fill="none" stroke="#000000" stroke-opacity="1" stroke-width="1" stroke-linecap="square" stroke-linejoin="bevel" transform="matrix(0.999992,0,0,-0.999992,30000.2,71306.9)"
font-family="MS Shell Dlg 2" font-size="10.3125" font-weight="400" font-style="normal" 
>
</g>

<g fill="#ae5151" fill-opacity="0.2" stroke="#333333" stroke-opacity="1" stroke-width="1" stroke-linecap="round" stroke-linejoin="round" transform="matrix(0.999992,0,0,-0.999992,30000.2,71306.9)"
font-family="MS Shell Dlg 2" font-size="10.3125" font-weight="400" font-style="normal" 
>
<path vector-effect="non-scaling-stroke" fill-rule="evenodd" d="M12676.6,4466.2 L12353.5,4652.75 L12353.5,4652.81 L12624.4,5122.08 L12676.6,4466.2"/>
</g>

<g fill="none" stroke="#000000" stroke-opacity="1" stroke-width="1" stroke-linecap="square" stroke-linejoin="bevel" transform="matrix(0.999992,0,0,-0.999992,30000.2,71306.9)"
font-family="MS Shell Dlg 2" font-size="10.3125" font-weight="400" font-style="normal" 
>
</g>

<g fill="none" stroke="#000000" stroke-opacity="1" stroke-width="1" stroke-linecap="square" stroke-linejoin="bevel" transform="matrix(1,0,0,-1,0,115307)"
font-family="MS Shell Dlg 2" font-size="10.3125" font-weight="400" font-style="normal" 
>
</g>
</g>
</svg>
