<?xml version="1.0" encoding="UTF-8" standalone="no"?>
<svg width="16933.6mm" height="28866.3mm"
 xmlns="http://www.w3.org/2000/svg" xmlns:xlink="http://www.w3.org/1999/xlink"  version="1.2" baseProfile="tiny">
<title>SVG Generator Example Drawing</title>
<desc>An SVG drawing created by the SVG Generator</desc>
<defs>
</defs>
<g fill="none" stroke="black" stroke-width="1" fill-rule="evenodd" stroke-linecap="square" stroke-linejoin="bevel" >

<g fill="none" stroke="#000000" stroke-opacity="1" stroke-width="1" stroke-linecap="square" stroke-linejoin="bevel" transform="matrix(1,0,0,-1,0,102282)"
font-family="MS Shell Dlg 2" font-size="10.3125" font-weight="400" font-style="normal" 
>
</g>

<g fill="none" stroke="#000000" stroke-opacity="1" stroke-width="1" stroke-linecap="square" stroke-linejoin="bevel" transform="matrix(1,0,0,-1,0,102282)"
font-family="MS Shell Dlg 2" font-size="10.3125" font-weight="400" font-style="normal" 
>
</g>

<g fill="none" stroke="#000000" stroke-opacity="1" stroke-width="1" stroke-linecap="square" stroke-linejoin="bevel" transform="matrix(0.999999,0,0,-0.999999,30000.5,71306.6)"
font-family="MS Shell Dlg 2" font-size="10.3125" font-weight="400" font-style="normal" 
>
</g>

<g fill="#ae5151" fill-opacity="0.2" stroke="#333333" stroke-opacity="1" stroke-width="1" stroke-linecap="round" stroke-linejoin="round" transform="matrix(0.999999,0,0,-0.999999,30000.5,71306.6)"
font-family="MS Shell Dlg 2" font-size="10.3125" font-weight="400" font-style="normal" 
>
<path vector-effect="non-scaling-stroke" fill-rule="evenodd" d="M-2988.05,-30500.1 L-2988.15,-30500 L-4999.86,-30500 L-5000,-30499.9 L-5000,-26618.3 L-4999.86,-26618.2 L4999.86,-26618.2 L5000,-26618.3 L5000,-30499.9 L4999.86,-30500 L2988.15,-30500 L2988.05,-30500.1 L2988.05,-30974.9 L2987.91,-30975 L996.157,-30975 L996.016,-30974.9 L996.016,-30500.1 L995.916,-30500 L-995.916,-30500 L-996.016,-30500.1 L-996.016,-30974.9 L-996.157,-30975 L-2987.91,-30975 L-2988.05,-30974.9 L-2988.05,-30500.1"/>
</g>

<g fill="none" stroke="#000000" stroke-opacity="1" stroke-width="1" stroke-linecap="square" stroke-linejoin="bevel" transform="matrix(0.999999,0,0,-0.999999,30000.5,71306.6)"
font-family="MS Shell Dlg 2" font-size="10.3125" font-weight="400" font-style="normal" 
>
</g>

<g fill="none" stroke="#000000" stroke-opacity="1" stroke-width="1" stroke-linecap="square" stroke-linejoin="bevel" transform="matrix(0.999999,0,0,-0.999999,30000.5,71306.6)"
font-family="MS Shell Dlg 2" font-size="10.3125" font-weight="400" font-style="normal" 
>
</g>

<g fill="#ae5151" fill-opacity="0.2" stroke="#333333" stroke-opacity="1" stroke-width="1" stroke-linecap="round" stroke-linejoin="round" transform="matrix(0.999999,0,0,-0.999999,30000.5,71306.6)"
font-family="MS Shell Dlg 2" font-size="10.3125" font-weight="400" font-style="normal" 
>
<path vector-effect="non-scaling-stroke" fill-rule="evenodd" d="M-4750.01,-3319.77 L-4749.99,-3319.76 L-4666.87,-3246.86 L-4666.77,-3246.83 L-3764.54,-3246.83 L-3764.4,-3246.97 L-3764.4,-3721.73 L-3764.3,-3721.83 L-2513.87,-3721.83 L-2513.77,-3721.73 L-2513.77,-3246.97 L-2513.63,-3246.83 L-1263.28,-3246.83 L-1263.14,-3246.97 L-1263.14,-3721.73 L-1263.04,-3721.83 L1263.04,-3721.83 L1263.14,-3721.73 L1263.14,-3246.97 L1263.28,-3246.83 L2513.63,-3246.83 L2513.77,-3246.97 L2513.77,-3721.73 L2513.87,-3721.83 L3764.3,-3721.83 L3764.4,-3721.73 L3764.4,-3246.97 L3764.54,-3246.83 L4666.77,-3246.83 L4666.87,-3246.86 L4749.91,-3319.68 L4750.06,-3319.66 L4792.07,-3246.9 L4792.2,-3246.83 L4899.86,-3246.83 L4900,-3246.97 L4900,-6064.58 L4899.96,-6064.69 L4576.5,-6388.14 L4576.3,-6388.14 L4240.6,-6052.44 L4240.46,-6052.44 L3184.16,-7108.73 L3184.16,-7108.87 L3519.87,-7444.58 L3519.87,-7444.78 L2555.59,-8409.05 L2555.56,-8409.08 L2438.97,-8476.39 L2438.79,-8476.37 L2127.73,-8165.3 L2127.59,-8165.3 L1014.11,-9278.78 L1013.94,-9278.8 L942.798,-9236.16 L942.789,-9236.16 L765.371,-9152.24 L765.362,-9152.24 L580.574,-9086.12 L580.565,-9086.12 L390.185,-9038.43 L390.176,-9038.43 L196.039,-9009.63 L196.029,-9009.63 L0.00490677,-9000 L-0.00490677,-9000 L-196.029,-9009.63 L-196.039,-9009.63 L-390.176,-9038.43 L-390.185,-9038.43 L-580.565,-9086.12 L-580.574,-9086.12 L-765.362,-9152.24 L-765.371,-9152.24 L-942.789,-9236.16 L-942.798,-9236.16 L-1013.94,-9278.8 L-1014.11,-9278.78 L-1060.59,-9232.3 L-1060.73,-9232.3 L-1085.89,-9257.47 L-1086.07,-9257.49 L-2425.32,-8484.27 L-2425.35,-8484.05 L-2117.17,-8175.87 L-2117.17,-8175.73 L-4899.96,-5392.94 L-4900,-5392.83 L-4900,-3406.45 L-4899.93,-3406.32 L-4750.01,-3319.77"/>
</g>

<g fill="none" stroke="#000000" stroke-opacity="1" stroke-width="1" stroke-linecap="square" stroke-linejoin="bevel" transform="matrix(0.999999,0,0,-0.999999,30000.5,71306.6)"
font-family="MS Shell Dlg 2" font-size="10.3125" font-weight="400" font-style="normal" 
>
</g>

<g fill="none" stroke="#000000" stroke-opacity="1" stroke-width="1" stroke-linecap="square" stroke-linejoin="bevel" transform="matrix(0.999999,0,0,-0.999999,30000.5,71306.6)"
font-family="MS Shell Dlg 2" font-size="10.3125" font-weight="400" font-style="normal" 
>
</g>

<g fill="#ae5151" fill-opacity="0.2" stroke="#333333" stroke-opacity="1" stroke-width="1" stroke-linecap="round" stroke-linejoin="round" transform="matrix(0.999999,0,0,-0.999999,30000.5,71306.6)"
font-family="MS Shell Dlg 2" font-size="10.3125" font-weight="400" font-style="normal" 
>
<path vector-effect="non-scaling-stroke" fill-rule="evenodd" d="M-30000,3146.07 L-30000,3620.93 L-29999.9,3621.07 L-27216.5,3621.07 L-27216.4,3620.93 L-27216.4,3146.17 L-27216.3,3146.07 L-18810,3146.07 L-18809.9,3146.17 L-18809.9,3620.93 L-18809.7,3621.07 L-16026.4,3621.07 L-16026.3,3620.93 L-16026.3,646.271 L-16026.3,646.166 L-16026.4,646.111 L-16026.5,646.068 L-29999.8,646.068 L-29999.9,646.111 L-30000,646.166 L-30000,646.271 L-30000,3146.07"/>
</g>

<g fill="none" stroke="#000000" stroke-opacity="1" stroke-width="1" stroke-linecap="square" stroke-linejoin="bevel" transform="matrix(0.999999,0,0,-0.999999,30000.5,71306.6)"
font-family="MS Shell Dlg 2" font-size="10.3125" font-weight="400" font-style="normal" 
>
</g>

<g fill="none" stroke="#000000" stroke-opacity="1" stroke-width="1" stroke-linecap="square" stroke-linejoin="bevel" transform="matrix(0.999999,0,0,-0.999999,30000.5,71306.6)"
font-family="MS Shell Dlg 2" font-size="10.3125" font-weight="400" font-style="normal" 
>
</g>

<g fill="#ae5151" fill-opacity="0.2" stroke="#333333" stroke-opacity="1" stroke-width="1" stroke-linecap="round" stroke-linejoin="round" transform="matrix(0.999999,0,0,-0.999999,30000.5,71306.6)"
font-family="MS Shell Dlg 2" font-size="10.3125" font-weight="400" font-style="normal" 
>
<path vector-effect="non-scaling-stroke" fill-rule="evenodd" d="M18837.7,4145.97 L18837.6,4146.07 L16026.4,4146.07 L16026.3,4146.21 L16026.3,8072.59 L16026.4,8072.73 L29999.9,8072.73 L30000,8072.59 L30000,4146.21 L29999.9,4146.07 L27188.7,4146.07 L27188.6,4145.97 L27188.6,3671.21 L27188.4,3671.07 L24405.1,3671.07 L24404.9,3671.21 L24404.9,4145.97 L24404.8,4146.07 L21621.4,4146.07 L21621.3,4145.97 L21621.3,3671.21 L21621.2,3671.07 L19765.6,3671.07 L18837.9,3671.07 L18837.7,3671.21 L18837.7,4145.97"/>
</g>

<g fill="none" stroke="#000000" stroke-opacity="1" stroke-width="1" stroke-linecap="square" stroke-linejoin="bevel" transform="matrix(0.999999,0,0,-0.999999,30000.5,71306.6)"
font-family="MS Shell Dlg 2" font-size="10.3125" font-weight="400" font-style="normal" 
>
</g>

<g fill="none" stroke="#000000" stroke-opacity="1" stroke-width="1" stroke-linecap="square" stroke-linejoin="bevel" transform="matrix(0.999999,0,0,-0.999999,30000.5,71306.6)"
font-family="MS Shell Dlg 2" font-size="10.3125" font-weight="400" font-style="normal" 
>
</g>

<g fill="#ae5151" fill-opacity="0.2" stroke="#333333" stroke-opacity="1" stroke-width="1" stroke-linecap="round" stroke-linejoin="round" transform="matrix(0.999999,0,0,-0.999999,30000.5,71306.6)"
font-family="MS Shell Dlg 2" font-size="10.3125" font-weight="400" font-style="normal" 
>
<path vector-effect="non-scaling-stroke" fill-rule="evenodd" d="M-10316.3,37533 L-10316.4,37533 L-10374.8,37494 L-10375,37494.1 L-10375,43970.9 L-10374.9,43971.1 L10374.9,43971.1 L10375,43970.9 L10375,37494.1 L10374.8,37494 L10316.4,37533 L10316.3,37533 L10125.1,37571 L10125,37570.9 L10125,37096.2 L10124.9,37096.1 L8133.11,37096.1 L8132.97,37096.2 L8132.97,37571 L8132.87,37571.1 L2117.13,37571.1 L2117.03,37571 L2117.03,37096.2 L2116.89,37096.1 L125.141,37096.1 L125,37096.2 L125,37570.9 L124.88,37571 L0.0291689,37546.2 L-0.0291689,37546.2 L-124.88,37571 L-125,37570.9 L-125,37096.2 L-125.141,37096.1 L-2116.89,37096.1 L-2117.03,37096.2 L-2117.03,37571 L-2117.13,37571.1 L-8132.87,37571.1 L-8132.97,37571 L-8132.97,37096.2 L-8133.11,37096.1 L-10124.9,37096.1 L-10125,37096.2 L-10125,37570.9 L-10125.1,37571 L-10316.3,37533"/>
</g>

<g fill="none" stroke="#000000" stroke-opacity="1" stroke-width="1" stroke-linecap="square" stroke-linejoin="bevel" transform="matrix(0.999999,0,0,-0.999999,30000.5,71306.6)"
font-family="MS Shell Dlg 2" font-size="10.3125" font-weight="400" font-style="normal" 
>
</g>

<g fill="none" stroke="#000000" stroke-opacity="1" stroke-width="1" stroke-linecap="square" stroke-linejoin="bevel" transform="matrix(0.999999,0,0,-0.999999,30000.5,71306.6)"
font-family="MS Shell Dlg 2" font-size="10.3125" font-weight="400" font-style="normal" 
>
</g>

<g fill="#ae5151" fill-opacity="0.2" stroke="#333333" stroke-opacity="1" stroke-width="1" stroke-linecap="round" stroke-linejoin="round" transform="matrix(0.999999,0,0,-0.999999,30000.5,71306.6)"
font-family="MS Shell Dlg 2" font-size="10.3125" font-weight="400" font-style="normal" 
>
<path vector-effect="non-scaling-stroke" fill-rule="evenodd" d="M16026.4,64155.6 L16026.3,64155.7 L16026.3,67805.9 L16026.4,67806.1 L18837.7,67806.1 L21621.3,67806.1 L24404.9,67806.1 L27188.6,67806.1 L29999.9,67806.1 L30000,67805.9 L30000,64155.7 L29999.9,64155.6 L16026.4,64155.6"/>
</g>

<g fill="none" stroke="#000000" stroke-opacity="1" stroke-width="1" stroke-linecap="square" stroke-linejoin="bevel" transform="matrix(0.999999,0,0,-0.999999,30000.5,71306.6)"
font-family="MS Shell Dlg 2" font-size="10.3125" font-weight="400" font-style="normal" 
>
</g>

<g fill="none" stroke="#000000" stroke-opacity="1" stroke-width="1" stroke-linecap="square" stroke-linejoin="bevel" transform="matrix(0.999999,0,0,-0.999999,30000.5,71306.6)"
font-family="MS Shell Dlg 2" font-size="10.3125" font-weight="400" font-style="normal" 
>
</g>

<g fill="#ae5151" fill-opacity="0.2" stroke="#333333" stroke-opacity="1" stroke-width="1" stroke-linecap="round" stroke-linejoin="round" transform="matrix(0.999999,0,0,-0.999999,30000.5,71306.6)"
font-family="MS Shell Dlg 2" font-size="10.3125" font-weight="400" font-style="normal" 
>
<path vector-effect="non-scaling-stroke" fill-rule="evenodd" d="M-29999.9,68806.1 L-30000,68806.2 L-30000,71305.9 L-30000,71306 L-29999.9,71306 L-29999.8,71306.1 L-16026.5,71306.1 L-16026.4,71306 L-16026.3,71306 L-16026.3,71305.9 L-16026.3,68806.2 L-16026.4,68806.1 L-18837.7,68806.1 L-21621.3,68806.1 L-24404.9,68806.1 L-27188.6,68806.1 L-29999.9,68806.1"/>
</g>

<g fill="none" stroke="#000000" stroke-opacity="1" stroke-width="1" stroke-linecap="square" stroke-linejoin="bevel" transform="matrix(0.999999,0,0,-0.999999,30000.5,71306.6)"
font-family="MS Shell Dlg 2" font-size="10.3125" font-weight="400" font-style="normal" 
>
</g>

<g fill="none" stroke="#000000" stroke-opacity="1" stroke-width="1" stroke-linecap="square" stroke-linejoin="bevel" transform="matrix(1,0,0,-1,0,102282)"
font-family="MS Shell Dlg 2" font-size="10.3125" font-weight="400" font-style="normal" 
>
</g>
</g>
</svg>
