<?xml version="1.0" encoding="UTF-8" standalone="no"?>
<svg width="17903.6mm" height="18326.7mm"
 xmlns="http://www.w3.org/2000/svg" xmlns:xlink="http://www.w3.org/1999/xlink"  version="1.2" baseProfile="tiny">
<title>SVG Generator Example Drawing</title>
<desc>An SVG drawing created by the SVG Generator</desc>
<defs>
</defs>
<g fill="none" stroke="black" stroke-width="1" fill-rule="evenodd" stroke-linecap="square" stroke-linejoin="bevel" >

<g fill="none" stroke="#000000" stroke-opacity="1" stroke-width="1" stroke-linecap="square" stroke-linejoin="bevel" transform="matrix(1,0,0,-1,0,64937.1)"
font-family="MS Shell Dlg 2" font-size="10.3125" font-weight="400" font-style="normal" 
>
</g>

<g fill="none" stroke="#000000" stroke-opacity="1" stroke-width="1" stroke-linecap="square" stroke-linejoin="bevel" transform="matrix(1,0,0,-1,0,64937.1)"
font-family="MS Shell Dlg 2" font-size="10.3125" font-weight="400" font-style="normal" 
>
</g>

<g fill="none" stroke="#000000" stroke-opacity="1" stroke-width="1" stroke-linecap="square" stroke-linejoin="bevel" transform="matrix(0.999988,0,0,-0.999988,34404.9,36758.9)"
font-family="MS Shell Dlg 2" font-size="10.3125" font-weight="400" font-style="normal" 
>
</g>

<g fill="#333333" fill-opacity="0.2" stroke="#333333" stroke-opacity="1" stroke-width="1" stroke-linecap="round" stroke-linejoin="round" transform="matrix(0.999988,0,0,-0.999988,34404.9,36758.9)"
font-family="MS Shell Dlg 2" font-size="10.3125" font-weight="400" font-style="normal" 
>
<path vector-effect="non-scaling-stroke" fill-rule="evenodd" d="M-33877.3,8942.86 L-34070.4,8970.02 L-34238.5,9069.05 L-34355.9,9224.86 L-34404.8,9413.74 L-34377.6,9606.93 L-34278.6,9775.02 L-34122.8,9892.42 L-33933.9,9941.26 L-4566.82,11607.5 L-21441.1,35981.5 L-21518.8,36160.5 L-21522,36355.5 L-21450.3,36537 L-21314.6,36677.2 L-21135.7,36754.8 L-20940.6,36758 L-20759.2,36686.4 L-20618.9,36550.7 L-3511.45,11839.9 L28271.2,32180.8 L28452.9,32251.9 L28648,32248 L28826.7,32169.8 L28961.9,32029.2 L29033,31847.5 L29029.1,31652.5 L28950.9,31473.7 L28810.3,31338.5 L-2818.37,11096.2 L22861.9,-11426.7 L22980.6,-11581.4 L23031.1,-11769.9 L23005.6,-11963.3 L22908.1,-12132.3 L22753.3,-12251 L22564.9,-12301.5 L22371.4,-12276 L22202.5,-12178.5 L-3275.24,10166.7 L-8302.62,-27748.1 L-8365.5,-27932.8 L-8494.27,-28079.4 L-8669.32,-28165.5 L-8864.01,-28178.1 L-9048.68,-28115.2 L-9195.24,-27986.4 L-9281.37,-27811.4 L-9293.94,-27616.7 L-4223.18,10625.4 L-33877.3,8942.86"/>
</g>

<g fill="none" stroke="#000000" stroke-opacity="1" stroke-width="1" stroke-linecap="square" stroke-linejoin="bevel" transform="matrix(0.999988,0,0,-0.999988,34404.9,36758.9)"
font-family="MS Shell Dlg 2" font-size="10.3125" font-weight="400" font-style="normal" 
>
</g>

<g fill="none" stroke="#000000" stroke-opacity="1" stroke-width="1" stroke-linecap="square" stroke-linejoin="bevel" transform="matrix(0.999988,0,0,-0.999988,34404.9,36758.9)"
font-family="MS Shell Dlg 2" font-size="10.3125" font-weight="400" font-style="normal" 
>
</g>

<g fill="#ae5151" fill-opacity="0.2" stroke="#333333" stroke-opacity="1" stroke-width="1" stroke-linecap="round" stroke-linejoin="round" transform="matrix(0.999988,0,0,-0.999988,34404.9,36758.9)"
font-family="MS Shell Dlg 2" font-size="10.3125" font-weight="400" font-style="normal" 
>
<path vector-effect="non-scaling-stroke" fill-rule="evenodd" d="M-33877.3,8942.86 L-34070.4,8970.02 L-34238.5,9069.05 L-34355.9,9224.86 L-34404.8,9413.74 L-34377.6,9606.93 L-34278.6,9775.02 L-34122.8,9892.42 L-33933.9,9941.26 L-4566.82,11607.5 L-21441.1,35981.5 L-21518.8,36160.5 L-21522,36355.5 L-21450.3,36537 L-21314.6,36677.2 L-21135.7,36754.8 L-20940.6,36758 L-20759.2,36686.4 L-20618.9,36550.7 L-3511.45,11839.9 L28271.2,32180.8 L28452.9,32251.9 L28648,32248 L28826.7,32169.8 L28961.9,32029.2 L29033,31847.5 L29029.1,31652.5 L28950.9,31473.7 L28810.3,31338.5 L-2818.37,11096.2 L22861.9,-11426.7 L22980.6,-11581.4 L23031.1,-11769.9 L23005.6,-11963.3 L22908.1,-12132.3 L22753.3,-12251 L22564.9,-12301.5 L22371.4,-12276 L22202.5,-12178.5 L-3275.24,10166.7 L-8302.62,-27748.1 L-8365.5,-27932.8 L-8494.27,-28079.4 L-8669.32,-28165.5 L-8864.01,-28178.1 L-9048.68,-28115.2 L-9195.24,-27986.4 L-9281.37,-27811.4 L-9293.94,-27616.7 L-4223.18,10625.4 L-33877.3,8942.86"/>
</g>

<g fill="none" stroke="#000000" stroke-opacity="1" stroke-width="1" stroke-linecap="square" stroke-linejoin="bevel" transform="matrix(0.999988,0,0,-0.999988,34404.9,36758.9)"
font-family="MS Shell Dlg 2" font-size="10.3125" font-weight="400" font-style="normal" 
>
</g>

<g fill="none" stroke="#000000" stroke-opacity="1" stroke-width="1" stroke-linecap="square" stroke-linejoin="bevel" transform="matrix(0.999988,0,0,-0.999988,34404.9,36758.9)"
font-family="MS Shell Dlg 2" font-size="10.3125" font-weight="400" font-style="normal" 
>
</g>

<g fill="#ffff00" fill-opacity="0.2" stroke="#333333" stroke-opacity="1" stroke-width="1" stroke-linecap="round" stroke-linejoin="round" transform="matrix(0.999988,0,0,-0.999988,34404.9,36758.9)"
font-family="MS Shell Dlg 2" font-size="10.3125" font-weight="400" font-style="normal" 
>
<path vector-effect="non-scaling-stroke" fill-rule="evenodd" d="M-33877.3,8942.86 L-34070.4,8970.02 L-34238.5,9069.05 L-34355.9,9224.86 L-34404.8,9413.74 L-34377.6,9606.93 L-34278.6,9775.02 L-34122.8,9892.42 L-33933.9,9941.26 L-4566.82,11607.5 L-21441.1,35981.5 L-21518.8,36160.5 L-21522,36355.5 L-21450.3,36537 L-21314.6,36677.2 L-21135.7,36754.8 L-20940.6,36758 L-20759.2,36686.4 L-20618.9,36550.7 L-3511.45,11839.9 L28271.2,32180.8 L28452.9,32251.9 L28648,32248 L28826.7,32169.8 L28961.9,32029.2 L29033,31847.5 L29029.1,31652.5 L28950.9,31473.7 L28810.3,31338.5 L-2818.37,11096.2 L22861.9,-11426.7 L22980.6,-11581.4 L23031.1,-11769.9 L23005.6,-11963.3 L22908.1,-12132.3 L22753.3,-12251 L22564.9,-12301.5 L22371.4,-12276 L22202.5,-12178.5 L-3275.24,10166.7 L-8302.62,-27748.1 L-8365.5,-27932.8 L-8494.27,-28079.4 L-8669.32,-28165.5 L-8864.01,-28178.1 L-9048.68,-28115.2 L-9195.24,-27986.4 L-9281.37,-27811.4 L-9293.94,-27616.7 L-4223.18,10625.4 L-33877.3,8942.86"/>
</g>

<g fill="none" stroke="#000000" stroke-opacity="1" stroke-width="1" stroke-linecap="square" stroke-linejoin="bevel" transform="matrix(0.999988,0,0,-0.999988,34404.9,36758.9)"
font-family="MS Shell Dlg 2" font-size="10.3125" font-weight="400" font-style="normal" 
>
</g>

<g fill="none" stroke="#000000" stroke-opacity="1" stroke-width="1" stroke-linecap="square" stroke-linejoin="bevel" transform="matrix(0.999988,0,0,-0.999988,34404.9,36758.9)"
font-family="MS Shell Dlg 2" font-size="10.3125" font-weight="400" font-style="normal" 
>
</g>

<g fill="#ae5151" fill-opacity="0.2" stroke="#333333" stroke-opacity="1" stroke-width="1" stroke-linecap="round" stroke-linejoin="round" transform="matrix(0.999988,0,0,-0.999988,34404.9,36758.9)"
font-family="MS Shell Dlg 2" font-size="10.3125" font-weight="400" font-style="normal" 
>
<path vector-effect="non-scaling-stroke" fill-rule="evenodd" d="M-33877.3,8942.86 L-34070.4,8970.02 L-34238.5,9069.05 L-34355.9,9224.86 L-34404.8,9413.74 L-34377.6,9606.93 L-34278.6,9775.02 L-34122.8,9892.42 L-33933.9,9941.26 L-4566.82,11607.5 L-21441.1,35981.5 L-21518.8,36160.5 L-21522,36355.5 L-21450.3,36537 L-21314.6,36677.2 L-21135.7,36754.8 L-20940.6,36758 L-20759.2,36686.4 L-20618.9,36550.7 L-3511.45,11839.9 L28271.2,32180.8 L28452.9,32251.9 L28648,32248 L28826.7,32169.8 L28961.9,32029.2 L29033,31847.5 L29029.1,31652.5 L28950.9,31473.7 L28810.3,31338.5 L-2818.37,11096.2 L22861.9,-11426.7 L22980.6,-11581.4 L23031.1,-11769.9 L23005.6,-11963.3 L22908.1,-12132.3 L22753.3,-12251 L22564.9,-12301.5 L22371.4,-12276 L22202.5,-12178.5 L-3275.24,10166.7 L-8302.62,-27748.1 L-8365.5,-27932.8 L-8494.27,-28079.4 L-8669.32,-28165.5 L-8864.01,-28178.1 L-9048.68,-28115.2 L-9195.24,-27986.4 L-9281.37,-27811.4 L-9293.94,-27616.7 L-4223.18,10625.4 L-33877.3,8942.86"/>
</g>

<g fill="none" stroke="#000000" stroke-opacity="1" stroke-width="1" stroke-linecap="square" stroke-linejoin="bevel" transform="matrix(0.999988,0,0,-0.999988,34404.9,36758.9)"
font-family="MS Shell Dlg 2" font-size="10.3125" font-weight="400" font-style="normal" 
>
</g>

<g fill="none" stroke="#000000" stroke-opacity="1" stroke-width="1" stroke-linecap="square" stroke-linejoin="bevel" transform="matrix(0.999988,0,0,-0.999988,34404.9,36758.9)"
font-family="MS Shell Dlg 2" font-size="10.3125" font-weight="400" font-style="normal" 
>
</g>

<g fill="#333333" fill-opacity="0.2" stroke="#333333" stroke-opacity="1" stroke-width="1" stroke-linecap="round" stroke-linejoin="round" transform="matrix(0.999988,0,0,-0.999988,34404.9,36758.9)"
font-family="MS Shell Dlg 2" font-size="10.3125" font-weight="400" font-style="normal" 
>
<path vector-effect="non-scaling-stroke" fill-rule="evenodd" d="M-33877.3,8942.86 L-34070.4,8970.02 L-34238.5,9069.05 L-34355.9,9224.86 L-34404.8,9413.74 L-34377.6,9606.93 L-34278.6,9775.02 L-34122.8,9892.42 L-33933.9,9941.26 L-4566.82,11607.5 L-21441.1,35981.5 L-21518.8,36160.5 L-21522,36355.5 L-21450.3,36537 L-21314.6,36677.2 L-21135.7,36754.8 L-20940.6,36758 L-20759.2,36686.4 L-20618.9,36550.7 L-3511.45,11839.9 L28271.2,32180.8 L28452.9,32251.9 L28648,32248 L28826.7,32169.8 L28961.9,32029.2 L29033,31847.5 L29029.1,31652.5 L28950.9,31473.7 L28810.3,31338.5 L-2818.37,11096.2 L22861.9,-11426.7 L22980.6,-11581.4 L23031.1,-11769.9 L23005.6,-11963.3 L22908.1,-12132.3 L22753.3,-12251 L22564.9,-12301.5 L22371.4,-12276 L22202.5,-12178.5 L-3275.24,10166.7 L-8302.62,-27748.1 L-8365.5,-27932.8 L-8494.27,-28079.4 L-8669.32,-28165.5 L-8864.01,-28178.1 L-9048.68,-28115.2 L-9195.24,-27986.4 L-9281.37,-27811.4 L-9293.94,-27616.7 L-4223.18,10625.4 L-33877.3,8942.86"/>
</g>

<g fill="none" stroke="#000000" stroke-opacity="1" stroke-width="1" stroke-linecap="square" stroke-linejoin="bevel" transform="matrix(0.999988,0,0,-0.999988,34404.9,36758.9)"
font-family="MS Shell Dlg 2" font-size="10.3125" font-weight="400" font-style="normal" 
>
</g>

<g fill="none" stroke="#000000" stroke-opacity="1" stroke-width="1" stroke-linecap="square" stroke-linejoin="bevel" transform="matrix(1,0,0,-1,0,64937.1)"
font-family="MS Shell Dlg 2" font-size="10.3125" font-weight="400" font-style="normal" 
>
</g>
</g>
</svg>
