<?xml version="1.0" encoding="UTF-8" standalone="no"?>
<svg width="2162.39mm" height="2162.39mm"
 xmlns="http://www.w3.org/2000/svg" xmlns:xlink="http://www.w3.org/1999/xlink"  version="1.2" baseProfile="tiny">
<title>SVG Generator Example Drawing</title>
<desc>An SVG drawing created by the SVG Generator</desc>
<defs>
</defs>
<g fill="none" stroke="black" stroke-width="1" fill-rule="evenodd" stroke-linecap="square" stroke-linejoin="bevel" >

<g fill="none" stroke="#000000" stroke-opacity="1" stroke-width="1" stroke-linecap="square" stroke-linejoin="bevel" transform="matrix(1,0,0,-1,0,7662.74)"
font-family="MS Shell Dlg 2" font-size="10.3125" font-weight="400" font-style="normal" 
>
</g>

<g fill="none" stroke="#000000" stroke-opacity="1" stroke-width="1" stroke-linecap="square" stroke-linejoin="bevel" transform="matrix(1,0,0,-1,0,7662.74)"
font-family="MS Shell Dlg 2" font-size="10.3125" font-weight="400" font-style="normal" 
>
</g>

<g fill="none" stroke="#000000" stroke-opacity="1" stroke-width="1" stroke-linecap="square" stroke-linejoin="bevel" transform="matrix(0.999904,0,0,-0.999904,7478.72,14989.5)"
font-family="MS Shell Dlg 2" font-size="10.3125" font-weight="400" font-style="normal" 
>
</g>

<g fill="#333333" fill-opacity="0.2" stroke="#333333" stroke-opacity="1" stroke-width="1" stroke-linecap="round" stroke-linejoin="round" transform="matrix(0.999904,0,0,-0.999904,7478.72,14989.5)"
font-family="MS Shell Dlg 2" font-size="10.3125" font-weight="400" font-style="normal" 
>
<path vector-effect="non-scaling-stroke" fill-rule="evenodd" d="M182.8,11158.8 L164.353,10783.3 L109.191,10411.4 L17.844,10046.8 L-108.808,9692.79 L-269.544,9352.94 L-462.818,9030.48 L-686.767,8728.52 L-939.236,8449.97 L-1217.79,8197.5 L-1519.75,7973.55 L-1842.21,7780.27 L-2182.06,7619.54 L-2536.03,7492.89 L-2900.7,7401.54 L-3272.58,7346.38 L-3648.07,7327.93 L-4023.56,7346.38 L-4395.43,7401.54 L-4760.11,7492.89 L-5114.08,7619.54 L-5453.93,7780.27 L-5776.39,7973.55 L-6078.35,8197.5 L-6356.9,8449.97 L-6609.37,8728.52 L-6833.32,9030.48 L-7026.59,9352.94 L-7187.33,9692.79 L-7313.98,10046.8 L-7405.33,10411.4 L-7460.49,10783.3 L-7478.94,11158.8 L-7460.49,11534.3 L-7405.33,11906.2 L-7313.98,12270.8 L-7187.33,12624.8 L-7026.59,12964.7 L-6833.32,13287.1 L-6609.37,13589.1 L-6356.9,13867.6 L-6078.35,14120.1 L-5776.39,14344 L-5453.93,14537.3 L-5114.08,14698.1 L-4760.11,14824.7 L-4395.43,14916.1 L-4023.56,14971.2 L-3648.07,14989.7 L-3272.58,14971.2 L-2900.7,14916.1 L-2536.03,14824.7 L-2182.06,14698.1 L-1842.21,14537.3 L-1519.75,14344 L-1217.79,14120.1 L-939.236,13867.6 L-686.767,13589.1 L-462.818,13287.1 L-269.544,12964.7 L-108.808,12624.8 L17.844,12270.8 L109.191,11906.2 L164.353,11534.3 L182.8,11158.8"/>
</g>

<g fill="none" stroke="#000000" stroke-opacity="1" stroke-width="1" stroke-linecap="square" stroke-linejoin="bevel" transform="matrix(0.999904,0,0,-0.999904,7478.72,14989.5)"
font-family="MS Shell Dlg 2" font-size="10.3125" font-weight="400" font-style="normal" 
>
</g>

<g fill="none" stroke="#000000" stroke-opacity="1" stroke-width="1" stroke-linecap="square" stroke-linejoin="bevel" transform="matrix(0.999904,0,0,-0.999904,7478.72,14989.5)"
font-family="MS Shell Dlg 2" font-size="10.3125" font-weight="400" font-style="normal" 
>
</g>

<g fill="#ae5151" fill-opacity="0.2" stroke="#333333" stroke-opacity="1" stroke-width="1" stroke-linecap="round" stroke-linejoin="round" transform="matrix(0.999904,0,0,-0.999904,7478.72,14989.5)"
font-family="MS Shell Dlg 2" font-size="10.3125" font-weight="400" font-style="normal" 
>
<path vector-effect="non-scaling-stroke" fill-rule="evenodd" d="M182.8,11158.8 L164.353,10783.3 L109.191,10411.4 L17.844,10046.8 L-108.808,9692.79 L-269.544,9352.94 L-462.818,9030.48 L-686.767,8728.52 L-939.236,8449.97 L-1217.79,8197.5 L-1519.75,7973.55 L-1842.21,7780.27 L-2182.06,7619.54 L-2536.03,7492.89 L-2900.7,7401.54 L-3272.58,7346.38 L-3648.07,7327.93 L-4023.56,7346.38 L-4395.43,7401.54 L-4760.11,7492.89 L-5114.08,7619.54 L-5453.93,7780.27 L-5776.39,7973.55 L-6078.35,8197.5 L-6356.9,8449.97 L-6609.37,8728.52 L-6833.32,9030.48 L-7026.59,9352.94 L-7187.33,9692.79 L-7313.98,10046.8 L-7405.33,10411.4 L-7460.49,10783.3 L-7478.94,11158.8 L-7460.49,11534.3 L-7405.33,11906.2 L-7313.98,12270.8 L-7187.33,12624.8 L-7026.59,12964.7 L-6833.32,13287.1 L-6609.37,13589.1 L-6356.9,13867.6 L-6078.35,14120.1 L-5776.39,14344 L-5453.93,14537.3 L-5114.08,14698.1 L-4760.11,14824.7 L-4395.43,14916.1 L-4023.56,14971.2 L-3648.07,14989.7 L-3272.58,14971.2 L-2900.7,14916.1 L-2536.03,14824.7 L-2182.06,14698.1 L-1842.21,14537.3 L-1519.75,14344 L-1217.79,14120.1 L-939.236,13867.6 L-686.767,13589.1 L-462.818,13287.1 L-269.544,12964.7 L-108.808,12624.8 L17.844,12270.8 L109.191,11906.2 L164.353,11534.3 L182.8,11158.8"/>
</g>

<g fill="none" stroke="#000000" stroke-opacity="1" stroke-width="1" stroke-linecap="square" stroke-linejoin="bevel" transform="matrix(0.999904,0,0,-0.999904,7478.72,14989.5)"
font-family="MS Shell Dlg 2" font-size="10.3125" font-weight="400" font-style="normal" 
>
</g>

<g fill="none" stroke="#000000" stroke-opacity="1" stroke-width="1" stroke-linecap="square" stroke-linejoin="bevel" transform="matrix(0.999904,0,0,-0.999904,7478.72,14989.5)"
font-family="MS Shell Dlg 2" font-size="10.3125" font-weight="400" font-style="normal" 
>
</g>

<g fill="#ffff00" fill-opacity="0.2" stroke="#333333" stroke-opacity="1" stroke-width="1" stroke-linecap="round" stroke-linejoin="round" transform="matrix(0.999904,0,0,-0.999904,7478.72,14989.5)"
font-family="MS Shell Dlg 2" font-size="10.3125" font-weight="400" font-style="normal" 
>
<path vector-effect="non-scaling-stroke" fill-rule="evenodd" d="M182.8,11158.8 L164.353,10783.3 L109.191,10411.4 L17.844,10046.8 L-108.808,9692.79 L-269.544,9352.94 L-462.818,9030.48 L-686.767,8728.52 L-939.236,8449.97 L-1217.79,8197.5 L-1519.75,7973.55 L-1842.21,7780.27 L-2182.06,7619.54 L-2536.03,7492.89 L-2900.7,7401.54 L-3272.58,7346.38 L-3648.07,7327.93 L-4023.56,7346.38 L-4395.43,7401.54 L-4760.11,7492.89 L-5114.08,7619.54 L-5453.93,7780.27 L-5776.39,7973.55 L-6078.35,8197.5 L-6356.9,8449.97 L-6609.37,8728.52 L-6833.32,9030.48 L-7026.59,9352.94 L-7187.33,9692.79 L-7313.98,10046.8 L-7405.33,10411.4 L-7460.49,10783.3 L-7478.94,11158.8 L-7460.49,11534.3 L-7405.33,11906.2 L-7313.98,12270.8 L-7187.33,12624.8 L-7026.59,12964.7 L-6833.32,13287.1 L-6609.37,13589.1 L-6356.9,13867.6 L-6078.35,14120.1 L-5776.39,14344 L-5453.93,14537.3 L-5114.08,14698.1 L-4760.11,14824.7 L-4395.43,14916.1 L-4023.56,14971.2 L-3648.07,14989.7 L-3272.58,14971.2 L-2900.7,14916.1 L-2536.03,14824.7 L-2182.06,14698.1 L-1842.21,14537.3 L-1519.75,14344 L-1217.79,14120.1 L-939.236,13867.6 L-686.767,13589.1 L-462.818,13287.1 L-269.544,12964.7 L-108.808,12624.8 L17.844,12270.8 L109.191,11906.2 L164.353,11534.3 L182.8,11158.8"/>
</g>

<g fill="none" stroke="#000000" stroke-opacity="1" stroke-width="1" stroke-linecap="square" stroke-linejoin="bevel" transform="matrix(0.999904,0,0,-0.999904,7478.72,14989.5)"
font-family="MS Shell Dlg 2" font-size="10.3125" font-weight="400" font-style="normal" 
>
</g>

<g fill="none" stroke="#000000" stroke-opacity="1" stroke-width="1" stroke-linecap="square" stroke-linejoin="bevel" transform="matrix(0.999904,0,0,-0.999904,7478.72,14989.5)"
font-family="MS Shell Dlg 2" font-size="10.3125" font-weight="400" font-style="normal" 
>
</g>

<g fill="#ae5151" fill-opacity="0.2" stroke="#333333" stroke-opacity="1" stroke-width="1" stroke-linecap="round" stroke-linejoin="round" transform="matrix(0.999904,0,0,-0.999904,7478.72,14989.5)"
font-family="MS Shell Dlg 2" font-size="10.3125" font-weight="400" font-style="normal" 
>
<path vector-effect="non-scaling-stroke" fill-rule="evenodd" d="M182.8,11158.8 L164.353,10783.3 L109.191,10411.4 L17.844,10046.8 L-108.808,9692.79 L-269.544,9352.94 L-462.818,9030.48 L-686.767,8728.52 L-939.236,8449.97 L-1217.79,8197.5 L-1519.75,7973.55 L-1842.21,7780.27 L-2182.06,7619.54 L-2536.03,7492.89 L-2900.7,7401.54 L-3272.58,7346.38 L-3648.07,7327.93 L-4023.56,7346.38 L-4395.43,7401.54 L-4760.11,7492.89 L-5114.08,7619.54 L-5453.93,7780.27 L-5776.39,7973.55 L-6078.35,8197.5 L-6356.9,8449.97 L-6609.37,8728.52 L-6833.32,9030.48 L-7026.59,9352.94 L-7187.33,9692.79 L-7313.98,10046.8 L-7405.33,10411.4 L-7460.49,10783.3 L-7478.94,11158.8 L-7460.49,11534.3 L-7405.33,11906.2 L-7313.98,12270.8 L-7187.33,12624.8 L-7026.59,12964.7 L-6833.32,13287.1 L-6609.37,13589.1 L-6356.9,13867.6 L-6078.35,14120.1 L-5776.39,14344 L-5453.93,14537.3 L-5114.08,14698.1 L-4760.11,14824.7 L-4395.43,14916.1 L-4023.56,14971.2 L-3648.07,14989.7 L-3272.58,14971.2 L-2900.7,14916.1 L-2536.03,14824.7 L-2182.06,14698.1 L-1842.21,14537.3 L-1519.75,14344 L-1217.79,14120.1 L-939.236,13867.6 L-686.767,13589.1 L-462.818,13287.1 L-269.544,12964.7 L-108.808,12624.8 L17.844,12270.8 L109.191,11906.2 L164.353,11534.3 L182.8,11158.8"/>
</g>

<g fill="none" stroke="#000000" stroke-opacity="1" stroke-width="1" stroke-linecap="square" stroke-linejoin="bevel" transform="matrix(0.999904,0,0,-0.999904,7478.72,14989.5)"
font-family="MS Shell Dlg 2" font-size="10.3125" font-weight="400" font-style="normal" 
>
</g>

<g fill="none" stroke="#000000" stroke-opacity="1" stroke-width="1" stroke-linecap="square" stroke-linejoin="bevel" transform="matrix(0.999904,0,0,-0.999904,7478.72,14989.5)"
font-family="MS Shell Dlg 2" font-size="10.3125" font-weight="400" font-style="normal" 
>
</g>

<g fill="#333333" fill-opacity="0.2" stroke="#333333" stroke-opacity="1" stroke-width="1" stroke-linecap="round" stroke-linejoin="round" transform="matrix(0.999904,0,0,-0.999904,7478.72,14989.5)"
font-family="MS Shell Dlg 2" font-size="10.3125" font-weight="400" font-style="normal" 
>
<path vector-effect="non-scaling-stroke" fill-rule="evenodd" d="M182.8,11158.8 L164.353,10783.3 L109.191,10411.4 L17.844,10046.8 L-108.808,9692.79 L-269.544,9352.94 L-462.818,9030.48 L-686.767,8728.52 L-939.236,8449.97 L-1217.79,8197.5 L-1519.75,7973.55 L-1842.21,7780.27 L-2182.06,7619.54 L-2536.03,7492.89 L-2900.7,7401.54 L-3272.58,7346.38 L-3648.07,7327.93 L-4023.56,7346.38 L-4395.43,7401.54 L-4760.11,7492.89 L-5114.08,7619.54 L-5453.93,7780.27 L-5776.39,7973.55 L-6078.35,8197.5 L-6356.9,8449.97 L-6609.37,8728.52 L-6833.32,9030.48 L-7026.59,9352.94 L-7187.33,9692.79 L-7313.98,10046.8 L-7405.33,10411.4 L-7460.49,10783.3 L-7478.94,11158.8 L-7460.49,11534.3 L-7405.33,11906.2 L-7313.98,12270.8 L-7187.33,12624.8 L-7026.59,12964.7 L-6833.32,13287.1 L-6609.37,13589.1 L-6356.9,13867.6 L-6078.35,14120.1 L-5776.39,14344 L-5453.93,14537.3 L-5114.08,14698.1 L-4760.11,14824.7 L-4395.43,14916.1 L-4023.56,14971.2 L-3648.07,14989.7 L-3272.58,14971.2 L-2900.7,14916.1 L-2536.03,14824.7 L-2182.06,14698.1 L-1842.21,14537.3 L-1519.75,14344 L-1217.79,14120.1 L-939.236,13867.6 L-686.767,13589.1 L-462.818,13287.1 L-269.544,12964.7 L-108.808,12624.8 L17.844,12270.8 L109.191,11906.2 L164.353,11534.3 L182.8,11158.8"/>
</g>

<g fill="none" stroke="#000000" stroke-opacity="1" stroke-width="1" stroke-linecap="square" stroke-linejoin="bevel" transform="matrix(0.999904,0,0,-0.999904,7478.72,14989.5)"
font-family="MS Shell Dlg 2" font-size="10.3125" font-weight="400" font-style="normal" 
>
</g>

<g fill="none" stroke="#000000" stroke-opacity="1" stroke-width="1" stroke-linecap="square" stroke-linejoin="bevel" transform="matrix(1,0,0,-1,0,7662.74)"
font-family="MS Shell Dlg 2" font-size="10.3125" font-weight="400" font-style="normal" 
>
</g>
</g>
</svg>
