<?xml version="1.0" encoding="UTF-8" standalone="no"?>
<svg width="1032.09mm" height="1032.09mm"
 xmlns="http://www.w3.org/2000/svg" xmlns:xlink="http://www.w3.org/1999/xlink"  version="1.2" baseProfile="tiny">
<title>SVG Generator Example Drawing</title>
<desc>An SVG drawing created by the SVG Generator</desc>
<defs>
</defs>
<g fill="none" stroke="black" stroke-width="1" fill-rule="evenodd" stroke-linecap="square" stroke-linejoin="bevel" >

<g fill="none" stroke="#000000" stroke-opacity="1" stroke-width="1" stroke-linecap="square" stroke-linejoin="bevel" transform="matrix(1,0,0,-1,0,3657.78)"
font-family="MS Shell Dlg 2" font-size="10.3125" font-weight="400" font-style="normal" 
>
</g>

<g fill="none" stroke="#000000" stroke-opacity="1" stroke-width="1" stroke-linecap="square" stroke-linejoin="bevel" transform="matrix(1,0,0,-1,0,3657.78)"
font-family="MS Shell Dlg 2" font-size="10.3125" font-weight="400" font-style="normal" 
>
</g>

<g fill="none" stroke="#000000" stroke-opacity="1" stroke-width="1" stroke-linecap="square" stroke-linejoin="bevel" transform="matrix(0.99975,0,0,-0.99975,5475.66,12985.4)"
font-family="MS Shell Dlg 2" font-size="10.3125" font-weight="400" font-style="normal" 
>
</g>

<g fill="#333333" fill-opacity="0.2" stroke="#333333" stroke-opacity="1" stroke-width="1" stroke-linecap="round" stroke-linejoin="round" transform="matrix(0.99975,0,0,-0.99975,5475.66,12985.4)"
font-family="MS Shell Dlg 2" font-size="10.3125" font-weight="400" font-style="normal" 
>
<path vector-effect="non-scaling-stroke" fill-rule="evenodd" d="M-5467.72,11338 L-5441.39,11515.5 L-5397.79,11689.6 L-5337.34,11858.5 L-5260.62,12020.7 L-5168.37,12174.6 L-5061.48,12318.8 L-4940.98,12451.7 L-4808.03,12572.2 L-4663.9,12679.1 L-4510,12771.4 L-4347.79,12848.1 L-4178.84,12908.5 L-4004.78,12952.1 L-3827.29,12978.5 L-3648.07,12987.3 L-3468.85,12978.5 L-3291.35,12952.1 L-3117.3,12908.5 L-2948.35,12848.1 L-2786.14,12771.4 L-2632.23,12679.1 L-2488.11,12572.2 L-2355.15,12451.7 L-2234.65,12318.8 L-2127.76,12174.6 L-2126.53,12172.6 L-2035.51,12020.7 L-1958.8,11858.5 L-1898.34,11689.6 L-1854.75,11515.5 L-1828.42,11338 L-1819.61,11158.8 L-1828.42,10979.6 L-1854.75,10802.1 L-1898.34,10628 L-1958.8,10459.1 L-2035.49,10296.9 L-2127.84,10142.9 L-2234.65,9998.84 L-2236.17,9997.16 L-2269.75,9960.11 L-2355.15,9865.88 L-2468.52,9763.14 L-2488.11,9745.38 L-2632.23,9638.49 L-2786.14,9546.24 L-2948.35,9469.52 L-3117.3,9409.07 L-3291.35,9365.47 L-3467.94,9339.28 L-3650.71,9330.47 L-3827.29,9339.15 L-3882.35,9347.31 L-4004.78,9365.47 L-4178.84,9409.07 L-4347.79,9469.52 L-4510,9546.24 L-4663.9,9638.49 L-4808.03,9745.38 L-4940.98,9865.88 L-5061.48,9998.84 L-5168.37,10143 L-5260.62,10296.9 L-5337.34,10459.1 L-5397.79,10628 L-5441.39,10802.1 L-5467.72,10979.6 L-5469.47,11015.2 L-5476.53,11158.8 L-5467.72,11338"/>
</g>

<g fill="none" stroke="#000000" stroke-opacity="1" stroke-width="1" stroke-linecap="square" stroke-linejoin="bevel" transform="matrix(0.99975,0,0,-0.99975,5475.66,12985.4)"
font-family="MS Shell Dlg 2" font-size="10.3125" font-weight="400" font-style="normal" 
>
</g>

<g fill="none" stroke="#000000" stroke-opacity="1" stroke-width="1" stroke-linecap="square" stroke-linejoin="bevel" transform="matrix(0.99975,0,0,-0.99975,5475.66,12985.4)"
font-family="MS Shell Dlg 2" font-size="10.3125" font-weight="400" font-style="normal" 
>
</g>

<g fill="#ae5151" fill-opacity="0.2" stroke="#333333" stroke-opacity="1" stroke-width="1" stroke-linecap="round" stroke-linejoin="round" transform="matrix(0.99975,0,0,-0.99975,5475.66,12985.4)"
font-family="MS Shell Dlg 2" font-size="10.3125" font-weight="400" font-style="normal" 
>
<path vector-effect="non-scaling-stroke" fill-rule="evenodd" d="M-5467.72,11338 L-5441.39,11515.5 L-5397.79,11689.6 L-5337.34,11858.5 L-5260.62,12020.7 L-5168.37,12174.6 L-5061.48,12318.8 L-4940.98,12451.7 L-4808.03,12572.2 L-4663.9,12679.1 L-4510,12771.4 L-4347.79,12848.1 L-4178.84,12908.5 L-4004.78,12952.1 L-3827.29,12978.5 L-3648.07,12987.3 L-3468.85,12978.5 L-3291.35,12952.1 L-3117.3,12908.5 L-2948.35,12848.1 L-2786.14,12771.4 L-2632.23,12679.1 L-2488.11,12572.2 L-2355.15,12451.7 L-2234.65,12318.8 L-2127.76,12174.6 L-2126.53,12172.6 L-2035.51,12020.7 L-1958.8,11858.5 L-1898.34,11689.6 L-1854.75,11515.5 L-1828.42,11338 L-1819.61,11158.8 L-1828.42,10979.6 L-1854.75,10802.1 L-1898.34,10628 L-1958.8,10459.1 L-2035.49,10296.9 L-2127.84,10142.9 L-2234.65,9998.84 L-2236.17,9997.16 L-2269.75,9960.11 L-2355.15,9865.88 L-2468.52,9763.14 L-2488.11,9745.38 L-2632.23,9638.49 L-2786.14,9546.24 L-2948.35,9469.52 L-3117.3,9409.07 L-3291.35,9365.47 L-3467.94,9339.28 L-3650.71,9330.47 L-3827.29,9339.15 L-3882.35,9347.31 L-4004.78,9365.47 L-4178.84,9409.07 L-4347.79,9469.52 L-4510,9546.24 L-4663.9,9638.49 L-4808.03,9745.38 L-4940.98,9865.88 L-5061.48,9998.84 L-5168.37,10143 L-5260.62,10296.9 L-5337.34,10459.1 L-5397.79,10628 L-5441.39,10802.1 L-5467.72,10979.6 L-5469.47,11015.2 L-5476.53,11158.8 L-5467.72,11338"/>
</g>

<g fill="none" stroke="#000000" stroke-opacity="1" stroke-width="1" stroke-linecap="square" stroke-linejoin="bevel" transform="matrix(0.99975,0,0,-0.99975,5475.66,12985.4)"
font-family="MS Shell Dlg 2" font-size="10.3125" font-weight="400" font-style="normal" 
>
</g>

<g fill="none" stroke="#000000" stroke-opacity="1" stroke-width="1" stroke-linecap="square" stroke-linejoin="bevel" transform="matrix(0.99975,0,0,-0.99975,5475.66,12985.4)"
font-family="MS Shell Dlg 2" font-size="10.3125" font-weight="400" font-style="normal" 
>
</g>

<g fill="#ffff00" fill-opacity="0.2" stroke="#333333" stroke-opacity="1" stroke-width="1" stroke-linecap="round" stroke-linejoin="round" transform="matrix(0.99975,0,0,-0.99975,5475.66,12985.4)"
font-family="MS Shell Dlg 2" font-size="10.3125" font-weight="400" font-style="normal" 
>
<path vector-effect="non-scaling-stroke" fill-rule="evenodd" d="M-5467.72,11338 L-5441.39,11515.5 L-5397.79,11689.6 L-5337.34,11858.5 L-5260.62,12020.7 L-5168.37,12174.6 L-5061.48,12318.8 L-4940.98,12451.7 L-4808.03,12572.2 L-4663.9,12679.1 L-4510,12771.4 L-4347.79,12848.1 L-4178.84,12908.5 L-4004.78,12952.1 L-3827.29,12978.5 L-3648.07,12987.3 L-3468.85,12978.5 L-3291.35,12952.1 L-3117.3,12908.5 L-2948.35,12848.1 L-2786.14,12771.4 L-2632.23,12679.1 L-2488.11,12572.2 L-2355.15,12451.7 L-2234.65,12318.8 L-2127.76,12174.6 L-2126.53,12172.6 L-2035.51,12020.7 L-1958.8,11858.5 L-1898.34,11689.6 L-1854.75,11515.5 L-1828.42,11338 L-1819.61,11158.8 L-1828.42,10979.6 L-1854.75,10802.1 L-1898.34,10628 L-1958.8,10459.1 L-2035.49,10296.9 L-2127.84,10142.9 L-2234.65,9998.84 L-2236.17,9997.16 L-2269.75,9960.11 L-2355.15,9865.88 L-2468.52,9763.14 L-2488.11,9745.38 L-2632.23,9638.49 L-2786.14,9546.24 L-2948.35,9469.52 L-3117.3,9409.07 L-3291.35,9365.47 L-3467.94,9339.28 L-3650.71,9330.47 L-3827.29,9339.15 L-3882.35,9347.31 L-4004.78,9365.47 L-4178.84,9409.07 L-4347.79,9469.52 L-4510,9546.24 L-4663.9,9638.49 L-4808.03,9745.38 L-4940.98,9865.88 L-5061.48,9998.84 L-5168.37,10143 L-5260.62,10296.9 L-5337.34,10459.1 L-5397.79,10628 L-5441.39,10802.1 L-5467.72,10979.6 L-5469.47,11015.2 L-5476.53,11158.8 L-5467.72,11338"/>
</g>

<g fill="none" stroke="#000000" stroke-opacity="1" stroke-width="1" stroke-linecap="square" stroke-linejoin="bevel" transform="matrix(0.99975,0,0,-0.99975,5475.66,12985.4)"
font-family="MS Shell Dlg 2" font-size="10.3125" font-weight="400" font-style="normal" 
>
</g>

<g fill="none" stroke="#000000" stroke-opacity="1" stroke-width="1" stroke-linecap="square" stroke-linejoin="bevel" transform="matrix(0.99975,0,0,-0.99975,5475.66,12985.4)"
font-family="MS Shell Dlg 2" font-size="10.3125" font-weight="400" font-style="normal" 
>
</g>

<g fill="#ae5151" fill-opacity="0.2" stroke="#333333" stroke-opacity="1" stroke-width="1" stroke-linecap="round" stroke-linejoin="round" transform="matrix(0.99975,0,0,-0.99975,5475.66,12985.4)"
font-family="MS Shell Dlg 2" font-size="10.3125" font-weight="400" font-style="normal" 
>
<path vector-effect="non-scaling-stroke" fill-rule="evenodd" d="M-5467.72,11338 L-5441.39,11515.5 L-5397.79,11689.6 L-5337.34,11858.5 L-5260.62,12020.7 L-5168.37,12174.6 L-5061.48,12318.8 L-4940.98,12451.7 L-4808.03,12572.2 L-4663.9,12679.1 L-4510,12771.4 L-4347.79,12848.1 L-4178.84,12908.5 L-4004.78,12952.1 L-3827.29,12978.5 L-3648.07,12987.3 L-3468.85,12978.5 L-3291.35,12952.1 L-3117.3,12908.5 L-2948.35,12848.1 L-2786.14,12771.4 L-2632.23,12679.1 L-2488.11,12572.2 L-2355.15,12451.7 L-2234.65,12318.8 L-2127.76,12174.6 L-2126.53,12172.6 L-2035.51,12020.7 L-1958.8,11858.5 L-1898.34,11689.6 L-1854.75,11515.5 L-1828.42,11338 L-1819.61,11158.8 L-1828.42,10979.6 L-1854.75,10802.1 L-1898.34,10628 L-1958.8,10459.1 L-2035.49,10296.9 L-2127.84,10142.9 L-2234.65,9998.84 L-2236.17,9997.16 L-2269.75,9960.11 L-2355.15,9865.88 L-2468.52,9763.14 L-2488.11,9745.38 L-2632.23,9638.49 L-2786.14,9546.24 L-2948.35,9469.52 L-3117.3,9409.07 L-3291.35,9365.47 L-3467.94,9339.28 L-3650.71,9330.47 L-3827.29,9339.15 L-3882.35,9347.31 L-4004.78,9365.47 L-4178.84,9409.07 L-4347.79,9469.52 L-4510,9546.24 L-4663.9,9638.49 L-4808.03,9745.38 L-4940.98,9865.88 L-5061.48,9998.84 L-5168.37,10143 L-5260.62,10296.9 L-5337.34,10459.1 L-5397.79,10628 L-5441.39,10802.1 L-5467.72,10979.6 L-5469.47,11015.2 L-5476.53,11158.8 L-5467.72,11338"/>
</g>

<g fill="none" stroke="#000000" stroke-opacity="1" stroke-width="1" stroke-linecap="square" stroke-linejoin="bevel" transform="matrix(0.99975,0,0,-0.99975,5475.66,12985.4)"
font-family="MS Shell Dlg 2" font-size="10.3125" font-weight="400" font-style="normal" 
>
</g>

<g fill="none" stroke="#000000" stroke-opacity="1" stroke-width="1" stroke-linecap="square" stroke-linejoin="bevel" transform="matrix(0.99975,0,0,-0.99975,5475.66,12985.4)"
font-family="MS Shell Dlg 2" font-size="10.3125" font-weight="400" font-style="normal" 
>
</g>

<g fill="#333333" fill-opacity="0.2" stroke="#333333" stroke-opacity="1" stroke-width="1" stroke-linecap="round" stroke-linejoin="round" transform="matrix(0.99975,0,0,-0.99975,5475.66,12985.4)"
font-family="MS Shell Dlg 2" font-size="10.3125" font-weight="400" font-style="normal" 
>
<path vector-effect="non-scaling-stroke" fill-rule="evenodd" d="M-5467.72,11338 L-5441.39,11515.5 L-5397.79,11689.6 L-5337.34,11858.5 L-5260.62,12020.7 L-5168.37,12174.6 L-5061.48,12318.8 L-4940.98,12451.7 L-4808.03,12572.2 L-4663.9,12679.1 L-4510,12771.4 L-4347.79,12848.1 L-4178.84,12908.5 L-4004.78,12952.1 L-3827.29,12978.5 L-3648.07,12987.3 L-3468.85,12978.5 L-3291.35,12952.1 L-3117.3,12908.5 L-2948.35,12848.1 L-2786.14,12771.4 L-2632.23,12679.1 L-2488.11,12572.2 L-2355.15,12451.7 L-2234.65,12318.8 L-2127.76,12174.6 L-2126.53,12172.6 L-2035.51,12020.7 L-1958.8,11858.5 L-1898.34,11689.6 L-1854.75,11515.5 L-1828.42,11338 L-1819.61,11158.8 L-1828.42,10979.6 L-1854.75,10802.1 L-1898.34,10628 L-1958.8,10459.1 L-2035.49,10296.9 L-2127.84,10142.9 L-2234.65,9998.84 L-2236.17,9997.16 L-2269.75,9960.11 L-2355.15,9865.88 L-2468.52,9763.14 L-2488.11,9745.38 L-2632.23,9638.49 L-2786.14,9546.24 L-2948.35,9469.52 L-3117.3,9409.07 L-3291.35,9365.47 L-3467.94,9339.28 L-3650.71,9330.47 L-3827.29,9339.15 L-3882.35,9347.31 L-4004.78,9365.47 L-4178.84,9409.07 L-4347.79,9469.52 L-4510,9546.24 L-4663.9,9638.49 L-4808.03,9745.38 L-4940.98,9865.88 L-5061.48,9998.84 L-5168.37,10143 L-5260.62,10296.9 L-5337.34,10459.1 L-5397.79,10628 L-5441.39,10802.1 L-5467.72,10979.6 L-5469.47,11015.2 L-5476.53,11158.8 L-5467.72,11338"/>
</g>

<g fill="none" stroke="#000000" stroke-opacity="1" stroke-width="1" stroke-linecap="square" stroke-linejoin="bevel" transform="matrix(0.99975,0,0,-0.99975,5475.66,12985.4)"
font-family="MS Shell Dlg 2" font-size="10.3125" font-weight="400" font-style="normal" 
>
</g>

<g fill="none" stroke="#000000" stroke-opacity="1" stroke-width="1" stroke-linecap="square" stroke-linejoin="bevel" transform="matrix(1,0,0,-1,0,3657.78)"
font-family="MS Shell Dlg 2" font-size="10.3125" font-weight="400" font-style="normal" 
>
</g>
</g>
</svg>
