<?xml version="1.0" encoding="UTF-8" standalone="no"?>
<svg width="20446.2mm" height="20870.1mm"
 xmlns="http://www.w3.org/2000/svg" xmlns:xlink="http://www.w3.org/1999/xlink"  version="1.2" baseProfile="tiny">
<title>SVG Generator Example Drawing</title>
<desc>An SVG drawing created by the SVG Generator</desc>
<defs>
</defs>
<g fill="none" stroke="black" stroke-width="1" fill-rule="evenodd" stroke-linecap="square" stroke-linejoin="bevel" >

<g fill="none" stroke="#000000" stroke-opacity="1" stroke-width="1" stroke-linecap="square" stroke-linejoin="bevel" transform="matrix(1,0,0,-1,0,73949.5)"
font-family="MS Shell Dlg 2" font-size="10.3125" font-weight="400" font-style="normal" 
>
</g>

<g fill="none" stroke="#000000" stroke-opacity="1" stroke-width="1" stroke-linecap="square" stroke-linejoin="bevel" transform="matrix(1,0,0,-1,0,73949.5)"
font-family="MS Shell Dlg 2" font-size="10.3125" font-weight="400" font-style="normal" 
>
</g>

<g fill="none" stroke="#000000" stroke-opacity="1" stroke-width="1" stroke-linecap="square" stroke-linejoin="bevel" transform="matrix(0.999993,0,0,-0.999993,38905.8,41266.8)"
font-family="MS Shell Dlg 2" font-size="10.3125" font-weight="400" font-style="normal" 
>
</g>

<g fill="#333333" fill-opacity="0.2" stroke="#333333" stroke-opacity="1" stroke-width="1" stroke-linecap="round" stroke-linejoin="round" transform="matrix(0.999993,0,0,-0.999993,38905.8,41266.8)"
font-family="MS Shell Dlg 2" font-size="10.3125" font-weight="400" font-style="normal" 
>
<path vector-effect="non-scaling-stroke" fill-rule="evenodd" d="M-38905.6,-32682.4 L-38905.6,41266.1 L33540.8,41266.1 L33540.8,-32682.4 L-38905.6,-32682.4 M-35889.7,9562 L-35891.3,9555.49 L-35887.4,9530.79 L-35844.8,8952.57 L-35767.9,8780.94 L-35765.2,8763.61 L-35747.8,8736.09 L-35562.3,8321.63 L-35546,8297.52 L-35485.4,8208.03 L-35236.1,7839.34 L-35219.8,7815.22 L-10876.7,-28179.3 L-10476.1,-28771.7 L-10455,-28802.8 L-9951.93,-29316.1 L-9299.91,-29618.5 L-8583.11,-29670.8 L-7894.09,-29466.3 L-7867.06,-29452.6 L-7815.69,-29426.6 L-7353.38,-29192.3 L-7326.34,-29178.6 L22936.6,-13839.8 L22955.8,-13830.1 L23412.3,-13598.7 L23436.4,-13586.5 L24160.7,-12963.6 L24513.4,-12075.8 L24517.5,-12046.2 L24595.3,-11482.6 L30427.7,30802.7 L30465.2,31074.4 L30517.5,31453.8 L30522,31486.4 L30469.8,32287.8 L30106.5,33004 L29490.8,33519.6 L28721.8,33751.4 L28644.3,33758.5 L27909.7,33825.3 L27870.5,33828.8 L27869.1,33829 L-20200,38198.9 L-20849,38257.9 L-21647.7,38168.3 L-22346.8,37771.5 L-22833.1,37131.6 L-22845.5,37105.6 L-23094.5,36586.9 L-23914.1,34879.5 L-26170.7,30178.1 L-27721.4,26947.6 L-35449.2,10848.1 L-35461.5,10822.3 L-35696.3,10333.3 L-35708.6,10307.5 L-35895.6,9641.99 L-35889.7,9562"/>
</g>

<g fill="none" stroke="#000000" stroke-opacity="1" stroke-width="1" stroke-linecap="square" stroke-linejoin="bevel" transform="matrix(0.999993,0,0,-0.999993,38905.8,41266.8)"
font-family="MS Shell Dlg 2" font-size="10.3125" font-weight="400" font-style="normal" 
>
</g>

<g fill="none" stroke="#000000" stroke-opacity="1" stroke-width="1" stroke-linecap="square" stroke-linejoin="bevel" transform="matrix(0.999993,0,0,-0.999993,38905.8,41266.8)"
font-family="MS Shell Dlg 2" font-size="10.3125" font-weight="400" font-style="normal" 
>
</g>

<g fill="#ae5151" fill-opacity="0.2" stroke="#333333" stroke-opacity="1" stroke-width="1" stroke-linecap="round" stroke-linejoin="round" transform="matrix(0.999993,0,0,-0.999993,38905.8,41266.8)"
font-family="MS Shell Dlg 2" font-size="10.3125" font-weight="400" font-style="normal" 
>
<path vector-effect="non-scaling-stroke" fill-rule="evenodd" d="M-38905.6,-32682.4 L-38905.6,41266.1 L33540.8,41266.1 L33540.8,-32682.4 L-38905.6,-32682.4 M-35889.7,9562 L-35891.3,9555.49 L-35887.4,9530.79 L-35844.8,8952.57 L-35767.9,8780.94 L-35765.2,8763.61 L-35747.8,8736.09 L-35562.3,8321.63 L-35546,8297.52 L-35485.4,8208.03 L-35236.1,7839.34 L-35219.8,7815.22 L-10876.7,-28179.3 L-10476.1,-28771.7 L-10455,-28802.8 L-9951.93,-29316.1 L-9299.91,-29618.5 L-8583.11,-29670.8 L-7894.09,-29466.3 L-7867.06,-29452.6 L-7815.69,-29426.6 L-7353.38,-29192.3 L-7326.34,-29178.6 L22936.6,-13839.8 L22955.8,-13830.1 L23412.3,-13598.7 L23436.4,-13586.5 L24160.7,-12963.6 L24513.4,-12075.8 L24517.5,-12046.2 L24595.3,-11482.6 L30427.7,30802.7 L30465.2,31074.4 L30517.5,31453.8 L30522,31486.4 L30469.8,32287.8 L30106.5,33004 L29490.8,33519.6 L28721.8,33751.4 L28644.3,33758.5 L27909.7,33825.3 L27870.5,33828.8 L27869.1,33829 L-20200,38198.9 L-20849,38257.9 L-21647.7,38168.3 L-22346.8,37771.5 L-22833.1,37131.6 L-22845.5,37105.6 L-23094.5,36586.9 L-23914.1,34879.5 L-26170.7,30178.1 L-27721.4,26947.6 L-35449.2,10848.1 L-35461.5,10822.3 L-35696.3,10333.3 L-35708.6,10307.5 L-35895.6,9641.99 L-35889.7,9562"/>
</g>

<g fill="none" stroke="#000000" stroke-opacity="1" stroke-width="1" stroke-linecap="square" stroke-linejoin="bevel" transform="matrix(0.999993,0,0,-0.999993,38905.8,41266.8)"
font-family="MS Shell Dlg 2" font-size="10.3125" font-weight="400" font-style="normal" 
>
</g>

<g fill="none" stroke="#000000" stroke-opacity="1" stroke-width="1" stroke-linecap="square" stroke-linejoin="bevel" transform="matrix(0.999993,0,0,-0.999993,38905.8,41266.8)"
font-family="MS Shell Dlg 2" font-size="10.3125" font-weight="400" font-style="normal" 
>
</g>

<g fill="#ffff00" fill-opacity="0.2" stroke="#333333" stroke-opacity="1" stroke-width="1" stroke-linecap="round" stroke-linejoin="round" transform="matrix(0.999993,0,0,-0.999993,38905.8,41266.8)"
font-family="MS Shell Dlg 2" font-size="10.3125" font-weight="400" font-style="normal" 
>
<path vector-effect="non-scaling-stroke" fill-rule="evenodd" d="M-38905.6,-32682.4 L-38905.6,41266.1 L33540.8,41266.1 L33540.8,-32682.4 L-38905.6,-32682.4 M-35889.7,9562 L-35891.3,9555.49 L-35887.4,9530.79 L-35844.8,8952.57 L-35767.9,8780.94 L-35765.2,8763.61 L-35747.8,8736.09 L-35562.3,8321.63 L-35546,8297.52 L-35485.4,8208.03 L-35236.1,7839.34 L-35219.8,7815.22 L-10876.7,-28179.3 L-10476.1,-28771.7 L-10455,-28802.8 L-9951.93,-29316.1 L-9299.91,-29618.5 L-8583.11,-29670.8 L-7894.09,-29466.3 L-7867.06,-29452.6 L-7815.69,-29426.6 L-7353.38,-29192.3 L-7326.34,-29178.6 L22936.6,-13839.8 L22955.8,-13830.1 L23412.3,-13598.7 L23436.4,-13586.5 L24160.7,-12963.6 L24513.4,-12075.8 L24517.5,-12046.2 L24595.3,-11482.6 L30427.7,30802.7 L30465.2,31074.4 L30517.5,31453.8 L30522,31486.4 L30469.8,32287.8 L30106.5,33004 L29490.8,33519.6 L28721.8,33751.4 L28644.3,33758.5 L27909.7,33825.3 L27870.5,33828.8 L27869.1,33829 L-20200,38198.9 L-20849,38257.9 L-21647.7,38168.3 L-22346.8,37771.5 L-22833.1,37131.6 L-22845.5,37105.6 L-23094.5,36586.9 L-23914.1,34879.5 L-26170.7,30178.1 L-27721.4,26947.6 L-35449.2,10848.1 L-35461.5,10822.3 L-35696.3,10333.3 L-35708.6,10307.5 L-35895.6,9641.99 L-35889.7,9562"/>
</g>

<g fill="none" stroke="#000000" stroke-opacity="1" stroke-width="1" stroke-linecap="square" stroke-linejoin="bevel" transform="matrix(0.999993,0,0,-0.999993,38905.8,41266.8)"
font-family="MS Shell Dlg 2" font-size="10.3125" font-weight="400" font-style="normal" 
>
</g>

<g fill="none" stroke="#000000" stroke-opacity="1" stroke-width="1" stroke-linecap="square" stroke-linejoin="bevel" transform="matrix(0.999993,0,0,-0.999993,38905.8,41266.8)"
font-family="MS Shell Dlg 2" font-size="10.3125" font-weight="400" font-style="normal" 
>
</g>

<g fill="#ae5151" fill-opacity="0.2" stroke="#333333" stroke-opacity="1" stroke-width="1" stroke-linecap="round" stroke-linejoin="round" transform="matrix(0.999993,0,0,-0.999993,38905.8,41266.8)"
font-family="MS Shell Dlg 2" font-size="10.3125" font-weight="400" font-style="normal" 
>
<path vector-effect="non-scaling-stroke" fill-rule="evenodd" d="M-38905.6,-32682.4 L-38905.6,41266.1 L33540.8,41266.1 L33540.8,-32682.4 L-38905.6,-32682.4 M-35889.7,9562 L-35891.3,9555.49 L-35887.4,9530.79 L-35844.8,8952.57 L-35767.9,8780.94 L-35765.2,8763.61 L-35747.8,8736.09 L-35562.3,8321.63 L-35546,8297.52 L-35485.4,8208.03 L-35236.1,7839.34 L-35219.8,7815.22 L-10876.7,-28179.3 L-10476.1,-28771.7 L-10455,-28802.8 L-9951.93,-29316.1 L-9299.91,-29618.5 L-8583.11,-29670.8 L-7894.09,-29466.3 L-7867.06,-29452.6 L-7815.69,-29426.6 L-7353.38,-29192.3 L-7326.34,-29178.6 L22936.6,-13839.8 L22955.8,-13830.1 L23412.3,-13598.7 L23436.4,-13586.5 L24160.7,-12963.6 L24513.4,-12075.8 L24517.5,-12046.2 L24595.3,-11482.6 L30427.7,30802.7 L30465.2,31074.4 L30517.5,31453.8 L30522,31486.4 L30469.8,32287.8 L30106.5,33004 L29490.8,33519.6 L28721.8,33751.4 L28644.3,33758.5 L27909.7,33825.3 L27870.5,33828.8 L27869.1,33829 L-20200,38198.9 L-20849,38257.9 L-21647.7,38168.3 L-22346.8,37771.5 L-22833.1,37131.6 L-22845.5,37105.6 L-23094.5,36586.9 L-23914.1,34879.5 L-26170.7,30178.1 L-27721.4,26947.6 L-35449.2,10848.1 L-35461.5,10822.3 L-35696.3,10333.3 L-35708.6,10307.5 L-35895.6,9641.99 L-35889.7,9562"/>
</g>

<g fill="none" stroke="#000000" stroke-opacity="1" stroke-width="1" stroke-linecap="square" stroke-linejoin="bevel" transform="matrix(0.999993,0,0,-0.999993,38905.8,41266.8)"
font-family="MS Shell Dlg 2" font-size="10.3125" font-weight="400" font-style="normal" 
>
</g>

<g fill="none" stroke="#000000" stroke-opacity="1" stroke-width="1" stroke-linecap="square" stroke-linejoin="bevel" transform="matrix(0.999993,0,0,-0.999993,38905.8,41266.8)"
font-family="MS Shell Dlg 2" font-size="10.3125" font-weight="400" font-style="normal" 
>
</g>

<g fill="#333333" fill-opacity="0.2" stroke="#333333" stroke-opacity="1" stroke-width="1" stroke-linecap="round" stroke-linejoin="round" transform="matrix(0.999993,0,0,-0.999993,38905.8,41266.8)"
font-family="MS Shell Dlg 2" font-size="10.3125" font-weight="400" font-style="normal" 
>
<path vector-effect="non-scaling-stroke" fill-rule="evenodd" d="M-38905.6,-32682.4 L-38905.6,41266.1 L33540.8,41266.1 L33540.8,-32682.4 L-38905.6,-32682.4 M-35889.7,9562 L-35891.3,9555.49 L-35887.4,9530.79 L-35844.8,8952.57 L-35767.9,8780.94 L-35765.2,8763.61 L-35747.8,8736.09 L-35562.3,8321.63 L-35546,8297.52 L-35485.4,8208.03 L-35236.1,7839.34 L-35219.8,7815.22 L-10876.7,-28179.3 L-10476.1,-28771.7 L-10455,-28802.8 L-9951.93,-29316.1 L-9299.91,-29618.5 L-8583.11,-29670.8 L-7894.09,-29466.3 L-7867.06,-29452.6 L-7815.69,-29426.6 L-7353.38,-29192.3 L-7326.34,-29178.6 L22936.6,-13839.8 L22955.8,-13830.1 L23412.3,-13598.7 L23436.4,-13586.5 L24160.7,-12963.6 L24513.4,-12075.8 L24517.5,-12046.2 L24595.3,-11482.6 L30427.7,30802.7 L30465.2,31074.4 L30517.5,31453.8 L30522,31486.4 L30469.8,32287.8 L30106.5,33004 L29490.8,33519.6 L28721.8,33751.4 L28644.3,33758.5 L27909.7,33825.3 L27870.5,33828.8 L27869.1,33829 L-20200,38198.9 L-20849,38257.9 L-21647.7,38168.3 L-22346.8,37771.5 L-22833.1,37131.6 L-22845.5,37105.6 L-23094.5,36586.9 L-23914.1,34879.5 L-26170.7,30178.1 L-27721.4,26947.6 L-35449.2,10848.1 L-35461.5,10822.3 L-35696.3,10333.3 L-35708.6,10307.5 L-35895.6,9641.99 L-35889.7,9562"/>
</g>

<g fill="none" stroke="#000000" stroke-opacity="1" stroke-width="1" stroke-linecap="square" stroke-linejoin="bevel" transform="matrix(0.999993,0,0,-0.999993,38905.8,41266.8)"
font-family="MS Shell Dlg 2" font-size="10.3125" font-weight="400" font-style="normal" 
>
</g>

<g fill="none" stroke="#000000" stroke-opacity="1" stroke-width="1" stroke-linecap="square" stroke-linejoin="bevel" transform="matrix(1,0,0,-1,0,73949.5)"
font-family="MS Shell Dlg 2" font-size="10.3125" font-weight="400" font-style="normal" 
>
</g>
</g>
</svg>
