<?xml version="1.0" encoding="UTF-8" standalone="no"?>
<svg width="18744.6mm" height="19171.1mm"
 xmlns="http://www.w3.org/2000/svg" xmlns:xlink="http://www.w3.org/1999/xlink"  version="1.2" baseProfile="tiny">
<title>SVG Generator Example Drawing</title>
<desc>An SVG drawing created by the SVG Generator</desc>
<defs>
</defs>
<g fill="none" stroke="black" stroke-width="1" fill-rule="evenodd" stroke-linecap="square" stroke-linejoin="bevel" >

<g fill="none" stroke="#000000" stroke-opacity="1" stroke-width="1" stroke-linecap="square" stroke-linejoin="bevel" transform="matrix(1,0,0,-1,0,67929.7)"
font-family="MS Shell Dlg 2" font-size="10.3125" font-weight="400" font-style="normal" 
>
</g>

<g fill="none" stroke="#000000" stroke-opacity="1" stroke-width="1" stroke-linecap="square" stroke-linejoin="bevel" transform="matrix(1,0,0,-1,0,67929.7)"
font-family="MS Shell Dlg 2" font-size="10.3125" font-weight="400" font-style="normal" 
>
</g>

<g fill="none" stroke="#000000" stroke-opacity="1" stroke-width="1" stroke-linecap="square" stroke-linejoin="bevel" transform="matrix(0.99999,0,0,-0.99999,35895.7,38258.7)"
font-family="MS Shell Dlg 2" font-size="10.3125" font-weight="400" font-style="normal" 
>
</g>

<g fill="#333333" fill-opacity="0.2" stroke="#333333" stroke-opacity="1" stroke-width="1" stroke-linecap="round" stroke-linejoin="round" transform="matrix(0.99999,0,0,-0.99999,35895.7,38258.7)"
font-family="MS Shell Dlg 2" font-size="10.3125" font-weight="400" font-style="normal" 
>
<path vector-effect="non-scaling-stroke" fill-rule="evenodd" d="M-35889.7,9562 L-35895.6,9641.99 L-35708.6,10307.5 L-35696.3,10333.3 L-35461.5,10822.3 L-35449.2,10848.1 L-27721.4,26947.6 L-26170.7,30178.1 L-23914.1,34879.5 L-23094.5,36586.9 L-22845.5,37105.6 L-22833.1,37131.6 L-22346.8,37771.5 L-21647.7,38168.3 L-20849,38257.9 L-20200,38198.9 L27869.1,33829 L27870.5,33828.8 L27909.7,33825.3 L28644.3,33758.5 L28721.8,33751.4 L29490.8,33519.6 L30106.5,33004 L30469.8,32287.8 L30522,31486.4 L30517.5,31453.8 L30465.2,31074.4 L30427.7,30802.7 L24595.3,-11482.6 L24517.5,-12046.2 L24513.4,-12075.8 L24160.7,-12963.6 L23436.4,-13586.5 L23412.3,-13598.7 L22955.8,-13830.1 L22936.6,-13839.8 L-7326.34,-29178.6 L-7353.38,-29192.3 L-7815.69,-29426.6 L-7867.06,-29452.6 L-7894.09,-29466.3 L-8583.11,-29670.8 L-9299.91,-29618.5 L-9951.93,-29316.1 L-10455,-28802.8 L-10476.1,-28771.7 L-10876.7,-28179.3 L-35219.8,7815.22 L-35236.1,7839.34 L-35485.4,8208.03 L-35546,8297.52 L-35562.3,8321.63 L-35747.8,8736.09 L-35765.2,8763.61 L-35767.9,8780.94 L-35844.8,8952.57 L-35887.4,9530.79 L-35891.3,9555.49 L-35889.7,9562 M-5467.72,11338 L-5476.53,11158.8 L-5469.47,11015.2 L-5467.72,10979.6 L-5441.39,10802.1 L-5397.79,10628 L-5337.34,10459.1 L-5260.62,10296.9 L-5168.37,10143 L-5061.48,9998.84 L-4940.98,9865.88 L-4808.03,9745.38 L-4663.9,9638.49 L-4510,9546.24 L-4347.79,9469.52 L-4178.84,9409.07 L-4004.78,9365.47 L-3882.35,9347.31 L-3827.29,9339.15 L-3650.71,9330.47 L-3467.94,9339.28 L-3291.35,9365.47 L-3117.3,9409.07 L-2948.35,9469.52 L-2786.14,9546.24 L-2632.23,9638.49 L-2488.11,9745.38 L-2468.52,9763.14 L-2355.15,9865.88 L-2269.75,9960.11 L-2236.17,9997.16 L-2234.65,9998.84 L-2127.84,10142.9 L-2035.49,10296.9 L-1958.8,10459.1 L-1898.34,10628 L-1854.75,10802.1 L-1828.42,10979.6 L-1819.61,11158.8 L-1828.42,11338 L-1854.75,11515.5 L-1898.34,11689.6 L-1958.8,11858.5 L-2035.51,12020.7 L-2126.53,12172.6 L-2127.76,12174.6 L-2234.65,12318.8 L-2355.15,12451.7 L-2488.11,12572.2 L-2632.23,12679.1 L-2786.14,12771.4 L-2948.35,12848.1 L-3117.3,12908.5 L-3291.35,12952.1 L-3468.85,12978.5 L-3648.07,12987.3 L-3827.29,12978.5 L-4004.78,12952.1 L-4178.84,12908.5 L-4347.79,12848.1 L-4510,12771.4 L-4663.9,12679.1 L-4808.03,12572.2 L-4940.98,12451.7 L-5061.48,12318.8 L-5168.37,12174.6 L-5260.62,12020.7 L-5337.34,11858.5 L-5397.79,11689.6 L-5441.39,11515.5 L-5467.72,11338"/>
</g>

<g fill="none" stroke="#000000" stroke-opacity="1" stroke-width="1" stroke-linecap="square" stroke-linejoin="bevel" transform="matrix(0.99999,0,0,-0.99999,35895.7,38258.7)"
font-family="MS Shell Dlg 2" font-size="10.3125" font-weight="400" font-style="normal" 
>
</g>

<g fill="none" stroke="#000000" stroke-opacity="1" stroke-width="1" stroke-linecap="square" stroke-linejoin="bevel" transform="matrix(0.99999,0,0,-0.99999,35895.7,38258.7)"
font-family="MS Shell Dlg 2" font-size="10.3125" font-weight="400" font-style="normal" 
>
</g>

<g fill="#ae5151" fill-opacity="0.2" stroke="#333333" stroke-opacity="1" stroke-width="1" stroke-linecap="round" stroke-linejoin="round" transform="matrix(0.99999,0,0,-0.99999,35895.7,38258.7)"
font-family="MS Shell Dlg 2" font-size="10.3125" font-weight="400" font-style="normal" 
>
<path vector-effect="non-scaling-stroke" fill-rule="evenodd" d="M-35889.7,9562 L-35895.6,9641.99 L-35708.6,10307.5 L-35696.3,10333.3 L-35461.5,10822.3 L-35449.2,10848.1 L-27721.4,26947.6 L-26170.7,30178.1 L-23914.1,34879.5 L-23094.5,36586.9 L-22845.5,37105.6 L-22833.1,37131.6 L-22346.8,37771.5 L-21647.7,38168.3 L-20849,38257.9 L-20200,38198.9 L27869.1,33829 L27870.5,33828.8 L27909.7,33825.3 L28644.3,33758.5 L28721.8,33751.4 L29490.8,33519.6 L30106.5,33004 L30469.8,32287.8 L30522,31486.4 L30517.5,31453.8 L30465.2,31074.4 L30427.7,30802.7 L24595.3,-11482.6 L24517.5,-12046.2 L24513.4,-12075.8 L24160.7,-12963.6 L23436.4,-13586.5 L23412.3,-13598.7 L22955.8,-13830.1 L22936.6,-13839.8 L-7326.34,-29178.6 L-7353.38,-29192.3 L-7815.69,-29426.6 L-7867.06,-29452.6 L-7894.09,-29466.3 L-8583.11,-29670.8 L-9299.91,-29618.5 L-9951.93,-29316.1 L-10455,-28802.8 L-10476.1,-28771.7 L-10876.7,-28179.3 L-35219.8,7815.22 L-35236.1,7839.34 L-35485.4,8208.03 L-35546,8297.52 L-35562.3,8321.63 L-35747.8,8736.09 L-35765.2,8763.61 L-35767.9,8780.94 L-35844.8,8952.57 L-35887.4,9530.79 L-35891.3,9555.49 L-35889.7,9562 M-5467.72,11338 L-5476.53,11158.8 L-5469.47,11015.2 L-5467.72,10979.6 L-5441.39,10802.1 L-5397.79,10628 L-5337.34,10459.1 L-5260.62,10296.9 L-5168.37,10143 L-5061.48,9998.84 L-4940.98,9865.88 L-4808.03,9745.38 L-4663.9,9638.49 L-4510,9546.24 L-4347.79,9469.52 L-4178.84,9409.07 L-4004.78,9365.47 L-3882.35,9347.31 L-3827.29,9339.15 L-3650.71,9330.47 L-3467.94,9339.28 L-3291.35,9365.47 L-3117.3,9409.07 L-2948.35,9469.52 L-2786.14,9546.24 L-2632.23,9638.49 L-2488.11,9745.38 L-2468.52,9763.14 L-2355.15,9865.88 L-2269.75,9960.11 L-2236.17,9997.16 L-2234.65,9998.84 L-2127.84,10142.9 L-2035.49,10296.9 L-1958.8,10459.1 L-1898.34,10628 L-1854.75,10802.1 L-1828.42,10979.6 L-1819.61,11158.8 L-1828.42,11338 L-1854.75,11515.5 L-1898.34,11689.6 L-1958.8,11858.5 L-2035.51,12020.7 L-2126.53,12172.6 L-2127.76,12174.6 L-2234.65,12318.8 L-2355.15,12451.7 L-2488.11,12572.2 L-2632.23,12679.1 L-2786.14,12771.4 L-2948.35,12848.1 L-3117.3,12908.5 L-3291.35,12952.1 L-3468.85,12978.5 L-3648.07,12987.3 L-3827.29,12978.5 L-4004.78,12952.1 L-4178.84,12908.5 L-4347.79,12848.1 L-4510,12771.4 L-4663.9,12679.1 L-4808.03,12572.2 L-4940.98,12451.7 L-5061.48,12318.8 L-5168.37,12174.6 L-5260.62,12020.7 L-5337.34,11858.5 L-5397.79,11689.6 L-5441.39,11515.5 L-5467.72,11338"/>
</g>

<g fill="none" stroke="#000000" stroke-opacity="1" stroke-width="1" stroke-linecap="square" stroke-linejoin="bevel" transform="matrix(0.99999,0,0,-0.99999,35895.7,38258.7)"
font-family="MS Shell Dlg 2" font-size="10.3125" font-weight="400" font-style="normal" 
>
</g>

<g fill="none" stroke="#000000" stroke-opacity="1" stroke-width="1" stroke-linecap="square" stroke-linejoin="bevel" transform="matrix(0.99999,0,0,-0.99999,35895.7,38258.7)"
font-family="MS Shell Dlg 2" font-size="10.3125" font-weight="400" font-style="normal" 
>
</g>

<g fill="#ffff00" fill-opacity="0.2" stroke="#333333" stroke-opacity="1" stroke-width="1" stroke-linecap="round" stroke-linejoin="round" transform="matrix(0.99999,0,0,-0.99999,35895.7,38258.7)"
font-family="MS Shell Dlg 2" font-size="10.3125" font-weight="400" font-style="normal" 
>
<path vector-effect="non-scaling-stroke" fill-rule="evenodd" d="M-35889.7,9562 L-35895.6,9641.99 L-35708.6,10307.5 L-35696.3,10333.3 L-35461.5,10822.3 L-35449.2,10848.1 L-27721.4,26947.6 L-26170.7,30178.1 L-23914.1,34879.5 L-23094.5,36586.9 L-22845.5,37105.6 L-22833.1,37131.6 L-22346.8,37771.5 L-21647.7,38168.3 L-20849,38257.9 L-20200,38198.9 L27869.1,33829 L27870.5,33828.8 L27909.7,33825.3 L28644.3,33758.5 L28721.8,33751.4 L29490.8,33519.6 L30106.5,33004 L30469.8,32287.8 L30522,31486.4 L30517.5,31453.8 L30465.2,31074.4 L30427.7,30802.7 L24595.3,-11482.6 L24517.5,-12046.2 L24513.4,-12075.8 L24160.7,-12963.6 L23436.4,-13586.5 L23412.3,-13598.7 L22955.8,-13830.1 L22936.6,-13839.8 L-7326.34,-29178.6 L-7353.38,-29192.3 L-7815.69,-29426.6 L-7867.06,-29452.6 L-7894.09,-29466.3 L-8583.11,-29670.8 L-9299.91,-29618.5 L-9951.93,-29316.1 L-10455,-28802.8 L-10476.1,-28771.7 L-10876.7,-28179.3 L-35219.8,7815.22 L-35236.1,7839.34 L-35485.4,8208.03 L-35546,8297.52 L-35562.3,8321.63 L-35747.8,8736.09 L-35765.2,8763.61 L-35767.9,8780.94 L-35844.8,8952.57 L-35887.4,9530.79 L-35891.3,9555.49 L-35889.7,9562 M-5467.72,11338 L-5476.53,11158.8 L-5469.47,11015.2 L-5467.72,10979.6 L-5441.39,10802.1 L-5397.79,10628 L-5337.34,10459.1 L-5260.62,10296.9 L-5168.37,10143 L-5061.48,9998.84 L-4940.98,9865.88 L-4808.03,9745.38 L-4663.9,9638.49 L-4510,9546.24 L-4347.79,9469.52 L-4178.84,9409.07 L-4004.78,9365.47 L-3882.35,9347.31 L-3827.29,9339.15 L-3650.71,9330.47 L-3467.94,9339.28 L-3291.35,9365.47 L-3117.3,9409.07 L-2948.35,9469.52 L-2786.14,9546.24 L-2632.23,9638.49 L-2488.11,9745.38 L-2468.52,9763.14 L-2355.15,9865.88 L-2269.75,9960.11 L-2236.17,9997.16 L-2234.65,9998.84 L-2127.84,10142.9 L-2035.49,10296.9 L-1958.8,10459.1 L-1898.34,10628 L-1854.75,10802.1 L-1828.42,10979.6 L-1819.61,11158.8 L-1828.42,11338 L-1854.75,11515.5 L-1898.34,11689.6 L-1958.8,11858.5 L-2035.51,12020.7 L-2126.53,12172.6 L-2127.76,12174.6 L-2234.65,12318.8 L-2355.15,12451.7 L-2488.11,12572.2 L-2632.23,12679.1 L-2786.14,12771.4 L-2948.35,12848.1 L-3117.3,12908.5 L-3291.35,12952.1 L-3468.85,12978.5 L-3648.07,12987.3 L-3827.29,12978.5 L-4004.78,12952.1 L-4178.84,12908.5 L-4347.79,12848.1 L-4510,12771.4 L-4663.9,12679.1 L-4808.03,12572.2 L-4940.98,12451.7 L-5061.48,12318.8 L-5168.37,12174.6 L-5260.62,12020.7 L-5337.34,11858.5 L-5397.79,11689.6 L-5441.39,11515.5 L-5467.72,11338"/>
</g>

<g fill="none" stroke="#000000" stroke-opacity="1" stroke-width="1" stroke-linecap="square" stroke-linejoin="bevel" transform="matrix(0.99999,0,0,-0.99999,35895.7,38258.7)"
font-family="MS Shell Dlg 2" font-size="10.3125" font-weight="400" font-style="normal" 
>
</g>

<g fill="none" stroke="#000000" stroke-opacity="1" stroke-width="1" stroke-linecap="square" stroke-linejoin="bevel" transform="matrix(0.99999,0,0,-0.99999,35895.7,38258.7)"
font-family="MS Shell Dlg 2" font-size="10.3125" font-weight="400" font-style="normal" 
>
</g>

<g fill="#ae5151" fill-opacity="0.2" stroke="#333333" stroke-opacity="1" stroke-width="1" stroke-linecap="round" stroke-linejoin="round" transform="matrix(0.99999,0,0,-0.99999,35895.7,38258.7)"
font-family="MS Shell Dlg 2" font-size="10.3125" font-weight="400" font-style="normal" 
>
<path vector-effect="non-scaling-stroke" fill-rule="evenodd" d="M-35889.7,9562 L-35895.6,9641.99 L-35708.6,10307.5 L-35696.3,10333.3 L-35461.5,10822.3 L-35449.2,10848.1 L-27721.4,26947.6 L-26170.7,30178.1 L-23914.1,34879.5 L-23094.5,36586.9 L-22845.5,37105.6 L-22833.1,37131.6 L-22346.8,37771.5 L-21647.7,38168.3 L-20849,38257.9 L-20200,38198.9 L27869.1,33829 L27870.5,33828.8 L27909.7,33825.3 L28644.3,33758.5 L28721.8,33751.4 L29490.8,33519.6 L30106.5,33004 L30469.8,32287.8 L30522,31486.4 L30517.5,31453.8 L30465.2,31074.4 L30427.7,30802.7 L24595.3,-11482.6 L24517.5,-12046.2 L24513.4,-12075.8 L24160.7,-12963.6 L23436.4,-13586.5 L23412.3,-13598.7 L22955.8,-13830.1 L22936.6,-13839.8 L-7326.34,-29178.6 L-7353.38,-29192.3 L-7815.69,-29426.6 L-7867.06,-29452.6 L-7894.09,-29466.3 L-8583.11,-29670.8 L-9299.91,-29618.5 L-9951.93,-29316.1 L-10455,-28802.8 L-10476.1,-28771.7 L-10876.7,-28179.3 L-35219.8,7815.22 L-35236.1,7839.34 L-35485.4,8208.03 L-35546,8297.52 L-35562.3,8321.63 L-35747.8,8736.09 L-35765.2,8763.61 L-35767.9,8780.94 L-35844.8,8952.57 L-35887.4,9530.79 L-35891.3,9555.49 L-35889.7,9562 M-5467.72,11338 L-5476.53,11158.8 L-5469.47,11015.2 L-5467.72,10979.6 L-5441.39,10802.1 L-5397.79,10628 L-5337.34,10459.1 L-5260.62,10296.9 L-5168.37,10143 L-5061.48,9998.84 L-4940.98,9865.88 L-4808.03,9745.38 L-4663.9,9638.49 L-4510,9546.24 L-4347.79,9469.52 L-4178.84,9409.07 L-4004.78,9365.47 L-3882.35,9347.31 L-3827.29,9339.15 L-3650.71,9330.47 L-3467.94,9339.28 L-3291.35,9365.47 L-3117.3,9409.07 L-2948.35,9469.52 L-2786.14,9546.24 L-2632.23,9638.49 L-2488.11,9745.38 L-2468.52,9763.14 L-2355.15,9865.88 L-2269.75,9960.11 L-2236.17,9997.16 L-2234.65,9998.84 L-2127.84,10142.9 L-2035.49,10296.9 L-1958.8,10459.1 L-1898.34,10628 L-1854.75,10802.1 L-1828.42,10979.6 L-1819.61,11158.8 L-1828.42,11338 L-1854.75,11515.5 L-1898.34,11689.6 L-1958.8,11858.5 L-2035.51,12020.7 L-2126.53,12172.6 L-2127.76,12174.6 L-2234.65,12318.8 L-2355.15,12451.7 L-2488.11,12572.2 L-2632.23,12679.1 L-2786.14,12771.4 L-2948.35,12848.1 L-3117.3,12908.5 L-3291.35,12952.1 L-3468.85,12978.5 L-3648.07,12987.3 L-3827.29,12978.5 L-4004.78,12952.1 L-4178.84,12908.5 L-4347.79,12848.1 L-4510,12771.4 L-4663.9,12679.1 L-4808.03,12572.2 L-4940.98,12451.7 L-5061.48,12318.8 L-5168.37,12174.6 L-5260.62,12020.7 L-5337.34,11858.5 L-5397.79,11689.6 L-5441.39,11515.5 L-5467.72,11338"/>
</g>

<g fill="none" stroke="#000000" stroke-opacity="1" stroke-width="1" stroke-linecap="square" stroke-linejoin="bevel" transform="matrix(0.99999,0,0,-0.99999,35895.7,38258.7)"
font-family="MS Shell Dlg 2" font-size="10.3125" font-weight="400" font-style="normal" 
>
</g>

<g fill="none" stroke="#000000" stroke-opacity="1" stroke-width="1" stroke-linecap="square" stroke-linejoin="bevel" transform="matrix(0.99999,0,0,-0.99999,35895.7,38258.7)"
font-family="MS Shell Dlg 2" font-size="10.3125" font-weight="400" font-style="normal" 
>
</g>

<g fill="#333333" fill-opacity="0.2" stroke="#333333" stroke-opacity="1" stroke-width="1" stroke-linecap="round" stroke-linejoin="round" transform="matrix(0.99999,0,0,-0.99999,35895.7,38258.7)"
font-family="MS Shell Dlg 2" font-size="10.3125" font-weight="400" font-style="normal" 
>
<path vector-effect="non-scaling-stroke" fill-rule="evenodd" d="M-35889.7,9562 L-35895.6,9641.99 L-35708.6,10307.5 L-35696.3,10333.3 L-35461.5,10822.3 L-35449.2,10848.1 L-27721.4,26947.6 L-26170.7,30178.1 L-23914.1,34879.5 L-23094.5,36586.9 L-22845.5,37105.6 L-22833.1,37131.6 L-22346.8,37771.5 L-21647.7,38168.3 L-20849,38257.9 L-20200,38198.9 L27869.1,33829 L27870.5,33828.8 L27909.7,33825.3 L28644.3,33758.5 L28721.8,33751.4 L29490.8,33519.6 L30106.5,33004 L30469.8,32287.8 L30522,31486.4 L30517.5,31453.8 L30465.2,31074.4 L30427.7,30802.7 L24595.3,-11482.6 L24517.5,-12046.2 L24513.4,-12075.8 L24160.7,-12963.6 L23436.4,-13586.5 L23412.3,-13598.7 L22955.8,-13830.1 L22936.6,-13839.8 L-7326.34,-29178.6 L-7353.38,-29192.3 L-7815.69,-29426.6 L-7867.06,-29452.6 L-7894.09,-29466.3 L-8583.11,-29670.8 L-9299.91,-29618.5 L-9951.93,-29316.1 L-10455,-28802.8 L-10476.1,-28771.7 L-10876.7,-28179.3 L-35219.8,7815.22 L-35236.1,7839.34 L-35485.4,8208.03 L-35546,8297.52 L-35562.3,8321.63 L-35747.8,8736.09 L-35765.2,8763.61 L-35767.9,8780.94 L-35844.8,8952.57 L-35887.4,9530.79 L-35891.3,9555.49 L-35889.7,9562 M-5467.72,11338 L-5476.53,11158.8 L-5469.47,11015.2 L-5467.72,10979.6 L-5441.39,10802.1 L-5397.79,10628 L-5337.34,10459.1 L-5260.62,10296.9 L-5168.37,10143 L-5061.48,9998.84 L-4940.98,9865.88 L-4808.03,9745.38 L-4663.9,9638.49 L-4510,9546.24 L-4347.79,9469.52 L-4178.84,9409.07 L-4004.78,9365.47 L-3882.35,9347.31 L-3827.29,9339.15 L-3650.71,9330.47 L-3467.94,9339.28 L-3291.35,9365.47 L-3117.3,9409.07 L-2948.35,9469.52 L-2786.14,9546.24 L-2632.23,9638.49 L-2488.11,9745.38 L-2468.52,9763.14 L-2355.15,9865.88 L-2269.75,9960.11 L-2236.17,9997.16 L-2234.65,9998.84 L-2127.84,10142.9 L-2035.49,10296.9 L-1958.8,10459.1 L-1898.34,10628 L-1854.75,10802.1 L-1828.42,10979.6 L-1819.61,11158.8 L-1828.42,11338 L-1854.75,11515.5 L-1898.34,11689.6 L-1958.8,11858.5 L-2035.51,12020.7 L-2126.53,12172.6 L-2127.76,12174.6 L-2234.65,12318.8 L-2355.15,12451.7 L-2488.11,12572.2 L-2632.23,12679.1 L-2786.14,12771.4 L-2948.35,12848.1 L-3117.3,12908.5 L-3291.35,12952.1 L-3468.85,12978.5 L-3648.07,12987.3 L-3827.29,12978.5 L-4004.78,12952.1 L-4178.84,12908.5 L-4347.79,12848.1 L-4510,12771.4 L-4663.9,12679.1 L-4808.03,12572.2 L-4940.98,12451.7 L-5061.48,12318.8 L-5168.37,12174.6 L-5260.62,12020.7 L-5337.34,11858.5 L-5397.79,11689.6 L-5441.39,11515.5 L-5467.72,11338"/>
</g>

<g fill="none" stroke="#000000" stroke-opacity="1" stroke-width="1" stroke-linecap="square" stroke-linejoin="bevel" transform="matrix(0.99999,0,0,-0.99999,35895.7,38258.7)"
font-family="MS Shell Dlg 2" font-size="10.3125" font-weight="400" font-style="normal" 
>
</g>

<g fill="none" stroke="#000000" stroke-opacity="1" stroke-width="1" stroke-linecap="square" stroke-linejoin="bevel" transform="matrix(1,0,0,-1,0,67929.7)"
font-family="MS Shell Dlg 2" font-size="10.3125" font-weight="400" font-style="normal" 
>
</g>
</g>
</svg>
