<?xml version="1.0" encoding="UTF-8" standalone="no"?>
<svg width="18745.2mm" height="19171.6mm"
 xmlns="http://www.w3.org/2000/svg" xmlns:xlink="http://www.w3.org/1999/xlink"  version="1.2" baseProfile="tiny">
<title>SVG Generator Example Drawing</title>
<desc>An SVG drawing created by the SVG Generator</desc>
<defs>
</defs>
<g fill="none" stroke="black" stroke-width="1" fill-rule="evenodd" stroke-linecap="square" stroke-linejoin="bevel" >

<g fill="none" stroke="#000000" stroke-opacity="1" stroke-width="1" stroke-linecap="square" stroke-linejoin="bevel" transform="matrix(1,0,0,-1,0,67931.7)"
font-family="MS Shell Dlg 2" font-size="10.3125" font-weight="400" font-style="normal" 
>
</g>

<g fill="none" stroke="#000000" stroke-opacity="1" stroke-width="1" stroke-linecap="square" stroke-linejoin="bevel" transform="matrix(1,0,0,-1,0,67931.7)"
font-family="MS Shell Dlg 2" font-size="10.3125" font-weight="400" font-style="normal" 
>
</g>

<g fill="none" stroke="#000000" stroke-opacity="1" stroke-width="1" stroke-linecap="square" stroke-linejoin="bevel" transform="matrix(0.99999,0,0,-0.99999,35896.7,38259.7)"
font-family="MS Shell Dlg 2" font-size="10.3125" font-weight="400" font-style="normal" 
>
</g>

<g fill="#333333" fill-opacity="0.2" stroke="#333333" stroke-opacity="1" stroke-width="1" stroke-linecap="round" stroke-linejoin="round" transform="matrix(0.99999,0,0,-0.99999,35896.7,38259.7)"
font-family="MS Shell Dlg 2" font-size="10.3125" font-weight="400" font-style="normal" 
>
<path vector-effect="non-scaling-stroke" fill-rule="evenodd" d="M-20821.6,10685 L-20821.6,10685.4 L-20821.5,10685.7 L-20821.3,10686 L-20821,10686.2 L-20820.7,10686.3 L-16789.7,10915 L-16789.4,10914.9 L-16789,10914.8 L-16788.8,10914.5 L-16788.7,10914.2 L-16788.7,10913.8 L-16788.8,10912.9 L-16761.9,10439.9 L-16759.2,10391 L-16661.5,10013.2 L-16594.3,9924.01 L-16594.1,9923.62 L-16594.2,9923.19 L-16594.3,9922.8 L-16594.7,9922.53 L-16595.1,9922.41 L-18510.8,9813.72 L-20901.8,9678.06 L-20902.2,9678.12 L-20902.6,9678.36 L-20902.8,9678.73 L-20902.9,9679.16 L-20902.7,9679.56 L-20846.1,9775.69 L-20791.8,10162.2 L-20794.5,10211.1 L-20821.4,10684.1 L-20821.6,10685"/>
</g>

<g fill="none" stroke="#000000" stroke-opacity="1" stroke-width="1" stroke-linecap="square" stroke-linejoin="bevel" transform="matrix(0.99999,0,0,-0.99999,35896.7,38259.7)"
font-family="MS Shell Dlg 2" font-size="10.3125" font-weight="400" font-style="normal" 
>
</g>

<g fill="none" stroke="#000000" stroke-opacity="1" stroke-width="1" stroke-linecap="square" stroke-linejoin="bevel" transform="matrix(0.99999,0,0,-0.99999,35896.7,38259.7)"
font-family="MS Shell Dlg 2" font-size="10.3125" font-weight="400" font-style="normal" 
>
</g>

<g fill="#333333" fill-opacity="0.2" stroke="#333333" stroke-opacity="1" stroke-width="1" stroke-linecap="round" stroke-linejoin="round" transform="matrix(0.99999,0,0,-0.99999,35896.7,38259.7)"
font-family="MS Shell Dlg 2" font-size="10.3125" font-weight="400" font-style="normal" 
>
<path vector-effect="non-scaling-stroke" fill-rule="evenodd" d="M-5685.22,-4395.46 L-5214.41,-4457.89 L-5214.04,-4458.01 L-5213.75,-4458.27 L-5213.58,-4458.62 L-5213.55,-4459.01 L-6108.07,-11205.2 L-6108.18,-11205.5 L-6108.4,-11205.8 L-6108.69,-11206 L-6109.04,-11206 L-6109.39,-11206 L-6110.26,-11205.7 L-6579.98,-11143.4 L-6628.52,-11137 L-7017.95,-11162.1 L-7118.1,-11211.4 L-7118.51,-11211.5 L-7118.93,-11211.4 L-7119.28,-11211.2 L-7119.49,-11210.8 L-7119.53,-11210.4 L-6206.86,-4327.3 L-6206.73,-4326.93 L-6206.48,-4326.64 L-6206.13,-4326.47 L-6205.74,-4326.44 L-5685.22,-4395.46"/>
</g>

<g fill="none" stroke="#000000" stroke-opacity="1" stroke-width="1" stroke-linecap="square" stroke-linejoin="bevel" transform="matrix(0.99999,0,0,-0.99999,35896.7,38259.7)"
font-family="MS Shell Dlg 2" font-size="10.3125" font-weight="400" font-style="normal" 
>
</g>

<g fill="none" stroke="#000000" stroke-opacity="1" stroke-width="1" stroke-linecap="square" stroke-linejoin="bevel" transform="matrix(0.99999,0,0,-0.99999,35896.7,38259.7)"
font-family="MS Shell Dlg 2" font-size="10.3125" font-weight="400" font-style="normal" 
>
</g>

<g fill="#333333" fill-opacity="0.2" stroke="#333333" stroke-opacity="1" stroke-width="1" stroke-linecap="round" stroke-linejoin="round" transform="matrix(0.99999,0,0,-0.99999,35896.7,38259.7)"
font-family="MS Shell Dlg 2" font-size="10.3125" font-weight="400" font-style="normal" 
>
<path vector-effect="non-scaling-stroke" fill-rule="evenodd" d="M7811,1772.95 L7811.15,1773.35 L7811.45,1773.66 L7811.85,1773.81 L7812.28,1773.78 L7812.65,1773.57 L11732.2,-1664.03 L11732.4,-1664.31 L11732.5,-1664.65 L11732.5,-1665.01 L11732.3,-1665.34 L11732.1,-1665.59 L11731.8,-1665.75 L11624,-1694.62 L11314.4,-1932.19 L11282.1,-1969.01 L10969.6,-2325.24 L10969.2,-2326.04 L10968.9,-2326.36 L10968.5,-2326.53 L10968,-2326.5 L10967.6,-2326.29 L7255.78,929.197 L7255.52,929.551 L7255.44,929.982 L7255.55,930.406 L7255.83,930.742 L7256.56,931.303 L7323.59,1007.72 L7568.99,1287.54 L7601.29,1324.35 L7796.42,1662.3 L7811,1772.95"/>
</g>

<g fill="none" stroke="#000000" stroke-opacity="1" stroke-width="1" stroke-linecap="square" stroke-linejoin="bevel" transform="matrix(0.99999,0,0,-0.99999,35896.7,38259.7)"
font-family="MS Shell Dlg 2" font-size="10.3125" font-weight="400" font-style="normal" 
>
</g>

<g fill="none" stroke="#000000" stroke-opacity="1" stroke-width="1" stroke-linecap="square" stroke-linejoin="bevel" transform="matrix(0.99999,0,0,-0.99999,35896.7,38259.7)"
font-family="MS Shell Dlg 2" font-size="10.3125" font-weight="400" font-style="normal" 
>
</g>

<g fill="#333333" fill-opacity="0.2" stroke="#333333" stroke-opacity="1" stroke-width="1" stroke-linecap="round" stroke-linejoin="round" transform="matrix(0.99999,0,0,-0.99999,35896.7,38259.7)"
font-family="MS Shell Dlg 2" font-size="10.3125" font-weight="400" font-style="normal" 
>
<path vector-effect="non-scaling-stroke" fill-rule="evenodd" d="M-35890.7,9562.09 L-35896.6,9641.92 L-35896.5,9642.26 L-35709.6,10307.8 L-35709.5,10308 L-35697.2,10333.7 L-35462.4,10822.8 L-35450.1,10848.5 L-27722.3,26948 L-26171.6,30178.5 L-23915,34879.9 L-23095.4,36587.3 L-22846.4,37106.1 L-22834,37132 L-22833.9,37132.2 L-22347.5,37772.1 L-22347.2,37772.4 L-21648.2,38169.2 L-21647.9,38169.3 L-20849.1,38258.9 L-20848.9,38258.9 L-20199.9,38199.9 L27869.1,33830 L27870.6,33829.8 L27909.8,33826.3 L28644.4,33759.5 L28721.9,33752.4 L28722.1,33752.4 L29491.1,33520.6 L29491.4,33520.4 L30107.1,33004.8 L30107.4,33004.5 L30470.7,32288.2 L30470.8,32287.9 L30523,31486.4 L30523,31486.2 L30518.5,31453.7 L30466.2,31074.3 L30428.7,30802.6 L24596.3,-11482.7 L24518.5,-12046.3 L24514.4,-12076 L24514.4,-12076.2 L24161.6,-12964 L24161.3,-12964.4 L23437,-13587.3 L23436.8,-13587.4 L23412.8,-13599.6 L22956.3,-13831 L22937,-13840.7 L-7325.89,-29179.5 L-7352.93,-29193.2 L-7815.24,-29427.5 L-7866.61,-29453.5 L-7893.64,-29467.2 L-7893.81,-29467.3 L-8582.82,-29671.8 L-8583.18,-29671.8 L-9299.98,-29619.5 L-9300.33,-29619.4 L-9952.36,-29317 L-9952.65,-29316.8 L-10455.7,-28803.5 L-10455.8,-28803.4 L-10476.9,-28772.2 L-10877.5,-28179.9 L-35220.6,7814.66 L-35236.9,7838.78 L-35486.3,8207.47 L-35546.8,8296.96 L-35563.1,8321.07 L-35563.2,8321.23 L-35748.7,8735.61 L-35766,8763.08 L-35766.1,8763.46 L-35768.9,8780.65 L-35845.7,8952.16 L-35845.8,8952.5 L-35888.4,9530.68 L-35892.3,9555.33 L-35892.3,9555.73 L-35890.7,9562.09 M-7690.7,-27120.4 L-7690.53,-27119.9 L-7690.17,-27119.6 L21546.6,-12301 L21546.9,-12300.9 L21547.3,-12301 L21547.7,-12301.2 L21848.9,-12565.3 L22190.3,-12761.6 L22581,-12810.9 L22960.5,-12705.5 L22983.3,-12693.9 L23345.5,-12382.4 L23521.9,-11938.4 L23525.9,-11909.4 L23603.6,-11346.4 L23594.5,-11018.6 L23480,-10711.5 L23272.3,-10457.8 L22777,-10023.5 L22776.8,-10023.2 L22776.7,-10022.9 L22776.7,-10022.6 L28270.4,29806.5 L28270.5,29806.9 L28270.8,29807.2 L28989,30266.8 L29292.3,30570.1 L29440.7,30972.6 L29473.6,31211.2 L29525.9,31590.6 L29530.2,31622 L29504.1,32022.8 L29322.5,32380.9 L29014.6,32638.7 L28630.1,32754.7 L28591,32758.2 L28263.4,32733.8 L27961.4,32604.6 L26876,31910.2 L26875.7,31910.1 L26875.4,31910 L-19699.7,36144.2 L-19700.1,36144.3 L-19700.5,36144.6 L-20175.9,36831.3 L-20494.4,37126 L-20907.7,37258.1 L-20938.8,37260.9 L-21338.3,37216.1 L-21687.8,37017.7 L-21931,36697.7 L-21943.1,36672.5 L-22179.4,36180.2 L-22273.2,35843.8 L-22245.7,35495.7 L-22100,35178.2 L-21776.2,34710.4 L-21776.1,34710.1 L-21776,34709.8 L-21776.1,34709.4 L-22110.1,34013.6 L-24366.8,29312.2 L-25917.4,26081.7 L-33398.1,10497 L-33398.3,10496.7 L-33398.6,10496.5 L-33398.9,10496.5 L-33949.1,10465.2 L-34293.2,10383.1 L-34587.1,10186.3 L-34794.1,9899.49 L-34805.9,9874.95 L-34899.4,9542.11 L-34874,9197.41 L-34732.7,8881.86 L-34716.8,8858.29 L-34656.3,8768.8 L-34407.3,8400.65 L-34169.5,8153.88 L-33862.5,8001.88 L-33522.2,7962.4 L-32927.1,7996.17 L-32926.8,7996.13 L-32926.5,7995.97 L-32926.2,7995.73 L-10062.5,-25811.2 L-10062.4,-25811.6 L-10062.4,-25811.9 L-10210.3,-26927.1 L-10192.3,-27288 L-10047.2,-27618.9 L-9646.89,-28210.9 L-9626.35,-28241.3 L-9374.76,-28498 L-9048.76,-28649.1 L-8690.36,-28675.3 L-8345.77,-28573 L-8320.18,-28560.1 L-7956.47,-28246.5 L-7780.85,-27799.5 L-7690.7,-27120.4"/>
</g>

<g fill="none" stroke="#000000" stroke-opacity="1" stroke-width="1" stroke-linecap="square" stroke-linejoin="bevel" transform="matrix(0.99999,0,0,-0.99999,35896.7,38259.7)"
font-family="MS Shell Dlg 2" font-size="10.3125" font-weight="400" font-style="normal" 
>
</g>

<g fill="none" stroke="#000000" stroke-opacity="1" stroke-width="1" stroke-linecap="square" stroke-linejoin="bevel" transform="matrix(0.99999,0,0,-0.99999,35896.7,38259.7)"
font-family="MS Shell Dlg 2" font-size="10.3125" font-weight="400" font-style="normal" 
>
</g>

<g fill="#333333" fill-opacity="0.2" stroke="#333333" stroke-opacity="1" stroke-width="1" stroke-linecap="round" stroke-linejoin="round" transform="matrix(0.99999,0,0,-0.99999,35896.7,38259.7)"
font-family="MS Shell Dlg 2" font-size="10.3125" font-weight="400" font-style="normal" 
>
<path vector-effect="non-scaling-stroke" fill-rule="evenodd" d="M-4023.61,7345.38 L-4023.71,7345.39 L-4175.95,7367.97 L-4395.58,7400.55 L-4395.68,7400.57 L-4760.35,7491.92 L-4760.45,7491.94 L-5114.42,7618.6 L-5114.51,7618.63 L-5454.36,7779.37 L-5454.44,7779.42 L-5776.9,7972.69 L-5776.98,7972.74 L-6078.94,8196.69 L-6079.02,8196.76 L-6357.57,8449.22 L-6357.64,8449.29 L-6610.11,8727.85 L-6610.17,8727.93 L-6834.12,9029.89 L-6834.18,9029.97 L-7027.45,9352.43 L-7027.5,9352.51 L-7103.79,9513.81 L-7103.88,9514.24 L-7103.79,9514.66 L-7103.53,9515 L-7103.14,9515.21 L-6956.71,9554.84 L-6636,9814.03 L-6447.13,10180.6 L-6422.23,10592.3 L-6465.1,10881.3 L-6465.11,10881.4 L-6469.27,10966.1 L-6471.66,11014.9 L-6567.25,11395.1 L-6801.56,11709.3 L-7138.6,11909.3 L-7395.31,11945.7 L-7395.7,11945.9 L-7396,11946.2 L-7396.16,11946.5 L-7396.14,11947 L-7314.95,12271.1 L-7314.92,12271.2 L-7188.27,12625.1 L-7188.23,12625.2 L-7027.5,12965.1 L-7027.45,12965.2 L-6856.05,13251.1 L-6855.82,13251.4 L-6855.51,13251.6 L-6855.15,13251.6 L-6854.81,13251.5 L-6854.51,13251.3 L-6732.27,13136.9 L-6332.49,13001.2 L-5912.35,13042.6 L-5546.64,13253.7 L-5443.83,13346.9 L-5443.75,13347 L-5252.16,13489.1 L-5212.83,13518.2 L-4955.02,13800.3 L-4821.85,14158.5 L-4832.71,14540.4 L-4930.52,14763.7 L-4930.61,14764.1 L-4930.53,14764.5 L-4930.29,14764.8 L-4929.94,14765 L-4760.45,14825.7 L-4760.35,14825.7 L-4395.68,14917 L-4395.58,14917 L-4023.71,14972.2 L-4023.61,14972.2 L-3648.12,14990.7 L-3648.02,14990.7 L-3272.53,14972.2 L-3272.43,14972.2 L-2900.56,14917 L-2900.46,14917 L-2535.78,14825.7 L-2535.69,14825.7 L-2181.72,14699 L-2181.63,14699 L-1841.78,14538.2 L-1841.7,14538.2 L-1519.24,14344.9 L-1519.16,14344.9 L-1217.2,14120.9 L-1217.12,14120.8 L-1074.55,13991.6 L-1074.31,13991.3 L-1074.22,13990.9 L-1074.3,13990.5 L-1074.53,13990.2 L-1251.55,13821.2 L-1408.91,13472.1 L-1423.49,13089.4 L-1293.12,12729.2 L-1267.95,12687.2 L-1151.65,12493.2 L-1151.61,12493.1 L-1087.03,12356.5 L-830.578,12022 L-459.197,11822.9 L-38.7694,11794.5 L116.932,11852.6 L117.281,11852.6 L117.629,11852.6 L117.935,11852.4 L118.158,11852.1 L118.271,11851.8 L165.342,11534.4 L165.352,11534.3 L183.799,11158.8 L183.8,11158.8 L183.799,11158.7 L165.352,10783.3 L165.342,10783.2 L110.18,10411.3 L110.161,10411.2 L18.814,10046.5 L18.7856,10046.4 L-30.0914,9909.82 L-30.3211,9909.45 L-30.6836,9909.22 L-31.1111,9909.16 L-31.5241,9909.28 L-160.74,9982.14 L-568.898,10023.2 L-959.197,9896.92 L-1266.03,9624.49 L-1459.94,9363.05 L-1460,9362.98 L-1494.48,9324.93 L-1527.31,9288.71 L-1729.29,8950.19 L-1784.78,8560.03 L-1685.21,8178.73 L-1525.85,7970.02 L-1525.67,7969.64 L-1525.67,7969.23 L-1525.83,7968.84 L-1526.13,7968.56 L-1841.7,7779.42 L-1841.78,7779.37 L-2181.63,7618.63 L-2181.72,7618.6 L-2535.69,7491.94 L-2535.78,7491.92 L-2900.46,7400.57 L-2900.56,7400.55 L-3272.43,7345.39 L-3272.53,7345.38 L-3648.02,7326.93 L-3648.12,7326.93 L-3651.68,7327.11 L-4023.61,7345.38 M-5466.72,11337.9 L-5475.52,11158.8 L-5468.47,11015.3 L-5466.72,10979.7 L-5440.41,10802.3 L-5396.83,10628.3 L-5336.42,10459.5 L-5259.74,10297.3 L-5167.54,10143.5 L-5060.71,9999.47 L-4940.27,9866.59 L-4807.39,9746.16 L-4663.35,9639.32 L-4509.53,9547.13 L-4347.41,9470.45 L-4178.55,9410.03 L-4004.59,9366.46 L-3882.2,9348.3 L-3827.19,9340.14 L-3650.71,9331.47 L-3468.03,9340.28 L-3291.55,9366.46 L-3117.59,9410.03 L-2948.73,9470.45 L-2786.61,9547.13 L-2632.79,9639.32 L-2488.74,9746.16 L-2469.19,9763.88 L-2355.86,9866.59 L-2270.49,9960.78 L-2236.91,9997.84 L-2235.43,9999.47 L-2128.68,10143.4 L-2036.38,10297.4 L-1959.72,10459.5 L-1899.3,10628.3 L-1855.73,10802.3 L-1829.41,10979.7 L-1820.61,11158.8 L-1829.41,11337.9 L-1855.73,11515.3 L-1899.3,11689.3 L-1959.72,11858.1 L-2036.4,12020.3 L-2127.39,12172.1 L-2128.6,12174.1 L-2235.43,12318.1 L-2355.86,12451 L-2488.74,12571.4 L-2632.79,12678.3 L-2786.61,12770.5 L-2948.73,12847.1 L-3117.59,12907.6 L-3291.55,12951.1 L-3468.95,12977.5 L-3648.07,12986.3 L-3827.19,12977.5 L-4004.59,12951.1 L-4178.55,12907.6 L-4347.41,12847.1 L-4509.53,12770.5 L-4663.35,12678.3 L-4807.39,12571.4 L-4940.27,12451 L-5060.71,12318.1 L-5167.54,12174.1 L-5259.74,12020.3 L-5336.42,11858.1 L-5396.83,11689.3 L-5440.41,11515.3 L-5466.72,11337.9"/>
</g>

<g fill="none" stroke="#000000" stroke-opacity="1" stroke-width="1" stroke-linecap="square" stroke-linejoin="bevel" transform="matrix(0.99999,0,0,-0.99999,35896.7,38259.7)"
font-family="MS Shell Dlg 2" font-size="10.3125" font-weight="400" font-style="normal" 
>
</g>

<g fill="none" stroke="#000000" stroke-opacity="1" stroke-width="1" stroke-linecap="square" stroke-linejoin="bevel" transform="matrix(0.99999,0,0,-0.99999,35896.7,38259.7)"
font-family="MS Shell Dlg 2" font-size="10.3125" font-weight="400" font-style="normal" 
>
</g>

<g fill="#333333" fill-opacity="0.2" stroke="#333333" stroke-opacity="1" stroke-width="1" stroke-linecap="round" stroke-linejoin="round" transform="matrix(0.99999,0,0,-0.99999,35896.7,38259.7)"
font-family="MS Shell Dlg 2" font-size="10.3125" font-weight="400" font-style="normal" 
>
<path vector-effect="non-scaling-stroke" fill-rule="evenodd" d="M9812.15,20366.7 L9811.92,20367.1 L9811.88,20367.5 L9812.02,20368 L9812.33,20368.3 L14540.2,23394.1 L14540.6,23394.3 L14540.9,23394.3 L14541.3,23394.2 L14541.5,23394 L14541.7,23393.7 L14542,23392.8 L14797.5,22993.7 L14823.9,22952.5 L15094.3,22671.1 L15196.5,22626.4 L15196.9,22626.1 L15197.1,22625.8 L15197.1,22625.3 L15197,22624.9 L15196.7,22624.6 L10236.1,19449.9 L10235.8,19449.7 L10235.5,19449.7 L10235.1,19449.8 L10234.8,19450.1 L10234.7,19450.4 L10234.6,19450.7 L10236.8,19562.3 L10094.6,19925.7 L10068.2,19967 L9812.79,20366.1 L9812.15,20366.7"/>
</g>

<g fill="none" stroke="#000000" stroke-opacity="1" stroke-width="1" stroke-linecap="square" stroke-linejoin="bevel" transform="matrix(0.99999,0,0,-0.99999,35896.7,38259.7)"
font-family="MS Shell Dlg 2" font-size="10.3125" font-weight="400" font-style="normal" 
>
</g>

<g fill="none" stroke="#000000" stroke-opacity="1" stroke-width="1" stroke-linecap="square" stroke-linejoin="bevel" transform="matrix(0.99999,0,0,-0.99999,35896.7,38259.7)"
font-family="MS Shell Dlg 2" font-size="10.3125" font-weight="400" font-style="normal" 
>
</g>

<g fill="#333333" fill-opacity="0.2" stroke="#333333" stroke-opacity="1" stroke-width="1" stroke-linecap="round" stroke-linejoin="round" transform="matrix(0.99999,0,0,-0.99999,35896.7,38259.7)"
font-family="MS Shell Dlg 2" font-size="10.3125" font-weight="400" font-style="normal" 
>
<path vector-effect="non-scaling-stroke" fill-rule="evenodd" d="M-13090.9,25676.4 L-13090.6,25676.7 L-13090.2,25676.7 L-13089.9,25676.7 L-13089.6,25676.6 L-13089.3,25676.3 L-10765,22318.9 L-10764.8,22318.6 L-10764.8,22318.3 L-10764.9,22317.9 L-10765.1,22317.6 L-10765.4,22317.4 L-10766.2,22317.1 L-11155.8,22047.4 L-11196.1,22019.5 L-11467.4,21739 L-11508.4,21635.2 L-11508.7,21634.9 L-11509,21634.7 L-11509.5,21634.6 L-11509.9,21634.7 L-11510.2,21635 L-13039.5,23844.1 L-13280,24191.4 L-13991.8,25219.5 L-13991.9,25219.9 L-13991.9,25220.3 L-13991.7,25220.7 L-13991.4,25221 L-13990.9,25221.1 L-13879.4,25222.9 L-13521.3,25378.2 L-13481.1,25406.1 L-13091.5,25675.8 L-13090.9,25676.4"/>
</g>

<g fill="none" stroke="#000000" stroke-opacity="1" stroke-width="1" stroke-linecap="square" stroke-linejoin="bevel" transform="matrix(0.99999,0,0,-0.99999,35896.7,38259.7)"
font-family="MS Shell Dlg 2" font-size="10.3125" font-weight="400" font-style="normal" 
>
</g>

<g fill="none" stroke="#000000" stroke-opacity="1" stroke-width="1" stroke-linecap="square" stroke-linejoin="bevel" transform="matrix(0.99999,0,0,-0.99999,35896.7,38259.7)"
font-family="MS Shell Dlg 2" font-size="10.3125" font-weight="400" font-style="normal" 
>
</g>

<g fill="#ae5151" fill-opacity="0.2" stroke="#333333" stroke-opacity="1" stroke-width="1" stroke-linecap="round" stroke-linejoin="round" transform="matrix(0.99999,0,0,-0.99999,35896.7,38259.7)"
font-family="MS Shell Dlg 2" font-size="10.3125" font-weight="400" font-style="normal" 
>
<path vector-effect="non-scaling-stroke" fill-rule="evenodd" d="M-20821.6,10685 L-20821.6,10685.4 L-20821.5,10685.7 L-20821.3,10686 L-20821,10686.2 L-20820.7,10686.3 L-16789.7,10915 L-16789.4,10914.9 L-16789,10914.8 L-16788.8,10914.5 L-16788.7,10914.2 L-16788.7,10913.8 L-16788.8,10912.9 L-16761.9,10439.9 L-16759.2,10391 L-16661.5,10013.2 L-16594.3,9924.01 L-16594.1,9923.62 L-16594.2,9923.19 L-16594.3,9922.8 L-16594.7,9922.53 L-16595.1,9922.41 L-18510.8,9813.72 L-20901.8,9678.06 L-20902.2,9678.12 L-20902.6,9678.36 L-20902.8,9678.73 L-20902.9,9679.16 L-20902.7,9679.56 L-20846.1,9775.69 L-20791.8,10162.2 L-20794.5,10211.1 L-20821.4,10684.1 L-20821.6,10685"/>
</g>

<g fill="none" stroke="#000000" stroke-opacity="1" stroke-width="1" stroke-linecap="square" stroke-linejoin="bevel" transform="matrix(0.99999,0,0,-0.99999,35896.7,38259.7)"
font-family="MS Shell Dlg 2" font-size="10.3125" font-weight="400" font-style="normal" 
>
</g>

<g fill="none" stroke="#000000" stroke-opacity="1" stroke-width="1" stroke-linecap="square" stroke-linejoin="bevel" transform="matrix(0.99999,0,0,-0.99999,35896.7,38259.7)"
font-family="MS Shell Dlg 2" font-size="10.3125" font-weight="400" font-style="normal" 
>
</g>

<g fill="#ae5151" fill-opacity="0.2" stroke="#333333" stroke-opacity="1" stroke-width="1" stroke-linecap="round" stroke-linejoin="round" transform="matrix(0.99999,0,0,-0.99999,35896.7,38259.7)"
font-family="MS Shell Dlg 2" font-size="10.3125" font-weight="400" font-style="normal" 
>
<path vector-effect="non-scaling-stroke" fill-rule="evenodd" d="M-5685.22,-4395.46 L-5214.41,-4457.89 L-5214.04,-4458.01 L-5213.75,-4458.27 L-5213.58,-4458.62 L-5213.55,-4459.01 L-6108.07,-11205.2 L-6108.18,-11205.5 L-6108.4,-11205.8 L-6108.69,-11206 L-6109.04,-11206 L-6109.39,-11206 L-6110.26,-11205.7 L-6579.98,-11143.4 L-6628.52,-11137 L-7017.95,-11162.1 L-7118.1,-11211.4 L-7118.51,-11211.5 L-7118.93,-11211.4 L-7119.28,-11211.2 L-7119.49,-11210.8 L-7119.53,-11210.4 L-6206.86,-4327.3 L-6206.73,-4326.93 L-6206.48,-4326.64 L-6206.13,-4326.47 L-6205.74,-4326.44 L-5685.22,-4395.46"/>
</g>

<g fill="none" stroke="#000000" stroke-opacity="1" stroke-width="1" stroke-linecap="square" stroke-linejoin="bevel" transform="matrix(0.99999,0,0,-0.99999,35896.7,38259.7)"
font-family="MS Shell Dlg 2" font-size="10.3125" font-weight="400" font-style="normal" 
>
</g>

<g fill="none" stroke="#000000" stroke-opacity="1" stroke-width="1" stroke-linecap="square" stroke-linejoin="bevel" transform="matrix(0.99999,0,0,-0.99999,35896.7,38259.7)"
font-family="MS Shell Dlg 2" font-size="10.3125" font-weight="400" font-style="normal" 
>
</g>

<g fill="#ae5151" fill-opacity="0.2" stroke="#333333" stroke-opacity="1" stroke-width="1" stroke-linecap="round" stroke-linejoin="round" transform="matrix(0.99999,0,0,-0.99999,35896.7,38259.7)"
font-family="MS Shell Dlg 2" font-size="10.3125" font-weight="400" font-style="normal" 
>
<path vector-effect="non-scaling-stroke" fill-rule="evenodd" d="M7811,1772.95 L7811.15,1773.35 L7811.45,1773.66 L7811.85,1773.81 L7812.28,1773.78 L7812.65,1773.57 L11732.2,-1664.03 L11732.4,-1664.31 L11732.5,-1664.65 L11732.5,-1665.01 L11732.3,-1665.34 L11732.1,-1665.59 L11731.8,-1665.75 L11624,-1694.62 L11314.4,-1932.19 L11282.1,-1969.01 L10969.6,-2325.24 L10969.2,-2326.04 L10968.9,-2326.36 L10968.5,-2326.53 L10968,-2326.5 L10967.6,-2326.29 L7255.78,929.197 L7255.52,929.551 L7255.44,929.982 L7255.55,930.406 L7255.83,930.742 L7256.56,931.303 L7323.59,1007.72 L7568.99,1287.54 L7601.29,1324.35 L7796.42,1662.3 L7811,1772.95"/>
</g>

<g fill="none" stroke="#000000" stroke-opacity="1" stroke-width="1" stroke-linecap="square" stroke-linejoin="bevel" transform="matrix(0.99999,0,0,-0.99999,35896.7,38259.7)"
font-family="MS Shell Dlg 2" font-size="10.3125" font-weight="400" font-style="normal" 
>
</g>

<g fill="none" stroke="#000000" stroke-opacity="1" stroke-width="1" stroke-linecap="square" stroke-linejoin="bevel" transform="matrix(0.99999,0,0,-0.99999,35896.7,38259.7)"
font-family="MS Shell Dlg 2" font-size="10.3125" font-weight="400" font-style="normal" 
>
</g>

<g fill="#ae5151" fill-opacity="0.2" stroke="#333333" stroke-opacity="1" stroke-width="1" stroke-linecap="round" stroke-linejoin="round" transform="matrix(0.99999,0,0,-0.99999,35896.7,38259.7)"
font-family="MS Shell Dlg 2" font-size="10.3125" font-weight="400" font-style="normal" 
>
<path vector-effect="non-scaling-stroke" fill-rule="evenodd" d="M-35890.7,9562.09 L-35896.6,9641.92 L-35896.5,9642.26 L-35709.6,10307.8 L-35709.5,10308 L-35697.2,10333.7 L-35462.4,10822.8 L-35450.1,10848.5 L-27722.3,26948 L-26171.6,30178.5 L-23915,34879.9 L-23095.4,36587.3 L-22846.4,37106.1 L-22834,37132 L-22833.9,37132.2 L-22347.5,37772.1 L-22347.2,37772.4 L-21648.2,38169.2 L-21647.9,38169.3 L-20849.1,38258.9 L-20848.9,38258.9 L-20199.9,38199.9 L27869.1,33830 L27870.6,33829.8 L27909.8,33826.3 L28644.4,33759.5 L28721.9,33752.4 L28722.1,33752.4 L29491.1,33520.6 L29491.4,33520.4 L30107.1,33004.8 L30107.4,33004.5 L30470.7,32288.2 L30470.8,32287.9 L30523,31486.4 L30523,31486.2 L30518.5,31453.7 L30466.2,31074.3 L30428.7,30802.6 L24596.3,-11482.7 L24518.5,-12046.3 L24514.4,-12076 L24514.4,-12076.2 L24161.6,-12964 L24161.3,-12964.4 L23437,-13587.3 L23436.8,-13587.4 L23412.8,-13599.6 L22956.3,-13831 L22937,-13840.7 L-7325.89,-29179.5 L-7352.93,-29193.2 L-7815.24,-29427.5 L-7866.61,-29453.5 L-7893.64,-29467.2 L-7893.81,-29467.3 L-8582.82,-29671.8 L-8583.18,-29671.8 L-9299.98,-29619.5 L-9300.33,-29619.4 L-9952.36,-29317 L-9952.65,-29316.8 L-10455.7,-28803.5 L-10455.8,-28803.4 L-10476.9,-28772.2 L-10877.5,-28179.9 L-35220.6,7814.66 L-35236.9,7838.78 L-35486.3,8207.47 L-35546.8,8296.96 L-35563.1,8321.07 L-35563.2,8321.23 L-35748.7,8735.61 L-35766,8763.08 L-35766.1,8763.46 L-35768.9,8780.65 L-35845.7,8952.16 L-35845.8,8952.5 L-35888.4,9530.68 L-35892.3,9555.33 L-35892.3,9555.73 L-35890.7,9562.09 M-7690.7,-27120.4 L-7690.53,-27119.9 L-7690.17,-27119.6 L21546.6,-12301 L21546.9,-12300.9 L21547.3,-12301 L21547.7,-12301.2 L21848.9,-12565.3 L22190.3,-12761.6 L22581,-12810.9 L22960.5,-12705.5 L22983.3,-12693.9 L23345.5,-12382.4 L23521.9,-11938.4 L23525.9,-11909.4 L23603.6,-11346.4 L23594.5,-11018.6 L23480,-10711.5 L23272.3,-10457.8 L22777,-10023.5 L22776.8,-10023.2 L22776.7,-10022.9 L22776.7,-10022.6 L28270.4,29806.5 L28270.5,29806.9 L28270.8,29807.2 L28989,30266.8 L29292.3,30570.1 L29440.7,30972.6 L29473.6,31211.2 L29525.9,31590.6 L29530.2,31622 L29504.1,32022.8 L29322.5,32380.9 L29014.6,32638.7 L28630.1,32754.7 L28591,32758.2 L28263.4,32733.8 L27961.4,32604.6 L26876,31910.2 L26875.7,31910.1 L26875.4,31910 L-19699.7,36144.2 L-19700.1,36144.3 L-19700.5,36144.6 L-20175.9,36831.3 L-20494.4,37126 L-20907.7,37258.1 L-20938.8,37260.9 L-21338.3,37216.1 L-21687.8,37017.7 L-21931,36697.7 L-21943.1,36672.5 L-22179.4,36180.2 L-22273.2,35843.8 L-22245.7,35495.7 L-22100,35178.2 L-21776.2,34710.4 L-21776.1,34710.1 L-21776,34709.8 L-21776.1,34709.4 L-22110.1,34013.6 L-24366.8,29312.2 L-25917.4,26081.7 L-33398.1,10497 L-33398.3,10496.7 L-33398.6,10496.5 L-33398.9,10496.5 L-33949.1,10465.2 L-34293.2,10383.1 L-34587.1,10186.3 L-34794.1,9899.49 L-34805.9,9874.95 L-34899.4,9542.11 L-34874,9197.41 L-34732.7,8881.86 L-34716.8,8858.29 L-34656.3,8768.8 L-34407.3,8400.65 L-34169.5,8153.88 L-33862.5,8001.88 L-33522.2,7962.4 L-32927.1,7996.17 L-32926.8,7996.13 L-32926.5,7995.97 L-32926.2,7995.73 L-10062.5,-25811.2 L-10062.4,-25811.6 L-10062.4,-25811.9 L-10210.3,-26927.1 L-10192.3,-27288 L-10047.2,-27618.9 L-9646.89,-28210.9 L-9626.35,-28241.3 L-9374.76,-28498 L-9048.76,-28649.1 L-8690.36,-28675.3 L-8345.77,-28573 L-8320.18,-28560.1 L-7956.47,-28246.5 L-7780.85,-27799.5 L-7690.7,-27120.4"/>
</g>

<g fill="none" stroke="#000000" stroke-opacity="1" stroke-width="1" stroke-linecap="square" stroke-linejoin="bevel" transform="matrix(0.99999,0,0,-0.99999,35896.7,38259.7)"
font-family="MS Shell Dlg 2" font-size="10.3125" font-weight="400" font-style="normal" 
>
</g>

<g fill="none" stroke="#000000" stroke-opacity="1" stroke-width="1" stroke-linecap="square" stroke-linejoin="bevel" transform="matrix(0.99999,0,0,-0.99999,35896.7,38259.7)"
font-family="MS Shell Dlg 2" font-size="10.3125" font-weight="400" font-style="normal" 
>
</g>

<g fill="#ae5151" fill-opacity="0.2" stroke="#333333" stroke-opacity="1" stroke-width="1" stroke-linecap="round" stroke-linejoin="round" transform="matrix(0.99999,0,0,-0.99999,35896.7,38259.7)"
font-family="MS Shell Dlg 2" font-size="10.3125" font-weight="400" font-style="normal" 
>
<path vector-effect="non-scaling-stroke" fill-rule="evenodd" d="M-4023.61,7345.38 L-4023.71,7345.39 L-4175.95,7367.97 L-4395.58,7400.55 L-4395.68,7400.57 L-4760.35,7491.92 L-4760.45,7491.94 L-5114.42,7618.6 L-5114.51,7618.63 L-5454.36,7779.37 L-5454.44,7779.42 L-5776.9,7972.69 L-5776.98,7972.74 L-6078.94,8196.69 L-6079.02,8196.76 L-6357.57,8449.22 L-6357.64,8449.29 L-6610.11,8727.85 L-6610.17,8727.93 L-6834.12,9029.89 L-6834.18,9029.97 L-7027.45,9352.43 L-7027.5,9352.51 L-7103.79,9513.81 L-7103.88,9514.24 L-7103.79,9514.66 L-7103.53,9515 L-7103.14,9515.21 L-6956.71,9554.84 L-6636,9814.03 L-6447.13,10180.6 L-6422.23,10592.3 L-6465.1,10881.3 L-6465.11,10881.4 L-6469.27,10966.1 L-6471.66,11014.9 L-6567.25,11395.1 L-6801.56,11709.3 L-7138.6,11909.3 L-7395.31,11945.7 L-7395.7,11945.9 L-7396,11946.2 L-7396.16,11946.5 L-7396.14,11947 L-7314.95,12271.1 L-7314.92,12271.2 L-7188.27,12625.1 L-7188.23,12625.2 L-7027.5,12965.1 L-7027.45,12965.2 L-6856.05,13251.1 L-6855.82,13251.4 L-6855.51,13251.6 L-6855.15,13251.6 L-6854.81,13251.5 L-6854.51,13251.3 L-6732.27,13136.9 L-6332.49,13001.2 L-5912.35,13042.6 L-5546.64,13253.7 L-5443.83,13346.9 L-5443.75,13347 L-5252.16,13489.1 L-5212.83,13518.2 L-4955.02,13800.3 L-4821.85,14158.5 L-4832.71,14540.4 L-4930.52,14763.7 L-4930.61,14764.1 L-4930.53,14764.5 L-4930.29,14764.8 L-4929.94,14765 L-4760.45,14825.7 L-4760.35,14825.7 L-4395.68,14917 L-4395.58,14917 L-4023.71,14972.2 L-4023.61,14972.2 L-3648.12,14990.7 L-3648.02,14990.7 L-3272.53,14972.2 L-3272.43,14972.2 L-2900.56,14917 L-2900.46,14917 L-2535.78,14825.7 L-2535.69,14825.7 L-2181.72,14699 L-2181.63,14699 L-1841.78,14538.2 L-1841.7,14538.2 L-1519.24,14344.9 L-1519.16,14344.9 L-1217.2,14120.9 L-1217.12,14120.8 L-1074.55,13991.6 L-1074.31,13991.3 L-1074.22,13990.9 L-1074.3,13990.5 L-1074.53,13990.2 L-1251.55,13821.2 L-1408.91,13472.1 L-1423.49,13089.4 L-1293.12,12729.2 L-1267.95,12687.2 L-1151.65,12493.2 L-1151.61,12493.1 L-1087.03,12356.5 L-830.578,12022 L-459.197,11822.9 L-38.7694,11794.5 L116.932,11852.6 L117.281,11852.6 L117.629,11852.6 L117.935,11852.4 L118.158,11852.1 L118.271,11851.8 L165.342,11534.4 L165.352,11534.3 L183.799,11158.8 L183.8,11158.8 L183.799,11158.7 L165.352,10783.3 L165.342,10783.2 L110.18,10411.3 L110.161,10411.2 L18.814,10046.5 L18.7856,10046.4 L-30.0914,9909.82 L-30.3211,9909.45 L-30.6836,9909.22 L-31.1111,9909.16 L-31.5241,9909.28 L-160.74,9982.14 L-568.898,10023.2 L-959.197,9896.92 L-1266.03,9624.49 L-1459.94,9363.05 L-1460,9362.98 L-1494.48,9324.93 L-1527.31,9288.71 L-1729.29,8950.19 L-1784.78,8560.03 L-1685.21,8178.73 L-1525.85,7970.02 L-1525.67,7969.64 L-1525.67,7969.23 L-1525.83,7968.84 L-1526.13,7968.56 L-1841.7,7779.42 L-1841.78,7779.37 L-2181.63,7618.63 L-2181.72,7618.6 L-2535.69,7491.94 L-2535.78,7491.92 L-2900.46,7400.57 L-2900.56,7400.55 L-3272.43,7345.39 L-3272.53,7345.38 L-3648.02,7326.93 L-3648.12,7326.93 L-3651.68,7327.11 L-4023.61,7345.38 M-5466.72,11337.9 L-5475.52,11158.8 L-5468.47,11015.3 L-5466.72,10979.7 L-5440.41,10802.3 L-5396.83,10628.3 L-5336.42,10459.5 L-5259.74,10297.3 L-5167.54,10143.5 L-5060.71,9999.47 L-4940.27,9866.59 L-4807.39,9746.16 L-4663.35,9639.32 L-4509.53,9547.13 L-4347.41,9470.45 L-4178.55,9410.03 L-4004.59,9366.46 L-3882.2,9348.3 L-3827.19,9340.14 L-3650.71,9331.47 L-3468.03,9340.28 L-3291.55,9366.46 L-3117.59,9410.03 L-2948.73,9470.45 L-2786.61,9547.13 L-2632.79,9639.32 L-2488.74,9746.16 L-2469.19,9763.88 L-2355.86,9866.59 L-2270.49,9960.78 L-2236.91,9997.84 L-2235.43,9999.47 L-2128.68,10143.4 L-2036.38,10297.4 L-1959.72,10459.5 L-1899.3,10628.3 L-1855.73,10802.3 L-1829.41,10979.7 L-1820.61,11158.8 L-1829.41,11337.9 L-1855.73,11515.3 L-1899.3,11689.3 L-1959.72,11858.1 L-2036.4,12020.3 L-2127.39,12172.1 L-2128.6,12174.1 L-2235.43,12318.1 L-2355.86,12451 L-2488.74,12571.4 L-2632.79,12678.3 L-2786.61,12770.5 L-2948.73,12847.1 L-3117.59,12907.6 L-3291.55,12951.1 L-3468.95,12977.5 L-3648.07,12986.3 L-3827.19,12977.5 L-4004.59,12951.1 L-4178.55,12907.6 L-4347.41,12847.1 L-4509.53,12770.5 L-4663.35,12678.3 L-4807.39,12571.4 L-4940.27,12451 L-5060.71,12318.1 L-5167.54,12174.1 L-5259.74,12020.3 L-5336.42,11858.1 L-5396.83,11689.3 L-5440.41,11515.3 L-5466.72,11337.9"/>
</g>

<g fill="none" stroke="#000000" stroke-opacity="1" stroke-width="1" stroke-linecap="square" stroke-linejoin="bevel" transform="matrix(0.99999,0,0,-0.99999,35896.7,38259.7)"
font-family="MS Shell Dlg 2" font-size="10.3125" font-weight="400" font-style="normal" 
>
</g>

<g fill="none" stroke="#000000" stroke-opacity="1" stroke-width="1" stroke-linecap="square" stroke-linejoin="bevel" transform="matrix(0.99999,0,0,-0.99999,35896.7,38259.7)"
font-family="MS Shell Dlg 2" font-size="10.3125" font-weight="400" font-style="normal" 
>
</g>

<g fill="#ae5151" fill-opacity="0.2" stroke="#333333" stroke-opacity="1" stroke-width="1" stroke-linecap="round" stroke-linejoin="round" transform="matrix(0.99999,0,0,-0.99999,35896.7,38259.7)"
font-family="MS Shell Dlg 2" font-size="10.3125" font-weight="400" font-style="normal" 
>
<path vector-effect="non-scaling-stroke" fill-rule="evenodd" d="M9812.15,20366.7 L9811.92,20367.1 L9811.88,20367.5 L9812.02,20368 L9812.33,20368.3 L14540.2,23394.1 L14540.6,23394.3 L14540.9,23394.3 L14541.3,23394.2 L14541.5,23394 L14541.7,23393.7 L14542,23392.8 L14797.5,22993.7 L14823.9,22952.5 L15094.3,22671.1 L15196.5,22626.4 L15196.9,22626.1 L15197.1,22625.8 L15197.1,22625.3 L15197,22624.9 L15196.7,22624.6 L10236.1,19449.9 L10235.8,19449.7 L10235.5,19449.7 L10235.1,19449.8 L10234.8,19450.1 L10234.7,19450.4 L10234.6,19450.7 L10236.8,19562.3 L10094.6,19925.7 L10068.2,19967 L9812.79,20366.1 L9812.15,20366.7"/>
</g>

<g fill="none" stroke="#000000" stroke-opacity="1" stroke-width="1" stroke-linecap="square" stroke-linejoin="bevel" transform="matrix(0.99999,0,0,-0.99999,35896.7,38259.7)"
font-family="MS Shell Dlg 2" font-size="10.3125" font-weight="400" font-style="normal" 
>
</g>

<g fill="none" stroke="#000000" stroke-opacity="1" stroke-width="1" stroke-linecap="square" stroke-linejoin="bevel" transform="matrix(0.99999,0,0,-0.99999,35896.7,38259.7)"
font-family="MS Shell Dlg 2" font-size="10.3125" font-weight="400" font-style="normal" 
>
</g>

<g fill="#ae5151" fill-opacity="0.2" stroke="#333333" stroke-opacity="1" stroke-width="1" stroke-linecap="round" stroke-linejoin="round" transform="matrix(0.99999,0,0,-0.99999,35896.7,38259.7)"
font-family="MS Shell Dlg 2" font-size="10.3125" font-weight="400" font-style="normal" 
>
<path vector-effect="non-scaling-stroke" fill-rule="evenodd" d="M-13090.9,25676.4 L-13090.6,25676.7 L-13090.2,25676.7 L-13089.9,25676.7 L-13089.6,25676.6 L-13089.3,25676.3 L-10765,22318.9 L-10764.8,22318.6 L-10764.8,22318.3 L-10764.9,22317.9 L-10765.1,22317.6 L-10765.4,22317.4 L-10766.2,22317.1 L-11155.8,22047.4 L-11196.1,22019.5 L-11467.4,21739 L-11508.4,21635.2 L-11508.7,21634.9 L-11509,21634.7 L-11509.5,21634.6 L-11509.9,21634.7 L-11510.2,21635 L-13039.5,23844.1 L-13280,24191.4 L-13991.8,25219.5 L-13991.9,25219.9 L-13991.9,25220.3 L-13991.7,25220.7 L-13991.4,25221 L-13990.9,25221.1 L-13879.4,25222.9 L-13521.3,25378.2 L-13481.1,25406.1 L-13091.5,25675.8 L-13090.9,25676.4"/>
</g>

<g fill="none" stroke="#000000" stroke-opacity="1" stroke-width="1" stroke-linecap="square" stroke-linejoin="bevel" transform="matrix(0.99999,0,0,-0.99999,35896.7,38259.7)"
font-family="MS Shell Dlg 2" font-size="10.3125" font-weight="400" font-style="normal" 
>
</g>

<g fill="none" stroke="#000000" stroke-opacity="1" stroke-width="1" stroke-linecap="square" stroke-linejoin="bevel" transform="matrix(0.99999,0,0,-0.99999,35896.7,38259.7)"
font-family="MS Shell Dlg 2" font-size="10.3125" font-weight="400" font-style="normal" 
>
</g>

<g fill="#ffff00" fill-opacity="0.2" stroke="#333333" stroke-opacity="1" stroke-width="1" stroke-linecap="round" stroke-linejoin="round" transform="matrix(0.99999,0,0,-0.99999,35896.7,38259.7)"
font-family="MS Shell Dlg 2" font-size="10.3125" font-weight="400" font-style="normal" 
>
<path vector-effect="non-scaling-stroke" fill-rule="evenodd" d="M-21790.1,10104.4 L-21792.9,10154.4 L-21819.8,10628.6 L-21819.8,10629 L-21819.6,10629.3 L-21819.3,10629.5 L-21818.9,10629.6 L-15791.5,10971.6 L-15791.1,10971.6 L-15790.8,10971.4 L-15790.6,10971.1 L-15790.5,10970.7 L-15763.5,10496.5 L-15733.8,9972.28 L-15733.9,9971.89 L-15734.1,9971.56 L-15734.4,9971.32 L-15734.7,9971.22 L-18510.8,9813.72 L-21762.1,9629.24 L-21762.5,9629.3 L-21762.9,9629.5 L-21763.1,9629.81 L-21763.2,9630.19 L-21790.1,10104.4"/>
</g>

<g fill="none" stroke="#000000" stroke-opacity="1" stroke-width="1" stroke-linecap="square" stroke-linejoin="bevel" transform="matrix(0.99999,0,0,-0.99999,35896.7,38259.7)"
font-family="MS Shell Dlg 2" font-size="10.3125" font-weight="400" font-style="normal" 
>
</g>

<g fill="none" stroke="#000000" stroke-opacity="1" stroke-width="1" stroke-linecap="square" stroke-linejoin="bevel" transform="matrix(0.99999,0,0,-0.99999,35896.7,38259.7)"
font-family="MS Shell Dlg 2" font-size="10.3125" font-weight="400" font-style="normal" 
>
</g>

<g fill="#ffff00" fill-opacity="0.2" stroke="#333333" stroke-opacity="1" stroke-width="1" stroke-linecap="round" stroke-linejoin="round" transform="matrix(0.99999,0,0,-0.99999,35896.7,38259.7)"
font-family="MS Shell Dlg 2" font-size="10.3125" font-weight="400" font-style="normal" 
>
<path vector-effect="non-scaling-stroke" fill-rule="evenodd" d="M-5685.22,-4395.46 L-5214.41,-4457.89 L-5214.04,-4458.01 L-5213.75,-4458.27 L-5213.58,-4458.62 L-5213.55,-4459.01 L-6239.49,-12196.3 L-6239.62,-12196.7 L-6239.88,-12197 L-6240.23,-12197.1 L-6240.62,-12197.2 L-6711.42,-12134.7 L-6761.13,-12128.1 L-7231.94,-12065.7 L-7232.31,-12065.6 L-7232.6,-12065.3 L-7232.77,-12065 L-7232.8,-12064.6 L-6206.86,-4327.3 L-6206.73,-4326.93 L-6206.48,-4326.64 L-6206.13,-4326.47 L-6205.74,-4326.44 L-5685.22,-4395.46"/>
</g>

<g fill="none" stroke="#000000" stroke-opacity="1" stroke-width="1" stroke-linecap="square" stroke-linejoin="bevel" transform="matrix(0.99999,0,0,-0.99999,35896.7,38259.7)"
font-family="MS Shell Dlg 2" font-size="10.3125" font-weight="400" font-style="normal" 
>
</g>

<g fill="none" stroke="#000000" stroke-opacity="1" stroke-width="1" stroke-linecap="square" stroke-linejoin="bevel" transform="matrix(0.99999,0,0,-0.99999,35896.7,38259.7)"
font-family="MS Shell Dlg 2" font-size="10.3125" font-weight="400" font-style="normal" 
>
</g>

<g fill="#ffff00" fill-opacity="0.2" stroke="#333333" stroke-opacity="1" stroke-width="1" stroke-linecap="round" stroke-linejoin="round" transform="matrix(0.99999,0,0,-0.99999,35896.7,38259.7)"
font-family="MS Shell Dlg 2" font-size="10.3125" font-weight="400" font-style="normal" 
>
<path vector-effect="non-scaling-stroke" fill-rule="evenodd" d="M6504.12,1588.44 L6503.88,1588.75 L6503.78,1589.13 L6503.83,1589.52 L6504.02,1589.85 L6571.77,1667.1 L6817.18,1946.91 L7163.4,2341.67 L7163.71,2341.9 L7164.09,2342.01 L7164.47,2341.95 L7164.81,2341.76 L12380,-2232.22 L12380.2,-2232.53 L12380.3,-2232.91 L12380.3,-2233.29 L12380.1,-2233.63 L12104.1,-2548.3 L12066.9,-2590.69 L12033.9,-2628.39 L11720.7,-2985.44 L11720.4,-2985.68 L11720,-2985.78 L11719.6,-2985.73 L11719.3,-2985.54 L6504.12,1588.44"/>
</g>

<g fill="none" stroke="#000000" stroke-opacity="1" stroke-width="1" stroke-linecap="square" stroke-linejoin="bevel" transform="matrix(0.99999,0,0,-0.99999,35896.7,38259.7)"
font-family="MS Shell Dlg 2" font-size="10.3125" font-weight="400" font-style="normal" 
>
</g>

<g fill="none" stroke="#000000" stroke-opacity="1" stroke-width="1" stroke-linecap="square" stroke-linejoin="bevel" transform="matrix(0.99999,0,0,-0.99999,35896.7,38259.7)"
font-family="MS Shell Dlg 2" font-size="10.3125" font-weight="400" font-style="normal" 
>
</g>

<g fill="#ffff00" fill-opacity="0.2" stroke="#333333" stroke-opacity="1" stroke-width="1" stroke-linecap="round" stroke-linejoin="round" transform="matrix(0.99999,0,0,-0.99999,35896.7,38259.7)"
font-family="MS Shell Dlg 2" font-size="10.3125" font-weight="400" font-style="normal" 
>
<path vector-effect="non-scaling-stroke" fill-rule="evenodd" d="M-35890.7,9562.09 L-35896.6,9641.92 L-35896.5,9642.26 L-35709.6,10307.8 L-35709.5,10308 L-35697.2,10333.7 L-35462.4,10822.8 L-35450.1,10848.5 L-27722.3,26948 L-26171.6,30178.5 L-23915,34879.9 L-23095.4,36587.3 L-22846.4,37106.1 L-22834,37132 L-22833.9,37132.2 L-22347.5,37772.1 L-22347.2,37772.4 L-21648.2,38169.2 L-21647.9,38169.3 L-20849.1,38258.9 L-20848.9,38258.9 L-20199.9,38199.9 L27869.1,33830 L27870.6,33829.8 L27909.8,33826.3 L28644.4,33759.5 L28721.9,33752.4 L28722.1,33752.4 L29491.1,33520.6 L29491.4,33520.4 L30107.1,33004.8 L30107.4,33004.5 L30470.7,32288.2 L30470.8,32287.9 L30523,31486.4 L30523,31486.2 L30518.5,31453.7 L30466.2,31074.3 L30428.7,30802.6 L24596.3,-11482.7 L24518.5,-12046.3 L24514.4,-12076 L24514.4,-12076.2 L24161.6,-12964 L24161.3,-12964.4 L23437,-13587.3 L23436.8,-13587.4 L23412.8,-13599.6 L22956.3,-13831 L22937,-13840.7 L-7325.89,-29179.5 L-7352.93,-29193.2 L-7815.24,-29427.5 L-7866.61,-29453.5 L-7893.64,-29467.2 L-7893.81,-29467.3 L-8582.82,-29671.8 L-8583.18,-29671.8 L-9299.98,-29619.5 L-9300.33,-29619.4 L-9952.36,-29317 L-9952.65,-29316.8 L-10455.7,-28803.5 L-10455.8,-28803.4 L-10476.9,-28772.2 L-10877.5,-28179.9 L-35220.6,7814.66 L-35236.9,7838.78 L-35486.3,8207.47 L-35546.8,8296.96 L-35563.1,8321.07 L-35563.2,8321.23 L-35748.7,8735.61 L-35766,8763.08 L-35766.1,8763.46 L-35768.9,8780.65 L-35845.7,8952.16 L-35845.8,8952.5 L-35888.4,9530.68 L-35892.3,9555.33 L-35892.3,9555.73 L-35890.7,9562.09 M-8720.33,-27641.8 L-8258.02,-27407.4 L-8230.98,-27393.7 L22027.1,-12057.4 L22031.9,-12055 L22051.2,-12045.3 L22507.7,-11813.9 L22531.3,-11801.9 L22535.3,-11772.8 L22613,-11209.2 L28445.5,31076.1 L28483,31347.8 L28535.3,31727.2 L28539.6,31758.8 L28463.1,31765.7 L27728.5,31832.5 L27689.4,31836.1 L27687.9,31836.2 L-20381.2,36206.1 L-21029.4,36265 L-21041.6,36239.7 L-21290.6,35721 L-22110.1,34013.6 L-24366.8,29312.2 L-25917.4,26081.7 L-33645.2,9982.19 L-33657.6,9956.45 L-33892.3,9467.37 L-33904.4,9442.14 L-33888.4,9418.51 L-33827.9,9329.02 L-33578.6,8960.32 L-33562.3,8936.21 L-9219.15,-27058.3 L-8818.54,-27650.7 L-8797.95,-27681.1 L-8771.7,-27667.8 L-8720.33,-27641.8"/>
</g>

<g fill="none" stroke="#000000" stroke-opacity="1" stroke-width="1" stroke-linecap="square" stroke-linejoin="bevel" transform="matrix(0.99999,0,0,-0.99999,35896.7,38259.7)"
font-family="MS Shell Dlg 2" font-size="10.3125" font-weight="400" font-style="normal" 
>
</g>

<g fill="none" stroke="#000000" stroke-opacity="1" stroke-width="1" stroke-linecap="square" stroke-linejoin="bevel" transform="matrix(0.99999,0,0,-0.99999,35896.7,38259.7)"
font-family="MS Shell Dlg 2" font-size="10.3125" font-weight="400" font-style="normal" 
>
</g>

<g fill="#ffff00" fill-opacity="0.2" stroke="#333333" stroke-opacity="1" stroke-width="1" stroke-linecap="round" stroke-linejoin="round" transform="matrix(0.99999,0,0,-0.99999,35896.7,38259.7)"
font-family="MS Shell Dlg 2" font-size="10.3125" font-weight="400" font-style="normal" 
>
<path vector-effect="non-scaling-stroke" fill-rule="evenodd" d="M-4023.61,7345.38 L-4023.71,7345.39 L-4175.95,7367.97 L-4395.58,7400.55 L-4395.68,7400.57 L-4760.35,7491.92 L-4760.45,7491.94 L-5114.42,7618.6 L-5114.51,7618.63 L-5454.36,7779.37 L-5454.44,7779.42 L-5776.9,7972.69 L-5776.98,7972.74 L-6078.94,8196.69 L-6079.02,8196.76 L-6357.57,8449.22 L-6357.64,8449.29 L-6610.11,8727.85 L-6610.17,8727.93 L-6834.12,9029.89 L-6834.18,9029.97 L-7027.45,9352.43 L-7027.5,9352.51 L-7188.23,9692.36 L-7188.27,9692.45 L-7314.92,10046.4 L-7314.95,10046.5 L-7406.3,10411.2 L-7406.32,10411.3 L-7461.48,10783.2 L-7461.49,10783.3 L-7468.06,10917 L-7479.94,11158.7 L-7479.94,11158.8 L-7465.97,11443.1 L-7461.49,11534.3 L-7461.48,11534.4 L-7406.32,11906.3 L-7406.3,11906.4 L-7314.95,12271.1 L-7314.92,12271.2 L-7188.27,12625.1 L-7188.23,12625.2 L-7027.5,12965.1 L-7027.45,12965.2 L-6834.18,13287.6 L-6834.12,13287.7 L-6610.17,13589.7 L-6610.11,13589.7 L-6357.64,13868.3 L-6357.57,13868.4 L-6079.02,14120.8 L-6078.94,14120.9 L-5847.85,14292.3 L-5776.98,14344.9 L-5776.9,14344.9 L-5454.44,14538.2 L-5454.36,14538.2 L-5397.85,14565 L-5114.51,14699 L-5114.42,14699 L-4760.45,14825.7 L-4760.35,14825.7 L-4395.68,14917 L-4395.58,14917 L-4023.71,14972.2 L-4023.61,14972.2 L-3648.12,14990.7 L-3648.02,14990.7 L-3272.53,14972.2 L-3272.43,14972.2 L-2900.56,14917 L-2900.46,14917 L-2535.78,14825.7 L-2535.69,14825.7 L-2181.72,14699 L-2181.63,14699 L-1841.78,14538.2 L-1841.7,14538.2 L-1519.24,14344.9 L-1519.16,14344.9 L-1217.2,14120.9 L-1217.12,14120.8 L-938.564,13868.4 L-938.495,13868.3 L-719.633,13626.8 L-686.026,13589.7 L-685.964,13589.7 L-462.015,13287.7 L-461.96,13287.6 L-410.22,13201.3 L-268.686,12965.2 L-268.64,12965.1 L-107.904,12625.2 L-107.866,12625.1 L18.7856,12271.2 L18.814,12271.1 L110.161,11906.4 L110.18,11906.3 L165.342,11534.4 L165.352,11534.3 L183.799,11158.8 L183.799,11158.7 L165.352,10783.3 L165.342,10783.2 L110.18,10411.3 L110.161,10411.2 L18.814,10046.5 L18.7856,10046.4 L-107.866,9692.45 L-107.904,9692.36 L-268.64,9352.51 L-268.686,9352.43 L-461.96,9029.97 L-462.015,9029.89 L-462.125,9029.74 L-685.964,8727.93 L-686.026,8727.85 L-753.527,8653.37 L-787.109,8616.32 L-938.495,8449.29 L-938.564,8449.22 L-1124.73,8280.49 L-1217.12,8196.76 L-1217.2,8196.69 L-1519.16,7972.74 L-1519.24,7972.69 L-1841.7,7779.42 L-1841.78,7779.37 L-2181.63,7618.63 L-2181.72,7618.6 L-2535.69,7491.94 L-2535.78,7491.92 L-2900.46,7400.57 L-2900.56,7400.55 L-3272.43,7345.39 L-3272.53,7345.38 L-3648.02,7326.93 L-3648.12,7326.93 L-3651.68,7327.11 L-4023.61,7345.38 M-5466.72,11337.9 L-5475.52,11158.8 L-5468.47,11015.3 L-5466.72,10979.7 L-5440.41,10802.3 L-5396.83,10628.3 L-5336.42,10459.5 L-5259.74,10297.3 L-5167.54,10143.5 L-5060.71,9999.47 L-4940.27,9866.59 L-4807.39,9746.16 L-4663.35,9639.32 L-4509.53,9547.13 L-4347.41,9470.45 L-4178.55,9410.03 L-4004.59,9366.46 L-3882.2,9348.3 L-3827.19,9340.14 L-3650.71,9331.47 L-3468.03,9340.28 L-3291.55,9366.46 L-3117.59,9410.03 L-2948.73,9470.45 L-2786.61,9547.13 L-2632.79,9639.32 L-2488.74,9746.16 L-2469.19,9763.88 L-2355.86,9866.59 L-2270.49,9960.78 L-2236.91,9997.84 L-2235.43,9999.47 L-2128.68,10143.4 L-2036.38,10297.4 L-1959.72,10459.5 L-1899.3,10628.3 L-1855.73,10802.3 L-1829.41,10979.7 L-1820.61,11158.8 L-1829.41,11337.9 L-1855.73,11515.3 L-1899.3,11689.3 L-1959.72,11858.1 L-2036.4,12020.3 L-2127.39,12172.1 L-2128.6,12174.1 L-2235.43,12318.1 L-2355.86,12451 L-2488.74,12571.4 L-2632.79,12678.3 L-2786.61,12770.5 L-2948.73,12847.1 L-3117.59,12907.6 L-3291.55,12951.1 L-3468.95,12977.5 L-3648.07,12986.3 L-3827.19,12977.5 L-4004.59,12951.1 L-4178.55,12907.6 L-4347.41,12847.1 L-4509.53,12770.5 L-4663.35,12678.3 L-4807.39,12571.4 L-4940.27,12451 L-5060.71,12318.1 L-5167.54,12174.1 L-5259.74,12020.3 L-5336.42,11858.1 L-5396.83,11689.3 L-5440.41,11515.3 L-5466.72,11337.9"/>
</g>

<g fill="none" stroke="#000000" stroke-opacity="1" stroke-width="1" stroke-linecap="square" stroke-linejoin="bevel" transform="matrix(0.99999,0,0,-0.99999,35896.7,38259.7)"
font-family="MS Shell Dlg 2" font-size="10.3125" font-weight="400" font-style="normal" 
>
</g>

<g fill="none" stroke="#000000" stroke-opacity="1" stroke-width="1" stroke-linecap="square" stroke-linejoin="bevel" transform="matrix(0.99999,0,0,-0.99999,35896.7,38259.7)"
font-family="MS Shell Dlg 2" font-size="10.3125" font-weight="400" font-style="normal" 
>
</g>

<g fill="#ffff00" fill-opacity="0.2" stroke="#333333" stroke-opacity="1" stroke-width="1" stroke-linecap="round" stroke-linejoin="round" transform="matrix(0.99999,0,0,-0.99999,35896.7,38259.7)"
font-family="MS Shell Dlg 2" font-size="10.3125" font-weight="400" font-style="normal" 
>
<path vector-effect="non-scaling-stroke" fill-rule="evenodd" d="M9510.36,18985.4 L9509.99,18985.2 L9509.6,18985.2 L9509.25,18985.4 L9508.98,18985.7 L9225.94,19427.9 L8969.92,19827.9 L8969.78,19828.3 L8969.79,19828.7 L8969.94,19829.1 L8970.23,19829.3 L15382.3,23933.1 L15382.7,23933.2 L15383.1,23933.2 L15383.5,23933.1 L15383.7,23932.8 L15639.7,23532.8 L15666.8,23490.5 L15922.8,23090.5 L15922.9,23090.1 L15922.9,23089.8 L15922.8,23089.4 L15922.5,23089.1 L9510.36,18985.4"/>
</g>

<g fill="none" stroke="#000000" stroke-opacity="1" stroke-width="1" stroke-linecap="square" stroke-linejoin="bevel" transform="matrix(0.99999,0,0,-0.99999,35896.7,38259.7)"
font-family="MS Shell Dlg 2" font-size="10.3125" font-weight="400" font-style="normal" 
>
</g>

<g fill="none" stroke="#000000" stroke-opacity="1" stroke-width="1" stroke-linecap="square" stroke-linejoin="bevel" transform="matrix(0.99999,0,0,-0.99999,35896.7,38259.7)"
font-family="MS Shell Dlg 2" font-size="10.3125" font-weight="400" font-style="normal" 
>
</g>

<g fill="#ffff00" fill-opacity="0.2" stroke="#333333" stroke-opacity="1" stroke-width="1" stroke-linecap="round" stroke-linejoin="round" transform="matrix(0.99999,0,0,-0.99999,35896.7,38259.7)"
font-family="MS Shell Dlg 2" font-size="10.3125" font-weight="400" font-style="normal" 
>
<path vector-effect="non-scaling-stroke" fill-rule="evenodd" d="M-14091.5,26199.7 L-14050.3,26228.3 L-13659.8,26498.6 L-13659.4,26498.8 L-13659.1,26498.8 L-13658.7,26498.6 L-13658.4,26498.3 L-10195.9,21496.9 L-10195.7,21496.5 L-10195.7,21496.1 L-10195.8,21495.8 L-10196.1,21495.5 L-10586.6,21225.2 L-11018.3,20926.3 L-11018.7,20926.1 L-11019.1,20926.1 L-11019.4,20926.3 L-11019.7,20926.5 L-13039.5,23844.1 L-13280,24191.4 L-14482.2,25928 L-14482.4,25928.4 L-14482.4,25928.7 L-14482.3,25929.1 L-14482,25929.4 L-14091.5,26199.7"/>
</g>

<g fill="none" stroke="#000000" stroke-opacity="1" stroke-width="1" stroke-linecap="square" stroke-linejoin="bevel" transform="matrix(0.99999,0,0,-0.99999,35896.7,38259.7)"
font-family="MS Shell Dlg 2" font-size="10.3125" font-weight="400" font-style="normal" 
>
</g>

<g fill="none" stroke="#000000" stroke-opacity="1" stroke-width="1" stroke-linecap="square" stroke-linejoin="bevel" transform="matrix(0.99999,0,0,-0.99999,35896.7,38259.7)"
font-family="MS Shell Dlg 2" font-size="10.3125" font-weight="400" font-style="normal" 
>
</g>

<g fill="#ae5151" fill-opacity="0.2" stroke="#333333" stroke-opacity="1" stroke-width="1" stroke-linecap="round" stroke-linejoin="round" transform="matrix(0.99999,0,0,-0.99999,35896.7,38259.7)"
font-family="MS Shell Dlg 2" font-size="10.3125" font-weight="400" font-style="normal" 
>
<path vector-effect="non-scaling-stroke" fill-rule="evenodd" d="M-20959.3,10676.8 L-20959.5,10677.2 L-20959.5,10677.7 L-20959.3,10678.1 L-20959,10678.3 L-20958.6,10678.4 L-16651.8,10922.8 L-16651.4,10922.7 L-16651.1,10922.5 L-16650.8,10922.1 L-16650.8,10921.7 L-16650.9,10921.3 L-16707.5,10825.2 L-16761.9,10438.7 L-16732.3,9916.73 L-16732,9915.84 L-16732,9915.49 L-16732.1,9915.15 L-16732.3,9914.86 L-16732.6,9914.67 L-16732.9,9914.59 L-18510.8,9813.72 L-20763.9,9685.88 L-20764.4,9685.95 L-20764.7,9686.2 L-20765,9686.58 L-20765,9687.02 L-20764.9,9687.93 L-20791.7,10161 L-20794.5,10209.9 L-20892.2,10587.7 L-20959.3,10676.8"/>
</g>

<g fill="none" stroke="#000000" stroke-opacity="1" stroke-width="1" stroke-linecap="square" stroke-linejoin="bevel" transform="matrix(0.99999,0,0,-0.99999,35896.7,38259.7)"
font-family="MS Shell Dlg 2" font-size="10.3125" font-weight="400" font-style="normal" 
>
</g>

<g fill="none" stroke="#000000" stroke-opacity="1" stroke-width="1" stroke-linecap="square" stroke-linejoin="bevel" transform="matrix(0.99999,0,0,-0.99999,35896.7,38259.7)"
font-family="MS Shell Dlg 2" font-size="10.3125" font-weight="400" font-style="normal" 
>
</g>

<g fill="#ae5151" fill-opacity="0.2" stroke="#333333" stroke-opacity="1" stroke-width="1" stroke-linecap="round" stroke-linejoin="round" transform="matrix(0.99999,0,0,-0.99999,35896.7,38259.7)"
font-family="MS Shell Dlg 2" font-size="10.3125" font-weight="400" font-style="normal" 
>
<path vector-effect="non-scaling-stroke" fill-rule="evenodd" d="M-5328.25,-5312.21 L-5327.84,-5312.11 L-5327.42,-5312.19 L-5327.07,-5312.44 L-5326.86,-5312.81 L-5326.82,-5313.24 L-6126.22,-11342.1 L-6126.37,-11342.5 L-6126.67,-11342.8 L-6127.07,-11342.9 L-6127.5,-11342.9 L-6127.88,-11342.7 L-6211.69,-11269.1 L-6581.14,-11143.3 L-6629.68,-11136.8 L-7099.4,-11074.5 L-7100.32,-11074.6 L-7100.67,-11074.6 L-7100.99,-11074.4 L-7101.23,-11074.1 L-7101.36,-11073.8 L-7101.38,-11073.5 L-6338.28,-5318.43 L-6338.13,-5318.02 L-6337.82,-5317.71 L-6337.4,-5317.57 L-6336.97,-5317.61 L-6336.09,-5317.91 L-5817.83,-5386.63 L-5428.4,-5361.48 L-5328.25,-5312.21"/>
</g>

<g fill="none" stroke="#000000" stroke-opacity="1" stroke-width="1" stroke-linecap="square" stroke-linejoin="bevel" transform="matrix(0.99999,0,0,-0.99999,35896.7,38259.7)"
font-family="MS Shell Dlg 2" font-size="10.3125" font-weight="400" font-style="normal" 
>
</g>

<g fill="none" stroke="#000000" stroke-opacity="1" stroke-width="1" stroke-linecap="square" stroke-linejoin="bevel" transform="matrix(0.99999,0,0,-0.99999,35896.7,38259.7)"
font-family="MS Shell Dlg 2" font-size="10.3125" font-weight="400" font-style="normal" 
>
</g>

<g fill="#ae5151" fill-opacity="0.2" stroke="#333333" stroke-opacity="1" stroke-width="1" stroke-linecap="round" stroke-linejoin="round" transform="matrix(0.99999,0,0,-0.99999,35896.7,38259.7)"
font-family="MS Shell Dlg 2" font-size="10.3125" font-weight="400" font-style="normal" 
>
<path vector-effect="non-scaling-stroke" fill-rule="evenodd" d="M7914.95,1682.26 L7915.18,1682.53 L7915.48,1682.7 L7915.83,1682.76 L7916.17,1682.7 L7916.48,1682.51 L11628.3,-1572.97 L11628.6,-1573.33 L11628.7,-1573.76 L11628.6,-1574.18 L11628.3,-1574.52 L11627.6,-1575.08 L11352.3,-1888.93 L11315.1,-1931.31 L11282.8,-1968.13 L11087.7,-2306.07 L11073.1,-2416.73 L11073,-2417.13 L11072.7,-2417.43 L11072.3,-2417.59 L11071.8,-2417.55 L11071.5,-2417.35 L7151.96,1020.25 L7151.71,1020.6 L7151.62,1021.02 L7151.72,1021.44 L7151.98,1021.77 L7152.36,1021.97 L7260.13,1050.84 L7569.77,1288.41 L7914.49,1681.46 L7914.95,1682.26"/>
</g>

<g fill="none" stroke="#000000" stroke-opacity="1" stroke-width="1" stroke-linecap="square" stroke-linejoin="bevel" transform="matrix(0.99999,0,0,-0.99999,35896.7,38259.7)"
font-family="MS Shell Dlg 2" font-size="10.3125" font-weight="400" font-style="normal" 
>
</g>

<g fill="none" stroke="#000000" stroke-opacity="1" stroke-width="1" stroke-linecap="square" stroke-linejoin="bevel" transform="matrix(0.99999,0,0,-0.99999,35896.7,38259.7)"
font-family="MS Shell Dlg 2" font-size="10.3125" font-weight="400" font-style="normal" 
>
</g>

<g fill="#ae5151" fill-opacity="0.2" stroke="#333333" stroke-opacity="1" stroke-width="1" stroke-linecap="round" stroke-linejoin="round" transform="matrix(0.99999,0,0,-0.99999,35896.7,38259.7)"
font-family="MS Shell Dlg 2" font-size="10.3125" font-weight="400" font-style="normal" 
>
<path vector-effect="non-scaling-stroke" fill-rule="evenodd" d="M-35890.7,9562.09 L-35896.6,9641.92 L-35896.5,9642.26 L-35709.6,10307.8 L-35709.5,10308 L-35697.2,10333.7 L-35462.4,10822.8 L-35450.1,10848.5 L-27722.3,26948 L-26171.6,30178.5 L-23915,34879.9 L-23095.4,36587.3 L-22846.4,37106.1 L-22834,37132 L-22833.9,37132.2 L-22347.5,37772.1 L-22347.2,37772.4 L-21648.2,38169.2 L-21647.9,38169.3 L-20849.1,38258.9 L-20848.9,38258.9 L-20199.9,38199.9 L27869.1,33830 L27870.6,33829.8 L27909.8,33826.3 L28644.4,33759.5 L28721.9,33752.4 L28722.1,33752.4 L29491.1,33520.6 L29491.4,33520.4 L30107.1,33004.8 L30107.4,33004.5 L30470.7,32288.2 L30470.8,32287.9 L30523,31486.4 L30523,31486.2 L30518.5,31453.7 L30466.2,31074.3 L30428.7,30802.6 L24596.3,-11482.7 L24518.5,-12046.3 L24514.4,-12076 L24514.4,-12076.2 L24161.6,-12964 L24161.3,-12964.4 L23437,-13587.3 L23436.8,-13587.4 L23412.8,-13599.6 L22956.3,-13831 L22937,-13840.7 L-7325.89,-29179.5 L-7352.93,-29193.2 L-7815.24,-29427.5 L-7866.61,-29453.5 L-7893.64,-29467.2 L-7893.81,-29467.3 L-8582.82,-29671.8 L-8583.18,-29671.8 L-9299.98,-29619.5 L-9300.33,-29619.4 L-9952.36,-29317 L-9952.65,-29316.8 L-10455.7,-28803.5 L-10455.8,-28803.4 L-10476.9,-28772.2 L-10877.5,-28179.9 L-35220.6,7814.66 L-35236.9,7838.78 L-35486.3,8207.47 L-35546.8,8296.96 L-35563.1,8321.07 L-35563.2,8321.23 L-35748.7,8735.61 L-35766,8763.08 L-35766.1,8763.46 L-35768.9,8780.65 L-35845.7,8952.16 L-35845.8,8952.5 L-35888.4,9530.68 L-35892.3,9555.33 L-35892.3,9555.73 L-35890.7,9562.09 M-7177.13,-26860.1 L-7176.95,-26859.6 L-7176.59,-26859.3 L21090,-12532.4 L21090.4,-12532.3 L21090.8,-12532.4 L21091.1,-12532.6 L21392.3,-12796.7 L21733.8,-12993 L22124.4,-13042.3 L22504,-12936.9 L22959.8,-12705.8 L22983.3,-12693.9 L23345.5,-12382.4 L23521.9,-11938.4 L23525.8,-11910 L23516.8,-11582.3 L23402.3,-11275.2 L23194.6,-11021.5 L22699.3,-10587 L22699.1,-10586.7 L22699,-10586.4 L22699,-10586.1 L28355.7,30425 L28355.8,30425.4 L28356.1,30425.7 L29074.3,30885.4 L29377.6,31188.7 L29526,31591.2 L29530.2,31622 L29504.1,32022.8 L29322.5,32380.9 L29014.6,32638.7 L28630.1,32754.7 L28553.7,32761.6 L27819.5,32828.4 L27491.8,32803.9 L27189.7,32674.7 L26104.8,31980.3 L26104.5,31980.2 L26104.1,31980.2 L-19083.2,36088.1 L-19083.6,36088.2 L-19083.9,36088.5 L-19559.4,36775.3 L-19877.9,37070 L-20291.2,37202 L-20938.8,37260.9 L-21338.3,37216.1 L-21687.8,37017.7 L-21931,36697.7 L-21942.8,36673.1 L-22036.7,36336.7 L-22009.1,35988.6 L-21863.6,35671.1 L-21539.7,35203.1 L-21539.6,35202.8 L-21539.5,35202.5 L-21539.6,35202.1 L-22110.1,34013.6 L-24366.8,29312.2 L-25917.4,26081.7 L-33163.3,10986.1 L-33163.5,10985.8 L-33163.8,10985.6 L-33164.2,10985.5 L-33714.4,10954.3 L-34058.4,10872.1 L-34352.3,10675.4 L-34559.4,10388.6 L-34793.8,9900.1 L-34805.9,9874.95 L-34899.4,9542.11 L-34874,9197.41 L-34732.7,8881.86 L-34717.2,8858.83 L-34479.5,8612.1 L-34172.5,8460.1 L-33832.2,8420.58 L-33236.9,8454.25 L-33236.6,8454.21 L-33236.3,8454.05 L-33236,8453.81 L-9661.93,-26403.6 L-9661.79,-26403.9 L-9661.77,-26404.3 L-9809.64,-27519.4 L-9791.66,-27880.3 L-9646.62,-28211.3 L-9626.35,-28241.3 L-9374.76,-28498 L-9048.76,-28649.1 L-8690.36,-28675.3 L-8345.77,-28573 L-8319.61,-28559.8 L-8268.24,-28533.7 L-7806.5,-28299.7 L-7442.75,-27986.1 L-7267.15,-27539 L-7177.13,-26860.1"/>
</g>

<g fill="none" stroke="#000000" stroke-opacity="1" stroke-width="1" stroke-linecap="square" stroke-linejoin="bevel" transform="matrix(0.99999,0,0,-0.99999,35896.7,38259.7)"
font-family="MS Shell Dlg 2" font-size="10.3125" font-weight="400" font-style="normal" 
>
</g>

<g fill="none" stroke="#000000" stroke-opacity="1" stroke-width="1" stroke-linecap="square" stroke-linejoin="bevel" transform="matrix(0.99999,0,0,-0.99999,35896.7,38259.7)"
font-family="MS Shell Dlg 2" font-size="10.3125" font-weight="400" font-style="normal" 
>
</g>

<g fill="#ae5151" fill-opacity="0.2" stroke="#333333" stroke-opacity="1" stroke-width="1" stroke-linecap="round" stroke-linejoin="round" transform="matrix(0.99999,0,0,-0.99999,35896.7,38259.7)"
font-family="MS Shell Dlg 2" font-size="10.3125" font-weight="400" font-style="normal" 
>
<path vector-effect="non-scaling-stroke" fill-rule="evenodd" d="M-5123.5,7624.11 L-5123.71,7623.76 L-5124.05,7623.52 L-5124.46,7623.44 L-5124.87,7623.54 L-5454.36,7779.37 L-5454.44,7779.42 L-5776.9,7972.69 L-5776.98,7972.74 L-6078.94,8196.69 L-6079.02,8196.76 L-6357.57,8449.22 L-6357.64,8449.29 L-6610.11,8727.85 L-6610.17,8727.93 L-6834.12,9029.89 L-6834.18,9029.97 L-7027.45,9352.43 L-7027.5,9352.51 L-7188.23,9692.36 L-7188.27,9692.45 L-7281.17,9952.08 L-7281.22,9952.49 L-7281.11,9952.88 L-7280.84,9953.2 L-7280.47,9953.38 L-7035.43,10016.5 L-6724.64,10249.3 L-6525.95,10582.9 L-6469.32,10967.2 L-6478.73,11158.8 L-6478.73,11158.9 L-6467.24,11392.8 L-6533.74,11803.6 L-6761.62,12151.7 L-7111.46,12377 L-7267.21,12401 L-7267.62,12401.1 L-7267.92,12401.5 L-7268.06,12401.9 L-7268,12402.3 L-7188.27,12625.1 L-7188.23,12625.2 L-7027.5,12965.1 L-7027.45,12965.2 L-6834.18,13287.6 L-6834.12,13287.7 L-6610.17,13589.7 L-6610.11,13589.7 L-6573.36,13630.3 L-6573.04,13630.5 L-6572.65,13630.6 L-6572.26,13630.6 L-6571.92,13630.3 L-6381.94,13448 L-6009.88,13306.3 L-5612,13320.9 L-5251.29,13489.7 L-5220.73,13512.4 L-5220.65,13512.4 L-4982.44,13655.2 L-4982.35,13655.3 L-4971.46,13660.4 L-4631.12,13923.8 L-4432.99,14305.7 L-4413.68,14735.5 L-4478.99,14895 L-4479.07,14895.4 L-4478.96,14895.8 L-4478.69,14896.1 L-4478.31,14896.3 L-4395.68,14917 L-4395.58,14917 L-4023.71,14972.2 L-4023.61,14972.2 L-3648.12,14990.7 L-3648.02,14990.7 L-3272.53,14972.2 L-3272.43,14972.2 L-2900.56,14917 L-2900.46,14917 L-2535.78,14825.7 L-2535.69,14825.7 L-2181.72,14699 L-2181.63,14699 L-1841.78,14538.2 L-1841.7,14538.2 L-1519.24,14344.9 L-1519.16,14344.9 L-1440.66,14286.6 L-1440.38,14286.3 L-1440.26,14285.9 L-1440.32,14285.5 L-1440.55,14285.1 L-1562.3,14163.1 L-1710.03,13758.2 L-1673.62,13328.7 L-1484.36,12997.4 L-1484.24,12997.1 L-1484.25,12996.7 L-1484.39,12996.4 L-1484.63,12996.1 L-1488.58,12993.2 L-1294.47,12731.4 L-1294.41,12731.4 L-1268.53,12688.2 L-1000.58,12394.7 L-639.6,12228.7 L-242.493,12216.5 L3.2631,12311.5 L3.65384,12311.6 L4.03986,12311.5 L4.3605,12311.3 L4.56538,12310.9 L18.7856,12271.2 L18.814,12271.1 L110.161,11906.4 L110.18,11906.3 L165.342,11534.4 L165.352,11534.3 L183.799,11158.8 L183.8,11158.8 L183.799,11158.7 L165.352,10783.3 L165.342,10783.2 L110.18,10411.3 L110.161,10411.2 L18.814,10046.5 L18.7856,10046.4 L-107.866,9692.45 L-107.904,9692.36 L-211.478,9473.37 L-211.726,9473.04 L-212.085,9472.84 L-212.494,9472.8 L-212.884,9472.93 L-428.854,9598.22 L-811.403,9650.99 L-1185.42,9554.86 L-1495.2,9324.13 L-1528.05,9287.89 L-1646.48,9157.23 L-1646.55,9157.16 L-1795.38,9022.27 L-2039.73,8682.75 L-2123.84,8273.09 L-2033.06,7864.86 L-1936.88,7735.72 L-1936.72,7735.4 L-1936.68,7735.05 L-1936.77,7734.71 L-1936.97,7734.42 L-1937.25,7734.22 L-2181.63,7618.63 L-2181.72,7618.6 L-2535.69,7491.94 L-2535.78,7491.92 L-2679.8,7455.84 L-2680.23,7455.83 L-2680.63,7456 L-2680.91,7456.32 L-2681.04,7456.74 L-2692.16,7605 L-2884.68,7967.48 L-3206.6,8222.09 L-3603.79,8325.96 L-3925.52,8341.77 L-3925.61,8341.78 L-4028.12,8356.98 L-4421.6,8336.91 L-4776.71,8166.47 L-5038.45,7872.13 L-5123.5,7624.11 M-5466.72,11337.9 L-5475.52,11158.8 L-5468.47,11015.3 L-5466.72,10979.7 L-5440.41,10802.3 L-5396.83,10628.3 L-5336.42,10459.5 L-5259.74,10297.3 L-5167.54,10143.5 L-5060.71,9999.47 L-4940.27,9866.59 L-4807.39,9746.16 L-4663.35,9639.32 L-4509.53,9547.13 L-4347.41,9470.45 L-4178.55,9410.03 L-4004.59,9366.46 L-3882.2,9348.3 L-3827.19,9340.14 L-3650.71,9331.47 L-3468.03,9340.28 L-3291.55,9366.46 L-3117.59,9410.03 L-2948.73,9470.45 L-2786.61,9547.13 L-2632.79,9639.32 L-2488.74,9746.16 L-2469.19,9763.88 L-2355.86,9866.59 L-2270.49,9960.78 L-2236.91,9997.84 L-2235.43,9999.47 L-2128.68,10143.4 L-2036.38,10297.4 L-1959.72,10459.5 L-1899.3,10628.3 L-1855.73,10802.3 L-1829.41,10979.7 L-1820.61,11158.8 L-1829.41,11337.9 L-1855.73,11515.3 L-1899.3,11689.3 L-1959.72,11858.1 L-2036.4,12020.3 L-2127.39,12172.1 L-2128.6,12174.1 L-2235.43,12318.1 L-2355.86,12451 L-2488.74,12571.4 L-2632.79,12678.3 L-2786.61,12770.5 L-2948.73,12847.1 L-3117.59,12907.6 L-3291.55,12951.1 L-3468.95,12977.5 L-3648.07,12986.3 L-3827.19,12977.5 L-4004.59,12951.1 L-4178.55,12907.6 L-4347.41,12847.1 L-4509.53,12770.5 L-4663.35,12678.3 L-4807.39,12571.4 L-4940.27,12451 L-5060.71,12318.1 L-5167.54,12174.1 L-5259.74,12020.3 L-5336.42,11858.1 L-5396.83,11689.3 L-5440.41,11515.3 L-5466.72,11337.9"/>
</g>

<g fill="none" stroke="#000000" stroke-opacity="1" stroke-width="1" stroke-linecap="square" stroke-linejoin="bevel" transform="matrix(0.99999,0,0,-0.99999,35896.7,38259.7)"
font-family="MS Shell Dlg 2" font-size="10.3125" font-weight="400" font-style="normal" 
>
</g>

<g fill="none" stroke="#000000" stroke-opacity="1" stroke-width="1" stroke-linecap="square" stroke-linejoin="bevel" transform="matrix(0.99999,0,0,-0.99999,35896.7,38259.7)"
font-family="MS Shell Dlg 2" font-size="10.3125" font-weight="400" font-style="normal" 
>
</g>

<g fill="#ae5151" fill-opacity="0.2" stroke="#333333" stroke-opacity="1" stroke-width="1" stroke-linecap="round" stroke-linejoin="round" transform="matrix(0.99999,0,0,-0.99999,35896.7,38259.7)"
font-family="MS Shell Dlg 2" font-size="10.3125" font-weight="400" font-style="normal" 
>
<path vector-effect="non-scaling-stroke" fill-rule="evenodd" d="M9696.15,20292.1 L9695.81,20292.3 L9695.6,20292.7 L9695.56,20293.1 L9695.71,20293.5 L9696.02,20293.8 L14656.6,23468.6 L14657,23468.7 L14657.4,23468.7 L14657.8,23468.5 L14658,23468.1 L14658.1,23467.7 L14655.9,23356.2 L14798.1,22992.7 L14824.5,22951.5 L15079.9,22552.4 L15080.6,22551.7 L15080.8,22551.4 L15080.8,22551.1 L15080.8,22550.7 L15080.6,22550.4 L15080.4,22550.2 L10352.5,19524.3 L10352,19524.2 L10351.6,19524.2 L10351.2,19524.4 L10351,19524.8 L10350.7,19525.7 L10068.8,19966 L9798.4,20247.3 L9696.15,20292.1"/>
</g>

<g fill="none" stroke="#000000" stroke-opacity="1" stroke-width="1" stroke-linecap="square" stroke-linejoin="bevel" transform="matrix(0.99999,0,0,-0.99999,35896.7,38259.7)"
font-family="MS Shell Dlg 2" font-size="10.3125" font-weight="400" font-style="normal" 
>
</g>

<g fill="none" stroke="#000000" stroke-opacity="1" stroke-width="1" stroke-linecap="square" stroke-linejoin="bevel" transform="matrix(0.99999,0,0,-0.99999,35896.7,38259.7)"
font-family="MS Shell Dlg 2" font-size="10.3125" font-weight="400" font-style="normal" 
>
</g>

<g fill="#ae5151" fill-opacity="0.2" stroke="#333333" stroke-opacity="1" stroke-width="1" stroke-linecap="round" stroke-linejoin="round" transform="matrix(0.99999,0,0,-0.99999,35896.7,38259.7)"
font-family="MS Shell Dlg 2" font-size="10.3125" font-weight="400" font-style="normal" 
>
<path vector-effect="non-scaling-stroke" fill-rule="evenodd" d="M-13169.7,25789.7 L-13169.4,25790 L-13169.1,25790.2 L-13168.6,25790.3 L-13168.2,25790.2 L-13167.9,25789.9 L-10686.4,22205.4 L-10686.2,22205 L-10686.2,22204.6 L-10686.4,22204.2 L-10686.7,22203.9 L-10687.2,22203.8 L-10798.7,22202 L-11156.8,22046.7 L-11586.6,21749.1 L-11587.3,21748.4 L-11587.6,21748.2 L-11588.1,21748.1 L-11588.5,21748.3 L-11588.8,21748.6 L-13039.5,23844.1 L-13280,24191.4 L-13913.1,25106 L-13913.3,25106.4 L-13913.3,25106.8 L-13913.1,25107.2 L-13912.7,25107.5 L-13911.9,25107.8 L-13522.3,25377.5 L-13482,25405.4 L-13210.7,25685.9 L-13169.7,25789.7"/>
</g>

<g fill="none" stroke="#000000" stroke-opacity="1" stroke-width="1" stroke-linecap="square" stroke-linejoin="bevel" transform="matrix(0.99999,0,0,-0.99999,35896.7,38259.7)"
font-family="MS Shell Dlg 2" font-size="10.3125" font-weight="400" font-style="normal" 
>
</g>

<g fill="none" stroke="#000000" stroke-opacity="1" stroke-width="1" stroke-linecap="square" stroke-linejoin="bevel" transform="matrix(0.99999,0,0,-0.99999,35896.7,38259.7)"
font-family="MS Shell Dlg 2" font-size="10.3125" font-weight="400" font-style="normal" 
>
</g>

<g fill="#333333" fill-opacity="0.2" stroke="#333333" stroke-opacity="1" stroke-width="1" stroke-linecap="round" stroke-linejoin="round" transform="matrix(0.99999,0,0,-0.99999,35896.7,38259.7)"
font-family="MS Shell Dlg 2" font-size="10.3125" font-weight="400" font-style="normal" 
>
<path vector-effect="non-scaling-stroke" fill-rule="evenodd" d="M-20959.3,10676.8 L-20959.5,10677.2 L-20959.5,10677.7 L-20959.3,10678.1 L-20959,10678.3 L-20958.6,10678.4 L-16651.8,10922.8 L-16651.4,10922.7 L-16651.1,10922.5 L-16650.8,10922.1 L-16650.8,10921.7 L-16650.9,10921.3 L-16707.5,10825.2 L-16761.9,10438.7 L-16732.3,9916.73 L-16732,9915.84 L-16732,9915.49 L-16732.1,9915.15 L-16732.3,9914.86 L-16732.6,9914.67 L-16732.9,9914.59 L-18510.8,9813.72 L-20763.9,9685.88 L-20764.4,9685.95 L-20764.7,9686.2 L-20765,9686.58 L-20765,9687.02 L-20764.9,9687.93 L-20791.7,10161 L-20794.5,10209.9 L-20892.2,10587.7 L-20959.3,10676.8"/>
</g>

<g fill="none" stroke="#000000" stroke-opacity="1" stroke-width="1" stroke-linecap="square" stroke-linejoin="bevel" transform="matrix(0.99999,0,0,-0.99999,35896.7,38259.7)"
font-family="MS Shell Dlg 2" font-size="10.3125" font-weight="400" font-style="normal" 
>
</g>

<g fill="none" stroke="#000000" stroke-opacity="1" stroke-width="1" stroke-linecap="square" stroke-linejoin="bevel" transform="matrix(0.99999,0,0,-0.99999,35896.7,38259.7)"
font-family="MS Shell Dlg 2" font-size="10.3125" font-weight="400" font-style="normal" 
>
</g>

<g fill="#333333" fill-opacity="0.2" stroke="#333333" stroke-opacity="1" stroke-width="1" stroke-linecap="round" stroke-linejoin="round" transform="matrix(0.99999,0,0,-0.99999,35896.7,38259.7)"
font-family="MS Shell Dlg 2" font-size="10.3125" font-weight="400" font-style="normal" 
>
<path vector-effect="non-scaling-stroke" fill-rule="evenodd" d="M-5328.25,-5312.21 L-5327.84,-5312.11 L-5327.42,-5312.19 L-5327.07,-5312.44 L-5326.86,-5312.81 L-5326.82,-5313.24 L-6126.22,-11342.1 L-6126.37,-11342.5 L-6126.67,-11342.8 L-6127.07,-11342.9 L-6127.5,-11342.9 L-6127.88,-11342.7 L-6211.69,-11269.1 L-6581.14,-11143.3 L-6629.68,-11136.8 L-7099.4,-11074.5 L-7100.32,-11074.6 L-7100.67,-11074.6 L-7100.99,-11074.4 L-7101.23,-11074.1 L-7101.36,-11073.8 L-7101.38,-11073.5 L-6338.28,-5318.43 L-6338.13,-5318.02 L-6337.82,-5317.71 L-6337.4,-5317.57 L-6336.97,-5317.61 L-6336.09,-5317.91 L-5817.83,-5386.63 L-5428.4,-5361.48 L-5328.25,-5312.21"/>
</g>

<g fill="none" stroke="#000000" stroke-opacity="1" stroke-width="1" stroke-linecap="square" stroke-linejoin="bevel" transform="matrix(0.99999,0,0,-0.99999,35896.7,38259.7)"
font-family="MS Shell Dlg 2" font-size="10.3125" font-weight="400" font-style="normal" 
>
</g>

<g fill="none" stroke="#000000" stroke-opacity="1" stroke-width="1" stroke-linecap="square" stroke-linejoin="bevel" transform="matrix(0.99999,0,0,-0.99999,35896.7,38259.7)"
font-family="MS Shell Dlg 2" font-size="10.3125" font-weight="400" font-style="normal" 
>
</g>

<g fill="#333333" fill-opacity="0.2" stroke="#333333" stroke-opacity="1" stroke-width="1" stroke-linecap="round" stroke-linejoin="round" transform="matrix(0.99999,0,0,-0.99999,35896.7,38259.7)"
font-family="MS Shell Dlg 2" font-size="10.3125" font-weight="400" font-style="normal" 
>
<path vector-effect="non-scaling-stroke" fill-rule="evenodd" d="M7914.95,1682.26 L7915.18,1682.53 L7915.48,1682.7 L7915.83,1682.76 L7916.17,1682.7 L7916.48,1682.51 L11628.3,-1572.97 L11628.6,-1573.33 L11628.7,-1573.76 L11628.6,-1574.18 L11628.3,-1574.52 L11627.6,-1575.08 L11352.3,-1888.93 L11315.1,-1931.31 L11282.8,-1968.13 L11087.7,-2306.07 L11073.1,-2416.73 L11073,-2417.13 L11072.7,-2417.43 L11072.3,-2417.59 L11071.8,-2417.55 L11071.5,-2417.35 L7151.96,1020.25 L7151.71,1020.6 L7151.62,1021.02 L7151.72,1021.44 L7151.98,1021.77 L7152.36,1021.97 L7260.13,1050.84 L7569.77,1288.41 L7914.49,1681.46 L7914.95,1682.26"/>
</g>

<g fill="none" stroke="#000000" stroke-opacity="1" stroke-width="1" stroke-linecap="square" stroke-linejoin="bevel" transform="matrix(0.99999,0,0,-0.99999,35896.7,38259.7)"
font-family="MS Shell Dlg 2" font-size="10.3125" font-weight="400" font-style="normal" 
>
</g>

<g fill="none" stroke="#000000" stroke-opacity="1" stroke-width="1" stroke-linecap="square" stroke-linejoin="bevel" transform="matrix(0.99999,0,0,-0.99999,35896.7,38259.7)"
font-family="MS Shell Dlg 2" font-size="10.3125" font-weight="400" font-style="normal" 
>
</g>

<g fill="#333333" fill-opacity="0.2" stroke="#333333" stroke-opacity="1" stroke-width="1" stroke-linecap="round" stroke-linejoin="round" transform="matrix(0.99999,0,0,-0.99999,35896.7,38259.7)"
font-family="MS Shell Dlg 2" font-size="10.3125" font-weight="400" font-style="normal" 
>
<path vector-effect="non-scaling-stroke" fill-rule="evenodd" d="M-35890.7,9562.09 L-35896.6,9641.92 L-35896.5,9642.26 L-35709.6,10307.8 L-35709.5,10308 L-35697.2,10333.7 L-35462.4,10822.8 L-35450.1,10848.5 L-27722.3,26948 L-26171.6,30178.5 L-23915,34879.9 L-23095.4,36587.3 L-22846.4,37106.1 L-22834,37132 L-22833.9,37132.2 L-22347.5,37772.1 L-22347.2,37772.4 L-21648.2,38169.2 L-21647.9,38169.3 L-20849.1,38258.9 L-20848.9,38258.9 L-20199.9,38199.9 L27869.1,33830 L27870.6,33829.8 L27909.8,33826.3 L28644.4,33759.5 L28721.9,33752.4 L28722.1,33752.4 L29491.1,33520.6 L29491.4,33520.4 L30107.1,33004.8 L30107.4,33004.5 L30470.7,32288.2 L30470.8,32287.9 L30523,31486.4 L30523,31486.2 L30518.5,31453.7 L30466.2,31074.3 L30428.7,30802.6 L24596.3,-11482.7 L24518.5,-12046.3 L24514.4,-12076 L24514.4,-12076.2 L24161.6,-12964 L24161.3,-12964.4 L23437,-13587.3 L23436.8,-13587.4 L23412.8,-13599.6 L22956.3,-13831 L22937,-13840.7 L-7325.89,-29179.5 L-7352.93,-29193.2 L-7815.24,-29427.5 L-7866.61,-29453.5 L-7893.64,-29467.2 L-7893.81,-29467.3 L-8582.82,-29671.8 L-8583.18,-29671.8 L-9299.98,-29619.5 L-9300.33,-29619.4 L-9952.36,-29317 L-9952.65,-29316.8 L-10455.7,-28803.5 L-10455.8,-28803.4 L-10476.9,-28772.2 L-10877.5,-28179.9 L-35220.6,7814.66 L-35236.9,7838.78 L-35486.3,8207.47 L-35546.8,8296.96 L-35563.1,8321.07 L-35563.2,8321.23 L-35748.7,8735.61 L-35766,8763.08 L-35766.1,8763.46 L-35768.9,8780.65 L-35845.7,8952.16 L-35845.8,8952.5 L-35888.4,9530.68 L-35892.3,9555.33 L-35892.3,9555.73 L-35890.7,9562.09 M-7177.13,-26860.1 L-7176.95,-26859.6 L-7176.59,-26859.3 L21090,-12532.4 L21090.4,-12532.3 L21090.8,-12532.4 L21091.1,-12532.6 L21392.3,-12796.7 L21733.8,-12993 L22124.4,-13042.3 L22504,-12936.9 L22959.8,-12705.8 L22983.3,-12693.9 L23345.5,-12382.4 L23521.9,-11938.4 L23525.8,-11910 L23516.8,-11582.3 L23402.3,-11275.2 L23194.6,-11021.5 L22699.3,-10587 L22699.1,-10586.7 L22699,-10586.4 L22699,-10586.1 L28355.7,30425 L28355.8,30425.4 L28356.1,30425.7 L29074.3,30885.4 L29377.6,31188.7 L29526,31591.2 L29530.2,31622 L29504.1,32022.8 L29322.5,32380.9 L29014.6,32638.7 L28630.1,32754.7 L28553.7,32761.6 L27819.5,32828.4 L27491.8,32803.9 L27189.7,32674.7 L26104.8,31980.3 L26104.5,31980.2 L26104.1,31980.2 L-19083.2,36088.1 L-19083.6,36088.2 L-19083.9,36088.5 L-19559.4,36775.3 L-19877.9,37070 L-20291.2,37202 L-20938.8,37260.9 L-21338.3,37216.1 L-21687.8,37017.7 L-21931,36697.7 L-21942.8,36673.1 L-22036.7,36336.7 L-22009.1,35988.6 L-21863.6,35671.1 L-21539.7,35203.1 L-21539.6,35202.8 L-21539.5,35202.5 L-21539.6,35202.1 L-22110.1,34013.6 L-24366.8,29312.2 L-25917.4,26081.7 L-33163.3,10986.1 L-33163.5,10985.8 L-33163.8,10985.6 L-33164.2,10985.5 L-33714.4,10954.3 L-34058.4,10872.1 L-34352.3,10675.4 L-34559.4,10388.6 L-34793.8,9900.1 L-34805.9,9874.95 L-34899.4,9542.11 L-34874,9197.41 L-34732.7,8881.86 L-34717.2,8858.83 L-34479.5,8612.1 L-34172.5,8460.1 L-33832.2,8420.58 L-33236.9,8454.25 L-33236.6,8454.21 L-33236.3,8454.05 L-33236,8453.81 L-9661.93,-26403.6 L-9661.79,-26403.9 L-9661.77,-26404.3 L-9809.64,-27519.4 L-9791.66,-27880.3 L-9646.62,-28211.3 L-9626.35,-28241.3 L-9374.76,-28498 L-9048.76,-28649.1 L-8690.36,-28675.3 L-8345.77,-28573 L-8319.61,-28559.8 L-8268.24,-28533.7 L-7806.5,-28299.7 L-7442.75,-27986.1 L-7267.15,-27539 L-7177.13,-26860.1"/>
</g>

<g fill="none" stroke="#000000" stroke-opacity="1" stroke-width="1" stroke-linecap="square" stroke-linejoin="bevel" transform="matrix(0.99999,0,0,-0.99999,35896.7,38259.7)"
font-family="MS Shell Dlg 2" font-size="10.3125" font-weight="400" font-style="normal" 
>
</g>

<g fill="none" stroke="#000000" stroke-opacity="1" stroke-width="1" stroke-linecap="square" stroke-linejoin="bevel" transform="matrix(0.99999,0,0,-0.99999,35896.7,38259.7)"
font-family="MS Shell Dlg 2" font-size="10.3125" font-weight="400" font-style="normal" 
>
</g>

<g fill="#333333" fill-opacity="0.2" stroke="#333333" stroke-opacity="1" stroke-width="1" stroke-linecap="round" stroke-linejoin="round" transform="matrix(0.99999,0,0,-0.99999,35896.7,38259.7)"
font-family="MS Shell Dlg 2" font-size="10.3125" font-weight="400" font-style="normal" 
>
<path vector-effect="non-scaling-stroke" fill-rule="evenodd" d="M-5123.5,7624.11 L-5123.71,7623.76 L-5124.05,7623.52 L-5124.46,7623.44 L-5124.87,7623.54 L-5454.36,7779.37 L-5454.44,7779.42 L-5776.9,7972.69 L-5776.98,7972.74 L-6078.94,8196.69 L-6079.02,8196.76 L-6357.57,8449.22 L-6357.64,8449.29 L-6610.11,8727.85 L-6610.17,8727.93 L-6834.12,9029.89 L-6834.18,9029.97 L-7027.45,9352.43 L-7027.5,9352.51 L-7188.23,9692.36 L-7188.27,9692.45 L-7281.17,9952.08 L-7281.22,9952.49 L-7281.11,9952.88 L-7280.84,9953.2 L-7280.47,9953.38 L-7035.43,10016.5 L-6724.64,10249.3 L-6525.95,10582.9 L-6469.32,10967.2 L-6478.73,11158.8 L-6478.73,11158.9 L-6467.24,11392.8 L-6533.74,11803.6 L-6761.62,12151.7 L-7111.46,12377 L-7267.21,12401 L-7267.62,12401.1 L-7267.92,12401.5 L-7268.06,12401.9 L-7268,12402.3 L-7188.27,12625.1 L-7188.23,12625.2 L-7027.5,12965.1 L-7027.45,12965.2 L-6834.18,13287.6 L-6834.12,13287.7 L-6610.17,13589.7 L-6610.11,13589.7 L-6573.36,13630.3 L-6573.04,13630.5 L-6572.65,13630.6 L-6572.26,13630.6 L-6571.92,13630.3 L-6381.94,13448 L-6009.88,13306.3 L-5612,13320.9 L-5251.29,13489.7 L-5220.73,13512.4 L-5220.65,13512.4 L-4982.44,13655.2 L-4982.35,13655.3 L-4971.46,13660.4 L-4631.12,13923.8 L-4432.99,14305.7 L-4413.68,14735.5 L-4478.99,14895 L-4479.07,14895.4 L-4478.96,14895.8 L-4478.69,14896.1 L-4478.31,14896.3 L-4395.68,14917 L-4395.58,14917 L-4023.71,14972.2 L-4023.61,14972.2 L-3648.12,14990.7 L-3648.02,14990.7 L-3272.53,14972.2 L-3272.43,14972.2 L-2900.56,14917 L-2900.46,14917 L-2535.78,14825.7 L-2535.69,14825.7 L-2181.72,14699 L-2181.63,14699 L-1841.78,14538.2 L-1841.7,14538.2 L-1519.24,14344.9 L-1519.16,14344.9 L-1440.66,14286.6 L-1440.38,14286.3 L-1440.26,14285.9 L-1440.32,14285.5 L-1440.55,14285.1 L-1562.3,14163.1 L-1710.03,13758.2 L-1673.62,13328.7 L-1484.36,12997.4 L-1484.24,12997.1 L-1484.25,12996.7 L-1484.39,12996.4 L-1484.63,12996.1 L-1488.58,12993.2 L-1294.47,12731.4 L-1294.41,12731.4 L-1268.53,12688.2 L-1000.58,12394.7 L-639.6,12228.7 L-242.493,12216.5 L3.2631,12311.5 L3.65384,12311.6 L4.03986,12311.5 L4.3605,12311.3 L4.56538,12310.9 L18.7856,12271.2 L18.814,12271.1 L110.161,11906.4 L110.18,11906.3 L165.342,11534.4 L165.352,11534.3 L183.799,11158.8 L183.8,11158.8 L183.799,11158.7 L165.352,10783.3 L165.342,10783.2 L110.18,10411.3 L110.161,10411.2 L18.814,10046.5 L18.7856,10046.4 L-107.866,9692.45 L-107.904,9692.36 L-211.478,9473.37 L-211.726,9473.04 L-212.085,9472.84 L-212.494,9472.8 L-212.884,9472.93 L-428.854,9598.22 L-811.403,9650.99 L-1185.42,9554.86 L-1495.2,9324.13 L-1528.05,9287.89 L-1646.48,9157.23 L-1646.55,9157.16 L-1795.38,9022.27 L-2039.73,8682.75 L-2123.84,8273.09 L-2033.06,7864.86 L-1936.88,7735.72 L-1936.72,7735.4 L-1936.68,7735.05 L-1936.77,7734.71 L-1936.97,7734.42 L-1937.25,7734.22 L-2181.63,7618.63 L-2181.72,7618.6 L-2535.69,7491.94 L-2535.78,7491.92 L-2679.8,7455.84 L-2680.23,7455.83 L-2680.63,7456 L-2680.91,7456.32 L-2681.04,7456.74 L-2692.16,7605 L-2884.68,7967.48 L-3206.6,8222.09 L-3603.79,8325.96 L-3925.52,8341.77 L-3925.61,8341.78 L-4028.12,8356.98 L-4421.6,8336.91 L-4776.71,8166.47 L-5038.45,7872.13 L-5123.5,7624.11 M-5466.72,11337.9 L-5475.52,11158.8 L-5468.47,11015.3 L-5466.72,10979.7 L-5440.41,10802.3 L-5396.83,10628.3 L-5336.42,10459.5 L-5259.74,10297.3 L-5167.54,10143.5 L-5060.71,9999.47 L-4940.27,9866.59 L-4807.39,9746.16 L-4663.35,9639.32 L-4509.53,9547.13 L-4347.41,9470.45 L-4178.55,9410.03 L-4004.59,9366.46 L-3882.2,9348.3 L-3827.19,9340.14 L-3650.71,9331.47 L-3468.03,9340.28 L-3291.55,9366.46 L-3117.59,9410.03 L-2948.73,9470.45 L-2786.61,9547.13 L-2632.79,9639.32 L-2488.74,9746.16 L-2469.19,9763.88 L-2355.86,9866.59 L-2270.49,9960.78 L-2236.91,9997.84 L-2235.43,9999.47 L-2128.68,10143.4 L-2036.38,10297.4 L-1959.72,10459.5 L-1899.3,10628.3 L-1855.73,10802.3 L-1829.41,10979.7 L-1820.61,11158.8 L-1829.41,11337.9 L-1855.73,11515.3 L-1899.3,11689.3 L-1959.72,11858.1 L-2036.4,12020.3 L-2127.39,12172.1 L-2128.6,12174.1 L-2235.43,12318.1 L-2355.86,12451 L-2488.74,12571.4 L-2632.79,12678.3 L-2786.61,12770.5 L-2948.73,12847.1 L-3117.59,12907.6 L-3291.55,12951.1 L-3468.95,12977.5 L-3648.07,12986.3 L-3827.19,12977.5 L-4004.59,12951.1 L-4178.55,12907.6 L-4347.41,12847.1 L-4509.53,12770.5 L-4663.35,12678.3 L-4807.39,12571.4 L-4940.27,12451 L-5060.71,12318.1 L-5167.54,12174.1 L-5259.74,12020.3 L-5336.42,11858.1 L-5396.83,11689.3 L-5440.41,11515.3 L-5466.72,11337.9"/>
</g>

<g fill="none" stroke="#000000" stroke-opacity="1" stroke-width="1" stroke-linecap="square" stroke-linejoin="bevel" transform="matrix(0.99999,0,0,-0.99999,35896.7,38259.7)"
font-family="MS Shell Dlg 2" font-size="10.3125" font-weight="400" font-style="normal" 
>
</g>

<g fill="none" stroke="#000000" stroke-opacity="1" stroke-width="1" stroke-linecap="square" stroke-linejoin="bevel" transform="matrix(0.99999,0,0,-0.99999,35896.7,38259.7)"
font-family="MS Shell Dlg 2" font-size="10.3125" font-weight="400" font-style="normal" 
>
</g>

<g fill="#333333" fill-opacity="0.2" stroke="#333333" stroke-opacity="1" stroke-width="1" stroke-linecap="round" stroke-linejoin="round" transform="matrix(0.99999,0,0,-0.99999,35896.7,38259.7)"
font-family="MS Shell Dlg 2" font-size="10.3125" font-weight="400" font-style="normal" 
>
<path vector-effect="non-scaling-stroke" fill-rule="evenodd" d="M9696.15,20292.1 L9695.81,20292.3 L9695.6,20292.7 L9695.56,20293.1 L9695.71,20293.5 L9696.02,20293.8 L14656.6,23468.6 L14657,23468.7 L14657.4,23468.7 L14657.8,23468.5 L14658,23468.1 L14658.1,23467.7 L14655.9,23356.2 L14798.1,22992.7 L14824.5,22951.5 L15079.9,22552.4 L15080.6,22551.7 L15080.8,22551.4 L15080.8,22551.1 L15080.8,22550.7 L15080.6,22550.4 L15080.4,22550.2 L10352.5,19524.3 L10352,19524.2 L10351.6,19524.2 L10351.2,19524.4 L10351,19524.8 L10350.7,19525.7 L10068.8,19966 L9798.4,20247.3 L9696.15,20292.1"/>
</g>

<g fill="none" stroke="#000000" stroke-opacity="1" stroke-width="1" stroke-linecap="square" stroke-linejoin="bevel" transform="matrix(0.99999,0,0,-0.99999,35896.7,38259.7)"
font-family="MS Shell Dlg 2" font-size="10.3125" font-weight="400" font-style="normal" 
>
</g>

<g fill="none" stroke="#000000" stroke-opacity="1" stroke-width="1" stroke-linecap="square" stroke-linejoin="bevel" transform="matrix(0.99999,0,0,-0.99999,35896.7,38259.7)"
font-family="MS Shell Dlg 2" font-size="10.3125" font-weight="400" font-style="normal" 
>
</g>

<g fill="#333333" fill-opacity="0.2" stroke="#333333" stroke-opacity="1" stroke-width="1" stroke-linecap="round" stroke-linejoin="round" transform="matrix(0.99999,0,0,-0.99999,35896.7,38259.7)"
font-family="MS Shell Dlg 2" font-size="10.3125" font-weight="400" font-style="normal" 
>
<path vector-effect="non-scaling-stroke" fill-rule="evenodd" d="M-13169.7,25789.7 L-13169.4,25790 L-13169.1,25790.2 L-13168.6,25790.3 L-13168.2,25790.2 L-13167.9,25789.9 L-10686.4,22205.4 L-10686.2,22205 L-10686.2,22204.6 L-10686.4,22204.2 L-10686.7,22203.9 L-10687.2,22203.8 L-10798.7,22202 L-11156.8,22046.7 L-11586.6,21749.1 L-11587.3,21748.4 L-11587.6,21748.2 L-11588.1,21748.1 L-11588.5,21748.3 L-11588.8,21748.6 L-13039.5,23844.1 L-13280,24191.4 L-13913.1,25106 L-13913.3,25106.4 L-13913.3,25106.8 L-13913.1,25107.2 L-13912.7,25107.5 L-13911.9,25107.8 L-13522.3,25377.5 L-13482,25405.4 L-13210.7,25685.9 L-13169.7,25789.7"/>
</g>

<g fill="none" stroke="#000000" stroke-opacity="1" stroke-width="1" stroke-linecap="square" stroke-linejoin="bevel" transform="matrix(0.99999,0,0,-0.99999,35896.7,38259.7)"
font-family="MS Shell Dlg 2" font-size="10.3125" font-weight="400" font-style="normal" 
>
</g>

<g fill="none" stroke="#000000" stroke-opacity="1" stroke-width="1" stroke-linecap="square" stroke-linejoin="bevel" transform="matrix(1,0,0,-1,0,67931.7)"
font-family="MS Shell Dlg 2" font-size="10.3125" font-weight="400" font-style="normal" 
>
</g>
</g>
</svg>
