<?xml version="1.0" encoding="UTF-8" standalone="no"?>
<svg width="17623.9mm" height="18047.8mm"
 xmlns="http://www.w3.org/2000/svg" xmlns:xlink="http://www.w3.org/1999/xlink"  version="1.2" baseProfile="tiny">
<title>SVG Generator Example Drawing</title>
<desc>An SVG drawing created by the SVG Generator</desc>
<defs>
</defs>
<g fill="none" stroke="black" stroke-width="1" fill-rule="evenodd" stroke-linecap="square" stroke-linejoin="bevel" >

<g fill="none" stroke="#000000" stroke-opacity="1" stroke-width="1" stroke-linecap="square" stroke-linejoin="bevel" transform="matrix(1,0,0,-1,0,63949.5)"
font-family="MS Shell Dlg 2" font-size="10.3125" font-weight="400" font-style="normal" 
>
</g>

<g fill="none" stroke="#000000" stroke-opacity="1" stroke-width="1" stroke-linecap="square" stroke-linejoin="bevel" transform="matrix(1,0,0,-1,0,63949.5)"
font-family="MS Shell Dlg 2" font-size="10.3125" font-weight="400" font-style="normal" 
>
</g>

<g fill="none" stroke="#000000" stroke-opacity="1" stroke-width="1" stroke-linecap="square" stroke-linejoin="bevel" transform="matrix(0.999992,0,0,-0.999992,33905.8,36266.8)"
font-family="MS Shell Dlg 2" font-size="10.3125" font-weight="400" font-style="normal" 
>
</g>

<g fill="#333333" fill-opacity="0.2" stroke="#333333" stroke-opacity="1" stroke-width="1" stroke-linecap="round" stroke-linejoin="round" transform="matrix(0.999992,0,0,-0.999992,33905.8,36266.8)"
font-family="MS Shell Dlg 2" font-size="10.3125" font-weight="400" font-style="normal" 
>
<path vector-effect="non-scaling-stroke" fill-rule="evenodd" d="M-21789.1,10104.4 L-21791.9,10154.5 L-21818.8,10628.6 L-15791.5,10970.6 L-15764.5,10496.4 L-15734.8,9972.22 L-18510.8,9814.72 L-21762.2,9630.24 L-21789.1,10104.4 M-21789.1,10104.4 L-21762.2,9630.25 L-18510.8,9814.73 L-15734.8,9972.23 L-15764.6,10496.4 L-15791.5,10970.6 L-21818.8,10628.6 L-21791.9,10154.5 L-21789.1,10104.4"/>
</g>

<g fill="none" stroke="#000000" stroke-opacity="1" stroke-width="1" stroke-linecap="square" stroke-linejoin="bevel" transform="matrix(0.999992,0,0,-0.999992,33905.8,36266.8)"
font-family="MS Shell Dlg 2" font-size="10.3125" font-weight="400" font-style="normal" 
>
</g>

<g fill="none" stroke="#000000" stroke-opacity="1" stroke-width="1" stroke-linecap="square" stroke-linejoin="bevel" transform="matrix(0.999992,0,0,-0.999992,33905.8,36266.8)"
font-family="MS Shell Dlg 2" font-size="10.3125" font-weight="400" font-style="normal" 
>
</g>

<g fill="#333333" fill-opacity="0.2" stroke="#333333" stroke-opacity="1" stroke-width="1" stroke-linecap="round" stroke-linejoin="round" transform="matrix(0.999992,0,0,-0.999992,33905.8,36266.8)"
font-family="MS Shell Dlg 2" font-size="10.3125" font-weight="400" font-style="normal" 
>
<path vector-effect="non-scaling-stroke" fill-rule="evenodd" d="M-5685.35,-4396.45 L-5214.54,-4458.88 L-6240.48,-12196.2 L-6711.29,-12133.7 L-6761,-12127.2 L-7231.81,-12064.7 L-6205.87,-4327.43 L-5685.35,-4396.45 M-5685.35,-4396.46 L-6205.86,-4327.45 L-7231.8,-12064.7 L-6761,-12127.1 L-6711.29,-12133.7 L-6240.49,-12196.2 L-5214.56,-4458.89 L-5685.35,-4396.46"/>
</g>

<g fill="none" stroke="#000000" stroke-opacity="1" stroke-width="1" stroke-linecap="square" stroke-linejoin="bevel" transform="matrix(0.999992,0,0,-0.999992,33905.8,36266.8)"
font-family="MS Shell Dlg 2" font-size="10.3125" font-weight="400" font-style="normal" 
>
</g>

<g fill="none" stroke="#000000" stroke-opacity="1" stroke-width="1" stroke-linecap="square" stroke-linejoin="bevel" transform="matrix(0.999992,0,0,-0.999992,33905.8,36266.8)"
font-family="MS Shell Dlg 2" font-size="10.3125" font-weight="400" font-style="normal" 
>
</g>

<g fill="#333333" fill-opacity="0.2" stroke="#333333" stroke-opacity="1" stroke-width="1" stroke-linecap="round" stroke-linejoin="round" transform="matrix(0.999992,0,0,-0.999992,33905.8,36266.8)"
font-family="MS Shell Dlg 2" font-size="10.3125" font-weight="400" font-style="normal" 
>
<path vector-effect="non-scaling-stroke" fill-rule="evenodd" d="M6504.78,1589.19 L6572.53,1666.44 L6817.93,1946.25 L7164.15,2341.01 L12379.3,-2232.97 L12103.4,-2547.64 L12066.2,-2590.03 L12033.1,-2627.73 L11720,-2984.78 L6504.78,1589.19 M6504.79,1589.2 L11720,-2984.77 L12033.1,-2627.72 L12066.2,-2590.02 L12103.4,-2547.64 L12379.3,-2232.97 L7164.15,2340.99 L6817.94,1946.25 L6572.53,1666.43 L6504.79,1589.2"/>
</g>

<g fill="none" stroke="#000000" stroke-opacity="1" stroke-width="1" stroke-linecap="square" stroke-linejoin="bevel" transform="matrix(0.999992,0,0,-0.999992,33905.8,36266.8)"
font-family="MS Shell Dlg 2" font-size="10.3125" font-weight="400" font-style="normal" 
>
</g>

<g fill="none" stroke="#000000" stroke-opacity="1" stroke-width="1" stroke-linecap="square" stroke-linejoin="bevel" transform="matrix(0.999992,0,0,-0.999992,33905.8,36266.8)"
font-family="MS Shell Dlg 2" font-size="10.3125" font-weight="400" font-style="normal" 
>
</g>

<g fill="#333333" fill-opacity="0.2" stroke="#333333" stroke-opacity="1" stroke-width="1" stroke-linecap="round" stroke-linejoin="round" transform="matrix(0.999992,0,0,-0.999992,33905.8,36266.8)"
font-family="MS Shell Dlg 2" font-size="10.3125" font-weight="400" font-style="normal" 
>
<path vector-effect="non-scaling-stroke" fill-rule="evenodd" d="M-8719.87,-27642.7 L-8771.24,-27668.7 L-8798.28,-27682.4 L-8798.28,-27682.4 L-8798.29,-27682.4 L-8798.29,-27682.4 L-8798.29,-27682.4 L-8819.38,-27651.2 L-9219.99,-27058.9 L-33563.1,8935.64 L-33579.4,8959.76 L-33828.8,9328.45 L-33889.3,9417.94 L-33905.6,9442.05 L-33905.6,9442.06 L-33905.6,9442.06 L-33905.6,9442.06 L-33893.2,9467.81 L-33658.5,9956.89 L-33646.1,9982.63 L-25918.4,26082.1 L-24367.7,29312.7 L-22111.1,34014 L-21291.5,35721.4 L-21042.5,36240.2 L-21030.1,36266.1 L-21030,36266.1 L-21030,36266.1 L-21030,36266.1 L-20381.1,36207.1 L27688,31837.2 L27689.5,31837.1 L27728.6,31833.5 L28463.2,31766.7 L28540.8,31759.7 L28540.8,31759.7 L28540.8,31759.7 L28540.8,31759.7 L28540.8,31759.7 L28536.3,31727.1 L28484,31347.7 L28446.5,31076 L22614,-11209.3 L22536.3,-11772.9 L22532.2,-11802.6 L22532.2,-11802.6 L22532.2,-11802.6 L22508.2,-11814.8 L22051.6,-12046.2 L22032.4,-12055.9 L22027.6,-12058.3 L-8230.53,-27394.6 L-8257.56,-27408.4 L-8719.87,-27642.7 M-8719.88,-27642.7 L-8257.57,-27408.3 L-8230.53,-27394.6 L22027.6,-12058.3 L22032.4,-12055.9 L22051.6,-12046.2 L22508.2,-11814.8 L22532.2,-11802.6 L22536.3,-11772.9 L22614,-11209.3 L28446.5,31076 L28484,31347.7 L28536.3,31727.1 L28540.8,31759.7 L28463.2,31766.7 L27728.6,31833.5 L27689.5,31837 L27688,31837.2 L-20381.1,36207.1 L-21030,36266.1 L-21042.5,36240.2 L-21291.5,35721.4 L-22111,34014 L-24367.7,29312.7 L-25918.3,26082.1 L-33646.1,9982.63 L-33658.5,9956.88 L-33893.2,9467.8 L-33905.6,9442.06 L-33889.3,9417.95 L-33828.7,9328.46 L-33579.4,8959.76 L-33563.1,8935.65 L-9219.98,-27058.9 L-8819.37,-27651.2 L-8798.28,-27682.4 L-8771.25,-27668.7 L-8719.88,-27642.7"/>
</g>

<g fill="none" stroke="#000000" stroke-opacity="1" stroke-width="1" stroke-linecap="square" stroke-linejoin="bevel" transform="matrix(0.999992,0,0,-0.999992,33905.8,36266.8)"
font-family="MS Shell Dlg 2" font-size="10.3125" font-weight="400" font-style="normal" 
>
</g>

<g fill="none" stroke="#000000" stroke-opacity="1" stroke-width="1" stroke-linecap="square" stroke-linejoin="bevel" transform="matrix(0.999992,0,0,-0.999992,33905.8,36266.8)"
font-family="MS Shell Dlg 2" font-size="10.3125" font-weight="400" font-style="normal" 
>
</g>

<g fill="#333333" fill-opacity="0.2" stroke="#333333" stroke-opacity="1" stroke-width="1" stroke-linecap="round" stroke-linejoin="round" transform="matrix(0.999992,0,0,-0.999992,33905.8,36266.8)"
font-family="MS Shell Dlg 2" font-size="10.3125" font-weight="400" font-style="normal" 
>
<path vector-effect="non-scaling-stroke" fill-rule="evenodd" d="M-4023.56,7346.38 L-4175.81,7368.96 L-4395.43,7401.54 L-4760.11,7492.89 L-5114.08,7619.54 L-5453.93,7780.27 L-5776.39,7973.55 L-6078.35,8197.5 L-6356.9,8449.97 L-6609.37,8728.52 L-6833.32,9030.48 L-7026.59,9352.94 L-7187.33,9692.79 L-7313.98,10046.8 L-7405.33,10411.4 L-7460.49,10783.3 L-7467.06,10917.1 L-7478.94,11158.8 L-7464.97,11443 L-7460.49,11534.3 L-7405.33,11906.2 L-7313.98,12270.8 L-7187.33,12624.8 L-7026.59,12964.7 L-6833.32,13287.1 L-6609.37,13589.1 L-6356.9,13867.6 L-6078.35,14120.1 L-5847.26,14291.5 L-5776.39,14344 L-5453.93,14537.3 L-5397.42,14564 L-5114.08,14698.1 L-4760.11,14824.7 L-4395.43,14916.1 L-4023.56,14971.2 L-3648.07,14989.7 L-3272.58,14971.2 L-2900.7,14916.1 L-2536.03,14824.7 L-2182.06,14698.1 L-1842.21,14537.3 L-1519.75,14344 L-1217.79,14120.1 L-939.236,13867.6 L-720.374,13626.2 L-686.767,13589.1 L-462.818,13287.1 L-411.077,13200.8 L-269.544,12964.7 L-108.808,12624.8 L17.844,12270.8 L109.191,11906.2 L164.353,11534.3 L182.8,11158.8 L164.353,10783.3 L109.191,10411.4 L17.844,10046.8 L-108.808,9692.79 L-269.544,9352.94 L-462.818,9030.48 L-462.928,9030.33 L-686.767,8728.52 L-754.268,8654.05 L-787.85,8616.99 L-939.236,8449.97 L-1125.4,8281.23 L-1217.79,8197.5 L-1519.75,7973.55 L-1842.21,7780.27 L-2182.06,7619.54 L-2536.03,7492.89 L-2900.7,7401.54 L-3272.58,7346.38 L-3648.07,7327.93 L-3651.63,7328.1 L-4023.56,7346.38 M-4023.56,7346.39 L-3651.63,7328.11 L-3648.07,7327.94 L-3272.58,7346.39 L-2900.71,7401.55 L-2536.03,7492.9 L-2182.06,7619.55 L-1842.21,7780.28 L-1519.76,7973.56 L-1217.8,8197.5 L-1125.41,8281.24 L-939.243,8449.97 L-787.858,8617 L-754.275,8654.05 L-686.775,8728.53 L-462.936,9030.34 L-462.826,9030.49 L-269.553,9352.94 L-108.817,9692.79 L17.8344,10046.8 L109.181,10411.4 L164.343,10783.3 L182.79,11158.8 L164.343,11534.3 L109.181,11906.2 L17.8344,12270.8 L-108.817,12624.8 L-269.553,12964.7 L-411.086,13200.8 L-462.826,13287.1 L-686.775,13589.1 L-720.382,13626.1 L-939.243,13867.6 L-1217.8,14120.1 L-1519.76,14344 L-1842.21,14537.3 L-2182.06,14698.1 L-2536.03,14824.7 L-2900.71,14916 L-3272.58,14971.2 L-3648.07,14989.7 L-4023.56,14971.2 L-4395.43,14916 L-4760.11,14824.7 L-5114.07,14698.1 L-5397.42,14564 L-5453.92,14537.3 L-5776.38,14344 L-5847.25,14291.5 L-6078.34,14120.1 L-6356.89,13867.6 L-6609.36,13589.1 L-6833.31,13287.1 L-7026.58,12964.7 L-7187.32,12624.8 L-7313.97,12270.8 L-7405.32,11906.2 L-7460.48,11534.3 L-7464.96,11443 L-7478.93,11158.8 L-7467.05,10917.1 L-7460.48,10783.3 L-7405.32,10411.4 L-7313.97,10046.8 L-7187.32,9692.79 L-7026.58,9352.94 L-6833.31,9030.49 L-6609.36,8728.53 L-6356.89,8449.97 L-6078.34,8197.5 L-5776.38,7973.56 L-5453.92,7780.28 L-5114.07,7619.55 L-4760.11,7492.9 L-4395.43,7401.55 L-4175.81,7368.97 L-4023.56,7346.39"/>
</g>

<g fill="none" stroke="#000000" stroke-opacity="1" stroke-width="1" stroke-linecap="square" stroke-linejoin="bevel" transform="matrix(0.999992,0,0,-0.999992,33905.8,36266.8)"
font-family="MS Shell Dlg 2" font-size="10.3125" font-weight="400" font-style="normal" 
>
</g>

<g fill="none" stroke="#000000" stroke-opacity="1" stroke-width="1" stroke-linecap="square" stroke-linejoin="bevel" transform="matrix(0.999992,0,0,-0.999992,33905.8,36266.8)"
font-family="MS Shell Dlg 2" font-size="10.3125" font-weight="400" font-style="normal" 
>
</g>

<g fill="#333333" fill-opacity="0.2" stroke="#333333" stroke-opacity="1" stroke-width="1" stroke-linecap="round" stroke-linejoin="round" transform="matrix(0.999992,0,0,-0.999992,33905.8,36266.8)"
font-family="MS Shell Dlg 2" font-size="10.3125" font-weight="400" font-style="normal" 
>
<path vector-effect="non-scaling-stroke" fill-rule="evenodd" d="M9509.82,18986.2 L9226.78,19428.5 L8970.77,19828.5 L15382.9,23932.2 L15638.9,23532.2 L15665.9,23490 L15921.9,23090 L9509.82,18986.2 M9509.82,18986.2 L15921.9,23090 L15665.9,23490 L15638.9,23532.2 L15382.9,23932.2 L8970.78,19828.5 L9226.79,19428.5 L9509.82,18986.2"/>
</g>

<g fill="none" stroke="#000000" stroke-opacity="1" stroke-width="1" stroke-linecap="square" stroke-linejoin="bevel" transform="matrix(0.999992,0,0,-0.999992,33905.8,36266.8)"
font-family="MS Shell Dlg 2" font-size="10.3125" font-weight="400" font-style="normal" 
>
</g>

<g fill="none" stroke="#000000" stroke-opacity="1" stroke-width="1" stroke-linecap="square" stroke-linejoin="bevel" transform="matrix(0.999992,0,0,-0.999992,33905.8,36266.8)"
font-family="MS Shell Dlg 2" font-size="10.3125" font-weight="400" font-style="normal" 
>
</g>

<g fill="#333333" fill-opacity="0.2" stroke="#333333" stroke-opacity="1" stroke-width="1" stroke-linecap="round" stroke-linejoin="round" transform="matrix(0.999992,0,0,-0.999992,33905.8,36266.8)"
font-family="MS Shell Dlg 2" font-size="10.3125" font-weight="400" font-style="normal" 
>
<path vector-effect="non-scaling-stroke" fill-rule="evenodd" d="M-14090.9,26198.9 L-14049.7,26227.4 L-13659.2,26497.8 L-10196.7,21496.3 L-10587.2,21226 L-11018.9,20927.1 L-13038.7,23844.6 L-13279.2,24192 L-14481.4,25928.6 L-14090.9,26198.9 M-14090.9,26198.9 L-14481.4,25928.6 L-13279.1,24192 L-13038.7,23844.6 L-11018.9,20927.1 L-10587.2,21226 L-10196.7,21496.3 L-13659.2,26497.8 L-14049.7,26227.4 L-14090.9,26198.9"/>
</g>

<g fill="none" stroke="#000000" stroke-opacity="1" stroke-width="1" stroke-linecap="square" stroke-linejoin="bevel" transform="matrix(0.999992,0,0,-0.999992,33905.8,36266.8)"
font-family="MS Shell Dlg 2" font-size="10.3125" font-weight="400" font-style="normal" 
>
</g>

<g fill="none" stroke="#000000" stroke-opacity="1" stroke-width="1" stroke-linecap="square" stroke-linejoin="bevel" transform="matrix(0.999992,0,0,-0.999992,33905.8,36266.8)"
font-family="MS Shell Dlg 2" font-size="10.3125" font-weight="400" font-style="normal" 
>
</g>

<g fill="#ae5151" fill-opacity="0.2" stroke="#333333" stroke-opacity="1" stroke-width="1" stroke-linecap="round" stroke-linejoin="round" transform="matrix(0.999992,0,0,-0.999992,33905.8,36266.8)"
font-family="MS Shell Dlg 2" font-size="10.3125" font-weight="400" font-style="normal" 
>
<path vector-effect="non-scaling-stroke" fill-rule="evenodd" d="M-21789.1,10104.4 L-21791.9,10154.5 L-21818.8,10628.6 L-15791.5,10970.6 L-15764.5,10496.4 L-15734.8,9972.22 L-18510.8,9814.72 L-21762.2,9630.24 L-21789.1,10104.4 M-21789.1,10104.4 L-21762.2,9630.25 L-18510.8,9814.73 L-15734.8,9972.23 L-15764.6,10496.4 L-15791.5,10970.6 L-21818.8,10628.6 L-21791.9,10154.5 L-21789.1,10104.4"/>
</g>

<g fill="none" stroke="#000000" stroke-opacity="1" stroke-width="1" stroke-linecap="square" stroke-linejoin="bevel" transform="matrix(0.999992,0,0,-0.999992,33905.8,36266.8)"
font-family="MS Shell Dlg 2" font-size="10.3125" font-weight="400" font-style="normal" 
>
</g>

<g fill="none" stroke="#000000" stroke-opacity="1" stroke-width="1" stroke-linecap="square" stroke-linejoin="bevel" transform="matrix(0.999992,0,0,-0.999992,33905.8,36266.8)"
font-family="MS Shell Dlg 2" font-size="10.3125" font-weight="400" font-style="normal" 
>
</g>

<g fill="#ae5151" fill-opacity="0.2" stroke="#333333" stroke-opacity="1" stroke-width="1" stroke-linecap="round" stroke-linejoin="round" transform="matrix(0.999992,0,0,-0.999992,33905.8,36266.8)"
font-family="MS Shell Dlg 2" font-size="10.3125" font-weight="400" font-style="normal" 
>
<path vector-effect="non-scaling-stroke" fill-rule="evenodd" d="M-5685.35,-4396.45 L-5214.54,-4458.88 L-6240.48,-12196.2 L-6711.29,-12133.7 L-6761,-12127.2 L-7231.81,-12064.7 L-6205.87,-4327.43 L-5685.35,-4396.45 M-5685.35,-4396.46 L-6205.86,-4327.45 L-7231.8,-12064.7 L-6761,-12127.1 L-6711.29,-12133.7 L-6240.49,-12196.2 L-5214.56,-4458.89 L-5685.35,-4396.46"/>
</g>

<g fill="none" stroke="#000000" stroke-opacity="1" stroke-width="1" stroke-linecap="square" stroke-linejoin="bevel" transform="matrix(0.999992,0,0,-0.999992,33905.8,36266.8)"
font-family="MS Shell Dlg 2" font-size="10.3125" font-weight="400" font-style="normal" 
>
</g>

<g fill="none" stroke="#000000" stroke-opacity="1" stroke-width="1" stroke-linecap="square" stroke-linejoin="bevel" transform="matrix(0.999992,0,0,-0.999992,33905.8,36266.8)"
font-family="MS Shell Dlg 2" font-size="10.3125" font-weight="400" font-style="normal" 
>
</g>

<g fill="#ae5151" fill-opacity="0.2" stroke="#333333" stroke-opacity="1" stroke-width="1" stroke-linecap="round" stroke-linejoin="round" transform="matrix(0.999992,0,0,-0.999992,33905.8,36266.8)"
font-family="MS Shell Dlg 2" font-size="10.3125" font-weight="400" font-style="normal" 
>
<path vector-effect="non-scaling-stroke" fill-rule="evenodd" d="M6504.78,1589.19 L6572.53,1666.44 L6817.93,1946.25 L7164.15,2341.01 L12379.3,-2232.97 L12103.4,-2547.64 L12066.2,-2590.03 L12033.1,-2627.73 L11720,-2984.78 L6504.78,1589.19 M6504.79,1589.2 L11720,-2984.77 L12033.1,-2627.72 L12066.2,-2590.02 L12103.4,-2547.64 L12379.3,-2232.97 L7164.15,2340.99 L6817.94,1946.25 L6572.53,1666.43 L6504.79,1589.2"/>
</g>

<g fill="none" stroke="#000000" stroke-opacity="1" stroke-width="1" stroke-linecap="square" stroke-linejoin="bevel" transform="matrix(0.999992,0,0,-0.999992,33905.8,36266.8)"
font-family="MS Shell Dlg 2" font-size="10.3125" font-weight="400" font-style="normal" 
>
</g>

<g fill="none" stroke="#000000" stroke-opacity="1" stroke-width="1" stroke-linecap="square" stroke-linejoin="bevel" transform="matrix(0.999992,0,0,-0.999992,33905.8,36266.8)"
font-family="MS Shell Dlg 2" font-size="10.3125" font-weight="400" font-style="normal" 
>
</g>

<g fill="#ae5151" fill-opacity="0.2" stroke="#333333" stroke-opacity="1" stroke-width="1" stroke-linecap="round" stroke-linejoin="round" transform="matrix(0.999992,0,0,-0.999992,33905.8,36266.8)"
font-family="MS Shell Dlg 2" font-size="10.3125" font-weight="400" font-style="normal" 
>
<path vector-effect="non-scaling-stroke" fill-rule="evenodd" d="M-8719.87,-27642.7 L-8771.24,-27668.7 L-8798.28,-27682.4 L-8798.28,-27682.4 L-8798.29,-27682.4 L-8798.29,-27682.4 L-8798.29,-27682.4 L-8819.38,-27651.2 L-9219.99,-27058.9 L-33563.1,8935.64 L-33579.4,8959.76 L-33828.8,9328.45 L-33889.3,9417.94 L-33905.6,9442.05 L-33905.6,9442.06 L-33905.6,9442.06 L-33905.6,9442.06 L-33893.2,9467.81 L-33658.5,9956.89 L-33646.1,9982.63 L-25918.4,26082.1 L-24367.7,29312.7 L-22111.1,34014 L-21291.5,35721.4 L-21042.5,36240.2 L-21030.1,36266.1 L-21030,36266.1 L-21030,36266.1 L-21030,36266.1 L-20381.1,36207.1 L27688,31837.2 L27689.5,31837.1 L27728.6,31833.5 L28463.2,31766.7 L28540.8,31759.7 L28540.8,31759.7 L28540.8,31759.7 L28540.8,31759.7 L28540.8,31759.7 L28536.3,31727.1 L28484,31347.7 L28446.5,31076 L22614,-11209.3 L22536.3,-11772.9 L22532.2,-11802.6 L22532.2,-11802.6 L22532.2,-11802.6 L22508.2,-11814.8 L22051.6,-12046.2 L22032.4,-12055.9 L22027.6,-12058.3 L-8230.53,-27394.6 L-8257.56,-27408.4 L-8719.87,-27642.7 M-8719.88,-27642.7 L-8257.57,-27408.3 L-8230.53,-27394.6 L22027.6,-12058.3 L22032.4,-12055.9 L22051.6,-12046.2 L22508.2,-11814.8 L22532.2,-11802.6 L22536.3,-11772.9 L22614,-11209.3 L28446.5,31076 L28484,31347.7 L28536.3,31727.1 L28540.8,31759.7 L28463.2,31766.7 L27728.6,31833.5 L27689.5,31837 L27688,31837.2 L-20381.1,36207.1 L-21030,36266.1 L-21042.5,36240.2 L-21291.5,35721.4 L-22111,34014 L-24367.7,29312.7 L-25918.3,26082.1 L-33646.1,9982.63 L-33658.5,9956.88 L-33893.2,9467.8 L-33905.6,9442.06 L-33889.3,9417.95 L-33828.7,9328.46 L-33579.4,8959.76 L-33563.1,8935.65 L-9219.98,-27058.9 L-8819.37,-27651.2 L-8798.28,-27682.4 L-8771.25,-27668.7 L-8719.88,-27642.7"/>
</g>

<g fill="none" stroke="#000000" stroke-opacity="1" stroke-width="1" stroke-linecap="square" stroke-linejoin="bevel" transform="matrix(0.999992,0,0,-0.999992,33905.8,36266.8)"
font-family="MS Shell Dlg 2" font-size="10.3125" font-weight="400" font-style="normal" 
>
</g>

<g fill="none" stroke="#000000" stroke-opacity="1" stroke-width="1" stroke-linecap="square" stroke-linejoin="bevel" transform="matrix(0.999992,0,0,-0.999992,33905.8,36266.8)"
font-family="MS Shell Dlg 2" font-size="10.3125" font-weight="400" font-style="normal" 
>
</g>

<g fill="#ae5151" fill-opacity="0.2" stroke="#333333" stroke-opacity="1" stroke-width="1" stroke-linecap="round" stroke-linejoin="round" transform="matrix(0.999992,0,0,-0.999992,33905.8,36266.8)"
font-family="MS Shell Dlg 2" font-size="10.3125" font-weight="400" font-style="normal" 
>
<path vector-effect="non-scaling-stroke" fill-rule="evenodd" d="M-4023.56,7346.38 L-4175.81,7368.96 L-4395.43,7401.54 L-4760.11,7492.89 L-5114.08,7619.54 L-5453.93,7780.27 L-5776.39,7973.55 L-6078.35,8197.5 L-6356.9,8449.97 L-6609.37,8728.52 L-6833.32,9030.48 L-7026.59,9352.94 L-7187.33,9692.79 L-7313.98,10046.8 L-7405.33,10411.4 L-7460.49,10783.3 L-7467.06,10917.1 L-7478.94,11158.8 L-7464.97,11443 L-7460.49,11534.3 L-7405.33,11906.2 L-7313.98,12270.8 L-7187.33,12624.8 L-7026.59,12964.7 L-6833.32,13287.1 L-6609.37,13589.1 L-6356.9,13867.6 L-6078.35,14120.1 L-5847.26,14291.5 L-5776.39,14344 L-5453.93,14537.3 L-5397.42,14564 L-5114.08,14698.1 L-4760.11,14824.7 L-4395.43,14916.1 L-4023.56,14971.2 L-3648.07,14989.7 L-3272.58,14971.2 L-2900.7,14916.1 L-2536.03,14824.7 L-2182.06,14698.1 L-1842.21,14537.3 L-1519.75,14344 L-1217.79,14120.1 L-939.236,13867.6 L-720.374,13626.2 L-686.767,13589.1 L-462.818,13287.1 L-411.077,13200.8 L-269.544,12964.7 L-108.808,12624.8 L17.844,12270.8 L109.191,11906.2 L164.353,11534.3 L182.8,11158.8 L164.353,10783.3 L109.191,10411.4 L17.844,10046.8 L-108.808,9692.79 L-269.544,9352.94 L-462.818,9030.48 L-462.928,9030.33 L-686.767,8728.52 L-754.268,8654.05 L-787.85,8616.99 L-939.236,8449.97 L-1125.4,8281.23 L-1217.79,8197.5 L-1519.75,7973.55 L-1842.21,7780.27 L-2182.06,7619.54 L-2536.03,7492.89 L-2900.7,7401.54 L-3272.58,7346.38 L-3648.07,7327.93 L-3651.63,7328.1 L-4023.56,7346.38 M-4023.56,7346.39 L-3651.63,7328.11 L-3648.07,7327.94 L-3272.58,7346.39 L-2900.71,7401.55 L-2536.03,7492.9 L-2182.06,7619.55 L-1842.21,7780.28 L-1519.76,7973.56 L-1217.8,8197.5 L-1125.41,8281.24 L-939.243,8449.97 L-787.858,8617 L-754.275,8654.05 L-686.775,8728.53 L-462.936,9030.34 L-462.826,9030.49 L-269.553,9352.94 L-108.817,9692.79 L17.8344,10046.8 L109.181,10411.4 L164.343,10783.3 L182.79,11158.8 L164.343,11534.3 L109.181,11906.2 L17.8344,12270.8 L-108.817,12624.8 L-269.553,12964.7 L-411.086,13200.8 L-462.826,13287.1 L-686.775,13589.1 L-720.382,13626.1 L-939.243,13867.6 L-1217.8,14120.1 L-1519.76,14344 L-1842.21,14537.3 L-2182.06,14698.1 L-2536.03,14824.7 L-2900.71,14916 L-3272.58,14971.2 L-3648.07,14989.7 L-4023.56,14971.2 L-4395.43,14916 L-4760.11,14824.7 L-5114.07,14698.1 L-5397.42,14564 L-5453.92,14537.3 L-5776.38,14344 L-5847.25,14291.5 L-6078.34,14120.1 L-6356.89,13867.6 L-6609.36,13589.1 L-6833.31,13287.1 L-7026.58,12964.7 L-7187.32,12624.8 L-7313.97,12270.8 L-7405.32,11906.2 L-7460.48,11534.3 L-7464.96,11443 L-7478.93,11158.8 L-7467.05,10917.1 L-7460.48,10783.3 L-7405.32,10411.4 L-7313.97,10046.8 L-7187.32,9692.79 L-7026.58,9352.94 L-6833.31,9030.49 L-6609.36,8728.53 L-6356.89,8449.97 L-6078.34,8197.5 L-5776.38,7973.56 L-5453.92,7780.28 L-5114.07,7619.55 L-4760.11,7492.9 L-4395.43,7401.55 L-4175.81,7368.97 L-4023.56,7346.39"/>
</g>

<g fill="none" stroke="#000000" stroke-opacity="1" stroke-width="1" stroke-linecap="square" stroke-linejoin="bevel" transform="matrix(0.999992,0,0,-0.999992,33905.8,36266.8)"
font-family="MS Shell Dlg 2" font-size="10.3125" font-weight="400" font-style="normal" 
>
</g>

<g fill="none" stroke="#000000" stroke-opacity="1" stroke-width="1" stroke-linecap="square" stroke-linejoin="bevel" transform="matrix(0.999992,0,0,-0.999992,33905.8,36266.8)"
font-family="MS Shell Dlg 2" font-size="10.3125" font-weight="400" font-style="normal" 
>
</g>

<g fill="#ae5151" fill-opacity="0.2" stroke="#333333" stroke-opacity="1" stroke-width="1" stroke-linecap="round" stroke-linejoin="round" transform="matrix(0.999992,0,0,-0.999992,33905.8,36266.8)"
font-family="MS Shell Dlg 2" font-size="10.3125" font-weight="400" font-style="normal" 
>
<path vector-effect="non-scaling-stroke" fill-rule="evenodd" d="M9509.82,18986.2 L9226.78,19428.5 L8970.77,19828.5 L15382.9,23932.2 L15638.9,23532.2 L15665.9,23490 L15921.9,23090 L9509.82,18986.2 M9509.82,18986.2 L15921.9,23090 L15665.9,23490 L15638.9,23532.2 L15382.9,23932.2 L8970.78,19828.5 L9226.79,19428.5 L9509.82,18986.2"/>
</g>

<g fill="none" stroke="#000000" stroke-opacity="1" stroke-width="1" stroke-linecap="square" stroke-linejoin="bevel" transform="matrix(0.999992,0,0,-0.999992,33905.8,36266.8)"
font-family="MS Shell Dlg 2" font-size="10.3125" font-weight="400" font-style="normal" 
>
</g>

<g fill="none" stroke="#000000" stroke-opacity="1" stroke-width="1" stroke-linecap="square" stroke-linejoin="bevel" transform="matrix(0.999992,0,0,-0.999992,33905.8,36266.8)"
font-family="MS Shell Dlg 2" font-size="10.3125" font-weight="400" font-style="normal" 
>
</g>

<g fill="#ae5151" fill-opacity="0.2" stroke="#333333" stroke-opacity="1" stroke-width="1" stroke-linecap="round" stroke-linejoin="round" transform="matrix(0.999992,0,0,-0.999992,33905.8,36266.8)"
font-family="MS Shell Dlg 2" font-size="10.3125" font-weight="400" font-style="normal" 
>
<path vector-effect="non-scaling-stroke" fill-rule="evenodd" d="M-14090.9,26198.9 L-14049.7,26227.4 L-13659.2,26497.8 L-10196.7,21496.3 L-10587.2,21226 L-11018.9,20927.1 L-13038.7,23844.6 L-13279.2,24192 L-14481.4,25928.6 L-14090.9,26198.9 M-14090.9,26198.9 L-14481.4,25928.6 L-13279.1,24192 L-13038.7,23844.6 L-11018.9,20927.1 L-10587.2,21226 L-10196.7,21496.3 L-13659.2,26497.8 L-14049.7,26227.4 L-14090.9,26198.9"/>
</g>

<g fill="none" stroke="#000000" stroke-opacity="1" stroke-width="1" stroke-linecap="square" stroke-linejoin="bevel" transform="matrix(0.999992,0,0,-0.999992,33905.8,36266.8)"
font-family="MS Shell Dlg 2" font-size="10.3125" font-weight="400" font-style="normal" 
>
</g>

<g fill="none" stroke="#000000" stroke-opacity="1" stroke-width="1" stroke-linecap="square" stroke-linejoin="bevel" transform="matrix(0.999992,0,0,-0.999992,33905.8,36266.8)"
font-family="MS Shell Dlg 2" font-size="10.3125" font-weight="400" font-style="normal" 
>
</g>

<g fill="#ffff00" fill-opacity="0.2" stroke="#333333" stroke-opacity="1" stroke-width="1" stroke-linecap="round" stroke-linejoin="round" transform="matrix(0.999992,0,0,-0.999992,33905.8,36266.8)"
font-family="MS Shell Dlg 2" font-size="10.3125" font-weight="400" font-style="normal" 
>
<path vector-effect="non-scaling-stroke" fill-rule="evenodd" d="M-21789.1,10104.4 L-21791.9,10154.5 L-21818.8,10628.6 L-15791.5,10970.6 L-15764.5,10496.4 L-15734.8,9972.22 L-18510.8,9814.72 L-21762.2,9630.24 L-21789.1,10104.4 M-21789.1,10104.4 L-21762.2,9630.25 L-18510.8,9814.73 L-15734.8,9972.23 L-15764.6,10496.4 L-15791.5,10970.6 L-21818.8,10628.6 L-21791.9,10154.5 L-21789.1,10104.4"/>
</g>

<g fill="none" stroke="#000000" stroke-opacity="1" stroke-width="1" stroke-linecap="square" stroke-linejoin="bevel" transform="matrix(0.999992,0,0,-0.999992,33905.8,36266.8)"
font-family="MS Shell Dlg 2" font-size="10.3125" font-weight="400" font-style="normal" 
>
</g>

<g fill="none" stroke="#000000" stroke-opacity="1" stroke-width="1" stroke-linecap="square" stroke-linejoin="bevel" transform="matrix(0.999992,0,0,-0.999992,33905.8,36266.8)"
font-family="MS Shell Dlg 2" font-size="10.3125" font-weight="400" font-style="normal" 
>
</g>

<g fill="#ffff00" fill-opacity="0.2" stroke="#333333" stroke-opacity="1" stroke-width="1" stroke-linecap="round" stroke-linejoin="round" transform="matrix(0.999992,0,0,-0.999992,33905.8,36266.8)"
font-family="MS Shell Dlg 2" font-size="10.3125" font-weight="400" font-style="normal" 
>
<path vector-effect="non-scaling-stroke" fill-rule="evenodd" d="M-5685.35,-4396.45 L-5214.54,-4458.88 L-6240.48,-12196.2 L-6711.29,-12133.7 L-6761,-12127.2 L-7231.81,-12064.7 L-6205.87,-4327.43 L-5685.35,-4396.45 M-5685.35,-4396.46 L-6205.86,-4327.45 L-7231.8,-12064.7 L-6761,-12127.1 L-6711.29,-12133.7 L-6240.49,-12196.2 L-5214.56,-4458.89 L-5685.35,-4396.46"/>
</g>

<g fill="none" stroke="#000000" stroke-opacity="1" stroke-width="1" stroke-linecap="square" stroke-linejoin="bevel" transform="matrix(0.999992,0,0,-0.999992,33905.8,36266.8)"
font-family="MS Shell Dlg 2" font-size="10.3125" font-weight="400" font-style="normal" 
>
</g>

<g fill="none" stroke="#000000" stroke-opacity="1" stroke-width="1" stroke-linecap="square" stroke-linejoin="bevel" transform="matrix(0.999992,0,0,-0.999992,33905.8,36266.8)"
font-family="MS Shell Dlg 2" font-size="10.3125" font-weight="400" font-style="normal" 
>
</g>

<g fill="#ffff00" fill-opacity="0.2" stroke="#333333" stroke-opacity="1" stroke-width="1" stroke-linecap="round" stroke-linejoin="round" transform="matrix(0.999992,0,0,-0.999992,33905.8,36266.8)"
font-family="MS Shell Dlg 2" font-size="10.3125" font-weight="400" font-style="normal" 
>
<path vector-effect="non-scaling-stroke" fill-rule="evenodd" d="M6504.78,1589.19 L6572.53,1666.44 L6817.93,1946.25 L7164.15,2341.01 L12379.3,-2232.97 L12103.4,-2547.64 L12066.2,-2590.03 L12033.1,-2627.73 L11720,-2984.78 L6504.78,1589.19 M6504.79,1589.2 L11720,-2984.77 L12033.1,-2627.72 L12066.2,-2590.02 L12103.4,-2547.64 L12379.3,-2232.97 L7164.15,2340.99 L6817.94,1946.25 L6572.53,1666.43 L6504.79,1589.2"/>
</g>

<g fill="none" stroke="#000000" stroke-opacity="1" stroke-width="1" stroke-linecap="square" stroke-linejoin="bevel" transform="matrix(0.999992,0,0,-0.999992,33905.8,36266.8)"
font-family="MS Shell Dlg 2" font-size="10.3125" font-weight="400" font-style="normal" 
>
</g>

<g fill="none" stroke="#000000" stroke-opacity="1" stroke-width="1" stroke-linecap="square" stroke-linejoin="bevel" transform="matrix(0.999992,0,0,-0.999992,33905.8,36266.8)"
font-family="MS Shell Dlg 2" font-size="10.3125" font-weight="400" font-style="normal" 
>
</g>

<g fill="#ffff00" fill-opacity="0.2" stroke="#333333" stroke-opacity="1" stroke-width="1" stroke-linecap="round" stroke-linejoin="round" transform="matrix(0.999992,0,0,-0.999992,33905.8,36266.8)"
font-family="MS Shell Dlg 2" font-size="10.3125" font-weight="400" font-style="normal" 
>
<path vector-effect="non-scaling-stroke" fill-rule="evenodd" d="M-8719.87,-27642.7 L-8771.24,-27668.7 L-8798.28,-27682.4 L-8798.28,-27682.4 L-8798.29,-27682.4 L-8798.29,-27682.4 L-8798.29,-27682.4 L-8819.38,-27651.2 L-9219.99,-27058.9 L-33563.1,8935.64 L-33579.4,8959.76 L-33828.8,9328.45 L-33889.3,9417.94 L-33905.6,9442.05 L-33905.6,9442.06 L-33905.6,9442.06 L-33905.6,9442.06 L-33893.2,9467.81 L-33658.5,9956.89 L-33646.1,9982.63 L-25918.4,26082.1 L-24367.7,29312.7 L-22111.1,34014 L-21291.5,35721.4 L-21042.5,36240.2 L-21030.1,36266.1 L-21030,36266.1 L-21030,36266.1 L-21030,36266.1 L-20381.1,36207.1 L27688,31837.2 L27689.5,31837.1 L27728.6,31833.5 L28463.2,31766.7 L28540.8,31759.7 L28540.8,31759.7 L28540.8,31759.7 L28540.8,31759.7 L28540.8,31759.7 L28536.3,31727.1 L28484,31347.7 L28446.5,31076 L22614,-11209.3 L22536.3,-11772.9 L22532.2,-11802.6 L22532.2,-11802.6 L22532.2,-11802.6 L22508.2,-11814.8 L22051.6,-12046.2 L22032.4,-12055.9 L22027.6,-12058.3 L-8230.53,-27394.6 L-8257.56,-27408.4 L-8719.87,-27642.7 M-8719.88,-27642.7 L-8257.57,-27408.3 L-8230.53,-27394.6 L22027.6,-12058.3 L22032.4,-12055.9 L22051.6,-12046.2 L22508.2,-11814.8 L22532.2,-11802.6 L22536.3,-11772.9 L22614,-11209.3 L28446.5,31076 L28484,31347.7 L28536.3,31727.1 L28540.8,31759.7 L28463.2,31766.7 L27728.6,31833.5 L27689.5,31837 L27688,31837.2 L-20381.1,36207.1 L-21030,36266.1 L-21042.5,36240.2 L-21291.5,35721.4 L-22111,34014 L-24367.7,29312.7 L-25918.3,26082.1 L-33646.1,9982.63 L-33658.5,9956.88 L-33893.2,9467.8 L-33905.6,9442.06 L-33889.3,9417.95 L-33828.7,9328.46 L-33579.4,8959.76 L-33563.1,8935.65 L-9219.98,-27058.9 L-8819.37,-27651.2 L-8798.28,-27682.4 L-8771.25,-27668.7 L-8719.88,-27642.7"/>
</g>

<g fill="none" stroke="#000000" stroke-opacity="1" stroke-width="1" stroke-linecap="square" stroke-linejoin="bevel" transform="matrix(0.999992,0,0,-0.999992,33905.8,36266.8)"
font-family="MS Shell Dlg 2" font-size="10.3125" font-weight="400" font-style="normal" 
>
</g>

<g fill="none" stroke="#000000" stroke-opacity="1" stroke-width="1" stroke-linecap="square" stroke-linejoin="bevel" transform="matrix(0.999992,0,0,-0.999992,33905.8,36266.8)"
font-family="MS Shell Dlg 2" font-size="10.3125" font-weight="400" font-style="normal" 
>
</g>

<g fill="#ffff00" fill-opacity="0.2" stroke="#333333" stroke-opacity="1" stroke-width="1" stroke-linecap="round" stroke-linejoin="round" transform="matrix(0.999992,0,0,-0.999992,33905.8,36266.8)"
font-family="MS Shell Dlg 2" font-size="10.3125" font-weight="400" font-style="normal" 
>
<path vector-effect="non-scaling-stroke" fill-rule="evenodd" d="M-4023.56,7346.38 L-4175.81,7368.96 L-4395.43,7401.54 L-4760.11,7492.89 L-5114.08,7619.54 L-5453.93,7780.27 L-5776.39,7973.55 L-6078.35,8197.5 L-6356.9,8449.97 L-6609.37,8728.52 L-6833.32,9030.48 L-7026.59,9352.94 L-7187.33,9692.79 L-7313.98,10046.8 L-7405.33,10411.4 L-7460.49,10783.3 L-7467.06,10917.1 L-7478.94,11158.8 L-7464.97,11443 L-7460.49,11534.3 L-7405.33,11906.2 L-7313.98,12270.8 L-7187.33,12624.8 L-7026.59,12964.7 L-6833.32,13287.1 L-6609.37,13589.1 L-6356.9,13867.6 L-6078.35,14120.1 L-5847.26,14291.5 L-5776.39,14344 L-5453.93,14537.3 L-5397.42,14564 L-5114.08,14698.1 L-4760.11,14824.7 L-4395.43,14916.1 L-4023.56,14971.2 L-3648.07,14989.7 L-3272.58,14971.2 L-2900.7,14916.1 L-2536.03,14824.7 L-2182.06,14698.1 L-1842.21,14537.3 L-1519.75,14344 L-1217.79,14120.1 L-939.236,13867.6 L-720.374,13626.2 L-686.767,13589.1 L-462.818,13287.1 L-411.077,13200.8 L-269.544,12964.7 L-108.808,12624.8 L17.844,12270.8 L109.191,11906.2 L164.353,11534.3 L182.8,11158.8 L164.353,10783.3 L109.191,10411.4 L17.844,10046.8 L-108.808,9692.79 L-269.544,9352.94 L-462.818,9030.48 L-462.928,9030.33 L-686.767,8728.52 L-754.268,8654.05 L-787.85,8616.99 L-939.236,8449.97 L-1125.4,8281.23 L-1217.79,8197.5 L-1519.75,7973.55 L-1842.21,7780.27 L-2182.06,7619.54 L-2536.03,7492.89 L-2900.7,7401.54 L-3272.58,7346.38 L-3648.07,7327.93 L-3651.63,7328.1 L-4023.56,7346.38 M-4023.56,7346.39 L-3651.63,7328.11 L-3648.07,7327.94 L-3272.58,7346.39 L-2900.71,7401.55 L-2536.03,7492.9 L-2182.06,7619.55 L-1842.21,7780.28 L-1519.76,7973.56 L-1217.8,8197.5 L-1125.41,8281.24 L-939.243,8449.97 L-787.858,8617 L-754.275,8654.05 L-686.775,8728.53 L-462.936,9030.34 L-462.826,9030.49 L-269.553,9352.94 L-108.817,9692.79 L17.8344,10046.8 L109.181,10411.4 L164.343,10783.3 L182.79,11158.8 L164.343,11534.3 L109.181,11906.2 L17.8344,12270.8 L-108.817,12624.8 L-269.553,12964.7 L-411.086,13200.8 L-462.826,13287.1 L-686.775,13589.1 L-720.382,13626.1 L-939.243,13867.6 L-1217.8,14120.1 L-1519.76,14344 L-1842.21,14537.3 L-2182.06,14698.1 L-2536.03,14824.7 L-2900.71,14916 L-3272.58,14971.2 L-3648.07,14989.7 L-4023.56,14971.2 L-4395.43,14916 L-4760.11,14824.7 L-5114.07,14698.1 L-5397.42,14564 L-5453.92,14537.3 L-5776.38,14344 L-5847.25,14291.5 L-6078.34,14120.1 L-6356.89,13867.6 L-6609.36,13589.1 L-6833.31,13287.1 L-7026.58,12964.7 L-7187.32,12624.8 L-7313.97,12270.8 L-7405.32,11906.2 L-7460.48,11534.3 L-7464.96,11443 L-7478.93,11158.8 L-7467.05,10917.1 L-7460.48,10783.3 L-7405.32,10411.4 L-7313.97,10046.8 L-7187.32,9692.79 L-7026.58,9352.94 L-6833.31,9030.49 L-6609.36,8728.53 L-6356.89,8449.97 L-6078.34,8197.5 L-5776.38,7973.56 L-5453.92,7780.28 L-5114.07,7619.55 L-4760.11,7492.9 L-4395.43,7401.55 L-4175.81,7368.97 L-4023.56,7346.39"/>
</g>

<g fill="none" stroke="#000000" stroke-opacity="1" stroke-width="1" stroke-linecap="square" stroke-linejoin="bevel" transform="matrix(0.999992,0,0,-0.999992,33905.8,36266.8)"
font-family="MS Shell Dlg 2" font-size="10.3125" font-weight="400" font-style="normal" 
>
</g>

<g fill="none" stroke="#000000" stroke-opacity="1" stroke-width="1" stroke-linecap="square" stroke-linejoin="bevel" transform="matrix(0.999992,0,0,-0.999992,33905.8,36266.8)"
font-family="MS Shell Dlg 2" font-size="10.3125" font-weight="400" font-style="normal" 
>
</g>

<g fill="#ffff00" fill-opacity="0.2" stroke="#333333" stroke-opacity="1" stroke-width="1" stroke-linecap="round" stroke-linejoin="round" transform="matrix(0.999992,0,0,-0.999992,33905.8,36266.8)"
font-family="MS Shell Dlg 2" font-size="10.3125" font-weight="400" font-style="normal" 
>
<path vector-effect="non-scaling-stroke" fill-rule="evenodd" d="M9509.82,18986.2 L9226.78,19428.5 L8970.77,19828.5 L15382.9,23932.2 L15638.9,23532.2 L15665.9,23490 L15921.9,23090 L9509.82,18986.2 M9509.82,18986.2 L15921.9,23090 L15665.9,23490 L15638.9,23532.2 L15382.9,23932.2 L8970.78,19828.5 L9226.79,19428.5 L9509.82,18986.2"/>
</g>

<g fill="none" stroke="#000000" stroke-opacity="1" stroke-width="1" stroke-linecap="square" stroke-linejoin="bevel" transform="matrix(0.999992,0,0,-0.999992,33905.8,36266.8)"
font-family="MS Shell Dlg 2" font-size="10.3125" font-weight="400" font-style="normal" 
>
</g>

<g fill="none" stroke="#000000" stroke-opacity="1" stroke-width="1" stroke-linecap="square" stroke-linejoin="bevel" transform="matrix(0.999992,0,0,-0.999992,33905.8,36266.8)"
font-family="MS Shell Dlg 2" font-size="10.3125" font-weight="400" font-style="normal" 
>
</g>

<g fill="#ffff00" fill-opacity="0.2" stroke="#333333" stroke-opacity="1" stroke-width="1" stroke-linecap="round" stroke-linejoin="round" transform="matrix(0.999992,0,0,-0.999992,33905.8,36266.8)"
font-family="MS Shell Dlg 2" font-size="10.3125" font-weight="400" font-style="normal" 
>
<path vector-effect="non-scaling-stroke" fill-rule="evenodd" d="M-14090.9,26198.9 L-14049.7,26227.4 L-13659.2,26497.8 L-10196.7,21496.3 L-10587.2,21226 L-11018.9,20927.1 L-13038.7,23844.6 L-13279.2,24192 L-14481.4,25928.6 L-14090.9,26198.9 M-14090.9,26198.9 L-14481.4,25928.6 L-13279.1,24192 L-13038.7,23844.6 L-11018.9,20927.1 L-10587.2,21226 L-10196.7,21496.3 L-13659.2,26497.8 L-14049.7,26227.4 L-14090.9,26198.9"/>
</g>

<g fill="none" stroke="#000000" stroke-opacity="1" stroke-width="1" stroke-linecap="square" stroke-linejoin="bevel" transform="matrix(0.999992,0,0,-0.999992,33905.8,36266.8)"
font-family="MS Shell Dlg 2" font-size="10.3125" font-weight="400" font-style="normal" 
>
</g>

<g fill="none" stroke="#000000" stroke-opacity="1" stroke-width="1" stroke-linecap="square" stroke-linejoin="bevel" transform="matrix(0.999992,0,0,-0.999992,33905.8,36266.8)"
font-family="MS Shell Dlg 2" font-size="10.3125" font-weight="400" font-style="normal" 
>
</g>

<g fill="#ae5151" fill-opacity="0.2" stroke="#333333" stroke-opacity="1" stroke-width="1" stroke-linecap="round" stroke-linejoin="round" transform="matrix(0.999992,0,0,-0.999992,33905.8,36266.8)"
font-family="MS Shell Dlg 2" font-size="10.3125" font-weight="400" font-style="normal" 
>
<path vector-effect="non-scaling-stroke" fill-rule="evenodd" d="M-21789.1,10104.4 L-21791.9,10154.5 L-21818.8,10628.6 L-15791.5,10970.6 L-15764.5,10496.4 L-15734.8,9972.22 L-18510.8,9814.72 L-21762.2,9630.24 L-21789.1,10104.4 M-21789.1,10104.4 L-21762.2,9630.25 L-18510.8,9814.73 L-15734.8,9972.23 L-15764.6,10496.4 L-15791.5,10970.6 L-21818.8,10628.6 L-21791.9,10154.5 L-21789.1,10104.4"/>
</g>

<g fill="none" stroke="#000000" stroke-opacity="1" stroke-width="1" stroke-linecap="square" stroke-linejoin="bevel" transform="matrix(0.999992,0,0,-0.999992,33905.8,36266.8)"
font-family="MS Shell Dlg 2" font-size="10.3125" font-weight="400" font-style="normal" 
>
</g>

<g fill="none" stroke="#000000" stroke-opacity="1" stroke-width="1" stroke-linecap="square" stroke-linejoin="bevel" transform="matrix(0.999992,0,0,-0.999992,33905.8,36266.8)"
font-family="MS Shell Dlg 2" font-size="10.3125" font-weight="400" font-style="normal" 
>
</g>

<g fill="#ae5151" fill-opacity="0.2" stroke="#333333" stroke-opacity="1" stroke-width="1" stroke-linecap="round" stroke-linejoin="round" transform="matrix(0.999992,0,0,-0.999992,33905.8,36266.8)"
font-family="MS Shell Dlg 2" font-size="10.3125" font-weight="400" font-style="normal" 
>
<path vector-effect="non-scaling-stroke" fill-rule="evenodd" d="M-5685.35,-4396.45 L-5214.54,-4458.88 L-6240.48,-12196.2 L-6711.29,-12133.7 L-6761,-12127.2 L-7231.81,-12064.7 L-6205.87,-4327.43 L-5685.35,-4396.45 M-5685.35,-4396.46 L-6205.86,-4327.45 L-7231.8,-12064.7 L-6761,-12127.1 L-6711.29,-12133.7 L-6240.49,-12196.2 L-5214.56,-4458.89 L-5685.35,-4396.46"/>
</g>

<g fill="none" stroke="#000000" stroke-opacity="1" stroke-width="1" stroke-linecap="square" stroke-linejoin="bevel" transform="matrix(0.999992,0,0,-0.999992,33905.8,36266.8)"
font-family="MS Shell Dlg 2" font-size="10.3125" font-weight="400" font-style="normal" 
>
</g>

<g fill="none" stroke="#000000" stroke-opacity="1" stroke-width="1" stroke-linecap="square" stroke-linejoin="bevel" transform="matrix(0.999992,0,0,-0.999992,33905.8,36266.8)"
font-family="MS Shell Dlg 2" font-size="10.3125" font-weight="400" font-style="normal" 
>
</g>

<g fill="#ae5151" fill-opacity="0.2" stroke="#333333" stroke-opacity="1" stroke-width="1" stroke-linecap="round" stroke-linejoin="round" transform="matrix(0.999992,0,0,-0.999992,33905.8,36266.8)"
font-family="MS Shell Dlg 2" font-size="10.3125" font-weight="400" font-style="normal" 
>
<path vector-effect="non-scaling-stroke" fill-rule="evenodd" d="M6504.78,1589.19 L6572.53,1666.44 L6817.93,1946.25 L7164.15,2341.01 L12379.3,-2232.97 L12103.4,-2547.64 L12066.2,-2590.03 L12033.1,-2627.73 L11720,-2984.78 L6504.78,1589.19 M6504.79,1589.2 L11720,-2984.77 L12033.1,-2627.72 L12066.2,-2590.02 L12103.4,-2547.64 L12379.3,-2232.97 L7164.15,2340.99 L6817.94,1946.25 L6572.53,1666.43 L6504.79,1589.2"/>
</g>

<g fill="none" stroke="#000000" stroke-opacity="1" stroke-width="1" stroke-linecap="square" stroke-linejoin="bevel" transform="matrix(0.999992,0,0,-0.999992,33905.8,36266.8)"
font-family="MS Shell Dlg 2" font-size="10.3125" font-weight="400" font-style="normal" 
>
</g>

<g fill="none" stroke="#000000" stroke-opacity="1" stroke-width="1" stroke-linecap="square" stroke-linejoin="bevel" transform="matrix(0.999992,0,0,-0.999992,33905.8,36266.8)"
font-family="MS Shell Dlg 2" font-size="10.3125" font-weight="400" font-style="normal" 
>
</g>

<g fill="#ae5151" fill-opacity="0.2" stroke="#333333" stroke-opacity="1" stroke-width="1" stroke-linecap="round" stroke-linejoin="round" transform="matrix(0.999992,0,0,-0.999992,33905.8,36266.8)"
font-family="MS Shell Dlg 2" font-size="10.3125" font-weight="400" font-style="normal" 
>
<path vector-effect="non-scaling-stroke" fill-rule="evenodd" d="M-8719.87,-27642.7 L-8771.24,-27668.7 L-8798.28,-27682.4 L-8798.28,-27682.4 L-8798.29,-27682.4 L-8798.29,-27682.4 L-8798.29,-27682.4 L-8819.38,-27651.2 L-9219.99,-27058.9 L-33563.1,8935.64 L-33579.4,8959.76 L-33828.8,9328.45 L-33889.3,9417.94 L-33905.6,9442.05 L-33905.6,9442.06 L-33905.6,9442.06 L-33905.6,9442.06 L-33893.2,9467.81 L-33658.5,9956.89 L-33646.1,9982.63 L-25918.4,26082.1 L-24367.7,29312.7 L-22111.1,34014 L-21291.5,35721.4 L-21042.5,36240.2 L-21030.1,36266.1 L-21030,36266.1 L-21030,36266.1 L-21030,36266.1 L-20381.1,36207.1 L27688,31837.2 L27689.5,31837.1 L27728.6,31833.5 L28463.2,31766.7 L28540.8,31759.7 L28540.8,31759.7 L28540.8,31759.7 L28540.8,31759.7 L28540.8,31759.7 L28536.3,31727.1 L28484,31347.7 L28446.5,31076 L22614,-11209.3 L22536.3,-11772.9 L22532.2,-11802.6 L22532.2,-11802.6 L22532.2,-11802.6 L22508.2,-11814.8 L22051.6,-12046.2 L22032.4,-12055.9 L22027.6,-12058.3 L-8230.53,-27394.6 L-8257.56,-27408.4 L-8719.87,-27642.7 M-8719.88,-27642.7 L-8257.57,-27408.3 L-8230.53,-27394.6 L22027.6,-12058.3 L22032.4,-12055.9 L22051.6,-12046.2 L22508.2,-11814.8 L22532.2,-11802.6 L22536.3,-11772.9 L22614,-11209.3 L28446.5,31076 L28484,31347.7 L28536.3,31727.1 L28540.8,31759.7 L28463.2,31766.7 L27728.6,31833.5 L27689.5,31837 L27688,31837.2 L-20381.1,36207.1 L-21030,36266.1 L-21042.5,36240.2 L-21291.5,35721.4 L-22111,34014 L-24367.7,29312.7 L-25918.3,26082.1 L-33646.1,9982.63 L-33658.5,9956.88 L-33893.2,9467.8 L-33905.6,9442.06 L-33889.3,9417.95 L-33828.7,9328.46 L-33579.4,8959.76 L-33563.1,8935.65 L-9219.98,-27058.9 L-8819.37,-27651.2 L-8798.28,-27682.4 L-8771.25,-27668.7 L-8719.88,-27642.7"/>
</g>

<g fill="none" stroke="#000000" stroke-opacity="1" stroke-width="1" stroke-linecap="square" stroke-linejoin="bevel" transform="matrix(0.999992,0,0,-0.999992,33905.8,36266.8)"
font-family="MS Shell Dlg 2" font-size="10.3125" font-weight="400" font-style="normal" 
>
</g>

<g fill="none" stroke="#000000" stroke-opacity="1" stroke-width="1" stroke-linecap="square" stroke-linejoin="bevel" transform="matrix(0.999992,0,0,-0.999992,33905.8,36266.8)"
font-family="MS Shell Dlg 2" font-size="10.3125" font-weight="400" font-style="normal" 
>
</g>

<g fill="#ae5151" fill-opacity="0.2" stroke="#333333" stroke-opacity="1" stroke-width="1" stroke-linecap="round" stroke-linejoin="round" transform="matrix(0.999992,0,0,-0.999992,33905.8,36266.8)"
font-family="MS Shell Dlg 2" font-size="10.3125" font-weight="400" font-style="normal" 
>
<path vector-effect="non-scaling-stroke" fill-rule="evenodd" d="M-4023.56,7346.38 L-4175.81,7368.96 L-4395.43,7401.54 L-4760.11,7492.89 L-5114.08,7619.54 L-5453.93,7780.27 L-5776.39,7973.55 L-6078.35,8197.5 L-6356.9,8449.97 L-6609.37,8728.52 L-6833.32,9030.48 L-7026.59,9352.94 L-7187.33,9692.79 L-7313.98,10046.8 L-7405.33,10411.4 L-7460.49,10783.3 L-7467.06,10917.1 L-7478.94,11158.8 L-7464.97,11443 L-7460.49,11534.3 L-7405.33,11906.2 L-7313.98,12270.8 L-7187.33,12624.8 L-7026.59,12964.7 L-6833.32,13287.1 L-6609.37,13589.1 L-6356.9,13867.6 L-6078.35,14120.1 L-5847.26,14291.5 L-5776.39,14344 L-5453.93,14537.3 L-5397.42,14564 L-5114.08,14698.1 L-4760.11,14824.7 L-4395.43,14916.1 L-4023.56,14971.2 L-3648.07,14989.7 L-3272.58,14971.2 L-2900.7,14916.1 L-2536.03,14824.7 L-2182.06,14698.1 L-1842.21,14537.3 L-1519.75,14344 L-1217.79,14120.1 L-939.236,13867.6 L-720.374,13626.2 L-686.767,13589.1 L-462.818,13287.1 L-411.077,13200.8 L-269.544,12964.7 L-108.808,12624.8 L17.844,12270.8 L109.191,11906.2 L164.353,11534.3 L182.8,11158.8 L164.353,10783.3 L109.191,10411.4 L17.844,10046.8 L-108.808,9692.79 L-269.544,9352.94 L-462.818,9030.48 L-462.928,9030.33 L-686.767,8728.52 L-754.268,8654.05 L-787.85,8616.99 L-939.236,8449.97 L-1125.4,8281.23 L-1217.79,8197.5 L-1519.75,7973.55 L-1842.21,7780.27 L-2182.06,7619.54 L-2536.03,7492.89 L-2900.7,7401.54 L-3272.58,7346.38 L-3648.07,7327.93 L-3651.63,7328.1 L-4023.56,7346.38 M-4023.56,7346.39 L-3651.63,7328.11 L-3648.07,7327.94 L-3272.58,7346.39 L-2900.71,7401.55 L-2536.03,7492.9 L-2182.06,7619.55 L-1842.21,7780.28 L-1519.76,7973.56 L-1217.8,8197.5 L-1125.41,8281.24 L-939.243,8449.97 L-787.858,8617 L-754.275,8654.05 L-686.775,8728.53 L-462.936,9030.34 L-462.826,9030.49 L-269.553,9352.94 L-108.817,9692.79 L17.8344,10046.8 L109.181,10411.4 L164.343,10783.3 L182.79,11158.8 L164.343,11534.3 L109.181,11906.2 L17.8344,12270.8 L-108.817,12624.8 L-269.553,12964.7 L-411.086,13200.8 L-462.826,13287.1 L-686.775,13589.1 L-720.382,13626.1 L-939.243,13867.6 L-1217.8,14120.1 L-1519.76,14344 L-1842.21,14537.3 L-2182.06,14698.1 L-2536.03,14824.7 L-2900.71,14916 L-3272.58,14971.2 L-3648.07,14989.7 L-4023.56,14971.2 L-4395.43,14916 L-4760.11,14824.7 L-5114.07,14698.1 L-5397.42,14564 L-5453.92,14537.3 L-5776.38,14344 L-5847.25,14291.5 L-6078.34,14120.1 L-6356.89,13867.6 L-6609.36,13589.1 L-6833.31,13287.1 L-7026.58,12964.7 L-7187.32,12624.8 L-7313.97,12270.8 L-7405.32,11906.2 L-7460.48,11534.3 L-7464.96,11443 L-7478.93,11158.8 L-7467.05,10917.1 L-7460.48,10783.3 L-7405.32,10411.4 L-7313.97,10046.8 L-7187.32,9692.79 L-7026.58,9352.94 L-6833.31,9030.49 L-6609.36,8728.53 L-6356.89,8449.97 L-6078.34,8197.5 L-5776.38,7973.56 L-5453.92,7780.28 L-5114.07,7619.55 L-4760.11,7492.9 L-4395.43,7401.55 L-4175.81,7368.97 L-4023.56,7346.39"/>
</g>

<g fill="none" stroke="#000000" stroke-opacity="1" stroke-width="1" stroke-linecap="square" stroke-linejoin="bevel" transform="matrix(0.999992,0,0,-0.999992,33905.8,36266.8)"
font-family="MS Shell Dlg 2" font-size="10.3125" font-weight="400" font-style="normal" 
>
</g>

<g fill="none" stroke="#000000" stroke-opacity="1" stroke-width="1" stroke-linecap="square" stroke-linejoin="bevel" transform="matrix(0.999992,0,0,-0.999992,33905.8,36266.8)"
font-family="MS Shell Dlg 2" font-size="10.3125" font-weight="400" font-style="normal" 
>
</g>

<g fill="#ae5151" fill-opacity="0.2" stroke="#333333" stroke-opacity="1" stroke-width="1" stroke-linecap="round" stroke-linejoin="round" transform="matrix(0.999992,0,0,-0.999992,33905.8,36266.8)"
font-family="MS Shell Dlg 2" font-size="10.3125" font-weight="400" font-style="normal" 
>
<path vector-effect="non-scaling-stroke" fill-rule="evenodd" d="M9509.82,18986.2 L9226.78,19428.5 L8970.77,19828.5 L15382.9,23932.2 L15638.9,23532.2 L15665.9,23490 L15921.9,23090 L9509.82,18986.2 M9509.82,18986.2 L15921.9,23090 L15665.9,23490 L15638.9,23532.2 L15382.9,23932.2 L8970.78,19828.5 L9226.79,19428.5 L9509.82,18986.2"/>
</g>

<g fill="none" stroke="#000000" stroke-opacity="1" stroke-width="1" stroke-linecap="square" stroke-linejoin="bevel" transform="matrix(0.999992,0,0,-0.999992,33905.8,36266.8)"
font-family="MS Shell Dlg 2" font-size="10.3125" font-weight="400" font-style="normal" 
>
</g>

<g fill="none" stroke="#000000" stroke-opacity="1" stroke-width="1" stroke-linecap="square" stroke-linejoin="bevel" transform="matrix(0.999992,0,0,-0.999992,33905.8,36266.8)"
font-family="MS Shell Dlg 2" font-size="10.3125" font-weight="400" font-style="normal" 
>
</g>

<g fill="#ae5151" fill-opacity="0.2" stroke="#333333" stroke-opacity="1" stroke-width="1" stroke-linecap="round" stroke-linejoin="round" transform="matrix(0.999992,0,0,-0.999992,33905.8,36266.8)"
font-family="MS Shell Dlg 2" font-size="10.3125" font-weight="400" font-style="normal" 
>
<path vector-effect="non-scaling-stroke" fill-rule="evenodd" d="M-14090.9,26198.9 L-14049.7,26227.4 L-13659.2,26497.8 L-10196.7,21496.3 L-10587.2,21226 L-11018.9,20927.1 L-13038.7,23844.6 L-13279.2,24192 L-14481.4,25928.6 L-14090.9,26198.9 M-14090.9,26198.9 L-14481.4,25928.6 L-13279.1,24192 L-13038.7,23844.6 L-11018.9,20927.1 L-10587.2,21226 L-10196.7,21496.3 L-13659.2,26497.8 L-14049.7,26227.4 L-14090.9,26198.9"/>
</g>

<g fill="none" stroke="#000000" stroke-opacity="1" stroke-width="1" stroke-linecap="square" stroke-linejoin="bevel" transform="matrix(0.999992,0,0,-0.999992,33905.8,36266.8)"
font-family="MS Shell Dlg 2" font-size="10.3125" font-weight="400" font-style="normal" 
>
</g>

<g fill="none" stroke="#000000" stroke-opacity="1" stroke-width="1" stroke-linecap="square" stroke-linejoin="bevel" transform="matrix(0.999992,0,0,-0.999992,33905.8,36266.8)"
font-family="MS Shell Dlg 2" font-size="10.3125" font-weight="400" font-style="normal" 
>
</g>

<g fill="#333333" fill-opacity="0.2" stroke="#333333" stroke-opacity="1" stroke-width="1" stroke-linecap="round" stroke-linejoin="round" transform="matrix(0.999992,0,0,-0.999992,33905.8,36266.8)"
font-family="MS Shell Dlg 2" font-size="10.3125" font-weight="400" font-style="normal" 
>
<path vector-effect="non-scaling-stroke" fill-rule="evenodd" d="M-21789.1,10104.4 L-21791.9,10154.5 L-21818.8,10628.6 L-15791.5,10970.6 L-15764.5,10496.4 L-15734.8,9972.22 L-18510.8,9814.72 L-21762.2,9630.24 L-21789.1,10104.4 M-21789.1,10104.4 L-21762.2,9630.25 L-18510.8,9814.73 L-15734.8,9972.23 L-15764.6,10496.4 L-15791.5,10970.6 L-21818.8,10628.6 L-21791.9,10154.5 L-21789.1,10104.4"/>
</g>

<g fill="none" stroke="#000000" stroke-opacity="1" stroke-width="1" stroke-linecap="square" stroke-linejoin="bevel" transform="matrix(0.999992,0,0,-0.999992,33905.8,36266.8)"
font-family="MS Shell Dlg 2" font-size="10.3125" font-weight="400" font-style="normal" 
>
</g>

<g fill="none" stroke="#000000" stroke-opacity="1" stroke-width="1" stroke-linecap="square" stroke-linejoin="bevel" transform="matrix(0.999992,0,0,-0.999992,33905.8,36266.8)"
font-family="MS Shell Dlg 2" font-size="10.3125" font-weight="400" font-style="normal" 
>
</g>

<g fill="#333333" fill-opacity="0.2" stroke="#333333" stroke-opacity="1" stroke-width="1" stroke-linecap="round" stroke-linejoin="round" transform="matrix(0.999992,0,0,-0.999992,33905.8,36266.8)"
font-family="MS Shell Dlg 2" font-size="10.3125" font-weight="400" font-style="normal" 
>
<path vector-effect="non-scaling-stroke" fill-rule="evenodd" d="M-5685.35,-4396.45 L-5214.54,-4458.88 L-6240.48,-12196.2 L-6711.29,-12133.7 L-6761,-12127.2 L-7231.81,-12064.7 L-6205.87,-4327.43 L-5685.35,-4396.45 M-5685.35,-4396.46 L-6205.86,-4327.45 L-7231.8,-12064.7 L-6761,-12127.1 L-6711.29,-12133.7 L-6240.49,-12196.2 L-5214.56,-4458.89 L-5685.35,-4396.46"/>
</g>

<g fill="none" stroke="#000000" stroke-opacity="1" stroke-width="1" stroke-linecap="square" stroke-linejoin="bevel" transform="matrix(0.999992,0,0,-0.999992,33905.8,36266.8)"
font-family="MS Shell Dlg 2" font-size="10.3125" font-weight="400" font-style="normal" 
>
</g>

<g fill="none" stroke="#000000" stroke-opacity="1" stroke-width="1" stroke-linecap="square" stroke-linejoin="bevel" transform="matrix(0.999992,0,0,-0.999992,33905.8,36266.8)"
font-family="MS Shell Dlg 2" font-size="10.3125" font-weight="400" font-style="normal" 
>
</g>

<g fill="#333333" fill-opacity="0.2" stroke="#333333" stroke-opacity="1" stroke-width="1" stroke-linecap="round" stroke-linejoin="round" transform="matrix(0.999992,0,0,-0.999992,33905.8,36266.8)"
font-family="MS Shell Dlg 2" font-size="10.3125" font-weight="400" font-style="normal" 
>
<path vector-effect="non-scaling-stroke" fill-rule="evenodd" d="M6504.78,1589.19 L6572.53,1666.44 L6817.93,1946.25 L7164.15,2341.01 L12379.3,-2232.97 L12103.4,-2547.64 L12066.2,-2590.03 L12033.1,-2627.73 L11720,-2984.78 L6504.78,1589.19 M6504.79,1589.2 L11720,-2984.77 L12033.1,-2627.72 L12066.2,-2590.02 L12103.4,-2547.64 L12379.3,-2232.97 L7164.15,2340.99 L6817.94,1946.25 L6572.53,1666.43 L6504.79,1589.2"/>
</g>

<g fill="none" stroke="#000000" stroke-opacity="1" stroke-width="1" stroke-linecap="square" stroke-linejoin="bevel" transform="matrix(0.999992,0,0,-0.999992,33905.8,36266.8)"
font-family="MS Shell Dlg 2" font-size="10.3125" font-weight="400" font-style="normal" 
>
</g>

<g fill="none" stroke="#000000" stroke-opacity="1" stroke-width="1" stroke-linecap="square" stroke-linejoin="bevel" transform="matrix(0.999992,0,0,-0.999992,33905.8,36266.8)"
font-family="MS Shell Dlg 2" font-size="10.3125" font-weight="400" font-style="normal" 
>
</g>

<g fill="#333333" fill-opacity="0.2" stroke="#333333" stroke-opacity="1" stroke-width="1" stroke-linecap="round" stroke-linejoin="round" transform="matrix(0.999992,0,0,-0.999992,33905.8,36266.8)"
font-family="MS Shell Dlg 2" font-size="10.3125" font-weight="400" font-style="normal" 
>
<path vector-effect="non-scaling-stroke" fill-rule="evenodd" d="M-8719.87,-27642.7 L-8771.24,-27668.7 L-8798.28,-27682.4 L-8798.28,-27682.4 L-8798.29,-27682.4 L-8798.29,-27682.4 L-8798.29,-27682.4 L-8819.38,-27651.2 L-9219.99,-27058.9 L-33563.1,8935.64 L-33579.4,8959.76 L-33828.8,9328.45 L-33889.3,9417.94 L-33905.6,9442.05 L-33905.6,9442.06 L-33905.6,9442.06 L-33905.6,9442.06 L-33893.2,9467.81 L-33658.5,9956.89 L-33646.1,9982.63 L-25918.4,26082.1 L-24367.7,29312.7 L-22111.1,34014 L-21291.5,35721.4 L-21042.5,36240.2 L-21030.1,36266.1 L-21030,36266.1 L-21030,36266.1 L-21030,36266.1 L-20381.1,36207.1 L27688,31837.2 L27689.5,31837.1 L27728.6,31833.5 L28463.2,31766.7 L28540.8,31759.7 L28540.8,31759.7 L28540.8,31759.7 L28540.8,31759.7 L28540.8,31759.7 L28536.3,31727.1 L28484,31347.7 L28446.5,31076 L22614,-11209.3 L22536.3,-11772.9 L22532.2,-11802.6 L22532.2,-11802.6 L22532.2,-11802.6 L22508.2,-11814.8 L22051.6,-12046.2 L22032.4,-12055.9 L22027.6,-12058.3 L-8230.53,-27394.6 L-8257.56,-27408.4 L-8719.87,-27642.7 M-8719.88,-27642.7 L-8257.57,-27408.3 L-8230.53,-27394.6 L22027.6,-12058.3 L22032.4,-12055.9 L22051.6,-12046.2 L22508.2,-11814.8 L22532.2,-11802.6 L22536.3,-11772.9 L22614,-11209.3 L28446.5,31076 L28484,31347.7 L28536.3,31727.1 L28540.8,31759.7 L28463.2,31766.7 L27728.6,31833.5 L27689.5,31837 L27688,31837.2 L-20381.1,36207.1 L-21030,36266.1 L-21042.5,36240.2 L-21291.5,35721.4 L-22111,34014 L-24367.7,29312.7 L-25918.3,26082.1 L-33646.1,9982.63 L-33658.5,9956.88 L-33893.2,9467.8 L-33905.6,9442.06 L-33889.3,9417.95 L-33828.7,9328.46 L-33579.4,8959.76 L-33563.1,8935.65 L-9219.98,-27058.9 L-8819.37,-27651.2 L-8798.28,-27682.4 L-8771.25,-27668.7 L-8719.88,-27642.7"/>
</g>

<g fill="none" stroke="#000000" stroke-opacity="1" stroke-width="1" stroke-linecap="square" stroke-linejoin="bevel" transform="matrix(0.999992,0,0,-0.999992,33905.8,36266.8)"
font-family="MS Shell Dlg 2" font-size="10.3125" font-weight="400" font-style="normal" 
>
</g>

<g fill="none" stroke="#000000" stroke-opacity="1" stroke-width="1" stroke-linecap="square" stroke-linejoin="bevel" transform="matrix(0.999992,0,0,-0.999992,33905.8,36266.8)"
font-family="MS Shell Dlg 2" font-size="10.3125" font-weight="400" font-style="normal" 
>
</g>

<g fill="#333333" fill-opacity="0.2" stroke="#333333" stroke-opacity="1" stroke-width="1" stroke-linecap="round" stroke-linejoin="round" transform="matrix(0.999992,0,0,-0.999992,33905.8,36266.8)"
font-family="MS Shell Dlg 2" font-size="10.3125" font-weight="400" font-style="normal" 
>
<path vector-effect="non-scaling-stroke" fill-rule="evenodd" d="M-4023.56,7346.38 L-4175.81,7368.96 L-4395.43,7401.54 L-4760.11,7492.89 L-5114.08,7619.54 L-5453.93,7780.27 L-5776.39,7973.55 L-6078.35,8197.5 L-6356.9,8449.97 L-6609.37,8728.52 L-6833.32,9030.48 L-7026.59,9352.94 L-7187.33,9692.79 L-7313.98,10046.8 L-7405.33,10411.4 L-7460.49,10783.3 L-7467.06,10917.1 L-7478.94,11158.8 L-7464.97,11443 L-7460.49,11534.3 L-7405.33,11906.2 L-7313.98,12270.8 L-7187.33,12624.8 L-7026.59,12964.7 L-6833.32,13287.1 L-6609.37,13589.1 L-6356.9,13867.6 L-6078.35,14120.1 L-5847.26,14291.5 L-5776.39,14344 L-5453.93,14537.3 L-5397.42,14564 L-5114.08,14698.1 L-4760.11,14824.7 L-4395.43,14916.1 L-4023.56,14971.2 L-3648.07,14989.7 L-3272.58,14971.2 L-2900.7,14916.1 L-2536.03,14824.7 L-2182.06,14698.1 L-1842.21,14537.3 L-1519.75,14344 L-1217.79,14120.1 L-939.236,13867.6 L-720.374,13626.2 L-686.767,13589.1 L-462.818,13287.1 L-411.077,13200.8 L-269.544,12964.7 L-108.808,12624.8 L17.844,12270.8 L109.191,11906.2 L164.353,11534.3 L182.8,11158.8 L164.353,10783.3 L109.191,10411.4 L17.844,10046.8 L-108.808,9692.79 L-269.544,9352.94 L-462.818,9030.48 L-462.928,9030.33 L-686.767,8728.52 L-754.268,8654.05 L-787.85,8616.99 L-939.236,8449.97 L-1125.4,8281.23 L-1217.79,8197.5 L-1519.75,7973.55 L-1842.21,7780.27 L-2182.06,7619.54 L-2536.03,7492.89 L-2900.7,7401.54 L-3272.58,7346.38 L-3648.07,7327.93 L-3651.63,7328.1 L-4023.56,7346.38 M-4023.56,7346.39 L-3651.63,7328.11 L-3648.07,7327.94 L-3272.58,7346.39 L-2900.71,7401.55 L-2536.03,7492.9 L-2182.06,7619.55 L-1842.21,7780.28 L-1519.76,7973.56 L-1217.8,8197.5 L-1125.41,8281.24 L-939.243,8449.97 L-787.858,8617 L-754.275,8654.05 L-686.775,8728.53 L-462.936,9030.34 L-462.826,9030.49 L-269.553,9352.94 L-108.817,9692.79 L17.8344,10046.8 L109.181,10411.4 L164.343,10783.3 L182.79,11158.8 L164.343,11534.3 L109.181,11906.2 L17.8344,12270.8 L-108.817,12624.8 L-269.553,12964.7 L-411.086,13200.8 L-462.826,13287.1 L-686.775,13589.1 L-720.382,13626.1 L-939.243,13867.6 L-1217.8,14120.1 L-1519.76,14344 L-1842.21,14537.3 L-2182.06,14698.1 L-2536.03,14824.7 L-2900.71,14916 L-3272.58,14971.2 L-3648.07,14989.7 L-4023.56,14971.2 L-4395.43,14916 L-4760.11,14824.7 L-5114.07,14698.1 L-5397.42,14564 L-5453.92,14537.3 L-5776.38,14344 L-5847.25,14291.5 L-6078.34,14120.1 L-6356.89,13867.6 L-6609.36,13589.1 L-6833.31,13287.1 L-7026.58,12964.7 L-7187.32,12624.8 L-7313.97,12270.8 L-7405.32,11906.2 L-7460.48,11534.3 L-7464.96,11443 L-7478.93,11158.8 L-7467.05,10917.1 L-7460.48,10783.3 L-7405.32,10411.4 L-7313.97,10046.8 L-7187.32,9692.79 L-7026.58,9352.94 L-6833.31,9030.49 L-6609.36,8728.53 L-6356.89,8449.97 L-6078.34,8197.5 L-5776.38,7973.56 L-5453.92,7780.28 L-5114.07,7619.55 L-4760.11,7492.9 L-4395.43,7401.55 L-4175.81,7368.97 L-4023.56,7346.39"/>
</g>

<g fill="none" stroke="#000000" stroke-opacity="1" stroke-width="1" stroke-linecap="square" stroke-linejoin="bevel" transform="matrix(0.999992,0,0,-0.999992,33905.8,36266.8)"
font-family="MS Shell Dlg 2" font-size="10.3125" font-weight="400" font-style="normal" 
>
</g>

<g fill="none" stroke="#000000" stroke-opacity="1" stroke-width="1" stroke-linecap="square" stroke-linejoin="bevel" transform="matrix(0.999992,0,0,-0.999992,33905.8,36266.8)"
font-family="MS Shell Dlg 2" font-size="10.3125" font-weight="400" font-style="normal" 
>
</g>

<g fill="#333333" fill-opacity="0.2" stroke="#333333" stroke-opacity="1" stroke-width="1" stroke-linecap="round" stroke-linejoin="round" transform="matrix(0.999992,0,0,-0.999992,33905.8,36266.8)"
font-family="MS Shell Dlg 2" font-size="10.3125" font-weight="400" font-style="normal" 
>
<path vector-effect="non-scaling-stroke" fill-rule="evenodd" d="M9509.82,18986.2 L9226.78,19428.5 L8970.77,19828.5 L15382.9,23932.2 L15638.9,23532.2 L15665.9,23490 L15921.9,23090 L9509.82,18986.2 M9509.82,18986.2 L15921.9,23090 L15665.9,23490 L15638.9,23532.2 L15382.9,23932.2 L8970.78,19828.5 L9226.79,19428.5 L9509.82,18986.2"/>
</g>

<g fill="none" stroke="#000000" stroke-opacity="1" stroke-width="1" stroke-linecap="square" stroke-linejoin="bevel" transform="matrix(0.999992,0,0,-0.999992,33905.8,36266.8)"
font-family="MS Shell Dlg 2" font-size="10.3125" font-weight="400" font-style="normal" 
>
</g>

<g fill="none" stroke="#000000" stroke-opacity="1" stroke-width="1" stroke-linecap="square" stroke-linejoin="bevel" transform="matrix(0.999992,0,0,-0.999992,33905.8,36266.8)"
font-family="MS Shell Dlg 2" font-size="10.3125" font-weight="400" font-style="normal" 
>
</g>

<g fill="#333333" fill-opacity="0.2" stroke="#333333" stroke-opacity="1" stroke-width="1" stroke-linecap="round" stroke-linejoin="round" transform="matrix(0.999992,0,0,-0.999992,33905.8,36266.8)"
font-family="MS Shell Dlg 2" font-size="10.3125" font-weight="400" font-style="normal" 
>
<path vector-effect="non-scaling-stroke" fill-rule="evenodd" d="M-14090.9,26198.9 L-14049.7,26227.4 L-13659.2,26497.8 L-10196.7,21496.3 L-10587.2,21226 L-11018.9,20927.1 L-13038.7,23844.6 L-13279.2,24192 L-14481.4,25928.6 L-14090.9,26198.9 M-14090.9,26198.9 L-14481.4,25928.6 L-13279.1,24192 L-13038.7,23844.6 L-11018.9,20927.1 L-10587.2,21226 L-10196.7,21496.3 L-13659.2,26497.8 L-14049.7,26227.4 L-14090.9,26198.9"/>
</g>

<g fill="none" stroke="#000000" stroke-opacity="1" stroke-width="1" stroke-linecap="square" stroke-linejoin="bevel" transform="matrix(0.999992,0,0,-0.999992,33905.8,36266.8)"
font-family="MS Shell Dlg 2" font-size="10.3125" font-weight="400" font-style="normal" 
>
</g>

<g fill="none" stroke="#000000" stroke-opacity="1" stroke-width="1" stroke-linecap="square" stroke-linejoin="bevel" transform="matrix(1,0,0,-1,0,63949.5)"
font-family="MS Shell Dlg 2" font-size="10.3125" font-weight="400" font-style="normal" 
>
</g>
</g>
</svg>
