<?xml version="1.0" encoding="UTF-8" standalone="no"?>
<svg width="20446.2mm" height="20870.1mm"
 xmlns="http://www.w3.org/2000/svg" xmlns:xlink="http://www.w3.org/1999/xlink"  version="1.2" baseProfile="tiny">
<title>SVG Generator Example Drawing</title>
<desc>An SVG drawing created by the SVG Generator</desc>
<defs>
</defs>
<g fill="none" stroke="black" stroke-width="1" fill-rule="evenodd" stroke-linecap="square" stroke-linejoin="bevel" >

<g fill="none" stroke="#000000" stroke-opacity="1" stroke-width="1" stroke-linecap="square" stroke-linejoin="bevel" transform="matrix(1,0,0,-1,0,73949.5)"
font-family="MS Shell Dlg 2" font-size="10.3125" font-weight="400" font-style="normal" 
>
</g>

<g fill="none" stroke="#000000" stroke-opacity="1" stroke-width="1" stroke-linecap="square" stroke-linejoin="bevel" transform="matrix(1,0,0,-1,0,73949.5)"
font-family="MS Shell Dlg 2" font-size="10.3125" font-weight="400" font-style="normal" 
>
</g>

<g fill="none" stroke="#000000" stroke-opacity="1" stroke-width="1" stroke-linecap="square" stroke-linejoin="bevel" transform="matrix(0.999993,0,0,-0.999993,38905.8,41266.8)"
font-family="MS Shell Dlg 2" font-size="10.3125" font-weight="400" font-style="normal" 
>
</g>

<g fill="#333333" fill-opacity="0.2" stroke="#333333" stroke-opacity="1" stroke-width="1" stroke-linecap="round" stroke-linejoin="round" transform="matrix(0.999993,0,0,-0.999993,38905.8,41266.8)"
font-family="MS Shell Dlg 2" font-size="10.3125" font-weight="400" font-style="normal" 
>
<path vector-effect="non-scaling-stroke" fill-rule="evenodd" d="M-38905.6,-32682.4 L-38905.6,41266.1 L33540.8,41266.1 L33540.8,-32682.4 L-38905.6,-32682.4 M22051.6,-12046.2 L21548,-12301.4 L21848.9,-12565.3 L22190.3,-12761.6 L22581,-12810.9 L22960.5,-12705.5 L22983.3,-12693.9 L23345.5,-12382.4 L23521.9,-11938.4 L23525.9,-11909.4 L23603.6,-11346.4 L23594.5,-11018.6 L23480,-10711.5 L23272.3,-10457.8 L22777.5,-10023.9 L22614,-11209.3 L17594.5,-6806.95 L17281.4,-7164.01 L17281.3,-7164 L12066.2,-2590.15 L12066.2,-2590.03 L12379.3,-2232.97 L11732.2,-1665.43 L11732.1,-1665.59 L11731.8,-1665.75 L11624,-1694.62 L11314.4,-1932.19 L11282.1,-1969.01 L10969.6,-2325.24 L10969.2,-2326.04 L10969,-2326.18 L16987.3,-7604.5 L17300.5,-7247.44 L17300.6,-7247.46 L22508.2,-11814.8 L22051.6,-12046.2 M-7690.8,-27121.1 L-8257.57,-27408.3 L-8771.25,-27668.7 L-7747.58,-19948.5 L-7747.49,-19948.4 L-7276.68,-20010.8 L-6109.19,-11206 L-6109.39,-11206 L-6110.26,-11205.7 L-6579.98,-11143.4 L-6628.52,-11137 L-7017.95,-11162.1 L-7118.1,-11211.4 L-7118.51,-11211.5 L-7118.67,-11211.5 L-7231.81,-12064.7 L-6761,-12127.2 L-6760.94,-12127.3 L-7786.85,-19864.3 L-7786.94,-19864.4 L-8257.75,-19802 L-9219.98,-27058.9 L-10062.5,-25813 L-10210.3,-26927.1 L-10192.3,-27288 L-10047.2,-27618.9 L-9646.89,-28210.9 L-9626.35,-28241.3 L-9374.76,-28498 L-9048.76,-28649.1 L-8690.36,-28675.3 L-8345.77,-28573 L-8320.18,-28560.1 L-7956.47,-28246.5 L-7780.85,-27799.5 L-7690.8,-27121.1 M-5214.41,-4457.89 L-4178.35,3355.78 L-4649.15,3418.21 L-4649.21,3418.33 L-4126.47,7360.63 L-4175.95,7367.97 L-4395.58,7400.55 L-4395.68,7400.57 L-4642.57,7462.41 L-5179.93,3409.86 L-4709.12,3347.43 L-4709.06,3347.31 L-5734.86,-4388.88 L-5685.22,-4395.46 L-5214.41,-4457.89 M-1525.8,7969.92 L-1519.75,7973.55 L-1217.79,8197.5 L-939.236,8449.97 L-787.85,8616.99 L1550.56,6566.09 L1550.59,6565.97 L1237.43,6208.91 L7255.71,930.593 L7255.83,930.742 L7256.56,931.303 L7323.59,1007.72 L7568.99,1287.54 L7601.29,1324.35 L7796.42,1662.3 L7811,1772.95 L7811.15,1773.35 L7811.26,1773.46 L7164.15,2341.01 L6851,1983.95 L6850.88,1983.96 L1635.83,6557.81 L1635.81,6557.93 L1948.96,6914.99 L-462.928,9030.33 L-462.818,9030.48 L-269.544,9352.94 L-108.808,9692.79 L-31.3623,9909.23 L-31.5241,9909.28 L-160.74,9982.14 L-568.898,10023.2 L-959.197,9896.92 L-1266.03,9624.49 L-1459.94,9363.05 L-1460,9362.98 L-1494.48,9324.93 L-1527.31,9288.71 L-1729.29,8950.19 L-1784.78,8560.03 L-1685.21,8178.73 L-1525.85,7970.02 L-1525.8,7969.92 M-32927.7,7996.13 L-33579.4,8959.76 L-27789.6,9288.26 L-27816.5,9762.43 L-27816.4,9762.5 L-21789.2,10104.5 L-21789.1,10104.4 L-21762.2,9630.24 L-20902.9,9679 L-20902.9,9679.16 L-20902.7,9679.56 L-20846.1,9775.69 L-20791.8,10162.2 L-20794.5,10211.1 L-20821.4,10684.1 L-20821.6,10685 L-20821.6,10685.2 L-27906.5,10283.2 L-27879.6,9809.07 L-27879.7,9808.99 L-33893.2,9467.8 L-33646.1,9982.63 L-33399.5,10496.4 L-33949.1,10465.2 L-34293.2,10383.1 L-34587.1,10186.3 L-34794.1,9899.49 L-34805.9,9874.95 L-34899.4,9542.11 L-34874,9197.41 L-34732.7,8881.86 L-34716.8,8858.29 L-34656.3,8768.8 L-34407.3,8400.65 L-34169.5,8153.88 L-33862.5,8001.88 L-33522.2,7962.4 L-32927.7,7996.13 M-16594.1,9923.46 L-15734.8,9972.22 L-15761.7,10446.4 L-15761.6,10446.5 L-9734.4,10788.4 L-9734.32,10788.4 L-9707.41,10314.2 L-7410.24,10444.5 L-7405.33,10411.4 L-7313.98,10046.8 L-7187.33,9692.79 L-7103.3,9515.12 L-7103.14,9515.21 L-6956.71,9554.84 L-6636,9814.03 L-6447.13,10180.6 L-6422.23,10592.3 L-6465.1,10881.3 L-6465.11,10881.4 L-6469.27,10966.1 L-6471.66,11014.9 L-6567.25,11395.1 L-6801.56,11709.3 L-7138.6,11909.3 L-7395.31,11945.7 L-7395.41,11945.8 L-7405.33,11906.2 L-7460.49,11534.3 L-7478.94,11158.8 L-7469.52,10967 L-9676.79,10841.8 L-9676.88,10841.8 L-9703.78,11316 L-16788.7,10914 L-16788.7,10913.8 L-16788.8,10912.9 L-16761.9,10439.9 L-16759.2,10391 L-16661.5,10013.2 L-16594.3,9924.01 L-16594.1,9923.62 L-16594.1,9923.46 M-21776.5,34710.9 L-21279,35747.3 L-17944,30930 L-17553.5,31200.4 L-17553.4,31200.3 L-14090.9,26199 L-14090.9,26198.9 L-14481.4,25928.6 L-13991.5,25220.9 L-13991.4,25221 L-13990.9,25221.1 L-13879.4,25222.9 L-13521.3,25378.2 L-13481.1,25406.1 L-13091.5,25675.8 L-13090.9,25676.4 L-13090.7,25676.6 L-17156.4,31549.2 L-17546.9,31278.9 L-17547,31278.9 L-20997.6,36263.1 L-20381.1,36207.1 L-19700.9,36145.3 L-20175.9,36831.3 L-20494.4,37126 L-20907.7,37258.1 L-20938.8,37260.9 L-21338.3,37216.1 L-21687.8,37017.7 L-21931,36697.7 L-21943.1,36672.5 L-22179.4,36180.2 L-22273.2,35843.8 L-22245.7,35495.7 L-22100,35178.2 L-21776.5,34710.9 M-11508.8,21634.8 L-11018.9,20927.1 L-10628.4,21197.4 L-10628.3,21197.4 L-7165.84,16196.1 L-7165.85,16196 L-7556.33,15925.7 L-6218.43,13993.1 L-6356.9,13867.6 L-6609.37,13589.1 L-6833.32,13287.1 L-6854.69,13251.5 L-6854.51,13251.3 L-6732.27,13136.9 L-6332.49,13001.2 L-5912.35,13042.6 L-5546.64,13253.7 L-5443.83,13346.9 L-5443.75,13347 L-5252.16,13489.1 L-5212.83,13518.2 L-4955.02,13800.3 L-4821.85,14158.5 L-4832.71,14540.4 L-4930.52,14763.7 L-4930.54,14763.7 L-5114.08,14698.1 L-5453.93,14537.3 L-5776.39,14344 L-5807.08,14321.3 L-7090.01,16174.4 L-7090,16174.5 L-6699.52,16444.9 L-10765.2,22317.5 L-10765.4,22317.4 L-10766.2,22317.1 L-11155.8,22047.4 L-11196.1,22019.5 L-11467.4,21739 L-11508.4,21635.2 L-11508.7,21634.9 L-11508.8,21634.8 M28451,31108.5 L28271.5,29807.6 L28989,30266.8 L29292.3,30570.1 L29440.7,30972.6 L29473.6,31211.2 L29525.9,31590.6 L29530.2,31622 L29504.1,32022.8 L29322.5,32380.9 L29014.6,32638.7 L28630.1,32754.7 L28591,32758.2 L28263.4,32733.8 L27961.4,32604.6 L26877.1,31910.9 L27688,31837.2 L27689.5,31837 L27728.6,31833.5 L28500.2,31763.3 L22115.3,27677 L22115.1,27677 L21859.1,28077 L14541.6,23393.8 L14541.7,23393.7 L14542,23392.8 L14797.5,22993.7 L14823.9,22952.5 L15094.3,22671.1 L15196.5,22626.4 L15196.9,22626.1 L15197,22626 L15921.9,23090 L15665.9,23490 L15666,23490.1 L22077.9,27593.7 L22078,27593.7 L22334.1,27193.7 L28451,31108.5 M117.137,11852.6 L109.191,11906.2 L17.844,12270.8 L-108.808,12624.8 L-183.412,12782.5 L3097.7,14882.5 L2841.69,15282.5 L2841.74,15282.6 L9253.68,19386.2 L9253.81,19386.2 L9509.82,18986.2 L10234.8,19450.2 L10234.7,19450.4 L10234.6,19450.7 L10236.8,19562.3 L10094.6,19925.7 L10068.2,19967 L9812.79,20366.1 L9812.15,20366.7 L9812.05,20366.9 L2494.52,15683.7 L2750.54,15283.7 L2750.48,15283.6 L-436.794,13243.7 L-462.818,13287.1 L-686.767,13589.1 L-939.236,13867.6 L-1074.49,13990.2 L-1074.53,13990.2 L-1251.55,13821.2 L-1408.91,13472.1 L-1423.49,13089.4 L-1293.12,12729.2 L-1267.95,12687.2 L-1151.65,12493.2 L-1151.61,12493.1 L-1087.03,12356.5 L-830.578,12022 L-459.197,11822.9 L-38.7694,11794.5 L116.932,11852.6 L117.137,11852.6 M-5466.72,11337.9 L-5475.52,11158.8 L-5468.47,11015.3 L-5466.72,10979.7 L-5440.41,10802.3 L-5396.83,10628.3 L-5336.42,10459.5 L-5259.74,10297.3 L-5167.54,10143.5 L-5060.71,9999.47 L-4940.27,9866.59 L-4807.39,9746.16 L-4663.35,9639.32 L-4509.53,9547.13 L-4347.41,9470.45 L-4178.55,9410.03 L-4004.59,9366.46 L-3882.2,9348.3 L-3827.19,9340.14 L-3650.71,9331.47 L-3468.03,9340.28 L-3291.55,9366.46 L-3117.59,9410.03 L-2948.73,9470.45 L-2786.61,9547.13 L-2632.79,9639.32 L-2488.74,9746.16 L-2469.19,9763.88 L-2355.86,9866.59 L-2270.49,9960.78 L-2236.91,9997.84 L-2235.43,9999.47 L-2128.68,10143.4 L-2036.38,10297.4 L-1959.72,10459.5 L-1899.3,10628.3 L-1855.73,10802.3 L-1829.41,10979.7 L-1820.61,11158.8 L-1829.41,11337.9 L-1855.73,11515.3 L-1899.3,11689.3 L-1959.72,11858.1 L-2036.4,12020.3 L-2127.39,12172.1 L-2128.6,12174.1 L-2235.43,12318.1 L-2355.86,12451 L-2488.74,12571.4 L-2632.79,12678.3 L-2786.61,12770.5 L-2948.73,12847.1 L-3117.59,12907.6 L-3291.55,12951.1 L-3468.95,12977.5 L-3648.07,12986.3 L-3827.19,12977.5 L-4004.59,12951.1 L-4178.55,12907.6 L-4347.41,12847.1 L-4509.53,12770.5 L-4663.35,12678.3 L-4807.39,12571.4 L-4940.27,12451 L-5060.71,12318.1 L-5167.54,12174.1 L-5259.74,12020.3 L-5336.42,11858.1 L-5396.83,11689.3 L-5440.41,11515.3 L-5466.72,11337.9"/>
</g>

<g fill="none" stroke="#000000" stroke-opacity="1" stroke-width="1" stroke-linecap="square" stroke-linejoin="bevel" transform="matrix(0.999993,0,0,-0.999993,38905.8,41266.8)"
font-family="MS Shell Dlg 2" font-size="10.3125" font-weight="400" font-style="normal" 
>
</g>

<g fill="none" stroke="#000000" stroke-opacity="1" stroke-width="1" stroke-linecap="square" stroke-linejoin="bevel" transform="matrix(0.999993,0,0,-0.999993,38905.8,41266.8)"
font-family="MS Shell Dlg 2" font-size="10.3125" font-weight="400" font-style="normal" 
>
</g>

<g fill="#ae5151" fill-opacity="0.2" stroke="#333333" stroke-opacity="1" stroke-width="1" stroke-linecap="round" stroke-linejoin="round" transform="matrix(0.999993,0,0,-0.999993,38905.8,41266.8)"
font-family="MS Shell Dlg 2" font-size="10.3125" font-weight="400" font-style="normal" 
>
<path vector-effect="non-scaling-stroke" fill-rule="evenodd" d="M-38905.6,-32682.4 L-38905.6,41266.1 L33540.8,41266.1 L33540.8,-32682.4 L-38905.6,-32682.4 M22051.6,-12046.2 L21548,-12301.4 L21848.9,-12565.3 L22190.3,-12761.6 L22581,-12810.9 L22960.5,-12705.5 L22983.3,-12693.9 L23345.5,-12382.4 L23521.9,-11938.4 L23525.9,-11909.4 L23603.6,-11346.4 L23594.5,-11018.6 L23480,-10711.5 L23272.3,-10457.8 L22777.5,-10023.9 L22614,-11209.3 L17594.5,-6806.95 L17281.4,-7164.01 L17281.3,-7164 L12066.2,-2590.15 L12066.2,-2590.03 L12379.3,-2232.97 L11732.2,-1665.43 L11732.1,-1665.59 L11731.8,-1665.75 L11624,-1694.62 L11314.4,-1932.19 L11282.1,-1969.01 L10969.6,-2325.24 L10969.2,-2326.04 L10969,-2326.18 L16987.3,-7604.5 L17300.5,-7247.44 L17300.6,-7247.46 L22508.2,-11814.8 L22051.6,-12046.2 M-7690.8,-27121.1 L-8257.57,-27408.3 L-8771.25,-27668.7 L-7747.58,-19948.5 L-7747.49,-19948.4 L-7276.68,-20010.8 L-6109.19,-11206 L-6109.39,-11206 L-6110.26,-11205.7 L-6579.98,-11143.4 L-6628.52,-11137 L-7017.95,-11162.1 L-7118.1,-11211.4 L-7118.51,-11211.5 L-7118.67,-11211.5 L-7231.81,-12064.7 L-6761,-12127.2 L-6760.94,-12127.3 L-7786.85,-19864.3 L-7786.94,-19864.4 L-8257.75,-19802 L-9219.98,-27058.9 L-10062.5,-25813 L-10210.3,-26927.1 L-10192.3,-27288 L-10047.2,-27618.9 L-9646.89,-28210.9 L-9626.35,-28241.3 L-9374.76,-28498 L-9048.76,-28649.1 L-8690.36,-28675.3 L-8345.77,-28573 L-8320.18,-28560.1 L-7956.47,-28246.5 L-7780.85,-27799.5 L-7690.8,-27121.1 M-5214.41,-4457.89 L-4178.35,3355.78 L-4649.15,3418.21 L-4649.21,3418.33 L-4126.47,7360.63 L-4175.95,7367.97 L-4395.58,7400.55 L-4395.68,7400.57 L-4642.57,7462.41 L-5179.93,3409.86 L-4709.12,3347.43 L-4709.06,3347.31 L-5734.86,-4388.88 L-5685.22,-4395.46 L-5214.41,-4457.89 M-1525.8,7969.92 L-1519.75,7973.55 L-1217.79,8197.5 L-939.236,8449.97 L-787.85,8616.99 L1550.56,6566.09 L1550.59,6565.97 L1237.43,6208.91 L7255.71,930.593 L7255.83,930.742 L7256.56,931.303 L7323.59,1007.72 L7568.99,1287.54 L7601.29,1324.35 L7796.42,1662.3 L7811,1772.95 L7811.15,1773.35 L7811.26,1773.46 L7164.15,2341.01 L6851,1983.95 L6850.88,1983.96 L1635.83,6557.81 L1635.81,6557.93 L1948.96,6914.99 L-462.928,9030.33 L-462.818,9030.48 L-269.544,9352.94 L-108.808,9692.79 L-31.3623,9909.23 L-31.5241,9909.28 L-160.74,9982.14 L-568.898,10023.2 L-959.197,9896.92 L-1266.03,9624.49 L-1459.94,9363.05 L-1460,9362.98 L-1494.48,9324.93 L-1527.31,9288.71 L-1729.29,8950.19 L-1784.78,8560.03 L-1685.21,8178.73 L-1525.85,7970.02 L-1525.8,7969.92 M-32927.7,7996.13 L-33579.4,8959.76 L-27789.6,9288.26 L-27816.5,9762.43 L-27816.4,9762.5 L-21789.2,10104.5 L-21789.1,10104.4 L-21762.2,9630.24 L-20902.9,9679 L-20902.9,9679.16 L-20902.7,9679.56 L-20846.1,9775.69 L-20791.8,10162.2 L-20794.5,10211.1 L-20821.4,10684.1 L-20821.6,10685 L-20821.6,10685.2 L-27906.5,10283.2 L-27879.6,9809.07 L-27879.7,9808.99 L-33893.2,9467.8 L-33646.1,9982.63 L-33399.5,10496.4 L-33949.1,10465.2 L-34293.2,10383.1 L-34587.1,10186.3 L-34794.1,9899.49 L-34805.9,9874.95 L-34899.4,9542.11 L-34874,9197.41 L-34732.7,8881.86 L-34716.8,8858.29 L-34656.3,8768.8 L-34407.3,8400.65 L-34169.5,8153.88 L-33862.5,8001.88 L-33522.2,7962.4 L-32927.7,7996.13 M-16594.1,9923.46 L-15734.8,9972.22 L-15761.7,10446.4 L-15761.6,10446.5 L-9734.4,10788.4 L-9734.32,10788.4 L-9707.41,10314.2 L-7410.24,10444.5 L-7405.33,10411.4 L-7313.98,10046.8 L-7187.33,9692.79 L-7103.3,9515.12 L-7103.14,9515.21 L-6956.71,9554.84 L-6636,9814.03 L-6447.13,10180.6 L-6422.23,10592.3 L-6465.1,10881.3 L-6465.11,10881.4 L-6469.27,10966.1 L-6471.66,11014.9 L-6567.25,11395.1 L-6801.56,11709.3 L-7138.6,11909.3 L-7395.31,11945.7 L-7395.41,11945.8 L-7405.33,11906.2 L-7460.49,11534.3 L-7478.94,11158.8 L-7469.52,10967 L-9676.79,10841.8 L-9676.88,10841.8 L-9703.78,11316 L-16788.7,10914 L-16788.7,10913.8 L-16788.8,10912.9 L-16761.9,10439.9 L-16759.2,10391 L-16661.5,10013.2 L-16594.3,9924.01 L-16594.1,9923.62 L-16594.1,9923.46 M-21776.5,34710.9 L-21279,35747.3 L-17944,30930 L-17553.5,31200.4 L-17553.4,31200.3 L-14090.9,26199 L-14090.9,26198.9 L-14481.4,25928.6 L-13991.5,25220.9 L-13991.4,25221 L-13990.9,25221.1 L-13879.4,25222.9 L-13521.3,25378.2 L-13481.1,25406.1 L-13091.5,25675.8 L-13090.9,25676.4 L-13090.7,25676.6 L-17156.4,31549.2 L-17546.9,31278.9 L-17547,31278.9 L-20997.6,36263.1 L-20381.1,36207.1 L-19700.9,36145.3 L-20175.9,36831.3 L-20494.4,37126 L-20907.7,37258.1 L-20938.8,37260.9 L-21338.3,37216.1 L-21687.8,37017.7 L-21931,36697.7 L-21943.1,36672.5 L-22179.4,36180.2 L-22273.2,35843.8 L-22245.7,35495.7 L-22100,35178.2 L-21776.5,34710.9 M-11508.8,21634.8 L-11018.9,20927.1 L-10628.4,21197.4 L-10628.3,21197.4 L-7165.84,16196.1 L-7165.85,16196 L-7556.33,15925.7 L-6218.43,13993.1 L-6356.9,13867.6 L-6609.37,13589.1 L-6833.32,13287.1 L-6854.69,13251.5 L-6854.51,13251.3 L-6732.27,13136.9 L-6332.49,13001.2 L-5912.35,13042.6 L-5546.64,13253.7 L-5443.83,13346.9 L-5443.75,13347 L-5252.16,13489.1 L-5212.83,13518.2 L-4955.02,13800.3 L-4821.85,14158.5 L-4832.71,14540.4 L-4930.52,14763.7 L-4930.54,14763.7 L-5114.08,14698.1 L-5453.93,14537.3 L-5776.39,14344 L-5807.08,14321.3 L-7090.01,16174.4 L-7090,16174.5 L-6699.52,16444.9 L-10765.2,22317.5 L-10765.4,22317.4 L-10766.2,22317.1 L-11155.8,22047.4 L-11196.1,22019.5 L-11467.4,21739 L-11508.4,21635.2 L-11508.7,21634.9 L-11508.8,21634.8 M28451,31108.5 L28271.5,29807.6 L28989,30266.8 L29292.3,30570.1 L29440.7,30972.6 L29473.6,31211.2 L29525.9,31590.6 L29530.2,31622 L29504.1,32022.8 L29322.5,32380.9 L29014.6,32638.7 L28630.1,32754.7 L28591,32758.2 L28263.4,32733.8 L27961.4,32604.6 L26877.1,31910.9 L27688,31837.2 L27689.5,31837 L27728.6,31833.5 L28500.2,31763.3 L22115.3,27677 L22115.1,27677 L21859.1,28077 L14541.6,23393.8 L14541.7,23393.7 L14542,23392.8 L14797.5,22993.7 L14823.9,22952.5 L15094.3,22671.1 L15196.5,22626.4 L15196.9,22626.1 L15197,22626 L15921.9,23090 L15665.9,23490 L15666,23490.1 L22077.9,27593.7 L22078,27593.7 L22334.1,27193.7 L28451,31108.5 M117.137,11852.6 L109.191,11906.2 L17.844,12270.8 L-108.808,12624.8 L-183.412,12782.5 L3097.7,14882.5 L2841.69,15282.5 L2841.74,15282.6 L9253.68,19386.2 L9253.81,19386.2 L9509.82,18986.2 L10234.8,19450.2 L10234.7,19450.4 L10234.6,19450.7 L10236.8,19562.3 L10094.6,19925.7 L10068.2,19967 L9812.79,20366.1 L9812.15,20366.7 L9812.05,20366.9 L2494.52,15683.7 L2750.54,15283.7 L2750.48,15283.6 L-436.794,13243.7 L-462.818,13287.1 L-686.767,13589.1 L-939.236,13867.6 L-1074.49,13990.2 L-1074.53,13990.2 L-1251.55,13821.2 L-1408.91,13472.1 L-1423.49,13089.4 L-1293.12,12729.2 L-1267.95,12687.2 L-1151.65,12493.2 L-1151.61,12493.1 L-1087.03,12356.5 L-830.578,12022 L-459.197,11822.9 L-38.7694,11794.5 L116.932,11852.6 L117.137,11852.6 M-5466.72,11337.9 L-5475.52,11158.8 L-5468.47,11015.3 L-5466.72,10979.7 L-5440.41,10802.3 L-5396.83,10628.3 L-5336.42,10459.5 L-5259.74,10297.3 L-5167.54,10143.5 L-5060.71,9999.47 L-4940.27,9866.59 L-4807.39,9746.16 L-4663.35,9639.32 L-4509.53,9547.13 L-4347.41,9470.45 L-4178.55,9410.03 L-4004.59,9366.46 L-3882.2,9348.3 L-3827.19,9340.14 L-3650.71,9331.47 L-3468.03,9340.28 L-3291.55,9366.46 L-3117.59,9410.03 L-2948.73,9470.45 L-2786.61,9547.13 L-2632.79,9639.32 L-2488.74,9746.16 L-2469.19,9763.88 L-2355.86,9866.59 L-2270.49,9960.78 L-2236.91,9997.84 L-2235.43,9999.47 L-2128.68,10143.4 L-2036.38,10297.4 L-1959.72,10459.5 L-1899.3,10628.3 L-1855.73,10802.3 L-1829.41,10979.7 L-1820.61,11158.8 L-1829.41,11337.9 L-1855.73,11515.3 L-1899.3,11689.3 L-1959.72,11858.1 L-2036.4,12020.3 L-2127.39,12172.1 L-2128.6,12174.1 L-2235.43,12318.1 L-2355.86,12451 L-2488.74,12571.4 L-2632.79,12678.3 L-2786.61,12770.5 L-2948.73,12847.1 L-3117.59,12907.6 L-3291.55,12951.1 L-3468.95,12977.5 L-3648.07,12986.3 L-3827.19,12977.5 L-4004.59,12951.1 L-4178.55,12907.6 L-4347.41,12847.1 L-4509.53,12770.5 L-4663.35,12678.3 L-4807.39,12571.4 L-4940.27,12451 L-5060.71,12318.1 L-5167.54,12174.1 L-5259.74,12020.3 L-5336.42,11858.1 L-5396.83,11689.3 L-5440.41,11515.3 L-5466.72,11337.9"/>
</g>

<g fill="none" stroke="#000000" stroke-opacity="1" stroke-width="1" stroke-linecap="square" stroke-linejoin="bevel" transform="matrix(0.999993,0,0,-0.999993,38905.8,41266.8)"
font-family="MS Shell Dlg 2" font-size="10.3125" font-weight="400" font-style="normal" 
>
</g>

<g fill="none" stroke="#000000" stroke-opacity="1" stroke-width="1" stroke-linecap="square" stroke-linejoin="bevel" transform="matrix(0.999993,0,0,-0.999993,38905.8,41266.8)"
font-family="MS Shell Dlg 2" font-size="10.3125" font-weight="400" font-style="normal" 
>
</g>

<g fill="#ffff00" fill-opacity="0.2" stroke="#333333" stroke-opacity="1" stroke-width="1" stroke-linecap="round" stroke-linejoin="round" transform="matrix(0.999993,0,0,-0.999993,38905.8,41266.8)"
font-family="MS Shell Dlg 2" font-size="10.3125" font-weight="400" font-style="normal" 
>
<path vector-effect="non-scaling-stroke" fill-rule="evenodd" d="M-38905.6,-32682.4 L-38905.6,41266.1 L33540.8,41266.1 L33540.8,-32682.4 L-38905.6,-32682.4 M-5466.72,11337.9 L-5475.52,11158.8 L-5468.47,11015.3 L-5466.72,10979.7 L-5440.41,10802.3 L-5396.83,10628.3 L-5336.42,10459.5 L-5259.74,10297.3 L-5167.54,10143.5 L-5060.71,9999.47 L-4940.27,9866.59 L-4807.39,9746.16 L-4663.35,9639.32 L-4509.53,9547.13 L-4347.41,9470.45 L-4178.55,9410.03 L-4004.59,9366.46 L-3882.2,9348.3 L-3827.19,9340.14 L-3650.71,9331.47 L-3468.03,9340.28 L-3291.55,9366.46 L-3117.59,9410.03 L-2948.73,9470.45 L-2786.61,9547.13 L-2632.79,9639.32 L-2488.74,9746.16 L-2469.19,9763.88 L-2355.86,9866.59 L-2270.49,9960.78 L-2236.91,9997.84 L-2235.43,9999.47 L-2128.68,10143.4 L-2036.38,10297.4 L-1959.72,10459.5 L-1899.3,10628.3 L-1855.73,10802.3 L-1829.41,10979.7 L-1820.61,11158.8 L-1829.41,11337.9 L-1855.73,11515.3 L-1899.3,11689.3 L-1959.72,11858.1 L-2036.4,12020.3 L-2127.39,12172.1 L-2128.6,12174.1 L-2235.43,12318.1 L-2355.86,12451 L-2488.74,12571.4 L-2632.79,12678.3 L-2786.61,12770.5 L-2948.73,12847.1 L-3117.59,12907.6 L-3291.55,12951.1 L-3468.95,12977.5 L-3648.07,12986.3 L-3827.19,12977.5 L-4004.59,12951.1 L-4178.55,12907.6 L-4347.41,12847.1 L-4509.53,12770.5 L-4663.35,12678.3 L-4807.39,12571.4 L-4940.27,12451 L-5060.71,12318.1 L-5167.54,12174.1 L-5259.74,12020.3 L-5336.42,11858.1 L-5396.83,11689.3 L-5440.41,11515.3 L-5466.72,11337.9"/>
</g>

<g fill="none" stroke="#000000" stroke-opacity="1" stroke-width="1" stroke-linecap="square" stroke-linejoin="bevel" transform="matrix(0.999993,0,0,-0.999993,38905.8,41266.8)"
font-family="MS Shell Dlg 2" font-size="10.3125" font-weight="400" font-style="normal" 
>
</g>

<g fill="none" stroke="#000000" stroke-opacity="1" stroke-width="1" stroke-linecap="square" stroke-linejoin="bevel" transform="matrix(0.999993,0,0,-0.999993,38905.8,41266.8)"
font-family="MS Shell Dlg 2" font-size="10.3125" font-weight="400" font-style="normal" 
>
</g>

<g fill="#ae5151" fill-opacity="0.2" stroke="#333333" stroke-opacity="1" stroke-width="1" stroke-linecap="round" stroke-linejoin="round" transform="matrix(0.999993,0,0,-0.999993,38905.8,41266.8)"
font-family="MS Shell Dlg 2" font-size="10.3125" font-weight="400" font-style="normal" 
>
<path vector-effect="non-scaling-stroke" fill-rule="evenodd" d="M-38905.6,-32682.4 L-38905.6,41266.1 L33540.8,41266.1 L33540.8,-32682.4 L-38905.6,-32682.4 M22051.6,-12046.2 L21091.4,-12532.8 L21392.3,-12796.7 L21733.8,-12993 L22124.4,-13042.3 L22504,-12936.9 L22959.8,-12705.8 L22983.3,-12693.9 L23345.5,-12382.4 L23521.9,-11938.4 L23525.8,-11910 L23516.8,-11582.3 L23402.3,-11275.2 L23194.6,-11021.5 L22699.8,-10587.4 L22614,-11209.3 L22536.3,-11772.9 L17333.6,-7209.87 L17333.5,-7209.75 L17646.7,-6852.69 L11628.4,-1574.37 L11628.3,-1574.52 L11627.6,-1575.08 L11352.3,-1888.93 L11315.1,-1931.31 L11282.8,-1968.13 L11087.7,-2306.07 L11073.1,-2416.73 L11073,-2417.13 L11072.9,-2417.24 L11720,-2984.78 L12033.1,-2627.73 L12033.2,-2627.74 L17248.3,-7201.59 L17248.3,-7201.71 L16935.2,-7558.76 L22051.6,-12046.2 M-7177.22,-26860.8 L-8257.57,-27408.3 L-7266.42,-19933.5 L-7737.23,-19871 L-7737.29,-19870.9 L-6711.38,-12133.8 L-6711.29,-12133.7 L-6240.48,-12196.2 L-6127.34,-11342.9 L-6127.5,-11342.9 L-6127.88,-11342.7 L-6211.69,-11269.1 L-6581.14,-11143.3 L-6629.68,-11136.8 L-7099.4,-11074.5 L-7100.32,-11074.6 L-7100.52,-11074.6 L-8268.01,-19879.4 L-7797.2,-19941.8 L-7797.14,-19941.9 L-8819.37,-27651.2 L-9219.98,-27058.9 L-9661.92,-26405.4 L-9809.64,-27519.4 L-9791.66,-27880.3 L-9646.62,-28211.3 L-9626.35,-28241.3 L-9374.76,-28498 L-9048.76,-28649.1 L-8690.36,-28675.3 L-8345.77,-28573 L-8319.61,-28559.8 L-8268.24,-28533.7 L-7806.5,-28299.7 L-7442.75,-27986.1 L-7267.15,-27539 L-7177.22,-26860.8 M-5327.68,-5312.14 L-5214.54,-4458.88 L-5685.35,-4396.45 L-5685.41,-4396.33 L-4659.5,3340.74 L-4659.41,3340.84 L-4188.61,3278.41 L-3651.63,7328.1 L-3648.07,7327.93 L-3272.58,7346.38 L-2900.7,7401.54 L-2680.99,7456.57 L-2681.04,7456.74 L-2692.16,7605 L-2884.68,7967.48 L-3206.6,8222.09 L-3603.79,8325.96 L-3925.52,8341.77 L-3925.61,8341.78 L-4028.12,8356.98 L-4421.6,8336.91 L-4776.71,8166.47 L-5038.45,7872.13 L-5123.5,7624.11 L-5123.55,7624.02 L-5114.08,7619.54 L-4760.11,7492.89 L-4395.43,7401.54 L-4175.81,7368.96 L-4698.78,3424.9 L-4698.86,3424.8 L-5169.67,3487.23 L-6337.16,-5317.59 L-6336.97,-5317.61 L-6336.09,-5317.91 L-5817.83,-5386.63 L-5428.4,-5361.48 L-5328.25,-5312.21 L-5327.84,-5312.11 L-5327.68,-5312.14 M-1936.79,7735.54 L-1842.21,7780.27 L-1519.75,7973.55 L-1217.79,8197.5 L-1125.4,8281.23 L1289.59,6163.17 L1602.74,6520.23 L1602.86,6520.22 L6817.91,1946.37 L6817.93,1946.25 L6504.78,1589.19 L7151.88,1021.65 L7151.98,1021.77 L7152.36,1021.97 L7260.13,1050.84 L7569.77,1288.41 L7914.49,1681.46 L7914.95,1682.26 L7915.08,1682.41 L1896.81,6960.73 L1583.65,6603.67 L1583.53,6603.68 L-754.268,8654.05 L-686.767,8728.52 L-462.818,9030.48 L-269.544,9352.94 L-212.804,9472.91 L-212.884,9472.93 L-428.854,9598.22 L-811.403,9650.99 L-1185.42,9554.86 L-1495.2,9324.13 L-1528.05,9287.89 L-1646.48,9157.23 L-1646.55,9157.16 L-1795.38,9022.27 L-2039.73,8682.75 L-2123.84,8273.09 L-2033.06,7864.86 L-1936.88,7735.72 L-1936.79,7735.54 M-33237.5,8454.21 L-33579.4,8959.76 L-33889.3,9417.95 L-27876.9,9759.08 L-27876.8,9759.01 L-27849.9,9284.84 L-20765,9686.82 L-20765,9687.02 L-20764.9,9687.93 L-20791.7,10161 L-20794.5,10209.9 L-20892.2,10587.7 L-20959.3,10676.8 L-20959.5,10677.2 L-20959.5,10677.4 L-21818.8,10628.6 L-21791.9,10154.5 L-21792,10154.4 L-27819.2,9812.42 L-27819.3,9812.49 L-27846.2,10286.7 L-33658.5,9956.88 L-33164.7,10985.5 L-33714.4,10954.3 L-34058.4,10872.1 L-34352.3,10675.4 L-34559.4,10388.6 L-34793.8,9900.1 L-34805.9,9874.95 L-34899.4,9542.11 L-34874,9197.41 L-34732.7,8881.86 L-34717.2,8858.83 L-34479.5,8612.1 L-34172.5,8460.1 L-33832.2,8420.58 L-33237.5,8454.21 M-16732,9915.64 L-9647.14,10317.6 L-9674.04,10791.8 L-9673.96,10791.9 L-7467.06,10917.1 L-7460.49,10783.3 L-7405.33,10411.4 L-7313.98,10046.8 L-7280.56,9953.34 L-7280.47,9953.38 L-7035.43,10016.5 L-6724.64,10249.3 L-6525.95,10582.9 L-6469.32,10967.2 L-6478.73,11158.8 L-6478.73,11158.9 L-6467.24,11392.8 L-6533.74,11803.6 L-6761.62,12151.7 L-7111.46,12377 L-7267.21,12401 L-7267.39,12401.1 L-7313.98,12270.8 L-7405.33,11906.2 L-7460.49,11534.3 L-7464.97,11443 L-9764.06,11312.6 L-9737.16,10838.4 L-9737.24,10838.4 L-15764.5,10496.4 L-15764.5,10496.4 L-15791.5,10970.6 L-16650.8,10921.9 L-16650.8,10921.7 L-16650.9,10921.3 L-16707.5,10825.2 L-16761.9,10438.7 L-16732.3,9916.73 L-16732,9915.84 L-16732,9915.64 M-21540,35203.6 L-21291.5,35721.4 L-21042.5,36240.2 L-17588.1,31250.5 L-17588.1,31250.4 L-17978.6,30980 L-13912.9,25107.3 L-13912.7,25107.5 L-13911.9,25107.8 L-13522.3,25377.5 L-13482,25405.4 L-13210.7,25685.9 L-13169.7,25789.7 L-13169.4,25790 L-13169.3,25790.1 L-13659.2,26497.8 L-14049.7,26227.4 L-14049.8,26227.5 L-17512.3,31228.8 L-17512.3,31228.9 L-17121.8,31499.2 L-20381.1,36207.1 L-19084.4,36089.2 L-19559.4,36775.3 L-19877.9,37070 L-20291.2,37202 L-20938.8,37260.9 L-21338.3,37216.1 L-21687.8,37017.7 L-21931,36697.7 L-21942.8,36673.1 L-22036.7,36336.7 L-22009.1,35988.6 L-21863.6,35671.1 L-21540,35203.6 M-11587.4,21748.3 L-7521.71,15875.6 L-7131.23,16146 L-7131.12,16146 L-5847.26,14291.5 L-6078.35,14120.1 L-6356.9,13867.6 L-6571.95,13630.4 L-6571.92,13630.3 L-6381.94,13448 L-6009.88,13306.3 L-5612,13320.9 L-5251.29,13489.7 L-5220.73,13512.4 L-5220.65,13512.4 L-4982.44,13655.2 L-4982.35,13655.3 L-4971.46,13660.4 L-4631.12,13923.8 L-4432.99,14305.7 L-4413.68,14735.5 L-4478.99,14895 L-4479.02,14895.1 L-4760.11,14824.7 L-5114.08,14698.1 L-5397.42,14564 L-6734.14,16494.9 L-7124.63,16224.5 L-7124.73,16224.6 L-10587.2,21225.9 L-10587.2,21226 L-10196.7,21496.3 L-10686.6,22204 L-10686.7,22203.9 L-10687.2,22203.8 L-10798.7,22202 L-11156.8,22046.7 L-11586.6,21749.1 L-11587.3,21748.4 L-11587.4,21748.3 M28446.5,31076 L28356.8,30426.2 L29074.3,30885.4 L29377.6,31188.7 L29526,31591.2 L29530.2,31622 L29504.1,32022.8 L29322.5,32380.9 L29014.6,32638.7 L28630.1,32754.7 L28553.7,32761.6 L27819.5,32828.4 L27491.8,32803.9 L27189.7,32674.7 L26105.8,31981 L27728.6,31833.5 L21795,28036 L22051,27636 L22051,27635.9 L15639,23532.2 L15638.9,23532.2 L15382.9,23932.2 L14657.9,23468.3 L14658,23468.1 L14658.1,23467.7 L14655.9,23356.2 L14798.1,22992.7 L14824.5,22951.5 L15079.9,22552.4 L15080.6,22551.7 L15080.7,22551.6 L22398.2,27234.8 L22142.2,27634.8 L22142.2,27634.9 L28536.3,31727.1 L28446.5,31076 M3.28856,12311.5 L-108.808,12624.8 L-269.544,12964.7 L-411.077,13200.8 L2777.44,15241.4 L2777.57,15241.4 L3033.58,14841.4 L10351.1,19524.6 L10351,19524.8 L10350.7,19525.7 L10068.8,19966 L9798.4,20247.3 L9696.15,20292.1 L9695.81,20292.3 L9695.73,20292.5 L8970.77,19828.5 L9226.78,19428.5 L9226.73,19428.3 L2814.79,15324.7 L2814.66,15324.7 L2558.65,15724.7 L-720.374,13626.2 L-939.236,13867.6 L-1217.79,14120.1 L-1440.47,14285.2 L-1440.55,14285.1 L-1562.3,14163.1 L-1710.03,13758.2 L-1673.62,13328.7 L-1484.36,12997.4 L-1484.24,12997.1 L-1484.25,12996.7 L-1484.39,12996.4 L-1484.63,12996.1 L-1488.58,12993.2 L-1294.47,12731.4 L-1294.41,12731.4 L-1268.53,12688.2 L-1000.58,12394.7 L-639.6,12228.7 L-242.493,12216.5 L3.2631,12311.5 L3.28856,12311.5 M-5466.72,11337.9 L-5475.52,11158.8 L-5468.47,11015.3 L-5466.72,10979.7 L-5440.41,10802.3 L-5396.83,10628.3 L-5336.42,10459.5 L-5259.74,10297.3 L-5167.54,10143.5 L-5060.71,9999.47 L-4940.27,9866.59 L-4807.39,9746.16 L-4663.35,9639.32 L-4509.53,9547.13 L-4347.41,9470.45 L-4178.55,9410.03 L-4004.59,9366.46 L-3882.2,9348.3 L-3827.19,9340.14 L-3650.71,9331.47 L-3468.03,9340.28 L-3291.55,9366.46 L-3117.59,9410.03 L-2948.73,9470.45 L-2786.61,9547.13 L-2632.79,9639.32 L-2488.74,9746.16 L-2469.19,9763.88 L-2355.86,9866.59 L-2270.49,9960.78 L-2236.91,9997.84 L-2235.43,9999.47 L-2128.68,10143.4 L-2036.38,10297.4 L-1959.72,10459.5 L-1899.3,10628.3 L-1855.73,10802.3 L-1829.41,10979.7 L-1820.61,11158.8 L-1829.41,11337.9 L-1855.73,11515.3 L-1899.3,11689.3 L-1959.72,11858.1 L-2036.4,12020.3 L-2127.39,12172.1 L-2128.6,12174.1 L-2235.43,12318.1 L-2355.86,12451 L-2488.74,12571.4 L-2632.79,12678.3 L-2786.61,12770.5 L-2948.73,12847.1 L-3117.59,12907.6 L-3291.55,12951.1 L-3468.95,12977.5 L-3648.07,12986.3 L-3827.19,12977.5 L-4004.59,12951.1 L-4178.55,12907.6 L-4347.41,12847.1 L-4509.53,12770.5 L-4663.35,12678.3 L-4807.39,12571.4 L-4940.27,12451 L-5060.71,12318.1 L-5167.54,12174.1 L-5259.74,12020.3 L-5336.42,11858.1 L-5396.83,11689.3 L-5440.41,11515.3 L-5466.72,11337.9"/>
</g>

<g fill="none" stroke="#000000" stroke-opacity="1" stroke-width="1" stroke-linecap="square" stroke-linejoin="bevel" transform="matrix(0.999993,0,0,-0.999993,38905.8,41266.8)"
font-family="MS Shell Dlg 2" font-size="10.3125" font-weight="400" font-style="normal" 
>
</g>

<g fill="none" stroke="#000000" stroke-opacity="1" stroke-width="1" stroke-linecap="square" stroke-linejoin="bevel" transform="matrix(0.999993,0,0,-0.999993,38905.8,41266.8)"
font-family="MS Shell Dlg 2" font-size="10.3125" font-weight="400" font-style="normal" 
>
</g>

<g fill="#333333" fill-opacity="0.2" stroke="#333333" stroke-opacity="1" stroke-width="1" stroke-linecap="round" stroke-linejoin="round" transform="matrix(0.999993,0,0,-0.999993,38905.8,41266.8)"
font-family="MS Shell Dlg 2" font-size="10.3125" font-weight="400" font-style="normal" 
>
<path vector-effect="non-scaling-stroke" fill-rule="evenodd" d="M-38905.6,-32682.4 L-38905.6,41266.1 L33540.8,41266.1 L33540.8,-32682.4 L-38905.6,-32682.4 M22051.6,-12046.2 L21091.4,-12532.8 L21392.3,-12796.7 L21733.8,-12993 L22124.4,-13042.3 L22504,-12936.9 L22959.8,-12705.8 L22983.3,-12693.9 L23345.5,-12382.4 L23521.9,-11938.4 L23525.8,-11910 L23516.8,-11582.3 L23402.3,-11275.2 L23194.6,-11021.5 L22699.8,-10587.4 L22614,-11209.3 L22536.3,-11772.9 L17333.6,-7209.87 L17333.5,-7209.75 L17646.7,-6852.69 L11628.4,-1574.37 L11628.3,-1574.52 L11627.6,-1575.08 L11352.3,-1888.93 L11315.1,-1931.31 L11282.8,-1968.13 L11087.7,-2306.07 L11073.1,-2416.73 L11073,-2417.13 L11072.9,-2417.24 L11720,-2984.78 L12033.1,-2627.73 L12033.2,-2627.74 L17248.3,-7201.59 L17248.3,-7201.71 L16935.2,-7558.76 L22051.6,-12046.2 M-7177.22,-26860.8 L-8257.57,-27408.3 L-7266.42,-19933.5 L-7737.23,-19871 L-7737.29,-19870.9 L-6711.38,-12133.8 L-6711.29,-12133.7 L-6240.48,-12196.2 L-6127.34,-11342.9 L-6127.5,-11342.9 L-6127.88,-11342.7 L-6211.69,-11269.1 L-6581.14,-11143.3 L-6629.68,-11136.8 L-7099.4,-11074.5 L-7100.32,-11074.6 L-7100.52,-11074.6 L-8268.01,-19879.4 L-7797.2,-19941.8 L-7797.14,-19941.9 L-8819.37,-27651.2 L-9219.98,-27058.9 L-9661.92,-26405.4 L-9809.64,-27519.4 L-9791.66,-27880.3 L-9646.62,-28211.3 L-9626.35,-28241.3 L-9374.76,-28498 L-9048.76,-28649.1 L-8690.36,-28675.3 L-8345.77,-28573 L-8319.61,-28559.8 L-8268.24,-28533.7 L-7806.5,-28299.7 L-7442.75,-27986.1 L-7267.15,-27539 L-7177.22,-26860.8 M-5327.68,-5312.14 L-5214.54,-4458.88 L-5685.35,-4396.45 L-5685.41,-4396.33 L-4659.5,3340.74 L-4659.41,3340.84 L-4188.61,3278.41 L-3651.63,7328.1 L-3648.07,7327.93 L-3272.58,7346.38 L-2900.7,7401.54 L-2680.99,7456.57 L-2681.04,7456.74 L-2692.16,7605 L-2884.68,7967.48 L-3206.6,8222.09 L-3603.79,8325.96 L-3925.52,8341.77 L-3925.61,8341.78 L-4028.12,8356.98 L-4421.6,8336.91 L-4776.71,8166.47 L-5038.45,7872.13 L-5123.5,7624.11 L-5123.55,7624.02 L-5114.08,7619.54 L-4760.11,7492.89 L-4395.43,7401.54 L-4175.81,7368.96 L-4698.78,3424.9 L-4698.86,3424.8 L-5169.67,3487.23 L-6337.16,-5317.59 L-6336.97,-5317.61 L-6336.09,-5317.91 L-5817.83,-5386.63 L-5428.4,-5361.48 L-5328.25,-5312.21 L-5327.84,-5312.11 L-5327.68,-5312.14 M-1936.79,7735.54 L-1842.21,7780.27 L-1519.75,7973.55 L-1217.79,8197.5 L-1125.4,8281.23 L1289.59,6163.17 L1602.74,6520.23 L1602.86,6520.22 L6817.91,1946.37 L6817.93,1946.25 L6504.78,1589.19 L7151.88,1021.65 L7151.98,1021.77 L7152.36,1021.97 L7260.13,1050.84 L7569.77,1288.41 L7914.49,1681.46 L7914.95,1682.26 L7915.08,1682.41 L1896.81,6960.73 L1583.65,6603.67 L1583.53,6603.68 L-754.268,8654.05 L-686.767,8728.52 L-462.818,9030.48 L-269.544,9352.94 L-212.804,9472.91 L-212.884,9472.93 L-428.854,9598.22 L-811.403,9650.99 L-1185.42,9554.86 L-1495.2,9324.13 L-1528.05,9287.89 L-1646.48,9157.23 L-1646.55,9157.16 L-1795.38,9022.27 L-2039.73,8682.75 L-2123.84,8273.09 L-2033.06,7864.86 L-1936.88,7735.72 L-1936.79,7735.54 M-33237.5,8454.21 L-33579.4,8959.76 L-33889.3,9417.95 L-27876.9,9759.08 L-27876.8,9759.01 L-27849.9,9284.84 L-20765,9686.82 L-20765,9687.02 L-20764.9,9687.93 L-20791.7,10161 L-20794.5,10209.9 L-20892.2,10587.7 L-20959.3,10676.8 L-20959.5,10677.2 L-20959.5,10677.4 L-21818.8,10628.6 L-21791.9,10154.5 L-21792,10154.4 L-27819.2,9812.42 L-27819.3,9812.49 L-27846.2,10286.7 L-33658.5,9956.88 L-33164.7,10985.5 L-33714.4,10954.3 L-34058.4,10872.1 L-34352.3,10675.4 L-34559.4,10388.6 L-34793.8,9900.1 L-34805.9,9874.95 L-34899.4,9542.11 L-34874,9197.41 L-34732.7,8881.86 L-34717.2,8858.83 L-34479.5,8612.1 L-34172.5,8460.1 L-33832.2,8420.58 L-33237.5,8454.21 M-16732,9915.64 L-9647.14,10317.6 L-9674.04,10791.8 L-9673.96,10791.9 L-7467.06,10917.1 L-7460.49,10783.3 L-7405.33,10411.4 L-7313.98,10046.8 L-7280.56,9953.34 L-7280.47,9953.38 L-7035.43,10016.5 L-6724.64,10249.3 L-6525.95,10582.9 L-6469.32,10967.2 L-6478.73,11158.8 L-6478.73,11158.9 L-6467.24,11392.8 L-6533.74,11803.6 L-6761.62,12151.7 L-7111.46,12377 L-7267.21,12401 L-7267.39,12401.1 L-7313.98,12270.8 L-7405.33,11906.2 L-7460.49,11534.3 L-7464.97,11443 L-9764.06,11312.6 L-9737.16,10838.4 L-9737.24,10838.4 L-15764.5,10496.4 L-15764.5,10496.4 L-15791.5,10970.6 L-16650.8,10921.9 L-16650.8,10921.7 L-16650.9,10921.3 L-16707.5,10825.2 L-16761.9,10438.7 L-16732.3,9916.73 L-16732,9915.84 L-16732,9915.64 M-21540,35203.6 L-21291.5,35721.4 L-21042.5,36240.2 L-17588.1,31250.5 L-17588.1,31250.4 L-17978.6,30980 L-13912.9,25107.3 L-13912.7,25107.5 L-13911.9,25107.8 L-13522.3,25377.5 L-13482,25405.4 L-13210.7,25685.9 L-13169.7,25789.7 L-13169.4,25790 L-13169.3,25790.1 L-13659.2,26497.8 L-14049.7,26227.4 L-14049.8,26227.5 L-17512.3,31228.8 L-17512.3,31228.9 L-17121.8,31499.2 L-20381.1,36207.1 L-19084.4,36089.2 L-19559.4,36775.3 L-19877.9,37070 L-20291.2,37202 L-20938.8,37260.9 L-21338.3,37216.1 L-21687.8,37017.7 L-21931,36697.7 L-21942.8,36673.1 L-22036.7,36336.7 L-22009.1,35988.6 L-21863.6,35671.1 L-21540,35203.6 M-11587.4,21748.3 L-7521.71,15875.6 L-7131.23,16146 L-7131.12,16146 L-5847.26,14291.5 L-6078.35,14120.1 L-6356.9,13867.6 L-6571.95,13630.4 L-6571.92,13630.3 L-6381.94,13448 L-6009.88,13306.3 L-5612,13320.9 L-5251.29,13489.7 L-5220.73,13512.4 L-5220.65,13512.4 L-4982.44,13655.2 L-4982.35,13655.3 L-4971.46,13660.4 L-4631.12,13923.8 L-4432.99,14305.7 L-4413.68,14735.5 L-4478.99,14895 L-4479.02,14895.1 L-4760.11,14824.7 L-5114.08,14698.1 L-5397.42,14564 L-6734.14,16494.9 L-7124.63,16224.5 L-7124.73,16224.6 L-10587.2,21225.9 L-10587.2,21226 L-10196.7,21496.3 L-10686.6,22204 L-10686.7,22203.9 L-10687.2,22203.8 L-10798.7,22202 L-11156.8,22046.7 L-11586.6,21749.1 L-11587.3,21748.4 L-11587.4,21748.3 M28446.5,31076 L28356.8,30426.2 L29074.3,30885.4 L29377.6,31188.7 L29526,31591.2 L29530.2,31622 L29504.1,32022.8 L29322.5,32380.9 L29014.6,32638.7 L28630.1,32754.7 L28553.7,32761.6 L27819.5,32828.4 L27491.8,32803.9 L27189.7,32674.7 L26105.8,31981 L27728.6,31833.5 L21795,28036 L22051,27636 L22051,27635.9 L15639,23532.2 L15638.9,23532.2 L15382.9,23932.2 L14657.9,23468.3 L14658,23468.1 L14658.1,23467.7 L14655.9,23356.2 L14798.1,22992.7 L14824.5,22951.5 L15079.9,22552.4 L15080.6,22551.7 L15080.7,22551.6 L22398.2,27234.8 L22142.2,27634.8 L22142.2,27634.9 L28536.3,31727.1 L28446.5,31076 M3.28856,12311.5 L-108.808,12624.8 L-269.544,12964.7 L-411.077,13200.8 L2777.44,15241.4 L2777.57,15241.4 L3033.58,14841.4 L10351.1,19524.6 L10351,19524.8 L10350.7,19525.7 L10068.8,19966 L9798.4,20247.3 L9696.15,20292.1 L9695.81,20292.3 L9695.73,20292.5 L8970.77,19828.5 L9226.78,19428.5 L9226.73,19428.3 L2814.79,15324.7 L2814.66,15324.7 L2558.65,15724.7 L-720.374,13626.2 L-939.236,13867.6 L-1217.79,14120.1 L-1440.47,14285.2 L-1440.55,14285.1 L-1562.3,14163.1 L-1710.03,13758.2 L-1673.62,13328.7 L-1484.36,12997.4 L-1484.24,12997.1 L-1484.25,12996.7 L-1484.39,12996.4 L-1484.63,12996.1 L-1488.58,12993.2 L-1294.47,12731.4 L-1294.41,12731.4 L-1268.53,12688.2 L-1000.58,12394.7 L-639.6,12228.7 L-242.493,12216.5 L3.2631,12311.5 L3.28856,12311.5 M-5466.72,11337.9 L-5475.52,11158.8 L-5468.47,11015.3 L-5466.72,10979.7 L-5440.41,10802.3 L-5396.83,10628.3 L-5336.42,10459.5 L-5259.74,10297.3 L-5167.54,10143.5 L-5060.71,9999.47 L-4940.27,9866.59 L-4807.39,9746.16 L-4663.35,9639.32 L-4509.53,9547.13 L-4347.41,9470.45 L-4178.55,9410.03 L-4004.59,9366.46 L-3882.2,9348.3 L-3827.19,9340.14 L-3650.71,9331.47 L-3468.03,9340.28 L-3291.55,9366.46 L-3117.59,9410.03 L-2948.73,9470.45 L-2786.61,9547.13 L-2632.79,9639.32 L-2488.74,9746.16 L-2469.19,9763.88 L-2355.86,9866.59 L-2270.49,9960.78 L-2236.91,9997.84 L-2235.43,9999.47 L-2128.68,10143.4 L-2036.38,10297.4 L-1959.72,10459.5 L-1899.3,10628.3 L-1855.73,10802.3 L-1829.41,10979.7 L-1820.61,11158.8 L-1829.41,11337.9 L-1855.73,11515.3 L-1899.3,11689.3 L-1959.72,11858.1 L-2036.4,12020.3 L-2127.39,12172.1 L-2128.6,12174.1 L-2235.43,12318.1 L-2355.86,12451 L-2488.74,12571.4 L-2632.79,12678.3 L-2786.61,12770.5 L-2948.73,12847.1 L-3117.59,12907.6 L-3291.55,12951.1 L-3468.95,12977.5 L-3648.07,12986.3 L-3827.19,12977.5 L-4004.59,12951.1 L-4178.55,12907.6 L-4347.41,12847.1 L-4509.53,12770.5 L-4663.35,12678.3 L-4807.39,12571.4 L-4940.27,12451 L-5060.71,12318.1 L-5167.54,12174.1 L-5259.74,12020.3 L-5336.42,11858.1 L-5396.83,11689.3 L-5440.41,11515.3 L-5466.72,11337.9"/>
</g>

<g fill="none" stroke="#000000" stroke-opacity="1" stroke-width="1" stroke-linecap="square" stroke-linejoin="bevel" transform="matrix(0.999993,0,0,-0.999993,38905.8,41266.8)"
font-family="MS Shell Dlg 2" font-size="10.3125" font-weight="400" font-style="normal" 
>
</g>

<g fill="none" stroke="#000000" stroke-opacity="1" stroke-width="1" stroke-linecap="square" stroke-linejoin="bevel" transform="matrix(1,0,0,-1,0,73949.5)"
font-family="MS Shell Dlg 2" font-size="10.3125" font-weight="400" font-style="normal" 
>
</g>
</g>
</svg>
