<?xml version="1.0" encoding="UTF-8" standalone="no"?>
<svg width="13969.4mm" height="6922.06mm"
 xmlns="http://www.w3.org/2000/svg" xmlns:xlink="http://www.w3.org/1999/xlink"  version="1.2" baseProfile="tiny">
<title>SVG Generator Example Drawing</title>
<desc>An SVG drawing created by the SVG Generator</desc>
<defs>
</defs>
<g fill="none" stroke="black" stroke-width="1" fill-rule="evenodd" stroke-linecap="square" stroke-linejoin="bevel" >

<g fill="none" stroke="#000000" stroke-opacity="1" stroke-width="1" stroke-linecap="square" stroke-linejoin="bevel" transform="matrix(1,0,0,-1,0,24527)"
font-family="MS Shell Dlg 2" font-size="10.3125" font-weight="400" font-style="normal" 
>
</g>

<g fill="none" stroke="#000000" stroke-opacity="1" stroke-width="1" stroke-linecap="square" stroke-linejoin="bevel" transform="matrix(1,0,0,-1,0,24527)"
font-family="MS Shell Dlg 2" font-size="10.3125" font-weight="400" font-style="normal" 
>
</g>

<g fill="none" stroke="#000000" stroke-opacity="1" stroke-width="1" stroke-linecap="square" stroke-linejoin="bevel" transform="matrix(0.999985,0,0,-0.999985,20997.8,36263.5)"
font-family="MS Shell Dlg 2" font-size="10.3125" font-weight="400" font-style="normal" 
>
</g>

<g fill="#333333" fill-opacity="0.2" stroke="#333333" stroke-opacity="1" stroke-width="1" stroke-linecap="round" stroke-linejoin="round" transform="matrix(0.999985,0,0,-0.999985,20997.8,36263.5)"
font-family="MS Shell Dlg 2" font-size="10.3125" font-weight="400" font-style="normal" 
>
<path vector-effect="non-scaling-stroke" fill-rule="evenodd" d="M-4286.02,12124.2 L-7090.01,16174.4 L-7090,16174.5 L-6699.52,16444.9 L-17156.4,31549.2 L-17546.9,31278.9 L-17547,31278.9 L-20997.6,36263.1 L-20381.1,36207.1 L27688,31837.2 L27689.5,31837 L27728.6,31833.5 L28500.2,31763.3 L22115.3,27677 L22115.1,27677 L21859.1,28077 L2494.52,15683.7 L2750.54,15283.7 L2750.48,15283.6 L-2790.85,11737.1 L-2872.95,11809.1 L-2913.5,11854.6 L-3090.04,12109.6 L-3128.59,12082.9 L-3140.13,12096.9 L-3100.35,12124.5 L-3104.67,12130.7 L-3215.4,12188.5 L-3310.88,12304.7 L-3420.07,12295.4 L-3517.22,12346.1 L-3650.13,12275.7 L-3774.58,12265.1 L-3780.98,12261 L-3754.89,12220.3 L-3770.96,12211.7 L-3796.24,12251.2 L-3912.11,12177.1 L-4030.71,12138.7 L-4286.02,12124.2"/>
</g>

<g fill="none" stroke="#000000" stroke-opacity="1" stroke-width="1" stroke-linecap="square" stroke-linejoin="bevel" transform="matrix(0.999985,0,0,-0.999985,20997.8,36263.5)"
font-family="MS Shell Dlg 2" font-size="10.3125" font-weight="400" font-style="normal" 
>
</g>

<g fill="none" stroke="#000000" stroke-opacity="1" stroke-width="1" stroke-linecap="square" stroke-linejoin="bevel" transform="matrix(0.999985,0,0,-0.999985,20997.8,36263.5)"
font-family="MS Shell Dlg 2" font-size="10.3125" font-weight="400" font-style="normal" 
>
</g>

<g fill="#ae5151" fill-opacity="0.2" stroke="#333333" stroke-opacity="1" stroke-width="1" stroke-linecap="round" stroke-linejoin="round" transform="matrix(0.999985,0,0,-0.999985,20997.8,36263.5)"
font-family="MS Shell Dlg 2" font-size="10.3125" font-weight="400" font-style="normal" 
>
<path vector-effect="non-scaling-stroke" fill-rule="evenodd" d="M-4286.02,12124.2 L-7090.01,16174.4 L-7090,16174.5 L-6699.52,16444.9 L-17156.4,31549.2 L-17546.9,31278.9 L-17547,31278.9 L-20997.6,36263.1 L-20381.1,36207.1 L27688,31837.2 L27689.5,31837 L27728.6,31833.5 L28500.2,31763.3 L22115.3,27677 L22115.1,27677 L21859.1,28077 L2494.52,15683.7 L2750.54,15283.7 L2750.48,15283.6 L-2790.85,11737.1 L-2872.95,11809.1 L-2913.5,11854.6 L-3090.04,12109.6 L-3128.59,12082.9 L-3140.13,12096.9 L-3100.35,12124.5 L-3104.67,12130.7 L-3215.4,12188.5 L-3310.88,12304.7 L-3420.07,12295.4 L-3517.22,12346.1 L-3650.13,12275.7 L-3774.58,12265.1 L-3780.98,12261 L-3754.89,12220.3 L-3770.96,12211.7 L-3796.24,12251.2 L-3912.11,12177.1 L-4030.71,12138.7 L-4286.02,12124.2"/>
</g>

<g fill="none" stroke="#000000" stroke-opacity="1" stroke-width="1" stroke-linecap="square" stroke-linejoin="bevel" transform="matrix(0.999985,0,0,-0.999985,20997.8,36263.5)"
font-family="MS Shell Dlg 2" font-size="10.3125" font-weight="400" font-style="normal" 
>
</g>

<g fill="none" stroke="#000000" stroke-opacity="1" stroke-width="1" stroke-linecap="square" stroke-linejoin="bevel" transform="matrix(0.999985,0,0,-0.999985,20997.8,36263.5)"
font-family="MS Shell Dlg 2" font-size="10.3125" font-weight="400" font-style="normal" 
>
</g>

<g fill="#ffff00" fill-opacity="0.2" stroke="#333333" stroke-opacity="1" stroke-width="1" stroke-linecap="round" stroke-linejoin="round" transform="matrix(0.999985,0,0,-0.999985,20997.8,36263.5)"
font-family="MS Shell Dlg 2" font-size="10.3125" font-weight="400" font-style="normal" 
>
<path vector-effect="non-scaling-stroke" fill-rule="evenodd" d="M-20965.1,36260.2 L-20381.1,36207.1 L27728.6,31833.5 L28459.6,31767 L15625.5,23553.2 L15382.9,23932.2 L8970.77,19828.5 L9213.34,19449.5 L-2810.42,11754.3 L-2872.95,11809.1 L-2913.5,11854.6 L-3090.04,12109.6 L-3128.59,12082.9 L-3140.13,12096.9 L-3100.35,12124.5 L-3104.67,12130.7 L-3215.4,12188.5 L-3310.88,12304.7 L-3420.07,12295.4 L-3517.22,12346.1 L-3650.13,12275.7 L-3774.58,12265.1 L-3780.98,12261 L-3754.89,12220.3 L-3770.96,12211.7 L-3796.24,12251.2 L-3912.11,12177.1 L-4030.71,12138.7 L-4256.77,12125.9 L-10566.7,21240.2 L-10196.7,21496.3 L-13659.2,26497.8 L-14029.2,26241.6 L-20965.1,36260.2"/>
</g>

<g fill="none" stroke="#000000" stroke-opacity="1" stroke-width="1" stroke-linecap="square" stroke-linejoin="bevel" transform="matrix(0.999985,0,0,-0.999985,20997.8,36263.5)"
font-family="MS Shell Dlg 2" font-size="10.3125" font-weight="400" font-style="normal" 
>
</g>

<g fill="none" stroke="#000000" stroke-opacity="1" stroke-width="1" stroke-linecap="square" stroke-linejoin="bevel" transform="matrix(0.999985,0,0,-0.999985,20997.8,36263.5)"
font-family="MS Shell Dlg 2" font-size="10.3125" font-weight="400" font-style="normal" 
>
</g>

<g fill="#ae5151" fill-opacity="0.2" stroke="#333333" stroke-opacity="1" stroke-width="1" stroke-linecap="round" stroke-linejoin="round" transform="matrix(0.999985,0,0,-0.999985,20997.8,36263.5)"
font-family="MS Shell Dlg 2" font-size="10.3125" font-weight="400" font-style="normal" 
>
<path vector-effect="non-scaling-stroke" fill-rule="evenodd" d="M-20381.1,36207.1 L27728.6,31833.5 L21795,28036 L22051,27636 L22051,27635.9 L15639,23532.2 L15638.9,23532.2 L15382.9,23932.2 L8970.77,19828.5 L9226.78,19428.5 L9226.73,19428.3 L2814.79,15324.7 L2814.66,15324.7 L2558.65,15724.7 L-3129.67,12084.2 L-3140.13,12096.9 L-3100.35,12124.5 L-3104.67,12130.7 L-3215.4,12188.5 L-3310.88,12304.7 L-3420.07,12295.4 L-3517.22,12346.1 L-3650.13,12275.7 L-3774.58,12265.1 L-3780.98,12261 L-3754.89,12220.3 L-3769.45,12212.5 L-6734.14,16494.9 L-7124.63,16224.5 L-7124.73,16224.6 L-10587.2,21225.9 L-10587.2,21226 L-10196.7,21496.3 L-13659.2,26497.8 L-14049.7,26227.4 L-14049.8,26227.5 L-17512.3,31228.8 L-17512.3,31228.9 L-17121.8,31499.2 L-20381.1,36207.1"/>
</g>

<g fill="none" stroke="#000000" stroke-opacity="1" stroke-width="1" stroke-linecap="square" stroke-linejoin="bevel" transform="matrix(0.999985,0,0,-0.999985,20997.8,36263.5)"
font-family="MS Shell Dlg 2" font-size="10.3125" font-weight="400" font-style="normal" 
>
</g>

<g fill="none" stroke="#000000" stroke-opacity="1" stroke-width="1" stroke-linecap="square" stroke-linejoin="bevel" transform="matrix(0.999985,0,0,-0.999985,20997.8,36263.5)"
font-family="MS Shell Dlg 2" font-size="10.3125" font-weight="400" font-style="normal" 
>
</g>

<g fill="#333333" fill-opacity="0.2" stroke="#333333" stroke-opacity="1" stroke-width="1" stroke-linecap="round" stroke-linejoin="round" transform="matrix(0.999985,0,0,-0.999985,20997.8,36263.5)"
font-family="MS Shell Dlg 2" font-size="10.3125" font-weight="400" font-style="normal" 
>
<path vector-effect="non-scaling-stroke" fill-rule="evenodd" d="M-20381.1,36207.1 L27728.6,31833.5 L21795,28036 L22051,27636 L22051,27635.9 L15639,23532.2 L15638.9,23532.2 L15382.9,23932.2 L8970.77,19828.5 L9226.78,19428.5 L9226.73,19428.3 L2814.79,15324.7 L2814.66,15324.7 L2558.65,15724.7 L-3129.67,12084.2 L-3140.13,12096.9 L-3100.35,12124.5 L-3104.67,12130.7 L-3215.4,12188.5 L-3310.88,12304.7 L-3420.07,12295.4 L-3517.22,12346.1 L-3650.13,12275.7 L-3774.58,12265.1 L-3780.98,12261 L-3754.89,12220.3 L-3769.45,12212.5 L-6734.14,16494.9 L-7124.63,16224.5 L-7124.73,16224.6 L-10587.2,21225.9 L-10587.2,21226 L-10196.7,21496.3 L-13659.2,26497.8 L-14049.7,26227.4 L-14049.8,26227.5 L-17512.3,31228.8 L-17512.3,31228.9 L-17121.8,31499.2 L-20381.1,36207.1"/>
</g>

<g fill="none" stroke="#000000" stroke-opacity="1" stroke-width="1" stroke-linecap="square" stroke-linejoin="bevel" transform="matrix(0.999985,0,0,-0.999985,20997.8,36263.5)"
font-family="MS Shell Dlg 2" font-size="10.3125" font-weight="400" font-style="normal" 
>
</g>

<g fill="none" stroke="#000000" stroke-opacity="1" stroke-width="1" stroke-linecap="square" stroke-linejoin="bevel" transform="matrix(1,0,0,-1,0,24527)"
font-family="MS Shell Dlg 2" font-size="10.3125" font-weight="400" font-style="normal" 
>
</g>
</g>
</svg>
