<?xml version="1.0" encoding="UTF-8" standalone="no"?>
<svg width="17619.1mm" height="18043mm"
 xmlns="http://www.w3.org/2000/svg" xmlns:xlink="http://www.w3.org/1999/xlink"  version="1.2" baseProfile="tiny">
<title>SVG Generator Example Drawing</title>
<desc>An SVG drawing created by the SVG Generator</desc>
<defs>
</defs>
<g fill="none" stroke="black" stroke-width="1" fill-rule="evenodd" stroke-linecap="square" stroke-linejoin="bevel" >

<g fill="none" stroke="#000000" stroke-opacity="1" stroke-width="1" stroke-linecap="square" stroke-linejoin="bevel" transform="matrix(1,0,0,-1,0,63932.8)"
font-family="MS Shell Dlg 2" font-size="10.3125" font-weight="400" font-style="normal" 
>
</g>

<g fill="none" stroke="#000000" stroke-opacity="1" stroke-width="1" stroke-linecap="square" stroke-linejoin="bevel" transform="matrix(1,0,0,-1,0,63932.8)"
font-family="MS Shell Dlg 2" font-size="10.3125" font-weight="400" font-style="normal" 
>
</g>

<g fill="none" stroke="#000000" stroke-opacity="1" stroke-width="1" stroke-linecap="square" stroke-linejoin="bevel" transform="matrix(0.999987,0,0,-0.999987,33893.3,36264)"
font-family="MS Shell Dlg 2" font-size="10.3125" font-weight="400" font-style="normal" 
>
</g>

<g fill="#333333" fill-opacity="0.2" stroke="#333333" stroke-opacity="1" stroke-width="1" stroke-linecap="round" stroke-linejoin="round" transform="matrix(0.999987,0,0,-0.999987,33893.3,36264)"
font-family="MS Shell Dlg 2" font-size="10.3125" font-weight="400" font-style="normal" 
>
<path vector-effect="non-scaling-stroke" fill-rule="evenodd" d="M22051.6,-12046.2 L-8257.57,-27408.3 L-8771.25,-27668.7 L-7747.58,-19948.5 L-7747.49,-19948.4 L-7276.68,-20010.8 L-4178.35,3355.78 L-4649.15,3418.21 L-4649.21,3418.33 L-3783.47,9947.44 L-3604.92,9790.84 L-3275.4,9666.75 L-2945.8,9790.62 L-2779.57,10101 L-2748.36,10336.5 L1550.56,6566.09 L1550.59,6565.97 L1237.43,6208.91 L16987.3,-7604.5 L17300.5,-7247.44 L17300.6,-7247.46 L22508.2,-11814.8 L22051.6,-12046.2"/>
</g>

<g fill="none" stroke="#000000" stroke-opacity="1" stroke-width="1" stroke-linecap="square" stroke-linejoin="bevel" transform="matrix(0.999987,0,0,-0.999987,33893.3,36264)"
font-family="MS Shell Dlg 2" font-size="10.3125" font-weight="400" font-style="normal" 
>
</g>

<g fill="none" stroke="#000000" stroke-opacity="1" stroke-width="1" stroke-linecap="square" stroke-linejoin="bevel" transform="matrix(0.999987,0,0,-0.999987,33893.3,36264)"
font-family="MS Shell Dlg 2" font-size="10.3125" font-weight="400" font-style="normal" 
>
</g>

<g fill="#333333" fill-opacity="0.2" stroke="#333333" stroke-opacity="1" stroke-width="1" stroke-linecap="round" stroke-linejoin="round" transform="matrix(0.999987,0,0,-0.999987,33893.3,36264)"
font-family="MS Shell Dlg 2" font-size="10.3125" font-weight="400" font-style="normal" 
>
<path vector-effect="non-scaling-stroke" fill-rule="evenodd" d="M-9219.98,-27058.9 L-33579.4,8959.76 L-27789.6,9288.26 L-27816.5,9762.43 L-27816.4,9762.5 L-21789.2,10104.5 L-21789.1,10104.4 L-21762.2,9630.24 L-15734.8,9972.22 L-15761.7,10446.4 L-15761.6,10446.5 L-9734.4,10788.4 L-9734.32,10788.4 L-9707.41,10314.2 L-4689.51,10598.9 L-4589.76,10285.3 L-4284.57,10162.3 L-5179.93,3409.86 L-4709.12,3347.43 L-4709.06,3347.31 L-5734.97,-4389.76 L-5735.06,-4389.86 L-6205.87,-4327.43 L-7231.81,-12064.7 L-6761,-12127.2 L-6760.94,-12127.3 L-7786.85,-19864.3 L-7786.94,-19864.4 L-8257.75,-19802 L-9219.98,-27058.9"/>
</g>

<g fill="none" stroke="#000000" stroke-opacity="1" stroke-width="1" stroke-linecap="square" stroke-linejoin="bevel" transform="matrix(0.999987,0,0,-0.999987,33893.3,36264)"
font-family="MS Shell Dlg 2" font-size="10.3125" font-weight="400" font-style="normal" 
>
</g>

<g fill="none" stroke="#000000" stroke-opacity="1" stroke-width="1" stroke-linecap="square" stroke-linejoin="bevel" transform="matrix(0.999987,0,0,-0.999987,33893.3,36264)"
font-family="MS Shell Dlg 2" font-size="10.3125" font-weight="400" font-style="normal" 
>
</g>

<g fill="#333333" fill-opacity="0.2" stroke="#333333" stroke-opacity="1" stroke-width="1" stroke-linecap="round" stroke-linejoin="round" transform="matrix(0.999987,0,0,-0.999987,33893.3,36264)"
font-family="MS Shell Dlg 2" font-size="10.3125" font-weight="400" font-style="normal" 
>
<path vector-effect="non-scaling-stroke" fill-rule="evenodd" d="M28451,31108.5 L22614,-11209.3 L17594.5,-6806.95 L17281.4,-7164.01 L17281.3,-7164 L12066.2,-2590.15 L12066.2,-2590.03 L12379.3,-2232.97 L7164.15,2341.01 L6851,1983.95 L6850.88,1983.96 L1635.83,6557.81 L1635.81,6557.93 L1948.96,6914.99 L-2476.43,10796.3 L-2319.79,11058.5 L-2435.29,11341.3 L3097.7,14882.5 L2841.69,15282.5 L2841.74,15282.6 L9253.68,19386.2 L9253.81,19386.2 L9509.82,18986.2 L15921.9,23090 L15665.9,23490 L15666,23490.1 L22077.9,27593.7 L22078,27593.7 L22334.1,27193.7 L28451,31108.5"/>
</g>

<g fill="none" stroke="#000000" stroke-opacity="1" stroke-width="1" stroke-linecap="square" stroke-linejoin="bevel" transform="matrix(0.999987,0,0,-0.999987,33893.3,36264)"
font-family="MS Shell Dlg 2" font-size="10.3125" font-weight="400" font-style="normal" 
>
</g>

<g fill="none" stroke="#000000" stroke-opacity="1" stroke-width="1" stroke-linecap="square" stroke-linejoin="bevel" transform="matrix(0.999987,0,0,-0.999987,33893.3,36264)"
font-family="MS Shell Dlg 2" font-size="10.3125" font-weight="400" font-style="normal" 
>
</g>

<g fill="#333333" fill-opacity="0.2" stroke="#333333" stroke-opacity="1" stroke-width="1" stroke-linecap="round" stroke-linejoin="round" transform="matrix(0.999987,0,0,-0.999987,33893.3,36264)"
font-family="MS Shell Dlg 2" font-size="10.3125" font-weight="400" font-style="normal" 
>
<path vector-effect="non-scaling-stroke" fill-rule="evenodd" d="M-33646.1,9982.63 L-21279,35747.3 L-17944,30930 L-17553.5,31200.4 L-17553.4,31200.3 L-14090.9,26199 L-14090.9,26198.9 L-14481.4,25928.6 L-11018.9,20927.1 L-10628.4,21197.4 L-10628.3,21197.4 L-7165.84,16196.1 L-7165.85,16196 L-7556.33,15925.7 L-4839.04,12000.7 L-4912.45,11968.8 L-5064.27,11657.9 L-4977.92,11322.9 L-4835.04,11116.5 L-9676.79,10841.8 L-9676.88,10841.8 L-9703.78,11316 L-27906.5,10283.2 L-27879.6,9809.07 L-27879.7,9808.99 L-33893.2,9467.8 L-33646.1,9982.63"/>
</g>

<g fill="none" stroke="#000000" stroke-opacity="1" stroke-width="1" stroke-linecap="square" stroke-linejoin="bevel" transform="matrix(0.999987,0,0,-0.999987,33893.3,36264)"
font-family="MS Shell Dlg 2" font-size="10.3125" font-weight="400" font-style="normal" 
>
</g>

<g fill="none" stroke="#000000" stroke-opacity="1" stroke-width="1" stroke-linecap="square" stroke-linejoin="bevel" transform="matrix(0.999987,0,0,-0.999987,33893.3,36264)"
font-family="MS Shell Dlg 2" font-size="10.3125" font-weight="400" font-style="normal" 
>
</g>

<g fill="#333333" fill-opacity="0.2" stroke="#333333" stroke-opacity="1" stroke-width="1" stroke-linecap="round" stroke-linejoin="round" transform="matrix(0.999987,0,0,-0.999987,33893.3,36264)"
font-family="MS Shell Dlg 2" font-size="10.3125" font-weight="400" font-style="normal" 
>
<path vector-effect="non-scaling-stroke" fill-rule="evenodd" d="M-4286.02,12124.2 L-7090.01,16174.4 L-7090,16174.5 L-6699.52,16444.9 L-17156.4,31549.2 L-17546.9,31278.9 L-17547,31278.9 L-20997.6,36263.1 L-20381.1,36207.1 L27688,31837.2 L27689.5,31837 L27728.6,31833.5 L28500.2,31763.3 L22115.3,27677 L22115.1,27677 L21859.1,28077 L2494.52,15683.7 L2750.54,15283.7 L2750.48,15283.6 L-2790.85,11737.1 L-2872.95,11809.1 L-2913.5,11854.6 L-3090.04,12109.6 L-3128.59,12082.9 L-3140.13,12096.9 L-3100.35,12124.5 L-3104.67,12130.7 L-3215.4,12188.5 L-3310.88,12304.7 L-3420.07,12295.4 L-3517.22,12346.1 L-3650.13,12275.7 L-3774.58,12265.1 L-3780.98,12261 L-3754.89,12220.3 L-3770.96,12211.7 L-3796.24,12251.2 L-3912.11,12177.1 L-4030.71,12138.7 L-4286.02,12124.2"/>
</g>

<g fill="none" stroke="#000000" stroke-opacity="1" stroke-width="1" stroke-linecap="square" stroke-linejoin="bevel" transform="matrix(0.999987,0,0,-0.999987,33893.3,36264)"
font-family="MS Shell Dlg 2" font-size="10.3125" font-weight="400" font-style="normal" 
>
</g>

<g fill="none" stroke="#000000" stroke-opacity="1" stroke-width="1" stroke-linecap="square" stroke-linejoin="bevel" transform="matrix(0.999987,0,0,-0.999987,33893.3,36264)"
font-family="MS Shell Dlg 2" font-size="10.3125" font-weight="400" font-style="normal" 
>
</g>

<g fill="#ae5151" fill-opacity="0.2" stroke="#333333" stroke-opacity="1" stroke-width="1" stroke-linecap="round" stroke-linejoin="round" transform="matrix(0.999987,0,0,-0.999987,33893.3,36264)"
font-family="MS Shell Dlg 2" font-size="10.3125" font-weight="400" font-style="normal" 
>
<path vector-effect="non-scaling-stroke" fill-rule="evenodd" d="M22051.6,-12046.2 L-8257.57,-27408.3 L-8771.25,-27668.7 L-7747.58,-19948.5 L-7747.49,-19948.4 L-7276.68,-20010.8 L-4178.35,3355.78 L-4649.15,3418.21 L-4649.21,3418.33 L-3783.47,9947.44 L-3604.92,9790.84 L-3275.4,9666.75 L-2945.8,9790.62 L-2779.57,10101 L-2748.36,10336.5 L1550.56,6566.09 L1550.59,6565.97 L1237.43,6208.91 L16987.3,-7604.5 L17300.5,-7247.44 L17300.6,-7247.46 L22508.2,-11814.8 L22051.6,-12046.2"/>
</g>

<g fill="none" stroke="#000000" stroke-opacity="1" stroke-width="1" stroke-linecap="square" stroke-linejoin="bevel" transform="matrix(0.999987,0,0,-0.999987,33893.3,36264)"
font-family="MS Shell Dlg 2" font-size="10.3125" font-weight="400" font-style="normal" 
>
</g>

<g fill="none" stroke="#000000" stroke-opacity="1" stroke-width="1" stroke-linecap="square" stroke-linejoin="bevel" transform="matrix(0.999987,0,0,-0.999987,33893.3,36264)"
font-family="MS Shell Dlg 2" font-size="10.3125" font-weight="400" font-style="normal" 
>
</g>

<g fill="#ae5151" fill-opacity="0.2" stroke="#333333" stroke-opacity="1" stroke-width="1" stroke-linecap="round" stroke-linejoin="round" transform="matrix(0.999987,0,0,-0.999987,33893.3,36264)"
font-family="MS Shell Dlg 2" font-size="10.3125" font-weight="400" font-style="normal" 
>
<path vector-effect="non-scaling-stroke" fill-rule="evenodd" d="M-9219.98,-27058.9 L-33579.4,8959.76 L-27789.6,9288.26 L-27816.5,9762.43 L-27816.4,9762.5 L-21789.2,10104.5 L-21789.1,10104.4 L-21762.2,9630.24 L-15734.8,9972.22 L-15761.7,10446.4 L-15761.6,10446.5 L-9734.4,10788.4 L-9734.32,10788.4 L-9707.41,10314.2 L-4689.51,10598.9 L-4589.76,10285.3 L-4284.57,10162.3 L-5179.93,3409.86 L-4709.12,3347.43 L-4709.06,3347.31 L-5734.97,-4389.76 L-5735.06,-4389.86 L-6205.87,-4327.43 L-7231.81,-12064.7 L-6761,-12127.2 L-6760.94,-12127.3 L-7786.85,-19864.3 L-7786.94,-19864.4 L-8257.75,-19802 L-9219.98,-27058.9"/>
</g>

<g fill="none" stroke="#000000" stroke-opacity="1" stroke-width="1" stroke-linecap="square" stroke-linejoin="bevel" transform="matrix(0.999987,0,0,-0.999987,33893.3,36264)"
font-family="MS Shell Dlg 2" font-size="10.3125" font-weight="400" font-style="normal" 
>
</g>

<g fill="none" stroke="#000000" stroke-opacity="1" stroke-width="1" stroke-linecap="square" stroke-linejoin="bevel" transform="matrix(0.999987,0,0,-0.999987,33893.3,36264)"
font-family="MS Shell Dlg 2" font-size="10.3125" font-weight="400" font-style="normal" 
>
</g>

<g fill="#ae5151" fill-opacity="0.2" stroke="#333333" stroke-opacity="1" stroke-width="1" stroke-linecap="round" stroke-linejoin="round" transform="matrix(0.999987,0,0,-0.999987,33893.3,36264)"
font-family="MS Shell Dlg 2" font-size="10.3125" font-weight="400" font-style="normal" 
>
<path vector-effect="non-scaling-stroke" fill-rule="evenodd" d="M28451,31108.5 L22614,-11209.3 L17594.5,-6806.95 L17281.4,-7164.01 L17281.3,-7164 L12066.2,-2590.15 L12066.2,-2590.03 L12379.3,-2232.97 L7164.15,2341.01 L6851,1983.95 L6850.88,1983.96 L1635.83,6557.81 L1635.81,6557.93 L1948.96,6914.99 L-2476.43,10796.3 L-2319.79,11058.5 L-2435.29,11341.3 L3097.7,14882.5 L2841.69,15282.5 L2841.74,15282.6 L9253.68,19386.2 L9253.81,19386.2 L9509.82,18986.2 L15921.9,23090 L15665.9,23490 L15666,23490.1 L22077.9,27593.7 L22078,27593.7 L22334.1,27193.7 L28451,31108.5"/>
</g>

<g fill="none" stroke="#000000" stroke-opacity="1" stroke-width="1" stroke-linecap="square" stroke-linejoin="bevel" transform="matrix(0.999987,0,0,-0.999987,33893.3,36264)"
font-family="MS Shell Dlg 2" font-size="10.3125" font-weight="400" font-style="normal" 
>
</g>

<g fill="none" stroke="#000000" stroke-opacity="1" stroke-width="1" stroke-linecap="square" stroke-linejoin="bevel" transform="matrix(0.999987,0,0,-0.999987,33893.3,36264)"
font-family="MS Shell Dlg 2" font-size="10.3125" font-weight="400" font-style="normal" 
>
</g>

<g fill="#ae5151" fill-opacity="0.2" stroke="#333333" stroke-opacity="1" stroke-width="1" stroke-linecap="round" stroke-linejoin="round" transform="matrix(0.999987,0,0,-0.999987,33893.3,36264)"
font-family="MS Shell Dlg 2" font-size="10.3125" font-weight="400" font-style="normal" 
>
<path vector-effect="non-scaling-stroke" fill-rule="evenodd" d="M-33646.1,9982.63 L-21279,35747.3 L-17944,30930 L-17553.5,31200.4 L-17553.4,31200.3 L-14090.9,26199 L-14090.9,26198.9 L-14481.4,25928.6 L-11018.9,20927.1 L-10628.4,21197.4 L-10628.3,21197.4 L-7165.84,16196.1 L-7165.85,16196 L-7556.33,15925.7 L-4839.04,12000.7 L-4912.45,11968.8 L-5064.27,11657.9 L-4977.92,11322.9 L-4835.04,11116.5 L-9676.79,10841.8 L-9676.88,10841.8 L-9703.78,11316 L-27906.5,10283.2 L-27879.6,9809.07 L-27879.7,9808.99 L-33893.2,9467.8 L-33646.1,9982.63"/>
</g>

<g fill="none" stroke="#000000" stroke-opacity="1" stroke-width="1" stroke-linecap="square" stroke-linejoin="bevel" transform="matrix(0.999987,0,0,-0.999987,33893.3,36264)"
font-family="MS Shell Dlg 2" font-size="10.3125" font-weight="400" font-style="normal" 
>
</g>

<g fill="none" stroke="#000000" stroke-opacity="1" stroke-width="1" stroke-linecap="square" stroke-linejoin="bevel" transform="matrix(0.999987,0,0,-0.999987,33893.3,36264)"
font-family="MS Shell Dlg 2" font-size="10.3125" font-weight="400" font-style="normal" 
>
</g>

<g fill="#ae5151" fill-opacity="0.2" stroke="#333333" stroke-opacity="1" stroke-width="1" stroke-linecap="round" stroke-linejoin="round" transform="matrix(0.999987,0,0,-0.999987,33893.3,36264)"
font-family="MS Shell Dlg 2" font-size="10.3125" font-weight="400" font-style="normal" 
>
<path vector-effect="non-scaling-stroke" fill-rule="evenodd" d="M-4286.02,12124.2 L-7090.01,16174.4 L-7090,16174.5 L-6699.52,16444.9 L-17156.4,31549.2 L-17546.9,31278.9 L-17547,31278.9 L-20997.6,36263.1 L-20381.1,36207.1 L27688,31837.2 L27689.5,31837 L27728.6,31833.5 L28500.2,31763.3 L22115.3,27677 L22115.1,27677 L21859.1,28077 L2494.52,15683.7 L2750.54,15283.7 L2750.48,15283.6 L-2790.85,11737.1 L-2872.95,11809.1 L-2913.5,11854.6 L-3090.04,12109.6 L-3128.59,12082.9 L-3140.13,12096.9 L-3100.35,12124.5 L-3104.67,12130.7 L-3215.4,12188.5 L-3310.88,12304.7 L-3420.07,12295.4 L-3517.22,12346.1 L-3650.13,12275.7 L-3774.58,12265.1 L-3780.98,12261 L-3754.89,12220.3 L-3770.96,12211.7 L-3796.24,12251.2 L-3912.11,12177.1 L-4030.71,12138.7 L-4286.02,12124.2"/>
</g>

<g fill="none" stroke="#000000" stroke-opacity="1" stroke-width="1" stroke-linecap="square" stroke-linejoin="bevel" transform="matrix(0.999987,0,0,-0.999987,33893.3,36264)"
font-family="MS Shell Dlg 2" font-size="10.3125" font-weight="400" font-style="normal" 
>
</g>

<g fill="none" stroke="#000000" stroke-opacity="1" stroke-width="1" stroke-linecap="square" stroke-linejoin="bevel" transform="matrix(0.999987,0,0,-0.999987,33893.3,36264)"
font-family="MS Shell Dlg 2" font-size="10.3125" font-weight="400" font-style="normal" 
>
</g>

<g fill="#ffff00" fill-opacity="0.2" stroke="#333333" stroke-opacity="1" stroke-width="1" stroke-linecap="round" stroke-linejoin="round" transform="matrix(0.999987,0,0,-0.999987,33893.3,36264)"
font-family="MS Shell Dlg 2" font-size="10.3125" font-weight="400" font-style="normal" 
>
<path vector-effect="non-scaling-stroke" fill-rule="evenodd" d="M22051.6,-12046.2 L22032.4,-12055.9 L22027.6,-12058.3 L-8230.53,-27394.6 L-8744.21,-27655 L-6686.58,-12137 L-6240.48,-12196.2 L-5214.54,-4458.88 L-5660.64,-4399.73 L-3760.88,9927.62 L-3604.92,9790.84 L-3275.4,9666.75 L-2945.8,9790.62 L-2779.57,10101 L-2752.31,10306.7 L6801.5,1927.51 L6504.78,1589.19 L11720,-2984.78 L12016.7,-2646.47 L22484.1,-11826.9 L22051.6,-12046.2"/>
</g>

<g fill="none" stroke="#000000" stroke-opacity="1" stroke-width="1" stroke-linecap="square" stroke-linejoin="bevel" transform="matrix(0.999987,0,0,-0.999987,33893.3,36264)"
font-family="MS Shell Dlg 2" font-size="10.3125" font-weight="400" font-style="normal" 
>
</g>

<g fill="none" stroke="#000000" stroke-opacity="1" stroke-width="1" stroke-linecap="square" stroke-linejoin="bevel" transform="matrix(0.999987,0,0,-0.999987,33893.3,36264)"
font-family="MS Shell Dlg 2" font-size="10.3125" font-weight="400" font-style="normal" 
>
</g>

<g fill="#ffff00" fill-opacity="0.2" stroke="#333333" stroke-opacity="1" stroke-width="1" stroke-linecap="round" stroke-linejoin="round" transform="matrix(0.999987,0,0,-0.999987,33893.3,36264)"
font-family="MS Shell Dlg 2" font-size="10.3125" font-weight="400" font-style="normal" 
>
<path vector-effect="non-scaling-stroke" fill-rule="evenodd" d="M-8840.45,-27620 L-9219.98,-27058.9 L-33563.1,8935.65 L-33873,9393.83 L-21787.7,10079.5 L-21762.2,9630.24 L-15734.8,9972.22 L-15760.3,10421.5 L-4785,11044.2 L-4743.24,10983.9 L-4702.43,10814.8 L-4718.84,10691.1 L-4589.76,10285.3 L-4194.85,10126.2 L-4098.04,10131.7 L-3925.95,10072.4 L-3851.25,10006.9 L-5759.77,-4386.58 L-6205.87,-4327.43 L-7231.81,-12064.7 L-6785.71,-12123.9 L-8840.45,-27620"/>
</g>

<g fill="none" stroke="#000000" stroke-opacity="1" stroke-width="1" stroke-linecap="square" stroke-linejoin="bevel" transform="matrix(0.999987,0,0,-0.999987,33893.3,36264)"
font-family="MS Shell Dlg 2" font-size="10.3125" font-weight="400" font-style="normal" 
>
</g>

<g fill="none" stroke="#000000" stroke-opacity="1" stroke-width="1" stroke-linecap="square" stroke-linejoin="bevel" transform="matrix(0.999987,0,0,-0.999987,33893.3,36264)"
font-family="MS Shell Dlg 2" font-size="10.3125" font-weight="400" font-style="normal" 
>
</g>

<g fill="#ffff00" fill-opacity="0.2" stroke="#333333" stroke-opacity="1" stroke-width="1" stroke-linecap="round" stroke-linejoin="round" transform="matrix(0.999987,0,0,-0.999987,33893.3,36264)"
font-family="MS Shell Dlg 2" font-size="10.3125" font-weight="400" font-style="normal" 
>
<path vector-effect="non-scaling-stroke" fill-rule="evenodd" d="M28531.8,31694.5 L28446.5,31076 L22614,-11209.3 L22540.4,-11743.2 L12082.6,-2571.29 L12379.3,-2232.97 L7164.15,2341.01 L6867.43,2002.69 L-2736.51,10425.8 L-2732.32,10457.4 L-2624.77,10626.4 L-2548.84,10675 L-2319.79,11058.5 L-2488.68,11472.1 L-2732.16,11685.6 L9267.24,19365.2 L9509.82,18986.2 L15921.9,23090 L15679.4,23469 L28531.8,31694.5"/>
</g>

<g fill="none" stroke="#000000" stroke-opacity="1" stroke-width="1" stroke-linecap="square" stroke-linejoin="bevel" transform="matrix(0.999987,0,0,-0.999987,33893.3,36264)"
font-family="MS Shell Dlg 2" font-size="10.3125" font-weight="400" font-style="normal" 
>
</g>

<g fill="none" stroke="#000000" stroke-opacity="1" stroke-width="1" stroke-linecap="square" stroke-linejoin="bevel" transform="matrix(0.999987,0,0,-0.999987,33893.3,36264)"
font-family="MS Shell Dlg 2" font-size="10.3125" font-weight="400" font-style="normal" 
>
</g>

<g fill="#ffff00" fill-opacity="0.2" stroke="#333333" stroke-opacity="1" stroke-width="1" stroke-linecap="round" stroke-linejoin="round" transform="matrix(0.999987,0,0,-0.999987,33893.3,36264)"
font-family="MS Shell Dlg 2" font-size="10.3125" font-weight="400" font-style="normal" 
>
<path vector-effect="non-scaling-stroke" fill-rule="evenodd" d="M-33880.9,9493.54 L-33646.1,9982.63 L-21291.5,35721.4 L-21054.9,36214.2 L-14111.4,26184.7 L-14481.4,25928.6 L-11018.9,20927.1 L-10648.9,21183.3 L-4373.8,12119.2 L-4595.14,12106.7 L-4912.45,11968.8 L-5064.27,11657.9 L-4977.92,11322.9 L-4851.72,11140.6 L-15766,10521.3 L-15791.5,10970.6 L-21818.8,10628.6 L-21793.4,10179.4 L-33880.9,9493.54"/>
</g>

<g fill="none" stroke="#000000" stroke-opacity="1" stroke-width="1" stroke-linecap="square" stroke-linejoin="bevel" transform="matrix(0.999987,0,0,-0.999987,33893.3,36264)"
font-family="MS Shell Dlg 2" font-size="10.3125" font-weight="400" font-style="normal" 
>
</g>

<g fill="none" stroke="#000000" stroke-opacity="1" stroke-width="1" stroke-linecap="square" stroke-linejoin="bevel" transform="matrix(0.999987,0,0,-0.999987,33893.3,36264)"
font-family="MS Shell Dlg 2" font-size="10.3125" font-weight="400" font-style="normal" 
>
</g>

<g fill="#ffff00" fill-opacity="0.2" stroke="#333333" stroke-opacity="1" stroke-width="1" stroke-linecap="round" stroke-linejoin="round" transform="matrix(0.999987,0,0,-0.999987,33893.3,36264)"
font-family="MS Shell Dlg 2" font-size="10.3125" font-weight="400" font-style="normal" 
>
<path vector-effect="non-scaling-stroke" fill-rule="evenodd" d="M-20965.1,36260.2 L-20381.1,36207.1 L27728.6,31833.5 L28459.6,31767 L15625.5,23553.2 L15382.9,23932.2 L8970.77,19828.5 L9213.34,19449.5 L-2810.42,11754.3 L-2872.95,11809.1 L-2913.5,11854.6 L-3090.04,12109.6 L-3128.59,12082.9 L-3140.13,12096.9 L-3100.35,12124.5 L-3104.67,12130.7 L-3215.4,12188.5 L-3310.88,12304.7 L-3420.07,12295.4 L-3517.22,12346.1 L-3650.13,12275.7 L-3774.58,12265.1 L-3780.98,12261 L-3754.89,12220.3 L-3770.96,12211.7 L-3796.24,12251.2 L-3912.11,12177.1 L-4030.71,12138.7 L-4256.77,12125.9 L-10566.7,21240.2 L-10196.7,21496.3 L-13659.2,26497.8 L-14029.2,26241.6 L-20965.1,36260.2"/>
</g>

<g fill="none" stroke="#000000" stroke-opacity="1" stroke-width="1" stroke-linecap="square" stroke-linejoin="bevel" transform="matrix(0.999987,0,0,-0.999987,33893.3,36264)"
font-family="MS Shell Dlg 2" font-size="10.3125" font-weight="400" font-style="normal" 
>
</g>

<g fill="none" stroke="#000000" stroke-opacity="1" stroke-width="1" stroke-linecap="square" stroke-linejoin="bevel" transform="matrix(0.999987,0,0,-0.999987,33893.3,36264)"
font-family="MS Shell Dlg 2" font-size="10.3125" font-weight="400" font-style="normal" 
>
</g>

<g fill="#ae5151" fill-opacity="0.2" stroke="#333333" stroke-opacity="1" stroke-width="1" stroke-linecap="round" stroke-linejoin="round" transform="matrix(0.999987,0,0,-0.999987,33893.3,36264)"
font-family="MS Shell Dlg 2" font-size="10.3125" font-weight="400" font-style="normal" 
>
<path vector-effect="non-scaling-stroke" fill-rule="evenodd" d="M22051.6,-12046.2 L-8257.57,-27408.3 L-7266.42,-19933.5 L-7737.23,-19871 L-7737.29,-19870.9 L-6711.38,-12133.8 L-6711.29,-12133.7 L-6240.48,-12196.2 L-5214.54,-4458.88 L-5685.35,-4396.45 L-5685.41,-4396.33 L-4659.5,3340.74 L-4659.41,3340.84 L-4188.61,3278.41 L-3338.39,9690.47 L-3275.4,9666.75 L-2945.8,9790.62 L-2914.03,9849.95 L1289.59,6163.17 L1602.74,6520.23 L1602.86,6520.22 L6817.91,1946.37 L6817.93,1946.25 L6504.78,1589.19 L11720,-2984.78 L12033.1,-2627.73 L12033.2,-2627.74 L17248.3,-7201.59 L17248.3,-7201.71 L16935.2,-7558.76 L22051.6,-12046.2"/>
</g>

<g fill="none" stroke="#000000" stroke-opacity="1" stroke-width="1" stroke-linecap="square" stroke-linejoin="bevel" transform="matrix(0.999987,0,0,-0.999987,33893.3,36264)"
font-family="MS Shell Dlg 2" font-size="10.3125" font-weight="400" font-style="normal" 
>
</g>

<g fill="none" stroke="#000000" stroke-opacity="1" stroke-width="1" stroke-linecap="square" stroke-linejoin="bevel" transform="matrix(0.999987,0,0,-0.999987,33893.3,36264)"
font-family="MS Shell Dlg 2" font-size="10.3125" font-weight="400" font-style="normal" 
>
</g>

<g fill="#ae5151" fill-opacity="0.2" stroke="#333333" stroke-opacity="1" stroke-width="1" stroke-linecap="round" stroke-linejoin="round" transform="matrix(0.999987,0,0,-0.999987,33893.3,36264)"
font-family="MS Shell Dlg 2" font-size="10.3125" font-weight="400" font-style="normal" 
>
<path vector-effect="non-scaling-stroke" fill-rule="evenodd" d="M-9219.98,-27058.9 L-33579.4,8959.76 L-33889.3,9417.95 L-27876.9,9759.08 L-27876.8,9759.01 L-27849.9,9284.84 L-9647.14,10317.6 L-9674.04,10791.8 L-9673.96,10791.9 L-4801.68,11068.3 L-4743.24,10983.9 L-4702.43,10814.8 L-4718.84,10691.1 L-4589.76,10285.3 L-4194.85,10126.2 L-4098.04,10131.7 L-3925.95,10072.4 L-3828.66,9987.06 L-4698.78,3424.9 L-4698.86,3424.8 L-5169.67,3487.23 L-8268.01,-19879.4 L-7797.2,-19941.8 L-7797.14,-19941.9 L-8819.37,-27651.2 L-9219.98,-27058.9"/>
</g>

<g fill="none" stroke="#000000" stroke-opacity="1" stroke-width="1" stroke-linecap="square" stroke-linejoin="bevel" transform="matrix(0.999987,0,0,-0.999987,33893.3,36264)"
font-family="MS Shell Dlg 2" font-size="10.3125" font-weight="400" font-style="normal" 
>
</g>

<g fill="none" stroke="#000000" stroke-opacity="1" stroke-width="1" stroke-linecap="square" stroke-linejoin="bevel" transform="matrix(0.999987,0,0,-0.999987,33893.3,36264)"
font-family="MS Shell Dlg 2" font-size="10.3125" font-weight="400" font-style="normal" 
>
</g>

<g fill="#ae5151" fill-opacity="0.2" stroke="#333333" stroke-opacity="1" stroke-width="1" stroke-linecap="round" stroke-linejoin="round" transform="matrix(0.999987,0,0,-0.999987,33893.3,36264)"
font-family="MS Shell Dlg 2" font-size="10.3125" font-weight="400" font-style="normal" 
>
<path vector-effect="non-scaling-stroke" fill-rule="evenodd" d="M28446.5,31076 L22614,-11209.3 L22536.3,-11772.9 L17333.6,-7209.87 L17333.5,-7209.75 L17646.7,-6852.69 L1896.81,6960.73 L1583.65,6603.67 L1583.53,6603.68 L-2740.46,10396 L-2732.32,10457.4 L-2624.77,10626.4 L-2548.84,10675 L-2319.79,11058.5 L-2488.68,11472.1 L-2751.72,11702.8 L2777.44,15241.4 L2777.57,15241.4 L3033.58,14841.4 L22398.2,27234.8 L22142.2,27634.8 L22142.2,27634.9 L28536.3,31727.1 L28446.5,31076"/>
</g>

<g fill="none" stroke="#000000" stroke-opacity="1" stroke-width="1" stroke-linecap="square" stroke-linejoin="bevel" transform="matrix(0.999987,0,0,-0.999987,33893.3,36264)"
font-family="MS Shell Dlg 2" font-size="10.3125" font-weight="400" font-style="normal" 
>
</g>

<g fill="none" stroke="#000000" stroke-opacity="1" stroke-width="1" stroke-linecap="square" stroke-linejoin="bevel" transform="matrix(0.999987,0,0,-0.999987,33893.3,36264)"
font-family="MS Shell Dlg 2" font-size="10.3125" font-weight="400" font-style="normal" 
>
</g>

<g fill="#ae5151" fill-opacity="0.2" stroke="#333333" stroke-opacity="1" stroke-width="1" stroke-linecap="round" stroke-linejoin="round" transform="matrix(0.999987,0,0,-0.999987,33893.3,36264)"
font-family="MS Shell Dlg 2" font-size="10.3125" font-weight="400" font-style="normal" 
>
<path vector-effect="non-scaling-stroke" fill-rule="evenodd" d="M-5044.29,11580.4 L-9764.06,11312.6 L-9737.16,10838.4 L-9737.24,10838.4 L-15764.5,10496.4 L-15764.5,10496.4 L-15791.5,10970.6 L-21818.8,10628.6 L-21791.9,10154.5 L-21792,10154.4 L-27819.2,9812.42 L-27819.3,9812.49 L-27846.2,10286.7 L-33658.5,9956.88 L-21291.5,35721.4 L-21042.5,36240.2 L-17588.1,31250.5 L-17588.1,31250.4 L-17978.6,30980 L-7521.71,15875.6 L-7131.23,16146 L-7131.12,16146 L-4344.54,12120.9 L-4595.14,12106.7 L-4912.45,11968.8 L-5064.27,11657.9 L-5044.29,11580.4"/>
</g>

<g fill="none" stroke="#000000" stroke-opacity="1" stroke-width="1" stroke-linecap="square" stroke-linejoin="bevel" transform="matrix(0.999987,0,0,-0.999987,33893.3,36264)"
font-family="MS Shell Dlg 2" font-size="10.3125" font-weight="400" font-style="normal" 
>
</g>

<g fill="none" stroke="#000000" stroke-opacity="1" stroke-width="1" stroke-linecap="square" stroke-linejoin="bevel" transform="matrix(0.999987,0,0,-0.999987,33893.3,36264)"
font-family="MS Shell Dlg 2" font-size="10.3125" font-weight="400" font-style="normal" 
>
</g>

<g fill="#ae5151" fill-opacity="0.2" stroke="#333333" stroke-opacity="1" stroke-width="1" stroke-linecap="round" stroke-linejoin="round" transform="matrix(0.999987,0,0,-0.999987,33893.3,36264)"
font-family="MS Shell Dlg 2" font-size="10.3125" font-weight="400" font-style="normal" 
>
<path vector-effect="non-scaling-stroke" fill-rule="evenodd" d="M-20381.1,36207.1 L27728.6,31833.5 L21795,28036 L22051,27636 L22051,27635.9 L15639,23532.2 L15638.9,23532.2 L15382.9,23932.2 L8970.77,19828.5 L9226.78,19428.5 L9226.73,19428.3 L2814.79,15324.7 L2814.66,15324.7 L2558.65,15724.7 L-3129.67,12084.2 L-3140.13,12096.9 L-3100.35,12124.5 L-3104.67,12130.7 L-3215.4,12188.5 L-3310.88,12304.7 L-3420.07,12295.4 L-3517.22,12346.1 L-3650.13,12275.7 L-3774.58,12265.1 L-3780.98,12261 L-3754.89,12220.3 L-3769.45,12212.5 L-6734.14,16494.9 L-7124.63,16224.5 L-7124.73,16224.6 L-10587.2,21225.9 L-10587.2,21226 L-10196.7,21496.3 L-13659.2,26497.8 L-14049.7,26227.4 L-14049.8,26227.5 L-17512.3,31228.8 L-17512.3,31228.9 L-17121.8,31499.2 L-20381.1,36207.1"/>
</g>

<g fill="none" stroke="#000000" stroke-opacity="1" stroke-width="1" stroke-linecap="square" stroke-linejoin="bevel" transform="matrix(0.999987,0,0,-0.999987,33893.3,36264)"
font-family="MS Shell Dlg 2" font-size="10.3125" font-weight="400" font-style="normal" 
>
</g>

<g fill="none" stroke="#000000" stroke-opacity="1" stroke-width="1" stroke-linecap="square" stroke-linejoin="bevel" transform="matrix(0.999987,0,0,-0.999987,33893.3,36264)"
font-family="MS Shell Dlg 2" font-size="10.3125" font-weight="400" font-style="normal" 
>
</g>

<g fill="#333333" fill-opacity="0.2" stroke="#333333" stroke-opacity="1" stroke-width="1" stroke-linecap="round" stroke-linejoin="round" transform="matrix(0.999987,0,0,-0.999987,33893.3,36264)"
font-family="MS Shell Dlg 2" font-size="10.3125" font-weight="400" font-style="normal" 
>
<path vector-effect="non-scaling-stroke" fill-rule="evenodd" d="M22051.6,-12046.2 L-8257.57,-27408.3 L-7266.42,-19933.5 L-7737.23,-19871 L-7737.29,-19870.9 L-6711.38,-12133.8 L-6711.29,-12133.7 L-6240.48,-12196.2 L-5214.54,-4458.88 L-5685.35,-4396.45 L-5685.41,-4396.33 L-4659.5,3340.74 L-4659.41,3340.84 L-4188.61,3278.41 L-3338.39,9690.47 L-3275.4,9666.75 L-2945.8,9790.62 L-2914.03,9849.95 L1289.59,6163.17 L1602.74,6520.23 L1602.86,6520.22 L6817.91,1946.37 L6817.93,1946.25 L6504.78,1589.19 L11720,-2984.78 L12033.1,-2627.73 L12033.2,-2627.74 L17248.3,-7201.59 L17248.3,-7201.71 L16935.2,-7558.76 L22051.6,-12046.2"/>
</g>

<g fill="none" stroke="#000000" stroke-opacity="1" stroke-width="1" stroke-linecap="square" stroke-linejoin="bevel" transform="matrix(0.999987,0,0,-0.999987,33893.3,36264)"
font-family="MS Shell Dlg 2" font-size="10.3125" font-weight="400" font-style="normal" 
>
</g>

<g fill="none" stroke="#000000" stroke-opacity="1" stroke-width="1" stroke-linecap="square" stroke-linejoin="bevel" transform="matrix(0.999987,0,0,-0.999987,33893.3,36264)"
font-family="MS Shell Dlg 2" font-size="10.3125" font-weight="400" font-style="normal" 
>
</g>

<g fill="#333333" fill-opacity="0.2" stroke="#333333" stroke-opacity="1" stroke-width="1" stroke-linecap="round" stroke-linejoin="round" transform="matrix(0.999987,0,0,-0.999987,33893.3,36264)"
font-family="MS Shell Dlg 2" font-size="10.3125" font-weight="400" font-style="normal" 
>
<path vector-effect="non-scaling-stroke" fill-rule="evenodd" d="M-9219.98,-27058.9 L-33579.4,8959.76 L-33889.3,9417.95 L-27876.9,9759.08 L-27876.8,9759.01 L-27849.9,9284.84 L-9647.14,10317.6 L-9674.04,10791.8 L-9673.96,10791.9 L-4801.68,11068.3 L-4743.24,10983.9 L-4702.43,10814.8 L-4718.84,10691.1 L-4589.76,10285.3 L-4194.85,10126.2 L-4098.04,10131.7 L-3925.95,10072.4 L-3828.66,9987.06 L-4698.78,3424.9 L-4698.86,3424.8 L-5169.67,3487.23 L-8268.01,-19879.4 L-7797.2,-19941.8 L-7797.14,-19941.9 L-8819.37,-27651.2 L-9219.98,-27058.9"/>
</g>

<g fill="none" stroke="#000000" stroke-opacity="1" stroke-width="1" stroke-linecap="square" stroke-linejoin="bevel" transform="matrix(0.999987,0,0,-0.999987,33893.3,36264)"
font-family="MS Shell Dlg 2" font-size="10.3125" font-weight="400" font-style="normal" 
>
</g>

<g fill="none" stroke="#000000" stroke-opacity="1" stroke-width="1" stroke-linecap="square" stroke-linejoin="bevel" transform="matrix(0.999987,0,0,-0.999987,33893.3,36264)"
font-family="MS Shell Dlg 2" font-size="10.3125" font-weight="400" font-style="normal" 
>
</g>

<g fill="#333333" fill-opacity="0.2" stroke="#333333" stroke-opacity="1" stroke-width="1" stroke-linecap="round" stroke-linejoin="round" transform="matrix(0.999987,0,0,-0.999987,33893.3,36264)"
font-family="MS Shell Dlg 2" font-size="10.3125" font-weight="400" font-style="normal" 
>
<path vector-effect="non-scaling-stroke" fill-rule="evenodd" d="M28446.5,31076 L22614,-11209.3 L22536.3,-11772.9 L17333.6,-7209.87 L17333.5,-7209.75 L17646.7,-6852.69 L1896.81,6960.73 L1583.65,6603.67 L1583.53,6603.68 L-2740.46,10396 L-2732.32,10457.4 L-2624.77,10626.4 L-2548.84,10675 L-2319.79,11058.5 L-2488.68,11472.1 L-2751.72,11702.8 L2777.44,15241.4 L2777.57,15241.4 L3033.58,14841.4 L22398.2,27234.8 L22142.2,27634.8 L22142.2,27634.9 L28536.3,31727.1 L28446.5,31076"/>
</g>

<g fill="none" stroke="#000000" stroke-opacity="1" stroke-width="1" stroke-linecap="square" stroke-linejoin="bevel" transform="matrix(0.999987,0,0,-0.999987,33893.3,36264)"
font-family="MS Shell Dlg 2" font-size="10.3125" font-weight="400" font-style="normal" 
>
</g>

<g fill="none" stroke="#000000" stroke-opacity="1" stroke-width="1" stroke-linecap="square" stroke-linejoin="bevel" transform="matrix(0.999987,0,0,-0.999987,33893.3,36264)"
font-family="MS Shell Dlg 2" font-size="10.3125" font-weight="400" font-style="normal" 
>
</g>

<g fill="#333333" fill-opacity="0.2" stroke="#333333" stroke-opacity="1" stroke-width="1" stroke-linecap="round" stroke-linejoin="round" transform="matrix(0.999987,0,0,-0.999987,33893.3,36264)"
font-family="MS Shell Dlg 2" font-size="10.3125" font-weight="400" font-style="normal" 
>
<path vector-effect="non-scaling-stroke" fill-rule="evenodd" d="M-5044.29,11580.4 L-9764.06,11312.6 L-9737.16,10838.4 L-9737.24,10838.4 L-15764.5,10496.4 L-15764.5,10496.4 L-15791.5,10970.6 L-21818.8,10628.6 L-21791.9,10154.5 L-21792,10154.4 L-27819.2,9812.42 L-27819.3,9812.49 L-27846.2,10286.7 L-33658.5,9956.88 L-21291.5,35721.4 L-21042.5,36240.2 L-17588.1,31250.5 L-17588.1,31250.4 L-17978.6,30980 L-7521.71,15875.6 L-7131.23,16146 L-7131.12,16146 L-4344.54,12120.9 L-4595.14,12106.7 L-4912.45,11968.8 L-5064.27,11657.9 L-5044.29,11580.4"/>
</g>

<g fill="none" stroke="#000000" stroke-opacity="1" stroke-width="1" stroke-linecap="square" stroke-linejoin="bevel" transform="matrix(0.999987,0,0,-0.999987,33893.3,36264)"
font-family="MS Shell Dlg 2" font-size="10.3125" font-weight="400" font-style="normal" 
>
</g>

<g fill="none" stroke="#000000" stroke-opacity="1" stroke-width="1" stroke-linecap="square" stroke-linejoin="bevel" transform="matrix(0.999987,0,0,-0.999987,33893.3,36264)"
font-family="MS Shell Dlg 2" font-size="10.3125" font-weight="400" font-style="normal" 
>
</g>

<g fill="#333333" fill-opacity="0.2" stroke="#333333" stroke-opacity="1" stroke-width="1" stroke-linecap="round" stroke-linejoin="round" transform="matrix(0.999987,0,0,-0.999987,33893.3,36264)"
font-family="MS Shell Dlg 2" font-size="10.3125" font-weight="400" font-style="normal" 
>
<path vector-effect="non-scaling-stroke" fill-rule="evenodd" d="M-20381.1,36207.1 L27728.6,31833.5 L21795,28036 L22051,27636 L22051,27635.9 L15639,23532.2 L15638.9,23532.2 L15382.9,23932.2 L8970.77,19828.5 L9226.78,19428.5 L9226.73,19428.3 L2814.79,15324.7 L2814.66,15324.7 L2558.65,15724.7 L-3129.67,12084.2 L-3140.13,12096.9 L-3100.35,12124.5 L-3104.67,12130.7 L-3215.4,12188.5 L-3310.88,12304.7 L-3420.07,12295.4 L-3517.22,12346.1 L-3650.13,12275.7 L-3774.58,12265.1 L-3780.98,12261 L-3754.89,12220.3 L-3769.45,12212.5 L-6734.14,16494.9 L-7124.63,16224.5 L-7124.73,16224.6 L-10587.2,21225.9 L-10587.2,21226 L-10196.7,21496.3 L-13659.2,26497.8 L-14049.7,26227.4 L-14049.8,26227.5 L-17512.3,31228.8 L-17512.3,31228.9 L-17121.8,31499.2 L-20381.1,36207.1"/>
</g>

<g fill="none" stroke="#000000" stroke-opacity="1" stroke-width="1" stroke-linecap="square" stroke-linejoin="bevel" transform="matrix(0.999987,0,0,-0.999987,33893.3,36264)"
font-family="MS Shell Dlg 2" font-size="10.3125" font-weight="400" font-style="normal" 
>
</g>

<g fill="none" stroke="#000000" stroke-opacity="1" stroke-width="1" stroke-linecap="square" stroke-linejoin="bevel" transform="matrix(1,0,0,-1,0,63932.8)"
font-family="MS Shell Dlg 2" font-size="10.3125" font-weight="400" font-style="normal" 
>
</g>
</g>
</svg>
