<?xml version="1.0" encoding="UTF-8" standalone="no"?>
<svg width="8339.38mm" height="7555.94mm"
 xmlns="http://www.w3.org/2000/svg" xmlns:xlink="http://www.w3.org/1999/xlink"  version="1.2" baseProfile="tiny">
<title>SVG Generator Example Drawing</title>
<desc>An SVG drawing created by the SVG Generator</desc>
<defs>
</defs>
<g fill="none" stroke="black" stroke-width="1" fill-rule="evenodd" stroke-linecap="square" stroke-linejoin="bevel" >

<g fill="none" stroke="#000000" stroke-opacity="1" stroke-width="1" stroke-linecap="square" stroke-linejoin="bevel" transform="matrix(1,0,0,-1,0,26773.4)"
font-family="MS Shell Dlg 2" font-size="10.3125" font-weight="400" font-style="normal" 
>
</g>

<g fill="none" stroke="#000000" stroke-opacity="1" stroke-width="1" stroke-linecap="square" stroke-linejoin="bevel" transform="matrix(1,0,0,-1,0,26773.4)"
font-family="MS Shell Dlg 2" font-size="10.3125" font-weight="400" font-style="normal" 
>
</g>

<g fill="none" stroke="#000000" stroke-opacity="1" stroke-width="1" stroke-linecap="square" stroke-linejoin="bevel" transform="matrix(0.999977,0,0,-0.999977,33892.9,36240.4)"
font-family="MS Shell Dlg 2" font-size="10.3125" font-weight="400" font-style="normal" 
>
</g>

<g fill="#333333" fill-opacity="0.2" stroke="#333333" stroke-opacity="1" stroke-width="1" stroke-linecap="round" stroke-linejoin="round" transform="matrix(0.999977,0,0,-0.999977,33892.9,36240.4)"
font-family="MS Shell Dlg 2" font-size="10.3125" font-weight="400" font-style="normal" 
>
<path vector-effect="non-scaling-stroke" fill-rule="evenodd" d="M-33646.1,9982.63 L-21279,35747.3 L-17944,30930 L-17553.5,31200.4 L-17553.4,31200.3 L-14090.9,26199 L-14090.9,26198.9 L-14481.4,25928.6 L-11018.9,20927.1 L-10628.4,21197.4 L-10628.3,21197.4 L-7165.84,16196.1 L-7165.85,16196 L-7556.33,15925.7 L-4839.04,12000.7 L-4912.45,11968.8 L-5064.27,11657.9 L-4977.92,11322.9 L-4835.04,11116.5 L-9676.79,10841.8 L-9676.88,10841.8 L-9703.78,11316 L-27906.5,10283.2 L-27879.6,9809.07 L-27879.7,9808.99 L-33893.2,9467.8 L-33646.1,9982.63"/>
</g>

<g fill="none" stroke="#000000" stroke-opacity="1" stroke-width="1" stroke-linecap="square" stroke-linejoin="bevel" transform="matrix(0.999977,0,0,-0.999977,33892.9,36240.4)"
font-family="MS Shell Dlg 2" font-size="10.3125" font-weight="400" font-style="normal" 
>
</g>

<g fill="none" stroke="#000000" stroke-opacity="1" stroke-width="1" stroke-linecap="square" stroke-linejoin="bevel" transform="matrix(0.999977,0,0,-0.999977,33892.9,36240.4)"
font-family="MS Shell Dlg 2" font-size="10.3125" font-weight="400" font-style="normal" 
>
</g>

<g fill="#ae5151" fill-opacity="0.2" stroke="#333333" stroke-opacity="1" stroke-width="1" stroke-linecap="round" stroke-linejoin="round" transform="matrix(0.999977,0,0,-0.999977,33892.9,36240.4)"
font-family="MS Shell Dlg 2" font-size="10.3125" font-weight="400" font-style="normal" 
>
<path vector-effect="non-scaling-stroke" fill-rule="evenodd" d="M-33646.1,9982.63 L-21279,35747.3 L-17944,30930 L-17553.5,31200.4 L-17553.4,31200.3 L-14090.9,26199 L-14090.9,26198.9 L-14481.4,25928.6 L-11018.9,20927.1 L-10628.4,21197.4 L-10628.3,21197.4 L-7165.84,16196.1 L-7165.85,16196 L-7556.33,15925.7 L-4839.04,12000.7 L-4912.45,11968.8 L-5064.27,11657.9 L-4977.92,11322.9 L-4835.04,11116.5 L-9676.79,10841.8 L-9676.88,10841.8 L-9703.78,11316 L-27906.5,10283.2 L-27879.6,9809.07 L-27879.7,9808.99 L-33893.2,9467.8 L-33646.1,9982.63"/>
</g>

<g fill="none" stroke="#000000" stroke-opacity="1" stroke-width="1" stroke-linecap="square" stroke-linejoin="bevel" transform="matrix(0.999977,0,0,-0.999977,33892.9,36240.4)"
font-family="MS Shell Dlg 2" font-size="10.3125" font-weight="400" font-style="normal" 
>
</g>

<g fill="none" stroke="#000000" stroke-opacity="1" stroke-width="1" stroke-linecap="square" stroke-linejoin="bevel" transform="matrix(0.999977,0,0,-0.999977,33892.9,36240.4)"
font-family="MS Shell Dlg 2" font-size="10.3125" font-weight="400" font-style="normal" 
>
</g>

<g fill="#ffff00" fill-opacity="0.2" stroke="#333333" stroke-opacity="1" stroke-width="1" stroke-linecap="round" stroke-linejoin="round" transform="matrix(0.999977,0,0,-0.999977,33892.9,36240.4)"
font-family="MS Shell Dlg 2" font-size="10.3125" font-weight="400" font-style="normal" 
>
<path vector-effect="non-scaling-stroke" fill-rule="evenodd" d="M-33880.9,9493.54 L-33646.1,9982.63 L-21291.5,35721.4 L-21054.9,36214.2 L-14111.4,26184.7 L-14481.4,25928.6 L-11018.9,20927.1 L-10648.9,21183.3 L-4373.8,12119.2 L-4595.14,12106.7 L-4912.45,11968.8 L-5064.27,11657.9 L-4977.92,11322.9 L-4851.72,11140.6 L-15766,10521.3 L-15791.5,10970.6 L-21818.8,10628.6 L-21793.4,10179.4 L-33880.9,9493.54"/>
</g>

<g fill="none" stroke="#000000" stroke-opacity="1" stroke-width="1" stroke-linecap="square" stroke-linejoin="bevel" transform="matrix(0.999977,0,0,-0.999977,33892.9,36240.4)"
font-family="MS Shell Dlg 2" font-size="10.3125" font-weight="400" font-style="normal" 
>
</g>

<g fill="none" stroke="#000000" stroke-opacity="1" stroke-width="1" stroke-linecap="square" stroke-linejoin="bevel" transform="matrix(0.999977,0,0,-0.999977,33892.9,36240.4)"
font-family="MS Shell Dlg 2" font-size="10.3125" font-weight="400" font-style="normal" 
>
</g>

<g fill="#ae5151" fill-opacity="0.2" stroke="#333333" stroke-opacity="1" stroke-width="1" stroke-linecap="round" stroke-linejoin="round" transform="matrix(0.999977,0,0,-0.999977,33892.9,36240.4)"
font-family="MS Shell Dlg 2" font-size="10.3125" font-weight="400" font-style="normal" 
>
<path vector-effect="non-scaling-stroke" fill-rule="evenodd" d="M-5044.29,11580.4 L-9764.06,11312.6 L-9737.16,10838.4 L-9737.24,10838.4 L-15764.5,10496.4 L-15764.5,10496.4 L-15791.5,10970.6 L-21818.8,10628.6 L-21791.9,10154.5 L-21792,10154.4 L-27819.2,9812.42 L-27819.3,9812.49 L-27846.2,10286.7 L-33658.5,9956.88 L-21291.5,35721.4 L-21042.5,36240.2 L-17588.1,31250.5 L-17588.1,31250.4 L-17978.6,30980 L-7521.71,15875.6 L-7131.23,16146 L-7131.12,16146 L-4344.54,12120.9 L-4595.14,12106.7 L-4912.45,11968.8 L-5064.27,11657.9 L-5044.29,11580.4"/>
</g>

<g fill="none" stroke="#000000" stroke-opacity="1" stroke-width="1" stroke-linecap="square" stroke-linejoin="bevel" transform="matrix(0.999977,0,0,-0.999977,33892.9,36240.4)"
font-family="MS Shell Dlg 2" font-size="10.3125" font-weight="400" font-style="normal" 
>
</g>

<g fill="none" stroke="#000000" stroke-opacity="1" stroke-width="1" stroke-linecap="square" stroke-linejoin="bevel" transform="matrix(0.999977,0,0,-0.999977,33892.9,36240.4)"
font-family="MS Shell Dlg 2" font-size="10.3125" font-weight="400" font-style="normal" 
>
</g>

<g fill="#333333" fill-opacity="0.2" stroke="#333333" stroke-opacity="1" stroke-width="1" stroke-linecap="round" stroke-linejoin="round" transform="matrix(0.999977,0,0,-0.999977,33892.9,36240.4)"
font-family="MS Shell Dlg 2" font-size="10.3125" font-weight="400" font-style="normal" 
>
<path vector-effect="non-scaling-stroke" fill-rule="evenodd" d="M-5044.29,11580.4 L-9764.06,11312.6 L-9737.16,10838.4 L-9737.24,10838.4 L-15764.5,10496.4 L-15764.5,10496.4 L-15791.5,10970.6 L-21818.8,10628.6 L-21791.9,10154.5 L-21792,10154.4 L-27819.2,9812.42 L-27819.3,9812.49 L-27846.2,10286.7 L-33658.5,9956.88 L-21291.5,35721.4 L-21042.5,36240.2 L-17588.1,31250.5 L-17588.1,31250.4 L-17978.6,30980 L-7521.71,15875.6 L-7131.23,16146 L-7131.12,16146 L-4344.54,12120.9 L-4595.14,12106.7 L-4912.45,11968.8 L-5064.27,11657.9 L-5044.29,11580.4"/>
</g>

<g fill="none" stroke="#000000" stroke-opacity="1" stroke-width="1" stroke-linecap="square" stroke-linejoin="bevel" transform="matrix(0.999977,0,0,-0.999977,33892.9,36240.4)"
font-family="MS Shell Dlg 2" font-size="10.3125" font-weight="400" font-style="normal" 
>
</g>

<g fill="none" stroke="#000000" stroke-opacity="1" stroke-width="1" stroke-linecap="square" stroke-linejoin="bevel" transform="matrix(1,0,0,-1,0,26773.4)"
font-family="MS Shell Dlg 2" font-size="10.3125" font-weight="400" font-style="normal" 
>
</g>
</g>
</svg>
