<?xml version="1.0" encoding="UTF-8" standalone="no"?>
<svg width="493.607mm" height="474.133mm"
 xmlns="http://www.w3.org/2000/svg" xmlns:xlink="http://www.w3.org/1999/xlink"  version="1.2" baseProfile="tiny">
<title>SVG Generator Example Drawing</title>
<desc>An SVG drawing created by the SVG Generator</desc>
<defs>
</defs>
<g fill="none" stroke="black" stroke-width="1" fill-rule="evenodd" stroke-linecap="square" stroke-linejoin="bevel" >

<g fill="none" stroke="#000000" stroke-opacity="1" stroke-width="1" stroke-linecap="square" stroke-linejoin="bevel" transform="matrix(1,0,0,-1,0,1680.36)"
font-family="MS Shell Dlg 2" font-size="10.3125" font-weight="400" font-style="normal" 
>
</g>

<g fill="none" stroke="#000000" stroke-opacity="1" stroke-width="1" stroke-linecap="square" stroke-linejoin="bevel" transform="matrix(1,0,0,-1,0,1680.36)"
font-family="MS Shell Dlg 2" font-size="10.3125" font-weight="400" font-style="normal" 
>
</g>

<g fill="none" stroke="#000000" stroke-opacity="1" stroke-width="1" stroke-linecap="square" stroke-linejoin="bevel" transform="matrix(0.999743,0,0,-0.999743,4566.15,11844)"
font-family="MS Shell Dlg 2" font-size="10.3125" font-weight="400" font-style="normal" 
>
</g>

<g fill="#333333" fill-opacity="0.2" stroke="#333333" stroke-opacity="1" stroke-width="1" stroke-linecap="round" stroke-linejoin="round" transform="matrix(0.999743,0,0,-0.999743,4566.15,11844)"
font-family="MS Shell Dlg 2" font-size="10.3125" font-weight="400" font-style="normal" 
>
<path vector-effect="non-scaling-stroke" fill-rule="evenodd" d="M-3515.77,11846.1 L-3511.45,11839.9 L-3505.06,11844 L-3501.13,11825 L-3307.13,11544.7 L-3225.72,11453.4 L-2818.37,11096.2 L-2987.33,10988 L-3213.46,10632.6 L-3275.24,10166.7 L-3670.18,10513.1 L-4028.2,10636.4 L-4223.18,10625.4 L-4194.51,10841.5 L-4279.08,11191.8 L-4566.82,11607.5 L-3938.05,11643.1 L-3696.85,11721.2 L-3526.71,11830.1 L-3515.77,11846.1"/>
</g>

<g fill="none" stroke="#000000" stroke-opacity="1" stroke-width="1" stroke-linecap="square" stroke-linejoin="bevel" transform="matrix(0.999743,0,0,-0.999743,4566.15,11844)"
font-family="MS Shell Dlg 2" font-size="10.3125" font-weight="400" font-style="normal" 
>
</g>

<g fill="none" stroke="#000000" stroke-opacity="1" stroke-width="1" stroke-linecap="square" stroke-linejoin="bevel" transform="matrix(0.999743,0,0,-0.999743,4566.15,11844)"
font-family="MS Shell Dlg 2" font-size="10.3125" font-weight="400" font-style="normal" 
>
</g>

<g fill="#ae5151" fill-opacity="0.2" stroke="#333333" stroke-opacity="1" stroke-width="1" stroke-linecap="round" stroke-linejoin="round" transform="matrix(0.999743,0,0,-0.999743,4566.15,11844)"
font-family="MS Shell Dlg 2" font-size="10.3125" font-weight="400" font-style="normal" 
>
<path vector-effect="non-scaling-stroke" fill-rule="evenodd" d="M-3515.77,11846.1 L-3511.45,11839.9 L-3505.06,11844 L-3501.13,11825 L-3307.13,11544.7 L-3225.72,11453.4 L-2818.37,11096.2 L-2987.33,10988 L-3213.46,10632.6 L-3275.24,10166.7 L-3670.18,10513.1 L-4028.2,10636.4 L-4223.18,10625.4 L-4194.51,10841.5 L-4279.08,11191.8 L-4566.82,11607.5 L-3938.05,11643.1 L-3696.85,11721.2 L-3526.71,11830.1 L-3515.77,11846.1"/>
</g>

<g fill="none" stroke="#000000" stroke-opacity="1" stroke-width="1" stroke-linecap="square" stroke-linejoin="bevel" transform="matrix(0.999743,0,0,-0.999743,4566.15,11844)"
font-family="MS Shell Dlg 2" font-size="10.3125" font-weight="400" font-style="normal" 
>
</g>

<g fill="none" stroke="#000000" stroke-opacity="1" stroke-width="1" stroke-linecap="square" stroke-linejoin="bevel" transform="matrix(0.999743,0,0,-0.999743,4566.15,11844)"
font-family="MS Shell Dlg 2" font-size="10.3125" font-weight="400" font-style="normal" 
>
</g>

<g fill="#ffff00" fill-opacity="0.2" stroke="#333333" stroke-opacity="1" stroke-width="1" stroke-linecap="round" stroke-linejoin="round" transform="matrix(0.999743,0,0,-0.999743,4566.15,11844)"
font-family="MS Shell Dlg 2" font-size="10.3125" font-weight="400" font-style="normal" 
>
<path vector-effect="non-scaling-stroke" fill-rule="evenodd" d="M-3515.77,11846.1 L-3511.45,11839.9 L-3505.06,11844 L-3501.13,11825 L-3307.13,11544.7 L-3225.72,11453.4 L-2818.37,11096.2 L-2987.33,10988 L-3213.46,10632.6 L-3275.24,10166.7 L-3670.18,10513.1 L-4028.2,10636.4 L-4223.18,10625.4 L-4194.51,10841.5 L-4279.08,11191.8 L-4566.82,11607.5 L-3938.05,11643.1 L-3696.85,11721.2 L-3526.71,11830.1 L-3515.77,11846.1"/>
</g>

<g fill="none" stroke="#000000" stroke-opacity="1" stroke-width="1" stroke-linecap="square" stroke-linejoin="bevel" transform="matrix(0.999743,0,0,-0.999743,4566.15,11844)"
font-family="MS Shell Dlg 2" font-size="10.3125" font-weight="400" font-style="normal" 
>
</g>

<g fill="none" stroke="#000000" stroke-opacity="1" stroke-width="1" stroke-linecap="square" stroke-linejoin="bevel" transform="matrix(0.999743,0,0,-0.999743,4566.15,11844)"
font-family="MS Shell Dlg 2" font-size="10.3125" font-weight="400" font-style="normal" 
>
</g>

<g fill="#ae5151" fill-opacity="0.2" stroke="#333333" stroke-opacity="1" stroke-width="1" stroke-linecap="round" stroke-linejoin="round" transform="matrix(0.999743,0,0,-0.999743,4566.15,11844)"
font-family="MS Shell Dlg 2" font-size="10.3125" font-weight="400" font-style="normal" 
>
<path vector-effect="non-scaling-stroke" fill-rule="evenodd" d="M-3515.77,11846.1 L-3511.45,11839.9 L-3505.06,11844 L-3501.13,11825 L-3307.13,11544.7 L-3225.72,11453.4 L-2818.37,11096.2 L-2987.33,10988 L-3213.46,10632.6 L-3275.24,10166.7 L-3670.18,10513.1 L-4028.2,10636.4 L-4223.18,10625.4 L-4194.51,10841.5 L-4279.08,11191.8 L-4566.82,11607.5 L-3938.05,11643.1 L-3696.85,11721.2 L-3526.71,11830.1 L-3515.77,11846.1"/>
</g>

<g fill="none" stroke="#000000" stroke-opacity="1" stroke-width="1" stroke-linecap="square" stroke-linejoin="bevel" transform="matrix(0.999743,0,0,-0.999743,4566.15,11844)"
font-family="MS Shell Dlg 2" font-size="10.3125" font-weight="400" font-style="normal" 
>
</g>

<g fill="none" stroke="#000000" stroke-opacity="1" stroke-width="1" stroke-linecap="square" stroke-linejoin="bevel" transform="matrix(0.999743,0,0,-0.999743,4566.15,11844)"
font-family="MS Shell Dlg 2" font-size="10.3125" font-weight="400" font-style="normal" 
>
</g>

<g fill="#333333" fill-opacity="0.2" stroke="#333333" stroke-opacity="1" stroke-width="1" stroke-linecap="round" stroke-linejoin="round" transform="matrix(0.999743,0,0,-0.999743,4566.15,11844)"
font-family="MS Shell Dlg 2" font-size="10.3125" font-weight="400" font-style="normal" 
>
<path vector-effect="non-scaling-stroke" fill-rule="evenodd" d="M-3515.77,11846.1 L-3511.45,11839.9 L-3505.06,11844 L-3501.13,11825 L-3307.13,11544.7 L-3225.72,11453.4 L-2818.37,11096.2 L-2987.33,10988 L-3213.46,10632.6 L-3275.24,10166.7 L-3670.18,10513.1 L-4028.2,10636.4 L-4223.18,10625.4 L-4194.51,10841.5 L-4279.08,11191.8 L-4566.82,11607.5 L-3938.05,11643.1 L-3696.85,11721.2 L-3526.71,11830.1 L-3515.77,11846.1"/>
</g>

<g fill="none" stroke="#000000" stroke-opacity="1" stroke-width="1" stroke-linecap="square" stroke-linejoin="bevel" transform="matrix(0.999743,0,0,-0.999743,4566.15,11844)"
font-family="MS Shell Dlg 2" font-size="10.3125" font-weight="400" font-style="normal" 
>
</g>

<g fill="none" stroke="#000000" stroke-opacity="1" stroke-width="1" stroke-linecap="square" stroke-linejoin="bevel" transform="matrix(1,0,0,-1,0,1680.36)"
font-family="MS Shell Dlg 2" font-size="10.3125" font-weight="400" font-style="normal" 
>
</g>
</g>
</svg>
