<?xml version="1.0" encoding="UTF-8" standalone="no"?>
<svg width="8485.01mm" height="18031.7mm"
 xmlns="http://www.w3.org/2000/svg" xmlns:xlink="http://www.w3.org/1999/xlink"  version="1.2" baseProfile="tiny">
<title>SVG Generator Example Drawing</title>
<desc>An SVG drawing created by the SVG Generator</desc>
<defs>
</defs>
<g fill="none" stroke="black" stroke-width="1" fill-rule="evenodd" stroke-linecap="square" stroke-linejoin="bevel" >

<g fill="none" stroke="#000000" stroke-opacity="1" stroke-width="1" stroke-linecap="square" stroke-linejoin="bevel" transform="matrix(1,0,0,-1,0,63892.4)"
font-family="MS Shell Dlg 2" font-size="10.3125" font-weight="400" font-style="normal" 
>
</g>

<g fill="none" stroke="#000000" stroke-opacity="1" stroke-width="1" stroke-linecap="square" stroke-linejoin="bevel" transform="matrix(1,0,0,-1,0,63892.4)"
font-family="MS Shell Dlg 2" font-size="10.3125" font-weight="400" font-style="normal" 
>
</g>

<g fill="none" stroke="#000000" stroke-opacity="1" stroke-width="1" stroke-linecap="square" stroke-linejoin="bevel" transform="matrix(0.999981,0,0,-0.999981,33893.1,36241.2)"
font-family="MS Shell Dlg 2" font-size="10.3125" font-weight="400" font-style="normal" 
>
</g>

<g fill="#333333" fill-opacity="0.2" stroke="#333333" stroke-opacity="1" stroke-width="1" stroke-linecap="round" stroke-linejoin="round" transform="matrix(0.999981,0,0,-0.999981,33893.1,36241.2)"
font-family="MS Shell Dlg 2" font-size="10.3125" font-weight="400" font-style="normal" 
>
<path vector-effect="non-scaling-stroke" fill-rule="evenodd" d="M-9219.98,-27058.9 L-33579.4,8959.76 L-27789.6,9288.26 L-27816.5,9762.43 L-27816.4,9762.5 L-21789.2,10104.5 L-21789.1,10104.4 L-21762.2,9630.24 L-15734.8,9972.22 L-15761.7,10446.4 L-15761.6,10446.5 L-9734.4,10788.4 L-9734.32,10788.4 L-9707.41,10314.2 L-4689.51,10598.9 L-4589.76,10285.3 L-4284.57,10162.3 L-5179.93,3409.86 L-4709.12,3347.43 L-4709.06,3347.31 L-5734.97,-4389.76 L-5735.06,-4389.86 L-6205.87,-4327.43 L-7231.81,-12064.7 L-6761,-12127.2 L-6760.94,-12127.3 L-7786.85,-19864.3 L-7786.94,-19864.4 L-8257.75,-19802 L-9219.98,-27058.9"/>
</g>

<g fill="none" stroke="#000000" stroke-opacity="1" stroke-width="1" stroke-linecap="square" stroke-linejoin="bevel" transform="matrix(0.999981,0,0,-0.999981,33893.1,36241.2)"
font-family="MS Shell Dlg 2" font-size="10.3125" font-weight="400" font-style="normal" 
>
</g>

<g fill="none" stroke="#000000" stroke-opacity="1" stroke-width="1" stroke-linecap="square" stroke-linejoin="bevel" transform="matrix(0.999981,0,0,-0.999981,33893.1,36241.2)"
font-family="MS Shell Dlg 2" font-size="10.3125" font-weight="400" font-style="normal" 
>
</g>

<g fill="#333333" fill-opacity="0.2" stroke="#333333" stroke-opacity="1" stroke-width="1" stroke-linecap="round" stroke-linejoin="round" transform="matrix(0.999981,0,0,-0.999981,33893.1,36241.2)"
font-family="MS Shell Dlg 2" font-size="10.3125" font-weight="400" font-style="normal" 
>
<path vector-effect="non-scaling-stroke" fill-rule="evenodd" d="M-33646.1,9982.63 L-21279,35747.3 L-17944,30930 L-17553.5,31200.4 L-17553.4,31200.3 L-14090.9,26199 L-14090.9,26198.9 L-14481.4,25928.6 L-11018.9,20927.1 L-10628.4,21197.4 L-10628.3,21197.4 L-7165.84,16196.1 L-7165.85,16196 L-7556.33,15925.7 L-4839.04,12000.7 L-4912.45,11968.8 L-5064.27,11657.9 L-4977.92,11322.9 L-4835.04,11116.5 L-9676.79,10841.8 L-9676.88,10841.8 L-9703.78,11316 L-27906.5,10283.2 L-27879.6,9809.07 L-27879.7,9808.99 L-33893.2,9467.8 L-33646.1,9982.63"/>
</g>

<g fill="none" stroke="#000000" stroke-opacity="1" stroke-width="1" stroke-linecap="square" stroke-linejoin="bevel" transform="matrix(0.999981,0,0,-0.999981,33893.1,36241.2)"
font-family="MS Shell Dlg 2" font-size="10.3125" font-weight="400" font-style="normal" 
>
</g>

<g fill="none" stroke="#000000" stroke-opacity="1" stroke-width="1" stroke-linecap="square" stroke-linejoin="bevel" transform="matrix(0.999981,0,0,-0.999981,33893.1,36241.2)"
font-family="MS Shell Dlg 2" font-size="10.3125" font-weight="400" font-style="normal" 
>
</g>

<g fill="#ae5151" fill-opacity="0.2" stroke="#333333" stroke-opacity="1" stroke-width="1" stroke-linecap="round" stroke-linejoin="round" transform="matrix(0.999981,0,0,-0.999981,33893.1,36241.2)"
font-family="MS Shell Dlg 2" font-size="10.3125" font-weight="400" font-style="normal" 
>
<path vector-effect="non-scaling-stroke" fill-rule="evenodd" d="M-9219.98,-27058.9 L-33579.4,8959.76 L-27789.6,9288.26 L-27816.5,9762.43 L-27816.4,9762.5 L-21789.2,10104.5 L-21789.1,10104.4 L-21762.2,9630.24 L-15734.8,9972.22 L-15761.7,10446.4 L-15761.6,10446.5 L-9734.4,10788.4 L-9734.32,10788.4 L-9707.41,10314.2 L-4689.51,10598.9 L-4589.76,10285.3 L-4284.57,10162.3 L-5179.93,3409.86 L-4709.12,3347.43 L-4709.06,3347.31 L-5734.97,-4389.76 L-5735.06,-4389.86 L-6205.87,-4327.43 L-7231.81,-12064.7 L-6761,-12127.2 L-6760.94,-12127.3 L-7786.85,-19864.3 L-7786.94,-19864.4 L-8257.75,-19802 L-9219.98,-27058.9"/>
</g>

<g fill="none" stroke="#000000" stroke-opacity="1" stroke-width="1" stroke-linecap="square" stroke-linejoin="bevel" transform="matrix(0.999981,0,0,-0.999981,33893.1,36241.2)"
font-family="MS Shell Dlg 2" font-size="10.3125" font-weight="400" font-style="normal" 
>
</g>

<g fill="none" stroke="#000000" stroke-opacity="1" stroke-width="1" stroke-linecap="square" stroke-linejoin="bevel" transform="matrix(0.999981,0,0,-0.999981,33893.1,36241.2)"
font-family="MS Shell Dlg 2" font-size="10.3125" font-weight="400" font-style="normal" 
>
</g>

<g fill="#ae5151" fill-opacity="0.2" stroke="#333333" stroke-opacity="1" stroke-width="1" stroke-linecap="round" stroke-linejoin="round" transform="matrix(0.999981,0,0,-0.999981,33893.1,36241.2)"
font-family="MS Shell Dlg 2" font-size="10.3125" font-weight="400" font-style="normal" 
>
<path vector-effect="non-scaling-stroke" fill-rule="evenodd" d="M-33646.1,9982.63 L-21279,35747.3 L-17944,30930 L-17553.5,31200.4 L-17553.4,31200.3 L-14090.9,26199 L-14090.9,26198.9 L-14481.4,25928.6 L-11018.9,20927.1 L-10628.4,21197.4 L-10628.3,21197.4 L-7165.84,16196.1 L-7165.85,16196 L-7556.33,15925.7 L-4839.04,12000.7 L-4912.45,11968.8 L-5064.27,11657.9 L-4977.92,11322.9 L-4835.04,11116.5 L-9676.79,10841.8 L-9676.88,10841.8 L-9703.78,11316 L-27906.5,10283.2 L-27879.6,9809.07 L-27879.7,9808.99 L-33893.2,9467.8 L-33646.1,9982.63"/>
</g>

<g fill="none" stroke="#000000" stroke-opacity="1" stroke-width="1" stroke-linecap="square" stroke-linejoin="bevel" transform="matrix(0.999981,0,0,-0.999981,33893.1,36241.2)"
font-family="MS Shell Dlg 2" font-size="10.3125" font-weight="400" font-style="normal" 
>
</g>

<g fill="none" stroke="#000000" stroke-opacity="1" stroke-width="1" stroke-linecap="square" stroke-linejoin="bevel" transform="matrix(0.999981,0,0,-0.999981,33893.1,36241.2)"
font-family="MS Shell Dlg 2" font-size="10.3125" font-weight="400" font-style="normal" 
>
</g>

<g fill="#ffff00" fill-opacity="0.2" stroke="#333333" stroke-opacity="1" stroke-width="1" stroke-linecap="round" stroke-linejoin="round" transform="matrix(0.999981,0,0,-0.999981,33893.1,36241.2)"
font-family="MS Shell Dlg 2" font-size="10.3125" font-weight="400" font-style="normal" 
>
<path vector-effect="non-scaling-stroke" fill-rule="evenodd" d="M-8840.45,-27620 L-9219.98,-27058.9 L-33563.1,8935.65 L-33873,9393.83 L-21787.7,10079.5 L-21762.2,9630.24 L-15734.8,9972.22 L-15760.3,10421.5 L-4785,11044.2 L-4743.24,10983.9 L-4702.43,10814.8 L-4718.84,10691.1 L-4589.76,10285.3 L-4194.85,10126.2 L-4098.04,10131.7 L-3925.95,10072.4 L-3851.25,10006.9 L-5759.77,-4386.58 L-6205.87,-4327.43 L-7231.81,-12064.7 L-6785.71,-12123.9 L-8840.45,-27620"/>
</g>

<g fill="none" stroke="#000000" stroke-opacity="1" stroke-width="1" stroke-linecap="square" stroke-linejoin="bevel" transform="matrix(0.999981,0,0,-0.999981,33893.1,36241.2)"
font-family="MS Shell Dlg 2" font-size="10.3125" font-weight="400" font-style="normal" 
>
</g>

<g fill="none" stroke="#000000" stroke-opacity="1" stroke-width="1" stroke-linecap="square" stroke-linejoin="bevel" transform="matrix(0.999981,0,0,-0.999981,33893.1,36241.2)"
font-family="MS Shell Dlg 2" font-size="10.3125" font-weight="400" font-style="normal" 
>
</g>

<g fill="#ffff00" fill-opacity="0.2" stroke="#333333" stroke-opacity="1" stroke-width="1" stroke-linecap="round" stroke-linejoin="round" transform="matrix(0.999981,0,0,-0.999981,33893.1,36241.2)"
font-family="MS Shell Dlg 2" font-size="10.3125" font-weight="400" font-style="normal" 
>
<path vector-effect="non-scaling-stroke" fill-rule="evenodd" d="M-33880.9,9493.54 L-33646.1,9982.63 L-21291.5,35721.4 L-21054.9,36214.2 L-14111.4,26184.7 L-14481.4,25928.6 L-11018.9,20927.1 L-10648.9,21183.3 L-4373.8,12119.2 L-4595.14,12106.7 L-4912.45,11968.8 L-5064.27,11657.9 L-4977.92,11322.9 L-4851.72,11140.6 L-15766,10521.3 L-15791.5,10970.6 L-21818.8,10628.6 L-21793.4,10179.4 L-33880.9,9493.54"/>
</g>

<g fill="none" stroke="#000000" stroke-opacity="1" stroke-width="1" stroke-linecap="square" stroke-linejoin="bevel" transform="matrix(0.999981,0,0,-0.999981,33893.1,36241.2)"
font-family="MS Shell Dlg 2" font-size="10.3125" font-weight="400" font-style="normal" 
>
</g>

<g fill="none" stroke="#000000" stroke-opacity="1" stroke-width="1" stroke-linecap="square" stroke-linejoin="bevel" transform="matrix(0.999981,0,0,-0.999981,33893.1,36241.2)"
font-family="MS Shell Dlg 2" font-size="10.3125" font-weight="400" font-style="normal" 
>
</g>

<g fill="#ae5151" fill-opacity="0.2" stroke="#333333" stroke-opacity="1" stroke-width="1" stroke-linecap="round" stroke-linejoin="round" transform="matrix(0.999981,0,0,-0.999981,33893.1,36241.2)"
font-family="MS Shell Dlg 2" font-size="10.3125" font-weight="400" font-style="normal" 
>
<path vector-effect="non-scaling-stroke" fill-rule="evenodd" d="M-9219.98,-27058.9 L-33579.4,8959.76 L-33889.3,9417.95 L-27876.9,9759.08 L-27876.8,9759.01 L-27849.9,9284.84 L-9647.14,10317.6 L-9674.04,10791.8 L-9673.96,10791.9 L-4801.68,11068.3 L-4743.24,10983.9 L-4702.43,10814.8 L-4718.84,10691.1 L-4589.76,10285.3 L-4194.85,10126.2 L-4098.04,10131.7 L-3925.95,10072.4 L-3828.66,9987.06 L-4698.78,3424.9 L-4698.86,3424.8 L-5169.67,3487.23 L-8268.01,-19879.4 L-7797.2,-19941.8 L-7797.14,-19941.9 L-8819.37,-27651.2 L-9219.98,-27058.9"/>
</g>

<g fill="none" stroke="#000000" stroke-opacity="1" stroke-width="1" stroke-linecap="square" stroke-linejoin="bevel" transform="matrix(0.999981,0,0,-0.999981,33893.1,36241.2)"
font-family="MS Shell Dlg 2" font-size="10.3125" font-weight="400" font-style="normal" 
>
</g>

<g fill="none" stroke="#000000" stroke-opacity="1" stroke-width="1" stroke-linecap="square" stroke-linejoin="bevel" transform="matrix(0.999981,0,0,-0.999981,33893.1,36241.2)"
font-family="MS Shell Dlg 2" font-size="10.3125" font-weight="400" font-style="normal" 
>
</g>

<g fill="#ae5151" fill-opacity="0.2" stroke="#333333" stroke-opacity="1" stroke-width="1" stroke-linecap="round" stroke-linejoin="round" transform="matrix(0.999981,0,0,-0.999981,33893.1,36241.2)"
font-family="MS Shell Dlg 2" font-size="10.3125" font-weight="400" font-style="normal" 
>
<path vector-effect="non-scaling-stroke" fill-rule="evenodd" d="M-5044.29,11580.4 L-9764.06,11312.6 L-9737.16,10838.4 L-9737.24,10838.4 L-15764.5,10496.4 L-15764.5,10496.4 L-15791.5,10970.6 L-21818.8,10628.6 L-21791.9,10154.5 L-21792,10154.4 L-27819.2,9812.42 L-27819.3,9812.49 L-27846.2,10286.7 L-33658.5,9956.88 L-21291.5,35721.4 L-21042.5,36240.2 L-17588.1,31250.5 L-17588.1,31250.4 L-17978.6,30980 L-7521.71,15875.6 L-7131.23,16146 L-7131.12,16146 L-4344.54,12120.9 L-4595.14,12106.7 L-4912.45,11968.8 L-5064.27,11657.9 L-5044.29,11580.4"/>
</g>

<g fill="none" stroke="#000000" stroke-opacity="1" stroke-width="1" stroke-linecap="square" stroke-linejoin="bevel" transform="matrix(0.999981,0,0,-0.999981,33893.1,36241.2)"
font-family="MS Shell Dlg 2" font-size="10.3125" font-weight="400" font-style="normal" 
>
</g>

<g fill="none" stroke="#000000" stroke-opacity="1" stroke-width="1" stroke-linecap="square" stroke-linejoin="bevel" transform="matrix(0.999981,0,0,-0.999981,33893.1,36241.2)"
font-family="MS Shell Dlg 2" font-size="10.3125" font-weight="400" font-style="normal" 
>
</g>

<g fill="#333333" fill-opacity="0.2" stroke="#333333" stroke-opacity="1" stroke-width="1" stroke-linecap="round" stroke-linejoin="round" transform="matrix(0.999981,0,0,-0.999981,33893.1,36241.2)"
font-family="MS Shell Dlg 2" font-size="10.3125" font-weight="400" font-style="normal" 
>
<path vector-effect="non-scaling-stroke" fill-rule="evenodd" d="M-9219.98,-27058.9 L-33579.4,8959.76 L-33889.3,9417.95 L-27876.9,9759.08 L-27876.8,9759.01 L-27849.9,9284.84 L-9647.14,10317.6 L-9674.04,10791.8 L-9673.96,10791.9 L-4801.68,11068.3 L-4743.24,10983.9 L-4702.43,10814.8 L-4718.84,10691.1 L-4589.76,10285.3 L-4194.85,10126.2 L-4098.04,10131.7 L-3925.95,10072.4 L-3828.66,9987.06 L-4698.78,3424.9 L-4698.86,3424.8 L-5169.67,3487.23 L-8268.01,-19879.4 L-7797.2,-19941.8 L-7797.14,-19941.9 L-8819.37,-27651.2 L-9219.98,-27058.9"/>
</g>

<g fill="none" stroke="#000000" stroke-opacity="1" stroke-width="1" stroke-linecap="square" stroke-linejoin="bevel" transform="matrix(0.999981,0,0,-0.999981,33893.1,36241.2)"
font-family="MS Shell Dlg 2" font-size="10.3125" font-weight="400" font-style="normal" 
>
</g>

<g fill="none" stroke="#000000" stroke-opacity="1" stroke-width="1" stroke-linecap="square" stroke-linejoin="bevel" transform="matrix(0.999981,0,0,-0.999981,33893.1,36241.2)"
font-family="MS Shell Dlg 2" font-size="10.3125" font-weight="400" font-style="normal" 
>
</g>

<g fill="#333333" fill-opacity="0.2" stroke="#333333" stroke-opacity="1" stroke-width="1" stroke-linecap="round" stroke-linejoin="round" transform="matrix(0.999981,0,0,-0.999981,33893.1,36241.2)"
font-family="MS Shell Dlg 2" font-size="10.3125" font-weight="400" font-style="normal" 
>
<path vector-effect="non-scaling-stroke" fill-rule="evenodd" d="M-5044.29,11580.4 L-9764.06,11312.6 L-9737.16,10838.4 L-9737.24,10838.4 L-15764.5,10496.4 L-15764.5,10496.4 L-15791.5,10970.6 L-21818.8,10628.6 L-21791.9,10154.5 L-21792,10154.4 L-27819.2,9812.42 L-27819.3,9812.49 L-27846.2,10286.7 L-33658.5,9956.88 L-21291.5,35721.4 L-21042.5,36240.2 L-17588.1,31250.5 L-17588.1,31250.4 L-17978.6,30980 L-7521.71,15875.6 L-7131.23,16146 L-7131.12,16146 L-4344.54,12120.9 L-4595.14,12106.7 L-4912.45,11968.8 L-5064.27,11657.9 L-5044.29,11580.4"/>
</g>

<g fill="none" stroke="#000000" stroke-opacity="1" stroke-width="1" stroke-linecap="square" stroke-linejoin="bevel" transform="matrix(0.999981,0,0,-0.999981,33893.1,36241.2)"
font-family="MS Shell Dlg 2" font-size="10.3125" font-weight="400" font-style="normal" 
>
</g>

<g fill="none" stroke="#000000" stroke-opacity="1" stroke-width="1" stroke-linecap="square" stroke-linejoin="bevel" transform="matrix(1,0,0,-1,0,63892.4)"
font-family="MS Shell Dlg 2" font-size="10.3125" font-weight="400" font-style="normal" 
>
</g>
</g>
</svg>
