<?xml version="1.0" encoding="UTF-8" standalone="no"?>
<svg width="17609mm" height="7562.43mm"
 xmlns="http://www.w3.org/2000/svg" xmlns:xlink="http://www.w3.org/1999/xlink"  version="1.2" baseProfile="tiny">
<title>SVG Generator Example Drawing</title>
<desc>An SVG drawing created by the SVG Generator</desc>
<defs>
</defs>
<g fill="none" stroke="black" stroke-width="1" fill-rule="evenodd" stroke-linecap="square" stroke-linejoin="bevel" >

<g fill="none" stroke="#000000" stroke-opacity="1" stroke-width="1" stroke-linecap="square" stroke-linejoin="bevel" transform="matrix(1,0,0,-1,0,26796.3)"
font-family="MS Shell Dlg 2" font-size="10.3125" font-weight="400" font-style="normal" 
>
</g>

<g fill="none" stroke="#000000" stroke-opacity="1" stroke-width="1" stroke-linecap="square" stroke-linejoin="bevel" transform="matrix(1,0,0,-1,0,26796.3)"
font-family="MS Shell Dlg 2" font-size="10.3125" font-weight="400" font-style="normal" 
>
</g>

<g fill="none" stroke="#000000" stroke-opacity="1" stroke-width="1" stroke-linecap="square" stroke-linejoin="bevel" transform="matrix(0.999987,0,0,-0.999987,33893.3,36263.5)"
font-family="MS Shell Dlg 2" font-size="10.3125" font-weight="400" font-style="normal" 
>
</g>

<g fill="#333333" fill-opacity="0.2" stroke="#333333" stroke-opacity="1" stroke-width="1" stroke-linecap="round" stroke-linejoin="round" transform="matrix(0.999987,0,0,-0.999987,33893.3,36263.5)"
font-family="MS Shell Dlg 2" font-size="10.3125" font-weight="400" font-style="normal" 
>
<path vector-effect="non-scaling-stroke" fill-rule="evenodd" d="M-33646.1,9982.63 L-21279,35747.3 L-17944,30930 L-17553.5,31200.4 L-17553.4,31200.3 L-14090.9,26199 L-14090.9,26198.9 L-14481.4,25928.6 L-11018.9,20927.1 L-10628.4,21197.4 L-10628.3,21197.4 L-7165.84,16196.1 L-7165.85,16196 L-7556.33,15925.7 L-4839.04,12000.7 L-4912.45,11968.8 L-5064.27,11657.9 L-4977.92,11322.9 L-4835.04,11116.5 L-9676.79,10841.8 L-9676.88,10841.8 L-9703.78,11316 L-27906.5,10283.2 L-27879.6,9809.07 L-27879.7,9808.99 L-33893.2,9467.8 L-33646.1,9982.63"/>
</g>

<g fill="none" stroke="#000000" stroke-opacity="1" stroke-width="1" stroke-linecap="square" stroke-linejoin="bevel" transform="matrix(0.999987,0,0,-0.999987,33893.3,36263.5)"
font-family="MS Shell Dlg 2" font-size="10.3125" font-weight="400" font-style="normal" 
>
</g>

<g fill="none" stroke="#000000" stroke-opacity="1" stroke-width="1" stroke-linecap="square" stroke-linejoin="bevel" transform="matrix(0.999987,0,0,-0.999987,33893.3,36263.5)"
font-family="MS Shell Dlg 2" font-size="10.3125" font-weight="400" font-style="normal" 
>
</g>

<g fill="#333333" fill-opacity="0.2" stroke="#333333" stroke-opacity="1" stroke-width="1" stroke-linecap="round" stroke-linejoin="round" transform="matrix(0.999987,0,0,-0.999987,33893.3,36263.5)"
font-family="MS Shell Dlg 2" font-size="10.3125" font-weight="400" font-style="normal" 
>
<path vector-effect="non-scaling-stroke" fill-rule="evenodd" d="M-4286.02,12124.2 L-7090.01,16174.4 L-7090,16174.5 L-6699.52,16444.9 L-17156.4,31549.2 L-17546.9,31278.9 L-17547,31278.9 L-20997.6,36263.1 L-20381.1,36207.1 L27688,31837.2 L27689.5,31837 L27728.6,31833.5 L28500.2,31763.3 L22115.3,27677 L22115.1,27677 L21859.1,28077 L2494.52,15683.7 L2750.54,15283.7 L2750.48,15283.6 L-2790.85,11737.1 L-2872.95,11809.1 L-2913.5,11854.6 L-3090.04,12109.6 L-3128.59,12082.9 L-3140.13,12096.9 L-3100.35,12124.5 L-3104.67,12130.7 L-3215.4,12188.5 L-3310.88,12304.7 L-3420.07,12295.4 L-3517.22,12346.1 L-3650.13,12275.7 L-3774.58,12265.1 L-3780.98,12261 L-3754.89,12220.3 L-3770.96,12211.7 L-3796.24,12251.2 L-3912.11,12177.1 L-4030.71,12138.7 L-4286.02,12124.2"/>
</g>

<g fill="none" stroke="#000000" stroke-opacity="1" stroke-width="1" stroke-linecap="square" stroke-linejoin="bevel" transform="matrix(0.999987,0,0,-0.999987,33893.3,36263.5)"
font-family="MS Shell Dlg 2" font-size="10.3125" font-weight="400" font-style="normal" 
>
</g>

<g fill="none" stroke="#000000" stroke-opacity="1" stroke-width="1" stroke-linecap="square" stroke-linejoin="bevel" transform="matrix(0.999987,0,0,-0.999987,33893.3,36263.5)"
font-family="MS Shell Dlg 2" font-size="10.3125" font-weight="400" font-style="normal" 
>
</g>

<g fill="#ae5151" fill-opacity="0.2" stroke="#333333" stroke-opacity="1" stroke-width="1" stroke-linecap="round" stroke-linejoin="round" transform="matrix(0.999987,0,0,-0.999987,33893.3,36263.5)"
font-family="MS Shell Dlg 2" font-size="10.3125" font-weight="400" font-style="normal" 
>
<path vector-effect="non-scaling-stroke" fill-rule="evenodd" d="M-33646.1,9982.63 L-21279,35747.3 L-17944,30930 L-17553.5,31200.4 L-17553.4,31200.3 L-14090.9,26199 L-14090.9,26198.9 L-14481.4,25928.6 L-11018.9,20927.1 L-10628.4,21197.4 L-10628.3,21197.4 L-7165.84,16196.1 L-7165.85,16196 L-7556.33,15925.7 L-4839.04,12000.7 L-4912.45,11968.8 L-5064.27,11657.9 L-4977.92,11322.9 L-4835.04,11116.5 L-9676.79,10841.8 L-9676.88,10841.8 L-9703.78,11316 L-27906.5,10283.2 L-27879.6,9809.07 L-27879.7,9808.99 L-33893.2,9467.8 L-33646.1,9982.63"/>
</g>

<g fill="none" stroke="#000000" stroke-opacity="1" stroke-width="1" stroke-linecap="square" stroke-linejoin="bevel" transform="matrix(0.999987,0,0,-0.999987,33893.3,36263.5)"
font-family="MS Shell Dlg 2" font-size="10.3125" font-weight="400" font-style="normal" 
>
</g>

<g fill="none" stroke="#000000" stroke-opacity="1" stroke-width="1" stroke-linecap="square" stroke-linejoin="bevel" transform="matrix(0.999987,0,0,-0.999987,33893.3,36263.5)"
font-family="MS Shell Dlg 2" font-size="10.3125" font-weight="400" font-style="normal" 
>
</g>

<g fill="#ae5151" fill-opacity="0.2" stroke="#333333" stroke-opacity="1" stroke-width="1" stroke-linecap="round" stroke-linejoin="round" transform="matrix(0.999987,0,0,-0.999987,33893.3,36263.5)"
font-family="MS Shell Dlg 2" font-size="10.3125" font-weight="400" font-style="normal" 
>
<path vector-effect="non-scaling-stroke" fill-rule="evenodd" d="M-4286.02,12124.2 L-7090.01,16174.4 L-7090,16174.5 L-6699.52,16444.9 L-17156.4,31549.2 L-17546.9,31278.9 L-17547,31278.9 L-20997.6,36263.1 L-20381.1,36207.1 L27688,31837.2 L27689.5,31837 L27728.6,31833.5 L28500.2,31763.3 L22115.3,27677 L22115.1,27677 L21859.1,28077 L2494.52,15683.7 L2750.54,15283.7 L2750.48,15283.6 L-2790.85,11737.1 L-2872.95,11809.1 L-2913.5,11854.6 L-3090.04,12109.6 L-3128.59,12082.9 L-3140.13,12096.9 L-3100.35,12124.5 L-3104.67,12130.7 L-3215.4,12188.5 L-3310.88,12304.7 L-3420.07,12295.4 L-3517.22,12346.1 L-3650.13,12275.7 L-3774.58,12265.1 L-3780.98,12261 L-3754.89,12220.3 L-3770.96,12211.7 L-3796.24,12251.2 L-3912.11,12177.1 L-4030.71,12138.7 L-4286.02,12124.2"/>
</g>

<g fill="none" stroke="#000000" stroke-opacity="1" stroke-width="1" stroke-linecap="square" stroke-linejoin="bevel" transform="matrix(0.999987,0,0,-0.999987,33893.3,36263.5)"
font-family="MS Shell Dlg 2" font-size="10.3125" font-weight="400" font-style="normal" 
>
</g>

<g fill="none" stroke="#000000" stroke-opacity="1" stroke-width="1" stroke-linecap="square" stroke-linejoin="bevel" transform="matrix(0.999987,0,0,-0.999987,33893.3,36263.5)"
font-family="MS Shell Dlg 2" font-size="10.3125" font-weight="400" font-style="normal" 
>
</g>

<g fill="#ffff00" fill-opacity="0.2" stroke="#333333" stroke-opacity="1" stroke-width="1" stroke-linecap="round" stroke-linejoin="round" transform="matrix(0.999987,0,0,-0.999987,33893.3,36263.5)"
font-family="MS Shell Dlg 2" font-size="10.3125" font-weight="400" font-style="normal" 
>
<path vector-effect="non-scaling-stroke" fill-rule="evenodd" d="M-33880.9,9493.54 L-33646.1,9982.63 L-21291.5,35721.4 L-21054.9,36214.2 L-14111.4,26184.7 L-14481.4,25928.6 L-11018.9,20927.1 L-10648.9,21183.3 L-4373.8,12119.2 L-4595.14,12106.7 L-4912.45,11968.8 L-5064.27,11657.9 L-4977.92,11322.9 L-4851.72,11140.6 L-15766,10521.3 L-15791.5,10970.6 L-21818.8,10628.6 L-21793.4,10179.4 L-33880.9,9493.54"/>
</g>

<g fill="none" stroke="#000000" stroke-opacity="1" stroke-width="1" stroke-linecap="square" stroke-linejoin="bevel" transform="matrix(0.999987,0,0,-0.999987,33893.3,36263.5)"
font-family="MS Shell Dlg 2" font-size="10.3125" font-weight="400" font-style="normal" 
>
</g>

<g fill="none" stroke="#000000" stroke-opacity="1" stroke-width="1" stroke-linecap="square" stroke-linejoin="bevel" transform="matrix(0.999987,0,0,-0.999987,33893.3,36263.5)"
font-family="MS Shell Dlg 2" font-size="10.3125" font-weight="400" font-style="normal" 
>
</g>

<g fill="#ffff00" fill-opacity="0.2" stroke="#333333" stroke-opacity="1" stroke-width="1" stroke-linecap="round" stroke-linejoin="round" transform="matrix(0.999987,0,0,-0.999987,33893.3,36263.5)"
font-family="MS Shell Dlg 2" font-size="10.3125" font-weight="400" font-style="normal" 
>
<path vector-effect="non-scaling-stroke" fill-rule="evenodd" d="M-20965.1,36260.2 L-20381.1,36207.1 L27728.6,31833.5 L28459.6,31767 L15625.5,23553.2 L15382.9,23932.2 L8970.77,19828.5 L9213.34,19449.5 L-2810.42,11754.3 L-2872.95,11809.1 L-2913.5,11854.6 L-3090.04,12109.6 L-3128.59,12082.9 L-3140.13,12096.9 L-3100.35,12124.5 L-3104.67,12130.7 L-3215.4,12188.5 L-3310.88,12304.7 L-3420.07,12295.4 L-3517.22,12346.1 L-3650.13,12275.7 L-3774.58,12265.1 L-3780.98,12261 L-3754.89,12220.3 L-3770.96,12211.7 L-3796.24,12251.2 L-3912.11,12177.1 L-4030.71,12138.7 L-4256.77,12125.9 L-10566.7,21240.2 L-10196.7,21496.3 L-13659.2,26497.8 L-14029.2,26241.6 L-20965.1,36260.2"/>
</g>

<g fill="none" stroke="#000000" stroke-opacity="1" stroke-width="1" stroke-linecap="square" stroke-linejoin="bevel" transform="matrix(0.999987,0,0,-0.999987,33893.3,36263.5)"
font-family="MS Shell Dlg 2" font-size="10.3125" font-weight="400" font-style="normal" 
>
</g>

<g fill="none" stroke="#000000" stroke-opacity="1" stroke-width="1" stroke-linecap="square" stroke-linejoin="bevel" transform="matrix(0.999987,0,0,-0.999987,33893.3,36263.5)"
font-family="MS Shell Dlg 2" font-size="10.3125" font-weight="400" font-style="normal" 
>
</g>

<g fill="#ae5151" fill-opacity="0.2" stroke="#333333" stroke-opacity="1" stroke-width="1" stroke-linecap="round" stroke-linejoin="round" transform="matrix(0.999987,0,0,-0.999987,33893.3,36263.5)"
font-family="MS Shell Dlg 2" font-size="10.3125" font-weight="400" font-style="normal" 
>
<path vector-effect="non-scaling-stroke" fill-rule="evenodd" d="M-5044.29,11580.4 L-9764.06,11312.6 L-9737.16,10838.4 L-9737.24,10838.4 L-15764.5,10496.4 L-15764.5,10496.4 L-15791.5,10970.6 L-21818.8,10628.6 L-21791.9,10154.5 L-21792,10154.4 L-27819.2,9812.42 L-27819.3,9812.49 L-27846.2,10286.7 L-33658.5,9956.88 L-21291.5,35721.4 L-21042.5,36240.2 L-17588.1,31250.5 L-17588.1,31250.4 L-17978.6,30980 L-7521.71,15875.6 L-7131.23,16146 L-7131.12,16146 L-4344.54,12120.9 L-4595.14,12106.7 L-4912.45,11968.8 L-5064.27,11657.9 L-5044.29,11580.4"/>
</g>

<g fill="none" stroke="#000000" stroke-opacity="1" stroke-width="1" stroke-linecap="square" stroke-linejoin="bevel" transform="matrix(0.999987,0,0,-0.999987,33893.3,36263.5)"
font-family="MS Shell Dlg 2" font-size="10.3125" font-weight="400" font-style="normal" 
>
</g>

<g fill="none" stroke="#000000" stroke-opacity="1" stroke-width="1" stroke-linecap="square" stroke-linejoin="bevel" transform="matrix(0.999987,0,0,-0.999987,33893.3,36263.5)"
font-family="MS Shell Dlg 2" font-size="10.3125" font-weight="400" font-style="normal" 
>
</g>

<g fill="#ae5151" fill-opacity="0.2" stroke="#333333" stroke-opacity="1" stroke-width="1" stroke-linecap="round" stroke-linejoin="round" transform="matrix(0.999987,0,0,-0.999987,33893.3,36263.5)"
font-family="MS Shell Dlg 2" font-size="10.3125" font-weight="400" font-style="normal" 
>
<path vector-effect="non-scaling-stroke" fill-rule="evenodd" d="M-20381.1,36207.1 L27728.6,31833.5 L21795,28036 L22051,27636 L22051,27635.9 L15639,23532.2 L15638.9,23532.2 L15382.9,23932.2 L8970.77,19828.5 L9226.78,19428.5 L9226.73,19428.3 L2814.79,15324.7 L2814.66,15324.7 L2558.65,15724.7 L-3129.67,12084.2 L-3140.13,12096.9 L-3100.35,12124.5 L-3104.67,12130.7 L-3215.4,12188.5 L-3310.88,12304.7 L-3420.07,12295.4 L-3517.22,12346.1 L-3650.13,12275.7 L-3774.58,12265.1 L-3780.98,12261 L-3754.89,12220.3 L-3769.45,12212.5 L-6734.14,16494.9 L-7124.63,16224.5 L-7124.73,16224.6 L-10587.2,21225.9 L-10587.2,21226 L-10196.7,21496.3 L-13659.2,26497.8 L-14049.7,26227.4 L-14049.8,26227.5 L-17512.3,31228.8 L-17512.3,31228.9 L-17121.8,31499.2 L-20381.1,36207.1"/>
</g>

<g fill="none" stroke="#000000" stroke-opacity="1" stroke-width="1" stroke-linecap="square" stroke-linejoin="bevel" transform="matrix(0.999987,0,0,-0.999987,33893.3,36263.5)"
font-family="MS Shell Dlg 2" font-size="10.3125" font-weight="400" font-style="normal" 
>
</g>

<g fill="none" stroke="#000000" stroke-opacity="1" stroke-width="1" stroke-linecap="square" stroke-linejoin="bevel" transform="matrix(0.999987,0,0,-0.999987,33893.3,36263.5)"
font-family="MS Shell Dlg 2" font-size="10.3125" font-weight="400" font-style="normal" 
>
</g>

<g fill="#333333" fill-opacity="0.2" stroke="#333333" stroke-opacity="1" stroke-width="1" stroke-linecap="round" stroke-linejoin="round" transform="matrix(0.999987,0,0,-0.999987,33893.3,36263.5)"
font-family="MS Shell Dlg 2" font-size="10.3125" font-weight="400" font-style="normal" 
>
<path vector-effect="non-scaling-stroke" fill-rule="evenodd" d="M-5044.29,11580.4 L-9764.06,11312.6 L-9737.16,10838.4 L-9737.24,10838.4 L-15764.5,10496.4 L-15764.5,10496.4 L-15791.5,10970.6 L-21818.8,10628.6 L-21791.9,10154.5 L-21792,10154.4 L-27819.2,9812.42 L-27819.3,9812.49 L-27846.2,10286.7 L-33658.5,9956.88 L-21291.5,35721.4 L-21042.5,36240.2 L-17588.1,31250.5 L-17588.1,31250.4 L-17978.6,30980 L-7521.71,15875.6 L-7131.23,16146 L-7131.12,16146 L-4344.54,12120.9 L-4595.14,12106.7 L-4912.45,11968.8 L-5064.27,11657.9 L-5044.29,11580.4"/>
</g>

<g fill="none" stroke="#000000" stroke-opacity="1" stroke-width="1" stroke-linecap="square" stroke-linejoin="bevel" transform="matrix(0.999987,0,0,-0.999987,33893.3,36263.5)"
font-family="MS Shell Dlg 2" font-size="10.3125" font-weight="400" font-style="normal" 
>
</g>

<g fill="none" stroke="#000000" stroke-opacity="1" stroke-width="1" stroke-linecap="square" stroke-linejoin="bevel" transform="matrix(0.999987,0,0,-0.999987,33893.3,36263.5)"
font-family="MS Shell Dlg 2" font-size="10.3125" font-weight="400" font-style="normal" 
>
</g>

<g fill="#333333" fill-opacity="0.2" stroke="#333333" stroke-opacity="1" stroke-width="1" stroke-linecap="round" stroke-linejoin="round" transform="matrix(0.999987,0,0,-0.999987,33893.3,36263.5)"
font-family="MS Shell Dlg 2" font-size="10.3125" font-weight="400" font-style="normal" 
>
<path vector-effect="non-scaling-stroke" fill-rule="evenodd" d="M-20381.1,36207.1 L27728.6,31833.5 L21795,28036 L22051,27636 L22051,27635.9 L15639,23532.2 L15638.9,23532.2 L15382.9,23932.2 L8970.77,19828.5 L9226.78,19428.5 L9226.73,19428.3 L2814.79,15324.7 L2814.66,15324.7 L2558.65,15724.7 L-3129.67,12084.2 L-3140.13,12096.9 L-3100.35,12124.5 L-3104.67,12130.7 L-3215.4,12188.5 L-3310.88,12304.7 L-3420.07,12295.4 L-3517.22,12346.1 L-3650.13,12275.7 L-3774.58,12265.1 L-3780.98,12261 L-3754.89,12220.3 L-3769.45,12212.5 L-6734.14,16494.9 L-7124.63,16224.5 L-7124.73,16224.6 L-10587.2,21225.9 L-10587.2,21226 L-10196.7,21496.3 L-13659.2,26497.8 L-14049.7,26227.4 L-14049.8,26227.5 L-17512.3,31228.8 L-17512.3,31228.9 L-17121.8,31499.2 L-20381.1,36207.1"/>
</g>

<g fill="none" stroke="#000000" stroke-opacity="1" stroke-width="1" stroke-linecap="square" stroke-linejoin="bevel" transform="matrix(0.999987,0,0,-0.999987,33893.3,36263.5)"
font-family="MS Shell Dlg 2" font-size="10.3125" font-weight="400" font-style="normal" 
>
</g>

<g fill="none" stroke="#000000" stroke-opacity="1" stroke-width="1" stroke-linecap="square" stroke-linejoin="bevel" transform="matrix(1,0,0,-1,0,26796.3)"
font-family="MS Shell Dlg 2" font-size="10.3125" font-weight="400" font-style="normal" 
>
</g>
</g>
</svg>
