<?xml version="1.0" encoding="UTF-8" standalone="no"?>
<svg width="8830.45mm" height="12276.9mm"
 xmlns="http://www.w3.org/2000/svg" xmlns:xlink="http://www.w3.org/1999/xlink"  version="1.2" baseProfile="tiny">
<title>SVG Generator Example Drawing</title>
<desc>An SVG drawing created by the SVG Generator</desc>
<defs>
</defs>
<g fill="none" stroke="black" stroke-width="1" fill-rule="evenodd" stroke-linecap="square" stroke-linejoin="bevel" >

<g fill="none" stroke="#000000" stroke-opacity="1" stroke-width="1" stroke-linecap="square" stroke-linejoin="bevel" transform="matrix(1,0,0,-1,0,43501)"
font-family="MS Shell Dlg 2" font-size="10.3125" font-weight="400" font-style="normal" 
>
</g>

<g fill="none" stroke="#000000" stroke-opacity="1" stroke-width="1" stroke-linecap="square" stroke-linejoin="bevel" transform="matrix(1,0,0,-1,0,43501)"
font-family="MS Shell Dlg 2" font-size="10.3125" font-weight="400" font-style="normal" 
>
</g>

<g fill="none" stroke="#000000" stroke-opacity="1" stroke-width="1" stroke-linecap="square" stroke-linejoin="bevel" transform="matrix(1,0,0,-1,2752.22,31727.6)"
font-family="MS Shell Dlg 2" font-size="10.3125" font-weight="400" font-style="normal" 
>
</g>

<g fill="#333333" fill-opacity="0.2" stroke="#333333" stroke-opacity="1" stroke-width="1" stroke-linecap="round" stroke-linejoin="round" transform="matrix(1,0,0,-1,2752.22,31727.6)"
font-family="MS Shell Dlg 2" font-size="10.3125" font-weight="400" font-style="normal" 
>
<path vector-effect="non-scaling-stroke" fill-rule="evenodd" d="M28451,31108.5 L22614,-11209.3 L17594.5,-6806.95 L17281.4,-7164.01 L17281.3,-7164 L12066.2,-2590.15 L12066.2,-2590.03 L12379.3,-2232.97 L7164.15,2341.01 L6851,1983.95 L6850.88,1983.96 L1635.83,6557.81 L1635.81,6557.93 L1948.96,6914.99 L-2476.43,10796.3 L-2319.79,11058.5 L-2435.29,11341.3 L3097.7,14882.5 L2841.69,15282.5 L2841.74,15282.6 L9253.68,19386.2 L9253.81,19386.2 L9509.82,18986.2 L15921.9,23090 L15665.9,23490 L15666,23490.1 L22077.9,27593.7 L22078,27593.7 L22334.1,27193.7 L28451,31108.5"/>
</g>

<g fill="none" stroke="#000000" stroke-opacity="1" stroke-width="1" stroke-linecap="square" stroke-linejoin="bevel" transform="matrix(1,0,0,-1,2752.22,31727.6)"
font-family="MS Shell Dlg 2" font-size="10.3125" font-weight="400" font-style="normal" 
>
</g>

<g fill="none" stroke="#000000" stroke-opacity="1" stroke-width="1" stroke-linecap="square" stroke-linejoin="bevel" transform="matrix(1,0,0,-1,2752.22,31727.6)"
font-family="MS Shell Dlg 2" font-size="10.3125" font-weight="400" font-style="normal" 
>
</g>

<g fill="#ae5151" fill-opacity="0.2" stroke="#333333" stroke-opacity="1" stroke-width="1" stroke-linecap="round" stroke-linejoin="round" transform="matrix(1,0,0,-1,2752.22,31727.6)"
font-family="MS Shell Dlg 2" font-size="10.3125" font-weight="400" font-style="normal" 
>
<path vector-effect="non-scaling-stroke" fill-rule="evenodd" d="M28451,31108.5 L22614,-11209.3 L17594.5,-6806.95 L17281.4,-7164.01 L17281.3,-7164 L12066.2,-2590.15 L12066.2,-2590.03 L12379.3,-2232.97 L7164.15,2341.01 L6851,1983.95 L6850.88,1983.96 L1635.83,6557.81 L1635.81,6557.93 L1948.96,6914.99 L-2476.43,10796.3 L-2319.79,11058.5 L-2435.29,11341.3 L3097.7,14882.5 L2841.69,15282.5 L2841.74,15282.6 L9253.68,19386.2 L9253.81,19386.2 L9509.82,18986.2 L15921.9,23090 L15665.9,23490 L15666,23490.1 L22077.9,27593.7 L22078,27593.7 L22334.1,27193.7 L28451,31108.5"/>
</g>

<g fill="none" stroke="#000000" stroke-opacity="1" stroke-width="1" stroke-linecap="square" stroke-linejoin="bevel" transform="matrix(1,0,0,-1,2752.22,31727.6)"
font-family="MS Shell Dlg 2" font-size="10.3125" font-weight="400" font-style="normal" 
>
</g>

<g fill="none" stroke="#000000" stroke-opacity="1" stroke-width="1" stroke-linecap="square" stroke-linejoin="bevel" transform="matrix(1,0,0,-1,2752.22,31727.6)"
font-family="MS Shell Dlg 2" font-size="10.3125" font-weight="400" font-style="normal" 
>
</g>

<g fill="#ffff00" fill-opacity="0.2" stroke="#333333" stroke-opacity="1" stroke-width="1" stroke-linecap="round" stroke-linejoin="round" transform="matrix(1,0,0,-1,2752.22,31727.6)"
font-family="MS Shell Dlg 2" font-size="10.3125" font-weight="400" font-style="normal" 
>
<path vector-effect="non-scaling-stroke" fill-rule="evenodd" d="M28531.8,31694.5 L28446.5,31076 L22614,-11209.3 L22540.4,-11743.2 L12082.6,-2571.29 L12379.3,-2232.97 L7164.15,2341.01 L6867.43,2002.69 L-2736.51,10425.8 L-2732.32,10457.4 L-2624.77,10626.4 L-2548.84,10675 L-2319.79,11058.5 L-2488.68,11472.1 L-2732.16,11685.6 L9267.24,19365.2 L9509.82,18986.2 L15921.9,23090 L15679.4,23469 L28531.8,31694.5"/>
</g>

<g fill="none" stroke="#000000" stroke-opacity="1" stroke-width="1" stroke-linecap="square" stroke-linejoin="bevel" transform="matrix(1,0,0,-1,2752.22,31727.6)"
font-family="MS Shell Dlg 2" font-size="10.3125" font-weight="400" font-style="normal" 
>
</g>

<g fill="none" stroke="#000000" stroke-opacity="1" stroke-width="1" stroke-linecap="square" stroke-linejoin="bevel" transform="matrix(1,0,0,-1,2752.22,31727.6)"
font-family="MS Shell Dlg 2" font-size="10.3125" font-weight="400" font-style="normal" 
>
</g>

<g fill="#ae5151" fill-opacity="0.2" stroke="#333333" stroke-opacity="1" stroke-width="1" stroke-linecap="round" stroke-linejoin="round" transform="matrix(1,0,0,-1,2752.22,31727.6)"
font-family="MS Shell Dlg 2" font-size="10.3125" font-weight="400" font-style="normal" 
>
<path vector-effect="non-scaling-stroke" fill-rule="evenodd" d="M28446.5,31076 L22614,-11209.3 L22536.3,-11772.9 L17333.6,-7209.87 L17333.5,-7209.75 L17646.7,-6852.69 L1896.81,6960.73 L1583.65,6603.67 L1583.53,6603.68 L-2740.46,10396 L-2732.32,10457.4 L-2624.77,10626.4 L-2548.84,10675 L-2319.79,11058.5 L-2488.68,11472.1 L-2751.72,11702.8 L2777.44,15241.4 L2777.57,15241.4 L3033.58,14841.4 L22398.2,27234.8 L22142.2,27634.8 L22142.2,27634.9 L28536.3,31727.1 L28446.5,31076"/>
</g>

<g fill="none" stroke="#000000" stroke-opacity="1" stroke-width="1" stroke-linecap="square" stroke-linejoin="bevel" transform="matrix(1,0,0,-1,2752.22,31727.6)"
font-family="MS Shell Dlg 2" font-size="10.3125" font-weight="400" font-style="normal" 
>
</g>

<g fill="none" stroke="#000000" stroke-opacity="1" stroke-width="1" stroke-linecap="square" stroke-linejoin="bevel" transform="matrix(1,0,0,-1,2752.22,31727.6)"
font-family="MS Shell Dlg 2" font-size="10.3125" font-weight="400" font-style="normal" 
>
</g>

<g fill="#333333" fill-opacity="0.2" stroke="#333333" stroke-opacity="1" stroke-width="1" stroke-linecap="round" stroke-linejoin="round" transform="matrix(1,0,0,-1,2752.22,31727.6)"
font-family="MS Shell Dlg 2" font-size="10.3125" font-weight="400" font-style="normal" 
>
<path vector-effect="non-scaling-stroke" fill-rule="evenodd" d="M28446.5,31076 L22614,-11209.3 L22536.3,-11772.9 L17333.6,-7209.87 L17333.5,-7209.75 L17646.7,-6852.69 L1896.81,6960.73 L1583.65,6603.67 L1583.53,6603.68 L-2740.46,10396 L-2732.32,10457.4 L-2624.77,10626.4 L-2548.84,10675 L-2319.79,11058.5 L-2488.68,11472.1 L-2751.72,11702.8 L2777.44,15241.4 L2777.57,15241.4 L3033.58,14841.4 L22398.2,27234.8 L22142.2,27634.8 L22142.2,27634.9 L28536.3,31727.1 L28446.5,31076"/>
</g>

<g fill="none" stroke="#000000" stroke-opacity="1" stroke-width="1" stroke-linecap="square" stroke-linejoin="bevel" transform="matrix(1,0,0,-1,2752.22,31727.6)"
font-family="MS Shell Dlg 2" font-size="10.3125" font-weight="400" font-style="normal" 
>
</g>

<g fill="none" stroke="#000000" stroke-opacity="1" stroke-width="1" stroke-linecap="square" stroke-linejoin="bevel" transform="matrix(1,0,0,-1,0,43501)"
font-family="MS Shell Dlg 2" font-size="10.3125" font-weight="400" font-style="normal" 
>
</g>
</g>
</svg>
