<?xml version="1.0" encoding="UTF-8" standalone="no"?>
<svg width="15916.8mm" height="10932.7mm"
 xmlns="http://www.w3.org/2000/svg" xmlns:xlink="http://www.w3.org/1999/xlink"  version="1.2" baseProfile="tiny">
<title>SVG Generator Example Drawing</title>
<desc>An SVG drawing created by the SVG Generator</desc>
<defs>
</defs>
<g fill="none" stroke="black" stroke-width="1" fill-rule="evenodd" stroke-linecap="square" stroke-linejoin="bevel" >

<g fill="none" stroke="#000000" stroke-opacity="1" stroke-width="1" stroke-linecap="square" stroke-linejoin="bevel" transform="matrix(1,0,0,-1,0,38738)"
font-family="MS Shell Dlg 2" font-size="10.3125" font-weight="400" font-style="normal" 
>
</g>

<g fill="none" stroke="#000000" stroke-opacity="1" stroke-width="1" stroke-linecap="square" stroke-linejoin="bevel" transform="matrix(1,0,0,-1,0,38738)"
font-family="MS Shell Dlg 2" font-size="10.3125" font-weight="400" font-style="normal" 
>
</g>

<g fill="none" stroke="#000000" stroke-opacity="1" stroke-width="1" stroke-linecap="square" stroke-linejoin="bevel" transform="matrix(0.999992,0,0,-0.999992,33889.5,11069)"
font-family="MS Shell Dlg 2" font-size="10.3125" font-weight="400" font-style="normal" 
>
</g>

<g fill="#333333" fill-opacity="0.2" stroke="#333333" stroke-opacity="1" stroke-width="1" stroke-linecap="round" stroke-linejoin="round" transform="matrix(0.999992,0,0,-0.999992,33889.5,11069)"
font-family="MS Shell Dlg 2" font-size="10.3125" font-weight="400" font-style="normal" 
>
<path vector-effect="non-scaling-stroke" fill-rule="evenodd" d="M22051.6,-12046.2 L-8257.57,-27408.3 L-8771.25,-27668.7 L-7747.58,-19948.5 L-7747.49,-19948.4 L-7276.68,-20010.8 L-4178.35,3355.78 L-4649.15,3418.21 L-4649.21,3418.33 L-3783.47,9947.44 L-3604.92,9790.84 L-3275.4,9666.75 L-2945.8,9790.62 L-2779.57,10101 L-2748.36,10336.5 L1550.56,6566.09 L1550.59,6565.97 L1237.43,6208.91 L16987.3,-7604.5 L17300.5,-7247.44 L17300.6,-7247.46 L22508.2,-11814.8 L22051.6,-12046.2"/>
</g>

<g fill="none" stroke="#000000" stroke-opacity="1" stroke-width="1" stroke-linecap="square" stroke-linejoin="bevel" transform="matrix(0.999992,0,0,-0.999992,33889.5,11069)"
font-family="MS Shell Dlg 2" font-size="10.3125" font-weight="400" font-style="normal" 
>
</g>

<g fill="none" stroke="#000000" stroke-opacity="1" stroke-width="1" stroke-linecap="square" stroke-linejoin="bevel" transform="matrix(0.999992,0,0,-0.999992,33889.5,11069)"
font-family="MS Shell Dlg 2" font-size="10.3125" font-weight="400" font-style="normal" 
>
</g>

<g fill="#333333" fill-opacity="0.2" stroke="#333333" stroke-opacity="1" stroke-width="1" stroke-linecap="round" stroke-linejoin="round" transform="matrix(0.999992,0,0,-0.999992,33889.5,11069)"
font-family="MS Shell Dlg 2" font-size="10.3125" font-weight="400" font-style="normal" 
>
<path vector-effect="non-scaling-stroke" fill-rule="evenodd" d="M-9219.98,-27058.9 L-33579.4,8959.76 L-27789.6,9288.26 L-27816.5,9762.43 L-27816.4,9762.5 L-21789.2,10104.5 L-21789.1,10104.4 L-21762.2,9630.24 L-15734.8,9972.22 L-15761.7,10446.4 L-15761.6,10446.5 L-9734.4,10788.4 L-9734.32,10788.4 L-9707.41,10314.2 L-4689.51,10598.9 L-4589.76,10285.3 L-4284.57,10162.3 L-5179.93,3409.86 L-4709.12,3347.43 L-4709.06,3347.31 L-5734.97,-4389.76 L-5735.06,-4389.86 L-6205.87,-4327.43 L-7231.81,-12064.7 L-6761,-12127.2 L-6760.94,-12127.3 L-7786.85,-19864.3 L-7786.94,-19864.4 L-8257.75,-19802 L-9219.98,-27058.9"/>
</g>

<g fill="none" stroke="#000000" stroke-opacity="1" stroke-width="1" stroke-linecap="square" stroke-linejoin="bevel" transform="matrix(0.999992,0,0,-0.999992,33889.5,11069)"
font-family="MS Shell Dlg 2" font-size="10.3125" font-weight="400" font-style="normal" 
>
</g>

<g fill="none" stroke="#000000" stroke-opacity="1" stroke-width="1" stroke-linecap="square" stroke-linejoin="bevel" transform="matrix(0.999992,0,0,-0.999992,33889.5,11069)"
font-family="MS Shell Dlg 2" font-size="10.3125" font-weight="400" font-style="normal" 
>
</g>

<g fill="#ae5151" fill-opacity="0.2" stroke="#333333" stroke-opacity="1" stroke-width="1" stroke-linecap="round" stroke-linejoin="round" transform="matrix(0.999992,0,0,-0.999992,33889.5,11069)"
font-family="MS Shell Dlg 2" font-size="10.3125" font-weight="400" font-style="normal" 
>
<path vector-effect="non-scaling-stroke" fill-rule="evenodd" d="M22051.6,-12046.2 L-8257.57,-27408.3 L-8771.25,-27668.7 L-7747.58,-19948.5 L-7747.49,-19948.4 L-7276.68,-20010.8 L-4178.35,3355.78 L-4649.15,3418.21 L-4649.21,3418.33 L-3783.47,9947.44 L-3604.92,9790.84 L-3275.4,9666.75 L-2945.8,9790.62 L-2779.57,10101 L-2748.36,10336.5 L1550.56,6566.09 L1550.59,6565.97 L1237.43,6208.91 L16987.3,-7604.5 L17300.5,-7247.44 L17300.6,-7247.46 L22508.2,-11814.8 L22051.6,-12046.2"/>
</g>

<g fill="none" stroke="#000000" stroke-opacity="1" stroke-width="1" stroke-linecap="square" stroke-linejoin="bevel" transform="matrix(0.999992,0,0,-0.999992,33889.5,11069)"
font-family="MS Shell Dlg 2" font-size="10.3125" font-weight="400" font-style="normal" 
>
</g>

<g fill="none" stroke="#000000" stroke-opacity="1" stroke-width="1" stroke-linecap="square" stroke-linejoin="bevel" transform="matrix(0.999992,0,0,-0.999992,33889.5,11069)"
font-family="MS Shell Dlg 2" font-size="10.3125" font-weight="400" font-style="normal" 
>
</g>

<g fill="#ae5151" fill-opacity="0.2" stroke="#333333" stroke-opacity="1" stroke-width="1" stroke-linecap="round" stroke-linejoin="round" transform="matrix(0.999992,0,0,-0.999992,33889.5,11069)"
font-family="MS Shell Dlg 2" font-size="10.3125" font-weight="400" font-style="normal" 
>
<path vector-effect="non-scaling-stroke" fill-rule="evenodd" d="M-9219.98,-27058.9 L-33579.4,8959.76 L-27789.6,9288.26 L-27816.5,9762.43 L-27816.4,9762.5 L-21789.2,10104.5 L-21789.1,10104.4 L-21762.2,9630.24 L-15734.8,9972.22 L-15761.7,10446.4 L-15761.6,10446.5 L-9734.4,10788.4 L-9734.32,10788.4 L-9707.41,10314.2 L-4689.51,10598.9 L-4589.76,10285.3 L-4284.57,10162.3 L-5179.93,3409.86 L-4709.12,3347.43 L-4709.06,3347.31 L-5734.97,-4389.76 L-5735.06,-4389.86 L-6205.87,-4327.43 L-7231.81,-12064.7 L-6761,-12127.2 L-6760.94,-12127.3 L-7786.85,-19864.3 L-7786.94,-19864.4 L-8257.75,-19802 L-9219.98,-27058.9"/>
</g>

<g fill="none" stroke="#000000" stroke-opacity="1" stroke-width="1" stroke-linecap="square" stroke-linejoin="bevel" transform="matrix(0.999992,0,0,-0.999992,33889.5,11069)"
font-family="MS Shell Dlg 2" font-size="10.3125" font-weight="400" font-style="normal" 
>
</g>

<g fill="none" stroke="#000000" stroke-opacity="1" stroke-width="1" stroke-linecap="square" stroke-linejoin="bevel" transform="matrix(0.999992,0,0,-0.999992,33889.5,11069)"
font-family="MS Shell Dlg 2" font-size="10.3125" font-weight="400" font-style="normal" 
>
</g>

<g fill="#ffff00" fill-opacity="0.2" stroke="#333333" stroke-opacity="1" stroke-width="1" stroke-linecap="round" stroke-linejoin="round" transform="matrix(0.999992,0,0,-0.999992,33889.5,11069)"
font-family="MS Shell Dlg 2" font-size="10.3125" font-weight="400" font-style="normal" 
>
<path vector-effect="non-scaling-stroke" fill-rule="evenodd" d="M22051.6,-12046.2 L22032.4,-12055.9 L22027.6,-12058.3 L-8230.53,-27394.6 L-8744.21,-27655 L-6686.58,-12137 L-6240.48,-12196.2 L-5214.54,-4458.88 L-5660.64,-4399.73 L-3760.88,9927.62 L-3604.92,9790.84 L-3275.4,9666.75 L-2945.8,9790.62 L-2779.57,10101 L-2752.31,10306.7 L6801.5,1927.51 L6504.78,1589.19 L11720,-2984.78 L12016.7,-2646.47 L22484.1,-11826.9 L22051.6,-12046.2"/>
</g>

<g fill="none" stroke="#000000" stroke-opacity="1" stroke-width="1" stroke-linecap="square" stroke-linejoin="bevel" transform="matrix(0.999992,0,0,-0.999992,33889.5,11069)"
font-family="MS Shell Dlg 2" font-size="10.3125" font-weight="400" font-style="normal" 
>
</g>

<g fill="none" stroke="#000000" stroke-opacity="1" stroke-width="1" stroke-linecap="square" stroke-linejoin="bevel" transform="matrix(0.999992,0,0,-0.999992,33889.5,11069)"
font-family="MS Shell Dlg 2" font-size="10.3125" font-weight="400" font-style="normal" 
>
</g>

<g fill="#ffff00" fill-opacity="0.2" stroke="#333333" stroke-opacity="1" stroke-width="1" stroke-linecap="round" stroke-linejoin="round" transform="matrix(0.999992,0,0,-0.999992,33889.5,11069)"
font-family="MS Shell Dlg 2" font-size="10.3125" font-weight="400" font-style="normal" 
>
<path vector-effect="non-scaling-stroke" fill-rule="evenodd" d="M-8840.45,-27620 L-9219.98,-27058.9 L-33563.1,8935.65 L-33873,9393.83 L-21787.7,10079.5 L-21762.2,9630.24 L-15734.8,9972.22 L-15760.3,10421.5 L-4785,11044.2 L-4743.24,10983.9 L-4702.43,10814.8 L-4718.84,10691.1 L-4589.76,10285.3 L-4194.85,10126.2 L-4098.04,10131.7 L-3925.95,10072.4 L-3851.25,10006.9 L-5759.77,-4386.58 L-6205.87,-4327.43 L-7231.81,-12064.7 L-6785.71,-12123.9 L-8840.45,-27620"/>
</g>

<g fill="none" stroke="#000000" stroke-opacity="1" stroke-width="1" stroke-linecap="square" stroke-linejoin="bevel" transform="matrix(0.999992,0,0,-0.999992,33889.5,11069)"
font-family="MS Shell Dlg 2" font-size="10.3125" font-weight="400" font-style="normal" 
>
</g>

<g fill="none" stroke="#000000" stroke-opacity="1" stroke-width="1" stroke-linecap="square" stroke-linejoin="bevel" transform="matrix(0.999992,0,0,-0.999992,33889.5,11069)"
font-family="MS Shell Dlg 2" font-size="10.3125" font-weight="400" font-style="normal" 
>
</g>

<g fill="#ae5151" fill-opacity="0.2" stroke="#333333" stroke-opacity="1" stroke-width="1" stroke-linecap="round" stroke-linejoin="round" transform="matrix(0.999992,0,0,-0.999992,33889.5,11069)"
font-family="MS Shell Dlg 2" font-size="10.3125" font-weight="400" font-style="normal" 
>
<path vector-effect="non-scaling-stroke" fill-rule="evenodd" d="M22051.6,-12046.2 L-8257.57,-27408.3 L-7266.42,-19933.5 L-7737.23,-19871 L-7737.29,-19870.9 L-6711.38,-12133.8 L-6711.29,-12133.7 L-6240.48,-12196.2 L-5214.54,-4458.88 L-5685.35,-4396.45 L-5685.41,-4396.33 L-4659.5,3340.74 L-4659.41,3340.84 L-4188.61,3278.41 L-3338.39,9690.47 L-3275.4,9666.75 L-2945.8,9790.62 L-2914.03,9849.95 L1289.59,6163.17 L1602.74,6520.23 L1602.86,6520.22 L6817.91,1946.37 L6817.93,1946.25 L6504.78,1589.19 L11720,-2984.78 L12033.1,-2627.73 L12033.2,-2627.74 L17248.3,-7201.59 L17248.3,-7201.71 L16935.2,-7558.76 L22051.6,-12046.2"/>
</g>

<g fill="none" stroke="#000000" stroke-opacity="1" stroke-width="1" stroke-linecap="square" stroke-linejoin="bevel" transform="matrix(0.999992,0,0,-0.999992,33889.5,11069)"
font-family="MS Shell Dlg 2" font-size="10.3125" font-weight="400" font-style="normal" 
>
</g>

<g fill="none" stroke="#000000" stroke-opacity="1" stroke-width="1" stroke-linecap="square" stroke-linejoin="bevel" transform="matrix(0.999992,0,0,-0.999992,33889.5,11069)"
font-family="MS Shell Dlg 2" font-size="10.3125" font-weight="400" font-style="normal" 
>
</g>

<g fill="#ae5151" fill-opacity="0.2" stroke="#333333" stroke-opacity="1" stroke-width="1" stroke-linecap="round" stroke-linejoin="round" transform="matrix(0.999992,0,0,-0.999992,33889.5,11069)"
font-family="MS Shell Dlg 2" font-size="10.3125" font-weight="400" font-style="normal" 
>
<path vector-effect="non-scaling-stroke" fill-rule="evenodd" d="M-9219.98,-27058.9 L-33579.4,8959.76 L-33889.3,9417.95 L-27876.9,9759.08 L-27876.8,9759.01 L-27849.9,9284.84 L-9647.14,10317.6 L-9674.04,10791.8 L-9673.96,10791.9 L-4801.68,11068.3 L-4743.24,10983.9 L-4702.43,10814.8 L-4718.84,10691.1 L-4589.76,10285.3 L-4194.85,10126.2 L-4098.04,10131.7 L-3925.95,10072.4 L-3828.66,9987.06 L-4698.78,3424.9 L-4698.86,3424.8 L-5169.67,3487.23 L-8268.01,-19879.4 L-7797.2,-19941.8 L-7797.14,-19941.9 L-8819.37,-27651.2 L-9219.98,-27058.9"/>
</g>

<g fill="none" stroke="#000000" stroke-opacity="1" stroke-width="1" stroke-linecap="square" stroke-linejoin="bevel" transform="matrix(0.999992,0,0,-0.999992,33889.5,11069)"
font-family="MS Shell Dlg 2" font-size="10.3125" font-weight="400" font-style="normal" 
>
</g>

<g fill="none" stroke="#000000" stroke-opacity="1" stroke-width="1" stroke-linecap="square" stroke-linejoin="bevel" transform="matrix(0.999992,0,0,-0.999992,33889.5,11069)"
font-family="MS Shell Dlg 2" font-size="10.3125" font-weight="400" font-style="normal" 
>
</g>

<g fill="#333333" fill-opacity="0.2" stroke="#333333" stroke-opacity="1" stroke-width="1" stroke-linecap="round" stroke-linejoin="round" transform="matrix(0.999992,0,0,-0.999992,33889.5,11069)"
font-family="MS Shell Dlg 2" font-size="10.3125" font-weight="400" font-style="normal" 
>
<path vector-effect="non-scaling-stroke" fill-rule="evenodd" d="M22051.6,-12046.2 L-8257.57,-27408.3 L-7266.42,-19933.5 L-7737.23,-19871 L-7737.29,-19870.9 L-6711.38,-12133.8 L-6711.29,-12133.7 L-6240.48,-12196.2 L-5214.54,-4458.88 L-5685.35,-4396.45 L-5685.41,-4396.33 L-4659.5,3340.74 L-4659.41,3340.84 L-4188.61,3278.41 L-3338.39,9690.47 L-3275.4,9666.75 L-2945.8,9790.62 L-2914.03,9849.95 L1289.59,6163.17 L1602.74,6520.23 L1602.86,6520.22 L6817.91,1946.37 L6817.93,1946.25 L6504.78,1589.19 L11720,-2984.78 L12033.1,-2627.73 L12033.2,-2627.74 L17248.3,-7201.59 L17248.3,-7201.71 L16935.2,-7558.76 L22051.6,-12046.2"/>
</g>

<g fill="none" stroke="#000000" stroke-opacity="1" stroke-width="1" stroke-linecap="square" stroke-linejoin="bevel" transform="matrix(0.999992,0,0,-0.999992,33889.5,11069)"
font-family="MS Shell Dlg 2" font-size="10.3125" font-weight="400" font-style="normal" 
>
</g>

<g fill="none" stroke="#000000" stroke-opacity="1" stroke-width="1" stroke-linecap="square" stroke-linejoin="bevel" transform="matrix(0.999992,0,0,-0.999992,33889.5,11069)"
font-family="MS Shell Dlg 2" font-size="10.3125" font-weight="400" font-style="normal" 
>
</g>

<g fill="#333333" fill-opacity="0.2" stroke="#333333" stroke-opacity="1" stroke-width="1" stroke-linecap="round" stroke-linejoin="round" transform="matrix(0.999992,0,0,-0.999992,33889.5,11069)"
font-family="MS Shell Dlg 2" font-size="10.3125" font-weight="400" font-style="normal" 
>
<path vector-effect="non-scaling-stroke" fill-rule="evenodd" d="M-9219.98,-27058.9 L-33579.4,8959.76 L-33889.3,9417.95 L-27876.9,9759.08 L-27876.8,9759.01 L-27849.9,9284.84 L-9647.14,10317.6 L-9674.04,10791.8 L-9673.96,10791.9 L-4801.68,11068.3 L-4743.24,10983.9 L-4702.43,10814.8 L-4718.84,10691.1 L-4589.76,10285.3 L-4194.85,10126.2 L-4098.04,10131.7 L-3925.95,10072.4 L-3828.66,9987.06 L-4698.78,3424.9 L-4698.86,3424.8 L-5169.67,3487.23 L-8268.01,-19879.4 L-7797.2,-19941.8 L-7797.14,-19941.9 L-8819.37,-27651.2 L-9219.98,-27058.9"/>
</g>

<g fill="none" stroke="#000000" stroke-opacity="1" stroke-width="1" stroke-linecap="square" stroke-linejoin="bevel" transform="matrix(0.999992,0,0,-0.999992,33889.5,11069)"
font-family="MS Shell Dlg 2" font-size="10.3125" font-weight="400" font-style="normal" 
>
</g>

<g fill="none" stroke="#000000" stroke-opacity="1" stroke-width="1" stroke-linecap="square" stroke-linejoin="bevel" transform="matrix(1,0,0,-1,0,38738)"
font-family="MS Shell Dlg 2" font-size="10.3125" font-weight="400" font-style="normal" 
>
</g>
</g>
</svg>
