<?xml version="1.0" encoding="UTF-8" standalone="no"?>
<svg width="16933.6mm" height="32542.2mm"
 xmlns="http://www.w3.org/2000/svg" xmlns:xlink="http://www.w3.org/1999/xlink"  version="1.2" baseProfile="tiny">
<title>SVG Generator Example Drawing</title>
<desc>An SVG drawing created by the SVG Generator</desc>
<defs>
</defs>
<g fill="none" stroke="black" stroke-width="1" fill-rule="evenodd" stroke-linecap="square" stroke-linejoin="bevel" >

<g fill="none" stroke="#000000" stroke-opacity="1" stroke-width="1" stroke-linecap="square" stroke-linejoin="bevel" transform="matrix(1,0,0,-1,0,115307)"
font-family="MS Shell Dlg 2" font-size="10.3125" font-weight="400" font-style="normal" 
>
</g>

<g fill="none" stroke="#000000" stroke-opacity="1" stroke-width="1" stroke-linecap="square" stroke-linejoin="bevel" transform="matrix(1,0,0,-1,0,115307)"
font-family="MS Shell Dlg 2" font-size="10.3125" font-weight="400" font-style="normal" 
>
</g>

<g fill="none" stroke="#000000" stroke-opacity="1" stroke-width="1" stroke-linecap="square" stroke-linejoin="bevel" transform="matrix(0.999999,0,0,-0.999999,30000.5,71306.6)"
font-family="MS Shell Dlg 2" font-size="10.3125" font-weight="400" font-style="normal" 
>
</g>

<g fill="#333333" fill-opacity="0.2" stroke="#333333" stroke-opacity="1" stroke-width="1" stroke-linecap="round" stroke-linejoin="round" transform="matrix(0.999999,0,0,-0.999999,30000.5,71306.6)"
font-family="MS Shell Dlg 2" font-size="10.3125" font-weight="400" font-style="normal" 
>
<path vector-effect="non-scaling-stroke" fill-rule="evenodd" d="M30000,3646.07 L30000,646.068 L16026.3,646.068 L16026.3,3646.07 L16026.3,15071.1 L16026.3,34881.1 L23225,34881.1 L23225,37311.1 L16026.3,37311.1 L16026.3,44071.1 L10375,44071.1 L10375,37071.1 L10125,37071.1 L10125,26071.1 L10125,7778.17 L10275.2,8038.25 L13278.2,6304.45 L15026.3,-6973.72 L9526.28,-16500 L5500,-20526.3 L5000,-20815 L5000,-31000 L5000,-39000 L0,-44000 L-5000,-39000 L-5000,-31000 L-5000,-20815 L-5500,-20526.3 L-9526.28,-16500 L-15026.3,-6973.72 L-13278.2,6304.45 L-10275.2,8038.25 L-10125,7778.17 L-10125,26071.1 L-10125,37071.1 L-10375,37071.1 L-10375,44071.1 L-16026.3,44071.1 L-16026.3,37311.1 L-23225,37311.1 L-23225,34881.1 L-16026.3,34881.1 L-16026.3,15071.1 L-16026.3,3646.07 L-16026.3,646.068 L-30000,646.068 L-30000,3646.07 L-30000,15071.1 L-30000,56881.1 L-30000,68306.1 L-30000,71306.1 L-16026.3,71306.1 L-16026.3,68306.1 L-16026.3,56881.1 L16026.3,56881.1 L16026.3,68306.1 L16026.3,71306.1 L30000,71306.1 L30000,68306.1 L30000,56881.1 L30000,15071.1 L30000,3646.07 M-125,7778.17 L0,7778.17 L125,7778.17 L125,26071.1 L125,37071.1 L-125,37071.1 L-125,26071.1 L-125,7778.17 M5062.5,9378.17 L5131.66,9384.2 L5228.64,9414.31 L5314.91,9467.87 L5384.92,9541.44 L5434.15,9630.26 L5459.42,9728.61 L5459.11,9830.16 L5433.24,9928.36 L5383.47,10016.9 L5313.02,10090 L5226.42,10143 L5129.26,10172.6 L5027.79,10176.7 L4928.56,10155.1 L4837.96,10109.2 L4761.84,10042 L4705.09,9957.79 L4671.38,9862 L4662.88,9760.8 L4680.13,9660.73 L4722.03,9568.23 L4785.87,9489.26 L4867.54,9428.9 L4961.77,9391.06 L5062.5,9378.17 M-5062.5,9378.17 L-4993.34,9384.2 L-4896.36,9414.31 L-4810.09,9467.87 L-4740.08,9541.44 L-4690.85,9630.26 L-4665.58,9728.61 L-4665.89,9830.16 L-4691.76,9928.36 L-4741.53,10016.9 L-4811.98,10090 L-4898.58,10143 L-4995.74,10172.6 L-5097.21,10176.7 L-5196.44,10155.1 L-5287.04,10109.2 L-5363.16,10042 L-5419.91,9957.79 L-5453.62,9862 L-5462.12,9760.8 L-5444.87,9660.73 L-5402.97,9568.23 L-5339.13,9489.26 L-5257.46,9428.9 L-5163.23,9391.06 L-5062.5,9378.17"/>
</g>

<g fill="none" stroke="#000000" stroke-opacity="1" stroke-width="1" stroke-linecap="square" stroke-linejoin="bevel" transform="matrix(0.999999,0,0,-0.999999,30000.5,71306.6)"
font-family="MS Shell Dlg 2" font-size="10.3125" font-weight="400" font-style="normal" 
>
</g>

<g fill="none" stroke="#000000" stroke-opacity="1" stroke-width="1" stroke-linecap="square" stroke-linejoin="bevel" transform="matrix(0.999999,0,0,-0.999999,30000.5,71306.6)"
font-family="MS Shell Dlg 2" font-size="10.3125" font-weight="400" font-style="normal" 
>
</g>

<g fill="#ae5151" fill-opacity="0.2" stroke="#333333" stroke-opacity="1" stroke-width="1" stroke-linecap="round" stroke-linejoin="round" transform="matrix(0.999999,0,0,-0.999999,30000.5,71306.6)"
font-family="MS Shell Dlg 2" font-size="10.3125" font-weight="400" font-style="normal" 
>
<path vector-effect="non-scaling-stroke" fill-rule="evenodd" d="M30000,3646.07 L30000,646.068 L16026.3,646.068 L16026.3,3646.07 L16026.3,15071.1 L16026.3,34881.1 L23225,34881.1 L23225,37311.1 L16026.3,37311.1 L16026.3,44071.1 L10375,44071.1 L10375,37071.1 L10125,37071.1 L10125,26071.1 L10125,7778.17 L10275.2,8038.25 L13278.2,6304.45 L15026.3,-6973.72 L9526.28,-16500 L5500,-20526.3 L5000,-20815 L5000,-31000 L5000,-39000 L0,-44000 L-5000,-39000 L-5000,-31000 L-5000,-20815 L-5500,-20526.3 L-9526.28,-16500 L-15026.3,-6973.72 L-13278.2,6304.45 L-10275.2,8038.25 L-10125,7778.17 L-10125,26071.1 L-10125,37071.1 L-10375,37071.1 L-10375,44071.1 L-16026.3,44071.1 L-16026.3,37311.1 L-23225,37311.1 L-23225,34881.1 L-16026.3,34881.1 L-16026.3,15071.1 L-16026.3,3646.07 L-16026.3,646.068 L-30000,646.068 L-30000,3646.07 L-30000,15071.1 L-30000,56881.1 L-30000,68306.1 L-30000,71306.1 L-16026.3,71306.1 L-16026.3,68306.1 L-16026.3,56881.1 L16026.3,56881.1 L16026.3,68306.1 L16026.3,71306.1 L30000,71306.1 L30000,68306.1 L30000,56881.1 L30000,15071.1 L30000,3646.07 M-125,7778.17 L0,7778.17 L125,7778.17 L125,26071.1 L125,37071.1 L-125,37071.1 L-125,26071.1 L-125,7778.17 M5062.5,9378.17 L5131.66,9384.2 L5228.64,9414.31 L5314.91,9467.87 L5384.92,9541.44 L5434.15,9630.26 L5459.42,9728.61 L5459.11,9830.16 L5433.24,9928.36 L5383.47,10016.9 L5313.02,10090 L5226.42,10143 L5129.26,10172.6 L5027.79,10176.7 L4928.56,10155.1 L4837.96,10109.2 L4761.84,10042 L4705.09,9957.79 L4671.38,9862 L4662.88,9760.8 L4680.13,9660.73 L4722.03,9568.23 L4785.87,9489.26 L4867.54,9428.9 L4961.77,9391.06 L5062.5,9378.17 M-5062.5,9378.17 L-4993.34,9384.2 L-4896.36,9414.31 L-4810.09,9467.87 L-4740.08,9541.44 L-4690.85,9630.26 L-4665.58,9728.61 L-4665.89,9830.16 L-4691.76,9928.36 L-4741.53,10016.9 L-4811.98,10090 L-4898.58,10143 L-4995.74,10172.6 L-5097.21,10176.7 L-5196.44,10155.1 L-5287.04,10109.2 L-5363.16,10042 L-5419.91,9957.79 L-5453.62,9862 L-5462.12,9760.8 L-5444.87,9660.73 L-5402.97,9568.23 L-5339.13,9489.26 L-5257.46,9428.9 L-5163.23,9391.06 L-5062.5,9378.17"/>
</g>

<g fill="none" stroke="#000000" stroke-opacity="1" stroke-width="1" stroke-linecap="square" stroke-linejoin="bevel" transform="matrix(0.999999,0,0,-0.999999,30000.5,71306.6)"
font-family="MS Shell Dlg 2" font-size="10.3125" font-weight="400" font-style="normal" 
>
</g>

<g fill="none" stroke="#000000" stroke-opacity="1" stroke-width="1" stroke-linecap="square" stroke-linejoin="bevel" transform="matrix(0.999999,0,0,-0.999999,30000.5,71306.6)"
font-family="MS Shell Dlg 2" font-size="10.3125" font-weight="400" font-style="normal" 
>
</g>

<g fill="#ffff00" fill-opacity="0.2" stroke="#333333" stroke-opacity="1" stroke-width="1" stroke-linecap="round" stroke-linejoin="round" transform="matrix(0.999999,0,0,-0.999999,30000.5,71306.6)"
font-family="MS Shell Dlg 2" font-size="10.3125" font-weight="400" font-style="normal" 
>
<path vector-effect="non-scaling-stroke" fill-rule="evenodd" d="M30000,3646.07 L30000,646.068 L16026.3,646.068 L16026.3,3646.07 L16026.3,15071.1 L16026.3,34881.1 L23225,34881.1 L23225,37311.1 L16026.3,37311.1 L16026.3,44071.1 L10375,44071.1 L10375,37071.1 L10125,37071.1 L10125,26071.1 L10125,7778.17 L10275.2,8038.25 L13278.2,6304.45 L15026.3,-6973.72 L9526.28,-16500 L5500,-20526.3 L5000,-20815 L5000,-31000 L5000,-39000 L0,-44000 L-5000,-39000 L-5000,-31000 L-5000,-20815 L-5500,-20526.3 L-9526.28,-16500 L-15026.3,-6973.72 L-13278.2,6304.45 L-10275.2,8038.25 L-10125,7778.17 L-10125,26071.1 L-10125,37071.1 L-10375,37071.1 L-10375,44071.1 L-16026.3,44071.1 L-16026.3,37311.1 L-23225,37311.1 L-23225,34881.1 L-16026.3,34881.1 L-16026.3,15071.1 L-16026.3,3646.07 L-16026.3,646.068 L-30000,646.068 L-30000,3646.07 L-30000,15071.1 L-30000,56881.1 L-30000,68306.1 L-30000,71306.1 L-16026.3,71306.1 L-16026.3,68306.1 L-16026.3,56881.1 L16026.3,56881.1 L16026.3,68306.1 L16026.3,71306.1 L30000,71306.1 L30000,68306.1 L30000,56881.1 L30000,15071.1 L30000,3646.07 M-125,7778.17 L0,7778.17 L125,7778.17 L125,26071.1 L125,37071.1 L-125,37071.1 L-125,26071.1 L-125,7778.17 M5062.5,9378.17 L5131.66,9384.2 L5228.64,9414.31 L5314.91,9467.87 L5384.92,9541.44 L5434.15,9630.26 L5459.42,9728.61 L5459.11,9830.16 L5433.24,9928.36 L5383.47,10016.9 L5313.02,10090 L5226.42,10143 L5129.26,10172.6 L5027.79,10176.7 L4928.56,10155.1 L4837.96,10109.2 L4761.84,10042 L4705.09,9957.79 L4671.38,9862 L4662.88,9760.8 L4680.13,9660.73 L4722.03,9568.23 L4785.87,9489.26 L4867.54,9428.9 L4961.77,9391.06 L5062.5,9378.17 M-5062.5,9378.17 L-4993.34,9384.2 L-4896.36,9414.31 L-4810.09,9467.87 L-4740.08,9541.44 L-4690.85,9630.26 L-4665.58,9728.61 L-4665.89,9830.16 L-4691.76,9928.36 L-4741.53,10016.9 L-4811.98,10090 L-4898.58,10143 L-4995.74,10172.6 L-5097.21,10176.7 L-5196.44,10155.1 L-5287.04,10109.2 L-5363.16,10042 L-5419.91,9957.79 L-5453.62,9862 L-5462.12,9760.8 L-5444.87,9660.73 L-5402.97,9568.23 L-5339.13,9489.26 L-5257.46,9428.9 L-5163.23,9391.06 L-5062.5,9378.17"/>
</g>

<g fill="none" stroke="#000000" stroke-opacity="1" stroke-width="1" stroke-linecap="square" stroke-linejoin="bevel" transform="matrix(0.999999,0,0,-0.999999,30000.5,71306.6)"
font-family="MS Shell Dlg 2" font-size="10.3125" font-weight="400" font-style="normal" 
>
</g>

<g fill="none" stroke="#000000" stroke-opacity="1" stroke-width="1" stroke-linecap="square" stroke-linejoin="bevel" transform="matrix(0.999999,0,0,-0.999999,30000.5,71306.6)"
font-family="MS Shell Dlg 2" font-size="10.3125" font-weight="400" font-style="normal" 
>
</g>

<g fill="#ae5151" fill-opacity="0.2" stroke="#333333" stroke-opacity="1" stroke-width="1" stroke-linecap="round" stroke-linejoin="round" transform="matrix(0.999999,0,0,-0.999999,30000.5,71306.6)"
font-family="MS Shell Dlg 2" font-size="10.3125" font-weight="400" font-style="normal" 
>
<path vector-effect="non-scaling-stroke" fill-rule="evenodd" d="M30000,3646.07 L30000,646.068 L16026.3,646.068 L16026.3,3646.07 L16026.3,15071.1 L16026.3,34881.1 L23225,34881.1 L23225,37311.1 L16026.3,37311.1 L16026.3,44071.1 L10375,44071.1 L10375,37071.1 L10125,37071.1 L10125,26071.1 L10125,7778.17 L10275.2,8038.25 L13278.2,6304.45 L15026.3,-6973.72 L9526.28,-16500 L5500,-20526.3 L5000,-20815 L5000,-31000 L5000,-39000 L0,-44000 L-5000,-39000 L-5000,-31000 L-5000,-20815 L-5500,-20526.3 L-9526.28,-16500 L-15026.3,-6973.72 L-13278.2,6304.45 L-10275.2,8038.25 L-10125,7778.17 L-10125,26071.1 L-10125,37071.1 L-10375,37071.1 L-10375,44071.1 L-16026.3,44071.1 L-16026.3,37311.1 L-23225,37311.1 L-23225,34881.1 L-16026.3,34881.1 L-16026.3,15071.1 L-16026.3,3646.07 L-16026.3,646.068 L-30000,646.068 L-30000,3646.07 L-30000,15071.1 L-30000,56881.1 L-30000,68306.1 L-30000,71306.1 L-16026.3,71306.1 L-16026.3,68306.1 L-16026.3,56881.1 L16026.3,56881.1 L16026.3,68306.1 L16026.3,71306.1 L30000,71306.1 L30000,68306.1 L30000,56881.1 L30000,15071.1 L30000,3646.07 M-125,7778.17 L0,7778.17 L125,7778.17 L125,26071.1 L125,37071.1 L-125,37071.1 L-125,26071.1 L-125,7778.17 M5062.5,9378.17 L5131.66,9384.2 L5228.64,9414.31 L5314.91,9467.87 L5384.92,9541.44 L5434.15,9630.26 L5459.42,9728.61 L5459.11,9830.16 L5433.24,9928.36 L5383.47,10016.9 L5313.02,10090 L5226.42,10143 L5129.26,10172.6 L5027.79,10176.7 L4928.56,10155.1 L4837.96,10109.2 L4761.84,10042 L4705.09,9957.79 L4671.38,9862 L4662.88,9760.8 L4680.13,9660.73 L4722.03,9568.23 L4785.87,9489.26 L4867.54,9428.9 L4961.77,9391.06 L5062.5,9378.17 M-5062.5,9378.17 L-4993.34,9384.2 L-4896.36,9414.31 L-4810.09,9467.87 L-4740.08,9541.44 L-4690.85,9630.26 L-4665.58,9728.61 L-4665.89,9830.16 L-4691.76,9928.36 L-4741.53,10016.9 L-4811.98,10090 L-4898.58,10143 L-4995.74,10172.6 L-5097.21,10176.7 L-5196.44,10155.1 L-5287.04,10109.2 L-5363.16,10042 L-5419.91,9957.79 L-5453.62,9862 L-5462.12,9760.8 L-5444.87,9660.73 L-5402.97,9568.23 L-5339.13,9489.26 L-5257.46,9428.9 L-5163.23,9391.06 L-5062.5,9378.17"/>
</g>

<g fill="none" stroke="#000000" stroke-opacity="1" stroke-width="1" stroke-linecap="square" stroke-linejoin="bevel" transform="matrix(0.999999,0,0,-0.999999,30000.5,71306.6)"
font-family="MS Shell Dlg 2" font-size="10.3125" font-weight="400" font-style="normal" 
>
</g>

<g fill="none" stroke="#000000" stroke-opacity="1" stroke-width="1" stroke-linecap="square" stroke-linejoin="bevel" transform="matrix(0.999999,0,0,-0.999999,30000.5,71306.6)"
font-family="MS Shell Dlg 2" font-size="10.3125" font-weight="400" font-style="normal" 
>
</g>

<g fill="#333333" fill-opacity="0.2" stroke="#333333" stroke-opacity="1" stroke-width="1" stroke-linecap="round" stroke-linejoin="round" transform="matrix(0.999999,0,0,-0.999999,30000.5,71306.6)"
font-family="MS Shell Dlg 2" font-size="10.3125" font-weight="400" font-style="normal" 
>
<path vector-effect="non-scaling-stroke" fill-rule="evenodd" d="M30000,3646.07 L30000,646.068 L16026.3,646.068 L16026.3,3646.07 L16026.3,15071.1 L16026.3,34881.1 L23225,34881.1 L23225,37311.1 L16026.3,37311.1 L16026.3,44071.1 L10375,44071.1 L10375,37071.1 L10125,37071.1 L10125,26071.1 L10125,7778.17 L10275.2,8038.25 L13278.2,6304.45 L15026.3,-6973.72 L9526.28,-16500 L5500,-20526.3 L5000,-20815 L5000,-31000 L5000,-39000 L0,-44000 L-5000,-39000 L-5000,-31000 L-5000,-20815 L-5500,-20526.3 L-9526.28,-16500 L-15026.3,-6973.72 L-13278.2,6304.45 L-10275.2,8038.25 L-10125,7778.17 L-10125,26071.1 L-10125,37071.1 L-10375,37071.1 L-10375,44071.1 L-16026.3,44071.1 L-16026.3,37311.1 L-23225,37311.1 L-23225,34881.1 L-16026.3,34881.1 L-16026.3,15071.1 L-16026.3,3646.07 L-16026.3,646.068 L-30000,646.068 L-30000,3646.07 L-30000,15071.1 L-30000,56881.1 L-30000,68306.1 L-30000,71306.1 L-16026.3,71306.1 L-16026.3,68306.1 L-16026.3,56881.1 L16026.3,56881.1 L16026.3,68306.1 L16026.3,71306.1 L30000,71306.1 L30000,68306.1 L30000,56881.1 L30000,15071.1 L30000,3646.07 M-125,7778.17 L0,7778.17 L125,7778.17 L125,26071.1 L125,37071.1 L-125,37071.1 L-125,26071.1 L-125,7778.17 M5062.5,9378.17 L5131.66,9384.2 L5228.64,9414.31 L5314.91,9467.87 L5384.92,9541.44 L5434.15,9630.26 L5459.42,9728.61 L5459.11,9830.16 L5433.24,9928.36 L5383.47,10016.9 L5313.02,10090 L5226.42,10143 L5129.26,10172.6 L5027.79,10176.7 L4928.56,10155.1 L4837.96,10109.2 L4761.84,10042 L4705.09,9957.79 L4671.38,9862 L4662.88,9760.8 L4680.13,9660.73 L4722.03,9568.23 L4785.87,9489.26 L4867.54,9428.9 L4961.77,9391.06 L5062.5,9378.17 M-5062.5,9378.17 L-4993.34,9384.2 L-4896.36,9414.31 L-4810.09,9467.87 L-4740.08,9541.44 L-4690.85,9630.26 L-4665.58,9728.61 L-4665.89,9830.16 L-4691.76,9928.36 L-4741.53,10016.9 L-4811.98,10090 L-4898.58,10143 L-4995.74,10172.6 L-5097.21,10176.7 L-5196.44,10155.1 L-5287.04,10109.2 L-5363.16,10042 L-5419.91,9957.79 L-5453.62,9862 L-5462.12,9760.8 L-5444.87,9660.73 L-5402.97,9568.23 L-5339.13,9489.26 L-5257.46,9428.9 L-5163.23,9391.06 L-5062.5,9378.17"/>
</g>

<g fill="none" stroke="#000000" stroke-opacity="1" stroke-width="1" stroke-linecap="square" stroke-linejoin="bevel" transform="matrix(0.999999,0,0,-0.999999,30000.5,71306.6)"
font-family="MS Shell Dlg 2" font-size="10.3125" font-weight="400" font-style="normal" 
>
</g>

<g fill="none" stroke="#000000" stroke-opacity="1" stroke-width="1" stroke-linecap="square" stroke-linejoin="bevel" transform="matrix(1,0,0,-1,0,115307)"
font-family="MS Shell Dlg 2" font-size="10.3125" font-weight="400" font-style="normal" 
>
</g>
</g>
</svg>
