<?xml version="1.0" encoding="UTF-8" standalone="no"?>
<svg width="6223.85mm" height="4594.3mm"
 xmlns="http://www.w3.org/2000/svg" xmlns:xlink="http://www.w3.org/1999/xlink"  version="1.2" baseProfile="tiny">
<title>SVG Generator Example Drawing</title>
<desc>An SVG drawing created by the SVG Generator</desc>
<defs>
</defs>
<g fill="none" stroke="black" stroke-width="1" fill-rule="evenodd" stroke-linecap="square" stroke-linejoin="bevel" >

<g fill="none" stroke="#000000" stroke-opacity="1" stroke-width="1" stroke-linecap="square" stroke-linejoin="bevel" transform="matrix(1,0,0,-1,0,16279.2)"
font-family="MS Shell Dlg 2" font-size="10.3125" font-weight="400" font-style="normal" 
>
</g>

<g fill="none" stroke="#000000" stroke-opacity="1" stroke-width="1" stroke-linecap="square" stroke-linejoin="bevel" transform="matrix(1,0,0,-1,0,16279.2)"
font-family="MS Shell Dlg 2" font-size="10.3125" font-weight="400" font-style="normal" 
>
</g>

<g fill="none" stroke="#000000" stroke-opacity="1" stroke-width="1" stroke-linecap="square" stroke-linejoin="bevel" transform="matrix(0.999975,0,0,-0.999975,11026.5,-1720.87)"
font-family="MS Shell Dlg 2" font-size="10.3125" font-weight="400" font-style="normal" 
>
</g>

<g fill="#333333" fill-opacity="0.2" stroke="#333333" stroke-opacity="1" stroke-width="1" stroke-linecap="round" stroke-linejoin="round" transform="matrix(0.999975,0,0,-0.999975,11026.5,-1720.87)"
font-family="MS Shell Dlg 2" font-size="10.3125" font-weight="400" font-style="normal" 
>
<path vector-effect="non-scaling-stroke" fill-rule="evenodd" d="M-8026.28,-16500 L-8033.5,-16647 L-8055.1,-16792.6 L-8090.87,-16935.4 L-8140.46,-17074 L-8203.4,-17207.1 L-8279.08,-17333.4 L-8366.76,-17451.6 L-8465.62,-17560.7 L-8574.69,-17659.5 L-8692.92,-17747.2 L-8819.18,-17822.9 L-8952.25,-17885.8 L-9090.85,-17935.4 L-9233.64,-17971.2 L-9379.25,-17992.8 L-9526.28,-18000 L-9673.31,-17992.8 L-9818.91,-17971.2 L-9961.71,-17935.4 L-10100.3,-17885.8 L-10233.4,-17822.9 L-10359.6,-17747.2 L-10477.9,-17659.5 L-10586.9,-17560.7 L-10685.8,-17451.6 L-10773.5,-17333.4 L-10849.2,-17207.1 L-10912.1,-17074 L-10961.7,-16935.4 L-10997.5,-16792.6 L-11019.1,-16647 L-11026.3,-16500 L-11019.1,-16353 L-10997.5,-16207.4 L-10961.7,-16064.6 L-10912.1,-15926 L-10849.2,-15792.9 L-10773.5,-15666.6 L-10685.8,-15548.4 L-10586.9,-15439.3 L-10477.9,-15340.5 L-10359.6,-15252.8 L-10233.4,-15177.1 L-10100.3,-15114.2 L-9961.71,-15064.6 L-9818.91,-15028.8 L-9673.31,-15007.2 L-9526.28,-15000 L-9379.25,-15007.2 L-9233.64,-15028.8 L-9090.85,-15064.6 L-8952.25,-15114.2 L-8819.18,-15177.1 L-8692.92,-15252.8 L-8574.69,-15340.5 L-8465.62,-15439.3 L-8366.76,-15548.4 L-8279.08,-15666.6 L-8203.4,-15792.9 L-8140.46,-15926 L-8090.87,-16064.6 L-8055.1,-16207.4 L-8033.5,-16353 L-8026.28,-16500"/>
</g>

<g fill="none" stroke="#000000" stroke-opacity="1" stroke-width="1" stroke-linecap="square" stroke-linejoin="bevel" transform="matrix(0.999975,0,0,-0.999975,11026.5,-1720.87)"
font-family="MS Shell Dlg 2" font-size="10.3125" font-weight="400" font-style="normal" 
>
</g>

<g fill="none" stroke="#000000" stroke-opacity="1" stroke-width="1" stroke-linecap="square" stroke-linejoin="bevel" transform="matrix(0.999975,0,0,-0.999975,11026.5,-1720.87)"
font-family="MS Shell Dlg 2" font-size="10.3125" font-weight="400" font-style="normal" 
>
</g>

<g fill="#333333" fill-opacity="0.2" stroke="#333333" stroke-opacity="1" stroke-width="1" stroke-linecap="round" stroke-linejoin="round" transform="matrix(0.999975,0,0,-0.999975,11026.5,-1720.87)"
font-family="MS Shell Dlg 2" font-size="10.3125" font-weight="400" font-style="normal" 
>
<path vector-effect="non-scaling-stroke" fill-rule="evenodd" d="M11026.3,-16500 L11019.1,-16647 L10997.5,-16792.6 L10961.7,-16935.4 L10912.1,-17074 L10849.2,-17207.1 L10773.5,-17333.4 L10685.8,-17451.6 L10586.9,-17560.7 L10477.9,-17659.5 L10359.6,-17747.2 L10233.4,-17822.9 L10100.3,-17885.8 L9961.71,-17935.4 L9818.91,-17971.2 L9673.31,-17992.8 L9526.28,-18000 L9379.25,-17992.8 L9233.64,-17971.2 L9090.85,-17935.4 L8952.25,-17885.8 L8819.18,-17822.9 L8692.92,-17747.2 L8574.69,-17659.5 L8465.62,-17560.7 L8366.76,-17451.6 L8279.08,-17333.4 L8203.4,-17207.1 L8140.46,-17074 L8090.87,-16935.4 L8055.1,-16792.6 L8033.5,-16647 L8026.28,-16500 L8033.5,-16353 L8055.1,-16207.4 L8090.87,-16064.6 L8140.46,-15926 L8203.4,-15792.9 L8279.08,-15666.6 L8366.76,-15548.4 L8465.62,-15439.3 L8574.69,-15340.5 L8692.92,-15252.8 L8819.18,-15177.1 L8952.25,-15114.2 L9090.85,-15064.6 L9233.64,-15028.8 L9379.25,-15007.2 L9526.28,-15000 L9673.31,-15007.2 L9818.91,-15028.8 L9961.71,-15064.6 L10100.3,-15114.2 L10233.4,-15177.1 L10359.6,-15252.8 L10477.9,-15340.5 L10586.9,-15439.3 L10685.8,-15548.4 L10773.5,-15666.6 L10849.2,-15792.9 L10912.1,-15926 L10961.7,-16064.6 L10997.5,-16207.4 L11019.1,-16353 L11026.3,-16500"/>
</g>

<g fill="none" stroke="#000000" stroke-opacity="1" stroke-width="1" stroke-linecap="square" stroke-linejoin="bevel" transform="matrix(0.999975,0,0,-0.999975,11026.5,-1720.87)"
font-family="MS Shell Dlg 2" font-size="10.3125" font-weight="400" font-style="normal" 
>
</g>

<g fill="none" stroke="#000000" stroke-opacity="1" stroke-width="1" stroke-linecap="square" stroke-linejoin="bevel" transform="matrix(0.999975,0,0,-0.999975,11026.5,-1720.87)"
font-family="MS Shell Dlg 2" font-size="10.3125" font-weight="400" font-style="normal" 
>
</g>

<g fill="#333333" fill-opacity="0.2" stroke="#333333" stroke-opacity="1" stroke-width="1" stroke-linecap="round" stroke-linejoin="round" transform="matrix(0.999975,0,0,-0.999975,11026.5,-1720.87)"
font-family="MS Shell Dlg 2" font-size="10.3125" font-weight="400" font-style="normal" 
>
<path vector-effect="non-scaling-stroke" fill-rule="evenodd" d="M2000,-11000 L1990.37,-11196 L1961.57,-11390.2 L1913.88,-11580.6 L1847.76,-11765.4 L1763.84,-11942.8 L1662.94,-12111.1 L1546.02,-12268.8 L1414.21,-12414.2 L1268.79,-12546 L1111.14,-12662.9 L942.793,-12763.8 L765.367,-12847.8 L580.569,-12913.9 L390.181,-12961.6 L196.034,-12990.4 L3.23109e-12,-13000 L-196.034,-12990.4 L-390.181,-12961.6 L-580.569,-12913.9 L-765.367,-12847.8 L-942.793,-12763.8 L-1111.14,-12662.9 L-1268.79,-12546 L-1414.21,-12414.2 L-1546.02,-12268.8 L-1662.94,-12111.1 L-1763.84,-11942.8 L-1847.76,-11765.4 L-1913.88,-11580.6 L-1961.57,-11390.2 L-1990.37,-11196 L-2000,-11000 L-1990.37,-10804 L-1961.57,-10609.8 L-1913.88,-10419.4 L-1847.76,-10234.6 L-1763.84,-10057.2 L-1662.94,-9888.86 L-1546.02,-9731.21 L-1414.21,-9585.79 L-1268.79,-9453.98 L-1111.14,-9337.06 L-942.793,-9236.16 L-765.367,-9152.24 L-580.569,-9086.12 L-390.181,-9038.43 L-196.034,-9009.63 L-5.69646e-12,-9000 L196.034,-9009.63 L390.181,-9038.43 L580.569,-9086.12 L765.367,-9152.24 L942.793,-9236.16 L1111.14,-9337.06 L1268.79,-9453.98 L1414.21,-9585.79 L1546.02,-9731.21 L1662.94,-9888.86 L1763.84,-10057.2 L1847.76,-10234.6 L1913.88,-10419.4 L1961.57,-10609.8 L1990.37,-10804 L2000,-11000"/>
</g>

<g fill="none" stroke="#000000" stroke-opacity="1" stroke-width="1" stroke-linecap="square" stroke-linejoin="bevel" transform="matrix(0.999975,0,0,-0.999975,11026.5,-1720.87)"
font-family="MS Shell Dlg 2" font-size="10.3125" font-weight="400" font-style="normal" 
>
</g>

<g fill="none" stroke="#000000" stroke-opacity="1" stroke-width="1" stroke-linecap="square" stroke-linejoin="bevel" transform="matrix(0.999975,0,0,-0.999975,11026.5,-1720.87)"
font-family="MS Shell Dlg 2" font-size="10.3125" font-weight="400" font-style="normal" 
>
</g>

<g fill="#333333" fill-opacity="0.2" stroke="#333333" stroke-opacity="1" stroke-width="1" stroke-linecap="round" stroke-linejoin="round" transform="matrix(0.999975,0,0,-0.999975,11026.5,-1720.87)"
font-family="MS Shell Dlg 2" font-size="10.3125" font-weight="400" font-style="normal" 
>
<path vector-effect="non-scaling-stroke" fill-rule="evenodd" d="M-6278.17,-3221.83 L-6285.4,-3368.85 L-6307,-3514.46 L-6342.76,-3657.25 L-6392.36,-3795.85 L-6455.29,-3928.92 L-6530.97,-4055.18 L-6618.66,-4173.42 L-6717.51,-4282.49 L-6826.58,-4381.34 L-6944.82,-4469.03 L-7071.08,-4544.71 L-7204.15,-4607.64 L-7342.75,-4657.24 L-7485.54,-4693 L-7631.15,-4714.6 L-7778.17,-4721.83 L-7925.2,-4714.6 L-8070.81,-4693 L-8213.6,-4657.24 L-8352.2,-4607.64 L-8485.27,-4544.71 L-8611.53,-4469.03 L-8729.76,-4381.34 L-8838.83,-4282.49 L-8937.69,-4173.42 L-9025.38,-4055.18 L-9101.06,-3928.92 L-9163.99,-3795.85 L-9213.59,-3657.25 L-9249.35,-3514.46 L-9270.95,-3368.85 L-9278.17,-3221.83 L-9270.95,-3074.8 L-9249.35,-2929.19 L-9213.59,-2786.4 L-9163.99,-2647.8 L-9101.06,-2514.73 L-9025.38,-2388.47 L-8937.69,-2270.24 L-8838.83,-2161.17 L-8729.76,-2062.31 L-8611.53,-1974.62 L-8485.27,-1898.94 L-8352.2,-1836.01 L-8213.6,-1786.41 L-8070.81,-1750.65 L-7925.2,-1729.05 L-7778.17,-1721.83 L-7631.15,-1729.05 L-7485.54,-1750.65 L-7342.75,-1786.41 L-7204.15,-1836.01 L-7071.08,-1898.94 L-6944.82,-1974.62 L-6826.58,-2062.31 L-6717.51,-2161.17 L-6618.66,-2270.24 L-6530.97,-2388.47 L-6455.29,-2514.73 L-6392.36,-2647.8 L-6342.76,-2786.4 L-6307,-2929.19 L-6285.4,-3074.8 L-6278.17,-3221.83"/>
</g>

<g fill="none" stroke="#000000" stroke-opacity="1" stroke-width="1" stroke-linecap="square" stroke-linejoin="bevel" transform="matrix(0.999975,0,0,-0.999975,11026.5,-1720.87)"
font-family="MS Shell Dlg 2" font-size="10.3125" font-weight="400" font-style="normal" 
>
</g>

<g fill="none" stroke="#000000" stroke-opacity="1" stroke-width="1" stroke-linecap="square" stroke-linejoin="bevel" transform="matrix(0.999975,0,0,-0.999975,11026.5,-1720.87)"
font-family="MS Shell Dlg 2" font-size="10.3125" font-weight="400" font-style="normal" 
>
</g>

<g fill="#333333" fill-opacity="0.2" stroke="#333333" stroke-opacity="1" stroke-width="1" stroke-linecap="round" stroke-linejoin="round" transform="matrix(0.999975,0,0,-0.999975,11026.5,-1720.87)"
font-family="MS Shell Dlg 2" font-size="10.3125" font-weight="400" font-style="normal" 
>
<path vector-effect="non-scaling-stroke" fill-rule="evenodd" d="M9278.17,-3221.83 L9270.95,-3368.85 L9249.35,-3514.46 L9213.59,-3657.25 L9163.99,-3795.85 L9101.06,-3928.92 L9025.38,-4055.18 L8937.69,-4173.42 L8838.83,-4282.49 L8729.76,-4381.34 L8611.53,-4469.03 L8485.27,-4544.71 L8352.2,-4607.64 L8213.6,-4657.24 L8070.81,-4693 L7925.2,-4714.6 L7778.17,-4721.83 L7631.15,-4714.6 L7485.54,-4693 L7342.75,-4657.24 L7204.15,-4607.64 L7071.08,-4544.71 L6944.82,-4469.03 L6826.58,-4381.34 L6717.51,-4282.49 L6618.66,-4173.42 L6530.97,-4055.18 L6455.29,-3928.92 L6392.36,-3795.85 L6342.76,-3657.25 L6307,-3514.46 L6285.4,-3368.85 L6278.17,-3221.83 L6285.4,-3074.8 L6307,-2929.19 L6342.76,-2786.4 L6392.36,-2647.8 L6455.29,-2514.73 L6530.97,-2388.47 L6618.66,-2270.24 L6717.51,-2161.17 L6826.58,-2062.31 L6944.82,-1974.62 L7071.08,-1898.94 L7204.15,-1836.01 L7342.75,-1786.41 L7485.54,-1750.65 L7631.15,-1729.05 L7778.17,-1721.83 L7925.2,-1729.05 L8070.81,-1750.65 L8213.6,-1786.41 L8352.2,-1836.01 L8485.27,-1898.94 L8611.53,-1974.62 L8729.76,-2062.31 L8838.83,-2161.17 L8937.69,-2270.24 L9025.38,-2388.47 L9101.06,-2514.73 L9163.99,-2647.8 L9213.59,-2786.4 L9249.35,-2929.19 L9270.95,-3074.8 L9278.17,-3221.83"/>
</g>

<g fill="none" stroke="#000000" stroke-opacity="1" stroke-width="1" stroke-linecap="square" stroke-linejoin="bevel" transform="matrix(0.999975,0,0,-0.999975,11026.5,-1720.87)"
font-family="MS Shell Dlg 2" font-size="10.3125" font-weight="400" font-style="normal" 
>
</g>

<g fill="none" stroke="#000000" stroke-opacity="1" stroke-width="1" stroke-linecap="square" stroke-linejoin="bevel" transform="matrix(0.999975,0,0,-0.999975,11026.5,-1720.87)"
font-family="MS Shell Dlg 2" font-size="10.3125" font-weight="400" font-style="normal" 
>
</g>

<g fill="#ae5151" fill-opacity="0.2" stroke="#333333" stroke-opacity="1" stroke-width="1" stroke-linecap="round" stroke-linejoin="round" transform="matrix(0.999975,0,0,-0.999975,11026.5,-1720.87)"
font-family="MS Shell Dlg 2" font-size="10.3125" font-weight="400" font-style="normal" 
>
<path vector-effect="non-scaling-stroke" fill-rule="evenodd" d="M-8026.28,-16500 L-8033.5,-16647 L-8055.1,-16792.6 L-8090.87,-16935.4 L-8140.46,-17074 L-8203.4,-17207.1 L-8279.08,-17333.4 L-8366.76,-17451.6 L-8465.62,-17560.7 L-8574.69,-17659.5 L-8692.92,-17747.2 L-8819.18,-17822.9 L-8952.25,-17885.8 L-9090.85,-17935.4 L-9233.64,-17971.2 L-9379.25,-17992.8 L-9526.28,-18000 L-9673.31,-17992.8 L-9818.91,-17971.2 L-9961.71,-17935.4 L-10100.3,-17885.8 L-10233.4,-17822.9 L-10359.6,-17747.2 L-10477.9,-17659.5 L-10586.9,-17560.7 L-10685.8,-17451.6 L-10773.5,-17333.4 L-10849.2,-17207.1 L-10912.1,-17074 L-10961.7,-16935.4 L-10997.5,-16792.6 L-11019.1,-16647 L-11026.3,-16500 L-11019.1,-16353 L-10997.5,-16207.4 L-10961.7,-16064.6 L-10912.1,-15926 L-10849.2,-15792.9 L-10773.5,-15666.6 L-10685.8,-15548.4 L-10586.9,-15439.3 L-10477.9,-15340.5 L-10359.6,-15252.8 L-10233.4,-15177.1 L-10100.3,-15114.2 L-9961.71,-15064.6 L-9818.91,-15028.8 L-9673.31,-15007.2 L-9526.28,-15000 L-9379.25,-15007.2 L-9233.64,-15028.8 L-9090.85,-15064.6 L-8952.25,-15114.2 L-8819.18,-15177.1 L-8692.92,-15252.8 L-8574.69,-15340.5 L-8465.62,-15439.3 L-8366.76,-15548.4 L-8279.08,-15666.6 L-8203.4,-15792.9 L-8140.46,-15926 L-8090.87,-16064.6 L-8055.1,-16207.4 L-8033.5,-16353 L-8026.28,-16500"/>
</g>

<g fill="none" stroke="#000000" stroke-opacity="1" stroke-width="1" stroke-linecap="square" stroke-linejoin="bevel" transform="matrix(0.999975,0,0,-0.999975,11026.5,-1720.87)"
font-family="MS Shell Dlg 2" font-size="10.3125" font-weight="400" font-style="normal" 
>
</g>

<g fill="none" stroke="#000000" stroke-opacity="1" stroke-width="1" stroke-linecap="square" stroke-linejoin="bevel" transform="matrix(0.999975,0,0,-0.999975,11026.5,-1720.87)"
font-family="MS Shell Dlg 2" font-size="10.3125" font-weight="400" font-style="normal" 
>
</g>

<g fill="#ae5151" fill-opacity="0.2" stroke="#333333" stroke-opacity="1" stroke-width="1" stroke-linecap="round" stroke-linejoin="round" transform="matrix(0.999975,0,0,-0.999975,11026.5,-1720.87)"
font-family="MS Shell Dlg 2" font-size="10.3125" font-weight="400" font-style="normal" 
>
<path vector-effect="non-scaling-stroke" fill-rule="evenodd" d="M11026.3,-16500 L11019.1,-16647 L10997.5,-16792.6 L10961.7,-16935.4 L10912.1,-17074 L10849.2,-17207.1 L10773.5,-17333.4 L10685.8,-17451.6 L10586.9,-17560.7 L10477.9,-17659.5 L10359.6,-17747.2 L10233.4,-17822.9 L10100.3,-17885.8 L9961.71,-17935.4 L9818.91,-17971.2 L9673.31,-17992.8 L9526.28,-18000 L9379.25,-17992.8 L9233.64,-17971.2 L9090.85,-17935.4 L8952.25,-17885.8 L8819.18,-17822.9 L8692.92,-17747.2 L8574.69,-17659.5 L8465.62,-17560.7 L8366.76,-17451.6 L8279.08,-17333.4 L8203.4,-17207.1 L8140.46,-17074 L8090.87,-16935.4 L8055.1,-16792.6 L8033.5,-16647 L8026.28,-16500 L8033.5,-16353 L8055.1,-16207.4 L8090.87,-16064.6 L8140.46,-15926 L8203.4,-15792.9 L8279.08,-15666.6 L8366.76,-15548.4 L8465.62,-15439.3 L8574.69,-15340.5 L8692.92,-15252.8 L8819.18,-15177.1 L8952.25,-15114.2 L9090.85,-15064.6 L9233.64,-15028.8 L9379.25,-15007.2 L9526.28,-15000 L9673.31,-15007.2 L9818.91,-15028.8 L9961.71,-15064.6 L10100.3,-15114.2 L10233.4,-15177.1 L10359.6,-15252.8 L10477.9,-15340.5 L10586.9,-15439.3 L10685.8,-15548.4 L10773.5,-15666.6 L10849.2,-15792.9 L10912.1,-15926 L10961.7,-16064.6 L10997.5,-16207.4 L11019.1,-16353 L11026.3,-16500"/>
</g>

<g fill="none" stroke="#000000" stroke-opacity="1" stroke-width="1" stroke-linecap="square" stroke-linejoin="bevel" transform="matrix(0.999975,0,0,-0.999975,11026.5,-1720.87)"
font-family="MS Shell Dlg 2" font-size="10.3125" font-weight="400" font-style="normal" 
>
</g>

<g fill="none" stroke="#000000" stroke-opacity="1" stroke-width="1" stroke-linecap="square" stroke-linejoin="bevel" transform="matrix(0.999975,0,0,-0.999975,11026.5,-1720.87)"
font-family="MS Shell Dlg 2" font-size="10.3125" font-weight="400" font-style="normal" 
>
</g>

<g fill="#ae5151" fill-opacity="0.2" stroke="#333333" stroke-opacity="1" stroke-width="1" stroke-linecap="round" stroke-linejoin="round" transform="matrix(0.999975,0,0,-0.999975,11026.5,-1720.87)"
font-family="MS Shell Dlg 2" font-size="10.3125" font-weight="400" font-style="normal" 
>
<path vector-effect="non-scaling-stroke" fill-rule="evenodd" d="M2000,-11000 L1990.37,-11196 L1961.57,-11390.2 L1913.88,-11580.6 L1847.76,-11765.4 L1763.84,-11942.8 L1662.94,-12111.1 L1546.02,-12268.8 L1414.21,-12414.2 L1268.79,-12546 L1111.14,-12662.9 L942.793,-12763.8 L765.367,-12847.8 L580.569,-12913.9 L390.181,-12961.6 L196.034,-12990.4 L3.23109e-12,-13000 L-196.034,-12990.4 L-390.181,-12961.6 L-580.569,-12913.9 L-765.367,-12847.8 L-942.793,-12763.8 L-1111.14,-12662.9 L-1268.79,-12546 L-1414.21,-12414.2 L-1546.02,-12268.8 L-1662.94,-12111.1 L-1763.84,-11942.8 L-1847.76,-11765.4 L-1913.88,-11580.6 L-1961.57,-11390.2 L-1990.37,-11196 L-2000,-11000 L-1990.37,-10804 L-1961.57,-10609.8 L-1913.88,-10419.4 L-1847.76,-10234.6 L-1763.84,-10057.2 L-1662.94,-9888.86 L-1546.02,-9731.21 L-1414.21,-9585.79 L-1268.79,-9453.98 L-1111.14,-9337.06 L-942.793,-9236.16 L-765.367,-9152.24 L-580.569,-9086.12 L-390.181,-9038.43 L-196.034,-9009.63 L-5.69646e-12,-9000 L196.034,-9009.63 L390.181,-9038.43 L580.569,-9086.12 L765.367,-9152.24 L942.793,-9236.16 L1111.14,-9337.06 L1268.79,-9453.98 L1414.21,-9585.79 L1546.02,-9731.21 L1662.94,-9888.86 L1763.84,-10057.2 L1847.76,-10234.6 L1913.88,-10419.4 L1961.57,-10609.8 L1990.37,-10804 L2000,-11000"/>
</g>

<g fill="none" stroke="#000000" stroke-opacity="1" stroke-width="1" stroke-linecap="square" stroke-linejoin="bevel" transform="matrix(0.999975,0,0,-0.999975,11026.5,-1720.87)"
font-family="MS Shell Dlg 2" font-size="10.3125" font-weight="400" font-style="normal" 
>
</g>

<g fill="none" stroke="#000000" stroke-opacity="1" stroke-width="1" stroke-linecap="square" stroke-linejoin="bevel" transform="matrix(0.999975,0,0,-0.999975,11026.5,-1720.87)"
font-family="MS Shell Dlg 2" font-size="10.3125" font-weight="400" font-style="normal" 
>
</g>

<g fill="#ae5151" fill-opacity="0.2" stroke="#333333" stroke-opacity="1" stroke-width="1" stroke-linecap="round" stroke-linejoin="round" transform="matrix(0.999975,0,0,-0.999975,11026.5,-1720.87)"
font-family="MS Shell Dlg 2" font-size="10.3125" font-weight="400" font-style="normal" 
>
<path vector-effect="non-scaling-stroke" fill-rule="evenodd" d="M-6278.17,-3221.83 L-6285.4,-3368.85 L-6307,-3514.46 L-6342.76,-3657.25 L-6392.36,-3795.85 L-6455.29,-3928.92 L-6530.97,-4055.18 L-6618.66,-4173.42 L-6717.51,-4282.49 L-6826.58,-4381.34 L-6944.82,-4469.03 L-7071.08,-4544.71 L-7204.15,-4607.64 L-7342.75,-4657.24 L-7485.54,-4693 L-7631.15,-4714.6 L-7778.17,-4721.83 L-7925.2,-4714.6 L-8070.81,-4693 L-8213.6,-4657.24 L-8352.2,-4607.64 L-8485.27,-4544.71 L-8611.53,-4469.03 L-8729.76,-4381.34 L-8838.83,-4282.49 L-8937.69,-4173.42 L-9025.38,-4055.18 L-9101.06,-3928.92 L-9163.99,-3795.85 L-9213.59,-3657.25 L-9249.35,-3514.46 L-9270.95,-3368.85 L-9278.17,-3221.83 L-9270.95,-3074.8 L-9249.35,-2929.19 L-9213.59,-2786.4 L-9163.99,-2647.8 L-9101.06,-2514.73 L-9025.38,-2388.47 L-8937.69,-2270.24 L-8838.83,-2161.17 L-8729.76,-2062.31 L-8611.53,-1974.62 L-8485.27,-1898.94 L-8352.2,-1836.01 L-8213.6,-1786.41 L-8070.81,-1750.65 L-7925.2,-1729.05 L-7778.17,-1721.83 L-7631.15,-1729.05 L-7485.54,-1750.65 L-7342.75,-1786.41 L-7204.15,-1836.01 L-7071.08,-1898.94 L-6944.82,-1974.62 L-6826.58,-2062.31 L-6717.51,-2161.17 L-6618.66,-2270.24 L-6530.97,-2388.47 L-6455.29,-2514.73 L-6392.36,-2647.8 L-6342.76,-2786.4 L-6307,-2929.19 L-6285.4,-3074.8 L-6278.17,-3221.83"/>
</g>

<g fill="none" stroke="#000000" stroke-opacity="1" stroke-width="1" stroke-linecap="square" stroke-linejoin="bevel" transform="matrix(0.999975,0,0,-0.999975,11026.5,-1720.87)"
font-family="MS Shell Dlg 2" font-size="10.3125" font-weight="400" font-style="normal" 
>
</g>

<g fill="none" stroke="#000000" stroke-opacity="1" stroke-width="1" stroke-linecap="square" stroke-linejoin="bevel" transform="matrix(0.999975,0,0,-0.999975,11026.5,-1720.87)"
font-family="MS Shell Dlg 2" font-size="10.3125" font-weight="400" font-style="normal" 
>
</g>

<g fill="#ae5151" fill-opacity="0.2" stroke="#333333" stroke-opacity="1" stroke-width="1" stroke-linecap="round" stroke-linejoin="round" transform="matrix(0.999975,0,0,-0.999975,11026.5,-1720.87)"
font-family="MS Shell Dlg 2" font-size="10.3125" font-weight="400" font-style="normal" 
>
<path vector-effect="non-scaling-stroke" fill-rule="evenodd" d="M9278.17,-3221.83 L9270.95,-3368.85 L9249.35,-3514.46 L9213.59,-3657.25 L9163.99,-3795.85 L9101.06,-3928.92 L9025.38,-4055.18 L8937.69,-4173.42 L8838.83,-4282.49 L8729.76,-4381.34 L8611.53,-4469.03 L8485.27,-4544.71 L8352.2,-4607.64 L8213.6,-4657.24 L8070.81,-4693 L7925.2,-4714.6 L7778.17,-4721.83 L7631.15,-4714.6 L7485.54,-4693 L7342.75,-4657.24 L7204.15,-4607.64 L7071.08,-4544.71 L6944.82,-4469.03 L6826.58,-4381.34 L6717.51,-4282.49 L6618.66,-4173.42 L6530.97,-4055.18 L6455.29,-3928.92 L6392.36,-3795.85 L6342.76,-3657.25 L6307,-3514.46 L6285.4,-3368.85 L6278.17,-3221.83 L6285.4,-3074.8 L6307,-2929.19 L6342.76,-2786.4 L6392.36,-2647.8 L6455.29,-2514.73 L6530.97,-2388.47 L6618.66,-2270.24 L6717.51,-2161.17 L6826.58,-2062.31 L6944.82,-1974.62 L7071.08,-1898.94 L7204.15,-1836.01 L7342.75,-1786.41 L7485.54,-1750.65 L7631.15,-1729.05 L7778.17,-1721.83 L7925.2,-1729.05 L8070.81,-1750.65 L8213.6,-1786.41 L8352.2,-1836.01 L8485.27,-1898.94 L8611.53,-1974.62 L8729.76,-2062.31 L8838.83,-2161.17 L8937.69,-2270.24 L9025.38,-2388.47 L9101.06,-2514.73 L9163.99,-2647.8 L9213.59,-2786.4 L9249.35,-2929.19 L9270.95,-3074.8 L9278.17,-3221.83"/>
</g>

<g fill="none" stroke="#000000" stroke-opacity="1" stroke-width="1" stroke-linecap="square" stroke-linejoin="bevel" transform="matrix(0.999975,0,0,-0.999975,11026.5,-1720.87)"
font-family="MS Shell Dlg 2" font-size="10.3125" font-weight="400" font-style="normal" 
>
</g>

<g fill="none" stroke="#000000" stroke-opacity="1" stroke-width="1" stroke-linecap="square" stroke-linejoin="bevel" transform="matrix(0.999975,0,0,-0.999975,11026.5,-1720.87)"
font-family="MS Shell Dlg 2" font-size="10.3125" font-weight="400" font-style="normal" 
>
</g>

<g fill="#ffff00" fill-opacity="0.2" stroke="#333333" stroke-opacity="1" stroke-width="1" stroke-linecap="round" stroke-linejoin="round" transform="matrix(0.999975,0,0,-0.999975,11026.5,-1720.87)"
font-family="MS Shell Dlg 2" font-size="10.3125" font-weight="400" font-style="normal" 
>
<path vector-effect="non-scaling-stroke" fill-rule="evenodd" d="M-8026.28,-16500 L-8033.5,-16647 L-8055.1,-16792.6 L-8090.87,-16935.4 L-8140.46,-17074 L-8203.4,-17207.1 L-8279.08,-17333.4 L-8366.76,-17451.6 L-8465.62,-17560.7 L-8574.69,-17659.5 L-8692.92,-17747.2 L-8819.18,-17822.9 L-8952.25,-17885.8 L-9090.85,-17935.4 L-9233.64,-17971.2 L-9379.25,-17992.8 L-9526.28,-18000 L-9673.31,-17992.8 L-9818.91,-17971.2 L-9961.71,-17935.4 L-10100.3,-17885.8 L-10233.4,-17822.9 L-10359.6,-17747.2 L-10477.9,-17659.5 L-10586.9,-17560.7 L-10685.8,-17451.6 L-10773.5,-17333.4 L-10849.2,-17207.1 L-10912.1,-17074 L-10961.7,-16935.4 L-10997.5,-16792.6 L-11019.1,-16647 L-11026.3,-16500 L-11019.1,-16353 L-10997.5,-16207.4 L-10961.7,-16064.6 L-10912.1,-15926 L-10849.2,-15792.9 L-10773.5,-15666.6 L-10685.8,-15548.4 L-10586.9,-15439.3 L-10477.9,-15340.5 L-10359.6,-15252.8 L-10233.4,-15177.1 L-10100.3,-15114.2 L-9961.71,-15064.6 L-9818.91,-15028.8 L-9673.31,-15007.2 L-9526.28,-15000 L-9379.25,-15007.2 L-9233.64,-15028.8 L-9090.85,-15064.6 L-8952.25,-15114.2 L-8819.18,-15177.1 L-8692.92,-15252.8 L-8574.69,-15340.5 L-8465.62,-15439.3 L-8366.76,-15548.4 L-8279.08,-15666.6 L-8203.4,-15792.9 L-8140.46,-15926 L-8090.87,-16064.6 L-8055.1,-16207.4 L-8033.5,-16353 L-8026.28,-16500"/>
</g>

<g fill="none" stroke="#000000" stroke-opacity="1" stroke-width="1" stroke-linecap="square" stroke-linejoin="bevel" transform="matrix(0.999975,0,0,-0.999975,11026.5,-1720.87)"
font-family="MS Shell Dlg 2" font-size="10.3125" font-weight="400" font-style="normal" 
>
</g>

<g fill="none" stroke="#000000" stroke-opacity="1" stroke-width="1" stroke-linecap="square" stroke-linejoin="bevel" transform="matrix(0.999975,0,0,-0.999975,11026.5,-1720.87)"
font-family="MS Shell Dlg 2" font-size="10.3125" font-weight="400" font-style="normal" 
>
</g>

<g fill="#ffff00" fill-opacity="0.2" stroke="#333333" stroke-opacity="1" stroke-width="1" stroke-linecap="round" stroke-linejoin="round" transform="matrix(0.999975,0,0,-0.999975,11026.5,-1720.87)"
font-family="MS Shell Dlg 2" font-size="10.3125" font-weight="400" font-style="normal" 
>
<path vector-effect="non-scaling-stroke" fill-rule="evenodd" d="M11026.3,-16500 L11019.1,-16647 L10997.5,-16792.6 L10961.7,-16935.4 L10912.1,-17074 L10849.2,-17207.1 L10773.5,-17333.4 L10685.8,-17451.6 L10586.9,-17560.7 L10477.9,-17659.5 L10359.6,-17747.2 L10233.4,-17822.9 L10100.3,-17885.8 L9961.71,-17935.4 L9818.91,-17971.2 L9673.31,-17992.8 L9526.28,-18000 L9379.25,-17992.8 L9233.64,-17971.2 L9090.85,-17935.4 L8952.25,-17885.8 L8819.18,-17822.9 L8692.92,-17747.2 L8574.69,-17659.5 L8465.62,-17560.7 L8366.76,-17451.6 L8279.08,-17333.4 L8203.4,-17207.1 L8140.46,-17074 L8090.87,-16935.4 L8055.1,-16792.6 L8033.5,-16647 L8026.28,-16500 L8033.5,-16353 L8055.1,-16207.4 L8090.87,-16064.6 L8140.46,-15926 L8203.4,-15792.9 L8279.08,-15666.6 L8366.76,-15548.4 L8465.62,-15439.3 L8574.69,-15340.5 L8692.92,-15252.8 L8819.18,-15177.1 L8952.25,-15114.2 L9090.85,-15064.6 L9233.64,-15028.8 L9379.25,-15007.2 L9526.28,-15000 L9673.31,-15007.2 L9818.91,-15028.8 L9961.71,-15064.6 L10100.3,-15114.2 L10233.4,-15177.1 L10359.6,-15252.8 L10477.9,-15340.5 L10586.9,-15439.3 L10685.8,-15548.4 L10773.5,-15666.6 L10849.2,-15792.9 L10912.1,-15926 L10961.7,-16064.6 L10997.5,-16207.4 L11019.1,-16353 L11026.3,-16500"/>
</g>

<g fill="none" stroke="#000000" stroke-opacity="1" stroke-width="1" stroke-linecap="square" stroke-linejoin="bevel" transform="matrix(0.999975,0,0,-0.999975,11026.5,-1720.87)"
font-family="MS Shell Dlg 2" font-size="10.3125" font-weight="400" font-style="normal" 
>
</g>

<g fill="none" stroke="#000000" stroke-opacity="1" stroke-width="1" stroke-linecap="square" stroke-linejoin="bevel" transform="matrix(0.999975,0,0,-0.999975,11026.5,-1720.87)"
font-family="MS Shell Dlg 2" font-size="10.3125" font-weight="400" font-style="normal" 
>
</g>

<g fill="#ffff00" fill-opacity="0.2" stroke="#333333" stroke-opacity="1" stroke-width="1" stroke-linecap="round" stroke-linejoin="round" transform="matrix(0.999975,0,0,-0.999975,11026.5,-1720.87)"
font-family="MS Shell Dlg 2" font-size="10.3125" font-weight="400" font-style="normal" 
>
<path vector-effect="non-scaling-stroke" fill-rule="evenodd" d="M2000,-11000 L1990.37,-11196 L1961.57,-11390.2 L1913.88,-11580.6 L1847.76,-11765.4 L1763.84,-11942.8 L1662.94,-12111.1 L1546.02,-12268.8 L1414.21,-12414.2 L1268.79,-12546 L1111.14,-12662.9 L942.793,-12763.8 L765.367,-12847.8 L580.569,-12913.9 L390.181,-12961.6 L196.034,-12990.4 L3.23109e-12,-13000 L-196.034,-12990.4 L-390.181,-12961.6 L-580.569,-12913.9 L-765.367,-12847.8 L-942.793,-12763.8 L-1111.14,-12662.9 L-1268.79,-12546 L-1414.21,-12414.2 L-1546.02,-12268.8 L-1662.94,-12111.1 L-1763.84,-11942.8 L-1847.76,-11765.4 L-1913.88,-11580.6 L-1961.57,-11390.2 L-1990.37,-11196 L-2000,-11000 L-1990.37,-10804 L-1961.57,-10609.8 L-1913.88,-10419.4 L-1847.76,-10234.6 L-1763.84,-10057.2 L-1662.94,-9888.86 L-1546.02,-9731.21 L-1414.21,-9585.79 L-1268.79,-9453.98 L-1111.14,-9337.06 L-942.793,-9236.16 L-765.367,-9152.24 L-580.569,-9086.12 L-390.181,-9038.43 L-196.034,-9009.63 L-5.69646e-12,-9000 L196.034,-9009.63 L390.181,-9038.43 L580.569,-9086.12 L765.367,-9152.24 L942.793,-9236.16 L1111.14,-9337.06 L1268.79,-9453.98 L1414.21,-9585.79 L1546.02,-9731.21 L1662.94,-9888.86 L1763.84,-10057.2 L1847.76,-10234.6 L1913.88,-10419.4 L1961.57,-10609.8 L1990.37,-10804 L2000,-11000"/>
</g>

<g fill="none" stroke="#000000" stroke-opacity="1" stroke-width="1" stroke-linecap="square" stroke-linejoin="bevel" transform="matrix(0.999975,0,0,-0.999975,11026.5,-1720.87)"
font-family="MS Shell Dlg 2" font-size="10.3125" font-weight="400" font-style="normal" 
>
</g>

<g fill="none" stroke="#000000" stroke-opacity="1" stroke-width="1" stroke-linecap="square" stroke-linejoin="bevel" transform="matrix(0.999975,0,0,-0.999975,11026.5,-1720.87)"
font-family="MS Shell Dlg 2" font-size="10.3125" font-weight="400" font-style="normal" 
>
</g>

<g fill="#ffff00" fill-opacity="0.2" stroke="#333333" stroke-opacity="1" stroke-width="1" stroke-linecap="round" stroke-linejoin="round" transform="matrix(0.999975,0,0,-0.999975,11026.5,-1720.87)"
font-family="MS Shell Dlg 2" font-size="10.3125" font-weight="400" font-style="normal" 
>
<path vector-effect="non-scaling-stroke" fill-rule="evenodd" d="M-6278.17,-3221.83 L-6285.4,-3368.85 L-6307,-3514.46 L-6342.76,-3657.25 L-6392.36,-3795.85 L-6455.29,-3928.92 L-6530.97,-4055.18 L-6618.66,-4173.42 L-6717.51,-4282.49 L-6826.58,-4381.34 L-6944.82,-4469.03 L-7071.08,-4544.71 L-7204.15,-4607.64 L-7342.75,-4657.24 L-7485.54,-4693 L-7631.15,-4714.6 L-7778.17,-4721.83 L-7925.2,-4714.6 L-8070.81,-4693 L-8213.6,-4657.24 L-8352.2,-4607.64 L-8485.27,-4544.71 L-8611.53,-4469.03 L-8729.76,-4381.34 L-8838.83,-4282.49 L-8937.69,-4173.42 L-9025.38,-4055.18 L-9101.06,-3928.92 L-9163.99,-3795.85 L-9213.59,-3657.25 L-9249.35,-3514.46 L-9270.95,-3368.85 L-9278.17,-3221.83 L-9270.95,-3074.8 L-9249.35,-2929.19 L-9213.59,-2786.4 L-9163.99,-2647.8 L-9101.06,-2514.73 L-9025.38,-2388.47 L-8937.69,-2270.24 L-8838.83,-2161.17 L-8729.76,-2062.31 L-8611.53,-1974.62 L-8485.27,-1898.94 L-8352.2,-1836.01 L-8213.6,-1786.41 L-8070.81,-1750.65 L-7925.2,-1729.05 L-7778.17,-1721.83 L-7631.15,-1729.05 L-7485.54,-1750.65 L-7342.75,-1786.41 L-7204.15,-1836.01 L-7071.08,-1898.94 L-6944.82,-1974.62 L-6826.58,-2062.31 L-6717.51,-2161.17 L-6618.66,-2270.24 L-6530.97,-2388.47 L-6455.29,-2514.73 L-6392.36,-2647.8 L-6342.76,-2786.4 L-6307,-2929.19 L-6285.4,-3074.8 L-6278.17,-3221.83"/>
</g>

<g fill="none" stroke="#000000" stroke-opacity="1" stroke-width="1" stroke-linecap="square" stroke-linejoin="bevel" transform="matrix(0.999975,0,0,-0.999975,11026.5,-1720.87)"
font-family="MS Shell Dlg 2" font-size="10.3125" font-weight="400" font-style="normal" 
>
</g>

<g fill="none" stroke="#000000" stroke-opacity="1" stroke-width="1" stroke-linecap="square" stroke-linejoin="bevel" transform="matrix(0.999975,0,0,-0.999975,11026.5,-1720.87)"
font-family="MS Shell Dlg 2" font-size="10.3125" font-weight="400" font-style="normal" 
>
</g>

<g fill="#ffff00" fill-opacity="0.2" stroke="#333333" stroke-opacity="1" stroke-width="1" stroke-linecap="round" stroke-linejoin="round" transform="matrix(0.999975,0,0,-0.999975,11026.5,-1720.87)"
font-family="MS Shell Dlg 2" font-size="10.3125" font-weight="400" font-style="normal" 
>
<path vector-effect="non-scaling-stroke" fill-rule="evenodd" d="M9278.17,-3221.83 L9270.95,-3368.85 L9249.35,-3514.46 L9213.59,-3657.25 L9163.99,-3795.85 L9101.06,-3928.92 L9025.38,-4055.18 L8937.69,-4173.42 L8838.83,-4282.49 L8729.76,-4381.34 L8611.53,-4469.03 L8485.27,-4544.71 L8352.2,-4607.64 L8213.6,-4657.24 L8070.81,-4693 L7925.2,-4714.6 L7778.17,-4721.83 L7631.15,-4714.6 L7485.54,-4693 L7342.75,-4657.24 L7204.15,-4607.64 L7071.08,-4544.71 L6944.82,-4469.03 L6826.58,-4381.34 L6717.51,-4282.49 L6618.66,-4173.42 L6530.97,-4055.18 L6455.29,-3928.92 L6392.36,-3795.85 L6342.76,-3657.25 L6307,-3514.46 L6285.4,-3368.85 L6278.17,-3221.83 L6285.4,-3074.8 L6307,-2929.19 L6342.76,-2786.4 L6392.36,-2647.8 L6455.29,-2514.73 L6530.97,-2388.47 L6618.66,-2270.24 L6717.51,-2161.17 L6826.58,-2062.31 L6944.82,-1974.62 L7071.08,-1898.94 L7204.15,-1836.01 L7342.75,-1786.41 L7485.54,-1750.65 L7631.15,-1729.05 L7778.17,-1721.83 L7925.2,-1729.05 L8070.81,-1750.65 L8213.6,-1786.41 L8352.2,-1836.01 L8485.27,-1898.94 L8611.53,-1974.62 L8729.76,-2062.31 L8838.83,-2161.17 L8937.69,-2270.24 L9025.38,-2388.47 L9101.06,-2514.73 L9163.99,-2647.8 L9213.59,-2786.4 L9249.35,-2929.19 L9270.95,-3074.8 L9278.17,-3221.83"/>
</g>

<g fill="none" stroke="#000000" stroke-opacity="1" stroke-width="1" stroke-linecap="square" stroke-linejoin="bevel" transform="matrix(0.999975,0,0,-0.999975,11026.5,-1720.87)"
font-family="MS Shell Dlg 2" font-size="10.3125" font-weight="400" font-style="normal" 
>
</g>

<g fill="none" stroke="#000000" stroke-opacity="1" stroke-width="1" stroke-linecap="square" stroke-linejoin="bevel" transform="matrix(0.999975,0,0,-0.999975,11026.5,-1720.87)"
font-family="MS Shell Dlg 2" font-size="10.3125" font-weight="400" font-style="normal" 
>
</g>

<g fill="#ae5151" fill-opacity="0.2" stroke="#333333" stroke-opacity="1" stroke-width="1" stroke-linecap="round" stroke-linejoin="round" transform="matrix(0.999975,0,0,-0.999975,11026.5,-1720.87)"
font-family="MS Shell Dlg 2" font-size="10.3125" font-weight="400" font-style="normal" 
>
<path vector-effect="non-scaling-stroke" fill-rule="evenodd" d="M-8026.28,-16500 L-8033.5,-16647 L-8055.1,-16792.6 L-8090.87,-16935.4 L-8140.46,-17074 L-8203.4,-17207.1 L-8279.08,-17333.4 L-8366.76,-17451.6 L-8465.62,-17560.7 L-8574.69,-17659.5 L-8692.92,-17747.2 L-8819.18,-17822.9 L-8952.25,-17885.8 L-9090.85,-17935.4 L-9233.64,-17971.2 L-9379.25,-17992.8 L-9526.28,-18000 L-9673.31,-17992.8 L-9818.91,-17971.2 L-9961.71,-17935.4 L-10100.3,-17885.8 L-10233.4,-17822.9 L-10359.6,-17747.2 L-10477.9,-17659.5 L-10586.9,-17560.7 L-10685.8,-17451.6 L-10773.5,-17333.4 L-10849.2,-17207.1 L-10912.1,-17074 L-10961.7,-16935.4 L-10997.5,-16792.6 L-11019.1,-16647 L-11026.3,-16500 L-11019.1,-16353 L-10997.5,-16207.4 L-10961.7,-16064.6 L-10912.1,-15926 L-10849.2,-15792.9 L-10773.5,-15666.6 L-10685.8,-15548.4 L-10586.9,-15439.3 L-10477.9,-15340.5 L-10359.6,-15252.8 L-10233.4,-15177.1 L-10100.3,-15114.2 L-9961.71,-15064.6 L-9818.91,-15028.8 L-9673.31,-15007.2 L-9526.28,-15000 L-9379.25,-15007.2 L-9233.64,-15028.8 L-9090.85,-15064.6 L-8952.25,-15114.2 L-8819.18,-15177.1 L-8692.92,-15252.8 L-8574.69,-15340.5 L-8465.62,-15439.3 L-8366.76,-15548.4 L-8279.08,-15666.6 L-8203.4,-15792.9 L-8140.46,-15926 L-8090.87,-16064.6 L-8055.1,-16207.4 L-8033.5,-16353 L-8026.28,-16500"/>
</g>

<g fill="none" stroke="#000000" stroke-opacity="1" stroke-width="1" stroke-linecap="square" stroke-linejoin="bevel" transform="matrix(0.999975,0,0,-0.999975,11026.5,-1720.87)"
font-family="MS Shell Dlg 2" font-size="10.3125" font-weight="400" font-style="normal" 
>
</g>

<g fill="none" stroke="#000000" stroke-opacity="1" stroke-width="1" stroke-linecap="square" stroke-linejoin="bevel" transform="matrix(0.999975,0,0,-0.999975,11026.5,-1720.87)"
font-family="MS Shell Dlg 2" font-size="10.3125" font-weight="400" font-style="normal" 
>
</g>

<g fill="#ae5151" fill-opacity="0.2" stroke="#333333" stroke-opacity="1" stroke-width="1" stroke-linecap="round" stroke-linejoin="round" transform="matrix(0.999975,0,0,-0.999975,11026.5,-1720.87)"
font-family="MS Shell Dlg 2" font-size="10.3125" font-weight="400" font-style="normal" 
>
<path vector-effect="non-scaling-stroke" fill-rule="evenodd" d="M11026.3,-16500 L11019.1,-16647 L10997.5,-16792.6 L10961.7,-16935.4 L10912.1,-17074 L10849.2,-17207.1 L10773.5,-17333.4 L10685.8,-17451.6 L10586.9,-17560.7 L10477.9,-17659.5 L10359.6,-17747.2 L10233.4,-17822.9 L10100.3,-17885.8 L9961.71,-17935.4 L9818.91,-17971.2 L9673.31,-17992.8 L9526.28,-18000 L9379.25,-17992.8 L9233.64,-17971.2 L9090.85,-17935.4 L8952.25,-17885.8 L8819.18,-17822.9 L8692.92,-17747.2 L8574.69,-17659.5 L8465.62,-17560.7 L8366.76,-17451.6 L8279.08,-17333.4 L8203.4,-17207.1 L8140.46,-17074 L8090.87,-16935.4 L8055.1,-16792.6 L8033.5,-16647 L8026.28,-16500 L8033.5,-16353 L8055.1,-16207.4 L8090.87,-16064.6 L8140.46,-15926 L8203.4,-15792.9 L8279.08,-15666.6 L8366.76,-15548.4 L8465.62,-15439.3 L8574.69,-15340.5 L8692.92,-15252.8 L8819.18,-15177.1 L8952.25,-15114.2 L9090.85,-15064.6 L9233.64,-15028.8 L9379.25,-15007.2 L9526.28,-15000 L9673.31,-15007.2 L9818.91,-15028.8 L9961.71,-15064.6 L10100.3,-15114.2 L10233.4,-15177.1 L10359.6,-15252.8 L10477.9,-15340.5 L10586.9,-15439.3 L10685.8,-15548.4 L10773.5,-15666.6 L10849.2,-15792.9 L10912.1,-15926 L10961.7,-16064.6 L10997.5,-16207.4 L11019.1,-16353 L11026.3,-16500"/>
</g>

<g fill="none" stroke="#000000" stroke-opacity="1" stroke-width="1" stroke-linecap="square" stroke-linejoin="bevel" transform="matrix(0.999975,0,0,-0.999975,11026.5,-1720.87)"
font-family="MS Shell Dlg 2" font-size="10.3125" font-weight="400" font-style="normal" 
>
</g>

<g fill="none" stroke="#000000" stroke-opacity="1" stroke-width="1" stroke-linecap="square" stroke-linejoin="bevel" transform="matrix(0.999975,0,0,-0.999975,11026.5,-1720.87)"
font-family="MS Shell Dlg 2" font-size="10.3125" font-weight="400" font-style="normal" 
>
</g>

<g fill="#ae5151" fill-opacity="0.2" stroke="#333333" stroke-opacity="1" stroke-width="1" stroke-linecap="round" stroke-linejoin="round" transform="matrix(0.999975,0,0,-0.999975,11026.5,-1720.87)"
font-family="MS Shell Dlg 2" font-size="10.3125" font-weight="400" font-style="normal" 
>
<path vector-effect="non-scaling-stroke" fill-rule="evenodd" d="M2000,-11000 L1990.37,-11196 L1961.57,-11390.2 L1913.88,-11580.6 L1847.76,-11765.4 L1763.84,-11942.8 L1662.94,-12111.1 L1546.02,-12268.8 L1414.21,-12414.2 L1268.79,-12546 L1111.14,-12662.9 L942.793,-12763.8 L765.367,-12847.8 L580.569,-12913.9 L390.181,-12961.6 L196.034,-12990.4 L3.23109e-12,-13000 L-196.034,-12990.4 L-390.181,-12961.6 L-580.569,-12913.9 L-765.367,-12847.8 L-942.793,-12763.8 L-1111.14,-12662.9 L-1268.79,-12546 L-1414.21,-12414.2 L-1546.02,-12268.8 L-1662.94,-12111.1 L-1763.84,-11942.8 L-1847.76,-11765.4 L-1913.88,-11580.6 L-1961.57,-11390.2 L-1990.37,-11196 L-2000,-11000 L-1990.37,-10804 L-1961.57,-10609.8 L-1913.88,-10419.4 L-1847.76,-10234.6 L-1763.84,-10057.2 L-1662.94,-9888.86 L-1546.02,-9731.21 L-1414.21,-9585.79 L-1268.79,-9453.98 L-1111.14,-9337.06 L-942.793,-9236.16 L-765.367,-9152.24 L-580.569,-9086.12 L-390.181,-9038.43 L-196.034,-9009.63 L-5.69646e-12,-9000 L196.034,-9009.63 L390.181,-9038.43 L580.569,-9086.12 L765.367,-9152.24 L942.793,-9236.16 L1111.14,-9337.06 L1268.79,-9453.98 L1414.21,-9585.79 L1546.02,-9731.21 L1662.94,-9888.86 L1763.84,-10057.2 L1847.76,-10234.6 L1913.88,-10419.4 L1961.57,-10609.8 L1990.37,-10804 L2000,-11000"/>
</g>

<g fill="none" stroke="#000000" stroke-opacity="1" stroke-width="1" stroke-linecap="square" stroke-linejoin="bevel" transform="matrix(0.999975,0,0,-0.999975,11026.5,-1720.87)"
font-family="MS Shell Dlg 2" font-size="10.3125" font-weight="400" font-style="normal" 
>
</g>

<g fill="none" stroke="#000000" stroke-opacity="1" stroke-width="1" stroke-linecap="square" stroke-linejoin="bevel" transform="matrix(0.999975,0,0,-0.999975,11026.5,-1720.87)"
font-family="MS Shell Dlg 2" font-size="10.3125" font-weight="400" font-style="normal" 
>
</g>

<g fill="#ae5151" fill-opacity="0.2" stroke="#333333" stroke-opacity="1" stroke-width="1" stroke-linecap="round" stroke-linejoin="round" transform="matrix(0.999975,0,0,-0.999975,11026.5,-1720.87)"
font-family="MS Shell Dlg 2" font-size="10.3125" font-weight="400" font-style="normal" 
>
<path vector-effect="non-scaling-stroke" fill-rule="evenodd" d="M-6278.17,-3221.83 L-6285.4,-3368.85 L-6307,-3514.46 L-6342.76,-3657.25 L-6392.36,-3795.85 L-6455.29,-3928.92 L-6530.97,-4055.18 L-6618.66,-4173.42 L-6717.51,-4282.49 L-6826.58,-4381.34 L-6944.82,-4469.03 L-7071.08,-4544.71 L-7204.15,-4607.64 L-7342.75,-4657.24 L-7485.54,-4693 L-7631.15,-4714.6 L-7778.17,-4721.83 L-7925.2,-4714.6 L-8070.81,-4693 L-8213.6,-4657.24 L-8352.2,-4607.64 L-8485.27,-4544.71 L-8611.53,-4469.03 L-8729.76,-4381.34 L-8838.83,-4282.49 L-8937.69,-4173.42 L-9025.38,-4055.18 L-9101.06,-3928.92 L-9163.99,-3795.85 L-9213.59,-3657.25 L-9249.35,-3514.46 L-9270.95,-3368.85 L-9278.17,-3221.83 L-9270.95,-3074.8 L-9249.35,-2929.19 L-9213.59,-2786.4 L-9163.99,-2647.8 L-9101.06,-2514.73 L-9025.38,-2388.47 L-8937.69,-2270.24 L-8838.83,-2161.17 L-8729.76,-2062.31 L-8611.53,-1974.62 L-8485.27,-1898.94 L-8352.2,-1836.01 L-8213.6,-1786.41 L-8070.81,-1750.65 L-7925.2,-1729.05 L-7778.17,-1721.83 L-7631.15,-1729.05 L-7485.54,-1750.65 L-7342.75,-1786.41 L-7204.15,-1836.01 L-7071.08,-1898.94 L-6944.82,-1974.62 L-6826.58,-2062.31 L-6717.51,-2161.17 L-6618.66,-2270.24 L-6530.97,-2388.47 L-6455.29,-2514.73 L-6392.36,-2647.8 L-6342.76,-2786.4 L-6307,-2929.19 L-6285.4,-3074.8 L-6278.17,-3221.83"/>
</g>

<g fill="none" stroke="#000000" stroke-opacity="1" stroke-width="1" stroke-linecap="square" stroke-linejoin="bevel" transform="matrix(0.999975,0,0,-0.999975,11026.5,-1720.87)"
font-family="MS Shell Dlg 2" font-size="10.3125" font-weight="400" font-style="normal" 
>
</g>

<g fill="none" stroke="#000000" stroke-opacity="1" stroke-width="1" stroke-linecap="square" stroke-linejoin="bevel" transform="matrix(0.999975,0,0,-0.999975,11026.5,-1720.87)"
font-family="MS Shell Dlg 2" font-size="10.3125" font-weight="400" font-style="normal" 
>
</g>

<g fill="#ae5151" fill-opacity="0.2" stroke="#333333" stroke-opacity="1" stroke-width="1" stroke-linecap="round" stroke-linejoin="round" transform="matrix(0.999975,0,0,-0.999975,11026.5,-1720.87)"
font-family="MS Shell Dlg 2" font-size="10.3125" font-weight="400" font-style="normal" 
>
<path vector-effect="non-scaling-stroke" fill-rule="evenodd" d="M9278.17,-3221.83 L9270.95,-3368.85 L9249.35,-3514.46 L9213.59,-3657.25 L9163.99,-3795.85 L9101.06,-3928.92 L9025.38,-4055.18 L8937.69,-4173.42 L8838.83,-4282.49 L8729.76,-4381.34 L8611.53,-4469.03 L8485.27,-4544.71 L8352.2,-4607.64 L8213.6,-4657.24 L8070.81,-4693 L7925.2,-4714.6 L7778.17,-4721.83 L7631.15,-4714.6 L7485.54,-4693 L7342.75,-4657.24 L7204.15,-4607.64 L7071.08,-4544.71 L6944.82,-4469.03 L6826.58,-4381.34 L6717.51,-4282.49 L6618.66,-4173.42 L6530.97,-4055.18 L6455.29,-3928.92 L6392.36,-3795.85 L6342.76,-3657.25 L6307,-3514.46 L6285.4,-3368.85 L6278.17,-3221.83 L6285.4,-3074.8 L6307,-2929.19 L6342.76,-2786.4 L6392.36,-2647.8 L6455.29,-2514.73 L6530.97,-2388.47 L6618.66,-2270.24 L6717.51,-2161.17 L6826.58,-2062.31 L6944.82,-1974.62 L7071.08,-1898.94 L7204.15,-1836.01 L7342.75,-1786.41 L7485.54,-1750.65 L7631.15,-1729.05 L7778.17,-1721.83 L7925.2,-1729.05 L8070.81,-1750.65 L8213.6,-1786.41 L8352.2,-1836.01 L8485.27,-1898.94 L8611.53,-1974.62 L8729.76,-2062.31 L8838.83,-2161.17 L8937.69,-2270.24 L9025.38,-2388.47 L9101.06,-2514.73 L9163.99,-2647.8 L9213.59,-2786.4 L9249.35,-2929.19 L9270.95,-3074.8 L9278.17,-3221.83"/>
</g>

<g fill="none" stroke="#000000" stroke-opacity="1" stroke-width="1" stroke-linecap="square" stroke-linejoin="bevel" transform="matrix(0.999975,0,0,-0.999975,11026.5,-1720.87)"
font-family="MS Shell Dlg 2" font-size="10.3125" font-weight="400" font-style="normal" 
>
</g>

<g fill="none" stroke="#000000" stroke-opacity="1" stroke-width="1" stroke-linecap="square" stroke-linejoin="bevel" transform="matrix(0.999975,0,0,-0.999975,11026.5,-1720.87)"
font-family="MS Shell Dlg 2" font-size="10.3125" font-weight="400" font-style="normal" 
>
</g>

<g fill="#333333" fill-opacity="0.2" stroke="#333333" stroke-opacity="1" stroke-width="1" stroke-linecap="round" stroke-linejoin="round" transform="matrix(0.999975,0,0,-0.999975,11026.5,-1720.87)"
font-family="MS Shell Dlg 2" font-size="10.3125" font-weight="400" font-style="normal" 
>
<path vector-effect="non-scaling-stroke" fill-rule="evenodd" d="M-8026.28,-16500 L-8033.5,-16647 L-8055.1,-16792.6 L-8090.87,-16935.4 L-8140.46,-17074 L-8203.4,-17207.1 L-8279.08,-17333.4 L-8366.76,-17451.6 L-8465.62,-17560.7 L-8574.69,-17659.5 L-8692.92,-17747.2 L-8819.18,-17822.9 L-8952.25,-17885.8 L-9090.85,-17935.4 L-9233.64,-17971.2 L-9379.25,-17992.8 L-9526.28,-18000 L-9673.31,-17992.8 L-9818.91,-17971.2 L-9961.71,-17935.4 L-10100.3,-17885.8 L-10233.4,-17822.9 L-10359.6,-17747.2 L-10477.9,-17659.5 L-10586.9,-17560.7 L-10685.8,-17451.6 L-10773.5,-17333.4 L-10849.2,-17207.1 L-10912.1,-17074 L-10961.7,-16935.4 L-10997.5,-16792.6 L-11019.1,-16647 L-11026.3,-16500 L-11019.1,-16353 L-10997.5,-16207.4 L-10961.7,-16064.6 L-10912.1,-15926 L-10849.2,-15792.9 L-10773.5,-15666.6 L-10685.8,-15548.4 L-10586.9,-15439.3 L-10477.9,-15340.5 L-10359.6,-15252.8 L-10233.4,-15177.1 L-10100.3,-15114.2 L-9961.71,-15064.6 L-9818.91,-15028.8 L-9673.31,-15007.2 L-9526.28,-15000 L-9379.25,-15007.2 L-9233.64,-15028.8 L-9090.85,-15064.6 L-8952.25,-15114.2 L-8819.18,-15177.1 L-8692.92,-15252.8 L-8574.69,-15340.5 L-8465.62,-15439.3 L-8366.76,-15548.4 L-8279.08,-15666.6 L-8203.4,-15792.9 L-8140.46,-15926 L-8090.87,-16064.6 L-8055.1,-16207.4 L-8033.5,-16353 L-8026.28,-16500"/>
</g>

<g fill="none" stroke="#000000" stroke-opacity="1" stroke-width="1" stroke-linecap="square" stroke-linejoin="bevel" transform="matrix(0.999975,0,0,-0.999975,11026.5,-1720.87)"
font-family="MS Shell Dlg 2" font-size="10.3125" font-weight="400" font-style="normal" 
>
</g>

<g fill="none" stroke="#000000" stroke-opacity="1" stroke-width="1" stroke-linecap="square" stroke-linejoin="bevel" transform="matrix(0.999975,0,0,-0.999975,11026.5,-1720.87)"
font-family="MS Shell Dlg 2" font-size="10.3125" font-weight="400" font-style="normal" 
>
</g>

<g fill="#333333" fill-opacity="0.2" stroke="#333333" stroke-opacity="1" stroke-width="1" stroke-linecap="round" stroke-linejoin="round" transform="matrix(0.999975,0,0,-0.999975,11026.5,-1720.87)"
font-family="MS Shell Dlg 2" font-size="10.3125" font-weight="400" font-style="normal" 
>
<path vector-effect="non-scaling-stroke" fill-rule="evenodd" d="M11026.3,-16500 L11019.1,-16647 L10997.5,-16792.6 L10961.7,-16935.4 L10912.1,-17074 L10849.2,-17207.1 L10773.5,-17333.4 L10685.8,-17451.6 L10586.9,-17560.7 L10477.9,-17659.5 L10359.6,-17747.2 L10233.4,-17822.9 L10100.3,-17885.8 L9961.71,-17935.4 L9818.91,-17971.2 L9673.31,-17992.8 L9526.28,-18000 L9379.25,-17992.8 L9233.64,-17971.2 L9090.85,-17935.4 L8952.25,-17885.8 L8819.18,-17822.9 L8692.92,-17747.2 L8574.69,-17659.5 L8465.62,-17560.7 L8366.76,-17451.6 L8279.08,-17333.4 L8203.4,-17207.1 L8140.46,-17074 L8090.87,-16935.4 L8055.1,-16792.6 L8033.5,-16647 L8026.28,-16500 L8033.5,-16353 L8055.1,-16207.4 L8090.87,-16064.6 L8140.46,-15926 L8203.4,-15792.9 L8279.08,-15666.6 L8366.76,-15548.4 L8465.62,-15439.3 L8574.69,-15340.5 L8692.92,-15252.8 L8819.18,-15177.1 L8952.25,-15114.2 L9090.85,-15064.6 L9233.64,-15028.8 L9379.25,-15007.2 L9526.28,-15000 L9673.31,-15007.2 L9818.91,-15028.8 L9961.71,-15064.6 L10100.3,-15114.2 L10233.4,-15177.1 L10359.6,-15252.8 L10477.9,-15340.5 L10586.9,-15439.3 L10685.8,-15548.4 L10773.5,-15666.6 L10849.2,-15792.9 L10912.1,-15926 L10961.7,-16064.6 L10997.5,-16207.4 L11019.1,-16353 L11026.3,-16500"/>
</g>

<g fill="none" stroke="#000000" stroke-opacity="1" stroke-width="1" stroke-linecap="square" stroke-linejoin="bevel" transform="matrix(0.999975,0,0,-0.999975,11026.5,-1720.87)"
font-family="MS Shell Dlg 2" font-size="10.3125" font-weight="400" font-style="normal" 
>
</g>

<g fill="none" stroke="#000000" stroke-opacity="1" stroke-width="1" stroke-linecap="square" stroke-linejoin="bevel" transform="matrix(0.999975,0,0,-0.999975,11026.5,-1720.87)"
font-family="MS Shell Dlg 2" font-size="10.3125" font-weight="400" font-style="normal" 
>
</g>

<g fill="#333333" fill-opacity="0.2" stroke="#333333" stroke-opacity="1" stroke-width="1" stroke-linecap="round" stroke-linejoin="round" transform="matrix(0.999975,0,0,-0.999975,11026.5,-1720.87)"
font-family="MS Shell Dlg 2" font-size="10.3125" font-weight="400" font-style="normal" 
>
<path vector-effect="non-scaling-stroke" fill-rule="evenodd" d="M2000,-11000 L1990.37,-11196 L1961.57,-11390.2 L1913.88,-11580.6 L1847.76,-11765.4 L1763.84,-11942.8 L1662.94,-12111.1 L1546.02,-12268.8 L1414.21,-12414.2 L1268.79,-12546 L1111.14,-12662.9 L942.793,-12763.8 L765.367,-12847.8 L580.569,-12913.9 L390.181,-12961.6 L196.034,-12990.4 L3.23109e-12,-13000 L-196.034,-12990.4 L-390.181,-12961.6 L-580.569,-12913.9 L-765.367,-12847.8 L-942.793,-12763.8 L-1111.14,-12662.9 L-1268.79,-12546 L-1414.21,-12414.2 L-1546.02,-12268.8 L-1662.94,-12111.1 L-1763.84,-11942.8 L-1847.76,-11765.4 L-1913.88,-11580.6 L-1961.57,-11390.2 L-1990.37,-11196 L-2000,-11000 L-1990.37,-10804 L-1961.57,-10609.8 L-1913.88,-10419.4 L-1847.76,-10234.6 L-1763.84,-10057.2 L-1662.94,-9888.86 L-1546.02,-9731.21 L-1414.21,-9585.79 L-1268.79,-9453.98 L-1111.14,-9337.06 L-942.793,-9236.16 L-765.367,-9152.24 L-580.569,-9086.12 L-390.181,-9038.43 L-196.034,-9009.63 L-5.69646e-12,-9000 L196.034,-9009.63 L390.181,-9038.43 L580.569,-9086.12 L765.367,-9152.24 L942.793,-9236.16 L1111.14,-9337.06 L1268.79,-9453.98 L1414.21,-9585.79 L1546.02,-9731.21 L1662.94,-9888.86 L1763.84,-10057.2 L1847.76,-10234.6 L1913.88,-10419.4 L1961.57,-10609.8 L1990.37,-10804 L2000,-11000"/>
</g>

<g fill="none" stroke="#000000" stroke-opacity="1" stroke-width="1" stroke-linecap="square" stroke-linejoin="bevel" transform="matrix(0.999975,0,0,-0.999975,11026.5,-1720.87)"
font-family="MS Shell Dlg 2" font-size="10.3125" font-weight="400" font-style="normal" 
>
</g>

<g fill="none" stroke="#000000" stroke-opacity="1" stroke-width="1" stroke-linecap="square" stroke-linejoin="bevel" transform="matrix(0.999975,0,0,-0.999975,11026.5,-1720.87)"
font-family="MS Shell Dlg 2" font-size="10.3125" font-weight="400" font-style="normal" 
>
</g>

<g fill="#333333" fill-opacity="0.2" stroke="#333333" stroke-opacity="1" stroke-width="1" stroke-linecap="round" stroke-linejoin="round" transform="matrix(0.999975,0,0,-0.999975,11026.5,-1720.87)"
font-family="MS Shell Dlg 2" font-size="10.3125" font-weight="400" font-style="normal" 
>
<path vector-effect="non-scaling-stroke" fill-rule="evenodd" d="M-6278.17,-3221.83 L-6285.4,-3368.85 L-6307,-3514.46 L-6342.76,-3657.25 L-6392.36,-3795.85 L-6455.29,-3928.92 L-6530.97,-4055.18 L-6618.66,-4173.42 L-6717.51,-4282.49 L-6826.58,-4381.34 L-6944.82,-4469.03 L-7071.08,-4544.71 L-7204.15,-4607.64 L-7342.75,-4657.24 L-7485.54,-4693 L-7631.15,-4714.6 L-7778.17,-4721.83 L-7925.2,-4714.6 L-8070.81,-4693 L-8213.6,-4657.24 L-8352.2,-4607.64 L-8485.27,-4544.71 L-8611.53,-4469.03 L-8729.76,-4381.34 L-8838.83,-4282.49 L-8937.69,-4173.42 L-9025.38,-4055.18 L-9101.06,-3928.92 L-9163.99,-3795.85 L-9213.59,-3657.25 L-9249.35,-3514.46 L-9270.95,-3368.85 L-9278.17,-3221.83 L-9270.95,-3074.8 L-9249.35,-2929.19 L-9213.59,-2786.4 L-9163.99,-2647.8 L-9101.06,-2514.73 L-9025.38,-2388.47 L-8937.69,-2270.24 L-8838.83,-2161.17 L-8729.76,-2062.31 L-8611.53,-1974.62 L-8485.27,-1898.94 L-8352.2,-1836.01 L-8213.6,-1786.41 L-8070.81,-1750.65 L-7925.2,-1729.05 L-7778.17,-1721.83 L-7631.15,-1729.05 L-7485.54,-1750.65 L-7342.75,-1786.41 L-7204.15,-1836.01 L-7071.08,-1898.94 L-6944.82,-1974.62 L-6826.58,-2062.31 L-6717.51,-2161.17 L-6618.66,-2270.24 L-6530.97,-2388.47 L-6455.29,-2514.73 L-6392.36,-2647.8 L-6342.76,-2786.4 L-6307,-2929.19 L-6285.4,-3074.8 L-6278.17,-3221.83"/>
</g>

<g fill="none" stroke="#000000" stroke-opacity="1" stroke-width="1" stroke-linecap="square" stroke-linejoin="bevel" transform="matrix(0.999975,0,0,-0.999975,11026.5,-1720.87)"
font-family="MS Shell Dlg 2" font-size="10.3125" font-weight="400" font-style="normal" 
>
</g>

<g fill="none" stroke="#000000" stroke-opacity="1" stroke-width="1" stroke-linecap="square" stroke-linejoin="bevel" transform="matrix(0.999975,0,0,-0.999975,11026.5,-1720.87)"
font-family="MS Shell Dlg 2" font-size="10.3125" font-weight="400" font-style="normal" 
>
</g>

<g fill="#333333" fill-opacity="0.2" stroke="#333333" stroke-opacity="1" stroke-width="1" stroke-linecap="round" stroke-linejoin="round" transform="matrix(0.999975,0,0,-0.999975,11026.5,-1720.87)"
font-family="MS Shell Dlg 2" font-size="10.3125" font-weight="400" font-style="normal" 
>
<path vector-effect="non-scaling-stroke" fill-rule="evenodd" d="M9278.17,-3221.83 L9270.95,-3368.85 L9249.35,-3514.46 L9213.59,-3657.25 L9163.99,-3795.85 L9101.06,-3928.92 L9025.38,-4055.18 L8937.69,-4173.42 L8838.83,-4282.49 L8729.76,-4381.34 L8611.53,-4469.03 L8485.27,-4544.71 L8352.2,-4607.64 L8213.6,-4657.24 L8070.81,-4693 L7925.2,-4714.6 L7778.17,-4721.83 L7631.15,-4714.6 L7485.54,-4693 L7342.75,-4657.24 L7204.15,-4607.64 L7071.08,-4544.71 L6944.82,-4469.03 L6826.58,-4381.34 L6717.51,-4282.49 L6618.66,-4173.42 L6530.97,-4055.18 L6455.29,-3928.92 L6392.36,-3795.85 L6342.76,-3657.25 L6307,-3514.46 L6285.4,-3368.85 L6278.17,-3221.83 L6285.4,-3074.8 L6307,-2929.19 L6342.76,-2786.4 L6392.36,-2647.8 L6455.29,-2514.73 L6530.97,-2388.47 L6618.66,-2270.24 L6717.51,-2161.17 L6826.58,-2062.31 L6944.82,-1974.62 L7071.08,-1898.94 L7204.15,-1836.01 L7342.75,-1786.41 L7485.54,-1750.65 L7631.15,-1729.05 L7778.17,-1721.83 L7925.2,-1729.05 L8070.81,-1750.65 L8213.6,-1786.41 L8352.2,-1836.01 L8485.27,-1898.94 L8611.53,-1974.62 L8729.76,-2062.31 L8838.83,-2161.17 L8937.69,-2270.24 L9025.38,-2388.47 L9101.06,-2514.73 L9163.99,-2647.8 L9213.59,-2786.4 L9249.35,-2929.19 L9270.95,-3074.8 L9278.17,-3221.83"/>
</g>

<g fill="none" stroke="#000000" stroke-opacity="1" stroke-width="1" stroke-linecap="square" stroke-linejoin="bevel" transform="matrix(0.999975,0,0,-0.999975,11026.5,-1720.87)"
font-family="MS Shell Dlg 2" font-size="10.3125" font-weight="400" font-style="normal" 
>
</g>

<g fill="none" stroke="#000000" stroke-opacity="1" stroke-width="1" stroke-linecap="square" stroke-linejoin="bevel" transform="matrix(1,0,0,-1,0,16279.2)"
font-family="MS Shell Dlg 2" font-size="10.3125" font-weight="400" font-style="normal" 
>
</g>
</g>
</svg>
