<?xml version="1.0" encoding="UTF-8" standalone="no"?>
<svg width="16933.6mm" height="32541.9mm"
 xmlns="http://www.w3.org/2000/svg" xmlns:xlink="http://www.w3.org/1999/xlink"  version="1.2" baseProfile="tiny">
<title>SVG Generator Example Drawing</title>
<desc>An SVG drawing created by the SVG Generator</desc>
<defs>
</defs>
<g fill="none" stroke="black" stroke-width="1" fill-rule="evenodd" stroke-linecap="square" stroke-linejoin="bevel" >

<g fill="none" stroke="#000000" stroke-opacity="1" stroke-width="1" stroke-linecap="square" stroke-linejoin="bevel" transform="matrix(1,0,0,-1,0,115307)"
font-family="MS Shell Dlg 2" font-size="10.3125" font-weight="400" font-style="normal" 
>
</g>

<g fill="none" stroke="#000000" stroke-opacity="1" stroke-width="1" stroke-linecap="square" stroke-linejoin="bevel" transform="matrix(1,0,0,-1,0,115307)"
font-family="MS Shell Dlg 2" font-size="10.3125" font-weight="400" font-style="normal" 
>
</g>

<g fill="none" stroke="#000000" stroke-opacity="1" stroke-width="1" stroke-linecap="square" stroke-linejoin="bevel" transform="matrix(0.999992,0,0,-0.999992,30000.2,71306.9)"
font-family="MS Shell Dlg 2" font-size="10.3125" font-weight="400" font-style="normal" 
>
</g>

<g fill="#ae5151" fill-opacity="0.2" stroke="#333333" stroke-opacity="1" stroke-width="1" stroke-linecap="round" stroke-linejoin="round" transform="matrix(0.999992,0,0,-0.999992,30000.2,71306.9)"
font-family="MS Shell Dlg 2" font-size="10.3125" font-weight="400" font-style="normal" 
>
<path vector-effect="non-scaling-stroke" fill-rule="evenodd" d="M-5000,-31025.1 L-4999.86,-31025 L-3008.11,-31025 L-3007.97,-31025.1 L-3007.97,-31499.9 L-3007.87,-31500 L3007.87,-31500 L3007.97,-31499.9 L3007.97,-31025.1 L3008.11,-31025 L4999.86,-31025 L5000,-31025.1 L5000,-38999.9 L4999.99,-39000 L4999.97,-39000 L4999.94,-39000.1 L0.143355,-43999.9 L0.0386874,-43999.9 L-0.0386874,-43999.9 L-0.143355,-43999.9 L-4999.94,-39000.1 L-4999.97,-39000 L-4999.99,-39000 L-5000,-38999.9 L-5000,-31025.1"/>
</g>

<g fill="none" stroke="#000000" stroke-opacity="1" stroke-width="1" stroke-linecap="square" stroke-linejoin="bevel" transform="matrix(0.999992,0,0,-0.999992,30000.2,71306.9)"
font-family="MS Shell Dlg 2" font-size="10.3125" font-weight="400" font-style="normal" 
>
</g>

<g fill="none" stroke="#000000" stroke-opacity="1" stroke-width="1" stroke-linecap="square" stroke-linejoin="bevel" transform="matrix(0.999992,0,0,-0.999992,30000.2,71306.9)"
font-family="MS Shell Dlg 2" font-size="10.3125" font-weight="400" font-style="normal" 
>
</g>

<g fill="#ae5151" fill-opacity="0.2" stroke="#333333" stroke-opacity="1" stroke-width="1" stroke-linecap="round" stroke-linejoin="round" transform="matrix(0.999992,0,0,-0.999992,30000.2,71306.9)"
font-family="MS Shell Dlg 2" font-size="10.3125" font-weight="400" font-style="normal" 
>
<path vector-effect="non-scaling-stroke" fill-rule="evenodd" d="M-2988.05,-30500.1 L-2988.15,-30500 L-4999.86,-30500 L-5000,-30499.9 L-5000,-26618.3 L-4999.86,-26618.2 L4999.86,-26618.2 L5000,-26618.3 L5000,-30499.9 L4999.86,-30500 L2988.15,-30500 L2988.05,-30500.1 L2988.05,-30974.9 L2987.91,-30975 L996.157,-30975 L996.016,-30974.9 L996.016,-30500.1 L995.916,-30500 L-995.916,-30500 L-996.016,-30500.1 L-996.016,-30974.9 L-996.157,-30975 L-2987.91,-30975 L-2988.05,-30974.9 L-2988.05,-30500.1"/>
</g>

<g fill="none" stroke="#000000" stroke-opacity="1" stroke-width="1" stroke-linecap="square" stroke-linejoin="bevel" transform="matrix(0.999992,0,0,-0.999992,30000.2,71306.9)"
font-family="MS Shell Dlg 2" font-size="10.3125" font-weight="400" font-style="normal" 
>
</g>

<g fill="none" stroke="#000000" stroke-opacity="1" stroke-width="1" stroke-linecap="square" stroke-linejoin="bevel" transform="matrix(0.999992,0,0,-0.999992,30000.2,71306.9)"
font-family="MS Shell Dlg 2" font-size="10.3125" font-weight="400" font-style="normal" 
>
</g>

<g fill="#ae5151" fill-opacity="0.2" stroke="#333333" stroke-opacity="1" stroke-width="1" stroke-linecap="round" stroke-linejoin="round" transform="matrix(0.999992,0,0,-0.999992,30000.2,71306.9)"
font-family="MS Shell Dlg 2" font-size="10.3125" font-weight="400" font-style="normal" 
>
<path vector-effect="non-scaling-stroke" fill-rule="evenodd" d="M-1396.44,-9568.01 L-1396.64,-9568.01 L-2008.6,-8956.04 L-2008.61,-8955.9 L-2008.48,-8955.87 L-1232.54,-9403.86 L-1232.51,-9404.08 L-1396.44,-9568.01"/>
</g>

<g fill="none" stroke="#000000" stroke-opacity="1" stroke-width="1" stroke-linecap="square" stroke-linejoin="bevel" transform="matrix(0.999992,0,0,-0.999992,30000.2,71306.9)"
font-family="MS Shell Dlg 2" font-size="10.3125" font-weight="400" font-style="normal" 
>
</g>

<g fill="none" stroke="#000000" stroke-opacity="1" stroke-width="1" stroke-linecap="square" stroke-linejoin="bevel" transform="matrix(0.999992,0,0,-0.999992,30000.2,71306.9)"
font-family="MS Shell Dlg 2" font-size="10.3125" font-weight="400" font-style="normal" 
>
</g>

<g fill="#ae5151" fill-opacity="0.2" stroke="#333333" stroke-opacity="1" stroke-width="1" stroke-linecap="round" stroke-linejoin="round" transform="matrix(0.999992,0,0,-0.999992,30000.2,71306.9)"
font-family="MS Shell Dlg 2" font-size="10.3125" font-weight="400" font-style="normal" 
>
<path vector-effect="non-scaling-stroke" fill-rule="evenodd" d="M1431.99,-9603.56 L1431.99,-9603.36 L2176.46,-8858.9 L2176.49,-8858.87 L2571.79,-8630.65 L2571.96,-8630.67 L2824.13,-8882.83 L2824.27,-8882.83 L3765.84,-7941.27 L3765.87,-7941.24 L3946.99,-7836.67 L3947.19,-7836.73 L4903.04,-9492.32 L4903.18,-9492.35 L5314.33,-9254.97 L5314.52,-9255.02 L5828.5,-10145.3 L5828.38,-10145.5 L1805.67,-10145.5 L1805.54,-10145.4 L1763.84,-10057.2 L1763.84,-10057.2 L1721.2,-9986.06 L1721.22,-9985.89 L1767.7,-9939.41 L1767.7,-9939.27 L1431.99,-9603.56"/>
</g>

<g fill="none" stroke="#000000" stroke-opacity="1" stroke-width="1" stroke-linecap="square" stroke-linejoin="bevel" transform="matrix(0.999992,0,0,-0.999992,30000.2,71306.9)"
font-family="MS Shell Dlg 2" font-size="10.3125" font-weight="400" font-style="normal" 
>
</g>

<g fill="none" stroke="#000000" stroke-opacity="1" stroke-width="1" stroke-linecap="square" stroke-linejoin="bevel" transform="matrix(0.999992,0,0,-0.999992,30000.2,71306.9)"
font-family="MS Shell Dlg 2" font-size="10.3125" font-weight="400" font-style="normal" 
>
</g>

<g fill="#ae5151" fill-opacity="0.2" stroke="#333333" stroke-opacity="1" stroke-width="1" stroke-linecap="round" stroke-linejoin="round" transform="matrix(0.999992,0,0,-0.999992,30000.2,71306.9)"
font-family="MS Shell Dlg 2" font-size="10.3125" font-weight="400" font-style="normal" 
>
<path vector-effect="non-scaling-stroke" fill-rule="evenodd" d="M5049.99,-7199.86 L5050.01,-7199.84 L5059.83,-7191.23 L5059.84,-7191.22 L5070.69,-7183.97 L5070.72,-7183.94 L5074.36,-7178.49 L5074.39,-7178.46 L5079.32,-7174.14 L5079.34,-7174.11 L5085.12,-7162.4 L5085.13,-7162.38 L5092.38,-7151.53 L5092.39,-7151.5 L5093.67,-7145.07 L5093.68,-7145.03 L5096.58,-7139.15 L5096.59,-7139.11 L5097.45,-7126.09 L5097.45,-7126.07 L5100,-7113.26 L5100,-7113.24 L5100,-6607.17 L5100.04,-6607.06 L6014.56,-5692.54 L6014.56,-5692.4 L5678.86,-5356.7 L5678.86,-5356.5 L6630.03,-4405.32 L6630.21,-4405.3 L6763.56,-4482.3 L6763.64,-4482.42 L6763.64,-10145.3 L6763.49,-10145.5 L6434.92,-10145.5 L6434.79,-10145.4 L5759.21,-8975.24 L5759.07,-8975.2 L5347.92,-9212.58 L5347.72,-9212.53 L4401.85,-7574.23 L4401.9,-7574.03 L4813.14,-7336.6 L5049.99,-7199.86"/>
</g>

<g fill="none" stroke="#000000" stroke-opacity="1" stroke-width="1" stroke-linecap="square" stroke-linejoin="bevel" transform="matrix(0.999992,0,0,-0.999992,30000.2,71306.9)"
font-family="MS Shell Dlg 2" font-size="10.3125" font-weight="400" font-style="normal" 
>
</g>

<g fill="none" stroke="#000000" stroke-opacity="1" stroke-width="1" stroke-linecap="square" stroke-linejoin="bevel" transform="matrix(0.999992,0,0,-0.999992,30000.2,71306.9)"
font-family="MS Shell Dlg 2" font-size="10.3125" font-weight="400" font-style="normal" 
>
</g>

<g fill="#ae5151" fill-opacity="0.2" stroke="#333333" stroke-opacity="1" stroke-width="1" stroke-linecap="round" stroke-linejoin="round" transform="matrix(0.999992,0,0,-0.999992,30000.2,71306.9)"
font-family="MS Shell Dlg 2" font-size="10.3125" font-weight="400" font-style="normal" 
>
<path vector-effect="non-scaling-stroke" fill-rule="evenodd" d="M-5304.37,-9237.72 L-5304.42,-9237.53 L-4358.55,-7599.23 L-4358.35,-7599.17 L-3947.11,-7836.6 L-2585.44,-8622.77 L-2585.41,-8622.98 L-2834.7,-8872.27 L-2834.7,-8872.41 L-1721.22,-9985.89 L-1721.2,-9986.06 L-1763.84,-10057.2 L-1763.84,-10057.2 L-1805.54,-10145.4 L-1805.67,-10145.5 L-5279.9,-10145.5 L-5280.02,-10145.3 L-4893.18,-9475.24 L-4893.22,-9475.1 L-5304.37,-9237.72"/>
</g>

<g fill="none" stroke="#000000" stroke-opacity="1" stroke-width="1" stroke-linecap="square" stroke-linejoin="bevel" transform="matrix(0.999992,0,0,-0.999992,30000.2,71306.9)"
font-family="MS Shell Dlg 2" font-size="10.3125" font-weight="400" font-style="normal" 
>
</g>

<g fill="none" stroke="#000000" stroke-opacity="1" stroke-width="1" stroke-linecap="square" stroke-linejoin="bevel" transform="matrix(0.999992,0,0,-0.999992,30000.2,71306.9)"
font-family="MS Shell Dlg 2" font-size="10.3125" font-weight="400" font-style="normal" 
>
</g>

<g fill="#ae5151" fill-opacity="0.2" stroke="#333333" stroke-opacity="1" stroke-width="1" stroke-linecap="round" stroke-linejoin="round" transform="matrix(0.999992,0,0,-0.999992,30000.2,71306.9)"
font-family="MS Shell Dlg 2" font-size="10.3125" font-weight="400" font-style="normal" 
>
<path vector-effect="non-scaling-stroke" fill-rule="evenodd" d="M-3778.22,-7703.17 L-3778.25,-7702.96 L-3555.42,-7480.13 L-3555.22,-7480.13 L-2723.45,-8311.91 L-2723.44,-8312.05 L-2723.57,-8312.07 L-3778.22,-7703.17"/>
</g>

<g fill="none" stroke="#000000" stroke-opacity="1" stroke-width="1" stroke-linecap="square" stroke-linejoin="bevel" transform="matrix(0.999992,0,0,-0.999992,30000.2,71306.9)"
font-family="MS Shell Dlg 2" font-size="10.3125" font-weight="400" font-style="normal" 
>
</g>

<g fill="none" stroke="#000000" stroke-opacity="1" stroke-width="1" stroke-linecap="square" stroke-linejoin="bevel" transform="matrix(0.999992,0,0,-0.999992,30000.2,71306.9)"
font-family="MS Shell Dlg 2" font-size="10.3125" font-weight="400" font-style="normal" 
>
</g>

<g fill="#ae5151" fill-opacity="0.2" stroke="#333333" stroke-opacity="1" stroke-width="1" stroke-linecap="round" stroke-linejoin="round" transform="matrix(0.999992,0,0,-0.999992,30000.2,71306.9)"
font-family="MS Shell Dlg 2" font-size="10.3125" font-weight="400" font-style="normal" 
>
<path vector-effect="non-scaling-stroke" fill-rule="evenodd" d="M-6218.18,-5489.2 L-6218.11,-5489.09 L-6217.99,-5489.12 L-6004.14,-5702.97 L-6004,-5702.97 L-5668.29,-5367.26 L-5668.09,-5367.26 L-5100.04,-5935.31 L-5100,-5935.42 L-5100,-7113.24 L-5100,-7113.26 L-5097.45,-7126.07 L-5097.45,-7126.09 L-5096.59,-7139.11 L-5096.58,-7139.15 L-5093.68,-7145.03 L-5093.67,-7145.07 L-5092.39,-7151.5 L-5092.38,-7151.53 L-5085.13,-7162.38 L-5085.12,-7162.4 L-5079.34,-7174.11 L-5079.32,-7174.14 L-5074.39,-7178.46 L-5074.36,-7178.49 L-5070.72,-7183.94 L-5070.69,-7183.97 L-5059.84,-7191.22 L-5059.83,-7191.23 L-5050.01,-7199.84 L-5049.99,-7199.86 L-4813.26,-7336.53 L-4813.21,-7336.73 L-5769.07,-8992.32 L-5769.03,-8992.45 L-5357.88,-9229.83 L-5357.82,-9230.02 L-5886.31,-10145.4 L-5886.43,-10145.5 L-6218.04,-10145.5 L-6218.18,-10145.3 L-6218.18,-5489.2"/>
</g>

<g fill="none" stroke="#000000" stroke-opacity="1" stroke-width="1" stroke-linecap="square" stroke-linejoin="bevel" transform="matrix(0.999992,0,0,-0.999992,30000.2,71306.9)"
font-family="MS Shell Dlg 2" font-size="10.3125" font-weight="400" font-style="normal" 
>
</g>

<g fill="none" stroke="#000000" stroke-opacity="1" stroke-width="1" stroke-linecap="square" stroke-linejoin="bevel" transform="matrix(0.999992,0,0,-0.999992,30000.2,71306.9)"
font-family="MS Shell Dlg 2" font-size="10.3125" font-weight="400" font-style="normal" 
>
</g>

<g fill="#ae5151" fill-opacity="0.2" stroke="#333333" stroke-opacity="1" stroke-width="1" stroke-linecap="round" stroke-linejoin="round" transform="matrix(0.999992,0,0,-0.999992,30000.2,71306.9)"
font-family="MS Shell Dlg 2" font-size="10.3125" font-weight="400" font-style="normal" 
>
<path vector-effect="non-scaling-stroke" fill-rule="evenodd" d="M-4900,-6135.63 L-4899.93,-6135.52 L-4899.81,-6135.55 L-4611.86,-6423.5 L-4611.86,-6423.7 L-4899.78,-6711.62 L-4900,-6711.53 L-4900,-6135.63"/>
</g>

<g fill="none" stroke="#000000" stroke-opacity="1" stroke-width="1" stroke-linecap="square" stroke-linejoin="bevel" transform="matrix(0.999992,0,0,-0.999992,30000.2,71306.9)"
font-family="MS Shell Dlg 2" font-size="10.3125" font-weight="400" font-style="normal" 
>
</g>

<g fill="none" stroke="#000000" stroke-opacity="1" stroke-width="1" stroke-linecap="square" stroke-linejoin="bevel" transform="matrix(0.999992,0,0,-0.999992,30000.2,71306.9)"
font-family="MS Shell Dlg 2" font-size="10.3125" font-weight="400" font-style="normal" 
>
</g>

<g fill="#ae5151" fill-opacity="0.2" stroke="#333333" stroke-opacity="1" stroke-width="1" stroke-linecap="round" stroke-linejoin="round" transform="matrix(0.999992,0,0,-0.999992,30000.2,71306.9)"
font-family="MS Shell Dlg 2" font-size="10.3125" font-weight="400" font-style="normal" 
>
<path vector-effect="non-scaling-stroke" fill-rule="evenodd" d="M5100,-3721.97 L5100.14,-3721.83 L6365.77,-3721.83 L6365.9,-3721.92 L6392.35,-3795.85 L6392.36,-3795.85 L6425.93,-3866.83 L6425.9,-3867 L5297.03,-4995.86 L5297.03,-4996 L5632.74,-5331.71 L5632.74,-5331.91 L5100.22,-5864.43 L5100,-5864.34 L5100,-3721.97"/>
</g>

<g fill="none" stroke="#000000" stroke-opacity="1" stroke-width="1" stroke-linecap="square" stroke-linejoin="bevel" transform="matrix(0.999992,0,0,-0.999992,30000.2,71306.9)"
font-family="MS Shell Dlg 2" font-size="10.3125" font-weight="400" font-style="normal" 
>
</g>

<g fill="none" stroke="#000000" stroke-opacity="1" stroke-width="1" stroke-linecap="square" stroke-linejoin="bevel" transform="matrix(0.999992,0,0,-0.999992,30000.2,71306.9)"
font-family="MS Shell Dlg 2" font-size="10.3125" font-weight="400" font-style="normal" 
>
</g>

<g fill="#ae5151" fill-opacity="0.2" stroke="#333333" stroke-opacity="1" stroke-width="1" stroke-linecap="round" stroke-linejoin="round" transform="matrix(0.999992,0,0,-0.999992,30000.2,71306.9)"
font-family="MS Shell Dlg 2" font-size="10.3125" font-weight="400" font-style="normal" 
>
<path vector-effect="non-scaling-stroke" fill-rule="evenodd" d="M-5643.3,-5321.14 L-5643.5,-5321.14 L-6218.14,-4746.51 L-6218.18,-4746.4 L-6218.18,-4167.5 L-6218.11,-4167.38 L-5446.43,-3721.85 L-5446.35,-3721.83 L-5100.14,-3721.83 L-5100,-3721.97 L-5100,-5192.62 L-5100.07,-5192.73 L-5100.19,-5192.7 L-5307.46,-4985.44 L-5307.6,-4985.44 L-5643.3,-5321.14"/>
</g>

<g fill="none" stroke="#000000" stroke-opacity="1" stroke-width="1" stroke-linecap="square" stroke-linejoin="bevel" transform="matrix(0.999992,0,0,-0.999992,30000.2,71306.9)"
font-family="MS Shell Dlg 2" font-size="10.3125" font-weight="400" font-style="normal" 
>
</g>

<g fill="none" stroke="#000000" stroke-opacity="1" stroke-width="1" stroke-linecap="square" stroke-linejoin="bevel" transform="matrix(0.999992,0,0,-0.999992,30000.2,71306.9)"
font-family="MS Shell Dlg 2" font-size="10.3125" font-weight="400" font-style="normal" 
>
</g>

<g fill="#ae5151" fill-opacity="0.2" stroke="#333333" stroke-opacity="1" stroke-width="1" stroke-linecap="round" stroke-linejoin="round" transform="matrix(0.999992,0,0,-0.999992,30000.2,71306.9)"
font-family="MS Shell Dlg 2" font-size="10.3125" font-weight="400" font-style="normal" 
>
<path vector-effect="non-scaling-stroke" fill-rule="evenodd" d="M-4900,-6807.38 L-4899.93,-6807.27 L-4899.81,-6807.3 L-4614.07,-7093.04 L-4614.1,-7093.26 L-4634.49,-7103.31 L-4634.52,-7103.34 L-4695.84,-7173.25 L-4696.02,-7173.28 L-4899.93,-7055.56 L-4900,-7055.43 L-4900,-6807.38"/>
</g>

<g fill="none" stroke="#000000" stroke-opacity="1" stroke-width="1" stroke-linecap="square" stroke-linejoin="bevel" transform="matrix(0.999992,0,0,-0.999992,30000.2,71306.9)"
font-family="MS Shell Dlg 2" font-size="10.3125" font-weight="400" font-style="normal" 
>
</g>

<g fill="none" stroke="#000000" stroke-opacity="1" stroke-width="1" stroke-linecap="square" stroke-linejoin="bevel" transform="matrix(0.999992,0,0,-0.999992,30000.2,71306.9)"
font-family="MS Shell Dlg 2" font-size="10.3125" font-weight="400" font-style="normal" 
>
</g>

<g fill="#ae5151" fill-opacity="0.2" stroke="#333333" stroke-opacity="1" stroke-width="1" stroke-linecap="round" stroke-linejoin="round" transform="matrix(0.999992,0,0,-0.999992,30000.2,71306.9)"
font-family="MS Shell Dlg 2" font-size="10.3125" font-weight="400" font-style="normal" 
>
<path vector-effect="non-scaling-stroke" fill-rule="evenodd" d="M4614.1,-7093.26 L4614.07,-7093.04 L4899.81,-6807.3 L4899.93,-6807.27 L4900,-6807.38 L4900,-7055.43 L4899.93,-7055.56 L4696.02,-7173.28 L4695.84,-7173.25 L4634.52,-7103.34 L4634.49,-7103.31 L4614.1,-7093.26"/>
</g>

<g fill="none" stroke="#000000" stroke-opacity="1" stroke-width="1" stroke-linecap="square" stroke-linejoin="bevel" transform="matrix(0.999992,0,0,-0.999992,30000.2,71306.9)"
font-family="MS Shell Dlg 2" font-size="10.3125" font-weight="400" font-style="normal" 
>
</g>

<g fill="none" stroke="#000000" stroke-opacity="1" stroke-width="1" stroke-linecap="square" stroke-linejoin="bevel" transform="matrix(0.999992,0,0,-0.999992,30000.2,71306.9)"
font-family="MS Shell Dlg 2" font-size="10.3125" font-weight="400" font-style="normal" 
>
</g>

<g fill="#ae5151" fill-opacity="0.2" stroke="#333333" stroke-opacity="1" stroke-width="1" stroke-linecap="round" stroke-linejoin="round" transform="matrix(0.999992,0,0,-0.999992,30000.2,71306.9)"
font-family="MS Shell Dlg 2" font-size="10.3125" font-weight="400" font-style="normal" 
>
<path vector-effect="non-scaling-stroke" fill-rule="evenodd" d="M-4750.01,-3319.77 L-4749.99,-3319.76 L-4666.87,-3246.86 L-4666.77,-3246.83 L-3764.54,-3246.83 L-3764.4,-3246.97 L-3764.4,-3721.73 L-3764.3,-3721.83 L-2513.87,-3721.83 L-2513.77,-3721.73 L-2513.77,-3246.97 L-2513.63,-3246.83 L-1263.28,-3246.83 L-1263.14,-3246.97 L-1263.14,-3721.73 L-1263.04,-3721.83 L1263.04,-3721.83 L1263.14,-3721.73 L1263.14,-3246.97 L1263.28,-3246.83 L2513.63,-3246.83 L2513.77,-3246.97 L2513.77,-3721.73 L2513.87,-3721.83 L3764.3,-3721.83 L3764.4,-3721.73 L3764.4,-3246.97 L3764.54,-3246.83 L4666.77,-3246.83 L4666.87,-3246.86 L4749.91,-3319.68 L4750.06,-3319.66 L4792.07,-3246.9 L4792.2,-3246.83 L4899.86,-3246.83 L4900,-3246.97 L4900,-6064.58 L4899.96,-6064.69 L4576.5,-6388.14 L4576.3,-6388.14 L4240.6,-6052.44 L4240.46,-6052.44 L3184.16,-7108.73 L3184.16,-7108.87 L3519.87,-7444.58 L3519.87,-7444.78 L2555.59,-8409.05 L2555.56,-8409.08 L2438.97,-8476.39 L2438.79,-8476.37 L2127.73,-8165.3 L2127.59,-8165.3 L1014.11,-9278.78 L1013.94,-9278.8 L942.798,-9236.16 L942.789,-9236.16 L765.371,-9152.24 L765.362,-9152.24 L580.574,-9086.12 L580.565,-9086.12 L390.185,-9038.43 L390.176,-9038.43 L196.039,-9009.63 L196.029,-9009.63 L0.00490677,-9000 L-0.00490677,-9000 L-196.029,-9009.63 L-196.039,-9009.63 L-390.176,-9038.43 L-390.185,-9038.43 L-580.565,-9086.12 L-580.574,-9086.12 L-765.362,-9152.24 L-765.371,-9152.24 L-942.789,-9236.16 L-942.798,-9236.16 L-1013.94,-9278.8 L-1014.11,-9278.78 L-1060.59,-9232.3 L-1060.73,-9232.3 L-1085.89,-9257.47 L-1086.07,-9257.49 L-2425.32,-8484.27 L-2425.35,-8484.05 L-2117.17,-8175.87 L-2117.17,-8175.73 L-4899.96,-5392.94 L-4900,-5392.83 L-4900,-3406.45 L-4899.93,-3406.32 L-4750.01,-3319.77"/>
</g>

<g fill="none" stroke="#000000" stroke-opacity="1" stroke-width="1" stroke-linecap="square" stroke-linejoin="bevel" transform="matrix(0.999992,0,0,-0.999992,30000.2,71306.9)"
font-family="MS Shell Dlg 2" font-size="10.3125" font-weight="400" font-style="normal" 
>
</g>

<g fill="none" stroke="#000000" stroke-opacity="1" stroke-width="1" stroke-linecap="square" stroke-linejoin="bevel" transform="matrix(0.999992,0,0,-0.999992,30000.2,71306.9)"
font-family="MS Shell Dlg 2" font-size="10.3125" font-weight="400" font-style="normal" 
>
</g>

<g fill="#ae5151" fill-opacity="0.2" stroke="#333333" stroke-opacity="1" stroke-width="1" stroke-linecap="round" stroke-linejoin="round" transform="matrix(0.999992,0,0,-0.999992,30000.2,71306.9)"
font-family="MS Shell Dlg 2" font-size="10.3125" font-weight="400" font-style="normal" 
>
<path vector-effect="non-scaling-stroke" fill-rule="evenodd" d="M-30000,3146.07 L-30000,3620.93 L-29999.9,3621.07 L-27216.5,3621.07 L-27216.4,3620.93 L-27216.4,3146.17 L-27216.3,3146.07 L-18810,3146.07 L-18809.9,3146.17 L-18809.9,3620.93 L-18809.7,3621.07 L-16026.4,3621.07 L-16026.3,3620.93 L-16026.3,646.271 L-16026.3,646.166 L-16026.4,646.111 L-16026.5,646.068 L-29999.8,646.068 L-29999.9,646.111 L-30000,646.166 L-30000,646.271 L-30000,3146.07"/>
</g>

<g fill="none" stroke="#000000" stroke-opacity="1" stroke-width="1" stroke-linecap="square" stroke-linejoin="bevel" transform="matrix(0.999992,0,0,-0.999992,30000.2,71306.9)"
font-family="MS Shell Dlg 2" font-size="10.3125" font-weight="400" font-style="normal" 
>
</g>

<g fill="none" stroke="#000000" stroke-opacity="1" stroke-width="1" stroke-linecap="square" stroke-linejoin="bevel" transform="matrix(0.999992,0,0,-0.999992,30000.2,71306.9)"
font-family="MS Shell Dlg 2" font-size="10.3125" font-weight="400" font-style="normal" 
>
</g>

<g fill="#ae5151" fill-opacity="0.2" stroke="#333333" stroke-opacity="1" stroke-width="1" stroke-linecap="round" stroke-linejoin="round" transform="matrix(0.999992,0,0,-0.999992,30000.2,71306.9)"
font-family="MS Shell Dlg 2" font-size="10.3125" font-weight="400" font-style="normal" 
>
<path vector-effect="non-scaling-stroke" fill-rule="evenodd" d="M-27188.6,4145.97 L-27188.7,4146.07 L-29999.9,4146.07 L-30000,4146.21 L-30000,6545.31 L-29999.9,6545.45 L-16026.4,6545.45 L-16026.3,6545.31 L-16026.3,4146.21 L-16026.4,4146.07 L-18837.6,4146.07 L-18837.7,4145.97 L-18837.7,3671.21 L-18837.9,3671.07 L-21621.2,3671.07 L-21621.3,3671.21 L-21621.3,4145.97 L-21621.4,4146.07 L-24404.8,4146.07 L-24404.9,4145.97 L-24404.9,3671.21 L-24405.1,3671.07 L-26260.7,3671.07 L-27188.4,3671.07 L-27188.6,3671.21 L-27188.6,4145.97"/>
</g>

<g fill="none" stroke="#000000" stroke-opacity="1" stroke-width="1" stroke-linecap="square" stroke-linejoin="bevel" transform="matrix(0.999992,0,0,-0.999992,30000.2,71306.9)"
font-family="MS Shell Dlg 2" font-size="10.3125" font-weight="400" font-style="normal" 
>
</g>

<g fill="none" stroke="#000000" stroke-opacity="1" stroke-width="1" stroke-linecap="square" stroke-linejoin="bevel" transform="matrix(0.999992,0,0,-0.999992,30000.2,71306.9)"
font-family="MS Shell Dlg 2" font-size="10.3125" font-weight="400" font-style="normal" 
>
</g>

<g fill="#ae5151" fill-opacity="0.2" stroke="#333333" stroke-opacity="1" stroke-width="1" stroke-linecap="round" stroke-linejoin="round" transform="matrix(0.999992,0,0,-0.999992,30000.2,71306.9)"
font-family="MS Shell Dlg 2" font-size="10.3125" font-weight="400" font-style="normal" 
>
<path vector-effect="non-scaling-stroke" fill-rule="evenodd" d="M18837.7,4145.97 L18837.6,4146.07 L16026.4,4146.07 L16026.3,4146.21 L16026.3,8072.59 L16026.4,8072.73 L29999.9,8072.73 L30000,8072.59 L30000,4146.21 L29999.9,4146.07 L27188.7,4146.07 L27188.6,4145.97 L27188.6,3671.21 L27188.4,3671.07 L24405.1,3671.07 L24404.9,3671.21 L24404.9,4145.97 L24404.8,4146.07 L21621.4,4146.07 L21621.3,4145.97 L21621.3,3671.21 L21621.2,3671.07 L19765.6,3671.07 L18837.9,3671.07 L18837.7,3671.21 L18837.7,4145.97"/>
</g>

<g fill="none" stroke="#000000" stroke-opacity="1" stroke-width="1" stroke-linecap="square" stroke-linejoin="bevel" transform="matrix(0.999992,0,0,-0.999992,30000.2,71306.9)"
font-family="MS Shell Dlg 2" font-size="10.3125" font-weight="400" font-style="normal" 
>
</g>

<g fill="none" stroke="#000000" stroke-opacity="1" stroke-width="1" stroke-linecap="square" stroke-linejoin="bevel" transform="matrix(0.999992,0,0,-0.999992,30000.2,71306.9)"
font-family="MS Shell Dlg 2" font-size="10.3125" font-weight="400" font-style="normal" 
>
</g>

<g fill="#ae5151" fill-opacity="0.2" stroke="#333333" stroke-opacity="1" stroke-width="1" stroke-linecap="round" stroke-linejoin="round" transform="matrix(0.999992,0,0,-0.999992,30000.2,71306.9)"
font-family="MS Shell Dlg 2" font-size="10.3125" font-weight="400" font-style="normal" 
>
<path vector-effect="non-scaling-stroke" fill-rule="evenodd" d="M-10316.3,37533 L-10316.4,37533 L-10374.8,37494 L-10375,37494.1 L-10375,43970.9 L-10374.9,43971.1 L10374.9,43971.1 L10375,43970.9 L10375,37494.1 L10374.8,37494 L10316.4,37533 L10316.3,37533 L10125.1,37571 L10125,37570.9 L10125,37096.2 L10124.9,37096.1 L8133.11,37096.1 L8132.97,37096.2 L8132.97,37571 L8132.87,37571.1 L2117.13,37571.1 L2117.03,37571 L2117.03,37096.2 L2116.89,37096.1 L125.141,37096.1 L125,37096.2 L125,37570.9 L124.88,37571 L0.0291689,37546.2 L-0.0291689,37546.2 L-124.88,37571 L-125,37570.9 L-125,37096.2 L-125.141,37096.1 L-2116.89,37096.1 L-2117.03,37096.2 L-2117.03,37571 L-2117.13,37571.1 L-8132.87,37571.1 L-8132.97,37571 L-8132.97,37096.2 L-8133.11,37096.1 L-10124.9,37096.1 L-10125,37096.2 L-10125,37570.9 L-10125.1,37571 L-10316.3,37533"/>
</g>

<g fill="none" stroke="#000000" stroke-opacity="1" stroke-width="1" stroke-linecap="square" stroke-linejoin="bevel" transform="matrix(0.999992,0,0,-0.999992,30000.2,71306.9)"
font-family="MS Shell Dlg 2" font-size="10.3125" font-weight="400" font-style="normal" 
>
</g>

<g fill="none" stroke="#000000" stroke-opacity="1" stroke-width="1" stroke-linecap="square" stroke-linejoin="bevel" transform="matrix(0.999992,0,0,-0.999992,30000.2,71306.9)"
font-family="MS Shell Dlg 2" font-size="10.3125" font-weight="400" font-style="normal" 
>
</g>

<g fill="#ae5151" fill-opacity="0.2" stroke="#333333" stroke-opacity="1" stroke-width="1" stroke-linecap="round" stroke-linejoin="round" transform="matrix(0.999992,0,0,-0.999992,30000.2,71306.9)"
font-family="MS Shell Dlg 2" font-size="10.3125" font-weight="400" font-style="normal" 
>
<path vector-effect="non-scaling-stroke" fill-rule="evenodd" d="M16026.3,3620.93 L16026.4,3621.07 L18809.7,3621.07 L18809.9,3620.93 L18809.9,3146.17 L18810,3146.07 L27216.3,3146.07 L27216.4,3146.17 L27216.4,3620.93 L27216.5,3621.07 L29999.9,3621.07 L30000,3620.93 L30000,3146.07 L30000,646.271 L30000,646.166 L29999.9,646.111 L29999.8,646.068 L16026.5,646.068 L16026.4,646.111 L16026.3,646.166 L16026.3,646.271 L16026.3,3620.93"/>
</g>

<g fill="none" stroke="#000000" stroke-opacity="1" stroke-width="1" stroke-linecap="square" stroke-linejoin="bevel" transform="matrix(0.999992,0,0,-0.999992,30000.2,71306.9)"
font-family="MS Shell Dlg 2" font-size="10.3125" font-weight="400" font-style="normal" 
>
</g>

<g fill="none" stroke="#000000" stroke-opacity="1" stroke-width="1" stroke-linecap="square" stroke-linejoin="bevel" transform="matrix(0.999992,0,0,-0.999992,30000.2,71306.9)"
font-family="MS Shell Dlg 2" font-size="10.3125" font-weight="400" font-style="normal" 
>
</g>

<g fill="#ae5151" fill-opacity="0.2" stroke="#333333" stroke-opacity="1" stroke-width="1" stroke-linecap="round" stroke-linejoin="round" transform="matrix(0.999992,0,0,-0.999992,30000.2,71306.9)"
font-family="MS Shell Dlg 2" font-size="10.3125" font-weight="400" font-style="normal" 
>
<path vector-effect="non-scaling-stroke" fill-rule="evenodd" d="M-10467.4,44109.4 L-10467.4,44109.3 L-10475,44071.2 L-10475.1,44071.1 L-12545.3,44071.1 L-12545.5,44071.2 L-12545.5,46398.6 L-12545.3,46398.8 L12436.2,46398.8 L12436.4,46398.6 L12436.4,44071.2 L12436.2,44071.1 L10475.1,44071.1 L10475,44071.2 L10467.4,44109.3 L10467.4,44109.4 L10445.7,44141.8 L10445.7,44141.8 L10413.3,44163.4 L10413.2,44163.5 L10375,44171.1 L10375,44171.1 L-10375,44171.1 L-10375,44171.1 L-10413.2,44163.5 L-10413.3,44163.4 L-10445.7,44141.8 L-10445.7,44141.8 L-10467.4,44109.4"/>
</g>

<g fill="none" stroke="#000000" stroke-opacity="1" stroke-width="1" stroke-linecap="square" stroke-linejoin="bevel" transform="matrix(0.999992,0,0,-0.999992,30000.2,71306.9)"
font-family="MS Shell Dlg 2" font-size="10.3125" font-weight="400" font-style="normal" 
>
</g>

<g fill="none" stroke="#000000" stroke-opacity="1" stroke-width="1" stroke-linecap="square" stroke-linejoin="bevel" transform="matrix(0.999992,0,0,-0.999992,30000.2,71306.9)"
font-family="MS Shell Dlg 2" font-size="10.3125" font-weight="400" font-style="normal" 
>
</g>

<g fill="#ae5151" fill-opacity="0.2" stroke="#333333" stroke-opacity="1" stroke-width="1" stroke-linecap="round" stroke-linejoin="round" transform="matrix(0.999992,0,0,-0.999992,30000.2,71306.9)"
font-family="MS Shell Dlg 2" font-size="10.3125" font-weight="400" font-style="normal" 
>
<path vector-effect="non-scaling-stroke" fill-rule="evenodd" d="M-29999.9,66294.1 L-30000,66294.3 L-30000,67805.9 L-29999.9,67806.1 L-27188.6,67806.1 L-24404.9,67806.1 L-21621.3,67806.1 L-18837.7,67806.1 L-16026.4,67806.1 L-16026.3,67805.9 L-16026.3,66294.3 L-16026.4,66294.1 L-29999.9,66294.1"/>
</g>

<g fill="none" stroke="#000000" stroke-opacity="1" stroke-width="1" stroke-linecap="square" stroke-linejoin="bevel" transform="matrix(0.999992,0,0,-0.999992,30000.2,71306.9)"
font-family="MS Shell Dlg 2" font-size="10.3125" font-weight="400" font-style="normal" 
>
</g>

<g fill="none" stroke="#000000" stroke-opacity="1" stroke-width="1" stroke-linecap="square" stroke-linejoin="bevel" transform="matrix(0.999992,0,0,-0.999992,30000.2,71306.9)"
font-family="MS Shell Dlg 2" font-size="10.3125" font-weight="400" font-style="normal" 
>
</g>

<g fill="#ae5151" fill-opacity="0.2" stroke="#333333" stroke-opacity="1" stroke-width="1" stroke-linecap="round" stroke-linejoin="round" transform="matrix(0.999992,0,0,-0.999992,30000.2,71306.9)"
font-family="MS Shell Dlg 2" font-size="10.3125" font-weight="400" font-style="normal" 
>
<path vector-effect="non-scaling-stroke" fill-rule="evenodd" d="M16026.4,68806.1 L16026.3,68806.2 L16026.3,71305.9 L16026.3,71306 L16026.4,71306 L16026.5,71306.1 L29999.8,71306.1 L29999.9,71306 L30000,71306 L30000,71305.9 L30000,68806.2 L29999.9,68806.1 L27188.6,68806.1 L24404.9,68806.1 L21621.3,68806.1 L18837.7,68806.1 L16026.4,68806.1"/>
</g>

<g fill="none" stroke="#000000" stroke-opacity="1" stroke-width="1" stroke-linecap="square" stroke-linejoin="bevel" transform="matrix(0.999992,0,0,-0.999992,30000.2,71306.9)"
font-family="MS Shell Dlg 2" font-size="10.3125" font-weight="400" font-style="normal" 
>
</g>

<g fill="none" stroke="#000000" stroke-opacity="1" stroke-width="1" stroke-linecap="square" stroke-linejoin="bevel" transform="matrix(0.999992,0,0,-0.999992,30000.2,71306.9)"
font-family="MS Shell Dlg 2" font-size="10.3125" font-weight="400" font-style="normal" 
>
</g>

<g fill="#ae5151" fill-opacity="0.2" stroke="#333333" stroke-opacity="1" stroke-width="1" stroke-linecap="round" stroke-linejoin="round" transform="matrix(0.999992,0,0,-0.999992,30000.2,71306.9)"
font-family="MS Shell Dlg 2" font-size="10.3125" font-weight="400" font-style="normal" 
>
<path vector-effect="non-scaling-stroke" fill-rule="evenodd" d="M16026.4,64155.6 L16026.3,64155.7 L16026.3,67805.9 L16026.4,67806.1 L18837.7,67806.1 L21621.3,67806.1 L24404.9,67806.1 L27188.6,67806.1 L29999.9,67806.1 L30000,67805.9 L30000,64155.7 L29999.9,64155.6 L16026.4,64155.6"/>
</g>

<g fill="none" stroke="#000000" stroke-opacity="1" stroke-width="1" stroke-linecap="square" stroke-linejoin="bevel" transform="matrix(0.999992,0,0,-0.999992,30000.2,71306.9)"
font-family="MS Shell Dlg 2" font-size="10.3125" font-weight="400" font-style="normal" 
>
</g>

<g fill="none" stroke="#000000" stroke-opacity="1" stroke-width="1" stroke-linecap="square" stroke-linejoin="bevel" transform="matrix(0.999992,0,0,-0.999992,30000.2,71306.9)"
font-family="MS Shell Dlg 2" font-size="10.3125" font-weight="400" font-style="normal" 
>
</g>

<g fill="#ae5151" fill-opacity="0.2" stroke="#333333" stroke-opacity="1" stroke-width="1" stroke-linecap="round" stroke-linejoin="round" transform="matrix(0.999992,0,0,-0.999992,30000.2,71306.9)"
font-family="MS Shell Dlg 2" font-size="10.3125" font-weight="400" font-style="normal" 
>
<path vector-effect="non-scaling-stroke" fill-rule="evenodd" d="M-29999.9,68806.1 L-30000,68806.2 L-30000,71305.9 L-30000,71306 L-29999.9,71306 L-29999.8,71306.1 L-16026.5,71306.1 L-16026.4,71306 L-16026.3,71306 L-16026.3,71305.9 L-16026.3,68806.2 L-16026.4,68806.1 L-18837.7,68806.1 L-21621.3,68806.1 L-24404.9,68806.1 L-27188.6,68806.1 L-29999.9,68806.1"/>
</g>

<g fill="none" stroke="#000000" stroke-opacity="1" stroke-width="1" stroke-linecap="square" stroke-linejoin="bevel" transform="matrix(0.999992,0,0,-0.999992,30000.2,71306.9)"
font-family="MS Shell Dlg 2" font-size="10.3125" font-weight="400" font-style="normal" 
>
</g>

<g fill="none" stroke="#000000" stroke-opacity="1" stroke-width="1" stroke-linecap="square" stroke-linejoin="bevel" transform="matrix(0.999992,0,0,-0.999992,30000.2,71306.9)"
font-family="MS Shell Dlg 2" font-size="10.3125" font-weight="400" font-style="normal" 
>
</g>

<g fill="#ae5151" fill-opacity="0.2" stroke="#333333" stroke-opacity="1" stroke-width="1" stroke-linecap="round" stroke-linejoin="round" transform="matrix(0.999992,0,0,-0.999992,30000.2,71306.9)"
font-family="MS Shell Dlg 2" font-size="10.3125" font-weight="400" font-style="normal" 
>
<path vector-effect="non-scaling-stroke" fill-rule="evenodd" d="M5486.71,-3196.62 L5486.76,-3196.74 L5486.66,-3196.83 L5100.14,-3196.83 L5100,-3196.68 L5100,-2973.58 L5100.2,-2973.47 L5486.71,-3196.62"/>
</g>

<g fill="none" stroke="#000000" stroke-opacity="1" stroke-width="1" stroke-linecap="square" stroke-linejoin="bevel" transform="matrix(0.999992,0,0,-0.999992,30000.2,71306.9)"
font-family="MS Shell Dlg 2" font-size="10.3125" font-weight="400" font-style="normal" 
>
</g>

<g fill="none" stroke="#000000" stroke-opacity="1" stroke-width="1" stroke-linecap="square" stroke-linejoin="bevel" transform="matrix(0.999992,0,0,-0.999992,30000.2,71306.9)"
font-family="MS Shell Dlg 2" font-size="10.3125" font-weight="400" font-style="normal" 
>
</g>

<g fill="#ae5151" fill-opacity="0.2" stroke="#333333" stroke-opacity="1" stroke-width="1" stroke-linecap="round" stroke-linejoin="round" transform="matrix(0.999992,0,0,-0.999992,30000.2,71306.9)"
font-family="MS Shell Dlg 2" font-size="10.3125" font-weight="400" font-style="normal" 
>
<path vector-effect="non-scaling-stroke" fill-rule="evenodd" d="M1250.63,-3196.68 L1250.49,-3196.83 L100.141,-3196.83 L100,-3196.68 L100,-545.596 L100.141,-545.455 L4899.86,-545.455 L4900,-545.596 L4900,-2401.73 L4899.87,-2401.87 L4870.61,-2403.79 L4870.57,-2403.8 L4695.64,-2490.07 L4695.61,-2490.09 L4567,-2636.74 L4566.98,-2636.77 L4538.14,-2721.73 L4538,-2721.83 L1250.73,-2721.83 L1250.63,-2721.93 L1250.63,-3196.68"/>
</g>

<g fill="none" stroke="#000000" stroke-opacity="1" stroke-width="1" stroke-linecap="square" stroke-linejoin="bevel" transform="matrix(0.999992,0,0,-0.999992,30000.2,71306.9)"
font-family="MS Shell Dlg 2" font-size="10.3125" font-weight="400" font-style="normal" 
>
</g>

<g fill="none" stroke="#000000" stroke-opacity="1" stroke-width="1" stroke-linecap="square" stroke-linejoin="bevel" transform="matrix(0.999992,0,0,-0.999992,30000.2,71306.9)"
font-family="MS Shell Dlg 2" font-size="10.3125" font-weight="400" font-style="normal" 
>
</g>

<g fill="#ae5151" fill-opacity="0.2" stroke="#333333" stroke-opacity="1" stroke-width="1" stroke-linecap="round" stroke-linejoin="round" transform="matrix(0.999992,0,0,-0.999992,30000.2,71306.9)"
font-family="MS Shell Dlg 2" font-size="10.3125" font-weight="400" font-style="normal" 
>
<path vector-effect="non-scaling-stroke" fill-rule="evenodd" d="M-5587.03,-3196.81 L-5587.1,-3196.83 L-6218.04,-3196.83 L-6218.18,-3196.68 L-6218.18,-545.596 L-6218.04,-545.455 L-5100.14,-545.455 L-5100,-545.596 L-5100,-2402.72 L-5100.1,-2402.85 L-5249.88,-2453.7 L-5249.94,-2453.84 L-5100.02,-2713.51 L-5100,-2713.59 L-5100,-2915.53 L-5100.07,-2915.66 L-5587.03,-3196.81"/>
</g>

<g fill="none" stroke="#000000" stroke-opacity="1" stroke-width="1" stroke-linecap="square" stroke-linejoin="bevel" transform="matrix(0.999992,0,0,-0.999992,30000.2,71306.9)"
font-family="MS Shell Dlg 2" font-size="10.3125" font-weight="400" font-style="normal" 
>
</g>

<g fill="none" stroke="#000000" stroke-opacity="1" stroke-width="1" stroke-linecap="square" stroke-linejoin="bevel" transform="matrix(0.999992,0,0,-0.999992,30000.2,71306.9)"
font-family="MS Shell Dlg 2" font-size="10.3125" font-weight="400" font-style="normal" 
>
</g>

<g fill="#ae5151" fill-opacity="0.2" stroke="#333333" stroke-opacity="1" stroke-width="1" stroke-linecap="round" stroke-linejoin="round" transform="matrix(0.999992,0,0,-0.999992,30000.2,71306.9)"
font-family="MS Shell Dlg 2" font-size="10.3125" font-weight="400" font-style="normal" 
>
<path vector-effect="non-scaling-stroke" fill-rule="evenodd" d="M-4870.57,-2403.8 L-4870.61,-2403.79 L-4899.87,-2401.87 L-4900,-2401.73 L-4900,-545.596 L-4899.86,-545.455 L-100.141,-545.455 L-100,-545.596 L-100,-3196.68 L-100.141,-3196.83 L-1250.49,-3196.83 L-1250.63,-3196.68 L-1250.63,-2721.93 L-1250.73,-2721.83 L-4538,-2721.83 L-4538.14,-2721.73 L-4566.98,-2636.77 L-4567,-2636.74 L-4695.61,-2490.09 L-4695.64,-2490.07 L-4870.57,-2403.8"/>
</g>

<g fill="none" stroke="#000000" stroke-opacity="1" stroke-width="1" stroke-linecap="square" stroke-linejoin="bevel" transform="matrix(0.999992,0,0,-0.999992,30000.2,71306.9)"
font-family="MS Shell Dlg 2" font-size="10.3125" font-weight="400" font-style="normal" 
>
</g>

<g fill="none" stroke="#000000" stroke-opacity="1" stroke-width="1" stroke-linecap="square" stroke-linejoin="bevel" transform="matrix(0.999992,0,0,-0.999992,30000.2,71306.9)"
font-family="MS Shell Dlg 2" font-size="10.3125" font-weight="400" font-style="normal" 
>
</g>

<g fill="#ae5151" fill-opacity="0.2" stroke="#333333" stroke-opacity="1" stroke-width="1" stroke-linecap="round" stroke-linejoin="round" transform="matrix(0.999992,0,0,-0.999992,30000.2,71306.9)"
font-family="MS Shell Dlg 2" font-size="10.3125" font-weight="400" font-style="normal" 
>
<path vector-effect="non-scaling-stroke" fill-rule="evenodd" d="M5250.01,-2453.74 L5249.99,-2453.74 L5100.1,-2402.85 L5100,-2402.72 L5100,-545.596 L5100.14,-545.455 L6763.49,-545.455 L6763.64,-545.596 L6763.64,-2119.3 L6763.59,-2119.41 L6717.52,-2161.16 L6717.51,-2161.17 L6618.66,-2270.23 L6618.66,-2270.24 L6530.97,-2388.47 L6530.97,-2388.47 L6455.3,-2514.73 L6455.29,-2514.73 L6392.36,-2647.8 L6392.35,-2647.8 L6365.9,-2721.73 L6365.77,-2721.83 L6278.27,-2721.83 L6278.17,-2721.93 L6278.17,-3047.12 L6277.97,-3047.24 L5250.01,-2453.74"/>
</g>

<g fill="none" stroke="#000000" stroke-opacity="1" stroke-width="1" stroke-linecap="square" stroke-linejoin="bevel" transform="matrix(0.999992,0,0,-0.999992,30000.2,71306.9)"
font-family="MS Shell Dlg 2" font-size="10.3125" font-weight="400" font-style="normal" 
>
</g>

<g fill="none" stroke="#000000" stroke-opacity="1" stroke-width="1" stroke-linecap="square" stroke-linejoin="bevel" transform="matrix(1,0,0,-1,0,115307)"
font-family="MS Shell Dlg 2" font-size="10.3125" font-weight="400" font-style="normal" 
>
</g>
</g>
</svg>
