<?xml version="1.0" encoding="UTF-8" standalone="no"?>
<svg width="3943.77mm" height="811.389mm"
 xmlns="http://www.w3.org/2000/svg" xmlns:xlink="http://www.w3.org/1999/xlink"  version="1.2" baseProfile="tiny">
<title>SVG Generator Example Drawing</title>
<desc>An SVG drawing created by the SVG Generator</desc>
<defs>
</defs>
<g fill="none" stroke="black" stroke-width="1" fill-rule="evenodd" stroke-linecap="square" stroke-linejoin="bevel" >

<g fill="none" stroke="#000000" stroke-opacity="1" stroke-width="1" stroke-linecap="square" stroke-linejoin="bevel" transform="matrix(1,0,0,-1,0,2875.39)"
font-family="MS Shell Dlg 2" font-size="10.3125" font-weight="400" font-style="normal" 
>
</g>

<g fill="none" stroke="#000000" stroke-opacity="1" stroke-width="1" stroke-linecap="square" stroke-linejoin="bevel" transform="matrix(1,0,0,-1,0,2875.39)"
font-family="MS Shell Dlg 2" font-size="10.3125" font-weight="400" font-style="normal" 
>
</g>

<g fill="none" stroke="#000000" stroke-opacity="1" stroke-width="1" stroke-linecap="square" stroke-linejoin="bevel" transform="matrix(0.999865,0,0,-0.999865,29996.5,6545.46)"
font-family="MS Shell Dlg 2" font-size="10.3125" font-weight="400" font-style="normal" 
>
</g>

<g fill="#ae5151" fill-opacity="0.2" stroke="#333333" stroke-opacity="1" stroke-width="1" stroke-linecap="round" stroke-linejoin="round" transform="matrix(0.999865,0,0,-0.999865,29996.5,6545.46)"
font-family="MS Shell Dlg 2" font-size="10.3125" font-weight="400" font-style="normal" 
>
<path vector-effect="non-scaling-stroke" fill-rule="evenodd" d="M-27188.6,4145.97 L-27188.7,4146.07 L-29999.9,4146.07 L-30000,4146.21 L-30000,6545.31 L-29999.9,6545.45 L-16026.4,6545.45 L-16026.3,6545.31 L-16026.3,4146.21 L-16026.4,4146.07 L-18837.6,4146.07 L-18837.7,4145.97 L-18837.7,3671.21 L-18837.9,3671.07 L-21621.2,3671.07 L-21621.3,3671.21 L-21621.3,4145.97 L-21621.4,4146.07 L-24404.8,4146.07 L-24404.9,4145.97 L-24404.9,3671.21 L-24405.1,3671.07 L-26260.7,3671.07 L-27188.4,3671.07 L-27188.6,3671.21 L-27188.6,4145.97"/>
</g>

<g fill="none" stroke="#000000" stroke-opacity="1" stroke-width="1" stroke-linecap="square" stroke-linejoin="bevel" transform="matrix(0.999865,0,0,-0.999865,29996.5,6545.46)"
font-family="MS Shell Dlg 2" font-size="10.3125" font-weight="400" font-style="normal" 
>
</g>

<g fill="none" stroke="#000000" stroke-opacity="1" stroke-width="1" stroke-linecap="square" stroke-linejoin="bevel" transform="matrix(1,0,0,-1,0,2875.39)"
font-family="MS Shell Dlg 2" font-size="10.3125" font-weight="400" font-style="normal" 
>
</g>
</g>
</svg>
