<?xml version="1.0" encoding="UTF-8" standalone="no"?>
<svg width="469.618mm" height="706.12mm"
 xmlns="http://www.w3.org/2000/svg" xmlns:xlink="http://www.w3.org/1999/xlink"  version="1.2" baseProfile="tiny">
<title>SVG Generator Example Drawing</title>
<desc>An SVG drawing created by the SVG Generator</desc>
<defs>
</defs>
<g fill="none" stroke="black" stroke-width="1" fill-rule="evenodd" stroke-linecap="square" stroke-linejoin="bevel" >

<g fill="none" stroke="#000000" stroke-opacity="1" stroke-width="1" stroke-linecap="square" stroke-linejoin="bevel" transform="matrix(1,0,0,-1,0,2502.79)"
font-family="MS Shell Dlg 2" font-size="10.3125" font-weight="400" font-style="normal" 
>
</g>

<g fill="none" stroke="#000000" stroke-opacity="1" stroke-width="1" stroke-linecap="square" stroke-linejoin="bevel" transform="matrix(1,0,0,-1,0,2502.79)"
font-family="MS Shell Dlg 2" font-size="10.3125" font-weight="400" font-style="normal" 
>
</g>

<g fill="none" stroke="#000000" stroke-opacity="1" stroke-width="1" stroke-linecap="square" stroke-linejoin="bevel" transform="matrix(0.999618,0,0,-0.999618,-5097.55,-543.789)"
font-family="MS Shell Dlg 2" font-size="10.3125" font-weight="400" font-style="normal" 
>
</g>

<g fill="#ae5151" fill-opacity="0.2" stroke="#333333" stroke-opacity="1" stroke-width="1" stroke-linecap="round" stroke-linejoin="round" transform="matrix(0.999618,0,0,-0.999618,-5097.55,-543.789)"
font-family="MS Shell Dlg 2" font-size="10.3125" font-weight="400" font-style="normal" 
>
<path vector-effect="non-scaling-stroke" fill-rule="evenodd" d="M5250.01,-2453.74 L5249.99,-2453.74 L5100.1,-2402.85 L5100,-2402.72 L5100,-545.596 L5100.14,-545.455 L6763.49,-545.455 L6763.64,-545.596 L6763.64,-2119.3 L6763.59,-2119.41 L6717.52,-2161.16 L6717.51,-2161.17 L6618.66,-2270.23 L6618.66,-2270.24 L6530.97,-2388.47 L6530.97,-2388.47 L6455.3,-2514.73 L6455.29,-2514.73 L6392.36,-2647.8 L6392.35,-2647.8 L6365.9,-2721.73 L6365.77,-2721.83 L6278.27,-2721.83 L6278.17,-2721.93 L6278.17,-3047.12 L6277.97,-3047.24 L5250.01,-2453.74"/>
</g>

<g fill="none" stroke="#000000" stroke-opacity="1" stroke-width="1" stroke-linecap="square" stroke-linejoin="bevel" transform="matrix(0.999618,0,0,-0.999618,-5097.55,-543.789)"
font-family="MS Shell Dlg 2" font-size="10.3125" font-weight="400" font-style="normal" 
>
</g>

<g fill="none" stroke="#000000" stroke-opacity="1" stroke-width="1" stroke-linecap="square" stroke-linejoin="bevel" transform="matrix(1,0,0,-1,0,2502.79)"
font-family="MS Shell Dlg 2" font-size="10.3125" font-weight="400" font-style="normal" 
>
</g>
</g>
</svg>
