<?xml version="1.0" encoding="UTF-8" standalone="no"?>
<svg width="666.609mm" height="1620.24mm"
 xmlns="http://www.w3.org/2000/svg" xmlns:xlink="http://www.w3.org/1999/xlink"  version="1.2" baseProfile="tiny">
<title>SVG Generator Example Drawing</title>
<desc>An SVG drawing created by the SVG Generator</desc>
<defs>
</defs>
<g fill="none" stroke="black" stroke-width="1" fill-rule="evenodd" stroke-linecap="square" stroke-linejoin="bevel" >

<g fill="none" stroke="#000000" stroke-opacity="1" stroke-width="1" stroke-linecap="square" stroke-linejoin="bevel" transform="matrix(1,0,0,-1,0,5741.15)"
font-family="MS Shell Dlg 2" font-size="10.3125" font-weight="400" font-style="normal" 
>
</g>

<g fill="none" stroke="#000000" stroke-opacity="1" stroke-width="1" stroke-linecap="square" stroke-linejoin="bevel" transform="matrix(1,0,0,-1,0,5741.15)"
font-family="MS Shell Dlg 2" font-size="10.3125" font-weight="400" font-style="normal" 
>
</g>

<g fill="none" stroke="#000000" stroke-opacity="1" stroke-width="1" stroke-linecap="square" stroke-linejoin="bevel" transform="matrix(0.999666,0,0,-0.999666,-4399.88,-4401.42)"
font-family="MS Shell Dlg 2" font-size="10.3125" font-weight="400" font-style="normal" 
>
</g>

<g fill="#ae5151" fill-opacity="0.2" stroke="#333333" stroke-opacity="1" stroke-width="1" stroke-linecap="round" stroke-linejoin="round" transform="matrix(0.999666,0,0,-0.999666,-4399.88,-4401.42)"
font-family="MS Shell Dlg 2" font-size="10.3125" font-weight="400" font-style="normal" 
>
<path vector-effect="non-scaling-stroke" fill-rule="evenodd" d="M5049.99,-7199.86 L5050.01,-7199.84 L5059.83,-7191.23 L5059.84,-7191.22 L5070.69,-7183.97 L5070.72,-7183.94 L5074.36,-7178.49 L5074.39,-7178.46 L5079.32,-7174.14 L5079.34,-7174.11 L5085.12,-7162.4 L5085.13,-7162.38 L5092.38,-7151.53 L5092.39,-7151.5 L5093.67,-7145.07 L5093.68,-7145.03 L5096.58,-7139.15 L5096.59,-7139.11 L5097.45,-7126.09 L5097.45,-7126.07 L5100,-7113.26 L5100,-7113.24 L5100,-6607.17 L5100.04,-6607.06 L6014.56,-5692.54 L6014.56,-5692.4 L5678.86,-5356.7 L5678.86,-5356.5 L6630.03,-4405.32 L6630.21,-4405.3 L6763.56,-4482.3 L6763.64,-4482.42 L6763.64,-10145.3 L6763.49,-10145.5 L6434.92,-10145.5 L6434.79,-10145.4 L5759.21,-8975.24 L5759.07,-8975.2 L5347.92,-9212.58 L5347.72,-9212.53 L4401.85,-7574.23 L4401.9,-7574.03 L4813.14,-7336.6 L5049.99,-7199.86"/>
</g>

<g fill="none" stroke="#000000" stroke-opacity="1" stroke-width="1" stroke-linecap="square" stroke-linejoin="bevel" transform="matrix(0.999666,0,0,-0.999666,-4399.88,-4401.42)"
font-family="MS Shell Dlg 2" font-size="10.3125" font-weight="400" font-style="normal" 
>
</g>

<g fill="none" stroke="#000000" stroke-opacity="1" stroke-width="1" stroke-linecap="square" stroke-linejoin="bevel" transform="matrix(1,0,0,-1,0,5741.15)"
font-family="MS Shell Dlg 2" font-size="10.3125" font-weight="400" font-style="normal" 
>
</g>
</g>
</svg>
