<?xml version="1.0" encoding="UTF-8" standalone="no"?>
<svg width="16933.6mm" height="28053.5mm"
 xmlns="http://www.w3.org/2000/svg" xmlns:xlink="http://www.w3.org/1999/xlink"  version="1.2" baseProfile="tiny">
<title>SVG Generator Example Drawing</title>
<desc>An SVG drawing created by the SVG Generator</desc>
<defs>
</defs>
<g fill="none" stroke="black" stroke-width="1" fill-rule="evenodd" stroke-linecap="square" stroke-linejoin="bevel" >

<g fill="none" stroke="#000000" stroke-opacity="1" stroke-width="1" stroke-linecap="square" stroke-linejoin="bevel" transform="matrix(1,0,0,-1,0,99402.1)"
font-family="MS Shell Dlg 2" font-size="10.3125" font-weight="400" font-style="normal" 
>
</g>

<g fill="none" stroke="#000000" stroke-opacity="1" stroke-width="1" stroke-linecap="square" stroke-linejoin="bevel" transform="matrix(1,0,0,-1,0,99402.1)"
font-family="MS Shell Dlg 2" font-size="10.3125" font-weight="400" font-style="normal" 
>
</g>

<g fill="none" stroke="#000000" stroke-opacity="1" stroke-width="1" stroke-linecap="square" stroke-linejoin="bevel" transform="matrix(0.999999,0,0,-0.999999,30000.5,55401.6)"
font-family="MS Shell Dlg 2" font-size="10.3125" font-weight="400" font-style="normal" 
>
</g>

<g fill="#333333" fill-opacity="0.2" stroke="#333333" stroke-opacity="1" stroke-width="1" stroke-linecap="round" stroke-linejoin="round" transform="matrix(0.999999,0,0,-0.999999,30000.5,55401.6)"
font-family="MS Shell Dlg 2" font-size="10.3125" font-weight="400" font-style="normal" 
>
<path vector-effect="non-scaling-stroke" fill-rule="evenodd" d="M30000,3671.07 L30000,671.068 L16026.3,671.068 L16026.3,3671.07 L16026.3,15071.1 L16026.3,36451.1 L22380,36451.1 L22380,38801.1 L10380,38801.1 L10380,36451.1 L10375,29931.1 L10125,29931.1 L10125,26071.1 L10125,7778.17 L10275.2,8038.25 L13278.2,6304.45 L15026.3,-6973.72 L9526.28,-16500 L5500,-20526.3 L5000,-20815 L5000,-31000 L5000,-39000 L0,-44000 L-5000,-39000 L-5000,-31000 L-5000,-20815 L-5500,-20526.3 L-9526.28,-16500 L-15026.3,-6973.72 L-13278.2,6304.45 L-10275.2,8038.25 L-10125,7778.17 L-10125,26071.1 L-10125,29931.1 L-10375,29931.1 L-10375,36451.1 L-10380,38801.1 L-22380,38801.1 L-22380,36451.1 L-16026.3,36451.1 L-16026.3,15071.1 L-16026.3,3671.07 L-16026.3,671.068 L-30000,671.068 L-30000,3671.07 L-30000,15071.1 L-30000,55401.1 L30000,55401.1 L30000,15071.1 L30000,3671.07 M-125,7778.17 L0,7778.17 L125,7778.17 L125,26071.1 L125,29931.1 L-125,29931.1 L-125,26071.1 L-125,7778.17 M5062.5,9528.17 L5090.35,9529.73 L5187.38,9561.6 L5263.57,9629.62 L5306.21,9722.43 L5308.16,9824.55 L5269.11,9918.92 L5195.58,9989.81 L5099.84,10025.4 L4997.86,10019.7 L4906.67,9973.67 L4841.49,9895.03 L4813.2,9796.9 L4826.52,9695.63 L4879.22,9608.15 L4962.52,9549.04 L5062.5,9528.17 M-5062.5,9528.17 L-5034.65,9529.73 L-4937.62,9561.6 L-4861.43,9629.62 L-4818.79,9722.43 L-4816.84,9824.55 L-4855.89,9918.92 L-4929.42,9989.81 L-5025.16,10025.4 L-5127.14,10019.7 L-5218.33,9973.67 L-5283.51,9895.03 L-5311.8,9796.9 L-5298.48,9695.63 L-5245.78,9608.15 L-5162.48,9549.04 L-5062.5,9528.17 M20380,50931.1 L12380,50931.1 L12380,47931.1 L20380,47931.1 L20380,50931.1 M-12380,50931.1 L-20380,50931.1 L-20380,47931.1 L-12380,47931.1 L-12380,50931.1"/>
</g>

<g fill="none" stroke="#000000" stroke-opacity="1" stroke-width="1" stroke-linecap="square" stroke-linejoin="bevel" transform="matrix(0.999999,0,0,-0.999999,30000.5,55401.6)"
font-family="MS Shell Dlg 2" font-size="10.3125" font-weight="400" font-style="normal" 
>
</g>

<g fill="none" stroke="#000000" stroke-opacity="1" stroke-width="1" stroke-linecap="square" stroke-linejoin="bevel" transform="matrix(0.999999,0,0,-0.999999,30000.5,55401.6)"
font-family="MS Shell Dlg 2" font-size="10.3125" font-weight="400" font-style="normal" 
>
</g>

<g fill="#ae5151" fill-opacity="0.2" stroke="#333333" stroke-opacity="1" stroke-width="1" stroke-linecap="round" stroke-linejoin="round" transform="matrix(0.999999,0,0,-0.999999,30000.5,55401.6)"
font-family="MS Shell Dlg 2" font-size="10.3125" font-weight="400" font-style="normal" 
>
<path vector-effect="non-scaling-stroke" fill-rule="evenodd" d="M30000,3671.07 L30000,671.068 L16026.3,671.068 L16026.3,3671.07 L16026.3,15071.1 L16026.3,36451.1 L22380,36451.1 L22380,38801.1 L10380,38801.1 L10380,36451.1 L10375,29931.1 L10125,29931.1 L10125,26071.1 L10125,7778.17 L10275.2,8038.25 L13278.2,6304.45 L15026.3,-6973.72 L9526.28,-16500 L5500,-20526.3 L5000,-20815 L5000,-31000 L5000,-39000 L0,-44000 L-5000,-39000 L-5000,-31000 L-5000,-20815 L-5500,-20526.3 L-9526.28,-16500 L-15026.3,-6973.72 L-13278.2,6304.45 L-10275.2,8038.25 L-10125,7778.17 L-10125,26071.1 L-10125,29931.1 L-10375,29931.1 L-10375,36451.1 L-10380,38801.1 L-22380,38801.1 L-22380,36451.1 L-16026.3,36451.1 L-16026.3,15071.1 L-16026.3,3671.07 L-16026.3,671.068 L-30000,671.068 L-30000,3671.07 L-30000,15071.1 L-30000,55401.1 L30000,55401.1 L30000,15071.1 L30000,3671.07 M-125,7778.17 L0,7778.17 L125,7778.17 L125,26071.1 L125,29931.1 L-125,29931.1 L-125,26071.1 L-125,7778.17 M5062.5,9528.17 L5090.35,9529.73 L5187.38,9561.6 L5263.57,9629.62 L5306.21,9722.43 L5308.16,9824.55 L5269.11,9918.92 L5195.58,9989.81 L5099.84,10025.4 L4997.86,10019.7 L4906.67,9973.67 L4841.49,9895.03 L4813.2,9796.9 L4826.52,9695.63 L4879.22,9608.15 L4962.52,9549.04 L5062.5,9528.17 M-5062.5,9528.17 L-5034.65,9529.73 L-4937.62,9561.6 L-4861.43,9629.62 L-4818.79,9722.43 L-4816.84,9824.55 L-4855.89,9918.92 L-4929.42,9989.81 L-5025.16,10025.4 L-5127.14,10019.7 L-5218.33,9973.67 L-5283.51,9895.03 L-5311.8,9796.9 L-5298.48,9695.63 L-5245.78,9608.15 L-5162.48,9549.04 L-5062.5,9528.17 M20380,50931.1 L12380,50931.1 L12380,47931.1 L20380,47931.1 L20380,50931.1 M-12380,50931.1 L-20380,50931.1 L-20380,47931.1 L-12380,47931.1 L-12380,50931.1"/>
</g>

<g fill="none" stroke="#000000" stroke-opacity="1" stroke-width="1" stroke-linecap="square" stroke-linejoin="bevel" transform="matrix(0.999999,0,0,-0.999999,30000.5,55401.6)"
font-family="MS Shell Dlg 2" font-size="10.3125" font-weight="400" font-style="normal" 
>
</g>

<g fill="none" stroke="#000000" stroke-opacity="1" stroke-width="1" stroke-linecap="square" stroke-linejoin="bevel" transform="matrix(0.999999,0,0,-0.999999,30000.5,55401.6)"
font-family="MS Shell Dlg 2" font-size="10.3125" font-weight="400" font-style="normal" 
>
</g>

<g fill="#ffff00" fill-opacity="0.2" stroke="#333333" stroke-opacity="1" stroke-width="1" stroke-linecap="round" stroke-linejoin="round" transform="matrix(0.999999,0,0,-0.999999,30000.5,55401.6)"
font-family="MS Shell Dlg 2" font-size="10.3125" font-weight="400" font-style="normal" 
>
<path vector-effect="non-scaling-stroke" fill-rule="evenodd" d="M30000,3671.07 L30000,671.068 L16026.3,671.068 L16026.3,3671.07 L16026.3,15071.1 L16026.3,36451.1 L22380,36451.1 L22380,38801.1 L10380,38801.1 L10380,36451.1 L10375,29931.1 L10125,29931.1 L10125,26071.1 L10125,7778.17 L10275.2,8038.25 L13278.2,6304.45 L15026.3,-6973.72 L9526.28,-16500 L5500,-20526.3 L5000,-20815 L5000,-31000 L5000,-39000 L0,-44000 L-5000,-39000 L-5000,-31000 L-5000,-20815 L-5500,-20526.3 L-9526.28,-16500 L-15026.3,-6973.72 L-13278.2,6304.45 L-10275.2,8038.25 L-10125,7778.17 L-10125,26071.1 L-10125,29931.1 L-10375,29931.1 L-10375,36451.1 L-10380,38801.1 L-22380,38801.1 L-22380,36451.1 L-16026.3,36451.1 L-16026.3,15071.1 L-16026.3,3671.07 L-16026.3,671.068 L-30000,671.068 L-30000,3671.07 L-30000,15071.1 L-30000,55401.1 L30000,55401.1 L30000,15071.1 L30000,3671.07 M-125,7778.17 L0,7778.17 L125,7778.17 L125,26071.1 L125,29931.1 L-125,29931.1 L-125,26071.1 L-125,7778.17 M5062.5,9528.17 L5090.35,9529.73 L5187.38,9561.6 L5263.57,9629.62 L5306.21,9722.43 L5308.16,9824.55 L5269.11,9918.92 L5195.58,9989.81 L5099.84,10025.4 L4997.86,10019.7 L4906.67,9973.67 L4841.49,9895.03 L4813.2,9796.9 L4826.52,9695.63 L4879.22,9608.15 L4962.52,9549.04 L5062.5,9528.17 M-5062.5,9528.17 L-5034.65,9529.73 L-4937.62,9561.6 L-4861.43,9629.62 L-4818.79,9722.43 L-4816.84,9824.55 L-4855.89,9918.92 L-4929.42,9989.81 L-5025.16,10025.4 L-5127.14,10019.7 L-5218.33,9973.67 L-5283.51,9895.03 L-5311.8,9796.9 L-5298.48,9695.63 L-5245.78,9608.15 L-5162.48,9549.04 L-5062.5,9528.17 M20380,50931.1 L12380,50931.1 L12380,47931.1 L20380,47931.1 L20380,50931.1 M-12380,50931.1 L-20380,50931.1 L-20380,47931.1 L-12380,47931.1 L-12380,50931.1"/>
</g>

<g fill="none" stroke="#000000" stroke-opacity="1" stroke-width="1" stroke-linecap="square" stroke-linejoin="bevel" transform="matrix(0.999999,0,0,-0.999999,30000.5,55401.6)"
font-family="MS Shell Dlg 2" font-size="10.3125" font-weight="400" font-style="normal" 
>
</g>

<g fill="none" stroke="#000000" stroke-opacity="1" stroke-width="1" stroke-linecap="square" stroke-linejoin="bevel" transform="matrix(0.999999,0,0,-0.999999,30000.5,55401.6)"
font-family="MS Shell Dlg 2" font-size="10.3125" font-weight="400" font-style="normal" 
>
</g>

<g fill="#ae5151" fill-opacity="0.2" stroke="#333333" stroke-opacity="1" stroke-width="1" stroke-linecap="round" stroke-linejoin="round" transform="matrix(0.999999,0,0,-0.999999,30000.5,55401.6)"
font-family="MS Shell Dlg 2" font-size="10.3125" font-weight="400" font-style="normal" 
>
<path vector-effect="non-scaling-stroke" fill-rule="evenodd" d="M30000,3671.07 L30000,671.068 L16026.3,671.068 L16026.3,3671.07 L16026.3,15071.1 L16026.3,36451.1 L22380,36451.1 L22380,38801.1 L10380,38801.1 L10380,36451.1 L10375,29931.1 L10125,29931.1 L10125,26071.1 L10125,7778.17 L10275.2,8038.25 L13278.2,6304.45 L15026.3,-6973.72 L9526.28,-16500 L5500,-20526.3 L5000,-20815 L5000,-31000 L5000,-39000 L0,-44000 L-5000,-39000 L-5000,-31000 L-5000,-20815 L-5500,-20526.3 L-9526.28,-16500 L-15026.3,-6973.72 L-13278.2,6304.45 L-10275.2,8038.25 L-10125,7778.17 L-10125,26071.1 L-10125,29931.1 L-10375,29931.1 L-10375,36451.1 L-10380,38801.1 L-22380,38801.1 L-22380,36451.1 L-16026.3,36451.1 L-16026.3,15071.1 L-16026.3,3671.07 L-16026.3,671.068 L-30000,671.068 L-30000,3671.07 L-30000,15071.1 L-30000,55401.1 L30000,55401.1 L30000,15071.1 L30000,3671.07 M-125,7778.17 L0,7778.17 L125,7778.17 L125,26071.1 L125,29931.1 L-125,29931.1 L-125,26071.1 L-125,7778.17 M5062.5,9528.17 L5090.35,9529.73 L5187.38,9561.6 L5263.57,9629.62 L5306.21,9722.43 L5308.16,9824.55 L5269.11,9918.92 L5195.58,9989.81 L5099.84,10025.4 L4997.86,10019.7 L4906.67,9973.67 L4841.49,9895.03 L4813.2,9796.9 L4826.52,9695.63 L4879.22,9608.15 L4962.52,9549.04 L5062.5,9528.17 M-5062.5,9528.17 L-5034.65,9529.73 L-4937.62,9561.6 L-4861.43,9629.62 L-4818.79,9722.43 L-4816.84,9824.55 L-4855.89,9918.92 L-4929.42,9989.81 L-5025.16,10025.4 L-5127.14,10019.7 L-5218.33,9973.67 L-5283.51,9895.03 L-5311.8,9796.9 L-5298.48,9695.63 L-5245.78,9608.15 L-5162.48,9549.04 L-5062.5,9528.17 M20380,50931.1 L12380,50931.1 L12380,47931.1 L20380,47931.1 L20380,50931.1 M-12380,50931.1 L-20380,50931.1 L-20380,47931.1 L-12380,47931.1 L-12380,50931.1"/>
</g>

<g fill="none" stroke="#000000" stroke-opacity="1" stroke-width="1" stroke-linecap="square" stroke-linejoin="bevel" transform="matrix(0.999999,0,0,-0.999999,30000.5,55401.6)"
font-family="MS Shell Dlg 2" font-size="10.3125" font-weight="400" font-style="normal" 
>
</g>

<g fill="none" stroke="#000000" stroke-opacity="1" stroke-width="1" stroke-linecap="square" stroke-linejoin="bevel" transform="matrix(0.999999,0,0,-0.999999,30000.5,55401.6)"
font-family="MS Shell Dlg 2" font-size="10.3125" font-weight="400" font-style="normal" 
>
</g>

<g fill="#333333" fill-opacity="0.2" stroke="#333333" stroke-opacity="1" stroke-width="1" stroke-linecap="round" stroke-linejoin="round" transform="matrix(0.999999,0,0,-0.999999,30000.5,55401.6)"
font-family="MS Shell Dlg 2" font-size="10.3125" font-weight="400" font-style="normal" 
>
<path vector-effect="non-scaling-stroke" fill-rule="evenodd" d="M30000,3671.07 L30000,671.068 L16026.3,671.068 L16026.3,3671.07 L16026.3,15071.1 L16026.3,36451.1 L22380,36451.1 L22380,38801.1 L10380,38801.1 L10380,36451.1 L10375,29931.1 L10125,29931.1 L10125,26071.1 L10125,7778.17 L10275.2,8038.25 L13278.2,6304.45 L15026.3,-6973.72 L9526.28,-16500 L5500,-20526.3 L5000,-20815 L5000,-31000 L5000,-39000 L0,-44000 L-5000,-39000 L-5000,-31000 L-5000,-20815 L-5500,-20526.3 L-9526.28,-16500 L-15026.3,-6973.72 L-13278.2,6304.45 L-10275.2,8038.25 L-10125,7778.17 L-10125,26071.1 L-10125,29931.1 L-10375,29931.1 L-10375,36451.1 L-10380,38801.1 L-22380,38801.1 L-22380,36451.1 L-16026.3,36451.1 L-16026.3,15071.1 L-16026.3,3671.07 L-16026.3,671.068 L-30000,671.068 L-30000,3671.07 L-30000,15071.1 L-30000,55401.1 L30000,55401.1 L30000,15071.1 L30000,3671.07 M-125,7778.17 L0,7778.17 L125,7778.17 L125,26071.1 L125,29931.1 L-125,29931.1 L-125,26071.1 L-125,7778.17 M5062.5,9528.17 L5090.35,9529.73 L5187.38,9561.6 L5263.57,9629.62 L5306.21,9722.43 L5308.16,9824.55 L5269.11,9918.92 L5195.58,9989.81 L5099.84,10025.4 L4997.86,10019.7 L4906.67,9973.67 L4841.49,9895.03 L4813.2,9796.9 L4826.52,9695.63 L4879.22,9608.15 L4962.52,9549.04 L5062.5,9528.17 M-5062.5,9528.17 L-5034.65,9529.73 L-4937.62,9561.6 L-4861.43,9629.62 L-4818.79,9722.43 L-4816.84,9824.55 L-4855.89,9918.92 L-4929.42,9989.81 L-5025.16,10025.4 L-5127.14,10019.7 L-5218.33,9973.67 L-5283.51,9895.03 L-5311.8,9796.9 L-5298.48,9695.63 L-5245.78,9608.15 L-5162.48,9549.04 L-5062.5,9528.17 M20380,50931.1 L12380,50931.1 L12380,47931.1 L20380,47931.1 L20380,50931.1 M-12380,50931.1 L-20380,50931.1 L-20380,47931.1 L-12380,47931.1 L-12380,50931.1"/>
</g>

<g fill="none" stroke="#000000" stroke-opacity="1" stroke-width="1" stroke-linecap="square" stroke-linejoin="bevel" transform="matrix(0.999999,0,0,-0.999999,30000.5,55401.6)"
font-family="MS Shell Dlg 2" font-size="10.3125" font-weight="400" font-style="normal" 
>
</g>

<g fill="none" stroke="#000000" stroke-opacity="1" stroke-width="1" stroke-linecap="square" stroke-linejoin="bevel" transform="matrix(1,0,0,-1,0,99402.1)"
font-family="MS Shell Dlg 2" font-size="10.3125" font-weight="400" font-style="normal" 
>
</g>
</g>
</svg>
