<?xml version="1.0" encoding="UTF-8" standalone="no"?>
<svg width="16933.6mm" height="28053.2mm"
 xmlns="http://www.w3.org/2000/svg" xmlns:xlink="http://www.w3.org/1999/xlink"  version="1.2" baseProfile="tiny">
<title>SVG Generator Example Drawing</title>
<desc>An SVG drawing created by the SVG Generator</desc>
<defs>
</defs>
<g fill="none" stroke="black" stroke-width="1" fill-rule="evenodd" stroke-linecap="square" stroke-linejoin="bevel" >

<g fill="none" stroke="#000000" stroke-opacity="1" stroke-width="1" stroke-linecap="square" stroke-linejoin="bevel" transform="matrix(1,0,0,-1,0,99402)"
font-family="MS Shell Dlg 2" font-size="10.3125" font-weight="400" font-style="normal" 
>
</g>

<g fill="none" stroke="#000000" stroke-opacity="1" stroke-width="1" stroke-linecap="square" stroke-linejoin="bevel" transform="matrix(1,0,0,-1,0,99402)"
font-family="MS Shell Dlg 2" font-size="10.3125" font-weight="400" font-style="normal" 
>
</g>

<g fill="none" stroke="#000000" stroke-opacity="1" stroke-width="1" stroke-linecap="square" stroke-linejoin="bevel" transform="matrix(0.99999,0,0,-0.99999,30000.2,55402)"
font-family="MS Shell Dlg 2" font-size="10.3125" font-weight="400" font-style="normal" 
>
</g>

<g fill="#333333" fill-opacity="0.2" stroke="#333333" stroke-opacity="1" stroke-width="1" stroke-linecap="round" stroke-linejoin="round" transform="matrix(0.99999,0,0,-0.99999,30000.2,55402)"
font-family="MS Shell Dlg 2" font-size="10.3125" font-weight="400" font-style="normal" 
>
<path vector-effect="non-scaling-stroke" fill-rule="evenodd" d="M10380,38701.1 L10380,36451.1 L10375,29931.2 L10374.9,29931.1 L10125.1,29931.1 L10125,29931 L10125,7778.55 L10125.1,7778.45 L10125.2,7778.5 L10275.1,8038.13 L10275.3,8038.18 L13278.1,6304.49 L13278.2,6304.38 L15026.3,-6973.67 L15026.3,-6973.76 L10275.5,-15202.4 L10233.4,-15177.1 L10100.3,-15114.2 L9961.71,-15064.6 L9818.91,-15028.8 L9673.31,-15007.2 L9526.28,-15000 L9379.25,-15007.2 L9233.64,-15028.8 L9090.85,-15064.6 L8952.25,-15114.2 L8819.18,-15177.1 L8692.92,-15252.8 L8574.69,-15340.5 L8465.62,-15439.3 L8366.76,-15548.4 L8279.08,-15666.6 L8203.4,-15792.9 L8140.46,-15926 L8090.87,-16064.6 L8055.1,-16207.4 L8033.5,-16353 L8026.28,-16500 L8033.5,-16647 L8055.1,-16792.6 L8090.87,-16935.4 L8140.46,-17074 L8203.4,-17207.1 L8279.08,-17333.4 L8366.76,-17451.6 L8465.62,-17560.7 L5500.01,-20526.3 L5499.98,-20526.3 L5000.05,-20814.9 L5000,-20815 L5000,-38999.9 L4999.96,-39000 L0.1,-43999.9 L-0.1,-43999.9 L-4999.96,-39000 L-5000,-38999.9 L-5000,-20815 L-5000.05,-20814.9 L-5499.98,-20526.3 L-5500.01,-20526.3 L-8465.62,-17560.7 L-8366.76,-17451.6 L-8279.08,-17333.4 L-8203.4,-17207.1 L-8140.46,-17074 L-8090.87,-16935.4 L-8055.1,-16792.6 L-8033.5,-16647 L-8026.28,-16500 L-8033.5,-16353 L-8055.1,-16207.4 L-8090.87,-16064.6 L-8140.46,-15926 L-8203.4,-15792.9 L-8279.08,-15666.6 L-8366.76,-15548.4 L-8465.62,-15439.3 L-8574.69,-15340.5 L-8692.92,-15252.8 L-8819.18,-15177.1 L-8952.25,-15114.2 L-9090.85,-15064.6 L-9233.64,-15028.8 L-9379.25,-15007.2 L-9526.28,-15000 L-9673.31,-15007.2 L-9818.91,-15028.8 L-9961.71,-15064.6 L-10100.3,-15114.2 L-10233.4,-15177.1 L-10275.5,-15202.4 L-15026.3,-6973.76 L-15026.3,-6973.67 L-13278.2,6304.38 L-13278.1,6304.49 L-10275.3,8038.18 L-10275.1,8038.13 L-10125.2,7778.5 L-10125.1,7778.45 L-10125,7778.55 L-10125,29931 L-10125.1,29931.1 L-10374.9,29931.1 L-10375,29931.2 L-10375,36451.1 L-10375,36451.1 L-10379.8,38701.1 L10380,38701.1 M4813.21,9796.92 L4813.2,9796.88 L4826.52,9695.65 L4826.53,9695.61 L4879.21,9608.16 L4879.24,9608.13 L4962.5,9549.05 L4962.54,9549.03 L5062.49,9528.18 L5062.51,9528.18 L5090.33,9529.73 L5090.36,9529.73 L5187.36,9561.59 L5187.4,9561.61 L5263.56,9629.6 L5263.58,9629.64 L5306.2,9722.41 L5306.21,9722.45 L5308.16,9824.53 L5308.15,9824.57 L5269.12,9918.91 L5269.1,9918.94 L5195.6,9989.79 L5195.56,9989.82 L5099.86,10025.4 L5099.82,10025.4 L4997.88,10019.7 L4997.84,10019.7 L4906.69,9973.68 L4906.66,9973.65 L4841.51,9895.05 L4841.49,9895.01 L4813.21,9796.92 M-125,7778.27 L-124.9,7778.17 L-100,7778.17 L-100,-3221.83 L-92.388,-3260.09 L-70.7107,-3292.54 L-38.2683,-3314.21 L2.83277e-14,-3321.83 L38.2683,-3314.21 L70.7107,-3292.54 L92.388,-3260.09 L100,-3221.83 L100,7778.17 L124.9,7778.17 L125,7778.27 L125,29931 L124.9,29931.1 L-124.9,29931.1 L-125,29931 L-125,7778.27 M-5311.79,9796.92 L-5311.8,9796.88 L-5298.48,9695.65 L-5298.47,9695.61 L-5245.79,9608.16 L-5245.76,9608.13 L-5162.5,9549.05 L-5162.46,9549.03 L-5062.51,9528.18 L-5062.49,9528.18 L-5034.67,9529.73 L-5034.64,9529.73 L-4937.64,9561.59 L-4937.6,9561.61 L-4861.44,9629.6 L-4861.42,9629.64 L-4818.8,9722.41 L-4818.79,9722.45 L-4816.84,9824.53 L-4816.85,9824.57 L-4855.88,9918.91 L-4855.9,9918.94 L-4929.4,9989.79 L-4929.44,9989.82 L-5025.14,10025.4 L-5025.18,10025.4 L-5127.12,10019.7 L-5127.16,10019.7 L-5218.31,9973.68 L-5218.34,9973.65 L-5283.49,9895.05 L-5283.51,9895.01 L-5311.79,9796.92 M2000,-11000 L1990.37,-10804 L1961.57,-10609.8 L1913.88,-10419.4 L1847.76,-10234.6 L1763.84,-10057.2 L1662.94,-9888.86 L1546.02,-9731.21 L1414.21,-9585.79 L1268.79,-9453.98 L1111.14,-9337.06 L942.793,-9236.16 L765.367,-9152.24 L580.569,-9086.12 L390.181,-9038.43 L196.034,-9009.63 L-5.69646e-12,-9000 L-196.034,-9009.63 L-390.181,-9038.43 L-580.569,-9086.12 L-765.367,-9152.24 L-942.793,-9236.16 L-1111.14,-9337.06 L-1268.79,-9453.98 L-1414.21,-9585.79 L-1546.02,-9731.21 L-1662.94,-9888.86 L-1763.84,-10057.2 L-1847.76,-10234.6 L-1913.88,-10419.4 L-1961.57,-10609.8 L-1990.37,-10804 L-2000,-11000 L-1990.37,-11196 L-1961.57,-11390.2 L-1913.88,-11580.6 L-1847.76,-11765.4 L-1763.84,-11942.8 L-1662.94,-12111.1 L-1546.02,-12268.8 L-1414.21,-12414.2 L-1268.79,-12546 L-1111.14,-12662.9 L-942.793,-12763.8 L-765.367,-12847.8 L-580.569,-12913.9 L-390.181,-12961.6 L-196.034,-12990.4 L3.23109e-12,-13000 L196.034,-12990.4 L390.181,-12961.6 L580.569,-12913.9 L765.367,-12847.8 L942.793,-12763.8 L1111.14,-12662.9 L1268.79,-12546 L1414.21,-12414.2 L1546.02,-12268.8 L1662.94,-12111.1 L1763.84,-11942.8 L1847.76,-11765.4 L1913.88,-11580.6 L1961.57,-11390.2 L1990.37,-11196 L2000,-11000 M-6278.17,-3221.83 L-6285.4,-3074.8 L-6307,-2929.19 L-6342.76,-2786.4 L-6392.36,-2647.8 L-6455.29,-2514.73 L-6530.97,-2388.47 L-6618.66,-2270.24 L-6717.51,-2161.17 L-6826.58,-2062.31 L-6944.82,-1974.62 L-7071.08,-1898.94 L-7204.15,-1836.01 L-7342.75,-1786.41 L-7485.54,-1750.65 L-7631.15,-1729.05 L-7778.17,-1721.83 L-7925.2,-1729.05 L-8070.81,-1750.65 L-8213.6,-1786.41 L-8352.2,-1836.01 L-8485.27,-1898.94 L-8611.53,-1974.62 L-8729.76,-2062.31 L-8838.83,-2161.17 L-8937.69,-2270.24 L-9025.38,-2388.47 L-9101.06,-2514.73 L-9163.99,-2647.8 L-9213.59,-2786.4 L-9249.35,-2929.19 L-9270.95,-3074.8 L-9278.17,-3221.83 L-9270.95,-3368.85 L-9249.35,-3514.46 L-9213.59,-3657.25 L-9163.99,-3795.85 L-9101.06,-3928.92 L-9025.38,-4055.18 L-8937.69,-4173.42 L-8838.83,-4282.49 L-8729.76,-4381.34 L-8611.53,-4469.03 L-8485.27,-4544.71 L-8352.2,-4607.64 L-8213.6,-4657.24 L-8070.81,-4693 L-7925.2,-4714.6 L-7778.17,-4721.83 L-7631.15,-4714.6 L-7485.54,-4693 L-7342.75,-4657.24 L-7204.15,-4607.64 L-7071.08,-4544.71 L-6944.82,-4469.03 L-6826.58,-4381.34 L-6717.51,-4282.49 L-6618.66,-4173.42 L-6530.97,-4055.18 L-6455.29,-3928.92 L-6392.36,-3795.85 L-6342.76,-3657.25 L-6307,-3514.46 L-6285.4,-3368.85 L-6278.17,-3221.83 M9278.17,-3221.83 L9270.95,-3074.8 L9249.35,-2929.19 L9213.59,-2786.4 L9163.99,-2647.8 L9101.06,-2514.73 L9025.38,-2388.47 L8937.69,-2270.24 L8838.83,-2161.17 L8729.76,-2062.31 L8611.53,-1974.62 L8485.27,-1898.94 L8352.2,-1836.01 L8213.6,-1786.41 L8070.81,-1750.65 L7925.2,-1729.05 L7778.17,-1721.83 L7631.15,-1729.05 L7485.54,-1750.65 L7342.75,-1786.41 L7204.15,-1836.01 L7071.08,-1898.94 L6944.82,-1974.62 L6826.58,-2062.31 L6717.51,-2161.17 L6618.66,-2270.24 L6530.97,-2388.47 L6455.29,-2514.73 L6392.36,-2647.8 L6342.76,-2786.4 L6307,-2929.19 L6285.4,-3074.8 L6278.17,-3221.83 L6285.4,-3368.85 L6307,-3514.46 L6342.76,-3657.25 L6392.36,-3795.85 L6455.29,-3928.92 L6530.97,-4055.18 L6618.66,-4173.42 L6717.51,-4282.49 L6826.58,-4381.34 L6944.82,-4469.03 L7071.08,-4544.71 L7204.15,-4607.64 L7342.75,-4657.24 L7485.54,-4693 L7631.15,-4714.6 L7778.17,-4721.83 L7925.2,-4714.6 L8070.81,-4693 L8213.6,-4657.24 L8352.2,-4607.64 L8485.27,-4544.71 L8611.53,-4469.03 L8729.76,-4381.34 L8838.83,-4282.49 L8937.69,-4173.42 L9025.38,-4055.18 L9101.06,-3928.92 L9163.99,-3795.85 L9213.59,-3657.25 L9249.35,-3514.46 L9270.95,-3368.85 L9278.17,-3221.83"/>
</g>

<g fill="none" stroke="#000000" stroke-opacity="1" stroke-width="1" stroke-linecap="square" stroke-linejoin="bevel" transform="matrix(0.99999,0,0,-0.99999,30000.2,55402)"
font-family="MS Shell Dlg 2" font-size="10.3125" font-weight="400" font-style="normal" 
>
</g>

<g fill="none" stroke="#000000" stroke-opacity="1" stroke-width="1" stroke-linecap="square" stroke-linejoin="bevel" transform="matrix(0.99999,0,0,-0.99999,30000.2,55402)"
font-family="MS Shell Dlg 2" font-size="10.3125" font-weight="400" font-style="normal" 
>
</g>

<g fill="#333333" fill-opacity="0.2" stroke="#333333" stroke-opacity="1" stroke-width="1" stroke-linecap="round" stroke-linejoin="round" transform="matrix(0.99999,0,0,-0.99999,30000.2,55402)"
font-family="MS Shell Dlg 2" font-size="10.3125" font-weight="400" font-style="normal" 
>
<path vector-effect="non-scaling-stroke" fill-rule="evenodd" d="M-22380,36451.2 L-22379.9,36451.1 L-16026.4,36451.1 L-16026.3,36450.9 L-16026.3,671.209 L-16026.4,671.068 L-29999.9,671.068 L-30000,671.209 L-30000,55400.9 L-29999.9,55401.1 L29999.9,55401.1 L30000,55400.9 L30000,671.209 L29999.9,671.068 L16026.4,671.068 L16026.3,671.209 L16026.3,36450.9 L16026.4,36451.1 L22379.9,36451.1 L22380,36451.2 L22380,38801 L22379.9,38801.1 L10480,38801.1 L10472.4,38839.3 L10450.7,38871.8 L10418.3,38893.5 L10380,38901.1 L-10380,38901.1 L-10418.3,38893.5 L-10450.7,38871.8 L-10472.4,38839.3 L-10480,38801.1 L-22379.9,38801.1 L-22380,38801 L-22380,36451.2 M12380,47931.2 L12380.1,47931.1 L20379.9,47931.1 L20380,47931.2 L20380,50931 L20379.9,50931.1 L12380.1,50931.1 L12380,50931 L12380,47931.2 M-20380,47931.2 L-20379.9,47931.1 L-12380.1,47931.1 L-12380,47931.2 L-12380,50931 L-12380.1,50931.1 L-20379.9,50931.1 L-20380,50931 L-20380,47931.2"/>
</g>

<g fill="none" stroke="#000000" stroke-opacity="1" stroke-width="1" stroke-linecap="square" stroke-linejoin="bevel" transform="matrix(0.99999,0,0,-0.99999,30000.2,55402)"
font-family="MS Shell Dlg 2" font-size="10.3125" font-weight="400" font-style="normal" 
>
</g>

<g fill="none" stroke="#000000" stroke-opacity="1" stroke-width="1" stroke-linecap="square" stroke-linejoin="bevel" transform="matrix(0.99999,0,0,-0.99999,30000.2,55402)"
font-family="MS Shell Dlg 2" font-size="10.3125" font-weight="400" font-style="normal" 
>
</g>

<g fill="#ae5151" fill-opacity="0.2" stroke="#333333" stroke-opacity="1" stroke-width="1" stroke-linecap="round" stroke-linejoin="round" transform="matrix(0.99999,0,0,-0.99999,30000.2,55402)"
font-family="MS Shell Dlg 2" font-size="10.3125" font-weight="400" font-style="normal" 
>
<path vector-effect="non-scaling-stroke" fill-rule="evenodd" d="M10380,38701.1 L10380,36451.1 L10375,29931.2 L10374.9,29931.1 L10125.1,29931.1 L10125,29931 L10125,7778.55 L10125.1,7778.45 L10125.2,7778.5 L10275.1,8038.13 L10275.3,8038.18 L13278.1,6304.49 L13278.2,6304.38 L15026.3,-6973.67 L15026.3,-6973.76 L10275.5,-15202.4 L10233.4,-15177.1 L10100.3,-15114.2 L9961.71,-15064.6 L9818.91,-15028.8 L9673.31,-15007.2 L9526.28,-15000 L9379.25,-15007.2 L9233.64,-15028.8 L9090.85,-15064.6 L8952.25,-15114.2 L8819.18,-15177.1 L8692.92,-15252.8 L8574.69,-15340.5 L8465.62,-15439.3 L8366.76,-15548.4 L8279.08,-15666.6 L8203.4,-15792.9 L8140.46,-15926 L8090.87,-16064.6 L8055.1,-16207.4 L8033.5,-16353 L8026.28,-16500 L8033.5,-16647 L8055.1,-16792.6 L8090.87,-16935.4 L8140.46,-17074 L8203.4,-17207.1 L8279.08,-17333.4 L8366.76,-17451.6 L8465.62,-17560.7 L5500.01,-20526.3 L5499.98,-20526.3 L5000.05,-20814.9 L5000,-20815 L5000,-38999.9 L4999.96,-39000 L0.1,-43999.9 L-0.1,-43999.9 L-4999.96,-39000 L-5000,-38999.9 L-5000,-20815 L-5000.05,-20814.9 L-5499.98,-20526.3 L-5500.01,-20526.3 L-8465.62,-17560.7 L-8366.76,-17451.6 L-8279.08,-17333.4 L-8203.4,-17207.1 L-8140.46,-17074 L-8090.87,-16935.4 L-8055.1,-16792.6 L-8033.5,-16647 L-8026.28,-16500 L-8033.5,-16353 L-8055.1,-16207.4 L-8090.87,-16064.6 L-8140.46,-15926 L-8203.4,-15792.9 L-8279.08,-15666.6 L-8366.76,-15548.4 L-8465.62,-15439.3 L-8574.69,-15340.5 L-8692.92,-15252.8 L-8819.18,-15177.1 L-8952.25,-15114.2 L-9090.85,-15064.6 L-9233.64,-15028.8 L-9379.25,-15007.2 L-9526.28,-15000 L-9673.31,-15007.2 L-9818.91,-15028.8 L-9961.71,-15064.6 L-10100.3,-15114.2 L-10233.4,-15177.1 L-10275.5,-15202.4 L-15026.3,-6973.76 L-15026.3,-6973.67 L-13278.2,6304.38 L-13278.1,6304.49 L-10275.3,8038.18 L-10275.1,8038.13 L-10125.2,7778.5 L-10125.1,7778.45 L-10125,7778.55 L-10125,29931 L-10125.1,29931.1 L-10374.9,29931.1 L-10375,29931.2 L-10375,36451.1 L-10375,36451.1 L-10379.8,38701.1 L10380,38701.1 M4813.21,9796.92 L4813.2,9796.88 L4826.52,9695.65 L4826.53,9695.61 L4879.21,9608.16 L4879.24,9608.13 L4962.5,9549.05 L4962.54,9549.03 L5062.49,9528.18 L5062.51,9528.18 L5090.33,9529.73 L5090.36,9529.73 L5187.36,9561.59 L5187.4,9561.61 L5263.56,9629.6 L5263.58,9629.64 L5306.2,9722.41 L5306.21,9722.45 L5308.16,9824.53 L5308.15,9824.57 L5269.12,9918.91 L5269.1,9918.94 L5195.6,9989.79 L5195.56,9989.82 L5099.86,10025.4 L5099.82,10025.4 L4997.88,10019.7 L4997.84,10019.7 L4906.69,9973.68 L4906.66,9973.65 L4841.51,9895.05 L4841.49,9895.01 L4813.21,9796.92 M-125,7778.27 L-124.9,7778.17 L-100,7778.17 L-100,-3221.83 L-92.388,-3260.09 L-70.7107,-3292.54 L-38.2683,-3314.21 L2.83277e-14,-3321.83 L38.2683,-3314.21 L70.7107,-3292.54 L92.388,-3260.09 L100,-3221.83 L100,7778.17 L124.9,7778.17 L125,7778.27 L125,29931 L124.9,29931.1 L-124.9,29931.1 L-125,29931 L-125,7778.27 M-5311.79,9796.92 L-5311.8,9796.88 L-5298.48,9695.65 L-5298.47,9695.61 L-5245.79,9608.16 L-5245.76,9608.13 L-5162.5,9549.05 L-5162.46,9549.03 L-5062.51,9528.18 L-5062.49,9528.18 L-5034.67,9529.73 L-5034.64,9529.73 L-4937.64,9561.59 L-4937.6,9561.61 L-4861.44,9629.6 L-4861.42,9629.64 L-4818.8,9722.41 L-4818.79,9722.45 L-4816.84,9824.53 L-4816.85,9824.57 L-4855.88,9918.91 L-4855.9,9918.94 L-4929.4,9989.79 L-4929.44,9989.82 L-5025.14,10025.4 L-5025.18,10025.4 L-5127.12,10019.7 L-5127.16,10019.7 L-5218.31,9973.68 L-5218.34,9973.65 L-5283.49,9895.05 L-5283.51,9895.01 L-5311.79,9796.92 M2000,-11000 L1990.37,-10804 L1961.57,-10609.8 L1913.88,-10419.4 L1847.76,-10234.6 L1763.84,-10057.2 L1662.94,-9888.86 L1546.02,-9731.21 L1414.21,-9585.79 L1268.79,-9453.98 L1111.14,-9337.06 L942.793,-9236.16 L765.367,-9152.24 L580.569,-9086.12 L390.181,-9038.43 L196.034,-9009.63 L-5.69646e-12,-9000 L-196.034,-9009.63 L-390.181,-9038.43 L-580.569,-9086.12 L-765.367,-9152.24 L-942.793,-9236.16 L-1111.14,-9337.06 L-1268.79,-9453.98 L-1414.21,-9585.79 L-1546.02,-9731.21 L-1662.94,-9888.86 L-1763.84,-10057.2 L-1847.76,-10234.6 L-1913.88,-10419.4 L-1961.57,-10609.8 L-1990.37,-10804 L-2000,-11000 L-1990.37,-11196 L-1961.57,-11390.2 L-1913.88,-11580.6 L-1847.76,-11765.4 L-1763.84,-11942.8 L-1662.94,-12111.1 L-1546.02,-12268.8 L-1414.21,-12414.2 L-1268.79,-12546 L-1111.14,-12662.9 L-942.793,-12763.8 L-765.367,-12847.8 L-580.569,-12913.9 L-390.181,-12961.6 L-196.034,-12990.4 L3.23109e-12,-13000 L196.034,-12990.4 L390.181,-12961.6 L580.569,-12913.9 L765.367,-12847.8 L942.793,-12763.8 L1111.14,-12662.9 L1268.79,-12546 L1414.21,-12414.2 L1546.02,-12268.8 L1662.94,-12111.1 L1763.84,-11942.8 L1847.76,-11765.4 L1913.88,-11580.6 L1961.57,-11390.2 L1990.37,-11196 L2000,-11000 M-6278.17,-3221.83 L-6285.4,-3074.8 L-6307,-2929.19 L-6342.76,-2786.4 L-6392.36,-2647.8 L-6455.29,-2514.73 L-6530.97,-2388.47 L-6618.66,-2270.24 L-6717.51,-2161.17 L-6826.58,-2062.31 L-6944.82,-1974.62 L-7071.08,-1898.94 L-7204.15,-1836.01 L-7342.75,-1786.41 L-7485.54,-1750.65 L-7631.15,-1729.05 L-7778.17,-1721.83 L-7925.2,-1729.05 L-8070.81,-1750.65 L-8213.6,-1786.41 L-8352.2,-1836.01 L-8485.27,-1898.94 L-8611.53,-1974.62 L-8729.76,-2062.31 L-8838.83,-2161.17 L-8937.69,-2270.24 L-9025.38,-2388.47 L-9101.06,-2514.73 L-9163.99,-2647.8 L-9213.59,-2786.4 L-9249.35,-2929.19 L-9270.95,-3074.8 L-9278.17,-3221.83 L-9270.95,-3368.85 L-9249.35,-3514.46 L-9213.59,-3657.25 L-9163.99,-3795.85 L-9101.06,-3928.92 L-9025.38,-4055.18 L-8937.69,-4173.42 L-8838.83,-4282.49 L-8729.76,-4381.34 L-8611.53,-4469.03 L-8485.27,-4544.71 L-8352.2,-4607.64 L-8213.6,-4657.24 L-8070.81,-4693 L-7925.2,-4714.6 L-7778.17,-4721.83 L-7631.15,-4714.6 L-7485.54,-4693 L-7342.75,-4657.24 L-7204.15,-4607.64 L-7071.08,-4544.71 L-6944.82,-4469.03 L-6826.58,-4381.34 L-6717.51,-4282.49 L-6618.66,-4173.42 L-6530.97,-4055.18 L-6455.29,-3928.92 L-6392.36,-3795.85 L-6342.76,-3657.25 L-6307,-3514.46 L-6285.4,-3368.85 L-6278.17,-3221.83 M9278.17,-3221.83 L9270.95,-3074.8 L9249.35,-2929.19 L9213.59,-2786.4 L9163.99,-2647.8 L9101.06,-2514.73 L9025.38,-2388.47 L8937.69,-2270.24 L8838.83,-2161.17 L8729.76,-2062.31 L8611.53,-1974.62 L8485.27,-1898.94 L8352.2,-1836.01 L8213.6,-1786.41 L8070.81,-1750.65 L7925.2,-1729.05 L7778.17,-1721.83 L7631.15,-1729.05 L7485.54,-1750.65 L7342.75,-1786.41 L7204.15,-1836.01 L7071.08,-1898.94 L6944.82,-1974.62 L6826.58,-2062.31 L6717.51,-2161.17 L6618.66,-2270.24 L6530.97,-2388.47 L6455.29,-2514.73 L6392.36,-2647.8 L6342.76,-2786.4 L6307,-2929.19 L6285.4,-3074.8 L6278.17,-3221.83 L6285.4,-3368.85 L6307,-3514.46 L6342.76,-3657.25 L6392.36,-3795.85 L6455.29,-3928.92 L6530.97,-4055.18 L6618.66,-4173.42 L6717.51,-4282.49 L6826.58,-4381.34 L6944.82,-4469.03 L7071.08,-4544.71 L7204.15,-4607.64 L7342.75,-4657.24 L7485.54,-4693 L7631.15,-4714.6 L7778.17,-4721.83 L7925.2,-4714.6 L8070.81,-4693 L8213.6,-4657.24 L8352.2,-4607.64 L8485.27,-4544.71 L8611.53,-4469.03 L8729.76,-4381.34 L8838.83,-4282.49 L8937.69,-4173.42 L9025.38,-4055.18 L9101.06,-3928.92 L9163.99,-3795.85 L9213.59,-3657.25 L9249.35,-3514.46 L9270.95,-3368.85 L9278.17,-3221.83"/>
</g>

<g fill="none" stroke="#000000" stroke-opacity="1" stroke-width="1" stroke-linecap="square" stroke-linejoin="bevel" transform="matrix(0.99999,0,0,-0.99999,30000.2,55402)"
font-family="MS Shell Dlg 2" font-size="10.3125" font-weight="400" font-style="normal" 
>
</g>

<g fill="none" stroke="#000000" stroke-opacity="1" stroke-width="1" stroke-linecap="square" stroke-linejoin="bevel" transform="matrix(0.99999,0,0,-0.99999,30000.2,55402)"
font-family="MS Shell Dlg 2" font-size="10.3125" font-weight="400" font-style="normal" 
>
</g>

<g fill="#ae5151" fill-opacity="0.2" stroke="#333333" stroke-opacity="1" stroke-width="1" stroke-linecap="round" stroke-linejoin="round" transform="matrix(0.99999,0,0,-0.99999,30000.2,55402)"
font-family="MS Shell Dlg 2" font-size="10.3125" font-weight="400" font-style="normal" 
>
<path vector-effect="non-scaling-stroke" fill-rule="evenodd" d="M-22380,36451.2 L-22379.9,36451.1 L-16026.4,36451.1 L-16026.3,36450.9 L-16026.3,671.209 L-16026.4,671.068 L-29999.9,671.068 L-30000,671.209 L-30000,55400.9 L-29999.9,55401.1 L29999.9,55401.1 L30000,55400.9 L30000,671.209 L29999.9,671.068 L16026.4,671.068 L16026.3,671.209 L16026.3,36450.9 L16026.4,36451.1 L22379.9,36451.1 L22380,36451.2 L22380,38801 L22379.9,38801.1 L10480,38801.1 L10472.4,38839.3 L10450.7,38871.8 L10418.3,38893.5 L10380,38901.1 L-10380,38901.1 L-10418.3,38893.5 L-10450.7,38871.8 L-10472.4,38839.3 L-10480,38801.1 L-22379.9,38801.1 L-22380,38801 L-22380,36451.2 M12380,47931.2 L12380.1,47931.1 L20379.9,47931.1 L20380,47931.2 L20380,50931 L20379.9,50931.1 L12380.1,50931.1 L12380,50931 L12380,47931.2 M-20380,47931.2 L-20379.9,47931.1 L-12380.1,47931.1 L-12380,47931.2 L-12380,50931 L-12380.1,50931.1 L-20379.9,50931.1 L-20380,50931 L-20380,47931.2"/>
</g>

<g fill="none" stroke="#000000" stroke-opacity="1" stroke-width="1" stroke-linecap="square" stroke-linejoin="bevel" transform="matrix(0.99999,0,0,-0.99999,30000.2,55402)"
font-family="MS Shell Dlg 2" font-size="10.3125" font-weight="400" font-style="normal" 
>
</g>

<g fill="none" stroke="#000000" stroke-opacity="1" stroke-width="1" stroke-linecap="square" stroke-linejoin="bevel" transform="matrix(0.99999,0,0,-0.99999,30000.2,55402)"
font-family="MS Shell Dlg 2" font-size="10.3125" font-weight="400" font-style="normal" 
>
</g>

<g fill="#ffff00" fill-opacity="0.2" stroke="#333333" stroke-opacity="1" stroke-width="1" stroke-linecap="round" stroke-linejoin="round" transform="matrix(0.99999,0,0,-0.99999,30000.2,55402)"
font-family="MS Shell Dlg 2" font-size="10.3125" font-weight="400" font-style="normal" 
>
<path vector-effect="non-scaling-stroke" fill-rule="evenodd" d="M10380,38701.1 L10380,36451.1 L10375,29931.2 L10374.9,29931.1 L10125.1,29931.1 L10125,29931 L10125,7778.55 L10125.1,7778.45 L10125.2,7778.5 L10275.1,8038.13 L10275.3,8038.18 L13278.1,6304.49 L13278.2,6304.38 L15026.3,-6973.67 L15026.3,-6973.76 L10275.5,-15202.4 L10233.4,-15177.1 L10100.3,-15114.2 L9961.71,-15064.6 L9818.91,-15028.8 L9673.31,-15007.2 L9526.28,-15000 L9379.25,-15007.2 L9233.64,-15028.8 L9090.85,-15064.6 L8952.25,-15114.2 L8819.18,-15177.1 L8692.92,-15252.8 L8574.69,-15340.5 L8465.62,-15439.3 L8366.76,-15548.4 L8279.08,-15666.6 L8203.4,-15792.9 L8140.46,-15926 L8090.87,-16064.6 L8055.1,-16207.4 L8033.5,-16353 L8026.28,-16500 L8033.5,-16647 L8055.1,-16792.6 L8090.87,-16935.4 L8140.46,-17074 L8203.4,-17207.1 L8279.08,-17333.4 L8366.76,-17451.6 L8465.62,-17560.7 L5500.01,-20526.3 L5499.98,-20526.3 L5000.05,-20814.9 L5000,-20815 L5000,-38999.9 L4999.96,-39000 L0.1,-43999.9 L-0.1,-43999.9 L-4999.96,-39000 L-5000,-38999.9 L-5000,-20815 L-5000.05,-20814.9 L-5499.98,-20526.3 L-5500.01,-20526.3 L-8465.62,-17560.7 L-8366.76,-17451.6 L-8279.08,-17333.4 L-8203.4,-17207.1 L-8140.46,-17074 L-8090.87,-16935.4 L-8055.1,-16792.6 L-8033.5,-16647 L-8026.28,-16500 L-8033.5,-16353 L-8055.1,-16207.4 L-8090.87,-16064.6 L-8140.46,-15926 L-8203.4,-15792.9 L-8279.08,-15666.6 L-8366.76,-15548.4 L-8465.62,-15439.3 L-8574.69,-15340.5 L-8692.92,-15252.8 L-8819.18,-15177.1 L-8952.25,-15114.2 L-9090.85,-15064.6 L-9233.64,-15028.8 L-9379.25,-15007.2 L-9526.28,-15000 L-9673.31,-15007.2 L-9818.91,-15028.8 L-9961.71,-15064.6 L-10100.3,-15114.2 L-10233.4,-15177.1 L-10275.5,-15202.4 L-15026.3,-6973.76 L-15026.3,-6973.67 L-13278.2,6304.38 L-13278.1,6304.49 L-10275.3,8038.18 L-10275.1,8038.13 L-10125.2,7778.5 L-10125.1,7778.45 L-10125,7778.55 L-10125,29931 L-10125.1,29931.1 L-10374.9,29931.1 L-10375,29931.2 L-10375,36451.1 L-10375,36451.1 L-10379.8,38701.1 L10380,38701.1 M4813.21,9796.92 L4813.2,9796.88 L4826.52,9695.65 L4826.53,9695.61 L4879.21,9608.16 L4879.24,9608.13 L4962.5,9549.05 L4962.54,9549.03 L5062.49,9528.18 L5062.51,9528.18 L5090.33,9529.73 L5090.36,9529.73 L5187.36,9561.59 L5187.4,9561.61 L5263.56,9629.6 L5263.58,9629.64 L5306.2,9722.41 L5306.21,9722.45 L5308.16,9824.53 L5308.15,9824.57 L5269.12,9918.91 L5269.1,9918.94 L5195.6,9989.79 L5195.56,9989.82 L5099.86,10025.4 L5099.82,10025.4 L4997.88,10019.7 L4997.84,10019.7 L4906.69,9973.68 L4906.66,9973.65 L4841.51,9895.05 L4841.49,9895.01 L4813.21,9796.92 M-125,7778.27 L-124.9,7778.17 L-100,7778.17 L-100,-3221.83 L-92.388,-3260.09 L-70.7107,-3292.54 L-38.2683,-3314.21 L2.83277e-14,-3321.83 L38.2683,-3314.21 L70.7107,-3292.54 L92.388,-3260.09 L100,-3221.83 L100,7778.17 L124.9,7778.17 L125,7778.27 L125,29931 L124.9,29931.1 L-124.9,29931.1 L-125,29931 L-125,7778.27 M-5311.79,9796.92 L-5311.8,9796.88 L-5298.48,9695.65 L-5298.47,9695.61 L-5245.79,9608.16 L-5245.76,9608.13 L-5162.5,9549.05 L-5162.46,9549.03 L-5062.51,9528.18 L-5062.49,9528.18 L-5034.67,9529.73 L-5034.64,9529.73 L-4937.64,9561.59 L-4937.6,9561.61 L-4861.44,9629.6 L-4861.42,9629.64 L-4818.8,9722.41 L-4818.79,9722.45 L-4816.84,9824.53 L-4816.85,9824.57 L-4855.88,9918.91 L-4855.9,9918.94 L-4929.4,9989.79 L-4929.44,9989.82 L-5025.14,10025.4 L-5025.18,10025.4 L-5127.12,10019.7 L-5127.16,10019.7 L-5218.31,9973.68 L-5218.34,9973.65 L-5283.49,9895.05 L-5283.51,9895.01 L-5311.79,9796.92 M2000,-11000 L1990.37,-10804 L1961.57,-10609.8 L1913.88,-10419.4 L1847.76,-10234.6 L1763.84,-10057.2 L1662.94,-9888.86 L1546.02,-9731.21 L1414.21,-9585.79 L1268.79,-9453.98 L1111.14,-9337.06 L942.793,-9236.16 L765.367,-9152.24 L580.569,-9086.12 L390.181,-9038.43 L196.034,-9009.63 L-5.69646e-12,-9000 L-196.034,-9009.63 L-390.181,-9038.43 L-580.569,-9086.12 L-765.367,-9152.24 L-942.793,-9236.16 L-1111.14,-9337.06 L-1268.79,-9453.98 L-1414.21,-9585.79 L-1546.02,-9731.21 L-1662.94,-9888.86 L-1763.84,-10057.2 L-1847.76,-10234.6 L-1913.88,-10419.4 L-1961.57,-10609.8 L-1990.37,-10804 L-2000,-11000 L-1990.37,-11196 L-1961.57,-11390.2 L-1913.88,-11580.6 L-1847.76,-11765.4 L-1763.84,-11942.8 L-1662.94,-12111.1 L-1546.02,-12268.8 L-1414.21,-12414.2 L-1268.79,-12546 L-1111.14,-12662.9 L-942.793,-12763.8 L-765.367,-12847.8 L-580.569,-12913.9 L-390.181,-12961.6 L-196.034,-12990.4 L3.23109e-12,-13000 L196.034,-12990.4 L390.181,-12961.6 L580.569,-12913.9 L765.367,-12847.8 L942.793,-12763.8 L1111.14,-12662.9 L1268.79,-12546 L1414.21,-12414.2 L1546.02,-12268.8 L1662.94,-12111.1 L1763.84,-11942.8 L1847.76,-11765.4 L1913.88,-11580.6 L1961.57,-11390.2 L1990.37,-11196 L2000,-11000 M-6278.17,-3221.83 L-6285.4,-3074.8 L-6307,-2929.19 L-6342.76,-2786.4 L-6392.36,-2647.8 L-6455.29,-2514.73 L-6530.97,-2388.47 L-6618.66,-2270.24 L-6717.51,-2161.17 L-6826.58,-2062.31 L-6944.82,-1974.62 L-7071.08,-1898.94 L-7204.15,-1836.01 L-7342.75,-1786.41 L-7485.54,-1750.65 L-7631.15,-1729.05 L-7778.17,-1721.83 L-7925.2,-1729.05 L-8070.81,-1750.65 L-8213.6,-1786.41 L-8352.2,-1836.01 L-8485.27,-1898.94 L-8611.53,-1974.62 L-8729.76,-2062.31 L-8838.83,-2161.17 L-8937.69,-2270.24 L-9025.38,-2388.47 L-9101.06,-2514.73 L-9163.99,-2647.8 L-9213.59,-2786.4 L-9249.35,-2929.19 L-9270.95,-3074.8 L-9278.17,-3221.83 L-9270.95,-3368.85 L-9249.35,-3514.46 L-9213.59,-3657.25 L-9163.99,-3795.85 L-9101.06,-3928.92 L-9025.38,-4055.18 L-8937.69,-4173.42 L-8838.83,-4282.49 L-8729.76,-4381.34 L-8611.53,-4469.03 L-8485.27,-4544.71 L-8352.2,-4607.64 L-8213.6,-4657.24 L-8070.81,-4693 L-7925.2,-4714.6 L-7778.17,-4721.83 L-7631.15,-4714.6 L-7485.54,-4693 L-7342.75,-4657.24 L-7204.15,-4607.64 L-7071.08,-4544.71 L-6944.82,-4469.03 L-6826.58,-4381.34 L-6717.51,-4282.49 L-6618.66,-4173.42 L-6530.97,-4055.18 L-6455.29,-3928.92 L-6392.36,-3795.85 L-6342.76,-3657.25 L-6307,-3514.46 L-6285.4,-3368.85 L-6278.17,-3221.83 M9278.17,-3221.83 L9270.95,-3074.8 L9249.35,-2929.19 L9213.59,-2786.4 L9163.99,-2647.8 L9101.06,-2514.73 L9025.38,-2388.47 L8937.69,-2270.24 L8838.83,-2161.17 L8729.76,-2062.31 L8611.53,-1974.62 L8485.27,-1898.94 L8352.2,-1836.01 L8213.6,-1786.41 L8070.81,-1750.65 L7925.2,-1729.05 L7778.17,-1721.83 L7631.15,-1729.05 L7485.54,-1750.65 L7342.75,-1786.41 L7204.15,-1836.01 L7071.08,-1898.94 L6944.82,-1974.62 L6826.58,-2062.31 L6717.51,-2161.17 L6618.66,-2270.24 L6530.97,-2388.47 L6455.29,-2514.73 L6392.36,-2647.8 L6342.76,-2786.4 L6307,-2929.19 L6285.4,-3074.8 L6278.17,-3221.83 L6285.4,-3368.85 L6307,-3514.46 L6342.76,-3657.25 L6392.36,-3795.85 L6455.29,-3928.92 L6530.97,-4055.18 L6618.66,-4173.42 L6717.51,-4282.49 L6826.58,-4381.34 L6944.82,-4469.03 L7071.08,-4544.71 L7204.15,-4607.64 L7342.75,-4657.24 L7485.54,-4693 L7631.15,-4714.6 L7778.17,-4721.83 L7925.2,-4714.6 L8070.81,-4693 L8213.6,-4657.24 L8352.2,-4607.64 L8485.27,-4544.71 L8611.53,-4469.03 L8729.76,-4381.34 L8838.83,-4282.49 L8937.69,-4173.42 L9025.38,-4055.18 L9101.06,-3928.92 L9163.99,-3795.85 L9213.59,-3657.25 L9249.35,-3514.46 L9270.95,-3368.85 L9278.17,-3221.83"/>
</g>

<g fill="none" stroke="#000000" stroke-opacity="1" stroke-width="1" stroke-linecap="square" stroke-linejoin="bevel" transform="matrix(0.99999,0,0,-0.99999,30000.2,55402)"
font-family="MS Shell Dlg 2" font-size="10.3125" font-weight="400" font-style="normal" 
>
</g>

<g fill="none" stroke="#000000" stroke-opacity="1" stroke-width="1" stroke-linecap="square" stroke-linejoin="bevel" transform="matrix(0.99999,0,0,-0.99999,30000.2,55402)"
font-family="MS Shell Dlg 2" font-size="10.3125" font-weight="400" font-style="normal" 
>
</g>

<g fill="#ffff00" fill-opacity="0.2" stroke="#333333" stroke-opacity="1" stroke-width="1" stroke-linecap="round" stroke-linejoin="round" transform="matrix(0.99999,0,0,-0.99999,30000.2,55402)"
font-family="MS Shell Dlg 2" font-size="10.3125" font-weight="400" font-style="normal" 
>
<path vector-effect="non-scaling-stroke" fill-rule="evenodd" d="M-22380,36451.2 L-22379.9,36451.1 L-16026.4,36451.1 L-16026.3,36450.9 L-16026.3,671.209 L-16026.4,671.068 L-29999.9,671.068 L-30000,671.209 L-30000,55400.9 L-29999.9,55401.1 L29999.9,55401.1 L30000,55400.9 L30000,671.209 L29999.9,671.068 L16026.4,671.068 L16026.3,671.209 L16026.3,36450.9 L16026.4,36451.1 L22379.9,36451.1 L22380,36451.2 L22380,38801 L22379.9,38801.1 L10480,38801.1 L10472.4,38839.3 L10450.7,38871.8 L10418.3,38893.5 L10380,38901.1 L-10380,38901.1 L-10418.3,38893.5 L-10450.7,38871.8 L-10472.4,38839.3 L-10480,38801.1 L-22379.9,38801.1 L-22380,38801 L-22380,36451.2 M12380,47931.2 L12380.1,47931.1 L20379.9,47931.1 L20380,47931.2 L20380,50931 L20379.9,50931.1 L12380.1,50931.1 L12380,50931 L12380,47931.2 M-20380,47931.2 L-20379.9,47931.1 L-12380.1,47931.1 L-12380,47931.2 L-12380,50931 L-12380.1,50931.1 L-20379.9,50931.1 L-20380,50931 L-20380,47931.2"/>
</g>

<g fill="none" stroke="#000000" stroke-opacity="1" stroke-width="1" stroke-linecap="square" stroke-linejoin="bevel" transform="matrix(0.99999,0,0,-0.99999,30000.2,55402)"
font-family="MS Shell Dlg 2" font-size="10.3125" font-weight="400" font-style="normal" 
>
</g>

<g fill="none" stroke="#000000" stroke-opacity="1" stroke-width="1" stroke-linecap="square" stroke-linejoin="bevel" transform="matrix(0.99999,0,0,-0.99999,30000.2,55402)"
font-family="MS Shell Dlg 2" font-size="10.3125" font-weight="400" font-style="normal" 
>
</g>

<g fill="#ae5151" fill-opacity="0.2" stroke="#333333" stroke-opacity="1" stroke-width="1" stroke-linecap="round" stroke-linejoin="round" transform="matrix(0.99999,0,0,-0.99999,30000.2,55402)"
font-family="MS Shell Dlg 2" font-size="10.3125" font-weight="400" font-style="normal" 
>
<path vector-effect="non-scaling-stroke" fill-rule="evenodd" d="M10380,38701.1 L10380,36451.1 L10375,29931.2 L10374.9,29931.1 L10125.1,29931.1 L10125,29931 L10125,7778.55 L10125.1,7778.45 L10125.2,7778.5 L10275.1,8038.13 L10275.3,8038.18 L13278.1,6304.49 L13278.2,6304.38 L15026.3,-6973.67 L15026.3,-6973.76 L10275.5,-15202.4 L10233.4,-15177.1 L10100.3,-15114.2 L9961.71,-15064.6 L9818.91,-15028.8 L9673.31,-15007.2 L9526.28,-15000 L9379.25,-15007.2 L9233.64,-15028.8 L9090.85,-15064.6 L8952.25,-15114.2 L8819.18,-15177.1 L8692.92,-15252.8 L8574.69,-15340.5 L8465.62,-15439.3 L8366.76,-15548.4 L8279.08,-15666.6 L8203.4,-15792.9 L8140.46,-15926 L8090.87,-16064.6 L8055.1,-16207.4 L8033.5,-16353 L8026.28,-16500 L8033.5,-16647 L8055.1,-16792.6 L8090.87,-16935.4 L8140.46,-17074 L8203.4,-17207.1 L8279.08,-17333.4 L8366.76,-17451.6 L8465.62,-17560.7 L5500.01,-20526.3 L5499.98,-20526.3 L5000.05,-20814.9 L5000,-20815 L5000,-38999.9 L4999.96,-39000 L0.1,-43999.9 L-0.1,-43999.9 L-4999.96,-39000 L-5000,-38999.9 L-5000,-20815 L-5000.05,-20814.9 L-5499.98,-20526.3 L-5500.01,-20526.3 L-8465.62,-17560.7 L-8366.76,-17451.6 L-8279.08,-17333.4 L-8203.4,-17207.1 L-8140.46,-17074 L-8090.87,-16935.4 L-8055.1,-16792.6 L-8033.5,-16647 L-8026.28,-16500 L-8033.5,-16353 L-8055.1,-16207.4 L-8090.87,-16064.6 L-8140.46,-15926 L-8203.4,-15792.9 L-8279.08,-15666.6 L-8366.76,-15548.4 L-8465.62,-15439.3 L-8574.69,-15340.5 L-8692.92,-15252.8 L-8819.18,-15177.1 L-8952.25,-15114.2 L-9090.85,-15064.6 L-9233.64,-15028.8 L-9379.25,-15007.2 L-9526.28,-15000 L-9673.31,-15007.2 L-9818.91,-15028.8 L-9961.71,-15064.6 L-10100.3,-15114.2 L-10233.4,-15177.1 L-10275.5,-15202.4 L-15026.3,-6973.76 L-15026.3,-6973.67 L-13278.2,6304.38 L-13278.1,6304.49 L-10275.3,8038.18 L-10275.1,8038.13 L-10125.2,7778.5 L-10125.1,7778.45 L-10125,7778.55 L-10125,29931 L-10125.1,29931.1 L-10374.9,29931.1 L-10375,29931.2 L-10375,36451.1 L-10375,36451.1 L-10379.8,38701.1 L10380,38701.1 M4813.21,9796.92 L4813.2,9796.88 L4826.52,9695.65 L4826.53,9695.61 L4879.21,9608.16 L4879.24,9608.13 L4962.5,9549.05 L4962.54,9549.03 L5062.49,9528.18 L5062.51,9528.18 L5090.33,9529.73 L5090.36,9529.73 L5187.36,9561.59 L5187.4,9561.61 L5263.56,9629.6 L5263.58,9629.64 L5306.2,9722.41 L5306.21,9722.45 L5308.16,9824.53 L5308.15,9824.57 L5269.12,9918.91 L5269.1,9918.94 L5195.6,9989.79 L5195.56,9989.82 L5099.86,10025.4 L5099.82,10025.4 L4997.88,10019.7 L4997.84,10019.7 L4906.69,9973.68 L4906.66,9973.65 L4841.51,9895.05 L4841.49,9895.01 L4813.21,9796.92 M-125,7778.27 L-124.9,7778.17 L-100,7778.17 L-100,-3221.83 L-92.388,-3260.09 L-70.7107,-3292.54 L-38.2683,-3314.21 L2.83277e-14,-3321.83 L38.2683,-3314.21 L70.7107,-3292.54 L92.388,-3260.09 L100,-3221.83 L100,7778.17 L124.9,7778.17 L125,7778.27 L125,29931 L124.9,29931.1 L-124.9,29931.1 L-125,29931 L-125,7778.27 M-5311.79,9796.92 L-5311.8,9796.88 L-5298.48,9695.65 L-5298.47,9695.61 L-5245.79,9608.16 L-5245.76,9608.13 L-5162.5,9549.05 L-5162.46,9549.03 L-5062.51,9528.18 L-5062.49,9528.18 L-5034.67,9529.73 L-5034.64,9529.73 L-4937.64,9561.59 L-4937.6,9561.61 L-4861.44,9629.6 L-4861.42,9629.64 L-4818.8,9722.41 L-4818.79,9722.45 L-4816.84,9824.53 L-4816.85,9824.57 L-4855.88,9918.91 L-4855.9,9918.94 L-4929.4,9989.79 L-4929.44,9989.82 L-5025.14,10025.4 L-5025.18,10025.4 L-5127.12,10019.7 L-5127.16,10019.7 L-5218.31,9973.68 L-5218.34,9973.65 L-5283.49,9895.05 L-5283.51,9895.01 L-5311.79,9796.92 M2000,-11000 L1990.37,-10804 L1961.57,-10609.8 L1913.88,-10419.4 L1847.76,-10234.6 L1763.84,-10057.2 L1662.94,-9888.86 L1546.02,-9731.21 L1414.21,-9585.79 L1268.79,-9453.98 L1111.14,-9337.06 L942.793,-9236.16 L765.367,-9152.24 L580.569,-9086.12 L390.181,-9038.43 L196.034,-9009.63 L-5.69646e-12,-9000 L-196.034,-9009.63 L-390.181,-9038.43 L-580.569,-9086.12 L-765.367,-9152.24 L-942.793,-9236.16 L-1111.14,-9337.06 L-1268.79,-9453.98 L-1414.21,-9585.79 L-1546.02,-9731.21 L-1662.94,-9888.86 L-1763.84,-10057.2 L-1847.76,-10234.6 L-1913.88,-10419.4 L-1961.57,-10609.8 L-1990.37,-10804 L-2000,-11000 L-1990.37,-11196 L-1961.57,-11390.2 L-1913.88,-11580.6 L-1847.76,-11765.4 L-1763.84,-11942.8 L-1662.94,-12111.1 L-1546.02,-12268.8 L-1414.21,-12414.2 L-1268.79,-12546 L-1111.14,-12662.9 L-942.793,-12763.8 L-765.367,-12847.8 L-580.569,-12913.9 L-390.181,-12961.6 L-196.034,-12990.4 L3.23109e-12,-13000 L196.034,-12990.4 L390.181,-12961.6 L580.569,-12913.9 L765.367,-12847.8 L942.793,-12763.8 L1111.14,-12662.9 L1268.79,-12546 L1414.21,-12414.2 L1546.02,-12268.8 L1662.94,-12111.1 L1763.84,-11942.8 L1847.76,-11765.4 L1913.88,-11580.6 L1961.57,-11390.2 L1990.37,-11196 L2000,-11000 M-6278.17,-3221.83 L-6285.4,-3074.8 L-6307,-2929.19 L-6342.76,-2786.4 L-6392.36,-2647.8 L-6455.29,-2514.73 L-6530.97,-2388.47 L-6618.66,-2270.24 L-6717.51,-2161.17 L-6826.58,-2062.31 L-6944.82,-1974.62 L-7071.08,-1898.94 L-7204.15,-1836.01 L-7342.75,-1786.41 L-7485.54,-1750.65 L-7631.15,-1729.05 L-7778.17,-1721.83 L-7925.2,-1729.05 L-8070.81,-1750.65 L-8213.6,-1786.41 L-8352.2,-1836.01 L-8485.27,-1898.94 L-8611.53,-1974.62 L-8729.76,-2062.31 L-8838.83,-2161.17 L-8937.69,-2270.24 L-9025.38,-2388.47 L-9101.06,-2514.73 L-9163.99,-2647.8 L-9213.59,-2786.4 L-9249.35,-2929.19 L-9270.95,-3074.8 L-9278.17,-3221.83 L-9270.95,-3368.85 L-9249.35,-3514.46 L-9213.59,-3657.25 L-9163.99,-3795.85 L-9101.06,-3928.92 L-9025.38,-4055.18 L-8937.69,-4173.42 L-8838.83,-4282.49 L-8729.76,-4381.34 L-8611.53,-4469.03 L-8485.27,-4544.71 L-8352.2,-4607.64 L-8213.6,-4657.24 L-8070.81,-4693 L-7925.2,-4714.6 L-7778.17,-4721.83 L-7631.15,-4714.6 L-7485.54,-4693 L-7342.75,-4657.24 L-7204.15,-4607.64 L-7071.08,-4544.71 L-6944.82,-4469.03 L-6826.58,-4381.34 L-6717.51,-4282.49 L-6618.66,-4173.42 L-6530.97,-4055.18 L-6455.29,-3928.92 L-6392.36,-3795.85 L-6342.76,-3657.25 L-6307,-3514.46 L-6285.4,-3368.85 L-6278.17,-3221.83 M9278.17,-3221.83 L9270.95,-3074.8 L9249.35,-2929.19 L9213.59,-2786.4 L9163.99,-2647.8 L9101.06,-2514.73 L9025.38,-2388.47 L8937.69,-2270.24 L8838.83,-2161.17 L8729.76,-2062.31 L8611.53,-1974.62 L8485.27,-1898.94 L8352.2,-1836.01 L8213.6,-1786.41 L8070.81,-1750.65 L7925.2,-1729.05 L7778.17,-1721.83 L7631.15,-1729.05 L7485.54,-1750.65 L7342.75,-1786.41 L7204.15,-1836.01 L7071.08,-1898.94 L6944.82,-1974.62 L6826.58,-2062.31 L6717.51,-2161.17 L6618.66,-2270.24 L6530.97,-2388.47 L6455.29,-2514.73 L6392.36,-2647.8 L6342.76,-2786.4 L6307,-2929.19 L6285.4,-3074.8 L6278.17,-3221.83 L6285.4,-3368.85 L6307,-3514.46 L6342.76,-3657.25 L6392.36,-3795.85 L6455.29,-3928.92 L6530.97,-4055.18 L6618.66,-4173.42 L6717.51,-4282.49 L6826.58,-4381.34 L6944.82,-4469.03 L7071.08,-4544.71 L7204.15,-4607.64 L7342.75,-4657.24 L7485.54,-4693 L7631.15,-4714.6 L7778.17,-4721.83 L7925.2,-4714.6 L8070.81,-4693 L8213.6,-4657.24 L8352.2,-4607.64 L8485.27,-4544.71 L8611.53,-4469.03 L8729.76,-4381.34 L8838.83,-4282.49 L8937.69,-4173.42 L9025.38,-4055.18 L9101.06,-3928.92 L9163.99,-3795.85 L9213.59,-3657.25 L9249.35,-3514.46 L9270.95,-3368.85 L9278.17,-3221.83"/>
</g>

<g fill="none" stroke="#000000" stroke-opacity="1" stroke-width="1" stroke-linecap="square" stroke-linejoin="bevel" transform="matrix(0.99999,0,0,-0.99999,30000.2,55402)"
font-family="MS Shell Dlg 2" font-size="10.3125" font-weight="400" font-style="normal" 
>
</g>

<g fill="none" stroke="#000000" stroke-opacity="1" stroke-width="1" stroke-linecap="square" stroke-linejoin="bevel" transform="matrix(0.99999,0,0,-0.99999,30000.2,55402)"
font-family="MS Shell Dlg 2" font-size="10.3125" font-weight="400" font-style="normal" 
>
</g>

<g fill="#ae5151" fill-opacity="0.2" stroke="#333333" stroke-opacity="1" stroke-width="1" stroke-linecap="round" stroke-linejoin="round" transform="matrix(0.99999,0,0,-0.99999,30000.2,55402)"
font-family="MS Shell Dlg 2" font-size="10.3125" font-weight="400" font-style="normal" 
>
<path vector-effect="non-scaling-stroke" fill-rule="evenodd" d="M-22380,36451.2 L-22379.9,36451.1 L-16026.4,36451.1 L-16026.3,36450.9 L-16026.3,671.209 L-16026.4,671.068 L-29999.9,671.068 L-30000,671.209 L-30000,55400.9 L-29999.9,55401.1 L29999.9,55401.1 L30000,55400.9 L30000,671.209 L29999.9,671.068 L16026.4,671.068 L16026.3,671.209 L16026.3,36450.9 L16026.4,36451.1 L22379.9,36451.1 L22380,36451.2 L22380,38801 L22379.9,38801.1 L10480,38801.1 L10472.4,38839.3 L10450.7,38871.8 L10418.3,38893.5 L10380,38901.1 L-10380,38901.1 L-10418.3,38893.5 L-10450.7,38871.8 L-10472.4,38839.3 L-10480,38801.1 L-22379.9,38801.1 L-22380,38801 L-22380,36451.2 M12380,47931.2 L12380.1,47931.1 L20379.9,47931.1 L20380,47931.2 L20380,50931 L20379.9,50931.1 L12380.1,50931.1 L12380,50931 L12380,47931.2 M-20380,47931.2 L-20379.9,47931.1 L-12380.1,47931.1 L-12380,47931.2 L-12380,50931 L-12380.1,50931.1 L-20379.9,50931.1 L-20380,50931 L-20380,47931.2"/>
</g>

<g fill="none" stroke="#000000" stroke-opacity="1" stroke-width="1" stroke-linecap="square" stroke-linejoin="bevel" transform="matrix(0.99999,0,0,-0.99999,30000.2,55402)"
font-family="MS Shell Dlg 2" font-size="10.3125" font-weight="400" font-style="normal" 
>
</g>

<g fill="none" stroke="#000000" stroke-opacity="1" stroke-width="1" stroke-linecap="square" stroke-linejoin="bevel" transform="matrix(0.99999,0,0,-0.99999,30000.2,55402)"
font-family="MS Shell Dlg 2" font-size="10.3125" font-weight="400" font-style="normal" 
>
</g>

<g fill="#333333" fill-opacity="0.2" stroke="#333333" stroke-opacity="1" stroke-width="1" stroke-linecap="round" stroke-linejoin="round" transform="matrix(0.99999,0,0,-0.99999,30000.2,55402)"
font-family="MS Shell Dlg 2" font-size="10.3125" font-weight="400" font-style="normal" 
>
<path vector-effect="non-scaling-stroke" fill-rule="evenodd" d="M10380,38701.1 L10380,36451.1 L10375,29931.2 L10374.9,29931.1 L10125.1,29931.1 L10125,29931 L10125,7778.55 L10125.1,7778.45 L10125.2,7778.5 L10275.1,8038.13 L10275.3,8038.18 L13278.1,6304.49 L13278.2,6304.38 L15026.3,-6973.67 L15026.3,-6973.76 L10275.5,-15202.4 L10233.4,-15177.1 L10100.3,-15114.2 L9961.71,-15064.6 L9818.91,-15028.8 L9673.31,-15007.2 L9526.28,-15000 L9379.25,-15007.2 L9233.64,-15028.8 L9090.85,-15064.6 L8952.25,-15114.2 L8819.18,-15177.1 L8692.92,-15252.8 L8574.69,-15340.5 L8465.62,-15439.3 L8366.76,-15548.4 L8279.08,-15666.6 L8203.4,-15792.9 L8140.46,-15926 L8090.87,-16064.6 L8055.1,-16207.4 L8033.5,-16353 L8026.28,-16500 L8033.5,-16647 L8055.1,-16792.6 L8090.87,-16935.4 L8140.46,-17074 L8203.4,-17207.1 L8279.08,-17333.4 L8366.76,-17451.6 L8465.62,-17560.7 L5500.01,-20526.3 L5499.98,-20526.3 L5000.05,-20814.9 L5000,-20815 L5000,-38999.9 L4999.96,-39000 L0.1,-43999.9 L-0.1,-43999.9 L-4999.96,-39000 L-5000,-38999.9 L-5000,-20815 L-5000.05,-20814.9 L-5499.98,-20526.3 L-5500.01,-20526.3 L-8465.62,-17560.7 L-8366.76,-17451.6 L-8279.08,-17333.4 L-8203.4,-17207.1 L-8140.46,-17074 L-8090.87,-16935.4 L-8055.1,-16792.6 L-8033.5,-16647 L-8026.28,-16500 L-8033.5,-16353 L-8055.1,-16207.4 L-8090.87,-16064.6 L-8140.46,-15926 L-8203.4,-15792.9 L-8279.08,-15666.6 L-8366.76,-15548.4 L-8465.62,-15439.3 L-8574.69,-15340.5 L-8692.92,-15252.8 L-8819.18,-15177.1 L-8952.25,-15114.2 L-9090.85,-15064.6 L-9233.64,-15028.8 L-9379.25,-15007.2 L-9526.28,-15000 L-9673.31,-15007.2 L-9818.91,-15028.8 L-9961.71,-15064.6 L-10100.3,-15114.2 L-10233.4,-15177.1 L-10275.5,-15202.4 L-15026.3,-6973.76 L-15026.3,-6973.67 L-13278.2,6304.38 L-13278.1,6304.49 L-10275.3,8038.18 L-10275.1,8038.13 L-10125.2,7778.5 L-10125.1,7778.45 L-10125,7778.55 L-10125,29931 L-10125.1,29931.1 L-10374.9,29931.1 L-10375,29931.2 L-10375,36451.1 L-10375,36451.1 L-10379.8,38701.1 L10380,38701.1 M4813.21,9796.92 L4813.2,9796.88 L4826.52,9695.65 L4826.53,9695.61 L4879.21,9608.16 L4879.24,9608.13 L4962.5,9549.05 L4962.54,9549.03 L5062.49,9528.18 L5062.51,9528.18 L5090.33,9529.73 L5090.36,9529.73 L5187.36,9561.59 L5187.4,9561.61 L5263.56,9629.6 L5263.58,9629.64 L5306.2,9722.41 L5306.21,9722.45 L5308.16,9824.53 L5308.15,9824.57 L5269.12,9918.91 L5269.1,9918.94 L5195.6,9989.79 L5195.56,9989.82 L5099.86,10025.4 L5099.82,10025.4 L4997.88,10019.7 L4997.84,10019.7 L4906.69,9973.68 L4906.66,9973.65 L4841.51,9895.05 L4841.49,9895.01 L4813.21,9796.92 M-125,7778.27 L-124.9,7778.17 L-100,7778.17 L-100,-3221.83 L-92.388,-3260.09 L-70.7107,-3292.54 L-38.2683,-3314.21 L2.83277e-14,-3321.83 L38.2683,-3314.21 L70.7107,-3292.54 L92.388,-3260.09 L100,-3221.83 L100,7778.17 L124.9,7778.17 L125,7778.27 L125,29931 L124.9,29931.1 L-124.9,29931.1 L-125,29931 L-125,7778.27 M-5311.79,9796.92 L-5311.8,9796.88 L-5298.48,9695.65 L-5298.47,9695.61 L-5245.79,9608.16 L-5245.76,9608.13 L-5162.5,9549.05 L-5162.46,9549.03 L-5062.51,9528.18 L-5062.49,9528.18 L-5034.67,9529.73 L-5034.64,9529.73 L-4937.64,9561.59 L-4937.6,9561.61 L-4861.44,9629.6 L-4861.42,9629.64 L-4818.8,9722.41 L-4818.79,9722.45 L-4816.84,9824.53 L-4816.85,9824.57 L-4855.88,9918.91 L-4855.9,9918.94 L-4929.4,9989.79 L-4929.44,9989.82 L-5025.14,10025.4 L-5025.18,10025.4 L-5127.12,10019.7 L-5127.16,10019.7 L-5218.31,9973.68 L-5218.34,9973.65 L-5283.49,9895.05 L-5283.51,9895.01 L-5311.79,9796.92 M2000,-11000 L1990.37,-10804 L1961.57,-10609.8 L1913.88,-10419.4 L1847.76,-10234.6 L1763.84,-10057.2 L1662.94,-9888.86 L1546.02,-9731.21 L1414.21,-9585.79 L1268.79,-9453.98 L1111.14,-9337.06 L942.793,-9236.16 L765.367,-9152.24 L580.569,-9086.12 L390.181,-9038.43 L196.034,-9009.63 L-5.69646e-12,-9000 L-196.034,-9009.63 L-390.181,-9038.43 L-580.569,-9086.12 L-765.367,-9152.24 L-942.793,-9236.16 L-1111.14,-9337.06 L-1268.79,-9453.98 L-1414.21,-9585.79 L-1546.02,-9731.21 L-1662.94,-9888.86 L-1763.84,-10057.2 L-1847.76,-10234.6 L-1913.88,-10419.4 L-1961.57,-10609.8 L-1990.37,-10804 L-2000,-11000 L-1990.37,-11196 L-1961.57,-11390.2 L-1913.88,-11580.6 L-1847.76,-11765.4 L-1763.84,-11942.8 L-1662.94,-12111.1 L-1546.02,-12268.8 L-1414.21,-12414.2 L-1268.79,-12546 L-1111.14,-12662.9 L-942.793,-12763.8 L-765.367,-12847.8 L-580.569,-12913.9 L-390.181,-12961.6 L-196.034,-12990.4 L3.23109e-12,-13000 L196.034,-12990.4 L390.181,-12961.6 L580.569,-12913.9 L765.367,-12847.8 L942.793,-12763.8 L1111.14,-12662.9 L1268.79,-12546 L1414.21,-12414.2 L1546.02,-12268.8 L1662.94,-12111.1 L1763.84,-11942.8 L1847.76,-11765.4 L1913.88,-11580.6 L1961.57,-11390.2 L1990.37,-11196 L2000,-11000 M-6278.17,-3221.83 L-6285.4,-3074.8 L-6307,-2929.19 L-6342.76,-2786.4 L-6392.36,-2647.8 L-6455.29,-2514.73 L-6530.97,-2388.47 L-6618.66,-2270.24 L-6717.51,-2161.17 L-6826.58,-2062.31 L-6944.82,-1974.62 L-7071.08,-1898.94 L-7204.15,-1836.01 L-7342.75,-1786.41 L-7485.54,-1750.65 L-7631.15,-1729.05 L-7778.17,-1721.83 L-7925.2,-1729.05 L-8070.81,-1750.65 L-8213.6,-1786.41 L-8352.2,-1836.01 L-8485.27,-1898.94 L-8611.53,-1974.62 L-8729.76,-2062.31 L-8838.83,-2161.17 L-8937.69,-2270.24 L-9025.38,-2388.47 L-9101.06,-2514.73 L-9163.99,-2647.8 L-9213.59,-2786.4 L-9249.35,-2929.19 L-9270.95,-3074.8 L-9278.17,-3221.83 L-9270.95,-3368.85 L-9249.35,-3514.46 L-9213.59,-3657.25 L-9163.99,-3795.85 L-9101.06,-3928.92 L-9025.38,-4055.18 L-8937.69,-4173.42 L-8838.83,-4282.49 L-8729.76,-4381.34 L-8611.53,-4469.03 L-8485.27,-4544.71 L-8352.2,-4607.64 L-8213.6,-4657.24 L-8070.81,-4693 L-7925.2,-4714.6 L-7778.17,-4721.83 L-7631.15,-4714.6 L-7485.54,-4693 L-7342.75,-4657.24 L-7204.15,-4607.64 L-7071.08,-4544.71 L-6944.82,-4469.03 L-6826.58,-4381.34 L-6717.51,-4282.49 L-6618.66,-4173.42 L-6530.97,-4055.18 L-6455.29,-3928.92 L-6392.36,-3795.85 L-6342.76,-3657.25 L-6307,-3514.46 L-6285.4,-3368.85 L-6278.17,-3221.83 M9278.17,-3221.83 L9270.95,-3074.8 L9249.35,-2929.19 L9213.59,-2786.4 L9163.99,-2647.8 L9101.06,-2514.73 L9025.38,-2388.47 L8937.69,-2270.24 L8838.83,-2161.17 L8729.76,-2062.31 L8611.53,-1974.62 L8485.27,-1898.94 L8352.2,-1836.01 L8213.6,-1786.41 L8070.81,-1750.65 L7925.2,-1729.05 L7778.17,-1721.83 L7631.15,-1729.05 L7485.54,-1750.65 L7342.75,-1786.41 L7204.15,-1836.01 L7071.08,-1898.94 L6944.82,-1974.62 L6826.58,-2062.31 L6717.51,-2161.17 L6618.66,-2270.24 L6530.97,-2388.47 L6455.29,-2514.73 L6392.36,-2647.8 L6342.76,-2786.4 L6307,-2929.19 L6285.4,-3074.8 L6278.17,-3221.83 L6285.4,-3368.85 L6307,-3514.46 L6342.76,-3657.25 L6392.36,-3795.85 L6455.29,-3928.92 L6530.97,-4055.18 L6618.66,-4173.42 L6717.51,-4282.49 L6826.58,-4381.34 L6944.82,-4469.03 L7071.08,-4544.71 L7204.15,-4607.64 L7342.75,-4657.24 L7485.54,-4693 L7631.15,-4714.6 L7778.17,-4721.83 L7925.2,-4714.6 L8070.81,-4693 L8213.6,-4657.24 L8352.2,-4607.64 L8485.27,-4544.71 L8611.53,-4469.03 L8729.76,-4381.34 L8838.83,-4282.49 L8937.69,-4173.42 L9025.38,-4055.18 L9101.06,-3928.92 L9163.99,-3795.85 L9213.59,-3657.25 L9249.35,-3514.46 L9270.95,-3368.85 L9278.17,-3221.83"/>
</g>

<g fill="none" stroke="#000000" stroke-opacity="1" stroke-width="1" stroke-linecap="square" stroke-linejoin="bevel" transform="matrix(0.99999,0,0,-0.99999,30000.2,55402)"
font-family="MS Shell Dlg 2" font-size="10.3125" font-weight="400" font-style="normal" 
>
</g>

<g fill="none" stroke="#000000" stroke-opacity="1" stroke-width="1" stroke-linecap="square" stroke-linejoin="bevel" transform="matrix(0.99999,0,0,-0.99999,30000.2,55402)"
font-family="MS Shell Dlg 2" font-size="10.3125" font-weight="400" font-style="normal" 
>
</g>

<g fill="#333333" fill-opacity="0.2" stroke="#333333" stroke-opacity="1" stroke-width="1" stroke-linecap="round" stroke-linejoin="round" transform="matrix(0.99999,0,0,-0.99999,30000.2,55402)"
font-family="MS Shell Dlg 2" font-size="10.3125" font-weight="400" font-style="normal" 
>
<path vector-effect="non-scaling-stroke" fill-rule="evenodd" d="M-22380,36451.2 L-22379.9,36451.1 L-16026.4,36451.1 L-16026.3,36450.9 L-16026.3,671.209 L-16026.4,671.068 L-29999.9,671.068 L-30000,671.209 L-30000,55400.9 L-29999.9,55401.1 L29999.9,55401.1 L30000,55400.9 L30000,671.209 L29999.9,671.068 L16026.4,671.068 L16026.3,671.209 L16026.3,36450.9 L16026.4,36451.1 L22379.9,36451.1 L22380,36451.2 L22380,38801 L22379.9,38801.1 L10480,38801.1 L10472.4,38839.3 L10450.7,38871.8 L10418.3,38893.5 L10380,38901.1 L-10380,38901.1 L-10418.3,38893.5 L-10450.7,38871.8 L-10472.4,38839.3 L-10480,38801.1 L-22379.9,38801.1 L-22380,38801 L-22380,36451.2 M12380,47931.2 L12380.1,47931.1 L20379.9,47931.1 L20380,47931.2 L20380,50931 L20379.9,50931.1 L12380.1,50931.1 L12380,50931 L12380,47931.2 M-20380,47931.2 L-20379.9,47931.1 L-12380.1,47931.1 L-12380,47931.2 L-12380,50931 L-12380.1,50931.1 L-20379.9,50931.1 L-20380,50931 L-20380,47931.2"/>
</g>

<g fill="none" stroke="#000000" stroke-opacity="1" stroke-width="1" stroke-linecap="square" stroke-linejoin="bevel" transform="matrix(0.99999,0,0,-0.99999,30000.2,55402)"
font-family="MS Shell Dlg 2" font-size="10.3125" font-weight="400" font-style="normal" 
>
</g>

<g fill="none" stroke="#000000" stroke-opacity="1" stroke-width="1" stroke-linecap="square" stroke-linejoin="bevel" transform="matrix(0.99999,0,0,-0.99999,30000.2,55402)"
font-family="MS Shell Dlg 2" font-size="10.3125" font-weight="400" font-style="normal" 
>
</g>

<g fill="#333333" fill-opacity="0.2" stroke="#333333" stroke-opacity="1" stroke-width="1" stroke-linecap="round" stroke-linejoin="round" transform="matrix(0.99999,0,0,-0.99999,30000.2,55402)"
font-family="MS Shell Dlg 2" font-size="10.3125" font-weight="400" font-style="normal" 
>
<path vector-effect="non-scaling-stroke" fill-rule="evenodd" d="M-16026.2,12071.1 L-16026.3,12071 L-16026.3,671.209 L-16026.4,671.068 L-29999.9,671.068 L-30000,671.209 L-30000,55400.9 L-29999.9,55401.1 L29999.9,55401.1 L30000,55400.9 L30000,671.209 L29999.9,671.068 L16026.4,671.068 L16026.3,671.209 L16026.3,12071 L16026.2,12071.1 L12071.2,12071.1 L12071.1,12071 L13660.3,-7886.71 L13660.2,-7886.79 L9330.15,-16160.2 L9330.09,-16160.3 L5000.05,-18660.2 L5000,-18660.3 L5000,-38999.9 L4999.96,-39000 L0.1,-43999.9 L-0.1,-43999.9 L-4999.96,-39000 L-5000,-38999.9 L-5000,-18660.3 L-5000.05,-18660.2 L-9330.09,-16160.3 L-9330.15,-16160.2 L-13660.2,-7886.79 L-13660.3,-7886.71 L-12071.1,12071 L-12071.2,12071.1 L-16026.2,12071.1 M10380,36451.2 L10380.1,36451.1 L22379.9,36451.1 L22380,36451.2 L22380,38801 L22379.9,38801.1 L10380.1,38801.1 L10380,38801 L10380,36451.2 M12380,47931.2 L12380.1,47931.1 L20379.9,47931.1 L20380,47931.2 L20380,50931 L20379.9,50931.1 L12380.1,50931.1 L12380,50931 L12380,47931.2 M-10375,21821.2 L-10374.9,21821.1 L10374.9,21821.1 L10375,21821.2 L10375,29931 L10374.9,29931.1 L-10374.9,29931.1 L-10375,29931 L-10375,21821.2 M-22380,36451.2 L-22379.9,36451.1 L-10380.1,36451.1 L-10380,36451.2 L-10380,38801 L-10380.1,38801.1 L-22379.9,38801.1 L-22380,38801 L-22380,36451.2 M-20380,47931.2 L-20379.9,47931.1 L-12380.1,47931.1 L-12380,47931.2 L-12380,50931 L-12380.1,50931.1 L-20379.9,50931.1 L-20380,50931 L-20380,47931.2 M-5100,-2886.75 L-5100,-7113.25 L-5097.45,-7126.08 L-5096.59,-7139.13 L-5093.67,-7145.05 L-5092.39,-7151.52 L-5085.12,-7162.39 L-5079.34,-7174.12 L-5074.38,-7178.47 L-5070.71,-7183.96 L-5059.83,-7191.23 L-5050,-7199.85 L-4380.13,-7586.6 L-50,-10086.6 L-37.6136,-10090.8 L-25.8819,-10096.6 L-19.2993,-10097 L-13.0526,-10099.1 L-5.32907e-15,-10098.3 L13.0526,-10099.1 L19.2993,-10097 L25.8819,-10096.6 L37.6136,-10090.8 L50,-10086.6 L4380.13,-7586.6 L5050,-7199.85 L5059.83,-7191.23 L5070.71,-7183.96 L5074.38,-7178.47 L5079.34,-7174.12 L5085.12,-7162.39 L5092.39,-7151.52 L5093.67,-7145.05 L5096.59,-7139.13 L5097.45,-7126.08 L5100,-7113.25 L5100,-2886.75 L5100,5000 L5092.39,5038.27 L5070.71,5070.71 L5038.27,5092.39 L5000,5100 L4961.73,5092.39 L4929.29,5070.71 L4907.61,5038.27 L4900,5000 L4900,-2886.75 L4900,-7055.51 L4280.13,-7413.4 L-6.75016e-14,-9884.53 L-4280.13,-7413.4 L-4900,-7055.51 L-4900,-2886.75 L-4900,5000 L-4907.61,5038.27 L-4929.29,5070.71 L-4961.73,5092.39 L-5000,5100 L-5038.27,5092.39 L-5070.71,5070.71 L-5092.39,5038.27 L-5100,5000 L-5100,-2886.75"/>
</g>

<g fill="none" stroke="#000000" stroke-opacity="1" stroke-width="1" stroke-linecap="square" stroke-linejoin="bevel" transform="matrix(0.99999,0,0,-0.99999,30000.2,55402)"
font-family="MS Shell Dlg 2" font-size="10.3125" font-weight="400" font-style="normal" 
>
</g>

<g fill="none" stroke="#000000" stroke-opacity="1" stroke-width="1" stroke-linecap="square" stroke-linejoin="bevel" transform="matrix(0.99999,0,0,-0.99999,30000.2,55402)"
font-family="MS Shell Dlg 2" font-size="10.3125" font-weight="400" font-style="normal" 
>
</g>

<g fill="#ae5151" fill-opacity="0.2" stroke="#333333" stroke-opacity="1" stroke-width="1" stroke-linecap="round" stroke-linejoin="round" transform="matrix(0.99999,0,0,-0.99999,30000.2,55402)"
font-family="MS Shell Dlg 2" font-size="10.3125" font-weight="400" font-style="normal" 
>
<path vector-effect="non-scaling-stroke" fill-rule="evenodd" d="M-16026.2,12071.1 L-16026.3,12071 L-16026.3,671.209 L-16026.4,671.068 L-29999.9,671.068 L-30000,671.209 L-30000,55400.9 L-29999.9,55401.1 L29999.9,55401.1 L30000,55400.9 L30000,671.209 L29999.9,671.068 L16026.4,671.068 L16026.3,671.209 L16026.3,12071 L16026.2,12071.1 L12071.2,12071.1 L12071.1,12071 L13660.3,-7886.71 L13660.2,-7886.79 L9330.15,-16160.2 L9330.09,-16160.3 L5000.05,-18660.2 L5000,-18660.3 L5000,-38999.9 L4999.96,-39000 L0.1,-43999.9 L-0.1,-43999.9 L-4999.96,-39000 L-5000,-38999.9 L-5000,-18660.3 L-5000.05,-18660.2 L-9330.09,-16160.3 L-9330.15,-16160.2 L-13660.2,-7886.79 L-13660.3,-7886.71 L-12071.1,12071 L-12071.2,12071.1 L-16026.2,12071.1 M10380,36451.2 L10380.1,36451.1 L22379.9,36451.1 L22380,36451.2 L22380,38801 L22379.9,38801.1 L10380.1,38801.1 L10380,38801 L10380,36451.2 M12380,47931.2 L12380.1,47931.1 L20379.9,47931.1 L20380,47931.2 L20380,50931 L20379.9,50931.1 L12380.1,50931.1 L12380,50931 L12380,47931.2 M-10375,21821.2 L-10374.9,21821.1 L10374.9,21821.1 L10375,21821.2 L10375,29931 L10374.9,29931.1 L-10374.9,29931.1 L-10375,29931 L-10375,21821.2 M-22380,36451.2 L-22379.9,36451.1 L-10380.1,36451.1 L-10380,36451.2 L-10380,38801 L-10380.1,38801.1 L-22379.9,38801.1 L-22380,38801 L-22380,36451.2 M-20380,47931.2 L-20379.9,47931.1 L-12380.1,47931.1 L-12380,47931.2 L-12380,50931 L-12380.1,50931.1 L-20379.9,50931.1 L-20380,50931 L-20380,47931.2 M-5100,-2886.75 L-5100,-7113.25 L-5097.45,-7126.08 L-5096.59,-7139.13 L-5093.67,-7145.05 L-5092.39,-7151.52 L-5085.12,-7162.39 L-5079.34,-7174.12 L-5074.38,-7178.47 L-5070.71,-7183.96 L-5059.83,-7191.23 L-5050,-7199.85 L-4380.13,-7586.6 L-50,-10086.6 L-37.6136,-10090.8 L-25.8819,-10096.6 L-19.2993,-10097 L-13.0526,-10099.1 L-5.32907e-15,-10098.3 L13.0526,-10099.1 L19.2993,-10097 L25.8819,-10096.6 L37.6136,-10090.8 L50,-10086.6 L4380.13,-7586.6 L5050,-7199.85 L5059.83,-7191.23 L5070.71,-7183.96 L5074.38,-7178.47 L5079.34,-7174.12 L5085.12,-7162.39 L5092.39,-7151.52 L5093.67,-7145.05 L5096.59,-7139.13 L5097.45,-7126.08 L5100,-7113.25 L5100,-2886.75 L5100,5000 L5092.39,5038.27 L5070.71,5070.71 L5038.27,5092.39 L5000,5100 L4961.73,5092.39 L4929.29,5070.71 L4907.61,5038.27 L4900,5000 L4900,-2886.75 L4900,-7055.51 L4280.13,-7413.4 L-6.75016e-14,-9884.53 L-4280.13,-7413.4 L-4900,-7055.51 L-4900,-2886.75 L-4900,5000 L-4907.61,5038.27 L-4929.29,5070.71 L-4961.73,5092.39 L-5000,5100 L-5038.27,5092.39 L-5070.71,5070.71 L-5092.39,5038.27 L-5100,5000 L-5100,-2886.75"/>
</g>

<g fill="none" stroke="#000000" stroke-opacity="1" stroke-width="1" stroke-linecap="square" stroke-linejoin="bevel" transform="matrix(0.99999,0,0,-0.99999,30000.2,55402)"
font-family="MS Shell Dlg 2" font-size="10.3125" font-weight="400" font-style="normal" 
>
</g>

<g fill="none" stroke="#000000" stroke-opacity="1" stroke-width="1" stroke-linecap="square" stroke-linejoin="bevel" transform="matrix(0.99999,0,0,-0.99999,30000.2,55402)"
font-family="MS Shell Dlg 2" font-size="10.3125" font-weight="400" font-style="normal" 
>
</g>

<g fill="#ffff00" fill-opacity="0.2" stroke="#333333" stroke-opacity="1" stroke-width="1" stroke-linecap="round" stroke-linejoin="round" transform="matrix(0.99999,0,0,-0.99999,30000.2,55402)"
font-family="MS Shell Dlg 2" font-size="10.3125" font-weight="400" font-style="normal" 
>
<path vector-effect="non-scaling-stroke" fill-rule="evenodd" d="M-16026.2,12071.1 L-16026.3,12071 L-16026.3,671.209 L-16026.4,671.068 L-29999.9,671.068 L-30000,671.209 L-30000,55400.9 L-29999.9,55401.1 L29999.9,55401.1 L30000,55400.9 L30000,671.209 L29999.9,671.068 L16026.4,671.068 L16026.3,671.209 L16026.3,12071 L16026.2,12071.1 L12071.2,12071.1 L12071.1,12071 L13660.3,-7886.71 L13660.2,-7886.79 L9330.15,-16160.2 L9330.09,-16160.3 L5000.05,-18660.2 L5000,-18660.3 L5000,-38999.9 L4999.96,-39000 L0.1,-43999.9 L-0.1,-43999.9 L-4999.96,-39000 L-5000,-38999.9 L-5000,-18660.3 L-5000.05,-18660.2 L-9330.09,-16160.3 L-9330.15,-16160.2 L-13660.2,-7886.79 L-13660.3,-7886.71 L-12071.1,12071 L-12071.2,12071.1 L-16026.2,12071.1 M10380,36451.2 L10380.1,36451.1 L22379.9,36451.1 L22380,36451.2 L22380,38801 L22379.9,38801.1 L10380.1,38801.1 L10380,38801 L10380,36451.2 M12380,47931.2 L12380.1,47931.1 L20379.9,47931.1 L20380,47931.2 L20380,50931 L20379.9,50931.1 L12380.1,50931.1 L12380,50931 L12380,47931.2 M-10375,21821.2 L-10374.9,21821.1 L10374.9,21821.1 L10375,21821.2 L10375,29931 L10374.9,29931.1 L-10374.9,29931.1 L-10375,29931 L-10375,21821.2 M-22380,36451.2 L-22379.9,36451.1 L-10380.1,36451.1 L-10380,36451.2 L-10380,38801 L-10380.1,38801.1 L-22379.9,38801.1 L-22380,38801 L-22380,36451.2 M-20380,47931.2 L-20379.9,47931.1 L-12380.1,47931.1 L-12380,47931.2 L-12380,50931 L-12380.1,50931.1 L-20379.9,50931.1 L-20380,50931 L-20380,47931.2 M-5100,-2886.75 L-5100,-7113.25 L-5097.45,-7126.08 L-5096.59,-7139.13 L-5093.67,-7145.05 L-5092.39,-7151.52 L-5085.12,-7162.39 L-5079.34,-7174.12 L-5074.38,-7178.47 L-5070.71,-7183.96 L-5059.83,-7191.23 L-5050,-7199.85 L-4380.13,-7586.6 L-50,-10086.6 L-37.6136,-10090.8 L-25.8819,-10096.6 L-19.2993,-10097 L-13.0526,-10099.1 L-5.32907e-15,-10098.3 L13.0526,-10099.1 L19.2993,-10097 L25.8819,-10096.6 L37.6136,-10090.8 L50,-10086.6 L4380.13,-7586.6 L5050,-7199.85 L5059.83,-7191.23 L5070.71,-7183.96 L5074.38,-7178.47 L5079.34,-7174.12 L5085.12,-7162.39 L5092.39,-7151.52 L5093.67,-7145.05 L5096.59,-7139.13 L5097.45,-7126.08 L5100,-7113.25 L5100,-2886.75 L5100,5000 L5092.39,5038.27 L5070.71,5070.71 L5038.27,5092.39 L5000,5100 L4961.73,5092.39 L4929.29,5070.71 L4907.61,5038.27 L4900,5000 L4900,-2886.75 L4900,-7055.51 L4280.13,-7413.4 L-6.75016e-14,-9884.53 L-4280.13,-7413.4 L-4900,-7055.51 L-4900,-2886.75 L-4900,5000 L-4907.61,5038.27 L-4929.29,5070.71 L-4961.73,5092.39 L-5000,5100 L-5038.27,5092.39 L-5070.71,5070.71 L-5092.39,5038.27 L-5100,5000 L-5100,-2886.75"/>
</g>

<g fill="none" stroke="#000000" stroke-opacity="1" stroke-width="1" stroke-linecap="square" stroke-linejoin="bevel" transform="matrix(0.99999,0,0,-0.99999,30000.2,55402)"
font-family="MS Shell Dlg 2" font-size="10.3125" font-weight="400" font-style="normal" 
>
</g>

<g fill="none" stroke="#000000" stroke-opacity="1" stroke-width="1" stroke-linecap="square" stroke-linejoin="bevel" transform="matrix(0.99999,0,0,-0.99999,30000.2,55402)"
font-family="MS Shell Dlg 2" font-size="10.3125" font-weight="400" font-style="normal" 
>
</g>

<g fill="#ae5151" fill-opacity="0.2" stroke="#333333" stroke-opacity="1" stroke-width="1" stroke-linecap="round" stroke-linejoin="round" transform="matrix(0.99999,0,0,-0.99999,30000.2,55402)"
font-family="MS Shell Dlg 2" font-size="10.3125" font-weight="400" font-style="normal" 
>
<path vector-effect="non-scaling-stroke" fill-rule="evenodd" d="M-16026.2,12071.1 L-16026.3,12071 L-16026.3,671.209 L-16026.4,671.068 L-29999.9,671.068 L-30000,671.209 L-30000,55400.9 L-29999.9,55401.1 L29999.9,55401.1 L30000,55400.9 L30000,671.209 L29999.9,671.068 L16026.4,671.068 L16026.3,671.209 L16026.3,12071 L16026.2,12071.1 L12071.2,12071.1 L12071.1,12071 L13660.3,-7886.71 L13660.2,-7886.79 L9330.15,-16160.2 L9330.09,-16160.3 L5000.05,-18660.2 L5000,-18660.3 L5000,-38999.9 L4999.96,-39000 L0.1,-43999.9 L-0.1,-43999.9 L-4999.96,-39000 L-5000,-38999.9 L-5000,-18660.3 L-5000.05,-18660.2 L-9330.09,-16160.3 L-9330.15,-16160.2 L-13660.2,-7886.79 L-13660.3,-7886.71 L-12071.1,12071 L-12071.2,12071.1 L-16026.2,12071.1 M10380,36451.2 L10380.1,36451.1 L22379.9,36451.1 L22380,36451.2 L22380,38801 L22379.9,38801.1 L10380.1,38801.1 L10380,38801 L10380,36451.2 M12380,47931.2 L12380.1,47931.1 L20379.9,47931.1 L20380,47931.2 L20380,50931 L20379.9,50931.1 L12380.1,50931.1 L12380,50931 L12380,47931.2 M-10375,21821.2 L-10374.9,21821.1 L10374.9,21821.1 L10375,21821.2 L10375,29931 L10374.9,29931.1 L-10374.9,29931.1 L-10375,29931 L-10375,21821.2 M-22380,36451.2 L-22379.9,36451.1 L-10380.1,36451.1 L-10380,36451.2 L-10380,38801 L-10380.1,38801.1 L-22379.9,38801.1 L-22380,38801 L-22380,36451.2 M-20380,47931.2 L-20379.9,47931.1 L-12380.1,47931.1 L-12380,47931.2 L-12380,50931 L-12380.1,50931.1 L-20379.9,50931.1 L-20380,50931 L-20380,47931.2 M-5100,-2886.75 L-5100,-7113.25 L-5097.45,-7126.08 L-5096.59,-7139.13 L-5093.67,-7145.05 L-5092.39,-7151.52 L-5085.12,-7162.39 L-5079.34,-7174.12 L-5074.38,-7178.47 L-5070.71,-7183.96 L-5059.83,-7191.23 L-5050,-7199.85 L-4380.13,-7586.6 L-50,-10086.6 L-37.6136,-10090.8 L-25.8819,-10096.6 L-19.2993,-10097 L-13.0526,-10099.1 L-5.32907e-15,-10098.3 L13.0526,-10099.1 L19.2993,-10097 L25.8819,-10096.6 L37.6136,-10090.8 L50,-10086.6 L4380.13,-7586.6 L5050,-7199.85 L5059.83,-7191.23 L5070.71,-7183.96 L5074.38,-7178.47 L5079.34,-7174.12 L5085.12,-7162.39 L5092.39,-7151.52 L5093.67,-7145.05 L5096.59,-7139.13 L5097.45,-7126.08 L5100,-7113.25 L5100,-2886.75 L5100,5000 L5092.39,5038.27 L5070.71,5070.71 L5038.27,5092.39 L5000,5100 L4961.73,5092.39 L4929.29,5070.71 L4907.61,5038.27 L4900,5000 L4900,-2886.75 L4900,-7055.51 L4280.13,-7413.4 L-6.75016e-14,-9884.53 L-4280.13,-7413.4 L-4900,-7055.51 L-4900,-2886.75 L-4900,5000 L-4907.61,5038.27 L-4929.29,5070.71 L-4961.73,5092.39 L-5000,5100 L-5038.27,5092.39 L-5070.71,5070.71 L-5092.39,5038.27 L-5100,5000 L-5100,-2886.75"/>
</g>

<g fill="none" stroke="#000000" stroke-opacity="1" stroke-width="1" stroke-linecap="square" stroke-linejoin="bevel" transform="matrix(0.99999,0,0,-0.99999,30000.2,55402)"
font-family="MS Shell Dlg 2" font-size="10.3125" font-weight="400" font-style="normal" 
>
</g>

<g fill="none" stroke="#000000" stroke-opacity="1" stroke-width="1" stroke-linecap="square" stroke-linejoin="bevel" transform="matrix(0.99999,0,0,-0.99999,30000.2,55402)"
font-family="MS Shell Dlg 2" font-size="10.3125" font-weight="400" font-style="normal" 
>
</g>

<g fill="#333333" fill-opacity="0.2" stroke="#333333" stroke-opacity="1" stroke-width="1" stroke-linecap="round" stroke-linejoin="round" transform="matrix(0.99999,0,0,-0.99999,30000.2,55402)"
font-family="MS Shell Dlg 2" font-size="10.3125" font-weight="400" font-style="normal" 
>
<path vector-effect="non-scaling-stroke" fill-rule="evenodd" d="M-16026.2,12071.1 L-16026.3,12071 L-16026.3,671.209 L-16026.4,671.068 L-29999.9,671.068 L-30000,671.209 L-30000,55400.9 L-29999.9,55401.1 L29999.9,55401.1 L30000,55400.9 L30000,671.209 L29999.9,671.068 L16026.4,671.068 L16026.3,671.209 L16026.3,12071 L16026.2,12071.1 L12071.2,12071.1 L12071.1,12071 L13660.3,-7886.71 L13660.2,-7886.79 L9330.15,-16160.2 L9330.09,-16160.3 L5000.05,-18660.2 L5000,-18660.3 L5000,-38999.9 L4999.96,-39000 L0.1,-43999.9 L-0.1,-43999.9 L-4999.96,-39000 L-5000,-38999.9 L-5000,-18660.3 L-5000.05,-18660.2 L-9330.09,-16160.3 L-9330.15,-16160.2 L-13660.2,-7886.79 L-13660.3,-7886.71 L-12071.1,12071 L-12071.2,12071.1 L-16026.2,12071.1 M10380,36451.2 L10380.1,36451.1 L22379.9,36451.1 L22380,36451.2 L22380,38801 L22379.9,38801.1 L10380.1,38801.1 L10380,38801 L10380,36451.2 M12380,47931.2 L12380.1,47931.1 L20379.9,47931.1 L20380,47931.2 L20380,50931 L20379.9,50931.1 L12380.1,50931.1 L12380,50931 L12380,47931.2 M-10375,21821.2 L-10374.9,21821.1 L10374.9,21821.1 L10375,21821.2 L10375,29931 L10374.9,29931.1 L-10374.9,29931.1 L-10375,29931 L-10375,21821.2 M-22380,36451.2 L-22379.9,36451.1 L-10380.1,36451.1 L-10380,36451.2 L-10380,38801 L-10380.1,38801.1 L-22379.9,38801.1 L-22380,38801 L-22380,36451.2 M-20380,47931.2 L-20379.9,47931.1 L-12380.1,47931.1 L-12380,47931.2 L-12380,50931 L-12380.1,50931.1 L-20379.9,50931.1 L-20380,50931 L-20380,47931.2 M-5100,-2886.75 L-5100,-7113.25 L-5097.45,-7126.08 L-5096.59,-7139.13 L-5093.67,-7145.05 L-5092.39,-7151.52 L-5085.12,-7162.39 L-5079.34,-7174.12 L-5074.38,-7178.47 L-5070.71,-7183.96 L-5059.83,-7191.23 L-5050,-7199.85 L-4380.13,-7586.6 L-50,-10086.6 L-37.6136,-10090.8 L-25.8819,-10096.6 L-19.2993,-10097 L-13.0526,-10099.1 L-5.32907e-15,-10098.3 L13.0526,-10099.1 L19.2993,-10097 L25.8819,-10096.6 L37.6136,-10090.8 L50,-10086.6 L4380.13,-7586.6 L5050,-7199.85 L5059.83,-7191.23 L5070.71,-7183.96 L5074.38,-7178.47 L5079.34,-7174.12 L5085.12,-7162.39 L5092.39,-7151.52 L5093.67,-7145.05 L5096.59,-7139.13 L5097.45,-7126.08 L5100,-7113.25 L5100,-2886.75 L5100,5000 L5092.39,5038.27 L5070.71,5070.71 L5038.27,5092.39 L5000,5100 L4961.73,5092.39 L4929.29,5070.71 L4907.61,5038.27 L4900,5000 L4900,-2886.75 L4900,-7055.51 L4280.13,-7413.4 L-6.75016e-14,-9884.53 L-4280.13,-7413.4 L-4900,-7055.51 L-4900,-2886.75 L-4900,5000 L-4907.61,5038.27 L-4929.29,5070.71 L-4961.73,5092.39 L-5000,5100 L-5038.27,5092.39 L-5070.71,5070.71 L-5092.39,5038.27 L-5100,5000 L-5100,-2886.75"/>
</g>

<g fill="none" stroke="#000000" stroke-opacity="1" stroke-width="1" stroke-linecap="square" stroke-linejoin="bevel" transform="matrix(0.99999,0,0,-0.99999,30000.2,55402)"
font-family="MS Shell Dlg 2" font-size="10.3125" font-weight="400" font-style="normal" 
>
</g>

<g fill="none" stroke="#000000" stroke-opacity="1" stroke-width="1" stroke-linecap="square" stroke-linejoin="bevel" transform="matrix(1,0,0,-1,0,99402)"
font-family="MS Shell Dlg 2" font-size="10.3125" font-weight="400" font-style="normal" 
>
</g>
</g>
</svg>
