<?xml version="1.0" encoding="UTF-8" standalone="no"?>
<svg width="7050.48mm" height="656.731mm"
 xmlns="http://www.w3.org/2000/svg" xmlns:xlink="http://www.w3.org/1999/xlink"  version="1.2" baseProfile="tiny">
<title>SVG Generator Example Drawing</title>
<desc>An SVG drawing created by the SVG Generator</desc>
<defs>
</defs>
<g fill="none" stroke="black" stroke-width="1" fill-rule="evenodd" stroke-linecap="square" stroke-linejoin="bevel" >

<g fill="none" stroke="#000000" stroke-opacity="1" stroke-width="1" stroke-linecap="square" stroke-linejoin="bevel" transform="matrix(1,0,0,-1,0,2327.2)"
font-family="MS Shell Dlg 2" font-size="10.3125" font-weight="400" font-style="normal" 
>
</g>

<g fill="none" stroke="#000000" stroke-opacity="1" stroke-width="1" stroke-linecap="square" stroke-linejoin="bevel" transform="matrix(1,0,0,-1,0,2327.2)"
font-family="MS Shell Dlg 2" font-size="10.3125" font-weight="400" font-style="normal" 
>
</g>

<g fill="none" stroke="#000000" stroke-opacity="1" stroke-width="1" stroke-linecap="square" stroke-linejoin="bevel" transform="matrix(0.999912,0,0,-0.999912,12544.8,41124.4)"
font-family="MS Shell Dlg 2" font-size="10.3125" font-weight="400" font-style="normal" 
>
</g>

<g fill="#ae5151" fill-opacity="0.2" stroke="#333333" stroke-opacity="1" stroke-width="1" stroke-linecap="round" stroke-linejoin="round" transform="matrix(0.999912,0,0,-0.999912,12544.8,41124.4)"
font-family="MS Shell Dlg 2" font-size="10.3125" font-weight="400" font-style="normal" 
>
<path vector-effect="non-scaling-stroke" fill-rule="evenodd" d="M-10472.4,38839.4 L-10472.4,38839.3 L-10480,38801.2 L-10480.1,38801.1 L-12545.3,38801.1 L-12545.5,38801.2 L-12545.5,41127.1 L-12545.3,41127.3 L12436.2,41127.3 L12436.4,41127.1 L12436.4,38801.2 L12436.2,38801.1 L10480.1,38801.1 L10480,38801.2 L10472.4,38839.3 L10472.4,38839.4 L10450.7,38871.8 L10450.7,38871.8 L10418.3,38893.4 L10418.2,38893.5 L10380,38901.1 L10380,38901.1 L-10380,38901.1 L-10380,38901.1 L-10418.2,38893.5 L-10418.3,38893.4 L-10450.7,38871.8 L-10450.7,38871.8 L-10472.4,38839.4"/>
</g>

<g fill="none" stroke="#000000" stroke-opacity="1" stroke-width="1" stroke-linecap="square" stroke-linejoin="bevel" transform="matrix(0.999912,0,0,-0.999912,12544.8,41124.4)"
font-family="MS Shell Dlg 2" font-size="10.3125" font-weight="400" font-style="normal" 
>
</g>

<g fill="none" stroke="#000000" stroke-opacity="1" stroke-width="1" stroke-linecap="square" stroke-linejoin="bevel" transform="matrix(1,0,0,-1,0,2327.2)"
font-family="MS Shell Dlg 2" font-size="10.3125" font-weight="400" font-style="normal" 
>
</g>
</g>
</svg>
