<?xml version="1.0" encoding="UTF-8" standalone="no"?>
<svg width="16933.6mm" height="19664.4mm"
 xmlns="http://www.w3.org/2000/svg" xmlns:xlink="http://www.w3.org/1999/xlink"  version="1.2" baseProfile="tiny">
<title>SVG Generator Example Drawing</title>
<desc>An SVG drawing created by the SVG Generator</desc>
<defs>
</defs>
<g fill="none" stroke="black" stroke-width="1" fill-rule="evenodd" stroke-linecap="square" stroke-linejoin="bevel" >

<g fill="none" stroke="#000000" stroke-opacity="1" stroke-width="1" stroke-linecap="square" stroke-linejoin="bevel" transform="matrix(1,0,0,-1,0,69677.1)"
font-family="MS Shell Dlg 2" font-size="10.3125" font-weight="400" font-style="normal" 
>
</g>

<g fill="none" stroke="#000000" stroke-opacity="1" stroke-width="1" stroke-linecap="square" stroke-linejoin="bevel" transform="matrix(1,0,0,-1,0,69677.1)"
font-family="MS Shell Dlg 2" font-size="10.3125" font-weight="400" font-style="normal" 
>
</g>

<g fill="none" stroke="#000000" stroke-opacity="1" stroke-width="1" stroke-linecap="square" stroke-linejoin="bevel" transform="matrix(0.999999,0,0,-0.999999,30000.5,38701.6)"
font-family="MS Shell Dlg 2" font-size="10.3125" font-weight="400" font-style="normal" 
>
</g>

<g fill="#ae5151" fill-opacity="0.2" stroke="#333333" stroke-opacity="1" stroke-width="1" stroke-linecap="round" stroke-linejoin="round" transform="matrix(0.999999,0,0,-0.999999,30000.5,38701.6)"
font-family="MS Shell Dlg 2" font-size="10.3125" font-weight="400" font-style="normal" 
>
<path vector-effect="non-scaling-stroke" fill-rule="evenodd" d="M-4999.86,-30975 L-5000,-30974.9 L-5000,-26618.3 L-4999.86,-26618.2 L4999.86,-26618.2 L5000,-26618.3 L5000,-30974.9 L4999.86,-30975 L3008.11,-30975 L3007.97,-30974.9 L3007.97,-30500.1 L3007.87,-30500 L-3007.87,-30500 L-3007.97,-30500.1 L-3007.97,-30974.9 L-3008.11,-30975 L-4999.86,-30975"/>
</g>

<g fill="none" stroke="#000000" stroke-opacity="1" stroke-width="1" stroke-linecap="square" stroke-linejoin="bevel" transform="matrix(0.999999,0,0,-0.999999,30000.5,38701.6)"
font-family="MS Shell Dlg 2" font-size="10.3125" font-weight="400" font-style="normal" 
>
</g>

<g fill="none" stroke="#000000" stroke-opacity="1" stroke-width="1" stroke-linecap="square" stroke-linejoin="bevel" transform="matrix(0.999999,0,0,-0.999999,30000.5,38701.6)"
font-family="MS Shell Dlg 2" font-size="10.3125" font-weight="400" font-style="normal" 
>
</g>

<g fill="#ae5151" fill-opacity="0.2" stroke="#333333" stroke-opacity="1" stroke-width="1" stroke-linecap="round" stroke-linejoin="round" transform="matrix(0.999999,0,0,-0.999999,30000.5,38701.6)"
font-family="MS Shell Dlg 2" font-size="10.3125" font-weight="400" font-style="normal" 
>
<path vector-effect="non-scaling-stroke" fill-rule="evenodd" d="M-4750.06,-3319.66 L-4749.91,-3319.68 L-4666.87,-3246.86 L-4666.77,-3246.83 L-3764.54,-3246.83 L-3764.4,-3246.97 L-3764.4,-3721.73 L-3764.3,-3721.83 L-2513.87,-3721.83 L-2513.77,-3721.73 L-2513.77,-3246.97 L-2513.63,-3246.83 L-1263.28,-3246.83 L-1263.14,-3246.97 L-1263.14,-3721.73 L-1263.04,-3721.83 L1263.04,-3721.83 L1263.14,-3721.73 L1263.14,-3246.97 L1263.28,-3246.83 L2513.63,-3246.83 L2513.77,-3246.97 L2513.77,-3721.73 L2513.87,-3721.83 L3764.3,-3721.83 L3764.4,-3721.73 L3764.4,-3246.97 L3764.54,-3246.83 L4666.77,-3246.83 L4666.87,-3246.86 L4749.91,-3319.68 L4750.06,-3319.66 L4792.07,-3246.9 L4792.2,-3246.83 L4899.86,-3246.83 L4900,-3246.97 L4900,-6064.58 L4899.96,-6064.69 L4576.5,-6388.14 L4576.3,-6388.14 L4240.6,-6052.44 L4240.46,-6052.44 L3184.16,-7108.73 L3184.16,-7108.87 L3519.87,-7444.58 L3519.87,-7444.78 L2555.59,-8409.05 L2555.56,-8409.08 L2438.97,-8476.39 L2438.79,-8476.37 L2127.73,-8165.3 L2127.59,-8165.3 L1014.11,-9278.78 L1013.94,-9278.8 L942.798,-9236.16 L942.789,-9236.16 L765.371,-9152.24 L765.362,-9152.24 L580.574,-9086.12 L580.565,-9086.12 L390.185,-9038.43 L390.176,-9038.43 L196.039,-9009.63 L196.029,-9009.63 L0.00490677,-9000 L-0.00490677,-9000 L-196.029,-9009.63 L-196.039,-9009.63 L-390.176,-9038.43 L-390.185,-9038.43 L-580.565,-9086.12 L-580.574,-9086.12 L-765.362,-9152.24 L-765.371,-9152.24 L-942.789,-9236.16 L-942.798,-9236.16 L-1013.94,-9278.8 L-1014.11,-9278.78 L-1060.59,-9232.3 L-1060.73,-9232.3 L-1085.89,-9257.47 L-1086.07,-9257.49 L-2425.32,-8484.27 L-2425.35,-8484.05 L-2117.17,-8175.87 L-2117.17,-8175.73 L-4899.96,-5392.94 L-4900,-5392.83 L-4900,-3246.97 L-4899.86,-3246.83 L-4792.2,-3246.83 L-4792.07,-3246.9 L-4750.06,-3319.66"/>
</g>

<g fill="none" stroke="#000000" stroke-opacity="1" stroke-width="1" stroke-linecap="square" stroke-linejoin="bevel" transform="matrix(0.999999,0,0,-0.999999,30000.5,38701.6)"
font-family="MS Shell Dlg 2" font-size="10.3125" font-weight="400" font-style="normal" 
>
</g>

<g fill="none" stroke="#000000" stroke-opacity="1" stroke-width="1" stroke-linecap="square" stroke-linejoin="bevel" transform="matrix(0.999999,0,0,-0.999999,30000.5,38701.6)"
font-family="MS Shell Dlg 2" font-size="10.3125" font-weight="400" font-style="normal" 
>
</g>

<g fill="#ae5151" fill-opacity="0.2" stroke="#333333" stroke-opacity="1" stroke-width="1" stroke-linecap="round" stroke-linejoin="round" transform="matrix(0.999999,0,0,-0.999999,30000.5,38701.6)"
font-family="MS Shell Dlg 2" font-size="10.3125" font-weight="400" font-style="normal" 
>
<path vector-effect="non-scaling-stroke" fill-rule="evenodd" d="M-30000,3171.07 L-30000,3645.93 L-29999.9,3646.07 L-27216.5,3646.07 L-27216.4,3645.93 L-27216.4,3171.17 L-27216.3,3171.07 L-18810,3171.07 L-18809.9,3171.17 L-18809.9,3645.93 L-18809.7,3646.07 L-16026.4,3646.07 L-16026.3,3645.93 L-16026.3,671.271 L-16026.3,671.166 L-16026.4,671.111 L-16026.5,671.068 L-29999.8,671.068 L-29999.9,671.111 L-30000,671.166 L-30000,671.271 L-30000,3171.07"/>
</g>

<g fill="none" stroke="#000000" stroke-opacity="1" stroke-width="1" stroke-linecap="square" stroke-linejoin="bevel" transform="matrix(0.999999,0,0,-0.999999,30000.5,38701.6)"
font-family="MS Shell Dlg 2" font-size="10.3125" font-weight="400" font-style="normal" 
>
</g>

<g fill="none" stroke="#000000" stroke-opacity="1" stroke-width="1" stroke-linecap="square" stroke-linejoin="bevel" transform="matrix(0.999999,0,0,-0.999999,30000.5,38701.6)"
font-family="MS Shell Dlg 2" font-size="10.3125" font-weight="400" font-style="normal" 
>
</g>

<g fill="#ae5151" fill-opacity="0.2" stroke="#333333" stroke-opacity="1" stroke-width="1" stroke-linecap="round" stroke-linejoin="round" transform="matrix(0.999999,0,0,-0.999999,30000.5,38701.6)"
font-family="MS Shell Dlg 2" font-size="10.3125" font-weight="400" font-style="normal" 
>
<path vector-effect="non-scaling-stroke" fill-rule="evenodd" d="M18837.7,4170.97 L18837.6,4171.07 L16026.4,4171.07 L16026.3,4171.21 L16026.3,8072.59 L16026.4,8072.73 L29999.9,8072.73 L30000,8072.59 L30000,4171.21 L29999.9,4171.07 L27188.7,4171.07 L27188.6,4170.97 L27188.6,3696.21 L27188.4,3696.07 L24405.1,3696.07 L24404.9,3696.21 L24404.9,4170.97 L24404.8,4171.07 L21621.4,4171.07 L21621.3,4170.97 L21621.3,3696.21 L21621.2,3696.07 L19765.6,3696.07 L18837.9,3696.07 L18837.7,3696.21 L18837.7,4170.97"/>
</g>

<g fill="none" stroke="#000000" stroke-opacity="1" stroke-width="1" stroke-linecap="square" stroke-linejoin="bevel" transform="matrix(0.999999,0,0,-0.999999,30000.5,38701.6)"
font-family="MS Shell Dlg 2" font-size="10.3125" font-weight="400" font-style="normal" 
>
</g>

<g fill="none" stroke="#000000" stroke-opacity="1" stroke-width="1" stroke-linecap="square" stroke-linejoin="bevel" transform="matrix(0.999999,0,0,-0.999999,30000.5,38701.6)"
font-family="MS Shell Dlg 2" font-size="10.3125" font-weight="400" font-style="normal" 
>
</g>

<g fill="#ae5151" fill-opacity="0.2" stroke="#333333" stroke-opacity="1" stroke-width="1" stroke-linecap="round" stroke-linejoin="round" transform="matrix(0.999999,0,0,-0.999999,30000.5,38701.6)"
font-family="MS Shell Dlg 2" font-size="10.3125" font-weight="400" font-style="normal" 
>
<path vector-effect="non-scaling-stroke" fill-rule="evenodd" d="M-10316.3,30393 L-10316.4,30393 L-10374.8,30354 L-10375,30354.1 L-10375,36451.1 L-10375,36451.1 L-10379.8,38700.9 L-10379.6,38701.1 L10379.9,38701.1 L10380,38700.9 L10380,36451.1 L10375.3,30353.8 L10375.1,30353.7 L10316.4,30393 L10316.3,30393 L10125,30431.1 L10125,30431.1 L8113.15,30431.1 L8113.05,30431 L8113.05,29956.2 L8112.91,29956.1 L6121.16,29956.1 L6121.02,29956.2 L6121.02,30431 L6120.92,30431.1 L4129.08,30431.1 L4128.98,30431 L4128.98,29956.2 L4128.84,29956.1 L2137.09,29956.1 L2136.95,29956.2 L2136.95,30431 L2136.85,30431.1 L125.01,30431.1 L124.99,30431.1 L0.0291689,30406.2 L-0.0291689,30406.2 L-124.99,30431.1 L-125.01,30431.1 L-2136.85,30431.1 L-2136.95,30431 L-2136.95,29956.2 L-2137.09,29956.1 L-4128.84,29956.1 L-4128.98,29956.2 L-4128.98,30431 L-4129.08,30431.1 L-6120.92,30431.1 L-6121.02,30431 L-6121.02,29956.2 L-6121.16,29956.1 L-8112.91,29956.1 L-8113.05,29956.2 L-8113.05,30431 L-8113.15,30431.1 L-10125,30431.1 L-10125,30431.1 L-10316.3,30393"/>
</g>

<g fill="none" stroke="#000000" stroke-opacity="1" stroke-width="1" stroke-linecap="square" stroke-linejoin="bevel" transform="matrix(0.999999,0,0,-0.999999,30000.5,38701.6)"
font-family="MS Shell Dlg 2" font-size="10.3125" font-weight="400" font-style="normal" 
>
</g>

<g fill="none" stroke="#000000" stroke-opacity="1" stroke-width="1" stroke-linecap="square" stroke-linejoin="bevel" transform="matrix(1,0,0,-1,0,69677.1)"
font-family="MS Shell Dlg 2" font-size="10.3125" font-weight="400" font-style="normal" 
>
</g>
</g>
</svg>
