<?xml version="1.0" encoding="UTF-8" standalone="no"?>
<svg width="1453.16mm" height="1372.16mm"
 xmlns="http://www.w3.org/2000/svg" xmlns:xlink="http://www.w3.org/1999/xlink"  version="1.2" baseProfile="tiny">
<title>SVG Generator Example Drawing</title>
<desc>An SVG drawing created by the SVG Generator</desc>
<defs>
</defs>
<g fill="none" stroke="black" stroke-width="1" fill-rule="evenodd" stroke-linecap="square" stroke-linejoin="bevel" >

<g fill="none" stroke="#000000" stroke-opacity="1" stroke-width="1" stroke-linecap="square" stroke-linejoin="bevel" transform="matrix(1,0,0,-1,0,4862.46)"
font-family="MS Shell Dlg 2" font-size="10.3125" font-weight="400" font-style="normal" 
>
</g>

<g fill="none" stroke="#000000" stroke-opacity="1" stroke-width="1" stroke-linecap="square" stroke-linejoin="bevel" transform="matrix(1,0,0,-1,0,4862.46)"
font-family="MS Shell Dlg 2" font-size="10.3125" font-weight="400" font-style="normal" 
>
</g>

<g fill="none" stroke="#000000" stroke-opacity="1" stroke-width="1" stroke-linecap="square" stroke-linejoin="bevel" transform="matrix(0.999905,0,0,-0.999905,2280.28,2040.77)"
font-family="MS Shell Dlg 2" font-size="10.3125" font-weight="400" font-style="normal" 
>
</g>

<g fill="#333333" fill-opacity="0.2" stroke="#333333" stroke-opacity="1" stroke-width="1" stroke-linecap="round" stroke-linejoin="round" transform="matrix(0.999905,0,0,-0.999905,2280.28,2040.77)"
font-family="MS Shell Dlg 2" font-size="10.3125" font-weight="400" font-style="normal" 
>
<path vector-effect="non-scaling-stroke" fill-rule="evenodd" d="M1085.81,1425.13 L2533.56,1425.13 L2533.56,-180.969 L1085.81,-180.969 L1085.81,60.6823 L690.928,-405.658 L718.567,-415.547 L829.508,-468.018 L934.771,-531.111 L1033.34,-604.217 L1124.28,-686.633 L1206.69,-777.565 L1279.8,-876.138 L1342.89,-981.402 L1395.36,-1092.34 L1436.71,-1207.89 L1466.53,-1326.94 L1484.53,-1448.33 L1490.55,-1570.91 L1484.53,-1693.48 L1466.53,-1814.88 L1436.71,-1933.93 L1395.36,-2049.48 L1342.89,-2160.42 L1279.8,-2265.68 L1206.69,-2364.25 L1124.28,-2455.18 L1033.34,-2537.6 L934.771,-2610.71 L829.508,-2673.8 L718.567,-2726.27 L603.017,-2767.62 L483.971,-2797.43 L362.576,-2815.44 L240,-2821.46 L117.424,-2815.44 L-3.97116,-2797.43 L-123.017,-2767.62 L-238.567,-2726.27 L-349.508,-2673.8 L-454.771,-2610.71 L-553.344,-2537.6 L-644.276,-2455.18 L-726.692,-2364.25 L-799.798,-2265.68 L-862.891,-2160.42 L-915.362,-2049.48 L-956.706,-1933.93 L-986.526,-1814.88 L-1004.53,-1693.48 L-1010.55,-1570.91 L-1004.53,-1448.33 L-986.526,-1326.94 L-956.706,-1207.89 L-915.362,-1092.34 L-862.891,-981.402 L-799.798,-876.138 L-726.692,-777.565 L-644.276,-686.633 L-553.344,-604.217 L-454.771,-531.111 L-349.508,-468.018 L-238.567,-415.547 L-123.017,-374.203 L-108.412,-370.544 L-541.75,335.456 L-545.455,87.2727 L-741.818,-480 L-1647.27,54.5455 L-2280,2040 L-523.636,1549.09 L-528.346,1233.57 L1085.81,977.58 L1085.81,1425.13"/>
</g>

<g fill="none" stroke="#000000" stroke-opacity="1" stroke-width="1" stroke-linecap="square" stroke-linejoin="bevel" transform="matrix(0.999905,0,0,-0.999905,2280.28,2040.77)"
font-family="MS Shell Dlg 2" font-size="10.3125" font-weight="400" font-style="normal" 
>
</g>

<g fill="none" stroke="#000000" stroke-opacity="1" stroke-width="1" stroke-linecap="square" stroke-linejoin="bevel" transform="matrix(0.999905,0,0,-0.999905,2280.28,2040.77)"
font-family="MS Shell Dlg 2" font-size="10.3125" font-weight="400" font-style="normal" 
>
</g>

<g fill="#ae5151" fill-opacity="0.2" stroke="#333333" stroke-opacity="1" stroke-width="1" stroke-linecap="round" stroke-linejoin="round" transform="matrix(0.999905,0,0,-0.999905,2280.28,2040.77)"
font-family="MS Shell Dlg 2" font-size="10.3125" font-weight="400" font-style="normal" 
>
<path vector-effect="non-scaling-stroke" fill-rule="evenodd" d="M1085.81,1425.13 L1085.81,-180.969 L2533.56,-180.969 L2533.56,1425.13 L1085.81,1425.13"/>
</g>

<g fill="none" stroke="#000000" stroke-opacity="1" stroke-width="1" stroke-linecap="square" stroke-linejoin="bevel" transform="matrix(0.999905,0,0,-0.999905,2280.28,2040.77)"
font-family="MS Shell Dlg 2" font-size="10.3125" font-weight="400" font-style="normal" 
>
</g>

<g fill="none" stroke="#000000" stroke-opacity="1" stroke-width="1" stroke-linecap="square" stroke-linejoin="bevel" transform="matrix(0.999905,0,0,-0.999905,2280.28,2040.77)"
font-family="MS Shell Dlg 2" font-size="10.3125" font-weight="400" font-style="normal" 
>
</g>

<g fill="#ae5151" fill-opacity="0.2" stroke="#333333" stroke-opacity="1" stroke-width="1" stroke-linecap="round" stroke-linejoin="round" transform="matrix(0.999905,0,0,-0.999905,2280.28,2040.77)"
font-family="MS Shell Dlg 2" font-size="10.3125" font-weight="400" font-style="normal" 
>
<path vector-effect="non-scaling-stroke" fill-rule="evenodd" d="M-1647.27,54.5455 L-2280,2040 L-523.636,1549.09 L-545.455,87.2727 L-741.818,-480 L-1647.27,54.5455"/>
</g>

<g fill="none" stroke="#000000" stroke-opacity="1" stroke-width="1" stroke-linecap="square" stroke-linejoin="bevel" transform="matrix(0.999905,0,0,-0.999905,2280.28,2040.77)"
font-family="MS Shell Dlg 2" font-size="10.3125" font-weight="400" font-style="normal" 
>
</g>

<g fill="none" stroke="#000000" stroke-opacity="1" stroke-width="1" stroke-linecap="square" stroke-linejoin="bevel" transform="matrix(0.999905,0,0,-0.999905,2280.28,2040.77)"
font-family="MS Shell Dlg 2" font-size="10.3125" font-weight="400" font-style="normal" 
>
</g>

<g fill="#ffff00" fill-opacity="0.2" stroke="#333333" stroke-opacity="1" stroke-width="1" stroke-linecap="round" stroke-linejoin="round" transform="matrix(0.999905,0,0,-0.999905,2280.28,2040.77)"
font-family="MS Shell Dlg 2" font-size="10.3125" font-weight="400" font-style="normal" 
>
<path vector-effect="non-scaling-stroke" fill-rule="evenodd" d="M2533.56,102.753 L2533.56,-180.969 L1085.81,-180.969 L1085.81,1425.13 L2533.56,1425.13 L2533.56,1031.79 L2565.81,1020.25 L2609.31,999.681 L2650.58,974.944 L2689.23,946.282 L2724.88,913.969 L2757.19,878.317 L2785.85,839.67 L2810.59,798.4 L2831.16,754.903 L2847.37,709.6 L2859.06,662.926 L2866.12,615.331 L2868.48,567.273 L2866.12,519.215 L2859.06,471.619 L2847.37,424.945 L2831.16,379.642 L2810.59,336.146 L2785.85,294.875 L2757.19,256.228 L2724.88,220.576 L2689.23,188.264 L2650.58,159.601 L2609.31,134.864 L2565.81,114.292 L2533.56,102.753"/>
</g>

<g fill="none" stroke="#000000" stroke-opacity="1" stroke-width="1" stroke-linecap="square" stroke-linejoin="bevel" transform="matrix(0.999905,0,0,-0.999905,2280.28,2040.77)"
font-family="MS Shell Dlg 2" font-size="10.3125" font-weight="400" font-style="normal" 
>
</g>

<g fill="none" stroke="#000000" stroke-opacity="1" stroke-width="1" stroke-linecap="square" stroke-linejoin="bevel" transform="matrix(0.999905,0,0,-0.999905,2280.28,2040.77)"
font-family="MS Shell Dlg 2" font-size="10.3125" font-weight="400" font-style="normal" 
>
</g>

<g fill="#ffff00" fill-opacity="0.2" stroke="#333333" stroke-opacity="1" stroke-width="1" stroke-linecap="round" stroke-linejoin="round" transform="matrix(0.999905,0,0,-0.999905,2280.28,2040.77)"
font-family="MS Shell Dlg 2" font-size="10.3125" font-weight="400" font-style="normal" 
>
<path vector-effect="non-scaling-stroke" fill-rule="evenodd" d="M-1647.27,54.5455 L-2280,2040 L-523.636,1549.09 L-545.455,87.2727 L-741.818,-480 L-1647.27,54.5455"/>
</g>

<g fill="none" stroke="#000000" stroke-opacity="1" stroke-width="1" stroke-linecap="square" stroke-linejoin="bevel" transform="matrix(0.999905,0,0,-0.999905,2280.28,2040.77)"
font-family="MS Shell Dlg 2" font-size="10.3125" font-weight="400" font-style="normal" 
>
</g>

<g fill="none" stroke="#000000" stroke-opacity="1" stroke-width="1" stroke-linecap="square" stroke-linejoin="bevel" transform="matrix(0.999905,0,0,-0.999905,2280.28,2040.77)"
font-family="MS Shell Dlg 2" font-size="10.3125" font-weight="400" font-style="normal" 
>
</g>

<g fill="#ae5151" fill-opacity="0.2" stroke="#333333" stroke-opacity="1" stroke-width="1" stroke-linecap="round" stroke-linejoin="round" transform="matrix(0.999905,0,0,-0.999905,2280.28,2040.77)"
font-family="MS Shell Dlg 2" font-size="10.3125" font-weight="400" font-style="normal" 
>
<path vector-effect="non-scaling-stroke" fill-rule="evenodd" d="M1085.81,1425.13 L1085.81,-180.969 L2533.56,-180.969 L2533.56,1425.13 L1085.81,1425.13"/>
</g>

<g fill="none" stroke="#000000" stroke-opacity="1" stroke-width="1" stroke-linecap="square" stroke-linejoin="bevel" transform="matrix(0.999905,0,0,-0.999905,2280.28,2040.77)"
font-family="MS Shell Dlg 2" font-size="10.3125" font-weight="400" font-style="normal" 
>
</g>

<g fill="none" stroke="#000000" stroke-opacity="1" stroke-width="1" stroke-linecap="square" stroke-linejoin="bevel" transform="matrix(0.999905,0,0,-0.999905,2280.28,2040.77)"
font-family="MS Shell Dlg 2" font-size="10.3125" font-weight="400" font-style="normal" 
>
</g>

<g fill="#ae5151" fill-opacity="0.2" stroke="#333333" stroke-opacity="1" stroke-width="1" stroke-linecap="round" stroke-linejoin="round" transform="matrix(0.999905,0,0,-0.999905,2280.28,2040.77)"
font-family="MS Shell Dlg 2" font-size="10.3125" font-weight="400" font-style="normal" 
>
<path vector-effect="non-scaling-stroke" fill-rule="evenodd" d="M-1647.27,54.5455 L-2280,2040 L-523.636,1549.09 L-545.455,87.2727 L-741.818,-480 L-1647.27,54.5455"/>
</g>

<g fill="none" stroke="#000000" stroke-opacity="1" stroke-width="1" stroke-linecap="square" stroke-linejoin="bevel" transform="matrix(0.999905,0,0,-0.999905,2280.28,2040.77)"
font-family="MS Shell Dlg 2" font-size="10.3125" font-weight="400" font-style="normal" 
>
</g>

<g fill="none" stroke="#000000" stroke-opacity="1" stroke-width="1" stroke-linecap="square" stroke-linejoin="bevel" transform="matrix(0.999905,0,0,-0.999905,2280.28,2040.77)"
font-family="MS Shell Dlg 2" font-size="10.3125" font-weight="400" font-style="normal" 
>
</g>

<g fill="#333333" fill-opacity="0.2" stroke="#333333" stroke-opacity="1" stroke-width="1" stroke-linecap="round" stroke-linejoin="round" transform="matrix(0.999905,0,0,-0.999905,2280.28,2040.77)"
font-family="MS Shell Dlg 2" font-size="10.3125" font-weight="400" font-style="normal" 
>
<path vector-effect="non-scaling-stroke" fill-rule="evenodd" d="M1085.81,1425.13 L2533.56,1425.13 L2533.56,-180.969 L1085.81,-180.969 L1085.81,1425.13"/>
</g>

<g fill="none" stroke="#000000" stroke-opacity="1" stroke-width="1" stroke-linecap="square" stroke-linejoin="bevel" transform="matrix(0.999905,0,0,-0.999905,2280.28,2040.77)"
font-family="MS Shell Dlg 2" font-size="10.3125" font-weight="400" font-style="normal" 
>
</g>

<g fill="none" stroke="#000000" stroke-opacity="1" stroke-width="1" stroke-linecap="square" stroke-linejoin="bevel" transform="matrix(0.999905,0,0,-0.999905,2280.28,2040.77)"
font-family="MS Shell Dlg 2" font-size="10.3125" font-weight="400" font-style="normal" 
>
</g>

<g fill="#333333" fill-opacity="0.2" stroke="#333333" stroke-opacity="1" stroke-width="1" stroke-linecap="round" stroke-linejoin="round" transform="matrix(0.999905,0,0,-0.999905,2280.28,2040.77)"
font-family="MS Shell Dlg 2" font-size="10.3125" font-weight="400" font-style="normal" 
>
<path vector-effect="non-scaling-stroke" fill-rule="evenodd" d="M1490.55,-1570.91 L1484.53,-1693.48 L1466.53,-1814.88 L1436.71,-1933.93 L1395.36,-2049.48 L1342.89,-2160.42 L1279.8,-2265.68 L1206.69,-2364.25 L1124.28,-2455.18 L1033.34,-2537.6 L934.771,-2610.71 L829.508,-2673.8 L718.567,-2726.27 L603.017,-2767.62 L483.971,-2797.43 L362.576,-2815.44 L240,-2821.46 L117.424,-2815.44 L-3.97116,-2797.43 L-123.017,-2767.62 L-238.567,-2726.27 L-349.508,-2673.8 L-454.771,-2610.71 L-553.344,-2537.6 L-644.276,-2455.18 L-726.692,-2364.25 L-799.798,-2265.68 L-862.891,-2160.42 L-915.362,-2049.48 L-956.706,-1933.93 L-986.526,-1814.88 L-1004.53,-1693.48 L-1010.55,-1570.91 L-1004.53,-1448.33 L-986.526,-1326.94 L-956.706,-1207.89 L-915.362,-1092.34 L-862.891,-981.402 L-799.798,-876.138 L-726.692,-777.565 L-644.276,-686.633 L-553.344,-604.217 L-454.771,-531.111 L-349.508,-468.018 L-238.567,-415.547 L-123.017,-374.203 L-3.97116,-344.383 L117.424,-326.376 L240,-320.354 L362.576,-326.376 L483.971,-344.383 L603.017,-374.203 L718.567,-415.547 L829.508,-468.018 L934.771,-531.111 L1033.34,-604.217 L1124.28,-686.633 L1206.69,-777.565 L1279.8,-876.138 L1342.89,-981.402 L1395.36,-1092.34 L1436.71,-1207.89 L1466.53,-1326.94 L1484.53,-1448.33 L1490.55,-1570.91"/>
</g>

<g fill="none" stroke="#000000" stroke-opacity="1" stroke-width="1" stroke-linecap="square" stroke-linejoin="bevel" transform="matrix(0.999905,0,0,-0.999905,2280.28,2040.77)"
font-family="MS Shell Dlg 2" font-size="10.3125" font-weight="400" font-style="normal" 
>
</g>

<g fill="none" stroke="#000000" stroke-opacity="1" stroke-width="1" stroke-linecap="square" stroke-linejoin="bevel" transform="matrix(0.999905,0,0,-0.999905,2280.28,2040.77)"
font-family="MS Shell Dlg 2" font-size="10.3125" font-weight="400" font-style="normal" 
>
</g>

<g fill="#333333" fill-opacity="0.2" stroke="#333333" stroke-opacity="1" stroke-width="1" stroke-linecap="round" stroke-linejoin="round" transform="matrix(0.999905,0,0,-0.999905,2280.28,2040.77)"
font-family="MS Shell Dlg 2" font-size="10.3125" font-weight="400" font-style="normal" 
>
<path vector-effect="non-scaling-stroke" fill-rule="evenodd" d="M-1647.27,54.5455 L-2280,2040 L-523.636,1549.09 L-545.455,87.2727 L-741.818,-480 L-1647.27,54.5455"/>
</g>

<g fill="none" stroke="#000000" stroke-opacity="1" stroke-width="1" stroke-linecap="square" stroke-linejoin="bevel" transform="matrix(0.999905,0,0,-0.999905,2280.28,2040.77)"
font-family="MS Shell Dlg 2" font-size="10.3125" font-weight="400" font-style="normal" 
>
</g>

<g fill="none" stroke="#000000" stroke-opacity="1" stroke-width="1" stroke-linecap="square" stroke-linejoin="bevel" transform="matrix(1,0,0,-1,0,4862.46)"
font-family="MS Shell Dlg 2" font-size="10.3125" font-weight="400" font-style="normal" 
>
</g>
</g>
</svg>
