<?xml version="1.0" encoding="UTF-8" standalone="no"?>
<svg width="17552.5mm" height="15885.7mm"
 xmlns="http://www.w3.org/2000/svg" xmlns:xlink="http://www.w3.org/1999/xlink"  version="1.2" baseProfile="tiny">
<title>SVG Generator Example Drawing</title>
<desc>An SVG drawing created by the SVG Generator</desc>
<defs>
</defs>
<g fill="none" stroke="black" stroke-width="1" fill-rule="evenodd" stroke-linecap="square" stroke-linejoin="bevel" >

<g fill="none" stroke="#000000" stroke-opacity="1" stroke-width="1" stroke-linecap="square" stroke-linejoin="bevel" transform="matrix(1,0,0,-1,0,56288.6)"
font-family="MS Shell Dlg 2" font-size="10.3125" font-weight="400" font-style="normal" 
>
</g>

<g fill="none" stroke="#000000" stroke-opacity="1" stroke-width="1" stroke-linecap="square" stroke-linejoin="bevel" transform="matrix(1,0,0,-1,0,56288.6)"
font-family="MS Shell Dlg 2" font-size="10.3125" font-weight="400" font-style="normal" 
>
</g>

<g fill="none" stroke="#000000" stroke-opacity="1" stroke-width="1" stroke-linecap="square" stroke-linejoin="bevel" transform="matrix(0.99999,0,0,-0.99999,57059.2,58564.6)"
font-family="MS Shell Dlg 2" font-size="10.3125" font-weight="400" font-style="normal" 
>
</g>

<g fill="#ae5151" fill-opacity="0.2" stroke="#333333" stroke-opacity="1" stroke-width="1" stroke-linecap="round" stroke-linejoin="round" transform="matrix(0.99999,0,0,-0.99999,57059.2,58564.6)"
font-family="MS Shell Dlg 2" font-size="10.3125" font-weight="400" font-style="normal" 
>
<path vector-effect="non-scaling-stroke" fill-rule="evenodd" d="M-31174.1,2406.98 L-30753.3,9008.61 L-30733.5,9004.41 L-28625.1,8975.53 L-28620,9354.6 L-28619.9,9354.66 L-26532.4,9326.07 L-26532.4,9326.01 L-26537.6,8946.93 L-24450.1,8918.33 L-24444.9,9297.41 L-24444.9,9297.47 L-22357.4,9268.87 L-22357.4,9268.82 L-22362.6,8889.74 L-20254.1,8860.85 L-20344.3,2276.5 L-31174.1,2406.98"/>
</g>

<g fill="none" stroke="#000000" stroke-opacity="1" stroke-width="1" stroke-linecap="square" stroke-linejoin="bevel" transform="matrix(0.99999,0,0,-0.99999,57059.2,58564.6)"
font-family="MS Shell Dlg 2" font-size="10.3125" font-weight="400" font-style="normal" 
>
</g>

<g fill="none" stroke="#000000" stroke-opacity="1" stroke-width="1" stroke-linecap="square" stroke-linejoin="bevel" transform="matrix(0.99999,0,0,-0.99999,57059.2,58564.6)"
font-family="MS Shell Dlg 2" font-size="10.3125" font-weight="400" font-style="normal" 
>
</g>

<g fill="#ae5151" fill-opacity="0.2" stroke="#333333" stroke-opacity="1" stroke-width="1" stroke-linecap="round" stroke-linejoin="round" transform="matrix(0.99999,0,0,-0.99999,57059.2,58564.6)"
font-family="MS Shell Dlg 2" font-size="10.3125" font-weight="400" font-style="normal" 
>
<path vector-effect="non-scaling-stroke" fill-rule="evenodd" d="M-28640.3,9394.91 L-28640.3,9394.86 L-30727.8,9423.45 L-30727.8,9423.51 L-30722.6,9802.59 L-30739.4,9799.48 L-31012.1,19315.1 L-28878.5,19320.9 L-28879.5,19700 L-28879.5,19700 L-26756.7,19705.8 L-26756.7,19705.7 L-26755.7,19326.6 L-24632.9,19332.3 L-24633.9,19711.4 L-24633.9,19711.5 L-22511.1,19717.2 L-22511.1,19717.1 L-22510.1,19338 L-20366,19343.8 L-20362.6,19344.5 L-20253.4,9679.13 L-20243,9678.99 L-20242.9,9678.93 L-20248.4,9279.96 L-20248.4,9279.9 L-22335.9,9308.49 L-22335.9,9308.55 L-22330.7,9687.63 L-28635.1,9773.99 L-28640.3,9394.91"/>
</g>

<g fill="none" stroke="#000000" stroke-opacity="1" stroke-width="1" stroke-linecap="square" stroke-linejoin="bevel" transform="matrix(0.99999,0,0,-0.99999,57059.2,58564.6)"
font-family="MS Shell Dlg 2" font-size="10.3125" font-weight="400" font-style="normal" 
>
</g>

<g fill="none" stroke="#000000" stroke-opacity="1" stroke-width="1" stroke-linecap="square" stroke-linejoin="bevel" transform="matrix(0.99999,0,0,-0.99999,57059.2,58564.6)"
font-family="MS Shell Dlg 2" font-size="10.3125" font-weight="400" font-style="normal" 
>
</g>

<g fill="#ae5151" fill-opacity="0.2" stroke="#333333" stroke-opacity="1" stroke-width="1" stroke-linecap="round" stroke-linejoin="round" transform="matrix(0.99999,0,0,-0.99999,57059.2,58564.6)"
font-family="MS Shell Dlg 2" font-size="10.3125" font-weight="400" font-style="normal" 
>
<path vector-effect="non-scaling-stroke" fill-rule="evenodd" d="M5134.19,48780.2 L1254.51,46858.3 L1248.3,46877.4 L219.106,48717.8 L-111.783,48532.8 L-111.847,48532.8 L-1130.82,50354.9 L-1130.78,50354.9 L-799.894,50540 L-1818.89,52362.1 L-2149.78,52177.1 L-2149.85,52177.1 L-3168.82,53999.2 L-3168.78,53999.2 L-2837.89,54184.3 L-3867.08,56024.6 L-1197.32,57517.6 L5134.19,48780.2"/>
</g>

<g fill="none" stroke="#000000" stroke-opacity="1" stroke-width="1" stroke-linecap="square" stroke-linejoin="bevel" transform="matrix(0.99999,0,0,-0.99999,57059.2,58564.6)"
font-family="MS Shell Dlg 2" font-size="10.3125" font-weight="400" font-style="normal" 
>
</g>

<g fill="none" stroke="#000000" stroke-opacity="1" stroke-width="1" stroke-linecap="square" stroke-linejoin="bevel" transform="matrix(0.99999,0,0,-0.99999,57059.2,58564.6)"
font-family="MS Shell Dlg 2" font-size="10.3125" font-weight="400" font-style="normal" 
>
</g>

<g fill="#ae5151" fill-opacity="0.2" stroke="#333333" stroke-opacity="1" stroke-width="1" stroke-linecap="round" stroke-linejoin="round" transform="matrix(0.99999,0,0,-0.99999,57059.2,58564.6)"
font-family="MS Shell Dlg 2" font-size="10.3125" font-weight="400" font-style="normal" 
>
<path vector-effect="non-scaling-stroke" fill-rule="evenodd" d="M-20376,20162 L-20368.3,20162 L-20368.2,20162 L-20367.2,19762.9 L-20367.2,19762.9 L-22489.9,19757.2 L-22490,19757.2 L-22491,20136.3 L-28901.8,20119.1 L-28900.8,19740 L-28900.8,19739.9 L-31023.6,19734.2 L-31023.6,19734.2 L-31024.7,20133.3 L-31024.7,20133.3 L-31013.6,20133.3 L-30675.6,34286.5 L-43057.6,41089.3 L-43061.5,41082.6 L-43061.6,41082.6 L-43407.7,41281.2 L-43407.7,41281.2 L-42351.3,43122.4 L-42351.2,43122.4 L-42022.4,42933.8 L-38831.9,48494.4 L-39160.7,48683 L-39160.8,48683.1 L-38104.4,50524.3 L-38104.3,50524.3 L-37758.2,50325.7 L-37758.2,50325.7 L-37763.7,50316 L-25675.6,42946.8 L-13593.2,50268.5 L-13597.1,50275.2 L-13597.1,50275.3 L-13252.1,50475.7 L-13252,50475.7 L-12185.7,48640.2 L-12185.7,48640.2 L-12513.5,48449.7 L-9293.14,42906.4 L-8965.33,43096.9 L-8965.26,43096.9 L-7898.94,41261.4 L-7898.98,41261.3 L-8243.99,41060.9 L-8244.06,41060.9 L-8249.64,41070.5 L-20675.6,34286.5 L-20376,20162"/>
</g>

<g fill="none" stroke="#000000" stroke-opacity="1" stroke-width="1" stroke-linecap="square" stroke-linejoin="bevel" transform="matrix(0.99999,0,0,-0.99999,57059.2,58564.6)"
font-family="MS Shell Dlg 2" font-size="10.3125" font-weight="400" font-style="normal" 
>
</g>

<g fill="none" stroke="#000000" stroke-opacity="1" stroke-width="1" stroke-linecap="square" stroke-linejoin="bevel" transform="matrix(0.99999,0,0,-0.99999,57059.2,58564.6)"
font-family="MS Shell Dlg 2" font-size="10.3125" font-weight="400" font-style="normal" 
>
</g>

<g fill="#ae5151" fill-opacity="0.2" stroke="#333333" stroke-opacity="1" stroke-width="1" stroke-linecap="round" stroke-linejoin="round" transform="matrix(0.99999,0,0,-0.99999,57059.2,58564.6)"
font-family="MS Shell Dlg 2" font-size="10.3125" font-weight="400" font-style="normal" 
>
<path vector-effect="non-scaling-stroke" fill-rule="evenodd" d="M-48250.1,53629.9 L-48250.1,53630 L-47181.6,55423.5 L-47181.5,55423.5 L-46855.9,55229.5 L-46850.1,55245.6 L-38473,50723.9 L-39534.9,48873.2 L-39206,48684.6 L-39206,48684.5 L-40262.4,46843.3 L-40262.5,46843.3 L-40591.3,47032 L-41647.7,45190.7 L-41318.9,45002 L-41318.9,45002 L-42375.3,43160.8 L-42375.4,43160.8 L-42704.2,43349.5 L-43771.2,41489.8 L-43772.3,41486.5 L-52197.4,46224.6 L-52202.7,46215.6 L-52202.8,46215.6 L-52545.6,46419.8 L-52545.6,46419.9 L-51477.1,48213.4 L-51477,48213.4 L-51151.3,48019.4 L-47924.4,53435.9 L-48250.1,53629.9"/>
</g>

<g fill="none" stroke="#000000" stroke-opacity="1" stroke-width="1" stroke-linecap="square" stroke-linejoin="bevel" transform="matrix(0.99999,0,0,-0.99999,57059.2,58564.6)"
font-family="MS Shell Dlg 2" font-size="10.3125" font-weight="400" font-style="normal" 
>
</g>

<g fill="none" stroke="#000000" stroke-opacity="1" stroke-width="1" stroke-linecap="square" stroke-linejoin="bevel" transform="matrix(0.99999,0,0,-0.99999,57059.2,58564.6)"
font-family="MS Shell Dlg 2" font-size="10.3125" font-weight="400" font-style="normal" 
>
</g>

<g fill="#ae5151" fill-opacity="0.2" stroke="#333333" stroke-opacity="1" stroke-width="1" stroke-linecap="round" stroke-linejoin="round" transform="matrix(0.99999,0,0,-0.99999,57059.2,58564.6)"
font-family="MS Shell Dlg 2" font-size="10.3125" font-weight="400" font-style="normal" 
>
<path vector-effect="non-scaling-stroke" fill-rule="evenodd" d="M-51901.9,58564.1 L-47528.1,55653 L-47541.6,55638 L-48620.8,53826.5 L-48295.1,53632.5 L-48295.1,53632.4 L-49363.6,51838.9 L-49363.7,51838.9 L-49689.4,52033 L-50757.9,50239.4 L-50432.2,50045.4 L-50432.2,50045.3 L-51500.7,48251.8 L-51500.7,48251.8 L-51826.4,48445.9 L-52905.7,46634.4 L-57059.3,49108.9 L-51901.9,58564.1"/>
</g>

<g fill="none" stroke="#000000" stroke-opacity="1" stroke-width="1" stroke-linecap="square" stroke-linejoin="bevel" transform="matrix(0.99999,0,0,-0.99999,57059.2,58564.6)"
font-family="MS Shell Dlg 2" font-size="10.3125" font-weight="400" font-style="normal" 
>
</g>

<g fill="none" stroke="#000000" stroke-opacity="1" stroke-width="1" stroke-linecap="square" stroke-linejoin="bevel" transform="matrix(0.99999,0,0,-0.99999,57059.2,58564.6)"
font-family="MS Shell Dlg 2" font-size="10.3125" font-weight="400" font-style="normal" 
>
</g>

<g fill="#ae5151" fill-opacity="0.2" stroke="#333333" stroke-opacity="1" stroke-width="1" stroke-linecap="round" stroke-linejoin="round" transform="matrix(0.99999,0,0,-0.99999,57059.2,58564.6)"
font-family="MS Shell Dlg 2" font-size="10.3125" font-weight="400" font-style="normal" 
>
<path vector-effect="non-scaling-stroke" fill-rule="evenodd" d="M-136.527,48495 L-136.464,48495 L882.507,46672.9 L882.473,46672.9 L551.584,46487.8 L562.681,46474.8 L-7541.76,41480.8 L-8613.57,43325.8 L-8941.38,43135.3 L-8941.45,43135.3 L-10007.8,44970.8 L-10007.7,44970.9 L-9679.92,45161.3 L-10746.3,46996.8 L-11074.1,46806.4 L-11074.2,46806.4 L-12140.5,48641.9 L-12140.4,48641.9 L-11812.6,48832.4 L-12889.6,50686.3 L-12892,50688.9 L-4576.1,55616.1 L-4581.2,55625.3 L-4581.17,55625.3 L-4232.91,55820.1 L-4232.84,55820.1 L-3213.87,53998 L-3213.91,53997.9 L-3544.8,53812.9 L-467.416,48310 L-136.527,48495"/>
</g>

<g fill="none" stroke="#000000" stroke-opacity="1" stroke-width="1" stroke-linecap="square" stroke-linejoin="bevel" transform="matrix(0.99999,0,0,-0.99999,57059.2,58564.6)"
font-family="MS Shell Dlg 2" font-size="10.3125" font-weight="400" font-style="normal" 
>
</g>

<g fill="none" stroke="#000000" stroke-opacity="1" stroke-width="1" stroke-linecap="square" stroke-linejoin="bevel" transform="matrix(1,0,0,-1,0,56288.6)"
font-family="MS Shell Dlg 2" font-size="10.3125" font-weight="400" font-style="normal" 
>
</g>
</g>
</svg>
