<?xml version="1.0" encoding="UTF-8" standalone="no"?>
<svg width="3971.71mm" height="3933.61mm"
 xmlns="http://www.w3.org/2000/svg" xmlns:xlink="http://www.w3.org/1999/xlink"  version="1.2" baseProfile="tiny">
<title>SVG Generator Example Drawing</title>
<desc>An SVG drawing created by the SVG Generator</desc>
<defs>
</defs>
<g fill="none" stroke="black" stroke-width="1" fill-rule="evenodd" stroke-linecap="square" stroke-linejoin="bevel" >

<g fill="none" stroke="#000000" stroke-opacity="1" stroke-width="1" stroke-linecap="square" stroke-linejoin="bevel" transform="matrix(1,0,0,-1,0,13938)"
font-family="MS Shell Dlg 2" font-size="10.3125" font-weight="400" font-style="normal" 
>
</g>

<g fill="none" stroke="#000000" stroke-opacity="1" stroke-width="1" stroke-linecap="square" stroke-linejoin="bevel" transform="matrix(1,0,0,-1,0,13938)"
font-family="MS Shell Dlg 2" font-size="10.3125" font-weight="400" font-style="normal" 
>
</g>

<g fill="none" stroke="#000000" stroke-opacity="1" stroke-width="1" stroke-linecap="square" stroke-linejoin="bevel" transform="matrix(0.999957,0,0,-0.999957,52543.8,55422.2)"
font-family="MS Shell Dlg 2" font-size="10.3125" font-weight="400" font-style="normal" 
>
</g>

<g fill="#ae5151" fill-opacity="0.2" stroke="#333333" stroke-opacity="1" stroke-width="1" stroke-linecap="round" stroke-linejoin="round" transform="matrix(0.999957,0,0,-0.999957,52543.8,55422.2)"
font-family="MS Shell Dlg 2" font-size="10.3125" font-weight="400" font-style="normal" 
>
<path vector-effect="non-scaling-stroke" fill-rule="evenodd" d="M-48250.1,53629.9 L-48250.1,53630 L-47181.6,55423.5 L-47181.5,55423.5 L-46855.9,55229.5 L-46850.1,55245.6 L-38473,50723.9 L-39534.9,48873.2 L-39206,48684.6 L-39206,48684.5 L-40262.4,46843.3 L-40262.5,46843.3 L-40591.3,47032 L-41647.7,45190.7 L-41318.9,45002 L-41318.9,45002 L-42375.3,43160.8 L-42375.4,43160.8 L-42704.2,43349.5 L-43771.2,41489.8 L-43772.3,41486.5 L-52197.4,46224.6 L-52202.7,46215.6 L-52202.8,46215.6 L-52545.6,46419.8 L-52545.6,46419.9 L-51477.1,48213.4 L-51477,48213.4 L-51151.3,48019.4 L-47924.4,53435.9 L-48250.1,53629.9"/>
</g>

<g fill="none" stroke="#000000" stroke-opacity="1" stroke-width="1" stroke-linecap="square" stroke-linejoin="bevel" transform="matrix(0.999957,0,0,-0.999957,52543.8,55422.2)"
font-family="MS Shell Dlg 2" font-size="10.3125" font-weight="400" font-style="normal" 
>
</g>

<g fill="none" stroke="#000000" stroke-opacity="1" stroke-width="1" stroke-linecap="square" stroke-linejoin="bevel" transform="matrix(1,0,0,-1,0,13938)"
font-family="MS Shell Dlg 2" font-size="10.3125" font-weight="400" font-style="normal" 
>
</g>
</g>
</svg>
