<?xml version="1.0" encoding="UTF-8" standalone="no"?>
<svg width="3887.61mm" height="4047.07mm"
 xmlns="http://www.w3.org/2000/svg" xmlns:xlink="http://www.w3.org/1999/xlink"  version="1.2" baseProfile="tiny">
<title>SVG Generator Example Drawing</title>
<desc>An SVG drawing created by the SVG Generator</desc>
<defs>
</defs>
<g fill="none" stroke="black" stroke-width="1" fill-rule="evenodd" stroke-linecap="square" stroke-linejoin="bevel" >

<g fill="none" stroke="#000000" stroke-opacity="1" stroke-width="1" stroke-linecap="square" stroke-linejoin="bevel" transform="matrix(1,0,0,-1,0,14340.2)"
font-family="MS Shell Dlg 2" font-size="10.3125" font-weight="400" font-style="normal" 
>
</g>

<g fill="none" stroke="#000000" stroke-opacity="1" stroke-width="1" stroke-linecap="square" stroke-linejoin="bevel" transform="matrix(1,0,0,-1,0,14340.2)"
font-family="MS Shell Dlg 2" font-size="10.3125" font-weight="400" font-style="normal" 
>
</g>

<g fill="none" stroke="#000000" stroke-opacity="1" stroke-width="1" stroke-linecap="square" stroke-linejoin="bevel" transform="matrix(0.999966,0,0,-0.999966,12892,55819.2)"
font-family="MS Shell Dlg 2" font-size="10.3125" font-weight="400" font-style="normal" 
>
</g>

<g fill="#ae5151" fill-opacity="0.2" stroke="#333333" stroke-opacity="1" stroke-width="1" stroke-linecap="round" stroke-linejoin="round" transform="matrix(0.999966,0,0,-0.999966,12892,55819.2)"
font-family="MS Shell Dlg 2" font-size="10.3125" font-weight="400" font-style="normal" 
>
<path vector-effect="non-scaling-stroke" fill-rule="evenodd" d="M-136.527,48495 L-136.464,48495 L882.507,46672.9 L882.473,46672.9 L551.584,46487.8 L562.681,46474.8 L-7541.76,41480.8 L-8613.57,43325.8 L-8941.38,43135.3 L-8941.45,43135.3 L-10007.8,44970.8 L-10007.7,44970.9 L-9679.92,45161.3 L-10746.3,46996.8 L-11074.1,46806.4 L-11074.2,46806.4 L-12140.5,48641.9 L-12140.4,48641.9 L-11812.6,48832.4 L-12889.6,50686.3 L-12892,50688.9 L-4576.1,55616.1 L-4581.2,55625.3 L-4581.17,55625.3 L-4232.91,55820.1 L-4232.84,55820.1 L-3213.87,53998 L-3213.91,53997.9 L-3544.8,53812.9 L-467.416,48310 L-136.527,48495"/>
</g>

<g fill="none" stroke="#000000" stroke-opacity="1" stroke-width="1" stroke-linecap="square" stroke-linejoin="bevel" transform="matrix(0.999966,0,0,-0.999966,12892,55819.2)"
font-family="MS Shell Dlg 2" font-size="10.3125" font-weight="400" font-style="normal" 
>
</g>

<g fill="none" stroke="#000000" stroke-opacity="1" stroke-width="1" stroke-linecap="square" stroke-linejoin="bevel" transform="matrix(1,0,0,-1,0,14340.2)"
font-family="MS Shell Dlg 2" font-size="10.3125" font-weight="400" font-style="normal" 
>
</g>
</g>
</svg>
