<?xml version="1.0" encoding="UTF-8" standalone="no"?>
<svg width="3039.53mm" height="2945.84mm"
 xmlns="http://www.w3.org/2000/svg" xmlns:xlink="http://www.w3.org/1999/xlink"  version="1.2" baseProfile="tiny">
<title>SVG Generator Example Drawing</title>
<desc>An SVG drawing created by the SVG Generator</desc>
<defs>
</defs>
<g fill="none" stroke="black" stroke-width="1" fill-rule="evenodd" stroke-linecap="square" stroke-linejoin="bevel" >

<g fill="none" stroke="#000000" stroke-opacity="1" stroke-width="1" stroke-linecap="square" stroke-linejoin="bevel" transform="matrix(1,0,0,-1,0,10438.3)"
font-family="MS Shell Dlg 2" font-size="10.3125" font-weight="400" font-style="normal" 
>
</g>

<g fill="none" stroke="#000000" stroke-opacity="1" stroke-width="1" stroke-linecap="square" stroke-linejoin="bevel" transform="matrix(1,0,0,-1,0,10438.3)"
font-family="MS Shell Dlg 2" font-size="10.3125" font-weight="400" font-style="normal" 
>
</g>

<g fill="none" stroke="#000000" stroke-opacity="1" stroke-width="1" stroke-linecap="square" stroke-linejoin="bevel" transform="matrix(0.999971,0,0,-0.999971,31011.7,19717.4)"
font-family="MS Shell Dlg 2" font-size="10.3125" font-weight="400" font-style="normal" 
>
</g>

<g fill="#ae5151" fill-opacity="0.2" stroke="#333333" stroke-opacity="1" stroke-width="1" stroke-linecap="round" stroke-linejoin="round" transform="matrix(0.999971,0,0,-0.999971,31011.7,19717.4)"
font-family="MS Shell Dlg 2" font-size="10.3125" font-weight="400" font-style="normal" 
>
<path vector-effect="non-scaling-stroke" fill-rule="evenodd" d="M-28640.3,9394.91 L-28640.3,9394.86 L-30727.8,9423.45 L-30727.8,9423.51 L-30722.6,9802.59 L-30739.4,9799.48 L-31012.1,19315.1 L-28878.5,19320.9 L-28879.5,19700 L-28879.5,19700 L-26756.7,19705.8 L-26756.7,19705.7 L-26755.7,19326.6 L-24632.9,19332.3 L-24633.9,19711.4 L-24633.9,19711.5 L-22511.1,19717.2 L-22511.1,19717.1 L-22510.1,19338 L-20366,19343.8 L-20362.6,19344.5 L-20253.4,9679.13 L-20243,9678.99 L-20242.9,9678.93 L-20248.4,9279.96 L-20248.4,9279.9 L-22335.9,9308.49 L-22335.9,9308.55 L-22330.7,9687.63 L-28635.1,9773.99 L-28640.3,9394.91"/>
</g>

<g fill="none" stroke="#000000" stroke-opacity="1" stroke-width="1" stroke-linecap="square" stroke-linejoin="bevel" transform="matrix(0.999971,0,0,-0.999971,31011.7,19717.4)"
font-family="MS Shell Dlg 2" font-size="10.3125" font-weight="400" font-style="normal" 
>
</g>

<g fill="none" stroke="#000000" stroke-opacity="1" stroke-width="1" stroke-linecap="square" stroke-linejoin="bevel" transform="matrix(1,0,0,-1,0,10438.3)"
font-family="MS Shell Dlg 2" font-size="10.3125" font-weight="400" font-style="normal" 
>
</g>
</g>
</svg>
