<?xml version="1.0" encoding="UTF-8" standalone="no"?>
<svg width="28046.7mm" height="24563.5mm"
 xmlns="http://www.w3.org/2000/svg" xmlns:xlink="http://www.w3.org/1999/xlink"  version="1.2" baseProfile="tiny">
<title>SVG Generator Example Drawing</title>
<desc>An SVG drawing created by the SVG Generator</desc>
<defs>
</defs>
<g fill="none" stroke="black" stroke-width="1" fill-rule="evenodd" stroke-linecap="square" stroke-linejoin="bevel" >

<g fill="none" stroke="#000000" stroke-opacity="1" stroke-width="1" stroke-linecap="square" stroke-linejoin="bevel" transform="matrix(1,0,0,-1,0,87036.1)"
font-family="MS Shell Dlg 2" font-size="10.3125" font-weight="400" font-style="normal" 
>
</g>

<g fill="none" stroke="#000000" stroke-opacity="1" stroke-width="1" stroke-linecap="square" stroke-linejoin="bevel" transform="matrix(1,0,0,-1,0,87036.1)"
font-family="MS Shell Dlg 2" font-size="10.3125" font-weight="400" font-style="normal" 
>
</g>

<g fill="none" stroke="#000000" stroke-opacity="1" stroke-width="1" stroke-linecap="square" stroke-linejoin="bevel" transform="matrix(0.999996,0,0,-0.999996,74965.9,66977)"
font-family="MS Shell Dlg 2" font-size="10.3125" font-weight="400" font-style="normal" 
>
</g>

<g fill="#333333" fill-opacity="0.2" stroke="#333333" stroke-opacity="1" stroke-width="1" stroke-linecap="round" stroke-linejoin="round" transform="matrix(0.999996,0,0,-0.999996,74965.9,66977)"
font-family="MS Shell Dlg 2" font-size="10.3125" font-weight="400" font-style="normal" 
>
<path vector-effect="non-scaling-stroke" fill-rule="evenodd" d="M-62805.9,51549 L-67555.2,55697.4 L-67700.2,55854.4 L-74777.2,65385.3 L-74942.3,65730.4 L-74965.7,66112.2 L-74844.1,66474.9 L-74595.1,66765.4 L-74255.3,66941.1 L-73874.4,66976.4 L-62340.7,65818.3 L-61959,65699.7 L-55844.9,62339.9 L-55782.4,62321.5 L-55439.6,62117.3 L-55405.2,62096.8 L-55062.4,61892.6 L-54993,61822.7 L-52256.9,60001.6 L-51347.9,61668.1 L-51126.3,61943.8 L-50822.6,62125 L-50474.8,62189.3 L-4024.54,62412.6 L-3567.33,62304.4 L-3209.98,61999.4 L-909.326,58824.5 L4095.32,61623.2 L4426.21,61808.2 L4461.14,61827.8 L4809.4,62022.5 L5289.84,62149.7 L5289.9,62149.7 L5339.31,62141.2 L11306.5,64179.9 L11515,64227 L23307.5,65590.5 L23688.9,65560.9 L24031.3,65390.3 L24284.6,65103.6 L24411.6,64742.8 L24393.9,64360.6 L24234,64013.1 L17464.2,54603.6 L17170.7,54332.4 L11203.9,50717.3 L11156.7,50672.4 L10808.5,50477.6 L10773.5,50458.1 L10425.3,50263.3 L10330.1,50238.1 L6637.99,48409.2 L7955.94,46590.4 L8114.74,46252.4 L8138.5,45879.8 L8023.92,45524.4 L-15871.2,1754.02 L-16097,1474.85 L-16406.9,1293.47 L-16760.9,1233.26 L-19358.1,1264.55 L-19386.9,-834.064 L-19392.1,-1213.14 L-19392.6,-1253.17 L-19398.1,-1652.14 L-19528.1,-2131.8 L-19528.2,-2131.86 L-19560.2,-2170.39 L-20778.3,-8357.53 L-20841.7,-8561.6 L-25557.2,-19455.9 L-25773.5,-19771.4 L-26092.4,-19982.7 L-26467.4,-20058.7 L-26843.4,-19988.3 L-27165.5,-19781.9 L-27386.5,-19469.7 L-32150.4,-8902.12 L-32238.6,-8512.26 L-32385.9,-1537.34 L-32401.3,-1474.02 L-32395.8,-1075.04 L-32395.2,-1035.02 L-32389.8,-636.04 L-32364,-540.993 L-32239,1419.74 L-35296.4,1456.58 L-35630.6,1518.37 L-35924.8,1688.56 L-36145.1,1947.46 L-60710.1,43484.7 L-60831.4,43805.3 L-60837.4,44148 L-60727.2,44472.6 L-58398.2,48742.6 L-61735.3,50730.7 L-62061,50924.8 L-62095.4,50945.2 L-62438.2,51149.5 L-62788.6,51502 L-62788.6,51502 L-62805.9,51549"/>
</g>

<g fill="none" stroke="#000000" stroke-opacity="1" stroke-width="1" stroke-linecap="square" stroke-linejoin="bevel" transform="matrix(0.999996,0,0,-0.999996,74965.9,66977)"
font-family="MS Shell Dlg 2" font-size="10.3125" font-weight="400" font-style="normal" 
>
</g>

<g fill="none" stroke="#000000" stroke-opacity="1" stroke-width="1" stroke-linecap="square" stroke-linejoin="bevel" transform="matrix(0.999996,0,0,-0.999996,74965.9,66977)"
font-family="MS Shell Dlg 2" font-size="10.3125" font-weight="400" font-style="normal" 
>
</g>

<g fill="#ae5151" fill-opacity="0.2" stroke="#333333" stroke-opacity="1" stroke-width="1" stroke-linecap="round" stroke-linejoin="round" transform="matrix(0.999996,0,0,-0.999996,74965.9,66977)"
font-family="MS Shell Dlg 2" font-size="10.3125" font-weight="400" font-style="normal" 
>
<path vector-effect="non-scaling-stroke" fill-rule="evenodd" d="M-62805.9,51549 L-67555.2,55697.4 L-67700.2,55854.4 L-74777.2,65385.3 L-74942.3,65730.4 L-74965.7,66112.2 L-74844.1,66474.9 L-74595.1,66765.4 L-74255.3,66941.1 L-73874.4,66976.4 L-62340.7,65818.3 L-61959,65699.7 L-55844.9,62339.9 L-55782.4,62321.5 L-55439.6,62117.3 L-55405.2,62096.8 L-55062.4,61892.6 L-54993,61822.7 L-52256.9,60001.6 L-51347.9,61668.1 L-51126.3,61943.8 L-50822.6,62125 L-50474.8,62189.3 L-4024.54,62412.6 L-3567.33,62304.4 L-3209.98,61999.4 L-909.326,58824.5 L4095.32,61623.2 L4426.21,61808.2 L4461.14,61827.8 L4809.4,62022.5 L5289.84,62149.7 L5289.9,62149.7 L5339.31,62141.2 L11306.5,64179.9 L11515,64227 L23307.5,65590.5 L23688.9,65560.9 L24031.3,65390.3 L24284.6,65103.6 L24411.6,64742.8 L24393.9,64360.6 L24234,64013.1 L17464.2,54603.6 L17170.7,54332.4 L11203.9,50717.3 L11156.7,50672.4 L10808.5,50477.6 L10773.5,50458.1 L10425.3,50263.3 L10330.1,50238.1 L6637.99,48409.2 L7955.94,46590.4 L8114.74,46252.4 L8138.5,45879.8 L8023.92,45524.4 L-15871.2,1754.02 L-16097,1474.85 L-16406.9,1293.47 L-16760.9,1233.26 L-19358.1,1264.55 L-19386.9,-834.064 L-19392.1,-1213.14 L-19392.6,-1253.17 L-19398.1,-1652.14 L-19528.1,-2131.8 L-19528.2,-2131.86 L-19560.2,-2170.39 L-20778.3,-8357.53 L-20841.7,-8561.6 L-25557.2,-19455.9 L-25773.5,-19771.4 L-26092.4,-19982.7 L-26467.4,-20058.7 L-26843.4,-19988.3 L-27165.5,-19781.9 L-27386.5,-19469.7 L-32150.4,-8902.12 L-32238.6,-8512.26 L-32385.9,-1537.34 L-32401.3,-1474.02 L-32395.8,-1075.04 L-32395.2,-1035.02 L-32389.8,-636.04 L-32364,-540.993 L-32239,1419.74 L-35296.4,1456.58 L-35630.6,1518.37 L-35924.8,1688.56 L-36145.1,1947.46 L-60710.1,43484.7 L-60831.4,43805.3 L-60837.4,44148 L-60727.2,44472.6 L-58398.2,48742.6 L-61735.3,50730.7 L-62061,50924.8 L-62095.4,50945.2 L-62438.2,51149.5 L-62788.6,51502 L-62788.6,51502 L-62805.9,51549"/>
</g>

<g fill="none" stroke="#000000" stroke-opacity="1" stroke-width="1" stroke-linecap="square" stroke-linejoin="bevel" transform="matrix(0.999996,0,0,-0.999996,74965.9,66977)"
font-family="MS Shell Dlg 2" font-size="10.3125" font-weight="400" font-style="normal" 
>
</g>

<g fill="none" stroke="#000000" stroke-opacity="1" stroke-width="1" stroke-linecap="square" stroke-linejoin="bevel" transform="matrix(0.999996,0,0,-0.999996,74965.9,66977)"
font-family="MS Shell Dlg 2" font-size="10.3125" font-weight="400" font-style="normal" 
>
</g>

<g fill="#ffff00" fill-opacity="0.2" stroke="#333333" stroke-opacity="1" stroke-width="1" stroke-linecap="round" stroke-linejoin="round" transform="matrix(0.999996,0,0,-0.999996,74965.9,66977)"
font-family="MS Shell Dlg 2" font-size="10.3125" font-weight="400" font-style="normal" 
>
<path vector-effect="non-scaling-stroke" fill-rule="evenodd" d="M-62805.9,51549 L-67555.2,55697.4 L-67700.2,55854.4 L-74777.2,65385.3 L-74942.3,65730.4 L-74965.7,66112.2 L-74844.1,66474.9 L-74595.1,66765.4 L-74255.3,66941.1 L-73874.4,66976.4 L-62340.7,65818.3 L-61959,65699.7 L-55844.9,62339.9 L-55782.4,62321.5 L-55439.6,62117.3 L-55405.2,62096.8 L-55062.4,61892.6 L-54993,61822.7 L-52256.9,60001.6 L-51347.9,61668.1 L-51126.3,61943.8 L-50822.6,62125 L-50474.8,62189.3 L-4024.54,62412.6 L-3567.33,62304.4 L-3209.98,61999.4 L-909.326,58824.5 L4095.32,61623.2 L4426.21,61808.2 L4461.14,61827.8 L4809.4,62022.5 L5289.84,62149.7 L5289.9,62149.7 L5339.31,62141.2 L11306.5,64179.9 L11515,64227 L23307.5,65590.5 L23688.9,65560.9 L24031.3,65390.3 L24284.6,65103.6 L24411.6,64742.8 L24393.9,64360.6 L24234,64013.1 L17464.2,54603.6 L17170.7,54332.4 L11203.9,50717.3 L11156.7,50672.4 L10808.5,50477.6 L10773.5,50458.1 L10425.3,50263.3 L10330.1,50238.1 L6637.99,48409.2 L7955.94,46590.4 L8114.74,46252.4 L8138.5,45879.8 L8023.92,45524.4 L-15871.2,1754.02 L-16097,1474.85 L-16406.9,1293.47 L-16760.9,1233.26 L-19358.1,1264.55 L-19386.9,-834.064 L-19392.1,-1213.14 L-19392.6,-1253.17 L-19398.1,-1652.14 L-19528.1,-2131.8 L-19528.2,-2131.86 L-19560.2,-2170.39 L-20778.3,-8357.53 L-20841.7,-8561.6 L-25557.2,-19455.9 L-25773.5,-19771.4 L-26092.4,-19982.7 L-26467.4,-20058.7 L-26843.4,-19988.3 L-27165.5,-19781.9 L-27386.5,-19469.7 L-32150.4,-8902.12 L-32238.6,-8512.26 L-32385.9,-1537.34 L-32401.3,-1474.02 L-32395.8,-1075.04 L-32395.2,-1035.02 L-32389.8,-636.04 L-32364,-540.993 L-32239,1419.74 L-35296.4,1456.58 L-35630.6,1518.37 L-35924.8,1688.56 L-36145.1,1947.46 L-60710.1,43484.7 L-60831.4,43805.3 L-60837.4,44148 L-60727.2,44472.6 L-58398.2,48742.6 L-61735.3,50730.7 L-62061,50924.8 L-62095.4,50945.2 L-62438.2,51149.5 L-62788.6,51502 L-62788.6,51502 L-62805.9,51549"/>
</g>

<g fill="none" stroke="#000000" stroke-opacity="1" stroke-width="1" stroke-linecap="square" stroke-linejoin="bevel" transform="matrix(0.999996,0,0,-0.999996,74965.9,66977)"
font-family="MS Shell Dlg 2" font-size="10.3125" font-weight="400" font-style="normal" 
>
</g>

<g fill="none" stroke="#000000" stroke-opacity="1" stroke-width="1" stroke-linecap="square" stroke-linejoin="bevel" transform="matrix(0.999996,0,0,-0.999996,74965.9,66977)"
font-family="MS Shell Dlg 2" font-size="10.3125" font-weight="400" font-style="normal" 
>
</g>

<g fill="#ae5151" fill-opacity="0.2" stroke="#333333" stroke-opacity="1" stroke-width="1" stroke-linecap="round" stroke-linejoin="round" transform="matrix(0.999996,0,0,-0.999996,74965.9,66977)"
font-family="MS Shell Dlg 2" font-size="10.3125" font-weight="400" font-style="normal" 
>
<path vector-effect="non-scaling-stroke" fill-rule="evenodd" d="M-62805.9,51549 L-67555.2,55697.4 L-67700.2,55854.4 L-74777.2,65385.3 L-74942.3,65730.4 L-74965.7,66112.2 L-74844.1,66474.9 L-74595.1,66765.4 L-74255.3,66941.1 L-73874.4,66976.4 L-62340.7,65818.3 L-61959,65699.7 L-55844.9,62339.9 L-55782.4,62321.5 L-55439.6,62117.3 L-55405.2,62096.8 L-55062.4,61892.6 L-54993,61822.7 L-52256.9,60001.6 L-51347.9,61668.1 L-51126.3,61943.8 L-50822.6,62125 L-50474.8,62189.3 L-4024.54,62412.6 L-3567.33,62304.4 L-3209.98,61999.4 L-909.326,58824.5 L4095.32,61623.2 L4426.21,61808.2 L4461.14,61827.8 L4809.4,62022.5 L5289.84,62149.7 L5289.9,62149.7 L5339.31,62141.2 L11306.5,64179.9 L11515,64227 L23307.5,65590.5 L23688.9,65560.9 L24031.3,65390.3 L24284.6,65103.6 L24411.6,64742.8 L24393.9,64360.6 L24234,64013.1 L17464.2,54603.6 L17170.7,54332.4 L11203.9,50717.3 L11156.7,50672.4 L10808.5,50477.6 L10773.5,50458.1 L10425.3,50263.3 L10330.1,50238.1 L6637.99,48409.2 L7955.94,46590.4 L8114.74,46252.4 L8138.5,45879.8 L8023.92,45524.4 L-15871.2,1754.02 L-16097,1474.85 L-16406.9,1293.47 L-16760.9,1233.26 L-19358.1,1264.55 L-19386.9,-834.064 L-19392.1,-1213.14 L-19392.6,-1253.17 L-19398.1,-1652.14 L-19528.1,-2131.8 L-19528.2,-2131.86 L-19560.2,-2170.39 L-20778.3,-8357.53 L-20841.7,-8561.6 L-25557.2,-19455.9 L-25773.5,-19771.4 L-26092.4,-19982.7 L-26467.4,-20058.7 L-26843.4,-19988.3 L-27165.5,-19781.9 L-27386.5,-19469.7 L-32150.4,-8902.12 L-32238.6,-8512.26 L-32385.9,-1537.34 L-32401.3,-1474.02 L-32395.8,-1075.04 L-32395.2,-1035.02 L-32389.8,-636.04 L-32364,-540.993 L-32239,1419.74 L-35296.4,1456.58 L-35630.6,1518.37 L-35924.8,1688.56 L-36145.1,1947.46 L-60710.1,43484.7 L-60831.4,43805.3 L-60837.4,44148 L-60727.2,44472.6 L-58398.2,48742.6 L-61735.3,50730.7 L-62061,50924.8 L-62095.4,50945.2 L-62438.2,51149.5 L-62788.6,51502 L-62788.6,51502 L-62805.9,51549"/>
</g>

<g fill="none" stroke="#000000" stroke-opacity="1" stroke-width="1" stroke-linecap="square" stroke-linejoin="bevel" transform="matrix(0.999996,0,0,-0.999996,74965.9,66977)"
font-family="MS Shell Dlg 2" font-size="10.3125" font-weight="400" font-style="normal" 
>
</g>

<g fill="none" stroke="#000000" stroke-opacity="1" stroke-width="1" stroke-linecap="square" stroke-linejoin="bevel" transform="matrix(0.999996,0,0,-0.999996,74965.9,66977)"
font-family="MS Shell Dlg 2" font-size="10.3125" font-weight="400" font-style="normal" 
>
</g>

<g fill="#333333" fill-opacity="0.2" stroke="#333333" stroke-opacity="1" stroke-width="1" stroke-linecap="round" stroke-linejoin="round" transform="matrix(0.999996,0,0,-0.999996,74965.9,66977)"
font-family="MS Shell Dlg 2" font-size="10.3125" font-weight="400" font-style="normal" 
>
<path vector-effect="non-scaling-stroke" fill-rule="evenodd" d="M-62805.9,51549 L-67555.2,55697.4 L-67700.2,55854.4 L-74777.2,65385.3 L-74942.3,65730.4 L-74965.7,66112.2 L-74844.1,66474.9 L-74595.1,66765.4 L-74255.3,66941.1 L-73874.4,66976.4 L-62340.7,65818.3 L-61959,65699.7 L-55844.9,62339.9 L-55782.4,62321.5 L-55439.6,62117.3 L-55405.2,62096.8 L-55062.4,61892.6 L-54993,61822.7 L-52256.9,60001.6 L-51347.9,61668.1 L-51126.3,61943.8 L-50822.6,62125 L-50474.8,62189.3 L-4024.54,62412.6 L-3567.33,62304.4 L-3209.98,61999.4 L-909.326,58824.5 L4095.32,61623.2 L4426.21,61808.2 L4461.14,61827.8 L4809.4,62022.5 L5289.84,62149.7 L5289.9,62149.7 L5339.31,62141.2 L11306.5,64179.9 L11515,64227 L23307.5,65590.5 L23688.9,65560.9 L24031.3,65390.3 L24284.6,65103.6 L24411.6,64742.8 L24393.9,64360.6 L24234,64013.1 L17464.2,54603.6 L17170.7,54332.4 L11203.9,50717.3 L11156.7,50672.4 L10808.5,50477.6 L10773.5,50458.1 L10425.3,50263.3 L10330.1,50238.1 L6637.99,48409.2 L7955.94,46590.4 L8114.74,46252.4 L8138.5,45879.8 L8023.92,45524.4 L-15871.2,1754.02 L-16097,1474.85 L-16406.9,1293.47 L-16760.9,1233.26 L-19358.1,1264.55 L-19386.9,-834.064 L-19392.1,-1213.14 L-19392.6,-1253.17 L-19398.1,-1652.14 L-19528.1,-2131.8 L-19528.2,-2131.86 L-19560.2,-2170.39 L-20778.3,-8357.53 L-20841.7,-8561.6 L-25557.2,-19455.9 L-25773.5,-19771.4 L-26092.4,-19982.7 L-26467.4,-20058.7 L-26843.4,-19988.3 L-27165.5,-19781.9 L-27386.5,-19469.7 L-32150.4,-8902.12 L-32238.6,-8512.26 L-32385.9,-1537.34 L-32401.3,-1474.02 L-32395.8,-1075.04 L-32395.2,-1035.02 L-32389.8,-636.04 L-32364,-540.993 L-32239,1419.74 L-35296.4,1456.58 L-35630.6,1518.37 L-35924.8,1688.56 L-36145.1,1947.46 L-60710.1,43484.7 L-60831.4,43805.3 L-60837.4,44148 L-60727.2,44472.6 L-58398.2,48742.6 L-61735.3,50730.7 L-62061,50924.8 L-62095.4,50945.2 L-62438.2,51149.5 L-62788.6,51502 L-62788.6,51502 L-62805.9,51549"/>
</g>

<g fill="none" stroke="#000000" stroke-opacity="1" stroke-width="1" stroke-linecap="square" stroke-linejoin="bevel" transform="matrix(0.999996,0,0,-0.999996,74965.9,66977)"
font-family="MS Shell Dlg 2" font-size="10.3125" font-weight="400" font-style="normal" 
>
</g>

<g fill="none" stroke="#000000" stroke-opacity="1" stroke-width="1" stroke-linecap="square" stroke-linejoin="bevel" transform="matrix(0.999996,0,0,-0.999996,74965.9,66977)"
font-family="MS Shell Dlg 2" font-size="10.3125" font-weight="400" font-style="normal" 
>
</g>

<g fill="#ae5151" fill-opacity="0.2" stroke="#333333" stroke-opacity="1" stroke-width="1" stroke-linecap="round" stroke-linejoin="round" transform="matrix(0.999996,0,0,-0.999996,74965.9,66977)"
font-family="MS Shell Dlg 2" font-size="10.3125" font-weight="400" font-style="normal" 
>
<path vector-effect="non-scaling-stroke" fill-rule="evenodd" d="M-62805.9,51549 L-67555.2,55697.4 L-67700.2,55854.4 L-74777.2,65385.3 L-74942.3,65730.4 L-74965.7,66112.2 L-74844.1,66474.9 L-74595.1,66765.4 L-74255.3,66941.1 L-73874.4,66976.4 L-62340.7,65818.3 L-61959,65699.7 L-55844.9,62339.9 L-55782.4,62321.5 L-55439.6,62117.3 L-55405.2,62096.8 L-55062.4,61892.6 L-54993,61822.7 L-52256.9,60001.6 L-51347.9,61668.1 L-51126.3,61943.8 L-50822.6,62125 L-50474.8,62189.3 L-4024.54,62412.6 L-3567.33,62304.4 L-3209.98,61999.4 L-909.326,58824.5 L4095.32,61623.2 L4426.21,61808.2 L4461.14,61827.8 L4809.4,62022.5 L5289.84,62149.7 L5289.9,62149.7 L5339.31,62141.2 L11306.5,64179.9 L11515,64227 L23307.5,65590.5 L23688.9,65560.9 L24031.3,65390.3 L24284.6,65103.6 L24411.6,64742.8 L24393.9,64360.6 L24234,64013.1 L17464.2,54603.6 L17170.7,54332.4 L11203.9,50717.3 L11156.7,50672.4 L10808.5,50477.6 L10773.5,50458.1 L10425.3,50263.3 L10330.1,50238.1 L6637.99,48409.2 L7955.94,46590.4 L8114.74,46252.4 L8138.5,45879.8 L8023.92,45524.4 L-15871.2,1754.02 L-16097,1474.85 L-16406.9,1293.47 L-16760.9,1233.26 L-19358.1,1264.55 L-19386.9,-834.064 L-19392.1,-1213.14 L-19392.6,-1253.17 L-19398.1,-1652.14 L-19528.1,-2131.8 L-19528.2,-2131.86 L-19560.2,-2170.39 L-20778.3,-8357.53 L-20841.7,-8561.6 L-25557.2,-19455.9 L-25773.5,-19771.4 L-26092.4,-19982.7 L-26467.4,-20058.7 L-26843.4,-19988.3 L-27165.5,-19781.9 L-27386.5,-19469.7 L-32150.4,-8902.12 L-32238.6,-8512.26 L-32385.9,-1537.34 L-32401.3,-1474.02 L-32395.8,-1075.04 L-32395.2,-1035.02 L-32389.8,-636.04 L-32364,-540.993 L-32239,1419.74 L-35296.4,1456.58 L-35630.6,1518.37 L-35924.8,1688.56 L-36145.1,1947.46 L-60710.1,43484.7 L-60831.4,43805.3 L-60837.4,44148 L-60727.2,44472.6 L-58398.2,48742.6 L-61735.3,50730.7 L-62061,50924.8 L-62095.4,50945.2 L-62438.2,51149.5 L-62788.6,51502 L-62788.6,51502 L-62805.9,51549"/>
</g>

<g fill="none" stroke="#000000" stroke-opacity="1" stroke-width="1" stroke-linecap="square" stroke-linejoin="bevel" transform="matrix(0.999996,0,0,-0.999996,74965.9,66977)"
font-family="MS Shell Dlg 2" font-size="10.3125" font-weight="400" font-style="normal" 
>
</g>

<g fill="none" stroke="#000000" stroke-opacity="1" stroke-width="1" stroke-linecap="square" stroke-linejoin="bevel" transform="matrix(0.999996,0,0,-0.999996,74965.9,66977)"
font-family="MS Shell Dlg 2" font-size="10.3125" font-weight="400" font-style="normal" 
>
</g>

<g fill="#333333" fill-opacity="0.2" stroke="#333333" stroke-opacity="1" stroke-width="1" stroke-linecap="round" stroke-linejoin="round" transform="matrix(0.999996,0,0,-0.999996,74965.9,66977)"
font-family="MS Shell Dlg 2" font-size="10.3125" font-weight="400" font-style="normal" 
>
<path vector-effect="non-scaling-stroke" fill-rule="evenodd" d="M-62805.9,51549 L-67555.2,55697.4 L-67700.2,55854.4 L-74777.2,65385.3 L-74942.3,65730.4 L-74965.7,66112.2 L-74844.1,66474.9 L-74595.1,66765.4 L-74255.3,66941.1 L-73874.4,66976.4 L-62340.7,65818.3 L-61959,65699.7 L-55844.9,62339.9 L-55782.4,62321.5 L-55439.6,62117.3 L-55405.2,62096.8 L-55062.4,61892.6 L-54993,61822.7 L-52256.9,60001.6 L-51347.9,61668.1 L-51126.3,61943.8 L-50822.6,62125 L-50474.8,62189.3 L-4024.54,62412.6 L-3567.33,62304.4 L-3209.98,61999.4 L-909.326,58824.5 L4095.32,61623.2 L4426.21,61808.2 L4461.14,61827.8 L4809.4,62022.5 L5289.84,62149.7 L5289.9,62149.7 L5339.31,62141.2 L11306.5,64179.9 L11515,64227 L23307.5,65590.5 L23688.9,65560.9 L24031.3,65390.3 L24284.6,65103.6 L24411.6,64742.8 L24393.9,64360.6 L24234,64013.1 L17464.2,54603.6 L17170.7,54332.4 L11203.9,50717.3 L11156.7,50672.4 L10808.5,50477.6 L10773.5,50458.1 L10425.3,50263.3 L10330.1,50238.1 L6637.99,48409.2 L7955.94,46590.4 L8114.74,46252.4 L8138.5,45879.8 L8023.92,45524.4 L-15871.2,1754.02 L-16097,1474.85 L-16406.9,1293.47 L-16760.9,1233.26 L-19358.1,1264.55 L-19386.9,-834.064 L-19392.1,-1213.14 L-19392.6,-1253.17 L-19398.1,-1652.14 L-19528.1,-2131.8 L-19528.2,-2131.86 L-19560.2,-2170.39 L-20778.3,-8357.53 L-20841.7,-8561.6 L-25557.2,-19455.9 L-25773.5,-19771.4 L-26092.4,-19982.7 L-26467.4,-20058.7 L-26843.4,-19988.3 L-27165.5,-19781.9 L-27386.5,-19469.7 L-32150.4,-8902.12 L-32238.6,-8512.26 L-32385.9,-1537.34 L-32401.3,-1474.02 L-32395.8,-1075.04 L-32395.2,-1035.02 L-32389.8,-636.04 L-32364,-540.993 L-32239,1419.74 L-35296.4,1456.58 L-35630.6,1518.37 L-35924.8,1688.56 L-36145.1,1947.46 L-60710.1,43484.7 L-60831.4,43805.3 L-60837.4,44148 L-60727.2,44472.6 L-58398.2,48742.6 L-61735.3,50730.7 L-62061,50924.8 L-62095.4,50945.2 L-62438.2,51149.5 L-62788.6,51502 L-62788.6,51502 L-62805.9,51549"/>
</g>

<g fill="none" stroke="#000000" stroke-opacity="1" stroke-width="1" stroke-linecap="square" stroke-linejoin="bevel" transform="matrix(0.999996,0,0,-0.999996,74965.9,66977)"
font-family="MS Shell Dlg 2" font-size="10.3125" font-weight="400" font-style="normal" 
>
</g>

<g fill="none" stroke="#000000" stroke-opacity="1" stroke-width="1" stroke-linecap="square" stroke-linejoin="bevel" transform="matrix(1,0,0,-1,0,87036.1)"
font-family="MS Shell Dlg 2" font-size="10.3125" font-weight="400" font-style="normal" 
>
</g>
</g>
</svg>
