<?xml version="1.0" encoding="UTF-8" standalone="no"?>
<svg width="27487.6mm" height="24000.5mm"
 xmlns="http://www.w3.org/2000/svg" xmlns:xlink="http://www.w3.org/1999/xlink"  version="1.2" baseProfile="tiny">
<title>SVG Generator Example Drawing</title>
<desc>An SVG drawing created by the SVG Generator</desc>
<defs>
</defs>
<g fill="none" stroke="black" stroke-width="1" fill-rule="evenodd" stroke-linecap="square" stroke-linejoin="bevel" >

<g fill="none" stroke="#000000" stroke-opacity="1" stroke-width="1" stroke-linecap="square" stroke-linejoin="bevel" transform="matrix(1,0,0,-1,0,85041.1)"
font-family="MS Shell Dlg 2" font-size="10.3125" font-weight="400" font-style="normal" 
>
</g>

<g fill="none" stroke="#000000" stroke-opacity="1" stroke-width="1" stroke-linecap="square" stroke-linejoin="bevel" transform="matrix(1,0,0,-1,0,85041.1)"
font-family="MS Shell Dlg 2" font-size="10.3125" font-weight="400" font-style="normal" 
>
</g>

<g fill="none" stroke="#000000" stroke-opacity="1" stroke-width="1" stroke-linecap="square" stroke-linejoin="bevel" transform="matrix(0.999994,0,0,-0.999994,73974.3,65982.1)"
font-family="MS Shell Dlg 2" font-size="10.3125" font-weight="400" font-style="normal" 
>
</g>

<g fill="#ae5151" fill-opacity="0.2" stroke="#333333" stroke-opacity="1" stroke-width="1" stroke-linecap="round" stroke-linejoin="round" transform="matrix(0.999994,0,0,-0.999994,73974.3,65982.1)"
font-family="MS Shell Dlg 2" font-size="10.3125" font-weight="400" font-style="normal" 
>
<path vector-effect="non-scaling-stroke" fill-rule="evenodd" d="M-29198.2,-699.662 L-26984.4,-729.988 L-26989.6,-1109.07 L-26990.1,-1149.09 L-26990.2,-1149.03 L-29182,-1119.01 L-29182.1,-1119.06 L-29187.2,-1498.14 L-31387.2,-1468.01 L-31386.7,-1487.97 L-31401.3,-1487.77 L-31401.3,-1487.71 L-31395.9,-1088.74 L-31395.3,-1048.72 L-31395.3,-1048.77 L-29203.5,-1078.8 L-29203.4,-1078.74 L-29198.2,-699.662"/>
</g>

<g fill="none" stroke="#000000" stroke-opacity="1" stroke-width="1" stroke-linecap="square" stroke-linejoin="bevel" transform="matrix(0.999994,0,0,-0.999994,73974.3,65982.1)"
font-family="MS Shell Dlg 2" font-size="10.3125" font-weight="400" font-style="normal" 
>
</g>

<g fill="none" stroke="#000000" stroke-opacity="1" stroke-width="1" stroke-linecap="square" stroke-linejoin="bevel" transform="matrix(0.999994,0,0,-0.999994,73974.3,65982.1)"
font-family="MS Shell Dlg 2" font-size="10.3125" font-weight="400" font-style="normal" 
>
</g>

<g fill="#ae5151" fill-opacity="0.2" stroke="#333333" stroke-opacity="1" stroke-width="1" stroke-linecap="round" stroke-linejoin="round" transform="matrix(0.999994,0,0,-0.999994,73974.3,65982.1)"
font-family="MS Shell Dlg 2" font-size="10.3125" font-weight="400" font-style="normal" 
>
<path vector-effect="non-scaling-stroke" fill-rule="evenodd" d="M8884.61,53059.1 L7803.96,54991.5 L8134.85,55176.5 L8169.78,55196.1 L8169.75,55196 L9239.67,53282.8 L9239.73,53282.8 L9570.62,53467.8 L10644.5,51547.6 L10661.6,51557.9 L10668.7,51545.2 L10668.6,51545.2 L10320.4,51350.4 L10285.4,51330.9 L10285.5,51330.9 L9215.56,53244.1 L9215.5,53244.1 L8884.61,53059.1"/>
</g>

<g fill="none" stroke="#000000" stroke-opacity="1" stroke-width="1" stroke-linecap="square" stroke-linejoin="bevel" transform="matrix(0.999994,0,0,-0.999994,73974.3,65982.1)"
font-family="MS Shell Dlg 2" font-size="10.3125" font-weight="400" font-style="normal" 
>
</g>

<g fill="none" stroke="#000000" stroke-opacity="1" stroke-width="1" stroke-linecap="square" stroke-linejoin="bevel" transform="matrix(0.999994,0,0,-0.999994,73974.3,65982.1)"
font-family="MS Shell Dlg 2" font-size="10.3125" font-weight="400" font-style="normal" 
>
</g>

<g fill="#ae5151" fill-opacity="0.2" stroke="#333333" stroke-opacity="1" stroke-width="1" stroke-linecap="round" stroke-linejoin="round" transform="matrix(0.999994,0,0,-0.999994,73974.3,65982.1)"
font-family="MS Shell Dlg 2" font-size="10.3125" font-weight="400" font-style="normal" 
>
<path vector-effect="non-scaling-stroke" fill-rule="evenodd" d="M-22611.5,-1588.22 L-22606.3,-1209.14 L-22606.4,-1209.09 L-24798.2,-1179.06 L-24798.2,-1179.12 L-24797.7,-1139.09 L-24792.5,-760.014 L-22578.7,-790.341 L-22583.9,-1169.42 L-22583.8,-1169.48 L-20392,-1199.5 L-20392,-1199.45 L-20392.5,-1239.47 L-20398,-1638.45 L-20398,-1638.5 L-20474.5,-1637.45 L-20470.6,-1617.55 L-22611.5,-1588.22"/>
</g>

<g fill="none" stroke="#000000" stroke-opacity="1" stroke-width="1" stroke-linecap="square" stroke-linejoin="bevel" transform="matrix(0.999994,0,0,-0.999994,73974.3,65982.1)"
font-family="MS Shell Dlg 2" font-size="10.3125" font-weight="400" font-style="normal" 
>
</g>

<g fill="none" stroke="#000000" stroke-opacity="1" stroke-width="1" stroke-linecap="square" stroke-linejoin="bevel" transform="matrix(0.999994,0,0,-0.999994,73974.3,65982.1)"
font-family="MS Shell Dlg 2" font-size="10.3125" font-weight="400" font-style="normal" 
>
</g>

<g fill="#ae5151" fill-opacity="0.2" stroke="#333333" stroke-opacity="1" stroke-width="1" stroke-linecap="round" stroke-linejoin="round" transform="matrix(0.999994,0,0,-0.999994,73974.3,65982.1)"
font-family="MS Shell Dlg 2" font-size="10.3125" font-weight="400" font-style="normal" 
>
<path vector-effect="non-scaling-stroke" fill-rule="evenodd" d="M-60776.1,53900.4 L-60450.4,53706.4 L-60450.4,53706.4 L-59328.4,55589.6 L-59328.5,55589.6 L-59294.1,55569.2 L-58968.4,55375.1 L-60101.6,53473.1 L-60427.3,53667.1 L-60427.3,53667.1 L-61549.3,51783.9 L-61549.2,51783.9 L-61583.6,51804.3 L-61926.4,52008.6 L-61926.4,52008.6 L-61887.3,52074.4 L-61872,52061 L-60776.1,53900.4"/>
</g>

<g fill="none" stroke="#000000" stroke-opacity="1" stroke-width="1" stroke-linecap="square" stroke-linejoin="bevel" transform="matrix(0.999994,0,0,-0.999994,73974.3,65982.1)"
font-family="MS Shell Dlg 2" font-size="10.3125" font-weight="400" font-style="normal" 
>
</g>

<g fill="none" stroke="#000000" stroke-opacity="1" stroke-width="1" stroke-linecap="square" stroke-linejoin="bevel" transform="matrix(0.999994,0,0,-0.999994,73974.3,65982.1)"
font-family="MS Shell Dlg 2" font-size="10.3125" font-weight="400" font-style="normal" 
>
</g>

<g fill="#ae5151" fill-opacity="0.2" stroke="#333333" stroke-opacity="1" stroke-width="1" stroke-linecap="round" stroke-linejoin="round" transform="matrix(0.999994,0,0,-0.999994,73974.3,65982.1)"
font-family="MS Shell Dlg 2" font-size="10.3125" font-weight="400" font-style="normal" 
>
<path vector-effect="non-scaling-stroke" fill-rule="evenodd" d="M5653.36,58837.1 L5984.25,59022.2 L5984.28,59022.2 L4914.36,60935.4 L4914.3,60935.4 L4949.23,60955 L5297.49,61149.7 L5297.55,61149.7 L5334.9,61082.9 L5315.71,61076.4 L6360.77,59207.6 L6029.88,59022.6 L6029.85,59022.5 L7099.77,57109.3 L7099.83,57109.3 L7064.9,57089.8 L6734.01,56904.7 L5653.36,58837.1"/>
</g>

<g fill="none" stroke="#000000" stroke-opacity="1" stroke-width="1" stroke-linecap="square" stroke-linejoin="bevel" transform="matrix(0.999994,0,0,-0.999994,73974.3,65982.1)"
font-family="MS Shell Dlg 2" font-size="10.3125" font-weight="400" font-style="normal" 
>
</g>

<g fill="none" stroke="#000000" stroke-opacity="1" stroke-width="1" stroke-linecap="square" stroke-linejoin="bevel" transform="matrix(0.999994,0,0,-0.999994,73974.3,65982.1)"
font-family="MS Shell Dlg 2" font-size="10.3125" font-weight="400" font-style="normal" 
>
</g>

<g fill="#ae5151" fill-opacity="0.2" stroke="#333333" stroke-opacity="1" stroke-width="1" stroke-linecap="round" stroke-linejoin="round" transform="matrix(0.999994,0,0,-0.999994,73974.3,65982.1)"
font-family="MS Shell Dlg 2" font-size="10.3125" font-weight="400" font-style="normal" 
>
<path vector-effect="non-scaling-stroke" fill-rule="evenodd" d="M-57410.3,59550.1 L-56284.2,61440.3 L-56301.7,61449.9 L-56294.2,61462.4 L-56294.2,61462.4 L-55951.4,61258.2 L-55917,61237.7 L-55917.1,61237.7 L-57039,59354.5 L-57039,59354.5 L-56713.3,59160.4 L-57846.4,57258.4 L-58172.1,57452.4 L-58206.5,57472.9 L-58206.5,57472.9 L-57084.5,59356.1 L-57084.6,59356.1 L-57410.3,59550.1"/>
</g>

<g fill="none" stroke="#000000" stroke-opacity="1" stroke-width="1" stroke-linecap="square" stroke-linejoin="bevel" transform="matrix(0.999994,0,0,-0.999994,73974.3,65982.1)"
font-family="MS Shell Dlg 2" font-size="10.3125" font-weight="400" font-style="normal" 
>
</g>

<g fill="none" stroke="#000000" stroke-opacity="1" stroke-width="1" stroke-linecap="square" stroke-linejoin="bevel" transform="matrix(0.999994,0,0,-0.999994,73974.3,65982.1)"
font-family="MS Shell Dlg 2" font-size="10.3125" font-weight="400" font-style="normal" 
>
</g>

<g fill="#333333" fill-opacity="0.2" stroke="#333333" stroke-opacity="1" stroke-width="1" stroke-linecap="round" stroke-linejoin="round" transform="matrix(0.999994,0,0,-0.999994,73974.3,65982.1)"
font-family="MS Shell Dlg 2" font-size="10.3125" font-weight="400" font-style="normal" 
>
<path vector-effect="non-scaling-stroke" fill-rule="evenodd" d="M-31237.8,1407.68 L-20358,1276.6 L-20386.8,-820.367 L-20392,-1199.45 L-20392.5,-1239.47 L-20398,-1638.45 L-20398,-1638.5 L-20474.5,-1637.45 L-21759.4,-8164.37 L-26474.9,-19058.7 L-31238.8,-8491.14 L-31386.7,-1487.97 L-31401.3,-1487.77 L-31401.3,-1487.71 L-31395.9,-1088.74 L-31395.3,-1048.72 L-31389.9,-649.738 L-31389.8,-649.682 L-31368.9,-649.968 L-31237.8,1407.68 M-26995.3,-1528.17 L-24803.4,-1558.2 L-24798.2,-1179.12 L-24797.7,-1139.09 L-24792.5,-760.014 L-26984.4,-729.988 L-26989.6,-1109.07 L-26990.1,-1149.09 L-26995.3,-1528.17"/>
</g>

<g fill="none" stroke="#000000" stroke-opacity="1" stroke-width="1" stroke-linecap="square" stroke-linejoin="bevel" transform="matrix(0.999994,0,0,-0.999994,73974.3,65982.1)"
font-family="MS Shell Dlg 2" font-size="10.3125" font-weight="400" font-style="normal" 
>
</g>

<g fill="none" stroke="#000000" stroke-opacity="1" stroke-width="1" stroke-linecap="square" stroke-linejoin="bevel" transform="matrix(0.999994,0,0,-0.999994,73974.3,65982.1)"
font-family="MS Shell Dlg 2" font-size="10.3125" font-weight="400" font-style="normal" 
>
</g>

<g fill="#333333" fill-opacity="0.2" stroke="#333333" stroke-opacity="1" stroke-width="1" stroke-linecap="round" stroke-linejoin="round" transform="matrix(0.999994,0,0,-0.999994,73974.3,65982.1)"
font-family="MS Shell Dlg 2" font-size="10.3125" font-weight="400" font-style="normal" 
>
<path vector-effect="non-scaling-stroke" fill-rule="evenodd" d="M4583.41,60750.4 L4914.3,60935.4 L4949.23,60955 L5297.49,61149.7 L5297.55,61149.7 L5334.9,61082.9 L11629.8,63233.6 L23422.3,64597.1 L16652.5,55187.7 L10661.6,51557.9 L10668.7,51545.2 L10668.6,51545.2 L10320.4,51350.4 L10285.4,51330.9 L9937.19,51136.1 L9937.12,51136.1 L9926.91,51154.4 L6042.93,49230.3 L-318.499,58009.1 L4583.41,60750.4 M7064.9,57089.8 L6734.01,56904.7 L7803.96,54991.5 L8134.85,55176.5 L8169.78,55196.1 L8500.67,55381.1 L7430.72,57294.4 L7099.83,57109.3 L7064.9,57089.8"/>
</g>

<g fill="none" stroke="#000000" stroke-opacity="1" stroke-width="1" stroke-linecap="square" stroke-linejoin="bevel" transform="matrix(0.999994,0,0,-0.999994,73974.3,65982.1)"
font-family="MS Shell Dlg 2" font-size="10.3125" font-weight="400" font-style="normal" 
>
</g>

<g fill="none" stroke="#000000" stroke-opacity="1" stroke-width="1" stroke-linecap="square" stroke-linejoin="bevel" transform="matrix(0.999994,0,0,-0.999994,73974.3,65982.1)"
font-family="MS Shell Dlg 2" font-size="10.3125" font-weight="400" font-style="normal" 
>
</g>

<g fill="#333333" fill-opacity="0.2" stroke="#333333" stroke-opacity="1" stroke-width="1" stroke-linecap="round" stroke-linejoin="round" transform="matrix(0.999994,0,0,-0.999994,73974.3,65982.1)"
font-family="MS Shell Dlg 2" font-size="10.3125" font-weight="400" font-style="normal" 
>
<path vector-effect="non-scaling-stroke" fill-rule="evenodd" d="M-61223.5,51589.8 L-61549.2,51783.9 L-61583.6,51804.3 L-61926.4,52008.6 L-61926.4,52008.6 L-61887.3,52074.4 L-66897.3,56450.6 L-73974.3,65981.4 L-62440.6,64823.3 L-56301.7,61449.9 L-56294.2,61462.4 L-56294.2,61462.4 L-55951.4,61258.2 L-55917,61237.7 L-55574.2,61033.5 L-55574.2,61033.4 L-55584.9,61015.4 L-52737.6,59120.3 L-57919,49621.1 L-61223.5,51589.8 M-58532.2,57666.9 L-59654.2,55783.7 L-59328.5,55589.6 L-59294.1,55569.2 L-58968.4,55375.1 L-57846.4,57258.4 L-58172.1,57452.4 L-58206.5,57472.9 L-58532.2,57666.9"/>
</g>

<g fill="none" stroke="#000000" stroke-opacity="1" stroke-width="1" stroke-linecap="square" stroke-linejoin="bevel" transform="matrix(0.999994,0,0,-0.999994,73974.3,65982.1)"
font-family="MS Shell Dlg 2" font-size="10.3125" font-weight="400" font-style="normal" 
>
</g>

<g fill="none" stroke="#000000" stroke-opacity="1" stroke-width="1" stroke-linecap="square" stroke-linejoin="bevel" transform="matrix(1,0,0,-1,0,85041.1)"
font-family="MS Shell Dlg 2" font-size="10.3125" font-weight="400" font-style="normal" 
>
</g>
</g>
</svg>
