<?xml version="1.0" encoding="UTF-8" standalone="no"?>
<svg width="30874.3mm" height="27387.1mm"
 xmlns="http://www.w3.org/2000/svg" xmlns:xlink="http://www.w3.org/1999/xlink"  version="1.2" baseProfile="tiny">
<title>SVG Generator Example Drawing</title>
<desc>An SVG drawing created by the SVG Generator</desc>
<defs>
</defs>
<g fill="none" stroke="black" stroke-width="1" fill-rule="evenodd" stroke-linecap="square" stroke-linejoin="bevel" >

<g fill="none" stroke="#000000" stroke-opacity="1" stroke-width="1" stroke-linecap="square" stroke-linejoin="bevel" transform="matrix(1,0,0,-1,0,97041.1)"
font-family="MS Shell Dlg 2" font-size="10.3125" font-weight="400" font-style="normal" 
>
</g>

<g fill="none" stroke="#000000" stroke-opacity="1" stroke-width="1" stroke-linecap="square" stroke-linejoin="bevel" transform="matrix(1,0,0,-1,0,97041.1)"
font-family="MS Shell Dlg 2" font-size="10.3125" font-weight="400" font-style="normal" 
>
</g>

<g fill="none" stroke="#000000" stroke-opacity="1" stroke-width="1" stroke-linecap="square" stroke-linejoin="bevel" transform="matrix(0.999994,0,0,-0.999994,79974.4,71982.1)"
font-family="MS Shell Dlg 2" font-size="10.3125" font-weight="400" font-style="normal" 
>
</g>

<g fill="#333333" fill-opacity="0.2" stroke="#333333" stroke-opacity="1" stroke-width="1" stroke-linecap="round" stroke-linejoin="round" transform="matrix(0.999994,0,0,-0.999994,79974.4,71982.1)"
font-family="MS Shell Dlg 2" font-size="10.3125" font-weight="400" font-style="normal" 
>
<path vector-effect="non-scaling-stroke" fill-rule="evenodd" d="M-79974.3,-25058.7 L-79974.3,71981.4 L29422.3,71981.4 L29422.3,-25058.7 L-79974.3,-25058.7 M-62805.9,51549 L-62788.6,51502 L-62788.6,51502 L-62438.2,51149.5 L-62095.4,50945.2 L-61914.1,50891.9 L-61735.3,50730.7 L-57538.5,48230.4 L-59849.4,43993.7 L-35284.3,2456.5 L-32175.3,2419.05 L-32368.2,-606.296 L-32334.3,-848.351 L-32395.8,-1075.04 L-32401.3,-1474.02 L-32385.9,-1537.34 L-32238.6,-8512.26 L-32150.4,-8902.12 L-27386.5,-19469.7 L-27165.5,-19781.9 L-26843.4,-19988.3 L-26467.4,-20058.7 L-26092.4,-19982.7 L-25773.5,-19771.4 L-25557.2,-19455.9 L-20841.7,-8561.6 L-20778.3,-8357.53 L-19560.2,-2170.39 L-19528.2,-2131.86 L-19528.1,-2131.8 L-19398.1,-1652.14 L-19392.6,-1253.17 L-19437.1,-1069.49 L-19386.9,-834.064 L-19344.4,2264.46 L-16748.9,2233.18 L7146.19,46003.6 L5729.25,47959 L10388.7,50267.2 L10581.4,50417.5 L10808.5,50477.6 L11156.7,50672.4 L11203.9,50717.3 L17170.7,54332.4 L17464.2,54603.6 L24234,64013.1 L24393.9,64360.6 L24411.6,64742.8 L24284.6,65103.6 L24031.3,65390.3 L23688.9,65560.9 L23307.5,65590.5 L11515,64227 L11306.5,64179.9 L5339.31,62141.2 L5289.9,62149.7 L5289.84,62149.7 L4809.4,62022.5 L4461.14,61827.8 L4324.29,61697.4 L4095.32,61623.2 L-1788.14,58333 L-4019.73,61412.6 L-50470,61189.3 L-51421.2,59445.4 L-55047.4,61859 L-55274,61950.7 L-55439.6,62117.3 L-55782.4,62321.5 L-55844.9,62339.9 L-61959,65699.7 L-62340.7,65818.3 L-73874.4,66976.4 L-74255.3,66941.1 L-74595.1,66765.4 L-74844.1,66474.9 L-74965.7,66112.2 L-74942.3,65730.4 L-74777.2,65385.3 L-67700.2,55854.4 L-67555.2,55697.4 L-62805.9,51549"/>
</g>

<g fill="none" stroke="#000000" stroke-opacity="1" stroke-width="1" stroke-linecap="square" stroke-linejoin="bevel" transform="matrix(0.999994,0,0,-0.999994,79974.4,71982.1)"
font-family="MS Shell Dlg 2" font-size="10.3125" font-weight="400" font-style="normal" 
>
</g>

<g fill="none" stroke="#000000" stroke-opacity="1" stroke-width="1" stroke-linecap="square" stroke-linejoin="bevel" transform="matrix(0.999994,0,0,-0.999994,79974.4,71982.1)"
font-family="MS Shell Dlg 2" font-size="10.3125" font-weight="400" font-style="normal" 
>
</g>

<g fill="#ae5151" fill-opacity="0.2" stroke="#333333" stroke-opacity="1" stroke-width="1" stroke-linecap="round" stroke-linejoin="round" transform="matrix(0.999994,0,0,-0.999994,79974.4,71982.1)"
font-family="MS Shell Dlg 2" font-size="10.3125" font-weight="400" font-style="normal" 
>
<path vector-effect="non-scaling-stroke" fill-rule="evenodd" d="M-79974.3,-25058.7 L-79974.3,71981.4 L29422.3,71981.4 L29422.3,-25058.7 L-79974.3,-25058.7 M-62805.9,51549 L-62788.6,51502 L-62788.6,51502 L-62438.2,51149.5 L-62095.4,50945.2 L-61914.1,50891.9 L-61735.3,50730.7 L-57538.5,48230.4 L-59849.4,43993.7 L-35284.3,2456.5 L-32175.3,2419.05 L-32368.2,-606.296 L-32334.3,-848.351 L-32395.8,-1075.04 L-32401.3,-1474.02 L-32385.9,-1537.34 L-32238.6,-8512.26 L-32150.4,-8902.12 L-27386.5,-19469.7 L-27165.5,-19781.9 L-26843.4,-19988.3 L-26467.4,-20058.7 L-26092.4,-19982.7 L-25773.5,-19771.4 L-25557.2,-19455.9 L-20841.7,-8561.6 L-20778.3,-8357.53 L-19560.2,-2170.39 L-19528.2,-2131.86 L-19528.1,-2131.8 L-19398.1,-1652.14 L-19392.6,-1253.17 L-19437.1,-1069.49 L-19386.9,-834.064 L-19344.4,2264.46 L-16748.9,2233.18 L7146.19,46003.6 L5729.25,47959 L10388.7,50267.2 L10581.4,50417.5 L10808.5,50477.6 L11156.7,50672.4 L11203.9,50717.3 L17170.7,54332.4 L17464.2,54603.6 L24234,64013.1 L24393.9,64360.6 L24411.6,64742.8 L24284.6,65103.6 L24031.3,65390.3 L23688.9,65560.9 L23307.5,65590.5 L11515,64227 L11306.5,64179.9 L5339.31,62141.2 L5289.9,62149.7 L5289.84,62149.7 L4809.4,62022.5 L4461.14,61827.8 L4324.29,61697.4 L4095.32,61623.2 L-1788.14,58333 L-4019.73,61412.6 L-50470,61189.3 L-51421.2,59445.4 L-55047.4,61859 L-55274,61950.7 L-55439.6,62117.3 L-55782.4,62321.5 L-55844.9,62339.9 L-61959,65699.7 L-62340.7,65818.3 L-73874.4,66976.4 L-74255.3,66941.1 L-74595.1,66765.4 L-74844.1,66474.9 L-74965.7,66112.2 L-74942.3,65730.4 L-74777.2,65385.3 L-67700.2,55854.4 L-67555.2,55697.4 L-62805.9,51549"/>
</g>

<g fill="none" stroke="#000000" stroke-opacity="1" stroke-width="1" stroke-linecap="square" stroke-linejoin="bevel" transform="matrix(0.999994,0,0,-0.999994,79974.4,71982.1)"
font-family="MS Shell Dlg 2" font-size="10.3125" font-weight="400" font-style="normal" 
>
</g>

<g fill="none" stroke="#000000" stroke-opacity="1" stroke-width="1" stroke-linecap="square" stroke-linejoin="bevel" transform="matrix(0.999994,0,0,-0.999994,79974.4,71982.1)"
font-family="MS Shell Dlg 2" font-size="10.3125" font-weight="400" font-style="normal" 
>
</g>

<g fill="#ffff00" fill-opacity="0.2" stroke="#333333" stroke-opacity="1" stroke-width="1" stroke-linecap="round" stroke-linejoin="round" transform="matrix(0.999994,0,0,-0.999994,79974.4,71982.1)"
font-family="MS Shell Dlg 2" font-size="10.3125" font-weight="400" font-style="normal" 
>
<path vector-effect="non-scaling-stroke" fill-rule="evenodd" d="M-79974.3,-25058.7 L-79974.3,71981.4 L29422.3,71981.4 L29422.3,-25058.7 L-79974.3,-25058.7 M-62805.9,51549 L-62788.6,51502 L-62788.6,51502 L-62438.2,51149.5 L-61735.3,50730.7 L-57538.5,48230.4 L-59849.4,43993.7 L-35284.3,2456.5 L-32175.3,2419.05 L-32364,-540.993 L-32389.8,-636.04 L-32401.3,-1474.02 L-32385.9,-1537.34 L-32238.6,-8512.26 L-32150.4,-8902.12 L-27386.5,-19469.7 L-27165.5,-19781.9 L-26843.4,-19988.3 L-26467.4,-20058.7 L-26092.4,-19982.7 L-25773.5,-19771.4 L-25557.2,-19455.9 L-20841.7,-8561.6 L-20778.3,-8357.53 L-19560.2,-2170.39 L-19528.2,-2131.86 L-19528.1,-2131.8 L-19398.1,-1652.14 L-19386.9,-834.064 L-19344.4,2264.46 L-16748.9,2233.18 L7146.19,46003.6 L5729.25,47959 L10330.1,50238.1 L10425.3,50263.3 L11156.7,50672.4 L11203.9,50717.3 L17170.7,54332.4 L17464.2,54603.6 L24234,64013.1 L24393.9,64360.6 L24411.6,64742.8 L24284.6,65103.6 L24031.3,65390.3 L23688.9,65560.9 L23307.5,65590.5 L11515,64227 L11306.5,64179.9 L5339.31,62141.2 L5289.9,62149.7 L5289.84,62149.7 L4809.4,62022.5 L4095.32,61623.2 L-1788.14,58333 L-4019.73,61412.6 L-50470,61189.3 L-51421.2,59445.4 L-54993,61822.7 L-55062.4,61892.6 L-55782.4,62321.5 L-55844.9,62339.9 L-61959,65699.7 L-62340.7,65818.3 L-73874.4,66976.4 L-74255.3,66941.1 L-74595.1,66765.4 L-74844.1,66474.9 L-74965.7,66112.2 L-74942.3,65730.4 L-74777.2,65385.3 L-67700.2,55854.4 L-67555.2,55697.4 L-62805.9,51549"/>
</g>

<g fill="none" stroke="#000000" stroke-opacity="1" stroke-width="1" stroke-linecap="square" stroke-linejoin="bevel" transform="matrix(0.999994,0,0,-0.999994,79974.4,71982.1)"
font-family="MS Shell Dlg 2" font-size="10.3125" font-weight="400" font-style="normal" 
>
</g>

<g fill="none" stroke="#000000" stroke-opacity="1" stroke-width="1" stroke-linecap="square" stroke-linejoin="bevel" transform="matrix(0.999994,0,0,-0.999994,79974.4,71982.1)"
font-family="MS Shell Dlg 2" font-size="10.3125" font-weight="400" font-style="normal" 
>
</g>

<g fill="#ae5151" fill-opacity="0.2" stroke="#333333" stroke-opacity="1" stroke-width="1" stroke-linecap="round" stroke-linejoin="round" transform="matrix(0.999994,0,0,-0.999994,79974.4,71982.1)"
font-family="MS Shell Dlg 2" font-size="10.3125" font-weight="400" font-style="normal" 
>
<path vector-effect="non-scaling-stroke" fill-rule="evenodd" d="M-79974.3,-25058.7 L-79974.3,71981.4 L29422.3,71981.4 L29422.3,-25058.7 L-79974.3,-25058.7 M-62337.8,51203.2 L-62061,50924.8 L-61735.3,50730.7 L-57538.5,48230.4 L-59849.4,43993.7 L-35284.3,2456.5 L-32175.3,2419.05 L-32364,-540.993 L-32389.8,-636.04 L-32395.2,-1035.02 L-32343.4,-1249.24 L-32386.9,-1489.13 L-32238.6,-8512.26 L-32150.4,-8902.12 L-27386.5,-19469.7 L-27165.5,-19781.9 L-26843.4,-19988.3 L-26467.4,-20058.7 L-26092.4,-19982.7 L-25773.5,-19771.4 L-25557.2,-19455.9 L-20841.7,-8561.6 L-20778.3,-8357.53 L-19489.4,-1810.71 L-19494.8,-1592.04 L-19392.1,-1213.14 L-19386.9,-834.064 L-19344.4,2264.46 L-16748.9,2233.18 L7146.19,46003.6 L5729.25,47959 L10330.1,50238.1 L10425.3,50263.3 L10773.5,50458.1 L10933.1,50610.1 L11162.7,50692.3 L17170.7,54332.4 L17464.2,54603.6 L24234,64013.1 L24393.9,64360.6 L24411.6,64742.8 L24284.6,65103.6 L24031.3,65390.3 L23688.9,65560.9 L23307.5,65590.5 L11515,64227 L11306.5,64179.9 L4992.4,62022.7 L4805.71,61908.7 L4426.21,61808.2 L4095.32,61623.2 L-1788.14,58333 L-4019.73,61412.6 L-50470,61189.3 L-51421.2,59445.4 L-54993,61822.7 L-55062.4,61892.6 L-55405.2,62096.8 L-55616.6,62159 L-55802.6,62316.7 L-61959,65699.7 L-62340.7,65818.3 L-73874.4,66976.4 L-74255.3,66941.1 L-74595.1,66765.4 L-74844.1,66474.9 L-74965.7,66112.2 L-74942.3,65730.4 L-74777.2,65385.3 L-67700.2,55854.4 L-67555.2,55697.4 L-62529.8,51307.9 L-62337.8,51203.2"/>
</g>

<g fill="none" stroke="#000000" stroke-opacity="1" stroke-width="1" stroke-linecap="square" stroke-linejoin="bevel" transform="matrix(0.999994,0,0,-0.999994,79974.4,71982.1)"
font-family="MS Shell Dlg 2" font-size="10.3125" font-weight="400" font-style="normal" 
>
</g>

<g fill="none" stroke="#000000" stroke-opacity="1" stroke-width="1" stroke-linecap="square" stroke-linejoin="bevel" transform="matrix(0.999994,0,0,-0.999994,79974.4,71982.1)"
font-family="MS Shell Dlg 2" font-size="10.3125" font-weight="400" font-style="normal" 
>
</g>

<g fill="#333333" fill-opacity="0.2" stroke="#333333" stroke-opacity="1" stroke-width="1" stroke-linecap="round" stroke-linejoin="round" transform="matrix(0.999994,0,0,-0.999994,79974.4,71982.1)"
font-family="MS Shell Dlg 2" font-size="10.3125" font-weight="400" font-style="normal" 
>
<path vector-effect="non-scaling-stroke" fill-rule="evenodd" d="M-79974.3,-25058.7 L-79974.3,71981.4 L29422.3,71981.4 L29422.3,-25058.7 L-79974.3,-25058.7 M-62337.8,51203.2 L-62061,50924.8 L-61735.3,50730.7 L-57538.5,48230.4 L-59849.4,43993.7 L-35284.3,2456.5 L-32175.3,2419.05 L-32364,-540.993 L-32389.8,-636.04 L-32395.2,-1035.02 L-32343.4,-1249.24 L-32386.9,-1489.13 L-32238.6,-8512.26 L-32150.4,-8902.12 L-27386.5,-19469.7 L-27165.5,-19781.9 L-26843.4,-19988.3 L-26467.4,-20058.7 L-26092.4,-19982.7 L-25773.5,-19771.4 L-25557.2,-19455.9 L-20841.7,-8561.6 L-20778.3,-8357.53 L-19489.4,-1810.71 L-19494.8,-1592.04 L-19392.1,-1213.14 L-19386.9,-834.064 L-19344.4,2264.46 L-16748.9,2233.18 L7146.19,46003.6 L5729.25,47959 L10330.1,50238.1 L10425.3,50263.3 L10773.5,50458.1 L10933.1,50610.1 L11162.7,50692.3 L17170.7,54332.4 L17464.2,54603.6 L24234,64013.1 L24393.9,64360.6 L24411.6,64742.8 L24284.6,65103.6 L24031.3,65390.3 L23688.9,65560.9 L23307.5,65590.5 L11515,64227 L11306.5,64179.9 L4992.4,62022.7 L4805.71,61908.7 L4426.21,61808.2 L4095.32,61623.2 L-1788.14,58333 L-4019.73,61412.6 L-50470,61189.3 L-51421.2,59445.4 L-54993,61822.7 L-55062.4,61892.6 L-55405.2,62096.8 L-55616.6,62159 L-55802.6,62316.7 L-61959,65699.7 L-62340.7,65818.3 L-73874.4,66976.4 L-74255.3,66941.1 L-74595.1,66765.4 L-74844.1,66474.9 L-74965.7,66112.2 L-74942.3,65730.4 L-74777.2,65385.3 L-67700.2,55854.4 L-67555.2,55697.4 L-62529.8,51307.9 L-62337.8,51203.2"/>
</g>

<g fill="none" stroke="#000000" stroke-opacity="1" stroke-width="1" stroke-linecap="square" stroke-linejoin="bevel" transform="matrix(0.999994,0,0,-0.999994,79974.4,71982.1)"
font-family="MS Shell Dlg 2" font-size="10.3125" font-weight="400" font-style="normal" 
>
</g>

<g fill="none" stroke="#000000" stroke-opacity="1" stroke-width="1" stroke-linecap="square" stroke-linejoin="bevel" transform="matrix(0.999994,0,0,-0.999994,79974.4,71982.1)"
font-family="MS Shell Dlg 2" font-size="10.3125" font-weight="400" font-style="normal" 
>
</g>

<g fill="#ae5151" fill-opacity="0.2" stroke="#333333" stroke-opacity="1" stroke-width="1" stroke-linecap="round" stroke-linejoin="round" transform="matrix(0.999994,0,0,-0.999994,79974.4,71982.1)"
font-family="MS Shell Dlg 2" font-size="10.3125" font-weight="400" font-style="normal" 
>
<path vector-effect="non-scaling-stroke" fill-rule="evenodd" d="M-24798.2,-1179.12 L-24803.4,-1558.2 L-25458.8,-1549.22 L-26995.3,-1528.17 L-26990.1,-1149.09 L-26989.6,-1109.07 L-26984.4,-729.988 L-25888.5,-745.001 L-24792.5,-760.014 L-24797.7,-1139.09 L-24798.2,-1179.12 L-24798.2,-1179.12"/>
</g>

<g fill="none" stroke="#000000" stroke-opacity="1" stroke-width="1" stroke-linecap="square" stroke-linejoin="bevel" transform="matrix(0.999994,0,0,-0.999994,79974.4,71982.1)"
font-family="MS Shell Dlg 2" font-size="10.3125" font-weight="400" font-style="normal" 
>
</g>

<g fill="none" stroke="#000000" stroke-opacity="1" stroke-width="1" stroke-linecap="square" stroke-linejoin="bevel" transform="matrix(0.999994,0,0,-0.999994,79974.4,71982.1)"
font-family="MS Shell Dlg 2" font-size="10.3125" font-weight="400" font-style="normal" 
>
</g>

<g fill="#ae5151" fill-opacity="0.2" stroke="#333333" stroke-opacity="1" stroke-width="1" stroke-linecap="round" stroke-linejoin="round" transform="matrix(0.999994,0,0,-0.999994,79974.4,71982.1)"
font-family="MS Shell Dlg 2" font-size="10.3125" font-weight="400" font-style="normal" 
>
<path vector-effect="non-scaling-stroke" fill-rule="evenodd" d="M-79974.3,-25058.7 L-79974.3,71981.4 L29422.3,71981.4 L29422.3,-25058.7 L-79974.3,-25058.7 M-31386.7,-1487.97 L-31281.4,-6475.52 L-31238.8,-8491.14 L-26474.9,-19058.7 L-21759.4,-8164.37 L-20764.4,-3109.79 L-20474.5,-1637.45 L-20398,-1638.5 L-20398,-1638.45 L-20392.5,-1239.47 L-20392,-1199.45 L-20386.8,-820.367 L-20361.7,1008.69 L-20344.3,2276.5 L-18680.4,2256.46 L-16748.9,2233.18 L427.379,33696.2 L7146.19,46003.6 L5134.19,48780.2 L9926.91,51154.4 L9937.12,51136.1 L9937.14,51136.1 L9937.19,51136.1 L10285.4,51330.9 L10320.4,51350.4 L10668.6,51545.2 L10668.7,51545.2 L10661.6,51557.9 L13445.3,53244.5 L16652.5,55187.7 L23422.3,64597.1 L15676.6,63701.5 L11629.8,63233.6 L9620.28,62547.1 L5334.9,61082.9 L5297.55,61149.7 L5297.49,61149.7 L4949.23,60955 L4914.3,60935.4 L4750.64,60843.9 L4583.41,60750.4 L3432.82,60107 L-1197.32,57517.6 L-1726.45,58247.9 L-4019.73,61412.6 L-27515.4,61299.6 L-50470,61189.3 L-51494.1,59311.8 L-51901.9,58564.1 L-55584.9,61015.4 L-55583.9,61017 L-55574.2,61033.4 L-55574.2,61033.5 L-55574.2,61033.5 L-55897.5,61226.1 L-55917,61237.7 L-55951.4,61258.2 L-56294.2,61462.4 L-56294.2,61462.4 L-56301.7,61449.9 L-57952.6,62357.1 L-62440.6,64823.3 L-73974.3,65981.4 L-66897.3,56450.6 L-62811.3,52881.5 L-61887.3,52074.4 L-61926.4,52008.6 L-61926.4,52008.6 L-61583.6,51804.3 L-61549.2,51783.9 L-61373,51678.8 L-61223.5,51589.8 L-57059.3,49108.9 L-59849.4,43993.7 L-41756.5,13400.4 L-35284.3,2456.5 L-31174.1,2406.98 L-31282.7,702.92 L-31368.9,-649.968 L-31389.8,-649.682 L-31389.9,-649.719 L-31389.9,-649.738 L-31392,-803.629 L-31395.3,-1048.72 L-31395.9,-1088.74 L-31401.3,-1487.71 L-31401.3,-1487.77 L-31386.7,-1487.97"/>
</g>

<g fill="none" stroke="#000000" stroke-opacity="1" stroke-width="1" stroke-linecap="square" stroke-linejoin="bevel" transform="matrix(0.999994,0,0,-0.999994,79974.4,71982.1)"
font-family="MS Shell Dlg 2" font-size="10.3125" font-weight="400" font-style="normal" 
>
</g>

<g fill="none" stroke="#000000" stroke-opacity="1" stroke-width="1" stroke-linecap="square" stroke-linejoin="bevel" transform="matrix(0.999994,0,0,-0.999994,79974.4,71982.1)"
font-family="MS Shell Dlg 2" font-size="10.3125" font-weight="400" font-style="normal" 
>
</g>

<g fill="#ae5151" fill-opacity="0.2" stroke="#333333" stroke-opacity="1" stroke-width="1" stroke-linecap="round" stroke-linejoin="round" transform="matrix(0.999994,0,0,-0.999994,79974.4,71982.1)"
font-family="MS Shell Dlg 2" font-size="10.3125" font-weight="400" font-style="normal" 
>
<path vector-effect="non-scaling-stroke" fill-rule="evenodd" d="M7803.96,54991.5 L6734.01,56904.7 L7064.9,57089.8 L7099.83,57109.3 L7430.72,57294.4 L7460.1,57241.8 L8500.67,55381.1 L8169.78,55196.1 L8134.85,55176.5 L7803.96,54991.5"/>
</g>

<g fill="none" stroke="#000000" stroke-opacity="1" stroke-width="1" stroke-linecap="square" stroke-linejoin="bevel" transform="matrix(0.999994,0,0,-0.999994,79974.4,71982.1)"
font-family="MS Shell Dlg 2" font-size="10.3125" font-weight="400" font-style="normal" 
>
</g>

<g fill="none" stroke="#000000" stroke-opacity="1" stroke-width="1" stroke-linecap="square" stroke-linejoin="bevel" transform="matrix(0.999994,0,0,-0.999994,79974.4,71982.1)"
font-family="MS Shell Dlg 2" font-size="10.3125" font-weight="400" font-style="normal" 
>
</g>

<g fill="#ae5151" fill-opacity="0.2" stroke="#333333" stroke-opacity="1" stroke-width="1" stroke-linecap="round" stroke-linejoin="round" transform="matrix(0.999994,0,0,-0.999994,79974.4,71982.1)"
font-family="MS Shell Dlg 2" font-size="10.3125" font-weight="400" font-style="normal" 
>
<path vector-effect="non-scaling-stroke" fill-rule="evenodd" d="M-57846.4,57258.4 L-58425.4,56286.6 L-58968.4,55375.1 L-59294.1,55569.2 L-59328.5,55589.6 L-59549.8,55721.5 L-59654.2,55783.7 L-59037.5,56818.7 L-58532.2,57666.9 L-58280.8,57517.1 L-58206.5,57472.9 L-58172.1,57452.4 L-57846.4,57258.4"/>
</g>

<g fill="none" stroke="#000000" stroke-opacity="1" stroke-width="1" stroke-linecap="square" stroke-linejoin="bevel" transform="matrix(0.999994,0,0,-0.999994,79974.4,71982.1)"
font-family="MS Shell Dlg 2" font-size="10.3125" font-weight="400" font-style="normal" 
>
</g>

<g fill="none" stroke="#000000" stroke-opacity="1" stroke-width="1" stroke-linecap="square" stroke-linejoin="bevel" transform="matrix(0.999994,0,0,-0.999994,79974.4,71982.1)"
font-family="MS Shell Dlg 2" font-size="10.3125" font-weight="400" font-style="normal" 
>
</g>

<g fill="#333333" fill-opacity="0.2" stroke="#333333" stroke-opacity="1" stroke-width="1" stroke-linecap="round" stroke-linejoin="round" transform="matrix(0.999994,0,0,-0.999994,79974.4,71982.1)"
font-family="MS Shell Dlg 2" font-size="10.3125" font-weight="400" font-style="normal" 
>
<path vector-effect="non-scaling-stroke" fill-rule="evenodd" d="M-26995.3,-1528.17 L-26990.1,-1149.09 L-26989.6,-1109.07 L-26984.4,-729.988 L-24792.5,-760.014 L-24797.7,-1139.09 L-24798.2,-1179.12 L-24803.4,-1558.2 L-26995.3,-1528.17"/>
</g>

<g fill="none" stroke="#000000" stroke-opacity="1" stroke-width="1" stroke-linecap="square" stroke-linejoin="bevel" transform="matrix(0.999994,0,0,-0.999994,79974.4,71982.1)"
font-family="MS Shell Dlg 2" font-size="10.3125" font-weight="400" font-style="normal" 
>
</g>

<g fill="none" stroke="#000000" stroke-opacity="1" stroke-width="1" stroke-linecap="square" stroke-linejoin="bevel" transform="matrix(0.999994,0,0,-0.999994,79974.4,71982.1)"
font-family="MS Shell Dlg 2" font-size="10.3125" font-weight="400" font-style="normal" 
>
</g>

<g fill="#333333" fill-opacity="0.2" stroke="#333333" stroke-opacity="1" stroke-width="1" stroke-linecap="round" stroke-linejoin="round" transform="matrix(0.999994,0,0,-0.999994,79974.4,71982.1)"
font-family="MS Shell Dlg 2" font-size="10.3125" font-weight="400" font-style="normal" 
>
<path vector-effect="non-scaling-stroke" fill-rule="evenodd" d="M-79974.3,-25058.7 L-79974.3,71981.4 L29422.3,71981.4 L29422.3,-25058.7 L-79974.3,-25058.7 M-60710.1,43484.7 L-36145.1,1947.46 L-35924.8,1688.56 L-35630.6,1518.37 L-35296.4,1456.58 L-31237.8,1407.68 L-31368.9,-649.968 L-31389.8,-649.682 L-31389.9,-649.738 L-31395.3,-1048.72 L-31395.9,-1088.74 L-31401.3,-1487.71 L-31401.3,-1487.77 L-31386.7,-1487.97 L-31238.8,-8491.14 L-26474.9,-19058.7 L-21759.4,-8164.37 L-20474.5,-1637.45 L-20398,-1638.5 L-20398,-1638.45 L-20392.5,-1239.47 L-20392,-1199.45 L-20386.8,-820.367 L-20358,1276.6 L-16760.9,1233.26 L-16406.9,1293.47 L-16097,1474.85 L-15871.2,1754.02 L8023.92,45524.4 L8138.5,45879.8 L8114.74,46252.4 L7955.94,46590.4 L6042.93,49230.3 L9926.91,51154.4 L9937.12,51136.1 L9937.19,51136.1 L10285.4,51330.9 L10320.4,51350.4 L10668.6,51545.2 L10668.7,51545.2 L10661.6,51557.9 L16652.5,55187.7 L23422.3,64597.1 L11629.8,63233.6 L5334.9,61082.9 L5297.55,61149.7 L5297.49,61149.7 L4949.23,60955 L4914.3,60935.4 L4583.41,60750.4 L-318.499,58009.1 L-3209.98,61999.4 L-3567.33,62304.4 L-4024.54,62412.6 L-50474.8,62189.3 L-50822.6,62125 L-51126.3,61943.8 L-51347.9,61668.1 L-52737.6,59120.3 L-55584.9,61015.4 L-55574.2,61033.4 L-55574.2,61033.5 L-55917,61237.7 L-55951.4,61258.2 L-56294.2,61462.4 L-56294.2,61462.4 L-56301.7,61449.9 L-62440.6,64823.3 L-73974.3,65981.4 L-66897.3,56450.6 L-61887.3,52074.4 L-61926.4,52008.6 L-61926.4,52008.6 L-61583.6,51804.3 L-61549.2,51783.9 L-61223.5,51589.8 L-57919,49621.1 L-60727.2,44472.6 L-60837.4,44148 L-60831.4,43805.3 L-60710.1,43484.7"/>
</g>

<g fill="none" stroke="#000000" stroke-opacity="1" stroke-width="1" stroke-linecap="square" stroke-linejoin="bevel" transform="matrix(0.999994,0,0,-0.999994,79974.4,71982.1)"
font-family="MS Shell Dlg 2" font-size="10.3125" font-weight="400" font-style="normal" 
>
</g>

<g fill="none" stroke="#000000" stroke-opacity="1" stroke-width="1" stroke-linecap="square" stroke-linejoin="bevel" transform="matrix(0.999994,0,0,-0.999994,79974.4,71982.1)"
font-family="MS Shell Dlg 2" font-size="10.3125" font-weight="400" font-style="normal" 
>
</g>

<g fill="#333333" fill-opacity="0.2" stroke="#333333" stroke-opacity="1" stroke-width="1" stroke-linecap="round" stroke-linejoin="round" transform="matrix(0.999994,0,0,-0.999994,79974.4,71982.1)"
font-family="MS Shell Dlg 2" font-size="10.3125" font-weight="400" font-style="normal" 
>
<path vector-effect="non-scaling-stroke" fill-rule="evenodd" d="M7064.9,57089.8 L7099.83,57109.3 L7430.72,57294.4 L8500.67,55381.1 L8169.78,55196.1 L8134.85,55176.5 L7803.96,54991.5 L6734.01,56904.7 L7064.9,57089.8"/>
</g>

<g fill="none" stroke="#000000" stroke-opacity="1" stroke-width="1" stroke-linecap="square" stroke-linejoin="bevel" transform="matrix(0.999994,0,0,-0.999994,79974.4,71982.1)"
font-family="MS Shell Dlg 2" font-size="10.3125" font-weight="400" font-style="normal" 
>
</g>

<g fill="none" stroke="#000000" stroke-opacity="1" stroke-width="1" stroke-linecap="square" stroke-linejoin="bevel" transform="matrix(0.999994,0,0,-0.999994,79974.4,71982.1)"
font-family="MS Shell Dlg 2" font-size="10.3125" font-weight="400" font-style="normal" 
>
</g>

<g fill="#333333" fill-opacity="0.2" stroke="#333333" stroke-opacity="1" stroke-width="1" stroke-linecap="round" stroke-linejoin="round" transform="matrix(0.999994,0,0,-0.999994,79974.4,71982.1)"
font-family="MS Shell Dlg 2" font-size="10.3125" font-weight="400" font-style="normal" 
>
<path vector-effect="non-scaling-stroke" fill-rule="evenodd" d="M-58532.2,57666.9 L-58206.5,57472.9 L-58172.1,57452.4 L-57846.4,57258.4 L-58968.4,55375.1 L-59294.1,55569.2 L-59328.5,55589.6 L-59654.2,55783.7 L-58532.2,57666.9"/>
</g>

<g fill="none" stroke="#000000" stroke-opacity="1" stroke-width="1" stroke-linecap="square" stroke-linejoin="bevel" transform="matrix(0.999994,0,0,-0.999994,79974.4,71982.1)"
font-family="MS Shell Dlg 2" font-size="10.3125" font-weight="400" font-style="normal" 
>
</g>

<g fill="none" stroke="#000000" stroke-opacity="1" stroke-width="1" stroke-linecap="square" stroke-linejoin="bevel" transform="matrix(1,0,0,-1,0,97041.1)"
font-family="MS Shell Dlg 2" font-size="10.3125" font-weight="400" font-style="normal" 
>
</g>
</g>
</svg>
