<?xml version="1.0" encoding="UTF-8" standalone="no"?>
<svg width="27487.6mm" height="24000.2mm"
 xmlns="http://www.w3.org/2000/svg" xmlns:xlink="http://www.w3.org/1999/xlink"  version="1.2" baseProfile="tiny">
<title>SVG Generator Example Drawing</title>
<desc>An SVG drawing created by the SVG Generator</desc>
<defs>
</defs>
<g fill="none" stroke="black" stroke-width="1" fill-rule="evenodd" stroke-linecap="square" stroke-linejoin="bevel" >

<g fill="none" stroke="#000000" stroke-opacity="1" stroke-width="1" stroke-linecap="square" stroke-linejoin="bevel" transform="matrix(1,0,0,-1,0,85040.8)"
font-family="MS Shell Dlg 2" font-size="10.3125" font-weight="400" font-style="normal" 
>
</g>

<g fill="none" stroke="#000000" stroke-opacity="1" stroke-width="1" stroke-linecap="square" stroke-linejoin="bevel" transform="matrix(1,0,0,-1,0,85040.8)"
font-family="MS Shell Dlg 2" font-size="10.3125" font-weight="400" font-style="normal" 
>
</g>

<g fill="none" stroke="#000000" stroke-opacity="1" stroke-width="1" stroke-linecap="square" stroke-linejoin="bevel" transform="matrix(0.99999,0,0,-0.99999,73973.9,65982.1)"
font-family="MS Shell Dlg 2" font-size="10.3125" font-weight="400" font-style="normal" 
>
</g>

<g fill="#333333" fill-opacity="0.2" stroke="#333333" stroke-opacity="1" stroke-width="1" stroke-linecap="round" stroke-linejoin="round" transform="matrix(0.99999,0,0,-0.99999,73973.9,65982.1)"
font-family="MS Shell Dlg 2" font-size="10.3125" font-weight="400" font-style="normal" 
>
<path vector-effect="non-scaling-stroke" fill-rule="evenodd" d="M-31401.2,-1487.77 L-31401.3,-1487.63 L-31395.9,-1088.82 L-31395.7,-1088.68 L-29204.1,-1118.71 L-29204,-1118.85 L-29209.2,-1497.74 L-29209.1,-1497.84 L-22589.7,-1588.52 L-22589.6,-1588.42 L-22584.4,-1209.53 L-22584.3,-1209.39 L-20392.6,-1239.41 L-20392.5,-1239.55 L-20398,-1638.36 L-20398.1,-1638.5 L-20474.4,-1637.46 L-20474.5,-1637.54 L-21759.4,-8164.36 L-21759.4,-8164.39 L-26474.8,-19058.4 L-26475,-19058.4 L-31238.8,-8491.17 L-31238.8,-8491.11 L-31386.7,-1488.07 L-31386.8,-1487.97 L-31401.2,-1487.77"/>
</g>

<g fill="none" stroke="#000000" stroke-opacity="1" stroke-width="1" stroke-linecap="square" stroke-linejoin="bevel" transform="matrix(0.99999,0,0,-0.99999,73973.9,65982.1)"
font-family="MS Shell Dlg 2" font-size="10.3125" font-weight="400" font-style="normal" 
>
</g>

<g fill="none" stroke="#000000" stroke-opacity="1" stroke-width="1" stroke-linecap="square" stroke-linejoin="bevel" transform="matrix(0.99999,0,0,-0.99999,73973.9,65982.1)"
font-family="MS Shell Dlg 2" font-size="10.3125" font-weight="400" font-style="normal" 
>
</g>

<g fill="#333333" fill-opacity="0.2" stroke="#333333" stroke-opacity="1" stroke-width="1" stroke-linecap="round" stroke-linejoin="round" transform="matrix(0.99999,0,0,-0.99999,73973.9,65982.1)"
font-family="MS Shell Dlg 2" font-size="10.3125" font-weight="400" font-style="normal" 
>
<path vector-effect="non-scaling-stroke" fill-rule="evenodd" d="M-30733.7,9004.43 L-30733.5,9004.53 L-30728.4,9383.4 L-30728.2,9383.54 L-28641,9354.95 L-28640.8,9354.81 L-28646,8975.91 L-28645.9,8975.81 L-22341.8,8889.45 L-22341.7,8889.55 L-22336.5,9268.44 L-22336.3,9268.58 L-20249.1,9239.99 L-20249,9239.85 L-20254.4,8840.96 L-20386.8,-820.226 L-20386.9,-820.365 L-22600.5,-790.042 L-22600.6,-790.141 L-22605.8,-1169.04 L-22605.9,-1169.17 L-24797.6,-1139.15 L-24797.7,-1139.01 L-24792.5,-760.114 L-24792.6,-760.013 L-26984.3,-729.99 L-26984.4,-730.088 L-26989.6,-1108.98 L-26989.7,-1109.12 L-29181.4,-1079.1 L-29181.5,-1078.96 L-29176.3,-700.062 L-29176.4,-699.961 L-31370,-669.911 L-31370.2,-669.761 L-30753.3,9008.45 L-30753.1,9008.57 L-30733.7,9004.43"/>
</g>

<g fill="none" stroke="#000000" stroke-opacity="1" stroke-width="1" stroke-linecap="square" stroke-linejoin="bevel" transform="matrix(0.99999,0,0,-0.99999,73973.9,65982.1)"
font-family="MS Shell Dlg 2" font-size="10.3125" font-weight="400" font-style="normal" 
>
</g>

<g fill="none" stroke="#000000" stroke-opacity="1" stroke-width="1" stroke-linecap="square" stroke-linejoin="bevel" transform="matrix(0.99999,0,0,-0.99999,73973.9,65982.1)"
font-family="MS Shell Dlg 2" font-size="10.3125" font-weight="400" font-style="normal" 
>
</g>

<g fill="#333333" fill-opacity="0.2" stroke="#333333" stroke-opacity="1" stroke-width="1" stroke-linecap="round" stroke-linejoin="round" transform="matrix(0.99999,0,0,-0.99999,73973.9,65982.1)"
font-family="MS Shell Dlg 2" font-size="10.3125" font-weight="400" font-style="normal" 
>
<path vector-effect="non-scaling-stroke" fill-rule="evenodd" d="M-31023.5,19694.1 L-31023.4,19694.3 L-28900.9,19700 L-28900.7,19699.8 L-28899.7,19320.9 L-28899.6,19320.8 L-22488.9,19338.1 L-22488.8,19338.2 L-22489.9,19717.1 L-22489.7,19717.3 L-20367.2,19723 L-20367.1,19722.8 L-20366,19343.9 L-20365.9,19343.8 L-20362.8,19344.5 L-20362.6,19344.3 L-20253.2,9659.32 L-20253.3,9659.17 L-22351.5,9687.92 L-22351.6,9687.82 L-22356.8,9308.92 L-22357,9308.78 L-24444.2,9337.38 L-24444.3,9337.52 L-24439.2,9716.41 L-24439.2,9716.51 L-26526.6,9745.11 L-26526.7,9745.01 L-26531.9,9366.12 L-26532,9365.98 L-28619.3,9394.57 L-28619.4,9394.71 L-28614.2,9773.61 L-28614.3,9773.71 L-30722.6,9802.59 L-30722.6,9802.59 L-30739.3,9799.51 L-30739.4,9799.65 L-31011.6,19295.1 L-31011.7,19295.2 L-31022.3,19295.1 L-31022.4,19295.3 L-31023.5,19694.1"/>
</g>

<g fill="none" stroke="#000000" stroke-opacity="1" stroke-width="1" stroke-linecap="square" stroke-linejoin="bevel" transform="matrix(0.99999,0,0,-0.99999,73973.9,65982.1)"
font-family="MS Shell Dlg 2" font-size="10.3125" font-weight="400" font-style="normal" 
>
</g>

<g fill="none" stroke="#000000" stroke-opacity="1" stroke-width="1" stroke-linecap="square" stroke-linejoin="bevel" transform="matrix(0.99999,0,0,-0.99999,73973.9,65982.1)"
font-family="MS Shell Dlg 2" font-size="10.3125" font-weight="400" font-style="normal" 
>
</g>

<g fill="#333333" fill-opacity="0.2" stroke="#333333" stroke-opacity="1" stroke-width="1" stroke-linecap="round" stroke-linejoin="round" transform="matrix(0.99999,0,0,-0.99999,73973.9,65982.1)"
font-family="MS Shell Dlg 2" font-size="10.3125" font-weight="400" font-style="normal" 
>
<path vector-effect="non-scaling-stroke" fill-rule="evenodd" d="M-4197.95,55839.4 L-4197.9,55839.6 L-3849.72,56034.4 L4583.29,60750.3 L4583.48,60750.3 L5664.01,58818.1 L5664.15,58818.1 L5994.87,59003 L5995.07,59003 L7064.88,57089.9 L7064.82,57089.7 L6734.1,56904.8 L6734.06,56904.7 L7803.91,54991.6 L7804.05,54991.5 L8134.77,55176.5 L8134.97,55176.4 L9204.78,53263.4 L9204.72,53263.2 L8874,53078.3 L8873.96,53078.1 L9944.74,51163.4 L9944.68,51163.2 L1254.65,46858.3 L1254.46,46858.4 L1248.33,46877.3 L1248.19,46877.4 L917.481,46692.4 L917.288,46692.5 L-101.574,48514.4 L-101.519,48514.6 L229.208,48699.5 L229.247,48699.7 L-2848.04,54202.4 L-2848.17,54202.4 L-3178.9,54017.5 L-3179.09,54017.5 L-4197.95,55839.4"/>
</g>

<g fill="none" stroke="#000000" stroke-opacity="1" stroke-width="1" stroke-linecap="square" stroke-linejoin="bevel" transform="matrix(0.99999,0,0,-0.99999,73973.9,65982.1)"
font-family="MS Shell Dlg 2" font-size="10.3125" font-weight="400" font-style="normal" 
>
</g>

<g fill="none" stroke="#000000" stroke-opacity="1" stroke-width="1" stroke-linecap="square" stroke-linejoin="bevel" transform="matrix(0.99999,0,0,-0.99999,73973.9,65982.1)"
font-family="MS Shell Dlg 2" font-size="10.3125" font-weight="400" font-style="normal" 
>
</g>

<g fill="#333333" fill-opacity="0.2" stroke="#333333" stroke-opacity="1" stroke-width="1" stroke-linecap="round" stroke-linejoin="round" transform="matrix(0.99999,0,0,-0.99999,73973.9,65982.1)"
font-family="MS Shell Dlg 2" font-size="10.3125" font-weight="400" font-style="normal" 
>
<path vector-effect="non-scaling-stroke" fill-rule="evenodd" d="M4949.25,60954.8 L4949.31,60955 L5297.41,61149.7 L5297.61,61149.6 L5334.86,61083 L5334.98,61083 L11629.8,63233.6 L11629.9,63233.6 L23422,64597.1 L23422.1,64596.9 L16652.5,55187.7 L16652.5,55187.6 L10661.6,51558 L10661.6,51557.9 L10668.6,51545.3 L10668.6,51545.1 L10320.5,51350.5 L10320.3,51350.5 L9250.45,53263.5 L9250.5,53263.7 L9581.23,53448.7 L9581.27,53448.8 L6350.12,59226.7 L6349.98,59226.7 L6019.26,59041.8 L6019.06,59041.8 L4949.25,60954.8"/>
</g>

<g fill="none" stroke="#000000" stroke-opacity="1" stroke-width="1" stroke-linecap="square" stroke-linejoin="bevel" transform="matrix(0.99999,0,0,-0.99999,73973.9,65982.1)"
font-family="MS Shell Dlg 2" font-size="10.3125" font-weight="400" font-style="normal" 
>
</g>

<g fill="none" stroke="#000000" stroke-opacity="1" stroke-width="1" stroke-linecap="square" stroke-linejoin="bevel" transform="matrix(0.99999,0,0,-0.99999,73973.9,65982.1)"
font-family="MS Shell Dlg 2" font-size="10.3125" font-weight="400" font-style="normal" 
>
</g>

<g fill="#333333" fill-opacity="0.2" stroke="#333333" stroke-opacity="1" stroke-width="1" stroke-linecap="round" stroke-linejoin="round" transform="matrix(0.99999,0,0,-0.99999,73973.9,65982.1)"
font-family="MS Shell Dlg 2" font-size="10.3125" font-weight="400" font-style="normal" 
>
<path vector-effect="non-scaling-stroke" fill-rule="evenodd" d="M-61926.3,52008.5 L-61926.4,52008.7 L-61887.3,52074.3 L-61887.3,52074.4 L-66897.3,56450.6 L-66897.3,56450.6 L-73974.1,65981.2 L-73974,65981.4 L-62440.6,64823.3 L-62440.6,64823.3 L-56301.8,61449.9 L-56301.6,61450 L-56294.3,61462.3 L-56294.1,61462.4 L-55951.5,61258.2 L-55951.4,61258 L-57073.2,59375 L-57073.4,59375 L-57399,59568.9 L-57399.1,59568.9 L-60787.3,53881.7 L-60787.3,53881.6 L-60461.7,53687.6 L-60461.7,53687.4 L-61583.5,51804.4 L-61583.7,51804.4 L-61926.3,52008.5"/>
</g>

<g fill="none" stroke="#000000" stroke-opacity="1" stroke-width="1" stroke-linecap="square" stroke-linejoin="bevel" transform="matrix(0.99999,0,0,-0.99999,73973.9,65982.1)"
font-family="MS Shell Dlg 2" font-size="10.3125" font-weight="400" font-style="normal" 
>
</g>

<g fill="none" stroke="#000000" stroke-opacity="1" stroke-width="1" stroke-linecap="square" stroke-linejoin="bevel" transform="matrix(0.99999,0,0,-0.99999,73973.9,65982.1)"
font-family="MS Shell Dlg 2" font-size="10.3125" font-weight="400" font-style="normal" 
>
</g>

<g fill="#333333" fill-opacity="0.2" stroke="#333333" stroke-opacity="1" stroke-width="1" stroke-linecap="round" stroke-linejoin="round" transform="matrix(0.99999,0,0,-0.99999,73973.9,65982.1)"
font-family="MS Shell Dlg 2" font-size="10.3125" font-weight="400" font-style="normal" 
>
<path vector-effect="non-scaling-stroke" fill-rule="evenodd" d="M-42340.6,43140.8 L-42340.6,43141 L-41284.3,44982 L-41284.1,44982.1 L-40955.4,44793.5 L-40955.3,44793.5 L-39899,46634.6 L-39899,46634.8 L-40227.7,46823.3 L-40227.7,46823.5 L-39171.4,48664.5 L-39171.2,48664.6 L-38842.6,48476 L-38842.4,48476 L-37780.8,50326.3 L-37780.6,50326.4 L-25675.7,42946.8 L-25675.6,42946.8 L-13576.3,50278.8 L-13576.1,50278.8 L-12502.9,48431.5 L-12502.8,48431.4 L-12175.1,48621.8 L-12174.9,48621.7 L-11108.7,46786.4 L-11108.8,46786.2 L-11436.4,46595.9 L-11436.5,46595.8 L-10370.2,44760.4 L-10370.1,44760.4 L-10042.4,44950.7 L-10042.2,44950.7 L-8976.01,43115.4 L-8976.07,43115.2 L-9303.72,42924.8 L-9303.75,42924.7 L-8232.19,41080.2 L-8232.24,41080 L-20675.6,34286.6 L-20675.6,34286.5 L-20375.6,20142.2 L-20375.7,20142 L-22512.1,20136.3 L-22512.2,20136.2 L-22511.2,19757.3 L-22511.3,19757.1 L-24633.8,19751.4 L-24634,19751.5 L-24635,20130.5 L-24635.1,20130.6 L-26757.7,20124.8 L-26757.8,20124.7 L-26756.8,19745.8 L-26756.9,19745.7 L-28879.4,19740 L-28879.6,19740.1 L-28880.6,20119 L-28880.7,20119.1 L-31013.9,20113.4 L-31014,20113.5 L-30675.6,34286.5 L-30675.7,34286.6 L-43075,41098.9 L-43075.1,41099.1 L-42011.9,42952.1 L-42011.9,42952.2 L-42340.6,43140.8"/>
</g>

<g fill="none" stroke="#000000" stroke-opacity="1" stroke-width="1" stroke-linecap="square" stroke-linejoin="bevel" transform="matrix(0.99999,0,0,-0.99999,73973.9,65982.1)"
font-family="MS Shell Dlg 2" font-size="10.3125" font-weight="400" font-style="normal" 
>
</g>

<g fill="none" stroke="#000000" stroke-opacity="1" stroke-width="1" stroke-linecap="square" stroke-linejoin="bevel" transform="matrix(0.99999,0,0,-0.99999,73973.9,65982.1)"
font-family="MS Shell Dlg 2" font-size="10.3125" font-weight="400" font-style="normal" 
>
</g>

<g fill="#333333" fill-opacity="0.2" stroke="#333333" stroke-opacity="1" stroke-width="1" stroke-linecap="round" stroke-linejoin="round" transform="matrix(0.99999,0,0,-0.99999,73973.9,65982.1)"
font-family="MS Shell Dlg 2" font-size="10.3125" font-weight="400" font-style="normal" 
>
<path vector-effect="non-scaling-stroke" fill-rule="evenodd" d="M-51466.3,48231.3 L-51466.3,48231.5 L-50397.9,50024.8 L-50397.8,50024.8 L-50072.2,49830.9 L-50072.1,49830.9 L-49003.6,51624.3 L-49003.7,51624.5 L-49329.2,51818.4 L-49329.3,51818.6 L-48260.9,53611.9 L-48260.7,53612 L-47935.2,53418 L-47935,53418 L-46855.9,55229.4 L-46855.8,55229.5 L-46850.2,55245.4 L-46850,55245.5 L-38490.7,50733.4 L-38490.5,50733.5 L-38485.2,50742.7 L-38485,50742.8 L-38139.1,50544.3 L-38139,50544.1 L-39195.3,48703.1 L-39195.5,48703 L-39524.2,48891.6 L-39524.3,48891.5 L-42714.7,43331.1 L-42714.7,43331 L-42386,43142.4 L-42385.9,43142.2 L-43442.2,41301.2 L-43442.4,41301.2 L-43771.1,41489.7 L-43771.2,41489.7 L-43772.3,41486.6 L-43772.5,41486.6 L-52214.6,46234.3 L-52214.7,46234.5 L-51140.7,48037.2 L-51140.7,48037.3 L-51466.3,48231.3"/>
</g>

<g fill="none" stroke="#000000" stroke-opacity="1" stroke-width="1" stroke-linecap="square" stroke-linejoin="bevel" transform="matrix(0.99999,0,0,-0.99999,73973.9,65982.1)"
font-family="MS Shell Dlg 2" font-size="10.3125" font-weight="400" font-style="normal" 
>
</g>

<g fill="none" stroke="#000000" stroke-opacity="1" stroke-width="1" stroke-linecap="square" stroke-linejoin="bevel" transform="matrix(0.99999,0,0,-0.99999,73973.9,65982.1)"
font-family="MS Shell Dlg 2" font-size="10.3125" font-weight="400" font-style="normal" 
>
</g>

<g fill="#333333" fill-opacity="0.2" stroke="#333333" stroke-opacity="1" stroke-width="1" stroke-linecap="round" stroke-linejoin="round" transform="matrix(0.99999,0,0,-0.99999,73973.9,65982.1)"
font-family="MS Shell Dlg 2" font-size="10.3125" font-weight="400" font-style="normal" 
>
<path vector-effect="non-scaling-stroke" fill-rule="evenodd" d="M-13217.4,50495.7 L-13217.4,50495.9 L-12889.8,50686.2 L-12889.7,50686.4 L-12891.8,50688.8 L-12891.8,50689 L-4559.05,55626.2 L-4558.86,55626.2 L-3534.66,53794.7 L-3534.52,53794.7 L-3203.79,53979.6 L-3203.6,53979.6 L-2184.74,52157.7 L-2184.79,52157.5 L-2515.52,51972.5 L-2515.56,51972.4 L-1496.66,50150.4 L-1496.52,50150.4 L-1165.79,50335.3 L-1165.6,50335.3 L-146.737,48513.4 L-146.792,48513.2 L-477.519,48328.2 L-477.558,48328.1 L551.579,46487.8 L551.59,46487.8 L562.575,46474.9 L562.542,46474.7 L-7524.68,41491.3 L-7524.72,41491.2 L-7519.37,41482 L-7519.42,41481.8 L-7864.29,41281.5 L-7864.49,41281.5 L-8930.7,43116.8 L-8930.65,43117 L-8602.99,43307.3 L-8602.96,43307.5 L-11823.2,48850.6 L-11823.4,48850.7 L-12151,48660.3 L-12151.2,48660.4 L-13217.4,50495.7"/>
</g>

<g fill="none" stroke="#000000" stroke-opacity="1" stroke-width="1" stroke-linecap="square" stroke-linejoin="bevel" transform="matrix(0.99999,0,0,-0.99999,73973.9,65982.1)"
font-family="MS Shell Dlg 2" font-size="10.3125" font-weight="400" font-style="normal" 
>
</g>

<g fill="none" stroke="#000000" stroke-opacity="1" stroke-width="1" stroke-linecap="square" stroke-linejoin="bevel" transform="matrix(0.99999,0,0,-0.99999,73973.9,65982.1)"
font-family="MS Shell Dlg 2" font-size="10.3125" font-weight="400" font-style="normal" 
>
</g>

<g fill="#333333" fill-opacity="0.2" stroke="#333333" stroke-opacity="1" stroke-width="1" stroke-linecap="round" stroke-linejoin="round" transform="matrix(0.99999,0,0,-0.99999,73973.9,65982.1)"
font-family="MS Shell Dlg 2" font-size="10.3125" font-weight="400" font-style="normal" 
>
<path vector-effect="non-scaling-stroke" fill-rule="evenodd" d="M-60416,53685.9 L-60416,53686.1 L-59294.2,55569.1 L-59294,55569.1 L-58968.5,55375.2 L-58968.3,55375.2 L-57846.5,57258.3 L-57846.5,57258.4 L-58172.1,57452.3 L-58172.1,57452.5 L-57050.3,59335.5 L-57050.1,59335.6 L-56724.6,59141.6 L-56724.4,59141.7 L-55601.6,61026.4 L-55601.4,61026.4 L-47528.3,55653.1 L-47528.2,55652.9 L-47541.5,55638.1 L-47541.5,55637.9 L-47216,55444 L-47216,55443.8 L-48284.3,53650.5 L-48284.5,53650.5 L-48610.1,53844.4 L-48610.2,53844.4 L-51837.1,48428 L-51837,48427.9 L-51511.5,48233.9 L-51511.4,48233.7 L-52579.8,46440.4 L-52580,46440.4 L-52922.7,46644.5 L-61223.4,51589.7 L-61223.5,51589.9 L-60090.4,53491.8 L-60090.4,53491.9 L-60416,53685.9"/>
</g>

<g fill="none" stroke="#000000" stroke-opacity="1" stroke-width="1" stroke-linecap="square" stroke-linejoin="bevel" transform="matrix(0.99999,0,0,-0.99999,73973.9,65982.1)"
font-family="MS Shell Dlg 2" font-size="10.3125" font-weight="400" font-style="normal" 
>
</g>

<g fill="none" stroke="#000000" stroke-opacity="1" stroke-width="1" stroke-linecap="square" stroke-linejoin="bevel" transform="matrix(0.99999,0,0,-0.99999,73973.9,65982.1)"
font-family="MS Shell Dlg 2" font-size="10.3125" font-weight="400" font-style="normal" 
>
</g>

<g fill="#ae5151" fill-opacity="0.2" stroke="#333333" stroke-opacity="1" stroke-width="1" stroke-linecap="round" stroke-linejoin="round" transform="matrix(0.99999,0,0,-0.99999,73973.9,65982.1)"
font-family="MS Shell Dlg 2" font-size="10.3125" font-weight="400" font-style="normal" 
>
<path vector-effect="non-scaling-stroke" fill-rule="evenodd" d="M-31401.2,-1487.77 L-31401.3,-1487.63 L-31395.9,-1088.82 L-31395.7,-1088.68 L-29204.1,-1118.71 L-29204,-1118.85 L-29209.2,-1497.74 L-29209.1,-1497.84 L-22589.7,-1588.52 L-22589.6,-1588.42 L-22584.4,-1209.53 L-22584.3,-1209.39 L-20392.6,-1239.41 L-20392.5,-1239.55 L-20398,-1638.36 L-20398.1,-1638.5 L-20474.4,-1637.46 L-20474.5,-1637.54 L-21759.4,-8164.36 L-21759.4,-8164.39 L-26474.8,-19058.4 L-26475,-19058.4 L-31238.8,-8491.17 L-31238.8,-8491.11 L-31386.7,-1488.07 L-31386.8,-1487.97 L-31401.2,-1487.77"/>
</g>

<g fill="none" stroke="#000000" stroke-opacity="1" stroke-width="1" stroke-linecap="square" stroke-linejoin="bevel" transform="matrix(0.99999,0,0,-0.99999,73973.9,65982.1)"
font-family="MS Shell Dlg 2" font-size="10.3125" font-weight="400" font-style="normal" 
>
</g>

<g fill="none" stroke="#000000" stroke-opacity="1" stroke-width="1" stroke-linecap="square" stroke-linejoin="bevel" transform="matrix(0.99999,0,0,-0.99999,73973.9,65982.1)"
font-family="MS Shell Dlg 2" font-size="10.3125" font-weight="400" font-style="normal" 
>
</g>

<g fill="#ae5151" fill-opacity="0.2" stroke="#333333" stroke-opacity="1" stroke-width="1" stroke-linecap="round" stroke-linejoin="round" transform="matrix(0.99999,0,0,-0.99999,73973.9,65982.1)"
font-family="MS Shell Dlg 2" font-size="10.3125" font-weight="400" font-style="normal" 
>
<path vector-effect="non-scaling-stroke" fill-rule="evenodd" d="M-30733.7,9004.43 L-30733.5,9004.53 L-30728.4,9383.4 L-30728.2,9383.54 L-28641,9354.95 L-28640.8,9354.81 L-28646,8975.91 L-28645.9,8975.81 L-22341.8,8889.45 L-22341.7,8889.55 L-22336.5,9268.44 L-22336.3,9268.58 L-20249.1,9239.99 L-20249,9239.85 L-20254.4,8840.96 L-20386.8,-820.226 L-20386.9,-820.365 L-22600.5,-790.042 L-22600.6,-790.141 L-22605.8,-1169.04 L-22605.9,-1169.17 L-24797.6,-1139.15 L-24797.7,-1139.01 L-24792.5,-760.114 L-24792.6,-760.013 L-26984.3,-729.99 L-26984.4,-730.088 L-26989.6,-1108.98 L-26989.7,-1109.12 L-29181.4,-1079.1 L-29181.5,-1078.96 L-29176.3,-700.062 L-29176.4,-699.961 L-31370,-669.911 L-31370.2,-669.761 L-30753.3,9008.45 L-30753.1,9008.57 L-30733.7,9004.43"/>
</g>

<g fill="none" stroke="#000000" stroke-opacity="1" stroke-width="1" stroke-linecap="square" stroke-linejoin="bevel" transform="matrix(0.99999,0,0,-0.99999,73973.9,65982.1)"
font-family="MS Shell Dlg 2" font-size="10.3125" font-weight="400" font-style="normal" 
>
</g>

<g fill="none" stroke="#000000" stroke-opacity="1" stroke-width="1" stroke-linecap="square" stroke-linejoin="bevel" transform="matrix(0.99999,0,0,-0.99999,73973.9,65982.1)"
font-family="MS Shell Dlg 2" font-size="10.3125" font-weight="400" font-style="normal" 
>
</g>

<g fill="#ae5151" fill-opacity="0.2" stroke="#333333" stroke-opacity="1" stroke-width="1" stroke-linecap="round" stroke-linejoin="round" transform="matrix(0.99999,0,0,-0.99999,73973.9,65982.1)"
font-family="MS Shell Dlg 2" font-size="10.3125" font-weight="400" font-style="normal" 
>
<path vector-effect="non-scaling-stroke" fill-rule="evenodd" d="M-31023.5,19694.1 L-31023.4,19694.3 L-28900.9,19700 L-28900.7,19699.8 L-28899.7,19320.9 L-28899.6,19320.8 L-22488.9,19338.1 L-22488.8,19338.2 L-22489.9,19717.1 L-22489.7,19717.3 L-20367.2,19723 L-20367.1,19722.8 L-20366,19343.9 L-20365.9,19343.8 L-20362.8,19344.5 L-20362.6,19344.3 L-20253.2,9659.32 L-20253.3,9659.17 L-22351.5,9687.92 L-22351.6,9687.82 L-22356.8,9308.92 L-22357,9308.78 L-24444.2,9337.38 L-24444.3,9337.52 L-24439.2,9716.41 L-24439.2,9716.51 L-26526.6,9745.11 L-26526.7,9745.01 L-26531.9,9366.12 L-26532,9365.98 L-28619.3,9394.57 L-28619.4,9394.71 L-28614.2,9773.61 L-28614.3,9773.71 L-30722.6,9802.59 L-30722.6,9802.59 L-30739.3,9799.51 L-30739.4,9799.65 L-31011.6,19295.1 L-31011.7,19295.2 L-31022.3,19295.1 L-31022.4,19295.3 L-31023.5,19694.1"/>
</g>

<g fill="none" stroke="#000000" stroke-opacity="1" stroke-width="1" stroke-linecap="square" stroke-linejoin="bevel" transform="matrix(0.99999,0,0,-0.99999,73973.9,65982.1)"
font-family="MS Shell Dlg 2" font-size="10.3125" font-weight="400" font-style="normal" 
>
</g>

<g fill="none" stroke="#000000" stroke-opacity="1" stroke-width="1" stroke-linecap="square" stroke-linejoin="bevel" transform="matrix(0.99999,0,0,-0.99999,73973.9,65982.1)"
font-family="MS Shell Dlg 2" font-size="10.3125" font-weight="400" font-style="normal" 
>
</g>

<g fill="#ae5151" fill-opacity="0.2" stroke="#333333" stroke-opacity="1" stroke-width="1" stroke-linecap="round" stroke-linejoin="round" transform="matrix(0.99999,0,0,-0.99999,73973.9,65982.1)"
font-family="MS Shell Dlg 2" font-size="10.3125" font-weight="400" font-style="normal" 
>
<path vector-effect="non-scaling-stroke" fill-rule="evenodd" d="M-4197.95,55839.4 L-4197.9,55839.6 L-3849.72,56034.4 L4583.29,60750.3 L4583.48,60750.3 L5664.01,58818.1 L5664.15,58818.1 L5994.87,59003 L5995.07,59003 L7064.88,57089.9 L7064.82,57089.7 L6734.1,56904.8 L6734.06,56904.7 L7803.91,54991.6 L7804.05,54991.5 L8134.77,55176.5 L8134.97,55176.4 L9204.78,53263.4 L9204.72,53263.2 L8874,53078.3 L8873.96,53078.1 L9944.74,51163.4 L9944.68,51163.2 L1254.65,46858.3 L1254.46,46858.4 L1248.33,46877.3 L1248.19,46877.4 L917.481,46692.4 L917.288,46692.5 L-101.574,48514.4 L-101.519,48514.6 L229.208,48699.5 L229.247,48699.7 L-2848.04,54202.4 L-2848.17,54202.4 L-3178.9,54017.5 L-3179.09,54017.5 L-4197.95,55839.4"/>
</g>

<g fill="none" stroke="#000000" stroke-opacity="1" stroke-width="1" stroke-linecap="square" stroke-linejoin="bevel" transform="matrix(0.99999,0,0,-0.99999,73973.9,65982.1)"
font-family="MS Shell Dlg 2" font-size="10.3125" font-weight="400" font-style="normal" 
>
</g>

<g fill="none" stroke="#000000" stroke-opacity="1" stroke-width="1" stroke-linecap="square" stroke-linejoin="bevel" transform="matrix(0.99999,0,0,-0.99999,73973.9,65982.1)"
font-family="MS Shell Dlg 2" font-size="10.3125" font-weight="400" font-style="normal" 
>
</g>

<g fill="#ae5151" fill-opacity="0.2" stroke="#333333" stroke-opacity="1" stroke-width="1" stroke-linecap="round" stroke-linejoin="round" transform="matrix(0.99999,0,0,-0.99999,73973.9,65982.1)"
font-family="MS Shell Dlg 2" font-size="10.3125" font-weight="400" font-style="normal" 
>
<path vector-effect="non-scaling-stroke" fill-rule="evenodd" d="M4949.25,60954.8 L4949.31,60955 L5297.41,61149.7 L5297.61,61149.6 L5334.86,61083 L5334.98,61083 L11629.8,63233.6 L11629.9,63233.6 L23422,64597.1 L23422.1,64596.9 L16652.5,55187.7 L16652.5,55187.6 L10661.6,51558 L10661.6,51557.9 L10668.6,51545.3 L10668.6,51545.1 L10320.5,51350.5 L10320.3,51350.5 L9250.45,53263.5 L9250.5,53263.7 L9581.23,53448.7 L9581.27,53448.8 L6350.12,59226.7 L6349.98,59226.7 L6019.26,59041.8 L6019.06,59041.8 L4949.25,60954.8"/>
</g>

<g fill="none" stroke="#000000" stroke-opacity="1" stroke-width="1" stroke-linecap="square" stroke-linejoin="bevel" transform="matrix(0.99999,0,0,-0.99999,73973.9,65982.1)"
font-family="MS Shell Dlg 2" font-size="10.3125" font-weight="400" font-style="normal" 
>
</g>

<g fill="none" stroke="#000000" stroke-opacity="1" stroke-width="1" stroke-linecap="square" stroke-linejoin="bevel" transform="matrix(0.99999,0,0,-0.99999,73973.9,65982.1)"
font-family="MS Shell Dlg 2" font-size="10.3125" font-weight="400" font-style="normal" 
>
</g>

<g fill="#ae5151" fill-opacity="0.2" stroke="#333333" stroke-opacity="1" stroke-width="1" stroke-linecap="round" stroke-linejoin="round" transform="matrix(0.99999,0,0,-0.99999,73973.9,65982.1)"
font-family="MS Shell Dlg 2" font-size="10.3125" font-weight="400" font-style="normal" 
>
<path vector-effect="non-scaling-stroke" fill-rule="evenodd" d="M-61926.3,52008.5 L-61926.4,52008.7 L-61887.3,52074.3 L-61887.3,52074.4 L-66897.3,56450.6 L-66897.3,56450.6 L-73974.1,65981.2 L-73974,65981.4 L-62440.6,64823.3 L-62440.6,64823.3 L-56301.8,61449.9 L-56301.6,61450 L-56294.3,61462.3 L-56294.1,61462.4 L-55951.5,61258.2 L-55951.4,61258 L-57073.2,59375 L-57073.4,59375 L-57399,59568.9 L-57399.1,59568.9 L-60787.3,53881.7 L-60787.3,53881.6 L-60461.7,53687.6 L-60461.7,53687.4 L-61583.5,51804.4 L-61583.7,51804.4 L-61926.3,52008.5"/>
</g>

<g fill="none" stroke="#000000" stroke-opacity="1" stroke-width="1" stroke-linecap="square" stroke-linejoin="bevel" transform="matrix(0.99999,0,0,-0.99999,73973.9,65982.1)"
font-family="MS Shell Dlg 2" font-size="10.3125" font-weight="400" font-style="normal" 
>
</g>

<g fill="none" stroke="#000000" stroke-opacity="1" stroke-width="1" stroke-linecap="square" stroke-linejoin="bevel" transform="matrix(0.99999,0,0,-0.99999,73973.9,65982.1)"
font-family="MS Shell Dlg 2" font-size="10.3125" font-weight="400" font-style="normal" 
>
</g>

<g fill="#ae5151" fill-opacity="0.2" stroke="#333333" stroke-opacity="1" stroke-width="1" stroke-linecap="round" stroke-linejoin="round" transform="matrix(0.99999,0,0,-0.99999,73973.9,65982.1)"
font-family="MS Shell Dlg 2" font-size="10.3125" font-weight="400" font-style="normal" 
>
<path vector-effect="non-scaling-stroke" fill-rule="evenodd" d="M-42340.6,43140.8 L-42340.6,43141 L-41284.3,44982 L-41284.1,44982.1 L-40955.4,44793.5 L-40955.3,44793.5 L-39899,46634.6 L-39899,46634.8 L-40227.7,46823.3 L-40227.7,46823.5 L-39171.4,48664.5 L-39171.2,48664.6 L-38842.6,48476 L-38842.4,48476 L-37780.8,50326.3 L-37780.6,50326.4 L-25675.7,42946.8 L-25675.6,42946.8 L-13576.3,50278.8 L-13576.1,50278.8 L-12502.9,48431.5 L-12502.8,48431.4 L-12175.1,48621.8 L-12174.9,48621.7 L-11108.7,46786.4 L-11108.8,46786.2 L-11436.4,46595.9 L-11436.5,46595.8 L-10370.2,44760.4 L-10370.1,44760.4 L-10042.4,44950.7 L-10042.2,44950.7 L-8976.01,43115.4 L-8976.07,43115.2 L-9303.72,42924.8 L-9303.75,42924.7 L-8232.19,41080.2 L-8232.24,41080 L-20675.6,34286.6 L-20675.6,34286.5 L-20375.6,20142.2 L-20375.7,20142 L-22512.1,20136.3 L-22512.2,20136.2 L-22511.2,19757.3 L-22511.3,19757.1 L-24633.8,19751.4 L-24634,19751.5 L-24635,20130.5 L-24635.1,20130.6 L-26757.7,20124.8 L-26757.8,20124.7 L-26756.8,19745.8 L-26756.9,19745.7 L-28879.4,19740 L-28879.6,19740.1 L-28880.6,20119 L-28880.7,20119.1 L-31013.9,20113.4 L-31014,20113.5 L-30675.6,34286.5 L-30675.7,34286.6 L-43075,41098.9 L-43075.1,41099.1 L-42011.9,42952.1 L-42011.9,42952.2 L-42340.6,43140.8"/>
</g>

<g fill="none" stroke="#000000" stroke-opacity="1" stroke-width="1" stroke-linecap="square" stroke-linejoin="bevel" transform="matrix(0.99999,0,0,-0.99999,73973.9,65982.1)"
font-family="MS Shell Dlg 2" font-size="10.3125" font-weight="400" font-style="normal" 
>
</g>

<g fill="none" stroke="#000000" stroke-opacity="1" stroke-width="1" stroke-linecap="square" stroke-linejoin="bevel" transform="matrix(0.99999,0,0,-0.99999,73973.9,65982.1)"
font-family="MS Shell Dlg 2" font-size="10.3125" font-weight="400" font-style="normal" 
>
</g>

<g fill="#ae5151" fill-opacity="0.2" stroke="#333333" stroke-opacity="1" stroke-width="1" stroke-linecap="round" stroke-linejoin="round" transform="matrix(0.99999,0,0,-0.99999,73973.9,65982.1)"
font-family="MS Shell Dlg 2" font-size="10.3125" font-weight="400" font-style="normal" 
>
<path vector-effect="non-scaling-stroke" fill-rule="evenodd" d="M-51466.3,48231.3 L-51466.3,48231.5 L-50397.9,50024.8 L-50397.8,50024.8 L-50072.2,49830.9 L-50072.1,49830.9 L-49003.6,51624.3 L-49003.7,51624.5 L-49329.2,51818.4 L-49329.3,51818.6 L-48260.9,53611.9 L-48260.7,53612 L-47935.2,53418 L-47935,53418 L-46855.9,55229.4 L-46855.8,55229.5 L-46850.2,55245.4 L-46850,55245.5 L-38490.7,50733.4 L-38490.5,50733.5 L-38485.2,50742.7 L-38485,50742.8 L-38139.1,50544.3 L-38139,50544.1 L-39195.3,48703.1 L-39195.5,48703 L-39524.2,48891.6 L-39524.3,48891.5 L-42714.7,43331.1 L-42714.7,43331 L-42386,43142.4 L-42385.9,43142.2 L-43442.2,41301.2 L-43442.4,41301.2 L-43771.1,41489.7 L-43771.2,41489.7 L-43772.3,41486.6 L-43772.5,41486.6 L-52214.6,46234.3 L-52214.7,46234.5 L-51140.7,48037.2 L-51140.7,48037.3 L-51466.3,48231.3"/>
</g>

<g fill="none" stroke="#000000" stroke-opacity="1" stroke-width="1" stroke-linecap="square" stroke-linejoin="bevel" transform="matrix(0.99999,0,0,-0.99999,73973.9,65982.1)"
font-family="MS Shell Dlg 2" font-size="10.3125" font-weight="400" font-style="normal" 
>
</g>

<g fill="none" stroke="#000000" stroke-opacity="1" stroke-width="1" stroke-linecap="square" stroke-linejoin="bevel" transform="matrix(0.99999,0,0,-0.99999,73973.9,65982.1)"
font-family="MS Shell Dlg 2" font-size="10.3125" font-weight="400" font-style="normal" 
>
</g>

<g fill="#ae5151" fill-opacity="0.2" stroke="#333333" stroke-opacity="1" stroke-width="1" stroke-linecap="round" stroke-linejoin="round" transform="matrix(0.99999,0,0,-0.99999,73973.9,65982.1)"
font-family="MS Shell Dlg 2" font-size="10.3125" font-weight="400" font-style="normal" 
>
<path vector-effect="non-scaling-stroke" fill-rule="evenodd" d="M-13217.4,50495.7 L-13217.4,50495.9 L-12889.8,50686.2 L-12889.7,50686.4 L-12891.8,50688.8 L-12891.8,50689 L-4559.05,55626.2 L-4558.86,55626.2 L-3534.66,53794.7 L-3534.52,53794.7 L-3203.79,53979.6 L-3203.6,53979.6 L-2184.74,52157.7 L-2184.79,52157.5 L-2515.52,51972.5 L-2515.56,51972.4 L-1496.66,50150.4 L-1496.52,50150.4 L-1165.79,50335.3 L-1165.6,50335.3 L-146.737,48513.4 L-146.792,48513.2 L-477.519,48328.2 L-477.558,48328.1 L551.579,46487.8 L551.59,46487.8 L562.575,46474.9 L562.542,46474.7 L-7524.68,41491.3 L-7524.72,41491.2 L-7519.37,41482 L-7519.42,41481.8 L-7864.29,41281.5 L-7864.49,41281.5 L-8930.7,43116.8 L-8930.65,43117 L-8602.99,43307.3 L-8602.96,43307.5 L-11823.2,48850.6 L-11823.4,48850.7 L-12151,48660.3 L-12151.2,48660.4 L-13217.4,50495.7"/>
</g>

<g fill="none" stroke="#000000" stroke-opacity="1" stroke-width="1" stroke-linecap="square" stroke-linejoin="bevel" transform="matrix(0.99999,0,0,-0.99999,73973.9,65982.1)"
font-family="MS Shell Dlg 2" font-size="10.3125" font-weight="400" font-style="normal" 
>
</g>

<g fill="none" stroke="#000000" stroke-opacity="1" stroke-width="1" stroke-linecap="square" stroke-linejoin="bevel" transform="matrix(0.99999,0,0,-0.99999,73973.9,65982.1)"
font-family="MS Shell Dlg 2" font-size="10.3125" font-weight="400" font-style="normal" 
>
</g>

<g fill="#ae5151" fill-opacity="0.2" stroke="#333333" stroke-opacity="1" stroke-width="1" stroke-linecap="round" stroke-linejoin="round" transform="matrix(0.99999,0,0,-0.99999,73973.9,65982.1)"
font-family="MS Shell Dlg 2" font-size="10.3125" font-weight="400" font-style="normal" 
>
<path vector-effect="non-scaling-stroke" fill-rule="evenodd" d="M-60416,53685.9 L-60416,53686.1 L-59294.2,55569.1 L-59294,55569.1 L-58968.5,55375.2 L-58968.3,55375.2 L-57846.5,57258.3 L-57846.5,57258.4 L-58172.1,57452.3 L-58172.1,57452.5 L-57050.3,59335.5 L-57050.1,59335.6 L-56724.6,59141.6 L-56724.4,59141.7 L-55601.6,61026.4 L-55601.4,61026.4 L-47528.3,55653.1 L-47528.2,55652.9 L-47541.5,55638.1 L-47541.5,55637.9 L-47216,55444 L-47216,55443.8 L-48284.3,53650.5 L-48284.5,53650.5 L-48610.1,53844.4 L-48610.2,53844.4 L-51837.1,48428 L-51837,48427.9 L-51511.5,48233.9 L-51511.4,48233.7 L-52579.8,46440.4 L-52580,46440.4 L-52922.7,46644.5 L-61223.4,51589.7 L-61223.5,51589.9 L-60090.4,53491.8 L-60090.4,53491.9 L-60416,53685.9"/>
</g>

<g fill="none" stroke="#000000" stroke-opacity="1" stroke-width="1" stroke-linecap="square" stroke-linejoin="bevel" transform="matrix(0.99999,0,0,-0.99999,73973.9,65982.1)"
font-family="MS Shell Dlg 2" font-size="10.3125" font-weight="400" font-style="normal" 
>
</g>

<g fill="none" stroke="#000000" stroke-opacity="1" stroke-width="1" stroke-linecap="square" stroke-linejoin="bevel" transform="matrix(0.99999,0,0,-0.99999,73973.9,65982.1)"
font-family="MS Shell Dlg 2" font-size="10.3125" font-weight="400" font-style="normal" 
>
</g>

<g fill="#ffff00" fill-opacity="0.2" stroke="#333333" stroke-opacity="1" stroke-width="1" stroke-linecap="round" stroke-linejoin="round" transform="matrix(0.99999,0,0,-0.99999,73973.9,65982.1)"
font-family="MS Shell Dlg 2" font-size="10.3125" font-weight="400" font-style="normal" 
>
<path vector-effect="non-scaling-stroke" fill-rule="evenodd" d="M-61926.3,52008.5 L-61926.4,52008.7 L-61887.3,52074.3 L-61887.3,52074.4 L-66897.3,56450.6 L-66897.3,56450.6 L-73974.1,65981.2 L-73974,65981.4 L-62440.6,64823.3 L-62440.6,64823.3 L-56301.8,61449.9 L-56301.6,61450 L-56294.3,61462.3 L-56294.1,61462.4 L-55574.3,61033.5 L-55574.2,61033.3 L-55584.8,61015.5 L-55584.8,61015.4 L-47528.3,55653.1 L-47528.2,55652.9 L-47541.5,55638.1 L-47541.5,55637.9 L-46856,55229.5 L-46855.8,55229.6 L-46850.2,55245.4 L-46850,55245.5 L-38490.7,50733.4 L-38490.5,50733.5 L-38485.2,50742.7 L-38485,50742.8 L-37758.3,50325.8 L-37758.2,50325.6 L-37763.6,50316.1 L-37763.6,50316 L-25675.7,42946.8 L-25675.6,42946.8 L-13593.3,50268.5 L-13593.3,50268.6 L-13597.1,50275.1 L-13597,50275.3 L-12889.8,50686.2 L-12889.7,50686.4 L-12891.8,50688.8 L-12891.8,50689 L-4576.18,55616.1 L-4576.15,55616.2 L-4581.15,55625.2 L-4581.09,55625.3 L-3849.72,56034.4 L4583.41,60750.4 L5297.41,61149.7 L5297.61,61149.6 L5334.86,61083 L5334.98,61083 L11629.8,63233.6 L11629.9,63233.6 L23422,64597.1 L23422.1,64596.9 L16652.5,55187.7 L16652.5,55187.6 L10661.6,51558 L10661.6,51557.9 L10668.6,51545.3 L10668.6,51545.1 L9937.26,51136.2 L9937.07,51136.2 L9926.96,51154.3 L9926.83,51154.3 L1254.65,46858.3 L1254.46,46858.4 L1248.33,46877.3 L1248.19,46877.4 L551.69,46487.9 L551.663,46487.7 L562.575,46474.9 L562.542,46474.7 L-7524.68,41491.3 L-7524.72,41491.2 L-7519.37,41482 L-7519.42,41481.8 L-8243.92,41060.9 L-8244.11,41061 L-8249.59,41070.4 L-8249.72,41070.4 L-20675.6,34286.6 L-20675.6,34286.5 L-20376,20162.1 L-20375.9,20162 L-20368.4,20162 L-20368.2,20161.9 L-20366,19343.9 L-20365.9,19343.8 L-20362.8,19344.5 L-20362.6,19344.3 L-20253.4,9679.23 L-20253.3,9679.13 L-20243.1,9678.99 L-20242.9,9678.85 L-20254.4,8840.96 L-20386.8,-820.367 L-20398,-1638.36 L-20398.1,-1638.5 L-20474.4,-1637.46 L-20474.5,-1637.54 L-21759.4,-8164.36 L-21759.4,-8164.39 L-26474.8,-19058.4 L-26475,-19058.4 L-31238.8,-8491.17 L-31238.8,-8491.11 L-31386.7,-1488.07 L-31386.8,-1487.97 L-31401.2,-1487.77 L-31401.3,-1487.63 L-31389.9,-649.823 L-31389.7,-649.683 L-31369,-649.967 L-31368.9,-649.873 L-30753.3,9008.45 L-30753.1,9008.57 L-30733.7,9004.43 L-30733.5,9004.53 L-30722.6,9802.47 L-30722.7,9802.57 L-30739.3,9799.51 L-30739.4,9799.65 L-31011.6,19295.1 L-31011.7,19295.2 L-31022.3,19295.1 L-31022.4,19295.3 L-31024.7,20133.2 L-31024.6,20133.3 L-31013.7,20133.3 L-31013.6,20133.4 L-30675.6,34286.5 L-30675.7,34286.6 L-43057.6,41089.3 L-43057.7,41089.2 L-43061.4,41082.7 L-43061.6,41082.7 L-43771.1,41489.7 L-43771.2,41489.7 L-43772.3,41486.6 L-43772.5,41486.6 L-52197.3,46224.5 L-52197.4,46224.5 L-52202.7,46215.7 L-52202.9,46215.7 L-52922.7,46644.5 L-61223.5,51589.8 L-61926.3,52008.5 M6734.1,56904.8 L6734.06,56904.7 L7803.91,54991.6 L7804.05,54991.5 L8500.58,55381.1 L8500.62,55381.2 L7430.77,57294.3 L7430.63,57294.3 L6734.1,56904.8 M-2515.52,51972.5 L-2515.56,51972.4 L-1496.66,50150.4 L-1496.52,50150.4 L-799.982,50539.9 L-799.943,50540 L-1818.85,52362 L-1818.98,52362.1 L-2515.52,51972.5 M-11436.4,46595.9 L-11436.5,46595.8 L-10370.2,44760.4 L-10370.1,44760.4 L-9680.01,45161.2 L-9679.97,45161.4 L-10746.2,46996.7 L-10746.4,46996.8 L-11436.4,46595.9 M-26537.6,8947.03 L-26537.5,8946.93 L-24450.2,8918.33 L-24450.1,8918.43 L-24439.2,9716.41 L-24439.2,9716.51 L-26526.6,9745.11 L-26526.7,9745.01 L-26537.6,8947.03 M-26757.7,20124.8 L-26757.8,20124.7 L-26755.7,19326.7 L-26755.6,19326.6 L-24633,19332.3 L-24632.9,19332.4 L-24635,20130.5 L-24635.1,20130.6 L-26757.7,20124.8 M-26995.3,-1528.07 L-26995.2,-1528.17 L-24803.5,-1558.19 L-24803.4,-1558.1 L-24792.5,-760.114 L-24792.6,-760.013 L-26984.3,-729.99 L-26984.4,-730.088 L-26995.3,-1528.07 M-41647.7,45190.8 L-41647.7,45190.7 L-40955.4,44793.5 L-40955.3,44793.5 L-39899,46634.6 L-39899,46634.8 L-40591.2,47031.9 L-40591.3,47031.9 L-41647.7,45190.8 M-50757.9,50239.5 L-50757.8,50239.4 L-50072.2,49830.9 L-50072.1,49830.9 L-49003.6,51624.3 L-49003.7,51624.5 L-49689.3,52032.9 L-49689.4,52032.9 L-50757.9,50239.5 M-59654.1,55783.8 L-59654.1,55783.6 L-58968.5,55375.2 L-58968.3,55375.2 L-57846.5,57258.3 L-57846.5,57258.4 L-58532.1,57666.9 L-58532.3,57666.8 L-59654.1,55783.8"/>
</g>

<g fill="none" stroke="#000000" stroke-opacity="1" stroke-width="1" stroke-linecap="square" stroke-linejoin="bevel" transform="matrix(0.99999,0,0,-0.99999,73973.9,65982.1)"
font-family="MS Shell Dlg 2" font-size="10.3125" font-weight="400" font-style="normal" 
>
</g>

<g fill="none" stroke="#000000" stroke-opacity="1" stroke-width="1" stroke-linecap="square" stroke-linejoin="bevel" transform="matrix(0.99999,0,0,-0.99999,73973.9,65982.1)"
font-family="MS Shell Dlg 2" font-size="10.3125" font-weight="400" font-style="normal" 
>
</g>

<g fill="#ae5151" fill-opacity="0.2" stroke="#333333" stroke-opacity="1" stroke-width="1" stroke-linecap="round" stroke-linejoin="round" transform="matrix(0.99999,0,0,-0.99999,73973.9,65982.1)"
font-family="MS Shell Dlg 2" font-size="10.3125" font-weight="400" font-style="normal" 
>
<path vector-effect="non-scaling-stroke" fill-rule="evenodd" d="M-29187.3,-1498.14 L-29187.2,-1498.04 L-29182.1,-1119.15 L-29181.9,-1119.01 L-26990.3,-1149.03 L-26990.1,-1149.17 L-26995.3,-1528.07 L-26995.2,-1528.17 L-24803.5,-1558.19 L-24803.4,-1558.1 L-24798.2,-1179.2 L-24798.1,-1179.06 L-22606.5,-1209.08 L-22606.3,-1209.23 L-22611.5,-1588.12 L-22611.4,-1588.22 L-20470.8,-1617.55 L-20470.6,-1617.71 L-21759.4,-8164.36 L-21759.4,-8164.39 L-26474.8,-19058.4 L-26475,-19058.4 L-31238.8,-8491.17 L-31238.8,-8491.11 L-31387.2,-1468.15 L-31387,-1468.01 L-29187.3,-1498.14"/>
</g>

<g fill="none" stroke="#000000" stroke-opacity="1" stroke-width="1" stroke-linecap="square" stroke-linejoin="bevel" transform="matrix(0.99999,0,0,-0.99999,73973.9,65982.1)"
font-family="MS Shell Dlg 2" font-size="10.3125" font-weight="400" font-style="normal" 
>
</g>

<g fill="none" stroke="#000000" stroke-opacity="1" stroke-width="1" stroke-linecap="square" stroke-linejoin="bevel" transform="matrix(0.99999,0,0,-0.99999,73973.9,65982.1)"
font-family="MS Shell Dlg 2" font-size="10.3125" font-weight="400" font-style="normal" 
>
</g>

<g fill="#ae5151" fill-opacity="0.2" stroke="#333333" stroke-opacity="1" stroke-width="1" stroke-linecap="round" stroke-linejoin="round" transform="matrix(0.99999,0,0,-0.99999,73973.9,65982.1)"
font-family="MS Shell Dlg 2" font-size="10.3125" font-weight="400" font-style="normal" 
>
<path vector-effect="non-scaling-stroke" fill-rule="evenodd" d="M-31395.2,-1048.77 L-31395.3,-1048.63 L-31389.9,-649.823 L-31389.7,-649.683 L-31369,-649.967 L-31368.9,-649.873 L-30753.3,9008.45 L-30753.1,9008.57 L-30733.6,9004.41 L-30733.5,9004.41 L-28625.2,8975.53 L-28625.1,8975.63 L-28620,9354.52 L-28619.8,9354.66 L-26532.6,9326.07 L-26532.4,9325.92 L-26537.6,8947.03 L-26537.5,8946.93 L-24450.2,8918.33 L-24450.1,8918.43 L-24444.9,9297.33 L-24444.7,9297.47 L-22357.5,9268.87 L-22357.4,9268.73 L-22362.6,8889.84 L-22362.5,8889.73 L-20254.3,8860.86 L-20254.1,8860.71 L-20386.8,-820.367 L-20392,-1199.36 L-20392.1,-1199.5 L-22583.7,-1169.48 L-22583.9,-1169.34 L-22578.7,-790.441 L-22578.8,-790.339 L-29198.1,-699.663 L-29198.2,-699.762 L-29203.4,-1078.66 L-29203.6,-1078.8 L-31395.2,-1048.77"/>
</g>

<g fill="none" stroke="#000000" stroke-opacity="1" stroke-width="1" stroke-linecap="square" stroke-linejoin="bevel" transform="matrix(0.99999,0,0,-0.99999,73973.9,65982.1)"
font-family="MS Shell Dlg 2" font-size="10.3125" font-weight="400" font-style="normal" 
>
</g>

<g fill="none" stroke="#000000" stroke-opacity="1" stroke-width="1" stroke-linecap="square" stroke-linejoin="bevel" transform="matrix(0.99999,0,0,-0.99999,73973.9,65982.1)"
font-family="MS Shell Dlg 2" font-size="10.3125" font-weight="400" font-style="normal" 
>
</g>

<g fill="#ae5151" fill-opacity="0.2" stroke="#333333" stroke-opacity="1" stroke-width="1" stroke-linecap="round" stroke-linejoin="round" transform="matrix(0.99999,0,0,-0.99999,73973.9,65982.1)"
font-family="MS Shell Dlg 2" font-size="10.3125" font-weight="400" font-style="normal" 
>
<path vector-effect="non-scaling-stroke" fill-rule="evenodd" d="M-30727.7,9423.45 L-30727.8,9423.59 L-30722.6,9802.47 L-30722.7,9802.57 L-30739.3,9799.51 L-30739.4,9799.65 L-31012.1,19315 L-31012,19315.1 L-28878.6,19320.9 L-28878.5,19321 L-28879.5,19699.9 L-28879.3,19700 L-26756.8,19705.8 L-26756.7,19705.6 L-26755.7,19326.7 L-26755.6,19326.6 L-24633,19332.3 L-24632.9,19332.4 L-24633.9,19711.3 L-24633.7,19711.5 L-22511.2,19717.2 L-22511.1,19717.1 L-22510.1,19338.1 L-22510,19338 L-20366,19343.8 L-20366,19343.8 L-20362.8,19344.5 L-20362.6,19344.3 L-20253.4,9679.23 L-20253.3,9679.13 L-20243.1,9678.99 L-20242.9,9678.85 L-20248.4,9280.04 L-20248.5,9279.9 L-22335.8,9308.49 L-22335.9,9308.64 L-22330.7,9687.53 L-22330.8,9687.63 L-28635,9773.99 L-28635.1,9773.89 L-28640.3,9395 L-28640.4,9394.86 L-30727.7,9423.45"/>
</g>

<g fill="none" stroke="#000000" stroke-opacity="1" stroke-width="1" stroke-linecap="square" stroke-linejoin="bevel" transform="matrix(0.99999,0,0,-0.99999,73973.9,65982.1)"
font-family="MS Shell Dlg 2" font-size="10.3125" font-weight="400" font-style="normal" 
>
</g>

<g fill="none" stroke="#000000" stroke-opacity="1" stroke-width="1" stroke-linecap="square" stroke-linejoin="bevel" transform="matrix(0.99999,0,0,-0.99999,73973.9,65982.1)"
font-family="MS Shell Dlg 2" font-size="10.3125" font-weight="400" font-style="normal" 
>
</g>

<g fill="#ae5151" fill-opacity="0.2" stroke="#333333" stroke-opacity="1" stroke-width="1" stroke-linecap="round" stroke-linejoin="round" transform="matrix(0.99999,0,0,-0.99999,73973.9,65982.1)"
font-family="MS Shell Dlg 2" font-size="10.3125" font-weight="400" font-style="normal" 
>
<path vector-effect="non-scaling-stroke" fill-rule="evenodd" d="M-3168.76,53999.1 L-3168.71,53999.3 L-2837.98,54184.2 L-2837.94,54184.4 L-3867.02,56024.5 L-3866.96,56024.7 L4583.41,60750.4 L4914.22,60935.4 L4914.42,60935.3 L5984.23,59022.3 L5984.17,59022.1 L5653.45,58837.2 L5653.41,58837.1 L8884.56,53059.2 L8884.69,53059.1 L9215.42,53244.1 L9215.61,53244 L10285.4,51331 L10285.4,51330.8 L9937.26,51136.2 L9937.07,51136.2 L9926.96,51154.3 L9926.83,51154.3 L1254.65,46858.3 L1254.46,46858.4 L1248.3,46877.4 L1248.29,46877.4 L219.154,48717.7 L219.018,48717.8 L-111.709,48532.8 L-111.902,48532.9 L-1130.76,50354.8 L-1130.71,50355 L-799.982,50539.9 L-799.943,50540 L-1818.85,52362 L-1818.98,52362.1 L-2149.71,52177.1 L-2149.9,52177.2 L-3168.76,53999.1"/>
</g>

<g fill="none" stroke="#000000" stroke-opacity="1" stroke-width="1" stroke-linecap="square" stroke-linejoin="bevel" transform="matrix(0.99999,0,0,-0.99999,73973.9,65982.1)"
font-family="MS Shell Dlg 2" font-size="10.3125" font-weight="400" font-style="normal" 
>
</g>

<g fill="none" stroke="#000000" stroke-opacity="1" stroke-width="1" stroke-linecap="square" stroke-linejoin="bevel" transform="matrix(0.99999,0,0,-0.99999,73973.9,65982.1)"
font-family="MS Shell Dlg 2" font-size="10.3125" font-weight="400" font-style="normal" 
>
</g>

<g fill="#ae5151" fill-opacity="0.2" stroke="#333333" stroke-opacity="1" stroke-width="1" stroke-linecap="round" stroke-linejoin="round" transform="matrix(0.99999,0,0,-0.99999,73973.9,65982.1)"
font-family="MS Shell Dlg 2" font-size="10.3125" font-weight="400" font-style="normal" 
>
<path vector-effect="non-scaling-stroke" fill-rule="evenodd" d="M6029.9,59022.4 L6029.96,59022.6 L6360.68,59207.6 L6360.72,59207.7 L5315.79,61076.2 L5315.86,61076.4 L11629.8,63233.6 L11629.9,63233.6 L23422,64597.1 L23422.1,64596.9 L16652.5,55187.7 L16652.5,55187.6 L10644.6,51547.7 L10644.4,51547.7 L9570.67,53467.8 L9570.53,53467.8 L9239.81,53282.8 L9239.61,53282.9 L8169.8,55195.9 L8169.86,55196.1 L8500.58,55381.1 L8500.62,55381.2 L7430.77,57294.3 L7430.63,57294.3 L7099.91,57109.4 L7099.71,57109.4 L6029.9,59022.4"/>
</g>

<g fill="none" stroke="#000000" stroke-opacity="1" stroke-width="1" stroke-linecap="square" stroke-linejoin="bevel" transform="matrix(0.99999,0,0,-0.99999,73973.9,65982.1)"
font-family="MS Shell Dlg 2" font-size="10.3125" font-weight="400" font-style="normal" 
>
</g>

<g fill="none" stroke="#000000" stroke-opacity="1" stroke-width="1" stroke-linecap="square" stroke-linejoin="bevel" transform="matrix(0.99999,0,0,-0.99999,73973.9,65982.1)"
font-family="MS Shell Dlg 2" font-size="10.3125" font-weight="400" font-style="normal" 
>
</g>

<g fill="#ae5151" fill-opacity="0.2" stroke="#333333" stroke-opacity="1" stroke-width="1" stroke-linecap="round" stroke-linejoin="round" transform="matrix(0.99999,0,0,-0.99999,73973.9,65982.1)"
font-family="MS Shell Dlg 2" font-size="10.3125" font-weight="400" font-style="normal" 
>
<path vector-effect="non-scaling-stroke" fill-rule="evenodd" d="M-60776,53900.4 L-60776.2,53900.4 L-61871.9,52061.2 L-61872.1,52061.1 L-66897.3,56450.6 L-66897.3,56450.6 L-73974.1,65981.2 L-73974,65981.4 L-62440.6,64823.3 L-62440.6,64823.3 L-56284.3,61440.3 L-56284.3,61440.1 L-57410.2,59550.2 L-57410.2,59550.1 L-57084.6,59356.2 L-57084.6,59356 L-58206.4,57473 L-58206.6,57472.9 L-58532.1,57666.9 L-58532.3,57666.8 L-59654.1,55783.8 L-59654.1,55783.6 L-59328.5,55589.7 L-59328.5,55589.5 L-60450.3,53706.5 L-60450.5,53706.5 L-60776,53900.4"/>
</g>

<g fill="none" stroke="#000000" stroke-opacity="1" stroke-width="1" stroke-linecap="square" stroke-linejoin="bevel" transform="matrix(0.99999,0,0,-0.99999,73973.9,65982.1)"
font-family="MS Shell Dlg 2" font-size="10.3125" font-weight="400" font-style="normal" 
>
</g>

<g fill="none" stroke="#000000" stroke-opacity="1" stroke-width="1" stroke-linecap="square" stroke-linejoin="bevel" transform="matrix(0.99999,0,0,-0.99999,73973.9,65982.1)"
font-family="MS Shell Dlg 2" font-size="10.3125" font-weight="400" font-style="normal" 
>
</g>

<g fill="#ae5151" fill-opacity="0.2" stroke="#333333" stroke-opacity="1" stroke-width="1" stroke-linecap="round" stroke-linejoin="round" transform="matrix(0.99999,0,0,-0.99999,73973.9,65982.1)"
font-family="MS Shell Dlg 2" font-size="10.3125" font-weight="400" font-style="normal" 
>
<path vector-effect="non-scaling-stroke" fill-rule="evenodd" d="M-43407.6,41281.1 L-43407.6,41281.3 L-42351.3,43122.4 L-42351.1,43122.4 L-42022.5,42933.8 L-42022.3,42933.9 L-38832,48494.3 L-38832,48494.4 L-39160.7,48683 L-39160.7,48683.2 L-38104.4,50524.2 L-38104.2,50524.3 L-37758.3,50325.8 L-37758.2,50325.6 L-37763.6,50316.1 L-37763.6,50316 L-25675.7,42946.8 L-25675.6,42946.8 L-13593.3,50268.5 L-13593.3,50268.6 L-13597.1,50275.1 L-13597,50275.3 L-13252.1,50475.7 L-13251.9,50475.6 L-12185.7,48640.3 L-12185.8,48640.1 L-12513.4,48449.8 L-12513.5,48449.6 L-9293.19,42906.5 L-9293.05,42906.5 L-8965.4,43096.8 L-8965.21,43096.8 L-7899,41261.5 L-7899.05,41261.3 L-8243.92,41060.9 L-8244.11,41061 L-8249.59,41070.4 L-8249.72,41070.4 L-20675.6,34286.6 L-20675.6,34286.5 L-20376,20162.1 L-20375.9,20162 L-20368.4,20162 L-20368.2,20161.9 L-20367.2,19763 L-20367.3,19762.9 L-22489.8,19757.2 L-22490,19757.3 L-22491,20136.2 L-22491.1,20136.3 L-28901.7,20119.1 L-28901.8,20119 L-28900.8,19740 L-28901,19739.9 L-31023.5,19734.2 L-31023.6,19734.3 L-31024.7,20133.2 L-31024.6,20133.3 L-31013.7,20133.3 L-31013.6,20133.4 L-30675.6,34286.5 L-30675.7,34286.6 L-43057.6,41089.3 L-43057.7,41089.2 L-43061.4,41082.7 L-43061.6,41082.7 L-43407.6,41281.1"/>
</g>

<g fill="none" stroke="#000000" stroke-opacity="1" stroke-width="1" stroke-linecap="square" stroke-linejoin="bevel" transform="matrix(0.99999,0,0,-0.99999,73973.9,65982.1)"
font-family="MS Shell Dlg 2" font-size="10.3125" font-weight="400" font-style="normal" 
>
</g>

<g fill="none" stroke="#000000" stroke-opacity="1" stroke-width="1" stroke-linecap="square" stroke-linejoin="bevel" transform="matrix(0.99999,0,0,-0.99999,73973.9,65982.1)"
font-family="MS Shell Dlg 2" font-size="10.3125" font-weight="400" font-style="normal" 
>
</g>

<g fill="#ae5151" fill-opacity="0.2" stroke="#333333" stroke-opacity="1" stroke-width="1" stroke-linecap="round" stroke-linejoin="round" transform="matrix(0.99999,0,0,-0.99999,73973.9,65982.1)"
font-family="MS Shell Dlg 2" font-size="10.3125" font-weight="400" font-style="normal" 
>
<path vector-effect="non-scaling-stroke" fill-rule="evenodd" d="M-52545.5,46419.8 L-52545.5,46420 L-51477.2,48213.3 L-51477,48213.3 L-51151.4,48019.4 L-51151.3,48019.4 L-47924.4,53435.8 L-47924.5,53435.9 L-48250,53629.9 L-48250.1,53630.1 L-47181.7,55423.4 L-47181.5,55423.4 L-46856,55229.5 L-46855.8,55229.6 L-46850.2,55245.4 L-46850,55245.5 L-38473.1,50724 L-38473.1,50723.8 L-39534.8,48873.3 L-39534.8,48873.2 L-39206.1,48684.6 L-39206,48684.4 L-40262.3,46843.4 L-40262.5,46843.3 L-40591.2,47031.9 L-40591.3,47031.9 L-41647.7,45190.8 L-41647.7,45190.7 L-41319,45002.1 L-41318.9,45001.9 L-42375.2,43160.9 L-42375.4,43160.8 L-42704.1,43349.4 L-42704.2,43349.4 L-43771.2,41489.8 L-43771.2,41489.8 L-43772.3,41486.6 L-43772.5,41486.6 L-52197.3,46224.5 L-52197.4,46224.5 L-52202.7,46215.7 L-52202.9,46215.7 L-52545.5,46419.8"/>
</g>

<g fill="none" stroke="#000000" stroke-opacity="1" stroke-width="1" stroke-linecap="square" stroke-linejoin="bevel" transform="matrix(0.99999,0,0,-0.99999,73973.9,65982.1)"
font-family="MS Shell Dlg 2" font-size="10.3125" font-weight="400" font-style="normal" 
>
</g>

<g fill="none" stroke="#000000" stroke-opacity="1" stroke-width="1" stroke-linecap="square" stroke-linejoin="bevel" transform="matrix(0.99999,0,0,-0.99999,73973.9,65982.1)"
font-family="MS Shell Dlg 2" font-size="10.3125" font-weight="400" font-style="normal" 
>
</g>

<g fill="#ae5151" fill-opacity="0.2" stroke="#333333" stroke-opacity="1" stroke-width="1" stroke-linecap="round" stroke-linejoin="round" transform="matrix(0.99999,0,0,-0.99999,73973.9,65982.1)"
font-family="MS Shell Dlg 2" font-size="10.3125" font-weight="400" font-style="normal" 
>
<path vector-effect="non-scaling-stroke" fill-rule="evenodd" d="M-12889.6,50686.3 L-12889.7,50686.3 L-12891.8,50688.8 L-12891.8,50689 L-4576.18,55616.1 L-4576.15,55616.2 L-4581.15,55625.2 L-4581.09,55625.3 L-4232.98,55820 L-4232.79,55820 L-3213.93,53998.1 L-3213.98,53997.9 L-3544.71,53812.9 L-3544.75,53812.8 L-467.465,48310.1 L-467.329,48310 L-136.602,48495 L-136.409,48494.9 L882.453,46673 L882.398,46672.8 L551.69,46487.9 L551.663,46487.7 L562.575,46474.9 L562.542,46474.7 L-7541.64,41480.9 L-7541.83,41480.9 L-8613.52,43325.7 L-8613.66,43325.7 L-8941.31,43135.4 L-8941.5,43135.4 L-10007.7,44970.7 L-10007.7,44970.9 L-9680.01,45161.2 L-9679.97,45161.4 L-10746.2,46996.7 L-10746.4,46996.8 L-11074,46806.4 L-11074.2,46806.5 L-12140.4,48641.8 L-12140.4,48642 L-11812.7,48832.3 L-11812.7,48832.5 L-12889.6,50686.3"/>
</g>

<g fill="none" stroke="#000000" stroke-opacity="1" stroke-width="1" stroke-linecap="square" stroke-linejoin="bevel" transform="matrix(0.99999,0,0,-0.99999,73973.9,65982.1)"
font-family="MS Shell Dlg 2" font-size="10.3125" font-weight="400" font-style="normal" 
>
</g>

<g fill="none" stroke="#000000" stroke-opacity="1" stroke-width="1" stroke-linecap="square" stroke-linejoin="bevel" transform="matrix(0.99999,0,0,-0.99999,73973.9,65982.1)"
font-family="MS Shell Dlg 2" font-size="10.3125" font-weight="400" font-style="normal" 
>
</g>

<g fill="#ae5151" fill-opacity="0.2" stroke="#333333" stroke-opacity="1" stroke-width="1" stroke-linecap="round" stroke-linejoin="round" transform="matrix(0.99999,0,0,-0.99999,73973.9,65982.1)"
font-family="MS Shell Dlg 2" font-size="10.3125" font-weight="400" font-style="normal" 
>
<path vector-effect="non-scaling-stroke" fill-rule="evenodd" d="M-61549.1,51783.8 L-61549.2,51784 L-60427.4,53667 L-60427.2,53667 L-60101.7,53473.1 L-60101.5,53473.1 L-56713.3,59160.3 L-56713.3,59160.5 L-57038.9,59354.4 L-57038.9,59354.6 L-55917.1,61237.6 L-55916.9,61237.6 L-55574.3,61033.5 L-55574.2,61033.3 L-55584.8,61015.5 L-55584.8,61015.4 L-47528.3,55653.1 L-47528.2,55652.9 L-47541.6,55638 L-47541.6,55638 L-48620.8,53826.6 L-48620.8,53826.5 L-48295.2,53632.5 L-48295.2,53632.3 L-49363.6,51839 L-49363.8,51839 L-49689.3,52032.9 L-49689.4,52032.9 L-50757.9,50239.5 L-50757.8,50239.4 L-50432.3,50045.4 L-50432.2,50045.2 L-51500.6,48251.9 L-51500.8,48251.9 L-51826.4,48445.8 L-51826.5,48445.8 L-52905.6,46634.5 L-52905.8,46634.4 L-61223.5,51589.8 L-61549.1,51783.8"/>
</g>

<g fill="none" stroke="#000000" stroke-opacity="1" stroke-width="1" stroke-linecap="square" stroke-linejoin="bevel" transform="matrix(0.99999,0,0,-0.99999,73973.9,65982.1)"
font-family="MS Shell Dlg 2" font-size="10.3125" font-weight="400" font-style="normal" 
>
</g>

<g fill="none" stroke="#000000" stroke-opacity="1" stroke-width="1" stroke-linecap="square" stroke-linejoin="bevel" transform="matrix(0.99999,0,0,-0.99999,73973.9,65982.1)"
font-family="MS Shell Dlg 2" font-size="10.3125" font-weight="400" font-style="normal" 
>
</g>

<g fill="#333333" fill-opacity="0.2" stroke="#333333" stroke-opacity="1" stroke-width="1" stroke-linecap="round" stroke-linejoin="round" transform="matrix(0.99999,0,0,-0.99999,73973.9,65982.1)"
font-family="MS Shell Dlg 2" font-size="10.3125" font-weight="400" font-style="normal" 
>
<path vector-effect="non-scaling-stroke" fill-rule="evenodd" d="M-29187.3,-1498.14 L-29187.2,-1498.04 L-29182.1,-1119.15 L-29181.9,-1119.01 L-26990.3,-1149.03 L-26990.1,-1149.17 L-26995.3,-1528.07 L-26995.2,-1528.17 L-24803.5,-1558.19 L-24803.4,-1558.1 L-24798.2,-1179.2 L-24798.1,-1179.06 L-22606.5,-1209.08 L-22606.3,-1209.23 L-22611.5,-1588.12 L-22611.4,-1588.22 L-20470.8,-1617.55 L-20470.6,-1617.71 L-21759.4,-8164.36 L-21759.4,-8164.39 L-26474.8,-19058.4 L-26475,-19058.4 L-31238.8,-8491.17 L-31238.8,-8491.11 L-31387.2,-1468.15 L-31387,-1468.01 L-29187.3,-1498.14"/>
</g>

<g fill="none" stroke="#000000" stroke-opacity="1" stroke-width="1" stroke-linecap="square" stroke-linejoin="bevel" transform="matrix(0.99999,0,0,-0.99999,73973.9,65982.1)"
font-family="MS Shell Dlg 2" font-size="10.3125" font-weight="400" font-style="normal" 
>
</g>

<g fill="none" stroke="#000000" stroke-opacity="1" stroke-width="1" stroke-linecap="square" stroke-linejoin="bevel" transform="matrix(0.99999,0,0,-0.99999,73973.9,65982.1)"
font-family="MS Shell Dlg 2" font-size="10.3125" font-weight="400" font-style="normal" 
>
</g>

<g fill="#333333" fill-opacity="0.2" stroke="#333333" stroke-opacity="1" stroke-width="1" stroke-linecap="round" stroke-linejoin="round" transform="matrix(0.99999,0,0,-0.99999,73973.9,65982.1)"
font-family="MS Shell Dlg 2" font-size="10.3125" font-weight="400" font-style="normal" 
>
<path vector-effect="non-scaling-stroke" fill-rule="evenodd" d="M-31395.2,-1048.77 L-31395.3,-1048.63 L-31389.9,-649.823 L-31389.7,-649.683 L-31369,-649.967 L-31368.9,-649.873 L-30753.3,9008.45 L-30753.1,9008.57 L-30733.6,9004.41 L-30733.5,9004.41 L-28625.2,8975.53 L-28625.1,8975.63 L-28620,9354.52 L-28619.8,9354.66 L-26532.6,9326.07 L-26532.4,9325.92 L-26537.6,8947.03 L-26537.5,8946.93 L-24450.2,8918.33 L-24450.1,8918.43 L-24444.9,9297.33 L-24444.7,9297.47 L-22357.5,9268.87 L-22357.4,9268.73 L-22362.6,8889.84 L-22362.5,8889.73 L-20254.3,8860.86 L-20254.1,8860.71 L-20386.8,-820.367 L-20392,-1199.36 L-20392.1,-1199.5 L-22583.7,-1169.48 L-22583.9,-1169.34 L-22578.7,-790.441 L-22578.8,-790.339 L-29198.1,-699.663 L-29198.2,-699.762 L-29203.4,-1078.66 L-29203.6,-1078.8 L-31395.2,-1048.77"/>
</g>

<g fill="none" stroke="#000000" stroke-opacity="1" stroke-width="1" stroke-linecap="square" stroke-linejoin="bevel" transform="matrix(0.99999,0,0,-0.99999,73973.9,65982.1)"
font-family="MS Shell Dlg 2" font-size="10.3125" font-weight="400" font-style="normal" 
>
</g>

<g fill="none" stroke="#000000" stroke-opacity="1" stroke-width="1" stroke-linecap="square" stroke-linejoin="bevel" transform="matrix(0.99999,0,0,-0.99999,73973.9,65982.1)"
font-family="MS Shell Dlg 2" font-size="10.3125" font-weight="400" font-style="normal" 
>
</g>

<g fill="#333333" fill-opacity="0.2" stroke="#333333" stroke-opacity="1" stroke-width="1" stroke-linecap="round" stroke-linejoin="round" transform="matrix(0.99999,0,0,-0.99999,73973.9,65982.1)"
font-family="MS Shell Dlg 2" font-size="10.3125" font-weight="400" font-style="normal" 
>
<path vector-effect="non-scaling-stroke" fill-rule="evenodd" d="M-30727.7,9423.45 L-30727.8,9423.59 L-30722.6,9802.47 L-30722.7,9802.57 L-30739.3,9799.51 L-30739.4,9799.65 L-31012.1,19315 L-31012,19315.1 L-28878.6,19320.9 L-28878.5,19321 L-28879.5,19699.9 L-28879.3,19700 L-26756.8,19705.8 L-26756.7,19705.6 L-26755.7,19326.7 L-26755.6,19326.6 L-24633,19332.3 L-24632.9,19332.4 L-24633.9,19711.3 L-24633.7,19711.5 L-22511.2,19717.2 L-22511.1,19717.1 L-22510.1,19338.1 L-22510,19338 L-20366,19343.8 L-20366,19343.8 L-20362.8,19344.5 L-20362.6,19344.3 L-20253.4,9679.23 L-20253.3,9679.13 L-20243.1,9678.99 L-20242.9,9678.85 L-20248.4,9280.04 L-20248.5,9279.9 L-22335.8,9308.49 L-22335.9,9308.64 L-22330.7,9687.53 L-22330.8,9687.63 L-28635,9773.99 L-28635.1,9773.89 L-28640.3,9395 L-28640.4,9394.86 L-30727.7,9423.45"/>
</g>

<g fill="none" stroke="#000000" stroke-opacity="1" stroke-width="1" stroke-linecap="square" stroke-linejoin="bevel" transform="matrix(0.99999,0,0,-0.99999,73973.9,65982.1)"
font-family="MS Shell Dlg 2" font-size="10.3125" font-weight="400" font-style="normal" 
>
</g>

<g fill="none" stroke="#000000" stroke-opacity="1" stroke-width="1" stroke-linecap="square" stroke-linejoin="bevel" transform="matrix(0.99999,0,0,-0.99999,73973.9,65982.1)"
font-family="MS Shell Dlg 2" font-size="10.3125" font-weight="400" font-style="normal" 
>
</g>

<g fill="#333333" fill-opacity="0.2" stroke="#333333" stroke-opacity="1" stroke-width="1" stroke-linecap="round" stroke-linejoin="round" transform="matrix(0.99999,0,0,-0.99999,73973.9,65982.1)"
font-family="MS Shell Dlg 2" font-size="10.3125" font-weight="400" font-style="normal" 
>
<path vector-effect="non-scaling-stroke" fill-rule="evenodd" d="M-3168.76,53999.1 L-3168.71,53999.3 L-2837.98,54184.2 L-2837.94,54184.4 L-3867.02,56024.5 L-3866.96,56024.7 L4583.41,60750.4 L4914.22,60935.4 L4914.42,60935.3 L5984.23,59022.3 L5984.17,59022.1 L5653.45,58837.2 L5653.41,58837.1 L8884.56,53059.2 L8884.69,53059.1 L9215.42,53244.1 L9215.61,53244 L10285.4,51331 L10285.4,51330.8 L9937.26,51136.2 L9937.07,51136.2 L9926.96,51154.3 L9926.83,51154.3 L1254.65,46858.3 L1254.46,46858.4 L1248.3,46877.4 L1248.29,46877.4 L219.154,48717.7 L219.018,48717.8 L-111.709,48532.8 L-111.902,48532.9 L-1130.76,50354.8 L-1130.71,50355 L-799.982,50539.9 L-799.943,50540 L-1818.85,52362 L-1818.98,52362.1 L-2149.71,52177.1 L-2149.9,52177.2 L-3168.76,53999.1"/>
</g>

<g fill="none" stroke="#000000" stroke-opacity="1" stroke-width="1" stroke-linecap="square" stroke-linejoin="bevel" transform="matrix(0.99999,0,0,-0.99999,73973.9,65982.1)"
font-family="MS Shell Dlg 2" font-size="10.3125" font-weight="400" font-style="normal" 
>
</g>

<g fill="none" stroke="#000000" stroke-opacity="1" stroke-width="1" stroke-linecap="square" stroke-linejoin="bevel" transform="matrix(0.99999,0,0,-0.99999,73973.9,65982.1)"
font-family="MS Shell Dlg 2" font-size="10.3125" font-weight="400" font-style="normal" 
>
</g>

<g fill="#333333" fill-opacity="0.2" stroke="#333333" stroke-opacity="1" stroke-width="1" stroke-linecap="round" stroke-linejoin="round" transform="matrix(0.99999,0,0,-0.99999,73973.9,65982.1)"
font-family="MS Shell Dlg 2" font-size="10.3125" font-weight="400" font-style="normal" 
>
<path vector-effect="non-scaling-stroke" fill-rule="evenodd" d="M6029.9,59022.4 L6029.96,59022.6 L6360.68,59207.6 L6360.72,59207.7 L5315.79,61076.2 L5315.86,61076.4 L11629.8,63233.6 L11629.9,63233.6 L23422,64597.1 L23422.1,64596.9 L16652.5,55187.7 L16652.5,55187.6 L10644.6,51547.7 L10644.4,51547.7 L9570.67,53467.8 L9570.53,53467.8 L9239.81,53282.8 L9239.61,53282.9 L8169.8,55195.9 L8169.86,55196.1 L8500.58,55381.1 L8500.62,55381.2 L7430.77,57294.3 L7430.63,57294.3 L7099.91,57109.4 L7099.71,57109.4 L6029.9,59022.4"/>
</g>

<g fill="none" stroke="#000000" stroke-opacity="1" stroke-width="1" stroke-linecap="square" stroke-linejoin="bevel" transform="matrix(0.99999,0,0,-0.99999,73973.9,65982.1)"
font-family="MS Shell Dlg 2" font-size="10.3125" font-weight="400" font-style="normal" 
>
</g>

<g fill="none" stroke="#000000" stroke-opacity="1" stroke-width="1" stroke-linecap="square" stroke-linejoin="bevel" transform="matrix(0.99999,0,0,-0.99999,73973.9,65982.1)"
font-family="MS Shell Dlg 2" font-size="10.3125" font-weight="400" font-style="normal" 
>
</g>

<g fill="#333333" fill-opacity="0.2" stroke="#333333" stroke-opacity="1" stroke-width="1" stroke-linecap="round" stroke-linejoin="round" transform="matrix(0.99999,0,0,-0.99999,73973.9,65982.1)"
font-family="MS Shell Dlg 2" font-size="10.3125" font-weight="400" font-style="normal" 
>
<path vector-effect="non-scaling-stroke" fill-rule="evenodd" d="M-60776,53900.4 L-60776.2,53900.4 L-61871.9,52061.2 L-61872.1,52061.1 L-66897.3,56450.6 L-66897.3,56450.6 L-73974.1,65981.2 L-73974,65981.4 L-62440.6,64823.3 L-62440.6,64823.3 L-56284.3,61440.3 L-56284.3,61440.1 L-57410.2,59550.2 L-57410.2,59550.1 L-57084.6,59356.2 L-57084.6,59356 L-58206.4,57473 L-58206.6,57472.9 L-58532.1,57666.9 L-58532.3,57666.8 L-59654.1,55783.8 L-59654.1,55783.6 L-59328.5,55589.7 L-59328.5,55589.5 L-60450.3,53706.5 L-60450.5,53706.5 L-60776,53900.4"/>
</g>

<g fill="none" stroke="#000000" stroke-opacity="1" stroke-width="1" stroke-linecap="square" stroke-linejoin="bevel" transform="matrix(0.99999,0,0,-0.99999,73973.9,65982.1)"
font-family="MS Shell Dlg 2" font-size="10.3125" font-weight="400" font-style="normal" 
>
</g>

<g fill="none" stroke="#000000" stroke-opacity="1" stroke-width="1" stroke-linecap="square" stroke-linejoin="bevel" transform="matrix(0.99999,0,0,-0.99999,73973.9,65982.1)"
font-family="MS Shell Dlg 2" font-size="10.3125" font-weight="400" font-style="normal" 
>
</g>

<g fill="#333333" fill-opacity="0.2" stroke="#333333" stroke-opacity="1" stroke-width="1" stroke-linecap="round" stroke-linejoin="round" transform="matrix(0.99999,0,0,-0.99999,73973.9,65982.1)"
font-family="MS Shell Dlg 2" font-size="10.3125" font-weight="400" font-style="normal" 
>
<path vector-effect="non-scaling-stroke" fill-rule="evenodd" d="M-43407.6,41281.1 L-43407.6,41281.3 L-42351.3,43122.4 L-42351.1,43122.4 L-42022.5,42933.8 L-42022.3,42933.9 L-38832,48494.3 L-38832,48494.4 L-39160.7,48683 L-39160.7,48683.2 L-38104.4,50524.2 L-38104.2,50524.3 L-37758.3,50325.8 L-37758.2,50325.6 L-37763.6,50316.1 L-37763.6,50316 L-25675.7,42946.8 L-25675.6,42946.8 L-13593.3,50268.5 L-13593.3,50268.6 L-13597.1,50275.1 L-13597,50275.3 L-13252.1,50475.7 L-13251.9,50475.6 L-12185.7,48640.3 L-12185.8,48640.1 L-12513.4,48449.8 L-12513.5,48449.6 L-9293.19,42906.5 L-9293.05,42906.5 L-8965.4,43096.8 L-8965.21,43096.8 L-7899,41261.5 L-7899.05,41261.3 L-8243.92,41060.9 L-8244.11,41061 L-8249.59,41070.4 L-8249.72,41070.4 L-20675.6,34286.6 L-20675.6,34286.5 L-20376,20162.1 L-20375.9,20162 L-20368.4,20162 L-20368.2,20161.9 L-20367.2,19763 L-20367.3,19762.9 L-22489.8,19757.2 L-22490,19757.3 L-22491,20136.2 L-22491.1,20136.3 L-28901.7,20119.1 L-28901.8,20119 L-28900.8,19740 L-28901,19739.9 L-31023.5,19734.2 L-31023.6,19734.3 L-31024.7,20133.2 L-31024.6,20133.3 L-31013.7,20133.3 L-31013.6,20133.4 L-30675.6,34286.5 L-30675.7,34286.6 L-43057.6,41089.3 L-43057.7,41089.2 L-43061.4,41082.7 L-43061.6,41082.7 L-43407.6,41281.1"/>
</g>

<g fill="none" stroke="#000000" stroke-opacity="1" stroke-width="1" stroke-linecap="square" stroke-linejoin="bevel" transform="matrix(0.99999,0,0,-0.99999,73973.9,65982.1)"
font-family="MS Shell Dlg 2" font-size="10.3125" font-weight="400" font-style="normal" 
>
</g>

<g fill="none" stroke="#000000" stroke-opacity="1" stroke-width="1" stroke-linecap="square" stroke-linejoin="bevel" transform="matrix(0.99999,0,0,-0.99999,73973.9,65982.1)"
font-family="MS Shell Dlg 2" font-size="10.3125" font-weight="400" font-style="normal" 
>
</g>

<g fill="#333333" fill-opacity="0.2" stroke="#333333" stroke-opacity="1" stroke-width="1" stroke-linecap="round" stroke-linejoin="round" transform="matrix(0.99999,0,0,-0.99999,73973.9,65982.1)"
font-family="MS Shell Dlg 2" font-size="10.3125" font-weight="400" font-style="normal" 
>
<path vector-effect="non-scaling-stroke" fill-rule="evenodd" d="M-52545.5,46419.8 L-52545.5,46420 L-51477.2,48213.3 L-51477,48213.3 L-51151.4,48019.4 L-51151.3,48019.4 L-47924.4,53435.8 L-47924.5,53435.9 L-48250,53629.9 L-48250.1,53630.1 L-47181.7,55423.4 L-47181.5,55423.4 L-46856,55229.5 L-46855.8,55229.6 L-46850.2,55245.4 L-46850,55245.5 L-38473.1,50724 L-38473.1,50723.8 L-39534.8,48873.3 L-39534.8,48873.2 L-39206.1,48684.6 L-39206,48684.4 L-40262.3,46843.4 L-40262.5,46843.3 L-40591.2,47031.9 L-40591.3,47031.9 L-41647.7,45190.8 L-41647.7,45190.7 L-41319,45002.1 L-41318.9,45001.9 L-42375.2,43160.9 L-42375.4,43160.8 L-42704.1,43349.4 L-42704.2,43349.4 L-43771.2,41489.8 L-43771.2,41489.8 L-43772.3,41486.6 L-43772.5,41486.6 L-52197.3,46224.5 L-52197.4,46224.5 L-52202.7,46215.7 L-52202.9,46215.7 L-52545.5,46419.8"/>
</g>

<g fill="none" stroke="#000000" stroke-opacity="1" stroke-width="1" stroke-linecap="square" stroke-linejoin="bevel" transform="matrix(0.99999,0,0,-0.99999,73973.9,65982.1)"
font-family="MS Shell Dlg 2" font-size="10.3125" font-weight="400" font-style="normal" 
>
</g>

<g fill="none" stroke="#000000" stroke-opacity="1" stroke-width="1" stroke-linecap="square" stroke-linejoin="bevel" transform="matrix(0.99999,0,0,-0.99999,73973.9,65982.1)"
font-family="MS Shell Dlg 2" font-size="10.3125" font-weight="400" font-style="normal" 
>
</g>

<g fill="#333333" fill-opacity="0.2" stroke="#333333" stroke-opacity="1" stroke-width="1" stroke-linecap="round" stroke-linejoin="round" transform="matrix(0.99999,0,0,-0.99999,73973.9,65982.1)"
font-family="MS Shell Dlg 2" font-size="10.3125" font-weight="400" font-style="normal" 
>
<path vector-effect="non-scaling-stroke" fill-rule="evenodd" d="M-12889.6,50686.3 L-12889.7,50686.3 L-12891.8,50688.8 L-12891.8,50689 L-4576.18,55616.1 L-4576.15,55616.2 L-4581.15,55625.2 L-4581.09,55625.3 L-4232.98,55820 L-4232.79,55820 L-3213.93,53998.1 L-3213.98,53997.9 L-3544.71,53812.9 L-3544.75,53812.8 L-467.465,48310.1 L-467.329,48310 L-136.602,48495 L-136.409,48494.9 L882.453,46673 L882.398,46672.8 L551.69,46487.9 L551.663,46487.7 L562.575,46474.9 L562.542,46474.7 L-7541.64,41480.9 L-7541.83,41480.9 L-8613.52,43325.7 L-8613.66,43325.7 L-8941.31,43135.4 L-8941.5,43135.4 L-10007.7,44970.7 L-10007.7,44970.9 L-9680.01,45161.2 L-9679.97,45161.4 L-10746.2,46996.7 L-10746.4,46996.8 L-11074,46806.4 L-11074.2,46806.5 L-12140.4,48641.8 L-12140.4,48642 L-11812.7,48832.3 L-11812.7,48832.5 L-12889.6,50686.3"/>
</g>

<g fill="none" stroke="#000000" stroke-opacity="1" stroke-width="1" stroke-linecap="square" stroke-linejoin="bevel" transform="matrix(0.99999,0,0,-0.99999,73973.9,65982.1)"
font-family="MS Shell Dlg 2" font-size="10.3125" font-weight="400" font-style="normal" 
>
</g>

<g fill="none" stroke="#000000" stroke-opacity="1" stroke-width="1" stroke-linecap="square" stroke-linejoin="bevel" transform="matrix(0.99999,0,0,-0.99999,73973.9,65982.1)"
font-family="MS Shell Dlg 2" font-size="10.3125" font-weight="400" font-style="normal" 
>
</g>

<g fill="#333333" fill-opacity="0.2" stroke="#333333" stroke-opacity="1" stroke-width="1" stroke-linecap="round" stroke-linejoin="round" transform="matrix(0.99999,0,0,-0.99999,73973.9,65982.1)"
font-family="MS Shell Dlg 2" font-size="10.3125" font-weight="400" font-style="normal" 
>
<path vector-effect="non-scaling-stroke" fill-rule="evenodd" d="M-61549.1,51783.8 L-61549.2,51784 L-60427.4,53667 L-60427.2,53667 L-60101.7,53473.1 L-60101.5,53473.1 L-56713.3,59160.3 L-56713.3,59160.5 L-57038.9,59354.4 L-57038.9,59354.6 L-55917.1,61237.6 L-55916.9,61237.6 L-55574.3,61033.5 L-55574.2,61033.3 L-55584.8,61015.5 L-55584.8,61015.4 L-47528.3,55653.1 L-47528.2,55652.9 L-47541.6,55638 L-47541.6,55638 L-48620.8,53826.6 L-48620.8,53826.5 L-48295.2,53632.5 L-48295.2,53632.3 L-49363.6,51839 L-49363.8,51839 L-49689.3,52032.9 L-49689.4,52032.9 L-50757.9,50239.5 L-50757.8,50239.4 L-50432.3,50045.4 L-50432.2,50045.2 L-51500.6,48251.9 L-51500.8,48251.9 L-51826.4,48445.8 L-51826.5,48445.8 L-52905.6,46634.5 L-52905.8,46634.4 L-61223.5,51589.8 L-61549.1,51783.8"/>
</g>

<g fill="none" stroke="#000000" stroke-opacity="1" stroke-width="1" stroke-linecap="square" stroke-linejoin="bevel" transform="matrix(0.99999,0,0,-0.99999,73973.9,65982.1)"
font-family="MS Shell Dlg 2" font-size="10.3125" font-weight="400" font-style="normal" 
>
</g>

<g fill="none" stroke="#000000" stroke-opacity="1" stroke-width="1" stroke-linecap="square" stroke-linejoin="bevel" transform="matrix(0.99999,0,0,-0.99999,73973.9,65982.1)"
font-family="MS Shell Dlg 2" font-size="10.3125" font-weight="400" font-style="normal" 
>
</g>

<g fill="#ae5151" fill-opacity="0.2" stroke="#333333" stroke-opacity="1" stroke-width="1" stroke-linecap="round" stroke-linejoin="round" transform="matrix(0.99999,0,0,-0.99999,73973.9,65982.1)"
font-family="MS Shell Dlg 2" font-size="10.3125" font-weight="400" font-style="normal" 
>
<path vector-effect="non-scaling-stroke" fill-rule="evenodd" d="M-43407.6,41281.1 L-43407.6,41281.3 L-42351.3,43122.4 L-42351.1,43122.4 L-42022.5,42933.8 L-42022.3,42933.9 L-38832,48494.3 L-38832,48494.4 L-39160.7,48683 L-39160.7,48683.2 L-38104.4,50524.2 L-38104.2,50524.3 L-37758.3,50325.8 L-37758.2,50325.6 L-37763.6,50316.1 L-37763.6,50316 L-27124.4,43830 L-27124.4,43829.9 L-27108.7,43492.8 L-27108.7,43492.8 L-27039.4,43261.1 L-27039.4,43261.1 L-26869.5,43089 L-26869.5,43089 L-25935.9,42519.9 L-25935.9,42519.9 L-25766.8,42455.2 L-25766.8,42455.2 L-25585.8,42454.9 L-25585.7,42454.9 L-25416.5,42519.2 L-25416.5,42519.2 L-24351.5,43164.5 L-24351.5,43164.5 L-24218.3,43282.2 L-24218.3,43282.2 L-24134.7,43439.1 L-24134.6,43439.1 L-24111.2,43615.3 L-24111.2,43615.3 L-24123.8,43887.1 L-24123.7,43887.2 L-13593.3,50268.5 L-13593.3,50268.6 L-13597.1,50275.1 L-13597,50275.3 L-13252.1,50475.7 L-13251.9,50475.6 L-12185.7,48640.3 L-12185.8,48640.1 L-12513.4,48449.8 L-12513.5,48449.6 L-9293.19,42906.5 L-9293.05,42906.5 L-8965.4,43096.8 L-8965.21,43096.8 L-7899,41261.5 L-7899.05,41261.3 L-8243.92,41060.9 L-8244.11,41061 L-8249.59,41070.4 L-8249.72,41070.4 L-19786.3,34772.1 L-19786.4,34772.1 L-20043,34923.6 L-20043,34923.6 L-20203.3,34984.2 L-20203.3,34984.2 L-20374.6,34987.1 L-20374.7,34987.1 L-20536.9,34932 L-20536.9,34931.9 L-20915.2,34725.4 L-20915.2,34725.4 L-21055.8,34611.3 L-21055.8,34611.3 L-21146.5,34454.7 L-21146.5,34454.6 L-21175.5,34275.9 L-21175.5,34275.9 L-21134.9,32359.2 L-21134.9,32359.2 L-21102.9,32193.7 L-21102.9,32193.7 L-21017.8,32048.2 L-21017.8,32048.2 L-20889.2,31939.3 L-20889.2,31939.3 L-20622.6,31781.8 L-20622.5,31781.7 L-20376,20162.1 L-20375.9,20162 L-20368.4,20162 L-20368.2,20161.9 L-20367.2,19763 L-20367.3,19762.9 L-22489.8,19757.2 L-22490,19757.3 L-22491,20136.2 L-22491.1,20136.3 L-28901.7,20119.1 L-28901.8,20119 L-28900.8,19740 L-28901,19739.9 L-31023.5,19734.2 L-31023.6,19734.3 L-31024.7,20133.2 L-31024.6,20133.3 L-31013.7,20133.3 L-31013.6,20133.4 L-30739.4,31613.7 L-30739.4,31613.8 L-30469.8,31774.1 L-30469.8,31774.1 L-30342.2,31882.7 L-30342.1,31882.7 L-30257.5,32027.4 L-30257.5,32027.4 L-30225.5,32191.9 L-30225.5,32191.9 L-30175.8,34274.6 L-30175.8,34274.6 L-30204.3,34453.4 L-30204.3,34453.4 L-30294.6,34610.3 L-30294.6,34610.3 L-30434.9,34724.7 L-30434.9,34724.8 L-30674.1,34856.2 L-30674.2,34856.2 L-30837.2,34911.9 L-30837.2,34911.9 L-31009.4,34909 L-31009.4,34909 L-31170.4,34847.8 L-31170.5,34847.8 L-31423.3,34697.4 L-31423.5,34697.4 L-43057.6,41089.3 L-43057.7,41089.2 L-43061.4,41082.7 L-43061.6,41082.7 L-43407.6,41281.1"/>
</g>

<g fill="none" stroke="#000000" stroke-opacity="1" stroke-width="1" stroke-linecap="square" stroke-linejoin="bevel" transform="matrix(0.99999,0,0,-0.99999,73973.9,65982.1)"
font-family="MS Shell Dlg 2" font-size="10.3125" font-weight="400" font-style="normal" 
>
</g>

<g fill="none" stroke="#000000" stroke-opacity="1" stroke-width="1" stroke-linecap="square" stroke-linejoin="bevel" transform="matrix(0.99999,0,0,-0.99999,73973.9,65982.1)"
font-family="MS Shell Dlg 2" font-size="10.3125" font-weight="400" font-style="normal" 
>
</g>

<g fill="#333333" fill-opacity="0.2" stroke="#333333" stroke-opacity="1" stroke-width="1" stroke-linecap="round" stroke-linejoin="round" transform="matrix(0.99999,0,0,-0.99999,73973.9,65982.1)"
font-family="MS Shell Dlg 2" font-size="10.3125" font-weight="400" font-style="normal" 
>
<path vector-effect="non-scaling-stroke" fill-rule="evenodd" d="M-59849.3,43993.7 L-59849.3,43993.8 L-50470,61189.2 L-50469.9,61189.3 L-4019.81,61412.6 L-4019.69,61412.5 L7146.14,46003.7 L7146.15,46003.5 L-16748.8,2233.26 L-16749,2233.19 L-35284.2,2456.5 L-35284.4,2456.57 L-59849.3,43993.7 M-3983.68,43886.2 L-3983.67,43886.2 L-3909.75,43701.8 L-3909.74,43701.8 L-3360.39,42865.7 L-3360.37,42865.7 L-3226.51,42728.8 L-3226.48,42728.7 L-3050.97,42652.2 L-3050.93,42652.2 L-2859.51,42647.2 L-2859.47,42647.2 L-2680.22,42714.6 L-2680.2,42714.6 L-2620.59,42751.3 L-976.807,43764.3 L-976.791,43764.3 L-831.763,43900 L-831.74,43900 L-751.008,44081.5 L-751,44081.5 L-749.504,44161.8 L-747.301,44280.1 L-747.308,44280.1 L-796.589,44403 L-821.229,44464.5 L-821.239,44464.5 L-1370.59,45300.6 L-1370.61,45300.6 L-1504.47,45437.5 L-1504.5,45437.6 L-1680.01,45514.1 L-1680.05,45514.1 L-1871.47,45519.1 L-1871.51,45519.1 L-2050.76,45451.7 L-2050.78,45451.7 L-3754.17,44402 L-3754.19,44402 L-3778.04,44379.7 L-3899.22,44266.3 L-3899.24,44266.3 L-3948.39,44155.8 L-3957.29,44135.8 L-3979.97,44084.8 L-3979.98,44084.8 L-3983.68,43886.2 M-10342.6,53565.4 L-10342.5,53565.4 L-10268.2,53378.9 L-10268.2,53378.8 L-9718.51,52542.2 L-9718.5,52542.2 L-9586.42,52406.5 L-9586.39,52406.5 L-9413.32,52329.7 L-9413.29,52329.6 L-9224.06,52322.7 L-9224.02,52322.7 L-9045.77,52386.6 L-9045.76,52386.6 L-7323.27,53407.2 L-7323.26,53407.2 L-7174.61,53542.2 L-7174.59,53542.2 L-7091.01,53724.7 L-7091,53724.7 L-7085.95,53925.4 L-7085.96,53925.5 L-7160.27,54111.9 L-7160.28,54112 L-7709.99,54948.6 L-7710.01,54948.6 L-7842.09,55084.3 L-7842.12,55084.3 L-8015.18,55161.2 L-8015.22,55161.2 L-8204.45,55168.1 L-8204.48,55168.1 L-8382.73,55104.2 L-8382.75,55104.2 L-10105.2,54083.6 L-10105.3,54083.6 L-10253.9,53948.6 L-10253.9,53948.6 L-10337.5,53766.1 L-10337.5,53766.1 L-10342.6,53565.4 M-20820.1,15579 L-20820.1,15579 L-20797.5,13579.1 L-20797.5,13579.1 L-20757.6,13389 L-20757.6,13388.9 L-20648.3,13228.4 L-20648.3,13228.4 L-20486,13121.6 L-20486,13121.6 L-20295.3,13084.7 L-20295.3,13084.7 L-19295.3,13089.2 L-19295.3,13089.2 L-19103.3,13128.5 L-19103.3,13128.5 L-18941.2,13238.5 L-18941.2,13238.5 L-18833.8,13402.3 L-18833.8,13402.3 L-18797.6,13594.9 L-18797.6,13594.9 L-18820.2,15594.8 L-18820.2,15594.8 L-18860,15784.9 L-18860,15784.9 L-18969.4,15945.5 L-18969.4,15945.5 L-19131.6,16052.2 L-19131.7,16052.3 L-19322.4,16089.1 L-19322.4,16089.1 L-20322.4,16084.6 L-20322.4,16084.6 L-20514.3,16045.4 L-20514.4,16045.4 L-20676.5,15935.4 L-20676.5,15935.4 L-20783.9,15771.6 L-20783.9,15771.5 L-20820.1,15579 M-21175.5,34275.9 L-21175.5,34275.9 L-21134.9,32359.2 L-21134.9,32359.2 L-21102.9,32193.7 L-21102.9,32193.7 L-21017.8,32048.2 L-21017.8,32048.2 L-20889.2,31939.3 L-20889.2,31939.3 L-19876.3,31341.1 L-19876.3,31341.1 L-19676.1,31274.6 L-19676.1,31274.6 L-19466.3,31296.5 L-19466.3,31296.5 L-19284.3,31403 L-19284.2,31403 L-19162.3,31575.1 L-19162.3,31575.1 L-19122.2,31782.2 L-19122.2,31782.2 L-19156.6,33406.8 L-19156.6,33406.9 L-19055.2,33462.2 L-19055.2,33462.2 L-18896.6,33598.7 L-18896.6,33598.7 L-18807.7,33788.2 L-18807.7,33788.2 L-18804.2,33997.4 L-18804.2,33997.5 L-18886.6,34189.8 L-18886.6,34189.8 L-19040.5,34331.6 L-19040.6,34331.6 L-20043,34923.6 L-20043,34923.6 L-20203.3,34984.2 L-20203.3,34984.2 L-20374.6,34987.1 L-20374.7,34987.1 L-20536.9,34932 L-20536.9,34931.9 L-20915.2,34725.4 L-20915.2,34725.4 L-21055.8,34611.3 L-21055.8,34611.3 L-21146.5,34454.7 L-21146.5,34454.6 L-21175.5,34275.9 M-27164.6,44698 L-27164.6,44698 L-27108.7,43492.8 L-27108.7,43492.8 L-27039.4,43261.1 L-27039.4,43261.1 L-26869.5,43089 L-26869.5,43089 L-25935.9,42519.9 L-25935.9,42519.9 L-25766.8,42455.2 L-25766.8,42455.2 L-25585.8,42454.9 L-25585.7,42454.9 L-25416.5,42519.2 L-25416.5,42519.2 L-24351.5,43164.5 L-24351.5,43164.5 L-24218.3,43282.2 L-24218.3,43282.2 L-24134.7,43439.1 L-24134.6,43439.1 L-24111.2,43615.3 L-24111.2,43615.3 L-24163.9,44752.6 L-24163.9,44752.6 L-24215.4,44951.5 L-24215.4,44951.6 L-24342.5,45112.9 L-24342.5,45113 L-24523.8,45209.6 L-24523.8,45209.6 L-24728.6,45225.2 L-24728.7,45225.2 L-24922.5,45157.1 L-24922.5,45157.1 L-25673.2,44702.2 L-25673.4,44702.2 L-26404.9,45148.1 L-26404.9,45148.1 L-26572.3,45212.5 L-26572.3,45212.5 L-26751.7,45213.6 L-26751.7,45213.6 L-26920,45151.4 L-26920,45151.4 L-27055.4,45033.7 L-27055.4,45033.7 L-27140.6,44875.9 L-27140.6,44875.8 L-27164.6,44698 M-32403,33921 L-32403,33921 L-32399.4,33712.3 L-32399.4,33712.3 L-32311,33523.3 L-32310.9,33523.2 L-32196.7,33424.5 L-32196.6,33424.4 L-32239.9,31612.5 L-32239.9,31612.5 L-32200.1,31404.8 L-32200.1,31404.7 L-32078,31232.1 L-32078,31232 L-31895.4,31125.3 L-31895.4,31125.3 L-31685.1,31103.6 L-31685,31103.6 L-31484.5,31170.8 L-31484.5,31170.8 L-30469.8,31774.1 L-30469.8,31774.1 L-30342.2,31882.7 L-30342.1,31882.7 L-30257.5,32027.4 L-30257.5,32027.4 L-30225.5,32191.9 L-30225.5,32191.9 L-30175.8,34274.6 L-30175.8,34274.6 L-30204.3,34453.4 L-30204.3,34453.4 L-30294.6,34610.3 L-30294.6,34610.3 L-30434.9,34724.7 L-30434.9,34724.8 L-30674.1,34856.2 L-30674.2,34856.2 L-30837.2,34911.9 L-30837.2,34911.9 L-31009.4,34909 L-31009.4,34909 L-31170.4,34847.8 L-31170.5,34847.8 L-32167.8,34254.7 L-32167.8,34254.7 L-32321,34113 L-32321,34112.9 L-32403,33921 M-32403.9,15518.1 L-32403.9,15518.1 L-32346.6,13518.4 L-32346.6,13518.4 L-32304.3,13331 L-32304.3,13330.9 L-32194.5,13173.3 L-32194.5,13173.3 L-32033.3,13068.8 L-32033.3,13068.8 L-31844.6,13032.7 L-31844.6,13032.7 L-30844.3,13037.2 L-30844.3,13037.2 L-30650.4,13077.3 L-30650.3,13077.3 L-30487.2,13189.5 L-30487.2,13189.6 L-30380.4,13356.3 L-30380.4,13356.4 L-30346.8,13551.5 L-30346.7,13551.5 L-30404.1,15551.3 L-30404.1,15551.3 L-30446.4,15738.7 L-30446.4,15738.7 L-30556.2,15896.3 L-30556.2,15896.3 L-30717.4,16000.9 L-30717.4,16000.9 L-30906.1,16036.9 L-30906.1,16037 L-31906.4,16032.4 L-31906.4,16032.4 L-32100.3,15992.4 L-32100.4,15992.3 L-32263.5,15880.1 L-32263.5,15880.1 L-32370.3,15713.3 L-32370.3,15713.3 L-32403.9,15518.1 M-43789,53394.7 L-43789,53394.7 L-43776.1,53194.2 L-43776.1,53194.2 L-43685.3,53015 L-43685.3,53015 L-43531.3,52886 L-43531.3,52886 L-41769.3,51934.9 L-41769.3,51934.9 L-41588.8,51878.2 L-41588.7,51878.2 L-41400,51892.6 L-41400,51892.6 L-41230.2,51976.1 L-41230.2,51976.2 L-41103.6,52116.8 L-41103.6,52116.8 L-40586.8,52974.2 L-40586.7,52974.2 L-40519.7,53163.6 L-40519.7,53163.6 L-40532.6,53364.1 L-40532.7,53364.1 L-40623.4,53543.3 L-40623.5,53543.3 L-40777.5,53672.3 L-40777.5,53672.3 L-42539.4,54623.4 L-42539.5,54623.4 L-42720,54680.1 L-42720,54680.1 L-42908.7,54665.7 L-42908.7,54665.7 L-43078.5,54582.2 L-43078.6,54582.2 L-43205.2,54441.5 L-43205.2,54441.5 L-43722,53584.1 L-43722,53584.1 L-43789,53394.7 M-49756.2,43497 L-49756.2,43496.9 L-49744.7,43298.5 L-49744.7,43298.5 L-49656.8,43120.2 L-49656.8,43120.2 L-49506.3,42990.3 L-49506.3,42990.2 L-47762.3,42009.4 L-47762.3,42009.4 L-47580.6,41949.3 L-47580.6,41949.3 L-47389.6,41961.8 L-47389.6,41961.8 L-47217.4,42045.1 L-47217.3,42045.2 L-47089,42187.1 L-47089,42187.1 L-46572.5,43043.9 L-46572.5,43044 L-46505.8,43231.2 L-46505.8,43231.2 L-46517.3,43429.6 L-46517.3,43429.7 L-46605.2,43607.9 L-46605.2,43608 L-46755.6,43737.9 L-46755.6,43737.9 L-48499.7,44718.7 L-48499.7,44718.7 L-48681.3,44778.8 L-48681.4,44778.9 L-48872.3,44766.3 L-48872.4,44766.3 L-49044.6,44683 L-49044.6,44683 L-49173,44541 L-49173,44541 L-49689.5,43684.2 L-49689.5,43684.2 L-49756.2,43497"/>
</g>

<g fill="none" stroke="#000000" stroke-opacity="1" stroke-width="1" stroke-linecap="square" stroke-linejoin="bevel" transform="matrix(0.99999,0,0,-0.99999,73973.9,65982.1)"
font-family="MS Shell Dlg 2" font-size="10.3125" font-weight="400" font-style="normal" 
>
</g>

<g fill="none" stroke="#000000" stroke-opacity="1" stroke-width="1" stroke-linecap="square" stroke-linejoin="bevel" transform="matrix(1,0,0,-1,0,85040.8)"
font-family="MS Shell Dlg 2" font-size="10.3125" font-weight="400" font-style="normal" 
>
</g>
</g>
</svg>
