<?xml version="1.0" encoding="UTF-8" standalone="no"?>
<svg width="30874.3mm" height="27386.8mm"
 xmlns="http://www.w3.org/2000/svg" xmlns:xlink="http://www.w3.org/1999/xlink"  version="1.2" baseProfile="tiny">
<title>SVG Generator Example Drawing</title>
<desc>An SVG drawing created by the SVG Generator</desc>
<defs>
</defs>
<g fill="none" stroke="black" stroke-width="1" fill-rule="evenodd" stroke-linecap="square" stroke-linejoin="bevel" >

<g fill="none" stroke="#000000" stroke-opacity="1" stroke-width="1" stroke-linecap="square" stroke-linejoin="bevel" transform="matrix(1,0,0,-1,0,97040.9)"
font-family="MS Shell Dlg 2" font-size="10.3125" font-weight="400" font-style="normal" 
>
</g>

<g fill="none" stroke="#000000" stroke-opacity="1" stroke-width="1" stroke-linecap="square" stroke-linejoin="bevel" transform="matrix(1,0,0,-1,0,97040.9)"
font-family="MS Shell Dlg 2" font-size="10.3125" font-weight="400" font-style="normal" 
>
</g>

<g fill="none" stroke="#000000" stroke-opacity="1" stroke-width="1" stroke-linecap="square" stroke-linejoin="bevel" transform="matrix(0.999991,0,0,-0.999991,79974,71982.1)"
font-family="MS Shell Dlg 2" font-size="10.3125" font-weight="400" font-style="normal" 
>
</g>

<g fill="#333333" fill-opacity="0.2" stroke="#333333" stroke-opacity="1" stroke-width="1" stroke-linecap="round" stroke-linejoin="round" transform="matrix(0.999991,0,0,-0.999991,79974,71982.1)"
font-family="MS Shell Dlg 2" font-size="10.3125" font-weight="400" font-style="normal" 
>
<path vector-effect="non-scaling-stroke" fill-rule="evenodd" d="M-79974.2,-25058.6 L-79974.2,71981.3 L29422.2,71981.3 L29422.2,-25058.6 L-79974.2,-25058.6 M-20392.4,-1239.47 L-20391.8,-1199.45 L-20386.7,-820.368 L-20344.2,2276.39 L-16748.9,2233.07 L-16748.9,2233.08 L-16748.9,2233.08 L-16748.8,2233.09 L-16748.8,2233.09 L-16748.8,2233.11 L-16748.8,2233.12 L-16748.8,2233.13 L7146.29,46003.6 L7146.3,46003.6 L7146.3,46003.6 L7146.3,46003.6 L7146.3,46003.6 L7146.29,46003.7 L7146.29,46003.7 L7146.28,46003.7 L5134.35,48780.1 L9926.87,51154.2 L9937.03,51136.1 L9937.04,51136.1 L9937.04,51136 L9937.07,51136 L9937.07,51136 L9937.1,51136 L9937.11,51136 L9937.13,51136 L9937.19,51136 L9937.21,51136 L9937.22,51136 L9937.24,51136 L10285.5,51330.8 L10320.4,51350.3 L10668.7,51545.1 L10668.7,51545.1 L10668.7,51545.1 L10668.7,51545.1 L10668.8,51545.2 L10668.8,51545.2 L10668.8,51545.2 L10668.8,51545.2 L10668.8,51545.2 L10668.8,51545.3 L10668.8,51545.3 L10668.8,51545.3 L10661.7,51557.9 L16652.6,55187.6 L16652.6,55187.6 L16652.6,55187.6 L16652.6,55187.6 L23422.4,64597 L23422.4,64597 L23422.4,64597.1 L23422.4,64597.1 L23422.4,64597.1 L23422.4,64597.1 L23422.4,64597.1 L23422.4,64597.2 L23422.4,64597.2 L23422.4,64597.2 L23422.4,64597.2 L23422.3,64597.2 L23422.3,64597.2 L23422.3,64597.2 L11629.8,63233.7 L11629.8,63233.7 L11629.8,63233.7 L11629.8,63233.7 L5334.96,61083.1 L5297.65,61149.8 L5297.64,61149.8 L5297.64,61149.8 L5297.61,61149.8 L5297.61,61149.8 L5297.57,61149.8 L5297.57,61149.8 L5297.55,61149.8 L5297.49,61149.8 L5297.46,61149.8 L5297.46,61149.8 L5297.44,61149.8 L4949.18,60955.1 L4914.24,60935.5 L4583.35,60750.5 L-1197.29,57517.8 L-4019.64,61412.6 L-4019.66,61412.7 L-4019.66,61412.7 L-4019.71,61412.7 L-4019.71,61412.7 L-4019.73,61412.7 L-50470,61189.4 L-50470,61189.4 L-50470,61189.4 L-50470,61189.4 L-50470,61189.4 L-50470.1,61189.3 L-50470.1,61189.3 L-50470.1,61189.3 L-51901.9,58564.2 L-55584.7,61015.5 L-55574.1,61033.4 L-55574.1,61033.4 L-55574.1,61033.4 L-55574.1,61033.4 L-55574.1,61033.4 L-55574.1,61033.5 L-55574.1,61033.5 L-55574.1,61033.5 L-55574.1,61033.5 L-55574.1,61033.5 L-55574.1,61033.5 L-55574.1,61033.6 L-55916.9,61237.8 L-55951.3,61258.3 L-56294.1,61462.5 L-56294.1,61462.5 L-56294.1,61462.5 L-56294.2,61462.5 L-56294.2,61462.5 L-56294.3,61462.5 L-56294.3,61462.5 L-56294.3,61462.5 L-56294.3,61462.5 L-56294.3,61462.5 L-56294.3,61462.5 L-56294.3,61462.5 L-56301.7,61450 L-62440.5,64823.4 L-62440.6,64823.4 L-62440.6,64823.4 L-62440.6,64823.4 L-73974.3,65981.5 L-73974.3,65981.5 L-73974.3,65981.5 L-73974.4,65981.5 L-73974.4,65981.5 L-73974.4,65981.5 L-73974.4,65981.5 L-73974.4,65981.5 L-73974.4,65981.5 L-73974.4,65981.4 L-73974.4,65981.4 L-73974.4,65981.4 L-73974.4,65981.4 L-73974.4,65981.4 L-66897.4,56450.5 L-66897.4,56450.5 L-66897.4,56450.5 L-66897.4,56450.5 L-61887.4,52074.3 L-61926.5,52008.7 L-61926.5,52008.7 L-61926.5,52008.7 L-61926.5,52008.6 L-61926.5,52008.6 L-61926.5,52008.6 L-61926.5,52008.6 L-61926.5,52008.6 L-61926.5,52008.5 L-61926.5,52008.5 L-61926.5,52008.5 L-61926.5,52008.5 L-61583.7,51804.2 L-61549.3,51783.8 L-61223.6,51589.7 L-57059.4,49108.9 L-59849.4,43993.8 L-59849.5,43993.8 L-59849.5,43993.8 L-59849.5,43993.7 L-59849.5,43993.7 L-59849.5,43993.7 L-59849.5,43993.7 L-59849.4,43993.7 L-35284.4,2456.45 L-35284.4,2456.43 L-35284.4,2456.43 L-35284.4,2456.41 L-35284.4,2456.41 L-35284.3,2456.4 L-35284.3,2456.39 L-35284.3,2456.39 L-31174.2,2406.87 L-31369,-649.857 L-31389.8,-649.572 L-31389.9,-649.573 L-31389.9,-649.574 L-31389.9,-649.586 L-31389.9,-649.587 L-31389.9,-649.61 L-31389.9,-649.613 L-31389.9,-649.627 L-31390,-649.683 L-31390,-649.707 L-31390,-649.711 L-31390,-649.736 L-31395.4,-1048.71 L-31396,-1088.74 L-31401.5,-1487.71 L-31401.5,-1487.74 L-31401.5,-1487.74 L-31401.4,-1487.77 L-31401.4,-1487.82 L-31401.4,-1487.84 L-31401.4,-1487.84 L-31401.4,-1487.86 L-31401.4,-1487.87 L-31401.3,-1487.88 L-31401.3,-1487.88 L-31401.3,-1487.88 L-31386.9,-1488.08 L-31238.9,-8491.14 L-31238.9,-8491.16 L-31238.9,-8491.17 L-31238.9,-8491.19 L-26475,-19058.7 L-26475,-19058.7 L-26475,-19058.7 L-26474.9,-19058.8 L-26474.9,-19058.8 L-26474.9,-19058.8 L-26474.9,-19058.8 L-26474.9,-19058.8 L-26474.9,-19058.8 L-26474.8,-19058.8 L-26474.8,-19058.8 L-26474.8,-19058.7 L-26474.8,-19058.7 L-26474.8,-19058.7 L-21759.3,-8164.42 L-21759.3,-8164.41 L-21759.3,-8164.41 L-21759.3,-8164.4 L-20474.4,-1637.57 L-20398,-1638.61 L-20398,-1638.61 L-20398,-1638.61 L-20398,-1638.6 L-20397.9,-1638.6 L-20397.9,-1638.57 L-20397.9,-1638.57 L-20397.9,-1638.56 L-20397.9,-1638.5 L-20397.9,-1638.48 L-20397.9,-1638.47 L-20397.9,-1638.45 L-20392.4,-1239.47 M19826.3,-13047 L19826.3,-13047 L19826.3,-13046.9 L19826.2,-13046.9 L19826.2,-13046.9 L19826.1,-13046.9 L18813.9,-13398.1 L18813.9,-13398.1 L18813.9,-13398.2 L18777.2,-13456.8 L18777.2,-13456.8 L18777.2,-13456.9 L18789.2,-13533.8 L18789.2,-13533.9 L18789.3,-13533.9 L18854.4,-13584.1 L18854.4,-13584.1 L18854.5,-13584.1 L18917.9,-13577.7 L18917.9,-13577.7 L18950.7,-13567.1 L18950.7,-13567.1 L19624.4,-13339.1 L19683.4,-15993.6 L18885.5,-16020.9 L18885.4,-16020.9 L18885.4,-16020.9 L18833.1,-16085.3 L18833.1,-16085.3 L18833.1,-16085.3 L18845.8,-16171 L18845.8,-16171 L18845.8,-16171 L18925.3,-16218.8 L18925.4,-16218.8 L18974.9,-16217.7 L18974.9,-16217.7 L20694.2,-16169.6 L20694.3,-16169.6 L20694.3,-16169.6 L20746.5,-16104 L20746.6,-16103.9 L20746.6,-16103.9 L20733.9,-16017.9 L20733.9,-16017.8 L20733.9,-16017.8 L20654.4,-15972.1 L20654.3,-15972.1 L20604.8,-15973.2 L19891.7,-15989 L19826.3,-13047 M17664.8,-14435.5 L17664.8,-14435.5 L17638.7,-14077.6 L17638.7,-14077.6 L17526.9,-13729.1 L17526.9,-13729.1 L17354.5,-13403.4 L17354.4,-13403.3 L17132.6,-13196.4 L17132.6,-13196.4 L16799.7,-13082 L16799.6,-13082 L16213.3,-13197.4 L16213.3,-13197.4 L16213.3,-13197.5 L15745.3,-14028.8 L15745.3,-14028.9 L15755.2,-14477.9 L15755.2,-14477.9 L15793.6,-15348.4 L15793.6,-15348.5 L15905,-15699.5 L15905,-15699.5 L16078.7,-16024.3 L16078.7,-16024.4 L16299.2,-16229.7 L16299.3,-16229.7 L16633.4,-16344.1 L16633.5,-16344.1 L17218.1,-16228.7 L17218.2,-16228.7 L17218.2,-16228.6 L17686.2,-15398.1 L17686.2,-15398 L17676.3,-14950.6 L17664.8,-14435.5 M10367.5,-14263.2 L10367.5,-14263.1 L10367.5,-14263.1 L10367.5,-14263.1 L10367.4,-14263.1 L9688.67,-14288.1 L9688.63,-14288.1 L9688.59,-14288.1 L9638.43,-14353.6 L9638.41,-14353.7 L9638.41,-14353.7 L9651.07,-14440.2 L9651.08,-14440.2 L9651.11,-14440.2 L9730.64,-14488 L9730.69,-14488 L9780.22,-14486.9 L10164,-14478.4 L10202.5,-16211.8 L9612.99,-16234.4 L9612.95,-16234.4 L9612.91,-16234.4 L9562.69,-16297.1 L9562.67,-16297.1 L9562.66,-16297.1 L9575.22,-16379 L9575.24,-16379.1 L9575.27,-16379.1 L9654.75,-16424.8 L9654.8,-16424.8 L9704.33,-16423.7 L9704.33,-16423.7 L11423.6,-16375.6 L11423.7,-16375.6 L11423.7,-16375.6 L11475.9,-16310 L11476,-16310 L11476,-16309.9 L11463.3,-16223.9 L11463.3,-16223.9 L11463.3,-16223.8 L11383,-16178.1 L11382.9,-16178.1 L11331.7,-16179.2 L10410.6,-16199.7 L10912,-14588.9 L11273.2,-14399.2 L11447.6,-14406.1 L11585.6,-14485.6 L11698.6,-14590.9 L11698.6,-14590.9 L11736.1,-14604.5 L11736.1,-14604.5 L11809.8,-14592.6 L11809.8,-14592.5 L11809.9,-14592.5 L11860,-14524.1 L11860,-14524.1 L11860,-14524 L11860,-14524 L11803.7,-14387.7 L11803.6,-14387.7 L11803.6,-14387.7 L11470.9,-14186.5 L11470.8,-14186.5 L11470.8,-14186.5 L11109.6,-14229.7 L11109.5,-14229.7 L10644.4,-14537.7 L10644.4,-14537.8 L10379.2,-14788 L10367.5,-14263.2 M8723.69,-15422.2 L8723.73,-15422.2 L8723.76,-15422.2 L8723.78,-15422.1 L8723.78,-15422.1 L8604.7,-14783.4 L8604.69,-14783.4 L8604.66,-14783.4 L7873.31,-14244.2 L7873.27,-14244.2 L7873.24,-14244.2 L6928.37,-14373.4 L6928.33,-14373.4 L6928.31,-14373.4 L6384.4,-15077.6 L6384.38,-15077.6 L6384.38,-15077.7 L6524.03,-15991.8 L6524.05,-15991.8 L6524.08,-15991.8 L7311.79,-16558.6 L7311.82,-16558.7 L7311.86,-16558.7 L8088.27,-16505.5 L8088.31,-16505.5 L8628.65,-16272.5 L8628.68,-16272.5 L8744.53,-16133.7 L8744.55,-16133.6 L8744.55,-16133.6 L8732.86,-16053.3 L8732.84,-16053.3 L8732.82,-16053.3 L8668.93,-16003.1 L8668.9,-16003 L8668.85,-16003 L8592.36,-16017.1 L8592.32,-16017.1 L8318.89,-16199.9 L7819.03,-16339.1 L7149.02,-16271.8 L6646.18,-15737.5 L6603.9,-15469.3 L8723.69,-15422.2 M4591.2,-16537.3 L4241.35,-17293.2 L3505.27,-17319.1 L3505.23,-17319.1 L3505.19,-17319.1 L3452.94,-17383.4 L3452.92,-17383.5 L3452.92,-17383.5 L3465.6,-17471.2 L3465.62,-17471.2 L3465.65,-17471.3 L3545.13,-17517 L3545.18,-17517 L3594.71,-17515.9 L3594.71,-17515.9 L4878.15,-17477.5 L4878.2,-17477.5 L4878.23,-17477.4 L4930.46,-17411.9 L4930.47,-17411.8 L4930.48,-17411.8 L4917.83,-17325.8 L4917.81,-17325.7 L4917.78,-17325.7 L4838.3,-17280 L4838.25,-17279.9 L4788.72,-17281 L4464.46,-17288.3 L5844.39,-14571.5 L5891.72,-14546.9 L5891.76,-14546.9 L5923.53,-14490 L5923.54,-14490 L5923.54,-14489.9 L5911.07,-14411.7 L5911.05,-14411.7 L5911.02,-14411.7 L5830.67,-14363.9 L5830.62,-14363.9 L5779.44,-14365 L5779.44,-14365 L5127.51,-14389.4 L5127.46,-14389.4 L5127.43,-14389.5 L5075.2,-14455 L5075.19,-14455.1 L5075.18,-14455.1 L5087.84,-14541.6 L5087.86,-14541.6 L5087.89,-14541.6 L5167.41,-14589.4 L5167.47,-14589.4 L5217,-14588.3 L5496.68,-14582.1 L4697.69,-16306.7 L3810.49,-14619.6 L4174.99,-14601.6 L4175.03,-14601.6 L4175.06,-14601.5 L4227.29,-14536 L4227.31,-14535.9 L4227.31,-14535.9 L4214.65,-14449.4 L4214.64,-14449.4 L4214.61,-14449.4 L4135.08,-14401.6 L4135.03,-14401.6 L4085.5,-14402.7 L4085.5,-14402.7 L3452.83,-14420.5 L3452.78,-14420.5 L3404.68,-14448.8 L3404.66,-14448.8 L3404.64,-14448.8 L3379.01,-14503.5 L3379.01,-14503.5 L3379.01,-14503.6 L3391.43,-14579.3 L3391.44,-14579.3 L3391.47,-14579.3 L3471,-14627.1 L3471.05,-14627.1 L3520.58,-14626 L3582.43,-14624.7 L4591.2,-16537.3 M2132.53,-16591.9 L2132.54,-16591.9 L2132.56,-16592 L2132.6,-16592 L2132.64,-16592 L2707.79,-16569.3 L2707.83,-16569.3 L2707.87,-16569.3 L2760.09,-16503.7 L2760.11,-16503.6 L2760.11,-16503.6 L2747.47,-16417.6 L2747.45,-16417.5 L2747.42,-16417.5 L2667.11,-16371.8 L2667.06,-16371.8 L2615.88,-16372.9 L2338.61,-16379.1 L2227.65,-14693.9 L2227.64,-14693.8 L2227.61,-14693.8 L1721.8,-14380.9 L1721.77,-14380.9 L1721.74,-14380.9 L1133.1,-14428.6 L1133.08,-14428.6 L622.035,-14586.2 L622.006,-14586.2 L621.983,-14586.2 L575.517,-14650.9 L575.501,-14650.9 L575.499,-14650.9 L586.827,-14733.3 L586.839,-14733.3 L586.864,-14733.3 L648.639,-14781.5 L648.675,-14781.5 L648.714,-14781.5 L723.652,-14771.6 L723.667,-14771.6 L1292.22,-14601.2 L1824.73,-14631.5 L2094.78,-14893 L2097.31,-15006.9 L1852.05,-15303.4 L1522.86,-15279.8 L1522.84,-15279.8 L803.847,-15370.9 L803.814,-15370.9 L803.786,-15370.9 L352.087,-15857.5 L352.065,-15857.6 L352.062,-15857.6 L434.218,-16395.5 L434.233,-16395.5 L434.264,-16395.6 L916.772,-16700.8 L916.805,-16700.8 L916.841,-16700.8 L1829.5,-16553.3 L1829.55,-16553.3 L2125.88,-16292.5 L2132.53,-16591.9 M-1928.59,-13991.4 L-1348.57,-13969 L-1348.53,-13969 L-1348.49,-13969 L-1296.24,-13904.6 L-1296.22,-13904.6 L-1296.22,-13904.6 L-1308.9,-13816.9 L-1308.92,-13816.9 L-1308.95,-13816.8 L-1388.43,-13771.1 L-1388.48,-13771.1 L-1438.01,-13772.2 L-1438.01,-13772.2 L-2723.94,-13810.3 L-2723.98,-13810.3 L-2724.02,-13810.3 L-2776.27,-13874.6 L-2776.29,-13874.7 L-2776.29,-13874.7 L-2763.61,-13962.4 L-2763.59,-13962.4 L-2763.56,-13962.5 L-2684.08,-14008.2 L-2684.03,-14008.2 L-2634.5,-14007.1 L-2139.29,-13996.1 L-2084.15,-16477.4 L-2664.18,-16499.8 L-2664.22,-16499.8 L-2664.25,-16499.8 L-2716.5,-16564.1 L-2716.52,-16564.2 L-2716.52,-16564.2 L-2703.89,-16649.8 L-2703.87,-16649.9 L-2703.84,-16649.9 L-2624.31,-16697.7 L-2624.26,-16697.7 L-2574.73,-16696.6 L-276.52,-16645.5 L-276.482,-16645.5 L-276.45,-16645.5 L-276.429,-16645.5 L-276.423,-16645.4 L-311.268,-15523.4 L-311.279,-15523.3 L-311.307,-15523.3 L-376.843,-15473.1 L-376.879,-15473.1 L-376.919,-15473.1 L-463.358,-15485.8 L-463.399,-15485.8 L-463.43,-15485.8 L-511.217,-15565.3 L-511.232,-15565.4 L-510.131,-15614.9 L-491.752,-16442 L-1873.45,-16472.7 L-1928.59,-13991.4"/>
</g>

<g fill="none" stroke="#000000" stroke-opacity="1" stroke-width="1" stroke-linecap="square" stroke-linejoin="bevel" transform="matrix(0.999991,0,0,-0.999991,79974,71982.1)"
font-family="MS Shell Dlg 2" font-size="10.3125" font-weight="400" font-style="normal" 
>
</g>

<g fill="none" stroke="#000000" stroke-opacity="1" stroke-width="1" stroke-linecap="square" stroke-linejoin="bevel" transform="matrix(0.999991,0,0,-0.999991,79974,71982.1)"
font-family="MS Shell Dlg 2" font-size="10.3125" font-weight="400" font-style="normal" 
>
</g>

<g fill="#ae5151" fill-opacity="0.2" stroke="#333333" stroke-opacity="1" stroke-width="1" stroke-linecap="round" stroke-linejoin="round" transform="matrix(0.999991,0,0,-0.999991,79974,71982.1)"
font-family="MS Shell Dlg 2" font-size="10.3125" font-weight="400" font-style="normal" 
>
<path vector-effect="non-scaling-stroke" fill-rule="evenodd" d="M-79974.2,-25058.6 L-79974.2,71981.3 L29422.2,71981.3 L29422.2,-25058.6 L-79974.2,-25058.6 M-20392.4,-1239.47 L-20391.8,-1199.45 L-20386.7,-820.368 L-20344.2,2276.39 L-16748.9,2233.07 L-16748.9,2233.08 L-16748.9,2233.08 L-16748.8,2233.09 L-16748.8,2233.09 L-16748.8,2233.11 L-16748.8,2233.12 L-16748.8,2233.13 L7146.29,46003.6 L7146.3,46003.6 L7146.3,46003.6 L7146.3,46003.6 L7146.3,46003.6 L7146.29,46003.7 L7146.29,46003.7 L7146.28,46003.7 L5134.35,48780.1 L9926.87,51154.2 L9937.03,51136.1 L9937.04,51136.1 L9937.04,51136 L9937.07,51136 L9937.07,51136 L9937.1,51136 L9937.11,51136 L9937.13,51136 L9937.19,51136 L9937.21,51136 L9937.22,51136 L9937.24,51136 L10285.5,51330.8 L10320.4,51350.3 L10668.7,51545.1 L10668.7,51545.1 L10668.7,51545.1 L10668.7,51545.1 L10668.8,51545.2 L10668.8,51545.2 L10668.8,51545.2 L10668.8,51545.2 L10668.8,51545.2 L10668.8,51545.3 L10668.8,51545.3 L10668.8,51545.3 L10661.7,51557.9 L16652.6,55187.6 L16652.6,55187.6 L16652.6,55187.6 L16652.6,55187.6 L23422.4,64597 L23422.4,64597 L23422.4,64597.1 L23422.4,64597.1 L23422.4,64597.1 L23422.4,64597.1 L23422.4,64597.1 L23422.4,64597.2 L23422.4,64597.2 L23422.4,64597.2 L23422.4,64597.2 L23422.3,64597.2 L23422.3,64597.2 L23422.3,64597.2 L11629.8,63233.7 L11629.8,63233.7 L11629.8,63233.7 L11629.8,63233.7 L5334.96,61083.1 L5297.65,61149.8 L5297.64,61149.8 L5297.64,61149.8 L5297.61,61149.8 L5297.61,61149.8 L5297.57,61149.8 L5297.57,61149.8 L5297.55,61149.8 L5297.49,61149.8 L5297.46,61149.8 L5297.46,61149.8 L5297.44,61149.8 L4949.18,60955.1 L4914.24,60935.5 L4583.35,60750.5 L-1197.29,57517.8 L-4019.64,61412.6 L-4019.66,61412.7 L-4019.66,61412.7 L-4019.71,61412.7 L-4019.71,61412.7 L-4019.73,61412.7 L-50470,61189.4 L-50470,61189.4 L-50470,61189.4 L-50470,61189.4 L-50470,61189.4 L-50470.1,61189.3 L-50470.1,61189.3 L-50470.1,61189.3 L-51901.9,58564.2 L-55584.7,61015.5 L-55574.1,61033.4 L-55574.1,61033.4 L-55574.1,61033.4 L-55574.1,61033.4 L-55574.1,61033.4 L-55574.1,61033.5 L-55574.1,61033.5 L-55574.1,61033.5 L-55574.1,61033.5 L-55574.1,61033.5 L-55574.1,61033.5 L-55574.1,61033.6 L-55916.9,61237.8 L-55951.3,61258.3 L-56294.1,61462.5 L-56294.1,61462.5 L-56294.1,61462.5 L-56294.2,61462.5 L-56294.2,61462.5 L-56294.3,61462.5 L-56294.3,61462.5 L-56294.3,61462.5 L-56294.3,61462.5 L-56294.3,61462.5 L-56294.3,61462.5 L-56294.3,61462.5 L-56301.7,61450 L-62440.5,64823.4 L-62440.6,64823.4 L-62440.6,64823.4 L-62440.6,64823.4 L-73974.3,65981.5 L-73974.3,65981.5 L-73974.3,65981.5 L-73974.4,65981.5 L-73974.4,65981.5 L-73974.4,65981.5 L-73974.4,65981.5 L-73974.4,65981.5 L-73974.4,65981.5 L-73974.4,65981.4 L-73974.4,65981.4 L-73974.4,65981.4 L-73974.4,65981.4 L-73974.4,65981.4 L-66897.4,56450.5 L-66897.4,56450.5 L-66897.4,56450.5 L-66897.4,56450.5 L-61887.4,52074.3 L-61926.5,52008.7 L-61926.5,52008.7 L-61926.5,52008.7 L-61926.5,52008.6 L-61926.5,52008.6 L-61926.5,52008.6 L-61926.5,52008.6 L-61926.5,52008.6 L-61926.5,52008.5 L-61926.5,52008.5 L-61926.5,52008.5 L-61926.5,52008.5 L-61583.7,51804.2 L-61549.3,51783.8 L-61223.6,51589.7 L-57059.4,49108.9 L-59849.4,43993.8 L-59849.5,43993.8 L-59849.5,43993.8 L-59849.5,43993.7 L-59849.5,43993.7 L-59849.5,43993.7 L-59849.5,43993.7 L-59849.4,43993.7 L-35284.4,2456.45 L-35284.4,2456.43 L-35284.4,2456.43 L-35284.4,2456.41 L-35284.4,2456.41 L-35284.3,2456.4 L-35284.3,2456.39 L-35284.3,2456.39 L-31174.2,2406.87 L-31369,-649.857 L-31389.8,-649.572 L-31389.9,-649.573 L-31389.9,-649.574 L-31389.9,-649.586 L-31389.9,-649.587 L-31389.9,-649.61 L-31389.9,-649.613 L-31389.9,-649.627 L-31390,-649.683 L-31390,-649.707 L-31390,-649.711 L-31390,-649.736 L-31395.4,-1048.71 L-31396,-1088.74 L-31401.5,-1487.71 L-31401.5,-1487.74 L-31401.5,-1487.74 L-31401.4,-1487.77 L-31401.4,-1487.82 L-31401.4,-1487.84 L-31401.4,-1487.84 L-31401.4,-1487.86 L-31401.4,-1487.87 L-31401.3,-1487.88 L-31401.3,-1487.88 L-31401.3,-1487.88 L-31386.9,-1488.08 L-31238.9,-8491.14 L-31238.9,-8491.16 L-31238.9,-8491.17 L-31238.9,-8491.19 L-26475,-19058.7 L-26475,-19058.7 L-26475,-19058.7 L-26474.9,-19058.8 L-26474.9,-19058.8 L-26474.9,-19058.8 L-26474.9,-19058.8 L-26474.9,-19058.8 L-26474.9,-19058.8 L-26474.8,-19058.8 L-26474.8,-19058.8 L-26474.8,-19058.7 L-26474.8,-19058.7 L-26474.8,-19058.7 L-21759.3,-8164.42 L-21759.3,-8164.41 L-21759.3,-8164.41 L-21759.3,-8164.4 L-20474.4,-1637.57 L-20398,-1638.61 L-20398,-1638.61 L-20398,-1638.61 L-20398,-1638.6 L-20397.9,-1638.6 L-20397.9,-1638.57 L-20397.9,-1638.57 L-20397.9,-1638.56 L-20397.9,-1638.5 L-20397.9,-1638.48 L-20397.9,-1638.47 L-20397.9,-1638.45 L-20392.4,-1239.47 M18893.8,-16011.2 L19584,-15341.1 L19584,-15341.1 L20384.4,-14506.1 L20384.4,-14506 L20581.7,-14224.1 L20581.7,-14224.1 L20654.6,-13974.3 L20654.6,-13974.3 L20549.6,-13448.8 L20549.6,-13448.8 L20549.6,-13448.8 L19943.6,-13012.1 L19943.5,-13012.1 L19943.5,-13012.1 L19368.6,-13063.7 L19368.5,-13063.7 L18949.2,-13334.8 L18949.2,-13334.9 L18740.9,-13717.8 L18740.9,-13717.8 L18740.9,-13717.8 L18753.2,-13846 L18753.2,-13846 L18753.3,-13846.1 L18815.8,-13892.2 L18815.8,-13892.2 L18815.9,-13892.2 L18893.3,-13882.2 L18893.3,-13882.2 L18893.4,-13882.2 L18939.2,-13827.5 L18939.2,-13827.4 L19074.1,-13502.4 L19509.9,-13232.5 L20069.4,-13288.7 L20438,-13712.4 L20432.1,-14022.6 L20338,-14230.7 L20078.2,-14542.9 L19102.4,-15527.6 L18688.2,-15916.7 L18688.2,-15916.7 L18688.1,-15916.8 L18695,-16223.8 L18695,-16223.9 L18695,-16223.9 L18695,-16223.9 L18695.1,-16223.9 L20706,-16179.3 L20706,-16179.2 L20706.1,-16179.2 L20706.1,-16179.2 L20706.1,-16179.1 L20687.9,-15804.6 L20687.9,-15804.5 L20687.8,-15804.5 L20622.3,-15752.3 L20622.2,-15752.3 L20622.2,-15752.3 L20535.7,-15764.9 L20535.7,-15764.9 L20535.7,-15765 L20487.9,-15844.5 L20487.9,-15844.6 L20489,-15894.1 L20490.8,-15975.7 L18893.8,-16011.2 M17664.8,-14435.5 L17664.8,-14435.5 L17638.7,-14077.6 L17638.7,-14077.6 L17526.9,-13729.1 L17526.9,-13729.1 L17354.5,-13403.4 L17354.4,-13403.3 L17132.6,-13196.4 L17132.6,-13196.4 L16799.7,-13082 L16799.6,-13082 L16213.3,-13197.4 L16213.3,-13197.4 L16213.3,-13197.5 L15745.3,-14028.8 L15745.3,-14028.9 L15755.2,-14477.9 L15755.2,-14477.9 L15793.6,-15348.4 L15793.6,-15348.5 L15905,-15699.5 L15905,-15699.5 L16078.7,-16024.3 L16078.7,-16024.4 L16299.2,-16229.7 L16299.3,-16229.7 L16633.4,-16344.1 L16633.5,-16344.1 L17218.1,-16228.7 L17218.2,-16228.7 L17218.2,-16228.6 L17686.2,-15398.1 L17686.2,-15398 L17676.3,-14950.6 L17664.8,-14435.5 M10367.5,-14263.2 L10367.5,-14263.1 L10367.5,-14263.1 L10367.5,-14263.1 L10367.4,-14263.1 L9688.67,-14288.1 L9688.63,-14288.1 L9688.59,-14288.1 L9638.43,-14353.6 L9638.41,-14353.7 L9638.41,-14353.7 L9651.07,-14440.2 L9651.08,-14440.2 L9651.11,-14440.2 L9730.64,-14488 L9730.69,-14488 L9780.22,-14486.9 L10164,-14478.4 L10202.5,-16211.8 L9612.99,-16234.4 L9612.95,-16234.4 L9612.91,-16234.4 L9562.69,-16297.1 L9562.67,-16297.1 L9562.66,-16297.1 L9575.22,-16379 L9575.24,-16379.1 L9575.27,-16379.1 L9654.75,-16424.8 L9654.8,-16424.8 L9704.33,-16423.7 L9704.33,-16423.7 L11423.6,-16375.6 L11423.7,-16375.6 L11423.7,-16375.6 L11475.9,-16310 L11476,-16310 L11476,-16309.9 L11463.3,-16223.9 L11463.3,-16223.9 L11463.3,-16223.8 L11383,-16178.1 L11382.9,-16178.1 L11331.7,-16179.2 L10410.6,-16199.7 L10912,-14588.9 L11273.2,-14399.2 L11447.6,-14406.1 L11585.6,-14485.6 L11698.6,-14590.9 L11698.6,-14590.9 L11736.1,-14604.5 L11736.1,-14604.5 L11809.8,-14592.6 L11809.8,-14592.5 L11809.9,-14592.5 L11860,-14524.1 L11860,-14524.1 L11860,-14524 L11860,-14524 L11803.7,-14387.7 L11803.6,-14387.7 L11803.6,-14387.7 L11470.9,-14186.5 L11470.8,-14186.5 L11470.8,-14186.5 L11109.6,-14229.7 L11109.5,-14229.7 L10644.4,-14537.7 L10644.4,-14537.8 L10379.2,-14788 L10367.5,-14263.2 M8723.69,-15422.2 L8723.73,-15422.2 L8723.76,-15422.2 L8723.78,-15422.1 L8723.78,-15422.1 L8604.7,-14783.4 L8604.69,-14783.4 L8604.66,-14783.4 L7873.31,-14244.2 L7873.27,-14244.2 L7873.24,-14244.2 L6928.37,-14373.4 L6928.33,-14373.4 L6928.31,-14373.4 L6384.4,-15077.6 L6384.38,-15077.6 L6384.38,-15077.7 L6524.03,-15991.8 L6524.05,-15991.8 L6524.08,-15991.8 L7311.79,-16558.6 L7311.82,-16558.7 L7311.86,-16558.7 L8088.27,-16505.5 L8088.31,-16505.5 L8628.65,-16272.5 L8628.68,-16272.5 L8744.53,-16133.7 L8744.55,-16133.6 L8744.55,-16133.6 L8732.86,-16053.3 L8732.84,-16053.3 L8732.82,-16053.3 L8668.93,-16003.1 L8668.9,-16003 L8668.85,-16003 L8592.36,-16017.1 L8592.32,-16017.1 L8318.89,-16199.9 L7819.03,-16339.1 L7149.02,-16271.8 L6646.18,-15737.5 L6603.9,-15469.3 L8723.69,-15422.2 M4591.2,-16537.3 L4241.35,-17293.2 L3505.27,-17319.1 L3505.23,-17319.1 L3505.19,-17319.1 L3452.94,-17383.4 L3452.92,-17383.5 L3452.92,-17383.5 L3465.6,-17471.2 L3465.62,-17471.2 L3465.65,-17471.3 L3545.13,-17517 L3545.18,-17517 L3594.71,-17515.9 L3594.71,-17515.9 L4878.15,-17477.5 L4878.2,-17477.5 L4878.23,-17477.4 L4930.46,-17411.9 L4930.47,-17411.8 L4930.48,-17411.8 L4917.83,-17325.8 L4917.81,-17325.7 L4917.78,-17325.7 L4838.3,-17280 L4838.25,-17279.9 L4788.72,-17281 L4464.46,-17288.3 L5844.39,-14571.5 L5891.72,-14546.9 L5891.76,-14546.9 L5923.53,-14490 L5923.54,-14490 L5923.54,-14489.9 L5911.07,-14411.7 L5911.05,-14411.7 L5911.02,-14411.7 L5830.67,-14363.9 L5830.62,-14363.9 L5779.44,-14365 L5779.44,-14365 L5127.51,-14389.4 L5127.46,-14389.4 L5127.43,-14389.5 L5075.2,-14455 L5075.19,-14455.1 L5075.18,-14455.1 L5087.84,-14541.6 L5087.86,-14541.6 L5087.89,-14541.6 L5167.41,-14589.4 L5167.47,-14589.4 L5217,-14588.3 L5496.68,-14582.1 L4697.69,-16306.7 L3810.49,-14619.6 L4174.99,-14601.6 L4175.03,-14601.6 L4175.06,-14601.5 L4227.29,-14536 L4227.31,-14535.9 L4227.31,-14535.9 L4214.65,-14449.4 L4214.64,-14449.4 L4214.61,-14449.4 L4135.08,-14401.6 L4135.03,-14401.6 L4085.5,-14402.7 L4085.5,-14402.7 L3452.83,-14420.5 L3452.78,-14420.5 L3404.68,-14448.8 L3404.66,-14448.8 L3404.64,-14448.8 L3379.01,-14503.5 L3379.01,-14503.5 L3379.01,-14503.6 L3391.43,-14579.3 L3391.44,-14579.3 L3391.47,-14579.3 L3471,-14627.1 L3471.05,-14627.1 L3520.58,-14626 L3582.43,-14624.7 L4591.2,-16537.3 M2132.53,-16591.9 L2132.54,-16591.9 L2132.56,-16592 L2132.6,-16592 L2132.64,-16592 L2707.79,-16569.3 L2707.83,-16569.3 L2707.87,-16569.3 L2760.09,-16503.7 L2760.11,-16503.6 L2760.11,-16503.6 L2747.47,-16417.6 L2747.45,-16417.5 L2747.42,-16417.5 L2667.11,-16371.8 L2667.06,-16371.8 L2615.88,-16372.9 L2338.61,-16379.1 L2227.65,-14693.9 L2227.64,-14693.8 L2227.61,-14693.8 L1721.8,-14380.9 L1721.77,-14380.9 L1721.74,-14380.9 L1133.1,-14428.6 L1133.08,-14428.6 L622.035,-14586.2 L622.006,-14586.2 L621.983,-14586.2 L575.517,-14650.9 L575.501,-14650.9 L575.499,-14650.9 L586.827,-14733.3 L586.839,-14733.3 L586.864,-14733.3 L648.639,-14781.5 L648.675,-14781.5 L648.714,-14781.5 L723.652,-14771.6 L723.667,-14771.6 L1292.22,-14601.2 L1824.73,-14631.5 L2094.78,-14893 L2097.31,-15006.9 L1852.05,-15303.4 L1522.86,-15279.8 L1522.84,-15279.8 L803.847,-15370.9 L803.814,-15370.9 L803.786,-15370.9 L352.087,-15857.5 L352.065,-15857.6 L352.062,-15857.6 L434.218,-16395.5 L434.233,-16395.5 L434.264,-16395.6 L916.772,-16700.8 L916.805,-16700.8 L916.841,-16700.8 L1829.5,-16553.3 L1829.55,-16553.3 L2125.88,-16292.5 L2132.53,-16591.9 M-1928.59,-13991.4 L-1348.57,-13969 L-1348.53,-13969 L-1348.49,-13969 L-1296.24,-13904.6 L-1296.22,-13904.6 L-1296.22,-13904.6 L-1308.9,-13816.9 L-1308.92,-13816.9 L-1308.95,-13816.8 L-1388.43,-13771.1 L-1388.48,-13771.1 L-1438.01,-13772.2 L-1438.01,-13772.2 L-2723.94,-13810.3 L-2723.98,-13810.3 L-2724.02,-13810.3 L-2776.27,-13874.6 L-2776.29,-13874.7 L-2776.29,-13874.7 L-2763.61,-13962.4 L-2763.59,-13962.4 L-2763.56,-13962.5 L-2684.08,-14008.2 L-2684.03,-14008.2 L-2634.5,-14007.1 L-2139.29,-13996.1 L-2084.15,-16477.4 L-2664.18,-16499.8 L-2664.22,-16499.8 L-2664.25,-16499.8 L-2716.5,-16564.1 L-2716.52,-16564.2 L-2716.52,-16564.2 L-2703.89,-16649.8 L-2703.87,-16649.9 L-2703.84,-16649.9 L-2624.31,-16697.7 L-2624.26,-16697.7 L-2574.73,-16696.6 L-276.52,-16645.5 L-276.482,-16645.5 L-276.45,-16645.5 L-276.429,-16645.5 L-276.423,-16645.4 L-311.268,-15523.4 L-311.279,-15523.3 L-311.307,-15523.3 L-376.843,-15473.1 L-376.879,-15473.1 L-376.919,-15473.1 L-463.358,-15485.8 L-463.399,-15485.8 L-463.43,-15485.8 L-511.217,-15565.3 L-511.232,-15565.4 L-510.131,-15614.9 L-491.752,-16442 L-1873.45,-16472.7 L-1928.59,-13991.4"/>
</g>

<g fill="none" stroke="#000000" stroke-opacity="1" stroke-width="1" stroke-linecap="square" stroke-linejoin="bevel" transform="matrix(0.999991,0,0,-0.999991,79974,71982.1)"
font-family="MS Shell Dlg 2" font-size="10.3125" font-weight="400" font-style="normal" 
>
</g>

<g fill="none" stroke="#000000" stroke-opacity="1" stroke-width="1" stroke-linecap="square" stroke-linejoin="bevel" transform="matrix(0.999991,0,0,-0.999991,79974,71982.1)"
font-family="MS Shell Dlg 2" font-size="10.3125" font-weight="400" font-style="normal" 
>
</g>

<g fill="#ffff00" fill-opacity="0.2" stroke="#333333" stroke-opacity="1" stroke-width="1" stroke-linecap="round" stroke-linejoin="round" transform="matrix(0.999991,0,0,-0.999991,79974,71982.1)"
font-family="MS Shell Dlg 2" font-size="10.3125" font-weight="400" font-style="normal" 
>
<path vector-effect="non-scaling-stroke" fill-rule="evenodd" d="M-79974.2,-25058.6 L-79974.2,71981.3 L29422.2,71981.3 L29422.2,-25058.6 L-79974.2,-25058.6 M-20392.4,-1239.47 L-20391.8,-1199.45 L-20386.7,-820.368 L-20344.2,2276.39 L-16748.9,2233.07 L-16748.9,2233.08 L-16748.9,2233.08 L-16748.8,2233.09 L-16748.8,2233.09 L-16748.8,2233.11 L-16748.8,2233.12 L-16748.8,2233.13 L7146.29,46003.6 L7146.3,46003.6 L7146.3,46003.6 L7146.3,46003.6 L7146.3,46003.6 L7146.29,46003.7 L7146.29,46003.7 L7146.28,46003.7 L5134.35,48780.1 L9926.87,51154.2 L9937.03,51136.1 L9937.04,51136.1 L9937.04,51136 L9937.07,51136 L9937.07,51136 L9937.1,51136 L9937.11,51136 L9937.13,51136 L9937.19,51136 L9937.21,51136 L9937.22,51136 L9937.24,51136 L10285.5,51330.8 L10320.4,51350.3 L10668.7,51545.1 L10668.7,51545.1 L10668.7,51545.1 L10668.7,51545.1 L10668.8,51545.2 L10668.8,51545.2 L10668.8,51545.2 L10668.8,51545.2 L10668.8,51545.2 L10668.8,51545.3 L10668.8,51545.3 L10668.8,51545.3 L10661.7,51557.9 L16652.6,55187.6 L16652.6,55187.6 L16652.6,55187.6 L16652.6,55187.6 L23422.4,64597 L23422.4,64597 L23422.4,64597.1 L23422.4,64597.1 L23422.4,64597.1 L23422.4,64597.1 L23422.4,64597.1 L23422.4,64597.2 L23422.4,64597.2 L23422.4,64597.2 L23422.4,64597.2 L23422.3,64597.2 L23422.3,64597.2 L23422.3,64597.2 L11629.8,63233.7 L11629.8,63233.7 L11629.8,63233.7 L11629.8,63233.7 L5334.96,61083.1 L5297.65,61149.8 L5297.64,61149.8 L5297.64,61149.8 L5297.61,61149.8 L5297.61,61149.8 L5297.57,61149.8 L5297.57,61149.8 L5297.55,61149.8 L5297.49,61149.8 L5297.46,61149.8 L5297.46,61149.8 L5297.44,61149.8 L4949.18,60955.1 L4914.24,60935.5 L4583.35,60750.5 L-1197.29,57517.8 L-4019.64,61412.6 L-4019.66,61412.7 L-4019.66,61412.7 L-4019.71,61412.7 L-4019.71,61412.7 L-4019.73,61412.7 L-50470,61189.4 L-50470,61189.4 L-50470,61189.4 L-50470,61189.4 L-50470,61189.4 L-50470.1,61189.3 L-50470.1,61189.3 L-50470.1,61189.3 L-51901.9,58564.2 L-55584.7,61015.5 L-55574.1,61033.4 L-55574.1,61033.4 L-55574.1,61033.4 L-55574.1,61033.4 L-55574.1,61033.4 L-55574.1,61033.5 L-55574.1,61033.5 L-55574.1,61033.5 L-55574.1,61033.5 L-55574.1,61033.5 L-55574.1,61033.5 L-55574.1,61033.6 L-55916.9,61237.8 L-55951.3,61258.3 L-56294.1,61462.5 L-56294.1,61462.5 L-56294.1,61462.5 L-56294.2,61462.5 L-56294.2,61462.5 L-56294.3,61462.5 L-56294.3,61462.5 L-56294.3,61462.5 L-56294.3,61462.5 L-56294.3,61462.5 L-56294.3,61462.5 L-56294.3,61462.5 L-56301.7,61450 L-62440.5,64823.4 L-62440.6,64823.4 L-62440.6,64823.4 L-62440.6,64823.4 L-73974.3,65981.5 L-73974.3,65981.5 L-73974.3,65981.5 L-73974.4,65981.5 L-73974.4,65981.5 L-73974.4,65981.5 L-73974.4,65981.5 L-73974.4,65981.5 L-73974.4,65981.5 L-73974.4,65981.4 L-73974.4,65981.4 L-73974.4,65981.4 L-73974.4,65981.4 L-73974.4,65981.4 L-66897.4,56450.5 L-66897.4,56450.5 L-66897.4,56450.5 L-66897.4,56450.5 L-61887.4,52074.3 L-61926.5,52008.7 L-61926.5,52008.7 L-61926.5,52008.7 L-61926.5,52008.6 L-61926.5,52008.6 L-61926.5,52008.6 L-61926.5,52008.6 L-61926.5,52008.6 L-61926.5,52008.5 L-61926.5,52008.5 L-61926.5,52008.5 L-61926.5,52008.5 L-61583.7,51804.2 L-61549.3,51783.8 L-61223.6,51589.7 L-57059.4,49108.9 L-59849.4,43993.8 L-59849.5,43993.8 L-59849.5,43993.8 L-59849.5,43993.7 L-59849.5,43993.7 L-59849.5,43993.7 L-59849.5,43993.7 L-59849.4,43993.7 L-35284.4,2456.45 L-35284.4,2456.43 L-35284.4,2456.43 L-35284.4,2456.41 L-35284.4,2456.41 L-35284.3,2456.4 L-35284.3,2456.39 L-35284.3,2456.39 L-31174.2,2406.87 L-31369,-649.857 L-31389.8,-649.572 L-31389.9,-649.573 L-31389.9,-649.574 L-31389.9,-649.586 L-31389.9,-649.587 L-31389.9,-649.61 L-31389.9,-649.613 L-31389.9,-649.627 L-31390,-649.683 L-31390,-649.707 L-31390,-649.711 L-31390,-649.736 L-31395.4,-1048.71 L-31396,-1088.74 L-31401.5,-1487.71 L-31401.5,-1487.74 L-31401.5,-1487.74 L-31401.4,-1487.77 L-31401.4,-1487.82 L-31401.4,-1487.84 L-31401.4,-1487.84 L-31401.4,-1487.86 L-31401.4,-1487.87 L-31401.3,-1487.88 L-31401.3,-1487.88 L-31401.3,-1487.88 L-31386.9,-1488.08 L-31238.9,-8491.14 L-31238.9,-8491.16 L-31238.9,-8491.17 L-31238.9,-8491.19 L-26475,-19058.7 L-26475,-19058.7 L-26475,-19058.7 L-26474.9,-19058.8 L-26474.9,-19058.8 L-26474.9,-19058.8 L-26474.9,-19058.8 L-26474.9,-19058.8 L-26474.9,-19058.8 L-26474.8,-19058.8 L-26474.8,-19058.8 L-26474.8,-19058.7 L-26474.8,-19058.7 L-26474.8,-19058.7 L-21759.3,-8164.42 L-21759.3,-8164.41 L-21759.3,-8164.41 L-21759.3,-8164.4 L-20474.4,-1637.57 L-20398,-1638.61 L-20398,-1638.61 L-20398,-1638.61 L-20398,-1638.6 L-20397.9,-1638.6 L-20397.9,-1638.57 L-20397.9,-1638.57 L-20397.9,-1638.56 L-20397.9,-1638.5 L-20397.9,-1638.48 L-20397.9,-1638.47 L-20397.9,-1638.45 L-20392.4,-1239.47 M20183.2,-14498.5 L20454.9,-14319.1 L20455,-14319 L20648.8,-13935.6 L20648.8,-13935.6 L20648.8,-13935.6 L20552.5,-13393 L20552.5,-13393 L20552.5,-13393 L19991.4,-13011.1 L19991.4,-13011 L19991.4,-13011 L19249.2,-13097.7 L19249.1,-13097.8 L18841.1,-13431.4 L18841.1,-13431.4 L18841.1,-13431.5 L18841.1,-13431.5 L18853.5,-13546.4 L18853.5,-13546.5 L18853.6,-13546.5 L18918.2,-13592.6 L18918.2,-13592.6 L18918.2,-13592.6 L18980.5,-13587.5 L18980.5,-13587.5 L19028,-13551.3 L19028.1,-13551.3 L19219.5,-13360.4 L19589.9,-13228.3 L20105.4,-13276.3 L20431.5,-13643.9 L20380.6,-14082.7 L19990.3,-14376.3 L19803.8,-14380.4 L19803.8,-14380.4 L19553.4,-14393.4 L19553.4,-14393.4 L19553.3,-14393.5 L19503.2,-14459 L19503.1,-14459 L19503.1,-14459.1 L19515.8,-14545.1 L19515.8,-14545.2 L19515.8,-14545.2 L19595.3,-14590.9 L19595.4,-14590.9 L19951.1,-14617.3 L20371.8,-14838.8 L20579.9,-15193.4 L20509.2,-15671.8 L19990.6,-16061.2 L19191.1,-15983.9 L18867.4,-15764 L18867.4,-15764 L18867.4,-15764 L18792.1,-15775.6 L18792,-15775.6 L18792,-15775.6 L18745.9,-15839.4 L18745.9,-15839.5 L18745.9,-15839.5 L18760.2,-15923.4 L18760.2,-15923.5 L18760.2,-15923.5 L18998.7,-16101.5 L18998.7,-16101.6 L19570.9,-16278.8 L19570.9,-16278.8 L20303.9,-16167.1 L20304,-16167.1 L20304,-16167.1 L20796.3,-15554.5 L20796.3,-15554.4 L20796.3,-15554.4 L20733.3,-14988.8 L20733.3,-14988.8 L20733.3,-14988.8 L20376.5,-14580 L20376.5,-14580 L20183.2,-14498.5 M17664.8,-14435.5 L17664.8,-14435.5 L17638.7,-14077.6 L17638.7,-14077.6 L17526.9,-13729.1 L17526.9,-13729.1 L17354.5,-13403.4 L17354.4,-13403.3 L17132.6,-13196.4 L17132.6,-13196.4 L16799.7,-13082 L16799.6,-13082 L16213.3,-13197.4 L16213.3,-13197.4 L16213.3,-13197.5 L15745.3,-14028.8 L15745.3,-14028.9 L15755.2,-14477.9 L15755.2,-14477.9 L15793.6,-15348.4 L15793.6,-15348.5 L15905,-15699.5 L15905,-15699.5 L16078.7,-16024.3 L16078.7,-16024.4 L16299.2,-16229.7 L16299.3,-16229.7 L16633.4,-16344.1 L16633.5,-16344.1 L17218.1,-16228.7 L17218.2,-16228.7 L17218.2,-16228.6 L17686.2,-15398.1 L17686.2,-15398 L17676.3,-14950.6 L17664.8,-14435.5 M10367.5,-14263.2 L10367.5,-14263.1 L10367.5,-14263.1 L10367.5,-14263.1 L10367.4,-14263.1 L9688.67,-14288.1 L9688.63,-14288.1 L9688.59,-14288.1 L9638.43,-14353.6 L9638.41,-14353.7 L9638.41,-14353.7 L9651.07,-14440.2 L9651.08,-14440.2 L9651.11,-14440.2 L9730.64,-14488 L9730.69,-14488 L9780.22,-14486.9 L10164,-14478.4 L10202.5,-16211.8 L9612.99,-16234.4 L9612.95,-16234.4 L9612.91,-16234.4 L9562.69,-16297.1 L9562.67,-16297.1 L9562.66,-16297.1 L9575.22,-16379 L9575.24,-16379.1 L9575.27,-16379.1 L9654.75,-16424.8 L9654.8,-16424.8 L9704.33,-16423.7 L9704.33,-16423.7 L11423.6,-16375.6 L11423.7,-16375.6 L11423.7,-16375.6 L11475.9,-16310 L11476,-16310 L11476,-16309.9 L11463.3,-16223.9 L11463.3,-16223.9 L11463.3,-16223.8 L11383,-16178.1 L11382.9,-16178.1 L11331.7,-16179.2 L10410.6,-16199.7 L10912,-14588.9 L11273.2,-14399.2 L11447.6,-14406.1 L11585.6,-14485.6 L11698.6,-14590.9 L11698.6,-14590.9 L11736.1,-14604.5 L11736.1,-14604.5 L11809.8,-14592.6 L11809.8,-14592.5 L11809.9,-14592.5 L11860,-14524.1 L11860,-14524.1 L11860,-14524 L11860,-14524 L11803.7,-14387.7 L11803.6,-14387.7 L11803.6,-14387.7 L11470.9,-14186.5 L11470.8,-14186.5 L11470.8,-14186.5 L11109.6,-14229.7 L11109.5,-14229.7 L10644.4,-14537.7 L10644.4,-14537.8 L10379.2,-14788 L10367.5,-14263.2 M8723.69,-15422.2 L8723.73,-15422.2 L8723.76,-15422.2 L8723.78,-15422.1 L8723.78,-15422.1 L8604.7,-14783.4 L8604.69,-14783.4 L8604.66,-14783.4 L7873.31,-14244.2 L7873.27,-14244.2 L7873.24,-14244.2 L6928.37,-14373.4 L6928.33,-14373.4 L6928.31,-14373.4 L6384.4,-15077.6 L6384.38,-15077.6 L6384.38,-15077.7 L6524.03,-15991.8 L6524.05,-15991.8 L6524.08,-15991.8 L7311.79,-16558.6 L7311.82,-16558.7 L7311.86,-16558.7 L8088.27,-16505.5 L8088.31,-16505.5 L8628.65,-16272.5 L8628.68,-16272.5 L8744.53,-16133.7 L8744.55,-16133.6 L8744.55,-16133.6 L8732.86,-16053.3 L8732.84,-16053.3 L8732.82,-16053.3 L8668.93,-16003.1 L8668.9,-16003 L8668.85,-16003 L8592.36,-16017.1 L8592.32,-16017.1 L8318.89,-16199.9 L7819.03,-16339.1 L7149.02,-16271.8 L6646.18,-15737.5 L6603.9,-15469.3 L8723.69,-15422.2 M4591.2,-16537.3 L4241.35,-17293.2 L3505.27,-17319.1 L3505.23,-17319.1 L3505.19,-17319.1 L3452.94,-17383.4 L3452.92,-17383.5 L3452.92,-17383.5 L3465.6,-17471.2 L3465.62,-17471.2 L3465.65,-17471.3 L3545.13,-17517 L3545.18,-17517 L3594.71,-17515.9 L3594.71,-17515.9 L4878.15,-17477.5 L4878.2,-17477.5 L4878.23,-17477.4 L4930.46,-17411.9 L4930.47,-17411.8 L4930.48,-17411.8 L4917.83,-17325.8 L4917.81,-17325.7 L4917.78,-17325.7 L4838.3,-17280 L4838.25,-17279.9 L4788.72,-17281 L4464.46,-17288.3 L5844.39,-14571.5 L5891.72,-14546.9 L5891.76,-14546.9 L5923.53,-14490 L5923.54,-14490 L5923.54,-14489.9 L5911.07,-14411.7 L5911.05,-14411.7 L5911.02,-14411.7 L5830.67,-14363.9 L5830.62,-14363.9 L5779.44,-14365 L5779.44,-14365 L5127.51,-14389.4 L5127.46,-14389.4 L5127.43,-14389.5 L5075.2,-14455 L5075.19,-14455.1 L5075.18,-14455.1 L5087.84,-14541.6 L5087.86,-14541.6 L5087.89,-14541.6 L5167.41,-14589.4 L5167.47,-14589.4 L5217,-14588.3 L5496.68,-14582.1 L4697.69,-16306.7 L3810.49,-14619.6 L4174.99,-14601.6 L4175.03,-14601.6 L4175.06,-14601.5 L4227.29,-14536 L4227.31,-14535.9 L4227.31,-14535.9 L4214.65,-14449.4 L4214.64,-14449.4 L4214.61,-14449.4 L4135.08,-14401.6 L4135.03,-14401.6 L4085.5,-14402.7 L4085.5,-14402.7 L3452.83,-14420.5 L3452.78,-14420.5 L3404.68,-14448.8 L3404.66,-14448.8 L3404.64,-14448.8 L3379.01,-14503.5 L3379.01,-14503.5 L3379.01,-14503.6 L3391.43,-14579.3 L3391.44,-14579.3 L3391.47,-14579.3 L3471,-14627.1 L3471.05,-14627.1 L3520.58,-14626 L3582.43,-14624.7 L4591.2,-16537.3 M2132.53,-16591.9 L2132.54,-16591.9 L2132.56,-16592 L2132.6,-16592 L2132.64,-16592 L2707.79,-16569.3 L2707.83,-16569.3 L2707.87,-16569.3 L2760.09,-16503.7 L2760.11,-16503.6 L2760.11,-16503.6 L2747.47,-16417.6 L2747.45,-16417.5 L2747.42,-16417.5 L2667.11,-16371.8 L2667.06,-16371.8 L2615.88,-16372.9 L2338.61,-16379.1 L2227.65,-14693.9 L2227.64,-14693.8 L2227.61,-14693.8 L1721.8,-14380.9 L1721.77,-14380.9 L1721.74,-14380.9 L1133.1,-14428.6 L1133.08,-14428.6 L622.035,-14586.2 L622.006,-14586.2 L621.983,-14586.2 L575.517,-14650.9 L575.501,-14650.9 L575.499,-14650.9 L586.827,-14733.3 L586.839,-14733.3 L586.864,-14733.3 L648.639,-14781.5 L648.675,-14781.5 L648.714,-14781.5 L723.652,-14771.6 L723.667,-14771.6 L1292.22,-14601.2 L1824.73,-14631.5 L2094.78,-14893 L2097.31,-15006.9 L1852.05,-15303.4 L1522.86,-15279.8 L1522.84,-15279.8 L803.847,-15370.9 L803.814,-15370.9 L803.786,-15370.9 L352.087,-15857.5 L352.065,-15857.6 L352.062,-15857.6 L434.218,-16395.5 L434.233,-16395.5 L434.264,-16395.6 L916.772,-16700.8 L916.805,-16700.8 L916.841,-16700.8 L1829.5,-16553.3 L1829.55,-16553.3 L2125.88,-16292.5 L2132.53,-16591.9 M-1928.59,-13991.4 L-1348.57,-13969 L-1348.53,-13969 L-1348.49,-13969 L-1296.24,-13904.6 L-1296.22,-13904.6 L-1296.22,-13904.6 L-1308.9,-13816.9 L-1308.92,-13816.9 L-1308.95,-13816.8 L-1388.43,-13771.1 L-1388.48,-13771.1 L-1438.01,-13772.2 L-1438.01,-13772.2 L-2723.94,-13810.3 L-2723.98,-13810.3 L-2724.02,-13810.3 L-2776.27,-13874.6 L-2776.29,-13874.7 L-2776.29,-13874.7 L-2763.61,-13962.4 L-2763.59,-13962.4 L-2763.56,-13962.5 L-2684.08,-14008.2 L-2684.03,-14008.2 L-2634.5,-14007.1 L-2139.29,-13996.1 L-2084.15,-16477.4 L-2664.18,-16499.8 L-2664.22,-16499.8 L-2664.25,-16499.8 L-2716.5,-16564.1 L-2716.52,-16564.2 L-2716.52,-16564.2 L-2703.89,-16649.8 L-2703.87,-16649.9 L-2703.84,-16649.9 L-2624.31,-16697.7 L-2624.26,-16697.7 L-2574.73,-16696.6 L-276.52,-16645.5 L-276.482,-16645.5 L-276.45,-16645.5 L-276.429,-16645.5 L-276.423,-16645.4 L-311.268,-15523.4 L-311.279,-15523.3 L-311.307,-15523.3 L-376.843,-15473.1 L-376.879,-15473.1 L-376.919,-15473.1 L-463.358,-15485.8 L-463.399,-15485.8 L-463.43,-15485.8 L-511.217,-15565.3 L-511.232,-15565.4 L-510.131,-15614.9 L-491.752,-16442 L-1873.45,-16472.7 L-1928.59,-13991.4"/>
</g>

<g fill="none" stroke="#000000" stroke-opacity="1" stroke-width="1" stroke-linecap="square" stroke-linejoin="bevel" transform="matrix(0.999991,0,0,-0.999991,79974,71982.1)"
font-family="MS Shell Dlg 2" font-size="10.3125" font-weight="400" font-style="normal" 
>
</g>

<g fill="none" stroke="#000000" stroke-opacity="1" stroke-width="1" stroke-linecap="square" stroke-linejoin="bevel" transform="matrix(0.999991,0,0,-0.999991,79974,71982.1)"
font-family="MS Shell Dlg 2" font-size="10.3125" font-weight="400" font-style="normal" 
>
</g>

<g fill="#ae5151" fill-opacity="0.2" stroke="#333333" stroke-opacity="1" stroke-width="1" stroke-linecap="round" stroke-linejoin="round" transform="matrix(0.999991,0,0,-0.999991,79974,71982.1)"
font-family="MS Shell Dlg 2" font-size="10.3125" font-weight="400" font-style="normal" 
>
<path vector-effect="non-scaling-stroke" fill-rule="evenodd" d="M-79974.2,-25058.6 L-79974.2,71981.3 L29422.2,71981.3 L29422.2,-25058.6 L-79974.2,-25058.6 M-20392.4,-1239.47 L-20391.8,-1199.45 L-20386.7,-820.368 L-20344.2,2276.39 L-16748.9,2233.07 L-16748.9,2233.08 L-16748.9,2233.08 L-16748.8,2233.09 L-16748.8,2233.09 L-16748.8,2233.11 L-16748.8,2233.12 L-16748.8,2233.13 L7146.29,46003.6 L7146.3,46003.6 L7146.3,46003.6 L7146.3,46003.6 L7146.3,46003.6 L7146.29,46003.7 L7146.29,46003.7 L7146.28,46003.7 L5134.35,48780.1 L9926.87,51154.2 L9937.03,51136.1 L9937.04,51136.1 L9937.04,51136 L9937.07,51136 L9937.07,51136 L9937.1,51136 L9937.11,51136 L9937.13,51136 L9937.19,51136 L9937.21,51136 L9937.22,51136 L9937.24,51136 L10285.5,51330.8 L10320.4,51350.3 L10668.7,51545.1 L10668.7,51545.1 L10668.7,51545.1 L10668.7,51545.1 L10668.8,51545.2 L10668.8,51545.2 L10668.8,51545.2 L10668.8,51545.2 L10668.8,51545.2 L10668.8,51545.3 L10668.8,51545.3 L10668.8,51545.3 L10661.7,51557.9 L16652.6,55187.6 L16652.6,55187.6 L16652.6,55187.6 L16652.6,55187.6 L23422.4,64597 L23422.4,64597 L23422.4,64597.1 L23422.4,64597.1 L23422.4,64597.1 L23422.4,64597.1 L23422.4,64597.1 L23422.4,64597.2 L23422.4,64597.2 L23422.4,64597.2 L23422.4,64597.2 L23422.3,64597.2 L23422.3,64597.2 L23422.3,64597.2 L11629.8,63233.7 L11629.8,63233.7 L11629.8,63233.7 L11629.8,63233.7 L5334.96,61083.1 L5297.65,61149.8 L5297.64,61149.8 L5297.64,61149.8 L5297.61,61149.8 L5297.61,61149.8 L5297.57,61149.8 L5297.57,61149.8 L5297.55,61149.8 L5297.49,61149.8 L5297.46,61149.8 L5297.46,61149.8 L5297.44,61149.8 L4949.18,60955.1 L4914.24,60935.5 L4583.35,60750.5 L-1197.29,57517.8 L-4019.64,61412.6 L-4019.66,61412.7 L-4019.66,61412.7 L-4019.71,61412.7 L-4019.71,61412.7 L-4019.73,61412.7 L-50470,61189.4 L-50470,61189.4 L-50470,61189.4 L-50470,61189.4 L-50470,61189.4 L-50470.1,61189.3 L-50470.1,61189.3 L-50470.1,61189.3 L-51901.9,58564.2 L-55584.7,61015.5 L-55574.1,61033.4 L-55574.1,61033.4 L-55574.1,61033.4 L-55574.1,61033.4 L-55574.1,61033.4 L-55574.1,61033.5 L-55574.1,61033.5 L-55574.1,61033.5 L-55574.1,61033.5 L-55574.1,61033.5 L-55574.1,61033.5 L-55574.1,61033.6 L-55916.9,61237.8 L-55951.3,61258.3 L-56294.1,61462.5 L-56294.1,61462.5 L-56294.1,61462.5 L-56294.2,61462.5 L-56294.2,61462.5 L-56294.3,61462.5 L-56294.3,61462.5 L-56294.3,61462.5 L-56294.3,61462.5 L-56294.3,61462.5 L-56294.3,61462.5 L-56294.3,61462.5 L-56301.7,61450 L-62440.5,64823.4 L-62440.6,64823.4 L-62440.6,64823.4 L-62440.6,64823.4 L-73974.3,65981.5 L-73974.3,65981.5 L-73974.3,65981.5 L-73974.4,65981.5 L-73974.4,65981.5 L-73974.4,65981.5 L-73974.4,65981.5 L-73974.4,65981.5 L-73974.4,65981.5 L-73974.4,65981.4 L-73974.4,65981.4 L-73974.4,65981.4 L-73974.4,65981.4 L-73974.4,65981.4 L-66897.4,56450.5 L-66897.4,56450.5 L-66897.4,56450.5 L-66897.4,56450.5 L-61887.4,52074.3 L-61926.5,52008.7 L-61926.5,52008.7 L-61926.5,52008.7 L-61926.5,52008.6 L-61926.5,52008.6 L-61926.5,52008.6 L-61926.5,52008.6 L-61926.5,52008.6 L-61926.5,52008.5 L-61926.5,52008.5 L-61926.5,52008.5 L-61926.5,52008.5 L-61583.7,51804.2 L-61549.3,51783.8 L-61223.6,51589.7 L-57059.4,49108.9 L-59849.4,43993.8 L-59849.5,43993.8 L-59849.5,43993.8 L-59849.5,43993.7 L-59849.5,43993.7 L-59849.5,43993.7 L-59849.5,43993.7 L-59849.4,43993.7 L-35284.4,2456.45 L-35284.4,2456.43 L-35284.4,2456.43 L-35284.4,2456.41 L-35284.4,2456.41 L-35284.3,2456.4 L-35284.3,2456.39 L-35284.3,2456.39 L-31174.2,2406.87 L-31369,-649.857 L-31389.8,-649.572 L-31389.9,-649.573 L-31389.9,-649.574 L-31389.9,-649.586 L-31389.9,-649.587 L-31389.9,-649.61 L-31389.9,-649.613 L-31389.9,-649.627 L-31390,-649.683 L-31390,-649.707 L-31390,-649.711 L-31390,-649.736 L-31395.4,-1048.71 L-31396,-1088.74 L-31401.5,-1487.71 L-31401.5,-1487.74 L-31401.5,-1487.74 L-31401.4,-1487.77 L-31401.4,-1487.82 L-31401.4,-1487.84 L-31401.4,-1487.84 L-31401.4,-1487.86 L-31401.4,-1487.87 L-31401.3,-1487.88 L-31401.3,-1487.88 L-31401.3,-1487.88 L-31386.9,-1488.08 L-31238.9,-8491.14 L-31238.9,-8491.16 L-31238.9,-8491.17 L-31238.9,-8491.19 L-26475,-19058.7 L-26475,-19058.7 L-26475,-19058.7 L-26474.9,-19058.8 L-26474.9,-19058.8 L-26474.9,-19058.8 L-26474.9,-19058.8 L-26474.9,-19058.8 L-26474.9,-19058.8 L-26474.8,-19058.8 L-26474.8,-19058.8 L-26474.8,-19058.7 L-26474.8,-19058.7 L-26474.8,-19058.7 L-21759.3,-8164.42 L-21759.3,-8164.41 L-21759.3,-8164.41 L-21759.3,-8164.4 L-20474.4,-1637.57 L-20398,-1638.61 L-20398,-1638.61 L-20398,-1638.61 L-20398,-1638.6 L-20397.9,-1638.6 L-20397.9,-1638.57 L-20397.9,-1638.57 L-20397.9,-1638.56 L-20397.9,-1638.5 L-20397.9,-1638.48 L-20397.9,-1638.47 L-20397.9,-1638.45 L-20392.4,-1239.47 M20161.6,-15321.7 L20176.3,-15982.7 L19700.3,-16002.8 L19700.2,-16002.8 L19700.2,-16002.8 L19647.9,-16067.2 L19647.9,-16067.2 L19647.9,-16067.2 L19660.5,-16152.8 L19660.6,-16152.9 L19660.6,-16152.9 L19740.9,-16200.7 L19741,-16200.7 L19792.2,-16199.6 L19792.2,-16199.6 L20652.1,-16170.5 L20652.2,-16170.5 L20652.2,-16170.5 L20704.4,-16104.9 L20704.5,-16104.9 L20704.5,-16104.8 L20691.8,-16018.8 L20691.8,-16018.8 L20691.8,-16018.7 L20611.5,-15973 L20611.4,-15973 L20560.2,-15974.2 L20387,-15978 L20372.3,-15317 L20632.8,-15301.3 L20632.9,-15301.3 L20632.9,-15301.2 L20685.1,-15235.7 L20685.1,-15235.6 L20685.1,-15235.6 L20672.5,-15149.6 L20672.5,-15149.5 L20672.4,-15149.5 L20592.1,-15103.8 L20592.1,-15103.8 L20540.9,-15104.9 L20367.6,-15108.8 L20322.5,-13078.1 L20322.5,-13078.1 L20322.5,-13078 L20322.5,-13078 L20322.4,-13078 L19889,-13087.6 L19889,-13087.7 L19889,-13087.7 L19888.9,-13087.7 L18776.8,-15111.9 L18776.8,-15112 L18782.1,-15352.2 L18782.2,-15352.3 L18782.2,-15352.3 L18782.2,-15352.3 L18782.2,-15352.3 L20161.6,-15321.7 M17664.8,-14435.5 L17664.8,-14435.5 L17638.7,-14077.6 L17638.7,-14077.6 L17526.9,-13729.1 L17526.9,-13729.1 L17354.5,-13403.4 L17354.4,-13403.3 L17132.6,-13196.4 L17132.6,-13196.4 L16799.7,-13082 L16799.6,-13082 L16213.3,-13197.4 L16213.3,-13197.4 L16213.3,-13197.5 L15745.3,-14028.8 L15745.3,-14028.9 L15755.2,-14477.9 L15755.2,-14477.9 L15793.6,-15348.4 L15793.6,-15348.5 L15905,-15699.5 L15905,-15699.5 L16078.7,-16024.3 L16078.7,-16024.4 L16299.2,-16229.7 L16299.3,-16229.7 L16633.4,-16344.1 L16633.5,-16344.1 L17218.1,-16228.7 L17218.2,-16228.7 L17218.2,-16228.6 L17686.2,-15398.1 L17686.2,-15398 L17676.3,-14950.6 L17664.8,-14435.5 M10367.5,-14263.2 L10367.5,-14263.1 L10367.5,-14263.1 L10367.5,-14263.1 L10367.4,-14263.1 L9688.67,-14288.1 L9688.63,-14288.1 L9688.59,-14288.1 L9638.43,-14353.6 L9638.41,-14353.7 L9638.41,-14353.7 L9651.07,-14440.2 L9651.08,-14440.2 L9651.11,-14440.2 L9730.64,-14488 L9730.69,-14488 L9780.22,-14486.9 L10164,-14478.4 L10202.5,-16211.8 L9612.99,-16234.4 L9612.95,-16234.4 L9612.91,-16234.4 L9562.69,-16297.1 L9562.67,-16297.1 L9562.66,-16297.1 L9575.22,-16379 L9575.24,-16379.1 L9575.27,-16379.1 L9654.75,-16424.8 L9654.8,-16424.8 L9704.33,-16423.7 L9704.33,-16423.7 L11423.6,-16375.6 L11423.7,-16375.6 L11423.7,-16375.6 L11475.9,-16310 L11476,-16310 L11476,-16309.9 L11463.3,-16223.9 L11463.3,-16223.9 L11463.3,-16223.8 L11383,-16178.1 L11382.9,-16178.1 L11331.7,-16179.2 L10410.6,-16199.7 L10912,-14588.9 L11273.2,-14399.2 L11447.6,-14406.1 L11585.6,-14485.6 L11698.6,-14590.9 L11698.6,-14590.9 L11736.1,-14604.5 L11736.1,-14604.5 L11809.8,-14592.6 L11809.8,-14592.5 L11809.9,-14592.5 L11860,-14524.1 L11860,-14524.1 L11860,-14524 L11860,-14524 L11803.7,-14387.7 L11803.6,-14387.7 L11803.6,-14387.7 L11470.9,-14186.5 L11470.8,-14186.5 L11470.8,-14186.5 L11109.6,-14229.7 L11109.5,-14229.7 L10644.4,-14537.7 L10644.4,-14537.8 L10379.2,-14788 L10367.5,-14263.2 M8723.69,-15422.2 L8723.73,-15422.2 L8723.76,-15422.2 L8723.78,-15422.1 L8723.78,-15422.1 L8604.7,-14783.4 L8604.69,-14783.4 L8604.66,-14783.4 L7873.31,-14244.2 L7873.27,-14244.2 L7873.24,-14244.2 L6928.37,-14373.4 L6928.33,-14373.4 L6928.31,-14373.4 L6384.4,-15077.6 L6384.38,-15077.6 L6384.38,-15077.7 L6524.03,-15991.8 L6524.05,-15991.8 L6524.08,-15991.8 L7311.79,-16558.6 L7311.82,-16558.7 L7311.86,-16558.7 L8088.27,-16505.5 L8088.31,-16505.5 L8628.65,-16272.5 L8628.68,-16272.5 L8744.53,-16133.7 L8744.55,-16133.6 L8744.55,-16133.6 L8732.86,-16053.3 L8732.84,-16053.3 L8732.82,-16053.3 L8668.93,-16003.1 L8668.9,-16003 L8668.85,-16003 L8592.36,-16017.1 L8592.32,-16017.1 L8318.89,-16199.9 L7819.03,-16339.1 L7149.02,-16271.8 L6646.18,-15737.5 L6603.9,-15469.3 L8723.69,-15422.2 M4591.2,-16537.3 L4241.35,-17293.2 L3505.27,-17319.1 L3505.23,-17319.1 L3505.19,-17319.1 L3452.94,-17383.4 L3452.92,-17383.5 L3452.92,-17383.5 L3465.6,-17471.2 L3465.62,-17471.2 L3465.65,-17471.3 L3545.13,-17517 L3545.18,-17517 L3594.71,-17515.9 L3594.71,-17515.9 L4878.15,-17477.5 L4878.2,-17477.5 L4878.23,-17477.4 L4930.46,-17411.9 L4930.47,-17411.8 L4930.48,-17411.8 L4917.83,-17325.8 L4917.81,-17325.7 L4917.78,-17325.7 L4838.3,-17280 L4838.25,-17279.9 L4788.72,-17281 L4464.46,-17288.3 L5844.39,-14571.5 L5891.72,-14546.9 L5891.76,-14546.9 L5923.53,-14490 L5923.54,-14490 L5923.54,-14489.9 L5911.07,-14411.7 L5911.05,-14411.7 L5911.02,-14411.7 L5830.67,-14363.9 L5830.62,-14363.9 L5779.44,-14365 L5779.44,-14365 L5127.51,-14389.4 L5127.46,-14389.4 L5127.43,-14389.5 L5075.2,-14455 L5075.19,-14455.1 L5075.18,-14455.1 L5087.84,-14541.6 L5087.86,-14541.6 L5087.89,-14541.6 L5167.41,-14589.4 L5167.47,-14589.4 L5217,-14588.3 L5496.68,-14582.1 L4697.69,-16306.7 L3810.49,-14619.6 L4174.99,-14601.6 L4175.03,-14601.6 L4175.06,-14601.5 L4227.29,-14536 L4227.31,-14535.9 L4227.31,-14535.9 L4214.65,-14449.4 L4214.64,-14449.4 L4214.61,-14449.4 L4135.08,-14401.6 L4135.03,-14401.6 L4085.5,-14402.7 L4085.5,-14402.7 L3452.83,-14420.5 L3452.78,-14420.5 L3404.68,-14448.8 L3404.66,-14448.8 L3404.64,-14448.8 L3379.01,-14503.5 L3379.01,-14503.5 L3379.01,-14503.6 L3391.43,-14579.3 L3391.44,-14579.3 L3391.47,-14579.3 L3471,-14627.1 L3471.05,-14627.1 L3520.58,-14626 L3582.43,-14624.7 L4591.2,-16537.3 M2132.53,-16591.9 L2132.54,-16591.9 L2132.56,-16592 L2132.6,-16592 L2132.64,-16592 L2707.79,-16569.3 L2707.83,-16569.3 L2707.87,-16569.3 L2760.09,-16503.7 L2760.11,-16503.6 L2760.11,-16503.6 L2747.47,-16417.6 L2747.45,-16417.5 L2747.42,-16417.5 L2667.11,-16371.8 L2667.06,-16371.8 L2615.88,-16372.9 L2338.61,-16379.1 L2227.65,-14693.9 L2227.64,-14693.8 L2227.61,-14693.8 L1721.8,-14380.9 L1721.77,-14380.9 L1721.74,-14380.9 L1133.1,-14428.6 L1133.08,-14428.6 L622.035,-14586.2 L622.006,-14586.2 L621.983,-14586.2 L575.517,-14650.9 L575.501,-14650.9 L575.499,-14650.9 L586.827,-14733.3 L586.839,-14733.3 L586.864,-14733.3 L648.639,-14781.5 L648.675,-14781.5 L648.714,-14781.5 L723.652,-14771.6 L723.667,-14771.6 L1292.22,-14601.2 L1824.73,-14631.5 L2094.78,-14893 L2097.31,-15006.9 L1852.05,-15303.4 L1522.86,-15279.8 L1522.84,-15279.8 L803.847,-15370.9 L803.814,-15370.9 L803.786,-15370.9 L352.087,-15857.5 L352.065,-15857.6 L352.062,-15857.6 L434.218,-16395.5 L434.233,-16395.5 L434.264,-16395.6 L916.772,-16700.8 L916.805,-16700.8 L916.841,-16700.8 L1829.5,-16553.3 L1829.55,-16553.3 L2125.88,-16292.5 L2132.53,-16591.9 M-1928.59,-13991.4 L-1348.57,-13969 L-1348.53,-13969 L-1348.49,-13969 L-1296.24,-13904.6 L-1296.22,-13904.6 L-1296.22,-13904.6 L-1308.9,-13816.9 L-1308.92,-13816.9 L-1308.95,-13816.8 L-1388.43,-13771.1 L-1388.48,-13771.1 L-1438.01,-13772.2 L-1438.01,-13772.2 L-2723.94,-13810.3 L-2723.98,-13810.3 L-2724.02,-13810.3 L-2776.27,-13874.6 L-2776.29,-13874.7 L-2776.29,-13874.7 L-2763.61,-13962.4 L-2763.59,-13962.4 L-2763.56,-13962.5 L-2684.08,-14008.2 L-2684.03,-14008.2 L-2634.5,-14007.1 L-2139.29,-13996.1 L-2084.15,-16477.4 L-2664.18,-16499.8 L-2664.22,-16499.8 L-2664.25,-16499.8 L-2716.5,-16564.1 L-2716.52,-16564.2 L-2716.52,-16564.2 L-2703.89,-16649.8 L-2703.87,-16649.9 L-2703.84,-16649.9 L-2624.31,-16697.7 L-2624.26,-16697.7 L-2574.73,-16696.6 L-276.52,-16645.5 L-276.482,-16645.5 L-276.45,-16645.5 L-276.429,-16645.5 L-276.423,-16645.4 L-311.268,-15523.4 L-311.279,-15523.3 L-311.307,-15523.3 L-376.843,-15473.1 L-376.879,-15473.1 L-376.919,-15473.1 L-463.358,-15485.8 L-463.399,-15485.8 L-463.43,-15485.8 L-511.217,-15565.3 L-511.232,-15565.4 L-510.131,-15614.9 L-491.752,-16442 L-1873.45,-16472.7 L-1928.59,-13991.4"/>
</g>

<g fill="none" stroke="#000000" stroke-opacity="1" stroke-width="1" stroke-linecap="square" stroke-linejoin="bevel" transform="matrix(0.999991,0,0,-0.999991,79974,71982.1)"
font-family="MS Shell Dlg 2" font-size="10.3125" font-weight="400" font-style="normal" 
>
</g>

<g fill="none" stroke="#000000" stroke-opacity="1" stroke-width="1" stroke-linecap="square" stroke-linejoin="bevel" transform="matrix(0.999991,0,0,-0.999991,79974,71982.1)"
font-family="MS Shell Dlg 2" font-size="10.3125" font-weight="400" font-style="normal" 
>
</g>

<g fill="#ae5151" fill-opacity="0.2" stroke="#333333" stroke-opacity="1" stroke-width="1" stroke-linecap="round" stroke-linejoin="round" transform="matrix(0.999991,0,0,-0.999991,79974,71982.1)"
font-family="MS Shell Dlg 2" font-size="10.3125" font-weight="400" font-style="normal" 
>
<path vector-effect="non-scaling-stroke" fill-rule="evenodd" d="M20156.9,-15113.4 L18995.7,-15139.2 L20007.7,-13295.8 L20116.5,-13293.4 L20156.9,-15113.4"/>
</g>

<g fill="none" stroke="#000000" stroke-opacity="1" stroke-width="1" stroke-linecap="square" stroke-linejoin="bevel" transform="matrix(0.999991,0,0,-0.999991,79974,71982.1)"
font-family="MS Shell Dlg 2" font-size="10.3125" font-weight="400" font-style="normal" 
>
</g>

<g fill="none" stroke="#000000" stroke-opacity="1" stroke-width="1" stroke-linecap="square" stroke-linejoin="bevel" transform="matrix(0.999991,0,0,-0.999991,79974,71982.1)"
font-family="MS Shell Dlg 2" font-size="10.3125" font-weight="400" font-style="normal" 
>
</g>

<g fill="#333333" fill-opacity="0.2" stroke="#333333" stroke-opacity="1" stroke-width="1" stroke-linecap="round" stroke-linejoin="round" transform="matrix(0.999991,0,0,-0.999991,79974,71982.1)"
font-family="MS Shell Dlg 2" font-size="10.3125" font-weight="400" font-style="normal" 
>
<path vector-effect="non-scaling-stroke" fill-rule="evenodd" d="M-79974.2,-25058.6 L-79974.2,71981.3 L29422.2,71981.3 L29422.2,-25058.6 L-79974.2,-25058.6 M-20392.4,-1239.47 L-20391.8,-1199.45 L-20386.7,-820.368 L-20344.2,2276.39 L-16748.9,2233.07 L-16748.9,2233.08 L-16748.9,2233.08 L-16748.8,2233.09 L-16748.8,2233.09 L-16748.8,2233.11 L-16748.8,2233.12 L-16748.8,2233.13 L7146.29,46003.6 L7146.3,46003.6 L7146.3,46003.6 L7146.3,46003.6 L7146.3,46003.6 L7146.29,46003.7 L7146.29,46003.7 L7146.28,46003.7 L5134.35,48780.1 L9926.87,51154.2 L9937.03,51136.1 L9937.04,51136.1 L9937.04,51136 L9937.07,51136 L9937.07,51136 L9937.1,51136 L9937.11,51136 L9937.13,51136 L9937.19,51136 L9937.21,51136 L9937.22,51136 L9937.24,51136 L10285.5,51330.8 L10320.4,51350.3 L10668.7,51545.1 L10668.7,51545.1 L10668.7,51545.1 L10668.7,51545.1 L10668.8,51545.2 L10668.8,51545.2 L10668.8,51545.2 L10668.8,51545.2 L10668.8,51545.2 L10668.8,51545.3 L10668.8,51545.3 L10668.8,51545.3 L10661.7,51557.9 L16652.6,55187.6 L16652.6,55187.6 L16652.6,55187.6 L16652.6,55187.6 L23422.4,64597 L23422.4,64597 L23422.4,64597.1 L23422.4,64597.1 L23422.4,64597.1 L23422.4,64597.1 L23422.4,64597.1 L23422.4,64597.2 L23422.4,64597.2 L23422.4,64597.2 L23422.4,64597.2 L23422.3,64597.2 L23422.3,64597.2 L23422.3,64597.2 L11629.8,63233.7 L11629.8,63233.7 L11629.8,63233.7 L11629.8,63233.7 L5334.96,61083.1 L5297.65,61149.8 L5297.64,61149.8 L5297.64,61149.8 L5297.61,61149.8 L5297.61,61149.8 L5297.57,61149.8 L5297.57,61149.8 L5297.55,61149.8 L5297.49,61149.8 L5297.46,61149.8 L5297.46,61149.8 L5297.44,61149.8 L4949.18,60955.1 L4914.24,60935.5 L4583.35,60750.5 L-1197.29,57517.8 L-4019.64,61412.6 L-4019.66,61412.7 L-4019.66,61412.7 L-4019.71,61412.7 L-4019.71,61412.7 L-4019.73,61412.7 L-50470,61189.4 L-50470,61189.4 L-50470,61189.4 L-50470,61189.4 L-50470,61189.4 L-50470.1,61189.3 L-50470.1,61189.3 L-50470.1,61189.3 L-51901.9,58564.2 L-55584.7,61015.5 L-55574.1,61033.4 L-55574.1,61033.4 L-55574.1,61033.4 L-55574.1,61033.4 L-55574.1,61033.4 L-55574.1,61033.5 L-55574.1,61033.5 L-55574.1,61033.5 L-55574.1,61033.5 L-55574.1,61033.5 L-55574.1,61033.5 L-55574.1,61033.6 L-55916.9,61237.8 L-55951.3,61258.3 L-56294.1,61462.5 L-56294.1,61462.5 L-56294.1,61462.5 L-56294.2,61462.5 L-56294.2,61462.5 L-56294.3,61462.5 L-56294.3,61462.5 L-56294.3,61462.5 L-56294.3,61462.5 L-56294.3,61462.5 L-56294.3,61462.5 L-56294.3,61462.5 L-56301.7,61450 L-62440.5,64823.4 L-62440.6,64823.4 L-62440.6,64823.4 L-62440.6,64823.4 L-73974.3,65981.5 L-73974.3,65981.5 L-73974.3,65981.5 L-73974.4,65981.5 L-73974.4,65981.5 L-73974.4,65981.5 L-73974.4,65981.5 L-73974.4,65981.5 L-73974.4,65981.5 L-73974.4,65981.4 L-73974.4,65981.4 L-73974.4,65981.4 L-73974.4,65981.4 L-73974.4,65981.4 L-66897.4,56450.5 L-66897.4,56450.5 L-66897.4,56450.5 L-66897.4,56450.5 L-61887.4,52074.3 L-61926.5,52008.7 L-61926.5,52008.7 L-61926.5,52008.7 L-61926.5,52008.6 L-61926.5,52008.6 L-61926.5,52008.6 L-61926.5,52008.6 L-61926.5,52008.6 L-61926.5,52008.5 L-61926.5,52008.5 L-61926.5,52008.5 L-61926.5,52008.5 L-61583.7,51804.2 L-61549.3,51783.8 L-61223.6,51589.7 L-57059.4,49108.9 L-59849.4,43993.8 L-59849.5,43993.8 L-59849.5,43993.8 L-59849.5,43993.7 L-59849.5,43993.7 L-59849.5,43993.7 L-59849.5,43993.7 L-59849.4,43993.7 L-35284.4,2456.45 L-35284.4,2456.43 L-35284.4,2456.43 L-35284.4,2456.41 L-35284.4,2456.41 L-35284.3,2456.4 L-35284.3,2456.39 L-35284.3,2456.39 L-31174.2,2406.87 L-31369,-649.857 L-31389.8,-649.572 L-31389.9,-649.573 L-31389.9,-649.574 L-31389.9,-649.586 L-31389.9,-649.587 L-31389.9,-649.61 L-31389.9,-649.613 L-31389.9,-649.627 L-31390,-649.683 L-31390,-649.707 L-31390,-649.711 L-31390,-649.736 L-31395.4,-1048.71 L-31396,-1088.74 L-31401.5,-1487.71 L-31401.5,-1487.74 L-31401.5,-1487.74 L-31401.4,-1487.77 L-31401.4,-1487.82 L-31401.4,-1487.84 L-31401.4,-1487.84 L-31401.4,-1487.86 L-31401.4,-1487.87 L-31401.3,-1487.88 L-31401.3,-1487.88 L-31401.3,-1487.88 L-31386.9,-1488.08 L-31238.9,-8491.14 L-31238.9,-8491.16 L-31238.9,-8491.17 L-31238.9,-8491.19 L-26475,-19058.7 L-26475,-19058.7 L-26475,-19058.7 L-26474.9,-19058.8 L-26474.9,-19058.8 L-26474.9,-19058.8 L-26474.9,-19058.8 L-26474.9,-19058.8 L-26474.9,-19058.8 L-26474.8,-19058.8 L-26474.8,-19058.8 L-26474.8,-19058.7 L-26474.8,-19058.7 L-26474.8,-19058.7 L-21759.3,-8164.42 L-21759.3,-8164.41 L-21759.3,-8164.41 L-21759.3,-8164.4 L-20474.4,-1637.57 L-20398,-1638.61 L-20398,-1638.61 L-20398,-1638.61 L-20398,-1638.6 L-20397.9,-1638.6 L-20397.9,-1638.57 L-20397.9,-1638.57 L-20397.9,-1638.56 L-20397.9,-1638.5 L-20397.9,-1638.48 L-20397.9,-1638.47 L-20397.9,-1638.45 L-20392.4,-1239.47 M19155.8,-13314.7 L20483.7,-13275.3 L20483.8,-13275.3 L20483.8,-13275.3 L20536,-13209.7 L20536,-13209.7 L20536,-13209.6 L20523.4,-13123.2 L20523.4,-13123.1 L20523.3,-13123.1 L20443.8,-13075.3 L20443.8,-13075.3 L20394.2,-13076.4 L18943,-13108.7 L18943,-13108.7 L18942.9,-13108.7 L18942.9,-13108.7 L18942.9,-13108.8 L18984.1,-14552.4 L18984.1,-14552.4 L18984.1,-14552.5 L19045.5,-14600.6 L19045.5,-14600.7 L19045.5,-14600.7 L19133.6,-14585.5 L19133.6,-14585.5 L19614.6,-14377.4 L20217.9,-14435.4 L20571,-14902 L20508,-15634.7 L19999.7,-16060.9 L19189,-15962.5 L18872.5,-15692.1 L18872.4,-15692 L18872.4,-15692 L18795,-15704.1 L18795,-15704.1 L18794.9,-15704.1 L18746.9,-15771.7 L18746.9,-15771.7 L18746.9,-15771.8 L18780.7,-15882.5 L18780.7,-15882.5 L18780.8,-15882.6 L19071.3,-16097.5 L19071.3,-16097.5 L19575,-16278.7 L19575.1,-16278.7 L20314.1,-16159.9 L20314.1,-16159.9 L20314.2,-16159.8 L20794.4,-15471.9 L20794.4,-15471.9 L20794.5,-15471.8 L20687.2,-14603.7 L20687.2,-14603.7 L20687.2,-14603.7 L20107,-14158.2 L20106.9,-14158.1 L20106.9,-14158.1 L19639.1,-14181.3 L19639.1,-14181.3 L19299.3,-14278.5 L19299.3,-14278.5 L19178.4,-14332.3 L19155.8,-13314.7 M17664.8,-14435.5 L17664.8,-14435.5 L17638.7,-14077.6 L17638.7,-14077.6 L17526.9,-13729.1 L17526.9,-13729.1 L17354.5,-13403.4 L17354.4,-13403.3 L17132.6,-13196.4 L17132.6,-13196.4 L16799.7,-13082 L16799.6,-13082 L16213.3,-13197.4 L16213.3,-13197.4 L16213.3,-13197.5 L15745.3,-14028.8 L15745.3,-14028.9 L15755.2,-14477.9 L15755.2,-14477.9 L15793.6,-15348.4 L15793.6,-15348.5 L15905,-15699.5 L15905,-15699.5 L16078.7,-16024.3 L16078.7,-16024.4 L16299.2,-16229.7 L16299.3,-16229.7 L16633.4,-16344.1 L16633.5,-16344.1 L17218.1,-16228.7 L17218.2,-16228.7 L17218.2,-16228.6 L17686.2,-15398.1 L17686.2,-15398 L17676.3,-14950.6 L17664.8,-14435.5 M10367.5,-14263.2 L10367.5,-14263.1 L10367.5,-14263.1 L10367.5,-14263.1 L10367.4,-14263.1 L9688.67,-14288.1 L9688.63,-14288.1 L9688.59,-14288.1 L9638.43,-14353.6 L9638.41,-14353.7 L9638.41,-14353.7 L9651.07,-14440.2 L9651.08,-14440.2 L9651.11,-14440.2 L9730.64,-14488 L9730.69,-14488 L9780.22,-14486.9 L10164,-14478.4 L10202.5,-16211.8 L9612.99,-16234.4 L9612.95,-16234.4 L9612.91,-16234.4 L9562.69,-16297.1 L9562.67,-16297.1 L9562.66,-16297.1 L9575.22,-16379 L9575.24,-16379.1 L9575.27,-16379.1 L9654.75,-16424.8 L9654.8,-16424.8 L9704.33,-16423.7 L9704.33,-16423.7 L11423.6,-16375.6 L11423.7,-16375.6 L11423.7,-16375.6 L11475.9,-16310 L11476,-16310 L11476,-16309.9 L11463.3,-16223.9 L11463.3,-16223.9 L11463.3,-16223.8 L11383,-16178.1 L11382.9,-16178.1 L11331.7,-16179.2 L10410.6,-16199.7 L10912,-14588.9 L11273.2,-14399.2 L11447.6,-14406.1 L11585.6,-14485.6 L11698.6,-14590.9 L11698.6,-14590.9 L11736.1,-14604.5 L11736.1,-14604.5 L11809.8,-14592.6 L11809.8,-14592.5 L11809.9,-14592.5 L11860,-14524.1 L11860,-14524.1 L11860,-14524 L11860,-14524 L11803.7,-14387.7 L11803.6,-14387.7 L11803.6,-14387.7 L11470.9,-14186.5 L11470.8,-14186.5 L11470.8,-14186.5 L11109.6,-14229.7 L11109.5,-14229.7 L10644.4,-14537.7 L10644.4,-14537.8 L10379.2,-14788 L10367.5,-14263.2 M8723.69,-15422.2 L8723.73,-15422.2 L8723.76,-15422.2 L8723.78,-15422.1 L8723.78,-15422.1 L8604.7,-14783.4 L8604.69,-14783.4 L8604.66,-14783.4 L7873.31,-14244.2 L7873.27,-14244.2 L7873.24,-14244.2 L6928.37,-14373.4 L6928.33,-14373.4 L6928.31,-14373.4 L6384.4,-15077.6 L6384.38,-15077.6 L6384.38,-15077.7 L6524.03,-15991.8 L6524.05,-15991.8 L6524.08,-15991.8 L7311.79,-16558.6 L7311.82,-16558.7 L7311.86,-16558.7 L8088.27,-16505.5 L8088.31,-16505.5 L8628.65,-16272.5 L8628.68,-16272.5 L8744.53,-16133.7 L8744.55,-16133.6 L8744.55,-16133.6 L8732.86,-16053.3 L8732.84,-16053.3 L8732.82,-16053.3 L8668.93,-16003.1 L8668.9,-16003 L8668.85,-16003 L8592.36,-16017.1 L8592.32,-16017.1 L8318.89,-16199.9 L7819.03,-16339.1 L7149.02,-16271.8 L6646.18,-15737.5 L6603.9,-15469.3 L8723.69,-15422.2 M4591.2,-16537.3 L4241.35,-17293.2 L3505.27,-17319.1 L3505.23,-17319.1 L3505.19,-17319.1 L3452.94,-17383.4 L3452.92,-17383.5 L3452.92,-17383.5 L3465.6,-17471.2 L3465.62,-17471.2 L3465.65,-17471.3 L3545.13,-17517 L3545.18,-17517 L3594.71,-17515.9 L3594.71,-17515.9 L4878.15,-17477.5 L4878.2,-17477.5 L4878.23,-17477.4 L4930.46,-17411.9 L4930.47,-17411.8 L4930.48,-17411.8 L4917.83,-17325.8 L4917.81,-17325.7 L4917.78,-17325.7 L4838.3,-17280 L4838.25,-17279.9 L4788.72,-17281 L4464.46,-17288.3 L5844.39,-14571.5 L5891.72,-14546.9 L5891.76,-14546.9 L5923.53,-14490 L5923.54,-14490 L5923.54,-14489.9 L5911.07,-14411.7 L5911.05,-14411.7 L5911.02,-14411.7 L5830.67,-14363.9 L5830.62,-14363.9 L5779.44,-14365 L5779.44,-14365 L5127.51,-14389.4 L5127.46,-14389.4 L5127.43,-14389.5 L5075.2,-14455 L5075.19,-14455.1 L5075.18,-14455.1 L5087.84,-14541.6 L5087.86,-14541.6 L5087.89,-14541.6 L5167.41,-14589.4 L5167.47,-14589.4 L5217,-14588.3 L5496.68,-14582.1 L4697.69,-16306.7 L3810.49,-14619.6 L4174.99,-14601.6 L4175.03,-14601.6 L4175.06,-14601.5 L4227.29,-14536 L4227.31,-14535.9 L4227.31,-14535.9 L4214.65,-14449.4 L4214.64,-14449.4 L4214.61,-14449.4 L4135.08,-14401.6 L4135.03,-14401.6 L4085.5,-14402.7 L4085.5,-14402.7 L3452.83,-14420.5 L3452.78,-14420.5 L3404.68,-14448.8 L3404.66,-14448.8 L3404.64,-14448.8 L3379.01,-14503.5 L3379.01,-14503.5 L3379.01,-14503.6 L3391.43,-14579.3 L3391.44,-14579.3 L3391.47,-14579.3 L3471,-14627.1 L3471.05,-14627.1 L3520.58,-14626 L3582.43,-14624.7 L4591.2,-16537.3 M2132.53,-16591.9 L2132.54,-16591.9 L2132.56,-16592 L2132.6,-16592 L2132.64,-16592 L2707.79,-16569.3 L2707.83,-16569.3 L2707.87,-16569.3 L2760.09,-16503.7 L2760.11,-16503.6 L2760.11,-16503.6 L2747.47,-16417.6 L2747.45,-16417.5 L2747.42,-16417.5 L2667.11,-16371.8 L2667.06,-16371.8 L2615.88,-16372.9 L2338.61,-16379.1 L2227.65,-14693.9 L2227.64,-14693.8 L2227.61,-14693.8 L1721.8,-14380.9 L1721.77,-14380.9 L1721.74,-14380.9 L1133.1,-14428.6 L1133.08,-14428.6 L622.035,-14586.2 L622.006,-14586.2 L621.983,-14586.2 L575.517,-14650.9 L575.501,-14650.9 L575.499,-14650.9 L586.827,-14733.3 L586.839,-14733.3 L586.864,-14733.3 L648.639,-14781.5 L648.675,-14781.5 L648.714,-14781.5 L723.652,-14771.6 L723.667,-14771.6 L1292.22,-14601.2 L1824.73,-14631.5 L2094.78,-14893 L2097.31,-15006.9 L1852.05,-15303.4 L1522.86,-15279.8 L1522.84,-15279.8 L803.847,-15370.9 L803.814,-15370.9 L803.786,-15370.9 L352.087,-15857.5 L352.065,-15857.6 L352.062,-15857.6 L434.218,-16395.5 L434.233,-16395.5 L434.264,-16395.6 L916.772,-16700.8 L916.805,-16700.8 L916.841,-16700.8 L1829.5,-16553.3 L1829.55,-16553.3 L2125.88,-16292.5 L2132.53,-16591.9 M-1928.59,-13991.4 L-1348.57,-13969 L-1348.53,-13969 L-1348.49,-13969 L-1296.24,-13904.6 L-1296.22,-13904.6 L-1296.22,-13904.6 L-1308.9,-13816.9 L-1308.92,-13816.9 L-1308.95,-13816.8 L-1388.43,-13771.1 L-1388.48,-13771.1 L-1438.01,-13772.2 L-1438.01,-13772.2 L-2723.94,-13810.3 L-2723.98,-13810.3 L-2724.02,-13810.3 L-2776.27,-13874.6 L-2776.29,-13874.7 L-2776.29,-13874.7 L-2763.61,-13962.4 L-2763.59,-13962.4 L-2763.56,-13962.5 L-2684.08,-14008.2 L-2684.03,-14008.2 L-2634.5,-14007.1 L-2139.29,-13996.1 L-2084.15,-16477.4 L-2664.18,-16499.8 L-2664.22,-16499.8 L-2664.25,-16499.8 L-2716.5,-16564.1 L-2716.52,-16564.2 L-2716.52,-16564.2 L-2703.89,-16649.8 L-2703.87,-16649.9 L-2703.84,-16649.9 L-2624.31,-16697.7 L-2624.26,-16697.7 L-2574.73,-16696.6 L-276.52,-16645.5 L-276.482,-16645.5 L-276.45,-16645.5 L-276.429,-16645.5 L-276.423,-16645.4 L-311.268,-15523.4 L-311.279,-15523.3 L-311.307,-15523.3 L-376.843,-15473.1 L-376.879,-15473.1 L-376.919,-15473.1 L-463.358,-15485.8 L-463.399,-15485.8 L-463.43,-15485.8 L-511.217,-15565.3 L-511.232,-15565.4 L-510.131,-15614.9 L-491.752,-16442 L-1873.45,-16472.7 L-1928.59,-13991.4"/>
</g>

<g fill="none" stroke="#000000" stroke-opacity="1" stroke-width="1" stroke-linecap="square" stroke-linejoin="bevel" transform="matrix(0.999991,0,0,-0.999991,79974,71982.1)"
font-family="MS Shell Dlg 2" font-size="10.3125" font-weight="400" font-style="normal" 
>
</g>

<g fill="none" stroke="#000000" stroke-opacity="1" stroke-width="1" stroke-linecap="square" stroke-linejoin="bevel" transform="matrix(0.999991,0,0,-0.999991,79974,71982.1)"
font-family="MS Shell Dlg 2" font-size="10.3125" font-weight="400" font-style="normal" 
>
</g>

<g fill="#ae5151" fill-opacity="0.2" stroke="#333333" stroke-opacity="1" stroke-width="1" stroke-linecap="round" stroke-linejoin="round" transform="matrix(0.999991,0,0,-0.999991,79974,71982.1)"
font-family="MS Shell Dlg 2" font-size="10.3125" font-weight="400" font-style="normal" 
>
<path vector-effect="non-scaling-stroke" fill-rule="evenodd" d="M19198.6,-15241.4 L19425,-14839.1 L19820.4,-14533.9 L20298.2,-14594.3 L20638.7,-15050 L20587.2,-15686.6 L20174.7,-16057.1 L19646.2,-16004.4 L19268,-15540.4 L19198.6,-15241.4"/>
</g>

<g fill="none" stroke="#000000" stroke-opacity="1" stroke-width="1" stroke-linecap="square" stroke-linejoin="bevel" transform="matrix(0.999991,0,0,-0.999991,79974,71982.1)"
font-family="MS Shell Dlg 2" font-size="10.3125" font-weight="400" font-style="normal" 
>
</g>

<g fill="none" stroke="#000000" stroke-opacity="1" stroke-width="1" stroke-linecap="square" stroke-linejoin="bevel" transform="matrix(0.999991,0,0,-0.999991,79974,71982.1)"
font-family="MS Shell Dlg 2" font-size="10.3125" font-weight="400" font-style="normal" 
>
</g>

<g fill="#ae5151" fill-opacity="0.2" stroke="#333333" stroke-opacity="1" stroke-width="1" stroke-linecap="round" stroke-linejoin="round" transform="matrix(0.999991,0,0,-0.999991,79974,71982.1)"
font-family="MS Shell Dlg 2" font-size="10.3125" font-weight="400" font-style="normal" 
>
<path vector-effect="non-scaling-stroke" fill-rule="evenodd" d="M-79974.2,-25058.6 L-79974.2,71981.3 L29422.2,71981.3 L29422.2,-25058.6 L-79974.2,-25058.6 M-20392.4,-1239.47 L-20391.8,-1199.45 L-20386.7,-820.368 L-20344.2,2276.39 L-16748.9,2233.07 L-16748.9,2233.08 L-16748.9,2233.08 L-16748.8,2233.09 L-16748.8,2233.09 L-16748.8,2233.11 L-16748.8,2233.12 L-16748.8,2233.13 L7146.29,46003.6 L7146.3,46003.6 L7146.3,46003.6 L7146.3,46003.6 L7146.3,46003.6 L7146.29,46003.7 L7146.29,46003.7 L7146.28,46003.7 L5134.35,48780.1 L9926.87,51154.2 L9937.03,51136.1 L9937.04,51136.1 L9937.04,51136 L9937.07,51136 L9937.07,51136 L9937.1,51136 L9937.11,51136 L9937.13,51136 L9937.19,51136 L9937.21,51136 L9937.22,51136 L9937.24,51136 L10285.5,51330.8 L10320.4,51350.3 L10668.7,51545.1 L10668.7,51545.1 L10668.7,51545.1 L10668.7,51545.1 L10668.8,51545.2 L10668.8,51545.2 L10668.8,51545.2 L10668.8,51545.2 L10668.8,51545.2 L10668.8,51545.3 L10668.8,51545.3 L10668.8,51545.3 L10661.7,51557.9 L16652.6,55187.6 L16652.6,55187.6 L16652.6,55187.6 L16652.6,55187.6 L23422.4,64597 L23422.4,64597 L23422.4,64597.1 L23422.4,64597.1 L23422.4,64597.1 L23422.4,64597.1 L23422.4,64597.1 L23422.4,64597.2 L23422.4,64597.2 L23422.4,64597.2 L23422.4,64597.2 L23422.3,64597.2 L23422.3,64597.2 L23422.3,64597.2 L11629.8,63233.7 L11629.8,63233.7 L11629.8,63233.7 L11629.8,63233.7 L5334.96,61083.1 L5297.65,61149.8 L5297.64,61149.8 L5297.64,61149.8 L5297.61,61149.8 L5297.61,61149.8 L5297.57,61149.8 L5297.57,61149.8 L5297.55,61149.8 L5297.49,61149.8 L5297.46,61149.8 L5297.46,61149.8 L5297.44,61149.8 L4949.18,60955.1 L4914.24,60935.5 L4583.35,60750.5 L-1197.29,57517.8 L-4019.64,61412.6 L-4019.66,61412.7 L-4019.66,61412.7 L-4019.71,61412.7 L-4019.71,61412.7 L-4019.73,61412.7 L-50470,61189.4 L-50470,61189.4 L-50470,61189.4 L-50470,61189.4 L-50470,61189.4 L-50470.1,61189.3 L-50470.1,61189.3 L-50470.1,61189.3 L-51901.9,58564.2 L-55584.7,61015.5 L-55574.1,61033.4 L-55574.1,61033.4 L-55574.1,61033.4 L-55574.1,61033.4 L-55574.1,61033.4 L-55574.1,61033.5 L-55574.1,61033.5 L-55574.1,61033.5 L-55574.1,61033.5 L-55574.1,61033.5 L-55574.1,61033.5 L-55574.1,61033.6 L-55916.9,61237.8 L-55951.3,61258.3 L-56294.1,61462.5 L-56294.1,61462.5 L-56294.1,61462.5 L-56294.2,61462.5 L-56294.2,61462.5 L-56294.3,61462.5 L-56294.3,61462.5 L-56294.3,61462.5 L-56294.3,61462.5 L-56294.3,61462.5 L-56294.3,61462.5 L-56294.3,61462.5 L-56301.7,61450 L-62440.5,64823.4 L-62440.6,64823.4 L-62440.6,64823.4 L-62440.6,64823.4 L-73974.3,65981.5 L-73974.3,65981.5 L-73974.3,65981.5 L-73974.4,65981.5 L-73974.4,65981.5 L-73974.4,65981.5 L-73974.4,65981.5 L-73974.4,65981.5 L-73974.4,65981.5 L-73974.4,65981.4 L-73974.4,65981.4 L-73974.4,65981.4 L-73974.4,65981.4 L-73974.4,65981.4 L-66897.4,56450.5 L-66897.4,56450.5 L-66897.4,56450.5 L-66897.4,56450.5 L-61887.4,52074.3 L-61926.5,52008.7 L-61926.5,52008.7 L-61926.5,52008.7 L-61926.5,52008.6 L-61926.5,52008.6 L-61926.5,52008.6 L-61926.5,52008.6 L-61926.5,52008.6 L-61926.5,52008.5 L-61926.5,52008.5 L-61926.5,52008.5 L-61926.5,52008.5 L-61583.7,51804.2 L-61549.3,51783.8 L-61223.6,51589.7 L-57059.4,49108.9 L-59849.4,43993.8 L-59849.5,43993.8 L-59849.5,43993.8 L-59849.5,43993.7 L-59849.5,43993.7 L-59849.5,43993.7 L-59849.5,43993.7 L-59849.4,43993.7 L-35284.4,2456.45 L-35284.4,2456.43 L-35284.4,2456.43 L-35284.4,2456.41 L-35284.4,2456.41 L-35284.3,2456.4 L-35284.3,2456.39 L-35284.3,2456.39 L-31174.2,2406.87 L-31369,-649.857 L-31389.8,-649.572 L-31389.9,-649.573 L-31389.9,-649.574 L-31389.9,-649.586 L-31389.9,-649.587 L-31389.9,-649.61 L-31389.9,-649.613 L-31389.9,-649.627 L-31390,-649.683 L-31390,-649.707 L-31390,-649.711 L-31390,-649.736 L-31395.4,-1048.71 L-31396,-1088.74 L-31401.5,-1487.71 L-31401.5,-1487.74 L-31401.5,-1487.74 L-31401.4,-1487.77 L-31401.4,-1487.82 L-31401.4,-1487.84 L-31401.4,-1487.84 L-31401.4,-1487.86 L-31401.4,-1487.87 L-31401.3,-1487.88 L-31401.3,-1487.88 L-31401.3,-1487.88 L-31386.9,-1488.08 L-31238.9,-8491.14 L-31238.9,-8491.16 L-31238.9,-8491.17 L-31238.9,-8491.19 L-26475,-19058.7 L-26475,-19058.7 L-26475,-19058.7 L-26474.9,-19058.8 L-26474.9,-19058.8 L-26474.9,-19058.8 L-26474.9,-19058.8 L-26474.9,-19058.8 L-26474.9,-19058.8 L-26474.8,-19058.8 L-26474.8,-19058.8 L-26474.8,-19058.7 L-26474.8,-19058.7 L-26474.8,-19058.7 L-21759.3,-8164.42 L-21759.3,-8164.41 L-21759.3,-8164.41 L-21759.3,-8164.4 L-20474.4,-1637.57 L-20398,-1638.61 L-20398,-1638.61 L-20398,-1638.61 L-20398,-1638.6 L-20397.9,-1638.6 L-20397.9,-1638.57 L-20397.9,-1638.57 L-20397.9,-1638.56 L-20397.9,-1638.5 L-20397.9,-1638.48 L-20397.9,-1638.47 L-20397.9,-1638.45 L-20392.4,-1239.47 M19143.9,-14897.9 L19124.6,-14697.9 L19240.1,-13930.2 L20048.1,-13220.6 L20555.3,-13225.8 L20679.5,-13280.9 L20679.6,-13280.9 L20752,-13269.8 L20752.1,-13269.8 L20752.1,-13269.7 L20796.1,-13206.4 L20796.1,-13206.4 L20796.1,-13206.3 L20774,-13102.7 L20774,-13102.7 L20774,-13102.7 L20523.9,-12999.2 L20523.8,-12999.2 L19991.1,-13052.8 L19991,-13052.8 L19491.5,-13338.1 L19491.5,-13338.1 L19130.9,-13761.1 L19130.8,-13761.2 L18909.8,-14407 L18909.8,-14407 L18985.6,-15329.5 L18985.7,-15329.6 L19323.2,-16007.6 L19323.3,-16007.6 L19323.3,-16007.6 L19809.5,-16273.5 L19809.5,-16273.5 L19809.5,-16273.5 L20479.2,-16155.8 L20479.2,-16155.8 L20479.3,-16155.8 L20857.2,-15509.3 L20857.2,-15509.3 L20857.2,-15509.3 L20754.8,-14765.3 L20754.8,-14765.3 L20754.8,-14765.3 L20204.7,-14317 L20204.6,-14317 L20204.6,-14317 L19666.1,-14374.4 L19666.1,-14374.4 L19268.3,-14705.4 L19268.3,-14705.4 L19143.9,-14897.9 M17664.8,-14435.5 L17664.8,-14435.5 L17638.7,-14077.6 L17638.7,-14077.6 L17526.9,-13729.1 L17526.9,-13729.1 L17354.5,-13403.4 L17354.4,-13403.3 L17132.6,-13196.4 L17132.6,-13196.4 L16799.7,-13082 L16799.6,-13082 L16213.3,-13197.4 L16213.3,-13197.4 L16213.3,-13197.5 L15745.3,-14028.8 L15745.3,-14028.9 L15755.2,-14477.9 L15755.2,-14477.9 L15793.6,-15348.4 L15793.6,-15348.5 L15905,-15699.5 L15905,-15699.5 L16078.7,-16024.3 L16078.7,-16024.4 L16299.2,-16229.7 L16299.3,-16229.7 L16633.4,-16344.1 L16633.5,-16344.1 L17218.1,-16228.7 L17218.2,-16228.7 L17218.2,-16228.6 L17686.2,-15398.1 L17686.2,-15398 L17676.3,-14950.6 L17664.8,-14435.5 M10367.5,-14263.2 L10367.5,-14263.1 L10367.5,-14263.1 L10367.5,-14263.1 L10367.4,-14263.1 L9688.67,-14288.1 L9688.63,-14288.1 L9688.59,-14288.1 L9638.43,-14353.6 L9638.41,-14353.7 L9638.41,-14353.7 L9651.07,-14440.2 L9651.08,-14440.2 L9651.11,-14440.2 L9730.64,-14488 L9730.69,-14488 L9780.22,-14486.9 L10164,-14478.4 L10202.5,-16211.8 L9612.99,-16234.4 L9612.95,-16234.4 L9612.91,-16234.4 L9562.69,-16297.1 L9562.67,-16297.1 L9562.66,-16297.1 L9575.22,-16379 L9575.24,-16379.1 L9575.27,-16379.1 L9654.75,-16424.8 L9654.8,-16424.8 L9704.33,-16423.7 L9704.33,-16423.7 L11423.6,-16375.6 L11423.7,-16375.6 L11423.7,-16375.6 L11475.9,-16310 L11476,-16310 L11476,-16309.9 L11463.3,-16223.9 L11463.3,-16223.9 L11463.3,-16223.8 L11383,-16178.1 L11382.9,-16178.1 L11331.7,-16179.2 L10410.6,-16199.7 L10912,-14588.9 L11273.2,-14399.2 L11447.6,-14406.1 L11585.6,-14485.6 L11698.6,-14590.9 L11698.6,-14590.9 L11736.1,-14604.5 L11736.1,-14604.5 L11809.8,-14592.6 L11809.8,-14592.5 L11809.9,-14592.5 L11860,-14524.1 L11860,-14524.1 L11860,-14524 L11860,-14524 L11803.7,-14387.7 L11803.6,-14387.7 L11803.6,-14387.7 L11470.9,-14186.5 L11470.8,-14186.5 L11470.8,-14186.5 L11109.6,-14229.7 L11109.5,-14229.7 L10644.4,-14537.7 L10644.4,-14537.8 L10379.2,-14788 L10367.5,-14263.2 M8723.69,-15422.2 L8723.73,-15422.2 L8723.76,-15422.2 L8723.78,-15422.1 L8723.78,-15422.1 L8604.7,-14783.4 L8604.69,-14783.4 L8604.66,-14783.4 L7873.31,-14244.2 L7873.27,-14244.2 L7873.24,-14244.2 L6928.37,-14373.4 L6928.33,-14373.4 L6928.31,-14373.4 L6384.4,-15077.6 L6384.38,-15077.6 L6384.38,-15077.7 L6524.03,-15991.8 L6524.05,-15991.8 L6524.08,-15991.8 L7311.79,-16558.6 L7311.82,-16558.7 L7311.86,-16558.7 L8088.27,-16505.5 L8088.31,-16505.5 L8628.65,-16272.5 L8628.68,-16272.5 L8744.53,-16133.7 L8744.55,-16133.6 L8744.55,-16133.6 L8732.86,-16053.3 L8732.84,-16053.3 L8732.82,-16053.3 L8668.93,-16003.1 L8668.9,-16003 L8668.85,-16003 L8592.36,-16017.1 L8592.32,-16017.1 L8318.89,-16199.9 L7819.03,-16339.1 L7149.02,-16271.8 L6646.18,-15737.5 L6603.9,-15469.3 L8723.69,-15422.2 M4591.2,-16537.3 L4241.35,-17293.2 L3505.27,-17319.1 L3505.23,-17319.1 L3505.19,-17319.1 L3452.94,-17383.4 L3452.92,-17383.5 L3452.92,-17383.5 L3465.6,-17471.2 L3465.62,-17471.2 L3465.65,-17471.3 L3545.13,-17517 L3545.18,-17517 L3594.71,-17515.9 L3594.71,-17515.9 L4878.15,-17477.5 L4878.2,-17477.5 L4878.23,-17477.4 L4930.46,-17411.9 L4930.47,-17411.8 L4930.48,-17411.8 L4917.83,-17325.8 L4917.81,-17325.7 L4917.78,-17325.7 L4838.3,-17280 L4838.25,-17279.9 L4788.72,-17281 L4464.46,-17288.3 L5844.39,-14571.5 L5891.72,-14546.9 L5891.76,-14546.9 L5923.53,-14490 L5923.54,-14490 L5923.54,-14489.9 L5911.07,-14411.7 L5911.05,-14411.7 L5911.02,-14411.7 L5830.67,-14363.9 L5830.62,-14363.9 L5779.44,-14365 L5779.44,-14365 L5127.51,-14389.4 L5127.46,-14389.4 L5127.43,-14389.5 L5075.2,-14455 L5075.19,-14455.1 L5075.18,-14455.1 L5087.84,-14541.6 L5087.86,-14541.6 L5087.89,-14541.6 L5167.41,-14589.4 L5167.47,-14589.4 L5217,-14588.3 L5496.68,-14582.1 L4697.69,-16306.7 L3810.49,-14619.6 L4174.99,-14601.6 L4175.03,-14601.6 L4175.06,-14601.5 L4227.29,-14536 L4227.31,-14535.9 L4227.31,-14535.9 L4214.65,-14449.4 L4214.64,-14449.4 L4214.61,-14449.4 L4135.08,-14401.6 L4135.03,-14401.6 L4085.5,-14402.7 L4085.5,-14402.7 L3452.83,-14420.5 L3452.78,-14420.5 L3404.68,-14448.8 L3404.66,-14448.8 L3404.64,-14448.8 L3379.01,-14503.5 L3379.01,-14503.5 L3379.01,-14503.6 L3391.43,-14579.3 L3391.44,-14579.3 L3391.47,-14579.3 L3471,-14627.1 L3471.05,-14627.1 L3520.58,-14626 L3582.43,-14624.7 L4591.2,-16537.3 M2132.53,-16591.9 L2132.54,-16591.9 L2132.56,-16592 L2132.6,-16592 L2132.64,-16592 L2707.79,-16569.3 L2707.83,-16569.3 L2707.87,-16569.3 L2760.09,-16503.7 L2760.11,-16503.6 L2760.11,-16503.6 L2747.47,-16417.6 L2747.45,-16417.5 L2747.42,-16417.5 L2667.11,-16371.8 L2667.06,-16371.8 L2615.88,-16372.9 L2338.61,-16379.1 L2227.65,-14693.9 L2227.64,-14693.8 L2227.61,-14693.8 L1721.8,-14380.9 L1721.77,-14380.9 L1721.74,-14380.9 L1133.1,-14428.6 L1133.08,-14428.6 L622.035,-14586.2 L622.006,-14586.2 L621.983,-14586.2 L575.517,-14650.9 L575.501,-14650.9 L575.499,-14650.9 L586.827,-14733.3 L586.839,-14733.3 L586.864,-14733.3 L648.639,-14781.5 L648.675,-14781.5 L648.714,-14781.5 L723.652,-14771.6 L723.667,-14771.6 L1292.22,-14601.2 L1824.73,-14631.5 L2094.78,-14893 L2097.31,-15006.9 L1852.05,-15303.4 L1522.86,-15279.8 L1522.84,-15279.8 L803.847,-15370.9 L803.814,-15370.9 L803.786,-15370.9 L352.087,-15857.5 L352.065,-15857.6 L352.062,-15857.6 L434.218,-16395.5 L434.233,-16395.5 L434.264,-16395.6 L916.772,-16700.8 L916.805,-16700.8 L916.841,-16700.8 L1829.5,-16553.3 L1829.55,-16553.3 L2125.88,-16292.5 L2132.53,-16591.9 M-1928.59,-13991.4 L-1348.57,-13969 L-1348.53,-13969 L-1348.49,-13969 L-1296.24,-13904.6 L-1296.22,-13904.6 L-1296.22,-13904.6 L-1308.9,-13816.9 L-1308.92,-13816.9 L-1308.95,-13816.8 L-1388.43,-13771.1 L-1388.48,-13771.1 L-1438.01,-13772.2 L-1438.01,-13772.2 L-2723.94,-13810.3 L-2723.98,-13810.3 L-2724.02,-13810.3 L-2776.27,-13874.6 L-2776.29,-13874.7 L-2776.29,-13874.7 L-2763.61,-13962.4 L-2763.59,-13962.4 L-2763.56,-13962.5 L-2684.08,-14008.2 L-2684.03,-14008.2 L-2634.5,-14007.1 L-2139.29,-13996.1 L-2084.15,-16477.4 L-2664.18,-16499.8 L-2664.22,-16499.8 L-2664.25,-16499.8 L-2716.5,-16564.1 L-2716.52,-16564.2 L-2716.52,-16564.2 L-2703.89,-16649.8 L-2703.87,-16649.9 L-2703.84,-16649.9 L-2624.31,-16697.7 L-2624.26,-16697.7 L-2574.73,-16696.6 L-276.52,-16645.5 L-276.482,-16645.5 L-276.45,-16645.5 L-276.429,-16645.5 L-276.423,-16645.4 L-311.268,-15523.4 L-311.279,-15523.3 L-311.307,-15523.3 L-376.843,-15473.1 L-376.879,-15473.1 L-376.919,-15473.1 L-463.358,-15485.8 L-463.399,-15485.8 L-463.43,-15485.8 L-511.217,-15565.3 L-511.232,-15565.4 L-510.131,-15614.9 L-491.752,-16442 L-1873.45,-16472.7 L-1928.59,-13991.4"/>
</g>

<g fill="none" stroke="#000000" stroke-opacity="1" stroke-width="1" stroke-linecap="square" stroke-linejoin="bevel" transform="matrix(0.999991,0,0,-0.999991,79974,71982.1)"
font-family="MS Shell Dlg 2" font-size="10.3125" font-weight="400" font-style="normal" 
>
</g>

<g fill="none" stroke="#000000" stroke-opacity="1" stroke-width="1" stroke-linecap="square" stroke-linejoin="bevel" transform="matrix(0.999991,0,0,-0.999991,79974,71982.1)"
font-family="MS Shell Dlg 2" font-size="10.3125" font-weight="400" font-style="normal" 
>
</g>

<g fill="#333333" fill-opacity="0.2" stroke="#333333" stroke-opacity="1" stroke-width="1" stroke-linecap="round" stroke-linejoin="round" transform="matrix(0.999991,0,0,-0.999991,79974,71982.1)"
font-family="MS Shell Dlg 2" font-size="10.3125" font-weight="400" font-style="normal" 
>
<path vector-effect="non-scaling-stroke" fill-rule="evenodd" d="M-79974.2,-25058.6 L-79974.2,71981.3 L29422.2,71981.3 L29422.2,-25058.6 L-79974.2,-25058.6 M-20392.4,-1239.47 L-20391.8,-1199.45 L-20386.7,-820.368 L-20344.2,2276.39 L-16748.9,2233.07 L-16748.9,2233.08 L-16748.9,2233.08 L-16748.8,2233.09 L-16748.8,2233.09 L-16748.8,2233.11 L-16748.8,2233.12 L-16748.8,2233.13 L7146.29,46003.6 L7146.3,46003.6 L7146.3,46003.6 L7146.3,46003.6 L7146.3,46003.6 L7146.29,46003.7 L7146.29,46003.7 L7146.28,46003.7 L5134.35,48780.1 L9926.87,51154.2 L9937.03,51136.1 L9937.04,51136.1 L9937.04,51136 L9937.07,51136 L9937.07,51136 L9937.1,51136 L9937.11,51136 L9937.13,51136 L9937.19,51136 L9937.21,51136 L9937.22,51136 L9937.24,51136 L10285.5,51330.8 L10320.4,51350.3 L10668.7,51545.1 L10668.7,51545.1 L10668.7,51545.1 L10668.7,51545.1 L10668.8,51545.2 L10668.8,51545.2 L10668.8,51545.2 L10668.8,51545.2 L10668.8,51545.2 L10668.8,51545.3 L10668.8,51545.3 L10668.8,51545.3 L10661.7,51557.9 L16652.6,55187.6 L16652.6,55187.6 L16652.6,55187.6 L16652.6,55187.6 L23422.4,64597 L23422.4,64597 L23422.4,64597.1 L23422.4,64597.1 L23422.4,64597.1 L23422.4,64597.1 L23422.4,64597.1 L23422.4,64597.2 L23422.4,64597.2 L23422.4,64597.2 L23422.4,64597.2 L23422.3,64597.2 L23422.3,64597.2 L23422.3,64597.2 L11629.8,63233.7 L11629.8,63233.7 L11629.8,63233.7 L11629.8,63233.7 L5334.96,61083.1 L5297.65,61149.8 L5297.64,61149.8 L5297.64,61149.8 L5297.61,61149.8 L5297.61,61149.8 L5297.57,61149.8 L5297.57,61149.8 L5297.55,61149.8 L5297.49,61149.8 L5297.46,61149.8 L5297.46,61149.8 L5297.44,61149.8 L4949.18,60955.1 L4914.24,60935.5 L4583.35,60750.5 L-1197.29,57517.8 L-4019.64,61412.6 L-4019.66,61412.7 L-4019.66,61412.7 L-4019.71,61412.7 L-4019.71,61412.7 L-4019.73,61412.7 L-50470,61189.4 L-50470,61189.4 L-50470,61189.4 L-50470,61189.4 L-50470,61189.4 L-50470.1,61189.3 L-50470.1,61189.3 L-50470.1,61189.3 L-51901.9,58564.2 L-55584.7,61015.5 L-55574.1,61033.4 L-55574.1,61033.4 L-55574.1,61033.4 L-55574.1,61033.4 L-55574.1,61033.4 L-55574.1,61033.5 L-55574.1,61033.5 L-55574.1,61033.5 L-55574.1,61033.5 L-55574.1,61033.5 L-55574.1,61033.5 L-55574.1,61033.6 L-55916.9,61237.8 L-55951.3,61258.3 L-56294.1,61462.5 L-56294.1,61462.5 L-56294.1,61462.5 L-56294.2,61462.5 L-56294.2,61462.5 L-56294.3,61462.5 L-56294.3,61462.5 L-56294.3,61462.5 L-56294.3,61462.5 L-56294.3,61462.5 L-56294.3,61462.5 L-56294.3,61462.5 L-56301.7,61450 L-62440.5,64823.4 L-62440.6,64823.4 L-62440.6,64823.4 L-62440.6,64823.4 L-73974.3,65981.5 L-73974.3,65981.5 L-73974.3,65981.5 L-73974.4,65981.5 L-73974.4,65981.5 L-73974.4,65981.5 L-73974.4,65981.5 L-73974.4,65981.5 L-73974.4,65981.5 L-73974.4,65981.4 L-73974.4,65981.4 L-73974.4,65981.4 L-73974.4,65981.4 L-73974.4,65981.4 L-66897.4,56450.5 L-66897.4,56450.5 L-66897.4,56450.5 L-66897.4,56450.5 L-61887.4,52074.3 L-61926.5,52008.7 L-61926.5,52008.7 L-61926.5,52008.7 L-61926.5,52008.6 L-61926.5,52008.6 L-61926.5,52008.6 L-61926.5,52008.6 L-61926.5,52008.6 L-61926.5,52008.5 L-61926.5,52008.5 L-61926.5,52008.5 L-61926.5,52008.5 L-61583.7,51804.2 L-61549.3,51783.8 L-61223.6,51589.7 L-57059.4,49108.9 L-59849.4,43993.8 L-59849.5,43993.8 L-59849.5,43993.8 L-59849.5,43993.7 L-59849.5,43993.7 L-59849.5,43993.7 L-59849.5,43993.7 L-59849.4,43993.7 L-35284.4,2456.45 L-35284.4,2456.43 L-35284.4,2456.43 L-35284.4,2456.41 L-35284.4,2456.41 L-35284.3,2456.4 L-35284.3,2456.39 L-35284.3,2456.39 L-31174.2,2406.87 L-31369,-649.857 L-31389.8,-649.572 L-31389.9,-649.573 L-31389.9,-649.574 L-31389.9,-649.586 L-31389.9,-649.587 L-31389.9,-649.61 L-31389.9,-649.613 L-31389.9,-649.627 L-31390,-649.683 L-31390,-649.707 L-31390,-649.711 L-31390,-649.736 L-31395.4,-1048.71 L-31396,-1088.74 L-31401.5,-1487.71 L-31401.5,-1487.74 L-31401.5,-1487.74 L-31401.4,-1487.77 L-31401.4,-1487.82 L-31401.4,-1487.84 L-31401.4,-1487.84 L-31401.4,-1487.86 L-31401.4,-1487.87 L-31401.3,-1487.88 L-31401.3,-1487.88 L-31401.3,-1487.88 L-31386.9,-1488.08 L-31238.9,-8491.14 L-31238.9,-8491.16 L-31238.9,-8491.17 L-31238.9,-8491.19 L-26475,-19058.7 L-26475,-19058.7 L-26475,-19058.7 L-26474.9,-19058.8 L-26474.9,-19058.8 L-26474.9,-19058.8 L-26474.9,-19058.8 L-26474.9,-19058.8 L-26474.9,-19058.8 L-26474.8,-19058.8 L-26474.8,-19058.8 L-26474.8,-19058.7 L-26474.8,-19058.7 L-26474.8,-19058.7 L-21759.3,-8164.42 L-21759.3,-8164.41 L-21759.3,-8164.41 L-21759.3,-8164.4 L-20474.4,-1637.57 L-20398,-1638.61 L-20398,-1638.61 L-20398,-1638.61 L-20398,-1638.6 L-20397.9,-1638.6 L-20397.9,-1638.57 L-20397.9,-1638.57 L-20397.9,-1638.56 L-20397.9,-1638.5 L-20397.9,-1638.48 L-20397.9,-1638.47 L-20397.9,-1638.45 L-20392.4,-1239.47 M20430.6,-13380.5 L19650.9,-16091.9 L19650.9,-16091.9 L19662.3,-16157.8 L19662.3,-16157.8 L19662.3,-16157.8 L19727.8,-16205.9 L19727.9,-16205.9 L19727.9,-16205.9 L19801.2,-16197.3 L19801.3,-16197.3 L19801.3,-16197.3 L19852,-16139.6 L19852.1,-16139.5 L19864.3,-16096.3 L20641.9,-13403.1 L20641.9,-13403 L20634.6,-13071.2 L20634.6,-13071.1 L20634.5,-13071.1 L20634.5,-13071.1 L20634.5,-13071.1 L18725.1,-13113.5 L18725,-13113.5 L18725,-13113.5 L18725,-13113.6 L18725,-13113.6 L18745.5,-13592.2 L18745.5,-13592.2 L18745.5,-13592.3 L18811.1,-13644.5 L18811.2,-13644.5 L18811.2,-13644.5 L18897.2,-13631.9 L18897.3,-13631.8 L18897.3,-13631.8 L18943,-13552.3 L18943,-13552.3 L18941.9,-13502.8 L18937.9,-13319.6 L20428.5,-13286.5 L20430.6,-13380.5 M17664.8,-14435.5 L17664.8,-14435.5 L17638.7,-14077.6 L17638.7,-14077.6 L17526.9,-13729.1 L17526.9,-13729.1 L17354.5,-13403.4 L17354.4,-13403.3 L17132.6,-13196.4 L17132.6,-13196.4 L16799.7,-13082 L16799.6,-13082 L16213.3,-13197.4 L16213.3,-13197.4 L16213.3,-13197.5 L15745.3,-14028.8 L15745.3,-14028.9 L15755.2,-14477.9 L15755.2,-14477.9 L15793.6,-15348.4 L15793.6,-15348.5 L15905,-15699.5 L15905,-15699.5 L16078.7,-16024.3 L16078.7,-16024.4 L16299.2,-16229.7 L16299.3,-16229.7 L16633.4,-16344.1 L16633.5,-16344.1 L17218.1,-16228.7 L17218.2,-16228.7 L17218.2,-16228.6 L17686.2,-15398.1 L17686.2,-15398 L17676.3,-14950.6 L17664.8,-14435.5 M10367.5,-14263.2 L10367.5,-14263.1 L10367.5,-14263.1 L10367.5,-14263.1 L10367.4,-14263.1 L9688.67,-14288.1 L9688.63,-14288.1 L9688.59,-14288.1 L9638.43,-14353.6 L9638.41,-14353.7 L9638.41,-14353.7 L9651.07,-14440.2 L9651.08,-14440.2 L9651.11,-14440.2 L9730.64,-14488 L9730.69,-14488 L9780.22,-14486.9 L10164,-14478.4 L10202.5,-16211.8 L9612.99,-16234.4 L9612.95,-16234.4 L9612.91,-16234.4 L9562.69,-16297.1 L9562.67,-16297.1 L9562.66,-16297.1 L9575.22,-16379 L9575.24,-16379.1 L9575.27,-16379.1 L9654.75,-16424.8 L9654.8,-16424.8 L9704.33,-16423.7 L9704.33,-16423.7 L11423.6,-16375.6 L11423.7,-16375.6 L11423.7,-16375.6 L11475.9,-16310 L11476,-16310 L11476,-16309.9 L11463.3,-16223.9 L11463.3,-16223.9 L11463.3,-16223.8 L11383,-16178.1 L11382.9,-16178.1 L11331.7,-16179.2 L10410.6,-16199.7 L10912,-14588.9 L11273.2,-14399.2 L11447.6,-14406.1 L11585.6,-14485.6 L11698.6,-14590.9 L11698.6,-14590.9 L11736.1,-14604.5 L11736.1,-14604.5 L11809.8,-14592.6 L11809.8,-14592.5 L11809.9,-14592.5 L11860,-14524.1 L11860,-14524.1 L11860,-14524 L11860,-14524 L11803.7,-14387.7 L11803.6,-14387.7 L11803.6,-14387.7 L11470.9,-14186.5 L11470.8,-14186.5 L11470.8,-14186.5 L11109.6,-14229.7 L11109.5,-14229.7 L10644.4,-14537.7 L10644.4,-14537.8 L10379.2,-14788 L10367.5,-14263.2 M8723.69,-15422.2 L8723.73,-15422.2 L8723.76,-15422.2 L8723.78,-15422.1 L8723.78,-15422.1 L8604.7,-14783.4 L8604.69,-14783.4 L8604.66,-14783.4 L7873.31,-14244.2 L7873.27,-14244.2 L7873.24,-14244.2 L6928.37,-14373.4 L6928.33,-14373.4 L6928.31,-14373.4 L6384.4,-15077.6 L6384.38,-15077.6 L6384.38,-15077.7 L6524.03,-15991.8 L6524.05,-15991.8 L6524.08,-15991.8 L7311.79,-16558.6 L7311.82,-16558.7 L7311.86,-16558.7 L8088.27,-16505.5 L8088.31,-16505.5 L8628.65,-16272.5 L8628.68,-16272.5 L8744.53,-16133.7 L8744.55,-16133.6 L8744.55,-16133.6 L8732.86,-16053.3 L8732.84,-16053.3 L8732.82,-16053.3 L8668.93,-16003.1 L8668.9,-16003 L8668.85,-16003 L8592.36,-16017.1 L8592.32,-16017.1 L8318.89,-16199.9 L7819.03,-16339.1 L7149.02,-16271.8 L6646.18,-15737.5 L6603.9,-15469.3 L8723.69,-15422.2 M4591.2,-16537.3 L4241.35,-17293.2 L3505.27,-17319.1 L3505.23,-17319.1 L3505.19,-17319.1 L3452.94,-17383.4 L3452.92,-17383.5 L3452.92,-17383.5 L3465.6,-17471.2 L3465.62,-17471.2 L3465.65,-17471.3 L3545.13,-17517 L3545.18,-17517 L3594.71,-17515.9 L3594.71,-17515.9 L4878.15,-17477.5 L4878.2,-17477.5 L4878.23,-17477.4 L4930.46,-17411.9 L4930.47,-17411.8 L4930.48,-17411.8 L4917.83,-17325.8 L4917.81,-17325.7 L4917.78,-17325.7 L4838.3,-17280 L4838.25,-17279.9 L4788.72,-17281 L4464.46,-17288.3 L5844.39,-14571.5 L5891.72,-14546.9 L5891.76,-14546.9 L5923.53,-14490 L5923.54,-14490 L5923.54,-14489.9 L5911.07,-14411.7 L5911.05,-14411.7 L5911.02,-14411.7 L5830.67,-14363.9 L5830.62,-14363.9 L5779.44,-14365 L5779.44,-14365 L5127.51,-14389.4 L5127.46,-14389.4 L5127.43,-14389.5 L5075.2,-14455 L5075.19,-14455.1 L5075.18,-14455.1 L5087.84,-14541.6 L5087.86,-14541.6 L5087.89,-14541.6 L5167.41,-14589.4 L5167.47,-14589.4 L5217,-14588.3 L5496.68,-14582.1 L4697.69,-16306.7 L3810.49,-14619.6 L4174.99,-14601.6 L4175.03,-14601.6 L4175.06,-14601.5 L4227.29,-14536 L4227.31,-14535.9 L4227.31,-14535.9 L4214.65,-14449.4 L4214.64,-14449.4 L4214.61,-14449.4 L4135.08,-14401.6 L4135.03,-14401.6 L4085.5,-14402.7 L4085.5,-14402.7 L3452.83,-14420.5 L3452.78,-14420.5 L3404.68,-14448.8 L3404.66,-14448.8 L3404.64,-14448.8 L3379.01,-14503.5 L3379.01,-14503.5 L3379.01,-14503.6 L3391.43,-14579.3 L3391.44,-14579.3 L3391.47,-14579.3 L3471,-14627.1 L3471.05,-14627.1 L3520.58,-14626 L3582.43,-14624.7 L4591.2,-16537.3 M2132.53,-16591.9 L2132.54,-16591.9 L2132.56,-16592 L2132.6,-16592 L2132.64,-16592 L2707.79,-16569.3 L2707.83,-16569.3 L2707.87,-16569.3 L2760.09,-16503.7 L2760.11,-16503.6 L2760.11,-16503.6 L2747.47,-16417.6 L2747.45,-16417.5 L2747.42,-16417.5 L2667.11,-16371.8 L2667.06,-16371.8 L2615.88,-16372.9 L2338.61,-16379.1 L2227.65,-14693.9 L2227.64,-14693.8 L2227.61,-14693.8 L1721.8,-14380.9 L1721.77,-14380.9 L1721.74,-14380.9 L1133.1,-14428.6 L1133.08,-14428.6 L622.035,-14586.2 L622.006,-14586.2 L621.983,-14586.2 L575.517,-14650.9 L575.501,-14650.9 L575.499,-14650.9 L586.827,-14733.3 L586.839,-14733.3 L586.864,-14733.3 L648.639,-14781.5 L648.675,-14781.5 L648.714,-14781.5 L723.652,-14771.6 L723.667,-14771.6 L1292.22,-14601.2 L1824.73,-14631.5 L2094.78,-14893 L2097.31,-15006.9 L1852.05,-15303.4 L1522.86,-15279.8 L1522.84,-15279.8 L803.847,-15370.9 L803.814,-15370.9 L803.786,-15370.9 L352.087,-15857.5 L352.065,-15857.6 L352.062,-15857.6 L434.218,-16395.5 L434.233,-16395.5 L434.264,-16395.6 L916.772,-16700.8 L916.805,-16700.8 L916.841,-16700.8 L1829.5,-16553.3 L1829.55,-16553.3 L2125.88,-16292.5 L2132.53,-16591.9 M-1928.59,-13991.4 L-1348.57,-13969 L-1348.53,-13969 L-1348.49,-13969 L-1296.24,-13904.6 L-1296.22,-13904.6 L-1296.22,-13904.6 L-1308.9,-13816.9 L-1308.92,-13816.9 L-1308.95,-13816.8 L-1388.43,-13771.1 L-1388.48,-13771.1 L-1438.01,-13772.2 L-1438.01,-13772.2 L-2723.94,-13810.3 L-2723.98,-13810.3 L-2724.02,-13810.3 L-2776.27,-13874.6 L-2776.29,-13874.7 L-2776.29,-13874.7 L-2763.61,-13962.4 L-2763.59,-13962.4 L-2763.56,-13962.5 L-2684.08,-14008.2 L-2684.03,-14008.2 L-2634.5,-14007.1 L-2139.29,-13996.1 L-2084.15,-16477.4 L-2664.18,-16499.8 L-2664.22,-16499.8 L-2664.25,-16499.8 L-2716.5,-16564.1 L-2716.52,-16564.2 L-2716.52,-16564.2 L-2703.89,-16649.8 L-2703.87,-16649.9 L-2703.84,-16649.9 L-2624.31,-16697.7 L-2624.26,-16697.7 L-2574.73,-16696.6 L-276.52,-16645.5 L-276.482,-16645.5 L-276.45,-16645.5 L-276.429,-16645.5 L-276.423,-16645.4 L-311.268,-15523.4 L-311.279,-15523.3 L-311.307,-15523.3 L-376.843,-15473.1 L-376.879,-15473.1 L-376.919,-15473.1 L-463.358,-15485.8 L-463.399,-15485.8 L-463.43,-15485.8 L-511.217,-15565.3 L-511.232,-15565.4 L-510.131,-15614.9 L-491.752,-16442 L-1873.45,-16472.7 L-1928.59,-13991.4"/>
</g>

<g fill="none" stroke="#000000" stroke-opacity="1" stroke-width="1" stroke-linecap="square" stroke-linejoin="bevel" transform="matrix(0.999991,0,0,-0.999991,79974,71982.1)"
font-family="MS Shell Dlg 2" font-size="10.3125" font-weight="400" font-style="normal" 
>
</g>

<g fill="none" stroke="#000000" stroke-opacity="1" stroke-width="1" stroke-linecap="square" stroke-linejoin="bevel" transform="matrix(1,0,0,-1,0,97040.9)"
font-family="MS Shell Dlg 2" font-size="10.3125" font-weight="400" font-style="normal" 
>
</g>
</g>
</svg>
