<?xml version="1.0" encoding="UTF-8" standalone="no"?>
<svg width="418.536mm" height="798.124mm"
 xmlns="http://www.w3.org/2000/svg" xmlns:xlink="http://www.w3.org/1999/xlink"  version="1.2" baseProfile="tiny">
<title>SVG Generator Example Drawing</title>
<desc>An SVG drawing created by the SVG Generator</desc>
<defs>
</defs>
<g fill="none" stroke="black" stroke-width="1" fill-rule="evenodd" stroke-linecap="square" stroke-linejoin="bevel" >

<g fill="none" stroke="#000000" stroke-opacity="1" stroke-width="1" stroke-linecap="square" stroke-linejoin="bevel" transform="matrix(1,0,0,-1,0,2828.47)"
font-family="MS Shell Dlg 2" font-size="10.3125" font-weight="400" font-style="normal" 
>
</g>

<g fill="none" stroke="#000000" stroke-opacity="1" stroke-width="1" stroke-linecap="square" stroke-linejoin="bevel" transform="matrix(1,0,0,-1,0,2828.47)"
font-family="MS Shell Dlg 2" font-size="10.3125" font-weight="400" font-style="normal" 
>
</g>

<g fill="none" stroke="#000000" stroke-opacity="1" stroke-width="1" stroke-linecap="square" stroke-linejoin="bevel" transform="matrix(0.999353,0,0,-0.999353,-15963.4,-13289.6)"
font-family="MS Shell Dlg 2" font-size="10.3125" font-weight="400" font-style="normal" 
>
</g>

<g fill="#333333" fill-opacity="0.2" stroke="#333333" stroke-opacity="1" stroke-width="1" stroke-linecap="round" stroke-linejoin="round" transform="matrix(0.999353,0,0,-0.999353,-15963.4,-13289.6)"
font-family="MS Shell Dlg 2" font-size="10.3125" font-weight="400" font-style="normal" 
>
<path vector-effect="non-scaling-stroke" fill-rule="evenodd" d="M17457.2,-14467.4 L17414.6,-15521.7 L16982.1,-16128 L16525,-16108.4 L16308.8,-15963.8 L16128.5,-15675.4 L15978.6,-15155.2 L15974.3,-14958.7 L16016.9,-13904.8 L16450.2,-13300.5 L16906.5,-13319.3 L17123.6,-13463.1 L17303,-13752.7 L17452.8,-14270.9 L17457.2,-14467.4"/>
</g>

<g fill="none" stroke="#000000" stroke-opacity="1" stroke-width="1" stroke-linecap="square" stroke-linejoin="bevel" transform="matrix(0.999353,0,0,-0.999353,-15963.4,-13289.6)"
font-family="MS Shell Dlg 2" font-size="10.3125" font-weight="400" font-style="normal" 
>
</g>

<g fill="none" stroke="#000000" stroke-opacity="1" stroke-width="1" stroke-linecap="square" stroke-linejoin="bevel" transform="matrix(0.999353,0,0,-0.999353,-15963.4,-13289.6)"
font-family="MS Shell Dlg 2" font-size="10.3125" font-weight="400" font-style="normal" 
>
</g>

<g fill="#ae5151" fill-opacity="0.2" stroke="#333333" stroke-opacity="1" stroke-width="1" stroke-linecap="round" stroke-linejoin="round" transform="matrix(0.999353,0,0,-0.999353,-15963.4,-13289.6)"
font-family="MS Shell Dlg 2" font-size="10.3125" font-weight="400" font-style="normal" 
>
<path vector-effect="non-scaling-stroke" fill-rule="evenodd" d="M17457.2,-14467.4 L17414.6,-15521.7 L16982.1,-16128 L16525,-16108.4 L16308.8,-15963.8 L16128.5,-15675.4 L15978.6,-15155.2 L15974.3,-14958.7 L16016.9,-13904.8 L16450.2,-13300.5 L16906.5,-13319.3 L17123.6,-13463.1 L17303,-13752.7 L17452.8,-14270.9 L17457.2,-14467.4"/>
</g>

<g fill="none" stroke="#000000" stroke-opacity="1" stroke-width="1" stroke-linecap="square" stroke-linejoin="bevel" transform="matrix(0.999353,0,0,-0.999353,-15963.4,-13289.6)"
font-family="MS Shell Dlg 2" font-size="10.3125" font-weight="400" font-style="normal" 
>
</g>

<g fill="none" stroke="#000000" stroke-opacity="1" stroke-width="1" stroke-linecap="square" stroke-linejoin="bevel" transform="matrix(0.999353,0,0,-0.999353,-15963.4,-13289.6)"
font-family="MS Shell Dlg 2" font-size="10.3125" font-weight="400" font-style="normal" 
>
</g>

<g fill="#ffff00" fill-opacity="0.2" stroke="#333333" stroke-opacity="1" stroke-width="1" stroke-linecap="round" stroke-linejoin="round" transform="matrix(0.999353,0,0,-0.999353,-15963.4,-13289.6)"
font-family="MS Shell Dlg 2" font-size="10.3125" font-weight="400" font-style="normal" 
>
<path vector-effect="non-scaling-stroke" fill-rule="evenodd" d="M17457.2,-14467.4 L17414.6,-15521.7 L16982.1,-16128 L16525,-16108.4 L16308.8,-15963.8 L16128.5,-15675.4 L15978.6,-15155.2 L15974.3,-14958.7 L16016.9,-13904.8 L16450.2,-13300.5 L16906.5,-13319.3 L17123.6,-13463.1 L17303,-13752.7 L17452.8,-14270.9 L17457.2,-14467.4"/>
</g>

<g fill="none" stroke="#000000" stroke-opacity="1" stroke-width="1" stroke-linecap="square" stroke-linejoin="bevel" transform="matrix(0.999353,0,0,-0.999353,-15963.4,-13289.6)"
font-family="MS Shell Dlg 2" font-size="10.3125" font-weight="400" font-style="normal" 
>
</g>

<g fill="none" stroke="#000000" stroke-opacity="1" stroke-width="1" stroke-linecap="square" stroke-linejoin="bevel" transform="matrix(0.999353,0,0,-0.999353,-15963.4,-13289.6)"
font-family="MS Shell Dlg 2" font-size="10.3125" font-weight="400" font-style="normal" 
>
</g>

<g fill="#ae5151" fill-opacity="0.2" stroke="#333333" stroke-opacity="1" stroke-width="1" stroke-linecap="round" stroke-linejoin="round" transform="matrix(0.999353,0,0,-0.999353,-15963.4,-13289.6)"
font-family="MS Shell Dlg 2" font-size="10.3125" font-weight="400" font-style="normal" 
>
<path vector-effect="non-scaling-stroke" fill-rule="evenodd" d="M17457.2,-14467.4 L17414.6,-15521.7 L16982.1,-16128 L16525,-16108.4 L16308.8,-15963.8 L16128.5,-15675.4 L15978.6,-15155.2 L15974.3,-14958.7 L16016.9,-13904.8 L16450.2,-13300.5 L16906.5,-13319.3 L17123.6,-13463.1 L17303,-13752.7 L17452.8,-14270.9 L17457.2,-14467.4"/>
</g>

<g fill="none" stroke="#000000" stroke-opacity="1" stroke-width="1" stroke-linecap="square" stroke-linejoin="bevel" transform="matrix(0.999353,0,0,-0.999353,-15963.4,-13289.6)"
font-family="MS Shell Dlg 2" font-size="10.3125" font-weight="400" font-style="normal" 
>
</g>

<g fill="none" stroke="#000000" stroke-opacity="1" stroke-width="1" stroke-linecap="square" stroke-linejoin="bevel" transform="matrix(0.999353,0,0,-0.999353,-15963.4,-13289.6)"
font-family="MS Shell Dlg 2" font-size="10.3125" font-weight="400" font-style="normal" 
>
</g>

<g fill="#333333" fill-opacity="0.2" stroke="#333333" stroke-opacity="1" stroke-width="1" stroke-linecap="round" stroke-linejoin="round" transform="matrix(0.999353,0,0,-0.999353,-15963.4,-13289.6)"
font-family="MS Shell Dlg 2" font-size="10.3125" font-weight="400" font-style="normal" 
>
<path vector-effect="non-scaling-stroke" fill-rule="evenodd" d="M17457.2,-14467.4 L17414.6,-15521.7 L16982.1,-16128 L16525,-16108.4 L16308.8,-15963.8 L16128.5,-15675.4 L15978.6,-15155.2 L15974.3,-14958.7 L16016.9,-13904.8 L16450.2,-13300.5 L16906.5,-13319.3 L17123.6,-13463.1 L17303,-13752.7 L17452.8,-14270.9 L17457.2,-14467.4"/>
</g>

<g fill="none" stroke="#000000" stroke-opacity="1" stroke-width="1" stroke-linecap="square" stroke-linejoin="bevel" transform="matrix(0.999353,0,0,-0.999353,-15963.4,-13289.6)"
font-family="MS Shell Dlg 2" font-size="10.3125" font-weight="400" font-style="normal" 
>
</g>

<g fill="none" stroke="#000000" stroke-opacity="1" stroke-width="1" stroke-linecap="square" stroke-linejoin="bevel" transform="matrix(0.999353,0,0,-0.999353,-15963.4,-13289.6)"
font-family="MS Shell Dlg 2" font-size="10.3125" font-weight="400" font-style="normal" 
>
</g>

<g fill="#ae5151" fill-opacity="0.2" stroke="#333333" stroke-opacity="1" stroke-width="1" stroke-linecap="round" stroke-linejoin="round" transform="matrix(0.999353,0,0,-0.999353,-15963.4,-13289.6)"
font-family="MS Shell Dlg 2" font-size="10.3125" font-weight="400" font-style="normal" 
>
<path vector-effect="non-scaling-stroke" fill-rule="evenodd" d="M17457.2,-14467.4 L17414.6,-15521.7 L16982.1,-16128 L16525,-16108.4 L16308.8,-15963.8 L16128.5,-15675.4 L15978.6,-15155.2 L15974.3,-14958.7 L16016.9,-13904.8 L16450.2,-13300.5 L16906.5,-13319.3 L17123.6,-13463.1 L17303,-13752.7 L17452.8,-14270.9 L17457.2,-14467.4"/>
</g>

<g fill="none" stroke="#000000" stroke-opacity="1" stroke-width="1" stroke-linecap="square" stroke-linejoin="bevel" transform="matrix(0.999353,0,0,-0.999353,-15963.4,-13289.6)"
font-family="MS Shell Dlg 2" font-size="10.3125" font-weight="400" font-style="normal" 
>
</g>

<g fill="none" stroke="#000000" stroke-opacity="1" stroke-width="1" stroke-linecap="square" stroke-linejoin="bevel" transform="matrix(0.999353,0,0,-0.999353,-15963.4,-13289.6)"
font-family="MS Shell Dlg 2" font-size="10.3125" font-weight="400" font-style="normal" 
>
</g>

<g fill="#333333" fill-opacity="0.2" stroke="#333333" stroke-opacity="1" stroke-width="1" stroke-linecap="round" stroke-linejoin="round" transform="matrix(0.999353,0,0,-0.999353,-15963.4,-13289.6)"
font-family="MS Shell Dlg 2" font-size="10.3125" font-weight="400" font-style="normal" 
>
<path vector-effect="non-scaling-stroke" fill-rule="evenodd" d="M17457.2,-14467.4 L17414.6,-15521.7 L16982.1,-16128 L16525,-16108.4 L16308.8,-15963.8 L16128.5,-15675.4 L15978.6,-15155.2 L15974.3,-14958.7 L16016.9,-13904.8 L16450.2,-13300.5 L16906.5,-13319.3 L17123.6,-13463.1 L17303,-13752.7 L17452.8,-14270.9 L17457.2,-14467.4"/>
</g>

<g fill="none" stroke="#000000" stroke-opacity="1" stroke-width="1" stroke-linecap="square" stroke-linejoin="bevel" transform="matrix(0.999353,0,0,-0.999353,-15963.4,-13289.6)"
font-family="MS Shell Dlg 2" font-size="10.3125" font-weight="400" font-style="normal" 
>
</g>

<g fill="none" stroke="#000000" stroke-opacity="1" stroke-width="1" stroke-linecap="square" stroke-linejoin="bevel" transform="matrix(1,0,0,-1,0,2828.47)"
font-family="MS Shell Dlg 2" font-size="10.3125" font-weight="400" font-style="normal" 
>
</g>
</g>
</svg>
