<?xml version="1.0" encoding="UTF-8" standalone="no"?>
<svg width="27487.6mm" height="24000.5mm"
 xmlns="http://www.w3.org/2000/svg" xmlns:xlink="http://www.w3.org/1999/xlink"  version="1.2" baseProfile="tiny">
<title>SVG Generator Example Drawing</title>
<desc>An SVG drawing created by the SVG Generator</desc>
<defs>
</defs>
<g fill="none" stroke="black" stroke-width="1" fill-rule="evenodd" stroke-linecap="square" stroke-linejoin="bevel" >

<g fill="none" stroke="#000000" stroke-opacity="1" stroke-width="1" stroke-linecap="square" stroke-linejoin="bevel" transform="matrix(1,0,0,-1,0,85041.1)"
font-family="MS Shell Dlg 2" font-size="10.3125" font-weight="400" font-style="normal" 
>
</g>

<g fill="none" stroke="#000000" stroke-opacity="1" stroke-width="1" stroke-linecap="square" stroke-linejoin="bevel" transform="matrix(1,0,0,-1,0,85041.1)"
font-family="MS Shell Dlg 2" font-size="10.3125" font-weight="400" font-style="normal" 
>
</g>

<g fill="none" stroke="#000000" stroke-opacity="1" stroke-width="1" stroke-linecap="square" stroke-linejoin="bevel" transform="matrix(0.999994,0,0,-0.999994,73974.3,65982.1)"
font-family="MS Shell Dlg 2" font-size="10.3125" font-weight="400" font-style="normal" 
>
</g>

<g fill="#333333" fill-opacity="0.2" stroke="#333333" stroke-opacity="1" stroke-width="1" stroke-linecap="round" stroke-linejoin="round" transform="matrix(0.999994,0,0,-0.999994,73974.3,65982.1)"
font-family="MS Shell Dlg 2" font-size="10.3125" font-weight="400" font-style="normal" 
>
<path vector-effect="non-scaling-stroke" fill-rule="evenodd" d="M-29204,-1118.71 L-29204,-1118.76 L-29209.2,-1497.84 L-22589.6,-1588.52 L-22584.4,-1209.44 L-22584.4,-1209.39 L-20392.5,-1239.41 L-20392.5,-1239.47 L-20398,-1638.45 L-20398,-1638.5 L-20474.5,-1637.45 L-21759.4,-8164.37 L-26474.9,-19058.7 L-31238.8,-8491.14 L-31386.7,-1487.97 L-31401.3,-1487.77 L-31401.3,-1487.71 L-31395.9,-1088.74 L-31395.8,-1088.68 L-29204,-1118.71"/>
</g>

<g fill="none" stroke="#000000" stroke-opacity="1" stroke-width="1" stroke-linecap="square" stroke-linejoin="bevel" transform="matrix(0.999994,0,0,-0.999994,73974.3,65982.1)"
font-family="MS Shell Dlg 2" font-size="10.3125" font-weight="400" font-style="normal" 
>
</g>

<g fill="none" stroke="#000000" stroke-opacity="1" stroke-width="1" stroke-linecap="square" stroke-linejoin="bevel" transform="matrix(0.999994,0,0,-0.999994,73974.3,65982.1)"
font-family="MS Shell Dlg 2" font-size="10.3125" font-weight="400" font-style="normal" 
>
</g>

<g fill="#333333" fill-opacity="0.2" stroke="#333333" stroke-opacity="1" stroke-width="1" stroke-linecap="round" stroke-linejoin="round" transform="matrix(0.999994,0,0,-0.999994,73974.3,65982.1)"
font-family="MS Shell Dlg 2" font-size="10.3125" font-weight="400" font-style="normal" 
>
<path vector-effect="non-scaling-stroke" fill-rule="evenodd" d="M-29181.5,-1079.1 L-29181.5,-1079.04 L-29176.3,-699.962 L-31370.2,-669.909 L-30753.3,9008.61 L-30733.5,9004.41 L-30728.4,9383.49 L-30728.3,9383.54 L-28640.9,9354.95 L-28640.8,9354.89 L-28646,8975.81 L-22341.7,8889.45 L-22336.5,9268.53 L-22336.5,9268.59 L-20249,9239.99 L-20249,9239.93 L-20254.4,8840.96 L-20386.8,-820.367 L-22600.6,-790.041 L-22605.8,-1169.12 L-22605.8,-1169.18 L-24797.7,-1139.15 L-24797.7,-1139.09 L-24792.5,-760.014 L-26984.4,-729.988 L-26989.6,-1109.07 L-26989.6,-1109.12 L-29181.5,-1079.1"/>
</g>

<g fill="none" stroke="#000000" stroke-opacity="1" stroke-width="1" stroke-linecap="square" stroke-linejoin="bevel" transform="matrix(0.999994,0,0,-0.999994,73974.3,65982.1)"
font-family="MS Shell Dlg 2" font-size="10.3125" font-weight="400" font-style="normal" 
>
</g>

<g fill="none" stroke="#000000" stroke-opacity="1" stroke-width="1" stroke-linecap="square" stroke-linejoin="bevel" transform="matrix(0.999994,0,0,-0.999994,73974.3,65982.1)"
font-family="MS Shell Dlg 2" font-size="10.3125" font-weight="400" font-style="normal" 
>
</g>

<g fill="#333333" fill-opacity="0.2" stroke="#333333" stroke-opacity="1" stroke-width="1" stroke-linecap="round" stroke-linejoin="round" transform="matrix(0.999994,0,0,-0.999994,73974.3,65982.1)"
font-family="MS Shell Dlg 2" font-size="10.3125" font-weight="400" font-style="normal" 
>
<path vector-effect="non-scaling-stroke" fill-rule="evenodd" d="M-28619.4,9394.57 L-28619.4,9394.63 L-28614.2,9773.71 L-30722.6,9802.59 L-30739.4,9799.48 L-31011.6,19295.2 L-31022.4,19295.1 L-31022.4,19295.2 L-31023.5,19694.2 L-31023.5,19694.3 L-28900.7,19700 L-28900.7,19699.9 L-28899.7,19320.8 L-22488.8,19338.1 L-22489.9,19717.2 L-22489.8,19717.3 L-20367.1,19723 L-20367.1,19722.9 L-20366,19343.8 L-20362.6,19344.5 L-20253.2,9659.17 L-22351.6,9687.92 L-22356.8,9308.84 L-22356.8,9308.78 L-24444.3,9337.38 L-24444.3,9337.43 L-24439.1,9716.51 L-26526.7,9745.11 L-26531.9,9366.03 L-26531.9,9365.97 L-28619.4,9394.57"/>
</g>

<g fill="none" stroke="#000000" stroke-opacity="1" stroke-width="1" stroke-linecap="square" stroke-linejoin="bevel" transform="matrix(0.999994,0,0,-0.999994,73974.3,65982.1)"
font-family="MS Shell Dlg 2" font-size="10.3125" font-weight="400" font-style="normal" 
>
</g>

<g fill="none" stroke="#000000" stroke-opacity="1" stroke-width="1" stroke-linecap="square" stroke-linejoin="bevel" transform="matrix(0.999994,0,0,-0.999994,73974.3,65982.1)"
font-family="MS Shell Dlg 2" font-size="10.3125" font-weight="400" font-style="normal" 
>
</g>

<g fill="#333333" fill-opacity="0.2" stroke="#333333" stroke-opacity="1" stroke-width="1" stroke-linecap="round" stroke-linejoin="round" transform="matrix(0.999994,0,0,-0.999994,73974.3,65982.1)"
font-family="MS Shell Dlg 2" font-size="10.3125" font-weight="400" font-style="normal" 
>
<path vector-effect="non-scaling-stroke" fill-rule="evenodd" d="M9250.4,53263.6 L9250.43,53263.7 L9581.32,53448.7 L6350.07,59226.8 L6019.18,59041.7 L6019.12,59041.7 L4949.2,60954.9 L4949.23,60955 L5297.49,61149.7 L5297.55,61149.7 L5334.9,61082.9 L11629.8,63233.6 L23422.3,64597.1 L16652.5,55187.7 L10661.6,51557.9 L10668.7,51545.2 L10668.6,51545.2 L10320.4,51350.4 L10320.3,51350.4 L9250.4,53263.6"/>
</g>

<g fill="none" stroke="#000000" stroke-opacity="1" stroke-width="1" stroke-linecap="square" stroke-linejoin="bevel" transform="matrix(0.999994,0,0,-0.999994,73974.3,65982.1)"
font-family="MS Shell Dlg 2" font-size="10.3125" font-weight="400" font-style="normal" 
>
</g>

<g fill="none" stroke="#000000" stroke-opacity="1" stroke-width="1" stroke-linecap="square" stroke-linejoin="bevel" transform="matrix(0.999994,0,0,-0.999994,73974.3,65982.1)"
font-family="MS Shell Dlg 2" font-size="10.3125" font-weight="400" font-style="normal" 
>
</g>

<g fill="#333333" fill-opacity="0.2" stroke="#333333" stroke-opacity="1" stroke-width="1" stroke-linecap="round" stroke-linejoin="round" transform="matrix(0.999994,0,0,-0.999994,73974.3,65982.1)"
font-family="MS Shell Dlg 2" font-size="10.3125" font-weight="400" font-style="normal" 
>
<path vector-effect="non-scaling-stroke" fill-rule="evenodd" d="M-58532.2,57666.8 L-58206.6,57472.8 L-58172.2,57452.3 L-57846.6,57258.3 L-58968.4,55375.3 L-59294,55569.3 L-59328.4,55589.7 L-59654,55783.7 L-58532.2,57666.8"/>
</g>

<g fill="none" stroke="#000000" stroke-opacity="1" stroke-width="1" stroke-linecap="square" stroke-linejoin="bevel" transform="matrix(0.999994,0,0,-0.999994,73974.3,65982.1)"
font-family="MS Shell Dlg 2" font-size="10.3125" font-weight="400" font-style="normal" 
>
</g>

<g fill="none" stroke="#000000" stroke-opacity="1" stroke-width="1" stroke-linecap="square" stroke-linejoin="bevel" transform="matrix(0.999994,0,0,-0.999994,73974.3,65982.1)"
font-family="MS Shell Dlg 2" font-size="10.3125" font-weight="400" font-style="normal" 
>
</g>

<g fill="#333333" fill-opacity="0.2" stroke="#333333" stroke-opacity="1" stroke-width="1" stroke-linecap="round" stroke-linejoin="round" transform="matrix(0.999994,0,0,-0.999994,73974.3,65982.1)"
font-family="MS Shell Dlg 2" font-size="10.3125" font-weight="400" font-style="normal" 
>
<path vector-effect="non-scaling-stroke" fill-rule="evenodd" d="M-57073.3,59374.9 L-57073.3,59374.9 L-57399,59569 L-60787.3,53881.6 L-60461.7,53687.6 L-60461.6,53687.5 L-61583.5,51804.3 L-61583.6,51804.3 L-61926.4,52008.6 L-61926.4,52008.6 L-61887.3,52074.4 L-66897.3,56450.6 L-73974.3,65981.4 L-62440.6,64823.3 L-56301.7,61449.9 L-56294.2,61462.4 L-56294.2,61462.4 L-55951.4,61258.2 L-55951.4,61258.1 L-57073.3,59374.9"/>
</g>

<g fill="none" stroke="#000000" stroke-opacity="1" stroke-width="1" stroke-linecap="square" stroke-linejoin="bevel" transform="matrix(0.999994,0,0,-0.999994,73974.3,65982.1)"
font-family="MS Shell Dlg 2" font-size="10.3125" font-weight="400" font-style="normal" 
>
</g>

<g fill="none" stroke="#000000" stroke-opacity="1" stroke-width="1" stroke-linecap="square" stroke-linejoin="bevel" transform="matrix(0.999994,0,0,-0.999994,73974.3,65982.1)"
font-family="MS Shell Dlg 2" font-size="10.3125" font-weight="400" font-style="normal" 
>
</g>

<g fill="#333333" fill-opacity="0.2" stroke="#333333" stroke-opacity="1" stroke-width="1" stroke-linecap="round" stroke-linejoin="round" transform="matrix(0.999994,0,0,-0.999994,73974.3,65982.1)"
font-family="MS Shell Dlg 2" font-size="10.3125" font-weight="400" font-style="normal" 
>
<path vector-effect="non-scaling-stroke" fill-rule="evenodd" d="M-28879.6,19740 L-28879.6,19740 L-28880.6,20119.1 L-31014,20113.4 L-30675.6,34286.5 L-43075.1,41098.9 L-42011.8,42952.2 L-42340.6,43140.9 L-42340.7,43140.9 L-41284.3,44982.1 L-41284.2,44982.1 L-40955.4,44793.4 L-39898.9,46634.7 L-40227.7,46823.4 L-40227.8,46823.4 L-39171.4,48664.6 L-39171.3,48664.6 L-38842.5,48476 L-37780.7,50326.4 L-25675.6,42946.8 L-13576.2,50278.9 L-12502.9,48431.4 L-12175,48621.8 L-12175,48621.8 L-11108.7,46786.3 L-11108.7,46786.3 L-11436.5,46595.8 L-10370.2,44760.3 L-10042.3,44950.7 L-10042.3,44950.7 L-8975.96,43115.3 L-8975.99,43115.2 L-9303.8,42924.8 L-8232.11,41080 L-20675.6,34286.5 L-20375.6,20142 L-22512.2,20136.3 L-22511.2,19757.2 L-22511.2,19757.1 L-24634,19751.4 L-24634,19751.5 L-24635,20130.6 L-26757.8,20124.8 L-26756.8,19745.7 L-26756.8,19745.7 L-28879.6,19740"/>
</g>

<g fill="none" stroke="#000000" stroke-opacity="1" stroke-width="1" stroke-linecap="square" stroke-linejoin="bevel" transform="matrix(0.999994,0,0,-0.999994,73974.3,65982.1)"
font-family="MS Shell Dlg 2" font-size="10.3125" font-weight="400" font-style="normal" 
>
</g>

<g fill="none" stroke="#000000" stroke-opacity="1" stroke-width="1" stroke-linecap="square" stroke-linejoin="bevel" transform="matrix(0.999994,0,0,-0.999994,73974.3,65982.1)"
font-family="MS Shell Dlg 2" font-size="10.3125" font-weight="400" font-style="normal" 
>
</g>

<g fill="#333333" fill-opacity="0.2" stroke="#333333" stroke-opacity="1" stroke-width="1" stroke-linecap="round" stroke-linejoin="round" transform="matrix(0.999994,0,0,-0.999994,73974.3,65982.1)"
font-family="MS Shell Dlg 2" font-size="10.3125" font-weight="400" font-style="normal" 
>
<path vector-effect="non-scaling-stroke" fill-rule="evenodd" d="M-48260.8,53612 L-48260.8,53612 L-47935.1,53418 L-46855.9,55229.5 L-46850.1,55245.6 L-38490.6,50733.4 L-38485.2,50742.8 L-38485.1,50742.8 L-38139,50544.2 L-38139,50544.2 L-39195.4,48703 L-39195.5,48703 L-39524.3,48891.6 L-42714.8,43331 L-42385.9,43142.4 L-42385.9,43142.3 L-43442.3,41301.1 L-43442.4,41301.1 L-43771.2,41489.8 L-43772.3,41486.5 L-52214.8,46234.4 L-51140.7,48037.3 L-51466.4,48231.3 L-51466.4,48231.4 L-50397.9,50024.9 L-50397.8,50024.9 L-50072.1,49830.8 L-49003.6,51624.4 L-49329.3,51818.4 L-49329.3,51818.5 L-48260.8,53612"/>
</g>

<g fill="none" stroke="#000000" stroke-opacity="1" stroke-width="1" stroke-linecap="square" stroke-linejoin="bevel" transform="matrix(0.999994,0,0,-0.999994,73974.3,65982.1)"
font-family="MS Shell Dlg 2" font-size="10.3125" font-weight="400" font-style="normal" 
>
</g>

<g fill="none" stroke="#000000" stroke-opacity="1" stroke-width="1" stroke-linecap="square" stroke-linejoin="bevel" transform="matrix(0.999994,0,0,-0.999994,73974.3,65982.1)"
font-family="MS Shell Dlg 2" font-size="10.3125" font-weight="400" font-style="normal" 
>
</g>

<g fill="#333333" fill-opacity="0.2" stroke="#333333" stroke-opacity="1" stroke-width="1" stroke-linecap="round" stroke-linejoin="round" transform="matrix(0.999994,0,0,-0.999994,73974.3,65982.1)"
font-family="MS Shell Dlg 2" font-size="10.3125" font-weight="400" font-style="normal" 
>
<path vector-effect="non-scaling-stroke" fill-rule="evenodd" d="M-146.683,48513.3 L-146.717,48513.2 L-477.606,48328.2 L551.584,46487.8 L562.681,46474.8 L-7524.76,41491.3 L-7519.31,41481.9 L-7519.35,41481.9 L-7864.37,41281.4 L-7864.43,41281.4 L-8930.75,43116.9 L-8930.72,43117 L-8602.91,43307.4 L-11823.3,48850.7 L-12151.1,48660.3 L-12151.2,48660.3 L-13217.5,50495.8 L-13217.5,50495.8 L-12889.6,50686.3 L-12892,50688.9 L-4558.93,55626.3 L-3534.61,53794.6 L-3203.72,53979.7 L-3203.65,53979.7 L-2184.68,52157.6 L-2184.72,52157.5 L-2515.61,51972.5 L-1496.61,50150.3 L-1165.72,50335.4 L-1165.65,50335.4 L-146.683,48513.3"/>
</g>

<g fill="none" stroke="#000000" stroke-opacity="1" stroke-width="1" stroke-linecap="square" stroke-linejoin="bevel" transform="matrix(0.999994,0,0,-0.999994,73974.3,65982.1)"
font-family="MS Shell Dlg 2" font-size="10.3125" font-weight="400" font-style="normal" 
>
</g>

<g fill="none" stroke="#000000" stroke-opacity="1" stroke-width="1" stroke-linecap="square" stroke-linejoin="bevel" transform="matrix(0.999994,0,0,-0.999994,73974.3,65982.1)"
font-family="MS Shell Dlg 2" font-size="10.3125" font-weight="400" font-style="normal" 
>
</g>

<g fill="#333333" fill-opacity="0.2" stroke="#333333" stroke-opacity="1" stroke-width="1" stroke-linecap="round" stroke-linejoin="round" transform="matrix(0.999994,0,0,-0.999994,73974.3,65982.1)"
font-family="MS Shell Dlg 2" font-size="10.3125" font-weight="400" font-style="normal" 
>
<path vector-effect="non-scaling-stroke" fill-rule="evenodd" d="M9204.83,53263.3 L9204.8,53263.3 L8873.91,53078.2 L9944.82,51163.3 L1254.51,46858.3 L1248.3,46877.4 L917.407,46692.4 L917.343,46692.4 L-101.628,48514.5 L-101.593,48514.5 L229.296,48699.6 L-2848.08,54202.5 L-3178.97,54017.4 L-3179.04,54017.4 L-4198.01,55839.5 L-4197.97,55839.6 L-3849.72,56034.4 L4583.41,60750.4 L5664.06,58818 L5994.95,59003 L5995.01,59003 L7064.93,57089.8 L7064.9,57089.8 L6734.01,56904.7 L7803.96,54991.5 L8134.85,55176.5 L8134.91,55176.5 L9204.83,53263.3"/>
</g>

<g fill="none" stroke="#000000" stroke-opacity="1" stroke-width="1" stroke-linecap="square" stroke-linejoin="bevel" transform="matrix(0.999994,0,0,-0.999994,73974.3,65982.1)"
font-family="MS Shell Dlg 2" font-size="10.3125" font-weight="400" font-style="normal" 
>
</g>

<g fill="none" stroke="#000000" stroke-opacity="1" stroke-width="1" stroke-linecap="square" stroke-linejoin="bevel" transform="matrix(0.999994,0,0,-0.999994,73974.3,65982.1)"
font-family="MS Shell Dlg 2" font-size="10.3125" font-weight="400" font-style="normal" 
>
</g>

<g fill="#333333" fill-opacity="0.2" stroke="#333333" stroke-opacity="1" stroke-width="1" stroke-linecap="round" stroke-linejoin="round" transform="matrix(0.999994,0,0,-0.999994,73974.3,65982.1)"
font-family="MS Shell Dlg 2" font-size="10.3125" font-weight="400" font-style="normal" 
>
<path vector-effect="non-scaling-stroke" fill-rule="evenodd" d="M-57050.2,59335.6 L-57050.2,59335.6 L-56724.5,59141.6 L-55601.5,61026.5 L-47528.1,55653 L-47541.6,55638 L-47215.9,55444 L-47215.9,55443.9 L-48284.4,53650.4 L-48284.5,53650.4 L-48610.2,53844.5 L-51837.1,48427.9 L-51511.4,48233.9 L-51511.4,48233.8 L-52579.9,46440.3 L-52580,46440.3 L-52922.7,46644.5 L-61223.5,51589.8 L-60090.3,53491.9 L-60416,53685.9 L-60416.1,53686 L-59294.2,55569.2 L-59294.1,55569.2 L-58968.4,55375.1 L-57846.4,57258.4 L-58172.1,57452.4 L-58172.2,57452.4 L-57050.2,59335.6"/>
</g>

<g fill="none" stroke="#000000" stroke-opacity="1" stroke-width="1" stroke-linecap="square" stroke-linejoin="bevel" transform="matrix(0.999994,0,0,-0.999994,73974.3,65982.1)"
font-family="MS Shell Dlg 2" font-size="10.3125" font-weight="400" font-style="normal" 
>
</g>

<g fill="none" stroke="#000000" stroke-opacity="1" stroke-width="1" stroke-linecap="square" stroke-linejoin="bevel" transform="matrix(0.999994,0,0,-0.999994,73974.3,65982.1)"
font-family="MS Shell Dlg 2" font-size="10.3125" font-weight="400" font-style="normal" 
>
</g>

<g fill="#ae5151" fill-opacity="0.2" stroke="#333333" stroke-opacity="1" stroke-width="1" stroke-linecap="round" stroke-linejoin="round" transform="matrix(0.999994,0,0,-0.999994,73974.3,65982.1)"
font-family="MS Shell Dlg 2" font-size="10.3125" font-weight="400" font-style="normal" 
>
<path vector-effect="non-scaling-stroke" fill-rule="evenodd" d="M-29204,-1118.71 L-29204,-1118.76 L-29209.2,-1497.84 L-22589.6,-1588.52 L-22584.4,-1209.44 L-22584.4,-1209.39 L-20392.5,-1239.41 L-20392.5,-1239.47 L-20398,-1638.45 L-20398,-1638.5 L-20474.5,-1637.45 L-21759.4,-8164.37 L-26474.9,-19058.7 L-31238.8,-8491.14 L-31386.7,-1487.97 L-31401.3,-1487.77 L-31401.3,-1487.71 L-31395.9,-1088.74 L-31395.8,-1088.68 L-29204,-1118.71"/>
</g>

<g fill="none" stroke="#000000" stroke-opacity="1" stroke-width="1" stroke-linecap="square" stroke-linejoin="bevel" transform="matrix(0.999994,0,0,-0.999994,73974.3,65982.1)"
font-family="MS Shell Dlg 2" font-size="10.3125" font-weight="400" font-style="normal" 
>
</g>

<g fill="none" stroke="#000000" stroke-opacity="1" stroke-width="1" stroke-linecap="square" stroke-linejoin="bevel" transform="matrix(0.999994,0,0,-0.999994,73974.3,65982.1)"
font-family="MS Shell Dlg 2" font-size="10.3125" font-weight="400" font-style="normal" 
>
</g>

<g fill="#ae5151" fill-opacity="0.2" stroke="#333333" stroke-opacity="1" stroke-width="1" stroke-linecap="round" stroke-linejoin="round" transform="matrix(0.999994,0,0,-0.999994,73974.3,65982.1)"
font-family="MS Shell Dlg 2" font-size="10.3125" font-weight="400" font-style="normal" 
>
<path vector-effect="non-scaling-stroke" fill-rule="evenodd" d="M-29181.5,-1079.1 L-29181.5,-1079.04 L-29176.3,-699.962 L-31370.2,-669.909 L-30753.3,9008.61 L-30733.5,9004.41 L-30728.4,9383.49 L-30728.3,9383.54 L-28640.9,9354.95 L-28640.8,9354.89 L-28646,8975.81 L-22341.7,8889.45 L-22336.5,9268.53 L-22336.5,9268.59 L-20249,9239.99 L-20249,9239.93 L-20254.4,8840.96 L-20386.8,-820.367 L-22600.6,-790.041 L-22605.8,-1169.12 L-22605.8,-1169.18 L-24797.7,-1139.15 L-24797.7,-1139.09 L-24792.5,-760.014 L-26984.4,-729.988 L-26989.6,-1109.07 L-26989.6,-1109.12 L-29181.5,-1079.1"/>
</g>

<g fill="none" stroke="#000000" stroke-opacity="1" stroke-width="1" stroke-linecap="square" stroke-linejoin="bevel" transform="matrix(0.999994,0,0,-0.999994,73974.3,65982.1)"
font-family="MS Shell Dlg 2" font-size="10.3125" font-weight="400" font-style="normal" 
>
</g>

<g fill="none" stroke="#000000" stroke-opacity="1" stroke-width="1" stroke-linecap="square" stroke-linejoin="bevel" transform="matrix(0.999994,0,0,-0.999994,73974.3,65982.1)"
font-family="MS Shell Dlg 2" font-size="10.3125" font-weight="400" font-style="normal" 
>
</g>

<g fill="#ae5151" fill-opacity="0.2" stroke="#333333" stroke-opacity="1" stroke-width="1" stroke-linecap="round" stroke-linejoin="round" transform="matrix(0.999994,0,0,-0.999994,73974.3,65982.1)"
font-family="MS Shell Dlg 2" font-size="10.3125" font-weight="400" font-style="normal" 
>
<path vector-effect="non-scaling-stroke" fill-rule="evenodd" d="M-28619.4,9394.57 L-28619.4,9394.63 L-28614.2,9773.71 L-30722.6,9802.59 L-30739.4,9799.48 L-31011.6,19295.2 L-31022.4,19295.1 L-31022.4,19295.2 L-31023.5,19694.2 L-31023.5,19694.3 L-28900.7,19700 L-28900.7,19699.9 L-28899.7,19320.8 L-22488.8,19338.1 L-22489.9,19717.2 L-22489.8,19717.3 L-20367.1,19723 L-20367.1,19722.9 L-20366,19343.8 L-20362.6,19344.5 L-20253.2,9659.17 L-22351.6,9687.92 L-22356.8,9308.84 L-22356.8,9308.78 L-24444.3,9337.38 L-24444.3,9337.43 L-24439.1,9716.51 L-26526.7,9745.11 L-26531.9,9366.03 L-26531.9,9365.97 L-28619.4,9394.57"/>
</g>

<g fill="none" stroke="#000000" stroke-opacity="1" stroke-width="1" stroke-linecap="square" stroke-linejoin="bevel" transform="matrix(0.999994,0,0,-0.999994,73974.3,65982.1)"
font-family="MS Shell Dlg 2" font-size="10.3125" font-weight="400" font-style="normal" 
>
</g>

<g fill="none" stroke="#000000" stroke-opacity="1" stroke-width="1" stroke-linecap="square" stroke-linejoin="bevel" transform="matrix(0.999994,0,0,-0.999994,73974.3,65982.1)"
font-family="MS Shell Dlg 2" font-size="10.3125" font-weight="400" font-style="normal" 
>
</g>

<g fill="#ae5151" fill-opacity="0.2" stroke="#333333" stroke-opacity="1" stroke-width="1" stroke-linecap="round" stroke-linejoin="round" transform="matrix(0.999994,0,0,-0.999994,73974.3,65982.1)"
font-family="MS Shell Dlg 2" font-size="10.3125" font-weight="400" font-style="normal" 
>
<path vector-effect="non-scaling-stroke" fill-rule="evenodd" d="M9250.4,53263.6 L9250.43,53263.7 L9581.32,53448.7 L6350.07,59226.8 L6019.18,59041.7 L6019.12,59041.7 L4949.2,60954.9 L4949.23,60955 L5297.49,61149.7 L5297.55,61149.7 L5334.9,61082.9 L11629.8,63233.6 L23422.3,64597.1 L16652.5,55187.7 L10661.6,51557.9 L10668.7,51545.2 L10668.6,51545.2 L10320.4,51350.4 L10320.3,51350.4 L9250.4,53263.6"/>
</g>

<g fill="none" stroke="#000000" stroke-opacity="1" stroke-width="1" stroke-linecap="square" stroke-linejoin="bevel" transform="matrix(0.999994,0,0,-0.999994,73974.3,65982.1)"
font-family="MS Shell Dlg 2" font-size="10.3125" font-weight="400" font-style="normal" 
>
</g>

<g fill="none" stroke="#000000" stroke-opacity="1" stroke-width="1" stroke-linecap="square" stroke-linejoin="bevel" transform="matrix(0.999994,0,0,-0.999994,73974.3,65982.1)"
font-family="MS Shell Dlg 2" font-size="10.3125" font-weight="400" font-style="normal" 
>
</g>

<g fill="#ae5151" fill-opacity="0.2" stroke="#333333" stroke-opacity="1" stroke-width="1" stroke-linecap="round" stroke-linejoin="round" transform="matrix(0.999994,0,0,-0.999994,73974.3,65982.1)"
font-family="MS Shell Dlg 2" font-size="10.3125" font-weight="400" font-style="normal" 
>
<path vector-effect="non-scaling-stroke" fill-rule="evenodd" d="M-58532.2,57666.8 L-58206.6,57472.8 L-58172.2,57452.3 L-57846.6,57258.3 L-58968.4,55375.3 L-59294,55569.3 L-59328.4,55589.7 L-59654,55783.7 L-58532.2,57666.8"/>
</g>

<g fill="none" stroke="#000000" stroke-opacity="1" stroke-width="1" stroke-linecap="square" stroke-linejoin="bevel" transform="matrix(0.999994,0,0,-0.999994,73974.3,65982.1)"
font-family="MS Shell Dlg 2" font-size="10.3125" font-weight="400" font-style="normal" 
>
</g>

<g fill="none" stroke="#000000" stroke-opacity="1" stroke-width="1" stroke-linecap="square" stroke-linejoin="bevel" transform="matrix(0.999994,0,0,-0.999994,73974.3,65982.1)"
font-family="MS Shell Dlg 2" font-size="10.3125" font-weight="400" font-style="normal" 
>
</g>

<g fill="#ae5151" fill-opacity="0.2" stroke="#333333" stroke-opacity="1" stroke-width="1" stroke-linecap="round" stroke-linejoin="round" transform="matrix(0.999994,0,0,-0.999994,73974.3,65982.1)"
font-family="MS Shell Dlg 2" font-size="10.3125" font-weight="400" font-style="normal" 
>
<path vector-effect="non-scaling-stroke" fill-rule="evenodd" d="M-57073.3,59374.9 L-57073.3,59374.9 L-57399,59569 L-60787.3,53881.6 L-60461.7,53687.6 L-60461.6,53687.5 L-61583.5,51804.3 L-61583.6,51804.3 L-61926.4,52008.6 L-61926.4,52008.6 L-61887.3,52074.4 L-66897.3,56450.6 L-73974.3,65981.4 L-62440.6,64823.3 L-56301.7,61449.9 L-56294.2,61462.4 L-56294.2,61462.4 L-55951.4,61258.2 L-55951.4,61258.1 L-57073.3,59374.9"/>
</g>

<g fill="none" stroke="#000000" stroke-opacity="1" stroke-width="1" stroke-linecap="square" stroke-linejoin="bevel" transform="matrix(0.999994,0,0,-0.999994,73974.3,65982.1)"
font-family="MS Shell Dlg 2" font-size="10.3125" font-weight="400" font-style="normal" 
>
</g>

<g fill="none" stroke="#000000" stroke-opacity="1" stroke-width="1" stroke-linecap="square" stroke-linejoin="bevel" transform="matrix(0.999994,0,0,-0.999994,73974.3,65982.1)"
font-family="MS Shell Dlg 2" font-size="10.3125" font-weight="400" font-style="normal" 
>
</g>

<g fill="#ae5151" fill-opacity="0.2" stroke="#333333" stroke-opacity="1" stroke-width="1" stroke-linecap="round" stroke-linejoin="round" transform="matrix(0.999994,0,0,-0.999994,73974.3,65982.1)"
font-family="MS Shell Dlg 2" font-size="10.3125" font-weight="400" font-style="normal" 
>
<path vector-effect="non-scaling-stroke" fill-rule="evenodd" d="M-28879.6,19740 L-28879.6,19740 L-28880.6,20119.1 L-31014,20113.4 L-30675.6,34286.5 L-43075.1,41098.9 L-42011.8,42952.2 L-42340.6,43140.9 L-42340.7,43140.9 L-41284.3,44982.1 L-41284.2,44982.1 L-40955.4,44793.4 L-39898.9,46634.7 L-40227.7,46823.4 L-40227.8,46823.4 L-39171.4,48664.6 L-39171.3,48664.6 L-38842.5,48476 L-37780.7,50326.4 L-25675.6,42946.8 L-13576.2,50278.9 L-12502.9,48431.4 L-12175,48621.8 L-12175,48621.8 L-11108.7,46786.3 L-11108.7,46786.3 L-11436.5,46595.8 L-10370.2,44760.3 L-10042.3,44950.7 L-10042.3,44950.7 L-8975.96,43115.3 L-8975.99,43115.2 L-9303.8,42924.8 L-8232.11,41080 L-20675.6,34286.5 L-20375.6,20142 L-22512.2,20136.3 L-22511.2,19757.2 L-22511.2,19757.1 L-24634,19751.4 L-24634,19751.5 L-24635,20130.6 L-26757.8,20124.8 L-26756.8,19745.7 L-26756.8,19745.7 L-28879.6,19740"/>
</g>

<g fill="none" stroke="#000000" stroke-opacity="1" stroke-width="1" stroke-linecap="square" stroke-linejoin="bevel" transform="matrix(0.999994,0,0,-0.999994,73974.3,65982.1)"
font-family="MS Shell Dlg 2" font-size="10.3125" font-weight="400" font-style="normal" 
>
</g>

<g fill="none" stroke="#000000" stroke-opacity="1" stroke-width="1" stroke-linecap="square" stroke-linejoin="bevel" transform="matrix(0.999994,0,0,-0.999994,73974.3,65982.1)"
font-family="MS Shell Dlg 2" font-size="10.3125" font-weight="400" font-style="normal" 
>
</g>

<g fill="#ae5151" fill-opacity="0.2" stroke="#333333" stroke-opacity="1" stroke-width="1" stroke-linecap="round" stroke-linejoin="round" transform="matrix(0.999994,0,0,-0.999994,73974.3,65982.1)"
font-family="MS Shell Dlg 2" font-size="10.3125" font-weight="400" font-style="normal" 
>
<path vector-effect="non-scaling-stroke" fill-rule="evenodd" d="M-48260.8,53612 L-48260.8,53612 L-47935.1,53418 L-46855.9,55229.5 L-46850.1,55245.6 L-38490.6,50733.4 L-38485.2,50742.8 L-38485.1,50742.8 L-38139,50544.2 L-38139,50544.2 L-39195.4,48703 L-39195.5,48703 L-39524.3,48891.6 L-42714.8,43331 L-42385.9,43142.4 L-42385.9,43142.3 L-43442.3,41301.1 L-43442.4,41301.1 L-43771.2,41489.8 L-43772.3,41486.5 L-52214.8,46234.4 L-51140.7,48037.3 L-51466.4,48231.3 L-51466.4,48231.4 L-50397.9,50024.9 L-50397.8,50024.9 L-50072.1,49830.8 L-49003.6,51624.4 L-49329.3,51818.4 L-49329.3,51818.5 L-48260.8,53612"/>
</g>

<g fill="none" stroke="#000000" stroke-opacity="1" stroke-width="1" stroke-linecap="square" stroke-linejoin="bevel" transform="matrix(0.999994,0,0,-0.999994,73974.3,65982.1)"
font-family="MS Shell Dlg 2" font-size="10.3125" font-weight="400" font-style="normal" 
>
</g>

<g fill="none" stroke="#000000" stroke-opacity="1" stroke-width="1" stroke-linecap="square" stroke-linejoin="bevel" transform="matrix(0.999994,0,0,-0.999994,73974.3,65982.1)"
font-family="MS Shell Dlg 2" font-size="10.3125" font-weight="400" font-style="normal" 
>
</g>

<g fill="#ae5151" fill-opacity="0.2" stroke="#333333" stroke-opacity="1" stroke-width="1" stroke-linecap="round" stroke-linejoin="round" transform="matrix(0.999994,0,0,-0.999994,73974.3,65982.1)"
font-family="MS Shell Dlg 2" font-size="10.3125" font-weight="400" font-style="normal" 
>
<path vector-effect="non-scaling-stroke" fill-rule="evenodd" d="M-146.683,48513.3 L-146.717,48513.2 L-477.606,48328.2 L551.584,46487.8 L562.681,46474.8 L-7524.76,41491.3 L-7519.31,41481.9 L-7519.35,41481.9 L-7864.37,41281.4 L-7864.43,41281.4 L-8930.75,43116.9 L-8930.72,43117 L-8602.91,43307.4 L-11823.3,48850.7 L-12151.1,48660.3 L-12151.2,48660.3 L-13217.5,50495.8 L-13217.5,50495.8 L-12889.6,50686.3 L-12892,50688.9 L-4558.93,55626.3 L-3534.61,53794.6 L-3203.72,53979.7 L-3203.65,53979.7 L-2184.68,52157.6 L-2184.72,52157.5 L-2515.61,51972.5 L-1496.61,50150.3 L-1165.72,50335.4 L-1165.65,50335.4 L-146.683,48513.3"/>
</g>

<g fill="none" stroke="#000000" stroke-opacity="1" stroke-width="1" stroke-linecap="square" stroke-linejoin="bevel" transform="matrix(0.999994,0,0,-0.999994,73974.3,65982.1)"
font-family="MS Shell Dlg 2" font-size="10.3125" font-weight="400" font-style="normal" 
>
</g>

<g fill="none" stroke="#000000" stroke-opacity="1" stroke-width="1" stroke-linecap="square" stroke-linejoin="bevel" transform="matrix(0.999994,0,0,-0.999994,73974.3,65982.1)"
font-family="MS Shell Dlg 2" font-size="10.3125" font-weight="400" font-style="normal" 
>
</g>

<g fill="#ae5151" fill-opacity="0.2" stroke="#333333" stroke-opacity="1" stroke-width="1" stroke-linecap="round" stroke-linejoin="round" transform="matrix(0.999994,0,0,-0.999994,73974.3,65982.1)"
font-family="MS Shell Dlg 2" font-size="10.3125" font-weight="400" font-style="normal" 
>
<path vector-effect="non-scaling-stroke" fill-rule="evenodd" d="M9204.83,53263.3 L9204.8,53263.3 L8873.91,53078.2 L9944.82,51163.3 L1254.51,46858.3 L1248.3,46877.4 L917.407,46692.4 L917.343,46692.4 L-101.628,48514.5 L-101.593,48514.5 L229.296,48699.6 L-2848.08,54202.5 L-3178.97,54017.4 L-3179.04,54017.4 L-4198.01,55839.5 L-4197.97,55839.6 L-3849.72,56034.4 L4583.41,60750.4 L5664.06,58818 L5994.95,59003 L5995.01,59003 L7064.93,57089.8 L7064.9,57089.8 L6734.01,56904.7 L7803.96,54991.5 L8134.85,55176.5 L8134.91,55176.5 L9204.83,53263.3"/>
</g>

<g fill="none" stroke="#000000" stroke-opacity="1" stroke-width="1" stroke-linecap="square" stroke-linejoin="bevel" transform="matrix(0.999994,0,0,-0.999994,73974.3,65982.1)"
font-family="MS Shell Dlg 2" font-size="10.3125" font-weight="400" font-style="normal" 
>
</g>

<g fill="none" stroke="#000000" stroke-opacity="1" stroke-width="1" stroke-linecap="square" stroke-linejoin="bevel" transform="matrix(0.999994,0,0,-0.999994,73974.3,65982.1)"
font-family="MS Shell Dlg 2" font-size="10.3125" font-weight="400" font-style="normal" 
>
</g>

<g fill="#ae5151" fill-opacity="0.2" stroke="#333333" stroke-opacity="1" stroke-width="1" stroke-linecap="round" stroke-linejoin="round" transform="matrix(0.999994,0,0,-0.999994,73974.3,65982.1)"
font-family="MS Shell Dlg 2" font-size="10.3125" font-weight="400" font-style="normal" 
>
<path vector-effect="non-scaling-stroke" fill-rule="evenodd" d="M-57050.2,59335.6 L-57050.2,59335.6 L-56724.5,59141.6 L-55601.5,61026.5 L-47528.1,55653 L-47541.6,55638 L-47215.9,55444 L-47215.9,55443.9 L-48284.4,53650.4 L-48284.5,53650.4 L-48610.2,53844.5 L-51837.1,48427.9 L-51511.4,48233.9 L-51511.4,48233.8 L-52579.9,46440.3 L-52580,46440.3 L-52922.7,46644.5 L-61223.5,51589.8 L-60090.3,53491.9 L-60416,53685.9 L-60416.1,53686 L-59294.2,55569.2 L-59294.1,55569.2 L-58968.4,55375.1 L-57846.4,57258.4 L-58172.1,57452.4 L-58172.2,57452.4 L-57050.2,59335.6"/>
</g>

<g fill="none" stroke="#000000" stroke-opacity="1" stroke-width="1" stroke-linecap="square" stroke-linejoin="bevel" transform="matrix(0.999994,0,0,-0.999994,73974.3,65982.1)"
font-family="MS Shell Dlg 2" font-size="10.3125" font-weight="400" font-style="normal" 
>
</g>

<g fill="none" stroke="#000000" stroke-opacity="1" stroke-width="1" stroke-linecap="square" stroke-linejoin="bevel" transform="matrix(0.999994,0,0,-0.999994,73974.3,65982.1)"
font-family="MS Shell Dlg 2" font-size="10.3125" font-weight="400" font-style="normal" 
>
</g>

<g fill="#ffff00" fill-opacity="0.2" stroke="#333333" stroke-opacity="1" stroke-width="1" stroke-linecap="round" stroke-linejoin="round" transform="matrix(0.999994,0,0,-0.999994,73974.3,65982.1)"
font-family="MS Shell Dlg 2" font-size="10.3125" font-weight="400" font-style="normal" 
>
<path vector-effect="non-scaling-stroke" fill-rule="evenodd" d="M-20386.8,-820.367 L-20398,-1638.45 L-20398,-1638.5 L-20474.5,-1637.45 L-21759.4,-8164.37 L-26474.9,-19058.7 L-31238.8,-8491.14 L-31386.7,-1487.97 L-31401.3,-1487.77 L-31401.3,-1487.71 L-31389.9,-649.738 L-31389.8,-649.682 L-31368.9,-649.968 L-30753.3,9008.61 L-30733.5,9004.41 L-30722.6,9802.59 L-30739.4,9799.48 L-31011.6,19295.2 L-31022.4,19295.1 L-31022.4,19295.2 L-31024.7,20133.3 L-31024.7,20133.3 L-31013.6,20133.3 L-30675.6,34286.5 L-43057.6,41089.3 L-43061.5,41082.6 L-43061.6,41082.6 L-43771.2,41489.8 L-43772.3,41486.5 L-52197.4,46224.6 L-52202.7,46215.6 L-52202.8,46215.6 L-52922.7,46644.5 L-61223.5,51589.8 L-61926.4,52008.6 L-61926.4,52008.6 L-61887.3,52074.4 L-66897.3,56450.6 L-73974.3,65981.4 L-62440.6,64823.3 L-56301.7,61449.9 L-56294.2,61462.4 L-56294.2,61462.4 L-55574.2,61033.5 L-55574.2,61033.4 L-55584.9,61015.4 L-47528.1,55653 L-47541.6,55638 L-46855.9,55229.5 L-46850.1,55245.6 L-38490.6,50733.4 L-38485.2,50742.8 L-38485.1,50742.8 L-37758.2,50325.7 L-37758.2,50325.7 L-37763.7,50316 L-25675.6,42946.8 L-13593.2,50268.5 L-13597.1,50275.2 L-13597.1,50275.3 L-12889.6,50686.3 L-12892,50688.9 L-4576.1,55616.1 L-4581.2,55625.3 L-4581.17,55625.3 L-3849.72,56034.4 L4583.41,60750.4 L5297.49,61149.7 L5297.55,61149.7 L5334.9,61082.9 L11629.8,63233.6 L23422.3,64597.1 L16652.5,55187.7 L10661.6,51557.9 L10668.7,51545.2 L10668.6,51545.2 L9937.19,51136.1 L9937.12,51136.1 L9926.91,51154.4 L1254.51,46858.3 L1248.3,46877.4 L551.584,46487.8 L562.681,46474.8 L-7524.76,41491.3 L-7519.31,41481.9 L-7519.35,41481.9 L-8243.99,41060.9 L-8244.06,41060.9 L-8249.64,41070.5 L-20675.6,34286.5 L-20376,20162 L-20368.3,20162 L-20368.2,20162 L-20366,19343.8 L-20362.6,19344.5 L-20253.4,9679.13 L-20243,9678.99 L-20242.9,9678.93 L-20254.4,8840.96 L-20386.8,-820.367 M-24803.4,-1558.2 L-24792.5,-760.014 L-26984.4,-729.988 L-26995.3,-1528.17 L-24803.4,-1558.2 M-26757.8,20124.8 L-26755.7,19326.6 L-24632.9,19332.3 L-24635,20130.6 L-26757.8,20124.8 M-26526.7,9745.11 L-26537.6,8946.93 L-24450.1,8918.33 L-24439.1,9716.51 L-26526.7,9745.11 M-59654.2,55783.7 L-58968.4,55375.1 L-57846.4,57258.4 L-58532.2,57666.9 L-59654.2,55783.7 M-39898.9,46634.7 L-40591.3,47032 L-41647.7,45190.7 L-40955.4,44793.4 L-39898.9,46634.7 M-49003.6,51624.4 L-49689.4,52033 L-50757.9,50239.4 L-50072.1,49830.8 L-49003.6,51624.4 M7430.72,57294.4 L6734.01,56904.7 L7803.96,54991.5 L8500.67,55381.1 L7430.72,57294.4 M-10370.2,44760.3 L-9679.92,45161.3 L-10746.3,46996.8 L-11436.5,46595.8 L-10370.2,44760.3 M-1496.61,50150.3 L-799.894,50540 L-1818.89,52362.1 L-2515.61,51972.5 L-1496.61,50150.3"/>
</g>

<g fill="none" stroke="#000000" stroke-opacity="1" stroke-width="1" stroke-linecap="square" stroke-linejoin="bevel" transform="matrix(0.999994,0,0,-0.999994,73974.3,65982.1)"
font-family="MS Shell Dlg 2" font-size="10.3125" font-weight="400" font-style="normal" 
>
</g>

<g fill="none" stroke="#000000" stroke-opacity="1" stroke-width="1" stroke-linecap="square" stroke-linejoin="bevel" transform="matrix(0.999994,0,0,-0.999994,73974.3,65982.1)"
font-family="MS Shell Dlg 2" font-size="10.3125" font-weight="400" font-style="normal" 
>
</g>

<g fill="#ffff00" fill-opacity="0.2" stroke="#333333" stroke-opacity="1" stroke-width="1" stroke-linecap="round" stroke-linejoin="round" transform="matrix(0.999994,0,0,-0.999994,73974.3,65982.1)"
font-family="MS Shell Dlg 2" font-size="10.3125" font-weight="400" font-style="normal" 
>
<path vector-effect="non-scaling-stroke" fill-rule="evenodd" d="M-58532.2,57666.8 L-58206.6,57472.8 L-58172.2,57452.3 L-57846.6,57258.3 L-58968.4,55375.3 L-59294,55569.3 L-59328.4,55589.7 L-59654,55783.7 L-58532.2,57666.8"/>
</g>

<g fill="none" stroke="#000000" stroke-opacity="1" stroke-width="1" stroke-linecap="square" stroke-linejoin="bevel" transform="matrix(0.999994,0,0,-0.999994,73974.3,65982.1)"
font-family="MS Shell Dlg 2" font-size="10.3125" font-weight="400" font-style="normal" 
>
</g>

<g fill="none" stroke="#000000" stroke-opacity="1" stroke-width="1" stroke-linecap="square" stroke-linejoin="bevel" transform="matrix(0.999994,0,0,-0.999994,73974.3,65982.1)"
font-family="MS Shell Dlg 2" font-size="10.3125" font-weight="400" font-style="normal" 
>
</g>

<g fill="#ae5151" fill-opacity="0.2" stroke="#333333" stroke-opacity="1" stroke-width="1" stroke-linecap="round" stroke-linejoin="round" transform="matrix(0.999994,0,0,-0.999994,73974.3,65982.1)"
font-family="MS Shell Dlg 2" font-size="10.3125" font-weight="400" font-style="normal" 
>
<path vector-effect="non-scaling-stroke" fill-rule="evenodd" d="M-29182.1,-1119.06 L-29182,-1119.01 L-26990.2,-1149.03 L-26990.1,-1149.09 L-26995.3,-1528.17 L-24803.4,-1558.2 L-24798.2,-1179.12 L-24798.2,-1179.06 L-22606.4,-1209.09 L-22606.3,-1209.14 L-22611.5,-1588.22 L-20470.6,-1617.55 L-21759.4,-8164.37 L-26474.9,-19058.7 L-31238.8,-8491.14 L-31387.2,-1468.01 L-29187.2,-1498.14 L-29182.1,-1119.06"/>
</g>

<g fill="none" stroke="#000000" stroke-opacity="1" stroke-width="1" stroke-linecap="square" stroke-linejoin="bevel" transform="matrix(0.999994,0,0,-0.999994,73974.3,65982.1)"
font-family="MS Shell Dlg 2" font-size="10.3125" font-weight="400" font-style="normal" 
>
</g>

<g fill="none" stroke="#000000" stroke-opacity="1" stroke-width="1" stroke-linecap="square" stroke-linejoin="bevel" transform="matrix(0.999994,0,0,-0.999994,73974.3,65982.1)"
font-family="MS Shell Dlg 2" font-size="10.3125" font-weight="400" font-style="normal" 
>
</g>

<g fill="#ae5151" fill-opacity="0.2" stroke="#333333" stroke-opacity="1" stroke-width="1" stroke-linecap="round" stroke-linejoin="round" transform="matrix(0.999994,0,0,-0.999994,73974.3,65982.1)"
font-family="MS Shell Dlg 2" font-size="10.3125" font-weight="400" font-style="normal" 
>
<path vector-effect="non-scaling-stroke" fill-rule="evenodd" d="M-29203.4,-1078.74 L-29203.5,-1078.8 L-31395.3,-1048.77 L-31395.3,-1048.72 L-31389.9,-649.738 L-31389.8,-649.682 L-31368.9,-649.968 L-30753.3,9008.61 L-30733.5,9004.41 L-28625.1,8975.53 L-28620,9354.6 L-28619.9,9354.66 L-26532.4,9326.07 L-26532.4,9326.01 L-26537.6,8946.93 L-24450.1,8918.33 L-24444.9,9297.41 L-24444.9,9297.47 L-22357.4,9268.87 L-22357.4,9268.82 L-22362.6,8889.74 L-20254.1,8860.85 L-20386.8,-820.367 L-20392,-1199.45 L-20392,-1199.5 L-22583.8,-1169.48 L-22583.9,-1169.42 L-22578.7,-790.341 L-29198.2,-699.662 L-29203.4,-1078.74"/>
</g>

<g fill="none" stroke="#000000" stroke-opacity="1" stroke-width="1" stroke-linecap="square" stroke-linejoin="bevel" transform="matrix(0.999994,0,0,-0.999994,73974.3,65982.1)"
font-family="MS Shell Dlg 2" font-size="10.3125" font-weight="400" font-style="normal" 
>
</g>

<g fill="none" stroke="#000000" stroke-opacity="1" stroke-width="1" stroke-linecap="square" stroke-linejoin="bevel" transform="matrix(0.999994,0,0,-0.999994,73974.3,65982.1)"
font-family="MS Shell Dlg 2" font-size="10.3125" font-weight="400" font-style="normal" 
>
</g>

<g fill="#ae5151" fill-opacity="0.2" stroke="#333333" stroke-opacity="1" stroke-width="1" stroke-linecap="round" stroke-linejoin="round" transform="matrix(0.999994,0,0,-0.999994,73974.3,65982.1)"
font-family="MS Shell Dlg 2" font-size="10.3125" font-weight="400" font-style="normal" 
>
<path vector-effect="non-scaling-stroke" fill-rule="evenodd" d="M-28640.3,9394.91 L-28640.3,9394.86 L-30727.8,9423.45 L-30727.8,9423.51 L-30722.6,9802.59 L-30739.4,9799.48 L-31012.1,19315.1 L-28878.5,19320.9 L-28879.5,19700 L-28879.5,19700 L-26756.7,19705.8 L-26756.7,19705.7 L-26755.7,19326.6 L-24632.9,19332.3 L-24633.9,19711.4 L-24633.9,19711.5 L-22511.1,19717.2 L-22511.1,19717.1 L-22510.1,19338 L-20366,19343.8 L-20362.6,19344.5 L-20253.4,9679.13 L-20243,9678.99 L-20242.9,9678.93 L-20248.4,9279.96 L-20248.4,9279.9 L-22335.9,9308.49 L-22335.9,9308.55 L-22330.7,9687.63 L-28635.1,9773.99 L-28640.3,9394.91"/>
</g>

<g fill="none" stroke="#000000" stroke-opacity="1" stroke-width="1" stroke-linecap="square" stroke-linejoin="bevel" transform="matrix(0.999994,0,0,-0.999994,73974.3,65982.1)"
font-family="MS Shell Dlg 2" font-size="10.3125" font-weight="400" font-style="normal" 
>
</g>

<g fill="none" stroke="#000000" stroke-opacity="1" stroke-width="1" stroke-linecap="square" stroke-linejoin="bevel" transform="matrix(0.999994,0,0,-0.999994,73974.3,65982.1)"
font-family="MS Shell Dlg 2" font-size="10.3125" font-weight="400" font-style="normal" 
>
</g>

<g fill="#ae5151" fill-opacity="0.2" stroke="#333333" stroke-opacity="1" stroke-width="1" stroke-linecap="round" stroke-linejoin="round" transform="matrix(0.999994,0,0,-0.999994,73974.3,65982.1)"
font-family="MS Shell Dlg 2" font-size="10.3125" font-weight="400" font-style="normal" 
>
<path vector-effect="non-scaling-stroke" fill-rule="evenodd" d="M9239.73,53282.8 L9239.67,53282.8 L8169.75,55196 L8169.78,55196.1 L8500.67,55381.1 L7430.72,57294.4 L7099.83,57109.3 L7099.77,57109.3 L6029.85,59022.5 L6029.88,59022.6 L6360.77,59207.6 L5315.71,61076.4 L11629.8,63233.6 L23422.3,64597.1 L16652.5,55187.7 L10644.5,51547.6 L9570.62,53467.8 L9239.73,53282.8"/>
</g>

<g fill="none" stroke="#000000" stroke-opacity="1" stroke-width="1" stroke-linecap="square" stroke-linejoin="bevel" transform="matrix(0.999994,0,0,-0.999994,73974.3,65982.1)"
font-family="MS Shell Dlg 2" font-size="10.3125" font-weight="400" font-style="normal" 
>
</g>

<g fill="none" stroke="#000000" stroke-opacity="1" stroke-width="1" stroke-linecap="square" stroke-linejoin="bevel" transform="matrix(0.999994,0,0,-0.999994,73974.3,65982.1)"
font-family="MS Shell Dlg 2" font-size="10.3125" font-weight="400" font-style="normal" 
>
</g>

<g fill="#ae5151" fill-opacity="0.2" stroke="#333333" stroke-opacity="1" stroke-width="1" stroke-linecap="round" stroke-linejoin="round" transform="matrix(0.999994,0,0,-0.999994,73974.3,65982.1)"
font-family="MS Shell Dlg 2" font-size="10.3125" font-weight="400" font-style="normal" 
>
<path vector-effect="non-scaling-stroke" fill-rule="evenodd" d="M-58532.2,57666.8 L-58206.6,57472.8 L-58172.2,57452.3 L-57846.6,57258.3 L-58968.4,55375.3 L-59294,55569.3 L-59328.4,55589.7 L-59654,55783.7 L-58532.2,57666.8"/>
</g>

<g fill="none" stroke="#000000" stroke-opacity="1" stroke-width="1" stroke-linecap="square" stroke-linejoin="bevel" transform="matrix(0.999994,0,0,-0.999994,73974.3,65982.1)"
font-family="MS Shell Dlg 2" font-size="10.3125" font-weight="400" font-style="normal" 
>
</g>

<g fill="none" stroke="#000000" stroke-opacity="1" stroke-width="1" stroke-linecap="square" stroke-linejoin="bevel" transform="matrix(0.999994,0,0,-0.999994,73974.3,65982.1)"
font-family="MS Shell Dlg 2" font-size="10.3125" font-weight="400" font-style="normal" 
>
</g>

<g fill="#ae5151" fill-opacity="0.2" stroke="#333333" stroke-opacity="1" stroke-width="1" stroke-linecap="round" stroke-linejoin="round" transform="matrix(0.999994,0,0,-0.999994,73974.3,65982.1)"
font-family="MS Shell Dlg 2" font-size="10.3125" font-weight="400" font-style="normal" 
>
<path vector-effect="non-scaling-stroke" fill-rule="evenodd" d="M-57084.6,59356.1 L-57084.5,59356.1 L-58206.5,57472.9 L-58206.5,57472.9 L-58532.2,57666.9 L-59654.2,55783.7 L-59328.5,55589.6 L-59328.4,55589.6 L-60450.4,53706.4 L-60450.4,53706.4 L-60776.1,53900.4 L-61872,52061 L-66897.3,56450.6 L-73974.3,65981.4 L-62440.6,64823.3 L-56284.2,61440.3 L-57410.3,59550.1 L-57084.6,59356.1"/>
</g>

<g fill="none" stroke="#000000" stroke-opacity="1" stroke-width="1" stroke-linecap="square" stroke-linejoin="bevel" transform="matrix(0.999994,0,0,-0.999994,73974.3,65982.1)"
font-family="MS Shell Dlg 2" font-size="10.3125" font-weight="400" font-style="normal" 
>
</g>

<g fill="none" stroke="#000000" stroke-opacity="1" stroke-width="1" stroke-linecap="square" stroke-linejoin="bevel" transform="matrix(0.999994,0,0,-0.999994,73974.3,65982.1)"
font-family="MS Shell Dlg 2" font-size="10.3125" font-weight="400" font-style="normal" 
>
</g>

<g fill="#ae5151" fill-opacity="0.2" stroke="#333333" stroke-opacity="1" stroke-width="1" stroke-linecap="round" stroke-linejoin="round" transform="matrix(0.999994,0,0,-0.999994,73974.3,65982.1)"
font-family="MS Shell Dlg 2" font-size="10.3125" font-weight="400" font-style="normal" 
>
<path vector-effect="non-scaling-stroke" fill-rule="evenodd" d="M-20376,20162 L-20368.3,20162 L-20368.2,20162 L-20367.2,19762.9 L-20367.2,19762.9 L-22489.9,19757.2 L-22490,19757.2 L-22491,20136.3 L-28901.8,20119.1 L-28900.8,19740 L-28900.8,19739.9 L-31023.6,19734.2 L-31023.6,19734.2 L-31024.7,20133.3 L-31024.7,20133.3 L-31013.6,20133.3 L-30675.6,34286.5 L-43057.6,41089.3 L-43061.5,41082.6 L-43061.6,41082.6 L-43407.7,41281.2 L-43407.7,41281.2 L-42351.3,43122.4 L-42351.2,43122.4 L-42022.4,42933.8 L-38831.9,48494.4 L-39160.7,48683 L-39160.8,48683.1 L-38104.4,50524.3 L-38104.3,50524.3 L-37758.2,50325.7 L-37758.2,50325.7 L-37763.7,50316 L-25675.6,42946.8 L-13593.2,50268.5 L-13597.1,50275.2 L-13597.1,50275.3 L-13252.1,50475.7 L-13252,50475.7 L-12185.7,48640.2 L-12185.7,48640.2 L-12513.5,48449.7 L-9293.14,42906.4 L-8965.33,43096.9 L-8965.26,43096.9 L-7898.94,41261.4 L-7898.98,41261.3 L-8243.99,41060.9 L-8244.06,41060.9 L-8249.64,41070.5 L-20675.6,34286.5 L-20376,20162"/>
</g>

<g fill="none" stroke="#000000" stroke-opacity="1" stroke-width="1" stroke-linecap="square" stroke-linejoin="bevel" transform="matrix(0.999994,0,0,-0.999994,73974.3,65982.1)"
font-family="MS Shell Dlg 2" font-size="10.3125" font-weight="400" font-style="normal" 
>
</g>

<g fill="none" stroke="#000000" stroke-opacity="1" stroke-width="1" stroke-linecap="square" stroke-linejoin="bevel" transform="matrix(0.999994,0,0,-0.999994,73974.3,65982.1)"
font-family="MS Shell Dlg 2" font-size="10.3125" font-weight="400" font-style="normal" 
>
</g>

<g fill="#ae5151" fill-opacity="0.2" stroke="#333333" stroke-opacity="1" stroke-width="1" stroke-linecap="round" stroke-linejoin="round" transform="matrix(0.999994,0,0,-0.999994,73974.3,65982.1)"
font-family="MS Shell Dlg 2" font-size="10.3125" font-weight="400" font-style="normal" 
>
<path vector-effect="non-scaling-stroke" fill-rule="evenodd" d="M-48250.1,53629.9 L-48250.1,53630 L-47181.6,55423.5 L-47181.5,55423.5 L-46855.9,55229.5 L-46850.1,55245.6 L-38473,50723.9 L-39534.9,48873.2 L-39206,48684.6 L-39206,48684.5 L-40262.4,46843.3 L-40262.5,46843.3 L-40591.3,47032 L-41647.7,45190.7 L-41318.9,45002 L-41318.9,45002 L-42375.3,43160.8 L-42375.4,43160.8 L-42704.2,43349.5 L-43771.2,41489.8 L-43772.3,41486.5 L-52197.4,46224.6 L-52202.7,46215.6 L-52202.8,46215.6 L-52545.6,46419.8 L-52545.6,46419.9 L-51477.1,48213.4 L-51477,48213.4 L-51151.3,48019.4 L-47924.4,53435.9 L-48250.1,53629.9"/>
</g>

<g fill="none" stroke="#000000" stroke-opacity="1" stroke-width="1" stroke-linecap="square" stroke-linejoin="bevel" transform="matrix(0.999994,0,0,-0.999994,73974.3,65982.1)"
font-family="MS Shell Dlg 2" font-size="10.3125" font-weight="400" font-style="normal" 
>
</g>

<g fill="none" stroke="#000000" stroke-opacity="1" stroke-width="1" stroke-linecap="square" stroke-linejoin="bevel" transform="matrix(0.999994,0,0,-0.999994,73974.3,65982.1)"
font-family="MS Shell Dlg 2" font-size="10.3125" font-weight="400" font-style="normal" 
>
</g>

<g fill="#ae5151" fill-opacity="0.2" stroke="#333333" stroke-opacity="1" stroke-width="1" stroke-linecap="round" stroke-linejoin="round" transform="matrix(0.999994,0,0,-0.999994,73974.3,65982.1)"
font-family="MS Shell Dlg 2" font-size="10.3125" font-weight="400" font-style="normal" 
>
<path vector-effect="non-scaling-stroke" fill-rule="evenodd" d="M-136.527,48495 L-136.464,48495 L882.507,46672.9 L882.473,46672.9 L551.584,46487.8 L562.681,46474.8 L-7541.76,41480.8 L-8613.57,43325.8 L-8941.38,43135.3 L-8941.45,43135.3 L-10007.8,44970.8 L-10007.7,44970.9 L-9679.92,45161.3 L-10746.3,46996.8 L-11074.1,46806.4 L-11074.2,46806.4 L-12140.5,48641.9 L-12140.4,48641.9 L-11812.6,48832.4 L-12889.6,50686.3 L-12892,50688.9 L-4576.1,55616.1 L-4581.2,55625.3 L-4581.17,55625.3 L-4232.91,55820.1 L-4232.84,55820.1 L-3213.87,53998 L-3213.91,53997.9 L-3544.8,53812.9 L-467.416,48310 L-136.527,48495"/>
</g>

<g fill="none" stroke="#000000" stroke-opacity="1" stroke-width="1" stroke-linecap="square" stroke-linejoin="bevel" transform="matrix(0.999994,0,0,-0.999994,73974.3,65982.1)"
font-family="MS Shell Dlg 2" font-size="10.3125" font-weight="400" font-style="normal" 
>
</g>

<g fill="none" stroke="#000000" stroke-opacity="1" stroke-width="1" stroke-linecap="square" stroke-linejoin="bevel" transform="matrix(0.999994,0,0,-0.999994,73974.3,65982.1)"
font-family="MS Shell Dlg 2" font-size="10.3125" font-weight="400" font-style="normal" 
>
</g>

<g fill="#ae5151" fill-opacity="0.2" stroke="#333333" stroke-opacity="1" stroke-width="1" stroke-linecap="round" stroke-linejoin="round" transform="matrix(0.999994,0,0,-0.999994,73974.3,65982.1)"
font-family="MS Shell Dlg 2" font-size="10.3125" font-weight="400" font-style="normal" 
>
<path vector-effect="non-scaling-stroke" fill-rule="evenodd" d="M9215.5,53244.1 L9215.56,53244.1 L10285.5,51330.9 L10285.4,51330.9 L9937.19,51136.1 L9937.12,51136.1 L9926.91,51154.4 L1254.51,46858.3 L1248.3,46877.4 L219.106,48717.8 L-111.783,48532.8 L-111.847,48532.8 L-1130.82,50354.9 L-1130.78,50354.9 L-799.894,50540 L-1818.89,52362.1 L-2149.78,52177.1 L-2149.85,52177.1 L-3168.82,53999.2 L-3168.78,53999.2 L-2837.89,54184.3 L-3867.08,56024.6 L4583.41,60750.4 L4914.3,60935.4 L4914.36,60935.4 L5984.28,59022.2 L5984.25,59022.2 L5653.36,58837.1 L8884.61,53059.1 L9215.5,53244.1"/>
</g>

<g fill="none" stroke="#000000" stroke-opacity="1" stroke-width="1" stroke-linecap="square" stroke-linejoin="bevel" transform="matrix(0.999994,0,0,-0.999994,73974.3,65982.1)"
font-family="MS Shell Dlg 2" font-size="10.3125" font-weight="400" font-style="normal" 
>
</g>

<g fill="none" stroke="#000000" stroke-opacity="1" stroke-width="1" stroke-linecap="square" stroke-linejoin="bevel" transform="matrix(0.999994,0,0,-0.999994,73974.3,65982.1)"
font-family="MS Shell Dlg 2" font-size="10.3125" font-weight="400" font-style="normal" 
>
</g>

<g fill="#ae5151" fill-opacity="0.2" stroke="#333333" stroke-opacity="1" stroke-width="1" stroke-linecap="round" stroke-linejoin="round" transform="matrix(0.999994,0,0,-0.999994,73974.3,65982.1)"
font-family="MS Shell Dlg 2" font-size="10.3125" font-weight="400" font-style="normal" 
>
<path vector-effect="non-scaling-stroke" fill-rule="evenodd" d="M-57039,59354.5 L-57039,59354.5 L-55917.1,61237.7 L-55917,61237.7 L-55574.2,61033.5 L-55574.2,61033.4 L-55584.9,61015.4 L-47528.1,55653 L-47541.6,55638 L-48620.8,53826.5 L-48295.1,53632.5 L-48295.1,53632.4 L-49363.6,51838.9 L-49363.7,51838.9 L-49689.4,52033 L-50757.9,50239.4 L-50432.2,50045.4 L-50432.2,50045.3 L-51500.7,48251.8 L-51500.7,48251.8 L-51826.4,48445.9 L-52905.7,46634.4 L-61223.5,51589.8 L-61549.2,51783.9 L-61549.3,51783.9 L-60427.3,53667.1 L-60427.3,53667.1 L-60101.6,53473.1 L-56713.3,59160.4 L-57039,59354.5"/>
</g>

<g fill="none" stroke="#000000" stroke-opacity="1" stroke-width="1" stroke-linecap="square" stroke-linejoin="bevel" transform="matrix(0.999994,0,0,-0.999994,73974.3,65982.1)"
font-family="MS Shell Dlg 2" font-size="10.3125" font-weight="400" font-style="normal" 
>
</g>

<g fill="none" stroke="#000000" stroke-opacity="1" stroke-width="1" stroke-linecap="square" stroke-linejoin="bevel" transform="matrix(0.999994,0,0,-0.999994,73974.3,65982.1)"
font-family="MS Shell Dlg 2" font-size="10.3125" font-weight="400" font-style="normal" 
>
</g>

<g fill="#333333" fill-opacity="0.2" stroke="#333333" stroke-opacity="1" stroke-width="1" stroke-linecap="round" stroke-linejoin="round" transform="matrix(0.999994,0,0,-0.999994,73974.3,65982.1)"
font-family="MS Shell Dlg 2" font-size="10.3125" font-weight="400" font-style="normal" 
>
<path vector-effect="non-scaling-stroke" fill-rule="evenodd" d="M-29182.1,-1119.06 L-29182,-1119.01 L-26990.2,-1149.03 L-26990.1,-1149.09 L-26995.3,-1528.17 L-24803.4,-1558.2 L-24798.2,-1179.12 L-24798.2,-1179.06 L-22606.4,-1209.09 L-22606.3,-1209.14 L-22611.5,-1588.22 L-20470.6,-1617.55 L-21759.4,-8164.37 L-26474.9,-19058.7 L-31238.8,-8491.14 L-31387.2,-1468.01 L-29187.2,-1498.14 L-29182.1,-1119.06"/>
</g>

<g fill="none" stroke="#000000" stroke-opacity="1" stroke-width="1" stroke-linecap="square" stroke-linejoin="bevel" transform="matrix(0.999994,0,0,-0.999994,73974.3,65982.1)"
font-family="MS Shell Dlg 2" font-size="10.3125" font-weight="400" font-style="normal" 
>
</g>

<g fill="none" stroke="#000000" stroke-opacity="1" stroke-width="1" stroke-linecap="square" stroke-linejoin="bevel" transform="matrix(0.999994,0,0,-0.999994,73974.3,65982.1)"
font-family="MS Shell Dlg 2" font-size="10.3125" font-weight="400" font-style="normal" 
>
</g>

<g fill="#333333" fill-opacity="0.2" stroke="#333333" stroke-opacity="1" stroke-width="1" stroke-linecap="round" stroke-linejoin="round" transform="matrix(0.999994,0,0,-0.999994,73974.3,65982.1)"
font-family="MS Shell Dlg 2" font-size="10.3125" font-weight="400" font-style="normal" 
>
<path vector-effect="non-scaling-stroke" fill-rule="evenodd" d="M-29203.4,-1078.74 L-29203.5,-1078.8 L-31395.3,-1048.77 L-31395.3,-1048.72 L-31389.9,-649.738 L-31389.8,-649.682 L-31368.9,-649.968 L-30753.3,9008.61 L-30733.5,9004.41 L-28625.1,8975.53 L-28620,9354.6 L-28619.9,9354.66 L-26532.4,9326.07 L-26532.4,9326.01 L-26537.6,8946.93 L-24450.1,8918.33 L-24444.9,9297.41 L-24444.9,9297.47 L-22357.4,9268.87 L-22357.4,9268.82 L-22362.6,8889.74 L-20254.1,8860.85 L-20386.8,-820.367 L-20392,-1199.45 L-20392,-1199.5 L-22583.8,-1169.48 L-22583.9,-1169.42 L-22578.7,-790.341 L-29198.2,-699.662 L-29203.4,-1078.74"/>
</g>

<g fill="none" stroke="#000000" stroke-opacity="1" stroke-width="1" stroke-linecap="square" stroke-linejoin="bevel" transform="matrix(0.999994,0,0,-0.999994,73974.3,65982.1)"
font-family="MS Shell Dlg 2" font-size="10.3125" font-weight="400" font-style="normal" 
>
</g>

<g fill="none" stroke="#000000" stroke-opacity="1" stroke-width="1" stroke-linecap="square" stroke-linejoin="bevel" transform="matrix(0.999994,0,0,-0.999994,73974.3,65982.1)"
font-family="MS Shell Dlg 2" font-size="10.3125" font-weight="400" font-style="normal" 
>
</g>

<g fill="#333333" fill-opacity="0.2" stroke="#333333" stroke-opacity="1" stroke-width="1" stroke-linecap="round" stroke-linejoin="round" transform="matrix(0.999994,0,0,-0.999994,73974.3,65982.1)"
font-family="MS Shell Dlg 2" font-size="10.3125" font-weight="400" font-style="normal" 
>
<path vector-effect="non-scaling-stroke" fill-rule="evenodd" d="M-28640.3,9394.91 L-28640.3,9394.86 L-30727.8,9423.45 L-30727.8,9423.51 L-30722.6,9802.59 L-30739.4,9799.48 L-31012.1,19315.1 L-28878.5,19320.9 L-28879.5,19700 L-28879.5,19700 L-26756.7,19705.8 L-26756.7,19705.7 L-26755.7,19326.6 L-24632.9,19332.3 L-24633.9,19711.4 L-24633.9,19711.5 L-22511.1,19717.2 L-22511.1,19717.1 L-22510.1,19338 L-20366,19343.8 L-20362.6,19344.5 L-20253.4,9679.13 L-20243,9678.99 L-20242.9,9678.93 L-20248.4,9279.96 L-20248.4,9279.9 L-22335.9,9308.49 L-22335.9,9308.55 L-22330.7,9687.63 L-28635.1,9773.99 L-28640.3,9394.91"/>
</g>

<g fill="none" stroke="#000000" stroke-opacity="1" stroke-width="1" stroke-linecap="square" stroke-linejoin="bevel" transform="matrix(0.999994,0,0,-0.999994,73974.3,65982.1)"
font-family="MS Shell Dlg 2" font-size="10.3125" font-weight="400" font-style="normal" 
>
</g>

<g fill="none" stroke="#000000" stroke-opacity="1" stroke-width="1" stroke-linecap="square" stroke-linejoin="bevel" transform="matrix(0.999994,0,0,-0.999994,73974.3,65982.1)"
font-family="MS Shell Dlg 2" font-size="10.3125" font-weight="400" font-style="normal" 
>
</g>

<g fill="#333333" fill-opacity="0.2" stroke="#333333" stroke-opacity="1" stroke-width="1" stroke-linecap="round" stroke-linejoin="round" transform="matrix(0.999994,0,0,-0.999994,73974.3,65982.1)"
font-family="MS Shell Dlg 2" font-size="10.3125" font-weight="400" font-style="normal" 
>
<path vector-effect="non-scaling-stroke" fill-rule="evenodd" d="M9239.73,53282.8 L9239.67,53282.8 L8169.75,55196 L8169.78,55196.1 L8500.67,55381.1 L7430.72,57294.4 L7099.83,57109.3 L7099.77,57109.3 L6029.85,59022.5 L6029.88,59022.6 L6360.77,59207.6 L5315.71,61076.4 L11629.8,63233.6 L23422.3,64597.1 L16652.5,55187.7 L10644.5,51547.6 L9570.62,53467.8 L9239.73,53282.8"/>
</g>

<g fill="none" stroke="#000000" stroke-opacity="1" stroke-width="1" stroke-linecap="square" stroke-linejoin="bevel" transform="matrix(0.999994,0,0,-0.999994,73974.3,65982.1)"
font-family="MS Shell Dlg 2" font-size="10.3125" font-weight="400" font-style="normal" 
>
</g>

<g fill="none" stroke="#000000" stroke-opacity="1" stroke-width="1" stroke-linecap="square" stroke-linejoin="bevel" transform="matrix(0.999994,0,0,-0.999994,73974.3,65982.1)"
font-family="MS Shell Dlg 2" font-size="10.3125" font-weight="400" font-style="normal" 
>
</g>

<g fill="#333333" fill-opacity="0.2" stroke="#333333" stroke-opacity="1" stroke-width="1" stroke-linecap="round" stroke-linejoin="round" transform="matrix(0.999994,0,0,-0.999994,73974.3,65982.1)"
font-family="MS Shell Dlg 2" font-size="10.3125" font-weight="400" font-style="normal" 
>
<path vector-effect="non-scaling-stroke" fill-rule="evenodd" d="M-58532.2,57666.8 L-58206.6,57472.8 L-58172.2,57452.3 L-57846.6,57258.3 L-58968.4,55375.3 L-59294,55569.3 L-59328.4,55589.7 L-59654,55783.7 L-58532.2,57666.8"/>
</g>

<g fill="none" stroke="#000000" stroke-opacity="1" stroke-width="1" stroke-linecap="square" stroke-linejoin="bevel" transform="matrix(0.999994,0,0,-0.999994,73974.3,65982.1)"
font-family="MS Shell Dlg 2" font-size="10.3125" font-weight="400" font-style="normal" 
>
</g>

<g fill="none" stroke="#000000" stroke-opacity="1" stroke-width="1" stroke-linecap="square" stroke-linejoin="bevel" transform="matrix(0.999994,0,0,-0.999994,73974.3,65982.1)"
font-family="MS Shell Dlg 2" font-size="10.3125" font-weight="400" font-style="normal" 
>
</g>

<g fill="#333333" fill-opacity="0.2" stroke="#333333" stroke-opacity="1" stroke-width="1" stroke-linecap="round" stroke-linejoin="round" transform="matrix(0.999994,0,0,-0.999994,73974.3,65982.1)"
font-family="MS Shell Dlg 2" font-size="10.3125" font-weight="400" font-style="normal" 
>
<path vector-effect="non-scaling-stroke" fill-rule="evenodd" d="M-57084.6,59356.1 L-57084.5,59356.1 L-58206.5,57472.9 L-58206.5,57472.9 L-58532.2,57666.9 L-59654.2,55783.7 L-59328.5,55589.6 L-59328.4,55589.6 L-60450.4,53706.4 L-60450.4,53706.4 L-60776.1,53900.4 L-61872,52061 L-66897.3,56450.6 L-73974.3,65981.4 L-62440.6,64823.3 L-56284.2,61440.3 L-57410.3,59550.1 L-57084.6,59356.1"/>
</g>

<g fill="none" stroke="#000000" stroke-opacity="1" stroke-width="1" stroke-linecap="square" stroke-linejoin="bevel" transform="matrix(0.999994,0,0,-0.999994,73974.3,65982.1)"
font-family="MS Shell Dlg 2" font-size="10.3125" font-weight="400" font-style="normal" 
>
</g>

<g fill="none" stroke="#000000" stroke-opacity="1" stroke-width="1" stroke-linecap="square" stroke-linejoin="bevel" transform="matrix(0.999994,0,0,-0.999994,73974.3,65982.1)"
font-family="MS Shell Dlg 2" font-size="10.3125" font-weight="400" font-style="normal" 
>
</g>

<g fill="#333333" fill-opacity="0.2" stroke="#333333" stroke-opacity="1" stroke-width="1" stroke-linecap="round" stroke-linejoin="round" transform="matrix(0.999994,0,0,-0.999994,73974.3,65982.1)"
font-family="MS Shell Dlg 2" font-size="10.3125" font-weight="400" font-style="normal" 
>
<path vector-effect="non-scaling-stroke" fill-rule="evenodd" d="M-20376,20162 L-20368.3,20162 L-20368.2,20162 L-20367.2,19762.9 L-20367.2,19762.9 L-22489.9,19757.2 L-22490,19757.2 L-22491,20136.3 L-28901.8,20119.1 L-28900.8,19740 L-28900.8,19739.9 L-31023.6,19734.2 L-31023.6,19734.2 L-31024.7,20133.3 L-31024.7,20133.3 L-31013.6,20133.3 L-30675.6,34286.5 L-43057.6,41089.3 L-43061.5,41082.6 L-43061.6,41082.6 L-43407.7,41281.2 L-43407.7,41281.2 L-42351.3,43122.4 L-42351.2,43122.4 L-42022.4,42933.8 L-38831.9,48494.4 L-39160.7,48683 L-39160.8,48683.1 L-38104.4,50524.3 L-38104.3,50524.3 L-37758.2,50325.7 L-37758.2,50325.7 L-37763.7,50316 L-25675.6,42946.8 L-13593.2,50268.5 L-13597.1,50275.2 L-13597.1,50275.3 L-13252.1,50475.7 L-13252,50475.7 L-12185.7,48640.2 L-12185.7,48640.2 L-12513.5,48449.7 L-9293.14,42906.4 L-8965.33,43096.9 L-8965.26,43096.9 L-7898.94,41261.4 L-7898.98,41261.3 L-8243.99,41060.9 L-8244.06,41060.9 L-8249.64,41070.5 L-20675.6,34286.5 L-20376,20162"/>
</g>

<g fill="none" stroke="#000000" stroke-opacity="1" stroke-width="1" stroke-linecap="square" stroke-linejoin="bevel" transform="matrix(0.999994,0,0,-0.999994,73974.3,65982.1)"
font-family="MS Shell Dlg 2" font-size="10.3125" font-weight="400" font-style="normal" 
>
</g>

<g fill="none" stroke="#000000" stroke-opacity="1" stroke-width="1" stroke-linecap="square" stroke-linejoin="bevel" transform="matrix(0.999994,0,0,-0.999994,73974.3,65982.1)"
font-family="MS Shell Dlg 2" font-size="10.3125" font-weight="400" font-style="normal" 
>
</g>

<g fill="#333333" fill-opacity="0.2" stroke="#333333" stroke-opacity="1" stroke-width="1" stroke-linecap="round" stroke-linejoin="round" transform="matrix(0.999994,0,0,-0.999994,73974.3,65982.1)"
font-family="MS Shell Dlg 2" font-size="10.3125" font-weight="400" font-style="normal" 
>
<path vector-effect="non-scaling-stroke" fill-rule="evenodd" d="M-48250.1,53629.9 L-48250.1,53630 L-47181.6,55423.5 L-47181.5,55423.5 L-46855.9,55229.5 L-46850.1,55245.6 L-38473,50723.9 L-39534.9,48873.2 L-39206,48684.6 L-39206,48684.5 L-40262.4,46843.3 L-40262.5,46843.3 L-40591.3,47032 L-41647.7,45190.7 L-41318.9,45002 L-41318.9,45002 L-42375.3,43160.8 L-42375.4,43160.8 L-42704.2,43349.5 L-43771.2,41489.8 L-43772.3,41486.5 L-52197.4,46224.6 L-52202.7,46215.6 L-52202.8,46215.6 L-52545.6,46419.8 L-52545.6,46419.9 L-51477.1,48213.4 L-51477,48213.4 L-51151.3,48019.4 L-47924.4,53435.9 L-48250.1,53629.9"/>
</g>

<g fill="none" stroke="#000000" stroke-opacity="1" stroke-width="1" stroke-linecap="square" stroke-linejoin="bevel" transform="matrix(0.999994,0,0,-0.999994,73974.3,65982.1)"
font-family="MS Shell Dlg 2" font-size="10.3125" font-weight="400" font-style="normal" 
>
</g>

<g fill="none" stroke="#000000" stroke-opacity="1" stroke-width="1" stroke-linecap="square" stroke-linejoin="bevel" transform="matrix(0.999994,0,0,-0.999994,73974.3,65982.1)"
font-family="MS Shell Dlg 2" font-size="10.3125" font-weight="400" font-style="normal" 
>
</g>

<g fill="#333333" fill-opacity="0.2" stroke="#333333" stroke-opacity="1" stroke-width="1" stroke-linecap="round" stroke-linejoin="round" transform="matrix(0.999994,0,0,-0.999994,73974.3,65982.1)"
font-family="MS Shell Dlg 2" font-size="10.3125" font-weight="400" font-style="normal" 
>
<path vector-effect="non-scaling-stroke" fill-rule="evenodd" d="M-136.527,48495 L-136.464,48495 L882.507,46672.9 L882.473,46672.9 L551.584,46487.8 L562.681,46474.8 L-7541.76,41480.8 L-8613.57,43325.8 L-8941.38,43135.3 L-8941.45,43135.3 L-10007.8,44970.8 L-10007.7,44970.9 L-9679.92,45161.3 L-10746.3,46996.8 L-11074.1,46806.4 L-11074.2,46806.4 L-12140.5,48641.9 L-12140.4,48641.9 L-11812.6,48832.4 L-12889.6,50686.3 L-12892,50688.9 L-4576.1,55616.1 L-4581.2,55625.3 L-4581.17,55625.3 L-4232.91,55820.1 L-4232.84,55820.1 L-3213.87,53998 L-3213.91,53997.9 L-3544.8,53812.9 L-467.416,48310 L-136.527,48495"/>
</g>

<g fill="none" stroke="#000000" stroke-opacity="1" stroke-width="1" stroke-linecap="square" stroke-linejoin="bevel" transform="matrix(0.999994,0,0,-0.999994,73974.3,65982.1)"
font-family="MS Shell Dlg 2" font-size="10.3125" font-weight="400" font-style="normal" 
>
</g>

<g fill="none" stroke="#000000" stroke-opacity="1" stroke-width="1" stroke-linecap="square" stroke-linejoin="bevel" transform="matrix(0.999994,0,0,-0.999994,73974.3,65982.1)"
font-family="MS Shell Dlg 2" font-size="10.3125" font-weight="400" font-style="normal" 
>
</g>

<g fill="#333333" fill-opacity="0.2" stroke="#333333" stroke-opacity="1" stroke-width="1" stroke-linecap="round" stroke-linejoin="round" transform="matrix(0.999994,0,0,-0.999994,73974.3,65982.1)"
font-family="MS Shell Dlg 2" font-size="10.3125" font-weight="400" font-style="normal" 
>
<path vector-effect="non-scaling-stroke" fill-rule="evenodd" d="M9215.5,53244.1 L9215.56,53244.1 L10285.5,51330.9 L10285.4,51330.9 L9937.19,51136.1 L9937.12,51136.1 L9926.91,51154.4 L1254.51,46858.3 L1248.3,46877.4 L219.106,48717.8 L-111.783,48532.8 L-111.847,48532.8 L-1130.82,50354.9 L-1130.78,50354.9 L-799.894,50540 L-1818.89,52362.1 L-2149.78,52177.1 L-2149.85,52177.1 L-3168.82,53999.2 L-3168.78,53999.2 L-2837.89,54184.3 L-3867.08,56024.6 L4583.41,60750.4 L4914.3,60935.4 L4914.36,60935.4 L5984.28,59022.2 L5984.25,59022.2 L5653.36,58837.1 L8884.61,53059.1 L9215.5,53244.1"/>
</g>

<g fill="none" stroke="#000000" stroke-opacity="1" stroke-width="1" stroke-linecap="square" stroke-linejoin="bevel" transform="matrix(0.999994,0,0,-0.999994,73974.3,65982.1)"
font-family="MS Shell Dlg 2" font-size="10.3125" font-weight="400" font-style="normal" 
>
</g>

<g fill="none" stroke="#000000" stroke-opacity="1" stroke-width="1" stroke-linecap="square" stroke-linejoin="bevel" transform="matrix(0.999994,0,0,-0.999994,73974.3,65982.1)"
font-family="MS Shell Dlg 2" font-size="10.3125" font-weight="400" font-style="normal" 
>
</g>

<g fill="#333333" fill-opacity="0.2" stroke="#333333" stroke-opacity="1" stroke-width="1" stroke-linecap="round" stroke-linejoin="round" transform="matrix(0.999994,0,0,-0.999994,73974.3,65982.1)"
font-family="MS Shell Dlg 2" font-size="10.3125" font-weight="400" font-style="normal" 
>
<path vector-effect="non-scaling-stroke" fill-rule="evenodd" d="M-57039,59354.5 L-57039,59354.5 L-55917.1,61237.7 L-55917,61237.7 L-55574.2,61033.5 L-55574.2,61033.4 L-55584.9,61015.4 L-47528.1,55653 L-47541.6,55638 L-48620.8,53826.5 L-48295.1,53632.5 L-48295.1,53632.4 L-49363.6,51838.9 L-49363.7,51838.9 L-49689.4,52033 L-50757.9,50239.4 L-50432.2,50045.4 L-50432.2,50045.3 L-51500.7,48251.8 L-51500.7,48251.8 L-51826.4,48445.9 L-52905.7,46634.4 L-61223.5,51589.8 L-61549.2,51783.9 L-61549.3,51783.9 L-60427.3,53667.1 L-60427.3,53667.1 L-60101.6,53473.1 L-56713.3,59160.4 L-57039,59354.5"/>
</g>

<g fill="none" stroke="#000000" stroke-opacity="1" stroke-width="1" stroke-linecap="square" stroke-linejoin="bevel" transform="matrix(0.999994,0,0,-0.999994,73974.3,65982.1)"
font-family="MS Shell Dlg 2" font-size="10.3125" font-weight="400" font-style="normal" 
>
</g>

<g fill="none" stroke="#000000" stroke-opacity="1" stroke-width="1" stroke-linecap="square" stroke-linejoin="bevel" transform="matrix(0.999994,0,0,-0.999994,73974.3,65982.1)"
font-family="MS Shell Dlg 2" font-size="10.3125" font-weight="400" font-style="normal" 
>
</g>

<g fill="#ae5151" fill-opacity="0.2" stroke="#333333" stroke-opacity="1" stroke-width="1" stroke-linecap="round" stroke-linejoin="round" transform="matrix(0.999994,0,0,-0.999994,73974.3,65982.1)"
font-family="MS Shell Dlg 2" font-size="10.3125" font-weight="400" font-style="normal" 
>
<path vector-effect="non-scaling-stroke" fill-rule="evenodd" d="M-20376,20162 L-20368.3,20162 L-20368.2,20162 L-20367.2,19762.9 L-20367.2,19762.9 L-22489.9,19757.2 L-22490,19757.2 L-22491,20136.3 L-28901.8,20119.1 L-28900.8,19740 L-28900.8,19739.9 L-31023.6,19734.2 L-31023.6,19734.2 L-31024.7,20133.3 L-31024.7,20133.3 L-31013.6,20133.3 L-30739.4,31613.8 L-30469.8,31774.1 L-30342.1,31882.7 L-30257.5,32027.4 L-30225.5,32191.9 L-30175.8,34274.6 L-30204.3,34453.4 L-30294.6,34610.3 L-30434.9,34724.7 L-30674.1,34856.2 L-30837.2,34911.9 L-31009.4,34909 L-31170.4,34847.8 L-31423.4,34697.4 L-43057.6,41089.3 L-43061.5,41082.6 L-43061.6,41082.6 L-43407.7,41281.2 L-43407.7,41281.2 L-42351.3,43122.4 L-42351.2,43122.4 L-42022.4,42933.8 L-38831.9,48494.4 L-39160.7,48683 L-39160.8,48683.1 L-38104.4,50524.3 L-38104.3,50524.3 L-37758.2,50325.7 L-37758.2,50325.7 L-37763.7,50316 L-27124.4,43830 L-27108.7,43492.8 L-27039.4,43261.1 L-26869.5,43089 L-25935.9,42519.9 L-25766.8,42455.2 L-25585.8,42454.9 L-25416.5,42519.2 L-24351.5,43164.5 L-24218.3,43282.2 L-24134.6,43439.1 L-24111.2,43615.3 L-24123.8,43887.2 L-13593.2,50268.5 L-13597.1,50275.2 L-13597.1,50275.3 L-13252.1,50475.7 L-13252,50475.7 L-12185.7,48640.2 L-12185.7,48640.2 L-12513.5,48449.7 L-9293.14,42906.4 L-8965.33,43096.9 L-8965.26,43096.9 L-7898.94,41261.4 L-7898.98,41261.3 L-8243.99,41060.9 L-8244.06,41060.9 L-8249.64,41070.5 L-19786.3,34772 L-20043,34923.6 L-20203.3,34984.2 L-20374.6,34987.1 L-20536.9,34931.9 L-20915.2,34725.4 L-21055.8,34611.3 L-21146.5,34454.6 L-21175.5,34275.9 L-21134.9,32359.2 L-21102.9,32193.7 L-21017.8,32048.2 L-20889.2,31939.3 L-20622.5,31781.8 L-20376,20162"/>
</g>

<g fill="none" stroke="#000000" stroke-opacity="1" stroke-width="1" stroke-linecap="square" stroke-linejoin="bevel" transform="matrix(0.999994,0,0,-0.999994,73974.3,65982.1)"
font-family="MS Shell Dlg 2" font-size="10.3125" font-weight="400" font-style="normal" 
>
</g>

<g fill="none" stroke="#000000" stroke-opacity="1" stroke-width="1" stroke-linecap="square" stroke-linejoin="bevel" transform="matrix(0.999994,0,0,-0.999994,73974.3,65982.1)"
font-family="MS Shell Dlg 2" font-size="10.3125" font-weight="400" font-style="normal" 
>
</g>

<g fill="#ae5151" fill-opacity="0.2" stroke="#333333" stroke-opacity="1" stroke-width="1" stroke-linecap="round" stroke-linejoin="round" transform="matrix(0.999994,0,0,-0.999994,73974.3,65982.1)"
font-family="MS Shell Dlg 2" font-size="10.3125" font-weight="400" font-style="normal" 
>
<path vector-effect="non-scaling-stroke" fill-rule="evenodd" d="M-58532.2,57666.8 L-58206.6,57472.8 L-58172.2,57452.3 L-57846.6,57258.3 L-58968.4,55375.3 L-59294,55569.3 L-59328.4,55589.7 L-59654,55783.7 L-58532.2,57666.8"/>
</g>

<g fill="none" stroke="#000000" stroke-opacity="1" stroke-width="1" stroke-linecap="square" stroke-linejoin="bevel" transform="matrix(0.999994,0,0,-0.999994,73974.3,65982.1)"
font-family="MS Shell Dlg 2" font-size="10.3125" font-weight="400" font-style="normal" 
>
</g>

<g fill="none" stroke="#000000" stroke-opacity="1" stroke-width="1" stroke-linecap="square" stroke-linejoin="bevel" transform="matrix(0.999994,0,0,-0.999994,73974.3,65982.1)"
font-family="MS Shell Dlg 2" font-size="10.3125" font-weight="400" font-style="normal" 
>
</g>

<g fill="#333333" fill-opacity="0.2" stroke="#333333" stroke-opacity="1" stroke-width="1" stroke-linecap="round" stroke-linejoin="round" transform="matrix(0.999994,0,0,-0.999994,73974.3,65982.1)"
font-family="MS Shell Dlg 2" font-size="10.3125" font-weight="400" font-style="normal" 
>
<path vector-effect="non-scaling-stroke" fill-rule="evenodd" d="M-59849.4,43993.7 L-50470,61189.3 L-4019.73,61412.6 L7146.19,46003.6 L-16748.9,2233.18 L-35284.3,2456.5 L-59849.4,43993.7 M-30346.7,13551.5 L-30404.1,15551.3 L-30446.4,15738.7 L-30556.2,15896.3 L-30717.4,16000.9 L-30906.1,16037 L-31906.4,16032.4 L-32100.3,15992.3 L-32263.5,15880.1 L-32370.3,15713.3 L-32403.9,15518.1 L-32346.6,13518.4 L-32304.3,13331 L-32194.5,13173.3 L-32033.3,13068.8 L-31844.6,13032.7 L-30844.3,13037.2 L-30650.3,13077.3 L-30487.2,13189.6 L-30380.4,13356.3 L-30346.7,13551.5 M-18797.6,13594.9 L-18820.2,15594.8 L-18860,15784.9 L-18969.4,15945.5 L-19131.6,16052.3 L-19322.4,16089.1 L-20322.4,16084.6 L-20514.3,16045.4 L-20676.5,15935.4 L-20783.9,15771.5 L-20820.1,15579 L-20797.5,13579.1 L-20757.6,13388.9 L-20648.3,13228.4 L-20486,13121.6 L-20295.3,13084.7 L-19295.3,13089.2 L-19103.3,13128.5 L-18941.2,13238.5 L-18833.8,13402.3 L-18797.6,13594.9 M-32196.6,33424.4 L-32239.9,31612.5 L-32200.1,31404.7 L-32078,31232.1 L-31895.4,31125.3 L-31685,31103.6 L-31484.5,31170.8 L-30469.8,31774.1 L-30342.1,31882.7 L-30257.5,32027.4 L-30225.5,32191.9 L-30175.8,34274.6 L-30204.3,34453.4 L-30294.6,34610.3 L-30434.9,34724.7 L-30674.1,34856.2 L-30837.2,34911.9 L-31009.4,34909 L-31170.4,34847.8 L-32167.8,34254.7 L-32321,34113 L-32403,33921 L-32399.4,33712.3 L-32311,33523.2 L-32196.6,33424.4 M-20536.9,34931.9 L-20915.2,34725.4 L-21055.8,34611.3 L-21146.5,34454.6 L-21175.5,34275.9 L-21134.9,32359.2 L-21102.9,32193.7 L-21017.8,32048.2 L-20889.2,31939.3 L-19876.3,31341.1 L-19676.1,31274.6 L-19466.3,31296.5 L-19284.2,31403 L-19162.3,31575.1 L-19122.2,31782.2 L-19156.6,33406.8 L-19055.2,33462.2 L-18896.6,33598.7 L-18807.7,33788.2 L-18804.2,33997.5 L-18886.6,34189.8 L-19040.5,34331.6 L-20043,34923.6 L-20203.3,34984.2 L-20374.6,34987.1 L-20536.9,34931.9 M-49506.3,42990.3 L-47762.3,42009.4 L-47580.6,41949.3 L-47389.6,41961.8 L-47217.3,42045.1 L-47089,42187.1 L-46572.5,43044 L-46505.8,43231.2 L-46517.3,43429.7 L-46605.2,43607.9 L-46755.6,43737.9 L-48499.7,44718.7 L-48681.4,44778.9 L-48872.3,44766.3 L-49044.6,44683 L-49173,44541 L-49689.5,43684.2 L-49756.2,43496.9 L-49744.7,43298.5 L-49656.8,43120.2 L-49506.3,42990.3 M-26869.5,43089 L-25935.9,42519.9 L-25766.8,42455.2 L-25585.8,42454.9 L-25416.5,42519.2 L-24351.5,43164.5 L-24218.3,43282.2 L-24134.6,43439.1 L-24111.2,43615.3 L-24163.9,44752.6 L-24215.4,44951.5 L-24342.5,45112.9 L-24523.8,45209.6 L-24728.7,45225.2 L-24922.5,45157.1 L-25673.3,44702.1 L-26404.9,45148.1 L-26572.3,45212.5 L-26751.7,45213.6 L-26920,45151.4 L-27055.4,45033.7 L-27140.6,44875.8 L-27164.6,44698 L-27108.7,43492.8 L-27039.4,43261.1 L-26869.5,43089 M-2859.49,42647.2 L-2680.21,42714.6 L-2620.59,42751.3 L-976.799,43764.3 L-831.748,43900 L-751,44081.5 L-749.504,44161.8 L-747.3,44280.1 L-796.589,44403 L-821.233,44464.5 L-1370.6,45300.6 L-1504.48,45437.5 L-1680.03,45514.1 L-1871.49,45519.1 L-2050.77,45451.7 L-3754.18,44402 L-3778.04,44379.7 L-3899.23,44266.3 L-3948.39,44155.8 L-3957.29,44135.8 L-3979.98,44084.8 L-3983.68,43886.2 L-3909.75,43701.8 L-3360.38,42865.7 L-3226.5,42728.8 L-3050.95,42652.2 L-2859.49,42647.2 M-43531.3,52886 L-41769.3,51934.9 L-41588.7,51878.2 L-41400,51892.6 L-41230.2,51976.1 L-41103.6,52116.8 L-40586.7,52974.2 L-40519.7,53163.6 L-40532.6,53364.1 L-40623.5,53543.3 L-40777.5,53672.3 L-42539.4,54623.4 L-42720,54680.1 L-42908.7,54665.7 L-43078.5,54582.2 L-43205.2,54441.5 L-43722,53584.1 L-43789,53394.7 L-43776.1,53194.2 L-43685.3,53015 L-43531.3,52886 M-9045.76,52386.6 L-7323.26,53407.2 L-7174.6,53542.2 L-7091,53724.7 L-7085.95,53925.4 L-7160.27,54112 L-7710,54948.6 L-7842.1,55084.3 L-8015.2,55161.2 L-8204.47,55168.1 L-8382.74,55104.2 L-10105.2,54083.6 L-10253.9,53948.6 L-10337.5,53766.1 L-10342.6,53565.4 L-10268.2,53378.9 L-9718.51,52542.2 L-9586.41,52406.5 L-9413.31,52329.6 L-9224.04,52322.7 L-9045.76,52386.6"/>
</g>

<g fill="none" stroke="#000000" stroke-opacity="1" stroke-width="1" stroke-linecap="square" stroke-linejoin="bevel" transform="matrix(0.999994,0,0,-0.999994,73974.3,65982.1)"
font-family="MS Shell Dlg 2" font-size="10.3125" font-weight="400" font-style="normal" 
>
</g>

<g fill="none" stroke="#000000" stroke-opacity="1" stroke-width="1" stroke-linecap="square" stroke-linejoin="bevel" transform="matrix(0.999994,0,0,-0.999994,73974.3,65982.1)"
font-family="MS Shell Dlg 2" font-size="10.3125" font-weight="400" font-style="normal" 
>
</g>

<g fill="#333333" fill-opacity="0.2" stroke="#333333" stroke-opacity="1" stroke-width="1" stroke-linecap="round" stroke-linejoin="round" transform="matrix(0.999994,0,0,-0.999994,73974.3,65982.1)"
font-family="MS Shell Dlg 2" font-size="10.3125" font-weight="400" font-style="normal" 
>
<path vector-effect="non-scaling-stroke" fill-rule="evenodd" d="M-58532.2,57666.8 L-58206.6,57472.8 L-58172.2,57452.3 L-57846.6,57258.3 L-58968.4,55375.3 L-59294,55569.3 L-59328.4,55589.7 L-59654,55783.7 L-58532.2,57666.8"/>
</g>

<g fill="none" stroke="#000000" stroke-opacity="1" stroke-width="1" stroke-linecap="square" stroke-linejoin="bevel" transform="matrix(0.999994,0,0,-0.999994,73974.3,65982.1)"
font-family="MS Shell Dlg 2" font-size="10.3125" font-weight="400" font-style="normal" 
>
</g>

<g fill="none" stroke="#000000" stroke-opacity="1" stroke-width="1" stroke-linecap="square" stroke-linejoin="bevel" transform="matrix(1,0,0,-1,0,85041.1)"
font-family="MS Shell Dlg 2" font-size="10.3125" font-weight="400" font-style="normal" 
>
</g>
</g>
</svg>
