<?xml version="1.0" encoding="UTF-8" standalone="no"?>
<svg width="2201.62mm" height="2075.18mm"
 xmlns="http://www.w3.org/2000/svg" xmlns:xlink="http://www.w3.org/1999/xlink"  version="1.2" baseProfile="tiny">
<title>SVG Generator Example Drawing</title>
<desc>An SVG drawing created by the SVG Generator</desc>
<defs>
</defs>
<g fill="none" stroke="black" stroke-width="1" fill-rule="evenodd" stroke-linecap="square" stroke-linejoin="bevel" >

<g fill="none" stroke="#000000" stroke-opacity="1" stroke-width="1" stroke-linecap="square" stroke-linejoin="bevel" transform="matrix(1,0,0,-1,0,7353.06)"
font-family="MS Shell Dlg 2" font-size="10.3125" font-weight="400" font-style="normal" 
>
</g>

<g fill="none" stroke="#000000" stroke-opacity="1" stroke-width="1" stroke-linecap="square" stroke-linejoin="bevel" transform="matrix(1,0,0,-1,0,7353.06)"
font-family="MS Shell Dlg 2" font-size="10.3125" font-weight="400" font-style="normal" 
>
</g>

<g fill="none" stroke="#000000" stroke-opacity="1" stroke-width="1" stroke-linecap="square" stroke-linejoin="bevel" transform="matrix(0.999957,0,0,-0.999957,14235.9,6990.88)"
font-family="MS Shell Dlg 2" font-size="10.3125" font-weight="400" font-style="normal" 
>
</g>

<g fill="#333333" fill-opacity="0.2" stroke="#333333" stroke-opacity="1" stroke-width="1" stroke-linecap="round" stroke-linejoin="round" transform="matrix(0.999957,0,0,-0.999957,14235.9,6990.88)"
font-family="MS Shell Dlg 2" font-size="10.3125" font-weight="400" font-style="normal" 
>
<path vector-effect="non-scaling-stroke" fill-rule="evenodd" d="M-11876.2,-263.451 L-11884.5,-301.581 L-11906.8,-333.64 L-11939.6,-354.749 L-11978,-361.692 L-12016.1,-353.414 L-12048.2,-331.174 L-12069.3,-298.359 L-12076.2,-259.963 L-12057.5,811.79 L-12049.2,849.92 L-12027,881.979 L-11994.2,903.088 L-11955.8,910.031 L-11917.7,901.753 L-11885.6,879.513 L-11864.5,846.698 L-11857.5,808.302 L-11876.2,-263.451"/>
</g>

<g fill="none" stroke="#000000" stroke-opacity="1" stroke-width="1" stroke-linecap="square" stroke-linejoin="bevel" transform="matrix(0.999957,0,0,-0.999957,14235.9,6990.88)"
font-family="MS Shell Dlg 2" font-size="10.3125" font-weight="400" font-style="normal" 
>
</g>

<g fill="none" stroke="#000000" stroke-opacity="1" stroke-width="1" stroke-linecap="square" stroke-linejoin="bevel" transform="matrix(0.999957,0,0,-0.999957,14235.9,6990.88)"
font-family="MS Shell Dlg 2" font-size="10.3125" font-weight="400" font-style="normal" 
>
</g>

<g fill="#333333" fill-opacity="0.2" stroke="#333333" stroke-opacity="1" stroke-width="1" stroke-linecap="round" stroke-linejoin="round" transform="matrix(0.999957,0,0,-0.999957,14235.9,6990.88)"
font-family="MS Shell Dlg 2" font-size="10.3125" font-weight="400" font-style="normal" 
>
<path vector-effect="non-scaling-stroke" fill-rule="evenodd" d="M-8412.02,2561.29 L-8373.75,2553.68 L-8341.31,2532.01 L-8319.63,2499.56 L-8312.02,2461.29 L-8319.63,2423.03 L-8341.31,2390.58 L-8373.75,2368.91 L-8412.02,2361.29 L-9409,2361.29 L-9447.27,2368.91 L-9479.71,2390.58 L-9501.39,2423.03 L-9509,2461.29 L-9501.39,2499.56 L-9479.71,2532.01 L-9447.27,2553.68 L-9409,2561.29 L-8412.02,2561.29"/>
</g>

<g fill="none" stroke="#000000" stroke-opacity="1" stroke-width="1" stroke-linecap="square" stroke-linejoin="bevel" transform="matrix(0.999957,0,0,-0.999957,14235.9,6990.88)"
font-family="MS Shell Dlg 2" font-size="10.3125" font-weight="400" font-style="normal" 
>
</g>

<g fill="none" stroke="#000000" stroke-opacity="1" stroke-width="1" stroke-linecap="square" stroke-linejoin="bevel" transform="matrix(0.999957,0,0,-0.999957,14235.9,6990.88)"
font-family="MS Shell Dlg 2" font-size="10.3125" font-weight="400" font-style="normal" 
>
</g>

<g fill="#333333" fill-opacity="0.2" stroke="#333333" stroke-opacity="1" stroke-width="1" stroke-linecap="round" stroke-linejoin="round" transform="matrix(0.999957,0,0,-0.999957,14235.9,6990.88)"
font-family="MS Shell Dlg 2" font-size="10.3125" font-weight="400" font-style="normal" 
>
<path vector-effect="non-scaling-stroke" fill-rule="evenodd" d="M-7476.1,2978.77 L-7437.93,2970.68 L-7405.76,2948.6 L-7384.49,2915.89 L-7377.36,2877.53 L-7385.45,2839.36 L-7407.53,2807.19 L-7440.24,2785.92 L-7478.6,2778.79 L-10469.5,2816.17 L-10507.7,2824.26 L-10539.9,2846.35 L-10561.2,2879.06 L-10568.3,2917.42 L-10560.2,2955.59 L-10538.1,2987.76 L-10505.4,3009.03 L-10467,3016.16 L-7476.1,2978.77"/>
</g>

<g fill="none" stroke="#000000" stroke-opacity="1" stroke-width="1" stroke-linecap="square" stroke-linejoin="bevel" transform="matrix(0.999957,0,0,-0.999957,14235.9,6990.88)"
font-family="MS Shell Dlg 2" font-size="10.3125" font-weight="400" font-style="normal" 
>
</g>

<g fill="none" stroke="#000000" stroke-opacity="1" stroke-width="1" stroke-linecap="square" stroke-linejoin="bevel" transform="matrix(0.999957,0,0,-0.999957,14235.9,6990.88)"
font-family="MS Shell Dlg 2" font-size="10.3125" font-weight="400" font-style="normal" 
>
</g>

<g fill="#333333" fill-opacity="0.2" stroke="#333333" stroke-opacity="1" stroke-width="1" stroke-linecap="round" stroke-linejoin="round" transform="matrix(0.999957,0,0,-0.999957,14235.9,6990.88)"
font-family="MS Shell Dlg 2" font-size="10.3125" font-weight="400" font-style="normal" 
>
<path vector-effect="non-scaling-stroke" fill-rule="evenodd" d="M-9727.8,4295.49 L-9735.42,4257.22 L-9757.09,4224.77 L-9789.54,4203.1 L-9827.8,4195.49 L-9866.07,4203.1 L-9898.51,4224.77 L-9920.19,4257.22 L-9927.8,4295.49 L-9927.8,5081.04 L-9920.19,5119.31 L-9898.51,5151.75 L-9866.07,5173.43 L-9827.8,5181.04 L-9789.54,5173.43 L-9757.09,5151.75 L-9735.42,5119.31 L-9727.8,5081.04 L-9727.8,4295.49"/>
</g>

<g fill="none" stroke="#000000" stroke-opacity="1" stroke-width="1" stroke-linecap="square" stroke-linejoin="bevel" transform="matrix(0.999957,0,0,-0.999957,14235.9,6990.88)"
font-family="MS Shell Dlg 2" font-size="10.3125" font-weight="400" font-style="normal" 
>
</g>

<g fill="none" stroke="#000000" stroke-opacity="1" stroke-width="1" stroke-linecap="square" stroke-linejoin="bevel" transform="matrix(0.999957,0,0,-0.999957,14235.9,6990.88)"
font-family="MS Shell Dlg 2" font-size="10.3125" font-weight="400" font-style="normal" 
>
</g>

<g fill="#333333" fill-opacity="0.2" stroke="#333333" stroke-opacity="1" stroke-width="1" stroke-linecap="round" stroke-linejoin="round" transform="matrix(0.999957,0,0,-0.999957,14235.9,6990.88)"
font-family="MS Shell Dlg 2" font-size="10.3125" font-weight="400" font-style="normal" 
>
<path vector-effect="non-scaling-stroke" fill-rule="evenodd" d="M-6536.07,6990.37 L-6497.77,6982.9 L-6465.25,6961.35 L-6443.45,6928.99 L-6435.69,6890.75 L-6443.16,6852.45 L-6464.71,6819.93 L-6497.07,6798.12 L-6535.31,6790.37 L-14135.6,6761.49 L-14173.9,6768.95 L-14206.5,6790.51 L-14228.3,6822.87 L-14236,6861.1 L-14228.6,6899.4 L-14207,6931.93 L-14174.6,6953.73 L-14136.4,6961.48 L-6536.07,6990.37"/>
</g>

<g fill="none" stroke="#000000" stroke-opacity="1" stroke-width="1" stroke-linecap="square" stroke-linejoin="bevel" transform="matrix(0.999957,0,0,-0.999957,14235.9,6990.88)"
font-family="MS Shell Dlg 2" font-size="10.3125" font-weight="400" font-style="normal" 
>
</g>

<g fill="none" stroke="#000000" stroke-opacity="1" stroke-width="1" stroke-linecap="square" stroke-linejoin="bevel" transform="matrix(0.999957,0,0,-0.999957,14235.9,6990.88)"
font-family="MS Shell Dlg 2" font-size="10.3125" font-weight="400" font-style="normal" 
>
</g>

<g fill="#ae5151" fill-opacity="0.2" stroke="#333333" stroke-opacity="1" stroke-width="1" stroke-linecap="round" stroke-linejoin="round" transform="matrix(0.999957,0,0,-0.999957,14235.9,6990.88)"
font-family="MS Shell Dlg 2" font-size="10.3125" font-weight="400" font-style="normal" 
>
<path vector-effect="non-scaling-stroke" fill-rule="evenodd" d="M-11876.2,-263.451 L-11884.5,-301.581 L-11906.8,-333.64 L-11939.6,-354.749 L-11978,-361.692 L-12016.1,-353.414 L-12048.2,-331.174 L-12069.3,-298.359 L-12076.2,-259.963 L-12057.5,811.79 L-12049.2,849.92 L-12027,881.979 L-11994.2,903.088 L-11955.8,910.031 L-11917.7,901.753 L-11885.6,879.513 L-11864.5,846.698 L-11857.5,808.302 L-11876.2,-263.451"/>
</g>

<g fill="none" stroke="#000000" stroke-opacity="1" stroke-width="1" stroke-linecap="square" stroke-linejoin="bevel" transform="matrix(0.999957,0,0,-0.999957,14235.9,6990.88)"
font-family="MS Shell Dlg 2" font-size="10.3125" font-weight="400" font-style="normal" 
>
</g>

<g fill="none" stroke="#000000" stroke-opacity="1" stroke-width="1" stroke-linecap="square" stroke-linejoin="bevel" transform="matrix(0.999957,0,0,-0.999957,14235.9,6990.88)"
font-family="MS Shell Dlg 2" font-size="10.3125" font-weight="400" font-style="normal" 
>
</g>

<g fill="#ae5151" fill-opacity="0.2" stroke="#333333" stroke-opacity="1" stroke-width="1" stroke-linecap="round" stroke-linejoin="round" transform="matrix(0.999957,0,0,-0.999957,14235.9,6990.88)"
font-family="MS Shell Dlg 2" font-size="10.3125" font-weight="400" font-style="normal" 
>
<path vector-effect="non-scaling-stroke" fill-rule="evenodd" d="M-8412.02,2561.29 L-8373.75,2553.68 L-8341.31,2532.01 L-8319.63,2499.56 L-8312.02,2461.29 L-8319.63,2423.03 L-8341.31,2390.58 L-8373.75,2368.91 L-8412.02,2361.29 L-9409,2361.29 L-9447.27,2368.91 L-9479.71,2390.58 L-9501.39,2423.03 L-9509,2461.29 L-9501.39,2499.56 L-9479.71,2532.01 L-9447.27,2553.68 L-9409,2561.29 L-8412.02,2561.29"/>
</g>

<g fill="none" stroke="#000000" stroke-opacity="1" stroke-width="1" stroke-linecap="square" stroke-linejoin="bevel" transform="matrix(0.999957,0,0,-0.999957,14235.9,6990.88)"
font-family="MS Shell Dlg 2" font-size="10.3125" font-weight="400" font-style="normal" 
>
</g>

<g fill="none" stroke="#000000" stroke-opacity="1" stroke-width="1" stroke-linecap="square" stroke-linejoin="bevel" transform="matrix(0.999957,0,0,-0.999957,14235.9,6990.88)"
font-family="MS Shell Dlg 2" font-size="10.3125" font-weight="400" font-style="normal" 
>
</g>

<g fill="#ae5151" fill-opacity="0.2" stroke="#333333" stroke-opacity="1" stroke-width="1" stroke-linecap="round" stroke-linejoin="round" transform="matrix(0.999957,0,0,-0.999957,14235.9,6990.88)"
font-family="MS Shell Dlg 2" font-size="10.3125" font-weight="400" font-style="normal" 
>
<path vector-effect="non-scaling-stroke" fill-rule="evenodd" d="M-7476.1,2978.77 L-7437.93,2970.68 L-7405.76,2948.6 L-7384.49,2915.89 L-7377.36,2877.53 L-7385.45,2839.36 L-7407.53,2807.19 L-7440.24,2785.92 L-7478.6,2778.79 L-10469.5,2816.17 L-10507.7,2824.26 L-10539.9,2846.35 L-10561.2,2879.06 L-10568.3,2917.42 L-10560.2,2955.59 L-10538.1,2987.76 L-10505.4,3009.03 L-10467,3016.16 L-7476.1,2978.77"/>
</g>

<g fill="none" stroke="#000000" stroke-opacity="1" stroke-width="1" stroke-linecap="square" stroke-linejoin="bevel" transform="matrix(0.999957,0,0,-0.999957,14235.9,6990.88)"
font-family="MS Shell Dlg 2" font-size="10.3125" font-weight="400" font-style="normal" 
>
</g>

<g fill="none" stroke="#000000" stroke-opacity="1" stroke-width="1" stroke-linecap="square" stroke-linejoin="bevel" transform="matrix(0.999957,0,0,-0.999957,14235.9,6990.88)"
font-family="MS Shell Dlg 2" font-size="10.3125" font-weight="400" font-style="normal" 
>
</g>

<g fill="#ae5151" fill-opacity="0.2" stroke="#333333" stroke-opacity="1" stroke-width="1" stroke-linecap="round" stroke-linejoin="round" transform="matrix(0.999957,0,0,-0.999957,14235.9,6990.88)"
font-family="MS Shell Dlg 2" font-size="10.3125" font-weight="400" font-style="normal" 
>
<path vector-effect="non-scaling-stroke" fill-rule="evenodd" d="M-9727.8,4295.49 L-9735.42,4257.22 L-9757.09,4224.77 L-9789.54,4203.1 L-9827.8,4195.49 L-9866.07,4203.1 L-9898.51,4224.77 L-9920.19,4257.22 L-9927.8,4295.49 L-9927.8,5081.04 L-9920.19,5119.31 L-9898.51,5151.75 L-9866.07,5173.43 L-9827.8,5181.04 L-9789.54,5173.43 L-9757.09,5151.75 L-9735.42,5119.31 L-9727.8,5081.04 L-9727.8,4295.49"/>
</g>

<g fill="none" stroke="#000000" stroke-opacity="1" stroke-width="1" stroke-linecap="square" stroke-linejoin="bevel" transform="matrix(0.999957,0,0,-0.999957,14235.9,6990.88)"
font-family="MS Shell Dlg 2" font-size="10.3125" font-weight="400" font-style="normal" 
>
</g>

<g fill="none" stroke="#000000" stroke-opacity="1" stroke-width="1" stroke-linecap="square" stroke-linejoin="bevel" transform="matrix(0.999957,0,0,-0.999957,14235.9,6990.88)"
font-family="MS Shell Dlg 2" font-size="10.3125" font-weight="400" font-style="normal" 
>
</g>

<g fill="#ae5151" fill-opacity="0.2" stroke="#333333" stroke-opacity="1" stroke-width="1" stroke-linecap="round" stroke-linejoin="round" transform="matrix(0.999957,0,0,-0.999957,14235.9,6990.88)"
font-family="MS Shell Dlg 2" font-size="10.3125" font-weight="400" font-style="normal" 
>
<path vector-effect="non-scaling-stroke" fill-rule="evenodd" d="M-6536.07,6990.37 L-6497.77,6982.9 L-6465.25,6961.35 L-6443.45,6928.99 L-6435.69,6890.75 L-6443.16,6852.45 L-6464.71,6819.93 L-6497.07,6798.12 L-6535.31,6790.37 L-14135.6,6761.49 L-14173.9,6768.95 L-14206.5,6790.51 L-14228.3,6822.87 L-14236,6861.1 L-14228.6,6899.4 L-14207,6931.93 L-14174.6,6953.73 L-14136.4,6961.48 L-6536.07,6990.37"/>
</g>

<g fill="none" stroke="#000000" stroke-opacity="1" stroke-width="1" stroke-linecap="square" stroke-linejoin="bevel" transform="matrix(0.999957,0,0,-0.999957,14235.9,6990.88)"
font-family="MS Shell Dlg 2" font-size="10.3125" font-weight="400" font-style="normal" 
>
</g>

<g fill="none" stroke="#000000" stroke-opacity="1" stroke-width="1" stroke-linecap="square" stroke-linejoin="bevel" transform="matrix(0.999957,0,0,-0.999957,14235.9,6990.88)"
font-family="MS Shell Dlg 2" font-size="10.3125" font-weight="400" font-style="normal" 
>
</g>

<g fill="#ffff00" fill-opacity="0.2" stroke="#333333" stroke-opacity="1" stroke-width="1" stroke-linecap="round" stroke-linejoin="round" transform="matrix(0.999957,0,0,-0.999957,14235.9,6990.88)"
font-family="MS Shell Dlg 2" font-size="10.3125" font-weight="400" font-style="normal" 
>
<path vector-effect="non-scaling-stroke" fill-rule="evenodd" d="M-11876.2,-263.451 L-11884.5,-301.581 L-11906.8,-333.64 L-11939.6,-354.749 L-11978,-361.692 L-12016.1,-353.414 L-12048.2,-331.174 L-12069.3,-298.359 L-12076.2,-259.963 L-12057.5,811.79 L-12049.2,849.92 L-12027,881.979 L-11994.2,903.088 L-11955.8,910.031 L-11917.7,901.753 L-11885.6,879.513 L-11864.5,846.698 L-11857.5,808.302 L-11876.2,-263.451"/>
</g>

<g fill="none" stroke="#000000" stroke-opacity="1" stroke-width="1" stroke-linecap="square" stroke-linejoin="bevel" transform="matrix(0.999957,0,0,-0.999957,14235.9,6990.88)"
font-family="MS Shell Dlg 2" font-size="10.3125" font-weight="400" font-style="normal" 
>
</g>

<g fill="none" stroke="#000000" stroke-opacity="1" stroke-width="1" stroke-linecap="square" stroke-linejoin="bevel" transform="matrix(0.999957,0,0,-0.999957,14235.9,6990.88)"
font-family="MS Shell Dlg 2" font-size="10.3125" font-weight="400" font-style="normal" 
>
</g>

<g fill="#ffff00" fill-opacity="0.2" stroke="#333333" stroke-opacity="1" stroke-width="1" stroke-linecap="round" stroke-linejoin="round" transform="matrix(0.999957,0,0,-0.999957,14235.9,6990.88)"
font-family="MS Shell Dlg 2" font-size="10.3125" font-weight="400" font-style="normal" 
>
<path vector-effect="non-scaling-stroke" fill-rule="evenodd" d="M-8412.02,2561.29 L-8373.75,2553.68 L-8341.31,2532.01 L-8319.63,2499.56 L-8312.02,2461.29 L-8319.63,2423.03 L-8341.31,2390.58 L-8373.75,2368.91 L-8412.02,2361.29 L-9409,2361.29 L-9447.27,2368.91 L-9479.71,2390.58 L-9501.39,2423.03 L-9509,2461.29 L-9501.39,2499.56 L-9479.71,2532.01 L-9447.27,2553.68 L-9409,2561.29 L-8412.02,2561.29"/>
</g>

<g fill="none" stroke="#000000" stroke-opacity="1" stroke-width="1" stroke-linecap="square" stroke-linejoin="bevel" transform="matrix(0.999957,0,0,-0.999957,14235.9,6990.88)"
font-family="MS Shell Dlg 2" font-size="10.3125" font-weight="400" font-style="normal" 
>
</g>

<g fill="none" stroke="#000000" stroke-opacity="1" stroke-width="1" stroke-linecap="square" stroke-linejoin="bevel" transform="matrix(0.999957,0,0,-0.999957,14235.9,6990.88)"
font-family="MS Shell Dlg 2" font-size="10.3125" font-weight="400" font-style="normal" 
>
</g>

<g fill="#ffff00" fill-opacity="0.2" stroke="#333333" stroke-opacity="1" stroke-width="1" stroke-linecap="round" stroke-linejoin="round" transform="matrix(0.999957,0,0,-0.999957,14235.9,6990.88)"
font-family="MS Shell Dlg 2" font-size="10.3125" font-weight="400" font-style="normal" 
>
<path vector-effect="non-scaling-stroke" fill-rule="evenodd" d="M-7476.1,2978.77 L-7437.93,2970.68 L-7405.76,2948.6 L-7384.49,2915.89 L-7377.36,2877.53 L-7385.45,2839.36 L-7407.53,2807.19 L-7440.24,2785.92 L-7478.6,2778.79 L-10469.5,2816.17 L-10507.7,2824.26 L-10539.9,2846.35 L-10561.2,2879.06 L-10568.3,2917.42 L-10560.2,2955.59 L-10538.1,2987.76 L-10505.4,3009.03 L-10467,3016.16 L-7476.1,2978.77"/>
</g>

<g fill="none" stroke="#000000" stroke-opacity="1" stroke-width="1" stroke-linecap="square" stroke-linejoin="bevel" transform="matrix(0.999957,0,0,-0.999957,14235.9,6990.88)"
font-family="MS Shell Dlg 2" font-size="10.3125" font-weight="400" font-style="normal" 
>
</g>

<g fill="none" stroke="#000000" stroke-opacity="1" stroke-width="1" stroke-linecap="square" stroke-linejoin="bevel" transform="matrix(0.999957,0,0,-0.999957,14235.9,6990.88)"
font-family="MS Shell Dlg 2" font-size="10.3125" font-weight="400" font-style="normal" 
>
</g>

<g fill="#ffff00" fill-opacity="0.2" stroke="#333333" stroke-opacity="1" stroke-width="1" stroke-linecap="round" stroke-linejoin="round" transform="matrix(0.999957,0,0,-0.999957,14235.9,6990.88)"
font-family="MS Shell Dlg 2" font-size="10.3125" font-weight="400" font-style="normal" 
>
<path vector-effect="non-scaling-stroke" fill-rule="evenodd" d="M-9727.8,4295.49 L-9735.42,4257.22 L-9757.09,4224.77 L-9789.54,4203.1 L-9827.8,4195.49 L-9866.07,4203.1 L-9898.51,4224.77 L-9920.19,4257.22 L-9927.8,4295.49 L-9927.8,5081.04 L-9920.19,5119.31 L-9898.51,5151.75 L-9866.07,5173.43 L-9827.8,5181.04 L-9789.54,5173.43 L-9757.09,5151.75 L-9735.42,5119.31 L-9727.8,5081.04 L-9727.8,4295.49"/>
</g>

<g fill="none" stroke="#000000" stroke-opacity="1" stroke-width="1" stroke-linecap="square" stroke-linejoin="bevel" transform="matrix(0.999957,0,0,-0.999957,14235.9,6990.88)"
font-family="MS Shell Dlg 2" font-size="10.3125" font-weight="400" font-style="normal" 
>
</g>

<g fill="none" stroke="#000000" stroke-opacity="1" stroke-width="1" stroke-linecap="square" stroke-linejoin="bevel" transform="matrix(0.999957,0,0,-0.999957,14235.9,6990.88)"
font-family="MS Shell Dlg 2" font-size="10.3125" font-weight="400" font-style="normal" 
>
</g>

<g fill="#ffff00" fill-opacity="0.2" stroke="#333333" stroke-opacity="1" stroke-width="1" stroke-linecap="round" stroke-linejoin="round" transform="matrix(0.999957,0,0,-0.999957,14235.9,6990.88)"
font-family="MS Shell Dlg 2" font-size="10.3125" font-weight="400" font-style="normal" 
>
<path vector-effect="non-scaling-stroke" fill-rule="evenodd" d="M-6536.07,6990.37 L-6497.77,6982.9 L-6465.25,6961.35 L-6443.45,6928.99 L-6435.69,6890.75 L-6443.16,6852.45 L-6464.71,6819.93 L-6497.07,6798.12 L-6535.31,6790.37 L-14135.6,6761.49 L-14173.9,6768.95 L-14206.5,6790.51 L-14228.3,6822.87 L-14236,6861.1 L-14228.6,6899.4 L-14207,6931.93 L-14174.6,6953.73 L-14136.4,6961.48 L-6536.07,6990.37"/>
</g>

<g fill="none" stroke="#000000" stroke-opacity="1" stroke-width="1" stroke-linecap="square" stroke-linejoin="bevel" transform="matrix(0.999957,0,0,-0.999957,14235.9,6990.88)"
font-family="MS Shell Dlg 2" font-size="10.3125" font-weight="400" font-style="normal" 
>
</g>

<g fill="none" stroke="#000000" stroke-opacity="1" stroke-width="1" stroke-linecap="square" stroke-linejoin="bevel" transform="matrix(0.999957,0,0,-0.999957,14235.9,6990.88)"
font-family="MS Shell Dlg 2" font-size="10.3125" font-weight="400" font-style="normal" 
>
</g>

<g fill="#ae5151" fill-opacity="0.2" stroke="#333333" stroke-opacity="1" stroke-width="1" stroke-linecap="round" stroke-linejoin="round" transform="matrix(0.999957,0,0,-0.999957,14235.9,6990.88)"
font-family="MS Shell Dlg 2" font-size="10.3125" font-weight="400" font-style="normal" 
>
<path vector-effect="non-scaling-stroke" fill-rule="evenodd" d="M-11876.2,-263.451 L-11884.5,-301.581 L-11906.8,-333.64 L-11939.6,-354.749 L-11978,-361.692 L-12016.1,-353.414 L-12048.2,-331.174 L-12069.3,-298.359 L-12076.2,-259.963 L-12057.5,811.79 L-12049.2,849.92 L-12027,881.979 L-11994.2,903.088 L-11955.8,910.031 L-11917.7,901.753 L-11885.6,879.513 L-11864.5,846.698 L-11857.5,808.302 L-11876.2,-263.451"/>
</g>

<g fill="none" stroke="#000000" stroke-opacity="1" stroke-width="1" stroke-linecap="square" stroke-linejoin="bevel" transform="matrix(0.999957,0,0,-0.999957,14235.9,6990.88)"
font-family="MS Shell Dlg 2" font-size="10.3125" font-weight="400" font-style="normal" 
>
</g>

<g fill="none" stroke="#000000" stroke-opacity="1" stroke-width="1" stroke-linecap="square" stroke-linejoin="bevel" transform="matrix(0.999957,0,0,-0.999957,14235.9,6990.88)"
font-family="MS Shell Dlg 2" font-size="10.3125" font-weight="400" font-style="normal" 
>
</g>

<g fill="#ae5151" fill-opacity="0.2" stroke="#333333" stroke-opacity="1" stroke-width="1" stroke-linecap="round" stroke-linejoin="round" transform="matrix(0.999957,0,0,-0.999957,14235.9,6990.88)"
font-family="MS Shell Dlg 2" font-size="10.3125" font-weight="400" font-style="normal" 
>
<path vector-effect="non-scaling-stroke" fill-rule="evenodd" d="M-8412.02,2561.29 L-8373.75,2553.68 L-8341.31,2532.01 L-8319.63,2499.56 L-8312.02,2461.29 L-8319.63,2423.03 L-8341.31,2390.58 L-8373.75,2368.91 L-8412.02,2361.29 L-9409,2361.29 L-9447.27,2368.91 L-9479.71,2390.58 L-9501.39,2423.03 L-9509,2461.29 L-9501.39,2499.56 L-9479.71,2532.01 L-9447.27,2553.68 L-9409,2561.29 L-8412.02,2561.29"/>
</g>

<g fill="none" stroke="#000000" stroke-opacity="1" stroke-width="1" stroke-linecap="square" stroke-linejoin="bevel" transform="matrix(0.999957,0,0,-0.999957,14235.9,6990.88)"
font-family="MS Shell Dlg 2" font-size="10.3125" font-weight="400" font-style="normal" 
>
</g>

<g fill="none" stroke="#000000" stroke-opacity="1" stroke-width="1" stroke-linecap="square" stroke-linejoin="bevel" transform="matrix(0.999957,0,0,-0.999957,14235.9,6990.88)"
font-family="MS Shell Dlg 2" font-size="10.3125" font-weight="400" font-style="normal" 
>
</g>

<g fill="#ae5151" fill-opacity="0.2" stroke="#333333" stroke-opacity="1" stroke-width="1" stroke-linecap="round" stroke-linejoin="round" transform="matrix(0.999957,0,0,-0.999957,14235.9,6990.88)"
font-family="MS Shell Dlg 2" font-size="10.3125" font-weight="400" font-style="normal" 
>
<path vector-effect="non-scaling-stroke" fill-rule="evenodd" d="M-7476.1,2978.77 L-7437.93,2970.68 L-7405.76,2948.6 L-7384.49,2915.89 L-7377.36,2877.53 L-7385.45,2839.36 L-7407.53,2807.19 L-7440.24,2785.92 L-7478.6,2778.79 L-10469.5,2816.17 L-10507.7,2824.26 L-10539.9,2846.35 L-10561.2,2879.06 L-10568.3,2917.42 L-10560.2,2955.59 L-10538.1,2987.76 L-10505.4,3009.03 L-10467,3016.16 L-7476.1,2978.77"/>
</g>

<g fill="none" stroke="#000000" stroke-opacity="1" stroke-width="1" stroke-linecap="square" stroke-linejoin="bevel" transform="matrix(0.999957,0,0,-0.999957,14235.9,6990.88)"
font-family="MS Shell Dlg 2" font-size="10.3125" font-weight="400" font-style="normal" 
>
</g>

<g fill="none" stroke="#000000" stroke-opacity="1" stroke-width="1" stroke-linecap="square" stroke-linejoin="bevel" transform="matrix(0.999957,0,0,-0.999957,14235.9,6990.88)"
font-family="MS Shell Dlg 2" font-size="10.3125" font-weight="400" font-style="normal" 
>
</g>

<g fill="#ae5151" fill-opacity="0.2" stroke="#333333" stroke-opacity="1" stroke-width="1" stroke-linecap="round" stroke-linejoin="round" transform="matrix(0.999957,0,0,-0.999957,14235.9,6990.88)"
font-family="MS Shell Dlg 2" font-size="10.3125" font-weight="400" font-style="normal" 
>
<path vector-effect="non-scaling-stroke" fill-rule="evenodd" d="M-9727.8,4295.49 L-9735.42,4257.22 L-9757.09,4224.77 L-9789.54,4203.1 L-9827.8,4195.49 L-9866.07,4203.1 L-9898.51,4224.77 L-9920.19,4257.22 L-9927.8,4295.49 L-9927.8,5081.04 L-9920.19,5119.31 L-9898.51,5151.75 L-9866.07,5173.43 L-9827.8,5181.04 L-9789.54,5173.43 L-9757.09,5151.75 L-9735.42,5119.31 L-9727.8,5081.04 L-9727.8,4295.49"/>
</g>

<g fill="none" stroke="#000000" stroke-opacity="1" stroke-width="1" stroke-linecap="square" stroke-linejoin="bevel" transform="matrix(0.999957,0,0,-0.999957,14235.9,6990.88)"
font-family="MS Shell Dlg 2" font-size="10.3125" font-weight="400" font-style="normal" 
>
</g>

<g fill="none" stroke="#000000" stroke-opacity="1" stroke-width="1" stroke-linecap="square" stroke-linejoin="bevel" transform="matrix(0.999957,0,0,-0.999957,14235.9,6990.88)"
font-family="MS Shell Dlg 2" font-size="10.3125" font-weight="400" font-style="normal" 
>
</g>

<g fill="#ae5151" fill-opacity="0.2" stroke="#333333" stroke-opacity="1" stroke-width="1" stroke-linecap="round" stroke-linejoin="round" transform="matrix(0.999957,0,0,-0.999957,14235.9,6990.88)"
font-family="MS Shell Dlg 2" font-size="10.3125" font-weight="400" font-style="normal" 
>
<path vector-effect="non-scaling-stroke" fill-rule="evenodd" d="M-6536.07,6990.37 L-6497.77,6982.9 L-6465.25,6961.35 L-6443.45,6928.99 L-6435.69,6890.75 L-6443.16,6852.45 L-6464.71,6819.93 L-6497.07,6798.12 L-6535.31,6790.37 L-14135.6,6761.49 L-14173.9,6768.95 L-14206.5,6790.51 L-14228.3,6822.87 L-14236,6861.1 L-14228.6,6899.4 L-14207,6931.93 L-14174.6,6953.73 L-14136.4,6961.48 L-6536.07,6990.37"/>
</g>

<g fill="none" stroke="#000000" stroke-opacity="1" stroke-width="1" stroke-linecap="square" stroke-linejoin="bevel" transform="matrix(0.999957,0,0,-0.999957,14235.9,6990.88)"
font-family="MS Shell Dlg 2" font-size="10.3125" font-weight="400" font-style="normal" 
>
</g>

<g fill="none" stroke="#000000" stroke-opacity="1" stroke-width="1" stroke-linecap="square" stroke-linejoin="bevel" transform="matrix(0.999957,0,0,-0.999957,14235.9,6990.88)"
font-family="MS Shell Dlg 2" font-size="10.3125" font-weight="400" font-style="normal" 
>
</g>

<g fill="#333333" fill-opacity="0.2" stroke="#333333" stroke-opacity="1" stroke-width="1" stroke-linecap="round" stroke-linejoin="round" transform="matrix(0.999957,0,0,-0.999957,14235.9,6990.88)"
font-family="MS Shell Dlg 2" font-size="10.3125" font-weight="400" font-style="normal" 
>
<path vector-effect="non-scaling-stroke" fill-rule="evenodd" d="M-11876.2,-263.451 L-11884.5,-301.581 L-11906.8,-333.64 L-11939.6,-354.749 L-11978,-361.692 L-12016.1,-353.414 L-12048.2,-331.174 L-12069.3,-298.359 L-12076.2,-259.963 L-12057.5,811.79 L-12049.2,849.92 L-12027,881.979 L-11994.2,903.088 L-11955.8,910.031 L-11917.7,901.753 L-11885.6,879.513 L-11864.5,846.698 L-11857.5,808.302 L-11876.2,-263.451"/>
</g>

<g fill="none" stroke="#000000" stroke-opacity="1" stroke-width="1" stroke-linecap="square" stroke-linejoin="bevel" transform="matrix(0.999957,0,0,-0.999957,14235.9,6990.88)"
font-family="MS Shell Dlg 2" font-size="10.3125" font-weight="400" font-style="normal" 
>
</g>

<g fill="none" stroke="#000000" stroke-opacity="1" stroke-width="1" stroke-linecap="square" stroke-linejoin="bevel" transform="matrix(0.999957,0,0,-0.999957,14235.9,6990.88)"
font-family="MS Shell Dlg 2" font-size="10.3125" font-weight="400" font-style="normal" 
>
</g>

<g fill="#333333" fill-opacity="0.2" stroke="#333333" stroke-opacity="1" stroke-width="1" stroke-linecap="round" stroke-linejoin="round" transform="matrix(0.999957,0,0,-0.999957,14235.9,6990.88)"
font-family="MS Shell Dlg 2" font-size="10.3125" font-weight="400" font-style="normal" 
>
<path vector-effect="non-scaling-stroke" fill-rule="evenodd" d="M-8412.02,2561.29 L-8373.75,2553.68 L-8341.31,2532.01 L-8319.63,2499.56 L-8312.02,2461.29 L-8319.63,2423.03 L-8341.31,2390.58 L-8373.75,2368.91 L-8412.02,2361.29 L-9409,2361.29 L-9447.27,2368.91 L-9479.71,2390.58 L-9501.39,2423.03 L-9509,2461.29 L-9501.39,2499.56 L-9479.71,2532.01 L-9447.27,2553.68 L-9409,2561.29 L-8412.02,2561.29"/>
</g>

<g fill="none" stroke="#000000" stroke-opacity="1" stroke-width="1" stroke-linecap="square" stroke-linejoin="bevel" transform="matrix(0.999957,0,0,-0.999957,14235.9,6990.88)"
font-family="MS Shell Dlg 2" font-size="10.3125" font-weight="400" font-style="normal" 
>
</g>

<g fill="none" stroke="#000000" stroke-opacity="1" stroke-width="1" stroke-linecap="square" stroke-linejoin="bevel" transform="matrix(0.999957,0,0,-0.999957,14235.9,6990.88)"
font-family="MS Shell Dlg 2" font-size="10.3125" font-weight="400" font-style="normal" 
>
</g>

<g fill="#333333" fill-opacity="0.2" stroke="#333333" stroke-opacity="1" stroke-width="1" stroke-linecap="round" stroke-linejoin="round" transform="matrix(0.999957,0,0,-0.999957,14235.9,6990.88)"
font-family="MS Shell Dlg 2" font-size="10.3125" font-weight="400" font-style="normal" 
>
<path vector-effect="non-scaling-stroke" fill-rule="evenodd" d="M-7476.1,2978.77 L-7437.93,2970.68 L-7405.76,2948.6 L-7384.49,2915.89 L-7377.36,2877.53 L-7385.45,2839.36 L-7407.53,2807.19 L-7440.24,2785.92 L-7478.6,2778.79 L-10469.5,2816.17 L-10507.7,2824.26 L-10539.9,2846.35 L-10561.2,2879.06 L-10568.3,2917.42 L-10560.2,2955.59 L-10538.1,2987.76 L-10505.4,3009.03 L-10467,3016.16 L-7476.1,2978.77"/>
</g>

<g fill="none" stroke="#000000" stroke-opacity="1" stroke-width="1" stroke-linecap="square" stroke-linejoin="bevel" transform="matrix(0.999957,0,0,-0.999957,14235.9,6990.88)"
font-family="MS Shell Dlg 2" font-size="10.3125" font-weight="400" font-style="normal" 
>
</g>

<g fill="none" stroke="#000000" stroke-opacity="1" stroke-width="1" stroke-linecap="square" stroke-linejoin="bevel" transform="matrix(0.999957,0,0,-0.999957,14235.9,6990.88)"
font-family="MS Shell Dlg 2" font-size="10.3125" font-weight="400" font-style="normal" 
>
</g>

<g fill="#333333" fill-opacity="0.2" stroke="#333333" stroke-opacity="1" stroke-width="1" stroke-linecap="round" stroke-linejoin="round" transform="matrix(0.999957,0,0,-0.999957,14235.9,6990.88)"
font-family="MS Shell Dlg 2" font-size="10.3125" font-weight="400" font-style="normal" 
>
<path vector-effect="non-scaling-stroke" fill-rule="evenodd" d="M-9727.8,4295.49 L-9735.42,4257.22 L-9757.09,4224.77 L-9789.54,4203.1 L-9827.8,4195.49 L-9866.07,4203.1 L-9898.51,4224.77 L-9920.19,4257.22 L-9927.8,4295.49 L-9927.8,5081.04 L-9920.19,5119.31 L-9898.51,5151.75 L-9866.07,5173.43 L-9827.8,5181.04 L-9789.54,5173.43 L-9757.09,5151.75 L-9735.42,5119.31 L-9727.8,5081.04 L-9727.8,4295.49"/>
</g>

<g fill="none" stroke="#000000" stroke-opacity="1" stroke-width="1" stroke-linecap="square" stroke-linejoin="bevel" transform="matrix(0.999957,0,0,-0.999957,14235.9,6990.88)"
font-family="MS Shell Dlg 2" font-size="10.3125" font-weight="400" font-style="normal" 
>
</g>

<g fill="none" stroke="#000000" stroke-opacity="1" stroke-width="1" stroke-linecap="square" stroke-linejoin="bevel" transform="matrix(0.999957,0,0,-0.999957,14235.9,6990.88)"
font-family="MS Shell Dlg 2" font-size="10.3125" font-weight="400" font-style="normal" 
>
</g>

<g fill="#333333" fill-opacity="0.2" stroke="#333333" stroke-opacity="1" stroke-width="1" stroke-linecap="round" stroke-linejoin="round" transform="matrix(0.999957,0,0,-0.999957,14235.9,6990.88)"
font-family="MS Shell Dlg 2" font-size="10.3125" font-weight="400" font-style="normal" 
>
<path vector-effect="non-scaling-stroke" fill-rule="evenodd" d="M-6536.07,6990.37 L-6497.77,6982.9 L-6465.25,6961.35 L-6443.45,6928.99 L-6435.69,6890.75 L-6443.16,6852.45 L-6464.71,6819.93 L-6497.07,6798.12 L-6535.31,6790.37 L-14135.6,6761.49 L-14173.9,6768.95 L-14206.5,6790.51 L-14228.3,6822.87 L-14236,6861.1 L-14228.6,6899.4 L-14207,6931.93 L-14174.6,6953.73 L-14136.4,6961.48 L-6536.07,6990.37"/>
</g>

<g fill="none" stroke="#000000" stroke-opacity="1" stroke-width="1" stroke-linecap="square" stroke-linejoin="bevel" transform="matrix(0.999957,0,0,-0.999957,14235.9,6990.88)"
font-family="MS Shell Dlg 2" font-size="10.3125" font-weight="400" font-style="normal" 
>
</g>

<g fill="none" stroke="#000000" stroke-opacity="1" stroke-width="1" stroke-linecap="square" stroke-linejoin="bevel" transform="matrix(1,0,0,-1,0,7353.06)"
font-family="MS Shell Dlg 2" font-size="10.3125" font-weight="400" font-style="normal" 
>
</g>
</g>
</svg>
