<?xml version="1.0" encoding="UTF-8" standalone="no"?>
<svg width="11492.7mm" height="6722.53mm"
 xmlns="http://www.w3.org/2000/svg" xmlns:xlink="http://www.w3.org/1999/xlink"  version="1.2" baseProfile="tiny">
<title>SVG Generator Example Drawing</title>
<desc>An SVG drawing created by the SVG Generator</desc>
<defs>
</defs>
<g fill="none" stroke="black" stroke-width="1" fill-rule="evenodd" stroke-linecap="square" stroke-linejoin="bevel" >

<g fill="none" stroke="#000000" stroke-opacity="1" stroke-width="1" stroke-linecap="square" stroke-linejoin="bevel" transform="matrix(1,0,0,-1,0,23820.5)"
font-family="MS Shell Dlg 2" font-size="10.3125" font-weight="400" font-style="normal" 
>
</g>

<g fill="none" stroke="#000000" stroke-opacity="1" stroke-width="1" stroke-linecap="square" stroke-linejoin="bevel" transform="matrix(1,0,0,-1,0,23820.5)"
font-family="MS Shell Dlg 2" font-size="10.3125" font-weight="400" font-style="normal" 
>
</g>

<g fill="none" stroke="#000000" stroke-opacity="1" stroke-width="1" stroke-linecap="square" stroke-linejoin="bevel" transform="matrix(0.999978,0,0,-0.999978,23183.5,12496.5)"
font-family="MS Shell Dlg 2" font-size="10.3125" font-weight="400" font-style="normal" 
>
</g>

<g fill="#333333" fill-opacity="0.2" stroke="#333333" stroke-opacity="1" stroke-width="1" stroke-linecap="round" stroke-linejoin="round" transform="matrix(0.999978,0,0,-0.999978,23183.5,12496.5)"
font-family="MS Shell Dlg 2" font-size="10.3125" font-weight="400" font-style="normal" 
>
<path vector-effect="non-scaling-stroke" fill-rule="evenodd" d="M-18648.1,-2565.77 L-18551.2,-2577.41 L-18466.2,-2625.22 L-18406,-2701.93 L-18379.6,-2795.86 L-18391.3,-2892.71 L-18439.1,-2977.73 L-18515.8,-3037.99 L-18609.7,-3064.3 L-22915.1,-3395.48 L-23011.9,-3383.84 L-23096.9,-3336.03 L-23157.2,-3259.32 L-23183.5,-3165.39 L-23171.9,-3068.54 L-23124.1,-2983.52 L-23047.4,-2923.26 L-22953.4,-2896.95 L-18648.1,-2565.77"/>
</g>

<g fill="none" stroke="#000000" stroke-opacity="1" stroke-width="1" stroke-linecap="square" stroke-linejoin="bevel" transform="matrix(0.999978,0,0,-0.999978,23183.5,12496.5)"
font-family="MS Shell Dlg 2" font-size="10.3125" font-weight="400" font-style="normal" 
>
</g>

<g fill="none" stroke="#000000" stroke-opacity="1" stroke-width="1" stroke-linecap="square" stroke-linejoin="bevel" transform="matrix(0.999978,0,0,-0.999978,23183.5,12496.5)"
font-family="MS Shell Dlg 2" font-size="10.3125" font-weight="400" font-style="normal" 
>
</g>

<g fill="#333333" fill-opacity="0.2" stroke="#333333" stroke-opacity="1" stroke-width="1" stroke-linecap="round" stroke-linejoin="round" transform="matrix(0.999978,0,0,-0.999978,23183.5,12496.5)"
font-family="MS Shell Dlg 2" font-size="10.3125" font-weight="400" font-style="normal" 
>
<path vector-effect="non-scaling-stroke" fill-rule="evenodd" d="M-13313.6,-4932.33 L-15401.4,-4919.64 L-15497,-4900.03 L-15577.7,-4845.34 L-15631.4,-4763.91 L-15649.9,-4668.13 L-15630.3,-4572.57 L-15575.6,-4491.8 L-15494.2,-4438.1 L-15398.4,-4419.65 L-13300.6,-4432.4 L-13265.3,-3073.49 L-13243.8,-2978.34 L-13187.5,-2898.67 L-13105,-2846.6 L-13008.9,-2830.06 L-12913.8,-2851.57 L-12834.1,-2907.85 L-12782,-2990.34 L-12765.5,-3086.47 L-12800.5,-4435.44 L-6677.59,-4472.66 L-6544.64,4726.25 L-6524.23,4821.63 L-6468.87,4901.95 L-6386.99,4954.96 L-6291.06,4972.61 L-6195.67,4952.2 L-6115.36,4896.84 L-6062.34,4814.96 L-6044.69,4719.02 L-6177.58,-4475.7 L-1016.41,-4507.08 L-853.276,4628.31 L-5165.84,4618.35 L-5261.55,4637.16 L-5342.78,4691.17 L-5397.16,4772.15 L-5416.41,4867.78 L-5397.61,4963.49 L-5343.6,5044.72 L-5262.62,5099.1 L-5166.99,5118.35 L-844.347,5128.33 L-717.171,12250.2 L-696.436,12345.5 L-640.803,12425.7 L-558.742,12478.4 L-462.747,12495.7 L-367.431,12475 L-287.306,12419.4 L-234.569,12337.3 L-217.25,12241.3 L-344.247,5129.49 L16667.6,5168.76 L16763.3,5149.95 L16844.6,5095.94 L16898.9,5014.96 L16918.2,4919.33 L16899.4,4823.62 L16845.4,4742.39 L16764.4,4688.01 L16668.8,4668.76 L-353.176,4629.46 L-516.383,-4510.12 L17289.6,-4618.36 L17385.1,-4637.97 L17465.9,-4692.65 L17519.6,-4774.09 L17538.1,-4869.87 L17518.4,-4965.43 L17463.8,-5046.2 L17382.3,-5099.9 L17286.5,-5118.35 L-525.311,-5010.07 L-614.667,-10014 L-635.402,-10109.3 L-691.035,-10189.5 L-773.095,-10242.2 L-869.091,-10259.5 L-964.407,-10238.8 L-1044.53,-10183.2 L-1097.27,-10101.1 L-1114.59,-10005.1 L-1025.34,-5007.03 L-6184.81,-4975.67 L-6273,-11077.4 L-6293.41,-11172.8 L-6348.77,-11253.1 L-6430.65,-11306.2 L-6526.59,-11323.8 L-6621.97,-11303.4 L-6702.29,-11248 L-6755.3,-11166.2 L-6772.95,-11070.2 L-6684.82,-4972.63 L-12813.5,-4935.37 L-12964.2,-10736.7 L-12985.7,-10831.9 L-13042,-10911.6 L-13124.5,-10963.6 L-13220.6,-10980.2 L-13315.7,-10958.7 L-13395.4,-10902.4 L-13447.5,-10819.9 L-13464,-10723.8 L-13313.6,-4932.33"/>
</g>

<g fill="none" stroke="#000000" stroke-opacity="1" stroke-width="1" stroke-linecap="square" stroke-linejoin="bevel" transform="matrix(0.999978,0,0,-0.999978,23183.5,12496.5)"
font-family="MS Shell Dlg 2" font-size="10.3125" font-weight="400" font-style="normal" 
>
</g>

<g fill="none" stroke="#000000" stroke-opacity="1" stroke-width="1" stroke-linecap="square" stroke-linejoin="bevel" transform="matrix(0.999978,0,0,-0.999978,23183.5,12496.5)"
font-family="MS Shell Dlg 2" font-size="10.3125" font-weight="400" font-style="normal" 
>
</g>

<g fill="#333333" fill-opacity="0.2" stroke="#333333" stroke-opacity="1" stroke-width="1" stroke-linecap="round" stroke-linejoin="round" transform="matrix(0.999978,0,0,-0.999978,23183.5,12496.5)"
font-family="MS Shell Dlg 2" font-size="10.3125" font-weight="400" font-style="normal" 
>
<path vector-effect="non-scaling-stroke" fill-rule="evenodd" d="M-14583.7,3634.3 L-14497.4,3588.87 L-14435,3513.87 L-14406.1,3420.71 L-14415,3323.58 L-14460.5,3237.26 L-14535.5,3174.89 L-14628.6,3145.97 L-14725.8,3154.9 L-21432.2,5141.98 L-21518.5,5187.41 L-21580.9,5262.41 L-21609.8,5355.57 L-21600.8,5452.7 L-21555.4,5539.03 L-21480.4,5601.4 L-21387.3,5630.32 L-21290.1,5621.38 L-14583.7,3634.3"/>
</g>

<g fill="none" stroke="#000000" stroke-opacity="1" stroke-width="1" stroke-linecap="square" stroke-linejoin="bevel" transform="matrix(0.999978,0,0,-0.999978,23183.5,12496.5)"
font-family="MS Shell Dlg 2" font-size="10.3125" font-weight="400" font-style="normal" 
>
</g>

<g fill="none" stroke="#000000" stroke-opacity="1" stroke-width="1" stroke-linecap="square" stroke-linejoin="bevel" transform="matrix(0.999978,0,0,-0.999978,23183.5,12496.5)"
font-family="MS Shell Dlg 2" font-size="10.3125" font-weight="400" font-style="normal" 
>
</g>

<g fill="#333333" fill-opacity="0.2" stroke="#333333" stroke-opacity="1" stroke-width="1" stroke-linecap="round" stroke-linejoin="round" transform="matrix(0.999978,0,0,-0.999978,23183.5,12496.5)"
font-family="MS Shell Dlg 2" font-size="10.3125" font-weight="400" font-style="normal" 
>
<path vector-effect="non-scaling-stroke" fill-rule="evenodd" d="M-13083.6,5009.78 L-13086.2,4912.27 L-13126,4823.2 L-13196.8,4756.13 L-13287.9,4721.27 L-13385.4,4723.93 L-13474.5,4763.7 L-13541.6,4834.53 L-13576.4,4925.63 L-14735.6,11714.8 L-14732.9,11812.3 L-14693.2,11901.4 L-14622.3,11968.5 L-14531.2,12003.3 L-14433.7,12000.7 L-14344.6,11960.9 L-14277.6,11890.1 L-14242.7,11799 L-13083.6,5009.78"/>
</g>

<g fill="none" stroke="#000000" stroke-opacity="1" stroke-width="1" stroke-linecap="square" stroke-linejoin="bevel" transform="matrix(0.999978,0,0,-0.999978,23183.5,12496.5)"
font-family="MS Shell Dlg 2" font-size="10.3125" font-weight="400" font-style="normal" 
>
</g>

<g fill="none" stroke="#000000" stroke-opacity="1" stroke-width="1" stroke-linecap="square" stroke-linejoin="bevel" transform="matrix(0.999978,0,0,-0.999978,23183.5,12496.5)"
font-family="MS Shell Dlg 2" font-size="10.3125" font-weight="400" font-style="normal" 
>
</g>

<g fill="#333333" fill-opacity="0.2" stroke="#333333" stroke-opacity="1" stroke-width="1" stroke-linecap="round" stroke-linejoin="round" transform="matrix(0.999978,0,0,-0.999978,23183.5,12496.5)"
font-family="MS Shell Dlg 2" font-size="10.3125" font-weight="400" font-style="normal" 
>
<path vector-effect="non-scaling-stroke" fill-rule="evenodd" d="M-7751.39,12136.2 L-7731.04,12231.6 L-7675.72,12311.9 L-7593.87,12365 L-7497.95,12382.7 L-7402.55,12362.3 L-7322.2,12307 L-7269.14,12225.2 L-7251.44,12129.3 L-7316.67,7432.72 L-7337.03,7337.32 L-7392.34,7256.97 L-7474.19,7203.91 L-7570.12,7186.21 L-7665.52,7206.57 L-7745.86,7261.88 L-7798.92,7343.73 L-7816.62,7439.66 L-7751.39,12136.2"/>
</g>

<g fill="none" stroke="#000000" stroke-opacity="1" stroke-width="1" stroke-linecap="square" stroke-linejoin="bevel" transform="matrix(0.999978,0,0,-0.999978,23183.5,12496.5)"
font-family="MS Shell Dlg 2" font-size="10.3125" font-weight="400" font-style="normal" 
>
</g>

<g fill="none" stroke="#000000" stroke-opacity="1" stroke-width="1" stroke-linecap="square" stroke-linejoin="bevel" transform="matrix(0.999978,0,0,-0.999978,23183.5,12496.5)"
font-family="MS Shell Dlg 2" font-size="10.3125" font-weight="400" font-style="normal" 
>
</g>

<g fill="#ae5151" fill-opacity="0.2" stroke="#333333" stroke-opacity="1" stroke-width="1" stroke-linecap="round" stroke-linejoin="round" transform="matrix(0.999978,0,0,-0.999978,23183.5,12496.5)"
font-family="MS Shell Dlg 2" font-size="10.3125" font-weight="400" font-style="normal" 
>
<path vector-effect="non-scaling-stroke" fill-rule="evenodd" d="M-18648.1,-2565.77 L-18551.2,-2577.41 L-18466.2,-2625.22 L-18406,-2701.93 L-18379.6,-2795.86 L-18391.3,-2892.71 L-18439.1,-2977.73 L-18515.8,-3037.99 L-18609.7,-3064.3 L-22915.1,-3395.48 L-23011.9,-3383.84 L-23096.9,-3336.03 L-23157.2,-3259.32 L-23183.5,-3165.39 L-23171.9,-3068.54 L-23124.1,-2983.52 L-23047.4,-2923.26 L-22953.4,-2896.95 L-18648.1,-2565.77"/>
</g>

<g fill="none" stroke="#000000" stroke-opacity="1" stroke-width="1" stroke-linecap="square" stroke-linejoin="bevel" transform="matrix(0.999978,0,0,-0.999978,23183.5,12496.5)"
font-family="MS Shell Dlg 2" font-size="10.3125" font-weight="400" font-style="normal" 
>
</g>

<g fill="none" stroke="#000000" stroke-opacity="1" stroke-width="1" stroke-linecap="square" stroke-linejoin="bevel" transform="matrix(0.999978,0,0,-0.999978,23183.5,12496.5)"
font-family="MS Shell Dlg 2" font-size="10.3125" font-weight="400" font-style="normal" 
>
</g>

<g fill="#ae5151" fill-opacity="0.2" stroke="#333333" stroke-opacity="1" stroke-width="1" stroke-linecap="round" stroke-linejoin="round" transform="matrix(0.999978,0,0,-0.999978,23183.5,12496.5)"
font-family="MS Shell Dlg 2" font-size="10.3125" font-weight="400" font-style="normal" 
>
<path vector-effect="non-scaling-stroke" fill-rule="evenodd" d="M-13313.6,-4932.33 L-15401.4,-4919.64 L-15497,-4900.03 L-15577.7,-4845.34 L-15631.4,-4763.91 L-15649.9,-4668.13 L-15630.3,-4572.57 L-15575.6,-4491.8 L-15494.2,-4438.1 L-15398.4,-4419.65 L-13300.6,-4432.4 L-13265.3,-3073.49 L-13243.8,-2978.34 L-13187.5,-2898.67 L-13105,-2846.6 L-13008.9,-2830.06 L-12913.8,-2851.57 L-12834.1,-2907.85 L-12782,-2990.34 L-12765.5,-3086.47 L-12800.5,-4435.44 L-6677.59,-4472.66 L-6544.64,4726.25 L-6524.23,4821.63 L-6468.87,4901.95 L-6386.99,4954.96 L-6291.06,4972.61 L-6195.67,4952.2 L-6115.36,4896.84 L-6062.34,4814.96 L-6044.69,4719.02 L-6177.58,-4475.7 L-1016.41,-4507.08 L-853.276,4628.31 L-5165.84,4618.35 L-5261.55,4637.16 L-5342.78,4691.17 L-5397.16,4772.15 L-5416.41,4867.78 L-5397.61,4963.49 L-5343.6,5044.72 L-5262.62,5099.1 L-5166.99,5118.35 L-844.347,5128.33 L-717.171,12250.2 L-696.436,12345.5 L-640.803,12425.7 L-558.742,12478.4 L-462.747,12495.7 L-367.431,12475 L-287.306,12419.4 L-234.569,12337.3 L-217.25,12241.3 L-344.247,5129.49 L16667.6,5168.76 L16763.3,5149.95 L16844.6,5095.94 L16898.9,5014.96 L16918.2,4919.33 L16899.4,4823.62 L16845.4,4742.39 L16764.4,4688.01 L16668.8,4668.76 L-353.176,4629.46 L-516.383,-4510.12 L17289.6,-4618.36 L17385.1,-4637.97 L17465.9,-4692.65 L17519.6,-4774.09 L17538.1,-4869.87 L17518.4,-4965.43 L17463.8,-5046.2 L17382.3,-5099.9 L17286.5,-5118.35 L-525.311,-5010.07 L-614.667,-10014 L-635.402,-10109.3 L-691.035,-10189.5 L-773.095,-10242.2 L-869.091,-10259.5 L-964.407,-10238.8 L-1044.53,-10183.2 L-1097.27,-10101.1 L-1114.59,-10005.1 L-1025.34,-5007.03 L-6184.81,-4975.67 L-6273,-11077.4 L-6293.41,-11172.8 L-6348.77,-11253.1 L-6430.65,-11306.2 L-6526.59,-11323.8 L-6621.97,-11303.4 L-6702.29,-11248 L-6755.3,-11166.2 L-6772.95,-11070.2 L-6684.82,-4972.63 L-12813.5,-4935.37 L-12964.2,-10736.7 L-12985.7,-10831.9 L-13042,-10911.6 L-13124.5,-10963.6 L-13220.6,-10980.2 L-13315.7,-10958.7 L-13395.4,-10902.4 L-13447.5,-10819.9 L-13464,-10723.8 L-13313.6,-4932.33"/>
</g>

<g fill="none" stroke="#000000" stroke-opacity="1" stroke-width="1" stroke-linecap="square" stroke-linejoin="bevel" transform="matrix(0.999978,0,0,-0.999978,23183.5,12496.5)"
font-family="MS Shell Dlg 2" font-size="10.3125" font-weight="400" font-style="normal" 
>
</g>

<g fill="none" stroke="#000000" stroke-opacity="1" stroke-width="1" stroke-linecap="square" stroke-linejoin="bevel" transform="matrix(0.999978,0,0,-0.999978,23183.5,12496.5)"
font-family="MS Shell Dlg 2" font-size="10.3125" font-weight="400" font-style="normal" 
>
</g>

<g fill="#ae5151" fill-opacity="0.2" stroke="#333333" stroke-opacity="1" stroke-width="1" stroke-linecap="round" stroke-linejoin="round" transform="matrix(0.999978,0,0,-0.999978,23183.5,12496.5)"
font-family="MS Shell Dlg 2" font-size="10.3125" font-weight="400" font-style="normal" 
>
<path vector-effect="non-scaling-stroke" fill-rule="evenodd" d="M-14583.7,3634.3 L-14497.4,3588.87 L-14435,3513.87 L-14406.1,3420.71 L-14415,3323.58 L-14460.5,3237.26 L-14535.5,3174.89 L-14628.6,3145.97 L-14725.8,3154.9 L-21432.2,5141.98 L-21518.5,5187.41 L-21580.9,5262.41 L-21609.8,5355.57 L-21600.8,5452.7 L-21555.4,5539.03 L-21480.4,5601.4 L-21387.3,5630.32 L-21290.1,5621.38 L-14583.7,3634.3"/>
</g>

<g fill="none" stroke="#000000" stroke-opacity="1" stroke-width="1" stroke-linecap="square" stroke-linejoin="bevel" transform="matrix(0.999978,0,0,-0.999978,23183.5,12496.5)"
font-family="MS Shell Dlg 2" font-size="10.3125" font-weight="400" font-style="normal" 
>
</g>

<g fill="none" stroke="#000000" stroke-opacity="1" stroke-width="1" stroke-linecap="square" stroke-linejoin="bevel" transform="matrix(0.999978,0,0,-0.999978,23183.5,12496.5)"
font-family="MS Shell Dlg 2" font-size="10.3125" font-weight="400" font-style="normal" 
>
</g>

<g fill="#ae5151" fill-opacity="0.2" stroke="#333333" stroke-opacity="1" stroke-width="1" stroke-linecap="round" stroke-linejoin="round" transform="matrix(0.999978,0,0,-0.999978,23183.5,12496.5)"
font-family="MS Shell Dlg 2" font-size="10.3125" font-weight="400" font-style="normal" 
>
<path vector-effect="non-scaling-stroke" fill-rule="evenodd" d="M-13083.6,5009.78 L-13086.2,4912.27 L-13126,4823.2 L-13196.8,4756.13 L-13287.9,4721.27 L-13385.4,4723.93 L-13474.5,4763.7 L-13541.6,4834.53 L-13576.4,4925.63 L-14735.6,11714.8 L-14732.9,11812.3 L-14693.2,11901.4 L-14622.3,11968.5 L-14531.2,12003.3 L-14433.7,12000.7 L-14344.6,11960.9 L-14277.6,11890.1 L-14242.7,11799 L-13083.6,5009.78"/>
</g>

<g fill="none" stroke="#000000" stroke-opacity="1" stroke-width="1" stroke-linecap="square" stroke-linejoin="bevel" transform="matrix(0.999978,0,0,-0.999978,23183.5,12496.5)"
font-family="MS Shell Dlg 2" font-size="10.3125" font-weight="400" font-style="normal" 
>
</g>

<g fill="none" stroke="#000000" stroke-opacity="1" stroke-width="1" stroke-linecap="square" stroke-linejoin="bevel" transform="matrix(0.999978,0,0,-0.999978,23183.5,12496.5)"
font-family="MS Shell Dlg 2" font-size="10.3125" font-weight="400" font-style="normal" 
>
</g>

<g fill="#ae5151" fill-opacity="0.2" stroke="#333333" stroke-opacity="1" stroke-width="1" stroke-linecap="round" stroke-linejoin="round" transform="matrix(0.999978,0,0,-0.999978,23183.5,12496.5)"
font-family="MS Shell Dlg 2" font-size="10.3125" font-weight="400" font-style="normal" 
>
<path vector-effect="non-scaling-stroke" fill-rule="evenodd" d="M-7751.39,12136.2 L-7731.04,12231.6 L-7675.72,12311.9 L-7593.87,12365 L-7497.95,12382.7 L-7402.55,12362.3 L-7322.2,12307 L-7269.14,12225.2 L-7251.44,12129.3 L-7316.67,7432.72 L-7337.03,7337.32 L-7392.34,7256.97 L-7474.19,7203.91 L-7570.12,7186.21 L-7665.52,7206.57 L-7745.86,7261.88 L-7798.92,7343.73 L-7816.62,7439.66 L-7751.39,12136.2"/>
</g>

<g fill="none" stroke="#000000" stroke-opacity="1" stroke-width="1" stroke-linecap="square" stroke-linejoin="bevel" transform="matrix(0.999978,0,0,-0.999978,23183.5,12496.5)"
font-family="MS Shell Dlg 2" font-size="10.3125" font-weight="400" font-style="normal" 
>
</g>

<g fill="none" stroke="#000000" stroke-opacity="1" stroke-width="1" stroke-linecap="square" stroke-linejoin="bevel" transform="matrix(0.999978,0,0,-0.999978,23183.5,12496.5)"
font-family="MS Shell Dlg 2" font-size="10.3125" font-weight="400" font-style="normal" 
>
</g>

<g fill="#ffff00" fill-opacity="0.2" stroke="#333333" stroke-opacity="1" stroke-width="1" stroke-linecap="round" stroke-linejoin="round" transform="matrix(0.999978,0,0,-0.999978,23183.5,12496.5)"
font-family="MS Shell Dlg 2" font-size="10.3125" font-weight="400" font-style="normal" 
>
<path vector-effect="non-scaling-stroke" fill-rule="evenodd" d="M-18648.1,-2565.77 L-18551.2,-2577.41 L-18466.2,-2625.22 L-18406,-2701.93 L-18379.6,-2795.86 L-18391.3,-2892.71 L-18439.1,-2977.73 L-18515.8,-3037.99 L-18609.7,-3064.3 L-22915.1,-3395.48 L-23011.9,-3383.84 L-23096.9,-3336.03 L-23157.2,-3259.32 L-23183.5,-3165.39 L-23171.9,-3068.54 L-23124.1,-2983.52 L-23047.4,-2923.26 L-22953.4,-2896.95 L-18648.1,-2565.77"/>
</g>

<g fill="none" stroke="#000000" stroke-opacity="1" stroke-width="1" stroke-linecap="square" stroke-linejoin="bevel" transform="matrix(0.999978,0,0,-0.999978,23183.5,12496.5)"
font-family="MS Shell Dlg 2" font-size="10.3125" font-weight="400" font-style="normal" 
>
</g>

<g fill="none" stroke="#000000" stroke-opacity="1" stroke-width="1" stroke-linecap="square" stroke-linejoin="bevel" transform="matrix(0.999978,0,0,-0.999978,23183.5,12496.5)"
font-family="MS Shell Dlg 2" font-size="10.3125" font-weight="400" font-style="normal" 
>
</g>

<g fill="#ffff00" fill-opacity="0.2" stroke="#333333" stroke-opacity="1" stroke-width="1" stroke-linecap="round" stroke-linejoin="round" transform="matrix(0.999978,0,0,-0.999978,23183.5,12496.5)"
font-family="MS Shell Dlg 2" font-size="10.3125" font-weight="400" font-style="normal" 
>
<path vector-effect="non-scaling-stroke" fill-rule="evenodd" d="M-13313.6,-4932.33 L-15401.4,-4919.64 L-15497,-4900.03 L-15577.7,-4845.34 L-15631.4,-4763.91 L-15649.9,-4668.13 L-15630.3,-4572.57 L-15575.6,-4491.8 L-15494.2,-4438.1 L-15398.4,-4419.65 L-13300.6,-4432.4 L-13265.3,-3073.49 L-13243.8,-2978.34 L-13187.5,-2898.67 L-13105,-2846.6 L-13008.9,-2830.06 L-12913.8,-2851.57 L-12834.1,-2907.85 L-12782,-2990.34 L-12765.5,-3086.47 L-12800.5,-4435.44 L-6677.59,-4472.66 L-6544.64,4726.25 L-6524.23,4821.63 L-6468.87,4901.95 L-6386.99,4954.96 L-6291.06,4972.61 L-6195.67,4952.2 L-6115.36,4896.84 L-6062.34,4814.96 L-6044.69,4719.02 L-6177.58,-4475.7 L-1016.41,-4507.08 L-853.276,4628.31 L-5165.84,4618.35 L-5261.55,4637.16 L-5342.78,4691.17 L-5397.16,4772.15 L-5416.41,4867.78 L-5397.61,4963.49 L-5343.6,5044.72 L-5262.62,5099.1 L-5166.99,5118.35 L-844.347,5128.33 L-717.171,12250.2 L-696.436,12345.5 L-640.803,12425.7 L-558.742,12478.4 L-462.747,12495.7 L-367.431,12475 L-287.306,12419.4 L-234.569,12337.3 L-217.25,12241.3 L-344.247,5129.49 L16667.6,5168.76 L16763.3,5149.95 L16844.6,5095.94 L16898.9,5014.96 L16918.2,4919.33 L16899.4,4823.62 L16845.4,4742.39 L16764.4,4688.01 L16668.8,4668.76 L-353.176,4629.46 L-516.383,-4510.12 L17289.6,-4618.36 L17385.1,-4637.97 L17465.9,-4692.65 L17519.6,-4774.09 L17538.1,-4869.87 L17518.4,-4965.43 L17463.8,-5046.2 L17382.3,-5099.9 L17286.5,-5118.35 L-525.311,-5010.07 L-614.667,-10014 L-635.402,-10109.3 L-691.035,-10189.5 L-773.095,-10242.2 L-869.091,-10259.5 L-964.407,-10238.8 L-1044.53,-10183.2 L-1097.27,-10101.1 L-1114.59,-10005.1 L-1025.34,-5007.03 L-6184.81,-4975.67 L-6273,-11077.4 L-6293.41,-11172.8 L-6348.77,-11253.1 L-6430.65,-11306.2 L-6526.59,-11323.8 L-6621.97,-11303.4 L-6702.29,-11248 L-6755.3,-11166.2 L-6772.95,-11070.2 L-6684.82,-4972.63 L-12813.5,-4935.37 L-12964.2,-10736.7 L-12985.7,-10831.9 L-13042,-10911.6 L-13124.5,-10963.6 L-13220.6,-10980.2 L-13315.7,-10958.7 L-13395.4,-10902.4 L-13447.5,-10819.9 L-13464,-10723.8 L-13313.6,-4932.33"/>
</g>

<g fill="none" stroke="#000000" stroke-opacity="1" stroke-width="1" stroke-linecap="square" stroke-linejoin="bevel" transform="matrix(0.999978,0,0,-0.999978,23183.5,12496.5)"
font-family="MS Shell Dlg 2" font-size="10.3125" font-weight="400" font-style="normal" 
>
</g>

<g fill="none" stroke="#000000" stroke-opacity="1" stroke-width="1" stroke-linecap="square" stroke-linejoin="bevel" transform="matrix(0.999978,0,0,-0.999978,23183.5,12496.5)"
font-family="MS Shell Dlg 2" font-size="10.3125" font-weight="400" font-style="normal" 
>
</g>

<g fill="#ffff00" fill-opacity="0.2" stroke="#333333" stroke-opacity="1" stroke-width="1" stroke-linecap="round" stroke-linejoin="round" transform="matrix(0.999978,0,0,-0.999978,23183.5,12496.5)"
font-family="MS Shell Dlg 2" font-size="10.3125" font-weight="400" font-style="normal" 
>
<path vector-effect="non-scaling-stroke" fill-rule="evenodd" d="M-14583.7,3634.3 L-14497.4,3588.87 L-14435,3513.87 L-14406.1,3420.71 L-14415,3323.58 L-14460.5,3237.26 L-14535.5,3174.89 L-14628.6,3145.97 L-14725.8,3154.9 L-21432.2,5141.98 L-21518.5,5187.41 L-21580.9,5262.41 L-21609.8,5355.57 L-21600.8,5452.7 L-21555.4,5539.03 L-21480.4,5601.4 L-21387.3,5630.32 L-21290.1,5621.38 L-14583.7,3634.3"/>
</g>

<g fill="none" stroke="#000000" stroke-opacity="1" stroke-width="1" stroke-linecap="square" stroke-linejoin="bevel" transform="matrix(0.999978,0,0,-0.999978,23183.5,12496.5)"
font-family="MS Shell Dlg 2" font-size="10.3125" font-weight="400" font-style="normal" 
>
</g>

<g fill="none" stroke="#000000" stroke-opacity="1" stroke-width="1" stroke-linecap="square" stroke-linejoin="bevel" transform="matrix(0.999978,0,0,-0.999978,23183.5,12496.5)"
font-family="MS Shell Dlg 2" font-size="10.3125" font-weight="400" font-style="normal" 
>
</g>

<g fill="#ffff00" fill-opacity="0.2" stroke="#333333" stroke-opacity="1" stroke-width="1" stroke-linecap="round" stroke-linejoin="round" transform="matrix(0.999978,0,0,-0.999978,23183.5,12496.5)"
font-family="MS Shell Dlg 2" font-size="10.3125" font-weight="400" font-style="normal" 
>
<path vector-effect="non-scaling-stroke" fill-rule="evenodd" d="M-13083.6,5009.78 L-13086.2,4912.27 L-13126,4823.2 L-13196.8,4756.13 L-13287.9,4721.27 L-13385.4,4723.93 L-13474.5,4763.7 L-13541.6,4834.53 L-13576.4,4925.63 L-14735.6,11714.8 L-14732.9,11812.3 L-14693.2,11901.4 L-14622.3,11968.5 L-14531.2,12003.3 L-14433.7,12000.7 L-14344.6,11960.9 L-14277.6,11890.1 L-14242.7,11799 L-13083.6,5009.78"/>
</g>

<g fill="none" stroke="#000000" stroke-opacity="1" stroke-width="1" stroke-linecap="square" stroke-linejoin="bevel" transform="matrix(0.999978,0,0,-0.999978,23183.5,12496.5)"
font-family="MS Shell Dlg 2" font-size="10.3125" font-weight="400" font-style="normal" 
>
</g>

<g fill="none" stroke="#000000" stroke-opacity="1" stroke-width="1" stroke-linecap="square" stroke-linejoin="bevel" transform="matrix(0.999978,0,0,-0.999978,23183.5,12496.5)"
font-family="MS Shell Dlg 2" font-size="10.3125" font-weight="400" font-style="normal" 
>
</g>

<g fill="#ffff00" fill-opacity="0.2" stroke="#333333" stroke-opacity="1" stroke-width="1" stroke-linecap="round" stroke-linejoin="round" transform="matrix(0.999978,0,0,-0.999978,23183.5,12496.5)"
font-family="MS Shell Dlg 2" font-size="10.3125" font-weight="400" font-style="normal" 
>
<path vector-effect="non-scaling-stroke" fill-rule="evenodd" d="M-7751.39,12136.2 L-7731.04,12231.6 L-7675.72,12311.9 L-7593.87,12365 L-7497.95,12382.7 L-7402.55,12362.3 L-7322.2,12307 L-7269.14,12225.2 L-7251.44,12129.3 L-7316.67,7432.72 L-7337.03,7337.32 L-7392.34,7256.97 L-7474.19,7203.91 L-7570.12,7186.21 L-7665.52,7206.57 L-7745.86,7261.88 L-7798.92,7343.73 L-7816.62,7439.66 L-7751.39,12136.2"/>
</g>

<g fill="none" stroke="#000000" stroke-opacity="1" stroke-width="1" stroke-linecap="square" stroke-linejoin="bevel" transform="matrix(0.999978,0,0,-0.999978,23183.5,12496.5)"
font-family="MS Shell Dlg 2" font-size="10.3125" font-weight="400" font-style="normal" 
>
</g>

<g fill="none" stroke="#000000" stroke-opacity="1" stroke-width="1" stroke-linecap="square" stroke-linejoin="bevel" transform="matrix(0.999978,0,0,-0.999978,23183.5,12496.5)"
font-family="MS Shell Dlg 2" font-size="10.3125" font-weight="400" font-style="normal" 
>
</g>

<g fill="#ae5151" fill-opacity="0.2" stroke="#333333" stroke-opacity="1" stroke-width="1" stroke-linecap="round" stroke-linejoin="round" transform="matrix(0.999978,0,0,-0.999978,23183.5,12496.5)"
font-family="MS Shell Dlg 2" font-size="10.3125" font-weight="400" font-style="normal" 
>
<path vector-effect="non-scaling-stroke" fill-rule="evenodd" d="M-18648.1,-2565.77 L-18551.2,-2577.41 L-18466.2,-2625.22 L-18406,-2701.93 L-18379.6,-2795.86 L-18391.3,-2892.71 L-18439.1,-2977.73 L-18515.8,-3037.99 L-18609.7,-3064.3 L-22915.1,-3395.48 L-23011.9,-3383.84 L-23096.9,-3336.03 L-23157.2,-3259.32 L-23183.5,-3165.39 L-23171.9,-3068.54 L-23124.1,-2983.52 L-23047.4,-2923.26 L-22953.4,-2896.95 L-18648.1,-2565.77"/>
</g>

<g fill="none" stroke="#000000" stroke-opacity="1" stroke-width="1" stroke-linecap="square" stroke-linejoin="bevel" transform="matrix(0.999978,0,0,-0.999978,23183.5,12496.5)"
font-family="MS Shell Dlg 2" font-size="10.3125" font-weight="400" font-style="normal" 
>
</g>

<g fill="none" stroke="#000000" stroke-opacity="1" stroke-width="1" stroke-linecap="square" stroke-linejoin="bevel" transform="matrix(0.999978,0,0,-0.999978,23183.5,12496.5)"
font-family="MS Shell Dlg 2" font-size="10.3125" font-weight="400" font-style="normal" 
>
</g>

<g fill="#ae5151" fill-opacity="0.2" stroke="#333333" stroke-opacity="1" stroke-width="1" stroke-linecap="round" stroke-linejoin="round" transform="matrix(0.999978,0,0,-0.999978,23183.5,12496.5)"
font-family="MS Shell Dlg 2" font-size="10.3125" font-weight="400" font-style="normal" 
>
<path vector-effect="non-scaling-stroke" fill-rule="evenodd" d="M-13313.6,-4932.33 L-15401.4,-4919.64 L-15497,-4900.03 L-15577.7,-4845.34 L-15631.4,-4763.91 L-15649.9,-4668.13 L-15630.3,-4572.57 L-15575.6,-4491.8 L-15494.2,-4438.1 L-15398.4,-4419.65 L-13300.6,-4432.4 L-13265.3,-3073.49 L-13243.8,-2978.34 L-13187.5,-2898.67 L-13105,-2846.6 L-13008.9,-2830.06 L-12913.8,-2851.57 L-12834.1,-2907.85 L-12782,-2990.34 L-12765.5,-3086.47 L-12800.5,-4435.44 L-6677.59,-4472.66 L-6544.64,4726.25 L-6524.23,4821.63 L-6468.87,4901.95 L-6386.99,4954.96 L-6291.06,4972.61 L-6195.67,4952.2 L-6115.36,4896.84 L-6062.34,4814.96 L-6044.69,4719.02 L-6177.58,-4475.7 L-1016.41,-4507.08 L-853.276,4628.31 L-5165.84,4618.35 L-5261.55,4637.16 L-5342.78,4691.17 L-5397.16,4772.15 L-5416.41,4867.78 L-5397.61,4963.49 L-5343.6,5044.72 L-5262.62,5099.1 L-5166.99,5118.35 L-844.347,5128.33 L-717.171,12250.2 L-696.436,12345.5 L-640.803,12425.7 L-558.742,12478.4 L-462.747,12495.7 L-367.431,12475 L-287.306,12419.4 L-234.569,12337.3 L-217.25,12241.3 L-344.247,5129.49 L16667.6,5168.76 L16763.3,5149.95 L16844.6,5095.94 L16898.9,5014.96 L16918.2,4919.33 L16899.4,4823.62 L16845.4,4742.39 L16764.4,4688.01 L16668.8,4668.76 L-353.176,4629.46 L-516.383,-4510.12 L17289.6,-4618.36 L17385.1,-4637.97 L17465.9,-4692.65 L17519.6,-4774.09 L17538.1,-4869.87 L17518.4,-4965.43 L17463.8,-5046.2 L17382.3,-5099.9 L17286.5,-5118.35 L-525.311,-5010.07 L-614.667,-10014 L-635.402,-10109.3 L-691.035,-10189.5 L-773.095,-10242.2 L-869.091,-10259.5 L-964.407,-10238.8 L-1044.53,-10183.2 L-1097.27,-10101.1 L-1114.59,-10005.1 L-1025.34,-5007.03 L-6184.81,-4975.67 L-6273,-11077.4 L-6293.41,-11172.8 L-6348.77,-11253.1 L-6430.65,-11306.2 L-6526.59,-11323.8 L-6621.97,-11303.4 L-6702.29,-11248 L-6755.3,-11166.2 L-6772.95,-11070.2 L-6684.82,-4972.63 L-12813.5,-4935.37 L-12964.2,-10736.7 L-12985.7,-10831.9 L-13042,-10911.6 L-13124.5,-10963.6 L-13220.6,-10980.2 L-13315.7,-10958.7 L-13395.4,-10902.4 L-13447.5,-10819.9 L-13464,-10723.8 L-13313.6,-4932.33"/>
</g>

<g fill="none" stroke="#000000" stroke-opacity="1" stroke-width="1" stroke-linecap="square" stroke-linejoin="bevel" transform="matrix(0.999978,0,0,-0.999978,23183.5,12496.5)"
font-family="MS Shell Dlg 2" font-size="10.3125" font-weight="400" font-style="normal" 
>
</g>

<g fill="none" stroke="#000000" stroke-opacity="1" stroke-width="1" stroke-linecap="square" stroke-linejoin="bevel" transform="matrix(0.999978,0,0,-0.999978,23183.5,12496.5)"
font-family="MS Shell Dlg 2" font-size="10.3125" font-weight="400" font-style="normal" 
>
</g>

<g fill="#ae5151" fill-opacity="0.2" stroke="#333333" stroke-opacity="1" stroke-width="1" stroke-linecap="round" stroke-linejoin="round" transform="matrix(0.999978,0,0,-0.999978,23183.5,12496.5)"
font-family="MS Shell Dlg 2" font-size="10.3125" font-weight="400" font-style="normal" 
>
<path vector-effect="non-scaling-stroke" fill-rule="evenodd" d="M-14583.7,3634.3 L-14497.4,3588.87 L-14435,3513.87 L-14406.1,3420.71 L-14415,3323.58 L-14460.5,3237.26 L-14535.5,3174.89 L-14628.6,3145.97 L-14725.8,3154.9 L-21432.2,5141.98 L-21518.5,5187.41 L-21580.9,5262.41 L-21609.8,5355.57 L-21600.8,5452.7 L-21555.4,5539.03 L-21480.4,5601.4 L-21387.3,5630.32 L-21290.1,5621.38 L-14583.7,3634.3"/>
</g>

<g fill="none" stroke="#000000" stroke-opacity="1" stroke-width="1" stroke-linecap="square" stroke-linejoin="bevel" transform="matrix(0.999978,0,0,-0.999978,23183.5,12496.5)"
font-family="MS Shell Dlg 2" font-size="10.3125" font-weight="400" font-style="normal" 
>
</g>

<g fill="none" stroke="#000000" stroke-opacity="1" stroke-width="1" stroke-linecap="square" stroke-linejoin="bevel" transform="matrix(0.999978,0,0,-0.999978,23183.5,12496.5)"
font-family="MS Shell Dlg 2" font-size="10.3125" font-weight="400" font-style="normal" 
>
</g>

<g fill="#ae5151" fill-opacity="0.2" stroke="#333333" stroke-opacity="1" stroke-width="1" stroke-linecap="round" stroke-linejoin="round" transform="matrix(0.999978,0,0,-0.999978,23183.5,12496.5)"
font-family="MS Shell Dlg 2" font-size="10.3125" font-weight="400" font-style="normal" 
>
<path vector-effect="non-scaling-stroke" fill-rule="evenodd" d="M-13083.6,5009.78 L-13086.2,4912.27 L-13126,4823.2 L-13196.8,4756.13 L-13287.9,4721.27 L-13385.4,4723.93 L-13474.5,4763.7 L-13541.6,4834.53 L-13576.4,4925.63 L-14735.6,11714.8 L-14732.9,11812.3 L-14693.2,11901.4 L-14622.3,11968.5 L-14531.2,12003.3 L-14433.7,12000.7 L-14344.6,11960.9 L-14277.6,11890.1 L-14242.7,11799 L-13083.6,5009.78"/>
</g>

<g fill="none" stroke="#000000" stroke-opacity="1" stroke-width="1" stroke-linecap="square" stroke-linejoin="bevel" transform="matrix(0.999978,0,0,-0.999978,23183.5,12496.5)"
font-family="MS Shell Dlg 2" font-size="10.3125" font-weight="400" font-style="normal" 
>
</g>

<g fill="none" stroke="#000000" stroke-opacity="1" stroke-width="1" stroke-linecap="square" stroke-linejoin="bevel" transform="matrix(0.999978,0,0,-0.999978,23183.5,12496.5)"
font-family="MS Shell Dlg 2" font-size="10.3125" font-weight="400" font-style="normal" 
>
</g>

<g fill="#ae5151" fill-opacity="0.2" stroke="#333333" stroke-opacity="1" stroke-width="1" stroke-linecap="round" stroke-linejoin="round" transform="matrix(0.999978,0,0,-0.999978,23183.5,12496.5)"
font-family="MS Shell Dlg 2" font-size="10.3125" font-weight="400" font-style="normal" 
>
<path vector-effect="non-scaling-stroke" fill-rule="evenodd" d="M-7751.39,12136.2 L-7731.04,12231.6 L-7675.72,12311.9 L-7593.87,12365 L-7497.95,12382.7 L-7402.55,12362.3 L-7322.2,12307 L-7269.14,12225.2 L-7251.44,12129.3 L-7316.67,7432.72 L-7337.03,7337.32 L-7392.34,7256.97 L-7474.19,7203.91 L-7570.12,7186.21 L-7665.52,7206.57 L-7745.86,7261.88 L-7798.92,7343.73 L-7816.62,7439.66 L-7751.39,12136.2"/>
</g>

<g fill="none" stroke="#000000" stroke-opacity="1" stroke-width="1" stroke-linecap="square" stroke-linejoin="bevel" transform="matrix(0.999978,0,0,-0.999978,23183.5,12496.5)"
font-family="MS Shell Dlg 2" font-size="10.3125" font-weight="400" font-style="normal" 
>
</g>

<g fill="none" stroke="#000000" stroke-opacity="1" stroke-width="1" stroke-linecap="square" stroke-linejoin="bevel" transform="matrix(0.999978,0,0,-0.999978,23183.5,12496.5)"
font-family="MS Shell Dlg 2" font-size="10.3125" font-weight="400" font-style="normal" 
>
</g>

<g fill="#333333" fill-opacity="0.2" stroke="#333333" stroke-opacity="1" stroke-width="1" stroke-linecap="round" stroke-linejoin="round" transform="matrix(0.999978,0,0,-0.999978,23183.5,12496.5)"
font-family="MS Shell Dlg 2" font-size="10.3125" font-weight="400" font-style="normal" 
>
<path vector-effect="non-scaling-stroke" fill-rule="evenodd" d="M-18648.1,-2565.77 L-18551.2,-2577.41 L-18466.2,-2625.22 L-18406,-2701.93 L-18379.6,-2795.86 L-18391.3,-2892.71 L-18439.1,-2977.73 L-18515.8,-3037.99 L-18609.7,-3064.3 L-22915.1,-3395.48 L-23011.9,-3383.84 L-23096.9,-3336.03 L-23157.2,-3259.32 L-23183.5,-3165.39 L-23171.9,-3068.54 L-23124.1,-2983.52 L-23047.4,-2923.26 L-22953.4,-2896.95 L-18648.1,-2565.77"/>
</g>

<g fill="none" stroke="#000000" stroke-opacity="1" stroke-width="1" stroke-linecap="square" stroke-linejoin="bevel" transform="matrix(0.999978,0,0,-0.999978,23183.5,12496.5)"
font-family="MS Shell Dlg 2" font-size="10.3125" font-weight="400" font-style="normal" 
>
</g>

<g fill="none" stroke="#000000" stroke-opacity="1" stroke-width="1" stroke-linecap="square" stroke-linejoin="bevel" transform="matrix(0.999978,0,0,-0.999978,23183.5,12496.5)"
font-family="MS Shell Dlg 2" font-size="10.3125" font-weight="400" font-style="normal" 
>
</g>

<g fill="#333333" fill-opacity="0.2" stroke="#333333" stroke-opacity="1" stroke-width="1" stroke-linecap="round" stroke-linejoin="round" transform="matrix(0.999978,0,0,-0.999978,23183.5,12496.5)"
font-family="MS Shell Dlg 2" font-size="10.3125" font-weight="400" font-style="normal" 
>
<path vector-effect="non-scaling-stroke" fill-rule="evenodd" d="M-13313.6,-4932.33 L-15401.4,-4919.64 L-15497,-4900.03 L-15577.7,-4845.34 L-15631.4,-4763.91 L-15649.9,-4668.13 L-15630.3,-4572.57 L-15575.6,-4491.8 L-15494.2,-4438.1 L-15398.4,-4419.65 L-13300.6,-4432.4 L-13265.3,-3073.49 L-13243.8,-2978.34 L-13187.5,-2898.67 L-13105,-2846.6 L-13008.9,-2830.06 L-12913.8,-2851.57 L-12834.1,-2907.85 L-12782,-2990.34 L-12765.5,-3086.47 L-12800.5,-4435.44 L-6677.59,-4472.66 L-6544.64,4726.25 L-6524.23,4821.63 L-6468.87,4901.95 L-6386.99,4954.96 L-6291.06,4972.61 L-6195.67,4952.2 L-6115.36,4896.84 L-6062.34,4814.96 L-6044.69,4719.02 L-6177.58,-4475.7 L-1016.41,-4507.08 L-853.276,4628.31 L-5165.84,4618.35 L-5261.55,4637.16 L-5342.78,4691.17 L-5397.16,4772.15 L-5416.41,4867.78 L-5397.61,4963.49 L-5343.6,5044.72 L-5262.62,5099.1 L-5166.99,5118.35 L-844.347,5128.33 L-717.171,12250.2 L-696.436,12345.5 L-640.803,12425.7 L-558.742,12478.4 L-462.747,12495.7 L-367.431,12475 L-287.306,12419.4 L-234.569,12337.3 L-217.25,12241.3 L-344.247,5129.49 L16667.6,5168.76 L16763.3,5149.95 L16844.6,5095.94 L16898.9,5014.96 L16918.2,4919.33 L16899.4,4823.62 L16845.4,4742.39 L16764.4,4688.01 L16668.8,4668.76 L-353.176,4629.46 L-516.383,-4510.12 L17289.6,-4618.36 L17385.1,-4637.97 L17465.9,-4692.65 L17519.6,-4774.09 L17538.1,-4869.87 L17518.4,-4965.43 L17463.8,-5046.2 L17382.3,-5099.9 L17286.5,-5118.35 L-525.311,-5010.07 L-614.667,-10014 L-635.402,-10109.3 L-691.035,-10189.5 L-773.095,-10242.2 L-869.091,-10259.5 L-964.407,-10238.8 L-1044.53,-10183.2 L-1097.27,-10101.1 L-1114.59,-10005.1 L-1025.34,-5007.03 L-6184.81,-4975.67 L-6273,-11077.4 L-6293.41,-11172.8 L-6348.77,-11253.1 L-6430.65,-11306.2 L-6526.59,-11323.8 L-6621.97,-11303.4 L-6702.29,-11248 L-6755.3,-11166.2 L-6772.95,-11070.2 L-6684.82,-4972.63 L-12813.5,-4935.37 L-12964.2,-10736.7 L-12985.7,-10831.9 L-13042,-10911.6 L-13124.5,-10963.6 L-13220.6,-10980.2 L-13315.7,-10958.7 L-13395.4,-10902.4 L-13447.5,-10819.9 L-13464,-10723.8 L-13313.6,-4932.33"/>
</g>

<g fill="none" stroke="#000000" stroke-opacity="1" stroke-width="1" stroke-linecap="square" stroke-linejoin="bevel" transform="matrix(0.999978,0,0,-0.999978,23183.5,12496.5)"
font-family="MS Shell Dlg 2" font-size="10.3125" font-weight="400" font-style="normal" 
>
</g>

<g fill="none" stroke="#000000" stroke-opacity="1" stroke-width="1" stroke-linecap="square" stroke-linejoin="bevel" transform="matrix(0.999978,0,0,-0.999978,23183.5,12496.5)"
font-family="MS Shell Dlg 2" font-size="10.3125" font-weight="400" font-style="normal" 
>
</g>

<g fill="#333333" fill-opacity="0.2" stroke="#333333" stroke-opacity="1" stroke-width="1" stroke-linecap="round" stroke-linejoin="round" transform="matrix(0.999978,0,0,-0.999978,23183.5,12496.5)"
font-family="MS Shell Dlg 2" font-size="10.3125" font-weight="400" font-style="normal" 
>
<path vector-effect="non-scaling-stroke" fill-rule="evenodd" d="M-14583.7,3634.3 L-14497.4,3588.87 L-14435,3513.87 L-14406.1,3420.71 L-14415,3323.58 L-14460.5,3237.26 L-14535.5,3174.89 L-14628.6,3145.97 L-14725.8,3154.9 L-21432.2,5141.98 L-21518.5,5187.41 L-21580.9,5262.41 L-21609.8,5355.57 L-21600.8,5452.7 L-21555.4,5539.03 L-21480.4,5601.4 L-21387.3,5630.32 L-21290.1,5621.38 L-14583.7,3634.3"/>
</g>

<g fill="none" stroke="#000000" stroke-opacity="1" stroke-width="1" stroke-linecap="square" stroke-linejoin="bevel" transform="matrix(0.999978,0,0,-0.999978,23183.5,12496.5)"
font-family="MS Shell Dlg 2" font-size="10.3125" font-weight="400" font-style="normal" 
>
</g>

<g fill="none" stroke="#000000" stroke-opacity="1" stroke-width="1" stroke-linecap="square" stroke-linejoin="bevel" transform="matrix(0.999978,0,0,-0.999978,23183.5,12496.5)"
font-family="MS Shell Dlg 2" font-size="10.3125" font-weight="400" font-style="normal" 
>
</g>

<g fill="#333333" fill-opacity="0.2" stroke="#333333" stroke-opacity="1" stroke-width="1" stroke-linecap="round" stroke-linejoin="round" transform="matrix(0.999978,0,0,-0.999978,23183.5,12496.5)"
font-family="MS Shell Dlg 2" font-size="10.3125" font-weight="400" font-style="normal" 
>
<path vector-effect="non-scaling-stroke" fill-rule="evenodd" d="M-13083.6,5009.78 L-13086.2,4912.27 L-13126,4823.2 L-13196.8,4756.13 L-13287.9,4721.27 L-13385.4,4723.93 L-13474.5,4763.7 L-13541.6,4834.53 L-13576.4,4925.63 L-14735.6,11714.8 L-14732.9,11812.3 L-14693.2,11901.4 L-14622.3,11968.5 L-14531.2,12003.3 L-14433.7,12000.7 L-14344.6,11960.9 L-14277.6,11890.1 L-14242.7,11799 L-13083.6,5009.78"/>
</g>

<g fill="none" stroke="#000000" stroke-opacity="1" stroke-width="1" stroke-linecap="square" stroke-linejoin="bevel" transform="matrix(0.999978,0,0,-0.999978,23183.5,12496.5)"
font-family="MS Shell Dlg 2" font-size="10.3125" font-weight="400" font-style="normal" 
>
</g>

<g fill="none" stroke="#000000" stroke-opacity="1" stroke-width="1" stroke-linecap="square" stroke-linejoin="bevel" transform="matrix(0.999978,0,0,-0.999978,23183.5,12496.5)"
font-family="MS Shell Dlg 2" font-size="10.3125" font-weight="400" font-style="normal" 
>
</g>

<g fill="#333333" fill-opacity="0.2" stroke="#333333" stroke-opacity="1" stroke-width="1" stroke-linecap="round" stroke-linejoin="round" transform="matrix(0.999978,0,0,-0.999978,23183.5,12496.5)"
font-family="MS Shell Dlg 2" font-size="10.3125" font-weight="400" font-style="normal" 
>
<path vector-effect="non-scaling-stroke" fill-rule="evenodd" d="M-7751.39,12136.2 L-7731.04,12231.6 L-7675.72,12311.9 L-7593.87,12365 L-7497.95,12382.7 L-7402.55,12362.3 L-7322.2,12307 L-7269.14,12225.2 L-7251.44,12129.3 L-7316.67,7432.72 L-7337.03,7337.32 L-7392.34,7256.97 L-7474.19,7203.91 L-7570.12,7186.21 L-7665.52,7206.57 L-7745.86,7261.88 L-7798.92,7343.73 L-7816.62,7439.66 L-7751.39,12136.2"/>
</g>

<g fill="none" stroke="#000000" stroke-opacity="1" stroke-width="1" stroke-linecap="square" stroke-linejoin="bevel" transform="matrix(0.999978,0,0,-0.999978,23183.5,12496.5)"
font-family="MS Shell Dlg 2" font-size="10.3125" font-weight="400" font-style="normal" 
>
</g>

<g fill="none" stroke="#000000" stroke-opacity="1" stroke-width="1" stroke-linecap="square" stroke-linejoin="bevel" transform="matrix(1,0,0,-1,0,23820.5)"
font-family="MS Shell Dlg 2" font-size="10.3125" font-weight="400" font-style="normal" 
>
</g>
</g>
</svg>
