<?xml version="1.0" encoding="UTF-8" standalone="no"?>
<svg width="14122.7mm" height="293.793mm"
 xmlns="http://www.w3.org/2000/svg" xmlns:xlink="http://www.w3.org/1999/xlink"  version="1.2" baseProfile="tiny">
<title>SVG Generator Example Drawing</title>
<desc>An SVG drawing created by the SVG Generator</desc>
<defs>
</defs>
<g fill="none" stroke="black" stroke-width="1" fill-rule="evenodd" stroke-linecap="square" stroke-linejoin="bevel" >

<g fill="none" stroke="#000000" stroke-opacity="1" stroke-width="1" stroke-linecap="square" stroke-linejoin="bevel" transform="matrix(1,0,0,-1,0,1041)"
font-family="MS Shell Dlg 2" font-size="10.3125" font-weight="400" font-style="normal" 
>
</g>

<g fill="none" stroke="#000000" stroke-opacity="1" stroke-width="1" stroke-linecap="square" stroke-linejoin="bevel" transform="matrix(1,0,0,-1,0,1041)"
font-family="MS Shell Dlg 2" font-size="10.3125" font-weight="400" font-style="normal" 
>
</g>

<g fill="none" stroke="#000000" stroke-opacity="1" stroke-width="1" stroke-linecap="square" stroke-linejoin="bevel" transform="matrix(1,0,0,-1,27801,1374.05)"
font-family="MS Shell Dlg 2" font-size="10.3125" font-weight="400" font-style="normal" 
>
</g>

<g fill="#333333" fill-opacity="0.2" stroke="#333333" stroke-opacity="1" stroke-width="1" stroke-linecap="round" stroke-linejoin="round" transform="matrix(1,0,0,-1,27801,1374.05)"
font-family="MS Shell Dlg 2" font-size="10.3125" font-weight="400" font-style="normal" 
>
<path vector-effect="non-scaling-stroke" fill-rule="evenodd" d="M21699.5,833.553 L21219.5,833.553 L21211.9,835.075 L21205.4,839.411 L21201.1,845.899 L21199.5,853.553 L21201.1,861.207 L21205.4,867.695 L21211.9,872.031 L21219.5,873.553 L21699.5,873.553 L21699.5,1353.55 L21701.1,1361.21 L21705.4,1367.7 L21711.9,1372.03 L21719.5,1373.55 L21727.2,1372.03 L21733.7,1367.7 L21738,1361.21 L21739.5,1353.55 L21739.5,873.553 L22219.5,873.553 L22227.2,872.031 L22233.7,867.695 L22238,861.207 L22239.5,853.553 L22238,845.899 L22233.7,839.411 L22227.2,835.075 L22219.5,833.553 L21739.5,833.553 L21739.5,353.553 L21738,345.899 L21733.7,339.411 L21727.2,335.075 L21719.5,333.553 L21711.9,335.075 L21705.4,339.411 L21701.1,345.899 L21699.5,353.553 L21699.5,833.553"/>
</g>

<g fill="none" stroke="#000000" stroke-opacity="1" stroke-width="1" stroke-linecap="square" stroke-linejoin="bevel" transform="matrix(1,0,0,-1,27801,1374.05)"
font-family="MS Shell Dlg 2" font-size="10.3125" font-weight="400" font-style="normal" 
>
</g>

<g fill="none" stroke="#000000" stroke-opacity="1" stroke-width="1" stroke-linecap="square" stroke-linejoin="bevel" transform="matrix(1,0,0,-1,27801,1374.05)"
font-family="MS Shell Dlg 2" font-size="10.3125" font-weight="400" font-style="normal" 
>
</g>

<g fill="#333333" fill-opacity="0.2" stroke="#333333" stroke-opacity="1" stroke-width="1" stroke-linecap="round" stroke-linejoin="round" transform="matrix(1,0,0,-1,27801,1374.05)"
font-family="MS Shell Dlg 2" font-size="10.3125" font-weight="400" font-style="normal" 
>
<path vector-effect="non-scaling-stroke" fill-rule="evenodd" d="M-2800.47,833.553 L-3280.47,833.553 L-3288.12,835.075 L-3294.61,839.411 L-3298.95,845.899 L-3300.47,853.553 L-3298.95,861.207 L-3294.61,867.695 L-3288.12,872.031 L-3280.47,873.553 L-2800.47,873.553 L-2800.47,1353.55 L-2798.95,1361.21 L-2794.61,1367.7 L-2788.12,1372.03 L-2780.47,1373.55 L-2772.81,1372.03 L-2766.33,1367.7 L-2761.99,1361.21 L-2760.47,1353.55 L-2760.47,873.553 L-2280.47,873.553 L-2272.81,872.031 L-2266.33,867.695 L-2261.99,861.207 L-2260.47,853.553 L-2261.99,845.899 L-2266.33,839.411 L-2272.81,835.075 L-2280.47,833.553 L-2760.47,833.553 L-2760.47,353.553 L-2761.99,345.899 L-2766.33,339.411 L-2772.81,335.075 L-2780.47,333.553 L-2788.12,335.075 L-2794.61,339.411 L-2798.95,345.899 L-2800.47,353.553 L-2800.47,833.553"/>
</g>

<g fill="none" stroke="#000000" stroke-opacity="1" stroke-width="1" stroke-linecap="square" stroke-linejoin="bevel" transform="matrix(1,0,0,-1,27801,1374.05)"
font-family="MS Shell Dlg 2" font-size="10.3125" font-weight="400" font-style="normal" 
>
</g>

<g fill="none" stroke="#000000" stroke-opacity="1" stroke-width="1" stroke-linecap="square" stroke-linejoin="bevel" transform="matrix(1,0,0,-1,27801,1374.05)"
font-family="MS Shell Dlg 2" font-size="10.3125" font-weight="400" font-style="normal" 
>
</g>

<g fill="#333333" fill-opacity="0.2" stroke="#333333" stroke-opacity="1" stroke-width="1" stroke-linecap="round" stroke-linejoin="round" transform="matrix(1,0,0,-1,27801,1374.05)"
font-family="MS Shell Dlg 2" font-size="10.3125" font-weight="400" font-style="normal" 
>
<path vector-effect="non-scaling-stroke" fill-rule="evenodd" d="M-27300.5,833.553 L-27780.5,833.553 L-27788.1,835.075 L-27794.6,839.411 L-27798.9,845.899 L-27800.5,853.553 L-27798.9,861.207 L-27794.6,867.695 L-27788.1,872.031 L-27780.5,873.553 L-27300.5,873.553 L-27300.5,1353.55 L-27298.9,1361.21 L-27294.6,1367.7 L-27288.1,1372.03 L-27280.5,1373.55 L-27272.8,1372.03 L-27266.3,1367.7 L-27262,1361.21 L-27260.5,1353.55 L-27260.5,873.553 L-26780.5,873.553 L-26772.8,872.031 L-26766.3,867.695 L-26762,861.207 L-26760.5,853.553 L-26762,845.899 L-26766.3,839.411 L-26772.8,835.075 L-26780.5,833.553 L-27260.5,833.553 L-27260.5,353.553 L-27262,345.899 L-27266.3,339.411 L-27272.8,335.075 L-27280.5,333.553 L-27288.1,335.075 L-27294.6,339.411 L-27298.9,345.899 L-27300.5,353.553 L-27300.5,833.553"/>
</g>

<g fill="none" stroke="#000000" stroke-opacity="1" stroke-width="1" stroke-linecap="square" stroke-linejoin="bevel" transform="matrix(1,0,0,-1,27801,1374.05)"
font-family="MS Shell Dlg 2" font-size="10.3125" font-weight="400" font-style="normal" 
>
</g>

<g fill="none" stroke="#000000" stroke-opacity="1" stroke-width="1" stroke-linecap="square" stroke-linejoin="bevel" transform="matrix(1,0,0,-1,27801,1374.05)"
font-family="MS Shell Dlg 2" font-size="10.3125" font-weight="400" font-style="normal" 
>
</g>

<g fill="#ae5151" fill-opacity="0.2" stroke="#333333" stroke-opacity="1" stroke-width="1" stroke-linecap="round" stroke-linejoin="round" transform="matrix(1,0,0,-1,27801,1374.05)"
font-family="MS Shell Dlg 2" font-size="10.3125" font-weight="400" font-style="normal" 
>
<path vector-effect="non-scaling-stroke" fill-rule="evenodd" d="M21699.5,833.553 L21219.5,833.553 L21211.9,835.075 L21205.4,839.411 L21201.1,845.899 L21199.5,853.553 L21201.1,861.207 L21205.4,867.695 L21211.9,872.031 L21219.5,873.553 L21699.5,873.553 L21699.5,1353.55 L21701.1,1361.21 L21705.4,1367.7 L21711.9,1372.03 L21719.5,1373.55 L21727.2,1372.03 L21733.7,1367.7 L21738,1361.21 L21739.5,1353.55 L21739.5,873.553 L22219.5,873.553 L22227.2,872.031 L22233.7,867.695 L22238,861.207 L22239.5,853.553 L22238,845.899 L22233.7,839.411 L22227.2,835.075 L22219.5,833.553 L21739.5,833.553 L21739.5,353.553 L21738,345.899 L21733.7,339.411 L21727.2,335.075 L21719.5,333.553 L21711.9,335.075 L21705.4,339.411 L21701.1,345.899 L21699.5,353.553 L21699.5,833.553"/>
</g>

<g fill="none" stroke="#000000" stroke-opacity="1" stroke-width="1" stroke-linecap="square" stroke-linejoin="bevel" transform="matrix(1,0,0,-1,27801,1374.05)"
font-family="MS Shell Dlg 2" font-size="10.3125" font-weight="400" font-style="normal" 
>
</g>

<g fill="none" stroke="#000000" stroke-opacity="1" stroke-width="1" stroke-linecap="square" stroke-linejoin="bevel" transform="matrix(1,0,0,-1,27801,1374.05)"
font-family="MS Shell Dlg 2" font-size="10.3125" font-weight="400" font-style="normal" 
>
</g>

<g fill="#ae5151" fill-opacity="0.2" stroke="#333333" stroke-opacity="1" stroke-width="1" stroke-linecap="round" stroke-linejoin="round" transform="matrix(1,0,0,-1,27801,1374.05)"
font-family="MS Shell Dlg 2" font-size="10.3125" font-weight="400" font-style="normal" 
>
<path vector-effect="non-scaling-stroke" fill-rule="evenodd" d="M-2800.47,833.553 L-3280.47,833.553 L-3288.12,835.075 L-3294.61,839.411 L-3298.95,845.899 L-3300.47,853.553 L-3298.95,861.207 L-3294.61,867.695 L-3288.12,872.031 L-3280.47,873.553 L-2800.47,873.553 L-2800.47,1353.55 L-2798.95,1361.21 L-2794.61,1367.7 L-2788.12,1372.03 L-2780.47,1373.55 L-2772.81,1372.03 L-2766.33,1367.7 L-2761.99,1361.21 L-2760.47,1353.55 L-2760.47,873.553 L-2280.47,873.553 L-2272.81,872.031 L-2266.33,867.695 L-2261.99,861.207 L-2260.47,853.553 L-2261.99,845.899 L-2266.33,839.411 L-2272.81,835.075 L-2280.47,833.553 L-2760.47,833.553 L-2760.47,353.553 L-2761.99,345.899 L-2766.33,339.411 L-2772.81,335.075 L-2780.47,333.553 L-2788.12,335.075 L-2794.61,339.411 L-2798.95,345.899 L-2800.47,353.553 L-2800.47,833.553"/>
</g>

<g fill="none" stroke="#000000" stroke-opacity="1" stroke-width="1" stroke-linecap="square" stroke-linejoin="bevel" transform="matrix(1,0,0,-1,27801,1374.05)"
font-family="MS Shell Dlg 2" font-size="10.3125" font-weight="400" font-style="normal" 
>
</g>

<g fill="none" stroke="#000000" stroke-opacity="1" stroke-width="1" stroke-linecap="square" stroke-linejoin="bevel" transform="matrix(1,0,0,-1,27801,1374.05)"
font-family="MS Shell Dlg 2" font-size="10.3125" font-weight="400" font-style="normal" 
>
</g>

<g fill="#ae5151" fill-opacity="0.2" stroke="#333333" stroke-opacity="1" stroke-width="1" stroke-linecap="round" stroke-linejoin="round" transform="matrix(1,0,0,-1,27801,1374.05)"
font-family="MS Shell Dlg 2" font-size="10.3125" font-weight="400" font-style="normal" 
>
<path vector-effect="non-scaling-stroke" fill-rule="evenodd" d="M-27300.5,833.553 L-27780.5,833.553 L-27788.1,835.075 L-27794.6,839.411 L-27798.9,845.899 L-27800.5,853.553 L-27798.9,861.207 L-27794.6,867.695 L-27788.1,872.031 L-27780.5,873.553 L-27300.5,873.553 L-27300.5,1353.55 L-27298.9,1361.21 L-27294.6,1367.7 L-27288.1,1372.03 L-27280.5,1373.55 L-27272.8,1372.03 L-27266.3,1367.7 L-27262,1361.21 L-27260.5,1353.55 L-27260.5,873.553 L-26780.5,873.553 L-26772.8,872.031 L-26766.3,867.695 L-26762,861.207 L-26760.5,853.553 L-26762,845.899 L-26766.3,839.411 L-26772.8,835.075 L-26780.5,833.553 L-27260.5,833.553 L-27260.5,353.553 L-27262,345.899 L-27266.3,339.411 L-27272.8,335.075 L-27280.5,333.553 L-27288.1,335.075 L-27294.6,339.411 L-27298.9,345.899 L-27300.5,353.553 L-27300.5,833.553"/>
</g>

<g fill="none" stroke="#000000" stroke-opacity="1" stroke-width="1" stroke-linecap="square" stroke-linejoin="bevel" transform="matrix(1,0,0,-1,27801,1374.05)"
font-family="MS Shell Dlg 2" font-size="10.3125" font-weight="400" font-style="normal" 
>
</g>

<g fill="none" stroke="#000000" stroke-opacity="1" stroke-width="1" stroke-linecap="square" stroke-linejoin="bevel" transform="matrix(1,0,0,-1,27801,1374.05)"
font-family="MS Shell Dlg 2" font-size="10.3125" font-weight="400" font-style="normal" 
>
</g>

<g fill="#ffff00" fill-opacity="0.2" stroke="#333333" stroke-opacity="1" stroke-width="1" stroke-linecap="round" stroke-linejoin="round" transform="matrix(1,0,0,-1,27801,1374.05)"
font-family="MS Shell Dlg 2" font-size="10.3125" font-weight="400" font-style="normal" 
>
<path vector-effect="non-scaling-stroke" fill-rule="evenodd" d="M21699.5,833.553 L21219.5,833.553 L21211.9,835.075 L21205.4,839.411 L21201.1,845.899 L21199.5,853.553 L21201.1,861.207 L21205.4,867.695 L21211.9,872.031 L21219.5,873.553 L21699.5,873.553 L21699.5,1353.55 L21701.1,1361.21 L21705.4,1367.7 L21711.9,1372.03 L21719.5,1373.55 L21727.2,1372.03 L21733.7,1367.7 L21738,1361.21 L21739.5,1353.55 L21739.5,873.553 L22219.5,873.553 L22227.2,872.031 L22233.7,867.695 L22238,861.207 L22239.5,853.553 L22238,845.899 L22233.7,839.411 L22227.2,835.075 L22219.5,833.553 L21739.5,833.553 L21739.5,353.553 L21738,345.899 L21733.7,339.411 L21727.2,335.075 L21719.5,333.553 L21711.9,335.075 L21705.4,339.411 L21701.1,345.899 L21699.5,353.553 L21699.5,833.553"/>
</g>

<g fill="none" stroke="#000000" stroke-opacity="1" stroke-width="1" stroke-linecap="square" stroke-linejoin="bevel" transform="matrix(1,0,0,-1,27801,1374.05)"
font-family="MS Shell Dlg 2" font-size="10.3125" font-weight="400" font-style="normal" 
>
</g>

<g fill="none" stroke="#000000" stroke-opacity="1" stroke-width="1" stroke-linecap="square" stroke-linejoin="bevel" transform="matrix(1,0,0,-1,27801,1374.05)"
font-family="MS Shell Dlg 2" font-size="10.3125" font-weight="400" font-style="normal" 
>
</g>

<g fill="#ffff00" fill-opacity="0.2" stroke="#333333" stroke-opacity="1" stroke-width="1" stroke-linecap="round" stroke-linejoin="round" transform="matrix(1,0,0,-1,27801,1374.05)"
font-family="MS Shell Dlg 2" font-size="10.3125" font-weight="400" font-style="normal" 
>
<path vector-effect="non-scaling-stroke" fill-rule="evenodd" d="M-2800.47,833.553 L-3280.47,833.553 L-3288.12,835.075 L-3294.61,839.411 L-3298.95,845.899 L-3300.47,853.553 L-3298.95,861.207 L-3294.61,867.695 L-3288.12,872.031 L-3280.47,873.553 L-2800.47,873.553 L-2800.47,1353.55 L-2798.95,1361.21 L-2794.61,1367.7 L-2788.12,1372.03 L-2780.47,1373.55 L-2772.81,1372.03 L-2766.33,1367.7 L-2761.99,1361.21 L-2760.47,1353.55 L-2760.47,873.553 L-2280.47,873.553 L-2272.81,872.031 L-2266.33,867.695 L-2261.99,861.207 L-2260.47,853.553 L-2261.99,845.899 L-2266.33,839.411 L-2272.81,835.075 L-2280.47,833.553 L-2760.47,833.553 L-2760.47,353.553 L-2761.99,345.899 L-2766.33,339.411 L-2772.81,335.075 L-2780.47,333.553 L-2788.12,335.075 L-2794.61,339.411 L-2798.95,345.899 L-2800.47,353.553 L-2800.47,833.553"/>
</g>

<g fill="none" stroke="#000000" stroke-opacity="1" stroke-width="1" stroke-linecap="square" stroke-linejoin="bevel" transform="matrix(1,0,0,-1,27801,1374.05)"
font-family="MS Shell Dlg 2" font-size="10.3125" font-weight="400" font-style="normal" 
>
</g>

<g fill="none" stroke="#000000" stroke-opacity="1" stroke-width="1" stroke-linecap="square" stroke-linejoin="bevel" transform="matrix(1,0,0,-1,27801,1374.05)"
font-family="MS Shell Dlg 2" font-size="10.3125" font-weight="400" font-style="normal" 
>
</g>

<g fill="#ffff00" fill-opacity="0.2" stroke="#333333" stroke-opacity="1" stroke-width="1" stroke-linecap="round" stroke-linejoin="round" transform="matrix(1,0,0,-1,27801,1374.05)"
font-family="MS Shell Dlg 2" font-size="10.3125" font-weight="400" font-style="normal" 
>
<path vector-effect="non-scaling-stroke" fill-rule="evenodd" d="M-27300.5,833.553 L-27780.5,833.553 L-27788.1,835.075 L-27794.6,839.411 L-27798.9,845.899 L-27800.5,853.553 L-27798.9,861.207 L-27794.6,867.695 L-27788.1,872.031 L-27780.5,873.553 L-27300.5,873.553 L-27300.5,1353.55 L-27298.9,1361.21 L-27294.6,1367.7 L-27288.1,1372.03 L-27280.5,1373.55 L-27272.8,1372.03 L-27266.3,1367.7 L-27262,1361.21 L-27260.5,1353.55 L-27260.5,873.553 L-26780.5,873.553 L-26772.8,872.031 L-26766.3,867.695 L-26762,861.207 L-26760.5,853.553 L-26762,845.899 L-26766.3,839.411 L-26772.8,835.075 L-26780.5,833.553 L-27260.5,833.553 L-27260.5,353.553 L-27262,345.899 L-27266.3,339.411 L-27272.8,335.075 L-27280.5,333.553 L-27288.1,335.075 L-27294.6,339.411 L-27298.9,345.899 L-27300.5,353.553 L-27300.5,833.553"/>
</g>

<g fill="none" stroke="#000000" stroke-opacity="1" stroke-width="1" stroke-linecap="square" stroke-linejoin="bevel" transform="matrix(1,0,0,-1,27801,1374.05)"
font-family="MS Shell Dlg 2" font-size="10.3125" font-weight="400" font-style="normal" 
>
</g>

<g fill="none" stroke="#000000" stroke-opacity="1" stroke-width="1" stroke-linecap="square" stroke-linejoin="bevel" transform="matrix(1,0,0,-1,27801,1374.05)"
font-family="MS Shell Dlg 2" font-size="10.3125" font-weight="400" font-style="normal" 
>
</g>

<g fill="#ae5151" fill-opacity="0.2" stroke="#333333" stroke-opacity="1" stroke-width="1" stroke-linecap="round" stroke-linejoin="round" transform="matrix(1,0,0,-1,27801,1374.05)"
font-family="MS Shell Dlg 2" font-size="10.3125" font-weight="400" font-style="normal" 
>
<path vector-effect="non-scaling-stroke" fill-rule="evenodd" d="M21699.5,833.553 L21219.5,833.553 L21211.9,835.075 L21205.4,839.411 L21201.1,845.899 L21199.5,853.553 L21201.1,861.207 L21205.4,867.695 L21211.9,872.031 L21219.5,873.553 L21699.5,873.553 L21699.5,1353.55 L21701.1,1361.21 L21705.4,1367.7 L21711.9,1372.03 L21719.5,1373.55 L21727.2,1372.03 L21733.7,1367.7 L21738,1361.21 L21739.5,1353.55 L21739.5,873.553 L22219.5,873.553 L22227.2,872.031 L22233.7,867.695 L22238,861.207 L22239.5,853.553 L22238,845.899 L22233.7,839.411 L22227.2,835.075 L22219.5,833.553 L21739.5,833.553 L21739.5,353.553 L21738,345.899 L21733.7,339.411 L21727.2,335.075 L21719.5,333.553 L21711.9,335.075 L21705.4,339.411 L21701.1,345.899 L21699.5,353.553 L21699.5,833.553"/>
</g>

<g fill="none" stroke="#000000" stroke-opacity="1" stroke-width="1" stroke-linecap="square" stroke-linejoin="bevel" transform="matrix(1,0,0,-1,27801,1374.05)"
font-family="MS Shell Dlg 2" font-size="10.3125" font-weight="400" font-style="normal" 
>
</g>

<g fill="none" stroke="#000000" stroke-opacity="1" stroke-width="1" stroke-linecap="square" stroke-linejoin="bevel" transform="matrix(1,0,0,-1,27801,1374.05)"
font-family="MS Shell Dlg 2" font-size="10.3125" font-weight="400" font-style="normal" 
>
</g>

<g fill="#ae5151" fill-opacity="0.2" stroke="#333333" stroke-opacity="1" stroke-width="1" stroke-linecap="round" stroke-linejoin="round" transform="matrix(1,0,0,-1,27801,1374.05)"
font-family="MS Shell Dlg 2" font-size="10.3125" font-weight="400" font-style="normal" 
>
<path vector-effect="non-scaling-stroke" fill-rule="evenodd" d="M-2800.47,833.553 L-3280.47,833.553 L-3288.12,835.075 L-3294.61,839.411 L-3298.95,845.899 L-3300.47,853.553 L-3298.95,861.207 L-3294.61,867.695 L-3288.12,872.031 L-3280.47,873.553 L-2800.47,873.553 L-2800.47,1353.55 L-2798.95,1361.21 L-2794.61,1367.7 L-2788.12,1372.03 L-2780.47,1373.55 L-2772.81,1372.03 L-2766.33,1367.7 L-2761.99,1361.21 L-2760.47,1353.55 L-2760.47,873.553 L-2280.47,873.553 L-2272.81,872.031 L-2266.33,867.695 L-2261.99,861.207 L-2260.47,853.553 L-2261.99,845.899 L-2266.33,839.411 L-2272.81,835.075 L-2280.47,833.553 L-2760.47,833.553 L-2760.47,353.553 L-2761.99,345.899 L-2766.33,339.411 L-2772.81,335.075 L-2780.47,333.553 L-2788.12,335.075 L-2794.61,339.411 L-2798.95,345.899 L-2800.47,353.553 L-2800.47,833.553"/>
</g>

<g fill="none" stroke="#000000" stroke-opacity="1" stroke-width="1" stroke-linecap="square" stroke-linejoin="bevel" transform="matrix(1,0,0,-1,27801,1374.05)"
font-family="MS Shell Dlg 2" font-size="10.3125" font-weight="400" font-style="normal" 
>
</g>

<g fill="none" stroke="#000000" stroke-opacity="1" stroke-width="1" stroke-linecap="square" stroke-linejoin="bevel" transform="matrix(1,0,0,-1,27801,1374.05)"
font-family="MS Shell Dlg 2" font-size="10.3125" font-weight="400" font-style="normal" 
>
</g>

<g fill="#ae5151" fill-opacity="0.2" stroke="#333333" stroke-opacity="1" stroke-width="1" stroke-linecap="round" stroke-linejoin="round" transform="matrix(1,0,0,-1,27801,1374.05)"
font-family="MS Shell Dlg 2" font-size="10.3125" font-weight="400" font-style="normal" 
>
<path vector-effect="non-scaling-stroke" fill-rule="evenodd" d="M-27300.5,833.553 L-27780.5,833.553 L-27788.1,835.075 L-27794.6,839.411 L-27798.9,845.899 L-27800.5,853.553 L-27798.9,861.207 L-27794.6,867.695 L-27788.1,872.031 L-27780.5,873.553 L-27300.5,873.553 L-27300.5,1353.55 L-27298.9,1361.21 L-27294.6,1367.7 L-27288.1,1372.03 L-27280.5,1373.55 L-27272.8,1372.03 L-27266.3,1367.7 L-27262,1361.21 L-27260.5,1353.55 L-27260.5,873.553 L-26780.5,873.553 L-26772.8,872.031 L-26766.3,867.695 L-26762,861.207 L-26760.5,853.553 L-26762,845.899 L-26766.3,839.411 L-26772.8,835.075 L-26780.5,833.553 L-27260.5,833.553 L-27260.5,353.553 L-27262,345.899 L-27266.3,339.411 L-27272.8,335.075 L-27280.5,333.553 L-27288.1,335.075 L-27294.6,339.411 L-27298.9,345.899 L-27300.5,353.553 L-27300.5,833.553"/>
</g>

<g fill="none" stroke="#000000" stroke-opacity="1" stroke-width="1" stroke-linecap="square" stroke-linejoin="bevel" transform="matrix(1,0,0,-1,27801,1374.05)"
font-family="MS Shell Dlg 2" font-size="10.3125" font-weight="400" font-style="normal" 
>
</g>

<g fill="none" stroke="#000000" stroke-opacity="1" stroke-width="1" stroke-linecap="square" stroke-linejoin="bevel" transform="matrix(1,0,0,-1,27801,1374.05)"
font-family="MS Shell Dlg 2" font-size="10.3125" font-weight="400" font-style="normal" 
>
</g>

<g fill="#333333" fill-opacity="0.2" stroke="#333333" stroke-opacity="1" stroke-width="1" stroke-linecap="round" stroke-linejoin="round" transform="matrix(1,0,0,-1,27801,1374.05)"
font-family="MS Shell Dlg 2" font-size="10.3125" font-weight="400" font-style="normal" 
>
<path vector-effect="non-scaling-stroke" fill-rule="evenodd" d="M21699.5,833.553 L21219.5,833.553 L21211.9,835.075 L21205.4,839.411 L21201.1,845.899 L21199.5,853.553 L21201.1,861.207 L21205.4,867.695 L21211.9,872.031 L21219.5,873.553 L21699.5,873.553 L21699.5,1353.55 L21701.1,1361.21 L21705.4,1367.7 L21711.9,1372.03 L21719.5,1373.55 L21727.2,1372.03 L21733.7,1367.7 L21738,1361.21 L21739.5,1353.55 L21739.5,873.553 L22219.5,873.553 L22227.2,872.031 L22233.7,867.695 L22238,861.207 L22239.5,853.553 L22238,845.899 L22233.7,839.411 L22227.2,835.075 L22219.5,833.553 L21739.5,833.553 L21739.5,353.553 L21738,345.899 L21733.7,339.411 L21727.2,335.075 L21719.5,333.553 L21711.9,335.075 L21705.4,339.411 L21701.1,345.899 L21699.5,353.553 L21699.5,833.553"/>
</g>

<g fill="none" stroke="#000000" stroke-opacity="1" stroke-width="1" stroke-linecap="square" stroke-linejoin="bevel" transform="matrix(1,0,0,-1,27801,1374.05)"
font-family="MS Shell Dlg 2" font-size="10.3125" font-weight="400" font-style="normal" 
>
</g>

<g fill="none" stroke="#000000" stroke-opacity="1" stroke-width="1" stroke-linecap="square" stroke-linejoin="bevel" transform="matrix(1,0,0,-1,27801,1374.05)"
font-family="MS Shell Dlg 2" font-size="10.3125" font-weight="400" font-style="normal" 
>
</g>

<g fill="#333333" fill-opacity="0.2" stroke="#333333" stroke-opacity="1" stroke-width="1" stroke-linecap="round" stroke-linejoin="round" transform="matrix(1,0,0,-1,27801,1374.05)"
font-family="MS Shell Dlg 2" font-size="10.3125" font-weight="400" font-style="normal" 
>
<path vector-effect="non-scaling-stroke" fill-rule="evenodd" d="M-2800.47,833.553 L-3280.47,833.553 L-3288.12,835.075 L-3294.61,839.411 L-3298.95,845.899 L-3300.47,853.553 L-3298.95,861.207 L-3294.61,867.695 L-3288.12,872.031 L-3280.47,873.553 L-2800.47,873.553 L-2800.47,1353.55 L-2798.95,1361.21 L-2794.61,1367.7 L-2788.12,1372.03 L-2780.47,1373.55 L-2772.81,1372.03 L-2766.33,1367.7 L-2761.99,1361.21 L-2760.47,1353.55 L-2760.47,873.553 L-2280.47,873.553 L-2272.81,872.031 L-2266.33,867.695 L-2261.99,861.207 L-2260.47,853.553 L-2261.99,845.899 L-2266.33,839.411 L-2272.81,835.075 L-2280.47,833.553 L-2760.47,833.553 L-2760.47,353.553 L-2761.99,345.899 L-2766.33,339.411 L-2772.81,335.075 L-2780.47,333.553 L-2788.12,335.075 L-2794.61,339.411 L-2798.95,345.899 L-2800.47,353.553 L-2800.47,833.553"/>
</g>

<g fill="none" stroke="#000000" stroke-opacity="1" stroke-width="1" stroke-linecap="square" stroke-linejoin="bevel" transform="matrix(1,0,0,-1,27801,1374.05)"
font-family="MS Shell Dlg 2" font-size="10.3125" font-weight="400" font-style="normal" 
>
</g>

<g fill="none" stroke="#000000" stroke-opacity="1" stroke-width="1" stroke-linecap="square" stroke-linejoin="bevel" transform="matrix(1,0,0,-1,27801,1374.05)"
font-family="MS Shell Dlg 2" font-size="10.3125" font-weight="400" font-style="normal" 
>
</g>

<g fill="#333333" fill-opacity="0.2" stroke="#333333" stroke-opacity="1" stroke-width="1" stroke-linecap="round" stroke-linejoin="round" transform="matrix(1,0,0,-1,27801,1374.05)"
font-family="MS Shell Dlg 2" font-size="10.3125" font-weight="400" font-style="normal" 
>
<path vector-effect="non-scaling-stroke" fill-rule="evenodd" d="M-27300.5,833.553 L-27780.5,833.553 L-27788.1,835.075 L-27794.6,839.411 L-27798.9,845.899 L-27800.5,853.553 L-27798.9,861.207 L-27794.6,867.695 L-27788.1,872.031 L-27780.5,873.553 L-27300.5,873.553 L-27300.5,1353.55 L-27298.9,1361.21 L-27294.6,1367.7 L-27288.1,1372.03 L-27280.5,1373.55 L-27272.8,1372.03 L-27266.3,1367.7 L-27262,1361.21 L-27260.5,1353.55 L-27260.5,873.553 L-26780.5,873.553 L-26772.8,872.031 L-26766.3,867.695 L-26762,861.207 L-26760.5,853.553 L-26762,845.899 L-26766.3,839.411 L-26772.8,835.075 L-26780.5,833.553 L-27260.5,833.553 L-27260.5,353.553 L-27262,345.899 L-27266.3,339.411 L-27272.8,335.075 L-27280.5,333.553 L-27288.1,335.075 L-27294.6,339.411 L-27298.9,345.899 L-27300.5,353.553 L-27300.5,833.553"/>
</g>

<g fill="none" stroke="#000000" stroke-opacity="1" stroke-width="1" stroke-linecap="square" stroke-linejoin="bevel" transform="matrix(1,0,0,-1,27801,1374.05)"
font-family="MS Shell Dlg 2" font-size="10.3125" font-weight="400" font-style="normal" 
>
</g>

<g fill="none" stroke="#000000" stroke-opacity="1" stroke-width="1" stroke-linecap="square" stroke-linejoin="bevel" transform="matrix(1,0,0,-1,27801,1374.05)"
font-family="MS Shell Dlg 2" font-size="10.3125" font-weight="400" font-style="normal" 
>
</g>

<g fill="#ae5151" fill-opacity="0.2" stroke="#333333" stroke-opacity="1" stroke-width="1" stroke-linecap="round" stroke-linejoin="round" transform="matrix(1,0,0,-1,27801,1374.05)"
font-family="MS Shell Dlg 2" font-size="10.3125" font-weight="400" font-style="normal" 
>
<path vector-effect="non-scaling-stroke" fill-rule="evenodd" d="M21699.5,833.553 L21219.5,833.553 L21211.9,835.075 L21205.4,839.411 L21201.1,845.899 L21199.5,853.553 L21201.1,861.207 L21205.4,867.695 L21211.9,872.031 L21219.5,873.553 L21699.5,873.553 L21699.5,1353.55 L21701.1,1361.21 L21705.4,1367.7 L21711.9,1372.03 L21719.5,1373.55 L21727.2,1372.03 L21733.7,1367.7 L21738,1361.21 L21739.5,1353.55 L21739.5,873.553 L22219.5,873.553 L22227.2,872.031 L22233.7,867.695 L22238,861.207 L22239.5,853.553 L22238,845.899 L22233.7,839.411 L22227.2,835.075 L22219.5,833.553 L21739.5,833.553 L21739.5,353.553 L21738,345.899 L21733.7,339.411 L21727.2,335.075 L21719.5,333.553 L21711.9,335.075 L21705.4,339.411 L21701.1,345.899 L21699.5,353.553 L21699.5,833.553"/>
</g>

<g fill="none" stroke="#000000" stroke-opacity="1" stroke-width="1" stroke-linecap="square" stroke-linejoin="bevel" transform="matrix(1,0,0,-1,27801,1374.05)"
font-family="MS Shell Dlg 2" font-size="10.3125" font-weight="400" font-style="normal" 
>
</g>

<g fill="none" stroke="#000000" stroke-opacity="1" stroke-width="1" stroke-linecap="square" stroke-linejoin="bevel" transform="matrix(1,0,0,-1,27801,1374.05)"
font-family="MS Shell Dlg 2" font-size="10.3125" font-weight="400" font-style="normal" 
>
</g>

<g fill="#ae5151" fill-opacity="0.2" stroke="#333333" stroke-opacity="1" stroke-width="1" stroke-linecap="round" stroke-linejoin="round" transform="matrix(1,0,0,-1,27801,1374.05)"
font-family="MS Shell Dlg 2" font-size="10.3125" font-weight="400" font-style="normal" 
>
<path vector-effect="non-scaling-stroke" fill-rule="evenodd" d="M-2800.47,833.553 L-3280.47,833.553 L-3288.12,835.075 L-3294.61,839.411 L-3298.95,845.899 L-3300.47,853.553 L-3298.95,861.207 L-3294.61,867.695 L-3288.12,872.031 L-3280.47,873.553 L-2800.47,873.553 L-2800.47,1353.55 L-2798.95,1361.21 L-2794.61,1367.7 L-2788.12,1372.03 L-2780.47,1373.55 L-2772.81,1372.03 L-2766.33,1367.7 L-2761.99,1361.21 L-2760.47,1353.55 L-2760.47,873.553 L-2280.47,873.553 L-2272.81,872.031 L-2266.33,867.695 L-2261.99,861.207 L-2260.47,853.553 L-2261.99,845.899 L-2266.33,839.411 L-2272.81,835.075 L-2280.47,833.553 L-2760.47,833.553 L-2760.47,353.553 L-2761.99,345.899 L-2766.33,339.411 L-2772.81,335.075 L-2780.47,333.553 L-2788.12,335.075 L-2794.61,339.411 L-2798.95,345.899 L-2800.47,353.553 L-2800.47,833.553"/>
</g>

<g fill="none" stroke="#000000" stroke-opacity="1" stroke-width="1" stroke-linecap="square" stroke-linejoin="bevel" transform="matrix(1,0,0,-1,27801,1374.05)"
font-family="MS Shell Dlg 2" font-size="10.3125" font-weight="400" font-style="normal" 
>
</g>

<g fill="none" stroke="#000000" stroke-opacity="1" stroke-width="1" stroke-linecap="square" stroke-linejoin="bevel" transform="matrix(1,0,0,-1,27801,1374.05)"
font-family="MS Shell Dlg 2" font-size="10.3125" font-weight="400" font-style="normal" 
>
</g>

<g fill="#ae5151" fill-opacity="0.2" stroke="#333333" stroke-opacity="1" stroke-width="1" stroke-linecap="round" stroke-linejoin="round" transform="matrix(1,0,0,-1,27801,1374.05)"
font-family="MS Shell Dlg 2" font-size="10.3125" font-weight="400" font-style="normal" 
>
<path vector-effect="non-scaling-stroke" fill-rule="evenodd" d="M-27300.5,833.553 L-27780.5,833.553 L-27788.1,835.075 L-27794.6,839.411 L-27798.9,845.899 L-27800.5,853.553 L-27798.9,861.207 L-27794.6,867.695 L-27788.1,872.031 L-27780.5,873.553 L-27300.5,873.553 L-27300.5,1353.55 L-27298.9,1361.21 L-27294.6,1367.7 L-27288.1,1372.03 L-27280.5,1373.55 L-27272.8,1372.03 L-27266.3,1367.7 L-27262,1361.21 L-27260.5,1353.55 L-27260.5,873.553 L-26780.5,873.553 L-26772.8,872.031 L-26766.3,867.695 L-26762,861.207 L-26760.5,853.553 L-26762,845.899 L-26766.3,839.411 L-26772.8,835.075 L-26780.5,833.553 L-27260.5,833.553 L-27260.5,353.553 L-27262,345.899 L-27266.3,339.411 L-27272.8,335.075 L-27280.5,333.553 L-27288.1,335.075 L-27294.6,339.411 L-27298.9,345.899 L-27300.5,353.553 L-27300.5,833.553"/>
</g>

<g fill="none" stroke="#000000" stroke-opacity="1" stroke-width="1" stroke-linecap="square" stroke-linejoin="bevel" transform="matrix(1,0,0,-1,27801,1374.05)"
font-family="MS Shell Dlg 2" font-size="10.3125" font-weight="400" font-style="normal" 
>
</g>

<g fill="none" stroke="#000000" stroke-opacity="1" stroke-width="1" stroke-linecap="square" stroke-linejoin="bevel" transform="matrix(1,0,0,-1,27801,1374.05)"
font-family="MS Shell Dlg 2" font-size="10.3125" font-weight="400" font-style="normal" 
>
</g>

<g fill="#333333" fill-opacity="0.2" stroke="#333333" stroke-opacity="1" stroke-width="1" stroke-linecap="round" stroke-linejoin="round" transform="matrix(1,0,0,-1,27801,1374.05)"
font-family="MS Shell Dlg 2" font-size="10.3125" font-weight="400" font-style="normal" 
>
<path vector-effect="non-scaling-stroke" fill-rule="evenodd" d="M21699.5,833.553 L21219.5,833.553 L21211.9,835.075 L21205.4,839.411 L21201.1,845.899 L21199.5,853.553 L21201.1,861.207 L21205.4,867.695 L21211.9,872.031 L21219.5,873.553 L21699.5,873.553 L21699.5,1353.55 L21701.1,1361.21 L21705.4,1367.7 L21711.9,1372.03 L21719.5,1373.55 L21727.2,1372.03 L21733.7,1367.7 L21738,1361.21 L21739.5,1353.55 L21739.5,873.553 L22219.5,873.553 L22227.2,872.031 L22233.7,867.695 L22238,861.207 L22239.5,853.553 L22238,845.899 L22233.7,839.411 L22227.2,835.075 L22219.5,833.553 L21739.5,833.553 L21739.5,353.553 L21738,345.899 L21733.7,339.411 L21727.2,335.075 L21719.5,333.553 L21711.9,335.075 L21705.4,339.411 L21701.1,345.899 L21699.5,353.553 L21699.5,833.553"/>
</g>

<g fill="none" stroke="#000000" stroke-opacity="1" stroke-width="1" stroke-linecap="square" stroke-linejoin="bevel" transform="matrix(1,0,0,-1,27801,1374.05)"
font-family="MS Shell Dlg 2" font-size="10.3125" font-weight="400" font-style="normal" 
>
</g>

<g fill="none" stroke="#000000" stroke-opacity="1" stroke-width="1" stroke-linecap="square" stroke-linejoin="bevel" transform="matrix(1,0,0,-1,27801,1374.05)"
font-family="MS Shell Dlg 2" font-size="10.3125" font-weight="400" font-style="normal" 
>
</g>

<g fill="#333333" fill-opacity="0.2" stroke="#333333" stroke-opacity="1" stroke-width="1" stroke-linecap="round" stroke-linejoin="round" transform="matrix(1,0,0,-1,27801,1374.05)"
font-family="MS Shell Dlg 2" font-size="10.3125" font-weight="400" font-style="normal" 
>
<path vector-effect="non-scaling-stroke" fill-rule="evenodd" d="M-2800.47,833.553 L-3280.47,833.553 L-3288.12,835.075 L-3294.61,839.411 L-3298.95,845.899 L-3300.47,853.553 L-3298.95,861.207 L-3294.61,867.695 L-3288.12,872.031 L-3280.47,873.553 L-2800.47,873.553 L-2800.47,1353.55 L-2798.95,1361.21 L-2794.61,1367.7 L-2788.12,1372.03 L-2780.47,1373.55 L-2772.81,1372.03 L-2766.33,1367.7 L-2761.99,1361.21 L-2760.47,1353.55 L-2760.47,873.553 L-2280.47,873.553 L-2272.81,872.031 L-2266.33,867.695 L-2261.99,861.207 L-2260.47,853.553 L-2261.99,845.899 L-2266.33,839.411 L-2272.81,835.075 L-2280.47,833.553 L-2760.47,833.553 L-2760.47,353.553 L-2761.99,345.899 L-2766.33,339.411 L-2772.81,335.075 L-2780.47,333.553 L-2788.12,335.075 L-2794.61,339.411 L-2798.95,345.899 L-2800.47,353.553 L-2800.47,833.553"/>
</g>

<g fill="none" stroke="#000000" stroke-opacity="1" stroke-width="1" stroke-linecap="square" stroke-linejoin="bevel" transform="matrix(1,0,0,-1,27801,1374.05)"
font-family="MS Shell Dlg 2" font-size="10.3125" font-weight="400" font-style="normal" 
>
</g>

<g fill="none" stroke="#000000" stroke-opacity="1" stroke-width="1" stroke-linecap="square" stroke-linejoin="bevel" transform="matrix(1,0,0,-1,27801,1374.05)"
font-family="MS Shell Dlg 2" font-size="10.3125" font-weight="400" font-style="normal" 
>
</g>

<g fill="#333333" fill-opacity="0.2" stroke="#333333" stroke-opacity="1" stroke-width="1" stroke-linecap="round" stroke-linejoin="round" transform="matrix(1,0,0,-1,27801,1374.05)"
font-family="MS Shell Dlg 2" font-size="10.3125" font-weight="400" font-style="normal" 
>
<path vector-effect="non-scaling-stroke" fill-rule="evenodd" d="M-27300.5,833.553 L-27780.5,833.553 L-27788.1,835.075 L-27794.6,839.411 L-27798.9,845.899 L-27800.5,853.553 L-27798.9,861.207 L-27794.6,867.695 L-27788.1,872.031 L-27780.5,873.553 L-27300.5,873.553 L-27300.5,1353.55 L-27298.9,1361.21 L-27294.6,1367.7 L-27288.1,1372.03 L-27280.5,1373.55 L-27272.8,1372.03 L-27266.3,1367.7 L-27262,1361.21 L-27260.5,1353.55 L-27260.5,873.553 L-26780.5,873.553 L-26772.8,872.031 L-26766.3,867.695 L-26762,861.207 L-26760.5,853.553 L-26762,845.899 L-26766.3,839.411 L-26772.8,835.075 L-26780.5,833.553 L-27260.5,833.553 L-27260.5,353.553 L-27262,345.899 L-27266.3,339.411 L-27272.8,335.075 L-27280.5,333.553 L-27288.1,335.075 L-27294.6,339.411 L-27298.9,345.899 L-27300.5,353.553 L-27300.5,833.553"/>
</g>

<g fill="none" stroke="#000000" stroke-opacity="1" stroke-width="1" stroke-linecap="square" stroke-linejoin="bevel" transform="matrix(1,0,0,-1,27801,1374.05)"
font-family="MS Shell Dlg 2" font-size="10.3125" font-weight="400" font-style="normal" 
>
</g>

<g fill="none" stroke="#000000" stroke-opacity="1" stroke-width="1" stroke-linecap="square" stroke-linejoin="bevel" transform="matrix(1,0,0,-1,27801,1374.05)"
font-family="MS Shell Dlg 2" font-size="10.3125" font-weight="400" font-style="normal" 
>
</g>

<g fill="#ae5151" fill-opacity="0.2" stroke="#333333" stroke-opacity="1" stroke-width="1" stroke-linecap="round" stroke-linejoin="round" transform="matrix(1,0,0,-1,27801,1374.05)"
font-family="MS Shell Dlg 2" font-size="10.3125" font-weight="400" font-style="normal" 
>
<path vector-effect="non-scaling-stroke" fill-rule="evenodd" d="M21699.5,833.553 L21219.5,833.553 L21211.9,835.075 L21205.4,839.411 L21201.1,845.899 L21199.5,853.553 L21201.1,861.207 L21205.4,867.695 L21211.9,872.031 L21219.5,873.553 L21699.5,873.553 L21699.5,1353.55 L21701.1,1361.21 L21705.4,1367.7 L21711.9,1372.03 L21719.5,1373.55 L21727.2,1372.03 L21733.7,1367.7 L21738,1361.21 L21739.5,1353.55 L21739.5,873.553 L22219.5,873.553 L22227.2,872.031 L22233.7,867.695 L22238,861.207 L22239.5,853.553 L22238,845.899 L22233.7,839.411 L22227.2,835.075 L22219.5,833.553 L21739.5,833.553 L21739.5,353.553 L21738,345.899 L21733.7,339.411 L21727.2,335.075 L21719.5,333.553 L21711.9,335.075 L21705.4,339.411 L21701.1,345.899 L21699.5,353.553 L21699.5,833.553"/>
</g>

<g fill="none" stroke="#000000" stroke-opacity="1" stroke-width="1" stroke-linecap="square" stroke-linejoin="bevel" transform="matrix(1,0,0,-1,27801,1374.05)"
font-family="MS Shell Dlg 2" font-size="10.3125" font-weight="400" font-style="normal" 
>
</g>

<g fill="none" stroke="#000000" stroke-opacity="1" stroke-width="1" stroke-linecap="square" stroke-linejoin="bevel" transform="matrix(1,0,0,-1,27801,1374.05)"
font-family="MS Shell Dlg 2" font-size="10.3125" font-weight="400" font-style="normal" 
>
</g>

<g fill="#ae5151" fill-opacity="0.2" stroke="#333333" stroke-opacity="1" stroke-width="1" stroke-linecap="round" stroke-linejoin="round" transform="matrix(1,0,0,-1,27801,1374.05)"
font-family="MS Shell Dlg 2" font-size="10.3125" font-weight="400" font-style="normal" 
>
<path vector-effect="non-scaling-stroke" fill-rule="evenodd" d="M-2800.47,833.553 L-3280.47,833.553 L-3288.12,835.075 L-3294.61,839.411 L-3298.95,845.899 L-3300.47,853.553 L-3298.95,861.207 L-3294.61,867.695 L-3288.12,872.031 L-3280.47,873.553 L-2800.47,873.553 L-2800.47,1353.55 L-2798.95,1361.21 L-2794.61,1367.7 L-2788.12,1372.03 L-2780.47,1373.55 L-2772.81,1372.03 L-2766.33,1367.7 L-2761.99,1361.21 L-2760.47,1353.55 L-2760.47,873.553 L-2280.47,873.553 L-2272.81,872.031 L-2266.33,867.695 L-2261.99,861.207 L-2260.47,853.553 L-2261.99,845.899 L-2266.33,839.411 L-2272.81,835.075 L-2280.47,833.553 L-2760.47,833.553 L-2760.47,353.553 L-2761.99,345.899 L-2766.33,339.411 L-2772.81,335.075 L-2780.47,333.553 L-2788.12,335.075 L-2794.61,339.411 L-2798.95,345.899 L-2800.47,353.553 L-2800.47,833.553"/>
</g>

<g fill="none" stroke="#000000" stroke-opacity="1" stroke-width="1" stroke-linecap="square" stroke-linejoin="bevel" transform="matrix(1,0,0,-1,27801,1374.05)"
font-family="MS Shell Dlg 2" font-size="10.3125" font-weight="400" font-style="normal" 
>
</g>

<g fill="none" stroke="#000000" stroke-opacity="1" stroke-width="1" stroke-linecap="square" stroke-linejoin="bevel" transform="matrix(1,0,0,-1,27801,1374.05)"
font-family="MS Shell Dlg 2" font-size="10.3125" font-weight="400" font-style="normal" 
>
</g>

<g fill="#ae5151" fill-opacity="0.2" stroke="#333333" stroke-opacity="1" stroke-width="1" stroke-linecap="round" stroke-linejoin="round" transform="matrix(1,0,0,-1,27801,1374.05)"
font-family="MS Shell Dlg 2" font-size="10.3125" font-weight="400" font-style="normal" 
>
<path vector-effect="non-scaling-stroke" fill-rule="evenodd" d="M-27300.5,833.553 L-27780.5,833.553 L-27788.1,835.075 L-27794.6,839.411 L-27798.9,845.899 L-27800.5,853.553 L-27798.9,861.207 L-27794.6,867.695 L-27788.1,872.031 L-27780.5,873.553 L-27300.5,873.553 L-27300.5,1353.55 L-27298.9,1361.21 L-27294.6,1367.7 L-27288.1,1372.03 L-27280.5,1373.55 L-27272.8,1372.03 L-27266.3,1367.7 L-27262,1361.21 L-27260.5,1353.55 L-27260.5,873.553 L-26780.5,873.553 L-26772.8,872.031 L-26766.3,867.695 L-26762,861.207 L-26760.5,853.553 L-26762,845.899 L-26766.3,839.411 L-26772.8,835.075 L-26780.5,833.553 L-27260.5,833.553 L-27260.5,353.553 L-27262,345.899 L-27266.3,339.411 L-27272.8,335.075 L-27280.5,333.553 L-27288.1,335.075 L-27294.6,339.411 L-27298.9,345.899 L-27300.5,353.553 L-27300.5,833.553"/>
</g>

<g fill="none" stroke="#000000" stroke-opacity="1" stroke-width="1" stroke-linecap="square" stroke-linejoin="bevel" transform="matrix(1,0,0,-1,27801,1374.05)"
font-family="MS Shell Dlg 2" font-size="10.3125" font-weight="400" font-style="normal" 
>
</g>

<g fill="none" stroke="#000000" stroke-opacity="1" stroke-width="1" stroke-linecap="square" stroke-linejoin="bevel" transform="matrix(1,0,0,-1,27801,1374.05)"
font-family="MS Shell Dlg 2" font-size="10.3125" font-weight="400" font-style="normal" 
>
</g>

<g fill="#ffff00" fill-opacity="0.2" stroke="#333333" stroke-opacity="1" stroke-width="1" stroke-linecap="round" stroke-linejoin="round" transform="matrix(1,0,0,-1,27801,1374.05)"
font-family="MS Shell Dlg 2" font-size="10.3125" font-weight="400" font-style="normal" 
>
<path vector-effect="non-scaling-stroke" fill-rule="evenodd" d="M21699.5,833.553 L21219.5,833.553 L21211.9,835.075 L21205.4,839.411 L21201.1,845.899 L21199.5,853.553 L21201.1,861.207 L21205.4,867.695 L21211.9,872.031 L21219.5,873.553 L21699.5,873.553 L21699.5,1353.55 L21701.1,1361.21 L21705.4,1367.7 L21711.9,1372.03 L21719.5,1373.55 L21727.2,1372.03 L21733.7,1367.7 L21738,1361.21 L21739.5,1353.55 L21739.5,873.553 L22219.5,873.553 L22227.2,872.031 L22233.7,867.695 L22238,861.207 L22239.5,853.553 L22238,845.899 L22233.7,839.411 L22227.2,835.075 L22219.5,833.553 L21739.5,833.553 L21739.5,353.553 L21738,345.899 L21733.7,339.411 L21727.2,335.075 L21719.5,333.553 L21711.9,335.075 L21705.4,339.411 L21701.1,345.899 L21699.5,353.553 L21699.5,833.553"/>
</g>

<g fill="none" stroke="#000000" stroke-opacity="1" stroke-width="1" stroke-linecap="square" stroke-linejoin="bevel" transform="matrix(1,0,0,-1,27801,1374.05)"
font-family="MS Shell Dlg 2" font-size="10.3125" font-weight="400" font-style="normal" 
>
</g>

<g fill="none" stroke="#000000" stroke-opacity="1" stroke-width="1" stroke-linecap="square" stroke-linejoin="bevel" transform="matrix(1,0,0,-1,27801,1374.05)"
font-family="MS Shell Dlg 2" font-size="10.3125" font-weight="400" font-style="normal" 
>
</g>

<g fill="#ffff00" fill-opacity="0.2" stroke="#333333" stroke-opacity="1" stroke-width="1" stroke-linecap="round" stroke-linejoin="round" transform="matrix(1,0,0,-1,27801,1374.05)"
font-family="MS Shell Dlg 2" font-size="10.3125" font-weight="400" font-style="normal" 
>
<path vector-effect="non-scaling-stroke" fill-rule="evenodd" d="M-2800.47,833.553 L-3280.47,833.553 L-3288.12,835.075 L-3294.61,839.411 L-3298.95,845.899 L-3300.47,853.553 L-3298.95,861.207 L-3294.61,867.695 L-3288.12,872.031 L-3280.47,873.553 L-2800.47,873.553 L-2800.47,1353.55 L-2798.95,1361.21 L-2794.61,1367.7 L-2788.12,1372.03 L-2780.47,1373.55 L-2772.81,1372.03 L-2766.33,1367.7 L-2761.99,1361.21 L-2760.47,1353.55 L-2760.47,873.553 L-2280.47,873.553 L-2272.81,872.031 L-2266.33,867.695 L-2261.99,861.207 L-2260.47,853.553 L-2261.99,845.899 L-2266.33,839.411 L-2272.81,835.075 L-2280.47,833.553 L-2760.47,833.553 L-2760.47,353.553 L-2761.99,345.899 L-2766.33,339.411 L-2772.81,335.075 L-2780.47,333.553 L-2788.12,335.075 L-2794.61,339.411 L-2798.95,345.899 L-2800.47,353.553 L-2800.47,833.553"/>
</g>

<g fill="none" stroke="#000000" stroke-opacity="1" stroke-width="1" stroke-linecap="square" stroke-linejoin="bevel" transform="matrix(1,0,0,-1,27801,1374.05)"
font-family="MS Shell Dlg 2" font-size="10.3125" font-weight="400" font-style="normal" 
>
</g>

<g fill="none" stroke="#000000" stroke-opacity="1" stroke-width="1" stroke-linecap="square" stroke-linejoin="bevel" transform="matrix(1,0,0,-1,27801,1374.05)"
font-family="MS Shell Dlg 2" font-size="10.3125" font-weight="400" font-style="normal" 
>
</g>

<g fill="#ffff00" fill-opacity="0.2" stroke="#333333" stroke-opacity="1" stroke-width="1" stroke-linecap="round" stroke-linejoin="round" transform="matrix(1,0,0,-1,27801,1374.05)"
font-family="MS Shell Dlg 2" font-size="10.3125" font-weight="400" font-style="normal" 
>
<path vector-effect="non-scaling-stroke" fill-rule="evenodd" d="M-27300.5,833.553 L-27780.5,833.553 L-27788.1,835.075 L-27794.6,839.411 L-27798.9,845.899 L-27800.5,853.553 L-27798.9,861.207 L-27794.6,867.695 L-27788.1,872.031 L-27780.5,873.553 L-27300.5,873.553 L-27300.5,1353.55 L-27298.9,1361.21 L-27294.6,1367.7 L-27288.1,1372.03 L-27280.5,1373.55 L-27272.8,1372.03 L-27266.3,1367.7 L-27262,1361.21 L-27260.5,1353.55 L-27260.5,873.553 L-26780.5,873.553 L-26772.8,872.031 L-26766.3,867.695 L-26762,861.207 L-26760.5,853.553 L-26762,845.899 L-26766.3,839.411 L-26772.8,835.075 L-26780.5,833.553 L-27260.5,833.553 L-27260.5,353.553 L-27262,345.899 L-27266.3,339.411 L-27272.8,335.075 L-27280.5,333.553 L-27288.1,335.075 L-27294.6,339.411 L-27298.9,345.899 L-27300.5,353.553 L-27300.5,833.553"/>
</g>

<g fill="none" stroke="#000000" stroke-opacity="1" stroke-width="1" stroke-linecap="square" stroke-linejoin="bevel" transform="matrix(1,0,0,-1,27801,1374.05)"
font-family="MS Shell Dlg 2" font-size="10.3125" font-weight="400" font-style="normal" 
>
</g>

<g fill="none" stroke="#000000" stroke-opacity="1" stroke-width="1" stroke-linecap="square" stroke-linejoin="bevel" transform="matrix(1,0,0,-1,27801,1374.05)"
font-family="MS Shell Dlg 2" font-size="10.3125" font-weight="400" font-style="normal" 
>
</g>

<g fill="#ae5151" fill-opacity="0.2" stroke="#333333" stroke-opacity="1" stroke-width="1" stroke-linecap="round" stroke-linejoin="round" transform="matrix(1,0,0,-1,27801,1374.05)"
font-family="MS Shell Dlg 2" font-size="10.3125" font-weight="400" font-style="normal" 
>
<path vector-effect="non-scaling-stroke" fill-rule="evenodd" d="M21699.5,833.553 L21219.5,833.553 L21211.9,835.075 L21205.4,839.411 L21201.1,845.899 L21199.5,853.553 L21201.1,861.207 L21205.4,867.695 L21211.9,872.031 L21219.5,873.553 L21699.5,873.553 L21699.5,1353.55 L21701.1,1361.21 L21705.4,1367.7 L21711.9,1372.03 L21719.5,1373.55 L21727.2,1372.03 L21733.7,1367.7 L21738,1361.21 L21739.5,1353.55 L21739.5,873.553 L22219.5,873.553 L22227.2,872.031 L22233.7,867.695 L22238,861.207 L22239.5,853.553 L22238,845.899 L22233.7,839.411 L22227.2,835.075 L22219.5,833.553 L21739.5,833.553 L21739.5,353.553 L21738,345.899 L21733.7,339.411 L21727.2,335.075 L21719.5,333.553 L21711.9,335.075 L21705.4,339.411 L21701.1,345.899 L21699.5,353.553 L21699.5,833.553"/>
</g>

<g fill="none" stroke="#000000" stroke-opacity="1" stroke-width="1" stroke-linecap="square" stroke-linejoin="bevel" transform="matrix(1,0,0,-1,27801,1374.05)"
font-family="MS Shell Dlg 2" font-size="10.3125" font-weight="400" font-style="normal" 
>
</g>

<g fill="none" stroke="#000000" stroke-opacity="1" stroke-width="1" stroke-linecap="square" stroke-linejoin="bevel" transform="matrix(1,0,0,-1,27801,1374.05)"
font-family="MS Shell Dlg 2" font-size="10.3125" font-weight="400" font-style="normal" 
>
</g>

<g fill="#ae5151" fill-opacity="0.2" stroke="#333333" stroke-opacity="1" stroke-width="1" stroke-linecap="round" stroke-linejoin="round" transform="matrix(1,0,0,-1,27801,1374.05)"
font-family="MS Shell Dlg 2" font-size="10.3125" font-weight="400" font-style="normal" 
>
<path vector-effect="non-scaling-stroke" fill-rule="evenodd" d="M-2800.47,833.553 L-3280.47,833.553 L-3288.12,835.075 L-3294.61,839.411 L-3298.95,845.899 L-3300.47,853.553 L-3298.95,861.207 L-3294.61,867.695 L-3288.12,872.031 L-3280.47,873.553 L-2800.47,873.553 L-2800.47,1353.55 L-2798.95,1361.21 L-2794.61,1367.7 L-2788.12,1372.03 L-2780.47,1373.55 L-2772.81,1372.03 L-2766.33,1367.7 L-2761.99,1361.21 L-2760.47,1353.55 L-2760.47,873.553 L-2280.47,873.553 L-2272.81,872.031 L-2266.33,867.695 L-2261.99,861.207 L-2260.47,853.553 L-2261.99,845.899 L-2266.33,839.411 L-2272.81,835.075 L-2280.47,833.553 L-2760.47,833.553 L-2760.47,353.553 L-2761.99,345.899 L-2766.33,339.411 L-2772.81,335.075 L-2780.47,333.553 L-2788.12,335.075 L-2794.61,339.411 L-2798.95,345.899 L-2800.47,353.553 L-2800.47,833.553"/>
</g>

<g fill="none" stroke="#000000" stroke-opacity="1" stroke-width="1" stroke-linecap="square" stroke-linejoin="bevel" transform="matrix(1,0,0,-1,27801,1374.05)"
font-family="MS Shell Dlg 2" font-size="10.3125" font-weight="400" font-style="normal" 
>
</g>

<g fill="none" stroke="#000000" stroke-opacity="1" stroke-width="1" stroke-linecap="square" stroke-linejoin="bevel" transform="matrix(1,0,0,-1,27801,1374.05)"
font-family="MS Shell Dlg 2" font-size="10.3125" font-weight="400" font-style="normal" 
>
</g>

<g fill="#ae5151" fill-opacity="0.2" stroke="#333333" stroke-opacity="1" stroke-width="1" stroke-linecap="round" stroke-linejoin="round" transform="matrix(1,0,0,-1,27801,1374.05)"
font-family="MS Shell Dlg 2" font-size="10.3125" font-weight="400" font-style="normal" 
>
<path vector-effect="non-scaling-stroke" fill-rule="evenodd" d="M-27300.5,833.553 L-27780.5,833.553 L-27788.1,835.075 L-27794.6,839.411 L-27798.9,845.899 L-27800.5,853.553 L-27798.9,861.207 L-27794.6,867.695 L-27788.1,872.031 L-27780.5,873.553 L-27300.5,873.553 L-27300.5,1353.55 L-27298.9,1361.21 L-27294.6,1367.7 L-27288.1,1372.03 L-27280.5,1373.55 L-27272.8,1372.03 L-27266.3,1367.7 L-27262,1361.21 L-27260.5,1353.55 L-27260.5,873.553 L-26780.5,873.553 L-26772.8,872.031 L-26766.3,867.695 L-26762,861.207 L-26760.5,853.553 L-26762,845.899 L-26766.3,839.411 L-26772.8,835.075 L-26780.5,833.553 L-27260.5,833.553 L-27260.5,353.553 L-27262,345.899 L-27266.3,339.411 L-27272.8,335.075 L-27280.5,333.553 L-27288.1,335.075 L-27294.6,339.411 L-27298.9,345.899 L-27300.5,353.553 L-27300.5,833.553"/>
</g>

<g fill="none" stroke="#000000" stroke-opacity="1" stroke-width="1" stroke-linecap="square" stroke-linejoin="bevel" transform="matrix(1,0,0,-1,27801,1374.05)"
font-family="MS Shell Dlg 2" font-size="10.3125" font-weight="400" font-style="normal" 
>
</g>

<g fill="none" stroke="#000000" stroke-opacity="1" stroke-width="1" stroke-linecap="square" stroke-linejoin="bevel" transform="matrix(1,0,0,-1,27801,1374.05)"
font-family="MS Shell Dlg 2" font-size="10.3125" font-weight="400" font-style="normal" 
>
</g>

<g fill="#333333" fill-opacity="0.2" stroke="#333333" stroke-opacity="1" stroke-width="1" stroke-linecap="round" stroke-linejoin="round" transform="matrix(1,0,0,-1,27801,1374.05)"
font-family="MS Shell Dlg 2" font-size="10.3125" font-weight="400" font-style="normal" 
>
<path vector-effect="non-scaling-stroke" fill-rule="evenodd" d="M21699.5,833.553 L21219.5,833.553 L21211.9,835.075 L21205.4,839.411 L21201.1,845.899 L21199.5,853.553 L21201.1,861.207 L21205.4,867.695 L21211.9,872.031 L21219.5,873.553 L21699.5,873.553 L21699.5,1353.55 L21701.1,1361.21 L21705.4,1367.7 L21711.9,1372.03 L21719.5,1373.55 L21727.2,1372.03 L21733.7,1367.7 L21738,1361.21 L21739.5,1353.55 L21739.5,873.553 L22219.5,873.553 L22227.2,872.031 L22233.7,867.695 L22238,861.207 L22239.5,853.553 L22238,845.899 L22233.7,839.411 L22227.2,835.075 L22219.5,833.553 L21739.5,833.553 L21739.5,353.553 L21738,345.899 L21733.7,339.411 L21727.2,335.075 L21719.5,333.553 L21711.9,335.075 L21705.4,339.411 L21701.1,345.899 L21699.5,353.553 L21699.5,833.553"/>
</g>

<g fill="none" stroke="#000000" stroke-opacity="1" stroke-width="1" stroke-linecap="square" stroke-linejoin="bevel" transform="matrix(1,0,0,-1,27801,1374.05)"
font-family="MS Shell Dlg 2" font-size="10.3125" font-weight="400" font-style="normal" 
>
</g>

<g fill="none" stroke="#000000" stroke-opacity="1" stroke-width="1" stroke-linecap="square" stroke-linejoin="bevel" transform="matrix(1,0,0,-1,27801,1374.05)"
font-family="MS Shell Dlg 2" font-size="10.3125" font-weight="400" font-style="normal" 
>
</g>

<g fill="#333333" fill-opacity="0.2" stroke="#333333" stroke-opacity="1" stroke-width="1" stroke-linecap="round" stroke-linejoin="round" transform="matrix(1,0,0,-1,27801,1374.05)"
font-family="MS Shell Dlg 2" font-size="10.3125" font-weight="400" font-style="normal" 
>
<path vector-effect="non-scaling-stroke" fill-rule="evenodd" d="M-2800.47,833.553 L-3280.47,833.553 L-3288.12,835.075 L-3294.61,839.411 L-3298.95,845.899 L-3300.47,853.553 L-3298.95,861.207 L-3294.61,867.695 L-3288.12,872.031 L-3280.47,873.553 L-2800.47,873.553 L-2800.47,1353.55 L-2798.95,1361.21 L-2794.61,1367.7 L-2788.12,1372.03 L-2780.47,1373.55 L-2772.81,1372.03 L-2766.33,1367.7 L-2761.99,1361.21 L-2760.47,1353.55 L-2760.47,873.553 L-2280.47,873.553 L-2272.81,872.031 L-2266.33,867.695 L-2261.99,861.207 L-2260.47,853.553 L-2261.99,845.899 L-2266.33,839.411 L-2272.81,835.075 L-2280.47,833.553 L-2760.47,833.553 L-2760.47,353.553 L-2761.99,345.899 L-2766.33,339.411 L-2772.81,335.075 L-2780.47,333.553 L-2788.12,335.075 L-2794.61,339.411 L-2798.95,345.899 L-2800.47,353.553 L-2800.47,833.553"/>
</g>

<g fill="none" stroke="#000000" stroke-opacity="1" stroke-width="1" stroke-linecap="square" stroke-linejoin="bevel" transform="matrix(1,0,0,-1,27801,1374.05)"
font-family="MS Shell Dlg 2" font-size="10.3125" font-weight="400" font-style="normal" 
>
</g>

<g fill="none" stroke="#000000" stroke-opacity="1" stroke-width="1" stroke-linecap="square" stroke-linejoin="bevel" transform="matrix(1,0,0,-1,27801,1374.05)"
font-family="MS Shell Dlg 2" font-size="10.3125" font-weight="400" font-style="normal" 
>
</g>

<g fill="#333333" fill-opacity="0.2" stroke="#333333" stroke-opacity="1" stroke-width="1" stroke-linecap="round" stroke-linejoin="round" transform="matrix(1,0,0,-1,27801,1374.05)"
font-family="MS Shell Dlg 2" font-size="10.3125" font-weight="400" font-style="normal" 
>
<path vector-effect="non-scaling-stroke" fill-rule="evenodd" d="M-27300.5,833.553 L-27780.5,833.553 L-27788.1,835.075 L-27794.6,839.411 L-27798.9,845.899 L-27800.5,853.553 L-27798.9,861.207 L-27794.6,867.695 L-27788.1,872.031 L-27780.5,873.553 L-27300.5,873.553 L-27300.5,1353.55 L-27298.9,1361.21 L-27294.6,1367.7 L-27288.1,1372.03 L-27280.5,1373.55 L-27272.8,1372.03 L-27266.3,1367.7 L-27262,1361.21 L-27260.5,1353.55 L-27260.5,873.553 L-26780.5,873.553 L-26772.8,872.031 L-26766.3,867.695 L-26762,861.207 L-26760.5,853.553 L-26762,845.899 L-26766.3,839.411 L-26772.8,835.075 L-26780.5,833.553 L-27260.5,833.553 L-27260.5,353.553 L-27262,345.899 L-27266.3,339.411 L-27272.8,335.075 L-27280.5,333.553 L-27288.1,335.075 L-27294.6,339.411 L-27298.9,345.899 L-27300.5,353.553 L-27300.5,833.553"/>
</g>

<g fill="none" stroke="#000000" stroke-opacity="1" stroke-width="1" stroke-linecap="square" stroke-linejoin="bevel" transform="matrix(1,0,0,-1,27801,1374.05)"
font-family="MS Shell Dlg 2" font-size="10.3125" font-weight="400" font-style="normal" 
>
</g>

<g fill="none" stroke="#000000" stroke-opacity="1" stroke-width="1" stroke-linecap="square" stroke-linejoin="bevel" transform="matrix(1,0,0,-1,0,1041)"
font-family="MS Shell Dlg 2" font-size="10.3125" font-weight="400" font-style="normal" 
>
</g>
</g>
</svg>
