<?xml version="1.0" encoding="UTF-8" standalone="no"?>
<svg width="1421.84mm" height="1520.05mm"
 xmlns="http://www.w3.org/2000/svg" xmlns:xlink="http://www.w3.org/1999/xlink"  version="1.2" baseProfile="tiny">
<title>SVG Generator Example Drawing</title>
<desc>An SVG drawing created by the SVG Generator</desc>
<defs>
</defs>
<g fill="none" stroke="black" stroke-width="1" fill-rule="evenodd" stroke-linecap="square" stroke-linejoin="bevel" >

<g fill="none" stroke="#000000" stroke-opacity="1" stroke-width="1" stroke-linecap="square" stroke-linejoin="bevel" transform="matrix(1,0,0,-1,0,5386.9)"
font-family="MS Shell Dlg 2" font-size="10.3125" font-weight="400" font-style="normal" 
>
</g>

<g fill="none" stroke="#000000" stroke-opacity="1" stroke-width="1" stroke-linecap="square" stroke-linejoin="bevel" transform="matrix(1,0,0,-1,0,5386.9)"
font-family="MS Shell Dlg 2" font-size="10.3125" font-weight="400" font-style="normal" 
>
</g>

<g fill="none" stroke="#000000" stroke-opacity="1" stroke-width="1" stroke-linecap="square" stroke-linejoin="bevel" transform="matrix(0.999833,0,0,-0.999833,19171,9943.87)"
font-family="MS Shell Dlg 2" font-size="10.3125" font-weight="400" font-style="normal" 
>
</g>

<g fill="#333333" fill-opacity="0.2" stroke="#333333" stroke-opacity="1" stroke-width="1" stroke-linecap="round" stroke-linejoin="round" transform="matrix(0.999833,0,0,-0.999833,19171,9943.87)"
font-family="MS Shell Dlg 2" font-size="10.3125" font-weight="400" font-style="normal" 
>
<path vector-effect="non-scaling-stroke" fill-rule="evenodd" d="M-19173.7,4995.33 L-18065.3,7337.76 L-18055,7352.22 L-16044,9307.56 L-16027.4,9318.25 L-14434.3,9944.13 L-14136.3,8198.71 L-14977.3,7817.66 L-14977.4,7817.65 L-14977.4,7817.64 L-14977.4,7817.62 L-14977.5,7817.56 L-14977.6,7817.54 L-14977.6,7817.54 L-14977.6,7817.52 L-16349.5,6937.47 L-16349.5,6937.43 L-16349.5,6937.41 L-16349.6,6937.37 L-16349.8,6937.19 L-16349.9,6937.14 L-16349.9,6937.13 L-16349.9,6937.07 L-16937.9,6249.28 L-16937.9,6249.22 L-16937.9,6249.21 L-16938,6249.15 L-16938.1,6248.93 L-16938.1,6248.87 L-16938.1,6248.85 L-16938.2,6248.78 L-17698.5,4558.23 L-19173.7,4995.33"/>
</g>

<g fill="none" stroke="#000000" stroke-opacity="1" stroke-width="1" stroke-linecap="square" stroke-linejoin="bevel" transform="matrix(0.999833,0,0,-0.999833,19171,9943.87)"
font-family="MS Shell Dlg 2" font-size="10.3125" font-weight="400" font-style="normal" 
>
</g>

<g fill="none" stroke="#000000" stroke-opacity="1" stroke-width="1" stroke-linecap="square" stroke-linejoin="bevel" transform="matrix(0.999833,0,0,-0.999833,19171,9943.87)"
font-family="MS Shell Dlg 2" font-size="10.3125" font-weight="400" font-style="normal" 
>
</g>

<g fill="#ae5151" fill-opacity="0.2" stroke="#333333" stroke-opacity="1" stroke-width="1" stroke-linecap="round" stroke-linejoin="round" transform="matrix(0.999833,0,0,-0.999833,19171,9943.87)"
font-family="MS Shell Dlg 2" font-size="10.3125" font-weight="400" font-style="normal" 
>
<path vector-effect="non-scaling-stroke" fill-rule="evenodd" d="M-19173.7,4995.33 L-18065.3,7337.76 L-18055,7352.22 L-16044,9307.56 L-16027.4,9318.25 L-14434.3,9944.13 L-14136.3,8198.71 L-14977.3,7817.66 L-14977.4,7817.65 L-14977.4,7817.64 L-14977.4,7817.62 L-14977.5,7817.56 L-14977.6,7817.54 L-14977.6,7817.54 L-14977.6,7817.52 L-16349.5,6937.47 L-16349.5,6937.43 L-16349.5,6937.41 L-16349.6,6937.37 L-16349.8,6937.19 L-16349.9,6937.14 L-16349.9,6937.13 L-16349.9,6937.07 L-16937.9,6249.28 L-16937.9,6249.22 L-16937.9,6249.21 L-16938,6249.15 L-16938.1,6248.93 L-16938.1,6248.87 L-16938.1,6248.85 L-16938.2,6248.78 L-17698.5,4558.23 L-19173.7,4995.33"/>
</g>

<g fill="none" stroke="#000000" stroke-opacity="1" stroke-width="1" stroke-linecap="square" stroke-linejoin="bevel" transform="matrix(0.999833,0,0,-0.999833,19171,9943.87)"
font-family="MS Shell Dlg 2" font-size="10.3125" font-weight="400" font-style="normal" 
>
</g>

<g fill="none" stroke="#000000" stroke-opacity="1" stroke-width="1" stroke-linecap="square" stroke-linejoin="bevel" transform="matrix(0.999833,0,0,-0.999833,19171,9943.87)"
font-family="MS Shell Dlg 2" font-size="10.3125" font-weight="400" font-style="normal" 
>
</g>

<g fill="#ffff00" fill-opacity="0.2" stroke="#333333" stroke-opacity="1" stroke-width="1" stroke-linecap="round" stroke-linejoin="round" transform="matrix(0.999833,0,0,-0.999833,19171,9943.87)"
font-family="MS Shell Dlg 2" font-size="10.3125" font-weight="400" font-style="normal" 
>
<path vector-effect="non-scaling-stroke" fill-rule="evenodd" d="M-19173.7,4995.33 L-18065.3,7337.76 L-18055,7352.22 L-16044,9307.56 L-16027.4,9318.25 L-14434.3,9944.13 L-14136.3,8198.71 L-14977.3,7817.66 L-14977.4,7817.65 L-14977.4,7817.64 L-14977.4,7817.62 L-14977.5,7817.56 L-14977.6,7817.54 L-14977.6,7817.54 L-14977.6,7817.52 L-16349.5,6937.47 L-16349.5,6937.43 L-16349.5,6937.41 L-16349.6,6937.37 L-16349.8,6937.19 L-16349.9,6937.14 L-16349.9,6937.13 L-16349.9,6937.07 L-16937.9,6249.28 L-16937.9,6249.22 L-16937.9,6249.21 L-16938,6249.15 L-16938.1,6248.93 L-16938.1,6248.87 L-16938.1,6248.85 L-16938.2,6248.78 L-17698.5,4558.23 L-19173.7,4995.33"/>
</g>

<g fill="none" stroke="#000000" stroke-opacity="1" stroke-width="1" stroke-linecap="square" stroke-linejoin="bevel" transform="matrix(0.999833,0,0,-0.999833,19171,9943.87)"
font-family="MS Shell Dlg 2" font-size="10.3125" font-weight="400" font-style="normal" 
>
</g>

<g fill="none" stroke="#000000" stroke-opacity="1" stroke-width="1" stroke-linecap="square" stroke-linejoin="bevel" transform="matrix(0.999833,0,0,-0.999833,19171,9943.87)"
font-family="MS Shell Dlg 2" font-size="10.3125" font-weight="400" font-style="normal" 
>
</g>

<g fill="#ae5151" fill-opacity="0.2" stroke="#333333" stroke-opacity="1" stroke-width="1" stroke-linecap="round" stroke-linejoin="round" transform="matrix(0.999833,0,0,-0.999833,19171,9943.87)"
font-family="MS Shell Dlg 2" font-size="10.3125" font-weight="400" font-style="normal" 
>
<path vector-effect="non-scaling-stroke" fill-rule="evenodd" d="M-19173.7,4995.33 L-18065.3,7337.76 L-18055,7352.22 L-16044,9307.56 L-16027.4,9318.25 L-14434.3,9944.13 L-14136.3,8198.71 L-14977.3,7817.66 L-14977.4,7817.65 L-14977.4,7817.64 L-14977.4,7817.62 L-14977.5,7817.56 L-14977.6,7817.54 L-14977.6,7817.54 L-14977.6,7817.52 L-16349.5,6937.47 L-16349.5,6937.43 L-16349.5,6937.41 L-16349.6,6937.37 L-16349.8,6937.19 L-16349.9,6937.14 L-16349.9,6937.13 L-16349.9,6937.07 L-16937.9,6249.28 L-16937.9,6249.22 L-16937.9,6249.21 L-16938,6249.15 L-16938.1,6248.93 L-16938.1,6248.87 L-16938.1,6248.85 L-16938.2,6248.78 L-17698.5,4558.23 L-19173.7,4995.33"/>
</g>

<g fill="none" stroke="#000000" stroke-opacity="1" stroke-width="1" stroke-linecap="square" stroke-linejoin="bevel" transform="matrix(0.999833,0,0,-0.999833,19171,9943.87)"
font-family="MS Shell Dlg 2" font-size="10.3125" font-weight="400" font-style="normal" 
>
</g>

<g fill="none" stroke="#000000" stroke-opacity="1" stroke-width="1" stroke-linecap="square" stroke-linejoin="bevel" transform="matrix(0.999833,0,0,-0.999833,19171,9943.87)"
font-family="MS Shell Dlg 2" font-size="10.3125" font-weight="400" font-style="normal" 
>
</g>

<g fill="#333333" fill-opacity="0.2" stroke="#333333" stroke-opacity="1" stroke-width="1" stroke-linecap="round" stroke-linejoin="round" transform="matrix(0.999833,0,0,-0.999833,19171,9943.87)"
font-family="MS Shell Dlg 2" font-size="10.3125" font-weight="400" font-style="normal" 
>
<path vector-effect="non-scaling-stroke" fill-rule="evenodd" d="M-19173.7,4995.33 L-18065.3,7337.76 L-18055,7352.22 L-16044,9307.56 L-16027.4,9318.25 L-14434.3,9944.13 L-14136.3,8198.71 L-14977.3,7817.66 L-14977.4,7817.65 L-14977.4,7817.64 L-14977.4,7817.62 L-14977.5,7817.56 L-14977.6,7817.54 L-14977.6,7817.54 L-14977.6,7817.52 L-16349.5,6937.47 L-16349.5,6937.43 L-16349.5,6937.41 L-16349.6,6937.37 L-16349.8,6937.19 L-16349.9,6937.14 L-16349.9,6937.13 L-16349.9,6937.07 L-16937.9,6249.28 L-16937.9,6249.22 L-16937.9,6249.21 L-16938,6249.15 L-16938.1,6248.93 L-16938.1,6248.87 L-16938.1,6248.85 L-16938.2,6248.78 L-17698.5,4558.23 L-19173.7,4995.33"/>
</g>

<g fill="none" stroke="#000000" stroke-opacity="1" stroke-width="1" stroke-linecap="square" stroke-linejoin="bevel" transform="matrix(0.999833,0,0,-0.999833,19171,9943.87)"
font-family="MS Shell Dlg 2" font-size="10.3125" font-weight="400" font-style="normal" 
>
</g>

<g fill="none" stroke="#000000" stroke-opacity="1" stroke-width="1" stroke-linecap="square" stroke-linejoin="bevel" transform="matrix(1,0,0,-1,0,5386.9)"
font-family="MS Shell Dlg 2" font-size="10.3125" font-weight="400" font-style="normal" 
>
</g>
</g>
</svg>
