<?xml version="1.0" encoding="UTF-8" standalone="no"?>
<svg width="667.738mm" height="546.664mm"
 xmlns="http://www.w3.org/2000/svg" xmlns:xlink="http://www.w3.org/1999/xlink"  version="1.2" baseProfile="tiny">
<title>SVG Generator Example Drawing</title>
<desc>An SVG drawing created by the SVG Generator</desc>
<defs>
</defs>
<g fill="none" stroke="black" stroke-width="1" fill-rule="evenodd" stroke-linecap="square" stroke-linejoin="bevel" >

<g fill="none" stroke="#000000" stroke-opacity="1" stroke-width="1" stroke-linecap="square" stroke-linejoin="bevel" transform="matrix(1,0,0,-1,0,1937.45)"
font-family="MS Shell Dlg 2" font-size="10.3125" font-weight="400" font-style="normal" 
>
</g>

<g fill="none" stroke="#000000" stroke-opacity="1" stroke-width="1" stroke-linecap="square" stroke-linejoin="bevel" transform="matrix(1,0,0,-1,0,1937.45)"
font-family="MS Shell Dlg 2" font-size="10.3125" font-weight="400" font-style="normal" 
>
</g>

<g fill="none" stroke="#000000" stroke-opacity="1" stroke-width="1" stroke-linecap="square" stroke-linejoin="bevel" transform="matrix(0.999766,0,0,-0.999766,22300.1,3421.94)"
font-family="MS Shell Dlg 2" font-size="10.3125" font-weight="400" font-style="normal" 
>
</g>

<g fill="#333333" fill-opacity="0.2" stroke="#333333" stroke-opacity="1" stroke-width="1" stroke-linecap="round" stroke-linejoin="round" transform="matrix(0.999766,0,0,-0.999766,22300.1,3421.94)"
font-family="MS Shell Dlg 2" font-size="10.3125" font-weight="400" font-style="normal" 
>
<path vector-effect="non-scaling-stroke" fill-rule="evenodd" d="M-22304.8,1807.44 L-22304.8,3305.04 L-22301,3323.98 L-22290.4,3339.86 L-22274.5,3350.48 L-22255.6,3354.24 L-21858,3354.24 L-21839,3350.48 L-21823.2,3339.86 L-21812.5,3323.98 L-21808.8,3305.04 L-21808.8,2981.26 L-21808.8,2981.16 L-21808.8,2981.13 L-21808.8,2981.03 L-21808.7,2980.69 L-21808.6,2980.51 L-21808.6,2980.45 L-21808.5,2980.28 L-21808.3,2980 L-21808.2,2979.85 L-21808.2,2979.81 L-21808,2979.69 L-21807.7,2979.5 L-21807.6,2979.41 L-21807.5,2979.39 L-21807.3,2979.33 L-21807,2979.26 L-21806.9,2979.25 L-21806.9,2979.25 L-21806.8,2979.24 L-21406.8,2979.24 L-21406.7,2979.25 L-21406.7,2979.25 L-21406.6,2979.26 L-21406.2,2979.33 L-21406,2979.39 L-21406,2979.41 L-21405.8,2979.5 L-21405.5,2979.69 L-21405.4,2979.81 L-21405.4,2979.85 L-21405.2,2980 L-21405,2980.28 L-21405,2980.45 L-21404.9,2980.51 L-21404.9,2980.69 L-21404.8,2981.03 L-21404.8,2981.13 L-21404.8,2981.16 L-21404.8,2981.26 L-21404.8,3372.54 L-21401,3391.48 L-21390.4,3407.36 L-21374.5,3417.98 L-21355.6,3421.74 L-20994.5,3421.74 L-20994.5,3421.74 L-20994.5,3421.74 L-20994.5,3421.74 L-20994.4,3421.75 L-20994.3,3421.75 L-20994.3,3421.75 L-20994.3,3421.75 L-20994,3421.78 L-20779,3421.74 L-20760,3417.97 L-20744.1,3407.34 L-20734.1,3392.3 L-20734,3392.22 L-20734,3392.2 L-20734,3392.12 L-20733.7,3391.88 L-20733.6,3391.76 L-20733.5,3391.72 L-20733.3,3391.63 L-20733,3391.5 L-20732.9,3391.46 L-20732.9,3391.46 L-20732.8,3391.43 L-19943.4,3230.35 L-19939.4,3228.61 L-20452.4,1485.33 L-20459.8,1486.98 L-20798.9,1644.89 L-20814,1655.79 L-20823.9,1671.33 L-20827.3,1689.07 L-20827.3,1689.15 L-20827.3,1689.18 L-20827.4,1689.26 L-20827.5,1689.55 L-20827.6,1689.7 L-20827.6,1689.75 L-20827.7,1689.89 L-20827.9,1690.11 L-20828,1690.23 L-20828,1690.26 L-20828.2,1690.36 L-20828.4,1690.5 L-20828.6,1690.58 L-20828.6,1690.59 L-20828.8,1690.64 L-20829.1,1690.69 L-20829.2,1690.7 L-20829.2,1690.7 L-20829.3,1690.71 L-20995.6,1690.74 L-20995.9,1690.74 L-21355.6,1690.74 L-21374.5,1694.51 L-21390.4,1705.12 L-21401,1721.01 L-21404.8,1739.94 L-21404.8,2131.23 L-21404.8,2131.32 L-21404.8,2131.35 L-21404.8,2131.45 L-21404.9,2131.79 L-21404.9,2131.98 L-21405,2132.03 L-21405,2132.2 L-21405.2,2132.48 L-21405.4,2132.63 L-21405.4,2132.67 L-21405.5,2132.8 L-21405.8,2132.98 L-21406,2133.07 L-21406,2133.1 L-21406.2,2133.15 L-21406.6,2133.22 L-21406.7,2133.23 L-21406.7,2133.24 L-21406.8,2133.24 L-21806.8,2133.24 L-21806.9,2133.24 L-21806.9,2133.23 L-21807,2133.22 L-21807.3,2133.15 L-21807.5,2133.1 L-21807.6,2133.07 L-21807.7,2132.98 L-21808,2132.8 L-21808.2,2132.67 L-21808.2,2132.63 L-21808.3,2132.48 L-21808.5,2132.2 L-21808.6,2132.03 L-21808.6,2131.98 L-21808.7,2131.79 L-21808.8,2131.45 L-21808.8,2131.35 L-21808.8,2131.32 L-21808.8,2131.23 L-21808.8,1807.44 L-21812.5,1788.51 L-21823.2,1772.62 L-21839,1762.01 L-21858,1758.24 L-22255.6,1758.24 L-22274.5,1762.01 L-22290.4,1772.62 L-22301,1788.51 L-22304.8,1807.44"/>
</g>

<g fill="none" stroke="#000000" stroke-opacity="1" stroke-width="1" stroke-linecap="square" stroke-linejoin="bevel" transform="matrix(0.999766,0,0,-0.999766,22300.1,3421.94)"
font-family="MS Shell Dlg 2" font-size="10.3125" font-weight="400" font-style="normal" 
>
</g>

<g fill="none" stroke="#000000" stroke-opacity="1" stroke-width="1" stroke-linecap="square" stroke-linejoin="bevel" transform="matrix(0.999766,0,0,-0.999766,22300.1,3421.94)"
font-family="MS Shell Dlg 2" font-size="10.3125" font-weight="400" font-style="normal" 
>
</g>

<g fill="#ae5151" fill-opacity="0.2" stroke="#333333" stroke-opacity="1" stroke-width="1" stroke-linecap="round" stroke-linejoin="round" transform="matrix(0.999766,0,0,-0.999766,22300.1,3421.94)"
font-family="MS Shell Dlg 2" font-size="10.3125" font-weight="400" font-style="normal" 
>
<path vector-effect="non-scaling-stroke" fill-rule="evenodd" d="M-22304.8,1807.44 L-22304.8,3305.04 L-22301,3323.98 L-22290.4,3339.86 L-22274.5,3350.48 L-22255.6,3354.24 L-21858,3354.24 L-21839,3350.48 L-21823.2,3339.86 L-21812.5,3323.98 L-21808.8,3305.04 L-21808.8,2981.26 L-21808.8,2981.16 L-21808.8,2981.13 L-21808.8,2981.03 L-21808.7,2980.69 L-21808.6,2980.51 L-21808.6,2980.45 L-21808.5,2980.28 L-21808.3,2980 L-21808.2,2979.85 L-21808.2,2979.81 L-21808,2979.69 L-21807.7,2979.5 L-21807.6,2979.41 L-21807.5,2979.39 L-21807.3,2979.33 L-21807,2979.26 L-21806.9,2979.25 L-21806.9,2979.25 L-21806.8,2979.24 L-21406.8,2979.24 L-21406.7,2979.25 L-21406.7,2979.25 L-21406.6,2979.26 L-21406.2,2979.33 L-21406,2979.39 L-21406,2979.41 L-21405.8,2979.5 L-21405.5,2979.69 L-21405.4,2979.81 L-21405.4,2979.85 L-21405.2,2980 L-21405,2980.28 L-21405,2980.45 L-21404.9,2980.51 L-21404.9,2980.69 L-21404.8,2981.03 L-21404.8,2981.13 L-21404.8,2981.16 L-21404.8,2981.26 L-21404.8,3372.54 L-21401,3391.48 L-21390.4,3407.36 L-21374.5,3417.98 L-21355.6,3421.74 L-20994.5,3421.74 L-20994.5,3421.74 L-20994.5,3421.74 L-20994.5,3421.74 L-20994.4,3421.75 L-20994.3,3421.75 L-20994.3,3421.75 L-20994.3,3421.75 L-20994,3421.78 L-20779,3421.74 L-20760,3417.97 L-20744.1,3407.34 L-20734.1,3392.3 L-20734,3392.22 L-20734,3392.2 L-20734,3392.12 L-20733.7,3391.88 L-20733.6,3391.76 L-20733.5,3391.72 L-20733.3,3391.63 L-20733,3391.5 L-20732.9,3391.46 L-20732.9,3391.46 L-20732.8,3391.43 L-19943.4,3230.35 L-19939.4,3228.61 L-20452.4,1485.33 L-20459.8,1486.98 L-20798.9,1644.89 L-20814,1655.79 L-20823.9,1671.33 L-20827.3,1689.07 L-20827.3,1689.15 L-20827.3,1689.18 L-20827.4,1689.26 L-20827.5,1689.55 L-20827.6,1689.7 L-20827.6,1689.75 L-20827.7,1689.89 L-20827.9,1690.11 L-20828,1690.23 L-20828,1690.26 L-20828.2,1690.36 L-20828.4,1690.5 L-20828.6,1690.58 L-20828.6,1690.59 L-20828.8,1690.64 L-20829.1,1690.69 L-20829.2,1690.7 L-20829.2,1690.7 L-20829.3,1690.71 L-20995.6,1690.74 L-20995.9,1690.74 L-21355.6,1690.74 L-21374.5,1694.51 L-21390.4,1705.12 L-21401,1721.01 L-21404.8,1739.94 L-21404.8,2131.23 L-21404.8,2131.32 L-21404.8,2131.35 L-21404.8,2131.45 L-21404.9,2131.79 L-21404.9,2131.98 L-21405,2132.03 L-21405,2132.2 L-21405.2,2132.48 L-21405.4,2132.63 L-21405.4,2132.67 L-21405.5,2132.8 L-21405.8,2132.98 L-21406,2133.07 L-21406,2133.1 L-21406.2,2133.15 L-21406.6,2133.22 L-21406.7,2133.23 L-21406.7,2133.24 L-21406.8,2133.24 L-21806.8,2133.24 L-21806.9,2133.24 L-21806.9,2133.23 L-21807,2133.22 L-21807.3,2133.15 L-21807.5,2133.1 L-21807.6,2133.07 L-21807.7,2132.98 L-21808,2132.8 L-21808.2,2132.67 L-21808.2,2132.63 L-21808.3,2132.48 L-21808.5,2132.2 L-21808.6,2132.03 L-21808.6,2131.98 L-21808.7,2131.79 L-21808.8,2131.45 L-21808.8,2131.35 L-21808.8,2131.32 L-21808.8,2131.23 L-21808.8,1807.44 L-21812.5,1788.51 L-21823.2,1772.62 L-21839,1762.01 L-21858,1758.24 L-22255.6,1758.24 L-22274.5,1762.01 L-22290.4,1772.62 L-22301,1788.51 L-22304.8,1807.44"/>
</g>

<g fill="none" stroke="#000000" stroke-opacity="1" stroke-width="1" stroke-linecap="square" stroke-linejoin="bevel" transform="matrix(0.999766,0,0,-0.999766,22300.1,3421.94)"
font-family="MS Shell Dlg 2" font-size="10.3125" font-weight="400" font-style="normal" 
>
</g>

<g fill="none" stroke="#000000" stroke-opacity="1" stroke-width="1" stroke-linecap="square" stroke-linejoin="bevel" transform="matrix(0.999766,0,0,-0.999766,22300.1,3421.94)"
font-family="MS Shell Dlg 2" font-size="10.3125" font-weight="400" font-style="normal" 
>
</g>

<g fill="#ffff00" fill-opacity="0.2" stroke="#333333" stroke-opacity="1" stroke-width="1" stroke-linecap="round" stroke-linejoin="round" transform="matrix(0.999766,0,0,-0.999766,22300.1,3421.94)"
font-family="MS Shell Dlg 2" font-size="10.3125" font-weight="400" font-style="normal" 
>
<path vector-effect="non-scaling-stroke" fill-rule="evenodd" d="M-22304.8,1807.44 L-22304.8,3305.04 L-22301,3323.98 L-22290.4,3339.86 L-22274.5,3350.48 L-22255.6,3354.24 L-21858,3354.24 L-21839,3350.48 L-21823.2,3339.86 L-21812.5,3323.98 L-21808.8,3305.04 L-21808.8,2981.26 L-21808.8,2981.16 L-21808.8,2981.13 L-21808.8,2981.03 L-21808.7,2980.69 L-21808.6,2980.51 L-21808.6,2980.45 L-21808.5,2980.28 L-21808.3,2980 L-21808.2,2979.85 L-21808.2,2979.81 L-21808,2979.69 L-21807.7,2979.5 L-21807.6,2979.41 L-21807.5,2979.39 L-21807.3,2979.33 L-21807,2979.26 L-21806.9,2979.25 L-21806.9,2979.25 L-21806.8,2979.24 L-21406.8,2979.24 L-21406.7,2979.25 L-21406.7,2979.25 L-21406.6,2979.26 L-21406.2,2979.33 L-21406,2979.39 L-21406,2979.41 L-21405.8,2979.5 L-21405.5,2979.69 L-21405.4,2979.81 L-21405.4,2979.85 L-21405.2,2980 L-21405,2980.28 L-21405,2980.45 L-21404.9,2980.51 L-21404.9,2980.69 L-21404.8,2981.03 L-21404.8,2981.13 L-21404.8,2981.16 L-21404.8,2981.26 L-21404.8,3372.54 L-21401,3391.48 L-21390.4,3407.36 L-21374.5,3417.98 L-21355.6,3421.74 L-20994.5,3421.74 L-20994.5,3421.74 L-20994.5,3421.74 L-20994.5,3421.74 L-20994.4,3421.75 L-20994.3,3421.75 L-20994.3,3421.75 L-20994.3,3421.75 L-20994,3421.78 L-20779,3421.74 L-20760,3417.97 L-20744.1,3407.34 L-20734.1,3392.3 L-20734,3392.22 L-20734,3392.2 L-20734,3392.12 L-20733.7,3391.88 L-20733.6,3391.76 L-20733.5,3391.72 L-20733.3,3391.63 L-20733,3391.5 L-20732.9,3391.46 L-20732.9,3391.46 L-20732.8,3391.43 L-19943.4,3230.35 L-19939.4,3228.61 L-20452.4,1485.33 L-20459.8,1486.98 L-20798.9,1644.89 L-20814,1655.79 L-20823.9,1671.33 L-20827.3,1689.07 L-20827.3,1689.15 L-20827.3,1689.18 L-20827.4,1689.26 L-20827.5,1689.55 L-20827.6,1689.7 L-20827.6,1689.75 L-20827.7,1689.89 L-20827.9,1690.11 L-20828,1690.23 L-20828,1690.26 L-20828.2,1690.36 L-20828.4,1690.5 L-20828.6,1690.58 L-20828.6,1690.59 L-20828.8,1690.64 L-20829.1,1690.69 L-20829.2,1690.7 L-20829.2,1690.7 L-20829.3,1690.71 L-20995.6,1690.74 L-20995.9,1690.74 L-21355.6,1690.74 L-21374.5,1694.51 L-21390.4,1705.12 L-21401,1721.01 L-21404.8,1739.94 L-21404.8,2131.23 L-21404.8,2131.32 L-21404.8,2131.35 L-21404.8,2131.45 L-21404.9,2131.79 L-21404.9,2131.98 L-21405,2132.03 L-21405,2132.2 L-21405.2,2132.48 L-21405.4,2132.63 L-21405.4,2132.67 L-21405.5,2132.8 L-21405.8,2132.98 L-21406,2133.07 L-21406,2133.1 L-21406.2,2133.15 L-21406.6,2133.22 L-21406.7,2133.23 L-21406.7,2133.24 L-21406.8,2133.24 L-21806.8,2133.24 L-21806.9,2133.24 L-21806.9,2133.23 L-21807,2133.22 L-21807.3,2133.15 L-21807.5,2133.1 L-21807.6,2133.07 L-21807.7,2132.98 L-21808,2132.8 L-21808.2,2132.67 L-21808.2,2132.63 L-21808.3,2132.48 L-21808.5,2132.2 L-21808.6,2132.03 L-21808.6,2131.98 L-21808.7,2131.79 L-21808.8,2131.45 L-21808.8,2131.35 L-21808.8,2131.32 L-21808.8,2131.23 L-21808.8,1807.44 L-21812.5,1788.51 L-21823.2,1772.62 L-21839,1762.01 L-21858,1758.24 L-22255.6,1758.24 L-22274.5,1762.01 L-22290.4,1772.62 L-22301,1788.51 L-22304.8,1807.44"/>
</g>

<g fill="none" stroke="#000000" stroke-opacity="1" stroke-width="1" stroke-linecap="square" stroke-linejoin="bevel" transform="matrix(0.999766,0,0,-0.999766,22300.1,3421.94)"
font-family="MS Shell Dlg 2" font-size="10.3125" font-weight="400" font-style="normal" 
>
</g>

<g fill="none" stroke="#000000" stroke-opacity="1" stroke-width="1" stroke-linecap="square" stroke-linejoin="bevel" transform="matrix(0.999766,0,0,-0.999766,22300.1,3421.94)"
font-family="MS Shell Dlg 2" font-size="10.3125" font-weight="400" font-style="normal" 
>
</g>

<g fill="#ae5151" fill-opacity="0.2" stroke="#333333" stroke-opacity="1" stroke-width="1" stroke-linecap="round" stroke-linejoin="round" transform="matrix(0.999766,0,0,-0.999766,22300.1,3421.94)"
font-family="MS Shell Dlg 2" font-size="10.3125" font-weight="400" font-style="normal" 
>
<path vector-effect="non-scaling-stroke" fill-rule="evenodd" d="M-22304.8,1807.44 L-22304.8,3305.04 L-22301,3323.98 L-22290.4,3339.86 L-22274.5,3350.48 L-22255.6,3354.24 L-21858,3354.24 L-21839,3350.48 L-21823.2,3339.86 L-21812.5,3323.98 L-21808.8,3305.04 L-21808.8,2981.26 L-21808.8,2981.16 L-21808.8,2981.13 L-21808.8,2981.03 L-21808.7,2980.69 L-21808.6,2980.51 L-21808.6,2980.45 L-21808.5,2980.28 L-21808.3,2980 L-21808.2,2979.85 L-21808.2,2979.81 L-21808,2979.69 L-21807.7,2979.5 L-21807.6,2979.41 L-21807.5,2979.39 L-21807.3,2979.33 L-21807,2979.26 L-21806.9,2979.25 L-21806.9,2979.25 L-21806.8,2979.24 L-21406.8,2979.24 L-21406.7,2979.25 L-21406.7,2979.25 L-21406.6,2979.26 L-21406.2,2979.33 L-21406,2979.39 L-21406,2979.41 L-21405.8,2979.5 L-21405.5,2979.69 L-21405.4,2979.81 L-21405.4,2979.85 L-21405.2,2980 L-21405,2980.28 L-21405,2980.45 L-21404.9,2980.51 L-21404.9,2980.69 L-21404.8,2981.03 L-21404.8,2981.13 L-21404.8,2981.16 L-21404.8,2981.26 L-21404.8,3372.54 L-21401,3391.48 L-21390.4,3407.36 L-21374.5,3417.98 L-21355.6,3421.74 L-20994.5,3421.74 L-20994.5,3421.74 L-20994.5,3421.74 L-20994.5,3421.74 L-20994.4,3421.75 L-20994.3,3421.75 L-20994.3,3421.75 L-20994.3,3421.75 L-20994,3421.78 L-20779,3421.74 L-20760,3417.97 L-20744.1,3407.34 L-20734.1,3392.3 L-20734,3392.22 L-20734,3392.2 L-20734,3392.12 L-20733.7,3391.88 L-20733.6,3391.76 L-20733.5,3391.72 L-20733.3,3391.63 L-20733,3391.5 L-20732.9,3391.46 L-20732.9,3391.46 L-20732.8,3391.43 L-19943.4,3230.35 L-19939.4,3228.61 L-20452.4,1485.33 L-20459.8,1486.98 L-20798.9,1644.89 L-20814,1655.79 L-20823.9,1671.33 L-20827.3,1689.07 L-20827.3,1689.15 L-20827.3,1689.18 L-20827.4,1689.26 L-20827.5,1689.55 L-20827.6,1689.7 L-20827.6,1689.75 L-20827.7,1689.89 L-20827.9,1690.11 L-20828,1690.23 L-20828,1690.26 L-20828.2,1690.36 L-20828.4,1690.5 L-20828.6,1690.58 L-20828.6,1690.59 L-20828.8,1690.64 L-20829.1,1690.69 L-20829.2,1690.7 L-20829.2,1690.7 L-20829.3,1690.71 L-20995.6,1690.74 L-20995.9,1690.74 L-21355.6,1690.74 L-21374.5,1694.51 L-21390.4,1705.12 L-21401,1721.01 L-21404.8,1739.94 L-21404.8,2131.23 L-21404.8,2131.32 L-21404.8,2131.35 L-21404.8,2131.45 L-21404.9,2131.79 L-21404.9,2131.98 L-21405,2132.03 L-21405,2132.2 L-21405.2,2132.48 L-21405.4,2132.63 L-21405.4,2132.67 L-21405.5,2132.8 L-21405.8,2132.98 L-21406,2133.07 L-21406,2133.1 L-21406.2,2133.15 L-21406.6,2133.22 L-21406.7,2133.23 L-21406.7,2133.24 L-21406.8,2133.24 L-21806.8,2133.24 L-21806.9,2133.24 L-21806.9,2133.23 L-21807,2133.22 L-21807.3,2133.15 L-21807.5,2133.1 L-21807.6,2133.07 L-21807.7,2132.98 L-21808,2132.8 L-21808.2,2132.67 L-21808.2,2132.63 L-21808.3,2132.48 L-21808.5,2132.2 L-21808.6,2132.03 L-21808.6,2131.98 L-21808.7,2131.79 L-21808.8,2131.45 L-21808.8,2131.35 L-21808.8,2131.32 L-21808.8,2131.23 L-21808.8,1807.44 L-21812.5,1788.51 L-21823.2,1772.62 L-21839,1762.01 L-21858,1758.24 L-22255.6,1758.24 L-22274.5,1762.01 L-22290.4,1772.62 L-22301,1788.51 L-22304.8,1807.44"/>
</g>

<g fill="none" stroke="#000000" stroke-opacity="1" stroke-width="1" stroke-linecap="square" stroke-linejoin="bevel" transform="matrix(0.999766,0,0,-0.999766,22300.1,3421.94)"
font-family="MS Shell Dlg 2" font-size="10.3125" font-weight="400" font-style="normal" 
>
</g>

<g fill="none" stroke="#000000" stroke-opacity="1" stroke-width="1" stroke-linecap="square" stroke-linejoin="bevel" transform="matrix(0.999766,0,0,-0.999766,22300.1,3421.94)"
font-family="MS Shell Dlg 2" font-size="10.3125" font-weight="400" font-style="normal" 
>
</g>

<g fill="#333333" fill-opacity="0.2" stroke="#333333" stroke-opacity="1" stroke-width="1" stroke-linecap="round" stroke-linejoin="round" transform="matrix(0.999766,0,0,-0.999766,22300.1,3421.94)"
font-family="MS Shell Dlg 2" font-size="10.3125" font-weight="400" font-style="normal" 
>
<path vector-effect="non-scaling-stroke" fill-rule="evenodd" d="M-22304.8,1807.44 L-22304.8,3305.04 L-22301,3323.98 L-22290.4,3339.86 L-22274.5,3350.48 L-22255.6,3354.24 L-21858,3354.24 L-21839,3350.48 L-21823.2,3339.86 L-21812.5,3323.98 L-21808.8,3305.04 L-21808.8,2981.26 L-21808.8,2981.16 L-21808.8,2981.13 L-21808.8,2981.03 L-21808.7,2980.69 L-21808.6,2980.51 L-21808.6,2980.45 L-21808.5,2980.28 L-21808.3,2980 L-21808.2,2979.85 L-21808.2,2979.81 L-21808,2979.69 L-21807.7,2979.5 L-21807.6,2979.41 L-21807.5,2979.39 L-21807.3,2979.33 L-21807,2979.26 L-21806.9,2979.25 L-21806.9,2979.25 L-21806.8,2979.24 L-21406.8,2979.24 L-21406.7,2979.25 L-21406.7,2979.25 L-21406.6,2979.26 L-21406.2,2979.33 L-21406,2979.39 L-21406,2979.41 L-21405.8,2979.5 L-21405.5,2979.69 L-21405.4,2979.81 L-21405.4,2979.85 L-21405.2,2980 L-21405,2980.28 L-21405,2980.45 L-21404.9,2980.51 L-21404.9,2980.69 L-21404.8,2981.03 L-21404.8,2981.13 L-21404.8,2981.16 L-21404.8,2981.26 L-21404.8,3372.54 L-21401,3391.48 L-21390.4,3407.36 L-21374.5,3417.98 L-21355.6,3421.74 L-20994.5,3421.74 L-20994.5,3421.74 L-20994.5,3421.74 L-20994.5,3421.74 L-20994.4,3421.75 L-20994.3,3421.75 L-20994.3,3421.75 L-20994.3,3421.75 L-20994,3421.78 L-20779,3421.74 L-20760,3417.97 L-20744.1,3407.34 L-20734.1,3392.3 L-20734,3392.22 L-20734,3392.2 L-20734,3392.12 L-20733.7,3391.88 L-20733.6,3391.76 L-20733.5,3391.72 L-20733.3,3391.63 L-20733,3391.5 L-20732.9,3391.46 L-20732.9,3391.46 L-20732.8,3391.43 L-19943.4,3230.35 L-19939.4,3228.61 L-20452.4,1485.33 L-20459.8,1486.98 L-20798.9,1644.89 L-20814,1655.79 L-20823.9,1671.33 L-20827.3,1689.07 L-20827.3,1689.15 L-20827.3,1689.18 L-20827.4,1689.26 L-20827.5,1689.55 L-20827.6,1689.7 L-20827.6,1689.75 L-20827.7,1689.89 L-20827.9,1690.11 L-20828,1690.23 L-20828,1690.26 L-20828.2,1690.36 L-20828.4,1690.5 L-20828.6,1690.58 L-20828.6,1690.59 L-20828.8,1690.64 L-20829.1,1690.69 L-20829.2,1690.7 L-20829.2,1690.7 L-20829.3,1690.71 L-20995.6,1690.74 L-20995.9,1690.74 L-21355.6,1690.74 L-21374.5,1694.51 L-21390.4,1705.12 L-21401,1721.01 L-21404.8,1739.94 L-21404.8,2131.23 L-21404.8,2131.32 L-21404.8,2131.35 L-21404.8,2131.45 L-21404.9,2131.79 L-21404.9,2131.98 L-21405,2132.03 L-21405,2132.2 L-21405.2,2132.48 L-21405.4,2132.63 L-21405.4,2132.67 L-21405.5,2132.8 L-21405.8,2132.98 L-21406,2133.07 L-21406,2133.1 L-21406.2,2133.15 L-21406.6,2133.22 L-21406.7,2133.23 L-21406.7,2133.24 L-21406.8,2133.24 L-21806.8,2133.24 L-21806.9,2133.24 L-21806.9,2133.23 L-21807,2133.22 L-21807.3,2133.15 L-21807.5,2133.1 L-21807.6,2133.07 L-21807.7,2132.98 L-21808,2132.8 L-21808.2,2132.67 L-21808.2,2132.63 L-21808.3,2132.48 L-21808.5,2132.2 L-21808.6,2132.03 L-21808.6,2131.98 L-21808.7,2131.79 L-21808.8,2131.45 L-21808.8,2131.35 L-21808.8,2131.32 L-21808.8,2131.23 L-21808.8,1807.44 L-21812.5,1788.51 L-21823.2,1772.62 L-21839,1762.01 L-21858,1758.24 L-22255.6,1758.24 L-22274.5,1762.01 L-22290.4,1772.62 L-22301,1788.51 L-22304.8,1807.44"/>
</g>

<g fill="none" stroke="#000000" stroke-opacity="1" stroke-width="1" stroke-linecap="square" stroke-linejoin="bevel" transform="matrix(0.999766,0,0,-0.999766,22300.1,3421.94)"
font-family="MS Shell Dlg 2" font-size="10.3125" font-weight="400" font-style="normal" 
>
</g>

<g fill="none" stroke="#000000" stroke-opacity="1" stroke-width="1" stroke-linecap="square" stroke-linejoin="bevel" transform="matrix(1,0,0,-1,0,1937.45)"
font-family="MS Shell Dlg 2" font-size="10.3125" font-weight="400" font-style="normal" 
>
</g>
</g>
</svg>
