<?xml version="1.0" encoding="UTF-8" standalone="no"?>
<svg width="2246.21mm" height="1459.65mm"
 xmlns="http://www.w3.org/2000/svg" xmlns:xlink="http://www.w3.org/1999/xlink"  version="1.2" baseProfile="tiny">
<title>SVG Generator Example Drawing</title>
<desc>An SVG drawing created by the SVG Generator</desc>
<defs>
</defs>
<g fill="none" stroke="black" stroke-width="1" fill-rule="evenodd" stroke-linecap="square" stroke-linejoin="bevel" >

<g fill="none" stroke="#000000" stroke-opacity="1" stroke-width="1" stroke-linecap="square" stroke-linejoin="bevel" transform="matrix(1,0,0,-1,0,5172.1)"
font-family="MS Shell Dlg 2" font-size="10.3125" font-weight="400" font-style="normal" 
>
</g>

<g fill="none" stroke="#000000" stroke-opacity="1" stroke-width="1" stroke-linecap="square" stroke-linejoin="bevel" transform="matrix(1,0,0,-1,0,5172.1)"
font-family="MS Shell Dlg 2" font-size="10.3125" font-weight="400" font-style="normal" 
>
</g>

<g fill="none" stroke="#000000" stroke-opacity="1" stroke-width="1" stroke-linecap="square" stroke-linejoin="bevel" transform="matrix(0.99998,0,0,-0.99998,21272.8,-3117.21)"
font-family="MS Shell Dlg 2" font-size="10.3125" font-weight="400" font-style="normal" 
>
</g>

<g fill="#333333" fill-opacity="0.2" stroke="#333333" stroke-opacity="1" stroke-width="1" stroke-linecap="round" stroke-linejoin="round" transform="matrix(0.99998,0,0,-0.99998,21272.8,-3117.21)"
font-family="MS Shell Dlg 2" font-size="10.3125" font-weight="400" font-style="normal" 
>
<path vector-effect="non-scaling-stroke" fill-rule="evenodd" d="M-21272.7,-3270.15 L-19293.2,-3117.87 L-18971.6,-5333.12 L-18971.6,-5333.22 L-18971.6,-5333.26 L-18971.6,-5333.36 L-18971.4,-5333.71 L-18971.3,-5333.9 L-18971.3,-5333.95 L-18971.2,-5334.12 L-18970.9,-5334.39 L-18970.8,-5334.46 L-18970.8,-5334.48 L-18970.7,-5334.54 L-17955.6,-5985.23 L-17955.6,-5985.27 L-17955.6,-5985.28 L-17955.5,-5985.3 L-17955.3,-5985.4 L-17955.2,-5985.43 L-17955.2,-5985.44 L-17955.2,-5985.46 L-16325,-6520.19 L-16324.9,-6520.21 L-16324.9,-6520.22 L-16324.8,-6520.23 L-16324.5,-6520.28 L-16324.3,-6520.29 L-16324.3,-6520.29 L-16324.1,-6520.27 L-16323.8,-6520.2 L-16323.7,-6520.18 L-16323.7,-6520.18 L-16323.6,-6520.15 L-15403,-6157.58 L-15402.9,-6157.54 L-15402.9,-6157.52 L-15402.8,-6157.47 L-15402.5,-6157.26 L-15402.4,-6157.2 L-15402.3,-6157.18 L-15402.3,-6157.11 L-14688.2,-5443.2 L-14685.7,-5440.83 L-14096.4,-4928.57 L-13314.6,-4933.33 L-13401.8,-8288.98 L-17977.8,-8288.98 L-18004,-8281.52 L-20300.7,-6862.55 L-20317.7,-6845.06 L-21186.9,-5342.79 L-21193.5,-5319.69 L-21272.7,-3270.15"/>
</g>

<g fill="none" stroke="#000000" stroke-opacity="1" stroke-width="1" stroke-linecap="square" stroke-linejoin="bevel" transform="matrix(0.99998,0,0,-0.99998,21272.8,-3117.21)"
font-family="MS Shell Dlg 2" font-size="10.3125" font-weight="400" font-style="normal" 
>
</g>

<g fill="none" stroke="#000000" stroke-opacity="1" stroke-width="1" stroke-linecap="square" stroke-linejoin="bevel" transform="matrix(0.99998,0,0,-0.99998,21272.8,-3117.21)"
font-family="MS Shell Dlg 2" font-size="10.3125" font-weight="400" font-style="normal" 
>
</g>

<g fill="#ae5151" fill-opacity="0.2" stroke="#333333" stroke-opacity="1" stroke-width="1" stroke-linecap="round" stroke-linejoin="round" transform="matrix(0.99998,0,0,-0.99998,21272.8,-3117.21)"
font-family="MS Shell Dlg 2" font-size="10.3125" font-weight="400" font-style="normal" 
>
<path vector-effect="non-scaling-stroke" fill-rule="evenodd" d="M-21272.7,-3270.15 L-19293.2,-3117.87 L-18971.6,-5333.12 L-18971.6,-5333.22 L-18971.6,-5333.26 L-18971.6,-5333.36 L-18971.4,-5333.71 L-18971.3,-5333.9 L-18971.3,-5333.95 L-18971.2,-5334.12 L-18970.9,-5334.39 L-18970.8,-5334.46 L-18970.8,-5334.48 L-18970.7,-5334.54 L-17955.6,-5985.23 L-17955.6,-5985.27 L-17955.6,-5985.28 L-17955.5,-5985.3 L-17955.3,-5985.4 L-17955.2,-5985.43 L-17955.2,-5985.44 L-17955.2,-5985.46 L-16325,-6520.19 L-16324.9,-6520.21 L-16324.9,-6520.22 L-16324.8,-6520.23 L-16324.5,-6520.28 L-16324.3,-6520.29 L-16324.3,-6520.29 L-16324.1,-6520.27 L-16323.8,-6520.2 L-16323.7,-6520.18 L-16323.7,-6520.18 L-16323.6,-6520.15 L-15403,-6157.58 L-15402.9,-6157.54 L-15402.9,-6157.52 L-15402.8,-6157.47 L-15402.5,-6157.26 L-15402.4,-6157.2 L-15402.3,-6157.18 L-15402.3,-6157.11 L-14688.2,-5443.2 L-14685.7,-5440.83 L-14096.4,-4928.57 L-13314.6,-4933.33 L-13401.8,-8288.98 L-17977.8,-8288.98 L-18004,-8281.52 L-20300.7,-6862.55 L-20317.7,-6845.06 L-21186.9,-5342.79 L-21193.5,-5319.69 L-21272.7,-3270.15"/>
</g>

<g fill="none" stroke="#000000" stroke-opacity="1" stroke-width="1" stroke-linecap="square" stroke-linejoin="bevel" transform="matrix(0.99998,0,0,-0.99998,21272.8,-3117.21)"
font-family="MS Shell Dlg 2" font-size="10.3125" font-weight="400" font-style="normal" 
>
</g>

<g fill="none" stroke="#000000" stroke-opacity="1" stroke-width="1" stroke-linecap="square" stroke-linejoin="bevel" transform="matrix(0.99998,0,0,-0.99998,21272.8,-3117.21)"
font-family="MS Shell Dlg 2" font-size="10.3125" font-weight="400" font-style="normal" 
>
</g>

<g fill="#ffff00" fill-opacity="0.2" stroke="#333333" stroke-opacity="1" stroke-width="1" stroke-linecap="round" stroke-linejoin="round" transform="matrix(0.99998,0,0,-0.99998,21272.8,-3117.21)"
font-family="MS Shell Dlg 2" font-size="10.3125" font-weight="400" font-style="normal" 
>
<path vector-effect="non-scaling-stroke" fill-rule="evenodd" d="M-21272.7,-3270.15 L-19293.2,-3117.87 L-18971.6,-5333.12 L-18971.6,-5333.22 L-18971.6,-5333.26 L-18971.6,-5333.36 L-18971.4,-5333.71 L-18971.3,-5333.9 L-18971.3,-5333.95 L-18971.2,-5334.12 L-18970.9,-5334.39 L-18970.8,-5334.46 L-18970.8,-5334.48 L-18970.7,-5334.54 L-17955.6,-5985.23 L-17955.6,-5985.27 L-17955.6,-5985.28 L-17955.5,-5985.3 L-17955.3,-5985.4 L-17955.2,-5985.43 L-17955.2,-5985.44 L-17955.2,-5985.46 L-16325,-6520.19 L-16324.9,-6520.21 L-16324.9,-6520.22 L-16324.8,-6520.23 L-16324.5,-6520.28 L-16324.3,-6520.29 L-16324.3,-6520.29 L-16324.1,-6520.27 L-16323.8,-6520.2 L-16323.7,-6520.18 L-16323.7,-6520.18 L-16323.6,-6520.15 L-15403,-6157.58 L-15402.9,-6157.54 L-15402.9,-6157.52 L-15402.8,-6157.47 L-15402.5,-6157.26 L-15402.4,-6157.2 L-15402.3,-6157.18 L-15402.3,-6157.11 L-14688.2,-5443.2 L-14685.7,-5440.83 L-14096.4,-4928.57 L-13314.6,-4933.33 L-13401.8,-8288.98 L-17977.8,-8288.98 L-18004,-8281.52 L-20300.7,-6862.55 L-20317.7,-6845.06 L-21186.9,-5342.79 L-21193.5,-5319.69 L-21272.7,-3270.15"/>
</g>

<g fill="none" stroke="#000000" stroke-opacity="1" stroke-width="1" stroke-linecap="square" stroke-linejoin="bevel" transform="matrix(0.99998,0,0,-0.99998,21272.8,-3117.21)"
font-family="MS Shell Dlg 2" font-size="10.3125" font-weight="400" font-style="normal" 
>
</g>

<g fill="none" stroke="#000000" stroke-opacity="1" stroke-width="1" stroke-linecap="square" stroke-linejoin="bevel" transform="matrix(0.99998,0,0,-0.99998,21272.8,-3117.21)"
font-family="MS Shell Dlg 2" font-size="10.3125" font-weight="400" font-style="normal" 
>
</g>

<g fill="#ae5151" fill-opacity="0.2" stroke="#333333" stroke-opacity="1" stroke-width="1" stroke-linecap="round" stroke-linejoin="round" transform="matrix(0.99998,0,0,-0.99998,21272.8,-3117.21)"
font-family="MS Shell Dlg 2" font-size="10.3125" font-weight="400" font-style="normal" 
>
<path vector-effect="non-scaling-stroke" fill-rule="evenodd" d="M-21272.7,-3270.15 L-19293.2,-3117.87 L-18971.6,-5333.12 L-18971.6,-5333.22 L-18971.6,-5333.26 L-18971.6,-5333.36 L-18971.4,-5333.71 L-18971.3,-5333.9 L-18971.3,-5333.95 L-18971.2,-5334.12 L-18970.9,-5334.39 L-18970.8,-5334.46 L-18970.8,-5334.48 L-18970.7,-5334.54 L-17955.6,-5985.23 L-17955.6,-5985.27 L-17955.6,-5985.28 L-17955.5,-5985.3 L-17955.3,-5985.4 L-17955.2,-5985.43 L-17955.2,-5985.44 L-17955.2,-5985.46 L-16325,-6520.19 L-16324.9,-6520.21 L-16324.9,-6520.22 L-16324.8,-6520.23 L-16324.5,-6520.28 L-16324.3,-6520.29 L-16324.3,-6520.29 L-16324.1,-6520.27 L-16323.8,-6520.2 L-16323.7,-6520.18 L-16323.7,-6520.18 L-16323.6,-6520.15 L-15403,-6157.58 L-15402.9,-6157.54 L-15402.9,-6157.52 L-15402.8,-6157.47 L-15402.5,-6157.26 L-15402.4,-6157.2 L-15402.3,-6157.18 L-15402.3,-6157.11 L-14688.2,-5443.2 L-14685.7,-5440.83 L-14096.4,-4928.57 L-13314.6,-4933.33 L-13401.8,-8288.98 L-17977.8,-8288.98 L-18004,-8281.52 L-20300.7,-6862.55 L-20317.7,-6845.06 L-21186.9,-5342.79 L-21193.5,-5319.69 L-21272.7,-3270.15"/>
</g>

<g fill="none" stroke="#000000" stroke-opacity="1" stroke-width="1" stroke-linecap="square" stroke-linejoin="bevel" transform="matrix(0.99998,0,0,-0.99998,21272.8,-3117.21)"
font-family="MS Shell Dlg 2" font-size="10.3125" font-weight="400" font-style="normal" 
>
</g>

<g fill="none" stroke="#000000" stroke-opacity="1" stroke-width="1" stroke-linecap="square" stroke-linejoin="bevel" transform="matrix(0.99998,0,0,-0.99998,21272.8,-3117.21)"
font-family="MS Shell Dlg 2" font-size="10.3125" font-weight="400" font-style="normal" 
>
</g>

<g fill="#333333" fill-opacity="0.2" stroke="#333333" stroke-opacity="1" stroke-width="1" stroke-linecap="round" stroke-linejoin="round" transform="matrix(0.99998,0,0,-0.99998,21272.8,-3117.21)"
font-family="MS Shell Dlg 2" font-size="10.3125" font-weight="400" font-style="normal" 
>
<path vector-effect="non-scaling-stroke" fill-rule="evenodd" d="M-21272.7,-3270.15 L-19293.2,-3117.87 L-18971.6,-5333.12 L-18971.6,-5333.22 L-18971.6,-5333.26 L-18971.6,-5333.36 L-18971.4,-5333.71 L-18971.3,-5333.9 L-18971.3,-5333.95 L-18971.2,-5334.12 L-18970.9,-5334.39 L-18970.8,-5334.46 L-18970.8,-5334.48 L-18970.7,-5334.54 L-17955.6,-5985.23 L-17955.6,-5985.27 L-17955.6,-5985.28 L-17955.5,-5985.3 L-17955.3,-5985.4 L-17955.2,-5985.43 L-17955.2,-5985.44 L-17955.2,-5985.46 L-16325,-6520.19 L-16324.9,-6520.21 L-16324.9,-6520.22 L-16324.8,-6520.23 L-16324.5,-6520.28 L-16324.3,-6520.29 L-16324.3,-6520.29 L-16324.1,-6520.27 L-16323.8,-6520.2 L-16323.7,-6520.18 L-16323.7,-6520.18 L-16323.6,-6520.15 L-15403,-6157.58 L-15402.9,-6157.54 L-15402.9,-6157.52 L-15402.8,-6157.47 L-15402.5,-6157.26 L-15402.4,-6157.2 L-15402.3,-6157.18 L-15402.3,-6157.11 L-14688.2,-5443.2 L-14685.7,-5440.83 L-14096.4,-4928.57 L-13314.6,-4933.33 L-13401.8,-8288.98 L-17977.8,-8288.98 L-18004,-8281.52 L-20300.7,-6862.55 L-20317.7,-6845.06 L-21186.9,-5342.79 L-21193.5,-5319.69 L-21272.7,-3270.15"/>
</g>

<g fill="none" stroke="#000000" stroke-opacity="1" stroke-width="1" stroke-linecap="square" stroke-linejoin="bevel" transform="matrix(0.99998,0,0,-0.99998,21272.8,-3117.21)"
font-family="MS Shell Dlg 2" font-size="10.3125" font-weight="400" font-style="normal" 
>
</g>

<g fill="none" stroke="#000000" stroke-opacity="1" stroke-width="1" stroke-linecap="square" stroke-linejoin="bevel" transform="matrix(1,0,0,-1,0,5172.1)"
font-family="MS Shell Dlg 2" font-size="10.3125" font-weight="400" font-style="normal" 
>
</g>
</g>
</svg>
