<?xml version="1.0" encoding="UTF-8" standalone="no"?>
<svg width="74.2244mm" height="488.809mm"
 xmlns="http://www.w3.org/2000/svg" xmlns:xlink="http://www.w3.org/1999/xlink"  version="1.2" baseProfile="tiny">
<title>SVG Generator Example Drawing</title>
<desc>An SVG drawing created by the SVG Generator</desc>
<defs>
</defs>
<g fill="none" stroke="black" stroke-width="1" fill-rule="evenodd" stroke-linecap="square" stroke-linejoin="bevel" >

<g fill="none" stroke="#000000" stroke-opacity="1" stroke-width="1" stroke-linecap="square" stroke-linejoin="bevel" transform="matrix(1,0,0,-1,0,1732.09)"
font-family="MS Shell Dlg 2" font-size="10.3125" font-weight="400" font-style="normal" 
>
</g>

<g fill="none" stroke="#000000" stroke-opacity="1" stroke-width="1" stroke-linecap="square" stroke-linejoin="bevel" transform="matrix(1,0,0,-1,0,1732.09)"
font-family="MS Shell Dlg 2" font-size="10.3125" font-weight="400" font-style="normal" 
>
</g>

<g fill="none" stroke="#000000" stroke-opacity="1" stroke-width="1" stroke-linecap="square" stroke-linejoin="bevel" transform="matrix(0.997723,0,0,-0.997723,20994.5,3418.44)"
font-family="MS Shell Dlg 2" font-size="10.3125" font-weight="400" font-style="normal" 
>
</g>

<g fill="#333333" fill-opacity="0.2" stroke="#333333" stroke-opacity="1" stroke-width="1" stroke-linecap="round" stroke-linejoin="round" transform="matrix(0.997723,0,0,-0.997723,20994.5,3418.44)"
font-family="MS Shell Dlg 2" font-size="10.3125" font-weight="400" font-style="normal" 
>
<path vector-effect="non-scaling-stroke" fill-rule="evenodd" d="M-21041.9,3374.74 L-21038.5,3391.55 L-21027.9,3407.42 L-21012,3418.03 L-20993.1,3421.78 L-20878,3421.76 L-20859,3417.99 L-20843.2,3407.38 L-20832.5,3391.5 L-20829.2,3374.75 L-20876.7,3374.76 L-20876.7,3374.76 L-20876.7,3374.76 L-20877,3374.72 L-20877,3374.71 L-20877.3,3374.55 L-20877.4,3374.53 L-20877.6,3374.25 L-20877.6,3374.22 L-20877.8,3373.88 L-20877.8,3373.84 L-20877.8,3373.65 L-20877.8,2967.45 L-20877.8,2967.27 L-20877.8,2967.22 L-20877.6,2966.88 L-20877.6,2966.85 L-20877.4,2966.58 L-20877.3,2966.56 L-20877,2966.39 L-20877,2966.38 L-20876.7,2966.35 L-20876.7,2966.34 L-20876.7,2966.34 L-20779.3,2966.34 L-20779.6,2552.54 L-20876.7,2552.54 L-20876.7,2552.54 L-20876.7,2552.54 L-20877,2552.5 L-20877,2552.49 L-20877.3,2552.32 L-20877.4,2552.3 L-20877.6,2552.03 L-20877.6,2552 L-20877.8,2551.66 L-20877.8,2551.61 L-20877.8,2551.43 L-20877.8,2154.66 L-20877.8,2154.47 L-20877.8,2154.43 L-20877.6,2154.09 L-20877.6,2154.06 L-20877.4,2153.78 L-20877.3,2153.76 L-20877,2153.6 L-20877,2153.59 L-20876.7,2153.55 L-20876.7,2153.55 L-20876.7,2153.55 L-20780,2153.55 L-20780.4,1690.73 L-20780.6,1690.7 L-20895.6,1690.72 L-20914.5,1694.49 L-20930.4,1705.1 L-20941,1720.99 L-20944.4,1737.73 L-20896.9,1737.72 L-20896.8,1737.72 L-20896.8,1737.72 L-20896.6,1737.76 L-20896.6,1737.77 L-20896.2,1737.94 L-20896.2,1737.96 L-20896,1738.23 L-20895.9,1738.26 L-20895.8,1738.6 L-20895.8,1738.65 L-20895.8,1738.83 L-20895.8,2145.03 L-20895.8,2145.21 L-20895.8,2145.26 L-20895.9,2145.6 L-20896,2145.63 L-20896.2,2145.9 L-20896.2,2145.93 L-20896.6,2146.09 L-20896.6,2146.1 L-20896.8,2146.14 L-20896.8,2146.14 L-20896.9,2146.14 L-20994.4,2146.14 L-20994,2559.95 L-20896.9,2559.95 L-20896.8,2559.95 L-20896.8,2559.95 L-20896.6,2559.98 L-20896.6,2560 L-20896.2,2560.16 L-20896.2,2560.18 L-20896,2560.45 L-20895.9,2560.48 L-20895.8,2560.83 L-20895.8,2560.87 L-20895.8,2561.06 L-20895.8,2957.83 L-20895.8,2958.01 L-20895.8,2958.05 L-20895.9,2958.4 L-20896,2958.43 L-20896.2,2958.7 L-20896.2,2958.72 L-20896.6,2958.89 L-20896.6,2958.9 L-20896.8,2958.93 L-20896.8,2958.94 L-20896.9,2958.94 L-20993.7,2958.94 L-20993.3,3373.63 L-20993.3,3373.83 L-20993.3,3373.87 L-20993.5,3374.23 L-20993.5,3374.27 L-20993.8,3374.54 L-20993.8,3374.56 L-20994.2,3374.71 L-20994.2,3374.72 L-20994.4,3374.74 L-21041.9,3374.74"/>
</g>

<g fill="none" stroke="#000000" stroke-opacity="1" stroke-width="1" stroke-linecap="square" stroke-linejoin="bevel" transform="matrix(0.997723,0,0,-0.997723,20994.5,3418.44)"
font-family="MS Shell Dlg 2" font-size="10.3125" font-weight="400" font-style="normal" 
>
</g>

<g fill="none" stroke="#000000" stroke-opacity="1" stroke-width="1" stroke-linecap="square" stroke-linejoin="bevel" transform="matrix(0.997723,0,0,-0.997723,20994.5,3418.44)"
font-family="MS Shell Dlg 2" font-size="10.3125" font-weight="400" font-style="normal" 
>
</g>

<g fill="#ae5151" fill-opacity="0.2" stroke="#333333" stroke-opacity="1" stroke-width="1" stroke-linecap="round" stroke-linejoin="round" transform="matrix(0.997723,0,0,-0.997723,20994.5,3418.44)"
font-family="MS Shell Dlg 2" font-size="10.3125" font-weight="400" font-style="normal" 
>
<path vector-effect="non-scaling-stroke" fill-rule="evenodd" d="M-21041.9,3374.74 L-21038.5,3391.55 L-21027.9,3407.42 L-21012,3418.03 L-20993.1,3421.78 L-20878,3421.76 L-20859,3417.99 L-20843.2,3407.38 L-20832.5,3391.5 L-20829.2,3374.75 L-20876.7,3374.76 L-20876.7,3374.76 L-20876.7,3374.76 L-20877,3374.72 L-20877,3374.71 L-20877.3,3374.55 L-20877.4,3374.53 L-20877.6,3374.25 L-20877.6,3374.22 L-20877.8,3373.88 L-20877.8,3373.84 L-20877.8,3373.65 L-20877.8,2967.45 L-20877.8,2967.27 L-20877.8,2967.22 L-20877.6,2966.88 L-20877.6,2966.85 L-20877.4,2966.58 L-20877.3,2966.56 L-20877,2966.39 L-20877,2966.38 L-20876.7,2966.35 L-20876.7,2966.34 L-20876.7,2966.34 L-20779.3,2966.34 L-20779.6,2552.54 L-20876.7,2552.54 L-20876.7,2552.54 L-20876.7,2552.54 L-20877,2552.5 L-20877,2552.49 L-20877.3,2552.32 L-20877.4,2552.3 L-20877.6,2552.03 L-20877.6,2552 L-20877.8,2551.66 L-20877.8,2551.61 L-20877.8,2551.43 L-20877.8,2154.66 L-20877.8,2154.47 L-20877.8,2154.43 L-20877.6,2154.09 L-20877.6,2154.06 L-20877.4,2153.78 L-20877.3,2153.76 L-20877,2153.6 L-20877,2153.59 L-20876.7,2153.55 L-20876.7,2153.55 L-20876.7,2153.55 L-20780,2153.55 L-20780.4,1690.73 L-20780.6,1690.7 L-20895.6,1690.72 L-20914.5,1694.49 L-20930.4,1705.1 L-20941,1720.99 L-20944.4,1737.73 L-20896.9,1737.72 L-20896.8,1737.72 L-20896.8,1737.72 L-20896.6,1737.76 L-20896.6,1737.77 L-20896.2,1737.94 L-20896.2,1737.96 L-20896,1738.23 L-20895.9,1738.26 L-20895.8,1738.6 L-20895.8,1738.65 L-20895.8,1738.83 L-20895.8,2145.03 L-20895.8,2145.21 L-20895.8,2145.26 L-20895.9,2145.6 L-20896,2145.63 L-20896.2,2145.9 L-20896.2,2145.93 L-20896.6,2146.09 L-20896.6,2146.1 L-20896.8,2146.14 L-20896.8,2146.14 L-20896.9,2146.14 L-20994.4,2146.14 L-20994,2559.95 L-20896.9,2559.95 L-20896.8,2559.95 L-20896.8,2559.95 L-20896.6,2559.98 L-20896.6,2560 L-20896.2,2560.16 L-20896.2,2560.18 L-20896,2560.45 L-20895.9,2560.48 L-20895.8,2560.83 L-20895.8,2560.87 L-20895.8,2561.06 L-20895.8,2957.83 L-20895.8,2958.01 L-20895.8,2958.05 L-20895.9,2958.4 L-20896,2958.43 L-20896.2,2958.7 L-20896.2,2958.72 L-20896.6,2958.89 L-20896.6,2958.9 L-20896.8,2958.93 L-20896.8,2958.94 L-20896.9,2958.94 L-20993.7,2958.94 L-20993.3,3373.63 L-20993.3,3373.83 L-20993.3,3373.87 L-20993.5,3374.23 L-20993.5,3374.27 L-20993.8,3374.54 L-20993.8,3374.56 L-20994.2,3374.71 L-20994.2,3374.72 L-20994.4,3374.74 L-21041.9,3374.74"/>
</g>

<g fill="none" stroke="#000000" stroke-opacity="1" stroke-width="1" stroke-linecap="square" stroke-linejoin="bevel" transform="matrix(0.997723,0,0,-0.997723,20994.5,3418.44)"
font-family="MS Shell Dlg 2" font-size="10.3125" font-weight="400" font-style="normal" 
>
</g>

<g fill="none" stroke="#000000" stroke-opacity="1" stroke-width="1" stroke-linecap="square" stroke-linejoin="bevel" transform="matrix(1,0,0,-1,0,1732.09)"
font-family="MS Shell Dlg 2" font-size="10.3125" font-weight="400" font-style="normal" 
>
</g>
</g>
</svg>
