<?xml version="1.0" encoding="UTF-8" standalone="no"?>
<svg width="202.636mm" height="305.929mm"
 xmlns="http://www.w3.org/2000/svg" xmlns:xlink="http://www.w3.org/1999/xlink"  version="1.2" baseProfile="tiny">
<title>SVG Generator Example Drawing</title>
<desc>An SVG drawing created by the SVG Generator</desc>
<defs>
</defs>
<g fill="none" stroke="black" stroke-width="1" fill-rule="evenodd" stroke-linecap="square" stroke-linejoin="bevel" >

<g fill="none" stroke="#000000" stroke-opacity="1" stroke-width="1" stroke-linecap="square" stroke-linejoin="bevel" transform="matrix(1,0,0,-1,0,1084.02)"
font-family="MS Shell Dlg 2" font-size="10.3125" font-weight="400" font-style="normal" 
>
</g>

<g fill="none" stroke="#000000" stroke-opacity="1" stroke-width="1" stroke-linecap="square" stroke-linejoin="bevel" transform="matrix(1,0,0,-1,0,1084.02)"
font-family="MS Shell Dlg 2" font-size="10.3125" font-weight="400" font-style="normal" 
>
</g>

<g fill="none" stroke="#000000" stroke-opacity="1" stroke-width="1" stroke-linecap="square" stroke-linejoin="bevel" transform="matrix(0.999504,0,0,-0.999504,17723.3,-4188.04)"
font-family="MS Shell Dlg 2" font-size="10.3125" font-weight="400" font-style="normal" 
>
</g>

<g fill="#333333" fill-opacity="0.2" stroke="#333333" stroke-opacity="1" stroke-width="1" stroke-linecap="round" stroke-linejoin="round" transform="matrix(0.999504,0,0,-0.999504,17723.3,-4188.04)"
font-family="MS Shell Dlg 2" font-size="10.3125" font-weight="400" font-style="normal" 
>
<path vector-effect="non-scaling-stroke" fill-rule="evenodd" d="M-17731.6,-4242.3 L-17728.8,-4222.73 L-17718.6,-4206 L-17702.7,-4194.58 L-17687.5,-4191.16 L-17684.8,-4236.69 L-17684.8,-4236.87 L-17684.8,-4236.92 L-17684.6,-4237.25 L-17684.6,-4237.28 L-17684.5,-4237.42 L-17014.2,-4907.7 L-17014.3,-4907.86 L-17366.2,-5259.73 L-17382.2,-5270.45 L-17401,-5274.18 L-17419.7,-5270.45 L-17435.8,-5259.73 L-17524.6,-5170.92 L-17673.6,-5021.88 L-17683.8,-5007.15 L-17688,-4989.77 L-17731.6,-4242.3"/>
</g>

<g fill="none" stroke="#000000" stroke-opacity="1" stroke-width="1" stroke-linecap="square" stroke-linejoin="bevel" transform="matrix(0.999504,0,0,-0.999504,17723.3,-4188.04)"
font-family="MS Shell Dlg 2" font-size="10.3125" font-weight="400" font-style="normal" 
>
</g>

<g fill="none" stroke="#000000" stroke-opacity="1" stroke-width="1" stroke-linecap="square" stroke-linejoin="bevel" transform="matrix(0.999504,0,0,-0.999504,17723.3,-4188.04)"
font-family="MS Shell Dlg 2" font-size="10.3125" font-weight="400" font-style="normal" 
>
</g>

<g fill="#ae5151" fill-opacity="0.2" stroke="#333333" stroke-opacity="1" stroke-width="1" stroke-linecap="round" stroke-linejoin="round" transform="matrix(0.999504,0,0,-0.999504,17723.3,-4188.04)"
font-family="MS Shell Dlg 2" font-size="10.3125" font-weight="400" font-style="normal" 
>
<path vector-effect="non-scaling-stroke" fill-rule="evenodd" d="M-17731.6,-4242.3 L-17728.8,-4222.73 L-17718.6,-4206 L-17702.7,-4194.58 L-17687.5,-4191.16 L-17684.8,-4236.69 L-17684.8,-4236.87 L-17684.8,-4236.92 L-17684.6,-4237.25 L-17684.6,-4237.28 L-17684.5,-4237.42 L-17014.2,-4907.7 L-17014.3,-4907.86 L-17366.2,-5259.73 L-17382.2,-5270.45 L-17401,-5274.18 L-17419.7,-5270.45 L-17435.8,-5259.73 L-17524.6,-5170.92 L-17673.6,-5021.88 L-17683.8,-5007.15 L-17688,-4989.77 L-17731.6,-4242.3"/>
</g>

<g fill="none" stroke="#000000" stroke-opacity="1" stroke-width="1" stroke-linecap="square" stroke-linejoin="bevel" transform="matrix(0.999504,0,0,-0.999504,17723.3,-4188.04)"
font-family="MS Shell Dlg 2" font-size="10.3125" font-weight="400" font-style="normal" 
>
</g>

<g fill="none" stroke="#000000" stroke-opacity="1" stroke-width="1" stroke-linecap="square" stroke-linejoin="bevel" transform="matrix(0.999504,0,0,-0.999504,17723.3,-4188.04)"
font-family="MS Shell Dlg 2" font-size="10.3125" font-weight="400" font-style="normal" 
>
</g>

<g fill="#ffff00" fill-opacity="0.2" stroke="#333333" stroke-opacity="1" stroke-width="1" stroke-linecap="round" stroke-linejoin="round" transform="matrix(0.999504,0,0,-0.999504,17723.3,-4188.04)"
font-family="MS Shell Dlg 2" font-size="10.3125" font-weight="400" font-style="normal" 
>
<path vector-effect="non-scaling-stroke" fill-rule="evenodd" d="M-17731.6,-4242.3 L-17728.8,-4222.73 L-17718.6,-4206 L-17702.7,-4194.58 L-17687.5,-4191.16 L-17684.8,-4236.69 L-17684.8,-4236.87 L-17684.8,-4236.92 L-17684.6,-4237.25 L-17684.6,-4237.28 L-17684.5,-4237.42 L-17014.2,-4907.7 L-17014.3,-4907.86 L-17366.2,-5259.73 L-17382.2,-5270.45 L-17401,-5274.18 L-17419.7,-5270.45 L-17435.8,-5259.73 L-17524.6,-5170.92 L-17673.6,-5021.88 L-17683.8,-5007.15 L-17688,-4989.77 L-17731.6,-4242.3"/>
</g>

<g fill="none" stroke="#000000" stroke-opacity="1" stroke-width="1" stroke-linecap="square" stroke-linejoin="bevel" transform="matrix(0.999504,0,0,-0.999504,17723.3,-4188.04)"
font-family="MS Shell Dlg 2" font-size="10.3125" font-weight="400" font-style="normal" 
>
</g>

<g fill="none" stroke="#000000" stroke-opacity="1" stroke-width="1" stroke-linecap="square" stroke-linejoin="bevel" transform="matrix(0.999504,0,0,-0.999504,17723.3,-4188.04)"
font-family="MS Shell Dlg 2" font-size="10.3125" font-weight="400" font-style="normal" 
>
</g>

<g fill="#ae5151" fill-opacity="0.2" stroke="#333333" stroke-opacity="1" stroke-width="1" stroke-linecap="round" stroke-linejoin="round" transform="matrix(0.999504,0,0,-0.999504,17723.3,-4188.04)"
font-family="MS Shell Dlg 2" font-size="10.3125" font-weight="400" font-style="normal" 
>
<path vector-effect="non-scaling-stroke" fill-rule="evenodd" d="M-17731.6,-4242.3 L-17728.8,-4222.73 L-17718.6,-4206 L-17702.7,-4194.58 L-17687.5,-4191.16 L-17684.8,-4236.69 L-17684.8,-4236.87 L-17684.8,-4236.92 L-17684.6,-4237.25 L-17684.6,-4237.28 L-17684.5,-4237.42 L-17014.2,-4907.7 L-17014.3,-4907.86 L-17366.2,-5259.73 L-17382.2,-5270.45 L-17401,-5274.18 L-17419.7,-5270.45 L-17435.8,-5259.73 L-17524.6,-5170.92 L-17673.6,-5021.88 L-17683.8,-5007.15 L-17688,-4989.77 L-17731.6,-4242.3"/>
</g>

<g fill="none" stroke="#000000" stroke-opacity="1" stroke-width="1" stroke-linecap="square" stroke-linejoin="bevel" transform="matrix(0.999504,0,0,-0.999504,17723.3,-4188.04)"
font-family="MS Shell Dlg 2" font-size="10.3125" font-weight="400" font-style="normal" 
>
</g>

<g fill="none" stroke="#000000" stroke-opacity="1" stroke-width="1" stroke-linecap="square" stroke-linejoin="bevel" transform="matrix(0.999504,0,0,-0.999504,17723.3,-4188.04)"
font-family="MS Shell Dlg 2" font-size="10.3125" font-weight="400" font-style="normal" 
>
</g>

<g fill="#333333" fill-opacity="0.2" stroke="#333333" stroke-opacity="1" stroke-width="1" stroke-linecap="round" stroke-linejoin="round" transform="matrix(0.999504,0,0,-0.999504,17723.3,-4188.04)"
font-family="MS Shell Dlg 2" font-size="10.3125" font-weight="400" font-style="normal" 
>
<path vector-effect="non-scaling-stroke" fill-rule="evenodd" d="M-17731.6,-4242.3 L-17728.8,-4222.73 L-17718.6,-4206 L-17702.7,-4194.58 L-17687.5,-4191.16 L-17684.8,-4236.69 L-17684.8,-4236.87 L-17684.8,-4236.92 L-17684.6,-4237.25 L-17684.6,-4237.28 L-17684.5,-4237.42 L-17014.2,-4907.7 L-17014.3,-4907.86 L-17366.2,-5259.73 L-17382.2,-5270.45 L-17401,-5274.18 L-17419.7,-5270.45 L-17435.8,-5259.73 L-17524.6,-5170.92 L-17673.6,-5021.88 L-17683.8,-5007.15 L-17688,-4989.77 L-17731.6,-4242.3"/>
</g>

<g fill="none" stroke="#000000" stroke-opacity="1" stroke-width="1" stroke-linecap="square" stroke-linejoin="bevel" transform="matrix(0.999504,0,0,-0.999504,17723.3,-4188.04)"
font-family="MS Shell Dlg 2" font-size="10.3125" font-weight="400" font-style="normal" 
>
</g>

<g fill="none" stroke="#000000" stroke-opacity="1" stroke-width="1" stroke-linecap="square" stroke-linejoin="bevel" transform="matrix(1,0,0,-1,0,1084.02)"
font-family="MS Shell Dlg 2" font-size="10.3125" font-weight="400" font-style="normal" 
>
</g>
</g>
</svg>
