<?xml version="1.0" encoding="UTF-8" standalone="no"?>
<svg width="88.6178mm" height="488.809mm"
 xmlns="http://www.w3.org/2000/svg" xmlns:xlink="http://www.w3.org/1999/xlink"  version="1.2" baseProfile="tiny">
<title>SVG Generator Example Drawing</title>
<desc>An SVG drawing created by the SVG Generator</desc>
<defs>
</defs>
<g fill="none" stroke="black" stroke-width="1" fill-rule="evenodd" stroke-linecap="square" stroke-linejoin="bevel" >

<g fill="none" stroke="#000000" stroke-opacity="1" stroke-width="1" stroke-linecap="square" stroke-linejoin="bevel" transform="matrix(1,0,0,-1,0,1732.05)"
font-family="MS Shell Dlg 2" font-size="10.3125" font-weight="400" font-style="normal" 
>
</g>

<g fill="none" stroke="#000000" stroke-opacity="1" stroke-width="1" stroke-linecap="square" stroke-linejoin="bevel" transform="matrix(1,0,0,-1,0,1732.05)"
font-family="MS Shell Dlg 2" font-size="10.3125" font-weight="400" font-style="normal" 
>
</g>

<g fill="none" stroke="#000000" stroke-opacity="1" stroke-width="1" stroke-linecap="square" stroke-linejoin="bevel" transform="matrix(0.998271,0,0,-0.998271,21007.4,3419.34)"
font-family="MS Shell Dlg 2" font-size="10.3125" font-weight="400" font-style="normal" 
>
</g>

<g fill="#ae5151" fill-opacity="0.2" stroke="#333333" stroke-opacity="1" stroke-width="1" stroke-linecap="round" stroke-linejoin="round" transform="matrix(0.998271,0,0,-0.998271,21007.4,3419.34)"
font-family="MS Shell Dlg 2" font-size="10.3125" font-weight="400" font-style="normal" 
>
<path vector-effect="non-scaling-stroke" fill-rule="evenodd" d="M-21043.3,1737.74 L-20995.9,1737.74 L-20995.7,1737.76 L-20995.6,1737.77 L-20995.3,1737.92 L-20995.2,1737.94 L-20995,1738.22 L-20995,1738.25 L-20994.8,1738.61 L-20994.8,1738.66 L-20994.8,1738.85 L-20994.4,2153.55 L-20896.9,2153.55 L-20896.8,2153.55 L-20896.8,2153.55 L-20896.6,2153.59 L-20896.6,2153.6 L-20896.2,2153.76 L-20896.2,2153.78 L-20896,2154.06 L-20895.9,2154.09 L-20895.8,2154.43 L-20895.8,2154.47 L-20895.8,2154.66 L-20895.8,2551.43 L-20895.8,2551.61 L-20895.8,2551.66 L-20895.9,2552 L-20896,2552.03 L-20896.2,2552.3 L-20896.2,2552.32 L-20896.6,2552.49 L-20896.6,2552.5 L-20896.8,2552.54 L-20896.8,2552.54 L-20896.9,2552.54 L-20994,2552.54 L-20993.7,2966.34 L-20896.9,2966.34 L-20896.8,2966.34 L-20896.8,2966.35 L-20896.6,2966.38 L-20896.6,2966.39 L-20896.2,2966.56 L-20896.2,2966.58 L-20896,2966.85 L-20895.9,2966.88 L-20895.8,2967.22 L-20895.8,2967.27 L-20895.8,2967.45 L-20895.8,3373.66 L-20895.8,3373.84 L-20895.8,3373.88 L-20895.9,3374.23 L-20896,3374.26 L-20896.2,3374.53 L-20896.2,3374.55 L-20896.6,3374.71 L-20896.6,3374.73 L-20896.8,3374.76 L-20896.8,3374.76 L-20896.9,3374.77 L-20944.3,3374.78 L-20941,3391.51 L-20930.4,3407.39 L-20914.5,3418 L-20895.6,3421.77 L-20779,3421.74 L-20760,3417.97 L-20744.1,3407.34 L-20733.5,3391.45 L-20729.8,3372.5 L-20729.8,3351.93 L-20729.8,3342.75 L-20777.6,3352.49 L-20777.8,3352.51 L-20777.8,3352.52 L-20778.2,3352.46 L-20778.2,3352.45 L-20778.5,3352.28 L-20778.5,3352.26 L-20778.8,3351.99 L-20778.8,3351.96 L-20778.9,3351.63 L-20778.9,3351.59 L-20778.9,3351.41 L-20779.3,2958.94 L-20876.7,2958.94 L-20876.7,2958.94 L-20876.7,2958.93 L-20877,2958.9 L-20877,2958.89 L-20877.3,2958.72 L-20877.4,2958.7 L-20877.6,2958.43 L-20877.6,2958.4 L-20877.8,2958.05 L-20877.8,2958.01 L-20877.8,2957.83 L-20877.8,2561.06 L-20877.8,2560.87 L-20877.8,2560.83 L-20877.6,2560.48 L-20877.6,2560.45 L-20877.4,2560.18 L-20877.3,2560.16 L-20877,2560 L-20877,2559.98 L-20876.7,2559.95 L-20876.7,2559.95 L-20876.7,2559.95 L-20779.6,2559.95 L-20780,2146.14 L-20876.7,2146.14 L-20876.7,2146.14 L-20876.7,2146.14 L-20877,2146.1 L-20877,2146.09 L-20877.3,2145.93 L-20877.4,2145.9 L-20877.6,2145.63 L-20877.6,2145.6 L-20877.8,2145.26 L-20877.8,2145.21 L-20877.8,2145.03 L-20877.8,1738.83 L-20877.8,1738.64 L-20877.8,1738.6 L-20877.6,1738.26 L-20877.6,1738.23 L-20877.4,1737.95 L-20877.3,1737.93 L-20877,1737.77 L-20877,1737.76 L-20876.7,1737.72 L-20876.7,1737.72 L-20876.7,1737.72 L-20829.2,1737.71 L-20832.6,1720.97 L-20843.2,1705.09 L-20859.1,1694.48 L-20878,1690.72 L-20994.6,1690.74 L-21013.5,1694.51 L-21029.4,1705.14 L-21040,1721.04 L-21043.3,1737.74"/>
</g>

<g fill="none" stroke="#000000" stroke-opacity="1" stroke-width="1" stroke-linecap="square" stroke-linejoin="bevel" transform="matrix(0.998271,0,0,-0.998271,21007.4,3419.34)"
font-family="MS Shell Dlg 2" font-size="10.3125" font-weight="400" font-style="normal" 
>
</g>

<g fill="none" stroke="#000000" stroke-opacity="1" stroke-width="1" stroke-linecap="square" stroke-linejoin="bevel" transform="matrix(0.998271,0,0,-0.998271,21007.4,3419.34)"
font-family="MS Shell Dlg 2" font-size="10.3125" font-weight="400" font-style="normal" 
>
</g>

<g fill="#333333" fill-opacity="0.2" stroke="#333333" stroke-opacity="1" stroke-width="1" stroke-linecap="round" stroke-linejoin="round" transform="matrix(0.998271,0,0,-0.998271,21007.4,3419.34)"
font-family="MS Shell Dlg 2" font-size="10.3125" font-weight="400" font-style="normal" 
>
<path vector-effect="non-scaling-stroke" fill-rule="evenodd" d="M-21043.3,1737.74 L-20995.9,1737.74 L-20995.7,1737.76 L-20995.6,1737.77 L-20995.3,1737.92 L-20995.2,1737.94 L-20995,1738.22 L-20995,1738.25 L-20994.8,1738.61 L-20994.8,1738.66 L-20994.8,1738.85 L-20994.4,2153.55 L-20896.9,2153.55 L-20896.8,2153.55 L-20896.8,2153.55 L-20896.6,2153.59 L-20896.6,2153.6 L-20896.2,2153.76 L-20896.2,2153.78 L-20896,2154.06 L-20895.9,2154.09 L-20895.8,2154.43 L-20895.8,2154.47 L-20895.8,2154.66 L-20895.8,2551.43 L-20895.8,2551.61 L-20895.8,2551.66 L-20895.9,2552 L-20896,2552.03 L-20896.2,2552.3 L-20896.2,2552.32 L-20896.6,2552.49 L-20896.6,2552.5 L-20896.8,2552.54 L-20896.8,2552.54 L-20896.9,2552.54 L-20994,2552.54 L-20993.7,2966.34 L-20896.9,2966.34 L-20896.8,2966.34 L-20896.8,2966.35 L-20896.6,2966.38 L-20896.6,2966.39 L-20896.2,2966.56 L-20896.2,2966.58 L-20896,2966.85 L-20895.9,2966.88 L-20895.8,2967.22 L-20895.8,2967.27 L-20895.8,2967.45 L-20895.8,3373.66 L-20895.8,3373.84 L-20895.8,3373.88 L-20895.9,3374.23 L-20896,3374.26 L-20896.2,3374.53 L-20896.2,3374.55 L-20896.6,3374.71 L-20896.6,3374.73 L-20896.8,3374.76 L-20896.8,3374.76 L-20896.9,3374.77 L-20944.3,3374.78 L-20941,3391.51 L-20930.4,3407.39 L-20914.5,3418 L-20895.6,3421.77 L-20779,3421.74 L-20760,3417.97 L-20744.1,3407.34 L-20733.5,3391.45 L-20729.8,3372.5 L-20729.8,3351.93 L-20729.8,3342.75 L-20777.6,3352.49 L-20777.8,3352.51 L-20777.8,3352.52 L-20778.2,3352.46 L-20778.2,3352.45 L-20778.5,3352.28 L-20778.5,3352.26 L-20778.8,3351.99 L-20778.8,3351.96 L-20778.9,3351.63 L-20778.9,3351.59 L-20778.9,3351.41 L-20779.3,2958.94 L-20876.7,2958.94 L-20876.7,2958.94 L-20876.7,2958.93 L-20877,2958.9 L-20877,2958.89 L-20877.3,2958.72 L-20877.4,2958.7 L-20877.6,2958.43 L-20877.6,2958.4 L-20877.8,2958.05 L-20877.8,2958.01 L-20877.8,2957.83 L-20877.8,2561.06 L-20877.8,2560.87 L-20877.8,2560.83 L-20877.6,2560.48 L-20877.6,2560.45 L-20877.4,2560.18 L-20877.3,2560.16 L-20877,2560 L-20877,2559.98 L-20876.7,2559.95 L-20876.7,2559.95 L-20876.7,2559.95 L-20779.6,2559.95 L-20780,2146.14 L-20876.7,2146.14 L-20876.7,2146.14 L-20876.7,2146.14 L-20877,2146.1 L-20877,2146.09 L-20877.3,2145.93 L-20877.4,2145.9 L-20877.6,2145.63 L-20877.6,2145.6 L-20877.8,2145.26 L-20877.8,2145.21 L-20877.8,2145.03 L-20877.8,1738.83 L-20877.8,1738.64 L-20877.8,1738.6 L-20877.6,1738.26 L-20877.6,1738.23 L-20877.4,1737.95 L-20877.3,1737.93 L-20877,1737.77 L-20877,1737.76 L-20876.7,1737.72 L-20876.7,1737.72 L-20876.7,1737.72 L-20829.2,1737.71 L-20832.6,1720.97 L-20843.2,1705.09 L-20859.1,1694.48 L-20878,1690.72 L-20994.6,1690.74 L-21013.5,1694.51 L-21029.4,1705.14 L-21040,1721.04 L-21043.3,1737.74"/>
</g>

<g fill="none" stroke="#000000" stroke-opacity="1" stroke-width="1" stroke-linecap="square" stroke-linejoin="bevel" transform="matrix(0.998271,0,0,-0.998271,21007.4,3419.34)"
font-family="MS Shell Dlg 2" font-size="10.3125" font-weight="400" font-style="normal" 
>
</g>

<g fill="none" stroke="#000000" stroke-opacity="1" stroke-width="1" stroke-linecap="square" stroke-linejoin="bevel" transform="matrix(1,0,0,-1,0,1732.05)"
font-family="MS Shell Dlg 2" font-size="10.3125" font-weight="400" font-style="normal" 
>
</g>
</g>
</svg>
