<?xml version="1.0" encoding="UTF-8" standalone="no"?>
<svg width="646.289mm" height="1217.22mm"
 xmlns="http://www.w3.org/2000/svg" xmlns:xlink="http://www.w3.org/1999/xlink"  version="1.2" baseProfile="tiny">
<title>SVG Generator Example Drawing</title>
<desc>An SVG drawing created by the SVG Generator</desc>
<defs>
</defs>
<g fill="none" stroke="black" stroke-width="1" fill-rule="evenodd" stroke-linecap="square" stroke-linejoin="bevel" >

<g fill="none" stroke="#000000" stroke-opacity="1" stroke-width="1" stroke-linecap="square" stroke-linejoin="bevel" transform="matrix(1,0,0,-1,0,4313.87)"
font-family="MS Shell Dlg 2" font-size="10.3125" font-weight="400" font-style="normal" 
>
</g>

<g fill="none" stroke="#000000" stroke-opacity="1" stroke-width="1" stroke-linecap="square" stroke-linejoin="bevel" transform="matrix(1,0,0,-1,0,4313.87)"
font-family="MS Shell Dlg 2" font-size="10.3125" font-weight="400" font-style="normal" 
>
</g>

<g fill="none" stroke="#000000" stroke-opacity="1" stroke-width="1" stroke-linecap="square" stroke-linejoin="bevel" transform="matrix(0.999797,0,0,-0.999797,21236,1549.81)"
font-family="MS Shell Dlg 2" font-size="10.3125" font-weight="400" font-style="normal" 
>
</g>

<g fill="#333333" fill-opacity="0.2" stroke="#333333" stroke-opacity="1" stroke-width="1" stroke-linecap="round" stroke-linejoin="round" transform="matrix(0.999797,0,0,-0.999797,21236,1549.81)"
font-family="MS Shell Dlg 2" font-size="10.3125" font-weight="400" font-style="normal" 
>
<path vector-effect="non-scaling-stroke" fill-rule="evenodd" d="M-21239.8,-2764.13 L-20959.6,-74.5055 L-20957.8,-65.5701 L-20484.7,1542.14 L-20481.1,1548.75 L-18950.8,836.222 L-19212.4,-198.032 L-19212.4,-198.081 L-19212.4,-198.096 L-19212.4,-198.146 L-19212.4,-198.33 L-19212.4,-198.38 L-19212.4,-198.395 L-19212.4,-198.445 L-19324.1,-2616.77 L-21239.8,-2764.13"/>
</g>

<g fill="none" stroke="#000000" stroke-opacity="1" stroke-width="1" stroke-linecap="square" stroke-linejoin="bevel" transform="matrix(0.999797,0,0,-0.999797,21236,1549.81)"
font-family="MS Shell Dlg 2" font-size="10.3125" font-weight="400" font-style="normal" 
>
</g>

<g fill="none" stroke="#000000" stroke-opacity="1" stroke-width="1" stroke-linecap="square" stroke-linejoin="bevel" transform="matrix(0.999797,0,0,-0.999797,21236,1549.81)"
font-family="MS Shell Dlg 2" font-size="10.3125" font-weight="400" font-style="normal" 
>
</g>

<g fill="#ae5151" fill-opacity="0.2" stroke="#333333" stroke-opacity="1" stroke-width="1" stroke-linecap="round" stroke-linejoin="round" transform="matrix(0.999797,0,0,-0.999797,21236,1549.81)"
font-family="MS Shell Dlg 2" font-size="10.3125" font-weight="400" font-style="normal" 
>
<path vector-effect="non-scaling-stroke" fill-rule="evenodd" d="M-21239.8,-2764.13 L-20959.6,-74.5055 L-20957.8,-65.5701 L-20484.7,1542.14 L-20481.1,1548.75 L-18950.8,836.222 L-19212.4,-198.032 L-19212.4,-198.081 L-19212.4,-198.096 L-19212.4,-198.146 L-19212.4,-198.33 L-19212.4,-198.38 L-19212.4,-198.395 L-19212.4,-198.445 L-19324.1,-2616.77 L-21239.8,-2764.13"/>
</g>

<g fill="none" stroke="#000000" stroke-opacity="1" stroke-width="1" stroke-linecap="square" stroke-linejoin="bevel" transform="matrix(0.999797,0,0,-0.999797,21236,1549.81)"
font-family="MS Shell Dlg 2" font-size="10.3125" font-weight="400" font-style="normal" 
>
</g>

<g fill="none" stroke="#000000" stroke-opacity="1" stroke-width="1" stroke-linecap="square" stroke-linejoin="bevel" transform="matrix(0.999797,0,0,-0.999797,21236,1549.81)"
font-family="MS Shell Dlg 2" font-size="10.3125" font-weight="400" font-style="normal" 
>
</g>

<g fill="#ffff00" fill-opacity="0.2" stroke="#333333" stroke-opacity="1" stroke-width="1" stroke-linecap="round" stroke-linejoin="round" transform="matrix(0.999797,0,0,-0.999797,21236,1549.81)"
font-family="MS Shell Dlg 2" font-size="10.3125" font-weight="400" font-style="normal" 
>
<path vector-effect="non-scaling-stroke" fill-rule="evenodd" d="M-21239.8,-2764.13 L-20959.6,-74.5055 L-20957.8,-65.5701 L-20484.7,1542.14 L-20481.1,1548.75 L-18950.8,836.222 L-19212.4,-198.032 L-19212.4,-198.081 L-19212.4,-198.096 L-19212.4,-198.146 L-19212.4,-198.33 L-19212.4,-198.38 L-19212.4,-198.395 L-19212.4,-198.445 L-19324.1,-2616.77 L-21239.8,-2764.13"/>
</g>

<g fill="none" stroke="#000000" stroke-opacity="1" stroke-width="1" stroke-linecap="square" stroke-linejoin="bevel" transform="matrix(0.999797,0,0,-0.999797,21236,1549.81)"
font-family="MS Shell Dlg 2" font-size="10.3125" font-weight="400" font-style="normal" 
>
</g>

<g fill="none" stroke="#000000" stroke-opacity="1" stroke-width="1" stroke-linecap="square" stroke-linejoin="bevel" transform="matrix(0.999797,0,0,-0.999797,21236,1549.81)"
font-family="MS Shell Dlg 2" font-size="10.3125" font-weight="400" font-style="normal" 
>
</g>

<g fill="#ae5151" fill-opacity="0.2" stroke="#333333" stroke-opacity="1" stroke-width="1" stroke-linecap="round" stroke-linejoin="round" transform="matrix(0.999797,0,0,-0.999797,21236,1549.81)"
font-family="MS Shell Dlg 2" font-size="10.3125" font-weight="400" font-style="normal" 
>
<path vector-effect="non-scaling-stroke" fill-rule="evenodd" d="M-21239.8,-2764.13 L-20959.6,-74.5055 L-20957.8,-65.5701 L-20484.7,1542.14 L-20481.1,1548.75 L-18950.8,836.222 L-19212.4,-198.032 L-19212.4,-198.081 L-19212.4,-198.096 L-19212.4,-198.146 L-19212.4,-198.33 L-19212.4,-198.38 L-19212.4,-198.395 L-19212.4,-198.445 L-19324.1,-2616.77 L-21239.8,-2764.13"/>
</g>

<g fill="none" stroke="#000000" stroke-opacity="1" stroke-width="1" stroke-linecap="square" stroke-linejoin="bevel" transform="matrix(0.999797,0,0,-0.999797,21236,1549.81)"
font-family="MS Shell Dlg 2" font-size="10.3125" font-weight="400" font-style="normal" 
>
</g>

<g fill="none" stroke="#000000" stroke-opacity="1" stroke-width="1" stroke-linecap="square" stroke-linejoin="bevel" transform="matrix(0.999797,0,0,-0.999797,21236,1549.81)"
font-family="MS Shell Dlg 2" font-size="10.3125" font-weight="400" font-style="normal" 
>
</g>

<g fill="#333333" fill-opacity="0.2" stroke="#333333" stroke-opacity="1" stroke-width="1" stroke-linecap="round" stroke-linejoin="round" transform="matrix(0.999797,0,0,-0.999797,21236,1549.81)"
font-family="MS Shell Dlg 2" font-size="10.3125" font-weight="400" font-style="normal" 
>
<path vector-effect="non-scaling-stroke" fill-rule="evenodd" d="M-21239.8,-2764.13 L-20959.6,-74.5055 L-20957.8,-65.5701 L-20484.7,1542.14 L-20481.1,1548.75 L-18950.8,836.222 L-19212.4,-198.032 L-19212.4,-198.081 L-19212.4,-198.096 L-19212.4,-198.146 L-19212.4,-198.33 L-19212.4,-198.38 L-19212.4,-198.395 L-19212.4,-198.445 L-19324.1,-2616.77 L-21239.8,-2764.13"/>
</g>

<g fill="none" stroke="#000000" stroke-opacity="1" stroke-width="1" stroke-linecap="square" stroke-linejoin="bevel" transform="matrix(0.999797,0,0,-0.999797,21236,1549.81)"
font-family="MS Shell Dlg 2" font-size="10.3125" font-weight="400" font-style="normal" 
>
</g>

<g fill="none" stroke="#000000" stroke-opacity="1" stroke-width="1" stroke-linecap="square" stroke-linejoin="bevel" transform="matrix(1,0,0,-1,0,4313.87)"
font-family="MS Shell Dlg 2" font-size="10.3125" font-weight="400" font-style="normal" 
>
</g>
</g>
</svg>
