<?xml version="1.0" encoding="UTF-8" standalone="no"?>
<svg width="430.107mm" height="519.289mm"
 xmlns="http://www.w3.org/2000/svg" xmlns:xlink="http://www.w3.org/1999/xlink"  version="1.2" baseProfile="tiny">
<title>SVG Generator Example Drawing</title>
<desc>An SVG drawing created by the SVG Generator</desc>
<defs>
</defs>
<g fill="none" stroke="black" stroke-width="1" fill-rule="evenodd" stroke-linecap="square" stroke-linejoin="bevel" >

<g fill="none" stroke="#000000" stroke-opacity="1" stroke-width="1" stroke-linecap="square" stroke-linejoin="bevel" transform="matrix(1,0,0,-1,0,1840.49)"
font-family="MS Shell Dlg 2" font-size="10.3125" font-weight="400" font-style="normal" 
>
</g>

<g fill="none" stroke="#000000" stroke-opacity="1" stroke-width="1" stroke-linecap="square" stroke-linejoin="bevel" transform="matrix(1,0,0,-1,0,1840.49)"
font-family="MS Shell Dlg 2" font-size="10.3125" font-weight="400" font-style="normal" 
>
</g>

<g fill="none" stroke="#000000" stroke-opacity="1" stroke-width="1" stroke-linecap="square" stroke-linejoin="bevel" transform="matrix(0.999736,0,0,-0.999736,16971.3,-2711.54)"
font-family="MS Shell Dlg 2" font-size="10.3125" font-weight="400" font-style="normal" 
>
</g>

<g fill="#333333" fill-opacity="0.2" stroke="#333333" stroke-opacity="1" stroke-width="1" stroke-linecap="round" stroke-linejoin="round" transform="matrix(0.999736,0,0,-0.999736,16971.3,-2711.54)"
font-family="MS Shell Dlg 2" font-size="10.3125" font-weight="400" font-style="normal" 
>
<path vector-effect="non-scaling-stroke" fill-rule="evenodd" d="M-16975.3,-4236.68 L-16689.3,-3950.73 L-16689.2,-3950.58 L-16689.2,-3950.54 L-16689,-3950.18 L-16689,-3950.14 L-16689,-3949.75 L-16689,-3949.72 L-16689.2,-3949.36 L-16689.2,-3949.32 L-16689.3,-3949.16 L-16765.7,-3872.8 L-16700.2,-3807.47 L-16631,-3876.7 L-16631,-3876.73 L-16631,-3876.73 L-16630.8,-3876.87 L-16630.8,-3876.89 L-16630.4,-3877.01 L-16630.4,-3877.01 L-16630,-3877 L-16630,-3876.99 L-16629.6,-3876.84 L-16629.6,-3876.82 L-16629.5,-3876.7 L-16366,-3613.2 L-16365.8,-3613.06 L-16365.8,-3613.02 L-16365.7,-3612.68 L-16365.7,-3612.65 L-16365.6,-3612.28 L-16365.6,-3612.24 L-16365.8,-3611.89 L-16365.8,-3611.85 L-16365.9,-3611.67 L-16365.9,-3611.66 L-16366,-3611.63 L-16434.9,-3542.68 L-16166.3,-3274.62 L-16097.6,-3343.31 L-16097.6,-3343.33 L-16097.6,-3343.34 L-16097.4,-3343.47 L-16097.4,-3343.5 L-16097,-3343.61 L-16097,-3343.62 L-16096.6,-3343.6 L-16096.6,-3343.6 L-16096.2,-3343.45 L-16096.2,-3343.42 L-16096.1,-3343.3 L-15838.7,-3085.92 L-15838.6,-3085.78 L-15838.5,-3085.74 L-15838.4,-3085.4 L-15838.4,-3085.37 L-15838.4,-3085 L-15838.4,-3084.96 L-15838.5,-3084.61 L-15838.5,-3084.57 L-15838.6,-3084.39 L-15838.6,-3084.39 L-15838.7,-3084.35 L-15907.1,-3015.93 L-15603.8,-2713.24 L-15603.7,-2713.33 L-15522.3,-2794.75 L-15511.6,-2810.8 L-15507.9,-2829.53 L-15511.6,-2848.27 L-15521.1,-2862.46 L-15554.6,-2828.9 L-15554.7,-2828.87 L-15554.7,-2828.86 L-15554.8,-2828.73 L-15554.9,-2828.71 L-15555.2,-2828.59 L-15555.3,-2828.58 L-15555.6,-2828.6 L-15555.7,-2828.61 L-15556,-2828.75 L-15556,-2828.78 L-15556.2,-2828.9 L-15819.7,-3092.4 L-15819.8,-3092.54 L-15819.8,-3092.58 L-15820,-3092.91 L-15820,-3092.95 L-15820,-3093.32 L-15820,-3093.35 L-15819.9,-3093.7 L-15819.9,-3093.74 L-15819.7,-3093.93 L-15819.7,-3093.93 L-15819.7,-3093.96 L-15750.8,-3162.84 L-16019.4,-3430.9 L-16088,-3362.29 L-16088.1,-3362.26 L-16088.1,-3362.26 L-16088.2,-3362.12 L-16088.3,-3362.1 L-16088.6,-3361.98 L-16088.7,-3361.98 L-16089,-3361.99 L-16089.1,-3362 L-16089.4,-3362.15 L-16089.4,-3362.17 L-16089.6,-3362.29 L-16347,-3619.67 L-16347.1,-3619.82 L-16347.1,-3619.85 L-16347.3,-3620.19 L-16347.3,-3620.23 L-16347.3,-3620.6 L-16347.3,-3620.63 L-16347.2,-3620.98 L-16347.1,-3621.02 L-16347,-3621.21 L-16347,-3621.21 L-16347,-3621.24 L-16278.6,-3689.6 L-16471.6,-3882.24 L-16471.8,-3882.39 L-16471.8,-3882.43 L-16471.9,-3882.79 L-16472,-3882.83 L-16472,-3883.22 L-16471.9,-3883.26 L-16471.8,-3883.62 L-16471.8,-3883.65 L-16471.5,-3883.93 L-16471.5,-3883.95 L-16471.1,-3884.1 L-16471.1,-3884.11 L-16470.9,-3884.13 L-16010.9,-3884.13 L-16014.6,-3902.86 L-16025.4,-3918.92 L-16659.1,-4552.62 L-16659.2,-4552.73 L-16975.3,-4236.68"/>
</g>

<g fill="none" stroke="#000000" stroke-opacity="1" stroke-width="1" stroke-linecap="square" stroke-linejoin="bevel" transform="matrix(0.999736,0,0,-0.999736,16971.3,-2711.54)"
font-family="MS Shell Dlg 2" font-size="10.3125" font-weight="400" font-style="normal" 
>
</g>

<g fill="none" stroke="#000000" stroke-opacity="1" stroke-width="1" stroke-linecap="square" stroke-linejoin="bevel" transform="matrix(0.999736,0,0,-0.999736,16971.3,-2711.54)"
font-family="MS Shell Dlg 2" font-size="10.3125" font-weight="400" font-style="normal" 
>
</g>

<g fill="#ae5151" fill-opacity="0.2" stroke="#333333" stroke-opacity="1" stroke-width="1" stroke-linecap="round" stroke-linejoin="round" transform="matrix(0.999736,0,0,-0.999736,16971.3,-2711.54)"
font-family="MS Shell Dlg 2" font-size="10.3125" font-weight="400" font-style="normal" 
>
<path vector-effect="non-scaling-stroke" fill-rule="evenodd" d="M-16975.3,-4236.68 L-16689.3,-3950.73 L-16689.2,-3950.58 L-16689.2,-3950.54 L-16689,-3950.18 L-16689,-3950.14 L-16689,-3949.75 L-16689,-3949.72 L-16689.2,-3949.36 L-16689.2,-3949.32 L-16689.3,-3949.16 L-16765.7,-3872.8 L-16700.2,-3807.47 L-16631,-3876.7 L-16631,-3876.73 L-16631,-3876.73 L-16630.8,-3876.87 L-16630.8,-3876.89 L-16630.4,-3877.01 L-16630.4,-3877.01 L-16630,-3877 L-16630,-3876.99 L-16629.6,-3876.84 L-16629.6,-3876.82 L-16629.5,-3876.7 L-16366,-3613.2 L-16365.8,-3613.06 L-16365.8,-3613.02 L-16365.7,-3612.68 L-16365.7,-3612.65 L-16365.6,-3612.28 L-16365.6,-3612.24 L-16365.8,-3611.89 L-16365.8,-3611.85 L-16365.9,-3611.67 L-16365.9,-3611.66 L-16366,-3611.63 L-16434.9,-3542.68 L-16166.3,-3274.62 L-16097.6,-3343.31 L-16097.6,-3343.33 L-16097.6,-3343.34 L-16097.4,-3343.47 L-16097.4,-3343.5 L-16097,-3343.61 L-16097,-3343.62 L-16096.6,-3343.6 L-16096.6,-3343.6 L-16096.2,-3343.45 L-16096.2,-3343.42 L-16096.1,-3343.3 L-15838.7,-3085.92 L-15838.6,-3085.78 L-15838.5,-3085.74 L-15838.4,-3085.4 L-15838.4,-3085.37 L-15838.4,-3085 L-15838.4,-3084.96 L-15838.5,-3084.61 L-15838.5,-3084.57 L-15838.6,-3084.39 L-15838.6,-3084.39 L-15838.7,-3084.35 L-15907.1,-3015.93 L-15603.8,-2713.24 L-15603.7,-2713.33 L-15522.3,-2794.75 L-15511.6,-2810.8 L-15507.9,-2829.53 L-15511.6,-2848.27 L-15521.1,-2862.46 L-15554.6,-2828.9 L-15554.7,-2828.87 L-15554.7,-2828.86 L-15554.8,-2828.73 L-15554.9,-2828.71 L-15555.2,-2828.59 L-15555.3,-2828.58 L-15555.6,-2828.6 L-15555.7,-2828.61 L-15556,-2828.75 L-15556,-2828.78 L-15556.2,-2828.9 L-15819.7,-3092.4 L-15819.8,-3092.54 L-15819.8,-3092.58 L-15820,-3092.91 L-15820,-3092.95 L-15820,-3093.32 L-15820,-3093.35 L-15819.9,-3093.7 L-15819.9,-3093.74 L-15819.7,-3093.93 L-15819.7,-3093.93 L-15819.7,-3093.96 L-15750.8,-3162.84 L-16019.4,-3430.9 L-16088,-3362.29 L-16088.1,-3362.26 L-16088.1,-3362.26 L-16088.2,-3362.12 L-16088.3,-3362.1 L-16088.6,-3361.98 L-16088.7,-3361.98 L-16089,-3361.99 L-16089.1,-3362 L-16089.4,-3362.15 L-16089.4,-3362.17 L-16089.6,-3362.29 L-16347,-3619.67 L-16347.1,-3619.82 L-16347.1,-3619.85 L-16347.3,-3620.19 L-16347.3,-3620.23 L-16347.3,-3620.6 L-16347.3,-3620.63 L-16347.2,-3620.98 L-16347.1,-3621.02 L-16347,-3621.21 L-16347,-3621.21 L-16347,-3621.24 L-16278.6,-3689.6 L-16471.6,-3882.24 L-16471.8,-3882.39 L-16471.8,-3882.43 L-16471.9,-3882.79 L-16472,-3882.83 L-16472,-3883.22 L-16471.9,-3883.26 L-16471.8,-3883.62 L-16471.8,-3883.65 L-16471.5,-3883.93 L-16471.5,-3883.95 L-16471.1,-3884.1 L-16471.1,-3884.11 L-16470.9,-3884.13 L-16010.9,-3884.13 L-16014.6,-3902.86 L-16025.4,-3918.92 L-16659.1,-4552.62 L-16659.2,-4552.73 L-16975.3,-4236.68"/>
</g>

<g fill="none" stroke="#000000" stroke-opacity="1" stroke-width="1" stroke-linecap="square" stroke-linejoin="bevel" transform="matrix(0.999736,0,0,-0.999736,16971.3,-2711.54)"
font-family="MS Shell Dlg 2" font-size="10.3125" font-weight="400" font-style="normal" 
>
</g>

<g fill="none" stroke="#000000" stroke-opacity="1" stroke-width="1" stroke-linecap="square" stroke-linejoin="bevel" transform="matrix(0.999736,0,0,-0.999736,16971.3,-2711.54)"
font-family="MS Shell Dlg 2" font-size="10.3125" font-weight="400" font-style="normal" 
>
</g>

<g fill="#ffff00" fill-opacity="0.2" stroke="#333333" stroke-opacity="1" stroke-width="1" stroke-linecap="round" stroke-linejoin="round" transform="matrix(0.999736,0,0,-0.999736,16971.3,-2711.54)"
font-family="MS Shell Dlg 2" font-size="10.3125" font-weight="400" font-style="normal" 
>
<path vector-effect="non-scaling-stroke" fill-rule="evenodd" d="M-16975.3,-4236.68 L-16689.3,-3950.73 L-16689.2,-3950.58 L-16689.2,-3950.54 L-16689,-3950.18 L-16689,-3950.14 L-16689,-3949.75 L-16689,-3949.72 L-16689.2,-3949.36 L-16689.2,-3949.32 L-16689.3,-3949.16 L-16765.7,-3872.8 L-16700.2,-3807.47 L-16547.9,-3959.81 L-16547.9,-3959.84 L-16547.9,-3959.85 L-16547.7,-3959.98 L-16547.7,-3960 L-16547.3,-3960.12 L-16547.3,-3960.13 L-16546.9,-3960.11 L-16546.9,-3960.1 L-16546.6,-3959.96 L-16546.5,-3959.93 L-16546.4,-3959.81 L-16470.5,-3884.13 L-16010.9,-3884.13 L-16014.6,-3902.86 L-16025.4,-3918.92 L-16659.1,-4552.62 L-16659.2,-4552.73 L-16975.3,-4236.68"/>
</g>

<g fill="none" stroke="#000000" stroke-opacity="1" stroke-width="1" stroke-linecap="square" stroke-linejoin="bevel" transform="matrix(0.999736,0,0,-0.999736,16971.3,-2711.54)"
font-family="MS Shell Dlg 2" font-size="10.3125" font-weight="400" font-style="normal" 
>
</g>

<g fill="none" stroke="#000000" stroke-opacity="1" stroke-width="1" stroke-linecap="square" stroke-linejoin="bevel" transform="matrix(0.999736,0,0,-0.999736,16971.3,-2711.54)"
font-family="MS Shell Dlg 2" font-size="10.3125" font-weight="400" font-style="normal" 
>
</g>

<g fill="#ae5151" fill-opacity="0.2" stroke="#333333" stroke-opacity="1" stroke-width="1" stroke-linecap="round" stroke-linejoin="round" transform="matrix(0.999736,0,0,-0.999736,16971.3,-2711.54)"
font-family="MS Shell Dlg 2" font-size="10.3125" font-weight="400" font-style="normal" 
>
<path vector-effect="non-scaling-stroke" fill-rule="evenodd" d="M-16975.3,-4236.68 L-16689.3,-3950.73 L-16689.2,-3950.58 L-16689.2,-3950.54 L-16689,-3950.18 L-16689,-3950.14 L-16689,-3949.75 L-16689,-3949.72 L-16689.2,-3949.36 L-16689.2,-3949.32 L-16689.3,-3949.16 L-16765.7,-3872.8 L-16430.2,-3538 L-16361.3,-3606.95 L-16361.2,-3606.98 L-16361.2,-3606.98 L-16361,-3607.11 L-16361,-3607.14 L-16360.7,-3607.26 L-16360.6,-3607.26 L-16360.3,-3607.25 L-16360.2,-3607.24 L-16359.9,-3607.09 L-16359.8,-3607.06 L-16359.7,-3606.94 L-16102.3,-3349.56 L-16102.2,-3349.42 L-16102.2,-3349.38 L-16102,-3349.04 L-16102,-3349.01 L-16102,-3348.64 L-16102,-3348.6 L-16102.1,-3348.25 L-16102.1,-3348.22 L-16102.3,-3348.03 L-16102.3,-3348.03 L-16102.3,-3348 L-16171,-3279.3 L-15902.4,-3011.24 L-15834,-3079.67 L-15834,-3079.7 L-15834,-3079.7 L-15833.8,-3079.84 L-15833.7,-3079.86 L-15833.4,-3079.98 L-15833.3,-3079.98 L-15833,-3079.97 L-15832.9,-3079.96 L-15832.6,-3079.81 L-15832.6,-3079.78 L-15832.4,-3079.67 L-15568.9,-2816.17 L-15568.8,-2816.02 L-15568.8,-2815.99 L-15568.6,-2815.65 L-15568.6,-2815.61 L-15568.6,-2815.24 L-15568.6,-2815.21 L-15568.7,-2814.86 L-15568.7,-2814.82 L-15568.9,-2814.63 L-15568.9,-2814.63 L-15568.9,-2814.6 L-15602.5,-2781.04 L-15588.3,-2771.56 L-15569.5,-2767.83 L-15550.8,-2771.57 L-15534.8,-2782.29 L-15521.4,-2795.66 L-15452.4,-2864.68 L-15452.3,-2864.88 L-15755.5,-3167.52 L-15824.4,-3098.65 L-15824.4,-3098.62 L-15824.4,-3098.61 L-15824.6,-3098.48 L-15824.6,-3098.46 L-15825,-3098.34 L-15825,-3098.33 L-15825.4,-3098.35 L-15825.4,-3098.36 L-15825.8,-3098.51 L-15825.8,-3098.53 L-15825.9,-3098.65 L-16083.3,-3356.03 L-16083.4,-3356.18 L-16083.5,-3356.21 L-16083.6,-3356.55 L-16083.6,-3356.59 L-16083.6,-3356.96 L-16083.6,-3356.99 L-16083.5,-3357.34 L-16083.5,-3357.38 L-16083.4,-3357.56 L-16083.4,-3357.57 L-16083.3,-3357.6 L-16014.7,-3426.22 L-16283.3,-3694.28 L-16351.7,-3625.93 L-16351.7,-3625.9 L-16351.7,-3625.89 L-16351.9,-3625.76 L-16351.9,-3625.74 L-16352.3,-3625.62 L-16352.3,-3625.61 L-16352.7,-3625.63 L-16352.7,-3625.64 L-16353,-3625.79 L-16353.1,-3625.81 L-16353.2,-3625.93 L-16616.7,-3889.43 L-16616.8,-3889.57 L-16616.9,-3889.61 L-16617,-3889.95 L-16617,-3889.98 L-16617,-3890.35 L-16617,-3890.39 L-16616.9,-3890.74 L-16616.9,-3890.78 L-16616.8,-3890.96 L-16616.8,-3890.97 L-16616.7,-3891 L-16547.9,-3959.81 L-16547.9,-3959.84 L-16547.9,-3959.85 L-16547.7,-3959.98 L-16547.7,-3960 L-16547.3,-3960.12 L-16547.3,-3960.13 L-16546.9,-3960.11 L-16546.9,-3960.1 L-16546.6,-3959.96 L-16546.5,-3959.93 L-16546.4,-3959.81 L-16470.5,-3884.13 L-16010.9,-3884.13 L-16014.6,-3902.86 L-16025.4,-3918.92 L-16659.1,-4552.62 L-16659.2,-4552.73 L-16975.3,-4236.68"/>
</g>

<g fill="none" stroke="#000000" stroke-opacity="1" stroke-width="1" stroke-linecap="square" stroke-linejoin="bevel" transform="matrix(0.999736,0,0,-0.999736,16971.3,-2711.54)"
font-family="MS Shell Dlg 2" font-size="10.3125" font-weight="400" font-style="normal" 
>
</g>

<g fill="none" stroke="#000000" stroke-opacity="1" stroke-width="1" stroke-linecap="square" stroke-linejoin="bevel" transform="matrix(0.999736,0,0,-0.999736,16971.3,-2711.54)"
font-family="MS Shell Dlg 2" font-size="10.3125" font-weight="400" font-style="normal" 
>
</g>

<g fill="#333333" fill-opacity="0.2" stroke="#333333" stroke-opacity="1" stroke-width="1" stroke-linecap="round" stroke-linejoin="round" transform="matrix(0.999736,0,0,-0.999736,16971.3,-2711.54)"
font-family="MS Shell Dlg 2" font-size="10.3125" font-weight="400" font-style="normal" 
>
<path vector-effect="non-scaling-stroke" fill-rule="evenodd" d="M-16975.3,-4236.68 L-16689.3,-3950.73 L-16689.2,-3950.58 L-16689.2,-3950.54 L-16689,-3950.18 L-16689,-3950.14 L-16689,-3949.75 L-16689,-3949.72 L-16689.2,-3949.36 L-16689.2,-3949.32 L-16689.3,-3949.16 L-16765.7,-3872.8 L-16430.2,-3538 L-16361.3,-3606.95 L-16361.2,-3606.98 L-16361.2,-3606.98 L-16361,-3607.11 L-16361,-3607.14 L-16360.7,-3607.26 L-16360.6,-3607.26 L-16360.3,-3607.25 L-16360.2,-3607.24 L-16359.9,-3607.09 L-16359.8,-3607.06 L-16359.7,-3606.94 L-16102.3,-3349.56 L-16102.2,-3349.42 L-16102.2,-3349.38 L-16102,-3349.04 L-16102,-3349.01 L-16102,-3348.64 L-16102,-3348.6 L-16102.1,-3348.25 L-16102.1,-3348.22 L-16102.3,-3348.03 L-16102.3,-3348.03 L-16102.3,-3348 L-16171,-3279.3 L-15902.4,-3011.24 L-15834,-3079.67 L-15834,-3079.7 L-15834,-3079.7 L-15833.8,-3079.84 L-15833.7,-3079.86 L-15833.4,-3079.98 L-15833.3,-3079.98 L-15833,-3079.97 L-15832.9,-3079.96 L-15832.6,-3079.81 L-15832.6,-3079.78 L-15832.4,-3079.67 L-15568.9,-2816.17 L-15568.8,-2816.02 L-15568.8,-2815.99 L-15568.6,-2815.65 L-15568.6,-2815.61 L-15568.6,-2815.24 L-15568.6,-2815.21 L-15568.7,-2814.86 L-15568.7,-2814.82 L-15568.9,-2814.63 L-15568.9,-2814.63 L-15568.9,-2814.6 L-15602.5,-2781.04 L-15588.3,-2771.56 L-15569.5,-2767.83 L-15550.8,-2771.57 L-15534.8,-2782.29 L-15521.4,-2795.66 L-15452.4,-2864.68 L-15452.3,-2864.88 L-15755.5,-3167.52 L-15824.4,-3098.65 L-15824.4,-3098.62 L-15824.4,-3098.61 L-15824.6,-3098.48 L-15824.6,-3098.46 L-15825,-3098.34 L-15825,-3098.33 L-15825.4,-3098.35 L-15825.4,-3098.36 L-15825.8,-3098.51 L-15825.8,-3098.53 L-15825.9,-3098.65 L-16083.3,-3356.03 L-16083.4,-3356.18 L-16083.5,-3356.21 L-16083.6,-3356.55 L-16083.6,-3356.59 L-16083.6,-3356.96 L-16083.6,-3356.99 L-16083.5,-3357.34 L-16083.5,-3357.38 L-16083.4,-3357.56 L-16083.4,-3357.57 L-16083.3,-3357.6 L-16014.7,-3426.22 L-16283.3,-3694.28 L-16351.7,-3625.93 L-16351.7,-3625.9 L-16351.7,-3625.89 L-16351.9,-3625.76 L-16351.9,-3625.74 L-16352.3,-3625.62 L-16352.3,-3625.61 L-16352.7,-3625.63 L-16352.7,-3625.64 L-16353,-3625.79 L-16353.1,-3625.81 L-16353.2,-3625.93 L-16616.7,-3889.43 L-16616.8,-3889.57 L-16616.9,-3889.61 L-16617,-3889.95 L-16617,-3889.98 L-16617,-3890.35 L-16617,-3890.39 L-16616.9,-3890.74 L-16616.9,-3890.78 L-16616.8,-3890.96 L-16616.8,-3890.97 L-16616.7,-3891 L-16547.9,-3959.81 L-16547.9,-3959.84 L-16547.9,-3959.85 L-16547.7,-3959.98 L-16547.7,-3960 L-16547.3,-3960.12 L-16547.3,-3960.13 L-16546.9,-3960.11 L-16546.9,-3960.1 L-16546.6,-3959.96 L-16546.5,-3959.93 L-16546.4,-3959.81 L-16470.5,-3884.13 L-16010.9,-3884.13 L-16014.6,-3902.86 L-16025.4,-3918.92 L-16659.1,-4552.62 L-16659.2,-4552.73 L-16975.3,-4236.68"/>
</g>

<g fill="none" stroke="#000000" stroke-opacity="1" stroke-width="1" stroke-linecap="square" stroke-linejoin="bevel" transform="matrix(0.999736,0,0,-0.999736,16971.3,-2711.54)"
font-family="MS Shell Dlg 2" font-size="10.3125" font-weight="400" font-style="normal" 
>
</g>

<g fill="none" stroke="#000000" stroke-opacity="1" stroke-width="1" stroke-linecap="square" stroke-linejoin="bevel" transform="matrix(1,0,0,-1,0,1840.49)"
font-family="MS Shell Dlg 2" font-size="10.3125" font-weight="400" font-style="normal" 
>
</g>
</g>
</svg>
