<?xml version="1.0" encoding="UTF-8" standalone="no"?>
<svg width="1739.9mm" height="528.32mm"
 xmlns="http://www.w3.org/2000/svg" xmlns:xlink="http://www.w3.org/1999/xlink"  version="1.2" baseProfile="tiny">
<title>SVG Generator Example Drawing</title>
<desc>An SVG drawing created by the SVG Generator</desc>
<defs>
</defs>
<g fill="none" stroke="black" stroke-width="1" fill-rule="evenodd" stroke-linecap="square" stroke-linejoin="bevel" >

<g fill="none" stroke="#000000" stroke-opacity="1" stroke-width="1" stroke-linecap="square" stroke-linejoin="bevel" transform="matrix(1,0,0,-1,0,1872.23)"
font-family="MS Shell Dlg 2" font-size="10.3125" font-weight="400" font-style="normal" 
>
</g>

<g fill="none" stroke="#000000" stroke-opacity="1" stroke-width="1" stroke-linecap="square" stroke-linejoin="bevel" transform="matrix(1,0,0,-1,0,1872.23)"
font-family="MS Shell Dlg 2" font-size="10.3125" font-weight="400" font-style="normal" 
>
</g>

<g fill="none" stroke="#000000" stroke-opacity="1" stroke-width="1" stroke-linecap="square" stroke-linejoin="bevel" transform="matrix(0.999879,0,0,-0.999879,13941,10283.6)"
font-family="MS Shell Dlg 2" font-size="10.3125" font-weight="400" font-style="normal" 
>
</g>

<g fill="#333333" fill-opacity="0.2" stroke="#333333" stroke-opacity="1" stroke-width="1" stroke-linecap="round" stroke-linejoin="round" transform="matrix(0.999879,0,0,-0.999879,13941,10283.6)"
font-family="MS Shell Dlg 2" font-size="10.3125" font-weight="400" font-style="normal" 
>
<path vector-effect="non-scaling-stroke" fill-rule="evenodd" d="M-13942.2,10044.7 L-11878.6,10212 L-11875.8,10212.1 L-8792.93,10284.1 L-8791.76,10284.1 L-7778.12,10284.1 L-7801.96,8567.6 L-13321.6,8567.6 L-13321.7,8567.6 L-13321.8,8567.59 L-13321.9,8567.58 L-13322.3,8567.49 L-13322.4,8567.47 L-13322.4,8567.46 L-13322.5,8567.42 L-13663.6,8412.88 L-13942.2,10044.7"/>
</g>

<g fill="none" stroke="#000000" stroke-opacity="1" stroke-width="1" stroke-linecap="square" stroke-linejoin="bevel" transform="matrix(0.999879,0,0,-0.999879,13941,10283.6)"
font-family="MS Shell Dlg 2" font-size="10.3125" font-weight="400" font-style="normal" 
>
</g>

<g fill="none" stroke="#000000" stroke-opacity="1" stroke-width="1" stroke-linecap="square" stroke-linejoin="bevel" transform="matrix(0.999879,0,0,-0.999879,13941,10283.6)"
font-family="MS Shell Dlg 2" font-size="10.3125" font-weight="400" font-style="normal" 
>
</g>

<g fill="#ae5151" fill-opacity="0.2" stroke="#333333" stroke-opacity="1" stroke-width="1" stroke-linecap="round" stroke-linejoin="round" transform="matrix(0.999879,0,0,-0.999879,13941,10283.6)"
font-family="MS Shell Dlg 2" font-size="10.3125" font-weight="400" font-style="normal" 
>
<path vector-effect="non-scaling-stroke" fill-rule="evenodd" d="M-13942.2,10044.7 L-11878.6,10212 L-11875.8,10212.1 L-8792.93,10284.1 L-8791.76,10284.1 L-7778.12,10284.1 L-7801.96,8567.6 L-13321.6,8567.6 L-13321.7,8567.6 L-13321.8,8567.59 L-13321.9,8567.58 L-13322.3,8567.49 L-13322.4,8567.47 L-13322.4,8567.46 L-13322.5,8567.42 L-13663.6,8412.88 L-13942.2,10044.7"/>
</g>

<g fill="none" stroke="#000000" stroke-opacity="1" stroke-width="1" stroke-linecap="square" stroke-linejoin="bevel" transform="matrix(0.999879,0,0,-0.999879,13941,10283.6)"
font-family="MS Shell Dlg 2" font-size="10.3125" font-weight="400" font-style="normal" 
>
</g>

<g fill="none" stroke="#000000" stroke-opacity="1" stroke-width="1" stroke-linecap="square" stroke-linejoin="bevel" transform="matrix(0.999879,0,0,-0.999879,13941,10283.6)"
font-family="MS Shell Dlg 2" font-size="10.3125" font-weight="400" font-style="normal" 
>
</g>

<g fill="#ffff00" fill-opacity="0.2" stroke="#333333" stroke-opacity="1" stroke-width="1" stroke-linecap="round" stroke-linejoin="round" transform="matrix(0.999879,0,0,-0.999879,13941,10283.6)"
font-family="MS Shell Dlg 2" font-size="10.3125" font-weight="400" font-style="normal" 
>
<path vector-effect="non-scaling-stroke" fill-rule="evenodd" d="M-13942.2,10044.7 L-11878.6,10212 L-11875.8,10212.1 L-8792.93,10284.1 L-8791.76,10284.1 L-7778.12,10284.1 L-7801.96,8567.6 L-13321.6,8567.6 L-13321.7,8567.6 L-13321.8,8567.59 L-13321.9,8567.58 L-13322.3,8567.49 L-13322.4,8567.47 L-13322.4,8567.46 L-13322.5,8567.42 L-13663.6,8412.88 L-13942.2,10044.7"/>
</g>

<g fill="none" stroke="#000000" stroke-opacity="1" stroke-width="1" stroke-linecap="square" stroke-linejoin="bevel" transform="matrix(0.999879,0,0,-0.999879,13941,10283.6)"
font-family="MS Shell Dlg 2" font-size="10.3125" font-weight="400" font-style="normal" 
>
</g>

<g fill="none" stroke="#000000" stroke-opacity="1" stroke-width="1" stroke-linecap="square" stroke-linejoin="bevel" transform="matrix(0.999879,0,0,-0.999879,13941,10283.6)"
font-family="MS Shell Dlg 2" font-size="10.3125" font-weight="400" font-style="normal" 
>
</g>

<g fill="#ae5151" fill-opacity="0.2" stroke="#333333" stroke-opacity="1" stroke-width="1" stroke-linecap="round" stroke-linejoin="round" transform="matrix(0.999879,0,0,-0.999879,13941,10283.6)"
font-family="MS Shell Dlg 2" font-size="10.3125" font-weight="400" font-style="normal" 
>
<path vector-effect="non-scaling-stroke" fill-rule="evenodd" d="M-13942.2,10044.7 L-11878.6,10212 L-11875.8,10212.1 L-8792.93,10284.1 L-8791.76,10284.1 L-7778.12,10284.1 L-7801.96,8567.6 L-13321.6,8567.6 L-13321.7,8567.6 L-13321.8,8567.59 L-13321.9,8567.58 L-13322.3,8567.49 L-13322.4,8567.47 L-13322.4,8567.46 L-13322.5,8567.42 L-13663.6,8412.88 L-13942.2,10044.7"/>
</g>

<g fill="none" stroke="#000000" stroke-opacity="1" stroke-width="1" stroke-linecap="square" stroke-linejoin="bevel" transform="matrix(0.999879,0,0,-0.999879,13941,10283.6)"
font-family="MS Shell Dlg 2" font-size="10.3125" font-weight="400" font-style="normal" 
>
</g>

<g fill="none" stroke="#000000" stroke-opacity="1" stroke-width="1" stroke-linecap="square" stroke-linejoin="bevel" transform="matrix(0.999879,0,0,-0.999879,13941,10283.6)"
font-family="MS Shell Dlg 2" font-size="10.3125" font-weight="400" font-style="normal" 
>
</g>

<g fill="#333333" fill-opacity="0.2" stroke="#333333" stroke-opacity="1" stroke-width="1" stroke-linecap="round" stroke-linejoin="round" transform="matrix(0.999879,0,0,-0.999879,13941,10283.6)"
font-family="MS Shell Dlg 2" font-size="10.3125" font-weight="400" font-style="normal" 
>
<path vector-effect="non-scaling-stroke" fill-rule="evenodd" d="M-13942.2,10044.7 L-11878.6,10212 L-11875.8,10212.1 L-8792.93,10284.1 L-8791.76,10284.1 L-7778.12,10284.1 L-7801.96,8567.6 L-13321.6,8567.6 L-13321.7,8567.6 L-13321.8,8567.59 L-13321.9,8567.58 L-13322.3,8567.49 L-13322.4,8567.47 L-13322.4,8567.46 L-13322.5,8567.42 L-13663.6,8412.88 L-13942.2,10044.7"/>
</g>

<g fill="none" stroke="#000000" stroke-opacity="1" stroke-width="1" stroke-linecap="square" stroke-linejoin="bevel" transform="matrix(0.999879,0,0,-0.999879,13941,10283.6)"
font-family="MS Shell Dlg 2" font-size="10.3125" font-weight="400" font-style="normal" 
>
</g>

<g fill="none" stroke="#000000" stroke-opacity="1" stroke-width="1" stroke-linecap="square" stroke-linejoin="bevel" transform="matrix(1,0,0,-1,0,1872.23)"
font-family="MS Shell Dlg 2" font-size="10.3125" font-weight="400" font-style="normal" 
>
</g>
</g>
</svg>
