<?xml version="1.0" encoding="UTF-8" standalone="no"?>
<svg width="232.551mm" height="232.551mm"
 xmlns="http://www.w3.org/2000/svg" xmlns:xlink="http://www.w3.org/1999/xlink"  version="1.2" baseProfile="tiny">
<title>SVG Generator Example Drawing</title>
<desc>An SVG drawing created by the SVG Generator</desc>
<defs>
</defs>
<g fill="none" stroke="black" stroke-width="1" fill-rule="evenodd" stroke-linecap="square" stroke-linejoin="bevel" >

<g fill="none" stroke="#000000" stroke-opacity="1" stroke-width="1" stroke-linecap="square" stroke-linejoin="bevel" transform="matrix(1,0,0,-1,0,824.95)"
font-family="MS Shell Dlg 2" font-size="10.3125" font-weight="400" font-style="normal" 
>
</g>

<g fill="none" stroke="#000000" stroke-opacity="1" stroke-width="1" stroke-linecap="square" stroke-linejoin="bevel" transform="matrix(1,0,0,-1,0,824.95)"
font-family="MS Shell Dlg 2" font-size="10.3125" font-weight="400" font-style="normal" 
>
</g>

<g fill="none" stroke="#000000" stroke-opacity="1" stroke-width="1" stroke-linecap="square" stroke-linejoin="bevel" transform="matrix(0.998848,0,0,-0.998848,17380,-4161.13)"
font-family="MS Shell Dlg 2" font-size="10.3125" font-weight="400" font-style="normal" 
>
</g>

<g fill="#333333" fill-opacity="0.2" stroke="#333333" stroke-opacity="1" stroke-width="1" stroke-linecap="round" stroke-linejoin="round" transform="matrix(0.998848,0,0,-0.998848,17380,-4161.13)"
font-family="MS Shell Dlg 2" font-size="10.3125" font-weight="400" font-style="normal" 
>
<path vector-effect="non-scaling-stroke" fill-rule="evenodd" d="M-17399.6,-4519.52 L-17047.4,-4167.38 L-16694.6,-4520.15 L-16694.5,-4520.28 L-16694.5,-4520.3 L-16694.1,-4520.45 L-16694.1,-4520.46 L-16693.7,-4520.46 L-16693.6,-4520.45 L-16693.3,-4520.3 L-16693.2,-4520.28 L-16693.1,-4520.15 L-16659.2,-4486.29 L-16590.1,-4555.45 L-16579.3,-4571.5 L-16575.6,-4590.23 L-16579.3,-4608.97 L-16590.1,-4625.02 L-16941.9,-4976.88 L-16958,-4987.61 L-16976.7,-4991.33 L-16995.4,-4987.61 L-17011.5,-4976.88 L-17080.7,-4907.73 L-17046.8,-4873.86 L-17046.7,-4873.71 L-17046.6,-4873.67 L-17046.5,-4873.31 L-17046.5,-4873.27 L-17046.5,-4872.88 L-17046.5,-4872.84 L-17046.6,-4872.48 L-17046.7,-4872.44 L-17046.8,-4872.29 L-17399.6,-4519.52"/>
</g>

<g fill="none" stroke="#000000" stroke-opacity="1" stroke-width="1" stroke-linecap="square" stroke-linejoin="bevel" transform="matrix(0.998848,0,0,-0.998848,17380,-4161.13)"
font-family="MS Shell Dlg 2" font-size="10.3125" font-weight="400" font-style="normal" 
>
</g>

<g fill="none" stroke="#000000" stroke-opacity="1" stroke-width="1" stroke-linecap="square" stroke-linejoin="bevel" transform="matrix(0.998848,0,0,-0.998848,17380,-4161.13)"
font-family="MS Shell Dlg 2" font-size="10.3125" font-weight="400" font-style="normal" 
>
</g>

<g fill="#ae5151" fill-opacity="0.2" stroke="#333333" stroke-opacity="1" stroke-width="1" stroke-linecap="round" stroke-linejoin="round" transform="matrix(0.998848,0,0,-0.998848,17380,-4161.13)"
font-family="MS Shell Dlg 2" font-size="10.3125" font-weight="400" font-style="normal" 
>
<path vector-effect="non-scaling-stroke" fill-rule="evenodd" d="M-17399.6,-4519.52 L-17047.4,-4167.38 L-16694.6,-4520.15 L-16694.5,-4520.28 L-16694.5,-4520.3 L-16694.1,-4520.45 L-16694.1,-4520.46 L-16693.7,-4520.46 L-16693.6,-4520.45 L-16693.3,-4520.3 L-16693.2,-4520.28 L-16693.1,-4520.15 L-16659.2,-4486.29 L-16590.1,-4555.45 L-16579.3,-4571.5 L-16575.6,-4590.23 L-16579.3,-4608.97 L-16590.1,-4625.02 L-16941.9,-4976.88 L-16958,-4987.61 L-16976.7,-4991.33 L-16995.4,-4987.61 L-17011.5,-4976.88 L-17080.7,-4907.73 L-17046.8,-4873.86 L-17046.7,-4873.71 L-17046.6,-4873.67 L-17046.5,-4873.31 L-17046.5,-4873.27 L-17046.5,-4872.88 L-17046.5,-4872.84 L-17046.6,-4872.48 L-17046.7,-4872.44 L-17046.8,-4872.29 L-17399.6,-4519.52"/>
</g>

<g fill="none" stroke="#000000" stroke-opacity="1" stroke-width="1" stroke-linecap="square" stroke-linejoin="bevel" transform="matrix(0.998848,0,0,-0.998848,17380,-4161.13)"
font-family="MS Shell Dlg 2" font-size="10.3125" font-weight="400" font-style="normal" 
>
</g>

<g fill="none" stroke="#000000" stroke-opacity="1" stroke-width="1" stroke-linecap="square" stroke-linejoin="bevel" transform="matrix(0.998848,0,0,-0.998848,17380,-4161.13)"
font-family="MS Shell Dlg 2" font-size="10.3125" font-weight="400" font-style="normal" 
>
</g>

<g fill="#ffff00" fill-opacity="0.2" stroke="#333333" stroke-opacity="1" stroke-width="1" stroke-linecap="round" stroke-linejoin="round" transform="matrix(0.998848,0,0,-0.998848,17380,-4161.13)"
font-family="MS Shell Dlg 2" font-size="10.3125" font-weight="400" font-style="normal" 
>
<path vector-effect="non-scaling-stroke" fill-rule="evenodd" d="M-17399.6,-4519.52 L-17047.4,-4167.38 L-16694.6,-4520.15 L-16694.5,-4520.28 L-16694.5,-4520.3 L-16694.1,-4520.45 L-16694.1,-4520.46 L-16693.7,-4520.46 L-16693.6,-4520.45 L-16693.3,-4520.3 L-16693.2,-4520.28 L-16693.1,-4520.15 L-16659.2,-4486.29 L-16590.1,-4555.45 L-16579.3,-4571.5 L-16575.6,-4590.23 L-16579.3,-4608.97 L-16590.1,-4625.02 L-16941.9,-4976.88 L-16958,-4987.61 L-16976.7,-4991.33 L-16995.4,-4987.61 L-17011.5,-4976.88 L-17080.7,-4907.73 L-17046.8,-4873.86 L-17046.7,-4873.71 L-17046.6,-4873.67 L-17046.5,-4873.31 L-17046.5,-4873.27 L-17046.5,-4872.88 L-17046.5,-4872.84 L-17046.6,-4872.48 L-17046.7,-4872.44 L-17046.8,-4872.29 L-17399.6,-4519.52"/>
</g>

<g fill="none" stroke="#000000" stroke-opacity="1" stroke-width="1" stroke-linecap="square" stroke-linejoin="bevel" transform="matrix(0.998848,0,0,-0.998848,17380,-4161.13)"
font-family="MS Shell Dlg 2" font-size="10.3125" font-weight="400" font-style="normal" 
>
</g>

<g fill="none" stroke="#000000" stroke-opacity="1" stroke-width="1" stroke-linecap="square" stroke-linejoin="bevel" transform="matrix(0.998848,0,0,-0.998848,17380,-4161.13)"
font-family="MS Shell Dlg 2" font-size="10.3125" font-weight="400" font-style="normal" 
>
</g>

<g fill="#ae5151" fill-opacity="0.2" stroke="#333333" stroke-opacity="1" stroke-width="1" stroke-linecap="round" stroke-linejoin="round" transform="matrix(0.998848,0,0,-0.998848,17380,-4161.13)"
font-family="MS Shell Dlg 2" font-size="10.3125" font-weight="400" font-style="normal" 
>
<path vector-effect="non-scaling-stroke" fill-rule="evenodd" d="M-17399.6,-4519.52 L-17047.4,-4167.38 L-16694.6,-4520.15 L-16694.5,-4520.28 L-16694.5,-4520.3 L-16694.1,-4520.45 L-16694.1,-4520.46 L-16693.7,-4520.46 L-16693.6,-4520.45 L-16693.3,-4520.3 L-16693.2,-4520.28 L-16693.1,-4520.15 L-16659.2,-4486.29 L-16590.1,-4555.45 L-16579.3,-4571.5 L-16575.6,-4590.23 L-16579.3,-4608.97 L-16590.1,-4625.02 L-16941.9,-4976.88 L-16958,-4987.61 L-16976.7,-4991.33 L-16995.4,-4987.61 L-17011.5,-4976.88 L-17080.7,-4907.73 L-17046.8,-4873.86 L-17046.7,-4873.71 L-17046.6,-4873.67 L-17046.5,-4873.31 L-17046.5,-4873.27 L-17046.5,-4872.88 L-17046.5,-4872.84 L-17046.6,-4872.48 L-17046.7,-4872.44 L-17046.8,-4872.29 L-17399.6,-4519.52"/>
</g>

<g fill="none" stroke="#000000" stroke-opacity="1" stroke-width="1" stroke-linecap="square" stroke-linejoin="bevel" transform="matrix(0.998848,0,0,-0.998848,17380,-4161.13)"
font-family="MS Shell Dlg 2" font-size="10.3125" font-weight="400" font-style="normal" 
>
</g>

<g fill="none" stroke="#000000" stroke-opacity="1" stroke-width="1" stroke-linecap="square" stroke-linejoin="bevel" transform="matrix(0.998848,0,0,-0.998848,17380,-4161.13)"
font-family="MS Shell Dlg 2" font-size="10.3125" font-weight="400" font-style="normal" 
>
</g>

<g fill="#333333" fill-opacity="0.2" stroke="#333333" stroke-opacity="1" stroke-width="1" stroke-linecap="round" stroke-linejoin="round" transform="matrix(0.998848,0,0,-0.998848,17380,-4161.13)"
font-family="MS Shell Dlg 2" font-size="10.3125" font-weight="400" font-style="normal" 
>
<path vector-effect="non-scaling-stroke" fill-rule="evenodd" d="M-17399.6,-4519.52 L-17047.4,-4167.38 L-16694.6,-4520.15 L-16694.5,-4520.28 L-16694.5,-4520.3 L-16694.1,-4520.45 L-16694.1,-4520.46 L-16693.7,-4520.46 L-16693.6,-4520.45 L-16693.3,-4520.3 L-16693.2,-4520.28 L-16693.1,-4520.15 L-16659.2,-4486.29 L-16590.1,-4555.45 L-16579.3,-4571.5 L-16575.6,-4590.23 L-16579.3,-4608.97 L-16590.1,-4625.02 L-16941.9,-4976.88 L-16958,-4987.61 L-16976.7,-4991.33 L-16995.4,-4987.61 L-17011.5,-4976.88 L-17080.7,-4907.73 L-17046.8,-4873.86 L-17046.7,-4873.71 L-17046.6,-4873.67 L-17046.5,-4873.31 L-17046.5,-4873.27 L-17046.5,-4872.88 L-17046.5,-4872.84 L-17046.6,-4872.48 L-17046.7,-4872.44 L-17046.8,-4872.29 L-17399.6,-4519.52"/>
</g>

<g fill="none" stroke="#000000" stroke-opacity="1" stroke-width="1" stroke-linecap="square" stroke-linejoin="bevel" transform="matrix(0.998848,0,0,-0.998848,17380,-4161.13)"
font-family="MS Shell Dlg 2" font-size="10.3125" font-weight="400" font-style="normal" 
>
</g>

<g fill="none" stroke="#000000" stroke-opacity="1" stroke-width="1" stroke-linecap="square" stroke-linejoin="bevel" transform="matrix(1,0,0,-1,0,824.95)"
font-family="MS Shell Dlg 2" font-size="10.3125" font-weight="400" font-style="normal" 
>
</g>
</g>
</svg>
