<?xml version="1.0" encoding="UTF-8" standalone="no"?>
<svg width="450.427mm" height="18.9089mm"
 xmlns="http://www.w3.org/2000/svg" xmlns:xlink="http://www.w3.org/1999/xlink"  version="1.2" baseProfile="tiny">
<title>SVG Generator Example Drawing</title>
<desc>An SVG drawing created by the SVG Generator</desc>
<defs>
</defs>
<g fill="none" stroke="black" stroke-width="1" fill-rule="evenodd" stroke-linecap="square" stroke-linejoin="bevel" >

<g fill="none" stroke="#000000" stroke-opacity="1" stroke-width="1" stroke-linecap="square" stroke-linejoin="bevel" transform="matrix(1,0,0,-1,0,67.9999)"
font-family="MS Shell Dlg 2" font-size="10.3125" font-weight="400" font-style="normal" 
>
</g>

<g fill="none" stroke="#000000" stroke-opacity="1" stroke-width="1" stroke-linecap="square" stroke-linejoin="bevel" transform="matrix(1,0,0,-1,0,67.9999)"
font-family="MS Shell Dlg 2" font-size="10.3125" font-weight="400" font-style="normal" 
>
</g>

<g fill="none" stroke="#000000" stroke-opacity="1" stroke-width="1" stroke-linecap="square" stroke-linejoin="bevel" transform="matrix(0.985296,0,0,-0.985296,13735.3,-1380.64)"
font-family="MS Shell Dlg 2" font-size="10.3125" font-weight="400" font-style="normal" 
>
</g>

<g fill="#333333" fill-opacity="0.2" stroke="#333333" stroke-opacity="1" stroke-width="1" stroke-linecap="round" stroke-linejoin="round" transform="matrix(0.985296,0,0,-0.985296,13735.3,-1380.64)"
font-family="MS Shell Dlg 2" font-size="10.3125" font-weight="400" font-style="normal" 
>
<path vector-effect="non-scaling-stroke" fill-rule="evenodd" d="M-13939.7,-1402.76 L-12343.8,-1402.76 L-12343.8,-1402.96 L-12343.8,-1420.56 L-12347.5,-1439.49 L-12358.2,-1455.38 L-12374,-1465.99 L-12393,-1469.76 L-13890.6,-1469.76 L-13909.5,-1465.99 L-13925.4,-1455.38 L-13936,-1439.49 L-13939.8,-1420.56 L-13939.8,-1402.96 L-13939.7,-1402.76"/>
</g>

<g fill="none" stroke="#000000" stroke-opacity="1" stroke-width="1" stroke-linecap="square" stroke-linejoin="bevel" transform="matrix(0.985296,0,0,-0.985296,13735.3,-1380.64)"
font-family="MS Shell Dlg 2" font-size="10.3125" font-weight="400" font-style="normal" 
>
</g>

<g fill="none" stroke="#000000" stroke-opacity="1" stroke-width="1" stroke-linecap="square" stroke-linejoin="bevel" transform="matrix(0.985296,0,0,-0.985296,13735.3,-1380.64)"
font-family="MS Shell Dlg 2" font-size="10.3125" font-weight="400" font-style="normal" 
>
</g>

<g fill="#ae5151" fill-opacity="0.2" stroke="#333333" stroke-opacity="1" stroke-width="1" stroke-linecap="round" stroke-linejoin="round" transform="matrix(0.985296,0,0,-0.985296,13735.3,-1380.64)"
font-family="MS Shell Dlg 2" font-size="10.3125" font-weight="400" font-style="normal" 
>
<path vector-effect="non-scaling-stroke" fill-rule="evenodd" d="M-13939.7,-1402.76 L-12343.8,-1402.76 L-12343.8,-1402.96 L-12343.8,-1420.56 L-12347.5,-1439.49 L-12358.2,-1455.38 L-12374,-1465.99 L-12393,-1469.76 L-13890.6,-1469.76 L-13909.5,-1465.99 L-13925.4,-1455.38 L-13936,-1439.49 L-13939.8,-1420.56 L-13939.8,-1402.96 L-13939.7,-1402.76"/>
</g>

<g fill="none" stroke="#000000" stroke-opacity="1" stroke-width="1" stroke-linecap="square" stroke-linejoin="bevel" transform="matrix(0.985296,0,0,-0.985296,13735.3,-1380.64)"
font-family="MS Shell Dlg 2" font-size="10.3125" font-weight="400" font-style="normal" 
>
</g>

<g fill="none" stroke="#000000" stroke-opacity="1" stroke-width="1" stroke-linecap="square" stroke-linejoin="bevel" transform="matrix(0.985296,0,0,-0.985296,13735.3,-1380.64)"
font-family="MS Shell Dlg 2" font-size="10.3125" font-weight="400" font-style="normal" 
>
</g>

<g fill="#ffff00" fill-opacity="0.2" stroke="#333333" stroke-opacity="1" stroke-width="1" stroke-linecap="round" stroke-linejoin="round" transform="matrix(0.985296,0,0,-0.985296,13735.3,-1380.64)"
font-family="MS Shell Dlg 2" font-size="10.3125" font-weight="400" font-style="normal" 
>
<path vector-effect="non-scaling-stroke" fill-rule="evenodd" d="M-13939.7,-1402.76 L-12343.8,-1402.76 L-12343.8,-1402.96 L-12343.8,-1420.56 L-12347.5,-1439.49 L-12358.2,-1455.38 L-12374,-1465.99 L-12393,-1469.76 L-13890.6,-1469.76 L-13909.5,-1465.99 L-13925.4,-1455.38 L-13936,-1439.49 L-13939.8,-1420.56 L-13939.8,-1402.96 L-13939.7,-1402.76"/>
</g>

<g fill="none" stroke="#000000" stroke-opacity="1" stroke-width="1" stroke-linecap="square" stroke-linejoin="bevel" transform="matrix(0.985296,0,0,-0.985296,13735.3,-1380.64)"
font-family="MS Shell Dlg 2" font-size="10.3125" font-weight="400" font-style="normal" 
>
</g>

<g fill="none" stroke="#000000" stroke-opacity="1" stroke-width="1" stroke-linecap="square" stroke-linejoin="bevel" transform="matrix(0.985296,0,0,-0.985296,13735.3,-1380.64)"
font-family="MS Shell Dlg 2" font-size="10.3125" font-weight="400" font-style="normal" 
>
</g>

<g fill="#ae5151" fill-opacity="0.2" stroke="#333333" stroke-opacity="1" stroke-width="1" stroke-linecap="round" stroke-linejoin="round" transform="matrix(0.985296,0,0,-0.985296,13735.3,-1380.64)"
font-family="MS Shell Dlg 2" font-size="10.3125" font-weight="400" font-style="normal" 
>
<path vector-effect="non-scaling-stroke" fill-rule="evenodd" d="M-13939.7,-1402.76 L-12343.8,-1402.76 L-12343.8,-1402.96 L-12343.8,-1420.56 L-12347.5,-1439.49 L-12358.2,-1455.38 L-12374,-1465.99 L-12393,-1469.76 L-13890.6,-1469.76 L-13909.5,-1465.99 L-13925.4,-1455.38 L-13936,-1439.49 L-13939.8,-1420.56 L-13939.8,-1402.96 L-13939.7,-1402.76"/>
</g>

<g fill="none" stroke="#000000" stroke-opacity="1" stroke-width="1" stroke-linecap="square" stroke-linejoin="bevel" transform="matrix(0.985296,0,0,-0.985296,13735.3,-1380.64)"
font-family="MS Shell Dlg 2" font-size="10.3125" font-weight="400" font-style="normal" 
>
</g>

<g fill="none" stroke="#000000" stroke-opacity="1" stroke-width="1" stroke-linecap="square" stroke-linejoin="bevel" transform="matrix(0.985296,0,0,-0.985296,13735.3,-1380.64)"
font-family="MS Shell Dlg 2" font-size="10.3125" font-weight="400" font-style="normal" 
>
</g>

<g fill="#333333" fill-opacity="0.2" stroke="#333333" stroke-opacity="1" stroke-width="1" stroke-linecap="round" stroke-linejoin="round" transform="matrix(0.985296,0,0,-0.985296,13735.3,-1380.64)"
font-family="MS Shell Dlg 2" font-size="10.3125" font-weight="400" font-style="normal" 
>
<path vector-effect="non-scaling-stroke" fill-rule="evenodd" d="M-13939.7,-1402.76 L-12343.8,-1402.76 L-12343.8,-1402.96 L-12343.8,-1420.56 L-12347.5,-1439.49 L-12358.2,-1455.38 L-12374,-1465.99 L-12393,-1469.76 L-13890.6,-1469.76 L-13909.5,-1465.99 L-13925.4,-1455.38 L-13936,-1439.49 L-13939.8,-1420.56 L-13939.8,-1402.96 L-13939.7,-1402.76"/>
</g>

<g fill="none" stroke="#000000" stroke-opacity="1" stroke-width="1" stroke-linecap="square" stroke-linejoin="bevel" transform="matrix(0.985296,0,0,-0.985296,13735.3,-1380.64)"
font-family="MS Shell Dlg 2" font-size="10.3125" font-weight="400" font-style="normal" 
>
</g>

<g fill="none" stroke="#000000" stroke-opacity="1" stroke-width="1" stroke-linecap="square" stroke-linejoin="bevel" transform="matrix(1,0,0,-1,0,67.9999)"
font-family="MS Shell Dlg 2" font-size="10.3125" font-weight="400" font-style="normal" 
>
</g>
</g>
</svg>
