<?xml version="1.0" encoding="UTF-8" standalone="no"?>
<svg width="154.658mm" height="705.273mm"
 xmlns="http://www.w3.org/2000/svg" xmlns:xlink="http://www.w3.org/1999/xlink"  version="1.2" baseProfile="tiny">
<title>SVG Generator Example Drawing</title>
<desc>An SVG drawing created by the SVG Generator</desc>
<defs>
</defs>
<g fill="none" stroke="black" stroke-width="1" fill-rule="evenodd" stroke-linecap="square" stroke-linejoin="bevel" >

<g fill="none" stroke="#000000" stroke-opacity="1" stroke-width="1" stroke-linecap="square" stroke-linejoin="bevel" transform="matrix(1,0,0,-1,0,2499)"
font-family="MS Shell Dlg 2" font-size="10.3125" font-weight="400" font-style="normal" 
>
</g>

<g fill="none" stroke="#000000" stroke-opacity="1" stroke-width="1" stroke-linecap="square" stroke-linejoin="bevel" transform="matrix(1,0,0,-1,0,2499)"
font-family="MS Shell Dlg 2" font-size="10.3125" font-weight="400" font-style="normal" 
>
</g>

<g fill="none" stroke="#000000" stroke-opacity="1" stroke-width="1" stroke-linecap="square" stroke-linejoin="bevel" transform="matrix(0.999964,0,0,-0.999964,12890.8,1547.78)"
font-family="MS Shell Dlg 2" font-size="10.3125" font-weight="400" font-style="normal" 
>
</g>

<g fill="#333333" fill-opacity="0.2" stroke="#333333" stroke-opacity="1" stroke-width="1" stroke-linecap="round" stroke-linejoin="round" transform="matrix(0.999964,0,0,-0.999964,12890.8,1547.78)"
font-family="MS Shell Dlg 2" font-size="10.3125" font-weight="400" font-style="normal" 
>
<path vector-effect="non-scaling-stroke" fill-rule="evenodd" d="M-12890.8,1547.24 L-12343.8,1547.24 L-12343.8,1547.04 L-12343.8,1538.13 L-12343.8,1499.43 L-12343.8,1499.24 L-12691.7,1499.24 L-12691.9,1499.22 L-12691.9,1499.21 L-12692.3,1499.06 L-12692.3,1499.04 L-12692.6,1498.77 L-12692.6,1498.73 L-12692.8,1498.37 L-12692.8,1498.33 L-12692.8,1498.13 L-12692.8,-901.649 L-12692.8,-901.844 L-12692.8,-901.891 L-12692.6,-902.251 L-12692.6,-902.283 L-12692.3,-902.559 L-12692.3,-902.58 L-12691.9,-902.73 L-12691.9,-902.739 L-12691.7,-902.758 L-12343.8,-902.758 L-12343.8,-902.955 L-12343.8,-950.561 L-12343.8,-950.758 L-12890.8,-950.758 L-12890.8,1547.24"/>
</g>

<g fill="none" stroke="#000000" stroke-opacity="1" stroke-width="1" stroke-linecap="square" stroke-linejoin="bevel" transform="matrix(0.999964,0,0,-0.999964,12890.8,1547.78)"
font-family="MS Shell Dlg 2" font-size="10.3125" font-weight="400" font-style="normal" 
>
</g>

<g fill="none" stroke="#000000" stroke-opacity="1" stroke-width="1" stroke-linecap="square" stroke-linejoin="bevel" transform="matrix(0.999964,0,0,-0.999964,12890.8,1547.78)"
font-family="MS Shell Dlg 2" font-size="10.3125" font-weight="400" font-style="normal" 
>
</g>

<g fill="#ae5151" fill-opacity="0.2" stroke="#333333" stroke-opacity="1" stroke-width="1" stroke-linecap="round" stroke-linejoin="round" transform="matrix(0.999964,0,0,-0.999964,12890.8,1547.78)"
font-family="MS Shell Dlg 2" font-size="10.3125" font-weight="400" font-style="normal" 
>
<path vector-effect="non-scaling-stroke" fill-rule="evenodd" d="M-12890.8,1547.24 L-12343.8,1547.24 L-12343.8,1547.04 L-12343.8,1538.13 L-12343.8,1499.43 L-12343.8,1499.24 L-12691.7,1499.24 L-12691.9,1499.22 L-12691.9,1499.21 L-12692.3,1499.06 L-12692.3,1499.04 L-12692.6,1498.77 L-12692.6,1498.73 L-12692.8,1498.37 L-12692.8,1498.33 L-12692.8,1498.13 L-12692.8,-901.649 L-12692.8,-901.844 L-12692.8,-901.891 L-12692.6,-902.251 L-12692.6,-902.283 L-12692.3,-902.559 L-12692.3,-902.58 L-12691.9,-902.73 L-12691.9,-902.739 L-12691.7,-902.758 L-12343.8,-902.758 L-12343.8,-902.955 L-12343.8,-950.561 L-12343.8,-950.758 L-12890.8,-950.758 L-12890.8,1547.24"/>
</g>

<g fill="none" stroke="#000000" stroke-opacity="1" stroke-width="1" stroke-linecap="square" stroke-linejoin="bevel" transform="matrix(0.999964,0,0,-0.999964,12890.8,1547.78)"
font-family="MS Shell Dlg 2" font-size="10.3125" font-weight="400" font-style="normal" 
>
</g>

<g fill="none" stroke="#000000" stroke-opacity="1" stroke-width="1" stroke-linecap="square" stroke-linejoin="bevel" transform="matrix(0.999964,0,0,-0.999964,12890.8,1547.78)"
font-family="MS Shell Dlg 2" font-size="10.3125" font-weight="400" font-style="normal" 
>
</g>

<g fill="#ffff00" fill-opacity="0.2" stroke="#333333" stroke-opacity="1" stroke-width="1" stroke-linecap="round" stroke-linejoin="round" transform="matrix(0.999964,0,0,-0.999964,12890.8,1547.78)"
font-family="MS Shell Dlg 2" font-size="10.3125" font-weight="400" font-style="normal" 
>
<path vector-effect="non-scaling-stroke" fill-rule="evenodd" d="M-12890.8,1547.24 L-12343.8,1547.24 L-12343.8,1547.04 L-12343.8,1538.13 L-12343.8,1499.43 L-12343.8,1499.24 L-12691.7,1499.24 L-12691.9,1499.22 L-12691.9,1499.21 L-12692.3,1499.06 L-12692.3,1499.04 L-12692.6,1498.77 L-12692.6,1498.73 L-12692.8,1498.37 L-12692.8,1498.33 L-12692.8,1498.13 L-12692.8,-901.649 L-12692.8,-901.844 L-12692.8,-901.891 L-12692.6,-902.251 L-12692.6,-902.283 L-12692.3,-902.559 L-12692.3,-902.58 L-12691.9,-902.73 L-12691.9,-902.739 L-12691.7,-902.758 L-12343.8,-902.758 L-12343.8,-902.955 L-12343.8,-950.561 L-12343.8,-950.758 L-12890.8,-950.758 L-12890.8,1547.24"/>
</g>

<g fill="none" stroke="#000000" stroke-opacity="1" stroke-width="1" stroke-linecap="square" stroke-linejoin="bevel" transform="matrix(0.999964,0,0,-0.999964,12890.8,1547.78)"
font-family="MS Shell Dlg 2" font-size="10.3125" font-weight="400" font-style="normal" 
>
</g>

<g fill="none" stroke="#000000" stroke-opacity="1" stroke-width="1" stroke-linecap="square" stroke-linejoin="bevel" transform="matrix(0.999964,0,0,-0.999964,12890.8,1547.78)"
font-family="MS Shell Dlg 2" font-size="10.3125" font-weight="400" font-style="normal" 
>
</g>

<g fill="#ae5151" fill-opacity="0.2" stroke="#333333" stroke-opacity="1" stroke-width="1" stroke-linecap="round" stroke-linejoin="round" transform="matrix(0.999964,0,0,-0.999964,12890.8,1547.78)"
font-family="MS Shell Dlg 2" font-size="10.3125" font-weight="400" font-style="normal" 
>
<path vector-effect="non-scaling-stroke" fill-rule="evenodd" d="M-12890.8,1547.24 L-12343.8,1547.24 L-12343.8,1547.04 L-12343.8,1538.13 L-12343.8,1499.43 L-12343.8,1499.24 L-12691.7,1499.24 L-12691.9,1499.22 L-12691.9,1499.21 L-12692.3,1499.06 L-12692.3,1499.04 L-12692.6,1498.77 L-12692.6,1498.73 L-12692.8,1498.37 L-12692.8,1498.33 L-12692.8,1498.13 L-12692.8,-901.649 L-12692.8,-901.844 L-12692.8,-901.891 L-12692.6,-902.251 L-12692.6,-902.283 L-12692.3,-902.559 L-12692.3,-902.58 L-12691.9,-902.73 L-12691.9,-902.739 L-12691.7,-902.758 L-12343.8,-902.758 L-12343.8,-902.955 L-12343.8,-950.561 L-12343.8,-950.758 L-12890.8,-950.758 L-12890.8,1547.24"/>
</g>

<g fill="none" stroke="#000000" stroke-opacity="1" stroke-width="1" stroke-linecap="square" stroke-linejoin="bevel" transform="matrix(0.999964,0,0,-0.999964,12890.8,1547.78)"
font-family="MS Shell Dlg 2" font-size="10.3125" font-weight="400" font-style="normal" 
>
</g>

<g fill="none" stroke="#000000" stroke-opacity="1" stroke-width="1" stroke-linecap="square" stroke-linejoin="bevel" transform="matrix(0.999964,0,0,-0.999964,12890.8,1547.78)"
font-family="MS Shell Dlg 2" font-size="10.3125" font-weight="400" font-style="normal" 
>
</g>

<g fill="#333333" fill-opacity="0.2" stroke="#333333" stroke-opacity="1" stroke-width="1" stroke-linecap="round" stroke-linejoin="round" transform="matrix(0.999964,0,0,-0.999964,12890.8,1547.78)"
font-family="MS Shell Dlg 2" font-size="10.3125" font-weight="400" font-style="normal" 
>
<path vector-effect="non-scaling-stroke" fill-rule="evenodd" d="M-12890.8,1547.24 L-12343.8,1547.24 L-12343.8,1547.04 L-12343.8,1538.13 L-12343.8,1499.43 L-12343.8,1499.24 L-12691.7,1499.24 L-12691.9,1499.22 L-12691.9,1499.21 L-12692.3,1499.06 L-12692.3,1499.04 L-12692.6,1498.77 L-12692.6,1498.73 L-12692.8,1498.37 L-12692.8,1498.33 L-12692.8,1498.13 L-12692.8,-901.649 L-12692.8,-901.844 L-12692.8,-901.891 L-12692.6,-902.251 L-12692.6,-902.283 L-12692.3,-902.559 L-12692.3,-902.58 L-12691.9,-902.73 L-12691.9,-902.739 L-12691.7,-902.758 L-12343.8,-902.758 L-12343.8,-902.955 L-12343.8,-950.561 L-12343.8,-950.758 L-12890.8,-950.758 L-12890.8,1547.24"/>
</g>

<g fill="none" stroke="#000000" stroke-opacity="1" stroke-width="1" stroke-linecap="square" stroke-linejoin="bevel" transform="matrix(0.999964,0,0,-0.999964,12890.8,1547.78)"
font-family="MS Shell Dlg 2" font-size="10.3125" font-weight="400" font-style="normal" 
>
</g>

<g fill="none" stroke="#000000" stroke-opacity="1" stroke-width="1" stroke-linecap="square" stroke-linejoin="bevel" transform="matrix(1,0,0,-1,0,2499)"
font-family="MS Shell Dlg 2" font-size="10.3125" font-weight="400" font-style="normal" 
>
</g>
</g>
</svg>
