<?xml version="1.0" encoding="UTF-8" standalone="no"?>
<svg width="1986mm" height="251.178mm"
 xmlns="http://www.w3.org/2000/svg" xmlns:xlink="http://www.w3.org/1999/xlink"  version="1.2" baseProfile="tiny">
<title>SVG Generator Example Drawing</title>
<desc>An SVG drawing created by the SVG Generator</desc>
<defs>
</defs>
<g fill="none" stroke="black" stroke-width="1" fill-rule="evenodd" stroke-linecap="square" stroke-linejoin="bevel" >

<g fill="none" stroke="#000000" stroke-opacity="1" stroke-width="1" stroke-linecap="square" stroke-linejoin="bevel" transform="matrix(1,0,0,-1,0,890.03)"
font-family="MS Shell Dlg 2" font-size="10.3125" font-weight="400" font-style="normal" 
>
</g>

<g fill="none" stroke="#000000" stroke-opacity="1" stroke-width="1" stroke-linecap="square" stroke-linejoin="bevel" transform="matrix(1,0,0,-1,0,890.03)"
font-family="MS Shell Dlg 2" font-size="10.3125" font-weight="400" font-style="normal" 
>
</g>

<g fill="none" stroke="#000000" stroke-opacity="1" stroke-width="1" stroke-linecap="square" stroke-linejoin="bevel" transform="matrix(0.999913,0,0,-0.999913,13504.2,7854.14)"
font-family="MS Shell Dlg 2" font-size="10.3125" font-weight="400" font-style="normal" 
>
</g>

<g fill="#333333" fill-opacity="0.2" stroke="#333333" stroke-opacity="1" stroke-width="1" stroke-linecap="round" stroke-linejoin="round" transform="matrix(0.999913,0,0,-0.999913,13504.2,7854.14)"
font-family="MS Shell Dlg 2" font-size="10.3125" font-weight="400" font-style="normal" 
>
<path vector-effect="non-scaling-stroke" fill-rule="evenodd" d="M-13504.9,7483.34 L-12466.3,7851.38 L-12449.1,7854.25 L-7812.5,7808.88 L-7817.62,7439.69 L-7817.62,7439.59 L-7817.62,7439.56 L-7817.6,7439.46 L-7799.91,7343.58 L-7799.86,7343.39 L-7799.84,7343.34 L-7799.75,7343.17 L-7746.72,7261.37 L-7746.6,7261.21 L-7746.56,7261.17 L-7746.41,7261.04 L-7666.11,7205.76 L-7665.94,7205.67 L-7665.88,7205.65 L-7665.7,7205.59 L-7570.36,7185.24 L-7570.16,7185.22 L-7570.1,7185.22 L-7569.91,7185.24 L-7474.04,7202.92 L-7473.85,7202.98 L-7473.8,7203 L-7473.63,7203.09 L-7391.82,7256.12 L-7391.67,7256.24 L-7391.63,7256.28 L-7391.5,7256.43 L-7336.22,7336.73 L-7336.13,7336.9 L-7336.1,7336.95 L-7336.05,7337.14 L-7315.7,7432.49 L-7315.68,7432.59 L-7315.68,7432.62 L-7315.67,7432.72 L-7310.52,7803.97 L-6517.03,7796.2 L-6498.14,7792.26 L-6482.37,7781.51 L-6471.91,7765.54 L-6468.46,7747.35 L-6468.43,7747.24 L-6468.42,7747.21 L-6468.38,7747.1 L-6468.27,7746.85 L-6860.29,7749.71 L-6860.49,7749.7 L-6860.54,7749.69 L-6860.9,7749.54 L-6860.93,7749.52 L-6861.21,7749.24 L-6861.23,7749.21 L-6861.38,7748.85 L-6861.39,7748.8 L-6861.41,7748.6 L-6861.41,6990.13 L-9065.78,6981.75 L-9065.78,7142.21 L-8691.89,7142.21 L-8691.7,7142.23 L-8691.65,7142.24 L-8691.29,7142.39 L-8691.26,7142.41 L-8690.98,7142.68 L-8690.96,7142.72 L-8690.81,7143.08 L-8690.8,7143.12 L-8690.78,7143.32 L-8690.78,7543.1 L-8690.8,7543.29 L-8690.81,7543.34 L-8690.96,7543.7 L-8690.98,7543.73 L-8691.26,7544.01 L-8691.29,7544.03 L-8691.65,7544.18 L-8691.7,7544.19 L-8691.89,7544.21 L-10191.7,7544.21 L-10191.9,7544.19 L-10191.9,7544.18 L-10192.3,7544.03 L-10192.3,7544.01 L-10192.6,7543.73 L-10192.6,7543.7 L-10192.8,7543.34 L-10192.8,7543.29 L-10192.8,7543.1 L-10192.8,7143.32 L-10192.8,7143.12 L-10192.8,7143.08 L-10192.6,7142.72 L-10192.6,7142.68 L-10192.3,7142.41 L-10192.3,7142.39 L-10191.9,7142.24 L-10191.9,7142.23 L-10191.7,7142.21 L-9817.78,7142.21 L-9817.78,6978.9 L-13416.4,6965.22 L-13504.9,7483.34"/>
</g>

<g fill="none" stroke="#000000" stroke-opacity="1" stroke-width="1" stroke-linecap="square" stroke-linejoin="bevel" transform="matrix(0.999913,0,0,-0.999913,13504.2,7854.14)"
font-family="MS Shell Dlg 2" font-size="10.3125" font-weight="400" font-style="normal" 
>
</g>

<g fill="none" stroke="#000000" stroke-opacity="1" stroke-width="1" stroke-linecap="square" stroke-linejoin="bevel" transform="matrix(0.999913,0,0,-0.999913,13504.2,7854.14)"
font-family="MS Shell Dlg 2" font-size="10.3125" font-weight="400" font-style="normal" 
>
</g>

<g fill="#ae5151" fill-opacity="0.2" stroke="#333333" stroke-opacity="1" stroke-width="1" stroke-linecap="round" stroke-linejoin="round" transform="matrix(0.999913,0,0,-0.999913,13504.2,7854.14)"
font-family="MS Shell Dlg 2" font-size="10.3125" font-weight="400" font-style="normal" 
>
<path vector-effect="non-scaling-stroke" fill-rule="evenodd" d="M-13504.9,7483.34 L-12466.3,7851.38 L-12449.1,7854.25 L-7812.5,7808.88 L-7817.62,7439.69 L-7817.62,7439.59 L-7817.62,7439.56 L-7817.6,7439.46 L-7799.91,7343.58 L-7799.86,7343.39 L-7799.84,7343.34 L-7799.75,7343.17 L-7746.72,7261.37 L-7746.6,7261.21 L-7746.56,7261.17 L-7746.41,7261.04 L-7666.11,7205.76 L-7665.94,7205.67 L-7665.88,7205.65 L-7665.7,7205.59 L-7570.36,7185.24 L-7570.16,7185.22 L-7570.1,7185.22 L-7569.91,7185.24 L-7474.04,7202.92 L-7473.85,7202.98 L-7473.8,7203 L-7473.63,7203.09 L-7391.82,7256.12 L-7391.67,7256.24 L-7391.63,7256.28 L-7391.5,7256.43 L-7336.22,7336.73 L-7336.13,7336.9 L-7336.1,7336.95 L-7336.05,7337.14 L-7315.7,7432.49 L-7315.68,7432.59 L-7315.68,7432.62 L-7315.67,7432.72 L-7310.52,7803.97 L-6517.03,7796.2 L-6498.14,7792.26 L-6482.37,7781.51 L-6471.91,7765.54 L-6468.46,7747.35 L-6468.43,7747.24 L-6468.42,7747.21 L-6468.38,7747.1 L-6468.27,7746.85 L-6860.29,7749.71 L-6860.49,7749.7 L-6860.54,7749.69 L-6860.9,7749.54 L-6860.93,7749.52 L-6861.21,7749.24 L-6861.23,7749.21 L-6861.38,7748.85 L-6861.39,7748.8 L-6861.41,7748.6 L-6861.41,6990.13 L-9065.78,6981.75 L-9065.78,7142.21 L-8691.89,7142.21 L-8691.7,7142.23 L-8691.65,7142.24 L-8691.29,7142.39 L-8691.26,7142.41 L-8690.98,7142.68 L-8690.96,7142.72 L-8690.81,7143.08 L-8690.8,7143.12 L-8690.78,7143.32 L-8690.78,7543.1 L-8690.8,7543.29 L-8690.81,7543.34 L-8690.96,7543.7 L-8690.98,7543.73 L-8691.26,7544.01 L-8691.29,7544.03 L-8691.65,7544.18 L-8691.7,7544.19 L-8691.89,7544.21 L-10191.7,7544.21 L-10191.9,7544.19 L-10191.9,7544.18 L-10192.3,7544.03 L-10192.3,7544.01 L-10192.6,7543.73 L-10192.6,7543.7 L-10192.8,7543.34 L-10192.8,7543.29 L-10192.8,7543.1 L-10192.8,7143.32 L-10192.8,7143.12 L-10192.8,7143.08 L-10192.6,7142.72 L-10192.6,7142.68 L-10192.3,7142.41 L-10192.3,7142.39 L-10191.9,7142.24 L-10191.9,7142.23 L-10191.7,7142.21 L-9817.78,7142.21 L-9817.78,6978.9 L-13416.4,6965.22 L-13504.9,7483.34"/>
</g>

<g fill="none" stroke="#000000" stroke-opacity="1" stroke-width="1" stroke-linecap="square" stroke-linejoin="bevel" transform="matrix(0.999913,0,0,-0.999913,13504.2,7854.14)"
font-family="MS Shell Dlg 2" font-size="10.3125" font-weight="400" font-style="normal" 
>
</g>

<g fill="none" stroke="#000000" stroke-opacity="1" stroke-width="1" stroke-linecap="square" stroke-linejoin="bevel" transform="matrix(0.999913,0,0,-0.999913,13504.2,7854.14)"
font-family="MS Shell Dlg 2" font-size="10.3125" font-weight="400" font-style="normal" 
>
</g>

<g fill="#ffff00" fill-opacity="0.2" stroke="#333333" stroke-opacity="1" stroke-width="1" stroke-linecap="round" stroke-linejoin="round" transform="matrix(0.999913,0,0,-0.999913,13504.2,7854.14)"
font-family="MS Shell Dlg 2" font-size="10.3125" font-weight="400" font-style="normal" 
>
<path vector-effect="non-scaling-stroke" fill-rule="evenodd" d="M-13504.9,7483.34 L-12466.3,7851.38 L-12449.1,7854.25 L-7812.5,7808.88 L-7817.62,7439.69 L-7817.62,7439.59 L-7817.62,7439.56 L-7817.6,7439.46 L-7799.91,7343.58 L-7799.86,7343.39 L-7799.84,7343.34 L-7799.75,7343.17 L-7746.72,7261.37 L-7746.6,7261.21 L-7746.56,7261.17 L-7746.41,7261.04 L-7666.11,7205.76 L-7665.94,7205.67 L-7665.88,7205.65 L-7665.7,7205.59 L-7570.36,7185.24 L-7570.16,7185.22 L-7570.1,7185.22 L-7569.91,7185.24 L-7474.04,7202.92 L-7473.85,7202.98 L-7473.8,7203 L-7473.63,7203.09 L-7391.82,7256.12 L-7391.67,7256.24 L-7391.63,7256.28 L-7391.5,7256.43 L-7336.22,7336.73 L-7336.13,7336.9 L-7336.1,7336.95 L-7336.05,7337.14 L-7315.7,7432.49 L-7315.68,7432.59 L-7315.68,7432.62 L-7315.67,7432.72 L-7310.52,7803.97 L-6517.03,7796.2 L-6498.14,7792.26 L-6482.37,7781.51 L-6471.91,7765.54 L-6468.46,7747.35 L-6468.43,7747.24 L-6468.42,7747.21 L-6468.38,7747.1 L-6468.27,7746.85 L-6860.29,7749.71 L-6860.49,7749.7 L-6860.54,7749.69 L-6860.9,7749.54 L-6860.93,7749.52 L-6861.21,7749.24 L-6861.23,7749.21 L-6861.38,7748.85 L-6861.39,7748.8 L-6861.41,7748.6 L-6861.41,6990.13 L-9065.78,6981.75 L-9065.78,7142.21 L-8691.89,7142.21 L-8691.7,7142.23 L-8691.65,7142.24 L-8691.29,7142.39 L-8691.26,7142.41 L-8690.98,7142.68 L-8690.96,7142.72 L-8690.81,7143.08 L-8690.8,7143.12 L-8690.78,7143.32 L-8690.78,7543.1 L-8690.8,7543.29 L-8690.81,7543.34 L-8690.96,7543.7 L-8690.98,7543.73 L-8691.26,7544.01 L-8691.29,7544.03 L-8691.65,7544.18 L-8691.7,7544.19 L-8691.89,7544.21 L-10191.7,7544.21 L-10191.9,7544.19 L-10191.9,7544.18 L-10192.3,7544.03 L-10192.3,7544.01 L-10192.6,7543.73 L-10192.6,7543.7 L-10192.8,7543.34 L-10192.8,7543.29 L-10192.8,7543.1 L-10192.8,7143.32 L-10192.8,7143.12 L-10192.8,7143.08 L-10192.6,7142.72 L-10192.6,7142.68 L-10192.3,7142.41 L-10192.3,7142.39 L-10191.9,7142.24 L-10191.9,7142.23 L-10191.7,7142.21 L-9817.78,7142.21 L-9817.78,6978.9 L-13416.4,6965.22 L-13504.9,7483.34"/>
</g>

<g fill="none" stroke="#000000" stroke-opacity="1" stroke-width="1" stroke-linecap="square" stroke-linejoin="bevel" transform="matrix(0.999913,0,0,-0.999913,13504.2,7854.14)"
font-family="MS Shell Dlg 2" font-size="10.3125" font-weight="400" font-style="normal" 
>
</g>

<g fill="none" stroke="#000000" stroke-opacity="1" stroke-width="1" stroke-linecap="square" stroke-linejoin="bevel" transform="matrix(0.999913,0,0,-0.999913,13504.2,7854.14)"
font-family="MS Shell Dlg 2" font-size="10.3125" font-weight="400" font-style="normal" 
>
</g>

<g fill="#ae5151" fill-opacity="0.2" stroke="#333333" stroke-opacity="1" stroke-width="1" stroke-linecap="round" stroke-linejoin="round" transform="matrix(0.999913,0,0,-0.999913,13504.2,7854.14)"
font-family="MS Shell Dlg 2" font-size="10.3125" font-weight="400" font-style="normal" 
>
<path vector-effect="non-scaling-stroke" fill-rule="evenodd" d="M-13504.9,7483.34 L-12466.3,7851.38 L-12449.1,7854.25 L-7812.5,7808.88 L-7817.62,7439.69 L-7817.62,7439.59 L-7817.62,7439.56 L-7817.6,7439.46 L-7799.91,7343.58 L-7799.86,7343.39 L-7799.84,7343.34 L-7799.75,7343.17 L-7746.72,7261.37 L-7746.6,7261.21 L-7746.56,7261.17 L-7746.41,7261.04 L-7666.11,7205.76 L-7665.94,7205.67 L-7665.88,7205.65 L-7665.7,7205.59 L-7570.36,7185.24 L-7570.16,7185.22 L-7570.1,7185.22 L-7569.91,7185.24 L-7474.04,7202.92 L-7473.85,7202.98 L-7473.8,7203 L-7473.63,7203.09 L-7391.82,7256.12 L-7391.67,7256.24 L-7391.63,7256.28 L-7391.5,7256.43 L-7336.22,7336.73 L-7336.13,7336.9 L-7336.1,7336.95 L-7336.05,7337.14 L-7315.7,7432.49 L-7315.68,7432.59 L-7315.68,7432.62 L-7315.67,7432.72 L-7310.52,7803.97 L-6517.03,7796.2 L-6498.14,7792.26 L-6482.37,7781.51 L-6471.91,7765.54 L-6468.46,7747.35 L-6468.43,7747.24 L-6468.42,7747.21 L-6468.38,7747.1 L-6468.27,7746.85 L-6860.29,7749.71 L-6860.49,7749.7 L-6860.54,7749.69 L-6860.9,7749.54 L-6860.93,7749.52 L-6861.21,7749.24 L-6861.23,7749.21 L-6861.38,7748.85 L-6861.39,7748.8 L-6861.41,7748.6 L-6861.41,6990.13 L-9065.78,6981.75 L-9065.78,7142.21 L-8691.89,7142.21 L-8691.7,7142.23 L-8691.65,7142.24 L-8691.29,7142.39 L-8691.26,7142.41 L-8690.98,7142.68 L-8690.96,7142.72 L-8690.81,7143.08 L-8690.8,7143.12 L-8690.78,7143.32 L-8690.78,7543.1 L-8690.8,7543.29 L-8690.81,7543.34 L-8690.96,7543.7 L-8690.98,7543.73 L-8691.26,7544.01 L-8691.29,7544.03 L-8691.65,7544.18 L-8691.7,7544.19 L-8691.89,7544.21 L-10191.7,7544.21 L-10191.9,7544.19 L-10191.9,7544.18 L-10192.3,7544.03 L-10192.3,7544.01 L-10192.6,7543.73 L-10192.6,7543.7 L-10192.8,7543.34 L-10192.8,7543.29 L-10192.8,7543.1 L-10192.8,7143.32 L-10192.8,7143.12 L-10192.8,7143.08 L-10192.6,7142.72 L-10192.6,7142.68 L-10192.3,7142.41 L-10192.3,7142.39 L-10191.9,7142.24 L-10191.9,7142.23 L-10191.7,7142.21 L-9817.78,7142.21 L-9817.78,6978.9 L-13416.4,6965.22 L-13504.9,7483.34"/>
</g>

<g fill="none" stroke="#000000" stroke-opacity="1" stroke-width="1" stroke-linecap="square" stroke-linejoin="bevel" transform="matrix(0.999913,0,0,-0.999913,13504.2,7854.14)"
font-family="MS Shell Dlg 2" font-size="10.3125" font-weight="400" font-style="normal" 
>
</g>

<g fill="none" stroke="#000000" stroke-opacity="1" stroke-width="1" stroke-linecap="square" stroke-linejoin="bevel" transform="matrix(0.999913,0,0,-0.999913,13504.2,7854.14)"
font-family="MS Shell Dlg 2" font-size="10.3125" font-weight="400" font-style="normal" 
>
</g>

<g fill="#333333" fill-opacity="0.2" stroke="#333333" stroke-opacity="1" stroke-width="1" stroke-linecap="round" stroke-linejoin="round" transform="matrix(0.999913,0,0,-0.999913,13504.2,7854.14)"
font-family="MS Shell Dlg 2" font-size="10.3125" font-weight="400" font-style="normal" 
>
<path vector-effect="non-scaling-stroke" fill-rule="evenodd" d="M-13504.9,7483.34 L-12466.3,7851.38 L-12449.1,7854.25 L-7812.5,7808.88 L-7817.62,7439.69 L-7817.62,7439.59 L-7817.62,7439.56 L-7817.6,7439.46 L-7799.91,7343.58 L-7799.86,7343.39 L-7799.84,7343.34 L-7799.75,7343.17 L-7746.72,7261.37 L-7746.6,7261.21 L-7746.56,7261.17 L-7746.41,7261.04 L-7666.11,7205.76 L-7665.94,7205.67 L-7665.88,7205.65 L-7665.7,7205.59 L-7570.36,7185.24 L-7570.16,7185.22 L-7570.1,7185.22 L-7569.91,7185.24 L-7474.04,7202.92 L-7473.85,7202.98 L-7473.8,7203 L-7473.63,7203.09 L-7391.82,7256.12 L-7391.67,7256.24 L-7391.63,7256.28 L-7391.5,7256.43 L-7336.22,7336.73 L-7336.13,7336.9 L-7336.1,7336.95 L-7336.05,7337.14 L-7315.7,7432.49 L-7315.68,7432.59 L-7315.68,7432.62 L-7315.67,7432.72 L-7310.52,7803.97 L-6517.03,7796.2 L-6498.14,7792.26 L-6482.37,7781.51 L-6471.91,7765.54 L-6468.46,7747.35 L-6468.43,7747.24 L-6468.42,7747.21 L-6468.38,7747.1 L-6468.27,7746.85 L-6860.29,7749.71 L-6860.49,7749.7 L-6860.54,7749.69 L-6860.9,7749.54 L-6860.93,7749.52 L-6861.21,7749.24 L-6861.23,7749.21 L-6861.38,7748.85 L-6861.39,7748.8 L-6861.41,7748.6 L-6861.41,6990.13 L-9065.78,6981.75 L-9065.78,7142.21 L-8691.89,7142.21 L-8691.7,7142.23 L-8691.65,7142.24 L-8691.29,7142.39 L-8691.26,7142.41 L-8690.98,7142.68 L-8690.96,7142.72 L-8690.81,7143.08 L-8690.8,7143.12 L-8690.78,7143.32 L-8690.78,7543.1 L-8690.8,7543.29 L-8690.81,7543.34 L-8690.96,7543.7 L-8690.98,7543.73 L-8691.26,7544.01 L-8691.29,7544.03 L-8691.65,7544.18 L-8691.7,7544.19 L-8691.89,7544.21 L-10191.7,7544.21 L-10191.9,7544.19 L-10191.9,7544.18 L-10192.3,7544.03 L-10192.3,7544.01 L-10192.6,7543.73 L-10192.6,7543.7 L-10192.8,7543.34 L-10192.8,7543.29 L-10192.8,7543.1 L-10192.8,7143.32 L-10192.8,7143.12 L-10192.8,7143.08 L-10192.6,7142.72 L-10192.6,7142.68 L-10192.3,7142.41 L-10192.3,7142.39 L-10191.9,7142.24 L-10191.9,7142.23 L-10191.7,7142.21 L-9817.78,7142.21 L-9817.78,6978.9 L-13416.4,6965.22 L-13504.9,7483.34"/>
</g>

<g fill="none" stroke="#000000" stroke-opacity="1" stroke-width="1" stroke-linecap="square" stroke-linejoin="bevel" transform="matrix(0.999913,0,0,-0.999913,13504.2,7854.14)"
font-family="MS Shell Dlg 2" font-size="10.3125" font-weight="400" font-style="normal" 
>
</g>

<g fill="none" stroke="#000000" stroke-opacity="1" stroke-width="1" stroke-linecap="square" stroke-linejoin="bevel" transform="matrix(1,0,0,-1,0,890.03)"
font-family="MS Shell Dlg 2" font-size="10.3125" font-weight="400" font-style="normal" 
>
</g>
</g>
</svg>
