<?xml version="1.0" encoding="UTF-8" standalone="no"?>
<svg width="1854.2mm" height="786.836mm"
 xmlns="http://www.w3.org/2000/svg" xmlns:xlink="http://www.w3.org/1999/xlink"  version="1.2" baseProfile="tiny">
<title>SVG Generator Example Drawing</title>
<desc>An SVG drawing created by the SVG Generator</desc>
<defs>
</defs>
<g fill="none" stroke="black" stroke-width="1" fill-rule="evenodd" stroke-linecap="square" stroke-linejoin="bevel" >

<g fill="none" stroke="#000000" stroke-opacity="1" stroke-width="1" stroke-linecap="square" stroke-linejoin="bevel" transform="matrix(1,0,0,-1,0,2788.88)"
font-family="MS Shell Dlg 2" font-size="10.3125" font-weight="400" font-style="normal" 
>
</g>

<g fill="none" stroke="#000000" stroke-opacity="1" stroke-width="1" stroke-linecap="square" stroke-linejoin="bevel" transform="matrix(1,0,0,-1,0,2788.88)"
font-family="MS Shell Dlg 2" font-size="10.3125" font-weight="400" font-style="normal" 
>
</g>

<g fill="none" stroke="#000000" stroke-opacity="1" stroke-width="1" stroke-linecap="square" stroke-linejoin="bevel" transform="matrix(0.999683,0,0,-0.999683,13378.2,6787.36)"
font-family="MS Shell Dlg 2" font-size="10.3125" font-weight="400" font-style="normal" 
>
</g>

<g fill="#333333" fill-opacity="0.2" stroke="#333333" stroke-opacity="1" stroke-width="1" stroke-linecap="round" stroke-linejoin="round" transform="matrix(0.999683,0,0,-0.999683,13378.2,6787.36)"
font-family="MS Shell Dlg 2" font-size="10.3125" font-weight="400" font-style="normal" 
>
<path vector-effect="non-scaling-stroke" fill-rule="evenodd" d="M-13382,6763.35 L-9817.78,6776.89 L-9817.78,6644.21 L-10259.2,6644.21 L-10259.4,6644.19 L-10259.4,6644.18 L-10259.8,6644.03 L-10259.8,6644.01 L-10260.1,6643.73 L-10260.1,6643.7 L-10260.3,6643.34 L-10260.3,6643.29 L-10260.3,6643.1 L-10260.3,6282.11 L-10260.3,6183.32 L-10260.3,6183.27 L-10260.3,6183.26 L-10260.3,6183.04 L-10260.3,6182.99 L-10260.1,6182.66 L-10260.1,6182.64 L-10259.8,6182.39 L-10259.8,6182.37 L-10259.4,6182.24 L-10259.4,6182.23 L-10259.2,6182.21 L-9853,6182.21 L-9852.81,6182.23 L-9852.77,6182.24 L-9852.42,6182.37 L-9852.39,6182.39 L-9852.12,6182.64 L-9852.1,6182.66 L-9851.94,6182.99 L-9851.92,6183.04 L-9851.89,6183.26 L-9851.89,6183.27 L-9851.89,6183.32 L-9851.89,6280.72 L-9438.08,6280.35 L-9438.08,6183.32 L-9438.08,6183.27 L-9438.08,6183.26 L-9438.04,6183.04 L-9438.03,6182.99 L-9437.87,6182.66 L-9437.84,6182.64 L-9437.57,6182.39 L-9437.54,6182.37 L-9437.2,6182.24 L-9437.15,6182.23 L-9436.97,6182.21 L-9040.2,6182.21 L-9040.02,6182.23 L-9039.97,6182.24 L-9039.63,6182.37 L-9039.6,6182.39 L-9039.33,6182.64 L-9039.3,6182.66 L-9039.14,6182.99 L-9039.13,6183.04 L-9039.09,6183.26 L-9039.09,6183.27 L-9039.09,6183.32 L-9039.09,6279.99 L-8624.39,6279.61 L-8624.2,6279.63 L-8624.15,6279.64 L-8623.79,6279.79 L-8623.76,6279.81 L-8623.48,6280.08 L-8623.46,6280.12 L-8623.31,6280.48 L-8623.3,6280.52 L-8623.28,6280.72 L-8623.28,6643.1 L-8623.3,6643.29 L-8623.31,6643.34 L-8623.46,6643.7 L-8623.48,6643.73 L-8623.76,6644.01 L-8623.79,6644.03 L-8624.15,6644.18 L-8624.2,6644.19 L-8624.39,6644.21 L-9065.78,6644.21 L-9065.78,6779.75 L-6861.41,6788.13 L-6861.41,4048.35 L-6861.39,4048.16 L-6861.38,4048.11 L-6861.23,4047.75 L-6861.21,4047.72 L-6860.94,4047.44 L-6860.91,4047.42 L-6860.55,4047.27 L-6860.5,4047.26 L-6860.3,4047.24 L-6812.85,4047.24 L-6816.18,4030.51 L-6826.79,4014.62 L-6842.68,4004.01 L-6861.61,4000.24 L-7190.59,4000.24 L-7190.78,4000.28 L-7190.78,5403.1 L-7190.8,5403.29 L-7190.81,5403.34 L-7190.96,5403.7 L-7190.98,5403.73 L-7191.26,5404.01 L-7191.29,5404.03 L-7191.65,5404.18 L-7191.7,5404.19 L-7191.89,5404.21 L-8832.88,5404.21 L-8931.68,5404.21 L-8931.72,5404.21 L-8931.73,5404.21 L-8931.95,5404.17 L-8931.99,5404.16 L-8932.33,5404 L-8932.35,5403.98 L-8932.6,5403.7 L-8932.62,5403.67 L-8932.76,5403.33 L-8932.77,5403.28 L-8932.78,5403.1 L-8932.78,5032.61 L-8932.77,5032.42 L-8932.76,5032.38 L-8932.62,5032.04 L-8932.6,5032 L-8932.35,5031.73 L-8932.33,5031.71 L-8931.99,5031.55 L-8931.95,5031.54 L-8931.73,5031.5 L-8931.72,5031.5 L-8931.68,5031.5 L-8833.88,5031.5 L-8833.88,4560.24 L-9049.77,4560.24 L-9049.77,4603.1 L-9049.79,4603.29 L-9049.8,4603.34 L-9049.95,4603.7 L-9049.97,4603.73 L-9050.25,4604.01 L-9050.28,4604.03 L-9050.64,4604.18 L-9050.69,4604.19 L-9050.88,4604.21 L-9726.8,4604.21 L-9726.8,4652.21 L-9050.85,4652.21 L-9050.8,4652.22 L-9050.79,4652.21 L-9050.77,4652.21 L-9050.73,4652.21 L-9050.72,4652.21 L-9050.68,4652.21 L-8951.89,4652.21 L-8951.85,4652.21 L-8951.84,4652.21 L-8951.62,4652.25 L-8951.57,4652.26 L-8951.24,4652.42 L-8951.21,4652.44 L-8950.96,4652.71 L-8950.94,4652.74 L-8950.81,4653.09 L-8950.8,4653.13 L-8950.78,4653.32 L-8950.78,5023.81 L-8950.8,5023.99 L-8950.81,5024.04 L-8950.94,5024.38 L-8950.96,5024.41 L-8951.21,5024.69 L-8951.24,5024.71 L-8951.57,5024.87 L-8951.62,5024.88 L-8951.84,5024.92 L-8951.85,5024.92 L-8951.89,5024.92 L-9049.77,5024.92 L-9049.77,5496.17 L-8922.47,5496.17 L-8922.28,5496.19 L-8922.23,5496.2 L-8921.88,5496.34 L-8921.85,5496.37 L-8921.57,5496.63 L-8921.55,5496.67 L-8921.45,5496.84 L-8877.62,5596.24 L-7291.57,5596.24 L-7291.48,5596.25 L-7291.45,5596.25 L-7291.36,5596.26 L-7291.04,5596.32 L-7290.86,5596.37 L-7290.81,5596.39 L-7290.64,5596.48 L-7290.38,5596.64 L-7290.23,5596.75 L-7290.19,5596.79 L-7290.06,5596.93 L-7289.87,5597.18 L-7289.78,5597.34 L-7289.75,5597.39 L-7289.69,5597.56 L-7289.6,5597.86 L-7289.57,5598.04 L-7289.57,5598.1 L-7289.57,5598.28 L-7289.6,5598.59 L-7289.63,5598.77 L-7289.65,5598.83 L-7289.72,5599 L-7289.86,5599.28 L-7289.96,5599.44 L-7289.99,5599.48 L-7290.11,5599.61 L-7290.35,5599.82 L-7290.5,5599.93 L-7290.54,5599.96 L-7290.71,5600.04 L-7291.02,5600.16 L-7291.1,5600.19 L-7291.13,5600.19 L-7291.22,5600.21 L-8749.51,5857.35 L-8760.65,5861.49 L-8671.68,6063.25 L-8624.39,6063.21 L-8624.21,6063.23 L-8624.17,6063.23 L-8623.82,6063.37 L-8623.79,6063.39 L-8623.52,6063.63 L-8623.5,6063.66 L-8623.33,6063.99 L-8623.32,6064.03 L-8623.29,6064.26 L-8623.28,6064.27 L-8623.28,6064.32 L-8623.26,6163.1 L-8623.26,6163.15 L-8623.27,6163.15 L-8623.3,6163.38 L-8623.31,6163.42 L-8623.48,6163.75 L-8623.5,6163.78 L-8623.77,6164.03 L-8623.8,6164.05 L-8624.15,6164.18 L-8624.19,6164.19 L-8624.37,6164.21 L-9030.57,6164.21 L-9030.76,6164.19 L-9030.8,6164.18 L-9031.14,6164.05 L-9031.17,6164.03 L-9031.45,6163.78 L-9031.47,6163.75 L-9031.63,6163.42 L-9031.64,6163.38 L-9031.68,6163.15 L-9031.68,6163.15 L-9031.68,6163.1 L-9031.68,6065.59 L-9445.49,6065.96 L-9445.49,6163.1 L-9445.49,6163.15 L-9445.49,6163.15 L-9445.53,6163.38 L-9445.54,6163.42 L-9445.7,6163.75 L-9445.72,6163.78 L-9446,6164.03 L-9446.03,6164.05 L-9446.37,6164.18 L-9446.41,6164.19 L-9446.6,6164.21 L-9843.37,6164.21 L-9843.55,6164.19 L-9843.6,6164.18 L-9843.94,6164.05 L-9843.97,6164.03 L-9844.24,6163.78 L-9844.26,6163.75 L-9844.43,6163.42 L-9844.44,6163.38 L-9844.48,6163.15 L-9844.48,6163.15 L-9844.48,6163.1 L-9844.48,6066.33 L-10295.8,6066.74 L-10296,6066.72 L-10296.1,6066.7 L-10296.4,6066.54 L-10296.5,6066.52 L-10296.7,6066.21 L-10296.8,6066.17 L-10296.9,6065.98 L-10303.2,6047.41 L-10303.6,6047.98 L-10307.3,6066.91 L-10307.3,6130.34 L-10307.3,6130.43 L-10307.3,6130.45 L-10307.3,6130.54 L-10307.4,6130.84 L-10307.4,6131.01 L-10307.4,6131.06 L-10307.5,6131.22 L-10307.7,6131.48 L-10307.8,6131.62 L-10307.8,6131.66 L-10307.9,6131.78 L-10308.2,6131.97 L-10308.3,6132.07 L-10308.3,6132.1 L-10308.5,6132.17 L-10308.8,6132.28 L-10308.9,6132.3 L-10308.9,6132.31 L-10309,6132.33 L-11186.9,6287.12 L-11187,6287.14 L-11187,6287.14 L-11187.2,6287.14 L-11187.6,6287.1 L-11187.8,6287.08 L-11187.8,6287.07 L-11187.9,6287.04 L-13180.1,5581.11 L-13382,6763.35 M-7230.96,5596.25 L-7230.87,5596.24 L-7205.38,5596.24 L-7205.33,5596.24 L-7205.32,5596.24 L-7205.27,5596.25 L-7205.09,5596.27 L-7205.04,5596.27 L-7205.02,5596.27 L-7204.97,5596.28 L-7187.89,5599.68 L-7171.67,5596.45 L-7171.56,5596.44 L-7171.53,5596.43 L-7171.43,5596.43 L-7171.05,5596.44 L-7170.84,5596.46 L-7170.78,5596.48 L-7170.58,5596.55 L-7170.26,5596.7 L-7170.07,5596.81 L-7170.02,5596.85 L-7169.87,5596.99 L-7169.64,5597.27 L-7169.52,5597.44 L-7169.49,5597.5 L-7169.41,5597.69 L-7169.31,5598.04 L-7169.28,5598.25 L-7169.27,5598.31 L-7169.28,5598.52 L-7169.33,5598.88 L-7169.39,5599.08 L-7169.41,5599.14 L-7169.5,5599.33 L-7169.71,5599.65 L-7169.77,5599.73 L-7169.79,5599.76 L-7169.86,5599.84 L-7196.68,5626.67 L-7196.76,5626.73 L-7196.78,5626.75 L-7196.86,5626.81 L-7197.14,5627 L-7197.32,5627.1 L-7197.37,5627.12 L-7197.56,5627.17 L-7197.88,5627.24 L-7198.08,5627.26 L-7198.14,5627.26 L-7198.33,5627.24 L-7198.65,5627.18 L-7198.84,5627.12 L-7198.9,5627.1 L-7199.07,5627 L-7199.36,5626.81 L-7199.44,5626.75 L-7199.46,5626.74 L-7199.53,5626.67 L-7217.62,5608.61 L-7231.91,5599.96 L-7231.98,5599.91 L-7232.01,5599.89 L-7232.08,5599.83 L-7232.32,5599.62 L-7232.45,5599.48 L-7232.48,5599.44 L-7232.58,5599.28 L-7232.72,5599 L-7232.79,5598.83 L-7232.8,5598.78 L-7232.84,5598.59 L-7232.87,5598.28 L-7232.87,5598.1 L-7232.87,5598.04 L-7232.83,5597.86 L-7232.75,5597.56 L-7232.68,5597.39 L-7232.66,5597.34 L-7232.56,5597.18 L-7232.38,5596.93 L-7232.25,5596.79 L-7232.21,5596.75 L-7232.06,5596.64 L-7231.8,5596.48 L-7231.63,5596.39 L-7231.58,5596.37 L-7231.4,5596.32 L-7231.08,5596.26 L-7230.99,5596.25 L-7230.96,5596.25"/>
</g>

<g fill="none" stroke="#000000" stroke-opacity="1" stroke-width="1" stroke-linecap="square" stroke-linejoin="bevel" transform="matrix(0.999683,0,0,-0.999683,13378.2,6787.36)"
font-family="MS Shell Dlg 2" font-size="10.3125" font-weight="400" font-style="normal" 
>
</g>

<g fill="none" stroke="#000000" stroke-opacity="1" stroke-width="1" stroke-linecap="square" stroke-linejoin="bevel" transform="matrix(0.999683,0,0,-0.999683,13378.2,6787.36)"
font-family="MS Shell Dlg 2" font-size="10.3125" font-weight="400" font-style="normal" 
>
</g>

<g fill="#ae5151" fill-opacity="0.2" stroke="#333333" stroke-opacity="1" stroke-width="1" stroke-linecap="round" stroke-linejoin="round" transform="matrix(0.999683,0,0,-0.999683,13378.2,6787.36)"
font-family="MS Shell Dlg 2" font-size="10.3125" font-weight="400" font-style="normal" 
>
<path vector-effect="non-scaling-stroke" fill-rule="evenodd" d="M-13382,6763.35 L-9817.78,6776.89 L-9817.78,6644.21 L-10259.2,6644.21 L-10259.4,6644.19 L-10259.4,6644.18 L-10259.8,6644.03 L-10259.8,6644.01 L-10260.1,6643.73 L-10260.1,6643.7 L-10260.3,6643.34 L-10260.3,6643.29 L-10260.3,6643.1 L-10260.3,6282.11 L-10260.3,6183.32 L-10260.3,6183.27 L-10260.3,6183.26 L-10260.3,6183.04 L-10260.3,6182.99 L-10260.1,6182.66 L-10260.1,6182.64 L-10259.8,6182.39 L-10259.8,6182.37 L-10259.4,6182.24 L-10259.4,6182.23 L-10259.2,6182.21 L-9853,6182.21 L-9852.81,6182.23 L-9852.77,6182.24 L-9852.42,6182.37 L-9852.39,6182.39 L-9852.12,6182.64 L-9852.1,6182.66 L-9851.94,6182.99 L-9851.92,6183.04 L-9851.89,6183.26 L-9851.89,6183.27 L-9851.89,6183.32 L-9851.89,6280.72 L-9438.08,6280.35 L-9438.08,6183.32 L-9438.08,6183.27 L-9438.08,6183.26 L-9438.04,6183.04 L-9438.03,6182.99 L-9437.87,6182.66 L-9437.84,6182.64 L-9437.57,6182.39 L-9437.54,6182.37 L-9437.2,6182.24 L-9437.15,6182.23 L-9436.97,6182.21 L-9040.2,6182.21 L-9040.02,6182.23 L-9039.97,6182.24 L-9039.63,6182.37 L-9039.6,6182.39 L-9039.33,6182.64 L-9039.3,6182.66 L-9039.14,6182.99 L-9039.13,6183.04 L-9039.09,6183.26 L-9039.09,6183.27 L-9039.09,6183.32 L-9039.09,6279.99 L-8624.39,6279.61 L-8624.2,6279.63 L-8624.15,6279.64 L-8623.79,6279.79 L-8623.76,6279.81 L-8623.48,6280.08 L-8623.46,6280.12 L-8623.31,6280.48 L-8623.3,6280.52 L-8623.28,6280.72 L-8623.28,6643.1 L-8623.3,6643.29 L-8623.31,6643.34 L-8623.46,6643.7 L-8623.48,6643.73 L-8623.76,6644.01 L-8623.79,6644.03 L-8624.15,6644.18 L-8624.2,6644.19 L-8624.39,6644.21 L-9065.78,6644.21 L-9065.78,6779.75 L-6861.41,6788.13 L-6861.41,4048.35 L-6861.39,4048.16 L-6861.38,4048.11 L-6861.23,4047.75 L-6861.21,4047.72 L-6860.94,4047.44 L-6860.91,4047.42 L-6860.55,4047.27 L-6860.5,4047.26 L-6860.3,4047.24 L-6812.85,4047.24 L-6816.18,4030.51 L-6826.79,4014.62 L-6842.68,4004.01 L-6861.61,4000.24 L-7190.59,4000.24 L-7190.78,4000.28 L-7190.78,5403.1 L-7190.8,5403.29 L-7190.81,5403.34 L-7190.96,5403.7 L-7190.98,5403.73 L-7191.26,5404.01 L-7191.29,5404.03 L-7191.65,5404.18 L-7191.7,5404.19 L-7191.89,5404.21 L-8832.88,5404.21 L-8931.68,5404.21 L-8931.72,5404.21 L-8931.73,5404.21 L-8931.95,5404.17 L-8931.99,5404.16 L-8932.33,5404 L-8932.35,5403.98 L-8932.6,5403.7 L-8932.62,5403.67 L-8932.76,5403.33 L-8932.77,5403.28 L-8932.78,5403.1 L-8932.78,5032.61 L-8932.77,5032.42 L-8932.76,5032.38 L-8932.62,5032.04 L-8932.6,5032 L-8932.35,5031.73 L-8932.33,5031.71 L-8931.99,5031.55 L-8931.95,5031.54 L-8931.73,5031.5 L-8931.72,5031.5 L-8931.68,5031.5 L-8833.88,5031.5 L-8833.88,4560.24 L-9049.77,4560.24 L-9049.77,4603.1 L-9049.79,4603.29 L-9049.8,4603.34 L-9049.95,4603.7 L-9049.97,4603.73 L-9050.25,4604.01 L-9050.28,4604.03 L-9050.64,4604.18 L-9050.69,4604.19 L-9050.88,4604.21 L-9726.8,4604.21 L-9726.8,4652.21 L-9050.85,4652.21 L-9050.8,4652.22 L-9050.79,4652.21 L-9050.77,4652.21 L-9050.73,4652.21 L-9050.72,4652.21 L-9050.68,4652.21 L-8951.89,4652.21 L-8951.85,4652.21 L-8951.84,4652.21 L-8951.62,4652.25 L-8951.57,4652.26 L-8951.24,4652.42 L-8951.21,4652.44 L-8950.96,4652.71 L-8950.94,4652.74 L-8950.81,4653.09 L-8950.8,4653.13 L-8950.78,4653.32 L-8950.78,5023.81 L-8950.8,5023.99 L-8950.81,5024.04 L-8950.94,5024.38 L-8950.96,5024.41 L-8951.21,5024.69 L-8951.24,5024.71 L-8951.57,5024.87 L-8951.62,5024.88 L-8951.84,5024.92 L-8951.85,5024.92 L-8951.89,5024.92 L-9049.77,5024.92 L-9049.77,5496.17 L-8922.47,5496.17 L-8922.28,5496.19 L-8922.23,5496.2 L-8921.88,5496.34 L-8921.85,5496.37 L-8921.57,5496.63 L-8921.55,5496.67 L-8921.45,5496.84 L-8877.62,5596.24 L-7291.57,5596.24 L-7291.48,5596.25 L-7291.45,5596.25 L-7291.36,5596.26 L-7291.04,5596.32 L-7290.86,5596.37 L-7290.81,5596.39 L-7290.64,5596.48 L-7290.38,5596.64 L-7290.23,5596.75 L-7290.19,5596.79 L-7290.06,5596.93 L-7289.87,5597.18 L-7289.78,5597.34 L-7289.75,5597.39 L-7289.69,5597.56 L-7289.6,5597.86 L-7289.57,5598.04 L-7289.57,5598.1 L-7289.57,5598.28 L-7289.6,5598.59 L-7289.63,5598.77 L-7289.65,5598.83 L-7289.72,5599 L-7289.86,5599.28 L-7289.96,5599.44 L-7289.99,5599.48 L-7290.11,5599.61 L-7290.35,5599.82 L-7290.5,5599.93 L-7290.54,5599.96 L-7290.71,5600.04 L-7291.02,5600.16 L-7291.1,5600.19 L-7291.13,5600.19 L-7291.22,5600.21 L-8749.51,5857.35 L-8760.65,5861.49 L-8671.68,6063.25 L-8624.39,6063.21 L-8624.21,6063.23 L-8624.17,6063.23 L-8623.82,6063.37 L-8623.79,6063.39 L-8623.52,6063.63 L-8623.5,6063.66 L-8623.33,6063.99 L-8623.32,6064.03 L-8623.29,6064.26 L-8623.28,6064.27 L-8623.28,6064.32 L-8623.26,6163.1 L-8623.26,6163.15 L-8623.27,6163.15 L-8623.3,6163.38 L-8623.31,6163.42 L-8623.48,6163.75 L-8623.5,6163.78 L-8623.77,6164.03 L-8623.8,6164.05 L-8624.15,6164.18 L-8624.19,6164.19 L-8624.37,6164.21 L-9030.57,6164.21 L-9030.76,6164.19 L-9030.8,6164.18 L-9031.14,6164.05 L-9031.17,6164.03 L-9031.45,6163.78 L-9031.47,6163.75 L-9031.63,6163.42 L-9031.64,6163.38 L-9031.68,6163.15 L-9031.68,6163.15 L-9031.68,6163.1 L-9031.68,6065.59 L-9445.49,6065.96 L-9445.49,6163.1 L-9445.49,6163.15 L-9445.49,6163.15 L-9445.53,6163.38 L-9445.54,6163.42 L-9445.7,6163.75 L-9445.72,6163.78 L-9446,6164.03 L-9446.03,6164.05 L-9446.37,6164.18 L-9446.41,6164.19 L-9446.6,6164.21 L-9843.37,6164.21 L-9843.55,6164.19 L-9843.6,6164.18 L-9843.94,6164.05 L-9843.97,6164.03 L-9844.24,6163.78 L-9844.26,6163.75 L-9844.43,6163.42 L-9844.44,6163.38 L-9844.48,6163.15 L-9844.48,6163.15 L-9844.48,6163.1 L-9844.48,6066.33 L-10295.8,6066.74 L-10296,6066.72 L-10296.1,6066.7 L-10296.4,6066.54 L-10296.5,6066.52 L-10296.7,6066.21 L-10296.8,6066.17 L-10296.9,6065.98 L-10303.2,6047.41 L-10303.6,6047.98 L-10307.3,6066.91 L-10307.3,6130.34 L-10307.3,6130.43 L-10307.3,6130.45 L-10307.3,6130.54 L-10307.4,6130.84 L-10307.4,6131.01 L-10307.4,6131.06 L-10307.5,6131.22 L-10307.7,6131.48 L-10307.8,6131.62 L-10307.8,6131.66 L-10307.9,6131.78 L-10308.2,6131.97 L-10308.3,6132.07 L-10308.3,6132.1 L-10308.5,6132.17 L-10308.8,6132.28 L-10308.9,6132.3 L-10308.9,6132.31 L-10309,6132.33 L-11186.9,6287.12 L-11187,6287.14 L-11187,6287.14 L-11187.2,6287.14 L-11187.6,6287.1 L-11187.8,6287.08 L-11187.8,6287.07 L-11187.9,6287.04 L-13180.1,5581.11 L-13382,6763.35 M-7230.96,5596.25 L-7230.87,5596.24 L-7205.38,5596.24 L-7205.33,5596.24 L-7205.32,5596.24 L-7205.27,5596.25 L-7205.09,5596.27 L-7205.04,5596.27 L-7205.02,5596.27 L-7204.97,5596.28 L-7187.89,5599.68 L-7171.67,5596.45 L-7171.56,5596.44 L-7171.53,5596.43 L-7171.43,5596.43 L-7171.05,5596.44 L-7170.84,5596.46 L-7170.78,5596.48 L-7170.58,5596.55 L-7170.26,5596.7 L-7170.07,5596.81 L-7170.02,5596.85 L-7169.87,5596.99 L-7169.64,5597.27 L-7169.52,5597.44 L-7169.49,5597.5 L-7169.41,5597.69 L-7169.31,5598.04 L-7169.28,5598.25 L-7169.27,5598.31 L-7169.28,5598.52 L-7169.33,5598.88 L-7169.39,5599.08 L-7169.41,5599.14 L-7169.5,5599.33 L-7169.71,5599.65 L-7169.77,5599.73 L-7169.79,5599.76 L-7169.86,5599.84 L-7196.68,5626.67 L-7196.76,5626.73 L-7196.78,5626.75 L-7196.86,5626.81 L-7197.14,5627 L-7197.32,5627.1 L-7197.37,5627.12 L-7197.56,5627.17 L-7197.88,5627.24 L-7198.08,5627.26 L-7198.14,5627.26 L-7198.33,5627.24 L-7198.65,5627.18 L-7198.84,5627.12 L-7198.9,5627.1 L-7199.07,5627 L-7199.36,5626.81 L-7199.44,5626.75 L-7199.46,5626.74 L-7199.53,5626.67 L-7217.62,5608.61 L-7231.91,5599.96 L-7231.98,5599.91 L-7232.01,5599.89 L-7232.08,5599.83 L-7232.32,5599.62 L-7232.45,5599.48 L-7232.48,5599.44 L-7232.58,5599.28 L-7232.72,5599 L-7232.79,5598.83 L-7232.8,5598.78 L-7232.84,5598.59 L-7232.87,5598.28 L-7232.87,5598.1 L-7232.87,5598.04 L-7232.83,5597.86 L-7232.75,5597.56 L-7232.68,5597.39 L-7232.66,5597.34 L-7232.56,5597.18 L-7232.38,5596.93 L-7232.25,5596.79 L-7232.21,5596.75 L-7232.06,5596.64 L-7231.8,5596.48 L-7231.63,5596.39 L-7231.58,5596.37 L-7231.4,5596.32 L-7231.08,5596.26 L-7230.99,5596.25 L-7230.96,5596.25"/>
</g>

<g fill="none" stroke="#000000" stroke-opacity="1" stroke-width="1" stroke-linecap="square" stroke-linejoin="bevel" transform="matrix(0.999683,0,0,-0.999683,13378.2,6787.36)"
font-family="MS Shell Dlg 2" font-size="10.3125" font-weight="400" font-style="normal" 
>
</g>

<g fill="none" stroke="#000000" stroke-opacity="1" stroke-width="1" stroke-linecap="square" stroke-linejoin="bevel" transform="matrix(0.999683,0,0,-0.999683,13378.2,6787.36)"
font-family="MS Shell Dlg 2" font-size="10.3125" font-weight="400" font-style="normal" 
>
</g>

<g fill="#ffff00" fill-opacity="0.2" stroke="#333333" stroke-opacity="1" stroke-width="1" stroke-linecap="round" stroke-linejoin="round" transform="matrix(0.999683,0,0,-0.999683,13378.2,6787.36)"
font-family="MS Shell Dlg 2" font-size="10.3125" font-weight="400" font-style="normal" 
>
<path vector-effect="non-scaling-stroke" fill-rule="evenodd" d="M-9065.78,6644.21 L-9065.78,6779.75 L-6861.41,6788.13 L-6861.41,4048.35 L-6861.39,4048.16 L-6861.38,4048.11 L-6861.23,4047.75 L-6861.21,4047.72 L-6860.94,4047.44 L-6860.91,4047.42 L-6860.55,4047.27 L-6860.5,4047.26 L-6860.3,4047.24 L-6812.85,4047.24 L-6816.18,4030.51 L-6826.79,4014.62 L-6842.68,4004.01 L-6861.61,4000.24 L-7190.59,4000.24 L-7190.78,4000.28 L-7190.78,5403.1 L-7190.8,5403.29 L-7190.81,5403.34 L-7190.96,5403.7 L-7190.98,5403.73 L-7191.26,5404.01 L-7191.29,5404.03 L-7191.65,5404.18 L-7191.7,5404.19 L-7191.89,5404.21 L-8832.88,5404.21 L-9049.77,5404.21 L-9049.77,5496.17 L-8922.47,5496.17 L-8922.28,5496.19 L-8922.23,5496.2 L-8921.88,5496.34 L-8921.85,5496.37 L-8921.57,5496.63 L-8921.55,5496.67 L-8921.45,5496.84 L-8877.62,5596.24 L-7291.57,5596.24 L-7291.48,5596.25 L-7291.45,5596.25 L-7291.36,5596.26 L-7291.04,5596.32 L-7290.86,5596.37 L-7290.81,5596.39 L-7290.64,5596.48 L-7290.38,5596.64 L-7290.23,5596.75 L-7290.19,5596.79 L-7290.06,5596.93 L-7289.87,5597.18 L-7289.78,5597.34 L-7289.75,5597.39 L-7289.69,5597.56 L-7289.6,5597.86 L-7289.57,5598.04 L-7289.57,5598.1 L-7289.57,5598.28 L-7289.6,5598.59 L-7289.63,5598.77 L-7289.65,5598.83 L-7289.72,5599 L-7289.86,5599.28 L-7289.96,5599.44 L-7289.99,5599.48 L-7290.11,5599.61 L-7290.35,5599.82 L-7290.5,5599.93 L-7290.54,5599.96 L-7290.71,5600.04 L-7291.02,5600.16 L-7291.1,5600.19 L-7291.13,5600.19 L-7291.22,5600.21 L-8749.51,5857.35 L-8760.65,5861.49 L-8671.68,6063.25 L-8624.39,6063.21 L-8624.21,6063.23 L-8624.17,6063.23 L-8623.82,6063.37 L-8623.79,6063.39 L-8623.52,6063.63 L-8623.5,6063.66 L-8623.33,6063.99 L-8623.32,6064.03 L-8623.29,6064.26 L-8623.28,6064.27 L-8623.28,6064.32 L-8623.24,6280.62 L-8623.24,6280.66 L-8623.24,6280.68 L-8623.25,6280.72 L-8623.25,6280.74 L-8623.26,6280.84 L-8623.27,6280.87 L-8623.28,6280.92 L-8623.28,6643.1 L-8623.3,6643.29 L-8623.31,6643.34 L-8623.46,6643.7 L-8623.48,6643.73 L-8623.76,6644.01 L-8623.79,6644.03 L-8624.15,6644.18 L-8624.2,6644.19 L-8624.39,6644.21 L-9065.78,6644.21 M-7230.96,5596.25 L-7230.87,5596.24 L-7205.38,5596.24 L-7205.33,5596.24 L-7205.32,5596.24 L-7205.27,5596.25 L-7205.09,5596.27 L-7205.04,5596.27 L-7205.02,5596.27 L-7204.97,5596.28 L-7187.89,5599.68 L-7171.67,5596.45 L-7171.56,5596.44 L-7171.53,5596.43 L-7171.43,5596.43 L-7171.05,5596.44 L-7170.84,5596.46 L-7170.78,5596.48 L-7170.58,5596.55 L-7170.26,5596.7 L-7170.07,5596.81 L-7170.02,5596.85 L-7169.87,5596.99 L-7169.64,5597.27 L-7169.52,5597.44 L-7169.49,5597.5 L-7169.41,5597.69 L-7169.31,5598.04 L-7169.28,5598.25 L-7169.27,5598.31 L-7169.28,5598.52 L-7169.33,5598.88 L-7169.39,5599.08 L-7169.41,5599.14 L-7169.5,5599.33 L-7169.71,5599.65 L-7169.77,5599.73 L-7169.79,5599.76 L-7169.86,5599.84 L-7196.68,5626.67 L-7196.76,5626.73 L-7196.78,5626.75 L-7196.86,5626.81 L-7197.14,5627 L-7197.32,5627.1 L-7197.37,5627.12 L-7197.56,5627.17 L-7197.88,5627.24 L-7198.08,5627.26 L-7198.14,5627.26 L-7198.33,5627.24 L-7198.65,5627.18 L-7198.84,5627.12 L-7198.9,5627.1 L-7199.07,5627 L-7199.36,5626.81 L-7199.44,5626.75 L-7199.46,5626.74 L-7199.53,5626.67 L-7217.62,5608.61 L-7231.91,5599.96 L-7231.98,5599.91 L-7232.01,5599.89 L-7232.08,5599.83 L-7232.32,5599.62 L-7232.45,5599.48 L-7232.48,5599.44 L-7232.58,5599.28 L-7232.72,5599 L-7232.79,5598.83 L-7232.8,5598.78 L-7232.84,5598.59 L-7232.87,5598.28 L-7232.87,5598.1 L-7232.87,5598.04 L-7232.83,5597.86 L-7232.75,5597.56 L-7232.68,5597.39 L-7232.66,5597.34 L-7232.56,5597.18 L-7232.38,5596.93 L-7232.25,5596.79 L-7232.21,5596.75 L-7232.06,5596.64 L-7231.8,5596.48 L-7231.63,5596.39 L-7231.58,5596.37 L-7231.4,5596.32 L-7231.08,5596.26 L-7230.99,5596.25 L-7230.96,5596.25"/>
</g>

<g fill="none" stroke="#000000" stroke-opacity="1" stroke-width="1" stroke-linecap="square" stroke-linejoin="bevel" transform="matrix(0.999683,0,0,-0.999683,13378.2,6787.36)"
font-family="MS Shell Dlg 2" font-size="10.3125" font-weight="400" font-style="normal" 
>
</g>

<g fill="none" stroke="#000000" stroke-opacity="1" stroke-width="1" stroke-linecap="square" stroke-linejoin="bevel" transform="matrix(0.999683,0,0,-0.999683,13378.2,6787.36)"
font-family="MS Shell Dlg 2" font-size="10.3125" font-weight="400" font-style="normal" 
>
</g>

<g fill="#ffff00" fill-opacity="0.2" stroke="#333333" stroke-opacity="1" stroke-width="1" stroke-linecap="round" stroke-linejoin="round" transform="matrix(0.999683,0,0,-0.999683,13378.2,6787.36)"
font-family="MS Shell Dlg 2" font-size="10.3125" font-weight="400" font-style="normal" 
>
<path vector-effect="non-scaling-stroke" fill-rule="evenodd" d="M-9733.28,6144.21 L-9733.28,6202.21 L-9145.28,6202.21 L-9145.28,6144.21 L-9733.28,6144.21"/>
</g>

<g fill="none" stroke="#000000" stroke-opacity="1" stroke-width="1" stroke-linecap="square" stroke-linejoin="bevel" transform="matrix(0.999683,0,0,-0.999683,13378.2,6787.36)"
font-family="MS Shell Dlg 2" font-size="10.3125" font-weight="400" font-style="normal" 
>
</g>

<g fill="none" stroke="#000000" stroke-opacity="1" stroke-width="1" stroke-linecap="square" stroke-linejoin="bevel" transform="matrix(0.999683,0,0,-0.999683,13378.2,6787.36)"
font-family="MS Shell Dlg 2" font-size="10.3125" font-weight="400" font-style="normal" 
>
</g>

<g fill="#ffff00" fill-opacity="0.2" stroke="#333333" stroke-opacity="1" stroke-width="1" stroke-linecap="round" stroke-linejoin="round" transform="matrix(0.999683,0,0,-0.999683,13378.2,6787.36)"
font-family="MS Shell Dlg 2" font-size="10.3125" font-weight="400" font-style="normal" 
>
<path vector-effect="non-scaling-stroke" fill-rule="evenodd" d="M-13382,6763.35 L-9817.78,6776.89 L-9817.78,6644.21 L-10259.2,6644.21 L-10259.4,6644.19 L-10259.4,6644.18 L-10259.8,6644.03 L-10259.8,6644.01 L-10260.1,6643.73 L-10260.1,6643.7 L-10260.3,6643.34 L-10260.3,6643.29 L-10260.3,6643.1 L-10260.3,6282.11 L-10260.3,6125.66 L-10269,6125.28 L-11186.9,6287.12 L-11187,6287.14 L-11187,6287.14 L-11187.2,6287.14 L-11187.6,6287.1 L-11187.8,6287.08 L-11187.8,6287.07 L-11187.9,6287.04 L-13180.1,5581.11 L-13382,6763.35"/>
</g>

<g fill="none" stroke="#000000" stroke-opacity="1" stroke-width="1" stroke-linecap="square" stroke-linejoin="bevel" transform="matrix(0.999683,0,0,-0.999683,13378.2,6787.36)"
font-family="MS Shell Dlg 2" font-size="10.3125" font-weight="400" font-style="normal" 
>
</g>

<g fill="none" stroke="#000000" stroke-opacity="1" stroke-width="1" stroke-linecap="square" stroke-linejoin="bevel" transform="matrix(0.999683,0,0,-0.999683,13378.2,6787.36)"
font-family="MS Shell Dlg 2" font-size="10.3125" font-weight="400" font-style="normal" 
>
</g>

<g fill="#ffff00" fill-opacity="0.2" stroke="#333333" stroke-opacity="1" stroke-width="1" stroke-linecap="round" stroke-linejoin="round" transform="matrix(0.999683,0,0,-0.999683,13378.2,6787.36)"
font-family="MS Shell Dlg 2" font-size="10.3125" font-weight="400" font-style="normal" 
>
<path vector-effect="non-scaling-stroke" fill-rule="evenodd" d="M-9726.8,4604.21 L-9726.8,4652.21 L-9050.85,4652.21 L-9050.8,4652.22 L-9050.79,4652.21 L-9050.77,4652.21 L-9050.73,4652.21 L-9050.72,4652.21 L-9050.68,4652.21 L-8833.88,4652.21 L-8833.88,4560.24 L-9049.77,4560.24 L-9049.77,4603.1 L-9049.79,4603.29 L-9049.8,4603.34 L-9049.95,4603.7 L-9049.97,4603.73 L-9050.25,4604.01 L-9050.28,4604.03 L-9050.64,4604.18 L-9050.69,4604.19 L-9050.88,4604.21 L-9726.8,4604.21"/>
</g>

<g fill="none" stroke="#000000" stroke-opacity="1" stroke-width="1" stroke-linecap="square" stroke-linejoin="bevel" transform="matrix(0.999683,0,0,-0.999683,13378.2,6787.36)"
font-family="MS Shell Dlg 2" font-size="10.3125" font-weight="400" font-style="normal" 
>
</g>

<g fill="none" stroke="#000000" stroke-opacity="1" stroke-width="1" stroke-linecap="square" stroke-linejoin="bevel" transform="matrix(0.999683,0,0,-0.999683,13378.2,6787.36)"
font-family="MS Shell Dlg 2" font-size="10.3125" font-weight="400" font-style="normal" 
>
</g>

<g fill="#ae5151" fill-opacity="0.2" stroke="#333333" stroke-opacity="1" stroke-width="1" stroke-linecap="round" stroke-linejoin="round" transform="matrix(0.999683,0,0,-0.999683,13378.2,6787.36)"
font-family="MS Shell Dlg 2" font-size="10.3125" font-weight="400" font-style="normal" 
>
<path vector-effect="non-scaling-stroke" fill-rule="evenodd" d="M-13382,6763.35 L-9817.78,6776.89 L-9817.78,6644.21 L-10259.2,6644.21 L-10259.4,6644.19 L-10259.4,6644.18 L-10259.8,6644.03 L-10259.8,6644.01 L-10260.1,6643.73 L-10260.1,6643.7 L-10260.3,6643.34 L-10260.3,6643.29 L-10260.3,6643.1 L-10260.3,6282.2 L-10260.3,6282.01 L-10260.3,6281.96 L-10260.1,6281.6 L-10260.1,6281.57 L-10259.8,6281.29 L-10259.8,6281.27 L-10259.4,6281.12 L-10259.4,6281.11 L-10259.2,6281.09 L-9844.48,6280.72 L-9844.48,6183.32 L-9844.48,6183.27 L-9844.48,6183.26 L-9844.44,6183.03 L-9844.43,6182.99 L-9844.26,6182.66 L-9844.24,6182.63 L-9843.97,6182.39 L-9843.94,6182.37 L-9843.6,6182.23 L-9843.55,6182.23 L-9843.37,6182.21 L-9446.6,6182.21 L-9446.41,6182.23 L-9446.37,6182.23 L-9446.03,6182.37 L-9446,6182.39 L-9445.72,6182.63 L-9445.7,6182.66 L-9445.54,6182.99 L-9445.53,6183.03 L-9445.49,6183.26 L-9445.49,6183.27 L-9445.49,6183.32 L-9445.49,6280.35 L-9031.68,6279.98 L-9031.68,6183.32 L-9031.68,6183.27 L-9031.68,6183.26 L-9031.64,6183.03 L-9031.63,6182.99 L-9031.47,6182.66 L-9031.45,6182.63 L-9031.17,6182.39 L-9031.14,6182.37 L-9030.8,6182.23 L-9030.76,6182.23 L-9030.57,6182.21 L-8624.37,6182.21 L-8624.19,6182.23 L-8624.14,6182.23 L-8623.8,6182.37 L-8623.77,6182.39 L-8623.5,6182.63 L-8623.47,6182.66 L-8623.31,6182.99 L-8623.3,6183.03 L-8623.26,6183.26 L-8623.26,6183.27 L-8623.26,6183.32 L-8623.24,6280.62 L-8623.24,6280.66 L-8623.24,6280.68 L-8623.25,6280.72 L-8623.25,6280.74 L-8623.26,6280.84 L-8623.27,6280.87 L-8623.28,6280.92 L-8623.28,6643.1 L-8623.3,6643.29 L-8623.31,6643.34 L-8623.46,6643.7 L-8623.48,6643.73 L-8623.76,6644.01 L-8623.79,6644.03 L-8624.15,6644.18 L-8624.2,6644.19 L-8624.39,6644.21 L-9065.78,6644.21 L-9065.78,6779.75 L-6861.41,6788.13 L-6861.41,4048.35 L-6861.39,4048.16 L-6861.38,4048.11 L-6861.23,4047.75 L-6861.21,4047.72 L-6860.94,4047.44 L-6860.91,4047.42 L-6860.55,4047.27 L-6860.5,4047.26 L-6860.3,4047.24 L-6812.85,4047.24 L-6816.18,4030.51 L-6826.79,4014.62 L-6842.68,4004.01 L-6861.61,4000.24 L-7190.59,4000.24 L-7190.78,4000.28 L-7190.78,5403.1 L-7190.8,5403.29 L-7190.81,5403.34 L-7190.96,5403.7 L-7190.98,5403.73 L-7191.26,5404.01 L-7191.29,5404.03 L-7191.65,5404.18 L-7191.7,5404.19 L-7191.89,5404.21 L-8832.77,5404.21 L-8832.97,5404.19 L-8833.02,5404.18 L-8833.38,5404.03 L-8833.41,5404.01 L-8833.68,5403.73 L-8833.71,5403.7 L-8833.85,5403.34 L-8833.86,5403.29 L-8833.88,5403.1 L-8833.88,5024.92 L-8931.68,5024.92 L-8931.72,5024.92 L-8931.73,5024.92 L-8931.95,5024.88 L-8931.99,5024.87 L-8932.33,5024.71 L-8932.35,5024.69 L-8932.6,5024.41 L-8932.62,5024.38 L-8932.76,5024.04 L-8932.77,5023.99 L-8932.78,5023.81 L-8932.78,4653.32 L-8932.77,4653.13 L-8932.76,4653.09 L-8932.62,4652.74 L-8932.6,4652.71 L-8932.35,4652.44 L-8932.33,4652.42 L-8931.99,4652.26 L-8931.95,4652.25 L-8931.73,4652.21 L-8931.72,4652.21 L-8931.68,4652.21 L-8833.88,4652.21 L-8833.88,4560.24 L-9049.77,4560.24 L-9049.77,4603.1 L-9049.79,4603.29 L-9049.8,4603.34 L-9049.95,4603.7 L-9049.97,4603.73 L-9050.25,4604.01 L-9050.28,4604.03 L-9050.64,4604.18 L-9050.69,4604.19 L-9050.88,4604.21 L-9726.8,4604.21 L-9726.8,4652.21 L-9050.88,4652.21 L-9050.69,4652.23 L-9050.64,4652.24 L-9050.28,4652.39 L-9050.25,4652.41 L-9049.97,4652.68 L-9049.95,4652.72 L-9049.8,4653.08 L-9049.79,4653.12 L-9049.77,4653.32 L-9049.77,5031.5 L-8951.89,5031.5 L-8951.85,5031.5 L-8951.84,5031.5 L-8951.62,5031.54 L-8951.57,5031.55 L-8951.24,5031.71 L-8951.21,5031.73 L-8950.96,5032 L-8950.94,5032.04 L-8950.81,5032.38 L-8950.8,5032.42 L-8950.78,5032.61 L-8950.78,5403.1 L-8950.8,5403.28 L-8950.81,5403.33 L-8950.94,5403.67 L-8950.96,5403.7 L-8951.21,5403.98 L-8951.24,5404 L-8951.57,5404.16 L-8951.62,5404.17 L-8951.84,5404.21 L-8951.85,5404.21 L-8951.89,5404.21 L-9049.77,5404.21 L-9049.77,5496.17 L-8922.47,5496.17 L-8922.28,5496.19 L-8922.23,5496.2 L-8921.88,5496.34 L-8921.85,5496.37 L-8921.57,5496.63 L-8921.55,5496.67 L-8921.45,5496.84 L-8877.62,5596.24 L-7291.57,5596.24 L-7291.48,5596.25 L-7291.45,5596.25 L-7291.36,5596.26 L-7291.04,5596.32 L-7290.86,5596.37 L-7290.81,5596.39 L-7290.64,5596.48 L-7290.38,5596.64 L-7290.23,5596.75 L-7290.19,5596.79 L-7290.06,5596.93 L-7289.87,5597.18 L-7289.78,5597.34 L-7289.75,5597.39 L-7289.69,5597.56 L-7289.6,5597.86 L-7289.57,5598.04 L-7289.57,5598.1 L-7289.57,5598.28 L-7289.6,5598.59 L-7289.63,5598.77 L-7289.65,5598.83 L-7289.72,5599 L-7289.86,5599.28 L-7289.96,5599.44 L-7289.99,5599.48 L-7290.11,5599.61 L-7290.35,5599.82 L-7290.5,5599.93 L-7290.54,5599.96 L-7290.71,5600.04 L-7291.02,5600.16 L-7291.1,5600.19 L-7291.13,5600.19 L-7291.22,5600.21 L-8749.51,5857.35 L-8760.65,5861.49 L-8671.48,6063.71 L-8671.42,6063.9 L-8671.4,6063.95 L-8671.4,6064.34 L-8671.4,6064.38 L-8671.55,6064.74 L-8671.57,6064.78 L-8671.85,6065.06 L-8671.88,6065.08 L-8672.24,6065.23 L-8672.29,6065.24 L-8672.49,6065.26 L-9039.09,6065.6 L-9039.09,6163.1 L-9039.09,6163.15 L-9039.09,6163.16 L-9039.13,6163.38 L-9039.14,6163.43 L-9039.3,6163.76 L-9039.33,6163.78 L-9039.6,6164.03 L-9039.63,6164.05 L-9039.97,6164.18 L-9040.02,6164.19 L-9040.2,6164.21 L-9436.97,6164.21 L-9437.15,6164.19 L-9437.2,6164.18 L-9437.54,6164.05 L-9437.57,6164.03 L-9437.84,6163.78 L-9437.87,6163.76 L-9438.03,6163.43 L-9438.04,6163.38 L-9438.08,6163.16 L-9438.08,6163.15 L-9438.08,6163.1 L-9438.08,6065.96 L-9851.89,6066.33 L-9851.89,6163.1 L-9851.89,6163.15 L-9851.89,6163.16 L-9851.92,6163.38 L-9851.94,6163.43 L-9852.1,6163.76 L-9852.12,6163.78 L-9852.39,6164.03 L-9852.42,6164.05 L-9852.77,6164.18 L-9852.81,6164.19 L-9853,6164.21 L-10259.2,6164.21 L-10259.4,6164.19 L-10259.4,6164.18 L-10259.8,6164.05 L-10259.8,6164.03 L-10260.1,6163.78 L-10260.1,6163.76 L-10260.3,6163.43 L-10260.3,6163.38 L-10260.3,6163.16 L-10260.3,6163.15 L-10260.3,6163.1 L-10260.3,6115.65 L-10277.1,6118.98 L-10292.4,6129.22 L-10292.5,6129.27 L-10292.5,6129.29 L-10292.6,6129.33 L-10292.9,6129.47 L-10293,6129.51 L-10293.1,6129.52 L-10293.2,6129.54 L-11186.9,6287.12 L-11187,6287.14 L-11187,6287.14 L-11187.2,6287.14 L-11187.6,6287.1 L-11187.8,6287.08 L-11187.8,6287.07 L-11187.9,6287.04 L-13180.1,5581.11 L-13382,6763.35 M-7230.96,5596.25 L-7230.87,5596.24 L-7205.38,5596.24 L-7205.33,5596.24 L-7205.32,5596.24 L-7205.27,5596.25 L-7205.09,5596.27 L-7205.04,5596.27 L-7205.02,5596.27 L-7204.97,5596.28 L-7187.89,5599.68 L-7171.67,5596.45 L-7171.56,5596.44 L-7171.53,5596.43 L-7171.43,5596.43 L-7171.05,5596.44 L-7170.84,5596.46 L-7170.78,5596.48 L-7170.58,5596.55 L-7170.26,5596.7 L-7170.07,5596.81 L-7170.02,5596.85 L-7169.87,5596.99 L-7169.64,5597.27 L-7169.52,5597.44 L-7169.49,5597.5 L-7169.41,5597.69 L-7169.31,5598.04 L-7169.28,5598.25 L-7169.27,5598.31 L-7169.28,5598.52 L-7169.33,5598.88 L-7169.39,5599.08 L-7169.41,5599.14 L-7169.5,5599.33 L-7169.71,5599.65 L-7169.77,5599.73 L-7169.79,5599.76 L-7169.86,5599.84 L-7196.68,5626.67 L-7196.76,5626.73 L-7196.78,5626.75 L-7196.86,5626.81 L-7197.14,5627 L-7197.32,5627.1 L-7197.37,5627.12 L-7197.56,5627.17 L-7197.88,5627.24 L-7198.08,5627.26 L-7198.14,5627.26 L-7198.33,5627.24 L-7198.65,5627.18 L-7198.84,5627.12 L-7198.9,5627.1 L-7199.07,5627 L-7199.36,5626.81 L-7199.44,5626.75 L-7199.46,5626.74 L-7199.53,5626.67 L-7217.62,5608.61 L-7231.91,5599.96 L-7231.98,5599.91 L-7232.01,5599.89 L-7232.08,5599.83 L-7232.32,5599.62 L-7232.45,5599.48 L-7232.48,5599.44 L-7232.58,5599.28 L-7232.72,5599 L-7232.79,5598.83 L-7232.8,5598.78 L-7232.84,5598.59 L-7232.87,5598.28 L-7232.87,5598.1 L-7232.87,5598.04 L-7232.83,5597.86 L-7232.75,5597.56 L-7232.68,5597.39 L-7232.66,5597.34 L-7232.56,5597.18 L-7232.38,5596.93 L-7232.25,5596.79 L-7232.21,5596.75 L-7232.06,5596.64 L-7231.8,5596.48 L-7231.63,5596.39 L-7231.58,5596.37 L-7231.4,5596.32 L-7231.08,5596.26 L-7230.99,5596.25 L-7230.96,5596.25"/>
</g>

<g fill="none" stroke="#000000" stroke-opacity="1" stroke-width="1" stroke-linecap="square" stroke-linejoin="bevel" transform="matrix(0.999683,0,0,-0.999683,13378.2,6787.36)"
font-family="MS Shell Dlg 2" font-size="10.3125" font-weight="400" font-style="normal" 
>
</g>

<g fill="none" stroke="#000000" stroke-opacity="1" stroke-width="1" stroke-linecap="square" stroke-linejoin="bevel" transform="matrix(0.999683,0,0,-0.999683,13378.2,6787.36)"
font-family="MS Shell Dlg 2" font-size="10.3125" font-weight="400" font-style="normal" 
>
</g>

<g fill="#333333" fill-opacity="0.2" stroke="#333333" stroke-opacity="1" stroke-width="1" stroke-linecap="round" stroke-linejoin="round" transform="matrix(0.999683,0,0,-0.999683,13378.2,6787.36)"
font-family="MS Shell Dlg 2" font-size="10.3125" font-weight="400" font-style="normal" 
>
<path vector-effect="non-scaling-stroke" fill-rule="evenodd" d="M-13382,6763.35 L-9817.78,6776.89 L-9817.78,6644.21 L-10259.2,6644.21 L-10259.4,6644.19 L-10259.4,6644.18 L-10259.8,6644.03 L-10259.8,6644.01 L-10260.1,6643.73 L-10260.1,6643.7 L-10260.3,6643.34 L-10260.3,6643.29 L-10260.3,6643.1 L-10260.3,6282.2 L-10260.3,6282.01 L-10260.3,6281.96 L-10260.1,6281.6 L-10260.1,6281.57 L-10259.8,6281.29 L-10259.8,6281.27 L-10259.4,6281.12 L-10259.4,6281.11 L-10259.2,6281.09 L-9844.48,6280.72 L-9844.48,6183.32 L-9844.48,6183.27 L-9844.48,6183.26 L-9844.44,6183.03 L-9844.43,6182.99 L-9844.26,6182.66 L-9844.24,6182.63 L-9843.97,6182.39 L-9843.94,6182.37 L-9843.6,6182.23 L-9843.55,6182.23 L-9843.37,6182.21 L-9446.6,6182.21 L-9446.41,6182.23 L-9446.37,6182.23 L-9446.03,6182.37 L-9446,6182.39 L-9445.72,6182.63 L-9445.7,6182.66 L-9445.54,6182.99 L-9445.53,6183.03 L-9445.49,6183.26 L-9445.49,6183.27 L-9445.49,6183.32 L-9445.49,6280.35 L-9031.68,6279.98 L-9031.68,6183.32 L-9031.68,6183.27 L-9031.68,6183.26 L-9031.64,6183.03 L-9031.63,6182.99 L-9031.47,6182.66 L-9031.45,6182.63 L-9031.17,6182.39 L-9031.14,6182.37 L-9030.8,6182.23 L-9030.76,6182.23 L-9030.57,6182.21 L-8624.37,6182.21 L-8624.19,6182.23 L-8624.14,6182.23 L-8623.8,6182.37 L-8623.77,6182.39 L-8623.5,6182.63 L-8623.47,6182.66 L-8623.31,6182.99 L-8623.3,6183.03 L-8623.26,6183.26 L-8623.26,6183.27 L-8623.26,6183.32 L-8623.24,6280.62 L-8623.24,6280.66 L-8623.24,6280.68 L-8623.25,6280.72 L-8623.25,6280.74 L-8623.26,6280.84 L-8623.27,6280.87 L-8623.28,6280.92 L-8623.28,6643.1 L-8623.3,6643.29 L-8623.31,6643.34 L-8623.46,6643.7 L-8623.48,6643.73 L-8623.76,6644.01 L-8623.79,6644.03 L-8624.15,6644.18 L-8624.2,6644.19 L-8624.39,6644.21 L-9065.78,6644.21 L-9065.78,6779.75 L-6861.41,6788.13 L-6861.41,4048.35 L-6861.39,4048.16 L-6861.38,4048.11 L-6861.23,4047.75 L-6861.21,4047.72 L-6860.94,4047.44 L-6860.91,4047.42 L-6860.55,4047.27 L-6860.5,4047.26 L-6860.3,4047.24 L-6812.85,4047.24 L-6816.18,4030.51 L-6826.79,4014.62 L-6842.68,4004.01 L-6861.61,4000.24 L-7190.59,4000.24 L-7190.78,4000.28 L-7190.78,5403.1 L-7190.8,5403.29 L-7190.81,5403.34 L-7190.96,5403.7 L-7190.98,5403.73 L-7191.26,5404.01 L-7191.29,5404.03 L-7191.65,5404.18 L-7191.7,5404.19 L-7191.89,5404.21 L-8832.77,5404.21 L-8832.97,5404.19 L-8833.02,5404.18 L-8833.38,5404.03 L-8833.41,5404.01 L-8833.68,5403.73 L-8833.71,5403.7 L-8833.85,5403.34 L-8833.86,5403.29 L-8833.88,5403.1 L-8833.88,5024.92 L-8931.68,5024.92 L-8931.72,5024.92 L-8931.73,5024.92 L-8931.95,5024.88 L-8931.99,5024.87 L-8932.33,5024.71 L-8932.35,5024.69 L-8932.6,5024.41 L-8932.62,5024.38 L-8932.76,5024.04 L-8932.77,5023.99 L-8932.78,5023.81 L-8932.78,4653.32 L-8932.77,4653.13 L-8932.76,4653.09 L-8932.62,4652.74 L-8932.6,4652.71 L-8932.35,4652.44 L-8932.33,4652.42 L-8931.99,4652.26 L-8931.95,4652.25 L-8931.73,4652.21 L-8931.72,4652.21 L-8931.68,4652.21 L-8833.88,4652.21 L-8833.88,4560.24 L-9049.77,4560.24 L-9049.77,4603.1 L-9049.79,4603.29 L-9049.8,4603.34 L-9049.95,4603.7 L-9049.97,4603.73 L-9050.25,4604.01 L-9050.28,4604.03 L-9050.64,4604.18 L-9050.69,4604.19 L-9050.88,4604.21 L-9726.8,4604.21 L-9726.8,4652.21 L-9050.88,4652.21 L-9050.69,4652.23 L-9050.64,4652.24 L-9050.28,4652.39 L-9050.25,4652.41 L-9049.97,4652.68 L-9049.95,4652.72 L-9049.8,4653.08 L-9049.79,4653.12 L-9049.77,4653.32 L-9049.77,5031.5 L-8951.89,5031.5 L-8951.85,5031.5 L-8951.84,5031.5 L-8951.62,5031.54 L-8951.57,5031.55 L-8951.24,5031.71 L-8951.21,5031.73 L-8950.96,5032 L-8950.94,5032.04 L-8950.81,5032.38 L-8950.8,5032.42 L-8950.78,5032.61 L-8950.78,5403.1 L-8950.8,5403.28 L-8950.81,5403.33 L-8950.94,5403.67 L-8950.96,5403.7 L-8951.21,5403.98 L-8951.24,5404 L-8951.57,5404.16 L-8951.62,5404.17 L-8951.84,5404.21 L-8951.85,5404.21 L-8951.89,5404.21 L-9049.77,5404.21 L-9049.77,5496.17 L-8922.47,5496.17 L-8922.28,5496.19 L-8922.23,5496.2 L-8921.88,5496.34 L-8921.85,5496.37 L-8921.57,5496.63 L-8921.55,5496.67 L-8921.45,5496.84 L-8877.62,5596.24 L-7291.57,5596.24 L-7291.48,5596.25 L-7291.45,5596.25 L-7291.36,5596.26 L-7291.04,5596.32 L-7290.86,5596.37 L-7290.81,5596.39 L-7290.64,5596.48 L-7290.38,5596.64 L-7290.23,5596.75 L-7290.19,5596.79 L-7290.06,5596.93 L-7289.87,5597.18 L-7289.78,5597.34 L-7289.75,5597.39 L-7289.69,5597.56 L-7289.6,5597.86 L-7289.57,5598.04 L-7289.57,5598.1 L-7289.57,5598.28 L-7289.6,5598.59 L-7289.63,5598.77 L-7289.65,5598.83 L-7289.72,5599 L-7289.86,5599.28 L-7289.96,5599.44 L-7289.99,5599.48 L-7290.11,5599.61 L-7290.35,5599.82 L-7290.5,5599.93 L-7290.54,5599.96 L-7290.71,5600.04 L-7291.02,5600.16 L-7291.1,5600.19 L-7291.13,5600.19 L-7291.22,5600.21 L-8749.51,5857.35 L-8760.65,5861.49 L-8671.48,6063.71 L-8671.42,6063.9 L-8671.4,6063.95 L-8671.4,6064.34 L-8671.4,6064.38 L-8671.55,6064.74 L-8671.57,6064.78 L-8671.85,6065.06 L-8671.88,6065.08 L-8672.24,6065.23 L-8672.29,6065.24 L-8672.49,6065.26 L-9039.09,6065.6 L-9039.09,6163.1 L-9039.09,6163.15 L-9039.09,6163.16 L-9039.13,6163.38 L-9039.14,6163.43 L-9039.3,6163.76 L-9039.33,6163.78 L-9039.6,6164.03 L-9039.63,6164.05 L-9039.97,6164.18 L-9040.02,6164.19 L-9040.2,6164.21 L-9436.97,6164.21 L-9437.15,6164.19 L-9437.2,6164.18 L-9437.54,6164.05 L-9437.57,6164.03 L-9437.84,6163.78 L-9437.87,6163.76 L-9438.03,6163.43 L-9438.04,6163.38 L-9438.08,6163.16 L-9438.08,6163.15 L-9438.08,6163.1 L-9438.08,6065.96 L-9851.89,6066.33 L-9851.89,6163.1 L-9851.89,6163.15 L-9851.89,6163.16 L-9851.92,6163.38 L-9851.94,6163.43 L-9852.1,6163.76 L-9852.12,6163.78 L-9852.39,6164.03 L-9852.42,6164.05 L-9852.77,6164.18 L-9852.81,6164.19 L-9853,6164.21 L-10259.2,6164.21 L-10259.4,6164.19 L-10259.4,6164.18 L-10259.8,6164.05 L-10259.8,6164.03 L-10260.1,6163.78 L-10260.1,6163.76 L-10260.3,6163.43 L-10260.3,6163.38 L-10260.3,6163.16 L-10260.3,6163.15 L-10260.3,6163.1 L-10260.3,6115.65 L-10277.1,6118.98 L-10292.4,6129.22 L-10292.5,6129.27 L-10292.5,6129.29 L-10292.6,6129.33 L-10292.9,6129.47 L-10293,6129.51 L-10293.1,6129.52 L-10293.2,6129.54 L-11186.9,6287.12 L-11187,6287.14 L-11187,6287.14 L-11187.2,6287.14 L-11187.6,6287.1 L-11187.8,6287.08 L-11187.8,6287.07 L-11187.9,6287.04 L-13180.1,5581.11 L-13382,6763.35 M-7230.96,5596.25 L-7230.87,5596.24 L-7205.38,5596.24 L-7205.33,5596.24 L-7205.32,5596.24 L-7205.27,5596.25 L-7205.09,5596.27 L-7205.04,5596.27 L-7205.02,5596.27 L-7204.97,5596.28 L-7187.89,5599.68 L-7171.67,5596.45 L-7171.56,5596.44 L-7171.53,5596.43 L-7171.43,5596.43 L-7171.05,5596.44 L-7170.84,5596.46 L-7170.78,5596.48 L-7170.58,5596.55 L-7170.26,5596.7 L-7170.07,5596.81 L-7170.02,5596.85 L-7169.87,5596.99 L-7169.64,5597.27 L-7169.52,5597.44 L-7169.49,5597.5 L-7169.41,5597.69 L-7169.31,5598.04 L-7169.28,5598.25 L-7169.27,5598.31 L-7169.28,5598.52 L-7169.33,5598.88 L-7169.39,5599.08 L-7169.41,5599.14 L-7169.5,5599.33 L-7169.71,5599.65 L-7169.77,5599.73 L-7169.79,5599.76 L-7169.86,5599.84 L-7196.68,5626.67 L-7196.76,5626.73 L-7196.78,5626.75 L-7196.86,5626.81 L-7197.14,5627 L-7197.32,5627.1 L-7197.37,5627.12 L-7197.56,5627.17 L-7197.88,5627.24 L-7198.08,5627.26 L-7198.14,5627.26 L-7198.33,5627.24 L-7198.65,5627.18 L-7198.84,5627.12 L-7198.9,5627.1 L-7199.07,5627 L-7199.36,5626.81 L-7199.44,5626.75 L-7199.46,5626.74 L-7199.53,5626.67 L-7217.62,5608.61 L-7231.91,5599.96 L-7231.98,5599.91 L-7232.01,5599.89 L-7232.08,5599.83 L-7232.32,5599.62 L-7232.45,5599.48 L-7232.48,5599.44 L-7232.58,5599.28 L-7232.72,5599 L-7232.79,5598.83 L-7232.8,5598.78 L-7232.84,5598.59 L-7232.87,5598.28 L-7232.87,5598.1 L-7232.87,5598.04 L-7232.83,5597.86 L-7232.75,5597.56 L-7232.68,5597.39 L-7232.66,5597.34 L-7232.56,5597.18 L-7232.38,5596.93 L-7232.25,5596.79 L-7232.21,5596.75 L-7232.06,5596.64 L-7231.8,5596.48 L-7231.63,5596.39 L-7231.58,5596.37 L-7231.4,5596.32 L-7231.08,5596.26 L-7230.99,5596.25 L-7230.96,5596.25"/>
</g>

<g fill="none" stroke="#000000" stroke-opacity="1" stroke-width="1" stroke-linecap="square" stroke-linejoin="bevel" transform="matrix(0.999683,0,0,-0.999683,13378.2,6787.36)"
font-family="MS Shell Dlg 2" font-size="10.3125" font-weight="400" font-style="normal" 
>
</g>

<g fill="none" stroke="#000000" stroke-opacity="1" stroke-width="1" stroke-linecap="square" stroke-linejoin="bevel" transform="matrix(1,0,0,-1,0,2788.88)"
font-family="MS Shell Dlg 2" font-size="10.3125" font-weight="400" font-style="normal" 
>
</g>
</g>
</svg>
