<?xml version="1.0" encoding="UTF-8" standalone="no"?>
<svg width="141.111mm" height="280.247mm"
 xmlns="http://www.w3.org/2000/svg" xmlns:xlink="http://www.w3.org/1999/xlink"  version="1.2" baseProfile="tiny">
<title>SVG Generator Example Drawing</title>
<desc>An SVG drawing created by the SVG Generator</desc>
<defs>
</defs>
<g fill="none" stroke="black" stroke-width="1" fill-rule="evenodd" stroke-linecap="square" stroke-linejoin="bevel" >

<g fill="none" stroke="#000000" stroke-opacity="1" stroke-width="1" stroke-linecap="square" stroke-linejoin="bevel" transform="matrix(1,0,0,-1,0,993.126)"
font-family="MS Shell Dlg 2" font-size="10.3125" font-weight="400" font-style="normal" 
>
</g>

<g fill="none" stroke="#000000" stroke-opacity="1" stroke-width="1" stroke-linecap="square" stroke-linejoin="bevel" transform="matrix(1,0,0,-1,0,993.126)"
font-family="MS Shell Dlg 2" font-size="10.3125" font-weight="400" font-style="normal" 
>
</g>

<g fill="none" stroke="#000000" stroke-opacity="1" stroke-width="1" stroke-linecap="square" stroke-linejoin="bevel" transform="matrix(0.998261,0,0,-0.998261,11840.1,1545.78)"
font-family="MS Shell Dlg 2" font-size="10.3125" font-weight="400" font-style="normal" 
>
</g>

<g fill="#333333" fill-opacity="0.2" stroke="#333333" stroke-opacity="1" stroke-width="1" stroke-linecap="round" stroke-linejoin="round" transform="matrix(0.998261,0,0,-0.998261,11840.1,1545.78)"
font-family="MS Shell Dlg 2" font-size="10.3125" font-weight="400" font-style="normal" 
>
<path vector-effect="non-scaling-stroke" fill-rule="evenodd" d="M-11860.2,599.242 L-11860.1,607.242 L-11700.8,607.242 L-11700.8,607.246 L-11700.8,607.244 L-11700.7,607.243 L-11700.7,607.242 L-11700.7,607.242 L-11700.7,607.242 L-11601.9,607.242 L-11601.9,607.242 L-11601.9,607.242 L-11601.6,607.27 L-11601.6,607.281 L-11601.3,607.439 L-11601.2,607.46 L-11601,607.734 L-11601,607.765 L-11600.8,608.116 L-11600.8,608.162 L-11600.8,608.351 L-11600.8,825.615 L-11600.8,825.804 L-11600.8,825.85 L-11601,826.201 L-11601,826.232 L-11601.2,826.506 L-11601.3,826.527 L-11601.6,826.685 L-11601.6,826.696 L-11601.9,826.724 L-11601.9,826.724 L-11601.9,826.724 L-11699.8,826.724 L-11699.8,1096.2 L-11699.6,1096.24 L-11625.7,1096.24 L-11625.6,1096.25 L-11625.6,1096.25 L-11625.5,1096.26 L-11625.1,1096.33 L-11625,1096.38 L-11624.9,1096.41 L-11624.7,1096.5 L-11624.5,1096.67 L-11624.3,1096.8 L-11624.3,1096.84 L-11624.1,1096.98 L-11624,1097.24 L-11584.5,1097.24 L-11584.5,1097.2 L-11584.4,1097.03 L-11584.1,1096.77 L-11584,1096.63 L-11583.9,1096.6 L-11583.7,1096.5 L-11583.4,1096.35 L-11583.3,1096.31 L-11583.3,1096.3 L-11583.2,1096.28 L-11576.7,1095 L-11576.6,1094.98 L-11576.6,1094.98 L-11576.5,1094.98 L-11576.2,1094.98 L-11576,1095 L-11575.9,1095.01 L-11575.7,1095.06 L-11575.4,1095.19 L-11575.2,1095.28 L-11575.2,1095.32 L-11575,1095.44 L-11574.8,1095.67 L-11574.7,1095.83 L-11574.7,1095.87 L-11574.6,1096.05 L-11574.4,1096.35 L-11574.4,1096.54 L-11574.4,1096.6 L-11574.3,1096.79 L-11574.3,1097.14 L-11574.4,1097.24 L-11574.4,1097.24 L-11526.9,1097.24 L-11526.7,1097.27 L-11526.6,1097.28 L-11526.3,1097.44 L-11526.2,1097.46 L-11526,1097.73 L-11526,1097.76 L-11525.8,1098.12 L-11525.8,1098.16 L-11525.8,1098.35 L-11525.8,1295.84 L-11525.8,1296.03 L-11525.8,1296.08 L-11526,1296.43 L-11526,1296.46 L-11526.2,1296.74 L-11526.3,1296.76 L-11526.6,1296.91 L-11526.7,1296.93 L-11526.9,1296.95 L-11624.8,1296.95 L-11624.8,1498.13 L-11624.8,1498.33 L-11624.8,1498.37 L-11625,1498.73 L-11625,1498.77 L-11625.2,1499.04 L-11625.3,1499.06 L-11625.6,1499.21 L-11625.7,1499.22 L-11625.9,1499.24 L-11673.3,1499.24 L-11670,1515.98 L-11659.4,1531.86 L-11643.5,1542.48 L-11624.6,1546.24 L-11526.9,1546.24 L-11508,1546.24 L-11489,1542.48 L-11473.2,1531.86 L-11462.5,1515.98 L-11459.2,1499.24 L-11506.7,1499.24 L-11506.9,1499.21 L-11507,1499.2 L-11507.3,1499.05 L-11507.3,1499.02 L-11507.6,1498.75 L-11507.6,1498.72 L-11507.8,1498.37 L-11507.8,1498.32 L-11507.8,1498.13 L-11507.8,1300.64 L-11507.8,1300.45 L-11507.8,1300.4 L-11507.6,1300.05 L-11507.6,1300.02 L-11507.3,1299.75 L-11507.3,1299.73 L-11507,1299.57 L-11506.9,1299.56 L-11506.7,1299.53 L-11408.9,1299.53 L-11408.9,1098.35 L-11408.9,1098.16 L-11408.9,1098.11 L-11408.7,1097.75 L-11408.7,1097.72 L-11408.4,1097.44 L-11408.4,1097.42 L-11408,1097.27 L-11408,1097.26 L-11407.8,1097.24 L-11360.3,1097.24 L-11363.6,1080.51 L-11374.3,1064.62 L-11390.1,1054.01 L-11409.3,1050.21 L-11409.4,1050.18 L-11409.4,1050.17 L-11409.5,1050.13 L-11409.8,1049.99 L-11410,1049.89 L-11410.1,1049.85 L-11410.2,1049.71 L-11410.5,1049.45 L-11410.6,1049.28 L-11410.6,1049.23 L-11410.7,1049.13 L-11482.4,1049.13 L-11482.6,1049.2 L-11482.6,1049.21 L-11482.9,1049.24 L-11482.9,1049.24 L-11482.9,1049.24 L-11524.1,1049.24 L-11524.1,1049.28 L-11524.2,1049.45 L-11524.4,1049.71 L-11524.6,1049.85 L-11524.7,1049.89 L-11524.8,1049.99 L-11525.2,1050.13 L-11525.3,1050.17 L-11525.3,1050.18 L-11525.4,1050.21 L-11531.8,1051.48 L-11531.9,1051.5 L-11532,1051.5 L-11532.1,1051.51 L-11532.4,1051.51 L-11532.6,1051.49 L-11532.7,1051.48 L-11532.8,1051.42 L-11533.1,1051.29 L-11533.3,1051.2 L-11533.4,1051.17 L-11533.5,1051.04 L-11533.8,1050.81 L-11533.9,1050.66 L-11533.9,1050.61 L-11534,1050.44 L-11534.1,1050.13 L-11534.2,1049.94 L-11534.2,1049.89 L-11534.2,1049.69 L-11534.2,1049.35 L-11534.2,1049.25 L-11534.2,1049.24 L-11581.7,1049.24 L-11581.7,1049.24 L-11581.7,1049.24 L-11581.9,1049.21 L-11582,1049.2 L-11582.3,1049.04 L-11582.3,1049.02 L-11582.6,1048.75 L-11582.6,1048.72 L-11582.8,1048.37 L-11582.8,1048.32 L-11582.8,1048.13 L-11582.8,830.868 L-11582.8,830.68 L-11582.8,830.634 L-11582.6,830.283 L-11582.6,830.251 L-11582.3,829.978 L-11582.3,829.956 L-11582,829.798 L-11581.9,829.788 L-11581.7,829.759 L-11581.7,829.759 L-11581.7,829.759 L-11483.9,829.759 L-11483.9,554.116 L-11699.8,554.116 L-11699.8,598.132 L-11699.8,598.327 L-11699.8,598.374 L-11700,598.735 L-11700,598.767 L-11700.2,599.042 L-11700.3,599.064 L-11700.6,599.213 L-11700.7,599.222 L-11700.9,599.242 L-11860.2,599.242"/>
</g>

<g fill="none" stroke="#000000" stroke-opacity="1" stroke-width="1" stroke-linecap="square" stroke-linejoin="bevel" transform="matrix(0.998261,0,0,-0.998261,11840.1,1545.78)"
font-family="MS Shell Dlg 2" font-size="10.3125" font-weight="400" font-style="normal" 
>
</g>

<g fill="none" stroke="#000000" stroke-opacity="1" stroke-width="1" stroke-linecap="square" stroke-linejoin="bevel" transform="matrix(0.998261,0,0,-0.998261,11840.1,1545.78)"
font-family="MS Shell Dlg 2" font-size="10.3125" font-weight="400" font-style="normal" 
>
</g>

<g fill="#ae5151" fill-opacity="0.2" stroke="#333333" stroke-opacity="1" stroke-width="1" stroke-linecap="round" stroke-linejoin="round" transform="matrix(0.998261,0,0,-0.998261,11840.1,1545.78)"
font-family="MS Shell Dlg 2" font-size="10.3125" font-weight="400" font-style="normal" 
>
<path vector-effect="non-scaling-stroke" fill-rule="evenodd" d="M-11860.2,599.242 L-11860.1,607.242 L-11700.8,607.242 L-11700.8,607.246 L-11700.8,607.244 L-11700.7,607.243 L-11700.7,607.242 L-11700.7,607.242 L-11700.7,607.242 L-11601.9,607.242 L-11601.9,607.242 L-11601.9,607.242 L-11601.6,607.27 L-11601.6,607.281 L-11601.3,607.439 L-11601.2,607.46 L-11601,607.734 L-11601,607.765 L-11600.8,608.116 L-11600.8,608.162 L-11600.8,608.351 L-11600.8,825.615 L-11600.8,825.804 L-11600.8,825.85 L-11601,826.201 L-11601,826.232 L-11601.2,826.506 L-11601.3,826.527 L-11601.6,826.685 L-11601.6,826.696 L-11601.9,826.724 L-11601.9,826.724 L-11601.9,826.724 L-11699.8,826.724 L-11699.8,1096.2 L-11699.6,1096.24 L-11625.7,1096.24 L-11625.6,1096.25 L-11625.6,1096.25 L-11625.5,1096.26 L-11625.1,1096.33 L-11625,1096.38 L-11624.9,1096.41 L-11624.7,1096.5 L-11624.5,1096.67 L-11624.3,1096.8 L-11624.3,1096.84 L-11624.1,1096.98 L-11624,1097.24 L-11584.5,1097.24 L-11584.5,1097.2 L-11584.4,1097.03 L-11584.1,1096.77 L-11584,1096.63 L-11583.9,1096.6 L-11583.7,1096.5 L-11583.4,1096.35 L-11583.3,1096.31 L-11583.3,1096.3 L-11583.2,1096.28 L-11576.7,1095 L-11576.6,1094.98 L-11576.6,1094.98 L-11576.5,1094.98 L-11576.2,1094.98 L-11576,1095 L-11575.9,1095.01 L-11575.7,1095.06 L-11575.4,1095.19 L-11575.2,1095.28 L-11575.2,1095.32 L-11575,1095.44 L-11574.8,1095.67 L-11574.7,1095.83 L-11574.7,1095.87 L-11574.6,1096.05 L-11574.4,1096.35 L-11574.4,1096.54 L-11574.4,1096.6 L-11574.3,1096.79 L-11574.3,1097.14 L-11574.4,1097.24 L-11574.4,1097.24 L-11526.9,1097.24 L-11526.7,1097.27 L-11526.6,1097.28 L-11526.3,1097.44 L-11526.2,1097.46 L-11526,1097.73 L-11526,1097.76 L-11525.8,1098.12 L-11525.8,1098.16 L-11525.8,1098.35 L-11525.8,1295.84 L-11525.8,1296.03 L-11525.8,1296.08 L-11526,1296.43 L-11526,1296.46 L-11526.2,1296.74 L-11526.3,1296.76 L-11526.6,1296.91 L-11526.7,1296.93 L-11526.9,1296.95 L-11624.8,1296.95 L-11624.8,1498.13 L-11624.8,1498.33 L-11624.8,1498.37 L-11625,1498.73 L-11625,1498.77 L-11625.2,1499.04 L-11625.3,1499.06 L-11625.6,1499.21 L-11625.7,1499.22 L-11625.9,1499.24 L-11673.3,1499.24 L-11670,1515.98 L-11659.4,1531.86 L-11643.5,1542.48 L-11624.6,1546.24 L-11526.9,1546.24 L-11508,1546.24 L-11489,1542.48 L-11473.2,1531.86 L-11462.5,1515.98 L-11459.2,1499.24 L-11506.7,1499.24 L-11506.9,1499.21 L-11507,1499.2 L-11507.3,1499.05 L-11507.3,1499.02 L-11507.6,1498.75 L-11507.6,1498.72 L-11507.8,1498.37 L-11507.8,1498.32 L-11507.8,1498.13 L-11507.8,1300.64 L-11507.8,1300.45 L-11507.8,1300.4 L-11507.6,1300.05 L-11507.6,1300.02 L-11507.3,1299.75 L-11507.3,1299.73 L-11507,1299.57 L-11506.9,1299.56 L-11506.7,1299.53 L-11408.9,1299.53 L-11408.9,1098.35 L-11408.9,1098.16 L-11408.9,1098.11 L-11408.7,1097.75 L-11408.7,1097.72 L-11408.4,1097.44 L-11408.4,1097.42 L-11408,1097.27 L-11408,1097.26 L-11407.8,1097.24 L-11360.3,1097.24 L-11363.6,1080.51 L-11374.3,1064.62 L-11390.1,1054.01 L-11409.3,1050.21 L-11409.4,1050.18 L-11409.4,1050.17 L-11409.5,1050.13 L-11409.8,1049.99 L-11410,1049.89 L-11410.1,1049.85 L-11410.2,1049.71 L-11410.5,1049.45 L-11410.6,1049.28 L-11410.6,1049.23 L-11410.7,1049.13 L-11482.4,1049.13 L-11482.6,1049.2 L-11482.6,1049.21 L-11482.9,1049.24 L-11482.9,1049.24 L-11482.9,1049.24 L-11524.1,1049.24 L-11524.1,1049.28 L-11524.2,1049.45 L-11524.4,1049.71 L-11524.6,1049.85 L-11524.7,1049.89 L-11524.8,1049.99 L-11525.2,1050.13 L-11525.3,1050.17 L-11525.3,1050.18 L-11525.4,1050.21 L-11531.8,1051.48 L-11531.9,1051.5 L-11532,1051.5 L-11532.1,1051.51 L-11532.4,1051.51 L-11532.6,1051.49 L-11532.7,1051.48 L-11532.8,1051.42 L-11533.1,1051.29 L-11533.3,1051.2 L-11533.4,1051.17 L-11533.5,1051.04 L-11533.8,1050.81 L-11533.9,1050.66 L-11533.9,1050.61 L-11534,1050.44 L-11534.1,1050.13 L-11534.2,1049.94 L-11534.2,1049.89 L-11534.2,1049.69 L-11534.2,1049.35 L-11534.2,1049.25 L-11534.2,1049.24 L-11581.7,1049.24 L-11581.7,1049.24 L-11581.7,1049.24 L-11581.9,1049.21 L-11582,1049.2 L-11582.3,1049.04 L-11582.3,1049.02 L-11582.6,1048.75 L-11582.6,1048.72 L-11582.8,1048.37 L-11582.8,1048.32 L-11582.8,1048.13 L-11582.8,830.868 L-11582.8,830.68 L-11582.8,830.634 L-11582.6,830.283 L-11582.6,830.251 L-11582.3,829.978 L-11582.3,829.956 L-11582,829.798 L-11581.9,829.788 L-11581.7,829.759 L-11581.7,829.759 L-11581.7,829.759 L-11483.9,829.759 L-11483.9,554.116 L-11699.8,554.116 L-11699.8,598.132 L-11699.8,598.327 L-11699.8,598.374 L-11700,598.735 L-11700,598.767 L-11700.2,599.042 L-11700.3,599.064 L-11700.6,599.213 L-11700.7,599.222 L-11700.9,599.242 L-11860.2,599.242"/>
</g>

<g fill="none" stroke="#000000" stroke-opacity="1" stroke-width="1" stroke-linecap="square" stroke-linejoin="bevel" transform="matrix(0.998261,0,0,-0.998261,11840.1,1545.78)"
font-family="MS Shell Dlg 2" font-size="10.3125" font-weight="400" font-style="normal" 
>
</g>

<g fill="none" stroke="#000000" stroke-opacity="1" stroke-width="1" stroke-linecap="square" stroke-linejoin="bevel" transform="matrix(0.998261,0,0,-0.998261,11840.1,1545.78)"
font-family="MS Shell Dlg 2" font-size="10.3125" font-weight="400" font-style="normal" 
>
</g>

<g fill="#ffff00" fill-opacity="0.2" stroke="#333333" stroke-opacity="1" stroke-width="1" stroke-linecap="round" stroke-linejoin="round" transform="matrix(0.998261,0,0,-0.998261,11840.1,1545.78)"
font-family="MS Shell Dlg 2" font-size="10.3125" font-weight="400" font-style="normal" 
>
<path vector-effect="non-scaling-stroke" fill-rule="evenodd" d="M-11860.2,599.242 L-11860.1,607.242 L-11700.8,607.242 L-11700.8,607.246 L-11700.8,607.244 L-11700.7,607.243 L-11700.7,607.242 L-11700.7,607.242 L-11700.7,607.242 L-11483.9,607.242 L-11483.9,554.116 L-11699.8,554.116 L-11699.8,598.132 L-11699.8,598.327 L-11699.8,598.374 L-11700,598.735 L-11700,598.767 L-11700.2,599.042 L-11700.3,599.064 L-11700.6,599.213 L-11700.7,599.222 L-11700.9,599.242 L-11860.2,599.242"/>
</g>

<g fill="none" stroke="#000000" stroke-opacity="1" stroke-width="1" stroke-linecap="square" stroke-linejoin="bevel" transform="matrix(0.998261,0,0,-0.998261,11840.1,1545.78)"
font-family="MS Shell Dlg 2" font-size="10.3125" font-weight="400" font-style="normal" 
>
</g>

<g fill="none" stroke="#000000" stroke-opacity="1" stroke-width="1" stroke-linecap="square" stroke-linejoin="bevel" transform="matrix(0.998261,0,0,-0.998261,11840.1,1545.78)"
font-family="MS Shell Dlg 2" font-size="10.3125" font-weight="400" font-style="normal" 
>
</g>

<g fill="#ae5151" fill-opacity="0.2" stroke="#333333" stroke-opacity="1" stroke-width="1" stroke-linecap="round" stroke-linejoin="round" transform="matrix(0.998261,0,0,-0.998261,11840.1,1545.78)"
font-family="MS Shell Dlg 2" font-size="10.3125" font-weight="400" font-style="normal" 
>
<path vector-effect="non-scaling-stroke" fill-rule="evenodd" d="M-11860.2,599.242 L-11860.1,607.242 L-11700.9,607.242 L-11700.7,607.261 L-11700.6,607.27 L-11700.3,607.42 L-11700.2,607.441 L-11700,607.717 L-11700,607.749 L-11699.8,608.109 L-11699.8,608.156 L-11699.8,608.351 L-11699.8,829.759 L-11601.9,829.759 L-11601.9,829.759 L-11601.9,829.759 L-11601.6,829.788 L-11601.6,829.798 L-11601.3,829.956 L-11601.2,829.978 L-11601,830.251 L-11601,830.283 L-11600.8,830.634 L-11600.8,830.68 L-11600.8,830.868 L-11600.8,1048.13 L-11600.8,1048.32 L-11600.8,1048.37 L-11601,1048.72 L-11601,1048.75 L-11601.2,1049.02 L-11601.3,1049.04 L-11601.6,1049.2 L-11601.6,1049.21 L-11601.9,1049.24 L-11601.9,1049.24 L-11601.9,1049.24 L-11649.4,1049.24 L-11648.1,1055.56 L-11648.1,1055.66 L-11648.1,1055.69 L-11648.1,1055.78 L-11648.1,1056.13 L-11648.1,1056.33 L-11648.1,1056.38 L-11648.2,1056.57 L-11648.3,1056.88 L-11648.4,1057.05 L-11648.4,1057.1 L-11648.5,1057.25 L-11648.8,1057.49 L-11648.9,1057.56 L-11648.9,1057.58 L-11649,1057.64 L-11659.4,1064.62 L-11670,1080.51 L-11673.8,1099.44 L-11673.8,1102.37 L-11625.9,1102.37 L-11625.7,1102.39 L-11625.6,1102.4 L-11625.3,1102.55 L-11625.2,1102.57 L-11625,1102.84 L-11625,1102.87 L-11624.8,1103.23 L-11624.8,1103.28 L-11624.8,1103.48 L-11624.8,1299.53 L-11526.9,1299.53 L-11526.7,1299.56 L-11526.6,1299.57 L-11526.3,1299.73 L-11526.2,1299.75 L-11526,1300.02 L-11526,1300.05 L-11525.8,1300.4 L-11525.8,1300.45 L-11525.8,1300.64 L-11525.8,1498.13 L-11525.8,1498.32 L-11525.8,1498.37 L-11526,1498.72 L-11526,1498.75 L-11526.2,1499.02 L-11526.3,1499.05 L-11526.6,1499.2 L-11526.7,1499.21 L-11526.9,1499.24 L-11574.4,1499.24 L-11571,1516.02 L-11560.4,1531.88 L-11544.5,1542.48 L-11525.6,1546.24 L-11409.1,1546.24 L-11408.9,1546.2 L-11408.9,1296.95 L-11506.7,1296.95 L-11506.9,1296.93 L-11507,1296.91 L-11507.3,1296.76 L-11507.3,1296.74 L-11507.6,1296.46 L-11507.6,1296.43 L-11507.8,1296.08 L-11507.8,1296.03 L-11507.8,1295.84 L-11507.8,1098.35 L-11507.8,1098.16 L-11507.8,1098.12 L-11507.6,1097.76 L-11507.6,1097.73 L-11507.3,1097.46 L-11507.3,1097.44 L-11507,1097.28 L-11506.9,1097.27 L-11506.7,1097.24 L-11459.2,1097.24 L-11460.5,1090.87 L-11460.5,1090.77 L-11460.5,1090.74 L-11460.5,1090.64 L-11460.5,1090.29 L-11460.5,1090.1 L-11460.5,1090.04 L-11460.4,1089.85 L-11460.3,1089.55 L-11460.2,1089.38 L-11460.2,1089.33 L-11460,1089.17 L-11459.8,1088.93 L-11459.7,1088.86 L-11459.7,1088.85 L-11459.6,1088.79 L-11449.3,1081.86 L-11438.6,1065.98 L-11435.3,1049.13 L-11482.8,1049.13 L-11483,1049.11 L-11483,1049.1 L-11483.4,1048.95 L-11483.4,1048.93 L-11483.7,1048.65 L-11483.7,1048.62 L-11483.9,1048.26 L-11483.9,1048.21 L-11483.9,1048.02 L-11483.9,826.724 L-11581.7,826.724 L-11581.7,826.724 L-11581.7,826.724 L-11581.9,826.696 L-11582,826.685 L-11582.3,826.527 L-11582.3,826.506 L-11582.6,826.232 L-11582.6,826.201 L-11582.8,825.85 L-11582.8,825.804 L-11582.8,825.615 L-11582.8,608.351 L-11582.8,608.162 L-11582.8,608.116 L-11582.6,607.765 L-11582.6,607.734 L-11582.3,607.46 L-11582.3,607.439 L-11582,607.281 L-11581.9,607.27 L-11581.7,607.242 L-11581.7,607.242 L-11581.7,607.242 L-11483.9,607.242 L-11483.9,554.116 L-11699.8,554.116 L-11699.8,598.132 L-11699.8,598.327 L-11699.8,598.374 L-11700,598.735 L-11700,598.767 L-11700.2,599.042 L-11700.3,599.064 L-11700.6,599.213 L-11700.7,599.222 L-11700.9,599.242 L-11860.2,599.242"/>
</g>

<g fill="none" stroke="#000000" stroke-opacity="1" stroke-width="1" stroke-linecap="square" stroke-linejoin="bevel" transform="matrix(0.998261,0,0,-0.998261,11840.1,1545.78)"
font-family="MS Shell Dlg 2" font-size="10.3125" font-weight="400" font-style="normal" 
>
</g>

<g fill="none" stroke="#000000" stroke-opacity="1" stroke-width="1" stroke-linecap="square" stroke-linejoin="bevel" transform="matrix(0.998261,0,0,-0.998261,11840.1,1545.78)"
font-family="MS Shell Dlg 2" font-size="10.3125" font-weight="400" font-style="normal" 
>
</g>

<g fill="#333333" fill-opacity="0.2" stroke="#333333" stroke-opacity="1" stroke-width="1" stroke-linecap="round" stroke-linejoin="round" transform="matrix(0.998261,0,0,-0.998261,11840.1,1545.78)"
font-family="MS Shell Dlg 2" font-size="10.3125" font-weight="400" font-style="normal" 
>
<path vector-effect="non-scaling-stroke" fill-rule="evenodd" d="M-11860.2,599.242 L-11860.1,607.242 L-11700.9,607.242 L-11700.7,607.261 L-11700.6,607.27 L-11700.3,607.42 L-11700.2,607.441 L-11700,607.717 L-11700,607.749 L-11699.8,608.109 L-11699.8,608.156 L-11699.8,608.351 L-11699.8,829.759 L-11601.9,829.759 L-11601.9,829.759 L-11601.9,829.759 L-11601.6,829.788 L-11601.6,829.798 L-11601.3,829.956 L-11601.2,829.978 L-11601,830.251 L-11601,830.283 L-11600.8,830.634 L-11600.8,830.68 L-11600.8,830.868 L-11600.8,1048.13 L-11600.8,1048.32 L-11600.8,1048.37 L-11601,1048.72 L-11601,1048.75 L-11601.2,1049.02 L-11601.3,1049.04 L-11601.6,1049.2 L-11601.6,1049.21 L-11601.9,1049.24 L-11601.9,1049.24 L-11601.9,1049.24 L-11649.4,1049.24 L-11648.1,1055.56 L-11648.1,1055.66 L-11648.1,1055.69 L-11648.1,1055.78 L-11648.1,1056.13 L-11648.1,1056.33 L-11648.1,1056.38 L-11648.2,1056.57 L-11648.3,1056.88 L-11648.4,1057.05 L-11648.4,1057.1 L-11648.5,1057.25 L-11648.8,1057.49 L-11648.9,1057.56 L-11648.9,1057.58 L-11649,1057.64 L-11659.4,1064.62 L-11670,1080.51 L-11673.8,1099.44 L-11673.8,1102.37 L-11625.9,1102.37 L-11625.7,1102.39 L-11625.6,1102.4 L-11625.3,1102.55 L-11625.2,1102.57 L-11625,1102.84 L-11625,1102.87 L-11624.8,1103.23 L-11624.8,1103.28 L-11624.8,1103.48 L-11624.8,1299.53 L-11526.9,1299.53 L-11526.7,1299.56 L-11526.6,1299.57 L-11526.3,1299.73 L-11526.2,1299.75 L-11526,1300.02 L-11526,1300.05 L-11525.8,1300.4 L-11525.8,1300.45 L-11525.8,1300.64 L-11525.8,1498.13 L-11525.8,1498.32 L-11525.8,1498.37 L-11526,1498.72 L-11526,1498.75 L-11526.2,1499.02 L-11526.3,1499.05 L-11526.6,1499.2 L-11526.7,1499.21 L-11526.9,1499.24 L-11574.4,1499.24 L-11571,1516.02 L-11560.4,1531.88 L-11544.5,1542.48 L-11525.6,1546.24 L-11409.1,1546.24 L-11408.9,1546.2 L-11408.9,1296.95 L-11506.7,1296.95 L-11506.9,1296.93 L-11507,1296.91 L-11507.3,1296.76 L-11507.3,1296.74 L-11507.6,1296.46 L-11507.6,1296.43 L-11507.8,1296.08 L-11507.8,1296.03 L-11507.8,1295.84 L-11507.8,1098.35 L-11507.8,1098.16 L-11507.8,1098.12 L-11507.6,1097.76 L-11507.6,1097.73 L-11507.3,1097.46 L-11507.3,1097.44 L-11507,1097.28 L-11506.9,1097.27 L-11506.7,1097.24 L-11459.2,1097.24 L-11460.5,1090.87 L-11460.5,1090.77 L-11460.5,1090.74 L-11460.5,1090.64 L-11460.5,1090.29 L-11460.5,1090.1 L-11460.5,1090.04 L-11460.4,1089.85 L-11460.3,1089.55 L-11460.2,1089.38 L-11460.2,1089.33 L-11460,1089.17 L-11459.8,1088.93 L-11459.7,1088.86 L-11459.7,1088.85 L-11459.6,1088.79 L-11449.3,1081.86 L-11438.6,1065.98 L-11435.3,1049.13 L-11482.8,1049.13 L-11483,1049.11 L-11483,1049.1 L-11483.4,1048.95 L-11483.4,1048.93 L-11483.7,1048.65 L-11483.7,1048.62 L-11483.9,1048.26 L-11483.9,1048.21 L-11483.9,1048.02 L-11483.9,826.724 L-11581.7,826.724 L-11581.7,826.724 L-11581.7,826.724 L-11581.9,826.696 L-11582,826.685 L-11582.3,826.527 L-11582.3,826.506 L-11582.6,826.232 L-11582.6,826.201 L-11582.8,825.85 L-11582.8,825.804 L-11582.8,825.615 L-11582.8,608.351 L-11582.8,608.162 L-11582.8,608.116 L-11582.6,607.765 L-11582.6,607.734 L-11582.3,607.46 L-11582.3,607.439 L-11582,607.281 L-11581.9,607.27 L-11581.7,607.242 L-11581.7,607.242 L-11581.7,607.242 L-11483.9,607.242 L-11483.9,554.116 L-11699.8,554.116 L-11699.8,598.132 L-11699.8,598.327 L-11699.8,598.374 L-11700,598.735 L-11700,598.767 L-11700.2,599.042 L-11700.3,599.064 L-11700.6,599.213 L-11700.7,599.222 L-11700.9,599.242 L-11860.2,599.242"/>
</g>

<g fill="none" stroke="#000000" stroke-opacity="1" stroke-width="1" stroke-linecap="square" stroke-linejoin="bevel" transform="matrix(0.998261,0,0,-0.998261,11840.1,1545.78)"
font-family="MS Shell Dlg 2" font-size="10.3125" font-weight="400" font-style="normal" 
>
</g>

<g fill="none" stroke="#000000" stroke-opacity="1" stroke-width="1" stroke-linecap="square" stroke-linejoin="bevel" transform="matrix(1,0,0,-1,0,993.126)"
font-family="MS Shell Dlg 2" font-size="10.3125" font-weight="400" font-style="normal" 
>
</g>
</g>
</svg>
