<?xml version="1.0" encoding="UTF-8" standalone="no"?>
<svg width="88.3356mm" height="450.709mm"
 xmlns="http://www.w3.org/2000/svg" xmlns:xlink="http://www.w3.org/1999/xlink"  version="1.2" baseProfile="tiny">
<title>SVG Generator Example Drawing</title>
<desc>An SVG drawing created by the SVG Generator</desc>
<defs>
</defs>
<g fill="none" stroke="black" stroke-width="1" fill-rule="evenodd" stroke-linecap="square" stroke-linejoin="bevel" >

<g fill="none" stroke="#000000" stroke-opacity="1" stroke-width="1" stroke-linecap="square" stroke-linejoin="bevel" transform="matrix(1,0,0,-1,0,1597.08)"
font-family="MS Shell Dlg 2" font-size="10.3125" font-weight="400" font-style="normal" 
>
</g>

<g fill="none" stroke="#000000" stroke-opacity="1" stroke-width="1" stroke-linecap="square" stroke-linejoin="bevel" transform="matrix(1,0,0,-1,0,1597.08)"
font-family="MS Shell Dlg 2" font-size="10.3125" font-weight="400" font-style="normal" 
>
</g>

<g fill="none" stroke="#000000" stroke-opacity="1" stroke-width="1" stroke-linecap="square" stroke-linejoin="bevel" transform="matrix(0.996868,0,0,-0.996868,11313.3,3989.27)"
font-family="MS Shell Dlg 2" font-size="10.3125" font-weight="400" font-style="normal" 
>
</g>

<g fill="#333333" fill-opacity="0.2" stroke="#333333" stroke-opacity="1" stroke-width="1" stroke-linecap="round" stroke-linejoin="round" transform="matrix(0.996868,0,0,-0.996868,11313.3,3989.27)"
font-family="MS Shell Dlg 2" font-size="10.3125" font-weight="400" font-style="normal" 
>
<path vector-effect="non-scaling-stroke" fill-rule="evenodd" d="M-11299.4,2822.09 L-11299,3201.56 L-11201.9,3201.56 L-11201.9,3201.56 L-11201.8,3201.56 L-11201.6,3201.6 L-11201.6,3201.61 L-11201.2,3201.77 L-11201.2,3201.79 L-11201,3202.06 L-11200.9,3202.09 L-11200.8,3202.44 L-11200.8,3202.48 L-11200.8,3202.67 L-11200.8,3566.66 L-11200.8,3566.84 L-11200.8,3566.89 L-11200.9,3567.23 L-11201,3567.26 L-11201.2,3567.54 L-11201.2,3567.56 L-11201.6,3567.72 L-11201.6,3567.73 L-11201.8,3567.77 L-11201.9,3567.77 L-11201.9,3567.77 L-11298.7,3567.77 L-11298.2,3996.25 L-11298.1,3996.28 L-11183,3996.26 L-11164,3992.49 L-11148.2,3981.88 L-11137.5,3966 L-11134.2,3949.25 L-11181.7,3949.26 L-11181.7,3949.26 L-11181.7,3949.26 L-11181.9,3949.22 L-11182,3949.21 L-11182.3,3949.05 L-11182.4,3949.03 L-11182.6,3948.76 L-11182.6,3948.72 L-11182.8,3948.38 L-11182.8,3948.34 L-11182.8,3948.15 L-11182.8,3575.51 L-11182.8,3575.33 L-11182.8,3575.28 L-11182.6,3574.94 L-11182.6,3574.91 L-11182.4,3574.63 L-11182.3,3574.61 L-11182,3574.45 L-11181.9,3574.44 L-11181.7,3574.4 L-11181.7,3574.4 L-11181.7,3574.4 L-11084.3,3574.4 L-11084.6,3194.93 L-11181.7,3194.93 L-11181.7,3194.93 L-11181.7,3194.93 L-11181.9,3194.89 L-11182,3194.88 L-11182.3,3194.72 L-11182.4,3194.69 L-11182.6,3194.42 L-11182.6,3194.39 L-11182.8,3194.05 L-11182.8,3194 L-11182.8,3193.82 L-11182.8,2829.83 L-11182.8,2829.64 L-11182.8,2829.6 L-11182.6,2829.25 L-11182.6,2829.22 L-11182.4,2828.95 L-11182.3,2828.93 L-11182,2828.76 L-11181.9,2828.75 L-11181.7,2828.72 L-11181.7,2828.72 L-11181.7,2828.72 L-11085,2828.72 L-11085.4,2448.35 L-11085.4,2448.16 L-11085.4,2448.11 L-11085.2,2447.75 L-11085.2,2447.72 L-11084.9,2447.44 L-11084.9,2447.42 L-11084.5,2447.27 L-11084.5,2447.26 L-11084.3,2447.24 L-11036.8,2447.24 L-11040.2,2430.43 L-11050.8,2414.56 L-11066.7,2403.96 L-11085.6,2400.2 L-11200.6,2400.22 L-11219.5,2403.99 L-11235.4,2414.61 L-11246,2430.49 L-11249.4,2447.23 L-11201.9,2447.22 L-11201.9,2447.23 L-11201.8,2447.23 L-11201.6,2447.26 L-11201.6,2447.27 L-11201.2,2447.44 L-11201.2,2447.46 L-11201,2447.73 L-11200.9,2447.76 L-11200.8,2448.11 L-11200.8,2448.15 L-11200.8,2448.33 L-11200.8,2820.98 L-11200.8,2821.16 L-11200.8,2821.21 L-11200.9,2821.55 L-11201,2821.58 L-11201.2,2821.85 L-11201.2,2821.87 L-11201.6,2822.04 L-11201.6,2822.05 L-11201.8,2822.08 L-11201.9,2822.08 L-11201.9,2822.09 L-11299.4,2822.09"/>
</g>

<g fill="none" stroke="#000000" stroke-opacity="1" stroke-width="1" stroke-linecap="square" stroke-linejoin="bevel" transform="matrix(0.996868,0,0,-0.996868,11313.3,3989.27)"
font-family="MS Shell Dlg 2" font-size="10.3125" font-weight="400" font-style="normal" 
>
</g>

<g fill="none" stroke="#000000" stroke-opacity="1" stroke-width="1" stroke-linecap="square" stroke-linejoin="bevel" transform="matrix(0.996868,0,0,-0.996868,11313.3,3989.27)"
font-family="MS Shell Dlg 2" font-size="10.3125" font-weight="400" font-style="normal" 
>
</g>

<g fill="#ae5151" fill-opacity="0.2" stroke="#333333" stroke-opacity="1" stroke-width="1" stroke-linecap="round" stroke-linejoin="round" transform="matrix(0.996868,0,0,-0.996868,11313.3,3989.27)"
font-family="MS Shell Dlg 2" font-size="10.3125" font-weight="400" font-style="normal" 
>
<path vector-effect="non-scaling-stroke" fill-rule="evenodd" d="M-11299.4,2822.09 L-11299,3201.56 L-11201.9,3201.56 L-11201.9,3201.56 L-11201.8,3201.56 L-11201.6,3201.6 L-11201.6,3201.61 L-11201.2,3201.77 L-11201.2,3201.79 L-11201,3202.06 L-11200.9,3202.09 L-11200.8,3202.44 L-11200.8,3202.48 L-11200.8,3202.67 L-11200.8,3566.66 L-11200.8,3566.84 L-11200.8,3566.89 L-11200.9,3567.23 L-11201,3567.26 L-11201.2,3567.54 L-11201.2,3567.56 L-11201.6,3567.72 L-11201.6,3567.73 L-11201.8,3567.77 L-11201.9,3567.77 L-11201.9,3567.77 L-11298.7,3567.77 L-11298.2,3996.25 L-11298.1,3996.28 L-11183,3996.26 L-11164,3992.49 L-11148.2,3981.88 L-11137.5,3966 L-11134.2,3949.25 L-11181.7,3949.26 L-11181.7,3949.26 L-11181.7,3949.26 L-11181.9,3949.22 L-11182,3949.21 L-11182.3,3949.05 L-11182.4,3949.03 L-11182.6,3948.76 L-11182.6,3948.72 L-11182.8,3948.38 L-11182.8,3948.34 L-11182.8,3948.15 L-11182.8,3575.51 L-11182.8,3575.33 L-11182.8,3575.28 L-11182.6,3574.94 L-11182.6,3574.91 L-11182.4,3574.63 L-11182.3,3574.61 L-11182,3574.45 L-11181.9,3574.44 L-11181.7,3574.4 L-11181.7,3574.4 L-11181.7,3574.4 L-11084.3,3574.4 L-11084.6,3194.93 L-11181.7,3194.93 L-11181.7,3194.93 L-11181.7,3194.93 L-11181.9,3194.89 L-11182,3194.88 L-11182.3,3194.72 L-11182.4,3194.69 L-11182.6,3194.42 L-11182.6,3194.39 L-11182.8,3194.05 L-11182.8,3194 L-11182.8,3193.82 L-11182.8,2829.83 L-11182.8,2829.64 L-11182.8,2829.6 L-11182.6,2829.25 L-11182.6,2829.22 L-11182.4,2828.95 L-11182.3,2828.93 L-11182,2828.76 L-11181.9,2828.75 L-11181.7,2828.72 L-11181.7,2828.72 L-11181.7,2828.72 L-11085,2828.72 L-11085.4,2448.35 L-11085.4,2448.16 L-11085.4,2448.11 L-11085.2,2447.75 L-11085.2,2447.72 L-11084.9,2447.44 L-11084.9,2447.42 L-11084.5,2447.27 L-11084.5,2447.26 L-11084.3,2447.24 L-11036.8,2447.24 L-11040.2,2430.43 L-11050.8,2414.56 L-11066.7,2403.96 L-11085.6,2400.2 L-11200.6,2400.22 L-11219.5,2403.99 L-11235.4,2414.61 L-11246,2430.49 L-11249.4,2447.23 L-11201.9,2447.22 L-11201.9,2447.23 L-11201.8,2447.23 L-11201.6,2447.26 L-11201.6,2447.27 L-11201.2,2447.44 L-11201.2,2447.46 L-11201,2447.73 L-11200.9,2447.76 L-11200.8,2448.11 L-11200.8,2448.15 L-11200.8,2448.33 L-11200.8,2820.98 L-11200.8,2821.16 L-11200.8,2821.21 L-11200.9,2821.55 L-11201,2821.58 L-11201.2,2821.85 L-11201.2,2821.87 L-11201.6,2822.04 L-11201.6,2822.05 L-11201.8,2822.08 L-11201.9,2822.08 L-11201.9,2822.09 L-11299.4,2822.09"/>
</g>

<g fill="none" stroke="#000000" stroke-opacity="1" stroke-width="1" stroke-linecap="square" stroke-linejoin="bevel" transform="matrix(0.996868,0,0,-0.996868,11313.3,3989.27)"
font-family="MS Shell Dlg 2" font-size="10.3125" font-weight="400" font-style="normal" 
>
</g>

<g fill="none" stroke="#000000" stroke-opacity="1" stroke-width="1" stroke-linecap="square" stroke-linejoin="bevel" transform="matrix(0.996868,0,0,-0.996868,11313.3,3989.27)"
font-family="MS Shell Dlg 2" font-size="10.3125" font-weight="400" font-style="normal" 
>
</g>

<g fill="#ffff00" fill-opacity="0.2" stroke="#333333" stroke-opacity="1" stroke-width="1" stroke-linecap="round" stroke-linejoin="round" transform="matrix(0.996868,0,0,-0.996868,11313.3,3989.27)"
font-family="MS Shell Dlg 2" font-size="10.3125" font-weight="400" font-style="normal" 
>
<path vector-effect="non-scaling-stroke" fill-rule="evenodd" d="M-11220.8,2764.24 L-11220.8,3632.24 L-11162.8,3632.24 L-11162.8,2764.24 L-11220.8,2764.24"/>
</g>

<g fill="none" stroke="#000000" stroke-opacity="1" stroke-width="1" stroke-linecap="square" stroke-linejoin="bevel" transform="matrix(0.996868,0,0,-0.996868,11313.3,3989.27)"
font-family="MS Shell Dlg 2" font-size="10.3125" font-weight="400" font-style="normal" 
>
</g>

<g fill="none" stroke="#000000" stroke-opacity="1" stroke-width="1" stroke-linecap="square" stroke-linejoin="bevel" transform="matrix(0.996868,0,0,-0.996868,11313.3,3989.27)"
font-family="MS Shell Dlg 2" font-size="10.3125" font-weight="400" font-style="normal" 
>
</g>

<g fill="#ae5151" fill-opacity="0.2" stroke="#333333" stroke-opacity="1" stroke-width="1" stroke-linecap="round" stroke-linejoin="round" transform="matrix(0.996868,0,0,-0.996868,11313.3,3989.27)"
font-family="MS Shell Dlg 2" font-size="10.3125" font-weight="400" font-style="normal" 
>
<path vector-effect="non-scaling-stroke" fill-rule="evenodd" d="M-11348.3,2447.24 L-11300.9,2447.24 L-11300.7,2447.26 L-11300.6,2447.27 L-11300.3,2447.42 L-11300.2,2447.44 L-11300,2447.72 L-11300,2447.75 L-11299.8,2448.11 L-11299.8,2448.16 L-11299.8,2448.35 L-11299.4,2828.72 L-11201.9,2828.72 L-11201.8,2828.72 L-11201.8,2828.72 L-11201.6,2828.75 L-11201.6,2828.76 L-11201.2,2828.93 L-11201.2,2828.95 L-11201,2829.22 L-11200.9,2829.25 L-11200.8,2829.6 L-11200.8,2829.64 L-11200.8,2829.83 L-11200.8,3193.82 L-11200.8,3194 L-11200.8,3194.05 L-11200.9,3194.39 L-11201,3194.42 L-11201.2,3194.69 L-11201.2,3194.72 L-11201.6,3194.88 L-11201.6,3194.89 L-11201.8,3194.93 L-11201.8,3194.93 L-11201.9,3194.93 L-11299,3194.93 L-11298.7,3574.4 L-11201.9,3574.4 L-11201.8,3574.4 L-11201.8,3574.4 L-11201.6,3574.44 L-11201.6,3574.45 L-11201.2,3574.61 L-11201.2,3574.63 L-11201,3574.91 L-11200.9,3574.94 L-11200.8,3575.28 L-11200.8,3575.33 L-11200.8,3575.51 L-11200.8,3948.16 L-11200.8,3948.34 L-11200.8,3948.38 L-11200.9,3948.73 L-11201,3948.76 L-11201.2,3949.03 L-11201.2,3949.05 L-11201.6,3949.22 L-11201.6,3949.23 L-11201.8,3949.26 L-11201.8,3949.26 L-11201.9,3949.26 L-11249.3,3949.27 L-11246,3966 L-11235.4,3981.89 L-11219.5,3992.5 L-11200.6,3996.26 L-11181.7,3996.26 L-11084.1,3996.24 L-11065.1,3992.47 L-11049.3,3981.84 L-11038.7,3965.94 L-11035.3,3949.24 L-11082.8,3949.24 L-11083,3949.22 L-11083,3949.21 L-11083.4,3949.07 L-11083.4,3949.04 L-11083.7,3948.77 L-11083.7,3948.74 L-11083.9,3948.38 L-11083.9,3948.33 L-11083.9,3948.13 L-11084.3,3567.77 L-11181.7,3567.77 L-11181.7,3567.77 L-11181.7,3567.77 L-11182,3567.73 L-11182,3567.72 L-11182.3,3567.56 L-11182.4,3567.54 L-11182.6,3567.26 L-11182.6,3567.23 L-11182.8,3566.89 L-11182.8,3566.84 L-11182.8,3566.66 L-11182.8,3202.67 L-11182.8,3202.48 L-11182.8,3202.44 L-11182.6,3202.09 L-11182.6,3202.06 L-11182.4,3201.79 L-11182.3,3201.77 L-11182,3201.61 L-11182,3201.6 L-11181.7,3201.56 L-11181.7,3201.56 L-11181.7,3201.56 L-11084.6,3201.56 L-11085,2822.09 L-11181.7,2822.09 L-11181.7,2822.08 L-11181.7,2822.08 L-11182,2822.05 L-11182,2822.04 L-11182.3,2821.87 L-11182.4,2821.85 L-11182.6,2821.58 L-11182.6,2821.55 L-11182.8,2821.21 L-11182.8,2821.16 L-11182.8,2820.98 L-11182.8,2448.33 L-11182.8,2448.15 L-11182.8,2448.1 L-11182.6,2447.76 L-11182.6,2447.73 L-11182.4,2447.45 L-11182.3,2447.43 L-11182,2447.27 L-11182,2447.26 L-11181.7,2447.22 L-11181.7,2447.22 L-11181.7,2447.22 L-11134.2,2447.21 L-11137.6,2430.48 L-11148.2,2414.6 L-11164.1,2403.98 L-11183,2400.22 L-11201.9,2400.22 L-11299.6,2400.24 L-11318.5,2404.02 L-11334.4,2414.64 L-11345,2430.54 L-11348.3,2447.24"/>
</g>

<g fill="none" stroke="#000000" stroke-opacity="1" stroke-width="1" stroke-linecap="square" stroke-linejoin="bevel" transform="matrix(0.996868,0,0,-0.996868,11313.3,3989.27)"
font-family="MS Shell Dlg 2" font-size="10.3125" font-weight="400" font-style="normal" 
>
</g>

<g fill="none" stroke="#000000" stroke-opacity="1" stroke-width="1" stroke-linecap="square" stroke-linejoin="bevel" transform="matrix(0.996868,0,0,-0.996868,11313.3,3989.27)"
font-family="MS Shell Dlg 2" font-size="10.3125" font-weight="400" font-style="normal" 
>
</g>

<g fill="#333333" fill-opacity="0.2" stroke="#333333" stroke-opacity="1" stroke-width="1" stroke-linecap="round" stroke-linejoin="round" transform="matrix(0.996868,0,0,-0.996868,11313.3,3989.27)"
font-family="MS Shell Dlg 2" font-size="10.3125" font-weight="400" font-style="normal" 
>
<path vector-effect="non-scaling-stroke" fill-rule="evenodd" d="M-11348.3,2447.24 L-11300.9,2447.24 L-11300.7,2447.26 L-11300.6,2447.27 L-11300.3,2447.42 L-11300.2,2447.44 L-11300,2447.72 L-11300,2447.75 L-11299.8,2448.11 L-11299.8,2448.16 L-11299.8,2448.35 L-11299.4,2828.72 L-11201.9,2828.72 L-11201.8,2828.72 L-11201.8,2828.72 L-11201.6,2828.75 L-11201.6,2828.76 L-11201.2,2828.93 L-11201.2,2828.95 L-11201,2829.22 L-11200.9,2829.25 L-11200.8,2829.6 L-11200.8,2829.64 L-11200.8,2829.83 L-11200.8,3193.82 L-11200.8,3194 L-11200.8,3194.05 L-11200.9,3194.39 L-11201,3194.42 L-11201.2,3194.69 L-11201.2,3194.72 L-11201.6,3194.88 L-11201.6,3194.89 L-11201.8,3194.93 L-11201.8,3194.93 L-11201.9,3194.93 L-11299,3194.93 L-11298.7,3574.4 L-11201.9,3574.4 L-11201.8,3574.4 L-11201.8,3574.4 L-11201.6,3574.44 L-11201.6,3574.45 L-11201.2,3574.61 L-11201.2,3574.63 L-11201,3574.91 L-11200.9,3574.94 L-11200.8,3575.28 L-11200.8,3575.33 L-11200.8,3575.51 L-11200.8,3948.16 L-11200.8,3948.34 L-11200.8,3948.38 L-11200.9,3948.73 L-11201,3948.76 L-11201.2,3949.03 L-11201.2,3949.05 L-11201.6,3949.22 L-11201.6,3949.23 L-11201.8,3949.26 L-11201.8,3949.26 L-11201.9,3949.26 L-11249.3,3949.27 L-11246,3966 L-11235.4,3981.89 L-11219.5,3992.5 L-11200.6,3996.26 L-11181.7,3996.26 L-11084.1,3996.24 L-11065.1,3992.47 L-11049.3,3981.84 L-11038.7,3965.94 L-11035.3,3949.24 L-11082.8,3949.24 L-11083,3949.22 L-11083,3949.21 L-11083.4,3949.07 L-11083.4,3949.04 L-11083.7,3948.77 L-11083.7,3948.74 L-11083.9,3948.38 L-11083.9,3948.33 L-11083.9,3948.13 L-11084.3,3567.77 L-11181.7,3567.77 L-11181.7,3567.77 L-11181.7,3567.77 L-11182,3567.73 L-11182,3567.72 L-11182.3,3567.56 L-11182.4,3567.54 L-11182.6,3567.26 L-11182.6,3567.23 L-11182.8,3566.89 L-11182.8,3566.84 L-11182.8,3566.66 L-11182.8,3202.67 L-11182.8,3202.48 L-11182.8,3202.44 L-11182.6,3202.09 L-11182.6,3202.06 L-11182.4,3201.79 L-11182.3,3201.77 L-11182,3201.61 L-11182,3201.6 L-11181.7,3201.56 L-11181.7,3201.56 L-11181.7,3201.56 L-11084.6,3201.56 L-11085,2822.09 L-11181.7,2822.09 L-11181.7,2822.08 L-11181.7,2822.08 L-11182,2822.05 L-11182,2822.04 L-11182.3,2821.87 L-11182.4,2821.85 L-11182.6,2821.58 L-11182.6,2821.55 L-11182.8,2821.21 L-11182.8,2821.16 L-11182.8,2820.98 L-11182.8,2448.33 L-11182.8,2448.15 L-11182.8,2448.1 L-11182.6,2447.76 L-11182.6,2447.73 L-11182.4,2447.45 L-11182.3,2447.43 L-11182,2447.27 L-11182,2447.26 L-11181.7,2447.22 L-11181.7,2447.22 L-11181.7,2447.22 L-11134.2,2447.21 L-11137.6,2430.48 L-11148.2,2414.6 L-11164.1,2403.98 L-11183,2400.22 L-11201.9,2400.22 L-11299.6,2400.24 L-11318.5,2404.02 L-11334.4,2414.64 L-11345,2430.54 L-11348.3,2447.24"/>
</g>

<g fill="none" stroke="#000000" stroke-opacity="1" stroke-width="1" stroke-linecap="square" stroke-linejoin="bevel" transform="matrix(0.996868,0,0,-0.996868,11313.3,3989.27)"
font-family="MS Shell Dlg 2" font-size="10.3125" font-weight="400" font-style="normal" 
>
</g>

<g fill="none" stroke="#000000" stroke-opacity="1" stroke-width="1" stroke-linecap="square" stroke-linejoin="bevel" transform="matrix(1,0,0,-1,0,1597.08)"
font-family="MS Shell Dlg 2" font-size="10.3125" font-weight="400" font-style="normal" 
>
</g>
</g>
</svg>
