<?xml version="1.0" encoding="UTF-8" standalone="no"?>
<svg width="271.216mm" height="450.427mm"
 xmlns="http://www.w3.org/2000/svg" xmlns:xlink="http://www.w3.org/1999/xlink"  version="1.2" baseProfile="tiny">
<title>SVG Generator Example Drawing</title>
<desc>An SVG drawing created by the SVG Generator</desc>
<defs>
</defs>
<g fill="none" stroke="black" stroke-width="1" fill-rule="evenodd" stroke-linecap="square" stroke-linejoin="bevel" >

<g fill="none" stroke="#000000" stroke-opacity="1" stroke-width="1" stroke-linecap="square" stroke-linejoin="bevel" transform="matrix(1,0,0,-1,0,1597)"
font-family="MS Shell Dlg 2" font-size="10.3125" font-weight="400" font-style="normal" 
>
</g>

<g fill="none" stroke="#000000" stroke-opacity="1" stroke-width="1" stroke-linecap="square" stroke-linejoin="bevel" transform="matrix(1,0,0,-1,0,1597)"
font-family="MS Shell Dlg 2" font-size="10.3125" font-weight="400" font-style="normal" 
>
</g>

<g fill="none" stroke="#000000" stroke-opacity="1" stroke-width="1" stroke-linecap="square" stroke-linejoin="bevel" transform="matrix(0.999374,0,0,-0.999374,10883,5594.24)"
font-family="MS Shell Dlg 2" font-size="10.3125" font-weight="400" font-style="normal" 
>
</g>

<g fill="#333333" fill-opacity="0.2" stroke="#333333" stroke-opacity="1" stroke-width="1" stroke-linecap="round" stroke-linejoin="round" transform="matrix(0.999374,0,0,-0.999374,10883,5594.24)"
font-family="MS Shell Dlg 2" font-size="10.3125" font-weight="400" font-style="normal" 
>
<path vector-effect="non-scaling-stroke" fill-rule="evenodd" d="M-10889.3,4047.24 L-10841.9,4047.24 L-10841.7,4047.26 L-10841.7,4047.27 L-10841.3,4047.42 L-10841.3,4047.44 L-10841,4047.72 L-10841,4047.75 L-10840.8,4048.11 L-10840.8,4048.16 L-10840.8,4048.35 L-10840.8,5548.13 L-10840.8,5548.33 L-10840.8,5548.38 L-10841,5548.74 L-10841,5548.77 L-10841.3,5549.04 L-10841.3,5549.06 L-10841.7,5549.21 L-10841.7,5549.22 L-10841.9,5549.24 L-10889.3,5549.24 L-10886,5565.98 L-10875.4,5581.86 L-10859.5,5592.48 L-10840.6,5596.24 L-10473.7,5596.24 L-10457.9,5593.2 L-10692.7,4903.55 L-10692.8,4903.4 L-10692.8,4903.35 L-10692.8,4903.18 L-10692.8,4653.32 L-10692.8,4653.12 L-10692.8,4653.08 L-10692.6,4652.72 L-10692.6,4652.68 L-10692.3,4652.41 L-10692.3,4652.39 L-10691.9,4652.24 L-10691.9,4652.23 L-10691.7,4652.21 L-9928.8,4652.21 L-9928.8,4604.21 L-10691.7,4604.21 L-10691.9,4604.19 L-10691.9,4604.18 L-10692.3,4604.03 L-10692.3,4604.01 L-10692.6,4603.73 L-10692.6,4603.7 L-10692.8,4603.34 L-10692.8,4603.29 L-10692.8,4603.1 L-10692.8,4000.28 L-10693,4000.24 L-10840.6,4000.24 L-10859.5,4004.01 L-10875.4,4014.62 L-10886,4030.51 L-10889.3,4047.24"/>
</g>

<g fill="none" stroke="#000000" stroke-opacity="1" stroke-width="1" stroke-linecap="square" stroke-linejoin="bevel" transform="matrix(0.999374,0,0,-0.999374,10883,5594.24)"
font-family="MS Shell Dlg 2" font-size="10.3125" font-weight="400" font-style="normal" 
>
</g>

<g fill="none" stroke="#000000" stroke-opacity="1" stroke-width="1" stroke-linecap="square" stroke-linejoin="bevel" transform="matrix(0.999374,0,0,-0.999374,10883,5594.24)"
font-family="MS Shell Dlg 2" font-size="10.3125" font-weight="400" font-style="normal" 
>
</g>

<g fill="#ae5151" fill-opacity="0.2" stroke="#333333" stroke-opacity="1" stroke-width="1" stroke-linecap="round" stroke-linejoin="round" transform="matrix(0.999374,0,0,-0.999374,10883,5594.24)"
font-family="MS Shell Dlg 2" font-size="10.3125" font-weight="400" font-style="normal" 
>
<path vector-effect="non-scaling-stroke" fill-rule="evenodd" d="M-10889.3,4047.24 L-10841.9,4047.24 L-10841.7,4047.26 L-10841.7,4047.27 L-10841.3,4047.42 L-10841.3,4047.44 L-10841,4047.72 L-10841,4047.75 L-10840.8,4048.11 L-10840.8,4048.16 L-10840.8,4048.35 L-10840.8,5548.13 L-10840.8,5548.33 L-10840.8,5548.38 L-10841,5548.74 L-10841,5548.77 L-10841.3,5549.04 L-10841.3,5549.06 L-10841.7,5549.21 L-10841.7,5549.22 L-10841.9,5549.24 L-10889.3,5549.24 L-10886,5565.98 L-10875.4,5581.86 L-10859.5,5592.48 L-10840.6,5596.24 L-10473.7,5596.24 L-10457.9,5593.2 L-10692.7,4903.55 L-10692.8,4903.4 L-10692.8,4903.35 L-10692.8,4903.18 L-10692.8,4653.32 L-10692.8,4653.12 L-10692.8,4653.08 L-10692.6,4652.72 L-10692.6,4652.68 L-10692.3,4652.41 L-10692.3,4652.39 L-10691.9,4652.24 L-10691.9,4652.23 L-10691.7,4652.21 L-9928.8,4652.21 L-9928.8,4604.21 L-10691.7,4604.21 L-10691.9,4604.19 L-10691.9,4604.18 L-10692.3,4604.03 L-10692.3,4604.01 L-10692.6,4603.73 L-10692.6,4603.7 L-10692.8,4603.34 L-10692.8,4603.29 L-10692.8,4603.1 L-10692.8,4000.28 L-10693,4000.24 L-10840.6,4000.24 L-10859.5,4004.01 L-10875.4,4014.62 L-10886,4030.51 L-10889.3,4047.24"/>
</g>

<g fill="none" stroke="#000000" stroke-opacity="1" stroke-width="1" stroke-linecap="square" stroke-linejoin="bevel" transform="matrix(0.999374,0,0,-0.999374,10883,5594.24)"
font-family="MS Shell Dlg 2" font-size="10.3125" font-weight="400" font-style="normal" 
>
</g>

<g fill="none" stroke="#000000" stroke-opacity="1" stroke-width="1" stroke-linecap="square" stroke-linejoin="bevel" transform="matrix(0.999374,0,0,-0.999374,10883,5594.24)"
font-family="MS Shell Dlg 2" font-size="10.3125" font-weight="400" font-style="normal" 
>
</g>

<g fill="#ffff00" fill-opacity="0.2" stroke="#333333" stroke-opacity="1" stroke-width="1" stroke-linecap="round" stroke-linejoin="round" transform="matrix(0.999374,0,0,-0.999374,10883,5594.24)"
font-family="MS Shell Dlg 2" font-size="10.3125" font-weight="400" font-style="normal" 
>
<path vector-effect="non-scaling-stroke" fill-rule="evenodd" d="M-10889.3,4047.24 L-10841.9,4047.24 L-10841.7,4047.26 L-10841.7,4047.27 L-10841.3,4047.42 L-10841.3,4047.44 L-10841,4047.72 L-10841,4047.75 L-10840.8,4048.11 L-10840.8,4048.16 L-10840.8,4048.35 L-10840.8,5548.13 L-10840.8,5548.33 L-10840.8,5548.38 L-10841,5548.74 L-10841,5548.77 L-10841.3,5549.04 L-10841.3,5549.06 L-10841.7,5549.21 L-10841.7,5549.22 L-10841.9,5549.24 L-10889.3,5549.24 L-10886,5565.98 L-10875.4,5581.86 L-10859.5,5592.48 L-10840.6,5596.24 L-10473.7,5596.24 L-10457.9,5593.2 L-10692.7,4903.55 L-10692.8,4903.4 L-10692.8,4903.35 L-10692.8,4903.18 L-10692.8,4653.32 L-10692.8,4653.12 L-10692.8,4653.08 L-10692.6,4652.72 L-10692.6,4652.68 L-10692.3,4652.41 L-10692.3,4652.39 L-10691.9,4652.24 L-10691.9,4652.23 L-10691.7,4652.21 L-9928.8,4652.21 L-9928.8,4604.21 L-10691.7,4604.21 L-10691.9,4604.19 L-10691.9,4604.18 L-10692.3,4604.03 L-10692.3,4604.01 L-10692.6,4603.73 L-10692.6,4603.7 L-10692.8,4603.34 L-10692.8,4603.29 L-10692.8,4603.1 L-10692.8,4000.28 L-10693,4000.24 L-10840.6,4000.24 L-10859.5,4004.01 L-10875.4,4014.62 L-10886,4030.51 L-10889.3,4047.24"/>
</g>

<g fill="none" stroke="#000000" stroke-opacity="1" stroke-width="1" stroke-linecap="square" stroke-linejoin="bevel" transform="matrix(0.999374,0,0,-0.999374,10883,5594.24)"
font-family="MS Shell Dlg 2" font-size="10.3125" font-weight="400" font-style="normal" 
>
</g>

<g fill="none" stroke="#000000" stroke-opacity="1" stroke-width="1" stroke-linecap="square" stroke-linejoin="bevel" transform="matrix(0.999374,0,0,-0.999374,10883,5594.24)"
font-family="MS Shell Dlg 2" font-size="10.3125" font-weight="400" font-style="normal" 
>
</g>

<g fill="#ae5151" fill-opacity="0.2" stroke="#333333" stroke-opacity="1" stroke-width="1" stroke-linecap="round" stroke-linejoin="round" transform="matrix(0.999374,0,0,-0.999374,10883,5594.24)"
font-family="MS Shell Dlg 2" font-size="10.3125" font-weight="400" font-style="normal" 
>
<path vector-effect="non-scaling-stroke" fill-rule="evenodd" d="M-10889.3,4047.24 L-10841.9,4047.24 L-10841.7,4047.26 L-10841.7,4047.27 L-10841.3,4047.42 L-10841.3,4047.44 L-10841,4047.72 L-10841,4047.75 L-10840.8,4048.11 L-10840.8,4048.16 L-10840.8,4048.35 L-10840.8,5548.13 L-10840.8,5548.33 L-10840.8,5548.38 L-10841,5548.74 L-10841,5548.77 L-10841.3,5549.04 L-10841.3,5549.06 L-10841.7,5549.21 L-10841.7,5549.22 L-10841.9,5549.24 L-10889.3,5549.24 L-10886,5565.98 L-10875.4,5581.86 L-10859.5,5592.48 L-10840.6,5596.24 L-10473.7,5596.24 L-10457.9,5593.2 L-10692.7,4903.55 L-10692.8,4903.4 L-10692.8,4903.35 L-10692.8,4903.18 L-10692.8,4653.32 L-10692.8,4653.12 L-10692.8,4653.08 L-10692.6,4652.72 L-10692.6,4652.68 L-10692.3,4652.41 L-10692.3,4652.39 L-10691.9,4652.24 L-10691.9,4652.23 L-10691.7,4652.21 L-9928.8,4652.21 L-9928.8,4604.21 L-10691.7,4604.21 L-10691.9,4604.19 L-10691.9,4604.18 L-10692.3,4604.03 L-10692.3,4604.01 L-10692.6,4603.73 L-10692.6,4603.7 L-10692.8,4603.34 L-10692.8,4603.29 L-10692.8,4603.1 L-10692.8,4000.28 L-10693,4000.24 L-10840.6,4000.24 L-10859.5,4004.01 L-10875.4,4014.62 L-10886,4030.51 L-10889.3,4047.24"/>
</g>

<g fill="none" stroke="#000000" stroke-opacity="1" stroke-width="1" stroke-linecap="square" stroke-linejoin="bevel" transform="matrix(0.999374,0,0,-0.999374,10883,5594.24)"
font-family="MS Shell Dlg 2" font-size="10.3125" font-weight="400" font-style="normal" 
>
</g>

<g fill="none" stroke="#000000" stroke-opacity="1" stroke-width="1" stroke-linecap="square" stroke-linejoin="bevel" transform="matrix(0.999374,0,0,-0.999374,10883,5594.24)"
font-family="MS Shell Dlg 2" font-size="10.3125" font-weight="400" font-style="normal" 
>
</g>

<g fill="#333333" fill-opacity="0.2" stroke="#333333" stroke-opacity="1" stroke-width="1" stroke-linecap="round" stroke-linejoin="round" transform="matrix(0.999374,0,0,-0.999374,10883,5594.24)"
font-family="MS Shell Dlg 2" font-size="10.3125" font-weight="400" font-style="normal" 
>
<path vector-effect="non-scaling-stroke" fill-rule="evenodd" d="M-10889.3,4047.24 L-10841.9,4047.24 L-10841.7,4047.26 L-10841.7,4047.27 L-10841.3,4047.42 L-10841.3,4047.44 L-10841,4047.72 L-10841,4047.75 L-10840.8,4048.11 L-10840.8,4048.16 L-10840.8,4048.35 L-10840.8,5548.13 L-10840.8,5548.33 L-10840.8,5548.38 L-10841,5548.74 L-10841,5548.77 L-10841.3,5549.04 L-10841.3,5549.06 L-10841.7,5549.21 L-10841.7,5549.22 L-10841.9,5549.24 L-10889.3,5549.24 L-10886,5565.98 L-10875.4,5581.86 L-10859.5,5592.48 L-10840.6,5596.24 L-10473.7,5596.24 L-10457.9,5593.2 L-10692.7,4903.55 L-10692.8,4903.4 L-10692.8,4903.35 L-10692.8,4903.18 L-10692.8,4653.32 L-10692.8,4653.12 L-10692.8,4653.08 L-10692.6,4652.72 L-10692.6,4652.68 L-10692.3,4652.41 L-10692.3,4652.39 L-10691.9,4652.24 L-10691.9,4652.23 L-10691.7,4652.21 L-9928.8,4652.21 L-9928.8,4604.21 L-10691.7,4604.21 L-10691.9,4604.19 L-10691.9,4604.18 L-10692.3,4604.03 L-10692.3,4604.01 L-10692.6,4603.73 L-10692.6,4603.7 L-10692.8,4603.34 L-10692.8,4603.29 L-10692.8,4603.1 L-10692.8,4000.28 L-10693,4000.24 L-10840.6,4000.24 L-10859.5,4004.01 L-10875.4,4014.62 L-10886,4030.51 L-10889.3,4047.24"/>
</g>

<g fill="none" stroke="#000000" stroke-opacity="1" stroke-width="1" stroke-linecap="square" stroke-linejoin="bevel" transform="matrix(0.999374,0,0,-0.999374,10883,5594.24)"
font-family="MS Shell Dlg 2" font-size="10.3125" font-weight="400" font-style="normal" 
>
</g>

<g fill="none" stroke="#000000" stroke-opacity="1" stroke-width="1" stroke-linecap="square" stroke-linejoin="bevel" transform="matrix(1,0,0,-1,0,1597)"
font-family="MS Shell Dlg 2" font-size="10.3125" font-weight="400" font-style="normal" 
>
</g>
</g>
</svg>
