<?xml version="1.0" encoding="UTF-8" standalone="no"?>
<svg width="1015.15mm" height="311.291mm"
 xmlns="http://www.w3.org/2000/svg" xmlns:xlink="http://www.w3.org/1999/xlink"  version="1.2" baseProfile="tiny">
<title>SVG Generator Example Drawing</title>
<desc>An SVG drawing created by the SVG Generator</desc>
<defs>
</defs>
<g fill="none" stroke="black" stroke-width="1" fill-rule="evenodd" stroke-linecap="square" stroke-linejoin="bevel" >

<g fill="none" stroke="#000000" stroke-opacity="1" stroke-width="1" stroke-linecap="square" stroke-linejoin="bevel" transform="matrix(1,0,0,-1,0,1103.54)"
font-family="MS Shell Dlg 2" font-size="10.3125" font-weight="400" font-style="normal" 
>
</g>

<g fill="none" stroke="#000000" stroke-opacity="1" stroke-width="1" stroke-linecap="square" stroke-linejoin="bevel" transform="matrix(1,0,0,-1,0,1103.54)"
font-family="MS Shell Dlg 2" font-size="10.3125" font-weight="400" font-style="normal" 
>
</g>

<g fill="none" stroke="#000000" stroke-opacity="1" stroke-width="1" stroke-linecap="square" stroke-linejoin="bevel" transform="matrix(0.999508,0,0,-0.999508,10735,2495.62)"
font-family="MS Shell Dlg 2" font-size="10.3125" font-weight="400" font-style="normal" 
>
</g>

<g fill="#333333" fill-opacity="0.2" stroke="#333333" stroke-opacity="1" stroke-width="1" stroke-linecap="round" stroke-linejoin="round" transform="matrix(0.999508,0,0,-0.999508,10735,2495.62)"
font-family="MS Shell Dlg 2" font-size="10.3125" font-weight="400" font-style="normal" 
>
<path vector-effect="non-scaling-stroke" fill-rule="evenodd" d="M-9739.82,1442.05 L-9739.81,1538.15 L-9739.8,1557.06 L-9736.03,1575.99 L-9725.42,1591.87 L-9709.54,1602.48 L-9692.79,1605.81 L-9692.8,1558.35 L-9692.8,1558.31 L-9692.8,1558.3 L-9692.76,1558.08 L-9692.75,1558.03 L-9692.59,1557.7 L-9692.57,1557.67 L-9692.3,1557.42 L-9692.27,1557.41 L-9691.92,1557.27 L-9691.88,1557.26 L-9691.69,1557.25 L-9319.05,1557.25 L-9318.87,1557.26 L-9318.82,1557.27 L-9318.48,1557.41 L-9318.45,1557.42 L-9318.17,1557.67 L-9318.15,1557.7 L-9317.99,1558.03 L-9317.98,1558.08 L-9317.94,1558.3 L-9317.94,1558.31 L-9317.94,1558.35 L-9317.94,1655.86 L-8938.47,1655.49 L-8938.47,1558.35 L-8938.47,1558.31 L-8938.47,1558.3 L-8938.43,1558.08 L-8938.42,1558.03 L-8938.26,1557.7 L-8938.24,1557.67 L-8937.96,1557.42 L-8937.93,1557.41 L-8937.59,1557.27 L-8937.54,1557.26 L-8937.36,1557.25 L-8573.37,1557.25 L-8573.18,1557.26 L-8573.14,1557.27 L-8572.79,1557.41 L-8572.76,1557.42 L-8572.49,1557.67 L-8572.47,1557.7 L-8572.31,1558.03 L-8572.29,1558.08 L-8572.26,1558.3 L-8572.26,1558.31 L-8572.26,1558.35 L-8572.26,1655.12 L-8191.9,1654.75 L-8191.7,1654.77 L-8191.65,1654.78 L-8191.29,1654.93 L-8191.26,1654.95 L-8190.98,1655.22 L-8190.96,1655.26 L-8190.81,1655.62 L-8190.8,1655.66 L-8190.78,1655.86 L-8190.78,1703.33 L-8173.97,1699.97 L-8158.1,1689.35 L-8147.5,1673.47 L-8143.75,1654.56 L-8143.73,1654.47 L-8143.72,1654.44 L-8143.69,1654.36 L-8143.57,1654.06 L-8143.48,1653.89 L-8143.45,1653.85 L-8143.34,1653.7 L-8143.13,1653.47 L-8142.99,1653.35 L-8142.95,1653.32 L-8142.79,1653.22 L-8142.51,1653.09 L-8142.34,1653.02 L-8142.29,1653.01 L-8142.11,1652.97 L-8141.8,1652.95 L-8141.62,1652.95 L-8141.56,1652.95 L-8141.38,1652.99 L-8141.08,1653.08 L-8140.91,1653.14 L-8140.86,1653.17 L-8140.71,1653.26 L-8140.46,1653.45 L-8140.32,1653.58 L-8140.29,1653.62 L-8140.18,1653.76 L-8140.01,1654.03 L-8139.93,1654.19 L-8139.91,1654.24 L-8139.86,1654.42 L-8139.8,1654.74 L-8139.79,1654.83 L-8139.79,1654.86 L-8139.78,1654.95 L-8139.78,1863.93 L-8139.78,1863.93 L-8139.78,1863.93 L-8139.78,1863.94 L-8139.78,1863.96 L-8139.78,1863.96 L-8139.78,1863.97 L-8139.78,1863.97 L-8139.79,1864.34 L-8139.78,1963.11 L-8139.78,2071.41 L-8139.79,2071.52 L-8139.79,2071.56 L-8139.81,2071.67 L-8139.9,2072.06 L-8139.98,2072.28 L-8140.01,2072.34 L-8140.14,2072.53 L-8140.38,2072.83 L-8140.54,2072.99 L-8140.6,2073.03 L-8140.79,2073.15 L-8141.16,2073.31 L-8141.27,2073.35 L-8141.3,2073.36 L-8141.41,2073.39 L-8154.39,2075.97 L-8170.28,2086.59 L-8180.89,2102.47 L-8184.66,2121.41 L-8184.66,2179.09 L-8184.66,2179.19 L-8184.67,2179.22 L-8184.68,2179.32 L-8184.75,2179.66 L-8184.8,2179.85 L-8184.83,2179.9 L-8184.92,2180.07 L-8185.1,2180.35 L-8185.23,2180.5 L-8185.27,2180.54 L-8185.42,2180.66 L-8185.69,2180.85 L-8185.87,2180.94 L-8185.92,2180.96 L-8186.11,2181.02 L-8186.45,2181.09 L-8186.55,2181.1 L-8186.57,2181.1 L-8186.67,2181.11 L-8190.59,2181.11 L-8190.78,2181.15 L-8190.78,2447.24 L-7191.89,2447.24 L-7191.7,2447.26 L-7191.65,2447.27 L-7191.29,2447.42 L-7191.26,2447.44 L-7190.98,2447.72 L-7190.96,2447.75 L-7190.81,2448.11 L-7190.8,2448.16 L-7190.78,2448.35 L-7190.78,2495.81 L-7174.05,2492.48 L-7158.16,2481.86 L-7147.55,2465.98 L-7143.78,2447.05 L-7143.78,1583.2 L-7143.78,1583.11 L-7143.78,1583.08 L-7143.77,1583.02 L-7192.1,1549.24 L-8097.18,1549.24 L-8097.37,1549.22 L-8097.42,1549.21 L-8097.78,1549.06 L-8097.81,1549.04 L-8098.09,1548.77 L-8098.11,1548.74 L-8098.26,1548.38 L-8098.27,1548.33 L-8098.29,1548.13 L-8098.29,1526.74 L-8109.52,1528.97 L-8125.4,1539.59 L-8136.02,1555.47 L-8139.79,1574.46 L-8139.82,1574.56 L-8139.83,1574.59 L-8139.87,1574.69 L-8140.01,1575.03 L-8140.12,1575.22 L-8140.15,1575.27 L-8140.29,1575.42 L-8140.55,1575.66 L-8140.72,1575.79 L-8140.77,1575.82 L-8140.96,1575.91 L-8141.3,1576.02 L-8141.5,1576.06 L-8141.57,1576.07 L-8141.78,1576.07 L-8142.13,1576.04 L-8142.33,1576 L-8142.39,1575.98 L-8142.59,1575.89 L-8142.89,1575.72 L-8143.06,1575.59 L-8143.11,1575.55 L-8143.25,1575.4 L-8143.46,1575.11 L-8143.57,1574.93 L-8143.59,1574.87 L-8143.66,1574.67 L-8143.73,1574.31 L-8143.75,1574.21 L-8143.75,1574.18 L-8143.76,1574.07 L-8143.76,1558.33 L-8143.77,1539.43 L-8147.53,1520.5 L-8158.15,1504.62 L-8174.03,1494.01 L-8190.77,1490.68 L-8190.77,1538.13 L-8190.77,1538.18 L-8190.77,1538.18 L-8190.8,1538.41 L-8190.81,1538.45 L-8190.98,1538.78 L-8191,1538.81 L-8191.27,1539.06 L-8191.3,1539.08 L-8191.65,1539.21 L-8191.69,1539.22 L-8191.88,1539.24 L-8564.52,1539.24 L-8564.7,1539.22 L-8564.75,1539.21 L-8565.09,1539.08 L-8565.12,1539.06 L-8565.39,1538.81 L-8565.41,1538.78 L-8565.58,1538.45 L-8565.59,1538.41 L-8565.63,1538.18 L-8565.63,1538.18 L-8565.63,1538.13 L-8565.63,1440.73 L-8945.1,1441.1 L-8945.1,1538.13 L-8945.1,1538.18 L-8945.1,1538.18 L-8945.14,1538.41 L-8945.15,1538.45 L-8945.31,1538.78 L-8945.33,1538.81 L-8945.6,1539.06 L-8945.64,1539.08 L-8945.98,1539.21 L-8946.02,1539.22 L-8946.21,1539.24 L-9310.2,1539.24 L-9310.39,1539.22 L-9310.43,1539.21 L-9310.77,1539.08 L-9310.81,1539.06 L-9311.08,1538.81 L-9311.1,1538.78 L-9311.26,1538.45 L-9311.27,1538.41 L-9311.31,1538.18 L-9311.31,1538.18 L-9311.31,1538.13 L-9311.31,1441.47 L-9691.67,1441.84 L-9691.87,1441.82 L-9691.92,1441.81 L-9692.28,1441.66 L-9692.31,1441.64 L-9692.58,1441.37 L-9692.61,1441.34 L-9692.75,1440.98 L-9692.76,1440.93 L-9692.78,1440.73 L-9692.78,1393.26 L-9709.6,1396.62 L-9725.46,1407.24 L-9736.06,1423.12 L-9739.82,1442.05"/>
</g>

<g fill="none" stroke="#000000" stroke-opacity="1" stroke-width="1" stroke-linecap="square" stroke-linejoin="bevel" transform="matrix(0.999508,0,0,-0.999508,10735,2495.62)"
font-family="MS Shell Dlg 2" font-size="10.3125" font-weight="400" font-style="normal" 
>
</g>

<g fill="none" stroke="#000000" stroke-opacity="1" stroke-width="1" stroke-linecap="square" stroke-linejoin="bevel" transform="matrix(0.999508,0,0,-0.999508,10735,2495.62)"
font-family="MS Shell Dlg 2" font-size="10.3125" font-weight="400" font-style="normal" 
>
</g>

<g fill="#333333" fill-opacity="0.2" stroke="#333333" stroke-opacity="1" stroke-width="1" stroke-linecap="round" stroke-linejoin="round" transform="matrix(0.999508,0,0,-0.999508,10735,2495.62)"
font-family="MS Shell Dlg 2" font-size="10.3125" font-weight="400" font-style="normal" 
>
<path vector-effect="non-scaling-stroke" fill-rule="evenodd" d="M-10739.7,2447.24 L-9692.78,2447.24 L-9692.78,2181.15 L-9692.98,2181.11 L-9696.89,2181.11 L-9696.99,2181.1 L-9697.02,2181.1 L-9697.12,2181.09 L-9697.46,2181.02 L-9697.65,2180.96 L-9697.7,2180.94 L-9697.87,2180.85 L-9698.15,2180.66 L-9698.3,2180.54 L-9698.34,2180.5 L-9698.46,2180.35 L-9698.65,2180.07 L-9698.74,2179.9 L-9698.76,2179.85 L-9698.82,2179.66 L-9698.89,2179.32 L-9698.9,2179.22 L-9698.9,2179.19 L-9698.91,2179.09 L-9698.91,2121.41 L-9702.68,2102.47 L-9713.29,2086.59 L-9729.17,2075.97 L-9742.16,2073.39 L-9742.27,2073.36 L-9742.3,2073.35 L-9742.41,2073.31 L-9742.77,2073.15 L-9742.97,2073.03 L-9743.02,2072.99 L-9743.19,2072.83 L-9743.43,2072.53 L-9743.56,2072.34 L-9743.59,2072.28 L-9743.66,2072.06 L-9743.75,2071.67 L-9743.77,2071.56 L-9743.78,2071.52 L-9743.78,2071.41 L-9743.78,1864.36 L-9743.78,1864.3 L-9743.78,1864.28 L-9743.77,1864.22 L-9743.78,1574.4 L-9747.55,1555.47 L-9758.16,1539.59 L-9774.05,1528.97 L-9792.98,1525.21 L-10690.6,1525.21 L-10709.5,1528.97 L-10725.4,1539.59 L-10736,1555.47 L-10739.8,1574.41 L-10739.8,2447.05 L-10739.7,2447.24"/>
</g>

<g fill="none" stroke="#000000" stroke-opacity="1" stroke-width="1" stroke-linecap="square" stroke-linejoin="bevel" transform="matrix(0.999508,0,0,-0.999508,10735,2495.62)"
font-family="MS Shell Dlg 2" font-size="10.3125" font-weight="400" font-style="normal" 
>
</g>

<g fill="none" stroke="#000000" stroke-opacity="1" stroke-width="1" stroke-linecap="square" stroke-linejoin="bevel" transform="matrix(0.999508,0,0,-0.999508,10735,2495.62)"
font-family="MS Shell Dlg 2" font-size="10.3125" font-weight="400" font-style="normal" 
>
</g>

<g fill="#ae5151" fill-opacity="0.2" stroke="#333333" stroke-opacity="1" stroke-width="1" stroke-linecap="round" stroke-linejoin="round" transform="matrix(0.999508,0,0,-0.999508,10735,2495.62)"
font-family="MS Shell Dlg 2" font-size="10.3125" font-weight="400" font-style="normal" 
>
<path vector-effect="non-scaling-stroke" fill-rule="evenodd" d="M-9739.82,1442.05 L-9739.81,1538.15 L-9739.8,1557.06 L-9736.03,1575.99 L-9725.42,1591.87 L-9709.54,1602.48 L-9692.79,1605.81 L-9692.8,1558.35 L-9692.8,1558.31 L-9692.8,1558.3 L-9692.76,1558.08 L-9692.75,1558.03 L-9692.59,1557.7 L-9692.57,1557.67 L-9692.3,1557.42 L-9692.27,1557.41 L-9691.92,1557.27 L-9691.88,1557.26 L-9691.69,1557.25 L-9319.05,1557.25 L-9318.87,1557.26 L-9318.82,1557.27 L-9318.48,1557.41 L-9318.45,1557.42 L-9318.17,1557.67 L-9318.15,1557.7 L-9317.99,1558.03 L-9317.98,1558.08 L-9317.94,1558.3 L-9317.94,1558.31 L-9317.94,1558.35 L-9317.94,1655.86 L-8938.47,1655.49 L-8938.47,1558.35 L-8938.47,1558.31 L-8938.47,1558.3 L-8938.43,1558.08 L-8938.42,1558.03 L-8938.26,1557.7 L-8938.24,1557.67 L-8937.96,1557.42 L-8937.93,1557.41 L-8937.59,1557.27 L-8937.54,1557.26 L-8937.36,1557.25 L-8573.37,1557.25 L-8573.18,1557.26 L-8573.14,1557.27 L-8572.79,1557.41 L-8572.76,1557.42 L-8572.49,1557.67 L-8572.47,1557.7 L-8572.31,1558.03 L-8572.29,1558.08 L-8572.26,1558.3 L-8572.26,1558.31 L-8572.26,1558.35 L-8572.26,1655.12 L-8191.9,1654.75 L-8191.7,1654.77 L-8191.65,1654.78 L-8191.29,1654.93 L-8191.26,1654.95 L-8190.98,1655.22 L-8190.96,1655.26 L-8190.81,1655.62 L-8190.8,1655.66 L-8190.78,1655.86 L-8190.78,1703.33 L-8173.97,1699.97 L-8158.1,1689.35 L-8147.5,1673.47 L-8143.75,1654.56 L-8143.73,1654.47 L-8143.72,1654.44 L-8143.69,1654.36 L-8143.57,1654.06 L-8143.48,1653.89 L-8143.45,1653.85 L-8143.34,1653.7 L-8143.13,1653.47 L-8142.99,1653.35 L-8142.95,1653.32 L-8142.79,1653.22 L-8142.51,1653.09 L-8142.34,1653.02 L-8142.29,1653.01 L-8142.11,1652.97 L-8141.8,1652.95 L-8141.62,1652.95 L-8141.56,1652.95 L-8141.38,1652.99 L-8141.08,1653.08 L-8140.91,1653.14 L-8140.86,1653.17 L-8140.71,1653.26 L-8140.46,1653.45 L-8140.32,1653.58 L-8140.29,1653.62 L-8140.18,1653.76 L-8140.01,1654.03 L-8139.93,1654.19 L-8139.91,1654.24 L-8139.86,1654.42 L-8139.8,1654.74 L-8139.79,1654.83 L-8139.79,1654.86 L-8139.78,1654.95 L-8139.78,1863.93 L-8139.78,1863.93 L-8139.78,1863.93 L-8139.78,1863.94 L-8139.78,1863.96 L-8139.78,1863.96 L-8139.78,1863.97 L-8139.78,1863.97 L-8139.79,1864.34 L-8139.78,1963.11 L-8139.78,2071.41 L-8139.79,2071.52 L-8139.79,2071.56 L-8139.81,2071.67 L-8139.9,2072.06 L-8139.98,2072.28 L-8140.01,2072.34 L-8140.14,2072.53 L-8140.38,2072.83 L-8140.54,2072.99 L-8140.6,2073.03 L-8140.79,2073.15 L-8141.16,2073.31 L-8141.27,2073.35 L-8141.3,2073.36 L-8141.41,2073.39 L-8154.39,2075.97 L-8170.28,2086.59 L-8180.89,2102.47 L-8184.66,2121.41 L-8184.66,2179.09 L-8184.66,2179.19 L-8184.67,2179.22 L-8184.68,2179.32 L-8184.75,2179.66 L-8184.8,2179.85 L-8184.83,2179.9 L-8184.92,2180.07 L-8185.1,2180.35 L-8185.23,2180.5 L-8185.27,2180.54 L-8185.42,2180.66 L-8185.69,2180.85 L-8185.87,2180.94 L-8185.92,2180.96 L-8186.11,2181.02 L-8186.45,2181.09 L-8186.55,2181.1 L-8186.57,2181.1 L-8186.67,2181.11 L-8190.59,2181.11 L-8190.78,2181.15 L-8190.78,2447.24 L-7191.89,2447.24 L-7191.7,2447.26 L-7191.65,2447.27 L-7191.29,2447.42 L-7191.26,2447.44 L-7190.98,2447.72 L-7190.96,2447.75 L-7190.81,2448.11 L-7190.8,2448.16 L-7190.78,2448.35 L-7190.78,2495.81 L-7174.05,2492.48 L-7158.16,2481.86 L-7147.55,2465.98 L-7143.78,2447.05 L-7143.78,1583.2 L-7143.78,1583.11 L-7143.78,1583.08 L-7143.77,1583.02 L-7192.1,1549.24 L-8097.18,1549.24 L-8097.37,1549.22 L-8097.42,1549.21 L-8097.78,1549.06 L-8097.81,1549.04 L-8098.09,1548.77 L-8098.11,1548.74 L-8098.26,1548.38 L-8098.27,1548.33 L-8098.29,1548.13 L-8098.29,1526.74 L-8109.52,1528.97 L-8125.4,1539.59 L-8136.02,1555.47 L-8139.79,1574.46 L-8139.82,1574.56 L-8139.83,1574.59 L-8139.87,1574.69 L-8140.01,1575.03 L-8140.12,1575.22 L-8140.15,1575.27 L-8140.29,1575.42 L-8140.55,1575.66 L-8140.72,1575.79 L-8140.77,1575.82 L-8140.96,1575.91 L-8141.3,1576.02 L-8141.5,1576.06 L-8141.57,1576.07 L-8141.78,1576.07 L-8142.13,1576.04 L-8142.33,1576 L-8142.39,1575.98 L-8142.59,1575.89 L-8142.89,1575.72 L-8143.06,1575.59 L-8143.11,1575.55 L-8143.25,1575.4 L-8143.46,1575.11 L-8143.57,1574.93 L-8143.59,1574.87 L-8143.66,1574.67 L-8143.73,1574.31 L-8143.75,1574.21 L-8143.75,1574.18 L-8143.76,1574.07 L-8143.76,1558.33 L-8143.77,1539.43 L-8147.53,1520.5 L-8158.15,1504.62 L-8174.03,1494.01 L-8190.77,1490.68 L-8190.77,1538.13 L-8190.77,1538.18 L-8190.77,1538.18 L-8190.8,1538.41 L-8190.81,1538.45 L-8190.98,1538.78 L-8191,1538.81 L-8191.27,1539.06 L-8191.3,1539.08 L-8191.65,1539.21 L-8191.69,1539.22 L-8191.88,1539.24 L-8564.52,1539.24 L-8564.7,1539.22 L-8564.75,1539.21 L-8565.09,1539.08 L-8565.12,1539.06 L-8565.39,1538.81 L-8565.41,1538.78 L-8565.58,1538.45 L-8565.59,1538.41 L-8565.63,1538.18 L-8565.63,1538.18 L-8565.63,1538.13 L-8565.63,1440.73 L-8945.1,1441.1 L-8945.1,1538.13 L-8945.1,1538.18 L-8945.1,1538.18 L-8945.14,1538.41 L-8945.15,1538.45 L-8945.31,1538.78 L-8945.33,1538.81 L-8945.6,1539.06 L-8945.64,1539.08 L-8945.98,1539.21 L-8946.02,1539.22 L-8946.21,1539.24 L-9310.2,1539.24 L-9310.39,1539.22 L-9310.43,1539.21 L-9310.77,1539.08 L-9310.81,1539.06 L-9311.08,1538.81 L-9311.1,1538.78 L-9311.26,1538.45 L-9311.27,1538.41 L-9311.31,1538.18 L-9311.31,1538.18 L-9311.31,1538.13 L-9311.31,1441.47 L-9691.67,1441.84 L-9691.87,1441.82 L-9691.92,1441.81 L-9692.28,1441.66 L-9692.31,1441.64 L-9692.58,1441.37 L-9692.61,1441.34 L-9692.75,1440.98 L-9692.76,1440.93 L-9692.78,1440.73 L-9692.78,1393.26 L-9709.6,1396.62 L-9725.46,1407.24 L-9736.06,1423.12 L-9739.82,1442.05"/>
</g>

<g fill="none" stroke="#000000" stroke-opacity="1" stroke-width="1" stroke-linecap="square" stroke-linejoin="bevel" transform="matrix(0.999508,0,0,-0.999508,10735,2495.62)"
font-family="MS Shell Dlg 2" font-size="10.3125" font-weight="400" font-style="normal" 
>
</g>

<g fill="none" stroke="#000000" stroke-opacity="1" stroke-width="1" stroke-linecap="square" stroke-linejoin="bevel" transform="matrix(0.999508,0,0,-0.999508,10735,2495.62)"
font-family="MS Shell Dlg 2" font-size="10.3125" font-weight="400" font-style="normal" 
>
</g>

<g fill="#ae5151" fill-opacity="0.2" stroke="#333333" stroke-opacity="1" stroke-width="1" stroke-linecap="round" stroke-linejoin="round" transform="matrix(0.999508,0,0,-0.999508,10735,2495.62)"
font-family="MS Shell Dlg 2" font-size="10.3125" font-weight="400" font-style="normal" 
>
<path vector-effect="non-scaling-stroke" fill-rule="evenodd" d="M-10739.7,2447.24 L-9692.78,2447.24 L-9692.78,2181.15 L-9692.98,2181.11 L-9696.89,2181.11 L-9696.99,2181.1 L-9697.02,2181.1 L-9697.12,2181.09 L-9697.46,2181.02 L-9697.65,2180.96 L-9697.7,2180.94 L-9697.87,2180.85 L-9698.15,2180.66 L-9698.3,2180.54 L-9698.34,2180.5 L-9698.46,2180.35 L-9698.65,2180.07 L-9698.74,2179.9 L-9698.76,2179.85 L-9698.82,2179.66 L-9698.89,2179.32 L-9698.9,2179.22 L-9698.9,2179.19 L-9698.91,2179.09 L-9698.91,2121.41 L-9702.68,2102.47 L-9713.29,2086.59 L-9729.17,2075.97 L-9742.16,2073.39 L-9742.27,2073.36 L-9742.3,2073.35 L-9742.41,2073.31 L-9742.77,2073.15 L-9742.97,2073.03 L-9743.02,2072.99 L-9743.19,2072.83 L-9743.43,2072.53 L-9743.56,2072.34 L-9743.59,2072.28 L-9743.66,2072.06 L-9743.75,2071.67 L-9743.77,2071.56 L-9743.78,2071.52 L-9743.78,2071.41 L-9743.78,1864.36 L-9743.78,1864.3 L-9743.78,1864.28 L-9743.77,1864.22 L-9743.78,1574.4 L-9747.55,1555.47 L-9758.16,1539.59 L-9774.05,1528.97 L-9792.98,1525.21 L-10690.6,1525.21 L-10709.5,1528.97 L-10725.4,1539.59 L-10736,1555.47 L-10739.8,1574.41 L-10739.8,2447.05 L-10739.7,2447.24"/>
</g>

<g fill="none" stroke="#000000" stroke-opacity="1" stroke-width="1" stroke-linecap="square" stroke-linejoin="bevel" transform="matrix(0.999508,0,0,-0.999508,10735,2495.62)"
font-family="MS Shell Dlg 2" font-size="10.3125" font-weight="400" font-style="normal" 
>
</g>

<g fill="none" stroke="#000000" stroke-opacity="1" stroke-width="1" stroke-linecap="square" stroke-linejoin="bevel" transform="matrix(0.999508,0,0,-0.999508,10735,2495.62)"
font-family="MS Shell Dlg 2" font-size="10.3125" font-weight="400" font-style="normal" 
>
</g>

<g fill="#ffff00" fill-opacity="0.2" stroke="#333333" stroke-opacity="1" stroke-width="1" stroke-linecap="round" stroke-linejoin="round" transform="matrix(0.999508,0,0,-0.999508,10735,2495.62)"
font-family="MS Shell Dlg 2" font-size="10.3125" font-weight="400" font-style="normal" 
>
<path vector-effect="non-scaling-stroke" fill-rule="evenodd" d="M-8190.78,2181.15 L-8190.78,2447.24 L-7191.89,2447.24 L-7191.7,2447.26 L-7191.65,2447.27 L-7191.29,2447.42 L-7191.26,2447.44 L-7190.98,2447.72 L-7190.96,2447.75 L-7190.81,2448.11 L-7190.8,2448.16 L-7190.78,2448.35 L-7190.78,2495.81 L-7174.05,2492.48 L-7158.16,2481.86 L-7147.55,2465.98 L-7143.78,2447.05 L-7143.78,1583.2 L-7143.78,1583.11 L-7143.78,1583.08 L-7143.77,1583.02 L-7192.1,1549.24 L-8097.18,1549.24 L-8097.37,1549.22 L-8097.42,1549.21 L-8097.78,1549.06 L-8097.81,1549.04 L-8098.09,1548.77 L-8098.11,1548.74 L-8098.26,1548.38 L-8098.27,1548.33 L-8098.29,1548.13 L-8098.29,1526.74 L-8109.52,1528.97 L-8125.4,1539.59 L-8136.02,1555.47 L-8139.78,1574.41 L-8139.78,1863.93 L-8139.78,1863.93 L-8139.78,1863.93 L-8139.78,1863.94 L-8139.78,1863.96 L-8139.78,1863.96 L-8139.78,1863.97 L-8139.78,1863.97 L-8139.79,1864.34 L-8139.78,1963.11 L-8139.78,2071.41 L-8139.79,2071.52 L-8139.79,2071.56 L-8139.81,2071.67 L-8139.9,2072.06 L-8139.98,2072.28 L-8140.01,2072.34 L-8140.14,2072.53 L-8140.38,2072.83 L-8140.54,2072.99 L-8140.6,2073.03 L-8140.79,2073.15 L-8141.16,2073.31 L-8141.27,2073.35 L-8141.3,2073.36 L-8141.41,2073.39 L-8154.39,2075.97 L-8170.28,2086.59 L-8180.89,2102.47 L-8184.66,2121.41 L-8184.66,2179.09 L-8184.66,2179.19 L-8184.67,2179.22 L-8184.68,2179.32 L-8184.75,2179.66 L-8184.8,2179.85 L-8184.83,2179.9 L-8184.92,2180.07 L-8185.1,2180.35 L-8185.23,2180.5 L-8185.27,2180.54 L-8185.42,2180.66 L-8185.69,2180.85 L-8185.87,2180.94 L-8185.92,2180.96 L-8186.11,2181.02 L-8186.45,2181.09 L-8186.55,2181.1 L-8186.57,2181.1 L-8186.67,2181.11 L-8190.59,2181.11 L-8190.78,2181.15"/>
</g>

<g fill="none" stroke="#000000" stroke-opacity="1" stroke-width="1" stroke-linecap="square" stroke-linejoin="bevel" transform="matrix(0.999508,0,0,-0.999508,10735,2495.62)"
font-family="MS Shell Dlg 2" font-size="10.3125" font-weight="400" font-style="normal" 
>
</g>

<g fill="none" stroke="#000000" stroke-opacity="1" stroke-width="1" stroke-linecap="square" stroke-linejoin="bevel" transform="matrix(0.999508,0,0,-0.999508,10735,2495.62)"
font-family="MS Shell Dlg 2" font-size="10.3125" font-weight="400" font-style="normal" 
>
</g>

<g fill="#ffff00" fill-opacity="0.2" stroke="#333333" stroke-opacity="1" stroke-width="1" stroke-linecap="round" stroke-linejoin="round" transform="matrix(0.999508,0,0,-0.999508,10735,2495.62)"
font-family="MS Shell Dlg 2" font-size="10.3125" font-weight="400" font-style="normal" 
>
<path vector-effect="non-scaling-stroke" fill-rule="evenodd" d="M-9080.78,1519.24 L-9080.78,1577.24 L-8802.78,1577.24 L-8802.78,1519.24 L-9080.78,1519.24"/>
</g>

<g fill="none" stroke="#000000" stroke-opacity="1" stroke-width="1" stroke-linecap="square" stroke-linejoin="bevel" transform="matrix(0.999508,0,0,-0.999508,10735,2495.62)"
font-family="MS Shell Dlg 2" font-size="10.3125" font-weight="400" font-style="normal" 
>
</g>

<g fill="none" stroke="#000000" stroke-opacity="1" stroke-width="1" stroke-linecap="square" stroke-linejoin="bevel" transform="matrix(0.999508,0,0,-0.999508,10735,2495.62)"
font-family="MS Shell Dlg 2" font-size="10.3125" font-weight="400" font-style="normal" 
>
</g>

<g fill="#ffff00" fill-opacity="0.2" stroke="#333333" stroke-opacity="1" stroke-width="1" stroke-linecap="round" stroke-linejoin="round" transform="matrix(0.999508,0,0,-0.999508,10735,2495.62)"
font-family="MS Shell Dlg 2" font-size="10.3125" font-weight="400" font-style="normal" 
>
<path vector-effect="non-scaling-stroke" fill-rule="evenodd" d="M-10739.7,2447.24 L-9692.78,2447.24 L-9692.78,2181.15 L-9692.98,2181.11 L-9696.89,2181.11 L-9696.99,2181.1 L-9697.02,2181.1 L-9697.12,2181.09 L-9697.46,2181.02 L-9697.65,2180.96 L-9697.7,2180.94 L-9697.87,2180.85 L-9698.15,2180.66 L-9698.3,2180.54 L-9698.34,2180.5 L-9698.46,2180.35 L-9698.65,2180.07 L-9698.74,2179.9 L-9698.76,2179.85 L-9698.82,2179.66 L-9698.89,2179.32 L-9698.9,2179.22 L-9698.9,2179.19 L-9698.91,2179.09 L-9698.91,2121.41 L-9702.68,2102.47 L-9713.29,2086.59 L-9729.17,2075.97 L-9742.16,2073.39 L-9742.27,2073.36 L-9742.3,2073.35 L-9742.41,2073.31 L-9742.77,2073.15 L-9742.97,2073.03 L-9743.02,2072.99 L-9743.19,2072.83 L-9743.43,2072.53 L-9743.56,2072.34 L-9743.59,2072.28 L-9743.66,2072.06 L-9743.75,2071.67 L-9743.77,2071.56 L-9743.78,2071.52 L-9743.78,2071.41 L-9743.78,1864.36 L-9743.78,1864.3 L-9743.78,1864.28 L-9743.77,1864.22 L-9743.78,1574.4 L-9747.55,1555.47 L-9758.16,1539.59 L-9774.05,1528.97 L-9792.98,1525.21 L-10690.6,1525.21 L-10709.5,1528.97 L-10725.4,1539.59 L-10736,1555.47 L-10739.8,1574.41 L-10739.8,2447.05 L-10739.7,2447.24"/>
</g>

<g fill="none" stroke="#000000" stroke-opacity="1" stroke-width="1" stroke-linecap="square" stroke-linejoin="bevel" transform="matrix(0.999508,0,0,-0.999508,10735,2495.62)"
font-family="MS Shell Dlg 2" font-size="10.3125" font-weight="400" font-style="normal" 
>
</g>

<g fill="none" stroke="#000000" stroke-opacity="1" stroke-width="1" stroke-linecap="square" stroke-linejoin="bevel" transform="matrix(0.999508,0,0,-0.999508,10735,2495.62)"
font-family="MS Shell Dlg 2" font-size="10.3125" font-weight="400" font-style="normal" 
>
</g>

<g fill="#ae5151" fill-opacity="0.2" stroke="#333333" stroke-opacity="1" stroke-width="1" stroke-linecap="round" stroke-linejoin="round" transform="matrix(0.999508,0,0,-0.999508,10735,2495.62)"
font-family="MS Shell Dlg 2" font-size="10.3125" font-weight="400" font-style="normal" 
>
<path vector-effect="non-scaling-stroke" fill-rule="evenodd" d="M-10739.7,2447.24 L-9692.78,2447.24 L-9692.78,2181.15 L-9692.98,2181.11 L-9696.89,2181.11 L-9696.99,2181.1 L-9697.02,2181.1 L-9697.12,2181.09 L-9697.46,2181.02 L-9697.65,2180.96 L-9697.7,2180.94 L-9697.87,2180.85 L-9698.15,2180.66 L-9698.3,2180.54 L-9698.34,2180.5 L-9698.46,2180.35 L-9698.65,2180.07 L-9698.74,2179.9 L-9698.76,2179.85 L-9698.82,2179.66 L-9698.89,2179.32 L-9698.9,2179.22 L-9698.9,2179.19 L-9698.91,2179.09 L-9698.91,2121.41 L-9702.68,2102.47 L-9713.29,2086.59 L-9729.17,2075.97 L-9742.16,2073.39 L-9742.27,2073.36 L-9742.3,2073.35 L-9742.41,2073.31 L-9742.77,2073.15 L-9742.97,2073.03 L-9743.02,2072.99 L-9743.19,2072.83 L-9743.43,2072.53 L-9743.56,2072.34 L-9743.59,2072.28 L-9743.66,2072.06 L-9743.75,2071.67 L-9743.77,2071.56 L-9743.78,2071.52 L-9743.78,2071.41 L-9743.78,1864.36 L-9743.78,1864.3 L-9743.78,1864.28 L-9743.77,1864.22 L-9743.78,1656.26 L-9743.78,1656.16 L-9743.77,1656.12 L-9743.76,1656.02 L-9743.68,1655.66 L-9743.61,1655.46 L-9743.59,1655.4 L-9743.48,1655.22 L-9743.27,1654.93 L-9743.13,1654.78 L-9743.09,1654.74 L-9742.92,1654.61 L-9742.61,1654.44 L-9742.42,1654.35 L-9742.36,1654.34 L-9742.15,1654.29 L-9741.8,1654.26 L-9741.59,1654.26 L-9741.53,1654.27 L-9741.32,1654.31 L-9740.99,1654.42 L-9740.8,1654.51 L-9740.74,1654.54 L-9740.57,1654.67 L-9740.31,1654.91 L-9740.17,1655.07 L-9740.14,1655.12 L-9740.03,1655.3 L-9739.89,1655.64 L-9739.85,1655.74 L-9739.84,1655.77 L-9739.82,1655.87 L-9736.01,1674.98 L-9725.39,1690.87 L-9709.49,1701.48 L-9692.78,1704.79 L-9692.78,1657.34 L-9692.76,1657.15 L-9692.75,1657.1 L-9692.61,1656.74 L-9692.58,1656.71 L-9692.31,1656.43 L-9692.28,1656.41 L-9691.92,1656.26 L-9691.87,1656.25 L-9691.67,1656.23 L-9311.31,1655.86 L-9311.31,1558.35 L-9311.31,1558.31 L-9311.31,1558.3 L-9311.27,1558.07 L-9311.26,1558.03 L-9311.1,1557.7 L-9311.08,1557.67 L-9310.81,1557.42 L-9310.77,1557.4 L-9310.43,1557.27 L-9310.39,1557.26 L-9310.2,1557.24 L-8946.21,1557.24 L-8946.02,1557.26 L-8945.98,1557.27 L-8945.64,1557.4 L-8945.6,1557.42 L-8945.33,1557.67 L-8945.31,1557.7 L-8945.15,1558.03 L-8945.14,1558.07 L-8945.1,1558.3 L-8945.1,1558.31 L-8945.1,1558.35 L-8945.1,1655.49 L-8565.63,1655.12 L-8565.63,1558.35 L-8565.63,1558.31 L-8565.63,1558.3 L-8565.59,1558.07 L-8565.58,1558.03 L-8565.41,1557.7 L-8565.39,1557.67 L-8565.12,1557.42 L-8565.09,1557.4 L-8564.75,1557.27 L-8564.7,1557.26 L-8564.52,1557.24 L-8191.87,1557.24 L-8191.69,1557.26 L-8191.64,1557.27 L-8191.3,1557.4 L-8191.27,1557.42 L-8191,1557.67 L-8190.97,1557.7 L-8190.81,1558.03 L-8190.8,1558.07 L-8190.76,1558.3 L-8190.76,1558.31 L-8190.76,1558.35 L-8190.75,1605.81 L-8174.01,1602.47 L-8158.13,1591.86 L-8147.52,1575.97 L-8143.76,1557.04 L-8143.77,1538.13 L-8143.78,1440.55 L-8143.83,1440.31 L-8572.26,1440.73 L-8572.26,1538.14 L-8572.26,1538.18 L-8572.26,1538.19 L-8572.29,1538.41 L-8572.31,1538.45 L-8572.47,1538.79 L-8572.49,1538.81 L-8572.76,1539.06 L-8572.79,1539.08 L-8573.14,1539.22 L-8573.18,1539.23 L-8573.37,1539.24 L-8937.36,1539.24 L-8937.54,1539.23 L-8937.59,1539.22 L-8937.93,1539.08 L-8937.96,1539.06 L-8938.24,1538.81 L-8938.26,1538.79 L-8938.42,1538.45 L-8938.43,1538.41 L-8938.47,1538.19 L-8938.47,1538.18 L-8938.47,1538.14 L-8938.47,1441.1 L-9317.94,1441.47 L-9317.94,1538.14 L-9317.94,1538.18 L-9317.94,1538.19 L-9317.98,1538.41 L-9317.99,1538.45 L-9318.15,1538.79 L-9318.17,1538.81 L-9318.45,1539.06 L-9318.48,1539.08 L-9318.82,1539.22 L-9318.87,1539.23 L-9319.05,1539.24 L-9691.7,1539.24 L-9691.88,1539.23 L-9691.93,1539.22 L-9692.27,1539.08 L-9692.3,1539.06 L-9692.57,1538.81 L-9692.59,1538.79 L-9692.76,1538.45 L-9692.77,1538.41 L-9692.8,1538.19 L-9692.8,1538.18 L-9692.81,1538.14 L-9692.81,1490.68 L-9709.55,1494.01 L-9725.43,1504.63 L-9736.04,1520.52 L-9739.81,1539.45 L-9739.8,1558.35 L-9739.8,1574.12 L-9739.8,1574.21 L-9739.81,1574.24 L-9739.82,1574.33 L-9739.88,1574.65 L-9739.93,1574.82 L-9739.95,1574.87 L-9740.03,1575.04 L-9740.19,1575.3 L-9740.3,1575.45 L-9740.34,1575.49 L-9740.47,1575.62 L-9740.72,1575.8 L-9740.88,1575.9 L-9740.93,1575.93 L-9741.1,1575.99 L-9741.4,1576.08 L-9741.58,1576.11 L-9741.63,1576.12 L-9741.81,1576.12 L-9742.12,1576.09 L-9742.3,1576.06 L-9742.36,1576.05 L-9742.53,1575.98 L-9742.81,1575.85 L-9742.96,1575.75 L-9743.01,1575.72 L-9743.15,1575.6 L-9743.36,1575.37 L-9743.47,1575.22 L-9743.5,1575.18 L-9743.58,1575.01 L-9743.7,1574.71 L-9743.73,1574.62 L-9743.74,1574.6 L-9743.76,1574.51 L-9747.55,1555.47 L-9758.16,1539.59 L-9774.05,1528.97 L-9792.98,1525.21 L-10690.6,1525.21 L-10709.5,1528.97 L-10725.4,1539.59 L-10736,1555.47 L-10739.8,1574.41 L-10739.8,2447.05 L-10739.7,2447.24"/>
</g>

<g fill="none" stroke="#000000" stroke-opacity="1" stroke-width="1" stroke-linecap="square" stroke-linejoin="bevel" transform="matrix(0.999508,0,0,-0.999508,10735,2495.62)"
font-family="MS Shell Dlg 2" font-size="10.3125" font-weight="400" font-style="normal" 
>
</g>

<g fill="none" stroke="#000000" stroke-opacity="1" stroke-width="1" stroke-linecap="square" stroke-linejoin="bevel" transform="matrix(0.999508,0,0,-0.999508,10735,2495.62)"
font-family="MS Shell Dlg 2" font-size="10.3125" font-weight="400" font-style="normal" 
>
</g>

<g fill="#ae5151" fill-opacity="0.2" stroke="#333333" stroke-opacity="1" stroke-width="1" stroke-linecap="round" stroke-linejoin="round" transform="matrix(0.999508,0,0,-0.999508,10735,2495.62)"
font-family="MS Shell Dlg 2" font-size="10.3125" font-weight="400" font-style="normal" 
>
<path vector-effect="non-scaling-stroke" fill-rule="evenodd" d="M-8190.78,2181.15 L-8190.78,2447.24 L-7191.89,2447.24 L-7191.7,2447.26 L-7191.65,2447.27 L-7191.29,2447.42 L-7191.26,2447.44 L-7190.98,2447.72 L-7190.96,2447.75 L-7190.81,2448.11 L-7190.8,2448.16 L-7190.78,2448.35 L-7190.78,2495.81 L-7174.05,2492.48 L-7158.16,2481.86 L-7147.55,2465.98 L-7143.78,2447.05 L-7143.78,1583.2 L-7143.78,1583.11 L-7143.78,1583.08 L-7143.77,1583.02 L-7192.1,1549.24 L-8097.18,1549.24 L-8097.37,1549.22 L-8097.42,1549.21 L-8097.78,1549.06 L-8097.81,1549.04 L-8098.09,1548.77 L-8098.11,1548.74 L-8098.26,1548.38 L-8098.27,1548.33 L-8098.29,1548.13 L-8098.29,1526.74 L-8109.52,1528.97 L-8125.4,1539.59 L-8136.02,1555.47 L-8139.78,1574.41 L-8139.78,1863.93 L-8139.78,1863.93 L-8139.78,1863.93 L-8139.78,1863.94 L-8139.78,1863.96 L-8139.78,1863.96 L-8139.78,1863.97 L-8139.78,1863.97 L-8139.79,1864.34 L-8139.78,1963.11 L-8139.78,2071.41 L-8139.79,2071.52 L-8139.79,2071.56 L-8139.81,2071.67 L-8139.9,2072.06 L-8139.98,2072.28 L-8140.01,2072.34 L-8140.14,2072.53 L-8140.38,2072.83 L-8140.54,2072.99 L-8140.6,2073.03 L-8140.79,2073.15 L-8141.16,2073.31 L-8141.27,2073.35 L-8141.3,2073.36 L-8141.41,2073.39 L-8154.39,2075.97 L-8170.28,2086.59 L-8180.89,2102.47 L-8184.66,2121.41 L-8184.66,2179.09 L-8184.66,2179.19 L-8184.67,2179.22 L-8184.68,2179.32 L-8184.75,2179.66 L-8184.8,2179.85 L-8184.83,2179.9 L-8184.92,2180.07 L-8185.1,2180.35 L-8185.23,2180.5 L-8185.27,2180.54 L-8185.42,2180.66 L-8185.69,2180.85 L-8185.87,2180.94 L-8185.92,2180.96 L-8186.11,2181.02 L-8186.45,2181.09 L-8186.55,2181.1 L-8186.57,2181.1 L-8186.67,2181.11 L-8190.59,2181.11 L-8190.78,2181.15"/>
</g>

<g fill="none" stroke="#000000" stroke-opacity="1" stroke-width="1" stroke-linecap="square" stroke-linejoin="bevel" transform="matrix(0.999508,0,0,-0.999508,10735,2495.62)"
font-family="MS Shell Dlg 2" font-size="10.3125" font-weight="400" font-style="normal" 
>
</g>

<g fill="none" stroke="#000000" stroke-opacity="1" stroke-width="1" stroke-linecap="square" stroke-linejoin="bevel" transform="matrix(0.999508,0,0,-0.999508,10735,2495.62)"
font-family="MS Shell Dlg 2" font-size="10.3125" font-weight="400" font-style="normal" 
>
</g>

<g fill="#333333" fill-opacity="0.2" stroke="#333333" stroke-opacity="1" stroke-width="1" stroke-linecap="round" stroke-linejoin="round" transform="matrix(0.999508,0,0,-0.999508,10735,2495.62)"
font-family="MS Shell Dlg 2" font-size="10.3125" font-weight="400" font-style="normal" 
>
<path vector-effect="non-scaling-stroke" fill-rule="evenodd" d="M-10739.7,2447.24 L-9692.78,2447.24 L-9692.78,2181.15 L-9692.98,2181.11 L-9696.89,2181.11 L-9696.99,2181.1 L-9697.02,2181.1 L-9697.12,2181.09 L-9697.46,2181.02 L-9697.65,2180.96 L-9697.7,2180.94 L-9697.87,2180.85 L-9698.15,2180.66 L-9698.3,2180.54 L-9698.34,2180.5 L-9698.46,2180.35 L-9698.65,2180.07 L-9698.74,2179.9 L-9698.76,2179.85 L-9698.82,2179.66 L-9698.89,2179.32 L-9698.9,2179.22 L-9698.9,2179.19 L-9698.91,2179.09 L-9698.91,2121.41 L-9702.68,2102.47 L-9713.29,2086.59 L-9729.17,2075.97 L-9742.16,2073.39 L-9742.27,2073.36 L-9742.3,2073.35 L-9742.41,2073.31 L-9742.77,2073.15 L-9742.97,2073.03 L-9743.02,2072.99 L-9743.19,2072.83 L-9743.43,2072.53 L-9743.56,2072.34 L-9743.59,2072.28 L-9743.66,2072.06 L-9743.75,2071.67 L-9743.77,2071.56 L-9743.78,2071.52 L-9743.78,2071.41 L-9743.78,1864.36 L-9743.78,1864.3 L-9743.78,1864.28 L-9743.77,1864.22 L-9743.78,1656.26 L-9743.78,1656.16 L-9743.77,1656.12 L-9743.76,1656.02 L-9743.68,1655.66 L-9743.61,1655.46 L-9743.59,1655.4 L-9743.48,1655.22 L-9743.27,1654.93 L-9743.13,1654.78 L-9743.09,1654.74 L-9742.92,1654.61 L-9742.61,1654.44 L-9742.42,1654.35 L-9742.36,1654.34 L-9742.15,1654.29 L-9741.8,1654.26 L-9741.59,1654.26 L-9741.53,1654.27 L-9741.32,1654.31 L-9740.99,1654.42 L-9740.8,1654.51 L-9740.74,1654.54 L-9740.57,1654.67 L-9740.31,1654.91 L-9740.17,1655.07 L-9740.14,1655.12 L-9740.03,1655.3 L-9739.89,1655.64 L-9739.85,1655.74 L-9739.84,1655.77 L-9739.82,1655.87 L-9736.01,1674.98 L-9725.39,1690.87 L-9709.49,1701.48 L-9692.78,1704.79 L-9692.78,1657.34 L-9692.76,1657.15 L-9692.75,1657.1 L-9692.61,1656.74 L-9692.58,1656.71 L-9692.31,1656.43 L-9692.28,1656.41 L-9691.92,1656.26 L-9691.87,1656.25 L-9691.67,1656.23 L-9311.31,1655.86 L-9311.31,1558.35 L-9311.31,1558.31 L-9311.31,1558.3 L-9311.27,1558.07 L-9311.26,1558.03 L-9311.1,1557.7 L-9311.08,1557.67 L-9310.81,1557.42 L-9310.77,1557.4 L-9310.43,1557.27 L-9310.39,1557.26 L-9310.2,1557.24 L-8946.21,1557.24 L-8946.02,1557.26 L-8945.98,1557.27 L-8945.64,1557.4 L-8945.6,1557.42 L-8945.33,1557.67 L-8945.31,1557.7 L-8945.15,1558.03 L-8945.14,1558.07 L-8945.1,1558.3 L-8945.1,1558.31 L-8945.1,1558.35 L-8945.1,1655.49 L-8565.63,1655.12 L-8565.63,1558.35 L-8565.63,1558.31 L-8565.63,1558.3 L-8565.59,1558.07 L-8565.58,1558.03 L-8565.41,1557.7 L-8565.39,1557.67 L-8565.12,1557.42 L-8565.09,1557.4 L-8564.75,1557.27 L-8564.7,1557.26 L-8564.52,1557.24 L-8191.87,1557.24 L-8191.69,1557.26 L-8191.64,1557.27 L-8191.3,1557.4 L-8191.27,1557.42 L-8191,1557.67 L-8190.97,1557.7 L-8190.81,1558.03 L-8190.8,1558.07 L-8190.76,1558.3 L-8190.76,1558.31 L-8190.76,1558.35 L-8190.75,1605.81 L-8174.01,1602.47 L-8158.13,1591.86 L-8147.52,1575.97 L-8143.76,1557.04 L-8143.77,1538.13 L-8143.78,1440.55 L-8143.83,1440.31 L-8572.26,1440.73 L-8572.26,1538.14 L-8572.26,1538.18 L-8572.26,1538.19 L-8572.29,1538.41 L-8572.31,1538.45 L-8572.47,1538.79 L-8572.49,1538.81 L-8572.76,1539.06 L-8572.79,1539.08 L-8573.14,1539.22 L-8573.18,1539.23 L-8573.37,1539.24 L-8937.36,1539.24 L-8937.54,1539.23 L-8937.59,1539.22 L-8937.93,1539.08 L-8937.96,1539.06 L-8938.24,1538.81 L-8938.26,1538.79 L-8938.42,1538.45 L-8938.43,1538.41 L-8938.47,1538.19 L-8938.47,1538.18 L-8938.47,1538.14 L-8938.47,1441.1 L-9317.94,1441.47 L-9317.94,1538.14 L-9317.94,1538.18 L-9317.94,1538.19 L-9317.98,1538.41 L-9317.99,1538.45 L-9318.15,1538.79 L-9318.17,1538.81 L-9318.45,1539.06 L-9318.48,1539.08 L-9318.82,1539.22 L-9318.87,1539.23 L-9319.05,1539.24 L-9691.7,1539.24 L-9691.88,1539.23 L-9691.93,1539.22 L-9692.27,1539.08 L-9692.3,1539.06 L-9692.57,1538.81 L-9692.59,1538.79 L-9692.76,1538.45 L-9692.77,1538.41 L-9692.8,1538.19 L-9692.8,1538.18 L-9692.81,1538.14 L-9692.81,1490.68 L-9709.55,1494.01 L-9725.43,1504.63 L-9736.04,1520.52 L-9739.81,1539.45 L-9739.8,1558.35 L-9739.8,1574.12 L-9739.8,1574.21 L-9739.81,1574.24 L-9739.82,1574.33 L-9739.88,1574.65 L-9739.93,1574.82 L-9739.95,1574.87 L-9740.03,1575.04 L-9740.19,1575.3 L-9740.3,1575.45 L-9740.34,1575.49 L-9740.47,1575.62 L-9740.72,1575.8 L-9740.88,1575.9 L-9740.93,1575.93 L-9741.1,1575.99 L-9741.4,1576.08 L-9741.58,1576.11 L-9741.63,1576.12 L-9741.81,1576.12 L-9742.12,1576.09 L-9742.3,1576.06 L-9742.36,1576.05 L-9742.53,1575.98 L-9742.81,1575.85 L-9742.96,1575.75 L-9743.01,1575.72 L-9743.15,1575.6 L-9743.36,1575.37 L-9743.47,1575.22 L-9743.5,1575.18 L-9743.58,1575.01 L-9743.7,1574.71 L-9743.73,1574.62 L-9743.74,1574.6 L-9743.76,1574.51 L-9747.55,1555.47 L-9758.16,1539.59 L-9774.05,1528.97 L-9792.98,1525.21 L-10690.6,1525.21 L-10709.5,1528.97 L-10725.4,1539.59 L-10736,1555.47 L-10739.8,1574.41 L-10739.8,2447.05 L-10739.7,2447.24"/>
</g>

<g fill="none" stroke="#000000" stroke-opacity="1" stroke-width="1" stroke-linecap="square" stroke-linejoin="bevel" transform="matrix(0.999508,0,0,-0.999508,10735,2495.62)"
font-family="MS Shell Dlg 2" font-size="10.3125" font-weight="400" font-style="normal" 
>
</g>

<g fill="none" stroke="#000000" stroke-opacity="1" stroke-width="1" stroke-linecap="square" stroke-linejoin="bevel" transform="matrix(0.999508,0,0,-0.999508,10735,2495.62)"
font-family="MS Shell Dlg 2" font-size="10.3125" font-weight="400" font-style="normal" 
>
</g>

<g fill="#333333" fill-opacity="0.2" stroke="#333333" stroke-opacity="1" stroke-width="1" stroke-linecap="round" stroke-linejoin="round" transform="matrix(0.999508,0,0,-0.999508,10735,2495.62)"
font-family="MS Shell Dlg 2" font-size="10.3125" font-weight="400" font-style="normal" 
>
<path vector-effect="non-scaling-stroke" fill-rule="evenodd" d="M-8190.78,2181.15 L-8190.78,2447.24 L-7191.89,2447.24 L-7191.7,2447.26 L-7191.65,2447.27 L-7191.29,2447.42 L-7191.26,2447.44 L-7190.98,2447.72 L-7190.96,2447.75 L-7190.81,2448.11 L-7190.8,2448.16 L-7190.78,2448.35 L-7190.78,2495.81 L-7174.05,2492.48 L-7158.16,2481.86 L-7147.55,2465.98 L-7143.78,2447.05 L-7143.78,1583.2 L-7143.78,1583.11 L-7143.78,1583.08 L-7143.77,1583.02 L-7192.1,1549.24 L-8097.18,1549.24 L-8097.37,1549.22 L-8097.42,1549.21 L-8097.78,1549.06 L-8097.81,1549.04 L-8098.09,1548.77 L-8098.11,1548.74 L-8098.26,1548.38 L-8098.27,1548.33 L-8098.29,1548.13 L-8098.29,1526.74 L-8109.52,1528.97 L-8125.4,1539.59 L-8136.02,1555.47 L-8139.78,1574.41 L-8139.78,1863.93 L-8139.78,1863.93 L-8139.78,1863.93 L-8139.78,1863.94 L-8139.78,1863.96 L-8139.78,1863.96 L-8139.78,1863.97 L-8139.78,1863.97 L-8139.79,1864.34 L-8139.78,1963.11 L-8139.78,2071.41 L-8139.79,2071.52 L-8139.79,2071.56 L-8139.81,2071.67 L-8139.9,2072.06 L-8139.98,2072.28 L-8140.01,2072.34 L-8140.14,2072.53 L-8140.38,2072.83 L-8140.54,2072.99 L-8140.6,2073.03 L-8140.79,2073.15 L-8141.16,2073.31 L-8141.27,2073.35 L-8141.3,2073.36 L-8141.41,2073.39 L-8154.39,2075.97 L-8170.28,2086.59 L-8180.89,2102.47 L-8184.66,2121.41 L-8184.66,2179.09 L-8184.66,2179.19 L-8184.67,2179.22 L-8184.68,2179.32 L-8184.75,2179.66 L-8184.8,2179.85 L-8184.83,2179.9 L-8184.92,2180.07 L-8185.1,2180.35 L-8185.23,2180.5 L-8185.27,2180.54 L-8185.42,2180.66 L-8185.69,2180.85 L-8185.87,2180.94 L-8185.92,2180.96 L-8186.11,2181.02 L-8186.45,2181.09 L-8186.55,2181.1 L-8186.57,2181.1 L-8186.67,2181.11 L-8190.59,2181.11 L-8190.78,2181.15"/>
</g>

<g fill="none" stroke="#000000" stroke-opacity="1" stroke-width="1" stroke-linecap="square" stroke-linejoin="bevel" transform="matrix(0.999508,0,0,-0.999508,10735,2495.62)"
font-family="MS Shell Dlg 2" font-size="10.3125" font-weight="400" font-style="normal" 
>
</g>

<g fill="none" stroke="#000000" stroke-opacity="1" stroke-width="1" stroke-linecap="square" stroke-linejoin="bevel" transform="matrix(1,0,0,-1,0,1103.54)"
font-family="MS Shell Dlg 2" font-size="10.3125" font-weight="400" font-style="normal" 
>
</g>
</g>
</svg>
