<?xml version="1.0" encoding="UTF-8" standalone="no"?>
<svg width="514.491mm" height="178.082mm"
 xmlns="http://www.w3.org/2000/svg" xmlns:xlink="http://www.w3.org/1999/xlink"  version="1.2" baseProfile="tiny">
<title>SVG Generator Example Drawing</title>
<desc>An SVG drawing created by the SVG Generator</desc>
<defs>
</defs>
<g fill="none" stroke="black" stroke-width="1" fill-rule="evenodd" stroke-linecap="square" stroke-linejoin="bevel" >

<g fill="none" stroke="#000000" stroke-opacity="1" stroke-width="1" stroke-linecap="square" stroke-linejoin="bevel" transform="matrix(1,0,0,-1,0,631.181)"
font-family="MS Shell Dlg 2" font-size="10.3125" font-weight="400" font-style="normal" 
>
</g>

<g fill="none" stroke="#000000" stroke-opacity="1" stroke-width="1" stroke-linecap="square" stroke-linejoin="bevel" transform="matrix(1,0,0,-1,0,631.181)"
font-family="MS Shell Dlg 2" font-size="10.3125" font-weight="400" font-style="normal" 
>
</g>

<g fill="none" stroke="#000000" stroke-opacity="1" stroke-width="1" stroke-linecap="square" stroke-linejoin="bevel" transform="matrix(0.999592,0,0,-0.999592,10515.5,6177.66)"
font-family="MS Shell Dlg 2" font-size="10.3125" font-weight="400" font-style="normal" 
>
</g>

<g fill="#333333" fill-opacity="0.2" stroke="#333333" stroke-opacity="1" stroke-width="1" stroke-linecap="round" stroke-linejoin="round" transform="matrix(0.999592,0,0,-0.999592,10515.5,6177.66)"
font-family="MS Shell Dlg 2" font-size="10.3125" font-weight="400" font-style="normal" 
>
<path vector-effect="non-scaling-stroke" fill-rule="evenodd" d="M-10519.3,5549.24 L-10517,5565.22 L-10341.6,6080.34 L-10331.2,6097.84 L-10314.8,6109.56 L-10308.9,6110.8 L-10308.8,6110.83 L-10308.8,6110.84 L-10308.7,6110.89 L-10308.3,6111.05 L-10308.1,6111.17 L-10308.1,6111.21 L-10307.9,6111.37 L-10307.7,6111.67 L-10307.5,6111.86 L-10307.5,6111.92 L-10307.4,6112.13 L-10307.3,6112.52 L-10307.3,6112.63 L-10307.3,6112.67 L-10307.3,6112.78 L-10307.3,6163.12 L-10307.3,6170.91 L-10305.4,6179.42 L-8696.52,5895.73 L-8699.28,5884.17 L-8846.98,5549.24 L-10519.3,5549.24"/>
</g>

<g fill="none" stroke="#000000" stroke-opacity="1" stroke-width="1" stroke-linecap="square" stroke-linejoin="bevel" transform="matrix(0.999592,0,0,-0.999592,10515.5,6177.66)"
font-family="MS Shell Dlg 2" font-size="10.3125" font-weight="400" font-style="normal" 
>
</g>

<g fill="none" stroke="#000000" stroke-opacity="1" stroke-width="1" stroke-linecap="square" stroke-linejoin="bevel" transform="matrix(0.999592,0,0,-0.999592,10515.5,6177.66)"
font-family="MS Shell Dlg 2" font-size="10.3125" font-weight="400" font-style="normal" 
>
</g>

<g fill="#ae5151" fill-opacity="0.2" stroke="#333333" stroke-opacity="1" stroke-width="1" stroke-linecap="round" stroke-linejoin="round" transform="matrix(0.999592,0,0,-0.999592,10515.5,6177.66)"
font-family="MS Shell Dlg 2" font-size="10.3125" font-weight="400" font-style="normal" 
>
<path vector-effect="non-scaling-stroke" fill-rule="evenodd" d="M-10519.3,5549.24 L-10517,5565.22 L-10341.6,6080.34 L-10331.2,6097.84 L-10314.8,6109.56 L-10308.9,6110.8 L-10308.8,6110.83 L-10308.8,6110.84 L-10308.7,6110.89 L-10308.3,6111.05 L-10308.1,6111.17 L-10308.1,6111.21 L-10307.9,6111.37 L-10307.7,6111.67 L-10307.5,6111.86 L-10307.5,6111.92 L-10307.4,6112.13 L-10307.3,6112.52 L-10307.3,6112.63 L-10307.3,6112.67 L-10307.3,6112.78 L-10307.3,6163.12 L-10307.3,6170.91 L-10305.4,6179.42 L-8696.52,5895.73 L-8699.28,5884.17 L-8846.98,5549.24 L-10519.3,5549.24"/>
</g>

<g fill="none" stroke="#000000" stroke-opacity="1" stroke-width="1" stroke-linecap="square" stroke-linejoin="bevel" transform="matrix(0.999592,0,0,-0.999592,10515.5,6177.66)"
font-family="MS Shell Dlg 2" font-size="10.3125" font-weight="400" font-style="normal" 
>
</g>

<g fill="none" stroke="#000000" stroke-opacity="1" stroke-width="1" stroke-linecap="square" stroke-linejoin="bevel" transform="matrix(0.999592,0,0,-0.999592,10515.5,6177.66)"
font-family="MS Shell Dlg 2" font-size="10.3125" font-weight="400" font-style="normal" 
>
</g>

<g fill="#ffff00" fill-opacity="0.2" stroke="#333333" stroke-opacity="1" stroke-width="1" stroke-linecap="round" stroke-linejoin="round" transform="matrix(0.999592,0,0,-0.999592,10515.5,6177.66)"
font-family="MS Shell Dlg 2" font-size="10.3125" font-weight="400" font-style="normal" 
>
<path vector-effect="non-scaling-stroke" fill-rule="evenodd" d="M-10519.3,5549.24 L-10517,5565.22 L-10341.6,6080.34 L-10331.2,6097.84 L-10314.8,6109.56 L-10308.9,6110.8 L-10308.8,6110.83 L-10308.8,6110.84 L-10308.7,6110.89 L-10308.3,6111.05 L-10308.1,6111.17 L-10308.1,6111.21 L-10307.9,6111.37 L-10307.7,6111.67 L-10307.5,6111.86 L-10307.5,6111.92 L-10307.4,6112.13 L-10307.3,6112.52 L-10307.3,6112.63 L-10307.3,6112.67 L-10307.3,6112.78 L-10307.3,6163.12 L-10307.3,6170.91 L-10305.4,6179.42 L-8696.52,5895.73 L-8699.28,5884.17 L-8846.98,5549.24 L-10519.3,5549.24"/>
</g>

<g fill="none" stroke="#000000" stroke-opacity="1" stroke-width="1" stroke-linecap="square" stroke-linejoin="bevel" transform="matrix(0.999592,0,0,-0.999592,10515.5,6177.66)"
font-family="MS Shell Dlg 2" font-size="10.3125" font-weight="400" font-style="normal" 
>
</g>

<g fill="none" stroke="#000000" stroke-opacity="1" stroke-width="1" stroke-linecap="square" stroke-linejoin="bevel" transform="matrix(0.999592,0,0,-0.999592,10515.5,6177.66)"
font-family="MS Shell Dlg 2" font-size="10.3125" font-weight="400" font-style="normal" 
>
</g>

<g fill="#ae5151" fill-opacity="0.2" stroke="#333333" stroke-opacity="1" stroke-width="1" stroke-linecap="round" stroke-linejoin="round" transform="matrix(0.999592,0,0,-0.999592,10515.5,6177.66)"
font-family="MS Shell Dlg 2" font-size="10.3125" font-weight="400" font-style="normal" 
>
<path vector-effect="non-scaling-stroke" fill-rule="evenodd" d="M-10519.3,5549.24 L-10517,5565.22 L-10341.6,6080.34 L-10331.2,6097.84 L-10314.8,6109.56 L-10308.9,6110.8 L-10308.8,6110.83 L-10308.8,6110.84 L-10308.7,6110.89 L-10308.3,6111.05 L-10308.1,6111.17 L-10308.1,6111.21 L-10307.9,6111.37 L-10307.7,6111.67 L-10307.5,6111.86 L-10307.5,6111.92 L-10307.4,6112.13 L-10307.3,6112.52 L-10307.3,6112.63 L-10307.3,6112.67 L-10307.3,6112.78 L-10307.3,6163.12 L-10307.3,6170.91 L-10305.4,6179.42 L-8696.52,5895.73 L-8699.28,5884.17 L-8846.98,5549.24 L-10519.3,5549.24"/>
</g>

<g fill="none" stroke="#000000" stroke-opacity="1" stroke-width="1" stroke-linecap="square" stroke-linejoin="bevel" transform="matrix(0.999592,0,0,-0.999592,10515.5,6177.66)"
font-family="MS Shell Dlg 2" font-size="10.3125" font-weight="400" font-style="normal" 
>
</g>

<g fill="none" stroke="#000000" stroke-opacity="1" stroke-width="1" stroke-linecap="square" stroke-linejoin="bevel" transform="matrix(0.999592,0,0,-0.999592,10515.5,6177.66)"
font-family="MS Shell Dlg 2" font-size="10.3125" font-weight="400" font-style="normal" 
>
</g>

<g fill="#333333" fill-opacity="0.2" stroke="#333333" stroke-opacity="1" stroke-width="1" stroke-linecap="round" stroke-linejoin="round" transform="matrix(0.999592,0,0,-0.999592,10515.5,6177.66)"
font-family="MS Shell Dlg 2" font-size="10.3125" font-weight="400" font-style="normal" 
>
<path vector-effect="non-scaling-stroke" fill-rule="evenodd" d="M-10519.3,5549.24 L-10517,5565.22 L-10341.6,6080.34 L-10331.2,6097.84 L-10314.8,6109.56 L-10308.9,6110.8 L-10308.8,6110.83 L-10308.8,6110.84 L-10308.7,6110.89 L-10308.3,6111.05 L-10308.1,6111.17 L-10308.1,6111.21 L-10307.9,6111.37 L-10307.7,6111.67 L-10307.5,6111.86 L-10307.5,6111.92 L-10307.4,6112.13 L-10307.3,6112.52 L-10307.3,6112.63 L-10307.3,6112.67 L-10307.3,6112.78 L-10307.3,6163.12 L-10307.3,6170.91 L-10305.4,6179.42 L-8696.52,5895.73 L-8699.28,5884.17 L-8846.98,5549.24 L-10519.3,5549.24"/>
</g>

<g fill="none" stroke="#000000" stroke-opacity="1" stroke-width="1" stroke-linecap="square" stroke-linejoin="bevel" transform="matrix(0.999592,0,0,-0.999592,10515.5,6177.66)"
font-family="MS Shell Dlg 2" font-size="10.3125" font-weight="400" font-style="normal" 
>
</g>

<g fill="none" stroke="#000000" stroke-opacity="1" stroke-width="1" stroke-linecap="square" stroke-linejoin="bevel" transform="matrix(1,0,0,-1,0,631.181)"
font-family="MS Shell Dlg 2" font-size="10.3125" font-weight="400" font-style="normal" 
>
</g>
</g>
</svg>
