<?xml version="1.0" encoding="UTF-8" standalone="no"?>
<svg width="144.216mm" height="280.247mm"
 xmlns="http://www.w3.org/2000/svg" xmlns:xlink="http://www.w3.org/1999/xlink"  version="1.2" baseProfile="tiny">
<title>SVG Generator Example Drawing</title>
<desc>An SVG drawing created by the SVG Generator</desc>
<defs>
</defs>
<g fill="none" stroke="black" stroke-width="1" fill-rule="evenodd" stroke-linecap="square" stroke-linejoin="bevel" >

<g fill="none" stroke="#000000" stroke-opacity="1" stroke-width="1" stroke-linecap="square" stroke-linejoin="bevel" transform="matrix(1,0,0,-1,0,993.126)"
font-family="MS Shell Dlg 2" font-size="10.3125" font-weight="400" font-style="normal" 
>
</g>

<g fill="none" stroke="#000000" stroke-opacity="1" stroke-width="1" stroke-linecap="square" stroke-linejoin="bevel" transform="matrix(1,0,0,-1,0,993.126)"
font-family="MS Shell Dlg 2" font-size="10.3125" font-weight="400" font-style="normal" 
>
</g>

<g fill="none" stroke="#000000" stroke-opacity="1" stroke-width="1" stroke-linecap="square" stroke-linejoin="bevel" transform="matrix(0.999001,0,0,-0.999001,11859.5,43.8163)"
font-family="MS Shell Dlg 2" font-size="10.3125" font-weight="400" font-style="normal" 
>
</g>

<g fill="#333333" fill-opacity="0.2" stroke="#333333" stroke-opacity="1" stroke-width="1" stroke-linecap="round" stroke-linejoin="round" transform="matrix(0.999001,0,0,-0.999001,11859.5,43.8163)"
font-family="MS Shell Dlg 2" font-size="10.3125" font-weight="400" font-style="normal" 
>
<path vector-effect="non-scaling-stroke" fill-rule="evenodd" d="M-11870.8,-10.7584 L-11870.7,-2.75836 L-11700.9,-2.75836 L-11700.7,-2.73914 L-11700.6,-2.72972 L-11700.3,-2.5804 L-11700.2,-2.55915 L-11700,-2.28325 L-11700,-2.25145 L-11699.8,-1.89097 L-11699.8,-1.8436 L-11699.8,-1.64851 L-11699.8,42.3675 L-11483.9,42.3675 L-11483.9,-10.7584 L-11581.7,-10.7584 L-11581.7,-10.7587 L-11581.7,-10.7587 L-11581.9,-10.7871 L-11582,-10.798 L-11582.3,-10.9556 L-11582.3,-10.9771 L-11582.6,-11.2509 L-11582.6,-11.2822 L-11582.8,-11.6331 L-11582.8,-11.6791 L-11582.8,-11.868 L-11582.8,-229.132 L-11582.8,-229.32 L-11582.8,-229.366 L-11582.6,-229.717 L-11582.6,-229.749 L-11582.3,-230.022 L-11582.3,-230.044 L-11582,-230.202 L-11581.9,-230.213 L-11581.7,-230.241 L-11581.7,-230.241 L-11581.7,-230.241 L-11483.9,-230.241 L-11483.9,-451.534 L-11483.9,-451.729 L-11483.9,-451.777 L-11483.7,-452.137 L-11483.7,-452.169 L-11483.4,-452.445 L-11483.4,-452.466 L-11483,-452.615 L-11483,-452.625 L-11482.8,-452.644 L-11435.3,-452.644 L-11438.6,-469.495 L-11449.3,-485.379 L-11459.6,-492.305 L-11459.7,-492.364 L-11459.7,-492.382 L-11459.8,-492.448 L-11460,-492.693 L-11460.2,-492.844 L-11460.2,-492.893 L-11460.3,-493.066 L-11460.4,-493.371 L-11460.5,-493.559 L-11460.5,-493.616 L-11460.5,-493.811 L-11460.5,-494.157 L-11460.5,-494.255 L-11460.5,-494.284 L-11460.5,-494.381 L-11459.2,-500.758 L-11506.7,-500.758 L-11506.9,-500.786 L-11507,-500.797 L-11507.3,-500.954 L-11507.3,-500.975 L-11507.6,-501.249 L-11507.6,-501.281 L-11507.8,-501.632 L-11507.8,-501.679 L-11507.8,-501.868 L-11507.8,-699.36 L-11507.8,-699.55 L-11507.8,-699.596 L-11507.6,-699.948 L-11507.6,-699.979 L-11507.3,-700.253 L-11507.3,-700.275 L-11507,-700.432 L-11506.9,-700.442 L-11506.7,-700.47 L-11408.9,-700.47 L-11408.9,-949.719 L-11409.1,-949.758 L-11525.6,-949.758 L-11544.5,-945.992 L-11560.4,-935.379 L-11571,-919.495 L-11574.3,-902.758 L-11526.9,-902.758 L-11526.7,-902.731 L-11526.6,-902.72 L-11526.3,-902.563 L-11526.2,-902.541 L-11526,-902.267 L-11526,-902.236 L-11525.8,-901.884 L-11525.8,-901.838 L-11525.8,-901.649 L-11525.8,-704.156 L-11525.8,-703.967 L-11525.8,-703.921 L-11526,-703.569 L-11526,-703.538 L-11526.2,-703.264 L-11526.3,-703.242 L-11526.6,-703.085 L-11526.7,-703.074 L-11526.9,-703.047 L-11624.8,-703.047 L-11624.8,-506.994 L-11624.8,-506.799 L-11624.8,-506.752 L-11625,-506.391 L-11625,-506.359 L-11625.2,-506.083 L-11625.3,-506.062 L-11625.6,-505.913 L-11625.7,-505.903 L-11625.9,-505.884 L-11673.8,-505.884 L-11673.8,-502.955 L-11670,-484.022 L-11659.4,-468.138 L-11648.9,-461.152 L-11648.9,-461.094 L-11648.8,-461.075 L-11648.8,-461.009 L-11648.5,-460.765 L-11648.4,-460.613 L-11648.4,-460.565 L-11648.3,-460.392 L-11648.2,-460.086 L-11648.1,-459.899 L-11648.1,-459.842 L-11648.1,-459.647 L-11648.1,-459.301 L-11648.1,-459.203 L-11648.1,-459.174 L-11648.1,-459.077 L-11649.3,-452.758 L-11601.9,-452.758 L-11601.9,-452.758 L-11601.9,-452.758 L-11601.6,-452.73 L-11601.6,-452.719 L-11601.3,-452.561 L-11601.2,-452.54 L-11601,-452.266 L-11601,-452.235 L-11600.8,-451.884 L-11600.8,-451.838 L-11600.8,-451.649 L-11600.8,-234.385 L-11600.8,-234.196 L-11600.8,-234.15 L-11601,-233.799 L-11601,-233.768 L-11601.2,-233.494 L-11601.3,-233.473 L-11601.6,-233.315 L-11601.6,-233.304 L-11601.9,-233.276 L-11601.9,-233.276 L-11601.9,-233.276 L-11699.8,-233.276 L-11699.8,-11.8682 L-11699.8,-11.6731 L-11699.8,-11.6258 L-11700,-11.2653 L-11700,-11.2335 L-11700.2,-10.9576 L-11700.3,-10.9363 L-11700.6,-10.787 L-11700.7,-10.7776 L-11700.9,-10.7584 L-11870.8,-10.7584"/>
</g>

<g fill="none" stroke="#000000" stroke-opacity="1" stroke-width="1" stroke-linecap="square" stroke-linejoin="bevel" transform="matrix(0.999001,0,0,-0.999001,11859.5,43.8163)"
font-family="MS Shell Dlg 2" font-size="10.3125" font-weight="400" font-style="normal" 
>
</g>

<g fill="none" stroke="#000000" stroke-opacity="1" stroke-width="1" stroke-linecap="square" stroke-linejoin="bevel" transform="matrix(0.999001,0,0,-0.999001,11859.5,43.8163)"
font-family="MS Shell Dlg 2" font-size="10.3125" font-weight="400" font-style="normal" 
>
</g>

<g fill="#ae5151" fill-opacity="0.2" stroke="#333333" stroke-opacity="1" stroke-width="1" stroke-linecap="round" stroke-linejoin="round" transform="matrix(0.999001,0,0,-0.999001,11859.5,43.8163)"
font-family="MS Shell Dlg 2" font-size="10.3125" font-weight="400" font-style="normal" 
>
<path vector-effect="non-scaling-stroke" fill-rule="evenodd" d="M-11870.8,-10.7584 L-11870.7,-2.75836 L-11700.9,-2.75836 L-11700.7,-2.73914 L-11700.6,-2.72972 L-11700.3,-2.5804 L-11700.2,-2.55915 L-11700,-2.28325 L-11700,-2.25145 L-11699.8,-1.89097 L-11699.8,-1.8436 L-11699.8,-1.64851 L-11699.8,42.3675 L-11483.9,42.3675 L-11483.9,-10.7584 L-11581.7,-10.7584 L-11581.7,-10.7587 L-11581.7,-10.7587 L-11581.9,-10.7871 L-11582,-10.798 L-11582.3,-10.9556 L-11582.3,-10.9771 L-11582.6,-11.2509 L-11582.6,-11.2822 L-11582.8,-11.6331 L-11582.8,-11.6791 L-11582.8,-11.868 L-11582.8,-229.132 L-11582.8,-229.32 L-11582.8,-229.366 L-11582.6,-229.717 L-11582.6,-229.749 L-11582.3,-230.022 L-11582.3,-230.044 L-11582,-230.202 L-11581.9,-230.213 L-11581.7,-230.241 L-11581.7,-230.241 L-11581.7,-230.241 L-11483.9,-230.241 L-11483.9,-451.534 L-11483.9,-451.729 L-11483.9,-451.777 L-11483.7,-452.137 L-11483.7,-452.169 L-11483.4,-452.445 L-11483.4,-452.466 L-11483,-452.615 L-11483,-452.625 L-11482.8,-452.644 L-11435.3,-452.644 L-11438.6,-469.495 L-11449.3,-485.379 L-11459.6,-492.305 L-11459.7,-492.364 L-11459.7,-492.382 L-11459.8,-492.448 L-11460,-492.693 L-11460.2,-492.844 L-11460.2,-492.893 L-11460.3,-493.066 L-11460.4,-493.371 L-11460.5,-493.559 L-11460.5,-493.616 L-11460.5,-493.811 L-11460.5,-494.157 L-11460.5,-494.255 L-11460.5,-494.284 L-11460.5,-494.381 L-11459.2,-500.758 L-11506.7,-500.758 L-11506.9,-500.786 L-11507,-500.797 L-11507.3,-500.954 L-11507.3,-500.975 L-11507.6,-501.249 L-11507.6,-501.281 L-11507.8,-501.632 L-11507.8,-501.679 L-11507.8,-501.868 L-11507.8,-699.36 L-11507.8,-699.55 L-11507.8,-699.596 L-11507.6,-699.948 L-11507.6,-699.979 L-11507.3,-700.253 L-11507.3,-700.275 L-11507,-700.432 L-11506.9,-700.442 L-11506.7,-700.47 L-11408.9,-700.47 L-11408.9,-949.719 L-11409.1,-949.758 L-11525.6,-949.758 L-11544.5,-945.992 L-11560.4,-935.379 L-11571,-919.495 L-11574.3,-902.758 L-11526.9,-902.758 L-11526.7,-902.731 L-11526.6,-902.72 L-11526.3,-902.563 L-11526.2,-902.541 L-11526,-902.267 L-11526,-902.236 L-11525.8,-901.884 L-11525.8,-901.838 L-11525.8,-901.649 L-11525.8,-704.156 L-11525.8,-703.967 L-11525.8,-703.921 L-11526,-703.569 L-11526,-703.538 L-11526.2,-703.264 L-11526.3,-703.242 L-11526.6,-703.085 L-11526.7,-703.074 L-11526.9,-703.047 L-11624.8,-703.047 L-11624.8,-506.994 L-11624.8,-506.799 L-11624.8,-506.752 L-11625,-506.391 L-11625,-506.359 L-11625.2,-506.083 L-11625.3,-506.062 L-11625.6,-505.913 L-11625.7,-505.903 L-11625.9,-505.884 L-11673.8,-505.884 L-11673.8,-502.955 L-11670,-484.022 L-11659.4,-468.138 L-11648.9,-461.152 L-11648.9,-461.094 L-11648.8,-461.075 L-11648.8,-461.009 L-11648.5,-460.765 L-11648.4,-460.613 L-11648.4,-460.565 L-11648.3,-460.392 L-11648.2,-460.086 L-11648.1,-459.899 L-11648.1,-459.842 L-11648.1,-459.647 L-11648.1,-459.301 L-11648.1,-459.203 L-11648.1,-459.174 L-11648.1,-459.077 L-11649.3,-452.758 L-11601.9,-452.758 L-11601.9,-452.758 L-11601.9,-452.758 L-11601.6,-452.73 L-11601.6,-452.719 L-11601.3,-452.561 L-11601.2,-452.54 L-11601,-452.266 L-11601,-452.235 L-11600.8,-451.884 L-11600.8,-451.838 L-11600.8,-451.649 L-11600.8,-234.385 L-11600.8,-234.196 L-11600.8,-234.15 L-11601,-233.799 L-11601,-233.768 L-11601.2,-233.494 L-11601.3,-233.473 L-11601.6,-233.315 L-11601.6,-233.304 L-11601.9,-233.276 L-11601.9,-233.276 L-11601.9,-233.276 L-11699.8,-233.276 L-11699.8,-11.8682 L-11699.8,-11.6731 L-11699.8,-11.6258 L-11700,-11.2653 L-11700,-11.2335 L-11700.2,-10.9576 L-11700.3,-10.9363 L-11700.6,-10.787 L-11700.7,-10.7776 L-11700.9,-10.7584 L-11870.8,-10.7584"/>
</g>

<g fill="none" stroke="#000000" stroke-opacity="1" stroke-width="1" stroke-linecap="square" stroke-linejoin="bevel" transform="matrix(0.999001,0,0,-0.999001,11859.5,43.8163)"
font-family="MS Shell Dlg 2" font-size="10.3125" font-weight="400" font-style="normal" 
>
</g>

<g fill="none" stroke="#000000" stroke-opacity="1" stroke-width="1" stroke-linecap="square" stroke-linejoin="bevel" transform="matrix(0.999001,0,0,-0.999001,11859.5,43.8163)"
font-family="MS Shell Dlg 2" font-size="10.3125" font-weight="400" font-style="normal" 
>
</g>

<g fill="#ffff00" fill-opacity="0.2" stroke="#333333" stroke-opacity="1" stroke-width="1" stroke-linecap="round" stroke-linejoin="round" transform="matrix(0.999001,0,0,-0.999001,11859.5,43.8163)"
font-family="MS Shell Dlg 2" font-size="10.3125" font-weight="400" font-style="normal" 
>
<path vector-effect="non-scaling-stroke" fill-rule="evenodd" d="M-11870.8,-10.7584 L-11870.7,-2.75836 L-11700.9,-2.75836 L-11700.7,-2.73914 L-11700.6,-2.72972 L-11700.3,-2.5804 L-11700.2,-2.55915 L-11700,-2.28325 L-11700,-2.25145 L-11699.8,-1.89097 L-11699.8,-1.8436 L-11699.8,-1.64851 L-11699.8,42.3675 L-11483.9,42.3675 L-11483.9,-10.7584 L-11700.7,-10.7584 L-11700.7,-10.7587 L-11700.7,-10.7589 L-11700.7,-10.7598 L-11700.8,-10.7611 L-11700.8,-10.7623 L-11700.8,-10.7584 L-11870.8,-10.7584"/>
</g>

<g fill="none" stroke="#000000" stroke-opacity="1" stroke-width="1" stroke-linecap="square" stroke-linejoin="bevel" transform="matrix(0.999001,0,0,-0.999001,11859.5,43.8163)"
font-family="MS Shell Dlg 2" font-size="10.3125" font-weight="400" font-style="normal" 
>
</g>

<g fill="none" stroke="#000000" stroke-opacity="1" stroke-width="1" stroke-linecap="square" stroke-linejoin="bevel" transform="matrix(0.999001,0,0,-0.999001,11859.5,43.8163)"
font-family="MS Shell Dlg 2" font-size="10.3125" font-weight="400" font-style="normal" 
>
</g>

<g fill="#ae5151" fill-opacity="0.2" stroke="#333333" stroke-opacity="1" stroke-width="1" stroke-linecap="round" stroke-linejoin="round" transform="matrix(0.999001,0,0,-0.999001,11859.5,43.8163)"
font-family="MS Shell Dlg 2" font-size="10.3125" font-weight="400" font-style="normal" 
>
<path vector-effect="non-scaling-stroke" fill-rule="evenodd" d="M-11870.8,-10.7584 L-11870.7,-2.75836 L-11700.9,-2.75836 L-11700.7,-2.73914 L-11700.6,-2.72972 L-11700.3,-2.5804 L-11700.2,-2.55915 L-11700,-2.28325 L-11700,-2.25145 L-11699.8,-1.89097 L-11699.8,-1.8436 L-11699.8,-1.64851 L-11699.8,42.3675 L-11483.9,42.3675 L-11483.9,-233.276 L-11581.7,-233.276 L-11581.7,-233.276 L-11581.7,-233.276 L-11581.9,-233.304 L-11582,-233.315 L-11582.3,-233.473 L-11582.3,-233.494 L-11582.6,-233.768 L-11582.6,-233.799 L-11582.8,-234.15 L-11582.8,-234.196 L-11582.8,-234.385 L-11582.8,-451.649 L-11582.8,-451.838 L-11582.8,-451.884 L-11582.6,-452.235 L-11582.6,-452.266 L-11582.3,-452.54 L-11582.3,-452.561 L-11582,-452.719 L-11581.9,-452.73 L-11581.7,-452.758 L-11581.7,-452.758 L-11581.7,-452.758 L-11534.2,-452.758 L-11534.2,-452.759 L-11534.2,-452.857 L-11534.2,-453.203 L-11534.2,-453.398 L-11534.2,-453.456 L-11534.1,-453.643 L-11534,-453.949 L-11533.9,-454.122 L-11533.9,-454.171 L-11533.7,-454.322 L-11533.5,-454.556 L-11533.4,-454.681 L-11533.3,-454.713 L-11533.1,-454.806 L-11532.8,-454.932 L-11532.6,-454.989 L-11532.6,-455.001 L-11532.4,-455.02 L-11532,-455.02 L-11532,-455.015 L-11531.9,-455.012 L-11531.8,-454.998 L-11525.6,-453.758 L-11506.7,-453.758 L-11409.1,-453.758 L-11390.1,-457.524 L-11374.3,-468.138 L-11363.6,-484.022 L-11360.3,-500.758 L-11407.8,-500.758 L-11408,-500.778 L-11408,-500.787 L-11408.4,-500.936 L-11408.4,-500.958 L-11408.7,-501.233 L-11408.7,-501.265 L-11408.9,-501.626 L-11408.9,-501.673 L-11408.9,-501.868 L-11408.9,-703.047 L-11506.7,-703.047 L-11506.9,-703.074 L-11507,-703.085 L-11507.3,-703.242 L-11507.3,-703.264 L-11507.6,-703.538 L-11507.6,-703.569 L-11507.8,-703.921 L-11507.8,-703.967 L-11507.8,-704.156 L-11507.8,-901.649 L-11507.8,-901.838 L-11507.8,-901.884 L-11507.6,-902.236 L-11507.6,-902.267 L-11507.3,-902.541 L-11507.3,-902.563 L-11507,-902.72 L-11506.9,-902.731 L-11506.7,-902.758 L-11459.2,-902.758 L-11462.6,-919.538 L-11473.2,-935.401 L-11489.1,-945.998 L-11508,-949.758 L-11526.9,-949.758 L-11624.6,-949.758 L-11643.5,-945.992 L-11659.4,-935.379 L-11670,-919.495 L-11673.3,-902.758 L-11625.9,-902.758 L-11625.7,-902.739 L-11625.6,-902.73 L-11625.3,-902.58 L-11625.2,-902.559 L-11625,-902.283 L-11625,-902.251 L-11624.8,-901.891 L-11624.8,-901.844 L-11624.8,-901.649 L-11624.8,-700.47 L-11526.9,-700.47 L-11526.7,-700.442 L-11526.6,-700.432 L-11526.3,-700.275 L-11526.2,-700.253 L-11526,-699.979 L-11526,-699.948 L-11525.8,-699.596 L-11525.8,-699.55 L-11525.8,-699.36 L-11525.8,-501.868 L-11525.8,-501.679 L-11525.8,-501.632 L-11526,-501.281 L-11526,-501.249 L-11526.2,-500.975 L-11526.3,-500.954 L-11526.6,-500.797 L-11526.7,-500.786 L-11526.9,-500.758 L-11574.4,-500.758 L-11574.4,-500.758 L-11574.4,-500.66 L-11574.4,-500.314 L-11574.4,-500.119 L-11574.4,-500.062 L-11574.4,-499.874 L-11574.6,-499.568 L-11574.7,-499.395 L-11574.7,-499.347 L-11574.8,-499.195 L-11575.1,-498.961 L-11575.2,-498.836 L-11575.3,-498.804 L-11575.4,-498.711 L-11575.7,-498.585 L-11575.9,-498.528 L-11576,-498.516 L-11576.2,-498.497 L-11576.5,-498.497 L-11576.6,-498.502 L-11576.6,-498.504 L-11576.7,-498.519 L-11583,-499.758 L-11591.8,-499.758 L-11699.6,-499.758 L-11699.8,-499.719 L-11699.8,-230.241 L-11601.9,-230.241 L-11601.9,-230.241 L-11601.9,-230.241 L-11601.6,-230.213 L-11601.6,-230.202 L-11601.3,-230.044 L-11601.2,-230.022 L-11601,-229.749 L-11601,-229.717 L-11600.8,-229.366 L-11600.8,-229.32 L-11600.8,-229.132 L-11600.8,-11.868 L-11600.8,-11.6791 L-11600.8,-11.6331 L-11601,-11.2822 L-11601,-11.2509 L-11601.2,-10.9771 L-11601.3,-10.9556 L-11601.6,-10.798 L-11601.6,-10.7871 L-11601.9,-10.7587 L-11601.9,-10.7587 L-11601.9,-10.7584 L-11700.7,-10.7584 L-11700.7,-10.7587 L-11700.7,-10.7589 L-11700.7,-10.7598 L-11700.8,-10.7611 L-11700.8,-10.7623 L-11700.8,-10.7584 L-11870.8,-10.7584"/>
</g>

<g fill="none" stroke="#000000" stroke-opacity="1" stroke-width="1" stroke-linecap="square" stroke-linejoin="bevel" transform="matrix(0.999001,0,0,-0.999001,11859.5,43.8163)"
font-family="MS Shell Dlg 2" font-size="10.3125" font-weight="400" font-style="normal" 
>
</g>

<g fill="none" stroke="#000000" stroke-opacity="1" stroke-width="1" stroke-linecap="square" stroke-linejoin="bevel" transform="matrix(0.999001,0,0,-0.999001,11859.5,43.8163)"
font-family="MS Shell Dlg 2" font-size="10.3125" font-weight="400" font-style="normal" 
>
</g>

<g fill="#333333" fill-opacity="0.2" stroke="#333333" stroke-opacity="1" stroke-width="1" stroke-linecap="round" stroke-linejoin="round" transform="matrix(0.999001,0,0,-0.999001,11859.5,43.8163)"
font-family="MS Shell Dlg 2" font-size="10.3125" font-weight="400" font-style="normal" 
>
<path vector-effect="non-scaling-stroke" fill-rule="evenodd" d="M-11870.8,-10.7584 L-11870.7,-2.75836 L-11700.9,-2.75836 L-11700.7,-2.73914 L-11700.6,-2.72972 L-11700.3,-2.5804 L-11700.2,-2.55915 L-11700,-2.28325 L-11700,-2.25145 L-11699.8,-1.89097 L-11699.8,-1.8436 L-11699.8,-1.64851 L-11699.8,42.3675 L-11483.9,42.3675 L-11483.9,-233.276 L-11581.7,-233.276 L-11581.7,-233.276 L-11581.7,-233.276 L-11581.9,-233.304 L-11582,-233.315 L-11582.3,-233.473 L-11582.3,-233.494 L-11582.6,-233.768 L-11582.6,-233.799 L-11582.8,-234.15 L-11582.8,-234.196 L-11582.8,-234.385 L-11582.8,-451.649 L-11582.8,-451.838 L-11582.8,-451.884 L-11582.6,-452.235 L-11582.6,-452.266 L-11582.3,-452.54 L-11582.3,-452.561 L-11582,-452.719 L-11581.9,-452.73 L-11581.7,-452.758 L-11581.7,-452.758 L-11581.7,-452.758 L-11534.2,-452.758 L-11534.2,-452.759 L-11534.2,-452.857 L-11534.2,-453.203 L-11534.2,-453.398 L-11534.2,-453.456 L-11534.1,-453.643 L-11534,-453.949 L-11533.9,-454.122 L-11533.9,-454.171 L-11533.7,-454.322 L-11533.5,-454.556 L-11533.4,-454.681 L-11533.3,-454.713 L-11533.1,-454.806 L-11532.8,-454.932 L-11532.6,-454.989 L-11532.6,-455.001 L-11532.4,-455.02 L-11532,-455.02 L-11532,-455.015 L-11531.9,-455.012 L-11531.8,-454.998 L-11525.6,-453.758 L-11506.7,-453.758 L-11409.1,-453.758 L-11390.1,-457.524 L-11374.3,-468.138 L-11363.6,-484.022 L-11360.3,-500.758 L-11407.8,-500.758 L-11408,-500.778 L-11408,-500.787 L-11408.4,-500.936 L-11408.4,-500.958 L-11408.7,-501.233 L-11408.7,-501.265 L-11408.9,-501.626 L-11408.9,-501.673 L-11408.9,-501.868 L-11408.9,-703.047 L-11506.7,-703.047 L-11506.9,-703.074 L-11507,-703.085 L-11507.3,-703.242 L-11507.3,-703.264 L-11507.6,-703.538 L-11507.6,-703.569 L-11507.8,-703.921 L-11507.8,-703.967 L-11507.8,-704.156 L-11507.8,-901.649 L-11507.8,-901.838 L-11507.8,-901.884 L-11507.6,-902.236 L-11507.6,-902.267 L-11507.3,-902.541 L-11507.3,-902.563 L-11507,-902.72 L-11506.9,-902.731 L-11506.7,-902.758 L-11459.2,-902.758 L-11462.6,-919.538 L-11473.2,-935.401 L-11489.1,-945.998 L-11508,-949.758 L-11526.9,-949.758 L-11624.6,-949.758 L-11643.5,-945.992 L-11659.4,-935.379 L-11670,-919.495 L-11673.3,-902.758 L-11625.9,-902.758 L-11625.7,-902.739 L-11625.6,-902.73 L-11625.3,-902.58 L-11625.2,-902.559 L-11625,-902.283 L-11625,-902.251 L-11624.8,-901.891 L-11624.8,-901.844 L-11624.8,-901.649 L-11624.8,-700.47 L-11526.9,-700.47 L-11526.7,-700.442 L-11526.6,-700.432 L-11526.3,-700.275 L-11526.2,-700.253 L-11526,-699.979 L-11526,-699.948 L-11525.8,-699.596 L-11525.8,-699.55 L-11525.8,-699.36 L-11525.8,-501.868 L-11525.8,-501.679 L-11525.8,-501.632 L-11526,-501.281 L-11526,-501.249 L-11526.2,-500.975 L-11526.3,-500.954 L-11526.6,-500.797 L-11526.7,-500.786 L-11526.9,-500.758 L-11574.4,-500.758 L-11574.4,-500.758 L-11574.4,-500.66 L-11574.4,-500.314 L-11574.4,-500.119 L-11574.4,-500.062 L-11574.4,-499.874 L-11574.6,-499.568 L-11574.7,-499.395 L-11574.7,-499.347 L-11574.8,-499.195 L-11575.1,-498.961 L-11575.2,-498.836 L-11575.3,-498.804 L-11575.4,-498.711 L-11575.7,-498.585 L-11575.9,-498.528 L-11576,-498.516 L-11576.2,-498.497 L-11576.5,-498.497 L-11576.6,-498.502 L-11576.6,-498.504 L-11576.7,-498.519 L-11583,-499.758 L-11591.8,-499.758 L-11699.6,-499.758 L-11699.8,-499.719 L-11699.8,-230.241 L-11601.9,-230.241 L-11601.9,-230.241 L-11601.9,-230.241 L-11601.6,-230.213 L-11601.6,-230.202 L-11601.3,-230.044 L-11601.2,-230.022 L-11601,-229.749 L-11601,-229.717 L-11600.8,-229.366 L-11600.8,-229.32 L-11600.8,-229.132 L-11600.8,-11.868 L-11600.8,-11.6791 L-11600.8,-11.6331 L-11601,-11.2822 L-11601,-11.2509 L-11601.2,-10.9771 L-11601.3,-10.9556 L-11601.6,-10.798 L-11601.6,-10.7871 L-11601.9,-10.7587 L-11601.9,-10.7587 L-11601.9,-10.7584 L-11700.7,-10.7584 L-11700.7,-10.7587 L-11700.7,-10.7589 L-11700.7,-10.7598 L-11700.8,-10.7611 L-11700.8,-10.7623 L-11700.8,-10.7584 L-11870.8,-10.7584"/>
</g>

<g fill="none" stroke="#000000" stroke-opacity="1" stroke-width="1" stroke-linecap="square" stroke-linejoin="bevel" transform="matrix(0.999001,0,0,-0.999001,11859.5,43.8163)"
font-family="MS Shell Dlg 2" font-size="10.3125" font-weight="400" font-style="normal" 
>
</g>

<g fill="none" stroke="#000000" stroke-opacity="1" stroke-width="1" stroke-linecap="square" stroke-linejoin="bevel" transform="matrix(1,0,0,-1,0,993.126)"
font-family="MS Shell Dlg 2" font-size="10.3125" font-weight="400" font-style="normal" 
>
</g>
</g>
</svg>
