<?xml version="1.0" encoding="UTF-8" standalone="no"?>
<svg width="70.2733mm" height="112.607mm"
 xmlns="http://www.w3.org/2000/svg" xmlns:xlink="http://www.w3.org/1999/xlink"  version="1.2" baseProfile="tiny">
<title>SVG Generator Example Drawing</title>
<desc>An SVG drawing created by the SVG Generator</desc>
<defs>
</defs>
<g fill="none" stroke="black" stroke-width="1" fill-rule="evenodd" stroke-linecap="square" stroke-linejoin="bevel" >

<g fill="none" stroke="#000000" stroke-opacity="1" stroke-width="1" stroke-linecap="square" stroke-linejoin="bevel" transform="matrix(1,0,0,-1,0,399.623)"
font-family="MS Shell Dlg 2" font-size="10.3125" font-weight="400" font-style="normal" 
>
</g>

<g fill="none" stroke="#000000" stroke-opacity="1" stroke-width="1" stroke-linecap="square" stroke-linejoin="bevel" transform="matrix(1,0,0,-1,0,399.623)"
font-family="MS Shell Dlg 2" font-size="10.3125" font-weight="400" font-style="normal" 
>
</g>

<g fill="none" stroke="#000000" stroke-opacity="1" stroke-width="1" stroke-linecap="square" stroke-linejoin="bevel" transform="matrix(0.998442,0,0,-0.998442,10325.2,3108.61)"
font-family="MS Shell Dlg 2" font-size="10.3125" font-weight="400" font-style="normal" 
>
</g>

<g fill="#333333" fill-opacity="0.2" stroke="#333333" stroke-opacity="1" stroke-width="1" stroke-linecap="round" stroke-linejoin="round" transform="matrix(0.998442,0,0,-0.998442,10325.2,3108.61)"
font-family="MS Shell Dlg 2" font-size="10.3125" font-weight="400" font-style="normal" 
>
<path vector-effect="non-scaling-stroke" fill-rule="evenodd" d="M-10340.8,3013.24 L-10333.1,3051.51 L-10311.3,3083.77 L-10278.8,3105.14 L-10240.4,3112.33 L-10190.6,3111.71 L-10153,3103.81 L-10121.4,3082.27 L-10100.2,3050.31 L-10092.8,3012.62 L-10092.8,2812.8 L-10100.5,2774.54 L-10122.2,2742.28 L-10154.8,2720.91 L-10193.1,2713.71 L-10242.9,2714.33 L-10280.5,2722.24 L-10312.2,2743.78 L-10333.3,2775.74 L-10340.8,2813.43 L-10340.8,3013.24"/>
</g>

<g fill="none" stroke="#000000" stroke-opacity="1" stroke-width="1" stroke-linecap="square" stroke-linejoin="bevel" transform="matrix(0.998442,0,0,-0.998442,10325.2,3108.61)"
font-family="MS Shell Dlg 2" font-size="10.3125" font-weight="400" font-style="normal" 
>
</g>

<g fill="none" stroke="#000000" stroke-opacity="1" stroke-width="1" stroke-linecap="square" stroke-linejoin="bevel" transform="matrix(0.998442,0,0,-0.998442,10325.2,3108.61)"
font-family="MS Shell Dlg 2" font-size="10.3125" font-weight="400" font-style="normal" 
>
</g>

<g fill="#ae5151" fill-opacity="0.2" stroke="#333333" stroke-opacity="1" stroke-width="1" stroke-linecap="round" stroke-linejoin="round" transform="matrix(0.998442,0,0,-0.998442,10325.2,3108.61)"
font-family="MS Shell Dlg 2" font-size="10.3125" font-weight="400" font-style="normal" 
>
<path vector-effect="non-scaling-stroke" fill-rule="evenodd" d="M-10340.8,3013.24 L-10333.1,3051.51 L-10311.3,3083.77 L-10278.8,3105.14 L-10240.4,3112.33 L-10190.6,3111.71 L-10153,3103.81 L-10121.4,3082.27 L-10100.2,3050.31 L-10092.8,3012.62 L-10092.8,2812.8 L-10100.5,2774.54 L-10122.2,2742.28 L-10154.8,2720.91 L-10193.1,2713.71 L-10242.9,2714.33 L-10280.5,2722.24 L-10312.2,2743.78 L-10333.3,2775.74 L-10340.8,2813.43 L-10340.8,3013.24"/>
</g>

<g fill="none" stroke="#000000" stroke-opacity="1" stroke-width="1" stroke-linecap="square" stroke-linejoin="bevel" transform="matrix(0.998442,0,0,-0.998442,10325.2,3108.61)"
font-family="MS Shell Dlg 2" font-size="10.3125" font-weight="400" font-style="normal" 
>
</g>

<g fill="none" stroke="#000000" stroke-opacity="1" stroke-width="1" stroke-linecap="square" stroke-linejoin="bevel" transform="matrix(0.998442,0,0,-0.998442,10325.2,3108.61)"
font-family="MS Shell Dlg 2" font-size="10.3125" font-weight="400" font-style="normal" 
>
</g>

<g fill="#ffff00" fill-opacity="0.2" stroke="#333333" stroke-opacity="1" stroke-width="1" stroke-linecap="round" stroke-linejoin="round" transform="matrix(0.998442,0,0,-0.998442,10325.2,3108.61)"
font-family="MS Shell Dlg 2" font-size="10.3125" font-weight="400" font-style="normal" 
>
<path vector-effect="non-scaling-stroke" fill-rule="evenodd" d="M-10340.8,3013.24 L-10333.1,3051.51 L-10311.3,3083.77 L-10278.8,3105.14 L-10240.4,3112.33 L-10190.6,3111.71 L-10153,3103.81 L-10121.4,3082.27 L-10100.2,3050.31 L-10092.8,3012.62 L-10092.8,2812.8 L-10100.5,2774.54 L-10122.2,2742.28 L-10154.8,2720.91 L-10193.1,2713.71 L-10242.9,2714.33 L-10280.5,2722.24 L-10312.2,2743.78 L-10333.3,2775.74 L-10340.8,2813.43 L-10340.8,3013.24"/>
</g>

<g fill="none" stroke="#000000" stroke-opacity="1" stroke-width="1" stroke-linecap="square" stroke-linejoin="bevel" transform="matrix(0.998442,0,0,-0.998442,10325.2,3108.61)"
font-family="MS Shell Dlg 2" font-size="10.3125" font-weight="400" font-style="normal" 
>
</g>

<g fill="none" stroke="#000000" stroke-opacity="1" stroke-width="1" stroke-linecap="square" stroke-linejoin="bevel" transform="matrix(0.998442,0,0,-0.998442,10325.2,3108.61)"
font-family="MS Shell Dlg 2" font-size="10.3125" font-weight="400" font-style="normal" 
>
</g>

<g fill="#ae5151" fill-opacity="0.2" stroke="#333333" stroke-opacity="1" stroke-width="1" stroke-linecap="round" stroke-linejoin="round" transform="matrix(0.998442,0,0,-0.998442,10325.2,3108.61)"
font-family="MS Shell Dlg 2" font-size="10.3125" font-weight="400" font-style="normal" 
>
<path vector-effect="non-scaling-stroke" fill-rule="evenodd" d="M-10340.8,3013.24 L-10333.1,3051.51 L-10311.3,3083.77 L-10278.8,3105.14 L-10240.4,3112.33 L-10190.6,3111.71 L-10153,3103.81 L-10121.4,3082.27 L-10100.2,3050.31 L-10092.8,3012.62 L-10092.8,2812.8 L-10100.5,2774.54 L-10122.2,2742.28 L-10154.8,2720.91 L-10193.1,2713.71 L-10242.9,2714.33 L-10280.5,2722.24 L-10312.2,2743.78 L-10333.3,2775.74 L-10340.8,2813.43 L-10340.8,3013.24"/>
</g>

<g fill="none" stroke="#000000" stroke-opacity="1" stroke-width="1" stroke-linecap="square" stroke-linejoin="bevel" transform="matrix(0.998442,0,0,-0.998442,10325.2,3108.61)"
font-family="MS Shell Dlg 2" font-size="10.3125" font-weight="400" font-style="normal" 
>
</g>

<g fill="none" stroke="#000000" stroke-opacity="1" stroke-width="1" stroke-linecap="square" stroke-linejoin="bevel" transform="matrix(0.998442,0,0,-0.998442,10325.2,3108.61)"
font-family="MS Shell Dlg 2" font-size="10.3125" font-weight="400" font-style="normal" 
>
</g>

<g fill="#333333" fill-opacity="0.2" stroke="#333333" stroke-opacity="1" stroke-width="1" stroke-linecap="round" stroke-linejoin="round" transform="matrix(0.998442,0,0,-0.998442,10325.2,3108.61)"
font-family="MS Shell Dlg 2" font-size="10.3125" font-weight="400" font-style="normal" 
>
<path vector-effect="non-scaling-stroke" fill-rule="evenodd" d="M-10340.8,3013.24 L-10333.1,3051.51 L-10311.3,3083.77 L-10278.8,3105.14 L-10240.4,3112.33 L-10190.6,3111.71 L-10153,3103.81 L-10121.4,3082.27 L-10100.2,3050.31 L-10092.8,3012.62 L-10092.8,2812.8 L-10100.5,2774.54 L-10122.2,2742.28 L-10154.8,2720.91 L-10193.1,2713.71 L-10242.9,2714.33 L-10280.5,2722.24 L-10312.2,2743.78 L-10333.3,2775.74 L-10340.8,2813.43 L-10340.8,3013.24"/>
</g>

<g fill="none" stroke="#000000" stroke-opacity="1" stroke-width="1" stroke-linecap="square" stroke-linejoin="bevel" transform="matrix(0.998442,0,0,-0.998442,10325.2,3108.61)"
font-family="MS Shell Dlg 2" font-size="10.3125" font-weight="400" font-style="normal" 
>
</g>

<g fill="none" stroke="#000000" stroke-opacity="1" stroke-width="1" stroke-linecap="square" stroke-linejoin="bevel" transform="matrix(1,0,0,-1,0,399.623)"
font-family="MS Shell Dlg 2" font-size="10.3125" font-weight="400" font-style="normal" 
>
</g>
</g>
</svg>
