<?xml version="1.0" encoding="UTF-8" standalone="no"?>
<svg width="140.264mm" height="88.6178mm"
 xmlns="http://www.w3.org/2000/svg" xmlns:xlink="http://www.w3.org/1999/xlink"  version="1.2" baseProfile="tiny">
<title>SVG Generator Example Drawing</title>
<desc>An SVG drawing created by the SVG Generator</desc>
<defs>
</defs>
<g fill="none" stroke="black" stroke-width="1" fill-rule="evenodd" stroke-linecap="square" stroke-linejoin="bevel" >

<g fill="none" stroke="#000000" stroke-opacity="1" stroke-width="1" stroke-linecap="square" stroke-linejoin="bevel" transform="matrix(1,0,0,-1,0,314.016)"
font-family="MS Shell Dlg 2" font-size="10.3125" font-weight="400" font-style="normal" 
>
</g>

<g fill="none" stroke="#000000" stroke-opacity="1" stroke-width="1" stroke-linecap="square" stroke-linejoin="bevel" transform="matrix(1,0,0,-1,0,314.016)"
font-family="MS Shell Dlg 2" font-size="10.3125" font-weight="400" font-style="normal" 
>
</g>

<g fill="none" stroke="#000000" stroke-opacity="1" stroke-width="1" stroke-linecap="square" stroke-linejoin="bevel" transform="matrix(0.999949,0,0,-0.999949,10239.8,2130.08)"
font-family="MS Shell Dlg 2" font-size="10.3125" font-weight="400" font-style="normal" 
>
</g>

<g fill="#ae5151" fill-opacity="0.2" stroke="#333333" stroke-opacity="1" stroke-width="1" stroke-linecap="round" stroke-linejoin="round" transform="matrix(0.999949,0,0,-0.999949,10239.8,2130.08)"
font-family="MS Shell Dlg 2" font-size="10.3125" font-weight="400" font-style="normal" 
>
<path vector-effect="non-scaling-stroke" fill-rule="evenodd" d="M-10239.8,2080.91 L-10236,2099.85 L-10225.4,2115.73 L-10209.5,2126.34 L-10192.8,2129.67 L-10192.8,2082.22 L-10192.8,2082.02 L-10192.8,2081.98 L-10192.6,2081.62 L-10192.6,2081.58 L-10192.3,2081.31 L-10192.3,2081.29 L-10191.9,2081.14 L-10191.9,2081.13 L-10191.7,2081.11 L-9990.5,2081.11 L-9990.5,1983.31 L-9990.47,1983.08 L-9990.46,1983.03 L-9990.3,1982.69 L-9990.28,1982.66 L-9990,1982.4 L-9989.97,1982.38 L-9989.62,1982.24 L-9989.58,1982.23 L-9989.39,1982.21 L-9791.89,1982.21 L-9791.7,1982.23 L-9791.66,1982.24 L-9791.31,1982.38 L-9791.27,1982.4 L-9791,1982.66 L-9790.98,1982.69 L-9790.82,1983.03 L-9790.81,1983.08 L-9790.78,1983.31 L-9790.78,2030.78 L-9774,2027.42 L-9758.14,2016.81 L-9747.54,2000.93 L-9743.78,1982.01 L-9743.78,1865.42 L-9747.55,1846.48 L-9758.16,1830.6 L-9774.05,1819.98 L-9790.78,1816.66 L-9790.78,1864.11 L-9790.8,1864.3 L-9790.81,1864.35 L-9790.96,1864.71 L-9790.98,1864.74 L-9791.26,1865.02 L-9791.29,1865.04 L-9791.65,1865.19 L-9791.7,1865.2 L-9791.89,1865.22 L-9993.07,1865.22 L-9993.07,1963.1 L-9993.1,1963.34 L-9993.11,1963.38 L-9993.27,1963.73 L-9993.29,1963.76 L-9993.56,1964.02 L-9993.59,1964.04 L-9993.95,1964.18 L-9993.99,1964.19 L-9994.18,1964.21 L-10191.7,1964.21 L-10191.9,1964.19 L-10191.9,1964.18 L-10192.3,1964.04 L-10192.3,1964.02 L-10192.6,1963.76 L-10192.6,1963.73 L-10192.7,1963.38 L-10192.8,1963.34 L-10192.8,1963.1 L-10192.8,1915.64 L-10209.6,1918.99 L-10225.4,1929.61 L-10236,1945.49 L-10239.8,1964.41 L-10239.8,2080.91"/>
</g>

<g fill="none" stroke="#000000" stroke-opacity="1" stroke-width="1" stroke-linecap="square" stroke-linejoin="bevel" transform="matrix(0.999949,0,0,-0.999949,10239.8,2130.08)"
font-family="MS Shell Dlg 2" font-size="10.3125" font-weight="400" font-style="normal" 
>
</g>

<g fill="none" stroke="#000000" stroke-opacity="1" stroke-width="1" stroke-linecap="square" stroke-linejoin="bevel" transform="matrix(0.999949,0,0,-0.999949,10239.8,2130.08)"
font-family="MS Shell Dlg 2" font-size="10.3125" font-weight="400" font-style="normal" 
>
</g>

<g fill="#333333" fill-opacity="0.2" stroke="#333333" stroke-opacity="1" stroke-width="1" stroke-linecap="round" stroke-linejoin="round" transform="matrix(0.999949,0,0,-0.999949,10239.8,2130.08)"
font-family="MS Shell Dlg 2" font-size="10.3125" font-weight="400" font-style="normal" 
>
<path vector-effect="non-scaling-stroke" fill-rule="evenodd" d="M-10239.8,2080.91 L-10236,2099.85 L-10225.4,2115.73 L-10209.5,2126.34 L-10192.8,2129.67 L-10192.8,2082.22 L-10192.8,2082.02 L-10192.8,2081.98 L-10192.6,2081.62 L-10192.6,2081.58 L-10192.3,2081.31 L-10192.3,2081.29 L-10191.9,2081.14 L-10191.9,2081.13 L-10191.7,2081.11 L-9990.5,2081.11 L-9990.5,1983.31 L-9990.47,1983.08 L-9990.46,1983.03 L-9990.3,1982.69 L-9990.28,1982.66 L-9990,1982.4 L-9989.97,1982.38 L-9989.62,1982.24 L-9989.58,1982.23 L-9989.39,1982.21 L-9791.89,1982.21 L-9791.7,1982.23 L-9791.66,1982.24 L-9791.31,1982.38 L-9791.27,1982.4 L-9791,1982.66 L-9790.98,1982.69 L-9790.82,1983.03 L-9790.81,1983.08 L-9790.78,1983.31 L-9790.78,2030.78 L-9774,2027.42 L-9758.14,2016.81 L-9747.54,2000.93 L-9743.78,1982.01 L-9743.78,1865.42 L-9747.55,1846.48 L-9758.16,1830.6 L-9774.05,1819.98 L-9790.78,1816.66 L-9790.78,1864.11 L-9790.8,1864.3 L-9790.81,1864.35 L-9790.96,1864.71 L-9790.98,1864.74 L-9791.26,1865.02 L-9791.29,1865.04 L-9791.65,1865.19 L-9791.7,1865.2 L-9791.89,1865.22 L-9993.07,1865.22 L-9993.07,1963.1 L-9993.1,1963.34 L-9993.11,1963.38 L-9993.27,1963.73 L-9993.29,1963.76 L-9993.56,1964.02 L-9993.59,1964.04 L-9993.95,1964.18 L-9993.99,1964.19 L-9994.18,1964.21 L-10191.7,1964.21 L-10191.9,1964.19 L-10191.9,1964.18 L-10192.3,1964.04 L-10192.3,1964.02 L-10192.6,1963.76 L-10192.6,1963.73 L-10192.7,1963.38 L-10192.8,1963.34 L-10192.8,1963.1 L-10192.8,1915.64 L-10209.6,1918.99 L-10225.4,1929.61 L-10236,1945.49 L-10239.8,1964.41 L-10239.8,2080.91"/>
</g>

<g fill="none" stroke="#000000" stroke-opacity="1" stroke-width="1" stroke-linecap="square" stroke-linejoin="bevel" transform="matrix(0.999949,0,0,-0.999949,10239.8,2130.08)"
font-family="MS Shell Dlg 2" font-size="10.3125" font-weight="400" font-style="normal" 
>
</g>

<g fill="none" stroke="#000000" stroke-opacity="1" stroke-width="1" stroke-linecap="square" stroke-linejoin="bevel" transform="matrix(1,0,0,-1,0,314.016)"
font-family="MS Shell Dlg 2" font-size="10.3125" font-weight="400" font-style="normal" 
>
</g>
</g>
</svg>
