<?xml version="1.0" encoding="UTF-8" standalone="no"?>
<svg width="84.3844mm" height="112.607mm"
 xmlns="http://www.w3.org/2000/svg" xmlns:xlink="http://www.w3.org/1999/xlink"  version="1.2" baseProfile="tiny">
<title>SVG Generator Example Drawing</title>
<desc>An SVG drawing created by the SVG Generator</desc>
<defs>
</defs>
<g fill="none" stroke="black" stroke-width="1" fill-rule="evenodd" stroke-linecap="square" stroke-linejoin="bevel" >

<g fill="none" stroke="#000000" stroke-opacity="1" stroke-width="1" stroke-linecap="square" stroke-linejoin="bevel" transform="matrix(1,0,0,-1,0,399.379)"
font-family="MS Shell Dlg 2" font-size="10.3125" font-weight="400" font-style="normal" 
>
</g>

<g fill="none" stroke="#000000" stroke-opacity="1" stroke-width="1" stroke-linecap="square" stroke-linejoin="bevel" transform="matrix(1,0,0,-1,0,399.379)"
font-family="MS Shell Dlg 2" font-size="10.3125" font-weight="400" font-style="normal" 
>
</g>

<g fill="none" stroke="#000000" stroke-opacity="1" stroke-width="1" stroke-linecap="square" stroke-linejoin="bevel" transform="matrix(0.99905,0,0,-0.99905,9157.58,7074.28)"
font-family="MS Shell Dlg 2" font-size="10.3125" font-weight="400" font-style="normal" 
>
</g>

<g fill="#333333" fill-opacity="0.2" stroke="#333333" stroke-opacity="1" stroke-width="1" stroke-linecap="round" stroke-linejoin="round" transform="matrix(0.99905,0,0,-0.99905,9157.58,7074.28)"
font-family="MS Shell Dlg 2" font-size="10.3125" font-weight="400" font-style="normal" 
>
<path vector-effect="non-scaling-stroke" fill-rule="evenodd" d="M-9165.78,6780.85 L-9165.78,6980.65 L-9158.27,7018.54 L-9136.91,7050.61 L-9104.92,7072.09 L-9067.06,7079.75 L-8967.26,7080.13 L-8929.17,7072.68 L-8896.93,7051.25 L-8875.37,7019.09 L-8867.78,6981.03 L-8867.78,6781.23 L-8875.3,6743.34 L-8896.66,6711.27 L-8928.64,6689.79 L-8966.51,6682.13 L-9066.31,6681.75 L-9104.4,6689.19 L-9136.64,6710.62 L-9158.19,6742.78 L-9165.78,6780.85"/>
</g>

<g fill="none" stroke="#000000" stroke-opacity="1" stroke-width="1" stroke-linecap="square" stroke-linejoin="bevel" transform="matrix(0.99905,0,0,-0.99905,9157.58,7074.28)"
font-family="MS Shell Dlg 2" font-size="10.3125" font-weight="400" font-style="normal" 
>
</g>

<g fill="none" stroke="#000000" stroke-opacity="1" stroke-width="1" stroke-linecap="square" stroke-linejoin="bevel" transform="matrix(0.99905,0,0,-0.99905,9157.58,7074.28)"
font-family="MS Shell Dlg 2" font-size="10.3125" font-weight="400" font-style="normal" 
>
</g>

<g fill="#ae5151" fill-opacity="0.2" stroke="#333333" stroke-opacity="1" stroke-width="1" stroke-linecap="round" stroke-linejoin="round" transform="matrix(0.99905,0,0,-0.99905,9157.58,7074.28)"
font-family="MS Shell Dlg 2" font-size="10.3125" font-weight="400" font-style="normal" 
>
<path vector-effect="non-scaling-stroke" fill-rule="evenodd" d="M-9165.78,6780.85 L-9165.78,6980.65 L-9158.27,7018.54 L-9136.91,7050.61 L-9104.92,7072.09 L-9067.06,7079.75 L-8967.26,7080.13 L-8929.17,7072.68 L-8896.93,7051.25 L-8875.37,7019.09 L-8867.78,6981.03 L-8867.78,6781.23 L-8875.3,6743.34 L-8896.66,6711.27 L-8928.64,6689.79 L-8966.51,6682.13 L-9066.31,6681.75 L-9104.4,6689.19 L-9136.64,6710.62 L-9158.19,6742.78 L-9165.78,6780.85"/>
</g>

<g fill="none" stroke="#000000" stroke-opacity="1" stroke-width="1" stroke-linecap="square" stroke-linejoin="bevel" transform="matrix(0.99905,0,0,-0.99905,9157.58,7074.28)"
font-family="MS Shell Dlg 2" font-size="10.3125" font-weight="400" font-style="normal" 
>
</g>

<g fill="none" stroke="#000000" stroke-opacity="1" stroke-width="1" stroke-linecap="square" stroke-linejoin="bevel" transform="matrix(0.99905,0,0,-0.99905,9157.58,7074.28)"
font-family="MS Shell Dlg 2" font-size="10.3125" font-weight="400" font-style="normal" 
>
</g>

<g fill="#ffff00" fill-opacity="0.2" stroke="#333333" stroke-opacity="1" stroke-width="1" stroke-linecap="round" stroke-linejoin="round" transform="matrix(0.99905,0,0,-0.99905,9157.58,7074.28)"
font-family="MS Shell Dlg 2" font-size="10.3125" font-weight="400" font-style="normal" 
>
<path vector-effect="non-scaling-stroke" fill-rule="evenodd" d="M-9165.78,6780.85 L-9165.78,6980.65 L-9158.27,7018.54 L-9136.91,7050.61 L-9104.92,7072.09 L-9067.06,7079.75 L-8967.26,7080.13 L-8929.17,7072.68 L-8896.93,7051.25 L-8875.37,7019.09 L-8867.78,6981.03 L-8867.78,6781.23 L-8875.3,6743.34 L-8896.66,6711.27 L-8928.64,6689.79 L-8966.51,6682.13 L-9066.31,6681.75 L-9104.4,6689.19 L-9136.64,6710.62 L-9158.19,6742.78 L-9165.78,6780.85"/>
</g>

<g fill="none" stroke="#000000" stroke-opacity="1" stroke-width="1" stroke-linecap="square" stroke-linejoin="bevel" transform="matrix(0.99905,0,0,-0.99905,9157.58,7074.28)"
font-family="MS Shell Dlg 2" font-size="10.3125" font-weight="400" font-style="normal" 
>
</g>

<g fill="none" stroke="#000000" stroke-opacity="1" stroke-width="1" stroke-linecap="square" stroke-linejoin="bevel" transform="matrix(0.99905,0,0,-0.99905,9157.58,7074.28)"
font-family="MS Shell Dlg 2" font-size="10.3125" font-weight="400" font-style="normal" 
>
</g>

<g fill="#ae5151" fill-opacity="0.2" stroke="#333333" stroke-opacity="1" stroke-width="1" stroke-linecap="round" stroke-linejoin="round" transform="matrix(0.99905,0,0,-0.99905,9157.58,7074.28)"
font-family="MS Shell Dlg 2" font-size="10.3125" font-weight="400" font-style="normal" 
>
<path vector-effect="non-scaling-stroke" fill-rule="evenodd" d="M-9165.78,6780.85 L-9165.78,6980.65 L-9158.27,7018.54 L-9136.91,7050.61 L-9104.92,7072.09 L-9067.06,7079.75 L-8967.26,7080.13 L-8929.17,7072.68 L-8896.93,7051.25 L-8875.37,7019.09 L-8867.78,6981.03 L-8867.78,6781.23 L-8875.3,6743.34 L-8896.66,6711.27 L-8928.64,6689.79 L-8966.51,6682.13 L-9066.31,6681.75 L-9104.4,6689.19 L-9136.64,6710.62 L-9158.19,6742.78 L-9165.78,6780.85"/>
</g>

<g fill="none" stroke="#000000" stroke-opacity="1" stroke-width="1" stroke-linecap="square" stroke-linejoin="bevel" transform="matrix(0.99905,0,0,-0.99905,9157.58,7074.28)"
font-family="MS Shell Dlg 2" font-size="10.3125" font-weight="400" font-style="normal" 
>
</g>

<g fill="none" stroke="#000000" stroke-opacity="1" stroke-width="1" stroke-linecap="square" stroke-linejoin="bevel" transform="matrix(0.99905,0,0,-0.99905,9157.58,7074.28)"
font-family="MS Shell Dlg 2" font-size="10.3125" font-weight="400" font-style="normal" 
>
</g>

<g fill="#333333" fill-opacity="0.2" stroke="#333333" stroke-opacity="1" stroke-width="1" stroke-linecap="round" stroke-linejoin="round" transform="matrix(0.99905,0,0,-0.99905,9157.58,7074.28)"
font-family="MS Shell Dlg 2" font-size="10.3125" font-weight="400" font-style="normal" 
>
<path vector-effect="non-scaling-stroke" fill-rule="evenodd" d="M-9165.78,6780.85 L-9165.78,6980.65 L-9158.27,7018.54 L-9136.91,7050.61 L-9104.92,7072.09 L-9067.06,7079.75 L-8967.26,7080.13 L-8929.17,7072.68 L-8896.93,7051.25 L-8875.37,7019.09 L-8867.78,6981.03 L-8867.78,6781.23 L-8875.3,6743.34 L-8896.66,6711.27 L-8928.64,6689.79 L-8966.51,6682.13 L-9066.31,6681.75 L-9104.4,6689.19 L-9136.64,6710.62 L-9158.19,6742.78 L-9165.78,6780.85"/>
</g>

<g fill="none" stroke="#000000" stroke-opacity="1" stroke-width="1" stroke-linecap="square" stroke-linejoin="bevel" transform="matrix(0.99905,0,0,-0.99905,9157.58,7074.28)"
font-family="MS Shell Dlg 2" font-size="10.3125" font-weight="400" font-style="normal" 
>
</g>

<g fill="none" stroke="#000000" stroke-opacity="1" stroke-width="1" stroke-linecap="square" stroke-linejoin="bevel" transform="matrix(1,0,0,-1,0,399.379)"
font-family="MS Shell Dlg 2" font-size="10.3125" font-weight="400" font-style="normal" 
>
</g>
</g>
</svg>
