<?xml version="1.0" encoding="UTF-8" standalone="no"?>
<svg width="58.9844mm" height="112.607mm"
 xmlns="http://www.w3.org/2000/svg" xmlns:xlink="http://www.w3.org/1999/xlink"  version="1.2" baseProfile="tiny">
<title>SVG Generator Example Drawing</title>
<desc>An SVG drawing created by the SVG Generator</desc>
<defs>
</defs>
<g fill="none" stroke="black" stroke-width="1" fill-rule="evenodd" stroke-linecap="square" stroke-linejoin="bevel" >

<g fill="none" stroke="#000000" stroke-opacity="1" stroke-width="1" stroke-linecap="square" stroke-linejoin="bevel" transform="matrix(1,0,0,-1,0,399)"
font-family="MS Shell Dlg 2" font-size="10.3125" font-weight="400" font-style="normal" 
>
</g>

<g fill="none" stroke="#000000" stroke-opacity="1" stroke-width="1" stroke-linecap="square" stroke-linejoin="bevel" transform="matrix(1,0,0,-1,0,399)"
font-family="MS Shell Dlg 2" font-size="10.3125" font-weight="400" font-style="normal" 
>
</g>

<g fill="none" stroke="#000000" stroke-opacity="1" stroke-width="1" stroke-linecap="square" stroke-linejoin="bevel" transform="matrix(1,0,0,-1,9351.28,2660.79)"
font-family="MS Shell Dlg 2" font-size="10.3125" font-weight="400" font-style="normal" 
>
</g>

<g fill="#333333" fill-opacity="0.2" stroke="#333333" stroke-opacity="1" stroke-width="1" stroke-linecap="round" stroke-linejoin="round" transform="matrix(1,0,0,-1,9351.28,2660.79)"
font-family="MS Shell Dlg 2" font-size="10.3125" font-weight="400" font-style="normal" 
>
<path vector-effect="non-scaling-stroke" fill-rule="evenodd" d="M-9350.78,2361.39 L-9350.78,2561.2 L-9343.23,2599.17 L-9321.77,2631.28 L-9289.66,2652.74 L-9251.69,2660.29 L-9241.88,2660.29 L-9203.91,2652.74 L-9171.79,2631.28 L-9150.34,2599.17 L-9142.78,2561.2 L-9142.78,2361.39 L-9150.34,2323.42 L-9171.79,2291.3 L-9203.91,2269.85 L-9241.88,2262.29 L-9251.69,2262.29 L-9289.66,2269.85 L-9321.77,2291.3 L-9343.23,2323.42 L-9350.78,2361.39"/>
</g>

<g fill="none" stroke="#000000" stroke-opacity="1" stroke-width="1" stroke-linecap="square" stroke-linejoin="bevel" transform="matrix(1,0,0,-1,9351.28,2660.79)"
font-family="MS Shell Dlg 2" font-size="10.3125" font-weight="400" font-style="normal" 
>
</g>

<g fill="none" stroke="#000000" stroke-opacity="1" stroke-width="1" stroke-linecap="square" stroke-linejoin="bevel" transform="matrix(1,0,0,-1,9351.28,2660.79)"
font-family="MS Shell Dlg 2" font-size="10.3125" font-weight="400" font-style="normal" 
>
</g>

<g fill="#ae5151" fill-opacity="0.2" stroke="#333333" stroke-opacity="1" stroke-width="1" stroke-linecap="round" stroke-linejoin="round" transform="matrix(1,0,0,-1,9351.28,2660.79)"
font-family="MS Shell Dlg 2" font-size="10.3125" font-weight="400" font-style="normal" 
>
<path vector-effect="non-scaling-stroke" fill-rule="evenodd" d="M-9350.78,2361.39 L-9350.78,2561.2 L-9343.23,2599.17 L-9321.77,2631.28 L-9289.66,2652.74 L-9251.69,2660.29 L-9241.88,2660.29 L-9203.91,2652.74 L-9171.79,2631.28 L-9150.34,2599.17 L-9142.78,2561.2 L-9142.78,2361.39 L-9150.34,2323.42 L-9171.79,2291.3 L-9203.91,2269.85 L-9241.88,2262.29 L-9251.69,2262.29 L-9289.66,2269.85 L-9321.77,2291.3 L-9343.23,2323.42 L-9350.78,2361.39"/>
</g>

<g fill="none" stroke="#000000" stroke-opacity="1" stroke-width="1" stroke-linecap="square" stroke-linejoin="bevel" transform="matrix(1,0,0,-1,9351.28,2660.79)"
font-family="MS Shell Dlg 2" font-size="10.3125" font-weight="400" font-style="normal" 
>
</g>

<g fill="none" stroke="#000000" stroke-opacity="1" stroke-width="1" stroke-linecap="square" stroke-linejoin="bevel" transform="matrix(1,0,0,-1,9351.28,2660.79)"
font-family="MS Shell Dlg 2" font-size="10.3125" font-weight="400" font-style="normal" 
>
</g>

<g fill="#ffff00" fill-opacity="0.2" stroke="#333333" stroke-opacity="1" stroke-width="1" stroke-linecap="round" stroke-linejoin="round" transform="matrix(1,0,0,-1,9351.28,2660.79)"
font-family="MS Shell Dlg 2" font-size="10.3125" font-weight="400" font-style="normal" 
>
<path vector-effect="non-scaling-stroke" fill-rule="evenodd" d="M-9350.78,2361.39 L-9350.78,2561.2 L-9343.23,2599.17 L-9321.77,2631.28 L-9289.66,2652.74 L-9251.69,2660.29 L-9241.88,2660.29 L-9203.91,2652.74 L-9171.79,2631.28 L-9150.34,2599.17 L-9142.78,2561.2 L-9142.78,2361.39 L-9150.34,2323.42 L-9171.79,2291.3 L-9203.91,2269.85 L-9241.88,2262.29 L-9251.69,2262.29 L-9289.66,2269.85 L-9321.77,2291.3 L-9343.23,2323.42 L-9350.78,2361.39"/>
</g>

<g fill="none" stroke="#000000" stroke-opacity="1" stroke-width="1" stroke-linecap="square" stroke-linejoin="bevel" transform="matrix(1,0,0,-1,9351.28,2660.79)"
font-family="MS Shell Dlg 2" font-size="10.3125" font-weight="400" font-style="normal" 
>
</g>

<g fill="none" stroke="#000000" stroke-opacity="1" stroke-width="1" stroke-linecap="square" stroke-linejoin="bevel" transform="matrix(1,0,0,-1,9351.28,2660.79)"
font-family="MS Shell Dlg 2" font-size="10.3125" font-weight="400" font-style="normal" 
>
</g>

<g fill="#ae5151" fill-opacity="0.2" stroke="#333333" stroke-opacity="1" stroke-width="1" stroke-linecap="round" stroke-linejoin="round" transform="matrix(1,0,0,-1,9351.28,2660.79)"
font-family="MS Shell Dlg 2" font-size="10.3125" font-weight="400" font-style="normal" 
>
<path vector-effect="non-scaling-stroke" fill-rule="evenodd" d="M-9350.78,2361.39 L-9350.78,2561.2 L-9343.23,2599.17 L-9321.77,2631.28 L-9289.66,2652.74 L-9251.69,2660.29 L-9241.88,2660.29 L-9203.91,2652.74 L-9171.79,2631.28 L-9150.34,2599.17 L-9142.78,2561.2 L-9142.78,2361.39 L-9150.34,2323.42 L-9171.79,2291.3 L-9203.91,2269.85 L-9241.88,2262.29 L-9251.69,2262.29 L-9289.66,2269.85 L-9321.77,2291.3 L-9343.23,2323.42 L-9350.78,2361.39"/>
</g>

<g fill="none" stroke="#000000" stroke-opacity="1" stroke-width="1" stroke-linecap="square" stroke-linejoin="bevel" transform="matrix(1,0,0,-1,9351.28,2660.79)"
font-family="MS Shell Dlg 2" font-size="10.3125" font-weight="400" font-style="normal" 
>
</g>

<g fill="none" stroke="#000000" stroke-opacity="1" stroke-width="1" stroke-linecap="square" stroke-linejoin="bevel" transform="matrix(1,0,0,-1,9351.28,2660.79)"
font-family="MS Shell Dlg 2" font-size="10.3125" font-weight="400" font-style="normal" 
>
</g>

<g fill="#333333" fill-opacity="0.2" stroke="#333333" stroke-opacity="1" stroke-width="1" stroke-linecap="round" stroke-linejoin="round" transform="matrix(1,0,0,-1,9351.28,2660.79)"
font-family="MS Shell Dlg 2" font-size="10.3125" font-weight="400" font-style="normal" 
>
<path vector-effect="non-scaling-stroke" fill-rule="evenodd" d="M-9350.78,2361.39 L-9350.78,2561.2 L-9343.23,2599.17 L-9321.77,2631.28 L-9289.66,2652.74 L-9251.69,2660.29 L-9241.88,2660.29 L-9203.91,2652.74 L-9171.79,2631.28 L-9150.34,2599.17 L-9142.78,2561.2 L-9142.78,2361.39 L-9150.34,2323.42 L-9171.79,2291.3 L-9203.91,2269.85 L-9241.88,2262.29 L-9251.69,2262.29 L-9289.66,2269.85 L-9321.77,2291.3 L-9343.23,2323.42 L-9350.78,2361.39"/>
</g>

<g fill="none" stroke="#000000" stroke-opacity="1" stroke-width="1" stroke-linecap="square" stroke-linejoin="bevel" transform="matrix(1,0,0,-1,9351.28,2660.79)"
font-family="MS Shell Dlg 2" font-size="10.3125" font-weight="400" font-style="normal" 
>
</g>

<g fill="none" stroke="#000000" stroke-opacity="1" stroke-width="1" stroke-linecap="square" stroke-linejoin="bevel" transform="matrix(1,0,0,-1,0,399)"
font-family="MS Shell Dlg 2" font-size="10.3125" font-weight="400" font-style="normal" 
>
</g>
</g>
</svg>
