<?xml version="1.0" encoding="UTF-8" standalone="no"?>
<svg width="84.3844mm" height="112.607mm"
 xmlns="http://www.w3.org/2000/svg" xmlns:xlink="http://www.w3.org/1999/xlink"  version="1.2" baseProfile="tiny">
<title>SVG Generator Example Drawing</title>
<desc>An SVG drawing created by the SVG Generator</desc>
<defs>
</defs>
<g fill="none" stroke="black" stroke-width="1" fill-rule="evenodd" stroke-linecap="square" stroke-linejoin="bevel" >

<g fill="none" stroke="#000000" stroke-opacity="1" stroke-width="1" stroke-linecap="square" stroke-linejoin="bevel" transform="matrix(1,0,0,-1,0,399.379)"
font-family="MS Shell Dlg 2" font-size="10.3125" font-weight="400" font-style="normal" 
>
</g>

<g fill="none" stroke="#000000" stroke-opacity="1" stroke-width="1" stroke-linecap="square" stroke-linejoin="bevel" transform="matrix(1,0,0,-1,0,399.379)"
font-family="MS Shell Dlg 2" font-size="10.3125" font-weight="400" font-style="normal" 
>
</g>

<g fill="none" stroke="#000000" stroke-opacity="1" stroke-width="1" stroke-linecap="square" stroke-linejoin="bevel" transform="matrix(0.99905,0,0,-0.99905,10006.8,7071.06)"
font-family="MS Shell Dlg 2" font-size="10.3125" font-weight="400" font-style="normal" 
>
</g>

<g fill="#333333" fill-opacity="0.2" stroke="#333333" stroke-opacity="1" stroke-width="1" stroke-linecap="round" stroke-linejoin="round" transform="matrix(0.99905,0,0,-0.99905,10006.8,7071.06)"
font-family="MS Shell Dlg 2" font-size="10.3125" font-weight="400" font-style="normal" 
>
<path vector-effect="non-scaling-stroke" fill-rule="evenodd" d="M-10015.8,6777.62 L-10015.8,6977.42 L-10008.3,7015.31 L-9986.91,7047.38 L-9954.92,7068.86 L-9917.06,7076.52 L-9817.26,7076.9 L-9779.17,7069.45 L-9746.93,7048.02 L-9725.37,7015.86 L-9717.78,6977.8 L-9717.78,6778 L-9725.3,6740.11 L-9746.66,6708.04 L-9778.64,6686.56 L-9816.51,6678.9 L-9916.31,6678.52 L-9954.4,6685.96 L-9986.64,6707.39 L-10008.2,6739.55 L-10015.8,6777.62"/>
</g>

<g fill="none" stroke="#000000" stroke-opacity="1" stroke-width="1" stroke-linecap="square" stroke-linejoin="bevel" transform="matrix(0.99905,0,0,-0.99905,10006.8,7071.06)"
font-family="MS Shell Dlg 2" font-size="10.3125" font-weight="400" font-style="normal" 
>
</g>

<g fill="none" stroke="#000000" stroke-opacity="1" stroke-width="1" stroke-linecap="square" stroke-linejoin="bevel" transform="matrix(0.99905,0,0,-0.99905,10006.8,7071.06)"
font-family="MS Shell Dlg 2" font-size="10.3125" font-weight="400" font-style="normal" 
>
</g>

<g fill="#ae5151" fill-opacity="0.2" stroke="#333333" stroke-opacity="1" stroke-width="1" stroke-linecap="round" stroke-linejoin="round" transform="matrix(0.99905,0,0,-0.99905,10006.8,7071.06)"
font-family="MS Shell Dlg 2" font-size="10.3125" font-weight="400" font-style="normal" 
>
<path vector-effect="non-scaling-stroke" fill-rule="evenodd" d="M-10015.8,6777.62 L-10015.8,6977.42 L-10008.3,7015.31 L-9986.91,7047.38 L-9954.92,7068.86 L-9917.06,7076.52 L-9817.26,7076.9 L-9779.17,7069.45 L-9746.93,7048.02 L-9725.37,7015.86 L-9717.78,6977.8 L-9717.78,6778 L-9725.3,6740.11 L-9746.66,6708.04 L-9778.64,6686.56 L-9816.51,6678.9 L-9916.31,6678.52 L-9954.4,6685.96 L-9986.64,6707.39 L-10008.2,6739.55 L-10015.8,6777.62"/>
</g>

<g fill="none" stroke="#000000" stroke-opacity="1" stroke-width="1" stroke-linecap="square" stroke-linejoin="bevel" transform="matrix(0.99905,0,0,-0.99905,10006.8,7071.06)"
font-family="MS Shell Dlg 2" font-size="10.3125" font-weight="400" font-style="normal" 
>
</g>

<g fill="none" stroke="#000000" stroke-opacity="1" stroke-width="1" stroke-linecap="square" stroke-linejoin="bevel" transform="matrix(0.99905,0,0,-0.99905,10006.8,7071.06)"
font-family="MS Shell Dlg 2" font-size="10.3125" font-weight="400" font-style="normal" 
>
</g>

<g fill="#ffff00" fill-opacity="0.2" stroke="#333333" stroke-opacity="1" stroke-width="1" stroke-linecap="round" stroke-linejoin="round" transform="matrix(0.99905,0,0,-0.99905,10006.8,7071.06)"
font-family="MS Shell Dlg 2" font-size="10.3125" font-weight="400" font-style="normal" 
>
<path vector-effect="non-scaling-stroke" fill-rule="evenodd" d="M-10015.8,6777.62 L-10015.8,6977.42 L-10008.3,7015.31 L-9986.91,7047.38 L-9954.92,7068.86 L-9917.06,7076.52 L-9817.26,7076.9 L-9779.17,7069.45 L-9746.93,7048.02 L-9725.37,7015.86 L-9717.78,6977.8 L-9717.78,6778 L-9725.3,6740.11 L-9746.66,6708.04 L-9778.64,6686.56 L-9816.51,6678.9 L-9916.31,6678.52 L-9954.4,6685.96 L-9986.64,6707.39 L-10008.2,6739.55 L-10015.8,6777.62"/>
</g>

<g fill="none" stroke="#000000" stroke-opacity="1" stroke-width="1" stroke-linecap="square" stroke-linejoin="bevel" transform="matrix(0.99905,0,0,-0.99905,10006.8,7071.06)"
font-family="MS Shell Dlg 2" font-size="10.3125" font-weight="400" font-style="normal" 
>
</g>

<g fill="none" stroke="#000000" stroke-opacity="1" stroke-width="1" stroke-linecap="square" stroke-linejoin="bevel" transform="matrix(0.99905,0,0,-0.99905,10006.8,7071.06)"
font-family="MS Shell Dlg 2" font-size="10.3125" font-weight="400" font-style="normal" 
>
</g>

<g fill="#ae5151" fill-opacity="0.2" stroke="#333333" stroke-opacity="1" stroke-width="1" stroke-linecap="round" stroke-linejoin="round" transform="matrix(0.99905,0,0,-0.99905,10006.8,7071.06)"
font-family="MS Shell Dlg 2" font-size="10.3125" font-weight="400" font-style="normal" 
>
<path vector-effect="non-scaling-stroke" fill-rule="evenodd" d="M-10015.8,6777.62 L-10015.8,6977.42 L-10008.3,7015.31 L-9986.91,7047.38 L-9954.92,7068.86 L-9917.06,7076.52 L-9817.26,7076.9 L-9779.17,7069.45 L-9746.93,7048.02 L-9725.37,7015.86 L-9717.78,6977.8 L-9717.78,6778 L-9725.3,6740.11 L-9746.66,6708.04 L-9778.64,6686.56 L-9816.51,6678.9 L-9916.31,6678.52 L-9954.4,6685.96 L-9986.64,6707.39 L-10008.2,6739.55 L-10015.8,6777.62"/>
</g>

<g fill="none" stroke="#000000" stroke-opacity="1" stroke-width="1" stroke-linecap="square" stroke-linejoin="bevel" transform="matrix(0.99905,0,0,-0.99905,10006.8,7071.06)"
font-family="MS Shell Dlg 2" font-size="10.3125" font-weight="400" font-style="normal" 
>
</g>

<g fill="none" stroke="#000000" stroke-opacity="1" stroke-width="1" stroke-linecap="square" stroke-linejoin="bevel" transform="matrix(0.99905,0,0,-0.99905,10006.8,7071.06)"
font-family="MS Shell Dlg 2" font-size="10.3125" font-weight="400" font-style="normal" 
>
</g>

<g fill="#333333" fill-opacity="0.2" stroke="#333333" stroke-opacity="1" stroke-width="1" stroke-linecap="round" stroke-linejoin="round" transform="matrix(0.99905,0,0,-0.99905,10006.8,7071.06)"
font-family="MS Shell Dlg 2" font-size="10.3125" font-weight="400" font-style="normal" 
>
<path vector-effect="non-scaling-stroke" fill-rule="evenodd" d="M-10015.8,6777.62 L-10015.8,6977.42 L-10008.3,7015.31 L-9986.91,7047.38 L-9954.92,7068.86 L-9917.06,7076.52 L-9817.26,7076.9 L-9779.17,7069.45 L-9746.93,7048.02 L-9725.37,7015.86 L-9717.78,6977.8 L-9717.78,6778 L-9725.3,6740.11 L-9746.66,6708.04 L-9778.64,6686.56 L-9816.51,6678.9 L-9916.31,6678.52 L-9954.4,6685.96 L-9986.64,6707.39 L-10008.2,6739.55 L-10015.8,6777.62"/>
</g>

<g fill="none" stroke="#000000" stroke-opacity="1" stroke-width="1" stroke-linecap="square" stroke-linejoin="bevel" transform="matrix(0.99905,0,0,-0.99905,10006.8,7071.06)"
font-family="MS Shell Dlg 2" font-size="10.3125" font-weight="400" font-style="normal" 
>
</g>

<g fill="none" stroke="#000000" stroke-opacity="1" stroke-width="1" stroke-linecap="square" stroke-linejoin="bevel" transform="matrix(1,0,0,-1,0,399.379)"
font-family="MS Shell Dlg 2" font-size="10.3125" font-weight="400" font-style="normal" 
>
</g>
</g>
</svg>
