<?xml version="1.0" encoding="UTF-8" standalone="no"?>
<svg width="733.496mm" height="103.293mm"
 xmlns="http://www.w3.org/2000/svg" xmlns:xlink="http://www.w3.org/1999/xlink"  version="1.2" baseProfile="tiny">
<title>SVG Generator Example Drawing</title>
<desc>An SVG drawing created by the SVG Generator</desc>
<defs>
</defs>
<g fill="none" stroke="black" stroke-width="1" fill-rule="evenodd" stroke-linecap="square" stroke-linejoin="bevel" >

<g fill="none" stroke="#000000" stroke-opacity="1" stroke-width="1" stroke-linecap="square" stroke-linejoin="bevel" transform="matrix(1,0,0,-1,0,366.353)"
font-family="MS Shell Dlg 2" font-size="10.3125" font-weight="400" font-style="normal" 
>
</g>

<g fill="none" stroke="#000000" stroke-opacity="1" stroke-width="1" stroke-linecap="square" stroke-linejoin="bevel" transform="matrix(1,0,0,-1,0,366.353)"
font-family="MS Shell Dlg 2" font-size="10.3125" font-weight="400" font-style="normal" 
>
</g>

<g fill="none" stroke="#000000" stroke-opacity="1" stroke-width="1" stroke-linecap="square" stroke-linejoin="bevel" transform="matrix(0.999037,0,0,-0.999037,10231.4,3344.84)"
font-family="MS Shell Dlg 2" font-size="10.3125" font-weight="400" font-style="normal" 
>
</g>

<g fill="#333333" fill-opacity="0.2" stroke="#333333" stroke-opacity="1" stroke-width="1" stroke-linecap="round" stroke-linejoin="round" transform="matrix(0.999037,0,0,-0.999037,10231.4,3344.84)"
font-family="MS Shell Dlg 2" font-size="10.3125" font-weight="400" font-style="normal" 
>
<path vector-effect="non-scaling-stroke" fill-rule="evenodd" d="M-10240.8,3347.21 L-7642.78,3347.21 L-7642.78,2981.86 L-7690.78,2982.46 L-7690.78,3148.1 L-7690.8,3148.29 L-7690.81,3148.34 L-7690.96,3148.7 L-7690.98,3148.73 L-7691.26,3149.01 L-7691.29,3149.03 L-7691.65,3149.18 L-7691.7,3149.19 L-7691.89,3149.21 L-10191.7,3149.21 L-10191.9,3149.19 L-10191.9,3149.18 L-10192.3,3149.03 L-10192.3,3149.01 L-10192.6,3148.73 L-10192.6,3148.7 L-10192.8,3148.34 L-10192.8,3148.29 L-10192.8,3148.1 L-10192.8,3013.73 L-10240.8,3014.33 L-10240.8,3347.21"/>
</g>

<g fill="none" stroke="#000000" stroke-opacity="1" stroke-width="1" stroke-linecap="square" stroke-linejoin="bevel" transform="matrix(0.999037,0,0,-0.999037,10231.4,3344.84)"
font-family="MS Shell Dlg 2" font-size="10.3125" font-weight="400" font-style="normal" 
>
</g>

<g fill="none" stroke="#000000" stroke-opacity="1" stroke-width="1" stroke-linecap="square" stroke-linejoin="bevel" transform="matrix(0.999037,0,0,-0.999037,10231.4,3344.84)"
font-family="MS Shell Dlg 2" font-size="10.3125" font-weight="400" font-style="normal" 
>
</g>

<g fill="#ae5151" fill-opacity="0.2" stroke="#333333" stroke-opacity="1" stroke-width="1" stroke-linecap="round" stroke-linejoin="round" transform="matrix(0.999037,0,0,-0.999037,10231.4,3344.84)"
font-family="MS Shell Dlg 2" font-size="10.3125" font-weight="400" font-style="normal" 
>
<path vector-effect="non-scaling-stroke" fill-rule="evenodd" d="M-10240.8,3347.21 L-7642.78,3347.21 L-7642.78,2981.86 L-7690.78,2982.46 L-7690.78,3148.1 L-7690.8,3148.29 L-7690.81,3148.34 L-7690.96,3148.7 L-7690.98,3148.73 L-7691.26,3149.01 L-7691.29,3149.03 L-7691.65,3149.18 L-7691.7,3149.19 L-7691.89,3149.21 L-10191.7,3149.21 L-10191.9,3149.19 L-10191.9,3149.18 L-10192.3,3149.03 L-10192.3,3149.01 L-10192.6,3148.73 L-10192.6,3148.7 L-10192.8,3148.34 L-10192.8,3148.29 L-10192.8,3148.1 L-10192.8,3013.73 L-10240.8,3014.33 L-10240.8,3347.21"/>
</g>

<g fill="none" stroke="#000000" stroke-opacity="1" stroke-width="1" stroke-linecap="square" stroke-linejoin="bevel" transform="matrix(0.999037,0,0,-0.999037,10231.4,3344.84)"
font-family="MS Shell Dlg 2" font-size="10.3125" font-weight="400" font-style="normal" 
>
</g>

<g fill="none" stroke="#000000" stroke-opacity="1" stroke-width="1" stroke-linecap="square" stroke-linejoin="bevel" transform="matrix(0.999037,0,0,-0.999037,10231.4,3344.84)"
font-family="MS Shell Dlg 2" font-size="10.3125" font-weight="400" font-style="normal" 
>
</g>

<g fill="#ffff00" fill-opacity="0.2" stroke="#333333" stroke-opacity="1" stroke-width="1" stroke-linecap="round" stroke-linejoin="round" transform="matrix(0.999037,0,0,-0.999037,10231.4,3344.84)"
font-family="MS Shell Dlg 2" font-size="10.3125" font-weight="400" font-style="normal" 
>
<path vector-effect="non-scaling-stroke" fill-rule="evenodd" d="M-10240.8,3347.21 L-7642.78,3347.21 L-7642.78,2981.86 L-7690.78,2982.46 L-7690.78,3148.1 L-7690.8,3148.29 L-7690.81,3148.34 L-7690.96,3148.7 L-7690.98,3148.73 L-7691.26,3149.01 L-7691.29,3149.03 L-7691.65,3149.18 L-7691.7,3149.19 L-7691.89,3149.21 L-10191.7,3149.21 L-10191.9,3149.19 L-10191.9,3149.18 L-10192.3,3149.03 L-10192.3,3149.01 L-10192.6,3148.73 L-10192.6,3148.7 L-10192.8,3148.34 L-10192.8,3148.29 L-10192.8,3148.1 L-10192.8,3013.73 L-10240.8,3014.33 L-10240.8,3347.21"/>
</g>

<g fill="none" stroke="#000000" stroke-opacity="1" stroke-width="1" stroke-linecap="square" stroke-linejoin="bevel" transform="matrix(0.999037,0,0,-0.999037,10231.4,3344.84)"
font-family="MS Shell Dlg 2" font-size="10.3125" font-weight="400" font-style="normal" 
>
</g>

<g fill="none" stroke="#000000" stroke-opacity="1" stroke-width="1" stroke-linecap="square" stroke-linejoin="bevel" transform="matrix(0.999037,0,0,-0.999037,10231.4,3344.84)"
font-family="MS Shell Dlg 2" font-size="10.3125" font-weight="400" font-style="normal" 
>
</g>

<g fill="#ae5151" fill-opacity="0.2" stroke="#333333" stroke-opacity="1" stroke-width="1" stroke-linecap="round" stroke-linejoin="round" transform="matrix(0.999037,0,0,-0.999037,10231.4,3344.84)"
font-family="MS Shell Dlg 2" font-size="10.3125" font-weight="400" font-style="normal" 
>
<path vector-effect="non-scaling-stroke" fill-rule="evenodd" d="M-10240.8,3347.21 L-7642.78,3347.21 L-7642.78,2981.86 L-7690.78,2982.46 L-7690.78,3148.1 L-7690.8,3148.29 L-7690.81,3148.34 L-7690.96,3148.7 L-7690.98,3148.73 L-7691.26,3149.01 L-7691.29,3149.03 L-7691.65,3149.18 L-7691.7,3149.19 L-7691.89,3149.21 L-10191.7,3149.21 L-10191.9,3149.19 L-10191.9,3149.18 L-10192.3,3149.03 L-10192.3,3149.01 L-10192.6,3148.73 L-10192.6,3148.7 L-10192.8,3148.34 L-10192.8,3148.29 L-10192.8,3148.1 L-10192.8,3013.73 L-10240.8,3014.33 L-10240.8,3347.21"/>
</g>

<g fill="none" stroke="#000000" stroke-opacity="1" stroke-width="1" stroke-linecap="square" stroke-linejoin="bevel" transform="matrix(0.999037,0,0,-0.999037,10231.4,3344.84)"
font-family="MS Shell Dlg 2" font-size="10.3125" font-weight="400" font-style="normal" 
>
</g>

<g fill="none" stroke="#000000" stroke-opacity="1" stroke-width="1" stroke-linecap="square" stroke-linejoin="bevel" transform="matrix(0.999037,0,0,-0.999037,10231.4,3344.84)"
font-family="MS Shell Dlg 2" font-size="10.3125" font-weight="400" font-style="normal" 
>
</g>

<g fill="#333333" fill-opacity="0.2" stroke="#333333" stroke-opacity="1" stroke-width="1" stroke-linecap="round" stroke-linejoin="round" transform="matrix(0.999037,0,0,-0.999037,10231.4,3344.84)"
font-family="MS Shell Dlg 2" font-size="10.3125" font-weight="400" font-style="normal" 
>
<path vector-effect="non-scaling-stroke" fill-rule="evenodd" d="M-10240.8,3347.21 L-7642.78,3347.21 L-7642.78,2981.86 L-7690.78,2982.46 L-7690.78,3148.1 L-7690.8,3148.29 L-7690.81,3148.34 L-7690.96,3148.7 L-7690.98,3148.73 L-7691.26,3149.01 L-7691.29,3149.03 L-7691.65,3149.18 L-7691.7,3149.19 L-7691.89,3149.21 L-10191.7,3149.21 L-10191.9,3149.19 L-10191.9,3149.18 L-10192.3,3149.03 L-10192.3,3149.01 L-10192.6,3148.73 L-10192.6,3148.7 L-10192.8,3148.34 L-10192.8,3148.29 L-10192.8,3148.1 L-10192.8,3013.73 L-10240.8,3014.33 L-10240.8,3347.21"/>
</g>

<g fill="none" stroke="#000000" stroke-opacity="1" stroke-width="1" stroke-linecap="square" stroke-linejoin="bevel" transform="matrix(0.999037,0,0,-0.999037,10231.4,3344.84)"
font-family="MS Shell Dlg 2" font-size="10.3125" font-weight="400" font-style="normal" 
>
</g>

<g fill="none" stroke="#000000" stroke-opacity="1" stroke-width="1" stroke-linecap="square" stroke-linejoin="bevel" transform="matrix(1,0,0,-1,0,366.353)"
font-family="MS Shell Dlg 2" font-size="10.3125" font-weight="400" font-style="normal" 
>
</g>
</g>
</svg>
