<?xml version="1.0" encoding="UTF-8" standalone="no"?>
<svg width="112.607mm" height="70.2733mm"
 xmlns="http://www.w3.org/2000/svg" xmlns:xlink="http://www.w3.org/1999/xlink"  version="1.2" baseProfile="tiny">
<title>SVG Generator Example Drawing</title>
<desc>An SVG drawing created by the SVG Generator</desc>
<defs>
</defs>
<g fill="none" stroke="black" stroke-width="1" fill-rule="evenodd" stroke-linecap="square" stroke-linejoin="bevel" >

<g fill="none" stroke="#000000" stroke-opacity="1" stroke-width="1" stroke-linecap="square" stroke-linejoin="bevel" transform="matrix(1,0,0,-1,0,249)"
font-family="MS Shell Dlg 2" font-size="10.3125" font-weight="400" font-style="normal" 
>
</g>

<g fill="none" stroke="#000000" stroke-opacity="1" stroke-width="1" stroke-linecap="square" stroke-linejoin="bevel" transform="matrix(1,0,0,-1,0,249)"
font-family="MS Shell Dlg 2" font-size="10.3125" font-weight="400" font-style="normal" 
>
</g>

<g fill="none" stroke="#000000" stroke-opacity="1" stroke-width="1" stroke-linecap="square" stroke-linejoin="bevel" transform="matrix(1,0,0,-1,10027.3,4752.71)"
font-family="MS Shell Dlg 2" font-size="10.3125" font-weight="400" font-style="normal" 
>
</g>

<g fill="#333333" fill-opacity="0.2" stroke="#333333" stroke-opacity="1" stroke-width="1" stroke-linecap="round" stroke-linejoin="round" transform="matrix(1,0,0,-1,10027.3,4752.71)"
font-family="MS Shell Dlg 2" font-size="10.3125" font-weight="400" font-style="normal" 
>
<path vector-effect="non-scaling-stroke" fill-rule="evenodd" d="M-10026.8,4603.31 L-10026.8,4653.11 L-10019.2,4691.09 L-9997.79,4723.2 L-9965.68,4744.65 L-9927.71,4752.21 L-9727.9,4752.21 L-9689.93,4744.65 L-9657.81,4723.2 L-9636.36,4691.09 L-9628.8,4653.11 L-9628.8,4603.31 L-9636.36,4565.33 L-9657.81,4533.22 L-9689.93,4511.76 L-9727.9,4504.21 L-9927.71,4504.21 L-9965.68,4511.76 L-9997.79,4533.22 L-10019.2,4565.33 L-10026.8,4603.31"/>
</g>

<g fill="none" stroke="#000000" stroke-opacity="1" stroke-width="1" stroke-linecap="square" stroke-linejoin="bevel" transform="matrix(1,0,0,-1,10027.3,4752.71)"
font-family="MS Shell Dlg 2" font-size="10.3125" font-weight="400" font-style="normal" 
>
</g>

<g fill="none" stroke="#000000" stroke-opacity="1" stroke-width="1" stroke-linecap="square" stroke-linejoin="bevel" transform="matrix(1,0,0,-1,10027.3,4752.71)"
font-family="MS Shell Dlg 2" font-size="10.3125" font-weight="400" font-style="normal" 
>
</g>

<g fill="#ae5151" fill-opacity="0.2" stroke="#333333" stroke-opacity="1" stroke-width="1" stroke-linecap="round" stroke-linejoin="round" transform="matrix(1,0,0,-1,10027.3,4752.71)"
font-family="MS Shell Dlg 2" font-size="10.3125" font-weight="400" font-style="normal" 
>
<path vector-effect="non-scaling-stroke" fill-rule="evenodd" d="M-10026.8,4603.31 L-10026.8,4653.11 L-10019.2,4691.09 L-9997.79,4723.2 L-9965.68,4744.65 L-9927.71,4752.21 L-9727.9,4752.21 L-9689.93,4744.65 L-9657.81,4723.2 L-9636.36,4691.09 L-9628.8,4653.11 L-9628.8,4603.31 L-9636.36,4565.33 L-9657.81,4533.22 L-9689.93,4511.76 L-9727.9,4504.21 L-9927.71,4504.21 L-9965.68,4511.76 L-9997.79,4533.22 L-10019.2,4565.33 L-10026.8,4603.31"/>
</g>

<g fill="none" stroke="#000000" stroke-opacity="1" stroke-width="1" stroke-linecap="square" stroke-linejoin="bevel" transform="matrix(1,0,0,-1,10027.3,4752.71)"
font-family="MS Shell Dlg 2" font-size="10.3125" font-weight="400" font-style="normal" 
>
</g>

<g fill="none" stroke="#000000" stroke-opacity="1" stroke-width="1" stroke-linecap="square" stroke-linejoin="bevel" transform="matrix(1,0,0,-1,10027.3,4752.71)"
font-family="MS Shell Dlg 2" font-size="10.3125" font-weight="400" font-style="normal" 
>
</g>

<g fill="#ffff00" fill-opacity="0.2" stroke="#333333" stroke-opacity="1" stroke-width="1" stroke-linecap="round" stroke-linejoin="round" transform="matrix(1,0,0,-1,10027.3,4752.71)"
font-family="MS Shell Dlg 2" font-size="10.3125" font-weight="400" font-style="normal" 
>
<path vector-effect="non-scaling-stroke" fill-rule="evenodd" d="M-10026.8,4603.31 L-10026.8,4653.11 L-10019.2,4691.09 L-9997.79,4723.2 L-9965.68,4744.65 L-9927.71,4752.21 L-9727.9,4752.21 L-9689.93,4744.65 L-9657.81,4723.2 L-9636.36,4691.09 L-9628.8,4653.11 L-9628.8,4603.31 L-9636.36,4565.33 L-9657.81,4533.22 L-9689.93,4511.76 L-9727.9,4504.21 L-9927.71,4504.21 L-9965.68,4511.76 L-9997.79,4533.22 L-10019.2,4565.33 L-10026.8,4603.31"/>
</g>

<g fill="none" stroke="#000000" stroke-opacity="1" stroke-width="1" stroke-linecap="square" stroke-linejoin="bevel" transform="matrix(1,0,0,-1,10027.3,4752.71)"
font-family="MS Shell Dlg 2" font-size="10.3125" font-weight="400" font-style="normal" 
>
</g>

<g fill="none" stroke="#000000" stroke-opacity="1" stroke-width="1" stroke-linecap="square" stroke-linejoin="bevel" transform="matrix(1,0,0,-1,10027.3,4752.71)"
font-family="MS Shell Dlg 2" font-size="10.3125" font-weight="400" font-style="normal" 
>
</g>

<g fill="#ae5151" fill-opacity="0.2" stroke="#333333" stroke-opacity="1" stroke-width="1" stroke-linecap="round" stroke-linejoin="round" transform="matrix(1,0,0,-1,10027.3,4752.71)"
font-family="MS Shell Dlg 2" font-size="10.3125" font-weight="400" font-style="normal" 
>
<path vector-effect="non-scaling-stroke" fill-rule="evenodd" d="M-10026.8,4603.31 L-10026.8,4653.11 L-10019.2,4691.09 L-9997.79,4723.2 L-9965.68,4744.65 L-9927.71,4752.21 L-9727.9,4752.21 L-9689.93,4744.65 L-9657.81,4723.2 L-9636.36,4691.09 L-9628.8,4653.11 L-9628.8,4603.31 L-9636.36,4565.33 L-9657.81,4533.22 L-9689.93,4511.76 L-9727.9,4504.21 L-9927.71,4504.21 L-9965.68,4511.76 L-9997.79,4533.22 L-10019.2,4565.33 L-10026.8,4603.31"/>
</g>

<g fill="none" stroke="#000000" stroke-opacity="1" stroke-width="1" stroke-linecap="square" stroke-linejoin="bevel" transform="matrix(1,0,0,-1,10027.3,4752.71)"
font-family="MS Shell Dlg 2" font-size="10.3125" font-weight="400" font-style="normal" 
>
</g>

<g fill="none" stroke="#000000" stroke-opacity="1" stroke-width="1" stroke-linecap="square" stroke-linejoin="bevel" transform="matrix(1,0,0,-1,10027.3,4752.71)"
font-family="MS Shell Dlg 2" font-size="10.3125" font-weight="400" font-style="normal" 
>
</g>

<g fill="#333333" fill-opacity="0.2" stroke="#333333" stroke-opacity="1" stroke-width="1" stroke-linecap="round" stroke-linejoin="round" transform="matrix(1,0,0,-1,10027.3,4752.71)"
font-family="MS Shell Dlg 2" font-size="10.3125" font-weight="400" font-style="normal" 
>
<path vector-effect="non-scaling-stroke" fill-rule="evenodd" d="M-10026.8,4603.31 L-10026.8,4653.11 L-10019.2,4691.09 L-9997.79,4723.2 L-9965.68,4744.65 L-9927.71,4752.21 L-9727.9,4752.21 L-9689.93,4744.65 L-9657.81,4723.2 L-9636.36,4691.09 L-9628.8,4653.11 L-9628.8,4603.31 L-9636.36,4565.33 L-9657.81,4533.22 L-9689.93,4511.76 L-9727.9,4504.21 L-9927.71,4504.21 L-9965.68,4511.76 L-9997.79,4533.22 L-10019.2,4565.33 L-10026.8,4603.31"/>
</g>

<g fill="none" stroke="#000000" stroke-opacity="1" stroke-width="1" stroke-linecap="square" stroke-linejoin="bevel" transform="matrix(1,0,0,-1,10027.3,4752.71)"
font-family="MS Shell Dlg 2" font-size="10.3125" font-weight="400" font-style="normal" 
>
</g>

<g fill="none" stroke="#000000" stroke-opacity="1" stroke-width="1" stroke-linecap="square" stroke-linejoin="bevel" transform="matrix(1,0,0,-1,0,249)"
font-family="MS Shell Dlg 2" font-size="10.3125" font-weight="400" font-style="normal" 
>
</g>
</g>
</svg>
