<?xml version="1.0" encoding="UTF-8" standalone="no"?>
<svg width="84.3844mm" height="112.607mm"
 xmlns="http://www.w3.org/2000/svg" xmlns:xlink="http://www.w3.org/1999/xlink"  version="1.2" baseProfile="tiny">
<title>SVG Generator Example Drawing</title>
<desc>An SVG drawing created by the SVG Generator</desc>
<defs>
</defs>
<g fill="none" stroke="black" stroke-width="1" fill-rule="evenodd" stroke-linecap="square" stroke-linejoin="bevel" >

<g fill="none" stroke="#000000" stroke-opacity="1" stroke-width="1" stroke-linecap="square" stroke-linejoin="bevel" transform="matrix(1,0,0,-1,0,399.379)"
font-family="MS Shell Dlg 2" font-size="10.3125" font-weight="400" font-style="normal" 
>
</g>

<g fill="none" stroke="#000000" stroke-opacity="1" stroke-width="1" stroke-linecap="square" stroke-linejoin="bevel" transform="matrix(1,0,0,-1,0,399.379)"
font-family="MS Shell Dlg 2" font-size="10.3125" font-weight="400" font-style="normal" 
>
</g>

<g fill="none" stroke="#000000" stroke-opacity="1" stroke-width="1" stroke-linecap="square" stroke-linejoin="bevel" transform="matrix(0.99905,0,0,-0.99905,7053.21,7082.28)"
font-family="MS Shell Dlg 2" font-size="10.3125" font-weight="400" font-style="normal" 
>
</g>

<g fill="#333333" fill-opacity="0.2" stroke="#333333" stroke-opacity="1" stroke-width="1" stroke-linecap="round" stroke-linejoin="round" transform="matrix(0.99905,0,0,-0.99905,7053.21,7082.28)"
font-family="MS Shell Dlg 2" font-size="10.3125" font-weight="400" font-style="normal" 
>
<path vector-effect="non-scaling-stroke" fill-rule="evenodd" d="M-7059.41,6788.85 L-7059.41,6988.66 L-7051.89,7026.54 L-7030.54,7058.61 L-6998.55,7080.09 L-6960.69,7087.75 L-6860.89,7088.13 L-6822.8,7080.69 L-6790.56,7059.26 L-6769,7027.1 L-6761.41,6989.03 L-6761.41,6789.23 L-6768.93,6751.34 L-6790.29,6719.28 L-6822.27,6697.79 L-6860.13,6690.13 L-6959.94,6689.75 L-6998.03,6697.2 L-7030.27,6718.63 L-7051.82,6750.79 L-7059.41,6788.85"/>
</g>

<g fill="none" stroke="#000000" stroke-opacity="1" stroke-width="1" stroke-linecap="square" stroke-linejoin="bevel" transform="matrix(0.99905,0,0,-0.99905,7053.21,7082.28)"
font-family="MS Shell Dlg 2" font-size="10.3125" font-weight="400" font-style="normal" 
>
</g>

<g fill="none" stroke="#000000" stroke-opacity="1" stroke-width="1" stroke-linecap="square" stroke-linejoin="bevel" transform="matrix(0.99905,0,0,-0.99905,7053.21,7082.28)"
font-family="MS Shell Dlg 2" font-size="10.3125" font-weight="400" font-style="normal" 
>
</g>

<g fill="#ae5151" fill-opacity="0.2" stroke="#333333" stroke-opacity="1" stroke-width="1" stroke-linecap="round" stroke-linejoin="round" transform="matrix(0.99905,0,0,-0.99905,7053.21,7082.28)"
font-family="MS Shell Dlg 2" font-size="10.3125" font-weight="400" font-style="normal" 
>
<path vector-effect="non-scaling-stroke" fill-rule="evenodd" d="M-7059.41,6788.85 L-7059.41,6988.66 L-7051.89,7026.54 L-7030.54,7058.61 L-6998.55,7080.09 L-6960.69,7087.75 L-6860.89,7088.13 L-6822.8,7080.69 L-6790.56,7059.26 L-6769,7027.1 L-6761.41,6989.03 L-6761.41,6789.23 L-6768.93,6751.34 L-6790.29,6719.28 L-6822.27,6697.79 L-6860.13,6690.13 L-6959.94,6689.75 L-6998.03,6697.2 L-7030.27,6718.63 L-7051.82,6750.79 L-7059.41,6788.85"/>
</g>

<g fill="none" stroke="#000000" stroke-opacity="1" stroke-width="1" stroke-linecap="square" stroke-linejoin="bevel" transform="matrix(0.99905,0,0,-0.99905,7053.21,7082.28)"
font-family="MS Shell Dlg 2" font-size="10.3125" font-weight="400" font-style="normal" 
>
</g>

<g fill="none" stroke="#000000" stroke-opacity="1" stroke-width="1" stroke-linecap="square" stroke-linejoin="bevel" transform="matrix(0.99905,0,0,-0.99905,7053.21,7082.28)"
font-family="MS Shell Dlg 2" font-size="10.3125" font-weight="400" font-style="normal" 
>
</g>

<g fill="#ffff00" fill-opacity="0.2" stroke="#333333" stroke-opacity="1" stroke-width="1" stroke-linecap="round" stroke-linejoin="round" transform="matrix(0.99905,0,0,-0.99905,7053.21,7082.28)"
font-family="MS Shell Dlg 2" font-size="10.3125" font-weight="400" font-style="normal" 
>
<path vector-effect="non-scaling-stroke" fill-rule="evenodd" d="M-7059.41,6788.85 L-7059.41,6988.66 L-7051.89,7026.54 L-7030.54,7058.61 L-6998.55,7080.09 L-6960.69,7087.75 L-6860.89,7088.13 L-6822.8,7080.69 L-6790.56,7059.26 L-6769,7027.1 L-6761.41,6989.03 L-6761.41,6789.23 L-6768.93,6751.34 L-6790.29,6719.28 L-6822.27,6697.79 L-6860.13,6690.13 L-6959.94,6689.75 L-6998.03,6697.2 L-7030.27,6718.63 L-7051.82,6750.79 L-7059.41,6788.85"/>
</g>

<g fill="none" stroke="#000000" stroke-opacity="1" stroke-width="1" stroke-linecap="square" stroke-linejoin="bevel" transform="matrix(0.99905,0,0,-0.99905,7053.21,7082.28)"
font-family="MS Shell Dlg 2" font-size="10.3125" font-weight="400" font-style="normal" 
>
</g>

<g fill="none" stroke="#000000" stroke-opacity="1" stroke-width="1" stroke-linecap="square" stroke-linejoin="bevel" transform="matrix(0.99905,0,0,-0.99905,7053.21,7082.28)"
font-family="MS Shell Dlg 2" font-size="10.3125" font-weight="400" font-style="normal" 
>
</g>

<g fill="#ae5151" fill-opacity="0.2" stroke="#333333" stroke-opacity="1" stroke-width="1" stroke-linecap="round" stroke-linejoin="round" transform="matrix(0.99905,0,0,-0.99905,7053.21,7082.28)"
font-family="MS Shell Dlg 2" font-size="10.3125" font-weight="400" font-style="normal" 
>
<path vector-effect="non-scaling-stroke" fill-rule="evenodd" d="M-7059.41,6788.85 L-7059.41,6988.66 L-7051.89,7026.54 L-7030.54,7058.61 L-6998.55,7080.09 L-6960.69,7087.75 L-6860.89,7088.13 L-6822.8,7080.69 L-6790.56,7059.26 L-6769,7027.1 L-6761.41,6989.03 L-6761.41,6789.23 L-6768.93,6751.34 L-6790.29,6719.28 L-6822.27,6697.79 L-6860.13,6690.13 L-6959.94,6689.75 L-6998.03,6697.2 L-7030.27,6718.63 L-7051.82,6750.79 L-7059.41,6788.85"/>
</g>

<g fill="none" stroke="#000000" stroke-opacity="1" stroke-width="1" stroke-linecap="square" stroke-linejoin="bevel" transform="matrix(0.99905,0,0,-0.99905,7053.21,7082.28)"
font-family="MS Shell Dlg 2" font-size="10.3125" font-weight="400" font-style="normal" 
>
</g>

<g fill="none" stroke="#000000" stroke-opacity="1" stroke-width="1" stroke-linecap="square" stroke-linejoin="bevel" transform="matrix(0.99905,0,0,-0.99905,7053.21,7082.28)"
font-family="MS Shell Dlg 2" font-size="10.3125" font-weight="400" font-style="normal" 
>
</g>

<g fill="#333333" fill-opacity="0.2" stroke="#333333" stroke-opacity="1" stroke-width="1" stroke-linecap="round" stroke-linejoin="round" transform="matrix(0.99905,0,0,-0.99905,7053.21,7082.28)"
font-family="MS Shell Dlg 2" font-size="10.3125" font-weight="400" font-style="normal" 
>
<path vector-effect="non-scaling-stroke" fill-rule="evenodd" d="M-7059.41,6788.85 L-7059.41,6988.66 L-7051.89,7026.54 L-7030.54,7058.61 L-6998.55,7080.09 L-6960.69,7087.75 L-6860.89,7088.13 L-6822.8,7080.69 L-6790.56,7059.26 L-6769,7027.1 L-6761.41,6989.03 L-6761.41,6789.23 L-6768.93,6751.34 L-6790.29,6719.28 L-6822.27,6697.79 L-6860.13,6690.13 L-6959.94,6689.75 L-6998.03,6697.2 L-7030.27,6718.63 L-7051.82,6750.79 L-7059.41,6788.85"/>
</g>

<g fill="none" stroke="#000000" stroke-opacity="1" stroke-width="1" stroke-linecap="square" stroke-linejoin="bevel" transform="matrix(0.99905,0,0,-0.99905,7053.21,7082.28)"
font-family="MS Shell Dlg 2" font-size="10.3125" font-weight="400" font-style="normal" 
>
</g>

<g fill="none" stroke="#000000" stroke-opacity="1" stroke-width="1" stroke-linecap="square" stroke-linejoin="bevel" transform="matrix(1,0,0,-1,0,399.379)"
font-family="MS Shell Dlg 2" font-size="10.3125" font-weight="400" font-style="normal" 
>
</g>
</g>
</svg>
