<?xml version="1.0" encoding="UTF-8" standalone="no"?>
<svg width="1847.71mm" height="1457.4mm"
 xmlns="http://www.w3.org/2000/svg" xmlns:xlink="http://www.w3.org/1999/xlink"  version="1.2" baseProfile="tiny">
<title>SVG Generator Example Drawing</title>
<desc>An SVG drawing created by the SVG Generator</desc>
<defs>
</defs>
<g fill="none" stroke="black" stroke-width="1" fill-rule="evenodd" stroke-linecap="square" stroke-linejoin="bevel" >

<g fill="none" stroke="#000000" stroke-opacity="1" stroke-width="1" stroke-linecap="square" stroke-linejoin="bevel" transform="matrix(1,0,0,-1,0,5164.06)"
font-family="MS Shell Dlg 2" font-size="10.3125" font-weight="400" font-style="normal" 
>
</g>

<g fill="none" stroke="#000000" stroke-opacity="1" stroke-width="1" stroke-linecap="square" stroke-linejoin="bevel" transform="matrix(1,0,0,-1,0,5164.06)"
font-family="MS Shell Dlg 2" font-size="10.3125" font-weight="400" font-style="normal" 
>
</g>

<g fill="none" stroke="#000000" stroke-opacity="1" stroke-width="1" stroke-linecap="square" stroke-linejoin="bevel" transform="matrix(0.999904,0,0,-0.999904,7299.71,10284.1)"
font-family="MS Shell Dlg 2" font-size="10.3125" font-weight="400" font-style="normal" 
>
</g>

<g fill="#333333" fill-opacity="0.2" stroke="#333333" stroke-opacity="1" stroke-width="1" stroke-linecap="round" stroke-linejoin="round" transform="matrix(0.999904,0,0,-0.999904,7299.71,10284.1)"
font-family="MS Shell Dlg 2" font-size="10.3125" font-weight="400" font-style="normal" 
>
<path vector-effect="non-scaling-stroke" fill-rule="evenodd" d="M-7299.91,8567.6 L-7276.07,10284.1 L-753.28,10284.1 L-845.33,5129.33 L-4435.62,5121.04 L-4435.62,7318.64 L-4435.62,7318.73 L-4435.63,7318.76 L-4435.64,7318.85 L-4435.7,7319.18 L-4435.75,7319.36 L-4435.77,7319.41 L-4435.86,7319.57 L-4436.03,7319.85 L-4436.08,7319.93 L-4436.1,7319.95 L-4436.16,7320.02 L-5587.09,8566.95 L-5587.16,8567.02 L-5587.18,8567.04 L-5587.27,8567.1 L-5587.56,8567.32 L-5587.74,8567.42 L-5587.8,8567.44 L-5587.99,8567.5 L-5588.35,8567.58 L-5588.45,8567.59 L-5588.48,8567.6 L-5588.58,8567.6 L-7299.91,8567.6 M-3618.71,6546.19 L-3618.71,6546.09 L-3618.78,6046.12 L-3618.77,6046.02 L-3618.77,6045.99 L-3618.76,6045.9 L-3618.69,6045.56 L-3618.63,6045.37 L-3618.61,6045.31 L-3618.52,6045.14 L-3618.33,6044.87 L-3618.21,6044.72 L-3618.17,6044.67 L-3618.02,6044.55 L-3617.74,6044.37 L-3617.57,6044.27 L-3617.51,6044.25 L-3617.33,6044.19 L-3616.99,6044.13 L-3616.89,6044.11 L-3616.86,6044.11 L-3616.76,6044.1 L-3067.71,6044.1 L-3047.71,6039.88 L-3031.29,6028.05 L-3020.95,6010.4 L-3001.75,5952.78 L-2999.29,5934.33 L-3003.77,5916.46 L-3014.54,5901.51 L-3017.85,5899.41 L-3017.92,5899.36 L-3017.94,5899.34 L-3018,5899.29 L-3018.22,5899.09 L-3018.33,5898.97 L-3018.36,5898.93 L-3018.46,5898.79 L-3018.59,5898.54 L-3018.66,5898.39 L-3018.68,5898.34 L-3018.72,5898.18 L-3018.77,5897.89 L-3018.78,5897.81 L-3018.78,5897.78 L-3018.78,5897.7 L-3018.78,5846.12 L-3018.78,5846.02 L-3018.78,5845.99 L-3018.76,5845.9 L-3018.69,5845.56 L-3018.64,5845.37 L-3018.61,5845.31 L-3018.52,5845.14 L-3018.34,5844.87 L-3018.21,5844.72 L-3018.17,5844.67 L-3018.02,5844.55 L-3017.75,5844.37 L-3017.57,5844.27 L-3017.52,5844.25 L-3017.33,5844.19 L-3016.99,5844.13 L-3016.9,5844.11 L-3016.87,5844.11 L-3016.77,5844.1 L-2116.8,5844.1 L-2116.7,5844.11 L-2116.67,5844.11 L-2116.57,5844.13 L-2116.23,5844.19 L-2116.05,5844.25 L-2115.99,5844.27 L-2115.82,5844.37 L-2115.55,5844.55 L-2115.39,5844.67 L-2115.35,5844.72 L-2115.23,5844.87 L-2115.04,5845.14 L-2114.95,5845.31 L-2114.93,5845.37 L-2114.87,5845.56 L-2114.81,5845.9 L-2114.79,5845.99 L-2114.79,5846.02 L-2114.78,5846.12 L-2114.78,5897.7 L-2114.79,5897.78 L-2114.79,5897.81 L-2114.8,5897.89 L-2114.85,5898.18 L-2114.89,5898.34 L-2114.91,5898.39 L-2114.97,5898.54 L-2115.11,5898.79 L-2115.2,5898.93 L-2115.23,5898.97 L-2115.35,5899.09 L-2115.57,5899.29 L-2115.63,5899.34 L-2115.65,5899.36 L-2115.72,5899.41 L-2119.02,5901.51 L-2129.79,5916.46 L-2134.28,5934.33 L-2131.82,5952.78 L-2112.61,6010.4 L-2102.28,6028.05 L-2085.86,6039.88 L-2065.85,6044.1 L-1516.8,6044.1 L-1516.7,6044.11 L-1516.67,6044.11 L-1516.57,6044.13 L-1516.23,6044.19 L-1516.05,6044.25 L-1515.99,6044.27 L-1515.82,6044.37 L-1515.55,6044.55 L-1515.39,6044.67 L-1515.35,6044.72 L-1515.23,6044.87 L-1515.04,6045.14 L-1514.95,6045.31 L-1514.93,6045.37 L-1514.87,6045.56 L-1514.81,6045.9 L-1514.79,6045.99 L-1514.79,6046.02 L-1514.78,6046.12 L-1514.78,6546.09 L-1514.79,6546.19 L-1514.79,6546.22 L-1514.81,6546.31 L-1514.87,6546.65 L-1514.93,6546.84 L-1514.95,6546.89 L-1515.04,6547.07 L-1515.23,6547.34 L-1515.35,6547.49 L-1515.39,6547.54 L-1515.55,6547.66 L-1515.82,6547.84 L-1515.99,6547.94 L-1516.05,6547.96 L-1516.23,6548.02 L-1516.57,6548.08 L-1516.67,6548.1 L-1516.7,6548.1 L-1516.8,6548.1 L-3616.7,6548.1 L-3616.8,6548.1 L-3616.83,6548.1 L-3616.92,6548.08 L-3617.26,6548.02 L-3617.45,6547.96 L-3617.5,6547.94 L-3617.68,6547.84 L-3617.95,6547.66 L-3618.1,6547.54 L-3618.14,6547.49 L-3618.27,6547.34 L-3618.45,6547.07 L-3618.54,6546.89 L-3618.57,6546.84 L-3618.62,6546.65 L-3618.69,6546.31 L-3618.71,6546.22 L-3618.71,6546.19"/>
</g>

<g fill="none" stroke="#000000" stroke-opacity="1" stroke-width="1" stroke-linecap="square" stroke-linejoin="bevel" transform="matrix(0.999904,0,0,-0.999904,7299.71,10284.1)"
font-family="MS Shell Dlg 2" font-size="10.3125" font-weight="400" font-style="normal" 
>
</g>

<g fill="none" stroke="#000000" stroke-opacity="1" stroke-width="1" stroke-linecap="square" stroke-linejoin="bevel" transform="matrix(0.999904,0,0,-0.999904,7299.71,10284.1)"
font-family="MS Shell Dlg 2" font-size="10.3125" font-weight="400" font-style="normal" 
>
</g>

<g fill="#ae5151" fill-opacity="0.2" stroke="#333333" stroke-opacity="1" stroke-width="1" stroke-linecap="round" stroke-linejoin="round" transform="matrix(0.999904,0,0,-0.999904,7299.71,10284.1)"
font-family="MS Shell Dlg 2" font-size="10.3125" font-weight="400" font-style="normal" 
>
<path vector-effect="non-scaling-stroke" fill-rule="evenodd" d="M-7299.91,8567.6 L-7276.07,10284.1 L-753.28,10284.1 L-845.33,5129.33 L-4435.62,5121.04 L-4435.62,7318.64 L-4435.62,7318.73 L-4435.63,7318.76 L-4435.64,7318.85 L-4435.7,7319.18 L-4435.75,7319.36 L-4435.77,7319.41 L-4435.86,7319.57 L-4436.03,7319.85 L-4436.08,7319.93 L-4436.1,7319.95 L-4436.16,7320.02 L-5587.09,8566.95 L-5587.16,8567.02 L-5587.18,8567.04 L-5587.27,8567.1 L-5587.56,8567.32 L-5587.74,8567.42 L-5587.8,8567.44 L-5587.99,8567.5 L-5588.35,8567.58 L-5588.45,8567.59 L-5588.48,8567.6 L-5588.58,8567.6 L-7299.91,8567.6 M-3618.71,6546.19 L-3618.71,6546.09 L-3618.78,6046.12 L-3618.77,6046.02 L-3618.77,6045.99 L-3618.76,6045.9 L-3618.69,6045.56 L-3618.63,6045.37 L-3618.61,6045.31 L-3618.52,6045.14 L-3618.33,6044.87 L-3618.21,6044.72 L-3618.17,6044.67 L-3618.02,6044.55 L-3617.74,6044.37 L-3617.57,6044.27 L-3617.51,6044.25 L-3617.33,6044.19 L-3616.99,6044.13 L-3616.89,6044.11 L-3616.86,6044.11 L-3616.76,6044.1 L-3067.71,6044.1 L-3047.71,6039.88 L-3031.29,6028.05 L-3020.95,6010.4 L-3001.75,5952.78 L-2999.29,5934.33 L-3003.77,5916.46 L-3014.54,5901.51 L-3017.85,5899.41 L-3017.92,5899.36 L-3017.94,5899.34 L-3018,5899.29 L-3018.22,5899.09 L-3018.33,5898.97 L-3018.36,5898.93 L-3018.46,5898.79 L-3018.59,5898.54 L-3018.66,5898.39 L-3018.68,5898.34 L-3018.72,5898.18 L-3018.77,5897.89 L-3018.78,5897.81 L-3018.78,5897.78 L-3018.78,5897.7 L-3018.78,5846.12 L-3018.78,5846.02 L-3018.78,5845.99 L-3018.76,5845.9 L-3018.69,5845.56 L-3018.64,5845.37 L-3018.61,5845.31 L-3018.52,5845.14 L-3018.34,5844.87 L-3018.21,5844.72 L-3018.17,5844.67 L-3018.02,5844.55 L-3017.75,5844.37 L-3017.57,5844.27 L-3017.52,5844.25 L-3017.33,5844.19 L-3016.99,5844.13 L-3016.9,5844.11 L-3016.87,5844.11 L-3016.77,5844.1 L-2116.8,5844.1 L-2116.7,5844.11 L-2116.67,5844.11 L-2116.57,5844.13 L-2116.23,5844.19 L-2116.05,5844.25 L-2115.99,5844.27 L-2115.82,5844.37 L-2115.55,5844.55 L-2115.39,5844.67 L-2115.35,5844.72 L-2115.23,5844.87 L-2115.04,5845.14 L-2114.95,5845.31 L-2114.93,5845.37 L-2114.87,5845.56 L-2114.81,5845.9 L-2114.79,5845.99 L-2114.79,5846.02 L-2114.78,5846.12 L-2114.78,5897.7 L-2114.79,5897.78 L-2114.79,5897.81 L-2114.8,5897.89 L-2114.85,5898.18 L-2114.89,5898.34 L-2114.91,5898.39 L-2114.97,5898.54 L-2115.11,5898.79 L-2115.2,5898.93 L-2115.23,5898.97 L-2115.35,5899.09 L-2115.57,5899.29 L-2115.63,5899.34 L-2115.65,5899.36 L-2115.72,5899.41 L-2119.02,5901.51 L-2129.79,5916.46 L-2134.28,5934.33 L-2131.82,5952.78 L-2112.61,6010.4 L-2102.28,6028.05 L-2085.86,6039.88 L-2065.85,6044.1 L-1516.8,6044.1 L-1516.7,6044.11 L-1516.67,6044.11 L-1516.57,6044.13 L-1516.23,6044.19 L-1516.05,6044.25 L-1515.99,6044.27 L-1515.82,6044.37 L-1515.55,6044.55 L-1515.39,6044.67 L-1515.35,6044.72 L-1515.23,6044.87 L-1515.04,6045.14 L-1514.95,6045.31 L-1514.93,6045.37 L-1514.87,6045.56 L-1514.81,6045.9 L-1514.79,6045.99 L-1514.79,6046.02 L-1514.78,6046.12 L-1514.78,6546.09 L-1514.79,6546.19 L-1514.79,6546.22 L-1514.81,6546.31 L-1514.87,6546.65 L-1514.93,6546.84 L-1514.95,6546.89 L-1515.04,6547.07 L-1515.23,6547.34 L-1515.35,6547.49 L-1515.39,6547.54 L-1515.55,6547.66 L-1515.82,6547.84 L-1515.99,6547.94 L-1516.05,6547.96 L-1516.23,6548.02 L-1516.57,6548.08 L-1516.67,6548.1 L-1516.7,6548.1 L-1516.8,6548.1 L-3616.7,6548.1 L-3616.8,6548.1 L-3616.83,6548.1 L-3616.92,6548.08 L-3617.26,6548.02 L-3617.45,6547.96 L-3617.5,6547.94 L-3617.68,6547.84 L-3617.95,6547.66 L-3618.1,6547.54 L-3618.14,6547.49 L-3618.27,6547.34 L-3618.45,6547.07 L-3618.54,6546.89 L-3618.57,6546.84 L-3618.62,6546.65 L-3618.69,6546.31 L-3618.71,6546.22 L-3618.71,6546.19"/>
</g>

<g fill="none" stroke="#000000" stroke-opacity="1" stroke-width="1" stroke-linecap="square" stroke-linejoin="bevel" transform="matrix(0.999904,0,0,-0.999904,7299.71,10284.1)"
font-family="MS Shell Dlg 2" font-size="10.3125" font-weight="400" font-style="normal" 
>
</g>

<g fill="none" stroke="#000000" stroke-opacity="1" stroke-width="1" stroke-linecap="square" stroke-linejoin="bevel" transform="matrix(0.999904,0,0,-0.999904,7299.71,10284.1)"
font-family="MS Shell Dlg 2" font-size="10.3125" font-weight="400" font-style="normal" 
>
</g>

<g fill="#ffff00" fill-opacity="0.2" stroke="#333333" stroke-opacity="1" stroke-width="1" stroke-linecap="round" stroke-linejoin="round" transform="matrix(0.999904,0,0,-0.999904,7299.71,10284.1)"
font-family="MS Shell Dlg 2" font-size="10.3125" font-weight="400" font-style="normal" 
>
<path vector-effect="non-scaling-stroke" fill-rule="evenodd" d="M-7299.91,8567.6 L-7276.07,10284.1 L-753.28,10284.1 L-845.33,5129.33 L-4435.62,5121.04 L-4435.62,7318.64 L-4435.62,7318.73 L-4435.63,7318.76 L-4435.64,7318.85 L-4435.7,7319.18 L-4435.75,7319.36 L-4435.77,7319.41 L-4435.86,7319.57 L-4436.03,7319.85 L-4436.08,7319.93 L-4436.1,7319.95 L-4436.16,7320.02 L-5587.09,8566.95 L-5587.16,8567.02 L-5587.18,8567.04 L-5587.27,8567.1 L-5587.56,8567.32 L-5587.74,8567.42 L-5587.8,8567.44 L-5587.99,8567.5 L-5588.35,8567.58 L-5588.45,8567.59 L-5588.48,8567.6 L-5588.58,8567.6 L-7299.91,8567.6 M-3618.71,6546.19 L-3618.71,6546.09 L-3618.78,6046.12 L-3618.77,6046.02 L-3618.77,6045.99 L-3618.76,6045.9 L-3618.69,6045.56 L-3618.63,6045.37 L-3618.61,6045.31 L-3618.52,6045.14 L-3618.33,6044.87 L-3618.21,6044.72 L-3618.17,6044.67 L-3618.02,6044.55 L-3617.74,6044.37 L-3617.57,6044.27 L-3617.51,6044.25 L-3617.33,6044.19 L-3616.99,6044.13 L-3616.89,6044.11 L-3616.86,6044.11 L-3616.76,6044.1 L-3067.71,6044.1 L-3047.71,6039.88 L-3031.29,6028.05 L-3020.95,6010.4 L-3001.75,5952.78 L-2999.29,5934.33 L-3003.77,5916.46 L-3014.54,5901.51 L-3017.85,5899.41 L-3017.92,5899.36 L-3017.94,5899.34 L-3018,5899.29 L-3018.22,5899.09 L-3018.33,5898.97 L-3018.36,5898.93 L-3018.46,5898.79 L-3018.59,5898.54 L-3018.66,5898.39 L-3018.68,5898.34 L-3018.72,5898.18 L-3018.77,5897.89 L-3018.78,5897.81 L-3018.78,5897.78 L-3018.78,5897.7 L-3018.78,5846.12 L-3018.78,5846.02 L-3018.78,5845.99 L-3018.76,5845.9 L-3018.69,5845.56 L-3018.64,5845.37 L-3018.61,5845.31 L-3018.52,5845.14 L-3018.34,5844.87 L-3018.21,5844.72 L-3018.17,5844.67 L-3018.02,5844.55 L-3017.75,5844.37 L-3017.57,5844.27 L-3017.52,5844.25 L-3017.33,5844.19 L-3016.99,5844.13 L-3016.9,5844.11 L-3016.87,5844.11 L-3016.77,5844.1 L-2116.8,5844.1 L-2116.7,5844.11 L-2116.67,5844.11 L-2116.57,5844.13 L-2116.23,5844.19 L-2116.05,5844.25 L-2115.99,5844.27 L-2115.82,5844.37 L-2115.55,5844.55 L-2115.39,5844.67 L-2115.35,5844.72 L-2115.23,5844.87 L-2115.04,5845.14 L-2114.95,5845.31 L-2114.93,5845.37 L-2114.87,5845.56 L-2114.81,5845.9 L-2114.79,5845.99 L-2114.79,5846.02 L-2114.78,5846.12 L-2114.78,5897.7 L-2114.79,5897.78 L-2114.79,5897.81 L-2114.8,5897.89 L-2114.85,5898.18 L-2114.89,5898.34 L-2114.91,5898.39 L-2114.97,5898.54 L-2115.11,5898.79 L-2115.2,5898.93 L-2115.23,5898.97 L-2115.35,5899.09 L-2115.57,5899.29 L-2115.63,5899.34 L-2115.65,5899.36 L-2115.72,5899.41 L-2119.02,5901.51 L-2129.79,5916.46 L-2134.28,5934.33 L-2131.82,5952.78 L-2112.61,6010.4 L-2102.28,6028.05 L-2085.86,6039.88 L-2065.85,6044.1 L-1516.8,6044.1 L-1516.7,6044.11 L-1516.67,6044.11 L-1516.57,6044.13 L-1516.23,6044.19 L-1516.05,6044.25 L-1515.99,6044.27 L-1515.82,6044.37 L-1515.55,6044.55 L-1515.39,6044.67 L-1515.35,6044.72 L-1515.23,6044.87 L-1515.04,6045.14 L-1514.95,6045.31 L-1514.93,6045.37 L-1514.87,6045.56 L-1514.81,6045.9 L-1514.79,6045.99 L-1514.79,6046.02 L-1514.78,6046.12 L-1514.78,6546.09 L-1514.79,6546.19 L-1514.79,6546.22 L-1514.81,6546.31 L-1514.87,6546.65 L-1514.93,6546.84 L-1514.95,6546.89 L-1515.04,6547.07 L-1515.23,6547.34 L-1515.35,6547.49 L-1515.39,6547.54 L-1515.55,6547.66 L-1515.82,6547.84 L-1515.99,6547.94 L-1516.05,6547.96 L-1516.23,6548.02 L-1516.57,6548.08 L-1516.67,6548.1 L-1516.7,6548.1 L-1516.8,6548.1 L-3616.7,6548.1 L-3616.8,6548.1 L-3616.83,6548.1 L-3616.92,6548.08 L-3617.26,6548.02 L-3617.45,6547.96 L-3617.5,6547.94 L-3617.68,6547.84 L-3617.95,6547.66 L-3618.1,6547.54 L-3618.14,6547.49 L-3618.27,6547.34 L-3618.45,6547.07 L-3618.54,6546.89 L-3618.57,6546.84 L-3618.62,6546.65 L-3618.69,6546.31 L-3618.71,6546.22 L-3618.71,6546.19"/>
</g>

<g fill="none" stroke="#000000" stroke-opacity="1" stroke-width="1" stroke-linecap="square" stroke-linejoin="bevel" transform="matrix(0.999904,0,0,-0.999904,7299.71,10284.1)"
font-family="MS Shell Dlg 2" font-size="10.3125" font-weight="400" font-style="normal" 
>
</g>

<g fill="none" stroke="#000000" stroke-opacity="1" stroke-width="1" stroke-linecap="square" stroke-linejoin="bevel" transform="matrix(0.999904,0,0,-0.999904,7299.71,10284.1)"
font-family="MS Shell Dlg 2" font-size="10.3125" font-weight="400" font-style="normal" 
>
</g>

<g fill="#ae5151" fill-opacity="0.2" stroke="#333333" stroke-opacity="1" stroke-width="1" stroke-linecap="round" stroke-linejoin="round" transform="matrix(0.999904,0,0,-0.999904,7299.71,10284.1)"
font-family="MS Shell Dlg 2" font-size="10.3125" font-weight="400" font-style="normal" 
>
<path vector-effect="non-scaling-stroke" fill-rule="evenodd" d="M-7299.91,8567.6 L-7276.07,10284.1 L-753.28,10284.1 L-845.33,5129.33 L-4435.62,5121.04 L-4435.62,7318.64 L-4435.62,7318.73 L-4435.63,7318.76 L-4435.64,7318.85 L-4435.7,7319.18 L-4435.75,7319.36 L-4435.77,7319.41 L-4435.86,7319.57 L-4436.03,7319.85 L-4436.08,7319.93 L-4436.1,7319.95 L-4436.16,7320.02 L-5587.09,8566.95 L-5587.16,8567.02 L-5587.18,8567.04 L-5587.27,8567.1 L-5587.56,8567.32 L-5587.74,8567.42 L-5587.8,8567.44 L-5587.99,8567.5 L-5588.35,8567.58 L-5588.45,8567.59 L-5588.48,8567.6 L-5588.58,8567.6 L-7299.91,8567.6 M-3618.71,6546.19 L-3618.71,6546.09 L-3618.78,6046.12 L-3618.77,6046.02 L-3618.77,6045.99 L-3618.76,6045.9 L-3618.69,6045.56 L-3618.63,6045.37 L-3618.61,6045.31 L-3618.52,6045.14 L-3618.33,6044.87 L-3618.21,6044.72 L-3618.17,6044.67 L-3618.02,6044.55 L-3617.74,6044.37 L-3617.57,6044.27 L-3617.51,6044.25 L-3617.33,6044.19 L-3616.99,6044.13 L-3616.89,6044.11 L-3616.86,6044.11 L-3616.76,6044.1 L-3067.71,6044.1 L-3047.71,6039.88 L-3031.29,6028.05 L-3020.95,6010.4 L-3001.75,5952.78 L-2999.29,5934.33 L-3003.77,5916.46 L-3014.54,5901.51 L-3017.85,5899.41 L-3017.92,5899.36 L-3017.94,5899.34 L-3018,5899.29 L-3018.22,5899.09 L-3018.33,5898.97 L-3018.36,5898.93 L-3018.46,5898.79 L-3018.59,5898.54 L-3018.66,5898.39 L-3018.68,5898.34 L-3018.72,5898.18 L-3018.77,5897.89 L-3018.78,5897.81 L-3018.78,5897.78 L-3018.78,5897.7 L-3018.78,5846.12 L-3018.78,5846.02 L-3018.78,5845.99 L-3018.76,5845.9 L-3018.69,5845.56 L-3018.64,5845.37 L-3018.61,5845.31 L-3018.52,5845.14 L-3018.34,5844.87 L-3018.21,5844.72 L-3018.17,5844.67 L-3018.02,5844.55 L-3017.75,5844.37 L-3017.57,5844.27 L-3017.52,5844.25 L-3017.33,5844.19 L-3016.99,5844.13 L-3016.9,5844.11 L-3016.87,5844.11 L-3016.77,5844.1 L-2116.8,5844.1 L-2116.7,5844.11 L-2116.67,5844.11 L-2116.57,5844.13 L-2116.23,5844.19 L-2116.05,5844.25 L-2115.99,5844.27 L-2115.82,5844.37 L-2115.55,5844.55 L-2115.39,5844.67 L-2115.35,5844.72 L-2115.23,5844.87 L-2115.04,5845.14 L-2114.95,5845.31 L-2114.93,5845.37 L-2114.87,5845.56 L-2114.81,5845.9 L-2114.79,5845.99 L-2114.79,5846.02 L-2114.78,5846.12 L-2114.78,5897.7 L-2114.79,5897.78 L-2114.79,5897.81 L-2114.8,5897.89 L-2114.85,5898.18 L-2114.89,5898.34 L-2114.91,5898.39 L-2114.97,5898.54 L-2115.11,5898.79 L-2115.2,5898.93 L-2115.23,5898.97 L-2115.35,5899.09 L-2115.57,5899.29 L-2115.63,5899.34 L-2115.65,5899.36 L-2115.72,5899.41 L-2119.02,5901.51 L-2129.79,5916.46 L-2134.28,5934.33 L-2131.82,5952.78 L-2112.61,6010.4 L-2102.28,6028.05 L-2085.86,6039.88 L-2065.85,6044.1 L-1516.8,6044.1 L-1516.7,6044.11 L-1516.67,6044.11 L-1516.57,6044.13 L-1516.23,6044.19 L-1516.05,6044.25 L-1515.99,6044.27 L-1515.82,6044.37 L-1515.55,6044.55 L-1515.39,6044.67 L-1515.35,6044.72 L-1515.23,6044.87 L-1515.04,6045.14 L-1514.95,6045.31 L-1514.93,6045.37 L-1514.87,6045.56 L-1514.81,6045.9 L-1514.79,6045.99 L-1514.79,6046.02 L-1514.78,6046.12 L-1514.78,6546.09 L-1514.79,6546.19 L-1514.79,6546.22 L-1514.81,6546.31 L-1514.87,6546.65 L-1514.93,6546.84 L-1514.95,6546.89 L-1515.04,6547.07 L-1515.23,6547.34 L-1515.35,6547.49 L-1515.39,6547.54 L-1515.55,6547.66 L-1515.82,6547.84 L-1515.99,6547.94 L-1516.05,6547.96 L-1516.23,6548.02 L-1516.57,6548.08 L-1516.67,6548.1 L-1516.7,6548.1 L-1516.8,6548.1 L-3616.7,6548.1 L-3616.8,6548.1 L-3616.83,6548.1 L-3616.92,6548.08 L-3617.26,6548.02 L-3617.45,6547.96 L-3617.5,6547.94 L-3617.68,6547.84 L-3617.95,6547.66 L-3618.1,6547.54 L-3618.14,6547.49 L-3618.27,6547.34 L-3618.45,6547.07 L-3618.54,6546.89 L-3618.57,6546.84 L-3618.62,6546.65 L-3618.69,6546.31 L-3618.71,6546.22 L-3618.71,6546.19"/>
</g>

<g fill="none" stroke="#000000" stroke-opacity="1" stroke-width="1" stroke-linecap="square" stroke-linejoin="bevel" transform="matrix(0.999904,0,0,-0.999904,7299.71,10284.1)"
font-family="MS Shell Dlg 2" font-size="10.3125" font-weight="400" font-style="normal" 
>
</g>

<g fill="none" stroke="#000000" stroke-opacity="1" stroke-width="1" stroke-linecap="square" stroke-linejoin="bevel" transform="matrix(0.999904,0,0,-0.999904,7299.71,10284.1)"
font-family="MS Shell Dlg 2" font-size="10.3125" font-weight="400" font-style="normal" 
>
</g>

<g fill="#333333" fill-opacity="0.2" stroke="#333333" stroke-opacity="1" stroke-width="1" stroke-linecap="round" stroke-linejoin="round" transform="matrix(0.999904,0,0,-0.999904,7299.71,10284.1)"
font-family="MS Shell Dlg 2" font-size="10.3125" font-weight="400" font-style="normal" 
>
<path vector-effect="non-scaling-stroke" fill-rule="evenodd" d="M-7299.91,8567.6 L-7276.07,10284.1 L-753.28,10284.1 L-845.33,5129.33 L-4435.62,5121.04 L-4435.62,7318.64 L-4435.62,7318.73 L-4435.63,7318.76 L-4435.64,7318.85 L-4435.7,7319.18 L-4435.75,7319.36 L-4435.77,7319.41 L-4435.86,7319.57 L-4436.03,7319.85 L-4436.08,7319.93 L-4436.1,7319.95 L-4436.16,7320.02 L-5587.09,8566.95 L-5587.16,8567.02 L-5587.18,8567.04 L-5587.27,8567.1 L-5587.56,8567.32 L-5587.74,8567.42 L-5587.8,8567.44 L-5587.99,8567.5 L-5588.35,8567.58 L-5588.45,8567.59 L-5588.48,8567.6 L-5588.58,8567.6 L-7299.91,8567.6 M-3618.71,6546.19 L-3618.71,6546.09 L-3618.78,6046.12 L-3618.77,6046.02 L-3618.77,6045.99 L-3618.76,6045.9 L-3618.69,6045.56 L-3618.63,6045.37 L-3618.61,6045.31 L-3618.52,6045.14 L-3618.33,6044.87 L-3618.21,6044.72 L-3618.17,6044.67 L-3618.02,6044.55 L-3617.74,6044.37 L-3617.57,6044.27 L-3617.51,6044.25 L-3617.33,6044.19 L-3616.99,6044.13 L-3616.89,6044.11 L-3616.86,6044.11 L-3616.76,6044.1 L-3067.71,6044.1 L-3047.71,6039.88 L-3031.29,6028.05 L-3020.95,6010.4 L-3001.75,5952.78 L-2999.29,5934.33 L-3003.77,5916.46 L-3014.54,5901.51 L-3017.85,5899.41 L-3017.92,5899.36 L-3017.94,5899.34 L-3018,5899.29 L-3018.22,5899.09 L-3018.33,5898.97 L-3018.36,5898.93 L-3018.46,5898.79 L-3018.59,5898.54 L-3018.66,5898.39 L-3018.68,5898.34 L-3018.72,5898.18 L-3018.77,5897.89 L-3018.78,5897.81 L-3018.78,5897.78 L-3018.78,5897.7 L-3018.78,5846.12 L-3018.78,5846.02 L-3018.78,5845.99 L-3018.76,5845.9 L-3018.69,5845.56 L-3018.64,5845.37 L-3018.61,5845.31 L-3018.52,5845.14 L-3018.34,5844.87 L-3018.21,5844.72 L-3018.17,5844.67 L-3018.02,5844.55 L-3017.75,5844.37 L-3017.57,5844.27 L-3017.52,5844.25 L-3017.33,5844.19 L-3016.99,5844.13 L-3016.9,5844.11 L-3016.87,5844.11 L-3016.77,5844.1 L-2116.8,5844.1 L-2116.7,5844.11 L-2116.67,5844.11 L-2116.57,5844.13 L-2116.23,5844.19 L-2116.05,5844.25 L-2115.99,5844.27 L-2115.82,5844.37 L-2115.55,5844.55 L-2115.39,5844.67 L-2115.35,5844.72 L-2115.23,5844.87 L-2115.04,5845.14 L-2114.95,5845.31 L-2114.93,5845.37 L-2114.87,5845.56 L-2114.81,5845.9 L-2114.79,5845.99 L-2114.79,5846.02 L-2114.78,5846.12 L-2114.78,5897.7 L-2114.79,5897.78 L-2114.79,5897.81 L-2114.8,5897.89 L-2114.85,5898.18 L-2114.89,5898.34 L-2114.91,5898.39 L-2114.97,5898.54 L-2115.11,5898.79 L-2115.2,5898.93 L-2115.23,5898.97 L-2115.35,5899.09 L-2115.57,5899.29 L-2115.63,5899.34 L-2115.65,5899.36 L-2115.72,5899.41 L-2119.02,5901.51 L-2129.79,5916.46 L-2134.28,5934.33 L-2131.82,5952.78 L-2112.61,6010.4 L-2102.28,6028.05 L-2085.86,6039.88 L-2065.85,6044.1 L-1516.8,6044.1 L-1516.7,6044.11 L-1516.67,6044.11 L-1516.57,6044.13 L-1516.23,6044.19 L-1516.05,6044.25 L-1515.99,6044.27 L-1515.82,6044.37 L-1515.55,6044.55 L-1515.39,6044.67 L-1515.35,6044.72 L-1515.23,6044.87 L-1515.04,6045.14 L-1514.95,6045.31 L-1514.93,6045.37 L-1514.87,6045.56 L-1514.81,6045.9 L-1514.79,6045.99 L-1514.79,6046.02 L-1514.78,6046.12 L-1514.78,6546.09 L-1514.79,6546.19 L-1514.79,6546.22 L-1514.81,6546.31 L-1514.87,6546.65 L-1514.93,6546.84 L-1514.95,6546.89 L-1515.04,6547.07 L-1515.23,6547.34 L-1515.35,6547.49 L-1515.39,6547.54 L-1515.55,6547.66 L-1515.82,6547.84 L-1515.99,6547.94 L-1516.05,6547.96 L-1516.23,6548.02 L-1516.57,6548.08 L-1516.67,6548.1 L-1516.7,6548.1 L-1516.8,6548.1 L-3616.7,6548.1 L-3616.8,6548.1 L-3616.83,6548.1 L-3616.92,6548.08 L-3617.26,6548.02 L-3617.45,6547.96 L-3617.5,6547.94 L-3617.68,6547.84 L-3617.95,6547.66 L-3618.1,6547.54 L-3618.14,6547.49 L-3618.27,6547.34 L-3618.45,6547.07 L-3618.54,6546.89 L-3618.57,6546.84 L-3618.62,6546.65 L-3618.69,6546.31 L-3618.71,6546.22 L-3618.71,6546.19"/>
</g>

<g fill="none" stroke="#000000" stroke-opacity="1" stroke-width="1" stroke-linecap="square" stroke-linejoin="bevel" transform="matrix(0.999904,0,0,-0.999904,7299.71,10284.1)"
font-family="MS Shell Dlg 2" font-size="10.3125" font-weight="400" font-style="normal" 
>
</g>

<g fill="none" stroke="#000000" stroke-opacity="1" stroke-width="1" stroke-linecap="square" stroke-linejoin="bevel" transform="matrix(1,0,0,-1,0,5164.06)"
font-family="MS Shell Dlg 2" font-size="10.3125" font-weight="400" font-style="normal" 
>
</g>
</g>
</svg>
