<?xml version="1.0" encoding="UTF-8" standalone="no"?>
<svg width="70.2733mm" height="112.607mm"
 xmlns="http://www.w3.org/2000/svg" xmlns:xlink="http://www.w3.org/1999/xlink"  version="1.2" baseProfile="tiny">
<title>SVG Generator Example Drawing</title>
<desc>An SVG drawing created by the SVG Generator</desc>
<defs>
</defs>
<g fill="none" stroke="black" stroke-width="1" fill-rule="evenodd" stroke-linecap="square" stroke-linejoin="bevel" >

<g fill="none" stroke="#000000" stroke-opacity="1" stroke-width="1" stroke-linecap="square" stroke-linejoin="bevel" transform="matrix(1,0,0,-1,0,399.623)"
font-family="MS Shell Dlg 2" font-size="10.3125" font-weight="400" font-style="normal" 
>
</g>

<g fill="none" stroke="#000000" stroke-opacity="1" stroke-width="1" stroke-linecap="square" stroke-linejoin="bevel" transform="matrix(1,0,0,-1,0,399.623)"
font-family="MS Shell Dlg 2" font-size="10.3125" font-weight="400" font-style="normal" 
>
</g>

<g fill="none" stroke="#000000" stroke-opacity="1" stroke-width="1" stroke-linecap="square" stroke-linejoin="bevel" transform="matrix(0.998442,0,0,-0.998442,7779.14,3076.78)"
font-family="MS Shell Dlg 2" font-size="10.3125" font-weight="400" font-style="normal" 
>
</g>

<g fill="#333333" fill-opacity="0.2" stroke="#333333" stroke-opacity="1" stroke-width="1" stroke-linecap="round" stroke-linejoin="round" transform="matrix(0.998442,0,0,-0.998442,7779.14,3076.78)"
font-family="MS Shell Dlg 2" font-size="10.3125" font-weight="400" font-style="normal" 
>
<path vector-effect="non-scaling-stroke" fill-rule="evenodd" d="M-7790.78,2981.37 L-7783.11,3019.63 L-7761.33,3051.89 L-7728.8,3073.27 L-7690.45,3080.46 L-7640.64,3079.84 L-7603.05,3071.93 L-7571.36,3050.39 L-7550.22,3018.44 L-7542.78,2980.75 L-7542.78,2780.93 L-7550.46,2742.66 L-7572.23,2710.4 L-7604.76,2689.03 L-7643.12,2681.84 L-7692.92,2682.46 L-7730.52,2690.37 L-7762.21,2711.9 L-7783.35,2743.86 L-7790.78,2781.55 L-7790.78,2981.37"/>
</g>

<g fill="none" stroke="#000000" stroke-opacity="1" stroke-width="1" stroke-linecap="square" stroke-linejoin="bevel" transform="matrix(0.998442,0,0,-0.998442,7779.14,3076.78)"
font-family="MS Shell Dlg 2" font-size="10.3125" font-weight="400" font-style="normal" 
>
</g>

<g fill="none" stroke="#000000" stroke-opacity="1" stroke-width="1" stroke-linecap="square" stroke-linejoin="bevel" transform="matrix(0.998442,0,0,-0.998442,7779.14,3076.78)"
font-family="MS Shell Dlg 2" font-size="10.3125" font-weight="400" font-style="normal" 
>
</g>

<g fill="#ae5151" fill-opacity="0.2" stroke="#333333" stroke-opacity="1" stroke-width="1" stroke-linecap="round" stroke-linejoin="round" transform="matrix(0.998442,0,0,-0.998442,7779.14,3076.78)"
font-family="MS Shell Dlg 2" font-size="10.3125" font-weight="400" font-style="normal" 
>
<path vector-effect="non-scaling-stroke" fill-rule="evenodd" d="M-7790.78,2981.37 L-7783.11,3019.63 L-7761.33,3051.89 L-7728.8,3073.27 L-7690.45,3080.46 L-7640.64,3079.84 L-7603.05,3071.93 L-7571.36,3050.39 L-7550.22,3018.44 L-7542.78,2980.75 L-7542.78,2780.93 L-7550.46,2742.66 L-7572.23,2710.4 L-7604.76,2689.03 L-7643.12,2681.84 L-7692.92,2682.46 L-7730.52,2690.37 L-7762.21,2711.9 L-7783.35,2743.86 L-7790.78,2781.55 L-7790.78,2981.37"/>
</g>

<g fill="none" stroke="#000000" stroke-opacity="1" stroke-width="1" stroke-linecap="square" stroke-linejoin="bevel" transform="matrix(0.998442,0,0,-0.998442,7779.14,3076.78)"
font-family="MS Shell Dlg 2" font-size="10.3125" font-weight="400" font-style="normal" 
>
</g>

<g fill="none" stroke="#000000" stroke-opacity="1" stroke-width="1" stroke-linecap="square" stroke-linejoin="bevel" transform="matrix(0.998442,0,0,-0.998442,7779.14,3076.78)"
font-family="MS Shell Dlg 2" font-size="10.3125" font-weight="400" font-style="normal" 
>
</g>

<g fill="#ffff00" fill-opacity="0.2" stroke="#333333" stroke-opacity="1" stroke-width="1" stroke-linecap="round" stroke-linejoin="round" transform="matrix(0.998442,0,0,-0.998442,7779.14,3076.78)"
font-family="MS Shell Dlg 2" font-size="10.3125" font-weight="400" font-style="normal" 
>
<path vector-effect="non-scaling-stroke" fill-rule="evenodd" d="M-7790.78,2981.37 L-7783.11,3019.63 L-7761.33,3051.89 L-7728.8,3073.27 L-7690.45,3080.46 L-7640.64,3079.84 L-7603.05,3071.93 L-7571.36,3050.39 L-7550.22,3018.44 L-7542.78,2980.75 L-7542.78,2780.93 L-7550.46,2742.66 L-7572.23,2710.4 L-7604.76,2689.03 L-7643.12,2681.84 L-7692.92,2682.46 L-7730.52,2690.37 L-7762.21,2711.9 L-7783.35,2743.86 L-7790.78,2781.55 L-7790.78,2981.37"/>
</g>

<g fill="none" stroke="#000000" stroke-opacity="1" stroke-width="1" stroke-linecap="square" stroke-linejoin="bevel" transform="matrix(0.998442,0,0,-0.998442,7779.14,3076.78)"
font-family="MS Shell Dlg 2" font-size="10.3125" font-weight="400" font-style="normal" 
>
</g>

<g fill="none" stroke="#000000" stroke-opacity="1" stroke-width="1" stroke-linecap="square" stroke-linejoin="bevel" transform="matrix(0.998442,0,0,-0.998442,7779.14,3076.78)"
font-family="MS Shell Dlg 2" font-size="10.3125" font-weight="400" font-style="normal" 
>
</g>

<g fill="#ae5151" fill-opacity="0.2" stroke="#333333" stroke-opacity="1" stroke-width="1" stroke-linecap="round" stroke-linejoin="round" transform="matrix(0.998442,0,0,-0.998442,7779.14,3076.78)"
font-family="MS Shell Dlg 2" font-size="10.3125" font-weight="400" font-style="normal" 
>
<path vector-effect="non-scaling-stroke" fill-rule="evenodd" d="M-7790.78,2981.37 L-7783.11,3019.63 L-7761.33,3051.89 L-7728.8,3073.27 L-7690.45,3080.46 L-7640.64,3079.84 L-7603.05,3071.93 L-7571.36,3050.39 L-7550.22,3018.44 L-7542.78,2980.75 L-7542.78,2780.93 L-7550.46,2742.66 L-7572.23,2710.4 L-7604.76,2689.03 L-7643.12,2681.84 L-7692.92,2682.46 L-7730.52,2690.37 L-7762.21,2711.9 L-7783.35,2743.86 L-7790.78,2781.55 L-7790.78,2981.37"/>
</g>

<g fill="none" stroke="#000000" stroke-opacity="1" stroke-width="1" stroke-linecap="square" stroke-linejoin="bevel" transform="matrix(0.998442,0,0,-0.998442,7779.14,3076.78)"
font-family="MS Shell Dlg 2" font-size="10.3125" font-weight="400" font-style="normal" 
>
</g>

<g fill="none" stroke="#000000" stroke-opacity="1" stroke-width="1" stroke-linecap="square" stroke-linejoin="bevel" transform="matrix(0.998442,0,0,-0.998442,7779.14,3076.78)"
font-family="MS Shell Dlg 2" font-size="10.3125" font-weight="400" font-style="normal" 
>
</g>

<g fill="#333333" fill-opacity="0.2" stroke="#333333" stroke-opacity="1" stroke-width="1" stroke-linecap="round" stroke-linejoin="round" transform="matrix(0.998442,0,0,-0.998442,7779.14,3076.78)"
font-family="MS Shell Dlg 2" font-size="10.3125" font-weight="400" font-style="normal" 
>
<path vector-effect="non-scaling-stroke" fill-rule="evenodd" d="M-7790.78,2981.37 L-7783.11,3019.63 L-7761.33,3051.89 L-7728.8,3073.27 L-7690.45,3080.46 L-7640.64,3079.84 L-7603.05,3071.93 L-7571.36,3050.39 L-7550.22,3018.44 L-7542.78,2980.75 L-7542.78,2780.93 L-7550.46,2742.66 L-7572.23,2710.4 L-7604.76,2689.03 L-7643.12,2681.84 L-7692.92,2682.46 L-7730.52,2690.37 L-7762.21,2711.9 L-7783.35,2743.86 L-7790.78,2781.55 L-7790.78,2981.37"/>
</g>

<g fill="none" stroke="#000000" stroke-opacity="1" stroke-width="1" stroke-linecap="square" stroke-linejoin="bevel" transform="matrix(0.998442,0,0,-0.998442,7779.14,3076.78)"
font-family="MS Shell Dlg 2" font-size="10.3125" font-weight="400" font-style="normal" 
>
</g>

<g fill="none" stroke="#000000" stroke-opacity="1" stroke-width="1" stroke-linecap="square" stroke-linejoin="bevel" transform="matrix(1,0,0,-1,0,399.623)"
font-family="MS Shell Dlg 2" font-size="10.3125" font-weight="400" font-style="normal" 
>
</g>
</g>
</svg>
