<?xml version="1.0" encoding="UTF-8" standalone="no"?>
<svg width="153.247mm" height="112.042mm"
 xmlns="http://www.w3.org/2000/svg" xmlns:xlink="http://www.w3.org/1999/xlink"  version="1.2" baseProfile="tiny">
<title>SVG Generator Example Drawing</title>
<desc>An SVG drawing created by the SVG Generator</desc>
<defs>
</defs>
<g fill="none" stroke="black" stroke-width="1" fill-rule="evenodd" stroke-linecap="square" stroke-linejoin="bevel" >

<g fill="none" stroke="#000000" stroke-opacity="1" stroke-width="1" stroke-linecap="square" stroke-linejoin="bevel" transform="matrix(1,0,0,-1,0,397.639)"
font-family="MS Shell Dlg 2" font-size="10.3125" font-weight="400" font-style="normal" 
>
</g>

<g fill="none" stroke="#000000" stroke-opacity="1" stroke-width="1" stroke-linecap="square" stroke-linejoin="bevel" transform="matrix(1,0,0,-1,0,397.639)"
font-family="MS Shell Dlg 2" font-size="10.3125" font-weight="400" font-style="normal" 
>
</g>

<g fill="none" stroke="#000000" stroke-opacity="1" stroke-width="1" stroke-linecap="square" stroke-linejoin="bevel" transform="matrix(0.998394,0,0,-0.998394,8672.45,2357.64)"
font-family="MS Shell Dlg 2" font-size="10.3125" font-weight="400" font-style="normal" 
>
</g>

<g fill="#333333" fill-opacity="0.2" stroke="#333333" stroke-opacity="1" stroke-width="1" stroke-linecap="round" stroke-linejoin="round" transform="matrix(0.998394,0,0,-0.998394,8672.45,2357.64)"
font-family="MS Shell Dlg 2" font-size="10.3125" font-weight="400" font-style="normal" 
>
<path vector-effect="non-scaling-stroke" fill-rule="evenodd" d="M-8685.91,2012.22 L-8685.91,2228.11 L-8641.89,2228.11 L-8641.7,2228.13 L-8641.65,2228.14 L-8641.29,2228.29 L-8641.26,2228.31 L-8640.98,2228.58 L-8640.96,2228.62 L-8640.81,2228.98 L-8640.8,2229.02 L-8640.78,2229.22 L-8640.78,2360.29 L-8632.78,2360.29 L-8632.78,2229.11 L-8632.78,2130.31 L-8632.78,2130.29 L-8632.78,2130.29 L-8632.75,2130.07 L-8632.74,2130.03 L-8632.59,2129.69 L-8632.56,2129.66 L-8632.29,2129.4 L-8632.26,2129.38 L-8631.91,2129.24 L-8631.86,2129.23 L-8631.67,2129.21 L-8414.41,2129.21 L-8414.22,2129.23 L-8414.18,2129.24 L-8413.82,2129.38 L-8413.79,2129.4 L-8413.52,2129.66 L-8413.5,2129.69 L-8413.34,2130.03 L-8413.33,2130.07 L-8413.3,2130.29 L-8413.3,2130.29 L-8413.3,2130.31 L-8413.3,2228.11 L-8143.82,2228.11 L-8143.78,2227.91 L-8143.78,2111.41 L-8147.55,2092.47 L-8158.16,2076.59 L-8174.05,2065.97 L-8190.78,2062.65 L-8190.78,2110.11 L-8190.78,2110.13 L-8190.78,2110.13 L-8190.81,2110.34 L-8190.82,2110.39 L-8190.98,2110.73 L-8191,2110.76 L-8191.28,2111.02 L-8191.31,2111.04 L-8191.66,2111.18 L-8191.7,2111.19 L-8191.89,2111.21 L-8409.16,2111.21 L-8409.35,2111.19 L-8409.39,2111.18 L-8409.74,2111.04 L-8409.77,2111.02 L-8410.05,2110.76 L-8410.07,2110.73 L-8410.23,2110.39 L-8410.24,2110.34 L-8410.27,2110.13 L-8410.27,2110.13 L-8410.27,2110.11 L-8410.27,2012.22 L-8685.91,2012.22"/>
</g>

<g fill="none" stroke="#000000" stroke-opacity="1" stroke-width="1" stroke-linecap="square" stroke-linejoin="bevel" transform="matrix(0.998394,0,0,-0.998394,8672.45,2357.64)"
font-family="MS Shell Dlg 2" font-size="10.3125" font-weight="400" font-style="normal" 
>
</g>

<g fill="none" stroke="#000000" stroke-opacity="1" stroke-width="1" stroke-linecap="square" stroke-linejoin="bevel" transform="matrix(0.998394,0,0,-0.998394,8672.45,2357.64)"
font-family="MS Shell Dlg 2" font-size="10.3125" font-weight="400" font-style="normal" 
>
</g>

<g fill="#ae5151" fill-opacity="0.2" stroke="#333333" stroke-opacity="1" stroke-width="1" stroke-linecap="round" stroke-linejoin="round" transform="matrix(0.998394,0,0,-0.998394,8672.45,2357.64)"
font-family="MS Shell Dlg 2" font-size="10.3125" font-weight="400" font-style="normal" 
>
<path vector-effect="non-scaling-stroke" fill-rule="evenodd" d="M-8685.91,2012.22 L-8685.91,2228.11 L-8641.89,2228.11 L-8641.7,2228.13 L-8641.65,2228.14 L-8641.29,2228.29 L-8641.26,2228.31 L-8640.98,2228.58 L-8640.96,2228.62 L-8640.81,2228.98 L-8640.8,2229.02 L-8640.78,2229.22 L-8640.78,2360.29 L-8632.78,2360.29 L-8632.78,2229.11 L-8632.78,2130.31 L-8632.78,2130.29 L-8632.78,2130.29 L-8632.75,2130.07 L-8632.74,2130.03 L-8632.59,2129.69 L-8632.56,2129.66 L-8632.29,2129.4 L-8632.26,2129.38 L-8631.91,2129.24 L-8631.86,2129.23 L-8631.67,2129.21 L-8414.41,2129.21 L-8414.22,2129.23 L-8414.18,2129.24 L-8413.82,2129.38 L-8413.79,2129.4 L-8413.52,2129.66 L-8413.5,2129.69 L-8413.34,2130.03 L-8413.33,2130.07 L-8413.3,2130.29 L-8413.3,2130.29 L-8413.3,2130.31 L-8413.3,2228.11 L-8143.82,2228.11 L-8143.78,2227.91 L-8143.78,2111.41 L-8147.55,2092.47 L-8158.16,2076.59 L-8174.05,2065.97 L-8190.78,2062.65 L-8190.78,2110.11 L-8190.78,2110.13 L-8190.78,2110.13 L-8190.81,2110.34 L-8190.82,2110.39 L-8190.98,2110.73 L-8191,2110.76 L-8191.28,2111.02 L-8191.31,2111.04 L-8191.66,2111.18 L-8191.7,2111.19 L-8191.89,2111.21 L-8409.16,2111.21 L-8409.35,2111.19 L-8409.39,2111.18 L-8409.74,2111.04 L-8409.77,2111.02 L-8410.05,2110.76 L-8410.07,2110.73 L-8410.23,2110.39 L-8410.24,2110.34 L-8410.27,2110.13 L-8410.27,2110.13 L-8410.27,2110.11 L-8410.27,2012.22 L-8685.91,2012.22"/>
</g>

<g fill="none" stroke="#000000" stroke-opacity="1" stroke-width="1" stroke-linecap="square" stroke-linejoin="bevel" transform="matrix(0.998394,0,0,-0.998394,8672.45,2357.64)"
font-family="MS Shell Dlg 2" font-size="10.3125" font-weight="400" font-style="normal" 
>
</g>

<g fill="none" stroke="#000000" stroke-opacity="1" stroke-width="1" stroke-linecap="square" stroke-linejoin="bevel" transform="matrix(0.998394,0,0,-0.998394,8672.45,2357.64)"
font-family="MS Shell Dlg 2" font-size="10.3125" font-weight="400" font-style="normal" 
>
</g>

<g fill="#ffff00" fill-opacity="0.2" stroke="#333333" stroke-opacity="1" stroke-width="1" stroke-linecap="round" stroke-linejoin="round" transform="matrix(0.998394,0,0,-0.998394,8672.45,2357.64)"
font-family="MS Shell Dlg 2" font-size="10.3125" font-weight="400" font-style="normal" 
>
<path vector-effect="non-scaling-stroke" fill-rule="evenodd" d="M-8685.91,2012.22 L-8685.91,2228.11 L-8641.89,2228.11 L-8641.7,2228.13 L-8641.65,2228.14 L-8641.29,2228.29 L-8641.26,2228.31 L-8640.98,2228.58 L-8640.96,2228.62 L-8640.81,2228.98 L-8640.8,2229.02 L-8640.78,2229.22 L-8640.78,2360.29 L-8632.78,2360.29 L-8632.78,2229.11 L-8632.78,2012.22 L-8685.91,2012.22"/>
</g>

<g fill="none" stroke="#000000" stroke-opacity="1" stroke-width="1" stroke-linecap="square" stroke-linejoin="bevel" transform="matrix(0.998394,0,0,-0.998394,8672.45,2357.64)"
font-family="MS Shell Dlg 2" font-size="10.3125" font-weight="400" font-style="normal" 
>
</g>

<g fill="none" stroke="#000000" stroke-opacity="1" stroke-width="1" stroke-linecap="square" stroke-linejoin="bevel" transform="matrix(0.998394,0,0,-0.998394,8672.45,2357.64)"
font-family="MS Shell Dlg 2" font-size="10.3125" font-weight="400" font-style="normal" 
>
</g>

<g fill="#ae5151" fill-opacity="0.2" stroke="#333333" stroke-opacity="1" stroke-width="1" stroke-linecap="round" stroke-linejoin="round" transform="matrix(0.998394,0,0,-0.998394,8672.45,2357.64)"
font-family="MS Shell Dlg 2" font-size="10.3125" font-weight="400" font-style="normal" 
>
<path vector-effect="non-scaling-stroke" fill-rule="evenodd" d="M-8685.91,2012.22 L-8685.91,2228.11 L-8641.89,2228.11 L-8641.7,2228.13 L-8641.65,2228.14 L-8641.29,2228.29 L-8641.26,2228.31 L-8640.98,2228.58 L-8640.96,2228.62 L-8640.81,2228.98 L-8640.8,2229.02 L-8640.78,2229.22 L-8640.78,2360.29 L-8632.78,2360.29 L-8632.78,2229.22 L-8632.76,2229.02 L-8632.75,2228.98 L-8632.61,2228.62 L-8632.58,2228.58 L-8632.31,2228.31 L-8632.28,2228.29 L-8631.92,2228.14 L-8631.87,2228.13 L-8631.67,2228.11 L-8410.27,2228.11 L-8410.27,2130.31 L-8410.27,2130.29 L-8410.27,2130.29 L-8410.24,2130.07 L-8410.23,2130.03 L-8410.07,2129.69 L-8410.05,2129.66 L-8409.77,2129.4 L-8409.74,2129.38 L-8409.39,2129.24 L-8409.35,2129.23 L-8409.16,2129.21 L-8191.89,2129.21 L-8191.7,2129.23 L-8191.66,2129.24 L-8191.31,2129.38 L-8191.28,2129.4 L-8191,2129.66 L-8190.98,2129.69 L-8190.82,2130.03 L-8190.81,2130.07 L-8190.78,2130.29 L-8190.78,2130.29 L-8190.78,2130.31 L-8190.78,2177.78 L-8174.01,2174.43 L-8158.15,2163.81 L-8147.54,2147.93 L-8143.78,2129.01 L-8143.78,2120.21 L-8143.78,2012.42 L-8147.55,1993.48 L-8158.16,1977.6 L-8174.05,1966.98 L-8190.78,1963.66 L-8190.78,2011.11 L-8190.8,2011.3 L-8190.81,2011.35 L-8190.96,2011.71 L-8190.98,2011.74 L-8191.26,2012.02 L-8191.29,2012.04 L-8191.65,2012.19 L-8191.7,2012.2 L-8191.89,2012.22 L-8413.3,2012.22 L-8413.3,2110.11 L-8413.3,2110.13 L-8413.3,2110.13 L-8413.33,2110.34 L-8413.34,2110.39 L-8413.5,2110.73 L-8413.52,2110.76 L-8413.79,2111.02 L-8413.82,2111.04 L-8414.18,2111.18 L-8414.22,2111.19 L-8414.41,2111.21 L-8631.67,2111.21 L-8631.86,2111.19 L-8631.91,2111.18 L-8632.26,2111.04 L-8632.29,2111.02 L-8632.56,2110.76 L-8632.59,2110.73 L-8632.74,2110.39 L-8632.75,2110.34 L-8632.78,2110.13 L-8632.78,2110.13 L-8632.78,2110.11 L-8632.78,2012.22 L-8685.91,2012.22"/>
</g>

<g fill="none" stroke="#000000" stroke-opacity="1" stroke-width="1" stroke-linecap="square" stroke-linejoin="bevel" transform="matrix(0.998394,0,0,-0.998394,8672.45,2357.64)"
font-family="MS Shell Dlg 2" font-size="10.3125" font-weight="400" font-style="normal" 
>
</g>

<g fill="none" stroke="#000000" stroke-opacity="1" stroke-width="1" stroke-linecap="square" stroke-linejoin="bevel" transform="matrix(0.998394,0,0,-0.998394,8672.45,2357.64)"
font-family="MS Shell Dlg 2" font-size="10.3125" font-weight="400" font-style="normal" 
>
</g>

<g fill="#333333" fill-opacity="0.2" stroke="#333333" stroke-opacity="1" stroke-width="1" stroke-linecap="round" stroke-linejoin="round" transform="matrix(0.998394,0,0,-0.998394,8672.45,2357.64)"
font-family="MS Shell Dlg 2" font-size="10.3125" font-weight="400" font-style="normal" 
>
<path vector-effect="non-scaling-stroke" fill-rule="evenodd" d="M-8685.91,2012.22 L-8685.91,2228.11 L-8641.89,2228.11 L-8641.7,2228.13 L-8641.65,2228.14 L-8641.29,2228.29 L-8641.26,2228.31 L-8640.98,2228.58 L-8640.96,2228.62 L-8640.81,2228.98 L-8640.8,2229.02 L-8640.78,2229.22 L-8640.78,2360.29 L-8632.78,2360.29 L-8632.78,2229.22 L-8632.76,2229.02 L-8632.75,2228.98 L-8632.61,2228.62 L-8632.58,2228.58 L-8632.31,2228.31 L-8632.28,2228.29 L-8631.92,2228.14 L-8631.87,2228.13 L-8631.67,2228.11 L-8410.27,2228.11 L-8410.27,2130.31 L-8410.27,2130.29 L-8410.27,2130.29 L-8410.24,2130.07 L-8410.23,2130.03 L-8410.07,2129.69 L-8410.05,2129.66 L-8409.77,2129.4 L-8409.74,2129.38 L-8409.39,2129.24 L-8409.35,2129.23 L-8409.16,2129.21 L-8191.89,2129.21 L-8191.7,2129.23 L-8191.66,2129.24 L-8191.31,2129.38 L-8191.28,2129.4 L-8191,2129.66 L-8190.98,2129.69 L-8190.82,2130.03 L-8190.81,2130.07 L-8190.78,2130.29 L-8190.78,2130.29 L-8190.78,2130.31 L-8190.78,2177.78 L-8174.01,2174.43 L-8158.15,2163.81 L-8147.54,2147.93 L-8143.78,2129.01 L-8143.78,2120.21 L-8143.78,2012.42 L-8147.55,1993.48 L-8158.16,1977.6 L-8174.05,1966.98 L-8190.78,1963.66 L-8190.78,2011.11 L-8190.8,2011.3 L-8190.81,2011.35 L-8190.96,2011.71 L-8190.98,2011.74 L-8191.26,2012.02 L-8191.29,2012.04 L-8191.65,2012.19 L-8191.7,2012.2 L-8191.89,2012.22 L-8413.3,2012.22 L-8413.3,2110.11 L-8413.3,2110.13 L-8413.3,2110.13 L-8413.33,2110.34 L-8413.34,2110.39 L-8413.5,2110.73 L-8413.52,2110.76 L-8413.79,2111.02 L-8413.82,2111.04 L-8414.18,2111.18 L-8414.22,2111.19 L-8414.41,2111.21 L-8631.67,2111.21 L-8631.86,2111.19 L-8631.91,2111.18 L-8632.26,2111.04 L-8632.29,2111.02 L-8632.56,2110.76 L-8632.59,2110.73 L-8632.74,2110.39 L-8632.75,2110.34 L-8632.78,2110.13 L-8632.78,2110.13 L-8632.78,2110.11 L-8632.78,2012.22 L-8685.91,2012.22"/>
</g>

<g fill="none" stroke="#000000" stroke-opacity="1" stroke-width="1" stroke-linecap="square" stroke-linejoin="bevel" transform="matrix(0.998394,0,0,-0.998394,8672.45,2357.64)"
font-family="MS Shell Dlg 2" font-size="10.3125" font-weight="400" font-style="normal" 
>
</g>

<g fill="none" stroke="#000000" stroke-opacity="1" stroke-width="1" stroke-linecap="square" stroke-linejoin="bevel" transform="matrix(1,0,0,-1,0,397.639)"
font-family="MS Shell Dlg 2" font-size="10.3125" font-weight="400" font-style="normal" 
>
</g>
</g>
</svg>
