<?xml version="1.0" encoding="UTF-8" standalone="no"?>
<svg width="232.551mm" height="232.551mm"
 xmlns="http://www.w3.org/2000/svg" xmlns:xlink="http://www.w3.org/1999/xlink"  version="1.2" baseProfile="tiny">
<title>SVG Generator Example Drawing</title>
<desc>An SVG drawing created by the SVG Generator</desc>
<defs>
</defs>
<g fill="none" stroke="black" stroke-width="1" fill-rule="evenodd" stroke-linecap="square" stroke-linejoin="bevel" >

<g fill="none" stroke="#000000" stroke-opacity="1" stroke-width="1" stroke-linecap="square" stroke-linejoin="bevel" transform="matrix(1,0,0,-1,0,824.95)"
font-family="MS Shell Dlg 2" font-size="10.3125" font-weight="400" font-style="normal" 
>
</g>

<g fill="none" stroke="#000000" stroke-opacity="1" stroke-width="1" stroke-linecap="square" stroke-linejoin="bevel" transform="matrix(1,0,0,-1,0,824.95)"
font-family="MS Shell Dlg 2" font-size="10.3125" font-weight="400" font-style="normal" 
>
</g>

<g fill="none" stroke="#000000" stroke-opacity="1" stroke-width="1" stroke-linecap="square" stroke-linejoin="bevel" transform="matrix(0.998848,0,0,-0.998848,5770,7448.88)"
font-family="MS Shell Dlg 2" font-size="10.3125" font-weight="400" font-style="normal" 
>
</g>

<g fill="#333333" fill-opacity="0.2" stroke="#333333" stroke-opacity="1" stroke-width="1" stroke-linecap="round" stroke-linejoin="round" transform="matrix(0.998848,0,0,-0.998848,5770,7448.88)"
font-family="MS Shell Dlg 2" font-size="10.3125" font-weight="400" font-style="normal" 
>
<path vector-effect="non-scaling-stroke" fill-rule="evenodd" d="M-5776.16,7103.88 L-5424.02,7456.02 L-5071.25,7103.25 L-5071.1,7103.12 L-5071.06,7103.1 L-5070.7,7102.95 L-5070.66,7102.94 L-5070.27,7102.94 L-5070.23,7102.95 L-5069.87,7103.1 L-5069.83,7103.12 L-5069.68,7103.25 L-5035.81,7137.11 L-4966.66,7067.95 L-4955.93,7051.9 L-4952.21,7033.17 L-4955.93,7014.43 L-4966.66,6998.38 L-5318.52,6646.52 L-5334.57,6635.79 L-5353.3,6632.07 L-5372.04,6635.79 L-5388.09,6646.52 L-5457.25,6715.68 L-5423.39,6749.54 L-5423.26,6749.69 L-5423.24,6749.73 L-5423.09,6750.09 L-5423.08,6750.13 L-5423.08,6750.52 L-5423.09,6750.56 L-5423.24,6750.92 L-5423.26,6750.96 L-5423.39,6751.11 L-5776.16,7103.88"/>
</g>

<g fill="none" stroke="#000000" stroke-opacity="1" stroke-width="1" stroke-linecap="square" stroke-linejoin="bevel" transform="matrix(0.998848,0,0,-0.998848,5770,7448.88)"
font-family="MS Shell Dlg 2" font-size="10.3125" font-weight="400" font-style="normal" 
>
</g>

<g fill="none" stroke="#000000" stroke-opacity="1" stroke-width="1" stroke-linecap="square" stroke-linejoin="bevel" transform="matrix(0.998848,0,0,-0.998848,5770,7448.88)"
font-family="MS Shell Dlg 2" font-size="10.3125" font-weight="400" font-style="normal" 
>
</g>

<g fill="#ae5151" fill-opacity="0.2" stroke="#333333" stroke-opacity="1" stroke-width="1" stroke-linecap="round" stroke-linejoin="round" transform="matrix(0.998848,0,0,-0.998848,5770,7448.88)"
font-family="MS Shell Dlg 2" font-size="10.3125" font-weight="400" font-style="normal" 
>
<path vector-effect="non-scaling-stroke" fill-rule="evenodd" d="M-5776.16,7103.88 L-5424.02,7456.02 L-5071.25,7103.25 L-5071.1,7103.12 L-5071.06,7103.1 L-5070.7,7102.95 L-5070.66,7102.94 L-5070.27,7102.94 L-5070.23,7102.95 L-5069.87,7103.1 L-5069.83,7103.12 L-5069.68,7103.25 L-5035.81,7137.11 L-4966.66,7067.95 L-4955.93,7051.9 L-4952.21,7033.17 L-4955.93,7014.43 L-4966.66,6998.38 L-5318.52,6646.52 L-5334.57,6635.79 L-5353.3,6632.07 L-5372.04,6635.79 L-5388.09,6646.52 L-5457.25,6715.68 L-5423.39,6749.54 L-5423.26,6749.69 L-5423.24,6749.73 L-5423.09,6750.09 L-5423.08,6750.13 L-5423.08,6750.52 L-5423.09,6750.56 L-5423.24,6750.92 L-5423.26,6750.96 L-5423.39,6751.11 L-5776.16,7103.88"/>
</g>

<g fill="none" stroke="#000000" stroke-opacity="1" stroke-width="1" stroke-linecap="square" stroke-linejoin="bevel" transform="matrix(0.998848,0,0,-0.998848,5770,7448.88)"
font-family="MS Shell Dlg 2" font-size="10.3125" font-weight="400" font-style="normal" 
>
</g>

<g fill="none" stroke="#000000" stroke-opacity="1" stroke-width="1" stroke-linecap="square" stroke-linejoin="bevel" transform="matrix(0.998848,0,0,-0.998848,5770,7448.88)"
font-family="MS Shell Dlg 2" font-size="10.3125" font-weight="400" font-style="normal" 
>
</g>

<g fill="#ffff00" fill-opacity="0.2" stroke="#333333" stroke-opacity="1" stroke-width="1" stroke-linecap="round" stroke-linejoin="round" transform="matrix(0.998848,0,0,-0.998848,5770,7448.88)"
font-family="MS Shell Dlg 2" font-size="10.3125" font-weight="400" font-style="normal" 
>
<path vector-effect="non-scaling-stroke" fill-rule="evenodd" d="M-5776.16,7103.88 L-5424.02,7456.02 L-5071.25,7103.25 L-5071.1,7103.12 L-5071.06,7103.1 L-5070.7,7102.95 L-5070.66,7102.94 L-5070.27,7102.94 L-5070.23,7102.95 L-5069.87,7103.1 L-5069.83,7103.12 L-5069.68,7103.25 L-5035.81,7137.11 L-4966.66,7067.95 L-4955.93,7051.9 L-4952.21,7033.17 L-4955.93,7014.43 L-4966.66,6998.38 L-5318.52,6646.52 L-5334.57,6635.79 L-5353.3,6632.07 L-5372.04,6635.79 L-5388.09,6646.52 L-5457.25,6715.68 L-5423.39,6749.54 L-5423.26,6749.69 L-5423.24,6749.73 L-5423.09,6750.09 L-5423.08,6750.13 L-5423.08,6750.52 L-5423.09,6750.56 L-5423.24,6750.92 L-5423.26,6750.96 L-5423.39,6751.11 L-5776.16,7103.88"/>
</g>

<g fill="none" stroke="#000000" stroke-opacity="1" stroke-width="1" stroke-linecap="square" stroke-linejoin="bevel" transform="matrix(0.998848,0,0,-0.998848,5770,7448.88)"
font-family="MS Shell Dlg 2" font-size="10.3125" font-weight="400" font-style="normal" 
>
</g>

<g fill="none" stroke="#000000" stroke-opacity="1" stroke-width="1" stroke-linecap="square" stroke-linejoin="bevel" transform="matrix(0.998848,0,0,-0.998848,5770,7448.88)"
font-family="MS Shell Dlg 2" font-size="10.3125" font-weight="400" font-style="normal" 
>
</g>

<g fill="#ae5151" fill-opacity="0.2" stroke="#333333" stroke-opacity="1" stroke-width="1" stroke-linecap="round" stroke-linejoin="round" transform="matrix(0.998848,0,0,-0.998848,5770,7448.88)"
font-family="MS Shell Dlg 2" font-size="10.3125" font-weight="400" font-style="normal" 
>
<path vector-effect="non-scaling-stroke" fill-rule="evenodd" d="M-5776.16,7103.88 L-5424.02,7456.02 L-5071.25,7103.25 L-5071.1,7103.12 L-5071.06,7103.1 L-5070.7,7102.95 L-5070.66,7102.94 L-5070.27,7102.94 L-5070.23,7102.95 L-5069.87,7103.1 L-5069.83,7103.12 L-5069.68,7103.25 L-5035.81,7137.11 L-4966.66,7067.95 L-4955.93,7051.9 L-4952.21,7033.17 L-4955.93,7014.43 L-4966.66,6998.38 L-5318.52,6646.52 L-5334.57,6635.79 L-5353.3,6632.07 L-5372.04,6635.79 L-5388.09,6646.52 L-5457.25,6715.68 L-5423.39,6749.54 L-5423.26,6749.69 L-5423.24,6749.73 L-5423.09,6750.09 L-5423.08,6750.13 L-5423.08,6750.52 L-5423.09,6750.56 L-5423.24,6750.92 L-5423.26,6750.96 L-5423.39,6751.11 L-5776.16,7103.88"/>
</g>

<g fill="none" stroke="#000000" stroke-opacity="1" stroke-width="1" stroke-linecap="square" stroke-linejoin="bevel" transform="matrix(0.998848,0,0,-0.998848,5770,7448.88)"
font-family="MS Shell Dlg 2" font-size="10.3125" font-weight="400" font-style="normal" 
>
</g>

<g fill="none" stroke="#000000" stroke-opacity="1" stroke-width="1" stroke-linecap="square" stroke-linejoin="bevel" transform="matrix(0.998848,0,0,-0.998848,5770,7448.88)"
font-family="MS Shell Dlg 2" font-size="10.3125" font-weight="400" font-style="normal" 
>
</g>

<g fill="#333333" fill-opacity="0.2" stroke="#333333" stroke-opacity="1" stroke-width="1" stroke-linecap="round" stroke-linejoin="round" transform="matrix(0.998848,0,0,-0.998848,5770,7448.88)"
font-family="MS Shell Dlg 2" font-size="10.3125" font-weight="400" font-style="normal" 
>
<path vector-effect="non-scaling-stroke" fill-rule="evenodd" d="M-5776.16,7103.88 L-5424.02,7456.02 L-5071.25,7103.25 L-5071.1,7103.12 L-5071.06,7103.1 L-5070.7,7102.95 L-5070.66,7102.94 L-5070.27,7102.94 L-5070.23,7102.95 L-5069.87,7103.1 L-5069.83,7103.12 L-5069.68,7103.25 L-5035.81,7137.11 L-4966.66,7067.95 L-4955.93,7051.9 L-4952.21,7033.17 L-4955.93,7014.43 L-4966.66,6998.38 L-5318.52,6646.52 L-5334.57,6635.79 L-5353.3,6632.07 L-5372.04,6635.79 L-5388.09,6646.52 L-5457.25,6715.68 L-5423.39,6749.54 L-5423.26,6749.69 L-5423.24,6749.73 L-5423.09,6750.09 L-5423.08,6750.13 L-5423.08,6750.52 L-5423.09,6750.56 L-5423.24,6750.92 L-5423.26,6750.96 L-5423.39,6751.11 L-5776.16,7103.88"/>
</g>

<g fill="none" stroke="#000000" stroke-opacity="1" stroke-width="1" stroke-linecap="square" stroke-linejoin="bevel" transform="matrix(0.998848,0,0,-0.998848,5770,7448.88)"
font-family="MS Shell Dlg 2" font-size="10.3125" font-weight="400" font-style="normal" 
>
</g>

<g fill="none" stroke="#000000" stroke-opacity="1" stroke-width="1" stroke-linecap="square" stroke-linejoin="bevel" transform="matrix(1,0,0,-1,0,824.95)"
font-family="MS Shell Dlg 2" font-size="10.3125" font-weight="400" font-style="normal" 
>
</g>
</g>
</svg>
