<?xml version="1.0" encoding="UTF-8" standalone="no"?>
<svg width="1502.27mm" height="2577.82mm"
 xmlns="http://www.w3.org/2000/svg" xmlns:xlink="http://www.w3.org/1999/xlink"  version="1.2" baseProfile="tiny">
<title>SVG Generator Example Drawing</title>
<desc>An SVG drawing created by the SVG Generator</desc>
<defs>
</defs>
<g fill="none" stroke="black" stroke-width="1" fill-rule="evenodd" stroke-linecap="square" stroke-linejoin="bevel" >

<g fill="none" stroke="#000000" stroke-opacity="1" stroke-width="1" stroke-linecap="square" stroke-linejoin="bevel" transform="matrix(1,0,0,-1,0,9134.38)"
font-family="MS Shell Dlg 2" font-size="10.3125" font-weight="400" font-style="normal" 
>
</g>

<g fill="none" stroke="#000000" stroke-opacity="1" stroke-width="1" stroke-linecap="square" stroke-linejoin="bevel" transform="matrix(1,0,0,-1,0,9134.38)"
font-family="MS Shell Dlg 2" font-size="10.3125" font-weight="400" font-style="normal" 
>
</g>

<g fill="none" stroke="#000000" stroke-opacity="1" stroke-width="1" stroke-linecap="square" stroke-linejoin="bevel" transform="matrix(0.999948,0,0,-0.999948,6176.75,4628.04)"
font-family="MS Shell Dlg 2" font-size="10.3125" font-weight="400" font-style="normal" 
>
</g>

<g fill="#333333" fill-opacity="0.2" stroke="#333333" stroke-opacity="1" stroke-width="1" stroke-linecap="round" stroke-linejoin="round" transform="matrix(0.999948,0,0,-0.999948,6176.75,4628.04)"
font-family="MS Shell Dlg 2" font-size="10.3125" font-weight="400" font-style="normal" 
>
<path vector-effect="non-scaling-stroke" fill-rule="evenodd" d="M-6176.57,-4474.71 L-6077.42,2385.53 L-5645.88,2687.1 L-5645.84,2687.12 L-5645.83,2687.13 L-5645.8,2687.16 L-5645.67,2687.26 L-5645.64,2687.29 L-5645.63,2687.3 L-5645.6,2687.33 L-4436.22,3896.69 L-4436.15,3896.77 L-4436.13,3896.79 L-4436.07,3896.87 L-4435.88,3897.15 L-4435.79,3897.33 L-4435.77,3897.38 L-4435.71,3897.57 L-4435.64,3897.91 L-4435.63,3898 L-4435.63,3898.03 L-4435.62,3898.13 L-4435.62,4619.04 L-854.294,4627.31 L-1017.39,-4506.07 L-6176.57,-4474.71 M-4118.78,-956.547 L-4118.78,-956.645 L-4118.78,-1456.62 L-4118.78,-1456.71 L-4118.78,-1456.74 L-4118.76,-1456.84 L-4118.69,-1457.18 L-4118.64,-1457.37 L-4118.61,-1457.42 L-4118.52,-1457.59 L-4118.34,-1457.87 L-4118.21,-1458.02 L-4118.17,-1458.06 L-4118.02,-1458.19 L-4117.75,-1458.37 L-4117.57,-1458.46 L-4117.52,-1458.48 L-4117.33,-1458.54 L-4116.99,-1458.61 L-4116.9,-1458.62 L-4116.87,-1458.63 L-4116.77,-1458.63 L-2016.8,-1458.63 L-2016.7,-1458.63 L-2016.67,-1458.62 L-2016.57,-1458.61 L-2016.23,-1458.54 L-2016.05,-1458.48 L-2015.99,-1458.46 L-2015.82,-1458.37 L-2015.55,-1458.19 L-2015.39,-1458.06 L-2015.35,-1458.02 L-2015.23,-1457.87 L-2015.04,-1457.59 L-2014.95,-1457.42 L-2014.93,-1457.37 L-2014.87,-1457.18 L-2014.81,-1456.84 L-2014.79,-1456.74 L-2014.79,-1456.71 L-2014.78,-1456.62 L-2014.78,-956.645 L-2014.79,-956.547 L-2014.79,-956.518 L-2014.81,-956.421 L-2014.87,-956.082 L-2014.93,-955.894 L-2014.95,-955.841 L-2015.04,-955.668 L-2015.23,-955.393 L-2015.35,-955.241 L-2015.39,-955.2 L-2015.55,-955.076 L-2015.82,-954.892 L-2015.99,-954.799 L-2016.05,-954.777 L-2016.23,-954.72 L-2016.57,-954.653 L-2016.67,-954.638 L-2016.7,-954.635 L-2016.8,-954.631 L-2565.85,-954.631 L-2585.86,-950.404 L-2602.28,-938.572 L-2612.61,-920.928 L-2631.82,-863.306 L-2634.28,-844.853 L-2629.79,-826.985 L-2619.02,-812.04 L-2615.72,-809.933 L-2615.65,-809.885 L-2615.63,-809.87 L-2615.57,-809.816 L-2615.35,-809.618 L-2615.23,-809.496 L-2615.2,-809.457 L-2615.11,-809.318 L-2614.97,-809.071 L-2614.91,-808.918 L-2614.89,-808.871 L-2614.85,-808.709 L-2614.8,-808.418 L-2614.79,-808.335 L-2614.79,-808.31 L-2614.78,-808.227 L-2614.78,-756.645 L-2614.79,-756.547 L-2614.79,-756.518 L-2614.81,-756.421 L-2614.87,-756.082 L-2614.93,-755.894 L-2614.95,-755.841 L-2615.04,-755.668 L-2615.23,-755.393 L-2615.35,-755.241 L-2615.39,-755.2 L-2615.55,-755.076 L-2615.82,-754.892 L-2615.99,-754.799 L-2616.05,-754.777 L-2616.23,-754.72 L-2616.57,-754.653 L-2616.67,-754.638 L-2616.7,-754.635 L-2616.8,-754.631 L-3516.77,-754.631 L-3516.87,-754.635 L-3516.9,-754.638 L-3516.99,-754.653 L-3517.33,-754.72 L-3517.52,-754.777 L-3517.57,-754.799 L-3517.75,-754.892 L-3518.02,-755.076 L-3518.17,-755.2 L-3518.21,-755.241 L-3518.34,-755.393 L-3518.52,-755.668 L-3518.61,-755.841 L-3518.64,-755.894 L-3518.69,-756.082 L-3518.76,-756.421 L-3518.78,-756.518 L-3518.78,-756.547 L-3518.78,-756.645 L-3518.78,-808.227 L-3518.78,-808.31 L-3518.78,-808.335 L-3518.77,-808.418 L-3518.72,-808.709 L-3518.68,-808.871 L-3518.66,-808.918 L-3518.59,-809.071 L-3518.46,-809.318 L-3518.36,-809.457 L-3518.33,-809.496 L-3518.22,-809.618 L-3518,-809.816 L-3517.94,-809.87 L-3517.92,-809.885 L-3517.85,-809.933 L-3514.54,-812.04 L-3503.77,-826.985 L-3499.29,-844.853 L-3501.75,-863.306 L-3520.95,-920.928 L-3531.29,-938.572 L-3547.71,-950.404 L-3567.71,-954.631 L-4116.77,-954.631 L-4116.87,-954.635 L-4116.9,-954.638 L-4116.99,-954.653 L-4117.33,-954.72 L-4117.52,-954.777 L-4117.57,-954.799 L-4117.75,-954.892 L-4118.02,-955.076 L-4118.17,-955.2 L-4118.21,-955.241 L-4118.34,-955.393 L-4118.52,-955.668 L-4118.61,-955.841 L-4118.64,-955.894 L-4118.69,-956.082 L-4118.76,-956.421 L-4118.78,-956.518 L-4118.78,-956.547"/>
</g>

<g fill="none" stroke="#000000" stroke-opacity="1" stroke-width="1" stroke-linecap="square" stroke-linejoin="bevel" transform="matrix(0.999948,0,0,-0.999948,6176.75,4628.04)"
font-family="MS Shell Dlg 2" font-size="10.3125" font-weight="400" font-style="normal" 
>
</g>

<g fill="none" stroke="#000000" stroke-opacity="1" stroke-width="1" stroke-linecap="square" stroke-linejoin="bevel" transform="matrix(0.999948,0,0,-0.999948,6176.75,4628.04)"
font-family="MS Shell Dlg 2" font-size="10.3125" font-weight="400" font-style="normal" 
>
</g>

<g fill="#ae5151" fill-opacity="0.2" stroke="#333333" stroke-opacity="1" stroke-width="1" stroke-linecap="round" stroke-linejoin="round" transform="matrix(0.999948,0,0,-0.999948,6176.75,4628.04)"
font-family="MS Shell Dlg 2" font-size="10.3125" font-weight="400" font-style="normal" 
>
<path vector-effect="non-scaling-stroke" fill-rule="evenodd" d="M-6176.57,-4474.71 L-6077.42,2385.53 L-5645.88,2687.1 L-5645.84,2687.12 L-5645.83,2687.13 L-5645.8,2687.16 L-5645.67,2687.26 L-5645.64,2687.29 L-5645.63,2687.3 L-5645.6,2687.33 L-4436.22,3896.69 L-4436.15,3896.77 L-4436.13,3896.79 L-4436.07,3896.87 L-4435.88,3897.15 L-4435.79,3897.33 L-4435.77,3897.38 L-4435.71,3897.57 L-4435.64,3897.91 L-4435.63,3898 L-4435.63,3898.03 L-4435.62,3898.13 L-4435.62,4619.04 L-854.294,4627.31 L-1017.39,-4506.07 L-6176.57,-4474.71 M-4118.78,-956.547 L-4118.78,-956.645 L-4118.78,-1456.62 L-4118.78,-1456.71 L-4118.78,-1456.74 L-4118.76,-1456.84 L-4118.69,-1457.18 L-4118.64,-1457.37 L-4118.61,-1457.42 L-4118.52,-1457.59 L-4118.34,-1457.87 L-4118.21,-1458.02 L-4118.17,-1458.06 L-4118.02,-1458.19 L-4117.75,-1458.37 L-4117.57,-1458.46 L-4117.52,-1458.48 L-4117.33,-1458.54 L-4116.99,-1458.61 L-4116.9,-1458.62 L-4116.87,-1458.63 L-4116.77,-1458.63 L-2016.8,-1458.63 L-2016.7,-1458.63 L-2016.67,-1458.62 L-2016.57,-1458.61 L-2016.23,-1458.54 L-2016.05,-1458.48 L-2015.99,-1458.46 L-2015.82,-1458.37 L-2015.55,-1458.19 L-2015.39,-1458.06 L-2015.35,-1458.02 L-2015.23,-1457.87 L-2015.04,-1457.59 L-2014.95,-1457.42 L-2014.93,-1457.37 L-2014.87,-1457.18 L-2014.81,-1456.84 L-2014.79,-1456.74 L-2014.79,-1456.71 L-2014.78,-1456.62 L-2014.78,-956.645 L-2014.79,-956.547 L-2014.79,-956.518 L-2014.81,-956.421 L-2014.87,-956.082 L-2014.93,-955.894 L-2014.95,-955.841 L-2015.04,-955.668 L-2015.23,-955.393 L-2015.35,-955.241 L-2015.39,-955.2 L-2015.55,-955.076 L-2015.82,-954.892 L-2015.99,-954.799 L-2016.05,-954.777 L-2016.23,-954.72 L-2016.57,-954.653 L-2016.67,-954.638 L-2016.7,-954.635 L-2016.8,-954.631 L-2565.85,-954.631 L-2585.86,-950.404 L-2602.28,-938.572 L-2612.61,-920.928 L-2631.82,-863.306 L-2634.28,-844.853 L-2629.79,-826.985 L-2619.02,-812.04 L-2615.72,-809.933 L-2615.65,-809.885 L-2615.63,-809.87 L-2615.57,-809.816 L-2615.35,-809.618 L-2615.23,-809.496 L-2615.2,-809.457 L-2615.11,-809.318 L-2614.97,-809.071 L-2614.91,-808.918 L-2614.89,-808.871 L-2614.85,-808.709 L-2614.8,-808.418 L-2614.79,-808.335 L-2614.79,-808.31 L-2614.78,-808.227 L-2614.78,-756.645 L-2614.79,-756.547 L-2614.79,-756.518 L-2614.81,-756.421 L-2614.87,-756.082 L-2614.93,-755.894 L-2614.95,-755.841 L-2615.04,-755.668 L-2615.23,-755.393 L-2615.35,-755.241 L-2615.39,-755.2 L-2615.55,-755.076 L-2615.82,-754.892 L-2615.99,-754.799 L-2616.05,-754.777 L-2616.23,-754.72 L-2616.57,-754.653 L-2616.67,-754.638 L-2616.7,-754.635 L-2616.8,-754.631 L-3516.77,-754.631 L-3516.87,-754.635 L-3516.9,-754.638 L-3516.99,-754.653 L-3517.33,-754.72 L-3517.52,-754.777 L-3517.57,-754.799 L-3517.75,-754.892 L-3518.02,-755.076 L-3518.17,-755.2 L-3518.21,-755.241 L-3518.34,-755.393 L-3518.52,-755.668 L-3518.61,-755.841 L-3518.64,-755.894 L-3518.69,-756.082 L-3518.76,-756.421 L-3518.78,-756.518 L-3518.78,-756.547 L-3518.78,-756.645 L-3518.78,-808.227 L-3518.78,-808.31 L-3518.78,-808.335 L-3518.77,-808.418 L-3518.72,-808.709 L-3518.68,-808.871 L-3518.66,-808.918 L-3518.59,-809.071 L-3518.46,-809.318 L-3518.36,-809.457 L-3518.33,-809.496 L-3518.22,-809.618 L-3518,-809.816 L-3517.94,-809.87 L-3517.92,-809.885 L-3517.85,-809.933 L-3514.54,-812.04 L-3503.77,-826.985 L-3499.29,-844.853 L-3501.75,-863.306 L-3520.95,-920.928 L-3531.29,-938.572 L-3547.71,-950.404 L-3567.71,-954.631 L-4116.77,-954.631 L-4116.87,-954.635 L-4116.9,-954.638 L-4116.99,-954.653 L-4117.33,-954.72 L-4117.52,-954.777 L-4117.57,-954.799 L-4117.75,-954.892 L-4118.02,-955.076 L-4118.17,-955.2 L-4118.21,-955.241 L-4118.34,-955.393 L-4118.52,-955.668 L-4118.61,-955.841 L-4118.64,-955.894 L-4118.69,-956.082 L-4118.76,-956.421 L-4118.78,-956.518 L-4118.78,-956.547"/>
</g>

<g fill="none" stroke="#000000" stroke-opacity="1" stroke-width="1" stroke-linecap="square" stroke-linejoin="bevel" transform="matrix(0.999948,0,0,-0.999948,6176.75,4628.04)"
font-family="MS Shell Dlg 2" font-size="10.3125" font-weight="400" font-style="normal" 
>
</g>

<g fill="none" stroke="#000000" stroke-opacity="1" stroke-width="1" stroke-linecap="square" stroke-linejoin="bevel" transform="matrix(0.999948,0,0,-0.999948,6176.75,4628.04)"
font-family="MS Shell Dlg 2" font-size="10.3125" font-weight="400" font-style="normal" 
>
</g>

<g fill="#ffff00" fill-opacity="0.2" stroke="#333333" stroke-opacity="1" stroke-width="1" stroke-linecap="round" stroke-linejoin="round" transform="matrix(0.999948,0,0,-0.999948,6176.75,4628.04)"
font-family="MS Shell Dlg 2" font-size="10.3125" font-weight="400" font-style="normal" 
>
<path vector-effect="non-scaling-stroke" fill-rule="evenodd" d="M-6176.57,-4474.71 L-6077.42,2385.53 L-5645.88,2687.1 L-5645.84,2687.12 L-5645.83,2687.13 L-5645.8,2687.16 L-5645.67,2687.26 L-5645.64,2687.29 L-5645.63,2687.3 L-5645.6,2687.33 L-4436.22,3896.69 L-4436.15,3896.77 L-4436.13,3896.79 L-4436.07,3896.87 L-4435.88,3897.15 L-4435.79,3897.33 L-4435.77,3897.38 L-4435.71,3897.57 L-4435.64,3897.91 L-4435.63,3898 L-4435.63,3898.03 L-4435.62,3898.13 L-4435.62,4619.04 L-854.294,4627.31 L-1017.39,-4506.07 L-6176.57,-4474.71 M-4118.78,-956.547 L-4118.78,-956.645 L-4118.78,-1456.62 L-4118.78,-1456.71 L-4118.78,-1456.74 L-4118.76,-1456.84 L-4118.69,-1457.18 L-4118.64,-1457.37 L-4118.61,-1457.42 L-4118.52,-1457.59 L-4118.34,-1457.87 L-4118.21,-1458.02 L-4118.17,-1458.06 L-4118.02,-1458.19 L-4117.75,-1458.37 L-4117.57,-1458.46 L-4117.52,-1458.48 L-4117.33,-1458.54 L-4116.99,-1458.61 L-4116.9,-1458.62 L-4116.87,-1458.63 L-4116.77,-1458.63 L-2016.8,-1458.63 L-2016.7,-1458.63 L-2016.67,-1458.62 L-2016.57,-1458.61 L-2016.23,-1458.54 L-2016.05,-1458.48 L-2015.99,-1458.46 L-2015.82,-1458.37 L-2015.55,-1458.19 L-2015.39,-1458.06 L-2015.35,-1458.02 L-2015.23,-1457.87 L-2015.04,-1457.59 L-2014.95,-1457.42 L-2014.93,-1457.37 L-2014.87,-1457.18 L-2014.81,-1456.84 L-2014.79,-1456.74 L-2014.79,-1456.71 L-2014.78,-1456.62 L-2014.78,-956.645 L-2014.79,-956.547 L-2014.79,-956.518 L-2014.81,-956.421 L-2014.87,-956.082 L-2014.93,-955.894 L-2014.95,-955.841 L-2015.04,-955.668 L-2015.23,-955.393 L-2015.35,-955.241 L-2015.39,-955.2 L-2015.55,-955.076 L-2015.82,-954.892 L-2015.99,-954.799 L-2016.05,-954.777 L-2016.23,-954.72 L-2016.57,-954.653 L-2016.67,-954.638 L-2016.7,-954.635 L-2016.8,-954.631 L-2565.85,-954.631 L-2585.86,-950.404 L-2602.28,-938.572 L-2612.61,-920.928 L-2631.82,-863.306 L-2634.28,-844.853 L-2629.79,-826.985 L-2619.02,-812.04 L-2615.72,-809.933 L-2615.65,-809.885 L-2615.63,-809.87 L-2615.57,-809.816 L-2615.35,-809.618 L-2615.23,-809.496 L-2615.2,-809.457 L-2615.11,-809.318 L-2614.97,-809.071 L-2614.91,-808.918 L-2614.89,-808.871 L-2614.85,-808.709 L-2614.8,-808.418 L-2614.79,-808.335 L-2614.79,-808.31 L-2614.78,-808.227 L-2614.78,-756.645 L-2614.79,-756.547 L-2614.79,-756.518 L-2614.81,-756.421 L-2614.87,-756.082 L-2614.93,-755.894 L-2614.95,-755.841 L-2615.04,-755.668 L-2615.23,-755.393 L-2615.35,-755.241 L-2615.39,-755.2 L-2615.55,-755.076 L-2615.82,-754.892 L-2615.99,-754.799 L-2616.05,-754.777 L-2616.23,-754.72 L-2616.57,-754.653 L-2616.67,-754.638 L-2616.7,-754.635 L-2616.8,-754.631 L-3516.77,-754.631 L-3516.87,-754.635 L-3516.9,-754.638 L-3516.99,-754.653 L-3517.33,-754.72 L-3517.52,-754.777 L-3517.57,-754.799 L-3517.75,-754.892 L-3518.02,-755.076 L-3518.17,-755.2 L-3518.21,-755.241 L-3518.34,-755.393 L-3518.52,-755.668 L-3518.61,-755.841 L-3518.64,-755.894 L-3518.69,-756.082 L-3518.76,-756.421 L-3518.78,-756.518 L-3518.78,-756.547 L-3518.78,-756.645 L-3518.78,-808.227 L-3518.78,-808.31 L-3518.78,-808.335 L-3518.77,-808.418 L-3518.72,-808.709 L-3518.68,-808.871 L-3518.66,-808.918 L-3518.59,-809.071 L-3518.46,-809.318 L-3518.36,-809.457 L-3518.33,-809.496 L-3518.22,-809.618 L-3518,-809.816 L-3517.94,-809.87 L-3517.92,-809.885 L-3517.85,-809.933 L-3514.54,-812.04 L-3503.77,-826.985 L-3499.29,-844.853 L-3501.75,-863.306 L-3520.95,-920.928 L-3531.29,-938.572 L-3547.71,-950.404 L-3567.71,-954.631 L-4116.77,-954.631 L-4116.87,-954.635 L-4116.9,-954.638 L-4116.99,-954.653 L-4117.33,-954.72 L-4117.52,-954.777 L-4117.57,-954.799 L-4117.75,-954.892 L-4118.02,-955.076 L-4118.17,-955.2 L-4118.21,-955.241 L-4118.34,-955.393 L-4118.52,-955.668 L-4118.61,-955.841 L-4118.64,-955.894 L-4118.69,-956.082 L-4118.76,-956.421 L-4118.78,-956.518 L-4118.78,-956.547"/>
</g>

<g fill="none" stroke="#000000" stroke-opacity="1" stroke-width="1" stroke-linecap="square" stroke-linejoin="bevel" transform="matrix(0.999948,0,0,-0.999948,6176.75,4628.04)"
font-family="MS Shell Dlg 2" font-size="10.3125" font-weight="400" font-style="normal" 
>
</g>

<g fill="none" stroke="#000000" stroke-opacity="1" stroke-width="1" stroke-linecap="square" stroke-linejoin="bevel" transform="matrix(0.999948,0,0,-0.999948,6176.75,4628.04)"
font-family="MS Shell Dlg 2" font-size="10.3125" font-weight="400" font-style="normal" 
>
</g>

<g fill="#ae5151" fill-opacity="0.2" stroke="#333333" stroke-opacity="1" stroke-width="1" stroke-linecap="round" stroke-linejoin="round" transform="matrix(0.999948,0,0,-0.999948,6176.75,4628.04)"
font-family="MS Shell Dlg 2" font-size="10.3125" font-weight="400" font-style="normal" 
>
<path vector-effect="non-scaling-stroke" fill-rule="evenodd" d="M-6176.57,-4474.71 L-6077.42,2385.53 L-5645.88,2687.1 L-5645.84,2687.12 L-5645.83,2687.13 L-5645.8,2687.16 L-5645.67,2687.26 L-5645.64,2687.29 L-5645.63,2687.3 L-5645.6,2687.33 L-4436.22,3896.69 L-4436.15,3896.77 L-4436.13,3896.79 L-4436.07,3896.87 L-4435.88,3897.15 L-4435.79,3897.33 L-4435.77,3897.38 L-4435.71,3897.57 L-4435.64,3897.91 L-4435.63,3898 L-4435.63,3898.03 L-4435.62,3898.13 L-4435.62,4619.04 L-854.294,4627.31 L-1017.39,-4506.07 L-6176.57,-4474.71 M-4118.78,-956.547 L-4118.78,-956.645 L-4118.78,-1456.62 L-4118.78,-1456.71 L-4118.78,-1456.74 L-4118.76,-1456.84 L-4118.69,-1457.18 L-4118.64,-1457.37 L-4118.61,-1457.42 L-4118.52,-1457.59 L-4118.34,-1457.87 L-4118.21,-1458.02 L-4118.17,-1458.06 L-4118.02,-1458.19 L-4117.75,-1458.37 L-4117.57,-1458.46 L-4117.52,-1458.48 L-4117.33,-1458.54 L-4116.99,-1458.61 L-4116.9,-1458.62 L-4116.87,-1458.63 L-4116.77,-1458.63 L-2016.8,-1458.63 L-2016.7,-1458.63 L-2016.67,-1458.62 L-2016.57,-1458.61 L-2016.23,-1458.54 L-2016.05,-1458.48 L-2015.99,-1458.46 L-2015.82,-1458.37 L-2015.55,-1458.19 L-2015.39,-1458.06 L-2015.35,-1458.02 L-2015.23,-1457.87 L-2015.04,-1457.59 L-2014.95,-1457.42 L-2014.93,-1457.37 L-2014.87,-1457.18 L-2014.81,-1456.84 L-2014.79,-1456.74 L-2014.79,-1456.71 L-2014.78,-1456.62 L-2014.78,-956.645 L-2014.79,-956.547 L-2014.79,-956.518 L-2014.81,-956.421 L-2014.87,-956.082 L-2014.93,-955.894 L-2014.95,-955.841 L-2015.04,-955.668 L-2015.23,-955.393 L-2015.35,-955.241 L-2015.39,-955.2 L-2015.55,-955.076 L-2015.82,-954.892 L-2015.99,-954.799 L-2016.05,-954.777 L-2016.23,-954.72 L-2016.57,-954.653 L-2016.67,-954.638 L-2016.7,-954.635 L-2016.8,-954.631 L-2565.85,-954.631 L-2585.86,-950.404 L-2602.28,-938.572 L-2612.61,-920.928 L-2631.82,-863.306 L-2634.28,-844.853 L-2629.79,-826.985 L-2619.02,-812.04 L-2615.72,-809.933 L-2615.65,-809.885 L-2615.63,-809.87 L-2615.57,-809.816 L-2615.35,-809.618 L-2615.23,-809.496 L-2615.2,-809.457 L-2615.11,-809.318 L-2614.97,-809.071 L-2614.91,-808.918 L-2614.89,-808.871 L-2614.85,-808.709 L-2614.8,-808.418 L-2614.79,-808.335 L-2614.79,-808.31 L-2614.78,-808.227 L-2614.78,-756.645 L-2614.79,-756.547 L-2614.79,-756.518 L-2614.81,-756.421 L-2614.87,-756.082 L-2614.93,-755.894 L-2614.95,-755.841 L-2615.04,-755.668 L-2615.23,-755.393 L-2615.35,-755.241 L-2615.39,-755.2 L-2615.55,-755.076 L-2615.82,-754.892 L-2615.99,-754.799 L-2616.05,-754.777 L-2616.23,-754.72 L-2616.57,-754.653 L-2616.67,-754.638 L-2616.7,-754.635 L-2616.8,-754.631 L-3516.77,-754.631 L-3516.87,-754.635 L-3516.9,-754.638 L-3516.99,-754.653 L-3517.33,-754.72 L-3517.52,-754.777 L-3517.57,-754.799 L-3517.75,-754.892 L-3518.02,-755.076 L-3518.17,-755.2 L-3518.21,-755.241 L-3518.34,-755.393 L-3518.52,-755.668 L-3518.61,-755.841 L-3518.64,-755.894 L-3518.69,-756.082 L-3518.76,-756.421 L-3518.78,-756.518 L-3518.78,-756.547 L-3518.78,-756.645 L-3518.78,-808.227 L-3518.78,-808.31 L-3518.78,-808.335 L-3518.77,-808.418 L-3518.72,-808.709 L-3518.68,-808.871 L-3518.66,-808.918 L-3518.59,-809.071 L-3518.46,-809.318 L-3518.36,-809.457 L-3518.33,-809.496 L-3518.22,-809.618 L-3518,-809.816 L-3517.94,-809.87 L-3517.92,-809.885 L-3517.85,-809.933 L-3514.54,-812.04 L-3503.77,-826.985 L-3499.29,-844.853 L-3501.75,-863.306 L-3520.95,-920.928 L-3531.29,-938.572 L-3547.71,-950.404 L-3567.71,-954.631 L-4116.77,-954.631 L-4116.87,-954.635 L-4116.9,-954.638 L-4116.99,-954.653 L-4117.33,-954.72 L-4117.52,-954.777 L-4117.57,-954.799 L-4117.75,-954.892 L-4118.02,-955.076 L-4118.17,-955.2 L-4118.21,-955.241 L-4118.34,-955.393 L-4118.52,-955.668 L-4118.61,-955.841 L-4118.64,-955.894 L-4118.69,-956.082 L-4118.76,-956.421 L-4118.78,-956.518 L-4118.78,-956.547"/>
</g>

<g fill="none" stroke="#000000" stroke-opacity="1" stroke-width="1" stroke-linecap="square" stroke-linejoin="bevel" transform="matrix(0.999948,0,0,-0.999948,6176.75,4628.04)"
font-family="MS Shell Dlg 2" font-size="10.3125" font-weight="400" font-style="normal" 
>
</g>

<g fill="none" stroke="#000000" stroke-opacity="1" stroke-width="1" stroke-linecap="square" stroke-linejoin="bevel" transform="matrix(0.999948,0,0,-0.999948,6176.75,4628.04)"
font-family="MS Shell Dlg 2" font-size="10.3125" font-weight="400" font-style="normal" 
>
</g>

<g fill="#333333" fill-opacity="0.2" stroke="#333333" stroke-opacity="1" stroke-width="1" stroke-linecap="round" stroke-linejoin="round" transform="matrix(0.999948,0,0,-0.999948,6176.75,4628.04)"
font-family="MS Shell Dlg 2" font-size="10.3125" font-weight="400" font-style="normal" 
>
<path vector-effect="non-scaling-stroke" fill-rule="evenodd" d="M-6176.57,-4474.71 L-6077.42,2385.53 L-5645.88,2687.1 L-5645.84,2687.12 L-5645.83,2687.13 L-5645.8,2687.16 L-5645.67,2687.26 L-5645.64,2687.29 L-5645.63,2687.3 L-5645.6,2687.33 L-4436.22,3896.69 L-4436.15,3896.77 L-4436.13,3896.79 L-4436.07,3896.87 L-4435.88,3897.15 L-4435.79,3897.33 L-4435.77,3897.38 L-4435.71,3897.57 L-4435.64,3897.91 L-4435.63,3898 L-4435.63,3898.03 L-4435.62,3898.13 L-4435.62,4619.04 L-854.294,4627.31 L-1017.39,-4506.07 L-6176.57,-4474.71 M-4118.78,-956.547 L-4118.78,-956.645 L-4118.78,-1456.62 L-4118.78,-1456.71 L-4118.78,-1456.74 L-4118.76,-1456.84 L-4118.69,-1457.18 L-4118.64,-1457.37 L-4118.61,-1457.42 L-4118.52,-1457.59 L-4118.34,-1457.87 L-4118.21,-1458.02 L-4118.17,-1458.06 L-4118.02,-1458.19 L-4117.75,-1458.37 L-4117.57,-1458.46 L-4117.52,-1458.48 L-4117.33,-1458.54 L-4116.99,-1458.61 L-4116.9,-1458.62 L-4116.87,-1458.63 L-4116.77,-1458.63 L-2016.8,-1458.63 L-2016.7,-1458.63 L-2016.67,-1458.62 L-2016.57,-1458.61 L-2016.23,-1458.54 L-2016.05,-1458.48 L-2015.99,-1458.46 L-2015.82,-1458.37 L-2015.55,-1458.19 L-2015.39,-1458.06 L-2015.35,-1458.02 L-2015.23,-1457.87 L-2015.04,-1457.59 L-2014.95,-1457.42 L-2014.93,-1457.37 L-2014.87,-1457.18 L-2014.81,-1456.84 L-2014.79,-1456.74 L-2014.79,-1456.71 L-2014.78,-1456.62 L-2014.78,-956.645 L-2014.79,-956.547 L-2014.79,-956.518 L-2014.81,-956.421 L-2014.87,-956.082 L-2014.93,-955.894 L-2014.95,-955.841 L-2015.04,-955.668 L-2015.23,-955.393 L-2015.35,-955.241 L-2015.39,-955.2 L-2015.55,-955.076 L-2015.82,-954.892 L-2015.99,-954.799 L-2016.05,-954.777 L-2016.23,-954.72 L-2016.57,-954.653 L-2016.67,-954.638 L-2016.7,-954.635 L-2016.8,-954.631 L-2565.85,-954.631 L-2585.86,-950.404 L-2602.28,-938.572 L-2612.61,-920.928 L-2631.82,-863.306 L-2634.28,-844.853 L-2629.79,-826.985 L-2619.02,-812.04 L-2615.72,-809.933 L-2615.65,-809.885 L-2615.63,-809.87 L-2615.57,-809.816 L-2615.35,-809.618 L-2615.23,-809.496 L-2615.2,-809.457 L-2615.11,-809.318 L-2614.97,-809.071 L-2614.91,-808.918 L-2614.89,-808.871 L-2614.85,-808.709 L-2614.8,-808.418 L-2614.79,-808.335 L-2614.79,-808.31 L-2614.78,-808.227 L-2614.78,-756.645 L-2614.79,-756.547 L-2614.79,-756.518 L-2614.81,-756.421 L-2614.87,-756.082 L-2614.93,-755.894 L-2614.95,-755.841 L-2615.04,-755.668 L-2615.23,-755.393 L-2615.35,-755.241 L-2615.39,-755.2 L-2615.55,-755.076 L-2615.82,-754.892 L-2615.99,-754.799 L-2616.05,-754.777 L-2616.23,-754.72 L-2616.57,-754.653 L-2616.67,-754.638 L-2616.7,-754.635 L-2616.8,-754.631 L-3516.77,-754.631 L-3516.87,-754.635 L-3516.9,-754.638 L-3516.99,-754.653 L-3517.33,-754.72 L-3517.52,-754.777 L-3517.57,-754.799 L-3517.75,-754.892 L-3518.02,-755.076 L-3518.17,-755.2 L-3518.21,-755.241 L-3518.34,-755.393 L-3518.52,-755.668 L-3518.61,-755.841 L-3518.64,-755.894 L-3518.69,-756.082 L-3518.76,-756.421 L-3518.78,-756.518 L-3518.78,-756.547 L-3518.78,-756.645 L-3518.78,-808.227 L-3518.78,-808.31 L-3518.78,-808.335 L-3518.77,-808.418 L-3518.72,-808.709 L-3518.68,-808.871 L-3518.66,-808.918 L-3518.59,-809.071 L-3518.46,-809.318 L-3518.36,-809.457 L-3518.33,-809.496 L-3518.22,-809.618 L-3518,-809.816 L-3517.94,-809.87 L-3517.92,-809.885 L-3517.85,-809.933 L-3514.54,-812.04 L-3503.77,-826.985 L-3499.29,-844.853 L-3501.75,-863.306 L-3520.95,-920.928 L-3531.29,-938.572 L-3547.71,-950.404 L-3567.71,-954.631 L-4116.77,-954.631 L-4116.87,-954.635 L-4116.9,-954.638 L-4116.99,-954.653 L-4117.33,-954.72 L-4117.52,-954.777 L-4117.57,-954.799 L-4117.75,-954.892 L-4118.02,-955.076 L-4118.17,-955.2 L-4118.21,-955.241 L-4118.34,-955.393 L-4118.52,-955.668 L-4118.61,-955.841 L-4118.64,-955.894 L-4118.69,-956.082 L-4118.76,-956.421 L-4118.78,-956.518 L-4118.78,-956.547"/>
</g>

<g fill="none" stroke="#000000" stroke-opacity="1" stroke-width="1" stroke-linecap="square" stroke-linejoin="bevel" transform="matrix(0.999948,0,0,-0.999948,6176.75,4628.04)"
font-family="MS Shell Dlg 2" font-size="10.3125" font-weight="400" font-style="normal" 
>
</g>

<g fill="none" stroke="#000000" stroke-opacity="1" stroke-width="1" stroke-linecap="square" stroke-linejoin="bevel" transform="matrix(1,0,0,-1,0,9134.38)"
font-family="MS Shell Dlg 2" font-size="10.3125" font-weight="400" font-style="normal" 
>
</g>
</g>
</svg>
