<?xml version="1.0" encoding="UTF-8" standalone="no"?>
<svg width="3990.34mm" height="5148.86mm"
 xmlns="http://www.w3.org/2000/svg" xmlns:xlink="http://www.w3.org/1999/xlink"  version="1.2" baseProfile="tiny">
<title>SVG Generator Example Drawing</title>
<desc>An SVG drawing created by the SVG Generator</desc>
<defs>
</defs>
<g fill="none" stroke="black" stroke-width="1" fill-rule="evenodd" stroke-linecap="square" stroke-linejoin="bevel" >

<g fill="none" stroke="#000000" stroke-opacity="1" stroke-width="1" stroke-linecap="square" stroke-linejoin="bevel" transform="matrix(1,0,0,-1,0,18244.1)"
font-family="MS Shell Dlg 2" font-size="10.3125" font-weight="400" font-style="normal" 
>
</g>

<g fill="none" stroke="#000000" stroke-opacity="1" stroke-width="1" stroke-linecap="square" stroke-linejoin="bevel" transform="matrix(1,0,0,-1,0,18244.1)"
font-family="MS Shell Dlg 2" font-size="10.3125" font-weight="400" font-style="normal" 
>
</g>

<g fill="none" stroke="#000000" stroke-opacity="1" stroke-width="1" stroke-linecap="square" stroke-linejoin="bevel" transform="matrix(0.999935,0,0,-0.999935,21276.8,9950.17)"
font-family="MS Shell Dlg 2" font-size="10.3125" font-weight="400" font-style="normal" 
>
</g>

<g fill="#333333" fill-opacity="0.2" stroke="#333333" stroke-opacity="1" stroke-width="1" stroke-linecap="round" stroke-linejoin="round" transform="matrix(0.999935,0,0,-0.999935,21276.8,9950.17)"
font-family="MS Shell Dlg 2" font-size="10.3125" font-weight="400" font-style="normal" 
>
<path vector-effect="non-scaling-stroke" fill-rule="evenodd" d="M-19175.1,4990.54 L-19177,4991.57 L-19178.2,4993.29 L-19178.7,4995.39 L-19178.2,4997.47 L-18069.8,7339.9 L-18069.4,7340.67 L-18059,7355.13 L-18058.4,7355.81 L-16047.5,9311.14 L-16046.7,9311.76 L-16030.1,9322.45 L-16029.3,9322.9 L-14436.1,9948.78 L-14434.4,9949.13 L-14432.6,9948.85 L-14431.1,9947.98 L-14430,9946.63 L-14429.4,9944.97 L-14131.4,8199.56 L-14131.5,8197.39 L-14132.5,8195.47 L-14134.2,8194.16 L-14975.1,7813.2 L-16346.4,6933.49 L-16933.8,6246.35 L-17693.9,4556.18 L-17694.9,4554.71 L-17696.4,4553.69 L-17698.1,4553.24 L-17699.9,4553.44 L-19175.1,4990.54"/>
</g>

<g fill="none" stroke="#000000" stroke-opacity="1" stroke-width="1" stroke-linecap="square" stroke-linejoin="bevel" transform="matrix(0.999935,0,0,-0.999935,21276.8,9950.17)"
font-family="MS Shell Dlg 2" font-size="10.3125" font-weight="400" font-style="normal" 
>
</g>

<g fill="none" stroke="#000000" stroke-opacity="1" stroke-width="1" stroke-linecap="square" stroke-linejoin="bevel" transform="matrix(0.999935,0,0,-0.999935,21276.8,9950.17)"
font-family="MS Shell Dlg 2" font-size="10.3125" font-weight="400" font-style="normal" 
>
</g>

<g fill="#333333" fill-opacity="0.2" stroke="#333333" stroke-opacity="1" stroke-width="1" stroke-linecap="round" stroke-linejoin="round" transform="matrix(0.999935,0,0,-0.999935,21276.8,9950.17)"
font-family="MS Shell Dlg 2" font-size="10.3125" font-weight="400" font-style="normal" 
>
<path vector-effect="non-scaling-stroke" fill-rule="evenodd" d="M-21277.7,-3270.34 L-21277.4,-3268.46 L-21276.4,-3266.82 L-21274.9,-3265.67 L-21273.1,-3265.16 L-19293.6,-3112.89 L-19291.7,-3113.1 L-19290.1,-3113.97 L-19288.8,-3115.39 L-19288.2,-3117.16 L-18966.9,-5331.06 L-17953.3,-5980.82 L-16324.5,-6515.1 L-15405.4,-6153.15 L-14691.8,-5439.67 L-14691.7,-5439.55 L-14689.1,-5437.17 L-14689,-5437.05 L-14099.7,-4924.8 L-14098.2,-4923.88 L-14096.4,-4923.57 L-13314.6,-4928.33 L-13312.7,-4928.73 L-13311,-4929.85 L-13310,-4931.51 L-13309.6,-4933.46 L-13396.8,-8289.11 L-13397.2,-8290.98 L-13398.3,-8292.56 L-13399.9,-8293.61 L-13401.8,-8293.98 L-17977.8,-8293.98 L-17979.1,-8293.79 L-18005.4,-8286.33 L-18006.7,-8285.77 L-20303.3,-6866.81 L-20304.3,-6866.04 L-20321.3,-6848.55 L-20322,-6847.57 L-21191.2,-5345.29 L-21191.7,-5344.18 L-21198.3,-5321.07 L-21198.5,-5319.88 L-21277.7,-3270.34"/>
</g>

<g fill="none" stroke="#000000" stroke-opacity="1" stroke-width="1" stroke-linecap="square" stroke-linejoin="bevel" transform="matrix(0.999935,0,0,-0.999935,21276.8,9950.17)"
font-family="MS Shell Dlg 2" font-size="10.3125" font-weight="400" font-style="normal" 
>
</g>

<g fill="none" stroke="#000000" stroke-opacity="1" stroke-width="1" stroke-linecap="square" stroke-linejoin="bevel" transform="matrix(0.999935,0,0,-0.999935,21276.8,9950.17)"
font-family="MS Shell Dlg 2" font-size="10.3125" font-weight="400" font-style="normal" 
>
</g>

<g fill="#333333" fill-opacity="0.2" stroke="#333333" stroke-opacity="1" stroke-width="1" stroke-linecap="round" stroke-linejoin="round" transform="matrix(0.999935,0,0,-0.999935,21276.8,9950.17)"
font-family="MS Shell Dlg 2" font-size="10.3125" font-weight="400" font-style="normal" 
>
<path vector-effect="non-scaling-stroke" fill-rule="evenodd" d="M-18005.2,367.523 L-18005.2,368.552 L-18002.2,388.615 L-18001.5,390.537 L-17999.3,393.918 L-17998.1,395.242 L-17996.5,396.052 L-17994.7,396.243 L-17993,395.79 L-15635.6,-701.811 L-15634.2,-702.842 L-15633.2,-704.318 L-15632.7,-706.053 L-15544.8,-2215.35 L-15544.8,-774.964 L-15544.7,-773.967 L-15540.8,-754.641 L-15540,-752.806 L-15539,-751.397 L-15537.8,-750.152 L-15536.2,-749.405 L-15534.5,-749.246 L-15532.8,-749.696 L-14140.9,-1397.76 L-13943.8,-1397.76 L-13942.1,-1398.05 L-13940.7,-1398.89 L-13939.5,-1400.19 L-13938.9,-1401.78 L-13938.9,-1401.98 L-13938.8,-1402.96 L-13938.8,-3081.93 L-13938.9,-3082.91 L-13942.6,-3101.84 L-13943.4,-3103.64 L-13954,-3119.53 L-13955.4,-3120.91 L-13971.3,-3131.52 L-13973.1,-3132.27 L-13989.8,-3135.59 L-13991.6,-3135.63 L-13993.2,-3135.05 L-13994.6,-3133.94 L-13995.5,-3132.42 L-13995.8,-3130.69 L-13995.8,-3087.13 L-17746.8,-3087.13 L-17744.2,-3130.84 L-17744.5,-3132.84 L-17745.6,-3134.56 L-17747.3,-3135.72 L-17749.2,-3136.13 L-17749.9,-3136.13 L-17750.8,-3136.04 L-17769.1,-3132.54 L-17770.9,-3131.85 L-17786.4,-3121.96 L-17787.7,-3120.67 L-17798.5,-3105.75 L-17799.3,-3104.05 L-17803.9,-3086.01 L-17804,-3085.08 L-18005.2,367.523 M-15563.4,-2746.52 L-15546.8,-2763.15 L-15548.1,-2756.62 L-15548.1,-2754.67 L-15544.8,-2737.88 L-15544.8,-2727.96 L-15563.4,-2746.52"/>
</g>

<g fill="none" stroke="#000000" stroke-opacity="1" stroke-width="1" stroke-linecap="square" stroke-linejoin="bevel" transform="matrix(0.999935,0,0,-0.999935,21276.8,9950.17)"
font-family="MS Shell Dlg 2" font-size="10.3125" font-weight="400" font-style="normal" 
>
</g>

<g fill="none" stroke="#000000" stroke-opacity="1" stroke-width="1" stroke-linecap="square" stroke-linejoin="bevel" transform="matrix(0.999935,0,0,-0.999935,21276.8,9950.17)"
font-family="MS Shell Dlg 2" font-size="10.3125" font-weight="400" font-style="normal" 
>
</g>

<g fill="#ae5151" fill-opacity="0.2" stroke="#333333" stroke-opacity="1" stroke-width="1" stroke-linecap="round" stroke-linejoin="round" transform="matrix(0.999935,0,0,-0.999935,21276.8,9950.17)"
font-family="MS Shell Dlg 2" font-size="10.3125" font-weight="400" font-style="normal" 
>
<path vector-effect="non-scaling-stroke" fill-rule="evenodd" d="M-19175.1,4990.54 L-19177,4991.57 L-19178.2,4993.29 L-19178.7,4995.39 L-19178.2,4997.47 L-18069.8,7339.9 L-18069.4,7340.67 L-18059,7355.13 L-18058.4,7355.81 L-16047.5,9311.14 L-16046.7,9311.76 L-16030.1,9322.45 L-16029.3,9322.9 L-14436.1,9948.78 L-14434.4,9949.13 L-14432.6,9948.85 L-14431.1,9947.98 L-14430,9946.63 L-14429.4,9944.97 L-14131.4,8199.56 L-14131.5,8197.39 L-14132.5,8195.47 L-14134.2,8194.16 L-14975.1,7813.2 L-16346.4,6933.49 L-16933.8,6246.35 L-17693.9,4556.18 L-17694.9,4554.71 L-17696.4,4553.69 L-17698.1,4553.24 L-17699.9,4553.44 L-19175.1,4990.54"/>
</g>

<g fill="none" stroke="#000000" stroke-opacity="1" stroke-width="1" stroke-linecap="square" stroke-linejoin="bevel" transform="matrix(0.999935,0,0,-0.999935,21276.8,9950.17)"
font-family="MS Shell Dlg 2" font-size="10.3125" font-weight="400" font-style="normal" 
>
</g>

<g fill="none" stroke="#000000" stroke-opacity="1" stroke-width="1" stroke-linecap="square" stroke-linejoin="bevel" transform="matrix(0.999935,0,0,-0.999935,21276.8,9950.17)"
font-family="MS Shell Dlg 2" font-size="10.3125" font-weight="400" font-style="normal" 
>
</g>

<g fill="#ae5151" fill-opacity="0.2" stroke="#333333" stroke-opacity="1" stroke-width="1" stroke-linecap="round" stroke-linejoin="round" transform="matrix(0.999935,0,0,-0.999935,21276.8,9950.17)"
font-family="MS Shell Dlg 2" font-size="10.3125" font-weight="400" font-style="normal" 
>
<path vector-effect="non-scaling-stroke" fill-rule="evenodd" d="M-21277.7,-3270.34 L-21277.4,-3268.46 L-21276.4,-3266.82 L-21274.9,-3265.67 L-21273.1,-3265.16 L-19293.6,-3112.89 L-19291.7,-3113.1 L-19290.1,-3113.97 L-19288.8,-3115.39 L-19288.2,-3117.16 L-18966.9,-5331.06 L-17953.3,-5980.82 L-16324.5,-6515.1 L-15405.4,-6153.15 L-14691.8,-5439.67 L-14691.7,-5439.55 L-14689.1,-5437.17 L-14689,-5437.05 L-14099.7,-4924.8 L-14098.2,-4923.88 L-14096.4,-4923.57 L-13314.6,-4928.33 L-13312.7,-4928.73 L-13311,-4929.85 L-13310,-4931.51 L-13309.6,-4933.46 L-13396.8,-8289.11 L-13397.2,-8290.98 L-13398.3,-8292.56 L-13399.9,-8293.61 L-13401.8,-8293.98 L-17977.8,-8293.98 L-17979.1,-8293.79 L-18005.4,-8286.33 L-18006.7,-8285.77 L-20303.3,-6866.81 L-20304.3,-6866.04 L-20321.3,-6848.55 L-20322,-6847.57 L-21191.2,-5345.29 L-21191.7,-5344.18 L-21198.3,-5321.07 L-21198.5,-5319.88 L-21277.7,-3270.34"/>
</g>

<g fill="none" stroke="#000000" stroke-opacity="1" stroke-width="1" stroke-linecap="square" stroke-linejoin="bevel" transform="matrix(0.999935,0,0,-0.999935,21276.8,9950.17)"
font-family="MS Shell Dlg 2" font-size="10.3125" font-weight="400" font-style="normal" 
>
</g>

<g fill="none" stroke="#000000" stroke-opacity="1" stroke-width="1" stroke-linecap="square" stroke-linejoin="bevel" transform="matrix(0.999935,0,0,-0.999935,21276.8,9950.17)"
font-family="MS Shell Dlg 2" font-size="10.3125" font-weight="400" font-style="normal" 
>
</g>

<g fill="#ae5151" fill-opacity="0.2" stroke="#333333" stroke-opacity="1" stroke-width="1" stroke-linecap="round" stroke-linejoin="round" transform="matrix(0.999935,0,0,-0.999935,21276.8,9950.17)"
font-family="MS Shell Dlg 2" font-size="10.3125" font-weight="400" font-style="normal" 
>
<path vector-effect="non-scaling-stroke" fill-rule="evenodd" d="M-18005.2,367.523 L-18005.2,368.552 L-18002.2,388.615 L-18001.5,390.537 L-17999.3,393.918 L-17998.1,395.242 L-17996.5,396.052 L-17994.7,396.243 L-17993,395.79 L-15635.6,-701.811 L-15634.2,-702.842 L-15633.2,-704.318 L-15632.7,-706.053 L-15544.8,-2215.35 L-15544.8,-774.964 L-15544.7,-773.967 L-15540.8,-754.641 L-15540,-752.806 L-15539,-751.397 L-15537.8,-750.152 L-15536.2,-749.405 L-15534.5,-749.246 L-15532.8,-749.696 L-14140.9,-1397.76 L-13943.8,-1397.76 L-13942.1,-1398.05 L-13940.7,-1398.89 L-13939.5,-1400.19 L-13938.9,-1401.78 L-13938.9,-1401.98 L-13938.8,-1402.96 L-13938.8,-3081.93 L-13938.9,-3082.91 L-13942.6,-3101.84 L-13943.4,-3103.64 L-13954,-3119.53 L-13955.4,-3120.91 L-13971.3,-3131.52 L-13973.1,-3132.27 L-13989.8,-3135.59 L-13991.6,-3135.63 L-13993.2,-3135.05 L-13994.6,-3133.94 L-13995.5,-3132.42 L-13995.8,-3130.69 L-13995.8,-3087.13 L-17746.8,-3087.13 L-17744.2,-3130.84 L-17744.5,-3132.84 L-17745.6,-3134.56 L-17747.3,-3135.72 L-17749.2,-3136.13 L-17749.9,-3136.13 L-17750.8,-3136.04 L-17769.1,-3132.54 L-17770.9,-3131.85 L-17786.4,-3121.96 L-17787.7,-3120.67 L-17798.5,-3105.75 L-17799.3,-3104.05 L-17803.9,-3086.01 L-17804,-3085.08 L-18005.2,367.523 M-15563.4,-2746.52 L-15546.8,-2763.15 L-15548.1,-2756.62 L-15548.1,-2754.67 L-15544.8,-2737.88 L-15544.8,-2727.96 L-15563.4,-2746.52"/>
</g>

<g fill="none" stroke="#000000" stroke-opacity="1" stroke-width="1" stroke-linecap="square" stroke-linejoin="bevel" transform="matrix(0.999935,0,0,-0.999935,21276.8,9950.17)"
font-family="MS Shell Dlg 2" font-size="10.3125" font-weight="400" font-style="normal" 
>
</g>

<g fill="none" stroke="#000000" stroke-opacity="1" stroke-width="1" stroke-linecap="square" stroke-linejoin="bevel" transform="matrix(0.999935,0,0,-0.999935,21276.8,9950.17)"
font-family="MS Shell Dlg 2" font-size="10.3125" font-weight="400" font-style="normal" 
>
</g>

<g fill="#ffff00" fill-opacity="0.2" stroke="#333333" stroke-opacity="1" stroke-width="1" stroke-linecap="round" stroke-linejoin="round" transform="matrix(0.999935,0,0,-0.999935,21276.8,9950.17)"
font-family="MS Shell Dlg 2" font-size="10.3125" font-weight="400" font-style="normal" 
>
<path vector-effect="non-scaling-stroke" fill-rule="evenodd" d="M-19175.1,4990.54 L-19177,4991.57 L-19178.2,4993.29 L-19178.7,4995.39 L-19178.2,4997.47 L-18069.8,7339.9 L-18069.4,7340.67 L-18059,7355.13 L-18058.4,7355.81 L-16047.5,9311.14 L-16046.7,9311.76 L-16030.1,9322.45 L-16029.3,9322.9 L-14436.1,9948.78 L-14434.4,9949.13 L-14432.6,9948.85 L-14431.1,9947.98 L-14430,9946.63 L-14429.4,9944.97 L-14131.4,8199.56 L-14131.5,8197.39 L-14132.5,8195.47 L-14134.2,8194.16 L-14975.1,7813.2 L-16346.4,6933.49 L-16933.8,6246.35 L-17693.9,4556.18 L-17694.9,4554.71 L-17696.4,4553.69 L-17698.1,4553.24 L-17699.9,4553.44 L-19175.1,4990.54"/>
</g>

<g fill="none" stroke="#000000" stroke-opacity="1" stroke-width="1" stroke-linecap="square" stroke-linejoin="bevel" transform="matrix(0.999935,0,0,-0.999935,21276.8,9950.17)"
font-family="MS Shell Dlg 2" font-size="10.3125" font-weight="400" font-style="normal" 
>
</g>

<g fill="none" stroke="#000000" stroke-opacity="1" stroke-width="1" stroke-linecap="square" stroke-linejoin="bevel" transform="matrix(0.999935,0,0,-0.999935,21276.8,9950.17)"
font-family="MS Shell Dlg 2" font-size="10.3125" font-weight="400" font-style="normal" 
>
</g>

<g fill="#ffff00" fill-opacity="0.2" stroke="#333333" stroke-opacity="1" stroke-width="1" stroke-linecap="round" stroke-linejoin="round" transform="matrix(0.999935,0,0,-0.999935,21276.8,9950.17)"
font-family="MS Shell Dlg 2" font-size="10.3125" font-weight="400" font-style="normal" 
>
<path vector-effect="non-scaling-stroke" fill-rule="evenodd" d="M-21277.7,-3270.34 L-21277.4,-3268.46 L-21276.4,-3266.82 L-21274.9,-3265.67 L-21273.1,-3265.16 L-19293.6,-3112.89 L-19291.7,-3113.1 L-19290.1,-3113.97 L-19288.8,-3115.39 L-19288.2,-3117.16 L-18966.9,-5331.06 L-17953.3,-5980.82 L-16324.5,-6515.1 L-15405.4,-6153.15 L-14691.8,-5439.67 L-14691.7,-5439.55 L-14689.1,-5437.17 L-14689,-5437.05 L-14099.7,-4924.8 L-14098.2,-4923.88 L-14096.4,-4923.57 L-13314.6,-4928.33 L-13312.7,-4928.73 L-13311,-4929.85 L-13310,-4931.51 L-13309.6,-4933.46 L-13396.8,-8289.11 L-13397.2,-8290.98 L-13398.3,-8292.56 L-13399.9,-8293.61 L-13401.8,-8293.98 L-17977.8,-8293.98 L-17979.1,-8293.79 L-18005.4,-8286.33 L-18006.7,-8285.77 L-20303.3,-6866.81 L-20304.3,-6866.04 L-20321.3,-6848.55 L-20322,-6847.57 L-21191.2,-5345.29 L-21191.7,-5344.18 L-21198.3,-5321.07 L-21198.5,-5319.88 L-21277.7,-3270.34"/>
</g>

<g fill="none" stroke="#000000" stroke-opacity="1" stroke-width="1" stroke-linecap="square" stroke-linejoin="bevel" transform="matrix(0.999935,0,0,-0.999935,21276.8,9950.17)"
font-family="MS Shell Dlg 2" font-size="10.3125" font-weight="400" font-style="normal" 
>
</g>

<g fill="none" stroke="#000000" stroke-opacity="1" stroke-width="1" stroke-linecap="square" stroke-linejoin="bevel" transform="matrix(0.999935,0,0,-0.999935,21276.8,9950.17)"
font-family="MS Shell Dlg 2" font-size="10.3125" font-weight="400" font-style="normal" 
>
</g>

<g fill="#ffff00" fill-opacity="0.2" stroke="#333333" stroke-opacity="1" stroke-width="1" stroke-linecap="round" stroke-linejoin="round" transform="matrix(0.999935,0,0,-0.999935,21276.8,9950.17)"
font-family="MS Shell Dlg 2" font-size="10.3125" font-weight="400" font-style="normal" 
>
<path vector-effect="non-scaling-stroke" fill-rule="evenodd" d="M-18005.2,367.523 L-18005.2,368.552 L-18002.2,388.615 L-18001.5,390.537 L-17999.3,393.918 L-17998.1,395.242 L-17996.5,396.052 L-17994.7,396.243 L-17993,395.79 L-15635.6,-701.811 L-15634.2,-702.842 L-15633.2,-704.318 L-15632.7,-706.053 L-15544.8,-2215.35 L-15544.8,-774.964 L-15544.7,-773.967 L-15540.8,-754.641 L-15540,-752.806 L-15539,-751.397 L-15537.8,-750.152 L-15536.2,-749.405 L-15534.5,-749.246 L-15532.8,-749.696 L-14140.9,-1397.76 L-13943.8,-1397.76 L-13942.1,-1398.05 L-13940.7,-1398.89 L-13939.5,-1400.19 L-13938.9,-1401.78 L-13938.9,-1401.98 L-13938.8,-1402.96 L-13938.8,-3081.93 L-13938.9,-3082.91 L-13942.6,-3101.84 L-13943.4,-3103.64 L-13954,-3119.53 L-13955.4,-3120.91 L-13971.3,-3131.52 L-13973.1,-3132.27 L-13989.8,-3135.59 L-13991.6,-3135.63 L-13993.2,-3135.05 L-13994.6,-3133.94 L-13995.5,-3132.42 L-13995.8,-3130.69 L-13995.8,-3087.13 L-17746.8,-3087.13 L-17744.2,-3130.84 L-17744.5,-3132.84 L-17745.6,-3134.56 L-17747.3,-3135.72 L-17749.2,-3136.13 L-17749.9,-3136.13 L-17750.8,-3136.04 L-17769.1,-3132.54 L-17770.9,-3131.85 L-17786.4,-3121.96 L-17787.7,-3120.67 L-17798.5,-3105.75 L-17799.3,-3104.05 L-17803.9,-3086.01 L-17804,-3085.08 L-18005.2,367.523 M-15563.4,-2746.52 L-15546.8,-2763.15 L-15548.1,-2756.62 L-15548.1,-2754.67 L-15544.8,-2737.88 L-15544.8,-2727.96 L-15563.4,-2746.52"/>
</g>

<g fill="none" stroke="#000000" stroke-opacity="1" stroke-width="1" stroke-linecap="square" stroke-linejoin="bevel" transform="matrix(0.999935,0,0,-0.999935,21276.8,9950.17)"
font-family="MS Shell Dlg 2" font-size="10.3125" font-weight="400" font-style="normal" 
>
</g>

<g fill="none" stroke="#000000" stroke-opacity="1" stroke-width="1" stroke-linecap="square" stroke-linejoin="bevel" transform="matrix(0.999935,0,0,-0.999935,21276.8,9950.17)"
font-family="MS Shell Dlg 2" font-size="10.3125" font-weight="400" font-style="normal" 
>
</g>

<g fill="#ae5151" fill-opacity="0.2" stroke="#333333" stroke-opacity="1" stroke-width="1" stroke-linecap="round" stroke-linejoin="round" transform="matrix(0.999935,0,0,-0.999935,21276.8,9950.17)"
font-family="MS Shell Dlg 2" font-size="10.3125" font-weight="400" font-style="normal" 
>
<path vector-effect="non-scaling-stroke" fill-rule="evenodd" d="M-19175.1,4990.54 L-19177,4991.57 L-19178.2,4993.29 L-19178.7,4995.39 L-19178.2,4997.47 L-18069.8,7339.9 L-18069.4,7340.67 L-18059,7355.13 L-18058.4,7355.81 L-16047.5,9311.14 L-16046.7,9311.76 L-16030.1,9322.45 L-16029.3,9322.9 L-14436.1,9948.78 L-14434.4,9949.13 L-14432.6,9948.85 L-14431.1,9947.98 L-14430,9946.63 L-14429.4,9944.97 L-14131.4,8199.56 L-14131.5,8197.39 L-14132.5,8195.47 L-14134.2,8194.16 L-14975.1,7813.2 L-16346.4,6933.49 L-16933.8,6246.35 L-17693.9,4556.18 L-17694.9,4554.71 L-17696.4,4553.69 L-17698.1,4553.24 L-17699.9,4553.44 L-19175.1,4990.54"/>
</g>

<g fill="none" stroke="#000000" stroke-opacity="1" stroke-width="1" stroke-linecap="square" stroke-linejoin="bevel" transform="matrix(0.999935,0,0,-0.999935,21276.8,9950.17)"
font-family="MS Shell Dlg 2" font-size="10.3125" font-weight="400" font-style="normal" 
>
</g>

<g fill="none" stroke="#000000" stroke-opacity="1" stroke-width="1" stroke-linecap="square" stroke-linejoin="bevel" transform="matrix(0.999935,0,0,-0.999935,21276.8,9950.17)"
font-family="MS Shell Dlg 2" font-size="10.3125" font-weight="400" font-style="normal" 
>
</g>

<g fill="#ae5151" fill-opacity="0.2" stroke="#333333" stroke-opacity="1" stroke-width="1" stroke-linecap="round" stroke-linejoin="round" transform="matrix(0.999935,0,0,-0.999935,21276.8,9950.17)"
font-family="MS Shell Dlg 2" font-size="10.3125" font-weight="400" font-style="normal" 
>
<path vector-effect="non-scaling-stroke" fill-rule="evenodd" d="M-21277.7,-3270.34 L-21277.4,-3268.46 L-21276.4,-3266.82 L-21274.9,-3265.67 L-21273.1,-3265.16 L-19293.6,-3112.89 L-19291.7,-3113.1 L-19290.1,-3113.97 L-19288.8,-3115.39 L-19288.2,-3117.16 L-18966.9,-5331.06 L-17953.3,-5980.82 L-16324.5,-6515.1 L-15405.4,-6153.15 L-14691.8,-5439.67 L-14691.7,-5439.55 L-14689.1,-5437.17 L-14689,-5437.05 L-14099.7,-4924.8 L-14098.2,-4923.88 L-14096.4,-4923.57 L-13314.6,-4928.33 L-13312.7,-4928.73 L-13311,-4929.85 L-13310,-4931.51 L-13309.6,-4933.46 L-13396.8,-8289.11 L-13397.2,-8290.98 L-13398.3,-8292.56 L-13399.9,-8293.61 L-13401.8,-8293.98 L-17977.8,-8293.98 L-17979.1,-8293.79 L-18005.4,-8286.33 L-18006.7,-8285.77 L-20303.3,-6866.81 L-20304.3,-6866.04 L-20321.3,-6848.55 L-20322,-6847.57 L-21191.2,-5345.29 L-21191.7,-5344.18 L-21198.3,-5321.07 L-21198.5,-5319.88 L-21277.7,-3270.34"/>
</g>

<g fill="none" stroke="#000000" stroke-opacity="1" stroke-width="1" stroke-linecap="square" stroke-linejoin="bevel" transform="matrix(0.999935,0,0,-0.999935,21276.8,9950.17)"
font-family="MS Shell Dlg 2" font-size="10.3125" font-weight="400" font-style="normal" 
>
</g>

<g fill="none" stroke="#000000" stroke-opacity="1" stroke-width="1" stroke-linecap="square" stroke-linejoin="bevel" transform="matrix(0.999935,0,0,-0.999935,21276.8,9950.17)"
font-family="MS Shell Dlg 2" font-size="10.3125" font-weight="400" font-style="normal" 
>
</g>

<g fill="#ae5151" fill-opacity="0.2" stroke="#333333" stroke-opacity="1" stroke-width="1" stroke-linecap="round" stroke-linejoin="round" transform="matrix(0.999935,0,0,-0.999935,21276.8,9950.17)"
font-family="MS Shell Dlg 2" font-size="10.3125" font-weight="400" font-style="normal" 
>
<path vector-effect="non-scaling-stroke" fill-rule="evenodd" d="M-18005.2,367.523 L-18005.2,368.552 L-18002.2,388.615 L-18001.5,390.537 L-17999.3,393.918 L-17998.1,395.242 L-17996.5,396.052 L-17994.7,396.243 L-17993,395.79 L-15635.6,-701.811 L-15634.2,-702.842 L-15633.2,-704.318 L-15632.7,-706.053 L-15544.8,-2215.35 L-15544.8,-774.964 L-15544.7,-773.967 L-15540.8,-754.641 L-15540,-752.806 L-15539,-751.397 L-15537.8,-750.152 L-15536.2,-749.405 L-15534.5,-749.246 L-15532.8,-749.696 L-14140.9,-1397.76 L-13943.8,-1397.76 L-13942.1,-1398.05 L-13940.7,-1398.89 L-13939.5,-1400.19 L-13938.9,-1401.78 L-13938.9,-1401.98 L-13938.8,-1402.96 L-13938.8,-3081.93 L-13938.9,-3082.91 L-13942.6,-3101.84 L-13943.4,-3103.64 L-13954,-3119.53 L-13955.4,-3120.91 L-13971.3,-3131.52 L-13973.1,-3132.27 L-13989.8,-3135.59 L-13991.6,-3135.63 L-13993.2,-3135.05 L-13994.6,-3133.94 L-13995.5,-3132.42 L-13995.8,-3130.69 L-13995.8,-3087.13 L-17746.8,-3087.13 L-17744.2,-3130.84 L-17744.5,-3132.84 L-17745.6,-3134.56 L-17747.3,-3135.72 L-17749.2,-3136.13 L-17749.9,-3136.13 L-17750.8,-3136.04 L-17769.1,-3132.54 L-17770.9,-3131.85 L-17786.4,-3121.96 L-17787.7,-3120.67 L-17798.5,-3105.75 L-17799.3,-3104.05 L-17803.9,-3086.01 L-17804,-3085.08 L-18005.2,367.523 M-15563.4,-2746.52 L-15546.8,-2763.15 L-15548.1,-2756.62 L-15548.1,-2754.67 L-15544.8,-2737.88 L-15544.8,-2727.96 L-15563.4,-2746.52"/>
</g>

<g fill="none" stroke="#000000" stroke-opacity="1" stroke-width="1" stroke-linecap="square" stroke-linejoin="bevel" transform="matrix(0.999935,0,0,-0.999935,21276.8,9950.17)"
font-family="MS Shell Dlg 2" font-size="10.3125" font-weight="400" font-style="normal" 
>
</g>

<g fill="none" stroke="#000000" stroke-opacity="1" stroke-width="1" stroke-linecap="square" stroke-linejoin="bevel" transform="matrix(0.999935,0,0,-0.999935,21276.8,9950.17)"
font-family="MS Shell Dlg 2" font-size="10.3125" font-weight="400" font-style="normal" 
>
</g>

<g fill="#333333" fill-opacity="0.2" stroke="#333333" stroke-opacity="1" stroke-width="1" stroke-linecap="round" stroke-linejoin="round" transform="matrix(0.999935,0,0,-0.999935,21276.8,9950.17)"
font-family="MS Shell Dlg 2" font-size="10.3125" font-weight="400" font-style="normal" 
>
<path vector-effect="non-scaling-stroke" fill-rule="evenodd" d="M-19175.1,4990.54 L-19177,4991.57 L-19178.2,4993.29 L-19178.7,4995.39 L-19178.2,4997.47 L-18069.8,7339.9 L-18069.4,7340.67 L-18059,7355.13 L-18058.4,7355.81 L-16047.5,9311.14 L-16046.7,9311.76 L-16030.1,9322.45 L-16029.3,9322.9 L-14436.1,9948.78 L-14434.4,9949.13 L-14432.6,9948.85 L-14431.1,9947.98 L-14430,9946.63 L-14429.4,9944.97 L-14131.4,8199.56 L-14131.5,8197.39 L-14132.5,8195.47 L-14134.2,8194.16 L-14975.1,7813.2 L-16346.4,6933.49 L-16933.8,6246.35 L-17693.9,4556.18 L-17694.9,4554.71 L-17696.4,4553.69 L-17698.1,4553.24 L-17699.9,4553.44 L-19175.1,4990.54"/>
</g>

<g fill="none" stroke="#000000" stroke-opacity="1" stroke-width="1" stroke-linecap="square" stroke-linejoin="bevel" transform="matrix(0.999935,0,0,-0.999935,21276.8,9950.17)"
font-family="MS Shell Dlg 2" font-size="10.3125" font-weight="400" font-style="normal" 
>
</g>

<g fill="none" stroke="#000000" stroke-opacity="1" stroke-width="1" stroke-linecap="square" stroke-linejoin="bevel" transform="matrix(0.999935,0,0,-0.999935,21276.8,9950.17)"
font-family="MS Shell Dlg 2" font-size="10.3125" font-weight="400" font-style="normal" 
>
</g>

<g fill="#333333" fill-opacity="0.2" stroke="#333333" stroke-opacity="1" stroke-width="1" stroke-linecap="round" stroke-linejoin="round" transform="matrix(0.999935,0,0,-0.999935,21276.8,9950.17)"
font-family="MS Shell Dlg 2" font-size="10.3125" font-weight="400" font-style="normal" 
>
<path vector-effect="non-scaling-stroke" fill-rule="evenodd" d="M-21277.7,-3270.34 L-21277.4,-3268.46 L-21276.4,-3266.82 L-21274.9,-3265.67 L-21273.1,-3265.16 L-19293.6,-3112.89 L-19291.7,-3113.1 L-19290.1,-3113.97 L-19288.8,-3115.39 L-19288.2,-3117.16 L-18966.9,-5331.06 L-17953.3,-5980.82 L-16324.5,-6515.1 L-15405.4,-6153.15 L-14691.8,-5439.67 L-14691.7,-5439.55 L-14689.1,-5437.17 L-14689,-5437.05 L-14099.7,-4924.8 L-14098.2,-4923.88 L-14096.4,-4923.57 L-13314.6,-4928.33 L-13312.7,-4928.73 L-13311,-4929.85 L-13310,-4931.51 L-13309.6,-4933.46 L-13396.8,-8289.11 L-13397.2,-8290.98 L-13398.3,-8292.56 L-13399.9,-8293.61 L-13401.8,-8293.98 L-17977.8,-8293.98 L-17979.1,-8293.79 L-18005.4,-8286.33 L-18006.7,-8285.77 L-20303.3,-6866.81 L-20304.3,-6866.04 L-20321.3,-6848.55 L-20322,-6847.57 L-21191.2,-5345.29 L-21191.7,-5344.18 L-21198.3,-5321.07 L-21198.5,-5319.88 L-21277.7,-3270.34"/>
</g>

<g fill="none" stroke="#000000" stroke-opacity="1" stroke-width="1" stroke-linecap="square" stroke-linejoin="bevel" transform="matrix(0.999935,0,0,-0.999935,21276.8,9950.17)"
font-family="MS Shell Dlg 2" font-size="10.3125" font-weight="400" font-style="normal" 
>
</g>

<g fill="none" stroke="#000000" stroke-opacity="1" stroke-width="1" stroke-linecap="square" stroke-linejoin="bevel" transform="matrix(0.999935,0,0,-0.999935,21276.8,9950.17)"
font-family="MS Shell Dlg 2" font-size="10.3125" font-weight="400" font-style="normal" 
>
</g>

<g fill="#333333" fill-opacity="0.2" stroke="#333333" stroke-opacity="1" stroke-width="1" stroke-linecap="round" stroke-linejoin="round" transform="matrix(0.999935,0,0,-0.999935,21276.8,9950.17)"
font-family="MS Shell Dlg 2" font-size="10.3125" font-weight="400" font-style="normal" 
>
<path vector-effect="non-scaling-stroke" fill-rule="evenodd" d="M-18005.2,367.523 L-18005.2,368.552 L-18002.2,388.615 L-18001.5,390.537 L-17999.3,393.918 L-17998.1,395.242 L-17996.5,396.052 L-17994.7,396.243 L-17993,395.79 L-15635.6,-701.811 L-15634.2,-702.842 L-15633.2,-704.318 L-15632.7,-706.053 L-15544.8,-2215.35 L-15544.8,-774.964 L-15544.7,-773.967 L-15540.8,-754.641 L-15540,-752.806 L-15539,-751.397 L-15537.8,-750.152 L-15536.2,-749.405 L-15534.5,-749.246 L-15532.8,-749.696 L-14140.9,-1397.76 L-13943.8,-1397.76 L-13942.1,-1398.05 L-13940.7,-1398.89 L-13939.5,-1400.19 L-13938.9,-1401.78 L-13938.9,-1401.98 L-13938.8,-1402.96 L-13938.8,-3081.93 L-13938.9,-3082.91 L-13942.6,-3101.84 L-13943.4,-3103.64 L-13954,-3119.53 L-13955.4,-3120.91 L-13971.3,-3131.52 L-13973.1,-3132.27 L-13989.8,-3135.59 L-13991.6,-3135.63 L-13993.2,-3135.05 L-13994.6,-3133.94 L-13995.5,-3132.42 L-13995.8,-3130.69 L-13995.8,-3087.13 L-17746.8,-3087.13 L-17744.2,-3130.84 L-17744.5,-3132.84 L-17745.6,-3134.56 L-17747.3,-3135.72 L-17749.2,-3136.13 L-17749.9,-3136.13 L-17750.8,-3136.04 L-17769.1,-3132.54 L-17770.9,-3131.85 L-17786.4,-3121.96 L-17787.7,-3120.67 L-17798.5,-3105.75 L-17799.3,-3104.05 L-17803.9,-3086.01 L-17804,-3085.08 L-18005.2,367.523 M-15563.4,-2746.52 L-15546.8,-2763.15 L-15548.1,-2756.62 L-15548.1,-2754.67 L-15544.8,-2737.88 L-15544.8,-2727.96 L-15563.4,-2746.52"/>
</g>

<g fill="none" stroke="#000000" stroke-opacity="1" stroke-width="1" stroke-linecap="square" stroke-linejoin="bevel" transform="matrix(0.999935,0,0,-0.999935,21276.8,9950.17)"
font-family="MS Shell Dlg 2" font-size="10.3125" font-weight="400" font-style="normal" 
>
</g>

<g fill="none" stroke="#000000" stroke-opacity="1" stroke-width="1" stroke-linecap="square" stroke-linejoin="bevel" transform="matrix(0.999935,0,0,-0.999935,21276.8,9950.17)"
font-family="MS Shell Dlg 2" font-size="10.3125" font-weight="400" font-style="normal" 
>
</g>

<g fill="#333333" fill-opacity="0.2" stroke="#333333" stroke-opacity="1" stroke-width="1" stroke-linecap="round" stroke-linejoin="round" transform="matrix(0.999935,0,0,-0.999935,21276.8,9950.17)"
font-family="MS Shell Dlg 2" font-size="10.3125" font-weight="400" font-style="normal" 
>
<path vector-effect="non-scaling-stroke" fill-rule="evenodd" d="M-11606.4,-1454.76 L-12390.6,-1454.76 L-12391.6,-1454.66 L-12410.5,-1450.9 L-12412.3,-1450.15 L-12428.2,-1439.54 L-12429.6,-1438.16 L-12438,-1425.54 L-12438.7,-1423.89 L-12438.8,-1422.11 L-12438.2,-1420.4 L-12437.1,-1419 L-12435.6,-1418.08 L-12433.8,-1417.76 L-12395.8,-1417.76 L-12395.8,-452.758 L-12395.4,-450.845 L-12394.3,-449.223 L-12392.7,-448.139 L-12390.8,-447.758 L-11652.8,-447.758 L-11651.1,-448.05 L-11649.6,-448.893 L-11648.5,-450.188 L-11647.9,-451.783 L-11647.9,-451.98 L-11647.8,-452.955 L-11647.8,-453.884 L-11647.1,-453.884 L-11646.3,-453.367 L-11644.5,-452.621 L-11625.6,-448.854 L-11624.6,-448.758 L-11606.4,-448.758 L-11606.4,-1454.76"/>
</g>

<g fill="none" stroke="#000000" stroke-opacity="1" stroke-width="1" stroke-linecap="square" stroke-linejoin="bevel" transform="matrix(0.999935,0,0,-0.999935,21276.8,9950.17)"
font-family="MS Shell Dlg 2" font-size="10.3125" font-weight="400" font-style="normal" 
>
</g>

<g fill="none" stroke="#000000" stroke-opacity="1" stroke-width="1" stroke-linecap="square" stroke-linejoin="bevel" transform="matrix(0.999935,0,0,-0.999935,21276.8,9950.17)"
font-family="MS Shell Dlg 2" font-size="10.3125" font-weight="400" font-style="normal" 
>
</g>

<g fill="#333333" fill-opacity="0.2" stroke="#333333" stroke-opacity="1" stroke-width="1" stroke-linecap="round" stroke-linejoin="round" transform="matrix(0.999935,0,0,-0.999935,21276.8,9950.17)"
font-family="MS Shell Dlg 2" font-size="10.3125" font-weight="400" font-style="normal" 
>
<path vector-effect="non-scaling-stroke" fill-rule="evenodd" d="M-13995.8,1547.24 L-13995.4,1549.16 L-13994.3,1550.78 L-13992.7,1551.86 L-13990.8,1552.24 L-13990.3,1552.24 L-13990.3,1656.33 L-13989.9,1658.24 L-13988.8,1659.86 L-13987.2,1660.95 L-13985.3,1661.33 L-13892.8,1661.23 L-13890.9,1660.85 L-13889.2,1659.77 L-13888.2,1658.15 L-13887.8,1656.23 L-13887.8,1562.25 L-13522.9,1562.25 L-13522.9,1655.86 L-13522.6,1657.78 L-13521.5,1659.4 L-13519.9,1660.48 L-13517.9,1660.86 L-13138.5,1660.49 L-13136.6,1660.11 L-13134.9,1659.02 L-13133.8,1657.4 L-13133.5,1655.49 L-13133.5,1562.25 L-12777.3,1562.25 L-12777.3,1655.12 L-12776.9,1657.04 L-12775.8,1658.66 L-12774.2,1659.75 L-12772.3,1660.12 L-12395.8,1659.75 L-12395.8,1796.24 L-12697,2022.17 L-12698.2,2023.5 L-12698.9,2025.18 L-12698.9,2026.99 L-12698.3,2028.69 L-12696,2032.71 L-12694.6,2034.24 L-12678.2,2046.07 L-12676.3,2046.91 L-12656.3,2051.13 L-12655.2,2051.24 L-11606.4,2051.24 L-11606.4,1044.24 L-11623.1,1044.24 L-11625.3,1044.8 L-11626.1,1045.44 L-11644.5,1049.1 L-11646.3,1049.85 L-11647.1,1050.37 L-11647.8,1050.37 L-11647.8,1049.44 L-11647.9,1048.46 L-11647.9,1048.27 L-11648.5,1046.67 L-11649.6,1045.38 L-11651.1,1044.53 L-11652.8,1044.24 L-12390.8,1044.24 L-12392.7,1044.62 L-12394.3,1045.71 L-12395.4,1047.33 L-12395.8,1049.24 L-12395.8,1439.34 L-12395.8,1534.24 L-12760.6,1534.24 L-12760.6,1440.73 L-12761,1438.81 L-12762.1,1437.19 L-12763.7,1436.11 L-12765.6,1435.73 L-13145.1,1436.1 L-13147,1436.49 L-13148.6,1437.57 L-13149.7,1439.19 L-13150.1,1441.1 L-13150.1,1534.24 L-13506.3,1534.24 L-13506.3,1441.47 L-13506.7,1439.55 L-13507.8,1437.93 L-13509.4,1436.85 L-13511.3,1436.47 L-13887.8,1436.84 L-13887.8,-1417.76 L-13849.7,-1417.76 L-13847.6,-1418.22 L-13845.9,-1419.51 L-13844.9,-1421.4 L-13844.8,-1423.54 L-13845.6,-1425.54 L-13854,-1438.16 L-13855.4,-1439.54 L-13871.3,-1450.15 L-13873.1,-1450.9 L-13892,-1454.66 L-13893,-1454.76 L-13990.6,-1454.76 L-13991.6,-1454.66 L-13991.8,-1454.62 L-13993.8,-1453.69 L-13995.3,-1451.93 L-13995.8,-1449.72 L-13995.8,1547.24"/>
</g>

<g fill="none" stroke="#000000" stroke-opacity="1" stroke-width="1" stroke-linecap="square" stroke-linejoin="bevel" transform="matrix(0.999935,0,0,-0.999935,21276.8,9950.17)"
font-family="MS Shell Dlg 2" font-size="10.3125" font-weight="400" font-style="normal" 
>
</g>

<g fill="none" stroke="#000000" stroke-opacity="1" stroke-width="1" stroke-linecap="square" stroke-linejoin="bevel" transform="matrix(0.999935,0,0,-0.999935,21276.8,9950.17)"
font-family="MS Shell Dlg 2" font-size="10.3125" font-weight="400" font-style="normal" 
>
</g>

<g fill="#333333" fill-opacity="0.2" stroke="#333333" stroke-opacity="1" stroke-width="1" stroke-linecap="round" stroke-linejoin="round" transform="matrix(0.999935,0,0,-0.999935,21276.8,9950.17)"
font-family="MS Shell Dlg 2" font-size="10.3125" font-weight="400" font-style="normal" 
>
<path vector-effect="non-scaling-stroke" fill-rule="evenodd" d="M-10345.8,3013.24 L-10345.7,3014.23 L-10338,3052.49 L-10337.3,3054.3 L-10315.5,3086.57 L-10314.1,3087.95 L-10281.5,3109.32 L-10279.7,3110.05 L-10241.4,3117.25 L-10240.4,3117.33 L-10190.6,3116.71 L-10189.6,3116.6 L-10152,3108.7 L-10150.2,3107.94 L-10118.5,3086.41 L-10117.2,3085.03 L-10096,3053.07 L-10095.3,3051.28 L-10087.9,3013.59 L-10087.8,3012.62 L-10087.8,2812.8 L-10087.9,2811.82 L-10095.6,2773.56 L-10096.3,2771.74 L-10118.1,2739.48 L-10119.5,2738.1 L-10152,2716.73 L-10153.8,2715.99 L-10192.2,2708.8 L-10193.2,2708.71 L-10243,2709.33 L-10244,2709.44 L-10281.5,2717.35 L-10283.3,2718.11 L-10315,2739.64 L-10316.4,2741.02 L-10337.5,2772.98 L-10338.3,2774.77 L-10345.7,2812.46 L-10345.8,2813.43 L-10345.8,3013.24"/>
</g>

<g fill="none" stroke="#000000" stroke-opacity="1" stroke-width="1" stroke-linecap="square" stroke-linejoin="bevel" transform="matrix(0.999935,0,0,-0.999935,21276.8,9950.17)"
font-family="MS Shell Dlg 2" font-size="10.3125" font-weight="400" font-style="normal" 
>
</g>

<g fill="none" stroke="#000000" stroke-opacity="1" stroke-width="1" stroke-linecap="square" stroke-linejoin="bevel" transform="matrix(0.999935,0,0,-0.999935,21276.8,9950.17)"
font-family="MS Shell Dlg 2" font-size="10.3125" font-weight="400" font-style="normal" 
>
</g>

<g fill="#333333" fill-opacity="0.2" stroke="#333333" stroke-opacity="1" stroke-width="1" stroke-linecap="round" stroke-linejoin="round" transform="matrix(0.999935,0,0,-0.999935,21276.8,9950.17)"
font-family="MS Shell Dlg 2" font-size="10.3125" font-weight="400" font-style="normal" 
>
<path vector-effect="non-scaling-stroke" fill-rule="evenodd" d="M-10739.7,3944.24 L-10741.4,3944.54 L-10742.9,3945.38 L-10744,3946.67 L-10744.6,3948.27 L-10744.7,3948.46 L-10744.8,3949.44 L-10744.8,4047.05 L-10744.7,4048.02 L-10744.6,4048.22 L-10744,4049.81 L-10742.9,4051.11 L-10741.4,4051.95 L-10739.7,4052.24 L-7143.82,4052.24 L-7142.14,4051.95 L-7140.65,4051.11 L-7139.53,4049.81 L-7138.92,4048.22 L-7138.88,4048.02 L-7138.78,4047.05 L-7138.78,3949.44 L-7138.88,3948.46 L-7142.65,3929.53 L-7143.39,3927.73 L-7154.01,3911.84 L-7155.39,3910.46 L-7171.27,3899.85 L-7173.07,3899.1 L-7189.81,3895.78 L-7192,3895.83 L-7193.96,3896.81 L-7195.3,3898.54 L-7195.78,3900.68 L-7195.78,3944.24 L-10739.7,3944.24"/>
</g>

<g fill="none" stroke="#000000" stroke-opacity="1" stroke-width="1" stroke-linecap="square" stroke-linejoin="bevel" transform="matrix(0.999935,0,0,-0.999935,21276.8,9950.17)"
font-family="MS Shell Dlg 2" font-size="10.3125" font-weight="400" font-style="normal" 
>
</g>

<g fill="none" stroke="#000000" stroke-opacity="1" stroke-width="1" stroke-linecap="square" stroke-linejoin="bevel" transform="matrix(0.999935,0,0,-0.999935,21276.8,9950.17)"
font-family="MS Shell Dlg 2" font-size="10.3125" font-weight="400" font-style="normal" 
>
</g>

<g fill="#ae5151" fill-opacity="0.2" stroke="#333333" stroke-opacity="1" stroke-width="1" stroke-linecap="round" stroke-linejoin="round" transform="matrix(0.999935,0,0,-0.999935,21276.8,9950.17)"
font-family="MS Shell Dlg 2" font-size="10.3125" font-weight="400" font-style="normal" 
>
<path vector-effect="non-scaling-stroke" fill-rule="evenodd" d="M-11606.4,-1454.76 L-12390.6,-1454.76 L-12391.6,-1454.66 L-12410.5,-1450.9 L-12412.3,-1450.15 L-12428.2,-1439.54 L-12429.6,-1438.16 L-12438,-1425.54 L-12438.7,-1423.89 L-12438.8,-1422.11 L-12438.2,-1420.4 L-12437.1,-1419 L-12435.6,-1418.08 L-12433.8,-1417.76 L-12395.8,-1417.76 L-12395.8,-452.758 L-12395.4,-450.845 L-12394.3,-449.223 L-12392.7,-448.139 L-12390.8,-447.758 L-11652.8,-447.758 L-11651.1,-448.05 L-11649.6,-448.893 L-11648.5,-450.188 L-11647.9,-451.783 L-11647.9,-451.98 L-11647.8,-452.955 L-11647.8,-453.884 L-11647.1,-453.884 L-11646.3,-453.367 L-11644.5,-452.621 L-11625.6,-448.854 L-11624.6,-448.758 L-11606.4,-448.758 L-11606.4,-1454.76"/>
</g>

<g fill="none" stroke="#000000" stroke-opacity="1" stroke-width="1" stroke-linecap="square" stroke-linejoin="bevel" transform="matrix(0.999935,0,0,-0.999935,21276.8,9950.17)"
font-family="MS Shell Dlg 2" font-size="10.3125" font-weight="400" font-style="normal" 
>
</g>

<g fill="none" stroke="#000000" stroke-opacity="1" stroke-width="1" stroke-linecap="square" stroke-linejoin="bevel" transform="matrix(0.999935,0,0,-0.999935,21276.8,9950.17)"
font-family="MS Shell Dlg 2" font-size="10.3125" font-weight="400" font-style="normal" 
>
</g>

<g fill="#ae5151" fill-opacity="0.2" stroke="#333333" stroke-opacity="1" stroke-width="1" stroke-linecap="round" stroke-linejoin="round" transform="matrix(0.999935,0,0,-0.999935,21276.8,9950.17)"
font-family="MS Shell Dlg 2" font-size="10.3125" font-weight="400" font-style="normal" 
>
<path vector-effect="non-scaling-stroke" fill-rule="evenodd" d="M-13995.8,1547.24 L-13995.4,1549.16 L-13994.3,1550.78 L-13992.7,1551.86 L-13990.8,1552.24 L-13990.3,1552.24 L-13990.3,1656.33 L-13989.9,1658.24 L-13988.8,1659.86 L-13987.2,1660.95 L-13985.3,1661.33 L-13892.8,1661.23 L-13890.9,1660.85 L-13889.2,1659.77 L-13888.2,1658.15 L-13887.8,1656.23 L-13887.8,1562.25 L-13522.9,1562.25 L-13522.9,1655.86 L-13522.6,1657.78 L-13521.5,1659.4 L-13519.9,1660.48 L-13517.9,1660.86 L-13138.5,1660.49 L-13136.6,1660.11 L-13134.9,1659.02 L-13133.8,1657.4 L-13133.5,1655.49 L-13133.5,1562.25 L-12777.3,1562.25 L-12777.3,1655.12 L-12776.9,1657.04 L-12775.8,1658.66 L-12774.2,1659.75 L-12772.3,1660.12 L-12395.8,1659.75 L-12395.8,1796.24 L-12697,2022.17 L-12698.2,2023.5 L-12698.9,2025.18 L-12698.9,2026.99 L-12698.3,2028.69 L-12696,2032.71 L-12694.6,2034.24 L-12678.2,2046.07 L-12676.3,2046.91 L-12656.3,2051.13 L-12655.2,2051.24 L-11606.4,2051.24 L-11606.4,1044.24 L-11623.1,1044.24 L-11625.3,1044.8 L-11626.1,1045.44 L-11644.5,1049.1 L-11646.3,1049.85 L-11647.1,1050.37 L-11647.8,1050.37 L-11647.8,1049.44 L-11647.9,1048.46 L-11647.9,1048.27 L-11648.5,1046.67 L-11649.6,1045.38 L-11651.1,1044.53 L-11652.8,1044.24 L-12390.8,1044.24 L-12392.7,1044.62 L-12394.3,1045.71 L-12395.4,1047.33 L-12395.8,1049.24 L-12395.8,1439.34 L-12395.8,1534.24 L-12760.6,1534.24 L-12760.6,1440.73 L-12761,1438.81 L-12762.1,1437.19 L-12763.7,1436.11 L-12765.6,1435.73 L-13145.1,1436.1 L-13147,1436.49 L-13148.6,1437.57 L-13149.7,1439.19 L-13150.1,1441.1 L-13150.1,1534.24 L-13506.3,1534.24 L-13506.3,1441.47 L-13506.7,1439.55 L-13507.8,1437.93 L-13509.4,1436.85 L-13511.3,1436.47 L-13887.8,1436.84 L-13887.8,-1417.76 L-13849.7,-1417.76 L-13847.6,-1418.22 L-13845.9,-1419.51 L-13844.9,-1421.4 L-13844.8,-1423.54 L-13845.6,-1425.54 L-13854,-1438.16 L-13855.4,-1439.54 L-13871.3,-1450.15 L-13873.1,-1450.9 L-13892,-1454.66 L-13893,-1454.76 L-13990.6,-1454.76 L-13991.6,-1454.66 L-13991.8,-1454.62 L-13993.8,-1453.69 L-13995.3,-1451.93 L-13995.8,-1449.72 L-13995.8,1547.24"/>
</g>

<g fill="none" stroke="#000000" stroke-opacity="1" stroke-width="1" stroke-linecap="square" stroke-linejoin="bevel" transform="matrix(0.999935,0,0,-0.999935,21276.8,9950.17)"
font-family="MS Shell Dlg 2" font-size="10.3125" font-weight="400" font-style="normal" 
>
</g>

<g fill="none" stroke="#000000" stroke-opacity="1" stroke-width="1" stroke-linecap="square" stroke-linejoin="bevel" transform="matrix(0.999935,0,0,-0.999935,21276.8,9950.17)"
font-family="MS Shell Dlg 2" font-size="10.3125" font-weight="400" font-style="normal" 
>
</g>

<g fill="#ae5151" fill-opacity="0.2" stroke="#333333" stroke-opacity="1" stroke-width="1" stroke-linecap="round" stroke-linejoin="round" transform="matrix(0.999935,0,0,-0.999935,21276.8,9950.17)"
font-family="MS Shell Dlg 2" font-size="10.3125" font-weight="400" font-style="normal" 
>
<path vector-effect="non-scaling-stroke" fill-rule="evenodd" d="M-10345.8,3013.24 L-10345.7,3014.23 L-10338,3052.49 L-10337.3,3054.3 L-10315.5,3086.57 L-10314.1,3087.95 L-10281.5,3109.32 L-10279.7,3110.05 L-10241.4,3117.25 L-10240.4,3117.33 L-10190.6,3116.71 L-10189.6,3116.6 L-10152,3108.7 L-10150.2,3107.94 L-10118.5,3086.41 L-10117.2,3085.03 L-10096,3053.07 L-10095.3,3051.28 L-10087.9,3013.59 L-10087.8,3012.62 L-10087.8,2812.8 L-10087.9,2811.82 L-10095.6,2773.56 L-10096.3,2771.74 L-10118.1,2739.48 L-10119.5,2738.1 L-10152,2716.73 L-10153.8,2715.99 L-10192.2,2708.8 L-10193.2,2708.71 L-10243,2709.33 L-10244,2709.44 L-10281.5,2717.35 L-10283.3,2718.11 L-10315,2739.64 L-10316.4,2741.02 L-10337.5,2772.98 L-10338.3,2774.77 L-10345.7,2812.46 L-10345.8,2813.43 L-10345.8,3013.24"/>
</g>

<g fill="none" stroke="#000000" stroke-opacity="1" stroke-width="1" stroke-linecap="square" stroke-linejoin="bevel" transform="matrix(0.999935,0,0,-0.999935,21276.8,9950.17)"
font-family="MS Shell Dlg 2" font-size="10.3125" font-weight="400" font-style="normal" 
>
</g>

<g fill="none" stroke="#000000" stroke-opacity="1" stroke-width="1" stroke-linecap="square" stroke-linejoin="bevel" transform="matrix(0.999935,0,0,-0.999935,21276.8,9950.17)"
font-family="MS Shell Dlg 2" font-size="10.3125" font-weight="400" font-style="normal" 
>
</g>

<g fill="#ae5151" fill-opacity="0.2" stroke="#333333" stroke-opacity="1" stroke-width="1" stroke-linecap="round" stroke-linejoin="round" transform="matrix(0.999935,0,0,-0.999935,21276.8,9950.17)"
font-family="MS Shell Dlg 2" font-size="10.3125" font-weight="400" font-style="normal" 
>
<path vector-effect="non-scaling-stroke" fill-rule="evenodd" d="M-10739.7,3944.24 L-10741.4,3944.54 L-10742.9,3945.38 L-10744,3946.67 L-10744.6,3948.27 L-10744.7,3948.46 L-10744.8,3949.44 L-10744.8,4047.05 L-10744.7,4048.02 L-10744.6,4048.22 L-10744,4049.81 L-10742.9,4051.11 L-10741.4,4051.95 L-10739.7,4052.24 L-7143.82,4052.24 L-7142.14,4051.95 L-7140.65,4051.11 L-7139.53,4049.81 L-7138.92,4048.22 L-7138.88,4048.02 L-7138.78,4047.05 L-7138.78,3949.44 L-7138.88,3948.46 L-7142.65,3929.53 L-7143.39,3927.73 L-7154.01,3911.84 L-7155.39,3910.46 L-7171.27,3899.85 L-7173.07,3899.1 L-7189.81,3895.78 L-7192,3895.83 L-7193.96,3896.81 L-7195.3,3898.54 L-7195.78,3900.68 L-7195.78,3944.24 L-10739.7,3944.24"/>
</g>

<g fill="none" stroke="#000000" stroke-opacity="1" stroke-width="1" stroke-linecap="square" stroke-linejoin="bevel" transform="matrix(0.999935,0,0,-0.999935,21276.8,9950.17)"
font-family="MS Shell Dlg 2" font-size="10.3125" font-weight="400" font-style="normal" 
>
</g>

<g fill="none" stroke="#000000" stroke-opacity="1" stroke-width="1" stroke-linecap="square" stroke-linejoin="bevel" transform="matrix(0.999935,0,0,-0.999935,21276.8,9950.17)"
font-family="MS Shell Dlg 2" font-size="10.3125" font-weight="400" font-style="normal" 
>
</g>

<g fill="#ffff00" fill-opacity="0.2" stroke="#333333" stroke-opacity="1" stroke-width="1" stroke-linecap="round" stroke-linejoin="round" transform="matrix(0.999935,0,0,-0.999935,21276.8,9950.17)"
font-family="MS Shell Dlg 2" font-size="10.3125" font-weight="400" font-style="normal" 
>
<path vector-effect="non-scaling-stroke" fill-rule="evenodd" d="M-13995.8,1547.24 L-13995.4,1549.16 L-13994.3,1550.78 L-13992.7,1551.86 L-13990.8,1552.24 L-13990.3,1552.24 L-13990.3,1656.33 L-13989.9,1658.24 L-13988.8,1659.86 L-13987.2,1660.95 L-13985.3,1661.33 L-13892.8,1661.23 L-13890.9,1660.85 L-13889.2,1659.77 L-13888.2,1658.15 L-13887.8,1656.23 L-13887.8,1440.83 L-13887.8,1440.55 L-13887.8,-1417.76 L-13849.7,-1417.76 L-13847.6,-1418.22 L-13845.9,-1419.51 L-13844.9,-1421.4 L-13844.8,-1423.54 L-13845.6,-1425.54 L-13854,-1438.16 L-13855.4,-1439.54 L-13871.3,-1450.15 L-13873.1,-1450.9 L-13892,-1454.66 L-13893,-1454.76 L-13990.6,-1454.76 L-13991.6,-1454.66 L-13991.8,-1454.62 L-13993.8,-1453.69 L-13995.3,-1451.93 L-13995.8,-1449.72 L-13995.8,1547.24"/>
</g>

<g fill="none" stroke="#000000" stroke-opacity="1" stroke-width="1" stroke-linecap="square" stroke-linejoin="bevel" transform="matrix(0.999935,0,0,-0.999935,21276.8,9950.17)"
font-family="MS Shell Dlg 2" font-size="10.3125" font-weight="400" font-style="normal" 
>
</g>

<g fill="none" stroke="#000000" stroke-opacity="1" stroke-width="1" stroke-linecap="square" stroke-linejoin="bevel" transform="matrix(0.999935,0,0,-0.999935,21276.8,9950.17)"
font-family="MS Shell Dlg 2" font-size="10.3125" font-weight="400" font-style="normal" 
>
</g>

<g fill="#ffff00" fill-opacity="0.2" stroke="#333333" stroke-opacity="1" stroke-width="1" stroke-linecap="round" stroke-linejoin="round" transform="matrix(0.999935,0,0,-0.999935,21276.8,9950.17)"
font-family="MS Shell Dlg 2" font-size="10.3125" font-weight="400" font-style="normal" 
>
<path vector-effect="non-scaling-stroke" fill-rule="evenodd" d="M-12438,-1425.54 L-12438.7,-1423.89 L-12438.8,-1422.11 L-12438.2,-1420.4 L-12437.1,-1419 L-12435.6,-1418.08 L-12433.8,-1417.76 L-12395.8,-1417.76 L-12395.8,-452.758 L-12395.4,-450.845 L-12394.3,-449.223 L-12392.7,-448.139 L-12390.8,-447.758 L-11652.8,-447.758 L-11651.1,-448.05 L-11649.6,-448.893 L-11648.5,-450.188 L-11647.9,-451.783 L-11647.9,-451.98 L-11647.8,-452.955 L-11647.8,-453.884 L-11647.1,-453.884 L-11646.3,-453.367 L-11644.5,-452.621 L-11625.6,-448.854 L-11624.6,-448.758 L-11606.4,-448.758 L-11606.4,-1454.76 L-12390.6,-1454.76 L-12391.6,-1454.66 L-12410.5,-1450.9 L-12412.3,-1450.15 L-12428.2,-1439.54 L-12429.6,-1438.16 L-12438,-1425.54"/>
</g>

<g fill="none" stroke="#000000" stroke-opacity="1" stroke-width="1" stroke-linecap="square" stroke-linejoin="bevel" transform="matrix(0.999935,0,0,-0.999935,21276.8,9950.17)"
font-family="MS Shell Dlg 2" font-size="10.3125" font-weight="400" font-style="normal" 
>
</g>

<g fill="none" stroke="#000000" stroke-opacity="1" stroke-width="1" stroke-linecap="square" stroke-linejoin="bevel" transform="matrix(0.999935,0,0,-0.999935,21276.8,9950.17)"
font-family="MS Shell Dlg 2" font-size="10.3125" font-weight="400" font-style="normal" 
>
</g>

<g fill="#ffff00" fill-opacity="0.2" stroke="#333333" stroke-opacity="1" stroke-width="1" stroke-linecap="round" stroke-linejoin="round" transform="matrix(0.999935,0,0,-0.999935,21276.8,9950.17)"
font-family="MS Shell Dlg 2" font-size="10.3125" font-weight="400" font-style="normal" 
>
<path vector-effect="non-scaling-stroke" fill-rule="evenodd" d="M-10345.8,3013.24 L-10345.7,3014.23 L-10338,3052.49 L-10337.3,3054.3 L-10315.5,3086.57 L-10314.1,3087.95 L-10281.5,3109.32 L-10279.7,3110.05 L-10241.4,3117.25 L-10240.4,3117.33 L-10190.6,3116.71 L-10189.6,3116.6 L-10152,3108.7 L-10150.2,3107.94 L-10118.5,3086.41 L-10117.2,3085.03 L-10096,3053.07 L-10095.3,3051.28 L-10087.9,3013.59 L-10087.8,3012.62 L-10087.8,2812.8 L-10087.9,2811.82 L-10095.6,2773.56 L-10096.3,2771.74 L-10118.1,2739.48 L-10119.5,2738.1 L-10152,2716.73 L-10153.8,2715.99 L-10192.2,2708.8 L-10193.2,2708.71 L-10243,2709.33 L-10244,2709.44 L-10281.5,2717.35 L-10283.3,2718.11 L-10315,2739.64 L-10316.4,2741.02 L-10337.5,2772.98 L-10338.3,2774.77 L-10345.7,2812.46 L-10345.8,2813.43 L-10345.8,3013.24"/>
</g>

<g fill="none" stroke="#000000" stroke-opacity="1" stroke-width="1" stroke-linecap="square" stroke-linejoin="bevel" transform="matrix(0.999935,0,0,-0.999935,21276.8,9950.17)"
font-family="MS Shell Dlg 2" font-size="10.3125" font-weight="400" font-style="normal" 
>
</g>

<g fill="none" stroke="#000000" stroke-opacity="1" stroke-width="1" stroke-linecap="square" stroke-linejoin="bevel" transform="matrix(0.999935,0,0,-0.999935,21276.8,9950.17)"
font-family="MS Shell Dlg 2" font-size="10.3125" font-weight="400" font-style="normal" 
>
</g>

<g fill="#ffff00" fill-opacity="0.2" stroke="#333333" stroke-opacity="1" stroke-width="1" stroke-linecap="round" stroke-linejoin="round" transform="matrix(0.999935,0,0,-0.999935,21276.8,9950.17)"
font-family="MS Shell Dlg 2" font-size="10.3125" font-weight="400" font-style="normal" 
>
<path vector-effect="non-scaling-stroke" fill-rule="evenodd" d="M-10739.7,3944.24 L-10741.4,3944.54 L-10742.9,3945.38 L-10744,3946.67 L-10744.6,3948.27 L-10744.7,3948.46 L-10744.8,3949.44 L-10744.8,4047.05 L-10744.7,4048.02 L-10744.6,4048.22 L-10744,4049.81 L-10742.9,4051.11 L-10741.4,4051.95 L-10739.7,4052.24 L-7143.82,4052.24 L-7142.14,4051.95 L-7140.65,4051.11 L-7139.53,4049.81 L-7138.92,4048.22 L-7138.88,4048.02 L-7138.78,4047.05 L-7138.78,3949.44 L-7138.88,3948.46 L-7142.65,3929.53 L-7143.39,3927.73 L-7154.01,3911.84 L-7155.39,3910.46 L-7171.27,3899.85 L-7173.07,3899.1 L-7189.81,3895.78 L-7192,3895.83 L-7193.96,3896.81 L-7195.3,3898.54 L-7195.78,3900.68 L-7195.78,3944.24 L-10739.7,3944.24"/>
</g>

<g fill="none" stroke="#000000" stroke-opacity="1" stroke-width="1" stroke-linecap="square" stroke-linejoin="bevel" transform="matrix(0.999935,0,0,-0.999935,21276.8,9950.17)"
font-family="MS Shell Dlg 2" font-size="10.3125" font-weight="400" font-style="normal" 
>
</g>

<g fill="none" stroke="#000000" stroke-opacity="1" stroke-width="1" stroke-linecap="square" stroke-linejoin="bevel" transform="matrix(0.999935,0,0,-0.999935,21276.8,9950.17)"
font-family="MS Shell Dlg 2" font-size="10.3125" font-weight="400" font-style="normal" 
>
</g>

<g fill="#ffff00" fill-opacity="0.2" stroke="#333333" stroke-opacity="1" stroke-width="1" stroke-linecap="round" stroke-linejoin="round" transform="matrix(0.999935,0,0,-0.999935,21276.8,9950.17)"
font-family="MS Shell Dlg 2" font-size="10.3125" font-weight="400" font-style="normal" 
>
<path vector-effect="non-scaling-stroke" fill-rule="evenodd" d="M-12697,2022.17 L-12698.2,2023.5 L-12698.9,2025.18 L-12698.9,2026.99 L-12698.3,2028.69 L-12696,2032.71 L-12694.6,2034.24 L-12678.2,2046.07 L-12676.3,2046.91 L-12656.3,2051.13 L-12655.2,2051.24 L-11606.4,2051.24 L-11606.4,1044.24 L-11623.1,1044.24 L-11625.3,1044.8 L-11626.1,1045.44 L-11644.5,1049.1 L-11646.3,1049.85 L-11647.1,1050.37 L-11647.8,1050.37 L-11647.8,1049.44 L-11647.9,1048.46 L-11647.9,1048.27 L-11648.5,1046.67 L-11649.6,1045.38 L-11651.1,1044.53 L-11652.8,1044.24 L-12390.8,1044.24 L-12392.7,1044.62 L-12394.3,1045.71 L-12395.4,1047.33 L-12395.8,1049.24 L-12395.8,1439.34 L-12395.7,1655.65 L-12395.8,1655.94 L-12395.8,1796.24 L-12697,2022.17"/>
</g>

<g fill="none" stroke="#000000" stroke-opacity="1" stroke-width="1" stroke-linecap="square" stroke-linejoin="bevel" transform="matrix(0.999935,0,0,-0.999935,21276.8,9950.17)"
font-family="MS Shell Dlg 2" font-size="10.3125" font-weight="400" font-style="normal" 
>
</g>

<g fill="none" stroke="#000000" stroke-opacity="1" stroke-width="1" stroke-linecap="square" stroke-linejoin="bevel" transform="matrix(0.999935,0,0,-0.999935,21276.8,9950.17)"
font-family="MS Shell Dlg 2" font-size="10.3125" font-weight="400" font-style="normal" 
>
</g>

<g fill="#ffff00" fill-opacity="0.2" stroke="#333333" stroke-opacity="1" stroke-width="1" stroke-linecap="round" stroke-linejoin="round" transform="matrix(0.999935,0,0,-0.999935,21276.8,9950.17)"
font-family="MS Shell Dlg 2" font-size="10.3125" font-weight="400" font-style="normal" 
>
<path vector-effect="non-scaling-stroke" fill-rule="evenodd" d="M-13280.8,1514.24 L-13282.7,1514.62 L-13284.3,1515.71 L-13285.4,1517.33 L-13285.8,1519.24 L-13285.8,1577.24 L-13285.4,1579.16 L-13284.3,1580.78 L-13282.7,1581.86 L-13280.8,1582.24 L-13002.8,1582.24 L-13000.9,1581.86 L-12999.2,1580.78 L-12998.2,1579.16 L-12997.8,1577.24 L-12997.8,1519.24 L-12998.2,1517.33 L-12999.2,1515.71 L-13000.9,1514.62 L-13002.8,1514.24 L-13280.8,1514.24"/>
</g>

<g fill="none" stroke="#000000" stroke-opacity="1" stroke-width="1" stroke-linecap="square" stroke-linejoin="bevel" transform="matrix(0.999935,0,0,-0.999935,21276.8,9950.17)"
font-family="MS Shell Dlg 2" font-size="10.3125" font-weight="400" font-style="normal" 
>
</g>

<g fill="none" stroke="#000000" stroke-opacity="1" stroke-width="1" stroke-linecap="square" stroke-linejoin="bevel" transform="matrix(0.999935,0,0,-0.999935,21276.8,9950.17)"
font-family="MS Shell Dlg 2" font-size="10.3125" font-weight="400" font-style="normal" 
>
</g>

<g fill="#ae5151" fill-opacity="0.2" stroke="#333333" stroke-opacity="1" stroke-width="1" stroke-linecap="round" stroke-linejoin="round" transform="matrix(0.999935,0,0,-0.999935,21276.8,9950.17)"
font-family="MS Shell Dlg 2" font-size="10.3125" font-weight="400" font-style="normal" 
>
<path vector-effect="non-scaling-stroke" fill-rule="evenodd" d="M-10345.8,3013.24 L-10345.7,3014.23 L-10338,3052.49 L-10337.3,3054.3 L-10315.5,3086.57 L-10314.1,3087.95 L-10281.5,3109.32 L-10279.7,3110.05 L-10241.4,3117.25 L-10240.4,3117.33 L-10190.6,3116.71 L-10189.6,3116.6 L-10152,3108.7 L-10150.2,3107.94 L-10118.5,3086.41 L-10117.2,3085.03 L-10096,3053.07 L-10095.3,3051.28 L-10087.9,3013.59 L-10087.8,3012.62 L-10087.8,2812.8 L-10087.9,2811.82 L-10095.6,2773.56 L-10096.3,2771.74 L-10118.1,2739.48 L-10119.5,2738.1 L-10152,2716.73 L-10153.8,2715.99 L-10192.2,2708.8 L-10193.2,2708.71 L-10243,2709.33 L-10244,2709.44 L-10281.5,2717.35 L-10283.3,2718.11 L-10315,2739.64 L-10316.4,2741.02 L-10337.5,2772.98 L-10338.3,2774.77 L-10345.7,2812.46 L-10345.8,2813.43 L-10345.8,3013.24"/>
</g>

<g fill="none" stroke="#000000" stroke-opacity="1" stroke-width="1" stroke-linecap="square" stroke-linejoin="bevel" transform="matrix(0.999935,0,0,-0.999935,21276.8,9950.17)"
font-family="MS Shell Dlg 2" font-size="10.3125" font-weight="400" font-style="normal" 
>
</g>

<g fill="none" stroke="#000000" stroke-opacity="1" stroke-width="1" stroke-linecap="square" stroke-linejoin="bevel" transform="matrix(0.999935,0,0,-0.999935,21276.8,9950.17)"
font-family="MS Shell Dlg 2" font-size="10.3125" font-weight="400" font-style="normal" 
>
</g>

<g fill="#ae5151" fill-opacity="0.2" stroke="#333333" stroke-opacity="1" stroke-width="1" stroke-linecap="round" stroke-linejoin="round" transform="matrix(0.999935,0,0,-0.999935,21276.8,9950.17)"
font-family="MS Shell Dlg 2" font-size="10.3125" font-weight="400" font-style="normal" 
>
<path vector-effect="non-scaling-stroke" fill-rule="evenodd" d="M-11606.4,-1454.76 L-12390.6,-1454.76 L-12391.6,-1454.66 L-12410.5,-1450.9 L-12412.3,-1450.15 L-12428.2,-1439.54 L-12429.6,-1438.16 L-12438,-1425.54 L-12438.7,-1423.89 L-12438.8,-1422.11 L-12438.2,-1420.4 L-12437.1,-1419 L-12435.6,-1418.08 L-12433.8,-1417.76 L-12395.8,-1417.76 L-12395.8,-452.758 L-12395.4,-450.845 L-12394.3,-449.223 L-12392.7,-448.139 L-12390.8,-447.758 L-11652.8,-447.758 L-11651.1,-448.05 L-11649.6,-448.893 L-11648.5,-450.188 L-11647.9,-451.783 L-11647.9,-451.98 L-11647.8,-452.955 L-11647.8,-453.884 L-11647.1,-453.884 L-11646.3,-453.367 L-11644.5,-452.621 L-11625.6,-448.854 L-11624.6,-448.758 L-11606.4,-448.758 L-11606.4,-1454.76"/>
</g>

<g fill="none" stroke="#000000" stroke-opacity="1" stroke-width="1" stroke-linecap="square" stroke-linejoin="bevel" transform="matrix(0.999935,0,0,-0.999935,21276.8,9950.17)"
font-family="MS Shell Dlg 2" font-size="10.3125" font-weight="400" font-style="normal" 
>
</g>

<g fill="none" stroke="#000000" stroke-opacity="1" stroke-width="1" stroke-linecap="square" stroke-linejoin="bevel" transform="matrix(0.999935,0,0,-0.999935,21276.8,9950.17)"
font-family="MS Shell Dlg 2" font-size="10.3125" font-weight="400" font-style="normal" 
>
</g>

<g fill="#ae5151" fill-opacity="0.2" stroke="#333333" stroke-opacity="1" stroke-width="1" stroke-linecap="round" stroke-linejoin="round" transform="matrix(0.999935,0,0,-0.999935,21276.8,9950.17)"
font-family="MS Shell Dlg 2" font-size="10.3125" font-weight="400" font-style="normal" 
>
<path vector-effect="non-scaling-stroke" fill-rule="evenodd" d="M-13995.8,1547.24 L-13995.4,1549.16 L-13994.3,1550.78 L-13992.7,1551.86 L-13990.8,1552.24 L-13990.3,1552.24 L-13990.3,1656.33 L-13989.9,1658.24 L-13988.8,1659.86 L-13987.2,1660.95 L-13985.3,1661.33 L-13511.3,1660.86 L-13509.4,1660.47 L-13507.8,1659.39 L-13506.7,1657.77 L-13506.3,1655.86 L-13506.3,1562.24 L-13150.1,1562.24 L-13150.1,1655.49 L-13149.7,1657.41 L-13148.6,1659.03 L-13147,1660.11 L-13145.1,1660.49 L-12765.6,1660.12 L-12763.7,1659.74 L-12762.1,1658.65 L-12761,1657.03 L-12760.6,1655.12 L-12760.6,1562.24 L-12395.8,1562.24 L-12395.7,1655.65 L-12395.8,1655.94 L-12395.8,1796.24 L-12697,2022.17 L-12698.2,2023.5 L-12698.9,2025.18 L-12698.9,2026.99 L-12698.3,2028.69 L-12696,2032.71 L-12694.6,2034.24 L-12678.2,2046.07 L-12676.3,2046.91 L-12656.3,2051.13 L-12655.2,2051.24 L-11606.4,2051.24 L-11606.4,1044.24 L-11623.1,1044.24 L-11625.3,1044.8 L-11626.1,1045.44 L-11644.5,1049.1 L-11646.3,1049.85 L-11647.1,1050.37 L-11647.8,1050.37 L-11647.8,1049.44 L-11647.9,1048.46 L-11647.9,1048.27 L-11648.5,1046.67 L-11649.6,1045.38 L-11651.1,1044.53 L-11652.8,1044.24 L-12390.8,1044.24 L-12392.7,1044.62 L-12394.3,1045.71 L-12395.4,1047.33 L-12395.8,1049.24 L-12395.8,1435.36 L-12772.3,1435.73 L-12774.2,1436.12 L-12775.8,1437.2 L-12776.9,1438.82 L-12777.3,1440.73 L-12777.3,1534.24 L-13133.5,1534.24 L-13133.5,1441.1 L-13133.8,1439.18 L-13134.9,1437.56 L-13136.6,1436.48 L-13138.5,1436.1 L-13517.9,1436.47 L-13519.9,1436.85 L-13521.5,1437.94 L-13522.6,1439.56 L-13522.9,1441.47 L-13522.9,1534.24 L-13887.8,1534.24 L-13887.8,1440.83 L-13887.8,1440.55 L-13887.8,-1417.76 L-13849.7,-1417.76 L-13847.6,-1418.22 L-13845.9,-1419.51 L-13844.9,-1421.4 L-13844.8,-1423.54 L-13845.6,-1425.54 L-13854,-1438.16 L-13855.4,-1439.54 L-13871.3,-1450.15 L-13873.1,-1450.9 L-13892,-1454.66 L-13893,-1454.76 L-13990.6,-1454.76 L-13991.6,-1454.66 L-13991.8,-1454.62 L-13993.8,-1453.69 L-13995.3,-1451.93 L-13995.8,-1449.72 L-13995.8,1547.24"/>
</g>

<g fill="none" stroke="#000000" stroke-opacity="1" stroke-width="1" stroke-linecap="square" stroke-linejoin="bevel" transform="matrix(0.999935,0,0,-0.999935,21276.8,9950.17)"
font-family="MS Shell Dlg 2" font-size="10.3125" font-weight="400" font-style="normal" 
>
</g>

<g fill="none" stroke="#000000" stroke-opacity="1" stroke-width="1" stroke-linecap="square" stroke-linejoin="bevel" transform="matrix(0.999935,0,0,-0.999935,21276.8,9950.17)"
font-family="MS Shell Dlg 2" font-size="10.3125" font-weight="400" font-style="normal" 
>
</g>

<g fill="#ae5151" fill-opacity="0.2" stroke="#333333" stroke-opacity="1" stroke-width="1" stroke-linecap="round" stroke-linejoin="round" transform="matrix(0.999935,0,0,-0.999935,21276.8,9950.17)"
font-family="MS Shell Dlg 2" font-size="10.3125" font-weight="400" font-style="normal" 
>
<path vector-effect="non-scaling-stroke" fill-rule="evenodd" d="M-10739.7,3944.24 L-10741.4,3944.54 L-10742.9,3945.38 L-10744,3946.67 L-10744.6,3948.27 L-10744.7,3948.46 L-10744.8,3949.44 L-10744.8,4047.05 L-10744.7,4048.02 L-10744.6,4048.22 L-10744,4049.81 L-10742.9,4051.11 L-10741.4,4051.95 L-10739.7,4052.24 L-7143.82,4052.24 L-7142.14,4051.95 L-7140.65,4051.11 L-7139.53,4049.81 L-7138.92,4048.22 L-7138.88,4048.02 L-7138.78,4047.05 L-7138.78,3949.44 L-7138.88,3948.46 L-7142.65,3929.53 L-7143.39,3927.73 L-7154.01,3911.84 L-7155.39,3910.46 L-7171.27,3899.85 L-7173.07,3899.1 L-7189.81,3895.78 L-7192,3895.83 L-7193.96,3896.81 L-7195.3,3898.54 L-7195.78,3900.68 L-7195.78,3944.24 L-10739.7,3944.24"/>
</g>

<g fill="none" stroke="#000000" stroke-opacity="1" stroke-width="1" stroke-linecap="square" stroke-linejoin="bevel" transform="matrix(0.999935,0,0,-0.999935,21276.8,9950.17)"
font-family="MS Shell Dlg 2" font-size="10.3125" font-weight="400" font-style="normal" 
>
</g>

<g fill="none" stroke="#000000" stroke-opacity="1" stroke-width="1" stroke-linecap="square" stroke-linejoin="bevel" transform="matrix(0.999935,0,0,-0.999935,21276.8,9950.17)"
font-family="MS Shell Dlg 2" font-size="10.3125" font-weight="400" font-style="normal" 
>
</g>

<g fill="#ae5151" fill-opacity="0.2" stroke="#333333" stroke-opacity="1" stroke-width="1" stroke-linecap="round" stroke-linejoin="round" transform="matrix(0.999935,0,0,-0.999935,21276.8,9950.17)"
font-family="MS Shell Dlg 2" font-size="10.3125" font-weight="400" font-style="normal" 
>
<path vector-effect="non-scaling-stroke" fill-rule="evenodd" d="M-16201.1,6489.97 L-16201.1,6491.93 L-16197.3,6510.66 L-16196.6,6512.46 L-16185.9,6528.51 L-16185.2,6529.27 L-16171.9,6542.64 L-16102.8,6611.7 L-16102,6612.33 L-16086,6623.05 L-16084.1,6623.8 L-16065.4,6627.52 L-16063.5,6627.51 L-16044.7,6623.78 L-16042.9,6623.03 L-16026.9,6612.29 L-16026.1,6611.67 L-15990.6,6576.11 L-15974.9,6560.38 L-15973.8,6558.71 L-15973.4,6556.74 L-15973.9,6554.79 L-15975.1,6553.17 L-15976.8,6552.14 L-16020.6,6536.61 L-15703,6218.59 L-15701.9,6216.97 L-15701.6,6215.06 L-15701.9,6213.15 L-15703,6211.53 L-15769.1,6145.41 L-15431.4,5807.68 L-15365.6,5873.54 L-15363.9,5874.63 L-15362,5875.01 L-15360.1,5874.63 L-15358.5,5873.54 L-15000.5,5515.03 L-14999.4,5513.41 L-14999,5511.5 L-14999.4,5509.59 L-15000.5,5507.97 L-15066.1,5442.37 L-14720.2,5096.48 L-14689.4,5127.28 L-14687.6,5128.45 L-14685.4,5128.72 L-14683.3,5128.03 L-14681.7,5126.52 L-14672.2,5112.33 L-14671.5,5110.53 L-14667.8,5091.79 L-14667.8,5089.84 L-14671.5,5071.1 L-14672.3,5069.3 L-14683,5053.25 L-14683.6,5052.5 L-14697,5039.13 L-14766.1,4970.07 L-14766.8,4969.45 L-14767,4969.32 L-14768.6,4968.63 L-14770.3,4968.51 L-14771.9,4968.96 L-14773.3,4969.95 L-15165.9,5363.1 L-15167,5364.72 L-15167.4,5366.63 L-15167,5368.55 L-15165.9,5370.17 L-15099.7,5436.36 L-15437.4,5774.09 L-15503.4,5708.15 L-15505,5707.06 L-15506.9,5706.68 L-15508.8,5707.07 L-15510.4,5708.15 L-15868.4,6066.66 L-15869.5,6068.28 L-15869.9,6070.19 L-15869.5,6072.11 L-15868.4,6073.73 L-15802.7,6139.4 L-16148.6,6485.28 L-16179.4,6454.49 L-16181.3,6453.32 L-16183.5,6453.05 L-16185.5,6453.74 L-16187.1,6455.25 L-16196.6,6469.43 L-16197.3,6471.24 L-16201.1,6489.97"/>
</g>

<g fill="none" stroke="#000000" stroke-opacity="1" stroke-width="1" stroke-linecap="square" stroke-linejoin="bevel" transform="matrix(0.999935,0,0,-0.999935,21276.8,9950.17)"
font-family="MS Shell Dlg 2" font-size="10.3125" font-weight="400" font-style="normal" 
>
</g>

<g fill="none" stroke="#000000" stroke-opacity="1" stroke-width="1" stroke-linecap="square" stroke-linejoin="bevel" transform="matrix(0.999935,0,0,-0.999935,21276.8,9950.17)"
font-family="MS Shell Dlg 2" font-size="10.3125" font-weight="400" font-style="normal" 
>
</g>

<g fill="#333333" fill-opacity="0.2" stroke="#333333" stroke-opacity="1" stroke-width="1" stroke-linecap="round" stroke-linejoin="round" transform="matrix(0.999935,0,0,-0.999935,21276.8,9950.17)"
font-family="MS Shell Dlg 2" font-size="10.3125" font-weight="400" font-style="normal" 
>
<path vector-effect="non-scaling-stroke" fill-rule="evenodd" d="M-10345.8,3013.24 L-10345.7,3014.23 L-10338,3052.49 L-10337.3,3054.3 L-10315.5,3086.57 L-10314.1,3087.95 L-10281.5,3109.32 L-10279.7,3110.05 L-10241.4,3117.25 L-10240.4,3117.33 L-10190.6,3116.71 L-10189.6,3116.6 L-10152,3108.7 L-10150.2,3107.94 L-10118.5,3086.41 L-10117.2,3085.03 L-10096,3053.07 L-10095.3,3051.28 L-10087.9,3013.59 L-10087.8,3012.62 L-10087.8,2812.8 L-10087.9,2811.82 L-10095.6,2773.56 L-10096.3,2771.74 L-10118.1,2739.48 L-10119.5,2738.1 L-10152,2716.73 L-10153.8,2715.99 L-10192.2,2708.8 L-10193.2,2708.71 L-10243,2709.33 L-10244,2709.44 L-10281.5,2717.35 L-10283.3,2718.11 L-10315,2739.64 L-10316.4,2741.02 L-10337.5,2772.98 L-10338.3,2774.77 L-10345.7,2812.46 L-10345.8,2813.43 L-10345.8,3013.24"/>
</g>

<g fill="none" stroke="#000000" stroke-opacity="1" stroke-width="1" stroke-linecap="square" stroke-linejoin="bevel" transform="matrix(0.999935,0,0,-0.999935,21276.8,9950.17)"
font-family="MS Shell Dlg 2" font-size="10.3125" font-weight="400" font-style="normal" 
>
</g>

<g fill="none" stroke="#000000" stroke-opacity="1" stroke-width="1" stroke-linecap="square" stroke-linejoin="bevel" transform="matrix(0.999935,0,0,-0.999935,21276.8,9950.17)"
font-family="MS Shell Dlg 2" font-size="10.3125" font-weight="400" font-style="normal" 
>
</g>

<g fill="#333333" fill-opacity="0.2" stroke="#333333" stroke-opacity="1" stroke-width="1" stroke-linecap="round" stroke-linejoin="round" transform="matrix(0.999935,0,0,-0.999935,21276.8,9950.17)"
font-family="MS Shell Dlg 2" font-size="10.3125" font-weight="400" font-style="normal" 
>
<path vector-effect="non-scaling-stroke" fill-rule="evenodd" d="M-11606.4,-1454.76 L-12390.6,-1454.76 L-12391.6,-1454.66 L-12410.5,-1450.9 L-12412.3,-1450.15 L-12428.2,-1439.54 L-12429.6,-1438.16 L-12438,-1425.54 L-12438.7,-1423.89 L-12438.8,-1422.11 L-12438.2,-1420.4 L-12437.1,-1419 L-12435.6,-1418.08 L-12433.8,-1417.76 L-12395.8,-1417.76 L-12395.8,-452.758 L-12395.4,-450.845 L-12394.3,-449.223 L-12392.7,-448.139 L-12390.8,-447.758 L-11652.8,-447.758 L-11651.1,-448.05 L-11649.6,-448.893 L-11648.5,-450.188 L-11647.9,-451.783 L-11647.9,-451.98 L-11647.8,-452.955 L-11647.8,-453.884 L-11647.1,-453.884 L-11646.3,-453.367 L-11644.5,-452.621 L-11625.6,-448.854 L-11624.6,-448.758 L-11606.4,-448.758 L-11606.4,-1454.76"/>
</g>

<g fill="none" stroke="#000000" stroke-opacity="1" stroke-width="1" stroke-linecap="square" stroke-linejoin="bevel" transform="matrix(0.999935,0,0,-0.999935,21276.8,9950.17)"
font-family="MS Shell Dlg 2" font-size="10.3125" font-weight="400" font-style="normal" 
>
</g>

<g fill="none" stroke="#000000" stroke-opacity="1" stroke-width="1" stroke-linecap="square" stroke-linejoin="bevel" transform="matrix(0.999935,0,0,-0.999935,21276.8,9950.17)"
font-family="MS Shell Dlg 2" font-size="10.3125" font-weight="400" font-style="normal" 
>
</g>

<g fill="#333333" fill-opacity="0.2" stroke="#333333" stroke-opacity="1" stroke-width="1" stroke-linecap="round" stroke-linejoin="round" transform="matrix(0.999935,0,0,-0.999935,21276.8,9950.17)"
font-family="MS Shell Dlg 2" font-size="10.3125" font-weight="400" font-style="normal" 
>
<path vector-effect="non-scaling-stroke" fill-rule="evenodd" d="M-13995.8,1547.24 L-13995.4,1549.16 L-13994.3,1550.78 L-13992.7,1551.86 L-13990.8,1552.24 L-13990.3,1552.24 L-13990.3,1656.33 L-13989.9,1658.24 L-13988.8,1659.86 L-13987.2,1660.95 L-13985.3,1661.33 L-13511.3,1660.86 L-13509.4,1660.47 L-13507.8,1659.39 L-13506.7,1657.77 L-13506.3,1655.86 L-13506.3,1562.24 L-13150.1,1562.24 L-13150.1,1655.49 L-13149.7,1657.41 L-13148.6,1659.03 L-13147,1660.11 L-13145.1,1660.49 L-12765.6,1660.12 L-12763.7,1659.74 L-12762.1,1658.65 L-12761,1657.03 L-12760.6,1655.12 L-12760.6,1562.24 L-12395.8,1562.24 L-12395.7,1655.65 L-12395.8,1655.94 L-12395.8,1796.24 L-12697,2022.17 L-12698.2,2023.5 L-12698.9,2025.18 L-12698.9,2026.99 L-12698.3,2028.69 L-12696,2032.71 L-12694.6,2034.24 L-12678.2,2046.07 L-12676.3,2046.91 L-12656.3,2051.13 L-12655.2,2051.24 L-11606.4,2051.24 L-11606.4,1044.24 L-11623.1,1044.24 L-11625.3,1044.8 L-11626.1,1045.44 L-11644.5,1049.1 L-11646.3,1049.85 L-11647.1,1050.37 L-11647.8,1050.37 L-11647.8,1049.44 L-11647.9,1048.46 L-11647.9,1048.27 L-11648.5,1046.67 L-11649.6,1045.38 L-11651.1,1044.53 L-11652.8,1044.24 L-12390.8,1044.24 L-12392.7,1044.62 L-12394.3,1045.71 L-12395.4,1047.33 L-12395.8,1049.24 L-12395.8,1435.36 L-12772.3,1435.73 L-12774.2,1436.12 L-12775.8,1437.2 L-12776.9,1438.82 L-12777.3,1440.73 L-12777.3,1534.24 L-13133.5,1534.24 L-13133.5,1441.1 L-13133.8,1439.18 L-13134.9,1437.56 L-13136.6,1436.48 L-13138.5,1436.1 L-13517.9,1436.47 L-13519.9,1436.85 L-13521.5,1437.94 L-13522.6,1439.56 L-13522.9,1441.47 L-13522.9,1534.24 L-13887.8,1534.24 L-13887.8,1440.83 L-13887.8,1440.55 L-13887.8,-1417.76 L-13849.7,-1417.76 L-13847.6,-1418.22 L-13845.9,-1419.51 L-13844.9,-1421.4 L-13844.8,-1423.54 L-13845.6,-1425.54 L-13854,-1438.16 L-13855.4,-1439.54 L-13871.3,-1450.15 L-13873.1,-1450.9 L-13892,-1454.66 L-13893,-1454.76 L-13990.6,-1454.76 L-13991.6,-1454.66 L-13991.8,-1454.62 L-13993.8,-1453.69 L-13995.3,-1451.93 L-13995.8,-1449.72 L-13995.8,1547.24"/>
</g>

<g fill="none" stroke="#000000" stroke-opacity="1" stroke-width="1" stroke-linecap="square" stroke-linejoin="bevel" transform="matrix(0.999935,0,0,-0.999935,21276.8,9950.17)"
font-family="MS Shell Dlg 2" font-size="10.3125" font-weight="400" font-style="normal" 
>
</g>

<g fill="none" stroke="#000000" stroke-opacity="1" stroke-width="1" stroke-linecap="square" stroke-linejoin="bevel" transform="matrix(0.999935,0,0,-0.999935,21276.8,9950.17)"
font-family="MS Shell Dlg 2" font-size="10.3125" font-weight="400" font-style="normal" 
>
</g>

<g fill="#333333" fill-opacity="0.2" stroke="#333333" stroke-opacity="1" stroke-width="1" stroke-linecap="round" stroke-linejoin="round" transform="matrix(0.999935,0,0,-0.999935,21276.8,9950.17)"
font-family="MS Shell Dlg 2" font-size="10.3125" font-weight="400" font-style="normal" 
>
<path vector-effect="non-scaling-stroke" fill-rule="evenodd" d="M-10739.7,3944.24 L-10741.4,3944.54 L-10742.9,3945.38 L-10744,3946.67 L-10744.6,3948.27 L-10744.7,3948.46 L-10744.8,3949.44 L-10744.8,4047.05 L-10744.7,4048.02 L-10744.6,4048.22 L-10744,4049.81 L-10742.9,4051.11 L-10741.4,4051.95 L-10739.7,4052.24 L-7143.82,4052.24 L-7142.14,4051.95 L-7140.65,4051.11 L-7139.53,4049.81 L-7138.92,4048.22 L-7138.88,4048.02 L-7138.78,4047.05 L-7138.78,3949.44 L-7138.88,3948.46 L-7142.65,3929.53 L-7143.39,3927.73 L-7154.01,3911.84 L-7155.39,3910.46 L-7171.27,3899.85 L-7173.07,3899.1 L-7189.81,3895.78 L-7192,3895.83 L-7193.96,3896.81 L-7195.3,3898.54 L-7195.78,3900.68 L-7195.78,3944.24 L-10739.7,3944.24"/>
</g>

<g fill="none" stroke="#000000" stroke-opacity="1" stroke-width="1" stroke-linecap="square" stroke-linejoin="bevel" transform="matrix(0.999935,0,0,-0.999935,21276.8,9950.17)"
font-family="MS Shell Dlg 2" font-size="10.3125" font-weight="400" font-style="normal" 
>
</g>

<g fill="none" stroke="#000000" stroke-opacity="1" stroke-width="1" stroke-linecap="square" stroke-linejoin="bevel" transform="matrix(0.999935,0,0,-0.999935,21276.8,9950.17)"
font-family="MS Shell Dlg 2" font-size="10.3125" font-weight="400" font-style="normal" 
>
</g>

<g fill="#333333" fill-opacity="0.2" stroke="#333333" stroke-opacity="1" stroke-width="1" stroke-linecap="round" stroke-linejoin="round" transform="matrix(0.999935,0,0,-0.999935,21276.8,9950.17)"
font-family="MS Shell Dlg 2" font-size="10.3125" font-weight="400" font-style="normal" 
>
<path vector-effect="non-scaling-stroke" fill-rule="evenodd" d="M-16201.1,6489.97 L-16201.1,6491.93 L-16197.3,6510.66 L-16196.6,6512.46 L-16185.9,6528.51 L-16185.2,6529.27 L-16171.9,6542.64 L-16102.8,6611.7 L-16102,6612.33 L-16086,6623.05 L-16084.1,6623.8 L-16065.4,6627.52 L-16063.5,6627.51 L-16044.7,6623.78 L-16042.9,6623.03 L-16026.9,6612.29 L-16026.1,6611.67 L-15990.6,6576.11 L-15974.9,6560.38 L-15973.8,6558.71 L-15973.4,6556.74 L-15973.9,6554.79 L-15975.1,6553.17 L-15976.8,6552.14 L-16020.6,6536.61 L-15703,6218.59 L-15701.9,6216.97 L-15701.6,6215.06 L-15701.9,6213.15 L-15703,6211.53 L-15769.1,6145.41 L-15431.4,5807.68 L-15365.6,5873.54 L-15363.9,5874.63 L-15362,5875.01 L-15360.1,5874.63 L-15358.5,5873.54 L-15000.5,5515.03 L-14999.4,5513.41 L-14999,5511.5 L-14999.4,5509.59 L-15000.5,5507.97 L-15066.1,5442.37 L-14720.2,5096.48 L-14689.4,5127.28 L-14687.6,5128.45 L-14685.4,5128.72 L-14683.3,5128.03 L-14681.7,5126.52 L-14672.2,5112.33 L-14671.5,5110.53 L-14667.8,5091.79 L-14667.8,5089.84 L-14671.5,5071.1 L-14672.3,5069.3 L-14683,5053.25 L-14683.6,5052.5 L-14697,5039.13 L-14766.1,4970.07 L-14766.8,4969.45 L-14767,4969.32 L-14768.6,4968.63 L-14770.3,4968.51 L-14771.9,4968.96 L-14773.3,4969.95 L-15165.9,5363.1 L-15167,5364.72 L-15167.4,5366.63 L-15167,5368.55 L-15165.9,5370.17 L-15099.7,5436.36 L-15437.4,5774.09 L-15503.4,5708.15 L-15505,5707.06 L-15506.9,5706.68 L-15508.8,5707.07 L-15510.4,5708.15 L-15868.4,6066.66 L-15869.5,6068.28 L-15869.9,6070.19 L-15869.5,6072.11 L-15868.4,6073.73 L-15802.7,6139.4 L-16148.6,6485.28 L-16179.4,6454.49 L-16181.3,6453.32 L-16183.5,6453.05 L-16185.5,6453.74 L-16187.1,6455.25 L-16196.6,6469.43 L-16197.3,6471.24 L-16201.1,6489.97"/>
</g>

<g fill="none" stroke="#000000" stroke-opacity="1" stroke-width="1" stroke-linecap="square" stroke-linejoin="bevel" transform="matrix(0.999935,0,0,-0.999935,21276.8,9950.17)"
font-family="MS Shell Dlg 2" font-size="10.3125" font-weight="400" font-style="normal" 
>
</g>

<g fill="none" stroke="#000000" stroke-opacity="1" stroke-width="1" stroke-linecap="square" stroke-linejoin="bevel" transform="matrix(1,0,0,-1,0,18244.1)"
font-family="MS Shell Dlg 2" font-size="10.3125" font-weight="400" font-style="normal" 
>
</g>
</g>
</svg>
