<?xml version="1.0" encoding="UTF-8" standalone="no"?>
<svg width="1660.88mm" height="956.451mm"
 xmlns="http://www.w3.org/2000/svg" xmlns:xlink="http://www.w3.org/1999/xlink"  version="1.2" baseProfile="tiny">
<title>SVG Generator Example Drawing</title>
<desc>An SVG drawing created by the SVG Generator</desc>
<defs>
</defs>
<g fill="none" stroke="black" stroke-width="1" fill-rule="evenodd" stroke-linecap="square" stroke-linejoin="bevel" >

<g fill="none" stroke="#000000" stroke-opacity="1" stroke-width="1" stroke-linecap="square" stroke-linejoin="bevel" transform="matrix(1,0,0,-1,0,3390)"
font-family="MS Shell Dlg 2" font-size="10.3125" font-weight="400" font-style="normal" 
>
</g>

<g fill="none" stroke="#000000" stroke-opacity="1" stroke-width="1" stroke-linecap="square" stroke-linejoin="bevel" transform="matrix(1,0,0,-1,0,3390)"
font-family="MS Shell Dlg 2" font-size="10.3125" font-weight="400" font-style="normal" 
>
</g>

<g fill="none" stroke="#000000" stroke-opacity="1" stroke-width="1" stroke-linecap="square" stroke-linejoin="bevel" transform="matrix(0.999706,0,0,-0.999706,-9797.19,50895.5)"
font-family="MS Shell Dlg 2" font-size="10.3125" font-weight="400" font-style="normal" 
>
</g>

<g fill="#ae5151" fill-opacity="0.2" stroke="#333333" stroke-opacity="1" stroke-width="1" stroke-linecap="round" stroke-linejoin="round" transform="matrix(0.999706,0,0,-0.999706,-9797.19,50895.5)"
font-family="MS Shell Dlg 2" font-size="10.3125" font-weight="400" font-style="normal" 
>
<path vector-effect="non-scaling-stroke" fill-rule="evenodd" d="M14512.5,47520 L14500.8,47520 L13328.7,47520 L12156.6,47520 L10984.5,47520 L10972.8,47520 L9800.68,47520 L9800.57,47520 L9800.57,48000 L9800.58,48000 L9800.57,48000 L9803.43,48129.6 L9803.43,48129.6 L10019.5,49113.7 L10019.5,49113.8 L10555,49967.2 L10555,49967.2 L11347.1,50590 L11347.1,50590 L12302.8,50909 L12302.8,50909 L13310.1,50886.8 L13310.2,50886.8 L14250.9,50526 L14250.9,50526 L15014.8,49868.9 L15014.8,49868.9 L15512.1,48992.7 L15512.1,48992.7 L15684.7,48000 L15684.7,48000 L15684.7,48000 L15684.7,47520 L15684.6,47520 L14512.5,47520"/>
</g>

<g fill="none" stroke="#000000" stroke-opacity="1" stroke-width="1" stroke-linecap="square" stroke-linejoin="bevel" transform="matrix(0.999706,0,0,-0.999706,-9797.19,50895.5)"
font-family="MS Shell Dlg 2" font-size="10.3125" font-weight="400" font-style="normal" 
>
</g>

<g fill="none" stroke="#000000" stroke-opacity="1" stroke-width="1" stroke-linecap="square" stroke-linejoin="bevel" transform="matrix(1,0,0,-1,0,3390)"
font-family="MS Shell Dlg 2" font-size="10.3125" font-weight="400" font-style="normal" 
>
</g>
</g>
</svg>
