<?xml version="1.0" encoding="UTF-8" standalone="no"?>
<svg width="4233.33mm" height="14725.8mm"
 xmlns="http://www.w3.org/2000/svg" xmlns:xlink="http://www.w3.org/1999/xlink"  version="1.2" baseProfile="tiny">
<title>SVG Generator Example Drawing</title>
<desc>An SVG drawing created by the SVG Generator</desc>
<defs>
</defs>
<g fill="none" stroke="black" stroke-width="1" fill-rule="evenodd" stroke-linecap="square" stroke-linejoin="bevel" >

<g fill="none" stroke="#000000" stroke-opacity="1" stroke-width="1" stroke-linecap="square" stroke-linejoin="bevel" transform="matrix(1,0,0,-1,0,52178.7)"
font-family="MS Shell Dlg 2" font-size="10.3125" font-weight="400" font-style="normal" 
>
</g>

<g fill="none" stroke="#000000" stroke-opacity="1" stroke-width="1" stroke-linecap="square" stroke-linejoin="bevel" transform="matrix(1,0,0,-1,0,52178.7)"
font-family="MS Shell Dlg 2" font-size="10.3125" font-weight="400" font-style="normal" 
>
</g>

<g fill="none" stroke="#000000" stroke-opacity="1" stroke-width="1" stroke-linecap="square" stroke-linejoin="bevel" transform="matrix(0.999935,0,0,-0.999935,-5241.78,50909.6)"
font-family="MS Shell Dlg 2" font-size="10.3125" font-weight="400" font-style="normal" 
>
</g>

<g fill="#ae5151" fill-opacity="0.2" stroke="#333333" stroke-opacity="1" stroke-width="1" stroke-linecap="round" stroke-linejoin="round" transform="matrix(0.999935,0,0,-0.999935,-5241.78,50909.6)"
font-family="MS Shell Dlg 2" font-size="10.3125" font-weight="400" font-style="normal" 
>
<path vector-effect="non-scaling-stroke" fill-rule="evenodd" d="M14696.1,2479.98 L14709.1,2479.98 L16011.5,2479.98 L16011.6,2479.98 L16011.6,2000 L16011.6,1999.99 L16011.6,1999.98 L16010.5,1918.47 L16010.5,1918.45 L15828.1,920.32 L15828.1,920.291 L15348.4,26.186 L15348.4,26.1612 L14617.6,-677.769 L14617.6,-677.787 L13706.2,-1123.72 L13706.1,-1123.73 L12701.9,-1268.69 L12701.8,-1268.69 L11701.5,-1098.73 L11701.5,-1098.72 L10801.5,-630.195 L10801.4,-630.176 L10088.4,91.7598 L10088.4,91.785 L9631.17,997.575 L9631.16,997.605 L9473.68,1999.96 L9473.68,1999.98 L9473.68,2000 L9473.68,2480 L9473.78,2480 L10776.1,2480 L10789.1,2480 L12091.5,2479.99 L13393.8,2479.99 L14696.1,2479.98"/>
</g>

<g fill="none" stroke="#000000" stroke-opacity="1" stroke-width="1" stroke-linecap="square" stroke-linejoin="bevel" transform="matrix(0.999935,0,0,-0.999935,-5241.78,50909.6)"
font-family="MS Shell Dlg 2" font-size="10.3125" font-weight="400" font-style="normal" 
>
</g>

<g fill="none" stroke="#000000" stroke-opacity="1" stroke-width="1" stroke-linecap="square" stroke-linejoin="bevel" transform="matrix(0.999935,0,0,-0.999935,-5241.78,50909.6)"
font-family="MS Shell Dlg 2" font-size="10.3125" font-weight="400" font-style="normal" 
>
</g>

<g fill="#ae5151" fill-opacity="0.2" stroke="#333333" stroke-opacity="1" stroke-width="1" stroke-linecap="round" stroke-linejoin="round" transform="matrix(0.999935,0,0,-0.999935,-5241.78,50909.6)"
font-family="MS Shell Dlg 2" font-size="10.3125" font-weight="400" font-style="normal" 
>
<path vector-effect="non-scaling-stroke" fill-rule="evenodd" d="M6722.61,23545.3 L6722.61,18870.4 L6722.61,14195.5 L6722.61,14148.7 L6722.61,9473.79 L6722.61,9473.69 L6242.63,9473.69 L6242.59,9473.7 L6242.56,9473.72 L6242.53,9473.75 L6242.53,9473.79 L5242.63,9473.79 L5242.63,32852.5 L5686.68,32882.3 L6243.05,32892 L6722.61,32891.9 L6722.61,28267 L6722.61,28220.3 L6722.61,23545.3"/>
</g>

<g fill="none" stroke="#000000" stroke-opacity="1" stroke-width="1" stroke-linecap="square" stroke-linejoin="bevel" transform="matrix(0.999935,0,0,-0.999935,-5241.78,50909.6)"
font-family="MS Shell Dlg 2" font-size="10.3125" font-weight="400" font-style="normal" 
>
</g>

<g fill="none" stroke="#000000" stroke-opacity="1" stroke-width="1" stroke-linecap="square" stroke-linejoin="bevel" transform="matrix(0.999935,0,0,-0.999935,-5241.78,50909.6)"
font-family="MS Shell Dlg 2" font-size="10.3125" font-weight="400" font-style="normal" 
>
</g>

<g fill="#ae5151" fill-opacity="0.2" stroke="#333333" stroke-opacity="1" stroke-width="1" stroke-linecap="round" stroke-linejoin="round" transform="matrix(0.999935,0,0,-0.999935,-5241.78,50909.6)"
font-family="MS Shell Dlg 2" font-size="10.3125" font-weight="400" font-style="normal" 
>
<path vector-effect="non-scaling-stroke" fill-rule="evenodd" d="M18762.6,14148.7 L18762.6,14195.5 L18762.6,18870.4 L18762.6,23545.3 L18762.6,28220.3 L18762.6,28267 L18762.6,32941.9 L18767.6,32941.9 L18767.6,32891.9 L19241.8,32892 L20242.6,32859.9 L20242.6,9473.79 L19242.7,9473.79 L19242.7,9473.75 L19242.7,9473.72 L19242.6,9473.7 L19242.6,9473.69 L18762.6,9473.69 L18762.6,9473.79 L18762.6,14148.7"/>
</g>

<g fill="none" stroke="#000000" stroke-opacity="1" stroke-width="1" stroke-linecap="square" stroke-linejoin="bevel" transform="matrix(0.999935,0,0,-0.999935,-5241.78,50909.6)"
font-family="MS Shell Dlg 2" font-size="10.3125" font-weight="400" font-style="normal" 
>
</g>

<g fill="none" stroke="#000000" stroke-opacity="1" stroke-width="1" stroke-linecap="square" stroke-linejoin="bevel" transform="matrix(0.999935,0,0,-0.999935,-5241.78,50909.6)"
font-family="MS Shell Dlg 2" font-size="10.3125" font-weight="400" font-style="normal" 
>
</g>

<g fill="#ae5151" fill-opacity="0.2" stroke="#333333" stroke-opacity="1" stroke-width="1" stroke-linecap="round" stroke-linejoin="round" transform="matrix(0.999935,0,0,-0.999935,-5241.78,50909.6)"
font-family="MS Shell Dlg 2" font-size="10.3125" font-weight="400" font-style="normal" 
>
<path vector-effect="non-scaling-stroke" fill-rule="evenodd" d="M6722.61,42045.5 L6722.61,42039.6 L6722.61,41442 L6717.61,41442 L6717.61,41492 L6242.7,41492 L5242.63,41494.7 L5242.63,44441.9 L6242.53,44441.9 L6242.53,44442 L6242.56,44442 L6242.59,44442 L6242.63,44442 L6722.61,44442 L6722.61,44441.9 L6722.61,43844.3 L6722.61,43838.4 L6722.61,43240.7 L6722.61,42643.1 L6722.61,42045.5"/>
</g>

<g fill="none" stroke="#000000" stroke-opacity="1" stroke-width="1" stroke-linecap="square" stroke-linejoin="bevel" transform="matrix(0.999935,0,0,-0.999935,-5241.78,50909.6)"
font-family="MS Shell Dlg 2" font-size="10.3125" font-weight="400" font-style="normal" 
>
</g>

<g fill="none" stroke="#000000" stroke-opacity="1" stroke-width="1" stroke-linecap="square" stroke-linejoin="bevel" transform="matrix(0.999935,0,0,-0.999935,-5241.78,50909.6)"
font-family="MS Shell Dlg 2" font-size="10.3125" font-weight="400" font-style="normal" 
>
</g>

<g fill="#ae5151" fill-opacity="0.2" stroke="#333333" stroke-opacity="1" stroke-width="1" stroke-linecap="round" stroke-linejoin="round" transform="matrix(0.999935,0,0,-0.999935,-5241.78,50909.6)"
font-family="MS Shell Dlg 2" font-size="10.3125" font-weight="400" font-style="normal" 
>
<path vector-effect="non-scaling-stroke" fill-rule="evenodd" d="M18762.6,42039.6 L18762.6,42045.5 L18762.6,42643.1 L18762.6,43240.7 L18762.6,43838.4 L18762.6,43844.3 L18762.6,44441.9 L18762.6,44442 L19242.6,44442 L19242.6,44442 L19242.7,44442 L19242.7,44442 L19242.7,44441.9 L20242.6,44441.9 L20242.6,41495.1 L19882.5,41493 L19242.6,41491.9 L18762.6,41491.9 L18762.6,42039.6"/>
</g>

<g fill="none" stroke="#000000" stroke-opacity="1" stroke-width="1" stroke-linecap="square" stroke-linejoin="bevel" transform="matrix(0.999935,0,0,-0.999935,-5241.78,50909.6)"
font-family="MS Shell Dlg 2" font-size="10.3125" font-weight="400" font-style="normal" 
>
</g>

<g fill="none" stroke="#000000" stroke-opacity="1" stroke-width="1" stroke-linecap="square" stroke-linejoin="bevel" transform="matrix(0.999935,0,0,-0.999935,-5241.78,50909.6)"
font-family="MS Shell Dlg 2" font-size="10.3125" font-weight="400" font-style="normal" 
>
</g>

<g fill="#ae5151" fill-opacity="0.2" stroke="#333333" stroke-opacity="1" stroke-width="1" stroke-linecap="round" stroke-linejoin="round" transform="matrix(0.999935,0,0,-0.999935,-5241.78,50909.6)"
font-family="MS Shell Dlg 2" font-size="10.3125" font-weight="400" font-style="normal" 
>
<path vector-effect="non-scaling-stroke" fill-rule="evenodd" d="M14512.5,47520 L14500.8,47520 L13328.7,47520 L12156.6,47520 L10984.5,47520 L10972.8,47520 L9800.68,47520 L9800.57,47520 L9800.57,48000 L9800.58,48000 L9800.57,48000 L9803.43,48129.6 L9803.43,48129.6 L10019.5,49113.7 L10019.5,49113.8 L10555,49967.2 L10555,49967.2 L11347.1,50590 L11347.1,50590 L12302.8,50909 L12302.8,50909 L13310.1,50886.8 L13310.2,50886.8 L14250.9,50526 L14250.9,50526 L15014.8,49868.9 L15014.8,49868.9 L15512.1,48992.7 L15512.1,48992.7 L15684.7,48000 L15684.7,48000 L15684.7,48000 L15684.7,47520 L15684.6,47520 L14512.5,47520"/>
</g>

<g fill="none" stroke="#000000" stroke-opacity="1" stroke-width="1" stroke-linecap="square" stroke-linejoin="bevel" transform="matrix(0.999935,0,0,-0.999935,-5241.78,50909.6)"
font-family="MS Shell Dlg 2" font-size="10.3125" font-weight="400" font-style="normal" 
>
</g>

<g fill="none" stroke="#000000" stroke-opacity="1" stroke-width="1" stroke-linecap="square" stroke-linejoin="bevel" transform="matrix(1,0,0,-1,0,52178.7)"
font-family="MS Shell Dlg 2" font-size="10.3125" font-weight="400" font-style="normal" 
>
</g>
</g>
</svg>
