<?xml version="1.0" encoding="UTF-8" standalone="no"?>
<svg width="28222.5mm" height="28222.5mm"
 xmlns="http://www.w3.org/2000/svg" xmlns:xlink="http://www.w3.org/1999/xlink"  version="1.2" baseProfile="tiny">
<title>SVG Generator Example Drawing</title>
<desc>An SVG drawing created by the SVG Generator</desc>
<defs>
</defs>
<g fill="none" stroke="black" stroke-width="1" fill-rule="evenodd" stroke-linecap="square" stroke-linejoin="bevel" >

<g fill="none" stroke="#000000" stroke-opacity="1" stroke-width="1" stroke-linecap="square" stroke-linejoin="bevel" transform="matrix(1,0,0,-1,0,100001)"
font-family="MS Shell Dlg 2" font-size="10.3125" font-weight="400" font-style="normal" 
>
</g>

<g fill="none" stroke="#000000" stroke-opacity="1" stroke-width="1" stroke-linecap="square" stroke-linejoin="bevel" transform="matrix(1,0,0,-1,0,100001)"
font-family="MS Shell Dlg 2" font-size="10.3125" font-weight="400" font-style="normal" 
>
</g>

<g fill="none" stroke="#000000" stroke-opacity="1" stroke-width="1" stroke-linecap="square" stroke-linejoin="bevel" transform="matrix(1,0,0,-1,39063.8,33196.2)"
font-family="MS Shell Dlg 2" font-size="10.3125" font-weight="400" font-style="normal" 
>
</g>

<g fill="#333333" fill-opacity="0.500008" stroke="#333333" stroke-opacity="1" stroke-width="1" stroke-linecap="round" stroke-linejoin="round" transform="matrix(1,0,0,-1,39063.8,33196.2)"
font-family="MS Shell Dlg 2" font-size="10.3125" font-weight="400" font-style="normal" 
>
<path vector-effect="non-scaling-stroke" fill-rule="evenodd" d="M60936.7,33195.7 L60936.7,-66804.3 L-28558.3,-66804.3 L-28558.3,-46804.3 L-28558.7,-46796.7 L-28559.8,-46790.2 L-28561.4,-46785.8 L-28563.3,-46784.3 L-29058.3,-46784.3 L-29058.3,-26824.3 L-28563.3,-26824.3 L-28561.4,-26822.8 L-28559.8,-26818.5 L-28558.7,-26812 L-28558.3,-26804.3 L-28558.3,-6804.31 L-28558.7,-6796.66 L-28559.8,-6790.17 L-28561.4,-6785.83 L-28563.3,-6784.31 L-29058.3,-6784.31 L-29058.3,13175.7 L-28563.3,13175.7 L-28561.4,13177.2 L-28559.8,13181.5 L-28558.7,13188 L-28558.3,13195.7 L-28558.3,33195.7 L60936.7,33195.7"/>
</g>

<g fill="none" stroke="#000000" stroke-opacity="1" stroke-width="1" stroke-linecap="square" stroke-linejoin="bevel" transform="matrix(1,0,0,-1,39063.8,33196.2)"
font-family="MS Shell Dlg 2" font-size="10.3125" font-weight="400" font-style="normal" 
>
</g>

<g fill="none" stroke="#000000" stroke-opacity="1" stroke-width="1" stroke-linecap="square" stroke-linejoin="bevel" transform="matrix(1,0,0,-1,39063.8,33196.2)"
font-family="MS Shell Dlg 2" font-size="10.3125" font-weight="400" font-style="normal" 
>
</g>

<g fill="#333333" fill-opacity="0.500008" stroke="#333333" stroke-opacity="1" stroke-width="1" stroke-linecap="round" stroke-linejoin="round" transform="matrix(1,0,0,-1,39063.8,33196.2)"
font-family="MS Shell Dlg 2" font-size="10.3125" font-weight="400" font-style="normal" 
>
<path vector-effect="non-scaling-stroke" fill-rule="evenodd" d="M-29068.3,-66804.3 L-39063.3,-66804.3 L-39063.3,33195.7 L-29068.3,33195.7 L-29068.3,13215.7 L-29563.3,13215.7 L-29565.2,13214.2 L-29566.9,13209.8 L-29567.9,13203.3 L-29568.3,13195.7 L-29568.3,-46804.3 L-29567.9,-46812 L-29566.9,-46818.5 L-29565.2,-46822.8 L-29563.3,-46824.3 L-29068.3,-46824.3 L-29068.3,-66804.3"/>
</g>

<g fill="none" stroke="#000000" stroke-opacity="1" stroke-width="1" stroke-linecap="square" stroke-linejoin="bevel" transform="matrix(1,0,0,-1,39063.8,33196.2)"
font-family="MS Shell Dlg 2" font-size="10.3125" font-weight="400" font-style="normal" 
>
</g>

<g fill="none" stroke="#000000" stroke-opacity="1" stroke-width="1" stroke-linecap="square" stroke-linejoin="bevel" transform="matrix(1,0,0,-1,39063.8,33196.2)"
font-family="MS Shell Dlg 2" font-size="10.3125" font-weight="400" font-style="normal" 
>
</g>

<g fill="#ae5151" fill-opacity="0.500008" stroke="#333333" stroke-opacity="1" stroke-width="1" stroke-linecap="round" stroke-linejoin="round" transform="matrix(1,0,0,-1,39063.8,33196.2)"
font-family="MS Shell Dlg 2" font-size="10.3125" font-weight="400" font-style="normal" 
>
<path vector-effect="non-scaling-stroke" fill-rule="evenodd" d="M60936.7,33195.7 L60936.7,-66804.3 L-28558.3,-66804.3 L-28558.3,-46804.3 L-28558.7,-46796.7 L-28559.8,-46790.2 L-28561.4,-46785.8 L-28563.3,-46784.3 L-29058.3,-46784.3 L-29058.3,-26824.3 L-28563.3,-26824.3 L-28561.4,-26822.8 L-28559.8,-26818.5 L-28558.7,-26812 L-28558.3,-26804.3 L-28558.3,-6804.31 L-28558.7,-6796.66 L-28559.8,-6790.17 L-28561.4,-6785.83 L-28563.3,-6784.31 L-29058.3,-6784.31 L-29058.3,13175.7 L-28563.3,13175.7 L-28561.4,13177.2 L-28559.8,13181.5 L-28558.7,13188 L-28558.3,13195.7 L-28558.3,33195.7 L60936.7,33195.7"/>
</g>

<g fill="none" stroke="#000000" stroke-opacity="1" stroke-width="1" stroke-linecap="square" stroke-linejoin="bevel" transform="matrix(1,0,0,-1,39063.8,33196.2)"
font-family="MS Shell Dlg 2" font-size="10.3125" font-weight="400" font-style="normal" 
>
</g>

<g fill="none" stroke="#000000" stroke-opacity="1" stroke-width="1" stroke-linecap="square" stroke-linejoin="bevel" transform="matrix(1,0,0,-1,39063.8,33196.2)"
font-family="MS Shell Dlg 2" font-size="10.3125" font-weight="400" font-style="normal" 
>
</g>

<g fill="#ae5151" fill-opacity="0.500008" stroke="#333333" stroke-opacity="1" stroke-width="1" stroke-linecap="round" stroke-linejoin="round" transform="matrix(1,0,0,-1,39063.8,33196.2)"
font-family="MS Shell Dlg 2" font-size="10.3125" font-weight="400" font-style="normal" 
>
<path vector-effect="non-scaling-stroke" fill-rule="evenodd" d="M-29068.3,-66804.3 L-39063.3,-66804.3 L-39063.3,33195.7 L-29068.3,33195.7 L-29068.3,13215.7 L-29563.3,13215.7 L-29565.2,13214.2 L-29566.9,13209.8 L-29567.9,13203.3 L-29568.3,13195.7 L-29568.3,-46804.3 L-29567.9,-46812 L-29566.9,-46818.5 L-29565.2,-46822.8 L-29563.3,-46824.3 L-29068.3,-46824.3 L-29068.3,-66804.3"/>
</g>

<g fill="none" stroke="#000000" stroke-opacity="1" stroke-width="1" stroke-linecap="square" stroke-linejoin="bevel" transform="matrix(1,0,0,-1,39063.8,33196.2)"
font-family="MS Shell Dlg 2" font-size="10.3125" font-weight="400" font-style="normal" 
>
</g>

<g fill="none" stroke="#000000" stroke-opacity="1" stroke-width="1" stroke-linecap="square" stroke-linejoin="bevel" transform="matrix(1,0,0,-1,39063.8,33196.2)"
font-family="MS Shell Dlg 2" font-size="10.3125" font-weight="400" font-style="normal" 
>
</g>

<g fill="#ffff00" fill-opacity="0.500008" stroke="#333333" stroke-opacity="1" stroke-width="1" stroke-linecap="round" stroke-linejoin="round" transform="matrix(1,0,0,-1,39063.8,33196.2)"
font-family="MS Shell Dlg 2" font-size="10.3125" font-weight="400" font-style="normal" 
>
<path vector-effect="non-scaling-stroke" fill-rule="evenodd" d="M60936.7,33195.7 L60936.7,-66804.3 L-29063.3,-66804.3 L-39063.3,-66804.3 L-39063.3,33195.7 L-29063.3,33195.7 L60936.7,33195.7 M-29063.3,-6784.31 L-29563.3,-6784.31 L-29565.2,-6785.83 L-29566.9,-6790.17 L-29567.9,-6796.66 L-29568.3,-6804.31 L-29568.3,-26804.3 L-29567.9,-26812 L-29566.9,-26818.5 L-29565.2,-26822.8 L-29563.3,-26824.3 L-29063.3,-26824.3 L-28563.3,-26824.3 L-28561.4,-26822.8 L-28559.8,-26818.5 L-28558.7,-26812 L-28558.3,-26804.3 L-28558.3,-6804.31 L-28558.7,-6796.66 L-28559.8,-6790.17 L-28561.4,-6785.83 L-28563.3,-6784.31 L-29063.3,-6784.31"/>
</g>

<g fill="none" stroke="#000000" stroke-opacity="1" stroke-width="1" stroke-linecap="square" stroke-linejoin="bevel" transform="matrix(1,0,0,-1,39063.8,33196.2)"
font-family="MS Shell Dlg 2" font-size="10.3125" font-weight="400" font-style="normal" 
>
</g>

<g fill="none" stroke="#000000" stroke-opacity="1" stroke-width="1" stroke-linecap="square" stroke-linejoin="bevel" transform="matrix(1,0,0,-1,39063.8,33196.2)"
font-family="MS Shell Dlg 2" font-size="10.3125" font-weight="400" font-style="normal" 
>
</g>

<g fill="#ae5151" fill-opacity="0.500008" stroke="#333333" stroke-opacity="1" stroke-width="1" stroke-linecap="round" stroke-linejoin="round" transform="matrix(1,0,0,-1,39063.8,33196.2)"
font-family="MS Shell Dlg 2" font-size="10.3125" font-weight="400" font-style="normal" 
>
<path vector-effect="non-scaling-stroke" fill-rule="evenodd" d="M60936.7,33195.7 L60936.7,-66804.3 L-29058.3,-66804.3 L-29058.3,-46824.3 L-28563.3,-46824.3 L-28561.4,-46822.8 L-28559.8,-46818.5 L-28558.7,-46812 L-28558.3,-46804.3 L-28558.3,13195.7 L-28558.7,13203.3 L-28559.8,13209.8 L-28561.4,13214.2 L-28563.3,13215.7 L-29058.3,13215.7 L-29058.3,33195.7 L60936.7,33195.7"/>
</g>

<g fill="none" stroke="#000000" stroke-opacity="1" stroke-width="1" stroke-linecap="square" stroke-linejoin="bevel" transform="matrix(1,0,0,-1,39063.8,33196.2)"
font-family="MS Shell Dlg 2" font-size="10.3125" font-weight="400" font-style="normal" 
>
</g>

<g fill="none" stroke="#000000" stroke-opacity="1" stroke-width="1" stroke-linecap="square" stroke-linejoin="bevel" transform="matrix(1,0,0,-1,39063.8,33196.2)"
font-family="MS Shell Dlg 2" font-size="10.3125" font-weight="400" font-style="normal" 
>
</g>

<g fill="#ae5151" fill-opacity="0.500008" stroke="#333333" stroke-opacity="1" stroke-width="1" stroke-linecap="round" stroke-linejoin="round" transform="matrix(1,0,0,-1,39063.8,33196.2)"
font-family="MS Shell Dlg 2" font-size="10.3125" font-weight="400" font-style="normal" 
>
<path vector-effect="non-scaling-stroke" fill-rule="evenodd" d="M-29568.3,-66804.3 L-39063.3,-66804.3 L-39063.3,33195.7 L-29568.3,33195.7 L-29568.3,13195.7 L-29567.9,13188 L-29566.9,13181.5 L-29565.2,13177.2 L-29563.3,13175.7 L-29068.3,13175.7 L-29068.3,-6784.31 L-29563.3,-6784.31 L-29565.2,-6785.83 L-29566.9,-6790.17 L-29567.9,-6796.66 L-29568.3,-6804.31 L-29568.3,-26804.3 L-29567.9,-26812 L-29566.9,-26818.5 L-29565.2,-26822.8 L-29563.3,-26824.3 L-29068.3,-26824.3 L-29068.3,-46784.3 L-29563.3,-46784.3 L-29565.2,-46785.8 L-29566.9,-46790.2 L-29567.9,-46796.7 L-29568.3,-46804.3 L-29568.3,-66804.3"/>
</g>

<g fill="none" stroke="#000000" stroke-opacity="1" stroke-width="1" stroke-linecap="square" stroke-linejoin="bevel" transform="matrix(1,0,0,-1,39063.8,33196.2)"
font-family="MS Shell Dlg 2" font-size="10.3125" font-weight="400" font-style="normal" 
>
</g>

<g fill="none" stroke="#000000" stroke-opacity="1" stroke-width="1" stroke-linecap="square" stroke-linejoin="bevel" transform="matrix(1,0,0,-1,39063.8,33196.2)"
font-family="MS Shell Dlg 2" font-size="10.3125" font-weight="400" font-style="normal" 
>
</g>

<g fill="#333333" fill-opacity="0.500008" stroke="#333333" stroke-opacity="1" stroke-width="1" stroke-linecap="round" stroke-linejoin="round" transform="matrix(1,0,0,-1,39063.8,33196.2)"
font-family="MS Shell Dlg 2" font-size="10.3125" font-weight="400" font-style="normal" 
>
<path vector-effect="non-scaling-stroke" fill-rule="evenodd" d="M60936.7,33195.7 L60936.7,-66804.3 L-29058.3,-66804.3 L-29058.3,-46824.3 L-28563.3,-46824.3 L-28561.4,-46822.8 L-28559.8,-46818.5 L-28558.7,-46812 L-28558.3,-46804.3 L-28558.3,13195.7 L-28558.7,13203.3 L-28559.8,13209.8 L-28561.4,13214.2 L-28563.3,13215.7 L-29058.3,13215.7 L-29058.3,33195.7 L60936.7,33195.7"/>
</g>

<g fill="none" stroke="#000000" stroke-opacity="1" stroke-width="1" stroke-linecap="square" stroke-linejoin="bevel" transform="matrix(1,0,0,-1,39063.8,33196.2)"
font-family="MS Shell Dlg 2" font-size="10.3125" font-weight="400" font-style="normal" 
>
</g>

<g fill="none" stroke="#000000" stroke-opacity="1" stroke-width="1" stroke-linecap="square" stroke-linejoin="bevel" transform="matrix(1,0,0,-1,39063.8,33196.2)"
font-family="MS Shell Dlg 2" font-size="10.3125" font-weight="400" font-style="normal" 
>
</g>

<g fill="#333333" fill-opacity="0.500008" stroke="#333333" stroke-opacity="1" stroke-width="1" stroke-linecap="round" stroke-linejoin="round" transform="matrix(1,0,0,-1,39063.8,33196.2)"
font-family="MS Shell Dlg 2" font-size="10.3125" font-weight="400" font-style="normal" 
>
<path vector-effect="non-scaling-stroke" fill-rule="evenodd" d="M-29568.3,-66804.3 L-39063.3,-66804.3 L-39063.3,33195.7 L-29568.3,33195.7 L-29568.3,13195.7 L-29567.9,13188 L-29566.9,13181.5 L-29565.2,13177.2 L-29563.3,13175.7 L-29068.3,13175.7 L-29068.3,-6784.31 L-29563.3,-6784.31 L-29565.2,-6785.83 L-29566.9,-6790.17 L-29567.9,-6796.66 L-29568.3,-6804.31 L-29568.3,-26804.3 L-29567.9,-26812 L-29566.9,-26818.5 L-29565.2,-26822.8 L-29563.3,-26824.3 L-29068.3,-26824.3 L-29068.3,-46784.3 L-29563.3,-46784.3 L-29565.2,-46785.8 L-29566.9,-46790.2 L-29567.9,-46796.7 L-29568.3,-46804.3 L-29568.3,-66804.3"/>
</g>

<g fill="none" stroke="#000000" stroke-opacity="1" stroke-width="1" stroke-linecap="square" stroke-linejoin="bevel" transform="matrix(1,0,0,-1,39063.8,33196.2)"
font-family="MS Shell Dlg 2" font-size="10.3125" font-weight="400" font-style="normal" 
>
</g>

<g fill="none" stroke="#000000" stroke-opacity="1" stroke-width="1" stroke-linecap="square" stroke-linejoin="bevel" transform="matrix(1,0,0,-1,0,100001)"
font-family="MS Shell Dlg 2" font-size="10.3125" font-weight="400" font-style="normal" 
>
</g>
</g>
</svg>
