<?xml version="1.0" encoding="UTF-8" standalone="no"?>
<svg width="5641.9mm" height="2766.06mm"
 xmlns="http://www.w3.org/2000/svg" xmlns:xlink="http://www.w3.org/1999/xlink"  version="1.2" baseProfile="tiny">
<title>SVG Generator Example Drawing</title>
<desc>An SVG drawing created by the SVG Generator</desc>
<defs>
</defs>
<g fill="none" stroke="black" stroke-width="1" fill-rule="evenodd" stroke-linecap="square" stroke-linejoin="bevel" >

<g fill="none" stroke="#000000" stroke-opacity="1" stroke-width="1" stroke-linecap="square" stroke-linejoin="bevel" transform="matrix(1,0,0,-1,0,9801)"
font-family="MS Shell Dlg 2" font-size="10.3125" font-weight="400" font-style="normal" 
>
</g>

<g fill="none" stroke="#000000" stroke-opacity="1" stroke-width="1" stroke-linecap="square" stroke-linejoin="bevel" transform="matrix(1,0,0,-1,0,9801)"
font-family="MS Shell Dlg 2" font-size="10.3125" font-weight="400" font-style="normal" 
>
</g>

<g fill="none" stroke="#000000" stroke-opacity="1" stroke-width="1" stroke-linecap="square" stroke-linejoin="bevel" transform="matrix(1,0,0,-1,-941.178,-26903.8)"
font-family="MS Shell Dlg 2" font-size="10.3125" font-weight="400" font-style="normal" 
>
</g>

<g fill="#ae5151" fill-opacity="0.500008" stroke="#333333" stroke-opacity="1" stroke-width="1" stroke-linecap="round" stroke-linejoin="round" transform="matrix(1,0,0,-1,-941.178,-26903.8)"
font-family="MS Shell Dlg 2" font-size="10.3125" font-weight="400" font-style="normal" 
>
<path vector-effect="non-scaling-stroke" fill-rule="evenodd" d="M20931.7,-28802.3 L20436.7,-28802.3 L20434.8,-28802.5 L20433.1,-28802.9 L20432.1,-28803.5 L20431.7,-28804.3 L20431.7,-34804.3 L20432.1,-34805.1 L20433.1,-34805.7 L20434.8,-34806.2 L20436.7,-34806.3 L20931.7,-34806.3 L20931.7,-36704.3 L941.678,-36704.3 L941.678,-34806.3 L1436.68,-34806.3 L1438.59,-34806.2 L1440.21,-34805.7 L1441.3,-34805.1 L1441.68,-34804.3 L1441.68,-28804.3 L1441.3,-28803.5 L1440.21,-28802.9 L1438.59,-28802.5 L1436.68,-28802.3 L941.678,-28802.3 L941.678,-26904.3 L20931.7,-26904.3 L20931.7,-28802.3"/>
</g>

<g fill="none" stroke="#000000" stroke-opacity="1" stroke-width="1" stroke-linecap="square" stroke-linejoin="bevel" transform="matrix(1,0,0,-1,-941.178,-26903.8)"
font-family="MS Shell Dlg 2" font-size="10.3125" font-weight="400" font-style="normal" 
>
</g>

<g fill="none" stroke="#000000" stroke-opacity="1" stroke-width="1" stroke-linecap="square" stroke-linejoin="bevel" transform="matrix(1,0,0,-1,0,9801)"
font-family="MS Shell Dlg 2" font-size="10.3125" font-weight="400" font-style="normal" 
>
</g>
</g>
</svg>
