<?xml version="1.0" encoding="UTF-8" standalone="no"?>
<svg width="14081.8mm" height="11232.4mm"
 xmlns="http://www.w3.org/2000/svg" xmlns:xlink="http://www.w3.org/1999/xlink"  version="1.2" baseProfile="tiny">
<title>SVG Generator Example Drawing</title>
<desc>An SVG drawing created by the SVG Generator</desc>
<defs>
</defs>
<g fill="none" stroke="black" stroke-width="1" fill-rule="evenodd" stroke-linecap="square" stroke-linejoin="bevel" >

<g fill="none" stroke="#000000" stroke-opacity="1" stroke-width="1" stroke-linecap="square" stroke-linejoin="bevel" transform="matrix(1,0,0,-1,0,39801)"
font-family="MS Shell Dlg 2" font-size="10.3125" font-weight="400" font-style="normal" 
>
</g>

<g fill="none" stroke="#000000" stroke-opacity="1" stroke-width="1" stroke-linecap="square" stroke-linejoin="bevel" transform="matrix(1,0,0,-1,0,39801)"
font-family="MS Shell Dlg 2" font-size="10.3125" font-weight="400" font-style="normal" 
>
</g>

<g fill="none" stroke="#000000" stroke-opacity="1" stroke-width="1" stroke-linecap="square" stroke-linejoin="bevel" transform="matrix(0.999975,0,0,-0.999975,9058.59,3097.11)"
font-family="MS Shell Dlg 2" font-size="10.3125" font-weight="400" font-style="normal" 
>
</g>

<g fill="#333333" fill-opacity="0.500008" stroke="#333333" stroke-opacity="1" stroke-width="1" stroke-linecap="round" stroke-linejoin="round" transform="matrix(0.999975,0,0,-0.999975,9058.59,3097.11)"
font-family="MS Shell Dlg 2" font-size="10.3125" font-weight="400" font-style="normal" 
>
<path vector-effect="non-scaling-stroke" fill-rule="evenodd" d="M21036.3,-26802.3 L21029.1,-26766 L21007.4,-26733.6 L20974.9,-26711.9 L20936.7,-26704.3 L936.678,-26704.3 L-8558.32,-26704.3 L-8558.32,-22804.3 L-8558.7,-22802.8 L-8559.79,-22801.5 L-8561.41,-22800.6 L-8563.32,-22800.3 L-9058.32,-22800.3 L-9058.32,-18808.3 L-8563.32,-18808.3 L-8561.41,-18808 L-8559.79,-18807.1 L-8558.7,-18805.8 L-8558.32,-18804.3 L-8558.32,-14804.3 L-8558.7,-14802.8 L-8559.79,-14801.5 L-8561.41,-14800.6 L-8563.32,-14800.3 L-9058.32,-14800.3 L-9058.32,-10808.3 L-8563.32,-10808.3 L-8561.41,-10808 L-8559.79,-10807.1 L-8558.7,-10805.8 L-8558.32,-10804.3 L-8558.32,-6904.31 L936.678,-6904.31 L20936.7,-6904.31 L20974.9,-6896.7 L21007.4,-6875.02 L21029.1,-6842.58 L21036.3,-6806.31 L21436.7,-6806.31 L21438.6,-6806.16 L21440.2,-6805.72 L21441.3,-6805.07 L21441.7,-6804.31 L21441.7,-4804.31 L21441.3,-4803.54 L21440.2,-4802.89 L21438.6,-4802.46 L21436.7,-4802.31 L20941.7,-4802.31 L20941.7,-2806.31 L21436.7,-2806.31 L21438.6,-2806.16 L21440.2,-2805.72 L21441.3,-2805.07 L21441.7,-2804.31 L21441.7,-804.309 L21441.3,-803.544 L21440.2,-802.895 L21438.6,-802.461 L21436.7,-802.309 L20941.7,-802.309 L20941.7,1193.69 L21436.7,1193.69 L21438.6,1193.84 L21440.2,1194.28 L21441.3,1194.93 L21441.7,1195.69 L21441.7,3095.69 L40836.7,3095.69 L40836.7,-36704.3 L21441.7,-36704.3 L21441.7,-34804.3 L21441.3,-34803.5 L21440.2,-34802.9 L21438.6,-34802.5 L21436.7,-34802.3 L20941.7,-34802.3 L20941.7,-32806.3 L21436.7,-32806.3 L21438.6,-32806.2 L21440.2,-32805.7 L21441.3,-32805.1 L21441.7,-32804.3 L21441.7,-30804.3 L21441.3,-30803.5 L21440.2,-30802.9 L21438.6,-30802.5 L21436.7,-30802.3 L20941.7,-30802.3 L20941.7,-28806.3 L21436.7,-28806.3 L21438.6,-28806.2 L21440.2,-28805.7 L21441.3,-28805.1 L21441.7,-28804.3 L21441.7,-26804.3 L21441.3,-26803.5 L21440.2,-26802.9 L21438.6,-26802.5 L21436.7,-26802.3 L21036.3,-26802.3"/>
</g>

<g fill="none" stroke="#000000" stroke-opacity="1" stroke-width="1" stroke-linecap="square" stroke-linejoin="bevel" transform="matrix(0.999975,0,0,-0.999975,9058.59,3097.11)"
font-family="MS Shell Dlg 2" font-size="10.3125" font-weight="400" font-style="normal" 
>
</g>

<g fill="none" stroke="#000000" stroke-opacity="1" stroke-width="1" stroke-linecap="square" stroke-linejoin="bevel" transform="matrix(0.999975,0,0,-0.999975,9058.59,3097.11)"
font-family="MS Shell Dlg 2" font-size="10.3125" font-weight="400" font-style="normal" 
>
</g>

<g fill="#ae5151" fill-opacity="0.500008" stroke="#333333" stroke-opacity="1" stroke-width="1" stroke-linecap="round" stroke-linejoin="round" transform="matrix(0.999975,0,0,-0.999975,9058.59,3097.11)"
font-family="MS Shell Dlg 2" font-size="10.3125" font-weight="400" font-style="normal" 
>
<path vector-effect="non-scaling-stroke" fill-rule="evenodd" d="M21036.3,-26802.3 L21029.1,-26766 L21007.4,-26733.6 L20974.9,-26711.9 L20936.7,-26704.3 L936.678,-26704.3 L-8558.32,-26704.3 L-8558.32,-22804.3 L-8558.7,-22802.8 L-8559.79,-22801.5 L-8561.41,-22800.6 L-8563.32,-22800.3 L-9058.32,-22800.3 L-9058.32,-18808.3 L-8563.32,-18808.3 L-8561.41,-18808 L-8559.79,-18807.1 L-8558.7,-18805.8 L-8558.32,-18804.3 L-8558.32,-14804.3 L-8558.7,-14802.8 L-8559.79,-14801.5 L-8561.41,-14800.6 L-8563.32,-14800.3 L-9058.32,-14800.3 L-9058.32,-10808.3 L-8563.32,-10808.3 L-8561.41,-10808 L-8559.79,-10807.1 L-8558.7,-10805.8 L-8558.32,-10804.3 L-8558.32,-6904.31 L936.678,-6904.31 L20936.7,-6904.31 L20974.9,-6896.7 L21007.4,-6875.02 L21029.1,-6842.58 L21036.3,-6806.31 L21436.7,-6806.31 L21438.6,-6806.16 L21440.2,-6805.72 L21441.3,-6805.07 L21441.7,-6804.31 L21441.7,-4804.31 L21441.3,-4803.54 L21440.2,-4802.89 L21438.6,-4802.46 L21436.7,-4802.31 L20941.7,-4802.31 L20941.7,-2806.31 L21436.7,-2806.31 L21438.6,-2806.16 L21440.2,-2805.72 L21441.3,-2805.07 L21441.7,-2804.31 L21441.7,-804.309 L21441.3,-803.544 L21440.2,-802.895 L21438.6,-802.461 L21436.7,-802.309 L20941.7,-802.309 L20941.7,1193.69 L21436.7,1193.69 L21438.6,1193.84 L21440.2,1194.28 L21441.3,1194.93 L21441.7,1195.69 L21441.7,3095.69 L40836.7,3095.69 L40836.7,-36704.3 L21441.7,-36704.3 L21441.7,-34804.3 L21441.3,-34803.5 L21440.2,-34802.9 L21438.6,-34802.5 L21436.7,-34802.3 L20941.7,-34802.3 L20941.7,-32806.3 L21436.7,-32806.3 L21438.6,-32806.2 L21440.2,-32805.7 L21441.3,-32805.1 L21441.7,-32804.3 L21441.7,-30804.3 L21441.3,-30803.5 L21440.2,-30802.9 L21438.6,-30802.5 L21436.7,-30802.3 L20941.7,-30802.3 L20941.7,-28806.3 L21436.7,-28806.3 L21438.6,-28806.2 L21440.2,-28805.7 L21441.3,-28805.1 L21441.7,-28804.3 L21441.7,-26804.3 L21441.3,-26803.5 L21440.2,-26802.9 L21438.6,-26802.5 L21436.7,-26802.3 L21036.3,-26802.3"/>
</g>

<g fill="none" stroke="#000000" stroke-opacity="1" stroke-width="1" stroke-linecap="square" stroke-linejoin="bevel" transform="matrix(0.999975,0,0,-0.999975,9058.59,3097.11)"
font-family="MS Shell Dlg 2" font-size="10.3125" font-weight="400" font-style="normal" 
>
</g>

<g fill="none" stroke="#000000" stroke-opacity="1" stroke-width="1" stroke-linecap="square" stroke-linejoin="bevel" transform="matrix(0.999975,0,0,-0.999975,9058.59,3097.11)"
font-family="MS Shell Dlg 2" font-size="10.3125" font-weight="400" font-style="normal" 
>
</g>

<g fill="#ffff00" fill-opacity="0.500008" stroke="#333333" stroke-opacity="1" stroke-width="1" stroke-linecap="round" stroke-linejoin="round" transform="matrix(0.999975,0,0,-0.999975,9058.59,3097.11)"
font-family="MS Shell Dlg 2" font-size="10.3125" font-weight="400" font-style="normal" 
>
<path vector-effect="non-scaling-stroke" fill-rule="evenodd" d="M21036.3,-26802.3 L21029.1,-26766 L21007.4,-26733.6 L20974.9,-26711.9 L20936.7,-26704.3 L936.678,-26704.3 L-8558.32,-26704.3 L-8558.32,-22804.3 L-8558.7,-22802.8 L-8559.79,-22801.5 L-8561.41,-22800.6 L-8563.32,-22800.3 L-9058.32,-22800.3 L-9058.32,-18808.3 L-8563.32,-18808.3 L-8561.41,-18808 L-8559.79,-18807.1 L-8558.7,-18805.8 L-8558.32,-18804.3 L-8558.32,-14804.3 L-8558.7,-14802.8 L-8559.79,-14801.5 L-8561.41,-14800.6 L-8563.32,-14800.3 L-9058.32,-14800.3 L-9058.32,-10808.3 L-8563.32,-10808.3 L-8561.41,-10808 L-8559.79,-10807.1 L-8558.7,-10805.8 L-8558.32,-10804.3 L-8558.32,-6904.31 L936.678,-6904.31 L20936.7,-6904.31 L20974.9,-6896.7 L21007.4,-6875.02 L21029.1,-6842.58 L21036.3,-6806.31 L21436.7,-6806.31 L21438.6,-6806.16 L21440.2,-6805.72 L21441.3,-6805.07 L21441.7,-6804.31 L21441.7,-4804.31 L21441.3,-4803.54 L21440.2,-4802.89 L21438.6,-4802.46 L21436.7,-4802.31 L20941.7,-4802.31 L20941.7,-2806.31 L21436.7,-2806.31 L21438.6,-2806.16 L21440.2,-2805.72 L21441.3,-2805.07 L21441.7,-2804.31 L21441.7,-804.309 L21441.3,-803.544 L21440.2,-802.895 L21438.6,-802.461 L21436.7,-802.309 L20941.7,-802.309 L20941.7,1193.69 L21436.7,1193.69 L21438.6,1193.84 L21440.2,1194.28 L21441.3,1194.93 L21441.7,1195.69 L21441.7,3095.69 L40836.7,3095.69 L40836.7,-36704.3 L21441.7,-36704.3 L21441.7,-34804.3 L21441.3,-34803.5 L21440.2,-34802.9 L21438.6,-34802.5 L21436.7,-34802.3 L20941.7,-34802.3 L20941.7,-32806.3 L21436.7,-32806.3 L21438.6,-32806.2 L21440.2,-32805.7 L21441.3,-32805.1 L21441.7,-32804.3 L21441.7,-30804.3 L21441.3,-30803.5 L21440.2,-30802.9 L21438.6,-30802.5 L21436.7,-30802.3 L20941.7,-30802.3 L20941.7,-28806.3 L21436.7,-28806.3 L21438.6,-28806.2 L21440.2,-28805.7 L21441.3,-28805.1 L21441.7,-28804.3 L21441.7,-26804.3 L21441.3,-26803.5 L21440.2,-26802.9 L21438.6,-26802.5 L21436.7,-26802.3 L21036.3,-26802.3"/>
</g>

<g fill="none" stroke="#000000" stroke-opacity="1" stroke-width="1" stroke-linecap="square" stroke-linejoin="bevel" transform="matrix(0.999975,0,0,-0.999975,9058.59,3097.11)"
font-family="MS Shell Dlg 2" font-size="10.3125" font-weight="400" font-style="normal" 
>
</g>

<g fill="none" stroke="#000000" stroke-opacity="1" stroke-width="1" stroke-linecap="square" stroke-linejoin="bevel" transform="matrix(0.999975,0,0,-0.999975,9058.59,3097.11)"
font-family="MS Shell Dlg 2" font-size="10.3125" font-weight="400" font-style="normal" 
>
</g>

<g fill="#ae5151" fill-opacity="0.500008" stroke="#333333" stroke-opacity="1" stroke-width="1" stroke-linecap="round" stroke-linejoin="round" transform="matrix(0.999975,0,0,-0.999975,9058.59,3097.11)"
font-family="MS Shell Dlg 2" font-size="10.3125" font-weight="400" font-style="normal" 
>
<path vector-effect="non-scaling-stroke" fill-rule="evenodd" d="M21036.3,-26802.3 L21029.1,-26766 L21007.4,-26733.6 L20974.9,-26711.9 L20936.7,-26704.3 L936.678,-26704.3 L-8558.32,-26704.3 L-8558.32,-22804.3 L-8558.7,-22802.8 L-8559.79,-22801.5 L-8561.41,-22800.6 L-8563.32,-22800.3 L-9058.32,-22800.3 L-9058.32,-18808.3 L-8563.32,-18808.3 L-8561.41,-18808 L-8559.79,-18807.1 L-8558.7,-18805.8 L-8558.32,-18804.3 L-8558.32,-14804.3 L-8558.7,-14802.8 L-8559.79,-14801.5 L-8561.41,-14800.6 L-8563.32,-14800.3 L-9058.32,-14800.3 L-9058.32,-10808.3 L-8563.32,-10808.3 L-8561.41,-10808 L-8559.79,-10807.1 L-8558.7,-10805.8 L-8558.32,-10804.3 L-8558.32,-6904.31 L936.678,-6904.31 L20936.7,-6904.31 L20974.9,-6896.7 L21007.4,-6875.02 L21029.1,-6842.58 L21036.3,-6806.31 L21436.7,-6806.31 L21438.6,-6806.16 L21440.2,-6805.72 L21441.3,-6805.07 L21441.7,-6804.31 L21441.7,-4804.31 L21441.3,-4803.54 L21440.2,-4802.89 L21438.6,-4802.46 L21436.7,-4802.31 L20941.7,-4802.31 L20941.7,-2806.31 L21436.7,-2806.31 L21438.6,-2806.16 L21440.2,-2805.72 L21441.3,-2805.07 L21441.7,-2804.31 L21441.7,-804.309 L21441.3,-803.544 L21440.2,-802.895 L21438.6,-802.461 L21436.7,-802.309 L20941.7,-802.309 L20941.7,1193.69 L21436.7,1193.69 L21438.6,1193.84 L21440.2,1194.28 L21441.3,1194.93 L21441.7,1195.69 L21441.7,3095.69 L40836.7,3095.69 L40836.7,-36704.3 L21441.7,-36704.3 L21441.7,-34804.3 L21441.3,-34803.5 L21440.2,-34802.9 L21438.6,-34802.5 L21436.7,-34802.3 L20941.7,-34802.3 L20941.7,-32806.3 L21436.7,-32806.3 L21438.6,-32806.2 L21440.2,-32805.7 L21441.3,-32805.1 L21441.7,-32804.3 L21441.7,-30804.3 L21441.3,-30803.5 L21440.2,-30802.9 L21438.6,-30802.5 L21436.7,-30802.3 L20941.7,-30802.3 L20941.7,-28806.3 L21436.7,-28806.3 L21438.6,-28806.2 L21440.2,-28805.7 L21441.3,-28805.1 L21441.7,-28804.3 L21441.7,-26804.3 L21441.3,-26803.5 L21440.2,-26802.9 L21438.6,-26802.5 L21436.7,-26802.3 L21036.3,-26802.3"/>
</g>

<g fill="none" stroke="#000000" stroke-opacity="1" stroke-width="1" stroke-linecap="square" stroke-linejoin="bevel" transform="matrix(0.999975,0,0,-0.999975,9058.59,3097.11)"
font-family="MS Shell Dlg 2" font-size="10.3125" font-weight="400" font-style="normal" 
>
</g>

<g fill="none" stroke="#000000" stroke-opacity="1" stroke-width="1" stroke-linecap="square" stroke-linejoin="bevel" transform="matrix(0.999975,0,0,-0.999975,9058.59,3097.11)"
font-family="MS Shell Dlg 2" font-size="10.3125" font-weight="400" font-style="normal" 
>
</g>

<g fill="#333333" fill-opacity="0.500008" stroke="#333333" stroke-opacity="1" stroke-width="1" stroke-linecap="round" stroke-linejoin="round" transform="matrix(0.999975,0,0,-0.999975,9058.59,3097.11)"
font-family="MS Shell Dlg 2" font-size="10.3125" font-weight="400" font-style="normal" 
>
<path vector-effect="non-scaling-stroke" fill-rule="evenodd" d="M21036.3,-26802.3 L21029.1,-26766 L21007.4,-26733.6 L20974.9,-26711.9 L20936.7,-26704.3 L936.678,-26704.3 L-8558.32,-26704.3 L-8558.32,-22804.3 L-8558.7,-22802.8 L-8559.79,-22801.5 L-8561.41,-22800.6 L-8563.32,-22800.3 L-9058.32,-22800.3 L-9058.32,-18808.3 L-8563.32,-18808.3 L-8561.41,-18808 L-8559.79,-18807.1 L-8558.7,-18805.8 L-8558.32,-18804.3 L-8558.32,-14804.3 L-8558.7,-14802.8 L-8559.79,-14801.5 L-8561.41,-14800.6 L-8563.32,-14800.3 L-9058.32,-14800.3 L-9058.32,-10808.3 L-8563.32,-10808.3 L-8561.41,-10808 L-8559.79,-10807.1 L-8558.7,-10805.8 L-8558.32,-10804.3 L-8558.32,-6904.31 L936.678,-6904.31 L20936.7,-6904.31 L20974.9,-6896.7 L21007.4,-6875.02 L21029.1,-6842.58 L21036.3,-6806.31 L21436.7,-6806.31 L21438.6,-6806.16 L21440.2,-6805.72 L21441.3,-6805.07 L21441.7,-6804.31 L21441.7,-4804.31 L21441.3,-4803.54 L21440.2,-4802.89 L21438.6,-4802.46 L21436.7,-4802.31 L20941.7,-4802.31 L20941.7,-2806.31 L21436.7,-2806.31 L21438.6,-2806.16 L21440.2,-2805.72 L21441.3,-2805.07 L21441.7,-2804.31 L21441.7,-804.309 L21441.3,-803.544 L21440.2,-802.895 L21438.6,-802.461 L21436.7,-802.309 L20941.7,-802.309 L20941.7,1193.69 L21436.7,1193.69 L21438.6,1193.84 L21440.2,1194.28 L21441.3,1194.93 L21441.7,1195.69 L21441.7,3095.69 L40836.7,3095.69 L40836.7,-36704.3 L21441.7,-36704.3 L21441.7,-34804.3 L21441.3,-34803.5 L21440.2,-34802.9 L21438.6,-34802.5 L21436.7,-34802.3 L20941.7,-34802.3 L20941.7,-32806.3 L21436.7,-32806.3 L21438.6,-32806.2 L21440.2,-32805.7 L21441.3,-32805.1 L21441.7,-32804.3 L21441.7,-30804.3 L21441.3,-30803.5 L21440.2,-30802.9 L21438.6,-30802.5 L21436.7,-30802.3 L20941.7,-30802.3 L20941.7,-28806.3 L21436.7,-28806.3 L21438.6,-28806.2 L21440.2,-28805.7 L21441.3,-28805.1 L21441.7,-28804.3 L21441.7,-26804.3 L21441.3,-26803.5 L21440.2,-26802.9 L21438.6,-26802.5 L21436.7,-26802.3 L21036.3,-26802.3"/>
</g>

<g fill="none" stroke="#000000" stroke-opacity="1" stroke-width="1" stroke-linecap="square" stroke-linejoin="bevel" transform="matrix(0.999975,0,0,-0.999975,9058.59,3097.11)"
font-family="MS Shell Dlg 2" font-size="10.3125" font-weight="400" font-style="normal" 
>
</g>

<g fill="none" stroke="#000000" stroke-opacity="1" stroke-width="1" stroke-linecap="square" stroke-linejoin="bevel" transform="matrix(1,0,0,-1,0,39801)"
font-family="MS Shell Dlg 2" font-size="10.3125" font-weight="400" font-style="normal" 
>
</g>
</g>
</svg>
