<?xml version="1.0" encoding="UTF-8" standalone="no"?>
<svg width="17203.7mm" height="12280.6mm"
 xmlns="http://www.w3.org/2000/svg" xmlns:xlink="http://www.w3.org/1999/xlink"  version="1.2" baseProfile="tiny">
<title>SVG Generator Example Drawing</title>
<desc>An SVG drawing created by the SVG Generator</desc>
<defs>
</defs>
<g fill="none" stroke="black" stroke-width="1" fill-rule="evenodd" stroke-linecap="square" stroke-linejoin="bevel" >

<g fill="none" stroke="#000000" stroke-opacity="1" stroke-width="1" stroke-linecap="square" stroke-linejoin="bevel" transform="matrix(1,0,0,-1,0,43514.7)"
font-family="MS Shell Dlg 2" font-size="10.3125" font-weight="400" font-style="normal" 
>
</g>

<g fill="none" stroke="#000000" stroke-opacity="1" stroke-width="1" stroke-linecap="square" stroke-linejoin="bevel" transform="matrix(1,0,0,-1,0,43514.7)"
font-family="MS Shell Dlg 2" font-size="10.3125" font-weight="400" font-style="normal" 
>
</g>

<g fill="none" stroke="#000000" stroke-opacity="1" stroke-width="1" stroke-linecap="square" stroke-linejoin="bevel" transform="matrix(0.999984,0,0,-0.999984,15756.1,8975.79)"
font-family="MS Shell Dlg 2" font-size="10.3125" font-weight="400" font-style="normal" 
>
</g>

<g fill="#333333" fill-opacity="0.500008" stroke="#333333" stroke-opacity="1" stroke-width="1" stroke-linecap="round" stroke-linejoin="round" transform="matrix(0.999984,0,0,-0.999984,15756.1,8975.79)"
font-family="MS Shell Dlg 2" font-size="10.3125" font-weight="400" font-style="normal" 
>
<path vector-effect="non-scaling-stroke" fill-rule="evenodd" d="M-12582.6,-17592.7 L-14033.1,-17525.4 L-14468.1,-17403 L-14804.7,-17101.7 L-15148,-16613.7 L-15285.1,-16334.8 L-15329.9,-16027.3 L-15325.5,-15627.2 L-15235.6,-15224 L-14990.4,-14891.4 L-14639.5,-14579 L-14276.9,-14372.8 L-13569.8,-14148.5 L-13361.6,-14106.1 L-11728.9,-13951.8 L-11603.4,-13947.8 L-8734.66,-14037.9 L-5329.91,-13893.9 L-5208.29,-13896.1 L-3755.8,-14011.8 L-3566.91,-14045.3 L-2576.99,-14321 L-1561.14,-14106.5 L-1274.22,-14088.2 L188.41,-14206.1 L401.771,-14247 L2144.94,-14782.7 L2300.54,-14845.2 L4163.71,-15782.3 L4434.43,-15981.7 L4961.69,-16528.9 L5108.11,-16723.5 L5525.91,-17448.7 L6469.48,-16759.7 L6707.12,-16631.3 L8276.87,-16040.8 L8443.46,-15994.2 L11109.5,-15490.9 L11420,-15481.4 L11718.5,-15567.6 L12423.8,-15897.3 L13087.5,-15789.8 L13631,-15471.8 L14626.6,-14498.5 L14756.8,-14391.1 L16898.5,-12909.5 L19375.4,-10555 L23342.8,-6203.37 L23570.6,-6017.61 L23842.6,-5906.11 L24322.4,-5787.92 L24350.9,-5767.34 L24410.4,-5612.91 L24492.2,-3757.78 L24612.4,-3324.77 L24914,-2769.13 L25010.4,-2650.9 L24768.1,-2281.97 L24643.9,-2013.02 L23921.9,462.283 L23668.1,756.679 L23345.4,924.565 L23196.5,734.801 L22887.4,548.43 L22532.3,483.914 L21695.8,485.358 L21616.4,427.043 L21549.6,167.501 L21506.1,-1886.91 L21431,-2246.35 L21092.1,-3069.81 L20904.8,-3364.66 L20349.9,-3970.43 L20155.3,-4134.84 L19463.9,-4581.67 L19137.2,-4718.16 L17428,-5096.52 L16995.4,-5096.45 L15298.5,-4720.26 L14893.7,-4527.56 L13544.8,-3458.09 L13337,-3233.64 L12731.9,-2336.39 L12599.5,-2052.37 L12274.3,-915.81 L12236.3,-675.105 L12188,726.867 L12197.5,903.187 L12429.6,2522.44 L12471.2,2697.92 L13642.5,6197.54 L13860.5,6563.26 L14998.6,7780.11 L15157.8,7917.9 L15789.6,8357.41 L16105.6,8503.44 L17770.2,8942.6 L18069,8974.73 L20916.5,8850.26 L21036.8,8837.68 L22915.8,8525.38 L23083,8482.48 L25300.5,7704.16 L25479.3,7620.75 L26366.3,7094.83 L26551.5,6953.45 L27416.1,6117.12 L27552.5,5953.77 L29549.4,2963.98 L29555.1,2955.29 L30337.3,1757.4 L30454.1,1510.16 L30930.7,-8.09957 L30973.3,-227.066 L31120.6,-2050.54 L31114,-2271.11 L30926.6,-3596.2 L31150.5,-5078.94 L31126.5,-5491.36 L30250.6,-8703.83 L29668.7,-12751.4 L29809.8,-12802.7 L33589.3,-13436.3 L33842.5,-13514.3 L34261.8,-13707.5 L34522.8,-13882.1 L34716.8,-14128.9 L34941.9,-14532.8 L35146.2,-14691.1 L37035.3,-15190.5 L37211.8,-15255.4 L37878.2,-15574.7 L38193.3,-15811.9 L39102.1,-16833.4 L39186.2,-16942.2 L40331.7,-18655.1 L40380.5,-18736.3 L41146.6,-20156.5 L41202.2,-20278.5 L41603.2,-21341.9 L41691.6,-21391.3 L43102.9,-21481.2 L43540.9,-21614.1 L44413.9,-22120.2 L44665.4,-22327.4 L44837,-22604.5 L45126.9,-23308.6 L45202,-23709.9 L45110.5,-24107.8 L44804.7,-24771.5 L44599.2,-25064.4 L44303.7,-25266.2 L43956.1,-25351.2 L43598.7,-25372.5 L43231.8,-25325.9 L43083.1,-25245 L42957.1,-25289.9 L42558.8,-25346 L42170.6,-25240.5 L42110.2,-25210 L41790.5,-25345.9 L41475.8,-25422.7 L41153,-25394.7 L40395.4,-25202.1 L40033,-25026.2 L39769.4,-24721.6 L38547.9,-22540.6 L36603.7,-20055.4 L36450.8,-19779 L36439.1,-19746.7 L35951.2,-19904.8 L35376.6,-19917.4 L32453.3,-19109.7 L31645.3,-19081.9 L31205.5,-19323.2 L30802.9,-19941.8 L30610.1,-20160.1 L29734.7,-20899.7 L30852.1,-21577.9 L31161.2,-21872 L31677.2,-22633.8 L31825.9,-22979.9 L32059.2,-24041.2 L32082.5,-24261.2 L32069.5,-26662.9 L32151.2,-27162.2 L32526,-27259.7 L33045.4,-27570.5 L33388,-27911.9 L33957.4,-28855.4 L34083.6,-29185.5 L34087.2,-29538.9 L34012,-29983.4 L33855,-30376 L33549.7,-30668.6 L33150.8,-30808.8 L33065,-30819.6 L32884.5,-31016.1 L32555.7,-31178.6 L32190.4,-31211.5 L31480.5,-31144.3 L31078,-31016.6 L30153.1,-30487.2 L29784,-30480.6 L29386.1,-30390.3 L29057.3,-30148.5 L28852.6,-29795.5 L28510.3,-28763.3 L28461.8,-28515.7 L28310.6,-26268.1 L28179.2,-25684.6 L26417.3,-24136.6 L26071.1,-23950 L25992.2,-23938.4 L25702.2,-24255.6 L25414.9,-24473.6 L24803.9,-24782.1 L24487.6,-24880.4 L22008.3,-25216.8 L22141.4,-25628 L22189.6,-25967.5 L22120.2,-26303.2 L21826.7,-27046.9 L21525.8,-27456.9 L19451.7,-29136.3 L19155.4,-29302 L18150.9,-29656.8 L18124.3,-30118.2 L18048.8,-30445.8 L17869,-30729.8 L17417.5,-31231.1 L17089.3,-31471.8 L16692.3,-31561.8 L16417.8,-31566.7 L15930,-31449.6 L15130.6,-31024 L14823.6,-30770.9 L14639.6,-30418.2 L14296.7,-29228.5 L14258.4,-28911.8 L14321.8,-28599.1 L14544.1,-28008.9 L14732.4,-27697.1 L15260.3,-27102.9 L15658.1,-26830.3 L17025.6,-26319.9 L17298.7,-26049.9 L17187.3,-25825.8 L17031.4,-25792.6 L15275.7,-26051.7 L13094.9,-26883.2 L12592.6,-27464.9 L11210.4,-30045 L11010.5,-30304.6 L9588.67,-31628.6 L9162.68,-31863.6 L8294.49,-32093 L8071.09,-32125.7 L5857.35,-32196.8 L5538.94,-32353.4 L5112.63,-32832.8 L4736.46,-33096.8 L2901.61,-33830 L2811.11,-33861.2 L995.803,-34391.8 L789.303,-34429.2 L-688.144,-34539 L-1010.81,-34510.3 L-2300.14,-34179.4 L-2666.81,-33999.1 L-2930.76,-33687.2 L-3047.92,-33295.7 L-2998.72,-32890.1 L-2826.86,-32382.5 L-2624.55,-32036 L-2266.31,-31636 L-1955.06,-31402.1 L-1030.45,-30957.2 L-850.886,-30891.1 L1512.8,-30270.1 L-1514.87,-29705.1 L-1825.92,-29591.3 L-2082.72,-29382.1 L-2551.5,-28848.4 L-2724.01,-28571.3 L-2798.09,-28253.4 L-2765.84,-27928.6 L-2655.44,-27518.3 L-2508.03,-27203.3 L-2261.64,-26957.8 L-1946.08,-26811.6 L-517.639,-26432.9 L-264.396,-26399.5 L3018.41,-26389.5 L4964.9,-25793.7 L4810.2,-25671.1 L4450.65,-25189.8 L4302.96,-24907.2 L4251.74,-24592.5 L4251.34,-24250 L2935.38,-23631.8 L2668.51,-23448.6 L2474.17,-23189.6 L2005.19,-22291.6 L1939.87,-22245.2 L1327.6,-22299.6 L-1634.02,-23542.5 L-2149.4,-23612.2 L-4303.27,-23333.3 L-4794.02,-23126.9 L-5055.21,-22921 L-5347.15,-22547.9 L-5434.65,-22082.4 L-5407.42,-21572.3 L-5328.59,-21233.1 L-5138.2,-20941.5 L-4776.98,-20556.4 L-4546.96,-20374.1 L-4273.94,-20266.5 L-1628.72,-19651.9 L-2727.11,-19608.3 L-8697.62,-20115.9 L-13357.6,-21470.7 L-13685.9,-21509.3 L-14346.5,-21476.8 L-14659.2,-21410.2 L-14935,-21248.4 L-15312.2,-20936.1 L-15548.1,-20652.5 L-15665.2,-20302.7 L-15755.8,-19646.8 L-15717.9,-19205.9 L-15493.4,-18824.5 L-15126.2,-18577.4 L-12582.6,-17592.7"/>
</g>

<g fill="none" stroke="#000000" stroke-opacity="1" stroke-width="1" stroke-linecap="square" stroke-linejoin="bevel" transform="matrix(0.999984,0,0,-0.999984,15756.1,8975.79)"
font-family="MS Shell Dlg 2" font-size="10.3125" font-weight="400" font-style="normal" 
>
</g>

<g fill="none" stroke="#000000" stroke-opacity="1" stroke-width="1" stroke-linecap="square" stroke-linejoin="bevel" transform="matrix(0.999984,0,0,-0.999984,15756.1,8975.79)"
font-family="MS Shell Dlg 2" font-size="10.3125" font-weight="400" font-style="normal" 
>
</g>

<g fill="#ae5151" fill-opacity="0.500008" stroke="#333333" stroke-opacity="1" stroke-width="1" stroke-linecap="round" stroke-linejoin="round" transform="matrix(0.999984,0,0,-0.999984,15756.1,8975.79)"
font-family="MS Shell Dlg 2" font-size="10.3125" font-weight="400" font-style="normal" 
>
<path vector-effect="non-scaling-stroke" fill-rule="evenodd" d="M-12582.6,-17592.7 L-14033.1,-17525.4 L-14468.1,-17403 L-14804.7,-17101.7 L-15148,-16613.7 L-15285.1,-16334.8 L-15329.9,-16027.3 L-15325.5,-15627.2 L-15235.6,-15224 L-14990.4,-14891.4 L-14639.5,-14579 L-14276.9,-14372.8 L-13569.8,-14148.5 L-13361.6,-14106.1 L-11728.9,-13951.8 L-11603.4,-13947.8 L-8734.66,-14037.9 L-5329.91,-13893.9 L-5208.29,-13896.1 L-3755.8,-14011.8 L-3566.91,-14045.3 L-2576.99,-14321 L-1561.14,-14106.5 L-1274.22,-14088.2 L188.41,-14206.1 L401.771,-14247 L2144.94,-14782.7 L2300.54,-14845.2 L4163.71,-15782.3 L4434.43,-15981.7 L4961.69,-16528.9 L5108.11,-16723.5 L5525.91,-17448.7 L6469.48,-16759.7 L6707.12,-16631.3 L8276.87,-16040.8 L8443.46,-15994.2 L11109.5,-15490.9 L11420,-15481.4 L11718.5,-15567.6 L12423.8,-15897.3 L13087.5,-15789.8 L13631,-15471.8 L14626.6,-14498.5 L14756.8,-14391.1 L16898.5,-12909.5 L19375.4,-10555 L23342.8,-6203.37 L23570.6,-6017.61 L23842.6,-5906.11 L24322.4,-5787.92 L24350.9,-5767.34 L24410.4,-5612.91 L24492.2,-3757.78 L24612.4,-3324.77 L24914,-2769.13 L25010.4,-2650.9 L24768.1,-2281.97 L24643.9,-2013.02 L23921.9,462.283 L23668.1,756.679 L23345.4,924.565 L23196.5,734.801 L22887.4,548.43 L22532.3,483.914 L21695.8,485.358 L21616.4,427.043 L21549.6,167.501 L21506.1,-1886.91 L21431,-2246.35 L21092.1,-3069.81 L20904.8,-3364.66 L20349.9,-3970.43 L20155.3,-4134.84 L19463.9,-4581.67 L19137.2,-4718.16 L17428,-5096.52 L16995.4,-5096.45 L15298.5,-4720.26 L14893.7,-4527.56 L13544.8,-3458.09 L13337,-3233.64 L12731.9,-2336.39 L12599.5,-2052.37 L12274.3,-915.81 L12236.3,-675.105 L12188,726.867 L12197.5,903.187 L12429.6,2522.44 L12471.2,2697.92 L13642.5,6197.54 L13860.5,6563.26 L14998.6,7780.11 L15157.8,7917.9 L15789.6,8357.41 L16105.6,8503.44 L17770.2,8942.6 L18069,8974.73 L20916.5,8850.26 L21036.8,8837.68 L22915.8,8525.38 L23083,8482.48 L25300.5,7704.16 L25479.3,7620.75 L26366.3,7094.83 L26551.5,6953.45 L27416.1,6117.12 L27552.5,5953.77 L29549.4,2963.98 L29555.1,2955.29 L30337.3,1757.4 L30454.1,1510.16 L30930.7,-8.09957 L30973.3,-227.066 L31120.6,-2050.54 L31114,-2271.11 L30926.6,-3596.2 L31150.5,-5078.94 L31126.5,-5491.36 L30250.6,-8703.83 L29668.7,-12751.4 L29809.8,-12802.7 L33589.3,-13436.3 L33842.5,-13514.3 L34261.8,-13707.5 L34522.8,-13882.1 L34716.8,-14128.9 L34941.9,-14532.8 L35146.2,-14691.1 L37035.3,-15190.5 L37211.8,-15255.4 L37878.2,-15574.7 L38193.3,-15811.9 L39102.1,-16833.4 L39186.2,-16942.2 L40331.7,-18655.1 L40380.5,-18736.3 L41146.6,-20156.5 L41202.2,-20278.5 L41603.2,-21341.9 L41691.6,-21391.3 L43102.9,-21481.2 L43540.9,-21614.1 L44413.9,-22120.2 L44665.4,-22327.4 L44837,-22604.5 L45126.9,-23308.6 L45202,-23709.9 L45110.5,-24107.8 L44804.7,-24771.5 L44599.2,-25064.4 L44303.7,-25266.2 L43956.1,-25351.2 L43598.7,-25372.5 L43231.8,-25325.9 L43083.1,-25245 L42957.1,-25289.9 L42558.8,-25346 L42170.6,-25240.5 L42110.2,-25210 L41790.5,-25345.9 L41475.8,-25422.7 L41153,-25394.7 L40395.4,-25202.1 L40033,-25026.2 L39769.4,-24721.6 L38547.9,-22540.6 L36603.7,-20055.4 L36450.8,-19779 L36439.1,-19746.7 L35951.2,-19904.8 L35376.6,-19917.4 L32453.3,-19109.7 L31645.3,-19081.9 L31205.5,-19323.2 L30802.9,-19941.8 L30610.1,-20160.1 L29734.7,-20899.7 L30852.1,-21577.9 L31161.2,-21872 L31677.2,-22633.8 L31825.9,-22979.9 L32059.2,-24041.2 L32082.5,-24261.2 L32069.5,-26662.9 L32151.2,-27162.2 L32526,-27259.7 L33045.4,-27570.5 L33388,-27911.9 L33957.4,-28855.4 L34083.6,-29185.5 L34087.2,-29538.9 L34012,-29983.4 L33855,-30376 L33549.7,-30668.6 L33150.8,-30808.8 L33065,-30819.6 L32884.5,-31016.1 L32555.7,-31178.6 L32190.4,-31211.5 L31480.5,-31144.3 L31078,-31016.6 L30153.1,-30487.2 L29784,-30480.6 L29386.1,-30390.3 L29057.3,-30148.5 L28852.6,-29795.5 L28510.3,-28763.3 L28461.8,-28515.7 L28310.6,-26268.1 L28179.2,-25684.6 L26417.3,-24136.6 L26071.1,-23950 L25992.2,-23938.4 L25702.2,-24255.6 L25414.9,-24473.6 L24803.9,-24782.1 L24487.6,-24880.4 L22008.3,-25216.8 L22141.4,-25628 L22189.6,-25967.5 L22120.2,-26303.2 L21826.7,-27046.9 L21525.8,-27456.9 L19451.7,-29136.3 L19155.4,-29302 L18150.9,-29656.8 L18124.3,-30118.2 L18048.8,-30445.8 L17869,-30729.8 L17417.5,-31231.1 L17089.3,-31471.8 L16692.3,-31561.8 L16417.8,-31566.7 L15930,-31449.6 L15130.6,-31024 L14823.6,-30770.9 L14639.6,-30418.2 L14296.7,-29228.5 L14258.4,-28911.8 L14321.8,-28599.1 L14544.1,-28008.9 L14732.4,-27697.1 L15260.3,-27102.9 L15658.1,-26830.3 L17025.6,-26319.9 L17298.7,-26049.9 L17187.3,-25825.8 L17031.4,-25792.6 L15275.7,-26051.7 L13094.9,-26883.2 L12592.6,-27464.9 L11210.4,-30045 L11010.5,-30304.6 L9588.67,-31628.6 L9162.68,-31863.6 L8294.49,-32093 L8071.09,-32125.7 L5857.35,-32196.8 L5538.94,-32353.4 L5112.63,-32832.8 L4736.46,-33096.8 L2901.61,-33830 L2811.11,-33861.2 L995.803,-34391.8 L789.303,-34429.2 L-688.144,-34539 L-1010.81,-34510.3 L-2300.14,-34179.4 L-2666.81,-33999.1 L-2930.76,-33687.2 L-3047.92,-33295.7 L-2998.72,-32890.1 L-2826.86,-32382.5 L-2624.55,-32036 L-2266.31,-31636 L-1955.06,-31402.1 L-1030.45,-30957.2 L-850.886,-30891.1 L1512.8,-30270.1 L-1514.87,-29705.1 L-1825.92,-29591.3 L-2082.72,-29382.1 L-2551.5,-28848.4 L-2724.01,-28571.3 L-2798.09,-28253.4 L-2765.84,-27928.6 L-2655.44,-27518.3 L-2508.03,-27203.3 L-2261.64,-26957.8 L-1946.08,-26811.6 L-517.639,-26432.9 L-264.396,-26399.5 L3018.41,-26389.5 L4964.9,-25793.7 L4810.2,-25671.1 L4450.65,-25189.8 L4302.96,-24907.2 L4251.74,-24592.5 L4251.34,-24250 L2935.38,-23631.8 L2668.51,-23448.6 L2474.17,-23189.6 L2005.19,-22291.6 L1939.87,-22245.2 L1327.6,-22299.6 L-1634.02,-23542.5 L-2149.4,-23612.2 L-4303.27,-23333.3 L-4794.02,-23126.9 L-5055.21,-22921 L-5347.15,-22547.9 L-5434.65,-22082.4 L-5407.42,-21572.3 L-5328.59,-21233.1 L-5138.2,-20941.5 L-4776.98,-20556.4 L-4546.96,-20374.1 L-4273.94,-20266.5 L-1628.72,-19651.9 L-2727.11,-19608.3 L-8697.62,-20115.9 L-13357.6,-21470.7 L-13685.9,-21509.3 L-14346.5,-21476.8 L-14659.2,-21410.2 L-14935,-21248.4 L-15312.2,-20936.1 L-15548.1,-20652.5 L-15665.2,-20302.7 L-15755.8,-19646.8 L-15717.9,-19205.9 L-15493.4,-18824.5 L-15126.2,-18577.4 L-12582.6,-17592.7"/>
</g>

<g fill="none" stroke="#000000" stroke-opacity="1" stroke-width="1" stroke-linecap="square" stroke-linejoin="bevel" transform="matrix(0.999984,0,0,-0.999984,15756.1,8975.79)"
font-family="MS Shell Dlg 2" font-size="10.3125" font-weight="400" font-style="normal" 
>
</g>

<g fill="none" stroke="#000000" stroke-opacity="1" stroke-width="1" stroke-linecap="square" stroke-linejoin="bevel" transform="matrix(0.999984,0,0,-0.999984,15756.1,8975.79)"
font-family="MS Shell Dlg 2" font-size="10.3125" font-weight="400" font-style="normal" 
>
</g>

<g fill="#ffff00" fill-opacity="0.500008" stroke="#333333" stroke-opacity="1" stroke-width="1" stroke-linecap="round" stroke-linejoin="round" transform="matrix(0.999984,0,0,-0.999984,15756.1,8975.79)"
font-family="MS Shell Dlg 2" font-size="10.3125" font-weight="400" font-style="normal" 
>
<path vector-effect="non-scaling-stroke" fill-rule="evenodd" d="M-12582.6,-17592.7 L-14033.1,-17525.4 L-14468.1,-17403 L-14804.7,-17101.7 L-15148,-16613.7 L-15285.1,-16334.8 L-15329.9,-16027.3 L-15325.5,-15627.2 L-15235.6,-15224 L-14990.4,-14891.4 L-14639.5,-14579 L-14276.9,-14372.8 L-13569.8,-14148.5 L-13361.6,-14106.1 L-11728.9,-13951.8 L-11603.4,-13947.8 L-8734.66,-14037.9 L-5329.91,-13893.9 L-5208.29,-13896.1 L-3755.8,-14011.8 L-3566.91,-14045.3 L-2576.99,-14321 L-1561.14,-14106.5 L-1274.22,-14088.2 L188.41,-14206.1 L401.771,-14247 L2144.94,-14782.7 L2300.54,-14845.2 L4163.71,-15782.3 L4434.43,-15981.7 L4961.69,-16528.9 L5108.11,-16723.5 L5525.91,-17448.7 L6469.48,-16759.7 L6707.12,-16631.3 L8276.87,-16040.8 L8443.46,-15994.2 L11109.5,-15490.9 L11420,-15481.4 L11718.5,-15567.6 L12423.8,-15897.3 L13087.5,-15789.8 L13631,-15471.8 L14626.6,-14498.5 L14756.8,-14391.1 L16898.5,-12909.5 L19375.4,-10555 L23342.8,-6203.37 L23570.6,-6017.61 L23842.6,-5906.11 L24322.4,-5787.92 L24350.9,-5767.34 L24410.4,-5612.91 L24492.2,-3757.78 L24612.4,-3324.77 L24914,-2769.13 L25010.4,-2650.9 L24768.1,-2281.97 L24643.9,-2013.02 L23921.9,462.283 L23668.1,756.679 L23345.4,924.565 L23196.5,734.801 L22887.4,548.43 L22532.3,483.914 L21695.8,485.358 L21616.4,427.043 L21549.6,167.501 L21506.1,-1886.91 L21431,-2246.35 L21092.1,-3069.81 L20904.8,-3364.66 L20349.9,-3970.43 L20155.3,-4134.84 L19463.9,-4581.67 L19137.2,-4718.16 L17428,-5096.52 L16995.4,-5096.45 L15298.5,-4720.26 L14893.7,-4527.56 L13544.8,-3458.09 L13337,-3233.64 L12731.9,-2336.39 L12599.5,-2052.37 L12274.3,-915.81 L12236.3,-675.105 L12188,726.867 L12197.5,903.187 L12429.6,2522.44 L12471.2,2697.92 L13642.5,6197.54 L13860.5,6563.26 L14998.6,7780.11 L15157.8,7917.9 L15789.6,8357.41 L16105.6,8503.44 L17770.2,8942.6 L18069,8974.73 L20916.5,8850.26 L21036.8,8837.68 L22915.8,8525.38 L23083,8482.48 L25300.5,7704.16 L25479.3,7620.75 L26366.3,7094.83 L26551.5,6953.45 L27416.1,6117.12 L27552.5,5953.77 L29549.4,2963.98 L29555.1,2955.29 L30337.3,1757.4 L30454.1,1510.16 L30930.7,-8.09957 L30973.3,-227.066 L31120.6,-2050.54 L31114,-2271.11 L30926.6,-3596.2 L31150.5,-5078.94 L31126.5,-5491.36 L30250.6,-8703.83 L29668.7,-12751.4 L29809.8,-12802.7 L33589.3,-13436.3 L33842.5,-13514.3 L34261.8,-13707.5 L34522.8,-13882.1 L34716.8,-14128.9 L34941.9,-14532.8 L35146.2,-14691.1 L37035.3,-15190.5 L37211.8,-15255.4 L37878.2,-15574.7 L38193.3,-15811.9 L39102.1,-16833.4 L39186.2,-16942.2 L40331.7,-18655.1 L40380.5,-18736.3 L41146.6,-20156.5 L41202.2,-20278.5 L41603.2,-21341.9 L41691.6,-21391.3 L43102.9,-21481.2 L43540.9,-21614.1 L44413.9,-22120.2 L44665.4,-22327.4 L44837,-22604.5 L45126.9,-23308.6 L45202,-23709.9 L45110.5,-24107.8 L44804.7,-24771.5 L44599.2,-25064.4 L44303.7,-25266.2 L43956.1,-25351.2 L43598.7,-25372.5 L43231.8,-25325.9 L43083.1,-25245 L42957.1,-25289.9 L42558.8,-25346 L42170.6,-25240.5 L42110.2,-25210 L41790.5,-25345.9 L41475.8,-25422.7 L41153,-25394.7 L40395.4,-25202.1 L40033,-25026.2 L39769.4,-24721.6 L38547.9,-22540.6 L36603.7,-20055.4 L36450.8,-19779 L36439.1,-19746.7 L35951.2,-19904.8 L35376.6,-19917.4 L32453.3,-19109.7 L31645.3,-19081.9 L31205.5,-19323.2 L30802.9,-19941.8 L30610.1,-20160.1 L29734.7,-20899.7 L30852.1,-21577.9 L31161.2,-21872 L31677.2,-22633.8 L31825.9,-22979.9 L32059.2,-24041.2 L32082.5,-24261.2 L32069.5,-26662.9 L32151.2,-27162.2 L32526,-27259.7 L33045.4,-27570.5 L33388,-27911.9 L33957.4,-28855.4 L34083.6,-29185.5 L34087.2,-29538.9 L34012,-29983.4 L33855,-30376 L33549.7,-30668.6 L33150.8,-30808.8 L33065,-30819.6 L32884.5,-31016.1 L32555.7,-31178.6 L32190.4,-31211.5 L31480.5,-31144.3 L31078,-31016.6 L30153.1,-30487.2 L29784,-30480.6 L29386.1,-30390.3 L29057.3,-30148.5 L28852.6,-29795.5 L28510.3,-28763.3 L28461.8,-28515.7 L28310.6,-26268.1 L28179.2,-25684.6 L26417.3,-24136.6 L26071.1,-23950 L25992.2,-23938.4 L25702.2,-24255.6 L25414.9,-24473.6 L24803.9,-24782.1 L24487.6,-24880.4 L22008.3,-25216.8 L22141.4,-25628 L22189.6,-25967.5 L22120.2,-26303.2 L21826.7,-27046.9 L21525.8,-27456.9 L19451.7,-29136.3 L19155.4,-29302 L18150.9,-29656.8 L18124.3,-30118.2 L18048.8,-30445.8 L17869,-30729.8 L17417.5,-31231.1 L17089.3,-31471.8 L16692.3,-31561.8 L16417.8,-31566.7 L15930,-31449.6 L15130.6,-31024 L14823.6,-30770.9 L14639.6,-30418.2 L14296.7,-29228.5 L14258.4,-28911.8 L14321.8,-28599.1 L14544.1,-28008.9 L14732.4,-27697.1 L15260.3,-27102.9 L15658.1,-26830.3 L17025.6,-26319.9 L17298.7,-26049.9 L17187.3,-25825.8 L17031.4,-25792.6 L15275.7,-26051.7 L13094.9,-26883.2 L12592.6,-27464.9 L11210.4,-30045 L11010.5,-30304.6 L9588.67,-31628.6 L9162.68,-31863.6 L8294.49,-32093 L8071.09,-32125.7 L5857.35,-32196.8 L5538.94,-32353.4 L5112.63,-32832.8 L4736.46,-33096.8 L2901.61,-33830 L2811.11,-33861.2 L995.803,-34391.8 L789.303,-34429.2 L-688.144,-34539 L-1010.81,-34510.3 L-2300.14,-34179.4 L-2666.81,-33999.1 L-2930.76,-33687.2 L-3047.92,-33295.7 L-2998.72,-32890.1 L-2826.86,-32382.5 L-2624.55,-32036 L-2266.31,-31636 L-1955.06,-31402.1 L-1030.45,-30957.2 L-850.886,-30891.1 L1512.8,-30270.1 L-1514.87,-29705.1 L-1825.92,-29591.3 L-2082.72,-29382.1 L-2551.5,-28848.4 L-2724.01,-28571.3 L-2798.09,-28253.4 L-2765.84,-27928.6 L-2655.44,-27518.3 L-2508.03,-27203.3 L-2261.64,-26957.8 L-1946.08,-26811.6 L-517.639,-26432.9 L-264.396,-26399.5 L3018.41,-26389.5 L4964.9,-25793.7 L4810.2,-25671.1 L4450.65,-25189.8 L4302.96,-24907.2 L4251.74,-24592.5 L4251.34,-24250 L2935.38,-23631.8 L2668.51,-23448.6 L2474.17,-23189.6 L2005.19,-22291.6 L1939.87,-22245.2 L1327.6,-22299.6 L-1634.02,-23542.5 L-2149.4,-23612.2 L-4303.27,-23333.3 L-4794.02,-23126.9 L-5055.21,-22921 L-5347.15,-22547.9 L-5434.65,-22082.4 L-5407.42,-21572.3 L-5328.59,-21233.1 L-5138.2,-20941.5 L-4776.98,-20556.4 L-4546.96,-20374.1 L-4273.94,-20266.5 L-1628.72,-19651.9 L-2727.11,-19608.3 L-8697.62,-20115.9 L-13357.6,-21470.7 L-13685.9,-21509.3 L-14346.5,-21476.8 L-14659.2,-21410.2 L-14935,-21248.4 L-15312.2,-20936.1 L-15548.1,-20652.5 L-15665.2,-20302.7 L-15755.8,-19646.8 L-15717.9,-19205.9 L-15493.4,-18824.5 L-15126.2,-18577.4 L-12582.6,-17592.7"/>
</g>

<g fill="none" stroke="#000000" stroke-opacity="1" stroke-width="1" stroke-linecap="square" stroke-linejoin="bevel" transform="matrix(0.999984,0,0,-0.999984,15756.1,8975.79)"
font-family="MS Shell Dlg 2" font-size="10.3125" font-weight="400" font-style="normal" 
>
</g>

<g fill="none" stroke="#000000" stroke-opacity="1" stroke-width="1" stroke-linecap="square" stroke-linejoin="bevel" transform="matrix(0.999984,0,0,-0.999984,15756.1,8975.79)"
font-family="MS Shell Dlg 2" font-size="10.3125" font-weight="400" font-style="normal" 
>
</g>

<g fill="#ae5151" fill-opacity="0.500008" stroke="#333333" stroke-opacity="1" stroke-width="1" stroke-linecap="round" stroke-linejoin="round" transform="matrix(0.999984,0,0,-0.999984,15756.1,8975.79)"
font-family="MS Shell Dlg 2" font-size="10.3125" font-weight="400" font-style="normal" 
>
<path vector-effect="non-scaling-stroke" fill-rule="evenodd" d="M-12582.6,-17592.7 L-14033.1,-17525.4 L-14468.1,-17403 L-14804.7,-17101.7 L-15148,-16613.7 L-15285.1,-16334.8 L-15329.9,-16027.3 L-15325.5,-15627.2 L-15235.6,-15224 L-14990.4,-14891.4 L-14639.5,-14579 L-14276.9,-14372.8 L-13569.8,-14148.5 L-13361.6,-14106.1 L-11728.9,-13951.8 L-11603.4,-13947.8 L-8734.66,-14037.9 L-5329.91,-13893.9 L-5208.29,-13896.1 L-3755.8,-14011.8 L-3566.91,-14045.3 L-2576.99,-14321 L-1561.14,-14106.5 L-1274.22,-14088.2 L188.41,-14206.1 L401.771,-14247 L2144.94,-14782.7 L2300.54,-14845.2 L4163.71,-15782.3 L4434.43,-15981.7 L4961.69,-16528.9 L5108.11,-16723.5 L5525.91,-17448.7 L6469.48,-16759.7 L6707.12,-16631.3 L8276.87,-16040.8 L8443.46,-15994.2 L11109.5,-15490.9 L11420,-15481.4 L11718.5,-15567.6 L12423.8,-15897.3 L13087.5,-15789.8 L13631,-15471.8 L14626.6,-14498.5 L14756.8,-14391.1 L16898.5,-12909.5 L19375.4,-10555 L23342.8,-6203.37 L23570.6,-6017.61 L23842.6,-5906.11 L24322.4,-5787.92 L24350.9,-5767.34 L24410.4,-5612.91 L24492.2,-3757.78 L24612.4,-3324.77 L24914,-2769.13 L25010.4,-2650.9 L24768.1,-2281.97 L24643.9,-2013.02 L23921.9,462.283 L23668.1,756.679 L23345.4,924.565 L23196.5,734.801 L22887.4,548.43 L22532.3,483.914 L21695.8,485.358 L21616.4,427.043 L21549.6,167.501 L21506.1,-1886.91 L21431,-2246.35 L21092.1,-3069.81 L20904.8,-3364.66 L20349.9,-3970.43 L20155.3,-4134.84 L19463.9,-4581.67 L19137.2,-4718.16 L17428,-5096.52 L16995.4,-5096.45 L15298.5,-4720.26 L14893.7,-4527.56 L13544.8,-3458.09 L13337,-3233.64 L12731.9,-2336.39 L12599.5,-2052.37 L12274.3,-915.81 L12236.3,-675.105 L12188,726.867 L12197.5,903.187 L12429.6,2522.44 L12471.2,2697.92 L13642.5,6197.54 L13860.5,6563.26 L14998.6,7780.11 L15157.8,7917.9 L15789.6,8357.41 L16105.6,8503.44 L17770.2,8942.6 L18069,8974.73 L20916.5,8850.26 L21036.8,8837.68 L22915.8,8525.38 L23083,8482.48 L25300.5,7704.16 L25479.3,7620.75 L26366.3,7094.83 L26551.5,6953.45 L27416.1,6117.12 L27552.5,5953.77 L29549.4,2963.98 L29555.1,2955.29 L30337.3,1757.4 L30454.1,1510.16 L30930.7,-8.09957 L30973.3,-227.066 L31120.6,-2050.54 L31114,-2271.11 L30926.6,-3596.2 L31150.5,-5078.94 L31126.5,-5491.36 L30250.6,-8703.83 L29668.7,-12751.4 L29809.8,-12802.7 L33589.3,-13436.3 L33842.5,-13514.3 L34261.8,-13707.5 L34522.8,-13882.1 L34716.8,-14128.9 L34941.9,-14532.8 L35146.2,-14691.1 L37035.3,-15190.5 L37211.8,-15255.4 L37878.2,-15574.7 L38193.3,-15811.9 L39102.1,-16833.4 L39186.2,-16942.2 L40331.7,-18655.1 L40380.5,-18736.3 L41146.6,-20156.5 L41202.2,-20278.5 L41603.2,-21341.9 L41691.6,-21391.3 L43102.9,-21481.2 L43540.9,-21614.1 L44413.9,-22120.2 L44665.4,-22327.4 L44837,-22604.5 L45126.9,-23308.6 L45202,-23709.9 L45110.5,-24107.8 L44804.7,-24771.5 L44599.2,-25064.4 L44303.7,-25266.2 L43956.1,-25351.2 L43598.7,-25372.5 L43231.8,-25325.9 L43083.1,-25245 L42957.1,-25289.9 L42558.8,-25346 L42170.6,-25240.5 L42110.2,-25210 L41790.5,-25345.9 L41475.8,-25422.7 L41153,-25394.7 L40395.4,-25202.1 L40033,-25026.2 L39769.4,-24721.6 L38547.9,-22540.6 L36603.7,-20055.4 L36450.8,-19779 L36439.1,-19746.7 L35951.2,-19904.8 L35376.6,-19917.4 L32453.3,-19109.7 L31645.3,-19081.9 L31205.5,-19323.2 L30802.9,-19941.8 L30610.1,-20160.1 L29734.7,-20899.7 L30852.1,-21577.9 L31161.2,-21872 L31677.2,-22633.8 L31825.9,-22979.9 L32059.2,-24041.2 L32082.5,-24261.2 L32069.5,-26662.9 L32151.2,-27162.2 L32526,-27259.7 L33045.4,-27570.5 L33388,-27911.9 L33957.4,-28855.4 L34083.6,-29185.5 L34087.2,-29538.9 L34012,-29983.4 L33855,-30376 L33549.7,-30668.6 L33150.8,-30808.8 L33065,-30819.6 L32884.5,-31016.1 L32555.7,-31178.6 L32190.4,-31211.5 L31480.5,-31144.3 L31078,-31016.6 L30153.1,-30487.2 L29784,-30480.6 L29386.1,-30390.3 L29057.3,-30148.5 L28852.6,-29795.5 L28510.3,-28763.3 L28461.8,-28515.7 L28310.6,-26268.1 L28179.2,-25684.6 L26417.3,-24136.6 L26071.1,-23950 L25992.2,-23938.4 L25702.2,-24255.6 L25414.9,-24473.6 L24803.9,-24782.1 L24487.6,-24880.4 L22008.3,-25216.8 L22141.4,-25628 L22189.6,-25967.5 L22120.2,-26303.2 L21826.7,-27046.9 L21525.8,-27456.9 L19451.7,-29136.3 L19155.4,-29302 L18150.9,-29656.8 L18124.3,-30118.2 L18048.8,-30445.8 L17869,-30729.8 L17417.5,-31231.1 L17089.3,-31471.8 L16692.3,-31561.8 L16417.8,-31566.7 L15930,-31449.6 L15130.6,-31024 L14823.6,-30770.9 L14639.6,-30418.2 L14296.7,-29228.5 L14258.4,-28911.8 L14321.8,-28599.1 L14544.1,-28008.9 L14732.4,-27697.1 L15260.3,-27102.9 L15658.1,-26830.3 L17025.6,-26319.9 L17298.7,-26049.9 L17187.3,-25825.8 L17031.4,-25792.6 L15275.7,-26051.7 L13094.9,-26883.2 L12592.6,-27464.9 L11210.4,-30045 L11010.5,-30304.6 L9588.67,-31628.6 L9162.68,-31863.6 L8294.49,-32093 L8071.09,-32125.7 L5857.35,-32196.8 L5538.94,-32353.4 L5112.63,-32832.8 L4736.46,-33096.8 L2901.61,-33830 L2811.11,-33861.2 L995.803,-34391.8 L789.303,-34429.2 L-688.144,-34539 L-1010.81,-34510.3 L-2300.14,-34179.4 L-2666.81,-33999.1 L-2930.76,-33687.2 L-3047.92,-33295.7 L-2998.72,-32890.1 L-2826.86,-32382.5 L-2624.55,-32036 L-2266.31,-31636 L-1955.06,-31402.1 L-1030.45,-30957.2 L-850.886,-30891.1 L1512.8,-30270.1 L-1514.87,-29705.1 L-1825.92,-29591.3 L-2082.72,-29382.1 L-2551.5,-28848.4 L-2724.01,-28571.3 L-2798.09,-28253.4 L-2765.84,-27928.6 L-2655.44,-27518.3 L-2508.03,-27203.3 L-2261.64,-26957.8 L-1946.08,-26811.6 L-517.639,-26432.9 L-264.396,-26399.5 L3018.41,-26389.5 L4964.9,-25793.7 L4810.2,-25671.1 L4450.65,-25189.8 L4302.96,-24907.2 L4251.74,-24592.5 L4251.34,-24250 L2935.38,-23631.8 L2668.51,-23448.6 L2474.17,-23189.6 L2005.19,-22291.6 L1939.87,-22245.2 L1327.6,-22299.6 L-1634.02,-23542.5 L-2149.4,-23612.2 L-4303.27,-23333.3 L-4794.02,-23126.9 L-5055.21,-22921 L-5347.15,-22547.9 L-5434.65,-22082.4 L-5407.42,-21572.3 L-5328.59,-21233.1 L-5138.2,-20941.5 L-4776.98,-20556.4 L-4546.96,-20374.1 L-4273.94,-20266.5 L-1628.72,-19651.9 L-2727.11,-19608.3 L-8697.62,-20115.9 L-13357.6,-21470.7 L-13685.9,-21509.3 L-14346.5,-21476.8 L-14659.2,-21410.2 L-14935,-21248.4 L-15312.2,-20936.1 L-15548.1,-20652.5 L-15665.2,-20302.7 L-15755.8,-19646.8 L-15717.9,-19205.9 L-15493.4,-18824.5 L-15126.2,-18577.4 L-12582.6,-17592.7"/>
</g>

<g fill="none" stroke="#000000" stroke-opacity="1" stroke-width="1" stroke-linecap="square" stroke-linejoin="bevel" transform="matrix(0.999984,0,0,-0.999984,15756.1,8975.79)"
font-family="MS Shell Dlg 2" font-size="10.3125" font-weight="400" font-style="normal" 
>
</g>

<g fill="none" stroke="#000000" stroke-opacity="1" stroke-width="1" stroke-linecap="square" stroke-linejoin="bevel" transform="matrix(0.999984,0,0,-0.999984,15756.1,8975.79)"
font-family="MS Shell Dlg 2" font-size="10.3125" font-weight="400" font-style="normal" 
>
</g>

<g fill="#333333" fill-opacity="0.500008" stroke="#333333" stroke-opacity="1" stroke-width="1" stroke-linecap="round" stroke-linejoin="round" transform="matrix(0.999984,0,0,-0.999984,15756.1,8975.79)"
font-family="MS Shell Dlg 2" font-size="10.3125" font-weight="400" font-style="normal" 
>
<path vector-effect="non-scaling-stroke" fill-rule="evenodd" d="M-12582.6,-17592.7 L-14033.1,-17525.4 L-14468.1,-17403 L-14804.7,-17101.7 L-15148,-16613.7 L-15285.1,-16334.8 L-15329.9,-16027.3 L-15325.5,-15627.2 L-15235.6,-15224 L-14990.4,-14891.4 L-14639.5,-14579 L-14276.9,-14372.8 L-13569.8,-14148.5 L-13361.6,-14106.1 L-11728.9,-13951.8 L-11603.4,-13947.8 L-8734.66,-14037.9 L-5329.91,-13893.9 L-5208.29,-13896.1 L-3755.8,-14011.8 L-3566.91,-14045.3 L-2576.99,-14321 L-1561.14,-14106.5 L-1274.22,-14088.2 L188.41,-14206.1 L401.771,-14247 L2144.94,-14782.7 L2300.54,-14845.2 L4163.71,-15782.3 L4434.43,-15981.7 L4961.69,-16528.9 L5108.11,-16723.5 L5525.91,-17448.7 L6469.48,-16759.7 L6707.12,-16631.3 L8276.87,-16040.8 L8443.46,-15994.2 L11109.5,-15490.9 L11420,-15481.4 L11718.5,-15567.6 L12423.8,-15897.3 L13087.5,-15789.8 L13631,-15471.8 L14626.6,-14498.5 L14756.8,-14391.1 L16898.5,-12909.5 L19375.4,-10555 L23342.8,-6203.37 L23570.6,-6017.61 L23842.6,-5906.11 L24322.4,-5787.92 L24350.9,-5767.34 L24410.4,-5612.91 L24492.2,-3757.78 L24612.4,-3324.77 L24914,-2769.13 L25010.4,-2650.9 L24768.1,-2281.97 L24643.9,-2013.02 L23921.9,462.283 L23668.1,756.679 L23345.4,924.565 L23196.5,734.801 L22887.4,548.43 L22532.3,483.914 L21695.8,485.358 L21616.4,427.043 L21549.6,167.501 L21506.1,-1886.91 L21431,-2246.35 L21092.1,-3069.81 L20904.8,-3364.66 L20349.9,-3970.43 L20155.3,-4134.84 L19463.9,-4581.67 L19137.2,-4718.16 L17428,-5096.52 L16995.4,-5096.45 L15298.5,-4720.26 L14893.7,-4527.56 L13544.8,-3458.09 L13337,-3233.64 L12731.9,-2336.39 L12599.5,-2052.37 L12274.3,-915.81 L12236.3,-675.105 L12188,726.867 L12197.5,903.187 L12429.6,2522.44 L12471.2,2697.92 L13642.5,6197.54 L13860.5,6563.26 L14998.6,7780.11 L15157.8,7917.9 L15789.6,8357.41 L16105.6,8503.44 L17770.2,8942.6 L18069,8974.73 L20916.5,8850.26 L21036.8,8837.68 L22915.8,8525.38 L23083,8482.48 L25300.5,7704.16 L25479.3,7620.75 L26366.3,7094.83 L26551.5,6953.45 L27416.1,6117.12 L27552.5,5953.77 L29549.4,2963.98 L29555.1,2955.29 L30337.3,1757.4 L30454.1,1510.16 L30930.7,-8.09957 L30973.3,-227.066 L31120.6,-2050.54 L31114,-2271.11 L30926.6,-3596.2 L31150.5,-5078.94 L31126.5,-5491.36 L30250.6,-8703.83 L29668.7,-12751.4 L29809.8,-12802.7 L33589.3,-13436.3 L33842.5,-13514.3 L34261.8,-13707.5 L34522.8,-13882.1 L34716.8,-14128.9 L34941.9,-14532.8 L35146.2,-14691.1 L37035.3,-15190.5 L37211.8,-15255.4 L37878.2,-15574.7 L38193.3,-15811.9 L39102.1,-16833.4 L39186.2,-16942.2 L40331.7,-18655.1 L40380.5,-18736.3 L41146.6,-20156.5 L41202.2,-20278.5 L41603.2,-21341.9 L41691.6,-21391.3 L43102.9,-21481.2 L43540.9,-21614.1 L44413.9,-22120.2 L44665.4,-22327.4 L44837,-22604.5 L45126.9,-23308.6 L45202,-23709.9 L45110.5,-24107.8 L44804.7,-24771.5 L44599.2,-25064.4 L44303.7,-25266.2 L43956.1,-25351.2 L43598.7,-25372.5 L43231.8,-25325.9 L43083.1,-25245 L42957.1,-25289.9 L42558.8,-25346 L42170.6,-25240.5 L42110.2,-25210 L41790.5,-25345.9 L41475.8,-25422.7 L41153,-25394.7 L40395.4,-25202.1 L40033,-25026.2 L39769.4,-24721.6 L38547.9,-22540.6 L36603.7,-20055.4 L36450.8,-19779 L36439.1,-19746.7 L35951.2,-19904.8 L35376.6,-19917.4 L32453.3,-19109.7 L31645.3,-19081.9 L31205.5,-19323.2 L30802.9,-19941.8 L30610.1,-20160.1 L29734.7,-20899.7 L30852.1,-21577.9 L31161.2,-21872 L31677.2,-22633.8 L31825.9,-22979.9 L32059.2,-24041.2 L32082.5,-24261.2 L32069.5,-26662.9 L32151.2,-27162.2 L32526,-27259.7 L33045.4,-27570.5 L33388,-27911.9 L33957.4,-28855.4 L34083.6,-29185.5 L34087.2,-29538.9 L34012,-29983.4 L33855,-30376 L33549.7,-30668.6 L33150.8,-30808.8 L33065,-30819.6 L32884.5,-31016.1 L32555.7,-31178.6 L32190.4,-31211.5 L31480.5,-31144.3 L31078,-31016.6 L30153.1,-30487.2 L29784,-30480.6 L29386.1,-30390.3 L29057.3,-30148.5 L28852.6,-29795.5 L28510.3,-28763.3 L28461.8,-28515.7 L28310.6,-26268.1 L28179.2,-25684.6 L26417.3,-24136.6 L26071.1,-23950 L25992.2,-23938.4 L25702.2,-24255.6 L25414.9,-24473.6 L24803.9,-24782.1 L24487.6,-24880.4 L22008.3,-25216.8 L22141.4,-25628 L22189.6,-25967.5 L22120.2,-26303.2 L21826.7,-27046.9 L21525.8,-27456.9 L19451.7,-29136.3 L19155.4,-29302 L18150.9,-29656.8 L18124.3,-30118.2 L18048.8,-30445.8 L17869,-30729.8 L17417.5,-31231.1 L17089.3,-31471.8 L16692.3,-31561.8 L16417.8,-31566.7 L15930,-31449.6 L15130.6,-31024 L14823.6,-30770.9 L14639.6,-30418.2 L14296.7,-29228.5 L14258.4,-28911.8 L14321.8,-28599.1 L14544.1,-28008.9 L14732.4,-27697.1 L15260.3,-27102.9 L15658.1,-26830.3 L17025.6,-26319.9 L17298.7,-26049.9 L17187.3,-25825.8 L17031.4,-25792.6 L15275.7,-26051.7 L13094.9,-26883.2 L12592.6,-27464.9 L11210.4,-30045 L11010.5,-30304.6 L9588.67,-31628.6 L9162.68,-31863.6 L8294.49,-32093 L8071.09,-32125.7 L5857.35,-32196.8 L5538.94,-32353.4 L5112.63,-32832.8 L4736.46,-33096.8 L2901.61,-33830 L2811.11,-33861.2 L995.803,-34391.8 L789.303,-34429.2 L-688.144,-34539 L-1010.81,-34510.3 L-2300.14,-34179.4 L-2666.81,-33999.1 L-2930.76,-33687.2 L-3047.92,-33295.7 L-2998.72,-32890.1 L-2826.86,-32382.5 L-2624.55,-32036 L-2266.31,-31636 L-1955.06,-31402.1 L-1030.45,-30957.2 L-850.886,-30891.1 L1512.8,-30270.1 L-1514.87,-29705.1 L-1825.92,-29591.3 L-2082.72,-29382.1 L-2551.5,-28848.4 L-2724.01,-28571.3 L-2798.09,-28253.4 L-2765.84,-27928.6 L-2655.44,-27518.3 L-2508.03,-27203.3 L-2261.64,-26957.8 L-1946.08,-26811.6 L-517.639,-26432.9 L-264.396,-26399.5 L3018.41,-26389.5 L4964.9,-25793.7 L4810.2,-25671.1 L4450.65,-25189.8 L4302.96,-24907.2 L4251.74,-24592.5 L4251.34,-24250 L2935.38,-23631.8 L2668.51,-23448.6 L2474.17,-23189.6 L2005.19,-22291.6 L1939.87,-22245.2 L1327.6,-22299.6 L-1634.02,-23542.5 L-2149.4,-23612.2 L-4303.27,-23333.3 L-4794.02,-23126.9 L-5055.21,-22921 L-5347.15,-22547.9 L-5434.65,-22082.4 L-5407.42,-21572.3 L-5328.59,-21233.1 L-5138.2,-20941.5 L-4776.98,-20556.4 L-4546.96,-20374.1 L-4273.94,-20266.5 L-1628.72,-19651.9 L-2727.11,-19608.3 L-8697.62,-20115.9 L-13357.6,-21470.7 L-13685.9,-21509.3 L-14346.5,-21476.8 L-14659.2,-21410.2 L-14935,-21248.4 L-15312.2,-20936.1 L-15548.1,-20652.5 L-15665.2,-20302.7 L-15755.8,-19646.8 L-15717.9,-19205.9 L-15493.4,-18824.5 L-15126.2,-18577.4 L-12582.6,-17592.7"/>
</g>

<g fill="none" stroke="#000000" stroke-opacity="1" stroke-width="1" stroke-linecap="square" stroke-linejoin="bevel" transform="matrix(0.999984,0,0,-0.999984,15756.1,8975.79)"
font-family="MS Shell Dlg 2" font-size="10.3125" font-weight="400" font-style="normal" 
>
</g>

<g fill="none" stroke="#000000" stroke-opacity="1" stroke-width="1" stroke-linecap="square" stroke-linejoin="bevel" transform="matrix(1,0,0,-1,0,43514.7)"
font-family="MS Shell Dlg 2" font-size="10.3125" font-weight="400" font-style="normal" 
>
</g>
</g>
</svg>
