<?xml version="1.0" encoding="UTF-8" standalone="no"?>
<svg width="19519.3mm" height="19816.2mm"
 xmlns="http://www.w3.org/2000/svg" xmlns:xlink="http://www.w3.org/1999/xlink"  version="1.2" baseProfile="tiny">
<title>SVG Generator Example Drawing</title>
<desc>An SVG drawing created by the SVG Generator</desc>
<defs>
</defs>
<g fill="none" stroke="black" stroke-width="1" fill-rule="evenodd" stroke-linecap="square" stroke-linejoin="bevel" >

<g fill="none" stroke="#000000" stroke-opacity="1" stroke-width="1" stroke-linecap="square" stroke-linejoin="bevel" transform="matrix(1,0,0,-1,0,70215.3)"
font-family="MS Shell Dlg 2" font-size="10.3125" font-weight="400" font-style="normal" 
>
</g>

<g fill="none" stroke="#000000" stroke-opacity="1" stroke-width="1" stroke-linecap="square" stroke-linejoin="bevel" transform="matrix(1,0,0,-1,0,70215.3)"
font-family="MS Shell Dlg 2" font-size="10.3125" font-weight="400" font-style="normal" 
>
</g>

<g fill="none" stroke="#000000" stroke-opacity="1" stroke-width="1" stroke-linecap="square" stroke-linejoin="bevel" transform="matrix(0.999992,0,0,-0.999992,45849.3,37469.4)"
font-family="MS Shell Dlg 2" font-size="10.3125" font-weight="400" font-style="normal" 
>
</g>

<g fill="#333333" fill-opacity="0.2" stroke="#333333" stroke-opacity="1" stroke-width="1" stroke-linecap="round" stroke-linejoin="round" transform="matrix(0.999992,0,0,-0.999992,45849.3,37469.4)"
font-family="MS Shell Dlg 2" font-size="10.3125" font-weight="400" font-style="normal" 
>
<path vector-effect="non-scaling-stroke" fill-rule="evenodd" d="M-29134.2,35891.6 L-29298.2,36245.6 L-29314.1,36635.5 L-29179.7,37001.8 L-28915.3,37288.7 L-28561.2,37452.7 L-28171.4,37468.6 L-27805.1,37334.2 L-27518.1,37069.8 L-1860.42,1876.75 L15856.3,35020.8 L16103.8,35322.4 L16447.9,35506.3 L16836.2,35544.5 L17209.6,35431.3 L17511.2,35183.7 L17695.1,34839.6 L17733.4,34451.3 L17620.1,34077.9 L-373.418,416.045 L22783.5,-11776.1 L23086.6,-12021.7 L23272.7,-12364.7 L23313.4,-12752.7 L23202.4,-13126.8 L22956.8,-13430 L22613.9,-13616.1 L22225.8,-13656.7 L21851.7,-13545.8 L-406.112,-1827.01 L4634.03,-31592.7 L4622.87,-31982.7 L4463.3,-32338.8 L4179.62,-32606.7 L3815.02,-32745.6 L3425,-32734.5 L3068.94,-32574.9 L2801.04,-32291.2 L2662.1,-31926.6 L-2352.05,-2314.43 L-26269.4,-31111 L-26572.4,-31356.8 L-26946.5,-31467.8 L-27334.5,-31427.3 L-27677.6,-31241.4 L-27923.3,-30938.3 L-28034.4,-30564.3 L-27993.8,-30176.2 L-27807.9,-29833.2 L-3924.2,-1077.05 L-44815,-2501.54 L-45200.1,-2438.79 L-45531.8,-2233.44 L-45759.8,-1916.76 L-45849.2,-1536.96 L-45786.4,-1151.86 L-45581.1,-820.086 L-45264.4,-592.15 L-44884.6,-502.752 L-3648.03,933.779 L-29134.2,35891.6"/>
</g>

<g fill="none" stroke="#000000" stroke-opacity="1" stroke-width="1" stroke-linecap="square" stroke-linejoin="bevel" transform="matrix(0.999992,0,0,-0.999992,45849.3,37469.4)"
font-family="MS Shell Dlg 2" font-size="10.3125" font-weight="400" font-style="normal" 
>
</g>

<g fill="none" stroke="#000000" stroke-opacity="1" stroke-width="1" stroke-linecap="square" stroke-linejoin="bevel" transform="matrix(0.999992,0,0,-0.999992,45849.3,37469.4)"
font-family="MS Shell Dlg 2" font-size="10.3125" font-weight="400" font-style="normal" 
>
</g>

<g fill="#ae5151" fill-opacity="0.2" stroke="#333333" stroke-opacity="1" stroke-width="1" stroke-linecap="round" stroke-linejoin="round" transform="matrix(0.999992,0,0,-0.999992,45849.3,37469.4)"
font-family="MS Shell Dlg 2" font-size="10.3125" font-weight="400" font-style="normal" 
>
<path vector-effect="non-scaling-stroke" fill-rule="evenodd" d="M-29134.2,35891.6 L-29298.2,36245.6 L-29314.1,36635.5 L-29179.7,37001.8 L-28915.3,37288.7 L-28561.2,37452.7 L-28171.4,37468.6 L-27805.1,37334.2 L-27518.1,37069.8 L-1860.42,1876.75 L15856.3,35020.8 L16103.8,35322.4 L16447.9,35506.3 L16836.2,35544.5 L17209.6,35431.3 L17511.2,35183.7 L17695.1,34839.6 L17733.4,34451.3 L17620.1,34077.9 L-373.418,416.045 L22783.5,-11776.1 L23086.6,-12021.7 L23272.7,-12364.7 L23313.4,-12752.7 L23202.4,-13126.8 L22956.8,-13430 L22613.9,-13616.1 L22225.8,-13656.7 L21851.7,-13545.8 L-406.112,-1827.01 L4634.03,-31592.7 L4622.87,-31982.7 L4463.3,-32338.8 L4179.62,-32606.7 L3815.02,-32745.6 L3425,-32734.5 L3068.94,-32574.9 L2801.04,-32291.2 L2662.1,-31926.6 L-2352.05,-2314.43 L-26269.4,-31111 L-26572.4,-31356.8 L-26946.5,-31467.8 L-27334.5,-31427.3 L-27677.6,-31241.4 L-27923.3,-30938.3 L-28034.4,-30564.3 L-27993.8,-30176.2 L-27807.9,-29833.2 L-3924.2,-1077.05 L-44815,-2501.54 L-45200.1,-2438.79 L-45531.8,-2233.44 L-45759.8,-1916.76 L-45849.2,-1536.96 L-45786.4,-1151.86 L-45581.1,-820.086 L-45264.4,-592.15 L-44884.6,-502.752 L-3648.03,933.779 L-29134.2,35891.6"/>
</g>

<g fill="none" stroke="#000000" stroke-opacity="1" stroke-width="1" stroke-linecap="square" stroke-linejoin="bevel" transform="matrix(0.999992,0,0,-0.999992,45849.3,37469.4)"
font-family="MS Shell Dlg 2" font-size="10.3125" font-weight="400" font-style="normal" 
>
</g>

<g fill="none" stroke="#000000" stroke-opacity="1" stroke-width="1" stroke-linecap="square" stroke-linejoin="bevel" transform="matrix(0.999992,0,0,-0.999992,45849.3,37469.4)"
font-family="MS Shell Dlg 2" font-size="10.3125" font-weight="400" font-style="normal" 
>
</g>

<g fill="#ffff00" fill-opacity="0.2" stroke="#333333" stroke-opacity="1" stroke-width="1" stroke-linecap="round" stroke-linejoin="round" transform="matrix(0.999992,0,0,-0.999992,45849.3,37469.4)"
font-family="MS Shell Dlg 2" font-size="10.3125" font-weight="400" font-style="normal" 
>
<path vector-effect="non-scaling-stroke" fill-rule="evenodd" d="M-29134.2,35891.6 L-29298.2,36245.6 L-29314.1,36635.5 L-29179.7,37001.8 L-28915.3,37288.7 L-28561.2,37452.7 L-28171.4,37468.6 L-27805.1,37334.2 L-27518.1,37069.8 L-1860.42,1876.75 L15856.3,35020.8 L16103.8,35322.4 L16447.9,35506.3 L16836.2,35544.5 L17209.6,35431.3 L17511.2,35183.7 L17695.1,34839.6 L17733.4,34451.3 L17620.1,34077.9 L-373.418,416.045 L22783.5,-11776.1 L23086.6,-12021.7 L23272.7,-12364.7 L23313.4,-12752.7 L23202.4,-13126.8 L22956.8,-13430 L22613.9,-13616.1 L22225.8,-13656.7 L21851.7,-13545.8 L-406.112,-1827.01 L4634.03,-31592.7 L4622.87,-31982.7 L4463.3,-32338.8 L4179.62,-32606.7 L3815.02,-32745.6 L3425,-32734.5 L3068.94,-32574.9 L2801.04,-32291.2 L2662.1,-31926.6 L-2352.05,-2314.43 L-26269.4,-31111 L-26572.4,-31356.8 L-26946.5,-31467.8 L-27334.5,-31427.3 L-27677.6,-31241.4 L-27923.3,-30938.3 L-28034.4,-30564.3 L-27993.8,-30176.2 L-27807.9,-29833.2 L-3924.2,-1077.05 L-44815,-2501.54 L-45200.1,-2438.79 L-45531.8,-2233.44 L-45759.8,-1916.76 L-45849.2,-1536.96 L-45786.4,-1151.86 L-45581.1,-820.086 L-45264.4,-592.15 L-44884.6,-502.752 L-3648.03,933.779 L-29134.2,35891.6"/>
</g>

<g fill="none" stroke="#000000" stroke-opacity="1" stroke-width="1" stroke-linecap="square" stroke-linejoin="bevel" transform="matrix(0.999992,0,0,-0.999992,45849.3,37469.4)"
font-family="MS Shell Dlg 2" font-size="10.3125" font-weight="400" font-style="normal" 
>
</g>

<g fill="none" stroke="#000000" stroke-opacity="1" stroke-width="1" stroke-linecap="square" stroke-linejoin="bevel" transform="matrix(0.999992,0,0,-0.999992,45849.3,37469.4)"
font-family="MS Shell Dlg 2" font-size="10.3125" font-weight="400" font-style="normal" 
>
</g>

<g fill="#ae5151" fill-opacity="0.2" stroke="#333333" stroke-opacity="1" stroke-width="1" stroke-linecap="round" stroke-linejoin="round" transform="matrix(0.999992,0,0,-0.999992,45849.3,37469.4)"
font-family="MS Shell Dlg 2" font-size="10.3125" font-weight="400" font-style="normal" 
>
<path vector-effect="non-scaling-stroke" fill-rule="evenodd" d="M-29134.2,35891.6 L-29298.2,36245.6 L-29314.1,36635.5 L-29179.7,37001.8 L-28915.3,37288.7 L-28561.2,37452.7 L-28171.4,37468.6 L-27805.1,37334.2 L-27518.1,37069.8 L-1860.42,1876.75 L15856.3,35020.8 L16103.8,35322.4 L16447.9,35506.3 L16836.2,35544.5 L17209.6,35431.3 L17511.2,35183.7 L17695.1,34839.6 L17733.4,34451.3 L17620.1,34077.9 L-373.418,416.045 L22783.5,-11776.1 L23086.6,-12021.7 L23272.7,-12364.7 L23313.4,-12752.7 L23202.4,-13126.8 L22956.8,-13430 L22613.9,-13616.1 L22225.8,-13656.7 L21851.7,-13545.8 L-406.112,-1827.01 L4634.03,-31592.7 L4622.87,-31982.7 L4463.3,-32338.8 L4179.62,-32606.7 L3815.02,-32745.6 L3425,-32734.5 L3068.94,-32574.9 L2801.04,-32291.2 L2662.1,-31926.6 L-2352.05,-2314.43 L-26269.4,-31111 L-26572.4,-31356.8 L-26946.5,-31467.8 L-27334.5,-31427.3 L-27677.6,-31241.4 L-27923.3,-30938.3 L-28034.4,-30564.3 L-27993.8,-30176.2 L-27807.9,-29833.2 L-3924.2,-1077.05 L-44815,-2501.54 L-45200.1,-2438.79 L-45531.8,-2233.44 L-45759.8,-1916.76 L-45849.2,-1536.96 L-45786.4,-1151.86 L-45581.1,-820.086 L-45264.4,-592.15 L-44884.6,-502.752 L-3648.03,933.779 L-29134.2,35891.6"/>
</g>

<g fill="none" stroke="#000000" stroke-opacity="1" stroke-width="1" stroke-linecap="square" stroke-linejoin="bevel" transform="matrix(0.999992,0,0,-0.999992,45849.3,37469.4)"
font-family="MS Shell Dlg 2" font-size="10.3125" font-weight="400" font-style="normal" 
>
</g>

<g fill="none" stroke="#000000" stroke-opacity="1" stroke-width="1" stroke-linecap="square" stroke-linejoin="bevel" transform="matrix(0.999992,0,0,-0.999992,45849.3,37469.4)"
font-family="MS Shell Dlg 2" font-size="10.3125" font-weight="400" font-style="normal" 
>
</g>

<g fill="#333333" fill-opacity="0.2" stroke="#333333" stroke-opacity="1" stroke-width="1" stroke-linecap="round" stroke-linejoin="round" transform="matrix(0.999992,0,0,-0.999992,45849.3,37469.4)"
font-family="MS Shell Dlg 2" font-size="10.3125" font-weight="400" font-style="normal" 
>
<path vector-effect="non-scaling-stroke" fill-rule="evenodd" d="M-29134.2,35891.6 L-29298.2,36245.6 L-29314.1,36635.5 L-29179.7,37001.8 L-28915.3,37288.7 L-28561.2,37452.7 L-28171.4,37468.6 L-27805.1,37334.2 L-27518.1,37069.8 L-1860.42,1876.75 L15856.3,35020.8 L16103.8,35322.4 L16447.9,35506.3 L16836.2,35544.5 L17209.6,35431.3 L17511.2,35183.7 L17695.1,34839.6 L17733.4,34451.3 L17620.1,34077.9 L-373.418,416.045 L22783.5,-11776.1 L23086.6,-12021.7 L23272.7,-12364.7 L23313.4,-12752.7 L23202.4,-13126.8 L22956.8,-13430 L22613.9,-13616.1 L22225.8,-13656.7 L21851.7,-13545.8 L-406.112,-1827.01 L4634.03,-31592.7 L4622.87,-31982.7 L4463.3,-32338.8 L4179.62,-32606.7 L3815.02,-32745.6 L3425,-32734.5 L3068.94,-32574.9 L2801.04,-32291.2 L2662.1,-31926.6 L-2352.05,-2314.43 L-26269.4,-31111 L-26572.4,-31356.8 L-26946.5,-31467.8 L-27334.5,-31427.3 L-27677.6,-31241.4 L-27923.3,-30938.3 L-28034.4,-30564.3 L-27993.8,-30176.2 L-27807.9,-29833.2 L-3924.2,-1077.05 L-44815,-2501.54 L-45200.1,-2438.79 L-45531.8,-2233.44 L-45759.8,-1916.76 L-45849.2,-1536.96 L-45786.4,-1151.86 L-45581.1,-820.086 L-45264.4,-592.15 L-44884.6,-502.752 L-3648.03,933.779 L-29134.2,35891.6"/>
</g>

<g fill="none" stroke="#000000" stroke-opacity="1" stroke-width="1" stroke-linecap="square" stroke-linejoin="bevel" transform="matrix(0.999992,0,0,-0.999992,45849.3,37469.4)"
font-family="MS Shell Dlg 2" font-size="10.3125" font-weight="400" font-style="normal" 
>
</g>

<g fill="none" stroke="#000000" stroke-opacity="1" stroke-width="1" stroke-linecap="square" stroke-linejoin="bevel" transform="matrix(1,0,0,-1,0,70215.3)"
font-family="MS Shell Dlg 2" font-size="10.3125" font-weight="400" font-style="normal" 
>
</g>
</g>
</svg>
