<?xml version="1.0" encoding="UTF-8" standalone="no"?>
<svg width="12684.8mm" height="9876.37mm"
 xmlns="http://www.w3.org/2000/svg" xmlns:xlink="http://www.w3.org/1999/xlink"  version="1.2" baseProfile="tiny">
<title>SVG Generator Example Drawing</title>
<desc>An SVG drawing created by the SVG Generator</desc>
<defs>
</defs>
<g fill="none" stroke="black" stroke-width="1" fill-rule="evenodd" stroke-linecap="square" stroke-linejoin="bevel" >

<g fill="none" stroke="#000000" stroke-opacity="1" stroke-width="1" stroke-linecap="square" stroke-linejoin="bevel" transform="matrix(1,0,0,-1,0,34996)"
font-family="MS Shell Dlg 2" font-size="10.3125" font-weight="400" font-style="normal" 
>
</g>

<g fill="none" stroke="#000000" stroke-opacity="1" stroke-width="1" stroke-linecap="square" stroke-linejoin="bevel" transform="matrix(1,0,0,-1,0,34996)"
font-family="MS Shell Dlg 2" font-size="10.3125" font-weight="400" font-style="normal" 
>
</g>

<g fill="none" stroke="#000000" stroke-opacity="1" stroke-width="1" stroke-linecap="square" stroke-linejoin="bevel" transform="matrix(0.999973,0,0,-0.999973,28262,36478.4)"
font-family="MS Shell Dlg 2" font-size="10.3125" font-weight="400" font-style="normal" 
>
</g>

<g fill="#333333" fill-opacity="0.2" stroke="#333333" stroke-opacity="1" stroke-width="1" stroke-linecap="round" stroke-linejoin="round" transform="matrix(0.999973,0,0,-0.999973,28262,36478.4)"
font-family="MS Shell Dlg 2" font-size="10.3125" font-weight="400" font-style="normal" 
>
<path vector-effect="non-scaling-stroke" fill-rule="evenodd" d="M-28262.3,36477.9 L-27048.7,36425.9 L15574.3,34599.2 L16682.8,34551.7 L13015.3,27690.7 L13015.1,27690.7 L12177.4,28138.4 L1067.24,7353.76 L1904.94,6905.98 L1905.01,6905.82 L-977.143,1513.95 L-1456.39,2171.31 L-1728.38,2359 L-2058.04,2336.04 L-2301.37,2112.46 L-2582.29,1586.92 L-2749.02,1483 L-6987.33,7296.42 L-6987.29,7296.61 L-6219.76,7856.18 L-22220,29802.7 L-22987.6,29243.2 L-22987.8,29243.2 L-28262.3,36477.9"/>
</g>

<g fill="none" stroke="#000000" stroke-opacity="1" stroke-width="1" stroke-linecap="square" stroke-linejoin="bevel" transform="matrix(0.999973,0,0,-0.999973,28262,36478.4)"
font-family="MS Shell Dlg 2" font-size="10.3125" font-weight="400" font-style="normal" 
>
</g>

<g fill="none" stroke="#000000" stroke-opacity="1" stroke-width="1" stroke-linecap="square" stroke-linejoin="bevel" transform="matrix(0.999973,0,0,-0.999973,28262,36478.4)"
font-family="MS Shell Dlg 2" font-size="10.3125" font-weight="400" font-style="normal" 
>
</g>

<g fill="#ae5151" fill-opacity="0.2" stroke="#333333" stroke-opacity="1" stroke-width="1" stroke-linecap="round" stroke-linejoin="round" transform="matrix(0.999973,0,0,-0.999973,28262,36478.4)"
font-family="MS Shell Dlg 2" font-size="10.3125" font-weight="400" font-style="normal" 
>
<path vector-effect="non-scaling-stroke" fill-rule="evenodd" d="M-28262.3,36477.9 L-27048.7,36425.9 L15574.3,34599.2 L16682.8,34551.7 L13015.3,27690.7 L13015.1,27690.7 L12177.4,28138.4 L1067.24,7353.76 L1904.94,6905.98 L1905.01,6905.82 L-977.143,1513.95 L-1456.39,2171.31 L-1728.38,2359 L-2058.04,2336.04 L-2301.37,2112.46 L-2582.29,1586.92 L-2749.02,1483 L-6987.33,7296.42 L-6987.29,7296.61 L-6219.76,7856.18 L-22220,29802.7 L-22987.6,29243.2 L-22987.8,29243.2 L-28262.3,36477.9"/>
</g>

<g fill="none" stroke="#000000" stroke-opacity="1" stroke-width="1" stroke-linecap="square" stroke-linejoin="bevel" transform="matrix(0.999973,0,0,-0.999973,28262,36478.4)"
font-family="MS Shell Dlg 2" font-size="10.3125" font-weight="400" font-style="normal" 
>
</g>

<g fill="none" stroke="#000000" stroke-opacity="1" stroke-width="1" stroke-linecap="square" stroke-linejoin="bevel" transform="matrix(0.999973,0,0,-0.999973,28262,36478.4)"
font-family="MS Shell Dlg 2" font-size="10.3125" font-weight="400" font-style="normal" 
>
</g>

<g fill="#ffff00" fill-opacity="0.2" stroke="#333333" stroke-opacity="1" stroke-width="1" stroke-linecap="round" stroke-linejoin="round" transform="matrix(0.999973,0,0,-0.999973,28262,36478.4)"
font-family="MS Shell Dlg 2" font-size="10.3125" font-weight="400" font-style="normal" 
>
<path vector-effect="non-scaling-stroke" fill-rule="evenodd" d="M-28198.4,36475.2 L-27048.7,36425.9 L-26984.8,36423.2 L15574.3,34599.2 L15629.7,34596.9 L16627.3,34554.1 L9255.49,20763 L8461.77,21187.3 L4782.9,14304.9 L5576.62,13880.6 L-1009.85,1558.82 L-1456.39,2171.31 L-1728.38,2359 L-2058.04,2336.04 L-2301.37,2112.46 L-2582.29,1586.92 L-2706.48,1509.52 L-12298.1,14665.7 L-11570.8,15195.9 L-16868.9,22463 L-17596.2,21932.8 L-28198.4,36475.2"/>
</g>

<g fill="none" stroke="#000000" stroke-opacity="1" stroke-width="1" stroke-linecap="square" stroke-linejoin="bevel" transform="matrix(0.999973,0,0,-0.999973,28262,36478.4)"
font-family="MS Shell Dlg 2" font-size="10.3125" font-weight="400" font-style="normal" 
>
</g>

<g fill="none" stroke="#000000" stroke-opacity="1" stroke-width="1" stroke-linecap="square" stroke-linejoin="bevel" transform="matrix(0.999973,0,0,-0.999973,28262,36478.4)"
font-family="MS Shell Dlg 2" font-size="10.3125" font-weight="400" font-style="normal" 
>
</g>

<g fill="#ae5151" fill-opacity="0.2" stroke="#333333" stroke-opacity="1" stroke-width="1" stroke-linecap="round" stroke-linejoin="round" transform="matrix(0.999973,0,0,-0.999973,28262,36478.4)"
font-family="MS Shell Dlg 2" font-size="10.3125" font-weight="400" font-style="normal" 
>
<path vector-effect="non-scaling-stroke" fill-rule="evenodd" d="M-7040.28,7369.28 L-7040.46,7369.3 L-12338.4,14636.2 L-12338.4,14636.3 L-11570.8,15195.9 L-16868.9,22463 L-17636.5,21903.4 L-17636.7,21903.4 L-22934.6,29170.3 L-22934.6,29170.5 L-22167,29730.1 L-27048.7,36425.9 L15629.7,34596.9 L12140.6,28069.6 L12978.3,27621.8 L12978.4,27621.7 L9299.63,20739.5 L9299.46,20739.5 L8461.77,21187.3 L4782.9,14304.9 L5620.59,13857.1 L5620.66,13857 L1941.9,6974.83 L1941.72,6974.8 L1104.03,7422.58 L-1636.52,2295.61 L-1728.38,2359 L-2058.04,2336.04 L-2140.22,2260.53 L-6272.74,7928.85 L-7040.28,7369.28"/>
</g>

<g fill="none" stroke="#000000" stroke-opacity="1" stroke-width="1" stroke-linecap="square" stroke-linejoin="bevel" transform="matrix(0.999973,0,0,-0.999973,28262,36478.4)"
font-family="MS Shell Dlg 2" font-size="10.3125" font-weight="400" font-style="normal" 
>
</g>

<g fill="none" stroke="#000000" stroke-opacity="1" stroke-width="1" stroke-linecap="square" stroke-linejoin="bevel" transform="matrix(0.999973,0,0,-0.999973,28262,36478.4)"
font-family="MS Shell Dlg 2" font-size="10.3125" font-weight="400" font-style="normal" 
>
</g>

<g fill="#333333" fill-opacity="0.2" stroke="#333333" stroke-opacity="1" stroke-width="1" stroke-linecap="round" stroke-linejoin="round" transform="matrix(0.999973,0,0,-0.999973,28262,36478.4)"
font-family="MS Shell Dlg 2" font-size="10.3125" font-weight="400" font-style="normal" 
>
<path vector-effect="non-scaling-stroke" fill-rule="evenodd" d="M-7040.28,7369.28 L-7040.46,7369.3 L-12338.4,14636.2 L-12338.4,14636.3 L-11570.8,15195.9 L-16868.9,22463 L-17636.5,21903.4 L-17636.7,21903.4 L-22934.6,29170.3 L-22934.6,29170.5 L-22167,29730.1 L-27048.7,36425.9 L15629.7,34596.9 L12140.6,28069.6 L12978.3,27621.8 L12978.4,27621.7 L9299.63,20739.5 L9299.46,20739.5 L8461.77,21187.3 L4782.9,14304.9 L5620.59,13857.1 L5620.66,13857 L1941.9,6974.83 L1941.72,6974.8 L1104.03,7422.58 L-1636.52,2295.61 L-1728.38,2359 L-2058.04,2336.04 L-2140.22,2260.53 L-6272.74,7928.85 L-7040.28,7369.28"/>
</g>

<g fill="none" stroke="#000000" stroke-opacity="1" stroke-width="1" stroke-linecap="square" stroke-linejoin="bevel" transform="matrix(0.999973,0,0,-0.999973,28262,36478.4)"
font-family="MS Shell Dlg 2" font-size="10.3125" font-weight="400" font-style="normal" 
>
</g>

<g fill="none" stroke="#000000" stroke-opacity="1" stroke-width="1" stroke-linecap="square" stroke-linejoin="bevel" transform="matrix(1,0,0,-1,0,34996)"
font-family="MS Shell Dlg 2" font-size="10.3125" font-weight="400" font-style="normal" 
>
</g>
</g>
</svg>
