<?xml version="1.0" encoding="UTF-8" standalone="no"?>
<svg width="18948.1mm" height="19257.7mm"
 xmlns="http://www.w3.org/2000/svg" xmlns:xlink="http://www.w3.org/1999/xlink"  version="1.2" baseProfile="tiny">
<title>SVG Generator Example Drawing</title>
<desc>An SVG drawing created by the SVG Generator</desc>
<defs>
</defs>
<g fill="none" stroke="black" stroke-width="1" fill-rule="evenodd" stroke-linecap="square" stroke-linejoin="bevel" >

<g fill="none" stroke="#000000" stroke-opacity="1" stroke-width="1" stroke-linecap="square" stroke-linejoin="bevel" transform="matrix(1,0,0,-1,0,68236.5)"
font-family="MS Shell Dlg 2" font-size="10.3125" font-weight="400" font-style="normal" 
>
</g>

<g fill="none" stroke="#000000" stroke-opacity="1" stroke-width="1" stroke-linecap="square" stroke-linejoin="bevel" transform="matrix(1,0,0,-1,0,68236.5)"
font-family="MS Shell Dlg 2" font-size="10.3125" font-weight="400" font-style="normal" 
>
</g>

<g fill="none" stroke="#000000" stroke-opacity="1" stroke-width="1" stroke-linecap="square" stroke-linejoin="bevel" transform="matrix(0.999993,0,0,-0.999993,44827.9,36478.7)"
font-family="MS Shell Dlg 2" font-size="10.3125" font-weight="400" font-style="normal" 
>
</g>

<g fill="#333333" fill-opacity="0.2" stroke="#333333" stroke-opacity="1" stroke-width="1" stroke-linecap="round" stroke-linejoin="round" transform="matrix(0.999993,0,0,-0.999993,44827.9,36478.7)"
font-family="MS Shell Dlg 2" font-size="10.3125" font-weight="400" font-style="normal" 
>
<path vector-effect="non-scaling-stroke" fill-rule="evenodd" d="M-28262.3,36477.9 L-27048.7,36425.9 L15574.3,34599.2 L16682.8,34551.7 L13015.3,27690.7 L13015.1,27690.7 L12177.4,28138.4 L1067.24,7353.76 L1904.94,6905.98 L1905.01,6905.82 L-977.143,1513.95 L-1456.39,2171.31 L-1728.38,2359 L-2058.04,2336.04 L-2301.37,2112.46 L-2582.29,1586.92 L-2749.02,1483 L-6987.33,7296.42 L-6987.29,7296.61 L-6219.76,7856.18 L-22220,29802.7 L-22987.6,29243.2 L-22987.8,29243.2 L-28262.3,36477.9"/>
</g>

<g fill="none" stroke="#000000" stroke-opacity="1" stroke-width="1" stroke-linecap="square" stroke-linejoin="bevel" transform="matrix(0.999993,0,0,-0.999993,44827.9,36478.7)"
font-family="MS Shell Dlg 2" font-size="10.3125" font-weight="400" font-style="normal" 
>
</g>

<g fill="none" stroke="#000000" stroke-opacity="1" stroke-width="1" stroke-linecap="square" stroke-linejoin="bevel" transform="matrix(0.999993,0,0,-0.999993,44827.9,36478.7)"
font-family="MS Shell Dlg 2" font-size="10.3125" font-weight="400" font-style="normal" 
>
</g>

<g fill="#333333" fill-opacity="0.2" stroke="#333333" stroke-opacity="1" stroke-width="1" stroke-linecap="round" stroke-linejoin="round" transform="matrix(0.999993,0,0,-0.999993,44827.9,36478.7)"
font-family="MS Shell Dlg 2" font-size="10.3125" font-weight="400" font-style="normal" 
>
<path vector-effect="non-scaling-stroke" fill-rule="evenodd" d="M3596.99,-31757.5 L2626.58,-31716.8 L-25782.5,-30524.8 L-26975.8,-30474.7 L-21958.6,-24434 L-21958.4,-24434 L-21227.7,-25040.9 L-6002.06,-6709.06 L-6732.75,-6102.18 L-6732.79,-6102 L-2994.03,-1600.51 L-2974.32,-1634.37 L-2845.03,-2397.9 L-2831.44,-2420.96 L-2840.14,-2422.89 L-2758.53,-2544.71 L-2663.94,-2705.23 L-2647.45,-2710.49 L-2638.01,-2724.58 L-2494.6,-2759.25 L-2324.11,-2813.65 L-2304.99,-2805.1 L-2285.04,-2809.92 L-2156.36,-2738.6 L-1998.49,-2667.98 L-2009.35,-2657.13 L-1967.41,-2633.89 L-1441.62,-2000.84 L-707.752,-6334.88 L-707.877,-6335 L-1644.4,-6493.58 L1590.83,-25600 L2527.36,-25441.4 L2527.52,-25441.5 L3596.99,-31757.5"/>
</g>

<g fill="none" stroke="#000000" stroke-opacity="1" stroke-width="1" stroke-linecap="square" stroke-linejoin="bevel" transform="matrix(0.999993,0,0,-0.999993,44827.9,36478.7)"
font-family="MS Shell Dlg 2" font-size="10.3125" font-weight="400" font-style="normal" 
>
</g>

<g fill="none" stroke="#000000" stroke-opacity="1" stroke-width="1" stroke-linecap="square" stroke-linejoin="bevel" transform="matrix(0.999993,0,0,-0.999993,44827.9,36478.7)"
font-family="MS Shell Dlg 2" font-size="10.3125" font-weight="400" font-style="normal" 
>
</g>

<g fill="#333333" fill-opacity="0.2" stroke="#333333" stroke-opacity="1" stroke-width="1" stroke-linecap="round" stroke-linejoin="round" transform="matrix(0.999993,0,0,-0.999993,44827.9,36478.7)"
font-family="MS Shell Dlg 2" font-size="10.3125" font-weight="400" font-style="normal" 
>
<path vector-effect="non-scaling-stroke" fill-rule="evenodd" d="M-48.9477,-941.43 L3037.23,-2566.31 L3037.23,-2566.47 L2594.72,-3406.95 L17061.4,-11023.7 L17503.9,-10183.2 L17504.1,-10183.1 L22281.1,-12698.3 L21551.8,-13444.4 L4512.56,-30875.3 L3552.05,-25202.8 L2615.52,-25361.4 L2615.37,-25361.3 L1544.13,-19034.9 L1544.25,-19034.8 L2480.78,-18876.2 L1409.51,-12549.6 L472.982,-12708.1 L472.827,-12708.1 L-598.413,-6381.63 L-598.288,-6381.52 L338.239,-6222.94 L-325.106,-2305.41 L-279.298,-2310.66 L13.9415,-2098.22 L86.8706,-1743.54 L-48.9477,-941.43"/>
</g>

<g fill="none" stroke="#000000" stroke-opacity="1" stroke-width="1" stroke-linecap="square" stroke-linejoin="bevel" transform="matrix(0.999993,0,0,-0.999993,44827.9,36478.7)"
font-family="MS Shell Dlg 2" font-size="10.3125" font-weight="400" font-style="normal" 
>
</g>

<g fill="none" stroke="#000000" stroke-opacity="1" stroke-width="1" stroke-linecap="square" stroke-linejoin="bevel" transform="matrix(0.999993,0,0,-0.999993,44827.9,36478.7)"
font-family="MS Shell Dlg 2" font-size="10.3125" font-weight="400" font-style="normal" 
>
</g>

<g fill="#333333" fill-opacity="0.2" stroke="#333333" stroke-opacity="1" stroke-width="1" stroke-linecap="round" stroke-linejoin="round" transform="matrix(0.999993,0,0,-0.999993,44827.9,36478.7)"
font-family="MS Shell Dlg 2" font-size="10.3125" font-weight="400" font-style="normal" 
>
<path vector-effect="non-scaling-stroke" fill-rule="evenodd" d="M-4239.04,-1456.12 L-7591.01,-5491.92 L-6860.31,-6098.8 L-6860.28,-6098.98 L-11901.8,-12168.9 L-11901.9,-12168.9 L-12632.6,-11562.1 L-17674.2,-17632.2 L-16943.5,-18239.1 L-16943.5,-18239.3 L-21985,-24309.2 L-21985.2,-24309.2 L-22715.9,-23702.3 L-27591.6,-29572.7 L-44217.4,-2530.75 L-44819.7,-1551.13 L-36258.5,-1252.89 L-36258.4,-1253.02 L-36225.3,-2202.31 L-10284.6,-1298.63 L-10317.6,-349.343 L-10317.5,-349.198 L-3780.5,-121.472 L-4308.84,-757.592 L-4422.87,-1113.59 L-4258.17,-1449.17 L-4239.04,-1456.12"/>
</g>

<g fill="none" stroke="#000000" stroke-opacity="1" stroke-width="1" stroke-linecap="square" stroke-linejoin="bevel" transform="matrix(0.999993,0,0,-0.999993,44827.9,36478.7)"
font-family="MS Shell Dlg 2" font-size="10.3125" font-weight="400" font-style="normal" 
>
</g>

<g fill="none" stroke="#000000" stroke-opacity="1" stroke-width="1" stroke-linecap="square" stroke-linejoin="bevel" transform="matrix(0.999993,0,0,-0.999993,44827.9,36478.7)"
font-family="MS Shell Dlg 2" font-size="10.3125" font-weight="400" font-style="normal" 
>
</g>

<g fill="#333333" fill-opacity="0.2" stroke="#333333" stroke-opacity="1" stroke-width="1" stroke-linecap="round" stroke-linejoin="round" transform="matrix(0.999993,0,0,-0.999993,44827.9,36478.7)"
font-family="MS Shell Dlg 2" font-size="10.3125" font-weight="400" font-style="normal" 
>
<path vector-effect="non-scaling-stroke" fill-rule="evenodd" d="M-17717.5,21844.5 L-17717.5,21844.3 L-18485,21284.8 L-13186.9,14017.7 L-12419.4,14577.3 L-12419.2,14577.3 L-7121.27,7310.39 L-7121.31,7310.2 L-7888.84,6750.63 L-3931.34,1322.37 L-3991.33,1297.3 L-4145.92,979.723 L-4128.64,917.037 L-10440.1,697.169 L-10407,-252.114 L-10407.1,-252.259 L-18996.5,-551.483 L-18996.7,-551.346 L-19029.7,397.937 L-27619.4,98.7047 L-27586.3,-850.578 L-27586.4,-850.724 L-36175.9,-1149.95 L-36176,-1149.81 L-36209,-200.528 L-44407.8,-486.142 L-28788.7,35417.6 L-23783.1,28551.8 L-23015.6,29111.4 L-23015.4,29111.4 L-17717.5,21844.5"/>
</g>

<g fill="none" stroke="#000000" stroke-opacity="1" stroke-width="1" stroke-linecap="square" stroke-linejoin="bevel" transform="matrix(0.999993,0,0,-0.999993,44827.9,36478.7)"
font-family="MS Shell Dlg 2" font-size="10.3125" font-weight="400" font-style="normal" 
>
</g>

<g fill="none" stroke="#000000" stroke-opacity="1" stroke-width="1" stroke-linecap="square" stroke-linejoin="bevel" transform="matrix(0.999993,0,0,-0.999993,44827.9,36478.7)"
font-family="MS Shell Dlg 2" font-size="10.3125" font-weight="400" font-style="normal" 
>
</g>

<g fill="#333333" fill-opacity="0.2" stroke="#333333" stroke-opacity="1" stroke-width="1" stroke-linecap="round" stroke-linejoin="round" transform="matrix(0.999993,0,0,-0.999993,44827.9,36478.7)"
font-family="MS Shell Dlg 2" font-size="10.3125" font-weight="400" font-style="normal" 
>
<path vector-effect="non-scaling-stroke" fill-rule="evenodd" d="M3131.86,-2503.11 L3131.85,-2502.95 L3574.37,-1662.47 L67.8648,183.709 L104.598,562.677 L-138.319,855.862 L2867.86,6479.75 L2030.17,6927.53 L2030.09,6927.69 L5708.85,13809.8 L5709.03,13809.9 L6546.72,13362.1 L10225.6,20244.4 L9387.9,20692.2 L9387.82,20692.4 L13066.6,27574.5 L13066.8,27574.6 L13904.5,27126.8 L16943.5,32812.2 L22175.2,-11455.8 L17945.3,-9228.77 L17502.8,-10069.3 L17502.6,-10069.3 L12712.5,-7547.32 L12712.5,-7547.15 L13155,-6706.67 L8364.67,-4184.57 L7922.15,-5025.05 L7922.02,-5025.14 L3131.86,-2503.11"/>
</g>

<g fill="none" stroke="#000000" stroke-opacity="1" stroke-width="1" stroke-linecap="square" stroke-linejoin="bevel" transform="matrix(0.999993,0,0,-0.999993,44827.9,36478.7)"
font-family="MS Shell Dlg 2" font-size="10.3125" font-weight="400" font-style="normal" 
>
</g>

<g fill="none" stroke="#000000" stroke-opacity="1" stroke-width="1" stroke-linecap="square" stroke-linejoin="bevel" transform="matrix(0.999993,0,0,-0.999993,44827.9,36478.7)"
font-family="MS Shell Dlg 2" font-size="10.3125" font-weight="400" font-style="normal" 
>
</g>

<g fill="#ae5151" fill-opacity="0.2" stroke="#333333" stroke-opacity="1" stroke-width="1" stroke-linecap="round" stroke-linejoin="round" transform="matrix(0.999993,0,0,-0.999993,44827.9,36478.7)"
font-family="MS Shell Dlg 2" font-size="10.3125" font-weight="400" font-style="normal" 
>
<path vector-effect="non-scaling-stroke" fill-rule="evenodd" d="M-28262.3,36477.9 L-27048.7,36425.9 L15574.3,34599.2 L16682.8,34551.7 L13015.3,27690.7 L13015.1,27690.7 L12177.4,28138.4 L1067.24,7353.76 L1904.94,6905.98 L1905.01,6905.82 L-977.143,1513.95 L-1456.39,2171.31 L-1728.38,2359 L-2058.04,2336.04 L-2301.37,2112.46 L-2582.29,1586.92 L-2749.02,1483 L-6987.33,7296.42 L-6987.29,7296.61 L-6219.76,7856.18 L-22220,29802.7 L-22987.6,29243.2 L-22987.8,29243.2 L-28262.3,36477.9"/>
</g>

<g fill="none" stroke="#000000" stroke-opacity="1" stroke-width="1" stroke-linecap="square" stroke-linejoin="bevel" transform="matrix(0.999993,0,0,-0.999993,44827.9,36478.7)"
font-family="MS Shell Dlg 2" font-size="10.3125" font-weight="400" font-style="normal" 
>
</g>

<g fill="none" stroke="#000000" stroke-opacity="1" stroke-width="1" stroke-linecap="square" stroke-linejoin="bevel" transform="matrix(0.999993,0,0,-0.999993,44827.9,36478.7)"
font-family="MS Shell Dlg 2" font-size="10.3125" font-weight="400" font-style="normal" 
>
</g>

<g fill="#ae5151" fill-opacity="0.2" stroke="#333333" stroke-opacity="1" stroke-width="1" stroke-linecap="round" stroke-linejoin="round" transform="matrix(0.999993,0,0,-0.999993,44827.9,36478.7)"
font-family="MS Shell Dlg 2" font-size="10.3125" font-weight="400" font-style="normal" 
>
<path vector-effect="non-scaling-stroke" fill-rule="evenodd" d="M3596.99,-31757.5 L2626.58,-31716.8 L-25782.5,-30524.8 L-26975.8,-30474.7 L-21958.6,-24434 L-21958.4,-24434 L-21227.7,-25040.9 L-6002.06,-6709.06 L-6732.75,-6102.18 L-6732.79,-6102 L-2994.03,-1600.51 L-2974.32,-1634.37 L-2845.03,-2397.9 L-2831.44,-2420.96 L-2840.14,-2422.89 L-2758.53,-2544.71 L-2663.94,-2705.23 L-2647.45,-2710.49 L-2638.01,-2724.58 L-2494.6,-2759.25 L-2324.11,-2813.65 L-2304.99,-2805.1 L-2285.04,-2809.92 L-2156.36,-2738.6 L-1998.49,-2667.98 L-2009.35,-2657.13 L-1967.41,-2633.89 L-1441.62,-2000.84 L-707.752,-6334.88 L-707.877,-6335 L-1644.4,-6493.58 L1590.83,-25600 L2527.36,-25441.4 L2527.52,-25441.5 L3596.99,-31757.5"/>
</g>

<g fill="none" stroke="#000000" stroke-opacity="1" stroke-width="1" stroke-linecap="square" stroke-linejoin="bevel" transform="matrix(0.999993,0,0,-0.999993,44827.9,36478.7)"
font-family="MS Shell Dlg 2" font-size="10.3125" font-weight="400" font-style="normal" 
>
</g>

<g fill="none" stroke="#000000" stroke-opacity="1" stroke-width="1" stroke-linecap="square" stroke-linejoin="bevel" transform="matrix(0.999993,0,0,-0.999993,44827.9,36478.7)"
font-family="MS Shell Dlg 2" font-size="10.3125" font-weight="400" font-style="normal" 
>
</g>

<g fill="#ae5151" fill-opacity="0.2" stroke="#333333" stroke-opacity="1" stroke-width="1" stroke-linecap="round" stroke-linejoin="round" transform="matrix(0.999993,0,0,-0.999993,44827.9,36478.7)"
font-family="MS Shell Dlg 2" font-size="10.3125" font-weight="400" font-style="normal" 
>
<path vector-effect="non-scaling-stroke" fill-rule="evenodd" d="M-48.9477,-941.43 L3037.23,-2566.31 L3037.23,-2566.47 L2594.72,-3406.95 L17061.4,-11023.7 L17503.9,-10183.2 L17504.1,-10183.1 L22281.1,-12698.3 L21551.8,-13444.4 L4512.56,-30875.3 L3552.05,-25202.8 L2615.52,-25361.4 L2615.37,-25361.3 L1544.13,-19034.9 L1544.25,-19034.8 L2480.78,-18876.2 L1409.51,-12549.6 L472.982,-12708.1 L472.827,-12708.1 L-598.413,-6381.63 L-598.288,-6381.52 L338.239,-6222.94 L-325.106,-2305.41 L-279.298,-2310.66 L13.9415,-2098.22 L86.8706,-1743.54 L-48.9477,-941.43"/>
</g>

<g fill="none" stroke="#000000" stroke-opacity="1" stroke-width="1" stroke-linecap="square" stroke-linejoin="bevel" transform="matrix(0.999993,0,0,-0.999993,44827.9,36478.7)"
font-family="MS Shell Dlg 2" font-size="10.3125" font-weight="400" font-style="normal" 
>
</g>

<g fill="none" stroke="#000000" stroke-opacity="1" stroke-width="1" stroke-linecap="square" stroke-linejoin="bevel" transform="matrix(0.999993,0,0,-0.999993,44827.9,36478.7)"
font-family="MS Shell Dlg 2" font-size="10.3125" font-weight="400" font-style="normal" 
>
</g>

<g fill="#ae5151" fill-opacity="0.2" stroke="#333333" stroke-opacity="1" stroke-width="1" stroke-linecap="round" stroke-linejoin="round" transform="matrix(0.999993,0,0,-0.999993,44827.9,36478.7)"
font-family="MS Shell Dlg 2" font-size="10.3125" font-weight="400" font-style="normal" 
>
<path vector-effect="non-scaling-stroke" fill-rule="evenodd" d="M-4239.04,-1456.12 L-7591.01,-5491.92 L-6860.31,-6098.8 L-6860.28,-6098.98 L-11901.8,-12168.9 L-11901.9,-12168.9 L-12632.6,-11562.1 L-17674.2,-17632.2 L-16943.5,-18239.1 L-16943.5,-18239.3 L-21985,-24309.2 L-21985.2,-24309.2 L-22715.9,-23702.3 L-27591.6,-29572.7 L-44217.4,-2530.75 L-44819.7,-1551.13 L-36258.5,-1252.89 L-36258.4,-1253.02 L-36225.3,-2202.31 L-10284.6,-1298.63 L-10317.6,-349.343 L-10317.5,-349.198 L-3780.5,-121.472 L-4308.84,-757.592 L-4422.87,-1113.59 L-4258.17,-1449.17 L-4239.04,-1456.12"/>
</g>

<g fill="none" stroke="#000000" stroke-opacity="1" stroke-width="1" stroke-linecap="square" stroke-linejoin="bevel" transform="matrix(0.999993,0,0,-0.999993,44827.9,36478.7)"
font-family="MS Shell Dlg 2" font-size="10.3125" font-weight="400" font-style="normal" 
>
</g>

<g fill="none" stroke="#000000" stroke-opacity="1" stroke-width="1" stroke-linecap="square" stroke-linejoin="bevel" transform="matrix(0.999993,0,0,-0.999993,44827.9,36478.7)"
font-family="MS Shell Dlg 2" font-size="10.3125" font-weight="400" font-style="normal" 
>
</g>

<g fill="#ae5151" fill-opacity="0.2" stroke="#333333" stroke-opacity="1" stroke-width="1" stroke-linecap="round" stroke-linejoin="round" transform="matrix(0.999993,0,0,-0.999993,44827.9,36478.7)"
font-family="MS Shell Dlg 2" font-size="10.3125" font-weight="400" font-style="normal" 
>
<path vector-effect="non-scaling-stroke" fill-rule="evenodd" d="M-17717.5,21844.5 L-17717.5,21844.3 L-18485,21284.8 L-13186.9,14017.7 L-12419.4,14577.3 L-12419.2,14577.3 L-7121.27,7310.39 L-7121.31,7310.2 L-7888.84,6750.63 L-3931.34,1322.37 L-3991.33,1297.3 L-4145.92,979.723 L-4128.64,917.037 L-10440.1,697.169 L-10407,-252.114 L-10407.1,-252.259 L-18996.5,-551.483 L-18996.7,-551.346 L-19029.7,397.937 L-27619.4,98.7047 L-27586.3,-850.578 L-27586.4,-850.724 L-36175.9,-1149.95 L-36176,-1149.81 L-36209,-200.528 L-44407.8,-486.142 L-28788.7,35417.6 L-23783.1,28551.8 L-23015.6,29111.4 L-23015.4,29111.4 L-17717.5,21844.5"/>
</g>

<g fill="none" stroke="#000000" stroke-opacity="1" stroke-width="1" stroke-linecap="square" stroke-linejoin="bevel" transform="matrix(0.999993,0,0,-0.999993,44827.9,36478.7)"
font-family="MS Shell Dlg 2" font-size="10.3125" font-weight="400" font-style="normal" 
>
</g>

<g fill="none" stroke="#000000" stroke-opacity="1" stroke-width="1" stroke-linecap="square" stroke-linejoin="bevel" transform="matrix(0.999993,0,0,-0.999993,44827.9,36478.7)"
font-family="MS Shell Dlg 2" font-size="10.3125" font-weight="400" font-style="normal" 
>
</g>

<g fill="#ae5151" fill-opacity="0.2" stroke="#333333" stroke-opacity="1" stroke-width="1" stroke-linecap="round" stroke-linejoin="round" transform="matrix(0.999993,0,0,-0.999993,44827.9,36478.7)"
font-family="MS Shell Dlg 2" font-size="10.3125" font-weight="400" font-style="normal" 
>
<path vector-effect="non-scaling-stroke" fill-rule="evenodd" d="M3131.86,-2503.11 L3131.85,-2502.95 L3574.37,-1662.47 L67.8648,183.709 L104.598,562.677 L-138.319,855.862 L2867.86,6479.75 L2030.17,6927.53 L2030.09,6927.69 L5708.85,13809.8 L5709.03,13809.9 L6546.72,13362.1 L10225.6,20244.4 L9387.9,20692.2 L9387.82,20692.4 L13066.6,27574.5 L13066.8,27574.6 L13904.5,27126.8 L16943.5,32812.2 L22175.2,-11455.8 L17945.3,-9228.77 L17502.8,-10069.3 L17502.6,-10069.3 L12712.5,-7547.32 L12712.5,-7547.15 L13155,-6706.67 L8364.67,-4184.57 L7922.15,-5025.05 L7922.02,-5025.14 L3131.86,-2503.11"/>
</g>

<g fill="none" stroke="#000000" stroke-opacity="1" stroke-width="1" stroke-linecap="square" stroke-linejoin="bevel" transform="matrix(0.999993,0,0,-0.999993,44827.9,36478.7)"
font-family="MS Shell Dlg 2" font-size="10.3125" font-weight="400" font-style="normal" 
>
</g>

<g fill="none" stroke="#000000" stroke-opacity="1" stroke-width="1" stroke-linecap="square" stroke-linejoin="bevel" transform="matrix(0.999993,0,0,-0.999993,44827.9,36478.7)"
font-family="MS Shell Dlg 2" font-size="10.3125" font-weight="400" font-style="normal" 
>
</g>

<g fill="#ffff00" fill-opacity="0.2" stroke="#333333" stroke-opacity="1" stroke-width="1" stroke-linecap="round" stroke-linejoin="round" transform="matrix(0.999993,0,0,-0.999993,44827.9,36478.7)"
font-family="MS Shell Dlg 2" font-size="10.3125" font-weight="400" font-style="normal" 
>
<path vector-effect="non-scaling-stroke" fill-rule="evenodd" d="M-28198.4,36475.2 L-27048.7,36425.9 L-26984.8,36423.2 L15574.3,34599.2 L15629.7,34596.9 L16627.3,34554.1 L9255.49,20763 L8461.77,21187.3 L4782.9,14304.9 L5576.62,13880.6 L-1009.85,1558.82 L-1456.39,2171.31 L-1728.38,2359 L-2058.04,2336.04 L-2301.37,2112.46 L-2582.29,1586.92 L-2706.48,1509.52 L-12298.1,14665.7 L-11570.8,15195.9 L-16868.9,22463 L-17596.2,21932.8 L-28198.4,36475.2"/>
</g>

<g fill="none" stroke="#000000" stroke-opacity="1" stroke-width="1" stroke-linecap="square" stroke-linejoin="bevel" transform="matrix(0.999993,0,0,-0.999993,44827.9,36478.7)"
font-family="MS Shell Dlg 2" font-size="10.3125" font-weight="400" font-style="normal" 
>
</g>

<g fill="none" stroke="#000000" stroke-opacity="1" stroke-width="1" stroke-linecap="square" stroke-linejoin="bevel" transform="matrix(0.999993,0,0,-0.999993,44827.9,36478.7)"
font-family="MS Shell Dlg 2" font-size="10.3125" font-weight="400" font-style="normal" 
>
</g>

<g fill="#ffff00" fill-opacity="0.2" stroke="#333333" stroke-opacity="1" stroke-width="1" stroke-linecap="round" stroke-linejoin="round" transform="matrix(0.999993,0,0,-0.999993,44827.9,36478.7)"
font-family="MS Shell Dlg 2" font-size="10.3125" font-weight="400" font-style="normal" 
>
<path vector-effect="non-scaling-stroke" fill-rule="evenodd" d="M3545.92,-31755.4 L2626.58,-31716.8 L2575.5,-31714.7 L-25719.7,-30527.4 L-25782.5,-30524.8 L-26913,-30477.4 L-16828,-18335 L-16135.7,-18910 L-11094.1,-12839.9 L-11786.4,-12264.9 L-2971.41,-1651.53 L-2845.03,-2397.9 L-2831.44,-2420.96 L-2840.14,-2422.89 L-2758.53,-2544.71 L-2663.94,-2705.23 L-2647.45,-2710.49 L-2638.01,-2724.58 L-2494.6,-2759.25 L-2324.11,-2813.65 L-2304.99,-2805.1 L-2285.04,-2809.92 L-2156.36,-2738.6 L-1998.49,-2667.98 L-2009.35,-2657.13 L-1967.41,-2633.89 L-1483.75,-2051.56 L324.948,-12733.2 L-562.421,-12883.5 L508.85,-19210.1 L1396.22,-19059.8 L3545.92,-31755.4"/>
</g>

<g fill="none" stroke="#000000" stroke-opacity="1" stroke-width="1" stroke-linecap="square" stroke-linejoin="bevel" transform="matrix(0.999993,0,0,-0.999993,44827.9,36478.7)"
font-family="MS Shell Dlg 2" font-size="10.3125" font-weight="400" font-style="normal" 
>
</g>

<g fill="none" stroke="#000000" stroke-opacity="1" stroke-width="1" stroke-linecap="square" stroke-linejoin="bevel" transform="matrix(0.999993,0,0,-0.999993,44827.9,36478.7)"
font-family="MS Shell Dlg 2" font-size="10.3125" font-weight="400" font-style="normal" 
>
</g>

<g fill="#ffff00" fill-opacity="0.2" stroke="#333333" stroke-opacity="1" stroke-width="1" stroke-linecap="round" stroke-linejoin="round" transform="matrix(0.999993,0,0,-0.999993,44827.9,36478.7)"
font-family="MS Shell Dlg 2" font-size="10.3125" font-weight="400" font-style="normal" 
>
<path vector-effect="non-scaling-stroke" fill-rule="evenodd" d="M4555.78,-30831.1 L4512.56,-30875.3 L3734.52,-31671.2 L1593.41,-19026.4 L2480.78,-18876.2 L1409.51,-12549.6 L522.141,-12699.8 L-1301.46,-1930.17 L-1276.58,-1933.78 L-639.05,-2269.44 L-279.298,-2310.66 L13.9415,-2098.22 L86.8706,-1743.54 L-38.443,-1003.47 L7852.21,-5157.91 L7432.92,-5954.27 L12223.2,-8476.37 L12642.5,-7680.01 L22244.7,-12735.6 L21588.2,-13407.1 L21551.8,-13444.4 L4555.78,-30831.1"/>
</g>

<g fill="none" stroke="#000000" stroke-opacity="1" stroke-width="1" stroke-linecap="square" stroke-linejoin="bevel" transform="matrix(0.999993,0,0,-0.999993,44827.9,36478.7)"
font-family="MS Shell Dlg 2" font-size="10.3125" font-weight="400" font-style="normal" 
>
</g>

<g fill="none" stroke="#000000" stroke-opacity="1" stroke-width="1" stroke-linecap="square" stroke-linejoin="bevel" transform="matrix(0.999993,0,0,-0.999993,44827.9,36478.7)"
font-family="MS Shell Dlg 2" font-size="10.3125" font-weight="400" font-style="normal" 
>
</g>

<g fill="#ffff00" fill-opacity="0.2" stroke="#333333" stroke-opacity="1" stroke-width="1" stroke-linecap="round" stroke-linejoin="round" transform="matrix(0.999993,0,0,-0.999993,44827.9,36478.7)"
font-family="MS Shell Dlg 2" font-size="10.3125" font-weight="400" font-style="normal" 
>
<path vector-effect="non-scaling-stroke" fill-rule="evenodd" d="M-27093.9,-30382.2 L-27591.6,-29572.7 L-27619.2,-29527.8 L-44217.4,-2530.75 L-44247.5,-2481.77 L-44789.6,-1600.11 L-27581.1,-1000.63 L-27549.8,-1900.08 L-18960.1,-1600.85 L-18991.4,-701.396 L-3823.29,-172.993 L-4308.84,-757.592 L-4422.87,-1113.59 L-4258.17,-1449.17 L-3906.8,-1576.75 L-3147.32,-1550.29 L-11940.3,-12137.1 L-12632.6,-11562.1 L-17674.2,-17632.2 L-16981.9,-18207.2 L-27093.9,-30382.2"/>
</g>

<g fill="none" stroke="#000000" stroke-opacity="1" stroke-width="1" stroke-linecap="square" stroke-linejoin="bevel" transform="matrix(0.999993,0,0,-0.999993,44827.9,36478.7)"
font-family="MS Shell Dlg 2" font-size="10.3125" font-weight="400" font-style="normal" 
>
</g>

<g fill="none" stroke="#000000" stroke-opacity="1" stroke-width="1" stroke-linecap="square" stroke-linejoin="bevel" transform="matrix(0.999993,0,0,-0.999993,44827.9,36478.7)"
font-family="MS Shell Dlg 2" font-size="10.3125" font-weight="400" font-style="normal" 
>
</g>

<g fill="#ffff00" fill-opacity="0.2" stroke="#333333" stroke-opacity="1" stroke-width="1" stroke-linecap="round" stroke-linejoin="round" transform="matrix(0.999993,0,0,-0.999993,44827.9,36478.7)"
font-family="MS Shell Dlg 2" font-size="10.3125" font-weight="400" font-style="normal" 
>
<path vector-effect="non-scaling-stroke" fill-rule="evenodd" d="M-44805.6,-1400.55 L-44407.8,-486.142 L-44385.7,-435.342 L-28811.8,35364.4 L-28788.7,35417.6 L-28372.4,36374.4 L-17757.8,21815 L-18485,21284.8 L-13186.9,14017.7 L-12459.7,14547.9 L-2917.54,1459.53 L-3665.44,1433.48 L-3991.33,1297.3 L-4145.92,979.723 L-4052.06,639.222 L-3678.94,127.437 L-3658.42,60.9073 L-3669.19,32.4963 L-18998.4,-501.517 L-19029.7,397.937 L-27619.4,98.7047 L-27588.1,-800.75 L-44805.6,-1400.55"/>
</g>

<g fill="none" stroke="#000000" stroke-opacity="1" stroke-width="1" stroke-linecap="square" stroke-linejoin="bevel" transform="matrix(0.999993,0,0,-0.999993,44827.9,36478.7)"
font-family="MS Shell Dlg 2" font-size="10.3125" font-weight="400" font-style="normal" 
>
</g>

<g fill="none" stroke="#000000" stroke-opacity="1" stroke-width="1" stroke-linecap="square" stroke-linejoin="bevel" transform="matrix(0.999993,0,0,-0.999993,44827.9,36478.7)"
font-family="MS Shell Dlg 2" font-size="10.3125" font-weight="400" font-style="normal" 
>
</g>

<g fill="#ffff00" fill-opacity="0.2" stroke="#333333" stroke-opacity="1" stroke-width="1" stroke-linecap="round" stroke-linejoin="round" transform="matrix(0.999993,0,0,-0.999993,44827.9,36478.7)"
font-family="MS Shell Dlg 2" font-size="10.3125" font-weight="400" font-style="normal" 
>
<path vector-effect="non-scaling-stroke" fill-rule="evenodd" d="M16758.7,34375.6 L16943.5,32812.2 L16953.8,32725.3 L22168.1,-11395.6 L22175.2,-11455.8 L22303.4,-12540.4 L12735.7,-7503.04 L13155,-6706.67 L8364.67,-4184.57 L7945.38,-4980.94 L-80.4616,-755.318 L-151.305,-336.934 L-126.01,-181.749 L67.538,180.338 L104.598,562.677 L-140.48,858.47 L-672.095,1138.37 L-756.516,1211.33 L-879.009,1379.34 L5753,13786.4 L6546.72,13362.1 L10225.6,20244.4 L9431.87,20668.7 L16758.7,34375.6"/>
</g>

<g fill="none" stroke="#000000" stroke-opacity="1" stroke-width="1" stroke-linecap="square" stroke-linejoin="bevel" transform="matrix(0.999993,0,0,-0.999993,44827.9,36478.7)"
font-family="MS Shell Dlg 2" font-size="10.3125" font-weight="400" font-style="normal" 
>
</g>

<g fill="none" stroke="#000000" stroke-opacity="1" stroke-width="1" stroke-linecap="square" stroke-linejoin="bevel" transform="matrix(0.999993,0,0,-0.999993,44827.9,36478.7)"
font-family="MS Shell Dlg 2" font-size="10.3125" font-weight="400" font-style="normal" 
>
</g>

<g fill="#ae5151" fill-opacity="0.2" stroke="#333333" stroke-opacity="1" stroke-width="1" stroke-linecap="round" stroke-linejoin="round" transform="matrix(0.999993,0,0,-0.999993,44827.9,36478.7)"
font-family="MS Shell Dlg 2" font-size="10.3125" font-weight="400" font-style="normal" 
>
<path vector-effect="non-scaling-stroke" fill-rule="evenodd" d="M-7040.28,7369.28 L-7040.46,7369.3 L-12338.4,14636.2 L-12338.4,14636.3 L-11570.8,15195.9 L-16868.9,22463 L-17636.5,21903.4 L-17636.7,21903.4 L-22934.6,29170.3 L-22934.6,29170.5 L-22167,29730.1 L-27048.7,36425.9 L15629.7,34596.9 L12140.6,28069.6 L12978.3,27621.8 L12978.4,27621.7 L9299.63,20739.5 L9299.46,20739.5 L8461.77,21187.3 L4782.9,14304.9 L5620.59,13857.1 L5620.66,13857 L1941.9,6974.83 L1941.72,6974.8 L1104.03,7422.58 L-1636.52,2295.61 L-1728.38,2359 L-2058.04,2336.04 L-2140.22,2260.53 L-6272.74,7928.85 L-7040.28,7369.28"/>
</g>

<g fill="none" stroke="#000000" stroke-opacity="1" stroke-width="1" stroke-linecap="square" stroke-linejoin="bevel" transform="matrix(0.999993,0,0,-0.999993,44827.9,36478.7)"
font-family="MS Shell Dlg 2" font-size="10.3125" font-weight="400" font-style="normal" 
>
</g>

<g fill="none" stroke="#000000" stroke-opacity="1" stroke-width="1" stroke-linecap="square" stroke-linejoin="bevel" transform="matrix(0.999993,0,0,-0.999993,44827.9,36478.7)"
font-family="MS Shell Dlg 2" font-size="10.3125" font-weight="400" font-style="normal" 
>
</g>

<g fill="#ae5151" fill-opacity="0.2" stroke="#333333" stroke-opacity="1" stroke-width="1" stroke-linecap="round" stroke-linejoin="round" transform="matrix(0.999993,0,0,-0.999993,44827.9,36478.7)"
font-family="MS Shell Dlg 2" font-size="10.3125" font-weight="400" font-style="normal" 
>
<path vector-effect="non-scaling-stroke" fill-rule="evenodd" d="M1445.38,-19051.5 L1445.53,-19051.6 L2516.77,-25378 L2516.65,-25378.1 L1580.12,-25536.7 L2626.58,-31716.8 L-25782.5,-30524.8 L-21177.3,-24980.2 L-21908,-24373.3 L-21908.1,-24373.1 L-16866.6,-18303.2 L-16866.4,-18303.2 L-16135.7,-18910 L-11094.1,-12839.9 L-11824.8,-12233 L-11824.8,-12232.8 L-6783.35,-6162.87 L-6783.17,-6162.88 L-6052.47,-6769.77 L-2669.21,-2696.29 L-2663.94,-2705.23 L-2647.45,-2710.49 L-2638.01,-2724.58 L-2494.6,-2759.25 L-2324.11,-2813.65 L-2304.99,-2805.1 L-2285.04,-2809.92 L-2269.6,-2801.36 L-1633.69,-6556.84 L-697.164,-6398.26 L-697.009,-6398.33 L374.231,-12724.8 L374.107,-12724.9 L-562.421,-12883.5 L508.85,-19210.1 L1445.38,-19051.5"/>
</g>

<g fill="none" stroke="#000000" stroke-opacity="1" stroke-width="1" stroke-linecap="square" stroke-linejoin="bevel" transform="matrix(0.999993,0,0,-0.999993,44827.9,36478.7)"
font-family="MS Shell Dlg 2" font-size="10.3125" font-weight="400" font-style="normal" 
>
</g>

<g fill="none" stroke="#000000" stroke-opacity="1" stroke-width="1" stroke-linecap="square" stroke-linejoin="bevel" transform="matrix(0.999993,0,0,-0.999993,44827.9,36478.7)"
font-family="MS Shell Dlg 2" font-size="10.3125" font-weight="400" font-style="normal" 
>
</g>

<g fill="#ae5151" fill-opacity="0.2" stroke="#333333" stroke-opacity="1" stroke-width="1" stroke-linecap="round" stroke-linejoin="round" transform="matrix(0.999993,0,0,-0.999993,44827.9,36478.7)"
font-family="MS Shell Dlg 2" font-size="10.3125" font-weight="400" font-style="normal" 
>
<path vector-effect="non-scaling-stroke" fill-rule="evenodd" d="M4555.78,-30831.1 L4512.56,-30875.3 L3691.29,-31715.4 L2626.11,-25424.8 L2626.24,-25424.7 L3562.76,-25266.1 L327.526,-6159.67 L-609.001,-6318.25 L-609.156,-6318.19 L-1352.68,-1927.16 L-1346.71,-1923.6 L-1276.58,-1933.78 L-639.05,-2269.44 L-279.298,-2310.66 L13.9415,-2098.22 L23.2276,-2053.06 L2642.62,-3432.17 L3085.13,-2591.69 L3085.27,-2591.6 L7875.43,-5113.63 L7875.43,-5113.79 L7432.92,-5954.27 L12223.2,-8476.37 L12665.7,-7635.89 L12665.9,-7635.8 L17456,-10157.8 L17456,-10158 L17013.5,-10998.5 L21588.2,-13407.1 L4555.78,-30831.1"/>
</g>

<g fill="none" stroke="#000000" stroke-opacity="1" stroke-width="1" stroke-linecap="square" stroke-linejoin="bevel" transform="matrix(0.999993,0,0,-0.999993,44827.9,36478.7)"
font-family="MS Shell Dlg 2" font-size="10.3125" font-weight="400" font-style="normal" 
>
</g>

<g fill="none" stroke="#000000" stroke-opacity="1" stroke-width="1" stroke-linecap="square" stroke-linejoin="bevel" transform="matrix(0.999993,0,0,-0.999993,44827.9,36478.7)"
font-family="MS Shell Dlg 2" font-size="10.3125" font-weight="400" font-style="normal" 
>
</g>

<g fill="#ae5151" fill-opacity="0.2" stroke="#333333" stroke-opacity="1" stroke-width="1" stroke-linecap="round" stroke-linejoin="round" transform="matrix(0.999993,0,0,-0.999993,44827.9,36478.7)"
font-family="MS Shell Dlg 2" font-size="10.3125" font-weight="400" font-style="normal" 
>
<path vector-effect="non-scaling-stroke" fill-rule="evenodd" d="M-27066.3,-30427.1 L-27591.6,-29572.7 L-27619.2,-29527.8 L-44247.5,-2481.77 L-36139.4,-2199.32 L-36172.5,-1250.03 L-36172.4,-1249.89 L-27583,-950.663 L-27582.8,-950.8 L-27549.8,-1900.08 L-18960.1,-1600.85 L-18993.2,-651.568 L-18993.1,-651.422 L-10403.6,-352.199 L-10403.5,-352.336 L-10370.4,-1301.62 L-4416.66,-1094.21 L-4422.87,-1113.59 L-4258.17,-1449.17 L-3906.8,-1576.75 L-3080.38,-1547.96 L-6809.72,-6038.11 L-6809.9,-6038.1 L-7540.6,-5431.22 L-22766.3,-23763 L-22035.6,-24369.9 L-22035.5,-24370.1 L-27066.3,-30427.1"/>
</g>

<g fill="none" stroke="#000000" stroke-opacity="1" stroke-width="1" stroke-linecap="square" stroke-linejoin="bevel" transform="matrix(0.999993,0,0,-0.999993,44827.9,36478.7)"
font-family="MS Shell Dlg 2" font-size="10.3125" font-weight="400" font-style="normal" 
>
</g>

<g fill="none" stroke="#000000" stroke-opacity="1" stroke-width="1" stroke-linecap="square" stroke-linejoin="bevel" transform="matrix(0.999993,0,0,-0.999993,44827.9,36478.7)"
font-family="MS Shell Dlg 2" font-size="10.3125" font-weight="400" font-style="normal" 
>
</g>

<g fill="#ae5151" fill-opacity="0.2" stroke="#333333" stroke-opacity="1" stroke-width="1" stroke-linecap="round" stroke-linejoin="round" transform="matrix(0.999993,0,0,-0.999993,44827.9,36478.7)"
font-family="MS Shell Dlg 2" font-size="10.3125" font-weight="400" font-style="normal" 
>
<path vector-effect="non-scaling-stroke" fill-rule="evenodd" d="M-3694.92,-18.4304 L-10321,-249.258 L-10321.1,-249.121 L-10354.2,700.162 L-36294.9,-203.52 L-36261.9,-1152.8 L-36262,-1152.95 L-44827.7,-1451.35 L-44407.8,-486.142 L-44385.7,-435.342 L-28811.8,35364.4 L-28788.7,35417.6 L-28349.3,36427.5 L-23068.6,29184.3 L-23068.6,29184.1 L-23836.1,28624.5 L-7835.86,6677.96 L-7068.33,7237.53 L-7068.14,7237.51 L-2857.2,1461.63 L-3665.44,1433.48 L-3991.33,1297.3 L-4145.92,979.723 L-4052.06,639.222 L-3678.94,127.437 L-3658.42,60.9073 L-3683.1,-4.19547 L-3694.92,-18.4304"/>
</g>

<g fill="none" stroke="#000000" stroke-opacity="1" stroke-width="1" stroke-linecap="square" stroke-linejoin="bevel" transform="matrix(0.999993,0,0,-0.999993,44827.9,36478.7)"
font-family="MS Shell Dlg 2" font-size="10.3125" font-weight="400" font-style="normal" 
>
</g>

<g fill="none" stroke="#000000" stroke-opacity="1" stroke-width="1" stroke-linecap="square" stroke-linejoin="bevel" transform="matrix(0.999993,0,0,-0.999993,44827.9,36478.7)"
font-family="MS Shell Dlg 2" font-size="10.3125" font-weight="400" font-style="normal" 
>
</g>

<g fill="#ae5151" fill-opacity="0.2" stroke="#333333" stroke-opacity="1" stroke-width="1" stroke-linecap="round" stroke-linejoin="round" transform="matrix(0.999993,0,0,-0.999993,44827.9,36478.7)"
font-family="MS Shell Dlg 2" font-size="10.3125" font-weight="400" font-style="normal" 
>
<path vector-effect="non-scaling-stroke" fill-rule="evenodd" d="M-911.72,1424.21 L1993.2,6858.67 L1993.38,6858.7 L2831.07,6410.93 L13941.2,27195.6 L13103.6,27643.4 L13103.5,27643.5 L16748.5,34462.5 L16943.5,32812.2 L16953.8,32725.3 L22168.1,-11395.6 L22175.2,-11455.8 L22310.5,-12600.7 L17550.7,-10094.6 L17550.7,-10094.5 L17993.2,-9253.99 L3526.47,-1637.25 L3083.95,-2477.73 L3083.82,-2477.82 L-69.9569,-817.356 L-151.305,-336.934 L-126.01,-181.749 L67.538,180.338 L104.598,562.677 L-140.48,858.47 L-672.095,1138.37 L-756.516,1211.33 L-911.72,1424.21"/>
</g>

<g fill="none" stroke="#000000" stroke-opacity="1" stroke-width="1" stroke-linecap="square" stroke-linejoin="bevel" transform="matrix(0.999993,0,0,-0.999993,44827.9,36478.7)"
font-family="MS Shell Dlg 2" font-size="10.3125" font-weight="400" font-style="normal" 
>
</g>

<g fill="none" stroke="#000000" stroke-opacity="1" stroke-width="1" stroke-linecap="square" stroke-linejoin="bevel" transform="matrix(0.999993,0,0,-0.999993,44827.9,36478.7)"
font-family="MS Shell Dlg 2" font-size="10.3125" font-weight="400" font-style="normal" 
>
</g>

<g fill="#333333" fill-opacity="0.2" stroke="#333333" stroke-opacity="1" stroke-width="1" stroke-linecap="round" stroke-linejoin="round" transform="matrix(0.999993,0,0,-0.999993,44827.9,36478.7)"
font-family="MS Shell Dlg 2" font-size="10.3125" font-weight="400" font-style="normal" 
>
<path vector-effect="non-scaling-stroke" fill-rule="evenodd" d="M-7040.28,7369.28 L-7040.46,7369.3 L-12338.4,14636.2 L-12338.4,14636.3 L-11570.8,15195.9 L-16868.9,22463 L-17636.5,21903.4 L-17636.7,21903.4 L-22934.6,29170.3 L-22934.6,29170.5 L-22167,29730.1 L-27048.7,36425.9 L15629.7,34596.9 L12140.6,28069.6 L12978.3,27621.8 L12978.4,27621.7 L9299.63,20739.5 L9299.46,20739.5 L8461.77,21187.3 L4782.9,14304.9 L5620.59,13857.1 L5620.66,13857 L1941.9,6974.83 L1941.72,6974.8 L1104.03,7422.58 L-1636.52,2295.61 L-1728.38,2359 L-2058.04,2336.04 L-2140.22,2260.53 L-6272.74,7928.85 L-7040.28,7369.28"/>
</g>

<g fill="none" stroke="#000000" stroke-opacity="1" stroke-width="1" stroke-linecap="square" stroke-linejoin="bevel" transform="matrix(0.999993,0,0,-0.999993,44827.9,36478.7)"
font-family="MS Shell Dlg 2" font-size="10.3125" font-weight="400" font-style="normal" 
>
</g>

<g fill="none" stroke="#000000" stroke-opacity="1" stroke-width="1" stroke-linecap="square" stroke-linejoin="bevel" transform="matrix(0.999993,0,0,-0.999993,44827.9,36478.7)"
font-family="MS Shell Dlg 2" font-size="10.3125" font-weight="400" font-style="normal" 
>
</g>

<g fill="#333333" fill-opacity="0.2" stroke="#333333" stroke-opacity="1" stroke-width="1" stroke-linecap="round" stroke-linejoin="round" transform="matrix(0.999993,0,0,-0.999993,44827.9,36478.7)"
font-family="MS Shell Dlg 2" font-size="10.3125" font-weight="400" font-style="normal" 
>
<path vector-effect="non-scaling-stroke" fill-rule="evenodd" d="M1445.38,-19051.5 L1445.53,-19051.6 L2516.77,-25378 L2516.65,-25378.1 L1580.12,-25536.7 L2626.58,-31716.8 L-25782.5,-30524.8 L-21177.3,-24980.2 L-21908,-24373.3 L-21908.1,-24373.1 L-16866.6,-18303.2 L-16866.4,-18303.2 L-16135.7,-18910 L-11094.1,-12839.9 L-11824.8,-12233 L-11824.8,-12232.8 L-6783.35,-6162.87 L-6783.17,-6162.88 L-6052.47,-6769.77 L-2669.21,-2696.29 L-2663.94,-2705.23 L-2647.45,-2710.49 L-2638.01,-2724.58 L-2494.6,-2759.25 L-2324.11,-2813.65 L-2304.99,-2805.1 L-2285.04,-2809.92 L-2269.6,-2801.36 L-1633.69,-6556.84 L-697.164,-6398.26 L-697.009,-6398.33 L374.231,-12724.8 L374.107,-12724.9 L-562.421,-12883.5 L508.85,-19210.1 L1445.38,-19051.5"/>
</g>

<g fill="none" stroke="#000000" stroke-opacity="1" stroke-width="1" stroke-linecap="square" stroke-linejoin="bevel" transform="matrix(0.999993,0,0,-0.999993,44827.9,36478.7)"
font-family="MS Shell Dlg 2" font-size="10.3125" font-weight="400" font-style="normal" 
>
</g>

<g fill="none" stroke="#000000" stroke-opacity="1" stroke-width="1" stroke-linecap="square" stroke-linejoin="bevel" transform="matrix(0.999993,0,0,-0.999993,44827.9,36478.7)"
font-family="MS Shell Dlg 2" font-size="10.3125" font-weight="400" font-style="normal" 
>
</g>

<g fill="#333333" fill-opacity="0.2" stroke="#333333" stroke-opacity="1" stroke-width="1" stroke-linecap="round" stroke-linejoin="round" transform="matrix(0.999993,0,0,-0.999993,44827.9,36478.7)"
font-family="MS Shell Dlg 2" font-size="10.3125" font-weight="400" font-style="normal" 
>
<path vector-effect="non-scaling-stroke" fill-rule="evenodd" d="M4555.78,-30831.1 L4512.56,-30875.3 L3691.29,-31715.4 L2626.11,-25424.8 L2626.24,-25424.7 L3562.76,-25266.1 L327.526,-6159.67 L-609.001,-6318.25 L-609.156,-6318.19 L-1352.68,-1927.16 L-1346.71,-1923.6 L-1276.58,-1933.78 L-639.05,-2269.44 L-279.298,-2310.66 L13.9415,-2098.22 L23.2276,-2053.06 L2642.62,-3432.17 L3085.13,-2591.69 L3085.27,-2591.6 L7875.43,-5113.63 L7875.43,-5113.79 L7432.92,-5954.27 L12223.2,-8476.37 L12665.7,-7635.89 L12665.9,-7635.8 L17456,-10157.8 L17456,-10158 L17013.5,-10998.5 L21588.2,-13407.1 L4555.78,-30831.1"/>
</g>

<g fill="none" stroke="#000000" stroke-opacity="1" stroke-width="1" stroke-linecap="square" stroke-linejoin="bevel" transform="matrix(0.999993,0,0,-0.999993,44827.9,36478.7)"
font-family="MS Shell Dlg 2" font-size="10.3125" font-weight="400" font-style="normal" 
>
</g>

<g fill="none" stroke="#000000" stroke-opacity="1" stroke-width="1" stroke-linecap="square" stroke-linejoin="bevel" transform="matrix(0.999993,0,0,-0.999993,44827.9,36478.7)"
font-family="MS Shell Dlg 2" font-size="10.3125" font-weight="400" font-style="normal" 
>
</g>

<g fill="#333333" fill-opacity="0.2" stroke="#333333" stroke-opacity="1" stroke-width="1" stroke-linecap="round" stroke-linejoin="round" transform="matrix(0.999993,0,0,-0.999993,44827.9,36478.7)"
font-family="MS Shell Dlg 2" font-size="10.3125" font-weight="400" font-style="normal" 
>
<path vector-effect="non-scaling-stroke" fill-rule="evenodd" d="M-27066.3,-30427.1 L-27591.6,-29572.7 L-27619.2,-29527.8 L-44247.5,-2481.77 L-36139.4,-2199.32 L-36172.5,-1250.03 L-36172.4,-1249.89 L-27583,-950.663 L-27582.8,-950.8 L-27549.8,-1900.08 L-18960.1,-1600.85 L-18993.2,-651.568 L-18993.1,-651.422 L-10403.6,-352.199 L-10403.5,-352.336 L-10370.4,-1301.62 L-4416.66,-1094.21 L-4422.87,-1113.59 L-4258.17,-1449.17 L-3906.8,-1576.75 L-3080.38,-1547.96 L-6809.72,-6038.11 L-6809.9,-6038.1 L-7540.6,-5431.22 L-22766.3,-23763 L-22035.6,-24369.9 L-22035.5,-24370.1 L-27066.3,-30427.1"/>
</g>

<g fill="none" stroke="#000000" stroke-opacity="1" stroke-width="1" stroke-linecap="square" stroke-linejoin="bevel" transform="matrix(0.999993,0,0,-0.999993,44827.9,36478.7)"
font-family="MS Shell Dlg 2" font-size="10.3125" font-weight="400" font-style="normal" 
>
</g>

<g fill="none" stroke="#000000" stroke-opacity="1" stroke-width="1" stroke-linecap="square" stroke-linejoin="bevel" transform="matrix(0.999993,0,0,-0.999993,44827.9,36478.7)"
font-family="MS Shell Dlg 2" font-size="10.3125" font-weight="400" font-style="normal" 
>
</g>

<g fill="#333333" fill-opacity="0.2" stroke="#333333" stroke-opacity="1" stroke-width="1" stroke-linecap="round" stroke-linejoin="round" transform="matrix(0.999993,0,0,-0.999993,44827.9,36478.7)"
font-family="MS Shell Dlg 2" font-size="10.3125" font-weight="400" font-style="normal" 
>
<path vector-effect="non-scaling-stroke" fill-rule="evenodd" d="M-3694.92,-18.4304 L-10321,-249.258 L-10321.1,-249.121 L-10354.2,700.162 L-36294.9,-203.52 L-36261.9,-1152.8 L-36262,-1152.95 L-44827.7,-1451.35 L-44407.8,-486.142 L-44385.7,-435.342 L-28811.8,35364.4 L-28788.7,35417.6 L-28349.3,36427.5 L-23068.6,29184.3 L-23068.6,29184.1 L-23836.1,28624.5 L-7835.86,6677.96 L-7068.33,7237.53 L-7068.14,7237.51 L-2857.2,1461.63 L-3665.44,1433.48 L-3991.33,1297.3 L-4145.92,979.723 L-4052.06,639.222 L-3678.94,127.437 L-3658.42,60.9073 L-3683.1,-4.19547 L-3694.92,-18.4304"/>
</g>

<g fill="none" stroke="#000000" stroke-opacity="1" stroke-width="1" stroke-linecap="square" stroke-linejoin="bevel" transform="matrix(0.999993,0,0,-0.999993,44827.9,36478.7)"
font-family="MS Shell Dlg 2" font-size="10.3125" font-weight="400" font-style="normal" 
>
</g>

<g fill="none" stroke="#000000" stroke-opacity="1" stroke-width="1" stroke-linecap="square" stroke-linejoin="bevel" transform="matrix(0.999993,0,0,-0.999993,44827.9,36478.7)"
font-family="MS Shell Dlg 2" font-size="10.3125" font-weight="400" font-style="normal" 
>
</g>

<g fill="#333333" fill-opacity="0.2" stroke="#333333" stroke-opacity="1" stroke-width="1" stroke-linecap="round" stroke-linejoin="round" transform="matrix(0.999993,0,0,-0.999993,44827.9,36478.7)"
font-family="MS Shell Dlg 2" font-size="10.3125" font-weight="400" font-style="normal" 
>
<path vector-effect="non-scaling-stroke" fill-rule="evenodd" d="M-911.72,1424.21 L1993.2,6858.67 L1993.38,6858.7 L2831.07,6410.93 L13941.2,27195.6 L13103.6,27643.4 L13103.5,27643.5 L16748.5,34462.5 L16943.5,32812.2 L16953.8,32725.3 L22168.1,-11395.6 L22175.2,-11455.8 L22310.5,-12600.7 L17550.7,-10094.6 L17550.7,-10094.5 L17993.2,-9253.99 L3526.47,-1637.25 L3083.95,-2477.73 L3083.82,-2477.82 L-69.9569,-817.356 L-151.305,-336.934 L-126.01,-181.749 L67.538,180.338 L104.598,562.677 L-140.48,858.47 L-672.095,1138.37 L-756.516,1211.33 L-911.72,1424.21"/>
</g>

<g fill="none" stroke="#000000" stroke-opacity="1" stroke-width="1" stroke-linecap="square" stroke-linejoin="bevel" transform="matrix(0.999993,0,0,-0.999993,44827.9,36478.7)"
font-family="MS Shell Dlg 2" font-size="10.3125" font-weight="400" font-style="normal" 
>
</g>

<g fill="none" stroke="#000000" stroke-opacity="1" stroke-width="1" stroke-linecap="square" stroke-linejoin="bevel" transform="matrix(1,0,0,-1,0,68236.5)"
font-family="MS Shell Dlg 2" font-size="10.3125" font-weight="400" font-style="normal" 
>
</g>
</g>
</svg>
