<?xml version="1.0" encoding="UTF-8" standalone="no"?>
<svg width="1002.17mm" height="1183.08mm"
 xmlns="http://www.w3.org/2000/svg" xmlns:xlink="http://www.w3.org/1999/xlink"  version="1.2" baseProfile="tiny">
<title>SVG Generator Example Drawing</title>
<desc>An SVG drawing created by the SVG Generator</desc>
<defs>
</defs>
<g fill="none" stroke="black" stroke-width="1" fill-rule="evenodd" stroke-linecap="square" stroke-linejoin="bevel" >

<g fill="none" stroke="#000000" stroke-opacity="1" stroke-width="1" stroke-linecap="square" stroke-linejoin="bevel" transform="matrix(1,0,0,-1,0,4192.18)"
font-family="MS Shell Dlg 2" font-size="10.3125" font-weight="400" font-style="normal" 
>
</g>

<g fill="none" stroke="#000000" stroke-opacity="1" stroke-width="1" stroke-linecap="square" stroke-linejoin="bevel" transform="matrix(1,0,0,-1,0,4192.18)"
font-family="MS Shell Dlg 2" font-size="10.3125" font-weight="400" font-style="normal" 
>
</g>

<g fill="none" stroke="#000000" stroke-opacity="1" stroke-width="1" stroke-linecap="square" stroke-linejoin="bevel" transform="matrix(0.999779,0,0,-0.999779,3923.84,1877.76)"
font-family="MS Shell Dlg 2" font-size="10.3125" font-weight="400" font-style="normal" 
>
</g>

<g fill="#333333" fill-opacity="0.2" stroke="#333333" stroke-opacity="1" stroke-width="1" stroke-linecap="round" stroke-linejoin="round" transform="matrix(0.999779,0,0,-0.999779,3923.84,1877.76)"
font-family="MS Shell Dlg 2" font-size="10.3125" font-weight="400" font-style="normal" 
>
<path vector-effect="non-scaling-stroke" fill-rule="evenodd" d="M-2352.05,-2314.43 L-2496.5,-1461.32 L-2673.49,-1157.31 L-3006.89,-1045.1 L-3924.2,-1077.05 L-3245.14,-259.459 L-3130.02,44.221 L-3225.75,354.56 L-3648.03,933.779 L-2627.91,969.317 L-2204.36,1233.31 L-1860.42,1876.75 L-1126.8,870.492 L-955.713,722.624 L-373.418,416.045 L-606.132,-19.3114 L-658.159,-338.494 L-406.112,-1827.01 L-1119.72,-1451.3 L-1450.29,-1403.35 L-1737.29,-1574.26 L-2352.05,-2314.43"/>
</g>

<g fill="none" stroke="#000000" stroke-opacity="1" stroke-width="1" stroke-linecap="square" stroke-linejoin="bevel" transform="matrix(0.999779,0,0,-0.999779,3923.84,1877.76)"
font-family="MS Shell Dlg 2" font-size="10.3125" font-weight="400" font-style="normal" 
>
</g>

<g fill="none" stroke="#000000" stroke-opacity="1" stroke-width="1" stroke-linecap="square" stroke-linejoin="bevel" transform="matrix(0.999779,0,0,-0.999779,3923.84,1877.76)"
font-family="MS Shell Dlg 2" font-size="10.3125" font-weight="400" font-style="normal" 
>
</g>

<g fill="#ae5151" fill-opacity="0.2" stroke="#333333" stroke-opacity="1" stroke-width="1" stroke-linecap="round" stroke-linejoin="round" transform="matrix(0.999779,0,0,-0.999779,3923.84,1877.76)"
font-family="MS Shell Dlg 2" font-size="10.3125" font-weight="400" font-style="normal" 
>
<path vector-effect="non-scaling-stroke" fill-rule="evenodd" d="M-2352.05,-2314.43 L-2496.5,-1461.32 L-2673.49,-1157.31 L-3006.89,-1045.1 L-3924.2,-1077.05 L-3245.14,-259.459 L-3130.02,44.221 L-3225.75,354.56 L-3648.03,933.779 L-2627.91,969.317 L-2204.36,1233.31 L-1860.42,1876.75 L-1126.8,870.492 L-955.713,722.624 L-373.418,416.045 L-606.132,-19.3114 L-658.159,-338.494 L-406.112,-1827.01 L-1119.72,-1451.3 L-1450.29,-1403.35 L-1737.29,-1574.26 L-2352.05,-2314.43"/>
</g>

<g fill="none" stroke="#000000" stroke-opacity="1" stroke-width="1" stroke-linecap="square" stroke-linejoin="bevel" transform="matrix(0.999779,0,0,-0.999779,3923.84,1877.76)"
font-family="MS Shell Dlg 2" font-size="10.3125" font-weight="400" font-style="normal" 
>
</g>

<g fill="none" stroke="#000000" stroke-opacity="1" stroke-width="1" stroke-linecap="square" stroke-linejoin="bevel" transform="matrix(0.999779,0,0,-0.999779,3923.84,1877.76)"
font-family="MS Shell Dlg 2" font-size="10.3125" font-weight="400" font-style="normal" 
>
</g>

<g fill="#ffff00" fill-opacity="0.2" stroke="#333333" stroke-opacity="1" stroke-width="1" stroke-linecap="round" stroke-linejoin="round" transform="matrix(0.999779,0,0,-0.999779,3923.84,1877.76)"
font-family="MS Shell Dlg 2" font-size="10.3125" font-weight="400" font-style="normal" 
>
<path vector-effect="non-scaling-stroke" fill-rule="evenodd" d="M-2352.05,-2314.43 L-2496.5,-1461.32 L-2673.49,-1157.31 L-3006.89,-1045.1 L-3924.2,-1077.05 L-3245.14,-259.459 L-3130.02,44.221 L-3225.75,354.56 L-3648.03,933.779 L-2627.91,969.317 L-2204.36,1233.31 L-1860.42,1876.75 L-1126.8,870.492 L-955.713,722.624 L-373.418,416.045 L-606.132,-19.3114 L-658.159,-338.494 L-406.112,-1827.01 L-1119.72,-1451.3 L-1450.29,-1403.35 L-1737.29,-1574.26 L-2352.05,-2314.43"/>
</g>

<g fill="none" stroke="#000000" stroke-opacity="1" stroke-width="1" stroke-linecap="square" stroke-linejoin="bevel" transform="matrix(0.999779,0,0,-0.999779,3923.84,1877.76)"
font-family="MS Shell Dlg 2" font-size="10.3125" font-weight="400" font-style="normal" 
>
</g>

<g fill="none" stroke="#000000" stroke-opacity="1" stroke-width="1" stroke-linecap="square" stroke-linejoin="bevel" transform="matrix(0.999779,0,0,-0.999779,3923.84,1877.76)"
font-family="MS Shell Dlg 2" font-size="10.3125" font-weight="400" font-style="normal" 
>
</g>

<g fill="#ae5151" fill-opacity="0.2" stroke="#333333" stroke-opacity="1" stroke-width="1" stroke-linecap="round" stroke-linejoin="round" transform="matrix(0.999779,0,0,-0.999779,3923.84,1877.76)"
font-family="MS Shell Dlg 2" font-size="10.3125" font-weight="400" font-style="normal" 
>
<path vector-effect="non-scaling-stroke" fill-rule="evenodd" d="M-2352.05,-2314.43 L-2496.5,-1461.32 L-2673.49,-1157.31 L-3006.89,-1045.1 L-3924.2,-1077.05 L-3245.14,-259.459 L-3130.02,44.221 L-3225.75,354.56 L-3648.03,933.779 L-2627.91,969.317 L-2204.36,1233.31 L-1860.42,1876.75 L-1126.8,870.492 L-955.713,722.624 L-373.418,416.045 L-606.132,-19.3114 L-658.159,-338.494 L-406.112,-1827.01 L-1119.72,-1451.3 L-1450.29,-1403.35 L-1737.29,-1574.26 L-2352.05,-2314.43"/>
</g>

<g fill="none" stroke="#000000" stroke-opacity="1" stroke-width="1" stroke-linecap="square" stroke-linejoin="bevel" transform="matrix(0.999779,0,0,-0.999779,3923.84,1877.76)"
font-family="MS Shell Dlg 2" font-size="10.3125" font-weight="400" font-style="normal" 
>
</g>

<g fill="none" stroke="#000000" stroke-opacity="1" stroke-width="1" stroke-linecap="square" stroke-linejoin="bevel" transform="matrix(0.999779,0,0,-0.999779,3923.84,1877.76)"
font-family="MS Shell Dlg 2" font-size="10.3125" font-weight="400" font-style="normal" 
>
</g>

<g fill="#333333" fill-opacity="0.2" stroke="#333333" stroke-opacity="1" stroke-width="1" stroke-linecap="round" stroke-linejoin="round" transform="matrix(0.999779,0,0,-0.999779,3923.84,1877.76)"
font-family="MS Shell Dlg 2" font-size="10.3125" font-weight="400" font-style="normal" 
>
<path vector-effect="non-scaling-stroke" fill-rule="evenodd" d="M-2352.05,-2314.43 L-2496.5,-1461.32 L-2673.49,-1157.31 L-3006.89,-1045.1 L-3924.2,-1077.05 L-3245.14,-259.459 L-3130.02,44.221 L-3225.75,354.56 L-3648.03,933.779 L-2627.91,969.317 L-2204.36,1233.31 L-1860.42,1876.75 L-1126.8,870.492 L-955.713,722.624 L-373.418,416.045 L-606.132,-19.3114 L-658.159,-338.494 L-406.112,-1827.01 L-1119.72,-1451.3 L-1450.29,-1403.35 L-1737.29,-1574.26 L-2352.05,-2314.43"/>
</g>

<g fill="none" stroke="#000000" stroke-opacity="1" stroke-width="1" stroke-linecap="square" stroke-linejoin="bevel" transform="matrix(0.999779,0,0,-0.999779,3923.84,1877.76)"
font-family="MS Shell Dlg 2" font-size="10.3125" font-weight="400" font-style="normal" 
>
</g>

<g fill="none" stroke="#000000" stroke-opacity="1" stroke-width="1" stroke-linecap="square" stroke-linejoin="bevel" transform="matrix(1,0,0,-1,0,4192.18)"
font-family="MS Shell Dlg 2" font-size="10.3125" font-weight="400" font-style="normal" 
>
</g>
</g>
</svg>
