<?xml version="1.0" encoding="UTF-8" standalone="no"?>
<svg width="13901.4mm" height="8697.24mm"
 xmlns="http://www.w3.org/2000/svg" xmlns:xlink="http://www.w3.org/1999/xlink"  version="1.2" baseProfile="tiny">
<title>SVG Generator Example Drawing</title>
<desc>An SVG drawing created by the SVG Generator</desc>
<defs>
</defs>
<g fill="none" stroke="black" stroke-width="1" fill-rule="evenodd" stroke-linecap="square" stroke-linejoin="bevel" >

<g fill="none" stroke="#000000" stroke-opacity="1" stroke-width="1" stroke-linecap="square" stroke-linejoin="bevel" transform="matrix(1,0,0,-1,0,30817.1)"
font-family="MS Shell Dlg 2" font-size="10.3125" font-weight="400" font-style="normal" 
>
</g>

<g fill="none" stroke="#000000" stroke-opacity="1" stroke-width="1" stroke-linecap="square" stroke-linejoin="bevel" transform="matrix(1,0,0,-1,0,30817.1)"
font-family="MS Shell Dlg 2" font-size="10.3125" font-weight="400" font-style="normal" 
>
</g>

<g fill="none" stroke="#000000" stroke-opacity="1" stroke-width="1" stroke-linecap="square" stroke-linejoin="bevel" transform="matrix(0.999981,0,0,-0.999981,26975.8,-940.32)"
font-family="MS Shell Dlg 2" font-size="10.3125" font-weight="400" font-style="normal" 
>
</g>

<g fill="#333333" fill-opacity="0.2" stroke="#333333" stroke-opacity="1" stroke-width="1" stroke-linecap="round" stroke-linejoin="round" transform="matrix(0.999981,0,0,-0.999981,26975.8,-940.32)"
font-family="MS Shell Dlg 2" font-size="10.3125" font-weight="400" font-style="normal" 
>
<path vector-effect="non-scaling-stroke" fill-rule="evenodd" d="M3596.99,-31757.5 L2626.58,-31716.8 L-25782.5,-30524.8 L-26975.8,-30474.7 L-21958.6,-24434 L-21958.4,-24434 L-21227.7,-25040.9 L-6002.06,-6709.06 L-6732.75,-6102.18 L-6732.79,-6102 L-2994.03,-1600.51 L-2974.32,-1634.37 L-2845.03,-2397.9 L-2831.44,-2420.96 L-2840.14,-2422.89 L-2758.53,-2544.71 L-2663.94,-2705.23 L-2647.45,-2710.49 L-2638.01,-2724.58 L-2494.6,-2759.25 L-2324.11,-2813.65 L-2304.99,-2805.1 L-2285.04,-2809.92 L-2156.36,-2738.6 L-1998.49,-2667.98 L-2009.35,-2657.13 L-1967.41,-2633.89 L-1441.62,-2000.84 L-707.752,-6334.88 L-707.877,-6335 L-1644.4,-6493.58 L1590.83,-25600 L2527.36,-25441.4 L2527.52,-25441.5 L3596.99,-31757.5"/>
</g>

<g fill="none" stroke="#000000" stroke-opacity="1" stroke-width="1" stroke-linecap="square" stroke-linejoin="bevel" transform="matrix(0.999981,0,0,-0.999981,26975.8,-940.32)"
font-family="MS Shell Dlg 2" font-size="10.3125" font-weight="400" font-style="normal" 
>
</g>

<g fill="none" stroke="#000000" stroke-opacity="1" stroke-width="1" stroke-linecap="square" stroke-linejoin="bevel" transform="matrix(0.999981,0,0,-0.999981,26975.8,-940.32)"
font-family="MS Shell Dlg 2" font-size="10.3125" font-weight="400" font-style="normal" 
>
</g>

<g fill="#333333" fill-opacity="0.2" stroke="#333333" stroke-opacity="1" stroke-width="1" stroke-linecap="round" stroke-linejoin="round" transform="matrix(0.999981,0,0,-0.999981,26975.8,-940.32)"
font-family="MS Shell Dlg 2" font-size="10.3125" font-weight="400" font-style="normal" 
>
<path vector-effect="non-scaling-stroke" fill-rule="evenodd" d="M-48.9477,-941.43 L3037.23,-2566.31 L3037.23,-2566.47 L2594.72,-3406.95 L17061.4,-11023.7 L17503.9,-10183.2 L17504.1,-10183.1 L22281.1,-12698.3 L21551.8,-13444.4 L4512.56,-30875.3 L3552.05,-25202.8 L2615.52,-25361.4 L2615.37,-25361.3 L1544.13,-19034.9 L1544.25,-19034.8 L2480.78,-18876.2 L1409.51,-12549.6 L472.982,-12708.1 L472.827,-12708.1 L-598.413,-6381.63 L-598.288,-6381.52 L338.239,-6222.94 L-325.106,-2305.41 L-279.298,-2310.66 L13.9415,-2098.22 L86.8706,-1743.54 L-48.9477,-941.43"/>
</g>

<g fill="none" stroke="#000000" stroke-opacity="1" stroke-width="1" stroke-linecap="square" stroke-linejoin="bevel" transform="matrix(0.999981,0,0,-0.999981,26975.8,-940.32)"
font-family="MS Shell Dlg 2" font-size="10.3125" font-weight="400" font-style="normal" 
>
</g>

<g fill="none" stroke="#000000" stroke-opacity="1" stroke-width="1" stroke-linecap="square" stroke-linejoin="bevel" transform="matrix(0.999981,0,0,-0.999981,26975.8,-940.32)"
font-family="MS Shell Dlg 2" font-size="10.3125" font-weight="400" font-style="normal" 
>
</g>

<g fill="#ae5151" fill-opacity="0.2" stroke="#333333" stroke-opacity="1" stroke-width="1" stroke-linecap="round" stroke-linejoin="round" transform="matrix(0.999981,0,0,-0.999981,26975.8,-940.32)"
font-family="MS Shell Dlg 2" font-size="10.3125" font-weight="400" font-style="normal" 
>
<path vector-effect="non-scaling-stroke" fill-rule="evenodd" d="M3596.99,-31757.5 L2626.58,-31716.8 L-25782.5,-30524.8 L-26975.8,-30474.7 L-21958.6,-24434 L-21958.4,-24434 L-21227.7,-25040.9 L-6002.06,-6709.06 L-6732.75,-6102.18 L-6732.79,-6102 L-2994.03,-1600.51 L-2974.32,-1634.37 L-2845.03,-2397.9 L-2831.44,-2420.96 L-2840.14,-2422.89 L-2758.53,-2544.71 L-2663.94,-2705.23 L-2647.45,-2710.49 L-2638.01,-2724.58 L-2494.6,-2759.25 L-2324.11,-2813.65 L-2304.99,-2805.1 L-2285.04,-2809.92 L-2156.36,-2738.6 L-1998.49,-2667.98 L-2009.35,-2657.13 L-1967.41,-2633.89 L-1441.62,-2000.84 L-707.752,-6334.88 L-707.877,-6335 L-1644.4,-6493.58 L1590.83,-25600 L2527.36,-25441.4 L2527.52,-25441.5 L3596.99,-31757.5"/>
</g>

<g fill="none" stroke="#000000" stroke-opacity="1" stroke-width="1" stroke-linecap="square" stroke-linejoin="bevel" transform="matrix(0.999981,0,0,-0.999981,26975.8,-940.32)"
font-family="MS Shell Dlg 2" font-size="10.3125" font-weight="400" font-style="normal" 
>
</g>

<g fill="none" stroke="#000000" stroke-opacity="1" stroke-width="1" stroke-linecap="square" stroke-linejoin="bevel" transform="matrix(0.999981,0,0,-0.999981,26975.8,-940.32)"
font-family="MS Shell Dlg 2" font-size="10.3125" font-weight="400" font-style="normal" 
>
</g>

<g fill="#ae5151" fill-opacity="0.2" stroke="#333333" stroke-opacity="1" stroke-width="1" stroke-linecap="round" stroke-linejoin="round" transform="matrix(0.999981,0,0,-0.999981,26975.8,-940.32)"
font-family="MS Shell Dlg 2" font-size="10.3125" font-weight="400" font-style="normal" 
>
<path vector-effect="non-scaling-stroke" fill-rule="evenodd" d="M-48.9477,-941.43 L3037.23,-2566.31 L3037.23,-2566.47 L2594.72,-3406.95 L17061.4,-11023.7 L17503.9,-10183.2 L17504.1,-10183.1 L22281.1,-12698.3 L21551.8,-13444.4 L4512.56,-30875.3 L3552.05,-25202.8 L2615.52,-25361.4 L2615.37,-25361.3 L1544.13,-19034.9 L1544.25,-19034.8 L2480.78,-18876.2 L1409.51,-12549.6 L472.982,-12708.1 L472.827,-12708.1 L-598.413,-6381.63 L-598.288,-6381.52 L338.239,-6222.94 L-325.106,-2305.41 L-279.298,-2310.66 L13.9415,-2098.22 L86.8706,-1743.54 L-48.9477,-941.43"/>
</g>

<g fill="none" stroke="#000000" stroke-opacity="1" stroke-width="1" stroke-linecap="square" stroke-linejoin="bevel" transform="matrix(0.999981,0,0,-0.999981,26975.8,-940.32)"
font-family="MS Shell Dlg 2" font-size="10.3125" font-weight="400" font-style="normal" 
>
</g>

<g fill="none" stroke="#000000" stroke-opacity="1" stroke-width="1" stroke-linecap="square" stroke-linejoin="bevel" transform="matrix(0.999981,0,0,-0.999981,26975.8,-940.32)"
font-family="MS Shell Dlg 2" font-size="10.3125" font-weight="400" font-style="normal" 
>
</g>

<g fill="#ffff00" fill-opacity="0.2" stroke="#333333" stroke-opacity="1" stroke-width="1" stroke-linecap="round" stroke-linejoin="round" transform="matrix(0.999981,0,0,-0.999981,26975.8,-940.32)"
font-family="MS Shell Dlg 2" font-size="10.3125" font-weight="400" font-style="normal" 
>
<path vector-effect="non-scaling-stroke" fill-rule="evenodd" d="M3545.92,-31755.4 L2626.58,-31716.8 L2575.5,-31714.7 L-25719.7,-30527.4 L-25782.5,-30524.8 L-26913,-30477.4 L-16828,-18335 L-16135.7,-18910 L-11094.1,-12839.9 L-11786.4,-12264.9 L-2971.41,-1651.53 L-2845.03,-2397.9 L-2831.44,-2420.96 L-2840.14,-2422.89 L-2758.53,-2544.71 L-2663.94,-2705.23 L-2647.45,-2710.49 L-2638.01,-2724.58 L-2494.6,-2759.25 L-2324.11,-2813.65 L-2304.99,-2805.1 L-2285.04,-2809.92 L-2156.36,-2738.6 L-1998.49,-2667.98 L-2009.35,-2657.13 L-1967.41,-2633.89 L-1483.75,-2051.56 L324.948,-12733.2 L-562.421,-12883.5 L508.85,-19210.1 L1396.22,-19059.8 L3545.92,-31755.4"/>
</g>

<g fill="none" stroke="#000000" stroke-opacity="1" stroke-width="1" stroke-linecap="square" stroke-linejoin="bevel" transform="matrix(0.999981,0,0,-0.999981,26975.8,-940.32)"
font-family="MS Shell Dlg 2" font-size="10.3125" font-weight="400" font-style="normal" 
>
</g>

<g fill="none" stroke="#000000" stroke-opacity="1" stroke-width="1" stroke-linecap="square" stroke-linejoin="bevel" transform="matrix(0.999981,0,0,-0.999981,26975.8,-940.32)"
font-family="MS Shell Dlg 2" font-size="10.3125" font-weight="400" font-style="normal" 
>
</g>

<g fill="#ffff00" fill-opacity="0.2" stroke="#333333" stroke-opacity="1" stroke-width="1" stroke-linecap="round" stroke-linejoin="round" transform="matrix(0.999981,0,0,-0.999981,26975.8,-940.32)"
font-family="MS Shell Dlg 2" font-size="10.3125" font-weight="400" font-style="normal" 
>
<path vector-effect="non-scaling-stroke" fill-rule="evenodd" d="M4555.78,-30831.1 L4512.56,-30875.3 L3734.52,-31671.2 L1593.41,-19026.4 L2480.78,-18876.2 L1409.51,-12549.6 L522.141,-12699.8 L-1301.46,-1930.17 L-1276.58,-1933.78 L-639.05,-2269.44 L-279.298,-2310.66 L13.9415,-2098.22 L86.8706,-1743.54 L-38.443,-1003.47 L7852.21,-5157.91 L7432.92,-5954.27 L12223.2,-8476.37 L12642.5,-7680.01 L22244.7,-12735.6 L21588.2,-13407.1 L21551.8,-13444.4 L4555.78,-30831.1"/>
</g>

<g fill="none" stroke="#000000" stroke-opacity="1" stroke-width="1" stroke-linecap="square" stroke-linejoin="bevel" transform="matrix(0.999981,0,0,-0.999981,26975.8,-940.32)"
font-family="MS Shell Dlg 2" font-size="10.3125" font-weight="400" font-style="normal" 
>
</g>

<g fill="none" stroke="#000000" stroke-opacity="1" stroke-width="1" stroke-linecap="square" stroke-linejoin="bevel" transform="matrix(0.999981,0,0,-0.999981,26975.8,-940.32)"
font-family="MS Shell Dlg 2" font-size="10.3125" font-weight="400" font-style="normal" 
>
</g>

<g fill="#ae5151" fill-opacity="0.2" stroke="#333333" stroke-opacity="1" stroke-width="1" stroke-linecap="round" stroke-linejoin="round" transform="matrix(0.999981,0,0,-0.999981,26975.8,-940.32)"
font-family="MS Shell Dlg 2" font-size="10.3125" font-weight="400" font-style="normal" 
>
<path vector-effect="non-scaling-stroke" fill-rule="evenodd" d="M1445.38,-19051.5 L1445.53,-19051.6 L2516.77,-25378 L2516.65,-25378.1 L1580.12,-25536.7 L2626.58,-31716.8 L-25782.5,-30524.8 L-21177.3,-24980.2 L-21908,-24373.3 L-21908.1,-24373.1 L-16866.6,-18303.2 L-16866.4,-18303.2 L-16135.7,-18910 L-11094.1,-12839.9 L-11824.8,-12233 L-11824.8,-12232.8 L-6783.35,-6162.87 L-6783.17,-6162.88 L-6052.47,-6769.77 L-2669.21,-2696.29 L-2663.94,-2705.23 L-2647.45,-2710.49 L-2638.01,-2724.58 L-2494.6,-2759.25 L-2324.11,-2813.65 L-2304.99,-2805.1 L-2285.04,-2809.92 L-2269.6,-2801.36 L-1633.69,-6556.84 L-697.164,-6398.26 L-697.009,-6398.33 L374.231,-12724.8 L374.107,-12724.9 L-562.421,-12883.5 L508.85,-19210.1 L1445.38,-19051.5"/>
</g>

<g fill="none" stroke="#000000" stroke-opacity="1" stroke-width="1" stroke-linecap="square" stroke-linejoin="bevel" transform="matrix(0.999981,0,0,-0.999981,26975.8,-940.32)"
font-family="MS Shell Dlg 2" font-size="10.3125" font-weight="400" font-style="normal" 
>
</g>

<g fill="none" stroke="#000000" stroke-opacity="1" stroke-width="1" stroke-linecap="square" stroke-linejoin="bevel" transform="matrix(0.999981,0,0,-0.999981,26975.8,-940.32)"
font-family="MS Shell Dlg 2" font-size="10.3125" font-weight="400" font-style="normal" 
>
</g>

<g fill="#ae5151" fill-opacity="0.2" stroke="#333333" stroke-opacity="1" stroke-width="1" stroke-linecap="round" stroke-linejoin="round" transform="matrix(0.999981,0,0,-0.999981,26975.8,-940.32)"
font-family="MS Shell Dlg 2" font-size="10.3125" font-weight="400" font-style="normal" 
>
<path vector-effect="non-scaling-stroke" fill-rule="evenodd" d="M4555.78,-30831.1 L4512.56,-30875.3 L3691.29,-31715.4 L2626.11,-25424.8 L2626.24,-25424.7 L3562.76,-25266.1 L327.526,-6159.67 L-609.001,-6318.25 L-609.156,-6318.19 L-1352.68,-1927.16 L-1346.71,-1923.6 L-1276.58,-1933.78 L-639.05,-2269.44 L-279.298,-2310.66 L13.9415,-2098.22 L23.2276,-2053.06 L2642.62,-3432.17 L3085.13,-2591.69 L3085.27,-2591.6 L7875.43,-5113.63 L7875.43,-5113.79 L7432.92,-5954.27 L12223.2,-8476.37 L12665.7,-7635.89 L12665.9,-7635.8 L17456,-10157.8 L17456,-10158 L17013.5,-10998.5 L21588.2,-13407.1 L4555.78,-30831.1"/>
</g>

<g fill="none" stroke="#000000" stroke-opacity="1" stroke-width="1" stroke-linecap="square" stroke-linejoin="bevel" transform="matrix(0.999981,0,0,-0.999981,26975.8,-940.32)"
font-family="MS Shell Dlg 2" font-size="10.3125" font-weight="400" font-style="normal" 
>
</g>

<g fill="none" stroke="#000000" stroke-opacity="1" stroke-width="1" stroke-linecap="square" stroke-linejoin="bevel" transform="matrix(0.999981,0,0,-0.999981,26975.8,-940.32)"
font-family="MS Shell Dlg 2" font-size="10.3125" font-weight="400" font-style="normal" 
>
</g>

<g fill="#333333" fill-opacity="0.2" stroke="#333333" stroke-opacity="1" stroke-width="1" stroke-linecap="round" stroke-linejoin="round" transform="matrix(0.999981,0,0,-0.999981,26975.8,-940.32)"
font-family="MS Shell Dlg 2" font-size="10.3125" font-weight="400" font-style="normal" 
>
<path vector-effect="non-scaling-stroke" fill-rule="evenodd" d="M1445.38,-19051.5 L1445.53,-19051.6 L2516.77,-25378 L2516.65,-25378.1 L1580.12,-25536.7 L2626.58,-31716.8 L-25782.5,-30524.8 L-21177.3,-24980.2 L-21908,-24373.3 L-21908.1,-24373.1 L-16866.6,-18303.2 L-16866.4,-18303.2 L-16135.7,-18910 L-11094.1,-12839.9 L-11824.8,-12233 L-11824.8,-12232.8 L-6783.35,-6162.87 L-6783.17,-6162.88 L-6052.47,-6769.77 L-2669.21,-2696.29 L-2663.94,-2705.23 L-2647.45,-2710.49 L-2638.01,-2724.58 L-2494.6,-2759.25 L-2324.11,-2813.65 L-2304.99,-2805.1 L-2285.04,-2809.92 L-2269.6,-2801.36 L-1633.69,-6556.84 L-697.164,-6398.26 L-697.009,-6398.33 L374.231,-12724.8 L374.107,-12724.9 L-562.421,-12883.5 L508.85,-19210.1 L1445.38,-19051.5"/>
</g>

<g fill="none" stroke="#000000" stroke-opacity="1" stroke-width="1" stroke-linecap="square" stroke-linejoin="bevel" transform="matrix(0.999981,0,0,-0.999981,26975.8,-940.32)"
font-family="MS Shell Dlg 2" font-size="10.3125" font-weight="400" font-style="normal" 
>
</g>

<g fill="none" stroke="#000000" stroke-opacity="1" stroke-width="1" stroke-linecap="square" stroke-linejoin="bevel" transform="matrix(0.999981,0,0,-0.999981,26975.8,-940.32)"
font-family="MS Shell Dlg 2" font-size="10.3125" font-weight="400" font-style="normal" 
>
</g>

<g fill="#333333" fill-opacity="0.2" stroke="#333333" stroke-opacity="1" stroke-width="1" stroke-linecap="round" stroke-linejoin="round" transform="matrix(0.999981,0,0,-0.999981,26975.8,-940.32)"
font-family="MS Shell Dlg 2" font-size="10.3125" font-weight="400" font-style="normal" 
>
<path vector-effect="non-scaling-stroke" fill-rule="evenodd" d="M4555.78,-30831.1 L4512.56,-30875.3 L3691.29,-31715.4 L2626.11,-25424.8 L2626.24,-25424.7 L3562.76,-25266.1 L327.526,-6159.67 L-609.001,-6318.25 L-609.156,-6318.19 L-1352.68,-1927.16 L-1346.71,-1923.6 L-1276.58,-1933.78 L-639.05,-2269.44 L-279.298,-2310.66 L13.9415,-2098.22 L23.2276,-2053.06 L2642.62,-3432.17 L3085.13,-2591.69 L3085.27,-2591.6 L7875.43,-5113.63 L7875.43,-5113.79 L7432.92,-5954.27 L12223.2,-8476.37 L12665.7,-7635.89 L12665.9,-7635.8 L17456,-10157.8 L17456,-10158 L17013.5,-10998.5 L21588.2,-13407.1 L4555.78,-30831.1"/>
</g>

<g fill="none" stroke="#000000" stroke-opacity="1" stroke-width="1" stroke-linecap="square" stroke-linejoin="bevel" transform="matrix(0.999981,0,0,-0.999981,26975.8,-940.32)"
font-family="MS Shell Dlg 2" font-size="10.3125" font-weight="400" font-style="normal" 
>
</g>

<g fill="none" stroke="#000000" stroke-opacity="1" stroke-width="1" stroke-linecap="square" stroke-linejoin="bevel" transform="matrix(1,0,0,-1,0,30817.1)"
font-family="MS Shell Dlg 2" font-size="10.3125" font-weight="400" font-style="normal" 
>
</g>
</g>
</svg>
