<?xml version="1.0" encoding="UTF-8" standalone="no"?>
<svg width="13664.4mm" height="8928.66mm"
 xmlns="http://www.w3.org/2000/svg" xmlns:xlink="http://www.w3.org/1999/xlink"  version="1.2" baseProfile="tiny">
<title>SVG Generator Example Drawing</title>
<desc>An SVG drawing created by the SVG Generator</desc>
<defs>
</defs>
<g fill="none" stroke="black" stroke-width="1" fill-rule="evenodd" stroke-linecap="square" stroke-linejoin="bevel" >

<g fill="none" stroke="#000000" stroke-opacity="1" stroke-width="1" stroke-linecap="square" stroke-linejoin="bevel" transform="matrix(1,0,0,-1,0,31637)"
font-family="MS Shell Dlg 2" font-size="10.3125" font-weight="400" font-style="normal" 
>
</g>

<g fill="none" stroke="#000000" stroke-opacity="1" stroke-width="1" stroke-linecap="square" stroke-linejoin="bevel" transform="matrix(1,0,0,-1,0,31637)"
font-family="MS Shell Dlg 2" font-size="10.3125" font-weight="400" font-style="normal" 
>
</g>

<g fill="none" stroke="#000000" stroke-opacity="1" stroke-width="1" stroke-linecap="square" stroke-linejoin="bevel" transform="matrix(0.999986,0,0,-0.999986,44819.6,-120.536)"
font-family="MS Shell Dlg 2" font-size="10.3125" font-weight="400" font-style="normal" 
>
</g>

<g fill="#333333" fill-opacity="0.2" stroke="#333333" stroke-opacity="1" stroke-width="1" stroke-linecap="round" stroke-linejoin="round" transform="matrix(0.999986,0,0,-0.999986,44819.6,-120.536)"
font-family="MS Shell Dlg 2" font-size="10.3125" font-weight="400" font-style="normal" 
>
<path vector-effect="non-scaling-stroke" fill-rule="evenodd" d="M3596.99,-31757.5 L2626.58,-31716.8 L-25782.5,-30524.8 L-26975.8,-30474.7 L-21958.6,-24434 L-21958.4,-24434 L-21227.7,-25040.9 L-6002.06,-6709.06 L-6732.75,-6102.18 L-6732.79,-6102 L-2994.03,-1600.51 L-2974.32,-1634.37 L-2845.03,-2397.9 L-2831.44,-2420.96 L-2840.14,-2422.89 L-2758.53,-2544.71 L-2663.94,-2705.23 L-2647.45,-2710.49 L-2638.01,-2724.58 L-2494.6,-2759.25 L-2324.11,-2813.65 L-2304.99,-2805.1 L-2285.04,-2809.92 L-2156.36,-2738.6 L-1998.49,-2667.98 L-2009.35,-2657.13 L-1967.41,-2633.89 L-1441.62,-2000.84 L-707.752,-6334.88 L-707.877,-6335 L-1644.4,-6493.58 L1590.83,-25600 L2527.36,-25441.4 L2527.52,-25441.5 L3596.99,-31757.5"/>
</g>

<g fill="none" stroke="#000000" stroke-opacity="1" stroke-width="1" stroke-linecap="square" stroke-linejoin="bevel" transform="matrix(0.999986,0,0,-0.999986,44819.6,-120.536)"
font-family="MS Shell Dlg 2" font-size="10.3125" font-weight="400" font-style="normal" 
>
</g>

<g fill="none" stroke="#000000" stroke-opacity="1" stroke-width="1" stroke-linecap="square" stroke-linejoin="bevel" transform="matrix(0.999986,0,0,-0.999986,44819.6,-120.536)"
font-family="MS Shell Dlg 2" font-size="10.3125" font-weight="400" font-style="normal" 
>
</g>

<g fill="#333333" fill-opacity="0.2" stroke="#333333" stroke-opacity="1" stroke-width="1" stroke-linecap="round" stroke-linejoin="round" transform="matrix(0.999986,0,0,-0.999986,44819.6,-120.536)"
font-family="MS Shell Dlg 2" font-size="10.3125" font-weight="400" font-style="normal" 
>
<path vector-effect="non-scaling-stroke" fill-rule="evenodd" d="M-4239.04,-1456.12 L-7591.01,-5491.92 L-6860.31,-6098.8 L-6860.28,-6098.98 L-11901.8,-12168.9 L-11901.9,-12168.9 L-12632.6,-11562.1 L-17674.2,-17632.2 L-16943.5,-18239.1 L-16943.5,-18239.3 L-21985,-24309.2 L-21985.2,-24309.2 L-22715.9,-23702.3 L-27591.6,-29572.7 L-44217.4,-2530.75 L-44819.7,-1551.13 L-36258.5,-1252.89 L-36258.4,-1253.02 L-36225.3,-2202.31 L-10284.6,-1298.63 L-10317.6,-349.343 L-10317.5,-349.198 L-3780.5,-121.472 L-4308.84,-757.592 L-4422.87,-1113.59 L-4258.17,-1449.17 L-4239.04,-1456.12"/>
</g>

<g fill="none" stroke="#000000" stroke-opacity="1" stroke-width="1" stroke-linecap="square" stroke-linejoin="bevel" transform="matrix(0.999986,0,0,-0.999986,44819.6,-120.536)"
font-family="MS Shell Dlg 2" font-size="10.3125" font-weight="400" font-style="normal" 
>
</g>

<g fill="none" stroke="#000000" stroke-opacity="1" stroke-width="1" stroke-linecap="square" stroke-linejoin="bevel" transform="matrix(0.999986,0,0,-0.999986,44819.6,-120.536)"
font-family="MS Shell Dlg 2" font-size="10.3125" font-weight="400" font-style="normal" 
>
</g>

<g fill="#ae5151" fill-opacity="0.2" stroke="#333333" stroke-opacity="1" stroke-width="1" stroke-linecap="round" stroke-linejoin="round" transform="matrix(0.999986,0,0,-0.999986,44819.6,-120.536)"
font-family="MS Shell Dlg 2" font-size="10.3125" font-weight="400" font-style="normal" 
>
<path vector-effect="non-scaling-stroke" fill-rule="evenodd" d="M3596.99,-31757.5 L2626.58,-31716.8 L-25782.5,-30524.8 L-26975.8,-30474.7 L-21958.6,-24434 L-21958.4,-24434 L-21227.7,-25040.9 L-6002.06,-6709.06 L-6732.75,-6102.18 L-6732.79,-6102 L-2994.03,-1600.51 L-2974.32,-1634.37 L-2845.03,-2397.9 L-2831.44,-2420.96 L-2840.14,-2422.89 L-2758.53,-2544.71 L-2663.94,-2705.23 L-2647.45,-2710.49 L-2638.01,-2724.58 L-2494.6,-2759.25 L-2324.11,-2813.65 L-2304.99,-2805.1 L-2285.04,-2809.92 L-2156.36,-2738.6 L-1998.49,-2667.98 L-2009.35,-2657.13 L-1967.41,-2633.89 L-1441.62,-2000.84 L-707.752,-6334.88 L-707.877,-6335 L-1644.4,-6493.58 L1590.83,-25600 L2527.36,-25441.4 L2527.52,-25441.5 L3596.99,-31757.5"/>
</g>

<g fill="none" stroke="#000000" stroke-opacity="1" stroke-width="1" stroke-linecap="square" stroke-linejoin="bevel" transform="matrix(0.999986,0,0,-0.999986,44819.6,-120.536)"
font-family="MS Shell Dlg 2" font-size="10.3125" font-weight="400" font-style="normal" 
>
</g>

<g fill="none" stroke="#000000" stroke-opacity="1" stroke-width="1" stroke-linecap="square" stroke-linejoin="bevel" transform="matrix(0.999986,0,0,-0.999986,44819.6,-120.536)"
font-family="MS Shell Dlg 2" font-size="10.3125" font-weight="400" font-style="normal" 
>
</g>

<g fill="#ae5151" fill-opacity="0.2" stroke="#333333" stroke-opacity="1" stroke-width="1" stroke-linecap="round" stroke-linejoin="round" transform="matrix(0.999986,0,0,-0.999986,44819.6,-120.536)"
font-family="MS Shell Dlg 2" font-size="10.3125" font-weight="400" font-style="normal" 
>
<path vector-effect="non-scaling-stroke" fill-rule="evenodd" d="M-4239.04,-1456.12 L-7591.01,-5491.92 L-6860.31,-6098.8 L-6860.28,-6098.98 L-11901.8,-12168.9 L-11901.9,-12168.9 L-12632.6,-11562.1 L-17674.2,-17632.2 L-16943.5,-18239.1 L-16943.5,-18239.3 L-21985,-24309.2 L-21985.2,-24309.2 L-22715.9,-23702.3 L-27591.6,-29572.7 L-44217.4,-2530.75 L-44819.7,-1551.13 L-36258.5,-1252.89 L-36258.4,-1253.02 L-36225.3,-2202.31 L-10284.6,-1298.63 L-10317.6,-349.343 L-10317.5,-349.198 L-3780.5,-121.472 L-4308.84,-757.592 L-4422.87,-1113.59 L-4258.17,-1449.17 L-4239.04,-1456.12"/>
</g>

<g fill="none" stroke="#000000" stroke-opacity="1" stroke-width="1" stroke-linecap="square" stroke-linejoin="bevel" transform="matrix(0.999986,0,0,-0.999986,44819.6,-120.536)"
font-family="MS Shell Dlg 2" font-size="10.3125" font-weight="400" font-style="normal" 
>
</g>

<g fill="none" stroke="#000000" stroke-opacity="1" stroke-width="1" stroke-linecap="square" stroke-linejoin="bevel" transform="matrix(0.999986,0,0,-0.999986,44819.6,-120.536)"
font-family="MS Shell Dlg 2" font-size="10.3125" font-weight="400" font-style="normal" 
>
</g>

<g fill="#ffff00" fill-opacity="0.2" stroke="#333333" stroke-opacity="1" stroke-width="1" stroke-linecap="round" stroke-linejoin="round" transform="matrix(0.999986,0,0,-0.999986,44819.6,-120.536)"
font-family="MS Shell Dlg 2" font-size="10.3125" font-weight="400" font-style="normal" 
>
<path vector-effect="non-scaling-stroke" fill-rule="evenodd" d="M3545.92,-31755.4 L2626.58,-31716.8 L2575.5,-31714.7 L-25719.7,-30527.4 L-25782.5,-30524.8 L-26913,-30477.4 L-16828,-18335 L-16135.7,-18910 L-11094.1,-12839.9 L-11786.4,-12264.9 L-2971.41,-1651.53 L-2845.03,-2397.9 L-2831.44,-2420.96 L-2840.14,-2422.89 L-2758.53,-2544.71 L-2663.94,-2705.23 L-2647.45,-2710.49 L-2638.01,-2724.58 L-2494.6,-2759.25 L-2324.11,-2813.65 L-2304.99,-2805.1 L-2285.04,-2809.92 L-2156.36,-2738.6 L-1998.49,-2667.98 L-2009.35,-2657.13 L-1967.41,-2633.89 L-1483.75,-2051.56 L324.948,-12733.2 L-562.421,-12883.5 L508.85,-19210.1 L1396.22,-19059.8 L3545.92,-31755.4"/>
</g>

<g fill="none" stroke="#000000" stroke-opacity="1" stroke-width="1" stroke-linecap="square" stroke-linejoin="bevel" transform="matrix(0.999986,0,0,-0.999986,44819.6,-120.536)"
font-family="MS Shell Dlg 2" font-size="10.3125" font-weight="400" font-style="normal" 
>
</g>

<g fill="none" stroke="#000000" stroke-opacity="1" stroke-width="1" stroke-linecap="square" stroke-linejoin="bevel" transform="matrix(0.999986,0,0,-0.999986,44819.6,-120.536)"
font-family="MS Shell Dlg 2" font-size="10.3125" font-weight="400" font-style="normal" 
>
</g>

<g fill="#ffff00" fill-opacity="0.2" stroke="#333333" stroke-opacity="1" stroke-width="1" stroke-linecap="round" stroke-linejoin="round" transform="matrix(0.999986,0,0,-0.999986,44819.6,-120.536)"
font-family="MS Shell Dlg 2" font-size="10.3125" font-weight="400" font-style="normal" 
>
<path vector-effect="non-scaling-stroke" fill-rule="evenodd" d="M-27093.9,-30382.2 L-27591.6,-29572.7 L-27619.2,-29527.8 L-44217.4,-2530.75 L-44247.5,-2481.77 L-44789.6,-1600.11 L-27581.1,-1000.63 L-27549.8,-1900.08 L-18960.1,-1600.85 L-18991.4,-701.396 L-3823.29,-172.993 L-4308.84,-757.592 L-4422.87,-1113.59 L-4258.17,-1449.17 L-3906.8,-1576.75 L-3147.32,-1550.29 L-11940.3,-12137.1 L-12632.6,-11562.1 L-17674.2,-17632.2 L-16981.9,-18207.2 L-27093.9,-30382.2"/>
</g>

<g fill="none" stroke="#000000" stroke-opacity="1" stroke-width="1" stroke-linecap="square" stroke-linejoin="bevel" transform="matrix(0.999986,0,0,-0.999986,44819.6,-120.536)"
font-family="MS Shell Dlg 2" font-size="10.3125" font-weight="400" font-style="normal" 
>
</g>

<g fill="none" stroke="#000000" stroke-opacity="1" stroke-width="1" stroke-linecap="square" stroke-linejoin="bevel" transform="matrix(0.999986,0,0,-0.999986,44819.6,-120.536)"
font-family="MS Shell Dlg 2" font-size="10.3125" font-weight="400" font-style="normal" 
>
</g>

<g fill="#ae5151" fill-opacity="0.2" stroke="#333333" stroke-opacity="1" stroke-width="1" stroke-linecap="round" stroke-linejoin="round" transform="matrix(0.999986,0,0,-0.999986,44819.6,-120.536)"
font-family="MS Shell Dlg 2" font-size="10.3125" font-weight="400" font-style="normal" 
>
<path vector-effect="non-scaling-stroke" fill-rule="evenodd" d="M1445.38,-19051.5 L1445.53,-19051.6 L2516.77,-25378 L2516.65,-25378.1 L1580.12,-25536.7 L2626.58,-31716.8 L-25782.5,-30524.8 L-21177.3,-24980.2 L-21908,-24373.3 L-21908.1,-24373.1 L-16866.6,-18303.2 L-16866.4,-18303.2 L-16135.7,-18910 L-11094.1,-12839.9 L-11824.8,-12233 L-11824.8,-12232.8 L-6783.35,-6162.87 L-6783.17,-6162.88 L-6052.47,-6769.77 L-2669.21,-2696.29 L-2663.94,-2705.23 L-2647.45,-2710.49 L-2638.01,-2724.58 L-2494.6,-2759.25 L-2324.11,-2813.65 L-2304.99,-2805.1 L-2285.04,-2809.92 L-2269.6,-2801.36 L-1633.69,-6556.84 L-697.164,-6398.26 L-697.009,-6398.33 L374.231,-12724.8 L374.107,-12724.9 L-562.421,-12883.5 L508.85,-19210.1 L1445.38,-19051.5"/>
</g>

<g fill="none" stroke="#000000" stroke-opacity="1" stroke-width="1" stroke-linecap="square" stroke-linejoin="bevel" transform="matrix(0.999986,0,0,-0.999986,44819.6,-120.536)"
font-family="MS Shell Dlg 2" font-size="10.3125" font-weight="400" font-style="normal" 
>
</g>

<g fill="none" stroke="#000000" stroke-opacity="1" stroke-width="1" stroke-linecap="square" stroke-linejoin="bevel" transform="matrix(0.999986,0,0,-0.999986,44819.6,-120.536)"
font-family="MS Shell Dlg 2" font-size="10.3125" font-weight="400" font-style="normal" 
>
</g>

<g fill="#ae5151" fill-opacity="0.2" stroke="#333333" stroke-opacity="1" stroke-width="1" stroke-linecap="round" stroke-linejoin="round" transform="matrix(0.999986,0,0,-0.999986,44819.6,-120.536)"
font-family="MS Shell Dlg 2" font-size="10.3125" font-weight="400" font-style="normal" 
>
<path vector-effect="non-scaling-stroke" fill-rule="evenodd" d="M-27066.3,-30427.1 L-27591.6,-29572.7 L-27619.2,-29527.8 L-44247.5,-2481.77 L-36139.4,-2199.32 L-36172.5,-1250.03 L-36172.4,-1249.89 L-27583,-950.663 L-27582.8,-950.8 L-27549.8,-1900.08 L-18960.1,-1600.85 L-18993.2,-651.568 L-18993.1,-651.422 L-10403.6,-352.199 L-10403.5,-352.336 L-10370.4,-1301.62 L-4416.66,-1094.21 L-4422.87,-1113.59 L-4258.17,-1449.17 L-3906.8,-1576.75 L-3080.38,-1547.96 L-6809.72,-6038.11 L-6809.9,-6038.1 L-7540.6,-5431.22 L-22766.3,-23763 L-22035.6,-24369.9 L-22035.5,-24370.1 L-27066.3,-30427.1"/>
</g>

<g fill="none" stroke="#000000" stroke-opacity="1" stroke-width="1" stroke-linecap="square" stroke-linejoin="bevel" transform="matrix(0.999986,0,0,-0.999986,44819.6,-120.536)"
font-family="MS Shell Dlg 2" font-size="10.3125" font-weight="400" font-style="normal" 
>
</g>

<g fill="none" stroke="#000000" stroke-opacity="1" stroke-width="1" stroke-linecap="square" stroke-linejoin="bevel" transform="matrix(0.999986,0,0,-0.999986,44819.6,-120.536)"
font-family="MS Shell Dlg 2" font-size="10.3125" font-weight="400" font-style="normal" 
>
</g>

<g fill="#333333" fill-opacity="0.2" stroke="#333333" stroke-opacity="1" stroke-width="1" stroke-linecap="round" stroke-linejoin="round" transform="matrix(0.999986,0,0,-0.999986,44819.6,-120.536)"
font-family="MS Shell Dlg 2" font-size="10.3125" font-weight="400" font-style="normal" 
>
<path vector-effect="non-scaling-stroke" fill-rule="evenodd" d="M1445.38,-19051.5 L1445.53,-19051.6 L2516.77,-25378 L2516.65,-25378.1 L1580.12,-25536.7 L2626.58,-31716.8 L-25782.5,-30524.8 L-21177.3,-24980.2 L-21908,-24373.3 L-21908.1,-24373.1 L-16866.6,-18303.2 L-16866.4,-18303.2 L-16135.7,-18910 L-11094.1,-12839.9 L-11824.8,-12233 L-11824.8,-12232.8 L-6783.35,-6162.87 L-6783.17,-6162.88 L-6052.47,-6769.77 L-2669.21,-2696.29 L-2663.94,-2705.23 L-2647.45,-2710.49 L-2638.01,-2724.58 L-2494.6,-2759.25 L-2324.11,-2813.65 L-2304.99,-2805.1 L-2285.04,-2809.92 L-2269.6,-2801.36 L-1633.69,-6556.84 L-697.164,-6398.26 L-697.009,-6398.33 L374.231,-12724.8 L374.107,-12724.9 L-562.421,-12883.5 L508.85,-19210.1 L1445.38,-19051.5"/>
</g>

<g fill="none" stroke="#000000" stroke-opacity="1" stroke-width="1" stroke-linecap="square" stroke-linejoin="bevel" transform="matrix(0.999986,0,0,-0.999986,44819.6,-120.536)"
font-family="MS Shell Dlg 2" font-size="10.3125" font-weight="400" font-style="normal" 
>
</g>

<g fill="none" stroke="#000000" stroke-opacity="1" stroke-width="1" stroke-linecap="square" stroke-linejoin="bevel" transform="matrix(0.999986,0,0,-0.999986,44819.6,-120.536)"
font-family="MS Shell Dlg 2" font-size="10.3125" font-weight="400" font-style="normal" 
>
</g>

<g fill="#333333" fill-opacity="0.2" stroke="#333333" stroke-opacity="1" stroke-width="1" stroke-linecap="round" stroke-linejoin="round" transform="matrix(0.999986,0,0,-0.999986,44819.6,-120.536)"
font-family="MS Shell Dlg 2" font-size="10.3125" font-weight="400" font-style="normal" 
>
<path vector-effect="non-scaling-stroke" fill-rule="evenodd" d="M-27066.3,-30427.1 L-27591.6,-29572.7 L-27619.2,-29527.8 L-44247.5,-2481.77 L-36139.4,-2199.32 L-36172.5,-1250.03 L-36172.4,-1249.89 L-27583,-950.663 L-27582.8,-950.8 L-27549.8,-1900.08 L-18960.1,-1600.85 L-18993.2,-651.568 L-18993.1,-651.422 L-10403.6,-352.199 L-10403.5,-352.336 L-10370.4,-1301.62 L-4416.66,-1094.21 L-4422.87,-1113.59 L-4258.17,-1449.17 L-3906.8,-1576.75 L-3080.38,-1547.96 L-6809.72,-6038.11 L-6809.9,-6038.1 L-7540.6,-5431.22 L-22766.3,-23763 L-22035.6,-24369.9 L-22035.5,-24370.1 L-27066.3,-30427.1"/>
</g>

<g fill="none" stroke="#000000" stroke-opacity="1" stroke-width="1" stroke-linecap="square" stroke-linejoin="bevel" transform="matrix(0.999986,0,0,-0.999986,44819.6,-120.536)"
font-family="MS Shell Dlg 2" font-size="10.3125" font-weight="400" font-style="normal" 
>
</g>

<g fill="none" stroke="#000000" stroke-opacity="1" stroke-width="1" stroke-linecap="square" stroke-linejoin="bevel" transform="matrix(1,0,0,-1,0,31637)"
font-family="MS Shell Dlg 2" font-size="10.3125" font-weight="400" font-style="normal" 
>
</g>
</g>
</svg>
