<?xml version="1.0" encoding="UTF-8" standalone="no"?>
<svg width="28222.5mm" height="28222.5mm"
 xmlns="http://www.w3.org/2000/svg" xmlns:xlink="http://www.w3.org/1999/xlink"  version="1.2" baseProfile="tiny">
<title>SVG Generator Example Drawing</title>
<desc>An SVG drawing created by the SVG Generator</desc>
<defs>
</defs>
<g fill="none" stroke="black" stroke-width="1" fill-rule="evenodd" stroke-linecap="square" stroke-linejoin="bevel" >

<g fill="none" stroke="#000000" stroke-opacity="1" stroke-width="1" stroke-linecap="square" stroke-linejoin="bevel" transform="matrix(1,0,0,-1,0,100001)"
font-family="MS Shell Dlg 2" font-size="10.3125" font-weight="400" font-style="normal" 
>
</g>

<g fill="none" stroke="#000000" stroke-opacity="1" stroke-width="1" stroke-linecap="square" stroke-linejoin="bevel" transform="matrix(1,0,0,-1,0,100001)"
font-family="MS Shell Dlg 2" font-size="10.3125" font-weight="400" font-style="normal" 
>
</g>

<g fill="none" stroke="#000000" stroke-opacity="1" stroke-width="1" stroke-linecap="square" stroke-linejoin="bevel" transform="matrix(1,0,0,-1,39063.8,33196.2)"
font-family="MS Shell Dlg 2" font-size="10.3125" font-weight="400" font-style="normal" 
>
</g>

<g fill="#ae5151" fill-opacity="0.500008" stroke="#333333" stroke-opacity="1" stroke-width="1" stroke-linecap="round" stroke-linejoin="round" transform="matrix(1,0,0,-1,39063.8,33196.2)"
font-family="MS Shell Dlg 2" font-size="10.3125" font-weight="400" font-style="normal" 
>
<path vector-effect="non-scaling-stroke" fill-rule="evenodd" d="M-29068.3,-66804.3 L-39063.3,-66804.3 L-39063.3,33195.7 L-29068.3,33195.7 L-29068.3,13215.7 L-29563.3,13215.7 L-29565.2,13214.2 L-29566.9,13209.8 L-29567.9,13203.3 L-29568.3,13195.7 L-29568.3,-6804.31 L-29568.3,-10804.3 L-29568.3,-14804.3 L-29568.3,-18804.3 L-29568.3,-22804.3 L-29568.3,-26804.3 L-29568.3,-46804.3 L-29567.9,-46812 L-29566.9,-46818.5 L-29565.2,-46822.8 L-29563.3,-46824.3 L-29068.3,-46824.3 L-29068.3,-66804.3"/>
</g>

<g fill="none" stroke="#000000" stroke-opacity="1" stroke-width="1" stroke-linecap="square" stroke-linejoin="bevel" transform="matrix(1,0,0,-1,39063.8,33196.2)"
font-family="MS Shell Dlg 2" font-size="10.3125" font-weight="400" font-style="normal" 
>
</g>

<g fill="none" stroke="#000000" stroke-opacity="1" stroke-width="1" stroke-linecap="square" stroke-linejoin="bevel" transform="matrix(1,0,0,-1,39063.8,33196.2)"
font-family="MS Shell Dlg 2" font-size="10.3125" font-weight="400" font-style="normal" 
>
</g>

<g fill="#ae5151" fill-opacity="0.500008" stroke="#333333" stroke-opacity="1" stroke-width="1" stroke-linecap="round" stroke-linejoin="round" transform="matrix(1,0,0,-1,39063.8,33196.2)"
font-family="MS Shell Dlg 2" font-size="10.3125" font-weight="400" font-style="normal" 
>
<path vector-effect="non-scaling-stroke" fill-rule="evenodd" d="M-28558.3,-26704.3 L-28558.3,-22804.3 L-28558.3,-10804.3 L-28558.3,-6904.31 L-9068.32,-6904.31 L-9068.32,-10800.3 L-9563.32,-10800.3 L-9565.24,-10800.6 L-9566.86,-10801.5 L-9567.94,-10802.8 L-9568.32,-10804.3 L-9568.32,-22804.3 L-9567.94,-22805.8 L-9566.86,-22807.1 L-9565.24,-22808 L-9563.32,-22808.3 L-9068.32,-22808.3 L-9068.32,-26704.3 L-28558.3,-26704.3"/>
</g>

<g fill="none" stroke="#000000" stroke-opacity="1" stroke-width="1" stroke-linecap="square" stroke-linejoin="bevel" transform="matrix(1,0,0,-1,39063.8,33196.2)"
font-family="MS Shell Dlg 2" font-size="10.3125" font-weight="400" font-style="normal" 
>
</g>

<g fill="none" stroke="#000000" stroke-opacity="1" stroke-width="1" stroke-linecap="square" stroke-linejoin="bevel" transform="matrix(1,0,0,-1,39063.8,33196.2)"
font-family="MS Shell Dlg 2" font-size="10.3125" font-weight="400" font-style="normal" 
>
</g>

<g fill="#ae5151" fill-opacity="0.500008" stroke="#333333" stroke-opacity="1" stroke-width="1" stroke-linecap="round" stroke-linejoin="round" transform="matrix(1,0,0,-1,39063.8,33196.2)"
font-family="MS Shell Dlg 2" font-size="10.3125" font-weight="400" font-style="normal" 
>
<path vector-effect="non-scaling-stroke" fill-rule="evenodd" d="M20931.7,-28802.3 L20436.7,-28802.3 L20434.8,-28802.5 L20433.1,-28802.9 L20432.1,-28803.5 L20431.7,-28804.3 L20431.7,-34804.3 L20432.1,-34805.1 L20433.1,-34805.7 L20434.8,-34806.2 L20436.7,-34806.3 L20931.7,-34806.3 L20931.7,-36704.3 L941.678,-36704.3 L941.678,-34806.3 L1436.68,-34806.3 L1438.59,-34806.2 L1440.21,-34805.7 L1441.3,-34805.1 L1441.68,-34804.3 L1441.68,-28804.3 L1441.3,-28803.5 L1440.21,-28802.9 L1438.59,-28802.5 L1436.68,-28802.3 L941.678,-28802.3 L941.678,-26904.3 L20931.7,-26904.3 L20931.7,-28802.3"/>
</g>

<g fill="none" stroke="#000000" stroke-opacity="1" stroke-width="1" stroke-linecap="square" stroke-linejoin="bevel" transform="matrix(1,0,0,-1,39063.8,33196.2)"
font-family="MS Shell Dlg 2" font-size="10.3125" font-weight="400" font-style="normal" 
>
</g>

<g fill="none" stroke="#000000" stroke-opacity="1" stroke-width="1" stroke-linecap="square" stroke-linejoin="bevel" transform="matrix(1,0,0,-1,39063.8,33196.2)"
font-family="MS Shell Dlg 2" font-size="10.3125" font-weight="400" font-style="normal" 
>
</g>

<g fill="#ae5151" fill-opacity="0.500008" stroke="#333333" stroke-opacity="1" stroke-width="1" stroke-linecap="round" stroke-linejoin="round" transform="matrix(1,0,0,-1,39063.8,33196.2)"
font-family="MS Shell Dlg 2" font-size="10.3125" font-weight="400" font-style="normal" 
>
<path vector-effect="non-scaling-stroke" fill-rule="evenodd" d="M21036.3,-26802.3 L21029.1,-26766 L21007.4,-26733.6 L20974.9,-26711.9 L20936.7,-26704.3 L936.678,-26704.3 L-8558.32,-26704.3 L-8558.32,-22804.3 L-8558.7,-22802.8 L-8559.79,-22801.5 L-8561.41,-22800.6 L-8563.32,-22800.3 L-9058.32,-22800.3 L-9058.32,-18808.3 L-8563.32,-18808.3 L-8561.41,-18808 L-8559.79,-18807.1 L-8558.7,-18805.8 L-8558.32,-18804.3 L-8558.32,-14804.3 L-8558.7,-14802.8 L-8559.79,-14801.5 L-8561.41,-14800.6 L-8563.32,-14800.3 L-9058.32,-14800.3 L-9058.32,-10808.3 L-8563.32,-10808.3 L-8561.41,-10808 L-8559.79,-10807.1 L-8558.7,-10805.8 L-8558.32,-10804.3 L-8558.32,-6904.31 L936.678,-6904.31 L20936.7,-6904.31 L20974.9,-6896.7 L21007.4,-6875.02 L21029.1,-6842.58 L21036.3,-6806.31 L21436.7,-6806.31 L21438.6,-6806.16 L21440.2,-6805.72 L21441.3,-6805.07 L21441.7,-6804.31 L21441.7,-4804.31 L21441.3,-4803.54 L21440.2,-4802.89 L21438.6,-4802.46 L21436.7,-4802.31 L20941.7,-4802.31 L20941.7,-2806.31 L21436.7,-2806.31 L21438.6,-2806.16 L21440.2,-2805.72 L21441.3,-2805.07 L21441.7,-2804.31 L21441.7,-804.309 L21441.3,-803.544 L21440.2,-802.895 L21438.6,-802.461 L21436.7,-802.309 L20941.7,-802.309 L20941.7,1193.69 L21436.7,1193.69 L21438.6,1193.84 L21440.2,1194.28 L21441.3,1194.93 L21441.7,1195.69 L21441.7,3095.69 L40836.7,3095.69 L40836.7,-36704.3 L21441.7,-36704.3 L21441.7,-34804.3 L21441.3,-34803.5 L21440.2,-34802.9 L21438.6,-34802.5 L21436.7,-34802.3 L20941.7,-34802.3 L20941.7,-32806.3 L21436.7,-32806.3 L21438.6,-32806.2 L21440.2,-32805.7 L21441.3,-32805.1 L21441.7,-32804.3 L21441.7,-30804.3 L21441.3,-30803.5 L21440.2,-30802.9 L21438.6,-30802.5 L21436.7,-30802.3 L20941.7,-30802.3 L20941.7,-28806.3 L21436.7,-28806.3 L21438.6,-28806.2 L21440.2,-28805.7 L21441.3,-28805.1 L21441.7,-28804.3 L21441.7,-26804.3 L21441.3,-26803.5 L21440.2,-26802.9 L21438.6,-26802.5 L21436.7,-26802.3 L21036.3,-26802.3"/>
</g>

<g fill="none" stroke="#000000" stroke-opacity="1" stroke-width="1" stroke-linecap="square" stroke-linejoin="bevel" transform="matrix(1,0,0,-1,39063.8,33196.2)"
font-family="MS Shell Dlg 2" font-size="10.3125" font-weight="400" font-style="normal" 
>
</g>

<g fill="none" stroke="#000000" stroke-opacity="1" stroke-width="1" stroke-linecap="square" stroke-linejoin="bevel" transform="matrix(1,0,0,-1,39063.8,33196.2)"
font-family="MS Shell Dlg 2" font-size="10.3125" font-weight="400" font-style="normal" 
>
</g>

<g fill="#ae5151" fill-opacity="0.500008" stroke="#333333" stroke-opacity="1" stroke-width="1" stroke-linecap="round" stroke-linejoin="round" transform="matrix(1,0,0,-1,39063.8,33196.2)"
font-family="MS Shell Dlg 2" font-size="10.3125" font-weight="400" font-style="normal" 
>
<path vector-effect="non-scaling-stroke" fill-rule="evenodd" d="M60936.7,33195.7 L60936.7,-66804.3 L-28558.3,-66804.3 L-28558.3,-46804.3 L-28558.7,-46796.7 L-28559.8,-46790.2 L-28561.4,-46785.8 L-28563.3,-46784.3 L-29058.3,-46784.3 L-29058.3,-26904.3 L-9063.32,-26904.3 L431.678,-26904.3 L431.678,-28804.3 L432.058,-28805.1 L433.142,-28805.7 L434.764,-28806.2 L436.678,-28806.3 L931.678,-28806.3 L931.678,-30802.3 L436.678,-30802.3 L434.764,-30802.5 L433.142,-30802.9 L432.058,-30803.5 L431.678,-30804.3 L431.678,-32804.3 L432.058,-32805.1 L433.142,-32805.7 L434.764,-32806.2 L436.678,-32806.3 L931.678,-32806.3 L931.678,-34802.3 L436.678,-34802.3 L434.764,-34802.5 L433.142,-34802.9 L432.058,-34803.5 L431.678,-34804.3 L431.678,-36804.3 L432.058,-36805.1 L433.142,-36805.7 L434.764,-36806.2 L436.678,-36806.3 L837.076,-36806.3 L844.29,-36842.6 L865.967,-36875 L898.409,-36896.7 L936.678,-36904.3 L20936.7,-36904.3 L40936.7,-36904.3 L40974.9,-36896.7 L41007.4,-36875 L41029.1,-36842.6 L41036.7,-36804.3 L41036.7,3195.69 L41029.1,3233.96 L41007.4,3266.4 L40974.9,3288.08 L40936.7,3295.69 L20936.7,3295.69 L936.678,3295.69 L898.409,3288.08 L865.967,3266.4 L844.29,3233.96 L837.076,3197.69 L436.678,3197.69 L434.764,3197.54 L433.142,3197.11 L432.058,3196.46 L431.678,3195.69 L431.678,1195.69 L432.058,1194.93 L433.142,1194.28 L434.764,1193.84 L436.678,1193.69 L931.678,1193.69 L931.678,-802.309 L436.678,-802.309 L434.764,-802.461 L433.142,-802.895 L432.058,-803.544 L431.678,-804.309 L431.678,-2804.31 L432.058,-2805.07 L433.142,-2805.72 L434.764,-2806.16 L436.678,-2806.31 L931.678,-2806.31 L931.678,-4802.31 L436.678,-4802.31 L434.764,-4802.46 L433.142,-4802.89 L432.058,-4803.54 L431.678,-4804.31 L431.678,-6704.31 L-9063.32,-6704.31 L-29058.3,-6704.31 L-29058.3,13175.7 L-28563.3,13175.7 L-28561.4,13177.2 L-28559.8,13181.5 L-28558.7,13188 L-28558.3,13195.7 L-28558.3,33195.7 L60936.7,33195.7"/>
</g>

<g fill="none" stroke="#000000" stroke-opacity="1" stroke-width="1" stroke-linecap="square" stroke-linejoin="bevel" transform="matrix(1,0,0,-1,39063.8,33196.2)"
font-family="MS Shell Dlg 2" font-size="10.3125" font-weight="400" font-style="normal" 
>
</g>

<g fill="none" stroke="#000000" stroke-opacity="1" stroke-width="1" stroke-linecap="square" stroke-linejoin="bevel" transform="matrix(1,0,0,-1,39063.8,33196.2)"
font-family="MS Shell Dlg 2" font-size="10.3125" font-weight="400" font-style="normal" 
>
</g>

<g fill="#ae5151" fill-opacity="0.500008" stroke="#333333" stroke-opacity="1" stroke-width="1" stroke-linecap="round" stroke-linejoin="round" transform="matrix(1,0,0,-1,39063.8,33196.2)"
font-family="MS Shell Dlg 2" font-size="10.3125" font-weight="400" font-style="normal" 
>
<path vector-effect="non-scaling-stroke" fill-rule="evenodd" d="M941.678,-4806.31 L1436.68,-4806.31 L1438.59,-4806.16 L1440.21,-4805.72 L1441.3,-4805.07 L1441.68,-4804.31 L1441.68,1195.69 L1441.3,1196.46 L1440.21,1197.11 L1438.59,1197.54 L1436.68,1197.69 L941.678,1197.69 L941.678,3095.69 L20931.7,3095.69 L20931.7,1197.69 L20436.7,1197.69 L20434.8,1197.54 L20433.1,1197.11 L20432.1,1196.46 L20431.7,1195.69 L20431.7,-4804.31 L20432.1,-4805.07 L20433.1,-4805.72 L20434.8,-4806.16 L20436.7,-4806.31 L20931.7,-4806.31 L20931.7,-6704.31 L941.678,-6704.31 L941.678,-4806.31"/>
</g>

<g fill="none" stroke="#000000" stroke-opacity="1" stroke-width="1" stroke-linecap="square" stroke-linejoin="bevel" transform="matrix(1,0,0,-1,39063.8,33196.2)"
font-family="MS Shell Dlg 2" font-size="10.3125" font-weight="400" font-style="normal" 
>
</g>

<g fill="none" stroke="#000000" stroke-opacity="1" stroke-width="1" stroke-linecap="square" stroke-linejoin="bevel" transform="matrix(1,0,0,-1,0,100001)"
font-family="MS Shell Dlg 2" font-size="10.3125" font-weight="400" font-style="normal" 
>
</g>
</g>
</svg>
