<?xml version="1.0" encoding="UTF-8" standalone="no"?>
<svg width="25398.9mm" height="28222.5mm"
 xmlns="http://www.w3.org/2000/svg" xmlns:xlink="http://www.w3.org/1999/xlink"  version="1.2" baseProfile="tiny">
<title>SVG Generator Example Drawing</title>
<desc>An SVG drawing created by the SVG Generator</desc>
<defs>
</defs>
<g fill="none" stroke="black" stroke-width="1" fill-rule="evenodd" stroke-linecap="square" stroke-linejoin="bevel" >

<g fill="none" stroke="#000000" stroke-opacity="1" stroke-width="1" stroke-linecap="square" stroke-linejoin="bevel" transform="matrix(1,0,0,-1,0,100001)"
font-family="MS Shell Dlg 2" font-size="10.3125" font-weight="400" font-style="normal" 
>
</g>

<g fill="none" stroke="#000000" stroke-opacity="1" stroke-width="1" stroke-linecap="square" stroke-linejoin="bevel" transform="matrix(1,0,0,-1,0,100001)"
font-family="MS Shell Dlg 2" font-size="10.3125" font-weight="400" font-style="normal" 
>
</g>

<g fill="none" stroke="#000000" stroke-opacity="1" stroke-width="1" stroke-linecap="square" stroke-linejoin="bevel" transform="matrix(1,0,0,-1,29058.8,33196.2)"
font-family="MS Shell Dlg 2" font-size="10.3125" font-weight="400" font-style="normal" 
>
</g>

<g fill="#ae5151" fill-opacity="0.500008" stroke="#333333" stroke-opacity="1" stroke-width="1" stroke-linecap="round" stroke-linejoin="round" transform="matrix(1,0,0,-1,29058.8,33196.2)"
font-family="MS Shell Dlg 2" font-size="10.3125" font-weight="400" font-style="normal" 
>
<path vector-effect="non-scaling-stroke" fill-rule="evenodd" d="M60936.7,33195.7 L60936.7,-66804.3 L-28558.3,-66804.3 L-28558.3,-46804.3 L-28558.7,-46796.7 L-28559.8,-46790.2 L-28561.4,-46785.8 L-28563.3,-46784.3 L-29058.3,-46784.3 L-29058.3,-26904.3 L-9063.32,-26904.3 L431.678,-26904.3 L431.678,-28804.3 L432.058,-28805.1 L433.142,-28805.7 L434.764,-28806.2 L436.678,-28806.3 L931.678,-28806.3 L931.678,-30802.3 L436.678,-30802.3 L434.764,-30802.5 L433.142,-30802.9 L432.058,-30803.5 L431.678,-30804.3 L431.678,-32804.3 L432.058,-32805.1 L433.142,-32805.7 L434.764,-32806.2 L436.678,-32806.3 L931.678,-32806.3 L931.678,-34802.3 L436.678,-34802.3 L434.764,-34802.5 L433.142,-34802.9 L432.058,-34803.5 L431.678,-34804.3 L431.678,-36804.3 L432.058,-36805.1 L433.142,-36805.7 L434.764,-36806.2 L436.678,-36806.3 L837.076,-36806.3 L844.29,-36842.6 L865.967,-36875 L898.409,-36896.7 L936.678,-36904.3 L20936.7,-36904.3 L40936.7,-36904.3 L40974.9,-36896.7 L41007.4,-36875 L41029.1,-36842.6 L41036.7,-36804.3 L41036.7,3195.69 L41029.1,3233.96 L41007.4,3266.4 L40974.9,3288.08 L40936.7,3295.69 L20936.7,3295.69 L936.678,3295.69 L898.409,3288.08 L865.967,3266.4 L844.29,3233.96 L837.076,3197.69 L436.678,3197.69 L434.764,3197.54 L433.142,3197.11 L432.058,3196.46 L431.678,3195.69 L431.678,1195.69 L432.058,1194.93 L433.142,1194.28 L434.764,1193.84 L436.678,1193.69 L931.678,1193.69 L931.678,-802.309 L436.678,-802.309 L434.764,-802.461 L433.142,-802.895 L432.058,-803.544 L431.678,-804.309 L431.678,-2804.31 L432.058,-2805.07 L433.142,-2805.72 L434.764,-2806.16 L436.678,-2806.31 L931.678,-2806.31 L931.678,-4802.31 L436.678,-4802.31 L434.764,-4802.46 L433.142,-4802.89 L432.058,-4803.54 L431.678,-4804.31 L431.678,-6704.31 L-9063.32,-6704.31 L-29058.3,-6704.31 L-29058.3,13175.7 L-28563.3,13175.7 L-28561.4,13177.2 L-28559.8,13181.5 L-28558.7,13188 L-28558.3,13195.7 L-28558.3,33195.7 L60936.7,33195.7"/>
</g>

<g fill="none" stroke="#000000" stroke-opacity="1" stroke-width="1" stroke-linecap="square" stroke-linejoin="bevel" transform="matrix(1,0,0,-1,29058.8,33196.2)"
font-family="MS Shell Dlg 2" font-size="10.3125" font-weight="400" font-style="normal" 
>
</g>

<g fill="none" stroke="#000000" stroke-opacity="1" stroke-width="1" stroke-linecap="square" stroke-linejoin="bevel" transform="matrix(1,0,0,-1,0,100001)"
font-family="MS Shell Dlg 2" font-size="10.3125" font-weight="400" font-style="normal" 
>
</g>
</g>
</svg>
