<?xml version="1.0" encoding="UTF-8" standalone="no"?>
<svg width="14081.8mm" height="9401.39mm"
 xmlns="http://www.w3.org/2000/svg" xmlns:xlink="http://www.w3.org/1999/xlink"  version="1.2" baseProfile="tiny">
<title>SVG Generator Example Drawing</title>
<desc>An SVG drawing created by the SVG Generator</desc>
<defs>
</defs>
<g fill="none" stroke="black" stroke-width="1" fill-rule="evenodd" stroke-linecap="square" stroke-linejoin="bevel" >

<g fill="none" stroke="#000000" stroke-opacity="1" stroke-width="1" stroke-linecap="square" stroke-linejoin="bevel" transform="matrix(1,0,0,-1,0,33312.7)"
font-family="MS Shell Dlg 2" font-size="10.3125" font-weight="400" font-style="normal" 
>
</g>

<g fill="none" stroke="#000000" stroke-opacity="1" stroke-width="1" stroke-linecap="square" stroke-linejoin="bevel" transform="matrix(1,0,0,-1,0,33312.7)"
font-family="MS Shell Dlg 2" font-size="10.3125" font-weight="400" font-style="normal" 
>
</g>

<g fill="none" stroke="#000000" stroke-opacity="1" stroke-width="1" stroke-linecap="square" stroke-linejoin="bevel" transform="matrix(0.99998,0,0,-0.99998,9058.64,3096.8)"
font-family="MS Shell Dlg 2" font-size="10.3125" font-weight="400" font-style="normal" 
>
</g>

<g fill="#333333" fill-opacity="0.500008" stroke="#333333" stroke-opacity="1" stroke-width="1" stroke-linecap="round" stroke-linejoin="round" transform="matrix(0.99998,0,0,-0.99998,9058.64,3096.8)"
font-family="MS Shell Dlg 2" font-size="10.3125" font-weight="400" font-style="normal" 
>
<path vector-effect="non-scaling-stroke" fill-rule="evenodd" d="M28717.8,2408.57 L29500,1210.67 L29976.6,-307.586 L30123.9,-2131.06 L29915.9,-3600.95 L30161.7,-5228.29 L29269.6,-8500.38 L28589.2,-13233 L28931.9,-13547.5 L29554.2,-13773.8 L33424,-14422.5 L33843.3,-14615.7 L34167.9,-15198.2 L34694.3,-15606 L36779.7,-16157.3 L37446.2,-16476.5 L38355,-17498 L39500.4,-19211 L40266.5,-20631.3 L40796.3,-22036.5 L40836.7,-22059.1 L40836.7,-24282.5 L40641.9,-24232.9 L39382.8,-21985 L37391.3,-19439.2 L37051,-18497.2 L35643,-18953.5 L32605.8,-18114.3 L31405.1,-18073.1 L30504.4,-18567.2 L29964.8,-19396.3 L28750,-20422.6 L28517.1,-20992.8 L28883.7,-21553 L30333.3,-22432.8 L30849.2,-23194.6 L31082.5,-24255.8 L31069.1,-26741.5 L31217.8,-27650.6 L31510.7,-28133 L32012.5,-28117.8 L32531.9,-28428.6 L33101.2,-29372.1 L33026,-29816.6 L32492.3,-29883.8 L32284.6,-30216 L31574.8,-30148.7 L30427.2,-29491.9 L29801.8,-29480.8 L29459.5,-28448.6 L29303.1,-26123.9 L29083.4,-25147.9 L26991.9,-23310.2 L26391.1,-22986.5 L25862.5,-22908.3 L25443,-23057 L24964.1,-23580.9 L24353.1,-23889.5 L21721.6,-24246.5 L21082.6,-24492.9 L20885.8,-24996.3 L21190.1,-25936 L20896.5,-26679.7 L20866.2,-26704.3 L18059.1,-26704.3 L18340.3,-26426.4 L18353.4,-25925.5 L17971.8,-25157.2 L17615.7,-24894.6 L17063.5,-24777.1 L15021.6,-25078.3 L12502.9,-26038.7 L11928.2,-26704.3 L5406.55,-26704.3 L6287.9,-26434.5 L7721.71,-26307.5 L8179.22,-25840.5 L7993.45,-25658.3 L6394.76,-25414.5 L5611.29,-25072.5 L5251.74,-24591.3 L5250.98,-23944.3 L5071.45,-23530.4 L3360.57,-22726.7 L2780.44,-21615.9 L2218.84,-21216.5 L1084.1,-21317.3 L-2021.01,-22620.5 L-4174.88,-22341.6 L-4436.07,-22135.7 L-4408.85,-21625.6 L-4047.63,-21240.5 L-1047.36,-20543.5 L1890.33,-19370.2 L-47.2988,-18713.9 L-2749.71,-18606.6 L-8881.36,-19127.9 L-9058.32,-19179.3 L-9058.32,-18808.3 L-8563.32,-18808.3 L-8561.41,-18808 L-8559.79,-18807.1 L-8558.7,-18805.8 L-8558.32,-18804.3 L-8558.32,-15031.3 L-5287.66,-14893 L-3835.17,-15008.6 L-2609.69,-15349.9 L-1354.59,-15084.9 L108.034,-15202.9 L1851.2,-15738.6 L3714.38,-16675.7 L4241.64,-17222.8 L5001.39,-18541.4 L5411.34,-18770.6 L7059.2,-17567.3 L8628.95,-16976.8 L11295,-16473.5 L12279.5,-16933.7 L13431.5,-16747.2 L14242.2,-16272.9 L15325.7,-15213.5 L17531.2,-13687.7 L20090.3,-11255.2 L24081.7,-6877.09 L24749.7,-6712.54 L25177.1,-6404.62 L25402.2,-5820.04 L25491.3,-3801.84 L25792.9,-3246.2 L26310.9,-2809.47 L25603.9,-1733 L24821.1,950.735 L24300.1,1555.15 L23513,1964.6 L23284.1,2634.5 L22929.7,3085.89 L22904.7,3095.69 L28258.9,3095.69 L28717.8,2408.57 M25341.9,-20120.7 L25993.4,-19957.3 L26621.7,-19542.5 L28492.7,-17335.2 L29840.2,-16426.8 L29925.7,-16123.6 L28628.5,-15629.4 L27293.1,-16309.6 L27001,-16718.5 L26578,-17956.6 L25121,-19876.2 L25096.9,-20085.9 L25341.9,-20120.7 M25431.2,-20188.5 L25427.4,-20189.5 L25424.2,-20192.4 L25426.4,-20191.6 L25431.2,-20188.5"/>
</g>

<g fill="none" stroke="#000000" stroke-opacity="1" stroke-width="1" stroke-linecap="square" stroke-linejoin="bevel" transform="matrix(0.99998,0,0,-0.99998,9058.64,3096.8)"
font-family="MS Shell Dlg 2" font-size="10.3125" font-weight="400" font-style="normal" 
>
</g>

<g fill="none" stroke="#000000" stroke-opacity="1" stroke-width="1" stroke-linecap="square" stroke-linejoin="bevel" transform="matrix(0.99998,0,0,-0.99998,9058.64,3096.8)"
font-family="MS Shell Dlg 2" font-size="10.3125" font-weight="400" font-style="normal" 
>
</g>

<g fill="#333333" fill-opacity="0.500008" stroke="#333333" stroke-opacity="1" stroke-width="1" stroke-linecap="round" stroke-linejoin="round" transform="matrix(0.99998,0,0,-0.99998,9058.64,3096.8)"
font-family="MS Shell Dlg 2" font-size="10.3125" font-weight="400" font-style="normal" 
>
<path vector-effect="non-scaling-stroke" fill-rule="evenodd" d="M20970.9,1193.69 L20941.7,1172.27 L20941.7,1193.69 L20970.9,1193.69"/>
</g>

<g fill="none" stroke="#000000" stroke-opacity="1" stroke-width="1" stroke-linecap="square" stroke-linejoin="bevel" transform="matrix(0.99998,0,0,-0.99998,9058.64,3096.8)"
font-family="MS Shell Dlg 2" font-size="10.3125" font-weight="400" font-style="normal" 
>
</g>

<g fill="none" stroke="#000000" stroke-opacity="1" stroke-width="1" stroke-linecap="square" stroke-linejoin="bevel" transform="matrix(0.99998,0,0,-0.99998,9058.64,3096.8)"
font-family="MS Shell Dlg 2" font-size="10.3125" font-weight="400" font-style="normal" 
>
</g>

<g fill="#333333" fill-opacity="0.500008" stroke="#333333" stroke-opacity="1" stroke-width="1" stroke-linecap="round" stroke-linejoin="round" transform="matrix(0.99998,0,0,-0.99998,9058.64,3096.8)"
font-family="MS Shell Dlg 2" font-size="10.3125" font-weight="400" font-style="normal" 
>
<path vector-effect="non-scaling-stroke" fill-rule="evenodd" d="M21441.7,2545.46 L22109.7,2550.74 L22544.4,2302.79 L22781.1,1954.02 L22534.1,1483.91 L21441.7,1485.8 L21441.7,2545.46"/>
</g>

<g fill="none" stroke="#000000" stroke-opacity="1" stroke-width="1" stroke-linecap="square" stroke-linejoin="bevel" transform="matrix(0.99998,0,0,-0.99998,9058.64,3096.8)"
font-family="MS Shell Dlg 2" font-size="10.3125" font-weight="400" font-style="normal" 
>
</g>

<g fill="none" stroke="#000000" stroke-opacity="1" stroke-width="1" stroke-linecap="square" stroke-linejoin="bevel" transform="matrix(0.99998,0,0,-0.99998,9058.64,3096.8)"
font-family="MS Shell Dlg 2" font-size="10.3125" font-weight="400" font-style="normal" 
>
</g>

<g fill="#ae5151" fill-opacity="0.500008" stroke="#333333" stroke-opacity="1" stroke-width="1" stroke-linecap="round" stroke-linejoin="round" transform="matrix(0.99998,0,0,-0.99998,9058.64,3096.8)"
font-family="MS Shell Dlg 2" font-size="10.3125" font-weight="400" font-style="normal" 
>
<path vector-effect="non-scaling-stroke" fill-rule="evenodd" d="M28717.8,2408.57 L29500,1210.67 L29976.6,-307.586 L30123.9,-2131.06 L29915.9,-3600.95 L30161.7,-5228.29 L29269.6,-8500.38 L28589.2,-13233 L28931.9,-13547.5 L29554.2,-13773.8 L33424,-14422.5 L33843.3,-14615.7 L34167.9,-15198.2 L34694.3,-15606 L36779.7,-16157.3 L37446.2,-16476.5 L38355,-17498 L39500.4,-19211 L40266.5,-20631.3 L40796.3,-22036.5 L40836.7,-22059.1 L40836.7,-24282.5 L40641.9,-24232.9 L39382.8,-21985 L37391.3,-19439.2 L37051,-18497.2 L35643,-18953.5 L32605.8,-18114.3 L31405.1,-18073.1 L30504.4,-18567.2 L29964.8,-19396.3 L28750,-20422.6 L28517.1,-20992.8 L28883.7,-21553 L30333.3,-22432.8 L30849.2,-23194.6 L31082.5,-24255.8 L31069.1,-26741.5 L31217.8,-27650.6 L31510.7,-28133 L32012.5,-28117.8 L32531.9,-28428.6 L33101.2,-29372.1 L33026,-29816.6 L32492.3,-29883.8 L32284.6,-30216 L31574.8,-30148.7 L30427.2,-29491.9 L29801.8,-29480.8 L29459.5,-28448.6 L29303.1,-26123.9 L29083.4,-25147.9 L26991.9,-23310.2 L26391.1,-22986.5 L25862.5,-22908.3 L25443,-23057 L24964.1,-23580.9 L24353.1,-23889.5 L21721.6,-24246.5 L21082.6,-24492.9 L20885.8,-24996.3 L21190.1,-25936 L20896.5,-26679.7 L20866.2,-26704.3 L18059.1,-26704.3 L18340.3,-26426.4 L18353.4,-25925.5 L17971.8,-25157.2 L17615.7,-24894.6 L17063.5,-24777.1 L15021.6,-25078.3 L12502.9,-26038.7 L11928.2,-26704.3 L5406.55,-26704.3 L6287.9,-26434.5 L7721.71,-26307.5 L8179.22,-25840.5 L7993.45,-25658.3 L6394.76,-25414.5 L5611.29,-25072.5 L5251.74,-24591.3 L5250.98,-23944.3 L5071.45,-23530.4 L3360.57,-22726.7 L2780.44,-21615.9 L2218.84,-21216.5 L1084.1,-21317.3 L-2021.01,-22620.5 L-4174.88,-22341.6 L-4436.07,-22135.7 L-4408.85,-21625.6 L-4047.63,-21240.5 L-1047.36,-20543.5 L1890.33,-19370.2 L-47.2988,-18713.9 L-2749.71,-18606.6 L-8881.36,-19127.9 L-9058.32,-19179.3 L-9058.32,-18808.3 L-8563.32,-18808.3 L-8561.41,-18808 L-8559.79,-18807.1 L-8558.7,-18805.8 L-8558.32,-18804.3 L-8558.32,-15031.3 L-5287.66,-14893 L-3835.17,-15008.6 L-2609.69,-15349.9 L-1354.59,-15084.9 L108.034,-15202.9 L1851.2,-15738.6 L3714.38,-16675.7 L4241.64,-17222.8 L5001.39,-18541.4 L5411.34,-18770.6 L7059.2,-17567.3 L8628.95,-16976.8 L11295,-16473.5 L12279.5,-16933.7 L13431.5,-16747.2 L14242.2,-16272.9 L15325.7,-15213.5 L17531.2,-13687.7 L20090.3,-11255.2 L24081.7,-6877.09 L24749.7,-6712.54 L25177.1,-6404.62 L25402.2,-5820.04 L25491.3,-3801.84 L25792.9,-3246.2 L26310.9,-2809.47 L25603.9,-1733 L24821.1,950.735 L24300.1,1555.15 L23513,1964.6 L23284.1,2634.5 L22929.7,3085.89 L22904.7,3095.69 L28258.9,3095.69 L28717.8,2408.57 M25341.9,-20120.7 L25993.4,-19957.3 L26621.7,-19542.5 L28492.7,-17335.2 L29840.2,-16426.8 L29925.7,-16123.6 L28628.5,-15629.4 L27293.1,-16309.6 L27001,-16718.5 L26578,-17956.6 L25121,-19876.2 L25096.9,-20085.9 L25341.9,-20120.7 M25431.2,-20188.5 L25427.4,-20189.5 L25424.2,-20192.4 L25426.4,-20191.6 L25431.2,-20188.5"/>
</g>

<g fill="none" stroke="#000000" stroke-opacity="1" stroke-width="1" stroke-linecap="square" stroke-linejoin="bevel" transform="matrix(0.99998,0,0,-0.99998,9058.64,3096.8)"
font-family="MS Shell Dlg 2" font-size="10.3125" font-weight="400" font-style="normal" 
>
</g>

<g fill="none" stroke="#000000" stroke-opacity="1" stroke-width="1" stroke-linecap="square" stroke-linejoin="bevel" transform="matrix(0.99998,0,0,-0.99998,9058.64,3096.8)"
font-family="MS Shell Dlg 2" font-size="10.3125" font-weight="400" font-style="normal" 
>
</g>

<g fill="#ae5151" fill-opacity="0.500008" stroke="#333333" stroke-opacity="1" stroke-width="1" stroke-linecap="round" stroke-linejoin="round" transform="matrix(0.99998,0,0,-0.99998,9058.64,3096.8)"
font-family="MS Shell Dlg 2" font-size="10.3125" font-weight="400" font-style="normal" 
>
<path vector-effect="non-scaling-stroke" fill-rule="evenodd" d="M20970.9,1193.69 L20941.7,1172.27 L20941.7,1193.69 L20970.9,1193.69"/>
</g>

<g fill="none" stroke="#000000" stroke-opacity="1" stroke-width="1" stroke-linecap="square" stroke-linejoin="bevel" transform="matrix(0.99998,0,0,-0.99998,9058.64,3096.8)"
font-family="MS Shell Dlg 2" font-size="10.3125" font-weight="400" font-style="normal" 
>
</g>

<g fill="none" stroke="#000000" stroke-opacity="1" stroke-width="1" stroke-linecap="square" stroke-linejoin="bevel" transform="matrix(0.99998,0,0,-0.99998,9058.64,3096.8)"
font-family="MS Shell Dlg 2" font-size="10.3125" font-weight="400" font-style="normal" 
>
</g>

<g fill="#ae5151" fill-opacity="0.500008" stroke="#333333" stroke-opacity="1" stroke-width="1" stroke-linecap="round" stroke-linejoin="round" transform="matrix(0.99998,0,0,-0.99998,9058.64,3096.8)"
font-family="MS Shell Dlg 2" font-size="10.3125" font-weight="400" font-style="normal" 
>
<path vector-effect="non-scaling-stroke" fill-rule="evenodd" d="M21441.7,2545.46 L22109.7,2550.74 L22544.4,2302.79 L22781.1,1954.02 L22534.1,1483.91 L21441.7,1485.8 L21441.7,2545.46"/>
</g>

<g fill="none" stroke="#000000" stroke-opacity="1" stroke-width="1" stroke-linecap="square" stroke-linejoin="bevel" transform="matrix(0.99998,0,0,-0.99998,9058.64,3096.8)"
font-family="MS Shell Dlg 2" font-size="10.3125" font-weight="400" font-style="normal" 
>
</g>

<g fill="none" stroke="#000000" stroke-opacity="1" stroke-width="1" stroke-linecap="square" stroke-linejoin="bevel" transform="matrix(0.99998,0,0,-0.99998,9058.64,3096.8)"
font-family="MS Shell Dlg 2" font-size="10.3125" font-weight="400" font-style="normal" 
>
</g>

<g fill="#ffff00" fill-opacity="0.500008" stroke="#333333" stroke-opacity="1" stroke-width="1" stroke-linecap="round" stroke-linejoin="round" transform="matrix(0.99998,0,0,-0.99998,9058.64,3096.8)"
font-family="MS Shell Dlg 2" font-size="10.3125" font-weight="400" font-style="normal" 
>
<path vector-effect="non-scaling-stroke" fill-rule="evenodd" d="M28717.8,2408.57 L29500,1210.67 L29976.6,-307.586 L30123.9,-2131.06 L29915.9,-3600.95 L30161.7,-5228.29 L29269.6,-8500.38 L28589.2,-13233 L28931.9,-13547.5 L29554.2,-13773.8 L33424,-14422.5 L33843.3,-14615.7 L34167.9,-15198.2 L34694.3,-15606 L36779.7,-16157.3 L37446.2,-16476.5 L38355,-17498 L39500.4,-19211 L40266.5,-20631.3 L40796.3,-22036.5 L40836.7,-22059.1 L40836.7,-24282.5 L40641.9,-24232.9 L39382.8,-21985 L37391.3,-19439.2 L37051,-18497.2 L35643,-18953.5 L32605.8,-18114.3 L31405.1,-18073.1 L30504.4,-18567.2 L29964.8,-19396.3 L28750,-20422.6 L28517.1,-20992.8 L28883.7,-21553 L30333.3,-22432.8 L30849.2,-23194.6 L31082.5,-24255.8 L31069.1,-26741.5 L31217.8,-27650.6 L31510.7,-28133 L32012.5,-28117.8 L32531.9,-28428.6 L33101.2,-29372.1 L33026,-29816.6 L32492.3,-29883.8 L32284.6,-30216 L31574.8,-30148.7 L30427.2,-29491.9 L29801.8,-29480.8 L29459.5,-28448.6 L29303.1,-26123.9 L29083.4,-25147.9 L26991.9,-23310.2 L26391.1,-22986.5 L25862.5,-22908.3 L25443,-23057 L24964.1,-23580.9 L24353.1,-23889.5 L21721.6,-24246.5 L21082.6,-24492.9 L20885.8,-24996.3 L21190.1,-25936 L20896.5,-26679.7 L20866.2,-26704.3 L18059.1,-26704.3 L18340.3,-26426.4 L18353.4,-25925.5 L17971.8,-25157.2 L17615.7,-24894.6 L17063.5,-24777.1 L15021.6,-25078.3 L12502.9,-26038.7 L11928.2,-26704.3 L5406.55,-26704.3 L6287.9,-26434.5 L7721.71,-26307.5 L8179.22,-25840.5 L7993.45,-25658.3 L6394.76,-25414.5 L5611.29,-25072.5 L5251.74,-24591.3 L5250.98,-23944.3 L5071.45,-23530.4 L3360.57,-22726.7 L2780.44,-21615.9 L2218.84,-21216.5 L1084.1,-21317.3 L-2021.01,-22620.5 L-4174.88,-22341.6 L-4436.07,-22135.7 L-4408.85,-21625.6 L-4047.63,-21240.5 L-1047.36,-20543.5 L1890.33,-19370.2 L-47.2988,-18713.9 L-2749.71,-18606.6 L-8881.36,-19127.9 L-9058.32,-19179.3 L-9058.32,-18808.3 L-8563.32,-18808.3 L-8561.41,-18808 L-8559.79,-18807.1 L-8558.7,-18805.8 L-8558.32,-18804.3 L-8558.32,-15031.3 L-5287.66,-14893 L-3835.17,-15008.6 L-2609.69,-15349.9 L-1354.59,-15084.9 L108.034,-15202.9 L1851.2,-15738.6 L3714.38,-16675.7 L4241.64,-17222.8 L5001.39,-18541.4 L5411.34,-18770.6 L7059.2,-17567.3 L8628.95,-16976.8 L11295,-16473.5 L12279.5,-16933.7 L13431.5,-16747.2 L14242.2,-16272.9 L15325.7,-15213.5 L17531.2,-13687.7 L20090.3,-11255.2 L24081.7,-6877.09 L24749.7,-6712.54 L25177.1,-6404.62 L25402.2,-5820.04 L25491.3,-3801.84 L25792.9,-3246.2 L26310.9,-2809.47 L25603.9,-1733 L24821.1,950.735 L24300.1,1555.15 L23513,1964.6 L23284.1,2634.5 L22929.7,3085.89 L22904.7,3095.69 L28258.9,3095.69 L28717.8,2408.57 M25341.9,-20120.7 L25993.4,-19957.3 L26621.7,-19542.5 L28492.7,-17335.2 L29840.2,-16426.8 L29925.7,-16123.6 L28628.5,-15629.4 L27293.1,-16309.6 L27001,-16718.5 L26578,-17956.6 L25121,-19876.2 L25096.9,-20085.9 L25341.9,-20120.7 M25431.2,-20188.5 L25427.4,-20189.5 L25424.2,-20192.4 L25426.4,-20191.6 L25431.2,-20188.5"/>
</g>

<g fill="none" stroke="#000000" stroke-opacity="1" stroke-width="1" stroke-linecap="square" stroke-linejoin="bevel" transform="matrix(0.99998,0,0,-0.99998,9058.64,3096.8)"
font-family="MS Shell Dlg 2" font-size="10.3125" font-weight="400" font-style="normal" 
>
</g>

<g fill="none" stroke="#000000" stroke-opacity="1" stroke-width="1" stroke-linecap="square" stroke-linejoin="bevel" transform="matrix(0.99998,0,0,-0.99998,9058.64,3096.8)"
font-family="MS Shell Dlg 2" font-size="10.3125" font-weight="400" font-style="normal" 
>
</g>

<g fill="#ffff00" fill-opacity="0.500008" stroke="#333333" stroke-opacity="1" stroke-width="1" stroke-linecap="round" stroke-linejoin="round" transform="matrix(0.99998,0,0,-0.99998,9058.64,3096.8)"
font-family="MS Shell Dlg 2" font-size="10.3125" font-weight="400" font-style="normal" 
>
<path vector-effect="non-scaling-stroke" fill-rule="evenodd" d="M20970.9,1193.69 L20941.7,1172.27 L20941.7,1193.69 L20970.9,1193.69"/>
</g>

<g fill="none" stroke="#000000" stroke-opacity="1" stroke-width="1" stroke-linecap="square" stroke-linejoin="bevel" transform="matrix(0.99998,0,0,-0.99998,9058.64,3096.8)"
font-family="MS Shell Dlg 2" font-size="10.3125" font-weight="400" font-style="normal" 
>
</g>

<g fill="none" stroke="#000000" stroke-opacity="1" stroke-width="1" stroke-linecap="square" stroke-linejoin="bevel" transform="matrix(0.99998,0,0,-0.99998,9058.64,3096.8)"
font-family="MS Shell Dlg 2" font-size="10.3125" font-weight="400" font-style="normal" 
>
</g>

<g fill="#ffff00" fill-opacity="0.500008" stroke="#333333" stroke-opacity="1" stroke-width="1" stroke-linecap="round" stroke-linejoin="round" transform="matrix(0.99998,0,0,-0.99998,9058.64,3096.8)"
font-family="MS Shell Dlg 2" font-size="10.3125" font-weight="400" font-style="normal" 
>
<path vector-effect="non-scaling-stroke" fill-rule="evenodd" d="M21441.7,2545.46 L22109.7,2550.74 L22544.4,2302.79 L22781.1,1954.02 L22534.1,1483.91 L21441.7,1485.8 L21441.7,2545.46"/>
</g>

<g fill="none" stroke="#000000" stroke-opacity="1" stroke-width="1" stroke-linecap="square" stroke-linejoin="bevel" transform="matrix(0.99998,0,0,-0.99998,9058.64,3096.8)"
font-family="MS Shell Dlg 2" font-size="10.3125" font-weight="400" font-style="normal" 
>
</g>

<g fill="none" stroke="#000000" stroke-opacity="1" stroke-width="1" stroke-linecap="square" stroke-linejoin="bevel" transform="matrix(0.99998,0,0,-0.99998,9058.64,3096.8)"
font-family="MS Shell Dlg 2" font-size="10.3125" font-weight="400" font-style="normal" 
>
</g>

<g fill="#ae5151" fill-opacity="0.500008" stroke="#333333" stroke-opacity="1" stroke-width="1" stroke-linecap="round" stroke-linejoin="round" transform="matrix(0.99998,0,0,-0.99998,9058.64,3096.8)"
font-family="MS Shell Dlg 2" font-size="10.3125" font-weight="400" font-style="normal" 
>
<path vector-effect="non-scaling-stroke" fill-rule="evenodd" d="M28717.8,2408.57 L29500,1210.67 L29976.6,-307.586 L30123.9,-2131.06 L29915.9,-3600.95 L30161.7,-5228.29 L29269.6,-8500.38 L28589.2,-13233 L28931.9,-13547.5 L29554.2,-13773.8 L33424,-14422.5 L33843.3,-14615.7 L34167.9,-15198.2 L34694.3,-15606 L36779.7,-16157.3 L37446.2,-16476.5 L38355,-17498 L39500.4,-19211 L40266.5,-20631.3 L40796.3,-22036.5 L40836.7,-22059.1 L40836.7,-24282.5 L40641.9,-24232.9 L39382.8,-21985 L37391.3,-19439.2 L37051,-18497.2 L35643,-18953.5 L32605.8,-18114.3 L31405.1,-18073.1 L30504.4,-18567.2 L29964.8,-19396.3 L28750,-20422.6 L28517.1,-20992.8 L28883.7,-21553 L30333.3,-22432.8 L30849.2,-23194.6 L31082.5,-24255.8 L31069.1,-26741.5 L31217.8,-27650.6 L31510.7,-28133 L32012.5,-28117.8 L32531.9,-28428.6 L33101.2,-29372.1 L33026,-29816.6 L32492.3,-29883.8 L32284.6,-30216 L31574.8,-30148.7 L30427.2,-29491.9 L29801.8,-29480.8 L29459.5,-28448.6 L29303.1,-26123.9 L29083.4,-25147.9 L26991.9,-23310.2 L26391.1,-22986.5 L25862.5,-22908.3 L25443,-23057 L24964.1,-23580.9 L24353.1,-23889.5 L21721.6,-24246.5 L21082.6,-24492.9 L20885.8,-24996.3 L21190.1,-25936 L20896.5,-26679.7 L20866.2,-26704.3 L18059.1,-26704.3 L18340.3,-26426.4 L18353.4,-25925.5 L17971.8,-25157.2 L17615.7,-24894.6 L17063.5,-24777.1 L15021.6,-25078.3 L12502.9,-26038.7 L11928.2,-26704.3 L5406.55,-26704.3 L6287.9,-26434.5 L7721.71,-26307.5 L8179.22,-25840.5 L7993.45,-25658.3 L6394.76,-25414.5 L5611.29,-25072.5 L5251.74,-24591.3 L5250.98,-23944.3 L5071.45,-23530.4 L3360.57,-22726.7 L2780.44,-21615.9 L2218.84,-21216.5 L1084.1,-21317.3 L-2021.01,-22620.5 L-4174.88,-22341.6 L-4436.07,-22135.7 L-4408.85,-21625.6 L-4047.63,-21240.5 L-1047.36,-20543.5 L1890.33,-19370.2 L-47.2988,-18713.9 L-2749.71,-18606.6 L-8881.36,-19127.9 L-9058.32,-19179.3 L-9058.32,-18808.3 L-8563.32,-18808.3 L-8561.41,-18808 L-8559.79,-18807.1 L-8558.7,-18805.8 L-8558.32,-18804.3 L-8558.32,-15031.3 L-5287.66,-14893 L-3835.17,-15008.6 L-2609.69,-15349.9 L-1354.59,-15084.9 L108.034,-15202.9 L1851.2,-15738.6 L3714.38,-16675.7 L4241.64,-17222.8 L5001.39,-18541.4 L5411.34,-18770.6 L7059.2,-17567.3 L8628.95,-16976.8 L11295,-16473.5 L12279.5,-16933.7 L13431.5,-16747.2 L14242.2,-16272.9 L15325.7,-15213.5 L17531.2,-13687.7 L20090.3,-11255.2 L24081.7,-6877.09 L24749.7,-6712.54 L25177.1,-6404.62 L25402.2,-5820.04 L25491.3,-3801.84 L25792.9,-3246.2 L26310.9,-2809.47 L25603.9,-1733 L24821.1,950.735 L24300.1,1555.15 L23513,1964.6 L23284.1,2634.5 L22929.7,3085.89 L22904.7,3095.69 L28258.9,3095.69 L28717.8,2408.57 M25341.9,-20120.7 L25993.4,-19957.3 L26621.7,-19542.5 L28492.7,-17335.2 L29840.2,-16426.8 L29925.7,-16123.6 L28628.5,-15629.4 L27293.1,-16309.6 L27001,-16718.5 L26578,-17956.6 L25121,-19876.2 L25096.9,-20085.9 L25341.9,-20120.7 M25431.2,-20188.5 L25427.4,-20189.5 L25424.2,-20192.4 L25426.4,-20191.6 L25431.2,-20188.5"/>
</g>

<g fill="none" stroke="#000000" stroke-opacity="1" stroke-width="1" stroke-linecap="square" stroke-linejoin="bevel" transform="matrix(0.99998,0,0,-0.99998,9058.64,3096.8)"
font-family="MS Shell Dlg 2" font-size="10.3125" font-weight="400" font-style="normal" 
>
</g>

<g fill="none" stroke="#000000" stroke-opacity="1" stroke-width="1" stroke-linecap="square" stroke-linejoin="bevel" transform="matrix(0.99998,0,0,-0.99998,9058.64,3096.8)"
font-family="MS Shell Dlg 2" font-size="10.3125" font-weight="400" font-style="normal" 
>
</g>

<g fill="#ae5151" fill-opacity="0.500008" stroke="#333333" stroke-opacity="1" stroke-width="1" stroke-linecap="round" stroke-linejoin="round" transform="matrix(0.99998,0,0,-0.99998,9058.64,3096.8)"
font-family="MS Shell Dlg 2" font-size="10.3125" font-weight="400" font-style="normal" 
>
<path vector-effect="non-scaling-stroke" fill-rule="evenodd" d="M20970.9,1193.69 L20941.7,1172.27 L20941.7,1193.69 L20970.9,1193.69"/>
</g>

<g fill="none" stroke="#000000" stroke-opacity="1" stroke-width="1" stroke-linecap="square" stroke-linejoin="bevel" transform="matrix(0.99998,0,0,-0.99998,9058.64,3096.8)"
font-family="MS Shell Dlg 2" font-size="10.3125" font-weight="400" font-style="normal" 
>
</g>

<g fill="none" stroke="#000000" stroke-opacity="1" stroke-width="1" stroke-linecap="square" stroke-linejoin="bevel" transform="matrix(0.99998,0,0,-0.99998,9058.64,3096.8)"
font-family="MS Shell Dlg 2" font-size="10.3125" font-weight="400" font-style="normal" 
>
</g>

<g fill="#ae5151" fill-opacity="0.500008" stroke="#333333" stroke-opacity="1" stroke-width="1" stroke-linecap="round" stroke-linejoin="round" transform="matrix(0.99998,0,0,-0.99998,9058.64,3096.8)"
font-family="MS Shell Dlg 2" font-size="10.3125" font-weight="400" font-style="normal" 
>
<path vector-effect="non-scaling-stroke" fill-rule="evenodd" d="M21441.7,2545.46 L22109.7,2550.74 L22544.4,2302.79 L22781.1,1954.02 L22534.1,1483.91 L21441.7,1485.8 L21441.7,2545.46"/>
</g>

<g fill="none" stroke="#000000" stroke-opacity="1" stroke-width="1" stroke-linecap="square" stroke-linejoin="bevel" transform="matrix(0.99998,0,0,-0.99998,9058.64,3096.8)"
font-family="MS Shell Dlg 2" font-size="10.3125" font-weight="400" font-style="normal" 
>
</g>

<g fill="none" stroke="#000000" stroke-opacity="1" stroke-width="1" stroke-linecap="square" stroke-linejoin="bevel" transform="matrix(0.99998,0,0,-0.99998,9058.64,3096.8)"
font-family="MS Shell Dlg 2" font-size="10.3125" font-weight="400" font-style="normal" 
>
</g>

<g fill="#333333" fill-opacity="0.500008" stroke="#333333" stroke-opacity="1" stroke-width="1" stroke-linecap="round" stroke-linejoin="round" transform="matrix(0.99998,0,0,-0.99998,9058.64,3096.8)"
font-family="MS Shell Dlg 2" font-size="10.3125" font-weight="400" font-style="normal" 
>
<path vector-effect="non-scaling-stroke" fill-rule="evenodd" d="M28717.8,2408.57 L29500,1210.67 L29976.6,-307.586 L30123.9,-2131.06 L29915.9,-3600.95 L30161.7,-5228.29 L29269.6,-8500.38 L28589.2,-13233 L28931.9,-13547.5 L29554.2,-13773.8 L33424,-14422.5 L33843.3,-14615.7 L34167.9,-15198.2 L34694.3,-15606 L36779.7,-16157.3 L37446.2,-16476.5 L38355,-17498 L39500.4,-19211 L40266.5,-20631.3 L40796.3,-22036.5 L40836.7,-22059.1 L40836.7,-24282.5 L40641.9,-24232.9 L39382.8,-21985 L37391.3,-19439.2 L37051,-18497.2 L35643,-18953.5 L32605.8,-18114.3 L31405.1,-18073.1 L30504.4,-18567.2 L29964.8,-19396.3 L28750,-20422.6 L28517.1,-20992.8 L28883.7,-21553 L30333.3,-22432.8 L30849.2,-23194.6 L31082.5,-24255.8 L31069.1,-26741.5 L31217.8,-27650.6 L31510.7,-28133 L32012.5,-28117.8 L32531.9,-28428.6 L33101.2,-29372.1 L33026,-29816.6 L32492.3,-29883.8 L32284.6,-30216 L31574.8,-30148.7 L30427.2,-29491.9 L29801.8,-29480.8 L29459.5,-28448.6 L29303.1,-26123.9 L29083.4,-25147.9 L26991.9,-23310.2 L26391.1,-22986.5 L25862.5,-22908.3 L25443,-23057 L24964.1,-23580.9 L24353.1,-23889.5 L21721.6,-24246.5 L21082.6,-24492.9 L20885.8,-24996.3 L21190.1,-25936 L20896.5,-26679.7 L20866.2,-26704.3 L18059.1,-26704.3 L18340.3,-26426.4 L18353.4,-25925.5 L17971.8,-25157.2 L17615.7,-24894.6 L17063.5,-24777.1 L15021.6,-25078.3 L12502.9,-26038.7 L11928.2,-26704.3 L5406.55,-26704.3 L6287.9,-26434.5 L7721.71,-26307.5 L8179.22,-25840.5 L7993.45,-25658.3 L6394.76,-25414.5 L5611.29,-25072.5 L5251.74,-24591.3 L5250.98,-23944.3 L5071.45,-23530.4 L3360.57,-22726.7 L2780.44,-21615.9 L2218.84,-21216.5 L1084.1,-21317.3 L-2021.01,-22620.5 L-4174.88,-22341.6 L-4436.07,-22135.7 L-4408.85,-21625.6 L-4047.63,-21240.5 L-1047.36,-20543.5 L1890.33,-19370.2 L-47.2988,-18713.9 L-2749.71,-18606.6 L-8881.36,-19127.9 L-9058.32,-19179.3 L-9058.32,-18808.3 L-8563.32,-18808.3 L-8561.41,-18808 L-8559.79,-18807.1 L-8558.7,-18805.8 L-8558.32,-18804.3 L-8558.32,-15031.3 L-5287.66,-14893 L-3835.17,-15008.6 L-2609.69,-15349.9 L-1354.59,-15084.9 L108.034,-15202.9 L1851.2,-15738.6 L3714.38,-16675.7 L4241.64,-17222.8 L5001.39,-18541.4 L5411.34,-18770.6 L7059.2,-17567.3 L8628.95,-16976.8 L11295,-16473.5 L12279.5,-16933.7 L13431.5,-16747.2 L14242.2,-16272.9 L15325.7,-15213.5 L17531.2,-13687.7 L20090.3,-11255.2 L24081.7,-6877.09 L24749.7,-6712.54 L25177.1,-6404.62 L25402.2,-5820.04 L25491.3,-3801.84 L25792.9,-3246.2 L26310.9,-2809.47 L25603.9,-1733 L24821.1,950.735 L24300.1,1555.15 L23513,1964.6 L23284.1,2634.5 L22929.7,3085.89 L22904.7,3095.69 L28258.9,3095.69 L28717.8,2408.57 M25341.9,-20120.7 L25993.4,-19957.3 L26621.7,-19542.5 L28492.7,-17335.2 L29840.2,-16426.8 L29925.7,-16123.6 L28628.5,-15629.4 L27293.1,-16309.6 L27001,-16718.5 L26578,-17956.6 L25121,-19876.2 L25096.9,-20085.9 L25341.9,-20120.7 M25431.2,-20188.5 L25427.4,-20189.5 L25424.2,-20192.4 L25426.4,-20191.6 L25431.2,-20188.5"/>
</g>

<g fill="none" stroke="#000000" stroke-opacity="1" stroke-width="1" stroke-linecap="square" stroke-linejoin="bevel" transform="matrix(0.99998,0,0,-0.99998,9058.64,3096.8)"
font-family="MS Shell Dlg 2" font-size="10.3125" font-weight="400" font-style="normal" 
>
</g>

<g fill="none" stroke="#000000" stroke-opacity="1" stroke-width="1" stroke-linecap="square" stroke-linejoin="bevel" transform="matrix(0.99998,0,0,-0.99998,9058.64,3096.8)"
font-family="MS Shell Dlg 2" font-size="10.3125" font-weight="400" font-style="normal" 
>
</g>

<g fill="#333333" fill-opacity="0.500008" stroke="#333333" stroke-opacity="1" stroke-width="1" stroke-linecap="round" stroke-linejoin="round" transform="matrix(0.99998,0,0,-0.99998,9058.64,3096.8)"
font-family="MS Shell Dlg 2" font-size="10.3125" font-weight="400" font-style="normal" 
>
<path vector-effect="non-scaling-stroke" fill-rule="evenodd" d="M20970.9,1193.69 L20941.7,1172.27 L20941.7,1193.69 L20970.9,1193.69"/>
</g>

<g fill="none" stroke="#000000" stroke-opacity="1" stroke-width="1" stroke-linecap="square" stroke-linejoin="bevel" transform="matrix(0.99998,0,0,-0.99998,9058.64,3096.8)"
font-family="MS Shell Dlg 2" font-size="10.3125" font-weight="400" font-style="normal" 
>
</g>

<g fill="none" stroke="#000000" stroke-opacity="1" stroke-width="1" stroke-linecap="square" stroke-linejoin="bevel" transform="matrix(0.99998,0,0,-0.99998,9058.64,3096.8)"
font-family="MS Shell Dlg 2" font-size="10.3125" font-weight="400" font-style="normal" 
>
</g>

<g fill="#333333" fill-opacity="0.500008" stroke="#333333" stroke-opacity="1" stroke-width="1" stroke-linecap="round" stroke-linejoin="round" transform="matrix(0.99998,0,0,-0.99998,9058.64,3096.8)"
font-family="MS Shell Dlg 2" font-size="10.3125" font-weight="400" font-style="normal" 
>
<path vector-effect="non-scaling-stroke" fill-rule="evenodd" d="M21441.7,2545.46 L22109.7,2550.74 L22544.4,2302.79 L22781.1,1954.02 L22534.1,1483.91 L21441.7,1485.8 L21441.7,2545.46"/>
</g>

<g fill="none" stroke="#000000" stroke-opacity="1" stroke-width="1" stroke-linecap="square" stroke-linejoin="bevel" transform="matrix(0.99998,0,0,-0.99998,9058.64,3096.8)"
font-family="MS Shell Dlg 2" font-size="10.3125" font-weight="400" font-style="normal" 
>
</g>

<g fill="none" stroke="#000000" stroke-opacity="1" stroke-width="1" stroke-linecap="square" stroke-linejoin="bevel" transform="matrix(1,0,0,-1,0,33312.7)"
font-family="MS Shell Dlg 2" font-size="10.3125" font-weight="400" font-style="normal" 
>
</g>
</g>
</svg>
