<?xml version="1.0" encoding="UTF-8" standalone="no"?>
<svg width="1746.39mm" height="2134.16mm"
 xmlns="http://www.w3.org/2000/svg" xmlns:xlink="http://www.w3.org/1999/xlink"  version="1.2" baseProfile="tiny">
<title>SVG Generator Example Drawing</title>
<desc>An SVG drawing created by the SVG Generator</desc>
<defs>
</defs>
<g fill="none" stroke="black" stroke-width="1" fill-rule="evenodd" stroke-linecap="square" stroke-linejoin="bevel" >

<g fill="none" stroke="#000000" stroke-opacity="1" stroke-width="1" stroke-linecap="square" stroke-linejoin="bevel" transform="matrix(1,0,0,-1,0,7562.45)"
font-family="MS Shell Dlg 2" font-size="10.3125" font-weight="400" font-style="normal" 
>
</g>

<g fill="none" stroke="#000000" stroke-opacity="1" stroke-width="1" stroke-linecap="square" stroke-linejoin="bevel" transform="matrix(1,0,0,-1,0,7562.45)"
font-family="MS Shell Dlg 2" font-size="10.3125" font-weight="400" font-style="normal" 
>
</g>

<g fill="none" stroke="#000000" stroke-opacity="1" stroke-width="1" stroke-linecap="square" stroke-linejoin="bevel" transform="matrix(0.999922,0,0,-0.999922,15755.1,-13945.6)"
font-family="MS Shell Dlg 2" font-size="10.3125" font-weight="400" font-style="normal" 
>
</g>

<g fill="#ae5151" fill-opacity="0.500008" stroke="#333333" stroke-opacity="1" stroke-width="1" stroke-linecap="round" stroke-linejoin="round" transform="matrix(0.999922,0,0,-0.999922,15755.1,-13945.6)"
font-family="MS Shell Dlg 2" font-size="10.3125" font-weight="400" font-style="normal" 
>
<path vector-effect="non-scaling-stroke" fill-rule="evenodd" d="M-9568.32,-14011.7 L-9568.32,-20369 L-13357.6,-21470.7 L-13685.9,-21509.3 L-14346.5,-21476.8 L-14659.2,-21410.2 L-14935,-21248.4 L-15312.2,-20936.1 L-15548.1,-20652.5 L-15665.2,-20302.7 L-15755.8,-19646.8 L-15717.9,-19205.9 L-15493.4,-18824.5 L-15126.2,-18577.4 L-12582.6,-17592.7 L-14033.1,-17525.4 L-14468.1,-17403 L-14804.7,-17101.7 L-15148,-16613.7 L-15285.1,-16334.8 L-15329.9,-16027.3 L-15325.5,-15627.2 L-15235.6,-15224 L-14990.4,-14891.4 L-14639.5,-14579 L-14276.9,-14372.8 L-13569.8,-14148.5 L-13361.6,-14106.1 L-11728.9,-13951.8 L-11603.4,-13947.8 L-9568.32,-14011.7"/>
</g>

<g fill="none" stroke="#000000" stroke-opacity="1" stroke-width="1" stroke-linecap="square" stroke-linejoin="bevel" transform="matrix(0.999922,0,0,-0.999922,15755.1,-13945.6)"
font-family="MS Shell Dlg 2" font-size="10.3125" font-weight="400" font-style="normal" 
>
</g>

<g fill="none" stroke="#000000" stroke-opacity="1" stroke-width="1" stroke-linecap="square" stroke-linejoin="bevel" transform="matrix(1,0,0,-1,0,7562.45)"
font-family="MS Shell Dlg 2" font-size="10.3125" font-weight="400" font-style="normal" 
>
</g>
</g>
</svg>
