<?xml version="1.0" encoding="UTF-8" standalone="no"?>
<svg width="28222.5mm" height="28222.5mm"
 xmlns="http://www.w3.org/2000/svg" xmlns:xlink="http://www.w3.org/1999/xlink"  version="1.2" baseProfile="tiny">
<title>SVG Generator Example Drawing</title>
<desc>An SVG drawing created by the SVG Generator</desc>
<defs>
</defs>
<g fill="none" stroke="black" stroke-width="1" fill-rule="evenodd" stroke-linecap="square" stroke-linejoin="bevel" >

<g fill="none" stroke="#000000" stroke-opacity="1" stroke-width="1" stroke-linecap="square" stroke-linejoin="bevel" transform="matrix(1,0,0,-1,0,100001)"
font-family="MS Shell Dlg 2" font-size="10.3125" font-weight="400" font-style="normal" 
>
</g>

<g fill="none" stroke="#000000" stroke-opacity="1" stroke-width="1" stroke-linecap="square" stroke-linejoin="bevel" transform="matrix(1,0,0,-1,0,100001)"
font-family="MS Shell Dlg 2" font-size="10.3125" font-weight="400" font-style="normal" 
>
</g>

<g fill="none" stroke="#000000" stroke-opacity="1" stroke-width="1" stroke-linecap="square" stroke-linejoin="bevel" transform="matrix(1,0,0,-1,39063.8,33196.2)"
font-family="MS Shell Dlg 2" font-size="10.3125" font-weight="400" font-style="normal" 
>
</g>

<g fill="#333333" fill-opacity="0.500008" stroke="#333333" stroke-opacity="1" stroke-width="1" stroke-linecap="round" stroke-linejoin="round" transform="matrix(1,0,0,-1,39063.8,33196.2)"
font-family="MS Shell Dlg 2" font-size="10.3125" font-weight="400" font-style="normal" 
>
<path vector-effect="non-scaling-stroke" fill-rule="evenodd" d="M-28558.3,-6904.31 L-9568.32,-6904.31 L-9568.32,-10804.3 L-9567.94,-10805.8 L-9566.86,-10807.1 L-9565.24,-10808 L-9563.32,-10808.3 L-9068.32,-10808.3 L-9068.32,-14800.3 L-9563.32,-14800.3 L-9565.24,-14800.6 L-9566.86,-14801.5 L-9567.94,-14802.8 L-9568.32,-14804.3 L-9568.32,-18804.3 L-9567.94,-18805.8 L-9566.86,-18807.1 L-9565.24,-18808 L-9563.32,-18808.3 L-9068.32,-18808.3 L-9068.32,-22800.3 L-9563.32,-22800.3 L-9565.24,-22800.6 L-9566.86,-22801.5 L-9567.94,-22802.8 L-9568.32,-22804.3 L-9568.32,-26704.3 L-28558.3,-26704.3 L-28558.3,-22804.3 L-28558.7,-22802.8 L-28559.8,-22801.5 L-28561.4,-22800.6 L-28563.3,-22800.3 L-29058.3,-22800.3 L-29058.3,-18808.3 L-28563.3,-18808.3 L-28561.4,-18808 L-28559.8,-18807.1 L-28558.7,-18805.8 L-28558.3,-18804.3 L-28558.3,-14804.3 L-28558.7,-14802.8 L-28559.8,-14801.5 L-28561.4,-14800.6 L-28563.3,-14800.3 L-29058.3,-14800.3 L-29058.3,-10808.3 L-28563.3,-10808.3 L-28561.4,-10808 L-28559.8,-10807.1 L-28558.7,-10805.8 L-28558.3,-10804.3 L-28558.3,-6904.31"/>
</g>

<g fill="none" stroke="#000000" stroke-opacity="1" stroke-width="1" stroke-linecap="square" stroke-linejoin="bevel" transform="matrix(1,0,0,-1,39063.8,33196.2)"
font-family="MS Shell Dlg 2" font-size="10.3125" font-weight="400" font-style="normal" 
>
</g>

<g fill="none" stroke="#000000" stroke-opacity="1" stroke-width="1" stroke-linecap="square" stroke-linejoin="bevel" transform="matrix(1,0,0,-1,39063.8,33196.2)"
font-family="MS Shell Dlg 2" font-size="10.3125" font-weight="400" font-style="normal" 
>
</g>

<g fill="#333333" fill-opacity="0.500008" stroke="#333333" stroke-opacity="1" stroke-width="1" stroke-linecap="round" stroke-linejoin="round" transform="matrix(1,0,0,-1,39063.8,33196.2)"
font-family="MS Shell Dlg 2" font-size="10.3125" font-weight="400" font-style="normal" 
>
<path vector-effect="non-scaling-stroke" fill-rule="evenodd" d="M20431.7,-36704.3 L1441.68,-36704.3 L1441.68,-34804.3 L1441.3,-34803.5 L1440.21,-34802.9 L1438.59,-34802.5 L1436.68,-34802.3 L941.678,-34802.3 L941.678,-32806.3 L1436.68,-32806.3 L1438.59,-32806.2 L1440.21,-32805.7 L1441.3,-32805.1 L1441.68,-32804.3 L1441.68,-30804.3 L1441.3,-30803.5 L1440.21,-30802.9 L1438.59,-30802.5 L1436.68,-30802.3 L941.678,-30802.3 L941.678,-28806.3 L1436.68,-28806.3 L1438.59,-28806.2 L1440.21,-28805.7 L1441.3,-28805.1 L1441.68,-28804.3 L1441.68,-26904.3 L20431.7,-26904.3 L20431.7,-28804.3 L20432.1,-28805.1 L20433.1,-28805.7 L20434.8,-28806.2 L20436.7,-28806.3 L20931.7,-28806.3 L20931.7,-30802.3 L20436.7,-30802.3 L20434.8,-30802.5 L20433.1,-30802.9 L20432.1,-30803.5 L20431.7,-30804.3 L20431.7,-32804.3 L20432.1,-32805.1 L20433.1,-32805.7 L20434.8,-32806.2 L20436.7,-32806.3 L20931.7,-32806.3 L20931.7,-34802.3 L20436.7,-34802.3 L20434.8,-34802.5 L20433.1,-34802.9 L20432.1,-34803.5 L20431.7,-34804.3 L20431.7,-36704.3"/>
</g>

<g fill="none" stroke="#000000" stroke-opacity="1" stroke-width="1" stroke-linecap="square" stroke-linejoin="bevel" transform="matrix(1,0,0,-1,39063.8,33196.2)"
font-family="MS Shell Dlg 2" font-size="10.3125" font-weight="400" font-style="normal" 
>
</g>

<g fill="none" stroke="#000000" stroke-opacity="1" stroke-width="1" stroke-linecap="square" stroke-linejoin="bevel" transform="matrix(1,0,0,-1,39063.8,33196.2)"
font-family="MS Shell Dlg 2" font-size="10.3125" font-weight="400" font-style="normal" 
>
</g>

<g fill="#333333" fill-opacity="0.500008" stroke="#333333" stroke-opacity="1" stroke-width="1" stroke-linecap="round" stroke-linejoin="round" transform="matrix(1,0,0,-1,39063.8,33196.2)"
font-family="MS Shell Dlg 2" font-size="10.3125" font-weight="400" font-style="normal" 
>
<path vector-effect="non-scaling-stroke" fill-rule="evenodd" d="M20941.7,-28802.3 L20941.7,-26903.3 L20974.9,-26896.7 L21007.4,-26875 L21029.1,-26842.6 L21036.7,-26804.3 L21029.1,-26766 L21007.4,-26733.6 L20974.9,-26711.9 L20936.7,-26704.3 L936.678,-26704.3 L-9058.32,-26704.3 L-9058.32,-22808.3 L-8563.32,-22808.3 L-8561.41,-22808 L-8559.79,-22807.1 L-8558.7,-22805.8 L-8558.32,-22804.3 L-8558.32,-10804.3 L-8558.7,-10802.8 L-8559.79,-10801.5 L-8561.41,-10800.6 L-8563.32,-10800.3 L-9058.32,-10800.3 L-9058.32,-6904.31 L936.678,-6904.31 L20936.7,-6904.31 L20974.9,-6896.7 L21007.4,-6875.02 L21029.1,-6842.58 L21036.7,-6804.31 L21029.1,-6766.04 L21007.4,-6733.6 L20974.9,-6711.92 L20941.7,-6705.3 L20941.7,-4806.31 L21436.7,-4806.31 L21438.6,-4806.16 L21440.2,-4805.72 L21441.3,-4805.07 L21441.7,-4804.31 L21441.7,1195.69 L21441.3,1196.46 L21440.2,1197.11 L21438.6,1197.54 L21436.7,1197.69 L20941.7,1197.69 L20941.7,3095.69 L40836.7,3095.69 L40836.7,-36704.3 L20941.7,-36704.3 L20941.7,-34806.3 L21436.7,-34806.3 L21438.6,-34806.2 L21440.2,-34805.7 L21441.3,-34805.1 L21441.7,-34804.3 L21441.7,-28804.3 L21441.3,-28803.5 L21440.2,-28802.9 L21438.6,-28802.5 L21436.7,-28802.3 L20941.7,-28802.3"/>
</g>

<g fill="none" stroke="#000000" stroke-opacity="1" stroke-width="1" stroke-linecap="square" stroke-linejoin="bevel" transform="matrix(1,0,0,-1,39063.8,33196.2)"
font-family="MS Shell Dlg 2" font-size="10.3125" font-weight="400" font-style="normal" 
>
</g>

<g fill="none" stroke="#000000" stroke-opacity="1" stroke-width="1" stroke-linecap="square" stroke-linejoin="bevel" transform="matrix(1,0,0,-1,39063.8,33196.2)"
font-family="MS Shell Dlg 2" font-size="10.3125" font-weight="400" font-style="normal" 
>
</g>

<g fill="#333333" fill-opacity="0.500008" stroke="#333333" stroke-opacity="1" stroke-width="1" stroke-linecap="round" stroke-linejoin="round" transform="matrix(1,0,0,-1,39063.8,33196.2)"
font-family="MS Shell Dlg 2" font-size="10.3125" font-weight="400" font-style="normal" 
>
<path vector-effect="non-scaling-stroke" fill-rule="evenodd" d="M-39063.3,33195.7 L60936.7,33195.7 L60936.7,-66804.3 L-39063.3,-66804.3 L-39063.3,33195.7 M-29068.3,-22808.3 L-29068.3,-26705.3 L-29101.6,-26711.9 L-29134,-26733.6 L-29155.7,-26766 L-29163.3,-26804.3 L-29155.7,-26842.6 L-29134,-26875 L-29101.6,-26896.7 L-29063.3,-26904.3 L-9063.32,-26904.3 L931.678,-26904.3 L931.678,-28802.3 L436.678,-28802.3 L434.764,-28802.5 L433.142,-28802.9 L432.058,-28803.5 L431.678,-28804.3 L431.678,-34804.3 L432.058,-34805.1 L433.142,-34805.7 L434.764,-34806.2 L436.678,-34806.3 L931.678,-34806.3 L931.678,-36705.3 L898.409,-36711.9 L865.967,-36733.6 L844.29,-36766 L836.678,-36804.3 L844.29,-36842.6 L865.967,-36875 L898.409,-36896.7 L936.678,-36904.3 L20936.7,-36904.3 L40936.7,-36904.3 L40974.9,-36896.7 L41007.4,-36875 L41029.1,-36842.6 L41036.7,-36804.3 L41036.7,3195.69 L41029.1,3233.96 L41007.4,3266.4 L40974.9,3288.08 L40936.7,3295.69 L20936.7,3295.69 L936.678,3295.69 L898.409,3288.08 L865.967,3266.4 L844.29,3233.96 L836.678,3195.69 L844.29,3157.42 L865.967,3124.98 L898.409,3103.3 L931.678,3096.69 L931.678,1197.69 L436.678,1197.69 L434.764,1197.54 L433.142,1197.11 L432.058,1196.46 L431.678,1195.69 L431.678,-4804.31 L432.058,-4805.07 L433.142,-4805.72 L434.764,-4806.16 L436.678,-4806.31 L931.678,-4806.31 L931.678,-6704.31 L-9063.32,-6704.31 L-29063.3,-6704.31 L-29101.6,-6711.92 L-29134,-6733.6 L-29155.7,-6766.04 L-29163.3,-6804.31 L-29155.7,-6842.58 L-29134,-6875.02 L-29101.6,-6896.7 L-29068.3,-6903.31 L-29068.3,-10800.3 L-29563.3,-10800.3 L-29565.2,-10800.6 L-29566.9,-10801.5 L-29567.9,-10802.8 L-29568.3,-10804.3 L-29568.3,-22804.3 L-29567.9,-22805.8 L-29566.9,-22807.1 L-29565.2,-22808 L-29563.3,-22808.3 L-29068.3,-22808.3"/>
</g>

<g fill="none" stroke="#000000" stroke-opacity="1" stroke-width="1" stroke-linecap="square" stroke-linejoin="bevel" transform="matrix(1,0,0,-1,39063.8,33196.2)"
font-family="MS Shell Dlg 2" font-size="10.3125" font-weight="400" font-style="normal" 
>
</g>

<g fill="none" stroke="#000000" stroke-opacity="1" stroke-width="1" stroke-linecap="square" stroke-linejoin="bevel" transform="matrix(1,0,0,-1,39063.8,33196.2)"
font-family="MS Shell Dlg 2" font-size="10.3125" font-weight="400" font-style="normal" 
>
</g>

<g fill="#333333" fill-opacity="0.500008" stroke="#333333" stroke-opacity="1" stroke-width="1" stroke-linecap="round" stroke-linejoin="round" transform="matrix(1,0,0,-1,39063.8,33196.2)"
font-family="MS Shell Dlg 2" font-size="10.3125" font-weight="400" font-style="normal" 
>
<path vector-effect="non-scaling-stroke" fill-rule="evenodd" d="M1441.68,3095.69 L20431.7,3095.69 L20431.7,1195.69 L20432.1,1194.93 L20433.1,1194.28 L20434.8,1193.84 L20436.7,1193.69 L20931.7,1193.69 L20931.7,-802.309 L20436.7,-802.309 L20434.8,-802.461 L20433.1,-802.895 L20432.1,-803.544 L20431.7,-804.309 L20431.7,-2804.31 L20432.1,-2805.07 L20433.1,-2805.72 L20434.8,-2806.16 L20436.7,-2806.31 L20931.7,-2806.31 L20931.7,-4802.31 L20436.7,-4802.31 L20434.8,-4802.46 L20433.1,-4802.89 L20432.1,-4803.54 L20431.7,-4804.31 L20431.7,-6704.31 L1441.68,-6704.31 L1441.68,-4804.31 L1441.3,-4803.54 L1440.21,-4802.89 L1438.59,-4802.46 L1436.68,-4802.31 L941.678,-4802.31 L941.678,-2806.31 L1436.68,-2806.31 L1438.59,-2806.16 L1440.21,-2805.72 L1441.3,-2805.07 L1441.68,-2804.31 L1441.68,-804.309 L1441.3,-803.544 L1440.21,-802.895 L1438.59,-802.461 L1436.68,-802.309 L941.678,-802.309 L941.678,1193.69 L1436.68,1193.69 L1438.59,1193.84 L1440.21,1194.28 L1441.3,1194.93 L1441.68,1195.69 L1441.68,3095.69"/>
</g>

<g fill="none" stroke="#000000" stroke-opacity="1" stroke-width="1" stroke-linecap="square" stroke-linejoin="bevel" transform="matrix(1,0,0,-1,39063.8,33196.2)"
font-family="MS Shell Dlg 2" font-size="10.3125" font-weight="400" font-style="normal" 
>
</g>

<g fill="none" stroke="#000000" stroke-opacity="1" stroke-width="1" stroke-linecap="square" stroke-linejoin="bevel" transform="matrix(1,0,0,-1,39063.8,33196.2)"
font-family="MS Shell Dlg 2" font-size="10.3125" font-weight="400" font-style="normal" 
>
</g>

<g fill="#ae5151" fill-opacity="0.500008" stroke="#333333" stroke-opacity="1" stroke-width="1" stroke-linecap="round" stroke-linejoin="round" transform="matrix(1,0,0,-1,39063.8,33196.2)"
font-family="MS Shell Dlg 2" font-size="10.3125" font-weight="400" font-style="normal" 
>
<path vector-effect="non-scaling-stroke" fill-rule="evenodd" d="M-28558.3,-6904.31 L-9568.32,-6904.31 L-9568.32,-10804.3 L-9567.94,-10805.8 L-9566.86,-10807.1 L-9565.24,-10808 L-9563.32,-10808.3 L-9068.32,-10808.3 L-9068.32,-14800.3 L-9563.32,-14800.3 L-9565.24,-14800.6 L-9566.86,-14801.5 L-9567.94,-14802.8 L-9568.32,-14804.3 L-9568.32,-18804.3 L-9567.94,-18805.8 L-9566.86,-18807.1 L-9565.24,-18808 L-9563.32,-18808.3 L-9068.32,-18808.3 L-9068.32,-22800.3 L-9563.32,-22800.3 L-9565.24,-22800.6 L-9566.86,-22801.5 L-9567.94,-22802.8 L-9568.32,-22804.3 L-9568.32,-26704.3 L-28558.3,-26704.3 L-28558.3,-22804.3 L-28558.7,-22802.8 L-28559.8,-22801.5 L-28561.4,-22800.6 L-28563.3,-22800.3 L-29058.3,-22800.3 L-29058.3,-18808.3 L-28563.3,-18808.3 L-28561.4,-18808 L-28559.8,-18807.1 L-28558.7,-18805.8 L-28558.3,-18804.3 L-28558.3,-14804.3 L-28558.7,-14802.8 L-28559.8,-14801.5 L-28561.4,-14800.6 L-28563.3,-14800.3 L-29058.3,-14800.3 L-29058.3,-10808.3 L-28563.3,-10808.3 L-28561.4,-10808 L-28559.8,-10807.1 L-28558.7,-10805.8 L-28558.3,-10804.3 L-28558.3,-6904.31"/>
</g>

<g fill="none" stroke="#000000" stroke-opacity="1" stroke-width="1" stroke-linecap="square" stroke-linejoin="bevel" transform="matrix(1,0,0,-1,39063.8,33196.2)"
font-family="MS Shell Dlg 2" font-size="10.3125" font-weight="400" font-style="normal" 
>
</g>

<g fill="none" stroke="#000000" stroke-opacity="1" stroke-width="1" stroke-linecap="square" stroke-linejoin="bevel" transform="matrix(1,0,0,-1,39063.8,33196.2)"
font-family="MS Shell Dlg 2" font-size="10.3125" font-weight="400" font-style="normal" 
>
</g>

<g fill="#ae5151" fill-opacity="0.500008" stroke="#333333" stroke-opacity="1" stroke-width="1" stroke-linecap="round" stroke-linejoin="round" transform="matrix(1,0,0,-1,39063.8,33196.2)"
font-family="MS Shell Dlg 2" font-size="10.3125" font-weight="400" font-style="normal" 
>
<path vector-effect="non-scaling-stroke" fill-rule="evenodd" d="M20431.7,-36704.3 L1441.68,-36704.3 L1441.68,-34804.3 L1441.3,-34803.5 L1440.21,-34802.9 L1438.59,-34802.5 L1436.68,-34802.3 L941.678,-34802.3 L941.678,-32806.3 L1436.68,-32806.3 L1438.59,-32806.2 L1440.21,-32805.7 L1441.3,-32805.1 L1441.68,-32804.3 L1441.68,-30804.3 L1441.3,-30803.5 L1440.21,-30802.9 L1438.59,-30802.5 L1436.68,-30802.3 L941.678,-30802.3 L941.678,-28806.3 L1436.68,-28806.3 L1438.59,-28806.2 L1440.21,-28805.7 L1441.3,-28805.1 L1441.68,-28804.3 L1441.68,-26904.3 L20431.7,-26904.3 L20431.7,-28804.3 L20432.1,-28805.1 L20433.1,-28805.7 L20434.8,-28806.2 L20436.7,-28806.3 L20931.7,-28806.3 L20931.7,-30802.3 L20436.7,-30802.3 L20434.8,-30802.5 L20433.1,-30802.9 L20432.1,-30803.5 L20431.7,-30804.3 L20431.7,-32804.3 L20432.1,-32805.1 L20433.1,-32805.7 L20434.8,-32806.2 L20436.7,-32806.3 L20931.7,-32806.3 L20931.7,-34802.3 L20436.7,-34802.3 L20434.8,-34802.5 L20433.1,-34802.9 L20432.1,-34803.5 L20431.7,-34804.3 L20431.7,-36704.3"/>
</g>

<g fill="none" stroke="#000000" stroke-opacity="1" stroke-width="1" stroke-linecap="square" stroke-linejoin="bevel" transform="matrix(1,0,0,-1,39063.8,33196.2)"
font-family="MS Shell Dlg 2" font-size="10.3125" font-weight="400" font-style="normal" 
>
</g>

<g fill="none" stroke="#000000" stroke-opacity="1" stroke-width="1" stroke-linecap="square" stroke-linejoin="bevel" transform="matrix(1,0,0,-1,39063.8,33196.2)"
font-family="MS Shell Dlg 2" font-size="10.3125" font-weight="400" font-style="normal" 
>
</g>

<g fill="#ae5151" fill-opacity="0.500008" stroke="#333333" stroke-opacity="1" stroke-width="1" stroke-linecap="round" stroke-linejoin="round" transform="matrix(1,0,0,-1,39063.8,33196.2)"
font-family="MS Shell Dlg 2" font-size="10.3125" font-weight="400" font-style="normal" 
>
<path vector-effect="non-scaling-stroke" fill-rule="evenodd" d="M20941.7,-28802.3 L20941.7,-26903.3 L20974.9,-26896.7 L21007.4,-26875 L21029.1,-26842.6 L21036.7,-26804.3 L21029.1,-26766 L21007.4,-26733.6 L20974.9,-26711.9 L20936.7,-26704.3 L936.678,-26704.3 L-9058.32,-26704.3 L-9058.32,-22808.3 L-8563.32,-22808.3 L-8561.41,-22808 L-8559.79,-22807.1 L-8558.7,-22805.8 L-8558.32,-22804.3 L-8558.32,-10804.3 L-8558.7,-10802.8 L-8559.79,-10801.5 L-8561.41,-10800.6 L-8563.32,-10800.3 L-9058.32,-10800.3 L-9058.32,-6904.31 L936.678,-6904.31 L20936.7,-6904.31 L20974.9,-6896.7 L21007.4,-6875.02 L21029.1,-6842.58 L21036.7,-6804.31 L21029.1,-6766.04 L21007.4,-6733.6 L20974.9,-6711.92 L20941.7,-6705.3 L20941.7,-4806.31 L21436.7,-4806.31 L21438.6,-4806.16 L21440.2,-4805.72 L21441.3,-4805.07 L21441.7,-4804.31 L21441.7,1195.69 L21441.3,1196.46 L21440.2,1197.11 L21438.6,1197.54 L21436.7,1197.69 L20941.7,1197.69 L20941.7,3095.69 L40836.7,3095.69 L40836.7,-36704.3 L20941.7,-36704.3 L20941.7,-34806.3 L21436.7,-34806.3 L21438.6,-34806.2 L21440.2,-34805.7 L21441.3,-34805.1 L21441.7,-34804.3 L21441.7,-28804.3 L21441.3,-28803.5 L21440.2,-28802.9 L21438.6,-28802.5 L21436.7,-28802.3 L20941.7,-28802.3"/>
</g>

<g fill="none" stroke="#000000" stroke-opacity="1" stroke-width="1" stroke-linecap="square" stroke-linejoin="bevel" transform="matrix(1,0,0,-1,39063.8,33196.2)"
font-family="MS Shell Dlg 2" font-size="10.3125" font-weight="400" font-style="normal" 
>
</g>

<g fill="none" stroke="#000000" stroke-opacity="1" stroke-width="1" stroke-linecap="square" stroke-linejoin="bevel" transform="matrix(1,0,0,-1,39063.8,33196.2)"
font-family="MS Shell Dlg 2" font-size="10.3125" font-weight="400" font-style="normal" 
>
</g>

<g fill="#ae5151" fill-opacity="0.500008" stroke="#333333" stroke-opacity="1" stroke-width="1" stroke-linecap="round" stroke-linejoin="round" transform="matrix(1,0,0,-1,39063.8,33196.2)"
font-family="MS Shell Dlg 2" font-size="10.3125" font-weight="400" font-style="normal" 
>
<path vector-effect="non-scaling-stroke" fill-rule="evenodd" d="M-39063.3,33195.7 L60936.7,33195.7 L60936.7,-66804.3 L-39063.3,-66804.3 L-39063.3,33195.7 M-29068.3,-22808.3 L-29068.3,-26705.3 L-29101.6,-26711.9 L-29134,-26733.6 L-29155.7,-26766 L-29163.3,-26804.3 L-29155.7,-26842.6 L-29134,-26875 L-29101.6,-26896.7 L-29063.3,-26904.3 L-9063.32,-26904.3 L931.678,-26904.3 L931.678,-28802.3 L436.678,-28802.3 L434.764,-28802.5 L433.142,-28802.9 L432.058,-28803.5 L431.678,-28804.3 L431.678,-34804.3 L432.058,-34805.1 L433.142,-34805.7 L434.764,-34806.2 L436.678,-34806.3 L931.678,-34806.3 L931.678,-36705.3 L898.409,-36711.9 L865.967,-36733.6 L844.29,-36766 L836.678,-36804.3 L844.29,-36842.6 L865.967,-36875 L898.409,-36896.7 L936.678,-36904.3 L20936.7,-36904.3 L40936.7,-36904.3 L40974.9,-36896.7 L41007.4,-36875 L41029.1,-36842.6 L41036.7,-36804.3 L41036.7,3195.69 L41029.1,3233.96 L41007.4,3266.4 L40974.9,3288.08 L40936.7,3295.69 L20936.7,3295.69 L936.678,3295.69 L898.409,3288.08 L865.967,3266.4 L844.29,3233.96 L836.678,3195.69 L844.29,3157.42 L865.967,3124.98 L898.409,3103.3 L931.678,3096.69 L931.678,1197.69 L436.678,1197.69 L434.764,1197.54 L433.142,1197.11 L432.058,1196.46 L431.678,1195.69 L431.678,-4804.31 L432.058,-4805.07 L433.142,-4805.72 L434.764,-4806.16 L436.678,-4806.31 L931.678,-4806.31 L931.678,-6704.31 L-9063.32,-6704.31 L-29063.3,-6704.31 L-29101.6,-6711.92 L-29134,-6733.6 L-29155.7,-6766.04 L-29163.3,-6804.31 L-29155.7,-6842.58 L-29134,-6875.02 L-29101.6,-6896.7 L-29068.3,-6903.31 L-29068.3,-10800.3 L-29563.3,-10800.3 L-29565.2,-10800.6 L-29566.9,-10801.5 L-29567.9,-10802.8 L-29568.3,-10804.3 L-29568.3,-22804.3 L-29567.9,-22805.8 L-29566.9,-22807.1 L-29565.2,-22808 L-29563.3,-22808.3 L-29068.3,-22808.3"/>
</g>

<g fill="none" stroke="#000000" stroke-opacity="1" stroke-width="1" stroke-linecap="square" stroke-linejoin="bevel" transform="matrix(1,0,0,-1,39063.8,33196.2)"
font-family="MS Shell Dlg 2" font-size="10.3125" font-weight="400" font-style="normal" 
>
</g>

<g fill="none" stroke="#000000" stroke-opacity="1" stroke-width="1" stroke-linecap="square" stroke-linejoin="bevel" transform="matrix(1,0,0,-1,39063.8,33196.2)"
font-family="MS Shell Dlg 2" font-size="10.3125" font-weight="400" font-style="normal" 
>
</g>

<g fill="#ae5151" fill-opacity="0.500008" stroke="#333333" stroke-opacity="1" stroke-width="1" stroke-linecap="round" stroke-linejoin="round" transform="matrix(1,0,0,-1,39063.8,33196.2)"
font-family="MS Shell Dlg 2" font-size="10.3125" font-weight="400" font-style="normal" 
>
<path vector-effect="non-scaling-stroke" fill-rule="evenodd" d="M1441.68,3095.69 L20431.7,3095.69 L20431.7,1195.69 L20432.1,1194.93 L20433.1,1194.28 L20434.8,1193.84 L20436.7,1193.69 L20931.7,1193.69 L20931.7,-802.309 L20436.7,-802.309 L20434.8,-802.461 L20433.1,-802.895 L20432.1,-803.544 L20431.7,-804.309 L20431.7,-2804.31 L20432.1,-2805.07 L20433.1,-2805.72 L20434.8,-2806.16 L20436.7,-2806.31 L20931.7,-2806.31 L20931.7,-4802.31 L20436.7,-4802.31 L20434.8,-4802.46 L20433.1,-4802.89 L20432.1,-4803.54 L20431.7,-4804.31 L20431.7,-6704.31 L1441.68,-6704.31 L1441.68,-4804.31 L1441.3,-4803.54 L1440.21,-4802.89 L1438.59,-4802.46 L1436.68,-4802.31 L941.678,-4802.31 L941.678,-2806.31 L1436.68,-2806.31 L1438.59,-2806.16 L1440.21,-2805.72 L1441.3,-2805.07 L1441.68,-2804.31 L1441.68,-804.309 L1441.3,-803.544 L1440.21,-802.895 L1438.59,-802.461 L1436.68,-802.309 L941.678,-802.309 L941.678,1193.69 L1436.68,1193.69 L1438.59,1193.84 L1440.21,1194.28 L1441.3,1194.93 L1441.68,1195.69 L1441.68,3095.69"/>
</g>

<g fill="none" stroke="#000000" stroke-opacity="1" stroke-width="1" stroke-linecap="square" stroke-linejoin="bevel" transform="matrix(1,0,0,-1,39063.8,33196.2)"
font-family="MS Shell Dlg 2" font-size="10.3125" font-weight="400" font-style="normal" 
>
</g>

<g fill="none" stroke="#000000" stroke-opacity="1" stroke-width="1" stroke-linecap="square" stroke-linejoin="bevel" transform="matrix(1,0,0,-1,39063.8,33196.2)"
font-family="MS Shell Dlg 2" font-size="10.3125" font-weight="400" font-style="normal" 
>
</g>

<g fill="#ffff00" fill-opacity="0.500008" stroke="#333333" stroke-opacity="1" stroke-width="1" stroke-linecap="round" stroke-linejoin="round" transform="matrix(1,0,0,-1,39063.8,33196.2)"
font-family="MS Shell Dlg 2" font-size="10.3125" font-weight="400" font-style="normal" 
>
<path vector-effect="non-scaling-stroke" fill-rule="evenodd" d="M-39063.3,33195.7 L60936.7,33195.7 L60936.7,-66804.3 L-39063.3,-66804.3 L-39063.3,33195.7 M-29063.3,-6904.31 L-9063.32,-6904.31 L936.678,-6904.31 L20936.7,-6904.31 L20974.9,-6896.7 L21007.4,-6875.02 L21029.1,-6842.58 L21036.7,-6804.31 L21029.1,-6766.04 L21007.4,-6733.6 L20974.9,-6711.92 L20936.7,-6704.31 L936.678,-6704.31 L-9063.32,-6704.31 L-29063.3,-6704.31 L-29101.6,-6711.92 L-29134,-6733.6 L-29155.7,-6766.04 L-29163.3,-6804.31 L-29155.7,-6842.58 L-29134,-6875.02 L-29101.6,-6896.7 L-29063.3,-6904.31 M936.678,-802.309 L436.678,-802.309 L434.764,-802.461 L433.142,-802.895 L432.058,-803.544 L431.678,-804.309 L431.678,-2804.31 L432.058,-2805.07 L433.142,-2805.72 L434.764,-2806.16 L436.678,-2806.31 L936.678,-2806.31 L1436.68,-2806.31 L1438.59,-2806.16 L1440.21,-2805.72 L1441.3,-2805.07 L1441.68,-2804.31 L1441.68,-804.309 L1441.3,-803.544 L1440.21,-802.895 L1438.59,-802.461 L1436.68,-802.309 L936.678,-802.309 M20936.7,-2806.31 L21436.7,-2806.31 L21438.6,-2806.16 L21440.2,-2805.72 L21441.3,-2805.07 L21441.7,-2804.31 L21441.7,-804.309 L21441.3,-803.544 L21440.2,-802.895 L21438.6,-802.461 L21436.7,-802.309 L20936.7,-802.309 L20436.7,-802.309 L20434.8,-802.461 L20433.1,-802.895 L20432.1,-803.544 L20431.7,-804.309 L20431.7,-2804.31 L20432.1,-2805.07 L20433.1,-2805.72 L20434.8,-2806.16 L20436.7,-2806.31 L20936.7,-2806.31 M20936.7,-32806.3 L21436.7,-32806.3 L21438.6,-32806.2 L21440.2,-32805.7 L21441.3,-32805.1 L21441.7,-32804.3 L21441.7,-30804.3 L21441.3,-30803.5 L21440.2,-30802.9 L21438.6,-30802.5 L21436.7,-30802.3 L20936.7,-30802.3 L20436.7,-30802.3 L20434.8,-30802.5 L20433.1,-30802.9 L20432.1,-30803.5 L20431.7,-30804.3 L20431.7,-32804.3 L20432.1,-32805.1 L20433.1,-32805.7 L20434.8,-32806.2 L20436.7,-32806.3 L20936.7,-32806.3 M936.678,-30802.3 L436.678,-30802.3 L434.764,-30802.5 L433.142,-30802.9 L432.058,-30803.5 L431.678,-30804.3 L431.678,-32804.3 L432.058,-32805.1 L433.142,-32805.7 L434.764,-32806.2 L436.678,-32806.3 L936.678,-32806.3 L1436.68,-32806.3 L1438.59,-32806.2 L1440.21,-32805.7 L1441.3,-32805.1 L1441.68,-32804.3 L1441.68,-30804.3 L1441.3,-30803.5 L1440.21,-30802.9 L1438.59,-30802.5 L1436.68,-30802.3 L936.678,-30802.3 M-29063.3,-26704.3 L-29101.6,-26711.9 L-29134,-26733.6 L-29155.7,-26766 L-29163.3,-26804.3 L-29155.7,-26842.6 L-29134,-26875 L-29101.6,-26896.7 L-29063.3,-26904.3 L-9063.32,-26904.3 L936.678,-26904.3 L20936.7,-26904.3 L20974.9,-26896.7 L21007.4,-26875 L21029.1,-26842.6 L21036.7,-26804.3 L21029.1,-26766 L21007.4,-26733.6 L20974.9,-26711.9 L20936.7,-26704.3 L936.678,-26704.3 L-9063.32,-26704.3 L-29063.3,-26704.3 M-9063.32,-18808.3 L-8563.32,-18808.3 L-8561.41,-18808 L-8559.79,-18807.1 L-8558.7,-18805.8 L-8558.32,-18804.3 L-8558.32,-14804.3 L-8558.7,-14802.8 L-8559.79,-14801.5 L-8561.41,-14800.6 L-8563.32,-14800.3 L-9063.32,-14800.3 L-9563.32,-14800.3 L-9565.24,-14800.6 L-9566.86,-14801.5 L-9567.94,-14802.8 L-9568.32,-14804.3 L-9568.32,-18804.3 L-9567.94,-18805.8 L-9566.86,-18807.1 L-9565.24,-18808 L-9563.32,-18808.3 L-9063.32,-18808.3 M-29063.3,-14800.3 L-29563.3,-14800.3 L-29565.2,-14800.6 L-29566.9,-14801.5 L-29567.9,-14802.8 L-29568.3,-14804.3 L-29568.3,-18804.3 L-29567.9,-18805.8 L-29566.9,-18807.1 L-29565.2,-18808 L-29563.3,-18808.3 L-29063.3,-18808.3 L-28563.3,-18808.3 L-28561.4,-18808 L-28559.8,-18807.1 L-28558.7,-18805.8 L-28558.3,-18804.3 L-28558.3,-14804.3 L-28558.7,-14802.8 L-28559.8,-14801.5 L-28561.4,-14800.6 L-28563.3,-14800.3 L-29063.3,-14800.3 M936.678,-36704.3 L898.409,-36711.9 L865.967,-36733.6 L844.29,-36766 L836.678,-36804.3 L844.29,-36842.6 L865.967,-36875 L898.409,-36896.7 L936.678,-36904.3 L20936.7,-36904.3 L40936.7,-36904.3 L40974.9,-36896.7 L41007.4,-36875 L41029.1,-36842.6 L41036.7,-36804.3 L41036.7,3195.69 L41029.1,3233.96 L41007.4,3266.4 L40974.9,3288.08 L40936.7,3295.69 L20936.7,3295.69 L936.678,3295.69 L898.409,3288.08 L865.967,3266.4 L844.29,3233.96 L836.678,3195.69 L844.29,3157.42 L865.967,3124.98 L898.409,3103.3 L936.678,3095.69 L20936.7,3095.69 L40836.7,3095.69 L40836.7,-36704.3 L20936.7,-36704.3 L936.678,-36704.3"/>
</g>

<g fill="none" stroke="#000000" stroke-opacity="1" stroke-width="1" stroke-linecap="square" stroke-linejoin="bevel" transform="matrix(1,0,0,-1,39063.8,33196.2)"
font-family="MS Shell Dlg 2" font-size="10.3125" font-weight="400" font-style="normal" 
>
</g>

<g fill="none" stroke="#000000" stroke-opacity="1" stroke-width="1" stroke-linecap="square" stroke-linejoin="bevel" transform="matrix(1,0,0,-1,39063.8,33196.2)"
font-family="MS Shell Dlg 2" font-size="10.3125" font-weight="400" font-style="normal" 
>
</g>

<g fill="#ae5151" fill-opacity="0.500008" stroke="#333333" stroke-opacity="1" stroke-width="1" stroke-linecap="round" stroke-linejoin="round" transform="matrix(1,0,0,-1,39063.8,33196.2)"
font-family="MS Shell Dlg 2" font-size="10.3125" font-weight="400" font-style="normal" 
>
<path vector-effect="non-scaling-stroke" fill-rule="evenodd" d="M-29058.3,-22808.3 L-28563.3,-22808.3 L-28561.4,-22808 L-28559.8,-22807.1 L-28558.7,-22805.8 L-28558.3,-22804.3 L-28558.3,-10804.3 L-28558.7,-10802.8 L-28559.8,-10801.5 L-28561.4,-10800.6 L-28563.3,-10800.3 L-29058.3,-10800.3 L-29058.3,-6904.31 L-9068.32,-6904.31 L-9068.32,-10800.3 L-9563.32,-10800.3 L-9565.24,-10800.6 L-9566.86,-10801.5 L-9567.94,-10802.8 L-9568.32,-10804.3 L-9568.32,-22804.3 L-9567.94,-22805.8 L-9566.86,-22807.1 L-9565.24,-22808 L-9563.32,-22808.3 L-9068.32,-22808.3 L-9068.32,-26704.3 L-29058.3,-26704.3 L-29058.3,-22808.3"/>
</g>

<g fill="none" stroke="#000000" stroke-opacity="1" stroke-width="1" stroke-linecap="square" stroke-linejoin="bevel" transform="matrix(1,0,0,-1,39063.8,33196.2)"
font-family="MS Shell Dlg 2" font-size="10.3125" font-weight="400" font-style="normal" 
>
</g>

<g fill="none" stroke="#000000" stroke-opacity="1" stroke-width="1" stroke-linecap="square" stroke-linejoin="bevel" transform="matrix(1,0,0,-1,39063.8,33196.2)"
font-family="MS Shell Dlg 2" font-size="10.3125" font-weight="400" font-style="normal" 
>
</g>

<g fill="#ae5151" fill-opacity="0.500008" stroke="#333333" stroke-opacity="1" stroke-width="1" stroke-linecap="round" stroke-linejoin="round" transform="matrix(1,0,0,-1,39063.8,33196.2)"
font-family="MS Shell Dlg 2" font-size="10.3125" font-weight="400" font-style="normal" 
>
<path vector-effect="non-scaling-stroke" fill-rule="evenodd" d="M20931.7,-28802.3 L20436.7,-28802.3 L20434.8,-28802.5 L20433.1,-28802.9 L20432.1,-28803.5 L20431.7,-28804.3 L20431.7,-34804.3 L20432.1,-34805.1 L20433.1,-34805.7 L20434.8,-34806.2 L20436.7,-34806.3 L20931.7,-34806.3 L20931.7,-36704.3 L941.678,-36704.3 L941.678,-34806.3 L1436.68,-34806.3 L1438.59,-34806.2 L1440.21,-34805.7 L1441.3,-34805.1 L1441.68,-34804.3 L1441.68,-28804.3 L1441.3,-28803.5 L1440.21,-28802.9 L1438.59,-28802.5 L1436.68,-28802.3 L941.678,-28802.3 L941.678,-26904.3 L20931.7,-26904.3 L20931.7,-28802.3"/>
</g>

<g fill="none" stroke="#000000" stroke-opacity="1" stroke-width="1" stroke-linecap="square" stroke-linejoin="bevel" transform="matrix(1,0,0,-1,39063.8,33196.2)"
font-family="MS Shell Dlg 2" font-size="10.3125" font-weight="400" font-style="normal" 
>
</g>

<g fill="none" stroke="#000000" stroke-opacity="1" stroke-width="1" stroke-linecap="square" stroke-linejoin="bevel" transform="matrix(1,0,0,-1,39063.8,33196.2)"
font-family="MS Shell Dlg 2" font-size="10.3125" font-weight="400" font-style="normal" 
>
</g>

<g fill="#ae5151" fill-opacity="0.500008" stroke="#333333" stroke-opacity="1" stroke-width="1" stroke-linecap="round" stroke-linejoin="round" transform="matrix(1,0,0,-1,39063.8,33196.2)"
font-family="MS Shell Dlg 2" font-size="10.3125" font-weight="400" font-style="normal" 
>
<path vector-effect="non-scaling-stroke" fill-rule="evenodd" d="M21036.3,-26802.3 L21029.1,-26766 L21007.4,-26733.6 L20974.9,-26711.9 L20936.7,-26704.3 L936.678,-26704.3 L-8558.32,-26704.3 L-8558.32,-22804.3 L-8558.7,-22802.8 L-8559.79,-22801.5 L-8561.41,-22800.6 L-8563.32,-22800.3 L-9058.32,-22800.3 L-9058.32,-18808.3 L-8563.32,-18808.3 L-8561.41,-18808 L-8559.79,-18807.1 L-8558.7,-18805.8 L-8558.32,-18804.3 L-8558.32,-14804.3 L-8558.7,-14802.8 L-8559.79,-14801.5 L-8561.41,-14800.6 L-8563.32,-14800.3 L-9058.32,-14800.3 L-9058.32,-10808.3 L-8563.32,-10808.3 L-8561.41,-10808 L-8559.79,-10807.1 L-8558.7,-10805.8 L-8558.32,-10804.3 L-8558.32,-6904.31 L936.678,-6904.31 L20936.7,-6904.31 L20974.9,-6896.7 L21007.4,-6875.02 L21029.1,-6842.58 L21036.3,-6806.31 L21436.7,-6806.31 L21438.6,-6806.16 L21440.2,-6805.72 L21441.3,-6805.07 L21441.7,-6804.31 L21441.7,-4804.31 L21441.3,-4803.54 L21440.2,-4802.89 L21438.6,-4802.46 L21436.7,-4802.31 L20941.7,-4802.31 L20941.7,-2806.31 L21436.7,-2806.31 L21438.6,-2806.16 L21440.2,-2805.72 L21441.3,-2805.07 L21441.7,-2804.31 L21441.7,-804.309 L21441.3,-803.544 L21440.2,-802.895 L21438.6,-802.461 L21436.7,-802.309 L20941.7,-802.309 L20941.7,1193.69 L21436.7,1193.69 L21438.6,1193.84 L21440.2,1194.28 L21441.3,1194.93 L21441.7,1195.69 L21441.7,3095.69 L40836.7,3095.69 L40836.7,-36704.3 L21441.7,-36704.3 L21441.7,-34804.3 L21441.3,-34803.5 L21440.2,-34802.9 L21438.6,-34802.5 L21436.7,-34802.3 L20941.7,-34802.3 L20941.7,-32806.3 L21436.7,-32806.3 L21438.6,-32806.2 L21440.2,-32805.7 L21441.3,-32805.1 L21441.7,-32804.3 L21441.7,-30804.3 L21441.3,-30803.5 L21440.2,-30802.9 L21438.6,-30802.5 L21436.7,-30802.3 L20941.7,-30802.3 L20941.7,-28806.3 L21436.7,-28806.3 L21438.6,-28806.2 L21440.2,-28805.7 L21441.3,-28805.1 L21441.7,-28804.3 L21441.7,-26804.3 L21441.3,-26803.5 L21440.2,-26802.9 L21438.6,-26802.5 L21436.7,-26802.3 L21036.3,-26802.3"/>
</g>

<g fill="none" stroke="#000000" stroke-opacity="1" stroke-width="1" stroke-linecap="square" stroke-linejoin="bevel" transform="matrix(1,0,0,-1,39063.8,33196.2)"
font-family="MS Shell Dlg 2" font-size="10.3125" font-weight="400" font-style="normal" 
>
</g>

<g fill="none" stroke="#000000" stroke-opacity="1" stroke-width="1" stroke-linecap="square" stroke-linejoin="bevel" transform="matrix(1,0,0,-1,39063.8,33196.2)"
font-family="MS Shell Dlg 2" font-size="10.3125" font-weight="400" font-style="normal" 
>
</g>

<g fill="#ae5151" fill-opacity="0.500008" stroke="#333333" stroke-opacity="1" stroke-width="1" stroke-linecap="round" stroke-linejoin="round" transform="matrix(1,0,0,-1,39063.8,33196.2)"
font-family="MS Shell Dlg 2" font-size="10.3125" font-weight="400" font-style="normal" 
>
<path vector-effect="non-scaling-stroke" fill-rule="evenodd" d="M-39063.3,33195.7 L60936.7,33195.7 L60936.7,-66804.3 L-39063.3,-66804.3 L-39063.3,33195.7 M-29162.5,-26808.3 L-29155.7,-26842.6 L-29134,-26875 L-29101.6,-26896.7 L-29063.3,-26904.3 L-9063.32,-26904.3 L431.678,-26904.3 L431.678,-28804.3 L432.058,-28805.1 L433.142,-28805.7 L434.764,-28806.2 L436.678,-28806.3 L931.678,-28806.3 L931.678,-30802.3 L436.678,-30802.3 L434.764,-30802.5 L433.142,-30802.9 L432.058,-30803.5 L431.678,-30804.3 L431.678,-32804.3 L432.058,-32805.1 L433.142,-32805.7 L434.764,-32806.2 L436.678,-32806.3 L931.678,-32806.3 L931.678,-34802.3 L436.678,-34802.3 L434.764,-34802.5 L433.142,-34802.9 L432.058,-34803.5 L431.678,-34804.3 L431.678,-36804.3 L432.058,-36805.1 L433.142,-36805.7 L434.764,-36806.2 L436.678,-36806.3 L837.076,-36806.3 L844.29,-36842.6 L865.967,-36875 L898.409,-36896.7 L936.678,-36904.3 L20936.7,-36904.3 L40936.7,-36904.3 L40974.9,-36896.7 L41007.4,-36875 L41029.1,-36842.6 L41036.7,-36804.3 L41036.7,3195.69 L41029.1,3233.96 L41007.4,3266.4 L40974.9,3288.08 L40936.7,3295.69 L20936.7,3295.69 L936.678,3295.69 L898.409,3288.08 L865.967,3266.4 L844.29,3233.96 L837.076,3197.69 L436.678,3197.69 L434.764,3197.54 L433.142,3197.11 L432.058,3196.46 L431.678,3195.69 L431.678,1195.69 L432.058,1194.93 L433.142,1194.28 L434.764,1193.84 L436.678,1193.69 L931.678,1193.69 L931.678,-802.309 L436.678,-802.309 L434.764,-802.461 L433.142,-802.895 L432.058,-803.544 L431.678,-804.309 L431.678,-2804.31 L432.058,-2805.07 L433.142,-2805.72 L434.764,-2806.16 L436.678,-2806.31 L931.678,-2806.31 L931.678,-4802.31 L436.678,-4802.31 L434.764,-4802.46 L433.142,-4802.89 L432.058,-4803.54 L431.678,-4804.31 L431.678,-6704.31 L-9063.32,-6704.31 L-29063.3,-6704.31 L-29101.6,-6711.92 L-29134,-6733.6 L-29155.7,-6766.04 L-29162.5,-6800.31 L-29563.3,-6800.31 L-29565.2,-6800.61 L-29566.9,-6801.48 L-29567.9,-6802.78 L-29568.3,-6804.31 L-29568.3,-10804.3 L-29567.9,-10805.8 L-29566.9,-10807.1 L-29565.2,-10808 L-29563.3,-10808.3 L-29068.3,-10808.3 L-29068.3,-14800.3 L-29563.3,-14800.3 L-29565.2,-14800.6 L-29566.9,-14801.5 L-29567.9,-14802.8 L-29568.3,-14804.3 L-29568.3,-18804.3 L-29567.9,-18805.8 L-29566.9,-18807.1 L-29565.2,-18808 L-29563.3,-18808.3 L-29068.3,-18808.3 L-29068.3,-22800.3 L-29563.3,-22800.3 L-29565.2,-22800.6 L-29566.9,-22801.5 L-29567.9,-22802.8 L-29568.3,-22804.3 L-29568.3,-26804.3 L-29567.9,-26805.8 L-29566.9,-26807.1 L-29565.2,-26808 L-29563.3,-26808.3 L-29162.5,-26808.3"/>
</g>

<g fill="none" stroke="#000000" stroke-opacity="1" stroke-width="1" stroke-linecap="square" stroke-linejoin="bevel" transform="matrix(1,0,0,-1,39063.8,33196.2)"
font-family="MS Shell Dlg 2" font-size="10.3125" font-weight="400" font-style="normal" 
>
</g>

<g fill="none" stroke="#000000" stroke-opacity="1" stroke-width="1" stroke-linecap="square" stroke-linejoin="bevel" transform="matrix(1,0,0,-1,39063.8,33196.2)"
font-family="MS Shell Dlg 2" font-size="10.3125" font-weight="400" font-style="normal" 
>
</g>

<g fill="#ae5151" fill-opacity="0.500008" stroke="#333333" stroke-opacity="1" stroke-width="1" stroke-linecap="round" stroke-linejoin="round" transform="matrix(1,0,0,-1,39063.8,33196.2)"
font-family="MS Shell Dlg 2" font-size="10.3125" font-weight="400" font-style="normal" 
>
<path vector-effect="non-scaling-stroke" fill-rule="evenodd" d="M941.678,-4806.31 L1436.68,-4806.31 L1438.59,-4806.16 L1440.21,-4805.72 L1441.3,-4805.07 L1441.68,-4804.31 L1441.68,1195.69 L1441.3,1196.46 L1440.21,1197.11 L1438.59,1197.54 L1436.68,1197.69 L941.678,1197.69 L941.678,3095.69 L20931.7,3095.69 L20931.7,1197.69 L20436.7,1197.69 L20434.8,1197.54 L20433.1,1197.11 L20432.1,1196.46 L20431.7,1195.69 L20431.7,-4804.31 L20432.1,-4805.07 L20433.1,-4805.72 L20434.8,-4806.16 L20436.7,-4806.31 L20931.7,-4806.31 L20931.7,-6704.31 L941.678,-6704.31 L941.678,-4806.31"/>
</g>

<g fill="none" stroke="#000000" stroke-opacity="1" stroke-width="1" stroke-linecap="square" stroke-linejoin="bevel" transform="matrix(1,0,0,-1,39063.8,33196.2)"
font-family="MS Shell Dlg 2" font-size="10.3125" font-weight="400" font-style="normal" 
>
</g>

<g fill="none" stroke="#000000" stroke-opacity="1" stroke-width="1" stroke-linecap="square" stroke-linejoin="bevel" transform="matrix(1,0,0,-1,39063.8,33196.2)"
font-family="MS Shell Dlg 2" font-size="10.3125" font-weight="400" font-style="normal" 
>
</g>

<g fill="#333333" fill-opacity="0.500008" stroke="#333333" stroke-opacity="1" stroke-width="1" stroke-linecap="round" stroke-linejoin="round" transform="matrix(1,0,0,-1,39063.8,33196.2)"
font-family="MS Shell Dlg 2" font-size="10.3125" font-weight="400" font-style="normal" 
>
<path vector-effect="non-scaling-stroke" fill-rule="evenodd" d="M-29058.3,-22808.3 L-28563.3,-22808.3 L-28561.4,-22808 L-28559.8,-22807.1 L-28558.7,-22805.8 L-28558.3,-22804.3 L-28558.3,-10804.3 L-28558.7,-10802.8 L-28559.8,-10801.5 L-28561.4,-10800.6 L-28563.3,-10800.3 L-29058.3,-10800.3 L-29058.3,-6904.31 L-9068.32,-6904.31 L-9068.32,-10800.3 L-9563.32,-10800.3 L-9565.24,-10800.6 L-9566.86,-10801.5 L-9567.94,-10802.8 L-9568.32,-10804.3 L-9568.32,-22804.3 L-9567.94,-22805.8 L-9566.86,-22807.1 L-9565.24,-22808 L-9563.32,-22808.3 L-9068.32,-22808.3 L-9068.32,-26704.3 L-29058.3,-26704.3 L-29058.3,-22808.3"/>
</g>

<g fill="none" stroke="#000000" stroke-opacity="1" stroke-width="1" stroke-linecap="square" stroke-linejoin="bevel" transform="matrix(1,0,0,-1,39063.8,33196.2)"
font-family="MS Shell Dlg 2" font-size="10.3125" font-weight="400" font-style="normal" 
>
</g>

<g fill="none" stroke="#000000" stroke-opacity="1" stroke-width="1" stroke-linecap="square" stroke-linejoin="bevel" transform="matrix(1,0,0,-1,39063.8,33196.2)"
font-family="MS Shell Dlg 2" font-size="10.3125" font-weight="400" font-style="normal" 
>
</g>

<g fill="#333333" fill-opacity="0.500008" stroke="#333333" stroke-opacity="1" stroke-width="1" stroke-linecap="round" stroke-linejoin="round" transform="matrix(1,0,0,-1,39063.8,33196.2)"
font-family="MS Shell Dlg 2" font-size="10.3125" font-weight="400" font-style="normal" 
>
<path vector-effect="non-scaling-stroke" fill-rule="evenodd" d="M20931.7,-28802.3 L20436.7,-28802.3 L20434.8,-28802.5 L20433.1,-28802.9 L20432.1,-28803.5 L20431.7,-28804.3 L20431.7,-34804.3 L20432.1,-34805.1 L20433.1,-34805.7 L20434.8,-34806.2 L20436.7,-34806.3 L20931.7,-34806.3 L20931.7,-36704.3 L941.678,-36704.3 L941.678,-34806.3 L1436.68,-34806.3 L1438.59,-34806.2 L1440.21,-34805.7 L1441.3,-34805.1 L1441.68,-34804.3 L1441.68,-28804.3 L1441.3,-28803.5 L1440.21,-28802.9 L1438.59,-28802.5 L1436.68,-28802.3 L941.678,-28802.3 L941.678,-26904.3 L20931.7,-26904.3 L20931.7,-28802.3"/>
</g>

<g fill="none" stroke="#000000" stroke-opacity="1" stroke-width="1" stroke-linecap="square" stroke-linejoin="bevel" transform="matrix(1,0,0,-1,39063.8,33196.2)"
font-family="MS Shell Dlg 2" font-size="10.3125" font-weight="400" font-style="normal" 
>
</g>

<g fill="none" stroke="#000000" stroke-opacity="1" stroke-width="1" stroke-linecap="square" stroke-linejoin="bevel" transform="matrix(1,0,0,-1,39063.8,33196.2)"
font-family="MS Shell Dlg 2" font-size="10.3125" font-weight="400" font-style="normal" 
>
</g>

<g fill="#333333" fill-opacity="0.500008" stroke="#333333" stroke-opacity="1" stroke-width="1" stroke-linecap="round" stroke-linejoin="round" transform="matrix(1,0,0,-1,39063.8,33196.2)"
font-family="MS Shell Dlg 2" font-size="10.3125" font-weight="400" font-style="normal" 
>
<path vector-effect="non-scaling-stroke" fill-rule="evenodd" d="M21036.3,-26802.3 L21029.1,-26766 L21007.4,-26733.6 L20974.9,-26711.9 L20936.7,-26704.3 L936.678,-26704.3 L-8558.32,-26704.3 L-8558.32,-22804.3 L-8558.7,-22802.8 L-8559.79,-22801.5 L-8561.41,-22800.6 L-8563.32,-22800.3 L-9058.32,-22800.3 L-9058.32,-18808.3 L-8563.32,-18808.3 L-8561.41,-18808 L-8559.79,-18807.1 L-8558.7,-18805.8 L-8558.32,-18804.3 L-8558.32,-14804.3 L-8558.7,-14802.8 L-8559.79,-14801.5 L-8561.41,-14800.6 L-8563.32,-14800.3 L-9058.32,-14800.3 L-9058.32,-10808.3 L-8563.32,-10808.3 L-8561.41,-10808 L-8559.79,-10807.1 L-8558.7,-10805.8 L-8558.32,-10804.3 L-8558.32,-6904.31 L936.678,-6904.31 L20936.7,-6904.31 L20974.9,-6896.7 L21007.4,-6875.02 L21029.1,-6842.58 L21036.3,-6806.31 L21436.7,-6806.31 L21438.6,-6806.16 L21440.2,-6805.72 L21441.3,-6805.07 L21441.7,-6804.31 L21441.7,-4804.31 L21441.3,-4803.54 L21440.2,-4802.89 L21438.6,-4802.46 L21436.7,-4802.31 L20941.7,-4802.31 L20941.7,-2806.31 L21436.7,-2806.31 L21438.6,-2806.16 L21440.2,-2805.72 L21441.3,-2805.07 L21441.7,-2804.31 L21441.7,-804.309 L21441.3,-803.544 L21440.2,-802.895 L21438.6,-802.461 L21436.7,-802.309 L20941.7,-802.309 L20941.7,1193.69 L21436.7,1193.69 L21438.6,1193.84 L21440.2,1194.28 L21441.3,1194.93 L21441.7,1195.69 L21441.7,3095.69 L40836.7,3095.69 L40836.7,-36704.3 L21441.7,-36704.3 L21441.7,-34804.3 L21441.3,-34803.5 L21440.2,-34802.9 L21438.6,-34802.5 L21436.7,-34802.3 L20941.7,-34802.3 L20941.7,-32806.3 L21436.7,-32806.3 L21438.6,-32806.2 L21440.2,-32805.7 L21441.3,-32805.1 L21441.7,-32804.3 L21441.7,-30804.3 L21441.3,-30803.5 L21440.2,-30802.9 L21438.6,-30802.5 L21436.7,-30802.3 L20941.7,-30802.3 L20941.7,-28806.3 L21436.7,-28806.3 L21438.6,-28806.2 L21440.2,-28805.7 L21441.3,-28805.1 L21441.7,-28804.3 L21441.7,-26804.3 L21441.3,-26803.5 L21440.2,-26802.9 L21438.6,-26802.5 L21436.7,-26802.3 L21036.3,-26802.3"/>
</g>

<g fill="none" stroke="#000000" stroke-opacity="1" stroke-width="1" stroke-linecap="square" stroke-linejoin="bevel" transform="matrix(1,0,0,-1,39063.8,33196.2)"
font-family="MS Shell Dlg 2" font-size="10.3125" font-weight="400" font-style="normal" 
>
</g>

<g fill="none" stroke="#000000" stroke-opacity="1" stroke-width="1" stroke-linecap="square" stroke-linejoin="bevel" transform="matrix(1,0,0,-1,39063.8,33196.2)"
font-family="MS Shell Dlg 2" font-size="10.3125" font-weight="400" font-style="normal" 
>
</g>

<g fill="#333333" fill-opacity="0.500008" stroke="#333333" stroke-opacity="1" stroke-width="1" stroke-linecap="round" stroke-linejoin="round" transform="matrix(1,0,0,-1,39063.8,33196.2)"
font-family="MS Shell Dlg 2" font-size="10.3125" font-weight="400" font-style="normal" 
>
<path vector-effect="non-scaling-stroke" fill-rule="evenodd" d="M-39063.3,33195.7 L60936.7,33195.7 L60936.7,-66804.3 L-39063.3,-66804.3 L-39063.3,33195.7 M-29162.5,-26808.3 L-29155.7,-26842.6 L-29134,-26875 L-29101.6,-26896.7 L-29063.3,-26904.3 L-9063.32,-26904.3 L431.678,-26904.3 L431.678,-28804.3 L432.058,-28805.1 L433.142,-28805.7 L434.764,-28806.2 L436.678,-28806.3 L931.678,-28806.3 L931.678,-30802.3 L436.678,-30802.3 L434.764,-30802.5 L433.142,-30802.9 L432.058,-30803.5 L431.678,-30804.3 L431.678,-32804.3 L432.058,-32805.1 L433.142,-32805.7 L434.764,-32806.2 L436.678,-32806.3 L931.678,-32806.3 L931.678,-34802.3 L436.678,-34802.3 L434.764,-34802.5 L433.142,-34802.9 L432.058,-34803.5 L431.678,-34804.3 L431.678,-36804.3 L432.058,-36805.1 L433.142,-36805.7 L434.764,-36806.2 L436.678,-36806.3 L837.076,-36806.3 L844.29,-36842.6 L865.967,-36875 L898.409,-36896.7 L936.678,-36904.3 L20936.7,-36904.3 L40936.7,-36904.3 L40974.9,-36896.7 L41007.4,-36875 L41029.1,-36842.6 L41036.7,-36804.3 L41036.7,3195.69 L41029.1,3233.96 L41007.4,3266.4 L40974.9,3288.08 L40936.7,3295.69 L20936.7,3295.69 L936.678,3295.69 L898.409,3288.08 L865.967,3266.4 L844.29,3233.96 L837.076,3197.69 L436.678,3197.69 L434.764,3197.54 L433.142,3197.11 L432.058,3196.46 L431.678,3195.69 L431.678,1195.69 L432.058,1194.93 L433.142,1194.28 L434.764,1193.84 L436.678,1193.69 L931.678,1193.69 L931.678,-802.309 L436.678,-802.309 L434.764,-802.461 L433.142,-802.895 L432.058,-803.544 L431.678,-804.309 L431.678,-2804.31 L432.058,-2805.07 L433.142,-2805.72 L434.764,-2806.16 L436.678,-2806.31 L931.678,-2806.31 L931.678,-4802.31 L436.678,-4802.31 L434.764,-4802.46 L433.142,-4802.89 L432.058,-4803.54 L431.678,-4804.31 L431.678,-6704.31 L-9063.32,-6704.31 L-29063.3,-6704.31 L-29101.6,-6711.92 L-29134,-6733.6 L-29155.7,-6766.04 L-29162.5,-6800.31 L-29563.3,-6800.31 L-29565.2,-6800.61 L-29566.9,-6801.48 L-29567.9,-6802.78 L-29568.3,-6804.31 L-29568.3,-10804.3 L-29567.9,-10805.8 L-29566.9,-10807.1 L-29565.2,-10808 L-29563.3,-10808.3 L-29068.3,-10808.3 L-29068.3,-14800.3 L-29563.3,-14800.3 L-29565.2,-14800.6 L-29566.9,-14801.5 L-29567.9,-14802.8 L-29568.3,-14804.3 L-29568.3,-18804.3 L-29567.9,-18805.8 L-29566.9,-18807.1 L-29565.2,-18808 L-29563.3,-18808.3 L-29068.3,-18808.3 L-29068.3,-22800.3 L-29563.3,-22800.3 L-29565.2,-22800.6 L-29566.9,-22801.5 L-29567.9,-22802.8 L-29568.3,-22804.3 L-29568.3,-26804.3 L-29567.9,-26805.8 L-29566.9,-26807.1 L-29565.2,-26808 L-29563.3,-26808.3 L-29162.5,-26808.3"/>
</g>

<g fill="none" stroke="#000000" stroke-opacity="1" stroke-width="1" stroke-linecap="square" stroke-linejoin="bevel" transform="matrix(1,0,0,-1,39063.8,33196.2)"
font-family="MS Shell Dlg 2" font-size="10.3125" font-weight="400" font-style="normal" 
>
</g>

<g fill="none" stroke="#000000" stroke-opacity="1" stroke-width="1" stroke-linecap="square" stroke-linejoin="bevel" transform="matrix(1,0,0,-1,39063.8,33196.2)"
font-family="MS Shell Dlg 2" font-size="10.3125" font-weight="400" font-style="normal" 
>
</g>

<g fill="#333333" fill-opacity="0.500008" stroke="#333333" stroke-opacity="1" stroke-width="1" stroke-linecap="round" stroke-linejoin="round" transform="matrix(1,0,0,-1,39063.8,33196.2)"
font-family="MS Shell Dlg 2" font-size="10.3125" font-weight="400" font-style="normal" 
>
<path vector-effect="non-scaling-stroke" fill-rule="evenodd" d="M941.678,-4806.31 L1436.68,-4806.31 L1438.59,-4806.16 L1440.21,-4805.72 L1441.3,-4805.07 L1441.68,-4804.31 L1441.68,1195.69 L1441.3,1196.46 L1440.21,1197.11 L1438.59,1197.54 L1436.68,1197.69 L941.678,1197.69 L941.678,3095.69 L20931.7,3095.69 L20931.7,1197.69 L20436.7,1197.69 L20434.8,1197.54 L20433.1,1197.11 L20432.1,1196.46 L20431.7,1195.69 L20431.7,-4804.31 L20432.1,-4805.07 L20433.1,-4805.72 L20434.8,-4806.16 L20436.7,-4806.31 L20931.7,-4806.31 L20931.7,-6704.31 L941.678,-6704.31 L941.678,-4806.31"/>
</g>

<g fill="none" stroke="#000000" stroke-opacity="1" stroke-width="1" stroke-linecap="square" stroke-linejoin="bevel" transform="matrix(1,0,0,-1,39063.8,33196.2)"
font-family="MS Shell Dlg 2" font-size="10.3125" font-weight="400" font-style="normal" 
>
</g>

<g fill="none" stroke="#000000" stroke-opacity="1" stroke-width="1" stroke-linecap="square" stroke-linejoin="bevel" transform="matrix(1,0,0,-1,39063.8,33196.2)"
font-family="MS Shell Dlg 2" font-size="10.3125" font-weight="400" font-style="normal" 
>
</g>

<g fill="#ae5151" fill-opacity="0.500008" stroke="#333333" stroke-opacity="1" stroke-width="1" stroke-linecap="round" stroke-linejoin="round" transform="matrix(1,0,0,-1,39063.8,33196.2)"
font-family="MS Shell Dlg 2" font-size="10.3125" font-weight="400" font-style="normal" 
>
<path vector-effect="non-scaling-stroke" fill-rule="evenodd" d="M-28558.3,-26704.3 L-28558.3,-22804.3 L-28558.3,-10804.3 L-28558.3,-6904.31 L-9068.32,-6904.31 L-9068.32,-10800.3 L-9563.32,-10800.3 L-9565.24,-10800.6 L-9566.86,-10801.5 L-9567.94,-10802.8 L-9568.32,-10804.3 L-9568.32,-17625.3 L-9568.32,-14011.7 L-11603.4,-13947.8 L-11728.9,-13951.8 L-13361.6,-14106.1 L-13569.8,-14148.5 L-14276.9,-14372.8 L-14639.5,-14579 L-14990.4,-14891.4 L-15235.6,-15224 L-15325.5,-15627.2 L-15329.9,-16027.3 L-15285.1,-16334.8 L-15148,-16613.7 L-14804.7,-17101.7 L-14468.1,-17403 L-14033.1,-17525.4 L-12582.6,-17592.7 L-15126.2,-18577.4 L-15493.4,-18824.5 L-15717.9,-19205.9 L-15755.8,-19646.8 L-15665.2,-20302.7 L-15548.1,-20652.5 L-15312.2,-20936.1 L-14935,-21248.4 L-14659.2,-21410.2 L-14346.5,-21476.8 L-13685.9,-21509.3 L-13357.6,-21470.7 L-9568.32,-20369 L-9568.32,-22804.3 L-9567.94,-22805.8 L-9566.86,-22807.1 L-9565.24,-22808 L-9563.32,-22808.3 L-9068.32,-22808.3 L-9068.32,-26704.3 L-28558.3,-26704.3"/>
</g>

<g fill="none" stroke="#000000" stroke-opacity="1" stroke-width="1" stroke-linecap="square" stroke-linejoin="bevel" transform="matrix(1,0,0,-1,39063.8,33196.2)"
font-family="MS Shell Dlg 2" font-size="10.3125" font-weight="400" font-style="normal" 
>
</g>

<g fill="none" stroke="#000000" stroke-opacity="1" stroke-width="1" stroke-linecap="square" stroke-linejoin="bevel" transform="matrix(1,0,0,-1,39063.8,33196.2)"
font-family="MS Shell Dlg 2" font-size="10.3125" font-weight="400" font-style="normal" 
>
</g>

<g fill="#ae5151" fill-opacity="0.500008" stroke="#333333" stroke-opacity="1" stroke-width="1" stroke-linecap="round" stroke-linejoin="round" transform="matrix(1,0,0,-1,39063.8,33196.2)"
font-family="MS Shell Dlg 2" font-size="10.3125" font-weight="400" font-style="normal" 
>
<path vector-effect="non-scaling-stroke" fill-rule="evenodd" d="M-29068.3,-66804.3 L-39063.3,-66804.3 L-39063.3,33195.7 L-29068.3,33195.7 L-29068.3,13215.7 L-29563.3,13215.7 L-29565.2,13214.2 L-29566.9,13209.8 L-29567.9,13203.3 L-29568.3,13195.7 L-29568.3,-6804.31 L-29568.3,-10804.3 L-29568.3,-14804.3 L-29568.3,-18804.3 L-29568.3,-22804.3 L-29568.3,-26804.3 L-29568.3,-46804.3 L-29567.9,-46812 L-29566.9,-46818.5 L-29565.2,-46822.8 L-29563.3,-46824.3 L-29068.3,-46824.3 L-29068.3,-66804.3"/>
</g>

<g fill="none" stroke="#000000" stroke-opacity="1" stroke-width="1" stroke-linecap="square" stroke-linejoin="bevel" transform="matrix(1,0,0,-1,39063.8,33196.2)"
font-family="MS Shell Dlg 2" font-size="10.3125" font-weight="400" font-style="normal" 
>
</g>

<g fill="none" stroke="#000000" stroke-opacity="1" stroke-width="1" stroke-linecap="square" stroke-linejoin="bevel" transform="matrix(1,0,0,-1,39063.8,33196.2)"
font-family="MS Shell Dlg 2" font-size="10.3125" font-weight="400" font-style="normal" 
>
</g>

<g fill="#333333" fill-opacity="0.500008" stroke="#333333" stroke-opacity="1" stroke-width="1" stroke-linecap="round" stroke-linejoin="round" transform="matrix(1,0,0,-1,39063.8,33196.2)"
font-family="MS Shell Dlg 2" font-size="10.3125" font-weight="400" font-style="normal" 
>
<path vector-effect="non-scaling-stroke" fill-rule="evenodd" d="M60936.7,33195.7 L60936.7,-66804.3 L-28558.3,-66804.3 L-28558.3,-46804.3 L-28558.7,-46796.7 L-28559.8,-46790.2 L-28561.4,-46785.8 L-28563.3,-46784.3 L-29058.3,-46784.3 L-29058.3,-26824.3 L-28563.3,-26824.3 L-28561.4,-26822.8 L-28559.8,-26818.5 L-28558.7,-26812 L-28558.3,-26804.3 L-28558.3,-6804.31 L-28558.7,-6796.66 L-28559.8,-6790.17 L-28561.4,-6785.83 L-28563.3,-6784.31 L-29058.3,-6784.31 L-29058.3,13175.7 L-28563.3,13175.7 L-28561.4,13177.2 L-28559.8,13181.5 L-28558.7,13188 L-28558.3,13195.7 L-28558.3,33195.7 L60936.7,33195.7 M-12582.6,-17592.7 L-15126.2,-18577.4 L-15493.4,-18824.5 L-15717.9,-19205.9 L-15755.8,-19646.8 L-15665.2,-20302.7 L-15548.1,-20652.5 L-15312.2,-20936.1 L-14935,-21248.4 L-14659.2,-21410.2 L-14346.5,-21476.8 L-13685.9,-21509.3 L-13357.6,-21470.7 L-8697.62,-20115.9 L-2727.11,-19608.3 L-1628.72,-19651.9 L-4273.94,-20266.5 L-4546.96,-20374.1 L-4776.98,-20556.4 L-5138.2,-20941.5 L-5328.59,-21233.1 L-5407.42,-21572.3 L-5434.65,-22082.4 L-5347.15,-22547.9 L-5055.21,-22921 L-4794.02,-23126.9 L-4303.27,-23333.3 L-2149.4,-23612.2 L-1634.02,-23542.5 L1327.6,-22299.6 L1939.87,-22245.2 L2005.19,-22291.6 L2474.17,-23189.6 L2668.51,-23448.6 L2935.38,-23631.8 L4251.34,-24250 L4251.74,-24592.5 L4302.96,-24907.2 L4450.65,-25189.8 L4810.2,-25671.1 L4964.9,-25793.7 L3018.41,-26389.5 L-264.396,-26399.5 L-517.639,-26432.9 L-1946.08,-26811.6 L-2261.64,-26957.8 L-2508.03,-27203.3 L-2655.44,-27518.3 L-2765.84,-27928.6 L-2798.09,-28253.4 L-2724.01,-28571.3 L-2551.5,-28848.4 L-2082.72,-29382.1 L-1825.92,-29591.3 L-1514.87,-29705.1 L1512.8,-30270.1 L-850.886,-30891.1 L-1030.45,-30957.2 L-1955.06,-31402.1 L-2266.31,-31636 L-2624.55,-32036 L-2826.86,-32382.5 L-2998.72,-32890.1 L-3047.92,-33295.7 L-2930.76,-33687.2 L-2666.81,-33999.1 L-2300.14,-34179.4 L-1010.81,-34510.3 L-688.144,-34539 L789.303,-34429.2 L995.803,-34391.8 L2811.11,-33861.2 L2901.61,-33830 L4736.46,-33096.8 L5112.63,-32832.8 L5538.94,-32353.4 L5857.35,-32196.8 L8071.09,-32125.7 L8294.49,-32093 L9162.68,-31863.6 L9588.67,-31628.6 L11010.5,-30304.6 L11210.4,-30045 L12592.6,-27464.9 L13094.9,-26883.2 L15275.7,-26051.7 L17031.4,-25792.6 L17187.3,-25825.8 L17298.7,-26049.9 L17025.6,-26319.9 L15658.1,-26830.3 L15260.3,-27102.9 L14732.4,-27697.1 L14544.1,-28008.9 L14321.8,-28599.1 L14258.4,-28911.8 L14296.7,-29228.5 L14639.6,-30418.2 L14823.6,-30770.9 L15130.6,-31024 L15930,-31449.6 L16417.8,-31566.7 L16692.3,-31561.8 L17089.3,-31471.8 L17417.5,-31231.1 L17869,-30729.8 L18048.8,-30445.8 L18124.3,-30118.2 L18150.9,-29656.8 L19155.4,-29302 L19451.7,-29136.3 L21525.8,-27456.9 L21826.7,-27046.9 L22120.2,-26303.2 L22189.6,-25967.5 L22141.4,-25628 L22008.3,-25216.8 L24487.6,-24880.4 L24803.9,-24782.1 L25414.9,-24473.6 L25702.2,-24255.6 L25992.2,-23938.4 L26071.1,-23950 L26417.3,-24136.6 L28179.2,-25684.6 L28310.6,-26268.1 L28461.8,-28515.7 L28510.3,-28763.3 L28852.6,-29795.5 L29057.3,-30148.5 L29386.1,-30390.3 L29784,-30480.6 L30153.1,-30487.2 L31078,-31016.6 L31480.5,-31144.3 L32190.4,-31211.5 L32555.7,-31178.6 L32884.5,-31016.1 L33065,-30819.6 L33150.8,-30808.8 L33549.7,-30668.6 L33855,-30376 L34012,-29983.4 L34087.2,-29538.9 L34083.6,-29185.5 L33957.4,-28855.4 L33388,-27911.9 L33045.4,-27570.5 L32526,-27259.7 L32151.2,-27162.2 L32069.5,-26662.9 L32082.5,-24261.2 L32059.2,-24041.2 L31825.9,-22979.9 L31677.2,-22633.8 L31161.2,-21872 L30852.1,-21577.9 L29734.7,-20899.7 L30610.1,-20160.1 L30802.9,-19941.8 L31205.5,-19323.2 L31645.3,-19081.9 L32453.3,-19109.7 L35376.6,-19917.4 L35951.2,-19904.8 L36439.1,-19746.7 L36450.8,-19779 L36603.7,-20055.4 L38547.9,-22540.6 L39769.4,-24721.6 L40033,-25026.2 L40395.4,-25202.1 L41153,-25394.7 L41475.8,-25422.7 L41790.5,-25345.9 L42110.2,-25210 L42170.6,-25240.5 L42558.8,-25346 L42957.1,-25289.9 L43083.1,-25245 L43231.8,-25325.9 L43598.7,-25372.5 L43956.1,-25351.2 L44303.7,-25266.2 L44599.2,-25064.4 L44804.7,-24771.5 L45110.5,-24107.8 L45202,-23709.9 L45126.9,-23308.6 L44837,-22604.5 L44665.4,-22327.4 L44413.9,-22120.2 L43540.9,-21614.1 L43102.9,-21481.2 L41691.6,-21391.3 L41603.2,-21341.9 L41202.2,-20278.5 L41146.6,-20156.5 L40380.5,-18736.3 L40331.7,-18655.1 L39186.2,-16942.2 L39102.1,-16833.4 L38193.3,-15811.9 L37878.2,-15574.7 L37211.8,-15255.4 L37035.3,-15190.5 L35146.2,-14691.1 L34941.9,-14532.8 L34716.8,-14128.9 L34522.8,-13882.1 L34261.8,-13707.5 L33842.5,-13514.3 L33589.3,-13436.3 L29809.8,-12802.7 L29668.7,-12751.4 L30250.6,-8703.83 L31126.5,-5491.36 L31150.5,-5078.94 L30926.6,-3596.2 L31114,-2271.11 L31120.6,-2050.54 L30973.3,-227.066 L30930.7,-8.09957 L30454.1,1510.16 L30337.3,1757.4 L29555.1,2955.29 L29549.4,2963.98 L27552.5,5953.77 L27416.1,6117.12 L26551.5,6953.45 L26366.3,7094.83 L25479.3,7620.75 L25300.5,7704.16 L23083,8482.48 L22915.8,8525.38 L21036.8,8837.68 L20916.5,8850.26 L18069,8974.73 L17770.2,8942.6 L16105.6,8503.44 L15789.6,8357.41 L15157.8,7917.9 L14998.6,7780.11 L13860.5,6563.26 L13642.5,6197.54 L12471.2,2697.92 L12429.6,2522.44 L12197.5,903.187 L12188,726.867 L12236.3,-675.105 L12274.3,-915.81 L12599.5,-2052.37 L12731.9,-2336.39 L13337,-3233.64 L13544.8,-3458.09 L14893.7,-4527.56 L15298.5,-4720.26 L16995.4,-5096.45 L17428,-5096.52 L19137.2,-4718.16 L19463.9,-4581.67 L20155.3,-4134.84 L20349.9,-3970.43 L20904.8,-3364.66 L21092.1,-3069.81 L21431,-2246.35 L21506.1,-1886.91 L21549.6,167.501 L21616.4,427.043 L21695.8,485.358 L22532.3,483.914 L22887.4,548.43 L23196.5,734.801 L23345.4,924.565 L23668.1,756.679 L23921.9,462.283 L24643.9,-2013.02 L24768.1,-2281.97 L25010.4,-2650.9 L24914,-2769.13 L24612.4,-3324.77 L24492.2,-3757.78 L24410.4,-5612.91 L24350.9,-5767.34 L24322.4,-5787.92 L23842.6,-5906.11 L23570.6,-6017.61 L23342.8,-6203.37 L19375.4,-10555 L16898.5,-12909.5 L14756.8,-14391.1 L14626.6,-14498.5 L13631,-15471.8 L13087.5,-15789.8 L12423.8,-15897.3 L11718.5,-15567.6 L11420,-15481.4 L11109.5,-15490.9 L8443.46,-15994.2 L8276.87,-16040.8 L6707.12,-16631.3 L6469.48,-16759.7 L5525.91,-17448.7 L5108.11,-16723.5 L4961.69,-16528.9 L4434.43,-15981.7 L4163.71,-15782.3 L2300.54,-14845.2 L2144.94,-14782.7 L401.771,-14247 L188.41,-14206.1 L-1274.22,-14088.2 L-1561.14,-14106.5 L-2576.99,-14321 L-3566.91,-14045.3 L-3755.8,-14011.8 L-5208.29,-13896.1 L-5329.91,-13893.9 L-8734.66,-14037.9 L-11603.4,-13947.8 L-11728.9,-13951.8 L-13361.6,-14106.1 L-13569.8,-14148.5 L-14276.9,-14372.8 L-14639.5,-14579 L-14990.4,-14891.4 L-15235.6,-15224 L-15325.5,-15627.2 L-15329.9,-16027.3 L-15285.1,-16334.8 L-15148,-16613.7 L-14804.7,-17101.7 L-14468.1,-17403 L-14033.1,-17525.4 L-12582.6,-17592.7"/>
</g>

<g fill="none" stroke="#000000" stroke-opacity="1" stroke-width="1" stroke-linecap="square" stroke-linejoin="bevel" transform="matrix(1,0,0,-1,39063.8,33196.2)"
font-family="MS Shell Dlg 2" font-size="10.3125" font-weight="400" font-style="normal" 
>
</g>

<g fill="none" stroke="#000000" stroke-opacity="1" stroke-width="1" stroke-linecap="square" stroke-linejoin="bevel" transform="matrix(1,0,0,-1,39063.8,33196.2)"
font-family="MS Shell Dlg 2" font-size="10.3125" font-weight="400" font-style="normal" 
>
</g>

<g fill="#333333" fill-opacity="0.500008" stroke="#333333" stroke-opacity="1" stroke-width="1" stroke-linecap="round" stroke-linejoin="round" transform="matrix(1,0,0,-1,39063.8,33196.2)"
font-family="MS Shell Dlg 2" font-size="10.3125" font-weight="400" font-style="normal" 
>
<path vector-effect="non-scaling-stroke" fill-rule="evenodd" d="M-29068.3,-66804.3 L-39063.3,-66804.3 L-39063.3,33195.7 L-29068.3,33195.7 L-29068.3,13215.7 L-29563.3,13215.7 L-29565.2,13214.2 L-29566.9,13209.8 L-29567.9,13203.3 L-29568.3,13195.7 L-29568.3,-46804.3 L-29567.9,-46812 L-29566.9,-46818.5 L-29565.2,-46822.8 L-29563.3,-46824.3 L-29068.3,-46824.3 L-29068.3,-66804.3"/>
</g>

<g fill="none" stroke="#000000" stroke-opacity="1" stroke-width="1" stroke-linecap="square" stroke-linejoin="bevel" transform="matrix(1,0,0,-1,39063.8,33196.2)"
font-family="MS Shell Dlg 2" font-size="10.3125" font-weight="400" font-style="normal" 
>
</g>

<g fill="none" stroke="#000000" stroke-opacity="1" stroke-width="1" stroke-linecap="square" stroke-linejoin="bevel" transform="matrix(1,0,0,-1,39063.8,33196.2)"
font-family="MS Shell Dlg 2" font-size="10.3125" font-weight="400" font-style="normal" 
>
</g>

<g fill="#ae5151" fill-opacity="0.500008" stroke="#333333" stroke-opacity="1" stroke-width="1" stroke-linecap="round" stroke-linejoin="round" transform="matrix(1,0,0,-1,39063.8,33196.2)"
font-family="MS Shell Dlg 2" font-size="10.3125" font-weight="400" font-style="normal" 
>
<path vector-effect="non-scaling-stroke" fill-rule="evenodd" d="M60936.7,33195.7 L60936.7,-66804.3 L-28558.3,-66804.3 L-28558.3,-46804.3 L-28558.7,-46796.7 L-28559.8,-46790.2 L-28561.4,-46785.8 L-28563.3,-46784.3 L-29058.3,-46784.3 L-29058.3,-26824.3 L-28563.3,-26824.3 L-28561.4,-26822.8 L-28559.8,-26818.5 L-28558.7,-26812 L-28558.3,-26804.3 L-28558.3,-6804.31 L-28558.7,-6796.66 L-28559.8,-6790.17 L-28561.4,-6785.83 L-28563.3,-6784.31 L-29058.3,-6784.31 L-29058.3,13175.7 L-28563.3,13175.7 L-28561.4,13177.2 L-28559.8,13181.5 L-28558.7,13188 L-28558.3,13195.7 L-28558.3,33195.7 L60936.7,33195.7 M-12582.6,-17592.7 L-15126.2,-18577.4 L-15493.4,-18824.5 L-15717.9,-19205.9 L-15755.8,-19646.8 L-15665.2,-20302.7 L-15548.1,-20652.5 L-15312.2,-20936.1 L-14935,-21248.4 L-14659.2,-21410.2 L-14346.5,-21476.8 L-13685.9,-21509.3 L-13357.6,-21470.7 L-8697.62,-20115.9 L-2727.11,-19608.3 L-1628.72,-19651.9 L-4273.94,-20266.5 L-4546.96,-20374.1 L-4776.98,-20556.4 L-5138.2,-20941.5 L-5328.59,-21233.1 L-5407.42,-21572.3 L-5434.65,-22082.4 L-5347.15,-22547.9 L-5055.21,-22921 L-4794.02,-23126.9 L-4303.27,-23333.3 L-2149.4,-23612.2 L-1634.02,-23542.5 L1327.6,-22299.6 L1939.87,-22245.2 L2005.19,-22291.6 L2474.17,-23189.6 L2668.51,-23448.6 L2935.38,-23631.8 L4251.34,-24250 L4251.74,-24592.5 L4302.96,-24907.2 L4450.65,-25189.8 L4810.2,-25671.1 L4964.9,-25793.7 L3018.41,-26389.5 L-264.396,-26399.5 L-517.639,-26432.9 L-1946.08,-26811.6 L-2261.64,-26957.8 L-2508.03,-27203.3 L-2655.44,-27518.3 L-2765.84,-27928.6 L-2798.09,-28253.4 L-2724.01,-28571.3 L-2551.5,-28848.4 L-2082.72,-29382.1 L-1825.92,-29591.3 L-1514.87,-29705.1 L1512.8,-30270.1 L-850.886,-30891.1 L-1030.45,-30957.2 L-1955.06,-31402.1 L-2266.31,-31636 L-2624.55,-32036 L-2826.86,-32382.5 L-2998.72,-32890.1 L-3047.92,-33295.7 L-2930.76,-33687.2 L-2666.81,-33999.1 L-2300.14,-34179.4 L-1010.81,-34510.3 L-688.144,-34539 L789.303,-34429.2 L995.803,-34391.8 L2811.11,-33861.2 L2901.61,-33830 L4736.46,-33096.8 L5112.63,-32832.8 L5538.94,-32353.4 L5857.35,-32196.8 L8071.09,-32125.7 L8294.49,-32093 L9162.68,-31863.6 L9588.67,-31628.6 L11010.5,-30304.6 L11210.4,-30045 L12592.6,-27464.9 L13094.9,-26883.2 L15275.7,-26051.7 L17031.4,-25792.6 L17187.3,-25825.8 L17298.7,-26049.9 L17025.6,-26319.9 L15658.1,-26830.3 L15260.3,-27102.9 L14732.4,-27697.1 L14544.1,-28008.9 L14321.8,-28599.1 L14258.4,-28911.8 L14296.7,-29228.5 L14639.6,-30418.2 L14823.6,-30770.9 L15130.6,-31024 L15930,-31449.6 L16417.8,-31566.7 L16692.3,-31561.8 L17089.3,-31471.8 L17417.5,-31231.1 L17869,-30729.8 L18048.8,-30445.8 L18124.3,-30118.2 L18150.9,-29656.8 L19155.4,-29302 L19451.7,-29136.3 L21525.8,-27456.9 L21826.7,-27046.9 L22120.2,-26303.2 L22189.6,-25967.5 L22141.4,-25628 L22008.3,-25216.8 L24487.6,-24880.4 L24803.9,-24782.1 L25414.9,-24473.6 L25702.2,-24255.6 L25992.2,-23938.4 L26071.1,-23950 L26417.3,-24136.6 L28179.2,-25684.6 L28310.6,-26268.1 L28461.8,-28515.7 L28510.3,-28763.3 L28852.6,-29795.5 L29057.3,-30148.5 L29386.1,-30390.3 L29784,-30480.6 L30153.1,-30487.2 L31078,-31016.6 L31480.5,-31144.3 L32190.4,-31211.5 L32555.7,-31178.6 L32884.5,-31016.1 L33065,-30819.6 L33150.8,-30808.8 L33549.7,-30668.6 L33855,-30376 L34012,-29983.4 L34087.2,-29538.9 L34083.6,-29185.5 L33957.4,-28855.4 L33388,-27911.9 L33045.4,-27570.5 L32526,-27259.7 L32151.2,-27162.2 L32069.5,-26662.9 L32082.5,-24261.2 L32059.2,-24041.2 L31825.9,-22979.9 L31677.2,-22633.8 L31161.2,-21872 L30852.1,-21577.9 L29734.7,-20899.7 L30610.1,-20160.1 L30802.9,-19941.8 L31205.5,-19323.2 L31645.3,-19081.9 L32453.3,-19109.7 L35376.6,-19917.4 L35951.2,-19904.8 L36439.1,-19746.7 L36450.8,-19779 L36603.7,-20055.4 L38547.9,-22540.6 L39769.4,-24721.6 L40033,-25026.2 L40395.4,-25202.1 L41153,-25394.7 L41475.8,-25422.7 L41790.5,-25345.9 L42110.2,-25210 L42170.6,-25240.5 L42558.8,-25346 L42957.1,-25289.9 L43083.1,-25245 L43231.8,-25325.9 L43598.7,-25372.5 L43956.1,-25351.2 L44303.7,-25266.2 L44599.2,-25064.4 L44804.7,-24771.5 L45110.5,-24107.8 L45202,-23709.9 L45126.9,-23308.6 L44837,-22604.5 L44665.4,-22327.4 L44413.9,-22120.2 L43540.9,-21614.1 L43102.9,-21481.2 L41691.6,-21391.3 L41603.2,-21341.9 L41202.2,-20278.5 L41146.6,-20156.5 L40380.5,-18736.3 L40331.7,-18655.1 L39186.2,-16942.2 L39102.1,-16833.4 L38193.3,-15811.9 L37878.2,-15574.7 L37211.8,-15255.4 L37035.3,-15190.5 L35146.2,-14691.1 L34941.9,-14532.8 L34716.8,-14128.9 L34522.8,-13882.1 L34261.8,-13707.5 L33842.5,-13514.3 L33589.3,-13436.3 L29809.8,-12802.7 L29668.7,-12751.4 L30250.6,-8703.83 L31126.5,-5491.36 L31150.5,-5078.94 L30926.6,-3596.2 L31114,-2271.11 L31120.6,-2050.54 L30973.3,-227.066 L30930.7,-8.09957 L30454.1,1510.16 L30337.3,1757.4 L29555.1,2955.29 L29549.4,2963.98 L27552.5,5953.77 L27416.1,6117.12 L26551.5,6953.45 L26366.3,7094.83 L25479.3,7620.75 L25300.5,7704.16 L23083,8482.48 L22915.8,8525.38 L21036.8,8837.68 L20916.5,8850.26 L18069,8974.73 L17770.2,8942.6 L16105.6,8503.44 L15789.6,8357.41 L15157.8,7917.9 L14998.6,7780.11 L13860.5,6563.26 L13642.5,6197.54 L12471.2,2697.92 L12429.6,2522.44 L12197.5,903.187 L12188,726.867 L12236.3,-675.105 L12274.3,-915.81 L12599.5,-2052.37 L12731.9,-2336.39 L13337,-3233.64 L13544.8,-3458.09 L14893.7,-4527.56 L15298.5,-4720.26 L16995.4,-5096.45 L17428,-5096.52 L19137.2,-4718.16 L19463.9,-4581.67 L20155.3,-4134.84 L20349.9,-3970.43 L20904.8,-3364.66 L21092.1,-3069.81 L21431,-2246.35 L21506.1,-1886.91 L21549.6,167.501 L21616.4,427.043 L21695.8,485.358 L22532.3,483.914 L22887.4,548.43 L23196.5,734.801 L23345.4,924.565 L23668.1,756.679 L23921.9,462.283 L24643.9,-2013.02 L24768.1,-2281.97 L25010.4,-2650.9 L24914,-2769.13 L24612.4,-3324.77 L24492.2,-3757.78 L24410.4,-5612.91 L24350.9,-5767.34 L24322.4,-5787.92 L23842.6,-5906.11 L23570.6,-6017.61 L23342.8,-6203.37 L19375.4,-10555 L16898.5,-12909.5 L14756.8,-14391.1 L14626.6,-14498.5 L13631,-15471.8 L13087.5,-15789.8 L12423.8,-15897.3 L11718.5,-15567.6 L11420,-15481.4 L11109.5,-15490.9 L8443.46,-15994.2 L8276.87,-16040.8 L6707.12,-16631.3 L6469.48,-16759.7 L5525.91,-17448.7 L5108.11,-16723.5 L4961.69,-16528.9 L4434.43,-15981.7 L4163.71,-15782.3 L2300.54,-14845.2 L2144.94,-14782.7 L401.771,-14247 L188.41,-14206.1 L-1274.22,-14088.2 L-1561.14,-14106.5 L-2576.99,-14321 L-3566.91,-14045.3 L-3755.8,-14011.8 L-5208.29,-13896.1 L-5329.91,-13893.9 L-8734.66,-14037.9 L-11603.4,-13947.8 L-11728.9,-13951.8 L-13361.6,-14106.1 L-13569.8,-14148.5 L-14276.9,-14372.8 L-14639.5,-14579 L-14990.4,-14891.4 L-15235.6,-15224 L-15325.5,-15627.2 L-15329.9,-16027.3 L-15285.1,-16334.8 L-15148,-16613.7 L-14804.7,-17101.7 L-14468.1,-17403 L-14033.1,-17525.4 L-12582.6,-17592.7"/>
</g>

<g fill="none" stroke="#000000" stroke-opacity="1" stroke-width="1" stroke-linecap="square" stroke-linejoin="bevel" transform="matrix(1,0,0,-1,39063.8,33196.2)"
font-family="MS Shell Dlg 2" font-size="10.3125" font-weight="400" font-style="normal" 
>
</g>

<g fill="none" stroke="#000000" stroke-opacity="1" stroke-width="1" stroke-linecap="square" stroke-linejoin="bevel" transform="matrix(1,0,0,-1,39063.8,33196.2)"
font-family="MS Shell Dlg 2" font-size="10.3125" font-weight="400" font-style="normal" 
>
</g>

<g fill="#ae5151" fill-opacity="0.500008" stroke="#333333" stroke-opacity="1" stroke-width="1" stroke-linecap="round" stroke-linejoin="round" transform="matrix(1,0,0,-1,39063.8,33196.2)"
font-family="MS Shell Dlg 2" font-size="10.3125" font-weight="400" font-style="normal" 
>
<path vector-effect="non-scaling-stroke" fill-rule="evenodd" d="M-29068.3,-66804.3 L-39063.3,-66804.3 L-39063.3,33195.7 L-29068.3,33195.7 L-29068.3,13215.7 L-29563.3,13215.7 L-29565.2,13214.2 L-29566.9,13209.8 L-29567.9,13203.3 L-29568.3,13195.7 L-29568.3,-46804.3 L-29567.9,-46812 L-29566.9,-46818.5 L-29565.2,-46822.8 L-29563.3,-46824.3 L-29068.3,-46824.3 L-29068.3,-66804.3"/>
</g>

<g fill="none" stroke="#000000" stroke-opacity="1" stroke-width="1" stroke-linecap="square" stroke-linejoin="bevel" transform="matrix(1,0,0,-1,39063.8,33196.2)"
font-family="MS Shell Dlg 2" font-size="10.3125" font-weight="400" font-style="normal" 
>
</g>

<g fill="none" stroke="#000000" stroke-opacity="1" stroke-width="1" stroke-linecap="square" stroke-linejoin="bevel" transform="matrix(1,0,0,-1,39063.8,33196.2)"
font-family="MS Shell Dlg 2" font-size="10.3125" font-weight="400" font-style="normal" 
>
</g>

<g fill="#ffff00" fill-opacity="0.500008" stroke="#333333" stroke-opacity="1" stroke-width="1" stroke-linecap="round" stroke-linejoin="round" transform="matrix(1,0,0,-1,39063.8,33196.2)"
font-family="MS Shell Dlg 2" font-size="10.3125" font-weight="400" font-style="normal" 
>
<path vector-effect="non-scaling-stroke" fill-rule="evenodd" d="M60936.7,33195.7 L60936.7,-66804.3 L-29063.3,-66804.3 L-39063.3,-66804.3 L-39063.3,33195.7 L-29063.3,33195.7 L60936.7,33195.7 M-29063.3,-6784.31 L-29563.3,-6784.31 L-29565.2,-6785.83 L-29566.9,-6790.17 L-29567.9,-6796.66 L-29568.3,-6804.31 L-29568.3,-26804.3 L-29567.9,-26812 L-29566.9,-26818.5 L-29565.2,-26822.8 L-29563.3,-26824.3 L-29063.3,-26824.3 L-28563.3,-26824.3 L-28561.4,-26822.8 L-28559.8,-26818.5 L-28558.7,-26812 L-28558.3,-26804.3 L-28558.3,-6804.31 L-28558.7,-6796.66 L-28559.8,-6790.17 L-28561.4,-6785.83 L-28563.3,-6784.31 L-29063.3,-6784.31 M-12582.6,-17592.7 L-15126.2,-18577.4 L-15493.4,-18824.5 L-15717.9,-19205.9 L-15755.8,-19646.8 L-15665.2,-20302.7 L-15548.1,-20652.5 L-15312.2,-20936.1 L-14935,-21248.4 L-14659.2,-21410.2 L-14346.5,-21476.8 L-13685.9,-21509.3 L-13357.6,-21470.7 L-8697.62,-20115.9 L-2727.11,-19608.3 L-1628.72,-19651.9 L-4273.94,-20266.5 L-4546.96,-20374.1 L-4776.98,-20556.4 L-5138.2,-20941.5 L-5328.59,-21233.1 L-5407.42,-21572.3 L-5434.65,-22082.4 L-5347.15,-22547.9 L-5055.21,-22921 L-4794.02,-23126.9 L-4303.27,-23333.3 L-2149.4,-23612.2 L-1634.02,-23542.5 L1327.6,-22299.6 L1939.87,-22245.2 L2005.19,-22291.6 L2474.17,-23189.6 L2668.51,-23448.6 L2935.38,-23631.8 L4251.34,-24250 L4251.74,-24592.5 L4302.96,-24907.2 L4450.65,-25189.8 L4810.2,-25671.1 L4964.9,-25793.7 L3018.41,-26389.5 L-264.396,-26399.5 L-517.639,-26432.9 L-1946.08,-26811.6 L-2261.64,-26957.8 L-2508.03,-27203.3 L-2655.44,-27518.3 L-2765.84,-27928.6 L-2798.09,-28253.4 L-2724.01,-28571.3 L-2551.5,-28848.4 L-2082.72,-29382.1 L-1825.92,-29591.3 L-1514.87,-29705.1 L1512.8,-30270.1 L-850.886,-30891.1 L-1030.45,-30957.2 L-1955.06,-31402.1 L-2266.31,-31636 L-2624.55,-32036 L-2826.86,-32382.5 L-2998.72,-32890.1 L-3047.92,-33295.7 L-2930.76,-33687.2 L-2666.81,-33999.1 L-2300.14,-34179.4 L-1010.81,-34510.3 L-688.144,-34539 L789.303,-34429.2 L995.803,-34391.8 L2811.11,-33861.2 L2901.61,-33830 L4736.46,-33096.8 L5112.63,-32832.8 L5538.94,-32353.4 L5857.35,-32196.8 L8071.09,-32125.7 L8294.49,-32093 L9162.68,-31863.6 L9588.67,-31628.6 L11010.5,-30304.6 L11210.4,-30045 L12592.6,-27464.9 L13094.9,-26883.2 L15275.7,-26051.7 L17031.4,-25792.6 L17187.3,-25825.8 L17298.7,-26049.9 L17025.6,-26319.9 L15658.1,-26830.3 L15260.3,-27102.9 L14732.4,-27697.1 L14544.1,-28008.9 L14321.8,-28599.1 L14258.4,-28911.8 L14296.7,-29228.5 L14639.6,-30418.2 L14823.6,-30770.9 L15130.6,-31024 L15930,-31449.6 L16417.8,-31566.7 L16692.3,-31561.8 L17089.3,-31471.8 L17417.5,-31231.1 L17869,-30729.8 L18048.8,-30445.8 L18124.3,-30118.2 L18150.9,-29656.8 L19155.4,-29302 L19451.7,-29136.3 L21525.8,-27456.9 L21826.7,-27046.9 L22120.2,-26303.2 L22189.6,-25967.5 L22141.4,-25628 L22008.3,-25216.8 L24487.6,-24880.4 L24803.9,-24782.1 L25414.9,-24473.6 L25702.2,-24255.6 L25992.2,-23938.4 L26071.1,-23950 L26417.3,-24136.6 L28179.2,-25684.6 L28310.6,-26268.1 L28461.8,-28515.7 L28510.3,-28763.3 L28852.6,-29795.5 L29057.3,-30148.5 L29386.1,-30390.3 L29784,-30480.6 L30153.1,-30487.2 L31078,-31016.6 L31480.5,-31144.3 L32190.4,-31211.5 L32555.7,-31178.6 L32884.5,-31016.1 L33065,-30819.6 L33150.8,-30808.8 L33549.7,-30668.6 L33855,-30376 L34012,-29983.4 L34087.2,-29538.9 L34083.6,-29185.5 L33957.4,-28855.4 L33388,-27911.9 L33045.4,-27570.5 L32526,-27259.7 L32151.2,-27162.2 L32069.5,-26662.9 L32082.5,-24261.2 L32059.2,-24041.2 L31825.9,-22979.9 L31677.2,-22633.8 L31161.2,-21872 L30852.1,-21577.9 L29734.7,-20899.7 L30610.1,-20160.1 L30802.9,-19941.8 L31205.5,-19323.2 L31645.3,-19081.9 L32453.3,-19109.7 L35376.6,-19917.4 L35951.2,-19904.8 L36439.1,-19746.7 L36450.8,-19779 L36603.7,-20055.4 L38547.9,-22540.6 L39769.4,-24721.6 L40033,-25026.2 L40395.4,-25202.1 L41153,-25394.7 L41475.8,-25422.7 L41790.5,-25345.9 L42110.2,-25210 L42170.6,-25240.5 L42558.8,-25346 L42957.1,-25289.9 L43083.1,-25245 L43231.8,-25325.9 L43598.7,-25372.5 L43956.1,-25351.2 L44303.7,-25266.2 L44599.2,-25064.4 L44804.7,-24771.5 L45110.5,-24107.8 L45202,-23709.9 L45126.9,-23308.6 L44837,-22604.5 L44665.4,-22327.4 L44413.9,-22120.2 L43540.9,-21614.1 L43102.9,-21481.2 L41691.6,-21391.3 L41603.2,-21341.9 L41202.2,-20278.5 L41146.6,-20156.5 L40380.5,-18736.3 L40331.7,-18655.1 L39186.2,-16942.2 L39102.1,-16833.4 L38193.3,-15811.9 L37878.2,-15574.7 L37211.8,-15255.4 L37035.3,-15190.5 L35146.2,-14691.1 L34941.9,-14532.8 L34716.8,-14128.9 L34522.8,-13882.1 L34261.8,-13707.5 L33842.5,-13514.3 L33589.3,-13436.3 L29809.8,-12802.7 L29668.7,-12751.4 L30250.6,-8703.83 L31126.5,-5491.36 L31150.5,-5078.94 L30926.6,-3596.2 L31114,-2271.11 L31120.6,-2050.54 L30973.3,-227.066 L30930.7,-8.09957 L30454.1,1510.16 L30337.3,1757.4 L29555.1,2955.29 L29549.4,2963.98 L27552.5,5953.77 L27416.1,6117.12 L26551.5,6953.45 L26366.3,7094.83 L25479.3,7620.75 L25300.5,7704.16 L23083,8482.48 L22915.8,8525.38 L21036.8,8837.68 L20916.5,8850.26 L18069,8974.73 L17770.2,8942.6 L16105.6,8503.44 L15789.6,8357.41 L15157.8,7917.9 L14998.6,7780.11 L13860.5,6563.26 L13642.5,6197.54 L12471.2,2697.92 L12429.6,2522.44 L12197.5,903.187 L12188,726.867 L12236.3,-675.105 L12274.3,-915.81 L12599.5,-2052.37 L12731.9,-2336.39 L13337,-3233.64 L13544.8,-3458.09 L14893.7,-4527.56 L15298.5,-4720.26 L16995.4,-5096.45 L17428,-5096.52 L19137.2,-4718.16 L19463.9,-4581.67 L20155.3,-4134.84 L20349.9,-3970.43 L20904.8,-3364.66 L21092.1,-3069.81 L21431,-2246.35 L21506.1,-1886.91 L21549.6,167.501 L21616.4,427.043 L21695.8,485.358 L22532.3,483.914 L22887.4,548.43 L23196.5,734.801 L23345.4,924.565 L23668.1,756.679 L23921.9,462.283 L24643.9,-2013.02 L24768.1,-2281.97 L25010.4,-2650.9 L24914,-2769.13 L24612.4,-3324.77 L24492.2,-3757.78 L24410.4,-5612.91 L24350.9,-5767.34 L24322.4,-5787.92 L23842.6,-5906.11 L23570.6,-6017.61 L23342.8,-6203.37 L19375.4,-10555 L16898.5,-12909.5 L14756.8,-14391.1 L14626.6,-14498.5 L13631,-15471.8 L13087.5,-15789.8 L12423.8,-15897.3 L11718.5,-15567.6 L11420,-15481.4 L11109.5,-15490.9 L8443.46,-15994.2 L8276.87,-16040.8 L6707.12,-16631.3 L6469.48,-16759.7 L5525.91,-17448.7 L5108.11,-16723.5 L4961.69,-16528.9 L4434.43,-15981.7 L4163.71,-15782.3 L2300.54,-14845.2 L2144.94,-14782.7 L401.771,-14247 L188.41,-14206.1 L-1274.22,-14088.2 L-1561.14,-14106.5 L-2576.99,-14321 L-3566.91,-14045.3 L-3755.8,-14011.8 L-5208.29,-13896.1 L-5329.91,-13893.9 L-8734.66,-14037.9 L-11603.4,-13947.8 L-11728.9,-13951.8 L-13361.6,-14106.1 L-13569.8,-14148.5 L-14276.9,-14372.8 L-14639.5,-14579 L-14990.4,-14891.4 L-15235.6,-15224 L-15325.5,-15627.2 L-15329.9,-16027.3 L-15285.1,-16334.8 L-15148,-16613.7 L-14804.7,-17101.7 L-14468.1,-17403 L-14033.1,-17525.4 L-12582.6,-17592.7"/>
</g>

<g fill="none" stroke="#000000" stroke-opacity="1" stroke-width="1" stroke-linecap="square" stroke-linejoin="bevel" transform="matrix(1,0,0,-1,39063.8,33196.2)"
font-family="MS Shell Dlg 2" font-size="10.3125" font-weight="400" font-style="normal" 
>
</g>

<g fill="none" stroke="#000000" stroke-opacity="1" stroke-width="1" stroke-linecap="square" stroke-linejoin="bevel" transform="matrix(1,0,0,-1,39063.8,33196.2)"
font-family="MS Shell Dlg 2" font-size="10.3125" font-weight="400" font-style="normal" 
>
</g>

<g fill="#ae5151" fill-opacity="0.500008" stroke="#333333" stroke-opacity="1" stroke-width="1" stroke-linecap="round" stroke-linejoin="round" transform="matrix(1,0,0,-1,39063.8,33196.2)"
font-family="MS Shell Dlg 2" font-size="10.3125" font-weight="400" font-style="normal" 
>
<path vector-effect="non-scaling-stroke" fill-rule="evenodd" d="M60936.7,33195.7 L60936.7,-66804.3 L-29058.3,-66804.3 L-29058.3,-46824.3 L-28563.3,-46824.3 L-28561.4,-46822.8 L-28559.8,-46818.5 L-28558.7,-46812 L-28558.3,-46804.3 L-28558.3,13195.7 L-28558.7,13203.3 L-28559.8,13209.8 L-28561.4,13214.2 L-28563.3,13215.7 L-29058.3,13215.7 L-29058.3,33195.7 L60936.7,33195.7 M-12582.6,-17592.7 L-15126.2,-18577.4 L-15493.4,-18824.5 L-15717.9,-19205.9 L-15755.8,-19646.8 L-15665.2,-20302.7 L-15548.1,-20652.5 L-15312.2,-20936.1 L-14935,-21248.4 L-14659.2,-21410.2 L-14346.5,-21476.8 L-13685.9,-21509.3 L-13357.6,-21470.7 L-8697.62,-20115.9 L-2727.11,-19608.3 L-1628.72,-19651.9 L-4273.94,-20266.5 L-4546.96,-20374.1 L-4776.98,-20556.4 L-5138.2,-20941.5 L-5328.59,-21233.1 L-5407.42,-21572.3 L-5434.65,-22082.4 L-5347.15,-22547.9 L-5055.21,-22921 L-4794.02,-23126.9 L-4303.27,-23333.3 L-2149.4,-23612.2 L-1634.02,-23542.5 L1327.6,-22299.6 L1939.87,-22245.2 L2005.19,-22291.6 L2474.17,-23189.6 L2668.51,-23448.6 L2935.38,-23631.8 L4251.34,-24250 L4251.74,-24592.5 L4302.96,-24907.2 L4450.65,-25189.8 L4810.2,-25671.1 L4964.9,-25793.7 L3018.41,-26389.5 L-264.396,-26399.5 L-517.639,-26432.9 L-1946.08,-26811.6 L-2261.64,-26957.8 L-2508.03,-27203.3 L-2655.44,-27518.3 L-2765.84,-27928.6 L-2798.09,-28253.4 L-2724.01,-28571.3 L-2551.5,-28848.4 L-2082.72,-29382.1 L-1825.92,-29591.3 L-1514.87,-29705.1 L1512.8,-30270.1 L-850.886,-30891.1 L-1030.45,-30957.2 L-1955.06,-31402.1 L-2266.31,-31636 L-2624.55,-32036 L-2826.86,-32382.5 L-2998.72,-32890.1 L-3047.92,-33295.7 L-2930.76,-33687.2 L-2666.81,-33999.1 L-2300.14,-34179.4 L-1010.81,-34510.3 L-688.144,-34539 L789.303,-34429.2 L995.803,-34391.8 L2811.11,-33861.2 L2901.61,-33830 L4736.46,-33096.8 L5112.63,-32832.8 L5538.94,-32353.4 L5857.35,-32196.8 L8071.09,-32125.7 L8294.49,-32093 L9162.68,-31863.6 L9588.67,-31628.6 L11010.5,-30304.6 L11210.4,-30045 L12592.6,-27464.9 L13094.9,-26883.2 L15275.7,-26051.7 L17031.4,-25792.6 L17187.3,-25825.8 L17298.7,-26049.9 L17025.6,-26319.9 L15658.1,-26830.3 L15260.3,-27102.9 L14732.4,-27697.1 L14544.1,-28008.9 L14321.8,-28599.1 L14258.4,-28911.8 L14296.7,-29228.5 L14639.6,-30418.2 L14823.6,-30770.9 L15130.6,-31024 L15930,-31449.6 L16417.8,-31566.7 L16692.3,-31561.8 L17089.3,-31471.8 L17417.5,-31231.1 L17869,-30729.8 L18048.8,-30445.8 L18124.3,-30118.2 L18150.9,-29656.8 L19155.4,-29302 L19451.7,-29136.3 L21525.8,-27456.9 L21826.7,-27046.9 L22120.2,-26303.2 L22189.6,-25967.5 L22141.4,-25628 L22008.3,-25216.8 L24487.6,-24880.4 L24803.9,-24782.1 L25414.9,-24473.6 L25702.2,-24255.6 L25992.2,-23938.4 L26071.1,-23950 L26417.3,-24136.6 L28179.2,-25684.6 L28310.6,-26268.1 L28461.8,-28515.7 L28510.3,-28763.3 L28852.6,-29795.5 L29057.3,-30148.5 L29386.1,-30390.3 L29784,-30480.6 L30153.1,-30487.2 L31078,-31016.6 L31480.5,-31144.3 L32190.4,-31211.5 L32555.7,-31178.6 L32884.5,-31016.1 L33065,-30819.6 L33150.8,-30808.8 L33549.7,-30668.6 L33855,-30376 L34012,-29983.4 L34087.2,-29538.9 L34083.6,-29185.5 L33957.4,-28855.4 L33388,-27911.9 L33045.4,-27570.5 L32526,-27259.7 L32151.2,-27162.2 L32069.5,-26662.9 L32082.5,-24261.2 L32059.2,-24041.2 L31825.9,-22979.9 L31677.2,-22633.8 L31161.2,-21872 L30852.1,-21577.9 L29734.7,-20899.7 L30610.1,-20160.1 L30802.9,-19941.8 L31205.5,-19323.2 L31645.3,-19081.9 L32453.3,-19109.7 L35376.6,-19917.4 L35951.2,-19904.8 L36439.1,-19746.7 L36450.8,-19779 L36603.7,-20055.4 L38547.9,-22540.6 L39769.4,-24721.6 L40033,-25026.2 L40395.4,-25202.1 L41153,-25394.7 L41475.8,-25422.7 L41790.5,-25345.9 L42110.2,-25210 L42170.6,-25240.5 L42558.8,-25346 L42957.1,-25289.9 L43083.1,-25245 L43231.8,-25325.9 L43598.7,-25372.5 L43956.1,-25351.2 L44303.7,-25266.2 L44599.2,-25064.4 L44804.7,-24771.5 L45110.5,-24107.8 L45202,-23709.9 L45126.9,-23308.6 L44837,-22604.5 L44665.4,-22327.4 L44413.9,-22120.2 L43540.9,-21614.1 L43102.9,-21481.2 L41691.6,-21391.3 L41603.2,-21341.9 L41202.2,-20278.5 L41146.6,-20156.5 L40380.5,-18736.3 L40331.7,-18655.1 L39186.2,-16942.2 L39102.1,-16833.4 L38193.3,-15811.9 L37878.2,-15574.7 L37211.8,-15255.4 L37035.3,-15190.5 L35146.2,-14691.1 L34941.9,-14532.8 L34716.8,-14128.9 L34522.8,-13882.1 L34261.8,-13707.5 L33842.5,-13514.3 L33589.3,-13436.3 L29809.8,-12802.7 L29668.7,-12751.4 L30250.6,-8703.83 L31126.5,-5491.36 L31150.5,-5078.94 L30926.6,-3596.2 L31114,-2271.11 L31120.6,-2050.54 L30973.3,-227.066 L30930.7,-8.09957 L30454.1,1510.16 L30337.3,1757.4 L29555.1,2955.29 L29549.4,2963.98 L27552.5,5953.77 L27416.1,6117.12 L26551.5,6953.45 L26366.3,7094.83 L25479.3,7620.75 L25300.5,7704.16 L23083,8482.48 L22915.8,8525.38 L21036.8,8837.68 L20916.5,8850.26 L18069,8974.73 L17770.2,8942.6 L16105.6,8503.44 L15789.6,8357.41 L15157.8,7917.9 L14998.6,7780.11 L13860.5,6563.26 L13642.5,6197.54 L12471.2,2697.92 L12429.6,2522.44 L12197.5,903.187 L12188,726.867 L12236.3,-675.105 L12274.3,-915.81 L12599.5,-2052.37 L12731.9,-2336.39 L13337,-3233.64 L13544.8,-3458.09 L14893.7,-4527.56 L15298.5,-4720.26 L16995.4,-5096.45 L17428,-5096.52 L19137.2,-4718.16 L19463.9,-4581.67 L20155.3,-4134.84 L20349.9,-3970.43 L20904.8,-3364.66 L21092.1,-3069.81 L21431,-2246.35 L21506.1,-1886.91 L21549.6,167.501 L21616.4,427.043 L21695.8,485.358 L22532.3,483.914 L22887.4,548.43 L23196.5,734.801 L23345.4,924.565 L23668.1,756.679 L23921.9,462.283 L24643.9,-2013.02 L24768.1,-2281.97 L25010.4,-2650.9 L24914,-2769.13 L24612.4,-3324.77 L24492.2,-3757.78 L24410.4,-5612.91 L24350.9,-5767.34 L24322.4,-5787.92 L23842.6,-5906.11 L23570.6,-6017.61 L23342.8,-6203.37 L19375.4,-10555 L16898.5,-12909.5 L14756.8,-14391.1 L14626.6,-14498.5 L13631,-15471.8 L13087.5,-15789.8 L12423.8,-15897.3 L11718.5,-15567.6 L11420,-15481.4 L11109.5,-15490.9 L8443.46,-15994.2 L8276.87,-16040.8 L6707.12,-16631.3 L6469.48,-16759.7 L5525.91,-17448.7 L5108.11,-16723.5 L4961.69,-16528.9 L4434.43,-15981.7 L4163.71,-15782.3 L2300.54,-14845.2 L2144.94,-14782.7 L401.771,-14247 L188.41,-14206.1 L-1274.22,-14088.2 L-1561.14,-14106.5 L-2576.99,-14321 L-3566.91,-14045.3 L-3755.8,-14011.8 L-5208.29,-13896.1 L-5329.91,-13893.9 L-8734.66,-14037.9 L-11603.4,-13947.8 L-11728.9,-13951.8 L-13361.6,-14106.1 L-13569.8,-14148.5 L-14276.9,-14372.8 L-14639.5,-14579 L-14990.4,-14891.4 L-15235.6,-15224 L-15325.5,-15627.2 L-15329.9,-16027.3 L-15285.1,-16334.8 L-15148,-16613.7 L-14804.7,-17101.7 L-14468.1,-17403 L-14033.1,-17525.4 L-12582.6,-17592.7"/>
</g>

<g fill="none" stroke="#000000" stroke-opacity="1" stroke-width="1" stroke-linecap="square" stroke-linejoin="bevel" transform="matrix(1,0,0,-1,39063.8,33196.2)"
font-family="MS Shell Dlg 2" font-size="10.3125" font-weight="400" font-style="normal" 
>
</g>

<g fill="none" stroke="#000000" stroke-opacity="1" stroke-width="1" stroke-linecap="square" stroke-linejoin="bevel" transform="matrix(1,0,0,-1,39063.8,33196.2)"
font-family="MS Shell Dlg 2" font-size="10.3125" font-weight="400" font-style="normal" 
>
</g>

<g fill="#ae5151" fill-opacity="0.500008" stroke="#333333" stroke-opacity="1" stroke-width="1" stroke-linecap="round" stroke-linejoin="round" transform="matrix(1,0,0,-1,39063.8,33196.2)"
font-family="MS Shell Dlg 2" font-size="10.3125" font-weight="400" font-style="normal" 
>
<path vector-effect="non-scaling-stroke" fill-rule="evenodd" d="M-29568.3,-66804.3 L-39063.3,-66804.3 L-39063.3,33195.7 L-29568.3,33195.7 L-29568.3,13195.7 L-29567.9,13188 L-29566.9,13181.5 L-29565.2,13177.2 L-29563.3,13175.7 L-29068.3,13175.7 L-29068.3,-6784.31 L-29563.3,-6784.31 L-29565.2,-6785.83 L-29566.9,-6790.17 L-29567.9,-6796.66 L-29568.3,-6804.31 L-29568.3,-26804.3 L-29567.9,-26812 L-29566.9,-26818.5 L-29565.2,-26822.8 L-29563.3,-26824.3 L-29068.3,-26824.3 L-29068.3,-46784.3 L-29563.3,-46784.3 L-29565.2,-46785.8 L-29566.9,-46790.2 L-29567.9,-46796.7 L-29568.3,-46804.3 L-29568.3,-66804.3"/>
</g>

<g fill="none" stroke="#000000" stroke-opacity="1" stroke-width="1" stroke-linecap="square" stroke-linejoin="bevel" transform="matrix(1,0,0,-1,39063.8,33196.2)"
font-family="MS Shell Dlg 2" font-size="10.3125" font-weight="400" font-style="normal" 
>
</g>

<g fill="none" stroke="#000000" stroke-opacity="1" stroke-width="1" stroke-linecap="square" stroke-linejoin="bevel" transform="matrix(1,0,0,-1,39063.8,33196.2)"
font-family="MS Shell Dlg 2" font-size="10.3125" font-weight="400" font-style="normal" 
>
</g>

<g fill="#333333" fill-opacity="0.500008" stroke="#333333" stroke-opacity="1" stroke-width="1" stroke-linecap="round" stroke-linejoin="round" transform="matrix(1,0,0,-1,39063.8,33196.2)"
font-family="MS Shell Dlg 2" font-size="10.3125" font-weight="400" font-style="normal" 
>
<path vector-effect="non-scaling-stroke" fill-rule="evenodd" d="M60936.7,33195.7 L60936.7,-66804.3 L-29058.3,-66804.3 L-29058.3,-46824.3 L-28563.3,-46824.3 L-28561.4,-46822.8 L-28559.8,-46818.5 L-28558.7,-46812 L-28558.3,-46804.3 L-28558.3,13195.7 L-28558.7,13203.3 L-28559.8,13209.8 L-28561.4,13214.2 L-28563.3,13215.7 L-29058.3,13215.7 L-29058.3,33195.7 L60936.7,33195.7 M-12582.6,-17592.7 L-15126.2,-18577.4 L-15493.4,-18824.5 L-15717.9,-19205.9 L-15755.8,-19646.8 L-15665.2,-20302.7 L-15548.1,-20652.5 L-15312.2,-20936.1 L-14935,-21248.4 L-14659.2,-21410.2 L-14346.5,-21476.8 L-13685.9,-21509.3 L-13357.6,-21470.7 L-8697.62,-20115.9 L-2727.11,-19608.3 L-1628.72,-19651.9 L-4273.94,-20266.5 L-4546.96,-20374.1 L-4776.98,-20556.4 L-5138.2,-20941.5 L-5328.59,-21233.1 L-5407.42,-21572.3 L-5434.65,-22082.4 L-5347.15,-22547.9 L-5055.21,-22921 L-4794.02,-23126.9 L-4303.27,-23333.3 L-2149.4,-23612.2 L-1634.02,-23542.5 L1327.6,-22299.6 L1939.87,-22245.2 L2005.19,-22291.6 L2474.17,-23189.6 L2668.51,-23448.6 L2935.38,-23631.8 L4251.34,-24250 L4251.74,-24592.5 L4302.96,-24907.2 L4450.65,-25189.8 L4810.2,-25671.1 L4964.9,-25793.7 L3018.41,-26389.5 L-264.396,-26399.5 L-517.639,-26432.9 L-1946.08,-26811.6 L-2261.64,-26957.8 L-2508.03,-27203.3 L-2655.44,-27518.3 L-2765.84,-27928.6 L-2798.09,-28253.4 L-2724.01,-28571.3 L-2551.5,-28848.4 L-2082.72,-29382.1 L-1825.92,-29591.3 L-1514.87,-29705.1 L1512.8,-30270.1 L-850.886,-30891.1 L-1030.45,-30957.2 L-1955.06,-31402.1 L-2266.31,-31636 L-2624.55,-32036 L-2826.86,-32382.5 L-2998.72,-32890.1 L-3047.92,-33295.7 L-2930.76,-33687.2 L-2666.81,-33999.1 L-2300.14,-34179.4 L-1010.81,-34510.3 L-688.144,-34539 L789.303,-34429.2 L995.803,-34391.8 L2811.11,-33861.2 L2901.61,-33830 L4736.46,-33096.8 L5112.63,-32832.8 L5538.94,-32353.4 L5857.35,-32196.8 L8071.09,-32125.7 L8294.49,-32093 L9162.68,-31863.6 L9588.67,-31628.6 L11010.5,-30304.6 L11210.4,-30045 L12592.6,-27464.9 L13094.9,-26883.2 L15275.7,-26051.7 L17031.4,-25792.6 L17187.3,-25825.8 L17298.7,-26049.9 L17025.6,-26319.9 L15658.1,-26830.3 L15260.3,-27102.9 L14732.4,-27697.1 L14544.1,-28008.9 L14321.8,-28599.1 L14258.4,-28911.8 L14296.7,-29228.5 L14639.6,-30418.2 L14823.6,-30770.9 L15130.6,-31024 L15930,-31449.6 L16417.8,-31566.7 L16692.3,-31561.8 L17089.3,-31471.8 L17417.5,-31231.1 L17869,-30729.8 L18048.8,-30445.8 L18124.3,-30118.2 L18150.9,-29656.8 L19155.4,-29302 L19451.7,-29136.3 L21525.8,-27456.9 L21826.7,-27046.9 L22120.2,-26303.2 L22189.6,-25967.5 L22141.4,-25628 L22008.3,-25216.8 L24487.6,-24880.4 L24803.9,-24782.1 L25414.9,-24473.6 L25702.2,-24255.6 L25992.2,-23938.4 L26071.1,-23950 L26417.3,-24136.6 L28179.2,-25684.6 L28310.6,-26268.1 L28461.8,-28515.7 L28510.3,-28763.3 L28852.6,-29795.5 L29057.3,-30148.5 L29386.1,-30390.3 L29784,-30480.6 L30153.1,-30487.2 L31078,-31016.6 L31480.5,-31144.3 L32190.4,-31211.5 L32555.7,-31178.6 L32884.5,-31016.1 L33065,-30819.6 L33150.8,-30808.8 L33549.7,-30668.6 L33855,-30376 L34012,-29983.4 L34087.2,-29538.9 L34083.6,-29185.5 L33957.4,-28855.4 L33388,-27911.9 L33045.4,-27570.5 L32526,-27259.7 L32151.2,-27162.2 L32069.5,-26662.9 L32082.5,-24261.2 L32059.2,-24041.2 L31825.9,-22979.9 L31677.2,-22633.8 L31161.2,-21872 L30852.1,-21577.9 L29734.7,-20899.7 L30610.1,-20160.1 L30802.9,-19941.8 L31205.5,-19323.2 L31645.3,-19081.9 L32453.3,-19109.7 L35376.6,-19917.4 L35951.2,-19904.8 L36439.1,-19746.7 L36450.8,-19779 L36603.7,-20055.4 L38547.9,-22540.6 L39769.4,-24721.6 L40033,-25026.2 L40395.4,-25202.1 L41153,-25394.7 L41475.8,-25422.7 L41790.5,-25345.9 L42110.2,-25210 L42170.6,-25240.5 L42558.8,-25346 L42957.1,-25289.9 L43083.1,-25245 L43231.8,-25325.9 L43598.7,-25372.5 L43956.1,-25351.2 L44303.7,-25266.2 L44599.2,-25064.4 L44804.7,-24771.5 L45110.5,-24107.8 L45202,-23709.9 L45126.9,-23308.6 L44837,-22604.5 L44665.4,-22327.4 L44413.9,-22120.2 L43540.9,-21614.1 L43102.9,-21481.2 L41691.6,-21391.3 L41603.2,-21341.9 L41202.2,-20278.5 L41146.6,-20156.5 L40380.5,-18736.3 L40331.7,-18655.1 L39186.2,-16942.2 L39102.1,-16833.4 L38193.3,-15811.9 L37878.2,-15574.7 L37211.8,-15255.4 L37035.3,-15190.5 L35146.2,-14691.1 L34941.9,-14532.8 L34716.8,-14128.9 L34522.8,-13882.1 L34261.8,-13707.5 L33842.5,-13514.3 L33589.3,-13436.3 L29809.8,-12802.7 L29668.7,-12751.4 L30250.6,-8703.83 L31126.5,-5491.36 L31150.5,-5078.94 L30926.6,-3596.2 L31114,-2271.11 L31120.6,-2050.54 L30973.3,-227.066 L30930.7,-8.09957 L30454.1,1510.16 L30337.3,1757.4 L29555.1,2955.29 L29549.4,2963.98 L27552.5,5953.77 L27416.1,6117.12 L26551.5,6953.45 L26366.3,7094.83 L25479.3,7620.75 L25300.5,7704.16 L23083,8482.48 L22915.8,8525.38 L21036.8,8837.68 L20916.5,8850.26 L18069,8974.73 L17770.2,8942.6 L16105.6,8503.44 L15789.6,8357.41 L15157.8,7917.9 L14998.6,7780.11 L13860.5,6563.26 L13642.5,6197.54 L12471.2,2697.92 L12429.6,2522.44 L12197.5,903.187 L12188,726.867 L12236.3,-675.105 L12274.3,-915.81 L12599.5,-2052.37 L12731.9,-2336.39 L13337,-3233.64 L13544.8,-3458.09 L14893.7,-4527.56 L15298.5,-4720.26 L16995.4,-5096.45 L17428,-5096.52 L19137.2,-4718.16 L19463.9,-4581.67 L20155.3,-4134.84 L20349.9,-3970.43 L20904.8,-3364.66 L21092.1,-3069.81 L21431,-2246.35 L21506.1,-1886.91 L21549.6,167.501 L21616.4,427.043 L21695.8,485.358 L22532.3,483.914 L22887.4,548.43 L23196.5,734.801 L23345.4,924.565 L23668.1,756.679 L23921.9,462.283 L24643.9,-2013.02 L24768.1,-2281.97 L25010.4,-2650.9 L24914,-2769.13 L24612.4,-3324.77 L24492.2,-3757.78 L24410.4,-5612.91 L24350.9,-5767.34 L24322.4,-5787.92 L23842.6,-5906.11 L23570.6,-6017.61 L23342.8,-6203.37 L19375.4,-10555 L16898.5,-12909.5 L14756.8,-14391.1 L14626.6,-14498.5 L13631,-15471.8 L13087.5,-15789.8 L12423.8,-15897.3 L11718.5,-15567.6 L11420,-15481.4 L11109.5,-15490.9 L8443.46,-15994.2 L8276.87,-16040.8 L6707.12,-16631.3 L6469.48,-16759.7 L5525.91,-17448.7 L5108.11,-16723.5 L4961.69,-16528.9 L4434.43,-15981.7 L4163.71,-15782.3 L2300.54,-14845.2 L2144.94,-14782.7 L401.771,-14247 L188.41,-14206.1 L-1274.22,-14088.2 L-1561.14,-14106.5 L-2576.99,-14321 L-3566.91,-14045.3 L-3755.8,-14011.8 L-5208.29,-13896.1 L-5329.91,-13893.9 L-8734.66,-14037.9 L-11603.4,-13947.8 L-11728.9,-13951.8 L-13361.6,-14106.1 L-13569.8,-14148.5 L-14276.9,-14372.8 L-14639.5,-14579 L-14990.4,-14891.4 L-15235.6,-15224 L-15325.5,-15627.2 L-15329.9,-16027.3 L-15285.1,-16334.8 L-15148,-16613.7 L-14804.7,-17101.7 L-14468.1,-17403 L-14033.1,-17525.4 L-12582.6,-17592.7"/>
</g>

<g fill="none" stroke="#000000" stroke-opacity="1" stroke-width="1" stroke-linecap="square" stroke-linejoin="bevel" transform="matrix(1,0,0,-1,39063.8,33196.2)"
font-family="MS Shell Dlg 2" font-size="10.3125" font-weight="400" font-style="normal" 
>
</g>

<g fill="none" stroke="#000000" stroke-opacity="1" stroke-width="1" stroke-linecap="square" stroke-linejoin="bevel" transform="matrix(1,0,0,-1,39063.8,33196.2)"
font-family="MS Shell Dlg 2" font-size="10.3125" font-weight="400" font-style="normal" 
>
</g>

<g fill="#333333" fill-opacity="0.500008" stroke="#333333" stroke-opacity="1" stroke-width="1" stroke-linecap="round" stroke-linejoin="round" transform="matrix(1,0,0,-1,39063.8,33196.2)"
font-family="MS Shell Dlg 2" font-size="10.3125" font-weight="400" font-style="normal" 
>
<path vector-effect="non-scaling-stroke" fill-rule="evenodd" d="M-29568.3,-66804.3 L-39063.3,-66804.3 L-39063.3,33195.7 L-29568.3,33195.7 L-29568.3,13195.7 L-29567.9,13188 L-29566.9,13181.5 L-29565.2,13177.2 L-29563.3,13175.7 L-29068.3,13175.7 L-29068.3,-6784.31 L-29563.3,-6784.31 L-29565.2,-6785.83 L-29566.9,-6790.17 L-29567.9,-6796.66 L-29568.3,-6804.31 L-29568.3,-26804.3 L-29567.9,-26812 L-29566.9,-26818.5 L-29565.2,-26822.8 L-29563.3,-26824.3 L-29068.3,-26824.3 L-29068.3,-46784.3 L-29563.3,-46784.3 L-29565.2,-46785.8 L-29566.9,-46790.2 L-29567.9,-46796.7 L-29568.3,-46804.3 L-29568.3,-66804.3"/>
</g>

<g fill="none" stroke="#000000" stroke-opacity="1" stroke-width="1" stroke-linecap="square" stroke-linejoin="bevel" transform="matrix(1,0,0,-1,39063.8,33196.2)"
font-family="MS Shell Dlg 2" font-size="10.3125" font-weight="400" font-style="normal" 
>
</g>

<g fill="none" stroke="#000000" stroke-opacity="1" stroke-width="1" stroke-linecap="square" stroke-linejoin="bevel" transform="matrix(1,0,0,-1,0,100001)"
font-family="MS Shell Dlg 2" font-size="10.3125" font-weight="400" font-style="normal" 
>
</g>
</g>
</svg>
