<?xml version="1.0" encoding="UTF-8" standalone="no"?>
<svg width="33866.9mm" height="33866.9mm"
 xmlns="http://www.w3.org/2000/svg" xmlns:xlink="http://www.w3.org/1999/xlink"  version="1.2" baseProfile="tiny">
<title>SVG Generator Example Drawing</title>
<desc>An SVG drawing created by the SVG Generator</desc>
<defs>
</defs>
<g fill="none" stroke="black" stroke-width="1" fill-rule="evenodd" stroke-linecap="square" stroke-linejoin="bevel" >

<g fill="none" stroke="#000000" stroke-opacity="1" stroke-width="1" stroke-linecap="square" stroke-linejoin="bevel" transform="matrix(1,0,0,-1,0,120001)"
font-family="MS Shell Dlg 2" font-size="10.3125" font-weight="400" font-style="normal" 
>
</g>

<g fill="none" stroke="#000000" stroke-opacity="1" stroke-width="1" stroke-linecap="square" stroke-linejoin="bevel" transform="matrix(1,0,0,-1,0,120001)"
font-family="MS Shell Dlg 2" font-size="10.3125" font-weight="400" font-style="normal" 
>
</g>

<g fill="none" stroke="#000000" stroke-opacity="1" stroke-width="1" stroke-linecap="square" stroke-linejoin="bevel" transform="matrix(1,0,0,-1,49063.8,43196.2)"
font-family="MS Shell Dlg 2" font-size="10.3125" font-weight="400" font-style="normal" 
>
</g>

<g fill="#333333" fill-opacity="0.500008" stroke="#333333" stroke-opacity="1" stroke-width="1" stroke-linecap="round" stroke-linejoin="round" transform="matrix(1,0,0,-1,49063.8,43196.2)"
font-family="MS Shell Dlg 2" font-size="10.3125" font-weight="400" font-style="normal" 
>
<path vector-effect="non-scaling-stroke" fill-rule="evenodd" d="M-49063.3,-76804.3 L-49063.3,43195.7 L70936.7,43195.7 L70936.7,-76804.3 L-49063.3,-76804.3 M-40063.3,33195.7 L-40063.3,-66804.3 L-39987.2,-67187 L-39770.4,-67511.4 L-39446,-67728.2 L-39063.3,-67804.3 L60936.7,-67804.3 L61319.4,-67728.2 L61643.8,-67511.4 L61860.6,-67187 L61936.7,-66804.3 L61936.7,33195.7 L61860.6,33578.4 L61643.8,33902.8 L61319.4,34119.6 L60936.7,34195.7 L-39063.3,34195.7 L-39446,34119.6 L-39770.4,33902.8 L-39987.2,33578.4 L-40063.3,33195.7"/>
</g>

<g fill="none" stroke="#000000" stroke-opacity="1" stroke-width="1" stroke-linecap="square" stroke-linejoin="bevel" transform="matrix(1,0,0,-1,49063.8,43196.2)"
font-family="MS Shell Dlg 2" font-size="10.3125" font-weight="400" font-style="normal" 
>
</g>

<g fill="none" stroke="#000000" stroke-opacity="1" stroke-width="1" stroke-linecap="square" stroke-linejoin="bevel" transform="matrix(1,0,0,-1,49063.8,43196.2)"
font-family="MS Shell Dlg 2" font-size="10.3125" font-weight="400" font-style="normal" 
>
</g>

<g fill="#ae5151" fill-opacity="0.500008" stroke="#333333" stroke-opacity="1" stroke-width="1" stroke-linecap="round" stroke-linejoin="round" transform="matrix(1,0,0,-1,49063.8,43196.2)"
font-family="MS Shell Dlg 2" font-size="10.3125" font-weight="400" font-style="normal" 
>
<path vector-effect="non-scaling-stroke" fill-rule="evenodd" d="M-49063.3,-76804.3 L-49063.3,43195.7 L70936.7,43195.7 L70936.7,-76804.3 L-49063.3,-76804.3 M-40063.3,33195.7 L-40063.3,-66804.3 L-39987.2,-67187 L-39770.4,-67511.4 L-39446,-67728.2 L-39063.3,-67804.3 L60936.7,-67804.3 L61319.4,-67728.2 L61643.8,-67511.4 L61860.6,-67187 L61936.7,-66804.3 L61936.7,33195.7 L61860.6,33578.4 L61643.8,33902.8 L61319.4,34119.6 L60936.7,34195.7 L-39063.3,34195.7 L-39446,34119.6 L-39770.4,33902.8 L-39987.2,33578.4 L-40063.3,33195.7"/>
</g>

<g fill="none" stroke="#000000" stroke-opacity="1" stroke-width="1" stroke-linecap="square" stroke-linejoin="bevel" transform="matrix(1,0,0,-1,49063.8,43196.2)"
font-family="MS Shell Dlg 2" font-size="10.3125" font-weight="400" font-style="normal" 
>
</g>

<g fill="none" stroke="#000000" stroke-opacity="1" stroke-width="1" stroke-linecap="square" stroke-linejoin="bevel" transform="matrix(1,0,0,-1,49063.8,43196.2)"
font-family="MS Shell Dlg 2" font-size="10.3125" font-weight="400" font-style="normal" 
>
</g>

<g fill="#ffff00" fill-opacity="0.500008" stroke="#333333" stroke-opacity="1" stroke-width="1" stroke-linecap="round" stroke-linejoin="round" transform="matrix(1,0,0,-1,49063.8,43196.2)"
font-family="MS Shell Dlg 2" font-size="10.3125" font-weight="400" font-style="normal" 
>
<path vector-effect="non-scaling-stroke" fill-rule="evenodd" d="M-49063.3,-76804.3 L-49063.3,43195.7 L70936.7,43195.7 L70936.7,-76804.3 L-49063.3,-76804.3 M-40063.3,33195.7 L-40063.3,-66804.3 L-39987.2,-67187 L-39770.4,-67511.4 L-39446,-67728.2 L-39063.3,-67804.3 L60936.7,-67804.3 L61319.4,-67728.2 L61643.8,-67511.4 L61860.6,-67187 L61936.7,-66804.3 L61936.7,33195.7 L61860.6,33578.4 L61643.8,33902.8 L61319.4,34119.6 L60936.7,34195.7 L-39063.3,34195.7 L-39446,34119.6 L-39770.4,33902.8 L-39987.2,33578.4 L-40063.3,33195.7"/>
</g>

<g fill="none" stroke="#000000" stroke-opacity="1" stroke-width="1" stroke-linecap="square" stroke-linejoin="bevel" transform="matrix(1,0,0,-1,49063.8,43196.2)"
font-family="MS Shell Dlg 2" font-size="10.3125" font-weight="400" font-style="normal" 
>
</g>

<g fill="none" stroke="#000000" stroke-opacity="1" stroke-width="1" stroke-linecap="square" stroke-linejoin="bevel" transform="matrix(1,0,0,-1,49063.8,43196.2)"
font-family="MS Shell Dlg 2" font-size="10.3125" font-weight="400" font-style="normal" 
>
</g>

<g fill="#ae5151" fill-opacity="0.500008" stroke="#333333" stroke-opacity="1" stroke-width="1" stroke-linecap="round" stroke-linejoin="round" transform="matrix(1,0,0,-1,49063.8,43196.2)"
font-family="MS Shell Dlg 2" font-size="10.3125" font-weight="400" font-style="normal" 
>
<path vector-effect="non-scaling-stroke" fill-rule="evenodd" d="M-49063.3,-76804.3 L-49063.3,43195.7 L70936.7,43195.7 L70936.7,-76804.3 L-49063.3,-76804.3 M-40063.3,33195.7 L-40063.3,-66804.3 L-39987.2,-67187 L-39770.4,-67511.4 L-39446,-67728.2 L-39063.3,-67804.3 L60936.7,-67804.3 L61319.4,-67728.2 L61643.8,-67511.4 L61860.6,-67187 L61936.7,-66804.3 L61936.7,33195.7 L61860.6,33578.4 L61643.8,33902.8 L61319.4,34119.6 L60936.7,34195.7 L-39063.3,34195.7 L-39446,34119.6 L-39770.4,33902.8 L-39987.2,33578.4 L-40063.3,33195.7"/>
</g>

<g fill="none" stroke="#000000" stroke-opacity="1" stroke-width="1" stroke-linecap="square" stroke-linejoin="bevel" transform="matrix(1,0,0,-1,49063.8,43196.2)"
font-family="MS Shell Dlg 2" font-size="10.3125" font-weight="400" font-style="normal" 
>
</g>

<g fill="none" stroke="#000000" stroke-opacity="1" stroke-width="1" stroke-linecap="square" stroke-linejoin="bevel" transform="matrix(1,0,0,-1,49063.8,43196.2)"
font-family="MS Shell Dlg 2" font-size="10.3125" font-weight="400" font-style="normal" 
>
</g>

<g fill="#333333" fill-opacity="0.500008" stroke="#333333" stroke-opacity="1" stroke-width="1" stroke-linecap="round" stroke-linejoin="round" transform="matrix(1,0,0,-1,49063.8,43196.2)"
font-family="MS Shell Dlg 2" font-size="10.3125" font-weight="400" font-style="normal" 
>
<path vector-effect="non-scaling-stroke" fill-rule="evenodd" d="M-49063.3,-76804.3 L-49063.3,43195.7 L70936.7,43195.7 L70936.7,-76804.3 L-49063.3,-76804.3 M-40063.3,33195.7 L-40063.3,-66804.3 L-39987.2,-67187 L-39770.4,-67511.4 L-39446,-67728.2 L-39063.3,-67804.3 L60936.7,-67804.3 L61319.4,-67728.2 L61643.8,-67511.4 L61860.6,-67187 L61936.7,-66804.3 L61936.7,33195.7 L61860.6,33578.4 L61643.8,33902.8 L61319.4,34119.6 L60936.7,34195.7 L-39063.3,34195.7 L-39446,34119.6 L-39770.4,33902.8 L-39987.2,33578.4 L-40063.3,33195.7"/>
</g>

<g fill="none" stroke="#000000" stroke-opacity="1" stroke-width="1" stroke-linecap="square" stroke-linejoin="bevel" transform="matrix(1,0,0,-1,49063.8,43196.2)"
font-family="MS Shell Dlg 2" font-size="10.3125" font-weight="400" font-style="normal" 
>
</g>

<g fill="none" stroke="#000000" stroke-opacity="1" stroke-width="1" stroke-linecap="square" stroke-linejoin="bevel" transform="matrix(1,0,0,-1,49063.8,43196.2)"
font-family="MS Shell Dlg 2" font-size="10.3125" font-weight="400" font-style="normal" 
>
</g>

<g fill="#ae5151" fill-opacity="0.500008" stroke="#333333" stroke-opacity="1" stroke-width="1" stroke-linecap="round" stroke-linejoin="round" transform="matrix(1,0,0,-1,49063.8,43196.2)"
font-family="MS Shell Dlg 2" font-size="10.3125" font-weight="400" font-style="normal" 
>
<path vector-effect="non-scaling-stroke" fill-rule="evenodd" d="M-11780.8,-16628.8 L-11591.2,-16637.6 L-11135.4,-16658.7 L-11134.7,-16667.7 L-11148.2,-16705.3 L-11148.6,-16706.6 L-11148.6,-16706.6 L-11159.1,-16717.6 L-11177,-16736.5 L-11193.7,-16743.5 L-11215,-16752.4 L-11395.8,-16786.9 L-11402.9,-16786.8 L-11434.9,-16786.6 L-11484.6,-16776.3 L-11702.3,-16731.3 L-11713.3,-16726.7 L-11736.6,-16717.2 L-11749.1,-16705.2 L-11763.4,-16691.5 L-11779,-16657.9 L-11779.6,-16648.5 L-11780.8,-16628.8 L-11780.8,-16628.8"/>
</g>

<g fill="none" stroke="#000000" stroke-opacity="1" stroke-width="1" stroke-linecap="square" stroke-linejoin="bevel" transform="matrix(1,0,0,-1,49063.8,43196.2)"
font-family="MS Shell Dlg 2" font-size="10.3125" font-weight="400" font-style="normal" 
>
</g>

<g fill="none" stroke="#000000" stroke-opacity="1" stroke-width="1" stroke-linecap="square" stroke-linejoin="bevel" transform="matrix(1,0,0,-1,49063.8,43196.2)"
font-family="MS Shell Dlg 2" font-size="10.3125" font-weight="400" font-style="normal" 
>
</g>

<g fill="#ae5151" fill-opacity="0.500008" stroke="#333333" stroke-opacity="1" stroke-width="1" stroke-linecap="round" stroke-linejoin="round" transform="matrix(1,0,0,-1,49063.8,43196.2)"
font-family="MS Shell Dlg 2" font-size="10.3125" font-weight="400" font-style="normal" 
>
<path vector-effect="non-scaling-stroke" fill-rule="evenodd" d="M40836.7,-25268.2 L40951.4,-25275.9 L41036.7,-25249.8 L41036.7,-25365.2 L40836.7,-25314.3 L40836.7,-25268.2"/>
</g>

<g fill="none" stroke="#000000" stroke-opacity="1" stroke-width="1" stroke-linecap="square" stroke-linejoin="bevel" transform="matrix(1,0,0,-1,49063.8,43196.2)"
font-family="MS Shell Dlg 2" font-size="10.3125" font-weight="400" font-style="normal" 
>
</g>

<g fill="none" stroke="#000000" stroke-opacity="1" stroke-width="1" stroke-linecap="square" stroke-linejoin="bevel" transform="matrix(1,0,0,-1,49063.8,43196.2)"
font-family="MS Shell Dlg 2" font-size="10.3125" font-weight="400" font-style="normal" 
>
</g>

<g fill="#ae5151" fill-opacity="0.500008" stroke="#333333" stroke-opacity="1" stroke-width="1" stroke-linecap="round" stroke-linejoin="round" transform="matrix(1,0,0,-1,49063.8,43196.2)"
font-family="MS Shell Dlg 2" font-size="10.3125" font-weight="400" font-style="normal" 
>
<path vector-effect="non-scaling-stroke" fill-rule="evenodd" d="M41976.9,-24180.1 L42146.5,-24108.1 L42146.5,-24108.1 L42316.6,-24194 L42621.4,-24347.9 L42621.4,-24347.9 L43237.7,-24128.4 L43539.1,-24374.3 L43539.1,-24374.3 L43896.4,-24352.9 L43896.4,-24352.9 L43896.4,-24352.9 L43896.4,-24352.9 L44202.2,-23689.3 L44202.2,-23689.3 L43928.1,-23023.6 L43912.3,-22985.3 L43912.3,-22985.3 L43246.7,-22599.4 L43039.3,-22479.2 L43039.3,-22479.2 L42054.3,-22416.5 L42053.8,-22410.8 L42053.8,-22410.4 L42066.8,-22372 L42088.2,-22348.5 L42094,-22342 L42115,-22326.7 L42144.5,-22313 L42150.4,-22310.3 L42529.5,-22218.1 L42568.5,-22216.5 L42751.8,-22245 L42954.1,-22276.5 L42973.1,-22281.4 L45011,-23027 L45021.9,-23053.6 L45126.9,-23308.6 L45176.9,-23575.7 L45202,-23709.9 L45161.8,-23884.6 L45110.5,-24107.8 L44804.7,-24771.5 L44715.1,-24899 L44671.2,-24961.7 L44599.2,-25064.4 L44457.7,-25161.1 L44451.9,-25165 L43570.2,-24842.5 L42217.2,-24347.5 L42201.7,-24340 L42199.5,-24339 L42015.7,-24227 L41988.6,-24202.7 L41980.3,-24186.8 L41976.9,-24180.1 L41976.9,-24180.1"/>
</g>

<g fill="none" stroke="#000000" stroke-opacity="1" stroke-width="1" stroke-linecap="square" stroke-linejoin="bevel" transform="matrix(1,0,0,-1,49063.8,43196.2)"
font-family="MS Shell Dlg 2" font-size="10.3125" font-weight="400" font-style="normal" 
>
</g>

<g fill="none" stroke="#000000" stroke-opacity="1" stroke-width="1" stroke-linecap="square" stroke-linejoin="bevel" transform="matrix(1,0,0,-1,49063.8,43196.2)"
font-family="MS Shell Dlg 2" font-size="10.3125" font-weight="400" font-style="normal" 
>
</g>

<g fill="#ae5151" fill-opacity="0.500008" stroke="#333333" stroke-opacity="1" stroke-width="1" stroke-linecap="round" stroke-linejoin="round" transform="matrix(1,0,0,-1,49063.8,43196.2)"
font-family="MS Shell Dlg 2" font-size="10.3125" font-weight="400" font-style="normal" 
>
<path vector-effect="non-scaling-stroke" fill-rule="evenodd" d="M4416.22,-26704.3 L4446.14,-26904.3 L941.678,-26904.3 L431.678,-26904.3 L-2146.12,-26904.3 L-1946.08,-26811.6 L-1541.41,-26704.3 L4416.22,-26704.3"/>
</g>

<g fill="none" stroke="#000000" stroke-opacity="1" stroke-width="1" stroke-linecap="square" stroke-linejoin="bevel" transform="matrix(1,0,0,-1,49063.8,43196.2)"
font-family="MS Shell Dlg 2" font-size="10.3125" font-weight="400" font-style="normal" 
>
</g>

<g fill="none" stroke="#000000" stroke-opacity="1" stroke-width="1" stroke-linecap="square" stroke-linejoin="bevel" transform="matrix(1,0,0,-1,49063.8,43196.2)"
font-family="MS Shell Dlg 2" font-size="10.3125" font-weight="400" font-style="normal" 
>
</g>

<g fill="#ae5151" fill-opacity="0.500008" stroke="#333333" stroke-opacity="1" stroke-width="1" stroke-linecap="round" stroke-linejoin="round" transform="matrix(1,0,0,-1,49063.8,43196.2)"
font-family="MS Shell Dlg 2" font-size="10.3125" font-weight="400" font-style="normal" 
>
<path vector-effect="non-scaling-stroke" fill-rule="evenodd" d="M17059.9,-26704.3 L17099,-26904.3 L15550.2,-26904.3 L15566.1,-26893.4 L15658.1,-26830.3 L15995.7,-26704.3 L17059.9,-26704.3"/>
</g>

<g fill="none" stroke="#000000" stroke-opacity="1" stroke-width="1" stroke-linecap="square" stroke-linejoin="bevel" transform="matrix(1,0,0,-1,49063.8,43196.2)"
font-family="MS Shell Dlg 2" font-size="10.3125" font-weight="400" font-style="normal" 
>
</g>

<g fill="none" stroke="#000000" stroke-opacity="1" stroke-width="1" stroke-linecap="square" stroke-linejoin="bevel" transform="matrix(1,0,0,-1,49063.8,43196.2)"
font-family="MS Shell Dlg 2" font-size="10.3125" font-weight="400" font-style="normal" 
>
</g>

<g fill="#ae5151" fill-opacity="0.500008" stroke="#333333" stroke-opacity="1" stroke-width="1" stroke-linecap="round" stroke-linejoin="round" transform="matrix(1,0,0,-1,49063.8,43196.2)"
font-family="MS Shell Dlg 2" font-size="10.3125" font-weight="400" font-style="normal" 
>
<path vector-effect="non-scaling-stroke" fill-rule="evenodd" d="M-3021.85,-33080.8 L-2998.72,-32890.1 L-2911.29,-32631.8 L-2826.86,-32382.5 L-2760.13,-32268.2 L-2754.57,-32258.7 L-1573.02,-31869.6 L-1024.36,-31689 L-1005.23,-31684.7 L-617.937,-31637.3 L-579.028,-31640.2 L-521.838,-31656.1 L-349.519,-31704 L-341.636,-31707.8 L-316.216,-31720.4 L-291.192,-31747.8 L-287.061,-31758.6 L-280.674,-31775.2 L-376.796,-31800.4 L-596.817,-31858.2 L-1016.05,-32060 L-1521.43,-32303.2 L-1841.5,-32660.5 L-1879.67,-32703.2 L-1965.6,-32957 L-2051.54,-33210.8 L-2051.54,-33210.8 L-2051.54,-33210.8 L-762.204,-33541.7 L-731.551,-33539.4 L-289.358,-33506.6 L74.942,-33479.5 L74.3487,-33486.4 L71.9157,-33514.4 L66.6088,-33524.9 L54.554,-33548.5 L50.8687,-33553.2 L43.1524,-33559.9 L21.2989,-33578.7 L-318.381,-33770.7 L-336.31,-33778.6 L-1880.6,-34287.1 L-2300.14,-34179.4 L-2501.32,-34080.5 L-2666.81,-33999.1 L-2740.88,-33911.6 L-2930.76,-33687.2 L-3011.42,-33417.7 L-3047.92,-33295.7 L-3022.74,-33088.1 L-3021.85,-33080.8"/>
</g>

<g fill="none" stroke="#000000" stroke-opacity="1" stroke-width="1" stroke-linecap="square" stroke-linejoin="bevel" transform="matrix(1,0,0,-1,49063.8,43196.2)"
font-family="MS Shell Dlg 2" font-size="10.3125" font-weight="400" font-style="normal" 
>
</g>

<g fill="none" stroke="#000000" stroke-opacity="1" stroke-width="1" stroke-linecap="square" stroke-linejoin="bevel" transform="matrix(1,0,0,-1,49063.8,43196.2)"
font-family="MS Shell Dlg 2" font-size="10.3125" font-weight="400" font-style="normal" 
>
</g>

<g fill="#ae5151" fill-opacity="0.500008" stroke="#333333" stroke-opacity="1" stroke-width="1" stroke-linecap="round" stroke-linejoin="round" transform="matrix(1,0,0,-1,49063.8,43196.2)"
font-family="MS Shell Dlg 2" font-size="10.3125" font-weight="400" font-style="normal" 
>
<path vector-effect="non-scaling-stroke" fill-rule="evenodd" d="M30069.1,-30482.7 L30286.6,-30448.4 L31108.9,-30919.1 L31511.4,-31046.8 L31753,-31069.7 L31757,-31073.4 L32174.8,-31210.1 L32160.1,-31208.7 L31480.5,-31144.3 L31293.2,-31084.9 L31078,-31016.6 L30153.1,-30487.2 L30153.1,-30487.2 L30109.9,-30486.4 L30069.1,-30485.7 L30069.1,-30482.7"/>
</g>

<g fill="none" stroke="#000000" stroke-opacity="1" stroke-width="1" stroke-linecap="square" stroke-linejoin="bevel" transform="matrix(1,0,0,-1,49063.8,43196.2)"
font-family="MS Shell Dlg 2" font-size="10.3125" font-weight="400" font-style="normal" 
>
</g>

<g fill="none" stroke="#000000" stroke-opacity="1" stroke-width="1" stroke-linecap="square" stroke-linejoin="bevel" transform="matrix(1,0,0,-1,49063.8,43196.2)"
font-family="MS Shell Dlg 2" font-size="10.3125" font-weight="400" font-style="normal" 
>
</g>

<g fill="#ae5151" fill-opacity="0.500008" stroke="#333333" stroke-opacity="1" stroke-width="1" stroke-linecap="round" stroke-linejoin="round" transform="matrix(1,0,0,-1,49063.8,43196.2)"
font-family="MS Shell Dlg 2" font-size="10.3125" font-weight="400" font-style="normal" 
>
<path vector-effect="non-scaling-stroke" fill-rule="evenodd" d="M6841.61,-31175.7 L6842.18,-31167.4 L6842.36,-31164.7 L7677.95,-31137.8 L8038.98,-31126.2 L8907.17,-30896.8 L8993.35,-30816.5 L9008.74,-30835.3 L9017.04,-30860.1 L9020.22,-30869.6 L9162.24,-31863.7 L8946.24,-31920.8 L8381.18,-32070.1 L8294.49,-32093 L8071.09,-32125.7 L7402.08,-32147.2 L6982.33,-32160.7 L6944.22,-31893.9 L6841.61,-31175.7 L6841.61,-31175.7"/>
</g>

<g fill="none" stroke="#000000" stroke-opacity="1" stroke-width="1" stroke-linecap="square" stroke-linejoin="bevel" transform="matrix(1,0,0,-1,49063.8,43196.2)"
font-family="MS Shell Dlg 2" font-size="10.3125" font-weight="400" font-style="normal" 
>
</g>

<g fill="none" stroke="#000000" stroke-opacity="1" stroke-width="1" stroke-linecap="square" stroke-linejoin="bevel" transform="matrix(1,0,0,-1,49063.8,43196.2)"
font-family="MS Shell Dlg 2" font-size="10.3125" font-weight="400" font-style="normal" 
>
</g>

<g fill="#ae5151" fill-opacity="0.500008" stroke="#333333" stroke-opacity="1" stroke-width="1" stroke-linecap="round" stroke-linejoin="round" transform="matrix(1,0,0,-1,49063.8,43196.2)"
font-family="MS Shell Dlg 2" font-size="10.3125" font-weight="400" font-style="normal" 
>
<path vector-effect="non-scaling-stroke" fill-rule="evenodd" d="M431.678,-31588.1 L431.678,-30804.3 L431.685,-30804.3 L432.058,-30803.5 L433.142,-30802.9 L434.764,-30802.5 L436.678,-30802.3 L1436.68,-30802.3 L1438.59,-30802.5 L1440.21,-30802.9 L1441.3,-30803.5 L1441.68,-30804.3 L1441.68,-31322.8 L431.678,-31588.1 L431.678,-31588.1"/>
</g>

<g fill="none" stroke="#000000" stroke-opacity="1" stroke-width="1" stroke-linecap="square" stroke-linejoin="bevel" transform="matrix(1,0,0,-1,49063.8,43196.2)"
font-family="MS Shell Dlg 2" font-size="10.3125" font-weight="400" font-style="normal" 
>
</g>

<g fill="none" stroke="#000000" stroke-opacity="1" stroke-width="1" stroke-linecap="square" stroke-linejoin="bevel" transform="matrix(1,0,0,-1,49063.8,43196.2)"
font-family="MS Shell Dlg 2" font-size="10.3125" font-weight="400" font-style="normal" 
>
</g>

<g fill="#ae5151" fill-opacity="0.500008" stroke="#333333" stroke-opacity="1" stroke-width="1" stroke-linecap="round" stroke-linejoin="round" transform="matrix(1,0,0,-1,49063.8,43196.2)"
font-family="MS Shell Dlg 2" font-size="10.3125" font-weight="400" font-style="normal" 
>
<path vector-effect="non-scaling-stroke" fill-rule="evenodd" d="M-49063.3,-76804.3 L-49063.3,43195.7 L70936.7,43195.7 L70936.7,-76804.3 L-49063.3,-76804.3 M-28068.3,33195.7 L-28144.4,33578.4 L-28361.2,33902.8 L-28685.6,34119.6 L-29068.3,34195.7 L-39063.3,34195.7 L-39446,34119.6 L-39770.4,33902.8 L-39987.2,33578.4 L-40063.3,33195.7 L-40063.3,-66804.3 L-39987.2,-67187 L-39770.4,-67511.4 L-39446,-67728.2 L-39063.3,-67804.3 L-29068.3,-67804.3 L-28685.6,-67728.2 L-28361.2,-67511.4 L-28144.4,-67187 L-28068.3,-66804.3 L60936.7,-66804.3 L60936.7,-66804.3 L60936.7,-66804.3 L60936.7,33195.7 L60936.7,33195.7 L60936.7,33195.7 L60936.7,33195.7 L-28068.3,33195.7"/>
</g>

<g fill="none" stroke="#000000" stroke-opacity="1" stroke-width="1" stroke-linecap="square" stroke-linejoin="bevel" transform="matrix(1,0,0,-1,49063.8,43196.2)"
font-family="MS Shell Dlg 2" font-size="10.3125" font-weight="400" font-style="normal" 
>
</g>

<g fill="none" stroke="#000000" stroke-opacity="1" stroke-width="1" stroke-linecap="square" stroke-linejoin="bevel" transform="matrix(1,0,0,-1,49063.8,43196.2)"
font-family="MS Shell Dlg 2" font-size="10.3125" font-weight="400" font-style="normal" 
>
</g>

<g fill="#ae5151" fill-opacity="0.500008" stroke="#333333" stroke-opacity="1" stroke-width="1" stroke-linecap="round" stroke-linejoin="round" transform="matrix(1,0,0,-1,49063.8,43196.2)"
font-family="MS Shell Dlg 2" font-size="10.3125" font-weight="400" font-style="normal" 
>
<path vector-effect="non-scaling-stroke" fill-rule="evenodd" d="M-13545.5,-15085 L-13343.4,-15020.9 L-13229.2,-14997.6 L-11931.9,-14875.1 L-11608.1,-14948.2 L-11634.7,-14947.3 L-12349.7,-15014.9 L-13267.5,-15101.7 L-13367.4,-15133.4 L-13466.7,-15164.9 L-13545.5,-15085"/>
</g>

<g fill="none" stroke="#000000" stroke-opacity="1" stroke-width="1" stroke-linecap="square" stroke-linejoin="bevel" transform="matrix(1,0,0,-1,49063.8,43196.2)"
font-family="MS Shell Dlg 2" font-size="10.3125" font-weight="400" font-style="normal" 
>
</g>

<g fill="none" stroke="#000000" stroke-opacity="1" stroke-width="1" stroke-linecap="square" stroke-linejoin="bevel" transform="matrix(1,0,0,-1,49063.8,43196.2)"
font-family="MS Shell Dlg 2" font-size="10.3125" font-weight="400" font-style="normal" 
>
</g>

<g fill="#ae5151" fill-opacity="0.500008" stroke="#333333" stroke-opacity="1" stroke-width="1" stroke-linecap="round" stroke-linejoin="round" transform="matrix(1,0,0,-1,49063.8,43196.2)"
font-family="MS Shell Dlg 2" font-size="10.3125" font-weight="400" font-style="normal" 
>
<path vector-effect="non-scaling-stroke" fill-rule="evenodd" d="M15573.6,-13882.3 L15453,-14008.5 L15441.7,-14038.9 L14820.6,-14468.6 L14690.5,-14575.9 L14260.1,-14996.6 L14258.2,-14996.8 L13879.3,-15229.2 L14009.7,-15101.6 L14626.6,-14498.5 L14743.2,-14402.4 L14756.8,-14391.1 L15538.2,-13850.6 L15573.6,-13882.3"/>
</g>

<g fill="none" stroke="#000000" stroke-opacity="1" stroke-width="1" stroke-linecap="square" stroke-linejoin="bevel" transform="matrix(1,0,0,-1,49063.8,43196.2)"
font-family="MS Shell Dlg 2" font-size="10.3125" font-weight="400" font-style="normal" 
>
</g>

<g fill="none" stroke="#000000" stroke-opacity="1" stroke-width="1" stroke-linecap="square" stroke-linejoin="bevel" transform="matrix(1,0,0,-1,49063.8,43196.2)"
font-family="MS Shell Dlg 2" font-size="10.3125" font-weight="400" font-style="normal" 
>
</g>

<g fill="#ae5151" fill-opacity="0.500008" stroke="#333333" stroke-opacity="1" stroke-width="1" stroke-linecap="round" stroke-linejoin="round" transform="matrix(1,0,0,-1,49063.8,43196.2)"
font-family="MS Shell Dlg 2" font-size="10.3125" font-weight="400" font-style="normal" 
>
<path vector-effect="non-scaling-stroke" fill-rule="evenodd" d="M30028.4,-9919.46 L30018,-9747.72 L30003.6,-9719.29 L30152.5,-8683.48 L30228.2,-8405.83 L30255,-8383.23 L30435.4,-8026.01 L30315,-8467.6 L30250.6,-8703.83 L30233,-8826.18 L30076.5,-9914.84 L30028.4,-9919.46"/>
</g>

<g fill="none" stroke="#000000" stroke-opacity="1" stroke-width="1" stroke-linecap="square" stroke-linejoin="bevel" transform="matrix(1,0,0,-1,49063.8,43196.2)"
font-family="MS Shell Dlg 2" font-size="10.3125" font-weight="400" font-style="normal" 
>
</g>

<g fill="none" stroke="#000000" stroke-opacity="1" stroke-width="1" stroke-linecap="square" stroke-linejoin="bevel" transform="matrix(1,0,0,-1,49063.8,43196.2)"
font-family="MS Shell Dlg 2" font-size="10.3125" font-weight="400" font-style="normal" 
>
</g>

<g fill="#ae5151" fill-opacity="0.500008" stroke="#333333" stroke-opacity="1" stroke-width="1" stroke-linecap="round" stroke-linejoin="round" transform="matrix(1,0,0,-1,49063.8,43196.2)"
font-family="MS Shell Dlg 2" font-size="10.3125" font-weight="400" font-style="normal" 
>
<path vector-effect="non-scaling-stroke" fill-rule="evenodd" d="M21438.6,-802.461 L21440.2,-802.895 L21441.3,-803.544 L21441.4,-803.698 L21441.7,-804.309 L21441.7,-2195.4 L21431,-2246.35 L21200.6,-2806.31 L20941.7,-2806.31 L20436.7,-2806.31 L20434.8,-2806.16 L20433.1,-2805.72 L20432.1,-2805.07 L20431.7,-2804.31 L20431.7,-2047.05 L20506.3,-1865.73 L20528.8,-802.309 L21436.7,-802.309 L21438.6,-802.461"/>
</g>

<g fill="none" stroke="#000000" stroke-opacity="1" stroke-width="1" stroke-linecap="square" stroke-linejoin="bevel" transform="matrix(1,0,0,-1,49063.8,43196.2)"
font-family="MS Shell Dlg 2" font-size="10.3125" font-weight="400" font-style="normal" 
>
</g>

<g fill="none" stroke="#000000" stroke-opacity="1" stroke-width="1" stroke-linecap="square" stroke-linejoin="bevel" transform="matrix(1,0,0,-1,49063.8,43196.2)"
font-family="MS Shell Dlg 2" font-size="10.3125" font-weight="400" font-style="normal" 
>
</g>

<g fill="#ae5151" fill-opacity="0.500008" stroke="#333333" stroke-opacity="1" stroke-width="1" stroke-linecap="round" stroke-linejoin="round" transform="matrix(1,0,0,-1,49063.8,43196.2)"
font-family="MS Shell Dlg 2" font-size="10.3125" font-weight="400" font-style="normal" 
>
<path vector-effect="non-scaling-stroke" fill-rule="evenodd" d="M20799.8,3295.69 L20731.8,3249.76 L20629.5,3095.69 L17877.1,3095.69 L17887.1,3135.6 L17895.2,3167.62 L18000.2,3295.69 L19698.7,3295.69 L19739.9,3284.77 L19761,3279.21 L20161.7,3295.69 L20799.8,3295.69"/>
</g>

<g fill="none" stroke="#000000" stroke-opacity="1" stroke-width="1" stroke-linecap="square" stroke-linejoin="bevel" transform="matrix(1,0,0,-1,49063.8,43196.2)"
font-family="MS Shell Dlg 2" font-size="10.3125" font-weight="400" font-style="normal" 
>
</g>

<g fill="none" stroke="#000000" stroke-opacity="1" stroke-width="1" stroke-linecap="square" stroke-linejoin="bevel" transform="matrix(1,0,0,-1,49063.8,43196.2)"
font-family="MS Shell Dlg 2" font-size="10.3125" font-weight="400" font-style="normal" 
>
</g>

<g fill="#ae5151" fill-opacity="0.500008" stroke="#333333" stroke-opacity="1" stroke-width="1" stroke-linecap="round" stroke-linejoin="round" transform="matrix(1,0,0,-1,49063.8,43196.2)"
font-family="MS Shell Dlg 2" font-size="10.3125" font-weight="400" font-style="normal" 
>
<path vector-effect="non-scaling-stroke" fill-rule="evenodd" d="M12604.4,3095.69 L12671.3,3295.69 L13725.8,3295.69 L13658.9,3095.69 L12604.4,3095.69 L12604.4,3095.69"/>
</g>

<g fill="none" stroke="#000000" stroke-opacity="1" stroke-width="1" stroke-linecap="square" stroke-linejoin="bevel" transform="matrix(1,0,0,-1,49063.8,43196.2)"
font-family="MS Shell Dlg 2" font-size="10.3125" font-weight="400" font-style="normal" 
>
</g>

<g fill="none" stroke="#000000" stroke-opacity="1" stroke-width="1" stroke-linecap="square" stroke-linejoin="bevel" transform="matrix(1,0,0,-1,49063.8,43196.2)"
font-family="MS Shell Dlg 2" font-size="10.3125" font-weight="400" font-style="normal" 
>
</g>

<g fill="#ae5151" fill-opacity="0.500008" stroke="#333333" stroke-opacity="1" stroke-width="1" stroke-linecap="round" stroke-linejoin="round" transform="matrix(1,0,0,-1,49063.8,43196.2)"
font-family="MS Shell Dlg 2" font-size="10.3125" font-weight="400" font-style="normal" 
>
<path vector-effect="non-scaling-stroke" fill-rule="evenodd" d="M13533,5870.44 L13642.5,6197.54 L13860.5,6563.26 L14326.1,7061.1 L14384.5,7123.55 L14450.8,7083.99 L15244.6,6610.27 L15260.6,6596.32 L14590.8,5880.16 L14515.1,5654 L14189.8,4682.17 L14172.2,4688.79 L14169.8,4689.68 L13335.7,5187.48 L13309.6,5203.03 L13345.1,5309 L13533,5870.44"/>
</g>

<g fill="none" stroke="#000000" stroke-opacity="1" stroke-width="1" stroke-linecap="square" stroke-linejoin="bevel" transform="matrix(1,0,0,-1,49063.8,43196.2)"
font-family="MS Shell Dlg 2" font-size="10.3125" font-weight="400" font-style="normal" 
>
</g>

<g fill="none" stroke="#000000" stroke-opacity="1" stroke-width="1" stroke-linecap="square" stroke-linejoin="bevel" transform="matrix(1,0,0,-1,49063.8,43196.2)"
font-family="MS Shell Dlg 2" font-size="10.3125" font-weight="400" font-style="normal" 
>
</g>

<g fill="#333333" fill-opacity="0.500008" stroke="#333333" stroke-opacity="1" stroke-width="1" stroke-linecap="round" stroke-linejoin="round" transform="matrix(1,0,0,-1,49063.8,43196.2)"
font-family="MS Shell Dlg 2" font-size="10.3125" font-weight="400" font-style="normal" 
>
<path vector-effect="non-scaling-stroke" fill-rule="evenodd" d="M-49063.3,-76804.3 L-49063.3,43195.7 L70936.7,43195.7 L70936.7,-76804.3 L-49063.3,-76804.3 M-28813.3,-67753.6 L-28558.3,-67804.3 L60936.7,-67804.3 L61319.4,-67728.2 L61643.8,-67511.4 L61860.6,-67187 L61936.7,-66804.3 L61936.7,33195.7 L61860.6,33578.4 L61643.8,33902.8 L61319.4,34119.6 L60936.7,34195.7 L-28558.3,34195.7 L-28813.3,34145 L-29068.3,34195.7 L-39063.3,34195.7 L-39446,34119.6 L-39770.4,33902.8 L-39987.2,33578.4 L-40063.3,33195.7 L-40063.3,-66804.3 L-39987.2,-67187 L-39770.4,-67511.4 L-39446,-67728.2 L-39063.3,-67804.3 L-29068.3,-67804.3 L-28813.3,-67753.6"/>
</g>

<g fill="none" stroke="#000000" stroke-opacity="1" stroke-width="1" stroke-linecap="square" stroke-linejoin="bevel" transform="matrix(1,0,0,-1,49063.8,43196.2)"
font-family="MS Shell Dlg 2" font-size="10.3125" font-weight="400" font-style="normal" 
>
</g>

<g fill="none" stroke="#000000" stroke-opacity="1" stroke-width="1" stroke-linecap="square" stroke-linejoin="bevel" transform="matrix(1,0,0,-1,49063.8,43196.2)"
font-family="MS Shell Dlg 2" font-size="10.3125" font-weight="400" font-style="normal" 
>
</g>

<g fill="#ae5151" fill-opacity="0.500008" stroke="#333333" stroke-opacity="1" stroke-width="1" stroke-linecap="round" stroke-linejoin="round" transform="matrix(1,0,0,-1,49063.8,43196.2)"
font-family="MS Shell Dlg 2" font-size="10.3125" font-weight="400" font-style="normal" 
>
<path vector-effect="non-scaling-stroke" fill-rule="evenodd" d="M-49063.3,-76804.3 L-49063.3,43195.7 L70936.7,43195.7 L70936.7,-76804.3 L-49063.3,-76804.3 M-28813.3,-67753.6 L-28558.3,-67804.3 L60936.7,-67804.3 L61319.4,-67728.2 L61643.8,-67511.4 L61860.6,-67187 L61936.7,-66804.3 L61936.7,33195.7 L61860.6,33578.4 L61643.8,33902.8 L61319.4,34119.6 L60936.7,34195.7 L-28558.3,34195.7 L-28813.3,34145 L-29068.3,34195.7 L-39063.3,34195.7 L-39446,34119.6 L-39770.4,33902.8 L-39987.2,33578.4 L-40063.3,33195.7 L-40063.3,-66804.3 L-39987.2,-67187 L-39770.4,-67511.4 L-39446,-67728.2 L-39063.3,-67804.3 L-29068.3,-67804.3 L-28813.3,-67753.6"/>
</g>

<g fill="none" stroke="#000000" stroke-opacity="1" stroke-width="1" stroke-linecap="square" stroke-linejoin="bevel" transform="matrix(1,0,0,-1,49063.8,43196.2)"
font-family="MS Shell Dlg 2" font-size="10.3125" font-weight="400" font-style="normal" 
>
</g>

<g fill="none" stroke="#000000" stroke-opacity="1" stroke-width="1" stroke-linecap="square" stroke-linejoin="bevel" transform="matrix(1,0,0,-1,49063.8,43196.2)"
font-family="MS Shell Dlg 2" font-size="10.3125" font-weight="400" font-style="normal" 
>
</g>

<g fill="#ffff00" fill-opacity="0.500008" stroke="#333333" stroke-opacity="1" stroke-width="1" stroke-linecap="round" stroke-linejoin="round" transform="matrix(1,0,0,-1,49063.8,43196.2)"
font-family="MS Shell Dlg 2" font-size="10.3125" font-weight="400" font-style="normal" 
>
<path vector-effect="non-scaling-stroke" fill-rule="evenodd" d="M-49063.3,-76804.3 L-49063.3,43195.7 L70936.7,43195.7 L70936.7,-76804.3 L-49063.3,-76804.3 M60936.7,34195.7 L-39063.3,34195.7 L-39446,34119.6 L-39770.4,33902.8 L-39987.2,33578.4 L-40063.3,33195.7 L-40063.3,-66804.3 L-39987.2,-67187 L-39770.4,-67511.4 L-39446,-67728.2 L-39063.3,-67804.3 L60936.7,-67804.3 L61319.4,-67728.2 L61643.8,-67511.4 L61860.6,-67187 L61936.7,-66804.3 L61936.7,33195.7 L61860.6,33578.4 L61643.8,33902.8 L61319.4,34119.6 L60936.7,34195.7"/>
</g>

<g fill="none" stroke="#000000" stroke-opacity="1" stroke-width="1" stroke-linecap="square" stroke-linejoin="bevel" transform="matrix(1,0,0,-1,49063.8,43196.2)"
font-family="MS Shell Dlg 2" font-size="10.3125" font-weight="400" font-style="normal" 
>
</g>

<g fill="none" stroke="#000000" stroke-opacity="1" stroke-width="1" stroke-linecap="square" stroke-linejoin="bevel" transform="matrix(1,0,0,-1,49063.8,43196.2)"
font-family="MS Shell Dlg 2" font-size="10.3125" font-weight="400" font-style="normal" 
>
</g>

<g fill="#ae5151" fill-opacity="0.500008" stroke="#333333" stroke-opacity="1" stroke-width="1" stroke-linecap="round" stroke-linejoin="round" transform="matrix(1,0,0,-1,49063.8,43196.2)"
font-family="MS Shell Dlg 2" font-size="10.3125" font-weight="400" font-style="normal" 
>
<path vector-effect="non-scaling-stroke" fill-rule="evenodd" d="M-49063.3,-76804.3 L-49063.3,43195.7 L70936.7,43195.7 L70936.7,-76804.3 L-49063.3,-76804.3 M-29313.3,-67753.6 L-29058.3,-67804.3 L60936.7,-67804.3 L61319.4,-67728.2 L61643.8,-67511.4 L61860.6,-67187 L61936.7,-66804.3 L61936.7,33195.7 L61860.6,33578.4 L61643.8,33902.8 L61319.4,34119.6 L60936.7,34195.7 L-29058.3,34195.7 L-29313.3,34145 L-29568.3,34195.7 L-39063.3,34195.7 L-39446,34119.6 L-39770.4,33902.8 L-39987.2,33578.4 L-40063.3,33195.7 L-40063.3,-66804.3 L-39987.2,-67187 L-39770.4,-67511.4 L-39446,-67728.2 L-39063.3,-67804.3 L-29568.3,-67804.3 L-29313.3,-67753.6"/>
</g>

<g fill="none" stroke="#000000" stroke-opacity="1" stroke-width="1" stroke-linecap="square" stroke-linejoin="bevel" transform="matrix(1,0,0,-1,49063.8,43196.2)"
font-family="MS Shell Dlg 2" font-size="10.3125" font-weight="400" font-style="normal" 
>
</g>

<g fill="none" stroke="#000000" stroke-opacity="1" stroke-width="1" stroke-linecap="square" stroke-linejoin="bevel" transform="matrix(1,0,0,-1,49063.8,43196.2)"
font-family="MS Shell Dlg 2" font-size="10.3125" font-weight="400" font-style="normal" 
>
</g>

<g fill="#333333" fill-opacity="0.500008" stroke="#333333" stroke-opacity="1" stroke-width="1" stroke-linecap="round" stroke-linejoin="round" transform="matrix(1,0,0,-1,49063.8,43196.2)"
font-family="MS Shell Dlg 2" font-size="10.3125" font-weight="400" font-style="normal" 
>
<path vector-effect="non-scaling-stroke" fill-rule="evenodd" d="M-49063.3,-76804.3 L-49063.3,43195.7 L70936.7,43195.7 L70936.7,-76804.3 L-49063.3,-76804.3 M-29313.3,-67753.6 L-29058.3,-67804.3 L60936.7,-67804.3 L61319.4,-67728.2 L61643.8,-67511.4 L61860.6,-67187 L61936.7,-66804.3 L61936.7,33195.7 L61860.6,33578.4 L61643.8,33902.8 L61319.4,34119.6 L60936.7,34195.7 L-29058.3,34195.7 L-29313.3,34145 L-29568.3,34195.7 L-39063.3,34195.7 L-39446,34119.6 L-39770.4,33902.8 L-39987.2,33578.4 L-40063.3,33195.7 L-40063.3,-66804.3 L-39987.2,-67187 L-39770.4,-67511.4 L-39446,-67728.2 L-39063.3,-67804.3 L-29568.3,-67804.3 L-29313.3,-67753.6"/>
</g>

<g fill="none" stroke="#000000" stroke-opacity="1" stroke-width="1" stroke-linecap="square" stroke-linejoin="bevel" transform="matrix(1,0,0,-1,49063.8,43196.2)"
font-family="MS Shell Dlg 2" font-size="10.3125" font-weight="400" font-style="normal" 
>
</g>

<g fill="none" stroke="#000000" stroke-opacity="1" stroke-width="1" stroke-linecap="square" stroke-linejoin="bevel" transform="matrix(1,0,0,-1,0,120001)"
font-family="MS Shell Dlg 2" font-size="10.3125" font-weight="400" font-style="normal" 
>
</g>
</g>
</svg>
