<?xml version="1.0" encoding="UTF-8" standalone="no"?>
<svg width="28222.5mm" height="28222.5mm"
 xmlns="http://www.w3.org/2000/svg" xmlns:xlink="http://www.w3.org/1999/xlink"  version="1.2" baseProfile="tiny">
<title>SVG Generator Example Drawing</title>
<desc>An SVG drawing created by the SVG Generator</desc>
<defs>
</defs>
<g fill="none" stroke="black" stroke-width="1" fill-rule="evenodd" stroke-linecap="square" stroke-linejoin="bevel" >

<g fill="none" stroke="#000000" stroke-opacity="1" stroke-width="1" stroke-linecap="square" stroke-linejoin="bevel" transform="matrix(1,0,0,-1,0,100001)"
font-family="MS Shell Dlg 2" font-size="10.3125" font-weight="400" font-style="normal" 
>
</g>

<g fill="none" stroke="#000000" stroke-opacity="1" stroke-width="1" stroke-linecap="square" stroke-linejoin="bevel" transform="matrix(1,0,0,-1,0,100001)"
font-family="MS Shell Dlg 2" font-size="10.3125" font-weight="400" font-style="normal" 
>
</g>

<g fill="none" stroke="#000000" stroke-opacity="1" stroke-width="1" stroke-linecap="square" stroke-linejoin="bevel" transform="matrix(1,0,0,-1,39063.8,33196.2)"
font-family="MS Shell Dlg 2" font-size="10.3125" font-weight="400" font-style="normal" 
>
</g>

<g fill="#333333" fill-opacity="0.500008" stroke="#333333" stroke-opacity="1" stroke-width="1" stroke-linecap="round" stroke-linejoin="round" transform="matrix(1,0,0,-1,39063.8,33196.2)"
font-family="MS Shell Dlg 2" font-size="10.3125" font-weight="400" font-style="normal" 
>
<path vector-effect="non-scaling-stroke" fill-rule="evenodd" d="M-39063.3,33195.7 L-29568.3,33195.7 L-29068.3,33195.7 L-29063.3,33195.7 L-29058.3,33195.7 L-28558.3,33195.7 L60936.7,33195.7 L60936.7,-66804.3 L-28558.3,-66804.3 L-29058.3,-66804.3 L-29063.3,-66804.3 L-29068.3,-66804.3 L-29568.3,-66804.3 L-39063.3,-66804.3 L-39063.3,33195.7 M42217.2,-24347.5 L44451.9,-25165 L44457.7,-25161.1 L44599.2,-25064.4 L44671.2,-24961.7 L44804.7,-24771.5 L45110.5,-24107.8 L45202,-23709.9 L45176.9,-23575.7 L45126.9,-23308.6 L45011,-23027 L42973.1,-22281.4 L42954.1,-22276.5 L42568.5,-22216.5 L42529.5,-22218.1 L42150.4,-22310.3 L42115,-22326.7 L42094,-22342 L42066.8,-22372 L42053.8,-22410.4 L42054.3,-22416.5 L43039.3,-22479.2 L43912.3,-22985.3 L44202.2,-23689.3 L43896.4,-24352.9 L43539.1,-24374.3 L43237.7,-24128.4 L42621.4,-24347.9 L42146.5,-24108.1 L41976.9,-24180.1 L41988.6,-24202.7 L42015.7,-24227 L42199.5,-24339 L42217.2,-24347.5 M41036.7,-25365.2 L41036.7,-24333.3 L40972.9,-24317.1 L40836.7,-24282.5 L40836.7,-25314.3 L41036.7,-25365.2 M41036.7,-22170.9 L41036.7,-19952.7 L40836.7,-19581.9 L40836.7,-22059.1 L41034,-22169.4 L41036.7,-22170.9 M29327.8,3295.69 L28125.3,3295.69 L28258.9,3095.69 L29461.4,3095.69 L29327.8,3295.69 M22394.7,3295.69 L20936.7,3295.69 L20161.7,3295.69 L19761,3279.21 L19698.7,3295.69 L18000.2,3295.69 L17895.2,3167.62 L17877.1,3095.69 L20431.7,3095.69 L20931.7,3095.69 L20936.7,3095.69 L20941.7,3095.69 L21441.7,3095.69 L22904.7,3095.69 L22394.7,3295.69 M13725.8,3295.69 L12671.3,3295.69 L12604.4,3095.69 L13658.9,3095.69 L13682.8,3167.07 L13725.8,3295.69 M30069.4,-29485.6 L30069.1,-29487.3 L30069.1,-30485.7 L30153.1,-30487.2 L31078,-31016.6 L31293.2,-31084.9 L31480.5,-31144.3 L32190.4,-31211.5 L32269.1,-31204.4 L32269.1,-30214.5 L31969.6,-30186.1 L31574.8,-30148.7 L30427.2,-29491.9 L30069.4,-29485.6 M30533.1,-7667.72 L30497.3,-7664.22 L29470.6,-7762.95 L29269.6,-8500.38 L29052.7,-10009 L29076.3,-10011 L30076.5,-9914.84 L30250.6,-8703.83 L30533.1,-7667.72 M21441.7,-2195.4 L21441.7,-804.309 L21441.3,-803.544 L21440.2,-802.895 L21438.6,-802.461 L21436.7,-802.309 L20941.7,-802.309 L20936.7,-802.309 L20931.7,-802.309 L20528.8,-802.309 L20506.3,-1865.73 L20431.7,-2047.05 L20431.7,-2804.31 L20432.1,-2805.07 L20433.1,-2805.72 L20434.8,-2806.16 L20436.7,-2806.31 L20931.7,-2806.31 L20936.7,-2806.31 L20941.7,-2806.31 L21200.6,-2806.31 L21431,-2246.35 L21441.7,-2195.4 M-28558.3,-6904.31 L-28558.3,-6804.31 L-28558.7,-6796.66 L-28559.8,-6790.17 L-28561.4,-6785.83 L-28563.3,-6784.31 L-29058.3,-6784.31 L-29063.3,-6784.31 L-29068.3,-6784.31 L-29159.3,-6784.31 L-29162.5,-6800.31 L-29163.3,-6804.31 L-29155.7,-6842.58 L-29134,-6875.02 L-29101.6,-6896.7 L-29063.3,-6904.31 L-29058.3,-6904.31 L-28558.3,-6904.31 M-28558.3,-26704.3 L-29058.3,-26704.3 L-29063.3,-26704.3 L-29101.6,-26711.9 L-29134,-26733.6 L-29155.7,-26766 L-29163.3,-26804.3 L-29162.5,-26808.3 L-29159.3,-26824.3 L-29068.3,-26824.3 L-29063.3,-26824.3 L-29058.3,-26824.3 L-28563.3,-26824.3 L-28561.6,-26823 L-28561.4,-26822.8 L-28559.8,-26818.5 L-28558.7,-26812 L-28558.3,-26804.3 L-28558.3,-26704.3 M-2146.12,-26904.3 L431.678,-26904.3 L931.678,-26904.3 L936.678,-26904.3 L941.678,-26904.3 L1441.68,-26904.3 L4753.13,-26904.3 L5406.55,-26704.3 L936.678,-26704.3 L-1541.41,-26704.3 L-1946.08,-26811.6 L-2146.12,-26904.3 M11758.5,-26904.3 L13076.7,-26904.3 L13094.9,-26883.2 L13564.1,-26704.3 L11928.2,-26704.3 L11763.4,-26895.1 L11758.5,-26904.3 M15550.2,-26904.3 L17856.8,-26904.3 L18059.1,-26704.3 L15995.7,-26704.3 L15658.1,-26830.3 L15550.2,-26904.3 M20619.2,-26904.3 L20931.7,-26904.3 L20936.7,-26904.3 L20974.9,-26896.7 L21007.4,-26875 L21029.1,-26842.6 L21036.7,-26804.3 L21036.3,-26802.3 L21029.1,-26766 L21007.4,-26733.6 L20974.9,-26711.9 L20936.7,-26704.3 L20866.2,-26704.3 L20619.2,-26904.3 M16300.7,-14539 L16286.4,-14520.6 L15538.2,-13850.6 L14756.8,-14391.1 L14626.6,-14498.5 L13832.7,-15274.7 L13836.7,-15280 L14578.3,-15944.2 L15325.7,-15213.5 L16300.7,-14539 M15260.6,6596.32 L15244.6,6610.27 L14384.5,7123.55 L13860.5,6563.26 L13774.6,6419.15 L13642.5,6197.54 L13345.1,5309 L13309.6,5203.03 L14169.8,4689.68 L14189.8,4682.17 L14590.8,5880.16 L14687.2,5983.21 L15260.6,6596.32 M6842.36,-31164.7 L6841.61,-31175.7 L6982.33,-32160.7 L8071.09,-32125.7 L8278.67,-32095.3 L8294.49,-32093 L8381.18,-32070.1 L9162.24,-31863.7 L9020.22,-30869.6 L9008.74,-30835.3 L8993.35,-30816.5 L8907.17,-30896.8 L8038.98,-31126.2 L6842.36,-31164.7 M1441.68,-31322.8 L1441.68,-30804.3 L1441.3,-30803.5 L1440.21,-30802.9 L1438.59,-30802.5 L1436.68,-30802.3 L941.678,-30802.3 L936.678,-30802.3 L931.678,-30802.3 L436.678,-30802.3 L434.764,-30802.5 L433.142,-30802.9 L432.058,-30803.5 L431.678,-30804.3 L431.678,-31588.1 L1441.68,-31322.8 M-1024.36,-31689 L-2754.57,-32258.7 L-2826.86,-32382.5 L-2914.13,-32640.3 L-2998.72,-32890.1 L-3022.74,-33088.1 L-3047.92,-33295.7 L-2930.76,-33687.2 L-2788.42,-33855.4 L-2666.81,-33999.1 L-2501.32,-34080.5 L-2300.14,-34179.4 L-1880.6,-34287.1 L-336.31,-33778.6 L-318.381,-33770.7 L21.2989,-33578.7 L50.8687,-33553.2 L54.554,-33548.5 L71.9157,-33514.4 L74.942,-33479.5 L-731.551,-33539.4 L-762.204,-33541.7 L-1798.27,-33275.8 L-2051.54,-33210.8 L-1965.6,-32957 L-1879.67,-32703.2 L-1841.5,-32660.5 L-1521.43,-32303.2 L-596.817,-31858.2 L-280.674,-31775.2 L-291.192,-31747.8 L-316.216,-31720.4 L-349.519,-31704 L-579.028,-31640.2 L-617.937,-31637.3 L-1005.23,-31684.7 L-1024.36,-31689 M-8558.32,-15031.3 L-8558.32,-14804.3 L-8558.7,-14802.8 L-8559.79,-14801.5 L-8561.41,-14800.6 L-8563.32,-14800.3 L-9058.32,-14800.3 L-9063.32,-14800.3 L-9068.32,-14800.3 L-9563.32,-14800.3 L-9565.24,-14800.6 L-9566.86,-14801.5 L-9567.94,-14802.8 L-9568.32,-14804.3 L-9568.32,-15012.2 L-9386.69,-15017.9 L-8729.21,-15038.5 L-8558.32,-15031.3 M-9568.32,-16876.8 L-9568.32,-17498.1 L-8938.87,-17254.4 L-9406.75,-16916.5 L-9568.32,-16876.8 M-10605.2,-14979.6 L-10604.8,-14978.1 L-10612,-14939.3 L-10633.6,-14906.3 L-11576.8,-13948.6 L-11603.4,-13947.8 L-11728.9,-13951.8 L-13361.6,-14106.1 L-13393.9,-14112.7 L-13569.8,-14148.5 L-14169.8,-14338.8 L-14241.4,-14361.5 L-14240.3,-14367.7 L-14218.3,-14401.8 L-13466.7,-15164.9 L-13267.5,-15101.7 L-11634.7,-14947.3 L-10777.9,-14974.2 L-10605.2,-14979.6 M-11780.8,-16628.8 L-11779,-16657.9 L-11763.4,-16691.5 L-11736.6,-16717.2 L-11702.3,-16731.3 L-11434.9,-16786.6 L-11395.8,-16786.9 L-11215,-16752.4 L-11177,-16736.5 L-11148.6,-16706.6 L-11134.7,-16667.7 L-11135.4,-16658.7 L-11285.2,-16651.8 L-11780.8,-16628.8 M-29058.3,-18808.3 L-28563.3,-18808.3 L-28561.4,-18808 L-28559.8,-18807.1 L-28558.7,-18805.8 L-28558.3,-18804.3 L-28558.3,-14804.3 L-28558.7,-14802.8 L-28559.8,-14801.5 L-28561.4,-14800.6 L-28563.3,-14800.3 L-29058.3,-14800.3 L-29063.3,-14800.3 L-29068.3,-14800.3 L-29563.3,-14800.3 L-29565.2,-14800.6 L-29566.9,-14801.5 L-29567.9,-14802.8 L-29568.3,-14804.3 L-29568.3,-18804.3 L-29567.9,-18805.8 L-29566.9,-18807.1 L-29565.2,-18808 L-29563.3,-18808.3 L-29068.3,-18808.3 L-29063.3,-18808.3 L-29058.3,-18808.3"/>
</g>

<g fill="none" stroke="#000000" stroke-opacity="1" stroke-width="1" stroke-linecap="square" stroke-linejoin="bevel" transform="matrix(1,0,0,-1,39063.8,33196.2)"
font-family="MS Shell Dlg 2" font-size="10.3125" font-weight="400" font-style="normal" 
>
</g>

<g fill="none" stroke="#000000" stroke-opacity="1" stroke-width="1" stroke-linecap="square" stroke-linejoin="bevel" transform="matrix(1,0,0,-1,39063.8,33196.2)"
font-family="MS Shell Dlg 2" font-size="10.3125" font-weight="400" font-style="normal" 
>
</g>

<g fill="#ae5151" fill-opacity="0.500008" stroke="#333333" stroke-opacity="1" stroke-width="1" stroke-linecap="round" stroke-linejoin="round" transform="matrix(1,0,0,-1,39063.8,33196.2)"
font-family="MS Shell Dlg 2" font-size="10.3125" font-weight="400" font-style="normal" 
>
<path vector-effect="non-scaling-stroke" fill-rule="evenodd" d="M-39063.3,33195.7 L-29568.3,33195.7 L-29068.3,33195.7 L-29063.3,33195.7 L-29058.3,33195.7 L-28558.3,33195.7 L60936.7,33195.7 L60936.7,-66804.3 L-28558.3,-66804.3 L-29058.3,-66804.3 L-29063.3,-66804.3 L-29068.3,-66804.3 L-29568.3,-66804.3 L-39063.3,-66804.3 L-39063.3,33195.7 M42217.2,-24347.5 L44451.9,-25165 L44457.7,-25161.1 L44599.2,-25064.4 L44671.2,-24961.7 L44804.7,-24771.5 L45110.5,-24107.8 L45202,-23709.9 L45176.9,-23575.7 L45126.9,-23308.6 L45011,-23027 L42973.1,-22281.4 L42954.1,-22276.5 L42568.5,-22216.5 L42529.5,-22218.1 L42150.4,-22310.3 L42115,-22326.7 L42094,-22342 L42066.8,-22372 L42053.8,-22410.4 L42054.3,-22416.5 L43039.3,-22479.2 L43912.3,-22985.3 L44202.2,-23689.3 L43896.4,-24352.9 L43539.1,-24374.3 L43237.7,-24128.4 L42621.4,-24347.9 L42146.5,-24108.1 L41976.9,-24180.1 L41988.6,-24202.7 L42015.7,-24227 L42199.5,-24339 L42217.2,-24347.5 M41036.7,-25365.2 L41036.7,-24333.3 L40972.9,-24317.1 L40836.7,-24282.5 L40836.7,-25314.3 L41036.7,-25365.2 M41036.7,-22170.9 L41036.7,-19952.7 L40836.7,-19581.9 L40836.7,-22059.1 L41034,-22169.4 L41036.7,-22170.9 M29327.8,3295.69 L28125.3,3295.69 L28258.9,3095.69 L29461.4,3095.69 L29327.8,3295.69 M22394.7,3295.69 L20936.7,3295.69 L20161.7,3295.69 L19761,3279.21 L19698.7,3295.69 L18000.2,3295.69 L17895.2,3167.62 L17877.1,3095.69 L20431.7,3095.69 L20931.7,3095.69 L20936.7,3095.69 L20941.7,3095.69 L21441.7,3095.69 L22904.7,3095.69 L22394.7,3295.69 M13725.8,3295.69 L12671.3,3295.69 L12604.4,3095.69 L13658.9,3095.69 L13682.8,3167.07 L13725.8,3295.69 M30069.4,-29485.6 L30069.1,-29487.3 L30069.1,-30485.7 L30153.1,-30487.2 L31078,-31016.6 L31293.2,-31084.9 L31480.5,-31144.3 L32190.4,-31211.5 L32269.1,-31204.4 L32269.1,-30214.5 L31969.6,-30186.1 L31574.8,-30148.7 L30427.2,-29491.9 L30069.4,-29485.6 M30533.1,-7667.72 L30497.3,-7664.22 L29470.6,-7762.95 L29269.6,-8500.38 L29052.7,-10009 L29076.3,-10011 L30076.5,-9914.84 L30250.6,-8703.83 L30533.1,-7667.72 M21441.7,-2195.4 L21441.7,-804.309 L21441.3,-803.544 L21440.2,-802.895 L21438.6,-802.461 L21436.7,-802.309 L20941.7,-802.309 L20936.7,-802.309 L20931.7,-802.309 L20528.8,-802.309 L20506.3,-1865.73 L20431.7,-2047.05 L20431.7,-2804.31 L20432.1,-2805.07 L20433.1,-2805.72 L20434.8,-2806.16 L20436.7,-2806.31 L20931.7,-2806.31 L20936.7,-2806.31 L20941.7,-2806.31 L21200.6,-2806.31 L21431,-2246.35 L21441.7,-2195.4 M-28558.3,-6904.31 L-28558.3,-6804.31 L-28558.7,-6796.66 L-28559.8,-6790.17 L-28561.4,-6785.83 L-28563.3,-6784.31 L-29058.3,-6784.31 L-29063.3,-6784.31 L-29068.3,-6784.31 L-29159.3,-6784.31 L-29162.5,-6800.31 L-29163.3,-6804.31 L-29155.7,-6842.58 L-29134,-6875.02 L-29101.6,-6896.7 L-29063.3,-6904.31 L-29058.3,-6904.31 L-28558.3,-6904.31 M-28558.3,-26704.3 L-29058.3,-26704.3 L-29063.3,-26704.3 L-29101.6,-26711.9 L-29134,-26733.6 L-29155.7,-26766 L-29163.3,-26804.3 L-29162.5,-26808.3 L-29159.3,-26824.3 L-29068.3,-26824.3 L-29063.3,-26824.3 L-29058.3,-26824.3 L-28563.3,-26824.3 L-28561.6,-26823 L-28561.4,-26822.8 L-28559.8,-26818.5 L-28558.7,-26812 L-28558.3,-26804.3 L-28558.3,-26704.3 M-2146.12,-26904.3 L431.678,-26904.3 L931.678,-26904.3 L936.678,-26904.3 L941.678,-26904.3 L1441.68,-26904.3 L4753.13,-26904.3 L5406.55,-26704.3 L936.678,-26704.3 L-1541.41,-26704.3 L-1946.08,-26811.6 L-2146.12,-26904.3 M11758.5,-26904.3 L13076.7,-26904.3 L13094.9,-26883.2 L13564.1,-26704.3 L11928.2,-26704.3 L11763.4,-26895.1 L11758.5,-26904.3 M15550.2,-26904.3 L17856.8,-26904.3 L18059.1,-26704.3 L15995.7,-26704.3 L15658.1,-26830.3 L15550.2,-26904.3 M20619.2,-26904.3 L20931.7,-26904.3 L20936.7,-26904.3 L20974.9,-26896.7 L21007.4,-26875 L21029.1,-26842.6 L21036.7,-26804.3 L21036.3,-26802.3 L21029.1,-26766 L21007.4,-26733.6 L20974.9,-26711.9 L20936.7,-26704.3 L20866.2,-26704.3 L20619.2,-26904.3 M16300.7,-14539 L16286.4,-14520.6 L15538.2,-13850.6 L14756.8,-14391.1 L14626.6,-14498.5 L13832.7,-15274.7 L13836.7,-15280 L14578.3,-15944.2 L15325.7,-15213.5 L16300.7,-14539 M15260.6,6596.32 L15244.6,6610.27 L14384.5,7123.55 L13860.5,6563.26 L13774.6,6419.15 L13642.5,6197.54 L13345.1,5309 L13309.6,5203.03 L14169.8,4689.68 L14189.8,4682.17 L14590.8,5880.16 L14687.2,5983.21 L15260.6,6596.32 M6842.36,-31164.7 L6841.61,-31175.7 L6982.33,-32160.7 L8071.09,-32125.7 L8278.67,-32095.3 L8294.49,-32093 L8381.18,-32070.1 L9162.24,-31863.7 L9020.22,-30869.6 L9008.74,-30835.3 L8993.35,-30816.5 L8907.17,-30896.8 L8038.98,-31126.2 L6842.36,-31164.7 M1441.68,-31322.8 L1441.68,-30804.3 L1441.3,-30803.5 L1440.21,-30802.9 L1438.59,-30802.5 L1436.68,-30802.3 L941.678,-30802.3 L936.678,-30802.3 L931.678,-30802.3 L436.678,-30802.3 L434.764,-30802.5 L433.142,-30802.9 L432.058,-30803.5 L431.678,-30804.3 L431.678,-31588.1 L1441.68,-31322.8 M-1024.36,-31689 L-2754.57,-32258.7 L-2826.86,-32382.5 L-2914.13,-32640.3 L-2998.72,-32890.1 L-3022.74,-33088.1 L-3047.92,-33295.7 L-2930.76,-33687.2 L-2788.42,-33855.4 L-2666.81,-33999.1 L-2501.32,-34080.5 L-2300.14,-34179.4 L-1880.6,-34287.1 L-336.31,-33778.6 L-318.381,-33770.7 L21.2989,-33578.7 L50.8687,-33553.2 L54.554,-33548.5 L71.9157,-33514.4 L74.942,-33479.5 L-731.551,-33539.4 L-762.204,-33541.7 L-1798.27,-33275.8 L-2051.54,-33210.8 L-1965.6,-32957 L-1879.67,-32703.2 L-1841.5,-32660.5 L-1521.43,-32303.2 L-596.817,-31858.2 L-280.674,-31775.2 L-291.192,-31747.8 L-316.216,-31720.4 L-349.519,-31704 L-579.028,-31640.2 L-617.937,-31637.3 L-1005.23,-31684.7 L-1024.36,-31689 M-8558.32,-15031.3 L-8558.32,-14804.3 L-8558.7,-14802.8 L-8559.79,-14801.5 L-8561.41,-14800.6 L-8563.32,-14800.3 L-9058.32,-14800.3 L-9063.32,-14800.3 L-9068.32,-14800.3 L-9563.32,-14800.3 L-9565.24,-14800.6 L-9566.86,-14801.5 L-9567.94,-14802.8 L-9568.32,-14804.3 L-9568.32,-15012.2 L-9386.69,-15017.9 L-8729.21,-15038.5 L-8558.32,-15031.3 M-9568.32,-16876.8 L-9568.32,-17498.1 L-8938.87,-17254.4 L-9406.75,-16916.5 L-9568.32,-16876.8 M-10605.2,-14979.6 L-10604.8,-14978.1 L-10612,-14939.3 L-10633.6,-14906.3 L-11576.8,-13948.6 L-11603.4,-13947.8 L-11728.9,-13951.8 L-13361.6,-14106.1 L-13393.9,-14112.7 L-13569.8,-14148.5 L-14169.8,-14338.8 L-14241.4,-14361.5 L-14240.3,-14367.7 L-14218.3,-14401.8 L-13466.7,-15164.9 L-13267.5,-15101.7 L-11634.7,-14947.3 L-10777.9,-14974.2 L-10605.2,-14979.6 M-11780.8,-16628.8 L-11779,-16657.9 L-11763.4,-16691.5 L-11736.6,-16717.2 L-11702.3,-16731.3 L-11434.9,-16786.6 L-11395.8,-16786.9 L-11215,-16752.4 L-11177,-16736.5 L-11148.6,-16706.6 L-11134.7,-16667.7 L-11135.4,-16658.7 L-11285.2,-16651.8 L-11780.8,-16628.8 M-29058.3,-18808.3 L-28563.3,-18808.3 L-28561.4,-18808 L-28559.8,-18807.1 L-28558.7,-18805.8 L-28558.3,-18804.3 L-28558.3,-14804.3 L-28558.7,-14802.8 L-28559.8,-14801.5 L-28561.4,-14800.6 L-28563.3,-14800.3 L-29058.3,-14800.3 L-29063.3,-14800.3 L-29068.3,-14800.3 L-29563.3,-14800.3 L-29565.2,-14800.6 L-29566.9,-14801.5 L-29567.9,-14802.8 L-29568.3,-14804.3 L-29568.3,-18804.3 L-29567.9,-18805.8 L-29566.9,-18807.1 L-29565.2,-18808 L-29563.3,-18808.3 L-29068.3,-18808.3 L-29063.3,-18808.3 L-29058.3,-18808.3"/>
</g>

<g fill="none" stroke="#000000" stroke-opacity="1" stroke-width="1" stroke-linecap="square" stroke-linejoin="bevel" transform="matrix(1,0,0,-1,39063.8,33196.2)"
font-family="MS Shell Dlg 2" font-size="10.3125" font-weight="400" font-style="normal" 
>
</g>

<g fill="none" stroke="#000000" stroke-opacity="1" stroke-width="1" stroke-linecap="square" stroke-linejoin="bevel" transform="matrix(1,0,0,-1,39063.8,33196.2)"
font-family="MS Shell Dlg 2" font-size="10.3125" font-weight="400" font-style="normal" 
>
</g>

<g fill="#ffff00" fill-opacity="0.500008" stroke="#333333" stroke-opacity="1" stroke-width="1" stroke-linecap="round" stroke-linejoin="round" transform="matrix(1,0,0,-1,39063.8,33196.2)"
font-family="MS Shell Dlg 2" font-size="10.3125" font-weight="400" font-style="normal" 
>
<path vector-effect="non-scaling-stroke" fill-rule="evenodd" d="M-39063.3,33195.7 L-29568.3,33195.7 L-29068.3,33195.7 L-29063.3,33195.7 L-29058.3,33195.7 L-28558.3,33195.7 L60936.7,33195.7 L60936.7,-66804.3 L-28558.3,-66804.3 L-29058.3,-66804.3 L-29063.3,-66804.3 L-29068.3,-66804.3 L-29568.3,-66804.3 L-39063.3,-66804.3 L-39063.3,33195.7 M42217.2,-24347.5 L44451.9,-25165 L44457.7,-25161.1 L44599.2,-25064.4 L44671.2,-24961.7 L44804.7,-24771.5 L45110.5,-24107.8 L45202,-23709.9 L45176.9,-23575.7 L45126.9,-23308.6 L45011,-23027 L42973.1,-22281.4 L42954.1,-22276.5 L42568.5,-22216.5 L42529.5,-22218.1 L42150.4,-22310.3 L42115,-22326.7 L42094,-22342 L42066.8,-22372 L42053.8,-22410.4 L42054.3,-22416.5 L43039.3,-22479.2 L43912.3,-22985.3 L44202.2,-23689.3 L43896.4,-24352.9 L43539.1,-24374.3 L43237.7,-24128.4 L42621.4,-24347.9 L42146.5,-24108.1 L41976.9,-24180.1 L41988.6,-24202.7 L42015.7,-24227 L42199.5,-24339 L42217.2,-24347.5 M41036.7,-25365.2 L41036.7,-24333.3 L40972.9,-24317.1 L40836.7,-24282.5 L40836.7,-25314.3 L41036.7,-25365.2 M41036.7,-22170.9 L41036.7,-19952.7 L40836.7,-19581.9 L40836.7,-22059.1 L41034,-22169.4 L41036.7,-22170.9 M29327.8,3295.69 L28125.3,3295.69 L28258.9,3095.69 L29461.4,3095.69 L29327.8,3295.69 M22394.7,3295.69 L20936.7,3295.69 L20161.7,3295.69 L19761,3279.21 L19698.7,3295.69 L18000.2,3295.69 L17895.2,3167.62 L17877.1,3095.69 L20431.7,3095.69 L20931.7,3095.69 L20936.7,3095.69 L20941.7,3095.69 L21441.7,3095.69 L22904.7,3095.69 L22394.7,3295.69 M13725.8,3295.69 L12671.3,3295.69 L12604.4,3095.69 L13658.9,3095.69 L13682.8,3167.07 L13725.8,3295.69 M30069.4,-29485.6 L30069.1,-29487.3 L30069.1,-30485.7 L30153.1,-30487.2 L31078,-31016.6 L31293.2,-31084.9 L31480.5,-31144.3 L32190.4,-31211.5 L32269.1,-31204.4 L32269.1,-30214.5 L31969.6,-30186.1 L31574.8,-30148.7 L30427.2,-29491.9 L30069.4,-29485.6 M30533.1,-7667.72 L30497.3,-7664.22 L29470.6,-7762.95 L29269.6,-8500.38 L29052.7,-10009 L29076.3,-10011 L30076.5,-9914.84 L30250.6,-8703.83 L30533.1,-7667.72 M21441.7,-2195.4 L21441.7,-804.309 L21441.3,-803.544 L21440.2,-802.895 L21438.6,-802.461 L21436.7,-802.309 L20941.7,-802.309 L20936.7,-802.309 L20931.7,-802.309 L20528.8,-802.309 L20506.3,-1865.73 L20431.7,-2047.05 L20431.7,-2804.31 L20432.1,-2805.07 L20433.1,-2805.72 L20434.8,-2806.16 L20436.7,-2806.31 L20931.7,-2806.31 L20936.7,-2806.31 L20941.7,-2806.31 L21200.6,-2806.31 L21431,-2246.35 L21441.7,-2195.4 M-28558.3,-6904.31 L-28558.3,-6804.31 L-28558.7,-6796.66 L-28559.8,-6790.17 L-28561.4,-6785.83 L-28563.3,-6784.31 L-29058.3,-6784.31 L-29063.3,-6784.31 L-29068.3,-6784.31 L-29159.3,-6784.31 L-29162.5,-6800.31 L-29163.3,-6804.31 L-29155.7,-6842.58 L-29134,-6875.02 L-29101.6,-6896.7 L-29063.3,-6904.31 L-29058.3,-6904.31 L-28558.3,-6904.31 M-28558.3,-26704.3 L-29058.3,-26704.3 L-29063.3,-26704.3 L-29101.6,-26711.9 L-29134,-26733.6 L-29155.7,-26766 L-29163.3,-26804.3 L-29162.5,-26808.3 L-29159.3,-26824.3 L-29068.3,-26824.3 L-29063.3,-26824.3 L-29058.3,-26824.3 L-28563.3,-26824.3 L-28561.6,-26823 L-28561.4,-26822.8 L-28559.8,-26818.5 L-28558.7,-26812 L-28558.3,-26804.3 L-28558.3,-26704.3 M-2146.12,-26904.3 L431.678,-26904.3 L931.678,-26904.3 L936.678,-26904.3 L941.678,-26904.3 L1441.68,-26904.3 L4753.13,-26904.3 L5406.55,-26704.3 L936.678,-26704.3 L-1541.41,-26704.3 L-1946.08,-26811.6 L-2146.12,-26904.3 M11758.5,-26904.3 L13076.7,-26904.3 L13094.9,-26883.2 L13564.1,-26704.3 L11928.2,-26704.3 L11763.4,-26895.1 L11758.5,-26904.3 M15550.2,-26904.3 L17856.8,-26904.3 L18059.1,-26704.3 L15995.7,-26704.3 L15658.1,-26830.3 L15550.2,-26904.3 M20619.2,-26904.3 L20931.7,-26904.3 L20936.7,-26904.3 L20974.9,-26896.7 L21007.4,-26875 L21029.1,-26842.6 L21036.7,-26804.3 L21036.3,-26802.3 L21029.1,-26766 L21007.4,-26733.6 L20974.9,-26711.9 L20936.7,-26704.3 L20866.2,-26704.3 L20619.2,-26904.3 M16300.7,-14539 L16286.4,-14520.6 L15538.2,-13850.6 L14756.8,-14391.1 L14626.6,-14498.5 L13832.7,-15274.7 L13836.7,-15280 L14578.3,-15944.2 L15325.7,-15213.5 L16300.7,-14539 M15260.6,6596.32 L15244.6,6610.27 L14384.5,7123.55 L13860.5,6563.26 L13774.6,6419.15 L13642.5,6197.54 L13345.1,5309 L13309.6,5203.03 L14169.8,4689.68 L14189.8,4682.17 L14590.8,5880.16 L14687.2,5983.21 L15260.6,6596.32 M6842.36,-31164.7 L6841.61,-31175.7 L6982.33,-32160.7 L8071.09,-32125.7 L8278.67,-32095.3 L8294.49,-32093 L8381.18,-32070.1 L9162.24,-31863.7 L9020.22,-30869.6 L9008.74,-30835.3 L8993.35,-30816.5 L8907.17,-30896.8 L8038.98,-31126.2 L6842.36,-31164.7 M1441.68,-31322.8 L1441.68,-30804.3 L1441.3,-30803.5 L1440.21,-30802.9 L1438.59,-30802.5 L1436.68,-30802.3 L941.678,-30802.3 L936.678,-30802.3 L931.678,-30802.3 L436.678,-30802.3 L434.764,-30802.5 L433.142,-30802.9 L432.058,-30803.5 L431.678,-30804.3 L431.678,-31588.1 L1441.68,-31322.8 M-1024.36,-31689 L-2754.57,-32258.7 L-2826.86,-32382.5 L-2914.13,-32640.3 L-2998.72,-32890.1 L-3022.74,-33088.1 L-3047.92,-33295.7 L-2930.76,-33687.2 L-2788.42,-33855.4 L-2666.81,-33999.1 L-2501.32,-34080.5 L-2300.14,-34179.4 L-1880.6,-34287.1 L-336.31,-33778.6 L-318.381,-33770.7 L21.2989,-33578.7 L50.8687,-33553.2 L54.554,-33548.5 L71.9157,-33514.4 L74.942,-33479.5 L-731.551,-33539.4 L-762.204,-33541.7 L-1798.27,-33275.8 L-2051.54,-33210.8 L-1965.6,-32957 L-1879.67,-32703.2 L-1841.5,-32660.5 L-1521.43,-32303.2 L-596.817,-31858.2 L-280.674,-31775.2 L-291.192,-31747.8 L-316.216,-31720.4 L-349.519,-31704 L-579.028,-31640.2 L-617.937,-31637.3 L-1005.23,-31684.7 L-1024.36,-31689 M-8558.32,-15031.3 L-8558.32,-14804.3 L-8558.7,-14802.8 L-8559.79,-14801.5 L-8561.41,-14800.6 L-8563.32,-14800.3 L-9058.32,-14800.3 L-9063.32,-14800.3 L-9068.32,-14800.3 L-9563.32,-14800.3 L-9565.24,-14800.6 L-9566.86,-14801.5 L-9567.94,-14802.8 L-9568.32,-14804.3 L-9568.32,-15012.2 L-9386.69,-15017.9 L-8729.21,-15038.5 L-8558.32,-15031.3 M-9568.32,-16876.8 L-9568.32,-17498.1 L-8938.87,-17254.4 L-9406.75,-16916.5 L-9568.32,-16876.8 M-10605.2,-14979.6 L-10604.8,-14978.1 L-10612,-14939.3 L-10633.6,-14906.3 L-11576.8,-13948.6 L-11603.4,-13947.8 L-11728.9,-13951.8 L-13361.6,-14106.1 L-13393.9,-14112.7 L-13569.8,-14148.5 L-14169.8,-14338.8 L-14241.4,-14361.5 L-14240.3,-14367.7 L-14218.3,-14401.8 L-13466.7,-15164.9 L-13267.5,-15101.7 L-11634.7,-14947.3 L-10777.9,-14974.2 L-10605.2,-14979.6 M-11780.8,-16628.8 L-11779,-16657.9 L-11763.4,-16691.5 L-11736.6,-16717.2 L-11702.3,-16731.3 L-11434.9,-16786.6 L-11395.8,-16786.9 L-11215,-16752.4 L-11177,-16736.5 L-11148.6,-16706.6 L-11134.7,-16667.7 L-11135.4,-16658.7 L-11285.2,-16651.8 L-11780.8,-16628.8 M-29058.3,-18808.3 L-28563.3,-18808.3 L-28561.4,-18808 L-28559.8,-18807.1 L-28558.7,-18805.8 L-28558.3,-18804.3 L-28558.3,-14804.3 L-28558.7,-14802.8 L-28559.8,-14801.5 L-28561.4,-14800.6 L-28563.3,-14800.3 L-29058.3,-14800.3 L-29063.3,-14800.3 L-29068.3,-14800.3 L-29563.3,-14800.3 L-29565.2,-14800.6 L-29566.9,-14801.5 L-29567.9,-14802.8 L-29568.3,-14804.3 L-29568.3,-18804.3 L-29567.9,-18805.8 L-29566.9,-18807.1 L-29565.2,-18808 L-29563.3,-18808.3 L-29068.3,-18808.3 L-29063.3,-18808.3 L-29058.3,-18808.3"/>
</g>

<g fill="none" stroke="#000000" stroke-opacity="1" stroke-width="1" stroke-linecap="square" stroke-linejoin="bevel" transform="matrix(1,0,0,-1,39063.8,33196.2)"
font-family="MS Shell Dlg 2" font-size="10.3125" font-weight="400" font-style="normal" 
>
</g>

<g fill="none" stroke="#000000" stroke-opacity="1" stroke-width="1" stroke-linecap="square" stroke-linejoin="bevel" transform="matrix(1,0,0,-1,39063.8,33196.2)"
font-family="MS Shell Dlg 2" font-size="10.3125" font-weight="400" font-style="normal" 
>
</g>

<g fill="#ae5151" fill-opacity="0.500008" stroke="#333333" stroke-opacity="1" stroke-width="1" stroke-linecap="round" stroke-linejoin="round" transform="matrix(1,0,0,-1,39063.8,33196.2)"
font-family="MS Shell Dlg 2" font-size="10.3125" font-weight="400" font-style="normal" 
>
<path vector-effect="non-scaling-stroke" fill-rule="evenodd" d="M-39063.3,33195.7 L-29568.3,33195.7 L-29068.3,33195.7 L-29063.3,33195.7 L-29058.3,33195.7 L-28558.3,33195.7 L60936.7,33195.7 L60936.7,-66804.3 L-28558.3,-66804.3 L-29058.3,-66804.3 L-29063.3,-66804.3 L-29068.3,-66804.3 L-29568.3,-66804.3 L-39063.3,-66804.3 L-39063.3,33195.7 M42217.2,-24347.5 L44451.9,-25165 L44457.7,-25161.1 L44599.2,-25064.4 L44671.2,-24961.7 L44804.7,-24771.5 L45110.5,-24107.8 L45202,-23709.9 L45176.9,-23575.7 L45126.9,-23308.6 L45011,-23027 L42973.1,-22281.4 L42954.1,-22276.5 L42568.5,-22216.5 L42529.5,-22218.1 L42150.4,-22310.3 L42115,-22326.7 L42094,-22342 L42066.8,-22372 L42053.8,-22410.4 L42054.3,-22416.5 L43039.3,-22479.2 L43912.3,-22985.3 L44202.2,-23689.3 L43896.4,-24352.9 L43539.1,-24374.3 L43237.7,-24128.4 L42621.4,-24347.9 L42146.5,-24108.1 L41976.9,-24180.1 L41988.6,-24202.7 L42015.7,-24227 L42199.5,-24339 L42217.2,-24347.5 M41036.7,-25365.2 L41036.7,-24333.3 L40972.9,-24317.1 L40836.7,-24282.5 L40836.7,-25314.3 L41036.7,-25365.2 M41036.7,-22170.9 L41036.7,-19952.7 L40836.7,-19581.9 L40836.7,-22059.1 L41034,-22169.4 L41036.7,-22170.9 M29327.8,3295.69 L28125.3,3295.69 L28258.9,3095.69 L29461.4,3095.69 L29327.8,3295.69 M22394.7,3295.69 L20936.7,3295.69 L20161.7,3295.69 L19761,3279.21 L19698.7,3295.69 L18000.2,3295.69 L17895.2,3167.62 L17877.1,3095.69 L20431.7,3095.69 L20931.7,3095.69 L20936.7,3095.69 L20941.7,3095.69 L21441.7,3095.69 L22904.7,3095.69 L22394.7,3295.69 M13725.8,3295.69 L12671.3,3295.69 L12604.4,3095.69 L13658.9,3095.69 L13682.8,3167.07 L13725.8,3295.69 M30069.4,-29485.6 L30069.1,-29487.3 L30069.1,-30485.7 L30153.1,-30487.2 L31078,-31016.6 L31293.2,-31084.9 L31480.5,-31144.3 L32190.4,-31211.5 L32269.1,-31204.4 L32269.1,-30214.5 L31969.6,-30186.1 L31574.8,-30148.7 L30427.2,-29491.9 L30069.4,-29485.6 M30533.1,-7667.72 L30497.3,-7664.22 L29470.6,-7762.95 L29269.6,-8500.38 L29052.7,-10009 L29076.3,-10011 L30076.5,-9914.84 L30250.6,-8703.83 L30533.1,-7667.72 M21441.7,-2195.4 L21441.7,-804.309 L21441.3,-803.544 L21440.2,-802.895 L21438.6,-802.461 L21436.7,-802.309 L20941.7,-802.309 L20936.7,-802.309 L20931.7,-802.309 L20528.8,-802.309 L20506.3,-1865.73 L20431.7,-2047.05 L20431.7,-2804.31 L20432.1,-2805.07 L20433.1,-2805.72 L20434.8,-2806.16 L20436.7,-2806.31 L20931.7,-2806.31 L20936.7,-2806.31 L20941.7,-2806.31 L21200.6,-2806.31 L21431,-2246.35 L21441.7,-2195.4 M-28558.3,-6904.31 L-28558.3,-6804.31 L-28558.7,-6796.66 L-28559.8,-6790.17 L-28561.4,-6785.83 L-28563.3,-6784.31 L-29058.3,-6784.31 L-29063.3,-6784.31 L-29068.3,-6784.31 L-29159.3,-6784.31 L-29162.5,-6800.31 L-29163.3,-6804.31 L-29155.7,-6842.58 L-29134,-6875.02 L-29101.6,-6896.7 L-29063.3,-6904.31 L-29058.3,-6904.31 L-28558.3,-6904.31 M-28558.3,-26704.3 L-29058.3,-26704.3 L-29063.3,-26704.3 L-29101.6,-26711.9 L-29134,-26733.6 L-29155.7,-26766 L-29163.3,-26804.3 L-29162.5,-26808.3 L-29159.3,-26824.3 L-29068.3,-26824.3 L-29063.3,-26824.3 L-29058.3,-26824.3 L-28563.3,-26824.3 L-28561.6,-26823 L-28561.4,-26822.8 L-28559.8,-26818.5 L-28558.7,-26812 L-28558.3,-26804.3 L-28558.3,-26704.3 M-2146.12,-26904.3 L431.678,-26904.3 L931.678,-26904.3 L936.678,-26904.3 L941.678,-26904.3 L1441.68,-26904.3 L4753.13,-26904.3 L5406.55,-26704.3 L936.678,-26704.3 L-1541.41,-26704.3 L-1946.08,-26811.6 L-2146.12,-26904.3 M11758.5,-26904.3 L13076.7,-26904.3 L13094.9,-26883.2 L13564.1,-26704.3 L11928.2,-26704.3 L11763.4,-26895.1 L11758.5,-26904.3 M15550.2,-26904.3 L17856.8,-26904.3 L18059.1,-26704.3 L15995.7,-26704.3 L15658.1,-26830.3 L15550.2,-26904.3 M20619.2,-26904.3 L20931.7,-26904.3 L20936.7,-26904.3 L20974.9,-26896.7 L21007.4,-26875 L21029.1,-26842.6 L21036.7,-26804.3 L21036.3,-26802.3 L21029.1,-26766 L21007.4,-26733.6 L20974.9,-26711.9 L20936.7,-26704.3 L20866.2,-26704.3 L20619.2,-26904.3 M16300.7,-14539 L16286.4,-14520.6 L15538.2,-13850.6 L14756.8,-14391.1 L14626.6,-14498.5 L13832.7,-15274.7 L13836.7,-15280 L14578.3,-15944.2 L15325.7,-15213.5 L16300.7,-14539 M15260.6,6596.32 L15244.6,6610.27 L14384.5,7123.55 L13860.5,6563.26 L13774.6,6419.15 L13642.5,6197.54 L13345.1,5309 L13309.6,5203.03 L14169.8,4689.68 L14189.8,4682.17 L14590.8,5880.16 L14687.2,5983.21 L15260.6,6596.32 M6842.36,-31164.7 L6841.61,-31175.7 L6982.33,-32160.7 L8071.09,-32125.7 L8278.67,-32095.3 L8294.49,-32093 L8381.18,-32070.1 L9162.24,-31863.7 L9020.22,-30869.6 L9008.74,-30835.3 L8993.35,-30816.5 L8907.17,-30896.8 L8038.98,-31126.2 L6842.36,-31164.7 M1441.68,-31322.8 L1441.68,-30804.3 L1441.3,-30803.5 L1440.21,-30802.9 L1438.59,-30802.5 L1436.68,-30802.3 L941.678,-30802.3 L936.678,-30802.3 L931.678,-30802.3 L436.678,-30802.3 L434.764,-30802.5 L433.142,-30802.9 L432.058,-30803.5 L431.678,-30804.3 L431.678,-31588.1 L1441.68,-31322.8 M-1024.36,-31689 L-2754.57,-32258.7 L-2826.86,-32382.5 L-2914.13,-32640.3 L-2998.72,-32890.1 L-3022.74,-33088.1 L-3047.92,-33295.7 L-2930.76,-33687.2 L-2788.42,-33855.4 L-2666.81,-33999.1 L-2501.32,-34080.5 L-2300.14,-34179.4 L-1880.6,-34287.1 L-336.31,-33778.6 L-318.381,-33770.7 L21.2989,-33578.7 L50.8687,-33553.2 L54.554,-33548.5 L71.9157,-33514.4 L74.942,-33479.5 L-731.551,-33539.4 L-762.204,-33541.7 L-1798.27,-33275.8 L-2051.54,-33210.8 L-1965.6,-32957 L-1879.67,-32703.2 L-1841.5,-32660.5 L-1521.43,-32303.2 L-596.817,-31858.2 L-280.674,-31775.2 L-291.192,-31747.8 L-316.216,-31720.4 L-349.519,-31704 L-579.028,-31640.2 L-617.937,-31637.3 L-1005.23,-31684.7 L-1024.36,-31689 M-8558.32,-15031.3 L-8558.32,-14804.3 L-8558.7,-14802.8 L-8559.79,-14801.5 L-8561.41,-14800.6 L-8563.32,-14800.3 L-9058.32,-14800.3 L-9063.32,-14800.3 L-9068.32,-14800.3 L-9563.32,-14800.3 L-9565.24,-14800.6 L-9566.86,-14801.5 L-9567.94,-14802.8 L-9568.32,-14804.3 L-9568.32,-15012.2 L-9386.69,-15017.9 L-8729.21,-15038.5 L-8558.32,-15031.3 M-9568.32,-16876.8 L-9568.32,-17498.1 L-8938.87,-17254.4 L-9406.75,-16916.5 L-9568.32,-16876.8 M-10605.2,-14979.6 L-10604.8,-14978.1 L-10612,-14939.3 L-10633.6,-14906.3 L-11576.8,-13948.6 L-11603.4,-13947.8 L-11728.9,-13951.8 L-13361.6,-14106.1 L-13393.9,-14112.7 L-13569.8,-14148.5 L-14169.8,-14338.8 L-14241.4,-14361.5 L-14240.3,-14367.7 L-14218.3,-14401.8 L-13466.7,-15164.9 L-13267.5,-15101.7 L-11634.7,-14947.3 L-10777.9,-14974.2 L-10605.2,-14979.6 M-11780.8,-16628.8 L-11779,-16657.9 L-11763.4,-16691.5 L-11736.6,-16717.2 L-11702.3,-16731.3 L-11434.9,-16786.6 L-11395.8,-16786.9 L-11215,-16752.4 L-11177,-16736.5 L-11148.6,-16706.6 L-11134.7,-16667.7 L-11135.4,-16658.7 L-11285.2,-16651.8 L-11780.8,-16628.8 M-29058.3,-18808.3 L-28563.3,-18808.3 L-28561.4,-18808 L-28559.8,-18807.1 L-28558.7,-18805.8 L-28558.3,-18804.3 L-28558.3,-14804.3 L-28558.7,-14802.8 L-28559.8,-14801.5 L-28561.4,-14800.6 L-28563.3,-14800.3 L-29058.3,-14800.3 L-29063.3,-14800.3 L-29068.3,-14800.3 L-29563.3,-14800.3 L-29565.2,-14800.6 L-29566.9,-14801.5 L-29567.9,-14802.8 L-29568.3,-14804.3 L-29568.3,-18804.3 L-29567.9,-18805.8 L-29566.9,-18807.1 L-29565.2,-18808 L-29563.3,-18808.3 L-29068.3,-18808.3 L-29063.3,-18808.3 L-29058.3,-18808.3"/>
</g>

<g fill="none" stroke="#000000" stroke-opacity="1" stroke-width="1" stroke-linecap="square" stroke-linejoin="bevel" transform="matrix(1,0,0,-1,39063.8,33196.2)"
font-family="MS Shell Dlg 2" font-size="10.3125" font-weight="400" font-style="normal" 
>
</g>

<g fill="none" stroke="#000000" stroke-opacity="1" stroke-width="1" stroke-linecap="square" stroke-linejoin="bevel" transform="matrix(1,0,0,-1,39063.8,33196.2)"
font-family="MS Shell Dlg 2" font-size="10.3125" font-weight="400" font-style="normal" 
>
</g>

<g fill="#333333" fill-opacity="0.500008" stroke="#333333" stroke-opacity="1" stroke-width="1" stroke-linecap="round" stroke-linejoin="round" transform="matrix(1,0,0,-1,39063.8,33196.2)"
font-family="MS Shell Dlg 2" font-size="10.3125" font-weight="400" font-style="normal" 
>
<path vector-effect="non-scaling-stroke" fill-rule="evenodd" d="M-39063.3,33195.7 L-29568.3,33195.7 L-29068.3,33195.7 L-29063.3,33195.7 L-29058.3,33195.7 L-28558.3,33195.7 L60936.7,33195.7 L60936.7,-66804.3 L-28558.3,-66804.3 L-29058.3,-66804.3 L-29063.3,-66804.3 L-29068.3,-66804.3 L-29568.3,-66804.3 L-39063.3,-66804.3 L-39063.3,33195.7 M42217.2,-24347.5 L44451.9,-25165 L44457.7,-25161.1 L44599.2,-25064.4 L44671.2,-24961.7 L44804.7,-24771.5 L45110.5,-24107.8 L45202,-23709.9 L45176.9,-23575.7 L45126.9,-23308.6 L45011,-23027 L42973.1,-22281.4 L42954.1,-22276.5 L42568.5,-22216.5 L42529.5,-22218.1 L42150.4,-22310.3 L42115,-22326.7 L42094,-22342 L42066.8,-22372 L42053.8,-22410.4 L42054.3,-22416.5 L43039.3,-22479.2 L43912.3,-22985.3 L44202.2,-23689.3 L43896.4,-24352.9 L43539.1,-24374.3 L43237.7,-24128.4 L42621.4,-24347.9 L42146.5,-24108.1 L41976.9,-24180.1 L41988.6,-24202.7 L42015.7,-24227 L42199.5,-24339 L42217.2,-24347.5 M41036.7,-25365.2 L41036.7,-24333.3 L40972.9,-24317.1 L40836.7,-24282.5 L40836.7,-25314.3 L41036.7,-25365.2 M41036.7,-22170.9 L41036.7,-19952.7 L40836.7,-19581.9 L40836.7,-22059.1 L41034,-22169.4 L41036.7,-22170.9 M29327.8,3295.69 L28125.3,3295.69 L28258.9,3095.69 L29461.4,3095.69 L29327.8,3295.69 M22394.7,3295.69 L20936.7,3295.69 L20161.7,3295.69 L19761,3279.21 L19698.7,3295.69 L18000.2,3295.69 L17895.2,3167.62 L17877.1,3095.69 L20431.7,3095.69 L20931.7,3095.69 L20936.7,3095.69 L20941.7,3095.69 L21441.7,3095.69 L22904.7,3095.69 L22394.7,3295.69 M13725.8,3295.69 L12671.3,3295.69 L12604.4,3095.69 L13658.9,3095.69 L13682.8,3167.07 L13725.8,3295.69 M30069.4,-29485.6 L30069.1,-29487.3 L30069.1,-30485.7 L30153.1,-30487.2 L31078,-31016.6 L31293.2,-31084.9 L31480.5,-31144.3 L32190.4,-31211.5 L32269.1,-31204.4 L32269.1,-30214.5 L31969.6,-30186.1 L31574.8,-30148.7 L30427.2,-29491.9 L30069.4,-29485.6 M30533.1,-7667.72 L30497.3,-7664.22 L29470.6,-7762.95 L29269.6,-8500.38 L29052.7,-10009 L29076.3,-10011 L30076.5,-9914.84 L30250.6,-8703.83 L30533.1,-7667.72 M21441.7,-2195.4 L21441.7,-804.309 L21441.3,-803.544 L21440.2,-802.895 L21438.6,-802.461 L21436.7,-802.309 L20941.7,-802.309 L20936.7,-802.309 L20931.7,-802.309 L20528.8,-802.309 L20506.3,-1865.73 L20431.7,-2047.05 L20431.7,-2804.31 L20432.1,-2805.07 L20433.1,-2805.72 L20434.8,-2806.16 L20436.7,-2806.31 L20931.7,-2806.31 L20936.7,-2806.31 L20941.7,-2806.31 L21200.6,-2806.31 L21431,-2246.35 L21441.7,-2195.4 M-28558.3,-6904.31 L-28558.3,-6804.31 L-28558.7,-6796.66 L-28559.8,-6790.17 L-28561.4,-6785.83 L-28563.3,-6784.31 L-29058.3,-6784.31 L-29063.3,-6784.31 L-29068.3,-6784.31 L-29159.3,-6784.31 L-29162.5,-6800.31 L-29163.3,-6804.31 L-29155.7,-6842.58 L-29134,-6875.02 L-29101.6,-6896.7 L-29063.3,-6904.31 L-29058.3,-6904.31 L-28558.3,-6904.31 M-28558.3,-26704.3 L-29058.3,-26704.3 L-29063.3,-26704.3 L-29101.6,-26711.9 L-29134,-26733.6 L-29155.7,-26766 L-29163.3,-26804.3 L-29162.5,-26808.3 L-29159.3,-26824.3 L-29068.3,-26824.3 L-29063.3,-26824.3 L-29058.3,-26824.3 L-28563.3,-26824.3 L-28561.6,-26823 L-28561.4,-26822.8 L-28559.8,-26818.5 L-28558.7,-26812 L-28558.3,-26804.3 L-28558.3,-26704.3 M-2146.12,-26904.3 L431.678,-26904.3 L931.678,-26904.3 L936.678,-26904.3 L941.678,-26904.3 L1441.68,-26904.3 L4753.13,-26904.3 L5406.55,-26704.3 L936.678,-26704.3 L-1541.41,-26704.3 L-1946.08,-26811.6 L-2146.12,-26904.3 M11758.5,-26904.3 L13076.7,-26904.3 L13094.9,-26883.2 L13564.1,-26704.3 L11928.2,-26704.3 L11763.4,-26895.1 L11758.5,-26904.3 M15550.2,-26904.3 L17856.8,-26904.3 L18059.1,-26704.3 L15995.7,-26704.3 L15658.1,-26830.3 L15550.2,-26904.3 M20619.2,-26904.3 L20931.7,-26904.3 L20936.7,-26904.3 L20974.9,-26896.7 L21007.4,-26875 L21029.1,-26842.6 L21036.7,-26804.3 L21036.3,-26802.3 L21029.1,-26766 L21007.4,-26733.6 L20974.9,-26711.9 L20936.7,-26704.3 L20866.2,-26704.3 L20619.2,-26904.3 M16300.7,-14539 L16286.4,-14520.6 L15538.2,-13850.6 L14756.8,-14391.1 L14626.6,-14498.5 L13832.7,-15274.7 L13836.7,-15280 L14578.3,-15944.2 L15325.7,-15213.5 L16300.7,-14539 M15260.6,6596.32 L15244.6,6610.27 L14384.5,7123.55 L13860.5,6563.26 L13774.6,6419.15 L13642.5,6197.54 L13345.1,5309 L13309.6,5203.03 L14169.8,4689.68 L14189.8,4682.17 L14590.8,5880.16 L14687.2,5983.21 L15260.6,6596.32 M6842.36,-31164.7 L6841.61,-31175.7 L6982.33,-32160.7 L8071.09,-32125.7 L8278.67,-32095.3 L8294.49,-32093 L8381.18,-32070.1 L9162.24,-31863.7 L9020.22,-30869.6 L9008.74,-30835.3 L8993.35,-30816.5 L8907.17,-30896.8 L8038.98,-31126.2 L6842.36,-31164.7 M1441.68,-31322.8 L1441.68,-30804.3 L1441.3,-30803.5 L1440.21,-30802.9 L1438.59,-30802.5 L1436.68,-30802.3 L941.678,-30802.3 L936.678,-30802.3 L931.678,-30802.3 L436.678,-30802.3 L434.764,-30802.5 L433.142,-30802.9 L432.058,-30803.5 L431.678,-30804.3 L431.678,-31588.1 L1441.68,-31322.8 M-1024.36,-31689 L-2754.57,-32258.7 L-2826.86,-32382.5 L-2914.13,-32640.3 L-2998.72,-32890.1 L-3022.74,-33088.1 L-3047.92,-33295.7 L-2930.76,-33687.2 L-2788.42,-33855.4 L-2666.81,-33999.1 L-2501.32,-34080.5 L-2300.14,-34179.4 L-1880.6,-34287.1 L-336.31,-33778.6 L-318.381,-33770.7 L21.2989,-33578.7 L50.8687,-33553.2 L54.554,-33548.5 L71.9157,-33514.4 L74.942,-33479.5 L-731.551,-33539.4 L-762.204,-33541.7 L-1798.27,-33275.8 L-2051.54,-33210.8 L-1965.6,-32957 L-1879.67,-32703.2 L-1841.5,-32660.5 L-1521.43,-32303.2 L-596.817,-31858.2 L-280.674,-31775.2 L-291.192,-31747.8 L-316.216,-31720.4 L-349.519,-31704 L-579.028,-31640.2 L-617.937,-31637.3 L-1005.23,-31684.7 L-1024.36,-31689 M-8558.32,-15031.3 L-8558.32,-14804.3 L-8558.7,-14802.8 L-8559.79,-14801.5 L-8561.41,-14800.6 L-8563.32,-14800.3 L-9058.32,-14800.3 L-9063.32,-14800.3 L-9068.32,-14800.3 L-9563.32,-14800.3 L-9565.24,-14800.6 L-9566.86,-14801.5 L-9567.94,-14802.8 L-9568.32,-14804.3 L-9568.32,-15012.2 L-9386.69,-15017.9 L-8729.21,-15038.5 L-8558.32,-15031.3 M-9568.32,-16876.8 L-9568.32,-17498.1 L-8938.87,-17254.4 L-9406.75,-16916.5 L-9568.32,-16876.8 M-10605.2,-14979.6 L-10604.8,-14978.1 L-10612,-14939.3 L-10633.6,-14906.3 L-11576.8,-13948.6 L-11603.4,-13947.8 L-11728.9,-13951.8 L-13361.6,-14106.1 L-13393.9,-14112.7 L-13569.8,-14148.5 L-14169.8,-14338.8 L-14241.4,-14361.5 L-14240.3,-14367.7 L-14218.3,-14401.8 L-13466.7,-15164.9 L-13267.5,-15101.7 L-11634.7,-14947.3 L-10777.9,-14974.2 L-10605.2,-14979.6 M-11780.8,-16628.8 L-11779,-16657.9 L-11763.4,-16691.5 L-11736.6,-16717.2 L-11702.3,-16731.3 L-11434.9,-16786.6 L-11395.8,-16786.9 L-11215,-16752.4 L-11177,-16736.5 L-11148.6,-16706.6 L-11134.7,-16667.7 L-11135.4,-16658.7 L-11285.2,-16651.8 L-11780.8,-16628.8 M-29058.3,-18808.3 L-28563.3,-18808.3 L-28561.4,-18808 L-28559.8,-18807.1 L-28558.7,-18805.8 L-28558.3,-18804.3 L-28558.3,-14804.3 L-28558.7,-14802.8 L-28559.8,-14801.5 L-28561.4,-14800.6 L-28563.3,-14800.3 L-29058.3,-14800.3 L-29063.3,-14800.3 L-29068.3,-14800.3 L-29563.3,-14800.3 L-29565.2,-14800.6 L-29566.9,-14801.5 L-29567.9,-14802.8 L-29568.3,-14804.3 L-29568.3,-18804.3 L-29567.9,-18805.8 L-29566.9,-18807.1 L-29565.2,-18808 L-29563.3,-18808.3 L-29068.3,-18808.3 L-29063.3,-18808.3 L-29058.3,-18808.3"/>
</g>

<g fill="none" stroke="#000000" stroke-opacity="1" stroke-width="1" stroke-linecap="square" stroke-linejoin="bevel" transform="matrix(1,0,0,-1,39063.8,33196.2)"
font-family="MS Shell Dlg 2" font-size="10.3125" font-weight="400" font-style="normal" 
>
</g>

<g fill="none" stroke="#000000" stroke-opacity="1" stroke-width="1" stroke-linecap="square" stroke-linejoin="bevel" transform="matrix(1,0,0,-1,39063.8,33196.2)"
font-family="MS Shell Dlg 2" font-size="10.3125" font-weight="400" font-style="normal" 
>
</g>

<g fill="#ae5151" fill-opacity="0.500008" stroke="#333333" stroke-opacity="1" stroke-width="1" stroke-linecap="round" stroke-linejoin="round" transform="matrix(1,0,0,-1,39063.8,33196.2)"
font-family="MS Shell Dlg 2" font-size="10.3125" font-weight="400" font-style="normal" 
>
<path vector-effect="non-scaling-stroke" fill-rule="evenodd" d="M-39063.3,33195.7 L-29568.3,33195.7 L-29068.3,33195.7 L-29063.3,33195.7 L-29058.3,33195.7 L-28558.3,33195.7 L60936.7,33195.7 L60936.7,-66804.3 L-28558.3,-66804.3 L-29058.3,-66804.3 L-29063.3,-66804.3 L-29068.3,-66804.3 L-29568.3,-66804.3 L-39063.3,-66804.3 L-39063.3,33195.7 M42217.2,-24347.5 L44451.9,-25165 L44457.7,-25161.1 L44599.2,-25064.4 L44671.2,-24961.7 L44804.7,-24771.5 L45110.5,-24107.8 L45202,-23709.9 L45176.9,-23575.7 L45126.9,-23308.6 L45011,-23027 L42973.1,-22281.4 L42954.1,-22276.5 L42568.5,-22216.5 L42529.5,-22218.1 L42150.4,-22310.3 L42115,-22326.7 L42094,-22342 L42066.8,-22372 L42053.8,-22410.4 L42054.3,-22416.5 L43039.3,-22479.2 L43912.3,-22985.3 L44202.2,-23689.3 L43896.4,-24352.9 L43539.1,-24374.3 L43237.7,-24128.4 L42621.4,-24347.9 L42146.5,-24108.1 L41976.9,-24180.1 L41988.6,-24202.7 L42015.7,-24227 L42199.5,-24339 L42217.2,-24347.5 M41036.7,-25365.2 L41036.7,-24333.3 L40972.9,-24317.1 L40836.7,-24282.5 L40836.7,-25314.3 L41036.7,-25365.2 M41036.7,-22170.9 L41036.7,-19952.7 L40836.7,-19581.9 L40836.7,-22059.1 L41034,-22169.4 L41036.7,-22170.9 M29327.8,3295.69 L28125.3,3295.69 L28258.9,3095.69 L29461.4,3095.69 L29327.8,3295.69 M22394.7,3295.69 L20936.7,3295.69 L20161.7,3295.69 L19761,3279.21 L19698.7,3295.69 L18000.2,3295.69 L17895.2,3167.62 L17877.1,3095.69 L20431.7,3095.69 L20931.7,3095.69 L20936.7,3095.69 L20941.7,3095.69 L21441.7,3095.69 L22904.7,3095.69 L22394.7,3295.69 M13725.8,3295.69 L12671.3,3295.69 L12604.4,3095.69 L13658.9,3095.69 L13682.8,3167.07 L13725.8,3295.69 M30069.4,-29485.6 L30069.1,-29487.3 L30069.1,-30485.7 L30153.1,-30487.2 L31078,-31016.6 L31293.2,-31084.9 L31480.5,-31144.3 L32190.4,-31211.5 L32269.1,-31204.4 L32269.1,-30214.5 L31969.6,-30186.1 L31574.8,-30148.7 L30427.2,-29491.9 L30069.4,-29485.6 M30533.1,-7667.72 L30497.3,-7664.22 L29470.6,-7762.95 L29269.6,-8500.38 L29052.7,-10009 L29076.3,-10011 L30076.5,-9914.84 L30250.6,-8703.83 L30533.1,-7667.72 M21441.7,-2195.4 L21441.7,-804.309 L21441.3,-803.544 L21440.2,-802.895 L21438.6,-802.461 L21436.7,-802.309 L20941.7,-802.309 L20936.7,-802.309 L20931.7,-802.309 L20528.8,-802.309 L20506.3,-1865.73 L20431.7,-2047.05 L20431.7,-2804.31 L20432.1,-2805.07 L20433.1,-2805.72 L20434.8,-2806.16 L20436.7,-2806.31 L20931.7,-2806.31 L20936.7,-2806.31 L20941.7,-2806.31 L21200.6,-2806.31 L21431,-2246.35 L21441.7,-2195.4 M-28558.3,-6904.31 L-28558.3,-6804.31 L-28558.7,-6796.66 L-28559.8,-6790.17 L-28561.4,-6785.83 L-28563.3,-6784.31 L-29058.3,-6784.31 L-29063.3,-6784.31 L-29068.3,-6784.31 L-29159.3,-6784.31 L-29162.5,-6800.31 L-29163.3,-6804.31 L-29155.7,-6842.58 L-29134,-6875.02 L-29101.6,-6896.7 L-29063.3,-6904.31 L-29058.3,-6904.31 L-28558.3,-6904.31 M-28558.3,-26704.3 L-29058.3,-26704.3 L-29063.3,-26704.3 L-29101.6,-26711.9 L-29134,-26733.6 L-29155.7,-26766 L-29163.3,-26804.3 L-29162.5,-26808.3 L-29159.3,-26824.3 L-29068.3,-26824.3 L-29063.3,-26824.3 L-29058.3,-26824.3 L-28563.3,-26824.3 L-28561.6,-26823 L-28561.4,-26822.8 L-28559.8,-26818.5 L-28558.7,-26812 L-28558.3,-26804.3 L-28558.3,-26704.3 M-2146.12,-26904.3 L431.678,-26904.3 L931.678,-26904.3 L936.678,-26904.3 L941.678,-26904.3 L1441.68,-26904.3 L4753.13,-26904.3 L5406.55,-26704.3 L936.678,-26704.3 L-1541.41,-26704.3 L-1946.08,-26811.6 L-2146.12,-26904.3 M11758.5,-26904.3 L13076.7,-26904.3 L13094.9,-26883.2 L13564.1,-26704.3 L11928.2,-26704.3 L11763.4,-26895.1 L11758.5,-26904.3 M15550.2,-26904.3 L17856.8,-26904.3 L18059.1,-26704.3 L15995.7,-26704.3 L15658.1,-26830.3 L15550.2,-26904.3 M20619.2,-26904.3 L20931.7,-26904.3 L20936.7,-26904.3 L20974.9,-26896.7 L21007.4,-26875 L21029.1,-26842.6 L21036.7,-26804.3 L21036.3,-26802.3 L21029.1,-26766 L21007.4,-26733.6 L20974.9,-26711.9 L20936.7,-26704.3 L20866.2,-26704.3 L20619.2,-26904.3 M16300.7,-14539 L16286.4,-14520.6 L15538.2,-13850.6 L14756.8,-14391.1 L14626.6,-14498.5 L13832.7,-15274.7 L13836.7,-15280 L14578.3,-15944.2 L15325.7,-15213.5 L16300.7,-14539 M15260.6,6596.32 L15244.6,6610.27 L14384.5,7123.55 L13860.5,6563.26 L13774.6,6419.15 L13642.5,6197.54 L13345.1,5309 L13309.6,5203.03 L14169.8,4689.68 L14189.8,4682.17 L14590.8,5880.16 L14687.2,5983.21 L15260.6,6596.32 M6842.36,-31164.7 L6841.61,-31175.7 L6982.33,-32160.7 L8071.09,-32125.7 L8278.67,-32095.3 L8294.49,-32093 L8381.18,-32070.1 L9162.24,-31863.7 L9020.22,-30869.6 L9008.74,-30835.3 L8993.35,-30816.5 L8907.17,-30896.8 L8038.98,-31126.2 L6842.36,-31164.7 M1441.68,-31322.8 L1441.68,-30804.3 L1441.3,-30803.5 L1440.21,-30802.9 L1438.59,-30802.5 L1436.68,-30802.3 L941.678,-30802.3 L936.678,-30802.3 L931.678,-30802.3 L436.678,-30802.3 L434.764,-30802.5 L433.142,-30802.9 L432.058,-30803.5 L431.678,-30804.3 L431.678,-31588.1 L1441.68,-31322.8 M-1024.36,-31689 L-2754.57,-32258.7 L-2826.86,-32382.5 L-2914.13,-32640.3 L-2998.72,-32890.1 L-3022.74,-33088.1 L-3047.92,-33295.7 L-2930.76,-33687.2 L-2788.42,-33855.4 L-2666.81,-33999.1 L-2501.32,-34080.5 L-2300.14,-34179.4 L-1880.6,-34287.1 L-336.31,-33778.6 L-318.381,-33770.7 L21.2989,-33578.7 L50.8687,-33553.2 L54.554,-33548.5 L71.9157,-33514.4 L74.942,-33479.5 L-731.551,-33539.4 L-762.204,-33541.7 L-1798.27,-33275.8 L-2051.54,-33210.8 L-1965.6,-32957 L-1879.67,-32703.2 L-1841.5,-32660.5 L-1521.43,-32303.2 L-596.817,-31858.2 L-280.674,-31775.2 L-291.192,-31747.8 L-316.216,-31720.4 L-349.519,-31704 L-579.028,-31640.2 L-617.937,-31637.3 L-1005.23,-31684.7 L-1024.36,-31689 M-8558.32,-15031.3 L-8558.32,-14804.3 L-8558.7,-14802.8 L-8559.79,-14801.5 L-8561.41,-14800.6 L-8563.32,-14800.3 L-9058.32,-14800.3 L-9063.32,-14800.3 L-9068.32,-14800.3 L-9563.32,-14800.3 L-9565.24,-14800.6 L-9566.86,-14801.5 L-9567.94,-14802.8 L-9568.32,-14804.3 L-9568.32,-15012.2 L-9386.69,-15017.9 L-8729.21,-15038.5 L-8558.32,-15031.3 M-9568.32,-16876.8 L-9568.32,-17498.1 L-8938.87,-17254.4 L-9406.75,-16916.5 L-9568.32,-16876.8 M-10605.2,-14979.6 L-10604.8,-14978.1 L-10612,-14939.3 L-10633.6,-14906.3 L-11576.8,-13948.6 L-11603.4,-13947.8 L-11728.9,-13951.8 L-13361.6,-14106.1 L-13393.9,-14112.7 L-13569.8,-14148.5 L-14169.8,-14338.8 L-14241.4,-14361.5 L-14240.3,-14367.7 L-14218.3,-14401.8 L-13466.7,-15164.9 L-13267.5,-15101.7 L-11634.7,-14947.3 L-10777.9,-14974.2 L-10605.2,-14979.6 M-11780.8,-16628.8 L-11779,-16657.9 L-11763.4,-16691.5 L-11736.6,-16717.2 L-11702.3,-16731.3 L-11434.9,-16786.6 L-11395.8,-16786.9 L-11215,-16752.4 L-11177,-16736.5 L-11148.6,-16706.6 L-11134.7,-16667.7 L-11135.4,-16658.7 L-11285.2,-16651.8 L-11780.8,-16628.8 M-29058.3,-18808.3 L-28563.3,-18808.3 L-28561.4,-18808 L-28559.8,-18807.1 L-28558.7,-18805.8 L-28558.3,-18804.3 L-28558.3,-14804.3 L-28558.7,-14802.8 L-28559.8,-14801.5 L-28561.4,-14800.6 L-28563.3,-14800.3 L-29058.3,-14800.3 L-29063.3,-14800.3 L-29068.3,-14800.3 L-29563.3,-14800.3 L-29565.2,-14800.6 L-29566.9,-14801.5 L-29567.9,-14802.8 L-29568.3,-14804.3 L-29568.3,-18804.3 L-29567.9,-18805.8 L-29566.9,-18807.1 L-29565.2,-18808 L-29563.3,-18808.3 L-29068.3,-18808.3 L-29063.3,-18808.3 L-29058.3,-18808.3"/>
</g>

<g fill="none" stroke="#000000" stroke-opacity="1" stroke-width="1" stroke-linecap="square" stroke-linejoin="bevel" transform="matrix(1,0,0,-1,39063.8,33196.2)"
font-family="MS Shell Dlg 2" font-size="10.3125" font-weight="400" font-style="normal" 
>
</g>

<g fill="none" stroke="#000000" stroke-opacity="1" stroke-width="1" stroke-linecap="square" stroke-linejoin="bevel" transform="matrix(1,0,0,-1,39063.8,33196.2)"
font-family="MS Shell Dlg 2" font-size="10.3125" font-weight="400" font-style="normal" 
>
</g>

<g fill="#333333" fill-opacity="0.500008" stroke="#333333" stroke-opacity="1" stroke-width="1" stroke-linecap="round" stroke-linejoin="round" transform="matrix(1,0,0,-1,39063.8,33196.2)"
font-family="MS Shell Dlg 2" font-size="10.3125" font-weight="400" font-style="normal" 
>
<path vector-effect="non-scaling-stroke" fill-rule="evenodd" d="M-39063.3,33195.7 L-29568.3,33195.7 L-29068.3,33195.7 L-29063.3,33195.7 L-29058.3,33195.7 L-28558.3,33195.7 L60936.7,33195.7 L60936.7,-66804.3 L-28558.3,-66804.3 L-29058.3,-66804.3 L-29063.3,-66804.3 L-29068.3,-66804.3 L-29568.3,-66804.3 L-39063.3,-66804.3 L-39063.3,33195.7 M42217.2,-24347.5 L44451.9,-25165 L44457.7,-25161.1 L44599.2,-25064.4 L44671.2,-24961.7 L44804.7,-24771.5 L45110.5,-24107.8 L45202,-23709.9 L45176.9,-23575.7 L45126.9,-23308.6 L45011,-23027 L42973.1,-22281.4 L42954.1,-22276.5 L42568.5,-22216.5 L42529.5,-22218.1 L42150.4,-22310.3 L42115,-22326.7 L42094,-22342 L42066.8,-22372 L42053.8,-22410.4 L42054.3,-22416.5 L43039.3,-22479.2 L43912.3,-22985.3 L44202.2,-23689.3 L43896.4,-24352.9 L43539.1,-24374.3 L43237.7,-24128.4 L42621.4,-24347.9 L42146.5,-24108.1 L41976.9,-24180.1 L41988.6,-24202.7 L42015.7,-24227 L42199.5,-24339 L42217.2,-24347.5 M41036.7,-25365.2 L41036.7,-24333.3 L40972.9,-24317.1 L40836.7,-24282.5 L40836.7,-25314.3 L41036.7,-25365.2 M41036.7,-22170.9 L41036.7,-19952.7 L40836.7,-19581.9 L40836.7,-22059.1 L41034,-22169.4 L41036.7,-22170.9 M29327.8,3295.69 L28125.3,3295.69 L28258.9,3095.69 L29461.4,3095.69 L29327.8,3295.69 M22394.7,3295.69 L20936.7,3295.69 L20161.7,3295.69 L19761,3279.21 L19698.7,3295.69 L18000.2,3295.69 L17895.2,3167.62 L17877.1,3095.69 L20431.7,3095.69 L20931.7,3095.69 L20936.7,3095.69 L20941.7,3095.69 L21441.7,3095.69 L22904.7,3095.69 L22394.7,3295.69 M13725.8,3295.69 L12671.3,3295.69 L12604.4,3095.69 L13658.9,3095.69 L13682.8,3167.07 L13725.8,3295.69 M30069.4,-29485.6 L30069.1,-29487.3 L30069.1,-30485.7 L30153.1,-30487.2 L31078,-31016.6 L31293.2,-31084.9 L31480.5,-31144.3 L32190.4,-31211.5 L32269.1,-31204.4 L32269.1,-30214.5 L31969.6,-30186.1 L31574.8,-30148.7 L30427.2,-29491.9 L30069.4,-29485.6 M30533.1,-7667.72 L30497.3,-7664.22 L29470.6,-7762.95 L29269.6,-8500.38 L29052.7,-10009 L29076.3,-10011 L30076.5,-9914.84 L30250.6,-8703.83 L30533.1,-7667.72 M21441.7,-2195.4 L21441.7,-804.309 L21441.3,-803.544 L21440.2,-802.895 L21438.6,-802.461 L21436.7,-802.309 L20941.7,-802.309 L20936.7,-802.309 L20931.7,-802.309 L20528.8,-802.309 L20506.3,-1865.73 L20431.7,-2047.05 L20431.7,-2804.31 L20432.1,-2805.07 L20433.1,-2805.72 L20434.8,-2806.16 L20436.7,-2806.31 L20931.7,-2806.31 L20936.7,-2806.31 L20941.7,-2806.31 L21200.6,-2806.31 L21431,-2246.35 L21441.7,-2195.4 M-28558.3,-6904.31 L-28558.3,-6804.31 L-28558.7,-6796.66 L-28559.8,-6790.17 L-28561.4,-6785.83 L-28563.3,-6784.31 L-29058.3,-6784.31 L-29063.3,-6784.31 L-29068.3,-6784.31 L-29159.3,-6784.31 L-29162.5,-6800.31 L-29163.3,-6804.31 L-29155.7,-6842.58 L-29134,-6875.02 L-29101.6,-6896.7 L-29063.3,-6904.31 L-29058.3,-6904.31 L-28558.3,-6904.31 M-28558.3,-26704.3 L-29058.3,-26704.3 L-29063.3,-26704.3 L-29101.6,-26711.9 L-29134,-26733.6 L-29155.7,-26766 L-29163.3,-26804.3 L-29162.5,-26808.3 L-29159.3,-26824.3 L-29068.3,-26824.3 L-29063.3,-26824.3 L-29058.3,-26824.3 L-28563.3,-26824.3 L-28561.6,-26823 L-28561.4,-26822.8 L-28559.8,-26818.5 L-28558.7,-26812 L-28558.3,-26804.3 L-28558.3,-26704.3 M-2146.12,-26904.3 L431.678,-26904.3 L931.678,-26904.3 L936.678,-26904.3 L941.678,-26904.3 L1441.68,-26904.3 L4753.13,-26904.3 L5406.55,-26704.3 L936.678,-26704.3 L-1541.41,-26704.3 L-1946.08,-26811.6 L-2146.12,-26904.3 M11758.5,-26904.3 L13076.7,-26904.3 L13094.9,-26883.2 L13564.1,-26704.3 L11928.2,-26704.3 L11763.4,-26895.1 L11758.5,-26904.3 M15550.2,-26904.3 L17856.8,-26904.3 L18059.1,-26704.3 L15995.7,-26704.3 L15658.1,-26830.3 L15550.2,-26904.3 M20619.2,-26904.3 L20931.7,-26904.3 L20936.7,-26904.3 L20974.9,-26896.7 L21007.4,-26875 L21029.1,-26842.6 L21036.7,-26804.3 L21036.3,-26802.3 L21029.1,-26766 L21007.4,-26733.6 L20974.9,-26711.9 L20936.7,-26704.3 L20866.2,-26704.3 L20619.2,-26904.3 M16300.7,-14539 L16286.4,-14520.6 L15538.2,-13850.6 L14756.8,-14391.1 L14626.6,-14498.5 L13832.7,-15274.7 L13836.7,-15280 L14578.3,-15944.2 L15325.7,-15213.5 L16300.7,-14539 M15260.6,6596.32 L15244.6,6610.27 L14384.5,7123.55 L13860.5,6563.26 L13774.6,6419.15 L13642.5,6197.54 L13345.1,5309 L13309.6,5203.03 L14169.8,4689.68 L14189.8,4682.17 L14590.8,5880.16 L14687.2,5983.21 L15260.6,6596.32 M6842.36,-31164.7 L6841.61,-31175.7 L6982.33,-32160.7 L8071.09,-32125.7 L8278.67,-32095.3 L8294.49,-32093 L8381.18,-32070.1 L9162.24,-31863.7 L9020.22,-30869.6 L9008.74,-30835.3 L8993.35,-30816.5 L8907.17,-30896.8 L8038.98,-31126.2 L6842.36,-31164.7 M1441.68,-31322.8 L1441.68,-30804.3 L1441.3,-30803.5 L1440.21,-30802.9 L1438.59,-30802.5 L1436.68,-30802.3 L941.678,-30802.3 L936.678,-30802.3 L931.678,-30802.3 L436.678,-30802.3 L434.764,-30802.5 L433.142,-30802.9 L432.058,-30803.5 L431.678,-30804.3 L431.678,-31588.1 L1441.68,-31322.8 M-1024.36,-31689 L-2754.57,-32258.7 L-2826.86,-32382.5 L-2914.13,-32640.3 L-2998.72,-32890.1 L-3022.74,-33088.1 L-3047.92,-33295.7 L-2930.76,-33687.2 L-2788.42,-33855.4 L-2666.81,-33999.1 L-2501.32,-34080.5 L-2300.14,-34179.4 L-1880.6,-34287.1 L-336.31,-33778.6 L-318.381,-33770.7 L21.2989,-33578.7 L50.8687,-33553.2 L54.554,-33548.5 L71.9157,-33514.4 L74.942,-33479.5 L-731.551,-33539.4 L-762.204,-33541.7 L-1798.27,-33275.8 L-2051.54,-33210.8 L-1965.6,-32957 L-1879.67,-32703.2 L-1841.5,-32660.5 L-1521.43,-32303.2 L-596.817,-31858.2 L-280.674,-31775.2 L-291.192,-31747.8 L-316.216,-31720.4 L-349.519,-31704 L-579.028,-31640.2 L-617.937,-31637.3 L-1005.23,-31684.7 L-1024.36,-31689 M-8558.32,-15031.3 L-8558.32,-14804.3 L-8558.7,-14802.8 L-8559.79,-14801.5 L-8561.41,-14800.6 L-8563.32,-14800.3 L-9058.32,-14800.3 L-9063.32,-14800.3 L-9068.32,-14800.3 L-9563.32,-14800.3 L-9565.24,-14800.6 L-9566.86,-14801.5 L-9567.94,-14802.8 L-9568.32,-14804.3 L-9568.32,-15012.2 L-9386.69,-15017.9 L-8729.21,-15038.5 L-8558.32,-15031.3 M-9568.32,-16876.8 L-9568.32,-17498.1 L-8938.87,-17254.4 L-9406.75,-16916.5 L-9568.32,-16876.8 M-10605.2,-14979.6 L-10604.8,-14978.1 L-10612,-14939.3 L-10633.6,-14906.3 L-11576.8,-13948.6 L-11603.4,-13947.8 L-11728.9,-13951.8 L-13361.6,-14106.1 L-13393.9,-14112.7 L-13569.8,-14148.5 L-14169.8,-14338.8 L-14241.4,-14361.5 L-14240.3,-14367.7 L-14218.3,-14401.8 L-13466.7,-15164.9 L-13267.5,-15101.7 L-11634.7,-14947.3 L-10777.9,-14974.2 L-10605.2,-14979.6 M-11780.8,-16628.8 L-11779,-16657.9 L-11763.4,-16691.5 L-11736.6,-16717.2 L-11702.3,-16731.3 L-11434.9,-16786.6 L-11395.8,-16786.9 L-11215,-16752.4 L-11177,-16736.5 L-11148.6,-16706.6 L-11134.7,-16667.7 L-11135.4,-16658.7 L-11285.2,-16651.8 L-11780.8,-16628.8 M-29058.3,-18808.3 L-28563.3,-18808.3 L-28561.4,-18808 L-28559.8,-18807.1 L-28558.7,-18805.8 L-28558.3,-18804.3 L-28558.3,-14804.3 L-28558.7,-14802.8 L-28559.8,-14801.5 L-28561.4,-14800.6 L-28563.3,-14800.3 L-29058.3,-14800.3 L-29063.3,-14800.3 L-29068.3,-14800.3 L-29563.3,-14800.3 L-29565.2,-14800.6 L-29566.9,-14801.5 L-29567.9,-14802.8 L-29568.3,-14804.3 L-29568.3,-18804.3 L-29567.9,-18805.8 L-29566.9,-18807.1 L-29565.2,-18808 L-29563.3,-18808.3 L-29068.3,-18808.3 L-29063.3,-18808.3 L-29058.3,-18808.3"/>
</g>

<g fill="none" stroke="#000000" stroke-opacity="1" stroke-width="1" stroke-linecap="square" stroke-linejoin="bevel" transform="matrix(1,0,0,-1,39063.8,33196.2)"
font-family="MS Shell Dlg 2" font-size="10.3125" font-weight="400" font-style="normal" 
>
</g>

<g fill="none" stroke="#000000" stroke-opacity="1" stroke-width="1" stroke-linecap="square" stroke-linejoin="bevel" transform="matrix(1,0,0,-1,39063.8,33196.2)"
font-family="MS Shell Dlg 2" font-size="10.3125" font-weight="400" font-style="normal" 
>
</g>

<g fill="#ae5151" fill-opacity="0.500008" stroke="#333333" stroke-opacity="1" stroke-width="1" stroke-linecap="round" stroke-linejoin="round" transform="matrix(1,0,0,-1,39063.8,33196.2)"
font-family="MS Shell Dlg 2" font-size="10.3125" font-weight="400" font-style="normal" 
>
<path vector-effect="non-scaling-stroke" fill-rule="evenodd" d="M-39063.3,33195.7 L-29568.3,33195.7 L-29068.3,33195.7 L-29063.3,33195.7 L-29058.3,33195.7 L-28558.3,33195.7 L60936.7,33195.7 L60936.7,-66804.3 L-28558.3,-66804.3 L-29058.3,-66804.3 L-29063.3,-66804.3 L-29068.3,-66804.3 L-29568.3,-66804.3 L-39063.3,-66804.3 L-39063.3,33195.7 M42217.2,-24347.5 L44451.9,-25165 L44457.7,-25161.1 L44599.2,-25064.4 L44671.2,-24961.7 L44804.7,-24771.5 L45110.5,-24107.8 L45202,-23709.9 L45176.9,-23575.7 L45126.9,-23308.6 L45011,-23027 L42973.1,-22281.4 L42954.1,-22276.5 L42568.5,-22216.5 L42529.5,-22218.1 L42150.4,-22310.3 L42115,-22326.7 L42094,-22342 L42066.8,-22372 L42053.8,-22410.4 L42054.3,-22416.5 L43039.3,-22479.2 L43912.3,-22985.3 L44202.2,-23689.3 L43896.4,-24352.9 L43539.1,-24374.3 L43237.7,-24128.4 L42621.4,-24347.9 L42146.5,-24108.1 L41976.9,-24180.1 L41988.6,-24202.7 L42015.7,-24227 L42199.5,-24339 L42217.2,-24347.5 M41036.7,-25365.2 L41036.7,-24333.3 L40972.9,-24317.1 L40836.7,-24282.5 L40836.7,-25314.3 L41036.7,-25365.2 M41036.7,-22170.9 L41036.7,-19952.7 L40836.7,-19581.9 L40836.7,-22059.1 L41034,-22169.4 L41036.7,-22170.9 M29327.8,3295.69 L28125.3,3295.69 L28258.9,3095.69 L29461.4,3095.69 L29327.8,3295.69 M22394.7,3295.69 L20936.7,3295.69 L20161.7,3295.69 L19761,3279.21 L19698.7,3295.69 L18000.2,3295.69 L17895.2,3167.62 L17877.1,3095.69 L20431.7,3095.69 L20931.7,3095.69 L20936.7,3095.69 L20941.7,3095.69 L21441.7,3095.69 L22904.7,3095.69 L22394.7,3295.69 M13725.8,3295.69 L12671.3,3295.69 L12604.4,3095.69 L13658.9,3095.69 L13682.8,3167.07 L13725.8,3295.69 M30069.4,-29485.6 L30069.1,-29487.3 L30069.1,-30485.7 L30153.1,-30487.2 L31078,-31016.6 L31293.2,-31084.9 L31480.5,-31144.3 L32190.4,-31211.5 L32269.1,-31204.4 L32269.1,-30214.5 L31969.6,-30186.1 L31574.8,-30148.7 L30427.2,-29491.9 L30069.4,-29485.6 M30533.1,-7667.72 L30497.3,-7664.22 L29470.6,-7762.95 L29269.6,-8500.38 L29052.7,-10009 L29076.3,-10011 L30076.5,-9914.84 L30250.6,-8703.83 L30533.1,-7667.72 M21441.7,-2195.4 L21441.7,-804.309 L21441.3,-803.544 L21440.2,-802.895 L21438.6,-802.461 L21436.7,-802.309 L20941.7,-802.309 L20936.7,-802.309 L20931.7,-802.309 L20528.8,-802.309 L20506.3,-1865.73 L20431.7,-2047.05 L20431.7,-2804.31 L20432.1,-2805.07 L20433.1,-2805.72 L20434.8,-2806.16 L20436.7,-2806.31 L20931.7,-2806.31 L20936.7,-2806.31 L20941.7,-2806.31 L21200.6,-2806.31 L21431,-2246.35 L21441.7,-2195.4 M-28558.3,-6904.31 L-28558.3,-6804.31 L-28558.7,-6796.66 L-28559.8,-6790.17 L-28561.4,-6785.83 L-28563.3,-6784.31 L-29058.3,-6784.31 L-29063.3,-6784.31 L-29068.3,-6784.31 L-29159.3,-6784.31 L-29162.5,-6800.31 L-29163.3,-6804.31 L-29155.7,-6842.58 L-29134,-6875.02 L-29101.6,-6896.7 L-29063.3,-6904.31 L-29058.3,-6904.31 L-28558.3,-6904.31 M-28558.3,-26704.3 L-29058.3,-26704.3 L-29063.3,-26704.3 L-29101.6,-26711.9 L-29134,-26733.6 L-29155.7,-26766 L-29163.3,-26804.3 L-29162.5,-26808.3 L-29159.3,-26824.3 L-29068.3,-26824.3 L-29063.3,-26824.3 L-29058.3,-26824.3 L-28563.3,-26824.3 L-28561.6,-26823 L-28561.4,-26822.8 L-28559.8,-26818.5 L-28558.7,-26812 L-28558.3,-26804.3 L-28558.3,-26704.3 M-2146.12,-26904.3 L431.678,-26904.3 L931.678,-26904.3 L936.678,-26904.3 L941.678,-26904.3 L1441.68,-26904.3 L4753.13,-26904.3 L5406.55,-26704.3 L936.678,-26704.3 L-1541.41,-26704.3 L-1946.08,-26811.6 L-2146.12,-26904.3 M11758.5,-26904.3 L13076.7,-26904.3 L13094.9,-26883.2 L13564.1,-26704.3 L11928.2,-26704.3 L11763.4,-26895.1 L11758.5,-26904.3 M15550.2,-26904.3 L17856.8,-26904.3 L18059.1,-26704.3 L15995.7,-26704.3 L15658.1,-26830.3 L15550.2,-26904.3 M20619.2,-26904.3 L20931.7,-26904.3 L20936.7,-26904.3 L20974.9,-26896.7 L21007.4,-26875 L21029.1,-26842.6 L21036.7,-26804.3 L21036.3,-26802.3 L21029.1,-26766 L21007.4,-26733.6 L20974.9,-26711.9 L20936.7,-26704.3 L20866.2,-26704.3 L20619.2,-26904.3 M16300.7,-14539 L16286.4,-14520.6 L15538.2,-13850.6 L14756.8,-14391.1 L14626.6,-14498.5 L13832.7,-15274.7 L13836.7,-15280 L14578.3,-15944.2 L15325.7,-15213.5 L16300.7,-14539 M15260.6,6596.32 L15244.6,6610.27 L14384.5,7123.55 L13860.5,6563.26 L13774.6,6419.15 L13642.5,6197.54 L13345.1,5309 L13309.6,5203.03 L14169.8,4689.68 L14189.8,4682.17 L14590.8,5880.16 L14687.2,5983.21 L15260.6,6596.32 M6842.36,-31164.7 L6841.61,-31175.7 L6982.33,-32160.7 L8071.09,-32125.7 L8278.67,-32095.3 L8294.49,-32093 L8381.18,-32070.1 L9162.24,-31863.7 L9020.22,-30869.6 L9008.74,-30835.3 L8993.35,-30816.5 L8907.17,-30896.8 L8038.98,-31126.2 L6842.36,-31164.7 M1441.68,-31322.8 L1441.68,-30804.3 L1441.3,-30803.5 L1440.21,-30802.9 L1438.59,-30802.5 L1436.68,-30802.3 L941.678,-30802.3 L936.678,-30802.3 L931.678,-30802.3 L436.678,-30802.3 L434.764,-30802.5 L433.142,-30802.9 L432.058,-30803.5 L431.678,-30804.3 L431.678,-31588.1 L1441.68,-31322.8 M-1024.36,-31689 L-2754.57,-32258.7 L-2826.86,-32382.5 L-2914.13,-32640.3 L-2998.72,-32890.1 L-3022.74,-33088.1 L-3047.92,-33295.7 L-2930.76,-33687.2 L-2788.42,-33855.4 L-2666.81,-33999.1 L-2501.32,-34080.5 L-2300.14,-34179.4 L-1880.6,-34287.1 L-336.31,-33778.6 L-318.381,-33770.7 L21.2989,-33578.7 L50.8687,-33553.2 L54.554,-33548.5 L71.9157,-33514.4 L74.942,-33479.5 L-731.551,-33539.4 L-762.204,-33541.7 L-1798.27,-33275.8 L-2051.54,-33210.8 L-1965.6,-32957 L-1879.67,-32703.2 L-1841.5,-32660.5 L-1521.43,-32303.2 L-596.817,-31858.2 L-280.674,-31775.2 L-291.192,-31747.8 L-316.216,-31720.4 L-349.519,-31704 L-579.028,-31640.2 L-617.937,-31637.3 L-1005.23,-31684.7 L-1024.36,-31689 M-8558.32,-15031.3 L-8558.32,-14804.3 L-8558.7,-14802.8 L-8559.79,-14801.5 L-8561.41,-14800.6 L-8563.32,-14800.3 L-9058.32,-14800.3 L-9063.32,-14800.3 L-9068.32,-14800.3 L-9563.32,-14800.3 L-9565.24,-14800.6 L-9566.86,-14801.5 L-9567.94,-14802.8 L-9568.32,-14804.3 L-9568.32,-15012.2 L-9386.69,-15017.9 L-8729.21,-15038.5 L-8558.32,-15031.3 M-9568.32,-16876.8 L-9568.32,-17498.1 L-8938.87,-17254.4 L-9406.75,-16916.5 L-9568.32,-16876.8 M-10605.2,-14979.6 L-10604.8,-14978.1 L-10612,-14939.3 L-10633.6,-14906.3 L-11576.8,-13948.6 L-11603.4,-13947.8 L-11728.9,-13951.8 L-13361.6,-14106.1 L-13393.9,-14112.7 L-13569.8,-14148.5 L-14169.8,-14338.8 L-14241.4,-14361.5 L-14240.3,-14367.7 L-14218.3,-14401.8 L-13466.7,-15164.9 L-13267.5,-15101.7 L-11634.7,-14947.3 L-10777.9,-14974.2 L-10605.2,-14979.6 M-11780.8,-16628.8 L-11779,-16657.9 L-11763.4,-16691.5 L-11736.6,-16717.2 L-11702.3,-16731.3 L-11434.9,-16786.6 L-11395.8,-16786.9 L-11215,-16752.4 L-11177,-16736.5 L-11148.6,-16706.6 L-11134.7,-16667.7 L-11135.4,-16658.7 L-11285.2,-16651.8 L-11780.8,-16628.8 M-29058.3,-18808.3 L-28563.3,-18808.3 L-28561.4,-18808 L-28559.8,-18807.1 L-28558.7,-18805.8 L-28558.3,-18804.3 L-28558.3,-14804.3 L-28558.7,-14802.8 L-28559.8,-14801.5 L-28561.4,-14800.6 L-28563.3,-14800.3 L-29058.3,-14800.3 L-29063.3,-14800.3 L-29068.3,-14800.3 L-29563.3,-14800.3 L-29565.2,-14800.6 L-29566.9,-14801.5 L-29567.9,-14802.8 L-29568.3,-14804.3 L-29568.3,-18804.3 L-29567.9,-18805.8 L-29566.9,-18807.1 L-29565.2,-18808 L-29563.3,-18808.3 L-29068.3,-18808.3 L-29063.3,-18808.3 L-29058.3,-18808.3"/>
</g>

<g fill="none" stroke="#000000" stroke-opacity="1" stroke-width="1" stroke-linecap="square" stroke-linejoin="bevel" transform="matrix(1,0,0,-1,39063.8,33196.2)"
font-family="MS Shell Dlg 2" font-size="10.3125" font-weight="400" font-style="normal" 
>
</g>

<g fill="none" stroke="#000000" stroke-opacity="1" stroke-width="1" stroke-linecap="square" stroke-linejoin="bevel" transform="matrix(1,0,0,-1,39063.8,33196.2)"
font-family="MS Shell Dlg 2" font-size="10.3125" font-weight="400" font-style="normal" 
>
</g>

<g fill="#ffff00" fill-opacity="0.500008" stroke="#333333" stroke-opacity="1" stroke-width="1" stroke-linecap="round" stroke-linejoin="round" transform="matrix(1,0,0,-1,39063.8,33196.2)"
font-family="MS Shell Dlg 2" font-size="10.3125" font-weight="400" font-style="normal" 
>
<path vector-effect="non-scaling-stroke" fill-rule="evenodd" d="M-39063.3,33195.7 L-29568.3,33195.7 L-29068.3,33195.7 L-29063.3,33195.7 L-29058.3,33195.7 L-28558.3,33195.7 L60936.7,33195.7 L60936.7,-66804.3 L-28558.3,-66804.3 L-29058.3,-66804.3 L-29063.3,-66804.3 L-29068.3,-66804.3 L-29568.3,-66804.3 L-39063.3,-66804.3 L-39063.3,33195.7 M42217.2,-24347.5 L44451.9,-25165 L44457.7,-25161.1 L44599.2,-25064.4 L44671.2,-24961.7 L44804.7,-24771.5 L45110.5,-24107.8 L45202,-23709.9 L45176.9,-23575.7 L45126.9,-23308.6 L45011,-23027 L42973.1,-22281.4 L42954.1,-22276.5 L42568.5,-22216.5 L42529.5,-22218.1 L42150.4,-22310.3 L42115,-22326.7 L42094,-22342 L42066.8,-22372 L42053.8,-22410.4 L42054.3,-22416.5 L43039.3,-22479.2 L43912.3,-22985.3 L44202.2,-23689.3 L43896.4,-24352.9 L43539.1,-24374.3 L43237.7,-24128.4 L42621.4,-24347.9 L42146.5,-24108.1 L41976.9,-24180.1 L41988.6,-24202.7 L42015.7,-24227 L42199.5,-24339 L42217.2,-24347.5 M41036.7,-25365.2 L41036.7,-24333.3 L40972.9,-24317.1 L40836.7,-24282.5 L40836.7,-25314.3 L41036.7,-25365.2 M41036.7,-22170.9 L41036.7,-19952.7 L40836.7,-19581.9 L40836.7,-22059.1 L41034,-22169.4 L41036.7,-22170.9 M29327.8,3295.69 L28125.3,3295.69 L28258.9,3095.69 L29461.4,3095.69 L29327.8,3295.69 M22394.7,3295.69 L20936.7,3295.69 L20161.7,3295.69 L19761,3279.21 L19698.7,3295.69 L18000.2,3295.69 L17895.2,3167.62 L17877.1,3095.69 L20431.7,3095.69 L20931.7,3095.69 L20936.7,3095.69 L20941.7,3095.69 L21441.7,3095.69 L22904.7,3095.69 L22394.7,3295.69 M13725.8,3295.69 L12671.3,3295.69 L12604.4,3095.69 L13658.9,3095.69 L13682.8,3167.07 L13725.8,3295.69 M30069.4,-29485.6 L30069.1,-29487.3 L30069.1,-30485.7 L30153.1,-30487.2 L31078,-31016.6 L31293.2,-31084.9 L31480.5,-31144.3 L32190.4,-31211.5 L32269.1,-31204.4 L32269.1,-30214.5 L31969.6,-30186.1 L31574.8,-30148.7 L30427.2,-29491.9 L30069.4,-29485.6 M30533.1,-7667.72 L30497.3,-7664.22 L29470.6,-7762.95 L29269.6,-8500.38 L29052.7,-10009 L29076.3,-10011 L30076.5,-9914.84 L30250.6,-8703.83 L30533.1,-7667.72 M21441.7,-2195.4 L21441.7,-804.309 L21441.3,-803.544 L21440.2,-802.895 L21438.6,-802.461 L21436.7,-802.309 L20941.7,-802.309 L20936.7,-802.309 L20931.7,-802.309 L20528.8,-802.309 L20506.3,-1865.73 L20431.7,-2047.05 L20431.7,-2804.31 L20432.1,-2805.07 L20433.1,-2805.72 L20434.8,-2806.16 L20436.7,-2806.31 L20931.7,-2806.31 L20936.7,-2806.31 L20941.7,-2806.31 L21200.6,-2806.31 L21431,-2246.35 L21441.7,-2195.4 M-28558.3,-6904.31 L-28558.3,-6804.31 L-28558.7,-6796.66 L-28559.8,-6790.17 L-28561.4,-6785.83 L-28563.3,-6784.31 L-29058.3,-6784.31 L-29063.3,-6784.31 L-29068.3,-6784.31 L-29159.3,-6784.31 L-29162.5,-6800.31 L-29163.3,-6804.31 L-29155.7,-6842.58 L-29134,-6875.02 L-29101.6,-6896.7 L-29063.3,-6904.31 L-29058.3,-6904.31 L-28558.3,-6904.31 M-28558.3,-26704.3 L-29058.3,-26704.3 L-29063.3,-26704.3 L-29101.6,-26711.9 L-29134,-26733.6 L-29155.7,-26766 L-29163.3,-26804.3 L-29162.5,-26808.3 L-29159.3,-26824.3 L-29068.3,-26824.3 L-29063.3,-26824.3 L-29058.3,-26824.3 L-28563.3,-26824.3 L-28561.6,-26823 L-28561.4,-26822.8 L-28559.8,-26818.5 L-28558.7,-26812 L-28558.3,-26804.3 L-28558.3,-26704.3 M-2146.12,-26904.3 L431.678,-26904.3 L931.678,-26904.3 L936.678,-26904.3 L941.678,-26904.3 L1441.68,-26904.3 L4753.13,-26904.3 L5406.55,-26704.3 L936.678,-26704.3 L-1541.41,-26704.3 L-1946.08,-26811.6 L-2146.12,-26904.3 M11758.5,-26904.3 L13076.7,-26904.3 L13094.9,-26883.2 L13564.1,-26704.3 L11928.2,-26704.3 L11763.4,-26895.1 L11758.5,-26904.3 M15550.2,-26904.3 L17856.8,-26904.3 L18059.1,-26704.3 L15995.7,-26704.3 L15658.1,-26830.3 L15550.2,-26904.3 M20619.2,-26904.3 L20931.7,-26904.3 L20936.7,-26904.3 L20974.9,-26896.7 L21007.4,-26875 L21029.1,-26842.6 L21036.7,-26804.3 L21036.3,-26802.3 L21029.1,-26766 L21007.4,-26733.6 L20974.9,-26711.9 L20936.7,-26704.3 L20866.2,-26704.3 L20619.2,-26904.3 M16300.7,-14539 L16286.4,-14520.6 L15538.2,-13850.6 L14756.8,-14391.1 L14626.6,-14498.5 L13832.7,-15274.7 L13836.7,-15280 L14578.3,-15944.2 L15325.7,-15213.5 L16300.7,-14539 M15260.6,6596.32 L15244.6,6610.27 L14384.5,7123.55 L13860.5,6563.26 L13774.6,6419.15 L13642.5,6197.54 L13345.1,5309 L13309.6,5203.03 L14169.8,4689.68 L14189.8,4682.17 L14590.8,5880.16 L14687.2,5983.21 L15260.6,6596.32 M6842.36,-31164.7 L6841.61,-31175.7 L6982.33,-32160.7 L8071.09,-32125.7 L8278.67,-32095.3 L8294.49,-32093 L8381.18,-32070.1 L9162.24,-31863.7 L9020.22,-30869.6 L9008.74,-30835.3 L8993.35,-30816.5 L8907.17,-30896.8 L8038.98,-31126.2 L6842.36,-31164.7 M1441.68,-31322.8 L1441.68,-30804.3 L1441.3,-30803.5 L1440.21,-30802.9 L1438.59,-30802.5 L1436.68,-30802.3 L941.678,-30802.3 L936.678,-30802.3 L931.678,-30802.3 L436.678,-30802.3 L434.764,-30802.5 L433.142,-30802.9 L432.058,-30803.5 L431.678,-30804.3 L431.678,-31588.1 L1441.68,-31322.8 M-1024.36,-31689 L-2754.57,-32258.7 L-2826.86,-32382.5 L-2914.13,-32640.3 L-2998.72,-32890.1 L-3022.74,-33088.1 L-3047.92,-33295.7 L-2930.76,-33687.2 L-2788.42,-33855.4 L-2666.81,-33999.1 L-2501.32,-34080.5 L-2300.14,-34179.4 L-1880.6,-34287.1 L-336.31,-33778.6 L-318.381,-33770.7 L21.2989,-33578.7 L50.8687,-33553.2 L54.554,-33548.5 L71.9157,-33514.4 L74.942,-33479.5 L-731.551,-33539.4 L-762.204,-33541.7 L-1798.27,-33275.8 L-2051.54,-33210.8 L-1965.6,-32957 L-1879.67,-32703.2 L-1841.5,-32660.5 L-1521.43,-32303.2 L-596.817,-31858.2 L-280.674,-31775.2 L-291.192,-31747.8 L-316.216,-31720.4 L-349.519,-31704 L-579.028,-31640.2 L-617.937,-31637.3 L-1005.23,-31684.7 L-1024.36,-31689 M-8558.32,-15031.3 L-8558.32,-14804.3 L-8558.7,-14802.8 L-8559.79,-14801.5 L-8561.41,-14800.6 L-8563.32,-14800.3 L-9058.32,-14800.3 L-9063.32,-14800.3 L-9068.32,-14800.3 L-9563.32,-14800.3 L-9565.24,-14800.6 L-9566.86,-14801.5 L-9567.94,-14802.8 L-9568.32,-14804.3 L-9568.32,-15012.2 L-9386.69,-15017.9 L-8729.21,-15038.5 L-8558.32,-15031.3 M-9568.32,-16876.8 L-9568.32,-17498.1 L-8938.87,-17254.4 L-9406.75,-16916.5 L-9568.32,-16876.8 M-10605.2,-14979.6 L-10604.8,-14978.1 L-10612,-14939.3 L-10633.6,-14906.3 L-11576.8,-13948.6 L-11603.4,-13947.8 L-11728.9,-13951.8 L-13361.6,-14106.1 L-13393.9,-14112.7 L-13569.8,-14148.5 L-14169.8,-14338.8 L-14241.4,-14361.5 L-14240.3,-14367.7 L-14218.3,-14401.8 L-13466.7,-15164.9 L-13267.5,-15101.7 L-11634.7,-14947.3 L-10777.9,-14974.2 L-10605.2,-14979.6 M-11780.8,-16628.8 L-11779,-16657.9 L-11763.4,-16691.5 L-11736.6,-16717.2 L-11702.3,-16731.3 L-11434.9,-16786.6 L-11395.8,-16786.9 L-11215,-16752.4 L-11177,-16736.5 L-11148.6,-16706.6 L-11134.7,-16667.7 L-11135.4,-16658.7 L-11285.2,-16651.8 L-11780.8,-16628.8 M-29058.3,-18808.3 L-28563.3,-18808.3 L-28561.4,-18808 L-28559.8,-18807.1 L-28558.7,-18805.8 L-28558.3,-18804.3 L-28558.3,-14804.3 L-28558.7,-14802.8 L-28559.8,-14801.5 L-28561.4,-14800.6 L-28563.3,-14800.3 L-29058.3,-14800.3 L-29063.3,-14800.3 L-29068.3,-14800.3 L-29563.3,-14800.3 L-29565.2,-14800.6 L-29566.9,-14801.5 L-29567.9,-14802.8 L-29568.3,-14804.3 L-29568.3,-18804.3 L-29567.9,-18805.8 L-29566.9,-18807.1 L-29565.2,-18808 L-29563.3,-18808.3 L-29068.3,-18808.3 L-29063.3,-18808.3 L-29058.3,-18808.3"/>
</g>

<g fill="none" stroke="#000000" stroke-opacity="1" stroke-width="1" stroke-linecap="square" stroke-linejoin="bevel" transform="matrix(1,0,0,-1,39063.8,33196.2)"
font-family="MS Shell Dlg 2" font-size="10.3125" font-weight="400" font-style="normal" 
>
</g>

<g fill="none" stroke="#000000" stroke-opacity="1" stroke-width="1" stroke-linecap="square" stroke-linejoin="bevel" transform="matrix(1,0,0,-1,39063.8,33196.2)"
font-family="MS Shell Dlg 2" font-size="10.3125" font-weight="400" font-style="normal" 
>
</g>

<g fill="#ae5151" fill-opacity="0.500008" stroke="#333333" stroke-opacity="1" stroke-width="1" stroke-linecap="round" stroke-linejoin="round" transform="matrix(1,0,0,-1,39063.8,33196.2)"
font-family="MS Shell Dlg 2" font-size="10.3125" font-weight="400" font-style="normal" 
>
<path vector-effect="non-scaling-stroke" fill-rule="evenodd" d="M-39063.3,33195.7 L-29568.3,33195.7 L-29068.3,33195.7 L-29063.3,33195.7 L-29058.3,33195.7 L-28558.3,33195.7 L60936.7,33195.7 L60936.7,-66804.3 L-28558.3,-66804.3 L-29058.3,-66804.3 L-29063.3,-66804.3 L-29068.3,-66804.3 L-29568.3,-66804.3 L-39063.3,-66804.3 L-39063.3,33195.7 M42217.2,-24347.5 L44451.9,-25165 L44457.7,-25161.1 L44599.2,-25064.4 L44671.2,-24961.7 L44804.7,-24771.5 L45110.5,-24107.8 L45202,-23709.9 L45176.9,-23575.7 L45126.9,-23308.6 L45011,-23027 L42973.1,-22281.4 L42954.1,-22276.5 L42568.5,-22216.5 L42529.5,-22218.1 L42150.4,-22310.3 L42115,-22326.7 L42094,-22342 L42066.8,-22372 L42053.8,-22410.4 L42054.3,-22416.5 L43039.3,-22479.2 L43912.3,-22985.3 L44202.2,-23689.3 L43896.4,-24352.9 L43539.1,-24374.3 L43237.7,-24128.4 L42621.4,-24347.9 L42146.5,-24108.1 L41976.9,-24180.1 L41988.6,-24202.7 L42015.7,-24227 L42199.5,-24339 L42217.2,-24347.5 M41036.7,-25365.2 L41036.7,-24333.3 L40972.9,-24317.1 L40836.7,-24282.5 L40836.7,-25314.3 L41036.7,-25365.2 M41036.7,-22170.9 L41036.7,-19952.7 L40836.7,-19581.9 L40836.7,-22059.1 L41034,-22169.4 L41036.7,-22170.9 M29327.8,3295.69 L28125.3,3295.69 L28258.9,3095.69 L29461.4,3095.69 L29327.8,3295.69 M22394.7,3295.69 L20936.7,3295.69 L20161.7,3295.69 L19761,3279.21 L19698.7,3295.69 L18000.2,3295.69 L17895.2,3167.62 L17877.1,3095.69 L20431.7,3095.69 L20931.7,3095.69 L20936.7,3095.69 L20941.7,3095.69 L21441.7,3095.69 L22904.7,3095.69 L22394.7,3295.69 M13725.8,3295.69 L12671.3,3295.69 L12604.4,3095.69 L13658.9,3095.69 L13682.8,3167.07 L13725.8,3295.69 M30069.4,-29485.6 L30069.1,-29487.3 L30069.1,-30485.7 L30153.1,-30487.2 L31078,-31016.6 L31293.2,-31084.9 L31480.5,-31144.3 L32190.4,-31211.5 L32269.1,-31204.4 L32269.1,-30214.5 L31969.6,-30186.1 L31574.8,-30148.7 L30427.2,-29491.9 L30069.4,-29485.6 M30533.1,-7667.72 L30497.3,-7664.22 L29470.6,-7762.95 L29269.6,-8500.38 L29052.7,-10009 L29076.3,-10011 L30076.5,-9914.84 L30250.6,-8703.83 L30533.1,-7667.72 M21441.7,-2195.4 L21441.7,-804.309 L21441.3,-803.544 L21440.2,-802.895 L21438.6,-802.461 L21436.7,-802.309 L20941.7,-802.309 L20936.7,-802.309 L20931.7,-802.309 L20528.8,-802.309 L20506.3,-1865.73 L20431.7,-2047.05 L20431.7,-2804.31 L20432.1,-2805.07 L20433.1,-2805.72 L20434.8,-2806.16 L20436.7,-2806.31 L20931.7,-2806.31 L20936.7,-2806.31 L20941.7,-2806.31 L21200.6,-2806.31 L21431,-2246.35 L21441.7,-2195.4 M-28558.3,-6904.31 L-28558.3,-6804.31 L-28558.7,-6796.66 L-28559.8,-6790.17 L-28561.4,-6785.83 L-28563.3,-6784.31 L-29058.3,-6784.31 L-29063.3,-6784.31 L-29068.3,-6784.31 L-29159.3,-6784.31 L-29162.5,-6800.31 L-29163.3,-6804.31 L-29155.7,-6842.58 L-29134,-6875.02 L-29101.6,-6896.7 L-29063.3,-6904.31 L-29058.3,-6904.31 L-28558.3,-6904.31 M-28558.3,-26704.3 L-29058.3,-26704.3 L-29063.3,-26704.3 L-29101.6,-26711.9 L-29134,-26733.6 L-29155.7,-26766 L-29163.3,-26804.3 L-29162.5,-26808.3 L-29159.3,-26824.3 L-29068.3,-26824.3 L-29063.3,-26824.3 L-29058.3,-26824.3 L-28563.3,-26824.3 L-28561.6,-26823 L-28561.4,-26822.8 L-28559.8,-26818.5 L-28558.7,-26812 L-28558.3,-26804.3 L-28558.3,-26704.3 M-2146.12,-26904.3 L431.678,-26904.3 L931.678,-26904.3 L936.678,-26904.3 L941.678,-26904.3 L1441.68,-26904.3 L4753.13,-26904.3 L5406.55,-26704.3 L936.678,-26704.3 L-1541.41,-26704.3 L-1946.08,-26811.6 L-2146.12,-26904.3 M11758.5,-26904.3 L13076.7,-26904.3 L13094.9,-26883.2 L13564.1,-26704.3 L11928.2,-26704.3 L11763.4,-26895.1 L11758.5,-26904.3 M15550.2,-26904.3 L17856.8,-26904.3 L18059.1,-26704.3 L15995.7,-26704.3 L15658.1,-26830.3 L15550.2,-26904.3 M20619.2,-26904.3 L20931.7,-26904.3 L20936.7,-26904.3 L20974.9,-26896.7 L21007.4,-26875 L21029.1,-26842.6 L21036.7,-26804.3 L21036.3,-26802.3 L21029.1,-26766 L21007.4,-26733.6 L20974.9,-26711.9 L20936.7,-26704.3 L20866.2,-26704.3 L20619.2,-26904.3 M16300.7,-14539 L16286.4,-14520.6 L15538.2,-13850.6 L14756.8,-14391.1 L14626.6,-14498.5 L13832.7,-15274.7 L13836.7,-15280 L14578.3,-15944.2 L15325.7,-15213.5 L16300.7,-14539 M15260.6,6596.32 L15244.6,6610.27 L14384.5,7123.55 L13860.5,6563.26 L13774.6,6419.15 L13642.5,6197.54 L13345.1,5309 L13309.6,5203.03 L14169.8,4689.68 L14189.8,4682.17 L14590.8,5880.16 L14687.2,5983.21 L15260.6,6596.32 M6842.36,-31164.7 L6841.61,-31175.7 L6982.33,-32160.7 L8071.09,-32125.7 L8278.67,-32095.3 L8294.49,-32093 L8381.18,-32070.1 L9162.24,-31863.7 L9020.22,-30869.6 L9008.74,-30835.3 L8993.35,-30816.5 L8907.17,-30896.8 L8038.98,-31126.2 L6842.36,-31164.7 M1441.68,-31322.8 L1441.68,-30804.3 L1441.3,-30803.5 L1440.21,-30802.9 L1438.59,-30802.5 L1436.68,-30802.3 L941.678,-30802.3 L936.678,-30802.3 L931.678,-30802.3 L436.678,-30802.3 L434.764,-30802.5 L433.142,-30802.9 L432.058,-30803.5 L431.678,-30804.3 L431.678,-31588.1 L1441.68,-31322.8 M-1024.36,-31689 L-2754.57,-32258.7 L-2826.86,-32382.5 L-2914.13,-32640.3 L-2998.72,-32890.1 L-3022.74,-33088.1 L-3047.92,-33295.7 L-2930.76,-33687.2 L-2788.42,-33855.4 L-2666.81,-33999.1 L-2501.32,-34080.5 L-2300.14,-34179.4 L-1880.6,-34287.1 L-336.31,-33778.6 L-318.381,-33770.7 L21.2989,-33578.7 L50.8687,-33553.2 L54.554,-33548.5 L71.9157,-33514.4 L74.942,-33479.5 L-731.551,-33539.4 L-762.204,-33541.7 L-1798.27,-33275.8 L-2051.54,-33210.8 L-1965.6,-32957 L-1879.67,-32703.2 L-1841.5,-32660.5 L-1521.43,-32303.2 L-596.817,-31858.2 L-280.674,-31775.2 L-291.192,-31747.8 L-316.216,-31720.4 L-349.519,-31704 L-579.028,-31640.2 L-617.937,-31637.3 L-1005.23,-31684.7 L-1024.36,-31689 M-8558.32,-15031.3 L-8558.32,-14804.3 L-8558.7,-14802.8 L-8559.79,-14801.5 L-8561.41,-14800.6 L-8563.32,-14800.3 L-9058.32,-14800.3 L-9063.32,-14800.3 L-9068.32,-14800.3 L-9563.32,-14800.3 L-9565.24,-14800.6 L-9566.86,-14801.5 L-9567.94,-14802.8 L-9568.32,-14804.3 L-9568.32,-15012.2 L-9386.69,-15017.9 L-8729.21,-15038.5 L-8558.32,-15031.3 M-9568.32,-16876.8 L-9568.32,-17498.1 L-8938.87,-17254.4 L-9406.75,-16916.5 L-9568.32,-16876.8 M-10605.2,-14979.6 L-10604.8,-14978.1 L-10612,-14939.3 L-10633.6,-14906.3 L-11576.8,-13948.6 L-11603.4,-13947.8 L-11728.9,-13951.8 L-13361.6,-14106.1 L-13393.9,-14112.7 L-13569.8,-14148.5 L-14169.8,-14338.8 L-14241.4,-14361.5 L-14240.3,-14367.7 L-14218.3,-14401.8 L-13466.7,-15164.9 L-13267.5,-15101.7 L-11634.7,-14947.3 L-10777.9,-14974.2 L-10605.2,-14979.6 M-11780.8,-16628.8 L-11779,-16657.9 L-11763.4,-16691.5 L-11736.6,-16717.2 L-11702.3,-16731.3 L-11434.9,-16786.6 L-11395.8,-16786.9 L-11215,-16752.4 L-11177,-16736.5 L-11148.6,-16706.6 L-11134.7,-16667.7 L-11135.4,-16658.7 L-11285.2,-16651.8 L-11780.8,-16628.8 M-29058.3,-18808.3 L-28563.3,-18808.3 L-28561.4,-18808 L-28559.8,-18807.1 L-28558.7,-18805.8 L-28558.3,-18804.3 L-28558.3,-14804.3 L-28558.7,-14802.8 L-28559.8,-14801.5 L-28561.4,-14800.6 L-28563.3,-14800.3 L-29058.3,-14800.3 L-29063.3,-14800.3 L-29068.3,-14800.3 L-29563.3,-14800.3 L-29565.2,-14800.6 L-29566.9,-14801.5 L-29567.9,-14802.8 L-29568.3,-14804.3 L-29568.3,-18804.3 L-29567.9,-18805.8 L-29566.9,-18807.1 L-29565.2,-18808 L-29563.3,-18808.3 L-29068.3,-18808.3 L-29063.3,-18808.3 L-29058.3,-18808.3"/>
</g>

<g fill="none" stroke="#000000" stroke-opacity="1" stroke-width="1" stroke-linecap="square" stroke-linejoin="bevel" transform="matrix(1,0,0,-1,39063.8,33196.2)"
font-family="MS Shell Dlg 2" font-size="10.3125" font-weight="400" font-style="normal" 
>
</g>

<g fill="none" stroke="#000000" stroke-opacity="1" stroke-width="1" stroke-linecap="square" stroke-linejoin="bevel" transform="matrix(1,0,0,-1,39063.8,33196.2)"
font-family="MS Shell Dlg 2" font-size="10.3125" font-weight="400" font-style="normal" 
>
</g>

<g fill="#333333" fill-opacity="0.500008" stroke="#333333" stroke-opacity="1" stroke-width="1" stroke-linecap="round" stroke-linejoin="round" transform="matrix(1,0,0,-1,39063.8,33196.2)"
font-family="MS Shell Dlg 2" font-size="10.3125" font-weight="400" font-style="normal" 
>
<path vector-effect="non-scaling-stroke" fill-rule="evenodd" d="M-39063.3,33195.7 L-29568.3,33195.7 L-29068.3,33195.7 L-29063.3,33195.7 L-29058.3,33195.7 L-28558.3,33195.7 L60936.7,33195.7 L60936.7,-66804.3 L-28558.3,-66804.3 L-29058.3,-66804.3 L-29063.3,-66804.3 L-29068.3,-66804.3 L-29568.3,-66804.3 L-39063.3,-66804.3 L-39063.3,33195.7 M42217.2,-24347.5 L44451.9,-25165 L44457.7,-25161.1 L44599.2,-25064.4 L44671.2,-24961.7 L44804.7,-24771.5 L45110.5,-24107.8 L45202,-23709.9 L45176.9,-23575.7 L45126.9,-23308.6 L45011,-23027 L42973.1,-22281.4 L42954.1,-22276.5 L42568.5,-22216.5 L42529.5,-22218.1 L42150.4,-22310.3 L42115,-22326.7 L42094,-22342 L42066.8,-22372 L42053.8,-22410.4 L42054.3,-22416.5 L43039.3,-22479.2 L43912.3,-22985.3 L44202.2,-23689.3 L43896.4,-24352.9 L43539.1,-24374.3 L43237.7,-24128.4 L42621.4,-24347.9 L42146.5,-24108.1 L41976.9,-24180.1 L41988.6,-24202.7 L42015.7,-24227 L42199.5,-24339 L42217.2,-24347.5 M41036.7,-25365.2 L41036.7,-24333.3 L40972.9,-24317.1 L40836.7,-24282.5 L40836.7,-25314.3 L41036.7,-25365.2 M41036.7,-22170.9 L41036.7,-19952.7 L40836.7,-19581.9 L40836.7,-22059.1 L41034,-22169.4 L41036.7,-22170.9 M29327.8,3295.69 L28125.3,3295.69 L28258.9,3095.69 L29461.4,3095.69 L29327.8,3295.69 M22394.7,3295.69 L20936.7,3295.69 L20161.7,3295.69 L19761,3279.21 L19698.7,3295.69 L18000.2,3295.69 L17895.2,3167.62 L17877.1,3095.69 L20431.7,3095.69 L20931.7,3095.69 L20936.7,3095.69 L20941.7,3095.69 L21441.7,3095.69 L22904.7,3095.69 L22394.7,3295.69 M13725.8,3295.69 L12671.3,3295.69 L12604.4,3095.69 L13658.9,3095.69 L13682.8,3167.07 L13725.8,3295.69 M30069.4,-29485.6 L30069.1,-29487.3 L30069.1,-30485.7 L30153.1,-30487.2 L31078,-31016.6 L31293.2,-31084.9 L31480.5,-31144.3 L32190.4,-31211.5 L32269.1,-31204.4 L32269.1,-30214.5 L31969.6,-30186.1 L31574.8,-30148.7 L30427.2,-29491.9 L30069.4,-29485.6 M30533.1,-7667.72 L30497.3,-7664.22 L29470.6,-7762.95 L29269.6,-8500.38 L29052.7,-10009 L29076.3,-10011 L30076.5,-9914.84 L30250.6,-8703.83 L30533.1,-7667.72 M21441.7,-2195.4 L21441.7,-804.309 L21441.3,-803.544 L21440.2,-802.895 L21438.6,-802.461 L21436.7,-802.309 L20941.7,-802.309 L20936.7,-802.309 L20931.7,-802.309 L20528.8,-802.309 L20506.3,-1865.73 L20431.7,-2047.05 L20431.7,-2804.31 L20432.1,-2805.07 L20433.1,-2805.72 L20434.8,-2806.16 L20436.7,-2806.31 L20931.7,-2806.31 L20936.7,-2806.31 L20941.7,-2806.31 L21200.6,-2806.31 L21431,-2246.35 L21441.7,-2195.4 M-28558.3,-6904.31 L-28558.3,-6804.31 L-28558.7,-6796.66 L-28559.8,-6790.17 L-28561.4,-6785.83 L-28563.3,-6784.31 L-29058.3,-6784.31 L-29063.3,-6784.31 L-29068.3,-6784.31 L-29159.3,-6784.31 L-29162.5,-6800.31 L-29163.3,-6804.31 L-29155.7,-6842.58 L-29134,-6875.02 L-29101.6,-6896.7 L-29063.3,-6904.31 L-29058.3,-6904.31 L-28558.3,-6904.31 M-28558.3,-26704.3 L-29058.3,-26704.3 L-29063.3,-26704.3 L-29101.6,-26711.9 L-29134,-26733.6 L-29155.7,-26766 L-29163.3,-26804.3 L-29162.5,-26808.3 L-29159.3,-26824.3 L-29068.3,-26824.3 L-29063.3,-26824.3 L-29058.3,-26824.3 L-28563.3,-26824.3 L-28561.6,-26823 L-28561.4,-26822.8 L-28559.8,-26818.5 L-28558.7,-26812 L-28558.3,-26804.3 L-28558.3,-26704.3 M-2146.12,-26904.3 L431.678,-26904.3 L931.678,-26904.3 L936.678,-26904.3 L941.678,-26904.3 L1441.68,-26904.3 L4753.13,-26904.3 L5406.55,-26704.3 L936.678,-26704.3 L-1541.41,-26704.3 L-1946.08,-26811.6 L-2146.12,-26904.3 M11758.5,-26904.3 L13076.7,-26904.3 L13094.9,-26883.2 L13564.1,-26704.3 L11928.2,-26704.3 L11763.4,-26895.1 L11758.5,-26904.3 M15550.2,-26904.3 L17856.8,-26904.3 L18059.1,-26704.3 L15995.7,-26704.3 L15658.1,-26830.3 L15550.2,-26904.3 M20619.2,-26904.3 L20931.7,-26904.3 L20936.7,-26904.3 L20974.9,-26896.7 L21007.4,-26875 L21029.1,-26842.6 L21036.7,-26804.3 L21036.3,-26802.3 L21029.1,-26766 L21007.4,-26733.6 L20974.9,-26711.9 L20936.7,-26704.3 L20866.2,-26704.3 L20619.2,-26904.3 M16300.7,-14539 L16286.4,-14520.6 L15538.2,-13850.6 L14756.8,-14391.1 L14626.6,-14498.5 L13832.7,-15274.7 L13836.7,-15280 L14578.3,-15944.2 L15325.7,-15213.5 L16300.7,-14539 M15260.6,6596.32 L15244.6,6610.27 L14384.5,7123.55 L13860.5,6563.26 L13774.6,6419.15 L13642.5,6197.54 L13345.1,5309 L13309.6,5203.03 L14169.8,4689.68 L14189.8,4682.17 L14590.8,5880.16 L14687.2,5983.21 L15260.6,6596.32 M6842.36,-31164.7 L6841.61,-31175.7 L6982.33,-32160.7 L8071.09,-32125.7 L8278.67,-32095.3 L8294.49,-32093 L8381.18,-32070.1 L9162.24,-31863.7 L9020.22,-30869.6 L9008.74,-30835.3 L8993.35,-30816.5 L8907.17,-30896.8 L8038.98,-31126.2 L6842.36,-31164.7 M1441.68,-31322.8 L1441.68,-30804.3 L1441.3,-30803.5 L1440.21,-30802.9 L1438.59,-30802.5 L1436.68,-30802.3 L941.678,-30802.3 L936.678,-30802.3 L931.678,-30802.3 L436.678,-30802.3 L434.764,-30802.5 L433.142,-30802.9 L432.058,-30803.5 L431.678,-30804.3 L431.678,-31588.1 L1441.68,-31322.8 M-1024.36,-31689 L-2754.57,-32258.7 L-2826.86,-32382.5 L-2914.13,-32640.3 L-2998.72,-32890.1 L-3022.74,-33088.1 L-3047.92,-33295.7 L-2930.76,-33687.2 L-2788.42,-33855.4 L-2666.81,-33999.1 L-2501.32,-34080.5 L-2300.14,-34179.4 L-1880.6,-34287.1 L-336.31,-33778.6 L-318.381,-33770.7 L21.2989,-33578.7 L50.8687,-33553.2 L54.554,-33548.5 L71.9157,-33514.4 L74.942,-33479.5 L-731.551,-33539.4 L-762.204,-33541.7 L-1798.27,-33275.8 L-2051.54,-33210.8 L-1965.6,-32957 L-1879.67,-32703.2 L-1841.5,-32660.5 L-1521.43,-32303.2 L-596.817,-31858.2 L-280.674,-31775.2 L-291.192,-31747.8 L-316.216,-31720.4 L-349.519,-31704 L-579.028,-31640.2 L-617.937,-31637.3 L-1005.23,-31684.7 L-1024.36,-31689 M-8558.32,-15031.3 L-8558.32,-14804.3 L-8558.7,-14802.8 L-8559.79,-14801.5 L-8561.41,-14800.6 L-8563.32,-14800.3 L-9058.32,-14800.3 L-9063.32,-14800.3 L-9068.32,-14800.3 L-9563.32,-14800.3 L-9565.24,-14800.6 L-9566.86,-14801.5 L-9567.94,-14802.8 L-9568.32,-14804.3 L-9568.32,-15012.2 L-9386.69,-15017.9 L-8729.21,-15038.5 L-8558.32,-15031.3 M-9568.32,-16876.8 L-9568.32,-17498.1 L-8938.87,-17254.4 L-9406.75,-16916.5 L-9568.32,-16876.8 M-10605.2,-14979.6 L-10604.8,-14978.1 L-10612,-14939.3 L-10633.6,-14906.3 L-11576.8,-13948.6 L-11603.4,-13947.8 L-11728.9,-13951.8 L-13361.6,-14106.1 L-13393.9,-14112.7 L-13569.8,-14148.5 L-14169.8,-14338.8 L-14241.4,-14361.5 L-14240.3,-14367.7 L-14218.3,-14401.8 L-13466.7,-15164.9 L-13267.5,-15101.7 L-11634.7,-14947.3 L-10777.9,-14974.2 L-10605.2,-14979.6 M-11780.8,-16628.8 L-11779,-16657.9 L-11763.4,-16691.5 L-11736.6,-16717.2 L-11702.3,-16731.3 L-11434.9,-16786.6 L-11395.8,-16786.9 L-11215,-16752.4 L-11177,-16736.5 L-11148.6,-16706.6 L-11134.7,-16667.7 L-11135.4,-16658.7 L-11285.2,-16651.8 L-11780.8,-16628.8 M-29058.3,-18808.3 L-28563.3,-18808.3 L-28561.4,-18808 L-28559.8,-18807.1 L-28558.7,-18805.8 L-28558.3,-18804.3 L-28558.3,-14804.3 L-28558.7,-14802.8 L-28559.8,-14801.5 L-28561.4,-14800.6 L-28563.3,-14800.3 L-29058.3,-14800.3 L-29063.3,-14800.3 L-29068.3,-14800.3 L-29563.3,-14800.3 L-29565.2,-14800.6 L-29566.9,-14801.5 L-29567.9,-14802.8 L-29568.3,-14804.3 L-29568.3,-18804.3 L-29567.9,-18805.8 L-29566.9,-18807.1 L-29565.2,-18808 L-29563.3,-18808.3 L-29068.3,-18808.3 L-29063.3,-18808.3 L-29058.3,-18808.3"/>
</g>

<g fill="none" stroke="#000000" stroke-opacity="1" stroke-width="1" stroke-linecap="square" stroke-linejoin="bevel" transform="matrix(1,0,0,-1,39063.8,33196.2)"
font-family="MS Shell Dlg 2" font-size="10.3125" font-weight="400" font-style="normal" 
>
</g>

<g fill="none" stroke="#000000" stroke-opacity="1" stroke-width="1" stroke-linecap="square" stroke-linejoin="bevel" transform="matrix(1,0,0,-1,0,100001)"
font-family="MS Shell Dlg 2" font-size="10.3125" font-weight="400" font-style="normal" 
>
</g>
</g>
</svg>
