<?xml version="1.0" encoding="UTF-8" standalone="no"?>
<svg width="23029.3mm" height="31496mm"
 xmlns="http://www.w3.org/2000/svg" xmlns:xlink="http://www.w3.org/1999/xlink"  version="1.2" baseProfile="tiny">
<title>SVG Generator Example Drawing</title>
<desc>An SVG drawing created by the SVG Generator</desc>
<defs>
</defs>
<g fill="none" stroke="black" stroke-width="1" fill-rule="evenodd" stroke-linecap="square" stroke-linejoin="bevel" >

<g fill="none" stroke="#000000" stroke-opacity="1" stroke-width="1" stroke-linecap="square" stroke-linejoin="bevel" transform="matrix(1,0,0,-1,0,111601)"
font-family="MS Shell Dlg 2" font-size="10.3125" font-weight="400" font-style="normal" 
>
</g>

<g fill="none" stroke="#000000" stroke-opacity="1" stroke-width="1" stroke-linecap="square" stroke-linejoin="bevel" transform="matrix(1,0,0,-1,0,111601)"
font-family="MS Shell Dlg 2" font-size="10.3125" font-weight="400" font-style="normal" 
>
</g>

<g fill="none" stroke="#000000" stroke-opacity="1" stroke-width="1" stroke-linecap="square" stroke-linejoin="bevel" transform="matrix(0.999988,0,0,-0.999988,29863.5,38997.1)"
font-family="MS Shell Dlg 2" font-size="10.3125" font-weight="400" font-style="normal" 
>
</g>

<g fill="#333333" fill-opacity="0.500008" stroke="#333333" stroke-opacity="1" stroke-width="1" stroke-linecap="round" stroke-linejoin="round" transform="matrix(0.999988,0,0,-0.999988,29863.5,38997.1)"
font-family="MS Shell Dlg 2" font-size="10.3125" font-weight="400" font-style="normal" 
>
<path vector-effect="non-scaling-stroke" fill-rule="evenodd" d="M-28263.3,-71804.3 L-28267.2,-71882.7 L-28278.7,-71960.4 L-28297.8,-72036.5 L-28324.2,-72110.5 L-28357.8,-72181.4 L-28398.1,-72248.8 L-28444.9,-72311.8 L-28497.6,-72370 L-28555.8,-72422.7 L-28618.9,-72469.5 L-28686.2,-72509.8 L-28757.2,-72543.4 L-28831.1,-72569.9 L-28907.2,-72588.9 L-28984.9,-72600.5 L-29063.3,-72604.3 L-29141.7,-72600.5 L-29219.4,-72588.9 L-29295.5,-72569.9 L-29369.5,-72543.4 L-29440.4,-72509.8 L-29507.8,-72469.5 L-29570.8,-72422.7 L-29629,-72370 L-29681.7,-72311.8 L-29728.5,-72248.8 L-29768.9,-72181.4 L-29802.4,-72110.5 L-29828.9,-72036.5 L-29848,-71960.4 L-29859.5,-71882.7 L-29863.3,-71804.3 L-29859.5,-71725.9 L-29848,-71648.2 L-29828.9,-71572.1 L-29802.4,-71498.2 L-29768.9,-71427.2 L-29728.5,-71359.9 L-29681.7,-71296.8 L-29629,-71238.6 L-29570.8,-71185.9 L-29507.8,-71139.1 L-29440.4,-71098.8 L-29369.5,-71065.2 L-29295.5,-71038.8 L-29219.4,-71019.7 L-29141.7,-71008.2 L-29063.3,-71004.3 L-28984.9,-71008.2 L-28907.2,-71019.7 L-28831.1,-71038.8 L-28757.2,-71065.2 L-28686.2,-71098.8 L-28618.9,-71139.1 L-28555.8,-71185.9 L-28497.6,-71238.6 L-28444.9,-71296.8 L-28398.1,-71359.9 L-28357.8,-71427.2 L-28324.2,-71498.2 L-28297.8,-71572.1 L-28278.7,-71648.2 L-28267.2,-71725.9 L-28263.3,-71804.3"/>
</g>

<g fill="none" stroke="#000000" stroke-opacity="1" stroke-width="1" stroke-linecap="square" stroke-linejoin="bevel" transform="matrix(0.999988,0,0,-0.999988,29863.5,38997.1)"
font-family="MS Shell Dlg 2" font-size="10.3125" font-weight="400" font-style="normal" 
>
</g>

<g fill="none" stroke="#000000" stroke-opacity="1" stroke-width="1" stroke-linecap="square" stroke-linejoin="bevel" transform="matrix(0.999988,0,0,-0.999988,29863.5,38997.1)"
font-family="MS Shell Dlg 2" font-size="10.3125" font-weight="400" font-style="normal" 
>
</g>

<g fill="#333333" fill-opacity="0.500008" stroke="#333333" stroke-opacity="1" stroke-width="1" stroke-linecap="round" stroke-linejoin="round" transform="matrix(0.999988,0,0,-0.999988,29863.5,38997.1)"
font-family="MS Shell Dlg 2" font-size="10.3125" font-weight="400" font-style="normal" 
>
<path vector-effect="non-scaling-stroke" fill-rule="evenodd" d="M51736.7,-71804.3 L51732.8,-71882.7 L51721.3,-71960.4 L51702.2,-72036.5 L51675.8,-72110.5 L51642.2,-72181.4 L51601.9,-72248.8 L51555.1,-72311.8 L51502.4,-72370 L51444.2,-72422.7 L51381.1,-72469.5 L51313.8,-72509.8 L51242.8,-72543.4 L51168.9,-72569.9 L51092.8,-72588.9 L51015.1,-72600.5 L50936.7,-72604.3 L50858.3,-72600.5 L50780.6,-72588.9 L50704.5,-72569.9 L50630.5,-72543.4 L50559.6,-72509.8 L50492.2,-72469.5 L50429.2,-72422.7 L50371,-72370 L50318.3,-72311.8 L50271.5,-72248.8 L50231.1,-72181.4 L50197.6,-72110.5 L50171.1,-72036.5 L50152,-71960.4 L50140.5,-71882.7 L50136.7,-71804.3 L50140.5,-71725.9 L50152,-71648.2 L50171.1,-71572.1 L50197.6,-71498.2 L50231.1,-71427.2 L50271.5,-71359.9 L50318.3,-71296.8 L50371,-71238.6 L50429.2,-71185.9 L50492.2,-71139.1 L50559.6,-71098.8 L50630.5,-71065.2 L50704.5,-71038.8 L50780.6,-71019.7 L50858.3,-71008.2 L50936.7,-71004.3 L51015.1,-71008.2 L51092.8,-71019.7 L51168.9,-71038.8 L51242.8,-71065.2 L51313.8,-71098.8 L51381.1,-71139.1 L51444.2,-71185.9 L51502.4,-71238.6 L51555.1,-71296.8 L51601.9,-71359.9 L51642.2,-71427.2 L51675.8,-71498.2 L51702.2,-71572.1 L51721.3,-71648.2 L51732.8,-71725.9 L51736.7,-71804.3"/>
</g>

<g fill="none" stroke="#000000" stroke-opacity="1" stroke-width="1" stroke-linecap="square" stroke-linejoin="bevel" transform="matrix(0.999988,0,0,-0.999988,29863.5,38997.1)"
font-family="MS Shell Dlg 2" font-size="10.3125" font-weight="400" font-style="normal" 
>
</g>

<g fill="none" stroke="#000000" stroke-opacity="1" stroke-width="1" stroke-linecap="square" stroke-linejoin="bevel" transform="matrix(0.999988,0,0,-0.999988,29863.5,38997.1)"
font-family="MS Shell Dlg 2" font-size="10.3125" font-weight="400" font-style="normal" 
>
</g>

<g fill="#333333" fill-opacity="0.500008" stroke="#333333" stroke-opacity="1" stroke-width="1" stroke-linecap="round" stroke-linejoin="round" transform="matrix(0.999988,0,0,-0.999988,29863.5,38997.1)"
font-family="MS Shell Dlg 2" font-size="10.3125" font-weight="400" font-style="normal" 
>
<path vector-effect="non-scaling-stroke" fill-rule="evenodd" d="M-28263.3,38195.7 L-28267.2,38117.3 L-28278.7,38039.6 L-28297.8,37963.5 L-28324.2,37889.5 L-28357.8,37818.6 L-28398.1,37751.2 L-28444.9,37688.2 L-28497.6,37630 L-28555.8,37577.3 L-28618.9,37530.5 L-28686.2,37490.2 L-28757.2,37456.6 L-28831.1,37430.1 L-28907.2,37411.1 L-28984.9,37399.5 L-29063.3,37395.7 L-29141.7,37399.5 L-29219.4,37411.1 L-29295.5,37430.1 L-29369.5,37456.6 L-29440.4,37490.2 L-29507.8,37530.5 L-29570.8,37577.3 L-29629,37630 L-29681.7,37688.2 L-29728.5,37751.2 L-29768.9,37818.6 L-29802.4,37889.5 L-29828.9,37963.5 L-29848,38039.6 L-29859.5,38117.3 L-29863.3,38195.7 L-29859.5,38274.1 L-29848,38351.8 L-29828.9,38427.9 L-29802.4,38501.8 L-29768.9,38572.8 L-29728.5,38640.1 L-29681.7,38703.2 L-29629,38761.4 L-29570.8,38814.1 L-29507.8,38860.9 L-29440.4,38901.2 L-29369.5,38934.8 L-29295.5,38961.2 L-29219.4,38980.3 L-29141.7,38991.8 L-29063.3,38995.7 L-28984.9,38991.8 L-28907.2,38980.3 L-28831.1,38961.2 L-28757.2,38934.8 L-28686.2,38901.2 L-28618.9,38860.9 L-28555.8,38814.1 L-28497.6,38761.4 L-28444.9,38703.2 L-28398.1,38640.1 L-28357.8,38572.8 L-28324.2,38501.8 L-28297.8,38427.9 L-28278.7,38351.8 L-28267.2,38274.1 L-28263.3,38195.7"/>
</g>

<g fill="none" stroke="#000000" stroke-opacity="1" stroke-width="1" stroke-linecap="square" stroke-linejoin="bevel" transform="matrix(0.999988,0,0,-0.999988,29863.5,38997.1)"
font-family="MS Shell Dlg 2" font-size="10.3125" font-weight="400" font-style="normal" 
>
</g>

<g fill="none" stroke="#000000" stroke-opacity="1" stroke-width="1" stroke-linecap="square" stroke-linejoin="bevel" transform="matrix(0.999988,0,0,-0.999988,29863.5,38997.1)"
font-family="MS Shell Dlg 2" font-size="10.3125" font-weight="400" font-style="normal" 
>
</g>

<g fill="#333333" fill-opacity="0.500008" stroke="#333333" stroke-opacity="1" stroke-width="1" stroke-linecap="round" stroke-linejoin="round" transform="matrix(0.999988,0,0,-0.999988,29863.5,38997.1)"
font-family="MS Shell Dlg 2" font-size="10.3125" font-weight="400" font-style="normal" 
>
<path vector-effect="non-scaling-stroke" fill-rule="evenodd" d="M51736.7,38195.7 L51732.8,38117.3 L51721.3,38039.6 L51702.2,37963.5 L51675.8,37889.5 L51642.2,37818.6 L51601.9,37751.2 L51555.1,37688.2 L51502.4,37630 L51444.2,37577.3 L51381.1,37530.5 L51313.8,37490.2 L51242.8,37456.6 L51168.9,37430.1 L51092.8,37411.1 L51015.1,37399.5 L50936.7,37395.7 L50858.3,37399.5 L50780.6,37411.1 L50704.5,37430.1 L50630.5,37456.6 L50559.6,37490.2 L50492.2,37530.5 L50429.2,37577.3 L50371,37630 L50318.3,37688.2 L50271.5,37751.2 L50231.1,37818.6 L50197.6,37889.5 L50171.1,37963.5 L50152,38039.6 L50140.5,38117.3 L50136.7,38195.7 L50140.5,38274.1 L50152,38351.8 L50171.1,38427.9 L50197.6,38501.8 L50231.1,38572.8 L50271.5,38640.1 L50318.3,38703.2 L50371,38761.4 L50429.2,38814.1 L50492.2,38860.9 L50559.6,38901.2 L50630.5,38934.8 L50704.5,38961.2 L50780.6,38980.3 L50858.3,38991.8 L50936.7,38995.7 L51015.1,38991.8 L51092.8,38980.3 L51168.9,38961.2 L51242.8,38934.8 L51313.8,38901.2 L51381.1,38860.9 L51444.2,38814.1 L51502.4,38761.4 L51555.1,38703.2 L51601.9,38640.1 L51642.2,38572.8 L51675.8,38501.8 L51702.2,38427.9 L51721.3,38351.8 L51732.8,38274.1 L51736.7,38195.7"/>
</g>

<g fill="none" stroke="#000000" stroke-opacity="1" stroke-width="1" stroke-linecap="square" stroke-linejoin="bevel" transform="matrix(0.999988,0,0,-0.999988,29863.5,38997.1)"
font-family="MS Shell Dlg 2" font-size="10.3125" font-weight="400" font-style="normal" 
>
</g>

<g fill="none" stroke="#000000" stroke-opacity="1" stroke-width="1" stroke-linecap="square" stroke-linejoin="bevel" transform="matrix(0.999988,0,0,-0.999988,29863.5,38997.1)"
font-family="MS Shell Dlg 2" font-size="10.3125" font-weight="400" font-style="normal" 
>
</g>

<g fill="#ae5151" fill-opacity="0.500008" stroke="#333333" stroke-opacity="1" stroke-width="1" stroke-linecap="round" stroke-linejoin="round" transform="matrix(0.999988,0,0,-0.999988,29863.5,38997.1)"
font-family="MS Shell Dlg 2" font-size="10.3125" font-weight="400" font-style="normal" 
>
<path vector-effect="non-scaling-stroke" fill-rule="evenodd" d="M-28263.3,-71804.3 L-28267.2,-71882.7 L-28278.7,-71960.4 L-28297.8,-72036.5 L-28324.2,-72110.5 L-28357.8,-72181.4 L-28398.1,-72248.8 L-28444.9,-72311.8 L-28497.6,-72370 L-28555.8,-72422.7 L-28618.9,-72469.5 L-28686.2,-72509.8 L-28757.2,-72543.4 L-28831.1,-72569.9 L-28907.2,-72588.9 L-28984.9,-72600.5 L-29063.3,-72604.3 L-29141.7,-72600.5 L-29219.4,-72588.9 L-29295.5,-72569.9 L-29369.5,-72543.4 L-29440.4,-72509.8 L-29507.8,-72469.5 L-29570.8,-72422.7 L-29629,-72370 L-29681.7,-72311.8 L-29728.5,-72248.8 L-29768.9,-72181.4 L-29802.4,-72110.5 L-29828.9,-72036.5 L-29848,-71960.4 L-29859.5,-71882.7 L-29863.3,-71804.3 L-29859.5,-71725.9 L-29848,-71648.2 L-29828.9,-71572.1 L-29802.4,-71498.2 L-29768.9,-71427.2 L-29728.5,-71359.9 L-29681.7,-71296.8 L-29629,-71238.6 L-29570.8,-71185.9 L-29507.8,-71139.1 L-29440.4,-71098.8 L-29369.5,-71065.2 L-29295.5,-71038.8 L-29219.4,-71019.7 L-29141.7,-71008.2 L-29063.3,-71004.3 L-28984.9,-71008.2 L-28907.2,-71019.7 L-28831.1,-71038.8 L-28757.2,-71065.2 L-28686.2,-71098.8 L-28618.9,-71139.1 L-28555.8,-71185.9 L-28497.6,-71238.6 L-28444.9,-71296.8 L-28398.1,-71359.9 L-28357.8,-71427.2 L-28324.2,-71498.2 L-28297.8,-71572.1 L-28278.7,-71648.2 L-28267.2,-71725.9 L-28263.3,-71804.3"/>
</g>

<g fill="none" stroke="#000000" stroke-opacity="1" stroke-width="1" stroke-linecap="square" stroke-linejoin="bevel" transform="matrix(0.999988,0,0,-0.999988,29863.5,38997.1)"
font-family="MS Shell Dlg 2" font-size="10.3125" font-weight="400" font-style="normal" 
>
</g>

<g fill="none" stroke="#000000" stroke-opacity="1" stroke-width="1" stroke-linecap="square" stroke-linejoin="bevel" transform="matrix(0.999988,0,0,-0.999988,29863.5,38997.1)"
font-family="MS Shell Dlg 2" font-size="10.3125" font-weight="400" font-style="normal" 
>
</g>

<g fill="#ae5151" fill-opacity="0.500008" stroke="#333333" stroke-opacity="1" stroke-width="1" stroke-linecap="round" stroke-linejoin="round" transform="matrix(0.999988,0,0,-0.999988,29863.5,38997.1)"
font-family="MS Shell Dlg 2" font-size="10.3125" font-weight="400" font-style="normal" 
>
<path vector-effect="non-scaling-stroke" fill-rule="evenodd" d="M51736.7,-71804.3 L51732.8,-71882.7 L51721.3,-71960.4 L51702.2,-72036.5 L51675.8,-72110.5 L51642.2,-72181.4 L51601.9,-72248.8 L51555.1,-72311.8 L51502.4,-72370 L51444.2,-72422.7 L51381.1,-72469.5 L51313.8,-72509.8 L51242.8,-72543.4 L51168.9,-72569.9 L51092.8,-72588.9 L51015.1,-72600.5 L50936.7,-72604.3 L50858.3,-72600.5 L50780.6,-72588.9 L50704.5,-72569.9 L50630.5,-72543.4 L50559.6,-72509.8 L50492.2,-72469.5 L50429.2,-72422.7 L50371,-72370 L50318.3,-72311.8 L50271.5,-72248.8 L50231.1,-72181.4 L50197.6,-72110.5 L50171.1,-72036.5 L50152,-71960.4 L50140.5,-71882.7 L50136.7,-71804.3 L50140.5,-71725.9 L50152,-71648.2 L50171.1,-71572.1 L50197.6,-71498.2 L50231.1,-71427.2 L50271.5,-71359.9 L50318.3,-71296.8 L50371,-71238.6 L50429.2,-71185.9 L50492.2,-71139.1 L50559.6,-71098.8 L50630.5,-71065.2 L50704.5,-71038.8 L50780.6,-71019.7 L50858.3,-71008.2 L50936.7,-71004.3 L51015.1,-71008.2 L51092.8,-71019.7 L51168.9,-71038.8 L51242.8,-71065.2 L51313.8,-71098.8 L51381.1,-71139.1 L51444.2,-71185.9 L51502.4,-71238.6 L51555.1,-71296.8 L51601.9,-71359.9 L51642.2,-71427.2 L51675.8,-71498.2 L51702.2,-71572.1 L51721.3,-71648.2 L51732.8,-71725.9 L51736.7,-71804.3"/>
</g>

<g fill="none" stroke="#000000" stroke-opacity="1" stroke-width="1" stroke-linecap="square" stroke-linejoin="bevel" transform="matrix(0.999988,0,0,-0.999988,29863.5,38997.1)"
font-family="MS Shell Dlg 2" font-size="10.3125" font-weight="400" font-style="normal" 
>
</g>

<g fill="none" stroke="#000000" stroke-opacity="1" stroke-width="1" stroke-linecap="square" stroke-linejoin="bevel" transform="matrix(0.999988,0,0,-0.999988,29863.5,38997.1)"
font-family="MS Shell Dlg 2" font-size="10.3125" font-weight="400" font-style="normal" 
>
</g>

<g fill="#ae5151" fill-opacity="0.500008" stroke="#333333" stroke-opacity="1" stroke-width="1" stroke-linecap="round" stroke-linejoin="round" transform="matrix(0.999988,0,0,-0.999988,29863.5,38997.1)"
font-family="MS Shell Dlg 2" font-size="10.3125" font-weight="400" font-style="normal" 
>
<path vector-effect="non-scaling-stroke" fill-rule="evenodd" d="M-28263.3,38195.7 L-28267.2,38117.3 L-28278.7,38039.6 L-28297.8,37963.5 L-28324.2,37889.5 L-28357.8,37818.6 L-28398.1,37751.2 L-28444.9,37688.2 L-28497.6,37630 L-28555.8,37577.3 L-28618.9,37530.5 L-28686.2,37490.2 L-28757.2,37456.6 L-28831.1,37430.1 L-28907.2,37411.1 L-28984.9,37399.5 L-29063.3,37395.7 L-29141.7,37399.5 L-29219.4,37411.1 L-29295.5,37430.1 L-29369.5,37456.6 L-29440.4,37490.2 L-29507.8,37530.5 L-29570.8,37577.3 L-29629,37630 L-29681.7,37688.2 L-29728.5,37751.2 L-29768.9,37818.6 L-29802.4,37889.5 L-29828.9,37963.5 L-29848,38039.6 L-29859.5,38117.3 L-29863.3,38195.7 L-29859.5,38274.1 L-29848,38351.8 L-29828.9,38427.9 L-29802.4,38501.8 L-29768.9,38572.8 L-29728.5,38640.1 L-29681.7,38703.2 L-29629,38761.4 L-29570.8,38814.1 L-29507.8,38860.9 L-29440.4,38901.2 L-29369.5,38934.8 L-29295.5,38961.2 L-29219.4,38980.3 L-29141.7,38991.8 L-29063.3,38995.7 L-28984.9,38991.8 L-28907.2,38980.3 L-28831.1,38961.2 L-28757.2,38934.8 L-28686.2,38901.2 L-28618.9,38860.9 L-28555.8,38814.1 L-28497.6,38761.4 L-28444.9,38703.2 L-28398.1,38640.1 L-28357.8,38572.8 L-28324.2,38501.8 L-28297.8,38427.9 L-28278.7,38351.8 L-28267.2,38274.1 L-28263.3,38195.7"/>
</g>

<g fill="none" stroke="#000000" stroke-opacity="1" stroke-width="1" stroke-linecap="square" stroke-linejoin="bevel" transform="matrix(0.999988,0,0,-0.999988,29863.5,38997.1)"
font-family="MS Shell Dlg 2" font-size="10.3125" font-weight="400" font-style="normal" 
>
</g>

<g fill="none" stroke="#000000" stroke-opacity="1" stroke-width="1" stroke-linecap="square" stroke-linejoin="bevel" transform="matrix(0.999988,0,0,-0.999988,29863.5,38997.1)"
font-family="MS Shell Dlg 2" font-size="10.3125" font-weight="400" font-style="normal" 
>
</g>

<g fill="#ae5151" fill-opacity="0.500008" stroke="#333333" stroke-opacity="1" stroke-width="1" stroke-linecap="round" stroke-linejoin="round" transform="matrix(0.999988,0,0,-0.999988,29863.5,38997.1)"
font-family="MS Shell Dlg 2" font-size="10.3125" font-weight="400" font-style="normal" 
>
<path vector-effect="non-scaling-stroke" fill-rule="evenodd" d="M51736.7,38195.7 L51732.8,38117.3 L51721.3,38039.6 L51702.2,37963.5 L51675.8,37889.5 L51642.2,37818.6 L51601.9,37751.2 L51555.1,37688.2 L51502.4,37630 L51444.2,37577.3 L51381.1,37530.5 L51313.8,37490.2 L51242.8,37456.6 L51168.9,37430.1 L51092.8,37411.1 L51015.1,37399.5 L50936.7,37395.7 L50858.3,37399.5 L50780.6,37411.1 L50704.5,37430.1 L50630.5,37456.6 L50559.6,37490.2 L50492.2,37530.5 L50429.2,37577.3 L50371,37630 L50318.3,37688.2 L50271.5,37751.2 L50231.1,37818.6 L50197.6,37889.5 L50171.1,37963.5 L50152,38039.6 L50140.5,38117.3 L50136.7,38195.7 L50140.5,38274.1 L50152,38351.8 L50171.1,38427.9 L50197.6,38501.8 L50231.1,38572.8 L50271.5,38640.1 L50318.3,38703.2 L50371,38761.4 L50429.2,38814.1 L50492.2,38860.9 L50559.6,38901.2 L50630.5,38934.8 L50704.5,38961.2 L50780.6,38980.3 L50858.3,38991.8 L50936.7,38995.7 L51015.1,38991.8 L51092.8,38980.3 L51168.9,38961.2 L51242.8,38934.8 L51313.8,38901.2 L51381.1,38860.9 L51444.2,38814.1 L51502.4,38761.4 L51555.1,38703.2 L51601.9,38640.1 L51642.2,38572.8 L51675.8,38501.8 L51702.2,38427.9 L51721.3,38351.8 L51732.8,38274.1 L51736.7,38195.7"/>
</g>

<g fill="none" stroke="#000000" stroke-opacity="1" stroke-width="1" stroke-linecap="square" stroke-linejoin="bevel" transform="matrix(0.999988,0,0,-0.999988,29863.5,38997.1)"
font-family="MS Shell Dlg 2" font-size="10.3125" font-weight="400" font-style="normal" 
>
</g>

<g fill="none" stroke="#000000" stroke-opacity="1" stroke-width="1" stroke-linecap="square" stroke-linejoin="bevel" transform="matrix(0.999988,0,0,-0.999988,29863.5,38997.1)"
font-family="MS Shell Dlg 2" font-size="10.3125" font-weight="400" font-style="normal" 
>
</g>

<g fill="#ffff00" fill-opacity="0.500008" stroke="#333333" stroke-opacity="1" stroke-width="1" stroke-linecap="round" stroke-linejoin="round" transform="matrix(0.999988,0,0,-0.999988,29863.5,38997.1)"
font-family="MS Shell Dlg 2" font-size="10.3125" font-weight="400" font-style="normal" 
>
<path vector-effect="non-scaling-stroke" fill-rule="evenodd" d="M-28263.3,-71804.3 L-28267.2,-71882.7 L-28278.7,-71960.4 L-28297.8,-72036.5 L-28324.2,-72110.5 L-28357.8,-72181.4 L-28398.1,-72248.8 L-28444.9,-72311.8 L-28497.6,-72370 L-28555.8,-72422.7 L-28618.9,-72469.5 L-28686.2,-72509.8 L-28757.2,-72543.4 L-28831.1,-72569.9 L-28907.2,-72588.9 L-28984.9,-72600.5 L-29063.3,-72604.3 L-29141.7,-72600.5 L-29219.4,-72588.9 L-29295.5,-72569.9 L-29369.5,-72543.4 L-29440.4,-72509.8 L-29507.8,-72469.5 L-29570.8,-72422.7 L-29629,-72370 L-29681.7,-72311.8 L-29728.5,-72248.8 L-29768.9,-72181.4 L-29802.4,-72110.5 L-29828.9,-72036.5 L-29848,-71960.4 L-29859.5,-71882.7 L-29863.3,-71804.3 L-29859.5,-71725.9 L-29848,-71648.2 L-29828.9,-71572.1 L-29802.4,-71498.2 L-29768.9,-71427.2 L-29728.5,-71359.9 L-29681.7,-71296.8 L-29629,-71238.6 L-29570.8,-71185.9 L-29507.8,-71139.1 L-29440.4,-71098.8 L-29369.5,-71065.2 L-29295.5,-71038.8 L-29219.4,-71019.7 L-29141.7,-71008.2 L-29063.3,-71004.3 L-28984.9,-71008.2 L-28907.2,-71019.7 L-28831.1,-71038.8 L-28757.2,-71065.2 L-28686.2,-71098.8 L-28618.9,-71139.1 L-28555.8,-71185.9 L-28497.6,-71238.6 L-28444.9,-71296.8 L-28398.1,-71359.9 L-28357.8,-71427.2 L-28324.2,-71498.2 L-28297.8,-71572.1 L-28278.7,-71648.2 L-28267.2,-71725.9 L-28263.3,-71804.3"/>
</g>

<g fill="none" stroke="#000000" stroke-opacity="1" stroke-width="1" stroke-linecap="square" stroke-linejoin="bevel" transform="matrix(0.999988,0,0,-0.999988,29863.5,38997.1)"
font-family="MS Shell Dlg 2" font-size="10.3125" font-weight="400" font-style="normal" 
>
</g>

<g fill="none" stroke="#000000" stroke-opacity="1" stroke-width="1" stroke-linecap="square" stroke-linejoin="bevel" transform="matrix(0.999988,0,0,-0.999988,29863.5,38997.1)"
font-family="MS Shell Dlg 2" font-size="10.3125" font-weight="400" font-style="normal" 
>
</g>

<g fill="#ffff00" fill-opacity="0.500008" stroke="#333333" stroke-opacity="1" stroke-width="1" stroke-linecap="round" stroke-linejoin="round" transform="matrix(0.999988,0,0,-0.999988,29863.5,38997.1)"
font-family="MS Shell Dlg 2" font-size="10.3125" font-weight="400" font-style="normal" 
>
<path vector-effect="non-scaling-stroke" fill-rule="evenodd" d="M51736.7,-71804.3 L51732.8,-71882.7 L51721.3,-71960.4 L51702.2,-72036.5 L51675.8,-72110.5 L51642.2,-72181.4 L51601.9,-72248.8 L51555.1,-72311.8 L51502.4,-72370 L51444.2,-72422.7 L51381.1,-72469.5 L51313.8,-72509.8 L51242.8,-72543.4 L51168.9,-72569.9 L51092.8,-72588.9 L51015.1,-72600.5 L50936.7,-72604.3 L50858.3,-72600.5 L50780.6,-72588.9 L50704.5,-72569.9 L50630.5,-72543.4 L50559.6,-72509.8 L50492.2,-72469.5 L50429.2,-72422.7 L50371,-72370 L50318.3,-72311.8 L50271.5,-72248.8 L50231.1,-72181.4 L50197.6,-72110.5 L50171.1,-72036.5 L50152,-71960.4 L50140.5,-71882.7 L50136.7,-71804.3 L50140.5,-71725.9 L50152,-71648.2 L50171.1,-71572.1 L50197.6,-71498.2 L50231.1,-71427.2 L50271.5,-71359.9 L50318.3,-71296.8 L50371,-71238.6 L50429.2,-71185.9 L50492.2,-71139.1 L50559.6,-71098.8 L50630.5,-71065.2 L50704.5,-71038.8 L50780.6,-71019.7 L50858.3,-71008.2 L50936.7,-71004.3 L51015.1,-71008.2 L51092.8,-71019.7 L51168.9,-71038.8 L51242.8,-71065.2 L51313.8,-71098.8 L51381.1,-71139.1 L51444.2,-71185.9 L51502.4,-71238.6 L51555.1,-71296.8 L51601.9,-71359.9 L51642.2,-71427.2 L51675.8,-71498.2 L51702.2,-71572.1 L51721.3,-71648.2 L51732.8,-71725.9 L51736.7,-71804.3"/>
</g>

<g fill="none" stroke="#000000" stroke-opacity="1" stroke-width="1" stroke-linecap="square" stroke-linejoin="bevel" transform="matrix(0.999988,0,0,-0.999988,29863.5,38997.1)"
font-family="MS Shell Dlg 2" font-size="10.3125" font-weight="400" font-style="normal" 
>
</g>

<g fill="none" stroke="#000000" stroke-opacity="1" stroke-width="1" stroke-linecap="square" stroke-linejoin="bevel" transform="matrix(0.999988,0,0,-0.999988,29863.5,38997.1)"
font-family="MS Shell Dlg 2" font-size="10.3125" font-weight="400" font-style="normal" 
>
</g>

<g fill="#ffff00" fill-opacity="0.500008" stroke="#333333" stroke-opacity="1" stroke-width="1" stroke-linecap="round" stroke-linejoin="round" transform="matrix(0.999988,0,0,-0.999988,29863.5,38997.1)"
font-family="MS Shell Dlg 2" font-size="10.3125" font-weight="400" font-style="normal" 
>
<path vector-effect="non-scaling-stroke" fill-rule="evenodd" d="M-28263.3,38195.7 L-28267.2,38117.3 L-28278.7,38039.6 L-28297.8,37963.5 L-28324.2,37889.5 L-28357.8,37818.6 L-28398.1,37751.2 L-28444.9,37688.2 L-28497.6,37630 L-28555.8,37577.3 L-28618.9,37530.5 L-28686.2,37490.2 L-28757.2,37456.6 L-28831.1,37430.1 L-28907.2,37411.1 L-28984.9,37399.5 L-29063.3,37395.7 L-29141.7,37399.5 L-29219.4,37411.1 L-29295.5,37430.1 L-29369.5,37456.6 L-29440.4,37490.2 L-29507.8,37530.5 L-29570.8,37577.3 L-29629,37630 L-29681.7,37688.2 L-29728.5,37751.2 L-29768.9,37818.6 L-29802.4,37889.5 L-29828.9,37963.5 L-29848,38039.6 L-29859.5,38117.3 L-29863.3,38195.7 L-29859.5,38274.1 L-29848,38351.8 L-29828.9,38427.9 L-29802.4,38501.8 L-29768.9,38572.8 L-29728.5,38640.1 L-29681.7,38703.2 L-29629,38761.4 L-29570.8,38814.1 L-29507.8,38860.9 L-29440.4,38901.2 L-29369.5,38934.8 L-29295.5,38961.2 L-29219.4,38980.3 L-29141.7,38991.8 L-29063.3,38995.7 L-28984.9,38991.8 L-28907.2,38980.3 L-28831.1,38961.2 L-28757.2,38934.8 L-28686.2,38901.2 L-28618.9,38860.9 L-28555.8,38814.1 L-28497.6,38761.4 L-28444.9,38703.2 L-28398.1,38640.1 L-28357.8,38572.8 L-28324.2,38501.8 L-28297.8,38427.9 L-28278.7,38351.8 L-28267.2,38274.1 L-28263.3,38195.7"/>
</g>

<g fill="none" stroke="#000000" stroke-opacity="1" stroke-width="1" stroke-linecap="square" stroke-linejoin="bevel" transform="matrix(0.999988,0,0,-0.999988,29863.5,38997.1)"
font-family="MS Shell Dlg 2" font-size="10.3125" font-weight="400" font-style="normal" 
>
</g>

<g fill="none" stroke="#000000" stroke-opacity="1" stroke-width="1" stroke-linecap="square" stroke-linejoin="bevel" transform="matrix(0.999988,0,0,-0.999988,29863.5,38997.1)"
font-family="MS Shell Dlg 2" font-size="10.3125" font-weight="400" font-style="normal" 
>
</g>

<g fill="#ffff00" fill-opacity="0.500008" stroke="#333333" stroke-opacity="1" stroke-width="1" stroke-linecap="round" stroke-linejoin="round" transform="matrix(0.999988,0,0,-0.999988,29863.5,38997.1)"
font-family="MS Shell Dlg 2" font-size="10.3125" font-weight="400" font-style="normal" 
>
<path vector-effect="non-scaling-stroke" fill-rule="evenodd" d="M51736.7,38195.7 L51732.8,38117.3 L51721.3,38039.6 L51702.2,37963.5 L51675.8,37889.5 L51642.2,37818.6 L51601.9,37751.2 L51555.1,37688.2 L51502.4,37630 L51444.2,37577.3 L51381.1,37530.5 L51313.8,37490.2 L51242.8,37456.6 L51168.9,37430.1 L51092.8,37411.1 L51015.1,37399.5 L50936.7,37395.7 L50858.3,37399.5 L50780.6,37411.1 L50704.5,37430.1 L50630.5,37456.6 L50559.6,37490.2 L50492.2,37530.5 L50429.2,37577.3 L50371,37630 L50318.3,37688.2 L50271.5,37751.2 L50231.1,37818.6 L50197.6,37889.5 L50171.1,37963.5 L50152,38039.6 L50140.5,38117.3 L50136.7,38195.7 L50140.5,38274.1 L50152,38351.8 L50171.1,38427.9 L50197.6,38501.8 L50231.1,38572.8 L50271.5,38640.1 L50318.3,38703.2 L50371,38761.4 L50429.2,38814.1 L50492.2,38860.9 L50559.6,38901.2 L50630.5,38934.8 L50704.5,38961.2 L50780.6,38980.3 L50858.3,38991.8 L50936.7,38995.7 L51015.1,38991.8 L51092.8,38980.3 L51168.9,38961.2 L51242.8,38934.8 L51313.8,38901.2 L51381.1,38860.9 L51444.2,38814.1 L51502.4,38761.4 L51555.1,38703.2 L51601.9,38640.1 L51642.2,38572.8 L51675.8,38501.8 L51702.2,38427.9 L51721.3,38351.8 L51732.8,38274.1 L51736.7,38195.7"/>
</g>

<g fill="none" stroke="#000000" stroke-opacity="1" stroke-width="1" stroke-linecap="square" stroke-linejoin="bevel" transform="matrix(0.999988,0,0,-0.999988,29863.5,38997.1)"
font-family="MS Shell Dlg 2" font-size="10.3125" font-weight="400" font-style="normal" 
>
</g>

<g fill="none" stroke="#000000" stroke-opacity="1" stroke-width="1" stroke-linecap="square" stroke-linejoin="bevel" transform="matrix(0.999988,0,0,-0.999988,29863.5,38997.1)"
font-family="MS Shell Dlg 2" font-size="10.3125" font-weight="400" font-style="normal" 
>
</g>

<g fill="#ae5151" fill-opacity="0.500008" stroke="#333333" stroke-opacity="1" stroke-width="1" stroke-linecap="round" stroke-linejoin="round" transform="matrix(0.999988,0,0,-0.999988,29863.5,38997.1)"
font-family="MS Shell Dlg 2" font-size="10.3125" font-weight="400" font-style="normal" 
>
<path vector-effect="non-scaling-stroke" fill-rule="evenodd" d="M-28263.3,-71804.3 L-28267.2,-71882.7 L-28278.7,-71960.4 L-28297.8,-72036.5 L-28324.2,-72110.5 L-28357.8,-72181.4 L-28398.1,-72248.8 L-28444.9,-72311.8 L-28497.6,-72370 L-28555.8,-72422.7 L-28618.9,-72469.5 L-28686.2,-72509.8 L-28757.2,-72543.4 L-28831.1,-72569.9 L-28907.2,-72588.9 L-28984.9,-72600.5 L-29063.3,-72604.3 L-29141.7,-72600.5 L-29219.4,-72588.9 L-29295.5,-72569.9 L-29369.5,-72543.4 L-29440.4,-72509.8 L-29507.8,-72469.5 L-29570.8,-72422.7 L-29629,-72370 L-29681.7,-72311.8 L-29728.5,-72248.8 L-29768.9,-72181.4 L-29802.4,-72110.5 L-29828.9,-72036.5 L-29848,-71960.4 L-29859.5,-71882.7 L-29863.3,-71804.3 L-29859.5,-71725.9 L-29848,-71648.2 L-29828.9,-71572.1 L-29802.4,-71498.2 L-29768.9,-71427.2 L-29728.5,-71359.9 L-29681.7,-71296.8 L-29629,-71238.6 L-29570.8,-71185.9 L-29507.8,-71139.1 L-29440.4,-71098.8 L-29369.5,-71065.2 L-29295.5,-71038.8 L-29219.4,-71019.7 L-29141.7,-71008.2 L-29063.3,-71004.3 L-28984.9,-71008.2 L-28907.2,-71019.7 L-28831.1,-71038.8 L-28757.2,-71065.2 L-28686.2,-71098.8 L-28618.9,-71139.1 L-28555.8,-71185.9 L-28497.6,-71238.6 L-28444.9,-71296.8 L-28398.1,-71359.9 L-28357.8,-71427.2 L-28324.2,-71498.2 L-28297.8,-71572.1 L-28278.7,-71648.2 L-28267.2,-71725.9 L-28263.3,-71804.3"/>
</g>

<g fill="none" stroke="#000000" stroke-opacity="1" stroke-width="1" stroke-linecap="square" stroke-linejoin="bevel" transform="matrix(0.999988,0,0,-0.999988,29863.5,38997.1)"
font-family="MS Shell Dlg 2" font-size="10.3125" font-weight="400" font-style="normal" 
>
</g>

<g fill="none" stroke="#000000" stroke-opacity="1" stroke-width="1" stroke-linecap="square" stroke-linejoin="bevel" transform="matrix(0.999988,0,0,-0.999988,29863.5,38997.1)"
font-family="MS Shell Dlg 2" font-size="10.3125" font-weight="400" font-style="normal" 
>
</g>

<g fill="#ae5151" fill-opacity="0.500008" stroke="#333333" stroke-opacity="1" stroke-width="1" stroke-linecap="round" stroke-linejoin="round" transform="matrix(0.999988,0,0,-0.999988,29863.5,38997.1)"
font-family="MS Shell Dlg 2" font-size="10.3125" font-weight="400" font-style="normal" 
>
<path vector-effect="non-scaling-stroke" fill-rule="evenodd" d="M51736.7,-71804.3 L51732.8,-71882.7 L51721.3,-71960.4 L51702.2,-72036.5 L51675.8,-72110.5 L51642.2,-72181.4 L51601.9,-72248.8 L51555.1,-72311.8 L51502.4,-72370 L51444.2,-72422.7 L51381.1,-72469.5 L51313.8,-72509.8 L51242.8,-72543.4 L51168.9,-72569.9 L51092.8,-72588.9 L51015.1,-72600.5 L50936.7,-72604.3 L50858.3,-72600.5 L50780.6,-72588.9 L50704.5,-72569.9 L50630.5,-72543.4 L50559.6,-72509.8 L50492.2,-72469.5 L50429.2,-72422.7 L50371,-72370 L50318.3,-72311.8 L50271.5,-72248.8 L50231.1,-72181.4 L50197.6,-72110.5 L50171.1,-72036.5 L50152,-71960.4 L50140.5,-71882.7 L50136.7,-71804.3 L50140.5,-71725.9 L50152,-71648.2 L50171.1,-71572.1 L50197.6,-71498.2 L50231.1,-71427.2 L50271.5,-71359.9 L50318.3,-71296.8 L50371,-71238.6 L50429.2,-71185.9 L50492.2,-71139.1 L50559.6,-71098.8 L50630.5,-71065.2 L50704.5,-71038.8 L50780.6,-71019.7 L50858.3,-71008.2 L50936.7,-71004.3 L51015.1,-71008.2 L51092.8,-71019.7 L51168.9,-71038.8 L51242.8,-71065.2 L51313.8,-71098.8 L51381.1,-71139.1 L51444.2,-71185.9 L51502.4,-71238.6 L51555.1,-71296.8 L51601.9,-71359.9 L51642.2,-71427.2 L51675.8,-71498.2 L51702.2,-71572.1 L51721.3,-71648.2 L51732.8,-71725.9 L51736.7,-71804.3"/>
</g>

<g fill="none" stroke="#000000" stroke-opacity="1" stroke-width="1" stroke-linecap="square" stroke-linejoin="bevel" transform="matrix(0.999988,0,0,-0.999988,29863.5,38997.1)"
font-family="MS Shell Dlg 2" font-size="10.3125" font-weight="400" font-style="normal" 
>
</g>

<g fill="none" stroke="#000000" stroke-opacity="1" stroke-width="1" stroke-linecap="square" stroke-linejoin="bevel" transform="matrix(0.999988,0,0,-0.999988,29863.5,38997.1)"
font-family="MS Shell Dlg 2" font-size="10.3125" font-weight="400" font-style="normal" 
>
</g>

<g fill="#ae5151" fill-opacity="0.500008" stroke="#333333" stroke-opacity="1" stroke-width="1" stroke-linecap="round" stroke-linejoin="round" transform="matrix(0.999988,0,0,-0.999988,29863.5,38997.1)"
font-family="MS Shell Dlg 2" font-size="10.3125" font-weight="400" font-style="normal" 
>
<path vector-effect="non-scaling-stroke" fill-rule="evenodd" d="M-28263.3,38195.7 L-28267.2,38117.3 L-28278.7,38039.6 L-28297.8,37963.5 L-28324.2,37889.5 L-28357.8,37818.6 L-28398.1,37751.2 L-28444.9,37688.2 L-28497.6,37630 L-28555.8,37577.3 L-28618.9,37530.5 L-28686.2,37490.2 L-28757.2,37456.6 L-28831.1,37430.1 L-28907.2,37411.1 L-28984.9,37399.5 L-29063.3,37395.7 L-29141.7,37399.5 L-29219.4,37411.1 L-29295.5,37430.1 L-29369.5,37456.6 L-29440.4,37490.2 L-29507.8,37530.5 L-29570.8,37577.3 L-29629,37630 L-29681.7,37688.2 L-29728.5,37751.2 L-29768.9,37818.6 L-29802.4,37889.5 L-29828.9,37963.5 L-29848,38039.6 L-29859.5,38117.3 L-29863.3,38195.7 L-29859.5,38274.1 L-29848,38351.8 L-29828.9,38427.9 L-29802.4,38501.8 L-29768.9,38572.8 L-29728.5,38640.1 L-29681.7,38703.2 L-29629,38761.4 L-29570.8,38814.1 L-29507.8,38860.9 L-29440.4,38901.2 L-29369.5,38934.8 L-29295.5,38961.2 L-29219.4,38980.3 L-29141.7,38991.8 L-29063.3,38995.7 L-28984.9,38991.8 L-28907.2,38980.3 L-28831.1,38961.2 L-28757.2,38934.8 L-28686.2,38901.2 L-28618.9,38860.9 L-28555.8,38814.1 L-28497.6,38761.4 L-28444.9,38703.2 L-28398.1,38640.1 L-28357.8,38572.8 L-28324.2,38501.8 L-28297.8,38427.9 L-28278.7,38351.8 L-28267.2,38274.1 L-28263.3,38195.7"/>
</g>

<g fill="none" stroke="#000000" stroke-opacity="1" stroke-width="1" stroke-linecap="square" stroke-linejoin="bevel" transform="matrix(0.999988,0,0,-0.999988,29863.5,38997.1)"
font-family="MS Shell Dlg 2" font-size="10.3125" font-weight="400" font-style="normal" 
>
</g>

<g fill="none" stroke="#000000" stroke-opacity="1" stroke-width="1" stroke-linecap="square" stroke-linejoin="bevel" transform="matrix(0.999988,0,0,-0.999988,29863.5,38997.1)"
font-family="MS Shell Dlg 2" font-size="10.3125" font-weight="400" font-style="normal" 
>
</g>

<g fill="#ae5151" fill-opacity="0.500008" stroke="#333333" stroke-opacity="1" stroke-width="1" stroke-linecap="round" stroke-linejoin="round" transform="matrix(0.999988,0,0,-0.999988,29863.5,38997.1)"
font-family="MS Shell Dlg 2" font-size="10.3125" font-weight="400" font-style="normal" 
>
<path vector-effect="non-scaling-stroke" fill-rule="evenodd" d="M51736.7,38195.7 L51732.8,38117.3 L51721.3,38039.6 L51702.2,37963.5 L51675.8,37889.5 L51642.2,37818.6 L51601.9,37751.2 L51555.1,37688.2 L51502.4,37630 L51444.2,37577.3 L51381.1,37530.5 L51313.8,37490.2 L51242.8,37456.6 L51168.9,37430.1 L51092.8,37411.1 L51015.1,37399.5 L50936.7,37395.7 L50858.3,37399.5 L50780.6,37411.1 L50704.5,37430.1 L50630.5,37456.6 L50559.6,37490.2 L50492.2,37530.5 L50429.2,37577.3 L50371,37630 L50318.3,37688.2 L50271.5,37751.2 L50231.1,37818.6 L50197.6,37889.5 L50171.1,37963.5 L50152,38039.6 L50140.5,38117.3 L50136.7,38195.7 L50140.5,38274.1 L50152,38351.8 L50171.1,38427.9 L50197.6,38501.8 L50231.1,38572.8 L50271.5,38640.1 L50318.3,38703.2 L50371,38761.4 L50429.2,38814.1 L50492.2,38860.9 L50559.6,38901.2 L50630.5,38934.8 L50704.5,38961.2 L50780.6,38980.3 L50858.3,38991.8 L50936.7,38995.7 L51015.1,38991.8 L51092.8,38980.3 L51168.9,38961.2 L51242.8,38934.8 L51313.8,38901.2 L51381.1,38860.9 L51444.2,38814.1 L51502.4,38761.4 L51555.1,38703.2 L51601.9,38640.1 L51642.2,38572.8 L51675.8,38501.8 L51702.2,38427.9 L51721.3,38351.8 L51732.8,38274.1 L51736.7,38195.7"/>
</g>

<g fill="none" stroke="#000000" stroke-opacity="1" stroke-width="1" stroke-linecap="square" stroke-linejoin="bevel" transform="matrix(0.999988,0,0,-0.999988,29863.5,38997.1)"
font-family="MS Shell Dlg 2" font-size="10.3125" font-weight="400" font-style="normal" 
>
</g>

<g fill="none" stroke="#000000" stroke-opacity="1" stroke-width="1" stroke-linecap="square" stroke-linejoin="bevel" transform="matrix(0.999988,0,0,-0.999988,29863.5,38997.1)"
font-family="MS Shell Dlg 2" font-size="10.3125" font-weight="400" font-style="normal" 
>
</g>

<g fill="#333333" fill-opacity="0.500008" stroke="#333333" stroke-opacity="1" stroke-width="1" stroke-linecap="round" stroke-linejoin="round" transform="matrix(0.999988,0,0,-0.999988,29863.5,38997.1)"
font-family="MS Shell Dlg 2" font-size="10.3125" font-weight="400" font-style="normal" 
>
<path vector-effect="non-scaling-stroke" fill-rule="evenodd" d="M-28263.3,-71804.3 L-28267.2,-71882.7 L-28278.7,-71960.4 L-28297.8,-72036.5 L-28324.2,-72110.5 L-28357.8,-72181.4 L-28398.1,-72248.8 L-28444.9,-72311.8 L-28497.6,-72370 L-28555.8,-72422.7 L-28618.9,-72469.5 L-28686.2,-72509.8 L-28757.2,-72543.4 L-28831.1,-72569.9 L-28907.2,-72588.9 L-28984.9,-72600.5 L-29063.3,-72604.3 L-29141.7,-72600.5 L-29219.4,-72588.9 L-29295.5,-72569.9 L-29369.5,-72543.4 L-29440.4,-72509.8 L-29507.8,-72469.5 L-29570.8,-72422.7 L-29629,-72370 L-29681.7,-72311.8 L-29728.5,-72248.8 L-29768.9,-72181.4 L-29802.4,-72110.5 L-29828.9,-72036.5 L-29848,-71960.4 L-29859.5,-71882.7 L-29863.3,-71804.3 L-29859.5,-71725.9 L-29848,-71648.2 L-29828.9,-71572.1 L-29802.4,-71498.2 L-29768.9,-71427.2 L-29728.5,-71359.9 L-29681.7,-71296.8 L-29629,-71238.6 L-29570.8,-71185.9 L-29507.8,-71139.1 L-29440.4,-71098.8 L-29369.5,-71065.2 L-29295.5,-71038.8 L-29219.4,-71019.7 L-29141.7,-71008.2 L-29063.3,-71004.3 L-28984.9,-71008.2 L-28907.2,-71019.7 L-28831.1,-71038.8 L-28757.2,-71065.2 L-28686.2,-71098.8 L-28618.9,-71139.1 L-28555.8,-71185.9 L-28497.6,-71238.6 L-28444.9,-71296.8 L-28398.1,-71359.9 L-28357.8,-71427.2 L-28324.2,-71498.2 L-28297.8,-71572.1 L-28278.7,-71648.2 L-28267.2,-71725.9 L-28263.3,-71804.3"/>
</g>

<g fill="none" stroke="#000000" stroke-opacity="1" stroke-width="1" stroke-linecap="square" stroke-linejoin="bevel" transform="matrix(0.999988,0,0,-0.999988,29863.5,38997.1)"
font-family="MS Shell Dlg 2" font-size="10.3125" font-weight="400" font-style="normal" 
>
</g>

<g fill="none" stroke="#000000" stroke-opacity="1" stroke-width="1" stroke-linecap="square" stroke-linejoin="bevel" transform="matrix(0.999988,0,0,-0.999988,29863.5,38997.1)"
font-family="MS Shell Dlg 2" font-size="10.3125" font-weight="400" font-style="normal" 
>
</g>

<g fill="#333333" fill-opacity="0.500008" stroke="#333333" stroke-opacity="1" stroke-width="1" stroke-linecap="round" stroke-linejoin="round" transform="matrix(0.999988,0,0,-0.999988,29863.5,38997.1)"
font-family="MS Shell Dlg 2" font-size="10.3125" font-weight="400" font-style="normal" 
>
<path vector-effect="non-scaling-stroke" fill-rule="evenodd" d="M51736.7,-71804.3 L51732.8,-71882.7 L51721.3,-71960.4 L51702.2,-72036.5 L51675.8,-72110.5 L51642.2,-72181.4 L51601.9,-72248.8 L51555.1,-72311.8 L51502.4,-72370 L51444.2,-72422.7 L51381.1,-72469.5 L51313.8,-72509.8 L51242.8,-72543.4 L51168.9,-72569.9 L51092.8,-72588.9 L51015.1,-72600.5 L50936.7,-72604.3 L50858.3,-72600.5 L50780.6,-72588.9 L50704.5,-72569.9 L50630.5,-72543.4 L50559.6,-72509.8 L50492.2,-72469.5 L50429.2,-72422.7 L50371,-72370 L50318.3,-72311.8 L50271.5,-72248.8 L50231.1,-72181.4 L50197.6,-72110.5 L50171.1,-72036.5 L50152,-71960.4 L50140.5,-71882.7 L50136.7,-71804.3 L50140.5,-71725.9 L50152,-71648.2 L50171.1,-71572.1 L50197.6,-71498.2 L50231.1,-71427.2 L50271.5,-71359.9 L50318.3,-71296.8 L50371,-71238.6 L50429.2,-71185.9 L50492.2,-71139.1 L50559.6,-71098.8 L50630.5,-71065.2 L50704.5,-71038.8 L50780.6,-71019.7 L50858.3,-71008.2 L50936.7,-71004.3 L51015.1,-71008.2 L51092.8,-71019.7 L51168.9,-71038.8 L51242.8,-71065.2 L51313.8,-71098.8 L51381.1,-71139.1 L51444.2,-71185.9 L51502.4,-71238.6 L51555.1,-71296.8 L51601.9,-71359.9 L51642.2,-71427.2 L51675.8,-71498.2 L51702.2,-71572.1 L51721.3,-71648.2 L51732.8,-71725.9 L51736.7,-71804.3"/>
</g>

<g fill="none" stroke="#000000" stroke-opacity="1" stroke-width="1" stroke-linecap="square" stroke-linejoin="bevel" transform="matrix(0.999988,0,0,-0.999988,29863.5,38997.1)"
font-family="MS Shell Dlg 2" font-size="10.3125" font-weight="400" font-style="normal" 
>
</g>

<g fill="none" stroke="#000000" stroke-opacity="1" stroke-width="1" stroke-linecap="square" stroke-linejoin="bevel" transform="matrix(0.999988,0,0,-0.999988,29863.5,38997.1)"
font-family="MS Shell Dlg 2" font-size="10.3125" font-weight="400" font-style="normal" 
>
</g>

<g fill="#333333" fill-opacity="0.500008" stroke="#333333" stroke-opacity="1" stroke-width="1" stroke-linecap="round" stroke-linejoin="round" transform="matrix(0.999988,0,0,-0.999988,29863.5,38997.1)"
font-family="MS Shell Dlg 2" font-size="10.3125" font-weight="400" font-style="normal" 
>
<path vector-effect="non-scaling-stroke" fill-rule="evenodd" d="M-28263.3,38195.7 L-28267.2,38117.3 L-28278.7,38039.6 L-28297.8,37963.5 L-28324.2,37889.5 L-28357.8,37818.6 L-28398.1,37751.2 L-28444.9,37688.2 L-28497.6,37630 L-28555.8,37577.3 L-28618.9,37530.5 L-28686.2,37490.2 L-28757.2,37456.6 L-28831.1,37430.1 L-28907.2,37411.1 L-28984.9,37399.5 L-29063.3,37395.7 L-29141.7,37399.5 L-29219.4,37411.1 L-29295.5,37430.1 L-29369.5,37456.6 L-29440.4,37490.2 L-29507.8,37530.5 L-29570.8,37577.3 L-29629,37630 L-29681.7,37688.2 L-29728.5,37751.2 L-29768.9,37818.6 L-29802.4,37889.5 L-29828.9,37963.5 L-29848,38039.6 L-29859.5,38117.3 L-29863.3,38195.7 L-29859.5,38274.1 L-29848,38351.8 L-29828.9,38427.9 L-29802.4,38501.8 L-29768.9,38572.8 L-29728.5,38640.1 L-29681.7,38703.2 L-29629,38761.4 L-29570.8,38814.1 L-29507.8,38860.9 L-29440.4,38901.2 L-29369.5,38934.8 L-29295.5,38961.2 L-29219.4,38980.3 L-29141.7,38991.8 L-29063.3,38995.7 L-28984.9,38991.8 L-28907.2,38980.3 L-28831.1,38961.2 L-28757.2,38934.8 L-28686.2,38901.2 L-28618.9,38860.9 L-28555.8,38814.1 L-28497.6,38761.4 L-28444.9,38703.2 L-28398.1,38640.1 L-28357.8,38572.8 L-28324.2,38501.8 L-28297.8,38427.9 L-28278.7,38351.8 L-28267.2,38274.1 L-28263.3,38195.7"/>
</g>

<g fill="none" stroke="#000000" stroke-opacity="1" stroke-width="1" stroke-linecap="square" stroke-linejoin="bevel" transform="matrix(0.999988,0,0,-0.999988,29863.5,38997.1)"
font-family="MS Shell Dlg 2" font-size="10.3125" font-weight="400" font-style="normal" 
>
</g>

<g fill="none" stroke="#000000" stroke-opacity="1" stroke-width="1" stroke-linecap="square" stroke-linejoin="bevel" transform="matrix(0.999988,0,0,-0.999988,29863.5,38997.1)"
font-family="MS Shell Dlg 2" font-size="10.3125" font-weight="400" font-style="normal" 
>
</g>

<g fill="#333333" fill-opacity="0.500008" stroke="#333333" stroke-opacity="1" stroke-width="1" stroke-linecap="round" stroke-linejoin="round" transform="matrix(0.999988,0,0,-0.999988,29863.5,38997.1)"
font-family="MS Shell Dlg 2" font-size="10.3125" font-weight="400" font-style="normal" 
>
<path vector-effect="non-scaling-stroke" fill-rule="evenodd" d="M51736.7,38195.7 L51732.8,38117.3 L51721.3,38039.6 L51702.2,37963.5 L51675.8,37889.5 L51642.2,37818.6 L51601.9,37751.2 L51555.1,37688.2 L51502.4,37630 L51444.2,37577.3 L51381.1,37530.5 L51313.8,37490.2 L51242.8,37456.6 L51168.9,37430.1 L51092.8,37411.1 L51015.1,37399.5 L50936.7,37395.7 L50858.3,37399.5 L50780.6,37411.1 L50704.5,37430.1 L50630.5,37456.6 L50559.6,37490.2 L50492.2,37530.5 L50429.2,37577.3 L50371,37630 L50318.3,37688.2 L50271.5,37751.2 L50231.1,37818.6 L50197.6,37889.5 L50171.1,37963.5 L50152,38039.6 L50140.5,38117.3 L50136.7,38195.7 L50140.5,38274.1 L50152,38351.8 L50171.1,38427.9 L50197.6,38501.8 L50231.1,38572.8 L50271.5,38640.1 L50318.3,38703.2 L50371,38761.4 L50429.2,38814.1 L50492.2,38860.9 L50559.6,38901.2 L50630.5,38934.8 L50704.5,38961.2 L50780.6,38980.3 L50858.3,38991.8 L50936.7,38995.7 L51015.1,38991.8 L51092.8,38980.3 L51168.9,38961.2 L51242.8,38934.8 L51313.8,38901.2 L51381.1,38860.9 L51444.2,38814.1 L51502.4,38761.4 L51555.1,38703.2 L51601.9,38640.1 L51642.2,38572.8 L51675.8,38501.8 L51702.2,38427.9 L51721.3,38351.8 L51732.8,38274.1 L51736.7,38195.7"/>
</g>

<g fill="none" stroke="#000000" stroke-opacity="1" stroke-width="1" stroke-linecap="square" stroke-linejoin="bevel" transform="matrix(0.999988,0,0,-0.999988,29863.5,38997.1)"
font-family="MS Shell Dlg 2" font-size="10.3125" font-weight="400" font-style="normal" 
>
</g>

<g fill="none" stroke="#000000" stroke-opacity="1" stroke-width="1" stroke-linecap="square" stroke-linejoin="bevel" transform="matrix(0.999988,0,0,-0.999988,29863.5,38997.1)"
font-family="MS Shell Dlg 2" font-size="10.3125" font-weight="400" font-style="normal" 
>
</g>

<g fill="#ae5151" fill-opacity="0.500008" stroke="#333333" stroke-opacity="1" stroke-width="1" stroke-linecap="round" stroke-linejoin="round" transform="matrix(0.999988,0,0,-0.999988,29863.5,38997.1)"
font-family="MS Shell Dlg 2" font-size="10.3125" font-weight="400" font-style="normal" 
>
<path vector-effect="non-scaling-stroke" fill-rule="evenodd" d="M-28263.3,-71804.3 L-28267.2,-71882.7 L-28278.7,-71960.4 L-28297.8,-72036.5 L-28324.2,-72110.5 L-28357.8,-72181.4 L-28398.1,-72248.8 L-28444.9,-72311.8 L-28497.6,-72370 L-28555.8,-72422.7 L-28618.9,-72469.5 L-28686.2,-72509.8 L-28757.2,-72543.4 L-28831.1,-72569.9 L-28907.2,-72588.9 L-28984.9,-72600.5 L-29063.3,-72604.3 L-29141.7,-72600.5 L-29219.4,-72588.9 L-29295.5,-72569.9 L-29369.5,-72543.4 L-29440.4,-72509.8 L-29507.8,-72469.5 L-29570.8,-72422.7 L-29629,-72370 L-29681.7,-72311.8 L-29728.5,-72248.8 L-29768.9,-72181.4 L-29802.4,-72110.5 L-29828.9,-72036.5 L-29848,-71960.4 L-29859.5,-71882.7 L-29863.3,-71804.3 L-29859.5,-71725.9 L-29848,-71648.2 L-29828.9,-71572.1 L-29802.4,-71498.2 L-29768.9,-71427.2 L-29728.5,-71359.9 L-29681.7,-71296.8 L-29629,-71238.6 L-29570.8,-71185.9 L-29507.8,-71139.1 L-29440.4,-71098.8 L-29369.5,-71065.2 L-29295.5,-71038.8 L-29219.4,-71019.7 L-29141.7,-71008.2 L-29063.3,-71004.3 L-28984.9,-71008.2 L-28907.2,-71019.7 L-28831.1,-71038.8 L-28757.2,-71065.2 L-28686.2,-71098.8 L-28618.9,-71139.1 L-28555.8,-71185.9 L-28497.6,-71238.6 L-28444.9,-71296.8 L-28398.1,-71359.9 L-28357.8,-71427.2 L-28324.2,-71498.2 L-28297.8,-71572.1 L-28278.7,-71648.2 L-28267.2,-71725.9 L-28263.3,-71804.3"/>
</g>

<g fill="none" stroke="#000000" stroke-opacity="1" stroke-width="1" stroke-linecap="square" stroke-linejoin="bevel" transform="matrix(0.999988,0,0,-0.999988,29863.5,38997.1)"
font-family="MS Shell Dlg 2" font-size="10.3125" font-weight="400" font-style="normal" 
>
</g>

<g fill="none" stroke="#000000" stroke-opacity="1" stroke-width="1" stroke-linecap="square" stroke-linejoin="bevel" transform="matrix(0.999988,0,0,-0.999988,29863.5,38997.1)"
font-family="MS Shell Dlg 2" font-size="10.3125" font-weight="400" font-style="normal" 
>
</g>

<g fill="#ae5151" fill-opacity="0.500008" stroke="#333333" stroke-opacity="1" stroke-width="1" stroke-linecap="round" stroke-linejoin="round" transform="matrix(0.999988,0,0,-0.999988,29863.5,38997.1)"
font-family="MS Shell Dlg 2" font-size="10.3125" font-weight="400" font-style="normal" 
>
<path vector-effect="non-scaling-stroke" fill-rule="evenodd" d="M51736.7,-71804.3 L51732.8,-71882.7 L51721.3,-71960.4 L51702.2,-72036.5 L51675.8,-72110.5 L51642.2,-72181.4 L51601.9,-72248.8 L51555.1,-72311.8 L51502.4,-72370 L51444.2,-72422.7 L51381.1,-72469.5 L51313.8,-72509.8 L51242.8,-72543.4 L51168.9,-72569.9 L51092.8,-72588.9 L51015.1,-72600.5 L50936.7,-72604.3 L50858.3,-72600.5 L50780.6,-72588.9 L50704.5,-72569.9 L50630.5,-72543.4 L50559.6,-72509.8 L50492.2,-72469.5 L50429.2,-72422.7 L50371,-72370 L50318.3,-72311.8 L50271.5,-72248.8 L50231.1,-72181.4 L50197.6,-72110.5 L50171.1,-72036.5 L50152,-71960.4 L50140.5,-71882.7 L50136.7,-71804.3 L50140.5,-71725.9 L50152,-71648.2 L50171.1,-71572.1 L50197.6,-71498.2 L50231.1,-71427.2 L50271.5,-71359.9 L50318.3,-71296.8 L50371,-71238.6 L50429.2,-71185.9 L50492.2,-71139.1 L50559.6,-71098.8 L50630.5,-71065.2 L50704.5,-71038.8 L50780.6,-71019.7 L50858.3,-71008.2 L50936.7,-71004.3 L51015.1,-71008.2 L51092.8,-71019.7 L51168.9,-71038.8 L51242.8,-71065.2 L51313.8,-71098.8 L51381.1,-71139.1 L51444.2,-71185.9 L51502.4,-71238.6 L51555.1,-71296.8 L51601.9,-71359.9 L51642.2,-71427.2 L51675.8,-71498.2 L51702.2,-71572.1 L51721.3,-71648.2 L51732.8,-71725.9 L51736.7,-71804.3"/>
</g>

<g fill="none" stroke="#000000" stroke-opacity="1" stroke-width="1" stroke-linecap="square" stroke-linejoin="bevel" transform="matrix(0.999988,0,0,-0.999988,29863.5,38997.1)"
font-family="MS Shell Dlg 2" font-size="10.3125" font-weight="400" font-style="normal" 
>
</g>

<g fill="none" stroke="#000000" stroke-opacity="1" stroke-width="1" stroke-linecap="square" stroke-linejoin="bevel" transform="matrix(0.999988,0,0,-0.999988,29863.5,38997.1)"
font-family="MS Shell Dlg 2" font-size="10.3125" font-weight="400" font-style="normal" 
>
</g>

<g fill="#ae5151" fill-opacity="0.500008" stroke="#333333" stroke-opacity="1" stroke-width="1" stroke-linecap="round" stroke-linejoin="round" transform="matrix(0.999988,0,0,-0.999988,29863.5,38997.1)"
font-family="MS Shell Dlg 2" font-size="10.3125" font-weight="400" font-style="normal" 
>
<path vector-effect="non-scaling-stroke" fill-rule="evenodd" d="M-28263.3,38195.7 L-28267.2,38117.3 L-28278.7,38039.6 L-28297.8,37963.5 L-28324.2,37889.5 L-28357.8,37818.6 L-28398.1,37751.2 L-28444.9,37688.2 L-28497.6,37630 L-28555.8,37577.3 L-28618.9,37530.5 L-28686.2,37490.2 L-28757.2,37456.6 L-28831.1,37430.1 L-28907.2,37411.1 L-28984.9,37399.5 L-29063.3,37395.7 L-29141.7,37399.5 L-29219.4,37411.1 L-29295.5,37430.1 L-29369.5,37456.6 L-29440.4,37490.2 L-29507.8,37530.5 L-29570.8,37577.3 L-29629,37630 L-29681.7,37688.2 L-29728.5,37751.2 L-29768.9,37818.6 L-29802.4,37889.5 L-29828.9,37963.5 L-29848,38039.6 L-29859.5,38117.3 L-29863.3,38195.7 L-29859.5,38274.1 L-29848,38351.8 L-29828.9,38427.9 L-29802.4,38501.8 L-29768.9,38572.8 L-29728.5,38640.1 L-29681.7,38703.2 L-29629,38761.4 L-29570.8,38814.1 L-29507.8,38860.9 L-29440.4,38901.2 L-29369.5,38934.8 L-29295.5,38961.2 L-29219.4,38980.3 L-29141.7,38991.8 L-29063.3,38995.7 L-28984.9,38991.8 L-28907.2,38980.3 L-28831.1,38961.2 L-28757.2,38934.8 L-28686.2,38901.2 L-28618.9,38860.9 L-28555.8,38814.1 L-28497.6,38761.4 L-28444.9,38703.2 L-28398.1,38640.1 L-28357.8,38572.8 L-28324.2,38501.8 L-28297.8,38427.9 L-28278.7,38351.8 L-28267.2,38274.1 L-28263.3,38195.7"/>
</g>

<g fill="none" stroke="#000000" stroke-opacity="1" stroke-width="1" stroke-linecap="square" stroke-linejoin="bevel" transform="matrix(0.999988,0,0,-0.999988,29863.5,38997.1)"
font-family="MS Shell Dlg 2" font-size="10.3125" font-weight="400" font-style="normal" 
>
</g>

<g fill="none" stroke="#000000" stroke-opacity="1" stroke-width="1" stroke-linecap="square" stroke-linejoin="bevel" transform="matrix(0.999988,0,0,-0.999988,29863.5,38997.1)"
font-family="MS Shell Dlg 2" font-size="10.3125" font-weight="400" font-style="normal" 
>
</g>

<g fill="#ae5151" fill-opacity="0.500008" stroke="#333333" stroke-opacity="1" stroke-width="1" stroke-linecap="round" stroke-linejoin="round" transform="matrix(0.999988,0,0,-0.999988,29863.5,38997.1)"
font-family="MS Shell Dlg 2" font-size="10.3125" font-weight="400" font-style="normal" 
>
<path vector-effect="non-scaling-stroke" fill-rule="evenodd" d="M51736.7,38195.7 L51732.8,38117.3 L51721.3,38039.6 L51702.2,37963.5 L51675.8,37889.5 L51642.2,37818.6 L51601.9,37751.2 L51555.1,37688.2 L51502.4,37630 L51444.2,37577.3 L51381.1,37530.5 L51313.8,37490.2 L51242.8,37456.6 L51168.9,37430.1 L51092.8,37411.1 L51015.1,37399.5 L50936.7,37395.7 L50858.3,37399.5 L50780.6,37411.1 L50704.5,37430.1 L50630.5,37456.6 L50559.6,37490.2 L50492.2,37530.5 L50429.2,37577.3 L50371,37630 L50318.3,37688.2 L50271.5,37751.2 L50231.1,37818.6 L50197.6,37889.5 L50171.1,37963.5 L50152,38039.6 L50140.5,38117.3 L50136.7,38195.7 L50140.5,38274.1 L50152,38351.8 L50171.1,38427.9 L50197.6,38501.8 L50231.1,38572.8 L50271.5,38640.1 L50318.3,38703.2 L50371,38761.4 L50429.2,38814.1 L50492.2,38860.9 L50559.6,38901.2 L50630.5,38934.8 L50704.5,38961.2 L50780.6,38980.3 L50858.3,38991.8 L50936.7,38995.7 L51015.1,38991.8 L51092.8,38980.3 L51168.9,38961.2 L51242.8,38934.8 L51313.8,38901.2 L51381.1,38860.9 L51444.2,38814.1 L51502.4,38761.4 L51555.1,38703.2 L51601.9,38640.1 L51642.2,38572.8 L51675.8,38501.8 L51702.2,38427.9 L51721.3,38351.8 L51732.8,38274.1 L51736.7,38195.7"/>
</g>

<g fill="none" stroke="#000000" stroke-opacity="1" stroke-width="1" stroke-linecap="square" stroke-linejoin="bevel" transform="matrix(0.999988,0,0,-0.999988,29863.5,38997.1)"
font-family="MS Shell Dlg 2" font-size="10.3125" font-weight="400" font-style="normal" 
>
</g>

<g fill="none" stroke="#000000" stroke-opacity="1" stroke-width="1" stroke-linecap="square" stroke-linejoin="bevel" transform="matrix(0.999988,0,0,-0.999988,29863.5,38997.1)"
font-family="MS Shell Dlg 2" font-size="10.3125" font-weight="400" font-style="normal" 
>
</g>

<g fill="#333333" fill-opacity="0.500008" stroke="#333333" stroke-opacity="1" stroke-width="1" stroke-linecap="round" stroke-linejoin="round" transform="matrix(0.999988,0,0,-0.999988,29863.5,38997.1)"
font-family="MS Shell Dlg 2" font-size="10.3125" font-weight="400" font-style="normal" 
>
<path vector-effect="non-scaling-stroke" fill-rule="evenodd" d="M-28263.3,-71804.3 L-28267.2,-71882.7 L-28278.7,-71960.4 L-28297.8,-72036.5 L-28324.2,-72110.5 L-28357.8,-72181.4 L-28398.1,-72248.8 L-28444.9,-72311.8 L-28497.6,-72370 L-28555.8,-72422.7 L-28618.9,-72469.5 L-28686.2,-72509.8 L-28757.2,-72543.4 L-28831.1,-72569.9 L-28907.2,-72588.9 L-28984.9,-72600.5 L-29063.3,-72604.3 L-29141.7,-72600.5 L-29219.4,-72588.9 L-29295.5,-72569.9 L-29369.5,-72543.4 L-29440.4,-72509.8 L-29507.8,-72469.5 L-29570.8,-72422.7 L-29629,-72370 L-29681.7,-72311.8 L-29728.5,-72248.8 L-29768.9,-72181.4 L-29802.4,-72110.5 L-29828.9,-72036.5 L-29848,-71960.4 L-29859.5,-71882.7 L-29863.3,-71804.3 L-29859.5,-71725.9 L-29848,-71648.2 L-29828.9,-71572.1 L-29802.4,-71498.2 L-29768.9,-71427.2 L-29728.5,-71359.9 L-29681.7,-71296.8 L-29629,-71238.6 L-29570.8,-71185.9 L-29507.8,-71139.1 L-29440.4,-71098.8 L-29369.5,-71065.2 L-29295.5,-71038.8 L-29219.4,-71019.7 L-29141.7,-71008.2 L-29063.3,-71004.3 L-28984.9,-71008.2 L-28907.2,-71019.7 L-28831.1,-71038.8 L-28757.2,-71065.2 L-28686.2,-71098.8 L-28618.9,-71139.1 L-28555.8,-71185.9 L-28497.6,-71238.6 L-28444.9,-71296.8 L-28398.1,-71359.9 L-28357.8,-71427.2 L-28324.2,-71498.2 L-28297.8,-71572.1 L-28278.7,-71648.2 L-28267.2,-71725.9 L-28263.3,-71804.3"/>
</g>

<g fill="none" stroke="#000000" stroke-opacity="1" stroke-width="1" stroke-linecap="square" stroke-linejoin="bevel" transform="matrix(0.999988,0,0,-0.999988,29863.5,38997.1)"
font-family="MS Shell Dlg 2" font-size="10.3125" font-weight="400" font-style="normal" 
>
</g>

<g fill="none" stroke="#000000" stroke-opacity="1" stroke-width="1" stroke-linecap="square" stroke-linejoin="bevel" transform="matrix(0.999988,0,0,-0.999988,29863.5,38997.1)"
font-family="MS Shell Dlg 2" font-size="10.3125" font-weight="400" font-style="normal" 
>
</g>

<g fill="#333333" fill-opacity="0.500008" stroke="#333333" stroke-opacity="1" stroke-width="1" stroke-linecap="round" stroke-linejoin="round" transform="matrix(0.999988,0,0,-0.999988,29863.5,38997.1)"
font-family="MS Shell Dlg 2" font-size="10.3125" font-weight="400" font-style="normal" 
>
<path vector-effect="non-scaling-stroke" fill-rule="evenodd" d="M51736.7,-71804.3 L51732.8,-71882.7 L51721.3,-71960.4 L51702.2,-72036.5 L51675.8,-72110.5 L51642.2,-72181.4 L51601.9,-72248.8 L51555.1,-72311.8 L51502.4,-72370 L51444.2,-72422.7 L51381.1,-72469.5 L51313.8,-72509.8 L51242.8,-72543.4 L51168.9,-72569.9 L51092.8,-72588.9 L51015.1,-72600.5 L50936.7,-72604.3 L50858.3,-72600.5 L50780.6,-72588.9 L50704.5,-72569.9 L50630.5,-72543.4 L50559.6,-72509.8 L50492.2,-72469.5 L50429.2,-72422.7 L50371,-72370 L50318.3,-72311.8 L50271.5,-72248.8 L50231.1,-72181.4 L50197.6,-72110.5 L50171.1,-72036.5 L50152,-71960.4 L50140.5,-71882.7 L50136.7,-71804.3 L50140.5,-71725.9 L50152,-71648.2 L50171.1,-71572.1 L50197.6,-71498.2 L50231.1,-71427.2 L50271.5,-71359.9 L50318.3,-71296.8 L50371,-71238.6 L50429.2,-71185.9 L50492.2,-71139.1 L50559.6,-71098.8 L50630.5,-71065.2 L50704.5,-71038.8 L50780.6,-71019.7 L50858.3,-71008.2 L50936.7,-71004.3 L51015.1,-71008.2 L51092.8,-71019.7 L51168.9,-71038.8 L51242.8,-71065.2 L51313.8,-71098.8 L51381.1,-71139.1 L51444.2,-71185.9 L51502.4,-71238.6 L51555.1,-71296.8 L51601.9,-71359.9 L51642.2,-71427.2 L51675.8,-71498.2 L51702.2,-71572.1 L51721.3,-71648.2 L51732.8,-71725.9 L51736.7,-71804.3"/>
</g>

<g fill="none" stroke="#000000" stroke-opacity="1" stroke-width="1" stroke-linecap="square" stroke-linejoin="bevel" transform="matrix(0.999988,0,0,-0.999988,29863.5,38997.1)"
font-family="MS Shell Dlg 2" font-size="10.3125" font-weight="400" font-style="normal" 
>
</g>

<g fill="none" stroke="#000000" stroke-opacity="1" stroke-width="1" stroke-linecap="square" stroke-linejoin="bevel" transform="matrix(0.999988,0,0,-0.999988,29863.5,38997.1)"
font-family="MS Shell Dlg 2" font-size="10.3125" font-weight="400" font-style="normal" 
>
</g>

<g fill="#333333" fill-opacity="0.500008" stroke="#333333" stroke-opacity="1" stroke-width="1" stroke-linecap="round" stroke-linejoin="round" transform="matrix(0.999988,0,0,-0.999988,29863.5,38997.1)"
font-family="MS Shell Dlg 2" font-size="10.3125" font-weight="400" font-style="normal" 
>
<path vector-effect="non-scaling-stroke" fill-rule="evenodd" d="M-28263.3,38195.7 L-28267.2,38117.3 L-28278.7,38039.6 L-28297.8,37963.5 L-28324.2,37889.5 L-28357.8,37818.6 L-28398.1,37751.2 L-28444.9,37688.2 L-28497.6,37630 L-28555.8,37577.3 L-28618.9,37530.5 L-28686.2,37490.2 L-28757.2,37456.6 L-28831.1,37430.1 L-28907.2,37411.1 L-28984.9,37399.5 L-29063.3,37395.7 L-29141.7,37399.5 L-29219.4,37411.1 L-29295.5,37430.1 L-29369.5,37456.6 L-29440.4,37490.2 L-29507.8,37530.5 L-29570.8,37577.3 L-29629,37630 L-29681.7,37688.2 L-29728.5,37751.2 L-29768.9,37818.6 L-29802.4,37889.5 L-29828.9,37963.5 L-29848,38039.6 L-29859.5,38117.3 L-29863.3,38195.7 L-29859.5,38274.1 L-29848,38351.8 L-29828.9,38427.9 L-29802.4,38501.8 L-29768.9,38572.8 L-29728.5,38640.1 L-29681.7,38703.2 L-29629,38761.4 L-29570.8,38814.1 L-29507.8,38860.9 L-29440.4,38901.2 L-29369.5,38934.8 L-29295.5,38961.2 L-29219.4,38980.3 L-29141.7,38991.8 L-29063.3,38995.7 L-28984.9,38991.8 L-28907.2,38980.3 L-28831.1,38961.2 L-28757.2,38934.8 L-28686.2,38901.2 L-28618.9,38860.9 L-28555.8,38814.1 L-28497.6,38761.4 L-28444.9,38703.2 L-28398.1,38640.1 L-28357.8,38572.8 L-28324.2,38501.8 L-28297.8,38427.9 L-28278.7,38351.8 L-28267.2,38274.1 L-28263.3,38195.7"/>
</g>

<g fill="none" stroke="#000000" stroke-opacity="1" stroke-width="1" stroke-linecap="square" stroke-linejoin="bevel" transform="matrix(0.999988,0,0,-0.999988,29863.5,38997.1)"
font-family="MS Shell Dlg 2" font-size="10.3125" font-weight="400" font-style="normal" 
>
</g>

<g fill="none" stroke="#000000" stroke-opacity="1" stroke-width="1" stroke-linecap="square" stroke-linejoin="bevel" transform="matrix(0.999988,0,0,-0.999988,29863.5,38997.1)"
font-family="MS Shell Dlg 2" font-size="10.3125" font-weight="400" font-style="normal" 
>
</g>

<g fill="#333333" fill-opacity="0.500008" stroke="#333333" stroke-opacity="1" stroke-width="1" stroke-linecap="round" stroke-linejoin="round" transform="matrix(0.999988,0,0,-0.999988,29863.5,38997.1)"
font-family="MS Shell Dlg 2" font-size="10.3125" font-weight="400" font-style="normal" 
>
<path vector-effect="non-scaling-stroke" fill-rule="evenodd" d="M51736.7,38195.7 L51732.8,38117.3 L51721.3,38039.6 L51702.2,37963.5 L51675.8,37889.5 L51642.2,37818.6 L51601.9,37751.2 L51555.1,37688.2 L51502.4,37630 L51444.2,37577.3 L51381.1,37530.5 L51313.8,37490.2 L51242.8,37456.6 L51168.9,37430.1 L51092.8,37411.1 L51015.1,37399.5 L50936.7,37395.7 L50858.3,37399.5 L50780.6,37411.1 L50704.5,37430.1 L50630.5,37456.6 L50559.6,37490.2 L50492.2,37530.5 L50429.2,37577.3 L50371,37630 L50318.3,37688.2 L50271.5,37751.2 L50231.1,37818.6 L50197.6,37889.5 L50171.1,37963.5 L50152,38039.6 L50140.5,38117.3 L50136.7,38195.7 L50140.5,38274.1 L50152,38351.8 L50171.1,38427.9 L50197.6,38501.8 L50231.1,38572.8 L50271.5,38640.1 L50318.3,38703.2 L50371,38761.4 L50429.2,38814.1 L50492.2,38860.9 L50559.6,38901.2 L50630.5,38934.8 L50704.5,38961.2 L50780.6,38980.3 L50858.3,38991.8 L50936.7,38995.7 L51015.1,38991.8 L51092.8,38980.3 L51168.9,38961.2 L51242.8,38934.8 L51313.8,38901.2 L51381.1,38860.9 L51444.2,38814.1 L51502.4,38761.4 L51555.1,38703.2 L51601.9,38640.1 L51642.2,38572.8 L51675.8,38501.8 L51702.2,38427.9 L51721.3,38351.8 L51732.8,38274.1 L51736.7,38195.7"/>
</g>

<g fill="none" stroke="#000000" stroke-opacity="1" stroke-width="1" stroke-linecap="square" stroke-linejoin="bevel" transform="matrix(0.999988,0,0,-0.999988,29863.5,38997.1)"
font-family="MS Shell Dlg 2" font-size="10.3125" font-weight="400" font-style="normal" 
>
</g>

<g fill="none" stroke="#000000" stroke-opacity="1" stroke-width="1" stroke-linecap="square" stroke-linejoin="bevel" transform="matrix(0.999988,0,0,-0.999988,29863.5,38997.1)"
font-family="MS Shell Dlg 2" font-size="10.3125" font-weight="400" font-style="normal" 
>
</g>

<g fill="#ae5151" fill-opacity="0.500008" stroke="#333333" stroke-opacity="1" stroke-width="1" stroke-linecap="round" stroke-linejoin="round" transform="matrix(0.999988,0,0,-0.999988,29863.5,38997.1)"
font-family="MS Shell Dlg 2" font-size="10.3125" font-weight="400" font-style="normal" 
>
<path vector-effect="non-scaling-stroke" fill-rule="evenodd" d="M-28263.3,-71804.3 L-28267.2,-71882.7 L-28278.7,-71960.4 L-28297.8,-72036.5 L-28324.2,-72110.5 L-28357.8,-72181.4 L-28398.1,-72248.8 L-28444.9,-72311.8 L-28497.6,-72370 L-28555.8,-72422.7 L-28618.9,-72469.5 L-28686.2,-72509.8 L-28757.2,-72543.4 L-28831.1,-72569.9 L-28907.2,-72588.9 L-28984.9,-72600.5 L-29063.3,-72604.3 L-29141.7,-72600.5 L-29219.4,-72588.9 L-29295.5,-72569.9 L-29369.5,-72543.4 L-29440.4,-72509.8 L-29507.8,-72469.5 L-29570.8,-72422.7 L-29629,-72370 L-29681.7,-72311.8 L-29728.5,-72248.8 L-29768.9,-72181.4 L-29802.4,-72110.5 L-29828.9,-72036.5 L-29848,-71960.4 L-29859.5,-71882.7 L-29863.3,-71804.3 L-29859.5,-71725.9 L-29848,-71648.2 L-29828.9,-71572.1 L-29802.4,-71498.2 L-29768.9,-71427.2 L-29728.5,-71359.9 L-29681.7,-71296.8 L-29629,-71238.6 L-29570.8,-71185.9 L-29507.8,-71139.1 L-29440.4,-71098.8 L-29369.5,-71065.2 L-29295.5,-71038.8 L-29219.4,-71019.7 L-29141.7,-71008.2 L-29063.3,-71004.3 L-28984.9,-71008.2 L-28907.2,-71019.7 L-28831.1,-71038.8 L-28757.2,-71065.2 L-28686.2,-71098.8 L-28618.9,-71139.1 L-28555.8,-71185.9 L-28497.6,-71238.6 L-28444.9,-71296.8 L-28398.1,-71359.9 L-28357.8,-71427.2 L-28324.2,-71498.2 L-28297.8,-71572.1 L-28278.7,-71648.2 L-28267.2,-71725.9 L-28263.3,-71804.3"/>
</g>

<g fill="none" stroke="#000000" stroke-opacity="1" stroke-width="1" stroke-linecap="square" stroke-linejoin="bevel" transform="matrix(0.999988,0,0,-0.999988,29863.5,38997.1)"
font-family="MS Shell Dlg 2" font-size="10.3125" font-weight="400" font-style="normal" 
>
</g>

<g fill="none" stroke="#000000" stroke-opacity="1" stroke-width="1" stroke-linecap="square" stroke-linejoin="bevel" transform="matrix(0.999988,0,0,-0.999988,29863.5,38997.1)"
font-family="MS Shell Dlg 2" font-size="10.3125" font-weight="400" font-style="normal" 
>
</g>

<g fill="#ae5151" fill-opacity="0.500008" stroke="#333333" stroke-opacity="1" stroke-width="1" stroke-linecap="round" stroke-linejoin="round" transform="matrix(0.999988,0,0,-0.999988,29863.5,38997.1)"
font-family="MS Shell Dlg 2" font-size="10.3125" font-weight="400" font-style="normal" 
>
<path vector-effect="non-scaling-stroke" fill-rule="evenodd" d="M51736.7,-71804.3 L51732.8,-71882.7 L51721.3,-71960.4 L51702.2,-72036.5 L51675.8,-72110.5 L51642.2,-72181.4 L51601.9,-72248.8 L51555.1,-72311.8 L51502.4,-72370 L51444.2,-72422.7 L51381.1,-72469.5 L51313.8,-72509.8 L51242.8,-72543.4 L51168.9,-72569.9 L51092.8,-72588.9 L51015.1,-72600.5 L50936.7,-72604.3 L50858.3,-72600.5 L50780.6,-72588.9 L50704.5,-72569.9 L50630.5,-72543.4 L50559.6,-72509.8 L50492.2,-72469.5 L50429.2,-72422.7 L50371,-72370 L50318.3,-72311.8 L50271.5,-72248.8 L50231.1,-72181.4 L50197.6,-72110.5 L50171.1,-72036.5 L50152,-71960.4 L50140.5,-71882.7 L50136.7,-71804.3 L50140.5,-71725.9 L50152,-71648.2 L50171.1,-71572.1 L50197.6,-71498.2 L50231.1,-71427.2 L50271.5,-71359.9 L50318.3,-71296.8 L50371,-71238.6 L50429.2,-71185.9 L50492.2,-71139.1 L50559.6,-71098.8 L50630.5,-71065.2 L50704.5,-71038.8 L50780.6,-71019.7 L50858.3,-71008.2 L50936.7,-71004.3 L51015.1,-71008.2 L51092.8,-71019.7 L51168.9,-71038.8 L51242.8,-71065.2 L51313.8,-71098.8 L51381.1,-71139.1 L51444.2,-71185.9 L51502.4,-71238.6 L51555.1,-71296.8 L51601.9,-71359.9 L51642.2,-71427.2 L51675.8,-71498.2 L51702.2,-71572.1 L51721.3,-71648.2 L51732.8,-71725.9 L51736.7,-71804.3"/>
</g>

<g fill="none" stroke="#000000" stroke-opacity="1" stroke-width="1" stroke-linecap="square" stroke-linejoin="bevel" transform="matrix(0.999988,0,0,-0.999988,29863.5,38997.1)"
font-family="MS Shell Dlg 2" font-size="10.3125" font-weight="400" font-style="normal" 
>
</g>

<g fill="none" stroke="#000000" stroke-opacity="1" stroke-width="1" stroke-linecap="square" stroke-linejoin="bevel" transform="matrix(0.999988,0,0,-0.999988,29863.5,38997.1)"
font-family="MS Shell Dlg 2" font-size="10.3125" font-weight="400" font-style="normal" 
>
</g>

<g fill="#ae5151" fill-opacity="0.500008" stroke="#333333" stroke-opacity="1" stroke-width="1" stroke-linecap="round" stroke-linejoin="round" transform="matrix(0.999988,0,0,-0.999988,29863.5,38997.1)"
font-family="MS Shell Dlg 2" font-size="10.3125" font-weight="400" font-style="normal" 
>
<path vector-effect="non-scaling-stroke" fill-rule="evenodd" d="M-28263.3,38195.7 L-28267.2,38117.3 L-28278.7,38039.6 L-28297.8,37963.5 L-28324.2,37889.5 L-28357.8,37818.6 L-28398.1,37751.2 L-28444.9,37688.2 L-28497.6,37630 L-28555.8,37577.3 L-28618.9,37530.5 L-28686.2,37490.2 L-28757.2,37456.6 L-28831.1,37430.1 L-28907.2,37411.1 L-28984.9,37399.5 L-29063.3,37395.7 L-29141.7,37399.5 L-29219.4,37411.1 L-29295.5,37430.1 L-29369.5,37456.6 L-29440.4,37490.2 L-29507.8,37530.5 L-29570.8,37577.3 L-29629,37630 L-29681.7,37688.2 L-29728.5,37751.2 L-29768.9,37818.6 L-29802.4,37889.5 L-29828.9,37963.5 L-29848,38039.6 L-29859.5,38117.3 L-29863.3,38195.7 L-29859.5,38274.1 L-29848,38351.8 L-29828.9,38427.9 L-29802.4,38501.8 L-29768.9,38572.8 L-29728.5,38640.1 L-29681.7,38703.2 L-29629,38761.4 L-29570.8,38814.1 L-29507.8,38860.9 L-29440.4,38901.2 L-29369.5,38934.8 L-29295.5,38961.2 L-29219.4,38980.3 L-29141.7,38991.8 L-29063.3,38995.7 L-28984.9,38991.8 L-28907.2,38980.3 L-28831.1,38961.2 L-28757.2,38934.8 L-28686.2,38901.2 L-28618.9,38860.9 L-28555.8,38814.1 L-28497.6,38761.4 L-28444.9,38703.2 L-28398.1,38640.1 L-28357.8,38572.8 L-28324.2,38501.8 L-28297.8,38427.9 L-28278.7,38351.8 L-28267.2,38274.1 L-28263.3,38195.7"/>
</g>

<g fill="none" stroke="#000000" stroke-opacity="1" stroke-width="1" stroke-linecap="square" stroke-linejoin="bevel" transform="matrix(0.999988,0,0,-0.999988,29863.5,38997.1)"
font-family="MS Shell Dlg 2" font-size="10.3125" font-weight="400" font-style="normal" 
>
</g>

<g fill="none" stroke="#000000" stroke-opacity="1" stroke-width="1" stroke-linecap="square" stroke-linejoin="bevel" transform="matrix(0.999988,0,0,-0.999988,29863.5,38997.1)"
font-family="MS Shell Dlg 2" font-size="10.3125" font-weight="400" font-style="normal" 
>
</g>

<g fill="#ae5151" fill-opacity="0.500008" stroke="#333333" stroke-opacity="1" stroke-width="1" stroke-linecap="round" stroke-linejoin="round" transform="matrix(0.999988,0,0,-0.999988,29863.5,38997.1)"
font-family="MS Shell Dlg 2" font-size="10.3125" font-weight="400" font-style="normal" 
>
<path vector-effect="non-scaling-stroke" fill-rule="evenodd" d="M51736.7,38195.7 L51732.8,38117.3 L51721.3,38039.6 L51702.2,37963.5 L51675.8,37889.5 L51642.2,37818.6 L51601.9,37751.2 L51555.1,37688.2 L51502.4,37630 L51444.2,37577.3 L51381.1,37530.5 L51313.8,37490.2 L51242.8,37456.6 L51168.9,37430.1 L51092.8,37411.1 L51015.1,37399.5 L50936.7,37395.7 L50858.3,37399.5 L50780.6,37411.1 L50704.5,37430.1 L50630.5,37456.6 L50559.6,37490.2 L50492.2,37530.5 L50429.2,37577.3 L50371,37630 L50318.3,37688.2 L50271.5,37751.2 L50231.1,37818.6 L50197.6,37889.5 L50171.1,37963.5 L50152,38039.6 L50140.5,38117.3 L50136.7,38195.7 L50140.5,38274.1 L50152,38351.8 L50171.1,38427.9 L50197.6,38501.8 L50231.1,38572.8 L50271.5,38640.1 L50318.3,38703.2 L50371,38761.4 L50429.2,38814.1 L50492.2,38860.9 L50559.6,38901.2 L50630.5,38934.8 L50704.5,38961.2 L50780.6,38980.3 L50858.3,38991.8 L50936.7,38995.7 L51015.1,38991.8 L51092.8,38980.3 L51168.9,38961.2 L51242.8,38934.8 L51313.8,38901.2 L51381.1,38860.9 L51444.2,38814.1 L51502.4,38761.4 L51555.1,38703.2 L51601.9,38640.1 L51642.2,38572.8 L51675.8,38501.8 L51702.2,38427.9 L51721.3,38351.8 L51732.8,38274.1 L51736.7,38195.7"/>
</g>

<g fill="none" stroke="#000000" stroke-opacity="1" stroke-width="1" stroke-linecap="square" stroke-linejoin="bevel" transform="matrix(0.999988,0,0,-0.999988,29863.5,38997.1)"
font-family="MS Shell Dlg 2" font-size="10.3125" font-weight="400" font-style="normal" 
>
</g>

<g fill="none" stroke="#000000" stroke-opacity="1" stroke-width="1" stroke-linecap="square" stroke-linejoin="bevel" transform="matrix(0.999988,0,0,-0.999988,29863.5,38997.1)"
font-family="MS Shell Dlg 2" font-size="10.3125" font-weight="400" font-style="normal" 
>
</g>

<g fill="#ffff00" fill-opacity="0.500008" stroke="#333333" stroke-opacity="1" stroke-width="1" stroke-linecap="round" stroke-linejoin="round" transform="matrix(0.999988,0,0,-0.999988,29863.5,38997.1)"
font-family="MS Shell Dlg 2" font-size="10.3125" font-weight="400" font-style="normal" 
>
<path vector-effect="non-scaling-stroke" fill-rule="evenodd" d="M-28263.3,-71804.3 L-28267.2,-71882.7 L-28278.7,-71960.4 L-28297.8,-72036.5 L-28324.2,-72110.5 L-28357.8,-72181.4 L-28398.1,-72248.8 L-28444.9,-72311.8 L-28497.6,-72370 L-28555.8,-72422.7 L-28618.9,-72469.5 L-28686.2,-72509.8 L-28757.2,-72543.4 L-28831.1,-72569.9 L-28907.2,-72588.9 L-28984.9,-72600.5 L-29063.3,-72604.3 L-29141.7,-72600.5 L-29219.4,-72588.9 L-29295.5,-72569.9 L-29369.5,-72543.4 L-29440.4,-72509.8 L-29507.8,-72469.5 L-29570.8,-72422.7 L-29629,-72370 L-29681.7,-72311.8 L-29728.5,-72248.8 L-29768.9,-72181.4 L-29802.4,-72110.5 L-29828.9,-72036.5 L-29848,-71960.4 L-29859.5,-71882.7 L-29863.3,-71804.3 L-29859.5,-71725.9 L-29848,-71648.2 L-29828.9,-71572.1 L-29802.4,-71498.2 L-29768.9,-71427.2 L-29728.5,-71359.9 L-29681.7,-71296.8 L-29629,-71238.6 L-29570.8,-71185.9 L-29507.8,-71139.1 L-29440.4,-71098.8 L-29369.5,-71065.2 L-29295.5,-71038.8 L-29219.4,-71019.7 L-29141.7,-71008.2 L-29063.3,-71004.3 L-28984.9,-71008.2 L-28907.2,-71019.7 L-28831.1,-71038.8 L-28757.2,-71065.2 L-28686.2,-71098.8 L-28618.9,-71139.1 L-28555.8,-71185.9 L-28497.6,-71238.6 L-28444.9,-71296.8 L-28398.1,-71359.9 L-28357.8,-71427.2 L-28324.2,-71498.2 L-28297.8,-71572.1 L-28278.7,-71648.2 L-28267.2,-71725.9 L-28263.3,-71804.3"/>
</g>

<g fill="none" stroke="#000000" stroke-opacity="1" stroke-width="1" stroke-linecap="square" stroke-linejoin="bevel" transform="matrix(0.999988,0,0,-0.999988,29863.5,38997.1)"
font-family="MS Shell Dlg 2" font-size="10.3125" font-weight="400" font-style="normal" 
>
</g>

<g fill="none" stroke="#000000" stroke-opacity="1" stroke-width="1" stroke-linecap="square" stroke-linejoin="bevel" transform="matrix(0.999988,0,0,-0.999988,29863.5,38997.1)"
font-family="MS Shell Dlg 2" font-size="10.3125" font-weight="400" font-style="normal" 
>
</g>

<g fill="#ffff00" fill-opacity="0.500008" stroke="#333333" stroke-opacity="1" stroke-width="1" stroke-linecap="round" stroke-linejoin="round" transform="matrix(0.999988,0,0,-0.999988,29863.5,38997.1)"
font-family="MS Shell Dlg 2" font-size="10.3125" font-weight="400" font-style="normal" 
>
<path vector-effect="non-scaling-stroke" fill-rule="evenodd" d="M51736.7,-71804.3 L51732.8,-71882.7 L51721.3,-71960.4 L51702.2,-72036.5 L51675.8,-72110.5 L51642.2,-72181.4 L51601.9,-72248.8 L51555.1,-72311.8 L51502.4,-72370 L51444.2,-72422.7 L51381.1,-72469.5 L51313.8,-72509.8 L51242.8,-72543.4 L51168.9,-72569.9 L51092.8,-72588.9 L51015.1,-72600.5 L50936.7,-72604.3 L50858.3,-72600.5 L50780.6,-72588.9 L50704.5,-72569.9 L50630.5,-72543.4 L50559.6,-72509.8 L50492.2,-72469.5 L50429.2,-72422.7 L50371,-72370 L50318.3,-72311.8 L50271.5,-72248.8 L50231.1,-72181.4 L50197.6,-72110.5 L50171.1,-72036.5 L50152,-71960.4 L50140.5,-71882.7 L50136.7,-71804.3 L50140.5,-71725.9 L50152,-71648.2 L50171.1,-71572.1 L50197.6,-71498.2 L50231.1,-71427.2 L50271.5,-71359.9 L50318.3,-71296.8 L50371,-71238.6 L50429.2,-71185.9 L50492.2,-71139.1 L50559.6,-71098.8 L50630.5,-71065.2 L50704.5,-71038.8 L50780.6,-71019.7 L50858.3,-71008.2 L50936.7,-71004.3 L51015.1,-71008.2 L51092.8,-71019.7 L51168.9,-71038.8 L51242.8,-71065.2 L51313.8,-71098.8 L51381.1,-71139.1 L51444.2,-71185.9 L51502.4,-71238.6 L51555.1,-71296.8 L51601.9,-71359.9 L51642.2,-71427.2 L51675.8,-71498.2 L51702.2,-71572.1 L51721.3,-71648.2 L51732.8,-71725.9 L51736.7,-71804.3"/>
</g>

<g fill="none" stroke="#000000" stroke-opacity="1" stroke-width="1" stroke-linecap="square" stroke-linejoin="bevel" transform="matrix(0.999988,0,0,-0.999988,29863.5,38997.1)"
font-family="MS Shell Dlg 2" font-size="10.3125" font-weight="400" font-style="normal" 
>
</g>

<g fill="none" stroke="#000000" stroke-opacity="1" stroke-width="1" stroke-linecap="square" stroke-linejoin="bevel" transform="matrix(0.999988,0,0,-0.999988,29863.5,38997.1)"
font-family="MS Shell Dlg 2" font-size="10.3125" font-weight="400" font-style="normal" 
>
</g>

<g fill="#ffff00" fill-opacity="0.500008" stroke="#333333" stroke-opacity="1" stroke-width="1" stroke-linecap="round" stroke-linejoin="round" transform="matrix(0.999988,0,0,-0.999988,29863.5,38997.1)"
font-family="MS Shell Dlg 2" font-size="10.3125" font-weight="400" font-style="normal" 
>
<path vector-effect="non-scaling-stroke" fill-rule="evenodd" d="M-28263.3,38195.7 L-28267.2,38117.3 L-28278.7,38039.6 L-28297.8,37963.5 L-28324.2,37889.5 L-28357.8,37818.6 L-28398.1,37751.2 L-28444.9,37688.2 L-28497.6,37630 L-28555.8,37577.3 L-28618.9,37530.5 L-28686.2,37490.2 L-28757.2,37456.6 L-28831.1,37430.1 L-28907.2,37411.1 L-28984.9,37399.5 L-29063.3,37395.7 L-29141.7,37399.5 L-29219.4,37411.1 L-29295.5,37430.1 L-29369.5,37456.6 L-29440.4,37490.2 L-29507.8,37530.5 L-29570.8,37577.3 L-29629,37630 L-29681.7,37688.2 L-29728.5,37751.2 L-29768.9,37818.6 L-29802.4,37889.5 L-29828.9,37963.5 L-29848,38039.6 L-29859.5,38117.3 L-29863.3,38195.7 L-29859.5,38274.1 L-29848,38351.8 L-29828.9,38427.9 L-29802.4,38501.8 L-29768.9,38572.8 L-29728.5,38640.1 L-29681.7,38703.2 L-29629,38761.4 L-29570.8,38814.1 L-29507.8,38860.9 L-29440.4,38901.2 L-29369.5,38934.8 L-29295.5,38961.2 L-29219.4,38980.3 L-29141.7,38991.8 L-29063.3,38995.7 L-28984.9,38991.8 L-28907.2,38980.3 L-28831.1,38961.2 L-28757.2,38934.8 L-28686.2,38901.2 L-28618.9,38860.9 L-28555.8,38814.1 L-28497.6,38761.4 L-28444.9,38703.2 L-28398.1,38640.1 L-28357.8,38572.8 L-28324.2,38501.8 L-28297.8,38427.9 L-28278.7,38351.8 L-28267.2,38274.1 L-28263.3,38195.7"/>
</g>

<g fill="none" stroke="#000000" stroke-opacity="1" stroke-width="1" stroke-linecap="square" stroke-linejoin="bevel" transform="matrix(0.999988,0,0,-0.999988,29863.5,38997.1)"
font-family="MS Shell Dlg 2" font-size="10.3125" font-weight="400" font-style="normal" 
>
</g>

<g fill="none" stroke="#000000" stroke-opacity="1" stroke-width="1" stroke-linecap="square" stroke-linejoin="bevel" transform="matrix(0.999988,0,0,-0.999988,29863.5,38997.1)"
font-family="MS Shell Dlg 2" font-size="10.3125" font-weight="400" font-style="normal" 
>
</g>

<g fill="#ffff00" fill-opacity="0.500008" stroke="#333333" stroke-opacity="1" stroke-width="1" stroke-linecap="round" stroke-linejoin="round" transform="matrix(0.999988,0,0,-0.999988,29863.5,38997.1)"
font-family="MS Shell Dlg 2" font-size="10.3125" font-weight="400" font-style="normal" 
>
<path vector-effect="non-scaling-stroke" fill-rule="evenodd" d="M51736.7,38195.7 L51732.8,38117.3 L51721.3,38039.6 L51702.2,37963.5 L51675.8,37889.5 L51642.2,37818.6 L51601.9,37751.2 L51555.1,37688.2 L51502.4,37630 L51444.2,37577.3 L51381.1,37530.5 L51313.8,37490.2 L51242.8,37456.6 L51168.9,37430.1 L51092.8,37411.1 L51015.1,37399.5 L50936.7,37395.7 L50858.3,37399.5 L50780.6,37411.1 L50704.5,37430.1 L50630.5,37456.6 L50559.6,37490.2 L50492.2,37530.5 L50429.2,37577.3 L50371,37630 L50318.3,37688.2 L50271.5,37751.2 L50231.1,37818.6 L50197.6,37889.5 L50171.1,37963.5 L50152,38039.6 L50140.5,38117.3 L50136.7,38195.7 L50140.5,38274.1 L50152,38351.8 L50171.1,38427.9 L50197.6,38501.8 L50231.1,38572.8 L50271.5,38640.1 L50318.3,38703.2 L50371,38761.4 L50429.2,38814.1 L50492.2,38860.9 L50559.6,38901.2 L50630.5,38934.8 L50704.5,38961.2 L50780.6,38980.3 L50858.3,38991.8 L50936.7,38995.7 L51015.1,38991.8 L51092.8,38980.3 L51168.9,38961.2 L51242.8,38934.8 L51313.8,38901.2 L51381.1,38860.9 L51444.2,38814.1 L51502.4,38761.4 L51555.1,38703.2 L51601.9,38640.1 L51642.2,38572.8 L51675.8,38501.8 L51702.2,38427.9 L51721.3,38351.8 L51732.8,38274.1 L51736.7,38195.7"/>
</g>

<g fill="none" stroke="#000000" stroke-opacity="1" stroke-width="1" stroke-linecap="square" stroke-linejoin="bevel" transform="matrix(0.999988,0,0,-0.999988,29863.5,38997.1)"
font-family="MS Shell Dlg 2" font-size="10.3125" font-weight="400" font-style="normal" 
>
</g>

<g fill="none" stroke="#000000" stroke-opacity="1" stroke-width="1" stroke-linecap="square" stroke-linejoin="bevel" transform="matrix(0.999988,0,0,-0.999988,29863.5,38997.1)"
font-family="MS Shell Dlg 2" font-size="10.3125" font-weight="400" font-style="normal" 
>
</g>

<g fill="#ae5151" fill-opacity="0.500008" stroke="#333333" stroke-opacity="1" stroke-width="1" stroke-linecap="round" stroke-linejoin="round" transform="matrix(0.999988,0,0,-0.999988,29863.5,38997.1)"
font-family="MS Shell Dlg 2" font-size="10.3125" font-weight="400" font-style="normal" 
>
<path vector-effect="non-scaling-stroke" fill-rule="evenodd" d="M-28263.3,-71804.3 L-28267.2,-71882.7 L-28278.7,-71960.4 L-28297.8,-72036.5 L-28324.2,-72110.5 L-28357.8,-72181.4 L-28398.1,-72248.8 L-28444.9,-72311.8 L-28497.6,-72370 L-28555.8,-72422.7 L-28618.9,-72469.5 L-28686.2,-72509.8 L-28757.2,-72543.4 L-28831.1,-72569.9 L-28907.2,-72588.9 L-28984.9,-72600.5 L-29063.3,-72604.3 L-29141.7,-72600.5 L-29219.4,-72588.9 L-29295.5,-72569.9 L-29369.5,-72543.4 L-29440.4,-72509.8 L-29507.8,-72469.5 L-29570.8,-72422.7 L-29629,-72370 L-29681.7,-72311.8 L-29728.5,-72248.8 L-29768.9,-72181.4 L-29802.4,-72110.5 L-29828.9,-72036.5 L-29848,-71960.4 L-29859.5,-71882.7 L-29863.3,-71804.3 L-29859.5,-71725.9 L-29848,-71648.2 L-29828.9,-71572.1 L-29802.4,-71498.2 L-29768.9,-71427.2 L-29728.5,-71359.9 L-29681.7,-71296.8 L-29629,-71238.6 L-29570.8,-71185.9 L-29507.8,-71139.1 L-29440.4,-71098.8 L-29369.5,-71065.2 L-29295.5,-71038.8 L-29219.4,-71019.7 L-29141.7,-71008.2 L-29063.3,-71004.3 L-28984.9,-71008.2 L-28907.2,-71019.7 L-28831.1,-71038.8 L-28757.2,-71065.2 L-28686.2,-71098.8 L-28618.9,-71139.1 L-28555.8,-71185.9 L-28497.6,-71238.6 L-28444.9,-71296.8 L-28398.1,-71359.9 L-28357.8,-71427.2 L-28324.2,-71498.2 L-28297.8,-71572.1 L-28278.7,-71648.2 L-28267.2,-71725.9 L-28263.3,-71804.3"/>
</g>

<g fill="none" stroke="#000000" stroke-opacity="1" stroke-width="1" stroke-linecap="square" stroke-linejoin="bevel" transform="matrix(0.999988,0,0,-0.999988,29863.5,38997.1)"
font-family="MS Shell Dlg 2" font-size="10.3125" font-weight="400" font-style="normal" 
>
</g>

<g fill="none" stroke="#000000" stroke-opacity="1" stroke-width="1" stroke-linecap="square" stroke-linejoin="bevel" transform="matrix(0.999988,0,0,-0.999988,29863.5,38997.1)"
font-family="MS Shell Dlg 2" font-size="10.3125" font-weight="400" font-style="normal" 
>
</g>

<g fill="#ae5151" fill-opacity="0.500008" stroke="#333333" stroke-opacity="1" stroke-width="1" stroke-linecap="round" stroke-linejoin="round" transform="matrix(0.999988,0,0,-0.999988,29863.5,38997.1)"
font-family="MS Shell Dlg 2" font-size="10.3125" font-weight="400" font-style="normal" 
>
<path vector-effect="non-scaling-stroke" fill-rule="evenodd" d="M51736.7,-71804.3 L51732.8,-71882.7 L51721.3,-71960.4 L51702.2,-72036.5 L51675.8,-72110.5 L51642.2,-72181.4 L51601.9,-72248.8 L51555.1,-72311.8 L51502.4,-72370 L51444.2,-72422.7 L51381.1,-72469.5 L51313.8,-72509.8 L51242.8,-72543.4 L51168.9,-72569.9 L51092.8,-72588.9 L51015.1,-72600.5 L50936.7,-72604.3 L50858.3,-72600.5 L50780.6,-72588.9 L50704.5,-72569.9 L50630.5,-72543.4 L50559.6,-72509.8 L50492.2,-72469.5 L50429.2,-72422.7 L50371,-72370 L50318.3,-72311.8 L50271.5,-72248.8 L50231.1,-72181.4 L50197.6,-72110.5 L50171.1,-72036.5 L50152,-71960.4 L50140.5,-71882.7 L50136.7,-71804.3 L50140.5,-71725.9 L50152,-71648.2 L50171.1,-71572.1 L50197.6,-71498.2 L50231.1,-71427.2 L50271.5,-71359.9 L50318.3,-71296.8 L50371,-71238.6 L50429.2,-71185.9 L50492.2,-71139.1 L50559.6,-71098.8 L50630.5,-71065.2 L50704.5,-71038.8 L50780.6,-71019.7 L50858.3,-71008.2 L50936.7,-71004.3 L51015.1,-71008.2 L51092.8,-71019.7 L51168.9,-71038.8 L51242.8,-71065.2 L51313.8,-71098.8 L51381.1,-71139.1 L51444.2,-71185.9 L51502.4,-71238.6 L51555.1,-71296.8 L51601.9,-71359.9 L51642.2,-71427.2 L51675.8,-71498.2 L51702.2,-71572.1 L51721.3,-71648.2 L51732.8,-71725.9 L51736.7,-71804.3"/>
</g>

<g fill="none" stroke="#000000" stroke-opacity="1" stroke-width="1" stroke-linecap="square" stroke-linejoin="bevel" transform="matrix(0.999988,0,0,-0.999988,29863.5,38997.1)"
font-family="MS Shell Dlg 2" font-size="10.3125" font-weight="400" font-style="normal" 
>
</g>

<g fill="none" stroke="#000000" stroke-opacity="1" stroke-width="1" stroke-linecap="square" stroke-linejoin="bevel" transform="matrix(0.999988,0,0,-0.999988,29863.5,38997.1)"
font-family="MS Shell Dlg 2" font-size="10.3125" font-weight="400" font-style="normal" 
>
</g>

<g fill="#ae5151" fill-opacity="0.500008" stroke="#333333" stroke-opacity="1" stroke-width="1" stroke-linecap="round" stroke-linejoin="round" transform="matrix(0.999988,0,0,-0.999988,29863.5,38997.1)"
font-family="MS Shell Dlg 2" font-size="10.3125" font-weight="400" font-style="normal" 
>
<path vector-effect="non-scaling-stroke" fill-rule="evenodd" d="M-28263.3,38195.7 L-28267.2,38117.3 L-28278.7,38039.6 L-28297.8,37963.5 L-28324.2,37889.5 L-28357.8,37818.6 L-28398.1,37751.2 L-28444.9,37688.2 L-28497.6,37630 L-28555.8,37577.3 L-28618.9,37530.5 L-28686.2,37490.2 L-28757.2,37456.6 L-28831.1,37430.1 L-28907.2,37411.1 L-28984.9,37399.5 L-29063.3,37395.7 L-29141.7,37399.5 L-29219.4,37411.1 L-29295.5,37430.1 L-29369.5,37456.6 L-29440.4,37490.2 L-29507.8,37530.5 L-29570.8,37577.3 L-29629,37630 L-29681.7,37688.2 L-29728.5,37751.2 L-29768.9,37818.6 L-29802.4,37889.5 L-29828.9,37963.5 L-29848,38039.6 L-29859.5,38117.3 L-29863.3,38195.7 L-29859.5,38274.1 L-29848,38351.8 L-29828.9,38427.9 L-29802.4,38501.8 L-29768.9,38572.8 L-29728.5,38640.1 L-29681.7,38703.2 L-29629,38761.4 L-29570.8,38814.1 L-29507.8,38860.9 L-29440.4,38901.2 L-29369.5,38934.8 L-29295.5,38961.2 L-29219.4,38980.3 L-29141.7,38991.8 L-29063.3,38995.7 L-28984.9,38991.8 L-28907.2,38980.3 L-28831.1,38961.2 L-28757.2,38934.8 L-28686.2,38901.2 L-28618.9,38860.9 L-28555.8,38814.1 L-28497.6,38761.4 L-28444.9,38703.2 L-28398.1,38640.1 L-28357.8,38572.8 L-28324.2,38501.8 L-28297.8,38427.9 L-28278.7,38351.8 L-28267.2,38274.1 L-28263.3,38195.7"/>
</g>

<g fill="none" stroke="#000000" stroke-opacity="1" stroke-width="1" stroke-linecap="square" stroke-linejoin="bevel" transform="matrix(0.999988,0,0,-0.999988,29863.5,38997.1)"
font-family="MS Shell Dlg 2" font-size="10.3125" font-weight="400" font-style="normal" 
>
</g>

<g fill="none" stroke="#000000" stroke-opacity="1" stroke-width="1" stroke-linecap="square" stroke-linejoin="bevel" transform="matrix(0.999988,0,0,-0.999988,29863.5,38997.1)"
font-family="MS Shell Dlg 2" font-size="10.3125" font-weight="400" font-style="normal" 
>
</g>

<g fill="#ae5151" fill-opacity="0.500008" stroke="#333333" stroke-opacity="1" stroke-width="1" stroke-linecap="round" stroke-linejoin="round" transform="matrix(0.999988,0,0,-0.999988,29863.5,38997.1)"
font-family="MS Shell Dlg 2" font-size="10.3125" font-weight="400" font-style="normal" 
>
<path vector-effect="non-scaling-stroke" fill-rule="evenodd" d="M51736.7,38195.7 L51732.8,38117.3 L51721.3,38039.6 L51702.2,37963.5 L51675.8,37889.5 L51642.2,37818.6 L51601.9,37751.2 L51555.1,37688.2 L51502.4,37630 L51444.2,37577.3 L51381.1,37530.5 L51313.8,37490.2 L51242.8,37456.6 L51168.9,37430.1 L51092.8,37411.1 L51015.1,37399.5 L50936.7,37395.7 L50858.3,37399.5 L50780.6,37411.1 L50704.5,37430.1 L50630.5,37456.6 L50559.6,37490.2 L50492.2,37530.5 L50429.2,37577.3 L50371,37630 L50318.3,37688.2 L50271.5,37751.2 L50231.1,37818.6 L50197.6,37889.5 L50171.1,37963.5 L50152,38039.6 L50140.5,38117.3 L50136.7,38195.7 L50140.5,38274.1 L50152,38351.8 L50171.1,38427.9 L50197.6,38501.8 L50231.1,38572.8 L50271.5,38640.1 L50318.3,38703.2 L50371,38761.4 L50429.2,38814.1 L50492.2,38860.9 L50559.6,38901.2 L50630.5,38934.8 L50704.5,38961.2 L50780.6,38980.3 L50858.3,38991.8 L50936.7,38995.7 L51015.1,38991.8 L51092.8,38980.3 L51168.9,38961.2 L51242.8,38934.8 L51313.8,38901.2 L51381.1,38860.9 L51444.2,38814.1 L51502.4,38761.4 L51555.1,38703.2 L51601.9,38640.1 L51642.2,38572.8 L51675.8,38501.8 L51702.2,38427.9 L51721.3,38351.8 L51732.8,38274.1 L51736.7,38195.7"/>
</g>

<g fill="none" stroke="#000000" stroke-opacity="1" stroke-width="1" stroke-linecap="square" stroke-linejoin="bevel" transform="matrix(0.999988,0,0,-0.999988,29863.5,38997.1)"
font-family="MS Shell Dlg 2" font-size="10.3125" font-weight="400" font-style="normal" 
>
</g>

<g fill="none" stroke="#000000" stroke-opacity="1" stroke-width="1" stroke-linecap="square" stroke-linejoin="bevel" transform="matrix(0.999988,0,0,-0.999988,29863.5,38997.1)"
font-family="MS Shell Dlg 2" font-size="10.3125" font-weight="400" font-style="normal" 
>
</g>

<g fill="#333333" fill-opacity="0.500008" stroke="#333333" stroke-opacity="1" stroke-width="1" stroke-linecap="round" stroke-linejoin="round" transform="matrix(0.999988,0,0,-0.999988,29863.5,38997.1)"
font-family="MS Shell Dlg 2" font-size="10.3125" font-weight="400" font-style="normal" 
>
<path vector-effect="non-scaling-stroke" fill-rule="evenodd" d="M-28263.3,-71804.3 L-28267.2,-71882.7 L-28278.7,-71960.4 L-28297.8,-72036.5 L-28324.2,-72110.5 L-28357.8,-72181.4 L-28398.1,-72248.8 L-28444.9,-72311.8 L-28497.6,-72370 L-28555.8,-72422.7 L-28618.9,-72469.5 L-28686.2,-72509.8 L-28757.2,-72543.4 L-28831.1,-72569.9 L-28907.2,-72588.9 L-28984.9,-72600.5 L-29063.3,-72604.3 L-29141.7,-72600.5 L-29219.4,-72588.9 L-29295.5,-72569.9 L-29369.5,-72543.4 L-29440.4,-72509.8 L-29507.8,-72469.5 L-29570.8,-72422.7 L-29629,-72370 L-29681.7,-72311.8 L-29728.5,-72248.8 L-29768.9,-72181.4 L-29802.4,-72110.5 L-29828.9,-72036.5 L-29848,-71960.4 L-29859.5,-71882.7 L-29863.3,-71804.3 L-29859.5,-71725.9 L-29848,-71648.2 L-29828.9,-71572.1 L-29802.4,-71498.2 L-29768.9,-71427.2 L-29728.5,-71359.9 L-29681.7,-71296.8 L-29629,-71238.6 L-29570.8,-71185.9 L-29507.8,-71139.1 L-29440.4,-71098.8 L-29369.5,-71065.2 L-29295.5,-71038.8 L-29219.4,-71019.7 L-29141.7,-71008.2 L-29063.3,-71004.3 L-28984.9,-71008.2 L-28907.2,-71019.7 L-28831.1,-71038.8 L-28757.2,-71065.2 L-28686.2,-71098.8 L-28618.9,-71139.1 L-28555.8,-71185.9 L-28497.6,-71238.6 L-28444.9,-71296.8 L-28398.1,-71359.9 L-28357.8,-71427.2 L-28324.2,-71498.2 L-28297.8,-71572.1 L-28278.7,-71648.2 L-28267.2,-71725.9 L-28263.3,-71804.3"/>
</g>

<g fill="none" stroke="#000000" stroke-opacity="1" stroke-width="1" stroke-linecap="square" stroke-linejoin="bevel" transform="matrix(0.999988,0,0,-0.999988,29863.5,38997.1)"
font-family="MS Shell Dlg 2" font-size="10.3125" font-weight="400" font-style="normal" 
>
</g>

<g fill="none" stroke="#000000" stroke-opacity="1" stroke-width="1" stroke-linecap="square" stroke-linejoin="bevel" transform="matrix(0.999988,0,0,-0.999988,29863.5,38997.1)"
font-family="MS Shell Dlg 2" font-size="10.3125" font-weight="400" font-style="normal" 
>
</g>

<g fill="#333333" fill-opacity="0.500008" stroke="#333333" stroke-opacity="1" stroke-width="1" stroke-linecap="round" stroke-linejoin="round" transform="matrix(0.999988,0,0,-0.999988,29863.5,38997.1)"
font-family="MS Shell Dlg 2" font-size="10.3125" font-weight="400" font-style="normal" 
>
<path vector-effect="non-scaling-stroke" fill-rule="evenodd" d="M51736.7,-71804.3 L51732.8,-71882.7 L51721.3,-71960.4 L51702.2,-72036.5 L51675.8,-72110.5 L51642.2,-72181.4 L51601.9,-72248.8 L51555.1,-72311.8 L51502.4,-72370 L51444.2,-72422.7 L51381.1,-72469.5 L51313.8,-72509.8 L51242.8,-72543.4 L51168.9,-72569.9 L51092.8,-72588.9 L51015.1,-72600.5 L50936.7,-72604.3 L50858.3,-72600.5 L50780.6,-72588.9 L50704.5,-72569.9 L50630.5,-72543.4 L50559.6,-72509.8 L50492.2,-72469.5 L50429.2,-72422.7 L50371,-72370 L50318.3,-72311.8 L50271.5,-72248.8 L50231.1,-72181.4 L50197.6,-72110.5 L50171.1,-72036.5 L50152,-71960.4 L50140.5,-71882.7 L50136.7,-71804.3 L50140.5,-71725.9 L50152,-71648.2 L50171.1,-71572.1 L50197.6,-71498.2 L50231.1,-71427.2 L50271.5,-71359.9 L50318.3,-71296.8 L50371,-71238.6 L50429.2,-71185.9 L50492.2,-71139.1 L50559.6,-71098.8 L50630.5,-71065.2 L50704.5,-71038.8 L50780.6,-71019.7 L50858.3,-71008.2 L50936.7,-71004.3 L51015.1,-71008.2 L51092.8,-71019.7 L51168.9,-71038.8 L51242.8,-71065.2 L51313.8,-71098.8 L51381.1,-71139.1 L51444.2,-71185.9 L51502.4,-71238.6 L51555.1,-71296.8 L51601.9,-71359.9 L51642.2,-71427.2 L51675.8,-71498.2 L51702.2,-71572.1 L51721.3,-71648.2 L51732.8,-71725.9 L51736.7,-71804.3"/>
</g>

<g fill="none" stroke="#000000" stroke-opacity="1" stroke-width="1" stroke-linecap="square" stroke-linejoin="bevel" transform="matrix(0.999988,0,0,-0.999988,29863.5,38997.1)"
font-family="MS Shell Dlg 2" font-size="10.3125" font-weight="400" font-style="normal" 
>
</g>

<g fill="none" stroke="#000000" stroke-opacity="1" stroke-width="1" stroke-linecap="square" stroke-linejoin="bevel" transform="matrix(0.999988,0,0,-0.999988,29863.5,38997.1)"
font-family="MS Shell Dlg 2" font-size="10.3125" font-weight="400" font-style="normal" 
>
</g>

<g fill="#333333" fill-opacity="0.500008" stroke="#333333" stroke-opacity="1" stroke-width="1" stroke-linecap="round" stroke-linejoin="round" transform="matrix(0.999988,0,0,-0.999988,29863.5,38997.1)"
font-family="MS Shell Dlg 2" font-size="10.3125" font-weight="400" font-style="normal" 
>
<path vector-effect="non-scaling-stroke" fill-rule="evenodd" d="M-28263.3,38195.7 L-28267.2,38117.3 L-28278.7,38039.6 L-28297.8,37963.5 L-28324.2,37889.5 L-28357.8,37818.6 L-28398.1,37751.2 L-28444.9,37688.2 L-28497.6,37630 L-28555.8,37577.3 L-28618.9,37530.5 L-28686.2,37490.2 L-28757.2,37456.6 L-28831.1,37430.1 L-28907.2,37411.1 L-28984.9,37399.5 L-29063.3,37395.7 L-29141.7,37399.5 L-29219.4,37411.1 L-29295.5,37430.1 L-29369.5,37456.6 L-29440.4,37490.2 L-29507.8,37530.5 L-29570.8,37577.3 L-29629,37630 L-29681.7,37688.2 L-29728.5,37751.2 L-29768.9,37818.6 L-29802.4,37889.5 L-29828.9,37963.5 L-29848,38039.6 L-29859.5,38117.3 L-29863.3,38195.7 L-29859.5,38274.1 L-29848,38351.8 L-29828.9,38427.9 L-29802.4,38501.8 L-29768.9,38572.8 L-29728.5,38640.1 L-29681.7,38703.2 L-29629,38761.4 L-29570.8,38814.1 L-29507.8,38860.9 L-29440.4,38901.2 L-29369.5,38934.8 L-29295.5,38961.2 L-29219.4,38980.3 L-29141.7,38991.8 L-29063.3,38995.7 L-28984.9,38991.8 L-28907.2,38980.3 L-28831.1,38961.2 L-28757.2,38934.8 L-28686.2,38901.2 L-28618.9,38860.9 L-28555.8,38814.1 L-28497.6,38761.4 L-28444.9,38703.2 L-28398.1,38640.1 L-28357.8,38572.8 L-28324.2,38501.8 L-28297.8,38427.9 L-28278.7,38351.8 L-28267.2,38274.1 L-28263.3,38195.7"/>
</g>

<g fill="none" stroke="#000000" stroke-opacity="1" stroke-width="1" stroke-linecap="square" stroke-linejoin="bevel" transform="matrix(0.999988,0,0,-0.999988,29863.5,38997.1)"
font-family="MS Shell Dlg 2" font-size="10.3125" font-weight="400" font-style="normal" 
>
</g>

<g fill="none" stroke="#000000" stroke-opacity="1" stroke-width="1" stroke-linecap="square" stroke-linejoin="bevel" transform="matrix(0.999988,0,0,-0.999988,29863.5,38997.1)"
font-family="MS Shell Dlg 2" font-size="10.3125" font-weight="400" font-style="normal" 
>
</g>

<g fill="#333333" fill-opacity="0.500008" stroke="#333333" stroke-opacity="1" stroke-width="1" stroke-linecap="round" stroke-linejoin="round" transform="matrix(0.999988,0,0,-0.999988,29863.5,38997.1)"
font-family="MS Shell Dlg 2" font-size="10.3125" font-weight="400" font-style="normal" 
>
<path vector-effect="non-scaling-stroke" fill-rule="evenodd" d="M51736.7,38195.7 L51732.8,38117.3 L51721.3,38039.6 L51702.2,37963.5 L51675.8,37889.5 L51642.2,37818.6 L51601.9,37751.2 L51555.1,37688.2 L51502.4,37630 L51444.2,37577.3 L51381.1,37530.5 L51313.8,37490.2 L51242.8,37456.6 L51168.9,37430.1 L51092.8,37411.1 L51015.1,37399.5 L50936.7,37395.7 L50858.3,37399.5 L50780.6,37411.1 L50704.5,37430.1 L50630.5,37456.6 L50559.6,37490.2 L50492.2,37530.5 L50429.2,37577.3 L50371,37630 L50318.3,37688.2 L50271.5,37751.2 L50231.1,37818.6 L50197.6,37889.5 L50171.1,37963.5 L50152,38039.6 L50140.5,38117.3 L50136.7,38195.7 L50140.5,38274.1 L50152,38351.8 L50171.1,38427.9 L50197.6,38501.8 L50231.1,38572.8 L50271.5,38640.1 L50318.3,38703.2 L50371,38761.4 L50429.2,38814.1 L50492.2,38860.9 L50559.6,38901.2 L50630.5,38934.8 L50704.5,38961.2 L50780.6,38980.3 L50858.3,38991.8 L50936.7,38995.7 L51015.1,38991.8 L51092.8,38980.3 L51168.9,38961.2 L51242.8,38934.8 L51313.8,38901.2 L51381.1,38860.9 L51444.2,38814.1 L51502.4,38761.4 L51555.1,38703.2 L51601.9,38640.1 L51642.2,38572.8 L51675.8,38501.8 L51702.2,38427.9 L51721.3,38351.8 L51732.8,38274.1 L51736.7,38195.7"/>
</g>

<g fill="none" stroke="#000000" stroke-opacity="1" stroke-width="1" stroke-linecap="square" stroke-linejoin="bevel" transform="matrix(0.999988,0,0,-0.999988,29863.5,38997.1)"
font-family="MS Shell Dlg 2" font-size="10.3125" font-weight="400" font-style="normal" 
>
</g>

<g fill="none" stroke="#000000" stroke-opacity="1" stroke-width="1" stroke-linecap="square" stroke-linejoin="bevel" transform="matrix(1,0,0,-1,0,111601)"
font-family="MS Shell Dlg 2" font-size="10.3125" font-weight="400" font-style="normal" 
>
</g>
</g>
</svg>
