<?xml version="1.0" encoding="UTF-8" standalone="no"?>
<svg width="3491.65mm" height="1282.42mm"
 xmlns="http://www.w3.org/2000/svg" xmlns:xlink="http://www.w3.org/1999/xlink"  version="1.2" baseProfile="tiny">
<title>SVG Generator Example Drawing</title>
<desc>An SVG drawing created by the SVG Generator</desc>
<defs>
</defs>
<g fill="none" stroke="black" stroke-width="1" fill-rule="evenodd" stroke-linecap="square" stroke-linejoin="bevel" >

<g fill="none" stroke="#000000" stroke-opacity="1" stroke-width="1" stroke-linecap="square" stroke-linejoin="bevel" transform="matrix(1,0,0,-1,0,4544.51)"
font-family="MS Shell Dlg 2" font-size="10.3125" font-weight="400" font-style="normal" 
>
</g>

<g fill="none" stroke="#000000" stroke-opacity="1" stroke-width="1" stroke-linecap="square" stroke-linejoin="bevel" transform="matrix(1,0,0,-1,0,4544.51)"
font-family="MS Shell Dlg 2" font-size="10.3125" font-weight="400" font-style="normal" 
>
</g>

<g fill="none" stroke="#000000" stroke-opacity="1" stroke-width="1" stroke-linecap="square" stroke-linejoin="bevel" transform="matrix(0.999888,0,0,-0.999888,20993.9,6282.51)"
font-family="MS Shell Dlg 2" font-size="10.3125" font-weight="400" font-style="normal" 
>
</g>

<g fill="#333333" fill-opacity="0.2" stroke="#333333" stroke-opacity="1" stroke-width="1" stroke-linecap="round" stroke-linejoin="round" transform="matrix(0.999888,0,0,-0.999888,20993.9,6282.51)"
font-family="MS Shell Dlg 2" font-size="10.3125" font-weight="400" font-style="normal" 
>
<path vector-effect="non-scaling-stroke" fill-rule="evenodd" d="M-20896.8,1738.77 L-20896.8,1738.75 L-20896.8,1738.74 L-20896.8,1738.73 L-20896.9,1738.72 L-20995.7,1738.74 L-20995.7,1738.75 L-20995.8,1738.76 L-20995.8,1738.77 L-20995.8,1738.79 L-20995.4,2145.09 L-20995.4,2145.11 L-20995.4,2145.13 L-20995.4,2145.14 L-20995.3,2145.14 L-20896.9,2145.14 L-20896.8,2145.14 L-20896.8,2145.13 L-20896.8,2145.11 L-20896.8,2145.09 L-20896.8,1738.77"/>
</g>

<g fill="none" stroke="#000000" stroke-opacity="1" stroke-width="1" stroke-linecap="square" stroke-linejoin="bevel" transform="matrix(0.999888,0,0,-0.999888,20993.9,6282.51)"
font-family="MS Shell Dlg 2" font-size="10.3125" font-weight="400" font-style="normal" 
>
</g>

<g fill="none" stroke="#000000" stroke-opacity="1" stroke-width="1" stroke-linecap="square" stroke-linejoin="bevel" transform="matrix(0.999888,0,0,-0.999888,20993.9,6282.51)"
font-family="MS Shell Dlg 2" font-size="10.3125" font-weight="400" font-style="normal" 
>
</g>

<g fill="#333333" fill-opacity="0.2" stroke="#333333" stroke-opacity="1" stroke-width="1" stroke-linecap="round" stroke-linejoin="round" transform="matrix(0.999888,0,0,-0.999888,20993.9,6282.51)"
font-family="MS Shell Dlg 2" font-size="10.3125" font-weight="400" font-style="normal" 
>
<path vector-effect="non-scaling-stroke" fill-rule="evenodd" d="M-20778.6,2551.54 L-20778.6,2551.53 L-20778.6,2551.52 L-20778.5,2551.51 L-20778.5,2551.49 L-20778.9,2154.59 L-20778.9,2154.58 L-20778.9,2154.56 L-20779,2154.55 L-20779,2154.55 L-20876.7,2154.55 L-20876.7,2154.55 L-20876.8,2154.56 L-20876.8,2154.58 L-20876.8,2154.59 L-20876.8,2551.49 L-20876.8,2551.51 L-20876.8,2551.52 L-20876.7,2551.53 L-20876.7,2551.54 L-20778.6,2551.54"/>
</g>

<g fill="none" stroke="#000000" stroke-opacity="1" stroke-width="1" stroke-linecap="square" stroke-linejoin="bevel" transform="matrix(0.999888,0,0,-0.999888,20993.9,6282.51)"
font-family="MS Shell Dlg 2" font-size="10.3125" font-weight="400" font-style="normal" 
>
</g>

<g fill="none" stroke="#000000" stroke-opacity="1" stroke-width="1" stroke-linecap="square" stroke-linejoin="bevel" transform="matrix(0.999888,0,0,-0.999888,20993.9,6282.51)"
font-family="MS Shell Dlg 2" font-size="10.3125" font-weight="400" font-style="normal" 
>
</g>

<g fill="#333333" fill-opacity="0.2" stroke="#333333" stroke-opacity="1" stroke-width="1" stroke-linecap="round" stroke-linejoin="round" transform="matrix(0.999888,0,0,-0.999888,20993.9,6282.51)"
font-family="MS Shell Dlg 2" font-size="10.3125" font-weight="400" font-style="normal" 
>
<path vector-effect="non-scaling-stroke" fill-rule="evenodd" d="M-20994.9,2560.95 L-20995,2560.95 L-20995,2560.96 L-20995,2560.97 L-20995,2560.99 L-20994.7,2957.89 L-20994.7,2957.91 L-20994.6,2957.92 L-20994.6,2957.93 L-20994.6,2957.94 L-20896.9,2957.94 L-20896.8,2957.93 L-20896.8,2957.92 L-20896.8,2957.91 L-20896.8,2957.89 L-20896.8,2560.99 L-20896.8,2560.97 L-20896.8,2560.96 L-20896.8,2560.95 L-20896.9,2560.95 L-20994.9,2560.95"/>
</g>

<g fill="none" stroke="#000000" stroke-opacity="1" stroke-width="1" stroke-linecap="square" stroke-linejoin="bevel" transform="matrix(0.999888,0,0,-0.999888,20993.9,6282.51)"
font-family="MS Shell Dlg 2" font-size="10.3125" font-weight="400" font-style="normal" 
>
</g>

<g fill="none" stroke="#000000" stroke-opacity="1" stroke-width="1" stroke-linecap="square" stroke-linejoin="bevel" transform="matrix(0.999888,0,0,-0.999888,20993.9,6282.51)"
font-family="MS Shell Dlg 2" font-size="10.3125" font-weight="400" font-style="normal" 
>
</g>

<g fill="#333333" fill-opacity="0.2" stroke="#333333" stroke-opacity="1" stroke-width="1" stroke-linecap="round" stroke-linejoin="round" transform="matrix(0.999888,0,0,-0.999888,20993.9,6282.51)"
font-family="MS Shell Dlg 2" font-size="10.3125" font-weight="400" font-style="normal" 
>
<path vector-effect="non-scaling-stroke" fill-rule="evenodd" d="M-20876.8,3373.71 L-20876.8,3373.73 L-20876.8,3373.75 L-20876.7,3373.76 L-20876.7,3373.76 L-20777.9,3373.74 L-20777.8,3373.74 L-20777.8,3373.73 L-20777.8,3373.71 L-20777.8,3373.69 L-20778.2,2967.39 L-20778.2,2967.37 L-20778.2,2967.36 L-20778.2,2967.35 L-20778.3,2967.34 L-20876.7,2967.34 L-20876.7,2967.35 L-20876.8,2967.36 L-20876.8,2967.37 L-20876.8,2967.39 L-20876.8,3373.71"/>
</g>

<g fill="none" stroke="#000000" stroke-opacity="1" stroke-width="1" stroke-linecap="square" stroke-linejoin="bevel" transform="matrix(0.999888,0,0,-0.999888,20993.9,6282.51)"
font-family="MS Shell Dlg 2" font-size="10.3125" font-weight="400" font-style="normal" 
>
</g>

<g fill="none" stroke="#000000" stroke-opacity="1" stroke-width="1" stroke-linecap="square" stroke-linejoin="bevel" transform="matrix(0.999888,0,0,-0.999888,20993.9,6282.51)"
font-family="MS Shell Dlg 2" font-size="10.3125" font-weight="400" font-style="normal" 
>
</g>

<g fill="#333333" fill-opacity="0.2" stroke="#333333" stroke-opacity="1" stroke-width="1" stroke-linecap="round" stroke-linejoin="round" transform="matrix(0.999888,0,0,-0.999888,20993.9,6282.51)"
font-family="MS Shell Dlg 2" font-size="10.3125" font-weight="400" font-style="normal" 
>
<path vector-effect="non-scaling-stroke" fill-rule="evenodd" d="M-8624.31,6163.21 L-8624.29,6163.2 L-8624.28,6163.18 L-8624.27,6163.14 L-8624.26,6163.11 L-8624.28,6064.31 L-8624.29,6064.27 L-8624.3,6064.24 L-8624.31,6064.22 L-8624.33,6064.21 L-9030.63,6064.58 L-9030.65,6064.59 L-9030.67,6064.61 L-9030.68,6064.64 L-9030.68,6064.68 L-9030.68,6163.11 L-9030.68,6163.14 L-9030.67,6163.18 L-9030.65,6163.2 L-9030.63,6163.21 L-8624.31,6163.21"/>
</g>

<g fill="none" stroke="#000000" stroke-opacity="1" stroke-width="1" stroke-linecap="square" stroke-linejoin="bevel" transform="matrix(0.999888,0,0,-0.999888,20993.9,6282.51)"
font-family="MS Shell Dlg 2" font-size="10.3125" font-weight="400" font-style="normal" 
>
</g>

<g fill="none" stroke="#000000" stroke-opacity="1" stroke-width="1" stroke-linecap="square" stroke-linejoin="bevel" transform="matrix(0.999888,0,0,-0.999888,20993.9,6282.51)"
font-family="MS Shell Dlg 2" font-size="10.3125" font-weight="400" font-style="normal" 
>
</g>

<g fill="#333333" fill-opacity="0.2" stroke="#333333" stroke-opacity="1" stroke-width="1" stroke-linecap="round" stroke-linejoin="round" transform="matrix(0.999888,0,0,-0.999888,20993.9,6282.51)"
font-family="MS Shell Dlg 2" font-size="10.3125" font-weight="400" font-style="normal" 
>
<path vector-effect="non-scaling-stroke" fill-rule="evenodd" d="M-9446.49,6065.06 L-9446.49,6065.02 L-9446.5,6064.98 L-9446.52,6064.96 L-9446.53,6064.96 L-9843.43,6065.32 L-9843.45,6065.32 L-9843.46,6065.35 L-9843.47,6065.38 L-9843.48,6065.42 L-9843.48,6163.11 L-9843.47,6163.14 L-9843.46,6163.18 L-9843.45,6163.2 L-9843.43,6163.21 L-9446.53,6163.21 L-9446.52,6163.2 L-9446.5,6163.18 L-9446.49,6163.14 L-9446.49,6163.11 L-9446.49,6065.06"/>
</g>

<g fill="none" stroke="#000000" stroke-opacity="1" stroke-width="1" stroke-linecap="square" stroke-linejoin="bevel" transform="matrix(0.999888,0,0,-0.999888,20993.9,6282.51)"
font-family="MS Shell Dlg 2" font-size="10.3125" font-weight="400" font-style="normal" 
>
</g>

<g fill="none" stroke="#000000" stroke-opacity="1" stroke-width="1" stroke-linecap="square" stroke-linejoin="bevel" transform="matrix(0.999888,0,0,-0.999888,20993.9,6282.51)"
font-family="MS Shell Dlg 2" font-size="10.3125" font-weight="400" font-style="normal" 
>
</g>

<g fill="#333333" fill-opacity="0.2" stroke="#333333" stroke-opacity="1" stroke-width="1" stroke-linecap="round" stroke-linejoin="round" transform="matrix(0.999888,0,0,-0.999888,20993.9,6282.51)"
font-family="MS Shell Dlg 2" font-size="10.3125" font-weight="400" font-style="normal" 
>
<path vector-effect="non-scaling-stroke" fill-rule="evenodd" d="M-9437.08,6281.36 L-9437.08,6281.4 L-9437.07,6281.43 L-9437.05,6281.45 L-9437.03,6281.46 L-9040.14,6281.1 L-9040.12,6281.09 L-9040.1,6281.07 L-9040.09,6281.04 L-9040.09,6281 L-9040.09,6183.31 L-9040.09,6183.27 L-9040.1,6183.24 L-9040.12,6183.22 L-9040.14,6183.21 L-9437.03,6183.21 L-9437.05,6183.22 L-9437.07,6183.24 L-9437.08,6183.27 L-9437.08,6183.31 L-9437.08,6281.36"/>
</g>

<g fill="none" stroke="#000000" stroke-opacity="1" stroke-width="1" stroke-linecap="square" stroke-linejoin="bevel" transform="matrix(0.999888,0,0,-0.999888,20993.9,6282.51)"
font-family="MS Shell Dlg 2" font-size="10.3125" font-weight="400" font-style="normal" 
>
</g>

<g fill="none" stroke="#000000" stroke-opacity="1" stroke-width="1" stroke-linecap="square" stroke-linejoin="bevel" transform="matrix(0.999888,0,0,-0.999888,20993.9,6282.51)"
font-family="MS Shell Dlg 2" font-size="10.3125" font-weight="400" font-style="normal" 
>
</g>

<g fill="#333333" fill-opacity="0.2" stroke="#333333" stroke-opacity="1" stroke-width="1" stroke-linecap="round" stroke-linejoin="round" transform="matrix(0.999888,0,0,-0.999888,20993.9,6282.51)"
font-family="MS Shell Dlg 2" font-size="10.3125" font-weight="400" font-style="normal" 
>
<path vector-effect="non-scaling-stroke" fill-rule="evenodd" d="M-10259.3,6183.21 L-10259.3,6183.22 L-10259.3,6183.24 L-10259.3,6183.27 L-10259.3,6183.31 L-10259.3,6282.11 L-10259.3,6282.15 L-10259.3,6282.18 L-10259.3,6282.2 L-10259.2,6282.21 L-9852.93,6281.84 L-9852.91,6281.83 L-9852.9,6281.81 L-9852.89,6281.78 L-9852.89,6281.74 L-9852.89,6183.31 L-9852.89,6183.27 L-9852.9,6183.24 L-9852.91,6183.22 L-9852.93,6183.21 L-10259.3,6183.21"/>
</g>

<g fill="none" stroke="#000000" stroke-opacity="1" stroke-width="1" stroke-linecap="square" stroke-linejoin="bevel" transform="matrix(0.999888,0,0,-0.999888,20993.9,6282.51)"
font-family="MS Shell Dlg 2" font-size="10.3125" font-weight="400" font-style="normal" 
>
</g>

<g fill="none" stroke="#000000" stroke-opacity="1" stroke-width="1" stroke-linecap="square" stroke-linejoin="bevel" transform="matrix(0.999888,0,0,-0.999888,20993.9,6282.51)"
font-family="MS Shell Dlg 2" font-size="10.3125" font-weight="400" font-style="normal" 
>
</g>

<g fill="#ae5151" fill-opacity="0.2" stroke="#333333" stroke-opacity="1" stroke-width="1" stroke-linecap="round" stroke-linejoin="round" transform="matrix(0.999888,0,0,-0.999888,20993.9,6282.51)"
font-family="MS Shell Dlg 2" font-size="10.3125" font-weight="400" font-style="normal" 
>
<path vector-effect="non-scaling-stroke" fill-rule="evenodd" d="M-20896.8,1738.77 L-20896.8,1738.75 L-20896.8,1738.74 L-20896.8,1738.73 L-20896.9,1738.72 L-20995.7,1738.74 L-20995.7,1738.75 L-20995.8,1738.76 L-20995.8,1738.77 L-20995.8,1738.79 L-20995.4,2145.09 L-20995.4,2145.11 L-20995.4,2145.13 L-20995.4,2145.14 L-20995.3,2145.14 L-20896.9,2145.14 L-20896.8,2145.14 L-20896.8,2145.13 L-20896.8,2145.11 L-20896.8,2145.09 L-20896.8,1738.77"/>
</g>

<g fill="none" stroke="#000000" stroke-opacity="1" stroke-width="1" stroke-linecap="square" stroke-linejoin="bevel" transform="matrix(0.999888,0,0,-0.999888,20993.9,6282.51)"
font-family="MS Shell Dlg 2" font-size="10.3125" font-weight="400" font-style="normal" 
>
</g>

<g fill="none" stroke="#000000" stroke-opacity="1" stroke-width="1" stroke-linecap="square" stroke-linejoin="bevel" transform="matrix(0.999888,0,0,-0.999888,20993.9,6282.51)"
font-family="MS Shell Dlg 2" font-size="10.3125" font-weight="400" font-style="normal" 
>
</g>

<g fill="#ae5151" fill-opacity="0.2" stroke="#333333" stroke-opacity="1" stroke-width="1" stroke-linecap="round" stroke-linejoin="round" transform="matrix(0.999888,0,0,-0.999888,20993.9,6282.51)"
font-family="MS Shell Dlg 2" font-size="10.3125" font-weight="400" font-style="normal" 
>
<path vector-effect="non-scaling-stroke" fill-rule="evenodd" d="M-20778.6,2551.54 L-20778.6,2551.53 L-20778.6,2551.52 L-20778.5,2551.51 L-20778.5,2551.49 L-20778.9,2154.59 L-20778.9,2154.58 L-20778.9,2154.56 L-20779,2154.55 L-20779,2154.55 L-20876.7,2154.55 L-20876.7,2154.55 L-20876.8,2154.56 L-20876.8,2154.58 L-20876.8,2154.59 L-20876.8,2551.49 L-20876.8,2551.51 L-20876.8,2551.52 L-20876.7,2551.53 L-20876.7,2551.54 L-20778.6,2551.54"/>
</g>

<g fill="none" stroke="#000000" stroke-opacity="1" stroke-width="1" stroke-linecap="square" stroke-linejoin="bevel" transform="matrix(0.999888,0,0,-0.999888,20993.9,6282.51)"
font-family="MS Shell Dlg 2" font-size="10.3125" font-weight="400" font-style="normal" 
>
</g>

<g fill="none" stroke="#000000" stroke-opacity="1" stroke-width="1" stroke-linecap="square" stroke-linejoin="bevel" transform="matrix(0.999888,0,0,-0.999888,20993.9,6282.51)"
font-family="MS Shell Dlg 2" font-size="10.3125" font-weight="400" font-style="normal" 
>
</g>

<g fill="#ae5151" fill-opacity="0.2" stroke="#333333" stroke-opacity="1" stroke-width="1" stroke-linecap="round" stroke-linejoin="round" transform="matrix(0.999888,0,0,-0.999888,20993.9,6282.51)"
font-family="MS Shell Dlg 2" font-size="10.3125" font-weight="400" font-style="normal" 
>
<path vector-effect="non-scaling-stroke" fill-rule="evenodd" d="M-20994.9,2560.95 L-20995,2560.95 L-20995,2560.96 L-20995,2560.97 L-20995,2560.99 L-20994.7,2957.89 L-20994.7,2957.91 L-20994.6,2957.92 L-20994.6,2957.93 L-20994.6,2957.94 L-20896.9,2957.94 L-20896.8,2957.93 L-20896.8,2957.92 L-20896.8,2957.91 L-20896.8,2957.89 L-20896.8,2560.99 L-20896.8,2560.97 L-20896.8,2560.96 L-20896.8,2560.95 L-20896.9,2560.95 L-20994.9,2560.95"/>
</g>

<g fill="none" stroke="#000000" stroke-opacity="1" stroke-width="1" stroke-linecap="square" stroke-linejoin="bevel" transform="matrix(0.999888,0,0,-0.999888,20993.9,6282.51)"
font-family="MS Shell Dlg 2" font-size="10.3125" font-weight="400" font-style="normal" 
>
</g>

<g fill="none" stroke="#000000" stroke-opacity="1" stroke-width="1" stroke-linecap="square" stroke-linejoin="bevel" transform="matrix(0.999888,0,0,-0.999888,20993.9,6282.51)"
font-family="MS Shell Dlg 2" font-size="10.3125" font-weight="400" font-style="normal" 
>
</g>

<g fill="#ae5151" fill-opacity="0.2" stroke="#333333" stroke-opacity="1" stroke-width="1" stroke-linecap="round" stroke-linejoin="round" transform="matrix(0.999888,0,0,-0.999888,20993.9,6282.51)"
font-family="MS Shell Dlg 2" font-size="10.3125" font-weight="400" font-style="normal" 
>
<path vector-effect="non-scaling-stroke" fill-rule="evenodd" d="M-20876.8,3373.71 L-20876.8,3373.73 L-20876.8,3373.75 L-20876.7,3373.76 L-20876.7,3373.76 L-20777.9,3373.74 L-20777.8,3373.74 L-20777.8,3373.73 L-20777.8,3373.71 L-20777.8,3373.69 L-20778.2,2967.39 L-20778.2,2967.37 L-20778.2,2967.36 L-20778.2,2967.35 L-20778.3,2967.34 L-20876.7,2967.34 L-20876.7,2967.35 L-20876.8,2967.36 L-20876.8,2967.37 L-20876.8,2967.39 L-20876.8,3373.71"/>
</g>

<g fill="none" stroke="#000000" stroke-opacity="1" stroke-width="1" stroke-linecap="square" stroke-linejoin="bevel" transform="matrix(0.999888,0,0,-0.999888,20993.9,6282.51)"
font-family="MS Shell Dlg 2" font-size="10.3125" font-weight="400" font-style="normal" 
>
</g>

<g fill="none" stroke="#000000" stroke-opacity="1" stroke-width="1" stroke-linecap="square" stroke-linejoin="bevel" transform="matrix(0.999888,0,0,-0.999888,20993.9,6282.51)"
font-family="MS Shell Dlg 2" font-size="10.3125" font-weight="400" font-style="normal" 
>
</g>

<g fill="#ae5151" fill-opacity="0.2" stroke="#333333" stroke-opacity="1" stroke-width="1" stroke-linecap="round" stroke-linejoin="round" transform="matrix(0.999888,0,0,-0.999888,20993.9,6282.51)"
font-family="MS Shell Dlg 2" font-size="10.3125" font-weight="400" font-style="normal" 
>
<path vector-effect="non-scaling-stroke" fill-rule="evenodd" d="M-8624.31,6163.21 L-8624.29,6163.2 L-8624.28,6163.18 L-8624.27,6163.14 L-8624.26,6163.11 L-8624.28,6064.31 L-8624.29,6064.27 L-8624.3,6064.24 L-8624.31,6064.22 L-8624.33,6064.21 L-9030.63,6064.58 L-9030.65,6064.59 L-9030.67,6064.61 L-9030.68,6064.64 L-9030.68,6064.68 L-9030.68,6163.11 L-9030.68,6163.14 L-9030.67,6163.18 L-9030.65,6163.2 L-9030.63,6163.21 L-8624.31,6163.21"/>
</g>

<g fill="none" stroke="#000000" stroke-opacity="1" stroke-width="1" stroke-linecap="square" stroke-linejoin="bevel" transform="matrix(0.999888,0,0,-0.999888,20993.9,6282.51)"
font-family="MS Shell Dlg 2" font-size="10.3125" font-weight="400" font-style="normal" 
>
</g>

<g fill="none" stroke="#000000" stroke-opacity="1" stroke-width="1" stroke-linecap="square" stroke-linejoin="bevel" transform="matrix(0.999888,0,0,-0.999888,20993.9,6282.51)"
font-family="MS Shell Dlg 2" font-size="10.3125" font-weight="400" font-style="normal" 
>
</g>

<g fill="#ae5151" fill-opacity="0.2" stroke="#333333" stroke-opacity="1" stroke-width="1" stroke-linecap="round" stroke-linejoin="round" transform="matrix(0.999888,0,0,-0.999888,20993.9,6282.51)"
font-family="MS Shell Dlg 2" font-size="10.3125" font-weight="400" font-style="normal" 
>
<path vector-effect="non-scaling-stroke" fill-rule="evenodd" d="M-9446.49,6065.06 L-9446.49,6065.02 L-9446.5,6064.98 L-9446.52,6064.96 L-9446.53,6064.96 L-9843.43,6065.32 L-9843.45,6065.32 L-9843.46,6065.35 L-9843.47,6065.38 L-9843.48,6065.42 L-9843.48,6163.11 L-9843.47,6163.14 L-9843.46,6163.18 L-9843.45,6163.2 L-9843.43,6163.21 L-9446.53,6163.21 L-9446.52,6163.2 L-9446.5,6163.18 L-9446.49,6163.14 L-9446.49,6163.11 L-9446.49,6065.06"/>
</g>

<g fill="none" stroke="#000000" stroke-opacity="1" stroke-width="1" stroke-linecap="square" stroke-linejoin="bevel" transform="matrix(0.999888,0,0,-0.999888,20993.9,6282.51)"
font-family="MS Shell Dlg 2" font-size="10.3125" font-weight="400" font-style="normal" 
>
</g>

<g fill="none" stroke="#000000" stroke-opacity="1" stroke-width="1" stroke-linecap="square" stroke-linejoin="bevel" transform="matrix(0.999888,0,0,-0.999888,20993.9,6282.51)"
font-family="MS Shell Dlg 2" font-size="10.3125" font-weight="400" font-style="normal" 
>
</g>

<g fill="#ae5151" fill-opacity="0.2" stroke="#333333" stroke-opacity="1" stroke-width="1" stroke-linecap="round" stroke-linejoin="round" transform="matrix(0.999888,0,0,-0.999888,20993.9,6282.51)"
font-family="MS Shell Dlg 2" font-size="10.3125" font-weight="400" font-style="normal" 
>
<path vector-effect="non-scaling-stroke" fill-rule="evenodd" d="M-9437.08,6281.36 L-9437.08,6281.4 L-9437.07,6281.43 L-9437.05,6281.45 L-9437.03,6281.46 L-9040.14,6281.1 L-9040.12,6281.09 L-9040.1,6281.07 L-9040.09,6281.04 L-9040.09,6281 L-9040.09,6183.31 L-9040.09,6183.27 L-9040.1,6183.24 L-9040.12,6183.22 L-9040.14,6183.21 L-9437.03,6183.21 L-9437.05,6183.22 L-9437.07,6183.24 L-9437.08,6183.27 L-9437.08,6183.31 L-9437.08,6281.36"/>
</g>

<g fill="none" stroke="#000000" stroke-opacity="1" stroke-width="1" stroke-linecap="square" stroke-linejoin="bevel" transform="matrix(0.999888,0,0,-0.999888,20993.9,6282.51)"
font-family="MS Shell Dlg 2" font-size="10.3125" font-weight="400" font-style="normal" 
>
</g>

<g fill="none" stroke="#000000" stroke-opacity="1" stroke-width="1" stroke-linecap="square" stroke-linejoin="bevel" transform="matrix(0.999888,0,0,-0.999888,20993.9,6282.51)"
font-family="MS Shell Dlg 2" font-size="10.3125" font-weight="400" font-style="normal" 
>
</g>

<g fill="#ae5151" fill-opacity="0.2" stroke="#333333" stroke-opacity="1" stroke-width="1" stroke-linecap="round" stroke-linejoin="round" transform="matrix(0.999888,0,0,-0.999888,20993.9,6282.51)"
font-family="MS Shell Dlg 2" font-size="10.3125" font-weight="400" font-style="normal" 
>
<path vector-effect="non-scaling-stroke" fill-rule="evenodd" d="M-10259.3,6183.21 L-10259.3,6183.22 L-10259.3,6183.24 L-10259.3,6183.27 L-10259.3,6183.31 L-10259.3,6282.11 L-10259.3,6282.15 L-10259.3,6282.18 L-10259.3,6282.2 L-10259.2,6282.21 L-9852.93,6281.84 L-9852.91,6281.83 L-9852.9,6281.81 L-9852.89,6281.78 L-9852.89,6281.74 L-9852.89,6183.31 L-9852.89,6183.27 L-9852.9,6183.24 L-9852.91,6183.22 L-9852.93,6183.21 L-10259.3,6183.21"/>
</g>

<g fill="none" stroke="#000000" stroke-opacity="1" stroke-width="1" stroke-linecap="square" stroke-linejoin="bevel" transform="matrix(0.999888,0,0,-0.999888,20993.9,6282.51)"
font-family="MS Shell Dlg 2" font-size="10.3125" font-weight="400" font-style="normal" 
>
</g>

<g fill="none" stroke="#000000" stroke-opacity="1" stroke-width="1" stroke-linecap="square" stroke-linejoin="bevel" transform="matrix(0.999888,0,0,-0.999888,20993.9,6282.51)"
font-family="MS Shell Dlg 2" font-size="10.3125" font-weight="400" font-style="normal" 
>
</g>

<g fill="#ffff00" fill-opacity="0.2" stroke="#333333" stroke-opacity="1" stroke-width="1" stroke-linecap="round" stroke-linejoin="round" transform="matrix(0.999888,0,0,-0.999888,20993.9,6282.51)"
font-family="MS Shell Dlg 2" font-size="10.3125" font-weight="400" font-style="normal" 
>
<path vector-effect="non-scaling-stroke" fill-rule="evenodd" d="M-20995.7,1738.74 L-20995.7,1738.75 L-20995.8,1738.76 L-20995.8,1738.77 L-20995.8,1738.79 L-20994.3,3373.74 L-20994.3,3373.76 L-20994.3,3373.77 L-20994.2,3373.78 L-20994.2,3373.79 L-20777.9,3373.74 L-20777.8,3373.74 L-20777.8,3373.73 L-20777.8,3373.71 L-20777.8,3373.69 L-20779.3,1738.75 L-20779.3,1738.73 L-20779.3,1738.71 L-20779.3,1738.7 L-20779.4,1738.7 L-20995.7,1738.74"/>
</g>

<g fill="none" stroke="#000000" stroke-opacity="1" stroke-width="1" stroke-linecap="square" stroke-linejoin="bevel" transform="matrix(0.999888,0,0,-0.999888,20993.9,6282.51)"
font-family="MS Shell Dlg 2" font-size="10.3125" font-weight="400" font-style="normal" 
>
</g>

<g fill="none" stroke="#000000" stroke-opacity="1" stroke-width="1" stroke-linecap="square" stroke-linejoin="bevel" transform="matrix(0.999888,0,0,-0.999888,20993.9,6282.51)"
font-family="MS Shell Dlg 2" font-size="10.3125" font-weight="400" font-style="normal" 
>
</g>

<g fill="#ffff00" fill-opacity="0.2" stroke="#333333" stroke-opacity="1" stroke-width="1" stroke-linecap="round" stroke-linejoin="round" transform="matrix(0.999888,0,0,-0.999888,20993.9,6282.51)"
font-family="MS Shell Dlg 2" font-size="10.3125" font-weight="400" font-style="normal" 
>
<path vector-effect="non-scaling-stroke" fill-rule="evenodd" d="M-8624.28,6064.31 L-8624.29,6064.27 L-8624.3,6064.24 L-8624.31,6064.22 L-8624.33,6064.21 L-10259.3,6065.69 L-10259.3,6065.7 L-10259.3,6065.72 L-10259.3,6065.76 L-10259.3,6065.79 L-10259.3,6282.11 L-10259.3,6282.15 L-10259.3,6282.18 L-10259.3,6282.2 L-10259.2,6282.21 L-8624.29,6280.72 L-8624.27,6280.72 L-8624.25,6280.69 L-8624.24,6280.66 L-8624.24,6280.62 L-8624.28,6064.31 M-9734.28,6203.21 L-9734.28,6143.21 L-9144.28,6143.21 L-9144.28,6203.21 L-9734.28,6203.21"/>
</g>

<g fill="none" stroke="#000000" stroke-opacity="1" stroke-width="1" stroke-linecap="square" stroke-linejoin="bevel" transform="matrix(0.999888,0,0,-0.999888,20993.9,6282.51)"
font-family="MS Shell Dlg 2" font-size="10.3125" font-weight="400" font-style="normal" 
>
</g>

<g fill="none" stroke="#000000" stroke-opacity="1" stroke-width="1" stroke-linecap="square" stroke-linejoin="bevel" transform="matrix(0.999888,0,0,-0.999888,20993.9,6282.51)"
font-family="MS Shell Dlg 2" font-size="10.3125" font-weight="400" font-style="normal" 
>
</g>

<g fill="#ae5151" fill-opacity="0.2" stroke="#333333" stroke-opacity="1" stroke-width="1" stroke-linecap="round" stroke-linejoin="round" transform="matrix(0.999888,0,0,-0.999888,20993.9,6282.51)"
font-family="MS Shell Dlg 2" font-size="10.3125" font-weight="400" font-style="normal" 
>
<path vector-effect="non-scaling-stroke" fill-rule="evenodd" d="M-20876.7,1738.72 L-20876.7,1738.72 L-20876.8,1738.73 L-20876.8,1738.75 L-20876.8,1738.76 L-20876.8,2145.09 L-20876.8,2145.11 L-20876.8,2145.13 L-20876.7,2145.14 L-20876.7,2145.14 L-20779,2145.14 L-20779,2145.14 L-20778.9,2145.13 L-20778.9,2145.11 L-20778.9,2145.09 L-20779.3,1738.75 L-20779.3,1738.73 L-20779.3,1738.71 L-20779.3,1738.7 L-20779.4,1738.7 L-20876.7,1738.72"/>
</g>

<g fill="none" stroke="#000000" stroke-opacity="1" stroke-width="1" stroke-linecap="square" stroke-linejoin="bevel" transform="matrix(0.999888,0,0,-0.999888,20993.9,6282.51)"
font-family="MS Shell Dlg 2" font-size="10.3125" font-weight="400" font-style="normal" 
>
</g>

<g fill="none" stroke="#000000" stroke-opacity="1" stroke-width="1" stroke-linecap="square" stroke-linejoin="bevel" transform="matrix(0.999888,0,0,-0.999888,20993.9,6282.51)"
font-family="MS Shell Dlg 2" font-size="10.3125" font-weight="400" font-style="normal" 
>
</g>

<g fill="#ae5151" fill-opacity="0.2" stroke="#333333" stroke-opacity="1" stroke-width="1" stroke-linecap="round" stroke-linejoin="round" transform="matrix(0.999888,0,0,-0.999888,20993.9,6282.51)"
font-family="MS Shell Dlg 2" font-size="10.3125" font-weight="400" font-style="normal" 
>
<path vector-effect="non-scaling-stroke" fill-rule="evenodd" d="M-20995.3,2154.55 L-20995.3,2154.55 L-20995.4,2154.56 L-20995.4,2154.58 L-20995.4,2154.59 L-20995,2551.49 L-20995,2551.51 L-20995,2551.52 L-20995,2551.53 L-20994.9,2551.54 L-20896.9,2551.54 L-20896.8,2551.53 L-20896.8,2551.52 L-20896.8,2551.51 L-20896.8,2551.49 L-20896.8,2154.59 L-20896.8,2154.58 L-20896.8,2154.56 L-20896.8,2154.55 L-20896.9,2154.55 L-20995.3,2154.55"/>
</g>

<g fill="none" stroke="#000000" stroke-opacity="1" stroke-width="1" stroke-linecap="square" stroke-linejoin="bevel" transform="matrix(0.999888,0,0,-0.999888,20993.9,6282.51)"
font-family="MS Shell Dlg 2" font-size="10.3125" font-weight="400" font-style="normal" 
>
</g>

<g fill="none" stroke="#000000" stroke-opacity="1" stroke-width="1" stroke-linecap="square" stroke-linejoin="bevel" transform="matrix(0.999888,0,0,-0.999888,20993.9,6282.51)"
font-family="MS Shell Dlg 2" font-size="10.3125" font-weight="400" font-style="normal" 
>
</g>

<g fill="#ae5151" fill-opacity="0.2" stroke="#333333" stroke-opacity="1" stroke-width="1" stroke-linecap="round" stroke-linejoin="round" transform="matrix(0.999888,0,0,-0.999888,20993.9,6282.51)"
font-family="MS Shell Dlg 2" font-size="10.3125" font-weight="400" font-style="normal" 
>
<path vector-effect="non-scaling-stroke" fill-rule="evenodd" d="M-20778.3,2957.94 L-20778.2,2957.93 L-20778.2,2957.92 L-20778.2,2957.91 L-20778.2,2957.89 L-20778.5,2560.99 L-20778.5,2560.97 L-20778.6,2560.96 L-20778.6,2560.95 L-20778.6,2560.95 L-20876.7,2560.95 L-20876.7,2560.95 L-20876.8,2560.96 L-20876.8,2560.97 L-20876.8,2560.99 L-20876.8,2957.89 L-20876.8,2957.91 L-20876.8,2957.92 L-20876.7,2957.93 L-20876.7,2957.94 L-20778.3,2957.94"/>
</g>

<g fill="none" stroke="#000000" stroke-opacity="1" stroke-width="1" stroke-linecap="square" stroke-linejoin="bevel" transform="matrix(0.999888,0,0,-0.999888,20993.9,6282.51)"
font-family="MS Shell Dlg 2" font-size="10.3125" font-weight="400" font-style="normal" 
>
</g>

<g fill="none" stroke="#000000" stroke-opacity="1" stroke-width="1" stroke-linecap="square" stroke-linejoin="bevel" transform="matrix(0.999888,0,0,-0.999888,20993.9,6282.51)"
font-family="MS Shell Dlg 2" font-size="10.3125" font-weight="400" font-style="normal" 
>
</g>

<g fill="#ae5151" fill-opacity="0.2" stroke="#333333" stroke-opacity="1" stroke-width="1" stroke-linecap="round" stroke-linejoin="round" transform="matrix(0.999888,0,0,-0.999888,20993.9,6282.51)"
font-family="MS Shell Dlg 2" font-size="10.3125" font-weight="400" font-style="normal" 
>
<path vector-effect="non-scaling-stroke" fill-rule="evenodd" d="M-20994.6,2967.34 L-20994.6,2967.35 L-20994.6,2967.36 L-20994.7,2967.37 L-20994.7,2967.39 L-20994.3,3373.74 L-20994.3,3373.76 L-20994.3,3373.77 L-20994.2,3373.78 L-20994.2,3373.79 L-20896.9,3373.77 L-20896.8,3373.76 L-20896.8,3373.75 L-20896.8,3373.74 L-20896.8,3373.72 L-20896.8,2967.39 L-20896.8,2967.37 L-20896.8,2967.36 L-20896.8,2967.35 L-20896.9,2967.34 L-20994.6,2967.34"/>
</g>

<g fill="none" stroke="#000000" stroke-opacity="1" stroke-width="1" stroke-linecap="square" stroke-linejoin="bevel" transform="matrix(0.999888,0,0,-0.999888,20993.9,6282.51)"
font-family="MS Shell Dlg 2" font-size="10.3125" font-weight="400" font-style="normal" 
>
</g>

<g fill="none" stroke="#000000" stroke-opacity="1" stroke-width="1" stroke-linecap="square" stroke-linejoin="bevel" transform="matrix(0.999888,0,0,-0.999888,20993.9,6282.51)"
font-family="MS Shell Dlg 2" font-size="10.3125" font-weight="400" font-style="normal" 
>
</g>

<g fill="#ae5151" fill-opacity="0.2" stroke="#333333" stroke-opacity="1" stroke-width="1" stroke-linecap="round" stroke-linejoin="round" transform="matrix(0.999888,0,0,-0.999888,20993.9,6282.51)"
font-family="MS Shell Dlg 2" font-size="10.3125" font-weight="400" font-style="normal" 
>
<path vector-effect="non-scaling-stroke" fill-rule="evenodd" d="M-9040.09,6064.69 L-9040.09,6064.65 L-9040.1,6064.62 L-9040.12,6064.59 L-9040.14,6064.59 L-9437.03,6064.95 L-9437.05,6064.95 L-9437.07,6064.98 L-9437.08,6065.01 L-9437.08,6065.05 L-9437.08,6163.11 L-9437.08,6163.15 L-9437.07,6163.18 L-9437.05,6163.2 L-9437.03,6163.21 L-9040.14,6163.21 L-9040.12,6163.2 L-9040.1,6163.18 L-9040.09,6163.15 L-9040.09,6163.11 L-9040.09,6064.69"/>
</g>

<g fill="none" stroke="#000000" stroke-opacity="1" stroke-width="1" stroke-linecap="square" stroke-linejoin="bevel" transform="matrix(0.999888,0,0,-0.999888,20993.9,6282.51)"
font-family="MS Shell Dlg 2" font-size="10.3125" font-weight="400" font-style="normal" 
>
</g>

<g fill="none" stroke="#000000" stroke-opacity="1" stroke-width="1" stroke-linecap="square" stroke-linejoin="bevel" transform="matrix(0.999888,0,0,-0.999888,20993.9,6282.51)"
font-family="MS Shell Dlg 2" font-size="10.3125" font-weight="400" font-style="normal" 
>
</g>

<g fill="#ae5151" fill-opacity="0.2" stroke="#333333" stroke-opacity="1" stroke-width="1" stroke-linecap="round" stroke-linejoin="round" transform="matrix(0.999888,0,0,-0.999888,20993.9,6282.51)"
font-family="MS Shell Dlg 2" font-size="10.3125" font-weight="400" font-style="normal" 
>
<path vector-effect="non-scaling-stroke" fill-rule="evenodd" d="M-9852.89,6065.42 L-9852.89,6065.39 L-9852.9,6065.35 L-9852.91,6065.33 L-9852.93,6065.32 L-10259.3,6065.69 L-10259.3,6065.7 L-10259.3,6065.72 L-10259.3,6065.76 L-10259.3,6065.79 L-10259.3,6163.11 L-10259.3,6163.15 L-10259.3,6163.18 L-10259.3,6163.2 L-10259.3,6163.21 L-9852.93,6163.21 L-9852.91,6163.2 L-9852.9,6163.18 L-9852.89,6163.15 L-9852.89,6163.11 L-9852.89,6065.42"/>
</g>

<g fill="none" stroke="#000000" stroke-opacity="1" stroke-width="1" stroke-linecap="square" stroke-linejoin="bevel" transform="matrix(0.999888,0,0,-0.999888,20993.9,6282.51)"
font-family="MS Shell Dlg 2" font-size="10.3125" font-weight="400" font-style="normal" 
>
</g>

<g fill="none" stroke="#000000" stroke-opacity="1" stroke-width="1" stroke-linecap="square" stroke-linejoin="bevel" transform="matrix(0.999888,0,0,-0.999888,20993.9,6282.51)"
font-family="MS Shell Dlg 2" font-size="10.3125" font-weight="400" font-style="normal" 
>
</g>

<g fill="#ae5151" fill-opacity="0.2" stroke="#333333" stroke-opacity="1" stroke-width="1" stroke-linecap="round" stroke-linejoin="round" transform="matrix(0.999888,0,0,-0.999888,20993.9,6282.51)"
font-family="MS Shell Dlg 2" font-size="10.3125" font-weight="400" font-style="normal" 
>
<path vector-effect="non-scaling-stroke" fill-rule="evenodd" d="M-8624.26,6183.31 L-8624.26,6183.27 L-8624.27,6183.24 L-8624.29,6183.22 L-8624.31,6183.21 L-9030.63,6183.21 L-9030.65,6183.22 L-9030.67,6183.24 L-9030.68,6183.27 L-9030.68,6183.31 L-9030.68,6280.99 L-9030.68,6281.03 L-9030.67,6281.06 L-9030.65,6281.09 L-9030.63,6281.09 L-8624.29,6280.72 L-8624.27,6280.72 L-8624.25,6280.69 L-8624.24,6280.66 L-8624.24,6280.62 L-8624.26,6183.31"/>
</g>

<g fill="none" stroke="#000000" stroke-opacity="1" stroke-width="1" stroke-linecap="square" stroke-linejoin="bevel" transform="matrix(0.999888,0,0,-0.999888,20993.9,6282.51)"
font-family="MS Shell Dlg 2" font-size="10.3125" font-weight="400" font-style="normal" 
>
</g>

<g fill="none" stroke="#000000" stroke-opacity="1" stroke-width="1" stroke-linecap="square" stroke-linejoin="bevel" transform="matrix(0.999888,0,0,-0.999888,20993.9,6282.51)"
font-family="MS Shell Dlg 2" font-size="10.3125" font-weight="400" font-style="normal" 
>
</g>

<g fill="#ae5151" fill-opacity="0.2" stroke="#333333" stroke-opacity="1" stroke-width="1" stroke-linecap="round" stroke-linejoin="round" transform="matrix(0.999888,0,0,-0.999888,20993.9,6282.51)"
font-family="MS Shell Dlg 2" font-size="10.3125" font-weight="400" font-style="normal" 
>
<path vector-effect="non-scaling-stroke" fill-rule="evenodd" d="M-9843.48,6281.73 L-9843.47,6281.77 L-9843.46,6281.8 L-9843.45,6281.82 L-9843.43,6281.83 L-9446.53,6281.47 L-9446.52,6281.46 L-9446.5,6281.44 L-9446.49,6281.41 L-9446.49,6281.37 L-9446.49,6183.31 L-9446.49,6183.27 L-9446.5,6183.24 L-9446.52,6183.22 L-9446.53,6183.21 L-9843.43,6183.21 L-9843.45,6183.22 L-9843.46,6183.24 L-9843.47,6183.27 L-9843.48,6183.31 L-9843.48,6281.73"/>
</g>

<g fill="none" stroke="#000000" stroke-opacity="1" stroke-width="1" stroke-linecap="square" stroke-linejoin="bevel" transform="matrix(0.999888,0,0,-0.999888,20993.9,6282.51)"
font-family="MS Shell Dlg 2" font-size="10.3125" font-weight="400" font-style="normal" 
>
</g>

<g fill="none" stroke="#000000" stroke-opacity="1" stroke-width="1" stroke-linecap="square" stroke-linejoin="bevel" transform="matrix(0.999888,0,0,-0.999888,20993.9,6282.51)"
font-family="MS Shell Dlg 2" font-size="10.3125" font-weight="400" font-style="normal" 
>
</g>

<g fill="#333333" fill-opacity="0.2" stroke="#333333" stroke-opacity="1" stroke-width="1" stroke-linecap="round" stroke-linejoin="round" transform="matrix(0.999888,0,0,-0.999888,20993.9,6282.51)"
font-family="MS Shell Dlg 2" font-size="10.3125" font-weight="400" font-style="normal" 
>
<path vector-effect="non-scaling-stroke" fill-rule="evenodd" d="M-20876.7,1738.72 L-20876.7,1738.72 L-20876.8,1738.73 L-20876.8,1738.75 L-20876.8,1738.76 L-20876.8,2145.09 L-20876.8,2145.11 L-20876.8,2145.13 L-20876.7,2145.14 L-20876.7,2145.14 L-20779,2145.14 L-20779,2145.14 L-20778.9,2145.13 L-20778.9,2145.11 L-20778.9,2145.09 L-20779.3,1738.75 L-20779.3,1738.73 L-20779.3,1738.71 L-20779.3,1738.7 L-20779.4,1738.7 L-20876.7,1738.72"/>
</g>

<g fill="none" stroke="#000000" stroke-opacity="1" stroke-width="1" stroke-linecap="square" stroke-linejoin="bevel" transform="matrix(0.999888,0,0,-0.999888,20993.9,6282.51)"
font-family="MS Shell Dlg 2" font-size="10.3125" font-weight="400" font-style="normal" 
>
</g>

<g fill="none" stroke="#000000" stroke-opacity="1" stroke-width="1" stroke-linecap="square" stroke-linejoin="bevel" transform="matrix(0.999888,0,0,-0.999888,20993.9,6282.51)"
font-family="MS Shell Dlg 2" font-size="10.3125" font-weight="400" font-style="normal" 
>
</g>

<g fill="#333333" fill-opacity="0.2" stroke="#333333" stroke-opacity="1" stroke-width="1" stroke-linecap="round" stroke-linejoin="round" transform="matrix(0.999888,0,0,-0.999888,20993.9,6282.51)"
font-family="MS Shell Dlg 2" font-size="10.3125" font-weight="400" font-style="normal" 
>
<path vector-effect="non-scaling-stroke" fill-rule="evenodd" d="M-20995.3,2154.55 L-20995.3,2154.55 L-20995.4,2154.56 L-20995.4,2154.58 L-20995.4,2154.59 L-20995,2551.49 L-20995,2551.51 L-20995,2551.52 L-20995,2551.53 L-20994.9,2551.54 L-20896.9,2551.54 L-20896.8,2551.53 L-20896.8,2551.52 L-20896.8,2551.51 L-20896.8,2551.49 L-20896.8,2154.59 L-20896.8,2154.58 L-20896.8,2154.56 L-20896.8,2154.55 L-20896.9,2154.55 L-20995.3,2154.55"/>
</g>

<g fill="none" stroke="#000000" stroke-opacity="1" stroke-width="1" stroke-linecap="square" stroke-linejoin="bevel" transform="matrix(0.999888,0,0,-0.999888,20993.9,6282.51)"
font-family="MS Shell Dlg 2" font-size="10.3125" font-weight="400" font-style="normal" 
>
</g>

<g fill="none" stroke="#000000" stroke-opacity="1" stroke-width="1" stroke-linecap="square" stroke-linejoin="bevel" transform="matrix(0.999888,0,0,-0.999888,20993.9,6282.51)"
font-family="MS Shell Dlg 2" font-size="10.3125" font-weight="400" font-style="normal" 
>
</g>

<g fill="#333333" fill-opacity="0.2" stroke="#333333" stroke-opacity="1" stroke-width="1" stroke-linecap="round" stroke-linejoin="round" transform="matrix(0.999888,0,0,-0.999888,20993.9,6282.51)"
font-family="MS Shell Dlg 2" font-size="10.3125" font-weight="400" font-style="normal" 
>
<path vector-effect="non-scaling-stroke" fill-rule="evenodd" d="M-20778.3,2957.94 L-20778.2,2957.93 L-20778.2,2957.92 L-20778.2,2957.91 L-20778.2,2957.89 L-20778.5,2560.99 L-20778.5,2560.97 L-20778.6,2560.96 L-20778.6,2560.95 L-20778.6,2560.95 L-20876.7,2560.95 L-20876.7,2560.95 L-20876.8,2560.96 L-20876.8,2560.97 L-20876.8,2560.99 L-20876.8,2957.89 L-20876.8,2957.91 L-20876.8,2957.92 L-20876.7,2957.93 L-20876.7,2957.94 L-20778.3,2957.94"/>
</g>

<g fill="none" stroke="#000000" stroke-opacity="1" stroke-width="1" stroke-linecap="square" stroke-linejoin="bevel" transform="matrix(0.999888,0,0,-0.999888,20993.9,6282.51)"
font-family="MS Shell Dlg 2" font-size="10.3125" font-weight="400" font-style="normal" 
>
</g>

<g fill="none" stroke="#000000" stroke-opacity="1" stroke-width="1" stroke-linecap="square" stroke-linejoin="bevel" transform="matrix(0.999888,0,0,-0.999888,20993.9,6282.51)"
font-family="MS Shell Dlg 2" font-size="10.3125" font-weight="400" font-style="normal" 
>
</g>

<g fill="#333333" fill-opacity="0.2" stroke="#333333" stroke-opacity="1" stroke-width="1" stroke-linecap="round" stroke-linejoin="round" transform="matrix(0.999888,0,0,-0.999888,20993.9,6282.51)"
font-family="MS Shell Dlg 2" font-size="10.3125" font-weight="400" font-style="normal" 
>
<path vector-effect="non-scaling-stroke" fill-rule="evenodd" d="M-20994.6,2967.34 L-20994.6,2967.35 L-20994.6,2967.36 L-20994.7,2967.37 L-20994.7,2967.39 L-20994.3,3373.74 L-20994.3,3373.76 L-20994.3,3373.77 L-20994.2,3373.78 L-20994.2,3373.79 L-20896.9,3373.77 L-20896.8,3373.76 L-20896.8,3373.75 L-20896.8,3373.74 L-20896.8,3373.72 L-20896.8,2967.39 L-20896.8,2967.37 L-20896.8,2967.36 L-20896.8,2967.35 L-20896.9,2967.34 L-20994.6,2967.34"/>
</g>

<g fill="none" stroke="#000000" stroke-opacity="1" stroke-width="1" stroke-linecap="square" stroke-linejoin="bevel" transform="matrix(0.999888,0,0,-0.999888,20993.9,6282.51)"
font-family="MS Shell Dlg 2" font-size="10.3125" font-weight="400" font-style="normal" 
>
</g>

<g fill="none" stroke="#000000" stroke-opacity="1" stroke-width="1" stroke-linecap="square" stroke-linejoin="bevel" transform="matrix(0.999888,0,0,-0.999888,20993.9,6282.51)"
font-family="MS Shell Dlg 2" font-size="10.3125" font-weight="400" font-style="normal" 
>
</g>

<g fill="#333333" fill-opacity="0.2" stroke="#333333" stroke-opacity="1" stroke-width="1" stroke-linecap="round" stroke-linejoin="round" transform="matrix(0.999888,0,0,-0.999888,20993.9,6282.51)"
font-family="MS Shell Dlg 2" font-size="10.3125" font-weight="400" font-style="normal" 
>
<path vector-effect="non-scaling-stroke" fill-rule="evenodd" d="M-9040.09,6064.69 L-9040.09,6064.65 L-9040.1,6064.62 L-9040.12,6064.59 L-9040.14,6064.59 L-9437.03,6064.95 L-9437.05,6064.95 L-9437.07,6064.98 L-9437.08,6065.01 L-9437.08,6065.05 L-9437.08,6163.11 L-9437.08,6163.15 L-9437.07,6163.18 L-9437.05,6163.2 L-9437.03,6163.21 L-9040.14,6163.21 L-9040.12,6163.2 L-9040.1,6163.18 L-9040.09,6163.15 L-9040.09,6163.11 L-9040.09,6064.69"/>
</g>

<g fill="none" stroke="#000000" stroke-opacity="1" stroke-width="1" stroke-linecap="square" stroke-linejoin="bevel" transform="matrix(0.999888,0,0,-0.999888,20993.9,6282.51)"
font-family="MS Shell Dlg 2" font-size="10.3125" font-weight="400" font-style="normal" 
>
</g>

<g fill="none" stroke="#000000" stroke-opacity="1" stroke-width="1" stroke-linecap="square" stroke-linejoin="bevel" transform="matrix(0.999888,0,0,-0.999888,20993.9,6282.51)"
font-family="MS Shell Dlg 2" font-size="10.3125" font-weight="400" font-style="normal" 
>
</g>

<g fill="#333333" fill-opacity="0.2" stroke="#333333" stroke-opacity="1" stroke-width="1" stroke-linecap="round" stroke-linejoin="round" transform="matrix(0.999888,0,0,-0.999888,20993.9,6282.51)"
font-family="MS Shell Dlg 2" font-size="10.3125" font-weight="400" font-style="normal" 
>
<path vector-effect="non-scaling-stroke" fill-rule="evenodd" d="M-9852.89,6065.42 L-9852.89,6065.39 L-9852.9,6065.35 L-9852.91,6065.33 L-9852.93,6065.32 L-10259.3,6065.69 L-10259.3,6065.7 L-10259.3,6065.72 L-10259.3,6065.76 L-10259.3,6065.79 L-10259.3,6163.11 L-10259.3,6163.15 L-10259.3,6163.18 L-10259.3,6163.2 L-10259.3,6163.21 L-9852.93,6163.21 L-9852.91,6163.2 L-9852.9,6163.18 L-9852.89,6163.15 L-9852.89,6163.11 L-9852.89,6065.42"/>
</g>

<g fill="none" stroke="#000000" stroke-opacity="1" stroke-width="1" stroke-linecap="square" stroke-linejoin="bevel" transform="matrix(0.999888,0,0,-0.999888,20993.9,6282.51)"
font-family="MS Shell Dlg 2" font-size="10.3125" font-weight="400" font-style="normal" 
>
</g>

<g fill="none" stroke="#000000" stroke-opacity="1" stroke-width="1" stroke-linecap="square" stroke-linejoin="bevel" transform="matrix(0.999888,0,0,-0.999888,20993.9,6282.51)"
font-family="MS Shell Dlg 2" font-size="10.3125" font-weight="400" font-style="normal" 
>
</g>

<g fill="#333333" fill-opacity="0.2" stroke="#333333" stroke-opacity="1" stroke-width="1" stroke-linecap="round" stroke-linejoin="round" transform="matrix(0.999888,0,0,-0.999888,20993.9,6282.51)"
font-family="MS Shell Dlg 2" font-size="10.3125" font-weight="400" font-style="normal" 
>
<path vector-effect="non-scaling-stroke" fill-rule="evenodd" d="M-8624.26,6183.31 L-8624.26,6183.27 L-8624.27,6183.24 L-8624.29,6183.22 L-8624.31,6183.21 L-9030.63,6183.21 L-9030.65,6183.22 L-9030.67,6183.24 L-9030.68,6183.27 L-9030.68,6183.31 L-9030.68,6280.99 L-9030.68,6281.03 L-9030.67,6281.06 L-9030.65,6281.09 L-9030.63,6281.09 L-8624.29,6280.72 L-8624.27,6280.72 L-8624.25,6280.69 L-8624.24,6280.66 L-8624.24,6280.62 L-8624.26,6183.31"/>
</g>

<g fill="none" stroke="#000000" stroke-opacity="1" stroke-width="1" stroke-linecap="square" stroke-linejoin="bevel" transform="matrix(0.999888,0,0,-0.999888,20993.9,6282.51)"
font-family="MS Shell Dlg 2" font-size="10.3125" font-weight="400" font-style="normal" 
>
</g>

<g fill="none" stroke="#000000" stroke-opacity="1" stroke-width="1" stroke-linecap="square" stroke-linejoin="bevel" transform="matrix(0.999888,0,0,-0.999888,20993.9,6282.51)"
font-family="MS Shell Dlg 2" font-size="10.3125" font-weight="400" font-style="normal" 
>
</g>

<g fill="#333333" fill-opacity="0.2" stroke="#333333" stroke-opacity="1" stroke-width="1" stroke-linecap="round" stroke-linejoin="round" transform="matrix(0.999888,0,0,-0.999888,20993.9,6282.51)"
font-family="MS Shell Dlg 2" font-size="10.3125" font-weight="400" font-style="normal" 
>
<path vector-effect="non-scaling-stroke" fill-rule="evenodd" d="M-9843.48,6281.73 L-9843.47,6281.77 L-9843.46,6281.8 L-9843.45,6281.82 L-9843.43,6281.83 L-9446.53,6281.47 L-9446.52,6281.46 L-9446.5,6281.44 L-9446.49,6281.41 L-9446.49,6281.37 L-9446.49,6183.31 L-9446.49,6183.27 L-9446.5,6183.24 L-9446.52,6183.22 L-9446.53,6183.21 L-9843.43,6183.21 L-9843.45,6183.22 L-9843.46,6183.24 L-9843.47,6183.27 L-9843.48,6183.31 L-9843.48,6281.73"/>
</g>

<g fill="none" stroke="#000000" stroke-opacity="1" stroke-width="1" stroke-linecap="square" stroke-linejoin="bevel" transform="matrix(0.999888,0,0,-0.999888,20993.9,6282.51)"
font-family="MS Shell Dlg 2" font-size="10.3125" font-weight="400" font-style="normal" 
>
</g>

<g fill="none" stroke="#000000" stroke-opacity="1" stroke-width="1" stroke-linecap="square" stroke-linejoin="bevel" transform="matrix(1,0,0,-1,0,4544.51)"
font-family="MS Shell Dlg 2" font-size="10.3125" font-weight="400" font-style="normal" 
>
</g>
</g>
</svg>
