<?xml version="1.0" encoding="UTF-8" standalone="no"?>
<svg width="1313.18mm" height="839.047mm"
 xmlns="http://www.w3.org/2000/svg" xmlns:xlink="http://www.w3.org/1999/xlink"  version="1.2" baseProfile="tiny">
<title>SVG Generator Example Drawing</title>
<desc>An SVG drawing created by the SVG Generator</desc>
<defs>
</defs>
<g fill="none" stroke="black" stroke-width="1" fill-rule="evenodd" stroke-linecap="square" stroke-linejoin="bevel" >

<g fill="none" stroke="#000000" stroke-opacity="1" stroke-width="1" stroke-linecap="square" stroke-linejoin="bevel" transform="matrix(1,0,0,-1,0,2973.71)"
font-family="MS Shell Dlg 2" font-size="10.3125" font-weight="400" font-style="normal" 
>
</g>

<g fill="none" stroke="#000000" stroke-opacity="1" stroke-width="1" stroke-linecap="square" stroke-linejoin="bevel" transform="matrix(1,0,0,-1,0,2973.71)"
font-family="MS Shell Dlg 2" font-size="10.3125" font-weight="400" font-style="normal" 
>
</g>

<g fill="none" stroke="#000000" stroke-opacity="1" stroke-width="1" stroke-linecap="square" stroke-linejoin="bevel" transform="matrix(0.999762,0,0,-0.999762,-10341.9,-9866.9)"
font-family="MS Shell Dlg 2" font-size="10.3125" font-weight="400" font-style="normal" 
>
</g>

<g fill="#333333" fill-opacity="0.2" stroke="#333333" stroke-opacity="1" stroke-width="1" stroke-linecap="round" stroke-linejoin="round" transform="matrix(0.999762,0,0,-0.999762,-10341.9,-9866.9)"
font-family="MS Shell Dlg 2" font-size="10.3125" font-weight="400" font-style="normal" 
>
<path vector-effect="non-scaling-stroke" fill-rule="evenodd" d="M10691,-12618.8 L10681.3,-12664.8 L10654.8,-12703.5 L10615.5,-12729.2 L10569.3,-12737.8 L10523.4,-12728.2 L10484.6,-12701.6 L10459,-12662.3 L10450.3,-12616.1 L10479.6,-9989.96 L10489.3,-9944.01 L10515.8,-9905.26 L10555.1,-9879.61 L10601.3,-9870.96 L10647.2,-9880.63 L10686,-9907.15 L10711.6,-9946.49 L10720.3,-9992.64 L10691,-12618.8"/>
</g>

<g fill="none" stroke="#000000" stroke-opacity="1" stroke-width="1" stroke-linecap="square" stroke-linejoin="bevel" transform="matrix(0.999762,0,0,-0.999762,-10341.9,-9866.9)"
font-family="MS Shell Dlg 2" font-size="10.3125" font-weight="400" font-style="normal" 
>
</g>

<g fill="none" stroke="#000000" stroke-opacity="1" stroke-width="1" stroke-linecap="square" stroke-linejoin="bevel" transform="matrix(0.999762,0,0,-0.999762,-10341.9,-9866.9)"
font-family="MS Shell Dlg 2" font-size="10.3125" font-weight="400" font-style="normal" 
>
</g>

<g fill="#ae5151" fill-opacity="0.2" stroke="#333333" stroke-opacity="1" stroke-width="1" stroke-linecap="round" stroke-linejoin="round" transform="matrix(0.999762,0,0,-0.999762,-10341.9,-9866.9)"
font-family="MS Shell Dlg 2" font-size="10.3125" font-weight="400" font-style="normal" 
>
<path vector-effect="non-scaling-stroke" fill-rule="evenodd" d="M10691,-12618.8 L10681.3,-12664.8 L10654.8,-12703.5 L10615.5,-12729.2 L10569.3,-12737.8 L10523.4,-12728.2 L10484.6,-12701.6 L10459,-12662.3 L10450.3,-12616.1 L10479.6,-9989.96 L10489.3,-9944.01 L10515.8,-9905.26 L10555.1,-9879.61 L10601.3,-9870.96 L10647.2,-9880.63 L10686,-9907.15 L10711.6,-9946.49 L10720.3,-9992.64 L10691,-12618.8"/>
</g>

<g fill="none" stroke="#000000" stroke-opacity="1" stroke-width="1" stroke-linecap="square" stroke-linejoin="bevel" transform="matrix(0.999762,0,0,-0.999762,-10341.9,-9866.9)"
font-family="MS Shell Dlg 2" font-size="10.3125" font-weight="400" font-style="normal" 
>
</g>

<g fill="none" stroke="#000000" stroke-opacity="1" stroke-width="1" stroke-linecap="square" stroke-linejoin="bevel" transform="matrix(0.999762,0,0,-0.999762,-10341.9,-9866.9)"
font-family="MS Shell Dlg 2" font-size="10.3125" font-weight="400" font-style="normal" 
>
</g>

<g fill="#ae5151" fill-opacity="0.2" stroke="#333333" stroke-opacity="1" stroke-width="1" stroke-linecap="round" stroke-linejoin="round" transform="matrix(0.999762,0,0,-0.999762,-10341.9,-9866.9)"
font-family="MS Shell Dlg 2" font-size="10.3125" font-weight="400" font-style="normal" 
>
<path vector-effect="non-scaling-stroke" fill-rule="evenodd" d="M11191.3,-12581.8 L11181.7,-12627.8 L11155.2,-12666.5 L11115.8,-12692.2 L11069.7,-12700.9 L11023.7,-12691.2 L10985,-12664.7 L10959.3,-12625.4 L10950.6,-12579.2 L10978.3,-10005.5 L10987.9,-9959.59 L11014.4,-9920.82 L11053.7,-9895.16 L11099.9,-9886.49 L11145.8,-9896.15 L11184.6,-9922.65 L11210.3,-9961.97 L11218.9,-10008.1 L11191.3,-12581.8"/>
</g>

<g fill="none" stroke="#000000" stroke-opacity="1" stroke-width="1" stroke-linecap="square" stroke-linejoin="bevel" transform="matrix(0.999762,0,0,-0.999762,-10341.9,-9866.9)"
font-family="MS Shell Dlg 2" font-size="10.3125" font-weight="400" font-style="normal" 
>
</g>

<g fill="none" stroke="#000000" stroke-opacity="1" stroke-width="1" stroke-linecap="square" stroke-linejoin="bevel" transform="matrix(0.999762,0,0,-0.999762,-10341.9,-9866.9)"
font-family="MS Shell Dlg 2" font-size="10.3125" font-weight="400" font-style="normal" 
>
</g>

<g fill="#ffff00" fill-opacity="0.2" stroke="#333333" stroke-opacity="1" stroke-width="1" stroke-linecap="round" stroke-linejoin="round" transform="matrix(0.999762,0,0,-0.999762,-10341.9,-9866.9)"
font-family="MS Shell Dlg 2" font-size="10.3125" font-weight="400" font-style="normal" 
>
<path vector-effect="non-scaling-stroke" fill-rule="evenodd" d="M11690.8,-12572.3 L11680.7,-12618.2 L11653.8,-12656.7 L11614.2,-12681.9 L11568,-12690.1 L11522.1,-12680 L11483.6,-12653.1 L11458.3,-12613.6 L11450.1,-12567.3 L11502.4,-10046.9 L11512.5,-10001.1 L11539.4,-9962.58 L11579,-9937.31 L11625.2,-9929.11 L11671,-9939.22 L11709.5,-9966.11 L11734.8,-10005.7 L11743,-10051.9 L11690.8,-12572.3"/>
</g>

<g fill="none" stroke="#000000" stroke-opacity="1" stroke-width="1" stroke-linecap="square" stroke-linejoin="bevel" transform="matrix(0.999762,0,0,-0.999762,-10341.9,-9866.9)"
font-family="MS Shell Dlg 2" font-size="10.3125" font-weight="400" font-style="normal" 
>
</g>

<g fill="none" stroke="#000000" stroke-opacity="1" stroke-width="1" stroke-linecap="square" stroke-linejoin="bevel" transform="matrix(0.999762,0,0,-0.999762,-10341.9,-9866.9)"
font-family="MS Shell Dlg 2" font-size="10.3125" font-weight="400" font-style="normal" 
>
</g>

<g fill="#ffff00" fill-opacity="0.2" stroke="#333333" stroke-opacity="1" stroke-width="1" stroke-linecap="round" stroke-linejoin="round" transform="matrix(0.999762,0,0,-0.999762,-10341.9,-9866.9)"
font-family="MS Shell Dlg 2" font-size="10.3125" font-weight="400" font-style="normal" 
>
<path vector-effect="non-scaling-stroke" fill-rule="evenodd" d="M10691,-12618.8 L10681.3,-12664.8 L10654.8,-12703.5 L10615.5,-12729.2 L10569.3,-12737.8 L10523.4,-12728.2 L10484.6,-12701.6 L10459,-12662.3 L10450.3,-12616.1 L10479.6,-9989.96 L10489.3,-9944.01 L10515.8,-9905.26 L10555.1,-9879.61 L10601.3,-9870.96 L10647.2,-9880.63 L10686,-9907.15 L10711.6,-9946.49 L10720.3,-9992.64 L10691,-12618.8"/>
</g>

<g fill="none" stroke="#000000" stroke-opacity="1" stroke-width="1" stroke-linecap="square" stroke-linejoin="bevel" transform="matrix(0.999762,0,0,-0.999762,-10341.9,-9866.9)"
font-family="MS Shell Dlg 2" font-size="10.3125" font-weight="400" font-style="normal" 
>
</g>

<g fill="none" stroke="#000000" stroke-opacity="1" stroke-width="1" stroke-linecap="square" stroke-linejoin="bevel" transform="matrix(0.999762,0,0,-0.999762,-10341.9,-9866.9)"
font-family="MS Shell Dlg 2" font-size="10.3125" font-weight="400" font-style="normal" 
>
</g>

<g fill="#ffff00" fill-opacity="0.2" stroke="#333333" stroke-opacity="1" stroke-width="1" stroke-linecap="round" stroke-linejoin="round" transform="matrix(0.999762,0,0,-0.999762,-10341.9,-9866.9)"
font-family="MS Shell Dlg 2" font-size="10.3125" font-weight="400" font-style="normal" 
>
<path vector-effect="non-scaling-stroke" fill-rule="evenodd" d="M11191.3,-12581.8 L11181.7,-12627.8 L11155.2,-12666.5 L11115.8,-12692.2 L11069.7,-12700.9 L11023.7,-12691.2 L10985,-12664.7 L10959.3,-12625.4 L10950.6,-12579.2 L10978.3,-10005.5 L10987.9,-9959.59 L11014.4,-9920.82 L11053.7,-9895.16 L11099.9,-9886.49 L11145.8,-9896.15 L11184.6,-9922.65 L11210.3,-9961.97 L11218.9,-10008.1 L11191.3,-12581.8"/>
</g>

<g fill="none" stroke="#000000" stroke-opacity="1" stroke-width="1" stroke-linecap="square" stroke-linejoin="bevel" transform="matrix(0.999762,0,0,-0.999762,-10341.9,-9866.9)"
font-family="MS Shell Dlg 2" font-size="10.3125" font-weight="400" font-style="normal" 
>
</g>

<g fill="none" stroke="#000000" stroke-opacity="1" stroke-width="1" stroke-linecap="square" stroke-linejoin="bevel" transform="matrix(0.999762,0,0,-0.999762,-10341.9,-9866.9)"
font-family="MS Shell Dlg 2" font-size="10.3125" font-weight="400" font-style="normal" 
>
</g>

<g fill="#ae5151" fill-opacity="0.2" stroke="#333333" stroke-opacity="1" stroke-width="1" stroke-linecap="round" stroke-linejoin="round" transform="matrix(0.999762,0,0,-0.999762,-10341.9,-9866.9)"
font-family="MS Shell Dlg 2" font-size="10.3125" font-weight="400" font-style="normal" 
>
<path vector-effect="non-scaling-stroke" fill-rule="evenodd" d="M12161.6,-12639.5 L12151.5,-12685.4 L12124.6,-12723.9 L12085,-12749.1 L12038.7,-12757.3 L11992.9,-12747.2 L11954.4,-12720.3 L11929.1,-12680.8 L11920.9,-12634.5 L11973.2,-10114.1 L11983.3,-10068.3 L12010.2,-10029.8 L12049.7,-10004.5 L12096,-9996.31 L12141.8,-10006.4 L12180.3,-10033.3 L12205.6,-10072.9 L12213.8,-10119.1 L12161.6,-12639.5"/>
</g>

<g fill="none" stroke="#000000" stroke-opacity="1" stroke-width="1" stroke-linecap="square" stroke-linejoin="bevel" transform="matrix(0.999762,0,0,-0.999762,-10341.9,-9866.9)"
font-family="MS Shell Dlg 2" font-size="10.3125" font-weight="400" font-style="normal" 
>
</g>

<g fill="none" stroke="#000000" stroke-opacity="1" stroke-width="1" stroke-linecap="square" stroke-linejoin="bevel" transform="matrix(0.999762,0,0,-0.999762,-10341.9,-9866.9)"
font-family="MS Shell Dlg 2" font-size="10.3125" font-weight="400" font-style="normal" 
>
</g>

<g fill="#ae5151" fill-opacity="0.2" stroke="#333333" stroke-opacity="1" stroke-width="1" stroke-linecap="round" stroke-linejoin="round" transform="matrix(0.999762,0,0,-0.999762,-10341.9,-9866.9)"
font-family="MS Shell Dlg 2" font-size="10.3125" font-weight="400" font-style="normal" 
>
<path vector-effect="non-scaling-stroke" fill-rule="evenodd" d="M11690.8,-12572.3 L11680.7,-12618.2 L11653.8,-12656.7 L11614.2,-12681.9 L11568,-12690.1 L11522.1,-12680 L11483.6,-12653.1 L11458.3,-12613.6 L11450.1,-12567.3 L11502.4,-10046.9 L11512.5,-10001.1 L11539.4,-9962.58 L11579,-9937.31 L11625.2,-9929.11 L11671,-9939.22 L11709.5,-9966.11 L11734.8,-10005.7 L11743,-10051.9 L11690.8,-12572.3"/>
</g>

<g fill="none" stroke="#000000" stroke-opacity="1" stroke-width="1" stroke-linecap="square" stroke-linejoin="bevel" transform="matrix(0.999762,0,0,-0.999762,-10341.9,-9866.9)"
font-family="MS Shell Dlg 2" font-size="10.3125" font-weight="400" font-style="normal" 
>
</g>

<g fill="none" stroke="#000000" stroke-opacity="1" stroke-width="1" stroke-linecap="square" stroke-linejoin="bevel" transform="matrix(0.999762,0,0,-0.999762,-10341.9,-9866.9)"
font-family="MS Shell Dlg 2" font-size="10.3125" font-weight="400" font-style="normal" 
>
</g>

<g fill="#ae5151" fill-opacity="0.2" stroke="#333333" stroke-opacity="1" stroke-width="1" stroke-linecap="round" stroke-linejoin="round" transform="matrix(0.999762,0,0,-0.999762,-10341.9,-9866.9)"
font-family="MS Shell Dlg 2" font-size="10.3125" font-weight="400" font-style="normal" 
>
<path vector-effect="non-scaling-stroke" fill-rule="evenodd" d="M10691,-12618.8 L10681.3,-12664.8 L10654.8,-12703.5 L10615.5,-12729.2 L10569.3,-12737.8 L10523.4,-12728.2 L10484.6,-12701.6 L10459,-12662.3 L10450.3,-12616.1 L10479.6,-9989.96 L10489.3,-9944.01 L10515.8,-9905.26 L10555.1,-9879.61 L10601.3,-9870.96 L10647.2,-9880.63 L10686,-9907.15 L10711.6,-9946.49 L10720.3,-9992.64 L10691,-12618.8"/>
</g>

<g fill="none" stroke="#000000" stroke-opacity="1" stroke-width="1" stroke-linecap="square" stroke-linejoin="bevel" transform="matrix(0.999762,0,0,-0.999762,-10341.9,-9866.9)"
font-family="MS Shell Dlg 2" font-size="10.3125" font-weight="400" font-style="normal" 
>
</g>

<g fill="none" stroke="#000000" stroke-opacity="1" stroke-width="1" stroke-linecap="square" stroke-linejoin="bevel" transform="matrix(0.999762,0,0,-0.999762,-10341.9,-9866.9)"
font-family="MS Shell Dlg 2" font-size="10.3125" font-weight="400" font-style="normal" 
>
</g>

<g fill="#ae5151" fill-opacity="0.2" stroke="#333333" stroke-opacity="1" stroke-width="1" stroke-linecap="round" stroke-linejoin="round" transform="matrix(0.999762,0,0,-0.999762,-10341.9,-9866.9)"
font-family="MS Shell Dlg 2" font-size="10.3125" font-weight="400" font-style="normal" 
>
<path vector-effect="non-scaling-stroke" fill-rule="evenodd" d="M11191.3,-12581.8 L11181.7,-12627.8 L11155.2,-12666.5 L11115.8,-12692.2 L11069.7,-12700.9 L11023.7,-12691.2 L10985,-12664.7 L10959.3,-12625.4 L10950.6,-12579.2 L10978.3,-10005.5 L10987.9,-9959.59 L11014.4,-9920.82 L11053.7,-9895.16 L11099.9,-9886.49 L11145.8,-9896.15 L11184.6,-9922.65 L11210.3,-9961.97 L11218.9,-10008.1 L11191.3,-12581.8"/>
</g>

<g fill="none" stroke="#000000" stroke-opacity="1" stroke-width="1" stroke-linecap="square" stroke-linejoin="bevel" transform="matrix(0.999762,0,0,-0.999762,-10341.9,-9866.9)"
font-family="MS Shell Dlg 2" font-size="10.3125" font-weight="400" font-style="normal" 
>
</g>

<g fill="none" stroke="#000000" stroke-opacity="1" stroke-width="1" stroke-linecap="square" stroke-linejoin="bevel" transform="matrix(0.999762,0,0,-0.999762,-10341.9,-9866.9)"
font-family="MS Shell Dlg 2" font-size="10.3125" font-weight="400" font-style="normal" 
>
</g>

<g fill="#333333" fill-opacity="0.2" stroke="#333333" stroke-opacity="1" stroke-width="1" stroke-linecap="round" stroke-linejoin="round" transform="matrix(0.999762,0,0,-0.999762,-10341.9,-9866.9)"
font-family="MS Shell Dlg 2" font-size="10.3125" font-weight="400" font-style="normal" 
>
<path vector-effect="non-scaling-stroke" fill-rule="evenodd" d="M10478.8,-10063.2 L10479.6,-9989.96 L10489.3,-9944.01 L10515.8,-9905.26 L10555.1,-9879.61 L10601.3,-9870.96 L10647.2,-9880.63 L10686,-9907.15 L10711.6,-9946.49 L10720.3,-9992.64 L10716.7,-10318.3 L10971.3,-10657.3 L10978.3,-10005.5 L10987.9,-9959.59 L11014.4,-9920.82 L11053.7,-9895.16 L11099.9,-9886.49 L11145.8,-9896.15 L11184.6,-9922.65 L11210.3,-9961.97 L11218.9,-10008.1 L11208.6,-10973.4 L11475.8,-11329.2 L11502.4,-10046.9 L11512.5,-10001.1 L11539.4,-9962.58 L11579,-9937.31 L11625.2,-9929.11 L11671,-9939.22 L11709.5,-9966.11 L11734.8,-10005.7 L11743,-10051.9 L11710.1,-11641.3 L11935.3,-11941.2 L11973.2,-10114.1 L11983.3,-10068.3 L12010.2,-10029.8 L12049.7,-10004.5 L12096,-9996.31 L12141.8,-10006.4 L12180.3,-10033.3 L12205.6,-10072.9 L12213.8,-10119.1 L12169.6,-12253.2 L12304.8,-12433.2 L12325.1,-12475.6 L12327.7,-12522.4 L12312.1,-12566.7 L12280.8,-12601.7 L12238.5,-12622.1 L12191.6,-12624.6 L12162.1,-12614.3 L12161.6,-12639.5 L12151.5,-12685.4 L12124.6,-12723.9 L12085,-12749.1 L12038.7,-12757.3 L11992.9,-12747.2 L11954.4,-12720.3 L11929.1,-12680.8 L11920.9,-12634.5 L11927.2,-12331.3 L11702,-12031.4 L11690.8,-12572.3 L11680.7,-12618.2 L11653.8,-12656.7 L11614.2,-12681.9 L11568,-12690.1 L11522.1,-12680 L11483.6,-12653.1 L11458.3,-12613.6 L11450.1,-12567.3 L11467.7,-11719.3 L11204.3,-11368.6 L11191.3,-12581.8 L11181.7,-12627.8 L11155.2,-12666.5 L11115.8,-12692.2 L11069.7,-12700.9 L11023.7,-12691.2 L10985,-12664.7 L10959.3,-12625.4 L10950.6,-12579.2 L10967,-11052.6 L10712.3,-10713.3 L10691,-12618.8 L10681.3,-12664.8 L10654.8,-12703.5 L10615.5,-12729.2 L10569.3,-12737.8 L10523.4,-12728.2 L10484.6,-12701.6 L10459,-12662.3 L10450.3,-12616.1 L10475.1,-10397.4 L10367.7,-10254.5 L10347.4,-10212.1 L10344.8,-10165.3 L10360.4,-10120.9 L10391.7,-10086 L10434,-10065.6 L10478.8,-10063.2"/>
</g>

<g fill="none" stroke="#000000" stroke-opacity="1" stroke-width="1" stroke-linecap="square" stroke-linejoin="bevel" transform="matrix(0.999762,0,0,-0.999762,-10341.9,-9866.9)"
font-family="MS Shell Dlg 2" font-size="10.3125" font-weight="400" font-style="normal" 
>
</g>

<g fill="none" stroke="#000000" stroke-opacity="1" stroke-width="1" stroke-linecap="square" stroke-linejoin="bevel" transform="matrix(0.999762,0,0,-0.999762,-10341.9,-9866.9)"
font-family="MS Shell Dlg 2" font-size="10.3125" font-weight="400" font-style="normal" 
>
</g>

<g fill="#ae5151" fill-opacity="0.2" stroke="#333333" stroke-opacity="1" stroke-width="1" stroke-linecap="round" stroke-linejoin="round" transform="matrix(0.999762,0,0,-0.999762,-10341.9,-9866.9)"
font-family="MS Shell Dlg 2" font-size="10.3125" font-weight="400" font-style="normal" 
>
<path vector-effect="non-scaling-stroke" fill-rule="evenodd" d="M10478.8,-10063.2 L10479.6,-9989.96 L10489.3,-9944.01 L10515.8,-9905.26 L10555.1,-9879.61 L10601.3,-9870.96 L10647.2,-9880.63 L10686,-9907.15 L10711.6,-9946.49 L10720.3,-9992.64 L10716.7,-10318.3 L10971.3,-10657.3 L10978.3,-10005.5 L10987.9,-9959.59 L11014.4,-9920.82 L11053.7,-9895.16 L11099.9,-9886.49 L11145.8,-9896.15 L11184.6,-9922.65 L11210.3,-9961.97 L11218.9,-10008.1 L11208.6,-10973.4 L11475.8,-11329.2 L11502.4,-10046.9 L11512.5,-10001.1 L11539.4,-9962.58 L11579,-9937.31 L11625.2,-9929.11 L11671,-9939.22 L11709.5,-9966.11 L11734.8,-10005.7 L11743,-10051.9 L11710.1,-11641.3 L11935.3,-11941.2 L11973.2,-10114.1 L11983.3,-10068.3 L12010.2,-10029.8 L12049.7,-10004.5 L12096,-9996.31 L12141.8,-10006.4 L12180.3,-10033.3 L12205.6,-10072.9 L12213.8,-10119.1 L12169.6,-12253.2 L12304.8,-12433.2 L12325.1,-12475.6 L12327.7,-12522.4 L12312.1,-12566.7 L12280.8,-12601.7 L12238.5,-12622.1 L12191.6,-12624.6 L12162.1,-12614.3 L12161.6,-12639.5 L12151.5,-12685.4 L12124.6,-12723.9 L12085,-12749.1 L12038.7,-12757.3 L11992.9,-12747.2 L11954.4,-12720.3 L11929.1,-12680.8 L11920.9,-12634.5 L11927.2,-12331.3 L11702,-12031.4 L11690.8,-12572.3 L11680.7,-12618.2 L11653.8,-12656.7 L11614.2,-12681.9 L11568,-12690.1 L11522.1,-12680 L11483.6,-12653.1 L11458.3,-12613.6 L11450.1,-12567.3 L11467.7,-11719.3 L11204.3,-11368.6 L11191.3,-12581.8 L11181.7,-12627.8 L11155.2,-12666.5 L11115.8,-12692.2 L11069.7,-12700.9 L11023.7,-12691.2 L10985,-12664.7 L10959.3,-12625.4 L10950.6,-12579.2 L10967,-11052.6 L10712.3,-10713.3 L10691,-12618.8 L10681.3,-12664.8 L10654.8,-12703.5 L10615.5,-12729.2 L10569.3,-12737.8 L10523.4,-12728.2 L10484.6,-12701.6 L10459,-12662.3 L10450.3,-12616.1 L10475.1,-10397.4 L10367.7,-10254.5 L10347.4,-10212.1 L10344.8,-10165.3 L10360.4,-10120.9 L10391.7,-10086 L10434,-10065.6 L10478.8,-10063.2"/>
</g>

<g fill="none" stroke="#000000" stroke-opacity="1" stroke-width="1" stroke-linecap="square" stroke-linejoin="bevel" transform="matrix(0.999762,0,0,-0.999762,-10341.9,-9866.9)"
font-family="MS Shell Dlg 2" font-size="10.3125" font-weight="400" font-style="normal" 
>
</g>

<g fill="none" stroke="#000000" stroke-opacity="1" stroke-width="1" stroke-linecap="square" stroke-linejoin="bevel" transform="matrix(0.999762,0,0,-0.999762,-10341.9,-9866.9)"
font-family="MS Shell Dlg 2" font-size="10.3125" font-weight="400" font-style="normal" 
>
</g>

<g fill="#ae5151" fill-opacity="0.2" stroke="#333333" stroke-opacity="1" stroke-width="1" stroke-linecap="round" stroke-linejoin="round" transform="matrix(0.999762,0,0,-0.999762,-10341.9,-9866.9)"
font-family="MS Shell Dlg 2" font-size="10.3125" font-weight="400" font-style="normal" 
>
<path vector-effect="non-scaling-stroke" fill-rule="evenodd" d="M12871,-12617.2 L12861.8,-12663.3 L12835.7,-12702.3 L12796.7,-12728.4 L12750.6,-12737.5 L12704.6,-12728.3 L12665.5,-12702.2 L12639.5,-12663.2 L12630.3,-12617.1 L12631.4,-9990.76 L12640.6,-9944.7 L12666.7,-9905.67 L12705.7,-9879.6 L12751.8,-9870.45 L12797.9,-9879.63 L12836.9,-9905.74 L12863,-9944.79 L12872.1,-9990.85 L12871,-12617.2"/>
</g>

<g fill="none" stroke="#000000" stroke-opacity="1" stroke-width="1" stroke-linecap="square" stroke-linejoin="bevel" transform="matrix(0.999762,0,0,-0.999762,-10341.9,-9866.9)"
font-family="MS Shell Dlg 2" font-size="10.3125" font-weight="400" font-style="normal" 
>
</g>

<g fill="none" stroke="#000000" stroke-opacity="1" stroke-width="1" stroke-linecap="square" stroke-linejoin="bevel" transform="matrix(0.999762,0,0,-0.999762,-10341.9,-9866.9)"
font-family="MS Shell Dlg 2" font-size="10.3125" font-weight="400" font-style="normal" 
>
</g>

<g fill="#333333" fill-opacity="0.2" stroke="#333333" stroke-opacity="1" stroke-width="1" stroke-linecap="round" stroke-linejoin="round" transform="matrix(0.999762,0,0,-0.999762,-10341.9,-9866.9)"
font-family="MS Shell Dlg 2" font-size="10.3125" font-weight="400" font-style="normal" 
>
<path vector-effect="non-scaling-stroke" fill-rule="evenodd" d="M10478.8,-10063.2 L10479.6,-9989.96 L10489.3,-9944.01 L10515.8,-9905.26 L10555.1,-9879.61 L10601.3,-9870.96 L10647.2,-9880.63 L10686,-9907.15 L10711.6,-9946.49 L10720.3,-9992.64 L10716.7,-10318.3 L10971.3,-10657.3 L10978.3,-10005.5 L10987.9,-9959.59 L11014.4,-9920.82 L11053.7,-9895.16 L11099.9,-9886.49 L11145.8,-9896.15 L11184.6,-9922.65 L11210.3,-9961.97 L11218.9,-10008.1 L11208.6,-10973.4 L11475.8,-11329.2 L11502.4,-10046.9 L11512.5,-10001.1 L11539.4,-9962.58 L11579,-9937.31 L11625.2,-9929.11 L11671,-9939.22 L11709.5,-9966.11 L11734.8,-10005.7 L11743,-10051.9 L11710.1,-11641.3 L11935.3,-11941.2 L11973.2,-10114.1 L11983.3,-10068.3 L12010.2,-10029.8 L12049.7,-10004.5 L12096,-9996.31 L12141.8,-10006.4 L12180.3,-10033.3 L12205.6,-10072.9 L12213.8,-10119.1 L12169.6,-12253.2 L12304.8,-12433.2 L12325.1,-12475.6 L12327.7,-12522.4 L12312.1,-12566.7 L12280.8,-12601.7 L12238.5,-12622.1 L12191.6,-12624.6 L12162.1,-12614.3 L12161.6,-12639.5 L12151.5,-12685.4 L12124.6,-12723.9 L12085,-12749.1 L12038.7,-12757.3 L11992.9,-12747.2 L11954.4,-12720.3 L11929.1,-12680.8 L11920.9,-12634.5 L11927.2,-12331.3 L11702,-12031.4 L11690.8,-12572.3 L11680.7,-12618.2 L11653.8,-12656.7 L11614.2,-12681.9 L11568,-12690.1 L11522.1,-12680 L11483.6,-12653.1 L11458.3,-12613.6 L11450.1,-12567.3 L11467.7,-11719.3 L11204.3,-11368.6 L11191.3,-12581.8 L11181.7,-12627.8 L11155.2,-12666.5 L11115.8,-12692.2 L11069.7,-12700.9 L11023.7,-12691.2 L10985,-12664.7 L10959.3,-12625.4 L10950.6,-12579.2 L10967,-11052.6 L10712.3,-10713.3 L10691,-12618.8 L10681.3,-12664.8 L10654.8,-12703.5 L10615.5,-12729.2 L10569.3,-12737.8 L10523.4,-12728.2 L10484.6,-12701.6 L10459,-12662.3 L10450.3,-12616.1 L10475.1,-10397.4 L10367.7,-10254.5 L10347.4,-10212.1 L10344.8,-10165.3 L10360.4,-10120.9 L10391.7,-10086 L10434,-10065.6 L10478.8,-10063.2"/>
</g>

<g fill="none" stroke="#000000" stroke-opacity="1" stroke-width="1" stroke-linecap="square" stroke-linejoin="bevel" transform="matrix(0.999762,0,0,-0.999762,-10341.9,-9866.9)"
font-family="MS Shell Dlg 2" font-size="10.3125" font-weight="400" font-style="normal" 
>
</g>

<g fill="none" stroke="#000000" stroke-opacity="1" stroke-width="1" stroke-linecap="square" stroke-linejoin="bevel" transform="matrix(0.999762,0,0,-0.999762,-10341.9,-9866.9)"
font-family="MS Shell Dlg 2" font-size="10.3125" font-weight="400" font-style="normal" 
>
</g>

<g fill="#333333" fill-opacity="0.2" stroke="#333333" stroke-opacity="1" stroke-width="1" stroke-linecap="round" stroke-linejoin="round" transform="matrix(0.999762,0,0,-0.999762,-10341.9,-9866.9)"
font-family="MS Shell Dlg 2" font-size="10.3125" font-weight="400" font-style="normal" 
>
<path vector-effect="non-scaling-stroke" fill-rule="evenodd" d="M12871,-12617.2 L12861.8,-12663.3 L12835.7,-12702.3 L12796.7,-12728.4 L12750.6,-12737.5 L12704.6,-12728.3 L12665.5,-12702.2 L12639.5,-12663.2 L12630.3,-12617.1 L12631.4,-9990.76 L12640.6,-9944.7 L12666.7,-9905.67 L12705.7,-9879.6 L12751.8,-9870.45 L12797.9,-9879.63 L12836.9,-9905.74 L12863,-9944.79 L12872.1,-9990.85 L12871,-12617.2"/>
</g>

<g fill="none" stroke="#000000" stroke-opacity="1" stroke-width="1" stroke-linecap="square" stroke-linejoin="bevel" transform="matrix(0.999762,0,0,-0.999762,-10341.9,-9866.9)"
font-family="MS Shell Dlg 2" font-size="10.3125" font-weight="400" font-style="normal" 
>
</g>

<g fill="none" stroke="#000000" stroke-opacity="1" stroke-width="1" stroke-linecap="square" stroke-linejoin="bevel" transform="matrix(0.999762,0,0,-0.999762,-10341.9,-9866.9)"
font-family="MS Shell Dlg 2" font-size="10.3125" font-weight="400" font-style="normal" 
>
</g>

<g fill="#333333" fill-opacity="0.2" stroke="#333333" stroke-opacity="1" stroke-width="1" stroke-linecap="round" stroke-linejoin="round" transform="matrix(0.999762,0,0,-0.999762,-10341.9,-9866.9)"
font-family="MS Shell Dlg 2" font-size="10.3125" font-weight="400" font-style="normal" 
>
<path vector-effect="non-scaling-stroke" fill-rule="evenodd" d="M13370.9,-12574.8 L13361.7,-12620.9 L13335.7,-12659.9 L13296.6,-12686 L13250.6,-12695.2 L13204.5,-12686 L13165.5,-12659.9 L13139.4,-12620.9 L13130.2,-12574.8 L13130.2,-10001 L13139.4,-9954.93 L13165.5,-9915.89 L13204.5,-9889.8 L13250.6,-9880.64 L13296.6,-9889.8 L13335.7,-9915.89 L13361.7,-9954.93 L13370.9,-10001 L13370.9,-12574.8"/>
</g>

<g fill="none" stroke="#000000" stroke-opacity="1" stroke-width="1" stroke-linecap="square" stroke-linejoin="bevel" transform="matrix(0.999762,0,0,-0.999762,-10341.9,-9866.9)"
font-family="MS Shell Dlg 2" font-size="10.3125" font-weight="400" font-style="normal" 
>
</g>

<g fill="none" stroke="#000000" stroke-opacity="1" stroke-width="1" stroke-linecap="square" stroke-linejoin="bevel" transform="matrix(0.999762,0,0,-0.999762,-10341.9,-9866.9)"
font-family="MS Shell Dlg 2" font-size="10.3125" font-weight="400" font-style="normal" 
>
</g>

<g fill="#ae5151" fill-opacity="0.2" stroke="#333333" stroke-opacity="1" stroke-width="1" stroke-linecap="round" stroke-linejoin="round" transform="matrix(0.999762,0,0,-0.999762,-10341.9,-9866.9)"
font-family="MS Shell Dlg 2" font-size="10.3125" font-weight="400" font-style="normal" 
>
<path vector-effect="non-scaling-stroke" fill-rule="evenodd" d="M10478.8,-10063.2 L10479.6,-9989.96 L10489.3,-9944.01 L10515.8,-9905.26 L10555.1,-9879.61 L10601.3,-9870.96 L10647.2,-9880.63 L10686,-9907.15 L10711.6,-9946.49 L10720.3,-9992.64 L10716.7,-10318.3 L10971.3,-10657.3 L10978.3,-10005.5 L10987.9,-9959.59 L11014.4,-9920.82 L11053.7,-9895.16 L11099.9,-9886.49 L11145.8,-9896.15 L11184.6,-9922.65 L11210.3,-9961.97 L11218.9,-10008.1 L11208.6,-10973.4 L11475.8,-11329.2 L11502.4,-10046.9 L11512.5,-10001.1 L11539.4,-9962.58 L11579,-9937.31 L11625.2,-9929.11 L11671,-9939.22 L11709.5,-9966.11 L11734.8,-10005.7 L11743,-10051.9 L11710.1,-11641.3 L11935.3,-11941.2 L11973.2,-10114.1 L11983.3,-10068.3 L12010.2,-10029.8 L12049.7,-10004.5 L12096,-9996.31 L12141.8,-10006.4 L12180.3,-10033.3 L12205.6,-10072.9 L12213.8,-10119.1 L12169.6,-12253.2 L12304.8,-12433.2 L12325.1,-12475.6 L12327.7,-12522.4 L12312.1,-12566.7 L12280.8,-12601.7 L12238.5,-12622.1 L12191.6,-12624.6 L12162.1,-12614.3 L12161.6,-12639.5 L12151.5,-12685.4 L12124.6,-12723.9 L12085,-12749.1 L12038.7,-12757.3 L11992.9,-12747.2 L11954.4,-12720.3 L11929.1,-12680.8 L11920.9,-12634.5 L11927.2,-12331.3 L11702,-12031.4 L11690.8,-12572.3 L11680.7,-12618.2 L11653.8,-12656.7 L11614.2,-12681.9 L11568,-12690.1 L11522.1,-12680 L11483.6,-12653.1 L11458.3,-12613.6 L11450.1,-12567.3 L11467.7,-11719.3 L11204.3,-11368.6 L11191.3,-12581.8 L11181.7,-12627.8 L11155.2,-12666.5 L11115.8,-12692.2 L11069.7,-12700.9 L11023.7,-12691.2 L10985,-12664.7 L10959.3,-12625.4 L10950.6,-12579.2 L10967,-11052.6 L10712.3,-10713.3 L10691,-12618.8 L10681.3,-12664.8 L10654.8,-12703.5 L10615.5,-12729.2 L10569.3,-12737.8 L10523.4,-12728.2 L10484.6,-12701.6 L10459,-12662.3 L10450.3,-12616.1 L10475.1,-10397.4 L10367.7,-10254.5 L10347.4,-10212.1 L10344.8,-10165.3 L10360.4,-10120.9 L10391.7,-10086 L10434,-10065.6 L10478.8,-10063.2"/>
</g>

<g fill="none" stroke="#000000" stroke-opacity="1" stroke-width="1" stroke-linecap="square" stroke-linejoin="bevel" transform="matrix(0.999762,0,0,-0.999762,-10341.9,-9866.9)"
font-family="MS Shell Dlg 2" font-size="10.3125" font-weight="400" font-style="normal" 
>
</g>

<g fill="none" stroke="#000000" stroke-opacity="1" stroke-width="1" stroke-linecap="square" stroke-linejoin="bevel" transform="matrix(0.999762,0,0,-0.999762,-10341.9,-9866.9)"
font-family="MS Shell Dlg 2" font-size="10.3125" font-weight="400" font-style="normal" 
>
</g>

<g fill="#ae5151" fill-opacity="0.2" stroke="#333333" stroke-opacity="1" stroke-width="1" stroke-linecap="round" stroke-linejoin="round" transform="matrix(0.999762,0,0,-0.999762,-10341.9,-9866.9)"
font-family="MS Shell Dlg 2" font-size="10.3125" font-weight="400" font-style="normal" 
>
<path vector-effect="non-scaling-stroke" fill-rule="evenodd" d="M12871,-12617.2 L12861.8,-12663.3 L12835.7,-12702.3 L12796.7,-12728.4 L12750.6,-12737.5 L12704.6,-12728.3 L12665.5,-12702.2 L12639.5,-12663.2 L12630.3,-12617.1 L12631.4,-9990.76 L12640.6,-9944.7 L12666.7,-9905.67 L12705.7,-9879.6 L12751.8,-9870.45 L12797.9,-9879.63 L12836.9,-9905.74 L12863,-9944.79 L12872.1,-9990.85 L12871,-12617.2"/>
</g>

<g fill="none" stroke="#000000" stroke-opacity="1" stroke-width="1" stroke-linecap="square" stroke-linejoin="bevel" transform="matrix(0.999762,0,0,-0.999762,-10341.9,-9866.9)"
font-family="MS Shell Dlg 2" font-size="10.3125" font-weight="400" font-style="normal" 
>
</g>

<g fill="none" stroke="#000000" stroke-opacity="1" stroke-width="1" stroke-linecap="square" stroke-linejoin="bevel" transform="matrix(0.999762,0,0,-0.999762,-10341.9,-9866.9)"
font-family="MS Shell Dlg 2" font-size="10.3125" font-weight="400" font-style="normal" 
>
</g>

<g fill="#ae5151" fill-opacity="0.2" stroke="#333333" stroke-opacity="1" stroke-width="1" stroke-linecap="round" stroke-linejoin="round" transform="matrix(0.999762,0,0,-0.999762,-10341.9,-9866.9)"
font-family="MS Shell Dlg 2" font-size="10.3125" font-weight="400" font-style="normal" 
>
<path vector-effect="non-scaling-stroke" fill-rule="evenodd" d="M13870.2,-12560 L13860.6,-12605.9 L13834.1,-12644.7 L13794.8,-12670.4 L13748.7,-12679.1 L13702.7,-12669.5 L13663.9,-12643 L13638.2,-12603.7 L13629.5,-12557.6 L13654.7,-10036.8 L13664.4,-9990.79 L13690.8,-9952.01 L13730.1,-9926.31 L13776.3,-9917.61 L13822.2,-9927.23 L13861,-9953.71 L13886.7,-9993.01 L13895.4,-10039.2 L13870.2,-12560"/>
</g>

<g fill="none" stroke="#000000" stroke-opacity="1" stroke-width="1" stroke-linecap="square" stroke-linejoin="bevel" transform="matrix(0.999762,0,0,-0.999762,-10341.9,-9866.9)"
font-family="MS Shell Dlg 2" font-size="10.3125" font-weight="400" font-style="normal" 
>
</g>

<g fill="none" stroke="#000000" stroke-opacity="1" stroke-width="1" stroke-linecap="square" stroke-linejoin="bevel" transform="matrix(0.999762,0,0,-0.999762,-10341.9,-9866.9)"
font-family="MS Shell Dlg 2" font-size="10.3125" font-weight="400" font-style="normal" 
>
</g>

<g fill="#ae5151" fill-opacity="0.2" stroke="#333333" stroke-opacity="1" stroke-width="1" stroke-linecap="round" stroke-linejoin="round" transform="matrix(0.999762,0,0,-0.999762,-10341.9,-9866.9)"
font-family="MS Shell Dlg 2" font-size="10.3125" font-weight="400" font-style="normal" 
>
<path vector-effect="non-scaling-stroke" fill-rule="evenodd" d="M13370.9,-12574.8 L13361.7,-12620.9 L13335.7,-12659.9 L13296.6,-12686 L13250.6,-12695.2 L13204.5,-12686 L13165.5,-12659.9 L13139.4,-12620.9 L13130.2,-12574.8 L13130.2,-10001 L13139.4,-9954.93 L13165.5,-9915.89 L13204.5,-9889.8 L13250.6,-9880.64 L13296.6,-9889.8 L13335.7,-9915.89 L13361.7,-9954.93 L13370.9,-10001 L13370.9,-12574.8"/>
</g>

<g fill="none" stroke="#000000" stroke-opacity="1" stroke-width="1" stroke-linecap="square" stroke-linejoin="bevel" transform="matrix(0.999762,0,0,-0.999762,-10341.9,-9866.9)"
font-family="MS Shell Dlg 2" font-size="10.3125" font-weight="400" font-style="normal" 
>
</g>

<g fill="none" stroke="#000000" stroke-opacity="1" stroke-width="1" stroke-linecap="square" stroke-linejoin="bevel" transform="matrix(0.999762,0,0,-0.999762,-10341.9,-9866.9)"
font-family="MS Shell Dlg 2" font-size="10.3125" font-weight="400" font-style="normal" 
>
</g>

<g fill="#ffff00" fill-opacity="0.2" stroke="#333333" stroke-opacity="1" stroke-width="1" stroke-linecap="round" stroke-linejoin="round" transform="matrix(0.999762,0,0,-0.999762,-10341.9,-9866.9)"
font-family="MS Shell Dlg 2" font-size="10.3125" font-weight="400" font-style="normal" 
>
<path vector-effect="non-scaling-stroke" fill-rule="evenodd" d="M14341.7,-12622.1 L14332.1,-12668.1 L14305.6,-12706.9 L14266.3,-12732.6 L14220.2,-12741.3 L14174.2,-12731.6 L14135.4,-12705.2 L14109.7,-12665.9 L14101,-12619.7 L14126.2,-10098.9 L14135.8,-10052.9 L14162.3,-10014.2 L14201.6,-9988.46 L14247.8,-9979.76 L14293.7,-9989.38 L14332.5,-10015.9 L14358.2,-10055.2 L14366.9,-10101.3 L14341.7,-12622.1"/>
</g>

<g fill="none" stroke="#000000" stroke-opacity="1" stroke-width="1" stroke-linecap="square" stroke-linejoin="bevel" transform="matrix(0.999762,0,0,-0.999762,-10341.9,-9866.9)"
font-family="MS Shell Dlg 2" font-size="10.3125" font-weight="400" font-style="normal" 
>
</g>

<g fill="none" stroke="#000000" stroke-opacity="1" stroke-width="1" stroke-linecap="square" stroke-linejoin="bevel" transform="matrix(0.999762,0,0,-0.999762,-10341.9,-9866.9)"
font-family="MS Shell Dlg 2" font-size="10.3125" font-weight="400" font-style="normal" 
>
</g>

<g fill="#ffff00" fill-opacity="0.2" stroke="#333333" stroke-opacity="1" stroke-width="1" stroke-linecap="round" stroke-linejoin="round" transform="matrix(0.999762,0,0,-0.999762,-10341.9,-9866.9)"
font-family="MS Shell Dlg 2" font-size="10.3125" font-weight="400" font-style="normal" 
>
<path vector-effect="non-scaling-stroke" fill-rule="evenodd" d="M10478.8,-10063.2 L10479.6,-9989.96 L10489.3,-9944.01 L10515.8,-9905.26 L10555.1,-9879.61 L10601.3,-9870.96 L10647.2,-9880.63 L10686,-9907.15 L10711.6,-9946.49 L10720.3,-9992.64 L10716.7,-10318.3 L10971.3,-10657.3 L10978.3,-10005.5 L10987.9,-9959.59 L11014.4,-9920.82 L11053.7,-9895.16 L11099.9,-9886.49 L11145.8,-9896.15 L11184.6,-9922.65 L11210.3,-9961.97 L11218.9,-10008.1 L11208.6,-10973.4 L11475.8,-11329.2 L11502.4,-10046.9 L11512.5,-10001.1 L11539.4,-9962.58 L11579,-9937.31 L11625.2,-9929.11 L11671,-9939.22 L11709.5,-9966.11 L11734.8,-10005.7 L11743,-10051.9 L11710.1,-11641.3 L11935.3,-11941.2 L11973.2,-10114.1 L11983.3,-10068.3 L12010.2,-10029.8 L12049.7,-10004.5 L12096,-9996.31 L12141.8,-10006.4 L12180.3,-10033.3 L12205.6,-10072.9 L12213.8,-10119.1 L12169.6,-12253.2 L12304.8,-12433.2 L12325.1,-12475.6 L12327.7,-12522.4 L12312.1,-12566.7 L12280.8,-12601.7 L12238.5,-12622.1 L12191.6,-12624.6 L12162.1,-12614.3 L12161.6,-12639.5 L12151.5,-12685.4 L12124.6,-12723.9 L12085,-12749.1 L12038.7,-12757.3 L11992.9,-12747.2 L11954.4,-12720.3 L11929.1,-12680.8 L11920.9,-12634.5 L11927.2,-12331.3 L11702,-12031.4 L11690.8,-12572.3 L11680.7,-12618.2 L11653.8,-12656.7 L11614.2,-12681.9 L11568,-12690.1 L11522.1,-12680 L11483.6,-12653.1 L11458.3,-12613.6 L11450.1,-12567.3 L11467.7,-11719.3 L11204.3,-11368.6 L11191.3,-12581.8 L11181.7,-12627.8 L11155.2,-12666.5 L11115.8,-12692.2 L11069.7,-12700.9 L11023.7,-12691.2 L10985,-12664.7 L10959.3,-12625.4 L10950.6,-12579.2 L10967,-11052.6 L10712.3,-10713.3 L10691,-12618.8 L10681.3,-12664.8 L10654.8,-12703.5 L10615.5,-12729.2 L10569.3,-12737.8 L10523.4,-12728.2 L10484.6,-12701.6 L10459,-12662.3 L10450.3,-12616.1 L10475.1,-10397.4 L10367.7,-10254.5 L10347.4,-10212.1 L10344.8,-10165.3 L10360.4,-10120.9 L10391.7,-10086 L10434,-10065.6 L10478.8,-10063.2"/>
</g>

<g fill="none" stroke="#000000" stroke-opacity="1" stroke-width="1" stroke-linecap="square" stroke-linejoin="bevel" transform="matrix(0.999762,0,0,-0.999762,-10341.9,-9866.9)"
font-family="MS Shell Dlg 2" font-size="10.3125" font-weight="400" font-style="normal" 
>
</g>

<g fill="none" stroke="#000000" stroke-opacity="1" stroke-width="1" stroke-linecap="square" stroke-linejoin="bevel" transform="matrix(0.999762,0,0,-0.999762,-10341.9,-9866.9)"
font-family="MS Shell Dlg 2" font-size="10.3125" font-weight="400" font-style="normal" 
>
</g>

<g fill="#ffff00" fill-opacity="0.2" stroke="#333333" stroke-opacity="1" stroke-width="1" stroke-linecap="round" stroke-linejoin="round" transform="matrix(0.999762,0,0,-0.999762,-10341.9,-9866.9)"
font-family="MS Shell Dlg 2" font-size="10.3125" font-weight="400" font-style="normal" 
>
<path vector-effect="non-scaling-stroke" fill-rule="evenodd" d="M12871,-12617.2 L12861.8,-12663.3 L12835.7,-12702.3 L12796.7,-12728.4 L12750.6,-12737.5 L12704.6,-12728.3 L12665.5,-12702.2 L12639.5,-12663.2 L12630.3,-12617.1 L12631.4,-9990.76 L12640.6,-9944.7 L12666.7,-9905.67 L12705.7,-9879.6 L12751.8,-9870.45 L12797.9,-9879.63 L12836.9,-9905.74 L12863,-9944.79 L12872.1,-9990.85 L12871,-12617.2"/>
</g>

<g fill="none" stroke="#000000" stroke-opacity="1" stroke-width="1" stroke-linecap="square" stroke-linejoin="bevel" transform="matrix(0.999762,0,0,-0.999762,-10341.9,-9866.9)"
font-family="MS Shell Dlg 2" font-size="10.3125" font-weight="400" font-style="normal" 
>
</g>

<g fill="none" stroke="#000000" stroke-opacity="1" stroke-width="1" stroke-linecap="square" stroke-linejoin="bevel" transform="matrix(0.999762,0,0,-0.999762,-10341.9,-9866.9)"
font-family="MS Shell Dlg 2" font-size="10.3125" font-weight="400" font-style="normal" 
>
</g>

<g fill="#ffff00" fill-opacity="0.2" stroke="#333333" stroke-opacity="1" stroke-width="1" stroke-linecap="round" stroke-linejoin="round" transform="matrix(0.999762,0,0,-0.999762,-10341.9,-9866.9)"
font-family="MS Shell Dlg 2" font-size="10.3125" font-weight="400" font-style="normal" 
>
<path vector-effect="non-scaling-stroke" fill-rule="evenodd" d="M13870.2,-12560 L13860.6,-12605.9 L13834.1,-12644.7 L13794.8,-12670.4 L13748.7,-12679.1 L13702.7,-12669.5 L13663.9,-12643 L13638.2,-12603.7 L13629.5,-12557.6 L13654.7,-10036.8 L13664.4,-9990.79 L13690.8,-9952.01 L13730.1,-9926.31 L13776.3,-9917.61 L13822.2,-9927.23 L13861,-9953.71 L13886.7,-9993.01 L13895.4,-10039.2 L13870.2,-12560"/>
</g>

<g fill="none" stroke="#000000" stroke-opacity="1" stroke-width="1" stroke-linecap="square" stroke-linejoin="bevel" transform="matrix(0.999762,0,0,-0.999762,-10341.9,-9866.9)"
font-family="MS Shell Dlg 2" font-size="10.3125" font-weight="400" font-style="normal" 
>
</g>

<g fill="none" stroke="#000000" stroke-opacity="1" stroke-width="1" stroke-linecap="square" stroke-linejoin="bevel" transform="matrix(0.999762,0,0,-0.999762,-10341.9,-9866.9)"
font-family="MS Shell Dlg 2" font-size="10.3125" font-weight="400" font-style="normal" 
>
</g>

<g fill="#ffff00" fill-opacity="0.2" stroke="#333333" stroke-opacity="1" stroke-width="1" stroke-linecap="round" stroke-linejoin="round" transform="matrix(0.999762,0,0,-0.999762,-10341.9,-9866.9)"
font-family="MS Shell Dlg 2" font-size="10.3125" font-weight="400" font-style="normal" 
>
<path vector-effect="non-scaling-stroke" fill-rule="evenodd" d="M13370.9,-12574.8 L13361.7,-12620.9 L13335.7,-12659.9 L13296.6,-12686 L13250.6,-12695.2 L13204.5,-12686 L13165.5,-12659.9 L13139.4,-12620.9 L13130.2,-12574.8 L13130.2,-10001 L13139.4,-9954.93 L13165.5,-9915.89 L13204.5,-9889.8 L13250.6,-9880.64 L13296.6,-9889.8 L13335.7,-9915.89 L13361.7,-9954.93 L13370.9,-10001 L13370.9,-12574.8"/>
</g>

<g fill="none" stroke="#000000" stroke-opacity="1" stroke-width="1" stroke-linecap="square" stroke-linejoin="bevel" transform="matrix(0.999762,0,0,-0.999762,-10341.9,-9866.9)"
font-family="MS Shell Dlg 2" font-size="10.3125" font-weight="400" font-style="normal" 
>
</g>

<g fill="none" stroke="#000000" stroke-opacity="1" stroke-width="1" stroke-linecap="square" stroke-linejoin="bevel" transform="matrix(0.999762,0,0,-0.999762,-10341.9,-9866.9)"
font-family="MS Shell Dlg 2" font-size="10.3125" font-weight="400" font-style="normal" 
>
</g>

<g fill="#ae5151" fill-opacity="0.2" stroke="#333333" stroke-opacity="1" stroke-width="1" stroke-linecap="round" stroke-linejoin="round" transform="matrix(0.999762,0,0,-0.999762,-10341.9,-9866.9)"
font-family="MS Shell Dlg 2" font-size="10.3125" font-weight="400" font-style="normal" 
>
<path vector-effect="non-scaling-stroke" fill-rule="evenodd" d="M10478.8,-10063.2 L10479.6,-9989.96 L10489.3,-9944.01 L10515.8,-9905.26 L10555.1,-9879.61 L10601.3,-9870.96 L10647.2,-9880.63 L10686,-9907.15 L10711.6,-9946.49 L10720.3,-9992.64 L10716.7,-10318.3 L10971.3,-10657.3 L10978.3,-10005.5 L10987.9,-9959.59 L11014.4,-9920.82 L11053.7,-9895.16 L11099.9,-9886.49 L11145.8,-9896.15 L11184.6,-9922.65 L11210.3,-9961.97 L11218.9,-10008.1 L11208.6,-10973.4 L11475.8,-11329.2 L11502.4,-10046.9 L11512.5,-10001.1 L11539.4,-9962.58 L11579,-9937.31 L11625.2,-9929.11 L11671,-9939.22 L11709.5,-9966.11 L11734.8,-10005.7 L11743,-10051.9 L11710.1,-11641.3 L11935.3,-11941.2 L11973.2,-10114.1 L11983.3,-10068.3 L12010.2,-10029.8 L12049.7,-10004.5 L12096,-9996.31 L12141.8,-10006.4 L12180.3,-10033.3 L12205.6,-10072.9 L12213.8,-10119.1 L12169.6,-12253.2 L12304.8,-12433.2 L12325.1,-12475.6 L12327.7,-12522.4 L12312.1,-12566.7 L12280.8,-12601.7 L12238.5,-12622.1 L12191.6,-12624.6 L12162.1,-12614.3 L12161.6,-12639.5 L12151.5,-12685.4 L12124.6,-12723.9 L12085,-12749.1 L12038.7,-12757.3 L11992.9,-12747.2 L11954.4,-12720.3 L11929.1,-12680.8 L11920.9,-12634.5 L11927.2,-12331.3 L11702,-12031.4 L11690.8,-12572.3 L11680.7,-12618.2 L11653.8,-12656.7 L11614.2,-12681.9 L11568,-12690.1 L11522.1,-12680 L11483.6,-12653.1 L11458.3,-12613.6 L11450.1,-12567.3 L11467.7,-11719.3 L11204.3,-11368.6 L11191.3,-12581.8 L11181.7,-12627.8 L11155.2,-12666.5 L11115.8,-12692.2 L11069.7,-12700.9 L11023.7,-12691.2 L10985,-12664.7 L10959.3,-12625.4 L10950.6,-12579.2 L10967,-11052.6 L10712.3,-10713.3 L10691,-12618.8 L10681.3,-12664.8 L10654.8,-12703.5 L10615.5,-12729.2 L10569.3,-12737.8 L10523.4,-12728.2 L10484.6,-12701.6 L10459,-12662.3 L10450.3,-12616.1 L10475.1,-10397.4 L10367.7,-10254.5 L10347.4,-10212.1 L10344.8,-10165.3 L10360.4,-10120.9 L10391.7,-10086 L10434,-10065.6 L10478.8,-10063.2"/>
</g>

<g fill="none" stroke="#000000" stroke-opacity="1" stroke-width="1" stroke-linecap="square" stroke-linejoin="bevel" transform="matrix(0.999762,0,0,-0.999762,-10341.9,-9866.9)"
font-family="MS Shell Dlg 2" font-size="10.3125" font-weight="400" font-style="normal" 
>
</g>

<g fill="none" stroke="#000000" stroke-opacity="1" stroke-width="1" stroke-linecap="square" stroke-linejoin="bevel" transform="matrix(0.999762,0,0,-0.999762,-10341.9,-9866.9)"
font-family="MS Shell Dlg 2" font-size="10.3125" font-weight="400" font-style="normal" 
>
</g>

<g fill="#ae5151" fill-opacity="0.2" stroke="#333333" stroke-opacity="1" stroke-width="1" stroke-linecap="round" stroke-linejoin="round" transform="matrix(0.999762,0,0,-0.999762,-10341.9,-9866.9)"
font-family="MS Shell Dlg 2" font-size="10.3125" font-weight="400" font-style="normal" 
>
<path vector-effect="non-scaling-stroke" fill-rule="evenodd" d="M12631.4,-10064 L12631.4,-9990.76 L12640.6,-9944.7 L12666.7,-9905.67 L12705.7,-9879.6 L12751.8,-9870.45 L12797.9,-9879.63 L12836.9,-9905.74 L12863,-9944.79 L12872.1,-9990.85 L12872,-10316.5 L13130.2,-10652.8 L13130.2,-10001 L13139.4,-9954.93 L13165.5,-9915.89 L13204.5,-9889.8 L13250.6,-9880.64 L13296.6,-9889.8 L13335.7,-9915.89 L13361.7,-9954.93 L13370.9,-10001 L13370.9,-10966.3 L13641.9,-11319.3 L13654.7,-10036.8 L13664.4,-9990.79 L13690.8,-9952.01 L13730.1,-9926.31 L13776.3,-9917.61 L13822.2,-9927.23 L13861,-9953.71 L13886.7,-9993.01 L13895.4,-10039.2 L13879.5,-11628.8 L14108,-11926.2 L14126.2,-10098.9 L14135.8,-10052.9 L14162.3,-10014.2 L14201.6,-9988.46 L14247.8,-9979.76 L14293.7,-9989.38 L14332.5,-10015.9 L14358.2,-10055.2 L14366.9,-10101.3 L14345.6,-12235.7 L14482.7,-12414.3 L14503.5,-12456.4 L14506.6,-12503.3 L14491.5,-12547.7 L14460.5,-12583 L14418.4,-12603.8 L14371.6,-12606.9 L14342,-12596.9 L14341.7,-12622.1 L14332.1,-12668.1 L14305.6,-12706.9 L14266.3,-12732.6 L14220.2,-12741.3 L14174.2,-12731.6 L14135.4,-12705.2 L14109.7,-12665.9 L14101,-12619.7 L14104.1,-12316.4 L13875.6,-12018.9 L13870.2,-12560 L13860.6,-12605.9 L13834.1,-12644.7 L13794.8,-12670.4 L13748.7,-12679.1 L13702.7,-12669.5 L13663.9,-12643 L13638.2,-12603.7 L13629.5,-12557.6 L13638,-11709.4 L13370.9,-11361.5 L13370.9,-12574.8 L13361.7,-12620.9 L13335.7,-12659.9 L13296.6,-12686 L13250.6,-12695.2 L13204.5,-12686 L13165.5,-12659.9 L13139.4,-12620.9 L13130.2,-12574.8 L13130.2,-11048.1 L12871.8,-10711.5 L12871,-12617.2 L12861.8,-12663.3 L12835.7,-12702.3 L12796.7,-12728.4 L12750.6,-12737.5 L12704.6,-12728.3 L12665.5,-12702.2 L12639.5,-12663.2 L12630.3,-12617.1 L12631.2,-10398.2 L12522.4,-10256.4 L12501.6,-10214.3 L12498.5,-10167.5 L12513.6,-10123 L12544.6,-10087.7 L12586.7,-10066.9 L12631.4,-10064"/>
</g>

<g fill="none" stroke="#000000" stroke-opacity="1" stroke-width="1" stroke-linecap="square" stroke-linejoin="bevel" transform="matrix(0.999762,0,0,-0.999762,-10341.9,-9866.9)"
font-family="MS Shell Dlg 2" font-size="10.3125" font-weight="400" font-style="normal" 
>
</g>

<g fill="none" stroke="#000000" stroke-opacity="1" stroke-width="1" stroke-linecap="square" stroke-linejoin="bevel" transform="matrix(0.999762,0,0,-0.999762,-10341.9,-9866.9)"
font-family="MS Shell Dlg 2" font-size="10.3125" font-weight="400" font-style="normal" 
>
</g>

<g fill="#333333" fill-opacity="0.2" stroke="#333333" stroke-opacity="1" stroke-width="1" stroke-linecap="round" stroke-linejoin="round" transform="matrix(0.999762,0,0,-0.999762,-10341.9,-9866.9)"
font-family="MS Shell Dlg 2" font-size="10.3125" font-weight="400" font-style="normal" 
>
<path vector-effect="non-scaling-stroke" fill-rule="evenodd" d="M14996,-12722.9 L14986.8,-12768.9 L14960.7,-12807.9 L14921.6,-12834 L14875.6,-12843.2 L14829.5,-12834 L14790.5,-12807.9 L14764.4,-12768.8 L14755.3,-12722.8 L14756.3,-10096.4 L14765.5,-10050.4 L14791.6,-10011.3 L14830.7,-9985.25 L14876.7,-9976.11 L14922.8,-9985.29 L14961.8,-10011.4 L14987.9,-10050.5 L14997,-10096.5 L14996,-12722.9"/>
</g>

<g fill="none" stroke="#000000" stroke-opacity="1" stroke-width="1" stroke-linecap="square" stroke-linejoin="bevel" transform="matrix(0.999762,0,0,-0.999762,-10341.9,-9866.9)"
font-family="MS Shell Dlg 2" font-size="10.3125" font-weight="400" font-style="normal" 
>
</g>

<g fill="none" stroke="#000000" stroke-opacity="1" stroke-width="1" stroke-linecap="square" stroke-linejoin="bevel" transform="matrix(0.999762,0,0,-0.999762,-10341.9,-9866.9)"
font-family="MS Shell Dlg 2" font-size="10.3125" font-weight="400" font-style="normal" 
>
</g>

<g fill="#333333" fill-opacity="0.2" stroke="#333333" stroke-opacity="1" stroke-width="1" stroke-linecap="round" stroke-linejoin="round" transform="matrix(0.999762,0,0,-0.999762,-10341.9,-9866.9)"
font-family="MS Shell Dlg 2" font-size="10.3125" font-weight="400" font-style="normal" 
>
<path vector-effect="non-scaling-stroke" fill-rule="evenodd" d="M10478.8,-10063.2 L10479.6,-9989.96 L10489.3,-9944.01 L10515.8,-9905.26 L10555.1,-9879.61 L10601.3,-9870.96 L10647.2,-9880.63 L10686,-9907.15 L10711.6,-9946.49 L10720.3,-9992.64 L10716.7,-10318.3 L10971.3,-10657.3 L10978.3,-10005.5 L10987.9,-9959.59 L11014.4,-9920.82 L11053.7,-9895.16 L11099.9,-9886.49 L11145.8,-9896.15 L11184.6,-9922.65 L11210.3,-9961.97 L11218.9,-10008.1 L11208.6,-10973.4 L11475.8,-11329.2 L11502.4,-10046.9 L11512.5,-10001.1 L11539.4,-9962.58 L11579,-9937.31 L11625.2,-9929.11 L11671,-9939.22 L11709.5,-9966.11 L11734.8,-10005.7 L11743,-10051.9 L11710.1,-11641.3 L11935.3,-11941.2 L11973.2,-10114.1 L11983.3,-10068.3 L12010.2,-10029.8 L12049.7,-10004.5 L12096,-9996.31 L12141.8,-10006.4 L12180.3,-10033.3 L12205.6,-10072.9 L12213.8,-10119.1 L12169.6,-12253.2 L12304.8,-12433.2 L12325.1,-12475.6 L12327.7,-12522.4 L12312.1,-12566.7 L12280.8,-12601.7 L12238.5,-12622.1 L12191.6,-12624.6 L12162.1,-12614.3 L12161.6,-12639.5 L12151.5,-12685.4 L12124.6,-12723.9 L12085,-12749.1 L12038.7,-12757.3 L11992.9,-12747.2 L11954.4,-12720.3 L11929.1,-12680.8 L11920.9,-12634.5 L11927.2,-12331.3 L11702,-12031.4 L11690.8,-12572.3 L11680.7,-12618.2 L11653.8,-12656.7 L11614.2,-12681.9 L11568,-12690.1 L11522.1,-12680 L11483.6,-12653.1 L11458.3,-12613.6 L11450.1,-12567.3 L11467.7,-11719.3 L11204.3,-11368.6 L11191.3,-12581.8 L11181.7,-12627.8 L11155.2,-12666.5 L11115.8,-12692.2 L11069.7,-12700.9 L11023.7,-12691.2 L10985,-12664.7 L10959.3,-12625.4 L10950.6,-12579.2 L10967,-11052.6 L10712.3,-10713.3 L10691,-12618.8 L10681.3,-12664.8 L10654.8,-12703.5 L10615.5,-12729.2 L10569.3,-12737.8 L10523.4,-12728.2 L10484.6,-12701.6 L10459,-12662.3 L10450.3,-12616.1 L10475.1,-10397.4 L10367.7,-10254.5 L10347.4,-10212.1 L10344.8,-10165.3 L10360.4,-10120.9 L10391.7,-10086 L10434,-10065.6 L10478.8,-10063.2"/>
</g>

<g fill="none" stroke="#000000" stroke-opacity="1" stroke-width="1" stroke-linecap="square" stroke-linejoin="bevel" transform="matrix(0.999762,0,0,-0.999762,-10341.9,-9866.9)"
font-family="MS Shell Dlg 2" font-size="10.3125" font-weight="400" font-style="normal" 
>
</g>

<g fill="none" stroke="#000000" stroke-opacity="1" stroke-width="1" stroke-linecap="square" stroke-linejoin="bevel" transform="matrix(0.999762,0,0,-0.999762,-10341.9,-9866.9)"
font-family="MS Shell Dlg 2" font-size="10.3125" font-weight="400" font-style="normal" 
>
</g>

<g fill="#333333" fill-opacity="0.2" stroke="#333333" stroke-opacity="1" stroke-width="1" stroke-linecap="round" stroke-linejoin="round" transform="matrix(0.999762,0,0,-0.999762,-10341.9,-9866.9)"
font-family="MS Shell Dlg 2" font-size="10.3125" font-weight="400" font-style="normal" 
>
<path vector-effect="non-scaling-stroke" fill-rule="evenodd" d="M12631.4,-10064 L12631.4,-9990.76 L12640.6,-9944.7 L12666.7,-9905.67 L12705.7,-9879.6 L12751.8,-9870.45 L12797.9,-9879.63 L12836.9,-9905.74 L12863,-9944.79 L12872.1,-9990.85 L12872,-10316.5 L13130.2,-10652.8 L13130.2,-10001 L13139.4,-9954.93 L13165.5,-9915.89 L13204.5,-9889.8 L13250.6,-9880.64 L13296.6,-9889.8 L13335.7,-9915.89 L13361.7,-9954.93 L13370.9,-10001 L13370.9,-10966.3 L13641.9,-11319.3 L13654.7,-10036.8 L13664.4,-9990.79 L13690.8,-9952.01 L13730.1,-9926.31 L13776.3,-9917.61 L13822.2,-9927.23 L13861,-9953.71 L13886.7,-9993.01 L13895.4,-10039.2 L13879.5,-11628.8 L14108,-11926.2 L14126.2,-10098.9 L14135.8,-10052.9 L14162.3,-10014.2 L14201.6,-9988.46 L14247.8,-9979.76 L14293.7,-9989.38 L14332.5,-10015.9 L14358.2,-10055.2 L14366.9,-10101.3 L14345.6,-12235.7 L14482.7,-12414.3 L14503.5,-12456.4 L14506.6,-12503.3 L14491.5,-12547.7 L14460.5,-12583 L14418.4,-12603.8 L14371.6,-12606.9 L14342,-12596.9 L14341.7,-12622.1 L14332.1,-12668.1 L14305.6,-12706.9 L14266.3,-12732.6 L14220.2,-12741.3 L14174.2,-12731.6 L14135.4,-12705.2 L14109.7,-12665.9 L14101,-12619.7 L14104.1,-12316.4 L13875.6,-12018.9 L13870.2,-12560 L13860.6,-12605.9 L13834.1,-12644.7 L13794.8,-12670.4 L13748.7,-12679.1 L13702.7,-12669.5 L13663.9,-12643 L13638.2,-12603.7 L13629.5,-12557.6 L13638,-11709.4 L13370.9,-11361.5 L13370.9,-12574.8 L13361.7,-12620.9 L13335.7,-12659.9 L13296.6,-12686 L13250.6,-12695.2 L13204.5,-12686 L13165.5,-12659.9 L13139.4,-12620.9 L13130.2,-12574.8 L13130.2,-11048.1 L12871.8,-10711.5 L12871,-12617.2 L12861.8,-12663.3 L12835.7,-12702.3 L12796.7,-12728.4 L12750.6,-12737.5 L12704.6,-12728.3 L12665.5,-12702.2 L12639.5,-12663.2 L12630.3,-12617.1 L12631.2,-10398.2 L12522.4,-10256.4 L12501.6,-10214.3 L12498.5,-10167.5 L12513.6,-10123 L12544.6,-10087.7 L12586.7,-10066.9 L12631.4,-10064"/>
</g>

<g fill="none" stroke="#000000" stroke-opacity="1" stroke-width="1" stroke-linecap="square" stroke-linejoin="bevel" transform="matrix(0.999762,0,0,-0.999762,-10341.9,-9866.9)"
font-family="MS Shell Dlg 2" font-size="10.3125" font-weight="400" font-style="normal" 
>
</g>

<g fill="none" stroke="#000000" stroke-opacity="1" stroke-width="1" stroke-linecap="square" stroke-linejoin="bevel" transform="matrix(1,0,0,-1,0,2973.71)"
font-family="MS Shell Dlg 2" font-size="10.3125" font-weight="400" font-style="normal" 
>
</g>
</g>
</svg>
