<?xml version="1.0" encoding="UTF-8" standalone="no"?>
<svg width="1144.98mm" height="994.269mm"
 xmlns="http://www.w3.org/2000/svg" xmlns:xlink="http://www.w3.org/1999/xlink"  version="1.2" baseProfile="tiny">
<title>SVG Generator Example Drawing</title>
<desc>An SVG drawing created by the SVG Generator</desc>
<defs>
</defs>
<g fill="none" stroke="black" stroke-width="1" fill-rule="evenodd" stroke-linecap="square" stroke-linejoin="bevel" >

<g fill="none" stroke="#000000" stroke-opacity="1" stroke-width="1" stroke-linecap="square" stroke-linejoin="bevel" transform="matrix(1,0,0,-1,0,3523.38)"
font-family="MS Shell Dlg 2" font-size="10.3125" font-weight="400" font-style="normal" 
>
</g>

<g fill="none" stroke="#000000" stroke-opacity="1" stroke-width="1" stroke-linecap="square" stroke-linejoin="bevel" transform="matrix(1,0,0,-1,0,3523.38)"
font-family="MS Shell Dlg 2" font-size="10.3125" font-weight="400" font-style="normal" 
>
</g>

<g fill="none" stroke="#000000" stroke-opacity="1" stroke-width="1" stroke-linecap="square" stroke-linejoin="bevel" transform="matrix(0.999891,0,0,-0.999891,17998.8,392.099)"
font-family="MS Shell Dlg 2" font-size="10.3125" font-weight="400" font-style="normal" 
>
</g>

<g fill="#333333" fill-opacity="0.2" stroke="#333333" stroke-opacity="1" stroke-width="1" stroke-linecap="round" stroke-linejoin="round" transform="matrix(0.999891,0,0,-0.999891,17998.8,392.099)"
font-family="MS Shell Dlg 2" font-size="10.3125" font-weight="400" font-style="normal" 
>
<path vector-effect="non-scaling-stroke" fill-rule="evenodd" d="M-18000.2,367.814 L-17997.2,387.876 L-17995.1,391.257 L-15637.7,-706.344 L-15543.8,-2318.5 L-15543.8,-2318.6 L-15543.8,-2318.63 L-15543.7,-2318.72 L-15543.7,-2319.05 L-15543.6,-2319.23 L-15543.6,-2319.28 L-15543.5,-2319.45 L-15543.3,-2319.71 L-15543.2,-2319.85 L-15543.1,-2319.89 L-15543,-2320 L-15542.7,-2320.17 L-15542.5,-2320.26 L-15542.5,-2320.28 L-15542.3,-2320.33 L-15541.9,-2320.38 L-15541.8,-2320.39 L-15541.7,-2320.39 L-15541.5,-2320.37 L-15541.2,-2320.3 L-15541,-2320.24 L-15541,-2320.21 L-15540.8,-2320.12 L-15540.5,-2319.93 L-15540.4,-2319.81 L-15540.3,-2319.77 L-15540.2,-2319.62 L-15540,-2319.35 L-15539.9,-2319.18 L-15539.9,-2319.12 L-15539.9,-2318.94 L-15539.8,-2318.61 L-15539.8,-2318.51 L-15539.8,-2318.48 L-15539.8,-2318.38 L-15539.8,-774.964 L-15535.9,-755.638 L-15534.9,-754.229 L-14142.2,-1402.65 L-14142,-1402.72 L-14142,-1402.73 L-14141.8,-1402.76 L-13943.8,-1402.76 L-13943.8,-1402.96 L-13943.8,-3081.93 L-13947.5,-3100.86 L-13958.2,-3116.75 L-13974,-3127.36 L-13990.8,-3130.69 L-13990.8,-3083.24 L-13990.8,-3083.04 L-13990.8,-3083 L-13991,-3082.63 L-13991,-3082.6 L-13991.3,-3082.33 L-13991.3,-3082.31 L-13991.7,-3082.16 L-13991.7,-3082.15 L-13991.9,-3082.13 L-17750.9,-3082.13 L-17751.1,-3082.15 L-17751.2,-3082.16 L-17751.5,-3082.32 L-17751.6,-3082.34 L-17751.9,-3082.64 L-17751.9,-3082.67 L-17752,-3083.05 L-17752,-3083.1 L-17752,-3083.3 L-17749.2,-3131.13 L-17749.9,-3131.13 L-17768.2,-3127.63 L-17783.7,-3117.74 L-17794.5,-3102.82 L-17799,-3084.79 L-18000.2,367.814 M-15543.2,-2755.64 L-15539.8,-2738.57 L-15539.8,-2738.52 L-15539.8,-2738.51 L-15539.8,-2738.46 L-15539.8,-2738.28 L-15539.8,-2738.23 L-15539.8,-2738.21 L-15539.8,-2738.17 L-15539.8,-2720.75 L-15539.8,-2720.66 L-15539.8,-2720.63 L-15539.8,-2720.53 L-15539.9,-2720.19 L-15539.9,-2720 L-15540,-2719.95 L-15540,-2719.78 L-15540.2,-2719.5 L-15540.4,-2719.35 L-15540.4,-2719.31 L-15540.5,-2719.19 L-15540.8,-2719 L-15541,-2718.91 L-15541,-2718.89 L-15541.2,-2718.83 L-15541.6,-2718.77 L-15541.8,-2718.75 L-15541.8,-2718.75 L-15542,-2718.76 L-15542.3,-2718.83 L-15542.5,-2718.89 L-15542.6,-2718.91 L-15542.7,-2719 L-15543,-2719.19 L-15543.1,-2719.25 L-15543.1,-2719.27 L-15543.2,-2719.33 L-15569.1,-2745.09 L-15569.2,-2745.16 L-15569.2,-2745.18 L-15569.2,-2745.26 L-15569.4,-2745.55 L-15569.5,-2745.72 L-15569.5,-2745.78 L-15569.6,-2745.97 L-15569.7,-2746.29 L-15569.7,-2746.49 L-15569.7,-2746.54 L-15569.7,-2746.74 L-15569.6,-2747.06 L-15569.5,-2747.25 L-15569.5,-2747.31 L-15569.4,-2747.48 L-15569.2,-2747.77 L-15569.2,-2747.85 L-15569.2,-2747.87 L-15569.1,-2747.94 L-15543.4,-2773.67 L-15543.3,-2773.73 L-15543.3,-2773.74 L-15543.2,-2773.8 L-15543,-2773.98 L-15542.8,-2774.07 L-15542.7,-2774.09 L-15542.6,-2774.15 L-15542.3,-2774.22 L-15542.1,-2774.25 L-15542,-2774.25 L-15541.9,-2774.25 L-15541.6,-2774.21 L-15541.4,-2774.17 L-15541.3,-2774.15 L-15541.2,-2774.08 L-15540.9,-2773.94 L-15540.7,-2773.84 L-15540.7,-2773.8 L-15540.6,-2773.68 L-15540.4,-2773.45 L-15540.3,-2773.3 L-15540.2,-2773.25 L-15540.1,-2773.09 L-15540,-2772.8 L-15540,-2772.62 L-15540,-2772.57 L-15540,-2772.39 L-15540,-2772.07 L-15540,-2771.98 L-15540,-2771.95 L-15540,-2771.86 L-15543.2,-2755.64"/>
</g>

<g fill="none" stroke="#000000" stroke-opacity="1" stroke-width="1" stroke-linecap="square" stroke-linejoin="bevel" transform="matrix(0.999891,0,0,-0.999891,17998.8,392.099)"
font-family="MS Shell Dlg 2" font-size="10.3125" font-weight="400" font-style="normal" 
>
</g>

<g fill="none" stroke="#000000" stroke-opacity="1" stroke-width="1" stroke-linecap="square" stroke-linejoin="bevel" transform="matrix(0.999891,0,0,-0.999891,17998.8,392.099)"
font-family="MS Shell Dlg 2" font-size="10.3125" font-weight="400" font-style="normal" 
>
</g>

<g fill="#ae5151" fill-opacity="0.2" stroke="#333333" stroke-opacity="1" stroke-width="1" stroke-linecap="round" stroke-linejoin="round" transform="matrix(0.999891,0,0,-0.999891,17998.8,392.099)"
font-family="MS Shell Dlg 2" font-size="10.3125" font-weight="400" font-style="normal" 
>
<path vector-effect="non-scaling-stroke" fill-rule="evenodd" d="M-18000.2,367.814 L-17997.2,387.876 L-17995.1,391.257 L-15637.7,-706.344 L-15543.8,-2318.5 L-15543.8,-2318.6 L-15543.8,-2318.63 L-15543.7,-2318.72 L-15543.7,-2319.05 L-15543.6,-2319.23 L-15543.6,-2319.28 L-15543.5,-2319.45 L-15543.3,-2319.71 L-15543.2,-2319.85 L-15543.1,-2319.89 L-15543,-2320 L-15542.7,-2320.17 L-15542.5,-2320.26 L-15542.5,-2320.28 L-15542.3,-2320.33 L-15541.9,-2320.38 L-15541.8,-2320.39 L-15541.7,-2320.39 L-15541.5,-2320.37 L-15541.2,-2320.3 L-15541,-2320.24 L-15541,-2320.21 L-15540.8,-2320.12 L-15540.5,-2319.93 L-15540.4,-2319.81 L-15540.3,-2319.77 L-15540.2,-2319.62 L-15540,-2319.35 L-15539.9,-2319.18 L-15539.9,-2319.12 L-15539.9,-2318.94 L-15539.8,-2318.61 L-15539.8,-2318.51 L-15539.8,-2318.48 L-15539.8,-2318.38 L-15539.8,-774.964 L-15535.9,-755.638 L-15534.9,-754.229 L-14142.2,-1402.65 L-14142,-1402.72 L-14142,-1402.73 L-14141.8,-1402.76 L-13943.8,-1402.76 L-13943.8,-1402.96 L-13943.8,-3081.93 L-13947.5,-3100.86 L-13958.2,-3116.75 L-13974,-3127.36 L-13990.8,-3130.69 L-13990.8,-3083.24 L-13990.8,-3083.04 L-13990.8,-3083 L-13991,-3082.63 L-13991,-3082.6 L-13991.3,-3082.33 L-13991.3,-3082.31 L-13991.7,-3082.16 L-13991.7,-3082.15 L-13991.9,-3082.13 L-17750.9,-3082.13 L-17751.1,-3082.15 L-17751.2,-3082.16 L-17751.5,-3082.32 L-17751.6,-3082.34 L-17751.9,-3082.64 L-17751.9,-3082.67 L-17752,-3083.05 L-17752,-3083.1 L-17752,-3083.3 L-17749.2,-3131.13 L-17749.9,-3131.13 L-17768.2,-3127.63 L-17783.7,-3117.74 L-17794.5,-3102.82 L-17799,-3084.79 L-18000.2,367.814 M-15543.2,-2755.64 L-15539.8,-2738.57 L-15539.8,-2738.52 L-15539.8,-2738.51 L-15539.8,-2738.46 L-15539.8,-2738.28 L-15539.8,-2738.23 L-15539.8,-2738.21 L-15539.8,-2738.17 L-15539.8,-2720.75 L-15539.8,-2720.66 L-15539.8,-2720.63 L-15539.8,-2720.53 L-15539.9,-2720.19 L-15539.9,-2720 L-15540,-2719.95 L-15540,-2719.78 L-15540.2,-2719.5 L-15540.4,-2719.35 L-15540.4,-2719.31 L-15540.5,-2719.19 L-15540.8,-2719 L-15541,-2718.91 L-15541,-2718.89 L-15541.2,-2718.83 L-15541.6,-2718.77 L-15541.8,-2718.75 L-15541.8,-2718.75 L-15542,-2718.76 L-15542.3,-2718.83 L-15542.5,-2718.89 L-15542.6,-2718.91 L-15542.7,-2719 L-15543,-2719.19 L-15543.1,-2719.25 L-15543.1,-2719.27 L-15543.2,-2719.33 L-15569.1,-2745.09 L-15569.2,-2745.16 L-15569.2,-2745.18 L-15569.2,-2745.26 L-15569.4,-2745.55 L-15569.5,-2745.72 L-15569.5,-2745.78 L-15569.6,-2745.97 L-15569.7,-2746.29 L-15569.7,-2746.49 L-15569.7,-2746.54 L-15569.7,-2746.74 L-15569.6,-2747.06 L-15569.5,-2747.25 L-15569.5,-2747.31 L-15569.4,-2747.48 L-15569.2,-2747.77 L-15569.2,-2747.85 L-15569.2,-2747.87 L-15569.1,-2747.94 L-15543.4,-2773.67 L-15543.3,-2773.73 L-15543.3,-2773.74 L-15543.2,-2773.8 L-15543,-2773.98 L-15542.8,-2774.07 L-15542.7,-2774.09 L-15542.6,-2774.15 L-15542.3,-2774.22 L-15542.1,-2774.25 L-15542,-2774.25 L-15541.9,-2774.25 L-15541.6,-2774.21 L-15541.4,-2774.17 L-15541.3,-2774.15 L-15541.2,-2774.08 L-15540.9,-2773.94 L-15540.7,-2773.84 L-15540.7,-2773.8 L-15540.6,-2773.68 L-15540.4,-2773.45 L-15540.3,-2773.3 L-15540.2,-2773.25 L-15540.1,-2773.09 L-15540,-2772.8 L-15540,-2772.62 L-15540,-2772.57 L-15540,-2772.39 L-15540,-2772.07 L-15540,-2771.98 L-15540,-2771.95 L-15540,-2771.86 L-15543.2,-2755.64"/>
</g>

<g fill="none" stroke="#000000" stroke-opacity="1" stroke-width="1" stroke-linecap="square" stroke-linejoin="bevel" transform="matrix(0.999891,0,0,-0.999891,17998.8,392.099)"
font-family="MS Shell Dlg 2" font-size="10.3125" font-weight="400" font-style="normal" 
>
</g>

<g fill="none" stroke="#000000" stroke-opacity="1" stroke-width="1" stroke-linecap="square" stroke-linejoin="bevel" transform="matrix(0.999891,0,0,-0.999891,17998.8,392.099)"
font-family="MS Shell Dlg 2" font-size="10.3125" font-weight="400" font-style="normal" 
>
</g>

<g fill="#ffff00" fill-opacity="0.2" stroke="#333333" stroke-opacity="1" stroke-width="1" stroke-linecap="round" stroke-linejoin="round" transform="matrix(0.999891,0,0,-0.999891,17998.8,392.099)"
font-family="MS Shell Dlg 2" font-size="10.3125" font-weight="400" font-style="normal" 
>
<path vector-effect="non-scaling-stroke" fill-rule="evenodd" d="M-18000.2,367.814 L-17997.2,387.876 L-17995.1,391.257 L-15637.7,-706.344 L-15543.8,-2318.5 L-15543.8,-2318.6 L-15543.8,-2318.63 L-15543.7,-2318.72 L-15543.7,-2319.05 L-15543.6,-2319.23 L-15543.6,-2319.28 L-15543.5,-2319.45 L-15543.3,-2319.71 L-15543.2,-2319.85 L-15543.1,-2319.89 L-15543,-2320 L-15542.7,-2320.17 L-15542.5,-2320.26 L-15542.5,-2320.28 L-15542.3,-2320.33 L-15541.9,-2320.38 L-15541.8,-2320.39 L-15541.7,-2320.39 L-15541.5,-2320.37 L-15541.2,-2320.3 L-15541,-2320.24 L-15541,-2320.21 L-15540.8,-2320.12 L-15540.5,-2319.93 L-15540.4,-2319.81 L-15540.3,-2319.77 L-15540.2,-2319.62 L-15540,-2319.35 L-15539.9,-2319.18 L-15539.9,-2319.12 L-15539.9,-2318.94 L-15539.8,-2318.61 L-15539.8,-2318.51 L-15539.8,-2318.48 L-15539.8,-2318.38 L-15539.8,-774.964 L-15535.9,-755.638 L-15534.9,-754.229 L-14142.2,-1402.65 L-14142,-1402.72 L-14142,-1402.73 L-14141.8,-1402.76 L-13943.8,-1402.76 L-13943.8,-1402.96 L-13943.8,-3081.93 L-13947.5,-3100.86 L-13958.2,-3116.75 L-13974,-3127.36 L-13990.8,-3130.69 L-13990.8,-3083.24 L-13990.8,-3083.04 L-13990.8,-3083 L-13991,-3082.63 L-13991,-3082.6 L-13991.3,-3082.33 L-13991.3,-3082.31 L-13991.7,-3082.16 L-13991.7,-3082.15 L-13991.9,-3082.13 L-17750.9,-3082.13 L-17751.1,-3082.15 L-17751.2,-3082.16 L-17751.5,-3082.32 L-17751.6,-3082.34 L-17751.9,-3082.64 L-17751.9,-3082.67 L-17752,-3083.05 L-17752,-3083.1 L-17752,-3083.3 L-17749.2,-3131.13 L-17749.9,-3131.13 L-17768.2,-3127.63 L-17783.7,-3117.74 L-17794.5,-3102.82 L-17799,-3084.79 L-18000.2,367.814 M-15543.2,-2755.64 L-15539.8,-2738.57 L-15539.8,-2738.52 L-15539.8,-2738.51 L-15539.8,-2738.46 L-15539.8,-2738.28 L-15539.8,-2738.23 L-15539.8,-2738.21 L-15539.8,-2738.17 L-15539.8,-2720.75 L-15539.8,-2720.66 L-15539.8,-2720.63 L-15539.8,-2720.53 L-15539.9,-2720.19 L-15539.9,-2720 L-15540,-2719.95 L-15540,-2719.78 L-15540.2,-2719.5 L-15540.4,-2719.35 L-15540.4,-2719.31 L-15540.5,-2719.19 L-15540.8,-2719 L-15541,-2718.91 L-15541,-2718.89 L-15541.2,-2718.83 L-15541.6,-2718.77 L-15541.8,-2718.75 L-15541.8,-2718.75 L-15542,-2718.76 L-15542.3,-2718.83 L-15542.5,-2718.89 L-15542.6,-2718.91 L-15542.7,-2719 L-15543,-2719.19 L-15543.1,-2719.25 L-15543.1,-2719.27 L-15543.2,-2719.33 L-15569.1,-2745.09 L-15569.2,-2745.16 L-15569.2,-2745.18 L-15569.2,-2745.26 L-15569.4,-2745.55 L-15569.5,-2745.72 L-15569.5,-2745.78 L-15569.6,-2745.97 L-15569.7,-2746.29 L-15569.7,-2746.49 L-15569.7,-2746.54 L-15569.7,-2746.74 L-15569.6,-2747.06 L-15569.5,-2747.25 L-15569.5,-2747.31 L-15569.4,-2747.48 L-15569.2,-2747.77 L-15569.2,-2747.85 L-15569.2,-2747.87 L-15569.1,-2747.94 L-15543.4,-2773.67 L-15543.3,-2773.73 L-15543.3,-2773.74 L-15543.2,-2773.8 L-15543,-2773.98 L-15542.8,-2774.07 L-15542.7,-2774.09 L-15542.6,-2774.15 L-15542.3,-2774.22 L-15542.1,-2774.25 L-15542,-2774.25 L-15541.9,-2774.25 L-15541.6,-2774.21 L-15541.4,-2774.17 L-15541.3,-2774.15 L-15541.2,-2774.08 L-15540.9,-2773.94 L-15540.7,-2773.84 L-15540.7,-2773.8 L-15540.6,-2773.68 L-15540.4,-2773.45 L-15540.3,-2773.3 L-15540.2,-2773.25 L-15540.1,-2773.09 L-15540,-2772.8 L-15540,-2772.62 L-15540,-2772.57 L-15540,-2772.39 L-15540,-2772.07 L-15540,-2771.98 L-15540,-2771.95 L-15540,-2771.86 L-15543.2,-2755.64"/>
</g>

<g fill="none" stroke="#000000" stroke-opacity="1" stroke-width="1" stroke-linecap="square" stroke-linejoin="bevel" transform="matrix(0.999891,0,0,-0.999891,17998.8,392.099)"
font-family="MS Shell Dlg 2" font-size="10.3125" font-weight="400" font-style="normal" 
>
</g>

<g fill="none" stroke="#000000" stroke-opacity="1" stroke-width="1" stroke-linecap="square" stroke-linejoin="bevel" transform="matrix(0.999891,0,0,-0.999891,17998.8,392.099)"
font-family="MS Shell Dlg 2" font-size="10.3125" font-weight="400" font-style="normal" 
>
</g>

<g fill="#ae5151" fill-opacity="0.2" stroke="#333333" stroke-opacity="1" stroke-width="1" stroke-linecap="round" stroke-linejoin="round" transform="matrix(0.999891,0,0,-0.999891,17998.8,392.099)"
font-family="MS Shell Dlg 2" font-size="10.3125" font-weight="400" font-style="normal" 
>
<path vector-effect="non-scaling-stroke" fill-rule="evenodd" d="M-18000.2,367.814 L-17997.2,387.876 L-17995.1,391.257 L-15637.7,-706.344 L-15543.8,-2318.5 L-15543.8,-2318.6 L-15543.8,-2318.63 L-15543.7,-2318.72 L-15543.7,-2319.05 L-15543.6,-2319.23 L-15543.6,-2319.28 L-15543.5,-2319.45 L-15543.3,-2319.71 L-15543.2,-2319.85 L-15543.1,-2319.89 L-15543,-2320 L-15542.7,-2320.17 L-15542.5,-2320.26 L-15542.5,-2320.28 L-15542.3,-2320.33 L-15541.9,-2320.38 L-15541.8,-2320.39 L-15541.7,-2320.39 L-15541.5,-2320.37 L-15541.2,-2320.3 L-15541,-2320.24 L-15541,-2320.21 L-15540.8,-2320.12 L-15540.5,-2319.93 L-15540.4,-2319.81 L-15540.3,-2319.77 L-15540.2,-2319.62 L-15540,-2319.35 L-15539.9,-2319.18 L-15539.9,-2319.12 L-15539.9,-2318.94 L-15539.8,-2318.61 L-15539.8,-2318.51 L-15539.8,-2318.48 L-15539.8,-2318.38 L-15539.8,-774.964 L-15535.9,-755.638 L-15534.9,-754.229 L-14142.2,-1402.65 L-14142,-1402.72 L-14142,-1402.73 L-14141.8,-1402.76 L-13943.8,-1402.76 L-13943.8,-1402.96 L-13943.8,-3081.93 L-13947.5,-3100.86 L-13958.2,-3116.75 L-13974,-3127.36 L-13990.8,-3130.69 L-13990.8,-3083.24 L-13990.8,-3083.04 L-13990.8,-3083 L-13991,-3082.63 L-13991,-3082.6 L-13991.3,-3082.33 L-13991.3,-3082.31 L-13991.7,-3082.16 L-13991.7,-3082.15 L-13991.9,-3082.13 L-17750.9,-3082.13 L-17751.1,-3082.15 L-17751.2,-3082.16 L-17751.5,-3082.32 L-17751.6,-3082.34 L-17751.9,-3082.64 L-17751.9,-3082.67 L-17752,-3083.05 L-17752,-3083.1 L-17752,-3083.3 L-17749.2,-3131.13 L-17749.9,-3131.13 L-17768.2,-3127.63 L-17783.7,-3117.74 L-17794.5,-3102.82 L-17799,-3084.79 L-18000.2,367.814 M-15543.2,-2755.64 L-15539.8,-2738.57 L-15539.8,-2738.52 L-15539.8,-2738.51 L-15539.8,-2738.46 L-15539.8,-2738.28 L-15539.8,-2738.23 L-15539.8,-2738.21 L-15539.8,-2738.17 L-15539.8,-2720.75 L-15539.8,-2720.66 L-15539.8,-2720.63 L-15539.8,-2720.53 L-15539.9,-2720.19 L-15539.9,-2720 L-15540,-2719.95 L-15540,-2719.78 L-15540.2,-2719.5 L-15540.4,-2719.35 L-15540.4,-2719.31 L-15540.5,-2719.19 L-15540.8,-2719 L-15541,-2718.91 L-15541,-2718.89 L-15541.2,-2718.83 L-15541.6,-2718.77 L-15541.8,-2718.75 L-15541.8,-2718.75 L-15542,-2718.76 L-15542.3,-2718.83 L-15542.5,-2718.89 L-15542.6,-2718.91 L-15542.7,-2719 L-15543,-2719.19 L-15543.1,-2719.25 L-15543.1,-2719.27 L-15543.2,-2719.33 L-15569.1,-2745.09 L-15569.2,-2745.16 L-15569.2,-2745.18 L-15569.2,-2745.26 L-15569.4,-2745.55 L-15569.5,-2745.72 L-15569.5,-2745.78 L-15569.6,-2745.97 L-15569.7,-2746.29 L-15569.7,-2746.49 L-15569.7,-2746.54 L-15569.7,-2746.74 L-15569.6,-2747.06 L-15569.5,-2747.25 L-15569.5,-2747.31 L-15569.4,-2747.48 L-15569.2,-2747.77 L-15569.2,-2747.85 L-15569.2,-2747.87 L-15569.1,-2747.94 L-15543.4,-2773.67 L-15543.3,-2773.73 L-15543.3,-2773.74 L-15543.2,-2773.8 L-15543,-2773.98 L-15542.8,-2774.07 L-15542.7,-2774.09 L-15542.6,-2774.15 L-15542.3,-2774.22 L-15542.1,-2774.25 L-15542,-2774.25 L-15541.9,-2774.25 L-15541.6,-2774.21 L-15541.4,-2774.17 L-15541.3,-2774.15 L-15541.2,-2774.08 L-15540.9,-2773.94 L-15540.7,-2773.84 L-15540.7,-2773.8 L-15540.6,-2773.68 L-15540.4,-2773.45 L-15540.3,-2773.3 L-15540.2,-2773.25 L-15540.1,-2773.09 L-15540,-2772.8 L-15540,-2772.62 L-15540,-2772.57 L-15540,-2772.39 L-15540,-2772.07 L-15540,-2771.98 L-15540,-2771.95 L-15540,-2771.86 L-15543.2,-2755.64"/>
</g>

<g fill="none" stroke="#000000" stroke-opacity="1" stroke-width="1" stroke-linecap="square" stroke-linejoin="bevel" transform="matrix(0.999891,0,0,-0.999891,17998.8,392.099)"
font-family="MS Shell Dlg 2" font-size="10.3125" font-weight="400" font-style="normal" 
>
</g>

<g fill="none" stroke="#000000" stroke-opacity="1" stroke-width="1" stroke-linecap="square" stroke-linejoin="bevel" transform="matrix(0.999891,0,0,-0.999891,17998.8,392.099)"
font-family="MS Shell Dlg 2" font-size="10.3125" font-weight="400" font-style="normal" 
>
</g>

<g fill="#333333" fill-opacity="0.2" stroke="#333333" stroke-opacity="1" stroke-width="1" stroke-linecap="round" stroke-linejoin="round" transform="matrix(0.999891,0,0,-0.999891,17998.8,392.099)"
font-family="MS Shell Dlg 2" font-size="10.3125" font-weight="400" font-style="normal" 
>
<path vector-effect="non-scaling-stroke" fill-rule="evenodd" d="M-18000.2,367.814 L-17997.2,387.876 L-17995.1,391.257 L-15637.7,-706.344 L-15543.8,-2318.5 L-15543.8,-2318.6 L-15543.8,-2318.63 L-15543.7,-2318.72 L-15543.7,-2319.05 L-15543.6,-2319.23 L-15543.6,-2319.28 L-15543.5,-2319.45 L-15543.3,-2319.71 L-15543.2,-2319.85 L-15543.1,-2319.89 L-15543,-2320 L-15542.7,-2320.17 L-15542.5,-2320.26 L-15542.5,-2320.28 L-15542.3,-2320.33 L-15541.9,-2320.38 L-15541.8,-2320.39 L-15541.7,-2320.39 L-15541.5,-2320.37 L-15541.2,-2320.3 L-15541,-2320.24 L-15541,-2320.21 L-15540.8,-2320.12 L-15540.5,-2319.93 L-15540.4,-2319.81 L-15540.3,-2319.77 L-15540.2,-2319.62 L-15540,-2319.35 L-15539.9,-2319.18 L-15539.9,-2319.12 L-15539.9,-2318.94 L-15539.8,-2318.61 L-15539.8,-2318.51 L-15539.8,-2318.48 L-15539.8,-2318.38 L-15539.8,-774.964 L-15535.9,-755.638 L-15534.9,-754.229 L-14142.2,-1402.65 L-14142,-1402.72 L-14142,-1402.73 L-14141.8,-1402.76 L-13943.8,-1402.76 L-13943.8,-1402.96 L-13943.8,-3081.93 L-13947.5,-3100.86 L-13958.2,-3116.75 L-13974,-3127.36 L-13990.8,-3130.69 L-13990.8,-3083.24 L-13990.8,-3083.04 L-13990.8,-3083 L-13991,-3082.63 L-13991,-3082.6 L-13991.3,-3082.33 L-13991.3,-3082.31 L-13991.7,-3082.16 L-13991.7,-3082.15 L-13991.9,-3082.13 L-17750.9,-3082.13 L-17751.1,-3082.15 L-17751.2,-3082.16 L-17751.5,-3082.32 L-17751.6,-3082.34 L-17751.9,-3082.64 L-17751.9,-3082.67 L-17752,-3083.05 L-17752,-3083.1 L-17752,-3083.3 L-17749.2,-3131.13 L-17749.9,-3131.13 L-17768.2,-3127.63 L-17783.7,-3117.74 L-17794.5,-3102.82 L-17799,-3084.79 L-18000.2,367.814 M-15543.2,-2755.64 L-15539.8,-2738.57 L-15539.8,-2738.52 L-15539.8,-2738.51 L-15539.8,-2738.46 L-15539.8,-2738.28 L-15539.8,-2738.23 L-15539.8,-2738.21 L-15539.8,-2738.17 L-15539.8,-2720.75 L-15539.8,-2720.66 L-15539.8,-2720.63 L-15539.8,-2720.53 L-15539.9,-2720.19 L-15539.9,-2720 L-15540,-2719.95 L-15540,-2719.78 L-15540.2,-2719.5 L-15540.4,-2719.35 L-15540.4,-2719.31 L-15540.5,-2719.19 L-15540.8,-2719 L-15541,-2718.91 L-15541,-2718.89 L-15541.2,-2718.83 L-15541.6,-2718.77 L-15541.8,-2718.75 L-15541.8,-2718.75 L-15542,-2718.76 L-15542.3,-2718.83 L-15542.5,-2718.89 L-15542.6,-2718.91 L-15542.7,-2719 L-15543,-2719.19 L-15543.1,-2719.25 L-15543.1,-2719.27 L-15543.2,-2719.33 L-15569.1,-2745.09 L-15569.2,-2745.16 L-15569.2,-2745.18 L-15569.2,-2745.26 L-15569.4,-2745.55 L-15569.5,-2745.72 L-15569.5,-2745.78 L-15569.6,-2745.97 L-15569.7,-2746.29 L-15569.7,-2746.49 L-15569.7,-2746.54 L-15569.7,-2746.74 L-15569.6,-2747.06 L-15569.5,-2747.25 L-15569.5,-2747.31 L-15569.4,-2747.48 L-15569.2,-2747.77 L-15569.2,-2747.85 L-15569.2,-2747.87 L-15569.1,-2747.94 L-15543.4,-2773.67 L-15543.3,-2773.73 L-15543.3,-2773.74 L-15543.2,-2773.8 L-15543,-2773.98 L-15542.8,-2774.07 L-15542.7,-2774.09 L-15542.6,-2774.15 L-15542.3,-2774.22 L-15542.1,-2774.25 L-15542,-2774.25 L-15541.9,-2774.25 L-15541.6,-2774.21 L-15541.4,-2774.17 L-15541.3,-2774.15 L-15541.2,-2774.08 L-15540.9,-2773.94 L-15540.7,-2773.84 L-15540.7,-2773.8 L-15540.6,-2773.68 L-15540.4,-2773.45 L-15540.3,-2773.3 L-15540.2,-2773.25 L-15540.1,-2773.09 L-15540,-2772.8 L-15540,-2772.62 L-15540,-2772.57 L-15540,-2772.39 L-15540,-2772.07 L-15540,-2771.98 L-15540,-2771.95 L-15540,-2771.86 L-15543.2,-2755.64"/>
</g>

<g fill="none" stroke="#000000" stroke-opacity="1" stroke-width="1" stroke-linecap="square" stroke-linejoin="bevel" transform="matrix(0.999891,0,0,-0.999891,17998.8,392.099)"
font-family="MS Shell Dlg 2" font-size="10.3125" font-weight="400" font-style="normal" 
>
</g>

<g fill="none" stroke="#000000" stroke-opacity="1" stroke-width="1" stroke-linecap="square" stroke-linejoin="bevel" transform="matrix(1,0,0,-1,0,3523.38)"
font-family="MS Shell Dlg 2" font-size="10.3125" font-weight="400" font-style="normal" 
>
</g>
</g>
</svg>
