<?xml version="1.0" encoding="UTF-8" standalone="no"?>
<svg width="399.627mm" height="735.189mm"
 xmlns="http://www.w3.org/2000/svg" xmlns:xlink="http://www.w3.org/1999/xlink"  version="1.2" baseProfile="tiny">
<title>SVG Generator Example Drawing</title>
<desc>An SVG drawing created by the SVG Generator</desc>
<defs>
</defs>
<g fill="none" stroke="black" stroke-width="1" fill-rule="evenodd" stroke-linecap="square" stroke-linejoin="bevel" >

<g fill="none" stroke="#000000" stroke-opacity="1" stroke-width="1" stroke-linecap="square" stroke-linejoin="bevel" transform="matrix(1,0,0,-1,0,2605.66)"
font-family="MS Shell Dlg 2" font-size="10.3125" font-weight="400" font-style="normal" 
>
</g>

<g fill="none" stroke="#000000" stroke-opacity="1" stroke-width="1" stroke-linecap="square" stroke-linejoin="bevel" transform="matrix(1,0,0,-1,0,2605.66)"
font-family="MS Shell Dlg 2" font-size="10.3125" font-weight="400" font-style="normal" 
>
</g>

<g fill="none" stroke="#000000" stroke-opacity="1" stroke-width="1" stroke-linecap="square" stroke-linejoin="bevel" transform="matrix(0.999435,0,0,-0.999435,18995.6,2930.13)"
font-family="MS Shell Dlg 2" font-size="10.3125" font-weight="400" font-style="normal" 
>
</g>

<g fill="#333333" fill-opacity="0.2" stroke="#333333" stroke-opacity="1" stroke-width="1" stroke-linecap="round" stroke-linejoin="round" transform="matrix(0.999435,0,0,-0.999435,18995.6,2930.13)"
font-family="MS Shell Dlg 2" font-size="10.3125" font-weight="400" font-style="normal" 
>
<path vector-effect="non-scaling-stroke" fill-rule="evenodd" d="M-19005.9,810.034 L-18469.7,2929.82 L-17597.7,2752 L-17590.1,2748.59 L-18042.9,1575.55 L-18043,1575.4 L-18043,1575.36 L-18043,1575.05 L-18043,1575.01 L-18043,1574.86 L-18017.8,1478.21 L-17950.7,325.883 L-17954.6,325.154 L-17974.4,329.764 L-19005.9,810.034"/>
</g>

<g fill="none" stroke="#000000" stroke-opacity="1" stroke-width="1" stroke-linecap="square" stroke-linejoin="bevel" transform="matrix(0.999435,0,0,-0.999435,18995.6,2930.13)"
font-family="MS Shell Dlg 2" font-size="10.3125" font-weight="400" font-style="normal" 
>
</g>

<g fill="none" stroke="#000000" stroke-opacity="1" stroke-width="1" stroke-linecap="square" stroke-linejoin="bevel" transform="matrix(0.999435,0,0,-0.999435,18995.6,2930.13)"
font-family="MS Shell Dlg 2" font-size="10.3125" font-weight="400" font-style="normal" 
>
</g>

<g fill="#ae5151" fill-opacity="0.2" stroke="#333333" stroke-opacity="1" stroke-width="1" stroke-linecap="round" stroke-linejoin="round" transform="matrix(0.999435,0,0,-0.999435,18995.6,2930.13)"
font-family="MS Shell Dlg 2" font-size="10.3125" font-weight="400" font-style="normal" 
>
<path vector-effect="non-scaling-stroke" fill-rule="evenodd" d="M-19005.9,810.034 L-18469.7,2929.82 L-17597.7,2752 L-17590.1,2748.59 L-18042.9,1575.55 L-18043,1575.4 L-18043,1575.36 L-18043,1575.05 L-18043,1575.01 L-18043,1574.86 L-18017.8,1478.21 L-17950.7,325.883 L-17954.6,325.154 L-17974.4,329.764 L-19005.9,810.034"/>
</g>

<g fill="none" stroke="#000000" stroke-opacity="1" stroke-width="1" stroke-linecap="square" stroke-linejoin="bevel" transform="matrix(0.999435,0,0,-0.999435,18995.6,2930.13)"
font-family="MS Shell Dlg 2" font-size="10.3125" font-weight="400" font-style="normal" 
>
</g>

<g fill="none" stroke="#000000" stroke-opacity="1" stroke-width="1" stroke-linecap="square" stroke-linejoin="bevel" transform="matrix(0.999435,0,0,-0.999435,18995.6,2930.13)"
font-family="MS Shell Dlg 2" font-size="10.3125" font-weight="400" font-style="normal" 
>
</g>

<g fill="#ffff00" fill-opacity="0.2" stroke="#333333" stroke-opacity="1" stroke-width="1" stroke-linecap="round" stroke-linejoin="round" transform="matrix(0.999435,0,0,-0.999435,18995.6,2930.13)"
font-family="MS Shell Dlg 2" font-size="10.3125" font-weight="400" font-style="normal" 
>
<path vector-effect="non-scaling-stroke" fill-rule="evenodd" d="M-19005.9,810.034 L-18469.7,2929.82 L-17597.7,2752 L-17590.1,2748.59 L-18042.9,1575.55 L-18043,1575.4 L-18043,1575.36 L-18043,1575.05 L-18043,1575.01 L-18043,1574.86 L-18017.8,1478.21 L-17950.7,325.883 L-17954.6,325.154 L-17974.4,329.764 L-19005.9,810.034"/>
</g>

<g fill="none" stroke="#000000" stroke-opacity="1" stroke-width="1" stroke-linecap="square" stroke-linejoin="bevel" transform="matrix(0.999435,0,0,-0.999435,18995.6,2930.13)"
font-family="MS Shell Dlg 2" font-size="10.3125" font-weight="400" font-style="normal" 
>
</g>

<g fill="none" stroke="#000000" stroke-opacity="1" stroke-width="1" stroke-linecap="square" stroke-linejoin="bevel" transform="matrix(0.999435,0,0,-0.999435,18995.6,2930.13)"
font-family="MS Shell Dlg 2" font-size="10.3125" font-weight="400" font-style="normal" 
>
</g>

<g fill="#ae5151" fill-opacity="0.2" stroke="#333333" stroke-opacity="1" stroke-width="1" stroke-linecap="round" stroke-linejoin="round" transform="matrix(0.999435,0,0,-0.999435,18995.6,2930.13)"
font-family="MS Shell Dlg 2" font-size="10.3125" font-weight="400" font-style="normal" 
>
<path vector-effect="non-scaling-stroke" fill-rule="evenodd" d="M-19005.9,810.034 L-18469.7,2929.82 L-17597.7,2752 L-17590.1,2748.59 L-18042.9,1575.55 L-18043,1575.4 L-18043,1575.36 L-18043,1575.05 L-18043,1575.01 L-18043,1574.86 L-18017.8,1478.21 L-17950.7,325.883 L-17954.6,325.154 L-17974.4,329.764 L-19005.9,810.034"/>
</g>

<g fill="none" stroke="#000000" stroke-opacity="1" stroke-width="1" stroke-linecap="square" stroke-linejoin="bevel" transform="matrix(0.999435,0,0,-0.999435,18995.6,2930.13)"
font-family="MS Shell Dlg 2" font-size="10.3125" font-weight="400" font-style="normal" 
>
</g>

<g fill="none" stroke="#000000" stroke-opacity="1" stroke-width="1" stroke-linecap="square" stroke-linejoin="bevel" transform="matrix(0.999435,0,0,-0.999435,18995.6,2930.13)"
font-family="MS Shell Dlg 2" font-size="10.3125" font-weight="400" font-style="normal" 
>
</g>

<g fill="#333333" fill-opacity="0.2" stroke="#333333" stroke-opacity="1" stroke-width="1" stroke-linecap="round" stroke-linejoin="round" transform="matrix(0.999435,0,0,-0.999435,18995.6,2930.13)"
font-family="MS Shell Dlg 2" font-size="10.3125" font-weight="400" font-style="normal" 
>
<path vector-effect="non-scaling-stroke" fill-rule="evenodd" d="M-19005.9,810.034 L-18469.7,2929.82 L-17597.7,2752 L-17590.1,2748.59 L-18042.9,1575.55 L-18043,1575.4 L-18043,1575.36 L-18043,1575.05 L-18043,1575.01 L-18043,1574.86 L-18017.8,1478.21 L-17950.7,325.883 L-17954.6,325.154 L-17974.4,329.764 L-19005.9,810.034"/>
</g>

<g fill="none" stroke="#000000" stroke-opacity="1" stroke-width="1" stroke-linecap="square" stroke-linejoin="bevel" transform="matrix(0.999435,0,0,-0.999435,18995.6,2930.13)"
font-family="MS Shell Dlg 2" font-size="10.3125" font-weight="400" font-style="normal" 
>
</g>

<g fill="none" stroke="#000000" stroke-opacity="1" stroke-width="1" stroke-linecap="square" stroke-linejoin="bevel" transform="matrix(1,0,0,-1,0,2605.66)"
font-family="MS Shell Dlg 2" font-size="10.3125" font-weight="400" font-style="normal" 
>
</g>
</g>
</svg>
