<?xml version="1.0" encoding="UTF-8" standalone="no"?>
<svg width="590.409mm" height="469.053mm"
 xmlns="http://www.w3.org/2000/svg" xmlns:xlink="http://www.w3.org/1999/xlink"  version="1.2" baseProfile="tiny">
<title>SVG Generator Example Drawing</title>
<desc>An SVG drawing created by the SVG Generator</desc>
<defs>
</defs>
<g fill="none" stroke="black" stroke-width="1" fill-rule="evenodd" stroke-linecap="square" stroke-linejoin="bevel" >

<g fill="none" stroke="#000000" stroke-opacity="1" stroke-width="1" stroke-linecap="square" stroke-linejoin="bevel" transform="matrix(1,0,0,-1,0,1662.34)"
font-family="MS Shell Dlg 2" font-size="10.3125" font-weight="400" font-style="normal" 
>
</g>

<g fill="none" stroke="#000000" stroke-opacity="1" stroke-width="1" stroke-linecap="square" stroke-linejoin="bevel" transform="matrix(1,0,0,-1,0,1662.34)"
font-family="MS Shell Dlg 2" font-size="10.3125" font-weight="400" font-style="normal" 
>
</g>

<g fill="none" stroke="#000000" stroke-opacity="1" stroke-width="1" stroke-linecap="square" stroke-linejoin="bevel" transform="matrix(0.999738,0,0,-0.999738,19993.1,4535.89)"
font-family="MS Shell Dlg 2" font-size="10.3125" font-weight="400" font-style="normal" 
>
</g>

<g fill="#333333" fill-opacity="0.2" stroke="#333333" stroke-opacity="1" stroke-width="1" stroke-linecap="round" stroke-linejoin="round" transform="matrix(0.999738,0,0,-0.999738,19993.1,4535.89)"
font-family="MS Shell Dlg 2" font-size="10.3125" font-weight="400" font-style="normal" 
>
<path vector-effect="non-scaling-stroke" fill-rule="evenodd" d="M-19997.8,3193.47 L-19997.4,3197.86 L-19954.5,3343.66 L-19951.8,3350.93 L-19391,4536.14 L-17906.2,4096.22 L-18408.8,2978.79 L-18408.8,2978.75 L-18408.8,2978.74 L-18408.8,2978.69 L-18408.9,2978.54 L-18408.9,2978.5 L-18408.9,2978.49 L-18408.9,2978.45 L-18435.1,2874.8 L-19997.8,3193.47"/>
</g>

<g fill="none" stroke="#000000" stroke-opacity="1" stroke-width="1" stroke-linecap="square" stroke-linejoin="bevel" transform="matrix(0.999738,0,0,-0.999738,19993.1,4535.89)"
font-family="MS Shell Dlg 2" font-size="10.3125" font-weight="400" font-style="normal" 
>
</g>

<g fill="none" stroke="#000000" stroke-opacity="1" stroke-width="1" stroke-linecap="square" stroke-linejoin="bevel" transform="matrix(0.999738,0,0,-0.999738,19993.1,4535.89)"
font-family="MS Shell Dlg 2" font-size="10.3125" font-weight="400" font-style="normal" 
>
</g>

<g fill="#ae5151" fill-opacity="0.2" stroke="#333333" stroke-opacity="1" stroke-width="1" stroke-linecap="round" stroke-linejoin="round" transform="matrix(0.999738,0,0,-0.999738,19993.1,4535.89)"
font-family="MS Shell Dlg 2" font-size="10.3125" font-weight="400" font-style="normal" 
>
<path vector-effect="non-scaling-stroke" fill-rule="evenodd" d="M-19997.8,3193.47 L-19997.4,3197.86 L-19954.5,3343.66 L-19951.8,3350.93 L-19391,4536.14 L-17906.2,4096.22 L-18408.8,2978.79 L-18408.8,2978.75 L-18408.8,2978.74 L-18408.8,2978.69 L-18408.9,2978.54 L-18408.9,2978.5 L-18408.9,2978.49 L-18408.9,2978.45 L-18435.1,2874.8 L-19997.8,3193.47"/>
</g>

<g fill="none" stroke="#000000" stroke-opacity="1" stroke-width="1" stroke-linecap="square" stroke-linejoin="bevel" transform="matrix(0.999738,0,0,-0.999738,19993.1,4535.89)"
font-family="MS Shell Dlg 2" font-size="10.3125" font-weight="400" font-style="normal" 
>
</g>

<g fill="none" stroke="#000000" stroke-opacity="1" stroke-width="1" stroke-linecap="square" stroke-linejoin="bevel" transform="matrix(0.999738,0,0,-0.999738,19993.1,4535.89)"
font-family="MS Shell Dlg 2" font-size="10.3125" font-weight="400" font-style="normal" 
>
</g>

<g fill="#ffff00" fill-opacity="0.2" stroke="#333333" stroke-opacity="1" stroke-width="1" stroke-linecap="round" stroke-linejoin="round" transform="matrix(0.999738,0,0,-0.999738,19993.1,4535.89)"
font-family="MS Shell Dlg 2" font-size="10.3125" font-weight="400" font-style="normal" 
>
<path vector-effect="non-scaling-stroke" fill-rule="evenodd" d="M-19997.8,3193.47 L-19997.4,3197.86 L-19954.5,3343.66 L-19951.8,3350.93 L-19391,4536.14 L-17906.2,4096.22 L-18408.8,2978.79 L-18408.8,2978.75 L-18408.8,2978.74 L-18408.8,2978.69 L-18408.9,2978.54 L-18408.9,2978.5 L-18408.9,2978.49 L-18408.9,2978.45 L-18435.1,2874.8 L-19997.8,3193.47"/>
</g>

<g fill="none" stroke="#000000" stroke-opacity="1" stroke-width="1" stroke-linecap="square" stroke-linejoin="bevel" transform="matrix(0.999738,0,0,-0.999738,19993.1,4535.89)"
font-family="MS Shell Dlg 2" font-size="10.3125" font-weight="400" font-style="normal" 
>
</g>

<g fill="none" stroke="#000000" stroke-opacity="1" stroke-width="1" stroke-linecap="square" stroke-linejoin="bevel" transform="matrix(0.999738,0,0,-0.999738,19993.1,4535.89)"
font-family="MS Shell Dlg 2" font-size="10.3125" font-weight="400" font-style="normal" 
>
</g>

<g fill="#ae5151" fill-opacity="0.2" stroke="#333333" stroke-opacity="1" stroke-width="1" stroke-linecap="round" stroke-linejoin="round" transform="matrix(0.999738,0,0,-0.999738,19993.1,4535.89)"
font-family="MS Shell Dlg 2" font-size="10.3125" font-weight="400" font-style="normal" 
>
<path vector-effect="non-scaling-stroke" fill-rule="evenodd" d="M-19997.8,3193.47 L-19997.4,3197.86 L-19954.5,3343.66 L-19951.8,3350.93 L-19391,4536.14 L-17906.2,4096.22 L-18408.8,2978.79 L-18408.8,2978.75 L-18408.8,2978.74 L-18408.8,2978.69 L-18408.9,2978.54 L-18408.9,2978.5 L-18408.9,2978.49 L-18408.9,2978.45 L-18435.1,2874.8 L-19997.8,3193.47"/>
</g>

<g fill="none" stroke="#000000" stroke-opacity="1" stroke-width="1" stroke-linecap="square" stroke-linejoin="bevel" transform="matrix(0.999738,0,0,-0.999738,19993.1,4535.89)"
font-family="MS Shell Dlg 2" font-size="10.3125" font-weight="400" font-style="normal" 
>
</g>

<g fill="none" stroke="#000000" stroke-opacity="1" stroke-width="1" stroke-linecap="square" stroke-linejoin="bevel" transform="matrix(0.999738,0,0,-0.999738,19993.1,4535.89)"
font-family="MS Shell Dlg 2" font-size="10.3125" font-weight="400" font-style="normal" 
>
</g>

<g fill="#333333" fill-opacity="0.2" stroke="#333333" stroke-opacity="1" stroke-width="1" stroke-linecap="round" stroke-linejoin="round" transform="matrix(0.999738,0,0,-0.999738,19993.1,4535.89)"
font-family="MS Shell Dlg 2" font-size="10.3125" font-weight="400" font-style="normal" 
>
<path vector-effect="non-scaling-stroke" fill-rule="evenodd" d="M-19997.8,3193.47 L-19997.4,3197.86 L-19954.5,3343.66 L-19951.8,3350.93 L-19391,4536.14 L-17906.2,4096.22 L-18408.8,2978.79 L-18408.8,2978.75 L-18408.8,2978.74 L-18408.8,2978.69 L-18408.9,2978.54 L-18408.9,2978.5 L-18408.9,2978.49 L-18408.9,2978.45 L-18435.1,2874.8 L-19997.8,3193.47"/>
</g>

<g fill="none" stroke="#000000" stroke-opacity="1" stroke-width="1" stroke-linecap="square" stroke-linejoin="bevel" transform="matrix(0.999738,0,0,-0.999738,19993.1,4535.89)"
font-family="MS Shell Dlg 2" font-size="10.3125" font-weight="400" font-style="normal" 
>
</g>

<g fill="none" stroke="#000000" stroke-opacity="1" stroke-width="1" stroke-linecap="square" stroke-linejoin="bevel" transform="matrix(1,0,0,-1,0,1662.34)"
font-family="MS Shell Dlg 2" font-size="10.3125" font-weight="400" font-style="normal" 
>
</g>
</g>
</svg>
