<?xml version="1.0" encoding="UTF-8" standalone="no"?>
<svg width="430.107mm" height="465.667mm"
 xmlns="http://www.w3.org/2000/svg" xmlns:xlink="http://www.w3.org/1999/xlink"  version="1.2" baseProfile="tiny">
<title>SVG Generator Example Drawing</title>
<desc>An SVG drawing created by the SVG Generator</desc>
<defs>
</defs>
<g fill="none" stroke="black" stroke-width="1" fill-rule="evenodd" stroke-linecap="square" stroke-linejoin="bevel" >

<g fill="none" stroke="#000000" stroke-opacity="1" stroke-width="1" stroke-linecap="square" stroke-linejoin="bevel" transform="matrix(1,0,0,-1,0,1650.13)"
font-family="MS Shell Dlg 2" font-size="10.3125" font-weight="400" font-style="normal" 
>
</g>

<g fill="none" stroke="#000000" stroke-opacity="1" stroke-width="1" stroke-linecap="square" stroke-linejoin="bevel" transform="matrix(1,0,0,-1,0,1650.13)"
font-family="MS Shell Dlg 2" font-size="10.3125" font-weight="400" font-style="normal" 
>
</g>

<g fill="none" stroke="#000000" stroke-opacity="1" stroke-width="1" stroke-linecap="square" stroke-linejoin="bevel" transform="matrix(0.999679,0,0,-0.999679,16191.5,6621.51)"
font-family="MS Shell Dlg 2" font-size="10.3125" font-weight="400" font-style="normal" 
>
</g>

<g fill="#ae5151" fill-opacity="0.2" stroke="#333333" stroke-opacity="1" stroke-width="1" stroke-linecap="round" stroke-linejoin="round" transform="matrix(0.999679,0,0,-0.999679,16191.5,6621.51)"
font-family="MS Shell Dlg 2" font-size="10.3125" font-weight="400" font-style="normal" 
>
<path vector-effect="non-scaling-stroke" fill-rule="evenodd" d="M-16196.2,6490.95 L-16192.4,6509.69 L-16181.7,6525.74 L-16168.3,6539.1 L-16099.2,6608.17 L-16083.2,6618.89 L-16064.4,6622.61 L-16045.7,6618.87 L-16029.6,6608.13 L-15994.1,6572.58 L-15978.4,6556.85 L-16028.1,6539.27 L-16028.2,6539.18 L-16028.3,6539.16 L-16028.6,6538.88 L-16028.6,6538.85 L-16028.8,6538.49 L-16028.8,6538.45 L-16028.8,6538.05 L-16028.8,6538.01 L-16028.6,6537.64 L-16028.6,6537.6 L-16028.5,6537.44 L-15706.6,6215.06 L-15775.4,6146.19 L-15775.5,6146.15 L-15775.5,6146.14 L-15775.6,6145.94 L-15775.6,6145.9 L-15775.7,6145.56 L-15775.8,6145.52 L-15775.7,6145.16 L-15775.7,6145.13 L-15775.6,6144.8 L-15775.5,6144.76 L-15775.4,6144.62 L-15432.2,5801.39 L-15432.1,5801.28 L-15432,5801.25 L-15431.7,5801.1 L-15431.7,5801.1 L-15431.3,5801.07 L-15431.3,5801.08 L-15430.9,5801.19 L-15430.9,5801.21 L-15430.7,5801.35 L-15430.7,5801.35 L-15430.6,5801.39 L-15362,5870.01 L-15004,5511.5 L-15072.4,5443.15 L-15072.4,5443.11 L-15072.4,5443.1 L-15072.6,5442.9 L-15072.6,5442.87 L-15072.7,5442.52 L-15072.7,5442.49 L-15072.7,5442.12 L-15072.7,5442.09 L-15072.5,5441.76 L-15072.5,5441.72 L-15072.4,5441.58 L-14721,5090.2 L-14720.9,5090.08 L-14720.8,5090.06 L-14720.5,5089.91 L-14720.5,5089.9 L-14720.1,5089.88 L-14720.1,5089.88 L-14719.7,5089.99 L-14719.7,5090.01 L-14719.5,5090.15 L-14719.5,5090.16 L-14719.4,5090.2 L-14685.9,5123.74 L-14676.4,5109.56 L-14672.7,5090.82 L-14676.4,5072.08 L-14687.1,5056.03 L-14700.5,5042.67 L-14769.6,4973.61 L-14769.8,4973.48 L-15162.4,5366.63 L-15093.4,5435.58 L-15093.4,5435.62 L-15093.4,5435.63 L-15093.2,5435.82 L-15093.2,5435.86 L-15093.1,5436.21 L-15093.1,5436.24 L-15093.1,5436.6 L-15093.1,5436.64 L-15093.3,5436.97 L-15093.3,5437.01 L-15093.4,5437.15 L-15436.6,5780.37 L-15436.8,5780.49 L-15436.8,5780.52 L-15437.1,5780.66 L-15437.2,5780.67 L-15437.5,5780.69 L-15437.6,5780.69 L-15437.9,5780.58 L-15438,5780.56 L-15438.2,5780.42 L-15438.2,5780.41 L-15438.2,5780.37 L-15506.9,5711.68 L-15864.9,6070.19 L-15796.5,6138.62 L-15796.4,6138.66 L-15796.4,6138.67 L-15796.3,6138.86 L-15796.2,6138.9 L-15796.1,6139.25 L-15796.1,6139.28 L-15796.2,6139.64 L-15796.2,6139.68 L-15796.3,6140.01 L-15796.3,6140.05 L-15796.5,6140.18 L-16147.8,6491.57 L-16148,6491.69 L-16148,6491.71 L-16148.3,6491.86 L-16148.4,6491.87 L-16148.7,6491.89 L-16148.8,6491.88 L-16149.1,6491.77 L-16149.2,6491.75 L-16149.4,6491.62 L-16149.4,6491.61 L-16149.4,6491.57 L-16183,6458.02 L-16192.4,6472.21 L-16196.2,6490.95"/>
</g>

<g fill="none" stroke="#000000" stroke-opacity="1" stroke-width="1" stroke-linecap="square" stroke-linejoin="bevel" transform="matrix(0.999679,0,0,-0.999679,16191.5,6621.51)"
font-family="MS Shell Dlg 2" font-size="10.3125" font-weight="400" font-style="normal" 
>
</g>

<g fill="none" stroke="#000000" stroke-opacity="1" stroke-width="1" stroke-linecap="square" stroke-linejoin="bevel" transform="matrix(0.999679,0,0,-0.999679,16191.5,6621.51)"
font-family="MS Shell Dlg 2" font-size="10.3125" font-weight="400" font-style="normal" 
>
</g>

<g fill="#333333" fill-opacity="0.2" stroke="#333333" stroke-opacity="1" stroke-width="1" stroke-linecap="round" stroke-linejoin="round" transform="matrix(0.999679,0,0,-0.999679,16191.5,6621.51)"
font-family="MS Shell Dlg 2" font-size="10.3125" font-weight="400" font-style="normal" 
>
<path vector-effect="non-scaling-stroke" fill-rule="evenodd" d="M-16196.2,6490.95 L-16192.4,6509.69 L-16181.7,6525.74 L-16168.3,6539.1 L-16099.2,6608.17 L-16083.2,6618.89 L-16064.4,6622.61 L-16045.7,6618.87 L-16029.6,6608.13 L-15994.1,6572.58 L-15978.4,6556.85 L-16028.1,6539.27 L-16028.2,6539.18 L-16028.3,6539.16 L-16028.6,6538.88 L-16028.6,6538.85 L-16028.8,6538.49 L-16028.8,6538.45 L-16028.8,6538.05 L-16028.8,6538.01 L-16028.6,6537.64 L-16028.6,6537.6 L-16028.5,6537.44 L-15706.6,6215.06 L-15775.4,6146.19 L-15775.5,6146.15 L-15775.5,6146.14 L-15775.6,6145.94 L-15775.6,6145.9 L-15775.7,6145.56 L-15775.8,6145.52 L-15775.7,6145.16 L-15775.7,6145.13 L-15775.6,6144.8 L-15775.5,6144.76 L-15775.4,6144.62 L-15432.2,5801.39 L-15432.1,5801.28 L-15432,5801.25 L-15431.7,5801.1 L-15431.7,5801.1 L-15431.3,5801.07 L-15431.3,5801.08 L-15430.9,5801.19 L-15430.9,5801.21 L-15430.7,5801.35 L-15430.7,5801.35 L-15430.6,5801.39 L-15362,5870.01 L-15004,5511.5 L-15072.4,5443.15 L-15072.4,5443.11 L-15072.4,5443.1 L-15072.6,5442.9 L-15072.6,5442.87 L-15072.7,5442.52 L-15072.7,5442.49 L-15072.7,5442.12 L-15072.7,5442.09 L-15072.5,5441.76 L-15072.5,5441.72 L-15072.4,5441.58 L-14721,5090.2 L-14720.9,5090.08 L-14720.8,5090.06 L-14720.5,5089.91 L-14720.5,5089.9 L-14720.1,5089.88 L-14720.1,5089.88 L-14719.7,5089.99 L-14719.7,5090.01 L-14719.5,5090.15 L-14719.5,5090.16 L-14719.4,5090.2 L-14685.9,5123.74 L-14676.4,5109.56 L-14672.7,5090.82 L-14676.4,5072.08 L-14687.1,5056.03 L-14700.5,5042.67 L-14769.6,4973.61 L-14769.8,4973.48 L-15162.4,5366.63 L-15093.4,5435.58 L-15093.4,5435.62 L-15093.4,5435.63 L-15093.2,5435.82 L-15093.2,5435.86 L-15093.1,5436.21 L-15093.1,5436.24 L-15093.1,5436.6 L-15093.1,5436.64 L-15093.3,5436.97 L-15093.3,5437.01 L-15093.4,5437.15 L-15436.6,5780.37 L-15436.8,5780.49 L-15436.8,5780.52 L-15437.1,5780.66 L-15437.2,5780.67 L-15437.5,5780.69 L-15437.6,5780.69 L-15437.9,5780.58 L-15438,5780.56 L-15438.2,5780.42 L-15438.2,5780.41 L-15438.2,5780.37 L-15506.9,5711.68 L-15864.9,6070.19 L-15796.5,6138.62 L-15796.4,6138.66 L-15796.4,6138.67 L-15796.3,6138.86 L-15796.2,6138.9 L-15796.1,6139.25 L-15796.1,6139.28 L-15796.2,6139.64 L-15796.2,6139.68 L-15796.3,6140.01 L-15796.3,6140.05 L-15796.5,6140.18 L-16147.8,6491.57 L-16148,6491.69 L-16148,6491.71 L-16148.3,6491.86 L-16148.4,6491.87 L-16148.7,6491.89 L-16148.8,6491.88 L-16149.1,6491.77 L-16149.2,6491.75 L-16149.4,6491.62 L-16149.4,6491.61 L-16149.4,6491.57 L-16183,6458.02 L-16192.4,6472.21 L-16196.2,6490.95"/>
</g>

<g fill="none" stroke="#000000" stroke-opacity="1" stroke-width="1" stroke-linecap="square" stroke-linejoin="bevel" transform="matrix(0.999679,0,0,-0.999679,16191.5,6621.51)"
font-family="MS Shell Dlg 2" font-size="10.3125" font-weight="400" font-style="normal" 
>
</g>

<g fill="none" stroke="#000000" stroke-opacity="1" stroke-width="1" stroke-linecap="square" stroke-linejoin="bevel" transform="matrix(1,0,0,-1,0,1650.13)"
font-family="MS Shell Dlg 2" font-size="10.3125" font-weight="400" font-style="normal" 
>
</g>
</g>
</svg>
