<?xml version="1.0" encoding="UTF-8" standalone="no"?>
<svg width="826.347mm" height="168.769mm"
 xmlns="http://www.w3.org/2000/svg" xmlns:xlink="http://www.w3.org/1999/xlink"  version="1.2" baseProfile="tiny">
<title>SVG Generator Example Drawing</title>
<desc>An SVG drawing created by the SVG Generator</desc>
<defs>
</defs>
<g fill="none" stroke="black" stroke-width="1" fill-rule="evenodd" stroke-linecap="square" stroke-linejoin="bevel" >

<g fill="none" stroke="#000000" stroke-opacity="1" stroke-width="1" stroke-linecap="square" stroke-linejoin="bevel" transform="matrix(1,0,0,-1,0,598.001)"
font-family="MS Shell Dlg 2" font-size="10.3125" font-weight="400" font-style="normal" 
>
</g>

<g fill="none" stroke="#000000" stroke-opacity="1" stroke-width="1" stroke-linecap="square" stroke-linejoin="bevel" transform="matrix(1,0,0,-1,0,598.001)"
font-family="MS Shell Dlg 2" font-size="10.3125" font-weight="400" font-style="normal" 
>
</g>

<g fill="none" stroke="#000000" stroke-opacity="1" stroke-width="1" stroke-linecap="square" stroke-linejoin="bevel" transform="matrix(0.999976,0,0,-0.999976,15539.9,2596.69)"
font-family="MS Shell Dlg 2" font-size="10.3125" font-weight="400" font-style="normal" 
>
</g>

<g fill="#333333" fill-opacity="0.2" stroke="#333333" stroke-opacity="1" stroke-width="1" stroke-linecap="round" stroke-linejoin="round" transform="matrix(0.999976,0,0,-0.999976,15539.9,2596.69)"
font-family="MS Shell Dlg 2" font-size="10.3125" font-weight="400" font-style="normal" 
>
<path vector-effect="non-scaling-stroke" fill-rule="evenodd" d="M-15539.8,2284.35 L-15539.8,2547.05 L-15536,2565.98 L-15525.4,2581.86 L-15509.5,2592.48 L-15490.6,2596.24 L-13392.3,2596.24 L-13376.6,2593.7 L-13362.6,2586.35 L-12632.2,2038.57 L-12618.7,2023.18 L-12612.7,2003.87 L-12613.2,1999.24 L-14141.7,1999.24 L-15539.8,2284.35"/>
</g>

<g fill="none" stroke="#000000" stroke-opacity="1" stroke-width="1" stroke-linecap="square" stroke-linejoin="bevel" transform="matrix(0.999976,0,0,-0.999976,15539.9,2596.69)"
font-family="MS Shell Dlg 2" font-size="10.3125" font-weight="400" font-style="normal" 
>
</g>

<g fill="none" stroke="#000000" stroke-opacity="1" stroke-width="1" stroke-linecap="square" stroke-linejoin="bevel" transform="matrix(0.999976,0,0,-0.999976,15539.9,2596.69)"
font-family="MS Shell Dlg 2" font-size="10.3125" font-weight="400" font-style="normal" 
>
</g>

<g fill="#ae5151" fill-opacity="0.2" stroke="#333333" stroke-opacity="1" stroke-width="1" stroke-linecap="round" stroke-linejoin="round" transform="matrix(0.999976,0,0,-0.999976,15539.9,2596.69)"
font-family="MS Shell Dlg 2" font-size="10.3125" font-weight="400" font-style="normal" 
>
<path vector-effect="non-scaling-stroke" fill-rule="evenodd" d="M-15539.8,2284.35 L-15539.8,2547.05 L-15536,2565.98 L-15525.4,2581.86 L-15509.5,2592.48 L-15490.6,2596.24 L-13392.3,2596.24 L-13376.6,2593.7 L-13362.6,2586.35 L-12632.2,2038.57 L-12618.7,2023.18 L-12612.7,2003.87 L-12613.2,1999.24 L-14141.7,1999.24 L-15539.8,2284.35"/>
</g>

<g fill="none" stroke="#000000" stroke-opacity="1" stroke-width="1" stroke-linecap="square" stroke-linejoin="bevel" transform="matrix(0.999976,0,0,-0.999976,15539.9,2596.69)"
font-family="MS Shell Dlg 2" font-size="10.3125" font-weight="400" font-style="normal" 
>
</g>

<g fill="none" stroke="#000000" stroke-opacity="1" stroke-width="1" stroke-linecap="square" stroke-linejoin="bevel" transform="matrix(0.999976,0,0,-0.999976,15539.9,2596.69)"
font-family="MS Shell Dlg 2" font-size="10.3125" font-weight="400" font-style="normal" 
>
</g>

<g fill="#ffff00" fill-opacity="0.2" stroke="#333333" stroke-opacity="1" stroke-width="1" stroke-linecap="round" stroke-linejoin="round" transform="matrix(0.999976,0,0,-0.999976,15539.9,2596.69)"
font-family="MS Shell Dlg 2" font-size="10.3125" font-weight="400" font-style="normal" 
>
<path vector-effect="non-scaling-stroke" fill-rule="evenodd" d="M-15539.8,2284.35 L-15539.8,2547.05 L-15536,2565.98 L-15525.4,2581.86 L-15509.5,2592.48 L-15490.6,2596.24 L-13392.3,2596.24 L-13376.6,2593.7 L-13362.6,2586.35 L-12632.2,2038.57 L-12618.7,2023.18 L-12612.7,2003.87 L-12613.2,1999.24 L-14141.7,1999.24 L-15539.8,2284.35"/>
</g>

<g fill="none" stroke="#000000" stroke-opacity="1" stroke-width="1" stroke-linecap="square" stroke-linejoin="bevel" transform="matrix(0.999976,0,0,-0.999976,15539.9,2596.69)"
font-family="MS Shell Dlg 2" font-size="10.3125" font-weight="400" font-style="normal" 
>
</g>

<g fill="none" stroke="#000000" stroke-opacity="1" stroke-width="1" stroke-linecap="square" stroke-linejoin="bevel" transform="matrix(0.999976,0,0,-0.999976,15539.9,2596.69)"
font-family="MS Shell Dlg 2" font-size="10.3125" font-weight="400" font-style="normal" 
>
</g>

<g fill="#ae5151" fill-opacity="0.2" stroke="#333333" stroke-opacity="1" stroke-width="1" stroke-linecap="round" stroke-linejoin="round" transform="matrix(0.999976,0,0,-0.999976,15539.9,2596.69)"
font-family="MS Shell Dlg 2" font-size="10.3125" font-weight="400" font-style="normal" 
>
<path vector-effect="non-scaling-stroke" fill-rule="evenodd" d="M-15539.8,2284.35 L-15539.8,2547.05 L-15536,2565.98 L-15525.4,2581.86 L-15509.5,2592.48 L-15490.6,2596.24 L-13392.3,2596.24 L-13376.6,2593.7 L-13362.6,2586.35 L-12632.2,2038.57 L-12618.7,2023.18 L-12612.7,2003.87 L-12613.2,1999.24 L-14141.7,1999.24 L-15539.8,2284.35"/>
</g>

<g fill="none" stroke="#000000" stroke-opacity="1" stroke-width="1" stroke-linecap="square" stroke-linejoin="bevel" transform="matrix(0.999976,0,0,-0.999976,15539.9,2596.69)"
font-family="MS Shell Dlg 2" font-size="10.3125" font-weight="400" font-style="normal" 
>
</g>

<g fill="none" stroke="#000000" stroke-opacity="1" stroke-width="1" stroke-linecap="square" stroke-linejoin="bevel" transform="matrix(0.999976,0,0,-0.999976,15539.9,2596.69)"
font-family="MS Shell Dlg 2" font-size="10.3125" font-weight="400" font-style="normal" 
>
</g>

<g fill="#333333" fill-opacity="0.2" stroke="#333333" stroke-opacity="1" stroke-width="1" stroke-linecap="round" stroke-linejoin="round" transform="matrix(0.999976,0,0,-0.999976,15539.9,2596.69)"
font-family="MS Shell Dlg 2" font-size="10.3125" font-weight="400" font-style="normal" 
>
<path vector-effect="non-scaling-stroke" fill-rule="evenodd" d="M-15539.8,2284.35 L-15539.8,2547.05 L-15536,2565.98 L-15525.4,2581.86 L-15509.5,2592.48 L-15490.6,2596.24 L-13392.3,2596.24 L-13376.6,2593.7 L-13362.6,2586.35 L-12632.2,2038.57 L-12618.7,2023.18 L-12612.7,2003.87 L-12613.2,1999.24 L-14141.7,1999.24 L-15539.8,2284.35"/>
</g>

<g fill="none" stroke="#000000" stroke-opacity="1" stroke-width="1" stroke-linecap="square" stroke-linejoin="bevel" transform="matrix(0.999976,0,0,-0.999976,15539.9,2596.69)"
font-family="MS Shell Dlg 2" font-size="10.3125" font-weight="400" font-style="normal" 
>
</g>

<g fill="none" stroke="#000000" stroke-opacity="1" stroke-width="1" stroke-linecap="square" stroke-linejoin="bevel" transform="matrix(1,0,0,-1,0,598.001)"
font-family="MS Shell Dlg 2" font-size="10.3125" font-weight="400" font-style="normal" 
>
</g>
</g>
</svg>
