<?xml version="1.0" encoding="UTF-8" standalone="no"?>
<svg width="464.82mm" height="430.107mm"
 xmlns="http://www.w3.org/2000/svg" xmlns:xlink="http://www.w3.org/1999/xlink"  version="1.2" baseProfile="tiny">
<title>SVG Generator Example Drawing</title>
<desc>An SVG drawing created by the SVG Generator</desc>
<defs>
</defs>
<g fill="none" stroke="black" stroke-width="1" fill-rule="evenodd" stroke-linecap="square" stroke-linejoin="bevel" >

<g fill="none" stroke="#000000" stroke-opacity="1" stroke-width="1" stroke-linecap="square" stroke-linejoin="bevel" transform="matrix(1,0,0,-1,0,1524.49)"
font-family="MS Shell Dlg 2" font-size="10.3125" font-weight="400" font-style="normal" 
>
</g>

<g fill="none" stroke="#000000" stroke-opacity="1" stroke-width="1" stroke-linecap="square" stroke-linejoin="bevel" transform="matrix(1,0,0,-1,0,1524.49)"
font-family="MS Shell Dlg 2" font-size="10.3125" font-weight="400" font-style="normal" 
>
</g>

<g fill="none" stroke="#000000" stroke-opacity="1" stroke-width="1" stroke-linecap="square" stroke-linejoin="bevel" transform="matrix(0.9994,0,0,-0.9994,16255.9,6550.11)"
font-family="MS Shell Dlg 2" font-size="10.3125" font-weight="400" font-style="normal" 
>
</g>

<g fill="#333333" fill-opacity="0.2" stroke="#333333" stroke-opacity="1" stroke-width="1" stroke-linecap="round" stroke-linejoin="round" transform="matrix(0.9994,0,0,-0.9994,16255.9,6550.11)"
font-family="MS Shell Dlg 2" font-size="10.3125" font-weight="400" font-style="normal" 
>
<path vector-effect="non-scaling-stroke" fill-rule="evenodd" d="M-16265.1,6422.03 L-16261.4,6440.76 L-16250.7,6456.8 L-16182.6,6524.82 L-16169.3,6538.18 L-16153.2,6548.9 L-16134.5,6552.63 L-16115.7,6548.9 L-16101.5,6539.41 L-16135.1,6505.86 L-16135.1,6505.82 L-16135.2,6505.81 L-16135.3,6505.62 L-16135.3,6505.58 L-16135.4,6505.23 L-16135.4,6505.2 L-16135.4,6504.84 L-16135.4,6504.8 L-16135.2,6504.47 L-16135.2,6504.44 L-16135.1,6504.3 L-15783.7,6152.91 L-15783.6,6152.8 L-15783.5,6152.77 L-15783.2,6152.62 L-15783.2,6152.62 L-15782.8,6152.6 L-15782.8,6152.6 L-15782.4,6152.71 L-15782.4,6152.73 L-15782.2,6152.87 L-15782.2,6152.87 L-15782.2,6152.91 L-15713.3,6221.79 L-15355.3,5863.28 L-15423.9,5794.67 L-15424,5794.63 L-15424,5794.62 L-15424.1,5794.43 L-15424.1,5794.39 L-15424.2,5794.04 L-15424.2,5794.01 L-15424.2,5793.65 L-15424.2,5793.61 L-15424.1,5793.28 L-15424,5793.24 L-15423.9,5793.1 L-15080.7,5449.88 L-15080.5,5449.76 L-15080.5,5449.73 L-15080.2,5449.59 L-15080.1,5449.58 L-15079.8,5449.56 L-15079.7,5449.56 L-15079.4,5449.67 L-15079.4,5449.69 L-15079.2,5449.83 L-15079.2,5449.84 L-15079.1,5449.88 L-15010.8,5518.23 L-14618.2,5125.03 L-14618.2,5124.89 L-14686.2,5056.95 L-14699.6,5043.58 L-14715.6,5032.86 L-14734.4,5029.14 L-14753.1,5032.87 L-14767.3,5042.35 L-14733.7,5075.9 L-14733.7,5075.94 L-14733.7,5075.95 L-14733.6,5076.15 L-14733.5,5076.19 L-14733.4,5076.53 L-14733.4,5076.57 L-14733.4,5076.93 L-14733.5,5076.96 L-14733.6,5077.29 L-14733.6,5077.33 L-14733.7,5077.47 L-15085.1,5428.85 L-15085.3,5428.97 L-15085.3,5428.99 L-15085.6,5429.14 L-15085.7,5429.15 L-15086,5429.17 L-15086.1,5429.17 L-15086.4,5429.06 L-15086.4,5429.04 L-15086.6,5428.9 L-15086.7,5428.89 L-15086.7,5428.85 L-15155.6,5359.9 L-15513.6,5718.41 L-15444.9,5787.1 L-15444.9,5787.14 L-15444.9,5787.15 L-15444.8,5787.34 L-15444.7,5787.38 L-15444.6,5787.72 L-15444.6,5787.76 L-15444.6,5788.12 L-15444.6,5788.16 L-15444.8,5788.49 L-15444.8,5788.52 L-15444.9,5788.66 L-15788.2,6131.89 L-15788.3,6132.01 L-15788.3,6132.03 L-15788.7,6132.18 L-15788.7,6132.19 L-15789.1,6132.21 L-15789.1,6132.21 L-15789.4,6132.1 L-15789.5,6132.08 L-15789.7,6131.94 L-15789.7,6131.93 L-15789.7,6131.89 L-15858.2,6063.46 L-16183.1,6388.86 L-16183.2,6388.98 L-16183.3,6389.01 L-16183.6,6389.16 L-16183.7,6389.17 L-16184.1,6389.16 L-16184.1,6389.15 L-16184.5,6389 L-16184.5,6388.98 L-16184.8,6388.69 L-16184.8,6388.65 L-16184.9,6388.47 L-16203.6,6340.05 L-16217.8,6354.31 L-16217.8,6354.33 L-16217.8,6354.33 L-16217.9,6354.35 L-16217.9,6354.41 L-16217.9,6354.43 L-16218,6354.43 L-16218,6354.44 L-16250.7,6387.24 L-16261.4,6403.29 L-16265.1,6422.03"/>
</g>

<g fill="none" stroke="#000000" stroke-opacity="1" stroke-width="1" stroke-linecap="square" stroke-linejoin="bevel" transform="matrix(0.9994,0,0,-0.9994,16255.9,6550.11)"
font-family="MS Shell Dlg 2" font-size="10.3125" font-weight="400" font-style="normal" 
>
</g>

<g fill="none" stroke="#000000" stroke-opacity="1" stroke-width="1" stroke-linecap="square" stroke-linejoin="bevel" transform="matrix(0.9994,0,0,-0.9994,16255.9,6550.11)"
font-family="MS Shell Dlg 2" font-size="10.3125" font-weight="400" font-style="normal" 
>
</g>

<g fill="#ae5151" fill-opacity="0.2" stroke="#333333" stroke-opacity="1" stroke-width="1" stroke-linecap="round" stroke-linejoin="round" transform="matrix(0.9994,0,0,-0.9994,16255.9,6550.11)"
font-family="MS Shell Dlg 2" font-size="10.3125" font-weight="400" font-style="normal" 
>
<path vector-effect="non-scaling-stroke" fill-rule="evenodd" d="M-16265.1,6422.03 L-16261.4,6440.76 L-16250.7,6456.8 L-16182.6,6524.82 L-16169.3,6538.18 L-16153.2,6548.9 L-16134.5,6552.63 L-16115.7,6548.9 L-16101.5,6539.41 L-16135.1,6505.86 L-16135.1,6505.82 L-16135.2,6505.81 L-16135.3,6505.62 L-16135.3,6505.58 L-16135.4,6505.23 L-16135.4,6505.2 L-16135.4,6504.84 L-16135.4,6504.8 L-16135.2,6504.47 L-16135.2,6504.44 L-16135.1,6504.3 L-15783.7,6152.91 L-15783.6,6152.8 L-15783.5,6152.77 L-15783.2,6152.62 L-15783.2,6152.62 L-15782.8,6152.6 L-15782.8,6152.6 L-15782.4,6152.71 L-15782.4,6152.73 L-15782.2,6152.87 L-15782.2,6152.87 L-15782.2,6152.91 L-15713.3,6221.79 L-15355.3,5863.28 L-15423.9,5794.67 L-15424,5794.63 L-15424,5794.62 L-15424.1,5794.43 L-15424.1,5794.39 L-15424.2,5794.04 L-15424.2,5794.01 L-15424.2,5793.65 L-15424.2,5793.61 L-15424.1,5793.28 L-15424,5793.24 L-15423.9,5793.1 L-15080.7,5449.88 L-15080.5,5449.76 L-15080.5,5449.73 L-15080.2,5449.59 L-15080.1,5449.58 L-15079.8,5449.56 L-15079.7,5449.56 L-15079.4,5449.67 L-15079.4,5449.69 L-15079.2,5449.83 L-15079.2,5449.84 L-15079.1,5449.88 L-15010.8,5518.23 L-14618.2,5125.03 L-14618.2,5124.89 L-14686.2,5056.95 L-14699.6,5043.58 L-14715.6,5032.86 L-14734.4,5029.14 L-14753.1,5032.87 L-14767.3,5042.35 L-14733.7,5075.9 L-14733.7,5075.94 L-14733.7,5075.95 L-14733.6,5076.15 L-14733.5,5076.19 L-14733.4,5076.53 L-14733.4,5076.57 L-14733.4,5076.93 L-14733.5,5076.96 L-14733.6,5077.29 L-14733.6,5077.33 L-14733.7,5077.47 L-15085.1,5428.85 L-15085.3,5428.97 L-15085.3,5428.99 L-15085.6,5429.14 L-15085.7,5429.15 L-15086,5429.17 L-15086.1,5429.17 L-15086.4,5429.06 L-15086.4,5429.04 L-15086.6,5428.9 L-15086.7,5428.89 L-15086.7,5428.85 L-15155.6,5359.9 L-15513.6,5718.41 L-15444.9,5787.1 L-15444.9,5787.14 L-15444.9,5787.15 L-15444.8,5787.34 L-15444.7,5787.38 L-15444.6,5787.72 L-15444.6,5787.76 L-15444.6,5788.12 L-15444.6,5788.16 L-15444.8,5788.49 L-15444.8,5788.52 L-15444.9,5788.66 L-15788.2,6131.89 L-15788.3,6132.01 L-15788.3,6132.03 L-15788.7,6132.18 L-15788.7,6132.19 L-15789.1,6132.21 L-15789.1,6132.21 L-15789.4,6132.1 L-15789.5,6132.08 L-15789.7,6131.94 L-15789.7,6131.93 L-15789.7,6131.89 L-15858.2,6063.46 L-16183.1,6388.86 L-16183.2,6388.98 L-16183.3,6389.01 L-16183.6,6389.16 L-16183.7,6389.17 L-16184.1,6389.16 L-16184.1,6389.15 L-16184.5,6389 L-16184.5,6388.98 L-16184.8,6388.69 L-16184.8,6388.65 L-16184.9,6388.47 L-16203.6,6340.05 L-16217.8,6354.31 L-16217.8,6354.33 L-16217.8,6354.33 L-16217.9,6354.35 L-16217.9,6354.41 L-16217.9,6354.43 L-16218,6354.43 L-16218,6354.44 L-16250.7,6387.24 L-16261.4,6403.29 L-16265.1,6422.03"/>
</g>

<g fill="none" stroke="#000000" stroke-opacity="1" stroke-width="1" stroke-linecap="square" stroke-linejoin="bevel" transform="matrix(0.9994,0,0,-0.9994,16255.9,6550.11)"
font-family="MS Shell Dlg 2" font-size="10.3125" font-weight="400" font-style="normal" 
>
</g>

<g fill="none" stroke="#000000" stroke-opacity="1" stroke-width="1" stroke-linecap="square" stroke-linejoin="bevel" transform="matrix(1,0,0,-1,0,1524.49)"
font-family="MS Shell Dlg 2" font-size="10.3125" font-weight="400" font-style="normal" 
>
</g>
</g>
</svg>
