<?xml version="1.0" encoding="UTF-8" standalone="no"?>
<svg width="521.264mm" height="478.649mm"
 xmlns="http://www.w3.org/2000/svg" xmlns:xlink="http://www.w3.org/1999/xlink"  version="1.2" baseProfile="tiny">
<title>SVG Generator Example Drawing</title>
<desc>An SVG drawing created by the SVG Generator</desc>
<defs>
</defs>
<g fill="none" stroke="black" stroke-width="1" fill-rule="evenodd" stroke-linecap="square" stroke-linejoin="bevel" >

<g fill="none" stroke="#000000" stroke-opacity="1" stroke-width="1" stroke-linecap="square" stroke-linejoin="bevel" transform="matrix(1,0,0,-1,0,1696.6)"
font-family="MS Shell Dlg 2" font-size="10.3125" font-weight="400" font-style="normal" 
>
</g>

<g fill="none" stroke="#000000" stroke-opacity="1" stroke-width="1" stroke-linecap="square" stroke-linejoin="bevel" transform="matrix(1,0,0,-1,0,1696.6)"
font-family="MS Shell Dlg 2" font-size="10.3125" font-weight="400" font-style="normal" 
>
</g>

<g fill="none" stroke="#000000" stroke-opacity="1" stroke-width="1" stroke-linecap="square" stroke-linejoin="bevel" transform="matrix(0.999459,0,0,-0.999459,12533.5,4095.01)"
font-family="MS Shell Dlg 2" font-size="10.3125" font-weight="400" font-style="normal" 
>
</g>

<g fill="#333333" fill-opacity="0.2" stroke="#333333" stroke-opacity="1" stroke-width="1" stroke-linecap="round" stroke-linejoin="round" transform="matrix(0.999459,0,0,-0.999459,12533.5,4095.01)"
font-family="MS Shell Dlg 2" font-size="10.3125" font-weight="400" font-style="normal" 
>
<path vector-effect="non-scaling-stroke" fill-rule="evenodd" d="M-12539.8,4047.05 L-12536,4065.98 L-12525.4,4081.86 L-12509.5,4092.48 L-12492.8,4095.81 L-12492.8,4048.35 L-12492.8,4048.16 L-12492.8,4048.11 L-12492.6,4047.75 L-12492.6,4047.72 L-12492.3,4047.44 L-12492.3,4047.42 L-12491.9,4047.27 L-12491.9,4047.26 L-12491.7,4047.24 L-11143.8,4047.24 L-11143.8,4047.05 L-11143.8,4043.94 L-11147.6,4025 L-11158.2,4009.12 L-11171.9,3999.93 L-11172,3999.87 L-11172,3999.85 L-11172.1,3999.77 L-11172.4,3999.51 L-11172.5,3999.34 L-11172.5,3999.28 L-11172.6,3999.09 L-11172.7,3998.76 L-11172.8,3998.55 L-11172.8,3998.49 L-11172.8,3998.28 L-11172.8,3997.92 L-11172.7,3997.71 L-11172.7,3997.65 L-11172.6,3997.46 L-11172.5,3997.14 L-11172.3,3996.97 L-11172.3,3996.92 L-11172.1,3996.78 L-11171.9,3996.56 L-11171.7,3996.46 L-11171.6,3996.43 L-11171.4,3996.36 L-11171,3996.28 L-11170.9,3996.27 L-11170.9,3996.26 L-11170.8,3996.26 L-11082.9,3996.24 L-10693,3996.24 L-10692.8,3996.2 L-10692.8,2400.28 L-10693,2400.24 L-11084.1,2400.24 L-11084.1,2400.24 L-11084.1,2400.24 L-11084.1,2400.24 L-11084.2,2400.24 L-11084.2,2400.24 L-11084.2,2400.24 L-11084.3,2400.23 L-11084.6,2400.2 L-11201.9,2400.22 L-11300.6,2400.24 L-11300.8,2400.24 L-11691.1,2400.24 L-11712.5,2405.13 L-11729.7,2418.81 L-12528.9,3417.85 L-12537,3432.38 L-12539.8,3448.76 L-12539.8,4047.05"/>
</g>

<g fill="none" stroke="#000000" stroke-opacity="1" stroke-width="1" stroke-linecap="square" stroke-linejoin="bevel" transform="matrix(0.999459,0,0,-0.999459,12533.5,4095.01)"
font-family="MS Shell Dlg 2" font-size="10.3125" font-weight="400" font-style="normal" 
>
</g>

<g fill="none" stroke="#000000" stroke-opacity="1" stroke-width="1" stroke-linecap="square" stroke-linejoin="bevel" transform="matrix(0.999459,0,0,-0.999459,12533.5,4095.01)"
font-family="MS Shell Dlg 2" font-size="10.3125" font-weight="400" font-style="normal" 
>
</g>

<g fill="#ae5151" fill-opacity="0.2" stroke="#333333" stroke-opacity="1" stroke-width="1" stroke-linecap="round" stroke-linejoin="round" transform="matrix(0.999459,0,0,-0.999459,12533.5,4095.01)"
font-family="MS Shell Dlg 2" font-size="10.3125" font-weight="400" font-style="normal" 
>
<path vector-effect="non-scaling-stroke" fill-rule="evenodd" d="M-12539.8,4047.05 L-12536,4065.98 L-12525.4,4081.86 L-12509.5,4092.48 L-12492.8,4095.81 L-12492.8,4048.35 L-12492.8,4048.16 L-12492.8,4048.11 L-12492.6,4047.75 L-12492.6,4047.72 L-12492.3,4047.44 L-12492.3,4047.42 L-12491.9,4047.27 L-12491.9,4047.26 L-12491.7,4047.24 L-11143.8,4047.24 L-11143.8,4047.05 L-11143.8,4043.94 L-11147.6,4025 L-11158.2,4009.12 L-11171.9,3999.93 L-11172,3999.87 L-11172,3999.85 L-11172.1,3999.77 L-11172.4,3999.51 L-11172.5,3999.34 L-11172.5,3999.28 L-11172.6,3999.09 L-11172.7,3998.76 L-11172.8,3998.55 L-11172.8,3998.49 L-11172.8,3998.28 L-11172.8,3997.92 L-11172.7,3997.71 L-11172.7,3997.65 L-11172.6,3997.46 L-11172.5,3997.14 L-11172.3,3996.97 L-11172.3,3996.92 L-11172.1,3996.78 L-11171.9,3996.56 L-11171.7,3996.46 L-11171.6,3996.43 L-11171.4,3996.36 L-11171,3996.28 L-11170.9,3996.27 L-11170.9,3996.26 L-11170.8,3996.26 L-11082.9,3996.24 L-10693,3996.24 L-10692.8,3996.2 L-10692.8,2400.28 L-10693,2400.24 L-11084.1,2400.24 L-11084.1,2400.24 L-11084.1,2400.24 L-11084.1,2400.24 L-11084.2,2400.24 L-11084.2,2400.24 L-11084.2,2400.24 L-11084.3,2400.23 L-11084.6,2400.2 L-11201.9,2400.22 L-11300.6,2400.24 L-11300.8,2400.24 L-11691.1,2400.24 L-11712.5,2405.13 L-11729.7,2418.81 L-12528.9,3417.85 L-12537,3432.38 L-12539.8,3448.76 L-12539.8,4047.05"/>
</g>

<g fill="none" stroke="#000000" stroke-opacity="1" stroke-width="1" stroke-linecap="square" stroke-linejoin="bevel" transform="matrix(0.999459,0,0,-0.999459,12533.5,4095.01)"
font-family="MS Shell Dlg 2" font-size="10.3125" font-weight="400" font-style="normal" 
>
</g>

<g fill="none" stroke="#000000" stroke-opacity="1" stroke-width="1" stroke-linecap="square" stroke-linejoin="bevel" transform="matrix(0.999459,0,0,-0.999459,12533.5,4095.01)"
font-family="MS Shell Dlg 2" font-size="10.3125" font-weight="400" font-style="normal" 
>
</g>

<g fill="#ffff00" fill-opacity="0.2" stroke="#333333" stroke-opacity="1" stroke-width="1" stroke-linecap="round" stroke-linejoin="round" transform="matrix(0.999459,0,0,-0.999459,12533.5,4095.01)"
font-family="MS Shell Dlg 2" font-size="10.3125" font-weight="400" font-style="normal" 
>
<path vector-effect="non-scaling-stroke" fill-rule="evenodd" d="M-12539.8,4047.05 L-12536,4065.98 L-12525.4,4081.86 L-12509.5,4092.48 L-12492.8,4095.81 L-12492.8,4048.35 L-12492.8,4048.16 L-12492.8,4048.11 L-12492.6,4047.75 L-12492.6,4047.72 L-12492.3,4047.44 L-12492.3,4047.42 L-12491.9,4047.27 L-12491.9,4047.26 L-12491.7,4047.24 L-11143.8,4047.24 L-11143.8,4047.05 L-11143.8,4043.94 L-11147.6,4025 L-11158.2,4009.12 L-11171.9,3999.93 L-11172,3999.87 L-11172,3999.85 L-11172.1,3999.77 L-11172.4,3999.51 L-11172.5,3999.34 L-11172.5,3999.28 L-11172.6,3999.09 L-11172.7,3998.76 L-11172.8,3998.55 L-11172.8,3998.49 L-11172.8,3998.28 L-11172.8,3997.92 L-11172.7,3997.71 L-11172.7,3997.65 L-11172.6,3997.46 L-11172.5,3997.14 L-11172.3,3996.97 L-11172.3,3996.92 L-11172.1,3996.78 L-11171.9,3996.56 L-11171.7,3996.46 L-11171.6,3996.43 L-11171.4,3996.36 L-11171,3996.28 L-11170.9,3996.27 L-11170.9,3996.26 L-11170.8,3996.26 L-11082.9,3996.24 L-10693,3996.24 L-10692.8,3996.2 L-10692.8,2400.28 L-10693,2400.24 L-11084.1,2400.24 L-11084.1,2400.24 L-11084.1,2400.24 L-11084.1,2400.24 L-11084.2,2400.24 L-11084.2,2400.24 L-11084.2,2400.24 L-11084.3,2400.23 L-11084.6,2400.2 L-11201.9,2400.22 L-11300.6,2400.24 L-11300.8,2400.24 L-11691.1,2400.24 L-11712.5,2405.13 L-11729.7,2418.81 L-12528.9,3417.85 L-12537,3432.38 L-12539.8,3448.76 L-12539.8,4047.05"/>
</g>

<g fill="none" stroke="#000000" stroke-opacity="1" stroke-width="1" stroke-linecap="square" stroke-linejoin="bevel" transform="matrix(0.999459,0,0,-0.999459,12533.5,4095.01)"
font-family="MS Shell Dlg 2" font-size="10.3125" font-weight="400" font-style="normal" 
>
</g>

<g fill="none" stroke="#000000" stroke-opacity="1" stroke-width="1" stroke-linecap="square" stroke-linejoin="bevel" transform="matrix(0.999459,0,0,-0.999459,12533.5,4095.01)"
font-family="MS Shell Dlg 2" font-size="10.3125" font-weight="400" font-style="normal" 
>
</g>

<g fill="#ae5151" fill-opacity="0.2" stroke="#333333" stroke-opacity="1" stroke-width="1" stroke-linecap="round" stroke-linejoin="round" transform="matrix(0.999459,0,0,-0.999459,12533.5,4095.01)"
font-family="MS Shell Dlg 2" font-size="10.3125" font-weight="400" font-style="normal" 
>
<path vector-effect="non-scaling-stroke" fill-rule="evenodd" d="M-12539.8,4047.05 L-12536,4065.98 L-12525.4,4081.86 L-12509.5,4092.48 L-12492.8,4095.81 L-12492.8,4048.35 L-12492.8,4048.16 L-12492.8,4048.11 L-12492.6,4047.75 L-12492.6,4047.72 L-12492.3,4047.44 L-12492.3,4047.42 L-12491.9,4047.27 L-12491.9,4047.26 L-12491.7,4047.24 L-11143.8,4047.24 L-11143.8,4047.05 L-11143.8,4043.94 L-11147.6,4025 L-11158.2,4009.12 L-11171.9,3999.93 L-11172,3999.87 L-11172,3999.85 L-11172.1,3999.77 L-11172.4,3999.51 L-11172.5,3999.34 L-11172.5,3999.28 L-11172.6,3999.09 L-11172.7,3998.76 L-11172.8,3998.55 L-11172.8,3998.49 L-11172.8,3998.28 L-11172.8,3997.92 L-11172.7,3997.71 L-11172.7,3997.65 L-11172.6,3997.46 L-11172.5,3997.14 L-11172.3,3996.97 L-11172.3,3996.92 L-11172.1,3996.78 L-11171.9,3996.56 L-11171.7,3996.46 L-11171.6,3996.43 L-11171.4,3996.36 L-11171,3996.28 L-11170.9,3996.27 L-11170.9,3996.26 L-11170.8,3996.26 L-11082.9,3996.24 L-10693,3996.24 L-10692.8,3996.2 L-10692.8,2400.28 L-10693,2400.24 L-11084.1,2400.24 L-11084.1,2400.24 L-11084.1,2400.24 L-11084.1,2400.24 L-11084.2,2400.24 L-11084.2,2400.24 L-11084.2,2400.24 L-11084.3,2400.23 L-11084.6,2400.2 L-11201.9,2400.22 L-11300.6,2400.24 L-11300.8,2400.24 L-11691.1,2400.24 L-11712.5,2405.13 L-11729.7,2418.81 L-12528.9,3417.85 L-12537,3432.38 L-12539.8,3448.76 L-12539.8,4047.05"/>
</g>

<g fill="none" stroke="#000000" stroke-opacity="1" stroke-width="1" stroke-linecap="square" stroke-linejoin="bevel" transform="matrix(0.999459,0,0,-0.999459,12533.5,4095.01)"
font-family="MS Shell Dlg 2" font-size="10.3125" font-weight="400" font-style="normal" 
>
</g>

<g fill="none" stroke="#000000" stroke-opacity="1" stroke-width="1" stroke-linecap="square" stroke-linejoin="bevel" transform="matrix(0.999459,0,0,-0.999459,12533.5,4095.01)"
font-family="MS Shell Dlg 2" font-size="10.3125" font-weight="400" font-style="normal" 
>
</g>

<g fill="#333333" fill-opacity="0.2" stroke="#333333" stroke-opacity="1" stroke-width="1" stroke-linecap="round" stroke-linejoin="round" transform="matrix(0.999459,0,0,-0.999459,12533.5,4095.01)"
font-family="MS Shell Dlg 2" font-size="10.3125" font-weight="400" font-style="normal" 
>
<path vector-effect="non-scaling-stroke" fill-rule="evenodd" d="M-12539.8,4047.05 L-12536,4065.98 L-12525.4,4081.86 L-12509.5,4092.48 L-12492.8,4095.81 L-12492.8,4048.35 L-12492.8,4048.16 L-12492.8,4048.11 L-12492.6,4047.75 L-12492.6,4047.72 L-12492.3,4047.44 L-12492.3,4047.42 L-12491.9,4047.27 L-12491.9,4047.26 L-12491.7,4047.24 L-11143.8,4047.24 L-11143.8,4047.05 L-11143.8,4043.94 L-11147.6,4025 L-11158.2,4009.12 L-11171.9,3999.93 L-11172,3999.87 L-11172,3999.85 L-11172.1,3999.77 L-11172.4,3999.51 L-11172.5,3999.34 L-11172.5,3999.28 L-11172.6,3999.09 L-11172.7,3998.76 L-11172.8,3998.55 L-11172.8,3998.49 L-11172.8,3998.28 L-11172.8,3997.92 L-11172.7,3997.71 L-11172.7,3997.65 L-11172.6,3997.46 L-11172.5,3997.14 L-11172.3,3996.97 L-11172.3,3996.92 L-11172.1,3996.78 L-11171.9,3996.56 L-11171.7,3996.46 L-11171.6,3996.43 L-11171.4,3996.36 L-11171,3996.28 L-11170.9,3996.27 L-11170.9,3996.26 L-11170.8,3996.26 L-11082.9,3996.24 L-10693,3996.24 L-10692.8,3996.2 L-10692.8,2400.28 L-10693,2400.24 L-11084.1,2400.24 L-11084.1,2400.24 L-11084.1,2400.24 L-11084.1,2400.24 L-11084.2,2400.24 L-11084.2,2400.24 L-11084.2,2400.24 L-11084.3,2400.23 L-11084.6,2400.2 L-11201.9,2400.22 L-11300.6,2400.24 L-11300.8,2400.24 L-11691.1,2400.24 L-11712.5,2405.13 L-11729.7,2418.81 L-12528.9,3417.85 L-12537,3432.38 L-12539.8,3448.76 L-12539.8,4047.05"/>
</g>

<g fill="none" stroke="#000000" stroke-opacity="1" stroke-width="1" stroke-linecap="square" stroke-linejoin="bevel" transform="matrix(0.999459,0,0,-0.999459,12533.5,4095.01)"
font-family="MS Shell Dlg 2" font-size="10.3125" font-weight="400" font-style="normal" 
>
</g>

<g fill="none" stroke="#000000" stroke-opacity="1" stroke-width="1" stroke-linecap="square" stroke-linejoin="bevel" transform="matrix(1,0,0,-1,0,1696.6)"
font-family="MS Shell Dlg 2" font-size="10.3125" font-weight="400" font-style="normal" 
>
</g>
</g>
</svg>
