<?xml version="1.0" encoding="UTF-8" standalone="no"?>
<svg width="1754.01mm" height="1835.29mm"
 xmlns="http://www.w3.org/2000/svg" xmlns:xlink="http://www.w3.org/1999/xlink"  version="1.2" baseProfile="tiny">
<title>SVG Generator Example Drawing</title>
<desc>An SVG drawing created by the SVG Generator</desc>
<defs>
</defs>
<g fill="none" stroke="black" stroke-width="1" fill-rule="evenodd" stroke-linecap="square" stroke-linejoin="bevel" >

<g fill="none" stroke="#000000" stroke-opacity="1" stroke-width="1" stroke-linecap="square" stroke-linejoin="bevel" transform="matrix(1,0,0,-1,0,6503.77)"
font-family="MS Shell Dlg 2" font-size="10.3125" font-weight="400" font-style="normal" 
>
</g>

<g fill="none" stroke="#000000" stroke-opacity="1" stroke-width="1" stroke-linecap="square" stroke-linejoin="bevel" transform="matrix(1,0,0,-1,0,6503.77)"
font-family="MS Shell Dlg 2" font-size="10.3125" font-weight="400" font-style="normal" 
>
</g>

<g fill="none" stroke="#000000" stroke-opacity="1" stroke-width="1" stroke-linecap="square" stroke-linejoin="bevel" transform="matrix(0.999856,0,0,-0.999856,12798.1,2032.25)"
font-family="MS Shell Dlg 2" font-size="10.3125" font-weight="400" font-style="normal" 
>
</g>

<g fill="#333333" fill-opacity="0.2" stroke="#333333" stroke-opacity="1" stroke-width="1" stroke-linecap="round" stroke-linejoin="round" transform="matrix(0.999856,0,0,-0.999856,12798.1,2032.25)"
font-family="MS Shell Dlg 2" font-size="10.3125" font-weight="400" font-style="normal" 
>
<path vector-effect="non-scaling-stroke" fill-rule="evenodd" d="M-12799.5,-4434.45 L-12781.7,-3748.77 L-11471.4,-2438.54 L-11471.4,-2438.49 L-11471.4,-2438.47 L-11471.3,-2438.42 L-11471.2,-2438.22 L-11471.1,-2438.16 L-11471.1,-2438.14 L-11471.1,-2438.08 L-10915.2,-1439.99 L-10915.1,-1439.87 L-10915.1,-1439.84 L-10915.1,-1439.72 L-10914.9,-1439.27 L-10914.9,-1439.14 L-10914.9,-1439.1 L-10914.9,-1438.98 L-10914.8,-501.773 L-10914.8,-501.675 L-10914.8,-501.646 L-10914.8,-501.549 L-10914.9,-501.21 L-10914.9,-501.022 L-10915,-500.968 L-10915.1,-500.795 L-10915.2,-500.52 L-10915.4,-500.369 L-10915.4,-500.328 L-10915.6,-500.203 L-10915.8,-500.019 L-10916,-499.927 L-10916.1,-499.905 L-10916.2,-499.848 L-10916.6,-499.78 L-10916.7,-499.766 L-10916.7,-499.763 L-10916.8,-499.758 L-11034.5,-499.758 L-11034.5,-499.759 L-11034.5,-499.759 L-11034.5,-499.76 L-11034.6,-499.764 L-11034.6,-499.765 L-11034.6,-499.766 L-11034.7,-499.768 L-11035,-499.798 L-11116.8,-499.783 L-11116.9,-499.788 L-11116.9,-499.791 L-11117,-499.805 L-11117.3,-499.872 L-11117.5,-499.929 L-11117.6,-499.952 L-11117.7,-500.044 L-11118,-500.228 L-11118.2,-500.352 L-11118.2,-500.393 L-11118.3,-500.545 L-11118.5,-500.758 L-11189.1,-500.758 L-11189.1,-500.719 L-11189.3,-500.55 L-11189.5,-500.29 L-11189.7,-500.151 L-11189.7,-500.115 L-11189.9,-500.012 L-11190.2,-499.865 L-11190.3,-499.829 L-11190.4,-499.82 L-11190.5,-499.794 L-11209.5,-496.001 L-11225.4,-485.387 L-11236,-469.504 L-11239.3,-452.758 L-11191.9,-452.758 L-11191.7,-452.739 L-11191.7,-452.73 L-11191.3,-452.58 L-11191.3,-452.559 L-11191,-452.283 L-11191,-452.251 L-11190.8,-451.891 L-11190.8,-451.844 L-11190.8,-451.649 L-11190.8,1048.13 L-11190.8,1048.33 L-11190.8,1048.37 L-11191,1048.73 L-11191,1048.77 L-11191.3,1049.04 L-11191.3,1049.06 L-11191.7,1049.21 L-11191.7,1049.22 L-11191.9,1049.24 L-11239.4,1049.24 L-11236,1066.01 L-11225.4,1081.89 L-11209.5,1092.51 L-11190.5,1096.28 L-11190.5,1096.3 L-11190.4,1096.31 L-11190.3,1096.34 L-11190,1096.46 L-11189.9,1096.54 L-11189.8,1096.57 L-11189.7,1096.68 L-11189.5,1096.89 L-11189.3,1097.03 L-11189.3,1097.08 L-11189.2,1097.23 L-11189.2,1097.24 L-11118.5,1097.24 L-11118.3,1097.02 L-11118.2,1096.87 L-11118.2,1096.83 L-11118,1096.7 L-11117.7,1096.52 L-11117.6,1096.43 L-11117.5,1096.4 L-11117.3,1096.35 L-11117,1096.28 L-11116.9,1096.26 L-11116.9,1096.26 L-11116.8,1096.26 L-11033.4,1096.24 L-11033.2,1096.24 L-9741.8,1096.24 L-9741.7,1096.25 L-9741.67,1096.25 L-9741.57,1096.26 L-9741.23,1096.33 L-9741.05,1096.39 L-9740.99,1096.41 L-9740.82,1096.5 L-9740.55,1096.69 L-9740.39,1096.81 L-9740.35,1096.85 L-9740.23,1097 L-9740.04,1097.28 L-9739.95,1097.45 L-9739.93,1097.51 L-9739.87,1097.69 L-9739.81,1098.03 L-9739.79,1098.13 L-9739.79,1098.16 L-9739.78,1098.26 L-9739.78,1440.52 L-9739.78,1440.55 L-9739.78,1440.55 L-9739.78,1440.58 L-9739.79,1440.67 L-9739.79,1440.69 L-9739.79,1440.7 L-9739.79,1440.72 L-9739.82,1441.04 L-9739.81,1538.15 L-9739.8,1558.35 L-9739.78,1652.02 L-9736.02,1670.95 L-9725.4,1686.83 L-9709.52,1697.44 L-9692.78,1700.77 L-9692.78,1653.32 L-9692.76,1653.12 L-9692.75,1653.08 L-9692.61,1652.72 L-9692.58,1652.68 L-9692.31,1652.41 L-9692.28,1652.39 L-9691.92,1652.24 L-9691.87,1652.23 L-9691.67,1652.21 L-8191.89,1652.21 L-8191.7,1652.23 L-8191.65,1652.24 L-8191.29,1652.39 L-8191.26,1652.41 L-8190.98,1652.68 L-8190.96,1652.72 L-8190.81,1653.08 L-8190.8,1653.12 L-8190.78,1653.32 L-8190.78,1700.78 L-8174.01,1697.44 L-8158.12,1686.83 L-8147.51,1670.94 L-8143.74,1652 L-8143.76,1569.24 L-8143.76,1569.14 L-8143.75,1569.12 L-8143.74,1569.03 L-8143.68,1568.71 L-8143.63,1568.54 L-8143.61,1568.49 L-8143.53,1568.32 L-8143.37,1568.06 L-8143.27,1567.91 L-8143.23,1567.87 L-8143.1,1567.75 L-8142.85,1567.56 L-8142.7,1567.46 L-8142.65,1567.44 L-8142.48,1567.37 L-8142.19,1567.28 L-8142.01,1567.24 L-8141.96,1567.24 L-8141.77,1567.23 L-8141.47,1567.25 L-8141.29,1567.28 L-8141.24,1567.3 L-8141.06,1567.36 L-8140.79,1567.49 L-8140.63,1567.58 L-8140.58,1567.61 L-8140.45,1567.73 L-8140.22,1567.96 L-8140.16,1568.03 L-8140.14,1568.05 L-8140.09,1568.12 L-8130.9,1581.87 L-8115.02,1592.48 L-8096.09,1596.24 L-8092.78,1596.24 L-8092.78,1573.32 L-8092.76,1573.12 L-8092.75,1573.08 L-8092.61,1572.72 L-8092.58,1572.68 L-8092.31,1572.41 L-8092.28,1572.39 L-8091.92,1572.24 L-8091.87,1572.23 L-8091.67,1572.21 L-7191.89,1572.21 L-7191.7,1572.23 L-7191.65,1572.24 L-7191.29,1572.39 L-7191.26,1572.41 L-7190.98,1572.68 L-7190.96,1572.72 L-7190.81,1573.08 L-7190.8,1573.12 L-7190.78,1573.32 L-7190.78,1607.52 L-7190.73,1607.55 L-7190.7,1607.56 L-7190.63,1607.61 L-6584.6,2031.11 L-6678.58,-4471.66 L-12799.5,-4434.45"/>
</g>

<g fill="none" stroke="#000000" stroke-opacity="1" stroke-width="1" stroke-linecap="square" stroke-linejoin="bevel" transform="matrix(0.999856,0,0,-0.999856,12798.1,2032.25)"
font-family="MS Shell Dlg 2" font-size="10.3125" font-weight="400" font-style="normal" 
>
</g>

<g fill="none" stroke="#000000" stroke-opacity="1" stroke-width="1" stroke-linecap="square" stroke-linejoin="bevel" transform="matrix(0.999856,0,0,-0.999856,12798.1,2032.25)"
font-family="MS Shell Dlg 2" font-size="10.3125" font-weight="400" font-style="normal" 
>
</g>

<g fill="#ae5151" fill-opacity="0.2" stroke="#333333" stroke-opacity="1" stroke-width="1" stroke-linecap="round" stroke-linejoin="round" transform="matrix(0.999856,0,0,-0.999856,12798.1,2032.25)"
font-family="MS Shell Dlg 2" font-size="10.3125" font-weight="400" font-style="normal" 
>
<path vector-effect="non-scaling-stroke" fill-rule="evenodd" d="M-12799.5,-4434.45 L-12781.7,-3748.77 L-11471.4,-2438.54 L-11471.4,-2438.49 L-11471.4,-2438.47 L-11471.3,-2438.42 L-11471.2,-2438.22 L-11471.1,-2438.16 L-11471.1,-2438.14 L-11471.1,-2438.08 L-10915.2,-1439.99 L-10915.1,-1439.87 L-10915.1,-1439.84 L-10915.1,-1439.72 L-10914.9,-1439.27 L-10914.9,-1439.14 L-10914.9,-1439.1 L-10914.9,-1438.98 L-10914.8,-501.773 L-10914.8,-501.675 L-10914.8,-501.646 L-10914.8,-501.549 L-10914.9,-501.21 L-10914.9,-501.022 L-10915,-500.968 L-10915.1,-500.795 L-10915.2,-500.52 L-10915.4,-500.369 L-10915.4,-500.328 L-10915.6,-500.203 L-10915.8,-500.019 L-10916,-499.927 L-10916.1,-499.905 L-10916.2,-499.848 L-10916.6,-499.78 L-10916.7,-499.766 L-10916.7,-499.763 L-10916.8,-499.758 L-11034.5,-499.758 L-11034.5,-499.759 L-11034.5,-499.759 L-11034.5,-499.76 L-11034.6,-499.764 L-11034.6,-499.765 L-11034.6,-499.766 L-11034.7,-499.768 L-11035,-499.798 L-11116.8,-499.783 L-11116.9,-499.788 L-11116.9,-499.791 L-11117,-499.805 L-11117.3,-499.872 L-11117.5,-499.929 L-11117.6,-499.952 L-11117.7,-500.044 L-11118,-500.228 L-11118.2,-500.352 L-11118.2,-500.393 L-11118.3,-500.545 L-11118.5,-500.758 L-11189.1,-500.758 L-11189.1,-500.719 L-11189.3,-500.55 L-11189.5,-500.29 L-11189.7,-500.151 L-11189.7,-500.115 L-11189.9,-500.012 L-11190.2,-499.865 L-11190.3,-499.829 L-11190.4,-499.82 L-11190.5,-499.794 L-11209.5,-496.001 L-11225.4,-485.387 L-11236,-469.504 L-11239.3,-452.758 L-11191.9,-452.758 L-11191.7,-452.739 L-11191.7,-452.73 L-11191.3,-452.58 L-11191.3,-452.559 L-11191,-452.283 L-11191,-452.251 L-11190.8,-451.891 L-11190.8,-451.844 L-11190.8,-451.649 L-11190.8,1048.13 L-11190.8,1048.33 L-11190.8,1048.37 L-11191,1048.73 L-11191,1048.77 L-11191.3,1049.04 L-11191.3,1049.06 L-11191.7,1049.21 L-11191.7,1049.22 L-11191.9,1049.24 L-11239.4,1049.24 L-11236,1066.01 L-11225.4,1081.89 L-11209.5,1092.51 L-11190.5,1096.28 L-11190.5,1096.3 L-11190.4,1096.31 L-11190.3,1096.34 L-11190,1096.46 L-11189.9,1096.54 L-11189.8,1096.57 L-11189.7,1096.68 L-11189.5,1096.89 L-11189.3,1097.03 L-11189.3,1097.08 L-11189.2,1097.23 L-11189.2,1097.24 L-11118.5,1097.24 L-11118.3,1097.02 L-11118.2,1096.87 L-11118.2,1096.83 L-11118,1096.7 L-11117.7,1096.52 L-11117.6,1096.43 L-11117.5,1096.4 L-11117.3,1096.35 L-11117,1096.28 L-11116.9,1096.26 L-11116.9,1096.26 L-11116.8,1096.26 L-11033.4,1096.24 L-11033.2,1096.24 L-9741.8,1096.24 L-9741.7,1096.25 L-9741.67,1096.25 L-9741.57,1096.26 L-9741.23,1096.33 L-9741.05,1096.39 L-9740.99,1096.41 L-9740.82,1096.5 L-9740.55,1096.69 L-9740.39,1096.81 L-9740.35,1096.85 L-9740.23,1097 L-9740.04,1097.28 L-9739.95,1097.45 L-9739.93,1097.51 L-9739.87,1097.69 L-9739.81,1098.03 L-9739.79,1098.13 L-9739.79,1098.16 L-9739.78,1098.26 L-9739.78,1440.52 L-9739.78,1440.55 L-9739.78,1440.55 L-9739.78,1440.58 L-9739.79,1440.67 L-9739.79,1440.69 L-9739.79,1440.7 L-9739.79,1440.72 L-9739.82,1441.04 L-9739.81,1538.15 L-9739.8,1558.35 L-9739.78,1652.02 L-9736.02,1670.95 L-9725.4,1686.83 L-9709.52,1697.44 L-9692.78,1700.77 L-9692.78,1653.32 L-9692.76,1653.12 L-9692.75,1653.08 L-9692.61,1652.72 L-9692.58,1652.68 L-9692.31,1652.41 L-9692.28,1652.39 L-9691.92,1652.24 L-9691.87,1652.23 L-9691.67,1652.21 L-8191.89,1652.21 L-8191.7,1652.23 L-8191.65,1652.24 L-8191.29,1652.39 L-8191.26,1652.41 L-8190.98,1652.68 L-8190.96,1652.72 L-8190.81,1653.08 L-8190.8,1653.12 L-8190.78,1653.32 L-8190.78,1700.78 L-8174.01,1697.44 L-8158.12,1686.83 L-8147.51,1670.94 L-8143.74,1652 L-8143.76,1569.24 L-8143.76,1569.14 L-8143.75,1569.12 L-8143.74,1569.03 L-8143.68,1568.71 L-8143.63,1568.54 L-8143.61,1568.49 L-8143.53,1568.32 L-8143.37,1568.06 L-8143.27,1567.91 L-8143.23,1567.87 L-8143.1,1567.75 L-8142.85,1567.56 L-8142.7,1567.46 L-8142.65,1567.44 L-8142.48,1567.37 L-8142.19,1567.28 L-8142.01,1567.24 L-8141.96,1567.24 L-8141.77,1567.23 L-8141.47,1567.25 L-8141.29,1567.28 L-8141.24,1567.3 L-8141.06,1567.36 L-8140.79,1567.49 L-8140.63,1567.58 L-8140.58,1567.61 L-8140.45,1567.73 L-8140.22,1567.96 L-8140.16,1568.03 L-8140.14,1568.05 L-8140.09,1568.12 L-8130.9,1581.87 L-8115.02,1592.48 L-8096.09,1596.24 L-8092.78,1596.24 L-8092.78,1573.32 L-8092.76,1573.12 L-8092.75,1573.08 L-8092.61,1572.72 L-8092.58,1572.68 L-8092.31,1572.41 L-8092.28,1572.39 L-8091.92,1572.24 L-8091.87,1572.23 L-8091.67,1572.21 L-7191.89,1572.21 L-7191.7,1572.23 L-7191.65,1572.24 L-7191.29,1572.39 L-7191.26,1572.41 L-7190.98,1572.68 L-7190.96,1572.72 L-7190.81,1573.08 L-7190.8,1573.12 L-7190.78,1573.32 L-7190.78,1607.52 L-7190.73,1607.55 L-7190.7,1607.56 L-7190.63,1607.61 L-6584.6,2031.11 L-6678.58,-4471.66 L-12799.5,-4434.45"/>
</g>

<g fill="none" stroke="#000000" stroke-opacity="1" stroke-width="1" stroke-linecap="square" stroke-linejoin="bevel" transform="matrix(0.999856,0,0,-0.999856,12798.1,2032.25)"
font-family="MS Shell Dlg 2" font-size="10.3125" font-weight="400" font-style="normal" 
>
</g>

<g fill="none" stroke="#000000" stroke-opacity="1" stroke-width="1" stroke-linecap="square" stroke-linejoin="bevel" transform="matrix(0.999856,0,0,-0.999856,12798.1,2032.25)"
font-family="MS Shell Dlg 2" font-size="10.3125" font-weight="400" font-style="normal" 
>
</g>

<g fill="#ffff00" fill-opacity="0.2" stroke="#333333" stroke-opacity="1" stroke-width="1" stroke-linecap="round" stroke-linejoin="round" transform="matrix(0.999856,0,0,-0.999856,12798.1,2032.25)"
font-family="MS Shell Dlg 2" font-size="10.3125" font-weight="400" font-style="normal" 
>
<path vector-effect="non-scaling-stroke" fill-rule="evenodd" d="M-12799.5,-4434.45 L-12781.7,-3748.77 L-11471.4,-2438.54 L-11471.4,-2438.49 L-11471.4,-2438.47 L-11471.3,-2438.42 L-11471.2,-2438.22 L-11471.1,-2438.16 L-11471.1,-2438.14 L-11471.1,-2438.08 L-10915.2,-1439.99 L-10915.1,-1439.87 L-10915.1,-1439.84 L-10915.1,-1439.72 L-10914.9,-1439.27 L-10914.9,-1439.14 L-10914.9,-1439.1 L-10914.9,-1438.98 L-10914.8,-501.773 L-10914.8,-501.675 L-10914.8,-501.646 L-10914.8,-501.549 L-10914.9,-501.21 L-10914.9,-501.022 L-10915,-500.968 L-10915.1,-500.795 L-10915.2,-500.52 L-10915.4,-500.369 L-10915.4,-500.328 L-10915.6,-500.203 L-10915.8,-500.019 L-10916,-499.927 L-10916.1,-499.905 L-10916.2,-499.848 L-10916.6,-499.78 L-10916.7,-499.766 L-10916.7,-499.763 L-10916.8,-499.758 L-11034.5,-499.758 L-11034.5,-499.759 L-11034.5,-499.759 L-11034.5,-499.76 L-11034.6,-499.764 L-11034.6,-499.765 L-11034.6,-499.766 L-11034.7,-499.768 L-11035,-499.798 L-11116.8,-499.783 L-11116.9,-499.788 L-11116.9,-499.791 L-11117,-499.805 L-11117.3,-499.872 L-11117.5,-499.929 L-11117.6,-499.952 L-11117.7,-500.044 L-11118,-500.228 L-11118.2,-500.352 L-11118.2,-500.393 L-11118.3,-500.545 L-11118.5,-500.758 L-11189.1,-500.758 L-11189.1,-500.719 L-11189.3,-500.55 L-11189.5,-500.29 L-11189.7,-500.151 L-11189.7,-500.115 L-11189.9,-500.012 L-11190.2,-499.865 L-11190.3,-499.829 L-11190.4,-499.82 L-11190.5,-499.794 L-11209.5,-496.001 L-11225.4,-485.387 L-11236,-469.504 L-11239.3,-452.758 L-11191.9,-452.758 L-11191.7,-452.739 L-11191.7,-452.73 L-11191.3,-452.58 L-11191.3,-452.559 L-11191,-452.283 L-11191,-452.251 L-11190.8,-451.891 L-11190.8,-451.844 L-11190.8,-451.649 L-11190.8,1048.13 L-11190.8,1048.33 L-11190.8,1048.37 L-11191,1048.73 L-11191,1048.77 L-11191.3,1049.04 L-11191.3,1049.06 L-11191.7,1049.21 L-11191.7,1049.22 L-11191.9,1049.24 L-11239.4,1049.24 L-11236,1066.01 L-11225.4,1081.89 L-11209.5,1092.51 L-11190.5,1096.28 L-11190.5,1096.3 L-11190.4,1096.31 L-11190.3,1096.34 L-11190,1096.46 L-11189.9,1096.54 L-11189.8,1096.57 L-11189.7,1096.68 L-11189.5,1096.89 L-11189.3,1097.03 L-11189.3,1097.08 L-11189.2,1097.23 L-11189.2,1097.24 L-11118.5,1097.24 L-11118.3,1097.02 L-11118.2,1096.87 L-11118.2,1096.83 L-11118,1096.7 L-11117.7,1096.52 L-11117.6,1096.43 L-11117.5,1096.4 L-11117.3,1096.35 L-11117,1096.28 L-11116.9,1096.26 L-11116.9,1096.26 L-11116.8,1096.26 L-11033.4,1096.24 L-11033.2,1096.24 L-9741.8,1096.24 L-9741.7,1096.25 L-9741.67,1096.25 L-9741.57,1096.26 L-9741.23,1096.33 L-9741.05,1096.39 L-9740.99,1096.41 L-9740.82,1096.5 L-9740.55,1096.69 L-9740.39,1096.81 L-9740.35,1096.85 L-9740.23,1097 L-9740.04,1097.28 L-9739.95,1097.45 L-9739.93,1097.51 L-9739.87,1097.69 L-9739.81,1098.03 L-9739.79,1098.13 L-9739.79,1098.16 L-9739.78,1098.26 L-9739.78,1440.52 L-9739.78,1440.55 L-9739.78,1440.55 L-9739.78,1440.58 L-9739.79,1440.67 L-9739.79,1440.69 L-9739.79,1440.7 L-9739.79,1440.72 L-9739.82,1441.04 L-9739.81,1538.15 L-9739.8,1558.35 L-9739.78,1652.02 L-9736.02,1670.95 L-9725.4,1686.83 L-9709.52,1697.44 L-9692.78,1700.77 L-9692.78,1653.32 L-9692.76,1653.12 L-9692.75,1653.08 L-9692.61,1652.72 L-9692.58,1652.68 L-9692.31,1652.41 L-9692.28,1652.39 L-9691.92,1652.24 L-9691.87,1652.23 L-9691.67,1652.21 L-8191.89,1652.21 L-8191.7,1652.23 L-8191.65,1652.24 L-8191.29,1652.39 L-8191.26,1652.41 L-8190.98,1652.68 L-8190.96,1652.72 L-8190.81,1653.08 L-8190.8,1653.12 L-8190.78,1653.32 L-8190.78,1700.78 L-8174.01,1697.44 L-8158.12,1686.83 L-8147.51,1670.94 L-8143.74,1652 L-8143.76,1569.24 L-8143.76,1569.14 L-8143.75,1569.12 L-8143.74,1569.03 L-8143.68,1568.71 L-8143.63,1568.54 L-8143.61,1568.49 L-8143.53,1568.32 L-8143.37,1568.06 L-8143.27,1567.91 L-8143.23,1567.87 L-8143.1,1567.75 L-8142.85,1567.56 L-8142.7,1567.46 L-8142.65,1567.44 L-8142.48,1567.37 L-8142.19,1567.28 L-8142.01,1567.24 L-8141.96,1567.24 L-8141.77,1567.23 L-8141.47,1567.25 L-8141.29,1567.28 L-8141.24,1567.3 L-8141.06,1567.36 L-8140.79,1567.49 L-8140.63,1567.58 L-8140.58,1567.61 L-8140.45,1567.73 L-8140.22,1567.96 L-8140.16,1568.03 L-8140.14,1568.05 L-8140.09,1568.12 L-8130.9,1581.87 L-8115.02,1592.48 L-8096.09,1596.24 L-8092.78,1596.24 L-8092.78,1573.32 L-8092.76,1573.12 L-8092.75,1573.08 L-8092.61,1572.72 L-8092.58,1572.68 L-8092.31,1572.41 L-8092.28,1572.39 L-8091.92,1572.24 L-8091.87,1572.23 L-8091.67,1572.21 L-7191.89,1572.21 L-7191.7,1572.23 L-7191.65,1572.24 L-7191.29,1572.39 L-7191.26,1572.41 L-7190.98,1572.68 L-7190.96,1572.72 L-7190.81,1573.08 L-7190.8,1573.12 L-7190.78,1573.32 L-7190.78,1607.52 L-7190.73,1607.55 L-7190.7,1607.56 L-7190.63,1607.61 L-6584.6,2031.11 L-6678.58,-4471.66 L-12799.5,-4434.45"/>
</g>

<g fill="none" stroke="#000000" stroke-opacity="1" stroke-width="1" stroke-linecap="square" stroke-linejoin="bevel" transform="matrix(0.999856,0,0,-0.999856,12798.1,2032.25)"
font-family="MS Shell Dlg 2" font-size="10.3125" font-weight="400" font-style="normal" 
>
</g>

<g fill="none" stroke="#000000" stroke-opacity="1" stroke-width="1" stroke-linecap="square" stroke-linejoin="bevel" transform="matrix(0.999856,0,0,-0.999856,12798.1,2032.25)"
font-family="MS Shell Dlg 2" font-size="10.3125" font-weight="400" font-style="normal" 
>
</g>

<g fill="#ae5151" fill-opacity="0.2" stroke="#333333" stroke-opacity="1" stroke-width="1" stroke-linecap="round" stroke-linejoin="round" transform="matrix(0.999856,0,0,-0.999856,12798.1,2032.25)"
font-family="MS Shell Dlg 2" font-size="10.3125" font-weight="400" font-style="normal" 
>
<path vector-effect="non-scaling-stroke" fill-rule="evenodd" d="M-12799.5,-4434.45 L-12781.7,-3748.77 L-11471.4,-2438.54 L-11471.4,-2438.49 L-11471.4,-2438.47 L-11471.3,-2438.42 L-11471.2,-2438.22 L-11471.1,-2438.16 L-11471.1,-2438.14 L-11471.1,-2438.08 L-10915.2,-1439.99 L-10915.1,-1439.87 L-10915.1,-1439.84 L-10915.1,-1439.72 L-10914.9,-1439.27 L-10914.9,-1439.14 L-10914.9,-1439.1 L-10914.9,-1438.98 L-10914.8,-501.773 L-10914.8,-501.675 L-10914.8,-501.646 L-10914.8,-501.549 L-10914.9,-501.21 L-10914.9,-501.022 L-10915,-500.968 L-10915.1,-500.795 L-10915.2,-500.52 L-10915.4,-500.369 L-10915.4,-500.328 L-10915.6,-500.203 L-10915.8,-500.019 L-10916,-499.927 L-10916.1,-499.905 L-10916.2,-499.848 L-10916.6,-499.78 L-10916.7,-499.766 L-10916.7,-499.763 L-10916.8,-499.758 L-11034.5,-499.758 L-11034.5,-499.759 L-11034.5,-499.759 L-11034.5,-499.76 L-11034.6,-499.764 L-11034.6,-499.765 L-11034.6,-499.766 L-11034.7,-499.768 L-11035,-499.798 L-11116.8,-499.783 L-11116.9,-499.788 L-11116.9,-499.791 L-11117,-499.805 L-11117.3,-499.872 L-11117.5,-499.929 L-11117.6,-499.952 L-11117.7,-500.044 L-11118,-500.228 L-11118.2,-500.352 L-11118.2,-500.393 L-11118.3,-500.545 L-11118.5,-500.758 L-11189.1,-500.758 L-11189.1,-500.719 L-11189.3,-500.55 L-11189.5,-500.29 L-11189.7,-500.151 L-11189.7,-500.115 L-11189.9,-500.012 L-11190.2,-499.865 L-11190.3,-499.829 L-11190.4,-499.82 L-11190.5,-499.794 L-11209.5,-496.001 L-11225.4,-485.387 L-11236,-469.504 L-11239.3,-452.758 L-11191.9,-452.758 L-11191.7,-452.739 L-11191.7,-452.73 L-11191.3,-452.58 L-11191.3,-452.559 L-11191,-452.283 L-11191,-452.251 L-11190.8,-451.891 L-11190.8,-451.844 L-11190.8,-451.649 L-11190.8,1048.13 L-11190.8,1048.33 L-11190.8,1048.37 L-11191,1048.73 L-11191,1048.77 L-11191.3,1049.04 L-11191.3,1049.06 L-11191.7,1049.21 L-11191.7,1049.22 L-11191.9,1049.24 L-11239.4,1049.24 L-11236,1066.01 L-11225.4,1081.89 L-11209.5,1092.51 L-11190.5,1096.28 L-11190.5,1096.3 L-11190.4,1096.31 L-11190.3,1096.34 L-11190,1096.46 L-11189.9,1096.54 L-11189.8,1096.57 L-11189.7,1096.68 L-11189.5,1096.89 L-11189.3,1097.03 L-11189.3,1097.08 L-11189.2,1097.23 L-11189.2,1097.24 L-11118.5,1097.24 L-11118.3,1097.02 L-11118.2,1096.87 L-11118.2,1096.83 L-11118,1096.7 L-11117.7,1096.52 L-11117.6,1096.43 L-11117.5,1096.4 L-11117.3,1096.35 L-11117,1096.28 L-11116.9,1096.26 L-11116.9,1096.26 L-11116.8,1096.26 L-11033.4,1096.24 L-11033.2,1096.24 L-9741.8,1096.24 L-9741.7,1096.25 L-9741.67,1096.25 L-9741.57,1096.26 L-9741.23,1096.33 L-9741.05,1096.39 L-9740.99,1096.41 L-9740.82,1096.5 L-9740.55,1096.69 L-9740.39,1096.81 L-9740.35,1096.85 L-9740.23,1097 L-9740.04,1097.28 L-9739.95,1097.45 L-9739.93,1097.51 L-9739.87,1097.69 L-9739.81,1098.03 L-9739.79,1098.13 L-9739.79,1098.16 L-9739.78,1098.26 L-9739.78,1440.52 L-9739.78,1440.55 L-9739.78,1440.55 L-9739.78,1440.58 L-9739.79,1440.67 L-9739.79,1440.69 L-9739.79,1440.7 L-9739.79,1440.72 L-9739.82,1441.04 L-9739.81,1538.15 L-9739.8,1558.35 L-9739.78,1652.02 L-9736.02,1670.95 L-9725.4,1686.83 L-9709.52,1697.44 L-9692.78,1700.77 L-9692.78,1653.32 L-9692.76,1653.12 L-9692.75,1653.08 L-9692.61,1652.72 L-9692.58,1652.68 L-9692.31,1652.41 L-9692.28,1652.39 L-9691.92,1652.24 L-9691.87,1652.23 L-9691.67,1652.21 L-8191.89,1652.21 L-8191.7,1652.23 L-8191.65,1652.24 L-8191.29,1652.39 L-8191.26,1652.41 L-8190.98,1652.68 L-8190.96,1652.72 L-8190.81,1653.08 L-8190.8,1653.12 L-8190.78,1653.32 L-8190.78,1700.78 L-8174.01,1697.44 L-8158.12,1686.83 L-8147.51,1670.94 L-8143.74,1652 L-8143.76,1569.24 L-8143.76,1569.14 L-8143.75,1569.12 L-8143.74,1569.03 L-8143.68,1568.71 L-8143.63,1568.54 L-8143.61,1568.49 L-8143.53,1568.32 L-8143.37,1568.06 L-8143.27,1567.91 L-8143.23,1567.87 L-8143.1,1567.75 L-8142.85,1567.56 L-8142.7,1567.46 L-8142.65,1567.44 L-8142.48,1567.37 L-8142.19,1567.28 L-8142.01,1567.24 L-8141.96,1567.24 L-8141.77,1567.23 L-8141.47,1567.25 L-8141.29,1567.28 L-8141.24,1567.3 L-8141.06,1567.36 L-8140.79,1567.49 L-8140.63,1567.58 L-8140.58,1567.61 L-8140.45,1567.73 L-8140.22,1567.96 L-8140.16,1568.03 L-8140.14,1568.05 L-8140.09,1568.12 L-8130.9,1581.87 L-8115.02,1592.48 L-8096.09,1596.24 L-8092.78,1596.24 L-8092.78,1573.32 L-8092.76,1573.12 L-8092.75,1573.08 L-8092.61,1572.72 L-8092.58,1572.68 L-8092.31,1572.41 L-8092.28,1572.39 L-8091.92,1572.24 L-8091.87,1572.23 L-8091.67,1572.21 L-7191.89,1572.21 L-7191.7,1572.23 L-7191.65,1572.24 L-7191.29,1572.39 L-7191.26,1572.41 L-7190.98,1572.68 L-7190.96,1572.72 L-7190.81,1573.08 L-7190.8,1573.12 L-7190.78,1573.32 L-7190.78,1607.52 L-7190.73,1607.55 L-7190.7,1607.56 L-7190.63,1607.61 L-6584.6,2031.11 L-6678.58,-4471.66 L-12799.5,-4434.45"/>
</g>

<g fill="none" stroke="#000000" stroke-opacity="1" stroke-width="1" stroke-linecap="square" stroke-linejoin="bevel" transform="matrix(0.999856,0,0,-0.999856,12798.1,2032.25)"
font-family="MS Shell Dlg 2" font-size="10.3125" font-weight="400" font-style="normal" 
>
</g>

<g fill="none" stroke="#000000" stroke-opacity="1" stroke-width="1" stroke-linecap="square" stroke-linejoin="bevel" transform="matrix(0.999856,0,0,-0.999856,12798.1,2032.25)"
font-family="MS Shell Dlg 2" font-size="10.3125" font-weight="400" font-style="normal" 
>
</g>

<g fill="#333333" fill-opacity="0.2" stroke="#333333" stroke-opacity="1" stroke-width="1" stroke-linecap="round" stroke-linejoin="round" transform="matrix(0.999856,0,0,-0.999856,12798.1,2032.25)"
font-family="MS Shell Dlg 2" font-size="10.3125" font-weight="400" font-style="normal" 
>
<path vector-effect="non-scaling-stroke" fill-rule="evenodd" d="M-12799.5,-4434.45 L-12781.7,-3748.77 L-11471.4,-2438.54 L-11471.4,-2438.49 L-11471.4,-2438.47 L-11471.3,-2438.42 L-11471.2,-2438.22 L-11471.1,-2438.16 L-11471.1,-2438.14 L-11471.1,-2438.08 L-10915.2,-1439.99 L-10915.1,-1439.87 L-10915.1,-1439.84 L-10915.1,-1439.72 L-10914.9,-1439.27 L-10914.9,-1439.14 L-10914.9,-1439.1 L-10914.9,-1438.98 L-10914.8,-501.773 L-10914.8,-501.675 L-10914.8,-501.646 L-10914.8,-501.549 L-10914.9,-501.21 L-10914.9,-501.022 L-10915,-500.968 L-10915.1,-500.795 L-10915.2,-500.52 L-10915.4,-500.369 L-10915.4,-500.328 L-10915.6,-500.203 L-10915.8,-500.019 L-10916,-499.927 L-10916.1,-499.905 L-10916.2,-499.848 L-10916.6,-499.78 L-10916.7,-499.766 L-10916.7,-499.763 L-10916.8,-499.758 L-11034.5,-499.758 L-11034.5,-499.759 L-11034.5,-499.759 L-11034.5,-499.76 L-11034.6,-499.764 L-11034.6,-499.765 L-11034.6,-499.766 L-11034.7,-499.768 L-11035,-499.798 L-11116.8,-499.783 L-11116.9,-499.788 L-11116.9,-499.791 L-11117,-499.805 L-11117.3,-499.872 L-11117.5,-499.929 L-11117.6,-499.952 L-11117.7,-500.044 L-11118,-500.228 L-11118.2,-500.352 L-11118.2,-500.393 L-11118.3,-500.545 L-11118.5,-500.758 L-11189.1,-500.758 L-11189.1,-500.719 L-11189.3,-500.55 L-11189.5,-500.29 L-11189.7,-500.151 L-11189.7,-500.115 L-11189.9,-500.012 L-11190.2,-499.865 L-11190.3,-499.829 L-11190.4,-499.82 L-11190.5,-499.794 L-11209.5,-496.001 L-11225.4,-485.387 L-11236,-469.504 L-11239.3,-452.758 L-11191.9,-452.758 L-11191.7,-452.739 L-11191.7,-452.73 L-11191.3,-452.58 L-11191.3,-452.559 L-11191,-452.283 L-11191,-452.251 L-11190.8,-451.891 L-11190.8,-451.844 L-11190.8,-451.649 L-11190.8,1048.13 L-11190.8,1048.33 L-11190.8,1048.37 L-11191,1048.73 L-11191,1048.77 L-11191.3,1049.04 L-11191.3,1049.06 L-11191.7,1049.21 L-11191.7,1049.22 L-11191.9,1049.24 L-11239.4,1049.24 L-11236,1066.01 L-11225.4,1081.89 L-11209.5,1092.51 L-11190.5,1096.28 L-11190.5,1096.3 L-11190.4,1096.31 L-11190.3,1096.34 L-11190,1096.46 L-11189.9,1096.54 L-11189.8,1096.57 L-11189.7,1096.68 L-11189.5,1096.89 L-11189.3,1097.03 L-11189.3,1097.08 L-11189.2,1097.23 L-11189.2,1097.24 L-11118.5,1097.24 L-11118.3,1097.02 L-11118.2,1096.87 L-11118.2,1096.83 L-11118,1096.7 L-11117.7,1096.52 L-11117.6,1096.43 L-11117.5,1096.4 L-11117.3,1096.35 L-11117,1096.28 L-11116.9,1096.26 L-11116.9,1096.26 L-11116.8,1096.26 L-11033.4,1096.24 L-11033.2,1096.24 L-9741.8,1096.24 L-9741.7,1096.25 L-9741.67,1096.25 L-9741.57,1096.26 L-9741.23,1096.33 L-9741.05,1096.39 L-9740.99,1096.41 L-9740.82,1096.5 L-9740.55,1096.69 L-9740.39,1096.81 L-9740.35,1096.85 L-9740.23,1097 L-9740.04,1097.28 L-9739.95,1097.45 L-9739.93,1097.51 L-9739.87,1097.69 L-9739.81,1098.03 L-9739.79,1098.13 L-9739.79,1098.16 L-9739.78,1098.26 L-9739.78,1440.52 L-9739.78,1440.55 L-9739.78,1440.55 L-9739.78,1440.58 L-9739.79,1440.67 L-9739.79,1440.69 L-9739.79,1440.7 L-9739.79,1440.72 L-9739.82,1441.04 L-9739.81,1538.15 L-9739.8,1558.35 L-9739.78,1652.02 L-9736.02,1670.95 L-9725.4,1686.83 L-9709.52,1697.44 L-9692.78,1700.77 L-9692.78,1653.32 L-9692.76,1653.12 L-9692.75,1653.08 L-9692.61,1652.72 L-9692.58,1652.68 L-9692.31,1652.41 L-9692.28,1652.39 L-9691.92,1652.24 L-9691.87,1652.23 L-9691.67,1652.21 L-8191.89,1652.21 L-8191.7,1652.23 L-8191.65,1652.24 L-8191.29,1652.39 L-8191.26,1652.41 L-8190.98,1652.68 L-8190.96,1652.72 L-8190.81,1653.08 L-8190.8,1653.12 L-8190.78,1653.32 L-8190.78,1700.78 L-8174.01,1697.44 L-8158.12,1686.83 L-8147.51,1670.94 L-8143.74,1652 L-8143.76,1569.24 L-8143.76,1569.14 L-8143.75,1569.12 L-8143.74,1569.03 L-8143.68,1568.71 L-8143.63,1568.54 L-8143.61,1568.49 L-8143.53,1568.32 L-8143.37,1568.06 L-8143.27,1567.91 L-8143.23,1567.87 L-8143.1,1567.75 L-8142.85,1567.56 L-8142.7,1567.46 L-8142.65,1567.44 L-8142.48,1567.37 L-8142.19,1567.28 L-8142.01,1567.24 L-8141.96,1567.24 L-8141.77,1567.23 L-8141.47,1567.25 L-8141.29,1567.28 L-8141.24,1567.3 L-8141.06,1567.36 L-8140.79,1567.49 L-8140.63,1567.58 L-8140.58,1567.61 L-8140.45,1567.73 L-8140.22,1567.96 L-8140.16,1568.03 L-8140.14,1568.05 L-8140.09,1568.12 L-8130.9,1581.87 L-8115.02,1592.48 L-8096.09,1596.24 L-8092.78,1596.24 L-8092.78,1573.32 L-8092.76,1573.12 L-8092.75,1573.08 L-8092.61,1572.72 L-8092.58,1572.68 L-8092.31,1572.41 L-8092.28,1572.39 L-8091.92,1572.24 L-8091.87,1572.23 L-8091.67,1572.21 L-7191.89,1572.21 L-7191.7,1572.23 L-7191.65,1572.24 L-7191.29,1572.39 L-7191.26,1572.41 L-7190.98,1572.68 L-7190.96,1572.72 L-7190.81,1573.08 L-7190.8,1573.12 L-7190.78,1573.32 L-7190.78,1607.52 L-7190.73,1607.55 L-7190.7,1607.56 L-7190.63,1607.61 L-6584.6,2031.11 L-6678.58,-4471.66 L-12799.5,-4434.45"/>
</g>

<g fill="none" stroke="#000000" stroke-opacity="1" stroke-width="1" stroke-linecap="square" stroke-linejoin="bevel" transform="matrix(0.999856,0,0,-0.999856,12798.1,2032.25)"
font-family="MS Shell Dlg 2" font-size="10.3125" font-weight="400" font-style="normal" 
>
</g>

<g fill="none" stroke="#000000" stroke-opacity="1" stroke-width="1" stroke-linecap="square" stroke-linejoin="bevel" transform="matrix(1,0,0,-1,0,6503.77)"
font-family="MS Shell Dlg 2" font-size="10.3125" font-weight="400" font-style="normal" 
>
</g>
</g>
</svg>
