<?xml version="1.0" encoding="UTF-8" standalone="no"?>
<svg width="64.6289mm" height="174.696mm"
 xmlns="http://www.w3.org/2000/svg" xmlns:xlink="http://www.w3.org/1999/xlink"  version="1.2" baseProfile="tiny">
<title>SVG Generator Example Drawing</title>
<desc>An SVG drawing created by the SVG Generator</desc>
<defs>
</defs>
<g fill="none" stroke="black" stroke-width="1" fill-rule="evenodd" stroke-linecap="square" stroke-linejoin="bevel" >

<g fill="none" stroke="#000000" stroke-opacity="1" stroke-width="1" stroke-linecap="square" stroke-linejoin="bevel" transform="matrix(1,0,0,-1,0,619)"
font-family="MS Shell Dlg 2" font-size="10.3125" font-weight="400" font-style="normal" 
>
</g>

<g fill="none" stroke="#000000" stroke-opacity="1" stroke-width="1" stroke-linecap="square" stroke-linejoin="bevel" transform="matrix(1,0,0,-1,0,619)"
font-family="MS Shell Dlg 2" font-size="10.3125" font-weight="400" font-style="normal" 
>
</g>

<g fill="none" stroke="#000000" stroke-opacity="1" stroke-width="1" stroke-linecap="square" stroke-linejoin="bevel" transform="matrix(0.99695,0,0,-0.99695,12253.8,607.776)"
font-family="MS Shell Dlg 2" font-size="10.3125" font-weight="400" font-style="normal" 
>
</g>

<g fill="#333333" fill-opacity="0.2" stroke="#333333" stroke-opacity="1" stroke-width="1" stroke-linecap="round" stroke-linejoin="round" transform="matrix(0.99695,0,0,-0.99695,12253.8,607.776)"
font-family="MS Shell Dlg 2" font-size="10.3125" font-weight="400" font-style="normal" 
>
<path vector-effect="non-scaling-stroke" fill-rule="evenodd" d="M-12290.8,-10.7584 L-12290.8,607.242 L-12062.1,607.242 L-12062.2,599.242 L-12191.7,599.242 L-12191.9,599.222 L-12191.9,599.213 L-12192.3,599.064 L-12192.3,599.042 L-12192.6,598.767 L-12192.6,598.735 L-12192.8,598.374 L-12192.8,598.327 L-12192.8,598.132 L-12192.8,-1.64851 L-12192.8,-1.8436 L-12192.8,-1.89097 L-12192.6,-2.25145 L-12192.6,-2.28325 L-12192.3,-2.55915 L-12192.3,-2.5804 L-12191.9,-2.72972 L-12191.9,-2.73914 L-12191.7,-2.75836 L-12072.7,-2.75836 L-12072.9,-10.7584 L-12290.8,-10.7584"/>
</g>

<g fill="none" stroke="#000000" stroke-opacity="1" stroke-width="1" stroke-linecap="square" stroke-linejoin="bevel" transform="matrix(0.99695,0,0,-0.99695,12253.8,607.776)"
font-family="MS Shell Dlg 2" font-size="10.3125" font-weight="400" font-style="normal" 
>
</g>

<g fill="none" stroke="#000000" stroke-opacity="1" stroke-width="1" stroke-linecap="square" stroke-linejoin="bevel" transform="matrix(0.99695,0,0,-0.99695,12253.8,607.776)"
font-family="MS Shell Dlg 2" font-size="10.3125" font-weight="400" font-style="normal" 
>
</g>

<g fill="#ae5151" fill-opacity="0.2" stroke="#333333" stroke-opacity="1" stroke-width="1" stroke-linecap="round" stroke-linejoin="round" transform="matrix(0.99695,0,0,-0.99695,12253.8,607.776)"
font-family="MS Shell Dlg 2" font-size="10.3125" font-weight="400" font-style="normal" 
>
<path vector-effect="non-scaling-stroke" fill-rule="evenodd" d="M-12290.8,-10.7584 L-12290.8,607.242 L-12062.1,607.242 L-12062.2,599.242 L-12191.7,599.242 L-12191.9,599.222 L-12191.9,599.213 L-12192.3,599.064 L-12192.3,599.042 L-12192.6,598.767 L-12192.6,598.735 L-12192.8,598.374 L-12192.8,598.327 L-12192.8,598.132 L-12192.8,-1.64851 L-12192.8,-1.8436 L-12192.8,-1.89097 L-12192.6,-2.25145 L-12192.6,-2.28325 L-12192.3,-2.55915 L-12192.3,-2.5804 L-12191.9,-2.72972 L-12191.9,-2.73914 L-12191.7,-2.75836 L-12072.7,-2.75836 L-12072.9,-10.7584 L-12290.8,-10.7584"/>
</g>

<g fill="none" stroke="#000000" stroke-opacity="1" stroke-width="1" stroke-linecap="square" stroke-linejoin="bevel" transform="matrix(0.99695,0,0,-0.99695,12253.8,607.776)"
font-family="MS Shell Dlg 2" font-size="10.3125" font-weight="400" font-style="normal" 
>
</g>

<g fill="none" stroke="#000000" stroke-opacity="1" stroke-width="1" stroke-linecap="square" stroke-linejoin="bevel" transform="matrix(0.99695,0,0,-0.99695,12253.8,607.776)"
font-family="MS Shell Dlg 2" font-size="10.3125" font-weight="400" font-style="normal" 
>
</g>

<g fill="#ffff00" fill-opacity="0.2" stroke="#333333" stroke-opacity="1" stroke-width="1" stroke-linecap="round" stroke-linejoin="round" transform="matrix(0.99695,0,0,-0.99695,12253.8,607.776)"
font-family="MS Shell Dlg 2" font-size="10.3125" font-weight="400" font-style="normal" 
>
<path vector-effect="non-scaling-stroke" fill-rule="evenodd" d="M-12290.8,-10.7584 L-12290.8,607.242 L-12062.1,607.242 L-12062.2,599.242 L-12191.7,599.242 L-12191.9,599.222 L-12191.9,599.213 L-12192.3,599.064 L-12192.3,599.042 L-12192.6,598.767 L-12192.6,598.735 L-12192.8,598.374 L-12192.8,598.327 L-12192.8,598.132 L-12192.8,-1.64851 L-12192.8,-1.8436 L-12192.8,-1.89097 L-12192.6,-2.25145 L-12192.6,-2.28325 L-12192.3,-2.55915 L-12192.3,-2.5804 L-12191.9,-2.72972 L-12191.9,-2.73914 L-12191.7,-2.75836 L-12072.7,-2.75836 L-12072.9,-10.7584 L-12290.8,-10.7584"/>
</g>

<g fill="none" stroke="#000000" stroke-opacity="1" stroke-width="1" stroke-linecap="square" stroke-linejoin="bevel" transform="matrix(0.99695,0,0,-0.99695,12253.8,607.776)"
font-family="MS Shell Dlg 2" font-size="10.3125" font-weight="400" font-style="normal" 
>
</g>

<g fill="none" stroke="#000000" stroke-opacity="1" stroke-width="1" stroke-linecap="square" stroke-linejoin="bevel" transform="matrix(0.99695,0,0,-0.99695,12253.8,607.776)"
font-family="MS Shell Dlg 2" font-size="10.3125" font-weight="400" font-style="normal" 
>
</g>

<g fill="#ae5151" fill-opacity="0.2" stroke="#333333" stroke-opacity="1" stroke-width="1" stroke-linecap="round" stroke-linejoin="round" transform="matrix(0.99695,0,0,-0.99695,12253.8,607.776)"
font-family="MS Shell Dlg 2" font-size="10.3125" font-weight="400" font-style="normal" 
>
<path vector-effect="non-scaling-stroke" fill-rule="evenodd" d="M-12290.8,-10.7584 L-12290.8,607.242 L-12062.1,607.242 L-12062.2,599.242 L-12191.7,599.242 L-12191.9,599.222 L-12191.9,599.213 L-12192.3,599.064 L-12192.3,599.042 L-12192.6,598.767 L-12192.6,598.735 L-12192.8,598.374 L-12192.8,598.327 L-12192.8,598.132 L-12192.8,-1.64851 L-12192.8,-1.8436 L-12192.8,-1.89097 L-12192.6,-2.25145 L-12192.6,-2.28325 L-12192.3,-2.55915 L-12192.3,-2.5804 L-12191.9,-2.72972 L-12191.9,-2.73914 L-12191.7,-2.75836 L-12072.7,-2.75836 L-12072.9,-10.7584 L-12290.8,-10.7584"/>
</g>

<g fill="none" stroke="#000000" stroke-opacity="1" stroke-width="1" stroke-linecap="square" stroke-linejoin="bevel" transform="matrix(0.99695,0,0,-0.99695,12253.8,607.776)"
font-family="MS Shell Dlg 2" font-size="10.3125" font-weight="400" font-style="normal" 
>
</g>

<g fill="none" stroke="#000000" stroke-opacity="1" stroke-width="1" stroke-linecap="square" stroke-linejoin="bevel" transform="matrix(0.99695,0,0,-0.99695,12253.8,607.776)"
font-family="MS Shell Dlg 2" font-size="10.3125" font-weight="400" font-style="normal" 
>
</g>

<g fill="#333333" fill-opacity="0.2" stroke="#333333" stroke-opacity="1" stroke-width="1" stroke-linecap="round" stroke-linejoin="round" transform="matrix(0.99695,0,0,-0.99695,12253.8,607.776)"
font-family="MS Shell Dlg 2" font-size="10.3125" font-weight="400" font-style="normal" 
>
<path vector-effect="non-scaling-stroke" fill-rule="evenodd" d="M-12290.8,-10.7584 L-12290.8,607.242 L-12062.1,607.242 L-12062.2,599.242 L-12191.7,599.242 L-12191.9,599.222 L-12191.9,599.213 L-12192.3,599.064 L-12192.3,599.042 L-12192.6,598.767 L-12192.6,598.735 L-12192.8,598.374 L-12192.8,598.327 L-12192.8,598.132 L-12192.8,-1.64851 L-12192.8,-1.8436 L-12192.8,-1.89097 L-12192.6,-2.25145 L-12192.6,-2.28325 L-12192.3,-2.55915 L-12192.3,-2.5804 L-12191.9,-2.72972 L-12191.9,-2.73914 L-12191.7,-2.75836 L-12072.7,-2.75836 L-12072.9,-10.7584 L-12290.8,-10.7584"/>
</g>

<g fill="none" stroke="#000000" stroke-opacity="1" stroke-width="1" stroke-linecap="square" stroke-linejoin="bevel" transform="matrix(0.99695,0,0,-0.99695,12253.8,607.776)"
font-family="MS Shell Dlg 2" font-size="10.3125" font-weight="400" font-style="normal" 
>
</g>

<g fill="none" stroke="#000000" stroke-opacity="1" stroke-width="1" stroke-linecap="square" stroke-linejoin="bevel" transform="matrix(1,0,0,-1,0,619)"
font-family="MS Shell Dlg 2" font-size="10.3125" font-weight="400" font-style="normal" 
>
</g>
</g>
</svg>
