<?xml version="1.0" encoding="UTF-8" standalone="no"?>
<svg width="112.607mm" height="58.7022mm"
 xmlns="http://www.w3.org/2000/svg" xmlns:xlink="http://www.w3.org/1999/xlink"  version="1.2" baseProfile="tiny">
<title>SVG Generator Example Drawing</title>
<desc>An SVG drawing created by the SVG Generator</desc>
<defs>
</defs>
<g fill="none" stroke="black" stroke-width="1" fill-rule="evenodd" stroke-linecap="square" stroke-linejoin="bevel" >

<g fill="none" stroke="#000000" stroke-opacity="1" stroke-width="1" stroke-linecap="square" stroke-linejoin="bevel" transform="matrix(1,0,0,-1,0,209)"
font-family="MS Shell Dlg 2" font-size="10.3125" font-weight="400" font-style="normal" 
>
</g>

<g fill="none" stroke="#000000" stroke-opacity="1" stroke-width="1" stroke-linecap="square" stroke-linejoin="bevel" transform="matrix(1,0,0,-1,0,209)"
font-family="MS Shell Dlg 2" font-size="10.3125" font-weight="400" font-style="normal" 
>
</g>

<g fill="none" stroke="#000000" stroke-opacity="1" stroke-width="1" stroke-linecap="square" stroke-linejoin="bevel" transform="matrix(0.995215,0,0,-0.995215,12102.5,705.355)"
font-family="MS Shell Dlg 2" font-size="10.3125" font-weight="400" font-style="normal" 
>
</g>

<g fill="#333333" fill-opacity="0.2" stroke="#333333" stroke-opacity="1" stroke-width="1" stroke-linecap="round" stroke-linejoin="round" transform="matrix(0.995215,0,0,-0.995215,12102.5,705.355)"
font-family="MS Shell Dlg 2" font-size="10.3125" font-weight="400" font-style="normal" 
>
<path vector-effect="non-scaling-stroke" fill-rule="evenodd" d="M-12160.2,600.068 L-12160.1,609.871 L-12152,647.313 L-12130.4,678.839 L-12098.5,699.852 L-12061,707.242 L-11861.1,707.242 L-11822.8,699.521 L-11790.4,677.618 L-11769.1,644.92 L-11762.1,606.416 L-11762.2,596.613 L-11770.3,559.17 L-11791.8,527.644 L-11823.7,506.631 L-11861.3,499.242 L-12061.1,499.242 L-12099.5,506.962 L-12131.8,528.865 L-12153.2,561.563 L-12160.2,600.068"/>
</g>

<g fill="none" stroke="#000000" stroke-opacity="1" stroke-width="1" stroke-linecap="square" stroke-linejoin="bevel" transform="matrix(0.995215,0,0,-0.995215,12102.5,705.355)"
font-family="MS Shell Dlg 2" font-size="10.3125" font-weight="400" font-style="normal" 
>
</g>

<g fill="none" stroke="#000000" stroke-opacity="1" stroke-width="1" stroke-linecap="square" stroke-linejoin="bevel" transform="matrix(0.995215,0,0,-0.995215,12102.5,705.355)"
font-family="MS Shell Dlg 2" font-size="10.3125" font-weight="400" font-style="normal" 
>
</g>

<g fill="#ae5151" fill-opacity="0.2" stroke="#333333" stroke-opacity="1" stroke-width="1" stroke-linecap="round" stroke-linejoin="round" transform="matrix(0.995215,0,0,-0.995215,12102.5,705.355)"
font-family="MS Shell Dlg 2" font-size="10.3125" font-weight="400" font-style="normal" 
>
<path vector-effect="non-scaling-stroke" fill-rule="evenodd" d="M-12160.2,600.068 L-12160.1,609.871 L-12152,647.313 L-12130.4,678.839 L-12098.5,699.852 L-12061,707.242 L-11861.1,707.242 L-11822.8,699.521 L-11790.4,677.618 L-11769.1,644.92 L-11762.1,606.416 L-11762.2,596.613 L-11770.3,559.17 L-11791.8,527.644 L-11823.7,506.631 L-11861.3,499.242 L-12061.1,499.242 L-12099.5,506.962 L-12131.8,528.865 L-12153.2,561.563 L-12160.2,600.068"/>
</g>

<g fill="none" stroke="#000000" stroke-opacity="1" stroke-width="1" stroke-linecap="square" stroke-linejoin="bevel" transform="matrix(0.995215,0,0,-0.995215,12102.5,705.355)"
font-family="MS Shell Dlg 2" font-size="10.3125" font-weight="400" font-style="normal" 
>
</g>

<g fill="none" stroke="#000000" stroke-opacity="1" stroke-width="1" stroke-linecap="square" stroke-linejoin="bevel" transform="matrix(0.995215,0,0,-0.995215,12102.5,705.355)"
font-family="MS Shell Dlg 2" font-size="10.3125" font-weight="400" font-style="normal" 
>
</g>

<g fill="#ffff00" fill-opacity="0.2" stroke="#333333" stroke-opacity="1" stroke-width="1" stroke-linecap="round" stroke-linejoin="round" transform="matrix(0.995215,0,0,-0.995215,12102.5,705.355)"
font-family="MS Shell Dlg 2" font-size="10.3125" font-weight="400" font-style="normal" 
>
<path vector-effect="non-scaling-stroke" fill-rule="evenodd" d="M-12160.2,600.068 L-12160.1,609.871 L-12152,647.313 L-12130.4,678.839 L-12098.5,699.852 L-12061,707.242 L-11861.1,707.242 L-11822.8,699.521 L-11790.4,677.618 L-11769.1,644.92 L-11762.1,606.416 L-11762.2,596.613 L-11770.3,559.17 L-11791.8,527.644 L-11823.7,506.631 L-11861.3,499.242 L-12061.1,499.242 L-12099.5,506.962 L-12131.8,528.865 L-12153.2,561.563 L-12160.2,600.068"/>
</g>

<g fill="none" stroke="#000000" stroke-opacity="1" stroke-width="1" stroke-linecap="square" stroke-linejoin="bevel" transform="matrix(0.995215,0,0,-0.995215,12102.5,705.355)"
font-family="MS Shell Dlg 2" font-size="10.3125" font-weight="400" font-style="normal" 
>
</g>

<g fill="none" stroke="#000000" stroke-opacity="1" stroke-width="1" stroke-linecap="square" stroke-linejoin="bevel" transform="matrix(0.995215,0,0,-0.995215,12102.5,705.355)"
font-family="MS Shell Dlg 2" font-size="10.3125" font-weight="400" font-style="normal" 
>
</g>

<g fill="#ae5151" fill-opacity="0.2" stroke="#333333" stroke-opacity="1" stroke-width="1" stroke-linecap="round" stroke-linejoin="round" transform="matrix(0.995215,0,0,-0.995215,12102.5,705.355)"
font-family="MS Shell Dlg 2" font-size="10.3125" font-weight="400" font-style="normal" 
>
<path vector-effect="non-scaling-stroke" fill-rule="evenodd" d="M-12160.2,600.068 L-12160.1,609.871 L-12152,647.313 L-12130.4,678.839 L-12098.5,699.852 L-12061,707.242 L-11861.1,707.242 L-11822.8,699.521 L-11790.4,677.618 L-11769.1,644.92 L-11762.1,606.416 L-11762.2,596.613 L-11770.3,559.17 L-11791.8,527.644 L-11823.7,506.631 L-11861.3,499.242 L-12061.1,499.242 L-12099.5,506.962 L-12131.8,528.865 L-12153.2,561.563 L-12160.2,600.068"/>
</g>

<g fill="none" stroke="#000000" stroke-opacity="1" stroke-width="1" stroke-linecap="square" stroke-linejoin="bevel" transform="matrix(0.995215,0,0,-0.995215,12102.5,705.355)"
font-family="MS Shell Dlg 2" font-size="10.3125" font-weight="400" font-style="normal" 
>
</g>

<g fill="none" stroke="#000000" stroke-opacity="1" stroke-width="1" stroke-linecap="square" stroke-linejoin="bevel" transform="matrix(0.995215,0,0,-0.995215,12102.5,705.355)"
font-family="MS Shell Dlg 2" font-size="10.3125" font-weight="400" font-style="normal" 
>
</g>

<g fill="#333333" fill-opacity="0.2" stroke="#333333" stroke-opacity="1" stroke-width="1" stroke-linecap="round" stroke-linejoin="round" transform="matrix(0.995215,0,0,-0.995215,12102.5,705.355)"
font-family="MS Shell Dlg 2" font-size="10.3125" font-weight="400" font-style="normal" 
>
<path vector-effect="non-scaling-stroke" fill-rule="evenodd" d="M-12160.2,600.068 L-12160.1,609.871 L-12152,647.313 L-12130.4,678.839 L-12098.5,699.852 L-12061,707.242 L-11861.1,707.242 L-11822.8,699.521 L-11790.4,677.618 L-11769.1,644.92 L-11762.1,606.416 L-11762.2,596.613 L-11770.3,559.17 L-11791.8,527.644 L-11823.7,506.631 L-11861.3,499.242 L-12061.1,499.242 L-12099.5,506.962 L-12131.8,528.865 L-12153.2,561.563 L-12160.2,600.068"/>
</g>

<g fill="none" stroke="#000000" stroke-opacity="1" stroke-width="1" stroke-linecap="square" stroke-linejoin="bevel" transform="matrix(0.995215,0,0,-0.995215,12102.5,705.355)"
font-family="MS Shell Dlg 2" font-size="10.3125" font-weight="400" font-style="normal" 
>
</g>

<g fill="none" stroke="#000000" stroke-opacity="1" stroke-width="1" stroke-linecap="square" stroke-linejoin="bevel" transform="matrix(1,0,0,-1,0,209)"
font-family="MS Shell Dlg 2" font-size="10.3125" font-weight="400" font-style="normal" 
>
</g>
</g>
</svg>
