<?xml version="1.0" encoding="UTF-8" standalone="no"?>
<svg width="174.696mm" height="52.2111mm"
 xmlns="http://www.w3.org/2000/svg" xmlns:xlink="http://www.w3.org/1999/xlink"  version="1.2" baseProfile="tiny">
<title>SVG Generator Example Drawing</title>
<desc>An SVG drawing created by the SVG Generator</desc>
<defs>
</defs>
<g fill="none" stroke="black" stroke-width="1" fill-rule="evenodd" stroke-linecap="square" stroke-linejoin="bevel" >

<g fill="none" stroke="#000000" stroke-opacity="1" stroke-width="1" stroke-linecap="square" stroke-linejoin="bevel" transform="matrix(1,0,0,-1,0,185.914)"
font-family="MS Shell Dlg 2" font-size="10.3125" font-weight="400" font-style="normal" 
>
</g>

<g fill="none" stroke="#000000" stroke-opacity="1" stroke-width="1" stroke-linecap="square" stroke-linejoin="bevel" transform="matrix(1,0,0,-1,0,185.914)"
font-family="MS Shell Dlg 2" font-size="10.3125" font-weight="400" font-style="normal" 
>
</g>

<g fill="none" stroke="#000000" stroke-opacity="1" stroke-width="1" stroke-linecap="square" stroke-linejoin="bevel" transform="matrix(0.995083,0,0,-0.995083,9205.79,2735.11)"
font-family="MS Shell Dlg 2" font-size="10.3125" font-weight="400" font-style="normal" 
>
</g>

<g fill="#333333" fill-opacity="0.2" stroke="#333333" stroke-opacity="1" stroke-width="1" stroke-linecap="round" stroke-linejoin="round" transform="matrix(0.995083,0,0,-0.995083,9205.79,2735.11)"
font-family="MS Shell Dlg 2" font-size="10.3125" font-weight="400" font-style="normal" 
>
<path vector-effect="non-scaling-stroke" fill-rule="evenodd" d="M-9250.78,2562.29 L-9250.78,2747.21 L-8632.78,2747.21 L-8632.78,2562.29 L-8640.78,2562.29 L-8640.78,2681.1 L-8640.8,2681.29 L-8640.81,2681.34 L-8640.96,2681.7 L-8640.98,2681.73 L-8641.26,2682.01 L-8641.29,2682.03 L-8641.65,2682.18 L-8641.7,2682.19 L-8641.89,2682.21 L-9241.67,2682.21 L-9241.87,2682.19 L-9241.92,2682.18 L-9242.28,2682.03 L-9242.31,2682.01 L-9242.58,2681.73 L-9242.61,2681.7 L-9242.75,2681.34 L-9242.76,2681.29 L-9242.78,2681.1 L-9242.78,2562.29 L-9250.78,2562.29"/>
</g>

<g fill="none" stroke="#000000" stroke-opacity="1" stroke-width="1" stroke-linecap="square" stroke-linejoin="bevel" transform="matrix(0.995083,0,0,-0.995083,9205.79,2735.11)"
font-family="MS Shell Dlg 2" font-size="10.3125" font-weight="400" font-style="normal" 
>
</g>

<g fill="none" stroke="#000000" stroke-opacity="1" stroke-width="1" stroke-linecap="square" stroke-linejoin="bevel" transform="matrix(0.995083,0,0,-0.995083,9205.79,2735.11)"
font-family="MS Shell Dlg 2" font-size="10.3125" font-weight="400" font-style="normal" 
>
</g>

<g fill="#ae5151" fill-opacity="0.2" stroke="#333333" stroke-opacity="1" stroke-width="1" stroke-linecap="round" stroke-linejoin="round" transform="matrix(0.995083,0,0,-0.995083,9205.79,2735.11)"
font-family="MS Shell Dlg 2" font-size="10.3125" font-weight="400" font-style="normal" 
>
<path vector-effect="non-scaling-stroke" fill-rule="evenodd" d="M-9250.78,2562.29 L-9250.78,2747.21 L-8632.78,2747.21 L-8632.78,2562.29 L-8640.78,2562.29 L-8640.78,2681.1 L-8640.8,2681.29 L-8640.81,2681.34 L-8640.96,2681.7 L-8640.98,2681.73 L-8641.26,2682.01 L-8641.29,2682.03 L-8641.65,2682.18 L-8641.7,2682.19 L-8641.89,2682.21 L-9241.67,2682.21 L-9241.87,2682.19 L-9241.92,2682.18 L-9242.28,2682.03 L-9242.31,2682.01 L-9242.58,2681.73 L-9242.61,2681.7 L-9242.75,2681.34 L-9242.76,2681.29 L-9242.78,2681.1 L-9242.78,2562.29 L-9250.78,2562.29"/>
</g>

<g fill="none" stroke="#000000" stroke-opacity="1" stroke-width="1" stroke-linecap="square" stroke-linejoin="bevel" transform="matrix(0.995083,0,0,-0.995083,9205.79,2735.11)"
font-family="MS Shell Dlg 2" font-size="10.3125" font-weight="400" font-style="normal" 
>
</g>

<g fill="none" stroke="#000000" stroke-opacity="1" stroke-width="1" stroke-linecap="square" stroke-linejoin="bevel" transform="matrix(0.995083,0,0,-0.995083,9205.79,2735.11)"
font-family="MS Shell Dlg 2" font-size="10.3125" font-weight="400" font-style="normal" 
>
</g>

<g fill="#ffff00" fill-opacity="0.2" stroke="#333333" stroke-opacity="1" stroke-width="1" stroke-linecap="round" stroke-linejoin="round" transform="matrix(0.995083,0,0,-0.995083,9205.79,2735.11)"
font-family="MS Shell Dlg 2" font-size="10.3125" font-weight="400" font-style="normal" 
>
<path vector-effect="non-scaling-stroke" fill-rule="evenodd" d="M-9250.78,2562.29 L-9250.78,2747.21 L-8632.78,2747.21 L-8632.78,2562.29 L-8640.78,2562.29 L-8640.78,2681.1 L-8640.8,2681.29 L-8640.81,2681.34 L-8640.96,2681.7 L-8640.98,2681.73 L-8641.26,2682.01 L-8641.29,2682.03 L-8641.65,2682.18 L-8641.7,2682.19 L-8641.89,2682.21 L-9241.67,2682.21 L-9241.87,2682.19 L-9241.92,2682.18 L-9242.28,2682.03 L-9242.31,2682.01 L-9242.58,2681.73 L-9242.61,2681.7 L-9242.75,2681.34 L-9242.76,2681.29 L-9242.78,2681.1 L-9242.78,2562.29 L-9250.78,2562.29"/>
</g>

<g fill="none" stroke="#000000" stroke-opacity="1" stroke-width="1" stroke-linecap="square" stroke-linejoin="bevel" transform="matrix(0.995083,0,0,-0.995083,9205.79,2735.11)"
font-family="MS Shell Dlg 2" font-size="10.3125" font-weight="400" font-style="normal" 
>
</g>

<g fill="none" stroke="#000000" stroke-opacity="1" stroke-width="1" stroke-linecap="square" stroke-linejoin="bevel" transform="matrix(0.995083,0,0,-0.995083,9205.79,2735.11)"
font-family="MS Shell Dlg 2" font-size="10.3125" font-weight="400" font-style="normal" 
>
</g>

<g fill="#ae5151" fill-opacity="0.2" stroke="#333333" stroke-opacity="1" stroke-width="1" stroke-linecap="round" stroke-linejoin="round" transform="matrix(0.995083,0,0,-0.995083,9205.79,2735.11)"
font-family="MS Shell Dlg 2" font-size="10.3125" font-weight="400" font-style="normal" 
>
<path vector-effect="non-scaling-stroke" fill-rule="evenodd" d="M-9250.78,2562.29 L-9250.78,2747.21 L-8632.78,2747.21 L-8632.78,2562.29 L-8640.78,2562.29 L-8640.78,2681.1 L-8640.8,2681.29 L-8640.81,2681.34 L-8640.96,2681.7 L-8640.98,2681.73 L-8641.26,2682.01 L-8641.29,2682.03 L-8641.65,2682.18 L-8641.7,2682.19 L-8641.89,2682.21 L-9241.67,2682.21 L-9241.87,2682.19 L-9241.92,2682.18 L-9242.28,2682.03 L-9242.31,2682.01 L-9242.58,2681.73 L-9242.61,2681.7 L-9242.75,2681.34 L-9242.76,2681.29 L-9242.78,2681.1 L-9242.78,2562.29 L-9250.78,2562.29"/>
</g>

<g fill="none" stroke="#000000" stroke-opacity="1" stroke-width="1" stroke-linecap="square" stroke-linejoin="bevel" transform="matrix(0.995083,0,0,-0.995083,9205.79,2735.11)"
font-family="MS Shell Dlg 2" font-size="10.3125" font-weight="400" font-style="normal" 
>
</g>

<g fill="none" stroke="#000000" stroke-opacity="1" stroke-width="1" stroke-linecap="square" stroke-linejoin="bevel" transform="matrix(0.995083,0,0,-0.995083,9205.79,2735.11)"
font-family="MS Shell Dlg 2" font-size="10.3125" font-weight="400" font-style="normal" 
>
</g>

<g fill="#333333" fill-opacity="0.2" stroke="#333333" stroke-opacity="1" stroke-width="1" stroke-linecap="round" stroke-linejoin="round" transform="matrix(0.995083,0,0,-0.995083,9205.79,2735.11)"
font-family="MS Shell Dlg 2" font-size="10.3125" font-weight="400" font-style="normal" 
>
<path vector-effect="non-scaling-stroke" fill-rule="evenodd" d="M-9250.78,2562.29 L-9250.78,2747.21 L-8632.78,2747.21 L-8632.78,2562.29 L-8640.78,2562.29 L-8640.78,2681.1 L-8640.8,2681.29 L-8640.81,2681.34 L-8640.96,2681.7 L-8640.98,2681.73 L-8641.26,2682.01 L-8641.29,2682.03 L-8641.65,2682.18 L-8641.7,2682.19 L-8641.89,2682.21 L-9241.67,2682.21 L-9241.87,2682.19 L-9241.92,2682.18 L-9242.28,2682.03 L-9242.31,2682.01 L-9242.58,2681.73 L-9242.61,2681.7 L-9242.75,2681.34 L-9242.76,2681.29 L-9242.78,2681.1 L-9242.78,2562.29 L-9250.78,2562.29"/>
</g>

<g fill="none" stroke="#000000" stroke-opacity="1" stroke-width="1" stroke-linecap="square" stroke-linejoin="bevel" transform="matrix(0.995083,0,0,-0.995083,9205.79,2735.11)"
font-family="MS Shell Dlg 2" font-size="10.3125" font-weight="400" font-style="normal" 
>
</g>

<g fill="none" stroke="#000000" stroke-opacity="1" stroke-width="1" stroke-linecap="square" stroke-linejoin="bevel" transform="matrix(1,0,0,-1,0,185.914)"
font-family="MS Shell Dlg 2" font-size="10.3125" font-weight="400" font-style="normal" 
>
</g>
</g>
</svg>
