<?xml version="1.0" encoding="UTF-8" standalone="no"?>
<svg width="140.264mm" height="71.6844mm"
 xmlns="http://www.w3.org/2000/svg" xmlns:xlink="http://www.w3.org/1999/xlink"  version="1.2" baseProfile="tiny">
<title>SVG Generator Example Drawing</title>
<desc>An SVG drawing created by the SVG Generator</desc>
<defs>
</defs>
<g fill="none" stroke="black" stroke-width="1" fill-rule="evenodd" stroke-linecap="square" stroke-linejoin="bevel" >

<g fill="none" stroke="#000000" stroke-opacity="1" stroke-width="1" stroke-linecap="square" stroke-linejoin="bevel" transform="matrix(1,0,0,-1,0,254.99)"
font-family="MS Shell Dlg 2" font-size="10.3125" font-weight="400" font-style="normal" 
>
</g>

<g fill="none" stroke="#000000" stroke-opacity="1" stroke-width="1" stroke-linecap="square" stroke-linejoin="bevel" transform="matrix(1,0,0,-1,0,254.99)"
font-family="MS Shell Dlg 2" font-size="10.3125" font-weight="400" font-style="normal" 
>
</g>

<g fill="none" stroke="#000000" stroke-opacity="1" stroke-width="1" stroke-linecap="square" stroke-linejoin="bevel" transform="matrix(0.996117,0,0,-0.996117,8108.68,2112.47)"
font-family="MS Shell Dlg 2" font-size="10.3125" font-weight="400" font-style="normal" 
>
</g>

<g fill="#ae5151" fill-opacity="0.2" stroke="#333333" stroke-opacity="1" stroke-width="1" stroke-linecap="round" stroke-linejoin="round" transform="matrix(0.996117,0,0,-0.996117,8108.68,2112.47)"
font-family="MS Shell Dlg 2" font-size="10.3125" font-weight="400" font-style="normal" 
>
<path vector-effect="non-scaling-stroke" fill-rule="evenodd" d="M-8139.78,2080.91 L-8136.02,2099.85 L-8125.4,2115.73 L-8121.2,2118.54 L-8121.12,2118.6 L-8121.09,2118.62 L-8121.01,2118.69 L-8120.75,2118.96 L-8120.62,2119.13 L-8120.59,2119.18 L-8120.58,2119.21 L-8092.78,2119.21 L-8092.78,2082.22 L-8092.76,2082.02 L-8092.75,2081.98 L-8092.61,2081.62 L-8092.58,2081.58 L-8092.31,2081.31 L-8092.28,2081.29 L-8091.92,2081.14 L-8091.87,2081.13 L-8091.67,2081.11 L-7890.5,2081.11 L-7890.5,1983.31 L-7890.47,1983.08 L-7890.46,1983.03 L-7890.3,1982.69 L-7890.28,1982.66 L-7890,1982.4 L-7889.97,1982.38 L-7889.62,1982.24 L-7889.58,1982.23 L-7889.39,1982.21 L-7691.89,1982.21 L-7691.7,1982.23 L-7691.66,1982.24 L-7691.31,1982.38 L-7691.27,1982.4 L-7691,1982.66 L-7690.98,1982.69 L-7690.82,1983.03 L-7690.81,1983.08 L-7690.78,1983.31 L-7690.78,2030.78 L-7674,2027.42 L-7658.14,2016.81 L-7647.54,2000.93 L-7643.78,1982.01 L-7643.78,1865.42 L-7643.82,1865.22 L-7893.07,1865.22 L-7893.07,1963.1 L-7893.1,1963.34 L-7893.11,1963.38 L-7893.27,1963.73 L-7893.29,1963.76 L-7893.56,1964.02 L-7893.59,1964.04 L-7893.95,1964.18 L-7893.99,1964.19 L-7894.18,1964.21 L-8091.67,1964.21 L-8091.86,1964.19 L-8091.91,1964.18 L-8092.26,1964.04 L-8092.29,1964.02 L-8092.57,1963.76 L-8092.59,1963.73 L-8092.75,1963.38 L-8092.76,1963.34 L-8092.78,1963.1 L-8092.78,1915.64 L-8109.56,1918.99 L-8125.43,1929.61 L-8136.02,1945.49 L-8139.78,1964.41 L-8139.78,2080.91"/>
</g>

<g fill="none" stroke="#000000" stroke-opacity="1" stroke-width="1" stroke-linecap="square" stroke-linejoin="bevel" transform="matrix(0.996117,0,0,-0.996117,8108.68,2112.47)"
font-family="MS Shell Dlg 2" font-size="10.3125" font-weight="400" font-style="normal" 
>
</g>

<g fill="none" stroke="#000000" stroke-opacity="1" stroke-width="1" stroke-linecap="square" stroke-linejoin="bevel" transform="matrix(0.996117,0,0,-0.996117,8108.68,2112.47)"
font-family="MS Shell Dlg 2" font-size="10.3125" font-weight="400" font-style="normal" 
>
</g>

<g fill="#333333" fill-opacity="0.2" stroke="#333333" stroke-opacity="1" stroke-width="1" stroke-linecap="round" stroke-linejoin="round" transform="matrix(0.996117,0,0,-0.996117,8108.68,2112.47)"
font-family="MS Shell Dlg 2" font-size="10.3125" font-weight="400" font-style="normal" 
>
<path vector-effect="non-scaling-stroke" fill-rule="evenodd" d="M-8139.78,2080.91 L-8136.02,2099.85 L-8125.4,2115.73 L-8121.2,2118.54 L-8121.12,2118.6 L-8121.09,2118.62 L-8121.01,2118.69 L-8120.75,2118.96 L-8120.62,2119.13 L-8120.59,2119.18 L-8120.58,2119.21 L-8092.78,2119.21 L-8092.78,2082.22 L-8092.76,2082.02 L-8092.75,2081.98 L-8092.61,2081.62 L-8092.58,2081.58 L-8092.31,2081.31 L-8092.28,2081.29 L-8091.92,2081.14 L-8091.87,2081.13 L-8091.67,2081.11 L-7890.5,2081.11 L-7890.5,1983.31 L-7890.47,1983.08 L-7890.46,1983.03 L-7890.3,1982.69 L-7890.28,1982.66 L-7890,1982.4 L-7889.97,1982.38 L-7889.62,1982.24 L-7889.58,1982.23 L-7889.39,1982.21 L-7691.89,1982.21 L-7691.7,1982.23 L-7691.66,1982.24 L-7691.31,1982.38 L-7691.27,1982.4 L-7691,1982.66 L-7690.98,1982.69 L-7690.82,1983.03 L-7690.81,1983.08 L-7690.78,1983.31 L-7690.78,2030.78 L-7674,2027.42 L-7658.14,2016.81 L-7647.54,2000.93 L-7643.78,1982.01 L-7643.78,1865.42 L-7643.82,1865.22 L-7893.07,1865.22 L-7893.07,1963.1 L-7893.1,1963.34 L-7893.11,1963.38 L-7893.27,1963.73 L-7893.29,1963.76 L-7893.56,1964.02 L-7893.59,1964.04 L-7893.95,1964.18 L-7893.99,1964.19 L-7894.18,1964.21 L-8091.67,1964.21 L-8091.86,1964.19 L-8091.91,1964.18 L-8092.26,1964.04 L-8092.29,1964.02 L-8092.57,1963.76 L-8092.59,1963.73 L-8092.75,1963.38 L-8092.76,1963.34 L-8092.78,1963.1 L-8092.78,1915.64 L-8109.56,1918.99 L-8125.43,1929.61 L-8136.02,1945.49 L-8139.78,1964.41 L-8139.78,2080.91"/>
</g>

<g fill="none" stroke="#000000" stroke-opacity="1" stroke-width="1" stroke-linecap="square" stroke-linejoin="bevel" transform="matrix(0.996117,0,0,-0.996117,8108.68,2112.47)"
font-family="MS Shell Dlg 2" font-size="10.3125" font-weight="400" font-style="normal" 
>
</g>

<g fill="none" stroke="#000000" stroke-opacity="1" stroke-width="1" stroke-linecap="square" stroke-linejoin="bevel" transform="matrix(1,0,0,-1,0,254.99)"
font-family="MS Shell Dlg 2" font-size="10.3125" font-weight="400" font-style="normal" 
>
</g>
</g>
</svg>
