<?xml version="1.0" encoding="UTF-8" standalone="no"?>
<svg width="140.264mm" height="88.6178mm"
 xmlns="http://www.w3.org/2000/svg" xmlns:xlink="http://www.w3.org/1999/xlink"  version="1.2" baseProfile="tiny">
<title>SVG Generator Example Drawing</title>
<desc>An SVG drawing created by the SVG Generator</desc>
<defs>
</defs>
<g fill="none" stroke="black" stroke-width="1" fill-rule="evenodd" stroke-linecap="square" stroke-linejoin="bevel" >

<g fill="none" stroke="#000000" stroke-opacity="1" stroke-width="1" stroke-linecap="square" stroke-linejoin="bevel" transform="matrix(1,0,0,-1,0,314.016)"
font-family="MS Shell Dlg 2" font-size="10.3125" font-weight="400" font-style="normal" 
>
</g>

<g fill="none" stroke="#000000" stroke-opacity="1" stroke-width="1" stroke-linecap="square" stroke-linejoin="bevel" transform="matrix(1,0,0,-1,0,314.016)"
font-family="MS Shell Dlg 2" font-size="10.3125" font-weight="400" font-style="normal" 
>
</g>

<g fill="none" stroke="#000000" stroke-opacity="1" stroke-width="1" stroke-linecap="square" stroke-linejoin="bevel" transform="matrix(0.999949,0,0,-0.999949,8139.87,2130.08)"
font-family="MS Shell Dlg 2" font-size="10.3125" font-weight="400" font-style="normal" 
>
</g>

<g fill="#333333" fill-opacity="0.2" stroke="#333333" stroke-opacity="1" stroke-width="1" stroke-linecap="round" stroke-linejoin="round" transform="matrix(0.999949,0,0,-0.999949,8139.87,2130.08)"
font-family="MS Shell Dlg 2" font-size="10.3125" font-weight="400" font-style="normal" 
>
<path vector-effect="non-scaling-stroke" fill-rule="evenodd" d="M-8139.78,1982.01 L-8136.02,2000.95 L-8125.4,2016.83 L-8109.52,2027.44 L-8092.78,2030.77 L-8092.78,1983.31 L-8092.76,1983.08 L-8092.75,1983.03 L-8092.59,1982.69 L-8092.57,1982.66 L-8092.29,1982.4 L-8092.26,1982.38 L-8091.91,1982.24 L-8091.86,1982.23 L-8091.67,1982.21 L-7894.18,1982.21 L-7893.99,1982.23 L-7893.95,1982.24 L-7893.59,1982.38 L-7893.56,1982.4 L-7893.29,1982.66 L-7893.27,1982.69 L-7893.11,1983.03 L-7893.1,1983.08 L-7893.07,1983.31 L-7893.07,2081.11 L-7691.89,2081.11 L-7691.7,2081.13 L-7691.65,2081.14 L-7691.29,2081.29 L-7691.26,2081.31 L-7690.98,2081.58 L-7690.96,2081.62 L-7690.81,2081.98 L-7690.8,2082.02 L-7690.78,2082.22 L-7690.78,2129.67 L-7674.05,2126.34 L-7658.16,2115.73 L-7647.55,2099.85 L-7643.78,2080.91 L-7643.78,1983.31 L-7643.78,1964.41 L-7647.55,1945.47 L-7658.16,1929.59 L-7674.05,1918.97 L-7690.78,1915.65 L-7690.78,1963.1 L-7690.81,1963.34 L-7690.82,1963.38 L-7690.98,1963.73 L-7691,1963.76 L-7691.27,1964.02 L-7691.31,1964.04 L-7691.66,1964.18 L-7691.7,1964.19 L-7691.89,1964.21 L-7889.39,1964.21 L-7889.58,1964.19 L-7889.62,1964.18 L-7889.97,1964.04 L-7890,1964.02 L-7890.28,1963.76 L-7890.3,1963.73 L-7890.46,1963.38 L-7890.47,1963.34 L-7890.5,1963.1 L-7890.5,1865.22 L-8091.67,1865.22 L-8091.87,1865.2 L-8091.92,1865.19 L-8092.28,1865.04 L-8092.31,1865.02 L-8092.58,1864.74 L-8092.61,1864.71 L-8092.75,1864.35 L-8092.76,1864.3 L-8092.78,1864.11 L-8092.78,1816.66 L-8109.52,1819.98 L-8125.4,1830.6 L-8136.02,1846.48 L-8139.78,1865.42 L-8139.78,1963.11 L-8139.78,1982.01"/>
</g>

<g fill="none" stroke="#000000" stroke-opacity="1" stroke-width="1" stroke-linecap="square" stroke-linejoin="bevel" transform="matrix(0.999949,0,0,-0.999949,8139.87,2130.08)"
font-family="MS Shell Dlg 2" font-size="10.3125" font-weight="400" font-style="normal" 
>
</g>

<g fill="none" stroke="#000000" stroke-opacity="1" stroke-width="1" stroke-linecap="square" stroke-linejoin="bevel" transform="matrix(0.999949,0,0,-0.999949,8139.87,2130.08)"
font-family="MS Shell Dlg 2" font-size="10.3125" font-weight="400" font-style="normal" 
>
</g>

<g fill="#ae5151" fill-opacity="0.2" stroke="#333333" stroke-opacity="1" stroke-width="1" stroke-linecap="round" stroke-linejoin="round" transform="matrix(0.999949,0,0,-0.999949,8139.87,2130.08)"
font-family="MS Shell Dlg 2" font-size="10.3125" font-weight="400" font-style="normal" 
>
<path vector-effect="non-scaling-stroke" fill-rule="evenodd" d="M-8139.78,1982.01 L-8136.02,2000.95 L-8125.4,2016.83 L-8109.52,2027.44 L-8092.78,2030.77 L-8092.78,1983.31 L-8092.76,1983.08 L-8092.75,1983.03 L-8092.59,1982.69 L-8092.57,1982.66 L-8092.29,1982.4 L-8092.26,1982.38 L-8091.91,1982.24 L-8091.86,1982.23 L-8091.67,1982.21 L-7894.18,1982.21 L-7893.99,1982.23 L-7893.95,1982.24 L-7893.59,1982.38 L-7893.56,1982.4 L-7893.29,1982.66 L-7893.27,1982.69 L-7893.11,1983.03 L-7893.1,1983.08 L-7893.07,1983.31 L-7893.07,2081.11 L-7691.89,2081.11 L-7691.7,2081.13 L-7691.65,2081.14 L-7691.29,2081.29 L-7691.26,2081.31 L-7690.98,2081.58 L-7690.96,2081.62 L-7690.81,2081.98 L-7690.8,2082.02 L-7690.78,2082.22 L-7690.78,2129.67 L-7674.05,2126.34 L-7658.16,2115.73 L-7647.55,2099.85 L-7643.78,2080.91 L-7643.78,1983.31 L-7643.78,1964.41 L-7647.55,1945.47 L-7658.16,1929.59 L-7674.05,1918.97 L-7690.78,1915.65 L-7690.78,1963.1 L-7690.81,1963.34 L-7690.82,1963.38 L-7690.98,1963.73 L-7691,1963.76 L-7691.27,1964.02 L-7691.31,1964.04 L-7691.66,1964.18 L-7691.7,1964.19 L-7691.89,1964.21 L-7889.39,1964.21 L-7889.58,1964.19 L-7889.62,1964.18 L-7889.97,1964.04 L-7890,1964.02 L-7890.28,1963.76 L-7890.3,1963.73 L-7890.46,1963.38 L-7890.47,1963.34 L-7890.5,1963.1 L-7890.5,1865.22 L-8091.67,1865.22 L-8091.87,1865.2 L-8091.92,1865.19 L-8092.28,1865.04 L-8092.31,1865.02 L-8092.58,1864.74 L-8092.61,1864.71 L-8092.75,1864.35 L-8092.76,1864.3 L-8092.78,1864.11 L-8092.78,1816.66 L-8109.52,1819.98 L-8125.4,1830.6 L-8136.02,1846.48 L-8139.78,1865.42 L-8139.78,1963.11 L-8139.78,1982.01"/>
</g>

<g fill="none" stroke="#000000" stroke-opacity="1" stroke-width="1" stroke-linecap="square" stroke-linejoin="bevel" transform="matrix(0.999949,0,0,-0.999949,8139.87,2130.08)"
font-family="MS Shell Dlg 2" font-size="10.3125" font-weight="400" font-style="normal" 
>
</g>

<g fill="none" stroke="#000000" stroke-opacity="1" stroke-width="1" stroke-linecap="square" stroke-linejoin="bevel" transform="matrix(1,0,0,-1,0,314.016)"
font-family="MS Shell Dlg 2" font-size="10.3125" font-weight="400" font-style="normal" 
>
</g>
</g>
</svg>
