<?xml version="1.0" encoding="UTF-8" standalone="no"?>
<svg width="166.793mm" height="240.736mm"
 xmlns="http://www.w3.org/2000/svg" xmlns:xlink="http://www.w3.org/1999/xlink"  version="1.2" baseProfile="tiny">
<title>SVG Generator Example Drawing</title>
<desc>An SVG drawing created by the SVG Generator</desc>
<defs>
</defs>
<g fill="none" stroke="black" stroke-width="1" fill-rule="evenodd" stroke-linecap="square" stroke-linejoin="bevel" >

<g fill="none" stroke="#000000" stroke-opacity="1" stroke-width="1" stroke-linecap="square" stroke-linejoin="bevel" transform="matrix(1,0,0,-1,0,853.806)"
font-family="MS Shell Dlg 2" font-size="10.3125" font-weight="400" font-style="normal" 
>
</g>

<g fill="none" stroke="#000000" stroke-opacity="1" stroke-width="1" stroke-linecap="square" stroke-linejoin="bevel" transform="matrix(1,0,0,-1,0,853.806)"
font-family="MS Shell Dlg 2" font-size="10.3125" font-weight="400" font-style="normal" 
>
</g>

<g fill="none" stroke="#000000" stroke-opacity="1" stroke-width="1" stroke-linecap="square" stroke-linejoin="bevel" transform="matrix(0.998516,0,0,-0.998516,6643.91,4897.54)"
font-family="MS Shell Dlg 2" font-size="10.3125" font-weight="400" font-style="normal" 
>
</g>

<g fill="#333333" fill-opacity="0.2" stroke="#333333" stroke-opacity="1" stroke-width="1" stroke-linecap="round" stroke-linejoin="round" transform="matrix(0.998516,0,0,-0.998516,6643.91,4897.54)"
font-family="MS Shell Dlg 2" font-size="10.3125" font-weight="400" font-style="normal" 
>
<path vector-effect="non-scaling-stroke" fill-rule="evenodd" d="M-6653.29,4050.24 L-6645.47,4087.11 L-6623.92,4118.74 L-6591.99,4139.83 L-6554.34,4147.24 L-6160.52,4147.24 L-6160.33,4147.26 L-6160.28,4147.27 L-6159.92,4147.42 L-6159.89,4147.44 L-6159.61,4147.72 L-6159.59,4147.75 L-6159.44,4148.11 L-6159.43,4148.16 L-6159.41,4148.35 L-6159.41,4804.38 L-6152.7,4840.27 L-6133.51,4871.21 L-6104.44,4893.13 L-6069.4,4903.05 L-6062.41,4902.39 L-6062.41,4050.24 L-6653.29,4050.24"/>
</g>

<g fill="none" stroke="#000000" stroke-opacity="1" stroke-width="1" stroke-linecap="square" stroke-linejoin="bevel" transform="matrix(0.998516,0,0,-0.998516,6643.91,4897.54)"
font-family="MS Shell Dlg 2" font-size="10.3125" font-weight="400" font-style="normal" 
>
</g>

<g fill="none" stroke="#000000" stroke-opacity="1" stroke-width="1" stroke-linecap="square" stroke-linejoin="bevel" transform="matrix(0.998516,0,0,-0.998516,6643.91,4897.54)"
font-family="MS Shell Dlg 2" font-size="10.3125" font-weight="400" font-style="normal" 
>
</g>

<g fill="#ae5151" fill-opacity="0.2" stroke="#333333" stroke-opacity="1" stroke-width="1" stroke-linecap="round" stroke-linejoin="round" transform="matrix(0.998516,0,0,-0.998516,6643.91,4897.54)"
font-family="MS Shell Dlg 2" font-size="10.3125" font-weight="400" font-style="normal" 
>
<path vector-effect="non-scaling-stroke" fill-rule="evenodd" d="M-6653.29,4050.24 L-6645.47,4087.11 L-6623.92,4118.74 L-6591.99,4139.83 L-6554.34,4147.24 L-6160.52,4147.24 L-6160.33,4147.26 L-6160.28,4147.27 L-6159.92,4147.42 L-6159.89,4147.44 L-6159.61,4147.72 L-6159.59,4147.75 L-6159.44,4148.11 L-6159.43,4148.16 L-6159.41,4148.35 L-6159.41,4804.38 L-6152.7,4840.27 L-6133.51,4871.21 L-6104.44,4893.13 L-6069.4,4903.05 L-6062.41,4902.39 L-6062.41,4050.24 L-6653.29,4050.24"/>
</g>

<g fill="none" stroke="#000000" stroke-opacity="1" stroke-width="1" stroke-linecap="square" stroke-linejoin="bevel" transform="matrix(0.998516,0,0,-0.998516,6643.91,4897.54)"
font-family="MS Shell Dlg 2" font-size="10.3125" font-weight="400" font-style="normal" 
>
</g>

<g fill="none" stroke="#000000" stroke-opacity="1" stroke-width="1" stroke-linecap="square" stroke-linejoin="bevel" transform="matrix(0.998516,0,0,-0.998516,6643.91,4897.54)"
font-family="MS Shell Dlg 2" font-size="10.3125" font-weight="400" font-style="normal" 
>
</g>

<g fill="#ffff00" fill-opacity="0.2" stroke="#333333" stroke-opacity="1" stroke-width="1" stroke-linecap="round" stroke-linejoin="round" transform="matrix(0.998516,0,0,-0.998516,6643.91,4897.54)"
font-family="MS Shell Dlg 2" font-size="10.3125" font-weight="400" font-style="normal" 
>
<path vector-effect="non-scaling-stroke" fill-rule="evenodd" d="M-6653.29,4050.24 L-6645.47,4087.11 L-6623.92,4118.74 L-6591.99,4139.83 L-6554.34,4147.24 L-6160.52,4147.24 L-6160.33,4147.26 L-6160.28,4147.27 L-6159.92,4147.42 L-6159.89,4147.44 L-6159.61,4147.72 L-6159.59,4147.75 L-6159.44,4148.11 L-6159.43,4148.16 L-6159.41,4148.35 L-6159.41,4804.38 L-6152.7,4840.27 L-6133.51,4871.21 L-6104.44,4893.13 L-6069.4,4903.05 L-6062.41,4902.39 L-6062.41,4050.24 L-6653.29,4050.24"/>
</g>

<g fill="none" stroke="#000000" stroke-opacity="1" stroke-width="1" stroke-linecap="square" stroke-linejoin="bevel" transform="matrix(0.998516,0,0,-0.998516,6643.91,4897.54)"
font-family="MS Shell Dlg 2" font-size="10.3125" font-weight="400" font-style="normal" 
>
</g>

<g fill="none" stroke="#000000" stroke-opacity="1" stroke-width="1" stroke-linecap="square" stroke-linejoin="bevel" transform="matrix(0.998516,0,0,-0.998516,6643.91,4897.54)"
font-family="MS Shell Dlg 2" font-size="10.3125" font-weight="400" font-style="normal" 
>
</g>

<g fill="#ae5151" fill-opacity="0.2" stroke="#333333" stroke-opacity="1" stroke-width="1" stroke-linecap="round" stroke-linejoin="round" transform="matrix(0.998516,0,0,-0.998516,6643.91,4897.54)"
font-family="MS Shell Dlg 2" font-size="10.3125" font-weight="400" font-style="normal" 
>
<path vector-effect="non-scaling-stroke" fill-rule="evenodd" d="M-6653.29,4050.24 L-6645.47,4087.11 L-6623.92,4118.74 L-6591.99,4139.83 L-6554.34,4147.24 L-6160.52,4147.24 L-6160.33,4147.26 L-6160.28,4147.27 L-6159.92,4147.42 L-6159.89,4147.44 L-6159.61,4147.72 L-6159.59,4147.75 L-6159.44,4148.11 L-6159.43,4148.16 L-6159.41,4148.35 L-6159.41,4804.38 L-6152.7,4840.27 L-6133.51,4871.21 L-6104.44,4893.13 L-6069.4,4903.05 L-6062.41,4902.39 L-6062.41,4050.24 L-6653.29,4050.24"/>
</g>

<g fill="none" stroke="#000000" stroke-opacity="1" stroke-width="1" stroke-linecap="square" stroke-linejoin="bevel" transform="matrix(0.998516,0,0,-0.998516,6643.91,4897.54)"
font-family="MS Shell Dlg 2" font-size="10.3125" font-weight="400" font-style="normal" 
>
</g>

<g fill="none" stroke="#000000" stroke-opacity="1" stroke-width="1" stroke-linecap="square" stroke-linejoin="bevel" transform="matrix(0.998516,0,0,-0.998516,6643.91,4897.54)"
font-family="MS Shell Dlg 2" font-size="10.3125" font-weight="400" font-style="normal" 
>
</g>

<g fill="#333333" fill-opacity="0.2" stroke="#333333" stroke-opacity="1" stroke-width="1" stroke-linecap="round" stroke-linejoin="round" transform="matrix(0.998516,0,0,-0.998516,6643.91,4897.54)"
font-family="MS Shell Dlg 2" font-size="10.3125" font-weight="400" font-style="normal" 
>
<path vector-effect="non-scaling-stroke" fill-rule="evenodd" d="M-6653.29,4050.24 L-6645.47,4087.11 L-6623.92,4118.74 L-6591.99,4139.83 L-6554.34,4147.24 L-6160.52,4147.24 L-6160.33,4147.26 L-6160.28,4147.27 L-6159.92,4147.42 L-6159.89,4147.44 L-6159.61,4147.72 L-6159.59,4147.75 L-6159.44,4148.11 L-6159.43,4148.16 L-6159.41,4148.35 L-6159.41,4804.38 L-6152.7,4840.27 L-6133.51,4871.21 L-6104.44,4893.13 L-6069.4,4903.05 L-6062.41,4902.39 L-6062.41,4050.24 L-6653.29,4050.24"/>
</g>

<g fill="none" stroke="#000000" stroke-opacity="1" stroke-width="1" stroke-linecap="square" stroke-linejoin="bevel" transform="matrix(0.998516,0,0,-0.998516,6643.91,4897.54)"
font-family="MS Shell Dlg 2" font-size="10.3125" font-weight="400" font-style="normal" 
>
</g>

<g fill="none" stroke="#000000" stroke-opacity="1" stroke-width="1" stroke-linecap="square" stroke-linejoin="bevel" transform="matrix(1,0,0,-1,0,853.806)"
font-family="MS Shell Dlg 2" font-size="10.3125" font-weight="400" font-style="normal" 
>
</g>
</g>
</svg>
