<?xml version="1.0" encoding="UTF-8" standalone="no"?>
<svg width="285.891mm" height="202.636mm"
 xmlns="http://www.w3.org/2000/svg" xmlns:xlink="http://www.w3.org/1999/xlink"  version="1.2" baseProfile="tiny">
<title>SVG Generator Example Drawing</title>
<desc>An SVG drawing created by the SVG Generator</desc>
<defs>
</defs>
<g fill="none" stroke="black" stroke-width="1" fill-rule="evenodd" stroke-linecap="square" stroke-linejoin="bevel" >

<g fill="none" stroke="#000000" stroke-opacity="1" stroke-width="1" stroke-linecap="square" stroke-linejoin="bevel" transform="matrix(1,0,0,-1,0,718.582)"
font-family="MS Shell Dlg 2" font-size="10.3125" font-weight="400" font-style="normal" 
>
</g>

<g fill="none" stroke="#000000" stroke-opacity="1" stroke-width="1" stroke-linecap="square" stroke-linejoin="bevel" transform="matrix(1,0,0,-1,0,718.582)"
font-family="MS Shell Dlg 2" font-size="10.3125" font-weight="400" font-style="normal" 
>
</g>

<g fill="none" stroke="#000000" stroke-opacity="1" stroke-width="1" stroke-linecap="square" stroke-linejoin="bevel" transform="matrix(0.999172,0,0,-0.999172,5748.65,7782.9)"
font-family="MS Shell Dlg 2" font-size="10.3125" font-weight="400" font-style="normal" 
>
</g>

<g fill="#333333" fill-opacity="0.2" stroke="#333333" stroke-opacity="1" stroke-width="1" stroke-linecap="round" stroke-linejoin="round" transform="matrix(0.999172,0,0,-0.999172,5748.65,7782.9)"
font-family="MS Shell Dlg 2" font-size="10.3125" font-weight="400" font-style="normal" 
>
<path vector-effect="non-scaling-stroke" fill-rule="evenodd" d="M-5752.91,7741.72 L-5749.59,7758.16 L-5738.88,7774.04 L-5722.89,7784.6 L-5703.87,7788.25 L-5137.26,7784.11 L-5118.52,7780.27 L-5102.64,7769.62 L-4754.53,7421.51 L-4743.8,7405.46 L-4740.07,7386.72 L-4743.8,7367.98 L-4754.53,7351.93 L-5035.68,7070.78 L-5035.84,7070.67 L-5706.12,7740.94 L-5706.27,7741.07 L-5706.31,7741.09 L-5706.66,7741.24 L-5706.71,7741.25 L-5706.9,7741.27 L-5752.91,7741.72"/>
</g>

<g fill="none" stroke="#000000" stroke-opacity="1" stroke-width="1" stroke-linecap="square" stroke-linejoin="bevel" transform="matrix(0.999172,0,0,-0.999172,5748.65,7782.9)"
font-family="MS Shell Dlg 2" font-size="10.3125" font-weight="400" font-style="normal" 
>
</g>

<g fill="none" stroke="#000000" stroke-opacity="1" stroke-width="1" stroke-linecap="square" stroke-linejoin="bevel" transform="matrix(0.999172,0,0,-0.999172,5748.65,7782.9)"
font-family="MS Shell Dlg 2" font-size="10.3125" font-weight="400" font-style="normal" 
>
</g>

<g fill="#ae5151" fill-opacity="0.2" stroke="#333333" stroke-opacity="1" stroke-width="1" stroke-linecap="round" stroke-linejoin="round" transform="matrix(0.999172,0,0,-0.999172,5748.65,7782.9)"
font-family="MS Shell Dlg 2" font-size="10.3125" font-weight="400" font-style="normal" 
>
<path vector-effect="non-scaling-stroke" fill-rule="evenodd" d="M-5752.91,7741.72 L-5749.59,7758.16 L-5738.88,7774.04 L-5722.89,7784.6 L-5703.87,7788.25 L-5137.26,7784.11 L-5118.52,7780.27 L-5102.64,7769.62 L-4754.53,7421.51 L-4743.8,7405.46 L-4740.07,7386.72 L-4743.8,7367.98 L-4754.53,7351.93 L-5035.68,7070.78 L-5035.84,7070.67 L-5706.12,7740.94 L-5706.27,7741.07 L-5706.31,7741.09 L-5706.66,7741.24 L-5706.71,7741.25 L-5706.9,7741.27 L-5752.91,7741.72"/>
</g>

<g fill="none" stroke="#000000" stroke-opacity="1" stroke-width="1" stroke-linecap="square" stroke-linejoin="bevel" transform="matrix(0.999172,0,0,-0.999172,5748.65,7782.9)"
font-family="MS Shell Dlg 2" font-size="10.3125" font-weight="400" font-style="normal" 
>
</g>

<g fill="none" stroke="#000000" stroke-opacity="1" stroke-width="1" stroke-linecap="square" stroke-linejoin="bevel" transform="matrix(0.999172,0,0,-0.999172,5748.65,7782.9)"
font-family="MS Shell Dlg 2" font-size="10.3125" font-weight="400" font-style="normal" 
>
</g>

<g fill="#ffff00" fill-opacity="0.2" stroke="#333333" stroke-opacity="1" stroke-width="1" stroke-linecap="round" stroke-linejoin="round" transform="matrix(0.999172,0,0,-0.999172,5748.65,7782.9)"
font-family="MS Shell Dlg 2" font-size="10.3125" font-weight="400" font-style="normal" 
>
<path vector-effect="non-scaling-stroke" fill-rule="evenodd" d="M-5752.91,7741.72 L-5749.59,7758.16 L-5738.88,7774.04 L-5722.89,7784.6 L-5703.87,7788.25 L-5137.26,7784.11 L-5118.52,7780.27 L-5102.64,7769.62 L-4754.53,7421.51 L-4743.8,7405.46 L-4740.07,7386.72 L-4743.8,7367.98 L-4754.53,7351.93 L-5035.68,7070.78 L-5035.84,7070.67 L-5706.12,7740.94 L-5706.27,7741.07 L-5706.31,7741.09 L-5706.66,7741.24 L-5706.71,7741.25 L-5706.9,7741.27 L-5752.91,7741.72"/>
</g>

<g fill="none" stroke="#000000" stroke-opacity="1" stroke-width="1" stroke-linecap="square" stroke-linejoin="bevel" transform="matrix(0.999172,0,0,-0.999172,5748.65,7782.9)"
font-family="MS Shell Dlg 2" font-size="10.3125" font-weight="400" font-style="normal" 
>
</g>

<g fill="none" stroke="#000000" stroke-opacity="1" stroke-width="1" stroke-linecap="square" stroke-linejoin="bevel" transform="matrix(0.999172,0,0,-0.999172,5748.65,7782.9)"
font-family="MS Shell Dlg 2" font-size="10.3125" font-weight="400" font-style="normal" 
>
</g>

<g fill="#ae5151" fill-opacity="0.2" stroke="#333333" stroke-opacity="1" stroke-width="1" stroke-linecap="round" stroke-linejoin="round" transform="matrix(0.999172,0,0,-0.999172,5748.65,7782.9)"
font-family="MS Shell Dlg 2" font-size="10.3125" font-weight="400" font-style="normal" 
>
<path vector-effect="non-scaling-stroke" fill-rule="evenodd" d="M-5752.91,7741.72 L-5749.59,7758.16 L-5738.88,7774.04 L-5722.89,7784.6 L-5703.87,7788.25 L-5137.26,7784.11 L-5118.52,7780.27 L-5102.64,7769.62 L-4754.53,7421.51 L-4743.8,7405.46 L-4740.07,7386.72 L-4743.8,7367.98 L-4754.53,7351.93 L-5035.68,7070.78 L-5035.84,7070.67 L-5706.12,7740.94 L-5706.27,7741.07 L-5706.31,7741.09 L-5706.66,7741.24 L-5706.71,7741.25 L-5706.9,7741.27 L-5752.91,7741.72"/>
</g>

<g fill="none" stroke="#000000" stroke-opacity="1" stroke-width="1" stroke-linecap="square" stroke-linejoin="bevel" transform="matrix(0.999172,0,0,-0.999172,5748.65,7782.9)"
font-family="MS Shell Dlg 2" font-size="10.3125" font-weight="400" font-style="normal" 
>
</g>

<g fill="none" stroke="#000000" stroke-opacity="1" stroke-width="1" stroke-linecap="square" stroke-linejoin="bevel" transform="matrix(0.999172,0,0,-0.999172,5748.65,7782.9)"
font-family="MS Shell Dlg 2" font-size="10.3125" font-weight="400" font-style="normal" 
>
</g>

<g fill="#333333" fill-opacity="0.2" stroke="#333333" stroke-opacity="1" stroke-width="1" stroke-linecap="round" stroke-linejoin="round" transform="matrix(0.999172,0,0,-0.999172,5748.65,7782.9)"
font-family="MS Shell Dlg 2" font-size="10.3125" font-weight="400" font-style="normal" 
>
<path vector-effect="non-scaling-stroke" fill-rule="evenodd" d="M-5752.91,7741.72 L-5749.59,7758.16 L-5738.88,7774.04 L-5722.89,7784.6 L-5703.87,7788.25 L-5137.26,7784.11 L-5118.52,7780.27 L-5102.64,7769.62 L-4754.53,7421.51 L-4743.8,7405.46 L-4740.07,7386.72 L-4743.8,7367.98 L-4754.53,7351.93 L-5035.68,7070.78 L-5035.84,7070.67 L-5706.12,7740.94 L-5706.27,7741.07 L-5706.31,7741.09 L-5706.66,7741.24 L-5706.71,7741.25 L-5706.9,7741.27 L-5752.91,7741.72"/>
</g>

<g fill="none" stroke="#000000" stroke-opacity="1" stroke-width="1" stroke-linecap="square" stroke-linejoin="bevel" transform="matrix(0.999172,0,0,-0.999172,5748.65,7782.9)"
font-family="MS Shell Dlg 2" font-size="10.3125" font-weight="400" font-style="normal" 
>
</g>

<g fill="none" stroke="#000000" stroke-opacity="1" stroke-width="1" stroke-linecap="square" stroke-linejoin="bevel" transform="matrix(1,0,0,-1,0,718.582)"
font-family="MS Shell Dlg 2" font-size="10.3125" font-weight="400" font-style="normal" 
>
</g>
</g>
</svg>
