<?xml version="1.0" encoding="UTF-8" standalone="no"?>
<svg width="4317.72mm" height="2615.07mm"
 xmlns="http://www.w3.org/2000/svg" xmlns:xlink="http://www.w3.org/1999/xlink"  version="1.2" baseProfile="tiny">
<title>SVG Generator Example Drawing</title>
<desc>An SVG drawing created by the SVG Generator</desc>
<defs>
</defs>
<g fill="none" stroke="black" stroke-width="1" fill-rule="evenodd" stroke-linecap="square" stroke-linejoin="bevel" >

<g fill="none" stroke="#000000" stroke-opacity="1" stroke-width="1" stroke-linecap="square" stroke-linejoin="bevel" transform="matrix(1,0,0,-1,0,9266.53)"
font-family="MS Shell Dlg 2" font-size="10.3125" font-weight="400" font-style="normal" 
>
</g>

<g fill="none" stroke="#000000" stroke-opacity="1" stroke-width="1" stroke-linecap="square" stroke-linejoin="bevel" transform="matrix(1,0,0,-1,0,9266.53)"
font-family="MS Shell Dlg 2" font-size="10.3125" font-weight="400" font-style="normal" 
>
</g>

<g fill="none" stroke="#000000" stroke-opacity="1" stroke-width="1" stroke-linecap="square" stroke-linejoin="bevel" transform="matrix(0.999943,0,0,-0.999943,515.836,4664.17)"
font-family="MS Shell Dlg 2" font-size="10.3125" font-weight="400" font-style="normal" 
>
</g>

<g fill="#333333" fill-opacity="0.2" stroke="#333333" stroke-opacity="1" stroke-width="1" stroke-linecap="round" stroke-linejoin="round" transform="matrix(0.999943,0,0,-0.999943,515.836,4664.17)"
font-family="MS Shell Dlg 2" font-size="10.3125" font-weight="400" font-style="normal" 
>
<path vector-effect="non-scaling-stroke" fill-rule="evenodd" d="M-515.365,-4509.12 L-352.194,4628.47 L14783.4,4663.41 L14783.4,-4602.12 L-515.365,-4509.12 M6381.29,-956.547 L6381.29,-956.645 L6381.22,-1456.62 L6381.23,-1456.71 L6381.23,-1456.74 L6381.24,-1456.84 L6381.31,-1457.18 L6381.37,-1457.37 L6381.39,-1457.42 L6381.48,-1457.59 L6381.67,-1457.87 L6381.79,-1458.02 L6381.83,-1458.06 L6381.98,-1458.19 L6382.26,-1458.37 L6382.43,-1458.46 L6382.49,-1458.48 L6382.67,-1458.54 L6383.01,-1458.61 L6383.11,-1458.62 L6383.14,-1458.63 L6383.24,-1458.63 L8483.2,-1458.63 L8483.3,-1458.63 L8483.33,-1458.62 L8483.43,-1458.61 L8483.77,-1458.54 L8483.95,-1458.48 L8484.01,-1458.46 L8484.18,-1458.37 L8484.45,-1458.19 L8484.61,-1458.06 L8484.65,-1458.02 L8484.77,-1457.87 L8484.96,-1457.59 L8485.05,-1457.42 L8485.07,-1457.37 L8485.13,-1457.18 L8485.19,-1456.84 L8485.21,-1456.74 L8485.21,-1456.71 L8485.22,-1456.62 L8485.22,-956.645 L8485.21,-956.547 L8485.21,-956.518 L8485.19,-956.421 L8485.13,-956.082 L8485.07,-955.894 L8485.05,-955.841 L8484.96,-955.668 L8484.77,-955.393 L8484.65,-955.241 L8484.61,-955.2 L8484.45,-955.076 L8484.18,-954.892 L8484.01,-954.799 L8483.95,-954.777 L8483.77,-954.72 L8483.43,-954.653 L8483.33,-954.638 L8483.3,-954.635 L8483.2,-954.631 L7934.15,-954.631 L7914.14,-950.404 L7897.72,-938.572 L7887.39,-920.928 L7868.18,-863.306 L7865.72,-844.853 L7870.21,-826.985 L7880.98,-812.04 L7884.28,-809.933 L7884.35,-809.885 L7884.37,-809.87 L7884.43,-809.816 L7884.65,-809.618 L7884.77,-809.496 L7884.8,-809.457 L7884.89,-809.318 L7885.03,-809.071 L7885.09,-808.918 L7885.11,-808.871 L7885.15,-808.709 L7885.2,-808.418 L7885.21,-808.335 L7885.21,-808.31 L7885.22,-808.227 L7885.22,-756.645 L7885.21,-756.547 L7885.21,-756.518 L7885.19,-756.421 L7885.13,-756.082 L7885.07,-755.894 L7885.05,-755.841 L7884.96,-755.668 L7884.77,-755.393 L7884.65,-755.241 L7884.61,-755.2 L7884.45,-755.076 L7884.18,-754.892 L7884.01,-754.799 L7883.95,-754.777 L7883.77,-754.72 L7883.43,-754.653 L7883.33,-754.638 L7883.3,-754.635 L7883.2,-754.631 L6983.23,-754.631 L6983.13,-754.635 L6983.1,-754.638 L6983.01,-754.653 L6982.67,-754.72 L6982.48,-754.777 L6982.43,-754.799 L6982.25,-754.892 L6981.98,-755.076 L6981.83,-755.2 L6981.79,-755.241 L6981.66,-755.393 L6981.48,-755.668 L6981.39,-755.841 L6981.36,-755.894 L6981.31,-756.082 L6981.24,-756.421 L6981.22,-756.518 L6981.22,-756.547 L6981.22,-756.645 L6981.22,-808.227 L6981.22,-808.31 L6981.22,-808.335 L6981.23,-808.418 L6981.28,-808.709 L6981.32,-808.871 L6981.34,-808.918 L6981.41,-809.071 L6981.54,-809.318 L6981.64,-809.457 L6981.67,-809.496 L6981.78,-809.618 L6982,-809.816 L6982.06,-809.87 L6982.08,-809.885 L6982.15,-809.933 L6985.46,-812.04 L6996.23,-826.985 L7000.71,-844.853 L6998.25,-863.306 L6979.05,-920.928 L6968.71,-938.572 L6952.29,-950.404 L6932.29,-954.631 L6383.3,-954.631 L6383.2,-954.635 L6383.17,-954.638 L6383.08,-954.653 L6382.74,-954.72 L6382.55,-954.777 L6382.5,-954.799 L6382.32,-954.892 L6382.05,-955.075 L6381.9,-955.2 L6381.86,-955.241 L6381.73,-955.393 L6381.55,-955.668 L6381.46,-955.84 L6381.43,-955.894 L6381.38,-956.082 L6381.31,-956.421 L6381.29,-956.518 L6381.29,-956.547 M381.221,-956.547 L381.217,-956.645 L381.217,-1456.62 L381.221,-1456.71 L381.224,-1456.74 L381.239,-1456.84 L381.306,-1457.18 L381.363,-1457.37 L381.385,-1457.42 L381.478,-1457.59 L381.661,-1457.87 L381.786,-1458.02 L381.827,-1458.06 L381.979,-1458.19 L382.254,-1458.37 L382.426,-1458.46 L382.48,-1458.48 L382.668,-1458.54 L383.007,-1458.61 L383.104,-1458.62 L383.133,-1458.63 L383.231,-1458.63 L2483.2,-1458.63 L2483.3,-1458.63 L2483.33,-1458.62 L2483.43,-1458.61 L2483.77,-1458.54 L2483.95,-1458.48 L2484.01,-1458.46 L2484.18,-1458.37 L2484.45,-1458.19 L2484.61,-1458.06 L2484.65,-1458.02 L2484.77,-1457.87 L2484.96,-1457.59 L2485.05,-1457.42 L2485.07,-1457.37 L2485.13,-1457.18 L2485.19,-1456.84 L2485.21,-1456.74 L2485.21,-1456.71 L2485.22,-1456.62 L2485.22,-956.645 L2485.21,-956.547 L2485.21,-956.518 L2485.19,-956.421 L2485.13,-956.082 L2485.07,-955.894 L2485.05,-955.841 L2484.96,-955.668 L2484.77,-955.393 L2484.65,-955.241 L2484.61,-955.2 L2484.45,-955.076 L2484.18,-954.892 L2484.01,-954.799 L2483.95,-954.777 L2483.77,-954.72 L2483.43,-954.653 L2483.33,-954.638 L2483.3,-954.635 L2483.2,-954.631 L1934.15,-954.631 L1914.14,-950.404 L1897.72,-938.572 L1887.39,-920.928 L1868.18,-863.306 L1865.72,-844.853 L1870.21,-826.985 L1880.98,-812.04 L1884.28,-809.933 L1884.35,-809.885 L1884.37,-809.87 L1884.43,-809.816 L1884.65,-809.618 L1884.77,-809.496 L1884.8,-809.457 L1884.89,-809.318 L1885.03,-809.071 L1885.09,-808.918 L1885.11,-808.871 L1885.15,-808.709 L1885.2,-808.418 L1885.21,-808.335 L1885.21,-808.31 L1885.22,-808.227 L1885.22,-756.645 L1885.21,-756.547 L1885.21,-756.518 L1885.19,-756.421 L1885.13,-756.082 L1885.07,-755.894 L1885.05,-755.841 L1884.96,-755.668 L1884.77,-755.393 L1884.65,-755.241 L1884.61,-755.2 L1884.45,-755.076 L1884.18,-754.892 L1884.01,-754.799 L1883.95,-754.777 L1883.77,-754.72 L1883.43,-754.653 L1883.33,-754.638 L1883.3,-754.635 L1883.2,-754.631 L983.231,-754.631 L983.133,-754.635 L983.104,-754.638 L983.007,-754.653 L982.668,-754.72 L982.48,-754.777 L982.426,-754.799 L982.254,-754.892 L981.979,-755.076 L981.827,-755.2 L981.786,-755.241 L981.661,-755.393 L981.478,-755.668 L981.385,-755.841 L981.363,-755.894 L981.306,-756.082 L981.239,-756.421 L981.224,-756.518 L981.221,-756.547 L981.217,-756.645 L981.217,-808.227 L981.22,-808.31 L981.222,-808.335 L981.233,-808.418 L981.282,-808.709 L981.323,-808.871 L981.339,-808.918 L981.407,-809.071 L981.543,-809.318 L981.635,-809.457 L981.666,-809.496 L981.78,-809.618 L981.999,-809.816 L982.063,-809.87 L982.083,-809.885 L982.152,-809.933 L985.455,-812.04 L996.227,-826.985 L1000.71,-844.853 L998.255,-863.306 L979.047,-920.928 L968.711,-938.572 L952.295,-950.404 L932.287,-954.631 L383.231,-954.631 L383.133,-954.635 L383.104,-954.638 L383.007,-954.653 L382.668,-954.72 L382.48,-954.777 L382.426,-954.799 L382.254,-954.892 L381.979,-955.076 L381.827,-955.2 L381.786,-955.241 L381.661,-955.393 L381.478,-955.668 L381.385,-955.841 L381.363,-955.894 L381.306,-956.082 L381.239,-956.421 L381.224,-956.518 L381.221,-956.547"/>
</g>

<g fill="none" stroke="#000000" stroke-opacity="1" stroke-width="1" stroke-linecap="square" stroke-linejoin="bevel" transform="matrix(0.999943,0,0,-0.999943,515.836,4664.17)"
font-family="MS Shell Dlg 2" font-size="10.3125" font-weight="400" font-style="normal" 
>
</g>

<g fill="none" stroke="#000000" stroke-opacity="1" stroke-width="1" stroke-linecap="square" stroke-linejoin="bevel" transform="matrix(0.999943,0,0,-0.999943,515.836,4664.17)"
font-family="MS Shell Dlg 2" font-size="10.3125" font-weight="400" font-style="normal" 
>
</g>

<g fill="#ae5151" fill-opacity="0.2" stroke="#333333" stroke-opacity="1" stroke-width="1" stroke-linecap="round" stroke-linejoin="round" transform="matrix(0.999943,0,0,-0.999943,515.836,4664.17)"
font-family="MS Shell Dlg 2" font-size="10.3125" font-weight="400" font-style="normal" 
>
<path vector-effect="non-scaling-stroke" fill-rule="evenodd" d="M-515.365,-4509.12 L-352.194,4628.47 L14783.4,4663.41 L14783.4,-4602.12 L-515.365,-4509.12 M6381.29,-956.547 L6381.29,-956.645 L6381.22,-1456.62 L6381.23,-1456.71 L6381.23,-1456.74 L6381.24,-1456.84 L6381.31,-1457.18 L6381.37,-1457.37 L6381.39,-1457.42 L6381.48,-1457.59 L6381.67,-1457.87 L6381.79,-1458.02 L6381.83,-1458.06 L6381.98,-1458.19 L6382.26,-1458.37 L6382.43,-1458.46 L6382.49,-1458.48 L6382.67,-1458.54 L6383.01,-1458.61 L6383.11,-1458.62 L6383.14,-1458.63 L6383.24,-1458.63 L8483.2,-1458.63 L8483.3,-1458.63 L8483.33,-1458.62 L8483.43,-1458.61 L8483.77,-1458.54 L8483.95,-1458.48 L8484.01,-1458.46 L8484.18,-1458.37 L8484.45,-1458.19 L8484.61,-1458.06 L8484.65,-1458.02 L8484.77,-1457.87 L8484.96,-1457.59 L8485.05,-1457.42 L8485.07,-1457.37 L8485.13,-1457.18 L8485.19,-1456.84 L8485.21,-1456.74 L8485.21,-1456.71 L8485.22,-1456.62 L8485.22,-956.645 L8485.21,-956.547 L8485.21,-956.518 L8485.19,-956.421 L8485.13,-956.082 L8485.07,-955.894 L8485.05,-955.841 L8484.96,-955.668 L8484.77,-955.393 L8484.65,-955.241 L8484.61,-955.2 L8484.45,-955.076 L8484.18,-954.892 L8484.01,-954.799 L8483.95,-954.777 L8483.77,-954.72 L8483.43,-954.653 L8483.33,-954.638 L8483.3,-954.635 L8483.2,-954.631 L7934.15,-954.631 L7914.14,-950.404 L7897.72,-938.572 L7887.39,-920.928 L7868.18,-863.306 L7865.72,-844.853 L7870.21,-826.985 L7880.98,-812.04 L7884.28,-809.933 L7884.35,-809.885 L7884.37,-809.87 L7884.43,-809.816 L7884.65,-809.618 L7884.77,-809.496 L7884.8,-809.457 L7884.89,-809.318 L7885.03,-809.071 L7885.09,-808.918 L7885.11,-808.871 L7885.15,-808.709 L7885.2,-808.418 L7885.21,-808.335 L7885.21,-808.31 L7885.22,-808.227 L7885.22,-756.645 L7885.21,-756.547 L7885.21,-756.518 L7885.19,-756.421 L7885.13,-756.082 L7885.07,-755.894 L7885.05,-755.841 L7884.96,-755.668 L7884.77,-755.393 L7884.65,-755.241 L7884.61,-755.2 L7884.45,-755.076 L7884.18,-754.892 L7884.01,-754.799 L7883.95,-754.777 L7883.77,-754.72 L7883.43,-754.653 L7883.33,-754.638 L7883.3,-754.635 L7883.2,-754.631 L6983.23,-754.631 L6983.13,-754.635 L6983.1,-754.638 L6983.01,-754.653 L6982.67,-754.72 L6982.48,-754.777 L6982.43,-754.799 L6982.25,-754.892 L6981.98,-755.076 L6981.83,-755.2 L6981.79,-755.241 L6981.66,-755.393 L6981.48,-755.668 L6981.39,-755.841 L6981.36,-755.894 L6981.31,-756.082 L6981.24,-756.421 L6981.22,-756.518 L6981.22,-756.547 L6981.22,-756.645 L6981.22,-808.227 L6981.22,-808.31 L6981.22,-808.335 L6981.23,-808.418 L6981.28,-808.709 L6981.32,-808.871 L6981.34,-808.918 L6981.41,-809.071 L6981.54,-809.318 L6981.64,-809.457 L6981.67,-809.496 L6981.78,-809.618 L6982,-809.816 L6982.06,-809.87 L6982.08,-809.885 L6982.15,-809.933 L6985.46,-812.04 L6996.23,-826.985 L7000.71,-844.853 L6998.25,-863.306 L6979.05,-920.928 L6968.71,-938.572 L6952.29,-950.404 L6932.29,-954.631 L6383.3,-954.631 L6383.2,-954.635 L6383.17,-954.638 L6383.08,-954.653 L6382.74,-954.72 L6382.55,-954.777 L6382.5,-954.799 L6382.32,-954.892 L6382.05,-955.075 L6381.9,-955.2 L6381.86,-955.241 L6381.73,-955.393 L6381.55,-955.668 L6381.46,-955.84 L6381.43,-955.894 L6381.38,-956.082 L6381.31,-956.421 L6381.29,-956.518 L6381.29,-956.547 M381.221,-956.547 L381.217,-956.645 L381.217,-1456.62 L381.221,-1456.71 L381.224,-1456.74 L381.239,-1456.84 L381.306,-1457.18 L381.363,-1457.37 L381.385,-1457.42 L381.478,-1457.59 L381.661,-1457.87 L381.786,-1458.02 L381.827,-1458.06 L381.979,-1458.19 L382.254,-1458.37 L382.426,-1458.46 L382.48,-1458.48 L382.668,-1458.54 L383.007,-1458.61 L383.104,-1458.62 L383.133,-1458.63 L383.231,-1458.63 L2483.2,-1458.63 L2483.3,-1458.63 L2483.33,-1458.62 L2483.43,-1458.61 L2483.77,-1458.54 L2483.95,-1458.48 L2484.01,-1458.46 L2484.18,-1458.37 L2484.45,-1458.19 L2484.61,-1458.06 L2484.65,-1458.02 L2484.77,-1457.87 L2484.96,-1457.59 L2485.05,-1457.42 L2485.07,-1457.37 L2485.13,-1457.18 L2485.19,-1456.84 L2485.21,-1456.74 L2485.21,-1456.71 L2485.22,-1456.62 L2485.22,-956.645 L2485.21,-956.547 L2485.21,-956.518 L2485.19,-956.421 L2485.13,-956.082 L2485.07,-955.894 L2485.05,-955.841 L2484.96,-955.668 L2484.77,-955.393 L2484.65,-955.241 L2484.61,-955.2 L2484.45,-955.076 L2484.18,-954.892 L2484.01,-954.799 L2483.95,-954.777 L2483.77,-954.72 L2483.43,-954.653 L2483.33,-954.638 L2483.3,-954.635 L2483.2,-954.631 L1934.15,-954.631 L1914.14,-950.404 L1897.72,-938.572 L1887.39,-920.928 L1868.18,-863.306 L1865.72,-844.853 L1870.21,-826.985 L1880.98,-812.04 L1884.28,-809.933 L1884.35,-809.885 L1884.37,-809.87 L1884.43,-809.816 L1884.65,-809.618 L1884.77,-809.496 L1884.8,-809.457 L1884.89,-809.318 L1885.03,-809.071 L1885.09,-808.918 L1885.11,-808.871 L1885.15,-808.709 L1885.2,-808.418 L1885.21,-808.335 L1885.21,-808.31 L1885.22,-808.227 L1885.22,-756.645 L1885.21,-756.547 L1885.21,-756.518 L1885.19,-756.421 L1885.13,-756.082 L1885.07,-755.894 L1885.05,-755.841 L1884.96,-755.668 L1884.77,-755.393 L1884.65,-755.241 L1884.61,-755.2 L1884.45,-755.076 L1884.18,-754.892 L1884.01,-754.799 L1883.95,-754.777 L1883.77,-754.72 L1883.43,-754.653 L1883.33,-754.638 L1883.3,-754.635 L1883.2,-754.631 L983.231,-754.631 L983.133,-754.635 L983.104,-754.638 L983.007,-754.653 L982.668,-754.72 L982.48,-754.777 L982.426,-754.799 L982.254,-754.892 L981.979,-755.076 L981.827,-755.2 L981.786,-755.241 L981.661,-755.393 L981.478,-755.668 L981.385,-755.841 L981.363,-755.894 L981.306,-756.082 L981.239,-756.421 L981.224,-756.518 L981.221,-756.547 L981.217,-756.645 L981.217,-808.227 L981.22,-808.31 L981.222,-808.335 L981.233,-808.418 L981.282,-808.709 L981.323,-808.871 L981.339,-808.918 L981.407,-809.071 L981.543,-809.318 L981.635,-809.457 L981.666,-809.496 L981.78,-809.618 L981.999,-809.816 L982.063,-809.87 L982.083,-809.885 L982.152,-809.933 L985.455,-812.04 L996.227,-826.985 L1000.71,-844.853 L998.255,-863.306 L979.047,-920.928 L968.711,-938.572 L952.295,-950.404 L932.287,-954.631 L383.231,-954.631 L383.133,-954.635 L383.104,-954.638 L383.007,-954.653 L382.668,-954.72 L382.48,-954.777 L382.426,-954.799 L382.254,-954.892 L381.979,-955.076 L381.827,-955.2 L381.786,-955.241 L381.661,-955.393 L381.478,-955.668 L381.385,-955.841 L381.363,-955.894 L381.306,-956.082 L381.239,-956.421 L381.224,-956.518 L381.221,-956.547"/>
</g>

<g fill="none" stroke="#000000" stroke-opacity="1" stroke-width="1" stroke-linecap="square" stroke-linejoin="bevel" transform="matrix(0.999943,0,0,-0.999943,515.836,4664.17)"
font-family="MS Shell Dlg 2" font-size="10.3125" font-weight="400" font-style="normal" 
>
</g>

<g fill="none" stroke="#000000" stroke-opacity="1" stroke-width="1" stroke-linecap="square" stroke-linejoin="bevel" transform="matrix(0.999943,0,0,-0.999943,515.836,4664.17)"
font-family="MS Shell Dlg 2" font-size="10.3125" font-weight="400" font-style="normal" 
>
</g>

<g fill="#ffff00" fill-opacity="0.2" stroke="#333333" stroke-opacity="1" stroke-width="1" stroke-linecap="round" stroke-linejoin="round" transform="matrix(0.999943,0,0,-0.999943,515.836,4664.17)"
font-family="MS Shell Dlg 2" font-size="10.3125" font-weight="400" font-style="normal" 
>
<path vector-effect="non-scaling-stroke" fill-rule="evenodd" d="M-515.365,-4509.12 L-352.194,4628.47 L14783.4,4663.41 L14783.4,-4602.12 L-515.365,-4509.12 M6381.29,-956.547 L6381.29,-956.645 L6381.22,-1456.62 L6381.23,-1456.71 L6381.23,-1456.74 L6381.24,-1456.84 L6381.31,-1457.18 L6381.37,-1457.37 L6381.39,-1457.42 L6381.48,-1457.59 L6381.67,-1457.87 L6381.79,-1458.02 L6381.83,-1458.06 L6381.98,-1458.19 L6382.26,-1458.37 L6382.43,-1458.46 L6382.49,-1458.48 L6382.67,-1458.54 L6383.01,-1458.61 L6383.11,-1458.62 L6383.14,-1458.63 L6383.24,-1458.63 L8483.2,-1458.63 L8483.3,-1458.63 L8483.33,-1458.62 L8483.43,-1458.61 L8483.77,-1458.54 L8483.95,-1458.48 L8484.01,-1458.46 L8484.18,-1458.37 L8484.45,-1458.19 L8484.61,-1458.06 L8484.65,-1458.02 L8484.77,-1457.87 L8484.96,-1457.59 L8485.05,-1457.42 L8485.07,-1457.37 L8485.13,-1457.18 L8485.19,-1456.84 L8485.21,-1456.74 L8485.21,-1456.71 L8485.22,-1456.62 L8485.22,-956.645 L8485.21,-956.547 L8485.21,-956.518 L8485.19,-956.421 L8485.13,-956.082 L8485.07,-955.894 L8485.05,-955.841 L8484.96,-955.668 L8484.77,-955.393 L8484.65,-955.241 L8484.61,-955.2 L8484.45,-955.076 L8484.18,-954.892 L8484.01,-954.799 L8483.95,-954.777 L8483.77,-954.72 L8483.43,-954.653 L8483.33,-954.638 L8483.3,-954.635 L8483.2,-954.631 L7934.15,-954.631 L7914.14,-950.404 L7897.72,-938.572 L7887.39,-920.928 L7868.18,-863.306 L7865.72,-844.853 L7870.21,-826.985 L7880.98,-812.04 L7884.28,-809.933 L7884.35,-809.885 L7884.37,-809.87 L7884.43,-809.816 L7884.65,-809.618 L7884.77,-809.496 L7884.8,-809.457 L7884.89,-809.318 L7885.03,-809.071 L7885.09,-808.918 L7885.11,-808.871 L7885.15,-808.709 L7885.2,-808.418 L7885.21,-808.335 L7885.21,-808.31 L7885.22,-808.227 L7885.22,-756.645 L7885.21,-756.547 L7885.21,-756.518 L7885.19,-756.421 L7885.13,-756.082 L7885.07,-755.894 L7885.05,-755.841 L7884.96,-755.668 L7884.77,-755.393 L7884.65,-755.241 L7884.61,-755.2 L7884.45,-755.076 L7884.18,-754.892 L7884.01,-754.799 L7883.95,-754.777 L7883.77,-754.72 L7883.43,-754.653 L7883.33,-754.638 L7883.3,-754.635 L7883.2,-754.631 L6983.23,-754.631 L6983.13,-754.635 L6983.1,-754.638 L6983.01,-754.653 L6982.67,-754.72 L6982.48,-754.777 L6982.43,-754.799 L6982.25,-754.892 L6981.98,-755.076 L6981.83,-755.2 L6981.79,-755.241 L6981.66,-755.393 L6981.48,-755.668 L6981.39,-755.841 L6981.36,-755.894 L6981.31,-756.082 L6981.24,-756.421 L6981.22,-756.518 L6981.22,-756.547 L6981.22,-756.645 L6981.22,-808.227 L6981.22,-808.31 L6981.22,-808.335 L6981.23,-808.418 L6981.28,-808.709 L6981.32,-808.871 L6981.34,-808.918 L6981.41,-809.071 L6981.54,-809.318 L6981.64,-809.457 L6981.67,-809.496 L6981.78,-809.618 L6982,-809.816 L6982.06,-809.87 L6982.08,-809.885 L6982.15,-809.933 L6985.46,-812.04 L6996.23,-826.985 L7000.71,-844.853 L6998.25,-863.306 L6979.05,-920.928 L6968.71,-938.572 L6952.29,-950.404 L6932.29,-954.631 L6383.3,-954.631 L6383.2,-954.635 L6383.17,-954.638 L6383.08,-954.653 L6382.74,-954.72 L6382.55,-954.777 L6382.5,-954.799 L6382.32,-954.892 L6382.05,-955.075 L6381.9,-955.2 L6381.86,-955.241 L6381.73,-955.393 L6381.55,-955.668 L6381.46,-955.84 L6381.43,-955.894 L6381.38,-956.082 L6381.31,-956.421 L6381.29,-956.518 L6381.29,-956.547 M381.221,-956.547 L381.217,-956.645 L381.217,-1456.62 L381.221,-1456.71 L381.224,-1456.74 L381.239,-1456.84 L381.306,-1457.18 L381.363,-1457.37 L381.385,-1457.42 L381.478,-1457.59 L381.661,-1457.87 L381.786,-1458.02 L381.827,-1458.06 L381.979,-1458.19 L382.254,-1458.37 L382.426,-1458.46 L382.48,-1458.48 L382.668,-1458.54 L383.007,-1458.61 L383.104,-1458.62 L383.133,-1458.63 L383.231,-1458.63 L2483.2,-1458.63 L2483.3,-1458.63 L2483.33,-1458.62 L2483.43,-1458.61 L2483.77,-1458.54 L2483.95,-1458.48 L2484.01,-1458.46 L2484.18,-1458.37 L2484.45,-1458.19 L2484.61,-1458.06 L2484.65,-1458.02 L2484.77,-1457.87 L2484.96,-1457.59 L2485.05,-1457.42 L2485.07,-1457.37 L2485.13,-1457.18 L2485.19,-1456.84 L2485.21,-1456.74 L2485.21,-1456.71 L2485.22,-1456.62 L2485.22,-956.645 L2485.21,-956.547 L2485.21,-956.518 L2485.19,-956.421 L2485.13,-956.082 L2485.07,-955.894 L2485.05,-955.841 L2484.96,-955.668 L2484.77,-955.393 L2484.65,-955.241 L2484.61,-955.2 L2484.45,-955.076 L2484.18,-954.892 L2484.01,-954.799 L2483.95,-954.777 L2483.77,-954.72 L2483.43,-954.653 L2483.33,-954.638 L2483.3,-954.635 L2483.2,-954.631 L1934.15,-954.631 L1914.14,-950.404 L1897.72,-938.572 L1887.39,-920.928 L1868.18,-863.306 L1865.72,-844.853 L1870.21,-826.985 L1880.98,-812.04 L1884.28,-809.933 L1884.35,-809.885 L1884.37,-809.87 L1884.43,-809.816 L1884.65,-809.618 L1884.77,-809.496 L1884.8,-809.457 L1884.89,-809.318 L1885.03,-809.071 L1885.09,-808.918 L1885.11,-808.871 L1885.15,-808.709 L1885.2,-808.418 L1885.21,-808.335 L1885.21,-808.31 L1885.22,-808.227 L1885.22,-756.645 L1885.21,-756.547 L1885.21,-756.518 L1885.19,-756.421 L1885.13,-756.082 L1885.07,-755.894 L1885.05,-755.841 L1884.96,-755.668 L1884.77,-755.393 L1884.65,-755.241 L1884.61,-755.2 L1884.45,-755.076 L1884.18,-754.892 L1884.01,-754.799 L1883.95,-754.777 L1883.77,-754.72 L1883.43,-754.653 L1883.33,-754.638 L1883.3,-754.635 L1883.2,-754.631 L983.231,-754.631 L983.133,-754.635 L983.104,-754.638 L983.007,-754.653 L982.668,-754.72 L982.48,-754.777 L982.426,-754.799 L982.254,-754.892 L981.979,-755.076 L981.827,-755.2 L981.786,-755.241 L981.661,-755.393 L981.478,-755.668 L981.385,-755.841 L981.363,-755.894 L981.306,-756.082 L981.239,-756.421 L981.224,-756.518 L981.221,-756.547 L981.217,-756.645 L981.217,-808.227 L981.22,-808.31 L981.222,-808.335 L981.233,-808.418 L981.282,-808.709 L981.323,-808.871 L981.339,-808.918 L981.407,-809.071 L981.543,-809.318 L981.635,-809.457 L981.666,-809.496 L981.78,-809.618 L981.999,-809.816 L982.063,-809.87 L982.083,-809.885 L982.152,-809.933 L985.455,-812.04 L996.227,-826.985 L1000.71,-844.853 L998.255,-863.306 L979.047,-920.928 L968.711,-938.572 L952.295,-950.404 L932.287,-954.631 L383.231,-954.631 L383.133,-954.635 L383.104,-954.638 L383.007,-954.653 L382.668,-954.72 L382.48,-954.777 L382.426,-954.799 L382.254,-954.892 L381.979,-955.076 L381.827,-955.2 L381.786,-955.241 L381.661,-955.393 L381.478,-955.668 L381.385,-955.841 L381.363,-955.894 L381.306,-956.082 L381.239,-956.421 L381.224,-956.518 L381.221,-956.547"/>
</g>

<g fill="none" stroke="#000000" stroke-opacity="1" stroke-width="1" stroke-linecap="square" stroke-linejoin="bevel" transform="matrix(0.999943,0,0,-0.999943,515.836,4664.17)"
font-family="MS Shell Dlg 2" font-size="10.3125" font-weight="400" font-style="normal" 
>
</g>

<g fill="none" stroke="#000000" stroke-opacity="1" stroke-width="1" stroke-linecap="square" stroke-linejoin="bevel" transform="matrix(0.999943,0,0,-0.999943,515.836,4664.17)"
font-family="MS Shell Dlg 2" font-size="10.3125" font-weight="400" font-style="normal" 
>
</g>

<g fill="#ae5151" fill-opacity="0.2" stroke="#333333" stroke-opacity="1" stroke-width="1" stroke-linecap="round" stroke-linejoin="round" transform="matrix(0.999943,0,0,-0.999943,515.836,4664.17)"
font-family="MS Shell Dlg 2" font-size="10.3125" font-weight="400" font-style="normal" 
>
<path vector-effect="non-scaling-stroke" fill-rule="evenodd" d="M-515.365,-4509.12 L-352.194,4628.47 L14783.4,4663.41 L14783.4,-4602.12 L-515.365,-4509.12 M6381.29,-956.547 L6381.29,-956.645 L6381.22,-1456.62 L6381.23,-1456.71 L6381.23,-1456.74 L6381.24,-1456.84 L6381.31,-1457.18 L6381.37,-1457.37 L6381.39,-1457.42 L6381.48,-1457.59 L6381.67,-1457.87 L6381.79,-1458.02 L6381.83,-1458.06 L6381.98,-1458.19 L6382.26,-1458.37 L6382.43,-1458.46 L6382.49,-1458.48 L6382.67,-1458.54 L6383.01,-1458.61 L6383.11,-1458.62 L6383.14,-1458.63 L6383.24,-1458.63 L8483.2,-1458.63 L8483.3,-1458.63 L8483.33,-1458.62 L8483.43,-1458.61 L8483.77,-1458.54 L8483.95,-1458.48 L8484.01,-1458.46 L8484.18,-1458.37 L8484.45,-1458.19 L8484.61,-1458.06 L8484.65,-1458.02 L8484.77,-1457.87 L8484.96,-1457.59 L8485.05,-1457.42 L8485.07,-1457.37 L8485.13,-1457.18 L8485.19,-1456.84 L8485.21,-1456.74 L8485.21,-1456.71 L8485.22,-1456.62 L8485.22,-956.645 L8485.21,-956.547 L8485.21,-956.518 L8485.19,-956.421 L8485.13,-956.082 L8485.07,-955.894 L8485.05,-955.841 L8484.96,-955.668 L8484.77,-955.393 L8484.65,-955.241 L8484.61,-955.2 L8484.45,-955.076 L8484.18,-954.892 L8484.01,-954.799 L8483.95,-954.777 L8483.77,-954.72 L8483.43,-954.653 L8483.33,-954.638 L8483.3,-954.635 L8483.2,-954.631 L7934.15,-954.631 L7914.14,-950.404 L7897.72,-938.572 L7887.39,-920.928 L7868.18,-863.306 L7865.72,-844.853 L7870.21,-826.985 L7880.98,-812.04 L7884.28,-809.933 L7884.35,-809.885 L7884.37,-809.87 L7884.43,-809.816 L7884.65,-809.618 L7884.77,-809.496 L7884.8,-809.457 L7884.89,-809.318 L7885.03,-809.071 L7885.09,-808.918 L7885.11,-808.871 L7885.15,-808.709 L7885.2,-808.418 L7885.21,-808.335 L7885.21,-808.31 L7885.22,-808.227 L7885.22,-756.645 L7885.21,-756.547 L7885.21,-756.518 L7885.19,-756.421 L7885.13,-756.082 L7885.07,-755.894 L7885.05,-755.841 L7884.96,-755.668 L7884.77,-755.393 L7884.65,-755.241 L7884.61,-755.2 L7884.45,-755.076 L7884.18,-754.892 L7884.01,-754.799 L7883.95,-754.777 L7883.77,-754.72 L7883.43,-754.653 L7883.33,-754.638 L7883.3,-754.635 L7883.2,-754.631 L6983.23,-754.631 L6983.13,-754.635 L6983.1,-754.638 L6983.01,-754.653 L6982.67,-754.72 L6982.48,-754.777 L6982.43,-754.799 L6982.25,-754.892 L6981.98,-755.076 L6981.83,-755.2 L6981.79,-755.241 L6981.66,-755.393 L6981.48,-755.668 L6981.39,-755.841 L6981.36,-755.894 L6981.31,-756.082 L6981.24,-756.421 L6981.22,-756.518 L6981.22,-756.547 L6981.22,-756.645 L6981.22,-808.227 L6981.22,-808.31 L6981.22,-808.335 L6981.23,-808.418 L6981.28,-808.709 L6981.32,-808.871 L6981.34,-808.918 L6981.41,-809.071 L6981.54,-809.318 L6981.64,-809.457 L6981.67,-809.496 L6981.78,-809.618 L6982,-809.816 L6982.06,-809.87 L6982.08,-809.885 L6982.15,-809.933 L6985.46,-812.04 L6996.23,-826.985 L7000.71,-844.853 L6998.25,-863.306 L6979.05,-920.928 L6968.71,-938.572 L6952.29,-950.404 L6932.29,-954.631 L6383.3,-954.631 L6383.2,-954.635 L6383.17,-954.638 L6383.08,-954.653 L6382.74,-954.72 L6382.55,-954.777 L6382.5,-954.799 L6382.32,-954.892 L6382.05,-955.075 L6381.9,-955.2 L6381.86,-955.241 L6381.73,-955.393 L6381.55,-955.668 L6381.46,-955.84 L6381.43,-955.894 L6381.38,-956.082 L6381.31,-956.421 L6381.29,-956.518 L6381.29,-956.547 M381.221,-956.547 L381.217,-956.645 L381.217,-1456.62 L381.221,-1456.71 L381.224,-1456.74 L381.239,-1456.84 L381.306,-1457.18 L381.363,-1457.37 L381.385,-1457.42 L381.478,-1457.59 L381.661,-1457.87 L381.786,-1458.02 L381.827,-1458.06 L381.979,-1458.19 L382.254,-1458.37 L382.426,-1458.46 L382.48,-1458.48 L382.668,-1458.54 L383.007,-1458.61 L383.104,-1458.62 L383.133,-1458.63 L383.231,-1458.63 L2483.2,-1458.63 L2483.3,-1458.63 L2483.33,-1458.62 L2483.43,-1458.61 L2483.77,-1458.54 L2483.95,-1458.48 L2484.01,-1458.46 L2484.18,-1458.37 L2484.45,-1458.19 L2484.61,-1458.06 L2484.65,-1458.02 L2484.77,-1457.87 L2484.96,-1457.59 L2485.05,-1457.42 L2485.07,-1457.37 L2485.13,-1457.18 L2485.19,-1456.84 L2485.21,-1456.74 L2485.21,-1456.71 L2485.22,-1456.62 L2485.22,-956.645 L2485.21,-956.547 L2485.21,-956.518 L2485.19,-956.421 L2485.13,-956.082 L2485.07,-955.894 L2485.05,-955.841 L2484.96,-955.668 L2484.77,-955.393 L2484.65,-955.241 L2484.61,-955.2 L2484.45,-955.076 L2484.18,-954.892 L2484.01,-954.799 L2483.95,-954.777 L2483.77,-954.72 L2483.43,-954.653 L2483.33,-954.638 L2483.3,-954.635 L2483.2,-954.631 L1934.15,-954.631 L1914.14,-950.404 L1897.72,-938.572 L1887.39,-920.928 L1868.18,-863.306 L1865.72,-844.853 L1870.21,-826.985 L1880.98,-812.04 L1884.28,-809.933 L1884.35,-809.885 L1884.37,-809.87 L1884.43,-809.816 L1884.65,-809.618 L1884.77,-809.496 L1884.8,-809.457 L1884.89,-809.318 L1885.03,-809.071 L1885.09,-808.918 L1885.11,-808.871 L1885.15,-808.709 L1885.2,-808.418 L1885.21,-808.335 L1885.21,-808.31 L1885.22,-808.227 L1885.22,-756.645 L1885.21,-756.547 L1885.21,-756.518 L1885.19,-756.421 L1885.13,-756.082 L1885.07,-755.894 L1885.05,-755.841 L1884.96,-755.668 L1884.77,-755.393 L1884.65,-755.241 L1884.61,-755.2 L1884.45,-755.076 L1884.18,-754.892 L1884.01,-754.799 L1883.95,-754.777 L1883.77,-754.72 L1883.43,-754.653 L1883.33,-754.638 L1883.3,-754.635 L1883.2,-754.631 L983.231,-754.631 L983.133,-754.635 L983.104,-754.638 L983.007,-754.653 L982.668,-754.72 L982.48,-754.777 L982.426,-754.799 L982.254,-754.892 L981.979,-755.076 L981.827,-755.2 L981.786,-755.241 L981.661,-755.393 L981.478,-755.668 L981.385,-755.841 L981.363,-755.894 L981.306,-756.082 L981.239,-756.421 L981.224,-756.518 L981.221,-756.547 L981.217,-756.645 L981.217,-808.227 L981.22,-808.31 L981.222,-808.335 L981.233,-808.418 L981.282,-808.709 L981.323,-808.871 L981.339,-808.918 L981.407,-809.071 L981.543,-809.318 L981.635,-809.457 L981.666,-809.496 L981.78,-809.618 L981.999,-809.816 L982.063,-809.87 L982.083,-809.885 L982.152,-809.933 L985.455,-812.04 L996.227,-826.985 L1000.71,-844.853 L998.255,-863.306 L979.047,-920.928 L968.711,-938.572 L952.295,-950.404 L932.287,-954.631 L383.231,-954.631 L383.133,-954.635 L383.104,-954.638 L383.007,-954.653 L382.668,-954.72 L382.48,-954.777 L382.426,-954.799 L382.254,-954.892 L381.979,-955.076 L381.827,-955.2 L381.786,-955.241 L381.661,-955.393 L381.478,-955.668 L381.385,-955.841 L381.363,-955.894 L381.306,-956.082 L381.239,-956.421 L381.224,-956.518 L381.221,-956.547"/>
</g>

<g fill="none" stroke="#000000" stroke-opacity="1" stroke-width="1" stroke-linecap="square" stroke-linejoin="bevel" transform="matrix(0.999943,0,0,-0.999943,515.836,4664.17)"
font-family="MS Shell Dlg 2" font-size="10.3125" font-weight="400" font-style="normal" 
>
</g>

<g fill="none" stroke="#000000" stroke-opacity="1" stroke-width="1" stroke-linecap="square" stroke-linejoin="bevel" transform="matrix(0.999943,0,0,-0.999943,515.836,4664.17)"
font-family="MS Shell Dlg 2" font-size="10.3125" font-weight="400" font-style="normal" 
>
</g>

<g fill="#333333" fill-opacity="0.2" stroke="#333333" stroke-opacity="1" stroke-width="1" stroke-linecap="round" stroke-linejoin="round" transform="matrix(0.999943,0,0,-0.999943,515.836,4664.17)"
font-family="MS Shell Dlg 2" font-size="10.3125" font-weight="400" font-style="normal" 
>
<path vector-effect="non-scaling-stroke" fill-rule="evenodd" d="M-515.365,-4509.12 L-352.194,4628.47 L14783.4,4663.41 L14783.4,-4602.12 L-515.365,-4509.12 M6381.29,-956.547 L6381.29,-956.645 L6381.22,-1456.62 L6381.23,-1456.71 L6381.23,-1456.74 L6381.24,-1456.84 L6381.31,-1457.18 L6381.37,-1457.37 L6381.39,-1457.42 L6381.48,-1457.59 L6381.67,-1457.87 L6381.79,-1458.02 L6381.83,-1458.06 L6381.98,-1458.19 L6382.26,-1458.37 L6382.43,-1458.46 L6382.49,-1458.48 L6382.67,-1458.54 L6383.01,-1458.61 L6383.11,-1458.62 L6383.14,-1458.63 L6383.24,-1458.63 L8483.2,-1458.63 L8483.3,-1458.63 L8483.33,-1458.62 L8483.43,-1458.61 L8483.77,-1458.54 L8483.95,-1458.48 L8484.01,-1458.46 L8484.18,-1458.37 L8484.45,-1458.19 L8484.61,-1458.06 L8484.65,-1458.02 L8484.77,-1457.87 L8484.96,-1457.59 L8485.05,-1457.42 L8485.07,-1457.37 L8485.13,-1457.18 L8485.19,-1456.84 L8485.21,-1456.74 L8485.21,-1456.71 L8485.22,-1456.62 L8485.22,-956.645 L8485.21,-956.547 L8485.21,-956.518 L8485.19,-956.421 L8485.13,-956.082 L8485.07,-955.894 L8485.05,-955.841 L8484.96,-955.668 L8484.77,-955.393 L8484.65,-955.241 L8484.61,-955.2 L8484.45,-955.076 L8484.18,-954.892 L8484.01,-954.799 L8483.95,-954.777 L8483.77,-954.72 L8483.43,-954.653 L8483.33,-954.638 L8483.3,-954.635 L8483.2,-954.631 L7934.15,-954.631 L7914.14,-950.404 L7897.72,-938.572 L7887.39,-920.928 L7868.18,-863.306 L7865.72,-844.853 L7870.21,-826.985 L7880.98,-812.04 L7884.28,-809.933 L7884.35,-809.885 L7884.37,-809.87 L7884.43,-809.816 L7884.65,-809.618 L7884.77,-809.496 L7884.8,-809.457 L7884.89,-809.318 L7885.03,-809.071 L7885.09,-808.918 L7885.11,-808.871 L7885.15,-808.709 L7885.2,-808.418 L7885.21,-808.335 L7885.21,-808.31 L7885.22,-808.227 L7885.22,-756.645 L7885.21,-756.547 L7885.21,-756.518 L7885.19,-756.421 L7885.13,-756.082 L7885.07,-755.894 L7885.05,-755.841 L7884.96,-755.668 L7884.77,-755.393 L7884.65,-755.241 L7884.61,-755.2 L7884.45,-755.076 L7884.18,-754.892 L7884.01,-754.799 L7883.95,-754.777 L7883.77,-754.72 L7883.43,-754.653 L7883.33,-754.638 L7883.3,-754.635 L7883.2,-754.631 L6983.23,-754.631 L6983.13,-754.635 L6983.1,-754.638 L6983.01,-754.653 L6982.67,-754.72 L6982.48,-754.777 L6982.43,-754.799 L6982.25,-754.892 L6981.98,-755.076 L6981.83,-755.2 L6981.79,-755.241 L6981.66,-755.393 L6981.48,-755.668 L6981.39,-755.841 L6981.36,-755.894 L6981.31,-756.082 L6981.24,-756.421 L6981.22,-756.518 L6981.22,-756.547 L6981.22,-756.645 L6981.22,-808.227 L6981.22,-808.31 L6981.22,-808.335 L6981.23,-808.418 L6981.28,-808.709 L6981.32,-808.871 L6981.34,-808.918 L6981.41,-809.071 L6981.54,-809.318 L6981.64,-809.457 L6981.67,-809.496 L6981.78,-809.618 L6982,-809.816 L6982.06,-809.87 L6982.08,-809.885 L6982.15,-809.933 L6985.46,-812.04 L6996.23,-826.985 L7000.71,-844.853 L6998.25,-863.306 L6979.05,-920.928 L6968.71,-938.572 L6952.29,-950.404 L6932.29,-954.631 L6383.3,-954.631 L6383.2,-954.635 L6383.17,-954.638 L6383.08,-954.653 L6382.74,-954.72 L6382.55,-954.777 L6382.5,-954.799 L6382.32,-954.892 L6382.05,-955.075 L6381.9,-955.2 L6381.86,-955.241 L6381.73,-955.393 L6381.55,-955.668 L6381.46,-955.84 L6381.43,-955.894 L6381.38,-956.082 L6381.31,-956.421 L6381.29,-956.518 L6381.29,-956.547 M381.221,-956.547 L381.217,-956.645 L381.217,-1456.62 L381.221,-1456.71 L381.224,-1456.74 L381.239,-1456.84 L381.306,-1457.18 L381.363,-1457.37 L381.385,-1457.42 L381.478,-1457.59 L381.661,-1457.87 L381.786,-1458.02 L381.827,-1458.06 L381.979,-1458.19 L382.254,-1458.37 L382.426,-1458.46 L382.48,-1458.48 L382.668,-1458.54 L383.007,-1458.61 L383.104,-1458.62 L383.133,-1458.63 L383.231,-1458.63 L2483.2,-1458.63 L2483.3,-1458.63 L2483.33,-1458.62 L2483.43,-1458.61 L2483.77,-1458.54 L2483.95,-1458.48 L2484.01,-1458.46 L2484.18,-1458.37 L2484.45,-1458.19 L2484.61,-1458.06 L2484.65,-1458.02 L2484.77,-1457.87 L2484.96,-1457.59 L2485.05,-1457.42 L2485.07,-1457.37 L2485.13,-1457.18 L2485.19,-1456.84 L2485.21,-1456.74 L2485.21,-1456.71 L2485.22,-1456.62 L2485.22,-956.645 L2485.21,-956.547 L2485.21,-956.518 L2485.19,-956.421 L2485.13,-956.082 L2485.07,-955.894 L2485.05,-955.841 L2484.96,-955.668 L2484.77,-955.393 L2484.65,-955.241 L2484.61,-955.2 L2484.45,-955.076 L2484.18,-954.892 L2484.01,-954.799 L2483.95,-954.777 L2483.77,-954.72 L2483.43,-954.653 L2483.33,-954.638 L2483.3,-954.635 L2483.2,-954.631 L1934.15,-954.631 L1914.14,-950.404 L1897.72,-938.572 L1887.39,-920.928 L1868.18,-863.306 L1865.72,-844.853 L1870.21,-826.985 L1880.98,-812.04 L1884.28,-809.933 L1884.35,-809.885 L1884.37,-809.87 L1884.43,-809.816 L1884.65,-809.618 L1884.77,-809.496 L1884.8,-809.457 L1884.89,-809.318 L1885.03,-809.071 L1885.09,-808.918 L1885.11,-808.871 L1885.15,-808.709 L1885.2,-808.418 L1885.21,-808.335 L1885.21,-808.31 L1885.22,-808.227 L1885.22,-756.645 L1885.21,-756.547 L1885.21,-756.518 L1885.19,-756.421 L1885.13,-756.082 L1885.07,-755.894 L1885.05,-755.841 L1884.96,-755.668 L1884.77,-755.393 L1884.65,-755.241 L1884.61,-755.2 L1884.45,-755.076 L1884.18,-754.892 L1884.01,-754.799 L1883.95,-754.777 L1883.77,-754.72 L1883.43,-754.653 L1883.33,-754.638 L1883.3,-754.635 L1883.2,-754.631 L983.231,-754.631 L983.133,-754.635 L983.104,-754.638 L983.007,-754.653 L982.668,-754.72 L982.48,-754.777 L982.426,-754.799 L982.254,-754.892 L981.979,-755.076 L981.827,-755.2 L981.786,-755.241 L981.661,-755.393 L981.478,-755.668 L981.385,-755.841 L981.363,-755.894 L981.306,-756.082 L981.239,-756.421 L981.224,-756.518 L981.221,-756.547 L981.217,-756.645 L981.217,-808.227 L981.22,-808.31 L981.222,-808.335 L981.233,-808.418 L981.282,-808.709 L981.323,-808.871 L981.339,-808.918 L981.407,-809.071 L981.543,-809.318 L981.635,-809.457 L981.666,-809.496 L981.78,-809.618 L981.999,-809.816 L982.063,-809.87 L982.083,-809.885 L982.152,-809.933 L985.455,-812.04 L996.227,-826.985 L1000.71,-844.853 L998.255,-863.306 L979.047,-920.928 L968.711,-938.572 L952.295,-950.404 L932.287,-954.631 L383.231,-954.631 L383.133,-954.635 L383.104,-954.638 L383.007,-954.653 L382.668,-954.72 L382.48,-954.777 L382.426,-954.799 L382.254,-954.892 L381.979,-955.076 L381.827,-955.2 L381.786,-955.241 L381.661,-955.393 L381.478,-955.668 L381.385,-955.841 L381.363,-955.894 L381.306,-956.082 L381.239,-956.421 L381.224,-956.518 L381.221,-956.547"/>
</g>

<g fill="none" stroke="#000000" stroke-opacity="1" stroke-width="1" stroke-linecap="square" stroke-linejoin="bevel" transform="matrix(0.999943,0,0,-0.999943,515.836,4664.17)"
font-family="MS Shell Dlg 2" font-size="10.3125" font-weight="400" font-style="normal" 
>
</g>

<g fill="none" stroke="#000000" stroke-opacity="1" stroke-width="1" stroke-linecap="square" stroke-linejoin="bevel" transform="matrix(1,0,0,-1,0,9266.53)"
font-family="MS Shell Dlg 2" font-size="10.3125" font-weight="400" font-style="normal" 
>
</g>
</g>
</svg>
