<?xml version="1.0" encoding="UTF-8" standalone="no"?>
<svg width="1874.24mm" height="417.407mm"
 xmlns="http://www.w3.org/2000/svg" xmlns:xlink="http://www.w3.org/1999/xlink"  version="1.2" baseProfile="tiny">
<title>SVG Generator Example Drawing</title>
<desc>An SVG drawing created by the SVG Generator</desc>
<defs>
</defs>
<g fill="none" stroke="black" stroke-width="1" fill-rule="evenodd" stroke-linecap="square" stroke-linejoin="bevel" >

<g fill="none" stroke="#000000" stroke-opacity="1" stroke-width="1" stroke-linecap="square" stroke-linejoin="bevel" transform="matrix(1,0,0,-1,0,1479.06)"
font-family="MS Shell Dlg 2" font-size="10.3125" font-weight="400" font-style="normal" 
>
</g>

<g fill="none" stroke="#000000" stroke-opacity="1" stroke-width="1" stroke-linecap="square" stroke-linejoin="bevel" transform="matrix(1,0,0,-1,0,1479.06)"
font-family="MS Shell Dlg 2" font-size="10.3125" font-weight="400" font-style="normal" 
>
</g>

<g fill="none" stroke="#000000" stroke-opacity="1" stroke-width="1" stroke-linecap="square" stroke-linejoin="bevel" transform="matrix(0.999948,0,0,-0.999948,4645.84,2896.68)"
font-family="MS Shell Dlg 2" font-size="10.3125" font-weight="400" font-style="normal" 
>
</g>

<g fill="#333333" fill-opacity="0.2" stroke="#333333" stroke-opacity="1" stroke-width="1" stroke-linecap="round" stroke-linejoin="round" transform="matrix(0.999948,0,0,-0.999948,4645.84,2896.68)"
font-family="MS Shell Dlg 2" font-size="10.3125" font-weight="400" font-style="normal" 
>
<path vector-effect="non-scaling-stroke" fill-rule="evenodd" d="M-3306.81,1774.03 L-3325.66,1871.22 L-3325.63,1871.62 L-3325.41,1871.99 L-3325.02,1872.29 L-3324.53,1872.46 L635.253,2640.29 L635.772,2640.31 L636.242,2640.18 L636.59,2639.92 L636.763,2639.56 L655.609,2542.37 L1974.22,2798.06 L1974.74,2798.08 L1975.2,2797.95 L1975.55,2797.69 L1975.73,2797.33 L1994.76,2699.16 L1994.73,2698.76 L1994.51,2698.39 L1994.12,2698.09 L1993.63,2697.92 L673.705,2441.98 L673.186,2441.96 L672.716,2442.09 L672.368,2442.35 L672.195,2442.71 L653.349,2539.9 L-663.938,2284.47 L-645.092,2187.28 L-645.12,2186.88 L-645.344,2186.51 L-645.731,2186.21 L-646.222,2186.04 L-1966.15,1930.1 L-1966.67,1930.07 L-1967.14,1930.2 L-1967.49,1930.47 L-1967.66,1930.82 L-1986.5,2028.01 L-3303.79,1772.58 L-3284.95,1675.39 L-3284.97,1675 L-3285.2,1674.62 L-3285.58,1674.33 L-3286.08,1674.16 L-4606,1418.21 L-4606.52,1418.19 L-4606.99,1418.32 L-4607.34,1418.58 L-4607.51,1418.94 L-4626.55,1517.11 L-4626.52,1517.51 L-4626.3,1517.88 L-4625.91,1518.18 L-4625.42,1518.35 L-3306.81,1774.03"/>
</g>

<g fill="none" stroke="#000000" stroke-opacity="1" stroke-width="1" stroke-linecap="square" stroke-linejoin="bevel" transform="matrix(0.999948,0,0,-0.999948,4645.84,2896.68)"
font-family="MS Shell Dlg 2" font-size="10.3125" font-weight="400" font-style="normal" 
>
</g>

<g fill="none" stroke="#000000" stroke-opacity="1" stroke-width="1" stroke-linecap="square" stroke-linejoin="bevel" transform="matrix(0.999948,0,0,-0.999948,4645.84,2896.68)"
font-family="MS Shell Dlg 2" font-size="10.3125" font-weight="400" font-style="normal" 
>
</g>

<g fill="#ae5151" fill-opacity="0.2" stroke="#333333" stroke-opacity="1" stroke-width="1" stroke-linecap="round" stroke-linejoin="round" transform="matrix(0.999948,0,0,-0.999948,4645.84,2896.68)"
font-family="MS Shell Dlg 2" font-size="10.3125" font-weight="400" font-style="normal" 
>
<path vector-effect="non-scaling-stroke" fill-rule="evenodd" d="M-3306.81,1774.03 L-3325.66,1871.22 L-3325.63,1871.62 L-3325.41,1871.99 L-3325.02,1872.29 L-3324.53,1872.46 L635.253,2640.29 L635.772,2640.31 L636.242,2640.18 L636.59,2639.92 L636.763,2639.56 L655.609,2542.37 L1974.22,2798.06 L1974.74,2798.08 L1975.2,2797.95 L1975.55,2797.69 L1975.73,2797.33 L1994.76,2699.16 L1994.73,2698.76 L1994.51,2698.39 L1994.12,2698.09 L1993.63,2697.92 L673.705,2441.98 L673.186,2441.96 L672.716,2442.09 L672.368,2442.35 L672.195,2442.71 L653.349,2539.9 L-663.938,2284.47 L-645.092,2187.28 L-645.12,2186.88 L-645.344,2186.51 L-645.731,2186.21 L-646.222,2186.04 L-1966.15,1930.1 L-1966.67,1930.07 L-1967.14,1930.2 L-1967.49,1930.47 L-1967.66,1930.82 L-1986.5,2028.01 L-3303.79,1772.58 L-3284.95,1675.39 L-3284.97,1675 L-3285.2,1674.62 L-3285.58,1674.33 L-3286.08,1674.16 L-4606,1418.21 L-4606.52,1418.19 L-4606.99,1418.32 L-4607.34,1418.58 L-4607.51,1418.94 L-4626.55,1517.11 L-4626.52,1517.51 L-4626.3,1517.88 L-4625.91,1518.18 L-4625.42,1518.35 L-3306.81,1774.03"/>
</g>

<g fill="none" stroke="#000000" stroke-opacity="1" stroke-width="1" stroke-linecap="square" stroke-linejoin="bevel" transform="matrix(0.999948,0,0,-0.999948,4645.84,2896.68)"
font-family="MS Shell Dlg 2" font-size="10.3125" font-weight="400" font-style="normal" 
>
</g>

<g fill="none" stroke="#000000" stroke-opacity="1" stroke-width="1" stroke-linecap="square" stroke-linejoin="bevel" transform="matrix(0.999948,0,0,-0.999948,4645.84,2896.68)"
font-family="MS Shell Dlg 2" font-size="10.3125" font-weight="400" font-style="normal" 
>
</g>

<g fill="none" stroke="#333333" stroke-opacity="1" stroke-width="1" stroke-linecap="round" stroke-linejoin="round" transform="matrix(0.999948,0,0,-0.999948,4645.84,2896.68)"
font-family="MS Shell Dlg 2" font-size="10.3125" font-weight="400" font-style="normal" 
>
<path vector-effect="non-scaling-stroke" fill-rule="evenodd" d="M-4625.23,1517.37 L-1986.69,2028.99"/>
</g>

<g fill="none" stroke="#000000" stroke-opacity="1" stroke-width="1" stroke-linecap="square" stroke-linejoin="bevel" transform="matrix(0.999948,0,0,-0.999948,4645.84,2896.68)"
font-family="MS Shell Dlg 2" font-size="10.3125" font-weight="400" font-style="normal" 
>
</g>

<g fill="none" stroke="#000000" stroke-opacity="1" stroke-width="1" stroke-linecap="square" stroke-linejoin="bevel" transform="matrix(0.999948,0,0,-0.999948,4645.84,2896.68)"
font-family="MS Shell Dlg 2" font-size="10.3125" font-weight="400" font-style="normal" 
>
</g>

<g fill="none" stroke="#333333" stroke-opacity="1" stroke-width="1" stroke-linecap="round" stroke-linejoin="round" transform="matrix(0.999948,0,0,-0.999948,4645.84,2896.68)"
font-family="MS Shell Dlg 2" font-size="10.3125" font-weight="400" font-style="normal" 
>
<path vector-effect="non-scaling-stroke" fill-rule="evenodd" d="M-664.128,2285.45 L1974.41,2797.07"/>
</g>

<g fill="none" stroke="#000000" stroke-opacity="1" stroke-width="1" stroke-linecap="square" stroke-linejoin="bevel" transform="matrix(0.999948,0,0,-0.999948,4645.84,2896.68)"
font-family="MS Shell Dlg 2" font-size="10.3125" font-weight="400" font-style="normal" 
>
</g>

<g fill="none" stroke="#000000" stroke-opacity="1" stroke-width="1" stroke-linecap="square" stroke-linejoin="bevel" transform="matrix(0.999948,0,0,-0.999948,4645.84,2896.68)"
font-family="MS Shell Dlg 2" font-size="10.3125" font-weight="400" font-style="normal" 
>
</g>

<g fill="#ffff00" fill-opacity="0.2" stroke="#333333" stroke-opacity="1" stroke-width="1" stroke-linecap="round" stroke-linejoin="round" transform="matrix(0.999948,0,0,-0.999948,4645.84,2896.68)"
font-family="MS Shell Dlg 2" font-size="10.3125" font-weight="400" font-style="normal" 
>
<path vector-effect="non-scaling-stroke" fill-rule="evenodd" d="M-2004.6,2128.4 L-684.674,2384.35 L-684.155,2384.37 L-683.685,2384.24 L-683.337,2383.98 L-683.164,2383.62 L-664.128,2285.45 L-645.092,2187.28 L-645.12,2186.88 L-645.344,2186.51 L-645.731,2186.21 L-646.222,2186.04 L-1966.15,1930.1 L-1966.67,1930.07 L-1967.14,1930.2 L-1967.49,1930.47 L-1967.66,1930.82 L-1986.69,2028.99 L-2005.73,2127.17 L-2005.7,2127.56 L-2005.48,2127.94 L-2005.09,2128.23 L-2004.6,2128.4"/>
</g>

<g fill="none" stroke="#000000" stroke-opacity="1" stroke-width="1" stroke-linecap="square" stroke-linejoin="bevel" transform="matrix(0.999948,0,0,-0.999948,4645.84,2896.68)"
font-family="MS Shell Dlg 2" font-size="10.3125" font-weight="400" font-style="normal" 
>
</g>

<g fill="none" stroke="#000000" stroke-opacity="1" stroke-width="1" stroke-linecap="square" stroke-linejoin="bevel" transform="matrix(0.999948,0,0,-0.999948,4645.84,2896.68)"
font-family="MS Shell Dlg 2" font-size="10.3125" font-weight="400" font-style="normal" 
>
</g>

<g fill="#ae5151" fill-opacity="0.2" stroke="#333333" stroke-opacity="1" stroke-width="1" stroke-linecap="round" stroke-linejoin="round" transform="matrix(0.999948,0,0,-0.999948,4645.84,2896.68)"
font-family="MS Shell Dlg 2" font-size="10.3125" font-weight="400" font-style="normal" 
>
<path vector-effect="non-scaling-stroke" fill-rule="evenodd" d="M-3306.43,1772.07 L-4625.04,1516.39 L-4625.56,1516.36 L-4626.03,1516.49 L-4626.38,1516.76 L-4626.55,1517.11 L-4645.58,1615.28 L-4645.56,1615.68 L-4645.33,1616.05 L-4644.95,1616.35 L-4644.45,1616.52 L-3324.53,1872.46 L-3324.01,1872.49 L-3323.54,1872.36 L-3323.19,1872.09 L-3323.02,1871.74 L-3304.17,1774.55 L-1986.89,2029.98 L-2005.73,2127.17 L-2005.7,2127.56 L-2005.48,2127.94 L-2005.09,2128.23 L-2004.6,2128.4 L-684.674,2384.35 L-684.155,2384.37 L-683.685,2384.24 L-683.337,2383.98 L-683.164,2383.62 L-664.318,2286.43 L652.969,2541.86 L634.123,2639.05 L634.151,2639.44 L634.375,2639.82 L634.762,2640.11 L635.253,2640.29 L1955.18,2896.23 L1955.7,2896.25 L1956.17,2896.12 L1956.52,2895.86 L1956.69,2895.5 L1975.73,2797.33 L1975.7,2796.94 L1975.47,2796.56 L1975.09,2796.27 L1974.6,2796.09 L655.989,2540.41 L674.835,2443.22 L674.807,2442.82 L674.583,2442.45 L674.196,2442.15 L673.705,2441.98 L-3286.08,1674.16 L-3286.59,1674.13 L-3287.06,1674.26 L-3287.41,1674.53 L-3287.59,1674.88 L-3306.43,1772.07"/>
</g>

<g fill="none" stroke="#000000" stroke-opacity="1" stroke-width="1" stroke-linecap="square" stroke-linejoin="bevel" transform="matrix(0.999948,0,0,-0.999948,4645.84,2896.68)"
font-family="MS Shell Dlg 2" font-size="10.3125" font-weight="400" font-style="normal" 
>
</g>

<g fill="none" stroke="#000000" stroke-opacity="1" stroke-width="1" stroke-linecap="square" stroke-linejoin="bevel" transform="matrix(0.999948,0,0,-0.999948,4645.84,2896.68)"
font-family="MS Shell Dlg 2" font-size="10.3125" font-weight="400" font-style="normal" 
>
</g>

<g fill="#333333" fill-opacity="0.2" stroke="#333333" stroke-opacity="1" stroke-width="1" stroke-linecap="round" stroke-linejoin="round" transform="matrix(0.999948,0,0,-0.999948,4645.84,2896.68)"
font-family="MS Shell Dlg 2" font-size="10.3125" font-weight="400" font-style="normal" 
>
<path vector-effect="non-scaling-stroke" fill-rule="evenodd" d="M-3306.43,1772.07 L-4625.04,1516.39 L-4625.56,1516.36 L-4626.03,1516.49 L-4626.38,1516.76 L-4626.55,1517.11 L-4645.58,1615.28 L-4645.56,1615.68 L-4645.33,1616.05 L-4644.95,1616.35 L-4644.45,1616.52 L-3324.53,1872.46 L-3324.01,1872.49 L-3323.54,1872.36 L-3323.19,1872.09 L-3323.02,1871.74 L-3304.17,1774.55 L-1986.89,2029.98 L-2005.73,2127.17 L-2005.7,2127.56 L-2005.48,2127.94 L-2005.09,2128.23 L-2004.6,2128.4 L-684.674,2384.35 L-684.155,2384.37 L-683.685,2384.24 L-683.337,2383.98 L-683.164,2383.62 L-664.318,2286.43 L652.969,2541.86 L634.123,2639.05 L634.151,2639.44 L634.375,2639.82 L634.762,2640.11 L635.253,2640.29 L1955.18,2896.23 L1955.7,2896.25 L1956.17,2896.12 L1956.52,2895.86 L1956.69,2895.5 L1975.73,2797.33 L1975.7,2796.94 L1975.47,2796.56 L1975.09,2796.27 L1974.6,2796.09 L655.989,2540.41 L674.835,2443.22 L674.807,2442.82 L674.583,2442.45 L674.196,2442.15 L673.705,2441.98 L-3286.08,1674.16 L-3286.59,1674.13 L-3287.06,1674.26 L-3287.41,1674.53 L-3287.59,1674.88 L-3306.43,1772.07"/>
</g>

<g fill="none" stroke="#000000" stroke-opacity="1" stroke-width="1" stroke-linecap="square" stroke-linejoin="bevel" transform="matrix(0.999948,0,0,-0.999948,4645.84,2896.68)"
font-family="MS Shell Dlg 2" font-size="10.3125" font-weight="400" font-style="normal" 
>
</g>

<g fill="none" stroke="#000000" stroke-opacity="1" stroke-width="1" stroke-linecap="square" stroke-linejoin="bevel" transform="matrix(1,0,0,-1,0,1479.06)"
font-family="MS Shell Dlg 2" font-size="10.3125" font-weight="400" font-style="normal" 
>
</g>
</g>
</svg>
