<?xml version="1.0" encoding="UTF-8" standalone="no"?>
<svg width="1890.89mm" height="389.467mm"
 xmlns="http://www.w3.org/2000/svg" xmlns:xlink="http://www.w3.org/1999/xlink"  version="1.2" baseProfile="tiny">
<title>SVG Generator Example Drawing</title>
<desc>An SVG drawing created by the SVG Generator</desc>
<defs>
</defs>
<g fill="none" stroke="black" stroke-width="1" fill-rule="evenodd" stroke-linecap="square" stroke-linejoin="bevel" >

<g fill="none" stroke="#000000" stroke-opacity="1" stroke-width="1" stroke-linecap="square" stroke-linejoin="bevel" transform="matrix(1,0,0,-1,0,1380.71)"
font-family="MS Shell Dlg 2" font-size="10.3125" font-weight="400" font-style="normal" 
>
</g>

<g fill="none" stroke="#000000" stroke-opacity="1" stroke-width="1" stroke-linecap="square" stroke-linejoin="bevel" transform="matrix(1,0,0,-1,0,1380.71)"
font-family="MS Shell Dlg 2" font-size="10.3125" font-weight="400" font-style="normal" 
>
</g>

<g fill="none" stroke="#000000" stroke-opacity="1" stroke-width="1" stroke-linecap="square" stroke-linejoin="bevel" transform="matrix(0.999488,0,0,-0.999488,4673.34,2846.82)"
font-family="MS Shell Dlg 2" font-size="10.3125" font-weight="400" font-style="normal" 
>
</g>

<g fill="#ffff00" fill-opacity="0.2" stroke="#333333" stroke-opacity="1" stroke-width="1" stroke-linecap="round" stroke-linejoin="round" transform="matrix(0.999488,0,0,-0.999488,4673.34,2846.82)"
font-family="MS Shell Dlg 2" font-size="10.3125" font-weight="400" font-style="normal" 
>
<path vector-effect="non-scaling-stroke" fill-rule="evenodd" d="M1964.89,2846.16 L1974.65,2847.07 L1984.4,2846.07 L1993.76,2843.18 L2002.38,2838.51 L2009.93,2832.26 L2016.11,2824.65 L2020.69,2815.99 L2023.49,2806.59 L2024.41,2796.83 L2023.4,2787.08 L2020.51,2777.72 L2015.84,2769.1 L2009.59,2761.55 L2001.98,2755.37 L1993.32,2750.79 L1983.92,2747.99 L-4615.71,1468.28 L-4625.47,1467.37 L-4635.22,1468.38 L-4644.59,1471.27 L-4653.21,1475.93 L-4660.75,1482.18 L-4666.94,1489.79 L-4671.51,1498.46 L-4674.31,1507.85 L-4675.23,1517.61 L-4674.22,1527.36 L-4671.33,1536.72 L-4666.67,1545.35 L-4660.41,1552.89 L-4652.81,1559.07 L-4644.14,1563.65 L-4634.75,1566.45 L1964.89,2846.16"/>
</g>

<g fill="none" stroke="#000000" stroke-opacity="1" stroke-width="1" stroke-linecap="square" stroke-linejoin="bevel" transform="matrix(0.999488,0,0,-0.999488,4673.34,2846.82)"
font-family="MS Shell Dlg 2" font-size="10.3125" font-weight="400" font-style="normal" 
>
</g>

<g fill="none" stroke="#000000" stroke-opacity="1" stroke-width="1" stroke-linecap="square" stroke-linejoin="bevel" transform="matrix(1,0,0,-1,0,1380.71)"
font-family="MS Shell Dlg 2" font-size="10.3125" font-weight="400" font-style="normal" 
>
</g>
</g>
</svg>
