<?xml version="1.0" encoding="UTF-8" standalone="no"?>
<svg width="1905mm" height="430.671mm"
 xmlns="http://www.w3.org/2000/svg" xmlns:xlink="http://www.w3.org/1999/xlink"  version="1.2" baseProfile="tiny">
<title>SVG Generator Example Drawing</title>
<desc>An SVG drawing created by the SVG Generator</desc>
<defs>
</defs>
<g fill="none" stroke="black" stroke-width="1" fill-rule="evenodd" stroke-linecap="square" stroke-linejoin="bevel" >

<g fill="none" stroke="#000000" stroke-opacity="1" stroke-width="1" stroke-linecap="square" stroke-linejoin="bevel" transform="matrix(1,0,0,-1,0,1526.14)"
font-family="MS Shell Dlg 2" font-size="10.3125" font-weight="400" font-style="normal" 
>
</g>

<g fill="none" stroke="#000000" stroke-opacity="1" stroke-width="1" stroke-linecap="square" stroke-linejoin="bevel" transform="matrix(1,0,0,-1,0,1526.14)"
font-family="MS Shell Dlg 2" font-size="10.3125" font-weight="400" font-style="normal" 
>
</g>

<g fill="none" stroke="#000000" stroke-opacity="1" stroke-width="1" stroke-linecap="square" stroke-linejoin="bevel" transform="matrix(0.999911,0,0,-0.999911,4700.2,2920.16)"
font-family="MS Shell Dlg 2" font-size="10.3125" font-weight="400" font-style="normal" 
>
</g>

<g fill="#ffff00" fill-opacity="0.2" stroke="#333333" stroke-opacity="1" stroke-width="1" stroke-linecap="round" stroke-linejoin="round" transform="matrix(0.999911,0,0,-0.999911,4700.2,2920.16)"
font-family="MS Shell Dlg 2" font-size="10.3125" font-weight="400" font-style="normal" 
>
<path vector-effect="non-scaling-stroke" fill-rule="evenodd" d="M-4663.2,1581.86 L-4668.81,1610.78 L-4649.02,1640.08 L1950.61,2919.79 L1979.91,2900.01 L1985.52,2871.08 L1986.97,2870.93 L1991.77,2869.95 L2001.13,2867.06 L2005.65,2865.17 L2014.28,2860.51 L2018.34,2857.76 L2025.88,2851.51 L2029.33,2848.03 L2035.51,2840.42 L2038.22,2836.33 L2042.8,2827.66 L2044.65,2823.13 L2047.45,2813.73 L2048.38,2808.92 L2049.3,2799.16 L2049.27,2794.26 L2048.27,2784.51 L2047.29,2779.71 L2044.4,2770.35 L2042.5,2765.83 L2037.84,2757.21 L2035.09,2753.14 L2028.84,2745.6 L2025.36,2742.15 L2017.75,2735.97 L2013.66,2733.26 L2012.38,2732.58 L2017.98,2703.66 L1998.2,2674.36 L-4601.43,1394.65 L-4630.74,1414.44 L-4636.34,1443.36 L-4637.79,1443.51 L-4642.59,1444.49 L-4651.96,1447.38 L-4656.48,1449.28 L-4665.1,1453.94 L-4669.16,1456.68 L-4676.71,1462.93 L-4680.16,1466.42 L-4686.34,1474.02 L-4689.04,1478.11 L-4693.62,1486.78 L-4695.47,1491.31 L-4698.27,1500.71 L-4699.21,1505.52 L-4700.12,1515.28 L-4700.1,1520.18 L-4699.09,1529.93 L-4698.11,1534.73 L-4695.22,1544.1 L-4693.32,1548.62 L-4688.66,1557.24 L-4685.92,1561.3 L-4679.66,1568.85 L-4676.18,1572.29 L-4668.57,1578.48 L-4664.48,1581.18 L-4663.2,1581.86"/>
</g>

<g fill="none" stroke="#000000" stroke-opacity="1" stroke-width="1" stroke-linecap="square" stroke-linejoin="bevel" transform="matrix(0.999911,0,0,-0.999911,4700.2,2920.16)"
font-family="MS Shell Dlg 2" font-size="10.3125" font-weight="400" font-style="normal" 
>
</g>

<g fill="none" stroke="#000000" stroke-opacity="1" stroke-width="1" stroke-linecap="square" stroke-linejoin="bevel" transform="matrix(1,0,0,-1,0,1526.14)"
font-family="MS Shell Dlg 2" font-size="10.3125" font-weight="400" font-style="normal" 
>
</g>
</g>
</svg>
