<?xml version="1.0" encoding="UTF-8" standalone="no"?>
<svg width="1890.89mm" height="399.909mm"
 xmlns="http://www.w3.org/2000/svg" xmlns:xlink="http://www.w3.org/1999/xlink"  version="1.2" baseProfile="tiny">
<title>SVG Generator Example Drawing</title>
<desc>An SVG drawing created by the SVG Generator</desc>
<defs>
</defs>
<g fill="none" stroke="black" stroke-width="1" fill-rule="evenodd" stroke-linecap="square" stroke-linejoin="bevel" >

<g fill="none" stroke="#000000" stroke-opacity="1" stroke-width="1" stroke-linecap="square" stroke-linejoin="bevel" transform="matrix(1,0,0,-1,0,1417.21)"
font-family="MS Shell Dlg 2" font-size="10.3125" font-weight="400" font-style="normal" 
>
</g>

<g fill="none" stroke="#000000" stroke-opacity="1" stroke-width="1" stroke-linecap="square" stroke-linejoin="bevel" transform="matrix(1,0,0,-1,0,1417.21)"
font-family="MS Shell Dlg 2" font-size="10.3125" font-weight="400" font-style="normal" 
>
</g>

<g fill="none" stroke="#000000" stroke-opacity="1" stroke-width="1" stroke-linecap="square" stroke-linejoin="bevel" transform="matrix(0.999849,0,0,-0.999849,4674.81,2865.69)"
font-family="MS Shell Dlg 2" font-size="10.3125" font-weight="400" font-style="normal" 
>
</g>

<g fill="#ffff00" fill-opacity="0.2" stroke="#333333" stroke-opacity="1" stroke-width="1" stroke-linecap="round" stroke-linejoin="round" transform="matrix(0.999849,0,0,-0.999849,4674.81,2865.69)"
font-family="MS Shell Dlg 2" font-size="10.3125" font-weight="400" font-style="normal" 
>
<path vector-effect="non-scaling-stroke" fill-rule="evenodd" d="M-4651.47,1559.67 L-4647.64,1562.16 L-4644.33,1565.31 L-4641.64,1569 L-4639.67,1573.12 L-4638.47,1577.53 L-4638.1,1582.09 L-4638.45,1585.54 L-4612.01,1449.19 L-4612.98,1452.53 L-4615.03,1456.61 L-4617.78,1460.26 L-4621.15,1463.34 L-4625.03,1465.76 L-4629.28,1467.44 L-4633.76,1468.33 L-4633.98,1468.35 L-4636.37,1468.83 L-4643.38,1471 L-4645.62,1471.94 L-4652.07,1475.43 L-4654.09,1476.79 L-4659.74,1481.47 L-4661.45,1483.2 L-4666.08,1488.9 L-4667.42,1490.93 L-4670.85,1497.41 L-4671.77,1499.67 L-4673.87,1506.7 L-4674.33,1509.09 L-4675.01,1516.39 L-4675,1518.82 L-4674.25,1526.12 L-4673.76,1528.51 L-4671.6,1535.52 L-4670.66,1537.76 L-4667.17,1544.21 L-4665.8,1546.23 L-4661.12,1551.88 L-4659.39,1553.59 L-4653.7,1558.22 L-4651.67,1559.56 L-4651.47,1559.67"/>
</g>

<g fill="none" stroke="#000000" stroke-opacity="1" stroke-width="1" stroke-linecap="square" stroke-linejoin="bevel" transform="matrix(0.999849,0,0,-0.999849,4674.81,2865.69)"
font-family="MS Shell Dlg 2" font-size="10.3125" font-weight="400" font-style="normal" 
>
</g>

<g fill="none" stroke="#000000" stroke-opacity="1" stroke-width="1" stroke-linecap="square" stroke-linejoin="bevel" transform="matrix(0.999849,0,0,-0.999849,4674.81,2865.69)"
font-family="MS Shell Dlg 2" font-size="10.3125" font-weight="400" font-style="normal" 
>
</g>

<g fill="#ffff00" fill-opacity="0.2" stroke="#333333" stroke-opacity="1" stroke-width="1" stroke-linecap="round" stroke-linejoin="round" transform="matrix(0.999849,0,0,-0.999849,4674.81,2865.69)"
font-family="MS Shell Dlg 2" font-size="10.3125" font-weight="400" font-style="normal" 
>
<path vector-effect="non-scaling-stroke" fill-rule="evenodd" d="M1961.16,2865.41 L1962.44,2861.21 L1965.05,2856.56 L1968.58,2852.57 L1972.87,2849.41 L1977.73,2847.22 L1982.94,2846.12 L1983.16,2846.09 L1985.55,2845.61 L1992.55,2843.44 L1994.8,2842.5 L2001.25,2839.01 L2003.27,2837.65 L2008.92,2832.97 L2010.63,2831.24 L2015.26,2825.55 L2016.6,2823.52 L2020.03,2817.03 L2020.95,2814.78 L2023.04,2807.75 L2023.51,2805.36 L2024.19,2798.05 L2024.18,2795.62 L2023.42,2788.32 L2022.94,2785.94 L2020.78,2778.93 L2019.83,2776.68 L2016.34,2770.23 L2014.98,2768.21 L2010.3,2762.56 L2008.57,2760.85 L2002.88,2756.22 L2000.85,2754.88 L2000.65,2754.78 L1996.23,2751.8 L1992.54,2747.96 L1989.74,2743.43 L1987.96,2738.4 L1987.28,2733.12 L1987.66,2728.74 L1961.16,2865.41"/>
</g>

<g fill="none" stroke="#000000" stroke-opacity="1" stroke-width="1" stroke-linecap="square" stroke-linejoin="bevel" transform="matrix(0.999849,0,0,-0.999849,4674.81,2865.69)"
font-family="MS Shell Dlg 2" font-size="10.3125" font-weight="400" font-style="normal" 
>
</g>

<g fill="none" stroke="#000000" stroke-opacity="1" stroke-width="1" stroke-linecap="square" stroke-linejoin="bevel" transform="matrix(1,0,0,-1,0,1417.21)"
font-family="MS Shell Dlg 2" font-size="10.3125" font-weight="400" font-style="normal" 
>
</g>
</g>
</svg>
