<?xml version="1.0" encoding="UTF-8" standalone="no"?>
<svg width="1905mm" height="414.02mm"
 xmlns="http://www.w3.org/2000/svg" xmlns:xlink="http://www.w3.org/1999/xlink"  version="1.2" baseProfile="tiny">
<title>SVG Generator Example Drawing</title>
<desc>An SVG drawing created by the SVG Generator</desc>
<defs>
</defs>
<g fill="none" stroke="black" stroke-width="1" fill-rule="evenodd" stroke-linecap="square" stroke-linejoin="bevel" >

<g fill="none" stroke="#000000" stroke-opacity="1" stroke-width="1" stroke-linecap="square" stroke-linejoin="bevel" transform="matrix(1,0,0,-1,0,1467.14)"
font-family="MS Shell Dlg 2" font-size="10.3125" font-weight="400" font-style="normal" 
>
</g>

<g fill="none" stroke="#000000" stroke-opacity="1" stroke-width="1" stroke-linecap="square" stroke-linejoin="bevel" transform="matrix(1,0,0,-1,0,1467.14)"
font-family="MS Shell Dlg 2" font-size="10.3125" font-weight="400" font-style="normal" 
>
</g>

<g fill="none" stroke="#000000" stroke-opacity="1" stroke-width="1" stroke-linecap="square" stroke-linejoin="bevel" transform="matrix(0.999902,0,0,-0.999902,4700.05,2890.72)"
font-family="MS Shell Dlg 2" font-size="10.3125" font-weight="400" font-style="normal" 
>
</g>

<g fill="#ffff00" fill-opacity="0.2" stroke="#333333" stroke-opacity="1" stroke-width="1" stroke-linecap="round" stroke-linejoin="round" transform="matrix(0.999902,0,0,-0.999902,4700.05,2890.72)"
font-family="MS Shell Dlg 2" font-size="10.3125" font-weight="400" font-style="normal" 
>
<path vector-effect="non-scaling-stroke" fill-rule="evenodd" d="M-4665.06,1580.65 L-4663.2,1581.86 L-4663.32,1583.04 L-4663.35,1587.8 L-4662.47,1592.47 L-4660.72,1596.9 L-4658.16,1600.92 L-4654.89,1604.37 L-4651.03,1607.15 L-4646.71,1609.14 L-4642.08,1610.28 L-4637.33,1610.52 L-4632.62,1609.85 L-4628.12,1608.31 L-4623.99,1605.94 L-4620.39,1602.83 L-4617.44,1599.09 L-4615.25,1594.87 L-4613.91,1590.3 L-4587.47,1453.95 L-4587.01,1449.21 L-4587.46,1444.48 L-4588.8,1439.91 L-4590.98,1435.68 L-4593.92,1431.94 L-4597.52,1428.82 L-4601.64,1426.44 L-4606.14,1424.89 L-4610.85,1424.22 L-4615.6,1424.45 L-4620.22,1425.58 L-4624.55,1427.56 L-4628.42,1430.33 L-4631.7,1433.78 L-4634.26,1437.8 L-4636.02,1442.22 L-4636.35,1443.36 L-4638.52,1443.78 L-4638.98,1443.85 L-4641.36,1444.34 L-4643.74,1444.95 L-4650.75,1447.11 L-4653.06,1447.95 L-4655.3,1448.89 L-4657.51,1449.95 L-4663.97,1453.44 L-4666.06,1454.71 L-4668.08,1456.07 L-4670.05,1457.54 L-4675.69,1462.22 L-4677.5,1463.88 L-4679.22,1465.61 L-4680.86,1467.44 L-4685.48,1473.13 L-4686.93,1475.11 L-4688.28,1477.14 L-4689.53,1479.25 L-4692.95,1485.73 L-4693.99,1487.96 L-4694.91,1490.21 L-4695.73,1492.52 L-4697.82,1499.55 L-4698.41,1501.94 L-4698.87,1504.33 L-4699.22,1506.76 L-4699.9,1514.06 L-4700.01,1516.51 L-4700,1518.95 L-4699.87,1521.4 L-4699.12,1528.69 L-4698.74,1531.12 L-4698.26,1533.5 L-4697.65,1535.88 L-4695.49,1542.89 L-4694.65,1545.19 L-4693.71,1547.44 L-4692.65,1549.65 L-4689.16,1556.1 L-4687.89,1558.2 L-4686.52,1560.22 L-4685.05,1562.18 L-4680.37,1567.83 L-4678.72,1569.64 L-4676.99,1571.36 L-4675.16,1572.99 L-4669.47,1577.62 L-4667.49,1579.07 L-4665.46,1580.42 L-4665.06,1580.65"/>
</g>

<g fill="none" stroke="#000000" stroke-opacity="1" stroke-width="1" stroke-linecap="square" stroke-linejoin="bevel" transform="matrix(0.999902,0,0,-0.999902,4700.05,2890.72)"
font-family="MS Shell Dlg 2" font-size="10.3125" font-weight="400" font-style="normal" 
>
</g>

<g fill="none" stroke="#000000" stroke-opacity="1" stroke-width="1" stroke-linecap="square" stroke-linejoin="bevel" transform="matrix(0.999902,0,0,-0.999902,4700.05,2890.72)"
font-family="MS Shell Dlg 2" font-size="10.3125" font-weight="400" font-style="normal" 
>
</g>

<g fill="#ffff00" fill-opacity="0.2" stroke="#333333" stroke-opacity="1" stroke-width="1" stroke-linecap="round" stroke-linejoin="round" transform="matrix(0.999902,0,0,-0.999902,4700.05,2890.72)"
font-family="MS Shell Dlg 2" font-size="10.3125" font-weight="400" font-style="normal" 
>
<path vector-effect="non-scaling-stroke" fill-rule="evenodd" d="M1936.61,2860.65 L1936.16,2865.68 L1936.72,2870.69 L1938.28,2875.5 L1940.78,2879.89 L1944.1,2883.69 L1948.13,2886.74 L1952.68,2888.92 L1957.58,2890.15 L1962.63,2890.36 L1967.61,2889.56 L1972.33,2887.77 L1976.6,2885.06 L1980.24,2881.56 L1983.09,2877.4 L1985.06,2872.74 L1985.55,2871.12 L1987.76,2870.65 L1988.16,2870.59 L1990.54,2870.1 L1992.92,2869.5 L1999.93,2867.33 L2002.23,2866.49 L2004.48,2865.55 L2006.69,2864.49 L2013.14,2861 L2015.24,2859.73 L2017.26,2858.37 L2019.22,2856.9 L2024.87,2852.22 L2026.68,2850.56 L2028.39,2848.83 L2030.03,2847.01 L2034.66,2841.31 L2036.11,2839.34 L2037.45,2837.3 L2038.7,2835.19 L2042.13,2828.71 L2043.17,2826.49 L2044.09,2824.23 L2044.91,2821.92 L2047,2814.89 L2047.59,2812.51 L2048.05,2810.11 L2048.4,2807.69 L2049.08,2800.38 L2049.19,2797.93 L2049.18,2795.5 L2049.05,2793.05 L2048.29,2785.75 L2047.92,2783.33 L2047.43,2780.94 L2046.83,2778.56 L2044.66,2771.55 L2043.83,2769.25 L2042.88,2767 L2041.82,2764.79 L2038.33,2758.34 L2037.06,2756.24 L2035.7,2754.22 L2034.23,2752.26 L2029.55,2746.61 L2027.89,2744.8 L2026.16,2743.09 L2024.34,2741.45 L2018.64,2736.82 L2016.67,2735.37 L2014.68,2734.05 L2012.42,2732.55 L2012.56,2730.87 L2012.48,2725.82 L2011.39,2720.89 L2009.33,2716.28 L2006.38,2712.18 L2002.67,2708.76 L1998.35,2706.15 L1993.59,2704.46 L1988.58,2703.76 L1983.54,2704.09 L1978.67,2705.41 L1974.17,2707.7 L1970.21,2710.84 L1966.97,2714.71 L1964.57,2719.15 L1963.11,2723.99 L1936.61,2860.65"/>
</g>

<g fill="none" stroke="#000000" stroke-opacity="1" stroke-width="1" stroke-linecap="square" stroke-linejoin="bevel" transform="matrix(0.999902,0,0,-0.999902,4700.05,2890.72)"
font-family="MS Shell Dlg 2" font-size="10.3125" font-weight="400" font-style="normal" 
>
</g>

<g fill="none" stroke="#000000" stroke-opacity="1" stroke-width="1" stroke-linecap="square" stroke-linejoin="bevel" transform="matrix(1,0,0,-1,0,1467.14)"
font-family="MS Shell Dlg 2" font-size="10.3125" font-weight="400" font-style="normal" 
>
</g>
</g>
</svg>
