<?xml version="1.0" encoding="UTF-8" standalone="no"?>
<svg width="1905mm" height="417.407mm"
 xmlns="http://www.w3.org/2000/svg" xmlns:xlink="http://www.w3.org/1999/xlink"  version="1.2" baseProfile="tiny">
<title>SVG Generator Example Drawing</title>
<desc>An SVG drawing created by the SVG Generator</desc>
<defs>
</defs>
<g fill="none" stroke="black" stroke-width="1" fill-rule="evenodd" stroke-linecap="square" stroke-linejoin="bevel" >

<g fill="none" stroke="#000000" stroke-opacity="1" stroke-width="1" stroke-linecap="square" stroke-linejoin="bevel" transform="matrix(1,0,0,-1,0,1479.06)"
font-family="MS Shell Dlg 2" font-size="10.3125" font-weight="400" font-style="normal" 
>
</g>

<g fill="none" stroke="#000000" stroke-opacity="1" stroke-width="1" stroke-linecap="square" stroke-linejoin="bevel" transform="matrix(1,0,0,-1,0,1479.06)"
font-family="MS Shell Dlg 2" font-size="10.3125" font-weight="400" font-style="normal" 
>
</g>

<g fill="none" stroke="#000000" stroke-opacity="1" stroke-width="1" stroke-linecap="square" stroke-linejoin="bevel" transform="matrix(0.999959,0,0,-0.999959,4700.32,2896.69)"
font-family="MS Shell Dlg 2" font-size="10.3125" font-weight="400" font-style="normal" 
>
</g>

<g fill="#333333" fill-opacity="0.2" stroke="#333333" stroke-opacity="1" stroke-width="1" stroke-linecap="round" stroke-linejoin="round" transform="matrix(0.999959,0,0,-0.999959,4700.32,2896.69)"
font-family="MS Shell Dlg 2" font-size="10.3125" font-weight="400" font-style="normal" 
>
<path vector-effect="non-scaling-stroke" fill-rule="evenodd" d="M-3306.81,1774.03 L-3325.66,1871.22 L-3325.63,1871.62 L-3325.41,1871.99 L-3325.02,1872.29 L-3324.53,1872.46 L635.253,2640.29 L635.772,2640.31 L636.242,2640.18 L636.59,2639.92 L636.763,2639.56 L655.609,2542.37 L1974.22,2798.06 L1956.41,2889.86 L1957.58,2890.15 L1962.63,2890.36 L1967.61,2889.56 L1972.33,2887.77 L1976.6,2885.06 L1980.24,2881.56 L1983.09,2877.4 L1985.06,2872.74 L1985.55,2871.12 L1987.76,2870.65 L1988.16,2870.59 L1990.54,2870.1 L1992.92,2869.5 L1999.93,2867.33 L2002.23,2866.49 L2004.48,2865.55 L2006.69,2864.49 L2013.14,2861 L2015.24,2859.73 L2017.26,2858.37 L2019.22,2856.9 L2024.87,2852.22 L2026.68,2850.56 L2028.39,2848.83 L2030.03,2847.01 L2034.66,2841.31 L2036.11,2839.34 L2037.45,2837.3 L2038.7,2835.19 L2042.13,2828.71 L2043.17,2826.49 L2044.09,2824.23 L2044.91,2821.92 L2047,2814.89 L2047.59,2812.51 L2048.05,2810.11 L2048.4,2807.69 L2049.08,2800.38 L2049.19,2797.93 L2049.18,2795.5 L2049.05,2793.05 L2048.29,2785.75 L2047.92,2783.33 L2047.43,2780.94 L2046.83,2778.56 L2044.66,2771.55 L2043.83,2769.25 L2042.88,2767 L2041.82,2764.79 L2038.33,2758.34 L2037.06,2756.24 L2035.7,2754.22 L2034.23,2752.26 L2029.55,2746.61 L2027.89,2744.8 L2026.16,2743.09 L2024.34,2741.45 L2018.64,2736.82 L2016.67,2735.37 L2014.68,2734.05 L2012.42,2732.55 L2012.56,2730.87 L2012.48,2725.82 L2011.39,2720.89 L2009.33,2716.28 L2006.38,2712.18 L2002.67,2708.76 L1998.35,2706.15 L1993.72,2704.51 L1994.76,2699.16 L1994.73,2698.76 L1994.51,2698.39 L1994.12,2698.09 L1993.63,2697.92 L673.705,2441.98 L673.186,2441.96 L672.716,2442.09 L672.368,2442.35 L672.195,2442.71 L653.349,2539.9 L-663.938,2284.47 L-645.092,2187.28 L-645.12,2186.88 L-645.344,2186.51 L-645.731,2186.21 L-646.222,2186.04 L-1966.15,1930.1 L-1966.67,1930.07 L-1967.14,1930.2 L-1967.49,1930.47 L-1967.66,1930.82 L-1986.5,2028.01 L-3303.79,1772.58 L-3284.95,1675.39 L-3284.97,1675 L-3285.2,1674.62 L-3285.58,1674.33 L-3286.08,1674.16 L-4606,1418.21 L-4606.52,1418.19 L-4606.99,1418.32 L-4607.34,1418.58 L-4607.51,1418.94 L-4608.6,1424.54 L-4610.85,1424.22 L-4615.6,1424.45 L-4620.22,1425.58 L-4624.55,1427.56 L-4628.42,1430.33 L-4631.7,1433.78 L-4634.26,1437.8 L-4636.02,1442.22 L-4636.35,1443.36 L-4638.52,1443.78 L-4638.98,1443.85 L-4641.36,1444.34 L-4643.74,1444.95 L-4650.75,1447.11 L-4653.06,1447.95 L-4655.3,1448.89 L-4657.51,1449.95 L-4663.97,1453.44 L-4666.06,1454.71 L-4668.08,1456.07 L-4670.05,1457.54 L-4675.69,1462.22 L-4677.5,1463.88 L-4679.22,1465.61 L-4680.86,1467.44 L-4685.48,1473.13 L-4686.93,1475.11 L-4688.28,1477.14 L-4689.53,1479.25 L-4692.95,1485.73 L-4693.99,1487.96 L-4694.91,1490.21 L-4695.73,1492.52 L-4697.82,1499.55 L-4698.41,1501.94 L-4698.87,1504.33 L-4699.22,1506.76 L-4699.9,1514.06 L-4700.01,1516.51 L-4700,1518.95 L-4699.87,1521.4 L-4699.12,1528.69 L-4698.74,1531.12 L-4698.26,1533.5 L-4697.65,1535.88 L-4695.49,1542.89 L-4694.65,1545.19 L-4693.71,1547.44 L-4692.65,1549.65 L-4689.16,1556.1 L-4687.89,1558.2 L-4686.52,1560.22 L-4685.05,1562.18 L-4680.37,1567.83 L-4678.72,1569.64 L-4676.99,1571.36 L-4675.16,1572.99 L-4669.47,1577.62 L-4667.49,1579.07 L-4665.46,1580.42 L-4665.06,1580.65 L-4663.2,1581.86 L-4663.32,1583.04 L-4663.35,1587.8 L-4662.47,1592.47 L-4660.72,1596.9 L-4658.16,1600.92 L-4654.89,1604.37 L-4651.03,1607.15 L-4646.71,1609.14 L-4643.19,1610 L-4625.42,1518.35 L-3306.81,1774.03"/>
</g>

<g fill="none" stroke="#000000" stroke-opacity="1" stroke-width="1" stroke-linecap="square" stroke-linejoin="bevel" transform="matrix(0.999959,0,0,-0.999959,4700.32,2896.69)"
font-family="MS Shell Dlg 2" font-size="10.3125" font-weight="400" font-style="normal" 
>
</g>

<g fill="none" stroke="#000000" stroke-opacity="1" stroke-width="1" stroke-linecap="square" stroke-linejoin="bevel" transform="matrix(0.999959,0,0,-0.999959,4700.32,2896.69)"
font-family="MS Shell Dlg 2" font-size="10.3125" font-weight="400" font-style="normal" 
>
</g>

<g fill="#ae5151" fill-opacity="0.2" stroke="#333333" stroke-opacity="1" stroke-width="1" stroke-linecap="round" stroke-linejoin="round" transform="matrix(0.999959,0,0,-0.999959,4700.32,2896.69)"
font-family="MS Shell Dlg 2" font-size="10.3125" font-weight="400" font-style="normal" 
>
<path vector-effect="non-scaling-stroke" fill-rule="evenodd" d="M-3306.81,1774.03 L-3325.66,1871.22 L-3325.63,1871.62 L-3325.41,1871.99 L-3325.02,1872.29 L-3324.53,1872.46 L635.253,2640.29 L635.772,2640.31 L636.242,2640.18 L636.59,2639.92 L636.763,2639.56 L655.609,2542.37 L1974.22,2798.06 L1956.41,2889.86 L1957.58,2890.15 L1962.63,2890.36 L1967.61,2889.56 L1972.33,2887.77 L1976.6,2885.06 L1980.24,2881.56 L1983.09,2877.4 L1985.06,2872.74 L1985.55,2871.12 L1987.76,2870.65 L1988.16,2870.59 L1990.54,2870.1 L1992.92,2869.5 L1999.93,2867.33 L2002.23,2866.49 L2004.48,2865.55 L2006.69,2864.49 L2013.14,2861 L2015.24,2859.73 L2017.26,2858.37 L2019.22,2856.9 L2024.87,2852.22 L2026.68,2850.56 L2028.39,2848.83 L2030.03,2847.01 L2034.66,2841.31 L2036.11,2839.34 L2037.45,2837.3 L2038.7,2835.19 L2042.13,2828.71 L2043.17,2826.49 L2044.09,2824.23 L2044.91,2821.92 L2047,2814.89 L2047.59,2812.51 L2048.05,2810.11 L2048.4,2807.69 L2049.08,2800.38 L2049.19,2797.93 L2049.18,2795.5 L2049.05,2793.05 L2048.29,2785.75 L2047.92,2783.33 L2047.43,2780.94 L2046.83,2778.56 L2044.66,2771.55 L2043.83,2769.25 L2042.88,2767 L2041.82,2764.79 L2038.33,2758.34 L2037.06,2756.24 L2035.7,2754.22 L2034.23,2752.26 L2029.55,2746.61 L2027.89,2744.8 L2026.16,2743.09 L2024.34,2741.45 L2018.64,2736.82 L2016.67,2735.37 L2014.68,2734.05 L2012.42,2732.55 L2012.56,2730.87 L2012.48,2725.82 L2011.39,2720.89 L2009.33,2716.28 L2006.38,2712.18 L2002.67,2708.76 L1998.35,2706.15 L1993.72,2704.51 L1994.76,2699.16 L1994.73,2698.76 L1994.51,2698.39 L1994.12,2698.09 L1993.63,2697.92 L673.705,2441.98 L673.186,2441.96 L672.716,2442.09 L672.368,2442.35 L672.195,2442.71 L653.349,2539.9 L-663.938,2284.47 L-645.092,2187.28 L-645.12,2186.88 L-645.344,2186.51 L-645.731,2186.21 L-646.222,2186.04 L-1966.15,1930.1 L-1966.67,1930.07 L-1967.14,1930.2 L-1967.49,1930.47 L-1967.66,1930.82 L-1986.5,2028.01 L-3303.79,1772.58 L-3284.95,1675.39 L-3284.97,1675 L-3285.2,1674.62 L-3285.58,1674.33 L-3286.08,1674.16 L-4606,1418.21 L-4606.52,1418.19 L-4606.99,1418.32 L-4607.34,1418.58 L-4607.51,1418.94 L-4608.6,1424.54 L-4610.85,1424.22 L-4615.6,1424.45 L-4620.22,1425.58 L-4624.55,1427.56 L-4628.42,1430.33 L-4631.7,1433.78 L-4634.26,1437.8 L-4636.02,1442.22 L-4636.35,1443.36 L-4638.52,1443.78 L-4638.98,1443.85 L-4641.36,1444.34 L-4643.74,1444.95 L-4650.75,1447.11 L-4653.06,1447.95 L-4655.3,1448.89 L-4657.51,1449.95 L-4663.97,1453.44 L-4666.06,1454.71 L-4668.08,1456.07 L-4670.05,1457.54 L-4675.69,1462.22 L-4677.5,1463.88 L-4679.22,1465.61 L-4680.86,1467.44 L-4685.48,1473.13 L-4686.93,1475.11 L-4688.28,1477.14 L-4689.53,1479.25 L-4692.95,1485.73 L-4693.99,1487.96 L-4694.91,1490.21 L-4695.73,1492.52 L-4697.82,1499.55 L-4698.41,1501.94 L-4698.87,1504.33 L-4699.22,1506.76 L-4699.9,1514.06 L-4700.01,1516.51 L-4700,1518.95 L-4699.87,1521.4 L-4699.12,1528.69 L-4698.74,1531.12 L-4698.26,1533.5 L-4697.65,1535.88 L-4695.49,1542.89 L-4694.65,1545.19 L-4693.71,1547.44 L-4692.65,1549.65 L-4689.16,1556.1 L-4687.89,1558.2 L-4686.52,1560.22 L-4685.05,1562.18 L-4680.37,1567.83 L-4678.72,1569.64 L-4676.99,1571.36 L-4675.16,1572.99 L-4669.47,1577.62 L-4667.49,1579.07 L-4665.46,1580.42 L-4665.06,1580.65 L-4663.2,1581.86 L-4663.32,1583.04 L-4663.35,1587.8 L-4662.47,1592.47 L-4660.72,1596.9 L-4658.16,1600.92 L-4654.89,1604.37 L-4651.03,1607.15 L-4646.71,1609.14 L-4643.19,1610 L-4625.42,1518.35 L-3306.81,1774.03"/>
</g>

<g fill="none" stroke="#000000" stroke-opacity="1" stroke-width="1" stroke-linecap="square" stroke-linejoin="bevel" transform="matrix(0.999959,0,0,-0.999959,4700.32,2896.69)"
font-family="MS Shell Dlg 2" font-size="10.3125" font-weight="400" font-style="normal" 
>
</g>

<g fill="none" stroke="#000000" stroke-opacity="1" stroke-width="1" stroke-linecap="square" stroke-linejoin="bevel" transform="matrix(0.999959,0,0,-0.999959,4700.32,2896.69)"
font-family="MS Shell Dlg 2" font-size="10.3125" font-weight="400" font-style="normal" 
>
</g>

<g fill="none" stroke="#333333" stroke-opacity="1" stroke-width="1" stroke-linecap="round" stroke-linejoin="round" transform="matrix(0.999959,0,0,-0.999959,4700.32,2896.69)"
font-family="MS Shell Dlg 2" font-size="10.3125" font-weight="400" font-style="normal" 
>
<path vector-effect="non-scaling-stroke" fill-rule="evenodd" d="M-4625.23,1517.37 L-1986.69,2028.99"/>
</g>

<g fill="none" stroke="#000000" stroke-opacity="1" stroke-width="1" stroke-linecap="square" stroke-linejoin="bevel" transform="matrix(0.999959,0,0,-0.999959,4700.32,2896.69)"
font-family="MS Shell Dlg 2" font-size="10.3125" font-weight="400" font-style="normal" 
>
</g>

<g fill="none" stroke="#000000" stroke-opacity="1" stroke-width="1" stroke-linecap="square" stroke-linejoin="bevel" transform="matrix(0.999959,0,0,-0.999959,4700.32,2896.69)"
font-family="MS Shell Dlg 2" font-size="10.3125" font-weight="400" font-style="normal" 
>
</g>

<g fill="none" stroke="#333333" stroke-opacity="1" stroke-width="1" stroke-linecap="round" stroke-linejoin="round" transform="matrix(0.999959,0,0,-0.999959,4700.32,2896.69)"
font-family="MS Shell Dlg 2" font-size="10.3125" font-weight="400" font-style="normal" 
>
<path vector-effect="non-scaling-stroke" fill-rule="evenodd" d="M-664.128,2285.45 L1974.41,2797.07"/>
</g>

<g fill="none" stroke="#000000" stroke-opacity="1" stroke-width="1" stroke-linecap="square" stroke-linejoin="bevel" transform="matrix(0.999959,0,0,-0.999959,4700.32,2896.69)"
font-family="MS Shell Dlg 2" font-size="10.3125" font-weight="400" font-style="normal" 
>
</g>

<g fill="none" stroke="#000000" stroke-opacity="1" stroke-width="1" stroke-linecap="square" stroke-linejoin="bevel" transform="matrix(0.999959,0,0,-0.999959,4700.32,2896.69)"
font-family="MS Shell Dlg 2" font-size="10.3125" font-weight="400" font-style="normal" 
>
</g>

<g fill="#ffff00" fill-opacity="0.2" stroke="#333333" stroke-opacity="1" stroke-width="1" stroke-linecap="round" stroke-linejoin="round" transform="matrix(0.999959,0,0,-0.999959,4700.32,2896.69)"
font-family="MS Shell Dlg 2" font-size="10.3125" font-weight="400" font-style="normal" 
>
<path vector-effect="non-scaling-stroke" fill-rule="evenodd" d="M-4665.06,1580.65 L-4663.2,1581.86 L-4663.32,1583.04 L-4663.35,1587.8 L-4662.47,1592.47 L-4660.72,1596.9 L-4658.16,1600.92 L-4654.89,1604.37 L-4651.03,1607.15 L-4646.71,1609.14 L-4643.19,1610 L-4638.47,1585.64 L-4638.55,1585.53 L-4638.2,1582.09 L-4638.57,1577.55 L-4639.76,1573.16 L-4641.73,1569.05 L-4644.41,1565.37 L-4647.71,1562.24 L-4651.52,1559.75 L-4651.72,1559.65 L-4651.72,1559.65 L-4653.76,1558.3 L-4653.76,1558.3 L-4659.46,1553.67 L-4659.46,1553.66 L-4661.19,1551.95 L-4661.2,1551.94 L-4665.88,1546.3 L-4665.89,1546.29 L-4667.25,1544.27 L-4667.25,1544.26 L-4670.74,1537.81 L-4670.75,1537.8 L-4671.69,1535.56 L-4671.69,1535.55 L-4673.86,1528.54 L-4673.86,1528.53 L-4674.35,1526.14 L-4674.35,1526.13 L-4675.1,1518.84 L-4675.1,1518.83 L-4675.11,1516.39 L-4675.11,1516.38 L-4674.43,1509.08 L-4674.43,1509.07 L-4673.96,1506.68 L-4673.96,1506.67 L-4671.87,1499.64 L-4671.86,1499.63 L-4670.94,1497.37 L-4670.94,1497.37 L-4667.51,1490.88 L-4667.51,1490.87 L-4666.16,1488.84 L-4666.16,1488.83 L-4661.53,1483.14 L-4661.52,1483.13 L-4659.81,1481.4 L-4659.8,1481.4 L-4654.16,1476.72 L-4654.15,1476.71 L-4652.13,1475.35 L-4652.12,1475.34 L-4645.67,1471.85 L-4645.66,1471.85 L-4643.42,1470.91 L-4643.41,1470.9 L-4636.4,1468.74 L-4636.39,1468.74 L-4634,1468.25 L-4633.99,1468.25 L-4633.78,1468.23 L-4629.31,1467.35 L-4625.07,1465.67 L-4621.21,1463.26 L-4617.86,1460.19 L-4615.11,1456.56 L-4613.07,1452.49 L-4612.1,1449.16 L-4611.99,1449.1 L-4607.27,1424.73 L-4610.85,1424.22 L-4615.6,1424.45 L-4620.22,1425.58 L-4624.55,1427.56 L-4628.42,1430.33 L-4631.7,1433.78 L-4634.26,1437.8 L-4636.02,1442.22 L-4636.35,1443.36 L-4638.52,1443.78 L-4638.98,1443.85 L-4641.36,1444.34 L-4643.74,1444.95 L-4650.75,1447.11 L-4653.06,1447.95 L-4655.3,1448.89 L-4657.51,1449.95 L-4663.97,1453.44 L-4666.06,1454.71 L-4668.08,1456.07 L-4670.05,1457.54 L-4675.69,1462.22 L-4677.5,1463.88 L-4679.22,1465.61 L-4680.86,1467.44 L-4685.48,1473.13 L-4686.93,1475.11 L-4688.28,1477.14 L-4689.53,1479.25 L-4692.95,1485.73 L-4693.99,1487.96 L-4694.91,1490.21 L-4695.73,1492.52 L-4697.82,1499.55 L-4698.41,1501.94 L-4698.87,1504.33 L-4699.22,1506.76 L-4699.9,1514.06 L-4700.01,1516.51 L-4700,1518.95 L-4699.87,1521.4 L-4699.12,1528.69 L-4698.74,1531.12 L-4698.26,1533.5 L-4697.65,1535.88 L-4695.49,1542.89 L-4694.65,1545.19 L-4693.71,1547.44 L-4692.65,1549.65 L-4689.16,1556.1 L-4687.89,1558.2 L-4686.52,1560.22 L-4685.05,1562.18 L-4680.37,1567.83 L-4678.72,1569.64 L-4676.99,1571.36 L-4675.16,1572.99 L-4669.47,1577.62 L-4667.49,1579.07 L-4665.46,1580.42 L-4665.06,1580.65"/>
</g>

<g fill="none" stroke="#000000" stroke-opacity="1" stroke-width="1" stroke-linecap="square" stroke-linejoin="bevel" transform="matrix(0.999959,0,0,-0.999959,4700.32,2896.69)"
font-family="MS Shell Dlg 2" font-size="10.3125" font-weight="400" font-style="normal" 
>
</g>

<g fill="none" stroke="#000000" stroke-opacity="1" stroke-width="1" stroke-linecap="square" stroke-linejoin="bevel" transform="matrix(0.999959,0,0,-0.999959,4700.32,2896.69)"
font-family="MS Shell Dlg 2" font-size="10.3125" font-weight="400" font-style="normal" 
>
</g>

<g fill="#ffff00" fill-opacity="0.2" stroke="#333333" stroke-opacity="1" stroke-width="1" stroke-linecap="round" stroke-linejoin="round" transform="matrix(0.999959,0,0,-0.999959,4700.32,2896.69)"
font-family="MS Shell Dlg 2" font-size="10.3125" font-weight="400" font-style="normal" 
>
<path vector-effect="non-scaling-stroke" fill-rule="evenodd" d="M-2004.6,2128.4 L-684.674,2384.35 L-684.155,2384.37 L-683.685,2384.24 L-683.337,2383.98 L-683.164,2383.62 L-664.128,2285.45 L-645.092,2187.28 L-645.12,2186.88 L-645.344,2186.51 L-645.731,2186.21 L-646.222,2186.04 L-1966.15,1930.1 L-1966.67,1930.07 L-1967.14,1930.2 L-1967.49,1930.47 L-1967.66,1930.82 L-1986.69,2028.99 L-2005.73,2127.17 L-2005.7,2127.56 L-2005.48,2127.94 L-2005.09,2128.23 L-2004.6,2128.4"/>
</g>

<g fill="none" stroke="#000000" stroke-opacity="1" stroke-width="1" stroke-linecap="square" stroke-linejoin="bevel" transform="matrix(0.999959,0,0,-0.999959,4700.32,2896.69)"
font-family="MS Shell Dlg 2" font-size="10.3125" font-weight="400" font-style="normal" 
>
</g>

<g fill="none" stroke="#000000" stroke-opacity="1" stroke-width="1" stroke-linecap="square" stroke-linejoin="bevel" transform="matrix(0.999959,0,0,-0.999959,4700.32,2896.69)"
font-family="MS Shell Dlg 2" font-size="10.3125" font-weight="400" font-style="normal" 
>
</g>

<g fill="#ffff00" fill-opacity="0.2" stroke="#333333" stroke-opacity="1" stroke-width="1" stroke-linecap="round" stroke-linejoin="round" transform="matrix(0.999959,0,0,-0.999959,4700.32,2896.69)"
font-family="MS Shell Dlg 2" font-size="10.3125" font-weight="400" font-style="normal" 
>
<path vector-effect="non-scaling-stroke" fill-rule="evenodd" d="M1956.41,2889.86 L1957.58,2890.15 L1962.63,2890.36 L1967.61,2889.56 L1972.33,2887.77 L1976.6,2885.06 L1980.24,2881.56 L1983.09,2877.4 L1985.06,2872.74 L1985.55,2871.12 L1987.76,2870.65 L1988.16,2870.59 L1990.54,2870.1 L1992.92,2869.5 L1999.93,2867.33 L2002.23,2866.49 L2004.48,2865.55 L2006.69,2864.49 L2013.14,2861 L2015.24,2859.73 L2017.26,2858.37 L2019.22,2856.9 L2024.87,2852.22 L2026.68,2850.56 L2028.39,2848.83 L2030.03,2847.01 L2034.66,2841.31 L2036.11,2839.34 L2037.45,2837.3 L2038.7,2835.19 L2042.13,2828.71 L2043.17,2826.49 L2044.09,2824.23 L2044.91,2821.92 L2047,2814.89 L2047.59,2812.51 L2048.05,2810.11 L2048.4,2807.69 L2049.08,2800.38 L2049.19,2797.93 L2049.18,2795.5 L2049.05,2793.05 L2048.29,2785.75 L2047.92,2783.33 L2047.43,2780.94 L2046.83,2778.56 L2044.66,2771.55 L2043.83,2769.25 L2042.88,2767 L2041.82,2764.79 L2038.33,2758.34 L2037.06,2756.24 L2035.7,2754.22 L2034.23,2752.26 L2029.55,2746.61 L2027.89,2744.8 L2026.16,2743.09 L2024.34,2741.45 L2018.64,2736.82 L2016.67,2735.37 L2014.68,2734.05 L2012.42,2732.55 L2012.56,2730.87 L2012.48,2725.82 L2011.39,2720.89 L2009.33,2716.28 L2006.38,2712.18 L2002.67,2708.76 L1998.35,2706.15 L1993.59,2704.46 L1992.4,2704.29 L1987.67,2728.65 L1987.76,2728.75 L1987.38,2733.11 L1988.06,2738.38 L1989.83,2743.38 L1992.62,2747.9 L1996.3,2751.72 L2000.7,2754.69 L2000.89,2754.79 L2000.9,2754.8 L2002.93,2756.14 L2002.94,2756.15 L2008.63,2760.77 L2008.64,2760.78 L2010.37,2762.49 L2010.38,2762.5 L2015.06,2768.15 L2015.06,2768.15 L2016.43,2770.17 L2016.43,2770.18 L2019.92,2776.63 L2019.92,2776.64 L2020.87,2778.89 L2020.87,2778.9 L2023.03,2785.91 L2023.04,2785.92 L2023.52,2788.3 L2023.52,2788.31 L2024.28,2795.61 L2024.28,2795.62 L2024.29,2798.05 L2024.29,2798.06 L2023.61,2805.37 L2023.61,2805.37 L2023.14,2807.77 L2023.14,2807.77 L2021.04,2814.8 L2021.04,2814.81 L2020.12,2817.07 L2020.12,2817.08 L2016.69,2823.56 L2016.68,2823.57 L2015.34,2825.6 L2015.34,2825.61 L2010.71,2831.3 L2010.7,2831.31 L2008.99,2833.04 L2008.98,2833.05 L2003.33,2837.73 L2003.33,2837.73 L2001.31,2839.1 L2001.3,2839.1 L1994.85,2842.59 L1994.84,2842.59 L1992.59,2843.54 L1992.58,2843.54 L1985.57,2845.7 L1985.57,2845.71 L1983.18,2846.19 L1983.17,2846.19 L1982.96,2846.22 L1977.76,2847.32 L1972.92,2849.49 L1968.64,2852.64 L1965.13,2856.62 L1962.54,2861.25 L1961.25,2865.43 L1961.14,2865.5 L1956.41,2889.86"/>
</g>

<g fill="none" stroke="#000000" stroke-opacity="1" stroke-width="1" stroke-linecap="square" stroke-linejoin="bevel" transform="matrix(0.999959,0,0,-0.999959,4700.32,2896.69)"
font-family="MS Shell Dlg 2" font-size="10.3125" font-weight="400" font-style="normal" 
>
</g>

<g fill="none" stroke="#000000" stroke-opacity="1" stroke-width="1" stroke-linecap="square" stroke-linejoin="bevel" transform="matrix(0.999959,0,0,-0.999959,4700.32,2896.69)"
font-family="MS Shell Dlg 2" font-size="10.3125" font-weight="400" font-style="normal" 
>
</g>

<g fill="#ae5151" fill-opacity="0.2" stroke="#333333" stroke-opacity="1" stroke-width="1" stroke-linecap="round" stroke-linejoin="round" transform="matrix(0.999959,0,0,-0.999959,4700.32,2896.69)"
font-family="MS Shell Dlg 2" font-size="10.3125" font-weight="400" font-style="normal" 
>
<path vector-effect="non-scaling-stroke" fill-rule="evenodd" d="M-3306.43,1772.07 L-4625.04,1516.39 L-4607.27,1424.73 L-4610.85,1424.22 L-4615.6,1424.45 L-4620.22,1425.58 L-4624.55,1427.56 L-4628.42,1430.33 L-4631.7,1433.78 L-4634.26,1437.8 L-4636.02,1442.22 L-4636.35,1443.36 L-4638.52,1443.78 L-4638.98,1443.85 L-4641.36,1444.34 L-4643.74,1444.95 L-4650.75,1447.11 L-4653.06,1447.95 L-4655.3,1448.89 L-4657.51,1449.95 L-4663.97,1453.44 L-4666.06,1454.71 L-4668.08,1456.07 L-4670.05,1457.54 L-4675.69,1462.22 L-4677.5,1463.88 L-4679.22,1465.61 L-4680.86,1467.44 L-4685.48,1473.13 L-4686.93,1475.11 L-4688.28,1477.14 L-4689.53,1479.25 L-4692.95,1485.73 L-4693.99,1487.96 L-4694.91,1490.21 L-4695.73,1492.52 L-4697.82,1499.55 L-4698.41,1501.94 L-4698.87,1504.33 L-4699.22,1506.76 L-4699.9,1514.06 L-4700.01,1516.51 L-4700,1518.95 L-4699.87,1521.4 L-4699.12,1528.69 L-4698.74,1531.12 L-4698.26,1533.5 L-4697.65,1535.88 L-4695.49,1542.89 L-4694.65,1545.19 L-4693.71,1547.44 L-4692.65,1549.65 L-4689.16,1556.1 L-4687.89,1558.2 L-4686.52,1560.22 L-4685.05,1562.18 L-4680.37,1567.83 L-4678.72,1569.64 L-4676.99,1571.36 L-4675.16,1572.99 L-4669.47,1577.62 L-4667.49,1579.07 L-4665.46,1580.42 L-4665.06,1580.65 L-4663.2,1581.86 L-4663.32,1583.04 L-4663.35,1587.8 L-4662.47,1592.47 L-4660.72,1596.9 L-4658.16,1600.92 L-4654.89,1604.37 L-4651.03,1607.15 L-4646.71,1609.14 L-4644.5,1609.68 L-4645.58,1615.28 L-4645.56,1615.68 L-4645.33,1616.05 L-4644.95,1616.35 L-4644.45,1616.52 L-3324.53,1872.46 L-3324.01,1872.49 L-3323.54,1872.36 L-3323.19,1872.09 L-3323.02,1871.74 L-3304.17,1774.55 L-1986.89,2029.98 L-2005.73,2127.17 L-2005.7,2127.56 L-2005.48,2127.94 L-2005.09,2128.23 L-2004.6,2128.4 L-684.674,2384.35 L-684.155,2384.37 L-683.685,2384.24 L-683.337,2383.98 L-683.164,2383.62 L-664.318,2286.43 L652.969,2541.86 L634.123,2639.05 L634.151,2639.44 L634.375,2639.82 L634.762,2640.11 L635.253,2640.29 L1955.18,2896.23 L1955.7,2896.25 L1956.17,2896.12 L1956.52,2895.86 L1956.69,2895.5 L1957.73,2890.15 L1962.63,2890.36 L1967.61,2889.56 L1972.33,2887.77 L1976.6,2885.06 L1980.24,2881.56 L1983.09,2877.4 L1985.06,2872.74 L1985.55,2871.12 L1987.76,2870.65 L1988.16,2870.59 L1990.54,2870.1 L1992.92,2869.5 L1999.93,2867.33 L2002.23,2866.49 L2004.48,2865.55 L2006.69,2864.49 L2013.14,2861 L2015.24,2859.73 L2017.26,2858.37 L2019.22,2856.9 L2024.87,2852.22 L2026.68,2850.56 L2028.39,2848.83 L2030.03,2847.01 L2034.66,2841.31 L2036.11,2839.34 L2037.45,2837.3 L2038.7,2835.19 L2042.13,2828.71 L2043.17,2826.49 L2044.09,2824.23 L2044.91,2821.92 L2047,2814.89 L2047.59,2812.51 L2048.05,2810.11 L2048.4,2807.69 L2049.08,2800.38 L2049.19,2797.93 L2049.18,2795.5 L2049.05,2793.05 L2048.29,2785.75 L2047.92,2783.33 L2047.43,2780.94 L2046.83,2778.56 L2044.66,2771.55 L2043.83,2769.25 L2042.88,2767 L2041.82,2764.79 L2038.33,2758.34 L2037.06,2756.24 L2035.7,2754.22 L2034.23,2752.26 L2029.55,2746.61 L2027.89,2744.8 L2026.16,2743.09 L2024.34,2741.45 L2018.64,2736.82 L2016.67,2735.37 L2014.68,2734.05 L2012.42,2732.55 L2012.56,2730.87 L2012.48,2725.82 L2011.39,2720.89 L2009.33,2716.28 L2006.38,2712.18 L2002.67,2708.76 L1998.35,2706.15 L1993.59,2704.46 L1992.4,2704.29 L1974.6,2796.09 L655.989,2540.41 L674.835,2443.22 L674.807,2442.82 L674.583,2442.45 L674.196,2442.15 L673.705,2441.98 L-3286.08,1674.16 L-3286.59,1674.13 L-3287.06,1674.26 L-3287.41,1674.53 L-3287.59,1674.88 L-3306.43,1772.07"/>
</g>

<g fill="none" stroke="#000000" stroke-opacity="1" stroke-width="1" stroke-linecap="square" stroke-linejoin="bevel" transform="matrix(0.999959,0,0,-0.999959,4700.32,2896.69)"
font-family="MS Shell Dlg 2" font-size="10.3125" font-weight="400" font-style="normal" 
>
</g>

<g fill="none" stroke="#000000" stroke-opacity="1" stroke-width="1" stroke-linecap="square" stroke-linejoin="bevel" transform="matrix(0.999959,0,0,-0.999959,4700.32,2896.69)"
font-family="MS Shell Dlg 2" font-size="10.3125" font-weight="400" font-style="normal" 
>
</g>

<g fill="#333333" fill-opacity="0.2" stroke="#333333" stroke-opacity="1" stroke-width="1" stroke-linecap="round" stroke-linejoin="round" transform="matrix(0.999959,0,0,-0.999959,4700.32,2896.69)"
font-family="MS Shell Dlg 2" font-size="10.3125" font-weight="400" font-style="normal" 
>
<path vector-effect="non-scaling-stroke" fill-rule="evenodd" d="M-3306.43,1772.07 L-4625.04,1516.39 L-4607.27,1424.73 L-4610.85,1424.22 L-4615.6,1424.45 L-4620.22,1425.58 L-4624.55,1427.56 L-4628.42,1430.33 L-4631.7,1433.78 L-4634.26,1437.8 L-4636.02,1442.22 L-4636.35,1443.36 L-4638.52,1443.78 L-4638.98,1443.85 L-4641.36,1444.34 L-4643.74,1444.95 L-4650.75,1447.11 L-4653.06,1447.95 L-4655.3,1448.89 L-4657.51,1449.95 L-4663.97,1453.44 L-4666.06,1454.71 L-4668.08,1456.07 L-4670.05,1457.54 L-4675.69,1462.22 L-4677.5,1463.88 L-4679.22,1465.61 L-4680.86,1467.44 L-4685.48,1473.13 L-4686.93,1475.11 L-4688.28,1477.14 L-4689.53,1479.25 L-4692.95,1485.73 L-4693.99,1487.96 L-4694.91,1490.21 L-4695.73,1492.52 L-4697.82,1499.55 L-4698.41,1501.94 L-4698.87,1504.33 L-4699.22,1506.76 L-4699.9,1514.06 L-4700.01,1516.51 L-4700,1518.95 L-4699.87,1521.4 L-4699.12,1528.69 L-4698.74,1531.12 L-4698.26,1533.5 L-4697.65,1535.88 L-4695.49,1542.89 L-4694.65,1545.19 L-4693.71,1547.44 L-4692.65,1549.65 L-4689.16,1556.1 L-4687.89,1558.2 L-4686.52,1560.22 L-4685.05,1562.18 L-4680.37,1567.83 L-4678.72,1569.64 L-4676.99,1571.36 L-4675.16,1572.99 L-4669.47,1577.62 L-4667.49,1579.07 L-4665.46,1580.42 L-4665.06,1580.65 L-4663.2,1581.86 L-4663.32,1583.04 L-4663.35,1587.8 L-4662.47,1592.47 L-4660.72,1596.9 L-4658.16,1600.92 L-4654.89,1604.37 L-4651.03,1607.15 L-4646.71,1609.14 L-4644.5,1609.68 L-4645.58,1615.28 L-4645.56,1615.68 L-4645.33,1616.05 L-4644.95,1616.35 L-4644.45,1616.52 L-3324.53,1872.46 L-3324.01,1872.49 L-3323.54,1872.36 L-3323.19,1872.09 L-3323.02,1871.74 L-3304.17,1774.55 L-1986.89,2029.98 L-2005.73,2127.17 L-2005.7,2127.56 L-2005.48,2127.94 L-2005.09,2128.23 L-2004.6,2128.4 L-684.674,2384.35 L-684.155,2384.37 L-683.685,2384.24 L-683.337,2383.98 L-683.164,2383.62 L-664.318,2286.43 L652.969,2541.86 L634.123,2639.05 L634.151,2639.44 L634.375,2639.82 L634.762,2640.11 L635.253,2640.29 L1955.18,2896.23 L1955.7,2896.25 L1956.17,2896.12 L1956.52,2895.86 L1956.69,2895.5 L1957.73,2890.15 L1962.63,2890.36 L1967.61,2889.56 L1972.33,2887.77 L1976.6,2885.06 L1980.24,2881.56 L1983.09,2877.4 L1985.06,2872.74 L1985.55,2871.12 L1987.76,2870.65 L1988.16,2870.59 L1990.54,2870.1 L1992.92,2869.5 L1999.93,2867.33 L2002.23,2866.49 L2004.48,2865.55 L2006.69,2864.49 L2013.14,2861 L2015.24,2859.73 L2017.26,2858.37 L2019.22,2856.9 L2024.87,2852.22 L2026.68,2850.56 L2028.39,2848.83 L2030.03,2847.01 L2034.66,2841.31 L2036.11,2839.34 L2037.45,2837.3 L2038.7,2835.19 L2042.13,2828.71 L2043.17,2826.49 L2044.09,2824.23 L2044.91,2821.92 L2047,2814.89 L2047.59,2812.51 L2048.05,2810.11 L2048.4,2807.69 L2049.08,2800.38 L2049.19,2797.93 L2049.18,2795.5 L2049.05,2793.05 L2048.29,2785.75 L2047.92,2783.33 L2047.43,2780.94 L2046.83,2778.56 L2044.66,2771.55 L2043.83,2769.25 L2042.88,2767 L2041.82,2764.79 L2038.33,2758.34 L2037.06,2756.24 L2035.7,2754.22 L2034.23,2752.26 L2029.55,2746.61 L2027.89,2744.8 L2026.16,2743.09 L2024.34,2741.45 L2018.64,2736.82 L2016.67,2735.37 L2014.68,2734.05 L2012.42,2732.55 L2012.56,2730.87 L2012.48,2725.82 L2011.39,2720.89 L2009.33,2716.28 L2006.38,2712.18 L2002.67,2708.76 L1998.35,2706.15 L1993.59,2704.46 L1992.4,2704.29 L1974.6,2796.09 L655.989,2540.41 L674.835,2443.22 L674.807,2442.82 L674.583,2442.45 L674.196,2442.15 L673.705,2441.98 L-3286.08,1674.16 L-3286.59,1674.13 L-3287.06,1674.26 L-3287.41,1674.53 L-3287.59,1674.88 L-3306.43,1772.07"/>
</g>

<g fill="none" stroke="#000000" stroke-opacity="1" stroke-width="1" stroke-linecap="square" stroke-linejoin="bevel" transform="matrix(0.999959,0,0,-0.999959,4700.32,2896.69)"
font-family="MS Shell Dlg 2" font-size="10.3125" font-weight="400" font-style="normal" 
>
</g>

<g fill="none" stroke="#000000" stroke-opacity="1" stroke-width="1" stroke-linecap="square" stroke-linejoin="bevel" transform="matrix(1,0,0,-1,0,1479.06)"
font-family="MS Shell Dlg 2" font-size="10.3125" font-weight="400" font-style="normal" 
>
</g>
</g>
</svg>
