<?xml version="1.0" encoding="UTF-8" standalone="no"?>
<svg width="1890.89mm" height="416.842mm"
 xmlns="http://www.w3.org/2000/svg" xmlns:xlink="http://www.w3.org/1999/xlink"  version="1.2" baseProfile="tiny">
<title>SVG Generator Example Drawing</title>
<desc>An SVG drawing created by the SVG Generator</desc>
<defs>
</defs>
<g fill="none" stroke="black" stroke-width="1" fill-rule="evenodd" stroke-linecap="square" stroke-linejoin="bevel" >

<g fill="none" stroke="#000000" stroke-opacity="1" stroke-width="1" stroke-linecap="square" stroke-linejoin="bevel" transform="matrix(1,0,0,-1,0,1477.05)"
font-family="MS Shell Dlg 2" font-size="10.3125" font-weight="400" font-style="normal" 
>
</g>

<g fill="none" stroke="#000000" stroke-opacity="1" stroke-width="1" stroke-linecap="square" stroke-linejoin="bevel" transform="matrix(1,0,0,-1,0,1477.05)"
font-family="MS Shell Dlg 2" font-size="10.3125" font-weight="400" font-style="normal" 
>
</g>

<g fill="none" stroke="#000000" stroke-opacity="1" stroke-width="1" stroke-linecap="square" stroke-linejoin="bevel" transform="matrix(0.99994,0,0,-0.99994,4675.33,2895.66)"
font-family="MS Shell Dlg 2" font-size="10.3125" font-weight="400" font-style="normal" 
>
</g>

<g fill="#333333" fill-opacity="0.2" stroke="#333333" stroke-opacity="1" stroke-width="1" stroke-linecap="round" stroke-linejoin="round" transform="matrix(0.99994,0,0,-0.99994,4675.33,2895.66)"
font-family="MS Shell Dlg 2" font-size="10.3125" font-weight="400" font-style="normal" 
>
<path vector-effect="non-scaling-stroke" fill-rule="evenodd" d="M-4625.42,1518.35 L-4644.26,1615.54 L-3325.66,1871.22 L-3306.81,1774.03 L-4625.42,1518.35"/>
</g>

<g fill="none" stroke="#000000" stroke-opacity="1" stroke-width="1" stroke-linecap="square" stroke-linejoin="bevel" transform="matrix(0.99994,0,0,-0.99994,4675.33,2895.66)"
font-family="MS Shell Dlg 2" font-size="10.3125" font-weight="400" font-style="normal" 
>
</g>

<g fill="none" stroke="#000000" stroke-opacity="1" stroke-width="1" stroke-linecap="square" stroke-linejoin="bevel" transform="matrix(0.99994,0,0,-0.99994,4675.33,2895.66)"
font-family="MS Shell Dlg 2" font-size="10.3125" font-weight="400" font-style="normal" 
>
</g>

<g fill="#333333" fill-opacity="0.2" stroke="#333333" stroke-opacity="1" stroke-width="1" stroke-linecap="round" stroke-linejoin="round" transform="matrix(0.99994,0,0,-0.99994,4675.33,2895.66)"
font-family="MS Shell Dlg 2" font-size="10.3125" font-weight="400" font-style="normal" 
>
<path vector-effect="non-scaling-stroke" fill-rule="evenodd" d="M-1967.66,1930.82 L-3284.95,1675.39 L-3303.79,1772.58 L-1986.5,2028.01 L-1967.66,1930.82"/>
</g>

<g fill="none" stroke="#000000" stroke-opacity="1" stroke-width="1" stroke-linecap="square" stroke-linejoin="bevel" transform="matrix(0.99994,0,0,-0.99994,4675.33,2895.66)"
font-family="MS Shell Dlg 2" font-size="10.3125" font-weight="400" font-style="normal" 
>
</g>

<g fill="none" stroke="#000000" stroke-opacity="1" stroke-width="1" stroke-linecap="square" stroke-linejoin="bevel" transform="matrix(0.99994,0,0,-0.99994,4675.33,2895.66)"
font-family="MS Shell Dlg 2" font-size="10.3125" font-weight="400" font-style="normal" 
>
</g>

<g fill="#333333" fill-opacity="0.2" stroke="#333333" stroke-opacity="1" stroke-width="1" stroke-linecap="round" stroke-linejoin="round" transform="matrix(0.99994,0,0,-0.99994,4675.33,2895.66)"
font-family="MS Shell Dlg 2" font-size="10.3125" font-weight="400" font-style="normal" 
>
<path vector-effect="non-scaling-stroke" fill-rule="evenodd" d="M672.195,2442.71 L-645.092,2187.28 L-663.938,2284.47 L653.349,2539.9 L672.195,2442.71"/>
</g>

<g fill="none" stroke="#000000" stroke-opacity="1" stroke-width="1" stroke-linecap="square" stroke-linejoin="bevel" transform="matrix(0.99994,0,0,-0.99994,4675.33,2895.66)"
font-family="MS Shell Dlg 2" font-size="10.3125" font-weight="400" font-style="normal" 
>
</g>

<g fill="none" stroke="#000000" stroke-opacity="1" stroke-width="1" stroke-linecap="square" stroke-linejoin="bevel" transform="matrix(0.99994,0,0,-0.99994,4675.33,2895.66)"
font-family="MS Shell Dlg 2" font-size="10.3125" font-weight="400" font-style="normal" 
>
</g>

<g fill="#333333" fill-opacity="0.2" stroke="#333333" stroke-opacity="1" stroke-width="1" stroke-linecap="round" stroke-linejoin="round" transform="matrix(0.99994,0,0,-0.99994,4675.33,2895.66)"
font-family="MS Shell Dlg 2" font-size="10.3125" font-weight="400" font-style="normal" 
>
<path vector-effect="non-scaling-stroke" fill-rule="evenodd" d="M636.763,2639.56 L1955.37,2895.25 L1974.22,2798.06 L655.609,2542.37 L636.763,2639.56"/>
</g>

<g fill="none" stroke="#000000" stroke-opacity="1" stroke-width="1" stroke-linecap="square" stroke-linejoin="bevel" transform="matrix(0.99994,0,0,-0.99994,4675.33,2895.66)"
font-family="MS Shell Dlg 2" font-size="10.3125" font-weight="400" font-style="normal" 
>
</g>

<g fill="none" stroke="#000000" stroke-opacity="1" stroke-width="1" stroke-linecap="square" stroke-linejoin="bevel" transform="matrix(0.99994,0,0,-0.99994,4675.33,2895.66)"
font-family="MS Shell Dlg 2" font-size="10.3125" font-weight="400" font-style="normal" 
>
</g>

<g fill="#ae5151" fill-opacity="0.2" stroke="#333333" stroke-opacity="1" stroke-width="1" stroke-linecap="round" stroke-linejoin="round" transform="matrix(0.99994,0,0,-0.99994,4675.33,2895.66)"
font-family="MS Shell Dlg 2" font-size="10.3125" font-weight="400" font-style="normal" 
>
<path vector-effect="non-scaling-stroke" fill-rule="evenodd" d="M-4625.42,1518.35 L-4644.26,1615.54 L-3325.66,1871.22 L-3306.81,1774.03 L-4625.42,1518.35"/>
</g>

<g fill="none" stroke="#000000" stroke-opacity="1" stroke-width="1" stroke-linecap="square" stroke-linejoin="bevel" transform="matrix(0.99994,0,0,-0.99994,4675.33,2895.66)"
font-family="MS Shell Dlg 2" font-size="10.3125" font-weight="400" font-style="normal" 
>
</g>

<g fill="none" stroke="#000000" stroke-opacity="1" stroke-width="1" stroke-linecap="square" stroke-linejoin="bevel" transform="matrix(0.99994,0,0,-0.99994,4675.33,2895.66)"
font-family="MS Shell Dlg 2" font-size="10.3125" font-weight="400" font-style="normal" 
>
</g>

<g fill="#ae5151" fill-opacity="0.2" stroke="#333333" stroke-opacity="1" stroke-width="1" stroke-linecap="round" stroke-linejoin="round" transform="matrix(0.99994,0,0,-0.99994,4675.33,2895.66)"
font-family="MS Shell Dlg 2" font-size="10.3125" font-weight="400" font-style="normal" 
>
<path vector-effect="non-scaling-stroke" fill-rule="evenodd" d="M-1967.66,1930.82 L-3284.95,1675.39 L-3303.79,1772.58 L-1986.5,2028.01 L-1967.66,1930.82"/>
</g>

<g fill="none" stroke="#000000" stroke-opacity="1" stroke-width="1" stroke-linecap="square" stroke-linejoin="bevel" transform="matrix(0.99994,0,0,-0.99994,4675.33,2895.66)"
font-family="MS Shell Dlg 2" font-size="10.3125" font-weight="400" font-style="normal" 
>
</g>

<g fill="none" stroke="#000000" stroke-opacity="1" stroke-width="1" stroke-linecap="square" stroke-linejoin="bevel" transform="matrix(0.99994,0,0,-0.99994,4675.33,2895.66)"
font-family="MS Shell Dlg 2" font-size="10.3125" font-weight="400" font-style="normal" 
>
</g>

<g fill="#ae5151" fill-opacity="0.2" stroke="#333333" stroke-opacity="1" stroke-width="1" stroke-linecap="round" stroke-linejoin="round" transform="matrix(0.99994,0,0,-0.99994,4675.33,2895.66)"
font-family="MS Shell Dlg 2" font-size="10.3125" font-weight="400" font-style="normal" 
>
<path vector-effect="non-scaling-stroke" fill-rule="evenodd" d="M672.195,2442.71 L-645.092,2187.28 L-663.938,2284.47 L653.349,2539.9 L672.195,2442.71"/>
</g>

<g fill="none" stroke="#000000" stroke-opacity="1" stroke-width="1" stroke-linecap="square" stroke-linejoin="bevel" transform="matrix(0.99994,0,0,-0.99994,4675.33,2895.66)"
font-family="MS Shell Dlg 2" font-size="10.3125" font-weight="400" font-style="normal" 
>
</g>

<g fill="none" stroke="#000000" stroke-opacity="1" stroke-width="1" stroke-linecap="square" stroke-linejoin="bevel" transform="matrix(0.99994,0,0,-0.99994,4675.33,2895.66)"
font-family="MS Shell Dlg 2" font-size="10.3125" font-weight="400" font-style="normal" 
>
</g>

<g fill="#ae5151" fill-opacity="0.2" stroke="#333333" stroke-opacity="1" stroke-width="1" stroke-linecap="round" stroke-linejoin="round" transform="matrix(0.99994,0,0,-0.99994,4675.33,2895.66)"
font-family="MS Shell Dlg 2" font-size="10.3125" font-weight="400" font-style="normal" 
>
<path vector-effect="non-scaling-stroke" fill-rule="evenodd" d="M636.763,2639.56 L1955.37,2895.25 L1974.22,2798.06 L655.609,2542.37 L636.763,2639.56"/>
</g>

<g fill="none" stroke="#000000" stroke-opacity="1" stroke-width="1" stroke-linecap="square" stroke-linejoin="bevel" transform="matrix(0.99994,0,0,-0.99994,4675.33,2895.66)"
font-family="MS Shell Dlg 2" font-size="10.3125" font-weight="400" font-style="normal" 
>
</g>

<g fill="none" stroke="#000000" stroke-opacity="1" stroke-width="1" stroke-linecap="square" stroke-linejoin="bevel" transform="matrix(0.99994,0,0,-0.99994,4675.33,2895.66)"
font-family="MS Shell Dlg 2" font-size="10.3125" font-weight="400" font-style="normal" 
>
</g>

<g fill="#ffff00" fill-opacity="0.2" stroke="#333333" stroke-opacity="1" stroke-width="1" stroke-linecap="round" stroke-linejoin="round" transform="matrix(0.99994,0,0,-0.99994,4675.33,2895.66)"
font-family="MS Shell Dlg 2" font-size="10.3125" font-weight="400" font-style="normal" 
>
<path vector-effect="non-scaling-stroke" fill-rule="evenodd" d="M-4651.52,1559.75 L-4647.71,1562.24 L-4644.41,1565.37 L-4641.73,1569.05 L-4639.76,1573.16 L-4638.57,1577.55 L-4638.2,1582.09 L-4638.55,1585.53 L-4638.47,1585.64 L-4644.26,1615.54 L-2005.73,2127.17 L-1986.69,2028.99 L-1967.66,1930.82 L-4606.19,1419.2 L-4611.99,1449.1 L-4612.1,1449.16 L-4613.07,1452.49 L-4615.11,1456.56 L-4617.86,1460.19 L-4621.21,1463.26 L-4625.07,1465.67 L-4629.31,1467.35 L-4633.78,1468.23 L-4633.99,1468.25 L-4634,1468.25 L-4636.39,1468.74 L-4636.4,1468.74 L-4643.41,1470.9 L-4643.42,1470.91 L-4645.66,1471.85 L-4645.67,1471.85 L-4652.12,1475.34 L-4652.13,1475.35 L-4654.15,1476.71 L-4654.16,1476.72 L-4659.8,1481.4 L-4659.81,1481.4 L-4661.52,1483.13 L-4661.53,1483.14 L-4666.16,1488.83 L-4666.16,1488.84 L-4667.51,1490.87 L-4667.51,1490.88 L-4670.94,1497.37 L-4670.94,1497.37 L-4671.86,1499.63 L-4671.87,1499.64 L-4673.96,1506.67 L-4673.96,1506.68 L-4674.43,1509.07 L-4674.43,1509.08 L-4675.11,1516.38 L-4675.11,1516.39 L-4675.1,1518.83 L-4675.1,1518.84 L-4674.35,1526.13 L-4674.35,1526.14 L-4673.86,1528.53 L-4673.86,1528.54 L-4671.69,1535.55 L-4671.69,1535.56 L-4670.75,1537.8 L-4670.74,1537.81 L-4667.25,1544.26 L-4667.25,1544.27 L-4665.89,1546.29 L-4665.88,1546.3 L-4661.2,1551.94 L-4661.19,1551.95 L-4659.46,1553.66 L-4659.46,1553.67 L-4653.76,1558.3 L-4653.76,1558.3 L-4651.72,1559.65 L-4651.72,1559.65 L-4651.52,1559.75"/>
</g>

<g fill="none" stroke="#000000" stroke-opacity="1" stroke-width="1" stroke-linecap="square" stroke-linejoin="bevel" transform="matrix(0.99994,0,0,-0.99994,4675.33,2895.66)"
font-family="MS Shell Dlg 2" font-size="10.3125" font-weight="400" font-style="normal" 
>
</g>

<g fill="none" stroke="#000000" stroke-opacity="1" stroke-width="1" stroke-linecap="square" stroke-linejoin="bevel" transform="matrix(0.99994,0,0,-0.99994,4675.33,2895.66)"
font-family="MS Shell Dlg 2" font-size="10.3125" font-weight="400" font-style="normal" 
>
</g>

<g fill="#ffff00" fill-opacity="0.2" stroke="#333333" stroke-opacity="1" stroke-width="1" stroke-linecap="round" stroke-linejoin="round" transform="matrix(0.99994,0,0,-0.99994,4675.33,2895.66)"
font-family="MS Shell Dlg 2" font-size="10.3125" font-weight="400" font-style="normal" 
>
<path vector-effect="non-scaling-stroke" fill-rule="evenodd" d="M1961.14,2865.5 L1961.25,2865.43 L1962.54,2861.25 L1965.13,2856.62 L1968.64,2852.64 L1972.92,2849.49 L1977.76,2847.32 L1982.96,2846.22 L1983.17,2846.19 L1983.18,2846.19 L1985.57,2845.71 L1985.57,2845.7 L1992.58,2843.54 L1992.59,2843.54 L1994.84,2842.59 L1994.85,2842.59 L2001.3,2839.1 L2001.31,2839.1 L2003.33,2837.73 L2003.33,2837.73 L2008.98,2833.05 L2008.99,2833.04 L2010.7,2831.31 L2010.71,2831.3 L2015.34,2825.61 L2015.34,2825.6 L2016.68,2823.57 L2016.69,2823.56 L2020.12,2817.08 L2020.12,2817.07 L2021.04,2814.81 L2021.04,2814.8 L2023.14,2807.77 L2023.14,2807.77 L2023.61,2805.37 L2023.61,2805.37 L2024.29,2798.06 L2024.29,2798.05 L2024.28,2795.62 L2024.28,2795.61 L2023.52,2788.31 L2023.52,2788.3 L2023.04,2785.92 L2023.03,2785.91 L2020.87,2778.9 L2020.87,2778.89 L2019.92,2776.64 L2019.92,2776.63 L2016.43,2770.18 L2016.43,2770.17 L2015.06,2768.15 L2015.06,2768.15 L2010.38,2762.5 L2010.37,2762.49 L2008.64,2760.78 L2008.63,2760.77 L2002.94,2756.15 L2002.93,2756.14 L2000.9,2754.8 L2000.89,2754.79 L2000.7,2754.69 L1996.3,2751.72 L1992.62,2747.9 L1989.83,2743.38 L1988.06,2738.38 L1987.38,2733.11 L1987.76,2728.75 L1987.67,2728.65 L1993.44,2698.9 L-645.092,2187.28 L-664.128,2285.45 L-683.164,2383.62 L1955.37,2895.25 L1961.14,2865.5"/>
</g>

<g fill="none" stroke="#000000" stroke-opacity="1" stroke-width="1" stroke-linecap="square" stroke-linejoin="bevel" transform="matrix(0.99994,0,0,-0.99994,4675.33,2895.66)"
font-family="MS Shell Dlg 2" font-size="10.3125" font-weight="400" font-style="normal" 
>
</g>

<g fill="none" stroke="#000000" stroke-opacity="1" stroke-width="1" stroke-linecap="square" stroke-linejoin="bevel" transform="matrix(0.99994,0,0,-0.99994,4675.33,2895.66)"
font-family="MS Shell Dlg 2" font-size="10.3125" font-weight="400" font-style="normal" 
>
</g>

<g fill="#ae5151" fill-opacity="0.2" stroke="#333333" stroke-opacity="1" stroke-width="1" stroke-linecap="round" stroke-linejoin="round" transform="matrix(0.99994,0,0,-0.99994,4675.33,2895.66)"
font-family="MS Shell Dlg 2" font-size="10.3125" font-weight="400" font-style="normal" 
>
<path vector-effect="non-scaling-stroke" fill-rule="evenodd" d="M-3287.59,1674.88 L-4606.19,1419.2 L-4625.04,1516.39 L-3306.43,1772.07 L-3287.59,1674.88"/>
</g>

<g fill="none" stroke="#000000" stroke-opacity="1" stroke-width="1" stroke-linecap="square" stroke-linejoin="bevel" transform="matrix(0.99994,0,0,-0.99994,4675.33,2895.66)"
font-family="MS Shell Dlg 2" font-size="10.3125" font-weight="400" font-style="normal" 
>
</g>

<g fill="none" stroke="#000000" stroke-opacity="1" stroke-width="1" stroke-linecap="square" stroke-linejoin="bevel" transform="matrix(0.99994,0,0,-0.99994,4675.33,2895.66)"
font-family="MS Shell Dlg 2" font-size="10.3125" font-weight="400" font-style="normal" 
>
</g>

<g fill="#ae5151" fill-opacity="0.2" stroke="#333333" stroke-opacity="1" stroke-width="1" stroke-linecap="round" stroke-linejoin="round" transform="matrix(0.99994,0,0,-0.99994,4675.33,2895.66)"
font-family="MS Shell Dlg 2" font-size="10.3125" font-weight="400" font-style="normal" 
>
<path vector-effect="non-scaling-stroke" fill-rule="evenodd" d="M-3323.02,1871.74 L-2005.73,2127.17 L-1986.89,2029.98 L-3304.17,1774.55 L-3323.02,1871.74"/>
</g>

<g fill="none" stroke="#000000" stroke-opacity="1" stroke-width="1" stroke-linecap="square" stroke-linejoin="bevel" transform="matrix(0.99994,0,0,-0.99994,4675.33,2895.66)"
font-family="MS Shell Dlg 2" font-size="10.3125" font-weight="400" font-style="normal" 
>
</g>

<g fill="none" stroke="#000000" stroke-opacity="1" stroke-width="1" stroke-linecap="square" stroke-linejoin="bevel" transform="matrix(0.99994,0,0,-0.99994,4675.33,2895.66)"
font-family="MS Shell Dlg 2" font-size="10.3125" font-weight="400" font-style="normal" 
>
</g>

<g fill="#ae5151" fill-opacity="0.2" stroke="#333333" stroke-opacity="1" stroke-width="1" stroke-linecap="round" stroke-linejoin="round" transform="matrix(0.99994,0,0,-0.99994,4675.33,2895.66)"
font-family="MS Shell Dlg 2" font-size="10.3125" font-weight="400" font-style="normal" 
>
<path vector-effect="non-scaling-stroke" fill-rule="evenodd" d="M-683.164,2383.62 L634.123,2639.05 L652.969,2541.86 L-664.318,2286.43 L-683.164,2383.62"/>
</g>

<g fill="none" stroke="#000000" stroke-opacity="1" stroke-width="1" stroke-linecap="square" stroke-linejoin="bevel" transform="matrix(0.99994,0,0,-0.99994,4675.33,2895.66)"
font-family="MS Shell Dlg 2" font-size="10.3125" font-weight="400" font-style="normal" 
>
</g>

<g fill="none" stroke="#000000" stroke-opacity="1" stroke-width="1" stroke-linecap="square" stroke-linejoin="bevel" transform="matrix(0.99994,0,0,-0.99994,4675.33,2895.66)"
font-family="MS Shell Dlg 2" font-size="10.3125" font-weight="400" font-style="normal" 
>
</g>

<g fill="#ae5151" fill-opacity="0.2" stroke="#333333" stroke-opacity="1" stroke-width="1" stroke-linecap="round" stroke-linejoin="round" transform="matrix(0.99994,0,0,-0.99994,4675.33,2895.66)"
font-family="MS Shell Dlg 2" font-size="10.3125" font-weight="400" font-style="normal" 
>
<path vector-effect="non-scaling-stroke" fill-rule="evenodd" d="M1974.6,2796.09 L1993.44,2698.9 L674.835,2443.22 L655.989,2540.41 L1974.6,2796.09"/>
</g>

<g fill="none" stroke="#000000" stroke-opacity="1" stroke-width="1" stroke-linecap="square" stroke-linejoin="bevel" transform="matrix(0.99994,0,0,-0.99994,4675.33,2895.66)"
font-family="MS Shell Dlg 2" font-size="10.3125" font-weight="400" font-style="normal" 
>
</g>

<g fill="none" stroke="#000000" stroke-opacity="1" stroke-width="1" stroke-linecap="square" stroke-linejoin="bevel" transform="matrix(0.99994,0,0,-0.99994,4675.33,2895.66)"
font-family="MS Shell Dlg 2" font-size="10.3125" font-weight="400" font-style="normal" 
>
</g>

<g fill="#333333" fill-opacity="0.2" stroke="#333333" stroke-opacity="1" stroke-width="1" stroke-linecap="round" stroke-linejoin="round" transform="matrix(0.99994,0,0,-0.99994,4675.33,2895.66)"
font-family="MS Shell Dlg 2" font-size="10.3125" font-weight="400" font-style="normal" 
>
<path vector-effect="non-scaling-stroke" fill-rule="evenodd" d="M-3287.59,1674.88 L-4606.19,1419.2 L-4625.04,1516.39 L-3306.43,1772.07 L-3287.59,1674.88"/>
</g>

<g fill="none" stroke="#000000" stroke-opacity="1" stroke-width="1" stroke-linecap="square" stroke-linejoin="bevel" transform="matrix(0.99994,0,0,-0.99994,4675.33,2895.66)"
font-family="MS Shell Dlg 2" font-size="10.3125" font-weight="400" font-style="normal" 
>
</g>

<g fill="none" stroke="#000000" stroke-opacity="1" stroke-width="1" stroke-linecap="square" stroke-linejoin="bevel" transform="matrix(0.99994,0,0,-0.99994,4675.33,2895.66)"
font-family="MS Shell Dlg 2" font-size="10.3125" font-weight="400" font-style="normal" 
>
</g>

<g fill="#333333" fill-opacity="0.2" stroke="#333333" stroke-opacity="1" stroke-width="1" stroke-linecap="round" stroke-linejoin="round" transform="matrix(0.99994,0,0,-0.99994,4675.33,2895.66)"
font-family="MS Shell Dlg 2" font-size="10.3125" font-weight="400" font-style="normal" 
>
<path vector-effect="non-scaling-stroke" fill-rule="evenodd" d="M-3323.02,1871.74 L-2005.73,2127.17 L-1986.89,2029.98 L-3304.17,1774.55 L-3323.02,1871.74"/>
</g>

<g fill="none" stroke="#000000" stroke-opacity="1" stroke-width="1" stroke-linecap="square" stroke-linejoin="bevel" transform="matrix(0.99994,0,0,-0.99994,4675.33,2895.66)"
font-family="MS Shell Dlg 2" font-size="10.3125" font-weight="400" font-style="normal" 
>
</g>

<g fill="none" stroke="#000000" stroke-opacity="1" stroke-width="1" stroke-linecap="square" stroke-linejoin="bevel" transform="matrix(0.99994,0,0,-0.99994,4675.33,2895.66)"
font-family="MS Shell Dlg 2" font-size="10.3125" font-weight="400" font-style="normal" 
>
</g>

<g fill="#333333" fill-opacity="0.2" stroke="#333333" stroke-opacity="1" stroke-width="1" stroke-linecap="round" stroke-linejoin="round" transform="matrix(0.99994,0,0,-0.99994,4675.33,2895.66)"
font-family="MS Shell Dlg 2" font-size="10.3125" font-weight="400" font-style="normal" 
>
<path vector-effect="non-scaling-stroke" fill-rule="evenodd" d="M-683.164,2383.62 L634.123,2639.05 L652.969,2541.86 L-664.318,2286.43 L-683.164,2383.62"/>
</g>

<g fill="none" stroke="#000000" stroke-opacity="1" stroke-width="1" stroke-linecap="square" stroke-linejoin="bevel" transform="matrix(0.99994,0,0,-0.99994,4675.33,2895.66)"
font-family="MS Shell Dlg 2" font-size="10.3125" font-weight="400" font-style="normal" 
>
</g>

<g fill="none" stroke="#000000" stroke-opacity="1" stroke-width="1" stroke-linecap="square" stroke-linejoin="bevel" transform="matrix(0.99994,0,0,-0.99994,4675.33,2895.66)"
font-family="MS Shell Dlg 2" font-size="10.3125" font-weight="400" font-style="normal" 
>
</g>

<g fill="#333333" fill-opacity="0.2" stroke="#333333" stroke-opacity="1" stroke-width="1" stroke-linecap="round" stroke-linejoin="round" transform="matrix(0.99994,0,0,-0.99994,4675.33,2895.66)"
font-family="MS Shell Dlg 2" font-size="10.3125" font-weight="400" font-style="normal" 
>
<path vector-effect="non-scaling-stroke" fill-rule="evenodd" d="M1974.6,2796.09 L1993.44,2698.9 L674.835,2443.22 L655.989,2540.41 L1974.6,2796.09"/>
</g>

<g fill="none" stroke="#000000" stroke-opacity="1" stroke-width="1" stroke-linecap="square" stroke-linejoin="bevel" transform="matrix(0.99994,0,0,-0.99994,4675.33,2895.66)"
font-family="MS Shell Dlg 2" font-size="10.3125" font-weight="400" font-style="normal" 
>
</g>

<g fill="none" stroke="#000000" stroke-opacity="1" stroke-width="1" stroke-linecap="square" stroke-linejoin="bevel" transform="matrix(1,0,0,-1,0,1477.05)"
font-family="MS Shell Dlg 2" font-size="10.3125" font-weight="400" font-style="normal" 
>
</g>
</g>
</svg>
