<?xml version="1.0" encoding="UTF-8" standalone="no"?>
<svg width="24437.9mm" height="14725.8mm"
 xmlns="http://www.w3.org/2000/svg" xmlns:xlink="http://www.w3.org/1999/xlink"  version="1.2" baseProfile="tiny">
<title>SVG Generator Example Drawing</title>
<desc>An SVG drawing created by the SVG Generator</desc>
<defs>
</defs>
<g fill="none" stroke="black" stroke-width="1" fill-rule="evenodd" stroke-linecap="square" stroke-linejoin="bevel" >

<g fill="none" stroke="#000000" stroke-opacity="1" stroke-width="1" stroke-linecap="square" stroke-linejoin="bevel" transform="matrix(1,0,0,-1,0,52178.7)"
font-family="MS Shell Dlg 2" font-size="10.3125" font-weight="400" font-style="normal" 
>
</g>

<g fill="none" stroke="#000000" stroke-opacity="1" stroke-width="1" stroke-linecap="square" stroke-linejoin="bevel" transform="matrix(1,0,0,-1,0,52178.7)"
font-family="MS Shell Dlg 2" font-size="10.3125" font-weight="400" font-style="normal" 
>
</g>

<g fill="none" stroke="#000000" stroke-opacity="1" stroke-width="1" stroke-linecap="square" stroke-linejoin="bevel" transform="matrix(0.999987,0,0,-0.999987,30562.4,50909.5)"
font-family="MS Shell Dlg 2" font-size="10.3125" font-weight="400" font-style="normal" 
>
</g>

<g fill="#ae5151" fill-opacity="0.2" stroke="#333333" stroke-opacity="1" stroke-width="1" stroke-linecap="round" stroke-linejoin="round" transform="matrix(0.999987,0,0,-0.999987,30562.4,50909.5)"
font-family="MS Shell Dlg 2" font-size="10.3125" font-weight="400" font-style="normal" 
>
<path vector-effect="non-scaling-stroke" fill-rule="evenodd" d="M23292.6,36918.8 L23292.6,36980 L24000.4,36992.4 L25045.6,37013.3 L26053.6,37035.4 L27061.4,37058.8 L28083.8,37083.4 L29129.8,37108.9 L30144.3,37133.6 L31159.8,37158 L32177,37181.8 L33221.1,37205.3 L33221.1,37205.3 L34238.6,37227.2 L34238.6,37227.2 L35272.5,37248.3 L35272.5,37248.3 L36313.9,37268.2 L36313.9,37268.2 L37328.8,37286.3 L37328.8,37286.3 L38341.5,37302.9 L38341.5,37302.9 L39382.1,37318.5 L39382.1,37318.5 L40402.3,37332.4 L40402.3,37332.4 L41414.8,37344.7 L41414.8,37344.7 L42420.3,37355.4 L42420.3,37355.4 L43453.6,37365.1 L43453.6,37365.1 L44469.9,37373.1 L44469.9,37373.1 L45502.8,37379.8 L45502.8,37379.8 L46520.8,37384.8 L46520.8,37384.8 L47532.2,37385.9 L47532.2,37385.9 L48540.1,37378.8 L48540.1,37378.8 L49556.5,37359.1 L49556.5,37359.1 L50571.6,37321.8 L50571.6,37321.8 L51605.2,37258.8 L51605.2,37258.8 L52611.1,37164 L52611.1,37164 L53619.1,37021.6 L53619.2,37021.6 L54610.7,36811.3 L54610.7,36811.3 L55574.4,36492.4 L55574.4,36492.4 L56028,36232.4 L55859.1,35976.4 L55859.1,35976.4 L55225,35174.7 L55225,35174.7 L54554.1,34432.6 L54554.1,34432.6 L53843.6,33728.2 L53843.6,33728.2 L53090,33050.1 L53090,33050.1 L52291.5,32395.2 L52291.5,32395.1 L51483.3,31789.5 L51483.3,31789.5 L50649.3,31219.3 L50649.3,31219.3 L49790.4,30687 L49790.4,30687 L48909.8,30197.8 L48909.8,30197.8 L47994.4,29751 L47994.3,29751 L47069.6,29364.3 L47069.6,29364.3 L46106.7,29028 L46106.7,29028 L45121.3,28750.6 L45121.3,28750.6 L44130.4,28536.9 L44130.4,28536.9 L43129.1,28385 L43129,28385 L42116.4,28295.3 L42116.4,28295.3 L41088.9,28268.6 L41088.9,28268.6 L40074.3,28305.4 L40074.3,28305.4 L39065.7,28404.2 L39065.7,28404.2 L38047,28568.3 L38047,28568.3 L37050.4,28793.5 L37050.4,28793.5 L36063,29083.4 L36063,29083.4 L35120,29427.6 L35120,29427.6 L34183.5,29842.6 L34183.5,29842.6 L33288.2,30319.5 L33288.2,30319.5 L32443.2,30859 L32443.2,30859 L31641.1,31467.5 L31641.1,31467.5 L30863.4,32142.5 L30863.4,32142.5 L30122.2,32836.8 L30122.2,32836.8 L29385.6,33530.9 L28635.1,34194.8 L27825.6,34828 L26981.5,35387.1 L26093.5,35874.3 L25178.1,36289 L24238.7,36637.8 L23292.6,36918.8"/>
</g>

<g fill="none" stroke="#000000" stroke-opacity="1" stroke-width="1" stroke-linecap="square" stroke-linejoin="bevel" transform="matrix(0.999987,0,0,-0.999987,30562.4,50909.5)"
font-family="MS Shell Dlg 2" font-size="10.3125" font-weight="400" font-style="normal" 
>
</g>

<g fill="none" stroke="#000000" stroke-opacity="1" stroke-width="1" stroke-linecap="square" stroke-linejoin="bevel" transform="matrix(0.999987,0,0,-0.999987,30562.4,50909.5)"
font-family="MS Shell Dlg 2" font-size="10.3125" font-weight="400" font-style="normal" 
>
</g>

<g fill="#ae5151" fill-opacity="0.2" stroke="#333333" stroke-opacity="1" stroke-width="1" stroke-linecap="round" stroke-linejoin="round" transform="matrix(0.999987,0,0,-0.999987,30562.4,50909.5)"
font-family="MS Shell Dlg 2" font-size="10.3125" font-weight="400" font-style="normal" 
>
<path vector-effect="non-scaling-stroke" fill-rule="evenodd" d="M-30562.3,36253.2 L-30532,36278 L-30532,36278 L-29610.1,36670 L-29610.1,36670 L-28634.7,36926.3 L-28634.7,36926.3 L-27627.1,37100.3 L-27627.1,37100.3 L-26617.6,37216.7 L-26617.6,37216.7 L-25592,37294.6 L-25592,37294.6 L-24591.2,37342.6 L-24591.2,37342.6 L-23582.5,37370.5 L-23582.5,37370.5 L-22578.2,37383.4 L-22578.2,37383.4 L-21548.3,37386.1 L-21548.3,37386.1 L-20490.3,37382.4 L-20490.3,37382.4 L-19461.1,37376.4 L-19461.1,37376.4 L-18434.7,37368.9 L-18434.7,37368.9 L-17398,37359.9 L-17398,37359.9 L-16361.3,37349.5 L-16361.3,37349.5 L-15317.7,37337.4 L-15317.7,37337.4 L-14300.6,37324.2 L-14300.6,37324.2 L-13268,37309.3 L-13268,37309.3 L-12241.3,37293 L-12241.3,37293 L-11203.4,37275 L-11203.4,37275 L-10169.5,37255.8 L-10169.5,37255.8 L-9121.68,37234.9 L-9121.68,37234.9 L-8099.78,37213.3 L-8099.78,37213.3 L-7088.73,37190.9 L-6087.63,37167.8 L-5068.1,37143.5 L-4021.79,37118.1 L-2997.63,37093.1 L-1988.73,37068.7 L-952.924,37044.2 L78.8872,37021 L1106.01,36999.7 L2125.79,36980.9 L2192.62,36979.8 L2192.62,36911.3 L1701.64,36781.6 L739.731,36458.6 L-186.573,36075.3 L-1087.94,35622.8 L-1951.58,35098.2 L-2776.44,34498.7 L-3542.5,33855.3 L-4291.02,33165.4 L-5022.5,32472 L-5022.5,32472 L-5799.69,31767.4 L-5799.69,31767.4 L-6581.59,31132.6 L-6581.6,31132.6 L-7419.95,30551.8 L-7419.95,30551.8 L-8297.27,30045.5 L-8297.27,30045.5 L-9201.34,29609.9 L-9201.34,29609.9 L-10136,29236 L-10136,29236 L-11093.2,28923.5 L-11093.2,28923.5 L-12084.5,28668 L-12084.5,28668 L-13071.1,28478.1 L-13071.1,28478.1 L-14076.6,28347.8 L-14076.6,28347.8 L-15097.2,28279.1 L-15097.2,28279.1 L-16097.4,28273.4 L-16097.4,28273.4 L-17125.4,28331.2 L-17125.4,28331.2 L-18132.5,28451.2 L-18132.5,28451.2 L-19129.8,28633.4 L-19129.8,28633.4 L-20112.1,28876.4 L-20112.1,28876.4 L-21071,29176.8 L-21071,29176.8 L-22032,29543.5 L-22032,29543.5 L-22962.2,29964.2 L-22962.2,29964.2 L-23875.4,30441.1 L-23875.4,30441.1 L-24748.9,30955.2 L-24748.9,30955.2 L-25597.6,31509 L-25597.6,31509 L-26417.8,32097.2 L-26417.8,32097.2 L-27208.3,32717.4 L-27208.3,32717.4 L-27974.6,33375 L-27974.6,33375 L-28713.9,34071.7 L-28713.9,34071.7 L-29408.9,34797.8 L-29408.9,34797.8 L-30071.9,35579.4 L-30071.9,35579.4 L-30562.3,36253.2"/>
</g>

<g fill="none" stroke="#000000" stroke-opacity="1" stroke-width="1" stroke-linecap="square" stroke-linejoin="bevel" transform="matrix(0.999987,0,0,-0.999987,30562.4,50909.5)"
font-family="MS Shell Dlg 2" font-size="10.3125" font-weight="400" font-style="normal" 
>
</g>

<g fill="none" stroke="#000000" stroke-opacity="1" stroke-width="1" stroke-linecap="square" stroke-linejoin="bevel" transform="matrix(0.999987,0,0,-0.999987,30562.4,50909.5)"
font-family="MS Shell Dlg 2" font-size="10.3125" font-weight="400" font-style="normal" 
>
</g>

<g fill="#ae5151" fill-opacity="0.2" stroke="#333333" stroke-opacity="1" stroke-width="1" stroke-linecap="round" stroke-linejoin="round" transform="matrix(0.999987,0,0,-0.999987,30562.4,50909.5)"
font-family="MS Shell Dlg 2" font-size="10.3125" font-weight="400" font-style="normal" 
>
<path vector-effect="non-scaling-stroke" fill-rule="evenodd" d="M2292.62,36937.7 L2292.62,36978.3 L2437.75,36976 L2292.62,36937.7"/>
</g>

<g fill="none" stroke="#000000" stroke-opacity="1" stroke-width="1" stroke-linecap="square" stroke-linejoin="bevel" transform="matrix(0.999987,0,0,-0.999987,30562.4,50909.5)"
font-family="MS Shell Dlg 2" font-size="10.3125" font-weight="400" font-style="normal" 
>
</g>

<g fill="none" stroke="#000000" stroke-opacity="1" stroke-width="1" stroke-linecap="square" stroke-linejoin="bevel" transform="matrix(0.999987,0,0,-0.999987,30562.4,50909.5)"
font-family="MS Shell Dlg 2" font-size="10.3125" font-weight="400" font-style="normal" 
>
</g>

<g fill="#ae5151" fill-opacity="0.2" stroke="#333333" stroke-opacity="1" stroke-width="1" stroke-linecap="round" stroke-linejoin="round" transform="matrix(0.999987,0,0,-0.999987,30562.4,50909.5)"
font-family="MS Shell Dlg 2" font-size="10.3125" font-weight="400" font-style="normal" 
>
<path vector-effect="non-scaling-stroke" fill-rule="evenodd" d="M23048.5,36975.8 L23192.6,36978.3 L23192.6,36943.1 L23048.5,36975.8"/>
</g>

<g fill="none" stroke="#000000" stroke-opacity="1" stroke-width="1" stroke-linecap="square" stroke-linejoin="bevel" transform="matrix(0.999987,0,0,-0.999987,30562.4,50909.5)"
font-family="MS Shell Dlg 2" font-size="10.3125" font-weight="400" font-style="normal" 
>
</g>

<g fill="none" stroke="#000000" stroke-opacity="1" stroke-width="1" stroke-linecap="square" stroke-linejoin="bevel" transform="matrix(0.999987,0,0,-0.999987,30562.4,50909.5)"
font-family="MS Shell Dlg 2" font-size="10.3125" font-weight="400" font-style="normal" 
>
</g>

<g fill="#ae5151" fill-opacity="0.2" stroke="#333333" stroke-opacity="1" stroke-width="1" stroke-linecap="round" stroke-linejoin="round" transform="matrix(0.999987,0,0,-0.999987,30562.4,50909.5)"
font-family="MS Shell Dlg 2" font-size="10.3125" font-weight="400" font-style="normal" 
>
<path vector-effect="non-scaling-stroke" fill-rule="evenodd" d="M14696.1,2479.98 L14709.1,2479.98 L16011.5,2479.98 L16011.6,2479.98 L16011.6,2000 L16011.6,1999.99 L16011.6,1999.98 L16010.5,1918.47 L16010.5,1918.45 L15828.1,920.32 L15828.1,920.291 L15348.4,26.186 L15348.4,26.1612 L14617.6,-677.769 L14617.6,-677.787 L13706.2,-1123.72 L13706.1,-1123.73 L12701.9,-1268.69 L12701.8,-1268.69 L11701.5,-1098.73 L11701.5,-1098.72 L10801.5,-630.195 L10801.4,-630.176 L10088.4,91.7598 L10088.4,91.785 L9631.17,997.575 L9631.16,997.605 L9473.68,1999.96 L9473.68,1999.98 L9473.68,2000 L9473.68,2480 L9473.78,2480 L10776.1,2480 L10789.1,2480 L12091.5,2479.99 L13393.8,2479.99 L14696.1,2479.98"/>
</g>

<g fill="none" stroke="#000000" stroke-opacity="1" stroke-width="1" stroke-linecap="square" stroke-linejoin="bevel" transform="matrix(0.999987,0,0,-0.999987,30562.4,50909.5)"
font-family="MS Shell Dlg 2" font-size="10.3125" font-weight="400" font-style="normal" 
>
</g>

<g fill="none" stroke="#000000" stroke-opacity="1" stroke-width="1" stroke-linecap="square" stroke-linejoin="bevel" transform="matrix(0.999987,0,0,-0.999987,30562.4,50909.5)"
font-family="MS Shell Dlg 2" font-size="10.3125" font-weight="400" font-style="normal" 
>
</g>

<g fill="#ae5151" fill-opacity="0.2" stroke="#333333" stroke-opacity="1" stroke-width="1" stroke-linecap="round" stroke-linejoin="round" transform="matrix(0.999987,0,0,-0.999987,30562.4,50909.5)"
font-family="MS Shell Dlg 2" font-size="10.3125" font-weight="400" font-style="normal" 
>
<path vector-effect="non-scaling-stroke" fill-rule="evenodd" d="M14709.1,3519.98 L14696.1,3519.98 L13393.8,3519.99 L12091.5,3519.99 L10789.1,3520 L10776.1,3520 L9473.78,3520 L9473.68,3520 L9473.68,4479.98 L9473.78,4479.98 L10776.1,4479.98 L10789.1,4479.98 L12091.5,4479.98 L13393.8,4479.98 L14696.1,4479.98 L14709.1,4479.98 L16011.5,4479.98 L16011.6,4479.98 L16011.6,3519.98 L16011.5,3519.98 L14709.1,3519.98"/>
</g>

<g fill="none" stroke="#000000" stroke-opacity="1" stroke-width="1" stroke-linecap="square" stroke-linejoin="bevel" transform="matrix(0.999987,0,0,-0.999987,30562.4,50909.5)"
font-family="MS Shell Dlg 2" font-size="10.3125" font-weight="400" font-style="normal" 
>
</g>

<g fill="none" stroke="#000000" stroke-opacity="1" stroke-width="1" stroke-linecap="square" stroke-linejoin="bevel" transform="matrix(0.999987,0,0,-0.999987,30562.4,50909.5)"
font-family="MS Shell Dlg 2" font-size="10.3125" font-weight="400" font-style="normal" 
>
</g>

<g fill="#ae5151" fill-opacity="0.2" stroke="#333333" stroke-opacity="1" stroke-width="1" stroke-linecap="round" stroke-linejoin="round" transform="matrix(0.999987,0,0,-0.999987,30562.4,50909.5)"
font-family="MS Shell Dlg 2" font-size="10.3125" font-weight="400" font-style="normal" 
>
<path vector-effect="non-scaling-stroke" fill-rule="evenodd" d="M6722.61,23545.3 L6722.61,18870.4 L6722.61,14195.5 L6722.61,14148.7 L6722.61,9473.79 L6722.61,9473.69 L6242.63,9473.69 L6242.59,9473.7 L6242.56,9473.72 L6242.53,9473.75 L6242.53,9473.79 L5242.63,9473.79 L5242.63,32852.5 L5686.68,32882.3 L6243.05,32892 L6722.61,32891.9 L6722.61,28267 L6722.61,28220.3 L6722.61,23545.3"/>
</g>

<g fill="none" stroke="#000000" stroke-opacity="1" stroke-width="1" stroke-linecap="square" stroke-linejoin="bevel" transform="matrix(0.999987,0,0,-0.999987,30562.4,50909.5)"
font-family="MS Shell Dlg 2" font-size="10.3125" font-weight="400" font-style="normal" 
>
</g>

<g fill="none" stroke="#000000" stroke-opacity="1" stroke-width="1" stroke-linecap="square" stroke-linejoin="bevel" transform="matrix(0.999987,0,0,-0.999987,30562.4,50909.5)"
font-family="MS Shell Dlg 2" font-size="10.3125" font-weight="400" font-style="normal" 
>
</g>

<g fill="#ae5151" fill-opacity="0.2" stroke="#333333" stroke-opacity="1" stroke-width="1" stroke-linecap="round" stroke-linejoin="round" transform="matrix(0.999987,0,0,-0.999987,30562.4,50909.5)"
font-family="MS Shell Dlg 2" font-size="10.3125" font-weight="400" font-style="normal" 
>
<path vector-effect="non-scaling-stroke" fill-rule="evenodd" d="M18762.6,14148.7 L18762.6,14195.5 L18762.6,18870.4 L18762.6,23545.3 L18762.6,28220.3 L18762.6,28267 L18762.6,32941.9 L18767.6,32941.9 L18767.6,32891.9 L19241.8,32892 L20242.6,32859.9 L20242.6,9473.79 L19242.7,9473.79 L19242.7,9473.75 L19242.7,9473.72 L19242.6,9473.7 L19242.6,9473.69 L18762.6,9473.69 L18762.6,9473.79 L18762.6,14148.7"/>
</g>

<g fill="none" stroke="#000000" stroke-opacity="1" stroke-width="1" stroke-linecap="square" stroke-linejoin="bevel" transform="matrix(0.999987,0,0,-0.999987,30562.4,50909.5)"
font-family="MS Shell Dlg 2" font-size="10.3125" font-weight="400" font-style="normal" 
>
</g>

<g fill="none" stroke="#000000" stroke-opacity="1" stroke-width="1" stroke-linecap="square" stroke-linejoin="bevel" transform="matrix(0.999987,0,0,-0.999987,30562.4,50909.5)"
font-family="MS Shell Dlg 2" font-size="10.3125" font-weight="400" font-style="normal" 
>
</g>

<g fill="#ae5151" fill-opacity="0.2" stroke="#333333" stroke-opacity="1" stroke-width="1" stroke-linecap="round" stroke-linejoin="round" transform="matrix(0.999987,0,0,-0.999987,30562.4,50909.5)"
font-family="MS Shell Dlg 2" font-size="10.3125" font-weight="400" font-style="normal" 
>
<path vector-effect="non-scaling-stroke" fill-rule="evenodd" d="M7762.61,14148.7 L7762.61,14195.5 L7762.61,18870.4 L7762.61,23545.3 L7762.61,28220.3 L7762.61,28267 L7762.61,32941.9 L7762.61,32942 L8722.61,32942 L8722.61,32941.9 L8722.61,32941.9 L8722.61,31415.5 L9217.61,31415.5 L9217.61,28267 L8722.61,28267 L8722.62,14148.7 L8722.62,14148.7 L8722.63,9473.78 L8722.63,9473.69 L7762.61,9473.69 L7762.61,9473.79 L7762.61,14148.7"/>
</g>

<g fill="none" stroke="#000000" stroke-opacity="1" stroke-width="1" stroke-linecap="square" stroke-linejoin="bevel" transform="matrix(0.999987,0,0,-0.999987,30562.4,50909.5)"
font-family="MS Shell Dlg 2" font-size="10.3125" font-weight="400" font-style="normal" 
>
</g>

<g fill="none" stroke="#000000" stroke-opacity="1" stroke-width="1" stroke-linecap="square" stroke-linejoin="bevel" transform="matrix(0.999987,0,0,-0.999987,30562.4,50909.5)"
font-family="MS Shell Dlg 2" font-size="10.3125" font-weight="400" font-style="normal" 
>
</g>

<g fill="#ae5151" fill-opacity="0.2" stroke="#333333" stroke-opacity="1" stroke-width="1" stroke-linecap="round" stroke-linejoin="round" transform="matrix(0.999987,0,0,-0.999987,30562.4,50909.5)"
font-family="MS Shell Dlg 2" font-size="10.3125" font-weight="400" font-style="normal" 
>
<path vector-effect="non-scaling-stroke" fill-rule="evenodd" d="M16267.6,14945.5 L16762.6,14945.5 L16762.6,18870.4 L16762.6,18870.4 L16762.6,23545.3 L16762.6,23545.3 L16762.6,28220.3 L16762.6,28220.3 L16762.6,32942 L17722.6,32942 L17722.6,32941.9 L17722.6,28267 L17722.6,28220.3 L17722.6,23545.3 L17722.6,18870.4 L17722.6,14195.5 L17722.6,14148.7 L17722.6,9473.79 L17722.6,9473.69 L16762.6,9473.69 L16762.6,9473.78 L16762.6,14195.5 L16267.6,14195.5 L16267.6,14945.5"/>
</g>

<g fill="none" stroke="#000000" stroke-opacity="1" stroke-width="1" stroke-linecap="square" stroke-linejoin="bevel" transform="matrix(0.999987,0,0,-0.999987,30562.4,50909.5)"
font-family="MS Shell Dlg 2" font-size="10.3125" font-weight="400" font-style="normal" 
>
</g>

<g fill="none" stroke="#000000" stroke-opacity="1" stroke-width="1" stroke-linecap="square" stroke-linejoin="bevel" transform="matrix(0.999987,0,0,-0.999987,30562.4,50909.5)"
font-family="MS Shell Dlg 2" font-size="10.3125" font-weight="400" font-style="normal" 
>
</g>

<g fill="#ae5151" fill-opacity="0.2" stroke="#333333" stroke-opacity="1" stroke-width="1" stroke-linecap="round" stroke-linejoin="round" transform="matrix(0.999987,0,0,-0.999987,30562.4,50909.5)"
font-family="MS Shell Dlg 2" font-size="10.3125" font-weight="400" font-style="normal" 
>
<path vector-effect="non-scaling-stroke" fill-rule="evenodd" d="M15919,44765.7 L15963.9,44720.8 L15919,44720.8 L15919,44765.7"/>
</g>

<g fill="none" stroke="#000000" stroke-opacity="1" stroke-width="1" stroke-linecap="square" stroke-linejoin="bevel" transform="matrix(0.999987,0,0,-0.999987,30562.4,50909.5)"
font-family="MS Shell Dlg 2" font-size="10.3125" font-weight="400" font-style="normal" 
>
</g>

<g fill="none" stroke="#000000" stroke-opacity="1" stroke-width="1" stroke-linecap="square" stroke-linejoin="bevel" transform="matrix(0.999987,0,0,-0.999987,30562.4,50909.5)"
font-family="MS Shell Dlg 2" font-size="10.3125" font-weight="400" font-style="normal" 
>
</g>

<g fill="#ae5151" fill-opacity="0.2" stroke="#333333" stroke-opacity="1" stroke-width="1" stroke-linecap="round" stroke-linejoin="round" transform="matrix(0.999987,0,0,-0.999987,30562.4,50909.5)"
font-family="MS Shell Dlg 2" font-size="10.3125" font-weight="400" font-style="normal" 
>
<path vector-effect="non-scaling-stroke" fill-rule="evenodd" d="M9521.37,44720.8 L9566.25,44765.7 L9566.25,44720.8 L9521.37,44720.8"/>
</g>

<g fill="none" stroke="#000000" stroke-opacity="1" stroke-width="1" stroke-linecap="square" stroke-linejoin="bevel" transform="matrix(0.999987,0,0,-0.999987,30562.4,50909.5)"
font-family="MS Shell Dlg 2" font-size="10.3125" font-weight="400" font-style="normal" 
>
</g>

<g fill="none" stroke="#000000" stroke-opacity="1" stroke-width="1" stroke-linecap="square" stroke-linejoin="bevel" transform="matrix(0.999987,0,0,-0.999987,30562.4,50909.5)"
font-family="MS Shell Dlg 2" font-size="10.3125" font-weight="400" font-style="normal" 
>
</g>

<g fill="#ae5151" fill-opacity="0.2" stroke="#333333" stroke-opacity="1" stroke-width="1" stroke-linecap="round" stroke-linejoin="round" transform="matrix(0.999987,0,0,-0.999987,30562.4,50909.5)"
font-family="MS Shell Dlg 2" font-size="10.3125" font-weight="400" font-style="normal" 
>
<path vector-effect="non-scaling-stroke" fill-rule="evenodd" d="M14512.5,45520 L14500.8,45520 L13328.7,45520 L12156.6,45520 L10984.5,45520 L10972.8,45520 L9800.68,45520 L9800.57,45520 L9800.57,46480 L9800.67,46480 L10972.8,46480 L10984.5,46480 L12156.6,46480 L13328.7,46480 L14500.7,46480 L14512.5,46480 L15684.6,46480 L15684.7,46480 L15684.7,45520 L15684.6,45520 L14512.5,45520"/>
</g>

<g fill="none" stroke="#000000" stroke-opacity="1" stroke-width="1" stroke-linecap="square" stroke-linejoin="bevel" transform="matrix(0.999987,0,0,-0.999987,30562.4,50909.5)"
font-family="MS Shell Dlg 2" font-size="10.3125" font-weight="400" font-style="normal" 
>
</g>

<g fill="none" stroke="#000000" stroke-opacity="1" stroke-width="1" stroke-linecap="square" stroke-linejoin="bevel" transform="matrix(0.999987,0,0,-0.999987,30562.4,50909.5)"
font-family="MS Shell Dlg 2" font-size="10.3125" font-weight="400" font-style="normal" 
>
</g>

<g fill="#ae5151" fill-opacity="0.2" stroke="#333333" stroke-opacity="1" stroke-width="1" stroke-linecap="round" stroke-linejoin="round" transform="matrix(0.999987,0,0,-0.999987,30562.4,50909.5)"
font-family="MS Shell Dlg 2" font-size="10.3125" font-weight="400" font-style="normal" 
>
<path vector-effect="non-scaling-stroke" fill-rule="evenodd" d="M14512.5,47520 L14500.8,47520 L13328.7,47520 L12156.6,47520 L10984.5,47520 L10972.8,47520 L9800.68,47520 L9800.57,47520 L9800.57,48000 L9800.58,48000 L9800.57,48000 L9803.43,48129.6 L9803.43,48129.6 L10019.5,49113.7 L10019.5,49113.8 L10555,49967.2 L10555,49967.2 L11347.1,50590 L11347.1,50590 L12302.8,50909 L12302.8,50909 L13310.1,50886.8 L13310.2,50886.8 L14250.9,50526 L14250.9,50526 L15014.8,49868.9 L15014.8,49868.9 L15512.1,48992.7 L15512.1,48992.7 L15684.7,48000 L15684.7,48000 L15684.7,48000 L15684.7,47520 L15684.6,47520 L14512.5,47520"/>
</g>

<g fill="none" stroke="#000000" stroke-opacity="1" stroke-width="1" stroke-linecap="square" stroke-linejoin="bevel" transform="matrix(0.999987,0,0,-0.999987,30562.4,50909.5)"
font-family="MS Shell Dlg 2" font-size="10.3125" font-weight="400" font-style="normal" 
>
</g>

<g fill="none" stroke="#000000" stroke-opacity="1" stroke-width="1" stroke-linecap="square" stroke-linejoin="bevel" transform="matrix(0.999987,0,0,-0.999987,30562.4,50909.5)"
font-family="MS Shell Dlg 2" font-size="10.3125" font-weight="400" font-style="normal" 
>
</g>

<g fill="#ae5151" fill-opacity="0.2" stroke="#333333" stroke-opacity="1" stroke-width="1" stroke-linecap="round" stroke-linejoin="round" transform="matrix(0.999987,0,0,-0.999987,30562.4,50909.5)"
font-family="MS Shell Dlg 2" font-size="10.3125" font-weight="400" font-style="normal" 
>
<path vector-effect="non-scaling-stroke" fill-rule="evenodd" d="M9473.78,5519.98 L9213.31,5519.98 L9213.31,4892.01 L9079.22,4836.47 L4242.68,-0.0707107 L4242.65,-0.092388 L4242.61,-0.1 L0,-0.1 L-0.0382683,-0.092388 L-0.0707107,-0.0707107 L-0.092388,-0.0382683 L-0.1,-3.63798e-11 L-0.092388,0.0382683 L-0.0707107,0.0707107 L8722.63,8722.77 L8722.63,8379.43 L9762.63,8379.43 L9762.63,8538.8 L9762.63,8538.8 L9762.63,9473.78 L9762.62,14195.5 L9267.62,14195.5 L9267.62,14945.5 L9762.62,14945.5 L9762.61,31470.2 L9762.61,31470.2 L9762.61,33876.9 L9267.61,33876.9 L9267.61,36941.9 L9762.61,36941.9 L9762.61,37340.4 L9762.61,38850.3 L9267.61,38850.3 L9267.61,40244.7 L9762.61,40244.7 L9762.62,41639.2 L9267.62,41639.2 L9267.62,42039.6 L9762.61,42039.6 L9762.62,43033.6 L9762.62,43033.6 L9762.63,44441.9 L9762.63,44480 L9800.67,44480 L10972.8,44480 L10984.5,44480 L12156.6,44480 L13328.7,44480 L14500.8,44480 L14512.5,44480 L15684.6,44480 L15722.6,44480 L15722.6,44441.9 L15722.6,43838.4 L16217.6,43838.4 L16217.6,43240.7 L15722.6,43240.7 L15722.6,43047.5 L15722.6,43047.5 L15722.6,38836.4 L16217.6,38836.4 L16217.6,38036.3 L15722.6,38036.3 L15722.6,37442 L15722.6,37442 L15722.6,37343.5 L15722.6,31415.5 L16217.6,31415.5 L16217.6,28267 L15722.6,28267 L15722.6,25943.7 L15722.6,25943.7 L15722.6,20472 L15722.6,20472 L15722.6,15000.2 L15722.6,15000.2 L15722.6,9473.78 L15722.6,8538.79 L15722.6,8538.79 L15722.6,8379.43 L16762.6,8379.43 L16762.6,8722.77 L25485.3,0.0707107 L25485.3,0.0382683 L25485.3,-3.9654e-09 L25485.3,-0.0382683 L25485.3,-0.0707107 L25485.3,-0.092388 L25485.2,-0.1 L21242.6,-0.1 L21242.6,-0.092388 L21242.5,-0.0707107 L16406,4836.46 L16271.9,4892.01 L16271.9,5519.98 L16011.5,5519.98 L14709.1,5519.98 L14696.1,5519.98 L13393.8,5519.98 L12091.5,5519.98 L10789.1,5519.98 L10776.1,5519.98 L9473.78,5519.98"/>
</g>

<g fill="none" stroke="#000000" stroke-opacity="1" stroke-width="1" stroke-linecap="square" stroke-linejoin="bevel" transform="matrix(0.999987,0,0,-0.999987,30562.4,50909.5)"
font-family="MS Shell Dlg 2" font-size="10.3125" font-weight="400" font-style="normal" 
>
</g>

<g fill="none" stroke="#000000" stroke-opacity="1" stroke-width="1" stroke-linecap="square" stroke-linejoin="bevel" transform="matrix(0.999987,0,0,-0.999987,30562.4,50909.5)"
font-family="MS Shell Dlg 2" font-size="10.3125" font-weight="400" font-style="normal" 
>
</g>

<g fill="#ae5151" fill-opacity="0.2" stroke="#333333" stroke-opacity="1" stroke-width="1" stroke-linecap="round" stroke-linejoin="round" transform="matrix(0.999987,0,0,-0.999987,30562.4,50909.5)"
font-family="MS Shell Dlg 2" font-size="10.3125" font-weight="400" font-style="normal" 
>
<path vector-effect="non-scaling-stroke" fill-rule="evenodd" d="M6722.61,42045.5 L6722.61,42039.6 L6722.61,41442 L6717.61,41442 L6717.61,41492 L6242.7,41492 L5242.63,41494.7 L5242.63,44441.9 L6242.53,44441.9 L6242.53,44442 L6242.56,44442 L6242.59,44442 L6242.63,44442 L6722.61,44442 L6722.61,44441.9 L6722.61,43844.3 L6722.61,43838.4 L6722.61,43240.7 L6722.61,42643.1 L6722.61,42045.5"/>
</g>

<g fill="none" stroke="#000000" stroke-opacity="1" stroke-width="1" stroke-linecap="square" stroke-linejoin="bevel" transform="matrix(0.999987,0,0,-0.999987,30562.4,50909.5)"
font-family="MS Shell Dlg 2" font-size="10.3125" font-weight="400" font-style="normal" 
>
</g>

<g fill="none" stroke="#000000" stroke-opacity="1" stroke-width="1" stroke-linecap="square" stroke-linejoin="bevel" transform="matrix(0.999987,0,0,-0.999987,30562.4,50909.5)"
font-family="MS Shell Dlg 2" font-size="10.3125" font-weight="400" font-style="normal" 
>
</g>

<g fill="#ae5151" fill-opacity="0.2" stroke="#333333" stroke-opacity="1" stroke-width="1" stroke-linecap="round" stroke-linejoin="round" transform="matrix(0.999987,0,0,-0.999987,30562.4,50909.5)"
font-family="MS Shell Dlg 2" font-size="10.3125" font-weight="400" font-style="normal" 
>
<path vector-effect="non-scaling-stroke" fill-rule="evenodd" d="M7762.61,42039.6 L7762.61,42045.5 L7762.61,42643.1 L7762.61,43240.7 L7762.61,43838.4 L7762.61,43844.3 L7762.61,44441.9 L7762.61,44442 L8722.63,44442 L8722.63,44441.9 L8722.62,43838.4 L9217.62,43838.4 L9217.62,43240.7 L8722.62,43240.8 L8722.61,42643.1 L8722.62,42643.1 L8722.62,42045.5 L8722.61,42045.5 L8722.61,41441.9 L7762.61,41441.9 L7762.61,41442 L7762.61,42039.6"/>
</g>

<g fill="none" stroke="#000000" stroke-opacity="1" stroke-width="1" stroke-linecap="square" stroke-linejoin="bevel" transform="matrix(0.999987,0,0,-0.999987,30562.4,50909.5)"
font-family="MS Shell Dlg 2" font-size="10.3125" font-weight="400" font-style="normal" 
>
</g>

<g fill="none" stroke="#000000" stroke-opacity="1" stroke-width="1" stroke-linecap="square" stroke-linejoin="bevel" transform="matrix(0.999987,0,0,-0.999987,30562.4,50909.5)"
font-family="MS Shell Dlg 2" font-size="10.3125" font-weight="400" font-style="normal" 
>
</g>

<g fill="#ae5151" fill-opacity="0.2" stroke="#333333" stroke-opacity="1" stroke-width="1" stroke-linecap="round" stroke-linejoin="round" transform="matrix(0.999987,0,0,-0.999987,30562.4,50909.5)"
font-family="MS Shell Dlg 2" font-size="10.3125" font-weight="400" font-style="normal" 
>
<path vector-effect="non-scaling-stroke" fill-rule="evenodd" d="M18762.6,42039.6 L18762.6,42045.5 L18762.6,42643.1 L18762.6,43240.7 L18762.6,43838.4 L18762.6,43844.3 L18762.6,44441.9 L18762.6,44442 L19242.6,44442 L19242.6,44442 L19242.7,44442 L19242.7,44442 L19242.7,44441.9 L20242.6,44441.9 L20242.6,41495.1 L19882.5,41493 L19242.6,41491.9 L18762.6,41491.9 L18762.6,42039.6"/>
</g>

<g fill="none" stroke="#000000" stroke-opacity="1" stroke-width="1" stroke-linecap="square" stroke-linejoin="bevel" transform="matrix(0.999987,0,0,-0.999987,30562.4,50909.5)"
font-family="MS Shell Dlg 2" font-size="10.3125" font-weight="400" font-style="normal" 
>
</g>

<g fill="none" stroke="#000000" stroke-opacity="1" stroke-width="1" stroke-linecap="square" stroke-linejoin="bevel" transform="matrix(0.999987,0,0,-0.999987,30562.4,50909.5)"
font-family="MS Shell Dlg 2" font-size="10.3125" font-weight="400" font-style="normal" 
>
</g>

<g fill="#ae5151" fill-opacity="0.2" stroke="#333333" stroke-opacity="1" stroke-width="1" stroke-linecap="round" stroke-linejoin="round" transform="matrix(0.999987,0,0,-0.999987,30562.4,50909.5)"
font-family="MS Shell Dlg 2" font-size="10.3125" font-weight="400" font-style="normal" 
>
<path vector-effect="non-scaling-stroke" fill-rule="evenodd" d="M16762.6,41442 L16762.6,41442 L16762.6,41639.2 L16267.6,41639.2 L16267.6,42039.6 L16762.6,42039.6 L16762.6,43844.3 L16762.6,43844.3 L16762.6,44441.9 L16762.6,44442 L17722.6,44442 L17722.6,44441.9 L17722.6,43844.3 L17722.6,43838.3 L17722.6,43240.7 L17722.6,42643.1 L17722.6,42045.5 L17722.6,42039.6 L17722.6,41441.9 L17722.6,41441.9 L16762.6,41441.9 L16762.6,41442"/>
</g>

<g fill="none" stroke="#000000" stroke-opacity="1" stroke-width="1" stroke-linecap="square" stroke-linejoin="bevel" transform="matrix(0.999987,0,0,-0.999987,30562.4,50909.5)"
font-family="MS Shell Dlg 2" font-size="10.3125" font-weight="400" font-style="normal" 
>
</g>

<g fill="none" stroke="#000000" stroke-opacity="1" stroke-width="1" stroke-linecap="square" stroke-linejoin="bevel" transform="matrix(1,0,0,-1,0,52178.7)"
font-family="MS Shell Dlg 2" font-size="10.3125" font-weight="400" font-style="normal" 
>
</g>
</g>
</svg>
