<?xml version="1.0" encoding="UTF-8" standalone="no"?>
<svg width="7192.72mm" height="12553.5mm"
 xmlns="http://www.w3.org/2000/svg" xmlns:xlink="http://www.w3.org/1999/xlink"  version="1.2" baseProfile="tiny">
<title>SVG Generator Example Drawing</title>
<desc>An SVG drawing created by the SVG Generator</desc>
<defs>
</defs>
<g fill="none" stroke="black" stroke-width="1" fill-rule="evenodd" stroke-linecap="square" stroke-linejoin="bevel" >

<g fill="none" stroke="#000000" stroke-opacity="1" stroke-width="1" stroke-linecap="square" stroke-linejoin="bevel" transform="matrix(1,0,0,-1,0,44481.1)"
font-family="MS Shell Dlg 2" font-size="10.3125" font-weight="400" font-style="normal" 
>
</g>

<g fill="none" stroke="#000000" stroke-opacity="1" stroke-width="1" stroke-linecap="square" stroke-linejoin="bevel" transform="matrix(1,0,0,-1,0,44481.1)"
font-family="MS Shell Dlg 2" font-size="10.3125" font-weight="400" font-style="normal" 
>
</g>

<g fill="none" stroke="#000000" stroke-opacity="1" stroke-width="1" stroke-linecap="square" stroke-linejoin="bevel" transform="matrix(0.999983,0,0,-0.999983,0.59999,44480.5)"
font-family="MS Shell Dlg 2" font-size="10.3125" font-weight="400" font-style="normal" 
>
</g>

<g fill="#ae5151" fill-opacity="0.2" stroke="#333333" stroke-opacity="1" stroke-width="1" stroke-linecap="round" stroke-linejoin="round" transform="matrix(0.999983,0,0,-0.999983,0.59999,44480.5)"
font-family="MS Shell Dlg 2" font-size="10.3125" font-weight="400" font-style="normal" 
>
<path vector-effect="non-scaling-stroke" fill-rule="evenodd" d="M9473.78,5519.98 L9213.31,5519.98 L9213.31,4892.01 L9079.22,4836.47 L4242.68,-0.0707107 L4242.65,-0.092388 L4242.61,-0.1 L0,-0.1 L-0.0382683,-0.092388 L-0.0707107,-0.0707107 L-0.092388,-0.0382683 L-0.1,-3.63798e-11 L-0.092388,0.0382683 L-0.0707107,0.0707107 L8722.63,8722.77 L8722.63,8379.43 L9762.63,8379.43 L9762.63,8538.8 L9762.63,8538.8 L9762.63,9473.78 L9762.62,14195.5 L9267.62,14195.5 L9267.62,14945.5 L9762.62,14945.5 L9762.61,31470.2 L9762.61,31470.2 L9762.61,33876.9 L9267.61,33876.9 L9267.61,36941.9 L9762.61,36941.9 L9762.61,37340.4 L9762.61,38850.3 L9267.61,38850.3 L9267.61,40244.7 L9762.61,40244.7 L9762.62,41639.2 L9267.62,41639.2 L9267.62,42039.6 L9762.61,42039.6 L9762.62,43033.6 L9762.62,43033.6 L9762.63,44441.9 L9762.63,44480 L9800.67,44480 L10972.8,44480 L10984.5,44480 L12156.6,44480 L13328.7,44480 L14500.8,44480 L14512.5,44480 L15684.6,44480 L15722.6,44480 L15722.6,44441.9 L15722.6,43838.4 L16217.6,43838.4 L16217.6,43240.7 L15722.6,43240.7 L15722.6,43047.5 L15722.6,43047.5 L15722.6,38836.4 L16217.6,38836.4 L16217.6,38036.3 L15722.6,38036.3 L15722.6,37442 L15722.6,37442 L15722.6,37343.5 L15722.6,31415.5 L16217.6,31415.5 L16217.6,28267 L15722.6,28267 L15722.6,25943.7 L15722.6,25943.7 L15722.6,20472 L15722.6,20472 L15722.6,15000.2 L15722.6,15000.2 L15722.6,9473.78 L15722.6,8538.79 L15722.6,8538.79 L15722.6,8379.43 L16762.6,8379.43 L16762.6,8722.77 L25485.3,0.0707107 L25485.3,0.0382683 L25485.3,-3.9654e-09 L25485.3,-0.0382683 L25485.3,-0.0707107 L25485.3,-0.092388 L25485.2,-0.1 L21242.6,-0.1 L21242.6,-0.092388 L21242.5,-0.0707107 L16406,4836.46 L16271.9,4892.01 L16271.9,5519.98 L16011.5,5519.98 L14709.1,5519.98 L14696.1,5519.98 L13393.8,5519.98 L12091.5,5519.98 L10789.1,5519.98 L10776.1,5519.98 L9473.78,5519.98"/>
</g>

<g fill="none" stroke="#000000" stroke-opacity="1" stroke-width="1" stroke-linecap="square" stroke-linejoin="bevel" transform="matrix(0.999983,0,0,-0.999983,0.59999,44480.5)"
font-family="MS Shell Dlg 2" font-size="10.3125" font-weight="400" font-style="normal" 
>
</g>

<g fill="none" stroke="#000000" stroke-opacity="1" stroke-width="1" stroke-linecap="square" stroke-linejoin="bevel" transform="matrix(1,0,0,-1,0,44481.1)"
font-family="MS Shell Dlg 2" font-size="10.3125" font-weight="400" font-style="normal" 
>
</g>
</g>
</svg>
