<?xml version="1.0" encoding="UTF-8" standalone="no"?>
<svg width="9238.83mm" height="2573.3mm"
 xmlns="http://www.w3.org/2000/svg" xmlns:xlink="http://www.w3.org/1999/xlink"  version="1.2" baseProfile="tiny">
<title>SVG Generator Example Drawing</title>
<desc>An SVG drawing created by the SVG Generator</desc>
<defs>
</defs>
<g fill="none" stroke="black" stroke-width="1" fill-rule="evenodd" stroke-linecap="square" stroke-linejoin="bevel" >

<g fill="none" stroke="#000000" stroke-opacity="1" stroke-width="1" stroke-linecap="square" stroke-linejoin="bevel" transform="matrix(1,0,0,-1,0,9118.23)"
font-family="MS Shell Dlg 2" font-size="10.3125" font-weight="400" font-style="normal" 
>
</g>

<g fill="none" stroke="#000000" stroke-opacity="1" stroke-width="1" stroke-linecap="square" stroke-linejoin="bevel" transform="matrix(1,0,0,-1,0,9118.23)"
font-family="MS Shell Dlg 2" font-size="10.3125" font-weight="400" font-style="normal" 
>
</g>

<g fill="none" stroke="#000000" stroke-opacity="1" stroke-width="1" stroke-linecap="square" stroke-linejoin="bevel" transform="matrix(0.999975,0,0,-0.999975,-23291.5,37385.6)"
font-family="MS Shell Dlg 2" font-size="10.3125" font-weight="400" font-style="normal" 
>
</g>

<g fill="#ae5151" fill-opacity="0.2" stroke="#333333" stroke-opacity="1" stroke-width="1" stroke-linecap="round" stroke-linejoin="round" transform="matrix(0.999975,0,0,-0.999975,-23291.5,37385.6)"
font-family="MS Shell Dlg 2" font-size="10.3125" font-weight="400" font-style="normal" 
>
<path vector-effect="non-scaling-stroke" fill-rule="evenodd" d="M23292.6,36918.8 L23292.6,36980 L24000.4,36992.4 L25045.6,37013.3 L26053.6,37035.4 L27061.4,37058.8 L28083.8,37083.4 L29129.8,37108.9 L30144.3,37133.6 L31159.8,37158 L32177,37181.8 L33221.1,37205.3 L33221.1,37205.3 L34238.6,37227.2 L34238.6,37227.2 L35272.5,37248.3 L35272.5,37248.3 L36313.9,37268.2 L36313.9,37268.2 L37328.8,37286.3 L37328.8,37286.3 L38341.5,37302.9 L38341.5,37302.9 L39382.1,37318.5 L39382.1,37318.5 L40402.3,37332.4 L40402.3,37332.4 L41414.8,37344.7 L41414.8,37344.7 L42420.3,37355.4 L42420.3,37355.4 L43453.6,37365.1 L43453.6,37365.1 L44469.9,37373.1 L44469.9,37373.1 L45502.8,37379.8 L45502.8,37379.8 L46520.8,37384.8 L46520.8,37384.8 L47532.2,37385.9 L47532.2,37385.9 L48540.1,37378.8 L48540.1,37378.8 L49556.5,37359.1 L49556.5,37359.1 L50571.6,37321.8 L50571.6,37321.8 L51605.2,37258.8 L51605.2,37258.8 L52611.1,37164 L52611.1,37164 L53619.1,37021.6 L53619.2,37021.6 L54610.7,36811.3 L54610.7,36811.3 L55574.4,36492.4 L55574.4,36492.4 L56028,36232.4 L55859.1,35976.4 L55859.1,35976.4 L55225,35174.7 L55225,35174.7 L54554.1,34432.6 L54554.1,34432.6 L53843.6,33728.2 L53843.6,33728.2 L53090,33050.1 L53090,33050.1 L52291.5,32395.2 L52291.5,32395.1 L51483.3,31789.5 L51483.3,31789.5 L50649.3,31219.3 L50649.3,31219.3 L49790.4,30687 L49790.4,30687 L48909.8,30197.8 L48909.8,30197.8 L47994.4,29751 L47994.3,29751 L47069.6,29364.3 L47069.6,29364.3 L46106.7,29028 L46106.7,29028 L45121.3,28750.6 L45121.3,28750.6 L44130.4,28536.9 L44130.4,28536.9 L43129.1,28385 L43129,28385 L42116.4,28295.3 L42116.4,28295.3 L41088.9,28268.6 L41088.9,28268.6 L40074.3,28305.4 L40074.3,28305.4 L39065.7,28404.2 L39065.7,28404.2 L38047,28568.3 L38047,28568.3 L37050.4,28793.5 L37050.4,28793.5 L36063,29083.4 L36063,29083.4 L35120,29427.6 L35120,29427.6 L34183.5,29842.6 L34183.5,29842.6 L33288.2,30319.5 L33288.2,30319.5 L32443.2,30859 L32443.2,30859 L31641.1,31467.5 L31641.1,31467.5 L30863.4,32142.5 L30863.4,32142.5 L30122.2,32836.8 L30122.2,32836.8 L29385.6,33530.9 L28635.1,34194.8 L27825.6,34828 L26981.5,35387.1 L26093.5,35874.3 L25178.1,36289 L24238.7,36637.8 L23292.6,36918.8"/>
</g>

<g fill="none" stroke="#000000" stroke-opacity="1" stroke-width="1" stroke-linecap="square" stroke-linejoin="bevel" transform="matrix(0.999975,0,0,-0.999975,-23291.5,37385.6)"
font-family="MS Shell Dlg 2" font-size="10.3125" font-weight="400" font-style="normal" 
>
</g>

<g fill="none" stroke="#000000" stroke-opacity="1" stroke-width="1" stroke-linecap="square" stroke-linejoin="bevel" transform="matrix(1,0,0,-1,0,9118.23)"
font-family="MS Shell Dlg 2" font-size="10.3125" font-weight="400" font-style="normal" 
>
</g>
</g>
</svg>
