<?xml version="1.0" encoding="UTF-8" standalone="no"?>
<svg width="23029.6mm" height="11740.7mm"
 xmlns="http://www.w3.org/2000/svg" xmlns:xlink="http://www.w3.org/1999/xlink"  version="1.2" baseProfile="tiny">
<title>SVG Generator Example Drawing</title>
<desc>An SVG drawing created by the SVG Generator</desc>
<defs>
</defs>
<g fill="none" stroke="black" stroke-width="1" fill-rule="evenodd" stroke-linecap="square" stroke-linejoin="bevel" >

<g fill="none" stroke="#000000" stroke-opacity="1" stroke-width="1" stroke-linecap="square" stroke-linejoin="bevel" transform="matrix(1,0,0,-1,0,41601)"
font-family="MS Shell Dlg 2" font-size="10.3125" font-weight="400" font-style="normal" 
>
</g>

<g fill="none" stroke="#000000" stroke-opacity="1" stroke-width="1" stroke-linecap="square" stroke-linejoin="bevel" transform="matrix(1,0,0,-1,0,41601)"
font-family="MS Shell Dlg 2" font-size="10.3125" font-weight="400" font-style="normal" 
>
</g>

<g fill="none" stroke="#000000" stroke-opacity="1" stroke-width="1" stroke-linecap="square" stroke-linejoin="bevel" transform="matrix(1,0,0,-1,28065.4,45620.6)"
font-family="MS Shell Dlg 2" font-size="10.3125" font-weight="400" font-style="normal" 
>
</g>

<g fill="#333333" fill-opacity="0.2" stroke="#333333" stroke-opacity="1" stroke-width="1" stroke-linecap="round" stroke-linejoin="round" transform="matrix(1,0,0,-1,28065.4,45620.6)"
font-family="MS Shell Dlg 2" font-size="10.3125" font-weight="400" font-style="normal" 
>
<path vector-effect="non-scaling-stroke" fill-rule="evenodd" d="M-26464.9,4820.14 L-26468.7,4741.73 L-26480.2,4664.07 L-26499.3,4587.91 L-26525.7,4514 L-26559.3,4443.02 L-26599.7,4375.69 L-26646.4,4312.63 L-26699.2,4254.46 L-26757.3,4201.73 L-26820.4,4154.97 L-26887.7,4114.6 L-26958.7,4081.04 L-27032.6,4054.59 L-27108.8,4035.51 L-27186.4,4023.99 L-27264.9,4020.14 L-27343.3,4023.99 L-27420.9,4035.51 L-27497.1,4054.59 L-27571,4081.04 L-27642,4114.6 L-27709.3,4154.97 L-27772.4,4201.73 L-27830.5,4254.46 L-27883.3,4312.63 L-27930,4375.69 L-27970.4,4443.02 L-28004,4514 L-28030.4,4587.91 L-28049.5,4664.07 L-28061,4741.73 L-28064.9,4820.14 L-28061,4898.56 L-28049.5,4976.21 L-28030.4,5052.37 L-28004,5126.29 L-27970.4,5197.26 L-27930,5264.6 L-27883.3,5327.66 L-27830.5,5385.83 L-27772.4,5438.55 L-27709.3,5485.32 L-27642,5525.68 L-27571,5559.25 L-27497.1,5585.69 L-27420.9,5604.77 L-27343.3,5616.29 L-27264.9,5620.14 L-27186.4,5616.29 L-27108.8,5604.77 L-27032.6,5585.69 L-26958.7,5559.25 L-26887.7,5525.68 L-26820.4,5485.32 L-26757.3,5438.55 L-26699.2,5385.83 L-26646.4,5327.66 L-26599.7,5264.6 L-26559.3,5197.26 L-26525.7,5126.29 L-26499.3,5052.37 L-26480.2,4976.21 L-26468.7,4898.56 L-26464.9,4820.14"/>
</g>

<g fill="none" stroke="#000000" stroke-opacity="1" stroke-width="1" stroke-linecap="square" stroke-linejoin="bevel" transform="matrix(1,0,0,-1,28065.4,45620.6)"
font-family="MS Shell Dlg 2" font-size="10.3125" font-weight="400" font-style="normal" 
>
</g>

<g fill="none" stroke="#000000" stroke-opacity="1" stroke-width="1" stroke-linecap="square" stroke-linejoin="bevel" transform="matrix(1,0,0,-1,28065.4,45620.6)"
font-family="MS Shell Dlg 2" font-size="10.3125" font-weight="400" font-style="normal" 
>
</g>

<g fill="#333333" fill-opacity="0.2" stroke="#333333" stroke-opacity="1" stroke-width="1" stroke-linecap="round" stroke-linejoin="round" transform="matrix(1,0,0,-1,28065.4,45620.6)"
font-family="MS Shell Dlg 2" font-size="10.3125" font-weight="400" font-style="normal" 
>
<path vector-effect="non-scaling-stroke" fill-rule="evenodd" d="M53535.1,4820.14 L53531.3,4741.73 L53519.8,4664.07 L53500.7,4587.91 L53474.3,4514 L53440.7,4443.02 L53400.3,4375.69 L53353.6,4312.63 L53300.8,4254.46 L53242.7,4201.73 L53179.6,4154.97 L53112.3,4114.6 L53041.3,4081.04 L52967.4,4054.59 L52891.2,4035.51 L52813.6,4023.99 L52735.1,4020.14 L52656.7,4023.99 L52579.1,4035.51 L52502.9,4054.59 L52429,4081.04 L52358,4114.6 L52290.7,4154.97 L52227.6,4201.73 L52169.5,4254.46 L52116.7,4312.63 L52070,4375.69 L52029.6,4443.02 L51996,4514 L51969.6,4587.91 L51950.5,4664.07 L51939,4741.73 L51935.1,4820.14 L51939,4898.56 L51950.5,4976.21 L51969.6,5052.37 L51996,5126.29 L52029.6,5197.26 L52070,5264.6 L52116.7,5327.66 L52169.5,5385.83 L52227.6,5438.55 L52290.7,5485.32 L52358,5525.68 L52429,5559.25 L52502.9,5585.69 L52579.1,5604.77 L52656.7,5616.29 L52735.1,5620.14 L52813.6,5616.29 L52891.2,5604.77 L52967.4,5585.69 L53041.3,5559.25 L53112.3,5525.68 L53179.6,5485.32 L53242.7,5438.55 L53300.8,5385.83 L53353.6,5327.66 L53400.3,5264.6 L53440.7,5197.26 L53474.3,5126.29 L53500.7,5052.37 L53519.8,4976.21 L53531.3,4898.56 L53535.1,4820.14"/>
</g>

<g fill="none" stroke="#000000" stroke-opacity="1" stroke-width="1" stroke-linecap="square" stroke-linejoin="bevel" transform="matrix(1,0,0,-1,28065.4,45620.6)"
font-family="MS Shell Dlg 2" font-size="10.3125" font-weight="400" font-style="normal" 
>
</g>

<g fill="none" stroke="#000000" stroke-opacity="1" stroke-width="1" stroke-linecap="square" stroke-linejoin="bevel" transform="matrix(1,0,0,-1,28065.4,45620.6)"
font-family="MS Shell Dlg 2" font-size="10.3125" font-weight="400" font-style="normal" 
>
</g>

<g fill="#333333" fill-opacity="0.2" stroke="#333333" stroke-opacity="1" stroke-width="1" stroke-linecap="round" stroke-linejoin="round" transform="matrix(1,0,0,-1,28065.4,45620.6)"
font-family="MS Shell Dlg 2" font-size="10.3125" font-weight="400" font-style="normal" 
>
<path vector-effect="non-scaling-stroke" fill-rule="evenodd" d="M-26464.9,44820.1 L-26468.7,44741.7 L-26480.2,44664.1 L-26499.3,44587.9 L-26525.7,44514 L-26559.3,44443 L-26599.7,44375.7 L-26646.4,44312.6 L-26699.2,44254.5 L-26757.3,44201.7 L-26820.4,44155 L-26887.7,44114.6 L-26958.7,44081 L-27032.6,44054.6 L-27108.8,44035.5 L-27186.4,44024 L-27264.9,44020.1 L-27343.3,44024 L-27420.9,44035.5 L-27497.1,44054.6 L-27571,44081 L-27642,44114.6 L-27709.3,44155 L-27772.4,44201.7 L-27830.5,44254.5 L-27883.3,44312.6 L-27930,44375.7 L-27970.4,44443 L-28004,44514 L-28030.4,44587.9 L-28049.5,44664.1 L-28061,44741.7 L-28064.9,44820.1 L-28061,44898.6 L-28049.5,44976.2 L-28030.4,45052.4 L-28004,45126.3 L-27970.4,45197.3 L-27930,45264.6 L-27883.3,45327.7 L-27830.5,45385.8 L-27772.4,45438.6 L-27709.3,45485.3 L-27642,45525.7 L-27571,45559.2 L-27497.1,45585.7 L-27420.9,45604.8 L-27343.3,45616.3 L-27264.9,45620.1 L-27186.4,45616.3 L-27108.8,45604.8 L-27032.6,45585.7 L-26958.7,45559.2 L-26887.7,45525.7 L-26820.4,45485.3 L-26757.3,45438.6 L-26699.2,45385.8 L-26646.4,45327.7 L-26599.7,45264.6 L-26559.3,45197.3 L-26525.7,45126.3 L-26499.3,45052.4 L-26480.2,44976.2 L-26468.7,44898.6 L-26464.9,44820.1"/>
</g>

<g fill="none" stroke="#000000" stroke-opacity="1" stroke-width="1" stroke-linecap="square" stroke-linejoin="bevel" transform="matrix(1,0,0,-1,28065.4,45620.6)"
font-family="MS Shell Dlg 2" font-size="10.3125" font-weight="400" font-style="normal" 
>
</g>

<g fill="none" stroke="#000000" stroke-opacity="1" stroke-width="1" stroke-linecap="square" stroke-linejoin="bevel" transform="matrix(1,0,0,-1,28065.4,45620.6)"
font-family="MS Shell Dlg 2" font-size="10.3125" font-weight="400" font-style="normal" 
>
</g>

<g fill="#333333" fill-opacity="0.2" stroke="#333333" stroke-opacity="1" stroke-width="1" stroke-linecap="round" stroke-linejoin="round" transform="matrix(1,0,0,-1,28065.4,45620.6)"
font-family="MS Shell Dlg 2" font-size="10.3125" font-weight="400" font-style="normal" 
>
<path vector-effect="non-scaling-stroke" fill-rule="evenodd" d="M53535.1,44820.1 L53531.3,44741.7 L53519.8,44664.1 L53500.7,44587.9 L53474.3,44514 L53440.7,44443 L53400.3,44375.7 L53353.6,44312.6 L53300.8,44254.5 L53242.7,44201.7 L53179.6,44155 L53112.3,44114.6 L53041.3,44081 L52967.4,44054.6 L52891.2,44035.5 L52813.6,44024 L52735.1,44020.1 L52656.7,44024 L52579.1,44035.5 L52502.9,44054.6 L52429,44081 L52358,44114.6 L52290.7,44155 L52227.6,44201.7 L52169.5,44254.5 L52116.7,44312.6 L52070,44375.7 L52029.6,44443 L51996,44514 L51969.6,44587.9 L51950.5,44664.1 L51939,44741.7 L51935.1,44820.1 L51939,44898.6 L51950.5,44976.2 L51969.6,45052.4 L51996,45126.3 L52029.6,45197.3 L52070,45264.6 L52116.7,45327.7 L52169.5,45385.8 L52227.6,45438.6 L52290.7,45485.3 L52358,45525.7 L52429,45559.2 L52502.9,45585.7 L52579.1,45604.8 L52656.7,45616.3 L52735.1,45620.1 L52813.6,45616.3 L52891.2,45604.8 L52967.4,45585.7 L53041.3,45559.2 L53112.3,45525.7 L53179.6,45485.3 L53242.7,45438.6 L53300.8,45385.8 L53353.6,45327.7 L53400.3,45264.6 L53440.7,45197.3 L53474.3,45126.3 L53500.7,45052.4 L53519.8,44976.2 L53531.3,44898.6 L53535.1,44820.1"/>
</g>

<g fill="none" stroke="#000000" stroke-opacity="1" stroke-width="1" stroke-linecap="square" stroke-linejoin="bevel" transform="matrix(1,0,0,-1,28065.4,45620.6)"
font-family="MS Shell Dlg 2" font-size="10.3125" font-weight="400" font-style="normal" 
>
</g>

<g fill="none" stroke="#000000" stroke-opacity="1" stroke-width="1" stroke-linecap="square" stroke-linejoin="bevel" transform="matrix(1,0,0,-1,28065.4,45620.6)"
font-family="MS Shell Dlg 2" font-size="10.3125" font-weight="400" font-style="normal" 
>
</g>

<g fill="#ae5151" fill-opacity="0.2" stroke="#333333" stroke-opacity="1" stroke-width="1" stroke-linecap="round" stroke-linejoin="round" transform="matrix(1,0,0,-1,28065.4,45620.6)"
font-family="MS Shell Dlg 2" font-size="10.3125" font-weight="400" font-style="normal" 
>
<path vector-effect="non-scaling-stroke" fill-rule="evenodd" d="M-26464.9,4820.14 L-26468.7,4741.73 L-26480.2,4664.07 L-26499.3,4587.91 L-26525.7,4514 L-26559.3,4443.02 L-26599.7,4375.69 L-26646.4,4312.63 L-26699.2,4254.46 L-26757.3,4201.73 L-26820.4,4154.97 L-26887.7,4114.6 L-26958.7,4081.04 L-27032.6,4054.59 L-27108.8,4035.51 L-27186.4,4023.99 L-27264.9,4020.14 L-27343.3,4023.99 L-27420.9,4035.51 L-27497.1,4054.59 L-27571,4081.04 L-27642,4114.6 L-27709.3,4154.97 L-27772.4,4201.73 L-27830.5,4254.46 L-27883.3,4312.63 L-27930,4375.69 L-27970.4,4443.02 L-28004,4514 L-28030.4,4587.91 L-28049.5,4664.07 L-28061,4741.73 L-28064.9,4820.14 L-28061,4898.56 L-28049.5,4976.21 L-28030.4,5052.37 L-28004,5126.29 L-27970.4,5197.26 L-27930,5264.6 L-27883.3,5327.66 L-27830.5,5385.83 L-27772.4,5438.55 L-27709.3,5485.32 L-27642,5525.68 L-27571,5559.25 L-27497.1,5585.69 L-27420.9,5604.77 L-27343.3,5616.29 L-27264.9,5620.14 L-27186.4,5616.29 L-27108.8,5604.77 L-27032.6,5585.69 L-26958.7,5559.25 L-26887.7,5525.68 L-26820.4,5485.32 L-26757.3,5438.55 L-26699.2,5385.83 L-26646.4,5327.66 L-26599.7,5264.6 L-26559.3,5197.26 L-26525.7,5126.29 L-26499.3,5052.37 L-26480.2,4976.21 L-26468.7,4898.56 L-26464.9,4820.14"/>
</g>

<g fill="none" stroke="#000000" stroke-opacity="1" stroke-width="1" stroke-linecap="square" stroke-linejoin="bevel" transform="matrix(1,0,0,-1,28065.4,45620.6)"
font-family="MS Shell Dlg 2" font-size="10.3125" font-weight="400" font-style="normal" 
>
</g>

<g fill="none" stroke="#000000" stroke-opacity="1" stroke-width="1" stroke-linecap="square" stroke-linejoin="bevel" transform="matrix(1,0,0,-1,28065.4,45620.6)"
font-family="MS Shell Dlg 2" font-size="10.3125" font-weight="400" font-style="normal" 
>
</g>

<g fill="#ae5151" fill-opacity="0.2" stroke="#333333" stroke-opacity="1" stroke-width="1" stroke-linecap="round" stroke-linejoin="round" transform="matrix(1,0,0,-1,28065.4,45620.6)"
font-family="MS Shell Dlg 2" font-size="10.3125" font-weight="400" font-style="normal" 
>
<path vector-effect="non-scaling-stroke" fill-rule="evenodd" d="M53535.1,4820.14 L53531.3,4741.73 L53519.8,4664.07 L53500.7,4587.91 L53474.3,4514 L53440.7,4443.02 L53400.3,4375.69 L53353.6,4312.63 L53300.8,4254.46 L53242.7,4201.73 L53179.6,4154.97 L53112.3,4114.6 L53041.3,4081.04 L52967.4,4054.59 L52891.2,4035.51 L52813.6,4023.99 L52735.1,4020.14 L52656.7,4023.99 L52579.1,4035.51 L52502.9,4054.59 L52429,4081.04 L52358,4114.6 L52290.7,4154.97 L52227.6,4201.73 L52169.5,4254.46 L52116.7,4312.63 L52070,4375.69 L52029.6,4443.02 L51996,4514 L51969.6,4587.91 L51950.5,4664.07 L51939,4741.73 L51935.1,4820.14 L51939,4898.56 L51950.5,4976.21 L51969.6,5052.37 L51996,5126.29 L52029.6,5197.26 L52070,5264.6 L52116.7,5327.66 L52169.5,5385.83 L52227.6,5438.55 L52290.7,5485.32 L52358,5525.68 L52429,5559.25 L52502.9,5585.69 L52579.1,5604.77 L52656.7,5616.29 L52735.1,5620.14 L52813.6,5616.29 L52891.2,5604.77 L52967.4,5585.69 L53041.3,5559.25 L53112.3,5525.68 L53179.6,5485.32 L53242.7,5438.55 L53300.8,5385.83 L53353.6,5327.66 L53400.3,5264.6 L53440.7,5197.26 L53474.3,5126.29 L53500.7,5052.37 L53519.8,4976.21 L53531.3,4898.56 L53535.1,4820.14"/>
</g>

<g fill="none" stroke="#000000" stroke-opacity="1" stroke-width="1" stroke-linecap="square" stroke-linejoin="bevel" transform="matrix(1,0,0,-1,28065.4,45620.6)"
font-family="MS Shell Dlg 2" font-size="10.3125" font-weight="400" font-style="normal" 
>
</g>

<g fill="none" stroke="#000000" stroke-opacity="1" stroke-width="1" stroke-linecap="square" stroke-linejoin="bevel" transform="matrix(1,0,0,-1,28065.4,45620.6)"
font-family="MS Shell Dlg 2" font-size="10.3125" font-weight="400" font-style="normal" 
>
</g>

<g fill="#ae5151" fill-opacity="0.2" stroke="#333333" stroke-opacity="1" stroke-width="1" stroke-linecap="round" stroke-linejoin="round" transform="matrix(1,0,0,-1,28065.4,45620.6)"
font-family="MS Shell Dlg 2" font-size="10.3125" font-weight="400" font-style="normal" 
>
<path vector-effect="non-scaling-stroke" fill-rule="evenodd" d="M-26464.9,44820.1 L-26468.7,44741.7 L-26480.2,44664.1 L-26499.3,44587.9 L-26525.7,44514 L-26559.3,44443 L-26599.7,44375.7 L-26646.4,44312.6 L-26699.2,44254.5 L-26757.3,44201.7 L-26820.4,44155 L-26887.7,44114.6 L-26958.7,44081 L-27032.6,44054.6 L-27108.8,44035.5 L-27186.4,44024 L-27264.9,44020.1 L-27343.3,44024 L-27420.9,44035.5 L-27497.1,44054.6 L-27571,44081 L-27642,44114.6 L-27709.3,44155 L-27772.4,44201.7 L-27830.5,44254.5 L-27883.3,44312.6 L-27930,44375.7 L-27970.4,44443 L-28004,44514 L-28030.4,44587.9 L-28049.5,44664.1 L-28061,44741.7 L-28064.9,44820.1 L-28061,44898.6 L-28049.5,44976.2 L-28030.4,45052.4 L-28004,45126.3 L-27970.4,45197.3 L-27930,45264.6 L-27883.3,45327.7 L-27830.5,45385.8 L-27772.4,45438.6 L-27709.3,45485.3 L-27642,45525.7 L-27571,45559.2 L-27497.1,45585.7 L-27420.9,45604.8 L-27343.3,45616.3 L-27264.9,45620.1 L-27186.4,45616.3 L-27108.8,45604.8 L-27032.6,45585.7 L-26958.7,45559.2 L-26887.7,45525.7 L-26820.4,45485.3 L-26757.3,45438.6 L-26699.2,45385.8 L-26646.4,45327.7 L-26599.7,45264.6 L-26559.3,45197.3 L-26525.7,45126.3 L-26499.3,45052.4 L-26480.2,44976.2 L-26468.7,44898.6 L-26464.9,44820.1"/>
</g>

<g fill="none" stroke="#000000" stroke-opacity="1" stroke-width="1" stroke-linecap="square" stroke-linejoin="bevel" transform="matrix(1,0,0,-1,28065.4,45620.6)"
font-family="MS Shell Dlg 2" font-size="10.3125" font-weight="400" font-style="normal" 
>
</g>

<g fill="none" stroke="#000000" stroke-opacity="1" stroke-width="1" stroke-linecap="square" stroke-linejoin="bevel" transform="matrix(1,0,0,-1,28065.4,45620.6)"
font-family="MS Shell Dlg 2" font-size="10.3125" font-weight="400" font-style="normal" 
>
</g>

<g fill="#ae5151" fill-opacity="0.2" stroke="#333333" stroke-opacity="1" stroke-width="1" stroke-linecap="round" stroke-linejoin="round" transform="matrix(1,0,0,-1,28065.4,45620.6)"
font-family="MS Shell Dlg 2" font-size="10.3125" font-weight="400" font-style="normal" 
>
<path vector-effect="non-scaling-stroke" fill-rule="evenodd" d="M53535.1,44820.1 L53531.3,44741.7 L53519.8,44664.1 L53500.7,44587.9 L53474.3,44514 L53440.7,44443 L53400.3,44375.7 L53353.6,44312.6 L53300.8,44254.5 L53242.7,44201.7 L53179.6,44155 L53112.3,44114.6 L53041.3,44081 L52967.4,44054.6 L52891.2,44035.5 L52813.6,44024 L52735.1,44020.1 L52656.7,44024 L52579.1,44035.5 L52502.9,44054.6 L52429,44081 L52358,44114.6 L52290.7,44155 L52227.6,44201.7 L52169.5,44254.5 L52116.7,44312.6 L52070,44375.7 L52029.6,44443 L51996,44514 L51969.6,44587.9 L51950.5,44664.1 L51939,44741.7 L51935.1,44820.1 L51939,44898.6 L51950.5,44976.2 L51969.6,45052.4 L51996,45126.3 L52029.6,45197.3 L52070,45264.6 L52116.7,45327.7 L52169.5,45385.8 L52227.6,45438.6 L52290.7,45485.3 L52358,45525.7 L52429,45559.2 L52502.9,45585.7 L52579.1,45604.8 L52656.7,45616.3 L52735.1,45620.1 L52813.6,45616.3 L52891.2,45604.8 L52967.4,45585.7 L53041.3,45559.2 L53112.3,45525.7 L53179.6,45485.3 L53242.7,45438.6 L53300.8,45385.8 L53353.6,45327.7 L53400.3,45264.6 L53440.7,45197.3 L53474.3,45126.3 L53500.7,45052.4 L53519.8,44976.2 L53531.3,44898.6 L53535.1,44820.1"/>
</g>

<g fill="none" stroke="#000000" stroke-opacity="1" stroke-width="1" stroke-linecap="square" stroke-linejoin="bevel" transform="matrix(1,0,0,-1,28065.4,45620.6)"
font-family="MS Shell Dlg 2" font-size="10.3125" font-weight="400" font-style="normal" 
>
</g>

<g fill="none" stroke="#000000" stroke-opacity="1" stroke-width="1" stroke-linecap="square" stroke-linejoin="bevel" transform="matrix(1,0,0,-1,28065.4,45620.6)"
font-family="MS Shell Dlg 2" font-size="10.3125" font-weight="400" font-style="normal" 
>
</g>

<g fill="#ffff00" fill-opacity="0.2" stroke="#333333" stroke-opacity="1" stroke-width="1" stroke-linecap="round" stroke-linejoin="round" transform="matrix(1,0,0,-1,28065.4,45620.6)"
font-family="MS Shell Dlg 2" font-size="10.3125" font-weight="400" font-style="normal" 
>
<path vector-effect="non-scaling-stroke" fill-rule="evenodd" d="M-26464.9,4820.14 L-26468.7,4741.73 L-26480.2,4664.07 L-26499.3,4587.91 L-26525.7,4514 L-26559.3,4443.02 L-26599.7,4375.69 L-26646.4,4312.63 L-26699.2,4254.46 L-26757.3,4201.73 L-26820.4,4154.97 L-26887.7,4114.6 L-26958.7,4081.04 L-27032.6,4054.59 L-27108.8,4035.51 L-27186.4,4023.99 L-27264.9,4020.14 L-27343.3,4023.99 L-27420.9,4035.51 L-27497.1,4054.59 L-27571,4081.04 L-27642,4114.6 L-27709.3,4154.97 L-27772.4,4201.73 L-27830.5,4254.46 L-27883.3,4312.63 L-27930,4375.69 L-27970.4,4443.02 L-28004,4514 L-28030.4,4587.91 L-28049.5,4664.07 L-28061,4741.73 L-28064.9,4820.14 L-28061,4898.56 L-28049.5,4976.21 L-28030.4,5052.37 L-28004,5126.29 L-27970.4,5197.26 L-27930,5264.6 L-27883.3,5327.66 L-27830.5,5385.83 L-27772.4,5438.55 L-27709.3,5485.32 L-27642,5525.68 L-27571,5559.25 L-27497.1,5585.69 L-27420.9,5604.77 L-27343.3,5616.29 L-27264.9,5620.14 L-27186.4,5616.29 L-27108.8,5604.77 L-27032.6,5585.69 L-26958.7,5559.25 L-26887.7,5525.68 L-26820.4,5485.32 L-26757.3,5438.55 L-26699.2,5385.83 L-26646.4,5327.66 L-26599.7,5264.6 L-26559.3,5197.26 L-26525.7,5126.29 L-26499.3,5052.37 L-26480.2,4976.21 L-26468.7,4898.56 L-26464.9,4820.14"/>
</g>

<g fill="none" stroke="#000000" stroke-opacity="1" stroke-width="1" stroke-linecap="square" stroke-linejoin="bevel" transform="matrix(1,0,0,-1,28065.4,45620.6)"
font-family="MS Shell Dlg 2" font-size="10.3125" font-weight="400" font-style="normal" 
>
</g>

<g fill="none" stroke="#000000" stroke-opacity="1" stroke-width="1" stroke-linecap="square" stroke-linejoin="bevel" transform="matrix(1,0,0,-1,28065.4,45620.6)"
font-family="MS Shell Dlg 2" font-size="10.3125" font-weight="400" font-style="normal" 
>
</g>

<g fill="#ffff00" fill-opacity="0.2" stroke="#333333" stroke-opacity="1" stroke-width="1" stroke-linecap="round" stroke-linejoin="round" transform="matrix(1,0,0,-1,28065.4,45620.6)"
font-family="MS Shell Dlg 2" font-size="10.3125" font-weight="400" font-style="normal" 
>
<path vector-effect="non-scaling-stroke" fill-rule="evenodd" d="M53535.1,4820.14 L53531.3,4741.73 L53519.8,4664.07 L53500.7,4587.91 L53474.3,4514 L53440.7,4443.02 L53400.3,4375.69 L53353.6,4312.63 L53300.8,4254.46 L53242.7,4201.73 L53179.6,4154.97 L53112.3,4114.6 L53041.3,4081.04 L52967.4,4054.59 L52891.2,4035.51 L52813.6,4023.99 L52735.1,4020.14 L52656.7,4023.99 L52579.1,4035.51 L52502.9,4054.59 L52429,4081.04 L52358,4114.6 L52290.7,4154.97 L52227.6,4201.73 L52169.5,4254.46 L52116.7,4312.63 L52070,4375.69 L52029.6,4443.02 L51996,4514 L51969.6,4587.91 L51950.5,4664.07 L51939,4741.73 L51935.1,4820.14 L51939,4898.56 L51950.5,4976.21 L51969.6,5052.37 L51996,5126.29 L52029.6,5197.26 L52070,5264.6 L52116.7,5327.66 L52169.5,5385.83 L52227.6,5438.55 L52290.7,5485.32 L52358,5525.68 L52429,5559.25 L52502.9,5585.69 L52579.1,5604.77 L52656.7,5616.29 L52735.1,5620.14 L52813.6,5616.29 L52891.2,5604.77 L52967.4,5585.69 L53041.3,5559.25 L53112.3,5525.68 L53179.6,5485.32 L53242.7,5438.55 L53300.8,5385.83 L53353.6,5327.66 L53400.3,5264.6 L53440.7,5197.26 L53474.3,5126.29 L53500.7,5052.37 L53519.8,4976.21 L53531.3,4898.56 L53535.1,4820.14"/>
</g>

<g fill="none" stroke="#000000" stroke-opacity="1" stroke-width="1" stroke-linecap="square" stroke-linejoin="bevel" transform="matrix(1,0,0,-1,28065.4,45620.6)"
font-family="MS Shell Dlg 2" font-size="10.3125" font-weight="400" font-style="normal" 
>
</g>

<g fill="none" stroke="#000000" stroke-opacity="1" stroke-width="1" stroke-linecap="square" stroke-linejoin="bevel" transform="matrix(1,0,0,-1,28065.4,45620.6)"
font-family="MS Shell Dlg 2" font-size="10.3125" font-weight="400" font-style="normal" 
>
</g>

<g fill="#ffff00" fill-opacity="0.2" stroke="#333333" stroke-opacity="1" stroke-width="1" stroke-linecap="round" stroke-linejoin="round" transform="matrix(1,0,0,-1,28065.4,45620.6)"
font-family="MS Shell Dlg 2" font-size="10.3125" font-weight="400" font-style="normal" 
>
<path vector-effect="non-scaling-stroke" fill-rule="evenodd" d="M-26464.9,44820.1 L-26468.7,44741.7 L-26480.2,44664.1 L-26499.3,44587.9 L-26525.7,44514 L-26559.3,44443 L-26599.7,44375.7 L-26646.4,44312.6 L-26699.2,44254.5 L-26757.3,44201.7 L-26820.4,44155 L-26887.7,44114.6 L-26958.7,44081 L-27032.6,44054.6 L-27108.8,44035.5 L-27186.4,44024 L-27264.9,44020.1 L-27343.3,44024 L-27420.9,44035.5 L-27497.1,44054.6 L-27571,44081 L-27642,44114.6 L-27709.3,44155 L-27772.4,44201.7 L-27830.5,44254.5 L-27883.3,44312.6 L-27930,44375.7 L-27970.4,44443 L-28004,44514 L-28030.4,44587.9 L-28049.5,44664.1 L-28061,44741.7 L-28064.9,44820.1 L-28061,44898.6 L-28049.5,44976.2 L-28030.4,45052.4 L-28004,45126.3 L-27970.4,45197.3 L-27930,45264.6 L-27883.3,45327.7 L-27830.5,45385.8 L-27772.4,45438.6 L-27709.3,45485.3 L-27642,45525.7 L-27571,45559.2 L-27497.1,45585.7 L-27420.9,45604.8 L-27343.3,45616.3 L-27264.9,45620.1 L-27186.4,45616.3 L-27108.8,45604.8 L-27032.6,45585.7 L-26958.7,45559.2 L-26887.7,45525.7 L-26820.4,45485.3 L-26757.3,45438.6 L-26699.2,45385.8 L-26646.4,45327.7 L-26599.7,45264.6 L-26559.3,45197.3 L-26525.7,45126.3 L-26499.3,45052.4 L-26480.2,44976.2 L-26468.7,44898.6 L-26464.9,44820.1"/>
</g>

<g fill="none" stroke="#000000" stroke-opacity="1" stroke-width="1" stroke-linecap="square" stroke-linejoin="bevel" transform="matrix(1,0,0,-1,28065.4,45620.6)"
font-family="MS Shell Dlg 2" font-size="10.3125" font-weight="400" font-style="normal" 
>
</g>

<g fill="none" stroke="#000000" stroke-opacity="1" stroke-width="1" stroke-linecap="square" stroke-linejoin="bevel" transform="matrix(1,0,0,-1,28065.4,45620.6)"
font-family="MS Shell Dlg 2" font-size="10.3125" font-weight="400" font-style="normal" 
>
</g>

<g fill="#ffff00" fill-opacity="0.2" stroke="#333333" stroke-opacity="1" stroke-width="1" stroke-linecap="round" stroke-linejoin="round" transform="matrix(1,0,0,-1,28065.4,45620.6)"
font-family="MS Shell Dlg 2" font-size="10.3125" font-weight="400" font-style="normal" 
>
<path vector-effect="non-scaling-stroke" fill-rule="evenodd" d="M53535.1,44820.1 L53531.3,44741.7 L53519.8,44664.1 L53500.7,44587.9 L53474.3,44514 L53440.7,44443 L53400.3,44375.7 L53353.6,44312.6 L53300.8,44254.5 L53242.7,44201.7 L53179.6,44155 L53112.3,44114.6 L53041.3,44081 L52967.4,44054.6 L52891.2,44035.5 L52813.6,44024 L52735.1,44020.1 L52656.7,44024 L52579.1,44035.5 L52502.9,44054.6 L52429,44081 L52358,44114.6 L52290.7,44155 L52227.6,44201.7 L52169.5,44254.5 L52116.7,44312.6 L52070,44375.7 L52029.6,44443 L51996,44514 L51969.6,44587.9 L51950.5,44664.1 L51939,44741.7 L51935.1,44820.1 L51939,44898.6 L51950.5,44976.2 L51969.6,45052.4 L51996,45126.3 L52029.6,45197.3 L52070,45264.6 L52116.7,45327.7 L52169.5,45385.8 L52227.6,45438.6 L52290.7,45485.3 L52358,45525.7 L52429,45559.2 L52502.9,45585.7 L52579.1,45604.8 L52656.7,45616.3 L52735.1,45620.1 L52813.6,45616.3 L52891.2,45604.8 L52967.4,45585.7 L53041.3,45559.2 L53112.3,45525.7 L53179.6,45485.3 L53242.7,45438.6 L53300.8,45385.8 L53353.6,45327.7 L53400.3,45264.6 L53440.7,45197.3 L53474.3,45126.3 L53500.7,45052.4 L53519.8,44976.2 L53531.3,44898.6 L53535.1,44820.1"/>
</g>

<g fill="none" stroke="#000000" stroke-opacity="1" stroke-width="1" stroke-linecap="square" stroke-linejoin="bevel" transform="matrix(1,0,0,-1,28065.4,45620.6)"
font-family="MS Shell Dlg 2" font-size="10.3125" font-weight="400" font-style="normal" 
>
</g>

<g fill="none" stroke="#000000" stroke-opacity="1" stroke-width="1" stroke-linecap="square" stroke-linejoin="bevel" transform="matrix(1,0,0,-1,28065.4,45620.6)"
font-family="MS Shell Dlg 2" font-size="10.3125" font-weight="400" font-style="normal" 
>
</g>

<g fill="#ae5151" fill-opacity="0.2" stroke="#333333" stroke-opacity="1" stroke-width="1" stroke-linecap="round" stroke-linejoin="round" transform="matrix(1,0,0,-1,28065.4,45620.6)"
font-family="MS Shell Dlg 2" font-size="10.3125" font-weight="400" font-style="normal" 
>
<path vector-effect="non-scaling-stroke" fill-rule="evenodd" d="M-26464.9,4820.14 L-26468.7,4741.73 L-26480.2,4664.07 L-26499.3,4587.91 L-26525.7,4514 L-26559.3,4443.02 L-26599.7,4375.69 L-26646.4,4312.63 L-26699.2,4254.46 L-26757.3,4201.73 L-26820.4,4154.97 L-26887.7,4114.6 L-26958.7,4081.04 L-27032.6,4054.59 L-27108.8,4035.51 L-27186.4,4023.99 L-27264.9,4020.14 L-27343.3,4023.99 L-27420.9,4035.51 L-27497.1,4054.59 L-27571,4081.04 L-27642,4114.6 L-27709.3,4154.97 L-27772.4,4201.73 L-27830.5,4254.46 L-27883.3,4312.63 L-27930,4375.69 L-27970.4,4443.02 L-28004,4514 L-28030.4,4587.91 L-28049.5,4664.07 L-28061,4741.73 L-28064.9,4820.14 L-28061,4898.56 L-28049.5,4976.21 L-28030.4,5052.37 L-28004,5126.29 L-27970.4,5197.26 L-27930,5264.6 L-27883.3,5327.66 L-27830.5,5385.83 L-27772.4,5438.55 L-27709.3,5485.32 L-27642,5525.68 L-27571,5559.25 L-27497.1,5585.69 L-27420.9,5604.77 L-27343.3,5616.29 L-27264.9,5620.14 L-27186.4,5616.29 L-27108.8,5604.77 L-27032.6,5585.69 L-26958.7,5559.25 L-26887.7,5525.68 L-26820.4,5485.32 L-26757.3,5438.55 L-26699.2,5385.83 L-26646.4,5327.66 L-26599.7,5264.6 L-26559.3,5197.26 L-26525.7,5126.29 L-26499.3,5052.37 L-26480.2,4976.21 L-26468.7,4898.56 L-26464.9,4820.14"/>
</g>

<g fill="none" stroke="#000000" stroke-opacity="1" stroke-width="1" stroke-linecap="square" stroke-linejoin="bevel" transform="matrix(1,0,0,-1,28065.4,45620.6)"
font-family="MS Shell Dlg 2" font-size="10.3125" font-weight="400" font-style="normal" 
>
</g>

<g fill="none" stroke="#000000" stroke-opacity="1" stroke-width="1" stroke-linecap="square" stroke-linejoin="bevel" transform="matrix(1,0,0,-1,28065.4,45620.6)"
font-family="MS Shell Dlg 2" font-size="10.3125" font-weight="400" font-style="normal" 
>
</g>

<g fill="#ae5151" fill-opacity="0.2" stroke="#333333" stroke-opacity="1" stroke-width="1" stroke-linecap="round" stroke-linejoin="round" transform="matrix(1,0,0,-1,28065.4,45620.6)"
font-family="MS Shell Dlg 2" font-size="10.3125" font-weight="400" font-style="normal" 
>
<path vector-effect="non-scaling-stroke" fill-rule="evenodd" d="M53535.1,4820.14 L53531.3,4741.73 L53519.8,4664.07 L53500.7,4587.91 L53474.3,4514 L53440.7,4443.02 L53400.3,4375.69 L53353.6,4312.63 L53300.8,4254.46 L53242.7,4201.73 L53179.6,4154.97 L53112.3,4114.6 L53041.3,4081.04 L52967.4,4054.59 L52891.2,4035.51 L52813.6,4023.99 L52735.1,4020.14 L52656.7,4023.99 L52579.1,4035.51 L52502.9,4054.59 L52429,4081.04 L52358,4114.6 L52290.7,4154.97 L52227.6,4201.73 L52169.5,4254.46 L52116.7,4312.63 L52070,4375.69 L52029.6,4443.02 L51996,4514 L51969.6,4587.91 L51950.5,4664.07 L51939,4741.73 L51935.1,4820.14 L51939,4898.56 L51950.5,4976.21 L51969.6,5052.37 L51996,5126.29 L52029.6,5197.26 L52070,5264.6 L52116.7,5327.66 L52169.5,5385.83 L52227.6,5438.55 L52290.7,5485.32 L52358,5525.68 L52429,5559.25 L52502.9,5585.69 L52579.1,5604.77 L52656.7,5616.29 L52735.1,5620.14 L52813.6,5616.29 L52891.2,5604.77 L52967.4,5585.69 L53041.3,5559.25 L53112.3,5525.68 L53179.6,5485.32 L53242.7,5438.55 L53300.8,5385.83 L53353.6,5327.66 L53400.3,5264.6 L53440.7,5197.26 L53474.3,5126.29 L53500.7,5052.37 L53519.8,4976.21 L53531.3,4898.56 L53535.1,4820.14"/>
</g>

<g fill="none" stroke="#000000" stroke-opacity="1" stroke-width="1" stroke-linecap="square" stroke-linejoin="bevel" transform="matrix(1,0,0,-1,28065.4,45620.6)"
font-family="MS Shell Dlg 2" font-size="10.3125" font-weight="400" font-style="normal" 
>
</g>

<g fill="none" stroke="#000000" stroke-opacity="1" stroke-width="1" stroke-linecap="square" stroke-linejoin="bevel" transform="matrix(1,0,0,-1,28065.4,45620.6)"
font-family="MS Shell Dlg 2" font-size="10.3125" font-weight="400" font-style="normal" 
>
</g>

<g fill="#ae5151" fill-opacity="0.2" stroke="#333333" stroke-opacity="1" stroke-width="1" stroke-linecap="round" stroke-linejoin="round" transform="matrix(1,0,0,-1,28065.4,45620.6)"
font-family="MS Shell Dlg 2" font-size="10.3125" font-weight="400" font-style="normal" 
>
<path vector-effect="non-scaling-stroke" fill-rule="evenodd" d="M-26464.9,44820.1 L-26468.7,44741.7 L-26480.2,44664.1 L-26499.3,44587.9 L-26525.7,44514 L-26559.3,44443 L-26599.7,44375.7 L-26646.4,44312.6 L-26699.2,44254.5 L-26757.3,44201.7 L-26820.4,44155 L-26887.7,44114.6 L-26958.7,44081 L-27032.6,44054.6 L-27108.8,44035.5 L-27186.4,44024 L-27264.9,44020.1 L-27343.3,44024 L-27420.9,44035.5 L-27497.1,44054.6 L-27571,44081 L-27642,44114.6 L-27709.3,44155 L-27772.4,44201.7 L-27830.5,44254.5 L-27883.3,44312.6 L-27930,44375.7 L-27970.4,44443 L-28004,44514 L-28030.4,44587.9 L-28049.5,44664.1 L-28061,44741.7 L-28064.9,44820.1 L-28061,44898.6 L-28049.5,44976.2 L-28030.4,45052.4 L-28004,45126.3 L-27970.4,45197.3 L-27930,45264.6 L-27883.3,45327.7 L-27830.5,45385.8 L-27772.4,45438.6 L-27709.3,45485.3 L-27642,45525.7 L-27571,45559.2 L-27497.1,45585.7 L-27420.9,45604.8 L-27343.3,45616.3 L-27264.9,45620.1 L-27186.4,45616.3 L-27108.8,45604.8 L-27032.6,45585.7 L-26958.7,45559.2 L-26887.7,45525.7 L-26820.4,45485.3 L-26757.3,45438.6 L-26699.2,45385.8 L-26646.4,45327.7 L-26599.7,45264.6 L-26559.3,45197.3 L-26525.7,45126.3 L-26499.3,45052.4 L-26480.2,44976.2 L-26468.7,44898.6 L-26464.9,44820.1"/>
</g>

<g fill="none" stroke="#000000" stroke-opacity="1" stroke-width="1" stroke-linecap="square" stroke-linejoin="bevel" transform="matrix(1,0,0,-1,28065.4,45620.6)"
font-family="MS Shell Dlg 2" font-size="10.3125" font-weight="400" font-style="normal" 
>
</g>

<g fill="none" stroke="#000000" stroke-opacity="1" stroke-width="1" stroke-linecap="square" stroke-linejoin="bevel" transform="matrix(1,0,0,-1,28065.4,45620.6)"
font-family="MS Shell Dlg 2" font-size="10.3125" font-weight="400" font-style="normal" 
>
</g>

<g fill="#ae5151" fill-opacity="0.2" stroke="#333333" stroke-opacity="1" stroke-width="1" stroke-linecap="round" stroke-linejoin="round" transform="matrix(1,0,0,-1,28065.4,45620.6)"
font-family="MS Shell Dlg 2" font-size="10.3125" font-weight="400" font-style="normal" 
>
<path vector-effect="non-scaling-stroke" fill-rule="evenodd" d="M53535.1,44820.1 L53531.3,44741.7 L53519.8,44664.1 L53500.7,44587.9 L53474.3,44514 L53440.7,44443 L53400.3,44375.7 L53353.6,44312.6 L53300.8,44254.5 L53242.7,44201.7 L53179.6,44155 L53112.3,44114.6 L53041.3,44081 L52967.4,44054.6 L52891.2,44035.5 L52813.6,44024 L52735.1,44020.1 L52656.7,44024 L52579.1,44035.5 L52502.9,44054.6 L52429,44081 L52358,44114.6 L52290.7,44155 L52227.6,44201.7 L52169.5,44254.5 L52116.7,44312.6 L52070,44375.7 L52029.6,44443 L51996,44514 L51969.6,44587.9 L51950.5,44664.1 L51939,44741.7 L51935.1,44820.1 L51939,44898.6 L51950.5,44976.2 L51969.6,45052.4 L51996,45126.3 L52029.6,45197.3 L52070,45264.6 L52116.7,45327.7 L52169.5,45385.8 L52227.6,45438.6 L52290.7,45485.3 L52358,45525.7 L52429,45559.2 L52502.9,45585.7 L52579.1,45604.8 L52656.7,45616.3 L52735.1,45620.1 L52813.6,45616.3 L52891.2,45604.8 L52967.4,45585.7 L53041.3,45559.2 L53112.3,45525.7 L53179.6,45485.3 L53242.7,45438.6 L53300.8,45385.8 L53353.6,45327.7 L53400.3,45264.6 L53440.7,45197.3 L53474.3,45126.3 L53500.7,45052.4 L53519.8,44976.2 L53531.3,44898.6 L53535.1,44820.1"/>
</g>

<g fill="none" stroke="#000000" stroke-opacity="1" stroke-width="1" stroke-linecap="square" stroke-linejoin="bevel" transform="matrix(1,0,0,-1,28065.4,45620.6)"
font-family="MS Shell Dlg 2" font-size="10.3125" font-weight="400" font-style="normal" 
>
</g>

<g fill="none" stroke="#000000" stroke-opacity="1" stroke-width="1" stroke-linecap="square" stroke-linejoin="bevel" transform="matrix(1,0,0,-1,28065.4,45620.6)"
font-family="MS Shell Dlg 2" font-size="10.3125" font-weight="400" font-style="normal" 
>
</g>

<g fill="#333333" fill-opacity="0.2" stroke="#333333" stroke-opacity="1" stroke-width="1" stroke-linecap="round" stroke-linejoin="round" transform="matrix(1,0,0,-1,28065.4,45620.6)"
font-family="MS Shell Dlg 2" font-size="10.3125" font-weight="400" font-style="normal" 
>
<path vector-effect="non-scaling-stroke" fill-rule="evenodd" d="M-26464.9,4820.14 L-26468.7,4741.73 L-26480.2,4664.07 L-26499.3,4587.91 L-26525.7,4514 L-26559.3,4443.02 L-26599.7,4375.69 L-26646.4,4312.63 L-26699.2,4254.46 L-26757.3,4201.73 L-26820.4,4154.97 L-26887.7,4114.6 L-26958.7,4081.04 L-27032.6,4054.59 L-27108.8,4035.51 L-27186.4,4023.99 L-27264.9,4020.14 L-27343.3,4023.99 L-27420.9,4035.51 L-27497.1,4054.59 L-27571,4081.04 L-27642,4114.6 L-27709.3,4154.97 L-27772.4,4201.73 L-27830.5,4254.46 L-27883.3,4312.63 L-27930,4375.69 L-27970.4,4443.02 L-28004,4514 L-28030.4,4587.91 L-28049.5,4664.07 L-28061,4741.73 L-28064.9,4820.14 L-28061,4898.56 L-28049.5,4976.21 L-28030.4,5052.37 L-28004,5126.29 L-27970.4,5197.26 L-27930,5264.6 L-27883.3,5327.66 L-27830.5,5385.83 L-27772.4,5438.55 L-27709.3,5485.32 L-27642,5525.68 L-27571,5559.25 L-27497.1,5585.69 L-27420.9,5604.77 L-27343.3,5616.29 L-27264.9,5620.14 L-27186.4,5616.29 L-27108.8,5604.77 L-27032.6,5585.69 L-26958.7,5559.25 L-26887.7,5525.68 L-26820.4,5485.32 L-26757.3,5438.55 L-26699.2,5385.83 L-26646.4,5327.66 L-26599.7,5264.6 L-26559.3,5197.26 L-26525.7,5126.29 L-26499.3,5052.37 L-26480.2,4976.21 L-26468.7,4898.56 L-26464.9,4820.14"/>
</g>

<g fill="none" stroke="#000000" stroke-opacity="1" stroke-width="1" stroke-linecap="square" stroke-linejoin="bevel" transform="matrix(1,0,0,-1,28065.4,45620.6)"
font-family="MS Shell Dlg 2" font-size="10.3125" font-weight="400" font-style="normal" 
>
</g>

<g fill="none" stroke="#000000" stroke-opacity="1" stroke-width="1" stroke-linecap="square" stroke-linejoin="bevel" transform="matrix(1,0,0,-1,28065.4,45620.6)"
font-family="MS Shell Dlg 2" font-size="10.3125" font-weight="400" font-style="normal" 
>
</g>

<g fill="#333333" fill-opacity="0.2" stroke="#333333" stroke-opacity="1" stroke-width="1" stroke-linecap="round" stroke-linejoin="round" transform="matrix(1,0,0,-1,28065.4,45620.6)"
font-family="MS Shell Dlg 2" font-size="10.3125" font-weight="400" font-style="normal" 
>
<path vector-effect="non-scaling-stroke" fill-rule="evenodd" d="M53535.1,4820.14 L53531.3,4741.73 L53519.8,4664.07 L53500.7,4587.91 L53474.3,4514 L53440.7,4443.02 L53400.3,4375.69 L53353.6,4312.63 L53300.8,4254.46 L53242.7,4201.73 L53179.6,4154.97 L53112.3,4114.6 L53041.3,4081.04 L52967.4,4054.59 L52891.2,4035.51 L52813.6,4023.99 L52735.1,4020.14 L52656.7,4023.99 L52579.1,4035.51 L52502.9,4054.59 L52429,4081.04 L52358,4114.6 L52290.7,4154.97 L52227.6,4201.73 L52169.5,4254.46 L52116.7,4312.63 L52070,4375.69 L52029.6,4443.02 L51996,4514 L51969.6,4587.91 L51950.5,4664.07 L51939,4741.73 L51935.1,4820.14 L51939,4898.56 L51950.5,4976.21 L51969.6,5052.37 L51996,5126.29 L52029.6,5197.26 L52070,5264.6 L52116.7,5327.66 L52169.5,5385.83 L52227.6,5438.55 L52290.7,5485.32 L52358,5525.68 L52429,5559.25 L52502.9,5585.69 L52579.1,5604.77 L52656.7,5616.29 L52735.1,5620.14 L52813.6,5616.29 L52891.2,5604.77 L52967.4,5585.69 L53041.3,5559.25 L53112.3,5525.68 L53179.6,5485.32 L53242.7,5438.55 L53300.8,5385.83 L53353.6,5327.66 L53400.3,5264.6 L53440.7,5197.26 L53474.3,5126.29 L53500.7,5052.37 L53519.8,4976.21 L53531.3,4898.56 L53535.1,4820.14"/>
</g>

<g fill="none" stroke="#000000" stroke-opacity="1" stroke-width="1" stroke-linecap="square" stroke-linejoin="bevel" transform="matrix(1,0,0,-1,28065.4,45620.6)"
font-family="MS Shell Dlg 2" font-size="10.3125" font-weight="400" font-style="normal" 
>
</g>

<g fill="none" stroke="#000000" stroke-opacity="1" stroke-width="1" stroke-linecap="square" stroke-linejoin="bevel" transform="matrix(1,0,0,-1,28065.4,45620.6)"
font-family="MS Shell Dlg 2" font-size="10.3125" font-weight="400" font-style="normal" 
>
</g>

<g fill="#333333" fill-opacity="0.2" stroke="#333333" stroke-opacity="1" stroke-width="1" stroke-linecap="round" stroke-linejoin="round" transform="matrix(1,0,0,-1,28065.4,45620.6)"
font-family="MS Shell Dlg 2" font-size="10.3125" font-weight="400" font-style="normal" 
>
<path vector-effect="non-scaling-stroke" fill-rule="evenodd" d="M-26464.9,44820.1 L-26468.7,44741.7 L-26480.2,44664.1 L-26499.3,44587.9 L-26525.7,44514 L-26559.3,44443 L-26599.7,44375.7 L-26646.4,44312.6 L-26699.2,44254.5 L-26757.3,44201.7 L-26820.4,44155 L-26887.7,44114.6 L-26958.7,44081 L-27032.6,44054.6 L-27108.8,44035.5 L-27186.4,44024 L-27264.9,44020.1 L-27343.3,44024 L-27420.9,44035.5 L-27497.1,44054.6 L-27571,44081 L-27642,44114.6 L-27709.3,44155 L-27772.4,44201.7 L-27830.5,44254.5 L-27883.3,44312.6 L-27930,44375.7 L-27970.4,44443 L-28004,44514 L-28030.4,44587.9 L-28049.5,44664.1 L-28061,44741.7 L-28064.9,44820.1 L-28061,44898.6 L-28049.5,44976.2 L-28030.4,45052.4 L-28004,45126.3 L-27970.4,45197.3 L-27930,45264.6 L-27883.3,45327.7 L-27830.5,45385.8 L-27772.4,45438.6 L-27709.3,45485.3 L-27642,45525.7 L-27571,45559.2 L-27497.1,45585.7 L-27420.9,45604.8 L-27343.3,45616.3 L-27264.9,45620.1 L-27186.4,45616.3 L-27108.8,45604.8 L-27032.6,45585.7 L-26958.7,45559.2 L-26887.7,45525.7 L-26820.4,45485.3 L-26757.3,45438.6 L-26699.2,45385.8 L-26646.4,45327.7 L-26599.7,45264.6 L-26559.3,45197.3 L-26525.7,45126.3 L-26499.3,45052.4 L-26480.2,44976.2 L-26468.7,44898.6 L-26464.9,44820.1"/>
</g>

<g fill="none" stroke="#000000" stroke-opacity="1" stroke-width="1" stroke-linecap="square" stroke-linejoin="bevel" transform="matrix(1,0,0,-1,28065.4,45620.6)"
font-family="MS Shell Dlg 2" font-size="10.3125" font-weight="400" font-style="normal" 
>
</g>

<g fill="none" stroke="#000000" stroke-opacity="1" stroke-width="1" stroke-linecap="square" stroke-linejoin="bevel" transform="matrix(1,0,0,-1,28065.4,45620.6)"
font-family="MS Shell Dlg 2" font-size="10.3125" font-weight="400" font-style="normal" 
>
</g>

<g fill="#333333" fill-opacity="0.2" stroke="#333333" stroke-opacity="1" stroke-width="1" stroke-linecap="round" stroke-linejoin="round" transform="matrix(1,0,0,-1,28065.4,45620.6)"
font-family="MS Shell Dlg 2" font-size="10.3125" font-weight="400" font-style="normal" 
>
<path vector-effect="non-scaling-stroke" fill-rule="evenodd" d="M53535.1,44820.1 L53531.3,44741.7 L53519.8,44664.1 L53500.7,44587.9 L53474.3,44514 L53440.7,44443 L53400.3,44375.7 L53353.6,44312.6 L53300.8,44254.5 L53242.7,44201.7 L53179.6,44155 L53112.3,44114.6 L53041.3,44081 L52967.4,44054.6 L52891.2,44035.5 L52813.6,44024 L52735.1,44020.1 L52656.7,44024 L52579.1,44035.5 L52502.9,44054.6 L52429,44081 L52358,44114.6 L52290.7,44155 L52227.6,44201.7 L52169.5,44254.5 L52116.7,44312.6 L52070,44375.7 L52029.6,44443 L51996,44514 L51969.6,44587.9 L51950.5,44664.1 L51939,44741.7 L51935.1,44820.1 L51939,44898.6 L51950.5,44976.2 L51969.6,45052.4 L51996,45126.3 L52029.6,45197.3 L52070,45264.6 L52116.7,45327.7 L52169.5,45385.8 L52227.6,45438.6 L52290.7,45485.3 L52358,45525.7 L52429,45559.2 L52502.9,45585.7 L52579.1,45604.8 L52656.7,45616.3 L52735.1,45620.1 L52813.6,45616.3 L52891.2,45604.8 L52967.4,45585.7 L53041.3,45559.2 L53112.3,45525.7 L53179.6,45485.3 L53242.7,45438.6 L53300.8,45385.8 L53353.6,45327.7 L53400.3,45264.6 L53440.7,45197.3 L53474.3,45126.3 L53500.7,45052.4 L53519.8,44976.2 L53531.3,44898.6 L53535.1,44820.1"/>
</g>

<g fill="none" stroke="#000000" stroke-opacity="1" stroke-width="1" stroke-linecap="square" stroke-linejoin="bevel" transform="matrix(1,0,0,-1,28065.4,45620.6)"
font-family="MS Shell Dlg 2" font-size="10.3125" font-weight="400" font-style="normal" 
>
</g>

<g fill="none" stroke="#000000" stroke-opacity="1" stroke-width="1" stroke-linecap="square" stroke-linejoin="bevel" transform="matrix(1,0,0,-1,28065.4,45620.6)"
font-family="MS Shell Dlg 2" font-size="10.3125" font-weight="400" font-style="normal" 
>
</g>

<g fill="#ae5151" fill-opacity="0.2" stroke="#333333" stroke-opacity="1" stroke-width="1" stroke-linecap="round" stroke-linejoin="round" transform="matrix(1,0,0,-1,28065.4,45620.6)"
font-family="MS Shell Dlg 2" font-size="10.3125" font-weight="400" font-style="normal" 
>
<path vector-effect="non-scaling-stroke" fill-rule="evenodd" d="M-26464.9,4820.14 L-26468.7,4741.73 L-26480.2,4664.07 L-26499.3,4587.91 L-26525.7,4514 L-26559.3,4443.02 L-26599.7,4375.69 L-26646.4,4312.63 L-26699.2,4254.46 L-26757.3,4201.73 L-26820.4,4154.97 L-26887.7,4114.6 L-26958.7,4081.04 L-27032.6,4054.59 L-27108.8,4035.51 L-27186.4,4023.99 L-27264.9,4020.14 L-27343.3,4023.99 L-27420.9,4035.51 L-27497.1,4054.59 L-27571,4081.04 L-27642,4114.6 L-27709.3,4154.97 L-27772.4,4201.73 L-27830.5,4254.46 L-27883.3,4312.63 L-27930,4375.69 L-27970.4,4443.02 L-28004,4514 L-28030.4,4587.91 L-28049.5,4664.07 L-28061,4741.73 L-28064.9,4820.14 L-28061,4898.56 L-28049.5,4976.21 L-28030.4,5052.37 L-28004,5126.29 L-27970.4,5197.26 L-27930,5264.6 L-27883.3,5327.66 L-27830.5,5385.83 L-27772.4,5438.55 L-27709.3,5485.32 L-27642,5525.68 L-27571,5559.25 L-27497.1,5585.69 L-27420.9,5604.77 L-27343.3,5616.29 L-27264.9,5620.14 L-27186.4,5616.29 L-27108.8,5604.77 L-27032.6,5585.69 L-26958.7,5559.25 L-26887.7,5525.68 L-26820.4,5485.32 L-26757.3,5438.55 L-26699.2,5385.83 L-26646.4,5327.66 L-26599.7,5264.6 L-26559.3,5197.26 L-26525.7,5126.29 L-26499.3,5052.37 L-26480.2,4976.21 L-26468.7,4898.56 L-26464.9,4820.14"/>
</g>

<g fill="none" stroke="#000000" stroke-opacity="1" stroke-width="1" stroke-linecap="square" stroke-linejoin="bevel" transform="matrix(1,0,0,-1,28065.4,45620.6)"
font-family="MS Shell Dlg 2" font-size="10.3125" font-weight="400" font-style="normal" 
>
</g>

<g fill="none" stroke="#000000" stroke-opacity="1" stroke-width="1" stroke-linecap="square" stroke-linejoin="bevel" transform="matrix(1,0,0,-1,28065.4,45620.6)"
font-family="MS Shell Dlg 2" font-size="10.3125" font-weight="400" font-style="normal" 
>
</g>

<g fill="#ae5151" fill-opacity="0.2" stroke="#333333" stroke-opacity="1" stroke-width="1" stroke-linecap="round" stroke-linejoin="round" transform="matrix(1,0,0,-1,28065.4,45620.6)"
font-family="MS Shell Dlg 2" font-size="10.3125" font-weight="400" font-style="normal" 
>
<path vector-effect="non-scaling-stroke" fill-rule="evenodd" d="M53535.1,4820.14 L53531.3,4741.73 L53519.8,4664.07 L53500.7,4587.91 L53474.3,4514 L53440.7,4443.02 L53400.3,4375.69 L53353.6,4312.63 L53300.8,4254.46 L53242.7,4201.73 L53179.6,4154.97 L53112.3,4114.6 L53041.3,4081.04 L52967.4,4054.59 L52891.2,4035.51 L52813.6,4023.99 L52735.1,4020.14 L52656.7,4023.99 L52579.1,4035.51 L52502.9,4054.59 L52429,4081.04 L52358,4114.6 L52290.7,4154.97 L52227.6,4201.73 L52169.5,4254.46 L52116.7,4312.63 L52070,4375.69 L52029.6,4443.02 L51996,4514 L51969.6,4587.91 L51950.5,4664.07 L51939,4741.73 L51935.1,4820.14 L51939,4898.56 L51950.5,4976.21 L51969.6,5052.37 L51996,5126.29 L52029.6,5197.26 L52070,5264.6 L52116.7,5327.66 L52169.5,5385.83 L52227.6,5438.55 L52290.7,5485.32 L52358,5525.68 L52429,5559.25 L52502.9,5585.69 L52579.1,5604.77 L52656.7,5616.29 L52735.1,5620.14 L52813.6,5616.29 L52891.2,5604.77 L52967.4,5585.69 L53041.3,5559.25 L53112.3,5525.68 L53179.6,5485.32 L53242.7,5438.55 L53300.8,5385.83 L53353.6,5327.66 L53400.3,5264.6 L53440.7,5197.26 L53474.3,5126.29 L53500.7,5052.37 L53519.8,4976.21 L53531.3,4898.56 L53535.1,4820.14"/>
</g>

<g fill="none" stroke="#000000" stroke-opacity="1" stroke-width="1" stroke-linecap="square" stroke-linejoin="bevel" transform="matrix(1,0,0,-1,28065.4,45620.6)"
font-family="MS Shell Dlg 2" font-size="10.3125" font-weight="400" font-style="normal" 
>
</g>

<g fill="none" stroke="#000000" stroke-opacity="1" stroke-width="1" stroke-linecap="square" stroke-linejoin="bevel" transform="matrix(1,0,0,-1,28065.4,45620.6)"
font-family="MS Shell Dlg 2" font-size="10.3125" font-weight="400" font-style="normal" 
>
</g>

<g fill="#ae5151" fill-opacity="0.2" stroke="#333333" stroke-opacity="1" stroke-width="1" stroke-linecap="round" stroke-linejoin="round" transform="matrix(1,0,0,-1,28065.4,45620.6)"
font-family="MS Shell Dlg 2" font-size="10.3125" font-weight="400" font-style="normal" 
>
<path vector-effect="non-scaling-stroke" fill-rule="evenodd" d="M-26464.9,44820.1 L-26468.7,44741.7 L-26480.2,44664.1 L-26499.3,44587.9 L-26525.7,44514 L-26559.3,44443 L-26599.7,44375.7 L-26646.4,44312.6 L-26699.2,44254.5 L-26757.3,44201.7 L-26820.4,44155 L-26887.7,44114.6 L-26958.7,44081 L-27032.6,44054.6 L-27108.8,44035.5 L-27186.4,44024 L-27264.9,44020.1 L-27343.3,44024 L-27420.9,44035.5 L-27497.1,44054.6 L-27571,44081 L-27642,44114.6 L-27709.3,44155 L-27772.4,44201.7 L-27830.5,44254.5 L-27883.3,44312.6 L-27930,44375.7 L-27970.4,44443 L-28004,44514 L-28030.4,44587.9 L-28049.5,44664.1 L-28061,44741.7 L-28064.9,44820.1 L-28061,44898.6 L-28049.5,44976.2 L-28030.4,45052.4 L-28004,45126.3 L-27970.4,45197.3 L-27930,45264.6 L-27883.3,45327.7 L-27830.5,45385.8 L-27772.4,45438.6 L-27709.3,45485.3 L-27642,45525.7 L-27571,45559.2 L-27497.1,45585.7 L-27420.9,45604.8 L-27343.3,45616.3 L-27264.9,45620.1 L-27186.4,45616.3 L-27108.8,45604.8 L-27032.6,45585.7 L-26958.7,45559.2 L-26887.7,45525.7 L-26820.4,45485.3 L-26757.3,45438.6 L-26699.2,45385.8 L-26646.4,45327.7 L-26599.7,45264.6 L-26559.3,45197.3 L-26525.7,45126.3 L-26499.3,45052.4 L-26480.2,44976.2 L-26468.7,44898.6 L-26464.9,44820.1"/>
</g>

<g fill="none" stroke="#000000" stroke-opacity="1" stroke-width="1" stroke-linecap="square" stroke-linejoin="bevel" transform="matrix(1,0,0,-1,28065.4,45620.6)"
font-family="MS Shell Dlg 2" font-size="10.3125" font-weight="400" font-style="normal" 
>
</g>

<g fill="none" stroke="#000000" stroke-opacity="1" stroke-width="1" stroke-linecap="square" stroke-linejoin="bevel" transform="matrix(1,0,0,-1,28065.4,45620.6)"
font-family="MS Shell Dlg 2" font-size="10.3125" font-weight="400" font-style="normal" 
>
</g>

<g fill="#ae5151" fill-opacity="0.2" stroke="#333333" stroke-opacity="1" stroke-width="1" stroke-linecap="round" stroke-linejoin="round" transform="matrix(1,0,0,-1,28065.4,45620.6)"
font-family="MS Shell Dlg 2" font-size="10.3125" font-weight="400" font-style="normal" 
>
<path vector-effect="non-scaling-stroke" fill-rule="evenodd" d="M53535.1,44820.1 L53531.3,44741.7 L53519.8,44664.1 L53500.7,44587.9 L53474.3,44514 L53440.7,44443 L53400.3,44375.7 L53353.6,44312.6 L53300.8,44254.5 L53242.7,44201.7 L53179.6,44155 L53112.3,44114.6 L53041.3,44081 L52967.4,44054.6 L52891.2,44035.5 L52813.6,44024 L52735.1,44020.1 L52656.7,44024 L52579.1,44035.5 L52502.9,44054.6 L52429,44081 L52358,44114.6 L52290.7,44155 L52227.6,44201.7 L52169.5,44254.5 L52116.7,44312.6 L52070,44375.7 L52029.6,44443 L51996,44514 L51969.6,44587.9 L51950.5,44664.1 L51939,44741.7 L51935.1,44820.1 L51939,44898.6 L51950.5,44976.2 L51969.6,45052.4 L51996,45126.3 L52029.6,45197.3 L52070,45264.6 L52116.7,45327.7 L52169.5,45385.8 L52227.6,45438.6 L52290.7,45485.3 L52358,45525.7 L52429,45559.2 L52502.9,45585.7 L52579.1,45604.8 L52656.7,45616.3 L52735.1,45620.1 L52813.6,45616.3 L52891.2,45604.8 L52967.4,45585.7 L53041.3,45559.2 L53112.3,45525.7 L53179.6,45485.3 L53242.7,45438.6 L53300.8,45385.8 L53353.6,45327.7 L53400.3,45264.6 L53440.7,45197.3 L53474.3,45126.3 L53500.7,45052.4 L53519.8,44976.2 L53531.3,44898.6 L53535.1,44820.1"/>
</g>

<g fill="none" stroke="#000000" stroke-opacity="1" stroke-width="1" stroke-linecap="square" stroke-linejoin="bevel" transform="matrix(1,0,0,-1,28065.4,45620.6)"
font-family="MS Shell Dlg 2" font-size="10.3125" font-weight="400" font-style="normal" 
>
</g>

<g fill="none" stroke="#000000" stroke-opacity="1" stroke-width="1" stroke-linecap="square" stroke-linejoin="bevel" transform="matrix(1,0,0,-1,28065.4,45620.6)"
font-family="MS Shell Dlg 2" font-size="10.3125" font-weight="400" font-style="normal" 
>
</g>

<g fill="#333333" fill-opacity="0.2" stroke="#333333" stroke-opacity="1" stroke-width="1" stroke-linecap="round" stroke-linejoin="round" transform="matrix(1,0,0,-1,28065.4,45620.6)"
font-family="MS Shell Dlg 2" font-size="10.3125" font-weight="400" font-style="normal" 
>
<path vector-effect="non-scaling-stroke" fill-rule="evenodd" d="M-26464.9,4820.14 L-26468.7,4741.73 L-26480.2,4664.07 L-26499.3,4587.91 L-26525.7,4514 L-26559.3,4443.02 L-26599.7,4375.69 L-26646.4,4312.63 L-26699.2,4254.46 L-26757.3,4201.73 L-26820.4,4154.97 L-26887.7,4114.6 L-26958.7,4081.04 L-27032.6,4054.59 L-27108.8,4035.51 L-27186.4,4023.99 L-27264.9,4020.14 L-27343.3,4023.99 L-27420.9,4035.51 L-27497.1,4054.59 L-27571,4081.04 L-27642,4114.6 L-27709.3,4154.97 L-27772.4,4201.73 L-27830.5,4254.46 L-27883.3,4312.63 L-27930,4375.69 L-27970.4,4443.02 L-28004,4514 L-28030.4,4587.91 L-28049.5,4664.07 L-28061,4741.73 L-28064.9,4820.14 L-28061,4898.56 L-28049.5,4976.21 L-28030.4,5052.37 L-28004,5126.29 L-27970.4,5197.26 L-27930,5264.6 L-27883.3,5327.66 L-27830.5,5385.83 L-27772.4,5438.55 L-27709.3,5485.32 L-27642,5525.68 L-27571,5559.25 L-27497.1,5585.69 L-27420.9,5604.77 L-27343.3,5616.29 L-27264.9,5620.14 L-27186.4,5616.29 L-27108.8,5604.77 L-27032.6,5585.69 L-26958.7,5559.25 L-26887.7,5525.68 L-26820.4,5485.32 L-26757.3,5438.55 L-26699.2,5385.83 L-26646.4,5327.66 L-26599.7,5264.6 L-26559.3,5197.26 L-26525.7,5126.29 L-26499.3,5052.37 L-26480.2,4976.21 L-26468.7,4898.56 L-26464.9,4820.14"/>
</g>

<g fill="none" stroke="#000000" stroke-opacity="1" stroke-width="1" stroke-linecap="square" stroke-linejoin="bevel" transform="matrix(1,0,0,-1,28065.4,45620.6)"
font-family="MS Shell Dlg 2" font-size="10.3125" font-weight="400" font-style="normal" 
>
</g>

<g fill="none" stroke="#000000" stroke-opacity="1" stroke-width="1" stroke-linecap="square" stroke-linejoin="bevel" transform="matrix(1,0,0,-1,28065.4,45620.6)"
font-family="MS Shell Dlg 2" font-size="10.3125" font-weight="400" font-style="normal" 
>
</g>

<g fill="#333333" fill-opacity="0.2" stroke="#333333" stroke-opacity="1" stroke-width="1" stroke-linecap="round" stroke-linejoin="round" transform="matrix(1,0,0,-1,28065.4,45620.6)"
font-family="MS Shell Dlg 2" font-size="10.3125" font-weight="400" font-style="normal" 
>
<path vector-effect="non-scaling-stroke" fill-rule="evenodd" d="M53535.1,4820.14 L53531.3,4741.73 L53519.8,4664.07 L53500.7,4587.91 L53474.3,4514 L53440.7,4443.02 L53400.3,4375.69 L53353.6,4312.63 L53300.8,4254.46 L53242.7,4201.73 L53179.6,4154.97 L53112.3,4114.6 L53041.3,4081.04 L52967.4,4054.59 L52891.2,4035.51 L52813.6,4023.99 L52735.1,4020.14 L52656.7,4023.99 L52579.1,4035.51 L52502.9,4054.59 L52429,4081.04 L52358,4114.6 L52290.7,4154.97 L52227.6,4201.73 L52169.5,4254.46 L52116.7,4312.63 L52070,4375.69 L52029.6,4443.02 L51996,4514 L51969.6,4587.91 L51950.5,4664.07 L51939,4741.73 L51935.1,4820.14 L51939,4898.56 L51950.5,4976.21 L51969.6,5052.37 L51996,5126.29 L52029.6,5197.26 L52070,5264.6 L52116.7,5327.66 L52169.5,5385.83 L52227.6,5438.55 L52290.7,5485.32 L52358,5525.68 L52429,5559.25 L52502.9,5585.69 L52579.1,5604.77 L52656.7,5616.29 L52735.1,5620.14 L52813.6,5616.29 L52891.2,5604.77 L52967.4,5585.69 L53041.3,5559.25 L53112.3,5525.68 L53179.6,5485.32 L53242.7,5438.55 L53300.8,5385.83 L53353.6,5327.66 L53400.3,5264.6 L53440.7,5197.26 L53474.3,5126.29 L53500.7,5052.37 L53519.8,4976.21 L53531.3,4898.56 L53535.1,4820.14"/>
</g>

<g fill="none" stroke="#000000" stroke-opacity="1" stroke-width="1" stroke-linecap="square" stroke-linejoin="bevel" transform="matrix(1,0,0,-1,28065.4,45620.6)"
font-family="MS Shell Dlg 2" font-size="10.3125" font-weight="400" font-style="normal" 
>
</g>

<g fill="none" stroke="#000000" stroke-opacity="1" stroke-width="1" stroke-linecap="square" stroke-linejoin="bevel" transform="matrix(1,0,0,-1,28065.4,45620.6)"
font-family="MS Shell Dlg 2" font-size="10.3125" font-weight="400" font-style="normal" 
>
</g>

<g fill="#333333" fill-opacity="0.2" stroke="#333333" stroke-opacity="1" stroke-width="1" stroke-linecap="round" stroke-linejoin="round" transform="matrix(1,0,0,-1,28065.4,45620.6)"
font-family="MS Shell Dlg 2" font-size="10.3125" font-weight="400" font-style="normal" 
>
<path vector-effect="non-scaling-stroke" fill-rule="evenodd" d="M-26464.9,44820.1 L-26468.7,44741.7 L-26480.2,44664.1 L-26499.3,44587.9 L-26525.7,44514 L-26559.3,44443 L-26599.7,44375.7 L-26646.4,44312.6 L-26699.2,44254.5 L-26757.3,44201.7 L-26820.4,44155 L-26887.7,44114.6 L-26958.7,44081 L-27032.6,44054.6 L-27108.8,44035.5 L-27186.4,44024 L-27264.9,44020.1 L-27343.3,44024 L-27420.9,44035.5 L-27497.1,44054.6 L-27571,44081 L-27642,44114.6 L-27709.3,44155 L-27772.4,44201.7 L-27830.5,44254.5 L-27883.3,44312.6 L-27930,44375.7 L-27970.4,44443 L-28004,44514 L-28030.4,44587.9 L-28049.5,44664.1 L-28061,44741.7 L-28064.9,44820.1 L-28061,44898.6 L-28049.5,44976.2 L-28030.4,45052.4 L-28004,45126.3 L-27970.4,45197.3 L-27930,45264.6 L-27883.3,45327.7 L-27830.5,45385.8 L-27772.4,45438.6 L-27709.3,45485.3 L-27642,45525.7 L-27571,45559.2 L-27497.1,45585.7 L-27420.9,45604.8 L-27343.3,45616.3 L-27264.9,45620.1 L-27186.4,45616.3 L-27108.8,45604.8 L-27032.6,45585.7 L-26958.7,45559.2 L-26887.7,45525.7 L-26820.4,45485.3 L-26757.3,45438.6 L-26699.2,45385.8 L-26646.4,45327.7 L-26599.7,45264.6 L-26559.3,45197.3 L-26525.7,45126.3 L-26499.3,45052.4 L-26480.2,44976.2 L-26468.7,44898.6 L-26464.9,44820.1"/>
</g>

<g fill="none" stroke="#000000" stroke-opacity="1" stroke-width="1" stroke-linecap="square" stroke-linejoin="bevel" transform="matrix(1,0,0,-1,28065.4,45620.6)"
font-family="MS Shell Dlg 2" font-size="10.3125" font-weight="400" font-style="normal" 
>
</g>

<g fill="none" stroke="#000000" stroke-opacity="1" stroke-width="1" stroke-linecap="square" stroke-linejoin="bevel" transform="matrix(1,0,0,-1,28065.4,45620.6)"
font-family="MS Shell Dlg 2" font-size="10.3125" font-weight="400" font-style="normal" 
>
</g>

<g fill="#333333" fill-opacity="0.2" stroke="#333333" stroke-opacity="1" stroke-width="1" stroke-linecap="round" stroke-linejoin="round" transform="matrix(1,0,0,-1,28065.4,45620.6)"
font-family="MS Shell Dlg 2" font-size="10.3125" font-weight="400" font-style="normal" 
>
<path vector-effect="non-scaling-stroke" fill-rule="evenodd" d="M53535.1,44820.1 L53531.3,44741.7 L53519.8,44664.1 L53500.7,44587.9 L53474.3,44514 L53440.7,44443 L53400.3,44375.7 L53353.6,44312.6 L53300.8,44254.5 L53242.7,44201.7 L53179.6,44155 L53112.3,44114.6 L53041.3,44081 L52967.4,44054.6 L52891.2,44035.5 L52813.6,44024 L52735.1,44020.1 L52656.7,44024 L52579.1,44035.5 L52502.9,44054.6 L52429,44081 L52358,44114.6 L52290.7,44155 L52227.6,44201.7 L52169.5,44254.5 L52116.7,44312.6 L52070,44375.7 L52029.6,44443 L51996,44514 L51969.6,44587.9 L51950.5,44664.1 L51939,44741.7 L51935.1,44820.1 L51939,44898.6 L51950.5,44976.2 L51969.6,45052.4 L51996,45126.3 L52029.6,45197.3 L52070,45264.6 L52116.7,45327.7 L52169.5,45385.8 L52227.6,45438.6 L52290.7,45485.3 L52358,45525.7 L52429,45559.2 L52502.9,45585.7 L52579.1,45604.8 L52656.7,45616.3 L52735.1,45620.1 L52813.6,45616.3 L52891.2,45604.8 L52967.4,45585.7 L53041.3,45559.2 L53112.3,45525.7 L53179.6,45485.3 L53242.7,45438.6 L53300.8,45385.8 L53353.6,45327.7 L53400.3,45264.6 L53440.7,45197.3 L53474.3,45126.3 L53500.7,45052.4 L53519.8,44976.2 L53531.3,44898.6 L53535.1,44820.1"/>
</g>

<g fill="none" stroke="#000000" stroke-opacity="1" stroke-width="1" stroke-linecap="square" stroke-linejoin="bevel" transform="matrix(1,0,0,-1,28065.4,45620.6)"
font-family="MS Shell Dlg 2" font-size="10.3125" font-weight="400" font-style="normal" 
>
</g>

<g fill="none" stroke="#000000" stroke-opacity="1" stroke-width="1" stroke-linecap="square" stroke-linejoin="bevel" transform="matrix(1,0,0,-1,28065.4,45620.6)"
font-family="MS Shell Dlg 2" font-size="10.3125" font-weight="400" font-style="normal" 
>
</g>

<g fill="#ae5151" fill-opacity="0.2" stroke="#333333" stroke-opacity="1" stroke-width="1" stroke-linecap="round" stroke-linejoin="round" transform="matrix(1,0,0,-1,28065.4,45620.6)"
font-family="MS Shell Dlg 2" font-size="10.3125" font-weight="400" font-style="normal" 
>
<path vector-effect="non-scaling-stroke" fill-rule="evenodd" d="M-26464.9,4820.14 L-26468.7,4741.73 L-26480.2,4664.07 L-26499.3,4587.91 L-26525.7,4514 L-26559.3,4443.02 L-26599.7,4375.69 L-26646.4,4312.63 L-26699.2,4254.46 L-26757.3,4201.73 L-26820.4,4154.97 L-26887.7,4114.6 L-26958.7,4081.04 L-27032.6,4054.59 L-27108.8,4035.51 L-27186.4,4023.99 L-27264.9,4020.14 L-27343.3,4023.99 L-27420.9,4035.51 L-27497.1,4054.59 L-27571,4081.04 L-27642,4114.6 L-27709.3,4154.97 L-27772.4,4201.73 L-27830.5,4254.46 L-27883.3,4312.63 L-27930,4375.69 L-27970.4,4443.02 L-28004,4514 L-28030.4,4587.91 L-28049.5,4664.07 L-28061,4741.73 L-28064.9,4820.14 L-28061,4898.56 L-28049.5,4976.21 L-28030.4,5052.37 L-28004,5126.29 L-27970.4,5197.26 L-27930,5264.6 L-27883.3,5327.66 L-27830.5,5385.83 L-27772.4,5438.55 L-27709.3,5485.32 L-27642,5525.68 L-27571,5559.25 L-27497.1,5585.69 L-27420.9,5604.77 L-27343.3,5616.29 L-27264.9,5620.14 L-27186.4,5616.29 L-27108.8,5604.77 L-27032.6,5585.69 L-26958.7,5559.25 L-26887.7,5525.68 L-26820.4,5485.32 L-26757.3,5438.55 L-26699.2,5385.83 L-26646.4,5327.66 L-26599.7,5264.6 L-26559.3,5197.26 L-26525.7,5126.29 L-26499.3,5052.37 L-26480.2,4976.21 L-26468.7,4898.56 L-26464.9,4820.14"/>
</g>

<g fill="none" stroke="#000000" stroke-opacity="1" stroke-width="1" stroke-linecap="square" stroke-linejoin="bevel" transform="matrix(1,0,0,-1,28065.4,45620.6)"
font-family="MS Shell Dlg 2" font-size="10.3125" font-weight="400" font-style="normal" 
>
</g>

<g fill="none" stroke="#000000" stroke-opacity="1" stroke-width="1" stroke-linecap="square" stroke-linejoin="bevel" transform="matrix(1,0,0,-1,28065.4,45620.6)"
font-family="MS Shell Dlg 2" font-size="10.3125" font-weight="400" font-style="normal" 
>
</g>

<g fill="#ae5151" fill-opacity="0.2" stroke="#333333" stroke-opacity="1" stroke-width="1" stroke-linecap="round" stroke-linejoin="round" transform="matrix(1,0,0,-1,28065.4,45620.6)"
font-family="MS Shell Dlg 2" font-size="10.3125" font-weight="400" font-style="normal" 
>
<path vector-effect="non-scaling-stroke" fill-rule="evenodd" d="M53535.1,4820.14 L53531.3,4741.73 L53519.8,4664.07 L53500.7,4587.91 L53474.3,4514 L53440.7,4443.02 L53400.3,4375.69 L53353.6,4312.63 L53300.8,4254.46 L53242.7,4201.73 L53179.6,4154.97 L53112.3,4114.6 L53041.3,4081.04 L52967.4,4054.59 L52891.2,4035.51 L52813.6,4023.99 L52735.1,4020.14 L52656.7,4023.99 L52579.1,4035.51 L52502.9,4054.59 L52429,4081.04 L52358,4114.6 L52290.7,4154.97 L52227.6,4201.73 L52169.5,4254.46 L52116.7,4312.63 L52070,4375.69 L52029.6,4443.02 L51996,4514 L51969.6,4587.91 L51950.5,4664.07 L51939,4741.73 L51935.1,4820.14 L51939,4898.56 L51950.5,4976.21 L51969.6,5052.37 L51996,5126.29 L52029.6,5197.26 L52070,5264.6 L52116.7,5327.66 L52169.5,5385.83 L52227.6,5438.55 L52290.7,5485.32 L52358,5525.68 L52429,5559.25 L52502.9,5585.69 L52579.1,5604.77 L52656.7,5616.29 L52735.1,5620.14 L52813.6,5616.29 L52891.2,5604.77 L52967.4,5585.69 L53041.3,5559.25 L53112.3,5525.68 L53179.6,5485.32 L53242.7,5438.55 L53300.8,5385.83 L53353.6,5327.66 L53400.3,5264.6 L53440.7,5197.26 L53474.3,5126.29 L53500.7,5052.37 L53519.8,4976.21 L53531.3,4898.56 L53535.1,4820.14"/>
</g>

<g fill="none" stroke="#000000" stroke-opacity="1" stroke-width="1" stroke-linecap="square" stroke-linejoin="bevel" transform="matrix(1,0,0,-1,28065.4,45620.6)"
font-family="MS Shell Dlg 2" font-size="10.3125" font-weight="400" font-style="normal" 
>
</g>

<g fill="none" stroke="#000000" stroke-opacity="1" stroke-width="1" stroke-linecap="square" stroke-linejoin="bevel" transform="matrix(1,0,0,-1,28065.4,45620.6)"
font-family="MS Shell Dlg 2" font-size="10.3125" font-weight="400" font-style="normal" 
>
</g>

<g fill="#ae5151" fill-opacity="0.2" stroke="#333333" stroke-opacity="1" stroke-width="1" stroke-linecap="round" stroke-linejoin="round" transform="matrix(1,0,0,-1,28065.4,45620.6)"
font-family="MS Shell Dlg 2" font-size="10.3125" font-weight="400" font-style="normal" 
>
<path vector-effect="non-scaling-stroke" fill-rule="evenodd" d="M-26464.9,44820.1 L-26468.7,44741.7 L-26480.2,44664.1 L-26499.3,44587.9 L-26525.7,44514 L-26559.3,44443 L-26599.7,44375.7 L-26646.4,44312.6 L-26699.2,44254.5 L-26757.3,44201.7 L-26820.4,44155 L-26887.7,44114.6 L-26958.7,44081 L-27032.6,44054.6 L-27108.8,44035.5 L-27186.4,44024 L-27264.9,44020.1 L-27343.3,44024 L-27420.9,44035.5 L-27497.1,44054.6 L-27571,44081 L-27642,44114.6 L-27709.3,44155 L-27772.4,44201.7 L-27830.5,44254.5 L-27883.3,44312.6 L-27930,44375.7 L-27970.4,44443 L-28004,44514 L-28030.4,44587.9 L-28049.5,44664.1 L-28061,44741.7 L-28064.9,44820.1 L-28061,44898.6 L-28049.5,44976.2 L-28030.4,45052.4 L-28004,45126.3 L-27970.4,45197.3 L-27930,45264.6 L-27883.3,45327.7 L-27830.5,45385.8 L-27772.4,45438.6 L-27709.3,45485.3 L-27642,45525.7 L-27571,45559.2 L-27497.1,45585.7 L-27420.9,45604.8 L-27343.3,45616.3 L-27264.9,45620.1 L-27186.4,45616.3 L-27108.8,45604.8 L-27032.6,45585.7 L-26958.7,45559.2 L-26887.7,45525.7 L-26820.4,45485.3 L-26757.3,45438.6 L-26699.2,45385.8 L-26646.4,45327.7 L-26599.7,45264.6 L-26559.3,45197.3 L-26525.7,45126.3 L-26499.3,45052.4 L-26480.2,44976.2 L-26468.7,44898.6 L-26464.9,44820.1"/>
</g>

<g fill="none" stroke="#000000" stroke-opacity="1" stroke-width="1" stroke-linecap="square" stroke-linejoin="bevel" transform="matrix(1,0,0,-1,28065.4,45620.6)"
font-family="MS Shell Dlg 2" font-size="10.3125" font-weight="400" font-style="normal" 
>
</g>

<g fill="none" stroke="#000000" stroke-opacity="1" stroke-width="1" stroke-linecap="square" stroke-linejoin="bevel" transform="matrix(1,0,0,-1,28065.4,45620.6)"
font-family="MS Shell Dlg 2" font-size="10.3125" font-weight="400" font-style="normal" 
>
</g>

<g fill="#ae5151" fill-opacity="0.2" stroke="#333333" stroke-opacity="1" stroke-width="1" stroke-linecap="round" stroke-linejoin="round" transform="matrix(1,0,0,-1,28065.4,45620.6)"
font-family="MS Shell Dlg 2" font-size="10.3125" font-weight="400" font-style="normal" 
>
<path vector-effect="non-scaling-stroke" fill-rule="evenodd" d="M53535.1,44820.1 L53531.3,44741.7 L53519.8,44664.1 L53500.7,44587.9 L53474.3,44514 L53440.7,44443 L53400.3,44375.7 L53353.6,44312.6 L53300.8,44254.5 L53242.7,44201.7 L53179.6,44155 L53112.3,44114.6 L53041.3,44081 L52967.4,44054.6 L52891.2,44035.5 L52813.6,44024 L52735.1,44020.1 L52656.7,44024 L52579.1,44035.5 L52502.9,44054.6 L52429,44081 L52358,44114.6 L52290.7,44155 L52227.6,44201.7 L52169.5,44254.5 L52116.7,44312.6 L52070,44375.7 L52029.6,44443 L51996,44514 L51969.6,44587.9 L51950.5,44664.1 L51939,44741.7 L51935.1,44820.1 L51939,44898.6 L51950.5,44976.2 L51969.6,45052.4 L51996,45126.3 L52029.6,45197.3 L52070,45264.6 L52116.7,45327.7 L52169.5,45385.8 L52227.6,45438.6 L52290.7,45485.3 L52358,45525.7 L52429,45559.2 L52502.9,45585.7 L52579.1,45604.8 L52656.7,45616.3 L52735.1,45620.1 L52813.6,45616.3 L52891.2,45604.8 L52967.4,45585.7 L53041.3,45559.2 L53112.3,45525.7 L53179.6,45485.3 L53242.7,45438.6 L53300.8,45385.8 L53353.6,45327.7 L53400.3,45264.6 L53440.7,45197.3 L53474.3,45126.3 L53500.7,45052.4 L53519.8,44976.2 L53531.3,44898.6 L53535.1,44820.1"/>
</g>

<g fill="none" stroke="#000000" stroke-opacity="1" stroke-width="1" stroke-linecap="square" stroke-linejoin="bevel" transform="matrix(1,0,0,-1,28065.4,45620.6)"
font-family="MS Shell Dlg 2" font-size="10.3125" font-weight="400" font-style="normal" 
>
</g>

<g fill="none" stroke="#000000" stroke-opacity="1" stroke-width="1" stroke-linecap="square" stroke-linejoin="bevel" transform="matrix(1,0,0,-1,28065.4,45620.6)"
font-family="MS Shell Dlg 2" font-size="10.3125" font-weight="400" font-style="normal" 
>
</g>

<g fill="#ffff00" fill-opacity="0.2" stroke="#333333" stroke-opacity="1" stroke-width="1" stroke-linecap="round" stroke-linejoin="round" transform="matrix(1,0,0,-1,28065.4,45620.6)"
font-family="MS Shell Dlg 2" font-size="10.3125" font-weight="400" font-style="normal" 
>
<path vector-effect="non-scaling-stroke" fill-rule="evenodd" d="M-26464.9,4820.14 L-26468.7,4741.73 L-26480.2,4664.07 L-26499.3,4587.91 L-26525.7,4514 L-26559.3,4443.02 L-26599.7,4375.69 L-26646.4,4312.63 L-26699.2,4254.46 L-26757.3,4201.73 L-26820.4,4154.97 L-26887.7,4114.6 L-26958.7,4081.04 L-27032.6,4054.59 L-27108.8,4035.51 L-27186.4,4023.99 L-27264.9,4020.14 L-27343.3,4023.99 L-27420.9,4035.51 L-27497.1,4054.59 L-27571,4081.04 L-27642,4114.6 L-27709.3,4154.97 L-27772.4,4201.73 L-27830.5,4254.46 L-27883.3,4312.63 L-27930,4375.69 L-27970.4,4443.02 L-28004,4514 L-28030.4,4587.91 L-28049.5,4664.07 L-28061,4741.73 L-28064.9,4820.14 L-28061,4898.56 L-28049.5,4976.21 L-28030.4,5052.37 L-28004,5126.29 L-27970.4,5197.26 L-27930,5264.6 L-27883.3,5327.66 L-27830.5,5385.83 L-27772.4,5438.55 L-27709.3,5485.32 L-27642,5525.68 L-27571,5559.25 L-27497.1,5585.69 L-27420.9,5604.77 L-27343.3,5616.29 L-27264.9,5620.14 L-27186.4,5616.29 L-27108.8,5604.77 L-27032.6,5585.69 L-26958.7,5559.25 L-26887.7,5525.68 L-26820.4,5485.32 L-26757.3,5438.55 L-26699.2,5385.83 L-26646.4,5327.66 L-26599.7,5264.6 L-26559.3,5197.26 L-26525.7,5126.29 L-26499.3,5052.37 L-26480.2,4976.21 L-26468.7,4898.56 L-26464.9,4820.14"/>
</g>

<g fill="none" stroke="#000000" stroke-opacity="1" stroke-width="1" stroke-linecap="square" stroke-linejoin="bevel" transform="matrix(1,0,0,-1,28065.4,45620.6)"
font-family="MS Shell Dlg 2" font-size="10.3125" font-weight="400" font-style="normal" 
>
</g>

<g fill="none" stroke="#000000" stroke-opacity="1" stroke-width="1" stroke-linecap="square" stroke-linejoin="bevel" transform="matrix(1,0,0,-1,28065.4,45620.6)"
font-family="MS Shell Dlg 2" font-size="10.3125" font-weight="400" font-style="normal" 
>
</g>

<g fill="#ffff00" fill-opacity="0.2" stroke="#333333" stroke-opacity="1" stroke-width="1" stroke-linecap="round" stroke-linejoin="round" transform="matrix(1,0,0,-1,28065.4,45620.6)"
font-family="MS Shell Dlg 2" font-size="10.3125" font-weight="400" font-style="normal" 
>
<path vector-effect="non-scaling-stroke" fill-rule="evenodd" d="M53535.1,4820.14 L53531.3,4741.73 L53519.8,4664.07 L53500.7,4587.91 L53474.3,4514 L53440.7,4443.02 L53400.3,4375.69 L53353.6,4312.63 L53300.8,4254.46 L53242.7,4201.73 L53179.6,4154.97 L53112.3,4114.6 L53041.3,4081.04 L52967.4,4054.59 L52891.2,4035.51 L52813.6,4023.99 L52735.1,4020.14 L52656.7,4023.99 L52579.1,4035.51 L52502.9,4054.59 L52429,4081.04 L52358,4114.6 L52290.7,4154.97 L52227.6,4201.73 L52169.5,4254.46 L52116.7,4312.63 L52070,4375.69 L52029.6,4443.02 L51996,4514 L51969.6,4587.91 L51950.5,4664.07 L51939,4741.73 L51935.1,4820.14 L51939,4898.56 L51950.5,4976.21 L51969.6,5052.37 L51996,5126.29 L52029.6,5197.26 L52070,5264.6 L52116.7,5327.66 L52169.5,5385.83 L52227.6,5438.55 L52290.7,5485.32 L52358,5525.68 L52429,5559.25 L52502.9,5585.69 L52579.1,5604.77 L52656.7,5616.29 L52735.1,5620.14 L52813.6,5616.29 L52891.2,5604.77 L52967.4,5585.69 L53041.3,5559.25 L53112.3,5525.68 L53179.6,5485.32 L53242.7,5438.55 L53300.8,5385.83 L53353.6,5327.66 L53400.3,5264.6 L53440.7,5197.26 L53474.3,5126.29 L53500.7,5052.37 L53519.8,4976.21 L53531.3,4898.56 L53535.1,4820.14"/>
</g>

<g fill="none" stroke="#000000" stroke-opacity="1" stroke-width="1" stroke-linecap="square" stroke-linejoin="bevel" transform="matrix(1,0,0,-1,28065.4,45620.6)"
font-family="MS Shell Dlg 2" font-size="10.3125" font-weight="400" font-style="normal" 
>
</g>

<g fill="none" stroke="#000000" stroke-opacity="1" stroke-width="1" stroke-linecap="square" stroke-linejoin="bevel" transform="matrix(1,0,0,-1,28065.4,45620.6)"
font-family="MS Shell Dlg 2" font-size="10.3125" font-weight="400" font-style="normal" 
>
</g>

<g fill="#ffff00" fill-opacity="0.2" stroke="#333333" stroke-opacity="1" stroke-width="1" stroke-linecap="round" stroke-linejoin="round" transform="matrix(1,0,0,-1,28065.4,45620.6)"
font-family="MS Shell Dlg 2" font-size="10.3125" font-weight="400" font-style="normal" 
>
<path vector-effect="non-scaling-stroke" fill-rule="evenodd" d="M-26464.9,44820.1 L-26468.7,44741.7 L-26480.2,44664.1 L-26499.3,44587.9 L-26525.7,44514 L-26559.3,44443 L-26599.7,44375.7 L-26646.4,44312.6 L-26699.2,44254.5 L-26757.3,44201.7 L-26820.4,44155 L-26887.7,44114.6 L-26958.7,44081 L-27032.6,44054.6 L-27108.8,44035.5 L-27186.4,44024 L-27264.9,44020.1 L-27343.3,44024 L-27420.9,44035.5 L-27497.1,44054.6 L-27571,44081 L-27642,44114.6 L-27709.3,44155 L-27772.4,44201.7 L-27830.5,44254.5 L-27883.3,44312.6 L-27930,44375.7 L-27970.4,44443 L-28004,44514 L-28030.4,44587.9 L-28049.5,44664.1 L-28061,44741.7 L-28064.9,44820.1 L-28061,44898.6 L-28049.5,44976.2 L-28030.4,45052.4 L-28004,45126.3 L-27970.4,45197.3 L-27930,45264.6 L-27883.3,45327.7 L-27830.5,45385.8 L-27772.4,45438.6 L-27709.3,45485.3 L-27642,45525.7 L-27571,45559.2 L-27497.1,45585.7 L-27420.9,45604.8 L-27343.3,45616.3 L-27264.9,45620.1 L-27186.4,45616.3 L-27108.8,45604.8 L-27032.6,45585.7 L-26958.7,45559.2 L-26887.7,45525.7 L-26820.4,45485.3 L-26757.3,45438.6 L-26699.2,45385.8 L-26646.4,45327.7 L-26599.7,45264.6 L-26559.3,45197.3 L-26525.7,45126.3 L-26499.3,45052.4 L-26480.2,44976.2 L-26468.7,44898.6 L-26464.9,44820.1"/>
</g>

<g fill="none" stroke="#000000" stroke-opacity="1" stroke-width="1" stroke-linecap="square" stroke-linejoin="bevel" transform="matrix(1,0,0,-1,28065.4,45620.6)"
font-family="MS Shell Dlg 2" font-size="10.3125" font-weight="400" font-style="normal" 
>
</g>

<g fill="none" stroke="#000000" stroke-opacity="1" stroke-width="1" stroke-linecap="square" stroke-linejoin="bevel" transform="matrix(1,0,0,-1,28065.4,45620.6)"
font-family="MS Shell Dlg 2" font-size="10.3125" font-weight="400" font-style="normal" 
>
</g>

<g fill="#ffff00" fill-opacity="0.2" stroke="#333333" stroke-opacity="1" stroke-width="1" stroke-linecap="round" stroke-linejoin="round" transform="matrix(1,0,0,-1,28065.4,45620.6)"
font-family="MS Shell Dlg 2" font-size="10.3125" font-weight="400" font-style="normal" 
>
<path vector-effect="non-scaling-stroke" fill-rule="evenodd" d="M53535.1,44820.1 L53531.3,44741.7 L53519.8,44664.1 L53500.7,44587.9 L53474.3,44514 L53440.7,44443 L53400.3,44375.7 L53353.6,44312.6 L53300.8,44254.5 L53242.7,44201.7 L53179.6,44155 L53112.3,44114.6 L53041.3,44081 L52967.4,44054.6 L52891.2,44035.5 L52813.6,44024 L52735.1,44020.1 L52656.7,44024 L52579.1,44035.5 L52502.9,44054.6 L52429,44081 L52358,44114.6 L52290.7,44155 L52227.6,44201.7 L52169.5,44254.5 L52116.7,44312.6 L52070,44375.7 L52029.6,44443 L51996,44514 L51969.6,44587.9 L51950.5,44664.1 L51939,44741.7 L51935.1,44820.1 L51939,44898.6 L51950.5,44976.2 L51969.6,45052.4 L51996,45126.3 L52029.6,45197.3 L52070,45264.6 L52116.7,45327.7 L52169.5,45385.8 L52227.6,45438.6 L52290.7,45485.3 L52358,45525.7 L52429,45559.2 L52502.9,45585.7 L52579.1,45604.8 L52656.7,45616.3 L52735.1,45620.1 L52813.6,45616.3 L52891.2,45604.8 L52967.4,45585.7 L53041.3,45559.2 L53112.3,45525.7 L53179.6,45485.3 L53242.7,45438.6 L53300.8,45385.8 L53353.6,45327.7 L53400.3,45264.6 L53440.7,45197.3 L53474.3,45126.3 L53500.7,45052.4 L53519.8,44976.2 L53531.3,44898.6 L53535.1,44820.1"/>
</g>

<g fill="none" stroke="#000000" stroke-opacity="1" stroke-width="1" stroke-linecap="square" stroke-linejoin="bevel" transform="matrix(1,0,0,-1,28065.4,45620.6)"
font-family="MS Shell Dlg 2" font-size="10.3125" font-weight="400" font-style="normal" 
>
</g>

<g fill="none" stroke="#000000" stroke-opacity="1" stroke-width="1" stroke-linecap="square" stroke-linejoin="bevel" transform="matrix(1,0,0,-1,28065.4,45620.6)"
font-family="MS Shell Dlg 2" font-size="10.3125" font-weight="400" font-style="normal" 
>
</g>

<g fill="#ae5151" fill-opacity="0.2" stroke="#333333" stroke-opacity="1" stroke-width="1" stroke-linecap="round" stroke-linejoin="round" transform="matrix(1,0,0,-1,28065.4,45620.6)"
font-family="MS Shell Dlg 2" font-size="10.3125" font-weight="400" font-style="normal" 
>
<path vector-effect="non-scaling-stroke" fill-rule="evenodd" d="M-26464.9,4820.14 L-26468.7,4741.73 L-26480.2,4664.07 L-26499.3,4587.91 L-26525.7,4514 L-26559.3,4443.02 L-26599.7,4375.69 L-26646.4,4312.63 L-26699.2,4254.46 L-26757.3,4201.73 L-26820.4,4154.97 L-26887.7,4114.6 L-26958.7,4081.04 L-27032.6,4054.59 L-27108.8,4035.51 L-27186.4,4023.99 L-27264.9,4020.14 L-27343.3,4023.99 L-27420.9,4035.51 L-27497.1,4054.59 L-27571,4081.04 L-27642,4114.6 L-27709.3,4154.97 L-27772.4,4201.73 L-27830.5,4254.46 L-27883.3,4312.63 L-27930,4375.69 L-27970.4,4443.02 L-28004,4514 L-28030.4,4587.91 L-28049.5,4664.07 L-28061,4741.73 L-28064.9,4820.14 L-28061,4898.56 L-28049.5,4976.21 L-28030.4,5052.37 L-28004,5126.29 L-27970.4,5197.26 L-27930,5264.6 L-27883.3,5327.66 L-27830.5,5385.83 L-27772.4,5438.55 L-27709.3,5485.32 L-27642,5525.68 L-27571,5559.25 L-27497.1,5585.69 L-27420.9,5604.77 L-27343.3,5616.29 L-27264.9,5620.14 L-27186.4,5616.29 L-27108.8,5604.77 L-27032.6,5585.69 L-26958.7,5559.25 L-26887.7,5525.68 L-26820.4,5485.32 L-26757.3,5438.55 L-26699.2,5385.83 L-26646.4,5327.66 L-26599.7,5264.6 L-26559.3,5197.26 L-26525.7,5126.29 L-26499.3,5052.37 L-26480.2,4976.21 L-26468.7,4898.56 L-26464.9,4820.14"/>
</g>

<g fill="none" stroke="#000000" stroke-opacity="1" stroke-width="1" stroke-linecap="square" stroke-linejoin="bevel" transform="matrix(1,0,0,-1,28065.4,45620.6)"
font-family="MS Shell Dlg 2" font-size="10.3125" font-weight="400" font-style="normal" 
>
</g>

<g fill="none" stroke="#000000" stroke-opacity="1" stroke-width="1" stroke-linecap="square" stroke-linejoin="bevel" transform="matrix(1,0,0,-1,28065.4,45620.6)"
font-family="MS Shell Dlg 2" font-size="10.3125" font-weight="400" font-style="normal" 
>
</g>

<g fill="#ae5151" fill-opacity="0.2" stroke="#333333" stroke-opacity="1" stroke-width="1" stroke-linecap="round" stroke-linejoin="round" transform="matrix(1,0,0,-1,28065.4,45620.6)"
font-family="MS Shell Dlg 2" font-size="10.3125" font-weight="400" font-style="normal" 
>
<path vector-effect="non-scaling-stroke" fill-rule="evenodd" d="M53535.1,4820.14 L53531.3,4741.73 L53519.8,4664.07 L53500.7,4587.91 L53474.3,4514 L53440.7,4443.02 L53400.3,4375.69 L53353.6,4312.63 L53300.8,4254.46 L53242.7,4201.73 L53179.6,4154.97 L53112.3,4114.6 L53041.3,4081.04 L52967.4,4054.59 L52891.2,4035.51 L52813.6,4023.99 L52735.1,4020.14 L52656.7,4023.99 L52579.1,4035.51 L52502.9,4054.59 L52429,4081.04 L52358,4114.6 L52290.7,4154.97 L52227.6,4201.73 L52169.5,4254.46 L52116.7,4312.63 L52070,4375.69 L52029.6,4443.02 L51996,4514 L51969.6,4587.91 L51950.5,4664.07 L51939,4741.73 L51935.1,4820.14 L51939,4898.56 L51950.5,4976.21 L51969.6,5052.37 L51996,5126.29 L52029.6,5197.26 L52070,5264.6 L52116.7,5327.66 L52169.5,5385.83 L52227.6,5438.55 L52290.7,5485.32 L52358,5525.68 L52429,5559.25 L52502.9,5585.69 L52579.1,5604.77 L52656.7,5616.29 L52735.1,5620.14 L52813.6,5616.29 L52891.2,5604.77 L52967.4,5585.69 L53041.3,5559.25 L53112.3,5525.68 L53179.6,5485.32 L53242.7,5438.55 L53300.8,5385.83 L53353.6,5327.66 L53400.3,5264.6 L53440.7,5197.26 L53474.3,5126.29 L53500.7,5052.37 L53519.8,4976.21 L53531.3,4898.56 L53535.1,4820.14"/>
</g>

<g fill="none" stroke="#000000" stroke-opacity="1" stroke-width="1" stroke-linecap="square" stroke-linejoin="bevel" transform="matrix(1,0,0,-1,28065.4,45620.6)"
font-family="MS Shell Dlg 2" font-size="10.3125" font-weight="400" font-style="normal" 
>
</g>

<g fill="none" stroke="#000000" stroke-opacity="1" stroke-width="1" stroke-linecap="square" stroke-linejoin="bevel" transform="matrix(1,0,0,-1,28065.4,45620.6)"
font-family="MS Shell Dlg 2" font-size="10.3125" font-weight="400" font-style="normal" 
>
</g>

<g fill="#ae5151" fill-opacity="0.2" stroke="#333333" stroke-opacity="1" stroke-width="1" stroke-linecap="round" stroke-linejoin="round" transform="matrix(1,0,0,-1,28065.4,45620.6)"
font-family="MS Shell Dlg 2" font-size="10.3125" font-weight="400" font-style="normal" 
>
<path vector-effect="non-scaling-stroke" fill-rule="evenodd" d="M-26464.9,44820.1 L-26468.7,44741.7 L-26480.2,44664.1 L-26499.3,44587.9 L-26525.7,44514 L-26559.3,44443 L-26599.7,44375.7 L-26646.4,44312.6 L-26699.2,44254.5 L-26757.3,44201.7 L-26820.4,44155 L-26887.7,44114.6 L-26958.7,44081 L-27032.6,44054.6 L-27108.8,44035.5 L-27186.4,44024 L-27264.9,44020.1 L-27343.3,44024 L-27420.9,44035.5 L-27497.1,44054.6 L-27571,44081 L-27642,44114.6 L-27709.3,44155 L-27772.4,44201.7 L-27830.5,44254.5 L-27883.3,44312.6 L-27930,44375.7 L-27970.4,44443 L-28004,44514 L-28030.4,44587.9 L-28049.5,44664.1 L-28061,44741.7 L-28064.9,44820.1 L-28061,44898.6 L-28049.5,44976.2 L-28030.4,45052.4 L-28004,45126.3 L-27970.4,45197.3 L-27930,45264.6 L-27883.3,45327.7 L-27830.5,45385.8 L-27772.4,45438.6 L-27709.3,45485.3 L-27642,45525.7 L-27571,45559.2 L-27497.1,45585.7 L-27420.9,45604.8 L-27343.3,45616.3 L-27264.9,45620.1 L-27186.4,45616.3 L-27108.8,45604.8 L-27032.6,45585.7 L-26958.7,45559.2 L-26887.7,45525.7 L-26820.4,45485.3 L-26757.3,45438.6 L-26699.2,45385.8 L-26646.4,45327.7 L-26599.7,45264.6 L-26559.3,45197.3 L-26525.7,45126.3 L-26499.3,45052.4 L-26480.2,44976.2 L-26468.7,44898.6 L-26464.9,44820.1"/>
</g>

<g fill="none" stroke="#000000" stroke-opacity="1" stroke-width="1" stroke-linecap="square" stroke-linejoin="bevel" transform="matrix(1,0,0,-1,28065.4,45620.6)"
font-family="MS Shell Dlg 2" font-size="10.3125" font-weight="400" font-style="normal" 
>
</g>

<g fill="none" stroke="#000000" stroke-opacity="1" stroke-width="1" stroke-linecap="square" stroke-linejoin="bevel" transform="matrix(1,0,0,-1,28065.4,45620.6)"
font-family="MS Shell Dlg 2" font-size="10.3125" font-weight="400" font-style="normal" 
>
</g>

<g fill="#ae5151" fill-opacity="0.2" stroke="#333333" stroke-opacity="1" stroke-width="1" stroke-linecap="round" stroke-linejoin="round" transform="matrix(1,0,0,-1,28065.4,45620.6)"
font-family="MS Shell Dlg 2" font-size="10.3125" font-weight="400" font-style="normal" 
>
<path vector-effect="non-scaling-stroke" fill-rule="evenodd" d="M53535.1,44820.1 L53531.3,44741.7 L53519.8,44664.1 L53500.7,44587.9 L53474.3,44514 L53440.7,44443 L53400.3,44375.7 L53353.6,44312.6 L53300.8,44254.5 L53242.7,44201.7 L53179.6,44155 L53112.3,44114.6 L53041.3,44081 L52967.4,44054.6 L52891.2,44035.5 L52813.6,44024 L52735.1,44020.1 L52656.7,44024 L52579.1,44035.5 L52502.9,44054.6 L52429,44081 L52358,44114.6 L52290.7,44155 L52227.6,44201.7 L52169.5,44254.5 L52116.7,44312.6 L52070,44375.7 L52029.6,44443 L51996,44514 L51969.6,44587.9 L51950.5,44664.1 L51939,44741.7 L51935.1,44820.1 L51939,44898.6 L51950.5,44976.2 L51969.6,45052.4 L51996,45126.3 L52029.6,45197.3 L52070,45264.6 L52116.7,45327.7 L52169.5,45385.8 L52227.6,45438.6 L52290.7,45485.3 L52358,45525.7 L52429,45559.2 L52502.9,45585.7 L52579.1,45604.8 L52656.7,45616.3 L52735.1,45620.1 L52813.6,45616.3 L52891.2,45604.8 L52967.4,45585.7 L53041.3,45559.2 L53112.3,45525.7 L53179.6,45485.3 L53242.7,45438.6 L53300.8,45385.8 L53353.6,45327.7 L53400.3,45264.6 L53440.7,45197.3 L53474.3,45126.3 L53500.7,45052.4 L53519.8,44976.2 L53531.3,44898.6 L53535.1,44820.1"/>
</g>

<g fill="none" stroke="#000000" stroke-opacity="1" stroke-width="1" stroke-linecap="square" stroke-linejoin="bevel" transform="matrix(1,0,0,-1,28065.4,45620.6)"
font-family="MS Shell Dlg 2" font-size="10.3125" font-weight="400" font-style="normal" 
>
</g>

<g fill="none" stroke="#000000" stroke-opacity="1" stroke-width="1" stroke-linecap="square" stroke-linejoin="bevel" transform="matrix(1,0,0,-1,28065.4,45620.6)"
font-family="MS Shell Dlg 2" font-size="10.3125" font-weight="400" font-style="normal" 
>
</g>

<g fill="#333333" fill-opacity="0.2" stroke="#333333" stroke-opacity="1" stroke-width="1" stroke-linecap="round" stroke-linejoin="round" transform="matrix(1,0,0,-1,28065.4,45620.6)"
font-family="MS Shell Dlg 2" font-size="10.3125" font-weight="400" font-style="normal" 
>
<path vector-effect="non-scaling-stroke" fill-rule="evenodd" d="M-26464.9,4820.14 L-26468.7,4741.73 L-26480.2,4664.07 L-26499.3,4587.91 L-26525.7,4514 L-26559.3,4443.02 L-26599.7,4375.69 L-26646.4,4312.63 L-26699.2,4254.46 L-26757.3,4201.73 L-26820.4,4154.97 L-26887.7,4114.6 L-26958.7,4081.04 L-27032.6,4054.59 L-27108.8,4035.51 L-27186.4,4023.99 L-27264.9,4020.14 L-27343.3,4023.99 L-27420.9,4035.51 L-27497.1,4054.59 L-27571,4081.04 L-27642,4114.6 L-27709.3,4154.97 L-27772.4,4201.73 L-27830.5,4254.46 L-27883.3,4312.63 L-27930,4375.69 L-27970.4,4443.02 L-28004,4514 L-28030.4,4587.91 L-28049.5,4664.07 L-28061,4741.73 L-28064.9,4820.14 L-28061,4898.56 L-28049.5,4976.21 L-28030.4,5052.37 L-28004,5126.29 L-27970.4,5197.26 L-27930,5264.6 L-27883.3,5327.66 L-27830.5,5385.83 L-27772.4,5438.55 L-27709.3,5485.32 L-27642,5525.68 L-27571,5559.25 L-27497.1,5585.69 L-27420.9,5604.77 L-27343.3,5616.29 L-27264.9,5620.14 L-27186.4,5616.29 L-27108.8,5604.77 L-27032.6,5585.69 L-26958.7,5559.25 L-26887.7,5525.68 L-26820.4,5485.32 L-26757.3,5438.55 L-26699.2,5385.83 L-26646.4,5327.66 L-26599.7,5264.6 L-26559.3,5197.26 L-26525.7,5126.29 L-26499.3,5052.37 L-26480.2,4976.21 L-26468.7,4898.56 L-26464.9,4820.14"/>
</g>

<g fill="none" stroke="#000000" stroke-opacity="1" stroke-width="1" stroke-linecap="square" stroke-linejoin="bevel" transform="matrix(1,0,0,-1,28065.4,45620.6)"
font-family="MS Shell Dlg 2" font-size="10.3125" font-weight="400" font-style="normal" 
>
</g>

<g fill="none" stroke="#000000" stroke-opacity="1" stroke-width="1" stroke-linecap="square" stroke-linejoin="bevel" transform="matrix(1,0,0,-1,28065.4,45620.6)"
font-family="MS Shell Dlg 2" font-size="10.3125" font-weight="400" font-style="normal" 
>
</g>

<g fill="#333333" fill-opacity="0.2" stroke="#333333" stroke-opacity="1" stroke-width="1" stroke-linecap="round" stroke-linejoin="round" transform="matrix(1,0,0,-1,28065.4,45620.6)"
font-family="MS Shell Dlg 2" font-size="10.3125" font-weight="400" font-style="normal" 
>
<path vector-effect="non-scaling-stroke" fill-rule="evenodd" d="M53535.1,4820.14 L53531.3,4741.73 L53519.8,4664.07 L53500.7,4587.91 L53474.3,4514 L53440.7,4443.02 L53400.3,4375.69 L53353.6,4312.63 L53300.8,4254.46 L53242.7,4201.73 L53179.6,4154.97 L53112.3,4114.6 L53041.3,4081.04 L52967.4,4054.59 L52891.2,4035.51 L52813.6,4023.99 L52735.1,4020.14 L52656.7,4023.99 L52579.1,4035.51 L52502.9,4054.59 L52429,4081.04 L52358,4114.6 L52290.7,4154.97 L52227.6,4201.73 L52169.5,4254.46 L52116.7,4312.63 L52070,4375.69 L52029.6,4443.02 L51996,4514 L51969.6,4587.91 L51950.5,4664.07 L51939,4741.73 L51935.1,4820.14 L51939,4898.56 L51950.5,4976.21 L51969.6,5052.37 L51996,5126.29 L52029.6,5197.26 L52070,5264.6 L52116.7,5327.66 L52169.5,5385.83 L52227.6,5438.55 L52290.7,5485.32 L52358,5525.68 L52429,5559.25 L52502.9,5585.69 L52579.1,5604.77 L52656.7,5616.29 L52735.1,5620.14 L52813.6,5616.29 L52891.2,5604.77 L52967.4,5585.69 L53041.3,5559.25 L53112.3,5525.68 L53179.6,5485.32 L53242.7,5438.55 L53300.8,5385.83 L53353.6,5327.66 L53400.3,5264.6 L53440.7,5197.26 L53474.3,5126.29 L53500.7,5052.37 L53519.8,4976.21 L53531.3,4898.56 L53535.1,4820.14"/>
</g>

<g fill="none" stroke="#000000" stroke-opacity="1" stroke-width="1" stroke-linecap="square" stroke-linejoin="bevel" transform="matrix(1,0,0,-1,28065.4,45620.6)"
font-family="MS Shell Dlg 2" font-size="10.3125" font-weight="400" font-style="normal" 
>
</g>

<g fill="none" stroke="#000000" stroke-opacity="1" stroke-width="1" stroke-linecap="square" stroke-linejoin="bevel" transform="matrix(1,0,0,-1,28065.4,45620.6)"
font-family="MS Shell Dlg 2" font-size="10.3125" font-weight="400" font-style="normal" 
>
</g>

<g fill="#333333" fill-opacity="0.2" stroke="#333333" stroke-opacity="1" stroke-width="1" stroke-linecap="round" stroke-linejoin="round" transform="matrix(1,0,0,-1,28065.4,45620.6)"
font-family="MS Shell Dlg 2" font-size="10.3125" font-weight="400" font-style="normal" 
>
<path vector-effect="non-scaling-stroke" fill-rule="evenodd" d="M-26464.9,44820.1 L-26468.7,44741.7 L-26480.2,44664.1 L-26499.3,44587.9 L-26525.7,44514 L-26559.3,44443 L-26599.7,44375.7 L-26646.4,44312.6 L-26699.2,44254.5 L-26757.3,44201.7 L-26820.4,44155 L-26887.7,44114.6 L-26958.7,44081 L-27032.6,44054.6 L-27108.8,44035.5 L-27186.4,44024 L-27264.9,44020.1 L-27343.3,44024 L-27420.9,44035.5 L-27497.1,44054.6 L-27571,44081 L-27642,44114.6 L-27709.3,44155 L-27772.4,44201.7 L-27830.5,44254.5 L-27883.3,44312.6 L-27930,44375.7 L-27970.4,44443 L-28004,44514 L-28030.4,44587.9 L-28049.5,44664.1 L-28061,44741.7 L-28064.9,44820.1 L-28061,44898.6 L-28049.5,44976.2 L-28030.4,45052.4 L-28004,45126.3 L-27970.4,45197.3 L-27930,45264.6 L-27883.3,45327.7 L-27830.5,45385.8 L-27772.4,45438.6 L-27709.3,45485.3 L-27642,45525.7 L-27571,45559.2 L-27497.1,45585.7 L-27420.9,45604.8 L-27343.3,45616.3 L-27264.9,45620.1 L-27186.4,45616.3 L-27108.8,45604.8 L-27032.6,45585.7 L-26958.7,45559.2 L-26887.7,45525.7 L-26820.4,45485.3 L-26757.3,45438.6 L-26699.2,45385.8 L-26646.4,45327.7 L-26599.7,45264.6 L-26559.3,45197.3 L-26525.7,45126.3 L-26499.3,45052.4 L-26480.2,44976.2 L-26468.7,44898.6 L-26464.9,44820.1"/>
</g>

<g fill="none" stroke="#000000" stroke-opacity="1" stroke-width="1" stroke-linecap="square" stroke-linejoin="bevel" transform="matrix(1,0,0,-1,28065.4,45620.6)"
font-family="MS Shell Dlg 2" font-size="10.3125" font-weight="400" font-style="normal" 
>
</g>

<g fill="none" stroke="#000000" stroke-opacity="1" stroke-width="1" stroke-linecap="square" stroke-linejoin="bevel" transform="matrix(1,0,0,-1,28065.4,45620.6)"
font-family="MS Shell Dlg 2" font-size="10.3125" font-weight="400" font-style="normal" 
>
</g>

<g fill="#333333" fill-opacity="0.2" stroke="#333333" stroke-opacity="1" stroke-width="1" stroke-linecap="round" stroke-linejoin="round" transform="matrix(1,0,0,-1,28065.4,45620.6)"
font-family="MS Shell Dlg 2" font-size="10.3125" font-weight="400" font-style="normal" 
>
<path vector-effect="non-scaling-stroke" fill-rule="evenodd" d="M53535.1,44820.1 L53531.3,44741.7 L53519.8,44664.1 L53500.7,44587.9 L53474.3,44514 L53440.7,44443 L53400.3,44375.7 L53353.6,44312.6 L53300.8,44254.5 L53242.7,44201.7 L53179.6,44155 L53112.3,44114.6 L53041.3,44081 L52967.4,44054.6 L52891.2,44035.5 L52813.6,44024 L52735.1,44020.1 L52656.7,44024 L52579.1,44035.5 L52502.9,44054.6 L52429,44081 L52358,44114.6 L52290.7,44155 L52227.6,44201.7 L52169.5,44254.5 L52116.7,44312.6 L52070,44375.7 L52029.6,44443 L51996,44514 L51969.6,44587.9 L51950.5,44664.1 L51939,44741.7 L51935.1,44820.1 L51939,44898.6 L51950.5,44976.2 L51969.6,45052.4 L51996,45126.3 L52029.6,45197.3 L52070,45264.6 L52116.7,45327.7 L52169.5,45385.8 L52227.6,45438.6 L52290.7,45485.3 L52358,45525.7 L52429,45559.2 L52502.9,45585.7 L52579.1,45604.8 L52656.7,45616.3 L52735.1,45620.1 L52813.6,45616.3 L52891.2,45604.8 L52967.4,45585.7 L53041.3,45559.2 L53112.3,45525.7 L53179.6,45485.3 L53242.7,45438.6 L53300.8,45385.8 L53353.6,45327.7 L53400.3,45264.6 L53440.7,45197.3 L53474.3,45126.3 L53500.7,45052.4 L53519.8,44976.2 L53531.3,44898.6 L53535.1,44820.1"/>
</g>

<g fill="none" stroke="#000000" stroke-opacity="1" stroke-width="1" stroke-linecap="square" stroke-linejoin="bevel" transform="matrix(1,0,0,-1,28065.4,45620.6)"
font-family="MS Shell Dlg 2" font-size="10.3125" font-weight="400" font-style="normal" 
>
</g>

<g fill="none" stroke="#000000" stroke-opacity="1" stroke-width="1" stroke-linecap="square" stroke-linejoin="bevel" transform="matrix(1,0,0,-1,0,41601)"
font-family="MS Shell Dlg 2" font-size="10.3125" font-weight="400" font-style="normal" 
>
</g>
</g>
</svg>
