<?xml version="1.0" encoding="UTF-8" standalone="no"?>
<svg width="11737.1mm" height="4341.99mm"
 xmlns="http://www.w3.org/2000/svg" xmlns:xlink="http://www.w3.org/1999/xlink"  version="1.2" baseProfile="tiny">
<title>SVG Generator Example Drawing</title>
<desc>An SVG drawing created by the SVG Generator</desc>
<defs>
</defs>
<g fill="none" stroke="black" stroke-width="1" fill-rule="evenodd" stroke-linecap="square" stroke-linejoin="bevel" >

<g fill="none" stroke="#000000" stroke-opacity="1" stroke-width="1" stroke-linecap="square" stroke-linejoin="bevel" transform="matrix(1,0,0,-1,0,15385.2)"
font-family="MS Shell Dlg 2" font-size="10.3125" font-weight="400" font-style="normal" 
>
</g>

<g fill="none" stroke="#000000" stroke-opacity="1" stroke-width="1" stroke-linecap="square" stroke-linejoin="bevel" transform="matrix(1,0,0,-1,0,15385.2)"
font-family="MS Shell Dlg 2" font-size="10.3125" font-weight="400" font-style="normal" 
>
</g>

<g fill="none" stroke="#000000" stroke-opacity="1" stroke-width="1" stroke-linecap="square" stroke-linejoin="bevel" transform="matrix(0.999981,0,0,-0.999981,52305.3,21491.3)"
font-family="MS Shell Dlg 2" font-size="10.3125" font-weight="400" font-style="normal" 
>
</g>

<g fill="#333333" fill-opacity="0.2" stroke="#333333" stroke-opacity="1" stroke-width="1" stroke-linecap="round" stroke-linejoin="round" transform="matrix(0.999981,0,0,-0.999981,52305.3,21491.3)"
font-family="MS Shell Dlg 2" font-size="10.3125" font-weight="400" font-style="normal" 
>
<path vector-effect="non-scaling-stroke" fill-rule="evenodd" d="M-35718,16106.7 L-30718,20531.2 L-25718,20531.2 L-20718,16106.7 L-15718,16106.7 L-10718,21490.9 L-10718,10964.7 L-15718,15106.7 L-20718,14106.7 L-25718,13106.7 L-30718,11106.7 L-35718,9106.73 L-40718,6106.73 L-45223.2,6106.73 L-51760.3,9952.71 L-45869.4,11009.8 L-52305.8,12495.6 L-46121.1,16106.7 L-35718,16106.7"/>
</g>

<g fill="none" stroke="#000000" stroke-opacity="1" stroke-width="1" stroke-linecap="square" stroke-linejoin="bevel" transform="matrix(0.999981,0,0,-0.999981,52305.3,21491.3)"
font-family="MS Shell Dlg 2" font-size="10.3125" font-weight="400" font-style="normal" 
>
</g>

<g fill="none" stroke="#000000" stroke-opacity="1" stroke-width="1" stroke-linecap="square" stroke-linejoin="bevel" transform="matrix(0.999981,0,0,-0.999981,52305.3,21491.3)"
font-family="MS Shell Dlg 2" font-size="10.3125" font-weight="400" font-style="normal" 
>
</g>

<g fill="#ae5151" fill-opacity="0.2" stroke="#333333" stroke-opacity="1" stroke-width="1" stroke-linecap="round" stroke-linejoin="round" transform="matrix(0.999981,0,0,-0.999981,52305.3,21491.3)"
font-family="MS Shell Dlg 2" font-size="10.3125" font-weight="400" font-style="normal" 
>
<path vector-effect="non-scaling-stroke" fill-rule="evenodd" d="M-35718,16106.7 L-30718,20531.2 L-25718,20531.2 L-20718,16106.7 L-15718,16106.7 L-10718,21490.9 L-10718,10964.7 L-15718,15106.7 L-20718,14106.7 L-25718,13106.7 L-30718,11106.7 L-35718,9106.73 L-40718,6106.73 L-45223.2,6106.73 L-51760.3,9952.71 L-45869.4,11009.8 L-52305.8,12495.6 L-46121.1,16106.7 L-35718,16106.7"/>
</g>

<g fill="none" stroke="#000000" stroke-opacity="1" stroke-width="1" stroke-linecap="square" stroke-linejoin="bevel" transform="matrix(0.999981,0,0,-0.999981,52305.3,21491.3)"
font-family="MS Shell Dlg 2" font-size="10.3125" font-weight="400" font-style="normal" 
>
</g>

<g fill="none" stroke="#000000" stroke-opacity="1" stroke-width="1" stroke-linecap="square" stroke-linejoin="bevel" transform="matrix(0.999981,0,0,-0.999981,52305.3,21491.3)"
font-family="MS Shell Dlg 2" font-size="10.3125" font-weight="400" font-style="normal" 
>
</g>

<g fill="#ffff00" fill-opacity="0.2" stroke="#333333" stroke-opacity="1" stroke-width="1" stroke-linecap="round" stroke-linejoin="round" transform="matrix(0.999981,0,0,-0.999981,52305.3,21491.3)"
font-family="MS Shell Dlg 2" font-size="10.3125" font-weight="400" font-style="normal" 
>
<path vector-effect="non-scaling-stroke" fill-rule="evenodd" d="M-35718,16106.7 L-30718,20531.2 L-25718,20531.2 L-20718,16106.7 L-15718,16106.7 L-10718,21490.9 L-10718,10964.7 L-15718,15106.7 L-20718,14106.7 L-25718,13106.7 L-30718,11106.7 L-35718,9106.73 L-40718,6106.73 L-45223.2,6106.73 L-51760.3,9952.71 L-45869.4,11009.8 L-52305.8,12495.6 L-46121.1,16106.7 L-35718,16106.7"/>
</g>

<g fill="none" stroke="#000000" stroke-opacity="1" stroke-width="1" stroke-linecap="square" stroke-linejoin="bevel" transform="matrix(0.999981,0,0,-0.999981,52305.3,21491.3)"
font-family="MS Shell Dlg 2" font-size="10.3125" font-weight="400" font-style="normal" 
>
</g>

<g fill="none" stroke="#000000" stroke-opacity="1" stroke-width="1" stroke-linecap="square" stroke-linejoin="bevel" transform="matrix(0.999981,0,0,-0.999981,52305.3,21491.3)"
font-family="MS Shell Dlg 2" font-size="10.3125" font-weight="400" font-style="normal" 
>
</g>

<g fill="#ae5151" fill-opacity="0.2" stroke="#333333" stroke-opacity="1" stroke-width="1" stroke-linecap="round" stroke-linejoin="round" transform="matrix(0.999981,0,0,-0.999981,52305.3,21491.3)"
font-family="MS Shell Dlg 2" font-size="10.3125" font-weight="400" font-style="normal" 
>
<path vector-effect="non-scaling-stroke" fill-rule="evenodd" d="M-35718,16106.7 L-30718,20531.2 L-25718,20531.2 L-20718,16106.7 L-15718,16106.7 L-10718,21490.9 L-10718,10964.7 L-15718,15106.7 L-20718,14106.7 L-25718,13106.7 L-30718,11106.7 L-35718,9106.73 L-40718,6106.73 L-45223.2,6106.73 L-51760.3,9952.71 L-45869.4,11009.8 L-52305.8,12495.6 L-46121.1,16106.7 L-35718,16106.7"/>
</g>

<g fill="none" stroke="#000000" stroke-opacity="1" stroke-width="1" stroke-linecap="square" stroke-linejoin="bevel" transform="matrix(0.999981,0,0,-0.999981,52305.3,21491.3)"
font-family="MS Shell Dlg 2" font-size="10.3125" font-weight="400" font-style="normal" 
>
</g>

<g fill="none" stroke="#000000" stroke-opacity="1" stroke-width="1" stroke-linecap="square" stroke-linejoin="bevel" transform="matrix(0.999981,0,0,-0.999981,52305.3,21491.3)"
font-family="MS Shell Dlg 2" font-size="10.3125" font-weight="400" font-style="normal" 
>
</g>

<g fill="#333333" fill-opacity="0.2" stroke="#333333" stroke-opacity="1" stroke-width="1" stroke-linecap="round" stroke-linejoin="round" transform="matrix(0.999981,0,0,-0.999981,52305.3,21491.3)"
font-family="MS Shell Dlg 2" font-size="10.3125" font-weight="400" font-style="normal" 
>
<path vector-effect="non-scaling-stroke" fill-rule="evenodd" d="M-35718,16106.7 L-30718,20531.2 L-25718,20531.2 L-20718,16106.7 L-15718,16106.7 L-10718,21490.9 L-10718,10964.7 L-15718,15106.7 L-20718,14106.7 L-25718,13106.7 L-30718,11106.7 L-35718,9106.73 L-40718,6106.73 L-45223.2,6106.73 L-51760.3,9952.71 L-45869.4,11009.8 L-52305.8,12495.6 L-46121.1,16106.7 L-35718,16106.7"/>
</g>

<g fill="none" stroke="#000000" stroke-opacity="1" stroke-width="1" stroke-linecap="square" stroke-linejoin="bevel" transform="matrix(0.999981,0,0,-0.999981,52305.3,21491.3)"
font-family="MS Shell Dlg 2" font-size="10.3125" font-weight="400" font-style="normal" 
>
</g>

<g fill="none" stroke="#000000" stroke-opacity="1" stroke-width="1" stroke-linecap="square" stroke-linejoin="bevel" transform="matrix(1,0,0,-1,0,15385.2)"
font-family="MS Shell Dlg 2" font-size="10.3125" font-weight="400" font-style="normal" 
>
</g>
</g>
</svg>
