<?xml version="1.0" encoding="UTF-8" standalone="no"?>
<svg width="7216.42mm" height="3355.06mm"
 xmlns="http://www.w3.org/2000/svg" xmlns:xlink="http://www.w3.org/1999/xlink"  version="1.2" baseProfile="tiny">
<title>SVG Generator Example Drawing</title>
<desc>An SVG drawing created by the SVG Generator</desc>
<defs>
</defs>
<g fill="none" stroke="black" stroke-width="1" fill-rule="evenodd" stroke-linecap="square" stroke-linejoin="bevel" >

<g fill="none" stroke="#000000" stroke-opacity="1" stroke-width="1" stroke-linecap="square" stroke-linejoin="bevel" transform="matrix(1,0,0,-1,0,11888.4)"
font-family="MS Shell Dlg 2" font-size="10.3125" font-weight="400" font-style="normal" 
>
</g>

<g fill="none" stroke="#000000" stroke-opacity="1" stroke-width="1" stroke-linecap="square" stroke-linejoin="bevel" transform="matrix(1,0,0,-1,0,11888.4)"
font-family="MS Shell Dlg 2" font-size="10.3125" font-weight="400" font-style="normal" 
>
</g>

<g fill="none" stroke="#000000" stroke-opacity="1" stroke-width="1" stroke-linecap="square" stroke-linejoin="bevel" transform="matrix(0.999964,0,0,-0.999964,41001.4,17050.8)"
font-family="MS Shell Dlg 2" font-size="10.3125" font-weight="400" font-style="normal" 
>
</g>

<g fill="#333333" fill-opacity="0.2" stroke="#333333" stroke-opacity="1" stroke-width="1" stroke-linecap="round" stroke-linejoin="round" transform="matrix(0.999964,0,0,-0.999964,41001.4,17050.8)"
font-family="MS Shell Dlg 2" font-size="10.3125" font-weight="400" font-style="normal" 
>
<path vector-effect="non-scaling-stroke" fill-rule="evenodd" d="M-40433.1,17050.4 L-41002.4,17050.4 L-41002.4,5163.01 L-40433.1,5163.01 L-40433.1,17050.4"/>
</g>

<g fill="none" stroke="#000000" stroke-opacity="1" stroke-width="1" stroke-linecap="square" stroke-linejoin="bevel" transform="matrix(0.999964,0,0,-0.999964,41001.4,17050.8)"
font-family="MS Shell Dlg 2" font-size="10.3125" font-weight="400" font-style="normal" 
>
</g>

<g fill="none" stroke="#000000" stroke-opacity="1" stroke-width="1" stroke-linecap="square" stroke-linejoin="bevel" transform="matrix(0.999964,0,0,-0.999964,41001.4,17050.8)"
font-family="MS Shell Dlg 2" font-size="10.3125" font-weight="400" font-style="normal" 
>
</g>

<g fill="#333333" fill-opacity="0.2" stroke="#333333" stroke-opacity="1" stroke-width="1" stroke-linecap="round" stroke-linejoin="round" transform="matrix(0.999964,0,0,-0.999964,41001.4,17050.8)"
font-family="MS Shell Dlg 2" font-size="10.3125" font-weight="400" font-style="normal" 
>
<path vector-effect="non-scaling-stroke" fill-rule="evenodd" d="M-15433.1,16201.1 L-16002.4,16201.1 L-16002.4,15012.4 L-15433.1,15012.4 L-15433.1,16201.1"/>
</g>

<g fill="none" stroke="#000000" stroke-opacity="1" stroke-width="1" stroke-linecap="square" stroke-linejoin="bevel" transform="matrix(0.999964,0,0,-0.999964,41001.4,17050.8)"
font-family="MS Shell Dlg 2" font-size="10.3125" font-weight="400" font-style="normal" 
>
</g>

<g fill="none" stroke="#000000" stroke-opacity="1" stroke-width="1" stroke-linecap="square" stroke-linejoin="bevel" transform="matrix(0.999964,0,0,-0.999964,41001.4,17050.8)"
font-family="MS Shell Dlg 2" font-size="10.3125" font-weight="400" font-style="normal" 
>
</g>

<g fill="#333333" fill-opacity="0.2" stroke="#333333" stroke-opacity="1" stroke-width="1" stroke-linecap="round" stroke-linejoin="round" transform="matrix(0.999964,0,0,-0.999964,41001.4,17050.8)"
font-family="MS Shell Dlg 2" font-size="10.3125" font-weight="400" font-style="normal" 
>
<path vector-effect="non-scaling-stroke" fill-rule="evenodd" d="M-36002.4,16391.6 L-36002.4,16767.3 L-35433.1,16767.3 L-35433.1,16391.6 L-31002.4,16391.6 L-31002.4,16578.6 L-30433.1,16578.6 L-30433.1,16391.6 L-19302.4,16391.6 L-19302.4,15822.3 L-20433.1,15822.3 L-20433.1,13918 L-21002.4,13918 L-21002.4,15822.3 L-25433.1,15822.3 L-25433.1,12823.6 L-26002.4,12823.6 L-26002.4,15822.3 L-30433.1,15822.3 L-30433.1,10634.9 L-31002.4,10634.9 L-31002.4,15822.3 L-35433.1,15822.3 L-35433.1,8446.12 L-36002.4,8446.12 L-36002.4,15822.3 L-37133.5,15822.3 L-37133.5,16391.6 L-36002.4,16391.6"/>
</g>

<g fill="none" stroke="#000000" stroke-opacity="1" stroke-width="1" stroke-linecap="square" stroke-linejoin="bevel" transform="matrix(0.999964,0,0,-0.999964,41001.4,17050.8)"
font-family="MS Shell Dlg 2" font-size="10.3125" font-weight="400" font-style="normal" 
>
</g>

<g fill="none" stroke="#000000" stroke-opacity="1" stroke-width="1" stroke-linecap="square" stroke-linejoin="bevel" transform="matrix(0.999964,0,0,-0.999964,41001.4,17050.8)"
font-family="MS Shell Dlg 2" font-size="10.3125" font-weight="400" font-style="normal" 
>
</g>

<g fill="#ae5151" fill-opacity="0.2" stroke="#333333" stroke-opacity="1" stroke-width="1" stroke-linecap="round" stroke-linejoin="round" transform="matrix(0.999964,0,0,-0.999964,41001.4,17050.8)"
font-family="MS Shell Dlg 2" font-size="10.3125" font-weight="400" font-style="normal" 
>
<path vector-effect="non-scaling-stroke" fill-rule="evenodd" d="M-40433.1,17050.4 L-41002.4,17050.4 L-41002.4,5163.01 L-40433.1,5163.01 L-40433.1,17050.4"/>
</g>

<g fill="none" stroke="#000000" stroke-opacity="1" stroke-width="1" stroke-linecap="square" stroke-linejoin="bevel" transform="matrix(0.999964,0,0,-0.999964,41001.4,17050.8)"
font-family="MS Shell Dlg 2" font-size="10.3125" font-weight="400" font-style="normal" 
>
</g>

<g fill="none" stroke="#000000" stroke-opacity="1" stroke-width="1" stroke-linecap="square" stroke-linejoin="bevel" transform="matrix(0.999964,0,0,-0.999964,41001.4,17050.8)"
font-family="MS Shell Dlg 2" font-size="10.3125" font-weight="400" font-style="normal" 
>
</g>

<g fill="#ae5151" fill-opacity="0.2" stroke="#333333" stroke-opacity="1" stroke-width="1" stroke-linecap="round" stroke-linejoin="round" transform="matrix(0.999964,0,0,-0.999964,41001.4,17050.8)"
font-family="MS Shell Dlg 2" font-size="10.3125" font-weight="400" font-style="normal" 
>
<path vector-effect="non-scaling-stroke" fill-rule="evenodd" d="M-15433.1,16201.1 L-16002.4,16201.1 L-16002.4,15012.4 L-15433.1,15012.4 L-15433.1,16201.1"/>
</g>

<g fill="none" stroke="#000000" stroke-opacity="1" stroke-width="1" stroke-linecap="square" stroke-linejoin="bevel" transform="matrix(0.999964,0,0,-0.999964,41001.4,17050.8)"
font-family="MS Shell Dlg 2" font-size="10.3125" font-weight="400" font-style="normal" 
>
</g>

<g fill="none" stroke="#000000" stroke-opacity="1" stroke-width="1" stroke-linecap="square" stroke-linejoin="bevel" transform="matrix(0.999964,0,0,-0.999964,41001.4,17050.8)"
font-family="MS Shell Dlg 2" font-size="10.3125" font-weight="400" font-style="normal" 
>
</g>

<g fill="#ae5151" fill-opacity="0.2" stroke="#333333" stroke-opacity="1" stroke-width="1" stroke-linecap="round" stroke-linejoin="round" transform="matrix(0.999964,0,0,-0.999964,41001.4,17050.8)"
font-family="MS Shell Dlg 2" font-size="10.3125" font-weight="400" font-style="normal" 
>
<path vector-effect="non-scaling-stroke" fill-rule="evenodd" d="M-36002.4,16391.6 L-36002.4,16767.3 L-35433.1,16767.3 L-35433.1,16391.6 L-31002.4,16391.6 L-31002.4,16578.6 L-30433.1,16578.6 L-30433.1,16391.6 L-19302.4,16391.6 L-19302.4,15822.3 L-20433.1,15822.3 L-20433.1,13918 L-21002.4,13918 L-21002.4,15822.3 L-25433.1,15822.3 L-25433.1,12823.6 L-26002.4,12823.6 L-26002.4,15822.3 L-30433.1,15822.3 L-30433.1,10634.9 L-31002.4,10634.9 L-31002.4,15822.3 L-35433.1,15822.3 L-35433.1,8446.12 L-36002.4,8446.12 L-36002.4,15822.3 L-37133.5,15822.3 L-37133.5,16391.6 L-36002.4,16391.6"/>
</g>

<g fill="none" stroke="#000000" stroke-opacity="1" stroke-width="1" stroke-linecap="square" stroke-linejoin="bevel" transform="matrix(0.999964,0,0,-0.999964,41001.4,17050.8)"
font-family="MS Shell Dlg 2" font-size="10.3125" font-weight="400" font-style="normal" 
>
</g>

<g fill="none" stroke="#000000" stroke-opacity="1" stroke-width="1" stroke-linecap="square" stroke-linejoin="bevel" transform="matrix(0.999964,0,0,-0.999964,41001.4,17050.8)"
font-family="MS Shell Dlg 2" font-size="10.3125" font-weight="400" font-style="normal" 
>
</g>

<g fill="#ffff00" fill-opacity="0.2" stroke="#333333" stroke-opacity="1" stroke-width="1" stroke-linecap="round" stroke-linejoin="round" transform="matrix(0.999964,0,0,-0.999964,41001.4,17050.8)"
font-family="MS Shell Dlg 2" font-size="10.3125" font-weight="400" font-style="normal" 
>
<path vector-effect="non-scaling-stroke" fill-rule="evenodd" d="M-40433.1,17050.4 L-41002.4,17050.4 L-41002.4,5163.01 L-40433.1,5163.01 L-40433.1,17050.4"/>
</g>

<g fill="none" stroke="#000000" stroke-opacity="1" stroke-width="1" stroke-linecap="square" stroke-linejoin="bevel" transform="matrix(0.999964,0,0,-0.999964,41001.4,17050.8)"
font-family="MS Shell Dlg 2" font-size="10.3125" font-weight="400" font-style="normal" 
>
</g>

<g fill="none" stroke="#000000" stroke-opacity="1" stroke-width="1" stroke-linecap="square" stroke-linejoin="bevel" transform="matrix(0.999964,0,0,-0.999964,41001.4,17050.8)"
font-family="MS Shell Dlg 2" font-size="10.3125" font-weight="400" font-style="normal" 
>
</g>

<g fill="#ffff00" fill-opacity="0.2" stroke="#333333" stroke-opacity="1" stroke-width="1" stroke-linecap="round" stroke-linejoin="round" transform="matrix(0.999964,0,0,-0.999964,41001.4,17050.8)"
font-family="MS Shell Dlg 2" font-size="10.3125" font-weight="400" font-style="normal" 
>
<path vector-effect="non-scaling-stroke" fill-rule="evenodd" d="M-15433.1,16201.1 L-16002.4,16201.1 L-16002.4,15012.4 L-15433.1,15012.4 L-15433.1,16201.1"/>
</g>

<g fill="none" stroke="#000000" stroke-opacity="1" stroke-width="1" stroke-linecap="square" stroke-linejoin="bevel" transform="matrix(0.999964,0,0,-0.999964,41001.4,17050.8)"
font-family="MS Shell Dlg 2" font-size="10.3125" font-weight="400" font-style="normal" 
>
</g>

<g fill="none" stroke="#000000" stroke-opacity="1" stroke-width="1" stroke-linecap="square" stroke-linejoin="bevel" transform="matrix(0.999964,0,0,-0.999964,41001.4,17050.8)"
font-family="MS Shell Dlg 2" font-size="10.3125" font-weight="400" font-style="normal" 
>
</g>

<g fill="#ffff00" fill-opacity="0.2" stroke="#333333" stroke-opacity="1" stroke-width="1" stroke-linecap="round" stroke-linejoin="round" transform="matrix(0.999964,0,0,-0.999964,41001.4,17050.8)"
font-family="MS Shell Dlg 2" font-size="10.3125" font-weight="400" font-style="normal" 
>
<path vector-effect="non-scaling-stroke" fill-rule="evenodd" d="M-36002.4,16391.6 L-36002.4,16767.3 L-35433.1,16767.3 L-35433.1,16391.6 L-31002.4,16391.6 L-31002.4,16578.6 L-30433.1,16578.6 L-30433.1,16391.6 L-19302.4,16391.6 L-19302.4,15822.3 L-20433.1,15822.3 L-20433.1,13918 L-21002.4,13918 L-21002.4,15822.3 L-25433.1,15822.3 L-25433.1,12823.6 L-26002.4,12823.6 L-26002.4,15822.3 L-30433.1,15822.3 L-30433.1,10634.9 L-31002.4,10634.9 L-31002.4,15822.3 L-35433.1,15822.3 L-35433.1,8446.12 L-36002.4,8446.12 L-36002.4,15822.3 L-37133.5,15822.3 L-37133.5,16391.6 L-36002.4,16391.6"/>
</g>

<g fill="none" stroke="#000000" stroke-opacity="1" stroke-width="1" stroke-linecap="square" stroke-linejoin="bevel" transform="matrix(0.999964,0,0,-0.999964,41001.4,17050.8)"
font-family="MS Shell Dlg 2" font-size="10.3125" font-weight="400" font-style="normal" 
>
</g>

<g fill="none" stroke="#000000" stroke-opacity="1" stroke-width="1" stroke-linecap="square" stroke-linejoin="bevel" transform="matrix(0.999964,0,0,-0.999964,41001.4,17050.8)"
font-family="MS Shell Dlg 2" font-size="10.3125" font-weight="400" font-style="normal" 
>
</g>

<g fill="#ae5151" fill-opacity="0.2" stroke="#333333" stroke-opacity="1" stroke-width="1" stroke-linecap="round" stroke-linejoin="round" transform="matrix(0.999964,0,0,-0.999964,41001.4,17050.8)"
font-family="MS Shell Dlg 2" font-size="10.3125" font-weight="400" font-style="normal" 
>
<path vector-effect="non-scaling-stroke" fill-rule="evenodd" d="M-40433.1,17050.4 L-41002.4,17050.4 L-41002.4,5163.01 L-40433.1,5163.01 L-40433.1,17050.4"/>
</g>

<g fill="none" stroke="#000000" stroke-opacity="1" stroke-width="1" stroke-linecap="square" stroke-linejoin="bevel" transform="matrix(0.999964,0,0,-0.999964,41001.4,17050.8)"
font-family="MS Shell Dlg 2" font-size="10.3125" font-weight="400" font-style="normal" 
>
</g>

<g fill="none" stroke="#000000" stroke-opacity="1" stroke-width="1" stroke-linecap="square" stroke-linejoin="bevel" transform="matrix(0.999964,0,0,-0.999964,41001.4,17050.8)"
font-family="MS Shell Dlg 2" font-size="10.3125" font-weight="400" font-style="normal" 
>
</g>

<g fill="#ae5151" fill-opacity="0.2" stroke="#333333" stroke-opacity="1" stroke-width="1" stroke-linecap="round" stroke-linejoin="round" transform="matrix(0.999964,0,0,-0.999964,41001.4,17050.8)"
font-family="MS Shell Dlg 2" font-size="10.3125" font-weight="400" font-style="normal" 
>
<path vector-effect="non-scaling-stroke" fill-rule="evenodd" d="M-15433.1,16201.1 L-16002.4,16201.1 L-16002.4,15012.4 L-15433.1,15012.4 L-15433.1,16201.1"/>
</g>

<g fill="none" stroke="#000000" stroke-opacity="1" stroke-width="1" stroke-linecap="square" stroke-linejoin="bevel" transform="matrix(0.999964,0,0,-0.999964,41001.4,17050.8)"
font-family="MS Shell Dlg 2" font-size="10.3125" font-weight="400" font-style="normal" 
>
</g>

<g fill="none" stroke="#000000" stroke-opacity="1" stroke-width="1" stroke-linecap="square" stroke-linejoin="bevel" transform="matrix(0.999964,0,0,-0.999964,41001.4,17050.8)"
font-family="MS Shell Dlg 2" font-size="10.3125" font-weight="400" font-style="normal" 
>
</g>

<g fill="#ae5151" fill-opacity="0.2" stroke="#333333" stroke-opacity="1" stroke-width="1" stroke-linecap="round" stroke-linejoin="round" transform="matrix(0.999964,0,0,-0.999964,41001.4,17050.8)"
font-family="MS Shell Dlg 2" font-size="10.3125" font-weight="400" font-style="normal" 
>
<path vector-effect="non-scaling-stroke" fill-rule="evenodd" d="M-36002.4,16391.6 L-36002.4,16767.3 L-35433.1,16767.3 L-35433.1,16391.6 L-31002.4,16391.6 L-31002.4,16578.6 L-30433.1,16578.6 L-30433.1,16391.6 L-19302.4,16391.6 L-19302.4,15822.3 L-20433.1,15822.3 L-20433.1,13918 L-21002.4,13918 L-21002.4,15822.3 L-25433.1,15822.3 L-25433.1,12823.6 L-26002.4,12823.6 L-26002.4,15822.3 L-30433.1,15822.3 L-30433.1,10634.9 L-31002.4,10634.9 L-31002.4,15822.3 L-35433.1,15822.3 L-35433.1,8446.12 L-36002.4,8446.12 L-36002.4,15822.3 L-37133.5,15822.3 L-37133.5,16391.6 L-36002.4,16391.6"/>
</g>

<g fill="none" stroke="#000000" stroke-opacity="1" stroke-width="1" stroke-linecap="square" stroke-linejoin="bevel" transform="matrix(0.999964,0,0,-0.999964,41001.4,17050.8)"
font-family="MS Shell Dlg 2" font-size="10.3125" font-weight="400" font-style="normal" 
>
</g>

<g fill="none" stroke="#000000" stroke-opacity="1" stroke-width="1" stroke-linecap="square" stroke-linejoin="bevel" transform="matrix(0.999964,0,0,-0.999964,41001.4,17050.8)"
font-family="MS Shell Dlg 2" font-size="10.3125" font-weight="400" font-style="normal" 
>
</g>

<g fill="#333333" fill-opacity="0.2" stroke="#333333" stroke-opacity="1" stroke-width="1" stroke-linecap="round" stroke-linejoin="round" transform="matrix(0.999964,0,0,-0.999964,41001.4,17050.8)"
font-family="MS Shell Dlg 2" font-size="10.3125" font-weight="400" font-style="normal" 
>
<path vector-effect="non-scaling-stroke" fill-rule="evenodd" d="M-40433.1,17050.4 L-41002.4,17050.4 L-41002.4,5163.01 L-40433.1,5163.01 L-40433.1,17050.4"/>
</g>

<g fill="none" stroke="#000000" stroke-opacity="1" stroke-width="1" stroke-linecap="square" stroke-linejoin="bevel" transform="matrix(0.999964,0,0,-0.999964,41001.4,17050.8)"
font-family="MS Shell Dlg 2" font-size="10.3125" font-weight="400" font-style="normal" 
>
</g>

<g fill="none" stroke="#000000" stroke-opacity="1" stroke-width="1" stroke-linecap="square" stroke-linejoin="bevel" transform="matrix(0.999964,0,0,-0.999964,41001.4,17050.8)"
font-family="MS Shell Dlg 2" font-size="10.3125" font-weight="400" font-style="normal" 
>
</g>

<g fill="#333333" fill-opacity="0.2" stroke="#333333" stroke-opacity="1" stroke-width="1" stroke-linecap="round" stroke-linejoin="round" transform="matrix(0.999964,0,0,-0.999964,41001.4,17050.8)"
font-family="MS Shell Dlg 2" font-size="10.3125" font-weight="400" font-style="normal" 
>
<path vector-effect="non-scaling-stroke" fill-rule="evenodd" d="M-15433.1,16201.1 L-16002.4,16201.1 L-16002.4,15012.4 L-15433.1,15012.4 L-15433.1,16201.1"/>
</g>

<g fill="none" stroke="#000000" stroke-opacity="1" stroke-width="1" stroke-linecap="square" stroke-linejoin="bevel" transform="matrix(0.999964,0,0,-0.999964,41001.4,17050.8)"
font-family="MS Shell Dlg 2" font-size="10.3125" font-weight="400" font-style="normal" 
>
</g>

<g fill="none" stroke="#000000" stroke-opacity="1" stroke-width="1" stroke-linecap="square" stroke-linejoin="bevel" transform="matrix(0.999964,0,0,-0.999964,41001.4,17050.8)"
font-family="MS Shell Dlg 2" font-size="10.3125" font-weight="400" font-style="normal" 
>
</g>

<g fill="#333333" fill-opacity="0.2" stroke="#333333" stroke-opacity="1" stroke-width="1" stroke-linecap="round" stroke-linejoin="round" transform="matrix(0.999964,0,0,-0.999964,41001.4,17050.8)"
font-family="MS Shell Dlg 2" font-size="10.3125" font-weight="400" font-style="normal" 
>
<path vector-effect="non-scaling-stroke" fill-rule="evenodd" d="M-36002.4,16391.6 L-36002.4,16767.3 L-35433.1,16767.3 L-35433.1,16391.6 L-31002.4,16391.6 L-31002.4,16578.6 L-30433.1,16578.6 L-30433.1,16391.6 L-19302.4,16391.6 L-19302.4,15822.3 L-20433.1,15822.3 L-20433.1,13918 L-21002.4,13918 L-21002.4,15822.3 L-25433.1,15822.3 L-25433.1,12823.6 L-26002.4,12823.6 L-26002.4,15822.3 L-30433.1,15822.3 L-30433.1,10634.9 L-31002.4,10634.9 L-31002.4,15822.3 L-35433.1,15822.3 L-35433.1,8446.12 L-36002.4,8446.12 L-36002.4,15822.3 L-37133.5,15822.3 L-37133.5,16391.6 L-36002.4,16391.6"/>
</g>

<g fill="none" stroke="#000000" stroke-opacity="1" stroke-width="1" stroke-linecap="square" stroke-linejoin="bevel" transform="matrix(0.999964,0,0,-0.999964,41001.4,17050.8)"
font-family="MS Shell Dlg 2" font-size="10.3125" font-weight="400" font-style="normal" 
>
</g>

<g fill="none" stroke="#000000" stroke-opacity="1" stroke-width="1" stroke-linecap="square" stroke-linejoin="bevel" transform="matrix(1,0,0,-1,0,11888.4)"
font-family="MS Shell Dlg 2" font-size="10.3125" font-weight="400" font-style="normal" 
>
</g>
</g>
</svg>
